<?xml version="1.0" encoding="UTF-8" standalone="no"?>
<svg
   xmlns:dc="http://purl.org/dc/elements/1.1/"
   xmlns:cc="http://creativecommons.org/ns#"
   xmlns:rdf="http://www.w3.org/1999/02/22-rdf-syntax-ns#"
   xmlns:svg="http://www.w3.org/2000/svg"
   xmlns="http://www.w3.org/2000/svg"
   id="svg16"
   width="500px"
   version="1.1"
   height="300px">
  <metadata
     id="metadata20">
    <rdf:RDF>
      <cc:Work
         rdf:about="">
        <dc:format>image/svg+xml</dc:format>
        <dc:type
           rdf:resource="http://purl.org/dc/dcmitype/StillImage" />
      </cc:Work>
    </rdf:RDF>
  </metadata>
  <defs
     id="defs4">
    <style
       id="style2"
       type="text/css"><![CDATA[    
     @font-face {font-family:7 hours;
     src: url('/Users/francesco/Repos/write-logos/src/fonts/7hours.ttf');}
     @font-face {font-family:18 Holes BRK;
     src: url('/Users/francesco/Repos/write-logos/src/fonts/18holes.ttf');}
     ]]></style>
  </defs>
  <g
     id="g14"
     style="font-size:50px">
    <g
       style="text-anchor:middle"
       id="text12"
       aria-label="eXtemporanea">
      <path
         id="path22"
         style="font-family:'7 hours'"
         d="m 110.38164,141.65 q 0,1.35 -2.95,3.95 -0.35,0.3 -2.5,1 -2.1,0.7 -2.7,0.7 h -0.85 q -0.6,0 -1.449999,-1.2 -0.4,-0.7 -0.8,-1.35 -4.75,-0.2 -8.65,-5 -0.8,-1 -1.6,-2.65 -1,-1.95 -1.35,-3.55 -0.35,-0.55 -0.65,-0.25 -0.05,-0.25 -0.05,-0.7 0.6,-0.35 0.55,-1.55 -0.1,-1.5 -0.05,-1.6 1.65,-5.9 3.6,-7.85 2.15,-2.1 6.85,-2.1 0.25,0 0.85,0.2 0.6,0.2 0.85,0.2 3.349999,0 5.699999,3.35 2.15,3.05 1.95,6.1 -0.7,0.15 -2.9,0.75 -1.8,0.45 -2.05,0.45 -0.2,0 -3.499999,0.4 -3.25,0.4 -3.5,0.4 -0.25,0 -0.95,0.2 -0.65,0.2 -0.9,0.2 -0.2,0 -1.65,0.35 -1.45,0.3 -1.95,0.35 -0.5,0.05 -1.15,0.65 0.35,2.1 2.05,4.7 1.95,2.95 4.3,4.35 0.45,0.3 0.9,0.65 0.65,0.45 0.95,0.45 h 0.95 q 0.25,0 0.4,0.1 0.2,0.1 0.45,0.1 0.65,0 0.7,-0.2 0.1,-0.5 0.849999,-1.1 0.75,-0.2 2,-0.75 1,-1 3.25,-2.5 0.25,-0.05 2.9,-0.05 0.25,0 0.85,0.6 0.65,0.55 0.95,1.05 0.3,0.5 0.3,1.15 z m -4.45,-13.15 v -1.3 q 0,-0.3 -0.3,-0.6 -0.25,-0.3 -0.25,-0.4 -0.1,-0.45 -0.35,-1.2 -2,-4.3 -8.449999,-4.3 -2.2,0 -3.9,0.9 -1.35,0.7 -2.85,3.8 -1.45,3.05 -1.45,5.05 0,0.85 0.3,1.3 1.25,-0.45 3.45,-1.05 7.949999,-1.1 13.799999,-2.2 z m 2.45,12.25 q -0.5,-0.9 -1.05,-0.9 -1.4,0 -1.55,0.1 -1.05,0.95 -3.25,2.7 -0.8,0.25 -1.95,0.75 3.8,-0.1 4.55,-0.3 1.55,-0.4 3.25,-2.35 z m 0.75,0.9 q -1.5,1.55 -2.35,2.05 -1,0.55 -2.35,0.55 -0.15,0 -1.7,0.25 -1.55,0.2 -2.2,0.2 0.6,1.4 1.5,1.4 h 0.95 q 1.55,0 3.7,-1.6 2.15,-1.65 2.45,-2.85 z" />
      <path
         id="path24"
         style="font-family:'18 Holes BRK'"
         d="m 120.87227,150.9 7.95,-15.9 -7.95,-15.9 -0.8,0.7 q -6.9,6.1 -6.9,15.2 0,4.4 1.8,8.35 1.8,3.95 5.1,6.85 z m 32.6,-15.9 q 0,-4.4 -1.8,-8.35 -1.8,-3.95 -5.1,-6.85 l -0.8,-0.7 -7.95,15.9 7.95,15.9 0.8,-0.7 q 6.9,-6.05 6.9,-15.2 z m -41.9,-12.25 -0.25,1.85 0.25,1.9 q 2.65,-6.7 8.5,-10.8 5.9,-4.1 13.25,-4.1 7.35,0 13.35,4.2 5.85,4.1 8.45,10.7 l 0.25,-1.9 -0.25,-1.85 q -3.3,-5.85 -9.1,-9.3 -5.8,-3.45 -12.7,-3.45 -6.95,0 -12.75,3.5 -5.8,3.55 -9,9.25 z m 0,20.75 -0.25,1.85 0.25,1.9 q 3.3,5.85 9.05,9.3 5.75,3.45 12.7,3.45 6.9,0 12.7,-3.5 5.95,-3.55 9.1,-9.25 l 0.25,-1.9 -0.25,-1.85 q -2.65,6.7 -8.55,10.8 -5.9,4.1 -13.25,4.1 -7.3,0 -13.25,-4.15 -5.9,-4.1 -8.5,-10.75 z m 16.5,-28 5.25,10.5 5.25,-10.5 -1.05,-0.2 q -2.05,-0.45 -4.2,-0.45 -2.2,0 -4.2,0.45 z m 10.5,39 -5.25,-10.5 -5.25,10.5 1.05,0.2 q 2,0.45 4.2,0.45 2.15,0 4.2,-0.45 z" />
      <path
         id="path26"
         style="font-family:'7 hours'"
         d="m 178.82695,119 q -0.2,-0.05 -0.8,0.3 0.15,0.75 -1.2,1.45 -1.15,0.6 -1.85,0.6 h -0.8 q -0.7,0 -1.8,-0.9 -0.35,-0.25 -0.7,-1.2 -1.35,0.05 -4.95,-0.1 v 5.5 q 0,0.45 0.85,1.7 0.7,1 1,2.65 0.25,0.9 0.55,2.65 0.2,2.35 0.55,7.4 -0.15,5.85 0,6 -0.25,1.3 -0.55,2.6 -0.35,1.7 -1.35,1.7 -0.2,0 -0.3,0.1 -0.05,0.1 -0.25,0.1 -1.2,0 -2,-0.95 -0.8,-0.95 -0.8,-2.1 0,-0.15 -0.15,-0.9 -0.15,-0.8 -0.15,-1.05 v -9 q 0,0.2 -0.5,-1.9 0.15,-0.15 0,-5.65 -0.05,-0.7 0.75,-1.45 0.85,-0.8 1.55,-0.95 0,-3.05 -0.1,-4.9 -0.05,-1.9 -0.05,-1.55 -0.55,0 -1.8,-0.05 -1.2,-0.1 -1.35,-0.1 -0.8,0 -1.5,0.1 -0.25,0.4 -0.5,0.85 -0.4,0.6 -1,0.6 -0.2,0 -0.5,0.15 -0.25,0.15 -0.5,0.15 -0.2,0 -0.6,0.2 -0.4,0.15 -0.6,0.15 -1.5,0 -1.85,-1.8 0,-0.05 -0.1,-2.55 0.95,-0.85 1.4,-0.85 2.05,0 1.85,0 1.1,0.05 1.55,0.6 0.25,0.55 0.85,1.55 0.2,0.05 1.4,0.05 0,0 1,0 1.05,0 2.1,0 0,0 0,-1.55 -0.4,0.1 -0.7,0.1 -1.95,0 -1.95,-3.7 0,-1.9 0.7,-2.45 0.55,-0.45 2.3,-0.45 0.25,0 0.7,0.4 0.5,0.4 0.65,0.7 0.4,0.95 0.4,2.65 0,1.2 -0.15,1.7 -1.15,1.1 -1.15,1.3 0,1.45 0.7,1.45 h 3.85 q 0.5,0 0.9,-0.3 -0.05,-0.15 0.1,-0.6 0.15,-0.5 0.5,-0.7 0.7,-0.4 3.65,-0.4 1.1,0 1.35,2 l 0.6,-0.15 q 0.2,0 0.75,0.8 z m -2.15,-0.7 q -0.2,-0.4 -0.55,-0.9 -0.55,-0.05 -1.05,-0.05 0.5,0 -1.9,0.25 -0.45,0.25 -0.4,0.75 3.65,0 3.9,-0.05 z m 0.35,1.1 q -2.9,0 -4.25,-0.2 0.55,1.15 1.2,1.15 0.25,0 0.75,-0.05 0.55,-0.1 0.75,-0.1 1.1,0 1.55,-0.8 z m -11.45,-3.75 -0.2,-4.55 q -1.6,-0.05 -1.6,1.9 0,1.4 0.6,2.6 0.1,0 0.35,0.15 0.25,0.1 0.45,0.1 0.4,0 0.4,-0.2 z m -5.7,2.3 q -0.45,-0.95 -1.65,-0.95 -1.65,0 -1.95,0.8 0.75,0.4 0.9,0.4 1.65,0 2.7,-0.25 z m 0.3,1.1 q -0.7,0 -1.85,0.1 -1.15,0.1 -1.85,0.1 0.7,1.1 0.95,1.1 0.55,0 1.6,-0.5 1.05,-0.55 1.15,-0.8 z m 8.7,22.2 q 0,-0.25 -0.15,-1.05 -0.1,-0.85 -0.1,-1.15 -0.15,-1.75 -0.3,-5.2 -0.05,-0.85 -0.4,-2.7 -0.3,-0.8 -0.45,-3.2 -0.1,-0.2 -0.4,-0.55 v 1.25 q 0,0.2 0.4,3.95 0.4,3.75 0.4,3.95 0,4.45 -0.55,11 -0.25,0.45 -0.5,0.45 -0.4,0 -0.25,-0.1 v -4.65 q 0.5,-2.1 0.5,-4.65 0,-2.15 -0.5,-6 -0.5,-4.15 -0.55,-5.85 -1.1,0.25 -1.4,1.3 -0.2,0.55 -0.2,2.2 0,0.25 0.25,2.3 0.15,1.15 0.3,2.35 v 9.5 q 0.6,4.1 1.5,4.1 h 1.3 q 0.45,0 0.8,-3.5 0.3,-2.7 0.3,-3.75 z m -3,-30.15 0.3,4.5 0.85,-0.35 v -2.2 l -0.45,-1.85 z" />
      <path
         id="path28"
         style="font-family:'7 hours'"
         d="m 203.35039,141.65 q 0,1.35 -2.95,3.95 -0.35,0.3 -2.5,1 -2.1,0.7 -2.7,0.7 h -0.85 q -0.6,0 -1.45,-1.2 -0.4,-0.7 -0.8,-1.35 -4.75,-0.2 -8.65,-5 -0.8,-1 -1.6,-2.65 -1,-1.95 -1.35,-3.55 -0.35,-0.55 -0.65,-0.25 -0.05,-0.25 -0.05,-0.7 0.6,-0.35 0.55,-1.55 -0.1,-1.5 -0.05,-1.6 1.65,-5.9 3.6,-7.85 2.15,-2.1 6.85,-2.1 0.25,0 0.85,0.2 0.6,0.2 0.85,0.2 3.35,0 5.7,3.35 2.15,3.05 1.95,6.1 -0.7,0.15 -2.9,0.75 -1.8,0.45 -2.05,0.45 -0.2,0 -3.5,0.4 -3.25,0.4 -3.5,0.4 -0.25,0 -0.95,0.2 -0.65,0.2 -0.9,0.2 -0.2,0 -1.65,0.35 -1.45,0.3 -1.95,0.35 -0.5,0.05 -1.15,0.65 0.35,2.1 2.05,4.7 1.95,2.95 4.3,4.35 0.45,0.3 0.9,0.65 0.65,0.45 0.95,0.45 h 0.95 q 0.25,0 0.4,0.1 0.2,0.1 0.45,0.1 0.65,0 0.7,-0.2 0.1,-0.5 0.85,-1.1 0.75,-0.2 2,-0.75 1,-1 3.25,-2.5 0.25,-0.05 2.9,-0.05 0.25,0 0.85,0.6 0.65,0.55 0.95,1.05 0.3,0.5 0.3,1.15 z m -4.45,-13.15 v -1.3 q 0,-0.3 -0.3,-0.6 -0.25,-0.3 -0.25,-0.4 -0.1,-0.45 -0.35,-1.2 -2,-4.3 -8.45,-4.3 -2.2,0 -3.9,0.9 -1.35,0.7 -2.85,3.8 -1.45,3.05 -1.45,5.05 0,0.85 0.3,1.3 1.25,-0.45 3.45,-1.05 7.95,-1.1 13.8,-2.2 z m 2.45,12.25 q -0.5,-0.9 -1.05,-0.9 -1.4,0 -1.55,0.1 -1.05,0.95 -3.25,2.7 -0.8,0.25 -1.95,0.75 3.8,-0.1 4.55,-0.3 1.55,-0.4 3.25,-2.35 z m 0.75,0.9 q -1.5,1.55 -2.35,2.05 -1,0.55 -2.35,0.55 -0.15,0 -1.7,0.25 -1.55,0.2 -2.2,0.2 0.6,1.4 1.5,1.4 h 0.95 q 1.55,0 3.7,-1.6 2.15,-1.65 2.45,-2.85 z" />
      <path
         id="path30"
         style="font-family:'7 hours'"
         d="m 235.04102,145.85 q 0,0.1 -0.05,0.65 0,0.55 0,0.8 0,0.35 -0.75,1.1 -0.75,0.75 -1.2,0.75 h -1.4 q -0.2,0 -0.65,-0.65 -0.95,-1.3 -1.4,-3.7 -0.2,-1.1 -0.2,-2.25 0,-1.4 0.35,-2.75 0.55,-1.95 1.5,-1.9 0.2,-0.1 0.2,-0.45 0,0.6 -0.35,-4.5 -0.15,-1.4 -0.5,-4.6 0,-1.65 -0.25,-4.95 -0.1,-0.5 -0.65,-1.15 -0.5,-0.65 -0.8,-0.8 -1.5,-0.65 -3.6,-0.65 -2.05,0 -3.85,1.45 -1.75,1.45 -1.75,2.9 0,0.75 0.25,1.1 0.7,0.7 1.7,2.2 0.85,2.45 0.85,3.4 0,1.15 -0.5,2.15 -0.7,1.3 -1.85,1.3 -0.25,0 -0.85,-0.55 -0.55,-0.55 -0.75,-0.95 -1.3,-2.8 -1.3,-4.05 0,-0.9 0.35,-2 0.45,-1.35 1.05,-1.45 -0.7,-3.5 -1.65,-4.45 -0.9,-0.95 -3.45,-0.95 -0.85,0 -1.9,1.2 -1.05,1.15 -1.05,1.6 0,0.15 0.25,0.75 0.25,0.6 0.25,0.8 0,0.8 -0.75,1.45 -0.7,0.6 -1.3,0.65 0,0.1 0.1,1.35 0.35,0.15 1,0.55 1.2,1.15 1.45,3.3 0.05,0.3 0.05,3.7 0,1.4 0.6,5.85 0,0 0,3.45 -0.15,1.65 -2.6,2.6 -0.25,-0.2 -0.5,-0.45 0.1,-0.15 -0.2,-0.65 -0.3,-0.55 -0.85,-1.75 -0.4,-1.65 -1,-4.7 -0.1,-1.35 -0.6,-3.85 0,-4.75 0,-4.7 0.2,-0.65 0.6,-1.9 0.05,-0.15 0.5,-0.6 0.45,-0.5 0.45,-0.7 0,-0.15 -0.15,-0.85 -0.15,-0.75 -0.15,-1 -1.3,-0.95 -1.75,-2.65 -0.25,-0.95 -0.25,-2.05 0,-1.45 0,-1.6 0.1,-0.35 0.7,-1 0.65,-0.7 1.15,-0.7 0.15,0 0.9,0.5 0.8,0.45 0.9,0.6 0.5,0.75 0.9,1.7 0.4,-0.55 1.4,-1.35 1.4,-0.7 2.4,-0.7 l 0.65,-0.1 q 1.05,0 2.8,1.05 0.35,0.2 0.85,1.2 0.65,1.35 0.7,1.4 0.4,-0.85 0.75,-1.2 2.65,-2.45 5.25,-2.45 l 0.65,-0.15 q 0.7,0 1.8,0.35 0.65,0.2 1.3,0.4 0.95,0.35 1.75,1.25 0.15,0.15 0.6,1.1 0.5,1.1 0.5,1.4 v 4 q 0,0.1 0.2,1.05 0.2,1.1 0.25,1.6 0,2.55 0.5,7.6 0.55,0.75 1.55,2.4 0.2,0.45 0.2,0.8 0.25,0.95 0.55,2.95 0.1,1.25 0.1,1.45 z m -13.7,-14.05 q 0,-0.45 -1.1,-3.4 0.45,2.8 0.45,4.15 0,0.9 -0.9,0.95 0.4,0.35 0.85,0.5 0.7,-1.3 0.7,-2.2 z m 12.5,14.65 q 0,-1.15 -0.35,-3.3 -0.35,-2.2 -0.75,-2.7 0.25,1.2 0.25,2.15 v 4.3 q 0,0.6 -0.55,0.6 -0.4,0 -0.6,-0.45 v -4.6 q 0,-0.05 -0.25,-0.35 0.05,-0.55 0.05,-1.4 -0.05,-0.6 -0.25,-1.7 -0.85,1.4 -0.85,3.6 0,2.75 1.2,5 0.3,0.65 0.75,0.5 1.35,-0.1 1.35,-1.65 z m -14.35,-13.5 q -0.2,-1.75 -0.6,-5.05 -0.35,0.15 -0.35,1.6 0,1.15 0.05,1.45 0.45,1 0.9,2 z m -10.05,-9.75 q 0,-0.75 -0.75,-1.9 0.1,1 0.3,2.8 0.45,-0.95 0.45,-0.9 z m -1.7,2.3 q 0,-1.95 -0.25,-5.25 -0.6,0.7 -0.6,2.05 0,0.85 0.2,1.7 0.2,0.85 0.65,1.5 z m 3.35,18.1 q 0,0.05 -0.25,-3.5 -0.3,-3.8 -0.35,-5.65 0.1,-0.1 0.2,-0.2 0.15,-2.2 -1.2,-4.05 0,5.65 0.35,8.2 0.1,0.7 0.6,8.1 0.65,-0.65 0.65,-2.9 z m -2.05,0.35 v -0.65 q 0,-0.25 -0.1,-0.4 -0.1,-0.2 -0.1,-0.3 0.05,0.5 0.05,-2.8 0,-0.05 -0.25,-1.8 -0.2,-1.35 -0.25,-3.65 -0.05,-2.7 -0.15,-3.65 -0.6,0.9 -0.6,3.9 0,4.95 1.4,9.35 z" />
      <path
         id="path32"
         style="font-family:'7 hours'"
         d="m 255.12695,133.35 q 0,3.9 -0.65,6.3 -0.6,2.2 -3.1,4.35 -3.05,2.6 -9.1,2.35 -0.1,0 -0.45,0.3 v 2.7 q 0.5,-0.1 1.3,1.3 0.8,1.45 0.8,2.1 0,0.3 -0.3,0.7 0,0.4 0.05,1.25 0.1,0.9 0.1,1.4 0,1.7 -0.8,2.6 -0.2,0 -0.7,0.1 -0.5,0.15 -0.8,0.15 -0.65,0 -1.05,-0.2 -0.6,-0.5 -1.25,-1.45 -0.5,-5.05 -0.5,-5.7 0,-1.2 0.25,-1.65 0.4,-0.85 1.75,-0.65 0.05,-0.05 0.3,-0.25 v -7.15 q -0.35,-1.5 -0.75,-4.35 -0.1,-1.8 -0.1,-2.6 -0.75,-0.15 -2.4,-0.55 -0.1,-0.2 -0.3,-0.55 -0.1,-1 -0.1,-4.3 0,-1.85 0.25,-5.25 0.3,-3.45 0.5,-3.75 0.2,-0.35 0.5,-0.5 1.3,-0.25 1.25,-0.25 0.15,0 0.5,0.15 0.35,0.15 0.5,0.15 0.7,0.35 1.4,1 0.3,1.15 0.75,1.15 0.25,0 0.55,-0.15 0.3,-0.2 0.5,-0.2 h 2.8 q 0.8,0 2.2,0.6 1.2,0.5 1.65,0.85 4.45,3.65 4.45,10 z m -0.85,0.6 q 0,-4.85 -2.25,-7.5 -0.5,-0.8 -1.65,-2.05 -2.2,-1.45 -3.3,-1.45 -2.75,0 -4.35,0.2 -0.05,0.35 0.05,0.9 0.15,0.7 0.15,0.95 0,0.8 -0.9,1.3 0,0.7 -0.1,0.8 -0.05,-0.6 -0.05,-1.8 0,-1.25 -0.1,-1.85 -0.45,0.25 -0.95,0.45 -0.2,0.15 -0.2,0.7 0,-0.1 0.2,3.7 0.2,3.8 0.2,5.65 0.85,-0.45 0.85,-0.8 0.05,-1.9 0.2,-5.75 0.1,-0.05 0.4,-0.3 0.55,0.55 0.55,1.15 0,0.35 0,1.3 0.05,0.9 0.05,1.05 0,3.85 -0.95,3.85 -0.2,0 -0.6,0.2 -0.35,0.2 -0.55,0.2 0.45,3.55 1.05,10.6 2.35,0 4.45,-0.35 0.2,-0.05 0.95,-0.25 0.75,-0.25 1,-0.25 0.6,0 1.95,-1.2 2.75,-2.4 3.05,-3.95 0.85,-4.25 0.85,-5.5 z m -12.6,-11.8 q -0.25,-0.5 -0.45,-0.65 -0.35,-0.25 -1.25,-0.4 -0.1,-0.25 -0.95,-0.25 -0.3,1.4 -0.65,3.75 -0.2,4.1 -0.2,6 0,2.05 0,1.9 0.2,1.45 1.4,1.45 0.2,0 0.35,-1.55 0.15,-1.25 0.15,-1.8 0,-0.1 -0.2,-3.4 -0.15,-3.35 -0.2,-4.75 -0.3,-0.45 -0.3,-0.65 0,-0.45 0.65,-0.45 0.55,0 0.65,0.5 0,-0.1 0,0.9 0.4,-0.2 1,-0.6 z m 1.2,33.65 q 0,0 -0.3,-3.6 -0.05,-0.7 -0.5,-1.4 0.1,1.3 -0.1,6.3 -0.15,0.2 -0.4,0.45 -0.3,-0.35 -0.45,-0.35 0,-6.95 0,-6.95 h -1.15 l -0.25,2.5 q 0.35,2.9 0.6,4.7 0.85,0.6 1.15,0.6 0.9,0 1.15,-0.5 0.25,-0.5 0.25,-1.75 z" />
      <path
         id="path34"
         style="font-family:'7 hours'"
         d="m 283.62305,131.15 q 0,2.15 0.05,1.55 -0.1,1.05 -0.65,2 -0.7,1.25 -2.4,2.9 -2.1,2 -3.45,2 -3.5,1.5 -4.55,1.5 h -2.95 q -2.3,0 -5.05,-2.55 -0.9,-0.85 -2.7,-3.35 -2.05,-2.9 -2.05,-7.4 0,-1.2 0.45,-3.85 0.05,-0.5 0.65,-2.7 0.1,-0.35 1.35,-3.1 0.45,-1.05 2,-2.25 1.55,-1.25 2.65,-1.4 0.2,-0.05 0.8,-0.25 0.65,-0.25 0.9,-0.25 3.8,0 4.65,0.15 0.25,0.05 0.95,0.3 0.7,0.25 0.9,0.25 0.65,0 1.15,0.25 0.85,0.4 2,1.35 2.35,1.85 3.9,6.75 1.4,4.35 1.4,8.1 z m -0.85,0 q 0,-1.35 -0.75,-4.7 -1.65,-7.6 -4.95,-9.8 -1.25,-0.8 -1.75,-0.8 -0.2,0 -0.5,-0.2 -0.3,-0.2 -0.3,-0.2 -1.1,-0.3 -2.85,-0.55 -0.15,-0.05 -0.7,-0.05 -3.75,0 -6.05,1.6 -1.8,1.25 -3.05,5.25 -1,3.4 -1,6.2 0,5.85 4.7,10.05 0.75,0.7 1.95,1.35 1.4,0.8 2.15,0.8 0.2,0 0.55,0.1 0.35,0.05 0.5,0.05 0.25,0 1.6,-0.15 1.4,-0.15 1.6,-0.15 0.2,0 0.85,-0.35 0.7,-0.4 0.9,-0.45 3,-0.75 5.05,-2.95 2.05,-2.2 2.05,-5.05 z" />
      <path
         id="path36"
         style="font-family:'7 hours'"
         d="m 313.40039,119.6 q 0,2.5 -3.25,2.5 h -1.5 q -0.2,0 -0.7,-0.6 -0.5,-0.6 -0.6,-1.15 -0.5,-2.35 -0.55,-2.5 -0.45,-1.45 -1.45,-2.2 -0.2,-0.65 -0.5,-2.25 -1.1,-0.8 -6.35,-0.8 -0.2,0 -0.6,0.15 -0.4,0.15 -0.55,0.15 -1.85,0 -4.3,1.4 -0.35,0.2 -0.75,1.4 -0.4,1.2 -0.4,1.65 0,-0.75 0.7,9.15 0,0 0,2.85 0,0.15 0.35,0.6 0.35,0.45 0.4,0.7 0.5,2.25 0.25,4 -0.1,0.85 0.15,3.2 0.35,2.7 0.35,3.3 0,3.2 0.05,5.3 0.1,1.85 0.1,1.45 0,1.25 -0.75,2.5 -0.1,0.2 -0.65,0.45 -0.55,0.25 -0.7,0.55 -0.1,0.35 -0.5,0.85 -0.05,-0.05 -0.55,-1.3 -0.45,0 -1,-0.55 -0.55,-0.55 -0.75,-1.2 -0.15,-0.45 -0.35,-1.35 -0.1,-1.25 -0.1,-3 0,-1.9 0.7,-13.85 0.05,-0.55 0.85,-1.65 0.4,-0.5 1.3,-0.4 v -3.1 q -0.2,-0.55 -0.4,-1.85 0.05,-1.2 0.05,-2.45 0,-2.15 -0.4,-3.35 -0.05,-0.15 -0.05,-0.85 0,-1.1 -0.45,-2.1 -1.2,0.65 -2.5,0.65 -0.2,0 -0.65,-0.3 -0.6,-0.35 -0.7,-0.4 -0.4,-1 -0.4,-1.55 0,-1.05 0.5,-2.05 0.6,-1.2 1.6,-1.2 1.7,0 3,2.25 -0.45,1.1 0.15,2.45 0.15,-0.45 0.55,-1.05 0.45,-0.6 2.75,-1.5 2.05,-0.8 2.55,-0.8 4.85,0 7.45,0.35 0.3,-1.2 1,-1.45 0.7,-0.25 2.55,-0.25 0.25,0 0.25,0.15 0.05,0.15 0.1,0.15 0.55,-0.05 1.7,0.8 0.85,0.65 1.25,1.2 0.25,0.7 0.8,2.1 0.2,0.4 0.5,1.2 0.45,2.1 0.45,3.6 z m -0.8,-0.2 q 0,0.05 -0.25,-0.55 0.35,-1.15 -0.8,-4.05 -1.3,-3.4 -3.4,-3.4 -1.3,0 -1.8,0.2 -0.15,-0.15 -0.3,0.15 -0.1,0.25 -0.1,0.65 3.75,0.6 5.05,4.15 0.25,0.55 0.25,1.7 0,0.25 -0.25,2.05 -0.15,0.3 -0.65,0.3 -0.3,-0.35 -0.3,-0.8 0,0 0.25,-1.2 0.15,-0.85 -0.1,-1.6 -0.4,-1.15 -1.7,-2.25 -1.3,-1.1 -2.75,-1.5 v 0.9 q 0,0.2 0.8,1.35 0.9,1.3 1.1,1.7 0.25,1.35 0.8,3.3 0.35,0.75 1.65,0.75 0.2,0 0.75,-0.05 0.55,-0.1 0.8,-0.1 0.25,0 0.6,-0.6 0.35,-0.6 0.35,-1.1 z m -22.3,-6.65 -0.4,-0.55 -0.2,0.15 0.4,0.55 z m -0.2,1.4 q -1.5,-1.5 -1.5,-1.75 0,-0.15 0.4,-0.5 0.1,0.15 0.35,0.15 0.25,0.05 0.25,-0.1 -0.45,-0.4 -1.65,-0.7 -0.7,1.45 -0.7,2.15 0,1.5 1.4,1.5 0.75,0 1.45,-0.75 z m 2.75,19.35 q -0.2,-0.6 -0.2,-1.6 -0.25,0.9 -0.15,2.2 0,-0.45 0.35,-0.6 z m -1.3,-3.55 q -0.45,0.35 -0.85,1.05 -0.8,12.55 -0.8,14.1 0,3.75 0.9,4.75 0.25,0.05 0.55,-0.05 0.4,-0.9 0.4,-2.35 0,-0.75 -0.2,-2.35 -0.15,-1.65 -0.15,-2.4 v -6.9 q 0,0 0.05,-2.4 0.1,-2.4 0.1,-3.45 z m 1.7,14.95 q 0,-0.1 -0.1,-1.8 -0.1,-1.7 -0.15,-2.45 0,-2.35 -0.7,-5.25 0.25,12.7 0.15,14.3 0.4,0 0.5,-0.35 0.3,-1.1 0.3,-4.45 z" />
      <path
         id="path38"
         style="font-family:'7 hours'"
         d="m 339.64492,146.05 q 0,-0.25 -0.25,1.5 -1.6,1.4 -2.65,1.4 -1.4,0 -1.75,-1.3 -0.2,-1.1 -0.45,-2.2 -2.25,1.2 -3.15,1.2 -0.2,0 -1.45,0.1 -1.2,0.05 -1.4,0.05 -0.2,0 -1.5,-0.15 -1.3,-0.2 -1.5,-0.2 -2.25,0 -4.3,-2.1 -1.7,-1.7 -2.15,-3.45 -0.8,-2.75 -0.8,-5.35 0,-0.15 0.15,-0.7 0.15,-0.55 0.15,-0.8 -0.1,-3.9 1.5,-7.45 0.45,-1.05 0.95,-1.85 0.9,-1.5 2.3,-2.05 3.6,-1.4 4.05,-1.4 3.15,0 7.2,1.2 l 0.2,-0.1 q -0.4,-1.6 -0.9,-3.3 -0.5,-1.7 -1.2,-3.2 -0.2,-0.65 -0.75,-1.8 -0.7,-0.85 -2.4,-1.4 -1.3,-0.4 -2.25,-0.4 -2.1,0 -2.55,0.05 -0.15,0.05 -0.65,0.25 -0.45,0.2 -0.7,0.2 -0.5,0 -0.6,0.1 0.7,2 0.7,1.8 0,0.3 -0.8,1.9 -0.75,1.55 -1.3,2.3 -1.15,1.55 -2.85,1.55 -0.2,0 -0.75,0.1 -0.55,0.1 -0.75,0.1 -0.5,0 -1.3,-1.4 -0.1,-0.2 -0.1,-1.1 0,-0.25 0.45,-2.2 0.15,-0.75 2.1,-2.35 1.95,-1.65 2.85,-1.65 0.2,0 0.3,0.1 0.15,0.1 0.4,0.1 0.15,0 0.7,-0.15 0.6,-0.2 0.8,-0.2 0.2,0 0.2,-0.15 0.05,-0.2 0.25,-0.2 0.25,0 1.85,-0.05 1.65,-0.1 1.85,-0.1 -0.3,0 2.4,0.5 2.7,0.45 4.2,4.4 1.6,4.15 2.1,7.85 0.2,4.1 0.65,12.15 0.15,2.4 0.45,4.5 0,0.05 0.2,0.25 2.25,0.4 2.25,5.1 z m -17.15,-31.5 q 0,0.05 -0.6,-1.1 -1.75,1.25 -2.6,3.05 0,0.05 -1,2.9 0.1,0.1 0.3,0 0.25,-0.1 0.45,-0.1 1.15,0 1.9,-1.5 0.5,-1.2 1.05,-2.35 0.5,-0.7 0.5,-0.9 z m -2.8,-0.7 q -1.4,0.45 -2.4,2.05 -0.8,1.35 -0.8,2.3 0.55,1.4 1.3,1.4 -0.3,-1.1 -0.1,-1.85 0.25,-1.3 0.95,-2.3 0.4,-0.55 1.05,-1.6 z m 16.6,26.9 q -0.25,-1.85 -0.6,-4.7 -0.1,-2.1 -0.3,-6 -0.05,-2.25 -0.3,-6 -0.15,-0.4 -1.1,-0.75 -0.95,-0.35 -1.6,-0.35 -0.2,0 -0.35,-0.05 -0.1,-0.1 -0.35,-0.1 -0.2,0 -1.6,-0.25 -1.35,-0.25 -1.55,-0.25 -2.5,0 -4.8,1.25 -2.3,1.2 -3.5,5.3 -0.95,3.25 -0.95,6.85 0,10.25 9.5,10.25 1.2,0 2.85,-0.4 1.85,-0.4 2.6,-1 0,0 0.15,-1.65 0.1,-1 1.9,-2.15 z m 2.5,5.3 q 0,-0.25 -0.35,-1.65 -0.45,-1.65 -0.55,-2.2 -0.2,-0.35 -0.75,-0.35 v 2.2 q 0.2,0.8 0.2,2.45 -0.4,-0.15 -0.95,-0.95 0.2,-0.6 -0.15,-1.25 -0.15,0.1 -0.45,0.35 -0.25,0.2 -0.3,0.2 0,0.9 0.35,2.55 0.3,0.75 0.8,0.75 0.5,0 1.3,-0.7 0.85,-0.75 0.85,-1.4 z m -2.85,-3.95 q -0.5,0 -0.75,0.85 -0.2,0.8 -0.05,1.1 0.2,0.4 0.9,-0.35 0.3,-0.35 0.3,-0.95 -0.05,-0.65 -0.4,-0.65 z" />
      <path
         id="path40"
         style="font-family:'7 hours'"
         d="m 361.03086,144.55 q 0,1.35 -0.2,2.15 -0.35,1.3 -1.3,2.05 -0.55,0.35 -0.75,0.35 h -0.75 q -2.05,0 -2.05,-3.6 0,-1.15 0.3,-2.9 0.05,-0.25 0.4,-1.15 0.25,-0.55 1.55,-1.1 0.1,-1.5 0.35,-4.9 0.25,-3 0.25,-3.15 0,-7.35 -8.35,-7.35 -1.4,0 -2.35,0.15 -0.65,0.1 -0.8,0.15 -0.45,0.15 -0.65,0.5 -0.25,0.7 -0.5,1.45 -0.4,1.1 -1.15,1.4 0.15,0.7 0.15,2.45 1.4,0.3 1.6,3.95 -0.05,1.15 0.05,3 0.1,2.2 0.1,2.95 0,2.6 -0.6,4.4 -0.3,1 -0.65,1.35 -0.1,0.1 -0.35,0.35 -0.05,0.35 -0.3,0.9 -1.4,-0.4 -1.15,-0.4 -0.15,0 -0.25,0.1 -0.1,0.05 -0.25,0.05 -0.55,0 -1.15,-1 -0.1,-0.2 -0.75,-2.4 0.15,-0.15 0,-6.45 0.25,-1.95 0.5,-3.95 0.3,-2.4 2.05,-3 0,-0.15 0.05,-0.5 0.05,-0.35 0.05,-0.5 0,-0.1 -0.05,-0.45 -0.05,-0.3 0,-0.5 -0.05,-0.3 -0.45,-0.5 -0.55,-0.3 -0.7,-0.45 -0.45,-0.5 -0.65,-1.45 -0.3,-1.5 -0.3,-1.8 0,-0.3 0.4,-1.25 0.45,-1 0.55,-1.1 0.15,-0.15 0.45,-0.4 0.15,0 0.55,-0.15 0.45,-0.15 0.6,-0.15 1.4,0 1.95,2.75 h 0.15 q 0.1,0 1,-0.3 0.9,-0.3 1.05,-0.3 l 0.8,0.15 q 0.15,0 0.3,-0.1 0.15,-0.15 0.3,-0.15 0.1,0 0.3,0.05 0.25,0.05 0.4,0.05 h 1.55 q 0.15,0 0.45,0.1 0.35,0.1 0.5,0.1 0.95,0.05 3.9,1.65 0.7,0.4 1.15,1.1 0.35,0.5 0.9,1.65 0.65,2.05 0.65,3.8 0,0.15 -0.3,3.7 -0.25,3.5 -0.25,3.65 0,0.55 0.05,0.7 0.8,0 1.05,0.5 0.25,0.45 0.4,1.2 0.2,1.25 0.2,2.55 z m -15.6,-19.35 q 0,-0.85 -0.55,-2.1 -0.2,-0.2 -0.55,-0.2 -0.6,0 -0.95,0.9 -0.25,0.65 -0.25,1.2 0,0.6 0.2,1.35 0.3,0.95 0.7,1.05 -0.2,-0.55 -0.2,-0.6 -0.05,-1.1 0,-3.25 0.05,-0.35 0.6,-0.3 h 0.1 q 0.35,0.4 0.35,1.45 0,1.65 0,1.55 0.55,-0.65 0.55,-1.05 z m 14.55,20.05 q 0,-2.6 -0.35,-3.7 l -0.15,-0.15 q -0.15,2.2 -0.5,6.1 -0.1,0.5 -0.1,0.3 0.5,-0.1 0.85,-1.15 0.25,-0.8 0.25,-1.4 z m -1.35,2.6 q -0.3,0 -0.45,-0.25 -0.15,-0.7 -0.15,-2.1 0,-0.05 0.1,-1.6 0.1,-1.6 0.1,-2.4 -1.2,0.5 -1.2,3.95 0.2,2.6 0.65,2.6 0.85,0 0.95,-0.2 z m -12.75,-6.3 q 0,-0.8 -0.05,-1.05 0,-0.1 -0.15,-0.25 -0.1,-0.2 -0.1,-0.35 v -3.6 q 0,-3.05 0,-2.95 -0.05,-0.35 -0.4,-0.9 v 6.25 q 0,0.15 0.15,0.65 0.15,0.45 0.15,0.55 v 4.6 q 0.4,-2.05 0.4,-2.95 z m -1.5,0.6 q 0,-2.55 -0.35,-4.9 0,-5.15 0.1,-5.25 -0.9,0.45 -1,1.2 -0.6,4.7 -0.6,7.95 0,4.4 1,5.3 0.35,0.15 0.55,0.1 0.3,-2.6 0.3,-4.4 z" />
      <path
         id="path42"
         style="font-family:'7 hours'"
         d="m 387.0418,141.65 q 0,1.35 -2.95,3.95 -0.35,0.3 -2.5,1 -2.1,0.7 -2.7,0.7 h -0.85 q -0.6,0 -1.45,-1.2 -0.4,-0.7 -0.8,-1.35 -4.75,-0.2 -8.65,-5 -0.8,-1 -1.6,-2.65 -1,-1.95 -1.35,-3.55 -0.35,-0.55 -0.65,-0.25 -0.05,-0.25 -0.05,-0.7 0.6,-0.35 0.55,-1.55 -0.1,-1.5 -0.05,-1.6 1.65,-5.9 3.6,-7.85 2.15,-2.1 6.85,-2.1 0.25,0 0.85,0.2 0.6,0.2 0.85,0.2 3.35,0 5.7,3.35 2.15,3.05 1.95,6.1 -0.7,0.15 -2.9,0.75 -1.8,0.45 -2.05,0.45 -0.2,0 -3.5,0.4 -3.25,0.4 -3.5,0.4 -0.25,0 -0.95,0.2 -0.65,0.2 -0.9,0.2 -0.2,0 -1.65,0.35 -1.45,0.3 -1.95,0.35 -0.5,0.05 -1.15,0.65 0.35,2.1 2.05,4.7 1.95,2.95 4.3,4.35 0.45,0.3 0.9,0.65 0.65,0.45 0.95,0.45 h 0.95 q 0.25,0 0.4,0.1 0.2,0.1 0.45,0.1 0.65,0 0.7,-0.2 0.1,-0.5 0.85,-1.1 0.75,-0.2 2,-0.75 1,-1 3.25,-2.5 0.25,-0.05 2.9,-0.05 0.25,0 0.85,0.6 0.65,0.55 0.95,1.05 0.3,0.5 0.3,1.15 z m -4.45,-13.15 v -1.3 q 0,-0.3 -0.3,-0.6 -0.25,-0.3 -0.25,-0.4 -0.1,-0.45 -0.35,-1.2 -2,-4.3 -8.45,-4.3 -2.2,0 -3.9,0.9 -1.35,0.7 -2.85,3.8 -1.45,3.05 -1.45,5.05 0,0.85 0.3,1.3 1.25,-0.45 3.45,-1.05 7.95,-1.1 13.8,-2.2 z m 2.45,12.25 q -0.5,-0.9 -1.05,-0.9 -1.4,0 -1.55,0.1 -1.05,0.95 -3.25,2.7 -0.8,0.25 -1.95,0.75 3.8,-0.1 4.55,-0.3 1.55,-0.4 3.25,-2.35 z m 0.75,0.9 q -1.5,1.55 -2.35,2.05 -1,0.55 -2.35,0.55 -0.15,0 -1.7,0.25 -1.55,0.2 -2.2,0.2 0.6,1.4 1.5,1.4 h 0.95 q 1.55,0 3.7,-1.6 2.15,-1.65 2.45,-2.85 z" />
      <path
         id="path44"
         style="font-family:'7 hours'"
         d="m 413.08242,146.05 q 0,-0.25 -0.25,1.5 -1.6,1.4 -2.65,1.4 -1.4,0 -1.75,-1.3 -0.2,-1.1 -0.45,-2.2 -2.25,1.2 -3.15,1.2 -0.2,0 -1.45,0.1 -1.2,0.05 -1.4,0.05 -0.2,0 -1.5,-0.15 -1.3,-0.2 -1.5,-0.2 -2.25,0 -4.3,-2.1 -1.7,-1.7 -2.15,-3.45 -0.8,-2.75 -0.8,-5.35 0,-0.15 0.15,-0.7 0.15,-0.55 0.15,-0.8 -0.1,-3.9 1.5,-7.45 0.45,-1.05 0.95,-1.85 0.9,-1.5 2.3,-2.05 3.6,-1.4 4.05,-1.4 3.15,0 7.2,1.2 l 0.2,-0.1 q -0.4,-1.6 -0.9,-3.3 -0.5,-1.7 -1.2,-3.2 -0.2,-0.65 -0.75,-1.8 -0.7,-0.85 -2.4,-1.4 -1.3,-0.4 -2.25,-0.4 -2.1,0 -2.55,0.05 -0.15,0.05 -0.65,0.25 -0.45,0.2 -0.7,0.2 -0.5,0 -0.6,0.1 0.7,2 0.7,1.8 0,0.3 -0.8,1.9 -0.75,1.55 -1.3,2.3 -1.15,1.55 -2.85,1.55 -0.2,0 -0.75,0.1 -0.55,0.1 -0.75,0.1 -0.5,0 -1.3,-1.4 -0.1,-0.2 -0.1,-1.1 0,-0.25 0.45,-2.2 0.15,-0.75 2.1,-2.35 1.95,-1.65 2.85,-1.65 0.2,0 0.3,0.1 0.15,0.1 0.4,0.1 0.15,0 0.7,-0.15 0.6,-0.2 0.8,-0.2 0.2,0 0.2,-0.15 0.05,-0.2 0.25,-0.2 0.25,0 1.85,-0.05 1.65,-0.1 1.85,-0.1 -0.3,0 2.4,0.5 2.7,0.45 4.2,4.4 1.6,4.15 2.1,7.85 0.2,4.1 0.65,12.15 0.15,2.4 0.45,4.5 0,0.05 0.2,0.25 2.25,0.4 2.25,5.1 z m -17.15,-31.5 q 0,0.05 -0.6,-1.1 -1.75,1.25 -2.6,3.05 0,0.05 -1,2.9 0.1,0.1 0.3,0 0.25,-0.1 0.45,-0.1 1.15,0 1.9,-1.5 0.5,-1.2 1.05,-2.35 0.5,-0.7 0.5,-0.9 z m -2.8,-0.7 q -1.4,0.45 -2.4,2.05 -0.8,1.35 -0.8,2.3 0.55,1.4 1.3,1.4 -0.3,-1.1 -0.1,-1.85 0.25,-1.3 0.95,-2.3 0.4,-0.55 1.05,-1.6 z m 16.6,26.9 q -0.25,-1.85 -0.6,-4.7 -0.1,-2.1 -0.3,-6 -0.05,-2.25 -0.3,-6 -0.15,-0.4 -1.1,-0.75 -0.95,-0.35 -1.6,-0.35 -0.2,0 -0.35,-0.05 -0.1,-0.1 -0.35,-0.1 -0.2,0 -1.6,-0.25 -1.35,-0.25 -1.55,-0.25 -2.5,0 -4.8,1.25 -2.3,1.2 -3.5,5.3 -0.95,3.25 -0.95,6.85 0,10.25 9.5,10.25 1.2,0 2.85,-0.4 1.85,-0.4 2.6,-1 0,0 0.15,-1.65 0.1,-1 1.9,-2.15 z m 2.5,5.3 q 0,-0.25 -0.35,-1.65 -0.45,-1.65 -0.55,-2.2 -0.2,-0.35 -0.75,-0.35 v 2.2 q 0.2,0.8 0.2,2.45 -0.4,-0.15 -0.95,-0.95 0.2,-0.6 -0.15,-1.25 -0.15,0.1 -0.45,0.35 -0.25,0.2 -0.3,0.2 0,0.9 0.35,2.55 0.3,0.75 0.8,0.75 0.5,0 1.3,-0.7 0.85,-0.75 0.85,-1.4 z m -2.85,-3.95 q -0.5,0 -0.75,0.85 -0.2,0.8 -0.05,1.1 0.2,0.4 0.9,-0.35 0.3,-0.35 0.3,-0.95 -0.05,-0.65 -0.4,-0.65 z" />
    </g>
  </g>
</svg>
