<?xml version="1.0" encoding="UTF-8" standalone="no"?>
<svg
   xmlns:dc="http://purl.org/dc/elements/1.1/"
   xmlns:cc="http://creativecommons.org/ns#"
   xmlns:rdf="http://www.w3.org/1999/02/22-rdf-syntax-ns#"
   xmlns:svg="http://www.w3.org/2000/svg"
   xmlns="http://www.w3.org/2000/svg"
   id="svg16"
   width="800px"
   version="1.1"
   height="200px">
  <metadata
     id="metadata20">
    <rdf:RDF>
      <cc:Work
         rdf:about="">
        <dc:format>image/svg+xml</dc:format>
        <dc:type
           rdf:resource="http://purl.org/dc/dcmitype/StillImage" />
      </cc:Work>
    </rdf:RDF>
  </metadata>
  <defs
     id="defs4">
    <style
       id="style2"
       type="text/css"><![CDATA[    
     @font-face {font-family:Adzkia;
     src: url('/Users/francesco/Repos/write-logos/src/fonts/Adzkia.ttf');}
     @font-face {font-family:Ludlow Strong Ale;
     src: url('/Users/francesco/Repos/write-logos/src/fonts/Ludlow_Strong_Ale.ttf');}
     ]]></style>
  </defs>
  <g
     id="g14"
     style="font-size:60px">
    <g
       style="text-anchor:middle"
       id="text12"
       aria-label="eXtemporanea">
      <path
         id="path22"
         style="font-family:Adzkia"
         d="m 254.21875,97.65625 q -0.0879,-0.05859 -0.20508,-0.175781 -0.14648,-0.205078 -0.14648,-0.234375 -1.40625,-0.292969 -2.63672,-0.732422 -1.23047,-0.46875 -1.81641,-1.435547 -0.46875,-0.673828 -0.26367,-1.464844 0.17578,-0.791015 0.84961,-1.230469 0.29297,-0.146484 0.29297,-0.146484 -0.14649,-0.117187 -0.17578,-0.351562 -0.79102,-2.314454 -0.61524,-4.892579 0.17578,-2.578125 1.23047,-5.097656 1.46485,-3.574219 4.33594,-5.419922 2.90039,-1.904297 6.24023,-1.289062 3.33985,0.703125 5.59571,3.515625 2.25586,2.783203 2.84179,6.679687 0.14649,1.113282 -0.9375,1.259766 -0.0879,0 -0.14648,0 -0.0293,0 -0.0879,0 l -16.8457,0.05859 q 0,0.117187 -0.0293,0.234375 0,0.08789 0,0.175781 -0.14649,2.050781 0.43945,3.925781 0.0293,0 0.0586,-0.0293 0.0293,-0.0293 0.0879,-0.05859 0,0 0,0 0.0293,0 0.0293,-0.0293 0.70313,-0.38086 1.46485,-0.234375 0.79101,0.205078 1.20117,0.849609 0,0 0,0.0293 0.0293,0 0.0293,0 0.82031,1.347656 0.38085,2.636719 -0.43945,1.289062 0.14649,1.728515 0.0879,0.08789 0.17578,0.146485 0.11719,0.05859 0.23438,0.146484 v -0.849609 q 0,-0.585938 0.58593,-0.585938 0.61524,0 0.61524,0.585938 v 1.523437 q 1.52343,0.732422 3.19336,0.84961 2.66601,0.146484 5.00976,-1.230469 0.9668,-0.527344 1.49414,0.410156 0.52735,0.966797 -0.41015,1.523438 -2.92969,1.640624 -6.21094,1.464843 -2.16797,-0.117187 -3.95508,-0.996093 l -2.8125,0.234375 q -0.61523,0.05859 -0.64453,-0.556641 -0.0586,-0.585938 0.52734,-0.644531 l 1.14258,-0.08789 q -0.20508,-0.08789 -0.26367,-0.205078 z m 13.0957,-13.212891 q -0.64453,-2.548828 -2.10937,-4.365234 -1.84571,-2.226563 -4.30664,-2.724609 -2.40235,-0.46875 -4.62891,0.966796 -2.31445,1.494141 -3.51562,4.394532 -0.38086,0.996093 -0.61524,1.787109 z m -14.67773,7.851563 q -0.0879,0.205078 -0.0293,0.673828 v 0 q 0.0293,0.175781 -0.0586,0.380859 -0.32227,0.498047 -0.82031,0.205078 -0.49805,-0.263671 -0.64454,-0.263671 -0.20507,-0.0293 -0.43945,0.117187 -0.29297,0.205078 -0.32226,0.46875 -0.0586,0.292969 0.0879,0.585938 0.38086,0.615234 1.34765,0.966796 0.9961,0.351563 2.16797,0.615235 0.64453,-2.900391 0.0586,-3.867188 v 0 q -0.20507,-0.263672 -0.46875,-0.322265 -0.35156,-0.08789 -0.55664,0.08789 h -0.0293 q -0.20508,0.175782 -0.29297,0.351563 z" />
      <path
         id="path24"
         style="font-family:'Ludlow Strong Ale'"
         d="m 305.75195,59.746094 q 9.78516,4.804687 12.65625,-0.351563 h 1.02539 q -2.92968,14.267578 -16.43554,8.320313 l -0.61524,0.498047 -2.13867,4.130859 10.37109,15.644531 q 0.90821,0.908203 1.61133,1.40625 l 0.29297,0.117188 q 3.86719,0.292968 7.20703,-1.025391 l 0.11719,1.201172 -18.95508,6.767578 h -1.02539 q -0.46875,-0.46875 -0.84961,-1.054687 -0.35156,-0.615235 -0.82031,-1.40625 l -5.50781,-8.261719 -0.32227,-0.439453 -5.68359,9.84375 -0.79102,1.318359 h -1.20117 q -8.26172,-4.482422 -11.63086,0 h -1.08398 q 0.0586,-1.494141 0.67382,-2.8125 4.24805,-10.078125 15.87891,-4.980469 l 3.01758,-4.980468 q -0.38086,-0.46875 -1.64063,-2.314454 -1.25976,-1.875 -3.51562,-5.302734 -4.51172,-6.591797 -6.00586,-7.851562 -3.13477,-0.673829 -6.67969,0.996093 l -0.70312,-0.46875 12.24609,-8.99414 q 8.20313,-0.117188 14.15039,11.279297 z" />
      <path
         id="path26"
         style="font-family:Adzkia"
         d="m 324.32617,77.03125 q 0,-1.494141 -1.05469,-2.080078 -1.02539,-0.615235 -1.02539,-2.460938 0,-0.791015 0.58594,-1.376953 0.55664,-0.55664 1.37695,-0.55664 0.0293,0 0.0586,0 0.0293,0 0.0586,0 V 59.921875 q 0,-1.113281 1.11328,-1.113281 1.11328,0 1.11328,1.113281 v 10.664062 q 0.11719,-0.0293 0.38086,-0.0293 0.82032,0 1.37696,0.55664 0.55664,0.556641 0.55664,1.376953 0,1.582032 -1.17188,2.490235 -1.14258,0.908203 -1.14258,2.050781 v 0.351562 l 0.79102,-0.791015 q 0.41016,-0.410156 0.84961,0 0.41016,0.439453 0,0.849609 l -1.64063,1.611328 v 6.503907 h 7.14844 q 1.08399,0 1.08399,1.113281 0,1.083984 -1.08399,1.083984 h -7.14844 v 4.335938 q 0,0.05859 -0.0293,0.08789 0,0.0293 0,0.0293 -0.0586,1.494141 0.64453,2.753906 0.67383,1.347657 1.96289,2.080079 1.28906,0.761718 2.7832,0.761718 1.43555,0 2.75391,-0.761718 1.25976,-0.732422 1.96289,-2.080079 0.67383,-1.230468 0.64453,-2.8125 -0.11719,-1.083984 1.02539,-1.142578 1.08399,-0.0293 1.14258,1.025391 0.11719,2.050781 -0.84961,3.955078 -1.02539,1.933594 -2.8125,2.929688 Q 333.99414,100 331.91406,100 q -2.16797,0 -3.92578,-1.083984 -1.78711,-1.025391 -2.7832,-2.929688 -0.9668,-1.816406 -0.87891,-3.867187 0,0 0,0 0,-0.0293 0,-0.0293 v -4.335938 h -1.49414 q -1.11328,0 -1.11328,-1.083984 0,-1.113281 1.11328,-1.113281 h 1.49414 v -6.708985 l -1.61133,-1.376953 q -0.43945,-0.410156 -0.0586,-0.849609 0.35156,-0.439453 0.84961,-0.08789 l 0.82031,0.732422 z m 0.43945,-5.039063 q -0.0586,-0.0293 -0.17578,-0.146484 -0.14648,-0.08789 -0.38086,-0.08789 -0.38086,0 -0.52734,0.205079 -0.23437,0.234375 -0.23437,0.527343 0,0.761719 0.61523,1.582032 0.64453,0.820312 1.49414,1.640625 0.82031,-0.820313 1.46484,-1.640625 0.64454,-0.820313 0.64454,-1.582032 0,-0.263672 -0.20508,-0.527343 -0.20508,-0.205079 -0.52735,-0.205079 -0.32226,0 -0.43945,0.117188 -0.20508,0.117187 -0.38086,0.556641 -0.11719,0.205078 -0.29297,0.263671 -0.52734,0.263672 -0.79101,-0.263671 -0.14649,-0.263672 -0.26368,-0.439454 z" />
      <path
         id="path28"
         style="font-family:Adzkia"
         d="m 348.90625,97.65625 q -0.0879,-0.05859 -0.20508,-0.175781 -0.14648,-0.205078 -0.14648,-0.234375 -1.40625,-0.292969 -2.63672,-0.732422 -1.23047,-0.46875 -1.81641,-1.435547 -0.46875,-0.673828 -0.26367,-1.464844 0.17578,-0.791015 0.84961,-1.230469 0.29297,-0.146484 0.29297,-0.146484 -0.14649,-0.117187 -0.17578,-0.351562 -0.79102,-2.314454 -0.61524,-4.892579 0.17578,-2.578125 1.23047,-5.097656 1.46485,-3.574219 4.33594,-5.419922 2.90039,-1.904297 6.24023,-1.289062 3.33985,0.703125 5.59571,3.515625 2.25586,2.783203 2.84179,6.679687 0.14649,1.113282 -0.9375,1.259766 -0.0879,0 -0.14648,0 -0.0293,0 -0.0879,0 l -16.8457,0.05859 q 0,0.117187 -0.0293,0.234375 0,0.08789 0,0.175781 -0.14649,2.050781 0.43945,3.925781 0.0293,0 0.0586,-0.0293 0.0293,-0.0293 0.0879,-0.05859 0,0 0,0 0.0293,0 0.0293,-0.0293 0.70313,-0.38086 1.46485,-0.234375 0.79101,0.205078 1.20117,0.849609 0,0 0,0.0293 0.0293,0 0.0293,0 0.82031,1.347656 0.38085,2.636719 -0.43945,1.289062 0.14649,1.728515 0.0879,0.08789 0.17578,0.146485 0.11719,0.05859 0.23438,0.146484 v -0.849609 q 0,-0.585938 0.58593,-0.585938 0.61524,0 0.61524,0.585938 v 1.523437 q 1.52343,0.732422 3.19336,0.84961 2.66601,0.146484 5.00976,-1.230469 0.9668,-0.527344 1.49414,0.410156 0.52735,0.966797 -0.41015,1.523438 -2.92969,1.640624 -6.21094,1.464843 -2.16797,-0.117187 -3.95508,-0.996093 l -2.8125,0.234375 q -0.61523,0.05859 -0.64453,-0.556641 -0.0586,-0.585938 0.52734,-0.644531 l 1.14258,-0.08789 q -0.20508,-0.08789 -0.26367,-0.205078 z m 13.0957,-13.212891 q -0.64453,-2.548828 -2.10937,-4.365234 -1.84571,-2.226563 -4.30664,-2.724609 -2.40235,-0.46875 -4.62891,0.966796 -2.31445,1.494141 -3.51562,4.394532 -0.38086,0.996093 -0.61524,1.787109 z m -14.67773,7.851563 q -0.0879,0.205078 -0.0293,0.673828 v 0 q 0.0293,0.175781 -0.0586,0.380859 -0.32227,0.498047 -0.82031,0.205078 -0.49805,-0.263671 -0.64454,-0.263671 -0.20507,-0.0293 -0.43945,0.117187 -0.29297,0.205078 -0.32226,0.46875 -0.0586,0.292969 0.0879,0.585938 0.38086,0.615234 1.34765,0.966796 0.9961,0.351563 2.16797,0.615235 0.64453,-2.900391 0.0586,-3.867188 v 0 q -0.20507,-0.263672 -0.46875,-0.322265 -0.35156,-0.08789 -0.55664,0.08789 h -0.0293 q -0.20508,0.175782 -0.29297,0.351563 z" />
      <path
         id="path30"
         style="font-family:Adzkia"
         d="m 371.34766,81.220703 q 0,0.05859 0,0.117188 0.0293,0.0293 0.0293,0.08789 v 17.460938 q 0,1.083984 -1.11328,1.083984 -1.11328,0 -1.11328,-1.083984 V 81.425781 q -0.14648,-1.582031 0.61523,-3.134765 0.70313,-1.494141 2.22657,-2.431641 1.43554,-0.878906 3.16406,-0.878906 1.69922,0 3.16406,0.878906 1.05469,0.732422 1.69922,1.611328 0.70313,-0.966797 1.72852,-1.611328 1.43554,-0.878906 3.16406,-0.878906 1.69922,0 3.16406,0.878906 1.43555,0.9375 2.22656,2.431641 0.73243,1.582031 0.58594,3.193359 v 0.732422 q 0,0 0.0293,0 0.0293,0 0.0586,0 0.79102,0 1.37696,0.585937 0.55664,0.556641 0.55664,1.376953 0,1.845704 -1.02539,2.402344 -0.9961,0.527344 -0.9961,2.167969 v 0.292969 l 0.70313,-0.673828 q 0.41015,-0.410157 0.82031,0 0.41016,0.439453 0,0.849609 l -1.52344,1.494141 v 8.173828 q 0,1.083984 -1.11328,1.083984 -1.08398,0 -1.08398,-1.083984 v -8.173828 l -1.72852,-1.494141 q -0.46875,-0.351563 -0.0879,-0.849609 0.41016,-0.410157 0.84961,-0.05859 l 0.9668,0.820312 V 88.75 q 0,-1.142578 -1.20118,-2.050781 -1.20117,-0.9375 -1.20117,-2.519532 0,-0.791015 0.58594,-1.376953 0.58594,-0.585937 1.37695,-0.585937 0.14649,0 0.43946,0.05859 v -0.84961 q 0,-0.175781 0.0293,-0.234375 0.0293,-0.966797 -0.38086,-1.933594 -0.52734,-0.9375 -1.40625,-1.523437 -0.9082,-0.556641 -2.02148,-0.556641 -1.14258,0 -2.02149,0.556641 -0.9082,0.585937 -1.40625,1.523437 -0.26367,0.585938 -0.35156,1.201172 0.0293,0.498047 0,0.9375 0,0.0293 0,0.05859 0,0.0293 0,0.0293 v 17.402344 q 0,1.083984 -1.11328,1.083984 -1.08398,0 -1.08398,-1.083984 V 81.425781 q 0,0 0,0 0,-0.0293 0,-0.05859 -0.0586,-0.410156 0,-0.908203 -0.11719,-0.644531 -0.38086,-1.201172 -0.46875,-0.9375 -1.40625,-1.523437 -0.87891,-0.556641 -1.99219,-0.556641 -1.14258,0 -2.02148,0.556641 -0.9668,0.615234 -1.40625,1.523437 -0.46875,0.996094 -0.38086,1.962891 z m 19.18945,2.314453 q -0.23438,0.175781 -0.38086,0.556641 -0.0879,0.175781 -0.29297,0.292969 -0.55664,0.292968 -0.79101,-0.292969 -0.14649,-0.292969 -0.38086,-0.556641 -0.23438,-0.117187 -0.43946,-0.117187 -0.29297,0 -0.52734,0.234375 -0.23438,0.205078 -0.23438,0.527343 0,0.761719 0.64454,1.582032 0.64453,0.791015 1.46484,1.640625 0.82031,-0.84961 1.46484,-1.640625 0.64453,-0.820313 0.64453,-1.582032 0,-0.322265 -0.20507,-0.527343 -0.23438,-0.234375 -0.52735,-0.234375 -0.26367,0 -0.43945,0.117187 z" />
      <path
         id="path32"
         style="font-family:Adzkia"
         d="m 397.80273,76.298828 q 0,0 0,0 0,0 0,-0.0293 0.0293,-1.054687 1.11329,-1.054687 0,0 0,0 0,0 0.0293,0 h 2.92969 v 0 q 3.36914,-0.205078 6.41602,1.347656 3.01757,1.582031 4.83398,4.541016 1.78711,2.929687 1.78711,6.386718 0,3.486328 -1.78711,6.386719 -1.81641,2.988281 -4.83398,4.541016 Q 405.27344,100 401.875,99.794922 v 0 H 400 v 13.388668 q 0,1.08399 -1.08398,1.08399 -1.11329,0 -1.11329,-1.08399 V 98.681641 91.679687 l -1.75781,-1.49414 q -0.43945,-0.351563 -0.0586,-0.84961 0.35156,-0.410156 0.84961,-0.05859 l 0.96679,0.820312 v -0.351562 q 0,-1.757813 -1.05468,-2.25586 -1.02539,-0.527343 -1.02539,-2.43164 0,-0.820313 0.55664,-1.376953 0.52734,-0.585938 1.37695,-0.585938 0.0293,0 0.0586,0 0.0586,0 0.0879,0 V 76.298828 Z M 400,97.568359 h 1.875 q 0,0 0.0293,0.0293 0.0586,0 0.0879,0 2.8125,0.205078 5.27343,-1.142578 2.51954,-1.259766 3.98438,-3.720703 1.46484,-2.373047 1.46484,-5.244141 0,-2.783203 -1.46484,-5.24414 -1.43555,-2.34375 -3.98438,-3.720703 -2.49023,-1.259766 -5.27343,-1.113282 -0.0293,0 -0.0879,0 -0.0293,0 -0.0293,0 H 400 V 83.125 q 0.11719,-0.0293 0.38086,-0.0293 0.82031,0 1.37695,0.585938 0.58594,0.585937 0.58594,1.376953 0,1.875 -1.17188,2.578125 Q 400,88.339844 400,89.746094 v 0.263672 l 0.67383,-0.673829 q 0.46875,-0.410156 0.84961,0 0.41015,0.439454 0,0.84961 L 400,91.679687 Z m -0.0586,-13.154297 q -0.26368,0.263672 -0.38086,0.556641 -0.0879,0.175781 -0.26368,0.263672 -0.52734,0.322266 -0.79101,-0.263672 -0.23438,-0.410156 -0.41016,-0.556641 -0.11718,-0.117187 -0.43945,-0.117187 -0.29297,0 -0.52734,0.234375 -0.20508,0.205078 -0.20508,0.527344 0,0.732422 0.61523,1.552734 0.64453,0.820313 1.49414,1.669922 0.82032,-0.849609 1.46485,-1.669922 0.64453,-0.820312 0.64453,-1.552734 0,-0.322266 -0.23438,-0.527344 -0.20508,-0.234375 -0.52734,-0.234375 -0.29297,0 -0.43945,0.117187 z" />
      <path
         id="path34"
         style="font-family:Adzkia"
         d="m 435.71289,87.666016 q 0.11719,-0.05859 0.38086,-0.05859 1.72852,-2.050781 1.66992,-3.105469 0,0 0,0 0,-0.0293 0,-0.05859 -0.0586,-0.322265 -0.26367,-0.498047 -0.23438,-0.175781 -0.52734,-0.175781 0,0 -0.0293,0 0,0 0,0 -0.32227,0.05859 -0.41016,0.146485 -0.20508,0.205078 -0.32226,0.585937 -0.11719,0.234375 -0.26367,0.292969 -0.52735,0.322265 -0.82032,-0.205078 -0.23437,-0.351563 -0.43945,-0.527344 -0.14648,-0.08789 -0.41016,-0.08789 0,0 -0.0293,0 0,0 0,0 -0.35157,0.05859 -0.49805,0.263672 -0.20508,0.205078 -0.20508,0.527344 0,0 0,0.0293 0,0 0,0 0.0879,1.083984 2.16797,2.871094 z m -2.49023,2.167968 q -0.49805,-0.351562 -0.0879,-0.820312 0.41015,-0.46875 0.8496,-0.05859 l 0.90821,0.761719 q 0,-0.263672 0.0293,-0.527344 0.0586,-0.292969 0.0879,-0.556641 -1.0254,-0.878906 -1.81641,-1.787109 -0.76172,-0.908203 -0.82031,-1.962891 v 0 q -0.0879,-0.820312 0.46875,-1.435546 0.46875,-0.556641 1.31836,-0.673829 v 0 q 0,0 0.0293,0 0.0293,0 0.0586,0 -0.76172,-2.285156 -2.28516,-3.808593 -1.61133,-1.611328 -3.51562,-1.611328 -2.60743,0 -4.54102,2.8125 -2.05078,3.076171 -2.05078,7.382812 0,4.335938 2.05078,7.382813 1.93359,2.8125 4.54102,2.8125 2.37304,0 4.27734,-2.460938 1.25976,-1.699219 1.9043,-4.21875 z m 3.86718,-0.117187 0.76172,-0.732422 q 0.41016,-0.410156 0.84961,0 0.35156,0.46875 -0.0293,0.849609 l -1.96289,1.933594 q -0.70312,2.753906 -2.22656,4.833984 -2.54883,3.339844 -6.03515,3.339844 -3.8086,0 -6.35743,-3.779297 -2.43164,-3.603515 -2.43164,-8.613281 0,-4.980469 2.43164,-8.613281 2.54883,-3.779297 6.35743,-3.779297 2.8125,0 5.06835,2.255859 1.99219,1.962891 2.98829,5.214844 0.0879,0 0.17578,0 0.0879,-0.0293 0.17578,-0.05859 v 0 q 0.82031,-0.0293 1.43555,0.46875 0.55664,0.498047 0.67382,1.347657 v 0 q 0.0879,1.552734 -1.875,3.896484 0.11719,0.234375 0.0879,0.498047 -0.0586,0.644531 -0.0879,0.9375 z" />
      <path
         id="path36"
         style="font-family:Adzkia"
         d="m 444.32617,76.181641 q 0,-1.113282 1.08399,-1.113282 1.11328,0 1.11328,1.113282 v 1.347656 q 0.67383,-0.732422 1.49414,-1.201172 1.93359,-1.230469 4.21875,-1.230469 2.34375,0.05859 4.18945,1.230469 1.96289,1.230469 2.92969,3.251953 0.99609,2.109375 0.76172,4.306641 -0.11719,1.142578 -1.20117,0.966797 -1.08399,-0.08789 -0.9668,-1.201172 0.17578,-1.611328 -0.55664,-3.105469 -0.76172,-1.494141 -2.10938,-2.373047 -1.40625,-0.878906 -3.04687,-0.878906 -1.64063,0 -3.04688,0.878906 -1.40625,0.878906 -2.13867,2.34375 -0.46875,0.996094 -0.52734,1.875 v 0.175781 q 0.0586,0 0.11718,0 0.0879,0 0.17579,0 0.79101,0 1.40625,0.556641 0.55664,0.556641 0.55664,1.376953 0,1.845703 -1.14258,2.548828 -1.11328,0.703125 -1.11328,2.080078 v 0.205078 l 0.64453,-0.615234 q 0.41015,-0.46875 0.82031,0 0.41016,0.439453 0,0.849609 l -1.46484,1.435547 v 7.88086 q 0,1.083984 -1.11328,1.083984 -1.08399,0 -1.08399,-1.083984 v -7.763672 l -1.8164,-1.552735 q -0.43946,-0.351562 -0.0586,-0.849609 0.38086,-0.380859 0.84961,-0.05859 l 1.02539,0.878907 v -0.410157 q 0,-1.552734 -1.08398,-2.138672 -1.08399,-0.615234 -1.08399,-2.490234 0,-0.791016 0.58594,-1.376953 0.55664,-0.556641 1.37695,-0.556641 0.0293,0 0.0586,0 0.0586,0 0.11718,0 0,-0.175781 0.0293,-0.263672 z m 2.19727,7.617187 q -0.0586,0.966797 -0.9961,1.054688 -1.11328,0.117187 -1.20117,-0.966797 0,-0.0293 0,-0.05859 0,-0.0293 0,-0.05859 -0.0586,0 -0.11719,0 -0.0293,0 -0.0879,0 -0.38086,0 -0.52734,0.205078 -0.23438,0.234375 -0.23438,0.527344 0,0.761719 0.61524,1.582031 0.64453,0.820313 1.49414,1.640625 0.82031,-0.820312 1.46484,-1.640625 0.64453,-0.820312 0.64453,-1.582031 0,-0.263672 -0.20507,-0.527344 -0.20508,-0.205078 -0.55664,-0.205078 -0.20508,0 -0.29297,0.0293 z" />
      <path
         id="path38"
         style="font-family:Adzkia"
         d="m 467.41211,82.773437 q -0.0586,1.113282 -1.17188,1.113282 -1.11328,-0.0293 -1.11328,-1.171875 0.0879,-3.164063 2.34375,-5.390625 2.25586,-2.226563 5.44922,-2.226563 3.16406,0 5.44922,2.226563 2.25586,2.226562 2.34375,5.273437 0,0.05859 0,0.08789 0,0.0293 0,0.05859 v 3.574218 1.728516 q 0.0293,0 0.0586,0 0.0586,0 0.11719,0 0.84961,0 1.43555,0.585937 0.58594,0.585938 0.58594,1.435547 0,1.054688 -0.70313,2.050782 -0.70312,0.996093 -1.64062,1.933593 0.14648,0.292969 0.14648,0.585938 v 0.322265 l 0.52734,-0.55664 q 0.41016,-0.410156 0.87891,0 0.43945,0.46875 0,0.849609 l -1.40625,1.494141 v 1.992187 q 0,1.142578 -1.14258,1.142578 h -5.09765 q -0.0293,0 -0.0586,0 0,0 0,0 -2.43164,0.08789 -4.54101,-0.820312 -2.22657,-0.878906 -3.54493,-2.636719 -1.37695,-1.816406 -1.37695,-3.896484 0,-2.050781 1.37695,-3.896485 1.31836,-1.728515 3.54493,-2.636718 2.10937,-0.878907 4.54101,-0.820313 0,0 0,0 0.0293,0 0.0586,0 h 3.95507 v -2.43164 q 0,0 0,-0.0293 0,-0.0293 0,-0.0293 -0.0586,-2.138672 -1.64062,-3.75 -1.64063,-1.582031 -3.86719,-1.582031 -2.25586,0 -3.83789,1.582031 -1.64062,1.582031 -1.66992,3.83789 z m 11.10351,11.425782 q -0.96679,-0.966797 -1.72851,-1.992188 -0.73242,-1.02539 -0.73242,-2.138672 0,-0.849609 0.58593,-1.435547 0.58594,-0.585937 1.43555,-0.585937 0.26367,0 0.35156,0.0293 v -0.615235 h -3.95507 q -0.0586,0 -0.0879,0 -0.0293,-0.0293 -0.0586,-0.0293 -1.9043,-0.0293 -3.57422,0.644531 -1.69922,0.732422 -2.63672,1.933594 -0.8789,1.201171 -0.8789,2.519531 0,1.347656 0.8789,2.519531 0.9961,1.259766 2.63672,1.904297 1.66992,0.732422 3.57422,0.644531 0.0293,0 0.0586,0 0.0293,0 0.0879,0 h 3.95507 v -0.732422 l -1.75781,-1.40625 q -0.49805,-0.410156 -0.0879,-0.878906 0.38086,-0.498047 0.84961,-0.08789 l 0.99609,0.791016 v -0.644531 q 0,-0.263672 0.0879,-0.439453 z m 1.9336,-4.775391 q -0.0586,0.0293 -0.11719,0.08789 -0.23437,0.292968 -0.29297,0.46875 -0.11719,0.234375 -0.26367,0.292968 -0.55664,0.263672 -0.84961,-0.292968 -0.26367,-0.439453 -0.41016,-0.585938 -0.17578,-0.117187 -0.43945,-0.117187 -0.32226,0 -0.55664,0.234375 -0.23437,0.292968 -0.23437,0.55664 0,0.791016 0.64453,1.640625 0.67383,0.820313 1.55273,1.699219 0.84961,-0.878906 1.52344,-1.699219 0.67383,-0.849609 0.67383,-1.640625 0,-0.322265 -0.23438,-0.55664 -0.23437,-0.234375 -0.55664,-0.234375 -0.26367,0 -0.43945,0.117187 z" />
      <path
         id="path40"
         style="font-family:Adzkia"
         d="m 487.24609,76.035156 q 0,-1.083984 1.08399,-1.083984 1.11328,0 1.11328,1.083984 v 1.523438 q 0.73242,-0.761719 1.78711,-1.376953 1.93359,-1.083985 4.10156,-1.083985 2.13867,0 4.13086,1.083985 1.66992,0.966796 2.7832,2.636718 0.9961,1.552735 1.17188,3.339844 0,0 0.0293,0 0.0293,0 0.0879,0 0.79101,0 1.37695,0.585938 0.58594,0.585937 0.58594,1.376953 0,0.996093 -0.64453,1.933593 -0.64454,0.908204 -1.49415,1.78711 0.0879,0.175781 0.0879,0.380859 v 0.761719 l 0.64453,-0.644531 q 0.41015,-0.410157 0.84961,0.0293 0.41015,0.439453 -0.0293,0.849609 l -1.46484,1.435547 v 8.291015 q 0,1.083988 -1.11329,1.083988 -1.08398,0 -1.08398,-1.083988 v -8.203125 l -1.78711,-1.523437 q -0.49805,-0.410156 -0.0586,-0.849609 0.38086,-0.46875 0.82031,-0.05859 l 1.02539,0.849609 v -0.9375 q 0,0 0,-0.0293 0,-0.05859 0,-0.08789 -0.9668,-0.966797 -1.66992,-1.933594 -0.70313,-0.996094 -0.70313,-2.050781 0,-0.820313 0.55664,-1.376953 0.58594,-0.585938 1.37696,-0.585938 0.0879,0 0.17578,0.0293 0.11719,0 0.20508,0 -0.14649,-1.083984 -0.79102,-2.197266 -0.79102,-1.171875 -2.02148,-1.904297 -1.40625,-0.791015 -3.04688,-0.791015 -1.61133,0 -3.01758,0.791015 -1.40625,0.791016 -2.16797,2.138672 -0.67382,1.201172 -0.70312,2.402344 v 16.230469 q 0,1.113281 -1.11328,1.113281 -1.08399,0 -1.08399,-1.113281 z m 15.84961,7.441406 q -0.17578,0.175782 -0.38086,0.585938 -0.14648,0.205078 -0.26367,0.263672 -0.55664,0.292969 -0.82031,-0.263672 -0.20508,-0.410156 -0.38086,-0.585938 -0.17578,-0.117187 -0.43945,-0.117187 -0.29297,0 -0.52735,0.234375 -0.20508,0.205078 -0.20508,0.527344 0,1.083984 1.9336,3.046875 0.11719,-0.0293 0.32226,-0.0293 0,0 0,0 0.0293,0 0.0586,0 1.90429,-1.933594 1.90429,-3.017578 0,-0.322266 -0.23437,-0.527344 -0.23438,-0.234375 -0.52734,-0.234375 -0.20508,0 -0.43946,0.117187 z" />
      <path
         id="path42"
         style="font-family:Adzkia"
         d="m 513.78906,97.65625 q -0.0879,-0.05859 -0.20508,-0.175781 -0.14648,-0.205078 -0.14648,-0.234375 -1.40625,-0.292969 -2.63672,-0.732422 -1.23047,-0.46875 -1.81641,-1.435547 -0.46875,-0.673828 -0.26367,-1.464844 0.17578,-0.791015 0.84961,-1.230469 0.29297,-0.146484 0.29297,-0.146484 -0.14648,-0.117187 -0.17578,-0.351562 -0.79102,-2.314454 -0.61523,-4.892579 0.17578,-2.578125 1.23046,-5.097656 1.46485,-3.574219 4.33594,-5.419922 2.90039,-1.904297 6.24024,-1.289062 3.33984,0.703125 5.5957,3.515625 2.25586,2.783203 2.8418,6.679687 0.14648,1.113282 -0.9375,1.259766 -0.0879,0 -0.14649,0 -0.0293,0 -0.0879,0 l -16.8457,0.05859 q 0,0.117187 -0.0293,0.234375 0,0.08789 0,0.175781 -0.14648,2.050781 0.43945,3.925781 0.0293,0 0.0586,-0.0293 0.0293,-0.0293 0.0879,-0.05859 0,0 0,0 0.0293,0 0.0293,-0.0293 0.70312,-0.38086 1.46484,-0.234375 0.79101,0.205078 1.20117,0.849609 0,0 0,0.0293 0.0293,0 0.0293,0 0.82031,1.347656 0.38086,2.636719 -0.43946,1.289062 0.14648,1.728515 0.0879,0.08789 0.17578,0.146485 0.11719,0.05859 0.23438,0.146484 v -0.849609 q 0,-0.585938 0.58594,-0.585938 0.61523,0 0.61523,0.585938 v 1.523437 q 1.52344,0.732422 3.19336,0.84961 2.66601,0.146484 5.00976,-1.230469 0.9668,-0.527344 1.49415,0.410156 0.52734,0.966797 -0.41016,1.523438 -2.92969,1.640624 -6.21094,1.464843 -2.16797,-0.117187 -3.95508,-0.996093 l -2.8125,0.234375 q -0.61523,0.05859 -0.64453,-0.556641 -0.0586,-0.585938 0.52735,-0.644531 l 1.14257,-0.08789 q -0.20507,-0.08789 -0.26367,-0.205078 z m 13.09571,-13.212891 q -0.64454,-2.548828 -2.10938,-4.365234 -1.8457,-2.226563 -4.30664,-2.724609 -2.40234,-0.46875 -4.62891,0.966796 -2.31445,1.494141 -3.51562,4.394532 -0.38086,0.996093 -0.61524,1.787109 z m -14.67774,7.851563 q -0.0879,0.205078 -0.0293,0.673828 v 0 q 0.0293,0.175781 -0.0586,0.380859 -0.32227,0.498047 -0.82031,0.205078 -0.49805,-0.263671 -0.64453,-0.263671 -0.20508,-0.0293 -0.43946,0.117187 -0.29297,0.205078 -0.32226,0.46875 -0.0586,0.292969 0.0879,0.585938 0.38086,0.615234 1.34765,0.966796 0.9961,0.351563 2.16797,0.615235 0.64453,-2.900391 0.0586,-3.867188 v 0 q -0.20508,-0.263672 -0.46875,-0.322265 -0.35157,-0.08789 -0.55664,0.08789 H 512.5 q -0.20508,0.175782 -0.29297,0.351563 z" />
      <path
         id="path44"
         style="font-family:Adzkia"
         d="m 536.66992,82.773437 q -0.0586,1.113282 -1.17187,1.113282 -1.11328,-0.0293 -1.11328,-1.171875 0.0879,-3.164063 2.34375,-5.390625 2.25585,-2.226563 5.44921,-2.226563 3.16407,0 5.44922,2.226563 2.25586,2.226562 2.34375,5.273437 0,0.05859 0,0.08789 0,0.0293 0,0.05859 v 3.574218 1.728516 q 0.0293,0 0.0586,0 0.0586,0 0.11718,0 0.84961,0 1.43555,0.585937 0.58594,0.585938 0.58594,1.435547 0,1.054688 -0.70313,2.050782 -0.70312,0.996093 -1.64062,1.933593 0.14648,0.292969 0.14648,0.585938 v 0.322265 l 0.52735,-0.55664 q 0.41015,-0.410156 0.8789,0 0.43946,0.46875 0,0.849609 l -1.40625,1.494141 v 1.992187 q 0,1.142578 -1.14258,1.142578 h -5.09765 q -0.0293,0 -0.0586,0 0,0 0,0 -2.43164,0.08789 -4.54101,-0.820312 -2.22656,-0.878906 -3.54492,-2.636719 -1.37696,-1.816406 -1.37696,-3.896484 0,-2.050781 1.37696,-3.896485 1.31836,-1.728515 3.54492,-2.636718 2.10937,-0.878907 4.54101,-0.820313 0,0 0,0 0.0293,0 0.0586,0 h 3.95508 v -2.43164 q 0,0 0,-0.0293 0,-0.0293 0,-0.0293 -0.0586,-2.138672 -1.64063,-3.75 -1.64062,-1.582031 -3.86719,-1.582031 -2.25586,0 -3.83789,1.582031 -1.64062,1.582031 -1.66992,3.83789 z m 11.10352,11.425782 q -0.9668,-0.966797 -1.72852,-1.992188 -0.73242,-1.02539 -0.73242,-2.138672 0,-0.849609 0.58594,-1.435547 0.58593,-0.585937 1.43554,-0.585937 0.26368,0 0.35157,0.0293 v -0.615235 h -3.95508 q -0.0586,0 -0.0879,0 -0.0293,-0.0293 -0.0586,-0.0293 -1.90429,-0.0293 -3.57421,0.644531 -1.69922,0.732422 -2.63672,1.933594 -0.87891,1.201171 -0.87891,2.519531 0,1.347656 0.87891,2.519531 0.99609,1.259766 2.63672,1.904297 1.66992,0.732422 3.57421,0.644531 0.0293,0 0.0586,0 0.0293,0 0.0879,0 h 3.95508 v -0.732422 l -1.75782,-1.40625 q -0.49804,-0.410156 -0.0879,-0.878906 0.38086,-0.498047 0.84961,-0.08789 l 0.9961,0.791016 v -0.644531 q 0,-0.263672 0.0879,-0.439453 z m 1.93359,-4.775391 q -0.0586,0.0293 -0.11719,0.08789 -0.23437,0.292968 -0.29297,0.46875 -0.11718,0.234375 -0.26367,0.292968 -0.55664,0.263672 -0.84961,-0.292968 -0.26367,-0.439453 -0.41015,-0.585938 -0.17578,-0.117187 -0.43946,-0.117187 -0.32226,0 -0.55664,0.234375 -0.23437,0.292968 -0.23437,0.55664 0,0.791016 0.64453,1.640625 0.67383,0.820313 1.55273,1.699219 0.84961,-0.878906 1.52344,-1.699219 0.67383,-0.849609 0.67383,-1.640625 0,-0.322265 -0.23438,-0.55664 -0.23437,-0.234375 -0.55664,-0.234375 -0.26367,0 -0.43945,0.117187 z" />
    </g>
  </g>
</svg>
