<?xml version="1.0" encoding="UTF-8" standalone="no"?>
<svg
   xmlns:dc="http://purl.org/dc/elements/1.1/"
   xmlns:cc="http://creativecommons.org/ns#"
   xmlns:rdf="http://www.w3.org/1999/02/22-rdf-syntax-ns#"
   xmlns:svg="http://www.w3.org/2000/svg"
   xmlns="http://www.w3.org/2000/svg"
   id="svg16"
   width="800px"
   version="1.1"
   height="200px">
  <metadata
     id="metadata20">
    <rdf:RDF>
      <cc:Work
         rdf:about="">
        <dc:format>image/svg+xml</dc:format>
        <dc:type
           rdf:resource="http://purl.org/dc/dcmitype/StillImage" />
      </cc:Work>
    </rdf:RDF>
  </metadata>
  <defs
     id="defs4">
    <style
       id="style2"
       type="text/css"><![CDATA[    
     @font-face {font-family:akaArcade;
     src: url('/Users/francesco/Repos/write-logos/src/fonts/akaArcade.ttf');}
     @font-face {font-family:Bubble Boom;
     src: url('/Users/francesco/Repos/write-logos/src/fonts/Bubble_Boom.ttf');}
     ]]></style>
  </defs>
  <g
     id="g14"
     style="font-size:60px">
    <g
       style="text-anchor:middle"
       id="text12"
       aria-label="eXtemporanea">
      <path
         id="path22"
         style="font-family:akaArcade"
         d="m 289.13875,95.98 q 0.96,1.2 2.28,1.8 1.32,0.6 2.76,0.6 1.68,0 3.18,-0.84 1.56,-0.84 2.46,-2.4 l 0.66,0.78 q -0.72,2.22 -2.7,3.42 -1.92,1.14 -4.2,1.14 -1.62,0 -3.06,-0.66 -1.44,-0.66 -2.52,-1.86 -1.08,-1.26 -1.74,-3 -0.6,-1.8 -0.6,-4.08 0,-2.04 0.6,-3.72 0.66,-1.74 1.68,-2.94 1.08,-1.26 2.52,-1.92 1.44,-0.72 3.06,-0.72 1.2,0 2.46,0.48 1.26,0.48 2.28,1.26 1.02,0.78 1.68,1.68 0.66,0.9 0.66,1.68 -0.18,1.5 -1.38,2.22 z m 8.52,-9.96 q -0.9,-0.9 -2.04,-1.44 -1.08,-0.6 -2.4,-0.6 -1.14,0 -2.22,0.42 -1.02,0.42 -1.86,1.26 -0.78,0.78 -1.26,2.04 -0.48,1.2 -0.48,2.76 0,0.72 0.06,1.38 0.06,0.6 0.24,1.14 z m -9.66,7.98 q 0.3,0.78 0.54,1.2 l 10.32,-7.26 q -0.18,-0.54 -0.6,-1.2 z" />
      <path
         id="path24"
         style="font-family:'Bubble Boom'"
         d="m 323.81406,79.9 q 0,-0.3 0.12,-0.9 -1.38,1.62 -2.58,3.42 -1.14,1.74 -1.98,3.72 l 2.34,-2.16 q 1.74,2.88 4.2,4.26 2.46,1.32 5.94,0.84 0.06,0.36 0.12,0.78 0.06,0.36 0,0.78 -0.24,2.34 -0.9,4.56 -0.6,2.22 -1.98,4.2 -1.44,2.16 -3.66,2.58 -2.16,0.42 -4.26,-1.14 -1.2,-0.9 -2.22,-1.98 -1.02,-1.14 -1.98,-2.34 -0.72,-0.9 -1.26,-1.92 -0.54,-1.02 -1.2,-2.04 l -0.42,-0.84 q -0.3,0.54 -0.6,1.02 -0.24,0.42 -0.54,0.9 -1.02,1.8 -1.8,3.72 -0.78,1.86 -0.9,3.96 0,0.12 -0.3,0.3 -0.24,0.18 -0.48,0.24 -1.44,0.3 -3,-0.54 -1.5,-0.78 -2.16,-2.16 -0.66,-1.2 -0.66,-2.46 0,-1.26 0.3,-2.52 0.18,-0.72 0.36,-1.44 0.24,-0.72 0.48,-1.44 -0.96,0.24 -1.38,-0.06 -0.42,-0.3 -0.48,-1.32 -0.18,-3.3 2.04,-6 0.3,-0.3 0.66,-0.48 0.36,-0.24 0.78,0 0.3,0.18 0.48,0.54 0.18,0.36 0.3,0.66 0.12,0.24 0.06,0.54 0,0.3 0.06,0.78 1.56,-3 3,-5.76 1.5,-2.82 3,-5.64 l -0.18,-0.18 q -1.02,1.2 -2.04,2.4 -0.96,1.14 -1.98,2.34 -0.12,-0.3 -0.18,-0.48 -0.06,-0.18 -0.18,-0.36 -0.66,-1.5 -1.26,-2.94 -0.6,-1.5 -1.26,-3 -0.48,-1.08 -1.2,-1.98 -0.72,-0.9 -1.8,-1.5 -0.66,-0.3 -0.72,-0.66 -0.06,-0.36 0.24,-1.02 1.86,-3.78 5.46,-5.46 1.68,-0.78 2.94,-0.48 1.32,0.24 2.52,1.62 1.02,1.14 1.56,2.46 0.6,1.32 1.02,2.7 0.18,0.6 0.36,1.2 0.18,0.6 0.42,1.32 0.18,-0.3 0.3,-0.48 0.12,-0.24 0.24,-0.42 1.26,-1.74 2.46,-3.42 1.26,-1.68 2.52,-3.42 1.44,-2.04 3.9,-1.92 0.72,0 1.38,0.54 1.08,0.9 1.56,2.16 0.48,1.2 0.6,2.52 0.18,1.92 0.06,3.78 -0.06,1.86 -0.66,3.72 -0.12,0.48 -0.36,0.78 -0.18,0.24 -0.66,0.3 -0.24,0 -0.48,0.18 -0.24,0.12 -0.54,0.24 0.9,0.66 0.96,1.44 0.12,0.72 -0.3,1.5 -0.78,1.32 -1.92,2.7 -0.3,0.42 -0.84,0.6 -0.48,0.18 -1.02,-0.12 -0.54,-0.3 -0.6,-0.78 -0.06,-0.48 0,-0.96 z" />
      <path
         id="path26"
         style="font-family:akaArcade"
         d="m 345.47125,88.6 q 0,1.68 -0.78,2.4 -0.72,0.72 -1.8,0.72 -1.56,0 -2.52,-1.14 -0.96,-1.2 -0.96,-3.3 0,-1.56 0.54,-3.12 0.6,-1.56 1.08,-2.94 h -3.06 l 0.3,13.86 q 0,1.38 0.6,2.04 0.66,0.6 1.68,0.6 1.02,0 1.8,-0.48 0.78,-0.54 0.78,-1.68 0,-0.36 0.18,-0.48 0.24,-0.18 0.54,-0.18 0.3,0 0.48,0.18 0.24,0.12 0.24,0.48 0,0.9 -0.36,1.68 -0.3,0.78 -0.9,1.44 -0.54,0.6 -1.32,0.96 -0.72,0.36 -1.56,0.36 -1.92,0 -3.24,-1.38 -1.32,-1.44 -1.32,-3.42 l 0.24,-13.98 h -1.92 q -0.48,0 -0.96,-0.24 -0.48,-0.3 -0.48,-0.96 0,-0.6 1.08,-0.6 h 2.28 q 0,-0.84 0,-1.68 0.06,-0.84 0.06,-1.68 -0.48,0.24 -1.02,0.54 -0.48,0.3 -0.96,0.3 -0.48,0 -0.48,-0.48 0,-0.36 0.36,-0.72 0.42,-0.42 0.9,-0.78 0.48,-0.42 0.84,-0.72 0.42,-0.3 0.42,-0.42 l -0.06,-0.84 q 0,-0.66 0.36,-0.9 0.36,-0.3 0.9,-0.3 0.3,0 0.3,0.24 0.06,0.18 0.06,0.84 0,3.3 0.18,6.6 h 5.34 q -0.36,0.84 -0.84,1.92 -0.48,1.02 -0.9,2.1 -0.42,1.08 -0.72,2.16 -0.24,1.08 -0.24,2.04 0,1.38 0.6,2.22 0.66,0.84 1.62,0.84 0.66,0 1.2,-0.48 0.54,-0.48 0.54,-1.5 0,-0.66 -0.36,-0.9 -0.3,-0.3 -0.78,-0.3 -0.54,0 -0.84,0.42 -0.3,0.36 -0.3,0.84 0,0.3 0.06,0.48 0.12,0.18 0.12,0.3 0,0.12 -0.12,0.12 -0.48,0 -0.72,-0.36 -0.18,-0.36 -0.18,-0.78 0,-1.02 0.6,-1.5 0.6,-0.48 1.38,-0.48 0.84,0 1.44,0.54 0.6,0.48 0.6,1.5 z" />
      <path
         id="path28"
         style="font-family:akaArcade"
         d="m 350.89656,95.98 q 0.96,1.2 2.28,1.8 1.32,0.6 2.76,0.6 1.68,0 3.18,-0.84 1.56,-0.84 2.46,-2.4 l 0.66,0.78 q -0.72,2.22 -2.7,3.42 -1.92,1.14 -4.2,1.14 -1.62,0 -3.06,-0.66 -1.44,-0.66 -2.52,-1.86 -1.08,-1.26 -1.74,-3 -0.6,-1.8 -0.6,-4.08 0,-2.04 0.6,-3.72 0.66,-1.74 1.68,-2.94 1.08,-1.26 2.52,-1.92 1.44,-0.72 3.06,-0.72 1.2,0 2.46,0.48 1.26,0.48 2.28,1.26 1.02,0.78 1.68,1.68 0.66,0.9 0.66,1.68 -0.18,1.5 -1.38,2.22 z m 8.52,-9.96 q -0.9,-0.9 -2.04,-1.44 -1.08,-0.6 -2.4,-0.6 -1.14,0 -2.22,0.42 -1.02,0.42 -1.86,1.26 -0.78,0.78 -1.26,2.04 -0.48,1.2 -0.48,2.76 0,0.72 0.06,1.38 0.06,0.6 0.24,1.14 z m -9.66,7.98 q 0.3,0.78 0.54,1.2 l 10.32,-7.26 q -0.18,-0.54 -0.6,-1.2 z" />
      <path
         id="path30"
         style="font-family:akaArcade"
         d="m 386.17187,106.24 q 0,0.3 0.12,0.6 0.18,0.36 0.18,0.48 0,0.18 -0.24,0.18 -0.66,0 -0.95999,-0.54 -0.24,-0.48 -0.24,-1.08 0,-1.38 0.77999,-2.04 0.84001,-0.66 1.98,-0.66 1.08,0 1.92001,0.72 0.89999,0.72 0.89999,2.1 0,2.28 -1.07999,3.3 -1.02,1.02 -2.52001,1.02 -2.04,0 -3.29999,-1.2 -1.20001,-1.14 -1.20001,-3.6 0,-2.16 0.9,-4.26 0.96,-2.04 2.04,-4.08 1.08001,-2.1 1.98,-4.2 0.96001,-2.1 0.96001,-4.32 0,-1.14 -0.42001,-2.04 -0.42,-0.96 -1.13999,-1.56 -0.66001,-0.66 -1.56,-0.96 -0.84001,-0.36 -1.80001,-0.36 -1.31999,0 -2.46,0.66 -1.14,0.66 -1.79999,2.16 l 0.06,8.22 q 0,1.68 0.23999,2.46 0.3,0.72 0.72,1.02 l 0.48001,0.42 q 0.29999,0.12 0.41999,0.36 0.12,0.18 0.12,0.66 0,0.42 -0.47999,0.42 -0.66001,0 -1.32001,-0.06 -0.66,-0.06 -1.38,-0.06 -0.47999,0 -1.02,0.06 -0.54,0.06 -1.08,0.06 -0.66,0 -0.66,-0.54 0,-0.66 0.36,-0.84 0.36001,-0.24 0.78,-0.3 0.48,-0.12 0.84,-0.24 0.36001,-0.18 0.36001,-0.66 l -0.06,-10.14 q -0.48001,-1.86 -1.80001,-2.82 -1.32,-0.96 -3,-0.96 -1.19999,0 -2.39999,0.66 -1.20001,0.66 -1.8,2.16 l 0.06,8.22 q 0,1.68 0.29999,2.46 0.3,0.72 0.66,1.02 l 0.48001,0.42 q 0.18,0.12 0.3,0.36 0.17999,0.18 0.17999,0.66 0,0.3 -0.06,0.36 -0.06,0.06 -0.35999,0.06 -0.66001,0 -1.32,-0.06 -0.66001,-0.06 -1.44,-0.06 -0.48001,0 -1.02001,0.06 -0.53999,0.06 -1.08,0.06 -0.6,0 -0.6,-0.54 0,-0.66 0.36,-0.84 0.36,-0.24 0.78001,-0.3 0.41999,-0.12 0.77999,-0.24 0.36,-0.12 0.36,-0.6 V 84.94 q 0,-0.42 -0.42,-0.72 -0.42,-0.36 -0.95999,-0.54 -0.54001,-0.24 -0.96001,-0.36 -0.41999,-0.18 -0.41999,-0.36 0,-0.36 0.06,-0.84 0.12,-0.48 0.65999,-0.48 0.48,0 1.08,0.12 0.66,0.12 1.20001,0.3 0.59999,0.18 0.95999,0.48 0.42001,0.24 0.42001,0.54 v 0.66 q 1.01999,-1.14 2.21999,-1.62 1.2,-0.54 2.46001,-0.54 1.67999,0 3.06,0.78 1.38,0.72 2.33999,2.04 l 0.54001,-0.6 q 1.01999,-1.08 2.21999,-1.56 1.2,-0.54 2.46001,-0.54 1.32,0 2.51999,0.54 1.2,0.48 2.10001,1.44 0.95999,0.9 1.49999,2.22 0.54,1.26 0.54,2.76 0,2.34 -1.01999,4.5 -0.96001,2.16 -2.16001,4.32 -1.2,2.1 -2.21999,4.2 -0.96001,2.16 -0.96001,4.38 0,2.82 2.82,2.82 0.9,0 1.62,-0.66 0.72,-0.6 0.72,-2.1 0,-0.84 -0.48,-1.26 -0.42,-0.36 -1.08,-0.36 -0.78,0 -1.19999,0.54 -0.42001,0.54 -0.42001,1.2 z m -11.22,-24 q -0.06,0 -0.06,0.12 l 0.06,-0.06 v -0.06 z" />
      <path
         id="path32"
         style="font-family:akaArcade"
         d="m 397.18,84.22 q 0,-0.48 -0.36,-0.66 -0.36,-0.18 -0.84,-0.18 -0.48,0 -0.96,0.12 -0.48,0.06 -0.78,0.06 -0.42,0 -0.42,-0.12 0,-0.36 0.12,-0.84 0.18,-0.54 0.84,-0.54 0.84,0 1.86,-0.3 1.02,-0.3 1.68,-0.3 0.9,0 0.9,0.78 v 2.1 q 0.96,-1.38 2.28,-2.04 1.32,-0.72 2.82,-0.72 1.44,0 2.7,0.72 1.26,0.66 2.16,1.92 0.96,1.26 1.5,3 0.54,1.74 0.54,3.84 0,2.22 -0.54,4.02 -0.54,1.74 -1.5,2.94 -0.96,1.2 -2.22,1.86 -1.2,0.66 -2.64,0.66 -3.06,0 -5.1,-2.76 v 6.54 q 0,1.86 0.36,2.64 0.42,0.84 0.9,1.2 0.48,0.36 0.84,0.6 0.42,0.24 0.42,0.96 0,0.48 -0.6,0.48 -0.84,0 -1.74,-0.06 -0.84,-0.06 -1.74,-0.06 -0.66,0 -1.32,0.06 -0.66,0.06 -1.32,0.06 -0.84,0 -0.84,-0.6 0,-0.72 0.42,-0.96 0.48,-0.24 1.02,-0.36 0.6,-0.06 1.02,-0.24 0.48,-0.12 0.48,-0.6 z m 7.26,13.8 q 0.96,0 1.92,-0.42 0.96,-0.48 1.68,-1.32 0.78,-0.9 1.2,-2.16 0.48,-1.32 0.48,-3 0,-0.66 -0.06,-1.14 -0.06,-0.54 -0.18,-1.02 l -9.12,7.08 q 0.9,1.08 1.98,1.56 1.14,0.42 2.1,0.42 z m -0.36,-13.8 q -1.56,0 -2.94,0.9 -1.32,0.84 -1.92,2.7 v 5.04 l 8.82,-6.84 q -1.62,-1.8 -3.96,-1.8 z m -4.74,9.84 q 0.18,0.66 0.48,1.14 l 9.36,-7.26 q -0.18,-0.3 -0.36,-0.54 -0.12,-0.3 -0.24,-0.6 z" />
      <path
         id="path34"
         style="font-family:akaArcade"
         d="m 421.31313,100.54 q -1.62001,0 -3.06001,-0.66 -1.43999,-0.66 -2.52,-1.92 -1.08,-1.26 -1.73999,-3 -0.60001,-1.8 -0.60001,-4.08 0,-2.04 0.60001,-3.72 0.65999,-1.74 1.68,-2.94 1.07999,-1.26 2.51999,-1.92 1.44,-0.72 3.06,-0.72 1.62001,0 3,0.72 1.44,0.66 2.46,1.92 1.02,1.26 1.62,3 0.60001,1.74 0.60001,3.84 0,2.22 -0.60001,4.02 -0.6,1.74 -1.68,2.94 -1.02,1.2 -2.4,1.86 -1.37999,0.66 -2.93999,0.66 z m 0.12,-2.52 q 1.07999,0 2.09999,-0.42 1.02001,-0.48 1.8,-1.32 0.84001,-0.9 1.32,-2.16 0.54,-1.32 0.54,-3 0,-1.26 -0.24,-2.16 l -10.07999,7.08 q 1.01999,1.08 2.21999,1.56 1.26,0.42 2.34001,0.42 z m -6.30001,-7.5 q 0,0.66 0.06,1.32 0.06,0.6 0.18001,1.2 l 10.01999,-7.02 q -0.83999,-0.9 -2.04,-1.32 -1.14,-0.48 -2.4,-0.48 -1.13999,0 -2.22,0.42 -1.02,0.36 -1.85999,1.14 -0.78001,0.78 -1.26,1.98 -0.48001,1.14 -0.48001,2.76 z m 0.54001,3.54 q 0.17999,0.3 0.29999,0.6 0.12,0.3 0.3,0.54 l 10.38,-7.26 q -0.18,-0.3 -0.36,-0.6 -0.11999,-0.3 -0.29999,-0.54 z" />
      <path
         id="path36"
         style="font-family:akaArcade"
         d="m 434.81125,99.76 q -1.38,0.18 -2.34,0.24 -0.9,0 -1.38,0 -0.24,0 -0.24,-0.18 0,-0.48 0.48,-0.78 0.48,-0.36 1.02,-0.72 0.6,-0.42 1.08,-1.02 0.48,-0.6 0.48,-1.68 l 0.06,-11.1 -0.66,-0.72 q -0.48,0 -0.96,-0.24 -0.48,-0.3 -0.48,-0.96 0,-0.66 1.14,-0.66 1.02,0.12 1.68,0.6 0.72,0.42 0.96,1.74 0.6,-1.38 1.8,-2.04 1.26,-0.66 2.64,-0.66 0.72,0 1.5,0.18 0.84,0.18 1.44,0.66 0.66,0.42 1.08,1.2 0.42,0.78 0.42,1.92 0,1.44 -0.84,2.16 -0.84,0.66 -2.04,0.66 -0.96,0 -1.68,-0.48 -0.72,-0.54 -0.72,-1.68 0,-0.96 0.6,-1.5 0.66,-0.6 1.5,-0.6 0.96,0 1.2,0.96 0,0.12 -0.18,0.12 -0.18,-0.06 -0.36,-0.12 -0.12,-0.06 -0.42,-0.06 -1.26,0 -1.26,1.2 0.06,0.66 0.42,0.9 0.42,0.18 0.96,0.18 1.56,0 1.56,-1.74 0,-1.2 -0.84,-1.8 -0.84,-0.6 -1.8,-0.6 -0.72,0 -1.56,0.3 -0.78,0.24 -1.5,0.72 -0.66,0.42 -1.14,1.08 -0.42,0.66 -0.42,1.38 0,2.28 0.12,4.5 0.18,2.22 0.18,4.5 0,1.02 0.48,1.62 0.48,0.6 1.08,1.08 0.6,0.42 1.08,0.72 0.48,0.3 0.48,0.66 0,0.3 -0.6,0.3 h -0.24 q -0.96,0 -1.86,-0.12 -0.9,-0.12 -1.92,-0.12 z" />
      <path
         id="path38"
         style="font-family:akaArcade"
         d="m 447.15438,85.18 q 0,-1.02 0.59999,-1.74 0.6,-0.72 1.5,-1.14 0.90001,-0.48 1.92,-0.66 1.08,-0.24 1.98001,-0.24 1.8,0 2.87999,0.66 1.14,0.6 1.74001,1.68 0.65999,1.02 0.83999,2.4 0.24,1.38 0.24,2.88 0,1.5 -0.12,2.88 -0.12,1.38 -0.24,2.64 v 0.9 q 0,0.96 0.24,1.86 0.3,0.9 1.5,1.08 0.48001,0.18 0.96,0.42 0.48,0.18 0.48,0.84 v 0.12 q 0,0.24 -0.42,0.24 -0.35999,0 -0.65999,0 h -0.36001 q -1.01999,0 -2.04,-0.18 -0.96,-0.18 -1.62,-0.9 -1.61999,1.38 -3.72,1.38 -1.25999,0 -2.39999,-0.54 -1.08001,-0.54 -1.92001,-1.44 -0.78,-0.96 -1.25999,-2.16 -0.48001,-1.26 -0.48001,-2.64 0,-1.32 0.48001,-2.4 0.53999,-1.14 1.38,-1.92 0.89999,-0.78 1.97999,-1.2 1.14001,-0.42 2.34,-0.42 1.14,0 2.16,0.42 1.02001,0.42 1.8,1.26 0.12,-0.3 0.12,-0.66 0,-0.36 0,-0.72 0,-0.78 -0.24,-1.56 -0.24,-0.84 -0.71999,-1.5 -0.42001,-0.66 -1.08001,-1.08 -0.66,-0.42 -1.55999,-0.42 -1.56,0 -2.52001,0.42 -0.96,0.42 -1.56,0.96 -0.59999,0.48 -1.02,0.9 -0.36,0.42 -0.72,0.42 -0.35999,0 -0.41999,-0.24 -0.06,-0.3 -0.06,-0.6 z m 6.06,4.44 q -1.62,0 -2.94,0.96 -1.32,0.9 -1.32,2.94 0,2.28 1.14,3.42 1.13999,1.08 2.75999,1.08 1.74001,0 2.82,-1.14 1.08,-1.2 1.08,-3.72 0,-1.74 -1.02,-2.64 -1.01999,-0.9 -2.51999,-0.9 z" />
      <path
         id="path40"
         style="font-family:akaArcade"
         d="m 474.57812,106.12 q 0,0.36 0.12,0.72 0.06,0.18 0.18,0.3 0,0.24 -0.24,0.24 -0.66,0 -0.95999,-0.54 -0.30001,-0.48 -0.30001,-1.08 0,-1.38 0.84,-2.1 0.90001,-0.66 1.98,-0.66 1.08,0 1.92001,0.72 0.83999,0.78 0.83999,2.16 0,2.28 -1.08,3.3 -1.02,1.02 -2.52,1.02 -2.04,0 -3.23999,-1.2 -1.20001,-1.14 -1.20001,-3.66 0,-2.16 0.9,-4.2 0.9,-2.04 1.98001,-4.08 1.14,-2.1 2.03999,-4.2 0.90001,-2.1 0.90001,-4.32 0,-2.34 -1.56,-3.6 -1.5,-1.32 -3.36001,-1.32 -1.31999,0 -2.46,0.66 -1.14,0.66 -1.79999,2.16 l 0.06,8.22 q 0,1.68 0.29999,2.4 0.3,0.72 0.66,1.08 0.42001,0.36 0.72001,0.6 0.29999,0.18 0.29999,0.84 0,0.3 -0.12,0.36 -0.06,0.06 -0.35999,0.06 -0.66001,0 -1.32,-0.06 -0.66001,-0.06 -1.38001,-0.06 -0.47999,0 -1.02,0.06 -0.54,0.06 -1.08,0.06 -0.6,0 -0.6,-0.54 0,-0.66 0.36,-0.84 0.36001,-0.24 0.78,-0.3 0.42,-0.12 0.78,-0.24 0.36001,-0.12 0.36001,-0.6 V 84.94 q 0,-0.42 -0.48001,-0.72 -0.42,-0.36 -0.95999,-0.54 -0.48001,-0.24 -0.96001,-0.36 -0.41999,-0.18 -0.41999,-0.36 0,-0.36 0.12,-0.84 0.11999,-0.48 0.59999,-0.48 0.48,0 1.08,0.12 0.66,0.12 1.20001,0.3 0.59999,0.18 0.95999,0.48 0.42001,0.24 0.42001,0.54 v 0.66 q 1.01999,-1.14 2.21999,-1.62 1.2,-0.54 2.46001,-0.54 1.32,0 2.51999,0.54 1.2,0.48 2.1,1.44 0.96,0.9 1.5,2.22 0.54,1.26 0.54,2.76 0,2.28 -1.02,4.5 -0.96,2.16 -2.16,4.26 -1.2,2.1 -2.21999,4.2 -0.96001,2.16 -0.96001,4.38 0,1.38 0.72,2.1 0.78,0.78 2.1,0.78 0.9,0 1.62,-0.66 0.72,-0.66 0.72,-2.1 0,-0.84 -0.48,-1.26 -0.41999,-0.36 -1.02,-0.36 -0.84,0 -1.25999,0.48 -0.36001,0.54 -0.36001,1.26 z" />
      <path
         id="path42"
         style="font-family:akaArcade"
         d="m 485.66219,95.98 q 0.96,1.2 2.28,1.8 1.32,0.6 2.76,0.6 1.68,0 3.18,-0.84 1.56,-0.84 2.46,-2.4 l 0.66,0.78 q -0.72,2.22 -2.7,3.42 -1.92,1.14 -4.2,1.14 -1.62,0 -3.06,-0.66 -1.44,-0.66 -2.52,-1.86 -1.08,-1.26 -1.74,-3 -0.6,-1.8 -0.6,-4.08 0,-2.04 0.6,-3.72 0.66,-1.74 1.68,-2.94 1.08,-1.26 2.52,-1.92 1.44,-0.72 3.06,-0.72 1.2,0 2.46,0.48 1.26,0.48 2.28,1.26 1.02,0.78 1.68,1.68 0.66,0.9 0.66,1.68 -0.18,1.5 -1.38,2.22 z m 8.52,-9.96 q -0.9,-0.9 -2.04,-1.44 -1.08,-0.6 -2.4,-0.6 -1.14,0 -2.22,0.42 -1.02,0.42 -1.86,1.26 -0.78,0.78 -1.26,2.04 -0.48,1.2 -0.48,2.76 0,0.72 0.06,1.38 0.06,0.6 0.24,1.14 z m -9.66,7.98 q 0.3,0.78 0.54,1.2 l 10.32,-7.26 q -0.18,-0.54 -0.6,-1.2 z" />
      <path
         id="path44"
         style="font-family:akaArcade"
         d="m 500.3575,85.18 q 0,-1.02 0.6,-1.74 0.6,-0.72 1.5,-1.14 0.9,-0.48 1.92,-0.66 1.08,-0.24 1.98,-0.24 1.8,0 2.88,0.66 1.14,0.6 1.74,1.68 0.66,1.02 0.84,2.4 0.24,1.38 0.24,2.88 0,1.5 -0.12,2.88 -0.12,1.38 -0.24,2.64 v 0.9 q 0,0.96 0.24,1.86 0.3,0.9 1.5,1.08 0.48,0.18 0.96,0.42 0.48,0.18 0.48,0.84 v 0.12 q 0,0.24 -0.42,0.24 -0.36,0 -0.66,0 h -0.36 q -1.02,0 -2.04,-0.18 -0.96,-0.18 -1.62,-0.9 -1.62,1.38 -3.72,1.38 -1.26,0 -2.4,-0.54 -1.08,-0.54 -1.92,-1.44 -0.78,-0.96 -1.26,-2.16 -0.48,-1.26 -0.48,-2.64 0,-1.32 0.48,-2.4 0.54,-1.14 1.38,-1.92 0.9,-0.78 1.98,-1.2 1.14,-0.42 2.34,-0.42 1.14,0 2.16,0.42 1.02,0.42 1.8,1.26 0.12,-0.3 0.12,-0.66 0,-0.36 0,-0.72 0,-0.78 -0.24,-1.56 -0.24,-0.84 -0.72,-1.5 -0.42,-0.66 -1.08,-1.08 -0.66,-0.42 -1.56,-0.42 -1.56,0 -2.52,0.42 -0.96,0.42 -1.56,0.96 -0.6,0.48 -1.02,0.9 -0.36,0.42 -0.72,0.42 -0.36,0 -0.42,-0.24 -0.06,-0.3 -0.06,-0.6 z m 6.06,4.44 q -1.62,0 -2.94,0.96 -1.32,0.9 -1.32,2.94 0,2.28 1.14,3.42 1.14,1.08 2.76,1.08 1.74,0 2.82,-1.14 1.08,-1.2 1.08,-3.72 0,-1.74 -1.02,-2.64 -1.02,-0.9 -2.52,-0.9 z" />
    </g>
  </g>
</svg>
