<?xml version="1.0" encoding="UTF-8" standalone="no"?>
<svg
   xmlns:dc="http://purl.org/dc/elements/1.1/"
   xmlns:cc="http://creativecommons.org/ns#"
   xmlns:rdf="http://www.w3.org/1999/02/22-rdf-syntax-ns#"
   xmlns:svg="http://www.w3.org/2000/svg"
   xmlns="http://www.w3.org/2000/svg"
   id="svg16"
   width="500px"
   version="1.1"
   height="200px">
  <metadata
     id="metadata20">
    <rdf:RDF>
      <cc:Work
         rdf:about="">
        <dc:format>image/svg+xml</dc:format>
        <dc:type
           rdf:resource="http://purl.org/dc/dcmitype/StillImage" />
      </cc:Work>
    </rdf:RDF>
  </metadata>
  <defs
     id="defs4">
    <style
       id="style2"
       type="text/css"><![CDATA[    
     @font-face {font-family:Akayla Script Deco PERSONAL USE;
     src: url('/Users/francesco/Repos/write-logos/src/fonts/AkaylaScriptDeco_PERSONAL.ttf');}
     @font-face {font-family:DuererGotisch;
     src: url('/Users/francesco/Repos/write-logos/src/fonts/DuererGotisch.ttf');}
     ]]></style>
  </defs>
  <g
     id="g14"
     style="font-size:30px">
    <g
       style="text-anchor:middle"
       id="text12"
       aria-label="eXtemporanea">
      <path
         id="path22"
         style="font-family:'Akayla Script Deco PERSONAL USE'"
         d="m 187.50273,89.68 q 0,-0.39 -0.21,-0.66 -0.18,-0.3 -0.63,-0.42 -0.45,-0.09 -0.96,0.15 -0.48,0.21 -0.93,0.57 -0.45,0.36 -0.84,0.81 -0.39,0.42 -0.63,0.72 -0.42,0.57 -0.78,1.2 -0.36,0.6 -0.69,1.26 0.51,0.03 1.14,0.03 0.63,-0.03 1.29,-0.18 0.69,-0.15 1.29,-0.42 0.6,-0.27 1.05,-0.69 0.45,-0.42 0.69,-0.99 0.24,-0.6 0.21,-1.38 z m -5.91,4.2 q -0.33,0.93 -0.51,1.68 -0.18,0.81 -0.12,1.77 0.09,0.96 0.48,1.77 0.39,0.78 1.05,1.2 0.69,0.42 1.74,0.09 0.99,-0.3 1.86,-1.02 0.87,-0.75 1.59,-1.65 0.75,-0.93 1.32,-1.86 0.57,-0.96 0.99,-1.65 0.09,-0.15 0.15,-0.24 0.09,-0.12 0.15,-0.24 0.06,-0.06 0.06,-0.12 0.03,-0.09 0.09,-0.15 l 0.33,0.18 q -0.09,0.15 -0.21,0.33 -0.09,0.18 -0.24,0.42 -0.42,0.72 -1.02,1.68 -0.6,0.96 -1.38,1.92 -0.75,0.93 -1.65,1.71 -0.9,0.75 -1.92,1.05 -1.41,0.42 -2.61,-0.03 -1.17,-0.45 -1.74,-1.89 -0.42,-1.05 -0.3,-2.4 0.09,-1.35 0.6,-2.7 0.36,-0.99 0.9,-1.92 0.54,-0.93 1.23,-1.68 0.69,-0.75 1.47,-1.26 0.81,-0.51 1.68,-0.69 0.75,-0.15 1.32,0.03 0.6,0.15 0.99,0.51 0.39,0.36 0.57,0.9 0.18,0.54 0.09,1.14 -0.18,1.26 -1.08,1.92 -0.87,0.66 -2.01,0.96 -1.11,0.27 -2.22,0.3 -1.08,0 -1.65,-0.06 z" />
      <path
         id="path24"
         style="font-family:DuererGotisch"
         d="m 200.31227,81.01 q -1.53,1.62 -1.53,1.77 l -0.03,4.65 h 0.81 l 0.03,1.29 h -0.9 v 1.05 h 0.87 v 1.26 h -0.87 v 6.9 l 0.21,0.06 0.54,-0.51 0.24,0.18 -2.13,2.34 q -2.28,-1.5 -2.88,-2.49 -0.96,2.4 -3.42,2.4 -0.45,0 -0.72,-0.03 0.06,-1.98 0,-2.94 h 0.21 q 0.27,0.93 1.47,1.02 0.66,0.06 1.29,-0.66 0.66,-0.72 0.66,-1.38 l 0.03,-5.01 h -1.92 v -1.14 l 1.89,-0.03 0.03,-1.05 -1.95,0.03 v -1.17 l 2.01,-0.03 0.03,-4.47 q 0,-0.12 -0.87,-0.84 -0.84,-0.72 -0.99,-0.72 -0.48,0 -0.93,0.57 -0.45,0.54 -0.45,1.02 0,1.08 1.29,1.08 0.27,0 0.66,-0.21 l 0.12,0.12 q -0.06,0.18 -0.54,0.69 -0.45,0.48 -0.6,0.48 -0.6,0 -1.11,-0.72 -0.42,-0.6 -0.42,-1.08 0,-0.84 1.23,-2.1 1.38,-1.41 1.56,-2.13 l 2.88,2.58 q 0.48,-0.36 1.29,-1.26 l 1.17,-1.32 z m -1.89,6.48 v -4.74 q 0.03,-0.18 -0.81,-0.93 v 5.67 z m -0.06,1.23 h -0.87 v 1.05 h 0.87 z m -1.26,8.22 V 81.49 q -0.84,0.51 -0.96,1.5 0,0.21 0,0.63 -0.03,0.42 -0.03,0.66 v 11.43 q 0,0.45 0.99,1.23 z m 1.2,-5.88 h -0.78 v 6.15 l 0.78,0.54 z" />
      <path
         id="path26"
         style="font-family:'Akayla Script Deco PERSONAL USE'"
         d="m 207.19773,83.98 q -0.51,0.96 -1.05,1.98 -0.54,1.02 -1.08,2.07 h 1.65 v 0.39 h -1.83 q -0.78,1.53 -1.5,3.03 -0.72,1.5 -1.29,2.85 -0.54,1.32 -0.9,2.43 -0.36,1.11 -0.39,1.89 -0.03,0.45 0.06,0.84 0.06,0.39 0.27,0.66 0.21,0.27 0.51,0.36 0.3,0.09 0.72,-0.06 0.63,-0.24 1.23,-0.87 0.63,-0.63 1.2,-1.41 0.57,-0.78 1.08,-1.65 0.51,-0.87 0.93,-1.62 0.18,-0.33 0.36,-0.6 0.18,-0.3 0.33,-0.54 0.06,-0.06 0.09,-0.15 0.03,-0.09 0.09,-0.15 l 0.3,0.21 q -0.15,0.27 -0.39,0.66 -0.21,0.36 -0.45,0.78 -0.45,0.81 -1.02,1.74 -0.57,0.93 -1.23,1.77 -0.63,0.84 -1.32,1.47 -0.69,0.63 -1.41,0.84 -0.6,0.18 -1.08,0.03 -0.48,-0.15 -0.84,-0.51 -0.36,-0.36 -0.54,-0.9 -0.21,-0.54 -0.18,-1.14 0.06,-0.72 0.42,-1.92 0.36,-1.2 0.99,-2.73 0.51,-1.23 1.14,-2.58 0.63,-1.35 1.35,-2.73 h -1.95 v -0.39 h 2.13 q 0.57,-1.05 1.11,-2.04 0.54,-1.02 1.14,-2.01 z" />
      <path
         id="path28"
         style="font-family:'Akayla Script Deco PERSONAL USE'"
         d="m 214.69023,89.68 q 0,-0.39 -0.21,-0.66 -0.18,-0.3 -0.63,-0.42 -0.45,-0.09 -0.96,0.15 -0.48,0.21 -0.93,0.57 -0.45,0.36 -0.84,0.81 -0.39,0.42 -0.63,0.72 -0.42,0.57 -0.78,1.2 -0.36,0.6 -0.69,1.26 0.51,0.03 1.14,0.03 0.63,-0.03 1.29,-0.18 0.69,-0.15 1.29,-0.42 0.6,-0.27 1.05,-0.69 0.45,-0.42 0.69,-0.99 0.24,-0.6 0.21,-1.38 z m -5.91,4.2 q -0.33,0.93 -0.51,1.68 -0.18,0.81 -0.12,1.77 0.09,0.96 0.48,1.77 0.39,0.78 1.05,1.2 0.69,0.42 1.74,0.09 0.99,-0.3 1.86,-1.02 0.87,-0.75 1.59,-1.65 0.75,-0.93 1.32,-1.86 0.57,-0.96 0.99,-1.65 0.09,-0.15 0.15,-0.24 0.09,-0.12 0.15,-0.24 0.06,-0.06 0.06,-0.12 0.03,-0.09 0.09,-0.15 l 0.33,0.18 q -0.09,0.15 -0.21,0.33 -0.09,0.18 -0.24,0.42 -0.42,0.72 -1.02,1.68 -0.6,0.96 -1.38,1.92 -0.75,0.93 -1.65,1.71 -0.9,0.75 -1.92,1.05 -1.41,0.42 -2.61,-0.03 -1.17,-0.45 -1.74,-1.89 -0.42,-1.05 -0.3,-2.4 0.09,-1.35 0.6,-2.7 0.36,-0.99 0.9,-1.92 0.54,-0.93 1.23,-1.68 0.69,-0.75 1.47,-1.26 0.81,-0.51 1.68,-0.69 0.75,-0.15 1.32,0.03 0.6,0.15 0.99,0.51 0.39,0.36 0.57,0.9 0.18,0.54 0.09,1.14 -0.18,1.26 -1.08,1.92 -0.87,0.66 -2.01,0.96 -1.11,0.27 -2.22,0.3 -1.08,0 -1.65,-0.06 z" />
      <path
         id="path30"
         style="font-family:'Akayla Script Deco PERSONAL USE'"
         d="m 231.66977,90.34 q 0.09,-0.66 -0.15,-0.96 -0.21,-0.33 -0.63,-0.33 -0.39,0 -0.93,0.27 -0.51,0.27 -1.02,0.78 -0.42,0.42 -0.9,0.96 -0.45,0.54 -0.93,1.14 -0.45,0.57 -0.9,1.17 -0.42,0.57 -0.81,1.11 -1.17,1.56 -1.95,3.12 -0.78,1.56 -1.62,3.33 l -1.2,-0.03 q 0.51,-1.02 1.17,-2.34 0.69,-1.32 1.32,-2.67 0.66,-1.38 1.17,-2.67 0.54,-1.32 0.75,-2.31 0.18,-0.93 -0.03,-1.41 -0.18,-0.45 -0.54,-0.48 -0.33,-0.06 -0.72,0.12 -0.39,0.18 -0.75,0.48 -0.36,0.27 -0.57,0.48 -0.42,0.42 -0.9,0.96 -0.45,0.54 -0.93,1.14 -0.45,0.57 -0.9,1.17 -0.42,0.57 -0.81,1.11 -0.33,0.45 -0.84,1.29 -0.51,0.84 -1.05,1.8 -0.54,0.96 -0.99,1.86 -0.45,0.9 -0.66,1.44 l -1.23,0.03 3.39,-7.17 0.33,-0.69 q 0.39,-0.84 0.75,-1.59 0.36,-0.78 0.66,-1.41 0.3,-0.63 0.51,-1.05 0.24,-0.45 0.33,-0.63 l 0.06,-0.09 h 1.23 q -0.06,0.09 -0.27,0.54 -0.21,0.42 -0.54,1.08 -0.3,0.63 -0.72,1.47 -0.39,0.84 -0.81,1.74 -0.18,0.36 -0.36,0.75 -0.15,0.36 -0.33,0.72 l 0.24,-0.33 q 0.39,-0.51 0.81,-1.11 0.45,-0.6 0.9,-1.17 0.48,-0.6 0.93,-1.14 0.48,-0.54 0.93,-0.99 0.27,-0.27 0.63,-0.54 0.39,-0.3 0.81,-0.48 0.45,-0.21 0.9,-0.3 0.45,-0.09 0.87,0.06 0.57,0.21 0.81,0.72 0.12,0.33 0.15,0.75 0.03,0.39 -0.09,0.96 -0.15,0.72 -0.45,1.56 -0.3,0.81 -0.72,1.68 h 0.03 q 0.39,-0.51 0.81,-1.11 0.45,-0.6 0.9,-1.17 0.48,-0.6 0.93,-1.14 0.48,-0.54 0.93,-0.99 0.3,-0.3 0.75,-0.63 0.45,-0.33 0.96,-0.54 0.51,-0.21 1.02,-0.18 0.51,0.03 0.93,0.42 0.51,0.48 0.48,1.32 0,0.81 -0.27,1.71 -0.27,0.9 -0.69,1.74 -0.39,0.84 -0.66,1.38 -0.09,0.18 -0.36,0.75 -0.27,0.54 -0.57,1.23 -0.3,0.66 -0.54,1.38 -0.21,0.72 -0.24,1.23 0,0.51 0.27,0.72 0.27,0.24 0.99,-0.09 0.75,-0.39 2.19,-2.16 0.63,-0.81 1.38,-1.92 0.78,-1.11 1.65,-2.46 0.03,-0.03 0.03,-0.06 0.03,-0.03 0.06,-0.06 l 0.33,0.18 q -0.9,1.44 -1.71,2.58 -0.78,1.11 -1.47,1.98 -1.47,1.86 -2.28,2.25 -0.81,0.39 -1.35,0.36 -1.05,-0.06 -1.23,-0.84 -0.18,-0.78 0.09,-1.8 0.27,-1.02 0.72,-1.98 0.48,-0.99 0.72,-1.44 0.51,-1.05 1.08,-2.22 0.57,-1.2 0.72,-2.34 z" />
      <path
         id="path32"
         style="font-family:'Akayla Script Deco PERSONAL USE'"
         d="m 238.0368,92.41 q 0.54,-0.72 1.17,-1.44 0.63,-0.72 1.26,-1.29 0.3,-0.27 0.69,-0.57 0.42,-0.3 0.87,-0.51 0.45,-0.21 0.9,-0.24 0.48,-0.03 0.93,0.18 0.51,0.24 0.75,0.78 0.24,0.54 0.3,1.29 0.06,0.81 -0.12,1.83 -0.15,0.99 -0.51,2.04 -0.27,0.75 -0.63,1.5 -0.33,0.72 -0.75,1.41 0.51,0.03 1.14,-0.15 1.05,-0.36 1.86,-1.11 0.81,-0.75 1.44,-1.56 0.18,-0.24 0.33,-0.45 0.18,-0.21 0.3,-0.39 0.06,-0.06 0.06,-0.12 0.03,-0.09 0.09,-0.15 0.03,-0.06 0.09,-0.12 0.15,0.06 0.15,0.24 0.03,0.18 -0.03,0.27 -0.15,0.21 -0.33,0.42 -0.15,0.21 -0.39,0.54 -0.72,0.87 -1.56,1.65 -0.84,0.78 -1.92,1.14 -0.75,0.24 -1.47,0.15 -0.12,0.18 -0.24,0.36 -0.12,0.15 -0.24,0.3 -0.96,1.23 -2.13,1.89 -1.14,0.66 -2.46,0.66 -0.39,0 -0.78,-0.09 -0.54,-0.15 -0.9,-0.45 -0.36,-0.27 -0.51,-0.63 -0.21,-0.48 -0.12,-1.05 0.09,-0.57 0.45,-1.02 0.39,-0.51 1.05,-0.87 0.69,-0.36 1.65,-0.42 0.69,-0.03 1.59,0.18 0.78,0.18 1.8,0.57 0.54,-0.96 0.9,-1.92 0.72,-1.83 0.87,-3.51 0.09,-1.02 -0.03,-1.71 -0.12,-0.69 -0.48,-0.96 -0.33,-0.27 -0.93,-0.06 -0.57,0.18 -1.41,0.93 -0.69,0.6 -1.38,1.38 -0.66,0.78 -1.23,1.56 -0.54,0.75 -0.99,1.41 -0.42,0.66 -0.63,1.05 l -0.21,0.39 q -1.89,3.63 -3.75,7.23 -1.89,3.6 -3.75,7.26 -0.24,-0.03 -0.54,-0.03 -0.33,0 -0.81,-0.03 2.16,-4.11 4.26,-8.22 2.1,-4.08 4.26,-8.22 0.69,-1.35 1.38,-2.67 0.72,-1.35 1.41,-2.7 h 1.35 z m 2.88,6.15 q 0.18,-0.24 0.36,-0.51 0.18,-0.27 0.36,-0.54 -0.51,-0.18 -0.93,-0.3 -0.39,-0.15 -0.78,-0.24 -0.81,-0.18 -1.5,-0.18 -0.87,0.06 -1.47,0.39 -0.6,0.3 -0.93,0.75 -0.3,0.36 -0.39,0.87 -0.06,0.48 0.12,0.81 0.24,0.69 1.14,0.9 1.14,0.27 2.13,-0.33 1.02,-0.57 1.89,-1.62 z" />
      <path
         id="path34"
         style="font-family:'Akayla Script Deco PERSONAL USE'"
         d="m 248.87852,95.8 q -0.09,0.54 -0.12,1.23 -0.03,0.66 0.09,1.32 0.15,0.63 0.48,1.17 0.33,0.51 0.9,0.78 0.69,0.33 1.5,0.03 0.81,-0.27 1.56,-0.84 0.78,-0.6 1.41,-1.32 0.66,-0.75 1.02,-1.35 -1.08,-0.3 -1.41,-1.08 -0.33,-0.78 -0.12,-1.53 0.24,-0.75 0.99,-1.2 0.75,-0.45 1.83,-0.12 0.03,-0.27 -0.03,-0.72 -0.03,-0.45 -0.15,-0.78 -0.27,-1.08 -0.93,-1.59 -0.66,-0.54 -1.53,-0.54 -1.08,0 -2.01,0.69 -0.93,0.69 -1.65,1.68 -0.72,0.99 -1.2,2.13 -0.45,1.11 -0.63,2.04 z m 7.02,0.69 q 0.45,-0.87 0.66,-1.53 0.24,-0.69 0.39,-1.62 -0.75,-0.48 -1.41,-0.15 -0.66,0.33 -0.96,0.99 -0.27,0.63 -0.03,1.35 0.27,0.69 1.35,0.96 z m 4.68,-2.76 q -0.33,0.69 -0.81,1.29 -0.45,0.6 -1.05,1.05 -0.57,0.45 -1.23,0.69 -0.66,0.24 -1.38,0.15 -0.48,0.87 -1.11,1.62 -0.6,0.75 -1.32,1.32 -0.72,0.54 -1.56,0.84 -0.84,0.3 -1.77,0.27 -1.05,-0.06 -1.71,-0.57 -0.63,-0.51 -0.96,-1.23 -0.33,-0.75 -0.39,-1.65 -0.06,-0.9 0.09,-1.71 0.18,-0.99 0.6,-2.07 0.42,-1.02 1.05,-1.98 0.63,-0.99 1.47,-1.71 0.84,-0.72 1.83,-1.05 0.99,-0.36 2.13,-0.18 1.17,0.21 1.83,0.87 0.69,0.66 0.93,1.62 0.33,1.29 0,2.7 -0.3,1.41 -0.9,2.55 0.84,0 1.5,-0.33 0.66,-0.36 1.14,-0.81 0.48,-0.48 0.75,-0.93 0.3,-0.48 0.45,-0.75 0.03,-0.06 0.09,-0.12 0.03,-0.03 0.03,-0.06 z" />
      <path
         id="path36"
         style="font-family:'Akayla Script Deco PERSONAL USE'"
         d="m 266.22602,91.03 q 0.27,0.15 0.27,0.36 0,0.18 -0.12,0.33 -0.36,0.6 -0.9,1.56 -0.54,0.96 -1.08,2.04 -0.51,1.05 -0.87,2.07 -0.36,1.02 -0.36,1.71 0,0.57 0.24,0.93 0.24,0.39 0.69,0.39 0.63,0 1.38,-0.75 0.75,-0.78 1.5,-1.86 0.75,-1.08 1.38,-2.22 0.66,-1.14 1.11,-1.86 0.06,-0.09 0.09,-0.18 0.06,-0.09 0.12,-0.15 0.21,0 0.21,0.24 0,0.15 -0.33,0.66 -0.3,0.48 -0.51,0.87 -0.63,1.05 -1.29,2.1 -0.63,1.05 -1.32,1.89 -0.66,0.81 -1.38,1.29 -0.69,0.51 -1.41,0.51 -0.9,0 -1.38,-0.66 -0.48,-0.63 -0.48,-1.5 0,-0.93 0.39,-1.89 0.39,-0.96 0.75,-1.71 0.24,-0.51 0.6,-1.14 0.39,-0.66 0.72,-1.23 0.36,-0.6 0.6,-1.05 0.24,-0.45 0.24,-0.57 0,-0.03 -0.27,-0.12 -0.24,-0.09 -0.6,-0.24 -0.36,-0.18 -0.75,-0.36 -0.36,-0.21 -0.57,-0.45 -0.27,0.51 -0.69,1.2 -0.39,0.69 -0.81,1.32 -0.39,0.63 -0.75,1.08 -0.33,0.42 -0.51,0.42 -0.09,0 -0.09,-0.09 0,-0.03 0.12,-0.24 0.66,-1.05 1.29,-2.01 0.63,-0.99 1.2,-1.98 -0.21,-0.27 -0.36,-0.66 -0.12,-0.42 -0.12,-0.72 0,-0.48 0.24,-0.72 0.24,-0.24 0.51,-0.24 0.27,0 0.51,0.18 0.24,0.18 0.24,0.63 0,0.27 -0.18,0.69 -0.15,0.39 -0.39,0.78 0.36,0.45 0.78,0.66 0.42,0.18 0.81,0.27 0.42,0.09 0.81,0.15 0.39,0.06 0.72,0.27 z m -3.36,-1.68 q 0.18,-0.42 0.3,-0.66 0.12,-0.24 0.12,-0.48 0,-0.24 -0.09,-0.3 -0.06,-0.09 -0.21,-0.15 -0.15,0 -0.3,0.15 -0.12,0.15 -0.12,0.45 0,0.21 0.06,0.51 0.09,0.27 0.24,0.48 z" />
      <path
         id="path38"
         style="font-family:'Akayla Script Deco PERSONAL USE'"
         d="m 281.21242,88.21 q -0.03,0.03 -0.09,0.15 -0.03,0.09 -0.06,0.12 -0.42,0.78 -1.02,1.98 -0.57,1.2 -1.17,2.52 -0.57,1.32 -1.08,2.58 -0.48,1.26 -0.75,2.16 -0.15,0.57 -0.15,1.11 0.03,0.54 0.21,0.96 0.18,0.39 0.51,0.54 0.36,0.18 0.87,0 0.63,-0.24 1.23,-0.87 0.63,-0.63 1.2,-1.41 0.57,-0.78 1.08,-1.65 0.51,-0.87 0.93,-1.62 0.15,-0.3 0.3,-0.54 0.15,-0.27 0.3,-0.51 0.06,-0.12 0.12,-0.21 0.09,-0.09 0.15,-0.18 0.15,0.15 0.15,0.33 0,0.15 -0.06,0.21 -0.15,0.24 -0.3,0.51 -0.12,0.24 -0.33,0.57 -0.48,0.81 -1.05,1.74 -0.57,0.93 -1.2,1.77 -0.63,0.84 -1.32,1.5 -0.69,0.63 -1.41,0.84 -0.6,0.18 -1.08,0.06 -0.48,-0.12 -0.84,-0.48 -0.36,-0.33 -0.57,-0.84 -0.18,-0.51 -0.15,-1.11 0,-0.39 0.09,-0.81 -0.51,0.81 -1.32,1.71 -0.78,0.87 -1.83,1.23 -0.57,0.21 -1.14,0.18 -0.57,-0.03 -1.08,-0.27 -0.78,-0.36 -1.17,-1.02 -0.39,-0.69 -0.48,-1.5 -0.09,-0.81 0.03,-1.62 0.12,-0.84 0.33,-1.53 0.09,-0.27 0.21,-0.54 0.09,-0.27 0.21,-0.54 0.54,-1.2 1.38,-2.31 0.84,-1.14 1.89,-1.98 1.05,-0.87 2.25,-1.35 1.23,-0.48 2.49,-0.39 0.6,0.06 1.17,0.39 0.6,0.3 0.84,0.75 0.09,-0.18 0.18,-0.33 0.09,-0.18 0.18,-0.33 z m -1.92,1.05 q -0.24,-0.45 -0.78,-0.81 -0.51,-0.39 -1.2,-0.39 -1.05,0 -2.07,0.6 -1.02,0.57 -1.95,1.53 -0.9,0.96 -1.62,2.16 -0.72,1.2 -1.14,2.43 -0.15,0.45 -0.27,1.11 -0.12,0.63 -0.15,1.32 -0.03,0.66 0.06,1.32 0.09,0.66 0.36,1.11 0.27,0.45 0.72,0.63 0.45,0.18 1.17,-0.06 0.66,-0.21 1.23,-0.69 0.57,-0.51 1.02,-1.08 0.45,-0.57 0.78,-1.11 0.33,-0.57 0.54,-0.93 0.15,-0.27 0.18,-0.33 0.69,-1.71 1.47,-3.42 0.81,-1.71 1.65,-3.39 z" />
      <path
         id="path40"
         style="font-family:'Akayla Script Deco PERSONAL USE'"
         d="m 287.68492,88.3 -2.43,4.8 q 0.66,-0.87 1.38,-1.71 0.75,-0.87 1.53,-1.59 0.27,-0.27 0.69,-0.6 0.45,-0.36 0.93,-0.63 0.51,-0.27 1.02,-0.36 0.54,-0.12 1.02,0.12 0.72,0.36 0.84,1.08 0.15,0.69 -0.09,1.62 -0.24,0.9 -0.72,1.95 -0.48,1.02 -1.02,2.07 -0.09,0.18 -0.36,0.75 -0.27,0.54 -0.57,1.23 -0.27,0.66 -0.51,1.38 -0.24,0.72 -0.27,1.23 0,0.51 0.27,0.72 0.3,0.24 1.02,-0.09 0.36,-0.21 0.9,-0.75 0.57,-0.54 1.26,-1.41 0.66,-0.81 1.41,-1.92 0.78,-1.11 1.65,-2.46 0.03,-0.03 0.03,-0.06 0.03,-0.03 0.06,-0.06 l 0.3,0.18 q -0.87,1.44 -1.68,2.58 -0.78,1.11 -1.47,1.98 -0.72,0.9 -1.32,1.47 -0.57,0.57 -0.99,0.78 -0.78,0.42 -1.32,0.36 -0.72,-0.03 -1.02,-0.42 -0.27,-0.39 -0.3,-0.96 0,-0.57 0.18,-1.26 0.18,-0.69 0.45,-1.35 0.27,-0.66 0.54,-1.2 0.3,-0.57 0.45,-0.87 0.42,-0.84 0.81,-1.68 0.39,-0.84 0.66,-1.59 0.27,-0.75 0.33,-1.38 0.06,-0.63 -0.15,-1.08 -0.21,-0.42 -0.6,-0.39 -0.36,0 -0.78,0.24 -0.39,0.21 -0.78,0.54 -0.39,0.33 -0.63,0.54 -0.63,0.57 -1.23,1.26 -0.6,0.69 -1.17,1.41 -0.57,0.72 -1.05,1.41 -0.48,0.66 -0.84,1.2 -1.14,2.28 -1.89,3.81 -0.78,1.5 -0.9,1.71 h -1.41 l 3.63,-7.17 2.73,-5.43 z" />
      <path
         id="path42"
         style="font-family:'Akayla Script Deco PERSONAL USE'"
         d="m 302.81523,89.68 q 0,-0.39 -0.21,-0.66 -0.18,-0.3 -0.63,-0.42 -0.45,-0.09 -0.96,0.15 -0.48,0.21 -0.93,0.57 -0.45,0.36 -0.84,0.81 -0.39,0.42 -0.63,0.72 -0.42,0.57 -0.78,1.2 -0.36,0.6 -0.69,1.26 0.51,0.03 1.14,0.03 0.63,-0.03 1.29,-0.18 0.69,-0.15 1.29,-0.42 0.6,-0.27 1.05,-0.69 0.45,-0.42 0.69,-0.99 0.24,-0.6 0.21,-1.38 z m -5.91,4.2 q -0.33,0.93 -0.51,1.68 -0.18,0.81 -0.12,1.77 0.09,0.96 0.48,1.77 0.39,0.78 1.05,1.2 0.69,0.42 1.74,0.09 0.99,-0.3 1.86,-1.02 0.87,-0.75 1.59,-1.65 0.75,-0.93 1.32,-1.86 0.57,-0.96 0.99,-1.65 0.09,-0.15 0.15,-0.24 0.09,-0.12 0.15,-0.24 0.06,-0.06 0.06,-0.12 0.03,-0.09 0.09,-0.15 l 0.33,0.18 q -0.09,0.15 -0.21,0.33 -0.09,0.18 -0.24,0.42 -0.42,0.72 -1.02,1.68 -0.6,0.96 -1.38,1.92 -0.75,0.93 -1.65,1.71 -0.9,0.75 -1.92,1.05 -1.41,0.42 -2.61,-0.03 -1.17,-0.45 -1.74,-1.89 -0.42,-1.05 -0.3,-2.4 0.09,-1.35 0.6,-2.7 0.36,-0.99 0.9,-1.92 0.54,-0.93 1.23,-1.68 0.69,-0.75 1.47,-1.26 0.81,-0.51 1.68,-0.69 0.75,-0.15 1.32,0.03 0.6,0.15 0.99,0.51 0.39,0.36 0.57,0.9 0.18,0.54 0.09,1.14 -0.18,1.26 -1.08,1.92 -0.87,0.66 -2.01,0.96 -1.11,0.27 -2.22,0.3 -1.08,0 -1.65,-0.06 z" />
      <path
         id="path44"
         style="font-family:'Akayla Script Deco PERSONAL USE'"
         d="m 317.36477,88.21 q -0.03,0.03 -0.09,0.15 -0.03,0.09 -0.06,0.12 -0.42,0.78 -1.02,1.98 -0.57,1.2 -1.17,2.52 -0.57,1.32 -1.08,2.58 -0.48,1.26 -0.75,2.16 -0.15,0.57 -0.15,1.11 0.03,0.54 0.21,0.96 0.18,0.39 0.51,0.54 0.36,0.18 0.87,0 0.63,-0.24 1.23,-0.87 0.63,-0.63 1.2,-1.41 0.57,-0.78 1.08,-1.65 0.51,-0.87 0.93,-1.62 0.15,-0.3 0.3,-0.54 0.15,-0.27 0.3,-0.51 0.06,-0.12 0.12,-0.21 0.09,-0.09 0.15,-0.18 0.15,0.15 0.15,0.33 0,0.15 -0.06,0.21 -0.15,0.24 -0.3,0.51 -0.12,0.24 -0.33,0.57 -0.48,0.81 -1.05,1.74 -0.57,0.93 -1.2,1.77 -0.63,0.84 -1.32,1.5 -0.69,0.63 -1.41,0.84 -0.6,0.18 -1.08,0.06 -0.48,-0.12 -0.84,-0.48 -0.36,-0.33 -0.57,-0.84 -0.18,-0.51 -0.15,-1.11 0,-0.39 0.09,-0.81 -0.51,0.81 -1.32,1.71 -0.78,0.87 -1.83,1.23 -0.57,0.21 -1.14,0.18 -0.57,-0.03 -1.08,-0.27 -0.78,-0.36 -1.17,-1.02 -0.39,-0.69 -0.48,-1.5 -0.09,-0.81 0.03,-1.62 0.12,-0.84 0.33,-1.53 0.09,-0.27 0.21,-0.54 0.09,-0.27 0.21,-0.54 0.54,-1.2 1.38,-2.31 0.84,-1.14 1.89,-1.98 1.05,-0.87 2.25,-1.35 1.23,-0.48 2.49,-0.39 0.6,0.06 1.17,0.39 0.6,0.3 0.84,0.75 0.09,-0.18 0.18,-0.33 0.09,-0.18 0.18,-0.33 z m -1.92,1.05 q -0.24,-0.45 -0.78,-0.81 -0.51,-0.39 -1.2,-0.39 -1.05,0 -2.07,0.6 -1.02,0.57 -1.95,1.53 -0.9,0.96 -1.62,2.16 -0.72,1.2 -1.14,2.43 -0.15,0.45 -0.27,1.11 -0.12,0.63 -0.15,1.32 -0.03,0.66 0.06,1.32 0.09,0.66 0.36,1.11 0.27,0.45 0.72,0.63 0.45,0.18 1.17,-0.06 0.66,-0.21 1.23,-0.69 0.57,-0.51 1.02,-1.08 0.45,-0.57 0.78,-1.11 0.33,-0.57 0.54,-0.93 0.15,-0.27 0.18,-0.33 0.69,-1.71 1.47,-3.42 0.81,-1.71 1.65,-3.39 z" />
    </g>
  </g>
</svg>
