<?xml version="1.0" encoding="UTF-8" standalone="no"?>
<svg
   xmlns:dc="http://purl.org/dc/elements/1.1/"
   xmlns:cc="http://creativecommons.org/ns#"
   xmlns:rdf="http://www.w3.org/1999/02/22-rdf-syntax-ns#"
   xmlns:svg="http://www.w3.org/2000/svg"
   xmlns="http://www.w3.org/2000/svg"
   id="svg10"
   width="500px"
   version="1.1"
   height="200px">
  <metadata
     id="metadata14">
    <rdf:RDF>
      <cc:Work
         rdf:about="">
        <dc:format>image/svg+xml</dc:format>
        <dc:type
           rdf:resource="http://purl.org/dc/dcmitype/StillImage" />
      </cc:Work>
    </rdf:RDF>
  </metadata>
  <defs
     id="defs4">
    <style
       id="style2"
       type="text/css"><![CDATA[    
     @font-face {font-family:Al Valenciaga PersonalUseOnly;
     src: url('/Users/francesco/Repos/write-logos/src/fonts//al_valenciaga_PersonalUseOnly.ttf');}]]></style>
  </defs>
  <g
     id="g8"
     style="font-size:30px;font-family:'Al Valenciaga PersonalUseOnly'">
    <g
       style=""
       id="text6"
       aria-label="eXtemporanea">
      <path
         id="path16"
         style=""
         d="m 100,80.02 h 16.83 v 7.08 h -0.48 l -1.53,-1.38 h -7.74 v 4.02 h 6.75 l 1.02,-0.93 h 0.33 v 1.68 4.95 0.93 h -0.33 l -1.02,-0.93 h -6.75 v 3.06 h 7.74 l 1.53,-1.38 h 0.48 v 7.08 H 100 v -0.48 l 1.38,-1.53 V 82.03 L 100,80.5 Z" />
      <path
         id="path18"
         style=""
         d="m 119.6875,76 h 9.15 v 0.48 l -1.38,1.53 3.99,8.01 3.99,-8.01 -1.38,-1.53 V 76 h 9.15 v 0.48 l -1.38,1.53 -6.48,12.99 6.48,12.99 1.38,1.53 V 106 h -9.15 v -0.48 l 1.38,-1.53 -3.99,-8.01 -3.99,8.01 1.38,1.53 V 106 h -9.15 v -0.48 l 1.38,-1.53 6.48,-12.99 -6.48,-12.99 -1.38,-1.53 z" />
      <path
         id="path20"
         style=""
         d="m 146.11328,80.02 h 16.83 v 7.08 h -0.48 l -1.53,-1.38 h -3.57 v 16.47 l 1.41,1.53 v 0.48 h -8.49 v -0.48 l 1.38,-1.53 V 85.72 h -3.54 l -1.53,1.38 h -0.48 z" />
      <path
         id="path22"
         style=""
         d="m 167.14844,80.02 h 16.83 v 7.08 h -0.48 l -1.53,-1.38 h -7.74 v 4.02 h 6.75 l 1.02,-0.93 h 0.33 v 1.68 4.95 0.93 h -0.33 l -1.02,-0.93 h -6.75 v 3.06 h 7.74 l 1.53,-1.38 h 0.48 v 7.08 h -16.83 v -0.48 l 1.38,-1.53 V 82.03 l -1.38,-1.53 z" />
      <path
         id="path24"
         style=""
         d="m 186.83594,80.02 h 7.11 l 4.89,9.57 4.77,-9.57 h 7.11 v 0.48 l -1.38,1.53 v 20.16 l 1.38,1.53 v 0.48 h -7.08 V 92.74 l -4.74,9.48 -4.98,-9.72 v 11.7 h -7.08 v -0.48 l 1.38,-1.53 V 82.03 l -1.38,-1.53 z" />
      <path
         id="path26"
         style=""
         d="m 212.20703,80.02 12.84,-0.03 3.99,2.79 v 7.95 l -9.75,6.75 v 4.71 l 1.41,1.53 v 0.48 h -8.49 v -0.48 l 1.38,-1.53 V 82.03 l -1.38,-1.53 z m 7.08,5.7 v 4.83 l 4.05,-2.82 v -1.35 l -0.96,-0.66 z" />
      <path
         id="path28"
         style=""
         d="m 237.29078,79.99 h 6.63 l 3.99,2.79 v 18.66 l -3.99,2.76 h -6.63 l -3.99,-2.76 V 82.78 Z m 2.67,5.73 -0.96,0.66 v 11.46 l 0.96,0.66 h 1.29 l 0.96,-0.66 V 86.38 l -0.96,-0.66 z" />
      <path
         id="path30"
         style=""
         d="m 250.76172,80.02 12.84,-0.03 3.99,2.79 v 7.95 -0.03 0.03 l -1.95,1.35 1.95,1.35 v 8.76 l 1.38,1.53 v 0.48 h -7.08 v -7.77 l -1.29,-0.87 -2.76,1.92 v 6.72 h -7.08 v -0.48 l 1.38,-1.53 V 82.03 l -1.38,-1.53 z m 7.08,5.7 v 4.83 l 4.05,-2.82 v -1.35 l -0.96,-0.66 z" />
      <path
         id="path32"
         style=""
         d="m 277.37547,80.02 h 12.33 v 0.48 l -1.38,1.53 5.19,20.16 1.41,1.53 v 0.48 h -8.67 v -0.48 l 1.38,-1.53 -1.44,-5.61 -6.78,4.71 -0.27,0.9 1.41,1.53 v 0.48 h -8.7 v -0.48 l 1.38,-1.53 5.52,-20.16 -1.38,-1.53 z m 6.15,6.21 -1.77,6.48 2.91,-2.01 z" />
      <path
         id="path34"
         style=""
         d="m 296.58203,80.02 h 7.14 l 6.84,12.42 V 80.02 h 7.08 v 0.48 l -1.38,1.53 v 20.16 l 1.38,1.53 v 0.48 h -7.08 l -6.9,-12.45 v 12.45 h -7.08 v -0.48 l 1.38,-1.53 V 82.03 l -1.38,-1.53 z" />
      <path
         id="path36"
         style=""
         d="m 319.14062,80.02 h 16.83 v 7.08 h -0.47999 l -1.53001,-1.38 h -7.74 v 4.02 h 6.75 l 1.02001,-0.93 h 0.32999 v 1.68 4.95 0.93 h -0.32999 l -1.02001,-0.93 h -6.75 v 3.06 h 7.74 l 1.53001,-1.38 h 0.47999 v 7.08 h -16.83 v -0.48 l 1.38,-1.53 V 82.03 l -1.38,-1.53 z" />
      <path
         id="path38"
         style=""
         d="m 345.69578,80.02 h 12.33 v 0.48 l -1.38,1.53 5.19,20.16 1.41,1.53 v 0.48 h -8.67 v -0.48 l 1.38,-1.53 -1.44,-5.61 -6.78,4.71 -0.27,0.9 1.41,1.53 v 0.48 h -8.7 v -0.48 l 1.38,-1.53 5.52,-20.16 -1.38,-1.53 z m 6.15,6.21 -1.77,6.48 2.91,-2.01 z" />
    </g>
  </g>
</svg>
