<?xml version="1.0" encoding="UTF-8" standalone="no"?>
<svg
   xmlns:dc="http://purl.org/dc/elements/1.1/"
   xmlns:cc="http://creativecommons.org/ns#"
   xmlns:rdf="http://www.w3.org/1999/02/22-rdf-syntax-ns#"
   xmlns:svg="http://www.w3.org/2000/svg"
   xmlns="http://www.w3.org/2000/svg"
   id="svg16"
   width="800px"
   version="1.1"
   height="200px">
  <metadata
     id="metadata20">
    <rdf:RDF>
      <cc:Work
         rdf:about="">
        <dc:format>image/svg+xml</dc:format>
        <dc:type
           rdf:resource="http://purl.org/dc/dcmitype/StillImage" />
      </cc:Work>
    </rdf:RDF>
  </metadata>
  <defs
     id="defs4">
    <style
       id="style2"
       type="text/css"><![CDATA[    
     @font-face {font-family:Ankormati Demo;
     src: url('/Users/francesco/Repos/write-logos/src/fonts/Ankormati_Demo.ttf');}
     @font-face {font-family:Blue Cobra Bold Expanded Ital;
     src: url('/Users/francesco/Repos/write-logos/src/fonts/bluecobraboldexpandital.ttf');}
     ]]></style>
  </defs>
  <g
     id="g14"
     style="font-size:60px">
    <g
       style="text-anchor:middle"
       id="text12"
       aria-label="eXtemporanea">
      <path
         id="path22"
         style="font-family:'Ankormati Demo'"
         d="m 305.30031,100.3 q -2.4,0 -3.96,-0.54 -1.5,-0.6 -2.4,-1.68 -0.9,-1.08 -1.26,-2.7 -0.36,-1.62 -0.36,-3.72 V 73.78 q -0.06,-0.84 -0.3,-1.26 -0.18,-0.42 -0.48,-0.66 -0.3,-0.24 -0.72,-0.36 v -0.3 h 7.08 v 0.72 q 1.68,-0.84 3.6,-0.84 1.08,0 2.04,0.3 1.02,0.3 1.74,0.96 0.78,0.66 1.26,1.68 0.48,0.96 0.48,2.4 v 6.3 q 0,0.42 0,1.08 0,0.6 -0.06,1.02 -0.12,1.38 -0.84,2.28 -0.72,0.84 -1.74,1.44 -0.96,0.6 -2.04,1.08 -1.08,0.42 -1.98,0.96 -1.02,0.6 -1.5,1.5 -0.48,0.9 -0.6,1.92 v 0.42 q 0,0.48 0.06,1.02 0.12,0.48 0.3,0.96 0.24,0.48 0.6,0.78 0.36,0.3 0.84,0.3 0.84,0 1.2,-1.08 0.24,-0.72 0.24,-1.86 0,-1.02 -0.18,-1.92 -0.18,-0.9 -0.48,-1.32 h -0.06 l 0.18,-0.48 q 0.3,-0.12 0.6,-0.12 0.36,0 0.66,0 2.04,0 3.36,1.38 1.38,1.32 1.38,3.42 0,1.2 -0.6,2.1 -0.54,0.84 -1.5,1.5 -0.9,0.6 -2.1,0.9 -1.2,0.3 -2.46,0.3 z m -2.4,-13.74 q 0.48,-0.72 1.14,-1.14 0.72,-0.42 1.32,-0.66 0.66,-0.24 1.08,-0.3 0.42,-0.06 0.42,-0.18 v -9 q -1.08,0 -2.22,0.36 -1.14,0.36 -1.74,1.32 z" />
      <path
         id="path24"
         style="font-family:'Blue Cobra Bold Expanded Ital'"
         d="m 325.64969,69.28 3.42,-16.14 h -4.74 l -3.72,17.52 q 0,0.48 0.6,1.74 0.6,1.26 1.62,2.1 -1.38,0.84 -2.52,2.04 -1.08,1.14 -1.2,1.56 l -4.68,21.9 h 4.74 l 4.32,-20.34 q 0.12,-0.48 0.72,-1.08 0.6,-0.66 1.44,-1.2 0.54,0.54 0.84,1.2 0.36,0.6 0.24,1.08 l -4.32,20.34 h 4.8 l 4.68,-21.9 q -0.06,-0.18 -0.24,-0.6 -0.12,-0.48 -0.42,-1.02 -0.3,-0.54 -0.72,-1.08 -0.42,-0.54 -0.96,-0.96 0.72,-0.42 1.38,-0.96 0.66,-0.54 1.2,-1.08 0.54,-0.54 0.9,-1.02 0.42,-0.48 0.54,-0.72 l 3.72,-17.52 h -4.86 l -3.42,16.14 q -0.12,0.54 -0.78,1.2 -0.66,0.66 -1.5,1.26 -0.48,-0.54 -0.84,-1.2 -0.36,-0.66 -0.24,-1.26 z" />
      <path
         id="path26"
         style="font-family:'Ankormati Demo'"
         d="m 330.49,66.34 q 0.54,0 1.2,-0.36 0.72,-0.36 1.32,-0.9 0.6,-0.54 0.96,-1.2 0.36,-0.72 0.24,-1.38 -0.12,-0.42 -0.36,-0.48 -0.18,-0.12 -0.36,0 -0.18,0.12 -0.24,0.36 -0.06,0.24 0.18,0.48 l -0.18,0.06 q -0.42,-0.18 -0.6,-0.54 -0.12,-0.36 0,-0.72 0.12,-0.42 0.42,-0.78 0.3,-0.36 0.78,-0.48 0.6,-0.12 1.14,0.18 0.6,0.3 0.84,1.14 0.18,0.84 0.12,2.22 -0.06,1.38 -0.06,3.3 v 6.42 h 1.5 l -0.3,5.58 h -1.2 v 18.24 q 0,0.84 0.24,1.26 0.24,0.42 0.54,0.66 0.3,0.24 0.72,0.36 V 100 h -1.5 -2.82 -2.82 -1.5 v -0.24 q 0.42,-0.12 0.72,-0.36 0.3,-0.24 0.48,-0.66 0.24,-0.42 0.3,-1.26 V 79.24 h -1.5 l 0.3,-5.58 h 1.2 v -5.1 -1.44 -0.78 h 0.24 z" />
      <path
         id="path28"
         style="font-family:'Ankormati Demo'"
         d="m 347.72219,100.3 q -2.4,0 -3.96,-0.54 -1.5,-0.6 -2.4,-1.68 -0.9,-1.08 -1.26,-2.7 -0.36,-1.62 -0.36,-3.72 V 73.78 q -0.06,-0.84 -0.3,-1.26 -0.18,-0.42 -0.48,-0.66 -0.3,-0.24 -0.72,-0.36 v -0.3 h 7.08 v 0.72 q 1.68,-0.84 3.6,-0.84 1.08,0 2.04,0.3 1.02,0.3 1.74,0.96 0.78,0.66 1.26,1.68 0.48,0.96 0.48,2.4 v 6.3 q 0,0.42 0,1.08 0,0.6 -0.06,1.02 -0.12,1.38 -0.84,2.28 -0.72,0.84 -1.74,1.44 -0.96,0.6 -2.04,1.08 -1.08,0.42 -1.98,0.96 -1.02,0.6 -1.5,1.5 -0.48,0.9 -0.6,1.92 v 0.42 q 0,0.48 0.06,1.02 0.12,0.48 0.3,0.96 0.24,0.48 0.6,0.78 0.36,0.3 0.84,0.3 0.84,0 1.2,-1.08 0.24,-0.72 0.24,-1.86 0,-1.02 -0.18,-1.92 -0.18,-0.9 -0.48,-1.32 h -0.06 l 0.18,-0.48 q 0.3,-0.12 0.6,-0.12 0.36,0 0.66,0 2.04,0 3.36,1.38 1.38,1.32 1.38,3.42 0,1.2 -0.6,2.1 -0.54,0.84 -1.5,1.5 -0.9,0.6 -2.1,0.9 -1.2,0.3 -2.46,0.3 z m -2.4,-13.74 q 0.48,-0.72 1.14,-1.14 0.72,-0.42 1.32,-0.66 0.66,-0.24 1.08,-0.3 0.42,-0.06 0.42,-0.18 v -9 q -1.08,0 -2.22,0.36 -1.14,0.36 -1.74,1.32 z" />
      <path
         id="path30"
         style="font-family:'Ankormati Demo'"
         d="m 373.05156,100 h -8.64 v -0.3 q 0.42,-0.06 0.72,-0.3 0.3,-0.24 0.54,-0.66 0.24,-0.48 0.3,-1.32 V 77.8 q -0.12,-1.68 -0.6,-2.28 -0.42,-0.66 -1.02,-0.72 -0.84,0 -1.38,0.48 -0.54,0.48 -0.54,1.32 v 20.82 q 0.06,0.84 0.3,1.32 0.24,0.42 0.54,0.66 0.3,0.24 0.72,0.3 v 0.3 h -8.64 v -0.3 q 0.42,-0.06 0.72,-0.3 0.3,-0.24 0.48,-0.66 0.24,-0.48 0.3,-1.32 V 74.98 72.82 h 0.18 q 0.54,0 1.26,-0.36 0.72,-0.36 1.26,-0.9 0.6,-0.54 0.96,-1.2 0.36,-0.72 0.24,-1.38 -0.06,-0.42 -0.3,-0.48 -0.18,-0.12 -0.36,0 -0.18,0.06 -0.24,0.3 -0.06,0.24 0.12,0.48 l -0.12,0.12 q -0.48,-0.18 -0.6,-0.54 -0.12,-0.42 -0.06,-0.78 0.12,-0.42 0.42,-0.78 0.36,-0.36 0.84,-0.48 0.6,-0.12 1.14,0.24 0.54,0.3 0.78,1.14 0.18,0.72 0.12,1.8 0,1.08 0,2.52 0.96,-1.02 2.46,-1.38 1.56,-0.42 2.7,-0.18 1.2,0.24 1.98,1.02 0.78,0.72 1.26,1.8 0.3,-1.08 1.32,-1.8 1.02,-0.78 2.28,-0.96 1.26,-0.24 2.52,0.12 1.32,0.3 2.16,1.26 0.66,0.84 1.02,2.04 0.36,1.2 0.42,2.52 v 0.36 20.1 q 0.06,0.84 0.24,1.32 0.24,0.42 0.54,0.66 0.3,0.24 0.72,0.3 v 0.3 h -8.58 v -0.3 q 0.42,-0.06 0.72,-0.3 0.3,-0.24 0.48,-0.66 0.24,-0.48 0.3,-1.32 V 77.8 q -0.06,-1.68 -0.54,-2.28 -0.48,-0.66 -1.08,-0.72 -0.72,0 -1.26,0.42 -0.48,0.42 -0.6,1.08 v 0.84 q -0.06,5.1 -0.06,10.14 0.06,5.04 0.06,10.14 0,0.84 0.24,1.32 0.24,0.42 0.54,0.66 0.3,0.24 0.72,0.3 z" />
      <path
         id="path32"
         style="font-family:'Ankormati Demo'"
         d="m 390.95031,70.9 q 2.04,0.06 3.48,0.78 1.44,0.66 2.34,1.74 0.9,1.08 1.26,2.46 0.36,1.38 0.24,2.82 v 13.5 q 0.12,1.44 -0.24,2.82 -0.36,1.32 -1.26,2.46 -0.9,1.08 -2.34,1.8 -1.44,0.66 -3.48,0.72 -0.48,-0.06 -0.96,-0.06 -0.42,-0.06 -0.84,-0.18 v 8.22 q 0.06,0.84 0.3,1.26 0.24,0.48 0.54,0.72 0.3,0.24 0.72,0.3 v 0.3 h -8.64 v -0.3 q 0.42,-0.06 0.72,-0.3 0.3,-0.24 0.48,-0.72 0.24,-0.42 0.3,-1.26 V 73.06 q 0,-0.72 -0.24,-1.08 -0.24,-0.36 -0.54,-0.54 -0.3,-0.18 -0.72,-0.18 V 70.9 q 2.94,0.12 4.62,-0.12 1.74,-0.24 2.22,-1.38 h 0.24 v 1.68 q 0.78,-0.18 1.8,-0.18 z m 1.68,3.3 q -0.12,-1.5 -1.68,-1.68 -1.56,0.18 -1.74,1.68 v 22.5 q 0.12,0.66 0.48,1.14 0.42,0.42 1.26,0.48 0.84,-0.06 1.2,-0.48 0.42,-0.48 0.48,-1.14 z" />
      <path
         id="path34"
         style="font-family:'Ankormati Demo'"
         d="m 407.90594,100 q -1.92,-0.06 -3.3,-0.66 -1.38,-0.66 -2.28,-1.62 -0.9,-1.02 -1.32,-2.28 -0.42,-1.26 -0.42,-2.58 V 78.04 q 0,-1.32 0.42,-2.58 0.42,-1.26 1.32,-2.22 0.9,-1.02 2.28,-1.62 1.38,-0.66 3.3,-0.72 1.92,0.06 3.3,0.72 1.38,0.6 2.28,1.62 0.9,0.96 1.32,2.22 0.42,1.26 0.42,2.58 v 14.82 q 0,1.32 -0.42,2.58 -0.42,1.26 -1.32,2.28 -0.9,0.96 -2.28,1.62 -1.38,0.6 -3.3,0.66 z m 0,-1.68 q 0.84,-0.06 1.2,-0.48 0.42,-0.48 0.54,-1.14 V 74.2 q -0.18,-1.5 -1.74,-1.68 -1.56,0.18 -1.74,1.68 v 22.5 q 0.12,0.66 0.48,1.14 0.42,0.42 1.26,0.48 z" />
      <path
         id="path36"
         style="font-family:'Ankormati Demo'"
         d="m 424.68625,70.9 q 2.88,0 4.56,0.9 1.74,0.84 2.46,2.16 0.78,1.26 0.6,2.76 -0.12,1.5 -0.96,2.76 -0.84,1.2 -2.34,1.98 -1.44,0.72 -3.36,0.54 l -0.24,-0.36 q 0.3,-0.36 0.66,-0.9 0.36,-0.6 0.6,-1.32 0.3,-0.72 0.48,-1.56 0.18,-0.84 0.12,-1.68 -0.06,-1.5 -0.66,-2.1 -0.6,-0.6 -1.5,-0.6 -0.72,0.06 -1.08,0.6 -0.36,0.54 -0.54,1.32 v 22.02 q 0.06,0.84 0.3,1.32 0.24,0.42 0.54,0.66 0.3,0.24 0.72,0.3 v 0.3 h -8.64 v -0.3 q 0.42,-0.06 0.72,-0.3 0.3,-0.24 0.48,-0.66 0.24,-0.48 0.3,-1.32 V 73.48 q -0.06,-0.84 -0.3,-1.26 -0.18,-0.42 -0.48,-0.66 -0.3,-0.24 -0.72,-0.36 v -0.3 q 2.7,0.18 4.56,-0.12 1.92,-0.36 2.28,-1.32 h 0.24 v 1.5 q 0.3,-0.06 0.6,-0.06 0.3,0 0.6,0 z" />
      <path
         id="path38"
         style="font-family:'Ankormati Demo'"
         d="m 438.475,99.94 q -1.08,0 -2.16,-0.06 -1.02,-0.06 -1.8,-0.18 -0.48,0.12 -0.9,0.18 -0.42,0 -1.08,0 h -0.66 v -0.3 q 0.42,-0.12 0.72,-0.36 0.3,-0.24 0.54,-0.72 0.24,-0.48 0.24,-1.38 v -8.76 q 0,-0.42 0,-1.02 0,-0.66 0.06,-1.08 0.12,-1.38 0.84,-2.22 0.72,-0.9 1.68,-1.5 1.02,-0.6 2.1,-1.02 1.08,-0.42 1.98,-0.96 1.02,-0.6 1.5,-1.5 0.48,-0.96 0.6,-1.98 v -0.42 q 0,-0.9 -0.42,-1.98 -0.42,-1.08 -1.38,-1.08 -0.84,0 -1.2,1.08 -0.24,0.72 -0.24,1.92 0,0.96 0.18,1.86 0.18,0.9 0.48,1.38 h 0.06 l -0.18,0.42 q -0.66,0.18 -1.26,0.18 -2.04,0 -3.42,-1.38 -1.32,-1.38 -1.32,-3.48 0,-1.14 0.54,-2.04 0.6,-0.9 1.5,-1.5 0.96,-0.6 2.16,-0.9 1.2,-0.36 2.46,-0.36 2.34,0 3.9,0.6 1.56,0.54 2.46,1.62 0.9,1.08 1.26,2.7 0.36,1.62 0.36,3.72 V 97.3 q 0,0.84 0.24,1.32 0.24,0.42 0.54,0.66 0.3,0.24 0.72,0.3 v 0.3 h -7.08 v -0.72 q -0.54,0.48 -1.68,0.66 -1.08,0.12 -2.34,0.12 z m 0.06,-4.14 q 1.08,0 2.22,-0.36 1.14,-0.36 1.74,-1.32 v -9.6 q -0.48,0.72 -1.14,1.14 -0.66,0.42 -1.32,0.66 -0.6,0.24 -1.08,0.36 -0.42,0.06 -0.42,0.12 z" />
      <path
         id="path40"
         style="font-family:'Ankormati Demo'"
         d="m 459.56781,100 v -0.3 q 0.42,-0.06 0.72,-0.3 0.3,-0.24 0.54,-0.66 0.24,-0.48 0.3,-1.32 V 78.4 q 0,-1.92 -0.48,-2.7 -0.42,-0.84 -1.14,-0.9 -0.84,0 -1.38,0.48 -0.54,0.48 -0.54,1.32 v 20.82 q 0.06,0.84 0.3,1.32 0.24,0.42 0.54,0.66 0.3,0.24 0.72,0.3 v 0.3 h -8.64 v -0.3 q 0.42,-0.06 0.72,-0.3 0.3,-0.24 0.48,-0.66 0.24,-0.48 0.3,-1.32 v -24.6 q 0.54,0 1.2,-0.3 0.72,-0.3 1.32,-0.78 0.6,-0.48 1.02,-1.08 0.42,-0.66 0.42,-1.32 l -0.06,-0.36 q -0.06,-0.54 -0.42,-0.54 -0.48,0 -0.48,0.48 0,0.24 0.12,0.36 l -0.12,0.12 q -0.66,-0.24 -0.66,-1.02 0,-0.48 0.3,-0.96 0.36,-0.48 0.96,-0.6 l 0.36,-0.06 q 0.48,0 0.9,0.36 0.48,0.36 0.66,1.08 0.18,0.72 0.18,1.8 l -0.06,2.52 q 0.78,-0.84 1.98,-1.2 1.2,-0.42 2.22,-0.42 0.66,0 0.96,0.06 1.98,0.36 2.88,2.16 0.96,1.74 1.02,3.96 v 20.34 q 0,0.84 0.24,1.32 0.24,0.42 0.54,0.66 0.3,0.24 0.72,0.3 v 0.3 z" />
      <path
         id="path42"
         style="font-family:'Ankormati Demo'"
         d="m 477.9175,100.3 q -2.4,0 -3.96,-0.54 -1.5,-0.6 -2.4,-1.68 -0.9,-1.08 -1.26,-2.7 -0.36,-1.62 -0.36,-3.72 V 73.78 q -0.06,-0.84 -0.3,-1.26 -0.18,-0.42 -0.48,-0.66 -0.3,-0.24 -0.72,-0.36 v -0.3 h 7.08 v 0.72 q 1.68,-0.84 3.6,-0.84 1.08,0 2.04,0.3 1.02,0.3 1.74,0.96 0.78,0.66 1.26,1.68 0.48,0.96 0.48,2.4 v 6.3 q 0,0.42 0,1.08 0,0.6 -0.06,1.02 -0.12,1.38 -0.84,2.28 -0.72,0.84 -1.74,1.44 -0.96,0.6 -2.04,1.08 -1.08,0.42 -1.98,0.96 -1.02,0.6 -1.5,1.5 -0.48,0.9 -0.6,1.92 v 0.42 q 0,0.48 0.06,1.02 0.12,0.48 0.3,0.96 0.24,0.48 0.6,0.78 0.36,0.3 0.84,0.3 0.84,0 1.2,-1.08 0.24,-0.72 0.24,-1.86 0,-1.02 -0.18,-1.92 -0.18,-0.9 -0.48,-1.32 h -0.06 l 0.18,-0.48 q 0.3,-0.12 0.6,-0.12 0.36,0 0.66,0 2.04,0 3.36,1.38 1.38,1.32 1.38,3.42 0,1.2 -0.6,2.1 -0.54,0.84 -1.5,1.5 -0.9,0.6 -2.1,0.9 -1.2,0.3 -2.46,0.3 z m -2.4,-13.74 q 0.48,-0.72 1.14,-1.14 0.72,-0.42 1.32,-0.66 0.66,-0.24 1.08,-0.3 0.42,-0.06 0.42,-0.18 v -9 q -1.08,0 -2.22,0.36 -1.14,0.36 -1.74,1.32 z" />
      <path
         id="path44"
         style="font-family:'Ankormati Demo'"
         d="m 492.14688,99.94 q -1.08001,0 -2.16001,-0.06 -1.01999,-0.06 -1.8,-0.18 -0.47999,0.12 -0.9,0.18 -0.42,0 -1.07999,0 h -0.66001 v -0.3 q 0.42001,-0.12 0.72001,-0.36 0.29999,-0.24 0.53999,-0.72 0.24,-0.48 0.24,-1.38 v -8.76 q 0,-0.42 0,-1.02 0,-0.66 0.06,-1.08 0.12,-1.38 0.84,-2.22 0.72,-0.9 1.68,-1.5 1.02001,-0.6 2.1,-1.02 1.08,-0.42 1.98001,-0.96 1.01999,-0.6 1.5,-1.5 0.47999,-0.96 0.59999,-1.98 v -0.42 q 0,-0.9 -0.42,-1.98 -0.41999,-1.08 -1.38,-1.08 -0.84,0 -1.2,1.08 -0.24,0.72 -0.24,1.92 0,0.96 0.18,1.86 0.18,0.9 0.48,1.38 h 0.06 l -0.18,0.42 q -0.66,0.18 -1.26,0.18 -2.04,0 -3.42,-1.38 -1.32,-1.38 -1.32,-3.48 0,-1.14 0.54001,-2.04 0.59999,-0.9 1.5,-1.5 0.95999,-0.6 2.15999,-0.9 1.2,-0.36 2.46001,-0.36 2.33999,0 3.89999,0.6 1.56,0.54 2.46,1.62 0.90001,1.08 1.26,2.7 0.36,1.62 0.36,3.72 V 97.3 q 0,0.84 0.24,1.32 0.24,0.42 0.54001,0.66 0.29999,0.24 0.71999,0.3 v 0.3 h -7.08 v -0.72 q -0.54,0.48 -1.68,0.66 -1.07999,0.12 -2.33999,0.12 z m 0.06,-4.14 q 1.07999,0 2.21999,-0.36 1.14,-0.36 1.74,-1.32 v -9.6 q -0.48,0.72 -1.13999,1.14 -0.66001,0.42 -1.32,0.66 -0.60001,0.24 -1.08001,0.36 -0.41999,0.06 -0.41999,0.12 z" />
    </g>
  </g>
</svg>
