<?xml version="1.0" encoding="UTF-8" standalone="no"?>
<svg
   xmlns:dc="http://purl.org/dc/elements/1.1/"
   xmlns:cc="http://creativecommons.org/ns#"
   xmlns:rdf="http://www.w3.org/1999/02/22-rdf-syntax-ns#"
   xmlns:svg="http://www.w3.org/2000/svg"
   xmlns="http://www.w3.org/2000/svg"
   id="svg16"
   width="800px"
   version="1.1"
   height="200px">
  <metadata
     id="metadata20">
    <rdf:RDF>
      <cc:Work
         rdf:about="">
        <dc:format>image/svg+xml</dc:format>
        <dc:type
           rdf:resource="http://purl.org/dc/dcmitype/StillImage" />
      </cc:Work>
    </rdf:RDF>
  </metadata>
  <defs
     id="defs4">
    <style
       id="style2"
       type="text/css"><![CDATA[    
     @font-face {font-family:Apples Script Demo;
     src: url('/Users/francesco/Repos/write-logos/src/fonts/Apples_Script_Demo.ttf');}
     @font-face {font-family:Nevrada Neue;
     src: url('/Users/francesco/Repos/write-logos/src/fonts/Nevrada_Neue.ttf');}
     ]]></style>
  </defs>
  <g
     id="g14"
     style="font-size:60px">
    <g
       style="text-anchor:middle"
       id="text12"
       aria-label="eXtemporanea">
      <path
         id="path22"
         style="font-family:'Apples Script Demo'"
         d="m 239.72969,83.38 q 0.3,0.12 0.18,0.42 -0.84,1.92 -2.94,4.86 -2.1,2.88 -5.04,5.58 -1.32,1.2 -3,2.46 -1.68,1.2 -3.6,2.04 -2.94,1.32 -5.94,1.32 -1.8,-0.06 -3.18,-0.6 -1.32,-0.6 -2.22,-2.34 -1.08,-2.04 -0.96,-5.34 0.12,-2.04 0.72,-4.08 0.6,-2.04 1.62,-3.72 1.02,-1.68 2.4,-2.7 1.44,-1.08 3.12,-1.14 2.16,-0.12 3.72,1.2 1.38,1.2 1.5,3.36 0.06,1.08 -0.42,2.1 -0.48,0.96 -1.32,1.62 -2.04,1.56 -5.04,0.72 -0.3,-0.12 -0.18,-0.36 0.06,-0.24 0.36,-0.24 2.7,0.84 4.5,-0.6 0.72,-0.6 1.14,-1.44 0.42,-0.84 0.36,-1.8 -0.06,-1.32 -0.66,-2.22 -0.6,-0.9 -1.44,-0.84 -1.02,0.12 -2.1,1.26 -1.08,1.14 -1.74,2.46 -0.72,1.5 -1.2,3.18 -0.42,1.68 -0.48,3.42 -0.18,4.68 1.56,6.3 1.8,1.62 5.58,-0.12 1.92,-0.84 3.54,-1.98 1.62,-1.2 2.94,-2.4 2.88,-2.64 4.92,-5.46 2.04,-2.88 2.88,-4.74 0.12,-0.3 0.42,-0.18 z" />
      <path
         id="path24"
         style="font-family:'Nevrada Neue'"
         d="m 239.75875,64 h 14.28 q 0.6,0.12 0.72,0.42 -0.12,0.36 -0.54,0.48 -2.94,0.9 0.42,6.78 l 4.5,7.26 6,-9 q 2.76,-4.08 0.78,-4.86 -0.42,-0.18 -0.9,-0.18 -0.36,-0.12 -0.42,-0.42 0.12,-0.42 0.42,-0.48 h 7.44 q 0.48,0.12 0.48,0.42 -0.06,0.42 -0.48,0.48 -2.82,0.12 -5.94,4.62 l -6.9,10.26 q 6.9,11.22 8.22,13.38 2.7,4.62 3.72,5.46 0.48,0.36 0.9,0.48 0.48,0.24 0.48,0.42 -0.06,0.42 -0.48,0.48 h -14.34 q -0.6,-0.12 -0.66,-0.42 0.12,-0.36 0.54,-0.48 3,-0.78 -0.42,-6.72 l -4.5,-7.32 -6,9 q -2.76,4.08 -0.84,4.86 0.42,0.18 0.9,0.18 0.42,0.12 0.48,0.42 -0.12,0.42 -0.48,0.48 h -7.44 q -0.42,-0.12 -0.48,-0.48 0.12,-0.36 0.48,-0.42 2.88,-0.12 6,-4.62 l 6.84,-10.26 -8.28,-13.5 q -2.76,-4.38 -3.06,-4.74 -0.78,-0.9 -1.44,-1.08 -0.48,-0.24 -0.54,-0.42 0.12,-0.42 0.54,-0.48 z" />
      <path
         id="path26"
         style="font-family:'Apples Script Demo'"
         d="m 300.76656,83.38 q 0.24,0.12 0.12,0.42 -0.6,1.2 -1.32,2.52 -0.66,1.14 -1.5,2.58 -0.78,1.44 -1.8,2.94 -1.2,1.74 -2.4,3.12 -1.14,1.38 -2.28,2.4 -2.82,2.64 -5.34,2.64 h -0.06 q -3,0 -5.4,-1.86 -2.1,-1.68 -3.66,-4.86 -1.32,-2.82 -2.04,-6.6 -0.72,-3.78 -0.78,-8.16 0,-5.04 0.84,-9.96 -2.7,0.6 -5.1,0.96 -2.46,0.3 -4.44,0.3 h -0.06 q -1.44,-0.06 -2.58,-0.3 -1.14,-0.24 -1.98,-0.78 -0.84,-0.54 -1.26,-1.26 -0.18,-0.36 -0.36,-0.84 -0.18,-0.54 -0.12,-1.02 0,-0.48 0.24,-0.78 0.24,-0.36 0.84,-0.36 0.48,0 0.84,0.36 0.3,0.3 0.3,0.78 0,0.48 -0.3,0.78 -0.36,0.3 -0.84,0.3 -0.24,0 -0.3,-0.06 0.24,0.84 0.9,1.32 0.66,0.48 1.44,0.78 0.78,0.24 1.62,0.36 0.84,0.12 1.56,0.12 h 0.06 q 1.98,0 4.44,-0.36 2.46,-0.36 5.22,-0.96 0.54,-3 1.44,-5.46 1.26,-3.48 2.88,-5.46 1.8,-2.16 3.96,-2.16 3.12,-0.12 4.26,2.7 0.48,1.32 0.48,3.18 0.06,1.86 -0.42,4.14 2.64,-0.66 5.28,-1.26 2.64,-0.66 5.1,-1.14 2.52,-0.48 4.74,-0.78 2.22,-0.3 4.02,-0.3 h 0.06 q 3.54,0 5.28,1.74 0.36,0.36 0.66,1.02 0.36,0.6 0.42,1.2 0.06,0.48 -0.24,0.9 -0.3,0.36 -0.9,0.36 -0.48,0 -0.78,-0.3 -0.3,-0.3 -0.3,-0.78 0,-0.48 0.3,-0.78 0.3,-0.36 0.78,-0.36 h 0.24 q -0.12,-0.24 -0.3,-0.42 -0.12,-0.24 -0.3,-0.42 -1.56,-1.56 -4.86,-1.56 -1.8,0 -4.02,0.3 -2.22,0.3 -4.74,0.84 -2.46,0.48 -5.16,1.14 -2.7,0.6 -5.4,1.26 -0.24,0.96 -0.54,1.98 -0.3,0.96 -0.66,1.98 -1.38,3.6 -3.24,6.72 -1.86,3.06 -3.9,4.98 -0.06,0.06 -0.18,0.06 0.36,6 2.1,10.5 0.78,1.98 1.8,3.6 1.02,1.62 2.28,2.46 1.26,0.84 2.7,0.78 1.44,-0.12 3.06,-1.56 1.86,-1.62 3.48,-3.9 1.68,-2.34 2.94,-4.44 1.26,-2.1 1.98,-3.54 0.78,-1.5 0.78,-1.56 0.12,-0.3 0.42,-0.18 z m -14.4,-17.52 q -1.56,0.42 -3.12,0.84 -1.5,0.36 -3.06,0.72 -0.54,2.64 -0.84,5.46 -0.24,2.76 -0.24,5.64 0.06,0.48 0.06,1.02 0,0.48 0,0.96 1.92,-1.86 3.72,-4.8 1.86,-3 3.12,-6.42 0.3,-0.9 0.6,-1.8 0.3,-0.96 0.48,-1.8 z m 0.9,-8.1 q -0.84,-1.86 -1.68,-1.5 -0.78,0.3 -1.8,1.74 -1.62,2.28 -2.82,6.3 -0.18,0.6 -0.36,1.2 -0.18,0.6 -0.3,1.26 1.5,-0.36 2.94,-0.72 1.5,-0.36 3,-0.78 l 1.02,-0.24 0.36,-2.22 q 0.36,-3.12 -0.36,-5.04 z" />
      <path
         id="path28"
         style="font-family:'Apples Script Demo'"
         d="m 324.45625,83.38 q 0.3,0.12 0.18,0.42 -0.84,1.92 -2.94,4.86 -2.1,2.88 -5.04,5.58 -1.32,1.2 -3,2.46 -1.68,1.2 -3.6,2.04 -2.94,1.32 -5.94,1.32 -1.8,-0.06 -3.18,-0.6 -1.32,-0.6 -2.22,-2.34 -1.08,-2.04 -0.96,-5.34 0.12,-2.04 0.72,-4.08 0.6,-2.04 1.62,-3.72 1.02,-1.68 2.4,-2.7 1.44,-1.08 3.12,-1.14 2.16,-0.12 3.72,1.2 1.38,1.2 1.5,3.36 0.06,1.08 -0.42,2.1 -0.48,0.96 -1.32,1.62 -2.04,1.56 -5.04,0.72 -0.3,-0.12 -0.18,-0.36 0.06,-0.24 0.36,-0.24 2.7,0.84 4.5,-0.6 0.72,-0.6 1.14,-1.44 0.42,-0.84 0.36,-1.8 -0.06,-1.32 -0.66,-2.22 -0.6,-0.9 -1.44,-0.84 -1.02,0.12 -2.1,1.26 -1.08,1.14 -1.74,2.46 -0.72,1.5 -1.2,3.18 -0.42,1.68 -0.48,3.42 -0.18,4.68 1.56,6.3 1.8,1.62 5.58,-0.12 1.92,-0.84 3.54,-1.98 1.62,-1.2 2.94,-2.4 2.88,-2.64 4.92,-5.46 2.04,-2.88 2.88,-4.74 0.12,-0.3 0.42,-0.18 z" />
      <path
         id="path30"
         style="font-family:'Apples Script Demo'"
         d="m 350.34531,80.14 q 1.2,0.18 1.92,1.02 0.78,0.84 1.14,2.1 0.42,1.2 0.6,2.76 0.24,1.5 0.3,3.12 0.12,1.62 0.24,3.24 0.18,1.62 0.48,2.94 0.6,2.46 1.56,3.06 0.96,0.6 2.88,-1.02 1.98,-1.62 3.78,-3.96 1.86,-2.34 3.24,-4.5 1.44,-2.16 2.28,-3.72 0.9,-1.62 0.9,-1.68 0.12,-0.24 0.42,-0.12 0.24,0.12 0.12,0.42 0,0 -0.42,0.78 -0.36,0.78 -1.08,1.98 -0.72,1.2 -1.74,2.76 -0.96,1.5 -2.1,3 -1.38,1.86 -2.7,3.3 -1.32,1.38 -2.52,2.34 -1.26,0.96 -2.76,1.62 -1.44,0.6 -3.06,0.3 -1.44,-0.3 -2.28,-1.26 -0.78,-1.02 -1.2,-2.46 -0.42,-1.44 -0.54,-3.12 -0.12,-1.68 -0.24,-3.36 -0.06,-1.68 -0.24,-3.18 -0.12,-1.5 -0.54,-2.58 -0.42,-1.08 -0.9,-1.44 -0.42,-0.36 -0.84,-0.24 -0.42,0.12 -0.84,0.66 -0.42,0.48 -0.78,1.2 -0.78,1.44 -1.44,3.3 -0.6,1.8 -1.08,3.66 -0.42,1.86 -0.78,3.54 -0.3,1.68 -0.48,2.94 l -0.24,2.16 v 0.06 q 0,0.18 -0.12,0.18 -0.06,0.06 -0.12,0.06 h -0.06 -4.2 q -0.18,0 -0.18,-0.12 -0.12,-0.12 -0.12,-0.24 0.3,-1.92 0.42,-4.62 0.18,-2.76 0,-5.46 -0.12,-1.74 -0.36,-3.12 -0.24,-1.38 -0.6,-2.4 -0.48,-1.26 -0.96,-1.62 -0.42,-0.42 -0.9,-0.18 -0.42,0.24 -0.9,1.02 -0.48,0.78 -1.02,1.86 -0.96,2.1 -1.62,4.62 -0.66,2.52 -1.08,4.74 -0.42,2.16 -0.6,3.66 -0.18,1.5 -0.18,1.56 0,0.3 -0.3,0.3 h -4.2 q -0.3,0 -0.3,-0.3 V 83.68 q 0,-0.3 0.3,-0.3 h 4.2 q 0.3,0 0.3,0.3 v 11.58 q 0.3,-1.74 0.72,-3.54 2.04,-8.58 5.1,-10.8 1.5,-1.14 3.12,-0.78 3.42,0.72 4.02,8.28 0.12,1.02 0.12,2.1 0,1.08 0,2.16 l 0.24,-0.96 q 2.04,-8.58 5.1,-10.8 1.44,-1.08 3.12,-0.78 z" />
      <path
         id="path32"
         style="font-family:'Apples Script Demo'"
         d="m 407.45125,83.44 q 0.24,0.06 0.12,0.36 -2.04,3 -4.74,5.82 -2.7,2.82 -5.76,4.98 -4.26,3.12 -8.4,4.44 -0.72,0.24 -1.62,0.48 -0.9,0.24 -1.92,0.42 -0.96,0.12 -1.98,0.12 -1.02,0.06 -1.92,-0.18 -1.08,-0.3 -1.92,-0.96 -0.78,-0.72 -1.14,-1.98 -0.3,-1.02 -0.24,-1.98 0.12,-1.02 0.6,-1.8 0.3,-0.48 0.9,-0.96 0.66,-0.48 1.32,-0.48 0.48,0 0.78,0.3 0.3,0.3 0.3,0.78 0,0.48 -0.3,0.84 -0.3,0.3 -0.78,0.3 -0.48,0 -0.84,-0.3 -0.3,-0.36 -0.3,-0.84 l -0.54,0.66 q -0.48,0.66 -0.6,1.56 -0.06,0.9 0.24,1.74 0.48,1.44 1.68,1.74 1.2,0.3 2.76,-1.44 1.74,-1.86 2.82,-4.5 1.08,-2.64 1.26,-5.04 0.36,-4.38 -1.86,-5.94 -0.6,-0.42 -1.5,-0.06 -0.84,0.3 -1.74,0.96 -0.84,0.6 -1.56,1.32 -0.72,0.72 -1.08,1.08 -1.2,1.32 -2.22,2.82 -0.96,1.44 -1.56,2.76 0.48,2.7 0.9,5.7 0.48,2.94 0.78,5.94 0.66,5.7 0.36,9.6 -0.36,4.62 -1.92,6.66 -0.78,0.96 -1.8,1.26 -1.02,0.3 -2.1,0.12 -1.08,-0.18 -2.1,-0.84 -0.96,-0.6 -1.56,-1.56 -1.08,-1.74 -1.38,-4.44 -0.36,-2.7 0.12,-5.94 0.42,-3.18 1.56,-6.72 1.08,-3.48 2.88,-6.84 -0.48,-2.88 -1.02,-5.4 -0.48,-2.52 -0.84,-4.26 0,-0.18 0.06,-0.3 0.06,-0.06 0.24,-0.06 h 4.2 q 0.3,0 0.3,0.24 0.24,1.14 0.54,2.64 0.3,1.5 0.6,3.24 0.6,-1.14 1.5,-2.46 0.9,-1.32 2.04,-2.52 1.14,-1.26 2.46,-2.28 1.32,-1.02 2.76,-1.68 1.68,-0.72 3.12,-0.42 1.5,0.24 2.52,0.96 1.86,1.38 2.16,4.62 0.12,1.38 -0.18,3.06 -0.3,1.62 -0.9,3.24 -1.32,3.54 -3.6,5.76 -0.42,0.48 -0.9,0.84 -0.42,0.3 -0.9,0.6 3.18,-0.54 6.24,-2.1 3.12,-1.62 5.88,-3.78 2.82,-2.16 5.22,-4.68 2.4,-2.58 4.14,-5.16 0.12,-0.3 0.36,-0.06 z m -38.64,33.54 q 0.72,1.2 1.38,1.08 0.72,-0.06 1.2,-0.84 0.54,-0.78 0.9,-1.98 0.36,-1.14 0.48,-2.04 0.3,-1.92 0.24,-4.32 0,-2.4 -0.24,-5.46 -0.24,-2.28 -0.54,-4.56 -0.3,-2.28 -0.66,-4.5 -1.56,3.12 -2.58,6.36 -1.02,3.24 -1.44,6.3 -0.42,3.24 -0.06,5.82 0.3,2.58 1.32,4.14 z" />
      <path
         id="path34"
         style="font-family:'Apples Script Demo'"
         d="m 436.49969,83.44 q 0.3,0.18 0.06,0.42 -3.06,3.6 -7.14,6.12 -4.26,2.52 -7.98,2.94 -0.54,1.68 -1.5,3.12 -0.9,1.38 -2.22,2.34 -1.02,0.72 -2.28,1.14 -1.26,0.42 -2.58,0.48 -1.26,0.06 -2.52,-0.3 -1.26,-0.42 -2.34,-1.26 -1.62,-1.32 -2.4,-3.84 -0.48,-1.56 -0.54,-3.3 -0.06,-1.8 0.24,-3.36 0.24,-1.62 0.78,-2.82 0.48,-1.26 1.2,-1.74 h 4.2 l 0.12,-0.24 q 0.66,-1.5 1.86,-2.28 1.26,-0.9 2.88,-0.72 2.94,0.3 4.5,3 1.44,2.46 1.26,6 -0.06,0.84 -0.18,1.62 -0.12,0.72 -0.3,1.5 2.04,-0.24 4.08,-1.08 2.04,-0.9 3.9,-2.1 1.92,-1.2 3.54,-2.64 1.68,-1.5 2.94,-3 0.18,-0.18 0.42,0 z m -15,5.7 q 0.06,-1.26 -0.18,-2.76 -0.24,-1.5 -0.9,-2.76 -0.66,-1.26 -1.8,-2.1 -1.08,-0.84 -2.7,-0.84 -1.2,0 -2.22,0.72 -1.02,0.72 -1.56,1.98 -0.3,0.66 -0.42,1.5 -0.12,0.78 0,1.68 0.18,0.84 0.66,1.8 0.54,0.9 1.44,1.68 2.82,2.64 7.02,2.28 h 0.12 q 0.42,-1.5 0.54,-3.18 z m -11.46,3.9 q 0.18,1.14 0.78,2.52 0.6,1.32 1.56,2.22 0.96,0.9 2.22,1.08 1.32,0.18 2.82,-1.02 1.2,-0.9 2.04,-2.16 0.84,-1.26 1.32,-2.7 -4.44,0.18 -7.38,-2.46 -1.74,-1.56 -2.22,-3.72 -0.18,-0.9 -0.06,-2.1 -0.3,0.48 -0.54,1.14 -0.24,0.66 -0.42,1.5 -0.3,1.38 -0.36,2.88 -0.06,1.5 0.24,2.82 z" />
      <path
         id="path36"
         style="font-family:'Apples Script Demo'"
         d="m 447.745,99.88 q -3.36,-0.72 -4.02,-6.6 -0.3,-2.28 -0.18,-4.8 0.18,-2.52 0.48,-4.44 -2.28,0.36 -4.14,0.48 -1.8,0.06 -3.36,-0.3 -1.56,-0.36 -2.88,-1.32 -1.38,-0.96 -2.64,-2.76 -0.96,-1.44 -1.44,-3.12 -0.54,-1.74 -0.42,-3.48 0.12,-2.28 1.14,-3.66 0.96,-1.44 2.52,-1.56 1.98,-0.18 3.36,1.68 1.56,2.16 1.68,5.94 0.06,1.44 -0.18,2.94 -0.18,1.44 -0.6,2.88 1.8,1.62 4.44,1.8 1.02,0.12 1.8,0 0.78,-0.18 1.08,-0.18 h 4.2 q 0.18,0 0.24,0.06 0.06,0.06 0.06,0.24 -0.24,1.74 -0.42,4.08 -0.18,2.34 0,4.62 0.12,1.68 0.42,3.06 0.3,1.38 0.84,2.22 0.54,0.78 1.38,0.84 0.84,0 2.1,-1.02 1.98,-1.56 3.84,-3.9 1.86,-2.4 3.3,-4.56 1.44,-2.22 2.34,-3.84 0.9,-1.62 0.9,-1.68 0.12,-0.24 0.42,-0.12 0.24,0.12 0.12,0.42 0,0 -0.42,0.78 -0.36,0.78 -1.08,1.98 -0.72,1.2 -1.74,2.76 -0.96,1.5 -2.1,3 -1.38,1.86 -2.7,3.3 -1.32,1.38 -2.52,2.34 -1.38,1.02 -2.82,1.62 -1.44,0.6 -3,0.3 z m -11.52,-28.62 q -0.66,-1.26 -1.14,-0.84 -0.54,0.36 -0.78,1.56 -0.3,1.14 -0.3,2.64 0,1.5 0.36,2.52 0.24,0.72 0.72,1.86 0.48,1.08 1.5,2.22 0.84,-3.6 0.54,-6.18 -0.24,-2.58 -0.9,-3.78 z" />
      <path
         id="path38"
         style="font-family:'Apples Script Demo'"
         d="m 462.01844,97.48 q -1.14,-2.04 -1.02,-5.1 0,-2.1 0.6,-4.2 0.54,-2.1 1.56,-3.84 2.34,-4.08 5.7,-4.2 1.08,0 2.04,0.3 0.96,0.24 1.68,0.9 1.32,1.26 1.44,3.36 0.06,0.84 -0.24,1.68 -0.24,0.84 -0.78,1.5 -0.48,0.54 -1.14,0.96 -0.66,0.42 -1.44,0.42 -0.48,0 -0.84,-0.3 -0.3,-0.36 -0.3,-0.84 0,-0.48 0.3,-0.78 0.36,-0.3 0.84,-0.3 0.48,0 0.78,0.3 0.3,0.3 0.3,0.78 0,0.18 -0.06,0.3 1.02,-0.48 1.5,-1.56 0.54,-1.08 0.48,-2.16 -0.06,-0.96 -0.54,-1.92 -0.42,-0.96 -1.44,-1.2 -0.66,-0.18 -1.26,0.24 -0.6,0.36 -1.14,1.02 -0.54,0.6 -0.96,1.32 -0.36,0.72 -0.54,1.14 -1.56,2.94 -1.74,6.48 -0.18,3 0.54,4.74 0.78,1.68 1.98,1.98 1.2,0.3 2.64,-0.72 1.5,-1.08 2.88,-3.54 0.6,-1.02 0.96,-2.04 0.42,-1.02 0.66,-1.8 0.24,-0.84 0.36,-1.32 0.12,-0.54 0.12,-0.54 0,-0.12 0.06,-0.12 V 88.3 q 0,-0.3 0.3,-0.3 h 4.2 q 0.06,0 0.18,0.12 0.12,0.12 0.12,0.18 -0.12,2.28 0,4.5 0.18,2.22 0.66,3.72 0.54,1.44 1.5,1.86 1.02,0.42 2.58,-0.9 1.98,-1.56 3.84,-3.9 1.86,-2.4 3.3,-4.56 1.44,-2.22 2.34,-3.84 0.9,-1.62 0.9,-1.68 0.12,-0.24 0.42,-0.12 0.24,0.12 0.12,0.42 0,0 -0.42,0.78 -0.36,0.78 -1.08,1.98 -0.72,1.2 -1.74,2.76 -0.96,1.5 -2.1,3 -1.38,1.86 -2.7,3.3 -1.32,1.38 -2.52,2.34 -2.7,2.04 -4.86,2.04 -0.36,0 -0.96,-0.12 -2.58,-0.54 -3.6,-4.26 -0.54,-1.86 -0.54,-4.8 -0.3,0.84 -0.66,1.8 -0.36,0.9 -0.9,1.92 -1.44,2.58 -3.3,3.96 -1.08,0.72 -2.4,1.14 -1.26,0.42 -2.52,0.36 -1.26,-0.12 -2.4,-0.66 -1.08,-0.6 -1.74,-1.86 z" />
      <path
         id="path40"
         style="font-family:'Apples Script Demo'"
         d="m 509.425,80.14 q 1.2,0.18 1.92,1.02 0.78,0.84 1.14,2.1 0.42,1.2 0.6,2.76 0.24,1.5 0.3,3.12 0.12,1.62 0.24,3.24 0.18,1.62 0.48,2.94 0.6,2.46 1.56,3.06 0.96,0.6 2.88,-1.02 1.98,-1.62 3.78,-3.96 1.86,-2.34 3.24,-4.5 1.44,-2.16 2.28,-3.72 0.9,-1.62 0.9,-1.68 0.12,-0.24 0.42,-0.12 0.24,0.12 0.12,0.42 0,0 -0.42,0.78 -0.36,0.78 -1.08,1.98 -0.72,1.2 -1.74,2.76 -0.96,1.5 -2.1,3 -1.38,1.86 -2.7,3.3 -1.32,1.38 -2.52,2.34 -1.26,0.96 -2.76,1.62 -1.44,0.6 -3.06,0.3 -1.44,-0.3 -2.28,-1.26 -0.78,-1.02 -1.2,-2.46 -0.42,-1.44 -0.54,-3.12 -0.12,-1.68 -0.24,-3.36 -0.06,-1.68 -0.24,-3.18 -0.12,-1.5 -0.54,-2.58 -0.42,-1.08 -0.9,-1.44 -0.42,-0.36 -0.84,-0.24 -0.42,0.12 -0.84,0.66 -0.42,0.48 -0.78,1.2 -1.08,2.04 -1.86,4.74 -0.78,2.64 -1.26,5.04 -0.48,2.4 -0.72,4.08 -0.18,1.68 -0.18,1.74 0,0.3 -0.24,0.3 h -0.06 -4.2 q -0.3,0 -0.3,-0.3 V 83.68 q 0,-0.3 0.3,-0.3 h 4.2 q 0.3,0 0.3,0.3 v 11.58 q 0.3,-1.74 0.72,-3.54 2.04,-8.58 5.1,-10.8 1.44,-1.08 3.12,-0.78 z" />
      <path
         id="path42"
         style="font-family:'Apples Script Demo'"
         d="m 552.85469,83.38 q 0.3,0.12 0.18,0.42 -0.84,1.92 -2.94,4.86 -2.1,2.88 -5.04,5.58 -1.32,1.2 -3,2.46 -1.68,1.2 -3.6,2.04 -2.94,1.32 -5.94,1.32 -1.8,-0.06 -3.18,-0.6 -1.32,-0.6 -2.22,-2.34 -1.08,-2.04 -0.96,-5.34 0.12,-2.04 0.72,-4.08 0.6,-2.04 1.62,-3.72 1.02,-1.68 2.4,-2.7 1.44,-1.08 3.12,-1.14 2.16,-0.12 3.72,1.2 1.38,1.2 1.5,3.36 0.06,1.08 -0.42,2.1 -0.48,0.96 -1.32,1.62 -2.04,1.56 -5.04,0.72 -0.3,-0.12 -0.18,-0.36 0.06,-0.24 0.36,-0.24 2.7,0.84 4.5,-0.6 0.72,-0.6 1.14,-1.44 0.42,-0.84 0.36,-1.8 -0.06,-1.32 -0.66,-2.22 -0.6,-0.9 -1.44,-0.84 -1.02,0.12 -2.1,1.26 -1.08,1.14 -1.74,2.46 -0.72,1.5 -1.2,3.18 -0.42,1.68 -0.48,3.42 -0.18,4.68 1.56,6.3 1.8,1.62 5.58,-0.12 1.92,-0.84 3.54,-1.98 1.62,-1.2 2.94,-2.4 2.88,-2.64 4.92,-5.46 2.04,-2.88 2.88,-4.74 0.12,-0.3 0.42,-0.18 z" />
      <path
         id="path44"
         style="font-family:'Apples Script Demo'"
         d="m 550.96375,97.48 q -1.14,-2.04 -1.02,-5.1 0,-2.1 0.6,-4.2 0.54,-2.1 1.56,-3.84 2.34,-4.08 5.7,-4.2 1.08,0 2.04,0.3 0.96,0.24 1.68,0.9 1.32,1.26 1.44,3.36 0.06,0.84 -0.24,1.68 -0.24,0.84 -0.78,1.5 -0.48,0.54 -1.14,0.96 -0.66,0.42 -1.44,0.42 -0.48,0 -0.84,-0.3 -0.3,-0.36 -0.3,-0.84 0,-0.48 0.3,-0.78 0.36,-0.3 0.84,-0.3 0.48,0 0.78,0.3 0.3,0.3 0.3,0.78 0,0.18 -0.06,0.3 1.02,-0.48 1.5,-1.56 0.54,-1.08 0.48,-2.16 -0.06,-0.96 -0.54,-1.92 -0.42,-0.96 -1.44,-1.2 -0.66,-0.18 -1.26,0.24 -0.6,0.36 -1.14,1.02 -0.54,0.6 -0.96,1.32 -0.36,0.72 -0.54,1.14 -1.56,2.94 -1.74,6.48 -0.18,3 0.54,4.74 0.78,1.68 1.98,1.98 1.2,0.3 2.64,-0.72 1.5,-1.08 2.88,-3.54 0.6,-1.02 0.96,-2.04 0.42,-1.02 0.66,-1.8 0.24,-0.84 0.36,-1.32 0.12,-0.54 0.12,-0.54 0,-0.12 0.06,-0.12 V 88.3 q 0,-0.3 0.3,-0.3 h 4.2 q 0.06,0 0.18,0.12 0.12,0.12 0.12,0.18 -0.12,2.28 0,4.5 0.18,2.22 0.66,3.72 0.54,1.44 1.5,1.86 1.02,0.42 2.58,-0.9 1.98,-1.56 3.84,-3.9 1.86,-2.4 3.3,-4.56 1.44,-2.22 2.34,-3.84 0.9,-1.62 0.9,-1.68 0.12,-0.24 0.42,-0.12 0.24,0.12 0.12,0.42 0,0 -0.42,0.78 -0.36,0.78 -1.08,1.98 -0.72,1.2 -1.74,2.76 -0.96,1.5 -2.1,3 -1.38,1.86 -2.7,3.3 -1.32,1.38 -2.52,2.34 -2.7,2.04 -4.86,2.04 -0.36,0 -0.96,-0.12 -2.58,-0.54 -3.6,-4.26 -0.54,-1.86 -0.54,-4.8 -0.3,0.84 -0.66,1.8 -0.36,0.9 -0.9,1.92 -1.44,2.58 -3.3,3.96 -1.08,0.72 -2.4,1.14 -1.26,0.42 -2.52,0.36 -1.26,-0.12 -2.4,-0.66 -1.08,-0.6 -1.74,-1.86 z" />
    </g>
  </g>
</svg>
