<?xml version="1.0" encoding="UTF-8" standalone="no"?>
<svg
   xmlns:dc="http://purl.org/dc/elements/1.1/"
   xmlns:cc="http://creativecommons.org/ns#"
   xmlns:rdf="http://www.w3.org/1999/02/22-rdf-syntax-ns#"
   xmlns:svg="http://www.w3.org/2000/svg"
   xmlns="http://www.w3.org/2000/svg"
   id="svg16"
   width="800px"
   version="1.1"
   height="200px">
  <metadata
     id="metadata20">
    <rdf:RDF>
      <cc:Work
         rdf:about="">
        <dc:format>image/svg+xml</dc:format>
        <dc:type
           rdf:resource="http://purl.org/dc/dcmitype/StillImage" />
      </cc:Work>
    </rdf:RDF>
  </metadata>
  <defs
     id="defs4">
    <style
       id="style2"
       type="text/css"><![CDATA[    
     @font-face {font-family:Aquate Script PERSONAL USE ONLY;
     src: url('/Users/francesco/Repos/write-logos/src/fonts/AquateScript_PERSONAL_USE_ONLY.ttf');}
     @font-face {font-family:Unboxing Filled;
     src: url('/Users/francesco/Repos/write-logos/src/fonts/UnboxingFilled.ttf');}
     ]]></style>
  </defs>
  <g
     id="g14"
     style="font-size:60px">
    <g
       style="text-anchor:middle"
       id="text12"
       aria-label="eXtemporanea">
      <path
         id="path22"
         style="font-family:'Aquate Script PERSONAL USE ONLY'"
         d="m 261.18953,75.46 q 0.06,1.62 -0.66,3.84 -0.66,2.16 -1.86,4.26 -1.2,2.1 -2.7,3.78 -1.5,1.68 -3.06,2.28 -0.78,0.36 -1.62,0.24 -0.78,-0.18 -1.56,-0.54 -0.78,-0.42 -1.5,-0.9 -0.72,-0.54 -1.32,-0.9 -0.84,2.88 -0.12,4.92 0.78,1.98 3.06,2.16 1.44,0.18 3.18,-0.42 1.8,-0.66 3.66,-1.8 1.92,-1.2 3.78,-2.82 1.92,-1.68 3.48,-3.6 0.18,-0.3 0.6,0.12 0.42,0.42 0.06,1.5 -0.3,0.78 -1.2,2.04 -0.9,1.26 -2.28,2.64 -1.32,1.38 -3.06,2.82 -1.68,1.38 -3.6,2.58 -1.92,1.14 -3.96,1.92 -1.98,0.72 -3.9,0.84 -2.28,0.12 -3.78,-0.72 -1.44,-0.9 -2.1,-2.58 -0.72,-1.74 -0.6,-4.2 0.12,-2.52 1.08,-5.58 0.9,-3.06 2.58,-6 1.68,-3 3.6,-5.34 1.98,-2.34 4.02,-3.78 2.04,-1.5 3.72,-1.62 1.14,-0.06 2.04,0.36 0.96,0.36 1.62,0.9 0.54,0.06 0.96,0.48 0.48,0.42 0.78,0.96 0.3,0.54 0.48,1.14 0.18,0.6 0.18,1.02 z m -12.42,7.92 q -0.6,0.9 -1.02,1.8 -0.36,0.9 -0.66,1.74 1.86,-0.54 3.66,-1.92 1.8,-1.38 3.24,-3.12 1.5,-1.74 2.52,-3.6 1.08,-1.92 1.44,-3.48 -2.34,0.48 -4.56,2.58 -2.22,2.04 -4.62,6 z" />
      <path
         id="path24"
         style="font-family:'Unboxing Filled'"
         d="m 326.07203,58.66 -0.06,0.3 5.22,2.88 -3.36,15.6 -7.92,5.22 5.76,5.16 -3.3,15.6 h -12.84 l -5.1,-2.82 h -0.54 l 3.06,-14.46 h -9.6 l -3.66,17.28 h -27.24 l -5.1,-2.82 h -0.54 l 3.42,-15.9 7.8,-5.16 -0.66,-0.6 q -1.2,-1.14 -2.52,-2.28 -1.26,-1.14 -2.46,-2.16 l 3.3,-15.84 h 27.66 l -0.06,0.3 5.22,2.88 -3.06,14.1 h 9.66 l 3.66,-17.28 z m -12.72,0.6 -3.66,17.28 h -16.74 l 3.66,-17.28 h -26.34 l -3.18,15 5.94,5.34 -8.22,5.4 -3.18,15 h 26.34 l 3.66,-17.28 h 16.74 l -3.66,17.28 h 11.94 l 3.18,-15 -5.94,-5.4 8.22,-5.4 3.18,-14.94 z m 8.64,11.1 -11.22,5.1 q -0.12,0.48 -0.18,0.96 -0.06,0.42 -0.18,0.9 h -3.72 l -9.9,4.5 h 12.66 l -3.66,17.28 h 10.14 q 0.72,-3.6 1.5,-6.96 0.78,-3.36 1.5,-6.96 -1.44,-1.32 -3.3,-2.94 -1.8,-1.62 -3.12,-2.82 l 8.82,-5.82 q 0.18,-0.84 0.36,-1.62 0.18,-0.84 0.3,-1.62 z m -58.5,24.66 27.24,-12.36 q 0.12,-0.6 0.18,-0.84 h 1.74 l 9.9,-4.5 h -10.68 l 3.66,-17.28 h -24.54 q -0.72,3.6 -1.5,6.9 -0.72,3.3 -1.44,6.9 1.44,1.32 3.18,3 1.8,1.62 3.18,2.82 l -8.82,5.76 q -0.54,2.64 -1.08,4.92 -0.48,2.28 -1.02,4.68 z m 58.98,-26.76 q 0.48,-1.98 0.9,-3.96 0.42,-1.98 0.9,-4.26 h -10.2 q -0.66,3.24 -1.44,6.6 -0.72,3.36 -1.38,6.72 z m -59.4,28.86 q -0.12,0.48 -0.24,0.96 -0.06,0.48 -0.18,1.02 h 24.6 q 0.72,-3.48 1.5,-7.14 0.78,-3.66 1.56,-7.2 z" />
      <path
         id="path26"
         style="font-family:'Aquate Script PERSONAL USE ONLY'"
         d="m 305.28016,69.34 q -0.42,-0.78 -0.3,-1.38 0.06,-0.6 0.48,-1.08 0.42,-0.54 1.08,-0.96 0.66,-0.42 1.38,-0.78 1.86,-0.84 5.58,-1.68 3.66,-0.84 8.28,-1.56 4.62,-0.72 9.78,-1.26 5.22,-0.6 10.08,-0.9 1.44,-1.92 2.82,-2.52 0.48,-0.18 1.2,-0.06 0.78,0.06 1.5,0.42 0.78,0.3 1.38,0.78 0.66,0.48 0.9,1.08 3.78,-0.12 6.66,0.18 2.88,0.3 4.2,0.84 0.9,0.48 1.38,1.38 0.54,0.84 0.72,1.92 0.18,1.02 0.06,2.1 -0.06,1.02 -0.3,1.8 -2.28,-0.78 -6.42,-1.2 -4.14,-0.48 -9.18,-0.66 -1.44,2.4 -3.24,5.28 -1.8,2.88 -3.6,5.76 -1.8,2.82 -3.48,5.4 -1.62,2.52 -2.7,4.2 -0.42,1.56 -0.66,3.06 -0.18,1.44 -0.18,2.58 0.06,1.08 0.3,1.8 0.24,0.72 0.72,0.78 0.6,0.12 1.62,-0.66 1.02,-0.78 2.1,-1.92 1.14,-1.2 2.16,-2.52 1.02,-1.32 1.56,-2.34 0.18,-0.3 0.36,-0.18 0.18,0.06 0.24,0.42 0.12,0.3 0.06,0.84 -0.06,0.54 -0.3,1.2 -0.24,0.54 -0.9,1.56 -0.6,0.96 -1.5,2.16 -0.9,1.14 -2.04,2.34 -1.08,1.2 -2.22,2.22 -1.14,0.96 -2.28,1.62 -1.14,0.6 -2.1,0.6 -0.9,0 -1.62,-0.78 -0.78,-0.84 -1.02,-2.58 -0.3,-1.74 0.12,-4.44 0.36,-2.7 1.62,-6.42 0.78,-2.28 1.74,-4.8 0.96,-2.58 1.98,-5.16 1.08,-2.64 2.22,-5.16 1.14,-2.58 2.34,-4.86 -4.86,0.12 -9.78,0.42 -4.92,0.3 -9.24,0.78 -4.38,0.42 -7.92,1.02 -3.54,0.6 -5.64,1.32 z" />
      <path
         id="path28"
         style="font-family:'Aquate Script PERSONAL USE ONLY'"
         d="m 361.03328,75.46 q 0.06,1.62 -0.66,3.84 -0.66,2.16 -1.86,4.26 -1.2,2.1 -2.7,3.78 -1.5,1.68 -3.06,2.28 -0.78,0.36 -1.62,0.24 -0.78,-0.18 -1.56,-0.54 -0.78,-0.42 -1.5,-0.9 -0.72,-0.54 -1.32,-0.9 -0.84,2.88 -0.12,4.92 0.78,1.98 3.06,2.16 1.44,0.18 3.18,-0.42 1.8,-0.66 3.66,-1.8 1.92,-1.2 3.78,-2.82 1.92,-1.68 3.48,-3.6 0.18,-0.3 0.6,0.12 0.42,0.42 0.06,1.5 -0.3,0.78 -1.2,2.04 -0.9,1.26 -2.28,2.64 -1.32,1.38 -3.06,2.82 -1.68,1.38 -3.6,2.58 -1.92,1.14 -3.96,1.92 -1.98,0.72 -3.9,0.84 -2.28,0.12 -3.78,-0.72 -1.44,-0.9 -2.1,-2.58 -0.72,-1.74 -0.6,-4.2 0.12,-2.52 1.08,-5.58 0.9,-3.06 2.58,-6 1.68,-3 3.6,-5.34 1.98,-2.34 4.02,-3.78 2.04,-1.5 3.72,-1.62 1.14,-0.06 2.04,0.36 0.96,0.36 1.62,0.9 0.54,0.06 0.96,0.48 0.48,0.42 0.78,0.96 0.3,0.54 0.48,1.14 0.18,0.6 0.18,1.02 z m -12.42,7.92 q -0.6,0.9 -1.02,1.8 -0.36,0.9 -0.66,1.74 1.86,-0.54 3.66,-1.92 1.8,-1.38 3.24,-3.12 1.5,-1.74 2.52,-3.6 1.08,-1.92 1.44,-3.48 -2.34,0.48 -4.56,2.58 -2.22,2.04 -4.62,6 z" />
      <path
         id="path30"
         style="font-family:'Aquate Script PERSONAL USE ONLY'"
         d="m 395.91578,73.3 q 0.6,-0.06 1.26,0.3 0.66,0.3 1.14,0.84 0.48,0.48 0.66,1.08 0.24,0.54 0,0.9 -2.22,3.06 -4.02,5.88 -1.74,2.76 -2.88,4.98 -1.14,2.22 -1.56,3.72 -0.36,1.44 0.24,1.92 0.6,0.48 1.56,0.06 1.02,-0.42 2.04,-1.32 1.08,-0.96 2.04,-2.16 0.96,-1.2 1.44,-2.28 0.3,-0.6 0.54,-0.54 0.24,0.06 0.36,0.48 0.12,0.36 0.12,1.02 0,0.66 -0.24,1.32 -0.18,0.54 -0.78,1.5 -0.6,0.96 -1.44,2.1 -0.84,1.14 -1.86,2.34 -1.02,1.2 -2.1,2.22 -1.02,0.96 -2.04,1.62 -0.96,0.66 -1.74,0.72 -1.74,0.18 -2.7,-0.72 -0.96,-0.96 -1.26,-2.58 -0.24,-1.62 0.12,-3.72 0.42,-2.1 1.32,-4.26 0.84,-1.92 2.1,-3.78 1.32,-1.86 2.7,-3.42 -2.76,1.26 -5.16,3.48 -2.4,2.16 -4.26,4.62 -1.8,2.46 -3,4.92 -1.14,2.46 -1.5,4.26 0.06,0.48 -0.78,0.72 -0.78,0.24 -1.8,0.12 -0.96,-0.12 -1.86,-0.72 -0.84,-0.6 -1.02,-1.86 -0.06,-0.78 0.3,-2.46 0.42,-1.74 1.26,-3.9 0.9,-2.16 2.22,-4.56 1.32,-2.46 3.06,-4.68 -2.76,1.2 -5.1,3.42 -2.28,2.16 -4.02,4.68 -1.74,2.46 -2.82,4.98 -1.08,2.46 -1.44,4.26 0.06,0.84 -0.72,1.14 -0.78,0.3 -1.8,0.06 -1.08,-0.18 -1.98,-0.9 -0.9,-0.78 -1.02,-2.04 -0.12,-0.9 0.54,-2.88 0.6,-2.04 1.62,-4.56 0.96,-2.58 2.22,-5.28 1.26,-2.76 2.46,-5.1 1.2,-2.4 2.16,-4.02 1.02,-1.68 1.5,-2.04 0.78,-0.48 1.86,-0.42 1.08,0.06 2.04,0.42 0.96,0.36 1.56,0.84 0.6,0.48 0.36,0.78 -2.64,3.12 -4.5,6.24 -1.8,3.12 -3.06,6 1.5,-2.16 3.36,-4.32 1.86,-2.16 3.84,-4.02 1.98,-1.86 3.96,-3.3 1.98,-1.44 3.78,-2.22 0.66,-0.3 1.44,-0.18 0.84,0.06 1.5,0.36 0.66,0.24 1.02,0.66 0.36,0.42 0.12,0.78 -2.34,3.42 -4.08,6.54 -1.74,3.12 -2.94,6 1.62,-2.16 3.48,-4.26 1.92,-2.1 3.9,-3.96 1.98,-1.86 3.96,-3.3 1.98,-1.44 3.78,-2.34 0.06,-0.18 0.3,-0.18 l 0.24,-0.12 z" />
      <path
         id="path32"
         style="font-family:'Aquate Script PERSONAL USE ONLY'"
         d="m 407.37203,71.38 q 0.6,-0.6 1.56,-0.42 0.96,0.12 1.8,0.6 0.84,0.42 1.32,1.02 0.48,0.54 0.12,0.78 -2.34,2.28 -4.86,6.12 -2.46,3.78 -4.74,8.4 0,0.3 0.06,0.6 0.06,0.3 0.12,0.54 0.6,-1.56 1.74,-3.48 1.14,-1.98 2.46,-3.96 1.38,-2.04 2.88,-3.9 1.56,-1.92 3,-3.42 1.44,-1.5 2.7,-2.4 1.26,-0.9 2.16,-0.9 1.44,-0.06 2.52,0.48 1.08,0.48 1.8,1.26 0.78,0.78 1.2,1.62 0.42,0.78 0.42,1.26 0,1.56 -0.9,4.14 -0.84,2.52 -2.28,5.46 -1.44,2.88 -3.36,5.76 -1.92,2.88 -4.02,5.04 2.28,-0.54 4.98,-2.46 2.7,-1.92 5.58,-6.3 0.12,-0.18 0.42,0 0.3,0.12 0.54,0.48 0.24,0.36 0.3,0.9 0.12,0.48 -0.24,1.08 -1.62,2.88 -3.36,4.98 -1.68,2.04 -3.48,3.48 -1.74,1.38 -3.6,2.16 -1.86,0.78 -3.78,1.08 -0.48,0 -1.26,-0.06 -0.78,0 -1.62,-0.18 -0.84,-0.12 -1.68,-0.36 -0.84,-0.18 -1.5,-0.48 -2.82,-0.12 -3.96,-1.98 -0.36,-0.66 -0.48,-1.92 -0.06,-1.32 0.06,-2.88 -1.38,3.3 -2.46,6.6 -1.14,3.3 -1.86,6.24 -0.72,3 -1.02,5.58 -0.3,2.58 0,4.44 0.06,0.36 -0.66,0.54 -0.78,0.18 -1.74,0.06 -1.02,-0.06 -1.98,-0.48 -1.02,-0.36 -1.38,-1.08 -0.54,-1.02 -0.24,-3.24 0.24,-2.16 1.08,-5.16 0.84,-2.94 2.22,-6.48 1.32,-3.48 2.94,-7.08 1.56,-3.66 3.3,-7.14 1.74,-3.54 3.42,-6.48 1.68,-3 3.18,-5.22 1.5,-2.22 2.58,-3.24 z m 9.12,5.64 q -0.36,-0.66 -1.86,0.24 -1.44,0.84 -3.42,2.76 -1.98,1.92 -4.14,4.74 -2.16,2.82 -3.84,6.06 0.66,1.5 1.56,2.76 0.96,1.2 1.5,1.68 0.96,-0.18 2.16,-1.5 1.2,-1.32 2.4,-3.24 1.2,-1.92 2.28,-4.14 1.14,-2.22 1.92,-4.14 0.84,-1.98 1.2,-3.42 0.42,-1.44 0.24,-1.8 z" />
      <path
         id="path34"
         style="font-family:'Aquate Script PERSONAL USE ONLY'"
         d="m 433.99328,73.36 q 1.2,-0.66 2.4,-0.3 1.26,0.36 1.98,1.2 0.36,-0.6 0.78,-0.9 0.48,-0.36 0.9,-0.48 0.54,-0.24 1.44,0 0.9,0.24 1.8,0.9 0.9,0.66 1.56,1.74 0.66,1.08 0.66,2.46 0,0.54 -0.06,1.2 0,0.6 -0.12,1.14 1.26,-0.24 2.76,-2.4 1.5,-2.16 2.88,-6.18 -0.18,-0.84 -0.18,-1.92 0.06,-1.14 0.42,-2.4 0.36,-1.32 1.44,-1.74 1.08,-0.42 2.1,-0.24 1.08,0.18 1.68,0.78 0.66,0.6 0.24,1.2 -0.42,0.66 -0.78,1.62 -0.36,0.9 -0.66,1.98 2.22,0.48 3.42,1.08 1.26,0.54 1.92,1.08 0.54,0.24 1.02,0.66 0.48,0.36 0.78,0.78 0.36,0.42 0.48,0.78 0.18,0.36 0.12,0.54 -0.48,0.78 -1.44,2.22 -0.9,1.38 -1.98,3.12 -1.08,1.68 -2.16,3.54 -1.02,1.8 -1.74,3.42 -0.72,1.62 -1.02,2.82 -0.24,1.2 0.36,1.62 0.42,0.3 1.08,0.12 0.66,-0.24 1.38,-0.72 0.78,-0.54 1.56,-1.26 0.84,-0.72 1.5,-1.44 0.66,-0.72 1.08,-1.26 0.48,-0.6 0.6,-0.9 0.12,0 0.36,0.06 0.3,0 0.48,0.24 0.24,0.18 0.24,0.66 0.06,0.42 -0.18,1.14 -0.54,1.44 -1.98,3.3 -1.38,1.86 -3.18,3.54 -1.74,1.62 -3.6,2.76 -1.86,1.08 -3.36,1.08 -1.44,0 -1.98,-1.8 -0.48,-1.8 0.12,-5.04 0.66,-3.3 2.58,-7.8 1.92,-4.5 5.34,-9.9 -0.9,0.12 -1.74,0.18 -0.84,0 -1.2,0 -0.84,1.74 -1.98,3.24 -1.14,1.44 -2.46,2.58 -1.26,1.08 -2.64,1.8 -1.38,0.66 -2.7,0.84 -1.08,3 -2.94,5.94 -1.86,2.88 -4.2,5.16 -2.28,2.22 -4.92,3.6 -2.58,1.32 -5.1,1.2 -1.2,-0.06 -2.22,-0.78 -1.02,-0.72 -1.62,-1.98 -0.66,-1.26 -0.84,-3.06 -0.24,-1.8 0.24,-4.08 0.42,-1.92 1.32,-4.26 0.96,-2.34 2.4,-4.62 1.44,-2.34 3.36,-4.38 1.92,-2.1 4.2,-3.48 z m 3.9,4.26 q -1.92,1.56 -4.02,3.36 -2.04,1.8 -3.96,3.78 -1.14,1.74 -1.62,3.3 -0.42,1.56 -0.36,2.82 0.12,1.26 0.6,2.1 0.48,0.84 1.2,1.08 1.56,0.48 3.06,-0.3 1.56,-0.78 2.82,-2.4 1.32,-1.68 2.34,-3.96 1.02,-2.34 1.56,-4.92 -0.84,-0.9 -1.32,-2.76 -0.18,-0.6 -0.24,-1.08 -0.06,-0.54 -0.06,-1.02 z" />
      <path
         id="path36"
         style="font-family:'Aquate Script PERSONAL USE ONLY'"
         d="m 483.22797,74.38 q 0.48,-0.72 1.26,-0.42 0.78,0.24 1.5,0.9 0.72,0.6 1.14,1.38 0.42,0.78 0.24,1.02 -0.24,0.3 -1.02,1.44 -0.72,1.08 -1.68,2.64 -0.9,1.5 -1.86,3.24 -0.96,1.74 -1.62,3.36 -0.66,1.56 -0.9,2.76 -0.24,1.2 0.3,1.62 0.78,0.72 1.98,0.18 1.2,-0.54 2.34,-1.56 1.2,-1.02 2.1,-2.1 0.96,-1.14 1.14,-1.62 0.18,-0.42 0.48,-0.48 0.3,-0.06 0.48,0.3 0.24,0.3 0.24,1.02 0,0.66 -0.36,1.62 -0.24,0.66 -1.02,1.74 -0.72,1.08 -1.74,2.34 -1.02,1.2 -2.22,2.4 -1.2,1.2 -2.4,2.16 -1.14,0.9 -2.22,1.44 -1.08,0.48 -1.86,0.24 -1.92,-0.54 -2.28,-3.06 -0.36,-2.52 0.48,-6.06 -1.56,1.86 -3.06,3.48 -1.44,1.62 -2.82,2.88 -1.32,1.26 -2.52,2.04 -1.14,0.78 -2.1,0.96 -1.02,0.18 -2.04,-0.18 -1.02,-0.36 -1.74,-1.38 -0.72,-1.02 -0.96,-2.76 -0.3,-1.74 0.24,-4.26 0.6,-3.24 2.46,-6.48 1.86,-3.3 4.32,-6 2.52,-2.76 5.28,-4.62 2.82,-1.92 5.28,-2.4 1.08,-0.18 1.74,0.24 0.72,0.42 1.08,1.14 0.36,0.72 0.42,1.62 0.12,0.84 0,1.44 -1.86,0.36 -3.9,1.68 -2.04,1.26 -3.96,3.06 -1.86,1.8 -3.48,3.84 -1.56,2.04 -2.58,3.84 -0.96,1.74 -1.2,3 -0.18,1.2 0.66,1.44 0.78,0.24 1.98,-0.42 1.26,-0.66 2.7,-1.92 1.5,-1.26 3.06,-2.94 1.62,-1.68 3.18,-3.48 1.02,-2.58 2.4,-5.16 1.44,-2.64 3.06,-5.16 z" />
      <path
         id="path38"
         style="font-family:'Aquate Script PERSONAL USE ONLY'"
         d="m 509.30359,73.3 q 0.66,-0.06 1.32,0.3 0.66,0.3 1.14,0.84 0.48,0.48 0.66,1.08 0.18,0.54 -0.12,0.9 -2.22,3.06 -4.02,5.88 -1.74,2.76 -2.88,4.98 -1.14,2.22 -1.56,3.72 -0.36,1.44 0.24,1.92 0.6,0.48 1.62,0.06 1.02,-0.42 2.04,-1.32 1.08,-0.96 1.98,-2.16 0.96,-1.2 1.44,-2.28 0.3,-0.6 0.54,-0.54 0.3,0.06 0.42,0.48 0.12,0.36 0.12,1.02 0,0.66 -0.24,1.32 -0.3,0.78 -1.5,2.52 -1.14,1.68 -2.64,3.42 -1.5,1.74 -3.12,3.12 -1.56,1.38 -2.76,1.44 -1.74,0.18 -2.7,-0.72 -0.9,-0.96 -1.2,-2.58 -0.24,-1.62 0.12,-3.72 0.42,-2.1 1.38,-4.26 0.84,-1.92 2.04,-3.78 1.26,-1.86 2.64,-3.42 -2.76,1.26 -5.16,3.48 -2.34,2.16 -4.2,4.62 -1.8,2.46 -3,4.92 -1.14,2.46 -1.44,4.26 0.12,0.84 -0.72,1.14 -0.78,0.3 -1.8,0.06 -1.02,-0.18 -1.92,-0.9 -0.96,-0.78 -1.08,-2.04 -0.06,-0.9 0.54,-2.88 0.6,-2.04 1.62,-4.56 1.02,-2.58 2.22,-5.28 1.26,-2.76 2.46,-5.1 1.2,-2.4 2.16,-4.02 1.02,-1.68 1.5,-2.04 0.78,-0.48 1.86,-0.42 1.14,0.06 2.1,0.42 0.96,0.36 1.56,0.84 0.6,0.48 0.36,0.78 -2.7,3.3 -4.62,6.54 -1.92,3.24 -3.3,6.24 1.56,-2.1 3.48,-4.2 1.92,-2.16 3.9,-4.02 2.04,-1.92 4.08,-3.42 2.04,-1.5 3.84,-2.4 0.12,-0.06 0.18,-0.12 0.06,-0.12 0.18,-0.12 l 0.24,-0.12 z" />
      <path
         id="path40"
         style="font-family:'Aquate Script PERSONAL USE ONLY'"
         d="m 531.07234,75.46 q 0.06,1.62 -0.66,3.84 -0.66,2.16 -1.86,4.26 -1.2,2.1 -2.7,3.78 -1.5,1.68 -3.06,2.28 -0.78,0.36 -1.62,0.24 -0.78,-0.18 -1.56,-0.54 -0.78,-0.42 -1.5,-0.9 -0.72,-0.54 -1.32,-0.9 -0.84,2.88 -0.12,4.92 0.78,1.98 3.06,2.16 1.44,0.18 3.18,-0.42 1.8,-0.66 3.66,-1.8 1.92,-1.2 3.78,-2.82 1.92,-1.68 3.48,-3.6 0.18,-0.3 0.6,0.12 0.42,0.42 0.06,1.5 -0.3,0.78 -1.2,2.04 -0.9,1.26 -2.28,2.64 -1.32,1.38 -3.06,2.82 -1.68,1.38 -3.6,2.58 -1.92,1.14 -3.96,1.92 -1.98,0.72 -3.9,0.84 -2.28,0.12 -3.78,-0.72 -1.44,-0.9 -2.1,-2.58 -0.72,-1.74 -0.6,-4.2 0.12,-2.52 1.08,-5.58 0.9,-3.06 2.58,-6 1.68,-3 3.6,-5.34 1.98,-2.34 4.02,-3.78 2.04,-1.5 3.72,-1.62 1.14,-0.06 2.04,0.36 0.96,0.36 1.62,0.9 0.54,0.06 0.96,0.48 0.48,0.42 0.78,0.96 0.3,0.54 0.48,1.14 0.18,0.6 0.18,1.02 z m -12.42,7.92 q -0.6,0.9 -1.02,1.8 -0.36,0.9 -0.66,1.74 1.86,-0.54 3.66,-1.92 1.8,-1.38 3.24,-3.12 1.5,-1.74 2.52,-3.6 1.08,-1.92 1.44,-3.48 -2.34,0.48 -4.56,2.58 -2.22,2.04 -4.62,6 z" />
      <path
         id="path42"
         style="font-family:'Aquate Script PERSONAL USE ONLY'"
         d="m 553.77484,74.38 q 0.48,-0.72 1.26,-0.42 0.78,0.24 1.5,0.9 0.72,0.6 1.14,1.38 0.42,0.78 0.24,1.02 -0.24,0.3 -1.02,1.44 -0.72,1.08 -1.68,2.64 -0.9,1.5 -1.86,3.24 -0.96,1.74 -1.62,3.36 -0.66,1.56 -0.9,2.76 -0.24,1.2 0.3,1.62 0.78,0.72 1.98,0.18 1.2,-0.54 2.34,-1.56 1.2,-1.02 2.1,-2.1 0.96,-1.14 1.14,-1.62 0.18,-0.42 0.48,-0.48 0.3,-0.06 0.48,0.3 0.24,0.3 0.24,1.02 0,0.66 -0.36,1.62 -0.24,0.66 -1.02,1.74 -0.72,1.08 -1.74,2.34 -1.02,1.2 -2.22,2.4 -1.2,1.2 -2.4,2.16 -1.14,0.9 -2.22,1.44 -1.08,0.48 -1.86,0.24 -1.92,-0.54 -2.28,-3.06 -0.36,-2.52 0.48,-6.06 -1.56,1.86 -3.06,3.48 -1.44,1.62 -2.82,2.88 -1.32,1.26 -2.52,2.04 -1.14,0.78 -2.1,0.96 -1.02,0.18 -2.04,-0.18 -1.02,-0.36 -1.74,-1.38 -0.72,-1.02 -0.96,-2.76 -0.3,-1.74 0.24,-4.26 0.6,-3.24 2.46,-6.48 1.86,-3.3 4.32,-6 2.52,-2.76 5.28,-4.62 2.82,-1.92 5.28,-2.4 1.08,-0.18 1.74,0.24 0.72,0.42 1.08,1.14 0.36,0.72 0.42,1.62 0.12,0.84 0,1.44 -1.86,0.36 -3.9,1.68 -2.04,1.26 -3.96,3.06 -1.86,1.8 -3.48,3.84 -1.56,2.04 -2.58,3.84 -0.96,1.74 -1.2,3 -0.18,1.2 0.66,1.44 0.78,0.24 1.98,-0.42 1.26,-0.66 2.7,-1.92 1.5,-1.26 3.06,-2.94 1.62,-1.68 3.18,-3.48 1.02,-2.58 2.4,-5.16 1.44,-2.64 3.06,-5.16 z" />
    </g>
  </g>
</svg>
