<?xml version="1.0" encoding="UTF-8" standalone="no"?>
<svg
   xmlns:dc="http://purl.org/dc/elements/1.1/"
   xmlns:cc="http://creativecommons.org/ns#"
   xmlns:rdf="http://www.w3.org/1999/02/22-rdf-syntax-ns#"
   xmlns:svg="http://www.w3.org/2000/svg"
   xmlns="http://www.w3.org/2000/svg"
   id="svg16"
   width="800px"
   version="1.1"
   height="200px">
  <metadata
     id="metadata20">
    <rdf:RDF>
      <cc:Work
         rdf:about="">
        <dc:format>image/svg+xml</dc:format>
        <dc:type
           rdf:resource="http://purl.org/dc/dcmitype/StillImage" />
      </cc:Work>
    </rdf:RDF>
  </metadata>
  <defs
     id="defs4">
    <style
       id="style2"
       type="text/css"><![CDATA[    
     @font-face {font-family:Archia Bold;
     src: url('/Users/francesco/Repos/write-logos/src/fonts/Fonts_E_TEMPORANEA/Archia-Bold.otf');}
     @font-face {font-family:MADE Soulmaze Outline;
     src: url('/Users/francesco/Repos/write-logos/src/fonts/Fonts_X/MADE_Outline.otf');}
     ]]></style>
  </defs>
  <g
     id="g14"
     style="font-size:60px">
    <g
       style="text-anchor:middle"
       id="text12"
       aria-label="EXTEMPORANEA">
      <path
         id="path22"
         style="font-family:'Archia Bold';letter-spacing:0.075em"
         d="m 139.2625,100 h 27 v -8.34 h -18.06 v -8.82 h 15.06 V 74.5 h -15.06 v -8.1 h 17.46 V 58 h -26.4 z" />
      <path
         id="path24"
         style="font-family:'MADE Soulmaze Outline';letter-spacing:0.05em"
         d="m 211.29531,78.16 8.88,-20.16 h -18.18 l -4.08,13.68 h -0.54 l -4.08,-13.68 h -18.18 l 8.88,20.16 -9.48,21.84 h 18.78 l 4.08,-13.68 h 0.54 l 4.08,13.68 h 18.78 z m -12.96,7.62 h -1.38 l -4.08,13.62 h -17.52 l 9.24,-21.24 -8.64,-19.62 h 16.92 l 4.08,13.68 h 1.38 l 4.08,-13.68 h 16.92 l -8.64,19.62 9.24,21.24 h -17.52 z" />
      <path
         id="path26"
         style="font-family:'Archia Bold';letter-spacing:0.075em"
         d="m 237.89969,100 h 8.88 V 66.4 h 11.22 V 58 h -31.32 v 8.4 h 11.22 z" />
      <path
         id="path28"
         style="font-family:'Archia Bold';letter-spacing:0.075em"
         d="m 268.21562,100 h 27 v -8.34 h -18.06 v -8.82 h 15.06 V 74.5 h -15.06 v -8.1 h 17.46001 V 58 h -26.40001 z" />
      <path
         id="path30"
         style="font-family:'Archia Bold';letter-spacing:0.075em"
         d="m 306.34844,100 h 8.7 V 67 h 0.72 l 5.94,33 h 12.9 l 6,-33 h 0.66 v 33 h 8.7 V 58 h -15.66 l -5.82,33 h -0.66 l -5.82,-33 h -15.66 z" />
      <path
         id="path32"
         style="font-family:'Archia Bold';letter-spacing:0.075em"
         d="m 362.87969,100 h 8.94 V 85.18 h 6 c 8.04,0 13.98,-5.58 13.98,-13.68 0,-8.16 -5.64,-13.5 -13.98,-13.5 h -14.94 z m 8.94,-23.16 v -10.5 h 5.64 c 3.24,0 5.34,2.16 5.34,5.16 0,3.06 -2.1,5.34 -5.34,5.34 z" />
      <path
         id="path34"
         style="font-family:'Archia Bold';letter-spacing:0.075em"
         d="m 422.40156,100.78 c 12.6,0 21.9,-9.54 21.9,-21.84 0,-12.18 -9.24,-21.72 -21.9,-21.72 -12.54,0 -21.9,9.42 -21.9,21.72 0,12.42 9.24,21.84 21.9,21.84 z m 0,-8.64 c -7.32,0 -12.66,-5.58 -12.66,-13.2 0,-7.5 5.34,-13.08 12.66,-13.08 7.2,0 12.66,5.58 12.66,13.08 0,7.62 -5.46,13.2 -12.66,13.2 z" />
      <path
         id="path36"
         style="font-family:'Archia Bold';letter-spacing:0.075em"
         d="m 455.43437,100 h 8.94 V 84.82 h 4.26 l 7.74,15.18 h 10.2 l -9.17999,-16.56 c 4.85999,-2.28 7.5,-6.66 7.5,-12.3 0,-7.86 -6.18,-13.14 -15,-13.14 h -14.46001 z m 8.94,-23.28 V 66.34 h 5.34001 c 4.01999,0 5.88,2.28 5.88,4.98 0,3.48 -2.34001,5.4 -5.58001,5.4 z" />
      <path
         id="path38"
         style="font-family:'Archia Bold';letter-spacing:0.075em"
         d="m 523.74531,100 h 9.42 l -14.1,-42 h -12.6 l -14.22,42 h 9.6 l 2.7,-8.4 h 16.5 z m -16.62,-16.56 5.28,-16.44 h 0.66 l 5.34,16.44 z" />
      <path
         id="path40"
         style="font-family:'Archia Bold';letter-spacing:0.075em"
         d="m 542.12969,100 h 8.94 V 67 h 0.66 l 9.48,33 h 15.36 V 58 h -8.88 v 33 h -0.6 l -9.72,-33 h -15.24 z" />
      <path
         id="path42"
         style="font-family:'Archia Bold';letter-spacing:0.075em"
         d="m 589.52031,100 h 27 v -8.34 h -18.06 v -8.82 h 15.06 V 74.5 h -15.06 v -8.1 h 17.46 V 58 h -26.4 z" />
      <path
         id="path44"
         style="font-family:'Archia Bold';letter-spacing:0.075em"
         d="m 655.25312,100 h 9.42001 L 650.57312,58 h -12.6 l -14.22,42 h 9.6 l 2.70001,-8.4 h 16.5 z m -16.62,-16.56 5.28001,-16.44 h 0.65999 l 5.34001,16.44 z" />
    </g>
  </g>
</svg>
