<?xml version="1.0" encoding="UTF-8" standalone="no"?>
<svg
   xmlns:dc="http://purl.org/dc/elements/1.1/"
   xmlns:cc="http://creativecommons.org/ns#"
   xmlns:rdf="http://www.w3.org/1999/02/22-rdf-syntax-ns#"
   xmlns:svg="http://www.w3.org/2000/svg"
   xmlns="http://www.w3.org/2000/svg"
   id="svg16"
   width="800px"
   version="1.1"
   height="200px">
  <metadata
     id="metadata20">
    <rdf:RDF>
      <cc:Work
         rdf:about="">
        <dc:format>image/svg+xml</dc:format>
        <dc:type
           rdf:resource="http://purl.org/dc/dcmitype/StillImage" />
      </cc:Work>
    </rdf:RDF>
  </metadata>
  <defs
     id="defs4">
    <style
       id="style2"
       type="text/css"><![CDATA[    
     @font-face {font-family:Archia Medium;
     src: url('/Users/francesco/Repos/write-logos/src/fonts/Fonts_E_TEMPORANEA/Archia-Medium.otf');}
     @font-face {font-family:Westpart;
     src: url('/Users/francesco/Repos/write-logos/src/fonts/Fonts_X/WestpartDemo.otf');}
     ]]></style>
  </defs>
  <g
     id="g14"
     style="font-size:60px">
    <g
       style="text-anchor:middle"
       id="text12"
       aria-label="EXTEMPORANEA">
      <path
         id="path22"
         style="font-family:'Archia Medium';letter-spacing:0.075em"
         d="m 146.67625,100 h 25.32 v -5.64 h -19.2 V 81.4 h 16.02 v -5.58 h -16.02 V 63.64 h 18.6 V 58 h -24.72 z" />
      <path
         id="path24"
         style="font-family:Westpart;letter-spacing:0.05em"
         d="m 179.40625,103.96 c 0,0 0,0 0,0 0,0 0,0 0,0 z m 34.5,-47.94 c -0.24,-0.18 -0.48,-0.3 -0.66,-0.48 -0.42,0.06 -0.84,0.12 -1.26,0.12 -1.14,0.48 -1.98,1.32 -2.88,2.04 -0.42,0.84 -1.2,1.32 -1.8,1.92 -1.02,1.14 -2.22,2.04 -3,3.36 -0.42,0.72 -1.02,1.26 -1.44,1.98 -0.6,1.02 -1.38,1.86 -2.04,2.88 -0.54,0.78 -1.26,1.44 -1.62,2.34 -0.06,0.18 -0.3,0.36 -0.42,0.48 -0.18,0.18 -0.36,0.36 -0.48,0.6 -0.54,0.9 -1.2,1.74 -1.86,2.64 -0.24,0.36 -0.54,0.72 -0.84,1.08 0,0.06 -0.12,0.06 -0.3,0.06 0.54,-1.26 1.38,-2.34 2.22,-3.36 0.18,-0.54 0.48,-1.08 0.9,-1.5 0.42,-0.48 0.84,-0.9 0.9,-1.56 0.72,-0.6 1.26,-1.38 1.74,-2.16 0.24,-0.48 0.66,-0.96 0.96,-1.38 0.18,-0.24 0.42,-0.42 0.54,-0.66 0.54,-0.78 1.14,-1.5 1.62,-2.28 0.36,-0.54 0.84,-1.08 1.14,-1.68 0.06,-0.06 0,-0.12 0.06,-0.36 -1.08,0.96 -2.04,1.74 -2.82,2.82 -0.48,0.66 -1.02,1.32 -1.62,1.92 -0.9,0.96 -1.74,1.92 -2.46,3 -0.18,0.24 -0.3,0.48 -0.54,0.66 -0.9,0.84 -1.44,2.04 -2.34,2.88 -0.24,0.3 -0.36,0.72 -0.66,0.96 -0.3,0.24 -0.54,0.66 -0.84,1.02 -0.24,-0.42 -0.42,-0.78 -0.72,-1.08 -0.24,-0.3 -0.42,-0.54 -0.6,-0.84 -0.36,-0.6 -0.78,-1.14 -1.2,-1.62 -0.12,-0.18 -0.3,-0.42 -0.6,-0.36 -0.06,0 -0.12,-0.12 -0.18,-0.12 0.06,-0.18 0.06,-0.36 0.12,-0.48 -0.72,-0.72 -1.2,-1.5 -1.68,-2.28 -0.36,-0.54 -0.84,-0.96 -1.44,-1.08 -1.02,-1.14 -2.1,-2.1 -3.24,-2.94 -0.54,-0.12 -0.96,0 -1.26,0.36 0,0.06 -0.06,0.12 -0.06,0.18 0,1.02 0.36,1.98 0.6,3 0.18,0.6 0.6,1.2 0.9,1.8 0.48,1.02 0.96,1.98 1.5,3.06 0.12,0.12 0.42,0.36 0.48,0.6 0.06,0.42 0.36,0.66 0.6,0.96 0.12,0.12 0.18,0.3 0.3,0.42 0.42,0.66 0.66,1.44 1.26,1.98 0.06,0.06 0.06,0.18 0.12,0.3 0.48,0.9 1.02,1.8 1.5,2.7 0.12,0.18 0.12,0.36 0.18,0.48 -0.06,0.24 -0.12,0.48 -0.18,0.66 -0.12,0.18 -0.24,0.36 -0.36,0.48 -0.18,0.3 -0.42,0.54 -0.54,0.84 -0.42,0.84 -0.96,1.56 -1.5,2.28 -0.18,0.18 -0.36,0.42 -0.42,0.66 -0.48,1.02 -1.14,1.98 -1.68,2.94 -0.48,0.78 -1.02,1.5 -1.32,2.34 -0.12,0.3 -0.3,0.6 -0.42,0.84 -0.42,0.78 -0.84,1.62 -1.26,2.4 -0.3,0.72 -0.72,1.38 -0.96,2.16 -0.24,0.78 -0.72,1.44 -0.9,2.22 -0.06,0.36 -0.18,0.78 -0.42,1.08 -0.18,0.3 -0.12,0.66 -0.24,1.02 -0.12,0.12 -0.36,0.12 -0.3,0.36 0.24,0.12 0.48,0.24 0.72,0.3 -0.06,0.24 -0.12,0.48 -0.18,0.72 0,0.3 0,0.54 0,0.84 -0.24,0.12 -0.42,0.3 -0.6,0.42 -0.24,0.72 -0.3,1.44 -0.78,1.98 -0.18,0.24 -0.18,0.66 0.06,1.02 0.3,-0.24 0.6,-0.48 0.96,-0.66 0.06,-0.18 0.18,-0.36 0.18,-0.54 0.06,-0.18 0.06,-0.36 0.06,-0.54 0.3,-0.42 0.6,-0.78 0.84,-1.14 0.3,0 0.54,0 0.78,0 0,-0.66 0.48,-0.96 0.78,-1.14 0.3,-0.54 0.6,-0.9 0.84,-1.32 0.72,-1.38 1.62,-2.7 2.4,-4.02 0.54,-0.96 1.32,-1.8 1.68,-2.82 0.18,-0.3 0.48,-0.54 0.72,-0.78 0.84,-1.26 1.74,-2.52 2.58,-3.78 0.3,-0.48 0.54,-0.9 0.96,-1.5 0.06,-0.12 0.36,-0.24 0.6,-0.48 0.18,-0.24 0.24,-0.54 0.54,-0.78 0.24,-0.18 0.36,-0.48 0.54,-0.66 0.24,0.36 0.54,0.66 0.72,1.08 0.6,1.14 1.2,2.34 1.8,3.48 0.12,0.18 0.18,0.42 0.3,0.54 0.42,0.42 0.6,0.9 0.9,1.38 0.24,0.48 0.48,1.08 0.84,1.44 0.66,0.72 1.32,1.5 2.16,2.04 0.48,0.36 0.84,0.78 1.26,1.2 0.06,0 0.12,0 0.24,0.06 0.18,-0.18 0.36,-0.3 0.54,-0.48 0.24,0.12 0.42,0.24 0.6,0.3 0.18,0.3 0.36,0.54 0.48,0.84 0.36,0.18 0.72,0.3 1.02,0.48 0.3,-0.36 0.18,-0.72 0.18,-1.02 -0.06,-0.06 -0.06,-0.12 -0.12,-0.24 0,0 0.06,0 0.06,0 0,0.06 0.06,0.18 0.06,0.24 0.12,0 0.24,0.06 0.3,0.06 0.36,-0.54 0.42,-1.14 0.36,-1.62 -0.24,-0.66 -0.48,-1.14 -0.66,-1.68 -0.18,-0.6 -0.42,-1.14 -0.48,-1.74 -0.12,-0.48 -0.36,-0.84 -0.6,-1.26 -0.36,-0.78 -1.02,-1.32 -1.26,-2.16 -0.24,-0.12 -0.42,-0.24 -0.6,-0.42 0,-0.78 -0.48,-1.38 -0.96,-2.04 0,-0.9 -1.02,-1.26 -1.08,-2.1 -0.24,-0.12 -0.36,-0.18 -0.48,-0.3 -0.3,-0.54 -0.48,-1.08 -0.84,-1.5 -0.42,-0.54 -0.78,-1.14 -1.08,-1.8 0.12,-0.24 0.24,-0.54 0.42,-0.78 0.6,-0.84 1.32,-1.68 1.92,-2.52 0.42,-0.54 0.72,-1.08 1.26,-1.5 0.24,-0.18 0.36,-0.48 0.54,-0.78 0.18,-0.24 0.3,-0.48 0.48,-0.72 0.3,-0.42 0.66,-0.78 1.02,-1.32 0.12,-0.06 0.36,-0.18 0.36,-0.18 0.6,-0.72 1.02,-1.2 1.44,-1.74 0.24,-0.36 0.54,-0.72 0.96,-1.26 0.06,-0.12 0.36,-0.42 0.6,-0.72 0.96,-1.02 1.56,-2.28 2.4,-3.36 0.24,-0.3 0.48,-0.6 0.66,-0.9 0.72,-1.44 1.68,-2.7 2.7,-3.9 0.6,-0.72 1.14,-1.44 1.62,-2.1 0,-0.3 0,-0.54 0,-0.78 z m -33,42.96 c 0,-0.12 0,-0.24 0.06,-0.48 0.18,0.24 0.06,0.36 -0.06,0.48 z m 1.92,-1.5 c -0.06,0.12 -0.06,0.18 -0.12,0.24 0,0 0,0 -0.06,0 0.06,-0.06 0.12,-0.18 0.18,-0.24 0,0 0,-0.06 0,-0.06 0,0.06 0,0.06 0,0.06 z m 1.44,-3.06 v -0.06 l 0.12,0.06 z m 6.6,-27.06 c 0.12,0.06 0.24,0.12 0.42,-0.12 -0.6,-0.78 -0.96,-1.68 -1.98,-2.34 0.06,0.24 0.06,0.36 0.06,0.36 0.54,0.72 1.02,1.38 1.5,2.1 z m -11.46,36.6 c -0.06,0 -0.06,0 -0.06,0.06 0,-0.06 0,-0.06 0.06,-0.06 z" />
      <path
         id="path26"
         style="font-family:'Archia Medium';letter-spacing:0.075em"
         d="m 232.00562,100 h 6.06 V 63.64 h 11.94 V 58 h -29.94 v 5.64 h 11.94 z" />
      <path
         id="path28"
         style="font-family:'Archia Medium';letter-spacing:0.075em"
         d="m 261.80125,100 h 25.32 v -5.64 h -19.2 V 81.4 h 16.02 v -5.58 h -16.02 V 63.64 h 18.6 V 58 h -24.72 z" />
      <path
         id="path30"
         style="font-family:'Archia Medium';letter-spacing:0.075em"
         d="m 300.05125,100 h 5.94 V 63.82 h 0.42 l 10.26,36.18 h 8.76 l 10.2,-36.18 h 0.48 V 100 h 5.88 V 58 h -10.56 l -10.2,36.18 h -0.42 l -10.2,-36.18 h -10.56 z" />
      <path
         id="path32"
         style="font-family:'Archia Medium';letter-spacing:0.075em"
         d="m 357.52,100 h 6.12 V 83.92 h 8.04 c 7.62,0 13.26,-5.28 13.26,-13.02 0,-7.8 -5.4,-12.9 -13.26,-12.9 h -14.16 z m 6.12,-21.6 V 63.58 h 7.68 c 4.5,0 7.38,3.06 7.38,7.32 0,4.26 -2.88,7.5 -7.38,7.5 z" />
      <path
         id="path34"
         style="font-family:'Archia Medium';letter-spacing:0.075em"
         d="m 416.25063,100.78 c 12.29999,0 21.59999,-9.48 21.59999,-21.78 0,-12.24 -9.23999,-21.78 -21.53999,-21.78 -12.30001,0 -21.60001,9.42 -21.60001,21.78 0,12.42 9.24,21.78 21.54001,21.78 z m 0.06,-5.82 c -8.7,0 -15.24001,-6.72 -15.24001,-15.96 0,-9.12 6.54001,-15.96 15.24001,-15.96 8.63999,0 15.24,6.84 15.24,15.96 0,9.24 -6.60001,15.96 -15.24,15.96 z" />
      <path
         id="path36"
         style="font-family:'Archia Medium';letter-spacing:0.075em"
         d="m 450.66062,100 h 6.12 V 83.56 h 6 l 9.78001,16.44 h 7.31999 l -10.86,-17.1 c 6.12,-1.5 9.36,-6.3 9.36,-12.36 0,-7.5 -5.4,-12.54 -14.04,-12.54 h -13.68 z m 6.12,-21.9 V 63.58 h 7.26 c 5.4,0 8.04,3.12 8.04,7.02 0,4.92 -3.3,7.5 -7.74,7.5 z" />
      <path
         id="path38"
         style="font-family:'Archia Medium';letter-spacing:0.075em"
         d="m 487.3975,100 h 6.3 l 3.36,-9.48 h 19.32 l 3.36,9.48 h 6.42 l -15,-42 h -8.58 z m 11.64,-15.06 7.44,-21.12 h 0.48 l 7.44,21.12 z" />
      <path
         id="path40"
         style="font-family:'Archia Medium';letter-spacing:0.075em"
         d="m 537.12156,100 h 6.12 V 63.82 h 0.42 l 15.96,36.18 h 10.32 V 58 h -6 v 36.18 h -0.42 l -16.2,-36.18 h -10.2 z" />
      <path
         id="path42"
         style="font-family:'Archia Medium';letter-spacing:0.075em"
         d="m 585.44969,100 h 25.32 v -5.64 h -19.2 V 81.4 h 16.02 v -5.58 h -16.02 V 63.64 h 18.6 V 58 h -24.72 z" />
      <path
         id="path44"
         style="font-family:'Archia Medium';letter-spacing:0.075em"
         d="m 619.13969,100 h 6.3 l 3.36,-9.48 h 19.32 l 3.36,9.48 h 6.42 l -15,-42 h -8.58 z m 11.64,-15.06 7.44,-21.12 h 0.48 l 7.44,21.12 z" />
    </g>
  </g>
</svg>
