<?xml version="1.0" encoding="UTF-8" standalone="no"?>
<svg
   xmlns:dc="http://purl.org/dc/elements/1.1/"
   xmlns:cc="http://creativecommons.org/ns#"
   xmlns:rdf="http://www.w3.org/1999/02/22-rdf-syntax-ns#"
   xmlns:svg="http://www.w3.org/2000/svg"
   xmlns="http://www.w3.org/2000/svg"
   id="svg16"
   width="800px"
   version="1.1"
   height="200px">
  <metadata
     id="metadata20">
    <rdf:RDF>
      <cc:Work
         rdf:about="">
        <dc:format>image/svg+xml</dc:format>
        <dc:type
           rdf:resource="http://purl.org/dc/dcmitype/StillImage" />
      </cc:Work>
    </rdf:RDF>
  </metadata>
  <defs
     id="defs4">
    <style
       id="style2"
       type="text/css"><![CDATA[    
     @font-face {font-family:Archia Bold;
     src: url('/Users/francesco/Repos/write-logos/src/fonts/Fonts_E_TEMPORANEA/Archia-Bold.otf');}
     @font-face {font-family:Dr Eye;
     src: url('/Users/francesco/Repos/write-logos/src/fonts/Fonts_X/DrEye.otf');}
     ]]></style>
  </defs>
  <g
     id="g14"
     style="font-size:60px">
    <g
       style="text-anchor:middle"
       id="text12"
       aria-label="EXTEMPORANEA">
      <path
         id="path22"
         style="font-family:'Archia Bold';letter-spacing:0.075em"
         d="m 142.36797,100 h 27 v -8.34 h -18.06 v -8.82 h 15.06 V 74.5 h -15.06 v -8.1 h 17.46 V 58 h -26.4 z" />
      <path
         id="path24"
         style="font-family:'Dr Eye';letter-spacing:0.05em"
         d="m 175.22078,55.78 c 0.18,-0.24 2.1,-1.08 0,-1.2 -0.66,-0.06 -0.24,0.96 0,1.2 z m 0.9,8.94 c -0.12,0 -0.6,0.06 -0.72,0 -0.06,0.18 -0.42,0.12 -0.6,0.18 0.06,0.12 0,0.66 0,0.78 0.18,0 0.36,0.12 0.6,0.18 -0.42,0.12 0.84,-0.18 0.54,-0.18 0.42,0.24 0.18,-0.96 0.18,-0.96 z m 37.74,28.5 c 0.78,-3.9 -2.28,-3.06 -3.9,-4.08 -0.3,-0.12 -0.06,-0.36 -0.3,-0.6 -0.48,-0.84 -0.36,-2.28 -0.9,-3.18 -0.9,-1.5 -3.18,-1.2 -4.08,-2.4 -0.78,-1.02 -0.42,-3 -1.38,-3.78 l -0.18,-0.18 c -1.26,-1.02 -2.34,-0.42 -3,-2.1 0,-0.06 -0.42,-0.9 -0.36,-0.9 0.48,-0.36 0.36,-1.32 0.78,-1.68 0.78,-0.78 2.52,-0.66 3.18,-1.56 l 0.42,-0.36 c 0.42,-1.44 0,-2.16 0.72,-3.18 0.84,-1.26 3.24,-1.02 4.08,-2.46 0.36,-0.66 0.24,-1.98 0.54,-2.76 0.66,-1.8 5.46,-1.8 3.42,-5.1 l -0.18,-0.36 c -0.72,-0.6 -1.98,-0.48 -2.76,-0.96 -1.44,-0.9 -0.54,-3.48 -2.88,-4.14 -0.12,0 -0.36,0 -0.54,0 -2.1,0.12 -2.04,2.34 -3.24,3.42 -0.96,0.78 -1.86,0.48 -2.94,1.14 -1.56,1.02 -0.9,2.7 -1.68,4.32 l -0.6,0.54 c -1.44,0.78 -2.82,0.42 -3.96,1.5 -0.6,0.54 -0.42,2.16 -1.26,2.4 -1.02,0.3 -2.28,-0.12 -2.7,-0.54 -0.3,-0.42 -0.6,-1.74 -0.36,-2.58 0.3,-1.14 1.86,-0.48 2.28,-1.86 0.12,-0.48 0.18,-0.84 0.18,-1.2 0,-0.06 -0.06,-0.36 -0.18,-0.72 -0.06,-0.06 -0.3,-0.54 -0.36,-0.6 -0.84,-0.72 -2.34,-0.48 -3.42,-0.18 0,0.3 0.12,1.14 0,1.32 -0.3,0.54 -1.5,0.48 -2.4,0.54 -1.14,-1.68 -1.26,-2.7 1.14,-3.36 0.3,-1.14 0.54,-3.66 -1.14,-3.96 -2.58,-0.48 -2.28,2.28 -3.6,3.06 -1.08,0.6 -2.7,0.18 -3.9,0.9 -1.08,0.66 -0.78,5.16 0.18,5.64 0.78,0.42 1.56,0.12 2.22,0.6 1.32,0.78 1.38,2.4 1.14,4.32 -1.68,0.66 -2.04,0.72 -2.22,2.94 1.38,0.66 1.26,0.78 2.58,0 0.12,-0.06 0.78,-0.12 0.78,-0.18 0.18,-0.3 0,-1.08 0,-1.44 0.06,0 0.54,0 0.54,0 0.42,-0.12 0.48,-0.3 0.96,-0.24 2.28,0.18 2.46,2.04 1.86,3.96 -0.72,0.18 -1.56,0.3 -1.86,0.96 -0.36,0.66 -0.18,1.92 0,2.58 0.6,2.28 2.4,1.56 2.64,3 0.54,3.24 -2.58,3.36 -4.32,3.24 -0.42,1.32 -0.3,3.84 -1.14,4.86 -0.78,1.02 -3.42,0.84 -3.9,2.04 -0.6,1.62 -0.12,3.24 -1.38,4.14 -1.26,0.96 -1.86,-0.06 -2.58,1.86 -0.3,0.78 -0.48,1.44 0,2.22 0.06,0.12 0.42,0.54 0.54,0.6 0,0.06 0.18,0.18 0.18,0.18 0.84,0.6 2.04,0.3 3,0.72 1.08,0.54 0.72,3.06 1.92,3.6 0.42,0.24 1.5,0 1.5,0 0.36,-0.3 0.9,-0.36 1.08,-0.72 0.48,-0.9 0.18,-2.34 0.96,-2.88 0.66,-0.42 1.44,-0.12 2.46,-0.36 2.46,-0.54 1.86,-3.42 2.58,-5.76 1.38,0.06 3.9,0.24 4.38,-1.56 0.24,-1.08 -0.24,-2.1 -0.42,-2.76 -2.4,-0.6 -2.04,-1.32 -1.44,-3.42 1.02,-0.06 2.58,-0.12 2.94,0.9 0.06,0.36 -0.18,0.96 0,1.2 0.18,0.24 1.02,0.36 1.32,0.54 1.38,0.72 3.3,0.78 3.78,2.46 0.42,1.32 0.48,3.06 1.68,3.54 1.44,0.6 2.1,0 2.94,1.32 0.66,0.96 0.54,3.54 1.74,3.9 0.9,0.3 1.98,-0.06 2.76,0.18 2.46,0.66 1.98,3.24 4.74,3.24 0.84,-1.92 0.78,-3 -1.68,-3.42 -0.06,-0.3 0.12,-0.42 -0.18,-0.54 0,-1.86 0.12,-3.3 1.08,-4.08 0.84,-0.72 1.86,-0.42 2.1,-1.74 z m -31.92,-11.94 c -0.36,-0.6 -0.66,-0.54 -1.32,-0.84 -0.06,0.18 -0.6,0.3 -0.72,0.48 0.06,0.3 -0.12,0.72 0,1.08 0.36,1.08 3.96,1.56 2.04,-0.72 z m -6.54,4.8 c -0.78,0 -0.18,1.02 -0.18,1.02 0.3,-0.24 1.2,-0.96 0.18,-1.02 z m 41.82,11.46 c 0.6,-0.06 0.3,-1.14 -0.54,-1.08 -0.72,0.06 -0.24,1.14 0.54,1.08 z m -30.36,-6 c 0.9,0.36 1.62,2.52 -1.14,1.14 0,-0.36 0.18,-1.08 0.18,-1.14 0.3,0.12 0.6,-0.12 0.96,0 z" />
      <path
         id="path26"
         style="font-family:'Archia Bold';letter-spacing:0.075em"
         d="m 234.79422,100 h 8.88 V 66.4 h 11.22 V 58 h -31.32 v 8.4 h 11.22 z" />
      <path
         id="path28"
         style="font-family:'Archia Bold';letter-spacing:0.075em"
         d="m 265.11016,100 h 27 v -8.34 h -18.06 v -8.82 h 15.06 V 74.5 h -15.06 v -8.1 h 17.46 V 58 h -26.4 z" />
      <path
         id="path30"
         style="font-family:'Archia Bold';letter-spacing:0.075em"
         d="m 303.24297,100 h 8.7 V 67 h 0.72 l 5.94,33 h 12.9 l 6,-33 h 0.66 v 33 h 8.7 V 58 h -15.66 l -5.82,33 h -0.66 l -5.82,-33 h -15.66 z" />
      <path
         id="path32"
         style="font-family:'Archia Bold';letter-spacing:0.075em"
         d="m 359.77422,100 h 8.94 V 85.18 h 6 c 8.04,0 13.98,-5.58 13.98,-13.68 0,-8.16 -5.64,-13.5 -13.98,-13.5 h -14.94 z m 8.94,-23.16 v -10.5 h 5.64 c 3.24,0 5.34,2.16 5.34,5.16 0,3.06 -2.1,5.34 -5.34,5.34 z" />
      <path
         id="path34"
         style="font-family:'Archia Bold';letter-spacing:0.075em"
         d="m 419.29609,100.78 c 12.6,0 21.9,-9.54 21.9,-21.84 0,-12.18 -9.24,-21.72 -21.9,-21.72 -12.54,0 -21.9,9.42 -21.9,21.72 0,12.42 9.24,21.84 21.9,21.84 z m 0,-8.64 c -7.32,0 -12.66,-5.58 -12.66,-13.2 0,-7.5 5.34,-13.08 12.66,-13.08 7.2,0 12.66,5.58 12.66,13.08 0,7.62 -5.46,13.2 -12.66,13.2 z" />
      <path
         id="path36"
         style="font-family:'Archia Bold';letter-spacing:0.075em"
         d="m 452.32891,100 h 8.94 V 84.82 h 4.26 l 7.74,15.18 h 10.2 l -9.18,-16.56 c 4.86,-2.28 7.5,-6.66 7.5,-12.3 0,-7.86 -6.18,-13.14 -15,-13.14 h -14.46 z m 8.94,-23.28 V 66.34 h 5.34 c 4.02,0 5.88,2.28 5.88,4.98 0,3.48 -2.34,5.4 -5.58,5.4 z" />
      <path
         id="path38"
         style="font-family:'Archia Bold';letter-spacing:0.075em"
         d="m 520.63984,100 h 9.42 l -14.1,-42 h -12.6 l -14.22,42 h 9.6 l 2.7,-8.4 h 16.5 z m -16.62,-16.56 5.28,-16.44 h 0.66 l 5.34,16.44 z" />
      <path
         id="path40"
         style="font-family:'Archia Bold';letter-spacing:0.075em"
         d="m 539.02422,100 h 8.94 V 67 h 0.66 l 9.48,33 h 15.36 V 58 h -8.88 v 33 h -0.6 l -9.72,-33 h -15.24 z" />
      <path
         id="path42"
         style="font-family:'Archia Bold';letter-spacing:0.075em"
         d="m 586.41484,100 h 27 v -8.34 h -18.06 v -8.82 h 15.06 V 74.5 h -15.06 v -8.1 h 17.46 V 58 h -26.4 z" />
      <path
         id="path44"
         style="font-family:'Archia Bold';letter-spacing:0.075em"
         d="m 652.14766,100 h 9.42 l -14.1,-42 h -12.6 l -14.22,42 h 9.6 l 2.7,-8.4 h 16.5 z m -16.62,-16.56 5.28,-16.44 h 0.66 l 5.34,16.44 z" />
    </g>
  </g>
</svg>
