<?xml version="1.0" encoding="UTF-8" standalone="no"?>
<svg
   xmlns:dc="http://purl.org/dc/elements/1.1/"
   xmlns:cc="http://creativecommons.org/ns#"
   xmlns:rdf="http://www.w3.org/1999/02/22-rdf-syntax-ns#"
   xmlns:svg="http://www.w3.org/2000/svg"
   xmlns="http://www.w3.org/2000/svg"
   id="svg16"
   width="800px"
   version="1.1"
   height="200px">
  <metadata
     id="metadata20">
    <rdf:RDF>
      <cc:Work
         rdf:about="">
        <dc:format>image/svg+xml</dc:format>
        <dc:type
           rdf:resource="http://purl.org/dc/dcmitype/StillImage" />
      </cc:Work>
    </rdf:RDF>
  </metadata>
  <defs
     id="defs4">
    <style
       id="style2"
       type="text/css"><![CDATA[    
     @font-face {font-family:Archia Medium;
     src: url('/Users/francesco/Repos/write-logos/src/fonts/Fonts_E_TEMPORANEA/Archia-Medium.otf');}
     @font-face {font-family:Seven Segment;
     src: url('/Users/francesco/Repos/write-logos/src/fonts/Fonts_X/SevenSegment.ttf');}
     ]]></style>
  </defs>
  <g
     id="g14"
     style="font-size:60px">
    <g
       style="text-anchor:middle"
       id="text12"
       aria-label="EXTEMPORANEA">
      <path
         id="path22"
         style="font-family:'Archia Medium';letter-spacing:0.075em"
         d="m 149.54734,100 h 25.32 v -5.64 h -19.2 V 81.4 h 16.02 v -5.58 h -16.02 V 63.64 h 18.6 V 58 h -24.72 z" />
      <path
         id="path24"
         style="font-family:'Seven Segment';letter-spacing:0.05em"
         d="m 185.88086,97.539062 6.62109,-16.787109 2.46094,-1.083984 1.08398,2.490234 -6.62109,16.757813 L 186.96484,100 Z m 0,-37.11914 1.08398,-2.490235 2.46094,1.083985 6.62109,16.787109 -1.08398,2.460938 -2.46094,-1.083985 z m 12.74414,21.738281 1.08398,-2.490234 2.46094,1.083984 6.6211,16.787109 L 207.70703,100 205.2168,98.916016 Z m 0,-6.357422 6.5918,-16.787109 2.49023,-1.083985 1.08399,2.490235 -6.6211,16.757812 -2.46094,1.083985 z" />
      <path
         id="path26"
         style="font-family:'Archia Medium';letter-spacing:0.075em"
         d="m 229.13453,100 h 6.06 V 63.64 h 11.94 V 58 h -29.94 v 5.64 h 11.94 z" />
      <path
         id="path28"
         style="font-family:'Archia Medium';letter-spacing:0.075em"
         d="m 258.93016,100 h 25.32 v -5.64 h -19.2 V 81.4 h 16.02 v -5.58 h -16.02 V 63.64 h 18.6 V 58 h -24.72 z" />
      <path
         id="path30"
         style="font-family:'Archia Medium';letter-spacing:0.075em"
         d="m 297.18016,100 h 5.94 V 63.82 h 0.42 l 10.26,36.18 h 8.76 l 10.2,-36.18 h 0.48 V 100 h 5.88 V 58 h -10.56 l -10.2,36.18 h -0.42 l -10.2,-36.18 h -10.56 z" />
      <path
         id="path32"
         style="font-family:'Archia Medium';letter-spacing:0.075em"
         d="m 354.64891,100 h 6.12 V 83.92 h 8.04 c 7.62,0 13.26,-5.28 13.26,-13.02 0,-7.8 -5.4,-12.9 -13.26,-12.9 h -14.16 z m 6.12,-21.6 V 63.58 h 7.68 c 4.5,0 7.38,3.06 7.38,7.32 0,4.26 -2.88,7.5 -7.38,7.5 z" />
      <path
         id="path34"
         style="font-family:'Archia Medium';letter-spacing:0.075em"
         d="m 413.37953,100.78 c 12.3,0 21.6,-9.48 21.6,-21.78 0,-12.24 -9.24,-21.78 -21.54,-21.78 -12.3,0 -21.6,9.42 -21.6,21.78 0,12.42 9.24,21.78 21.54,21.78 z m 0.06,-5.82 c -8.7,0 -15.24,-6.72 -15.24,-15.96 0,-9.12 6.54,-15.96 15.24,-15.96 8.64,0 15.24,6.84 15.24,15.96 0,9.24 -6.6,15.96 -15.24,15.96 z" />
      <path
         id="path36"
         style="font-family:'Archia Medium';letter-spacing:0.075em"
         d="m 447.78953,100 h 6.12 V 83.56 h 6 l 9.78,16.44 h 7.32 l -10.86,-17.1 c 6.12,-1.5 9.36,-6.3 9.36,-12.36 0,-7.5 -5.4,-12.54 -14.04,-12.54 h -13.68 z m 6.12,-21.9 V 63.58 h 7.26 c 5.4,0 8.04,3.12 8.04,7.02 0,4.92 -3.3,7.5 -7.74,7.5 z" />
      <path
         id="path38"
         style="font-family:'Archia Medium';letter-spacing:0.075em"
         d="m 484.52641,100 h 6.3 l 3.36,-9.48 h 19.32 l 3.36,9.48 h 6.42 l -15,-42 h -8.58 z m 11.64,-15.06 7.44,-21.12 h 0.48 l 7.44,21.12 z" />
      <path
         id="path40"
         style="font-family:'Archia Medium';letter-spacing:0.075em"
         d="m 534.25047,100 h 6.12 V 63.82 h 0.42 l 15.96,36.18 h 10.32 V 58 h -6 v 36.18 h -0.42 l -16.2,-36.18 h -10.2 z" />
      <path
         id="path42"
         style="font-family:'Archia Medium';letter-spacing:0.075em"
         d="m 582.57859,100 h 25.32 v -5.64 h -19.2 V 81.4 h 16.02 v -5.58 h -16.02 V 63.64 h 18.6 V 58 h -24.72 z" />
      <path
         id="path44"
         style="font-family:'Archia Medium';letter-spacing:0.075em"
         d="m 616.26859,100 h 6.3 l 3.36,-9.48 h 19.32 l 3.36,9.48 h 6.42 l -15,-42 h -8.58 z m 11.64,-15.06 7.44,-21.12 h 0.48 l 7.44,21.12 z" />
    </g>
  </g>
</svg>
