<?xml version="1.0" encoding="UTF-8" standalone="no"?>
<svg
   xmlns:dc="http://purl.org/dc/elements/1.1/"
   xmlns:cc="http://creativecommons.org/ns#"
   xmlns:rdf="http://www.w3.org/1999/02/22-rdf-syntax-ns#"
   xmlns:svg="http://www.w3.org/2000/svg"
   xmlns="http://www.w3.org/2000/svg"
   id="svg16"
   width="800px"
   version="1.1"
   height="200px">
  <metadata
     id="metadata20">
    <rdf:RDF>
      <cc:Work
         rdf:about="">
        <dc:format>image/svg+xml</dc:format>
        <dc:type
           rdf:resource="http://purl.org/dc/dcmitype/StillImage" />
      </cc:Work>
    </rdf:RDF>
  </metadata>
  <defs
     id="defs4">
    <style
       id="style2"
       type="text/css"><![CDATA[    
     @font-face {font-family:Archia Medium;
     src: url('/Users/francesco/Repos/write-logos/src/fonts/Fonts_E_TEMPORANEA/Archia-Medium.otf');}
     @font-face {font-family:Zian;
     src: url('/Users/francesco/Repos/write-logos/src/fonts/Fonts_X/Zianfreepromo.ttf');}
     ]]></style>
  </defs>
  <g
     id="g14"
     style="font-size:60px">
    <g
       style="text-anchor:middle"
       id="text12"
       aria-label="EXTEMPORANEA">
      <path
         id="path22"
         style="font-family:'Archia Medium';letter-spacing:0.075em"
         d="m 141.87156,100 h 25.32 v -5.64 h -19.2 V 81.4 h 16.02 v -5.58 h -16.02 V 63.64 h 18.6 V 58 h -24.72 z" />
      <path
         id="path24"
         style="font-family:Zian;letter-spacing:0.05em"
         d="m 179.37695,57.988281 h 0.82032 q 2.08007,0 4.5996,2.8125 10.95704,10.839844 11.13282,10.869141 12.77343,-12.832031 13.35937,-13.007813 1.23047,-0.673828 2.19727,-0.673828 h 0.82031 q 2.7832,0 4.42383,3.222656 0.35156,0.84961 0.35156,1.494141 v 0.996094 q 0,2.255859 -3.92578,5.566406 l -9.78516,9.755859 q 0,0.08789 12.45118,12.363282 1.25976,1.49414 1.25976,3.046875 v 0.761718 q 0,3.222657 -3.83789,4.716797 Q 212.77539,100 212.48242,100 h -1.17187 q -2.13868,0 -5.27344,-3.632813 L 195.8418,86.40625 Q 185.11914,96.923828 182.7168,99.179687 181.39844,100 180.37305,100 h -1.17188 q -2.60742,0 -4.27734,-3.222656 -0.32227,-0.84961 -0.32227,-1.494141 v -0.761719 q 0,-2.548828 3.51563,-5.302734 L 188.3125,79.023437 v -0.05859 q -12.86133,-12.65625 -12.86133,-12.861328 -0.84961,-1.376954 -0.84961,-2.490235 v -0.732422 q 0,-2.90039 3.25196,-4.570312 0.8496,-0.322266 1.52343,-0.322266 z" />
      <path
         id="path26"
         style="font-family:'Archia Medium';letter-spacing:0.075em"
         d="m 236.81031,100 h 6.06 V 63.64 h 11.94 V 58 h -29.94 v 5.64 h 11.94 z" />
      <path
         id="path28"
         style="font-family:'Archia Medium';letter-spacing:0.075em"
         d="m 266.60594,100 h 25.32 v -5.64 h -19.2 V 81.4 h 16.02 v -5.58 h -16.02 V 63.64 h 18.6 V 58 h -24.72 z" />
      <path
         id="path30"
         style="font-family:'Archia Medium';letter-spacing:0.075em"
         d="m 304.85594,100 h 5.94 V 63.82 h 0.42 l 10.26,36.18 h 8.76 l 10.2,-36.18 h 0.48 V 100 h 5.88 V 58 h -10.56 l -10.2,36.18 h -0.42 l -10.2,-36.18 h -10.56 z" />
      <path
         id="path32"
         style="font-family:'Archia Medium';letter-spacing:0.075em"
         d="m 362.32469,100 h 6.12 V 83.92 h 8.04 c 7.62,0 13.26,-5.28 13.26,-13.02 0,-7.8 -5.4,-12.9 -13.26,-12.9 h -14.16 z m 6.12,-21.6 V 63.58 h 7.68 c 4.5,0 7.38,3.06 7.38,7.32 0,4.26 -2.88,7.5 -7.38,7.5 z" />
      <path
         id="path34"
         style="font-family:'Archia Medium';letter-spacing:0.075em"
         d="m 421.05531,100.78 c 12.3,0 21.6,-9.48 21.6,-21.78 0,-12.24 -9.24,-21.78 -21.54,-21.78 -12.3,0 -21.6,9.42 -21.6,21.78 0,12.42 9.24,21.78 21.54,21.78 z m 0.06,-5.82 c -8.7,0 -15.24,-6.72 -15.24,-15.96 0,-9.12 6.54,-15.96 15.24,-15.96 8.64,0 15.24,6.84 15.24,15.96 0,9.24 -6.6,15.96 -15.24,15.96 z" />
      <path
         id="path36"
         style="font-family:'Archia Medium';letter-spacing:0.075em"
         d="m 455.46531,100 h 6.12 V 83.56 h 6 l 9.78,16.44 h 7.32 l -10.86,-17.1 c 6.12,-1.5 9.36,-6.3 9.36,-12.36 0,-7.5 -5.4,-12.54 -14.04,-12.54 h -13.68 z m 6.12,-21.9 V 63.58 h 7.26 c 5.4,0 8.04,3.12 8.04,7.02 0,4.92 -3.3,7.5 -7.74,7.5 z" />
      <path
         id="path38"
         style="font-family:'Archia Medium';letter-spacing:0.075em"
         d="m 492.20219,100 h 6.3 l 3.36,-9.48 h 19.32 l 3.36,9.48 h 6.42 l -15,-42 h -8.58 z m 11.64,-15.06 7.44,-21.12 h 0.48 l 7.44,21.12 z" />
      <path
         id="path40"
         style="font-family:'Archia Medium';letter-spacing:0.075em"
         d="m 541.92625,100 h 6.12 V 63.82 h 0.42 l 15.96,36.18 h 10.32 V 58 h -6 v 36.18 h -0.42 l -16.2,-36.18 h -10.2 z" />
      <path
         id="path42"
         style="font-family:'Archia Medium';letter-spacing:0.075em"
         d="m 590.25437,100 h 25.32001 V 94.36 H 596.37437 V 81.4 h 16.02 v -5.58 h -16.02 V 63.64 h 18.6 V 58 h -24.72 z" />
      <path
         id="path44"
         style="font-family:'Archia Medium';letter-spacing:0.075em"
         d="m 623.94438,100 h 6.29999 l 3.36,-9.48 h 19.32001 l 3.35999,9.48 h 6.42001 l -15,-42 h -8.58001 z m 11.64,-15.06 7.43999,-21.12 h 0.48 l 7.44001,21.12 z" />
    </g>
  </g>
</svg>
