<?xml version="1.0" encoding="UTF-8" standalone="no"?>
<svg
   xmlns:dc="http://purl.org/dc/elements/1.1/"
   xmlns:cc="http://creativecommons.org/ns#"
   xmlns:rdf="http://www.w3.org/1999/02/22-rdf-syntax-ns#"
   xmlns:svg="http://www.w3.org/2000/svg"
   xmlns="http://www.w3.org/2000/svg"
   id="svg16"
   width="800px"
   version="1.1"
   height="200px">
  <metadata
     id="metadata20">
    <rdf:RDF>
      <cc:Work
         rdf:about="">
        <dc:format>image/svg+xml</dc:format>
        <dc:type
           rdf:resource="http://purl.org/dc/dcmitype/StillImage" />
      </cc:Work>
    </rdf:RDF>
  </metadata>
  <defs
     id="defs4">
    <style
       id="style2"
       type="text/css"><![CDATA[    
     @font-face {font-family:Archia Medium;
     src: url('/Users/francesco/Repos/write-logos/src/fonts/Fonts_E_TEMPORANEA/Archia-Medium.otf');}
     @font-face {font-family:Modak;
     src: url('/Users/francesco/Repos/write-logos/src/fonts/Fonts_X/Modak-Regular.ttf');}
     ]]></style>
  </defs>
  <g
     id="g14"
     style="font-size:60px">
    <g
       style="text-anchor:middle"
       id="text12"
       aria-label="EXTEMPORANEA">
      <path
         id="path22"
         style="font-family:'Archia Medium';letter-spacing:0.075em"
         d="m 145.73875,100 h 25.32 v -5.64 h -19.2 V 81.4 h 16.02 v -5.58 h -16.02 V 63.64 h 18.6 V 58 h -24.72 z" />
      <path
         id="path24"
         style="font-family:Modak;letter-spacing:0.05em"
         d="m 197.57031,93.115234 -3.39844,6.621094 q -2.19726,0.820312 -4.77539,0.820312 -4.54101,0 -7.4414,-2.578124 -2.90039,-2.578125 -2.90039,-6.94336 0,-3.867187 2.60742,-6.884765 2.60742,-3.017579 7.38281,-5.06836 -0.35156,-0.966797 -1.20117,-0.966797 -0.84961,0 -3.10547,1.552735 -2.19726,-1.142578 -3.86719,-3.779297 -1.64062,-2.636719 -1.64062,-6.09375 0,-3.457031 2.54883,-5.917969 2.54882,-2.460937 7.03125,-2.460937 3.86718,0 6.35742,1.435546 l 3.10547,6.181641 2.51953,-6.328125 q 2.49023,-1.113281 5.5664,-1.113281 4.36524,0 7.08985,2.402344 2.72461,2.460937 2.72461,6.884765 0,3.66211 -2.63672,6.884766 -2.60742,3.193359 -6.70899,5.068359 0.32227,0.84961 1.14258,0.84961 0.84961,0 2.72461,-1.289063 l 6.03516,7.558594 q 0,4.716797 -2.34375,7.529297 -2.57813,3.105471 -7.11914,3.105471 -6.91406,0 -9.69727,-7.470706 z" />
      <path
         id="path26"
         style="font-family:'Archia Medium';letter-spacing:0.075em"
         d="m 232.94312,100 h 6.06 V 63.64 h 11.94 V 58 h -29.94 v 5.64 h 11.94 z" />
      <path
         id="path28"
         style="font-family:'Archia Medium';letter-spacing:0.075em"
         d="m 262.73875,100 h 25.32 v -5.64 h -19.2 V 81.4 h 16.02 v -5.58 h -16.02 V 63.64 h 18.6 V 58 h -24.72 z" />
      <path
         id="path30"
         style="font-family:'Archia Medium';letter-spacing:0.075em"
         d="m 300.98875,100 h 5.94 V 63.82 h 0.42 l 10.26,36.18 h 8.76 l 10.2,-36.18 h 0.48 V 100 h 5.88 V 58 h -10.56 l -10.2,36.18 h -0.42 l -10.2,-36.18 h -10.56 z" />
      <path
         id="path32"
         style="font-family:'Archia Medium';letter-spacing:0.075em"
         d="m 358.4575,100 h 6.12 V 83.92 h 8.04 c 7.62,0 13.26,-5.28 13.26,-13.02 0,-7.8 -5.4,-12.9 -13.26,-12.9 h -14.16 z m 6.12,-21.6 V 63.58 h 7.68 c 4.5,0 7.38,3.06 7.38,7.32 0,4.26 -2.88,7.5 -7.38,7.5 z" />
      <path
         id="path34"
         style="font-family:'Archia Medium';letter-spacing:0.075em"
         d="m 417.18813,100.78 c 12.29999,0 21.59999,-9.48 21.59999,-21.78 0,-12.24 -9.23999,-21.78 -21.53999,-21.78 -12.30001,0 -21.60001,9.42 -21.60001,21.78 0,12.42 9.24,21.78 21.54001,21.78 z m 0.06,-5.82 c -8.7,0 -15.24001,-6.72 -15.24001,-15.96 0,-9.12 6.54001,-15.96 15.24001,-15.96 8.63999,0 15.24,6.84 15.24,15.96 0,9.24 -6.60001,15.96 -15.24,15.96 z" />
      <path
         id="path36"
         style="font-family:'Archia Medium';letter-spacing:0.075em"
         d="m 451.59812,100 h 6.12 V 83.56 h 6 l 9.78001,16.44 h 7.31999 l -10.86,-17.1 c 6.12,-1.5 9.36,-6.3 9.36,-12.36 0,-7.5 -5.4,-12.54 -14.04,-12.54 h -13.68 z m 6.12,-21.9 V 63.58 h 7.26 c 5.4,0 8.04,3.12 8.04,7.02 0,4.92 -3.3,7.5 -7.74,7.5 z" />
      <path
         id="path38"
         style="font-family:'Archia Medium';letter-spacing:0.075em"
         d="m 488.335,100 h 6.3 l 3.36,-9.48 h 19.32 l 3.36,9.48 h 6.42 l -15,-42 h -8.58 z m 11.64,-15.06 7.44,-21.12 h 0.48 l 7.44,21.12 z" />
      <path
         id="path40"
         style="font-family:'Archia Medium';letter-spacing:0.075em"
         d="m 538.05906,100 h 6.12 V 63.82 h 0.42 l 15.96,36.18 h 10.32 V 58 h -6 v 36.18 h -0.42 l -16.2,-36.18 h -10.2 z" />
      <path
         id="path42"
         style="font-family:'Archia Medium';letter-spacing:0.075em"
         d="m 586.38719,100 h 25.32 v -5.64 h -19.2 V 81.4 h 16.02 v -5.58 h -16.02 V 63.64 h 18.6 V 58 h -24.72 z" />
      <path
         id="path44"
         style="font-family:'Archia Medium';letter-spacing:0.075em"
         d="m 620.07719,100 h 6.3 l 3.36,-9.48 h 19.32 l 3.36,9.48 h 6.42 l -15,-42 h -8.58 z m 11.64,-15.06 7.44,-21.12 h 0.48 l 7.44,21.12 z" />
    </g>
  </g>
</svg>
