<?xml version="1.0" encoding="UTF-8" standalone="no"?>
<svg
   xmlns:dc="http://purl.org/dc/elements/1.1/"
   xmlns:cc="http://creativecommons.org/ns#"
   xmlns:rdf="http://www.w3.org/1999/02/22-rdf-syntax-ns#"
   xmlns:svg="http://www.w3.org/2000/svg"
   xmlns="http://www.w3.org/2000/svg"
   id="svg16"
   width="800px"
   version="1.1"
   height="200px">
  <metadata
     id="metadata20">
    <rdf:RDF>
      <cc:Work
         rdf:about="">
        <dc:format>image/svg+xml</dc:format>
        <dc:type
           rdf:resource="http://purl.org/dc/dcmitype/StillImage" />
      </cc:Work>
    </rdf:RDF>
  </metadata>
  <defs
     id="defs4">
    <style
       id="style2"
       type="text/css"><![CDATA[    
     @font-face {font-family:Archia Medium;
     src: url('/Users/francesco/Repos/write-logos/src/fonts/Fonts_E_TEMPORANEA/Archia-Medium.otf');}
     @font-face {font-family:Emblema One;
     src: url('/Users/francesco/Repos/write-logos/src/fonts/Fonts_X/EmblemaOne-Regular.ttf');}
     ]]></style>
  </defs>
  <g
     id="g14"
     style="font-size:60px">
    <g
       style="text-anchor:middle"
       id="text12"
       aria-label="EXTEMPORANEA">
      <path
         id="path22"
         style="font-family:'Archia Medium';letter-spacing:0.075em"
         d="m 144.56687,100 h 25.32 v -5.64 h -19.2 V 81.4 h 16.02 v -5.58 h -16.02 V 63.64 h 18.6 V 58 h -24.72 z" />
      <path
         id="path24"
         style="font-family:'Emblema One';letter-spacing:0.05em"
         d="m 196.48633,100 q -5.88867,-20.214844 -14.17969,-37.96875 0,-0.380859 0.9375,-1.142578 0.9668,-0.761719 1.64063,-0.761719 h 15 q 3.33984,11.425781 6.41601,19.746094 3.07617,8.291015 7.73438,18.193359 0,0.38086 -0.9375,1.171875 Q 212.16016,100 211.48633,100 Z m 11.39648,-21.123047 q 1.66992,-5.537109 1.66992,-9.609375 0,-1.933594 -0.35156,-3.398437 -0.35156,-1.494141 -1.23047,-3.837891 0,-0.380859 0.9375,-1.142578 0.9668,-0.761719 1.64063,-0.761719 h 9.3457 q -3.48633,5.332031 -5.71289,9.140625 -2.22656,3.808594 -3.75,7.617188 -0.17578,0.46875 -1.02539,1.230468 -0.84961,0.761719 -1.52344,0.761719 z m -19.33594,2.255859 q -1.66992,5.361329 -1.66992,9.052735 0,3.691406 1.58203,7.880859 0,0.38086 -0.96679,1.171875 Q 186.55469,100 185.88086,100 h -9.375 q 6.88476,-10.576172 9.46289,-16.933594 0.17578,-0.46875 1.02539,-1.201172 0.87891,-0.732422 1.55273,-0.732422 z" />
      <path
         id="path26"
         style="font-family:'Archia Medium';letter-spacing:0.075em"
         d="m 234.115,100 h 6.06 V 63.64 h 11.94 V 58 h -29.94 v 5.64 h 11.94 z" />
      <path
         id="path28"
         style="font-family:'Archia Medium';letter-spacing:0.075em"
         d="m 263.91062,100 h 25.32 v -5.64 h -19.2 V 81.4 h 16.02001 V 75.82 H 270.03062 V 63.64 h 18.6 V 58 h -24.72 z" />
      <path
         id="path30"
         style="font-family:'Archia Medium';letter-spacing:0.075em"
         d="m 302.16062,100 h 5.94 V 63.82 h 0.42 l 10.26,36.18 h 8.76 l 10.20001,-36.18 h 0.47999 V 100 h 5.88 V 58 h -10.56 l -10.2,36.18 h -0.42 l -10.2,-36.18 h -10.56 z" />
      <path
         id="path32"
         style="font-family:'Archia Medium';letter-spacing:0.075em"
         d="m 359.62937,100 h 6.12 V 83.92 h 8.04 c 7.62,0 13.26,-5.28 13.26,-13.02 0,-7.8 -5.39999,-12.9 -13.26,-12.9 h -14.16 z m 6.12,-21.6 V 63.58 h 7.68 c 4.5,0 7.38,3.06 7.38,7.32 0,4.26 -2.88,7.5 -7.38,7.5 z" />
      <path
         id="path34"
         style="font-family:'Archia Medium';letter-spacing:0.075em"
         d="m 418.36,100.78 c 12.3,0 21.6,-9.48 21.6,-21.78 0,-12.24 -9.24,-21.78 -21.54,-21.78 -12.3,0 -21.6,9.42 -21.6,21.78 0,12.42 9.24,21.78 21.54,21.78 z m 0.06,-5.82 c -8.7,0 -15.24,-6.72 -15.24,-15.96 0,-9.12 6.54,-15.96 15.24,-15.96 8.64,0 15.24,6.84 15.24,15.96 0,9.24 -6.6,15.96 -15.24,15.96 z" />
      <path
         id="path36"
         style="font-family:'Archia Medium';letter-spacing:0.075em"
         d="m 452.77,100 h 6.12 V 83.56 h 6 l 9.78,16.44 h 7.32 L 471.13,82.9 c 6.12,-1.5 9.36,-6.3 9.36,-12.36 0,-7.5 -5.4,-12.54 -14.04,-12.54 h -13.68 z m 6.12,-21.9 V 63.58 h 7.26 c 5.4,0 8.04,3.12 8.04,7.02 0,4.92 -3.3,7.5 -7.74,7.5 z" />
      <path
         id="path38"
         style="font-family:'Archia Medium';letter-spacing:0.075em"
         d="m 489.50687,100 h 6.3 l 3.36,-9.48 h 19.32001 l 3.35999,9.48 h 6.42001 l -15,-42 h -8.58001 z m 11.64001,-15.06 7.44,-21.12 h 0.47999 l 7.44001,21.12 z" />
      <path
         id="path40"
         style="font-family:'Archia Medium';letter-spacing:0.075em"
         d="m 539.23094,100 h 6.12 V 63.82 h 0.42 l 15.96,36.18 h 10.32 V 58 h -6 v 36.18 h -0.42 l -16.2,-36.18 h -10.2 z" />
      <path
         id="path42"
         style="font-family:'Archia Medium';letter-spacing:0.075em"
         d="m 587.55906,100 h 25.32 v -5.64 h -19.2 V 81.4 h 16.02 v -5.58 h -16.02 V 63.64 h 18.6 V 58 h -24.72 z" />
      <path
         id="path44"
         style="font-family:'Archia Medium';letter-spacing:0.075em"
         d="m 621.24906,100 h 6.3 l 3.36,-9.48 h 19.32 l 3.36,9.48 h 6.42 l -15,-42 h -8.58 z m 11.64,-15.06 7.44,-21.12 h 0.48 l 7.44,21.12 z" />
    </g>
  </g>
</svg>
