<?xml version="1.0" encoding="UTF-8" standalone="no"?>
<svg
   xmlns:dc="http://purl.org/dc/elements/1.1/"
   xmlns:cc="http://creativecommons.org/ns#"
   xmlns:rdf="http://www.w3.org/1999/02/22-rdf-syntax-ns#"
   xmlns:svg="http://www.w3.org/2000/svg"
   xmlns="http://www.w3.org/2000/svg"
   id="svg16"
   width="800px"
   version="1.1"
   height="200px">
  <metadata
     id="metadata20">
    <rdf:RDF>
      <cc:Work
         rdf:about="">
        <dc:format>image/svg+xml</dc:format>
        <dc:type
           rdf:resource="http://purl.org/dc/dcmitype/StillImage" />
      </cc:Work>
    </rdf:RDF>
  </metadata>
  <defs
     id="defs4">
    <style
       id="style2"
       type="text/css"><![CDATA[    
     @font-face {font-family:Archia Bold;
     src: url('/Users/francesco/Repos/write-logos/src/fonts/Fonts_E_TEMPORANEA/Archia-Bold.otf');}
     @font-face {font-family:Emblema One;
     src: url('/Users/francesco/Repos/write-logos/src/fonts/Fonts_X/EmblemaOne-Regular.ttf');}
     ]]></style>
  </defs>
  <g
     id="g14"
     style="font-size:60px">
    <g
       style="text-anchor:middle"
       id="text12"
       aria-label="EXTEMPORANEA">
      <path
         id="path22"
         style="font-family:'Archia Bold';letter-spacing:0.075em"
         d="m 143.71562,100 h 27 v -8.34 h -18.06 v -8.82 h 15.06 V 74.5 h -15.06 v -8.1 h 17.46 V 58 h -26.4 z" />
      <path
         id="path24"
         style="font-family:'Emblema One';letter-spacing:0.05em"
         d="m 196.83789,100 q -5.88867,-20.214844 -14.17969,-37.96875 0,-0.380859 0.9375,-1.142578 0.9668,-0.761719 1.64063,-0.761719 h 15 q 3.33984,11.425781 6.41601,19.746094 3.07618,8.291015 7.73438,18.193359 0,0.38086 -0.9375,1.171875 Q 212.51172,100 211.83789,100 Z m 11.39648,-21.123047 q 1.66993,-5.537109 1.66993,-9.609375 0,-1.933594 -0.35157,-3.398437 -0.35156,-1.494141 -1.23046,-3.837891 0,-0.380859 0.9375,-1.142578 0.96679,-0.761719 1.64062,-0.761719 h 9.3457 q -3.48632,5.332031 -5.71289,9.140625 -2.22656,3.808594 -3.75,7.617188 -0.17578,0.46875 -1.02539,1.230468 -0.84961,0.761719 -1.52344,0.761719 z m -19.33593,2.255859 q -1.66992,5.361329 -1.66992,9.052735 0,3.691406 1.58203,7.880859 0,0.38086 -0.9668,1.171875 Q 186.90625,100 186.23242,100 h -9.375 q 6.88477,-10.576172 9.46289,-16.933594 0.17578,-0.46875 1.02539,-1.201172 0.87891,-0.732422 1.55274,-0.732422 z" />
      <path
         id="path26"
         style="font-family:'Archia Bold';letter-spacing:0.075em"
         d="m 233.44656,100 h 8.88 V 66.4 h 11.22 V 58 h -31.32 v 8.4 h 11.22 z" />
      <path
         id="path28"
         style="font-family:'Archia Bold';letter-spacing:0.075em"
         d="m 263.7625,100 h 27 v -8.34 h -18.06 v -8.82 h 15.06 V 74.5 h -15.06 v -8.1 h 17.46 V 58 h -26.4 z" />
      <path
         id="path30"
         style="font-family:'Archia Bold';letter-spacing:0.075em"
         d="m 301.89531,100 h 8.7 V 67 h 0.72 l 5.94,33 h 12.9 l 6,-33 h 0.66 v 33 h 8.7 V 58 h -15.66 l -5.82,33 h -0.66 l -5.82,-33 h -15.66 z" />
      <path
         id="path32"
         style="font-family:'Archia Bold';letter-spacing:0.075em"
         d="m 358.42656,100 h 8.94 V 85.18 h 6 c 8.04,0 13.98,-5.58 13.98,-13.68 0,-8.16 -5.64,-13.5 -13.98,-13.5 h -14.94 z m 8.94,-23.16 v -10.5 h 5.64 c 3.24,0 5.34,2.16 5.34,5.16 0,3.06 -2.1,5.34 -5.34,5.34 z" />
      <path
         id="path34"
         style="font-family:'Archia Bold';letter-spacing:0.075em"
         d="m 417.94844,100.78 c 12.6,0 21.9,-9.54 21.9,-21.84 0,-12.18 -9.24,-21.72 -21.9,-21.72 -12.54,0 -21.9,9.42 -21.9,21.72 0,12.42 9.24,21.84 21.9,21.84 z m 0,-8.64 c -7.32,0 -12.66,-5.58 -12.66,-13.2 0,-7.5 5.34,-13.08 12.66,-13.08 7.2,0 12.66,5.58 12.66,13.08 0,7.62 -5.46,13.2 -12.66,13.2 z" />
      <path
         id="path36"
         style="font-family:'Archia Bold';letter-spacing:0.075em"
         d="m 450.98125,100 h 8.94 V 84.82 h 4.26 l 7.74,15.18 h 10.2 l -9.18,-16.56 c 4.86,-2.28 7.5,-6.66 7.5,-12.3 0,-7.86 -6.18,-13.14 -15,-13.14 h -14.46 z m 8.94,-23.28 V 66.34 h 5.34 c 4.02,0 5.88,2.28 5.88,4.98 0,3.48 -2.34,5.4 -5.58,5.4 z" />
      <path
         id="path38"
         style="font-family:'Archia Bold';letter-spacing:0.075em"
         d="m 519.29219,100 h 9.42 l -14.1,-42 h -12.6 l -14.22,42 h 9.6 l 2.7,-8.4 h 16.5 z m -16.62,-16.56 5.28,-16.44 h 0.66 l 5.34,16.44 z" />
      <path
         id="path40"
         style="font-family:'Archia Bold';letter-spacing:0.075em"
         d="m 537.67656,100 h 8.94 V 67 h 0.66 l 9.48,33 h 15.36 V 58 h -8.88 v 33 h -0.6 l -9.72,-33 h -15.24 z" />
      <path
         id="path42"
         style="font-family:'Archia Bold';letter-spacing:0.075em"
         d="m 585.06719,100 h 27 v -8.34 h -18.06 v -8.82 h 15.06 V 74.5 h -15.06 v -8.1 h 17.46 V 58 h -26.4 z" />
      <path
         id="path44"
         style="font-family:'Archia Bold';letter-spacing:0.075em"
         d="m 650.8,100 h 9.42 l -14.1,-42 h -12.6 l -14.22,42 h 9.6 l 2.7,-8.4 h 16.5 z M 634.18,83.44 639.46,67 h 0.66 l 5.34,16.44 z" />
    </g>
  </g>
</svg>
