<?xml version="1.0" encoding="UTF-8" standalone="no"?>
<svg
   xmlns:dc="http://purl.org/dc/elements/1.1/"
   xmlns:cc="http://creativecommons.org/ns#"
   xmlns:rdf="http://www.w3.org/1999/02/22-rdf-syntax-ns#"
   xmlns:svg="http://www.w3.org/2000/svg"
   xmlns="http://www.w3.org/2000/svg"
   id="svg16"
   width="800px"
   version="1.1"
   height="200px">
  <metadata
     id="metadata20">
    <rdf:RDF>
      <cc:Work
         rdf:about="">
        <dc:format>image/svg+xml</dc:format>
        <dc:type
           rdf:resource="http://purl.org/dc/dcmitype/StillImage" />
      </cc:Work>
    </rdf:RDF>
  </metadata>
  <defs
     id="defs4">
    <style
       id="style2"
       type="text/css"><![CDATA[    
     @font-face {font-family:Balik Kampung;
     src: url('/Users/francesco/Repos/write-logos/src/fonts/Balik_Kampung.ttf');}
     @font-face {font-family:Lovely Melody;
     src: url('/Users/francesco/Repos/write-logos/src/fonts/LovelyMelody.ttf');}
     ]]></style>
  </defs>
  <g
     id="g14"
     style="font-size:60px">
    <g
       style="text-anchor:middle"
       id="text12"
       aria-label="eXtemporanea">
      <path
         id="path22"
         style="font-family:'Balik Kampung'"
         d="m 231.03531,84.58 -0.3,9.24 10.86,-0.48 0.12,-4.02 q 0.06,-1.08 0.84,-1.8 0.78,-0.78 1.86,-0.72 1.08,0 1.8,0.78 0.78,0.78 0.78,1.86 l -0.18,6.48 q 0,0.96 -0.78,1.74 -0.72,0.78 -1.74,0.84 l -16.2,0.72 q -1.44,0.06 -2.16,-0.78 -0.66,-0.9 -0.6,-1.98 l 0.9,-25.92 q 0.06,-1.02 0.84,-1.74 0.78,-0.78 1.86,-0.78 l 15.66,0.18 q 0.9,0 1.68,0.72 0.78,0.66 0.9,1.62 l 1.08,9.9 q 0.12,1.14 -0.6,1.98 -0.72,0.84 -1.8,0.96 z m 0.18,-5.34 11.46,-0.9 -0.54,-4.86 -10.74,-0.18 z" />
      <path
         id="path24"
         style="font-family:'Lovely Melody'"
         d="m 264.6175,80.32 q -0.42,0.42 -1.08,1.14 -0.66,0.72 -2.4,2.88 -1.74,2.16 -3.06,4.32 -1.32,2.1 -2.4,5.04 -1.08,2.88 -1.08,5.34 v 0.78 h -0.12 q -0.96,0 -1.98,-0.6 -0.96,-0.6 -1.02,-1.92 -0.06,-0.36 -0.06,-1.08 0,-2.64 1.2,-5.76 1.26,-3.12 3,-5.64 1.74,-2.58 3.48,-4.74 1.74,-2.16 3,-3.36 l 1.2,-1.26 q -0.24,-3.18 -1.92,-7.86 -1.62,-4.68 -3.42,-4.68 h -0.06 q -2.16,0.12 -3.78,2.04 -1.56,1.86 -1.56,4.26 0,0.06 0,0.24 0.06,0.18 0.06,0.3 -0.36,0.12 -0.6,0.12 -1.26,0 -1.38,-1.86 v -0.24 q 0,-2.22 1.86,-4.44 1.86,-2.28 4.32,-2.52 h 0.48 q 1.98,0 3.72,1.14 1.74,1.08 2.82,2.7 1.08,1.62 1.86,3.24 0.84,1.62 1.2,2.7 l 0.3,1.14 q 1.08,-0.84 2.82,-2.1 1.8,-1.32 5.4,-3.54 3.66,-2.22 5.22,-2.34 h 0.12 q 1.5,0 1.5,1.98 0,0.9 -0.36,1.62 -0.36,0.66 -0.96,0.72 -1.44,0.12 -4.56,2.1 -3.12,1.92 -5.52,3.84 l -2.4,1.92 q 0.12,0.48 0.3,1.32 0.24,0.84 0.9,3.24 0.72,2.4 1.38,4.62 0.72,2.16 1.8,4.86 1.08,2.7 2.1,4.62 1.02,1.92 2.28,3.24 1.26,1.32 2.46,1.32 h 0.06 q 1.86,-0.06 3.42,-1.2 1.56,-1.2 2.46,-2.88 0.96,-1.68 1.56,-3.36 0.66,-1.68 0.9,-2.88 l 0.24,-1.14 v -0.06 q 0,-0.54 0.72,-0.54 1.2,0 1.2,1.08 -0.06,0.54 -0.24,1.38 -0.18,0.84 -0.96,3.06 -0.72,2.22 -1.8,3.96 -1.02,1.68 -3,3.12 -1.98,1.38 -4.44,1.44 h -0.24 q -2.58,0 -4.8,-1.14 -2.16,-1.14 -3.66,-2.94 -1.5,-1.86 -2.7,-4.08 -1.2,-2.28 -1.86,-4.5 -0.66,-2.22 -1.14,-4.02 -0.48,-1.86 -0.66,-3 z" />
      <path
         id="path26"
         style="font-family:'Balik Kampung'"
         d="m 293.78031,52 q 0.84,-0.78 1.92,-0.72 1.08,0.06 1.8,0.9 0.78,0.78 0.72,1.86 l -0.54,11.52 7.68,0.66 q 1.08,0.06 1.8,0.9 0.78,0.78 0.72,1.86 -0.06,1.08 -0.9,1.86 -0.78,0.72 -1.86,0.66 l -7.68,-0.66 -1.08,23.88 6.9,0.42 -0.3,-9.84 q 0,-1.08 0.72,-1.86 0.78,-0.78 1.86,-0.78 1.08,-0.06 1.86,0.72 0.78,0.72 0.84,1.8 l 0.36,12.6 q 0.06,1.2 -0.78,1.98 -0.84,0.78 -1.92,0.72 l -12.36,-0.54 q -1.14,-0.06 -1.92,-0.84 -0.72,-0.84 -0.66,-1.92 l 1.98,-43.38 q 0.06,-1.08 0.84,-1.8 z" />
      <path
         id="path28"
         style="font-family:'Balik Kampung'"
         d="m 319.62906,84.58 -0.3,9.24 10.86,-0.48 0.12,-4.02 q 0.06,-1.08 0.84,-1.8 0.78,-0.78 1.86,-0.72 1.08,0 1.8,0.78 0.78,0.78 0.78,1.86 l -0.18,6.48 q 0,0.96 -0.78,1.74 -0.72,0.78 -1.74,0.84 l -16.2,0.72 q -1.44,0.06 -2.16,-0.78 -0.66,-0.9 -0.6,-1.98 l 0.9,-25.92 q 0.06,-1.02 0.84,-1.74 0.78,-0.78 1.86,-0.78 l 15.66,0.18 q 0.9,0 1.68,0.72 0.78,0.66 0.9,1.62 l 1.08,9.9 q 0.12,1.14 -0.6,1.98 -0.72,0.84 -1.8,0.96 z m 0.18,-5.34 11.46,-0.9 -0.54,-4.86 -10.74,-0.18 z" />
      <path
         id="path30"
         style="font-family:'Balik Kampung'"
         d="m 342.95125,65.56 q 0.78,-0.78 1.86,-0.78 1.08,0 1.86,0.78 0.78,0.78 0.78,1.86 v 0.96 l 12.84,-2.64 q 1.08,-0.24 2.1,0.3 1.02,0.54 1.08,2.16 v 0.18 l 12.78,-1.98 q 1.5,-0.18 2.22,0.66 0.78,0.78 0.84,1.86 l -0.24,28.62 q 0.06,1.02 -0.72,1.86 -0.72,0.84 -1.8,0.9 -1.02,0.06 -1.86,-0.66 -0.84,-0.78 -0.9,-1.86 l 0.42,-25.68 -10.5,1.56 -0.66,23.58 q 0.06,1.08 -0.72,1.92 -0.72,0.78 -1.8,0.84 -1.08,0.06 -1.92,-0.66 -0.78,-0.78 -0.84,-1.86 l 0.54,-25.98 -10.86,2.28 v 23.94 q 0,1.08 -0.78,1.86 -0.78,0.78 -1.86,0.78 -1.08,0 -1.86,-0.78 -0.78,-0.78 -0.78,-1.86 v -30.3 q 0,-1.08 0.78,-1.86 z" />
      <path
         id="path32"
         style="font-family:'Balik Kampung'"
         d="m 390.83594,99.46 0.36,10.86 q 0.06,1.08 -0.72,1.86 -0.78,0.84 -1.86,0.9 -1.02,0.06 -1.86,-0.72 -0.78,-0.78 -0.84,-1.8 l -1.44,-41.94 q -0.06,-1.08 0.6,-1.92 0.72,-0.9 2.16,-0.84 l 19.26,0.9 q 1.08,0.06 1.8,0.9 0.78,0.84 0.72,1.8 l -0.9,28.26 q -0.06,1.08 -0.84,1.86 -0.78,0.78 -1.98,0.72 z m -0.18,-5.28 12.24,0.66 0.78,-22.92 -13.8,-0.66 z" />
      <path
         id="path34"
         style="font-family:'Balik Kampung'"
         d="m 420.48156,94.84 11.88,-0.18 1.02,-23.28 -13.74,1.14 z m -5.16,2.76 -1.08,-27.36 q -0.06,-1.08 0.66,-1.86 0.78,-0.78 1.74,-0.9 l 19.26,-1.62 q 1.08,-0.06 1.98,0.6 0.96,0.6 0.9,2.16 l -1.26,28.8 q -0.06,1.02 -0.84,1.8 -0.78,0.72 -1.8,0.72 l -16.92,0.18 q -1.02,0 -1.8,-0.72 -0.78,-0.78 -0.84,-1.8 z" />
      <path
         id="path36"
         style="font-family:'Balik Kampung'"
         d="m 446.58719,65.32 q 1.02,0 1.8,0.66 0.78,0.66 0.9,1.68 l 6.54,-1.74 q 1.62,-0.3 2.28,0.66 l 4.02,6.48 q 0.6,0.96 0.72,2.4 0.12,1.44 -0.6,2.28 -0.78,0.84 -2.04,0.9 -1.2,0.06 -1.74,-0.78 l -3.12,-5.52 -5.94,1.68 0.78,24.66 q 0.06,1.08 -0.72,1.86 -0.78,0.78 -1.86,0.84 -1.08,0.06 -1.86,-0.72 -0.78,-0.78 -0.84,-1.86 l -0.9,-30.78 q -0.06,-1.08 0.72,-1.86 0.78,-0.78 1.86,-0.84 z" />
      <path
         id="path38"
         style="font-family:'Balik Kampung'"
         d="m 484.90188,71.38 -11.94,-0.06 1.25999,22.5 9.78,-0.9 q 0.18,-4.14 0.48,-11.82 0.30001,-7.74 0.42001,-9.72 z m 2.75999,-5.28 q 1.14,0 1.86001,0.84 0.77999,0.84 0.77999,1.92 l -1.08,26.64 v 3.24 q -0.06,1.08 -0.84,1.8 -0.78,0.78 -1.85999,0.78 -1.14001,0 -2.22001,-0.84 -1.01999,-0.84 -0.95999,-1.86 v -0.3 l -11.46001,0.96 q -1.14,0.06 -1.97999,-0.66 -0.78001,-0.78 -0.84001,-1.86 l -1.5,-27.96 q -0.06,-1.2 0.72001,-1.98 0.83999,-0.78 1.91999,-0.78 z" />
      <path
         id="path40"
         style="font-family:'Balik Kampung'"
         d="m 496.34969,65.92 q 0.78,-0.78 1.86,-0.78 1.08,0 1.86,0.78 0.78,0.78 0.78,1.86 v 0.72 l 13.2,-2.76 q 0.48,0 1.14,-0.06 0.66,-0.06 1.32,0.6 0.66,0.66 0.72,1.92 l 1.26,29.34 q 0,0.72 -0.36,1.38 -0.3,0.6 -0.9,0.96 -0.54,0.36 -1.26,0.42 -1.08,0.06 -1.92,-0.66 -0.78,-0.78 -0.84,-1.86 l -1.14,-26.22 -11.22,2.28 V 98.2 q 0,1.08 -0.78,1.86 -0.78,0.78 -1.86,0.78 -1.08,0 -1.86,-0.78 -0.78,-0.78 -0.78,-1.86 V 67.78 q 0,-1.08 0.78,-1.86 z" />
      <path
         id="path42"
         style="font-family:'Balik Kampung'"
         d="m 529.39469,84.58 -0.3,9.24 10.86,-0.48 0.12,-4.02 q 0.06,-1.08 0.84,-1.8 0.78,-0.78 1.86,-0.72 1.08,0 1.8,0.78 0.78,0.78 0.78,1.86 l -0.18,6.48 q 0,0.96 -0.78,1.74 -0.72,0.78 -1.74,0.84 l -16.2,0.72 q -1.44,0.06 -2.16,-0.78 -0.66,-0.9 -0.6,-1.98 l 0.9,-25.92 q 0.06,-1.02 0.84,-1.74 0.78,-0.78 1.86,-0.78 l 15.66,0.18 q 0.9,0 1.68,0.72 0.78,0.66 0.9,1.62 l 1.08,9.9 q 0.12,1.14 -0.6,1.98 -0.72,0.84 -1.8,0.96 z m 0.18,-5.34 11.46,-0.9 -0.54,-4.86 -10.74,-0.18 z" />
      <path
         id="path44"
         style="font-family:'Balik Kampung'"
         d="m 569.27688,71.38 -11.94001,-0.06 1.26,22.5 9.78001,-0.9 q 0.17999,-4.14 0.47999,-11.82 0.30001,-7.74 0.42001,-9.72 z m 2.75999,-5.28 q 1.14,0 1.86001,0.84 0.77999,0.84 0.77999,1.92 l -1.08,26.64 v 3.24 q -0.06,1.08 -0.83999,1.8 -0.78001,0.78 -1.86,0.78 -1.14,0 -2.22001,-0.84 -1.01999,-0.84 -0.96,-1.86 v -0.3 l -11.45999,0.96 q -1.14,0.06 -1.98,-0.66 -0.78,-0.78 -0.84001,-1.86 l -1.5,-27.96 q -0.06,-1.2 0.72001,-1.98 0.84,-0.78 1.91999,-0.78 z" />
    </g>
  </g>
</svg>
