<?xml version="1.0" encoding="UTF-8" standalone="no"?>
<svg
   xmlns:dc="http://purl.org/dc/elements/1.1/"
   xmlns:cc="http://creativecommons.org/ns#"
   xmlns:rdf="http://www.w3.org/1999/02/22-rdf-syntax-ns#"
   xmlns:svg="http://www.w3.org/2000/svg"
   xmlns="http://www.w3.org/2000/svg"
   id="svg16"
   width="800px"
   version="1.1"
   height="200px">
  <metadata
     id="metadata20">
    <rdf:RDF>
      <cc:Work
         rdf:about="">
        <dc:format>image/svg+xml</dc:format>
        <dc:type
           rdf:resource="http://purl.org/dc/dcmitype/StillImage" />
      </cc:Work>
    </rdf:RDF>
  </metadata>
  <defs
     id="defs4">
    <style
       id="style2"
       type="text/css"><![CDATA[    
     @font-face {font-family:Banana Yeti;
     src: url('/Users/francesco/Repos/write-logos/src/fonts/BananaYeti-Extrabold_Trial.ttf');}
     @font-face {font-family:First Time Italic;
     src: url('/Users/francesco/Repos/write-logos/src/fonts/First_Time_Italic.ttf');}
     ]]></style>
  </defs>
  <g
     id="g14"
     style="font-size:60px">
    <g
       style="text-anchor:middle"
       id="text12"
       aria-label="eXtemporanea">
      <path
         id="path22"
         style="font-family:'Banana Yeti'"
         d="m 274.89016,89.71 q 0,1.92 0.51,3.24 0.51,1.29 1.26,2.07 0.78,0.78 1.65,1.14 0.9,0.33 1.68,0.33 0.99,0 1.89,-0.33 0.9,-0.33 1.65,-0.87 0.78,-0.54 1.41,-1.23 0.66,-0.69 1.17,-1.38 0.57,-0.84 0.9,-1.47 0.36,-0.66 0.57,-1.08 0.24,-0.42 0.42,-0.63 0.21,-0.24 0.48,-0.24 0.27,0 0.36,0.27 0.12,0.24 0.09,0.6 0,0.33 -0.09,0.69 -0.06,0.36 -0.12,0.57 -0.15,0.54 -0.45,1.23 -0.45,1.08 -1.32,2.43 -0.87,1.35 -2.16,2.55 -1.29,1.17 -3,1.98 -1.68,0.81 -3.84,0.81 -1.62,0 -3.33,-0.66 -1.68,-0.66 -3.06,-1.89 -1.38,-1.26 -2.28,-3 -0.87,-1.77 -0.87,-3.93 0,-1.89 0.57,-3.75 0.54,-1.89 1.56,-3.45 1.02,-1.59 2.46,-2.73 1.47,-1.17 3.27,-1.62 1.02,-0.27 2.16,-0.27 1.62,0 2.97,0.48 1.35,0.48 2.31,1.41 0.99,0.93 1.53,2.34 0.54,1.41 0.54,3.24 0,0.93 -0.21,1.83 -0.21,0.9 -0.72,1.59 -0.48,0.69 -1.29,1.14 -0.81,0.42 -2.01,0.42 -1.08,0 -2.16,-0.21 -1.08,-0.24 -1.98,-0.57 -0.87,-0.33 -1.41,-0.69 -0.54,-0.39 -0.54,-0.69 0,-0.12 0.06,-0.33 0.09,-0.24 0.21,-0.45 0.15,-0.21 0.3,-0.33 0.18,-0.15 0.36,-0.15 0.15,0.03 0.45,0.06 0.3,0 0.72,0.06 0.42,0.06 0.84,0.12 0.45,0.03 0.93,0.06 0.78,0.06 1.23,-0.18 0.48,-0.27 0.48,-1.14 0,-0.48 -0.06,-1.38 -0.03,-0.93 -0.27,-1.86 -0.21,-0.93 -0.69,-1.62 -0.48,-0.69 -1.35,-0.69 -0.93,0 -1.65,0.75 -0.69,0.75 -1.17,1.95 -0.48,1.17 -0.72,2.64 -0.24,1.44 -0.24,2.82 z" />
      <path
         id="path24"
         style="font-family:'First Time Italic'"
         d="m 309.85352,59.921875 h 0.32226 q 2.51953,0 2.08008,6.533203 0.17578,0.410156 0.55664,8.90625 15.0293,-10.869141 20.12695,-12.890625 3.48633,-1.289062 4.27735,-1.289062 h 0.17578 q 1.37695,0.205078 0.9082,1.435546 -0.55664,1.582032 -10.57617,7.646485 -12.01172,8.789062 -14.17969,10.957031 l 3.16406,15.761719 -0.14648,0.9375 Q 315.94727,99.619141 313.57422,100 h -0.32227 q -2.8125,0 -5.5664,-12.714844 -0.29297,-1.289062 -0.46875,-1.289062 -15.52735,12.74414 -17.51953,12.74414 h -0.64454 q -1.28906,0 -1.02539,-1.933593 l 0.0879,-0.292969 q 0.73243,-2.021485 18.10547,-16.083985 l 0.0586,-0.146484 q -1.46485,-11.71875 0.79101,-17.988281 l 0.11719,-0.292969 q 1.17187,-2.080078 2.66602,-2.080078 z" />
      <path
         id="path26"
         style="font-family:'Banana Yeti'"
         d="m 319.05484,60.94 q 0.33,-1.56 1.32,-2.25 1.02,-0.72 2.55,-1.05 0.84,-0.18 1.35,-0.15 0.54,0.03 0.84,0.21 0.33,0.15 0.48,0.42 0.18,0.24 0.33,0.51 0.3,0.6 0.3,1.53 0,2.4 -0.12,4.62 -0.09,2.19 -0.24,4.17 -0.15,1.95 -0.3,3.66 -0.12,1.68 -0.21,3.09 h 2.55 q 0.87,0 1.47,-0.03 0.6,-0.03 1.02,-0.06 0.42,-0.03 0.66,0 0.27,0 0.39,0.12 0.15,0.09 0.18,0.3 0.06,0.21 0.06,0.6 0,0.66 -0.12,1.11 -0.09,0.45 -0.48,0.75 -0.36,0.27 -1.14,0.39 -0.75,0.12 -2.04,0.12 h -2.67 q -0.09,2.04 -0.12,3.72 -0.03,1.65 -0.06,3.12 -0.03,1.47 -0.03,2.82 0,1.32 0,2.73 0,1.86 0.45,2.82 0.45,0.93 1.26,0.93 0.69,0 1.47,-0.54 0.78,-0.54 1.5,-1.53 0.66,-0.93 1.05,-1.62 0.39,-0.72 0.63,-1.17 0.27,-0.48 0.45,-0.72 0.21,-0.24 0.51,-0.24 0.48,0 0.48,0.6 0,0.39 -0.15,0.93 -0.18,0.63 -0.6,1.56 -0.39,0.9 -0.99,1.95 -0.6,1.02 -1.41,2.04 -0.78,1.02 -1.77,1.83 -0.96,0.81 -2.13,1.32 -1.14,0.51 -2.43,0.51 -1.11,0 -1.86,-0.48 -0.75,-0.51 -1.23,-1.35 -0.48,-0.84 -0.75,-1.92 -0.24,-1.08 -0.36,-2.25 -0.12,-1.17 -0.18,-2.34 -0.03,-1.17 -0.09,-2.19 -0.15,-2.64 -0.18,-5.22 -0.03,-2.61 0,-5.31 -1.11,0 -1.77,0 -0.66,-0.03 -1.02,-0.09 -0.36,-0.09 -0.45,-0.24 -0.12,-0.18 -0.12,-0.48 0,-0.6 0.12,-1.05 0.09,-0.45 0.45,-0.75 0.36,-0.33 1.02,-0.48 0.66,-0.18 1.8,-0.21 0,-1.41 0.03,-2.16 0,-0.78 0,-1.38 0,-0.6 0.03,-1.23 0,-0.66 0.03,-1.83 0.03,-0.87 0.03,-2.04 -0.03,-1.2 0,-2.37 0,-1.17 0.06,-2.19 0.03,-1.02 0.15,-1.56 z" />
      <path
         id="path28"
         style="font-family:'Banana Yeti'"
         d="m 337.58547,89.71 q 0,1.92 0.51,3.24 0.51,1.29 1.26,2.07 0.78,0.78 1.65,1.14 0.9,0.33 1.68,0.33 0.99,0 1.89,-0.33 0.9,-0.33 1.65,-0.87 0.78,-0.54 1.41,-1.23 0.66,-0.69 1.17,-1.38 0.57,-0.84 0.9,-1.47 0.36,-0.66 0.57,-1.08 0.24,-0.42 0.42,-0.63 0.21,-0.24 0.48,-0.24 0.27,0 0.36,0.27 0.12,0.24 0.09,0.6 0,0.33 -0.09,0.69 -0.06,0.36 -0.12,0.57 -0.15,0.54 -0.45,1.23 -0.45,1.08 -1.32,2.43 -0.87,1.35 -2.16,2.55 -1.29,1.17 -3,1.98 -1.68,0.81 -3.84,0.81 -1.62,0 -3.33,-0.66 -1.68,-0.66 -3.06,-1.89 -1.38,-1.26 -2.28,-3 -0.87,-1.77 -0.87,-3.93 0,-1.89 0.57,-3.75 0.54,-1.89 1.56,-3.45 1.02,-1.59 2.46,-2.73 1.47,-1.17 3.27,-1.62 1.02,-0.27 2.16,-0.27 1.62,0 2.97,0.48 1.35,0.48 2.31,1.41 0.99,0.93 1.53,2.34 0.54,1.41 0.54,3.24 0,0.93 -0.21,1.83 -0.21,0.9 -0.72,1.59 -0.48,0.69 -1.29,1.14 -0.81,0.42 -2.01,0.42 -1.08,0 -2.16,-0.21 -1.08,-0.24 -1.98,-0.57 -0.87,-0.33 -1.41,-0.69 -0.54,-0.39 -0.54,-0.69 0,-0.12 0.06,-0.33 0.09,-0.24 0.21,-0.45 0.15,-0.21 0.3,-0.33 0.18,-0.15 0.36,-0.15 0.15,0.03 0.45,0.06 0.3,0 0.72,0.06 0.42,0.06 0.84,0.12 0.45,0.03 0.93,0.06 0.78,0.06 1.23,-0.18 0.48,-0.27 0.48,-1.14 0,-0.48 -0.06,-1.38 -0.03,-0.93 -0.27,-1.86 -0.21,-0.93 -0.69,-1.62 -0.48,-0.69 -1.35,-0.69 -0.93,0 -1.65,0.75 -0.69,0.75 -1.17,1.95 -0.48,1.17 -0.72,2.64 -0.24,1.44 -0.24,2.82 z" />
      <path
         id="path30"
         style="font-family:'Banana Yeti'"
         d="m 349.31078,83.68 q -0.03,-2.76 0.93,-4.11 0.99,-1.35 2.91,-1.8 0.99,-0.24 1.56,0 0.57,0.24 0.87,0.66 0.3,0.42 0.39,0.93 0.09,0.48 0.09,0.75 -0.06,0.87 -0.12,1.74 -0.06,0.84 -0.12,1.74 0.45,-0.93 1.05,-1.77 0.63,-0.87 1.38,-1.53 0.75,-0.66 1.56,-1.05 0.84,-0.42 1.71,-0.42 1.92,0 2.97,0.9 1.05,0.9 1.53,2.34 0.15,0.48 0.24,0.99 0.12,0.51 0.18,1.05 0.42,-0.99 1.05,-1.92 0.63,-0.96 1.41,-1.68 0.78,-0.75 1.65,-1.2 0.9,-0.48 1.83,-0.48 1.26,0 2.13,0.45 0.87,0.45 1.44,1.23 0.57,0.78 0.87,1.83 0.33,1.02 0.48,2.19 0.15,1.17 0.15,2.43 0.03,1.23 -0.03,2.43 -0.03,1.17 -0.09,2.25 -0.03,1.08 0.03,1.89 0.03,0.51 0.24,1.02 0.24,0.48 0.69,0.54 0.6,0 1.17,-0.36 0.6,-0.36 1.11,-0.9 0.54,-0.57 0.99,-1.2 0.48,-0.66 0.84,-1.26 0.36,-0.6 0.6,-1.05 0.24,-0.48 0.36,-0.63 0.27,-0.42 0.63,-0.42 0.24,0 0.33,0.3 0.09,0.27 0.12,0.63 0,0.15 -0.24,0.96 -0.24,0.78 -0.75,1.89 -0.51,1.11 -1.26,2.37 -0.75,1.26 -1.8,2.31 -1.02,1.05 -2.31,1.77 -1.29,0.69 -2.88,0.69 -1.32,0 -2.16,-0.63 -0.81,-0.63 -1.29,-1.65 -0.45,-1.02 -0.66,-2.31 -0.18,-1.32 -0.21,-2.7 -0.03,-0.54 -0.03,-1.08 0,-0.57 0,-1.11 0,-0.72 0.06,-1.8 0.06,-1.08 0,-2.07 -0.06,-0.99 -0.27,-1.71 -0.21,-0.72 -0.78,-0.72 -0.48,0 -1.05,0.39 -0.54,0.36 -1.05,1.38 -0.48,0.99 -0.84,2.82 -0.33,1.8 -0.42,4.68 l -0.09,3.72 q -0.03,1.41 -0.66,2.04 -0.39,0.39 -0.93,0.57 -0.54,0.21 -1.77,0.3 -0.75,0.06 -1.23,-0.06 -0.48,-0.12 -0.78,-0.39 -0.3,-0.27 -0.45,-0.69 -0.15,-0.42 -0.18,-1.02 -0.03,-0.33 -0.06,-1.05 0,-0.75 0.03,-2.37 0.03,-1.53 0,-3.45 -0.03,-1.95 -0.3,-4.38 -0.12,-1.05 -0.39,-1.77 -0.24,-0.72 -0.69,-0.72 -0.96,0 -1.62,0.93 -0.66,0.9 -1.11,2.46 -0.42,1.56 -0.63,3.63 -0.21,2.04 -0.24,4.32 0,1.26 -0.12,2.22 -0.09,0.96 -0.57,1.47 -0.27,0.3 -0.87,0.57 -0.57,0.24 -1.53,0.3 -0.45,0.03 -0.84,0 -0.36,0 -0.69,-0.18 -0.3,-0.18 -0.57,-0.57 -0.27,-0.42 -0.48,-1.17 -0.09,-0.33 -0.27,-1.35 -0.21,-1.05 -0.27,-3.03 -0.06,-1.41 -0.03,-2.91 0,-1.5 0.06,-2.94 0.03,-1.59 0.06,-2.25 0,-0.69 0.03,-0.96 0,-0.3 0,-0.45 0,-0.18 0,-0.81 z" />
      <path
         id="path32"
         style="font-family:'Banana Yeti'"
         d="m 393.40328,100.12 q -0.93,0 -1.8,-0.3 -0.45,-0.15 -0.87,-0.39 -0.42,-0.27 -0.75,-0.6 -0.33,-0.33 -0.51,-0.78 -0.18,-0.45 -0.18,-1.02 0,-0.45 0.21,-0.78 0.21,-0.33 0.48,-0.54 0.27,-0.21 0.51,-0.3 0.27,-0.12 0.36,-0.12 0.33,0 0.48,0.27 0.18,0.27 0.39,0.6 0.21,0.33 0.57,0.6 0.36,0.24 1.08,0.24 0.66,0 0.96,-0.72 0.33,-0.72 0.45,-1.74 0.12,-1.05 0.09,-2.19 -0.03,-1.14 -0.03,-2.01 0,-0.84 -0.09,-2.01 -0.09,-1.2 -0.39,-2.25 -0.3,-1.05 -0.9,-1.8 -0.57,-0.75 -1.56,-0.75 -1.08,0 -1.74,0.69 -0.63,0.69 -0.96,1.83 -0.33,1.11 -0.42,2.55 -0.09,1.44 -0.12,2.94 0.06,3.81 0.3,7.86 0.24,4.05 0.24,8.4 0,1.44 -0.48,2.25 -0.48,0.84 -1.71,0.84 -1.71,0 -2.67,-0.42 -0.93,-0.42 -1.41,-1.2 -0.48,-0.75 -0.66,-2.37 -0.18,-1.59 -0.21,-3.6 -0.03,-2.01 0.03,-4.2 0.03,-2.19 0.03,-4.11 0,-3.66 -0.12,-7.41 -0.12,-3.75 -0.12,-7.32 0,-1.29 0.24,-2.37 0.24,-1.08 0.81,-1.89 0.6,-0.84 1.53,-1.38 0.96,-0.57 2.4,-0.81 1.17,-0.15 1.83,0.51 0.63,0.63 0.63,1.89 -0.15,1.56 -0.24,3.21 -0.09,1.62 -0.15,3.33 0.75,-1.05 1.74,-1.98 0.99,-0.93 2.43,-1.38 0.9,-0.3 2.13,-0.3 1.26,0 2.25,0.6 0.99,0.6 1.71,1.62 0.72,1.02 1.2,2.37 0.48,1.35 0.69,2.85 0.18,1.23 0.18,2.43 0,1.89 -0.42,3.72 -0.42,1.8 -1.08,3.21 0.93,-0.51 1.68,-1.23 0.75,-0.75 1.44,-1.56 0.81,-0.96 1.26,-1.71 0.45,-0.78 0.72,-1.29 0.3,-0.54 0.51,-0.81 0.21,-0.3 0.51,-0.3 0.27,0 0.36,0.24 0.09,0.21 0.09,0.54 0,0.36 -0.09,0.75 -0.06,0.39 -0.12,0.6 -0.75,2.31 -2.04,4.02 -1.29,1.68 -2.97,2.79 -1.65,1.11 -3.63,1.65 -1.98,0.54 -4.08,0.54 z" />
      <path
         id="path34"
         style="font-family:'Banana Yeti'"
         d="m 419.60734,82.69 q 0.84,0.63 1.56,1.53 0.33,0.42 0.6,0.87 0.3,0.45 0.51,0.9 0.45,0.06 1.08,-0.12 0.63,-0.21 1.26,-0.51 0.66,-0.33 1.26,-0.66 0.6,-0.36 0.96,-0.6 0.66,-0.51 0.96,-0.78 0.33,-0.3 0.75,-0.15 0.24,0.09 0.33,0.33 0.12,0.24 0.09,0.57 -0.06,0.72 -0.54,1.29 -0.45,0.57 -1.05,1.17 -0.96,0.96 -2.25,1.86 -1.29,0.9 -2.82,1.44 -0.15,1.89 -0.81,3.78 -0.63,1.89 -1.8,3.42 -1.17,1.5 -2.91,2.43 -1.71,0.93 -3.99,0.93 -1.77,0 -3.45,-0.66 -1.65,-0.69 -2.94,-1.92 -1.29,-1.23 -2.1,-2.97 -0.78,-1.77 -0.78,-3.93 0,-2.16 0.72,-4.29 0.72,-2.13 2.01,-3.78 1.32,-1.68 3.15,-2.7 1.86,-1.05 4.14,-1.05 0.75,0 1.71,0.06 0.96,0.06 1.86,0.42 0.9,0.33 1.59,1.08 0.72,0.72 0.9,2.04 z m -6.33,13.77 q 0.72,0 1.2,-0.66 0.48,-0.69 0.78,-1.68 0.33,-1.02 0.45,-2.16 0.15,-1.14 0.15,-2.04 v -0.21 q -1.11,-0.45 -1.98,-1.53 -0.84,-1.11 -0.84,-2.97 0,-0.87 0.6,-1.53 0.63,-0.66 1.41,-1.05 -0.15,-0.48 -0.45,-0.78 -0.3,-0.3 -0.81,-0.3 -0.39,0 -0.87,0.21 -0.72,0.33 -1.26,1.17 -0.54,0.84 -0.9,1.95 -0.36,1.08 -0.57,2.37 -0.18,1.26 -0.18,2.46 0,1.89 0.3,3.18 0.33,1.29 0.81,2.1 0.51,0.78 1.08,1.14 0.57,0.33 1.08,0.33 z" />
      <path
         id="path36"
         style="font-family:'Banana Yeti'"
         d="m 439.37266,90.28 q -0.93,0 -1.77,-0.27 -0.81,-0.27 -1.44,-0.78 -0.63,-0.51 -0.99,-1.26 -0.36,-0.75 -0.36,-1.71 0,-0.42 0.06,-0.72 0.09,-0.3 0.21,-0.51 0.12,-0.24 0.27,-0.42 0.15,-0.18 0.27,-0.42 0.12,-0.24 0.21,-0.51 0.09,-0.27 0.09,-0.69 0,-0.66 -0.3,-1.83 -0.63,0.12 -1.17,0.72 -0.51,0.6 -0.93,1.5 -0.42,0.9 -0.75,2.01 -0.3,1.08 -0.54,2.22 -0.24,1.11 -0.39,2.19 -0.12,1.05 -0.18,1.83 -0.06,1.5 -0.09,2.97 0,1.44 -0.03,2.79 -0.06,1.11 -0.45,1.71 -0.36,0.57 -0.93,0.84 -0.57,0.27 -1.26,0.3 -0.69,0.06 -1.35,0.06 -0.81,0 -1.26,-0.57 -0.45,-0.6 -0.45,-1.41 -0.06,-1.77 -0.12,-3.03 -0.03,-1.29 -0.06,-2.28 -0.06,-0.99 -0.09,-1.8 -0.03,-0.81 -0.03,-1.62 -0.06,-2.58 -0.06,-4.65 -0.03,-2.1 0.18,-3.45 0.21,-1.47 0.84,-2.28 0.66,-0.81 1.38,-1.2 0.75,-0.42 1.38,-0.51 0.66,-0.09 0.93,-0.12 0.51,-0.06 1.02,0.27 0.54,0.33 0.78,0.87 0.24,0.57 0.24,1.29 -0.06,0.54 -0.09,1.08 -0.03,0.54 -0.06,1.08 0.42,-1.11 1.05,-2.16 0.66,-1.05 1.47,-1.86 0.84,-0.81 1.83,-1.29 1.02,-0.48 2.13,-0.48 0.45,0 1.08,0.09 0.66,0.09 1.32,0.36 0.48,0.21 0.93,0.54 0.48,0.33 0.84,0.84 0.36,0.48 0.57,1.2 0.21,0.69 0.21,1.62 -0.09,0.9 -0.48,1.95 -0.36,1.02 -0.96,2.01 -0.6,0.96 -1.41,1.77 -0.81,0.78 -1.74,1.2 0.06,0 0.06,0.06 0.03,0.03 0.09,0.09 0.09,0.06 0.27,0.12 0.18,0.03 0.57,0.03 1.35,0 2.31,-0.45 0.96,-0.48 1.65,-1.14 0.72,-0.69 1.26,-1.44 0.57,-0.75 1.17,-1.35 0.48,-0.48 0.99,-0.78 0.54,-0.3 1.23,-0.3 0.66,0 0.66,1.32 0,0.42 -0.27,0.9 -0.24,0.48 -0.66,0.99 -0.66,0.78 -1.68,1.59 -0.99,0.78 -2.19,1.44 -1.2,0.63 -2.49,1.05 -1.29,0.39 -2.52,0.39 z" />
      <path
         id="path38"
         style="font-family:'Banana Yeti'"
         d="m 462.99297,82 q 0,1.2 -0.09,3.03 -0.09,1.83 -0.15,3.66 -0.03,1.23 0,2.4 0.03,1.14 0.15,2.04 0.15,0.87 0.42,1.41 0.27,0.54 0.69,0.54 0.81,0 1.62,-0.78 0.81,-0.78 1.47,-1.74 0.69,-0.99 1.14,-1.83 0.48,-0.87 0.6,-1.05 0.27,-0.42 0.63,-0.42 0.21,0 0.36,0.15 0.12,0.12 0.12,0.45 0,0.06 -0.24,0.87 -0.24,0.78 -0.75,1.95 -0.48,1.14 -1.26,2.49 -0.75,1.35 -1.8,2.49 -1.05,1.14 -2.4,1.89 -1.35,0.75 -3.03,0.75 -0.93,0 -1.59,-0.57 -0.66,-0.57 -1.14,-1.47 -0.81,0.96 -1.86,1.56 -1.02,0.6 -2.49,0.6 -0.33,0 -0.69,-0.03 -0.36,-0.03 -0.72,-0.09 -1.26,-0.21 -2.61,-0.81 -1.32,-0.6 -2.43,-1.71 -1.08,-1.14 -1.77,-2.82 -0.69,-1.68 -0.69,-4.02 0,-1.92 0.57,-3.81 0.57,-1.92 1.62,-3.51 1.05,-1.59 2.52,-2.73 1.5,-1.14 3.36,-1.56 0.48,-0.12 0.96,-0.15 0.48,-0.06 0.99,-0.06 0.69,0 1.59,0.33 0.93,0.33 1.8,0.99 0.36,-0.09 0.93,-0.3 0.57,-0.21 1.2,-0.36 0.66,-0.15 1.26,-0.15 0.63,0 1.08,0.3 0.21,0.15 0.36,0.48 0.15,0.33 0.21,0.75 0.06,0.39 0.06,0.84 z m -7.92,14.7 q 0.42,0 0.84,-0.27 0.42,-0.3 0.75,-1.11 -0.03,-0.42 -0.06,-1.11 -0.03,-0.72 -0.06,-1.62 0,-0.9 -0.03,-1.92 -0.03,-1.02 -0.03,-2.1 v -3.81 q 0,-0.33 -0.09,-0.87 -0.06,-0.54 -0.24,-1.05 -0.18,-0.51 -0.54,-0.87 -0.33,-0.39 -0.87,-0.39 -0.93,0 -1.65,0.75 -0.69,0.75 -1.17,1.95 -0.48,1.17 -0.72,2.64 -0.24,1.44 -0.24,2.82 0,2.01 0.39,3.36 0.42,1.32 1.02,2.13 0.63,0.81 1.35,1.14 0.72,0.33 1.35,0.33 z" />
      <path
         id="path40"
         style="font-family:'Banana Yeti'"
         d="m 468.17172,81.67 q 0.12,-1.08 0.48,-1.8 0.39,-0.75 0.9,-1.23 0.51,-0.51 1.11,-0.75 0.63,-0.27 1.29,-0.42 0.96,-0.21 1.5,0.03 0.57,0.24 0.87,0.66 0.3,0.39 0.36,0.87 0.09,0.48 0.09,0.78 -0.06,0.96 -0.15,1.92 -0.06,0.93 -0.12,1.89 0.48,-0.93 1.08,-1.8 0.63,-0.87 1.35,-1.53 0.75,-0.66 1.56,-1.05 0.84,-0.42 1.74,-0.42 1.2,0 2.04,0.36 0.87,0.36 1.44,0.99 0.6,0.63 0.93,1.5 0.36,0.84 0.54,1.83 0.18,0.99 0.21,2.1 0.06,1.08 0.03,2.19 -0.03,1.08 -0.12,2.13 -0.06,1.05 -0.09,1.95 -0.03,0.45 -0.03,0.99 0,0.54 0.06,1.02 0.09,0.48 0.27,0.84 0.21,0.33 0.63,0.36 0.6,0 1.17,-0.36 0.6,-0.36 1.11,-0.9 0.54,-0.57 0.99,-1.2 0.48,-0.66 0.84,-1.26 0.36,-0.6 0.6,-1.05 0.24,-0.48 0.36,-0.63 0.27,-0.42 0.63,-0.42 0.24,0 0.33,0.3 0.09,0.27 0.12,0.63 0,0.15 -0.24,0.96 -0.24,0.78 -0.75,1.89 -0.51,1.11 -1.26,2.37 -0.75,1.26 -1.8,2.31 -1.02,1.05 -2.31,1.77 -1.29,0.69 -2.88,0.69 -1.32,0 -2.16,-0.63 -0.81,-0.63 -1.29,-1.65 -0.45,-1.02 -0.66,-2.31 -0.18,-1.32 -0.21,-2.7 -0.03,-0.54 -0.03,-1.08 0,-0.57 0,-1.11 0,-0.72 0.06,-1.8 0.06,-1.08 0,-2.07 -0.06,-0.99 -0.27,-1.71 -0.21,-0.72 -0.78,-0.72 -0.9,0 -1.56,0.87 -0.63,0.84 -1.08,2.37 -0.42,1.5 -0.66,3.6 -0.24,2.07 -0.3,4.53 0,1.35 -0.12,2.25 -0.09,0.9 -0.57,1.41 -0.27,0.3 -0.78,0.54 -0.48,0.21 -1.41,0.3 -0.69,0.06 -1.14,0.03 -0.42,-0.03 -0.72,-0.24 -0.3,-0.18 -0.51,-0.6 -0.21,-0.42 -0.42,-1.11 -0.33,-1.08 -0.45,-2.61 -0.12,-1.56 -0.12,-3.03 -0.03,-1.47 0.03,-2.55 0.03,-1.11 0.03,-1.26 0,-1.29 0.03,-2.49 0.03,-1.23 0.09,-2.19 0.03,-0.99 0.06,-1.65 0.03,-0.69 0.06,-0.9 z" />
      <path
         id="path42"
         style="font-family:'Banana Yeti'"
         d="m 495.90578,89.71 q 0,1.92 0.51,3.24 0.51,1.29 1.26,2.07 0.78,0.78 1.65,1.14 0.9,0.33 1.68,0.33 0.99,0 1.89,-0.33 0.9,-0.33 1.65,-0.87 0.78,-0.54 1.41,-1.23 0.66,-0.69 1.17,-1.38 0.57,-0.84 0.9,-1.47 0.36,-0.66 0.57,-1.08 0.24,-0.42 0.42,-0.63 0.21,-0.24 0.48,-0.24 0.27,0 0.36,0.27 0.12,0.24 0.09,0.6 0,0.33 -0.09,0.69 -0.06,0.36 -0.12,0.57 -0.15,0.54 -0.45,1.23 -0.45,1.08 -1.32,2.43 -0.87,1.35 -2.16,2.55 -1.29,1.17 -3,1.98 -1.68,0.81 -3.84,0.81 -1.62,0 -3.33,-0.66 -1.68,-0.66 -3.06,-1.89 -1.38,-1.26 -2.28,-3 -0.87,-1.77 -0.87,-3.93 0,-1.89 0.57,-3.75 0.54,-1.89 1.56,-3.45 1.02,-1.59 2.46,-2.73 1.47,-1.17 3.27,-1.62 1.02,-0.27 2.16,-0.27 1.62,0 2.97,0.48 1.35,0.48 2.31,1.41 0.99,0.93 1.53,2.34 0.54,1.41 0.54,3.24 0,0.93 -0.21,1.83 -0.21,0.9 -0.72,1.59 -0.48,0.69 -1.29,1.14 -0.81,0.42 -2.01,0.42 -1.08,0 -2.16,-0.21 -1.08,-0.24 -1.98,-0.57 -0.87,-0.33 -1.41,-0.69 -0.54,-0.39 -0.54,-0.69 0,-0.12 0.06,-0.33 0.09,-0.24 0.21,-0.45 0.15,-0.21 0.3,-0.33 0.18,-0.15 0.36,-0.15 0.15,0.03 0.45,0.06 0.3,0 0.72,0.06 0.42,0.06 0.84,0.12 0.45,0.03 0.93,0.06 0.78,0.06 1.23,-0.18 0.48,-0.27 0.48,-1.14 0,-0.48 -0.06,-1.38 -0.03,-0.93 -0.27,-1.86 -0.21,-0.93 -0.69,-1.62 -0.48,-0.69 -1.35,-0.69 -0.93,0 -1.65,0.75 -0.69,0.75 -1.17,1.95 -0.48,1.17 -0.72,2.64 -0.24,1.44 -0.24,2.82 z" />
      <path
         id="path44"
         style="font-family:'Banana Yeti'"
         d="m 525.57109,82 q 0,1.2 -0.09,3.03 -0.09,1.83 -0.15,3.66 -0.03,1.23 0,2.4 0.03,1.14 0.15,2.04 0.15,0.87 0.42,1.41 0.27,0.54 0.69,0.54 0.81,0 1.62,-0.78 0.81,-0.78 1.47,-1.74 0.69,-0.99 1.14,-1.83 0.48,-0.87 0.6,-1.05 0.27,-0.42 0.63,-0.42 0.21,0 0.36,0.15 0.12,0.12 0.12,0.45 0,0.06 -0.24,0.87 -0.24,0.78 -0.75,1.95 -0.48,1.14 -1.26,2.49 -0.75,1.35 -1.8,2.49 -1.05,1.14 -2.4,1.89 -1.35,0.75 -3.03,0.75 -0.93,0 -1.59,-0.57 -0.66,-0.57 -1.14,-1.47 -0.81,0.96 -1.86,1.56 -1.02,0.6 -2.49,0.6 -0.33,0 -0.69,-0.03 -0.36,-0.03 -0.72,-0.09 -1.26,-0.21 -2.61,-0.81 -1.32,-0.6 -2.43,-1.71 -1.08,-1.14 -1.77,-2.82 -0.69,-1.68 -0.69,-4.02 0,-1.92 0.57,-3.81 0.57,-1.92 1.62,-3.51 1.05,-1.59 2.52,-2.73 1.5,-1.14 3.36,-1.56 0.48,-0.12 0.96,-0.15 0.48,-0.06 0.99,-0.06 0.69,0 1.59,0.33 0.93,0.33 1.8,0.99 0.36,-0.09 0.93,-0.3 0.57,-0.21 1.2,-0.36 0.66,-0.15 1.26,-0.15 0.63,0 1.08,0.3 0.21,0.15 0.36,0.48 0.15,0.33 0.21,0.75 0.06,0.39 0.06,0.84 z m -7.92,14.7 q 0.42,0 0.84,-0.27 0.42,-0.3 0.75,-1.11 -0.03,-0.42 -0.06,-1.11 -0.03,-0.72 -0.06,-1.62 0,-0.9 -0.03,-1.92 -0.03,-1.02 -0.03,-2.1 v -3.81 q 0,-0.33 -0.09,-0.87 -0.06,-0.54 -0.24,-1.05 -0.18,-0.51 -0.54,-0.87 -0.33,-0.39 -0.87,-0.39 -0.93,0 -1.65,0.75 -0.69,0.75 -1.17,1.95 -0.48,1.17 -0.72,2.64 -0.24,1.44 -0.24,2.82 0,2.01 0.39,3.36 0.42,1.32 1.02,2.13 0.63,0.81 1.35,1.14 0.72,0.33 1.35,0.33 z" />
    </g>
  </g>
</svg>
