<?xml version="1.0" encoding="UTF-8" standalone="no"?>
<svg
   xmlns:dc="http://purl.org/dc/elements/1.1/"
   xmlns:cc="http://creativecommons.org/ns#"
   xmlns:rdf="http://www.w3.org/1999/02/22-rdf-syntax-ns#"
   xmlns:svg="http://www.w3.org/2000/svg"
   xmlns="http://www.w3.org/2000/svg"
   id="svg10"
   width="500px"
   version="1.1"
   height="200px">
  <metadata
     id="metadata14">
    <rdf:RDF>
      <cc:Work
         rdf:about="">
        <dc:format>image/svg+xml</dc:format>
        <dc:type
           rdf:resource="http://purl.org/dc/dcmitype/StillImage" />
      </cc:Work>
    </rdf:RDF>
  </metadata>
  <defs
     id="defs4">
    <style
       id="style2"
       type="text/css"><![CDATA[    
     @font-face {font-family:Bangga FREE;
     src: url('/Users/francesco/Repos/write-logos/src/fonts//Bangga_FREE.ttf');}]]></style>
  </defs>
  <g
     id="g8"
     style="font-size:30px;font-family:'Bangga FREE'">
    <g
       style=""
       id="text6"
       aria-label="eXtemporanea">
      <path
         id="path16"
         style=""
         d="m 111.49,93.34 q 0.12,-0.21 0.27,0.03 0.15,0.24 0.03,0.45 -0.57,0.84 -1.32,1.83 -0.75,0.96 -1.74,1.86 -0.96,0.87 -2.13,1.53 -1.14,0.66 -2.52,0.87 -1.89,0.33 -2.97,-0.63 -1.08,-0.99 -1.08,-2.85 0,-2.28 0.51,-3.9 0.51,-1.62 1.29,-2.67 0.78,-1.05 1.74,-1.59 0.96,-0.54 1.86,-0.72 0.9,-0.18 1.62,-0.03 0.72,0.15 1.02,0.51 v 0.03 q 0.66,0.48 0.78,1.29 0.15,0.81 -0.45,2.34 -0.39,0.99 -0.96,1.65 -0.57,0.66 -1.23,1.02 -0.66,0.36 -1.41,0.45 -0.75,0.09 -1.5,-0.06 -0.12,-0.03 -0.3,-0.09 -0.27,1.26 -0.24,2.31 0.03,1.02 0.45,1.44 0.99,0.51 2.25,0.03 1.26,-0.48 2.46,-1.41 1.2,-0.93 2.16,-1.98 0.99,-1.08 1.41,-1.71 z m -4.74,-4.08 q -0.57,-0.06 -1.11,0.3 -0.51,0.36 -0.96,0.99 -0.45,0.63 -0.81,1.47 -0.36,0.81 -0.63,1.68 0.39,0.09 0.81,0.15 0.42,0.06 0.87,-0.03 0.45,-0.09 0.9,-0.36 0.45,-0.27 0.9,-0.81 0.72,-0.81 0.9,-1.41 0.21,-0.6 0.12,-0.99 -0.09,-0.42 -0.39,-0.66 -0.3,-0.24 -0.6,-0.33 z" />
      <path
         id="path18"
         style=""
         d="m 116.78172,87.58 q 1.2,-1.77 2.43,-3.3 1.26,-1.53 2.37,-2.43 1.14,-0.93 2.04,-1.02 0.93,-0.12 1.5,0.99 -0.09,-0.06 -0.36,-0.12 -0.27,-0.06 -0.75,0.09 -0.45,0.12 -1.11,0.51 -0.63,0.39 -1.5,1.23 -0.84,0.81 -1.92,2.16 -1.08,1.32 -2.4,3.33 0.06,0.24 0.12,0.6 0.48,2.49 0.84,4.68 0.36,2.16 0.69,3.81 0.33,1.62 0.72,2.61 0.39,1.02 0.93,1.17 0.18,0.06 0.18,0.12 0,0.09 -0.12,0.15 -0.09,0.09 -0.24,0.12 -0.15,0.06 -0.27,0.06 -0.96,0.06 -1.71,-0.48 -0.72,-0.51 -1.29,-1.32 -0.54,-0.81 -0.9,-1.77 -0.36,-0.99 -0.54,-1.86 -0.24,-1.05 -0.42,-2.07 -0.18,-1.05 -0.33,-2.07 -0.51,0.81 -1.05,1.8 -0.54,0.99 -1.08,1.95 -0.54,0.96 -1.08,1.8 -0.51,0.81 -0.96,1.26 -0.45,0.42 -0.81,0.36 -0.36,-0.06 -0.6,-0.84 0.18,-0.09 0.42,-0.27 0.21,-0.15 0.48,-0.45 0.27,-0.3 0.6,-0.78 0.12,-0.18 0.45,-0.75 0.36,-0.57 0.84,-1.44 0.51,-0.9 1.14,-1.98 0.66,-1.11 1.41,-2.31 -0.27,-1.74 -0.57,-3.24 -0.3,-1.53 -0.72,-2.67 -0.42,-1.17 -1.02,-1.83 -0.6,-0.66 -1.44,-0.69 -0.51,-0.03 -0.21,-0.33 0.33,-0.33 0.96,-0.69 0.63,-0.39 1.26,-0.69 0.66,-0.3 0.78,-0.3 0.48,0.03 0.87,0.24 0.39,0.18 0.75,0.9 0.36,0.69 0.72,2.07 0.39,1.35 0.9,3.69 z" />
      <path
         id="path20"
         style=""
         d="m 130.30797,84.58 q 0.12,-0.12 0.21,0.03 0.09,0.12 0.12,0.36 0.06,0.21 0,0.48 -0.03,0.27 -0.15,0.39 -0.27,0.27 -1.29,0.21 -1.02,-0.09 -2.34,-0.24 -0.45,1.59 -0.96,3.42 -0.51,1.83 -0.99,3.57 -0.48,1.74 -0.84,3.27 -0.36,1.5 -0.54,2.43 0.6,-0.33 1.41,-1.02 0.84,-0.72 1.62,-1.5 0.78,-0.81 1.38,-1.53 0.6,-0.72 0.78,-1.08 0.3,-0.15 0.42,0.06 0.06,0.12 0.03,0.24 -0.96,1.47 -1.95,2.67 -0.84,1.05 -1.8,2.04 -0.96,0.99 -1.77,1.35 -0.09,0.06 -0.21,0.12 -0.09,0.09 -0.39,0.15 -0.27,0.03 -0.66,-0.06 -0.39,-0.12 -0.84,-0.42 -0.42,-0.33 -0.78,-0.99 -0.18,-0.33 -0.12,-1.05 0.06,-0.75 0.3,-1.77 0.27,-1.02 0.63,-2.25 0.39,-1.26 0.84,-2.58 0.48,-1.32 0.96,-2.67 0.48,-1.38 0.93,-2.64 -1.02,-0.06 -1.86,0.03 -0.81,0.09 -1.26,0.42 -0.15,0.12 -0.27,0 -0.12,-0.12 -0.18,-0.36 -0.06,-0.24 -0.03,-0.51 0.03,-0.27 0.21,-0.42 0.33,-0.33 1.38,-0.36 1.08,-0.03 2.4,0.09 0.6,-1.68 0.96,-2.91 0.39,-1.26 0.39,-1.74 0.12,-0.03 0.48,0.06 0.36,0.09 0.75,0.33 0.39,0.21 0.63,0.54 0.27,0.3 0.18,0.72 -0.15,0.48 -0.36,1.32 -0.21,0.84 -0.54,1.92 1.14,0.09 2.01,0.12 0.87,0 1.11,-0.24 z" />
      <path
         id="path22"
         style=""
         d="m 139.49781,93.34 q 0.12,-0.21 0.27,0.03 0.15,0.24 0.03,0.45 -0.57,0.84 -1.32,1.83 -0.75,0.96 -1.74,1.86 -0.96,0.87 -2.13,1.53 -1.14,0.66 -2.52,0.87 -1.89,0.33 -2.97,-0.63 -1.08,-0.99 -1.08,-2.85 0,-2.28 0.51,-3.9 0.51,-1.62 1.29,-2.67 0.78,-1.05 1.74,-1.59 0.96,-0.54 1.86,-0.72 0.9,-0.18 1.62,-0.03 0.72,0.15 1.02,0.51 v 0.03 q 0.66,0.48 0.78,1.29 0.15,0.81 -0.45,2.34 -0.39,0.99 -0.96,1.65 -0.57,0.66 -1.23,1.02 -0.66,0.36 -1.41,0.45 -0.75,0.09 -1.5,-0.06 -0.12,-0.03 -0.3,-0.09 -0.27,1.26 -0.24,2.31 0.03,1.02 0.45,1.44 0.99,0.51 2.25,0.03 1.26,-0.48 2.46,-1.41 1.2,-0.93 2.16,-1.98 0.99,-1.08 1.41,-1.71 z m -4.74,-4.08 q -0.57,-0.06 -1.11,0.3 -0.51,0.36 -0.96,0.99 -0.45,0.63 -0.81,1.47 -0.36,0.81 -0.63,1.68 0.39,0.09 0.81,0.15 0.42,0.06 0.87,-0.03 0.45,-0.09 0.9,-0.36 0.45,-0.27 0.9,-0.81 0.72,-0.81 0.9,-1.41 0.21,-0.6 0.12,-0.99 -0.09,-0.42 -0.39,-0.66 -0.3,-0.24 -0.6,-0.33 z" />
      <path
         id="path24"
         style=""
         d="m 159.49891,93.4 q 0.06,-0.09 0.18,-0.06 0.12,0.03 0.21,0.12 0.09,0.06 0.12,0.18 0.06,0.09 0.03,0.18 -0.66,0.99 -1.47,1.92 -0.78,0.93 -1.62,1.71 -0.81,0.78 -1.59,1.35 -0.78,0.57 -1.41,0.87 -0.93,0.42 -1.65,0.33 -0.72,-0.09 -1.11,-0.69 -0.36,-0.6 -0.33,-1.65 0.03,-1.08 0.63,-2.61 0.57,-1.5 1.02,-2.55 0.48,-1.05 0.75,-1.77 0.3,-0.72 0.39,-1.17 0.12,-0.45 0.03,-0.72 -0.33,-0.48 -0.6,-0.36 -0.27,0.09 -0.87,0.78 -0.21,0.27 -0.54,0.81 -0.3,0.54 -0.66,1.26 -0.36,0.69 -0.75,1.5 -0.36,0.78 -0.72,1.59 -0.87,1.86 -1.8,4.11 -0.06,0.12 -0.09,0.24 -0.09,0.24 -0.09,0.54 -0.03,0.33 -0.27,0.54 -0.21,0.21 -0.54,0.18 -0.3,-0.03 -0.69,-0.09 -0.39,-0.09 -0.75,-0.27 -0.36,-0.21 -0.6,-0.54 -0.21,-0.36 -0.18,-0.96 0.03,-0.66 0.3,-1.59 0.3,-0.93 0.69,-1.98 0.39,-1.05 0.78,-2.13 0.42,-1.08 0.72,-2.04 0.33,-0.99 0.45,-1.77 0.12,-0.81 -0.06,-1.26 -0.21,-0.51 -0.69,-0.24 -0.45,0.27 -1.08,1.08 -0.6,0.81 -1.32,2.01 -0.69,1.17 -1.41,2.49 -0.69,1.29 -1.32,2.58 -0.63,1.26 -1.11,2.22 -0.15,0.6 -0.24,1.14 -0.09,0.54 -0.12,0.96 -0.03,0.18 -0.18,0.3 -0.12,0.12 -0.3,0.09 -0.24,-0.03 -0.54,-0.09 -0.3,-0.06 -0.6,-0.18 -0.27,-0.12 -0.45,-0.33 -0.21,-0.24 -0.24,-0.6 0,-0.51 0.27,-1.74 0.24,-1.26 0.72,-2.85 0.51,-1.59 1.23,-3.33 0.72,-1.77 1.59,-3.3 0.21,-0.33 0.54,-0.18 0.24,0.09 0.51,0.45 0.3,0.36 0.51,0.54 0.24,0.18 0.12,0.45 -0.18,0.51 -0.6,1.68 -0.42,1.17 -0.9,2.61 0.63,-1.29 1.41,-2.67 0.78,-1.38 1.62,-2.46 0.87,-1.11 1.77,-1.74 0.93,-0.66 1.83,-0.51 0.78,0.18 1.11,0.78 0.33,0.57 0.36,1.41 0.06,0.81 -0.15,1.77 -0.18,0.96 -0.45,1.89 -0.24,0.9 -0.48,1.68 -0.24,0.75 -0.33,1.2 0.93,-2.19 1.89,-3.87 0.39,-0.72 0.81,-1.38 0.45,-0.69 0.87,-1.2 0.45,-0.54 0.87,-0.84 0.42,-0.3 0.78,-0.27 0.96,0.06 1.44,0.39 0.51,0.33 0.75,0.66 0.39,0.48 0.33,1.5 -0.06,0.87 -0.51,2.43 -0.45,1.53 -1.74,3.96 -0.12,0.24 -0.27,0.75 -0.15,0.51 -0.15,0.96 0,0.45 0.24,0.66 0.24,0.18 0.87,-0.27 0.39,-0.27 0.9,-0.6 0.51,-0.33 1.11,-0.84 0.6,-0.54 1.29,-1.29 0.72,-0.75 1.53,-1.86 z" />
      <path
         id="path26"
         style=""
         d="m 171.83922,93.46 q 0.33,-0.18 0.45,0.06 0.06,0.12 0.09,0.27 -1.35,1.71 -2.76,3.03 -0.6,0.57 -1.26,1.11 -0.66,0.54 -1.32,0.99 -0.66,0.42 -1.32,0.69 -0.63,0.24 -1.2,0.24 h -0.03 q -0.87,0.27 -1.8,0.06 -0.93,-0.21 -1.5,-0.9 -0.33,-0.42 -0.57,-0.75 -0.24,-0.33 -0.42,-0.66 -0.51,1.92 -0.96,3.78 -0.45,1.89 -0.78,3.45 -0.33,1.56 -0.48,2.67 -0.15,1.11 -0.03,1.5 -0.48,0.27 -0.96,0 -0.48,-0.24 -0.84,-0.69 -0.39,-0.45 -0.63,-0.93 -0.24,-0.45 -0.24,-0.63 0,-0.69 0.3,-2.07 0.27,-1.38 0.75,-3.18 0.45,-1.77 1.05,-3.81 0.6,-2.04 1.23,-4.05 0.63,-2.01 1.23,-3.81 0.63,-1.83 1.11,-3.18 0.27,-0.06 0.6,-0.03 0.27,0.03 0.57,0.15 0.3,0.09 0.57,0.33 0.3,0.33 0.18,0.72 -0.09,0.3 -0.24,0.84 -0.15,0.54 -0.36,1.26 0.33,-0.39 0.78,-0.87 0.45,-0.48 0.99,-0.87 0.54,-0.39 1.14,-0.57 0.6,-0.21 1.2,-0.06 0.6,0.15 1.17,0.75 0.6,0.6 1.11,1.8 0.27,0.93 0.24,1.92 -0.03,0.99 -0.27,2.01 -0.24,0.99 -0.69,1.95 -0.45,0.93 -1.02,1.77 0.84,-0.48 1.65,-1.11 0.84,-0.63 1.53,-1.26 0.69,-0.63 1.14,-1.14 0.48,-0.51 0.6,-0.78 z m -11.25,2.64 q 0.15,0.39 0.36,0.81 0.24,0.39 0.51,0.72 0.27,0.3 0.63,0.48 0.36,0.15 0.78,0.06 0.69,-0.12 1.26,-0.81 0.6,-0.69 1.05,-1.71 0.45,-1.02 0.75,-2.22 0.3,-1.23 0.45,-2.46 0.03,-1.26 -0.24,-1.77 -0.27,-0.51 -0.69,-0.51 -0.42,-0.03 -0.96,0.36 -0.51,0.36 -1.05,0.9 -0.54,0.51 -1.02,1.08 -0.45,0.57 -0.72,0.93 -0.24,0.96 -0.54,2.01 -0.27,1.02 -0.57,2.13 z" />
      <path
         id="path28"
         style=""
         d="m 184.49547,93.37 q 0.15,-0.15 0.33,-0.03 0.18,0.12 0.06,0.27 -0.54,0.69 -1.14,1.35 -0.6,0.66 -1.26,1.05 -0.63,0.39 -1.29,0.42 -0.66,0.03 -1.32,-0.54 -0.54,0.99 -1.23,1.74 -0.69,0.75 -1.44,1.26 -0.75,0.51 -1.53,0.78 -0.75,0.27 -1.41,0.3 h -0.03 q -0.03,0 -0.09,0.03 -0.06,0 -0.15,-0.03 -0.15,0 -0.27,0 -0.12,0 -0.27,-0.03 -0.12,-0.06 -0.15,-0.09 -0.54,-0.15 -1.2,-0.54 -0.66,-0.42 -1.14,-1.23 -0.48,-0.81 -0.6,-2.07 -0.15,-1.29 0.33,-3.18 0.42,-1.62 0.96,-2.79 0.57,-1.17 1.17,-1.95 0.6,-0.81 1.2,-1.29 0.63,-0.48 1.2,-0.72 1.35,-0.57 2.79,-0.24 1.29,0.24 1.98,1.17 0.72,0.93 0.96,2.22 0.24,1.26 0.06,2.73 -0.15,1.47 -0.63,2.76 0.06,0.24 0.3,0.45 0.36,0.36 0.81,0.33 0.48,-0.06 0.99,-0.36 0.54,-0.3 1.05,-0.78 0.51,-0.48 0.96,-0.99 z m -9.93,5.4 q 0.45,0.06 1.02,-0.03 0.6,-0.12 1.23,-0.51 0.63,-0.39 1.26,-1.11 0.63,-0.75 1.14,-1.98 0,-0.03 -0.03,-0.03 -0.78,-1.11 -0.87,-1.92 -0.09,-0.81 0.18,-1.35 0.27,-0.57 0.75,-0.9 0.48,-0.33 0.9,-0.51 0,-1.02 -0.18,-1.68 -0.18,-0.69 -0.45,-1.08 -0.27,-0.42 -0.6,-0.57 -0.33,-0.15 -0.63,-0.12 h -0.03 0.03 q -1.53,0.21 -2.82,1.8 -1.26,1.59 -1.98,4.14 -0.24,1.11 -0.33,1.95 -0.06,0.84 -0.03,1.47 0.03,0.6 0.15,1.02 0.12,0.42 0.27,0.69 0.36,0.63 0.99,0.72 z" />
      <path
         id="path30"
         style=""
         d="m 196.64453,93.37 q 0.12,-0.12 0.3,0 0.18,0.12 0.09,0.27 -0.39,0.51 -0.84,0.99 -0.42,0.48 -0.87,0.9 -0.45,0.39 -0.93,0.66 -0.48,0.24 -0.96,0.27 h -0.03 q -0.51,0.03 -1.11,-0.09 -0.6,-0.15 -1.08,-0.51 -0.48,-0.36 -0.78,-0.99 -0.27,-0.63 -0.15,-1.59 0.18,-1.26 0.39,-2.22 0.21,-0.96 0.42,-1.65 0.21,-0.72 0.39,-1.23 0.21,-0.54 0.36,-0.96 0.39,-1.14 0.27,-1.32 -0.12,-0.21 -0.84,0.24 -0.45,0.27 -1.11,1.14 -0.63,0.84 -1.29,1.86 -0.63,0.99 -1.17,1.92 -0.54,0.9 -0.75,1.29 -0.33,1.29 -0.6,2.55 -0.27,1.26 -0.48,2.31 -0.18,1.02 -0.24,1.71 -0.06,0.69 0.06,0.84 0.09,0.09 -0.15,0.21 -0.24,0.09 -0.66,0.03 -0.42,-0.06 -0.93,-0.39 -0.51,-0.33 -0.93,-1.08 -0.27,-0.51 -0.12,-1.59 0.15,-1.08 0.51,-2.43 0.39,-1.38 0.9,-2.91 0.54,-1.53 0.99,-2.88 0.48,-1.38 0.81,-2.46 0.33,-1.11 0.3,-1.65 0.12,-0.03 0.48,0.06 0.39,0.09 0.75,0.33 0.39,0.21 0.63,0.54 0.27,0.3 0.18,0.72 -0.12,0.51 -0.33,1.29 -0.18,0.78 -0.42,1.74 0.45,-0.84 1.05,-1.74 0.6,-0.9 1.26,-1.59 0.69,-0.72 1.41,-1.08 0.72,-0.39 1.47,-0.18 1.23,0.36 1.44,1.44 0.21,1.05 -0.51,3.48 -0.15,0.51 -0.39,1.41 -0.21,0.9 -0.36,1.83 -0.12,0.9 -0.06,1.68 0.09,0.75 0.54,0.93 0.15,0 0.21,0.03 0.69,-0.12 1.44,-0.75 0.78,-0.63 1.44,-1.38 z" />
      <path
         id="path32"
         style=""
         d="m 210.92641,93.4 q 0.3,-0.15 0.42,0.03 0.06,0.09 0.03,0.24 -0.96,1.47 -1.95,2.67 -0.84,1.05 -1.8,2.04 -0.96,0.99 -1.77,1.35 -0.09,0.06 -0.21,0.12 -0.09,0.09 -0.39,0.15 -0.27,0.06 -0.66,-0.06 -0.36,-0.12 -0.81,-0.42 -0.42,-0.33 -0.78,-0.99 -0.27,-0.51 -0.18,-1.38 0.12,-0.9 0.45,-2.04 -0.51,0.75 -1.08,1.5 -0.57,0.75 -1.11,1.38 -0.51,0.63 -0.96,1.08 -0.42,0.42 -0.66,0.54 -0.39,0.18 -0.84,0.33 -0.45,0.12 -0.96,0.09 -0.48,0 -0.99,-0.18 -0.51,-0.18 -0.99,-0.6 -0.6,-0.54 -0.66,-1.56 -0.09,-1.05 0.21,-2.31 0.27,-1.29 0.81,-2.67 0.54,-1.38 1.14,-2.58 0.6,-1.23 1.17,-2.13 0.57,-0.93 0.9,-1.29 0.33,-0.36 0.72,-0.66 0.39,-0.33 0.84,-0.51 0.45,-0.21 0.93,-0.24 0.48,-0.03 0.99,0.18 0.87,0.36 1.32,1.17 0.45,0.81 0.33,1.77 -0.06,0.51 -0.21,1.05 -0.12,0.51 -0.3,1.02 -0.06,0.24 -0.3,0.18 -0.24,-0.06 -0.21,-0.3 0.09,-0.78 0.27,-1.47 0.18,-0.72 0.24,-1.2 0.06,-0.48 -0.12,-0.63 -0.15,-0.15 -0.72,0.18 -0.93,0.54 -1.89,1.92 -0.96,1.35 -1.71,2.97 -0.75,1.59 -1.17,3.12 -0.39,1.53 -0.21,2.43 0.3,0.69 0.63,0.81 0.33,0.09 0.66,-0.06 0.33,-0.18 0.72,-0.66 0.66,-0.75 1.38,-1.56 0.6,-0.69 1.29,-1.59 0.72,-0.9 1.35,-1.86 0.36,-0.99 0.72,-1.95 0.39,-0.99 0.69,-1.83 0.33,-0.87 0.51,-1.56 0.18,-0.69 0.18,-1.11 0.12,-0.03 0.48,0.06 0.36,0.09 0.75,0.33 0.39,0.21 0.63,0.54 0.27,0.3 0.18,0.72 -0.21,0.9 -0.6,2.31 -0.39,1.41 -0.78,2.94 -0.39,1.53 -0.75,2.97 -0.33,1.44 -0.45,2.37 0.57,-0.3 1.41,-0.99 0.84,-0.72 1.65,-1.53 0.81,-0.81 1.41,-1.53 0.63,-0.75 0.81,-1.11 z" />
      <path
         id="path34"
         style=""
         d="m 224.83891,93.37 q 0.33,-0.15 0.45,0.06 0.06,0.12 0.03,0.24 -0.84,1.44 -1.68,2.64 -0.72,1.05 -1.62,2.07 -0.87,0.99 -1.68,1.38 h -0.03 q 0,0 -0.06,0.03 -0.54,0.21 -0.78,0.27 -0.39,0.09 -0.84,0.09 -0.45,0.03 -0.84,-0.15 -0.39,-0.15 -0.66,-0.57 -0.27,-0.45 -0.27,-1.26 0,-1.26 0.27,-2.55 0.3,-1.32 0.66,-2.43 0.36,-1.14 0.69,-2.01 0.33,-0.9 0.42,-1.32 0.27,-1.17 -0.12,-1.53 -0.36,-0.39 -1.08,0.03 -0.36,0.21 -0.99,1.02 -0.6,0.81 -1.32,1.89 -0.69,1.08 -1.41,2.28 -0.69,1.17 -1.26,2.13 -0.27,1.23 -0.45,2.25 -0.18,1.02 -0.21,1.71 0,0.18 -0.15,0.3 -0.12,0.12 -0.3,0.12 -0.24,-0.03 -0.6,-0.09 -0.36,-0.09 -0.72,-0.24 -0.36,-0.15 -0.63,-0.39 -0.27,-0.27 -0.3,-0.63 -0.03,-0.33 0.06,-1.11 0.09,-0.81 0.3,-1.89 0.21,-1.11 0.51,-2.37 0.3,-1.29 0.69,-2.58 0.39,-1.32 0.87,-2.55 0.48,-1.23 1.05,-2.22 0.15,-0.27 0.51,-0.21 0.36,0.03 0.72,0.27 0.36,0.24 0.6,0.6 0.24,0.36 0.18,0.69 -0.15,0.6 -0.54,2.07 -0.39,1.44 -0.84,3.21 0.63,-1.08 1.35,-2.16 0.75,-1.11 1.5,-1.95 0.78,-0.84 1.53,-1.29 0.78,-0.45 1.44,-0.27 0.63,0.18 1.11,0.54 0.51,0.36 0.78,0.96 0.27,0.6 0.27,1.5 0.03,0.87 -0.33,2.07 -0.09,0.33 -0.3,0.96 -0.21,0.63 -0.45,1.38 -0.21,0.75 -0.42,1.53 -0.18,0.78 -0.27,1.41 -0.06,0.6 0.03,0.96 0.09,0.36 0.45,0.27 0.57,-0.27 1.29,-0.96 0.75,-0.69 1.44,-1.5 0.72,-0.81 1.26,-1.56 0.54,-0.78 0.69,-1.14 z" />
      <path
         id="path36"
         style=""
         d="m 235.06422,93.34 q 0.12,-0.21 0.27,0.03 0.15,0.24 0.03,0.45 -0.57,0.84 -1.32,1.83 -0.75,0.96 -1.74,1.86 -0.96,0.87 -2.13,1.53 -1.14,0.66 -2.52,0.87 -1.89,0.33 -2.97,-0.63 -1.08,-0.99 -1.08,-2.85 0,-2.28 0.51,-3.9 0.51,-1.62 1.29,-2.67 0.78,-1.05 1.74,-1.59 0.96,-0.54 1.86,-0.72 0.9,-0.18 1.62,-0.03 0.72,0.15 1.02,0.51 v 0.03 q 0.66,0.48 0.78,1.29 0.15,0.81 -0.45,2.34 -0.39,0.99 -0.96,1.65 -0.57,0.66 -1.23,1.02 -0.66,0.36 -1.41,0.45 -0.75,0.09 -1.5,-0.06 -0.12,-0.03 -0.3,-0.09 -0.27,1.26 -0.24,2.31 0.03,1.02 0.45,1.44 0.99,0.51 2.25,0.03 1.26,-0.48 2.46,-1.41 1.2,-0.93 2.16,-1.98 0.99,-1.08 1.41,-1.71 z m -4.74,-4.08 q -0.57,-0.06 -1.11,0.3 -0.51,0.36 -0.96,0.99 -0.45,0.63 -0.81,1.47 -0.36,0.81 -0.63,1.68 0.39,0.09 0.81,0.15 0.42,0.06 0.87,-0.03 0.45,-0.09 0.9,-0.36 0.45,-0.27 0.9,-0.81 0.72,-0.81 0.9,-1.41 0.21,-0.6 0.12,-0.99 -0.09,-0.42 -0.39,-0.66 -0.3,-0.24 -0.6,-0.33 z" />
      <path
         id="path38"
         style=""
         d="m 249.30531,93.4 q 0.3,-0.15 0.42,0.03 0.06,0.09 0.03,0.24 -0.96,1.47 -1.95,2.67 -0.84,1.05 -1.8,2.04 -0.96,0.99 -1.77,1.35 -0.09,0.06 -0.21,0.12 -0.09,0.09 -0.39,0.15 -0.27,0.06 -0.66,-0.06 -0.36,-0.12 -0.81,-0.42 -0.42,-0.33 -0.78,-0.99 -0.27,-0.51 -0.18,-1.38 0.12,-0.9 0.45,-2.04 -0.51,0.75 -1.08,1.5 -0.57,0.75 -1.11,1.38 -0.51,0.63 -0.96,1.08 -0.42,0.42 -0.66,0.54 -0.39,0.18 -0.84,0.33 -0.45,0.12 -0.96,0.09 -0.48,0 -0.99,-0.18 -0.51,-0.18 -0.99,-0.6 -0.6,-0.54 -0.66,-1.56 -0.09,-1.05 0.21,-2.31 0.27,-1.29 0.81,-2.67 0.54,-1.38 1.14,-2.58 0.6,-1.23 1.17,-2.13 0.57,-0.93 0.9,-1.29 0.33,-0.36 0.72,-0.66 0.39,-0.33 0.84,-0.51 0.45,-0.21 0.93,-0.24 0.48,-0.03 0.99,0.18 0.87,0.36 1.32,1.17 0.45,0.81 0.33,1.77 -0.06,0.51 -0.21,1.05 -0.12,0.51 -0.3,1.02 -0.06,0.24 -0.3,0.18 -0.24,-0.06 -0.21,-0.3 0.09,-0.78 0.27,-1.47 0.18,-0.72 0.24,-1.2 0.06,-0.48 -0.12,-0.63 -0.15,-0.15 -0.72,0.18 -0.93,0.54 -1.89,1.92 -0.96,1.35 -1.71,2.97 -0.75,1.59 -1.17,3.12 -0.39,1.53 -0.21,2.43 0.3,0.69 0.63,0.81 0.33,0.09 0.66,-0.06 0.33,-0.18 0.72,-0.66 0.66,-0.75 1.38,-1.56 0.6,-0.69 1.29,-1.59 0.72,-0.9 1.35,-1.86 0.36,-0.99 0.72,-1.95 0.39,-0.99 0.69,-1.83 0.33,-0.87 0.51,-1.56 0.18,-0.69 0.18,-1.11 0.12,-0.03 0.48,0.06 0.36,0.09 0.75,0.33 0.39,0.21 0.63,0.54 0.27,0.3 0.18,0.72 -0.21,0.9 -0.6,2.31 -0.39,1.41 -0.78,2.94 -0.39,1.53 -0.75,2.97 -0.33,1.44 -0.45,2.37 0.57,-0.3 1.41,-0.99 0.84,-0.72 1.65,-1.53 0.81,-0.81 1.41,-1.53 0.63,-0.75 0.81,-1.11 z" />
    </g>
  </g>
</svg>
