<?xml version="1.0" encoding="UTF-8" standalone="no"?>
<svg
   xmlns:dc="http://purl.org/dc/elements/1.1/"
   xmlns:cc="http://creativecommons.org/ns#"
   xmlns:rdf="http://www.w3.org/1999/02/22-rdf-syntax-ns#"
   xmlns:svg="http://www.w3.org/2000/svg"
   xmlns="http://www.w3.org/2000/svg"
   id="svg16"
   width="800px"
   version="1.1"
   height="200px">
  <metadata
     id="metadata20">
    <rdf:RDF>
      <cc:Work
         rdf:about="">
        <dc:format>image/svg+xml</dc:format>
        <dc:type
           rdf:resource="http://purl.org/dc/dcmitype/StillImage" />
      </cc:Work>
    </rdf:RDF>
  </metadata>
  <defs
     id="defs4">
    <style
       id="style2"
       type="text/css"><![CDATA[    
     @font-face {font-family:Bariol;
     src: url('/Users/francesco/Repos/write-logos/src/fonts/Fonts_E_TEMPORANEA/Bariol_Bold.otf');}
     @font-face {font-family:Ephesus extrabold outline;
     src: url('/Users/francesco/Repos/write-logos/src/fonts/Fonts_X/Ephesus-ExtraBold-outline.otf');}
     ]]></style>
  </defs>
  <g
     id="g14"
     style="font-size:60px">
    <g
       style="text-anchor:middle"
       id="text12"
       aria-label="EXTEMPORANEA">
      <path
         id="path22"
         style="font-family:Bariol;letter-spacing:0.075em"
         d="m 166.95062,65.86 h 15.24 c 1.74,0 3.12,-1.38 3.12,-3.12 0,-1.74 -1.38,-3.12 -3.12,-3.12 h -18.72 c -1.92,0 -3.48,1.56 -3.48,3.48 v 33.42 c 0,1.92 1.56,3.48 3.48,3.48 h 19.38 c 1.74,0 3.12,-1.38 3.12,-3.12 0,-1.74 -1.38,-3.12 -3.12,-3.12 h -15.9 V 82.72 h 11.34 c 1.68,0 3.06,-1.38 3.06,-3.06 0,-1.68 -1.38,-3.06 -3.06,-3.06 h -11.34 z" />
      <path
         id="path24"
         style="font-family:'Ephesus extrabold outline';letter-spacing:0.05em"
         d="m 193.97687,98.14 c -0.18,0.18 -0.3,0.48 -0.3,0.72 0,0.54 0.42,1.14 1.08,1.14 h 9.66 c 1.98,0 2.7,-0.9 3.06,-1.26 l 7.08,-9.96 7.08,9.96 c 0.36,0.36 1.08001,1.26 3.06,1.26 h 9.66 c 0.66,0 1.08,-0.6 1.08,-1.14 0,-0.24 -0.12,-0.54 -0.3,-0.72 l -13.44,-19.08 13.32,-19.08 c 0.24,-0.3 0.36,-0.6 0.36,-0.84 0,-0.72 -0.78,-1.14 -1.2,-1.14 h -9.84 c -1.86,0 -2.4,0.6 -3.06,1.26 l -6.72,9.6 -6.72,-9.6 c -0.66,-0.66 -1.2,-1.26 -3.06,-1.26 h -9.84 c -0.42,0 -1.2,0.42 -1.2,1.14 0,0.24 0.12,0.54 0.36,0.84 l 13.32,19.08 z m 10.44,-0.06 h -8.1 l 13.44,-19.02 -13.44,-19.14 h 8.46 c 1.02,0 1.32,0.36 1.68,0.72 l -0.18,-0.3 8.28,11.82 c 2.22,-3.18 6.06,-8.64 8.10001,-11.52 0.35999,-0.36 0.65999,-0.72 1.67999,-0.72 h 8.34 l -13.32,19.14 13.38,19.02 h -8.04 c -0.96,0 -1.26,-0.24 -1.44,-0.42 l -8.7,-12.24 c -2.33999,3.3 -6.3,8.88 -8.64,12.18 l 0.12,-0.12 c -0.18,0.24 -0.6,0.6 -1.62,0.6 z" />
      <path
         id="path26"
         style="font-family:Bariol;letter-spacing:0.075em"
         d="m 269.58531,65.74 c 1.68,0 3.06,-1.38 3.06,-3.06 0,-1.68 -1.38,-3.06 -3.06,-3.06 h -25.32 c -1.68,0 -3.06,1.38 -3.06,3.06 0,1.68 1.38,3.06 3.06,3.06 h 9.18 V 97 c 0,1.92 1.56,3.48 3.48,3.48 1.92,0 3.48,-1.56 3.48,-3.48 V 65.74 Z" />
      <path
         id="path28"
         style="font-family:Bariol;letter-spacing:0.075em"
         d="m 288.98969,65.86 h 15.24 c 1.74,0 3.12,-1.38 3.12,-3.12 0,-1.74 -1.38,-3.12 -3.12,-3.12 h -18.72 c -1.92,0 -3.48,1.56 -3.48,3.48 v 33.42 c 0,1.92 1.56,3.48 3.48,3.48 h 19.38 c 1.74,0 3.12,-1.38 3.12,-3.12 0,-1.74 -1.38,-3.12 -3.12,-3.12 h -15.9 V 82.72 h 11.34 c 1.68,0 3.06,-1.38 3.06,-3.06 0,-1.68 -1.38,-3.06 -3.06,-3.06 h -11.34 z" />
      <path
         id="path30"
         style="font-family:Bariol;letter-spacing:0.075em"
         d="m 336.83594,93.64 c 1.2,0 2.34,-0.6 2.94,-1.68 l 9.42,-16.74 v 21.84 c 0,1.86 1.56,3.42 3.42,3.42 1.86,0 3.42,-1.56 3.42,-3.42 v -34.5 c 0,-1.86 -1.56,-3.42 -3.42,-3.42 -1.5,0 -2.46,0.84 -3.06,1.92 l -12.72,22.8 -12.72,-22.8 c -0.6,-1.08 -1.56,-1.92 -3.06,-1.92 -1.86,0 -3.42,1.56 -3.42,3.42 v 34.5 c 0,1.86 1.56,3.42 3.42,3.42 1.86,0 3.42,-1.56 3.42,-3.42 V 75.22 l 9.42,16.74 c 0.6,1.08 1.74,1.68 2.94,1.68 z" />
      <path
         id="path32"
         style="font-family:Bariol;letter-spacing:0.075em"
         d="m 382.7275,84.28 c 7.14,0 12.6,-4.08 12.6,-12.36 0,-8.4 -5.58,-12.3 -12.6,-12.3 h -11.46 c -1.92,0 -3.48,1.56 -3.48,3.48 V 97 c 0,1.92 1.56,3.48 3.48,3.48 1.92,0 3.48,-1.56 3.48,-3.48 V 84.28 Z m -0.54,-18.42 c 3.66,0 5.94,2.1 5.94,6.06 0,3.9 -2.22,6.12 -5.94,6.12 h -7.44 V 65.86 Z" />
      <path
         id="path34"
         style="font-family:Bariol;letter-spacing:0.075em"
         d="m 422.91156,100.84 c 12.12,0 19.02,-6.96 19.02,-21 0,-14.22 -6.9,-21.06 -19.02,-21.06 -12.12,0 -19.02,6.84 -19.02,21.06 0,14.04 6.9,21 19.02,21 z m 0,-35.82 c 7.92,0 11.82,4.86 11.82,14.82 0,9.9 -3.9,14.76 -11.82,14.76 -7.92,0 -11.82,-4.86 -11.82,-14.76 0,-9.96 3.9,-14.82 11.82,-14.82 z" />
      <path
         id="path36"
         style="font-family:Bariol;letter-spacing:0.075em"
         d="m 462.88187,84.52 10.92,14.7 c 0.60001,0.78 1.68,1.26 2.7,1.26 1.92,0 3.48,-1.56 3.48,-3.48 0,-0.66 -0.18,-1.38 -0.72,-2.1 l -8.88,-10.8 c 5.76001,-0.72 9.24,-6.24 9.24,-11.94 0,-6.78 -4.56,-12.54 -12.65999,-12.54 h -11.46001 c -1.91999,0 -3.47999,1.56 -3.47999,3.48 V 97 c 0,1.92 1.56,3.48 3.47999,3.48 1.92,0 3.48,-1.56 3.48,-3.48 V 84.52 Z m 4.02001,-18.66 c 3.89999,0 5.51999,3.06 5.51999,6.3 0,3.18 -1.62,6.24 -5.33999,6.24 h -8.10001 V 65.86 Z" />
      <path
         id="path38"
         style="font-family:Bariol;letter-spacing:0.075em"
         d="m 510.19469,83.14 h -9.84 l 4.92,-12.6 z m 2.34,6.36 3.66,8.7 c 0.54,1.26 1.68,2.28 3.24,2.28 1.86,0 3.42,-1.56 3.42,-3.42 0,-0.36 -0.06,-0.84 -0.24,-1.26 l -14.16,-34.5 c -0.36,-0.84 -1.32,-2.16 -3.18,-2.16 -1.86,0 -2.82,1.32 -3.18,2.16 l -14.16,34.5 c -0.18,0.42 -0.24,0.9 -0.24,1.26 0,1.86 1.56,3.42 3.42,3.42 1.56,0 2.7,-1.02 3.24,-2.28 l 3.66,-8.7 z" />
      <path
         id="path40"
         style="font-family:Bariol;letter-spacing:0.075em"
         d="m 559.0975,59.14 c -1.86,0 -3.42,1.56 -3.42,3.42 v 23.76 l -17.76,-25.74 c -0.6,-0.9 -1.56,-1.44 -2.76,-1.44 -1.86,0 -3.42,1.56 -3.42,3.42 v 34.5 c 0,1.86 1.56,3.42 3.42,3.42 1.86,0 3.42,-1.56 3.42,-3.42 V 73.42 l 17.7,25.56 c 0.6,0.9 1.68,1.5 2.82,1.5 1.86,0 3.42,-1.56 3.42,-3.42 v -34.5 c 0,-1.86 -1.56,-3.42 -3.42,-3.42 z" />
      <path
         id="path42"
         style="font-family:Bariol;letter-spacing:0.075em"
         d="m 580.88031,65.86 h 15.24 c 1.74,0 3.12,-1.38 3.12,-3.12 0,-1.74 -1.38,-3.12 -3.12,-3.12 h -18.72 c -1.92,0 -3.48,1.56 -3.48,3.48 v 33.42 c 0,1.92 1.56,3.48 3.48,3.48 h 19.38 c 1.74,0 3.12,-1.38 3.12,-3.12 0,-1.74 -1.38,-3.12 -3.12,-3.12 h -15.9 V 82.72 h 11.34 c 1.68,0 3.06,-1.38 3.06,-3.06 0,-1.68 -1.38,-3.06 -3.06,-3.06 h -11.34 z" />
      <path
         id="path44"
         style="font-family:Bariol;letter-spacing:0.075em"
         d="m 629.86656,83.14 h -9.84 l 4.92,-12.6 z m 2.34,6.36 3.66,8.7 c 0.54,1.26 1.68,2.28 3.24,2.28 1.86,0 3.42,-1.56 3.42,-3.42 0,-0.36 -0.06,-0.84 -0.24,-1.26 l -14.16,-34.5 c -0.36,-0.84 -1.32,-2.16 -3.18,-2.16 -1.86,0 -2.82,1.32 -3.18,2.16 l -14.16,34.5 c -0.18,0.42 -0.24,0.9 -0.24,1.26 0,1.86 1.56,3.42 3.42,3.42 1.56,0 2.7,-1.02 3.24,-2.28 l 3.66,-8.7 z" />
    </g>
  </g>
</svg>
