<?xml version="1.0" encoding="UTF-8" standalone="no"?>
<svg
   xmlns:dc="http://purl.org/dc/elements/1.1/"
   xmlns:cc="http://creativecommons.org/ns#"
   xmlns:rdf="http://www.w3.org/1999/02/22-rdf-syntax-ns#"
   xmlns:svg="http://www.w3.org/2000/svg"
   xmlns="http://www.w3.org/2000/svg"
   id="svg16"
   width="800px"
   version="1.1"
   height="200px">
  <metadata
     id="metadata20">
    <rdf:RDF>
      <cc:Work
         rdf:about="">
        <dc:format>image/svg+xml</dc:format>
        <dc:type
           rdf:resource="http://purl.org/dc/dcmitype/StillImage" />
      </cc:Work>
    </rdf:RDF>
  </metadata>
  <defs
     id="defs4">
    <style
       id="style2"
       type="text/css"><![CDATA[    
     @font-face {font-family:Bariol;
     src: url('/Users/francesco/Repos/write-logos/src/fonts/Fonts_E_TEMPORANEA/Bariol_Bold.otf');}
     @font-face {font-family:Monoton;
     src: url('/Users/francesco/Repos/write-logos/src/fonts/Fonts_X/Monoton-Regular.ttf');}
     ]]></style>
  </defs>
  <g
     id="g14"
     style="font-size:60px">
    <g
       style="text-anchor:middle"
       id="text12"
       aria-label="EXTEMPORANEA">
      <path
         id="path22"
         style="font-family:Bariol;letter-spacing:0.075em"
         d="m 162.96625,65.86 h 15.24 c 1.74,0 3.12,-1.38 3.12,-3.12 0,-1.74 -1.38,-3.12 -3.12,-3.12 h -18.72 c -1.92,0 -3.48,1.56 -3.48,3.48 v 33.42 c 0,1.92 1.56,3.48 3.48,3.48 h 19.38 c 1.74,0 3.12,-1.38 3.12,-3.12 0,-1.74 -1.38,-3.12 -3.12,-3.12 h -15.9 V 82.72 h 11.34 c 1.68,0 3.06,-1.38 3.06,-3.06 0,-1.68 -1.38,-3.06 -3.06,-3.06 h -11.34 z" />
      <path
         id="path24"
         style="font-family:Monoton;letter-spacing:0.05em"
         d="m 205.74414,73.779297 -1.25977,1.992187 -15.26367,-24.287109 h 2.49024 z M 216.14453,89.628906 217.375,87.636719 225.16797,100 h -2.49024 z m -7.91016,-19.77539 -1.25976,1.96289 -12.77344,-20.332031 h 2.46094 z m 10.4004,15.820312 1.23046,-1.992187 L 230.14844,100 h -2.49024 z m -7.91016,-19.804687 -1.23047,1.96289 -10.3125,-16.347656 h 2.49023 z M 221.1543,81.689453 222.38477,79.697266 235.1582,100 h -2.49023 z m -7.93946,-19.775391 -1.23047,1.992188 -7.82226,-12.421875 h 2.49023 z M 223.61523,77.734375 224.8457,75.742187 240.13867,100 h -2.49023 z m 12.56836,-26.25 h 2.49024 L 208.14648,100 h -2.49023 z m -4.95117,0 h 2.46094 L 203.16602,100 h -2.49024 z m -5.00976,0 h 2.49023 L 198.15625,100 h -2.49023 z m -4.98047,0 h 2.49023 L 193.17578,100 h -2.49023 z" />
      <path
         id="path26"
         style="font-family:Bariol;letter-spacing:0.075em"
         d="m 273.56969,65.74 c 1.68,0 3.06,-1.38 3.06,-3.06 0,-1.68 -1.38,-3.06 -3.06,-3.06 h -25.32 c -1.68,0 -3.06,1.38 -3.06,3.06 0,1.68 1.38,3.06 3.06,3.06 h 9.18 V 97 c 0,1.92 1.56,3.48 3.48,3.48 1.92,0 3.48,-1.56 3.48,-3.48 V 65.74 Z" />
      <path
         id="path28"
         style="font-family:Bariol;letter-spacing:0.075em"
         d="m 292.97406,65.86 h 15.24 c 1.74,0 3.12,-1.38 3.12,-3.12 0,-1.74 -1.38,-3.12 -3.12,-3.12 h -18.72 c -1.92,0 -3.48,1.56 -3.48,3.48 v 33.42 c 0,1.92 1.56,3.48 3.48,3.48 h 19.38 c 1.74,0 3.12,-1.38 3.12,-3.12 0,-1.74 -1.38,-3.12 -3.12,-3.12 h -15.9 V 82.72 h 11.34 c 1.68,0 3.06,-1.38 3.06,-3.06 0,-1.68 -1.38,-3.06 -3.06,-3.06 h -11.34 z" />
      <path
         id="path30"
         style="font-family:Bariol;letter-spacing:0.075em"
         d="m 340.82031,93.64 c 1.2,0 2.34,-0.6 2.94,-1.68 l 9.42,-16.74 v 21.84 c 0,1.86 1.56,3.42 3.42,3.42 1.86,0 3.42,-1.56 3.42,-3.42 v -34.5 c 0,-1.86 -1.56,-3.42 -3.42,-3.42 -1.5,0 -2.46,0.84 -3.06,1.92 l -12.72,22.8 -12.72,-22.8 c -0.6,-1.08 -1.56,-1.92 -3.06,-1.92 -1.86,0 -3.42,1.56 -3.42,3.42 v 34.5 c 0,1.86 1.56,3.42 3.42,3.42 1.86,0 3.42,-1.56 3.42,-3.42 V 75.22 l 9.42,16.74 c 0.6,1.08 1.74,1.68 2.94,1.68 z" />
      <path
         id="path32"
         style="font-family:Bariol;letter-spacing:0.075em"
         d="m 386.71188,84.28 c 7.13999,0 12.59999,-4.08 12.59999,-12.36 0,-8.4 -5.58,-12.3 -12.59999,-12.3 h -11.46001 c -1.91999,0 -3.47999,1.56 -3.47999,3.48 V 97 c 0,1.92 1.56,3.48 3.47999,3.48 1.92,0 3.48,-1.56 3.48,-3.48 V 84.28 Z m -0.54001,-18.42 c 3.66001,0 5.94,2.1 5.94,6.06 0,3.9 -2.21999,6.12 -5.94,6.12 h -7.44 V 65.86 Z" />
      <path
         id="path34"
         style="font-family:Bariol;letter-spacing:0.075em"
         d="m 426.89594,100.84 c 12.12,0 19.02,-6.96 19.02,-21 0,-14.22 -6.9,-21.06 -19.02,-21.06 -12.12,0 -19.02,6.84 -19.02,21.06 0,14.04 6.9,21 19.02,21 z m 0,-35.82 c 7.92,0 11.82,4.86 11.82,14.82 0,9.9 -3.9,14.76 -11.82,14.76 -7.92,0 -11.82,-4.86 -11.82,-14.76 0,-9.96 3.9,-14.82 11.82,-14.82 z" />
      <path
         id="path36"
         style="font-family:Bariol;letter-spacing:0.075em"
         d="m 466.86625,84.52 10.92,14.7 c 0.6,0.78 1.68,1.26 2.7,1.26 1.92,0 3.48,-1.56 3.48,-3.48 0,-0.66 -0.18,-1.38 -0.72,-2.1 l -8.88,-10.8 c 5.76,-0.72 9.24,-6.24 9.24,-11.94 0,-6.78 -4.56,-12.54 -12.66,-12.54 h -11.46 c -1.92,0 -3.48,1.56 -3.48,3.48 V 97 c 0,1.92 1.56,3.48 3.48,3.48 1.92,0 3.48,-1.56 3.48,-3.48 V 84.52 Z m 4.02,-18.66 c 3.9,0 5.52,3.06 5.52,6.3 0,3.18 -1.62,6.24 -5.34,6.24 h -8.1 V 65.86 Z" />
      <path
         id="path38"
         style="font-family:Bariol;letter-spacing:0.075em"
         d="m 514.17906,83.14 h -9.84 l 4.92,-12.6 z m 2.34,6.36 3.66,8.7 c 0.54,1.26 1.68,2.28 3.24,2.28 1.86,0 3.42,-1.56 3.42,-3.42 0,-0.36 -0.06,-0.84 -0.24,-1.26 l -14.16,-34.5 c -0.36,-0.84 -1.32,-2.16 -3.18,-2.16 -1.86,0 -2.82,1.32 -3.18,2.16 l -14.16,34.5 c -0.18,0.42 -0.24,0.9 -0.24,1.26 0,1.86 1.56,3.42 3.42,3.42 1.56,0 2.7,-1.02 3.24,-2.28 l 3.66,-8.7 z" />
      <path
         id="path40"
         style="font-family:Bariol;letter-spacing:0.075em"
         d="m 563.08187,59.14 c -1.86,0 -3.42,1.56 -3.42,3.42 V 86.32 L 541.90188,60.58 c -0.60001,-0.9 -1.56001,-1.44 -2.76,-1.44 -1.86,0 -3.42001,1.56 -3.42001,3.42 v 34.5 c 0,1.86 1.56001,3.42 3.42001,3.42 1.86,0 3.41999,-1.56 3.41999,-3.42 V 73.42 l 17.70001,25.56 c 0.6,0.9 1.67999,1.5 2.81999,1.5 1.86,0 3.42001,-1.56 3.42001,-3.42 v -34.5 c 0,-1.86 -1.56001,-3.42 -3.42001,-3.42 z" />
      <path
         id="path42"
         style="font-family:Bariol;letter-spacing:0.075em"
         d="m 584.86469,65.86 h 15.24 c 1.74,0 3.12,-1.38 3.12,-3.12 0,-1.74 -1.38,-3.12 -3.12,-3.12 h -18.72 c -1.92,0 -3.48,1.56 -3.48,3.48 v 33.42 c 0,1.92 1.56,3.48 3.48,3.48 h 19.38 c 1.74,0 3.12,-1.38 3.12,-3.12 0,-1.74 -1.38,-3.12 -3.12,-3.12 h -15.9 V 82.72 h 11.34 c 1.68,0 3.06,-1.38 3.06,-3.06 0,-1.68 -1.38,-3.06 -3.06,-3.06 h -11.34 z" />
      <path
         id="path44"
         style="font-family:Bariol;letter-spacing:0.075em"
         d="m 633.85094,83.14 h -9.84 l 4.92,-12.6 z m 2.34,6.36 3.66,8.7 c 0.54,1.26 1.68,2.28 3.24,2.28 1.86,0 3.42,-1.56 3.42,-3.42 0,-0.36 -0.06,-0.84 -0.24,-1.26 l -14.16,-34.5 c -0.36,-0.84 -1.32,-2.16 -3.18,-2.16 -1.86,0 -2.82,1.32 -3.18,2.16 l -14.16,34.5 c -0.18,0.42 -0.24,0.9 -0.24,1.26 0,1.86 1.56,3.42 3.42,3.42 1.56,0 2.7,-1.02 3.24,-2.28 l 3.66,-8.7 z" />
    </g>
  </g>
</svg>
