<?xml version="1.0" encoding="UTF-8" standalone="no"?>
<svg
   xmlns:dc="http://purl.org/dc/elements/1.1/"
   xmlns:cc="http://creativecommons.org/ns#"
   xmlns:rdf="http://www.w3.org/1999/02/22-rdf-syntax-ns#"
   xmlns:svg="http://www.w3.org/2000/svg"
   xmlns="http://www.w3.org/2000/svg"
   id="svg16"
   width="800px"
   version="1.1"
   height="200px">
  <metadata
     id="metadata20">
    <rdf:RDF>
      <cc:Work
         rdf:about="">
        <dc:format>image/svg+xml</dc:format>
        <dc:type
           rdf:resource="http://purl.org/dc/dcmitype/StillImage" />
      </cc:Work>
    </rdf:RDF>
  </metadata>
  <defs
     id="defs4">
    <style
       id="style2"
       type="text/css"><![CDATA[    
     @font-face {font-family:Bariol;
     src: url('/Users/francesco/Repos/write-logos/src/fonts/Fonts_E_TEMPORANEA/Bariol_Bold.otf');}
     @font-face {font-family:FrankfurterEF;
     src: url('/Users/francesco/Repos/write-logos/src/fonts/Fonts_X/FrankfurterEF-Highlight.ttf');}
     ]]></style>
  </defs>
  <g
     id="g14"
     style="font-size:60px">
    <g
       style="text-anchor:middle"
       id="text12"
       aria-label="EXTEMPORANEA">
      <path
         id="path22"
         style="font-family:Bariol;letter-spacing:0.075em"
         d="m 171.63812,65.86 h 15.24 c 1.74,0 3.12,-1.38 3.12,-3.12 0,-1.74 -1.38,-3.12 -3.12,-3.12 h -18.72 c -1.92,0 -3.48,1.56 -3.48,3.48 v 33.42 c 0,1.92 1.56,3.48 3.48,3.48 h 19.38 c 1.74,0 3.12,-1.38 3.12,-3.12 0,-1.74 -1.38,-3.12 -3.12,-3.12 h -15.9 V 82.72 h 11.34 c 1.68,0 3.06,-1.38 3.06,-3.06 0,-1.68 -1.38,-3.06 -3.06,-3.06 h -11.34 z" />
      <path
         id="path24"
         style="font-family:FrankfurterEF;letter-spacing:0.05em"
         d="m 232.02437,93.7 q 0,-1.2 -0.42,-2.28 -0.36,-1.08 -1.02,-2.04 l -7.5,-10.02 6.12,-8.1 q 0.84,-1.08 1.44,-2.34 0.66,-1.32 0.66,-2.7 0,-1.32 -0.54,-2.52 -0.54,-1.2 -1.5,-2.04 -0.9,-0.9 -2.16,-1.38 -1.2,-0.54 -2.52,-0.54 -2.04,0 -3.36,1.02 -1.26,1.02 -2.46,2.52 l -4.02,5.04 -4.26,-5.64 q -1.02,-1.38 -2.4,-2.16 -1.38,-0.78 -3.18,-0.78 -1.38,0 -2.58,0.54 -1.2,0.48 -2.16,1.38 -0.9,0.9 -1.44,2.1 -0.54,1.2 -0.54,2.58 0,1.62 0.84,3.06 0.84,1.38 1.8,2.58 l 5.58,7.38 -7.5,9.9 q -0.72,0.96 -1.14,2.16 -0.41999,1.14 -0.41999,2.34 0,1.38 0.53999,2.58 0.54,1.2 1.44,2.1 0.9,0.84 2.1,1.38 1.2,0.48 2.58,0.48 1.8,0 3,-0.72 1.26,-0.78 2.34001,-2.16 l 5.39999,-7.02 5.4,7.08 q 1.02,1.32 2.4,2.1 1.38,0.72 3.06,0.72 1.32,0 2.52,-0.54 1.2,-0.54 2.04,-1.44 0.84,-0.9 1.32,-2.1 0.54,-1.2 0.54,-2.52 z m -8.46,-29.4 q 0,0.48 -0.36,0.84 -0.35999,0.36 -0.84,0.36 -0.48,0 -0.84,-0.36 -0.3,-0.36 -0.3,-0.84 0,-1.14 1.14,-1.14 0.48001,0 0.84,0.36 0.36,0.3 0.36,0.78 z m -2.21999,2.28 q 0,0.3 -0.12001,0.54 -0.12,0.18 -0.24,0.42 l -3,3.9 q -0.18,0.24 -0.42,0.42 -0.24,0.18 -0.54,0.18 -0.48,0 -0.72,-0.3 -0.24,-0.3 -0.24,-0.72 0,-0.3 0.12,-0.54 0.18,-0.3 0.36,-0.54 l 2.76,-3.6 q 0.42,-0.66 1.08,-0.66 0.36,0 0.66,0.24 0.30001,0.24 0.30001,0.66 z M 203.94437,64 q 0,1.14 -1.14,1.14 -0.48,0 -0.84,-0.3 -0.36,-0.36 -0.36,-0.84 0,-0.48 0.36,-0.84 0.36,-0.36 0.84,-0.36 0.48,0 0.78,0.36 0.36,0.36 0.36,0.84 z m 22.68,32.94 q 0,0.66 -0.48,0.9 -0.42,0.24 -0.96,0.24 -1.38,0 -2.16,-0.66 -0.72,-0.72 -1.44,-1.74 l -5.1,-6.84 q -0.18,-0.24 -0.36,-0.48 -0.12,-0.3 -0.12,-0.6 0,-0.96 0.90001,-0.96 0.41999,0 0.65999,0.3 0.3,0.24 0.54,0.54 l 5.34,7.2 q 0.54,0.72 1.08,0.9 0.54,0.18 1.02,0.3 0.48,0.06 0.78,0.18 0.3,0.12 0.3,0.72 z m -15.72,-17.46 q 0,1.02 -0.6,1.86 -0.54,0.84 -1.14,1.62 l -6.78,8.76 q -0.3,0.36 -0.48,0.84 -0.18,0.42 -0.18,0.9 0,0.96 0.42,1.38 0.48,0.42 1.02,0.66 0.54,0.24 0.96,0.48 0.48,0.18 0.48,0.72 0,0.48 -0.42,0.78 -0.36,0.3 -0.83999,0.3 -0.72001,0 -1.44001,-0.36 -0.66,-0.42 -1.14,-0.96 -0.48,-0.6 -0.78,-1.32 -0.3,-0.72 -0.3,-1.44 0,-1.02 0.36,-1.92 0.42,-0.96 1.08,-1.8 l 6.9,-8.82 q 0.3,-0.36 0.54,-0.78 0.24,-0.48 0.24,-0.96 0,-0.66 -0.36,-1.26 -0.36,-0.6 -0.72,-1.08 l -6.3,-8.46 q -0.24,-0.3 -0.48,-0.72 -0.18,-0.48 -0.18,-0.9 0,-0.48 0.24,-0.78 0.3,-0.3 0.78,-0.3 0.72,0 0.96,0.66 0.12,0.24 0.24,0.48 0.12,0.18 0.24,0.42 l 5.76,7.8 q 0.66,0.96 1.26,1.98 0.66,1.02 0.66,2.22 z" />
      <path
         id="path26"
         style="font-family:Bariol;letter-spacing:0.075em"
         d="m 264.89781,65.74 c 1.68,0 3.06,-1.38 3.06,-3.06 0,-1.68 -1.38,-3.06 -3.06,-3.06 h -25.32 c -1.68,0 -3.06,1.38 -3.06,3.06 0,1.68 1.38,3.06 3.06,3.06 h 9.18 V 97 c 0,1.92 1.56,3.48 3.48,3.48 1.92,0 3.48,-1.56 3.48,-3.48 V 65.74 Z" />
      <path
         id="path28"
         style="font-family:Bariol;letter-spacing:0.075em"
         d="m 284.30219,65.86 h 15.24 c 1.74,0 3.12,-1.38 3.12,-3.12 0,-1.74 -1.38,-3.12 -3.12,-3.12 h -18.72 c -1.92,0 -3.48,1.56 -3.48,3.48 v 33.42 c 0,1.92 1.56,3.48 3.48,3.48 h 19.38 c 1.74,0 3.12,-1.38 3.12,-3.12 0,-1.74 -1.38,-3.12 -3.12,-3.12 h -15.9 V 82.72 h 11.34 c 1.68,0 3.06,-1.38 3.06,-3.06 0,-1.68 -1.38,-3.06 -3.06,-3.06 h -11.34 z" />
      <path
         id="path30"
         style="font-family:Bariol;letter-spacing:0.075em"
         d="m 332.14844,93.64 c 1.2,0 2.34,-0.6 2.94,-1.68 l 9.42,-16.74 v 21.84 c 0,1.86 1.56,3.42 3.42,3.42 1.86,0 3.42,-1.56 3.42,-3.42 v -34.5 c 0,-1.86 -1.56,-3.42 -3.42,-3.42 -1.5,0 -2.46,0.84 -3.06,1.92 l -12.72,22.8 -12.72,-22.8 c -0.6,-1.08 -1.56,-1.92 -3.06,-1.92 -1.86,0 -3.42,1.56 -3.42,3.42 v 34.5 c 0,1.86 1.56,3.42 3.42,3.42 1.86,0 3.42,-1.56 3.42,-3.42 V 75.22 l 9.42,16.74 c 0.6,1.08 1.74,1.68 2.94,1.68 z" />
      <path
         id="path32"
         style="font-family:Bariol;letter-spacing:0.075em"
         d="m 378.04,84.28 c 7.14,0 12.6,-4.08 12.6,-12.36 0,-8.4 -5.58,-12.3 -12.6,-12.3 h -11.46 c -1.92,0 -3.48,1.56 -3.48,3.48 V 97 c 0,1.92 1.56,3.48 3.48,3.48 1.92,0 3.48,-1.56 3.48,-3.48 V 84.28 Z M 377.5,65.86 c 3.66,0 5.94,2.1 5.94,6.06 0,3.9 -2.22,6.12 -5.94,6.12 h -7.44 V 65.86 Z" />
      <path
         id="path34"
         style="font-family:Bariol;letter-spacing:0.075em"
         d="m 418.22406,100.84 c 12.12,0 19.02,-6.96 19.02,-21 0,-14.22 -6.9,-21.06 -19.02,-21.06 -12.12,0 -19.02,6.84 -19.02,21.06 0,14.04 6.9,21 19.02,21 z m 0,-35.82 c 7.92,0 11.82,4.86 11.82,14.82 0,9.9 -3.9,14.76 -11.82,14.76 -7.92,0 -11.82,-4.86 -11.82,-14.76 0,-9.96 3.9,-14.82 11.82,-14.82 z" />
      <path
         id="path36"
         style="font-family:Bariol;letter-spacing:0.075em"
         d="m 458.19437,84.52 10.92,14.7 c 0.60001,0.78 1.68,1.26 2.7,1.26 1.92,0 3.48,-1.56 3.48,-3.48 0,-0.66 -0.18,-1.38 -0.72,-2.1 l -8.88,-10.8 c 5.76001,-0.72 9.24,-6.24 9.24,-11.94 0,-6.78 -4.56,-12.54 -12.65999,-12.54 h -11.46001 c -1.91999,0 -3.47999,1.56 -3.47999,3.48 V 97 c 0,1.92 1.56,3.48 3.47999,3.48 1.92,0 3.48,-1.56 3.48,-3.48 V 84.52 Z m 4.02001,-18.66 c 3.89999,0 5.51999,3.06 5.51999,6.3 0,3.18 -1.62,6.24 -5.33999,6.24 h -8.10001 V 65.86 Z" />
      <path
         id="path38"
         style="font-family:Bariol;letter-spacing:0.075em"
         d="m 505.50719,83.14 h -9.84 l 4.92,-12.6 z m 2.34,6.36 3.66,8.7 c 0.54,1.26 1.68,2.28 3.24,2.28 1.86,0 3.42,-1.56 3.42,-3.42 0,-0.36 -0.06,-0.84 -0.24,-1.26 l -14.16,-34.5 c -0.36,-0.84 -1.32,-2.16 -3.18,-2.16 -1.86,0 -2.82,1.32 -3.18,2.16 l -14.16,34.5 c -0.18,0.42 -0.24,0.9 -0.24,1.26 0,1.86 1.56,3.42 3.42,3.42 1.56,0 2.7,-1.02 3.24,-2.28 l 3.66,-8.7 z" />
      <path
         id="path40"
         style="font-family:Bariol;letter-spacing:0.075em"
         d="m 554.41,59.14 c -1.86,0 -3.42,1.56 -3.42,3.42 V 86.32 L 533.23,60.58 c -0.6,-0.9 -1.56,-1.44 -2.76,-1.44 -1.86,0 -3.42,1.56 -3.42,3.42 v 34.5 c 0,1.86 1.56,3.42 3.42,3.42 1.86,0 3.42,-1.56 3.42,-3.42 V 73.42 l 17.7,25.56 c 0.6,0.9 1.68,1.5 2.82,1.5 1.86,0 3.42,-1.56 3.42,-3.42 v -34.5 c 0,-1.86 -1.56,-3.42 -3.42,-3.42 z" />
      <path
         id="path42"
         style="font-family:Bariol;letter-spacing:0.075em"
         d="m 576.19281,65.86 h 15.24 c 1.74,0 3.12,-1.38 3.12,-3.12 0,-1.74 -1.38,-3.12 -3.12,-3.12 h -18.72 c -1.92,0 -3.48,1.56 -3.48,3.48 v 33.42 c 0,1.92 1.56,3.48 3.48,3.48 h 19.38 c 1.74,0 3.12,-1.38 3.12,-3.12 0,-1.74 -1.38,-3.12 -3.12,-3.12 h -15.9 V 82.72 h 11.34 c 1.68,0 3.06,-1.38 3.06,-3.06 0,-1.68 -1.38,-3.06 -3.06,-3.06 h -11.34 z" />
      <path
         id="path44"
         style="font-family:Bariol;letter-spacing:0.075em"
         d="m 625.17906,83.14 h -9.84 l 4.92,-12.6 z m 2.34,6.36 3.66,8.7 c 0.54,1.26 1.68,2.28 3.24,2.28 1.86,0 3.42,-1.56 3.42,-3.42 0,-0.36 -0.06,-0.84 -0.24,-1.26 l -14.16,-34.5 c -0.36,-0.84 -1.32,-2.16 -3.18,-2.16 -1.86,0 -2.82,1.32 -3.18,2.16 l -14.16,34.5 c -0.18,0.42 -0.24,0.9 -0.24,1.26 0,1.86 1.56,3.42 3.42,3.42 1.56,0 2.7,-1.02 3.24,-2.28 l 3.66,-8.7 z" />
    </g>
  </g>
</svg>
