<?xml version="1.0" encoding="UTF-8" standalone="no"?>
<svg
   xmlns:dc="http://purl.org/dc/elements/1.1/"
   xmlns:cc="http://creativecommons.org/ns#"
   xmlns:rdf="http://www.w3.org/1999/02/22-rdf-syntax-ns#"
   xmlns:svg="http://www.w3.org/2000/svg"
   xmlns="http://www.w3.org/2000/svg"
   id="svg16"
   width="800px"
   version="1.1"
   height="200px">
  <metadata
     id="metadata20">
    <rdf:RDF>
      <cc:Work
         rdf:about="">
        <dc:format>image/svg+xml</dc:format>
        <dc:type
           rdf:resource="http://purl.org/dc/dcmitype/StillImage" />
      </cc:Work>
    </rdf:RDF>
  </metadata>
  <defs
     id="defs4">
    <style
       id="style2"
       type="text/css"><![CDATA[    
     @font-face {font-family:Bariol;
     src: url('/Users/francesco/Repos/write-logos/src/fonts/Fonts_E_TEMPORANEA/Bariol_Bold.otf');}
     @font-face {font-family:lift me up;
     src: url('/Users/francesco/Repos/write-logos/src/fonts/Fonts_X/liftmeup.ttf');}
     ]]></style>
  </defs>
  <g
     id="g14"
     style="font-size:60px">
    <g
       style="text-anchor:middle"
       id="text12"
       aria-label="EXTEMPORANEA">
      <path
         id="path22"
         style="font-family:Bariol;letter-spacing:0.075em"
         d="m 161.91156,65.86 h 15.24 c 1.74,0 3.12,-1.38 3.12,-3.12 0,-1.74 -1.38,-3.12 -3.12,-3.12 h -18.72 c -1.92,0 -3.48,1.56 -3.48,3.48 v 33.42 c 0,1.92 1.56,3.48 3.48,3.48 h 19.38 c 1.74,0 3.12,-1.38 3.12,-3.12 0,-1.74 -1.38,-3.12 -3.12,-3.12 h -15.9 V 82.72 h 11.34 c 1.68,0 3.06,-1.38 3.06,-3.06 0,-1.68 -1.38,-3.06 -3.06,-3.06 h -11.34 z" />
      <path
         id="path24"
         style="font-family:'lift me up';letter-spacing:0.05em"
         d="m 196.85781,53.26 12.6,16.98 -0.84,1.14 -13.5,-18.12 z m 16.02,21.6 3,-4.08 0.84,1.14 -3,3.96 3,4.08 -0.84,1.14 -3,-4.14 -2.64,3.54 -0.78,-1.08 2.58,-3.54 -2.58,-3.42 0.84,-1.08 z m 16.86,25.08 -13.02,-17.76 0.84,-1.08 13.86,18.84 z m -35.58,0 14.46,-19.38 0.78,1.02 -13.62,18.36 z m 36.48,-46.68 -13.08,17.52 -0.84,-1.08 12.24,-16.44 z m 6.84,46.68 -16.92,-22.98 -3,4.14 -0.84,-1.14 3,-4.08 -3,-3.96 0.84,-1.14 3,4.08 16.14,-21.6 h 1.62 l -16.86,22.62 17.64,24.06 z m -24.18,-15.3 2.58,-3.54 0.84,1.08 -2.64,3.54 z m 2.58,-13.86 -2.58,-3.48 0.84,-1.14 2.58,3.54 z m -11.28,-17.52 8.7,11.76 -0.84,1.14 -9.6,-12.9 z m -2.7,46.68 10.56,-14.22 0.78,1.14 -9.72,13.08 z m 8.34,-19.44 3.06,4.14 -0.84,1.08 -3.06,-4.14 z m 3.06,-13.2 -3,4.08 -0.84,-1.14 3,-4.08 z m -6.42,8.58 2.58,3.54 -0.84,1.14 -2.64,-3.6 -17.04,22.98 h -1.62 l 17.82,-24.06 -16.92,-22.62 h 1.74 l 16.02,21.6 2.64,-3.48 0.84,1.08 z m 16.02,24.06 -9.66,-13.08 0.84,-1.14 10.44,14.22 z m 0.84,-46.68 -9.6,12.9 -0.84,-1.14 8.82,-11.76 z" />
      <path
         id="path26"
         style="font-family:Bariol;letter-spacing:0.075em"
         d="m 274.62437,65.74 c 1.68,0 3.06,-1.38 3.06,-3.06 0,-1.68 -1.38,-3.06 -3.06,-3.06 h -25.32 c -1.68,0 -3.06,1.38 -3.06,3.06 0,1.68 1.38,3.06 3.06,3.06 h 9.18 V 97 c 0,1.92 1.56,3.48 3.48001,3.48 1.91999,0 3.47999,-1.56 3.47999,-3.48 V 65.74 Z" />
      <path
         id="path28"
         style="font-family:Bariol;letter-spacing:0.075em"
         d="m 294.02875,65.86 h 15.24 c 1.74,0 3.12,-1.38 3.12,-3.12 0,-1.74 -1.38,-3.12 -3.12,-3.12 h -18.72 c -1.92,0 -3.48,1.56 -3.48,3.48 v 33.42 c 0,1.92 1.56,3.48 3.48,3.48 h 19.38 c 1.74,0 3.12,-1.38 3.12,-3.12 0,-1.74 -1.38,-3.12 -3.12,-3.12 h -15.9 V 82.72 h 11.34 c 1.68,0 3.06,-1.38 3.06,-3.06 0,-1.68 -1.38,-3.06 -3.06,-3.06 h -11.34 z" />
      <path
         id="path30"
         style="font-family:Bariol;letter-spacing:0.075em"
         d="m 341.875,93.64 c 1.2,0 2.34,-0.6 2.94,-1.68 l 9.42,-16.74 v 21.84 c 0,1.86 1.56,3.42 3.42,3.42 1.86,0 3.42,-1.56 3.42,-3.42 v -34.5 c 0,-1.86 -1.56,-3.42 -3.42,-3.42 -1.5,0 -2.46,0.84 -3.06,1.92 l -12.72,22.8 -12.72,-22.8 c -0.6,-1.08 -1.56,-1.92 -3.06,-1.92 -1.86,0 -3.42,1.56 -3.42,3.42 v 34.5 c 0,1.86 1.56,3.42 3.42,3.42 1.86,0 3.42,-1.56 3.42,-3.42 V 75.22 l 9.42,16.74 c 0.6,1.08 1.74,1.68 2.94,1.68 z" />
      <path
         id="path32"
         style="font-family:Bariol;letter-spacing:0.075em"
         d="m 387.76656,84.28 c 7.14,0 12.6,-4.08 12.6,-12.36 0,-8.4 -5.58,-12.3 -12.6,-12.3 h -11.46 c -1.92,0 -3.48,1.56 -3.48,3.48 V 97 c 0,1.92 1.56,3.48 3.48,3.48 1.92,0 3.48,-1.56 3.48,-3.48 V 84.28 Z m -0.54,-18.42 c 3.66,0 5.94,2.1 5.94,6.06 0,3.9 -2.22,6.12 -5.94,6.12 h -7.44 V 65.86 Z" />
      <path
         id="path34"
         style="font-family:Bariol;letter-spacing:0.075em"
         d="m 427.95062,100.84 c 12.12,0 19.02,-6.96 19.02,-21 0,-14.22 -6.9,-21.06 -19.02,-21.06 -12.12,0 -19.01999,6.84 -19.01999,21.06 0,14.04 6.89999,21 19.01999,21 z m 0,-35.82 c 7.92001,0 11.82,4.86 11.82,14.82 0,9.9 -3.89999,14.76 -11.82,14.76 -7.92,0 -11.82,-4.86 -11.82,-14.76 0,-9.96 3.9,-14.82 11.82,-14.82 z" />
      <path
         id="path36"
         style="font-family:Bariol;letter-spacing:0.075em"
         d="m 467.92094,84.52 10.92,14.7 c 0.6,0.78 1.68,1.26 2.7,1.26 1.92,0 3.48,-1.56 3.48,-3.48 0,-0.66 -0.18,-1.38 -0.72,-2.1 l -8.88,-10.8 c 5.76,-0.72 9.24,-6.24 9.24,-11.94 0,-6.78 -4.56,-12.54 -12.66,-12.54 h -11.46 c -1.92,0 -3.48,1.56 -3.48,3.48 V 97 c 0,1.92 1.56,3.48 3.48,3.48 1.92,0 3.48,-1.56 3.48,-3.48 V 84.52 Z m 4.02,-18.66 c 3.9,0 5.52,3.06 5.52,6.3 0,3.18 -1.62,6.24 -5.34,6.24 h -8.1 V 65.86 Z" />
      <path
         id="path38"
         style="font-family:Bariol;letter-spacing:0.075em"
         d="m 515.23375,83.14 h -9.84 l 4.92,-12.6 z m 2.34,6.36 3.66,8.7 c 0.54,1.26 1.68,2.28 3.24,2.28 1.86,0 3.42,-1.56 3.42,-3.42 0,-0.36 -0.06,-0.84 -0.24,-1.26 l -14.16,-34.5 c -0.36,-0.84 -1.32,-2.16 -3.18,-2.16 -1.86,0 -2.82,1.32 -3.18,2.16 l -14.16,34.5 c -0.18,0.42 -0.24,0.9 -0.24,1.26 0,1.86 1.56,3.42 3.42,3.42 1.56,0 2.7,-1.02 3.24,-2.28 l 3.66,-8.7 z" />
      <path
         id="path40"
         style="font-family:Bariol;letter-spacing:0.075em"
         d="m 564.13656,59.14 c -1.86,0 -3.42,1.56 -3.42,3.42 v 23.76 l -17.76,-25.74 c -0.6,-0.9 -1.56,-1.44 -2.76,-1.44 -1.86,0 -3.42,1.56 -3.42,3.42 v 34.5 c 0,1.86 1.56,3.42 3.42,3.42 1.86,0 3.42,-1.56 3.42,-3.42 V 73.42 l 17.7,25.56 c 0.6,0.9 1.68,1.5 2.82,1.5 1.86,0 3.42,-1.56 3.42,-3.42 v -34.5 c 0,-1.86 -1.56,-3.42 -3.42,-3.42 z" />
      <path
         id="path42"
         style="font-family:Bariol;letter-spacing:0.075em"
         d="m 585.91937,65.86 h 15.24 c 1.74,0 3.12,-1.38 3.12,-3.12 0,-1.74 -1.38,-3.12 -3.12,-3.12 h -18.71999 c -1.92001,0 -3.48,1.56 -3.48,3.48 v 33.42 c 0,1.92 1.55999,3.48 3.48,3.48 h 19.38 c 1.74,0 3.12,-1.38 3.12,-3.12 0,-1.74 -1.38,-3.12 -3.12,-3.12 H 585.91937 V 82.72 h 11.34 c 1.68001,0 3.06001,-1.38 3.06001,-3.06 0,-1.68 -1.38,-3.06 -3.06001,-3.06 h -11.34 z" />
      <path
         id="path44"
         style="font-family:Bariol;letter-spacing:0.075em"
         d="m 634.90562,83.14 h -9.84 l 4.92001,-12.6 z m 2.34001,6.36 3.65999,8.7 c 0.54,1.26 1.68001,2.28 3.24,2.28 1.86,0 3.42,-1.56 3.42,-3.42 0,-0.36 -0.06,-0.84 -0.24,-1.26 l -14.16,-34.5 c -0.36,-0.84 -1.31999,-2.16 -3.17999,-2.16 -1.86,0 -2.82001,1.32 -3.18001,2.16 l -14.16,34.5 c -0.17999,0.42 -0.24,0.9 -0.24,1.26 0,1.86 1.56001,3.42 3.42,3.42 1.56,0 2.7,-1.02 3.24,-2.28 l 3.66001,-8.7 z" />
    </g>
  </g>
</svg>
