<?xml version="1.0" encoding="UTF-8" standalone="no"?>
<svg
   xmlns:dc="http://purl.org/dc/elements/1.1/"
   xmlns:cc="http://creativecommons.org/ns#"
   xmlns:rdf="http://www.w3.org/1999/02/22-rdf-syntax-ns#"
   xmlns:svg="http://www.w3.org/2000/svg"
   xmlns="http://www.w3.org/2000/svg"
   id="svg16"
   width="800px"
   version="1.1"
   height="200px">
  <metadata
     id="metadata20">
    <rdf:RDF>
      <cc:Work
         rdf:about="">
        <dc:format>image/svg+xml</dc:format>
        <dc:type
           rdf:resource="http://purl.org/dc/dcmitype/StillImage" />
      </cc:Work>
    </rdf:RDF>
  </metadata>
  <defs
     id="defs4">
    <style
       id="style2"
       type="text/css"><![CDATA[    
     @font-face {font-family:Bariol;
     src: url('/Users/francesco/Repos/write-logos/src/fonts/Fonts_E_TEMPORANEA/Bariol_Bold.otf');}
     @font-face {font-family:Bamboo shoot;
     src: url('/Users/francesco/Repos/write-logos/src/fonts/Fonts_X/bambooshoot.ttf');}
     ]]></style>
  </defs>
  <g
     id="g14"
     style="font-size:60px">
    <g
       style="text-anchor:middle"
       id="text12"
       aria-label="EXTEMPORANEA">
      <path
         id="path22"
         style="font-family:Bariol;letter-spacing:0.075em"
         d="m 166.89203,65.86 h 15.24 c 1.74,0 3.12,-1.38 3.12,-3.12 0,-1.74 -1.38,-3.12 -3.12,-3.12 h -18.72 c -1.92,0 -3.48,1.56 -3.48,3.48 v 33.42 c 0,1.92 1.56,3.48 3.48,3.48 h 19.38 c 1.74,0 3.12,-1.38 3.12,-3.12 0,-1.74 -1.38,-3.12 -3.12,-3.12 h -15.9 V 82.72 h 11.34 c 1.68,0 3.06,-1.38 3.06,-3.06 0,-1.68 -1.38,-3.06 -3.06,-3.06 h -11.34 z" />
      <path
         id="path24"
         style="font-family:'Bamboo shoot';letter-spacing:0.05em"
         d="m 200.26562,50.664062 h 0.82032 q 3.77929,0 7.26562,5.390625 6.18164,7.705079 6.21094,7.96875 h 0.11719 q 7.52929,-10.019531 9.72656,-12.070312 1.8457,-1.289063 3.75,-1.289063 h 0.82031 q 4.21875,0 6.32813,4.921875 l 0.23437,1.640625 v 0.820313 q 0,2.900391 -3.98437,7.03125 l -7.96875,10.195312 q 11.48437,14.589844 11.48437,15 0.46875,1.347657 0.46875,2.34375 V 93.4375 q 0,4.335937 -5.03906,6.328125 Q 229.97266,100 228.97656,100 h -0.82031 q -3.7793,0 -7.26563,-5.390625 -6.18164,-7.705078 -6.21093,-7.96875 H 214.5625 Q 207.0332,96.660156 204.83594,98.710937 202.99023,100 201.08594,100 h -0.82032 q -4.21875,0 -6.32812,-4.921875 L 193.70312,93.4375 v -0.820313 q 0,-2.90039 3.98438,-7.03125 l 7.96875,-10.195312 q -11.48438,-14.589844 -11.48438,-15 -0.46875,-1.347656 -0.46875,-2.34375 v -0.820313 q 0,-4.335937 5.03907,-6.328125 0.52734,-0.234375 1.52343,-0.234375 z m -1.75781,6.914063 v 0.117187 q 0,1.171875 3.86719,5.507813 0.64453,1.113281 6.44531,8.203125 l 2.69531,-3.515625 q -8.11523,-10.458984 -9.60937,-12.070313 -0.58594,-0.351562 -1.17188,-0.351562 h -0.11718 q -2.10938,0.322266 -2.10938,2.109375 z m 19.21875,10.3125 2.8125,3.515625 9.96094,-12.773438 0.23437,-0.9375 V 57.578125 Q 230.41211,55.46875 228.625,55.46875 h -0.11719 q -1.43554,0 -3.39844,3.046875 z m -3.16406,3.867187 -2.69531,3.515625 2.69531,3.632813 h 0.11719 l 2.69531,-3.515625 -2.69531,-3.632813 z m -5.85938,7.5 -9.96093,12.773438 -0.23438,0.9375 v 0.117187 q 0.32227,2.109375 2.10938,2.109375 h 0.11718 q 1.40625,0 3.39844,-3.046875 l 7.38281,-9.375 z m 11.71875,0 -2.69531,3.515625 q 8.58399,11.044922 9.60938,12.070313 0.61523,0.351562 1.17187,0.351562 h 0.11719 q 2.10937,-0.322265 2.10937,-2.109375 V 92.96875 q 0,-1.171875 -3.86718,-5.507813 -0.64453,-1.113281 -6.44532,-8.203125 z" />
      <path
         id="path26"
         style="font-family:Bariol;letter-spacing:0.075em"
         d="m 269.64391,65.74 c 1.68,0 3.06,-1.38 3.06,-3.06 0,-1.68 -1.38,-3.06 -3.06,-3.06 h -25.32 c -1.68,0 -3.06,1.38 -3.06,3.06 0,1.68 1.38,3.06 3.06,3.06 h 9.18 V 97 c 0,1.92 1.56,3.48 3.48,3.48 1.92,0 3.48,-1.56 3.48,-3.48 V 65.74 Z" />
      <path
         id="path28"
         style="font-family:Bariol;letter-spacing:0.075em"
         d="m 289.04828,65.86 h 15.24 c 1.74,0 3.12,-1.38 3.12,-3.12 0,-1.74 -1.38,-3.12 -3.12,-3.12 h -18.72 c -1.92,0 -3.48,1.56 -3.48,3.48 v 33.42 c 0,1.92 1.56,3.48 3.48,3.48 h 19.38 c 1.74,0 3.12,-1.38 3.12,-3.12 0,-1.74 -1.38,-3.12 -3.12,-3.12 h -15.9 V 82.72 h 11.34 c 1.68,0 3.06,-1.38 3.06,-3.06 0,-1.68 -1.38,-3.06 -3.06,-3.06 h -11.34 z" />
      <path
         id="path30"
         style="font-family:Bariol;letter-spacing:0.075em"
         d="m 336.89453,93.64 c 1.2,0 2.34,-0.6 2.94,-1.68 l 9.42,-16.74 v 21.84 c 0,1.86 1.56,3.42 3.42,3.42 1.86,0 3.42,-1.56 3.42,-3.42 v -34.5 c 0,-1.86 -1.56,-3.42 -3.42,-3.42 -1.5,0 -2.46,0.84 -3.06,1.92 l -12.72,22.8 -12.72,-22.8 c -0.6,-1.08 -1.56,-1.92 -3.06,-1.92 -1.86,0 -3.42,1.56 -3.42,3.42 v 34.5 c 0,1.86 1.56,3.42 3.42,3.42 1.86,0 3.42,-1.56 3.42,-3.42 V 75.22 l 9.42,16.74 c 0.6,1.08 1.74,1.68 2.94,1.68 z" />
      <path
         id="path32"
         style="font-family:Bariol;letter-spacing:0.075em"
         d="m 382.78609,84.28 c 7.14,0 12.6,-4.08 12.6,-12.36 0,-8.4 -5.58,-12.3 -12.6,-12.3 h -11.46 c -1.92,0 -3.48,1.56 -3.48,3.48 V 97 c 0,1.92 1.56,3.48 3.48,3.48 1.92,0 3.48,-1.56 3.48,-3.48 V 84.28 Z m -0.54,-18.42 c 3.66,0 5.94,2.1 5.94,6.06 0,3.9 -2.22,6.12 -5.94,6.12 h -7.44 V 65.86 Z" />
      <path
         id="path34"
         style="font-family:Bariol;letter-spacing:0.075em"
         d="m 422.97016,100.84 c 12.12,0 19.02,-6.96 19.02,-21 0,-14.22 -6.9,-21.06 -19.02,-21.06 -12.12,0 -19.02,6.84 -19.02,21.06 0,14.04 6.9,21 19.02,21 z m 0,-35.82 c 7.92,0 11.82,4.86 11.82,14.82 0,9.9 -3.9,14.76 -11.82,14.76 -7.92,0 -11.82,-4.86 -11.82,-14.76 0,-9.96 3.9,-14.82 11.82,-14.82 z" />
      <path
         id="path36"
         style="font-family:Bariol;letter-spacing:0.075em"
         d="m 462.94047,84.52 10.92,14.7 c 0.6,0.78 1.68,1.26 2.7,1.26 1.92,0 3.48,-1.56 3.48,-3.48 0,-0.66 -0.18,-1.38 -0.72,-2.1 l -8.88,-10.8 c 5.76,-0.72 9.24,-6.24 9.24,-11.94 0,-6.78 -4.56,-12.54 -12.66,-12.54 h -11.46 c -1.92,0 -3.48,1.56 -3.48,3.48 V 97 c 0,1.92 1.56,3.48 3.48,3.48 1.92,0 3.48,-1.56 3.48,-3.48 V 84.52 Z m 4.02,-18.66 c 3.9,0 5.52,3.06 5.52,6.3 0,3.18 -1.62,6.24 -5.34,6.24 h -8.1 V 65.86 Z" />
      <path
         id="path38"
         style="font-family:Bariol;letter-spacing:0.075em"
         d="m 510.25328,83.14 h -9.84 l 4.92,-12.6 z m 2.34,6.36 3.66,8.7 c 0.54,1.26 1.68,2.28 3.24,2.28 1.86,0 3.42,-1.56 3.42,-3.42 0,-0.36 -0.06,-0.84 -0.24,-1.26 l -14.16,-34.5 c -0.36,-0.84 -1.32,-2.16 -3.18,-2.16 -1.86,0 -2.82,1.32 -3.18,2.16 l -14.16,34.5 c -0.18,0.42 -0.24,0.9 -0.24,1.26 0,1.86 1.56,3.42 3.42,3.42 1.56,0 2.7,-1.02 3.24,-2.28 l 3.66,-8.7 z" />
      <path
         id="path40"
         style="font-family:Bariol;letter-spacing:0.075em"
         d="m 559.15609,59.14 c -1.86,0 -3.42,1.56 -3.42,3.42 v 23.76 l -17.76,-25.74 c -0.6,-0.9 -1.56,-1.44 -2.76,-1.44 -1.86,0 -3.42,1.56 -3.42,3.42 v 34.5 c 0,1.86 1.56,3.42 3.42,3.42 1.86,0 3.42,-1.56 3.42,-3.42 V 73.42 l 17.7,25.56 c 0.6,0.9 1.68,1.5 2.82,1.5 1.86,0 3.42,-1.56 3.42,-3.42 v -34.5 c 0,-1.86 -1.56,-3.42 -3.42,-3.42 z" />
      <path
         id="path42"
         style="font-family:Bariol;letter-spacing:0.075em"
         d="m 580.93891,65.86 h 15.24 c 1.74,0 3.12,-1.38 3.12,-3.12 0,-1.74 -1.38,-3.12 -3.12,-3.12 h -18.72 c -1.92,0 -3.48,1.56 -3.48,3.48 v 33.42 c 0,1.92 1.56,3.48 3.48,3.48 h 19.38 c 1.74,0 3.12,-1.38 3.12,-3.12 0,-1.74 -1.38,-3.12 -3.12,-3.12 h -15.9 V 82.72 h 11.34 c 1.68,0 3.06,-1.38 3.06,-3.06 0,-1.68 -1.38,-3.06 -3.06,-3.06 h -11.34 z" />
      <path
         id="path44"
         style="font-family:Bariol;letter-spacing:0.075em"
         d="m 629.92516,83.14 h -9.84 l 4.92,-12.6 z m 2.34,6.36 3.66,8.7 c 0.54,1.26 1.68,2.28 3.24,2.28 1.86,0 3.42,-1.56 3.42,-3.42 0,-0.36 -0.06,-0.84 -0.24,-1.26 l -14.16,-34.5 c -0.36,-0.84 -1.32,-2.16 -3.18,-2.16 -1.86,0 -2.82,1.32 -3.18,2.16 l -14.16,34.5 c -0.18,0.42 -0.24,0.9 -0.24,1.26 0,1.86 1.56,3.42 3.42,3.42 1.56,0 2.7,-1.02 3.24,-2.28 l 3.66,-8.7 z" />
    </g>
  </g>
</svg>
