<?xml version="1.0" encoding="UTF-8" standalone="no"?>
<svg
   xmlns:dc="http://purl.org/dc/elements/1.1/"
   xmlns:cc="http://creativecommons.org/ns#"
   xmlns:rdf="http://www.w3.org/1999/02/22-rdf-syntax-ns#"
   xmlns:svg="http://www.w3.org/2000/svg"
   xmlns="http://www.w3.org/2000/svg"
   id="svg16"
   width="800px"
   version="1.1"
   height="200px">
  <metadata
     id="metadata20">
    <rdf:RDF>
      <cc:Work
         rdf:about="">
        <dc:format>image/svg+xml</dc:format>
        <dc:type
           rdf:resource="http://purl.org/dc/dcmitype/StillImage" />
      </cc:Work>
    </rdf:RDF>
  </metadata>
  <defs
     id="defs4">
    <style
       id="style2"
       type="text/css"><![CDATA[    
     @font-face {font-family:Basier Circle Medium;
     src: url('/Users/francesco/Repos/write-logos/src/fonts/Fonts_E_TEMPORANEA/BasierCircle-Medium.otf');}
     @font-face {font-family:Zian;
     src: url('/Users/francesco/Repos/write-logos/src/fonts/Fonts_X/Zianfreepromo.ttf');}
     ]]></style>
  </defs>
  <g
     id="g14"
     style="font-size:60px">
    <g
       style="text-anchor:middle"
       id="text12"
       aria-label="EXTEMPORANEA">
      <path
         id="path22"
         style="font-family:'Basier Circle Medium';letter-spacing:0.075em"
         d="m 133.95437,100 h 28.32001 V 93.7 H 140.97437 V 81.52 h 19.44 v -6.36 h -19.44 v -10.8 h 21.30001 V 58 h -28.32001 z" />
      <path
         id="path24"
         style="font-family:Zian;letter-spacing:0.05em"
         d="m 174.57227,57.988281 h 0.82031 q 2.08008,0 4.59961,2.8125 10.95703,10.839844 11.13281,10.869141 12.77344,-12.832031 13.35937,-13.007813 1.23047,-0.673828 2.19727,-0.673828 h 0.82031 q 2.78321,0 4.42383,3.222656 0.35156,0.84961 0.35156,1.494141 v 0.996094 q 0,2.255859 -3.92578,5.566406 l -9.78515,9.755859 q 0,0.08789 12.45117,12.363282 1.25976,1.49414 1.25976,3.046875 v 0.761718 q 0,3.222657 -3.83789,4.716797 Q 207.9707,100 207.67773,100 h -1.17187 q -2.13867,0 -5.27344,-3.632813 L 191.03711,86.40625 Q 180.31445,96.923828 177.91211,99.179687 176.59375,100 175.56836,100 h -1.17188 q -2.60742,0 -4.27734,-3.222656 -0.32227,-0.84961 -0.32227,-1.494141 v -0.761719 q 0,-2.548828 3.51563,-5.302734 l 10.19531,-10.195313 v -0.05859 q -12.86133,-12.65625 -12.86133,-12.861328 -0.84961,-1.376954 -0.84961,-2.490235 v -0.732422 q 0,-2.90039 3.25196,-4.570312 0.84961,-0.322266 1.52344,-0.322266 z" />
      <path
         id="path26"
         style="font-family:'Basier Circle Medium';letter-spacing:0.075em"
         d="m 232.48562,100 h 7.08 V 64.36 h 12.66 V 58 h -32.4 v 6.36 h 12.66 z" />
      <path
         id="path28"
         style="font-family:'Basier Circle Medium';letter-spacing:0.075em"
         d="m 263.49344,100 h 28.32 v -6.3 h -21.3 V 81.52 h 19.44 v -6.36 h -19.44 v -10.8 h 21.3 V 58 h -28.32 z" />
      <path
         id="path30"
         style="font-family:'Basier Circle Medium';letter-spacing:0.075em"
         d="m 304.55594,100 h 6.78 V 68.98 h 0.24 l 13.86,23.94 h 0.6 l 13.86,-23.76 h 0.24 V 100 h 6.78 V 58 h -7.86 l -13.14,22.92 h -0.24 L 312.53594,58 h -7.98 z" />
      <path
         id="path32"
         style="font-family:'Basier Circle Medium';letter-spacing:0.075em"
         d="m 361.9075,100 h 7.02 V 85.3 h 10.02 c 8.46,0 13.86,-5.76 13.86,-13.8 0,-7.8 -5.28,-13.5 -13.86,-13.5 h -17.04 z m 7.02,-21.06 V 64.3 h 8.82 c 4.86,0 7.86,2.58 7.86,7.2 0,4.86 -2.82,7.44 -7.86,7.44 z" />
      <path
         id="path34"
         style="font-family:'Basier Circle Medium';letter-spacing:0.075em"
         d="m 422.29375,100.54 c 13.14,0 19.38,-9.54 19.38,-21.54 0,-12.06 -6.24,-21.54 -19.38,-21.54 -13.2,0 -19.38,9.48 -19.38,21.54 0,12 6.18,21.54 19.38,21.54 z m 0,-6.48 c -8.7,0 -12.18,-6.6 -12.18,-15.06 0,-8.46 3.42,-15.06 12.18,-15.06 8.7,0 12.18,6.6 12.18,15.06 0,8.46 -3.48,15.06 -12.18,15.06 z" />
      <path
         id="path36"
         style="font-family:'Basier Circle Medium';letter-spacing:0.075em"
         d="m 477.02781,83.32 c 5.28,-1.74 8.7,-6.24 8.7,-12.36 0,-7.14 -5.04,-12.96 -13.74,-12.96 h -17.76 v 42 h 7.02 V 84.16 h 8.4 l 10.14,15.84 h 7.98 v -0.6 z m -15.78,-18.96 h 10.32 c 4.62,0 6.9,2.76 6.9,6.66 0,3.96 -2.22,6.78 -6.9,6.78 h -10.32 z" />
      <path
         id="path38"
         style="font-family:'Basier Circle Medium';letter-spacing:0.075em"
         d="m 518.78313,58 h -8.82001 l -15,41.4 v 0.6 h 7.44 l 3.3,-9.72 h 17.16 l 3.30001,9.72 h 7.67999 v -0.6 z m -10.98,26.1 6.36,-18.72 h 0.24 l 6.35999,18.72 z" />
      <path
         id="path40"
         style="font-family:'Basier Circle Medium';letter-spacing:0.075em"
         d="m 544.9075,100 h 6.9 V 69.34 h 0.24 l 18.9,30.66 h 8.1 V 58 h -6.96 v 30.84 h -0.24 L 552.9475,58 h -8.04 z" />
      <path
         id="path42"
         style="font-family:'Basier Circle Medium';letter-spacing:0.075em"
         d="m 593.93875,100 h 28.32 v -6.3 h -21.3 V 81.52 h 19.44 v -6.36 h -19.44 v -10.8 h 21.3 V 58 h -28.32 z" />
      <path
         id="path44"
         style="font-family:'Basier Circle Medium';letter-spacing:0.075em"
         d="m 654.86125,58 h -8.82 l -15,41.4 v 0.6 h 7.44 l 3.3,-9.72 h 17.16 l 3.3,9.72 h 7.68 v -0.6 z m -10.98,26.1 6.36,-18.72 h 0.24 l 6.36,18.72 z" />
    </g>
  </g>
</svg>
