<?xml version="1.0" encoding="UTF-8" standalone="no"?>
<svg
   xmlns:dc="http://purl.org/dc/elements/1.1/"
   xmlns:cc="http://creativecommons.org/ns#"
   xmlns:rdf="http://www.w3.org/1999/02/22-rdf-syntax-ns#"
   xmlns:svg="http://www.w3.org/2000/svg"
   xmlns="http://www.w3.org/2000/svg"
   id="svg16"
   width="800px"
   version="1.1"
   height="200px">
  <metadata
     id="metadata20">
    <rdf:RDF>
      <cc:Work
         rdf:about="">
        <dc:format>image/svg+xml</dc:format>
        <dc:type
           rdf:resource="http://purl.org/dc/dcmitype/StillImage" />
      </cc:Work>
    </rdf:RDF>
  </metadata>
  <defs
     id="defs4">
    <style
       id="style2"
       type="text/css"><![CDATA[    
     @font-face {font-family:Basier Circle Medium;
     src: url('/Users/francesco/Repos/write-logos/src/fonts/Fonts_E_TEMPORANEA/BasierCircle-Medium.otf');}
     @font-face {font-family:MADE Soulmaze Brush;
     src: url('/Users/francesco/Repos/write-logos/src/fonts/Fonts_X/SoulmazeBrush.otf');}
     ]]></style>
  </defs>
  <g
     id="g14"
     style="font-size:60px">
    <g
       style="text-anchor:middle"
       id="text12"
       aria-label="EXTEMPORANEA">
      <path
         id="path22"
         style="font-family:'Basier Circle Medium';letter-spacing:0.075em"
         d="m 141.63016,100 h 28.32 v -6.3 h -21.3 V 81.52 h 19.44 v -6.36 h -19.44 v -10.8 h 21.3 V 58 h -28.32 z" />
      <path
         id="path24"
         style="font-family:'MADE Soulmaze Brush';letter-spacing:0.05em"
         d="m 185.21266,66.28 c -0.06,-0.06 -0.06,-0.06 -0.06,-0.06 0,0 0.06,0 0.06,0.06 0.06,0.06 0,0.18 0.06,0.24 0.06,0.36 0.18,0.66 0.18,1.02 0.06,0.36 0.12,0.66 0.18,0.96 0.06,0.6 0.18,1.14 0.3,1.68 0.12,0.48 0.18,1.02 0.36,1.56 0.06,0.18 0,0.42 0.06,0.6 0.12,0.24 0.18,0.48 0.12,0.78 0.12,0.24 0.24,0.42 0.24,0.66 0,0.12 0.06,0.18 0.12,0.24 0,0.3 -0.12,0.66 0.12,0.9 0,0.24 0.06,0.48 0.18,0.66 -0.06,0.12 -0.12,0.18 -0.18,0.3 -0.12,0.12 -0.24,0.24 -0.3,0.36 -0.06,0.18 -0.24,0.36 -0.42,0.54 -0.12,0.24 -0.36,0.42 -0.54,0.6 -0.12,0.18 -0.3,0.36 -0.48,0.54 -0.24,0.24 -0.42,0.42 -0.6,0.72 -0.12,0.18 -0.24,0.36 -0.42,0.54 -0.24,0.3 -0.42,0.6 -0.6,0.9 -0.06,0.06 -0.18,0.18 -0.24,0.24 -0.36,0.36 -0.78,0.72 -1.02,1.2 -0.06,0.06 -0.06,0.12 -0.12,0.12 -0.24,0.3 -0.42,0.54 -0.66,0.78 -0.12,0.24 -0.3,0.42 -0.42,0.66 -0.3,0.42 -0.6,0.84 -0.84,1.26 -0.24,0.42 -0.48,0.78 -0.84,1.14 -0.3,0.3 -0.54,0.66 -0.66,1.02 -0.06,0.24 -0.24,0.42 -0.48,0.54 -0.3,0.24 -0.54,0.48 -0.72,0.78 -0.12,0.24 -0.24,0.48 -0.42,0.66 0,0.06 0,0.18 -0.06,0.24 -0.06,0.12 -0.12,0.3 -0.24,0.42 -0.3,0.36 -0.54,0.84 -0.78,1.26 -0.18,0.36 -0.42,0.6 -0.54,0.96 -0.12,0.18 -0.24,0.36 -0.24,0.6 -0.06,0.12 -0.12,0.18 -0.18,0.3 -0.18,0.36 -0.3,0.78 -0.54,1.02 -0.06,0.06 -0.06,0.06 -0.06,0.06 -0.18,0.36 -0.3,0.78 -0.6,1.14 0.12,0.18 -0.06,0.3 0,0.48 0.12,0 0.18,0 0.3,0 0.06,0.36 -0.18,0.6 -0.3,0.9 0,0.06 0,0.12 0,0.12 0,0.06 0,0.12 0,0.18 -0.06,0.18 -0.06,0.18 0,0.48 0.24,-0.18 0.36,-0.54 0.6,-0.72 0.3,0.24 0.06,0.48 0.06,0.72 0,0.06 0.06,0.12 0.12,0.18 -0.06,0.12 -0.06,0.18 -0.06,0.3 -0.12,0.12 -0.18,0.18 -0.24,0.3 -0.06,0.12 -0.18,0.24 -0.18,0.42 0,0.24 -0.06,0.42 -0.18,0.6 -0.12,0.24 -0.18,0.48 -0.12,0.72 0.36,-0.24 0.54,-0.66 0.9,-0.84 0.06,0 0.18,0.06 0.3,0 0.3,-0.3 0.48,-0.78 0.78,-1.2 0.06,0 0.12,-0.06 0.18,-0.12 0,0 0.06,0 0.06,0 0,-0.06 0,-0.06 0.06,-0.12 0,0.06 -0.06,0.06 -0.06,0.12 0,0 0,0 -0.06,0 -0.06,0.18 -0.18,0.36 -0.18,0.54 0.18,-0.12 0.3,-0.3 0.48,-0.42 0.12,0 0.18,-0.06 0.24,-0.18 0.24,-0.24 0.42,-0.48 0.6,-0.72 0.36,-0.42 0.66,-0.84 1.02,-1.2 0.18,-0.18 0.36,-0.36 0.54,-0.54 0.12,-0.12 0.24,-0.24 0.42,-0.3 0.06,-0.24 0.06,-0.24 0.3,-0.3 0.06,-0.06 0.06,-0.18 0.18,-0.3 0.06,-0.06 0.18,-0.06 0.3,-0.18 0.06,0 -0.06,-0.12 0,-0.18 0.3,0.06 0.36,-0.24 0.54,-0.3 0.06,-0.06 0,-0.12 0.06,-0.18 0,0 0.06,0 0.12,0 0.24,-0.18 0.36,-0.48 0.6,-0.66 0,-0.06 -0.12,0 -0.12,-0.12 0.06,0 0.06,-0.06 0.12,-0.06 0.06,0.06 0.06,0.12 0.12,0.12 0.18,-0.12 0.3,-0.3 0.36,-0.54 0,-0.06 0.06,-0.12 0.18,-0.12 0.06,-0.06 0.12,0 0.12,-0.06 0.18,-0.18 0.36,-0.36 0.54,-0.48 0.24,-0.36 0.36,-0.66 0.84,-0.72 0.06,-0.18 0.3,-0.3 0.42,-0.48 0.06,-0.06 0.18,-0.18 0.24,-0.18 0.12,0 0.18,-0.06 0.24,-0.06 0.18,-0.12 0.36,-0.24 0.42,-0.48 0.06,-0.06 0.06,-0.06 0.12,-0.06 0,-0.06 -0.06,-0.12 0,-0.12 0.06,-0.06 0.12,-0.18 0.24,-0.18 0.06,0.12 0.06,0.24 0.06,0.36 0.12,0 0.18,-0.06 0.24,-0.12 0.12,-0.12 0.3,-0.24 0.48,-0.3 0.12,-0.06 0.24,-0.12 0.36,-0.24 0.18,-0.18 0.42,-0.42 0.66,-0.6 0.24,-0.18 0.42,-0.36 0.66,-0.48 0.06,-0.12 0.06,-0.3 0.12,-0.42 0.18,-0.18 0.36,-0.36 0.48,-0.54 0.42,-0.06 0.72,-0.3 1.08,-0.6 0.06,0.18 0.18,0.36 0.36,0.48 0.06,0.06 0.06,0.18 0.06,0.24 0,0.24 0,0.54 0.12,0.72 0.18,0.42 0.36,0.9 0.54,1.32 0.12,0.3 0.24,0.54 0.24,0.84 0,0.06 0.06,0.06 0.12,0.06 0.06,0.3 0.12,0.66 0.24,0.96 0.12,0.42 0.18,0.9 0.3,1.32 0.06,0.12 0.12,0.18 0.18,0.24 -0.06,0.12 0,0.24 0,0.3 0.06,0.18 0.18,0.36 0.12,0.54 0,0.18 0.06,0.3 0.18,0.42 0,0.12 0.06,0.24 0.06,0.36 0.06,0.36 0.18,0.66 0.24,1.02 0.06,0.3 0.12,0.54 0.24,0.84 0.06,0.36 0.12,0.72 0.24,1.08 0.12,0.3 0.12,0.6 0.24,0.9 0.12,0.42 0.24,0.9 0.3,1.32 0.06,0.06 0.06,0.12 0.06,0.18 -0.06,0.24 0.06,0.42 0.12,0.66 0.06,0.24 0.06,0.42 0.12,0.6 0.12,0.3 0.12,0.6 0.24,0.84 0.06,0.18 0.12,0.3 0.12,0.48 0,0.06 0.06,0.12 0.06,0.18 0.06,0.18 0.12,0.42 0.24,0.6 0.12,0.42 0.24,0.84 0.42,1.26 0.06,0.24 0.24,0.42 0.3,0.72 0.06,0.18 0.12,0.42 0.24,0.66 0.12,0.06 0.18,0.12 0.36,0.18 -0.18,-0.3 -0.24,-0.6 -0.3,-0.96 0,0.06 0.06,0.12 0.06,0.18 0.06,0.24 0.18,0.42 0.36,0.54 0.06,0.06 0.12,0.12 0.12,0.24 0.12,0.3 0.36,0.6 0.48,0.96 0,0.06 0,0.12 0.06,0.18 0.24,0.12 0.42,0.36 0.66,0.48 0.12,-0.06 0.12,-0.18 0.06,-0.24 -0.12,-0.24 -0.3,-0.54 -0.42,-0.78 -0.24,-0.3 -0.42,-0.6 -0.48,-0.96 -0.06,-0.12 -0.06,-0.24 -0.18,-0.36 -0.06,-0.06 -0.06,-0.12 -0.06,-0.18 -0.06,-0.06 -0.18,-0.06 -0.18,-0.24 0,0 0.06,0 0.12,0 0,0.06 0.12,0.06 0.12,0.12 0.06,0.36 0.3,0.66 0.42,0.96 0,0.06 0.06,0.06 0.06,0.12 0.12,0.24 0.36,0.36 0.42,0.6 0.24,0.48 0.6,0.84 0.84,1.26 0.12,0.24 0.3,0.48 0.54,0.72 0.18,0 0.36,0.12 0.42,0.3 0.12,0.12 0.24,0.18 0.36,0.18 0.12,0.06 0.12,0.12 0.18,0.12 0.18,0 0.3,-0.06 0.36,-0.12 0.12,-0.06 0.12,0.06 0.18,0 -0.06,-0.18 -0.12,-0.36 -0.18,-0.48 0,-0.12 0.12,-0.18 0.12,-0.24 -0.24,-0.42 -0.6,-0.84 -0.66,-1.38 0.12,0 0.24,0.12 0.36,0 0.06,-0.06 0,-0.18 0.06,-0.24 0.24,0.06 0.06,0.36 0.3,0.48 0,0.18 0.06,0.42 0.18,0.54 0.06,0.12 0.12,0.24 0.12,0.36 0.06,0.48 0.24,0.84 0.36,1.26 0.06,0.12 0.18,0.18 0.3,0.24 -0.06,-0.24 -0.24,-0.36 -0.24,-0.54 -0.06,-0.24 -0.18,-0.42 -0.12,-0.66 0.12,0.12 0.24,0.24 0.36,0.36 0.06,-0.06 0.06,-0.18 0.18,-0.18 0.18,0.12 0.36,0.3 0.48,0.48 0.18,-0.06 0.3,-0.18 0.48,-0.3 0,-0.24 0,-0.48 -0.12,-0.72 -0.12,-0.24 -0.18,-0.54 -0.3,-0.78 -0.12,-0.18 -0.12,-0.36 -0.12,-0.54 0,-0.06 0.06,-0.12 0,-0.18 -0.06,-0.24 0,-0.54 0,-0.84 0.06,-0.06 0,-0.12 0,-0.18 -0.12,-0.36 -0.3,-0.66 -0.18,-1.02 0,-0.06 -0.06,-0.06 -0.06,-0.12 0,-0.24 -0.06,-0.42 0.06,-0.66 0.06,-0.12 0,-0.3 -0.06,-0.48 -0.12,-0.24 -0.24,-0.54 -0.24,-0.84 -0.12,-0.48 -0.12,-0.9 -0.18,-1.38 0,-0.3 0,-0.54 -0.12,-0.84 0,-0.12 -0.06,-0.24 0,-0.36 -0.06,-0.12 -0.06,-0.24 -0.06,-0.36 0,-0.18 -0.06,-0.3 -0.12,-0.48 0,-0.06 0,-0.12 0,-0.18 0,-0.24 -0.06,-0.48 -0.12,-0.72 0,-0.3 -0.06,-0.54 -0.06,-0.78 -0.06,-0.3 -0.06,-0.6 -0.24,-0.84 0,-0.06 0,-0.12 0,-0.18 0,-0.24 -0.12,-0.48 -0.12,-0.72 0.06,-0.24 -0.18,-0.48 -0.12,-0.72 0.06,-0.12 -0.06,-0.18 -0.06,-0.3 0,-0.18 0,-0.36 0,-0.6 0,0 -0.06,-0.06 -0.12,-0.06 -0.06,0 0,0.12 -0.06,0.12 -0.36,-1.5 -0.6,-3.06 -0.9,-4.56 0.06,0.3 0.18,0.6 0.3,0.96 0.06,-0.12 0.06,-0.18 0.06,-0.18 -0.12,-0.36 -0.18,-0.66 -0.24,-1.02 0,-0.36 -0.12,-0.66 -0.18,-1.02 0,-0.24 -0.06,-0.48 -0.3,-0.66 0,-0.12 -0.06,-0.24 -0.06,-0.36 0,-0.24 -0.12,-0.48 -0.06,-0.66 0.06,-0.18 0.06,-0.36 -0.06,-0.54 -0.06,-0.06 -0.12,0 -0.18,-0.06 -0.06,-0.24 -0.18,-0.48 -0.18,-0.84 0.18,0.24 0.12,0.48 0.3,0.72 0.06,-0.12 0,-0.18 0,-0.3 -0.06,-0.24 -0.18,-0.54 -0.18,-0.78 0,-0.24 -0.06,-0.48 -0.12,-0.72 -0.12,-0.24 -0.18,-0.54 -0.36,-0.78 -0.06,-0.18 -0.12,-0.36 -0.12,-0.54 0,-0.18 0,-0.36 -0.06,-0.54 -0.06,-0.3 -0.06,-0.6 0,-0.84 0,-0.12 -0.12,-0.18 -0.06,-0.3 -0.06,-0.06 -0.12,0.06 -0.12,0 -0.12,-0.12 -0.06,-0.24 0,-0.36 -0.18,-0.12 -0.24,-0.24 -0.18,-0.42 0.06,-0.06 0.12,-0.12 0.12,-0.12 0,-0.06 0,-0.12 0,-0.12 0,-0.06 0.06,-0.06 0.12,-0.12 0.12,-0.24 0.3,-0.42 0.54,-0.54 0.06,-0.06 0.12,-0.12 0.12,-0.18 0.12,-0.18 0.24,-0.24 0.36,-0.36 0.18,-0.12 0.36,-0.24 0.48,-0.42 0.06,-0.18 0.12,-0.3 0.24,-0.36 0.18,-0.06 0.24,-0.24 0.42,-0.24 0,0 0,0 0,0 -0.06,-0.18 0.06,-0.24 0.12,-0.24 0.12,-0.06 0.18,-0.12 0.24,-0.18 0.18,-0.18 0.36,-0.42 0.6,-0.48 0.06,-0.12 0.06,-0.24 0.12,-0.3 0.06,-0.06 0.18,-0.12 0.24,-0.12 0.06,-0.06 0.06,-0.18 0.12,-0.24 0.24,-0.18 0.36,-0.42 0.6,-0.6 0.06,-0.06 0.12,-0.12 0.18,-0.18 0.24,-0.3 0.6,-0.54 0.78,-0.9 0,0 0,0 0,0 0.18,-0.18 0.36,-0.3 0.48,-0.48 0.18,-0.18 0.36,-0.42 0.48,-0.66 0.06,-0.12 0.12,-0.18 0.24,-0.3 0.06,-0.06 0.18,-0.12 0.24,-0.24 0.06,-0.06 0.12,-0.18 0.18,-0.24 0.12,-0.06 0.24,-0.18 0.36,-0.3 0.18,-0.3 0.42,-0.54 0.66,-0.78 0.12,-0.12 0.24,-0.24 0.3,-0.3 0.24,-0.24 0.36,-0.54 0.6,-0.72 0.18,-0.18 0.36,-0.42 0.48,-0.66 0.12,-0.18 0.18,-0.3 0.3,-0.42 0.24,-0.18 0.36,-0.42 0.54,-0.66 0.18,-0.3 0.48,-0.6 0.66,-0.9 0.06,-0.12 0.18,-0.18 0.24,-0.24 0.3,-0.18 0.6,-0.42 0.84,-0.66 0.06,-0.06 0.12,-0.18 0.24,-0.24 0.18,-0.06 0.36,-0.24 0.48,-0.36 0.12,-0.06 0.18,-0.18 0.24,-0.24 0.12,-0.42 0.42,-0.78 0.66,-1.14 0.12,-0.12 0.24,-0.24 0.36,-0.42 0.12,-0.18 0.24,-0.3 0.36,-0.42 0.36,-0.24 0.72,-0.48 0.9,-0.9 0.18,-0.36 0.42,-0.78 0.6,-1.14 0,-0.06 0,-0.18 0,-0.24 -0.06,-0.06 -0.06,-0.06 -0.06,-0.12 -0.18,-0.36 -0.6,-0.6 -0.6,-1.02 -0.06,-0.06 -0.12,0 -0.18,-0.06 0.06,-0.06 0.06,-0.12 0,-0.24 -0.06,-0.06 -0.12,-0.18 -0.12,-0.24 -0.06,-0.3 -0.24,-0.48 -0.54,-0.6 -0.3,-0.18 -0.66,-0.36 -1.08,-0.48 -0.12,-0.06 -0.18,-0.12 -0.3,-0.18 -0.18,-0.12 -0.36,-0.24 -0.54,-0.3 -0.12,0 -0.3,0 -0.42,-0.06 -0.42,0.3 -0.72,0.12 -0.96,-0.24 -0.36,0.12 -0.6,0.3 -0.9,0.48 -0.12,0 -0.12,-0.12 -0.18,-0.12 -0.12,0.12 -0.24,0.18 -0.3,0.3 -0.12,0 -0.18,-0.06 -0.24,0 -0.06,0.18 -0.24,0.3 -0.36,0.42 -0.24,0.18 -0.3,0.42 -0.54,0.6 -0.06,0 -0.06,0 -0.06,0.06 -0.06,0.24 -0.24,0.36 -0.48,0.42 -0.06,0.12 -0.12,0.18 -0.18,0.3 -0.06,0.06 -0.18,0.12 -0.24,0.24 -0.06,0.18 -0.18,0.36 -0.36,0.54 -0.24,0.24 -0.48,0.48 -0.6,0.72 -0.06,0.06 -0.06,0.12 -0.12,0.12 -0.18,0.12 -0.36,0.3 -0.48,0.48 -0.24,0.36 -0.66,0.66 -0.9,1.02 -0.06,0.12 -0.24,0.18 -0.3,0.3 -0.06,0 -0.18,0.06 -0.18,0.12 0,0.12 -0.06,0.18 -0.12,0.24 -0.24,0.24 -0.48,0.48 -0.78,0.72 -0.12,0.06 -0.24,0.18 -0.3,0.3 0,0.06 -0.06,0.12 -0.12,0.18 -0.18,0.12 -0.36,0.24 -0.48,0.54 -0.18,0 -0.24,0.12 -0.36,0.24 -0.18,0.18 -0.3,0.36 -0.48,0.48 -0.42,0.42 -0.84,0.84 -1.26,1.2 -0.06,0.12 -0.12,0.18 -0.24,0.24 -0.18,0.12 -0.3,0.3 -0.48,0.42 -0.06,0.06 -0.06,0.12 -0.06,0.24 0,0.12 -0.06,0.24 -0.18,0.3 -0.06,0.06 -0.12,0.12 -0.12,0.24 -0.06,0.06 -0.06,0.12 -0.12,0.18 -0.24,0.18 -0.42,0.42 -0.66,0.6 -0.12,0.12 -0.3,0.3 -0.48,0.42 -0.12,0.12 -0.18,0.3 -0.36,0.36 -0.12,-0.3 -0.24,-0.6 -0.24,-0.9 -0.12,-0.48 -0.18,-0.96 -0.3,-1.44 -0.12,-0.48 -0.18,-0.96 -0.3,-1.38 0,-0.48 -0.12,-0.9 -0.3,-1.32 0,-0.36 -0.06,-0.72 -0.18,-1.02 -0.06,-0.36 -0.12,-0.72 -0.3,-1.08 0,0 0.06,-0.06 0.06,-0.12 -0.06,-0.12 -0.12,-0.3 -0.12,-0.48 -0.06,-0.36 -0.24,-0.72 -0.3,-1.14 -0.06,-0.36 -0.18,-0.66 -0.24,-0.96 -0.12,-0.36 -0.18,-0.72 -0.3,-1.08 -0.06,-0.24 -0.12,-0.54 -0.18,-0.84 -0.06,-0.24 -0.12,-0.48 -0.18,-0.72 0,-0.18 -0.06,-0.36 -0.12,-0.54 -0.06,-0.06 -0.06,-0.12 -0.06,-0.12 0,-0.18 0,-0.36 -0.06,-0.48 0,-0.12 0,-0.24 -0.06,-0.36 -0.24,-0.24 -0.36,-0.54 -0.36,-0.9 -0.06,-0.06 -0.06,-0.12 -0.12,-0.18 -0.24,-0.12 -0.48,-0.24 -0.66,-0.36 -0.24,-0.18 -0.6,-0.24 -0.9,-0.42 0,0 -0.06,0 -0.06,0 -0.3,-0.06 -0.54,-0.12 -0.72,-0.24 -0.36,-0.18 -0.66,-0.24 -1.02,-0.24 -0.48,0 -0.9,-0.12 -1.32,-0.06 0,0 -0.06,0 -0.06,0 -0.24,-0.06 -0.48,0 -0.72,0.06 -0.24,0.12 -0.36,0.24 -0.42,0.48 0,0.18 -0.12,0.3 -0.3,0.42 -0.54,0.36 -0.84,0.9 -1.02,1.5 -0.06,0.42 0,0.84 -0.12,1.2 0,0.06 0,0.06 0,0.06 0.12,0.3 0.12,0.66 0.12,0.96 0,0.12 0,0.18 0,0.3 0.12,0.3 0.12,0.66 0.12,0.96 0,0.06 0,0.18 0,0.24 0.06,0.24 0.06,0.48 0.12,0.72 0.06,0.3 0.06,0.66 0.06,0.96 0.12,0.66 0.18,1.26 0.3,1.92 0.06,0.3 0.06,0.66 0.12,0.96 0.06,0.54 0.24,1.08 0.24,1.62 0,0.12 0.06,0.3 0.06,0.42 0.12,0.48 0.18,0.96 0.3,1.44 0.06,0.48 0.12,0.96 0.24,1.44 0,0.06 0,0.12 0.06,0.24 0.06,-0.12 0.12,-0.18 0.12,-0.24 -0.06,-0.12 0,-0.24 -0.06,-0.3 0.06,-0.06 0.06,0 0.12,-0.06 0.06,-0.48 -0.12,-1.02 -0.12,-1.5 -0.06,-0.06 -0.18,-0.06 -0.24,-0.18 0,-0.06 0,-0.12 0,-0.18 0.06,-0.06 0.12,-0.06 0.12,-0.12 -0.12,-0.36 -0.12,-0.6 -0.06,-0.84 z m 7.44,27.36 c -0.06,-0.06 -0.06,-0.12 -0.06,-0.24 0.12,0.12 0.06,0.18 0.06,0.24 0.06,0.06 0.06,0.12 0.06,0.18 -0.06,-0.06 -0.06,-0.12 -0.06,-0.18 z m 2.76,9.84 c 0.06,0.06 0.12,0.12 0,0.24 0,-0.12 0,-0.18 0,-0.24 -0.06,-0.06 -0.06,-0.12 -0.06,-0.18 0.12,0 0.06,0.12 0.06,0.18 z m -0.72,-2.28 c -0.18,-0.24 -0.24,-0.48 -0.36,-0.72 -0.06,-0.12 -0.06,-0.24 0.06,-0.36 0.18,0.36 0.24,0.72 0.3,1.08 0.12,0.06 0.06,0.24 0.12,0.36 0.06,0.06 0.06,0.12 0.12,0.18 0.06,0.3 0.18,0.6 0.24,0.9 0.06,0.12 0.06,0.18 0.12,0.24 0,0.06 0.06,0.18 0.06,0.3 -0.3,-0.36 -0.3,-0.78 -0.54,-1.14 0.06,-0.18 -0.06,-0.3 0,-0.48 -0.12,-0.12 -0.12,-0.24 -0.12,-0.36 z m -0.54,-1.32 c 0,-0.12 -0.06,-0.24 0,-0.42 0.06,0.12 0.12,0.24 0.24,0.3 -0.06,0.06 -0.12,0.12 -0.24,0.12 z m 4.44,5.64 c 0,0 0,0.06 0,0.06 0,0.12 -0.12,0.18 -0.06,0.3 -0.18,-0.06 -0.12,-0.18 -0.12,-0.24 0,-0.06 0.06,-0.12 0.18,-0.12 z m -5.04,-8.22 c 0,-0.3 -0.18,-0.48 -0.12,-0.72 0.06,0.24 0.12,0.42 0.18,0.6 0,0 0,0.06 -0.06,0.12 z m 0.36,1.14 c 0,0.06 -0.06,0.06 -0.12,0.06 -0.06,-0.06 0,-0.12 -0.06,-0.18 0.06,-0.06 0.06,-0.06 0.12,-0.06 0.06,0.06 0.06,0.12 0.06,0.18 z m -0.18,-0.48 c -0.06,-0.12 -0.18,-0.3 -0.06,-0.48 0,0.18 0.06,0.3 0.06,0.48 0,0 0,0 0,0 z m 0.3,1.02 c 0.12,0.12 0.06,0.18 0.06,0.3 -0.12,-0.12 -0.12,-0.12 -0.06,-0.3 z m -0.9,-3.42 c -0.06,-0.12 -0.12,-0.24 -0.18,-0.36 0.24,0.12 0.24,0.18 0.18,0.36 z m -0.3,-1.14 c 0.12,0.12 0.12,0.18 0.12,0.3 -0.18,-0.06 -0.12,-0.18 -0.12,-0.3 z m 3.54,-14.82 c -0.12,-0.06 -0.06,-0.12 -0.06,-0.12 0.06,-0.06 0.06,0 0.06,0.06 0,0 0,0.06 0,0.06 z m -4.38,11.16 c 0.06,0.12 0.12,0.12 0.06,0.24 -0.06,-0.06 -0.06,-0.12 -0.06,-0.24 z m 6.24,-2.7 c 0.06,0.06 0.06,0.06 0.06,0.12 -0.06,0 -0.06,-0.06 -0.06,-0.12 z m -12.9,0.3 c 0,0.06 0,0.06 -0.06,0.12 0,-0.06 0,-0.12 0.06,-0.12 z m 7.14,4.5 c 0,0.06 0.06,0.06 0,0.06 0,0 0,0 0,-0.06 z m -8.46,-2.88 c -0.12,0 -0.18,0 -0.24,0.12 -0.12,0.18 -0.3,0.3 -0.42,0.42 0,0.06 -0.06,0.12 -0.06,0.18 0.12,0 0.12,-0.06 0.18,-0.12 0.12,-0.12 0.18,-0.18 0.3,-0.24 0.12,-0.12 0.18,-0.24 0.24,-0.36 z m 0,0 c 0,0 0,0 0,0 0,0 0,0 0,0 0,0 0,0 0,0 z" />
      <path
         id="path26"
         style="font-family:'Basier Circle Medium';letter-spacing:0.075em"
         d="m 224.80984,100 h 7.08 V 64.36 h 12.66 V 58 h -32.4 v 6.36 h 12.66 z" />
      <path
         id="path28"
         style="font-family:'Basier Circle Medium';letter-spacing:0.075em"
         d="m 255.81766,100 h 28.32 v -6.3 h -21.3 V 81.52 h 19.44 v -6.36 h -19.44 v -10.8 h 21.3 V 58 h -28.32 z" />
      <path
         id="path30"
         style="font-family:'Basier Circle Medium';letter-spacing:0.075em"
         d="m 296.88016,100 h 6.78 V 68.98 h 0.24 l 13.86,23.94 h 0.6 l 13.86,-23.76 h 0.24 V 100 h 6.78 V 58 h -7.86 l -13.14,22.92 h -0.24 L 304.86016,58 h -7.98 z" />
      <path
         id="path32"
         style="font-family:'Basier Circle Medium';letter-spacing:0.075em"
         d="m 354.23172,100 h 7.02 V 85.3 h 10.02 c 8.46,0 13.86,-5.76 13.86,-13.8 0,-7.8 -5.28,-13.5 -13.86,-13.5 h -17.04 z m 7.02,-21.06 V 64.3 h 8.82 c 4.86,0 7.86,2.58 7.86,7.2 0,4.86 -2.82,7.44 -7.86,7.44 z" />
      <path
         id="path34"
         style="font-family:'Basier Circle Medium';letter-spacing:0.075em"
         d="m 414.61797,100.54 c 13.14,0 19.38,-9.54 19.38,-21.54 0,-12.06 -6.24,-21.54 -19.38,-21.54 -13.2,0 -19.38,9.48 -19.38,21.54 0,12 6.18,21.54 19.38,21.54 z m 0,-6.48 c -8.7,0 -12.18,-6.6 -12.18,-15.06 0,-8.46 3.42,-15.06 12.18,-15.06 8.7,0 12.18,6.6 12.18,15.06 0,8.46 -3.48,15.06 -12.18,15.06 z" />
      <path
         id="path36"
         style="font-family:'Basier Circle Medium';letter-spacing:0.075em"
         d="m 469.35203,83.32 c 5.28,-1.74 8.7,-6.24 8.7,-12.36 0,-7.14 -5.04,-12.96 -13.74,-12.96 h -17.76 v 42 h 7.02 V 84.16 h 8.4 l 10.14,15.84 h 7.98 v -0.6 z m -15.78,-18.96 h 10.32 c 4.62,0 6.9,2.76 6.9,6.66 0,3.96 -2.22,6.78 -6.9,6.78 h -10.32 z" />
      <path
         id="path38"
         style="font-family:'Basier Circle Medium';letter-spacing:0.075em"
         d="m 511.10734,58 h -8.82 l -15,41.4 v 0.6 h 7.44 l 3.3,-9.72 h 17.16 l 3.3,9.72 h 7.68 v -0.6 z m -10.98,26.1 6.36,-18.72 h 0.24 l 6.36,18.72 z" />
      <path
         id="path40"
         style="font-family:'Basier Circle Medium';letter-spacing:0.075em"
         d="m 537.23172,100 h 6.9 V 69.34 h 0.24 l 18.9,30.66 h 8.1 V 58 h -6.96 v 30.84 h -0.24 l -18.9,-30.84 h -8.04 z" />
      <path
         id="path42"
         style="font-family:'Basier Circle Medium';letter-spacing:0.075em"
         d="m 586.26297,100 h 28.32 v -6.3 h -21.3 V 81.52 h 19.44 v -6.36 h -19.44 v -10.8 h 21.3 V 58 h -28.32 z" />
      <path
         id="path44"
         style="font-family:'Basier Circle Medium';letter-spacing:0.075em"
         d="m 647.18547,58 h -8.82 l -15,41.4 v 0.6 h 7.44 l 3.3,-9.72 h 17.16 l 3.3,9.72 h 7.68 v -0.6 z m -10.98,26.1 6.36,-18.72 h 0.24 l 6.36,18.72 z" />
    </g>
  </g>
</svg>
