<?xml version="1.0" encoding="UTF-8" standalone="no"?>
<svg
   xmlns:dc="http://purl.org/dc/elements/1.1/"
   xmlns:cc="http://creativecommons.org/ns#"
   xmlns:rdf="http://www.w3.org/1999/02/22-rdf-syntax-ns#"
   xmlns:svg="http://www.w3.org/2000/svg"
   xmlns="http://www.w3.org/2000/svg"
   id="svg16"
   width="800px"
   version="1.1"
   height="200px">
  <metadata
     id="metadata20">
    <rdf:RDF>
      <cc:Work
         rdf:about="">
        <dc:format>image/svg+xml</dc:format>
        <dc:type
           rdf:resource="http://purl.org/dc/dcmitype/StillImage" />
      </cc:Work>
    </rdf:RDF>
  </metadata>
  <defs
     id="defs4">
    <style
       id="style2"
       type="text/css"><![CDATA[    
     @font-face {font-family:Basier Circle SemiBold;
     src: url('/Users/francesco/Repos/write-logos/src/fonts/Fonts_E_TEMPORANEA/BasierCircle-SemiBold.otf');}
     @font-face {font-family:PWChalk;
     src: url('/Users/francesco/Repos/write-logos/src/fonts/Fonts_X/PWChalk.ttf');}
     ]]></style>
  </defs>
  <g
     id="g14"
     style="font-size:60px">
    <g
       style="text-anchor:middle"
       id="text12"
       aria-label="EXTEMPORANEA">
      <path
         id="path22"
         style="font-family:'Basier Circle SemiBold';letter-spacing:0.075em"
         d="m 134.93922,100 h 29.1 v -7.32 h -20.88 V 82 h 19.02 v -7.32 h -19.02 v -9.3 h 20.88 V 58 h -29.1 z" />
      <path
         id="path24"
         style="font-family:PWChalk;letter-spacing:0.05em"
         d="m 178.70172,69.1 1.74,1.98 -0.84,-1.08 -2.58,-4.02 -1.26,-1.86 0.42,0.96 1.92,3.18 z m 12.42,18.66 0.3,0.54 2.16,3.3 1.62,2.58 -0.66,0.36 0.48,0.66 1.62,1.68 0.9,0.72 0.06,0.12 -0.12,-0.84 -1.38,-2.22 -1.26,-2.16 -0.42,-0.6 -2.28,-2.88 z m -6.54,-8.4 -0.12,0.12 0.12,0.18 0.66,1.02 0.18,-0.24 z m 8.4,8.34 -0.9,-1.38 -0.48,-0.6 1.08,1.56 0.84,1.32 z m -17.76,3.24 V 91 Z m 8.1,-4.62 2.4,-3.24 -0.24,-0.3 -0.3,0.42 z m 13.92,-18.6 2.76,-3.72 -1.5,1.56 -3.6,4.44 z m -9.72,15.96 -0.12,0.24 0.3,0.42 2.88,4.44 -2.16,-3.66 z m -1.02,-1.62 -0.24,-0.42 -0.18,0.24 0.24,0.42 z m 3.24,-4.02 -0.48,-0.6 -0.48,0.72 0.42,0.6 z m -7.62,-9.3 0.3,0.54 2.76,4.2 v 0.06 l 0.9,1.14 0.48,-0.6 -0.96,-1.2 -2.7,-3.18 z m 6.3,6.06 0.66,0.84 3.18,-4.56 3.84,-5.16 3,-4.02 -2.58,2.64 -4.32,4.5 0.66,0.6 z m 1.5,1.86 0.42,0.6 0.6,-0.72 0.6,-0.72 1.5,-2.22 1.32,-1.8 -0.9,0.9 z m -2.16,-1.14 -0.54,0.6 0.24,0.3 0.54,0.72 0.24,-0.3 0.3,-0.42 -0.12,-0.12 z m -14.58,20.88 -0.84,-0.36 0.06,-0.24 -0.18,0.3 -0.42,1.26 -0.06,0.6 -0.96,-0.12 0.06,-0.72 0.54,-1.38 1.5,-2.76 2.22,-3.72 3.3,-5.04 4.2,-5.34 0.24,-0.3 -2.16,-3.48 -0.84,-1.38 -2.22,-2.7 -2.34,-3 -1.5,-2.1 0.72,-0.66 0.78,0.54 0.3,0.24 -0.06,-0.12 -0.18,-0.36 -0.24,-0.42 -1.86,-2.82 -1.02,-1.98 0.54,-0.3 -0.06,-0.06 0.54,-0.3 -0.3,-0.66 0.78,-0.6 0.72,0.6 1.32,1.62 v -0.06 l -0.48,-0.84 0.84,-0.54 0.06,0.18 0.9,-0.24 0.24,0.9 1.08,2.22 0.36,0.66 2.1,2.82 2.76,3.36 2.7,3.18 0.9,1.02 4.26,-4.86 4.32,-4.62 3.66,-3.66 2.4,-2.16 1.08,-0.9 0.72,0.66 -1.2,1.44 -2.34,2.94 -1.2,1.62 1.98,-2.1 1.8,-1.68 0.9,-0.66 0.66,0.72 -0.96,1.44 -2.46,3 -1.38,1.86 0.18,0.24 0.78,-0.84 1.62,-1.74 1.08,-1.2 2.7,-2.76 0.84,-0.84 0.72,0.6 -0.9,1.02 -2.16,2.22 -1.56,1.62 -2.4,2.7 -4.14,4.62 -3.18,3.6 -1.86,2.7 0.48,0.66 2.52,3.3 2.58,3.3 2.16,3.3 1.98,3.12 1.62,2.52 1.2,1.68 0.48,0.78 -0.84,0.48 -0.48,-0.78 -1.2,-1.68 -1.62,-2.52 -1.98,-3.12 -2.16,-3.18 -2.46,-3.3 -2.52,-3.3 -0.36,-0.42 -0.54,0.78 0.6,0.84 3.12,4.02 2.52,3.84 2.58,3.36 0.48,0.78 0.84,1.02 0.9,1.74 1.32,2.1 0.96,1.32 -0.84,0.6 -0.96,-1.44 -1.02,-1.56 -0.78,-0.78 -1.62,-1.86 -0.3,-0.36 0.6,1.38 -0.6,0.72 0.6,1.02 -0.12,1.8 -1.14,0.12 -1.14,-0.96 -1.74,-1.8 -2.1,-2.82 -2.46,-3.72 -2.88,-4.44 -1.5,2.34 -2.82,4.62 -1.92,3.06 -0.66,0.54 -0.66,-0.66 0.42,-0.54 1.2,-2.34 2.16,-3.54 0.6,-0.96 -1.14,1.5 -3.66,5.4 -2.58,4.14 -0.84,1.44 -0.54,1.02 -0.12,-0.06 -0.36,0.54 -0.54,1.08 -0.84,-0.36 0.54,-1.2 1.38,-2.22 0.78,-1.5 2.58,-4.68 1.14,-1.98 -0.9,1.38 -2.34,4.32 -1.5,2.64 -0.84,-0.48 1.5,-2.64 2.34,-4.32 3.78,-5.82 3.12,-4.02 -0.84,-1.26 -1.44,1.74 -3.78,5.1 -2.52,4.32 -1.8,2.58 -0.72,1.56 z" />
      <path
         id="path26"
         style="font-family:'Basier Circle SemiBold';letter-spacing:0.075em"
         d="m 229.95203,100 h 8.28 V 65.44 h 12.36 V 58 h -33 v 7.44 h 12.36 z" />
      <path
         id="path28"
         style="font-family:'Basier Circle SemiBold';letter-spacing:0.075em"
         d="m 261.07984,100 h 29.1 v -7.32 h -20.88 V 82 h 19.02 v -7.32 h -19.02 v -9.3 h 20.88 V 58 h -29.1 z" />
      <path
         id="path30"
         style="font-family:'Basier Circle SemiBold';letter-spacing:0.075em"
         d="m 302.14234,100 h 7.92 V 70.84 h 0.24 l 13.2,22.14 h 0.6 l 13.2,-21.96 h 0.24 V 100 h 7.92 V 58 h -9 l -12.48,21.06 h -0.24 L 311.26234,58 h -9.12 z" />
      <path
         id="path32"
         style="font-family:'Basier Circle SemiBold';letter-spacing:0.075em"
         d="m 359.49391,100 h 8.22 V 85.6 h 9.78 c 8.46,0 13.86,-5.88 13.86,-13.92 0,-7.8 -5.28,-13.68 -13.86,-13.68 h -18 z m 8.22,-21.78 v -12.9 h 8.28 c 4.38,0 6.96,2.28 6.96,6.36 0,4.38 -2.4,6.54 -6.96,6.54 z" />
      <path
         id="path34"
         style="font-family:'Basier Circle SemiBold';letter-spacing:0.075em"
         d="m 420.36016,100.54 c 13.32,0 19.86,-9.54 19.86,-21.54 0,-12.06 -6.54,-21.54 -19.86,-21.54 -13.38,0 -19.86,9.48 -19.86,21.54 0,12 6.48,21.54 19.86,21.54 z m 0,-7.5 c -7.8,0 -11.46,-5.58 -11.46,-14.04 0,-8.46 3.6,-14.04 11.46,-14.04 7.8,0 11.46,5.58 11.46,14.04 0,8.46 -3.66,14.04 -11.46,14.04 z" />
      <path
         id="path36"
         style="font-family:'Basier Circle SemiBold';letter-spacing:0.075em"
         d="m 475.81422,83.68 c 5.16,-1.86 8.46,-6.42 8.46,-12.54 0,-7.14 -5.16,-13.14 -14.04,-13.14 h -18.42 v 42 h 8.22 V 84.64 h 7.08 l 9.66,15.36 h 9.48 v -0.6 z m -15.78,-18.3 h 9.78 c 4.14,0 6,2.64 6,5.82 0,3.36 -1.8,6.12 -6,6.12 h -9.78 z" />
      <path
         id="path38"
         style="font-family:'Basier Circle SemiBold';letter-spacing:0.075em"
         d="m 517.86953,58 h -10.44 l -14.7,41.4 v 0.6 h 8.64 l 2.88,-8.82 h 16.44 l 2.88,8.82 h 9.06 v -0.6 z m -11.22,25.92 5.7,-17.52 h 0.24 l 5.7,17.52 z" />
      <path
         id="path40"
         style="font-family:'Basier Circle SemiBold';letter-spacing:0.075em"
         d="m 542.72828,100 h 8.1 V 71.02 h 0.24 l 17.16,28.98 h 9.6 V 58 h -8.16 v 29.16 h -0.24 L 552.26828,58 h -9.54 z" />
      <path
         id="path42"
         style="font-family:'Basier Circle SemiBold';letter-spacing:0.075em"
         d="m 591.75953,100 h 29.1 v -7.32 h -20.88 V 82 h 19.02 v -7.32 h -19.02 v -9.3 h 20.88 V 58 h -29.1 z" />
      <path
         id="path44"
         style="font-family:'Basier Circle SemiBold';letter-spacing:0.075em"
         d="m 654.18203,58 h -10.44 l -14.7,41.4 v 0.6 h 8.64 l 2.88,-8.82 h 16.44 l 2.88,8.82 h 9.06 v -0.6 z m -11.22,25.92 5.7,-17.52 h 0.24 l 5.7,17.52 z" />
    </g>
  </g>
</svg>
