<?xml version="1.0" encoding="UTF-8" standalone="no"?>
<svg
   xmlns:dc="http://purl.org/dc/elements/1.1/"
   xmlns:cc="http://creativecommons.org/ns#"
   xmlns:rdf="http://www.w3.org/1999/02/22-rdf-syntax-ns#"
   xmlns:svg="http://www.w3.org/2000/svg"
   xmlns="http://www.w3.org/2000/svg"
   id="svg16"
   width="800px"
   version="1.1"
   height="200px">
  <metadata
     id="metadata20">
    <rdf:RDF>
      <cc:Work
         rdf:about="">
        <dc:format>image/svg+xml</dc:format>
        <dc:type
           rdf:resource="http://purl.org/dc/dcmitype/StillImage" />
      </cc:Work>
    </rdf:RDF>
  </metadata>
  <defs
     id="defs4">
    <style
       id="style2"
       type="text/css"><![CDATA[    
     @font-face {font-family:Basier Circle SemiBold;
     src: url('/Users/francesco/Repos/write-logos/src/fonts/Fonts_E_TEMPORANEA/BasierCircle-SemiBold.otf');}
     @font-face {font-family:Monofett;
     src: url('/Users/francesco/Repos/write-logos/src/fonts/Fonts_X/Monofett-Regular.ttf');}
     ]]></style>
  </defs>
  <g
     id="g14"
     style="font-size:60px">
    <g
       style="text-anchor:middle"
       id="text12"
       aria-label="EXTEMPORANEA">
      <path
         id="path22"
         style="font-family:'Basier Circle SemiBold';letter-spacing:0.075em"
         d="m 138.63062,100 h 29.1 v -7.32 h -20.88 V 82 h 19.02 v -7.32 h -19.02 v -9.3 h 20.88 V 58 h -29.1 z" />
      <path
         id="path24"
         style="font-family:Monofett;letter-spacing:0.05em"
         d="m 196.80859,59.863281 q 2.95899,0 5.36133,0.878906 2.40235,0.878907 4.07227,2.402344 1.69922,1.523438 2.60742,3.574219 0.9082,2.021484 0.9082,4.306641 v 17.8125 q 0,2.285156 -0.9082,4.335937 -0.9082,2.021484 -2.60742,3.544922 -1.66992,1.523437 -4.07227,2.402344 Q 199.76758,100 196.80859,100 h -9.02343 q -2.95899,0 -5.36133,-0.878906 -2.40235,-0.878907 -4.10156,-2.402344 -1.66993,-1.523438 -2.57813,-3.544922 -0.9082,-2.050781 -0.9082,-4.335937 v -17.8125 q 0,-2.285157 0.9082,-4.306641 0.9082,-2.050781 2.57813,-3.574219 1.69921,-1.523437 4.10156,-2.402344 2.40234,-0.878906 5.36133,-0.878906 z m 3.57422,2.578125 -6.65039,10.546875 -6.47461,-10.546875 -2.8125,1.201172 6.82617,11.044922 -6.76757,10.986328 2.7539,1.113281 6.47461,-10.195312 6.65039,10.195312 2.78321,-1.113281 -6.79688,-10.986328 6.91406,-11.162109 z" />
      <path
         id="path26"
         style="font-family:'Basier Circle SemiBold';letter-spacing:0.075em"
         d="m 226.26062,100 h 8.28 V 65.44 h 12.36 V 58 h -33 v 7.44 h 12.36 z" />
      <path
         id="path28"
         style="font-family:'Basier Circle SemiBold';letter-spacing:0.075em"
         d="m 257.38844,100 h 29.1 v -7.32 h -20.88 V 82 h 19.02 v -7.32 h -19.02 v -9.3 h 20.88 V 58 h -29.1 z" />
      <path
         id="path30"
         style="font-family:'Basier Circle SemiBold';letter-spacing:0.075em"
         d="m 298.45094,100 h 7.92 V 70.84 h 0.24 l 13.2,22.14 h 0.6 l 13.2,-21.96 h 0.24 V 100 h 7.92 V 58 h -9 l -12.48,21.06 h -0.24 L 307.57094,58 h -9.12 z" />
      <path
         id="path32"
         style="font-family:'Basier Circle SemiBold';letter-spacing:0.075em"
         d="m 355.8025,100 h 8.22 V 85.6 h 9.78 c 8.46,0 13.86,-5.88 13.86,-13.92 0,-7.8 -5.28,-13.68 -13.86,-13.68 h -18 z m 8.22,-21.78 v -12.9 h 8.28 c 4.38,0 6.96,2.28 6.96,6.36 0,4.38 -2.4,6.54 -6.96,6.54 z" />
      <path
         id="path34"
         style="font-family:'Basier Circle SemiBold';letter-spacing:0.075em"
         d="m 416.66875,100.54 c 13.32,0 19.86,-9.54 19.86,-21.54 0,-12.06 -6.54,-21.54 -19.86,-21.54 -13.38,0 -19.86,9.48 -19.86,21.54 0,12 6.48,21.54 19.86,21.54 z m 0,-7.5 c -7.8,0 -11.46,-5.58 -11.46,-14.04 0,-8.46 3.6,-14.04 11.46,-14.04 7.8,0 11.46,5.58 11.46,14.04 0,8.46 -3.66,14.04 -11.46,14.04 z" />
      <path
         id="path36"
         style="font-family:'Basier Circle SemiBold';letter-spacing:0.075em"
         d="m 472.12281,83.68 c 5.16,-1.86 8.46,-6.42 8.46,-12.54 0,-7.14 -5.16,-13.14 -14.04,-13.14 h -18.42 v 42 h 8.22 V 84.64 h 7.08 l 9.66,15.36 h 9.48 v -0.6 z m -15.78,-18.3 h 9.78 c 4.14,0 6,2.64 6,5.82 0,3.36 -1.8,6.12 -6,6.12 h -9.78 z" />
      <path
         id="path38"
         style="font-family:'Basier Circle SemiBold';letter-spacing:0.075em"
         d="m 514.17813,58 h -10.44 l -14.70001,41.4 v 0.6 h 8.64001 l 2.88,-8.82 h 16.43999 l 2.88,8.82 h 9.06001 v -0.6 z m -11.22001,25.92 5.7,-17.52 h 0.24 l 5.7,17.52 z" />
      <path
         id="path40"
         style="font-family:'Basier Circle SemiBold';letter-spacing:0.075em"
         d="m 539.03687,100 h 8.10001 V 71.02 h 0.24 L 564.53687,100 h 9.60001 V 58 h -8.16001 v 29.16 h -0.23999 L 548.57687,58 h -9.54 z" />
      <path
         id="path42"
         style="font-family:'Basier Circle SemiBold';letter-spacing:0.075em"
         d="m 588.06812,100 h 29.10001 v -7.32 h -20.88 V 82 h 19.02 v -7.32 h -19.02 v -9.3 h 20.88 V 58 h -29.10001 z" />
      <path
         id="path44"
         style="font-family:'Basier Circle SemiBold';letter-spacing:0.075em"
         d="m 650.49063,58 h -10.44001 l -14.69999,41.4 v 0.6 h 8.64 l 2.88,-8.82 h 16.43999 l 2.88,8.82 h 9.06001 v -0.6 z m -11.22001,25.92 5.70001,-17.52 h 0.24 l 5.69999,17.52 z" />
    </g>
  </g>
</svg>
