<?xml version="1.0" encoding="UTF-8" standalone="no"?>
<svg
   xmlns:dc="http://purl.org/dc/elements/1.1/"
   xmlns:cc="http://creativecommons.org/ns#"
   xmlns:rdf="http://www.w3.org/1999/02/22-rdf-syntax-ns#"
   xmlns:svg="http://www.w3.org/2000/svg"
   xmlns="http://www.w3.org/2000/svg"
   id="svg16"
   width="800px"
   version="1.1"
   height="200px">
  <metadata
     id="metadata20">
    <rdf:RDF>
      <cc:Work
         rdf:about="">
        <dc:format>image/svg+xml</dc:format>
        <dc:type
           rdf:resource="http://purl.org/dc/dcmitype/StillImage" />
      </cc:Work>
    </rdf:RDF>
  </metadata>
  <defs
     id="defs4">
    <style
       id="style2"
       type="text/css"><![CDATA[    
     @font-face {font-family:Beckhand;
     src: url('/Users/francesco/Repos/write-logos/src/fonts/Beckhand.ttf');}
     @font-face {font-family:Blue Cobra Condensed;
     src: url('/Users/francesco/Repos/write-logos/src/fonts/bluecobracond.ttf');}
     ]]></style>
  </defs>
  <g
     id="g14"
     style="font-size:60px">
    <g
       style="text-anchor:middle"
       id="text12"
       aria-label="eXtemporanea">
      <path
         id="path22"
         style="font-family:Beckhand"
         d="m 295.84961,77.5 q 1.55273,0 2.63672,0.761719 1.08398,0.732422 1.08398,2.34375 0,1.289062 -0.41015,2.34375 -0.41016,1.02539 -1.02539,1.933593 -1.84571,2.607422 -4.42383,5.039063 -2.57813,2.402344 -4.86328,3.896484 -0.17579,0.117188 -0.35157,0.263672 -0.14648,0.117188 -0.23437,0.205078 -0.0879,0.05859 -0.0879,0.05859 0,0.0293 0.14648,0.205078 0.17578,0.146485 0.38086,0.38086 0.20508,0.205078 0.38086,0.380859 0.20508,0.175781 0.29297,0.234375 1.11328,0.849609 3.01758,0.849609 1.75781,0 2.72461,-0.380859 0.99609,-0.410156 2.49023,-1.464844 0.17578,-0.117187 0.32227,-0.234375 0.52734,-0.351562 0.82031,-0.46875 0.29297,-0.146484 0.76172,-0.146484 0.73242,0 0.73242,0.644531 0,0.820313 -1.25977,2.226563 -0.79101,0.761718 -2.28515,1.699218 -1.49414,0.9375 -2.8125,1.494141 -1.75781,0.761715 -4.27735,0.761715 -1.28906,0 -2.25585,-0.29296 -0.9375,-0.292974 -1.69922,-0.908208 -1.64063,-1.201172 -2.40235,-3.222656 -0.52734,-1.611329 -0.52734,-3.427735 0,-0.820312 0.0879,-1.347656 0.0879,-0.556641 0.26367,-1.289063 0.52735,-2.373046 2.05078,-4.863281 1.43555,-2.402344 2.8125,-3.83789 1.40625,-1.435547 3.72071,-2.636719 0.9375,-0.498047 1.58203,-0.732422 0.67383,-0.234375 1.55273,-0.351563 Q 295.32227,77.5 295.84961,77.5 Z m -2.8125,4.189453 q -0.11719,0 -0.23438,0.0293 -0.11718,0.0293 -0.23437,0.0293 -0.84961,0.175781 -1.72852,0.585937 -0.8789,0.410157 -1.28906,0.878907 -0.52734,0.703125 -1.14258,1.757812 -0.58593,1.054688 -1.05468,2.314453 -0.43946,1.259766 -0.43946,2.519531 0,0.410157 0.0293,0.878907 0.0293,0.439453 0.0586,0.732422 0.0586,0.292968 0.0879,0.292968 0.0879,0 0.26368,-0.08789 0.17578,-0.117188 0.35156,-0.234375 0.17578,-0.117188 0.23437,-0.146485 1.81641,-0.966797 3.83789,-2.8125 2.05078,-1.875 3.01758,-3.251953 0.35156,-0.46875 0.46875,-0.791015 0.11719,-0.351563 0.11719,-0.878907 0,-0.732422 -0.14649,-1.02539 -0.14648,-0.292969 -0.64453,-0.46875 -0.73242,-0.322266 -1.55273,-0.322266 z" />
      <path
         id="path24"
         style="font-family:'Blue Cobra Condensed'"
         d="M 304.87797,69.1 V 53.14 h -2.64 v 17.28 q 0.06,0.24 0.3,0.78 0.24,0.54 0.6,1.14 0.36,0.6 0.78,1.2 0.48,0.54 1.02,0.84 -0.54,0.36 -1.02,0.96 -0.42,0.54 -0.78,1.14 -0.36,0.54 -0.6,1.08 -0.18,0.48 -0.24,0.72 V 100 h 2.64 V 79.72 q 0,-0.66 0.48,-1.56 0.48,-0.9 1.14,-1.56 0.6,0.66 1.08,1.56 0.54,0.9 0.54,1.56 V 100 h 2.64 V 78.28 q -0.06,-0.24 -0.3,-0.72 -0.18,-0.54 -0.54,-1.08 -0.36,-0.6 -0.84,-1.14 -0.42,-0.6 -0.96,-0.96 0.54,-0.3 0.96,-0.84 0.48,-0.6 0.84,-1.2 0.36,-0.6 0.6,-1.14 0.24,-0.54 0.3,-0.78 V 53.14 h -2.64 V 69.1 q 0,0.72 -0.54,1.68 -0.54,0.9 -1.14,1.5 -0.66,-0.6 -1.2,-1.5 -0.48,-0.96 -0.48,-1.68 z" />
      <path
         id="path26"
         style="font-family:Beckhand"
         d="m 320.86914,97.246094 q 0,0.791015 -0.58594,1.552734 -0.58593,0.761719 -1.34765,1.230472 -0.73243,0.49804 -1.25977,0.49804 -0.49805,0 -0.79101,-0.29296 -0.29297,-0.292974 -0.52735,-0.820318 -0.67383,-1.728515 -0.99609,-4.130859 -0.32227,-2.431641 -0.32227,-5.009766 v -2.226562 q 0,-0.292969 0.0293,-0.849609 0.0293,-0.878907 0.0293,-1.78711 0.0293,-1.376953 0.0586,-2.255859 0,-0.966797 0,-1.640625 0.0293,-0.673828 0.0586,-1.31836 0.0586,-0.55664 0.0879,-1.318359 0.0293,-0.791016 0.0293,-1.376953 0.11719,-3.486328 0.20508,-4.394531 0,-0.146485 0,-0.263672 0.0293,-0.146485 0.0293,-0.234375 0.0293,-0.08789 0.0293,-0.08789 0,0 -0.0879,0 -0.0879,-0.0293 -0.23437,-0.0293 -0.14649,-0.0293 -0.29297,-0.0293 -0.64453,-0.0293 -1.28906,-0.117187 -0.61524,-0.117188 -1.05469,-0.380859 -0.41016,-0.292969 -0.41016,-0.820313 v -0.117187 q 0,-1.054688 1.14258,-2.197266 1.14258,-1.171875 2.10938,-1.171875 0.0586,0 0.0879,0 0.0586,-0.0293 0.0879,-0.0293 0.0586,-0.0293 0.0586,-0.0293 v -1.02539 q 0,-0.46875 0.0293,-1.025391 0.0293,-0.380859 0.0293,-0.585938 v -0.849609 q 0,-0.878906 0.58594,-1.699219 0.58594,-0.849609 1.34766,-1.376953 0.79101,-0.527344 1.34765,-0.527344 0.46875,0 0.58594,0.322266 0.14649,0.292969 0.14649,0.820313 V 62.5 q 0,0.05859 0,0.234375 -0.0586,0.410156 -0.0586,0.966797 v 1.318359 q -0.0586,0.820313 -0.0586,1.757813 0,0.908203 0,1.171875 v 0.380859 l 0.52734,-0.05859 q 1.46485,0 2.60742,-0.175781 0.9668,-0.146484 1.72852,-0.146484 0.70312,0 0.9668,0.175781 0.29297,0.146484 0.29297,0.673828 0,0.996094 -0.90821,1.962891 -0.8789,0.9375 -1.78711,1.289062 -0.14648,0.0293 -0.38086,0.05859 -0.23437,0 -0.76172,0 -0.43945,0 -0.99609,0.05859 -0.55664,0.05859 -0.99609,0.117187 -0.20508,0.0293 -0.35157,0.05859 h -0.0586 q -0.0293,0 -0.0586,0.0293 -0.0293,0.0293 -0.0586,0.146484 0,0.117188 -0.0293,0.351563 0,0.205078 -0.0293,0.585937 0,0.351563 0,0.908203 0,0.117188 0,0.263672 0,0.761719 -0.0586,1.699219 -0.0293,0.908203 -0.0586,1.464844 -0.0586,1.054687 -0.0879,2.548828 0,1.02539 -0.0586,2.43164 0,0.410157 -0.0293,0.996094 -0.0293,0.644531 -0.0293,1.113281 0,0.878907 -0.0293,1.640625 -0.0293,0.644532 -0.0293,1.171875 0,4.6875 1.02539,7.851563 0.14649,0.380859 0.23438,0.556641 0.0879,0.175781 0.14648,0.263671 0.0879,0.08789 0.17578,0.146485 0.17578,0.08789 0.23438,0.263672 0.0586,0.146484 0.0586,0.46875 z" />
      <path
         id="path28"
         style="font-family:Beckhand"
         d="m 336.86523,77.5 q 1.55274,0 2.63672,0.761719 1.08399,0.732422 1.08399,2.34375 0,1.289062 -0.41016,2.34375 -0.41016,1.02539 -1.02539,1.933593 -1.8457,2.607422 -4.42383,5.039063 -2.57812,2.402344 -4.86328,3.896484 -0.17578,0.117188 -0.35156,0.263672 -0.14649,0.117188 -0.23438,0.205078 -0.0879,0.05859 -0.0879,0.05859 0,0.0293 0.14649,0.205078 0.17578,0.146485 0.38086,0.38086 0.20507,0.205078 0.38086,0.380859 0.20507,0.175781 0.29296,0.234375 1.11329,0.849609 3.01758,0.849609 1.75782,0 2.72461,-0.380859 0.9961,-0.410156 2.49024,-1.464844 0.17578,-0.117187 0.32226,-0.234375 0.52735,-0.351562 0.82031,-0.46875 0.29297,-0.146484 0.76172,-0.146484 0.73243,0 0.73243,0.644531 0,0.820313 -1.25977,2.226563 -0.79102,0.761718 -2.28516,1.699218 -1.49414,0.9375 -2.8125,1.494141 -1.75781,0.761715 -4.27734,0.761715 -1.28906,0 -2.25586,-0.29296 -0.9375,-0.292974 -1.69922,-0.908208 -1.64062,-1.201172 -2.40234,-3.222656 -0.52735,-1.611329 -0.52735,-3.427735 0,-0.820312 0.0879,-1.347656 0.0879,-0.556641 0.26368,-1.289063 0.52734,-2.373046 2.05078,-4.863281 1.43554,-2.402344 2.8125,-3.83789 1.40625,-1.435547 3.7207,-2.636719 0.9375,-0.498047 1.58203,-0.732422 0.67383,-0.234375 1.55274,-0.351563 Q 336.33789,77.5 336.86523,77.5 Z m -2.8125,4.189453 q -0.11718,0 -0.23437,0.0293 -0.11719,0.0293 -0.23438,0.0293 -0.84961,0.175781 -1.72851,0.585937 -0.87891,0.410157 -1.28906,0.878907 -0.52735,0.703125 -1.14258,1.757812 -0.58594,1.054688 -1.05469,2.314453 -0.43945,1.259766 -0.43945,2.519531 0,0.410157 0.0293,0.878907 0.0293,0.439453 0.0586,0.732422 0.0586,0.292968 0.0879,0.292968 0.0879,0 0.26367,-0.08789 0.17578,-0.117188 0.35156,-0.234375 0.17578,-0.117188 0.23438,-0.146485 1.8164,-0.966797 3.83789,-2.8125 2.05078,-1.875 3.01758,-3.251953 0.35156,-0.46875 0.46875,-0.791015 0.11718,-0.351563 0.11718,-0.878907 0,-0.732422 -0.14648,-1.02539 -0.14648,-0.292969 -0.64453,-0.46875 -0.73242,-0.322266 -1.55274,-0.322266 z" />
      <path
         id="path30"
         style="font-family:Beckhand"
         d="m 367.24609,84.091797 q 0,-0.08789 -0.0293,-0.46875 -0.0293,-0.410156 -0.0586,-0.84961 -0.0293,-0.410156 -0.0586,-0.703125 -0.0293,-0.322265 -0.0293,-0.380859 -0.0293,0.05859 -0.29297,0.761719 -0.26367,0.703125 -0.64453,1.699219 -0.35156,0.966796 -0.70312,1.845703 -0.32227,0.878906 -0.46875,1.289062 -0.26367,0.84961 -0.76172,1.962891 -0.46875,1.083984 -0.9082,1.933594 -0.0293,0.05859 -0.0879,0.146484 -0.46875,0.878906 -1.08398,1.816406 -0.58594,0.908203 -1.37695,1.552735 -0.76172,0.615234 -1.75782,0.615234 -0.73242,0 -0.96679,-0.527344 -0.38086,-0.9375 -0.64453,-1.904297 -0.23438,-0.996093 -0.49805,-2.841797 -0.26367,-1.845703 -0.67383,-5.332031 -0.11719,-1.054687 -0.29297,-2.255859 -0.14648,-1.201172 -0.29297,-2.080078 -0.14648,-0.878907 -0.17578,-0.878907 -0.0293,0 -0.23437,0.322266 -0.17578,0.322266 -0.41016,0.761719 -0.23437,0.410156 -0.38086,0.761719 -0.49804,1.201171 -1.34765,3.720703 -0.82032,2.490234 -1.23047,4.189453 -0.70313,3.105469 -1.20117,4.833984 -0.49805,1.728516 -1.0254,2.929688 -0.46875,1.142578 -1.37695,2.138672 -0.9082,0.966799 -2.05078,1.318359 -0.0586,0 -0.17578,0.0293 -0.14649,0.0293 -0.29297,0.0293 -0.70312,0 -0.9668,-0.46875 -0.23437,-0.439449 -0.43945,-1.523434 -0.0293,-0.0293 -0.0293,-0.08789 -0.0293,-0.08789 -0.0293,-0.175782 -0.0879,-0.380859 -0.14649,-0.673828 -0.0293,-0.322265 -0.0586,-0.820312 0,-0.527344 0,-1.464844 0,-0.966797 0,-2.695313 0,-2.753906 0,-3.83789 0,-1.083985 0.0586,-1.611328 0.0293,-0.46875 0.0586,-1.113282 0.0586,-0.673828 0.0586,-1.171875 0,-0.585937 0.0293,-1.142578 0.0293,-0.351562 0.0293,-0.527343 0,-0.146485 0,-0.585938 0.0586,-1.054687 0.0586,-2.607422 l 0.0586,-2.753906 q 0.41016,-1.025391 1.17188,-1.875 0.76171,-0.849609 1.75781,-1.201172 0.11719,-0.0293 0.26367,-0.0293 0.14648,-0.0293 0.29297,-0.0293 0.43945,0 0.58594,0.38086 0.0293,0.0293 0.0293,0.05859 0,0.0293 0,0.117188 0.0293,0.08789 0.0293,0.263672 0,0.146484 0,0.439453 0,0.292969 0,0.732422 0,0.410156 0,1.02539 0,2.783204 -0.0586,3.457032 -0.0293,0.410156 -0.0879,0.9375 -0.0293,0.527343 -0.0293,0.878906 0,1.347656 -0.0586,2.753906 -0.0586,1.582031 -0.0586,3.486328 v 0.84961 q 0,-0.05859 0.14649,-0.527344 0.17578,-0.46875 0.38086,-1.171875 0.99609,-3.515625 1.99218,-5.742188 0.9961,-2.255859 3.07617,-4.6875 1.49415,-1.669921 2.98829,-2.460937 0.70312,-0.351563 1.25976,-0.351563 0.76172,0 1.05469,0.585938 0.29297,0.585937 0.43945,1.376953 0.14649,0.732422 0.38086,2.255859 0.26367,1.494141 0.46875,3.222657 0.26367,2.43164 0.49805,4.277343 0.23437,1.816407 0.26367,1.962891 0,0 0,0 0.0293,0 0.0293,0 0,-0.0293 0,-0.0293 0.0293,0 0.0293,0 0,-0.0293 0,-0.0293 0.0586,-0.08789 0.26368,-0.673828 0.23437,-0.615234 0.52734,-1.435547 0.23437,-0.703125 0.46875,-1.347656 0.23437,-0.644531 0.38086,-0.996094 0.9082,-2.373047 1.75781,-3.867187 0.87891,-1.494141 2.13867,-2.72461 1.61133,-1.376953 2.69532,-1.376953 0.61523,0 0.82031,0.292969 0.23437,0.263672 0.46875,0.966797 0.0586,0.117187 0.0879,0.234375 0.17578,0.439453 0.26367,0.820312 0.11719,0.351563 0.17578,0.878907 0.0586,0.498047 0.11719,1.464843 0,0.292969 0.0293,0.761719 0.0293,0.46875 0.0879,0.9375 0,0.05859 0,0.117188 0.0586,0.410156 0.0879,0.849609 0.0293,0.410156 0.0586,1.201172 0.0293,0.791016 0.0293,2.314453 0.0293,4.277344 0.26367,6.474609 0.23438,2.167969 0.55664,3.046875 0.35156,0.84961 0.67383,1.259766 0.11719,0.146484 0.23437,0.322266 -0.26367,0.820312 -1.49414,1.523437 -1.20117,0.703125 -2.51953,0.761719 -0.9375,0 -1.20117,-0.673828 -0.26367,-0.673828 -0.35156,-1.640625 0,-0.05859 0,-0.08789 -0.0586,-0.322265 -0.0879,-0.527344 -0.0293,-0.205078 -0.0293,-0.263671 0,0 -0.0293,-0.117188 -0.0293,-0.46875 -0.0293,-1.318359 0,-0.673828 -0.0586,-1.230469 0,-0.322266 0,-0.439453 0,-0.08789 -0.0293,-0.46875 -0.11719,-1.230469 -0.11719,-3.369141 0,-0.292969 0,-0.585937 -0.0293,-1.464844 -0.0586,-2.314453 0,-0.878907 -0.0586,-1.494141 -0.0293,-0.615234 -0.11719,-1.376953 z" />
      <path
         id="path32"
         style="font-family:Beckhand"
         d="m 377.55859,114.76563 q -0.58593,0 -0.76172,-0.32227 -0.14648,-0.32227 -0.14648,-0.99609 0,-0.46875 0.0879,-1.31836 0.0879,-0.76172 0.0879,-1.08399 0,-0.17578 0.0586,-0.70312 0.0586,-0.52735 0.11718,-1.23047 0.20508,-2.34375 0.46875,-4.45313 0.41016,-3.13476 0.55664,-6.767575 0,-0.791016 -0.0293,-1.113281 -0.0293,-0.351563 -0.0879,-0.556641 -0.0293,-0.175781 -0.0586,-0.380859 0,-0.234375 0,-0.703125 0,-0.820313 0.0586,-1.289063 0.0879,-0.498047 0.17578,-0.9375 0.20508,-0.644531 0.29297,-1.96289 0.0293,-0.205079 0.0293,-0.410157 0.0293,-0.439453 0.0293,-1.054687 0.0293,-0.644531 0.0293,-1.816406 0.0293,-1.201172 0.0293,-3.457032 0,-1.875 -0.0293,-3.339843 0,-1.464844 -0.0293,-2.050782 0,-0.205078 0,-0.234375 0,-0.08789 -0.0293,-0.117187 0,-0.05859 -0.0293,-0.05859 -0.0293,0 -0.0586,0 -0.17578,0 -0.32226,-0.205078 -0.14649,-0.234375 -0.14649,-0.46875 0,-1.376953 1.25977,-2.958984 1.25976,-1.582032 2.57812,-1.582032 0.49805,0 0.61524,0.263672 0.14648,0.234375 0.20508,0.761719 0,0.08789 0.0293,0.175781 0,0.615235 0,0.9375 0,0.322266 0.0293,0.615235 0.0293,0.380859 0.0586,1.113281 0.0293,0.703125 0.0293,2.43164 v 3.339844 l 0.11719,-0.117187 q 1.43554,-2.226563 3.25195,-4.21875 1.8457,-2.021485 3.63281,-2.988282 1.58203,-0.761718 2.63672,-0.761718 1.14258,0 1.875,1.02539 0.76172,1.025391 1.11328,2.607422 0.38086,1.552735 0.38086,3.134766 0,2.607422 -0.46875,5.214844 -0.46875,2.607421 -1.31836,4.511718 -0.20508,0.410157 -0.38086,0.878907 -0.0586,0.175781 -0.11718,0.322265 -0.9375,2.197266 -2.78321,4.306641 -1.8164,2.109375 -4.04297,3.193359 -0.70312,0.292974 -1.28906,0.410154 -0.58594,0.14649 -1.34765,0.17578 -0.64454,0 -1.0254,-0.0293 -0.38085,0 -0.73242,-0.14649 -0.0586,-0.0293 -0.14648,-0.0586 -0.0586,0 -0.11719,0 -0.0293,0 -0.0293,0 -0.0586,0 -0.23437,1.37695 -0.17578,1.40625 -0.35156,3.22266 -0.17578,1.8457 -0.32227,3.33984 -0.11719,1.49414 -0.11719,1.72852 v 0.35156 q 0,0.38086 0.0586,0.61523 0.0586,0.23438 0.0586,0.46875 0,1.0254 -1.23047,2.19727 -1.23047,1.17188 -2.16797,1.17188 z m 4.59961,-18.603521 q 0.41016,-0.322265 0.90821,-0.615234 0.49804,-0.292969 0.9082,-0.292969 0.52734,0 0.82031,0.498047 0.41016,0.703125 1.58203,0.703125 0.9961,0 1.61133,-0.46875 0.61524,-0.46875 0.99609,-1.171875 0.38086,-0.732422 0.70313,-1.523437 0.23437,-0.615235 0.52734,-1.142579 1.31836,-2.871093 1.31836,-7.617187 0,-2.8125 -0.9082,-4.6875 -0.23438,-0.410156 -0.52734,-0.673828 -0.29297,-0.292969 -0.55664,-0.292969 h -0.0586 q -0.11719,0 -0.41015,0.146484 -0.29297,0.146485 -0.49805,0.263672 -0.0879,0.08789 -0.35156,0.351563 -0.23438,0.234375 -0.52735,0.55664 -0.26367,0.322266 -0.49804,0.615235 -1.14258,1.435547 -2.37305,3.691406 -1.23047,2.255859 -1.69922,3.544922 -0.11719,0.351562 -0.20508,0.615234 -0.23437,0.615235 -0.32226,0.966797 -0.0879,0.322266 -0.14649,0.585938 -0.0293,0.263672 -0.0586,0.732422 -0.0586,1.259765 -0.11719,2.226562 -0.11719,1.552734 -0.11719,2.197266 z" />
      <path
         id="path34"
         style="font-family:Beckhand"
         d="m 404.74609,100.58594 q -3.16406,0 -4.6289,-1.962893 -1.43555,-1.962891 -1.43555,-5.097656 0,-2.431641 0.38086,-4.248047 0.41016,-1.845703 1.11328,-3.603516 1.05469,-2.724609 2.57813,-5.302734 1.55273,-2.607422 3.36914,-4.248047 1.49414,-1.259766 2.40234,-1.259766 0.82031,0 0.9082,1.025391 v 0.117187 q 0.87891,-0.234375 1.9336,-0.46875 1.08398,-0.263672 1.90429,-0.263672 2.08008,0 3.31055,0.9375 1.23047,0.908204 1.72852,2.607422 0.52734,1.669922 0.52734,4.013672 0,2.607422 -0.9082,5.214844 -0.87891,2.578125 -1.96289,4.511719 -1.17188,2.021484 -3.01758,3.83789 -1.8457,1.78711 -3.39844,2.695313 -1.14258,0.703125 -2.22656,1.083983 -1.08399,0.41016 -2.57813,0.41016 z m -1.93359,-9.638674 q 0,2.43164 1.14258,3.955078 1.17187,1.49414 3.42773,1.49414 0.9375,0 1.64063,-0.234375 0.70312,-0.263672 1.34765,-0.732422 0.49805,-0.322265 1.20118,-1.142578 0.73242,-0.849609 1.08398,-1.552734 0.41016,-0.732422 0.70312,-1.464844 0.32227,-0.761719 0.61524,-1.875 0.32226,-1.142578 0.46875,-1.757812 0.14648,-0.644532 0.17578,-1.083985 0.0293,-0.439453 0.0293,-1.142578 0,-1.640625 -0.41016,-3.076172 -0.38086,-1.435547 -1.14258,-2.138672 -0.67383,-0.55664 -2.16797,-0.761718 h -0.55664 q -1.17187,0 -2.7539,0.644531 -0.32227,0.117187 -0.49805,0.205078 -0.14648,0.08789 -0.26367,0.205078 -0.0879,0.117188 -0.23438,0.292969 -0.0879,0.117187 -0.20507,0.263672 -0.29297,0.380859 -0.76172,0.878906 -0.43946,0.46875 -0.73243,0.673828 -0.0879,0.08789 -0.14648,0.146485 -0.0586,0.05859 -0.11719,0.175781 -0.0586,0.08789 -0.14648,0.263672 -0.0586,0.117187 -0.11719,0.263672 -1.58203,3.164062 -1.58203,7.5 z" />
      <path
         id="path36"
         style="font-family:Beckhand"
         d="m 432.37305,75.888672 q 1.8164,0 3.01757,1.083984 1.20118,1.083985 1.78711,2.8125 0.58594,1.728516 0.58594,3.66211 0,0.996093 -0.70312,1.845703 -0.70313,0.849609 -1.52344,1.318359 -0.55664,0.322266 -0.99609,0.322266 -0.49805,0 -0.61524,-0.263672 -0.0879,-0.292969 -0.14648,-1.025391 0,-0.175781 -0.0293,-0.410156 -0.20508,-1.845703 -0.73242,-2.958984 -0.52735,-1.142579 -1.72852,-1.845704 -0.38086,-0.175781 -0.79101,-0.292968 -0.38086,-0.117188 -0.70313,-0.117188 -0.32226,0 -0.41015,0.08789 -0.0879,0.05859 -0.23438,0.322265 -0.0586,0.146485 -0.20508,0.38086 -0.26367,0.439453 -0.46875,0.9375 -0.20508,0.46875 -0.43945,1.347656 -0.23438,0.849609 -0.58594,2.431641 -0.11719,0.498047 -0.20508,0.908203 -0.14648,0.673828 -0.14648,0.791015 -0.0879,0.38086 -0.26367,1.523438 -0.14649,1.113281 -0.29297,2.285156 -0.14649,1.171875 -0.17578,1.699219 -0.11719,0.791016 -0.23438,1.904297 -0.0879,1.02539 -0.23437,1.96289 -0.11719,0.908204 -0.32227,1.347657 -0.38086,0.966797 -1.23047,1.787109 -0.84961,0.791012 -1.875,0.791012 -0.64453,0 -0.84961,-0.556637 -0.20507,-0.556641 -0.29297,-1.289062 -0.0293,-0.175782 -0.0586,-0.351563 -0.0586,-0.556641 -0.17578,-1.845703 -0.0879,-1.318359 -0.17578,-2.695313 -0.0586,-1.376953 -0.0586,-1.96289 0,-0.351563 -0.0293,-0.791016 -0.0293,-0.46875 -0.0293,-0.820312 0,-0.46875 -0.0293,-0.996094 -0.0293,-0.556641 -0.0293,-1.113281 0,-2.636719 0.23437,-4.365235 0.0586,-0.498047 0.11719,-1.02539 0.0586,-0.644532 0.0879,-1.083985 0.0586,-0.761718 0.14648,-1.259765 0.0293,-0.175782 0.0293,-0.322266 0.0293,-0.175781 0.0293,-0.263672 v -0.117187 q 0,-0.966797 1.02539,-2.167969 1.02539,-1.201172 2.16797,-1.201172 0.43945,0 0.61523,0.146484 0.20508,0.146485 0.20508,0.644532 0,0.55664 -0.0293,0.878906 -0.0293,0.292969 -0.0879,0.615234 -0.11718,0.46875 -0.23437,1.78711 -0.0586,0.585937 -0.0879,1.054687 -0.0879,0.966797 -0.14649,1.230469 0,0 0.17578,-0.292969 0.17579,-0.439453 0.64454,-1.259765 0.49804,-0.84961 0.99609,-1.669922 0.52734,-0.820313 0.82031,-1.142578 0.9375,-1.054688 2.08008,-1.728516 1.17187,-0.673828 2.8418,-0.673828 z" />
      <path
         id="path38"
         style="font-family:Beckhand"
         d="m 455.3125,77.734375 q 0.61523,0 0.70312,0.732422 0,0.410156 -0.29296,1.113281 -0.26368,0.673828 -0.58594,1.347656 -0.26367,0.556641 -0.43945,0.966797 -0.14649,0.322266 -0.29297,0.644531 -0.52735,1.025391 -0.79102,2.167969 -0.38086,1.582031 -0.58594,2.871094 -0.17578,1.289062 -0.17578,3.193359 0,1.435547 0.20508,2.636719 0.20508,1.171875 0.73242,2.021484 0.11719,0.175782 0.20508,0.292969 0.0879,0.08789 0.14648,0.146485 0.0586,0.0293 0.14649,0.05859 0.52734,0.175782 0.52734,0.703125 0,1.054688 -0.84961,1.904297 -0.82031,0.84961 -1.61132,1.230469 -0.35157,0.175781 -0.58594,0.205078 Q 451.5625,100 451.26953,100 q -0.9668,0 -1.55273,-1.025391 -0.58594,-1.02539 -0.84961,-2.373047 -0.23438,-1.347656 -0.23438,-2.314453 0,-0.146484 -0.0293,-0.351562 -0.0293,-0.146485 -0.0293,-0.234375 v -0.292969 l -0.64453,0.878906 q -3.66211,4.804688 -7.03125,6.005861 -0.64453,0.23437 -1.20117,0.23437 -1.11329,0 -1.69922,-0.732418 -0.55664,-0.732422 -0.79102,-1.933594 -0.20508,-1.201172 -0.20508,-2.607422 0,-3.632812 0.9668,-6.826172 0.9668,-3.222656 2.28516,-5.595703 1.14257,-2.226562 2.60742,-3.984375 1.49414,-1.757812 3.63281,-2.841797 0.67383,-0.410156 1.23047,-0.527343 0.58594,-0.146485 1.34766,-0.146485 0.8789,0 1.49414,0.585938 0.64453,0.585937 0.96679,1.464843 0.35157,0.84961 0.35157,1.669922 0,0.556641 -0.29297,1.083985 -0.79102,1.435547 -2.22657,2.226562 -0.61523,0.234375 -0.96679,0.234375 -0.41016,0 -0.52735,-0.175781 -0.0879,-0.175781 -0.14648,-0.527344 -0.0293,-0.05859 -0.0293,-0.146484 -0.0879,-0.732422 -0.41015,-1.494141 -0.32227,-0.761719 -1.05469,-0.761719 -0.46875,0 -0.84961,0.322266 -0.38086,0.292969 -0.9375,1.230469 -1.43555,2.109375 -2.34375,4.892578 -0.9082,2.753906 -0.9082,6.09375 0,0.703125 0,1.464844 0.0293,0.732422 0.0586,1.054687 0.14648,0.761719 0.46875,1.289063 0.32227,0.498047 0.67383,0.498047 0.55664,0 1.58203,-1.113282 1.05469,-1.142578 1.9043,-2.490234 0.8789,-1.347656 1.8457,-3.164063 0.9668,-1.816406 1.69922,-3.310546 0.64453,-1.259766 1.17187,-2.783204 0.52735,-1.523437 1.17188,-2.783203 0.52734,-0.9375 1.49414,-1.933593 0.99609,-1.025391 2.05078,-1.025391 z" />
      <path
         id="path40"
         style="font-family:Beckhand"
         d="m 474.73633,87.695312 q 0,0 0.0293,1.054688 0.0293,1.054687 0.17579,2.607422 0.14648,1.523437 0.43945,3.046875 0.32226,1.49414 0.84961,2.490234 0.52734,0.996094 1.31836,0.966797 -0.32227,1.201172 -1.58203,1.933594 -1.23047,0.732418 -2.25586,0.732418 -1.08399,0 -1.64063,-0.820309 -0.55664,-0.820312 -0.82031,-2.021484 -0.23438,-1.201172 -0.38086,-2.431641 -0.11719,-1.259765 -0.17578,-2.167969 -0.0586,-0.9375 -0.11719,-2.519531 0,-1.669922 -0.0879,-2.783203 -0.0879,-1.025391 -0.0879,-2.314453 -0.0293,-0.46875 -0.0879,-1.142578 -0.0586,-0.703125 -0.11719,-1.347656 -0.0586,-0.673829 -0.11719,-1.113282 -0.0586,-0.46875 -0.0879,-0.46875 -0.0586,0.08789 -0.20507,0.644532 -0.14649,0.55664 -0.32227,1.289062 -0.14648,0.615234 -0.29297,1.171875 -0.11719,0.527344 -0.20508,0.791016 -0.17578,0.55664 -0.38086,1.376953 -0.20507,0.791015 -0.52734,2.226562 -0.52734,2.050782 -1.31836,4.160157 -0.14648,0.439453 -0.29297,0.878906 -0.38086,1.259765 -1.23047,2.753906 -0.82031,1.464844 -1.96289,2.578125 -1.14258,1.083982 -2.40234,1.083982 -0.58594,0 -0.9375,-0.498044 -0.32227,-0.498047 -0.46875,-1.201172 -0.14649,-0.703125 -0.20508,-1.347657 -0.0586,-0.55664 -0.17578,-1.171875 -0.0879,-0.439453 -0.11719,-0.761718 -0.0879,-0.644532 -0.14648,-1.171875 -0.0293,-0.527344 -0.0293,-1.40625 0,-0.878907 0,-2.753907 0,-1.933593 0,-2.753906 0.0293,-0.820312 0.0586,-1.318359 0.0293,-0.439453 0.0293,-1.113281 0.0293,-0.673829 0.0293,-2.197266 v -2.402344 q 0,-0.791015 -0.23438,-1.201172 -0.17578,-0.380859 -0.17578,-0.820312 0,-0.673828 0.58594,-1.464844 0.61523,-0.820312 1.40625,-1.376953 0.82031,-0.585938 1.40625,-0.585938 0.46875,0 0.61523,0.234375 0.17579,0.234375 0.29297,0.732422 0.14649,0.527344 0.20508,0.908203 0.0586,0.351563 0.0586,0.966797 0.0293,0.615235 0.0293,1.962891 0,1.669922 -0.0293,2.373047 -0.0293,0.703125 -0.0586,1.113281 -0.0293,0.46875 -0.0586,1.289063 -0.0293,0.820312 -0.0293,2.958984 0,1.816406 0.0293,2.724609 0.0293,0.908203 0.0879,1.523438 0.0586,0.615234 0.17578,1.376953 0.0293,0.175781 0.0586,0.380859 l 0.26367,-0.615234 q 0.14649,-0.46875 0.41016,-1.582031 0.29297,-1.113282 0.55664,-2.226563 0.26367,-1.171875 0.41016,-1.699219 0.0879,-0.292968 0.23437,-0.878906 0.14649,-0.585937 0.29297,-1.230469 0.67383,-2.8125 1.69922,-5.039062 1.02539,-2.255859 2.69531,-3.720703 1.37696,-1.201172 2.46094,-1.201172 0.67383,0 1.02539,0.439453 0.38086,0.439453 0.58594,1.113281 0.23437,0.84961 0.43945,2.753907 0.23438,1.904296 0.26367,3.486328 0,1.230468 0.0586,2.167968 0.0879,1.025391 0.0879,2.578125 z" />
      <path
         id="path42"
         style="font-family:Beckhand"
         d="m 492.49023,77.5 q 1.55274,0 2.63672,0.761719 1.08399,0.732422 1.08399,2.34375 0,1.289062 -0.41016,2.34375 -0.41016,1.02539 -1.02539,1.933593 -1.8457,2.607422 -4.42383,5.039063 -2.57812,2.402344 -4.86328,3.896484 -0.17578,0.117188 -0.35156,0.263672 -0.14649,0.117188 -0.23438,0.205078 -0.0879,0.05859 -0.0879,0.05859 0,0.0293 0.14649,0.205078 0.17578,0.146485 0.38086,0.38086 0.20507,0.205078 0.38086,0.380859 0.20507,0.175781 0.29296,0.234375 1.11329,0.849609 3.01758,0.849609 1.75782,0 2.72461,-0.380859 0.9961,-0.410156 2.49024,-1.464844 0.17578,-0.117187 0.32226,-0.234375 0.52735,-0.351562 0.82031,-0.46875 0.29297,-0.146484 0.76172,-0.146484 0.73243,0 0.73243,0.644531 0,0.820313 -1.25977,2.226563 -0.79102,0.761718 -2.28516,1.699218 -1.49414,0.9375 -2.8125,1.494141 -1.75781,0.761715 -4.27734,0.761715 -1.28906,0 -2.25586,-0.29296 -0.9375,-0.292974 -1.69922,-0.908208 -1.64062,-1.201172 -2.40234,-3.222656 -0.52735,-1.611329 -0.52735,-3.427735 0,-0.820312 0.0879,-1.347656 0.0879,-0.556641 0.26368,-1.289063 0.52734,-2.373046 2.05078,-4.863281 1.43554,-2.402344 2.8125,-3.83789 1.40625,-1.435547 3.7207,-2.636719 0.9375,-0.498047 1.58203,-0.732422 0.67383,-0.234375 1.55274,-0.351563 Q 491.96289,77.5 492.49023,77.5 Z m -2.8125,4.189453 q -0.11718,0 -0.23437,0.0293 -0.11719,0.0293 -0.23438,0.0293 -0.84961,0.175781 -1.72851,0.585937 -0.87891,0.410157 -1.28906,0.878907 -0.52735,0.703125 -1.14258,1.757812 -0.58594,1.054688 -1.05469,2.314453 -0.43945,1.259766 -0.43945,2.519531 0,0.410157 0.0293,0.878907 0.0293,0.439453 0.0586,0.732422 0.0586,0.292968 0.0879,0.292968 0.0879,0 0.26367,-0.08789 0.17578,-0.117188 0.35156,-0.234375 0.17578,-0.117188 0.23438,-0.146485 1.8164,-0.966797 3.83789,-2.8125 2.05078,-1.875 3.01758,-3.251953 0.35156,-0.46875 0.46875,-0.791015 0.11718,-0.351563 0.11718,-0.878907 0,-0.732422 -0.14648,-1.02539 -0.14648,-0.292969 -0.64453,-0.46875 -0.73242,-0.322266 -1.55274,-0.322266 z" />
      <path
         id="path44"
         style="font-family:Beckhand"
         d="m 517.1875,77.734375 q 0.61523,0 0.70312,0.732422 0,0.410156 -0.29296,1.113281 -0.26368,0.673828 -0.58594,1.347656 -0.26367,0.556641 -0.43945,0.966797 -0.14649,0.322266 -0.29297,0.644531 -0.52735,1.025391 -0.79102,2.167969 -0.38086,1.582031 -0.58594,2.871094 -0.17578,1.289062 -0.17578,3.193359 0,1.435547 0.20508,2.636719 0.20508,1.171875 0.73242,2.021484 0.11719,0.175782 0.20508,0.292969 0.0879,0.08789 0.14648,0.146485 0.0586,0.0293 0.14649,0.05859 0.52734,0.175782 0.52734,0.703125 0,1.054688 -0.84961,1.904297 -0.82031,0.84961 -1.61132,1.230469 -0.35157,0.175781 -0.58594,0.205078 Q 513.4375,100 513.14453,100 q -0.9668,0 -1.55273,-1.025391 -0.58594,-1.02539 -0.84961,-2.373047 -0.23438,-1.347656 -0.23438,-2.314453 0,-0.146484 -0.0293,-0.351562 -0.0293,-0.146485 -0.0293,-0.234375 v -0.292969 l -0.64453,0.878906 q -3.66211,4.804688 -7.03125,6.005861 -0.64453,0.23437 -1.20117,0.23437 -1.11329,0 -1.69922,-0.732418 -0.55664,-0.732422 -0.79102,-1.933594 -0.20508,-1.201172 -0.20508,-2.607422 0,-3.632812 0.9668,-6.826172 0.9668,-3.222656 2.28516,-5.595703 1.14257,-2.226562 2.60742,-3.984375 1.49414,-1.757812 3.63281,-2.841797 0.67383,-0.410156 1.23047,-0.527343 0.58594,-0.146485 1.34766,-0.146485 0.8789,0 1.49414,0.585938 0.64453,0.585937 0.96679,1.464843 0.35157,0.84961 0.35157,1.669922 0,0.556641 -0.29297,1.083985 -0.79102,1.435547 -2.22657,2.226562 -0.61523,0.234375 -0.96679,0.234375 -0.41016,0 -0.52735,-0.175781 -0.0879,-0.175781 -0.14648,-0.527344 -0.0293,-0.05859 -0.0293,-0.146484 -0.0879,-0.732422 -0.41015,-1.494141 -0.32227,-0.761719 -1.05469,-0.761719 -0.46875,0 -0.84961,0.322266 -0.38086,0.292969 -0.9375,1.230469 -1.43555,2.109375 -2.34375,4.892578 -0.9082,2.753906 -0.9082,6.09375 0,0.703125 0,1.464844 0.0293,0.732422 0.0586,1.054687 0.14648,0.761719 0.46875,1.289063 0.32227,0.498047 0.67383,0.498047 0.55664,0 1.58203,-1.113282 1.05469,-1.142578 1.9043,-2.490234 0.8789,-1.347656 1.8457,-3.164063 0.9668,-1.816406 1.69922,-3.310546 0.64453,-1.259766 1.17187,-2.783204 0.52735,-1.523437 1.17188,-2.783203 0.52734,-0.9375 1.49414,-1.933593 0.99609,-1.025391 2.05078,-1.025391 z" />
    </g>
  </g>
</svg>
