<?xml version="1.0" encoding="UTF-8" standalone="no"?>
<svg
   xmlns:dc="http://purl.org/dc/elements/1.1/"
   xmlns:cc="http://creativecommons.org/ns#"
   xmlns:rdf="http://www.w3.org/1999/02/22-rdf-syntax-ns#"
   xmlns:svg="http://www.w3.org/2000/svg"
   xmlns="http://www.w3.org/2000/svg"
   id="svg16"
   width="800px"
   version="1.1"
   height="200px">
  <metadata
     id="metadata20">
    <rdf:RDF>
      <cc:Work
         rdf:about="">
        <dc:format>image/svg+xml</dc:format>
        <dc:type
           rdf:resource="http://purl.org/dc/dcmitype/StillImage" />
      </cc:Work>
    </rdf:RDF>
  </metadata>
  <defs
     id="defs4">
    <style
       id="style2"
       type="text/css"><![CDATA[    
     @font-face {font-family:BigNoodleTitling;
     src: url('/Users/francesco/Repos/write-logos/src/fonts/Fonts_E_TEMPORANEA/big_noodle_titling.ttf');}
     @font-face {font-family:Westpart;
     src: url('/Users/francesco/Repos/write-logos/src/fonts/Fonts_X/WestpartDemo.otf');}
     ]]></style>
  </defs>
  <g
     id="g14"
     style="font-size:60px">
    <g
       style="text-anchor:middle"
       id="text12"
       aria-label="EXTEMPORANEA">
      <path
         id="path22"
         style="font-family:BigNoodleTitling;letter-spacing:0.075em"
         d="M 240.77031,100 V 56.92 h 14.28 v 5.22 h -8.52 v 13.08 h 7.56 v 5.22 h -7.56 v 14.34 h 8.52 V 100 Z" />
      <path
         id="path24"
         style="font-family:Westpart;letter-spacing:0.05em"
         d="m 260.96875,103.96 c 0,0 0,0 0,0 0,0 0,0 0,0 z m 34.5,-47.94 c -0.24,-0.18 -0.48,-0.3 -0.66,-0.48 -0.42,0.06 -0.84,0.12 -1.26,0.12 -1.14,0.48 -1.98,1.32 -2.88,2.04 -0.42,0.84 -1.2,1.32 -1.8,1.92 -1.02,1.14 -2.22,2.04 -3,3.36 -0.42,0.72 -1.02,1.26 -1.44,1.98 -0.6,1.02 -1.38,1.86 -2.04,2.88 -0.54,0.78 -1.26,1.44 -1.62,2.34 -0.06,0.18 -0.3,0.36 -0.42,0.48 -0.18,0.18 -0.36,0.36 -0.48,0.6 -0.54,0.9 -1.2,1.74 -1.86,2.64 -0.24,0.36 -0.54,0.72 -0.84,1.08 0,0.06 -0.12,0.06 -0.3,0.06 0.54,-1.26 1.38,-2.34 2.22,-3.36 0.18,-0.54 0.48,-1.08 0.9,-1.5 0.42,-0.48 0.84,-0.9 0.9,-1.56 0.72,-0.6 1.26,-1.38 1.74,-2.16 0.24,-0.48 0.66,-0.96 0.96,-1.38 0.18,-0.24 0.42,-0.42 0.54,-0.66 0.54,-0.78 1.14,-1.5 1.62,-2.28 0.36,-0.54 0.84,-1.08 1.14,-1.68 0.06,-0.06 0,-0.12 0.06,-0.36 -1.08,0.96 -2.04,1.74 -2.82,2.82 -0.48,0.66 -1.02,1.32 -1.62,1.92 -0.9,0.96 -1.74,1.92 -2.46,3 -0.18,0.24 -0.3,0.48 -0.54,0.66 -0.9,0.84 -1.44,2.04 -2.34,2.88 -0.24,0.3 -0.36,0.72 -0.66,0.96 -0.3,0.24 -0.54,0.66 -0.84,1.02 -0.24,-0.42 -0.42,-0.78 -0.72,-1.08 -0.24,-0.3 -0.42,-0.54 -0.6,-0.84 -0.36,-0.6 -0.78,-1.14 -1.2,-1.62 -0.12,-0.18 -0.3,-0.42 -0.6,-0.36 -0.06,0 -0.12,-0.12 -0.18,-0.12 0.06,-0.18 0.06,-0.36 0.12,-0.48 -0.72,-0.72 -1.2,-1.5 -1.68,-2.28 -0.36,-0.54 -0.84,-0.96 -1.44,-1.08 -1.02,-1.14 -2.1,-2.1 -3.24,-2.94 -0.54,-0.12 -0.96,0 -1.26,0.36 0,0.06 -0.06,0.12 -0.06,0.18 0,1.02 0.36,1.98 0.6,3 0.18,0.6 0.6,1.2 0.9,1.8 0.48,1.02 0.96,1.98 1.5,3.06 0.12,0.12 0.42,0.36 0.48,0.6 0.06,0.42 0.36,0.66 0.6,0.96 0.12,0.12 0.18,0.3 0.3,0.42 0.42,0.66 0.66,1.44 1.26,1.98 0.06,0.06 0.06,0.18 0.12,0.3 0.48,0.9 1.02,1.8 1.5,2.7 0.12,0.18 0.12,0.36 0.18,0.48 -0.06,0.24 -0.12,0.48 -0.18,0.66 -0.12,0.18 -0.24,0.36 -0.36,0.48 -0.18,0.3 -0.42,0.54 -0.54,0.84 -0.42,0.84 -0.96,1.56 -1.5,2.28 -0.18,0.18 -0.36,0.42 -0.42,0.66 -0.48,1.02 -1.14,1.98 -1.68,2.94 -0.48,0.78 -1.02,1.5 -1.32,2.34 -0.12,0.3 -0.3,0.6 -0.42,0.84 -0.42,0.78 -0.84,1.62 -1.26,2.4 -0.3,0.72 -0.72,1.38 -0.96,2.16 -0.24,0.78 -0.72,1.44 -0.9,2.22 -0.06,0.36 -0.18,0.78 -0.42,1.08 -0.18,0.3 -0.12,0.66 -0.24,1.02 -0.12,0.12 -0.36,0.12 -0.3,0.36 0.24,0.12 0.48,0.24 0.72,0.3 -0.06,0.24 -0.12,0.48 -0.18,0.72 0,0.3 0,0.54 0,0.84 -0.24,0.12 -0.42,0.3 -0.6,0.42 -0.24,0.72 -0.3,1.44 -0.78,1.98 -0.18,0.24 -0.18,0.66 0.06,1.02 0.3,-0.24 0.6,-0.48 0.96,-0.66 0.06,-0.18 0.18,-0.36 0.18,-0.54 0.06,-0.18 0.06,-0.36 0.06,-0.54 0.3,-0.42 0.6,-0.78 0.84,-1.14 0.3,0 0.54,0 0.78,0 0,-0.66 0.48,-0.96 0.78,-1.14 0.3,-0.54 0.6,-0.9 0.84,-1.32 0.72,-1.38 1.62,-2.7 2.4,-4.02 0.54,-0.96 1.32,-1.8 1.68,-2.82 0.18,-0.3 0.48,-0.54 0.72,-0.78 0.84,-1.26 1.74,-2.52 2.58,-3.78 0.3,-0.48 0.54,-0.9 0.96,-1.5 0.06,-0.12 0.36,-0.24 0.6,-0.48 0.18,-0.24 0.24,-0.54 0.54,-0.78 0.24,-0.18 0.36,-0.48 0.54,-0.66 0.24,0.36 0.54,0.66 0.72,1.08 0.6,1.14 1.2,2.34 1.8,3.48 0.12,0.18 0.18,0.42 0.3,0.54 0.42,0.42 0.6,0.9 0.9,1.38 0.24,0.48 0.48,1.08 0.84,1.44 0.66,0.72 1.32,1.5 2.16,2.04 0.48,0.36 0.84,0.78 1.26,1.2 0.06,0 0.12,0 0.24,0.06 0.18,-0.18 0.36,-0.3 0.54,-0.48 0.24,0.12 0.42,0.24 0.6,0.3 0.18,0.3 0.36,0.54 0.48,0.84 0.36,0.18 0.72,0.3 1.02,0.48 0.3,-0.36 0.18,-0.72 0.18,-1.02 -0.06,-0.06 -0.06,-0.12 -0.12,-0.24 0,0 0.06,0 0.06,0 0,0.06 0.06,0.18 0.06,0.24 0.12,0 0.24,0.06 0.3,0.06 0.36,-0.54 0.42,-1.14 0.36,-1.62 -0.24,-0.66 -0.48,-1.14 -0.66,-1.68 -0.18,-0.6 -0.42,-1.14 -0.48,-1.74 -0.12,-0.48 -0.36,-0.84 -0.6,-1.26 -0.36,-0.78 -1.02,-1.32 -1.26,-2.16 -0.24,-0.12 -0.42,-0.24 -0.6,-0.42 0,-0.78 -0.48,-1.38 -0.96,-2.04 0,-0.9 -1.02,-1.26 -1.08,-2.1 -0.24,-0.12 -0.36,-0.18 -0.48,-0.3 -0.3,-0.54 -0.48,-1.08 -0.84,-1.5 -0.42,-0.54 -0.78,-1.14 -1.08,-1.8 0.12,-0.24 0.24,-0.54 0.42,-0.78 0.6,-0.84 1.32,-1.68 1.92,-2.52 0.42,-0.54 0.72,-1.08 1.26,-1.5 0.24,-0.18 0.36,-0.48 0.54,-0.78 0.18,-0.24 0.3,-0.48 0.48,-0.72 0.3,-0.42 0.66,-0.78 1.02,-1.32 0.12,-0.06 0.36,-0.18 0.36,-0.18 0.6,-0.72 1.02,-1.2 1.44,-1.74 0.24,-0.36 0.54,-0.72 0.96,-1.26 0.06,-0.12 0.36,-0.42 0.6,-0.72 0.96,-1.02 1.56,-2.28 2.4,-3.36 0.24,-0.3 0.48,-0.6 0.66,-0.9 0.72,-1.44 1.68,-2.7 2.7,-3.9 0.6,-0.72 1.14,-1.44 1.62,-2.1 0,-0.3 0,-0.54 0,-0.78 z m -33,42.96 c 0,-0.12 0,-0.24 0.06,-0.48 0.18,0.24 0.06,0.36 -0.06,0.48 z m 1.92,-1.5 c -0.06,0.12 -0.06,0.18 -0.12,0.24 0,0 0,0 -0.06,0 0.06,-0.06 0.12,-0.18 0.18,-0.24 0,0 0,-0.06 0,-0.06 0,0.06 0,0.06 0,0.06 z m 1.44,-3.06 v -0.06 l 0.12,0.06 z m 6.6,-27.06 c 0.12,0.06 0.24,0.12 0.42,-0.12 -0.6,-0.78 -0.96,-1.68 -1.98,-2.34 0.06,0.24 0.06,0.36 0.06,0.36 0.54,0.72 1.02,1.38 1.5,2.1 z m -11.46,36.6 c -0.06,0 -0.06,0 -0.06,0.06 0,-0.06 0,-0.06 0.06,-0.06 z" />
      <path
         id="path26"
         style="font-family:BigNoodleTitling;letter-spacing:0.075em"
         d="M 311.70812,62.14 V 100 h -5.76 V 62.14 h -5.51999 v -5.22 h 16.79999 v 5.22 z" />
      <path
         id="path28"
         style="font-family:BigNoodleTitling;letter-spacing:0.075em"
         d="M 325.075,100 V 56.92 h 14.28 v 5.22 h -8.52 v 13.08 h 7.56 v 5.22 h -7.56 v 14.34 h 8.52 V 100 Z" />
      <path
         id="path30"
         style="font-family:BigNoodleTitling;letter-spacing:0.075em"
         d="m 359.67344,82.24 5.34,-25.32 h 6.36 V 100 h -5.76 l 0.6,-28.2 -4.32,20.4 h -4.44 l -4.32,-20.4 0.6,28.2 h -5.76 V 56.92 h 6.36 z" />
      <path
         id="path32"
         style="font-family:BigNoodleTitling;letter-spacing:0.075em"
         d="m 381.30156,56.92 h 10.5 q 6.96,0 6.96,7.38 v 12.78 q 0,7.32 -6.9,7.32 h -4.8 V 100 h -5.76 z m 5.76,22.26 h 3.66 q 2.28,0 2.28,-2.52 v -12 q 0,-2.52 -2.58,-2.52 h -3.36 z" />
      <path
         id="path34"
         style="font-family:BigNoodleTitling;letter-spacing:0.075em"
         d="m 414.49281,100 q -6.96,0 -6.96,-7.32 V 64.3 q 0,-7.38 6.9,-7.38 h 5.52 q 6.9,0 6.9,7.38 v 28.38 q 0,7.32 -6.96,7.32 z m 1.38,-5.22 h 2.94 q 2.28,0 2.28,-2.52 v -27.6 q 0,-2.52 -2.58,-2.52 h -2.7 q -2.52,0 -2.52,2.52 v 27.6 q 0,2.52 2.58,2.52 z" />
      <path
         id="path36"
         style="font-family:BigNoodleTitling;letter-spacing:0.075em"
         d="m 436.47344,56.92 h 11.28 q 6.6,0 6.6,7.38 v 10.62 q 0,5.64 -3.42,7.14 l 4.02,17.94 h -5.46 l -3.78,-17.4 h -3.48 V 100 h -5.76 z m 5.76,20.76 h 3.78 q 2.58,0 2.58,-3.12 v -9.3 q 0,-3.12 -2.58,-3.12 h -3.78 z" />
      <path
         id="path38"
         style="font-family:BigNoodleTitling;letter-spacing:0.075em"
         d="m 469.16781,100 h -5.76 V 64.3 q 0,-7.38 6.9,-7.38 h 4.32 q 6.9,0 6.9,7.38 V 100 h -5.76 V 84.22 h -6.6 z m 6.6,-21 V 64.66 q 0,-2.52 -2.52,-2.52 h -1.56 q -2.52,0 -2.52,2.52 V 79 Z" />
      <path
         id="path40"
         style="font-family:BigNoodleTitling;letter-spacing:0.075em"
         d="M 503.11656,77.74 V 56.92 h 5.76 V 100 h -5.76 v -8.58 l -6.18,-19.62 V 100 h -5.76 V 56.92 h 5.76 z" />
      <path
         id="path42"
         style="font-family:BigNoodleTitling;letter-spacing:0.075em"
         d="M 518.7625,100 V 56.92 h 14.28 v 5.22 h -8.52 v 13.08 h 7.56 v 5.22 h -7.56 v 14.34 h 8.52 V 100 Z" />
      <path
         id="path44"
         style="font-family:BigNoodleTitling;letter-spacing:0.075em"
         d="m 547.12094,100 h -5.76 V 64.3 q 0,-7.38 6.9,-7.38 h 4.32 q 6.9,0 6.9,7.38 V 100 h -5.76 V 84.22 h -6.6 z m 6.6,-21 V 64.66 q 0,-2.52 -2.52,-2.52 h -1.56 q -2.52,0 -2.52,2.52 V 79 Z" />
    </g>
  </g>
</svg>
