<?xml version="1.0" encoding="UTF-8" standalone="no"?>
<svg
   xmlns:dc="http://purl.org/dc/elements/1.1/"
   xmlns:cc="http://creativecommons.org/ns#"
   xmlns:rdf="http://www.w3.org/1999/02/22-rdf-syntax-ns#"
   xmlns:svg="http://www.w3.org/2000/svg"
   xmlns="http://www.w3.org/2000/svg"
   id="svg16"
   width="800px"
   version="1.1"
   height="200px">
  <metadata
     id="metadata20">
    <rdf:RDF>
      <cc:Work
         rdf:about="">
        <dc:format>image/svg+xml</dc:format>
        <dc:type
           rdf:resource="http://purl.org/dc/dcmitype/StillImage" />
      </cc:Work>
    </rdf:RDF>
  </metadata>
  <defs
     id="defs4">
    <style
       id="style2"
       type="text/css"><![CDATA[    
     @font-face {font-family:BigNoodleTitling;
     src: url('/Users/francesco/Repos/write-logos/src/fonts/Fonts_E_TEMPORANEA/big_noodle_titling.ttf');}
     @font-face {font-family:Mercury Blob;
     src: url('/Users/francesco/Repos/write-logos/src/fonts/Fonts_X/Mercblob.ttf');}
     ]]></style>
  </defs>
  <g
     id="g14"
     style="font-size:60px">
    <g
       style="text-anchor:middle"
       id="text12"
       aria-label="EXTEMPORANEA">
      <path
         id="path22"
         style="font-family:BigNoodleTitling;letter-spacing:0.075em"
         d="M 228.87578,100 V 56.92 h 14.28 v 5.22 h -8.52 v 13.08 h 7.56 v 5.22 h -7.56 v 14.34 h 8.52 V 100 Z" />
      <path
         id="path24"
         style="font-family:'Mercury Blob';letter-spacing:0.05em"
         d="m 264.13422,61.54 q 1.98,0 3.36,-1.38 1.44,-1.44 1.44,-3.36 0,-1.98 -1.44,-3.36 -1.38,-1.44 -3.36,-1.44 -1.98,0 -3.36,1.38 -1.38,1.38 -1.38,3.42 0,1.92 1.32,3.36 1.38,1.38 3.42,1.38 z m -10.02,0 q 1.98,0 3.36,-1.38 1.38,-1.38 1.38,-3.36 0,-1.92 -1.38,-3.36 -1.38,-1.44 -3.36,-1.44 -1.98,0 -3.42,1.44 -1.38,1.38 -1.38,3.36 0,1.98 1.38,3.36 1.38,1.38 3.42,1.38 z m 10.02,10.02 q 1.92,0 3.36,-1.38 1.44,-1.38 1.44,-3.36 0,-1.98 -1.44,-3.36 -1.38,-1.44 -3.36,-1.44 -1.98,0 -3.36,1.38 -1.38,1.38 -1.38,3.42 0,1.98 1.38,3.36 1.38,1.38 3.36,1.38 z m 20.1,30.18 q 1.98,0 3.36,-1.44 1.44,-1.38 1.44,-3.36 0,-1.98 -1.38,-3.36 -1.38,-1.38 -3.42,-1.38 -1.92,0 -3.36,1.38 -1.44,1.38 -1.44,3.36 0,1.98 1.38,3.36 1.44,1.44 3.42,1.44 z m 10.02,10.02 q 1.92,0 3.36,-1.38 1.44,-1.38 1.44,-3.36 0,-1.98 -1.44,-3.42 -1.38,-1.38 -3.36,-1.38 -1.98,0 -3.36,1.38 -1.38,1.38 -1.38,3.42 0,1.98 1.38,3.36 1.38,1.38 3.36,1.38 z m 0.06,-50.22 q 1.98,0 3.36,-1.38 1.38,-1.38 1.38,-3.36 0,-1.92 -1.38,-3.36 -1.38,-1.44 -3.36,-1.44 -1.98,0 -3.42,1.44 -1.38,1.38 -1.38,3.36 0,3.54 -0.84,4.38 -0.84,0.84 -4.44,0.84 -1.98,0 -3.42,1.44 -1.38,1.38 -1.38,3.3 l 0.06,0.42 q 0,3.3 -0.9,4.08 -0.9,0.78 -4.38,0.78 -1.98,0 -3.42,1.44 -1.38,1.38 -1.38,3.36 v 0.42 q 0,3.24 -0.9,4.08 -0.84,0.78 -4.38,0.78 -1.98,0 -3.36,1.38 -1.38,1.38 -1.38,3.36 0,1.92 1.38,3.36 1.38,1.44 3.36,1.44 1.98,0 3.36,-1.38 1.44,-1.44 1.44,-3.42 0,-3.54 0.84,-4.38 0.84,-0.84 4.44,-0.84 1.98,0 3.36,-1.38 1.38,-1.38 1.38,-3.42 v -0.42 q 0,-3.24 0.84,-4.02 0.9,-0.84 4.44,-0.84 1.92,0 3.36,-1.38 1.44,-1.38 1.44,-3.36 V 66.4 q 0,-3.3 0.84,-4.08 0.84,-0.78 4.44,-0.78 z m -10.08,20.1 q 1.98,0 3.36,-1.38 1.44,-1.44 1.44,-3.42 0,-1.98 -1.38,-3.36 -1.38,-1.38 -3.42,-1.38 -1.98,0 -3.36,1.38 -1.38,1.38 -1.38,3.36 0,3.6 -0.84,4.44 -0.84,0.84 -4.44,0.84 -1.92,0 -3.36,1.38 -1.44,1.38 -1.44,3.36 v 0.42 q 0,3.3 -0.9,4.08 -0.9,0.78 -4.38,0.78 -1.98,0 -3.36,1.38 -1.38,1.38 -1.38,3.42 v 0.42 q 0,3.24 -0.9,4.02 -0.84,0.84 -4.38,0.84 -1.92,0 -3.36,1.38 -1.44,1.38 -1.44,3.36 0,1.98 1.38,3.36 1.44,1.44 3.42,1.44 1.98,0 3.36,-1.38 1.38,-1.38 1.38,-3.42 0,-3.54 0.84,-4.38 0.84,-0.84 4.44,-0.84 1.98,0 3.36,-1.44 1.44,-1.38 1.44,-3.36 v -0.42 q 0,-3.24 0.84,-4.02 0.9,-0.84 4.44,-0.84 1.98,0 3.36,-1.38 1.38,-1.38 1.38,-3.36 V 86.5 q 0,-3.3 0.9,-4.08 0.9,-0.78 4.38,-0.78 z m 0,30.12 q 1.92,0 3.36,-1.38 1.44,-1.38 1.44,-3.36 0,-1.98 -1.44,-3.42 -1.38,-1.38 -3.36,-1.38 -1.98,0 -3.42,1.38 -1.38,1.44 -1.38,3.42 0,1.98 1.38,3.36 1.38,1.38 3.42,1.38 z" />
      <path
         id="path26"
         style="font-family:BigNoodleTitling;letter-spacing:0.075em"
         d="M 323.60266,62.14 V 100 h -5.76 V 62.14 h -5.52 v -5.22 h 16.8 v 5.22 z" />
      <path
         id="path28"
         style="font-family:BigNoodleTitling;letter-spacing:0.075em"
         d="M 336.96953,100 V 56.92 h 14.28 v 5.22 h -8.52 v 13.08 h 7.56 v 5.22 h -7.56 v 14.34 h 8.52 V 100 Z" />
      <path
         id="path30"
         style="font-family:BigNoodleTitling;letter-spacing:0.075em"
         d="m 371.56797,82.24 5.34,-25.32 h 6.36 V 100 h -5.76 l 0.6,-28.2 -4.32,20.4 h -4.44 l -4.32,-20.4 0.6,28.2 h -5.76 V 56.92 h 6.36 z" />
      <path
         id="path32"
         style="font-family:BigNoodleTitling;letter-spacing:0.075em"
         d="m 393.19609,56.92 h 10.5 q 6.96,0 6.96,7.38 v 12.78 q 0,7.32 -6.9,7.32 h -4.8 V 100 h -5.76 z m 5.76,22.26 h 3.66 q 2.28,0 2.28,-2.52 v -12 q 0,-2.52 -2.58,-2.52 h -3.36 z" />
      <path
         id="path34"
         style="font-family:BigNoodleTitling;letter-spacing:0.075em"
         d="m 426.38734,100 q -6.96,0 -6.96,-7.32 V 64.3 q 0,-7.38 6.9,-7.38 h 5.52 q 6.9,0 6.9,7.38 v 28.38 q 0,7.32 -6.96,7.32 z m 1.38,-5.22 h 2.94 q 2.28,0 2.28,-2.52 v -27.6 q 0,-2.52 -2.58,-2.52 h -2.7 q -2.52,0 -2.52,2.52 v 27.6 q 0,2.52 2.58,2.52 z" />
      <path
         id="path36"
         style="font-family:BigNoodleTitling;letter-spacing:0.075em"
         d="m 448.36797,56.92 h 11.28 q 6.6,0 6.6,7.38 v 10.62 q 0,5.64 -3.42,7.14 l 4.02,17.94 h -5.46 l -3.78,-17.4 h -3.48 V 100 h -5.76 z m 5.76,20.76 h 3.78 q 2.58,0 2.58,-3.12 v -9.3 q 0,-3.12 -2.58,-3.12 h -3.78 z" />
      <path
         id="path38"
         style="font-family:BigNoodleTitling;letter-spacing:0.075em"
         d="m 481.06234,100 h -5.76 V 64.3 q 0,-7.38 6.9,-7.38 h 4.32 q 6.9,0 6.9,7.38 V 100 h -5.76 V 84.22 h -6.6 z m 6.6,-21 V 64.66 q 0,-2.52 -2.52,-2.52 h -1.56 q -2.52,0 -2.52,2.52 V 79 Z" />
      <path
         id="path40"
         style="font-family:BigNoodleTitling;letter-spacing:0.075em"
         d="M 515.01109,77.74 V 56.92 h 5.76 V 100 h -5.76 v -8.58 l -6.18,-19.62 V 100 h -5.76 V 56.92 h 5.76 z" />
      <path
         id="path42"
         style="font-family:BigNoodleTitling;letter-spacing:0.075em"
         d="M 530.65703,100 V 56.92 h 14.28 v 5.22 h -8.52 v 13.08 h 7.56 v 5.22 h -7.56 v 14.34 h 8.52 V 100 Z" />
      <path
         id="path44"
         style="font-family:BigNoodleTitling;letter-spacing:0.075em"
         d="m 559.01547,100 h -5.76 V 64.3 q 0,-7.38 6.9,-7.38 h 4.32 q 6.9,0 6.9,7.38 V 100 h -5.76 V 84.22 h -6.6 z m 6.6,-21 V 64.66 q 0,-2.52 -2.52,-2.52 h -1.56 q -2.52,0 -2.52,2.52 V 79 Z" />
    </g>
  </g>
</svg>
