<?xml version="1.0" encoding="UTF-8" standalone="no"?>
<svg
   xmlns:dc="http://purl.org/dc/elements/1.1/"
   xmlns:cc="http://creativecommons.org/ns#"
   xmlns:rdf="http://www.w3.org/1999/02/22-rdf-syntax-ns#"
   xmlns:svg="http://www.w3.org/2000/svg"
   xmlns="http://www.w3.org/2000/svg"
   id="svg16"
   width="800px"
   version="1.1"
   height="200px">
  <metadata
     id="metadata20">
    <rdf:RDF>
      <cc:Work
         rdf:about="">
        <dc:format>image/svg+xml</dc:format>
        <dc:type
           rdf:resource="http://purl.org/dc/dcmitype/StillImage" />
      </cc:Work>
    </rdf:RDF>
  </metadata>
  <defs
     id="defs4">
    <style
       id="style2"
       type="text/css"><![CDATA[    
     @font-face {font-family:BigNoodleTitling;
     src: url('/Users/francesco/Repos/write-logos/src/fonts/Fonts_E_TEMPORANEA/big_noodle_titling.ttf');}
     @font-face {font-family:Chakie;
     src: url('/Users/francesco/Repos/write-logos/src/fonts/Fonts_X/Chakie.ttf');}
     ]]></style>
  </defs>
  <g
     id="g14"
     style="font-size:60px">
    <g
       style="text-anchor:middle"
       id="text12"
       aria-label="EXTEMPORANEA">
      <path
         id="path22"
         style="font-family:BigNoodleTitling;letter-spacing:0.075em"
         d="M 242.41094,100 V 56.92 h 14.28 v 5.22 h -8.52 v 13.08 h 7.56 v 5.22 h -7.56 v 14.34 h 8.52 V 100 Z" />
      <path
         id="path24"
         style="font-family:Chakie;letter-spacing:0.05em"
         d="m 292.72937,96.28 q -0.12,0 -0.24,0.06 -0.12,0 -0.18,-0.06 -0.3,-0.36 -0.65999,0 -0.12,0.06 -0.48001,0.06 0.18,0.3 0.36001,0.42 0.18,0.12 0.3,0.3 0.06,0.06 -0.06,0.36 -0.12,0 -0.18,0 0,-0.06 -0.06,-0.06 l -0.12001,-0.12 q -0.42,-0.12 -0.48,0.12 -0.06,0.12 0,0.3 0.12,0.12 0.24,0.12 0.36001,0 0.30001,0.24 0,0.24 0.06,0.54 V 98.5 q -0.12001,-0.24 -0.12001,0 -0.24,0.12 -0.06,0.24 l 0.06,-0.06 q 0,0 0.12001,-0.12 0.24,0.06 0.3,0.24 0.11999,0.12 0,0.18 -0.60001,0.18 -0.96001,0.66 -0.12,0.06 -0.12,0.06 -0.3,0.06 -0.59999,0 -0.24001,-0.12 -0.48001,0.24 h -0.12 q -0.12,-0.42 -0.48,-0.3 -0.29999,0.12 -0.47999,-0.18 -0.06,-0.18 -0.24001,0 -0.42,0.48 -0.89999,0.06 -0.06,0 -0.06,0 0,-0.06 -0.06,-0.06 -0.06,0 -0.06,-0.06 -0.18,0.18 -0.36001,0.3 -0.18,0.06 -0.36,-0.24 -0.18,-0.18 -0.42,-0.06 -0.24,0.06 -0.35999,-0.12 -0.18,-0.24 -0.42001,-0.24 -0.18,0 -0.36,0 -0.36,0.12 -0.6,0 -0.23999,-0.18 -0.48,-0.3 -0.36,-0.12 -0.78,-0.3 -0.35999,-0.24 -0.65999,-0.54 -0.36001,-0.3 -0.78001,-0.48 -0.41999,-0.24 -0.71999,-0.6 -0.24001,-0.3 -0.42001,-0.66 -0.12,-0.42 -0.48,-0.6 0.12,-0.24 -0.06,-0.36 -0.17999,-0.12 -0.17999,-0.3 0,-0.3 -0.18,-0.42 -0.18,-0.18 -0.30001,-0.36 -0.12,-0.12 -0.24,-0.24 -0.12,-0.12 -0.24,-0.24 -0.24,-0.3 -0.36,-0.6 -0.06,-0.3 -0.35999,-0.48 -0.18,-0.18 -0.06,-0.42 0,-0.18 -0.18001,-0.3 -0.12,-0.18 -0.24,-0.3 -0.12,-0.18 -0.36,-0.12 -0.18,0.06 -0.18,-0.24 0,-0.18 -0.12,-0.24 -0.12,-0.12 -0.12,-0.3 -0.11999,-0.66 -0.6,-0.84 -0.42,-0.24 -0.9,-0.54 l -0.23999,0.12 q 0.06,0.06 0.06,0.12 0,0 0.06,0.06 v 0.12 q 0,0.06 0.06,0.06 -0.06,0.12 -0.18,0.24 -0.12,0.12 -0.30001,0.18 -0.18,0.06 -0.36,0.18 v 0.12 q -0.18,0.3 -0.3,0.6 -0.06,0.3 -0.3,0.54 0.12,0.48 -0.11999,0.72 -0.18,0.18 -0.42001,0.42 -0.12,0.12 -0.3,0.3 -0.12,0.18 -0.3,0.36 -0.12,0.12 -0.3,0.18 -0.11999,0 -0.23999,0.12 0,0.12 0.12,0.18 0.11999,0 0,0.24 -0.12,0.3 -0.36,0.66 -0.18001,0.36 -0.12001,0.72 0.06,0.12 -0.3,0.24 -0.12,0.06 -0.3,0.18 -0.18,0.06 -0.3,0.18 0.12,0.12 0.18,0.24 0.06,0.06 0.18,0.18 -0.3,0.12 -0.53999,0.24 -0.24,0.06 -0.36001,0.36 0.36001,0.12 0.48,0.18 -0.11999,0.18 -0.23999,0.36 -0.06,0.18 -0.30001,0.12 -0.3,-0.06 -0.48,0.12 -0.18,0.12 -0.36,0.36 0.06,0.12 0.12,0.18 0.06,0.06 0.06,0.12 0.3,0.3 0,0.48 -0.12,0.06 -0.3,0.06 -0.11999,0 -0.23999,0.12 -0.12,0.24 -0.36001,0.12 -0.24,-0.12 -0.42,0.12 -0.12,0.18 -0.3,0.36 -0.12,0.18 -0.35999,0.3 -0.24,0.24 -0.78001,0.12 -0.12,-0.06 -0.18,-0.18 0,-0.06 -0.12,-0.06 -0.29999,0 -0.41999,-0.18 -0.12,-0.24 -0.30001,-0.36 -0.18,-0.12 -0.42,-0.18 -0.18,-0.12 -0.42,-0.24 -0.18,-0.12 -0.35999,-0.24 -0.12,-0.18 -0.24,-0.3 -0.18001,-0.12 -0.30001,-0.24 -0.12,-0.12 -0.36,-0.18 -0.12,0 -0.24,-0.18 -0.12,-0.18 -0.23999,-0.36 -0.12,-0.12 -0.18,-0.3 0,-0.24 -0.12,-0.42 -0.12001,-0.18 -0.24001,-0.36 -0.06,-0.18 0.24001,-0.3 0,-0.3 0,-0.48 0,-0.24 0.3,-0.42 -0.06,-0.36 0.11999,-0.54 0.24,-0.24 0.42,-0.36 0.18,-0.18 0.24,-0.36 0.06,-0.24 0.12,-0.54 0.06,-0.24 0.18,-0.42 0.12001,-0.18 0.24001,-0.36 0.06,-0.12 0.12,-0.18 0.06,-0.12 0.06,-0.3 0,-0.3 0.11999,-0.42 0.3,-0.24 0.42,-0.66 0.12,-0.42 0.48,-0.66 0.18001,-0.12 0.12001,-0.3 0,-0.24 0,-0.42 l 0.89999,-0.9 q 0,-0.48 0.24,-0.6 0.3,-0.18 0.48001,-0.48 0.12,-0.24 0.12,-0.36 0,-0.12 0,-0.3 0.06,-0.24 0.23999,-0.36 0.12,-0.12 0.24,-0.24 0.18,-0.12 0.18,-0.42 0,-0.12 0.12,-0.24 0.12,-0.18 0.18,-0.42 0.12,-0.24 0.24,-0.42 0.18001,-0.24 0.30001,-0.48 0.12,-0.24 0.17999,-0.48 0.06,-0.3 0.18,-0.48 0.42,-0.42 0.6,-0.96 0.12,-0.3 0.24,-0.54 0.12001,-0.24 0.36001,-0.42 0.23999,-0.12 0.23999,-0.3 0,-0.24 -0.06,-0.9 -0.06,-0.3 0,-0.54 0.06,-0.3 -0.06,-0.66 -0.11999,-0.06 -0.23999,-0.06 -0.06,0 -0.18,-0.06 0,-0.12 -0.12001,-0.24 v -1.14 q -0.12,0 -0.48,-0.12 -0.48,-0.42 -0.59999,-1.2 -0.06,-0.3 -0.18,-0.42 -0.12,-0.18 -0.12,-0.36 -0.06,-0.3 -0.18001,-0.42 -0.12,-0.12 -0.24,-0.24 -0.18,-0.12 -0.24,-0.42 0,-0.3 -0.24,-0.42 l 0.24,-0.24 q -0.06,-0.06 -0.06,-0.06 0,-0.06 -0.06,-0.12 -0.24,-0.3 -0.53999,-0.54 -0.24001,-0.24 -0.54001,-0.54 0,-0.24 0.06,-0.48 0.06,-0.24 -0.06,-0.36 -0.12,-0.3 -0.18,-0.48 -0.06,-0.18 -0.18,-0.36 -0.24,-0.3 -0.36,-0.66 -0.06,-0.36 -0.35999,-0.66 -0.12001,-0.12 0.06,-0.18 0.24,-0.06 0.12,-0.24 -0.12,-0.12 -0.24,-0.36 0,-0.48 -0.18001,-0.72 -0.12,-0.24 -0.24,-0.42 -0.12,-0.24 -0.12,-0.48 0.06,-0.36 -0.12,-0.54 -0.18,-0.24 -0.24,-0.54 -0.06,-0.18 -0.23999,-0.36 -0.12,-0.18 -0.24,-0.48 -0.06,-0.06 0,-0.12 0.12,-0.06 0.24,-0.18 -0.12,-0.12 -0.12,-0.12 -0.18,-0.06 -0.42001,-0.12 -0.18,-0.06 -0.12,-0.36 0.06,-0.12 0,-0.3 0,-0.18 0,-0.3 -0.12,-0.18 -0.24,-0.3 -0.12,-0.18 -0.24,-0.3 0.18,-0.3 0.12,-0.42 -0.12,-0.18 -0.24,-0.36 -0.12,-0.18 -0.23999,-0.48 -0.06,-0.24 -0.06,-0.48 0.06,-0.24 0.06,-0.54 V 59.5 q 0.11999,-0.24 0.35999,-0.36 0.3,-0.18 0.54,-0.3 0.24001,-0.12 0.36001,-0.06 0.18,0 0.35999,-0.06 0.3,0 0.48,0 0.24,0 0.42,-0.3 h 0.84 q 0.12,0.18 0.18,0.36 0.06,0.18 0.18,0.24 0.42001,0.12 0.84,-0.18 0.3,-0.36 0.48,0.36 0,0 0.12,0.12 h 1.08 q 0.24,0.3 0.42,0.54 0.24,0.18 0.36,0.36 h 0.72 q 0.3,0.3 0.36,0.66 0.06,0.3 0.48,0.36 0.24001,0 0.24001,0.18 0,0.12 0,0.24 0.06,0.6 0.59999,0.3 0.06,-0.06 0.06,-0.06 0.06,0 0.12,-0.06 0.12,0.24 0.12,0.3 -0.12,0.12 -0.12,0.3 -0.18,0.24 0.12,0.3 h 0.3 v 0.12 q 0,0.06 0.06,0.12 0.30001,-0.06 0.42001,0.18 0.17999,0.18 0.47999,0.18 0.18,0 0.18,0.3 -0.06,0.78 0.66001,0.9 0.18,0.06 0.23999,0.24 0.12,0.12 0.3,0.24 -0.12,0.12 -0.3,0.3 -0.11999,0.18 -0.29999,0.36 0.35999,0.12 0.41999,0.12 0.12,-0.06 0.12,-0.12 0.06,-0.12 0.18,-0.18 0.18,0 0.42,0.12 -0.06,0.06 -0.06,0.12 0,0 -0.06,0.06 -0.24,0.18 -0.06,0.48 0.12,0.18 0.3,0.3 0.36001,0.42 0,0.78 l -0.36,0.36 q 0.12,0.12 0.12,0.12 h 1.14 q 0.12,0.24 0.24,0.42 0.12,0.18 0.18,0.42 0.12,0.48 0.54001,0.72 0.17999,-0.12 0.29999,-0.24 0.18,-0.18 0.36,-0.36 0.18,-0.3 0.36,-0.48 0.24001,-0.18 0.30001,-0.54 0.06,-0.24 0.24,-0.36 0.23999,-0.12 0.29999,-0.42 0.12,-0.42 0.42,-0.6 0.3,-0.24 0.42,-0.54 0.18001,-0.3 0.30001,-0.6 0.17999,-0.36 0.47999,-0.6 0.18,-0.18 0.24,-0.48 0.06,-0.3 0.3,-0.6 0.24001,-0.18 0.36001,-0.42 0.12,-0.3 0.41999,-0.54 0.18,-0.18 0.42,-0.36 0.24,-0.24 0.36,-0.54 0.12,-0.42 0.42001,-0.66 0.29999,-0.3 0.59999,-0.66 0.24,-0.3 0.3,-0.54 0.06,-0.12 0.18,-0.24 0.18001,-0.12 0.30001,-0.24 0.12,-0.12 0.29999,-0.18 0.18,-0.06 0.3,-0.18 0.3,-0.12 0.54,-0.18 0.30001,-0.12 0.54001,-0.42 0.41999,0 0.83999,0 0.42001,0 0.78,0.06 0.24,0 0.24,0.06 0.18,0.3 0.42,0.24 0.3,-0.12 0.48001,0.06 0.12,0.12 0.3,0.18 0.17999,0.06 0.29999,0.18 0.12,0.18 0.36,0.18 0.24,-0.06 0.24,0.3 0,0.3 0.24001,0.3 0.3,-0.06 0.41999,0.12 0.06,0.12 0.18,0.24 0.12,0.12 0.06,0.3 0,0.48 0.24,0.66 0.3,0.24 0.48,0.54 0.18001,0.3 0.36001,0.66 0.23999,0.48 0,0.78 -0.12,0.12 -0.12,0.24 0,0.12 -0.12,0.3 -0.06,0.12 -0.24001,0.12 -0.12,0 -0.18,0.12 -0.12,0.18 -0.12,0.36 0,0.18 -0.06,0.42 -0.18,0 -0.36,0.06 -0.17999,0 -0.47999,0 0.12,0.18 0.18,0.3 0.06,0.12 0.17999,0.24 -0.48,0.6 -0.78,0.96 -0.3,0.36 -0.72,0.6 -0.66,0.24 -0.6,1.02 0,0 -0.18,0.18 -0.06,-0.06 -0.06,-0.12 0,-0.06 -0.06,-0.18 -0.06,-0.06 -0.06,-0.12 v -0.12 q -0.24,-0.06 -0.24,0.24 0,0.24 -0.06,0.3 -0.18,0.12 -0.18,0.24 0.06,0.06 0.18,0.24 l -0.06,0.18 q -0.18,0 -0.35999,0.06 -0.12,0 -0.06,0.3 0,0.12 -0.30001,0.24 -0.18,0 -0.48,0.48 -0.24,0.42 -0.18,0.54 0.12,0.18 0.3,0.3 -0.3,0.18 -0.6,0.36 -0.23999,0.12 -0.29999,0.66 -0.06,0.18 -0.30001,0.12 -0.18,-0.06 -0.36,0 -0.12,0 -0.12,0.18 0,0.12 0.12,0.12 h 0.12 q 0.12,0 0.24,0.12 -0.42,0.48 -0.6,0.6 -0.12,0.06 -0.78,0.36 0.06,0.12 0.12001,0.18 0.06,0 0.12,0.12 -0.18,0.12 -0.42001,0.24 -0.24,0.06 -0.18,0.36 -0.12,0.06 -0.18,0.06 -0.12,0 -0.18,0.06 0,0 -0.06,0 -0.06,0 -0.06,0.12 0,0.06 -0.06,0.06 0.36,0.24 0.06,0.48 -0.12,0.12 -0.18,0.36 0,0.24 -0.23999,0.42 -0.12,0.12 -0.18,0.3 0,0.12 -0.12001,0.3 -0.12,0.18 -0.36,0.24 -0.18,0 -0.36,0.18 -0.12,0.18 0,0.24 0.12,0.06 0.18,0.18 -0.12,0.12 -0.3,0.18 -0.12,0 -0.29999,0.12 l 0.12,0.12 q 0.29999,0.18 0.17999,0.48 -0.12,0.3 0.12,0.42 0.6,0.18 0.72,0.54 -0.06,0 -0.12,0.06 -0.06,0.06 -0.12,0 -0.3,0 -0.3,0.36 0,0.12 0.06,0.18 0.06,0.06 0.12,0.18 l 0.18,-0.18 q 0.36001,0.24 0.42001,0.36 0.06,0.06 0.12,0.54 0.35999,0.42 0.71999,0.78 0.36,0.36 0.72001,0.72 v 0.96 q -0.12,0.06 -0.30001,0.18 -0.12,0.06 -0.24,0.12 0.12,0.12 0.3,0.18 0.18001,0.06 0.30001,0.18 0.23999,0.18 0.35999,0.06 0.18,-0.12 0.36,-0.24 0.24,0.36 -0.18,0.78 0.42,0.36 0.78001,0.78 0.35999,0.36 0.71999,0.78 0.36,0.36 0.06,0.96 -0.24,0.66 0.24,0.66 0.12,0.06 0.3,0.06 0.24001,0 0.24001,0.12 0,0.24 0.06,0.36 0.12,0.12 0.23999,0.24 -0.35999,0.24 0,0.6 0.12,0.12 0,0.36 -0.06,0.24 0.18,0.36 0.18,0.06 0.3,0.18 0.18,0.12 0.3,0.12 0.30001,0 0.48001,0.18 0.18,0.18 0.29999,0.42 0.18,0.3 0.3,0.6 0.18,0.24 0.42,0.48 -0.06,0 -0.06,0.06 -0.06,0.12 -0.06,0.12 0,0.06 -0.06,0.06 0,0 0,0.06 v 0.12 q 0.12,0.12 0.24,0.12 0.18,0 0.24001,0.12 0.12,0.12 0.12,0.24 0,0.12 0.18,0.24 0.23999,0.12 0.29999,0.36 0.06,0.24 0.12,0.54 0.06,0.3 0.18,0.6 0.12,0.24 0.42,0.42 0.18001,0.18 0.18001,0.42 0.06,0.18 0.06,0.36 0,0.12 -0.12001,0.42 -0.06,0.24 -0.18,0.36 z m -5.75999,-7.62 h 0.18 v -0.12 q -0.18,-0.18 -0.30001,-0.06 l 0.06,0.06 q 0.12001,0.12 0.24001,0.12 -0.12,0.3 0.18,0.3 0.23999,0.06 0.65999,0.06 0.06,0.24 0.54001,0.54 0.12,-0.42 0,-0.48 -0.06,-0.06 -0.54001,-0.06 0.12,-0.36 -0.18,-0.36 -0.18,-0.06 -0.35999,0 -0.18,0 -0.48,0 z m -10.44,-18.3 h 0.3 q 0.29999,0 0.29999,-0.3 0,-0.3 -0.24,-0.36 -0.35999,0 -0.35999,0.36 0,0.24 -0.24001,0.3 h -0.42 q 0,0 -0.18,0.18 0.06,0.06 0.12,0.06 0.18,0.06 0.54,0.06 0.18001,0 0.18001,-0.18 0.06,-0.18 -0.06,-0.12 -0.06,0.06 0.06,0 z m -1.44,-3.9 q -0.30001,-0.24 -0.54001,0 -0.12,0 0,0.12 0.12,0.12 0.24,0.12 0.18001,0 0.24001,-0.12 0.06,-0.06 0.06,-0.12 z m -0.30001,-0.78 q -0.06,-0.06 -0.06,-0.06 0,-0.06 -0.06,-0.12 0,0.06 -0.06,0.06 -0.06,0 -0.06,0.06 0,0.06 0.06,0.12 0.06,0 0.06,0.06 z m 1.02,1.26 q 0.06,0 0.06,-0.06 0.06,-0.06 0.12,-0.06 -0.12,-0.12 -0.12,-0.12 -0.06,0 -0.18,0.12 0.06,0 0.06,0.06 0,0.06 0.06,0.06 z m -0.53999,0.66 q -0.12,0.12 -0.18,0.12 l 0.12,0.12 q 0.06,-0.06 0.06,-0.06 0.06,0 0.11999,-0.06 z m 2.39999,2.04 q -0.06,-0.06 -0.06,-0.06 0,-0.06 -0.06,-0.12 l -0.06,0.06 q 0,0.06 0,0.12 0.06,0 0.06,0.06 0.06,0 0.06,0 0,-0.06 0.06,-0.06 z m 7.56,2.88 -0.06,0.06 q 0,0.06 0,0.12 0.06,0 0.06,0.12 l 0.12,-0.12 q 0,-0.06 -0.12,-0.18 z m 0.36001,12.24 q -0.06,0 -0.18001,0.12 l 0.06,0.06 q 0.06,0 0.06,0 0.06,-0.06 0.18,-0.06 z m 1.44,2.34 q 0.06,-0.12 0.12,-0.18 -0.06,0 -0.12,0 0,-0.06 -0.12001,-0.06 l -0.06,0.06 q 0.06,0.06 0.06,0.06 0.06,0 0.12001,0.12 z m -13.44,4.14 q -0.12,-0.12 -0.12,-0.12 -0.06,0.06 -0.06,0.12 0,0 -0.06,0.06 0,0 0.12001,0.12 0,-0.06 0.12,-0.18 z m -0.90001,1.56 q 0,-0.06 -0.12,-0.18 0,0.06 -0.06,0.06 0,0 0,0.06 0,0.06 0,0.12 0.06,0 0.06,0.06 0.12,0 0.12,-0.12 z m 17.88,2.28 q 0,-0.06 0,-0.06 0.06,0 0.06,-0.12 -0.06,0 -0.12,0 0,-0.06 -0.06,-0.06 l -0.06,0.06 q 0.06,0.12 0.06,0.12 0.06,0 0.12,0.06 z m -0.96,-6.06 q -0.24,-0.24 -0.36,-0.48 0.06,0 0.06,-0.06 0,-0.12 0.06,-0.12 0.3,0 0.36,0.12 0.06,0.06 0,0.18 0,0.12 0,0.24 z m 3.66001,7.5 q 0,0.18 -0.48001,0.06 -0.06,0 -0.06,-0.06 V 96.4 q -0.12,-0.24 0.12,-0.12 0.12001,0 0.18001,0.06 0.06,0 0.18,0 0.06,0 0.06,0.18 z m -19.8,-34.08 0.12,0.12 q -0.06,0.06 -0.06,0.12 0,0 -0.06,0.06 h -0.12001 q -0.12,-0.12 0,-0.12 0,-0.06 0.12001,-0.18 z" />
      <path
         id="path26"
         style="font-family:BigNoodleTitling;letter-spacing:0.075em"
         d="M 310.0675,62.14 V 100 h -5.76 V 62.14 h -5.52 v -5.22 h 16.8 v 5.22 z" />
      <path
         id="path28"
         style="font-family:BigNoodleTitling;letter-spacing:0.075em"
         d="M 323.43437,100 V 56.92 h 14.28001 v 5.22 h -8.52001 v 13.08 h 7.56 v 5.22 h -7.56 v 14.34 h 8.52001 V 100 Z" />
      <path
         id="path30"
         style="font-family:BigNoodleTitling;letter-spacing:0.075em"
         d="m 358.03281,82.24 5.34,-25.32 h 6.36 V 100 h -5.76 l 0.6,-28.2 -4.32,20.4 h -4.44 l -4.32,-20.4 0.6,28.2 h -5.76 V 56.92 h 6.36 z" />
      <path
         id="path32"
         style="font-family:BigNoodleTitling;letter-spacing:0.075em"
         d="m 379.66094,56.92 h 10.5 q 6.96,0 6.96,7.38 v 12.78 q 0,7.32 -6.9,7.32 h -4.8 V 100 h -5.76 z m 5.76,22.26 h 3.66 q 2.28,0 2.28,-2.52 v -12 q 0,-2.52 -2.58,-2.52 h -3.36 z" />
      <path
         id="path34"
         style="font-family:BigNoodleTitling;letter-spacing:0.075em"
         d="m 412.85219,100 q -6.96,0 -6.96,-7.32 V 64.3 q 0,-7.38 6.9,-7.38 h 5.52 q 6.9,0 6.9,7.38 v 28.38 q 0,7.32 -6.96,7.32 z m 1.38,-5.22 h 2.94 q 2.28,0 2.28,-2.52 v -27.6 q 0,-2.52 -2.58,-2.52 h -2.7 q -2.52,0 -2.52,2.52 v 27.6 q 0,2.52 2.58,2.52 z" />
      <path
         id="path36"
         style="font-family:BigNoodleTitling;letter-spacing:0.075em"
         d="m 434.83281,56.92 h 11.28 q 6.6,0 6.6,7.38 v 10.62 q 0,5.64 -3.42,7.14 l 4.02,17.94 h -5.46 l -3.78,-17.4 h -3.48 V 100 h -5.76 z m 5.76,20.76 h 3.78 q 2.58,0 2.58,-3.12 v -9.3 q 0,-3.12 -2.58,-3.12 h -3.78 z" />
      <path
         id="path38"
         style="font-family:BigNoodleTitling;letter-spacing:0.075em"
         d="m 467.52719,100 h -5.76 V 64.3 q 0,-7.38 6.9,-7.38 h 4.32 q 6.9,0 6.9,7.38 V 100 h -5.76 V 84.22 h -6.6 z m 6.6,-21 V 64.66 q 0,-2.52 -2.52,-2.52 h -1.56 q -2.52,0 -2.52,2.52 V 79 Z" />
      <path
         id="path40"
         style="font-family:BigNoodleTitling;letter-spacing:0.075em"
         d="M 501.47594,77.74 V 56.92 h 5.76 V 100 h -5.76 v -8.58 l -6.18,-19.62 V 100 h -5.76 V 56.92 h 5.76 z" />
      <path
         id="path42"
         style="font-family:BigNoodleTitling;letter-spacing:0.075em"
         d="M 517.12188,100 V 56.92 h 14.28 v 5.22 h -8.52 v 13.08 h 7.55999 v 5.22 h -7.55999 v 14.34 h 8.52 V 100 Z" />
      <path
         id="path44"
         style="font-family:BigNoodleTitling;letter-spacing:0.075em"
         d="m 545.48031,100 h -5.76 V 64.3 q 0,-7.38 6.9,-7.38 h 4.32 q 6.9,0 6.9,7.38 V 100 h -5.76 V 84.22 h -6.6 z m 6.6,-21 V 64.66 q 0,-2.52 -2.52,-2.52 h -1.56 q -2.52,0 -2.52,2.52 V 79 Z" />
    </g>
  </g>
</svg>
