<?xml version="1.0" encoding="UTF-8" standalone="no"?>
<svg
   xmlns:dc="http://purl.org/dc/elements/1.1/"
   xmlns:cc="http://creativecommons.org/ns#"
   xmlns:rdf="http://www.w3.org/1999/02/22-rdf-syntax-ns#"
   xmlns:svg="http://www.w3.org/2000/svg"
   xmlns="http://www.w3.org/2000/svg"
   id="svg16"
   width="800px"
   version="1.1"
   height="200px">
  <metadata
     id="metadata20">
    <rdf:RDF>
      <cc:Work
         rdf:about="">
        <dc:format>image/svg+xml</dc:format>
        <dc:type
           rdf:resource="http://purl.org/dc/dcmitype/StillImage" />
      </cc:Work>
    </rdf:RDF>
  </metadata>
  <defs
     id="defs4">
    <style
       id="style2"
       type="text/css"><![CDATA[    
     @font-face {font-family:BigNoodleTitling;
     src: url('/Users/francesco/Repos/write-logos/src/fonts/Fonts_E_TEMPORANEA/big_noodle_titling.ttf');}
     @font-face {font-family:Plaster;
     src: url('/Users/francesco/Repos/write-logos/src/fonts/Fonts_X/Plaster-Regular.ttf');}
     ]]></style>
  </defs>
  <g
     id="g14"
     style="font-size:60px">
    <g
       style="text-anchor:middle"
       id="text12"
       aria-label="EXTEMPORANEA">
      <path
         id="path22"
         style="font-family:BigNoodleTitling;letter-spacing:0.075em"
         d="M 236.2,100 V 56.92 h 14.28 v 5.22 h -8.52 v 13.08 h 7.56 v 5.22 h -7.56 v 14.34 h 8.52 V 100 Z" />
      <path
         id="path24"
         style="font-family:Plaster;letter-spacing:0.05em"
         d="M 262.58008,74.306641 Q 260.17773,70.820312 260.17773,64.375 v -4.248047 h 11.54297 l 21.79688,23.876953 q 1.8457,2.050781 2.46094,3.457031 0.61523,1.40625 0.9082,2.578125 0.64453,2.34375 0.64453,5.771485 V 100 h -11.2207 L 262.66797,74.306641 Z m 22.26562,-1.669922 q 0,-8.056641 2.49024,-10.488282 1.31836,-1.289062 3.42773,-1.640625 2.13867,-0.380859 5.18555,-0.380859 h 1.58203 v 4.628906 q 0,6.240235 -3.28125,8.34961 -2.34375,1.523437 -7.88086,1.523437 h -1.52344 z m -24.66797,22.792968 q 0,-6.240234 3.28125,-8.378906 2.34375,-1.49414 7.88086,-1.49414 h 1.52344 v 1.992187 q 0,8.144531 -2.49023,10.458984 -1.69922,1.582032 -4.95118,1.875 Q 263.78125,100 261.75977,100 h -1.58204 z" />
      <path
         id="path26"
         style="font-family:BigNoodleTitling;letter-spacing:0.075em"
         d="M 316.27844,62.14 V 100 h -5.76 V 62.14 h -5.52 v -5.22 h 16.8 v 5.22 z" />
      <path
         id="path28"
         style="font-family:BigNoodleTitling;letter-spacing:0.075em"
         d="M 329.64531,100 V 56.92 h 14.28 v 5.22 h -8.52 v 13.08 h 7.56 v 5.22 h -7.56 v 14.34 h 8.52 V 100 Z" />
      <path
         id="path30"
         style="font-family:BigNoodleTitling;letter-spacing:0.075em"
         d="m 364.24375,82.24 5.34,-25.32 h 6.36 V 100 h -5.76 l 0.6,-28.2 -4.32,20.4 h -4.44 l -4.32,-20.4 0.6,28.2 h -5.76 V 56.92 h 6.36 z" />
      <path
         id="path32"
         style="font-family:BigNoodleTitling;letter-spacing:0.075em"
         d="m 385.87187,56.92 h 10.5 q 6.96001,0 6.96001,7.38 v 12.78 q 0,7.32 -6.90001,7.32 h -4.8 V 100 h -5.76 z m 5.76,22.26 h 3.66 q 2.28,0 2.28,-2.52 v -12 q 0,-2.52 -2.58,-2.52 h -3.36 z" />
      <path
         id="path34"
         style="font-family:BigNoodleTitling;letter-spacing:0.075em"
         d="m 419.06313,100 q -6.96001,0 -6.96001,-7.32 V 64.3 q 0,-7.38 6.9,-7.38 h 5.52 q 6.90001,0 6.90001,7.38 v 28.38 q 0,7.32 -6.96001,7.32 z m 1.37999,-5.22 h 2.94 q 2.28,0 2.28,-2.52 v -27.6 q 0,-2.52 -2.58,-2.52 h -2.7 q -2.51999,0 -2.51999,2.52 v 27.6 q 0,2.52 2.57999,2.52 z" />
      <path
         id="path36"
         style="font-family:BigNoodleTitling;letter-spacing:0.075em"
         d="m 441.04375,56.92 h 11.28 q 6.6,0 6.6,7.38 v 10.62 q 0,5.64 -3.42,7.14 l 4.02,17.94 h -5.46 l -3.78,-17.4 h -3.48 V 100 h -5.76 z m 5.76,20.76 h 3.78 q 2.58,0 2.58,-3.12 v -9.3 q 0,-3.12 -2.58,-3.12 h -3.78 z" />
      <path
         id="path38"
         style="font-family:BigNoodleTitling;letter-spacing:0.075em"
         d="m 473.73813,100 h -5.76001 V 64.3 q 0,-7.38 6.9,-7.38 h 4.32 q 6.9,0 6.9,7.38 V 100 h -5.76 V 84.22 h -6.59999 z m 6.59999,-21 V 64.66 q 0,-2.52 -2.52,-2.52 h -1.56 q -2.51999,0 -2.51999,2.52 V 79 Z" />
      <path
         id="path40"
         style="font-family:BigNoodleTitling;letter-spacing:0.075em"
         d="M 507.68687,77.74 V 56.92 h 5.76 V 100 h -5.76 v -8.58 l -6.18,-19.62 V 100 h -5.76 V 56.92 h 5.76 z" />
      <path
         id="path42"
         style="font-family:BigNoodleTitling;letter-spacing:0.075em"
         d="M 523.33281,100 V 56.92 h 14.28 v 5.22 h -8.52 v 13.08 h 7.56 v 5.22 h -7.56 v 14.34 h 8.52 V 100 Z" />
      <path
         id="path44"
         style="font-family:BigNoodleTitling;letter-spacing:0.075em"
         d="m 551.69125,100 h -5.76 V 64.3 q 0,-7.38 6.9,-7.38 h 4.32 q 6.9,0 6.9,7.38 V 100 h -5.76 V 84.22 h -6.6 z m 6.6,-21 V 64.66 q 0,-2.52 -2.52,-2.52 h -1.56 q -2.52,0 -2.52,2.52 V 79 Z" />
    </g>
  </g>
</svg>
