<?xml version="1.0" encoding="UTF-8" standalone="no"?>
<svg
   xmlns:dc="http://purl.org/dc/elements/1.1/"
   xmlns:cc="http://creativecommons.org/ns#"
   xmlns:rdf="http://www.w3.org/1999/02/22-rdf-syntax-ns#"
   xmlns:svg="http://www.w3.org/2000/svg"
   xmlns="http://www.w3.org/2000/svg"
   id="svg16"
   width="800px"
   version="1.1"
   height="200px">
  <metadata
     id="metadata20">
    <rdf:RDF>
      <cc:Work
         rdf:about="">
        <dc:format>image/svg+xml</dc:format>
        <dc:type
           rdf:resource="http://purl.org/dc/dcmitype/StillImage" />
      </cc:Work>
    </rdf:RDF>
  </metadata>
  <defs
     id="defs4">
    <style
       id="style2"
       type="text/css"><![CDATA[    
     @font-face {font-family:BigNoodleTitling;
     src: url('/Users/francesco/Repos/write-logos/src/fonts/Fonts_E_TEMPORANEA/big_noodle_titling.ttf');}
     @font-face {font-family:lift me up;
     src: url('/Users/francesco/Repos/write-logos/src/fonts/Fonts_X/liftmeup.ttf');}
     ]]></style>
  </defs>
  <g
     id="g14"
     style="font-size:60px">
    <g
       style="text-anchor:middle"
       id="text12"
       aria-label="EXTEMPORANEA">
      <path
         id="path22"
         style="font-family:BigNoodleTitling;letter-spacing:0.075em"
         d="M 231.33672,100 V 56.92 h 14.28 v 5.22 h -8.52 v 13.08 h 7.56 v 5.22 h -7.56 v 14.34 h 8.52 V 100 Z" />
      <path
         id="path24"
         style="font-family:'lift me up';letter-spacing:0.05em"
         d="m 261.13516,53.26 12.6,16.98 -0.84,1.14 -13.5,-18.12 z m 16.02,21.6 3,-4.08 0.84,1.14 -3,3.96 3,4.08 -0.84,1.14 -3,-4.14 -2.64,3.54 -0.78,-1.08 2.58,-3.54 -2.58,-3.42 0.84,-1.08 z m 16.86,25.08 -13.02,-17.76 0.84,-1.08 13.86,18.84 z m -35.58,0 14.46,-19.38 0.78,1.02 -13.62,18.36 z m 36.48,-46.68 -13.08,17.52 -0.84,-1.08 12.24,-16.44 z m 6.84,46.68 -16.92,-22.98 -3,4.14 -0.84,-1.14 3,-4.08 -3,-3.96 0.84,-1.14 3,4.08 16.14,-21.6 h 1.62 l -16.86,22.62 17.64,24.06 z m -24.18,-15.3 2.58,-3.54 0.84,1.08 -2.64,3.54 z m 2.58,-13.86 -2.58,-3.48 0.84,-1.14 2.58,3.54 z m -11.28,-17.52 8.7,11.76 -0.84,1.14 -9.6,-12.9 z m -2.7,46.68 10.56,-14.22 0.78,1.14 -9.72,13.08 z m 8.34,-19.44 3.06,4.14 -0.84,1.08 -3.06,-4.14 z m 3.06,-13.2 -3,4.08 -0.84,-1.14 3,-4.08 z m -6.42,8.58 2.58,3.54 -0.84,1.14 -2.64,-3.6 -17.04,22.98 h -1.62 l 17.82,-24.06 -16.92,-22.62 h 1.74 l 16.02,21.6 2.64,-3.48 0.84,1.08 z m 16.02,24.06 -9.66,-13.08 0.84,-1.14 10.44,14.22 z m 0.84,-46.68 -9.6,12.9 -0.84,-1.14 8.82,-11.76 z" />
      <path
         id="path26"
         style="font-family:BigNoodleTitling;letter-spacing:0.075em"
         d="M 321.14172,62.14 V 100 h -5.76 V 62.14 h -5.52 v -5.22 h 16.8 v 5.22 z" />
      <path
         id="path28"
         style="font-family:BigNoodleTitling;letter-spacing:0.075em"
         d="M 334.50859,100 V 56.92 h 14.28 v 5.22 h -8.52 v 13.08 h 7.56 v 5.22 h -7.56 v 14.34 h 8.52 V 100 Z" />
      <path
         id="path30"
         style="font-family:BigNoodleTitling;letter-spacing:0.075em"
         d="m 369.10703,82.24 5.34,-25.32 h 6.36 V 100 h -5.76 l 0.6,-28.2 -4.32,20.4 h -4.44 l -4.32,-20.4 0.6,28.2 h -5.76 V 56.92 h 6.36 z" />
      <path
         id="path32"
         style="font-family:BigNoodleTitling;letter-spacing:0.075em"
         d="m 390.73516,56.92 h 10.5 q 6.96,0 6.96,7.38 v 12.78 q 0,7.32 -6.9,7.32 h -4.8 V 100 h -5.76 z m 5.76,22.26 h 3.66 q 2.28,0 2.28,-2.52 v -12 q 0,-2.52 -2.58,-2.52 h -3.36 z" />
      <path
         id="path34"
         style="font-family:BigNoodleTitling;letter-spacing:0.075em"
         d="m 423.92641,100 q -6.96,0 -6.96,-7.32 V 64.3 q 0,-7.38 6.9,-7.38 h 5.52 q 6.9,0 6.9,7.38 v 28.38 q 0,7.32 -6.96,7.32 z m 1.38,-5.22 h 2.94 q 2.28,0 2.28,-2.52 v -27.6 q 0,-2.52 -2.58,-2.52 h -2.7 q -2.52,0 -2.52,2.52 v 27.6 q 0,2.52 2.58,2.52 z" />
      <path
         id="path36"
         style="font-family:BigNoodleTitling;letter-spacing:0.075em"
         d="m 445.90703,56.92 h 11.28 q 6.6,0 6.6,7.38 v 10.62 q 0,5.64 -3.42,7.14 l 4.02,17.94 h -5.46 l -3.78,-17.4 h -3.48 V 100 h -5.76 z m 5.76,20.76 h 3.78 q 2.58,0 2.58,-3.12 v -9.3 q 0,-3.12 -2.58,-3.12 h -3.78 z" />
      <path
         id="path38"
         style="font-family:BigNoodleTitling;letter-spacing:0.075em"
         d="m 478.60141,100 h -5.76 V 64.3 q 0,-7.38 6.9,-7.38 h 4.32 q 6.9,0 6.9,7.38 V 100 h -5.76 V 84.22 h -6.6 z m 6.6,-21 V 64.66 q 0,-2.52 -2.52,-2.52 h -1.56 q -2.52,0 -2.52,2.52 V 79 Z" />
      <path
         id="path40"
         style="font-family:BigNoodleTitling;letter-spacing:0.075em"
         d="M 512.55016,77.74 V 56.92 h 5.76 V 100 h -5.76 v -8.58 l -6.18,-19.62 V 100 h -5.76 V 56.92 h 5.76 z" />
      <path
         id="path42"
         style="font-family:BigNoodleTitling;letter-spacing:0.075em"
         d="M 528.19609,100 V 56.92 h 14.28 v 5.22 h -8.52 v 13.08 h 7.56 v 5.22 h -7.56 v 14.34 h 8.52 V 100 Z" />
      <path
         id="path44"
         style="font-family:BigNoodleTitling;letter-spacing:0.075em"
         d="m 556.55453,100 h -5.76 V 64.3 q 0,-7.38 6.9,-7.38 h 4.32 q 6.9,0 6.9,7.38 V 100 h -5.76 V 84.22 h -6.6 z m 6.6,-21 V 64.66 q 0,-2.52 -2.52,-2.52 h -1.56 q -2.52,0 -2.52,2.52 V 79 Z" />
    </g>
  </g>
</svg>
