<?xml version="1.0" encoding="UTF-8" standalone="no"?>
<svg
   xmlns:dc="http://purl.org/dc/elements/1.1/"
   xmlns:cc="http://creativecommons.org/ns#"
   xmlns:rdf="http://www.w3.org/1999/02/22-rdf-syntax-ns#"
   xmlns:svg="http://www.w3.org/2000/svg"
   xmlns="http://www.w3.org/2000/svg"
   id="svg16"
   width="500px"
   version="1.1"
   height="200px">
  <metadata
     id="metadata20">
    <rdf:RDF>
      <cc:Work
         rdf:about="">
        <dc:format>image/svg+xml</dc:format>
        <dc:type
           rdf:resource="http://purl.org/dc/dcmitype/StillImage" />
      </cc:Work>
    </rdf:RDF>
  </metadata>
  <defs
     id="defs4">
    <style
       id="style2"
       type="text/css"><![CDATA[    
     @font-face {font-family:Bigdey;
     src: url('/Users/francesco/Repos/write-logos/src/fonts/Bigdey_Demo.ttf');}
     @font-face {font-family:Dark Hornet Expanded;
     src: url('/Users/francesco/Repos/write-logos/src/fonts/darkhornetexpand.ttf');}
     ]]></style>
  </defs>
  <g
     id="g14"
     style="font-size:60px">
    <g
       style="text-anchor:middle"
       id="text12"
       aria-label="eXtemporanea">
      <path
         id="path22"
         style="font-family:Bigdey"
         d="m 119.21875,99.326172 q 1.31836,0.117187 2.87109,-0.761719 1.58204,-0.908203 3.07618,-2.138672 1.49414,-1.259765 2.7539,-2.578125 1.25977,-1.318359 1.99219,-2.050781 0.43945,-0.175781 0.52734,-0.234375 0.0879,-0.08789 0.52735,0.351562 -0.82032,2.285157 -3.25196,4.716797 -2.43164,2.402344 -5.30273,3.779301 -2.8418,1.37695 -5.56641,1.20117 -2.69531,-0.17578 -4.10156,-3.076174 -0.99609,-1.669922 -0.76172,-3.925781 0.26367,-2.255859 1.14258,-4.511719 0.87891,-2.285156 2.13867,-4.277344 1.25977,-2.021484 2.28516,-3.251953 0.9668,-1.318359 2.28515,-2.666015 1.34766,-1.347657 2.8418,-2.519532 1.52344,-1.201171 3.16406,-2.138671 1.64063,-0.9375 3.22266,-1.435547 1.61133,-0.439453 2.66602,-0.0293 1.08398,0.410156 1.8457,2.402344 0.70312,2.021484 -0.11719,4.394531 -0.82031,2.34375 -2.66601,4.365234 -1.84571,2.021485 -4.57032,3.398438 -2.69531,1.376953 -5.77148,1.464843 -0.76172,0 -1.31836,0 -0.55664,-0.0293 -0.99609,-0.234375 -0.23438,0.615235 -0.76172,2.197266 -0.49805,1.552734 -0.76172,3.222656 -0.26367,1.669922 0,2.958985 0.26367,1.289062 1.58203,1.376953 0.43945,0 1.02539,0 z m 12.50977,-22.265625 q -0.11719,-0.439453 -0.61524,-0.527344 -0.49805,-0.117187 -1.05469,-0.0293 -0.55664,0.08789 -1.02539,0.292969 -0.46875,0.175781 -0.55664,0.263672 -2.87109,1.875 -5.24414,4.746094 -2.43164,2.90039 -4.33594,6.18164 1.99219,0 4.01368,-0.966797 2.02148,-0.966797 3.77929,-2.548828 1.75782,-1.582031 3.07617,-3.515625 1.34766,-1.96289 1.9629,-3.896484 z" />
      <path
         id="path24"
         style="font-family:'Dark Hornet Expanded'"
         d="m 154.41625,61.54 h -17.64 v 15.42 l 4.44,3.84 -4.44,3.78 V 100 h 17.64 v -8.76 l 3.54,-3.06 3.6,3.06 V 100 h 17.64 V 84.58 l -4.56,-3.78 4.56,-3.84 V 61.54 h -17.64 v 8.7 l -3.6,3 -3.54,-3 z" />
      <path
         id="path26"
         style="font-family:Bigdey"
         d="m 189.29687,64.228516 q -0.49804,0.234375 -1.43554,0.908203 -0.90821,0.673828 -1.72852,1.113281 -0.82031,0.410156 -1.31836,0.175781 -0.46875,-0.234375 -0.0879,-1.816406 0.35156,-1.318359 1.31836,-1.845703 0.9961,-0.527344 2.16797,-0.996094 1.17188,-0.46875 2.34375,-1.259766 1.17188,-0.791015 1.9043,-2.636718 0.35156,-0.791016 0.9375,-2.402344 0.58593,-1.611328 1.40625,-3.105469 0.84961,-1.49414 1.96289,-2.34375 1.11328,-0.878906 2.54883,-0.175781 0.58593,0.380859 0.20507,1.757812 -0.38086,1.376954 -1.08398,3.017579 -0.70313,1.611328 -1.49414,3.105468 -0.76172,1.464844 -0.9668,2.050782 3.22266,-1.083985 4.7168,-0.673829 1.49414,0.410157 1.96289,1.289063 0.49805,0.878906 0.35156,1.787109 -0.14648,0.878907 -0.23437,0.761719 -1.02539,-0.791016 -1.58203,-1.347656 -0.52735,-0.556641 -1.08399,-0.732422 -0.52734,-0.175781 -1.34765,0.0293 -0.79102,0.205078 -2.34375,0.908203 -1.58204,0.615234 -4.16016,6.210937 -2.54883,5.566407 -4.74609,12.65625 -2.16797,7.089844 -3.28125,13.945313 -1.08399,6.855465 0.23437,10.107425 0.70313,1.99218 1.8457,3.04687 1.17188,1.05469 2.31446,1.61133 1.14257,0.58594 2.05078,0.87891 0.9375,0.32226 1.17187,0.82031 0.43946,0.9668 -2.57812,0.9375 -3.01758,-0.0293 -5.625,-3.63281 -2.57813,-3.60352 -2.78321,-12.041019 -0.17578,-8.466797 5.91797,-24.375 z" />
      <path
         id="path28"
         style="font-family:Bigdey"
         d="m 197.03125,99.326172 q 1.31836,0.117187 2.87109,-0.761719 1.58203,-0.908203 3.07618,-2.138672 1.49414,-1.259765 2.7539,-2.578125 1.25977,-1.318359 1.99219,-2.050781 0.43945,-0.175781 0.52734,-0.234375 0.0879,-0.08789 0.52735,0.351562 -0.82032,2.285157 -3.25196,4.716797 -2.43164,2.402344 -5.30273,3.779301 -2.8418,1.37695 -5.56641,1.20117 -2.69531,-0.17578 -4.10156,-3.076174 -0.99609,-1.669922 -0.76172,-3.925781 0.26367,-2.255859 1.14258,-4.511719 0.87891,-2.285156 2.13867,-4.277344 1.25977,-2.021484 2.28516,-3.251953 0.96679,-1.318359 2.28515,-2.666015 1.34766,-1.347657 2.8418,-2.519532 1.52344,-1.201171 3.16406,-2.138671 1.64063,-0.9375 3.22266,-1.435547 1.61133,-0.439453 2.66602,-0.0293 1.08398,0.410156 1.8457,2.402344 0.70312,2.021484 -0.11719,4.394531 -0.82031,2.34375 -2.66601,4.365234 -1.84571,2.021485 -4.57032,3.398438 -2.69531,1.376953 -5.77148,1.464843 -0.76172,0 -1.31836,0 -0.55664,-0.0293 -0.99609,-0.234375 -0.23438,0.615235 -0.76172,2.197266 -0.49805,1.552734 -0.76172,3.222656 -0.26367,1.669922 0,2.958985 0.26367,1.289062 1.58203,1.376953 0.43945,0 1.02539,0 z m 12.50977,-22.265625 q -0.11719,-0.439453 -0.61524,-0.527344 -0.49805,-0.117187 -1.05469,-0.0293 -0.55664,0.08789 -1.02539,0.292969 -0.46875,0.175781 -0.55664,0.263672 -2.87109,1.875 -5.24414,4.746094 -2.43164,2.90039 -4.33594,6.18164 1.99219,0 4.01368,-0.966797 2.02148,-0.966797 3.77929,-2.548828 1.75782,-1.582031 3.07617,-3.515625 1.34766,-1.96289 1.9629,-3.896484 z" />
      <path
         id="path30"
         style="font-family:Bigdey"
         d="m 217.71484,76.591797 q 1.40625,0.615234 1.31836,2.43164 -0.0879,1.816407 -0.76172,3.896485 -0.64453,2.080078 -1.43554,3.984375 -0.76172,1.904297 -0.76172,2.695312 0.58594,-0.966797 1.55273,-2.988281 0.9961,-2.050781 2.28516,-3.984375 1.31836,-1.962891 2.87109,-3.251953 1.55274,-1.318359 3.28125,-0.878906 1.9043,0.498047 1.81641,3.339843 -0.0879,2.8125 -0.79102,5.742188 -0.70312,2.900391 -1.34765,4.833984 -0.61524,1.904297 0.20508,0.585938 0.35156,-0.439453 2.49023,-3.632813 2.16797,-3.222656 4.77539,-6.269531 2.63672,-3.076172 5.00977,-4.541016 2.40234,-1.49414 3.22265,1.494141 0.43946,2.021484 -0.0879,4.130859 -0.49805,2.080079 -1.02539,4.189454 -0.52734,2.080078 -0.55664,4.101562 -0.0293,2.021484 1.40625,3.925781 0.70313,1.025391 -0.17578,1.728516 -0.87891,0.703125 -2.08008,0 -1.20117,-0.732422 -2.08008,-3.427734 -0.84961,-2.72461 -0.11718,-8.525391 0.35156,-2.753906 0.0586,-3.28125 -0.29297,-0.527344 -1.34766,0.673828 -1.05468,1.201172 -2.98828,3.837891 -1.9043,2.636718 -4.80469,6.240234 -1.23046,1.582031 -2.25586,2.109375 -1.02539,0.498047 -1.72851,0.117188 -0.70313,-0.410157 -0.9375,-1.582032 -0.23438,-1.201172 0.14648,-3.046875 0.43946,-2.988281 0.84961,-5.449218 0.41016,-2.490235 0.17578,-3.427735 -0.23437,-0.966797 -1.37695,0.146485 -1.14258,1.083984 -3.75,5.273437 -1.58203,2.548828 -2.34375,4.775391 -0.73242,2.197265 -1.25976,3.867187 -0.49805,1.669922 -1.05469,2.636719 -0.55664,0.9375 -1.72852,0.9375 -0.82031,0 -1.02539,-0.849609 -0.20508,-0.84961 -0.11719,-2.138672 0.0879,-1.289063 0.32227,-2.753907 0.26367,-1.464843 0.38086,-2.695312 0.20508,-1.083984 0.67383,-3.544922 0.49804,-2.460937 1.20117,-5.009766 0.73242,-2.548828 1.69922,-4.482421 0.96679,-1.933594 2.19726,-1.933594 z" />
      <path
         id="path32"
         style="font-family:Bigdey"
         d="m 243.99414,113.24219 q 0.9082,-1.58203 2.10938,-4.98047 9.78515,3.60351 13.0664,10.22461 3.31055,6.65039 1.72852,12.59765 -1.55274,5.97657 -7.14844,9.375 -5.5957,3.42774 -13.56445,0.55664 -2.57813,-1.31835 -3.98438,-3.57421 -1.37695,-2.25586 -0.9375,-4.36524 0.64453,-2.05078 1.61133,-2.02148 0.99609,0.0293 1.9043,0.9082 0.9082,0.87891 2.22656,3.01758 -0.35156,-2.90039 0.0293,-4.36524 0.38086,-1.46484 1.11328,-1.875 0.73242,-0.38086 1.61133,0.11719 0.9082,0.52735 1.58203,1.61133 1.05468,1.58203 1.17187,2.98828 0.11719,1.40625 -0.17578,2.69531 -0.26367,1.31836 -0.73242,2.51953 -0.43945,1.20118 -0.55664,2.34375 4.42383,-5.47851 4.07226,-8.75976 -0.35156,-3.25195 -2.49023,-4.33594 -2.13867,-1.08398 -4.59961,0 -2.43164,1.08399 -2.19727,4.33594 -2.63671,-3.69141 -4.77539,-2.28516 -2.13867,1.43555 -1.875,4.51172 0.26368,3.07617 3.89649,6.15235 3.63281,3.10546 12.56836,2.7832 4.89258,-0.23438 8.84765,-4.54102 3.98438,-4.30664 4.77539,-10.19531 0.79102,-5.88867 -2.8125,-12.07031 -3.57421,-6.18164 -13.76953,-10.13672 v 0 q 1.02539,-3.33984 2.19727,-8.232423 1.17187,-4.921875 2.43164,-11.71875 0.52734,-1.376953 1.58203,-2.724609 1.08398,-1.376953 3.10547,-2.871094 2.31445,-2.021484 3.54492,-2.080078 1.23047,-0.05859 1.72852,1.025391 0.52734,1.083984 0.46875,2.929687 -0.0586,1.845703 -0.32227,3.691407 -0.41016,2.929687 -2.19726,5.390625 -1.78711,2.460937 -3.57422,3.808593 -1.78711,1.347657 -2.90039,1.259766 -1.08399,-0.08789 -0.11719,-2.226563 1.20117,-3.105468 0.99609,-3.691406 -0.17578,-0.615234 -0.8789,0.234375 -0.70313,0.820313 -1.43555,2.519531 -0.70313,1.699219 -0.55664,3.19336 0.35156,2.373047 2.46094,2.402344 2.13867,0.0293 4.6875,-1.78711 2.54882,-1.845703 4.86328,-5.24414 2.34375,-3.427735 3.07617,-7.96875 0.84961,-5.566407 -0.55664,-7.41211 -1.40625,-1.875 -3.8086,-1.49414 -2.37304,0.380859 -5.15625,2.285156 -2.7539,1.904297 -4.5996,3.867187 0.70312,-1.142578 0.17578,-1.845703 -0.52735,-0.703125 -1.43555,-0.966797 -0.9082,-0.292968 -1.78711,-0.175781 -0.87891,0.08789 -0.9082,0.615234 -0.49805,3.632813 -0.82032,5.888672 -0.29296,2.226563 -0.58593,4.189453 -0.26367,1.962891 -0.35157,2.314454 -0.55664,3.486328 -1.11328,6.65039 -0.52734,3.134769 -1.49414,7.089849 l -0.0879,-0.0293 q -2.05078,-1.08399 -6.47461,-1.11328 -4.42383,0 -9.02343,1.40625 -4.59961,1.40625 -8.32032,4.33593 -3.7207,2.95899 -4.36523,7.79297 -0.41016,3.51563 2.31445,6.88477 2.72461,3.36914 7.08985,4.04297 4.39453,0.70312 9.63867,-2.54883 5.24414,-3.25195 9.81445,-12.91992 z m -1.02539,-6.15235 q -0.11719,0.35157 -0.20508,0.73243 -1.11328,2.46093 -2.31445,5.18554 -1.17188,2.75391 -2.8125,5.33203 -1.61133,2.60743 -3.83789,4.83399 -2.22656,2.22656 -5.41992,3.6914 -2.05079,0.87891 -4.42383,0.20508 -2.34375,-0.67383 -4.13086,-2.37304 -1.78711,-1.66993 -2.57813,-4.13086 -0.79101,-2.46094 0.29297,-5.18555 1.25977,-3.42773 4.42383,-5.56641 3.19336,-2.10937 7.00195,-3.07617 3.8086,-0.9668 7.61719,-0.84961 3.83789,0.14649 6.38672,1.20117 z" />
      <path
         id="path34"
         style="font-family:Bigdey"
         d="m 284.04297,78.349609 q -0.49805,-1.992187 -2.75391,-0.527343 -2.25586,1.464843 -4.71679,4.628906 -2.46094,3.164062 -4.30665,7.11914 -1.8164,3.955079 -1.43554,6.94336 0.20508,1.582031 1.49414,1.787109 1.28906,0.175781 3.07617,-1.083984 1.81641,-1.289063 3.83789,-4.042969 2.05078,-2.783203 3.7793,-7.119141 1.46484,-4.423828 1.02539,-7.705078 z m -2.28516,-2.666015 q 4.57031,-0.439453 5.50781,3.83789 0.9668,4.277344 -0.82031,9.28711 -1.78711,4.980468 -5.91797,8.642578 -4.10156,3.632808 -9.69726,1.96289 -3.25196,-0.966796 -3.57422,-4.628906 -0.29297,-3.662109 1.46484,-7.734375 1.75782,-4.072265 5.21485,-7.470703 3.48632,-3.398437 7.82226,-3.896484 z" />
      <path
         id="path36"
         style="font-family:Bigdey"
         d="m 304.3457,74.423828 q 1.40625,0.380859 1.84571,1.992188 0.43945,1.582031 0.11718,2.958984 -0.29297,1.347656 -1.25976,1.728516 -0.9375,0.380859 -2.34375,-1.640625 -0.61524,-0.966797 -2.13867,0.439453 -1.49414,1.376953 -3.13477,3.925781 -1.64062,2.548828 -3.01758,5.625 -1.37695,3.076172 -1.72851,5.449219 -0.23438,2.021484 -0.90821,3.193359 -0.64453,1.142578 -1.31836,1.523438 -0.67382,0.380859 -1.17187,0.146484 -0.46875,-0.263672 -0.38086,-1.083984 0.0879,-0.966797 0.64453,-4.423829 0.58594,-3.486328 1.28906,-7.353515 0.73243,-3.867188 1.46485,-7.03125 0.73242,-3.19336 1.11328,-3.574219 0.35156,-0.439453 1.25976,-0.703125 0.90821,-0.263672 1.72852,-0.08789 0.82031,0.175782 1.25977,0.878907 0.43945,0.673828 -0.14649,2.080078 -0.23437,0.615234 -0.61523,1.376953 -0.38086,0.761719 -0.73243,1.552734 -0.35156,0.791016 -0.61523,1.552735 -0.23437,0.761718 -0.23437,1.347656 0.43945,-0.966797 1.40625,-2.666016 0.99609,-1.699218 2.22656,-3.310547 1.23047,-1.640625 2.63672,-2.8125 1.43554,-1.171875 2.7539,-1.083984 z" />
      <path
         id="path38"
         style="font-family:Bigdey"
         d="m 321.30859,76.181641 q 1.08399,0.498046 1.34766,1.582031 0.29297,1.054687 0.0293,1.96289 -0.23438,0.908204 -0.84961,1.31836 -0.58594,0.410156 -1.28907,-0.410156 -1.43554,-1.40625 -4.39453,1.083984 -2.95898,2.490234 -5.83007,6.09375 -2.8711,3.603516 -4.80469,7.001953 -1.9336,3.369141 -1.31836,3.720703 0.79101,0.732422 2.95898,-0.791015 2.16797,-1.523438 4.57032,-3.984375 2.40234,-2.490235 4.48242,-5.273438 2.08008,-2.8125 2.69531,-4.658203 0,-0.175781 0.17578,-0.234375 0.17578,-0.08789 0.17578,-0.292969 2.49024,-0.205078 2.31446,0.908203 -0.17579,1.083985 -1.25977,2.871094 -1.05469,1.787109 -2.16797,3.955078 -1.11328,2.138672 -0.49805,4.042969 0.35157,1.025391 0.82032,0.966797 0.49804,-0.05859 1.02539,-0.410156 0.52734,-0.351563 1.11328,-0.615235 0.61523,-0.263672 1.23047,0.322266 0.0879,1.113281 -1.17188,2.373047 -1.25976,1.259765 -2.7832,1.875 -1.52344,0.615236 -2.8125,0.234375 -1.25977,-0.38086 -1.25977,-2.578125 0,-0.9375 0,-1.669922 0,-0.732422 0,-1.494141 -4.33593,5.53711 -8.02734,7.148439 -3.66211,1.61133 -5.06836,-0.0879 -1.40625,-1.699221 0.20508,-6.474611 1.61133,-4.775391 7.85156,-12.128907 0.70313,-0.966796 2.25586,-2.402343 1.55273,-1.435547 3.39844,-2.578125 1.8457,-1.142578 3.6914,-1.640625 1.875,-0.527344 3.19336,0.263672 z" />
      <path
         id="path40"
         style="font-family:Bigdey"
         d="m 338.33008,83.007812 q -0.11719,-1.083984 -1.34766,-0.644531 -1.20117,0.410156 -2.87109,2.109375 -1.66992,1.669922 -3.45703,4.482422 -1.75782,2.8125 -2.92969,6.503906 -0.76172,2.021485 -1.08399,2.783203 -0.29296,0.761719 -1.49414,0.761719 -0.96679,0 -1.05468,-0.322265 -0.0586,-0.351563 0.14648,-1.31836 0.0879,-0.966797 0.70313,-3.544922 0.64453,-2.578125 1.43554,-5.478515 0.82032,-2.900391 1.64063,-5.53711 0.82031,-2.636718 1.31836,-3.75 0.43945,-1.318359 1.14258,-1.552734 0.73242,-0.234375 1.40625,0.0293 0.67382,0.263672 1.14257,0.791015 0.49805,0.527344 0.49805,0.732422 -0.11719,0.38086 -0.49805,1.31836 -0.38086,0.9375 -0.79101,1.933593 -0.38086,0.996094 -0.70313,1.845704 -0.29297,0.820312 -0.29297,1.02539 0.58594,-0.966797 1.61133,-2.373047 1.02539,-1.435547 2.28516,-2.666015 1.25976,-1.259766 2.66601,-2.080078 1.40625,-0.820313 2.72461,-0.615235 2.28516,0.38086 2.22657,2.929688 -0.0293,2.548828 -0.87891,5.830078 -0.82031,3.28125 -1.69922,6.591797 -0.84961,3.28125 -0.23437,5.185547 0.20507,0.380859 0.64453,0.966796 0.43945,0.585938 0.70312,1.142578 0.26367,0.58594 0.0879,1.08399 -0.14648,0.52734 -1.11328,0.76171 -0.82031,0.20508 -1.52344,-0.58593 -0.70312,-0.79102 -1.14257,-2.138676 -0.43946,-1.376953 -0.61524,-3.134765 -0.14648,-1.757813 0.0879,-3.486328 0.0879,-0.966797 0.32227,-2.285157 0.23437,-1.318359 0.46875,-2.666015 0.23437,-1.347657 0.38086,-2.578125 0.17578,-1.230469 0.0879,-2.050782 z" />
      <path
         id="path42"
         style="font-family:Bigdey"
         d="m 350.66406,99.326172 q 1.31836,0.117187 2.8711,-0.761719 1.58203,-0.908203 3.07617,-2.138672 1.49414,-1.259765 2.7539,-2.578125 1.25977,-1.318359 1.99219,-2.050781 0.43945,-0.175781 0.52735,-0.234375 0.0879,-0.08789 0.52734,0.351562 -0.82031,2.285157 -3.25195,4.716797 -2.43164,2.402344 -5.30274,3.779301 -2.8418,1.37695 -5.5664,1.20117 -2.69532,-0.17578 -4.10157,-3.076174 -0.99609,-1.669922 -0.76172,-3.925781 0.26368,-2.255859 1.14258,-4.511719 0.87891,-2.285156 2.13867,-4.277344 1.25977,-2.021484 2.28516,-3.251953 0.9668,-1.318359 2.28516,-2.666015 1.34765,-1.347657 2.84179,-2.519532 1.52344,-1.201171 3.16407,-2.138671 1.64062,-0.9375 3.22265,-1.435547 1.61133,-0.439453 2.66602,-0.0293 1.08398,0.410156 1.8457,2.402344 0.70313,2.021484 -0.11719,4.394531 -0.82031,2.34375 -2.66601,4.365234 -1.84571,2.021485 -4.57031,3.398438 -2.69532,1.376953 -5.77149,1.464843 -0.76172,0 -1.31836,0 -0.55664,-0.0293 -0.99609,-0.234375 -0.23438,0.615235 -0.76172,2.197266 -0.49805,1.552734 -0.76172,3.222656 -0.26367,1.669922 0,2.958985 0.26367,1.289062 1.58203,1.376953 0.43945,0 1.02539,0 z m 12.50977,-22.265625 q -0.11719,-0.439453 -0.61524,-0.527344 -0.49804,-0.117187 -1.05468,-0.0293 -0.55664,0.08789 -1.02539,0.292969 -0.46875,0.175781 -0.55665,0.263672 -2.87109,1.875 -5.24414,4.746094 -2.43164,2.90039 -4.33593,6.18164 1.99218,0 4.01367,-0.966797 2.02148,-0.966797 3.7793,-2.548828 1.75781,-1.582031 3.07617,-3.515625 1.34765,-1.96289 1.96289,-3.896484 z" />
      <path
         id="path44"
         style="font-family:Bigdey"
         d="m 385.05859,76.181641 q 1.08399,0.498046 1.34766,1.582031 0.29297,1.054687 0.0293,1.96289 -0.23438,0.908204 -0.84961,1.31836 -0.58594,0.410156 -1.28907,-0.410156 -1.43554,-1.40625 -4.39453,1.083984 -2.95898,2.490234 -5.83007,6.09375 -2.8711,3.603516 -4.80469,7.001953 -1.9336,3.369141 -1.31836,3.720703 0.79101,0.732422 2.95898,-0.791015 2.16797,-1.523438 4.57032,-3.984375 2.40234,-2.490235 4.48242,-5.273438 2.08008,-2.8125 2.69531,-4.658203 0,-0.175781 0.17578,-0.234375 0.17578,-0.08789 0.17578,-0.292969 2.49024,-0.205078 2.31446,0.908203 -0.17579,1.083985 -1.25977,2.871094 -1.05469,1.787109 -2.16797,3.955078 -1.11328,2.138672 -0.49805,4.042969 0.35157,1.025391 0.82032,0.966797 0.49804,-0.05859 1.02539,-0.410156 0.52734,-0.351563 1.11328,-0.615235 0.61523,-0.263672 1.23047,0.322266 0.0879,1.113281 -1.17188,2.373047 -1.25976,1.259765 -2.7832,1.875 -1.52344,0.615236 -2.8125,0.234375 -1.25977,-0.38086 -1.25977,-2.578125 0,-0.9375 0,-1.669922 0,-0.732422 0,-1.494141 -4.33593,5.53711 -8.02734,7.148439 -3.66211,1.61133 -5.06836,-0.0879 -1.40625,-1.699221 0.20508,-6.474611 1.61133,-4.775391 7.85156,-12.128907 0.70313,-0.966796 2.25586,-2.402343 1.55273,-1.435547 3.39844,-2.578125 1.8457,-1.142578 3.6914,-1.640625 1.875,-0.527344 3.19336,0.263672 z" />
    </g>
  </g>
</svg>
