<?xml version="1.0" encoding="UTF-8" standalone="no"?>
<svg
   xmlns:dc="http://purl.org/dc/elements/1.1/"
   xmlns:cc="http://creativecommons.org/ns#"
   xmlns:rdf="http://www.w3.org/1999/02/22-rdf-syntax-ns#"
   xmlns:svg="http://www.w3.org/2000/svg"
   xmlns="http://www.w3.org/2000/svg"
   id="svg16"
   width="800px"
   version="1.1"
   height="200px">
  <metadata
     id="metadata20">
    <rdf:RDF>
      <cc:Work
         rdf:about="">
        <dc:format>image/svg+xml</dc:format>
        <dc:type
           rdf:resource="http://purl.org/dc/dcmitype/StillImage" />
      </cc:Work>
    </rdf:RDF>
  </metadata>
  <defs
     id="defs4">
    <style
       id="style2"
       type="text/css"><![CDATA[    
     @font-face {font-family:Biko;
     src: url('/Users/francesco/Repos/write-logos/src/fonts/Fonts_E_TEMPORANEA/Biko_Black.otf');}
     @font-face {font-family:Brandon;
     src: url('/Users/francesco/Repos/write-logos/src/fonts/Fonts_X/BrandonFree.ttf');}
     ]]></style>
  </defs>
  <g
     id="g14"
     style="font-size:60px">
    <g
       style="text-anchor:middle"
       id="text12"
       aria-label="EXTEMPORANEA">
      <path
         id="path22"
         style="font-family:Biko;letter-spacing:0.075em"
         d="m 141.75156,100 h 28.68 V 89.68 h -18.24 v -8.16 h 16.32 V 71.14 h -16.32 v -3.66 h 18.66 v -10.2 h -29.1 z" />
      <path
         id="path24"
         style="font-family:Brandon;letter-spacing:0.05em"
         d="m 177.61914,70.615234 v 0 0 q -0.32227,-0.55664 0.32227,-1.611328 0.67382,-1.054687 1.75781,-2.138672 1.08398,-1.113281 1.99219,-1.816406 0.9082,-0.703125 1.08398,-0.556641 3.22266,4.482422 6.91406,8.613282 0.64453,0.703125 1.28907,1.464843 2.49023,3.046875 5.41992,5.595704 0.9082,0.732421 1.90429,1.40625 1.08399,0.732421 2.10938,1.582031 0.9375,0.820312 1.78711,1.757812 0.79101,0.84961 1.66992,1.611328 1.20117,0.996094 2.60742,1.757813 2.49024,1.201172 3.95508,3.457031 0.20508,0.439453 -0.0879,1.054688 -0.29297,0.615234 -0.76172,1.230468 -0.46875,0.615235 -0.84961,1.025391 -0.14648,0.175781 -0.26367,0.263672 -0.0879,0.117187 -0.52734,0.615234 -0.43946,0.46875 -1.02539,0.996094 -0.55665,0.527344 -1.0254,0.849609 -0.46875,0.322266 -0.61523,0.117188 -1.46484,-2.285156 -3.98437,-3.457031 -1.37696,-0.791016 -2.57813,-1.757813 -0.87891,-0.791015 -1.69922,-1.640625 -0.84961,-0.908203 -1.75781,-1.757812 -1.02539,-0.820313 -2.10938,-1.582032 -0.96679,-0.644531 -1.90429,-1.376953 -2.92969,-2.578125 -5.41992,-5.595703 -0.64454,-0.761719 -1.28907,-1.49414 -3.6914,-4.101563 -6.91406,-8.613282 z m 27.53906,-3.574218 v 0 0 q 0.0586,-0.05859 0.11719,-0.175782 0.32227,-0.439453 0.9668,-1.230468 0.67383,-0.820313 1.37695,-1.464844 0.70313,-0.644531 1.14258,-0.556641 0.43945,0.146485 0.26367,0.703125 -0.17578,0.527344 -0.58594,1.113281 -0.38086,0.556641 -0.64453,0.878907 -0.0293,0.05859 -0.0586,0.08789 -11.95313,15.585938 -24.72656,30.527344 0,0 -0.0293,0.05859 -0.23438,0.292969 -0.87891,0.996094 -0.61523,0.673828 -1.28906,1.201171 -0.64453,0.498047 -0.99609,0.292969 -0.26368,-0.292969 0.11718,-1.02539 0.41016,-0.761719 0.9961,-1.494141 0.58593,-0.732422 0.82031,-1.025391 0.0293,-0.0293 0.0293,-0.0293 12.07031,-14.121093 23.3789,-28.857421 z" />
      <path
         id="path26"
         style="font-family:Biko;letter-spacing:0.075em"
         d="m 224.43531,100 h 10.38 V 67.6 h 9.78 V 57.28 h -29.94 V 67.6 h 9.78 z" />
      <path
         id="path28"
         style="font-family:Biko;letter-spacing:0.075em"
         d="m 256.17344,100 h 28.68 V 89.68 h -18.24 v -8.16 h 16.32 V 71.14 h -16.32 v -3.66 h 18.66 v -10.2 h -29.1 z" />
      <path
         id="path30"
         style="font-family:Biko;letter-spacing:0.075em"
         d="M 336.1075,100 V 57.28 h -9.24 l -10.02,13.8 -10.02,-13.8 h -9.24 V 100 h 10.38 V 76.36 l 8.88,12.18 c 2.46,-3.42 5.76,-7.86 8.94,-12.18 V 100 Z" />
      <path
         id="path32"
         style="font-family:Biko;letter-spacing:0.075em"
         d="m 350.52344,100 h 10.38 V 81.58 h 5.4 c 6.36,0 11.7,-5.7 11.7,-12.18 0,-3.12 -1.26,-6.48 -3.42,-8.7 -2.22,-2.16 -5.16,-3.42 -8.28,-3.42 h -15.78 z m 15.78,-28.68 h -5.4 v -3.78 h 5.4 c 0.72,0 1.26,1.08 1.26,1.86 0,0.78 -0.54,1.92 -1.26,1.92 z" />
      <path
         id="path34"
         style="font-family:Biko;letter-spacing:0.075em"
         d="m 408.74781,56.14 c -12.24,0 -22.2,9.96 -22.2,22.26 0,12.18 9.96,22.14 22.2,22.14 12.18,0 22.26,-9.96 22.26,-22.14 0,-12.3 -10.08,-22.26 -22.26,-22.26 z m 0,34.08 c -6.54,0 -11.82,-5.34 -11.82,-11.82 0,-6.54 5.28,-12 11.82,-12 6.54,0 11.76,5.46 11.76,12 0,6.48 -5.22,11.82 -11.76,11.82 z" />
      <path
         id="path36"
         style="font-family:Biko;letter-spacing:0.075em"
         d="m 463.56344,79.48 c 3.18,-2.04 5.16,-6 5.16,-10.08 0,-3.12 -1.26,-6.48 -3.42,-8.7 -2.16,-2.16 -5.1,-3.42 -8.22,-3.42 h -15.66 V 100 h 10.14 V 81.52 h 0.96 l 14.16,18.48 h 12.42 z m -12,-12 h 5.52 c 0.84,0 1.44,1.08 1.44,1.92 0,0.84 -0.6,1.92 -1.44,1.92 h -5.52 z" />
      <path
         id="path38"
         style="font-family:Biko;letter-spacing:0.075em"
         d="m 515.18781,100 h 11.22 l -16.5,-42.72 h -8.76 l -16.44,42.72 h 11.04 l 3.78,-9.72 h 12 z m -7.68,-19.92 h -4.02 l 2.04,-6.24 z" />
      <path
         id="path40"
         style="font-family:Biko;letter-spacing:0.075em"
         d="m 561.27813,100 h 9.47999 V 57.28 h -10.44 V 80.02 L 545.01813,57.28 h -9.54001 V 100 h 10.44001 V 77.14 Z" />
      <path
         id="path42"
         style="font-family:Biko;letter-spacing:0.075em"
         d="m 584.04062,100 h 28.68001 V 89.68 h -18.24 v -8.16 h 16.31999 V 71.14 h -16.31999 v -3.66 h 18.65999 v -10.2 h -29.1 z" />
      <path
         id="path44"
         style="font-family:Biko;letter-spacing:0.075em"
         d="m 651.26594,100 h 11.22 l -16.5,-42.72 h -8.76 l -16.44,42.72 h 11.04 l 3.78,-9.72 h 12 z m -7.68,-19.92 h -4.02 l 2.04,-6.24 z" />
    </g>
  </g>
</svg>
