<?xml version="1.0" encoding="UTF-8" standalone="no"?>
<svg
   xmlns:dc="http://purl.org/dc/elements/1.1/"
   xmlns:cc="http://creativecommons.org/ns#"
   xmlns:rdf="http://www.w3.org/1999/02/22-rdf-syntax-ns#"
   xmlns:svg="http://www.w3.org/2000/svg"
   xmlns="http://www.w3.org/2000/svg"
   id="svg16"
   width="800px"
   version="1.1"
   height="200px">
  <metadata
     id="metadata20">
    <rdf:RDF>
      <cc:Work
         rdf:about="">
        <dc:format>image/svg+xml</dc:format>
        <dc:type
           rdf:resource="http://purl.org/dc/dcmitype/StillImage" />
      </cc:Work>
    </rdf:RDF>
  </metadata>
  <defs
     id="defs4">
    <style
       id="style2"
       type="text/css"><![CDATA[    
     @font-face {font-family:Biko;
     src: url('/Users/francesco/Repos/write-logos/src/fonts/Fonts_E_TEMPORANEA/Biko_Black.otf');}
     @font-face {font-family:lift me up;
     src: url('/Users/francesco/Repos/write-logos/src/fonts/Fonts_X/liftmeup.ttf');}
     ]]></style>
  </defs>
  <g
     id="g14"
     style="font-size:60px">
    <g
       style="text-anchor:middle"
       id="text12"
       aria-label="EXTEMPORANEA">
      <path
         id="path22"
         style="font-family:Biko;letter-spacing:0.075em"
         d="m 131.0875,100 h 28.68 V 89.68 h -18.24 v -8.16 h 16.32 V 71.14 h -16.32 v -3.66 h 18.66 v -10.2 h -29.1 z" />
      <path
         id="path24"
         style="font-family:'lift me up';letter-spacing:0.05em"
         d="m 176.23281,53.26 12.6,16.98 -0.84,1.14 -13.5,-18.12 z m 16.02,21.6 3,-4.08 0.84,1.14 -3,3.96 3,4.08 -0.84,1.14 -3,-4.14 -2.64,3.54 -0.78,-1.08 2.58,-3.54 -2.58,-3.42 0.84,-1.08 z m 16.86,25.08 -13.02,-17.76 0.84,-1.08 13.86,18.84 z m -35.58,0 14.46,-19.38 0.78,1.02 -13.62,18.36 z m 36.48,-46.68 -13.08,17.52 -0.84,-1.08 12.24,-16.44 z m 6.84,46.68 -16.92,-22.98 -3,4.14 -0.84,-1.14 3,-4.08 -3,-3.96 0.84,-1.14 3,4.08 16.14,-21.6 h 1.62 l -16.86,22.62 17.64,24.06 z m -24.18,-15.3 2.58,-3.54 0.84,1.08 -2.64,3.54 z m 2.58,-13.86 -2.58,-3.48 0.84,-1.14 2.58,3.54 z m -11.28,-17.52 8.7,11.76 -0.84,1.14 -9.6,-12.9 z m -2.7,46.68 10.56,-14.22 0.78,1.14 -9.72,13.08 z m 8.34,-19.44 3.06,4.14 -0.84,1.08 -3.06,-4.14 z m 3.06,-13.2 -3,4.08 -0.84,-1.14 3,-4.08 z m -6.42,8.58 2.58,3.54 -0.84,1.14 -2.64,-3.6 -17.04,22.98 h -1.62 l 17.82,-24.06 -16.92,-22.62 h 1.74 l 16.02,21.6 2.64,-3.48 0.84,1.08 z m 16.02,24.06 -9.66,-13.08 0.84,-1.14 10.44,14.22 z m 0.84,-46.68 -9.6,12.9 -0.84,-1.14 8.82,-11.76 z" />
      <path
         id="path26"
         style="font-family:Biko;letter-spacing:0.075em"
         d="m 235.09937,100 h 10.38 V 67.6 h 9.78 V 57.28 h -29.94 V 67.6 h 9.78 z" />
      <path
         id="path28"
         style="font-family:Biko;letter-spacing:0.075em"
         d="m 266.8375,100 h 28.68 V 89.68 h -18.24 v -8.16 h 16.32 V 71.14 h -16.32 v -3.66 h 18.66 v -10.2 h -29.1 z" />
      <path
         id="path30"
         style="font-family:Biko;letter-spacing:0.075em"
         d="M 346.77156,100 V 57.28 h -9.24 l -10.02,13.8 -10.02,-13.8 h -9.24 V 100 h 10.38 V 76.36 l 8.88,12.18 c 2.46,-3.42 5.76,-7.86 8.94,-12.18 V 100 Z" />
      <path
         id="path32"
         style="font-family:Biko;letter-spacing:0.075em"
         d="m 361.1875,100 h 10.38 V 81.58 h 5.4 c 6.36,0 11.7,-5.7 11.7,-12.18 0,-3.12 -1.26,-6.48 -3.42,-8.7 -2.22,-2.16 -5.16,-3.42 -8.28,-3.42 h -15.78 z m 15.78,-28.68 h -5.4 v -3.78 h 5.4 c 0.72,0 1.26,1.08 1.26,1.86 0,0.78 -0.54,1.92 -1.26,1.92 z" />
      <path
         id="path34"
         style="font-family:Biko;letter-spacing:0.075em"
         d="m 419.41187,56.14 c -12.24,0 -22.19999,9.96 -22.19999,22.26 0,12.18 9.95999,22.14 22.19999,22.14 12.18001,0 22.26,-9.96 22.26,-22.14 0,-12.3 -10.07999,-22.26 -22.26,-22.26 z m 0,34.08 c -6.54,0 -11.81999,-5.34 -11.81999,-11.82 0,-6.54 5.27999,-12 11.81999,-12 6.54,0 11.76,5.46 11.76,12 0,6.48 -5.22,11.82 -11.76,11.82 z" />
      <path
         id="path36"
         style="font-family:Biko;letter-spacing:0.075em"
         d="m 474.2275,79.48 c 3.18,-2.04 5.16,-6 5.16,-10.08 0,-3.12 -1.26,-6.48 -3.42,-8.7 -2.16,-2.16 -5.1,-3.42 -8.22,-3.42 h -15.66 V 100 h 10.14 V 81.52 h 0.96 l 14.16,18.48 h 12.42 z m -12,-12 h 5.52 c 0.84,0 1.44,1.08 1.44,1.92 0,0.84 -0.6,1.92 -1.44,1.92 h -5.52 z" />
      <path
         id="path38"
         style="font-family:Biko;letter-spacing:0.075em"
         d="m 525.85187,100 h 11.22 l -16.5,-42.72 h -8.76 l -16.44,42.72 h 11.04 l 3.78,-9.72 h 12 z m -7.68,-19.92 h -4.01999 l 2.03999,-6.24 z" />
      <path
         id="path40"
         style="font-family:Biko;letter-spacing:0.075em"
         d="m 571.94219,100 h 9.48 V 57.28 h -10.44 v 22.74 l -15.3,-22.74 h -9.54 V 100 h 10.44 V 77.14 Z" />
      <path
         id="path42"
         style="font-family:Biko;letter-spacing:0.075em"
         d="m 594.70469,100 h 28.68 V 89.68 h -18.24 v -8.16 h 16.32 V 71.14 h -16.32 v -3.66 h 18.66 v -10.2 h -29.1 z" />
      <path
         id="path44"
         style="font-family:Biko;letter-spacing:0.075em"
         d="m 661.93,100 h 11.22 l -16.5,-42.72 h -8.76 L 631.45,100 h 11.04 l 3.78,-9.72 h 12 z m -7.68,-19.92 h -4.02 l 2.04,-6.24 z" />
    </g>
  </g>
</svg>
