<?xml version="1.0" encoding="UTF-8" standalone="no"?>
<svg
   xmlns:dc="http://purl.org/dc/elements/1.1/"
   xmlns:cc="http://creativecommons.org/ns#"
   xmlns:rdf="http://www.w3.org/1999/02/22-rdf-syntax-ns#"
   xmlns:svg="http://www.w3.org/2000/svg"
   xmlns="http://www.w3.org/2000/svg"
   id="svg16"
   width="800px"
   version="1.1"
   height="200px">
  <metadata
     id="metadata20">
    <rdf:RDF>
      <cc:Work
         rdf:about="">
        <dc:format>image/svg+xml</dc:format>
        <dc:type
           rdf:resource="http://purl.org/dc/dcmitype/StillImage" />
      </cc:Work>
    </rdf:RDF>
  </metadata>
  <defs
     id="defs4">
    <style
       id="style2"
       type="text/css"><![CDATA[    
     @font-face {font-family:Biko;
     src: url('/Users/francesco/Repos/write-logos/src/fonts/Fonts_E_TEMPORANEA/Biko_Black.otf');}
     @font-face {font-family:Modak;
     src: url('/Users/francesco/Repos/write-logos/src/fonts/Fonts_X/Modak-Regular.ttf');}
     ]]></style>
  </defs>
  <g
     id="g14"
     style="font-size:60px">
    <g
       style="text-anchor:middle"
       id="text12"
       aria-label="EXTEMPORANEA">
      <path
         id="path22"
         style="font-family:Biko;letter-spacing:0.075em"
         d="m 139.58359,100 h 28.68 V 89.68 h -18.24 v -8.16 h 16.32 V 71.14 h -16.32 v -3.66 h 18.66 v -10.2 h -29.1 z" />
      <path
         id="path24"
         style="font-family:Modak;letter-spacing:0.05em"
         d="m 194.23047,93.115234 -3.39844,6.621094 q -2.19726,0.820312 -4.77539,0.820312 -4.54102,0 -7.44141,-2.578124 -2.90039,-2.578125 -2.90039,-6.94336 0,-3.867187 2.60743,-6.884765 2.60742,-3.017579 7.38281,-5.06836 -0.35156,-0.966797 -1.20117,-0.966797 -0.84961,0 -3.10547,1.552735 -2.19727,-1.142578 -3.86719,-3.779297 -1.64063,-2.636719 -1.64063,-6.09375 0,-3.457031 2.54883,-5.917969 2.54883,-2.460937 7.03125,-2.460937 3.86719,0 6.35742,1.435546 l 3.10547,6.181641 2.51953,-6.328125 q 2.49024,-1.113281 5.56641,-1.113281 4.36524,0 7.08984,2.402344 2.72461,2.460937 2.72461,6.884765 0,3.66211 -2.63671,6.884766 -2.60743,3.193359 -6.70899,5.068359 0.32227,0.84961 1.14258,0.84961 0.84961,0 2.72461,-1.289063 l 6.03515,7.558594 q 0,4.716797 -2.34375,7.529297 -2.57812,3.105471 -7.11914,3.105471 -6.91406,0 -9.69726,-7.470706 z" />
      <path
         id="path26"
         style="font-family:Biko;letter-spacing:0.075em"
         d="m 226.60328,100 h 10.38 V 67.6 h 9.78 V 57.28 h -29.94 V 67.6 h 9.78 z" />
      <path
         id="path28"
         style="font-family:Biko;letter-spacing:0.075em"
         d="m 258.34141,100 h 28.68 V 89.68 h -18.24 v -8.16 h 16.32 V 71.14 h -16.32 v -3.66 h 18.66 v -10.2 h -29.1 z" />
      <path
         id="path30"
         style="font-family:Biko;letter-spacing:0.075em"
         d="M 338.27547,100 V 57.28 h -9.24 l -10.02,13.8 -10.02,-13.8 h -9.24 V 100 h 10.38 V 76.36 l 8.88,12.18 c 2.46,-3.42 5.76,-7.86 8.94,-12.18 V 100 Z" />
      <path
         id="path32"
         style="font-family:Biko;letter-spacing:0.075em"
         d="m 352.69141,100 h 10.38 V 81.58 h 5.4 c 6.36,0 11.7,-5.7 11.7,-12.18 0,-3.12 -1.26,-6.48 -3.42,-8.7 -2.22,-2.16 -5.16,-3.42 -8.28,-3.42 h -15.78 z m 15.78,-28.68 h -5.4 v -3.78 h 5.4 c 0.72,0 1.26,1.08 1.26,1.86 0,0.78 -0.54,1.92 -1.26,1.92 z" />
      <path
         id="path34"
         style="font-family:Biko;letter-spacing:0.075em"
         d="m 410.91578,56.14 c -12.24,0 -22.2,9.96 -22.2,22.26 0,12.18 9.96,22.14 22.2,22.14 12.18,0 22.26,-9.96 22.26,-22.14 0,-12.3 -10.08,-22.26 -22.26,-22.26 z m 0,34.08 c -6.54,0 -11.82,-5.34 -11.82,-11.82 0,-6.54 5.28,-12 11.82,-12 6.54,0 11.76,5.46 11.76,12 0,6.48 -5.22,11.82 -11.76,11.82 z" />
      <path
         id="path36"
         style="font-family:Biko;letter-spacing:0.075em"
         d="m 465.73141,79.48 c 3.18,-2.04 5.16,-6 5.16,-10.08 0,-3.12 -1.26,-6.48 -3.42,-8.7 -2.16,-2.16 -5.1,-3.42 -8.22,-3.42 h -15.66 V 100 h 10.14 V 81.52 h 0.96 l 14.16,18.48 h 12.42 z m -12,-12 h 5.52 c 0.84,0 1.44,1.08 1.44,1.92 0,0.84 -0.6,1.92 -1.44,1.92 h -5.52 z" />
      <path
         id="path38"
         style="font-family:Biko;letter-spacing:0.075em"
         d="m 517.35578,100 h 11.22 l -16.5,-42.72 h -8.76 l -16.44,42.72 h 11.04 l 3.78,-9.72 h 12 z m -7.68,-19.92 h -4.02 l 2.04,-6.24 z" />
      <path
         id="path40"
         style="font-family:Biko;letter-spacing:0.075em"
         d="m 563.44609,100 h 9.48 V 57.28 h -10.44 v 22.74 l -15.3,-22.74 h -9.54 V 100 h 10.44 V 77.14 Z" />
      <path
         id="path42"
         style="font-family:Biko;letter-spacing:0.075em"
         d="m 586.20859,100 h 28.68 V 89.68 h -18.24 v -8.16 h 16.32 V 71.14 h -16.32 v -3.66 h 18.66 v -10.2 h -29.1 z" />
      <path
         id="path44"
         style="font-family:Biko;letter-spacing:0.075em"
         d="m 653.43391,100 h 11.22 l -16.5,-42.72 h -8.76 l -16.44,42.72 h 11.04 l 3.78,-9.72 h 12 z m -7.68,-19.92 h -4.02 l 2.04,-6.24 z" />
    </g>
  </g>
</svg>
