<?xml version="1.0" encoding="UTF-8" standalone="no"?>
<svg
   xmlns:dc="http://purl.org/dc/elements/1.1/"
   xmlns:cc="http://creativecommons.org/ns#"
   xmlns:rdf="http://www.w3.org/1999/02/22-rdf-syntax-ns#"
   xmlns:svg="http://www.w3.org/2000/svg"
   xmlns="http://www.w3.org/2000/svg"
   id="svg16"
   width="800px"
   version="1.1"
   height="200px">
  <metadata
     id="metadata20">
    <rdf:RDF>
      <cc:Work
         rdf:about="">
        <dc:format>image/svg+xml</dc:format>
        <dc:type
           rdf:resource="http://purl.org/dc/dcmitype/StillImage" />
      </cc:Work>
    </rdf:RDF>
  </metadata>
  <defs
     id="defs4">
    <style
       id="style2"
       type="text/css"><![CDATA[    
     @font-face {font-family:Biko;
     src: url('/Users/francesco/Repos/write-logos/src/fonts/Fonts_E_TEMPORANEA/Biko_Black.otf');}
     @font-face {font-family:Arsenale Blue;
     src: url('/Users/francesco/Repos/write-logos/src/fonts/Fonts_X/arsenaleblue.ttf');}
     ]]></style>
  </defs>
  <g
     id="g14"
     style="font-size:60px">
    <g
       style="text-anchor:middle"
       id="text12"
       aria-label="EXTEMPORANEA">
      <path
         id="path22"
         style="font-family:Biko;letter-spacing:0.075em"
         d="m 136.88828,100 h 28.68 V 89.68 h -18.24 v -8.16 h 16.32 V 71.14 h -16.32 v -3.66 h 18.66 v -10.2 h -29.1 z" />
      <path
         id="path24"
         style="font-family:'Arsenale Blue';letter-spacing:0.05em"
         d="m 213.59359,91 q 0.18,1.38 0.18,2.88 0,3.24 -1.2,5.22 -1.14,1.92 -3.78,2.64 -1.8,0 -6.06,-3.6 -4.26,-3.66 -11.22,-10.8 -7.5,-7.62 -11.04,-11.4 -3.48,-3.84 -3.48,-3.72 -0.72,-2.76 -0.72,-4.74 0,-2.82 1.2,-4.44 1.26,-1.68 4.14,-1.68 3,0 6.3,1.32 3.36,1.26 6.66,3.48 3.3,2.22 6.36,5.16 3.06,2.94 5.58,6.24 2.58,3.24 4.38,6.66 1.86,3.36 2.64,6.54 z m -21.12,-0.06 q 0,1.98 -1.14,3.9 -1.08,1.86 -2.76,3.36 -1.62,1.5 -3.48,2.4 -1.8,0.96 -3.24,0.96 -0.84,0 -1.68,-0.24 -0.84,-0.24 -1.68,-0.9 -0.12,0 -0.9,-0.48 -0.72,-0.54 -1.56,-1.32 -0.84,-0.84 -1.56,-1.86 -0.66,-1.02 -0.66,-2.16 0,-2.04 1.62,-4.92 0.72,-1.02 1.62,-2.16 0.9,-1.14 1.92,-2.1 1.08,-1.02 2.28,-1.62 1.2,-0.66 2.58,-0.66 1.38,0 2.82,0.78 1.44,0.72 3,2.58 0.42,0.48 0.9,0.96 0.54,0.48 0.96,0.96 0.42,0.48 0.66,1.02 0.3,0.48 0.3,1.08 z m 7.32,-22.74 q 0,-1.38 0.78,-2.76 0.84,-1.38 1.98,-2.46 1.2,-1.08 2.52,-1.74 1.38,-0.72 2.4,-0.72 1.32,0 2.4,0.84 0.12,0 0.66,0.36 0.54,0.36 1.14,0.96 0.66,0.6 1.14,1.38 0.48,0.72 0.48,1.5 0,0.6 -0.54,1.98 -0.54,1.38 -1.5,2.76 -0.9,1.38 -2.28,2.46 -1.32,1.08 -2.94,1.08 -1.02,0 -2.1,-0.54 -1.02,-0.54 -2.1,-1.86 -0.66,-0.78 -1.38,-1.44 -0.66,-0.66 -0.66,-1.5 z" />
      <path
         id="path26"
         style="font-family:Biko;letter-spacing:0.075em"
         d="m 229.29859,100 h 10.38 V 67.6 h 9.78 V 57.28 h -29.94 V 67.6 h 9.78 z" />
      <path
         id="path28"
         style="font-family:Biko;letter-spacing:0.075em"
         d="m 261.03672,100 h 28.68 V 89.68 h -18.24 v -8.16 h 16.32 V 71.14 h -16.32 v -3.66 h 18.66 v -10.2 h -29.1 z" />
      <path
         id="path30"
         style="font-family:Biko;letter-spacing:0.075em"
         d="M 340.97078,100 V 57.28 h -9.24 l -10.02,13.8 -10.02,-13.8 h -9.24 V 100 h 10.38 V 76.36 l 8.88,12.18 c 2.46,-3.42 5.76,-7.86 8.94,-12.18 V 100 Z" />
      <path
         id="path32"
         style="font-family:Biko;letter-spacing:0.075em"
         d="m 355.38672,100 h 10.38 V 81.58 h 5.4 c 6.36,0 11.7,-5.7 11.7,-12.18 0,-3.12 -1.26,-6.48 -3.42,-8.7 -2.22,-2.16 -5.16,-3.42 -8.28,-3.42 h -15.78 z m 15.78,-28.68 h -5.4 v -3.78 h 5.4 c 0.72,0 1.26,1.08 1.26,1.86 0,0.78 -0.54,1.92 -1.26,1.92 z" />
      <path
         id="path34"
         style="font-family:Biko;letter-spacing:0.075em"
         d="m 413.61109,56.14 c -12.24,0 -22.2,9.96 -22.2,22.26 0,12.18 9.96,22.14 22.2,22.14 12.18,0 22.26,-9.96 22.26,-22.14 0,-12.3 -10.08,-22.26 -22.26,-22.26 z m 0,34.08 c -6.54,0 -11.82,-5.34 -11.82,-11.82 0,-6.54 5.28,-12 11.82,-12 6.54,0 11.76,5.46 11.76,12 0,6.48 -5.22,11.82 -11.76,11.82 z" />
      <path
         id="path36"
         style="font-family:Biko;letter-spacing:0.075em"
         d="m 468.42672,79.48 c 3.18,-2.04 5.16,-6 5.16,-10.08 0,-3.12 -1.26,-6.48 -3.42,-8.7 -2.16,-2.16 -5.1,-3.42 -8.22,-3.42 h -15.66 V 100 h 10.14 V 81.52 h 0.96 l 14.16,18.48 h 12.42 z m -12,-12 h 5.52 c 0.84,0 1.44,1.08 1.44,1.92 0,0.84 -0.6,1.92 -1.44,1.92 h -5.52 z" />
      <path
         id="path38"
         style="font-family:Biko;letter-spacing:0.075em"
         d="m 520.05109,100 h 11.22 l -16.5,-42.72 h -8.76 l -16.44,42.72 h 11.04 l 3.78,-9.72 h 12 z m -7.68,-19.92 h -4.02 l 2.04,-6.24 z" />
      <path
         id="path40"
         style="font-family:Biko;letter-spacing:0.075em"
         d="m 566.14141,100 h 9.48 V 57.28 h -10.44 v 22.74 l -15.3,-22.74 h -9.54 V 100 h 10.44 V 77.14 Z" />
      <path
         id="path42"
         style="font-family:Biko;letter-spacing:0.075em"
         d="m 588.90391,100 h 28.68 V 89.68 h -18.24 v -8.16 h 16.32 V 71.14 h -16.32 v -3.66 h 18.66 v -10.2 h -29.1 z" />
      <path
         id="path44"
         style="font-family:Biko;letter-spacing:0.075em"
         d="m 656.12922,100 h 11.22 l -16.5,-42.72 h -8.76 l -16.44,42.72 h 11.04 l 3.78,-9.72 h 12 z m -7.68,-19.92 h -4.02 l 2.04,-6.24 z" />
    </g>
  </g>
</svg>
