<?xml version="1.0" encoding="UTF-8" standalone="no"?>
<svg
   xmlns:dc="http://purl.org/dc/elements/1.1/"
   xmlns:cc="http://creativecommons.org/ns#"
   xmlns:rdf="http://www.w3.org/1999/02/22-rdf-syntax-ns#"
   xmlns:svg="http://www.w3.org/2000/svg"
   xmlns="http://www.w3.org/2000/svg"
   id="svg16"
   width="800px"
   version="1.1"
   height="200px">
  <metadata
     id="metadata20">
    <rdf:RDF>
      <cc:Work
         rdf:about="">
        <dc:format>image/svg+xml</dc:format>
        <dc:type
           rdf:resource="http://purl.org/dc/dcmitype/StillImage" />
      </cc:Work>
    </rdf:RDF>
  </metadata>
  <defs
     id="defs4">
    <style
       id="style2"
       type="text/css"><![CDATA[    
     @font-face {font-family:BioRhyme ExtraBold;
     src: url('/Users/francesco/Repos/write-logos/src/fonts/Fonts_E_TEMPORANEA/BioRhyme-ExtraBold.ttf');}
     @font-face {font-family:MADE Soulmaze Outline;
     src: url('/Users/francesco/Repos/write-logos/src/fonts/Fonts_X/MADE_Outline.otf');}
     ]]></style>
  </defs>
  <g
     id="g14"
     style="font-size:60px">
    <g
       style="text-anchor:middle"
       id="text12"
       aria-label="EXTEMPORANEA">
      <path
         id="path22"
         style="font-family:'BioRhyme ExtraBold';letter-spacing:0.075em"
         d="M 109.30469,74.14 V 66.46 H 91.484688 v 10.02 h 6.3 v -4.74 h 7.140002 v 16.32 h -7.140002 v -4.74 h -6.3 v 9.06 H 109.30469 V 84.7 h 8.46 V 100 H 75.284688 v -7.62 h 6.659999 V 66.46 h -6.659999 v -7.62 h 42.480002 v 15.3 z" />
      <path
         id="path24"
         style="font-family:'MADE Soulmaze Outline';letter-spacing:0.05em"
         d="M 164.30312,78.16 173.18313,58 h -18.18001 l -4.08,13.68 h -0.54 l -4.08,-13.68 h -18.18 l 8.88,20.16 -9.48,21.84 h 18.78 l 4.08,-13.68 h 0.54 l 4.08,13.68 h 18.78 z m -12.96,7.62 h -1.38 l -4.08,13.62 h -17.52 l 9.24,-21.24 -8.64,-19.62 h 16.92 l 4.08,13.68 h 1.38 l 4.08,-13.68 h 16.92 l -8.64,19.62 9.24,21.24 h -17.52 z" />
      <path
         id="path26"
         style="font-family:'BioRhyme ExtraBold';letter-spacing:0.075em"
         d="m 223.9675,58.84 v 15.84 h -8.46 v -8.22 h -8.76 v 25.92 h 6.54 V 100 h -22.86 v -7.62 h 6.6 V 66.46 h -8.82 v 8.22 h -8.46 V 58.84 Z" />
      <path
         id="path28"
         style="font-family:'BioRhyme ExtraBold';letter-spacing:0.075em"
         d="m 266.03125,74.14 v -7.68 h -17.82 v 10.02 h 6.3 v -4.74 h 7.14 v 16.32 h -7.14 v -4.74 h -6.3 v 9.06 h 17.82 V 84.7 h 8.46 V 100 h -42.48 v -7.62 h 6.66 V 66.46 h -6.66 v -7.62 h 42.48 v 15.3 z" />
      <path
         id="path30"
         style="font-family:'BioRhyme ExtraBold';letter-spacing:0.075em"
         d="m 341.12969,66.46 v 25.92 h 6.72 V 100 h -22.5 v -7.62 h 6.3 v -8.94 q 0,-4.38 1.38,-12.12 l -14.22,28.74 h -5.34 l -13.92,-28.08 q 1.08,7.56 1.08,11.46 v 8.94 h 6.3 V 100 h -22.02 v -7.62 h 6.72 V 66.46 h -6.72 v -7.62 h 17.34 l 14.22,28.38 13.98,-28.38 h 17.4 v 7.62 z" />
      <path
         id="path32"
         style="font-family:'BioRhyme ExtraBold';letter-spacing:0.075em"
         d="m 380.50375,58.84 q 4.92,0 8.64,1.68 3.78,1.62 5.82,4.68 2.1,3 2.1,6.96 0,4.14 -2.04,7.32 -1.98,3.12 -5.76,4.86 -3.72,1.74 -8.64,1.74 h -8.04 v 6.3 h 7.38 V 100 h -23.64 v -7.62 h 6.72 V 66.46 h -6.72 v -7.62 z m -0.42,19.62 q 7.38,0 7.38,-6.42 0,-3.06 -2.22,-4.32 -2.22,-1.26 -5.4,-1.26 h -7.26 V 78.4 Z" />
      <path
         id="path34"
         style="font-family:'BioRhyme ExtraBold';letter-spacing:0.075em"
         d="m 428.44094,100.78 q -6.36,0 -11.52,-2.82 -5.16,-2.88 -8.1,-7.74 -2.88,-4.92 -2.88,-10.8 0,-5.88 2.88,-10.8 2.94,-4.92 8.1,-7.74 5.16,-2.88 11.52,-2.88 6.3,0 11.4,2.88 5.16,2.82 8.04,7.74 2.94,4.92 2.94,10.8 0,5.88 -2.94,10.8 -2.88,4.86 -8.04,7.74 -5.1,2.82 -11.4,2.82 z m 0,-7.86 q 3.72,0 6.48,-1.8 2.82,-1.86 4.26,-4.92 1.5,-3.12 1.5,-6.78 0,-3.72 -1.5,-6.78 -1.44,-3.12 -4.26,-4.92 -2.76,-1.86 -6.48,-1.86 -3.84,0 -6.66,1.86 -2.76,1.86 -4.26,4.98 -1.44,3.06 -1.44,6.72 0,3.72 1.44,6.84 1.5,3.06 4.26,4.86 2.82,1.8 6.66,1.8 z" />
      <path
         id="path36"
         style="font-family:'BioRhyme ExtraBold';letter-spacing:0.075em"
         d="m 506.76812,96.52 q -1.74,1.92 -3.89999,3.12 -2.10001,1.2 -5.28001,1.2 -5.76,0 -9.59999,-3.96 -3.78001,-4.02 -5.70001,-12.48 l -0.18,-0.78 h -6.35999 v 8.82 h 6.42 V 100 h -22.86 v -7.62 h 6.71999 V 66.46 h -6.71999 v -7.62 h 24.65999 q 7.44,0 11.94,3.24 4.5,3.18 4.5,9.06 0,4.68 -2.58,7.74 -2.51999,3 -7.2,4.14 l 0.30001,0.9 q 1.44,4.5 3.23999,6.3 1.86,1.74 4.02001,1.74 1.31999,0 2.27999,-0.42 0.96001,-0.48 1.86,-1.32 z M 475.74813,76.48 h 8.51999 q 2.52,0 4.5,-1.26 2.04001,-1.26 2.04001,-4.08 0,-2.52 -1.98001,-3.6 -1.92,-1.08 -4.56,-1.08 h -8.51999 z" />
      <path
         id="path38"
         style="font-family:'BioRhyme ExtraBold';letter-spacing:0.075em"
         d="M 558.48906,92.38 V 100 h -21 v -7.62 h 6.06 l -2.28,-6 h -15.06 l -2.22,6 h 6.66 V 100 h -20.58 v -7.62 h 4.86 l 11.04,-25.98 h -4.26 v -7.56 h 24.9 v 7.56 h -4.2 l 11.1,25.98 z m -19.74,-12.72 -4.98,-13.26 h -0.06 l -4.98,13.26 z" />
      <path
         id="path40"
         style="font-family:'BioRhyme ExtraBold';letter-spacing:0.075em"
         d="m 619.20812,66.46 h -6.36 v 33.9 l -5.22,0.06 -25.97999,-28.62 v 20.58 h 6.71999 V 100 h -22.55999 v -7.62 h 6.72 V 66.46 h -6.72 v -7.62 h 15.84 L 603.96812,84.1 V 66.46 h -6.72 v -7.62 h 21.96 z" />
      <path
         id="path42"
         style="font-family:'BioRhyme ExtraBold';letter-spacing:0.075em"
         d="m 660.92969,74.14 v -7.68 h -17.82 v 10.02 h 6.3 v -4.74 h 7.14 v 16.32 h -7.14 v -4.74 h -6.3 v 9.06 h 17.82 V 84.7 h 8.46 V 100 h -42.48 v -7.62 h 6.66 V 66.46 h -6.66 v -7.62 h 42.48 v 15.3 z" />
      <path
         id="path44"
         style="font-family:'BioRhyme ExtraBold';letter-spacing:0.075em"
         d="M 725.85625,92.38 V 100 h -21 v -7.62 h 6.06 l -2.28,-6 h -15.06 l -2.22,6 h 6.66 V 100 h -20.58 v -7.62 h 4.86 l 11.04,-25.98 h -4.26 v -7.56 h 24.9 v 7.56 h -4.2 l 11.1,25.98 z m -19.74,-12.72 -4.98,-13.26 h -0.06 l -4.98,13.26 z" />
    </g>
  </g>
</svg>
