<?xml version="1.0" encoding="UTF-8" standalone="no"?>
<svg
   xmlns:dc="http://purl.org/dc/elements/1.1/"
   xmlns:cc="http://creativecommons.org/ns#"
   xmlns:rdf="http://www.w3.org/1999/02/22-rdf-syntax-ns#"
   xmlns:svg="http://www.w3.org/2000/svg"
   xmlns="http://www.w3.org/2000/svg"
   id="svg16"
   width="800px"
   version="1.1"
   height="200px">
  <metadata
     id="metadata20">
    <rdf:RDF>
      <cc:Work
         rdf:about="">
        <dc:format>image/svg+xml</dc:format>
        <dc:type
           rdf:resource="http://purl.org/dc/dcmitype/StillImage" />
      </cc:Work>
    </rdf:RDF>
  </metadata>
  <defs
     id="defs4">
    <style
       id="style2"
       type="text/css"><![CDATA[    
     @font-face {font-family:BioRhyme ExtraBold;
     src: url('/Users/francesco/Repos/write-logos/src/fonts/Fonts_E_TEMPORANEA/BioRhyme-ExtraBold.ttf');}
     @font-face {font-family:Astral Wave;
     src: url('/Users/francesco/Repos/write-logos/src/fonts/Fonts_X/AstralWave.ttf');}
     ]]></style>
  </defs>
  <g
     id="g14"
     style="font-size:60px">
    <g
       style="text-anchor:middle"
       id="text12"
       aria-label="EXTEMPORANEA">
      <path
         id="path22"
         style="font-family:'BioRhyme ExtraBold';letter-spacing:0.075em"
         d="M 108.66016,74.14 V 66.46 H 90.840156 v 10.02 h 6.3 v -4.74 h 7.140004 v 16.32 h -7.140004 v -4.74 h -6.3 v 9.06 H 108.66016 V 84.7 h 8.46 V 100 H 74.640156 v -7.62 h 6.66 V 66.46 h -6.66 v -7.62 h 42.480004 v 15.3 z" />
      <path
         id="path24"
         style="font-family:'Astral Wave';letter-spacing:0.05em"
         d="m 167.57031,46.679687 h 2.05078 q 5.36133,2.958985 6.15235,4.775391 v 2.050781 q 0,2.050782 -6.15235,2.050782 l 1.37696,2.050781 v 2.050781 q 0,2.050781 -6.15235,2.753906 l 0.67383,1.347657 q 0,1.816406 -3.42773,3.427734 -1.69922,0 -8.87696,-1.376953 5.47852,3.925781 5.47852,4.804687 v 2.050782 q 0,2.050781 -5.47852,2.724609 v 0.673828 q 15.0293,6.621094 15.0293,11.630859 0,9.375 3.42773,11.63086 v 1.347658 q 0,0.99609 -2.05078,2.05078 h -0.67382 q -6.85547,0 -6.85547,-11.601563 0,-3.427735 -0.67383,-3.427735 -18.45703,-10.253906 -18.45703,-13.68164 v -0.673828 q 4.77539,-2.753907 4.77539,-3.427735 -12.97852,-6.533203 -14.35547,-9.550781 l 0.67383,-3.427734 q -3.22266,0 -6.15235,-5.478516 0.70313,-2.724609 4.10157,-2.724609 15.41015,10.927734 21.88476,10.927734 v -0.673828 q 0,-1.611328 4.80469,-2.050781 l -2.05078,-2.72461 q 0,-4.101562 4.10156,-4.101562 h 4.77539 q 0.17578,-3.427735 2.05078,-3.427735 z m -27.36328,32.8125 h 0.70313 q 9.55078,2.607422 9.55078,6.826172 0,2.314453 -10.25391,5.478516 v 0.673828 q 3.13477,1.347656 3.42774,2.753906 v 2.050782 q 0,2.548828 -17.08008,4.101559 l -1.37696,-2.050778 v -1.376953 q 0,-1.875 6.82618,-3.427735 v -0.673828 q -1.69922,0 -2.05079,-2.724609 0,-2.841797 10.25391,-5.478516 l -2.05078,-3.427734 q 1.02539,-2.72461 2.05078,-2.72461 z" />
      <path
         id="path26"
         style="font-family:'BioRhyme ExtraBold';letter-spacing:0.075em"
         d="m 224.61203,58.84 v 15.84 h -8.46 v -8.22 h -8.76 v 25.92 h 6.54 V 100 h -22.86 v -7.62 h 6.6 V 66.46 h -8.82 v 8.22 h -8.46 V 58.84 Z" />
      <path
         id="path28"
         style="font-family:'BioRhyme ExtraBold';letter-spacing:0.075em"
         d="m 266.67578,74.14 v -7.68 h -17.82 v 10.02 h 6.3 v -4.74 h 7.14 v 16.32 h -7.14 v -4.74 h -6.3 v 9.06 h 17.82 V 84.7 h 8.46 V 100 h -42.48 v -7.62 h 6.66 V 66.46 h -6.66 v -7.62 h 42.48 v 15.3 z" />
      <path
         id="path30"
         style="font-family:'BioRhyme ExtraBold';letter-spacing:0.075em"
         d="m 341.77422,66.46 v 25.92 h 6.72 V 100 h -22.5 v -7.62 h 6.3 v -8.94 q 0,-4.38 1.38,-12.12 l -14.22,28.74 h -5.34 l -13.92,-28.08 q 1.08,7.56 1.08,11.46 v 8.94 h 6.3 V 100 h -22.02 v -7.62 h 6.72 V 66.46 h -6.72 v -7.62 h 17.34 l 14.22,28.38 13.98,-28.38 h 17.4 v 7.62 z" />
      <path
         id="path32"
         style="font-family:'BioRhyme ExtraBold';letter-spacing:0.075em"
         d="m 381.14828,58.84 q 4.92,0 8.64,1.68 3.78,1.62 5.82,4.68 2.1,3 2.1,6.96 0,4.14 -2.04,7.32 -1.98,3.12 -5.76,4.86 -3.72,1.74 -8.64,1.74 h -8.04 v 6.3 h 7.38 V 100 h -23.64 v -7.62 h 6.72 V 66.46 h -6.72 v -7.62 z m -0.42,19.62 q 7.38,0 7.38,-6.42 0,-3.06 -2.22,-4.32 -2.22,-1.26 -5.4,-1.26 h -7.26 V 78.4 Z" />
      <path
         id="path34"
         style="font-family:'BioRhyme ExtraBold';letter-spacing:0.075em"
         d="m 429.08547,100.78 q -6.36,0 -11.52,-2.82 -5.16,-2.88 -8.1,-7.74 -2.88,-4.92 -2.88,-10.8 0,-5.88 2.88,-10.8 2.94,-4.92 8.1,-7.74 5.16,-2.88 11.52,-2.88 6.3,0 11.4,2.88 5.16,2.82 8.04,7.74 2.94,4.92 2.94,10.8 0,5.88 -2.94,10.8 -2.88,4.86 -8.04,7.74 -5.1,2.82 -11.4,2.82 z m 0,-7.86 q 3.72,0 6.48,-1.8 2.82,-1.86 4.26,-4.92 1.5,-3.12 1.5,-6.78 0,-3.72 -1.5,-6.78 -1.44,-3.12 -4.26,-4.92 -2.76,-1.86 -6.48,-1.86 -3.84,0 -6.66,1.86 -2.76,1.86 -4.26,4.98 -1.44,3.06 -1.44,6.72 0,3.72 1.44,6.84 1.5,3.06 4.26,4.86 2.82,1.8 6.66,1.8 z" />
      <path
         id="path36"
         style="font-family:'BioRhyme ExtraBold';letter-spacing:0.075em"
         d="m 507.41266,96.52 q -1.74,1.92 -3.9,3.12 -2.1,1.2 -5.28,1.2 -5.76,0 -9.6,-3.96 -3.78,-4.02 -5.7,-12.48 l -0.18,-0.78 h -6.36 v 8.82 h 6.42 V 100 h -22.86 v -7.62 h 6.72 V 66.46 h -6.72 v -7.62 h 24.66 q 7.44,0 11.94,3.24 4.5,3.18 4.5,9.06 0,4.68 -2.58,7.74 -2.52,3 -7.2,4.14 l 0.3,0.9 q 1.44,4.5 3.24,6.3 1.86,1.74 4.02,1.74 1.32,0 2.28,-0.42 0.96,-0.48 1.86,-1.32 z m -31.02,-20.04 h 8.52 q 2.52,0 4.5,-1.26 2.04,-1.26 2.04,-4.08 0,-2.52 -1.98,-3.6 -1.92,-1.08 -4.56,-1.08 h -8.52 z" />
      <path
         id="path38"
         style="font-family:'BioRhyme ExtraBold';letter-spacing:0.075em"
         d="M 559.13359,92.38 V 100 h -21 v -7.62 h 6.06 l -2.28,-6 h -15.06 l -2.22,6 h 6.66 V 100 h -20.58 v -7.62 h 4.86 l 11.04,-25.98 h -4.26 v -7.56 h 24.9 v 7.56 h -4.2 l 11.1,25.98 z m -19.74,-12.72 -4.98,-13.26 h -0.06 l -4.98,13.26 z" />
      <path
         id="path40"
         style="font-family:'BioRhyme ExtraBold';letter-spacing:0.075em"
         d="m 619.85266,66.46 h -6.36 v 33.9 l -5.22,0.06 -25.98,-28.62 v 20.58 h 6.72 V 100 h -22.56 v -7.62 h 6.72 V 66.46 h -6.72 v -7.62 h 15.84 l 22.32,25.26 V 66.46 h -6.72 v -7.62 h 21.96 z" />
      <path
         id="path42"
         style="font-family:'BioRhyme ExtraBold';letter-spacing:0.075em"
         d="m 661.57422,74.14 v -7.68 h -17.82 v 10.02 h 6.3 v -4.74 h 7.14 v 16.32 h -7.14 v -4.74 h -6.3 v 9.06 h 17.82 V 84.7 h 8.46 V 100 h -42.48 v -7.62 h 6.66 V 66.46 h -6.66 v -7.62 h 42.48 v 15.3 z" />
      <path
         id="path44"
         style="font-family:'BioRhyme ExtraBold';letter-spacing:0.075em"
         d="M 726.50078,92.38 V 100 h -21 v -7.62 h 6.06 l -2.28,-6 h -15.06 l -2.22,6 h 6.66 V 100 h -20.58 v -7.62 h 4.86 l 11.04,-25.98 h -4.26 v -7.56 h 24.9 v 7.56 h -4.2 l 11.1,25.98 z m -19.74,-12.72 -4.98,-13.26 h -0.06 l -4.98,13.26 z" />
    </g>
  </g>
</svg>
