<?xml version="1.0" encoding="UTF-8" standalone="no"?>
<svg
   xmlns:dc="http://purl.org/dc/elements/1.1/"
   xmlns:cc="http://creativecommons.org/ns#"
   xmlns:rdf="http://www.w3.org/1999/02/22-rdf-syntax-ns#"
   xmlns:svg="http://www.w3.org/2000/svg"
   xmlns="http://www.w3.org/2000/svg"
   id="svg16"
   width="800px"
   version="1.1"
   height="200px">
  <metadata
     id="metadata20">
    <rdf:RDF>
      <cc:Work
         rdf:about="">
        <dc:format>image/svg+xml</dc:format>
        <dc:type
           rdf:resource="http://purl.org/dc/dcmitype/StillImage" />
      </cc:Work>
    </rdf:RDF>
  </metadata>
  <defs
     id="defs4">
    <style
       id="style2"
       type="text/css"><![CDATA[    
     @font-face {font-family:BioRhyme ExtraBold;
     src: url('/Users/francesco/Repos/write-logos/src/fonts/Fonts_E_TEMPORANEA/BioRhyme-ExtraBold.ttf');}
     @font-face {font-family:Arsenale Blue;
     src: url('/Users/francesco/Repos/write-logos/src/fonts/Fonts_X/arsenaleblue.ttf');}
     ]]></style>
  </defs>
  <g
     id="g14"
     style="font-size:60px">
    <g
       style="text-anchor:middle"
       id="text12"
       aria-label="EXTEMPORANEA">
      <path
         id="path22"
         style="font-family:'BioRhyme ExtraBold';letter-spacing:0.075em"
         d="M 112.23438,74.14 V 66.46 H 94.414375 v 10.02 h 6.300005 v -4.74 h 7.14 v 16.32 h -7.14 v -4.74 h -6.300005 v 9.06 H 112.23438 V 84.7 h 8.46 V 100 H 78.214375 v -7.62 h 6.66 V 66.46 h -6.66 v -7.62 h 42.480005 v 15.3 z" />
      <path
         id="path24"
         style="font-family:'Arsenale Blue';letter-spacing:0.05em"
         d="m 170.29281,91 q 0.18,1.38 0.18,2.88 0,3.24 -1.2,5.22 -1.14,1.92 -3.78,2.64 -1.8,0 -6.06,-3.6 -4.26,-3.66 -11.22,-10.8 -7.5,-7.62 -11.04,-11.4 -3.48,-3.84 -3.48,-3.72 -0.72,-2.76 -0.72,-4.74 0,-2.82 1.2,-4.44 1.26,-1.68 4.14,-1.68 3,0 6.3,1.32 3.36,1.26 6.66,3.48 3.3,2.22 6.36,5.16 3.06,2.94 5.58,6.24 2.58,3.24 4.38,6.66 1.86,3.36 2.64,6.54 z m -21.12,-0.06 q 0,1.98 -1.14,3.9 -1.08,1.86 -2.76,3.36 -1.62,1.5 -3.48,2.4 -1.8,0.96 -3.24,0.96 -0.84,0 -1.68,-0.24 -0.84,-0.24 -1.68,-0.9 -0.12,0 -0.9,-0.48 -0.72,-0.54 -1.56,-1.32 -0.84,-0.84 -1.56,-1.86 -0.66,-1.02 -0.66,-2.16 0,-2.04 1.62,-4.92 0.72,-1.02 1.62,-2.16 0.9,-1.14 1.92,-2.1 1.08,-1.02 2.28,-1.62 1.2,-0.66 2.58,-0.66 1.38,0 2.82,0.78 1.44,0.72 3,2.58 0.42,0.48 0.9,0.96 0.54,0.48 0.96,0.96 0.42,0.48 0.66,1.02 0.3,0.48 0.3,1.08 z m 7.32,-22.74 q 0,-1.38 0.78,-2.76 0.84,-1.38 1.98,-2.46 1.2,-1.08 2.52,-1.74 1.38,-0.72 2.4,-0.72 1.32,0 2.4,0.84 0.12,0 0.66,0.36 0.54,0.36 1.14,0.96 0.66,0.6 1.14,1.38 0.48,0.72 0.48,1.5 0,0.6 -0.54,1.98 -0.54,1.38 -1.5,2.76 -0.9,1.38 -2.28,2.46 -1.32,1.08 -2.94,1.08 -1.02,0 -2.1,-0.54 -1.02,-0.54 -2.1,-1.86 -0.66,-0.78 -1.38,-1.44 -0.66,-0.66 -0.66,-1.5 z" />
      <path
         id="path26"
         style="font-family:'BioRhyme ExtraBold';letter-spacing:0.075em"
         d="m 221.03781,58.84 v 15.84 h -8.46 v -8.22 h -8.76 v 25.92 h 6.54 V 100 h -22.86 v -7.62 h 6.6 V 66.46 h -8.82 v 8.22 h -8.46 V 58.84 Z" />
      <path
         id="path28"
         style="font-family:'BioRhyme ExtraBold';letter-spacing:0.075em"
         d="m 263.10156,74.14 v -7.68 h -17.82 v 10.02 h 6.3 v -4.74 h 7.14 v 16.32 h -7.14 v -4.74 h -6.3 v 9.06 h 17.82 V 84.7 h 8.46 V 100 h -42.48 v -7.62 h 6.66 V 66.46 h -6.66 v -7.62 h 42.48 v 15.3 z" />
      <path
         id="path30"
         style="font-family:'BioRhyme ExtraBold';letter-spacing:0.075em"
         d="m 338.2,66.46 v 25.92 h 6.72 V 100 h -22.5 v -7.62 h 6.3 v -8.94 q 0,-4.38 1.38,-12.12 l -14.22,28.74 h -5.34 L 296.62,71.98 q 1.08,7.56 1.08,11.46 v 8.94 H 304 V 100 h -22.02 v -7.62 h 6.72 V 66.46 h -6.72 v -7.62 h 17.34 l 14.22,28.38 13.98,-28.38 h 17.4 v 7.62 z" />
      <path
         id="path32"
         style="font-family:'BioRhyme ExtraBold';letter-spacing:0.075em"
         d="m 377.57406,58.84 q 4.92,0 8.64,1.68 3.78,1.62 5.82,4.68 2.1,3 2.1,6.96 0,4.14 -2.04,7.32 -1.98,3.12 -5.76,4.86 -3.72,1.74 -8.64,1.74 h -8.04 v 6.3 h 7.38 V 100 h -23.64 v -7.62 h 6.72 V 66.46 h -6.72 v -7.62 z m -0.42,19.62 q 7.38,0 7.38,-6.42 0,-3.06 -2.22,-4.32 -2.22,-1.26 -5.4,-1.26 h -7.26 V 78.4 Z" />
      <path
         id="path34"
         style="font-family:'BioRhyme ExtraBold';letter-spacing:0.075em"
         d="m 425.51125,100.78 q -6.36,0 -11.52,-2.82 -5.16,-2.88 -8.1,-7.74 -2.88,-4.92 -2.88,-10.8 0,-5.88 2.88,-10.8 2.94,-4.92 8.1,-7.74 5.16,-2.88 11.52,-2.88 6.3,0 11.4,2.88 5.16,2.82 8.04,7.74 2.94,4.92 2.94,10.8 0,5.88 -2.94,10.8 -2.88,4.86 -8.04,7.74 -5.1,2.82 -11.4,2.82 z m 0,-7.86 q 3.72,0 6.48,-1.8 2.82,-1.86 4.26,-4.92 1.5,-3.12 1.5,-6.78 0,-3.72 -1.5,-6.78 -1.44,-3.12 -4.26,-4.92 -2.76,-1.86 -6.48,-1.86 -3.84,0 -6.66,1.86 -2.76,1.86 -4.26,4.98 -1.44,3.06 -1.44,6.72 0,3.72 1.44,6.84 1.5,3.06 4.26,4.86 2.82,1.8 6.66,1.8 z" />
      <path
         id="path36"
         style="font-family:'BioRhyme ExtraBold';letter-spacing:0.075em"
         d="m 503.83844,96.52 q -1.74,1.92 -3.9,3.12 -2.1,1.2 -5.28,1.2 -5.76,0 -9.6,-3.96 -3.78,-4.02 -5.7,-12.48 l -0.18,-0.78 h -6.36 v 8.82 h 6.42 V 100 h -22.86 v -7.62 h 6.72 V 66.46 h -6.72 v -7.62 h 24.66 q 7.44,0 11.94,3.24 4.5,3.18 4.5,9.06 0,4.68 -2.58,7.74 -2.52,3 -7.2,4.14 l 0.3,0.9 q 1.44,4.5 3.24,6.3 1.86,1.74 4.02,1.74 1.32,0 2.28,-0.42 0.96,-0.48 1.86,-1.32 z m -31.02,-20.04 h 8.52 q 2.52,0 4.5,-1.26 2.04,-1.26 2.04,-4.08 0,-2.52 -1.98,-3.6 -1.92,-1.08 -4.56,-1.08 h -8.52 z" />
      <path
         id="path38"
         style="font-family:'BioRhyme ExtraBold';letter-spacing:0.075em"
         d="M 555.55938,92.38 V 100 h -21 v -7.62 h 6.05999 l -2.27999,-6 h -15.06001 l -2.21999,6 h 6.66 V 100 h -20.58001 v -7.62 h 4.86 l 11.04,-25.98 h -4.26 v -7.56 h 24.90001 v 7.56 h -4.20001 l 11.10001,25.98 z m -19.74,-12.72 -4.98,-13.26 h -0.06 l -4.97999,13.26 z" />
      <path
         id="path40"
         style="font-family:'BioRhyme ExtraBold';letter-spacing:0.075em"
         d="m 616.27844,66.46 h -6.36 v 33.9 l -5.22,0.06 -25.98,-28.62 v 20.58 h 6.72 V 100 h -22.56 v -7.62 h 6.72 V 66.46 h -6.72 v -7.62 h 15.84 l 22.32,25.26 V 66.46 h -6.72 v -7.62 h 21.96 z" />
      <path
         id="path42"
         style="font-family:'BioRhyme ExtraBold';letter-spacing:0.075em"
         d="m 658,74.14 v -7.68 h -17.82 v 10.02 h 6.3 v -4.74 h 7.14 v 16.32 h -7.14 v -4.74 h -6.3 v 9.06 H 658 V 84.7 h 8.46 V 100 h -42.48 v -7.62 h 6.66 V 66.46 h -6.66 v -7.62 h 42.48 v 15.3 z" />
      <path
         id="path44"
         style="font-family:'BioRhyme ExtraBold';letter-spacing:0.075em"
         d="M 722.92656,92.38 V 100 h -21 v -7.62 h 6.06 l -2.28,-6 h -15.06 l -2.22,6 h 6.66 V 100 h -20.58 v -7.62 h 4.86 l 11.04,-25.98 h -4.26 v -7.56 h 24.9 v 7.56 h -4.2 l 11.1,25.98 z m -19.74,-12.72 -4.98,-13.26 h -0.06 l -4.98,13.26 z" />
    </g>
  </g>
</svg>
