<?xml version="1.0" encoding="UTF-8" standalone="no"?>
<svg
   xmlns:dc="http://purl.org/dc/elements/1.1/"
   xmlns:cc="http://creativecommons.org/ns#"
   xmlns:rdf="http://www.w3.org/1999/02/22-rdf-syntax-ns#"
   xmlns:svg="http://www.w3.org/2000/svg"
   xmlns="http://www.w3.org/2000/svg"
   id="svg16"
   width="800px"
   version="1.1"
   height="200px">
  <metadata
     id="metadata20">
    <rdf:RDF>
      <cc:Work
         rdf:about="">
        <dc:format>image/svg+xml</dc:format>
        <dc:type
           rdf:resource="http://purl.org/dc/dcmitype/StillImage" />
      </cc:Work>
    </rdf:RDF>
  </metadata>
  <defs
     id="defs4">
    <style
       id="style2"
       type="text/css"><![CDATA[    
     @font-face {font-family:BioRhyme ExtraBold;
     src: url('/Users/francesco/Repos/write-logos/src/fonts/Fonts_E_TEMPORANEA/BioRhyme-ExtraBold.ttf');}
     @font-face {font-family:Westpart;
     src: url('/Users/francesco/Repos/write-logos/src/fonts/Fonts_X/WestpartDemo.otf');}
     ]]></style>
  </defs>
  <g
     id="g14"
     style="font-size:60px">
    <g
       style="text-anchor:middle"
       id="text12"
       aria-label="EXTEMPORANEA">
      <path
         id="path22"
         style="font-family:'BioRhyme ExtraBold';letter-spacing:0.075em"
         d="M 115.86719,74.14 V 66.46 H 98.047188 v 10.02 h 6.300002 v -4.74 h 7.14 v 16.32 h -7.14 v -4.74 h -6.300002 v 9.06 H 115.86719 V 84.7 h 8.46 V 100 H 81.847188 v -7.62 h 6.659999 V 66.46 h -6.659999 v -7.62 h 42.480002 v 15.3 z" />
      <path
         id="path24"
         style="font-family:Westpart;letter-spacing:0.05em"
         d="m 132.76562,103.96 c 0,0 0,0 0,0 0,0 0,0 0,0 z m 34.5,-47.94 c -0.24,-0.18 -0.48,-0.3 -0.66,-0.48 -0.41999,0.06 -0.84,0.12 -1.26,0.12 -1.14,0.48 -1.98,1.32 -2.88,2.04 -0.42,0.84 -1.2,1.32 -1.8,1.92 -1.02,1.14 -2.22,2.04 -3,3.36 -0.42,0.72 -1.02,1.26 -1.44,1.98 -0.59999,1.02 -1.38,1.86 -2.04,2.88 -0.54,0.78 -1.26,1.44 -1.62,2.34 -0.06,0.18 -0.3,0.36 -0.42,0.48 -0.18,0.18 -0.36,0.36 -0.48,0.6 -0.53999,0.9 -1.2,1.74 -1.86,2.64 -0.24,0.36 -0.54,0.72 -0.84,1.08 0,0.06 -0.12,0.06 -0.3,0.06 0.54,-1.26 1.38,-2.34 2.22,-3.36 0.18,-0.54 0.48,-1.08 0.9,-1.5 0.42,-0.48 0.84001,-0.9 0.90001,-1.56 0.71999,-0.6 1.25999,-1.38 1.73999,-2.16 0.24,-0.48 0.66,-0.96 0.96,-1.38 0.18,-0.24 0.42,-0.42 0.54,-0.66 0.54,-0.78 1.14,-1.5 1.62,-2.28 0.36,-0.54 0.84,-1.08 1.14,-1.68 0.06,-0.06 0,-0.12 0.06,-0.36 -1.08,0.96 -2.04,1.74 -2.82,2.82 -0.48,0.66 -1.02,1.32 -1.62,1.92 -0.9,0.96 -1.74,1.92 -2.46,3 -0.18,0.24 -0.3,0.48 -0.54,0.66 -0.9,0.84 -1.44,2.04 -2.34,2.88 -0.24,0.3 -0.36,0.72 -0.66,0.96 -0.3,0.24 -0.54,0.66 -0.84,1.02 -0.24,-0.42 -0.42,-0.78 -0.72,-1.08 -0.24,-0.3 -0.42,-0.54 -0.6,-0.84 -0.36,-0.6 -0.78,-1.14 -1.2,-1.62 -0.12,-0.18 -0.3,-0.42 -0.6,-0.36 -0.06,0 -0.12,-0.12 -0.18,-0.12 0.06,-0.18 0.06,-0.36 0.12,-0.48 -0.72,-0.72 -1.2,-1.5 -1.68,-2.28 -0.36,-0.54 -0.84,-0.96 -1.44,-1.08 -1.02,-1.14 -2.1,-2.1 -3.24,-2.94 -0.54,-0.12 -0.96,0 -1.26,0.36 0,0.06 -0.06,0.12 -0.06,0.18 0,1.02 0.36,1.98 0.6,3 0.18,0.6 0.6,1.2 0.9,1.8 0.48,1.02 0.96,1.98 1.5,3.06 0.12,0.12 0.42,0.36 0.48,0.6 0.06,0.42 0.36,0.66 0.6,0.96 0.12,0.12 0.18,0.3 0.3,0.42 0.42,0.66 0.66,1.44 1.26,1.98 0.06,0.06 0.06,0.18 0.12,0.3 0.48,0.9 1.02,1.8 1.5,2.7 0.12,0.18 0.12,0.36 0.18,0.48 -0.06,0.24 -0.12,0.48 -0.18,0.66 -0.12,0.18 -0.23999,0.36 -0.36,0.48 -0.18,0.3 -0.42,0.54 -0.54,0.84 -0.42,0.84 -0.96,1.56 -1.5,2.28 -0.18,0.18 -0.36,0.42 -0.42,0.66 -0.48,1.02 -1.14,1.98 -1.68,2.94 -0.48,0.78 -1.02,1.5 -1.32,2.34 -0.12,0.3 -0.3,0.6 -0.41999,0.84 -0.42001,0.78 -0.84001,1.62 -1.26001,2.4 -0.3,0.72 -0.72,1.38 -0.96,2.16 -0.24,0.78 -0.72,1.44 -0.9,2.22 -0.06,0.36 -0.18,0.78 -0.42,1.08 -0.18,0.3 -0.12,0.66 -0.24,1.02 -0.12,0.12 -0.36,0.12 -0.3,0.36 0.24,0.12 0.48,0.24 0.72,0.3 -0.06,0.24 -0.12,0.48 -0.18,0.72 0,0.3 0,0.54 0,0.84 -0.24,0.12 -0.42,0.3 -0.6,0.42 -0.24,0.72 -0.3,1.44 -0.78,1.98 -0.18,0.24 -0.18,0.66 0.06,1.02 0.3,-0.24 0.6,-0.48 0.96,-0.66 0.06,-0.18 0.18,-0.36 0.18,-0.54 0.06,-0.18 0.06,-0.36 0.06,-0.54 0.3,-0.42 0.6,-0.78 0.84,-1.14 0.3,0 0.54,0 0.78,0 0,-0.66 0.48,-0.96 0.78,-1.14 0.3,-0.54 0.6,-0.9 0.84,-1.32 0.72,-1.38 1.62,-2.7 2.4,-4.02 0.54,-0.96 1.32,-1.8 1.68,-2.82 0.18,-0.3 0.48,-0.54 0.72,-0.78 0.84,-1.26 1.74,-2.52 2.58,-3.78 0.3,-0.48 0.54001,-0.9 0.96,-1.5 0.06,-0.12 0.36,-0.24 0.6,-0.48 0.18,-0.24 0.24,-0.54 0.54,-0.78 0.24,-0.18 0.36,-0.48 0.54,-0.66 0.24,0.36 0.54,0.66 0.72,1.08 0.6,1.14 1.2,2.34 1.8,3.48 0.12,0.18 0.18,0.42 0.3,0.54 0.42,0.42 0.6,0.9 0.9,1.38 0.24,0.48 0.48,1.08 0.84,1.44 0.66,0.72 1.32,1.5 2.16,2.04 0.48,0.36 0.84,0.78 1.26,1.2 0.06,0 0.12,0 0.24,0.06 0.18001,-0.18 0.36,-0.3 0.54,-0.48 0.24,0.12 0.42,0.24 0.6,0.3 0.18,0.3 0.36,0.54 0.48,0.84 0.36,0.18 0.72,0.3 1.02,0.48 0.3,-0.36 0.18,-0.72 0.18,-1.02 -0.06,-0.06 -0.06,-0.12 -0.12,-0.24 0,0 0.06,0 0.06,0 0,0.06 0.06,0.18 0.06,0.24 0.12,0 0.24,0.06 0.3,0.06 0.36,-0.54 0.42,-1.14 0.36,-1.62 -0.24,-0.66 -0.48,-1.14 -0.66,-1.68 -0.18,-0.6 -0.42,-1.14 -0.48,-1.74 -0.12,-0.48 -0.36,-0.84 -0.59999,-1.26 -0.36001,-0.78 -1.02001,-1.32 -1.26001,-2.16 -0.23999,-0.12 -0.42,-0.24 -0.6,-0.42 0,-0.78 -0.48,-1.38 -0.96,-2.04 0,-0.9 -1.02,-1.26 -1.08,-2.1 -0.24,-0.12 -0.36,-0.18 -0.48,-0.3 -0.3,-0.54 -0.48,-1.08 -0.84,-1.5 -0.42,-0.54 -0.78,-1.14 -1.08,-1.8 0.12,-0.24 0.24001,-0.54 0.42,-0.78 0.6,-0.84 1.32001,-1.68 1.92,-2.52 0.42,-0.54 0.72,-1.08 1.26,-1.5 0.24,-0.18 0.36,-0.48 0.54,-0.78 0.18,-0.24 0.3,-0.48 0.48,-0.72 0.3,-0.42 0.66,-0.78 1.02,-1.32 0.12,-0.06 0.36,-0.18 0.36,-0.18 0.6,-0.72 1.02,-1.2 1.44,-1.74 0.24,-0.36 0.54,-0.72 0.96,-1.26 0.06,-0.12 0.36,-0.42 0.6,-0.72 0.96,-1.02 1.56,-2.28 2.4,-3.36 0.24,-0.3 0.48,-0.6 0.66,-0.9 0.72,-1.44 1.68001,-2.7 2.7,-3.9 0.60001,-0.72 1.14,-1.44 1.62,-2.1 0,-0.3 0,-0.54 0,-0.78 z m -33,42.96 c 0,-0.12 0,-0.24 0.06,-0.48 0.18,0.24 0.06,0.36 -0.06,0.48 z m 1.92,-1.5 c -0.06,0.12 -0.06,0.18 -0.12,0.24 0,0 0,0 -0.06,0 0.06,-0.06 0.12001,-0.18 0.18,-0.24 0,0 0,-0.06 0,-0.06 0,0.06 0,0.06 0,0.06 z m 1.44001,-3.06 v -0.06 l 0.11999,0.06 z m 6.59999,-27.06 c 0.12,0.06 0.24,0.12 0.42,-0.12 -0.6,-0.78 -0.96,-1.68 -1.98,-2.34 0.06,0.24 0.06,0.36 0.06,0.36 0.54,0.72 1.02,1.38 1.5,2.1 z m -11.46,36.6 c -0.06,0 -0.06,0 -0.06,0.06 0,-0.06 0,-0.06 0.06,-0.06 z" />
      <path
         id="path26"
         style="font-family:'BioRhyme ExtraBold';letter-spacing:0.075em"
         d="m 217.405,58.84 v 15.84 h -8.46 v -8.22 h -8.76 v 25.92 h 6.54 V 100 h -22.86 v -7.62 h 6.6 V 66.46 h -8.82 v 8.22 h -8.46 V 58.84 Z" />
      <path
         id="path28"
         style="font-family:'BioRhyme ExtraBold';letter-spacing:0.075em"
         d="m 259.46875,74.14 v -7.68 h -17.82 v 10.02 h 6.3 v -4.74 h 7.14 v 16.32 h -7.14 v -4.74 h -6.3 v 9.06 h 17.82 V 84.7 h 8.46 V 100 h -42.48 v -7.62 h 6.66 V 66.46 h -6.66 v -7.62 h 42.48 v 15.3 z" />
      <path
         id="path30"
         style="font-family:'BioRhyme ExtraBold';letter-spacing:0.075em"
         d="m 334.56719,66.46 v 25.92 h 6.72 V 100 h -22.5 v -7.62 h 6.3 v -8.94 q 0,-4.38 1.38,-12.12 l -14.22,28.74 h -5.34 l -13.92,-28.08 q 1.08,7.56 1.08,11.46 v 8.94 h 6.3 V 100 h -22.02 v -7.62 h 6.72 V 66.46 h -6.72 v -7.62 h 17.34 l 14.22,28.38 13.98,-28.38 h 17.4 v 7.62 z" />
      <path
         id="path32"
         style="font-family:'BioRhyme ExtraBold';letter-spacing:0.075em"
         d="m 373.94125,58.84 q 4.92,0 8.64,1.68 3.78,1.62 5.82,4.68 2.1,3 2.1,6.96 0,4.14 -2.04,7.32 -1.98,3.12 -5.76,4.86 -3.72,1.74 -8.64,1.74 h -8.04 v 6.3 h 7.38 V 100 h -23.64 v -7.62 h 6.72 V 66.46 h -6.72 v -7.62 z m -0.42,19.62 q 7.38,0 7.38,-6.42 0,-3.06 -2.22,-4.32 -2.22,-1.26 -5.4,-1.26 h -7.26 V 78.4 Z" />
      <path
         id="path34"
         style="font-family:'BioRhyme ExtraBold';letter-spacing:0.075em"
         d="m 421.87844,100.78 q -6.36,0 -11.52,-2.82 -5.16,-2.88 -8.1,-7.74 -2.88,-4.92 -2.88,-10.8 0,-5.88 2.88,-10.8 2.94,-4.92 8.1,-7.74 5.16,-2.88 11.52,-2.88 6.3,0 11.4,2.88 5.16,2.82 8.04,7.74 2.94,4.92 2.94,10.8 0,5.88 -2.94,10.8 -2.88,4.86 -8.04,7.74 -5.1,2.82 -11.4,2.82 z m 0,-7.86 q 3.72,0 6.48,-1.8 2.82,-1.86 4.26,-4.92 1.5,-3.12 1.5,-6.78 0,-3.72 -1.5,-6.78 -1.44,-3.12 -4.26,-4.92 -2.76,-1.86 -6.48,-1.86 -3.84,0 -6.66,1.86 -2.76,1.86 -4.26,4.98 -1.44,3.06 -1.44,6.72 0,3.72 1.44,6.84 1.5,3.06 4.26,4.86 2.82,1.8 6.66,1.8 z" />
      <path
         id="path36"
         style="font-family:'BioRhyme ExtraBold';letter-spacing:0.075em"
         d="m 500.20562,96.52 q -1.74,1.92 -3.89999,3.12 -2.10001,1.2 -5.28001,1.2 -5.76,0 -9.59999,-3.96 -3.78001,-4.02 -5.70001,-12.48 l -0.18,-0.78 h -6.35999 v 8.82 h 6.42 V 100 h -22.86 v -7.62 h 6.71999 V 66.46 h -6.71999 v -7.62 h 24.65999 q 7.44,0 11.94,3.24 4.5,3.18 4.5,9.06 0,4.68 -2.58,7.74 -2.51999,3 -7.2,4.14 l 0.30001,0.9 q 1.44,4.5 3.23999,6.3 1.86,1.74 4.02001,1.74 1.31999,0 2.27999,-0.42 0.96001,-0.48 1.86,-1.32 z M 469.18563,76.48 h 8.51999 q 2.52,0 4.5,-1.26 2.04001,-1.26 2.04001,-4.08 0,-2.52 -1.98001,-3.6 -1.92,-1.08 -4.56,-1.08 h -8.51999 z" />
      <path
         id="path38"
         style="font-family:'BioRhyme ExtraBold';letter-spacing:0.075em"
         d="M 551.92656,92.38 V 100 h -21 v -7.62 h 6.06 l -2.28,-6 h -15.06 l -2.22,6 h 6.66 V 100 h -20.58 v -7.62 h 4.86 l 11.04,-25.98 h -4.26 v -7.56 h 24.9 v 7.56 h -4.2 l 11.1,25.98 z m -19.74,-12.72 -4.98,-13.26 h -0.06 l -4.98,13.26 z" />
      <path
         id="path40"
         style="font-family:'BioRhyme ExtraBold';letter-spacing:0.075em"
         d="m 612.64562,66.46 h -6.36 v 33.9 l -5.22,0.06 -25.97999,-28.62 v 20.58 h 6.71999 V 100 h -22.55999 v -7.62 h 6.72 V 66.46 h -6.72 v -7.62 h 15.84 L 597.40562,84.1 V 66.46 h -6.72 v -7.62 h 21.96 z" />
      <path
         id="path42"
         style="font-family:'BioRhyme ExtraBold';letter-spacing:0.075em"
         d="m 654.36719,74.14 v -7.68 h -17.82 v 10.02 h 6.3 v -4.74 h 7.14 v 16.32 h -7.14 v -4.74 h -6.3 v 9.06 h 17.82 V 84.7 h 8.46 V 100 h -42.48 v -7.62 h 6.66 V 66.46 h -6.66 v -7.62 h 42.48 v 15.3 z" />
      <path
         id="path44"
         style="font-family:'BioRhyme ExtraBold';letter-spacing:0.075em"
         d="M 719.29375,92.38 V 100 h -21 v -7.62 h 6.06 l -2.28,-6 h -15.06 l -2.22,6 h 6.66 V 100 h -20.58 v -7.62 h 4.86 l 11.04,-25.98 h -4.26 v -7.56 h 24.9 v 7.56 h -4.2 l 11.1,25.98 z m -19.74,-12.72 -4.98,-13.26 h -0.06 l -4.98,13.26 z" />
    </g>
  </g>
</svg>
