<?xml version="1.0" encoding="UTF-8" standalone="no"?>
<svg
   xmlns:dc="http://purl.org/dc/elements/1.1/"
   xmlns:cc="http://creativecommons.org/ns#"
   xmlns:rdf="http://www.w3.org/1999/02/22-rdf-syntax-ns#"
   xmlns:svg="http://www.w3.org/2000/svg"
   xmlns="http://www.w3.org/2000/svg"
   id="svg16"
   width="800px"
   version="1.1"
   height="200px">
  <metadata
     id="metadata20">
    <rdf:RDF>
      <cc:Work
         rdf:about="">
        <dc:format>image/svg+xml</dc:format>
        <dc:type
           rdf:resource="http://purl.org/dc/dcmitype/StillImage" />
      </cc:Work>
    </rdf:RDF>
  </metadata>
  <defs
     id="defs4">
    <style
       id="style2"
       type="text/css"><![CDATA[    
     @font-face {font-family:BioRhyme ExtraBold;
     src: url('/Users/francesco/Repos/write-logos/src/fonts/Fonts_E_TEMPORANEA/BioRhyme-ExtraBold.ttf');}
     @font-face {font-family:Bamboo shoot;
     src: url('/Users/francesco/Repos/write-logos/src/fonts/Fonts_X/bambooshoot.ttf');}
     ]]></style>
  </defs>
  <g
     id="g14"
     style="font-size:60px">
    <g
       style="text-anchor:middle"
       id="text12"
       aria-label="EXTEMPORANEA">
      <path
         id="path22"
         style="font-family:'BioRhyme ExtraBold';letter-spacing:0.075em"
         d="M 111.41406,74.14 V 66.46 H 93.594063 v 10.02 h 6.3 v -4.74 h 7.139997 v 16.32 h -7.139997 v -4.74 h -6.3 v 9.06 H 111.41406 V 84.7 h 8.46 V 100 H 77.394063 v -7.62 h 6.659999 V 66.46 h -6.659999 v -7.62 h 42.479997 v 15.3 z" />
      <path
         id="path24"
         style="font-family:'Bamboo shoot';letter-spacing:0.05em"
         d="m 136.33984,50.664062 h 0.82032 q 3.77929,0 7.26562,5.390625 6.18164,7.705079 6.21094,7.96875 h 0.11719 q 7.52929,-10.019531 9.72656,-12.070312 1.8457,-1.289063 3.75,-1.289063 h 0.82031 q 4.21875,0 6.32813,4.921875 l 0.23437,1.640625 v 0.820313 q 0,2.900391 -3.98437,7.03125 l -7.96875,10.195312 q 11.48437,14.589844 11.48437,15 0.46875,1.347657 0.46875,2.34375 V 93.4375 q 0,4.335937 -5.03906,6.328125 Q 166.04687,100 165.05078,100 h -0.82031 q -3.7793,0 -7.26563,-5.390625 -6.18164,-7.705078 -6.21093,-7.96875 h -0.11719 q -7.5293,10.019531 -9.72656,12.070312 Q 139.06445,100 137.16016,100 h -0.82032 q -4.21875,0 -6.32812,-4.921875 L 129.77734,93.4375 v -0.820313 q 0,-2.90039 3.98438,-7.03125 l 7.96875,-10.195312 q -11.48438,-14.589844 -11.48438,-15 -0.46875,-1.347656 -0.46875,-2.34375 v -0.820313 q 0,-4.335937 5.03907,-6.328125 0.52734,-0.234375 1.52343,-0.234375 z m -1.75781,6.914063 v 0.117187 q 0,1.171875 3.86719,5.507813 0.64453,1.113281 6.44531,8.203125 l 2.69531,-3.515625 q -8.11523,-10.458984 -9.60937,-12.070313 -0.58594,-0.351562 -1.17188,-0.351562 h -0.11718 q -2.10938,0.322266 -2.10938,2.109375 z m 19.21875,10.3125 2.8125,3.515625 9.96094,-12.773438 0.23437,-0.9375 v -0.117187 q -0.32226,-2.109375 -2.10937,-2.109375 h -0.11719 q -1.43555,0 -3.39844,3.046875 z m -3.16406,3.867187 -2.69531,3.515625 2.69531,3.632813 h 0.11719 l 2.69531,-3.515625 -2.69531,-3.632813 z m -5.85938,7.5 -9.96093,12.773438 -0.23438,0.9375 v 0.117187 q 0.32227,2.109375 2.10938,2.109375 h 0.11718 q 1.40625,0 3.39844,-3.046875 l 7.38281,-9.375 z m 11.71875,0 -2.69531,3.515625 q 8.58399,11.044922 9.60938,12.070313 0.61523,0.351562 1.17187,0.351562 h 0.11719 q 2.10937,-0.322265 2.10937,-2.109375 V 92.96875 q 0,-1.171875 -3.86718,-5.507813 -0.64454,-1.113281 -6.44532,-8.203125 z" />
      <path
         id="path26"
         style="font-family:'BioRhyme ExtraBold';letter-spacing:0.075em"
         d="m 221.85812,58.84 v 15.84 h -8.46 v -8.22 h -8.76 v 25.92 h 6.54 V 100 h -22.86 v -7.62 h 6.6 V 66.46 h -8.82 v 8.22 h -8.46 V 58.84 Z" />
      <path
         id="path28"
         style="font-family:'BioRhyme ExtraBold';letter-spacing:0.075em"
         d="m 263.92187,74.14 v -7.68 h -17.82 v 10.02 h 6.3 v -4.74 h 7.14 v 16.32 h -7.14 v -4.74 h -6.3 v 9.06 h 17.82 V 84.7 h 8.46 V 100 h -42.48 v -7.62 h 6.66 V 66.46 h -6.66 v -7.62 h 42.48 v 15.3 z" />
      <path
         id="path30"
         style="font-family:'BioRhyme ExtraBold';letter-spacing:0.075em"
         d="m 339.02031,66.46 v 25.92 h 6.72 V 100 h -22.5 v -7.62 h 6.3 v -8.94 q 0,-4.38 1.38,-12.12 l -14.22,28.74 h -5.34 l -13.92,-28.08 q 1.08,7.56 1.08,11.46 v 8.94 h 6.3 V 100 h -22.02 v -7.62 h 6.72 V 66.46 h -6.72 v -7.62 h 17.34 l 14.22,28.38 13.98,-28.38 h 17.4 v 7.62 z" />
      <path
         id="path32"
         style="font-family:'BioRhyme ExtraBold';letter-spacing:0.075em"
         d="m 378.39438,58.84 q 4.91999,0 8.63999,1.68 3.78,1.62 5.82,4.68 2.10001,3 2.10001,6.96 0,4.14 -2.04001,7.32 -1.98,3.12 -5.75999,4.86 -3.72001,1.74 -8.64001,1.74 h -8.04 v 6.3 h 7.38 V 100 h -23.63999 v -7.62 h 6.71999 V 66.46 h -6.71999 v -7.62 z m -0.42001,19.62 q 7.38,0 7.38,-6.42 0,-3.06 -2.22,-4.32 -2.22,-1.26 -5.4,-1.26 h -7.26 V 78.4 Z" />
      <path
         id="path34"
         style="font-family:'BioRhyme ExtraBold';letter-spacing:0.075em"
         d="m 426.33156,100.78 q -6.36,0 -11.52,-2.82 -5.16,-2.88 -8.1,-7.74 -2.88,-4.92 -2.88,-10.8 0,-5.88 2.88,-10.8 2.94,-4.92 8.1,-7.74 5.16,-2.88 11.52,-2.88 6.3,0 11.4,2.88 5.16,2.82 8.04,7.74 2.94,4.92 2.94,10.8 0,5.88 -2.94,10.8 -2.88,4.86 -8.04,7.74 -5.1,2.82 -11.4,2.82 z m 0,-7.86 q 3.72,0 6.48,-1.8 2.82,-1.86 4.26,-4.92 1.5,-3.12 1.5,-6.78 0,-3.72 -1.5,-6.78 -1.44,-3.12 -4.26,-4.92 -2.76,-1.86 -6.48,-1.86 -3.84,0 -6.66,1.86 -2.76,1.86 -4.26,4.98 -1.44,3.06 -1.44,6.72 0,3.72 1.44,6.84 1.5,3.06 4.26,4.86 2.82,1.8 6.66,1.8 z" />
      <path
         id="path36"
         style="font-family:'BioRhyme ExtraBold';letter-spacing:0.075em"
         d="m 504.65875,96.52 q -1.74,1.92 -3.9,3.12 -2.1,1.2 -5.28,1.2 -5.76,0 -9.6,-3.96 -3.78,-4.02 -5.7,-12.48 l -0.18,-0.78 h -6.36 v 8.82 h 6.42 V 100 h -22.86 v -7.62 h 6.72 V 66.46 h -6.72 v -7.62 h 24.66 q 7.44,0 11.94,3.24 4.5,3.18 4.5,9.06 0,4.68 -2.58,7.74 -2.52,3 -7.2,4.14 l 0.3,0.9 q 1.44,4.5 3.24,6.3 1.86,1.74 4.02,1.74 1.32,0 2.28,-0.42 0.96,-0.48 1.86,-1.32 z m -31.02,-20.04 h 8.52 q 2.52,0 4.5,-1.26 2.04,-1.26 2.04,-4.08 0,-2.52 -1.98,-3.6 -1.92,-1.08 -4.56,-1.08 h -8.52 z" />
      <path
         id="path38"
         style="font-family:'BioRhyme ExtraBold';letter-spacing:0.075em"
         d="M 556.37969,92.38 V 100 h -21 v -7.62 h 6.06 l -2.28,-6 h -15.06 l -2.22,6 h 6.66 V 100 h -20.58 v -7.62 h 4.86 l 11.04,-25.98 h -4.26 v -7.56 h 24.9 v 7.56 h -4.2 l 11.1,25.98 z m -19.74,-12.72 -4.98,-13.26 h -0.06 l -4.98,13.26 z" />
      <path
         id="path40"
         style="font-family:'BioRhyme ExtraBold';letter-spacing:0.075em"
         d="m 617.09875,66.46 h -6.36 v 33.9 l -5.22,0.06 -25.98,-28.62 v 20.58 h 6.72 V 100 h -22.56 v -7.62 h 6.72 V 66.46 h -6.72 v -7.62 h 15.84 l 22.32,25.26 V 66.46 h -6.72 v -7.62 h 21.96 z" />
      <path
         id="path42"
         style="font-family:'BioRhyme ExtraBold';letter-spacing:0.075em"
         d="m 658.82031,74.14 v -7.68 h -17.82 v 10.02 h 6.3 v -4.74 h 7.14 v 16.32 h -7.14 v -4.74 h -6.3 v 9.06 h 17.82 V 84.7 h 8.46 V 100 h -42.48 v -7.62 h 6.66 V 66.46 h -6.66 v -7.62 h 42.48 v 15.3 z" />
      <path
         id="path44"
         style="font-family:'BioRhyme ExtraBold';letter-spacing:0.075em"
         d="M 723.74688,92.38 V 100 h -21 v -7.62 h 6.05999 l -2.27999,-6 h -15.06001 l -2.21999,6 h 6.66 V 100 h -20.58001 v -7.62 h 4.86 l 11.04,-25.98 h -4.26 v -7.56 h 24.90001 v 7.56 h -4.20001 l 11.10001,25.98 z m -19.74,-12.72 -4.98,-13.26 h -0.06 l -4.97999,13.26 z" />
    </g>
  </g>
</svg>
