<?xml version="1.0" encoding="UTF-8" standalone="no"?>
<svg
   xmlns:dc="http://purl.org/dc/elements/1.1/"
   xmlns:cc="http://creativecommons.org/ns#"
   xmlns:rdf="http://www.w3.org/1999/02/22-rdf-syntax-ns#"
   xmlns:svg="http://www.w3.org/2000/svg"
   xmlns="http://www.w3.org/2000/svg"
   id="svg10"
   width="500px"
   version="1.1"
   height="200px">
  <metadata
     id="metadata14">
    <rdf:RDF>
      <cc:Work
         rdf:about="">
        <dc:format>image/svg+xml</dc:format>
        <dc:type
           rdf:resource="http://purl.org/dc/dcmitype/StillImage" />
      </cc:Work>
    </rdf:RDF>
  </metadata>
  <defs
     id="defs4">
    <style
       id="style2"
       type="text/css"><![CDATA[    
     @font-face {font-family:Blackoninaut Redux BRK;
     src: url('/Users/francesco/Repos/write-logos/src/fonts//blonirex.ttf');}]]></style>
  </defs>
  <g
     id="g8"
     style="font-size:30px;font-family:'Blackoninaut Redux BRK'">
    <g
       style=""
       id="text6"
       aria-label="eXtemporanea">
      <path
         id="path16"
         style=""
         d="m 109.75,93.94 q 0,-1.47 -1.05,-2.58 -1.02,-1.11 -2.52,-1.11 h -0.15 -1.14 -0.15 q -1.53,0 -2.55,1.11 -1.02,1.05 -1.02,2.58 v 2.34 q 0,1.5 1.05,2.61 1.02,1.08 2.52,1.08 l 0.15,0.03 h 2.52 l -0.21,-0.39 h -1.17 q -0.39,0 -0.69,-0.27 -0.27,-0.3 -0.27,-0.72 v -0.96 h 0.96 0.15 q 1.47,0 2.52,-1.08 1.05,-1.14 1.05,-2.64 z m -4.65,-3.3 q -0.42,0.36 -0.42,0.96 v 7.02 q 0,0.57 0.42,0.99 h -0.21 q -0.42,0 -0.72,-0.27 -0.27,-0.3 -0.27,-0.72 V 91.6 q 0,-0.39 0.27,-0.66 0.3,-0.3 0.72,-0.3 z m 1.92,0.96 v 4.68 q 0,0.42 -0.3,0.72 -0.27,0.27 -0.69,0.27 h -0.96 V 91.6 q 0,-0.39 0.27,-0.66 0.3,-0.3 0.69,-0.3 0.42,0 0.69,0.3 0.3,0.27 0.3,0.66 z" />
      <path
         id="path18"
         style=""
         d="m 120.88191,99.61 q -0.42,0 -0.69,-0.3 -0.27,-0.3 -0.27,-0.69 v -4.68 q 0,-1.26 -0.72,-2.19 -0.69,-0.93 -1.8,-1.29 1.14,-0.39 1.83,-1.35 0.69,-0.96 0.69,-2.16 v -2.34 q 0,-0.45 0.27,-0.72 0.27,-0.27 0.69,-0.27 l 0.21,-0.39 h -1.38 q -1.08,0 -1.8,0.75 -0.72,0.75 -0.72,1.8 v 3.51 q 0,0.39 -0.3,0.69 -0.27,0.27 -0.69,0.27 -0.39,0 -0.69,-0.27 -0.27,-0.3 -0.27,-0.69 v -4.68 q 0,-0.42 0.27,-0.69 0.3,-0.3 0.69,-0.3 l 0.21,-0.39 h -1.35 q -1.32,0 -2.34,0.84 -1.02,-0.84 -2.34,-0.84 h -0.21 l 0.21,0.39 q 0.42,0 0.69,0.3 0.27,0.3 0.27,0.69 v 2.34 q 0,1.2 0.69,2.16 0.72,0.96 1.83,1.35 -1.14,0.36 -1.83,1.32 -0.69,0.96 -0.69,2.16 v 4.68 q 0,0.45 -0.27,0.72 -0.27,0.27 -0.69,0.27 l -0.21,0.39 h 0.21 q 1.32,0 2.34,-0.84 1.02,0.84 2.34,0.84 h 1.35 l -0.21,-0.39 q -0.39,0 -0.69,-0.27 -0.27,-0.3 -0.27,-0.72 V 91.6 q 0,-0.39 0.27,-0.66 0.3,-0.3 0.69,-0.3 0.42,0 0.69,0.3 0.3,0.27 0.3,0.66 v 5.85 q 0,0.54 0.21,1.02 0.21,0.45 0.54,0.81 0.36,0.33 0.81,0.54 0.45,0.18 0.96,0.18 h 1.38 z m -5.61,-8.97 q -0.42,0.36 -0.42,0.96 v 7.02 q 0,0.57 0.42,0.99 h -0.21 q -0.42,0 -0.72,-0.27 -0.27,-0.3 -0.27,-0.72 V 91.6 q 0,-0.39 0.27,-0.66 0.3,-0.3 0.72,-0.3 z m 0,-0.39 h -0.21 q -0.42,0 -0.72,-0.27 -0.27,-0.3 -0.27,-0.69 v -4.68 q 0,-0.42 0.27,-0.69 0.3,-0.3 0.72,-0.3 h 0.21 q -0.42,0.42 -0.42,0.99 v 4.68 q 0,0.6 0.42,0.96 z" />
      <path
         id="path20"
         style=""
         d="m 128.50375,100 -0.18,-0.39 h -1.17 q -0.42,0 -0.72,-0.27 -0.27,-0.3 -0.27,-0.72 v -7.98 h 0.99 l 0.18,-0.18 -0.18,-0.21 h -0.99 v -2.13 q 0,-0.42 0.27,-0.69 0.3,-0.3 0.72,-0.3 l 0.18,-0.39 h -1.35 q -1.32,0 -2.34,0.84 -1.02,-0.84 -2.34,-0.84 h -0.21 l 0.21,0.39 q 0.42,0 0.69,0.3 0.27,0.3 0.27,0.69 v 1.17 q 0,0.42 -0.27,0.69 -0.27,0.27 -0.69,0.27 l -0.21,0.21 0.21,0.18 q 0.42,0 0.69,0.3 0.27,0.3 0.27,0.66 v 4.68 q 0,1.5 1.05,2.61 1.02,1.08 2.52,1.08 l 0.15,0.03 z m -2.31,-0.39 h -0.21 q -0.42,0 -0.72,-0.27 -0.27,-0.3 -0.27,-0.72 v -10.5 q 0,-0.42 0.27,-0.69 0.3,-0.3 0.72,-0.3 h 0.21 q -0.42,0.36 -0.42,0.99 v 10.5 q 0,0.57 0.42,0.99 z" />
      <path
         id="path22"
         style=""
         d="m 137.05566,93.94 q 0,-1.47 -1.05,-2.58 -1.02,-1.11 -2.52,-1.11 h -0.15 -1.14 -0.15 q -1.53,0 -2.55,1.11 -1.02,1.05 -1.02,2.58 v 2.34 q 0,1.5 1.05,2.61 1.02,1.08 2.52,1.08 l 0.15,0.03 h 2.52 l -0.21,-0.39 h -1.17 q -0.39,0 -0.69,-0.27 -0.27,-0.3 -0.27,-0.72 v -0.96 h 0.96 0.15 q 1.47,0 2.52,-1.08 1.05,-1.14 1.05,-2.64 z m -4.65,-3.3 q -0.42,0.36 -0.42,0.96 v 7.02 q 0,0.57 0.42,0.99 h -0.21 q -0.42,0 -0.72,-0.27 -0.27,-0.3 -0.27,-0.72 V 91.6 q 0,-0.39 0.27,-0.66 0.3,-0.3 0.72,-0.3 z m 1.92,0.96 v 4.68 q 0,0.42 -0.3,0.72 -0.27,0.27 -0.69,0.27 h -0.96 V 91.6 q 0,-0.39 0.27,-0.66 0.3,-0.3 0.69,-0.3 0.42,0 0.69,0.3 0.3,0.27 0.3,0.66 z" />
      <path
         id="path24"
         style=""
         d="m 154.33515,100 -0.18,-0.39 q -0.42,0 -0.72,-0.27 -0.27,-0.3 -0.27,-0.72 v -4.68 q 0,-1.56 -1.02,-2.61 -1.05,-1.08 -2.52,-1.08 h -0.15 -1.17 q -1.32,0 -2.34,0.84 -1.02,-0.84 -2.34,-0.84 h -1.17 q -1.32,0 -2.34,0.84 -1.02,-0.84 -2.34,-0.84 h -0.18 l 0.18,0.39 q 0.42,0 0.69,0.3 0.3,0.27 0.3,0.66 v 7.02 q 0,0.42 -0.3,0.72 -0.27,0.27 -0.69,0.27 l -0.18,0.39 h 0.18 q 1.32,0 2.34,-0.84 1.02,0.84 2.34,0.84 h 1.38 l -0.21,-0.39 q -0.42,0 -0.69,-0.3 -0.27,-0.3 -0.27,-0.69 V 91.6 q 0,-0.42 0.27,-0.69 0.27,-0.27 0.69,-0.27 0.42,0 0.69,0.3 0.3,0.27 0.3,0.66 v 5.85 q 0,0.54 0.21,1.02 0.21,0.45 0.54,0.81 0.36,0.33 0.81,0.54 0.45,0.18 0.96,0.18 h 2.55 l -0.21,-0.39 q -0.42,0 -0.69,-0.3 -0.27,-0.3 -0.27,-0.69 V 91.6 q 0,-0.42 0.27,-0.69 0.27,-0.27 0.69,-0.27 0.42,0 0.69,0.3 0.27,0.3 0.27,0.66 v 5.85 q 0,1.05 0.75,1.8 0.75,0.75 1.8,0.75 z m -11.67,-9.36 q -0.39,0.39 -0.39,0.96 v 7.02 q 0,0.57 0.39,0.99 h -0.21 q -0.42,0 -0.69,-0.3 -0.27,-0.3 -0.27,-0.69 V 91.6 q 0,-0.42 0.27,-0.69 0.27,-0.27 0.69,-0.27 z m 5.85,0 q -0.39,0.39 -0.39,0.96 v 7.02 q 0,0.57 0.39,0.99 h -0.21 q -0.42,0 -0.69,-0.3 -0.27,-0.3 -0.27,-0.69 V 91.6 q 0,-0.42 0.27,-0.69 0.27,-0.27 0.69,-0.27 z" />
      <path
         id="path26"
         style=""
         d="m 164.125,93.94 q 0,-1.47 -1.05,-2.58 -1.02,-1.11 -2.52,-1.11 h -0.15 -1.14 q -1.32,0 -2.34,0.84 -1.02,-0.84 -2.34,-0.84 h -0.21 l 0.21,0.39 q 0.42,0 0.69,0.3 0.27,0.3 0.27,0.66 v 7.02 q 0,0.45 -0.27,0.72 -0.27,0.27 -0.69,0.27 l -0.21,0.18 0.21,0.21 q 0.96,0 0.96,0.96 v 3.51 q 0,0.45 -0.27,0.72 -0.27,0.27 -0.69,0.27 l -0.21,0.39 h 0.21 q 1.29,0 2.34,-0.87 1.05,0.87 2.34,0.87 h 1.35 l -0.21,-0.39 q -0.39,0 -0.69,-0.3 -0.27,-0.27 -0.27,-0.69 V 100 h 0.96 l 0.15,-0.03 q 0.75,0 1.41,-0.27 0.66,-0.3 1.14,-0.81 0.48,-0.51 0.75,-1.17 0.27,-0.66 0.27,-1.44 z m -4.65,-3.3 q -0.42,0.36 -0.42,0.96 v 12.87 q 0,0.57 0.42,0.99 h -0.21 q -0.42,0 -0.72,-0.3 -0.27,-0.27 -0.27,-0.69 V 91.6 q 0,-0.39 0.27,-0.66 0.3,-0.3 0.72,-0.3 z m 1.92,0.96 v 7.02 q 0,0.42 -0.3,0.72 -0.27,0.27 -0.69,0.27 h -0.96 V 91.6 q 0,-0.39 0.27,-0.66 0.3,-0.3 0.69,-0.3 0.42,0 0.69,0.3 0.3,0.27 0.3,0.66 z" />
      <path
         id="path28"
         style=""
         d="m 173.85254,93.94 q 0,-1.47 -1.05,-2.58 -1.02,-1.11 -2.52,-1.11 h -0.15 -1.14 -0.15 q -1.53,0 -2.55,1.11 -1.02,1.05 -1.02,2.58 v 2.34 q 0,1.5 1.05,2.61 1.02,1.08 2.52,1.08 l 0.15,0.03 h 1.14 l 0.15,-0.03 q 0.75,0 1.41,-0.27 0.66,-0.3 1.14,-0.81 0.48,-0.51 0.75,-1.17 0.27,-0.66 0.27,-1.44 z m -4.65,5.67 h -0.21 q -0.42,0 -0.72,-0.27 -0.27,-0.3 -0.27,-0.72 V 91.6 q 0,-0.39 0.27,-0.66 0.3,-0.3 0.72,-0.3 h 0.21 q -0.42,0.36 -0.42,0.96 v 7.02 q 0,0.57 0.42,0.99 z m 1.92,-8.01 v 7.02 q 0,0.42 -0.3,0.72 -0.27,0.27 -0.69,0.27 -0.39,0 -0.69,-0.27 -0.27,-0.3 -0.27,-0.72 V 91.6 q 0,-0.39 0.27,-0.66 0.3,-0.3 0.69,-0.3 0.42,0 0.69,0.3 0.3,0.27 0.3,0.66 z" />
      <path
         id="path30"
         style=""
         d="m 184.14203,92.77 q 0,-0.54 -0.3,-0.99 -0.27,-0.48 -0.78,-0.81 -0.51,-0.33 -1.2,-0.51 -0.66,-0.21 -1.44,-0.21 h -1.14 q -1.32,0 -2.34,0.84 -1.02,-0.84 -2.34,-0.84 h -0.21 l 0.21,0.39 q 0.42,0 0.69,0.3 0.27,0.3 0.27,0.66 v 7.02 q 0,0.45 -0.27,0.72 -0.27,0.27 -0.69,0.27 l -0.21,0.39 h 0.21 q 1.32,0 2.34,-0.84 1.02,0.84 2.34,0.84 h 1.35 l -0.21,-0.39 q -0.39,0 -0.69,-0.27 -0.27,-0.3 -0.27,-0.72 V 91.6 q 0,-0.39 0.27,-0.66 0.3,-0.3 0.69,-0.3 0.42,0 0.69,0.3 0.3,0.27 0.3,0.66 v 1.17 q 0,0.6 0.39,0.99 0.39,0.39 0.96,0.39 0.6,0 0.99,-0.39 0.39,-0.39 0.39,-0.99 z m -4.65,-2.13 q -0.42,0.36 -0.42,0.96 v 7.02 q 0,0.57 0.42,0.99 h -0.21 q -0.42,0 -0.72,-0.27 -0.27,-0.3 -0.27,-0.72 V 91.6 q 0,-0.39 0.27,-0.66 0.3,-0.3 0.72,-0.3 z" />
      <path
         id="path32"
         style=""
         d="m 193.93561,100 -0.21,-0.39 q -0.42,0 -0.69,-0.3 -0.27,-0.3 -0.27,-0.69 v -4.68 q 0,-1.47 -1.05,-2.58 -1.02,-1.11 -2.52,-1.11 h -0.15 -2.52 l 0.21,0.39 h 1.17 q 0.39,0 0.66,0.3 0.3,0.27 0.3,0.66 v 0.99 h -0.96 -0.15 q -1.53,0 -2.55,1.11 -1.02,1.05 -1.02,2.58 0,1.5 1.05,2.61 1.02,1.08 2.52,1.08 l 0.15,0.03 h 1.14 q 1.32,0 2.34,-0.84 1.02,0.84 2.34,0.84 z m -5.07,-1.38 q 0,0.42 -0.3,0.72 -0.27,0.27 -0.66,0.27 -0.42,0 -0.72,-0.27 -0.27,-0.3 -0.27,-0.72 v -4.68 q 0,-0.42 0.3,-0.69 0.3,-0.27 0.69,-0.27 h 0.96 z m 1.17,-7.02 v 7.02 q 0,0.42 -0.3,0.72 -0.27,0.27 -0.69,0.27 h -0.21 q 0.42,-0.42 0.42,-0.99 V 91.6 q 0,-0.6 -0.42,-0.96 h 0.21 q 0.42,0 0.69,0.3 0.3,0.27 0.3,0.66 z" />
      <path
         id="path34"
         style=""
         d="m 204.84578,100 -0.21,-0.39 q -0.42,0 -0.69,-0.3 -0.27,-0.3 -0.27,-0.69 v -4.68 q 0,-1.47 -1.05,-2.58 -1.02,-1.11 -2.52,-1.11 h -0.15 -1.14 q -1.32,0 -2.34,0.84 -1.02,-0.84 -2.34,-0.84 h -0.21 l 0.21,0.39 q 0.42,0 0.69,0.3 0.27,0.3 0.27,0.66 v 7.02 q 0,0.45 -0.27,0.72 -0.27,0.27 -0.69,0.27 l -0.21,0.39 h 0.21 q 1.32,0 2.34,-0.84 1.02,0.84 2.34,0.84 h 1.35 l -0.21,-0.39 q -0.39,0 -0.69,-0.27 -0.27,-0.3 -0.27,-0.72 V 91.6 q 0,-0.39 0.27,-0.66 0.3,-0.3 0.69,-0.3 0.42,0 0.69,0.3 0.3,0.27 0.3,0.66 v 5.85 q 0,0.54 0.21,1.02 0.21,0.45 0.54,0.81 0.36,0.33 0.81,0.54 0.45,0.18 0.96,0.18 z m -5.82,-9.36 q -0.42,0.36 -0.42,0.96 v 7.02 q 0,0.57 0.42,0.99 h -0.21 q -0.42,0 -0.72,-0.27 -0.27,-0.3 -0.27,-0.72 V 91.6 q 0,-0.39 0.27,-0.66 0.3,-0.3 0.72,-0.3 z" />
      <path
         id="path36"
         style=""
         d="m 213.6405,93.94 q 0,-1.47 -1.05,-2.58 -1.02,-1.11 -2.52,-1.11 h -0.15 -1.14 -0.15 q -1.53,0 -2.55,1.11 -1.02,1.05 -1.02,2.58 v 2.34 q 0,1.5 1.05,2.61 1.02,1.08 2.52,1.08 l 0.15,0.03 h 2.52 l -0.21,-0.39 h -1.17 q -0.39,0 -0.69,-0.27 -0.27,-0.3 -0.27,-0.72 v -0.96 h 0.96 0.15 q 1.47,0 2.52,-1.08 1.05,-1.14 1.05,-2.64 z m -4.65,-3.3 q -0.42,0.36 -0.42,0.96 v 7.02 q 0,0.57 0.42,0.99 h -0.21 q -0.42,0 -0.72,-0.27 -0.27,-0.3 -0.27,-0.72 V 91.6 q 0,-0.39 0.27,-0.66 0.3,-0.3 0.72,-0.3 z m 1.92,0.96 v 4.68 q 0,0.42 -0.3,0.72 -0.27,0.27 -0.69,0.27 h -0.96 V 91.6 q 0,-0.39 0.27,-0.66 0.3,-0.3 0.69,-0.3 0.42,0 0.69,0.3 0.3,0.27 0.3,0.66 z" />
      <path
         id="path38"
         style=""
         d="m 224.29701,100 -0.21,-0.39 q -0.42,0 -0.69,-0.3 -0.27,-0.3 -0.27,-0.69 v -4.68 q 0,-1.47 -1.05,-2.58 -1.02,-1.11 -2.52,-1.11 h -0.15 -2.52 l 0.21,0.39 h 1.17 q 0.39,0 0.66,0.3 0.3,0.27 0.3,0.66 v 0.99 h -0.96 -0.15 q -1.53,0 -2.55,1.11 -1.02,1.05 -1.02,2.58 0,1.5 1.05,2.61 1.02,1.08 2.52,1.08 l 0.15,0.03 h 1.14 q 1.32,0 2.34,-0.84 1.02,0.84 2.34,0.84 z m -5.07,-1.38 q 0,0.42 -0.3,0.72 -0.27,0.27 -0.66,0.27 -0.42,0 -0.72,-0.27 -0.27,-0.3 -0.27,-0.72 v -4.68 q 0,-0.42 0.3,-0.69 0.3,-0.27 0.69,-0.27 h 0.96 z m 1.17,-7.02 v 7.02 q 0,0.42 -0.3,0.72 -0.27,0.27 -0.69,0.27 h -0.21 q 0.42,-0.42 0.42,-0.99 V 91.6 q 0,-0.6 -0.42,-0.96 h 0.21 q 0.42,0 0.69,0.3 0.3,0.27 0.3,0.66 z" />
    </g>
  </g>
</svg>
