<?xml version="1.0" encoding="UTF-8" standalone="no"?>
<svg
   xmlns:dc="http://purl.org/dc/elements/1.1/"
   xmlns:cc="http://creativecommons.org/ns#"
   xmlns:rdf="http://www.w3.org/1999/02/22-rdf-syntax-ns#"
   xmlns:svg="http://www.w3.org/2000/svg"
   xmlns="http://www.w3.org/2000/svg"
   id="svg10"
   width="500px"
   version="1.1"
   height="200px">
  <metadata
     id="metadata14">
    <rdf:RDF>
      <cc:Work
         rdf:about="">
        <dc:format>image/svg+xml</dc:format>
        <dc:type
           rdf:resource="http://purl.org/dc/dcmitype/StillImage" />
      </cc:Work>
    </rdf:RDF>
  </metadata>
  <defs
     id="defs4">
    <style
       id="style2"
       type="text/css"><![CDATA[    
     @font-face {font-family:Blue Cobra Laser Italic;
     src: url('/Users/francesco/Repos/write-logos/src/fonts//bluecobralaserital.ttf');}]]></style>
  </defs>
  <g
     id="g8"
     style="font-size:30px;font-family:'Blue Cobra Laser Italic'">
    <g
       style=""
       id="text6"
       aria-label="eXtemporanea">
      <path
         id="path16"
         style=""
         d="m 107.83,86.41 h -2.55 l 1.53,-7.14 h -1.65 L 100.75,100 h 4.2 l 0.33,-1.62 h -2.55 l 2.22,-10.35 h 2.55 z m 1.77,-8.22 0.33,-1.62 h -4.2 l -0.33,1.62 z" />
      <path
         id="path18"
         style=""
         d="m 111.35359,84.55 1.14,-5.28 h -1.65 l -1.26,5.94 q 0,0.12 0.09,0.39 0.09,0.27 0.24,0.57 0.18,0.3 0.42,0.6 0.24,0.27 0.51,0.42 -0.36,0.18 -0.72,0.48 -0.36,0.27 -0.63,0.57 -0.27,0.27 -0.48,0.54 -0.18,0.24 -0.24,0.36 l -2.31,10.86 h 1.65 l 2.16,-10.14 q 0.06,-0.33 0.48,-0.78 0.42,-0.45 0.87,-0.78 0.3,0.33 0.51,0.78 0.24,0.45 0.18,0.78 l -2.16,10.14 h 1.65 l 2.31,-10.86 q 0,-0.12 -0.09,-0.36 -0.09,-0.27 -0.27,-0.54 -0.15,-0.3 -0.39,-0.57 -0.21,-0.3 -0.48,-0.48 0.36,-0.15 0.69,-0.42 0.36,-0.3 0.63,-0.6 0.3,-0.3 0.51,-0.57 0.21,-0.27 0.27,-0.39 l 1.26,-5.94 h -1.65 l -1.14,5.28 q -0.06,0.36 -0.51,0.84 -0.45,0.45 -0.87,0.75 -0.33,-0.3 -0.57,-0.75 -0.21,-0.48 -0.15,-0.84 z m 1.71,-7.98 h -1.65 l -0.33,1.62 h 1.65 z m 3.75,0 h -1.65 l -0.33,1.62 h 1.65 z" />
      <path
         id="path20"
         style=""
         d="m 116.70766,100 4.41,-20.73 h -1.65 l -4.41,20.73 z m 6.72,-23.43 h -5.1 l -0.33,1.62 h 5.1 z" />
      <path
         id="path22"
         style=""
         d="m 127.04875,86.41 h -2.55 l 1.53,-7.14 h -1.65 l -4.41,20.73 h 4.2 l 0.33,-1.62 h -2.55 l 2.22,-10.35 h 2.55 z m 1.77,-8.22 0.33,-1.62 h -4.2 l -0.33,1.62 z" />
      <path
         id="path24"
         style=""
         d="m 132.16234,86.44 -2.88,13.56 h 1.65 l 2.88,-13.56 3.18,-5.64 -4.08,19.2 h 1.65 l 4.41,-20.73 h -2.61 l -2.97,5.19 -0.75,-5.19 h -2.58 l -4.41,20.73 h 1.65 l 4.08,-19.2 z m 7.38,-9.87 h -1.62 l -0.93,1.62 h 2.22 z m -8.91,0 -0.33,1.62 h 2.19 l -0.24,-1.62 z" />
      <path
         id="path26"
         style=""
         d="m 137.73203,100 1.32,-6.15 h 2.7 q 0.27,0 0.48,-0.15 0.24,-0.18 0.42,-0.42 0.18,-0.24 0.3,-0.51 0.12,-0.27 0.18,-0.48 l 2.76,-13.02 h -1.62 l -2.52,11.88 q -0.06,0.33 -0.24,0.72 -0.15,0.36 -0.6,0.36 h -1.53 l 2.76,-12.96 h -1.65 l -4.41,20.73 z m 6.18,-21.81 h 0.09 2.13 v -0.06 q 0.03,-0.21 0.03,-0.48 0,-0.27 -0.09,-0.51 -0.06,-0.24 -0.24,-0.39 -0.15,-0.18 -0.42,-0.18 h -4.35 l -0.33,1.62 z" />
      <path
         id="path28"
         style=""
         d="m 147.34609,100 q 0.27,0 0.48,-0.15 0.24,-0.18 0.42,-0.42 0.18,-0.24 0.3,-0.51 0.12,-0.27 0.18,-0.48 l 4.08,-19.17 h -1.65 l -3.84,18.03 q -0.06,0.33 -0.24,0.72 -0.15,0.36 -0.6,0.36 h -0.9 q -0.24,0 -0.33,-0.09 -0.09,-0.12 -0.12,-0.27 0,-0.18 0.03,-0.36 0.03,-0.18 0.06,-0.36 l 3.84,-18.03 h -1.65 l -4.08,19.17 q -0.06,0.21 -0.06,0.48 0.03,0.27 0.09,0.51 0.09,0.24 0.24,0.42 0.18,0.15 0.45,0.15 z m 5.7,-21.87 q 0.03,-0.21 0.03,-0.48 0,-0.27 -0.09,-0.51 -0.06,-0.24 -0.24,-0.39 -0.15,-0.18 -0.42,-0.18 h -3.3 q -0.27,0 -0.51,0.18 -0.24,0.15 -0.42,0.39 -0.18,0.24 -0.3,0.51 -0.12,0.27 -0.15,0.48 v 0.06 h 5.4 z" />
      <path
         id="path30"
         style=""
         d="m 157.77016,88.42 q 0.09,-0.39 -0.18,-0.75 -0.27,-0.36 -0.51,-0.45 0.27,-0.06 0.63,-0.42 0.39,-0.36 0.54,-0.69 l 1.47,-6.84 h -1.65 l -1.29,6.06 q -0.24,1.08 -0.96,1.08 h -1.38 l 1.53,-7.14 h -1.65 l -4.41,20.73 h 1.65 l 2.55,-11.97 h 1.38 q 0.36,0 0.45,0.33 0.12,0.3 0.03,0.75 l -2.31,10.89 h 1.65 z m -0.06,-10.23 h 0.09 2.16 v -0.06 q 0.03,-0.21 0.03,-0.48 0,-0.27 -0.09,-0.51 -0.06,-0.24 -0.24,-0.39 -0.15,-0.18 -0.42,-0.18 h -4.35 l -0.33,1.62 z" />
      <path
         id="path32"
         style=""
         d="m 162.88422,79.27 h -1.65 l -4.41,20.73 h 1.65 l 1.32,-6.15 h 2.1 l -1.32,6.15 h 1.65 l 4.41,-20.73 h -1.65 l -2.76,12.96 h -2.1 z m -0.03,-2.7 q -0.27,0 -0.51,0.18 -0.24,0.15 -0.42,0.39 -0.18,0.24 -0.3,0.51 -0.12,0.27 -0.15,0.48 v 0.06 h 5.4 v -0.06 q 0.03,-0.21 0.03,-0.48 0,-0.27 -0.09,-0.51 -0.06,-0.24 -0.24,-0.39 -0.15,-0.18 -0.42,-0.18 z" />
      <path
         id="path34"
         style=""
         d="m 170.51828,86.29 -2.91,13.71 h 1.65 l 4.41,-20.73 h -1.65 l -0.75,3.45 -0.66,-3.45 h -2.46 l -4.41,20.73 h 1.65 l 4.08,-19.23 z m -1.8,-9.72 -0.33,1.62 h 2.04 l -0.33,-1.62 z m 5.52,0 h -1.65 l -0.33,1.62 h 1.65 z" />
      <path
         id="path36"
         style=""
         d="m 177.84953,86.41 h -2.55 l 1.53,-7.14 h -1.65 l -4.41,20.73 h 4.2 l 0.33,-1.62 h -2.55 l 2.22,-10.35 h 2.55 z m 1.77,-8.22 0.33,-1.62 h -4.2 l -0.33,1.62 z" />
      <path
         id="path38"
         style=""
         d="m 182.51312,79.27 h -1.65 l -4.41,20.73 h 1.65 l 1.32,-6.15 h 2.1 l -1.32,6.15 h 1.65 l 4.41,-20.73 h -1.65 l -2.76,12.96 h -2.1 z m -0.03,-2.7 q -0.27,0 -0.51,0.18 -0.24,0.15 -0.42,0.39 -0.18,0.24 -0.3,0.51 -0.12,0.27 -0.15,0.48 v 0.06 h 5.4 v -0.06 q 0.03,-0.21 0.03,-0.48 0,-0.27 -0.09,-0.51 -0.06,-0.24 -0.24,-0.39 -0.15,-0.18 -0.42,-0.18 z" />
    </g>
  </g>
</svg>
