<?xml version="1.0" encoding="UTF-8" standalone="no"?>
<svg
   xmlns:dc="http://purl.org/dc/elements/1.1/"
   xmlns:cc="http://creativecommons.org/ns#"
   xmlns:rdf="http://www.w3.org/1999/02/22-rdf-syntax-ns#"
   xmlns:svg="http://www.w3.org/2000/svg"
   xmlns="http://www.w3.org/2000/svg"
   id="svg16"
   width="800px"
   version="1.1"
   height="200px">
  <metadata
     id="metadata20">
    <rdf:RDF>
      <cc:Work
         rdf:about="">
        <dc:format>image/svg+xml</dc:format>
        <dc:type
           rdf:resource="http://purl.org/dc/dcmitype/StillImage" />
      </cc:Work>
    </rdf:RDF>
  </metadata>
  <defs
     id="defs4">
    <style
       id="style2"
       type="text/css"><![CDATA[    
     @font-face {font-family:Blue Cobra Gradient Italic;
     src: url('/Users/francesco/Repos/write-logos/src/fonts/bluecobragradital.ttf');}
     @font-face {font-family:Sabbia;
     src: url('/Users/francesco/Repos/write-logos/src/fonts/Sabbia.ttf');}
     ]]></style>
  </defs>
  <g
     id="g14"
     style="font-size:60px">
    <g
       style="text-anchor:middle"
       id="text12"
       aria-label="eXtemporanea">
      <path
         id="path22"
         style="font-family:'Blue Cobra Gradient Italic'"
         d="m 318.88844,98.8 h 8.4 l 0.42,-1.86 h -8.4 z m 5.1,-24 h 8.4 l 0.24,-1.02 h -8.4 z m 3.06,25.2 0.18,-0.72 h -8.4 l -0.18,0.72 z m -7.62,-3.6 h 3.3 l 0.36,-1.74 h -3.3 z m 0.48,-2.4 h 3.3 l 0.36,-1.68 h -3.3 z m 0.54,-2.4 h 3.3 l 0.3,-1.56 h -3.3 z m 0.48,-2.4 h 3.3 l 0.36,-1.5 h -3.3 z m 0.54,-2.4 h 3.3 l 0.3,-1.44 h -3.3 z m 0.48,-2.4 h 3.3 l 0.3,-1.32 h -3.3 z m 0.54,-2.4 h 3.3 l 0.24,-1.26 h -3.3 z m 0.48,-2.4 h 3.3 l 0.24,-1.14 h -3.3 z m 0.54,-2.4 h 3.3 l 0.24,-1.08 h -3.3 z m 4.56,-21.54 h 8.4 l 0.12,-0.42 h -8.4 z m -3.54,16.74 h 3.3 l 0.18,-0.9 h -3.3 z m 0.48,-2.4 h 3.3 l 0.18,-0.84 h -3.3 z m 0.54,-2.4 h 3.3 l 0.18,-0.78 h -3.3 z m 0.48,-2.4 h 3.3 l 0.18,-0.66 h -3.3 z m 0.54,-2.4 h 3.3 l 0.12,-0.6 h -3.3 z m 0.48,-2.4 h 3.3 l 0.12,-0.48 h -3.3 z m 0.54,-2.4 h 3.3 l 0.06,-0.42 h -3.3 z m 9.42,-4.86 h -8.4 v 0.12 h 8.4 z" />
      <path
         id="path24"
         style="font-family:Sabbia"
         d="m 334.03562,99.94 -0.18,1.08 h -5.22 l 3.84,-20.94 -1.26,-6.36 -0.24,-1.32 -2.34,-12.72 h 0.30001 l 1.13999,-3 h 4.86001 l 0.83999,4.98 0.42,-1.98 h 0.24001 l 1.13999,-3 h 4.92001 l -3.84001,20.34 1.44,7.5 2.34001,13.14 -1.14001,2.82 0.12,0.54 h -5.22 l -0.95999,-5.34 -0.3,1.98 z m 0.96001,-30.48 -1.62,-9.24 h -4.08001 q 0.84,4.74 1.8,9.96 1.02001,5.16 1.92,9.9 l -3.72,20.4 h 4.08001 l 1.62,-9.42 1.68,9.42 h 4.07999 q -0.84,-4.86 -1.86,-10.14 -0.95999,-5.28 -1.86,-10.14 l 3.72,-19.98 h -4.07999 z m 3.65999,29.16 q 0,-0.24 0.3,-0.24 l -0.12,-0.54 q -0.12,0 -0.12,-0.18 0,-0.18 0.06,-0.18 V 97.3 q -0.06,0.12 -0.3,0.12 -0.23999,0 -0.23999,-0.36 0,-0.36 0.29999,-0.36 h 0.12 l -0.12,-0.42 q -0.29999,0.12 -0.29999,-0.36 0,-0.12 0.17999,-0.3 l -0.06,-0.54 q -0.11999,-0.24 -0.11999,-0.3 0,-0.12 0.06,-0.18 v -0.06 q -0.06,0 -0.11999,0.06 -0.06,0 -0.12,0 -0.42001,0 -0.42001,-0.42 0,-0.36 0.42001,-0.36 l 0.06,0.06 -0.06,-0.48 h -0.06 q -0.36001,0 -0.36001,-0.42 0,-0.18 0.30001,-0.3 l -0.12001,-0.42 q -0.24,-0.12 -0.24,-0.3 0,-0.18 0.18,-0.3 l -0.06,-0.12 q -0.12,0.18 -0.3,0.18 -0.36,0 -0.36,-0.36 0,-0.3 0.36,-0.3 0.12,0 0.24,0.12 l -0.06,-0.12 v -0.18 -0.06 l -0.06,-0.18 q -0.06,0 -0.06,0.06 0,0 -0.06,0 -0.36,-0.06 -0.36,-0.36 -0.06,-0.12 0.06,-0.18 0.12,-0.06 0.24,0 h 0.12 l -0.06,-0.48 q 0,0.06 -0.12,0.06 -0.3,0 -0.3,-0.3 0,-0.3 0.24,-0.18 h 0.12 l -0.06,-0.36 h -0.06 q -0.3,0 -0.3,-0.18 0,-0.18 0.24,-0.18 h 0.06 l -0.12,-0.3 q -0.24,0 -0.24,-0.12 0,-0.12 0.18,-0.12 h 0.06 l -0.06,-0.3 h -0.12 q -0.12,-0.06 -0.12,-0.06 0,-0.06 0.12,-0.06 h 0.12 l -1.38,-7.44 1.38,-7.38 h -0.18 q -0.11999,0.06 -0.17999,0.06 0,-0.06 0.06,-0.12 h 0.06 q 0.06,-0.06 0.12,-0.06 h 0.12 l 0.06,-0.36 h -0.12 q -0.23999,0 -0.18,-0.06 0,-0.18 0.24,-0.18 0.06,0 0.12,0.06 l 0.06,-0.48 q -0.06,0.06 -0.12,0.06 -0.35999,0 -0.24,-0.18 0,-0.18 0.3,-0.18 h 0.12 l 0.12,-0.54 q -0.12,0.12 -0.24,0.12 -0.3,0 -0.3,-0.24 0.06,-0.24 0.36,-0.24 h 0.24 V 70.3 70.18 q 0,-0.12 0.06,-0.18 l 0.06,-0.3 q -0.12,0.3 -0.3,0.3 -0.36,0 -0.36,-0.3 0,-0.3 0.36,-0.3 0.3,0 0.3,0.24 v 0.06 l 0.06,-0.24 q -0.18,-0.06 -0.18,-0.3 0,-0.18 0.24,-0.3 l 0.12,-0.42 q -0.3,0 -0.3,-0.36 0,-0.36 0.36001,-0.36 h 0.06 l 0.12,-0.42 h -0.18 q -0.36001,0.12 -0.36001,-0.36 0,-0.36 0.42001,-0.36 0.06,0 0.12,0.06 0.06,0 0.12,0 v -0.06 q 0,-0.06 -0.06,-0.06 0,-0.06 0,-0.12 0,-0.18 0.12,-0.3 l 0.06,-0.24 q -0.11999,0.3 -0.35999,0.3 -0.42001,0 -0.42001,-0.42 0,-0.3 0.42001,-0.3 0.35999,0 0.35999,0.3 v 0.06 l 0.06,-0.24 q -0.23999,-0.12 -0.23999,-0.36 0,-0.42 0.35999,-0.42 l 0.06,-0.36 h -0.12 q -0.29999,0 -0.29999,-0.36 0,-0.36 0.29999,-0.36 0.12,0 0.24,0.12 V 63.7 63.52 q 0,-0.24 0.12,-0.3 l 0.06,-0.48 q -0.24,0 -0.24,-0.3 0,-0.36 0.3,-0.36 0.06,0.06 0.06,0.06 l 0.12,-0.54 q -0.12,0.12 -0.24,0.12 -0.18,0 -0.3,-0.3 h -0.41999 q -0.12,0.24 -0.30001,0.24 -0.12,0 -0.24,-0.12 v 0.18 q 0,0.06 0.06,0.12 0,0.18 -0.18,0.24 v 0.48 q 0.24,0.12 0.24,0.3 0,0.42 -0.36,0.42 v -0.06 l -0.12,0.48 h 0.18 q 0.3,0 0.3,0.3 0,0.42 -0.3,0.42 -0.18,0 -0.3,-0.12 v 0.06 q 0.12,0.12 0.12,0.3 0,0.18 -0.24,0.3 l -0.06,0.48 q 0.3,0 0.3,0.3 0,0.48 -0.42,0.48 h -0.06 l -0.06,0.42 q 0,-0.06 0.11999,-0.06 0.36,0 0.36,0.36 0,0.42 -0.36,0.42 -0.17999,0 -0.29999,-0.06 v 0.06 q 0.06,0.06 0.06,0.24 0,0.06 -0.06,0.12 0,0.06 0,0.12 l -0.06,0.18 q 0.12,-0.3 0.3,-0.3 0.41999,0 0.41999,0.36 0,0.42 -0.41999,0.42 -0.3,0 -0.3,-0.36 l -0.06,0.24 q 0.12,0.06 0.12,0.24 0,0.36 -0.24001,0.42 l -0.12,0.42 q 0.36001,0 0.36001,0.24 0,0.36 -0.36001,0.36 h -0.12 l -0.06,0.36 h 0.18 q 0.30001,0 0.30001,0.24 0,0.3 -0.36001,0.3 -0.06,0 -0.12,0 0,-0.06 -0.06,-0.06 l -0.06,0.18 v 0.06 q 0,0.12 -0.06,0.12 l -0.06,0.54 q 0.06,0.06 0.06,0.12 0,0.12 -0.12,0.12 l -0.06,0.3 h -1.44 -0.06 -0.06 q -0.24,0 -0.24,-0.12 -0.11999,-0.12 0.24,-0.12 h 0.06 l -0.12,-0.36 q -0.29999,0 -0.29999,-0.24 0,-0.18 0.23999,-0.18 l -0.06,-0.36 q -0.23999,-0.06 -0.23999,-0.3 0,-0.12 0.12,-0.24 l -0.06,-0.42 q -0.12,-0.12 -0.12,-0.3 0,-0.06 0,-0.06 0.06,-0.06 0.06,-0.12 v -0.06 q -0.06,0 -0.12,0.06 -0.06,0 -0.18001,0 -0.36,0 -0.36,-0.3 0,-0.36 0.36,-0.36 0.18001,0 0.24001,0.06 l -0.12,-0.42 h -0.18001 q -0.36,0 -0.36,-0.42 0,-0.36 0.36,-0.36 h 0.06 l -0.06,-0.36 q -0.42,0 -0.42,-0.42 0,-0.3 0.24,-0.3 l -0.06,-0.24 q 0,0.36 -0.3,0.36 -0.42,0 -0.42,-0.36 0,-0.42 0.42,-0.42 0.18,0 0.3,0.24 V 66.1 q -0.18,-0.06 -0.18,-0.36 0,-0.06 0.06,-0.12 v -0.06 q -0.06,0 -0.06,0.06 0,0 -0.06,0 h -0.06 q -0.42,0 -0.42,-0.42 0,-0.42 0.42,-0.42 v -0.36 q -0.42,0 -0.42,-0.42 0,-0.18 0.3,-0.3 l -0.12,-0.54 q -0.12,-0.12 -0.12,-0.3 0,-0.06 0.06,-0.12 l -0.06,-0.12 q -0.11999,0.12 -0.17999,0.12 -0.36001,0 -0.36001,-0.36 0,-0.36 0.36001,-0.36 h 0.11999 l -0.11999,-0.36 q -0.24,0 -0.24,-0.24 h -0.42001 q -0.12,0.3 -0.36,0.3 -0.24,0 -0.24,-0.3 h -0.17999 v 0.3 q 0.17999,0 0.17999,0.24 0,0.06 -0.06,0.12 0,0 0,0.06 v 0.18 q 0.06,-0.12 0.3,-0.24 0.3,0 0.3,0.36 -0.12,0.36 -0.36,0.36 -0.06,0 -0.12,0 0,-0.06 -0.06,-0.06 l 0.06,0.42 h 0.12 q 0.3,0 0.3,0.36 0,0.3 -0.24,0.3 l 0.06,0.54 q 0.18,0.12 0.18,0.3 -0.06,0.12 -0.06,0.12 v 0.12 q 0,0 0.24,-0.12 0.30001,0 0.30001,0.42 0,0.42 -0.30001,0.42 -0.06,0 -0.12,-0.06 l 0.12,0.42 q 0.30001,0 0.30001,0.42 0,0.24 -0.18001,0.3 l 0.12,0.48 q 0,0.12 0.12001,0.36 0,0.06 -0.12001,0.18 l 0.06,0.12 q 0.06,-0.12 0.24,-0.12 0.41999,0 0.41999,0.36 0,0.36 -0.35999,0.36 -0.18,0 -0.24,-0.06 l 0.12,0.48 q 0.06,-0.06 0.12,-0.06 0.35999,0 0.35999,0.36 0.12,0.3 -0.29999,0.3 h -0.06 l 0.06,0.42 q 0.35999,0 0.35999,0.3 0,0.24 -0.24,0.24 l 0.06,0.42 q 0.24,0.12 0.24,0.24 0,0.18 -0.12,0.18 l 0.06,0.42 q 0.12,0.12 0.12,0.18 0,0.06 -0.06,0.12 l 0.06,0.36 q 0.06,0.06 0.06,0.12 0,0.06 -0.06,0.06 l 0.06,0.36 h 0.12 q 0,0.06 -0.12,0.06 l 1.38,7.02 -1.44,7.86 h 0.06 q 0.18,0 0.18,0.06 -0.06,0.06 -0.24,0.06 l -0.06,0.3 h 0.06 q 0.12,0 0.12,0.12 0,0.18 -0.18,0.18 h -0.06 l -0.06,0.42 h 0.06 q 0.18,-0.06 0.18,0.18 -0.12,0.12 -0.24,0.18 h -0.06 l -0.06,0.42 h 0.06 q 0.24,-0.06 0.24,0.24 0,0.18 -0.3,0.18 h -0.12 l -0.06,0.48 h 0.11999 q 0.36,-0.12 0.36,0.3 -0.12,0.24 -0.36,0.24 -0.17999,0 -0.23999,-0.06 l -0.06,0.24 v 0.06 0.12 l -0.06,0.24 q 0.06,-0.18 0.29999,-0.18 0.36,0 0.36,0.36 0,0.3 -0.41999,0.3 -0.24,0 -0.3,-0.18 v 0.12 q 0.12,0.12 0.12,0.3 0,0.24 -0.24001,0.36 l -0.06,0.42 q 0.24001,0 0.24001,0.36 0,0.36 -0.30001,0.36 h -0.06 l -0.06,0.42 h 0.12 q 0.30001,0 0.30001,0.36 0,0.36 -0.30001,0.36 -0.12,0 -0.24,-0.12 l -0.06,0.12 q 0.06,0.06 0.06,0.24 0,0.18 -0.12,0.3 l -0.12,0.48 q 0.3,0.12 0.3,0.36 0,0.3 -0.36,0.3 h -0.06 l -0.06,0.48 q 0.06,-0.06 0.12,-0.06 0.36,0.12 0.36,0.42 0,0.24 -0.3,0.24 -0.24,0 -0.3,-0.18 v 0.18 q 0.06,0.06 0.06,0.18 0.12,0.3 -0.12,0.3 l -0.06,0.42 q 0.12,0 0.3,0.3 v 0.06 h 0.42 q 0,-0.36 0.3,-0.24 0.18001,0 0.30001,0.24 h 0.06 v -0.18 q -0.18,-0.06 -0.18,-0.3 -0.06,-0.12 0.06,-0.18 0.12,-0.12 0.23999,-0.06 0,-0.12 0,-0.24 0.06,-0.12 0.06,-0.24 l -0.06,0.06 q -0.41999,-0.12 -0.41999,-0.36 0,-0.36 0.36,-0.36 0.11999,0 0.23999,0.12 0,-0.06 0.06,-0.12 -0.12,-0.12 -0.12,-0.18 0,-0.24 0.18,-0.36 0.06,-0.12 0.06,-0.18 0,-0.12 0.06,-0.24 -0.3,-0.12 -0.3,-0.42 0,-0.36 0.3,-0.36 h 0.06 q 0.06,-0.12 0.06,-0.42 h -0.06 q -0.36,0 -0.36,-0.36 0,-0.42 0.3,-0.42 0.06,0 0.3,0.12 v -0.06 q -0.06,-0.06 -0.06,-0.24 0,-0.18 0.12,-0.3 0.06,-0.06 0.06,-0.12 -0.12,0.18 -0.42,0.18 -0.3,0.18 -0.3,-0.3 0,-0.42 0.36,-0.42 0.36,0 0.36,0.36 0.06,-0.06 0.06,-0.24 -0.24,-0.12 -0.24,-0.36 0,-0.3 0.36,-0.3 0.06,-0.18 0.06,-0.42 -0.36001,0 -0.36001,-0.3 0,-0.42 0.42001,-0.42 h 0.12 q 0,-0.3 0.06,-0.42 h -0.18 q -0.36001,0 -0.36001,-0.24 0,-0.36 0.42001,-0.36 0.06,0 0.18,0.12 v -0.18 -0.12 q 0,-0.12 0.06,-0.18 v -0.18 q 0,0.18 -0.24,0.18 -0.36001,0 -0.30001,-0.24 0,-0.3 0.30001,-0.3 0.29999,0 0.29999,0.24 v -0.24 q -0.06,-0.06 -0.06,-0.18 0,-0.12 0.17999,-0.24 0,-0.24 0.06,-0.36 -0.18,-0.06 -0.18,-0.18 0.12,-0.12 0.24,-0.18 0,-0.24 0.06,-0.3 -0.18,0 -0.18,-0.12 0.06,-0.06 0.06,-0.06 0.06,0 0.12,-0.06 0.06,0 0.06,-0.06 h 1.44 q -0.18,0 -0.18,-0.06 0,-0.06 0.06,-0.06 l 0.06,-0.06 q 0.12,0 0.24,0.12 0,0.06 -0.18,0.06 l 0.06,0.36 q 0.18,0 0.18,0.06 0,0.12 -0.18,0.18 l 0.12,0.36 q 0.12,0.12 0.12,0.18 0,0.18 -0.06,0.18 l 0.06,0.54 q 0,0 0.12,0.12 0,0.06 -0.06,0.06 0,0 0,0.06 l 0.06,0.18 q 0.06,-0.06 0.24,-0.06 0.30001,0 0.30001,0.24 0,0.3 -0.30001,0.3 -0.12,0 -0.18,-0.06 l 0.12,0.48 h 0.06 q 0.36001,0 0.36001,0.3 0,0.36 -0.30001,0.36 l 0.06,0.36 q 0.3,0 0.3,0.36 0,0.18 -0.18,0.36 v 0.12 q 0,-0.24 0.35999,-0.24 0.42,0 0.42,0.36 0,0.36 -0.42,0.36 -0.23999,0 -0.29999,-0.18 v 0.06 q 0.12,0.24 0.12,0.36 0,0.12 -0.06,0.18 l 0.06,0.06 q 0.06,-0.06 0.17999,-0.06 0.42,0 0.42,0.36 0,0.42 -0.42,0.42 h -0.06 l 0.06,0.36 h 0.06 q 0.42,0 0.42,0.42 -0.12,0.3 -0.3,0.42 l 0.06,0.42 q 0.18,0.12 0.18,0.36 0,0.12 -0.06,0.18 v 0.06 q 0.12,-0.12 0.24,-0.12 0.36,0 0.36,0.42 0,0.36 -0.36,0.36 h -0.12 l 0.06,0.36 h 0.06 q 0.3,0 0.3,0.36 0,0.24 -0.24,0.36 l 0.06,0.48 q 0.06,0.06 0.06,0.12 h 0.48001 q 0.12,-0.24 0.29999,-0.24 0.3,-0.12 0.3,0.24 h 0.42 l -0.06,-0.24 h -0.12 q -0.3,0.12 -0.3,-0.3 z m -2.7,-25.5 h -0.12 -0.06 q 0,-0.06 0.12,-0.06 0.06,0 0.06,0.06 z m 0.3,0.06 h -0.06 0.06 0.06 z m 0.24001,-0.24 q -0.06,0.06 -0.12,0.06 -0.12001,-0.06 -0.12001,-0.06 0,-0.06 0.18001,-0.06 0.06,0 0.06,0.06 z m 0,-0.36 q -0.24001,0 -0.24001,-0.12 0.12001,-0.12 0.24001,-0.12 0.24,0 0.12,0.12 -0.06,0.06 -0.06,0.06 -0.06,0 -0.06,0.06 z m 0.24,0.48 h 0.06 l -0.06,0.06 q -0.06,0 -0.12,0 0,-0.06 0.06,-0.06 z m -0.24,-1.02 q -0.18001,0 -0.18001,-0.18 0,-0.18 0.24001,-0.18 0.23999,0 0.23999,0.18 0,0.18 -0.29999,0.18 z m 2.21999,-9.12 q 0.06,0.36 -0.3,0.36 -0.29999,0 -0.29999,-0.36 0,-0.3 0.23999,-0.3 0.36,0 0.36,0.3 z m -0.36,-1.32 q 0.3,0 0.3,0.3 0,0.3 -0.3,0.3 -0.29999,-0.12 -0.29999,-0.3 0,-0.42 0.29999,-0.3 z m -0.84,0.78 q -0.12,-0.36 0.3,-0.36 0.30001,0 0.42001,0.36 0,0.36 -0.36,0.36 -0.36001,0 -0.36001,-0.36 z m 0,1.08 q 0,-0.36 0.36001,-0.36 0.41999,0 0.41999,0.42 0,0.3 -0.41999,0.3 -0.36001,0 -0.36001,-0.36 z m 0.42001,0.78 q 0.35999,0 0.35999,0.42 0,0.42 -0.35999,0.3 -0.42001,0 -0.42001,-0.3 0,-0.42 0.42001,-0.42 z m -0.96001,0.96 q 0,-0.42 0.42,-0.42 0.36,0 0.36,0.42 0,0.42 -0.36,0.42 -0.42,0 -0.42,-0.42 z m 0,1.2 q 0,-0.42 0.42,-0.42 0.36,0 0.36,0.42 -0.12,0.36 -0.36,0.36 -0.42,0 -0.42,-0.36 z m 0,1.14 q 0,-0.36 0.42,-0.36 0.3,0 0.3,0.36 0,0.36 -0.36,0.36 -0.36,0 -0.36,-0.36 z m 0.36,0.78 q 0.3,0 0.3,0.3 0,0.36 -0.3,0.36 -0.48,0 -0.36,-0.36 0,-0.3 0.36,-0.3 z m -0.95999,0.9 q 0,-0.36 0.36,-0.36 0.35999,0 0.35999,0.36 0,0.3 -0.41999,0.3 -0.3,0 -0.3,-0.3 z m 0,1.02 q 0,-0.3 0.3,-0.3 0.41999,0 0.29999,0.3 0,0.24 -0.35999,0.24 -0.24,0 -0.24,-0.24 z m 0.24,0.66 q 0.29999,-0.12 0.29999,0.18 0,0.24 -0.35999,0.24 -0.06,0 -0.18,0 -0.06,-0.06 0,-0.18 0,-0.24 0.24,-0.24 z m -0.54001,0.42 q 0.30001,0 0.30001,0.18 0,0.24 -0.30001,0.24 -0.3,0 -0.3,-0.24 0,-0.18 0.3,-0.18 z m -0.06,0.78 q 0.24,0 0.24,0.12 0,0.12 -0.24,0.12 h -0.18 q -0.06,0 -0.06,-0.06 0,-0.18 0.24,-0.18 z m -0.06,0.54 q 0.18,0 0.18,0.12 0,0.06 -0.06,0.06 h -0.12 q -0.18,0 -0.18,-0.06 0,-0.12 0.18,-0.12 z m -2.21999,-0.72 q 0,0.12 -0.24,0.12 -0.24001,0 -0.24001,-0.18 0,-0.18 0.24001,-0.18 0.12,0 0.24,0.24 z m -0.06,-0.78 q 0,0.18 -0.24,0.18 -0.30001,0 -0.30001,-0.24 0,-0.3 0.24001,-0.18 0.3,0 0.3,0.24 z m -0.3,-1.2 q 0.3,0 0.3,0.3 0,0.24 -0.3,0.24 -0.36001,0 -0.36001,-0.3 0,-0.3 0.36001,-0.24 z m -0.84001,-6.48 q -0.12,0.36 -0.41999,0.36 -0.30001,0 -0.30001,-0.3 0,-0.42 0.36001,-0.42 0.35999,0 0.35999,0.36 z m -1.14,-1.56 q 0,-0.3 0.3,-0.3 0.30001,-0.12 0.30001,0.3 -0.12,0.18 -0.30001,0.3 -0.12,0 -0.24,-0.06 -0.12,-0.12 -0.06,-0.24 z m -0.12,1.02 q 0,-0.3 0.36,-0.3 0.30001,0 0.30001,0.3 0,0.36 -0.30001,0.36 -0.36,0 -0.36,-0.36 z m -0.06,1.14 q 0,-0.36 0.42,-0.36 0.24001,0 0.24001,0.36 0,0.36 -0.30001,0.36 -0.36,0 -0.36,-0.36 z m 0.54,0.6 q 0,-0.42 0.36001,-0.42 0.35999,0 0.35999,0.42 0,0.3 -0.35999,0.3 -0.36001,0.12 -0.36001,-0.3 z m 0,1.08 q 0,-0.3 0.30001,-0.3 0.41999,0 0.41999,0.3 0,0.42 -0.35999,0.42 -0.36001,0 -0.36001,-0.42 z m 0.36001,1.56 q -0.30001,0 -0.30001,-0.36 0,-0.36 0.30001,-0.36 0.35999,0 0.35999,0.36 0,0.48 -0.35999,0.36 z m 0.23999,0.24 q -0.11999,-0.36 0.36,-0.36 0.12,0 0.24,0.12 0.12,0.12 0.12,0.24 0,0.36 -0.36,0.36 -0.36,0 -0.36,-0.36 z m 0,1.08 q 0,-0.3 0.36,-0.3 0.36,0 0.36,0.3 0,0.36 -0.36,0.36 -0.24,0 -0.36,-0.36 z m 0.12,1.02 q 0,-0.24 0.24,-0.24 0.36,0 0.36,0.3 0.12,0.3 -0.3,0.3 -0.3,0 -0.3,-0.36 z m 0.12,0.96 q -0.06,-0.12 0,-0.12 0.12,-0.06 0.24,-0.06 0.3,0 0.3,0.24 0,0.24 -0.3,0.24 -0.24,0 -0.24,-0.3 z m 0.12,0.84 q 0,-0.12 0.18,-0.12 0.3,0 0.3,0.18 0,0.18 -0.24,0.18 -0.24,0 -0.24,-0.24 z m 0.06,0.78 q 0,-0.18 0.24,-0.18 0.24,0 0.24,0.18 0,0.06 -0.18,0.06 -0.24,0 -0.3,-0.06 z m 0.18,0.48 q 0,-0.06 0.18,-0.06 0.06,0.06 0.12,0.06 h 0.06 q 0,0.18 -0.12,0.06 -0.18,0 -0.24,-0.06 z m 0.36,0.42 q -0.12,-0.06 -0.12,-0.06 h 0.06 0.12001 q 0,0.06 -0.06,0.06 z m 0.06,-0.66 q 0,-0.12 0.18,-0.12 0.18,0 0.18,0.12 0,0.12 -0.12,0.12 -0.24,0 -0.24,-0.12 z m 0.3,0.54 q -0.12,-0.06 -0.12,-0.06 0,-0.06 0.12,-0.06 l 0.11999,0.06 q -0.06,0.06 -0.11999,0.06 z m 0.06,0.18 h -0.06 0.06 0.06 z m -0.54001,14.46 q 0.06,-0.06 0.12,-0.06 0.18001,0 0.18001,0.06 -0.06,0 -0.12,0.06 0,0 -0.06,0 -0.12,0 -0.12,-0.06 z m 0.18001,0.48 q 0,0.12 -0.18001,0.12 -0.3,0 -0.18,-0.12 0,-0.12 0.18,-0.12 0.30001,0 0.18001,0.12 z m -0.48001,-0.6 q 0,-0.06 0.06,-0.06 0.06,0 0.06,0.06 z m -0.06,1.2 q 0,-0.18 0.3,-0.18 0.24001,0 0.18,0.18 0,0.18 -0.24,0.18 -0.36,0 -0.24,-0.18 z m -1.5,7.2 q 0,-0.36 0.36,-0.36 0.30001,0 0.30001,0.36 0,0.18 -0.12,0.3 -0.06,0.12 -0.18001,0.06 -0.36,0 -0.36,-0.36 z m -0.06,3 q -0.3,0 -0.3,-0.3 -0.06,-0.12 0,-0.18 0.12,-0.12 0.24,-0.06 0.36,0 0.36,0.24 0,0.42 -0.3,0.3 z m 0.78001,-0.72 q 0,0.3 -0.24001,0.3 -0.36,0 -0.36,-0.36 -0.06,-0.12 0.06,-0.24 0.12,-0.12 0.24,-0.06 0.30001,0 0.30001,0.36 z m -0.30001,-0.78 q -0.3,0 -0.42,-0.36 0,-0.36 0.36,-0.36 0.30001,0 0.30001,0.36 0.06,0.36 -0.24001,0.36 z m 0.84,-0.9 q 0,0.36 -0.35999,0.36 -0.3,0 -0.42001,-0.36 0,-0.36 0.36001,-0.36 0.41999,0 0.41999,0.36 z m 0,-1.14 q 0,0.42 -0.35999,0.42 -0.42001,0 -0.42001,-0.42 0,-0.42 0.36001,-0.42 0.41999,0 0.41999,0.42 z m 0,-1.2 q 0,0.42 -0.35999,0.42 -0.42001,0 -0.42001,-0.42 0,-0.24 0.42001,-0.36 0.35999,0 0.35999,0.36 z m 0,-1.14 q 0,0.36 -0.35999,0.36 -0.36,0 -0.36,-0.36 0,-0.36 0.36,-0.36 0.47999,0 0.35999,0.36 z m 0.6,-0.6 q 0,0.42 -0.42,0.42 -0.3,0 -0.3,-0.36 0,-0.42 0.3,-0.42 0.42,0 0.42,0.36 z m 0,-1.08 q 0,0.36 -0.36,0.36 -0.3,0 -0.3,-0.3 0,-0.36 0.3,-0.36 0.36,0 0.36,0.3 z m 0.06,-1.02 q -0.12,0.3 -0.36,0.36 -0.3,0 -0.3,-0.3 0.06,-0.24 0.3,-0.24 0.36,-0.06 0.36,0.18 z m -0.3,-0.6 q -0.24,0 -0.24,-0.24 0,-0.24 0.3,-0.24 0.42001,-0.12 0.24,0.18 0,0.3 -0.3,0.3 z m 0.60001,-0.48 q -0.30001,0 -0.30001,-0.18 0.12001,-0.24 0.36001,-0.24 0.17999,0 0.17999,0.24 0,0.18 -0.23999,0.18 z m 0.29999,-0.96 q -0.11999,0.18 -0.23999,0.18 -0.30001,0 -0.18,-0.12 0,-0.12 0.24,-0.12 0.17999,0 0.17999,0.06 z m -0.17999,-0.36 q -0.12,0 -0.12,-0.12 h 0.06 q 0.06,0 0.06,0 0,-0.06 0.06,-0.06 0.11999,0 0.11999,0.06 0,0.12 -0.17999,0.12 z m 0.23999,-0.48 q -0.06,0.06 -0.12,0.06 -0.11999,-0.06 -0.11999,-0.06 h 0.11999 z m 0.84,0 q -0.06,0.06 -0.12,0.06 v -0.06 z m -0.18,-14.28 h 0.06 z m 0,-0.78 q 0.12,0 0.12,0.12 0,0.12 -0.12,0.12 -0.24,0 -0.24,-0.12 0,-0.12 0.24,-0.12 z m -0.24,15 h -0.06 -0.06 z m -0.42,-14.64 q 0,-0.12 0.12,-0.12 0.24,0 0.24,0.12 0,0.06 -0.18,0.06 h -0.12 q -0.06,0 -0.06,-0.06 z m 0.12,0.3 h 0.12 q 0.12,0 0.12,0.06 h -0.12 q -0.12,0 -0.12,-0.06 z m 0.18,14.64 q -0.12,0 -0.18,0 0,-0.06 0.06,-0.06 0,-0.06 0.12,-0.06 0.18,0 0.18,0.06 h -0.06 q -0.12,0.06 -0.12,0.06 z m 0.24,-14.76 q 0.06,-0.06 0.12,-0.06 0.12,0.06 0.12,0.06 0,0.06 -0.12,0.06 -0.12,0 -0.12,-0.06 z m 0.18,14.94 q -0.12,0 -0.12,-0.06 0,-0.12 0.12,-0.12 0.18,0 0.18,0.12 0,0.06 -0.18,0.06 z m 0.18,-15.12 q 0,-0.12 0.18001,-0.12 0.18,0 0.18,0.12 0,0.06 -0.18,0.06 -0.18001,0 -0.18001,-0.06 z m 0.36001,14.64 h -0.06 -0.06 l 0.06,-0.06 q 0.06,0.06 0.06,0.06 z m -0.24,-14.28 q 0,-0.06 0.06,-0.06 0.12,0 0.12,0.06 h -0.12 z m 0.18,14.52 q -0.12,0 -0.12,-0.06 h 0.12 0.17999 q 0,0.06 -0.17999,0.06 z m 0.17999,-15.12 q 0,-0.12 0.24,-0.12 0.18,0 0.18,0.12 -0.12,0.12 -0.18,0.12 -0.24,0 -0.24,-0.12 z m 0.06,0.42 q 0.06,-0.06 0.12,-0.06 0.12,0.06 0.12,0.06 0,0.06 -0.12,0.06 -0.12,0 -0.12,-0.06 z m 0.06,0.24 h 0.06 0.06 -0.06 z m 0.12,14.34 -0.06,-0.06 h 0.06 0.12 q -0.06,0.06 -0.12,0.06 z m 2.52001,7.44 q 0.29999,0 0.29999,0.42 0,0.42 -0.29999,0.42 -0.42001,0 -0.42001,-0.42 0,-0.42 0.42001,-0.42 z m -1.08001,-5.88 q 0,0.18 -0.29999,0.18 -0.24,-0.06 -0.24,-0.18 0,-0.24 0.24,-0.24 0.29999,0.18 0.29999,0.24 z m -0.12,-0.72 q 0,0.12 -0.23999,0.12 -0.18,0 -0.18,-0.18 -0.06,-0.06 0.12,-0.06 0.23999,0 0.29999,0.12 z m -0.17999,-0.54 q 0,0.12 -0.18,0.12 l -0.06,-0.06 q -0.06,0 -0.06,-0.06 0,-0.06 0.12,-0.06 0.18,0 0.18,0.06 z m -0.24,-0.36 h 0.06 q 0,0.06 -0.06,0.06 -0.06,-0.06 -0.06,-0.06 z m -0.48001,-0.06 h 0.06 -0.06 -0.06 z m 0.06,0.18 q 0.18,0 0.18,0.06 l -0.06,0.06 h -0.12 q -0.12,-0.06 -0.12,-0.06 0,-0.06 0.12,-0.06 z m 0.06,0.36 q 0.24,0 0.24,0.12 0,0.12 -0.18,0.12 -0.24,0 -0.24,-0.12 0,-0.12 0.18,-0.12 z m -0.18,0.72 q 0,-0.18 0.24,-0.18 0.30001,0 0.30001,0.18 0,0.18 -0.30001,0.18 -0.24,0 -0.24,-0.18 z m 0.3,1.02 q -0.3,0 -0.3,-0.3 0,-0.18 0.3,-0.18 0.30001,0 0.30001,0.24 0,0.24 -0.30001,0.24 z m 0.30001,0.24 q -0.12,-0.3 0.24,-0.3 0.17999,0 0.35999,0.3 0,0.24 -0.35999,0.24 -0.24,0 -0.24,-0.24 z m 0,0.96 q 0,-0.36 0.29999,-0.36 0.36,0 0.36,0.36 0,0.24 -0.36,0.24 -0.29999,0 -0.29999,-0.24 z m 0.35999,1.38 q -0.35999,0 -0.35999,-0.36 0,-0.36 0.35999,-0.36 0.36,0 0.36,0.42 0,0.3 -0.36,0.3 z m 0.24,0.18 q 0,-0.36 0.36,-0.36 0.3,0 0.3,0.42 0.12001,0.36 -0.3,0.36 -0.36,0 -0.36,-0.42 z m 0,1.2 q 0,-0.42 0.36,-0.42 0.36,0 0.36,0.42 0,0.42 -0.36,0.3 -0.36,0 -0.36,-0.3 z m 0,1.14 q 0,-0.42 0.36,-0.42 0.36,0 0.36,0.42 0,0.36 -0.36,0.36 -0.36,0 -0.36,-0.36 z m 0,1.14 q 0,-0.36 0.36,-0.36 0.36,0 0.36,0.36 0,0.42 -0.36,0.42 -0.36,0 -0.36,-0.42 z m 0.54,0.6 q 0,-0.36 0.42001,-0.36 0.29999,0 0.29999,0.36 0,0.36 -0.35999,0.36 -0.36001,0 -0.36001,-0.36 z m 0,1.14 q 0,-0.36 0.36001,-0.36 0.35999,0 0.35999,0.36 0,0.24 -0.35999,0.36 -0.36001,0 -0.36001,-0.36 z m 0.66,1.02 q 0,0.36 -0.35999,0.36 -0.36001,0 -0.36001,-0.3 0,-0.3 0.36001,-0.3 0.35999,0 0.35999,0.24 z m 0.18,-0.18 q -0.29999,0 -0.29999,-0.3 0,-0.36 0.29999,-0.36 0.36,-0.12 0.36,0.3 -0.12,0.36 -0.36,0.36 z" />
      <path
         id="path26"
         style="font-family:'Blue Cobra Gradient Italic'"
         d="m 347.9725,98.8 h 3.3 l 0.42,-1.86 h -3.3 z m 0.54,-2.4 h 3.3 l 0.36,-1.74 h -3.3 z m 0.48,-2.4 h 3.3 l 0.36,-1.68 h -3.3 z m 0.54,-2.4 h 3.3 l 0.3,-1.56 h -3.3 z m 0.48,-2.4 h 3.3 l 0.36,-1.5 h -3.3 z m 0.54,-2.4 h 3.3 l 0.3,-1.44 h -3.3 z m 0.48,-2.4 h 3.3 l 0.3,-1.32 h -3.3 z m 2.7,-28.74 h 10.2 l 0.12,-0.42 h -10.2 z m -2.16,26.34 h 3.3 l 0.24,-1.26 h -3.3 z m 0.48,-2.4 h 3.3 l 0.24,-1.14 h -3.3 z m 0.54,-2.4 h 3.3 l 0.24,-1.08 h -3.3 z m 0.48,-2.4 h 3.3 l 0.24,-1.02 h -3.3 z m 0.54,-2.4 h 3.3 l 0.18,-0.9 h -3.3 z m 0.48,-2.4 h 3.3 l 0.18,-0.84 h -3.3 z m 0.54,-2.4 h 3.3 l 0.18,-0.78 h -3.3 z m -3.6,32.4 0.18,-0.72 h -3.3 l -0.18,0.72 z m 4.08,-34.8 h 3.3 l 0.18,-0.66 h -3.3 z m 0.54,-2.4 h 3.3 l 0.12,-0.6 h -3.3 z m 0.48,-2.4 h 3.3 l 0.12,-0.48 h -3.3 z m 0.54,-2.4 h 3.3 l 0.06,-0.42 h -3.3 z m 7.8,-4.86 h -10.2 v 0.12 h 10.2 z" />
      <path
         id="path28"
         style="font-family:'Blue Cobra Gradient Italic'"
         d="m 357.79469,98.8 h 8.4 l 0.42,-1.86 h -8.4 z m 5.1,-24 h 8.4 l 0.24,-1.02 h -8.4 z m 3.06,25.2 0.18,-0.72 h -8.4 l -0.18,0.72 z m -7.62,-3.6 h 3.3 l 0.36,-1.74 h -3.3 z m 0.48,-2.4 h 3.3 l 0.36,-1.68 h -3.3 z m 0.54,-2.4 h 3.3 l 0.3,-1.56 h -3.3 z m 0.48,-2.4 h 3.3 l 0.36,-1.5 h -3.3 z m 0.54,-2.4 h 3.3 l 0.3,-1.44 h -3.3 z m 0.48,-2.4 h 3.3 l 0.3,-1.32 h -3.3 z m 0.54,-2.4 h 3.3 l 0.24,-1.26 h -3.3 z m 0.48,-2.4 h 3.3 l 0.24,-1.14 h -3.3 z m 0.54,-2.4 h 3.3 l 0.24,-1.08 h -3.3 z m 4.56,-21.54 h 8.4 l 0.12,-0.42 h -8.4 z m -3.54,16.74 h 3.3 l 0.18,-0.9 h -3.3 z m 0.48,-2.4 h 3.3 l 0.18,-0.84 h -3.3 z m 0.54,-2.4 h 3.3 l 0.18,-0.78 h -3.3 z m 0.48,-2.4 h 3.3 l 0.18,-0.66 h -3.3 z m 0.54,-2.4 h 3.3 l 0.12,-0.6 h -3.3 z m 0.48,-2.4 h 3.3 l 0.12,-0.48 h -3.3 z m 0.54,-2.4 h 3.3 l 0.06,-0.42 h -3.3 z m 9.42,-4.86 h -8.4 v 0.12 h 8.4 z" />
      <path
         id="path30"
         style="font-family:'Blue Cobra Gradient Italic'"
         d="m 383.68187,98.8 h 3.3 l 0.42001,-1.86 h -3.30001 z m -7.26,0 h 3.3 l 0.42001,-1.86 h -3.3 z m -7.26,0 h 3.30001 l 0.41999,-1.86 h -3.29999 z m 15.06,-2.4 h 3.30001 l 0.35999,-1.74 h -3.29999 z m -7.25999,0 h 3.29999 l 0.36,-1.74 h -3.3 z m -7.26001,0 h 3.3 l 0.36,-1.74 h -3.3 z m 15,-2.4 h 3.3 l 0.36,-1.68 h -3.3 z m -7.26,0 h 3.3 l 0.36,-1.68 h -3.3 z m -7.26,0 h 3.3 l 0.36001,-1.68 h -3.30001 z m 15.06,-2.4 h 3.3 l 0.30001,-1.56 h -3.30001 z m -7.26,0 h 3.30001 l 0.3,-1.56 h -3.3 z m -7.26,0 h 3.30001 l 0.29999,-1.56 h -3.29999 z m 15,-2.4 h 3.30001 l 0.35999,-1.5 h -3.29999 z m -7.25999,0 h 3.29999 l 0.36,-1.5 h -3.3 z m -7.26001,0 h 3.3 l 0.36,-1.5 h -3.3 z m 15.06,-2.4 h 3.3 l 0.3,-1.44 h -3.3 z m -14.52,0 h 3.3 l 0.30001,-1.44 h -3.30001 z m 7.26,0 h 3.3 l 0.3,-1.44 h -3.3 z M 381.52188,70 h 5.33999 l 0.48001,-0.84 h -5.94 z m -9.30001,14.4 h 3.30001 l 0.29999,-1.32 h -3.29999 z m 14.52,0 h 3.3 l 0.30001,-1.32 h -3.30001 z m -7.26,0 h 3.30001 l 0.3,-1.32 h -3.3 z m -6.72,-2.4 h 3.3 l 0.24,-1.26 h -3.3 z m 14.52001,0 h 3.3 l 0.23999,-1.26 h -3.29999 z m -7.26,0 h 3.29999 l 0.24,-1.26 h -3.3 z m -6.78001,-2.4 h 3.3 l 0.24001,-1.14 h -3.30001 z m 14.52,0 h 3.3 l 0.24,-1.14 h -3.3 z m -7.26,0 h 3.3 l 0.24,-1.14 h -3.3 z m -6.71999,-2.4 h 3.3 l 0.23999,-1.08 h -3.29999 z m 14.51999,0 h 3.3 l 0.24001,-1.08 h -3.30001 z m -6.42,-4.8 h 3.66 l 0.48001,-0.9 h -4.26001 z m -0.84,4.8 h 3.30001 l 0.24,-1.08 h -3.3 z m -6.78,-2.4 h 3.3 l 0.24,-1.02 h -3.3 z m 14.52001,0 h 3.3 l 0.23999,-1.02 h -3.29999 z m -7.26,0 h 3.29999 l 0.24,-1.02 h -3.3 z m 7.79999,-2.4 h 3.3 l 0.18,-0.9 h -3.3 z m -14.52,0 h 3.3 l 0.18001,-0.9 h -3.30001 z m 15,-2.4 h 3.3 l 0.18001,-0.84 h -3.30001 z m -14.51999,0 h 3.3 l 0.17999,-0.84 h -3.29999 z m 13.97999,-9.6 h 5.88001 l 0.11999,-0.48 h -5.7 z m -11.94,0 h 5.82001 l -0.06,-0.48 h -5.64001 z m -1.5,7.2 h 3.3 l 0.18,-0.78 h -3.3 z m 14.52001,0 h 3.3 l 0.17999,-0.78 h -3.29999 z m -5.16001,0 h 3.06 l 0.42,-0.78 h -3.06 z m -12.96,32.4 0.18001,-0.72 h -3.30001 l -0.18,0.72 z m 7.26,0 0.18,-0.72 h -3.3 l -0.18,0.72 z m 7.26,0 0.18,-0.72 h -3.3 l -0.18,0.72 z m -5.52,-32.4 h 3 l -0.12,-0.78 h -3 z m 9.6,-2.4 h 3.3 l 0.18,-0.66 h -3.3 z m -14.52,0 h 3.3 l 0.18001,-0.66 h -3.30001 z m 1.56,-7.2 h 4.98001 l -0.12001,-0.42 h -4.8 z m 12.84,0 h 4.98 l 0.06,-0.42 h -4.86 z m -4.2,7.2 h 3.06 l 0.42,-0.66 h -3.06 z m 4.86,-2.4 h 3.3 l 0.12001,-0.6 h -3.30001 z m -10.5,2.4 h 3 l -0.06,-0.66 h -3 z m -4.01999,-2.4 h 3.3 l 0.11999,-0.6 h -3.29999 z m 11.09999,0 h 3 l 0.3,-0.6 h -3 z m -7.38,0 h 2.94 l -0.06,-0.6 h -3 z m -2.21999,-7.14 h 4.13999 l -0.06,-0.42 h -3.95999 z m 13.68,0 h 4.13999 l 0.12001,-0.42 h -4.02 z m 4.67999,-2.52 h -3.23999 l -0.06,0.12 h 3.29999 z m -17.82,0 v 0.12 h 3.24 v -0.12 z" />
      <path
         id="path32"
         style="font-family:'Blue Cobra Gradient Italic'"
         d="m 403.64125,85.36 h -10.74 l -0.3,1.44 h 10.14 q 0.54,-0.6 0.9,-1.44 z m -13.62,13.44 h 3.3 l 0.42,-1.86 h -3.3 z m 0.54,-2.4 h 3.3 l 0.36,-1.74 h -3.3 z m 0.48,-2.4 h 3.3 l 0.36,-1.68 h -3.3 z m 0.54,-2.4 h 3.3 l 0.3,-1.56 h -3.3 z m 4.14,-3.9 h -3.3 l -0.36,1.5 h 3.3 z m 4.08,-3.3 h 4.08 l 0.3,-1.32 h -3.3 q -0.12,0.48 -0.36,0.84 -0.24,0.36 -0.72,0.48 z m 10.2,-29.16 h -10.68 l -0.12,0.42 h 10.74 q 0.06,-0.12 0,-0.18 0,-0.12 0.06,-0.24 z m -16.92,29.16 h 3.3 l 0.3,-1.32 h -3.3 z m 0.54,-2.4 h 3.3 l 0.24,-1.26 h -3.3 z m 7.56,0 h 3.24 l 0.24,-1.26 h -3.24 z m -7.08,-2.4 h 3.3 l 0.24,-1.14 h -3.3 z m 7.56,0 h 3.24 l 0.24,-1.14 h -3.24 z m -7.02,-2.4 h 3.3 l 0.24,-1.08 h -3.3 z m 7.56,0 h 3.24 l 0.24,-1.08 h -3.24 z m -7.08,-2.4 h 3.3 l 0.24,-1.02 h -3.3 z m 7.56,0 h 3.24 l 0.24,-1.02 h -3.24 z m -7.02,-2.4 h 3.3 l 0.18,-0.9 h -3.3 z m 7.56,0 h 3.24 l 0.18,-0.9 h -3.24 z m -7.08,-2.4 h 3.3 l 0.18,-0.84 h -3.3 z m 7.56,0 h 3.24 l 0.18,-0.84 h -3.24 z m -7.02,-2.4 h 3.3 l 0.18,-0.78 h -3.3 z m 7.56,0 h 3.24 l 0.18,-0.78 h -3.24 z m -11.16,32.4 0.18,-0.72 h -3.3 l -0.18,0.72 z m 4.08,-34.8 h 3.3 l 0.18,-0.66 h -3.3 z m 7.56,0 h 3.24 l 0.18,-0.66 h -3.24 z m -7.02,-2.4 h 3.3 l 0.12,-0.6 h -3.3 z m 7.56,0 h 3.24 l 0.12,-0.6 h -3.24 z m -7.08,-2.4 h 3.3 l 0.12,-0.48 h -3.3 z m 7.56,0 h 3.24 l 0.12,-0.48 h -3.24 z m -7.02,-2.4 h 3.3 l 0.06,-0.42 h -3.3 z m 7.56,0 h 3.24 l 0.06,-0.42 h -3.3 q 0.06,0.12 0,0.24 0,0.06 0,0.18 z m 2.16,-4.86 h -8.7 v 0.12 h 9.3 q -0.36,-0.12 -0.6,-0.12 z" />
      <path
         id="path34"
         style="font-family:'Blue Cobra Gradient Italic'"
         d="m 415.06937,96.94 h -10.79999 q -0.24,0.96 0.06,1.86 h 9.83999 q 0.72,-1.02 0.9,-1.86 z m -2.76,3.06 q 0.66001,0 1.5,-0.72 h -9.24 q 0.3,0.72 1.14001,0.72 z m -4.26,-5.34 h -3.3 l -0.36,1.74 h 3.66 q -0.24,-0.3 -0.18,-0.78 0.06,-0.48 0.18,-0.96 z m 3.48001,1.74 h 3.65999 l 0.36,-1.74 h -3.3 q -0.12,0.48 -0.3,0.96 -0.11999,0.48 -0.41999,0.78 z m 0.83999,-2.4 h 3.3 l 0.36001,-1.68 h -3.30001 z m -7.5,0 h 3.3 l 0.36001,-1.68 h -3.30001 z m 8.04,-2.4 h 3.30001 l 0.29999,-1.56 h -3.29999 z m -7.5,0 h 3.30001 l 0.29999,-1.56 h -3.29999 z m 7.98,-2.4 h 3.3 l 0.36,-1.5 h -3.3 z m -7.5,0 h 3.3 l 0.36,-1.5 h -3.3 z m 0.54,-2.4 h 3.3 l 0.30001,-1.44 h -3.30001 z m 7.5,0 h 3.3 l 0.30001,-1.44 h -3.30001 z m 9.90001,-31.56 h -10.56 q -0.12,0.12 -0.12,0.24 0,0.06 -0.12,0.18 h 10.74 q 0.06,-0.12 0,-0.18 0,-0.12 0.06,-0.24 z M 406.90937,84.4 h 3.30001 l 0.29999,-1.32 h -3.29999 z m 7.5,0 h 3.30001 l 0.29999,-1.32 h -3.29999 z m 0.54,-2.4 h 3.3 l 0.24,-1.26 h -3.3 z m -7.5,0 h 3.3 l 0.24,-1.26 h -3.3 z m 0.48,-2.4 h 3.3 l 0.24001,-1.14 h -3.30001 z m 7.5,0 h 3.3 l 0.24001,-1.14 h -3.30001 z m -6.95999,-2.4 h 3.3 l 0.23999,-1.08 h -3.29999 z m 7.5,0 h 3.3 l 0.23999,-1.08 h -3.29999 z m -7.02001,-2.4 h 3.3 l 0.24,-1.02 h -3.3 z m 7.5,0 h 3.3 l 0.24,-1.02 h -3.3 z m -6.96,-2.4 h 3.3 l 0.18001,-0.9 h -3.30001 z m 7.5,0 h 3.3 l 0.18001,-0.9 h -3.30001 z M 409.96938,70 h 3.3 l 0.17999,-0.84 h -3.29999 z m 7.5,0 h 3.3 l 0.17999,-0.84 h -3.29999 z m -6.96001,-2.4 h 3.3 l 0.18,-0.78 h -3.3 z m 7.5,0 h 3.3 l 0.18,-0.78 h -3.3 z m -7.02,-2.4 h 3.3 l 0.18001,-0.66 h -3.30001 z m 7.5,0 h 3.3 l 0.18001,-0.66 h -3.30001 z m -6.95999,-2.4 h 3.3 l 0.11999,-0.6 h -3.29999 z m 7.5,0 h 3.3 l 0.11999,-0.6 h -3.29999 z m -7.02001,-2.4 h 3.3 l 0.12,-0.48 h -3.3 z m 7.5,0 h 3.3 l 0.12,-0.48 h -3.3 z m -3.6,-2.82 h -3.3 l -0.06,0.42 h 3.3 z m 4.14,0.42 h 3.3 l 0.06,-0.42 h -3.36 q 0.06,0.12 0,0.24 0,0.06 0,0.18 z m 2.22001,-4.86 h -6.60001 q -0.24,0 -0.6,0.12 h 7.8 q -0.36,-0.12 -0.59999,-0.12 z" />
      <path
         id="path36"
         style="font-family:'Blue Cobra Gradient Italic'"
         d="m 431.7775,74.44 q 0.54,-0.12 1.08,-0.66 h -9.84 l -0.24,1.02 h 9.48 q -0.24,-0.24 -0.48,-0.36 z m -6.6,24.36 h 3.3 l 0.42,-1.86 h -3.3 z m -7.5,0 h 3.3 l 0.42,-1.86 h -3.3 z m 0.54,-2.4 h 3.3 l 0.36,-1.74 h -3.3 z m 7.5,0 h 3.3 l 0.36,-1.74 h -3.3 z m -7.02,-2.4 h 3.3 l 0.36,-1.68 h -3.3 z m 7.5,0 h 3.3 l 0.36,-1.68 h -3.3 z m -6.96,-2.4 h 3.3 l 0.3,-1.56 h -3.3 z m 7.5,0 h 3.3 l 0.3,-1.56 h -3.3 z m -7.02,-2.4 h 3.3 l 0.36,-1.5 h -3.3 z m 7.5,0 h 3.3 l 0.36,-1.5 h -3.3 z m -6.96,-2.4 h 3.3 l 0.3,-1.44 h -3.3 z m 7.5,0 h 3.3 l 0.3,-1.44 h -3.3 z m 9.9,-31.56 h -10.68 l -0.12,0.42 h 10.74 q 0.06,-0.12 0,-0.18 0,-0.12 0.06,-0.24 z m -9.42,29.16 h 3.3 l 0.3,-1.32 h -3.3 z m -7.5,0 h 3.3 l 0.3,-1.32 h -3.3 z m 0.54,-2.4 h 3.3 l 0.24,-1.26 h -3.3 z m 7.5,0 h 3.3 l 0.24,-1.26 h -3.3 z m 4.38,-5.16 q 0.06,-0.36 0,-0.72 h -4.2 q 0.6,0.3 0.72,1.08 h 3.42 z m -11.4,2.76 h 3.3 l 0.24,-1.14 h -3.3 z m 7.5,0 h 3.3 l 0.24,-1.14 h -3.3 z m -6.96,-2.4 h 3.3 l 0.24,-1.08 h -3.3 z m 11.82,-4.98 0.18,-0.72 h -3.36 q -0.24,0.54 -0.6,0.9 h 3.72 q 0.06,-0.06 0.06,-0.18 z m -10.8,0.18 h 3.3 l 0.18,-0.9 h -3.3 z m 0.48,-2.4 h 3.3 l 0.18,-0.84 h -3.3 z m 7.5,0 h 3.3 l 0.18,-0.84 h -3.3 z m -6.96,-2.4 h 3.3 l 0.18,-0.78 h -3.3 z m 7.5,0 h 3.3 l 0.18,-0.78 h -3.3 z m -11.1,32.4 0.18,-0.72 h -3.3 l -0.18,0.72 z m 7.5,0 0.18,-0.72 h -3.3 l -0.18,0.72 z m -3.42,-34.8 h 3.3 l 0.18,-0.66 h -3.3 z m 7.5,0 h 3.3 l 0.18,-0.66 h -3.3 z m -6.96,-2.4 h 3.3 l 0.12,-0.6 h -3.3 z m 7.5,0 h 3.3 l 0.12,-0.6 h -3.3 z m -7.02,-2.4 h 3.3 l 0.12,-0.48 h -3.3 z m 7.5,0 h 3.3 l 0.12,-0.48 h -3.3 z m 0.54,-2.4 h 3.3 l 0.06,-0.42 h -3.36 q 0.06,0.12 0,0.24 0,0.06 0,0.18 z m -7.5,0 h 3.3 l 0.06,-0.42 h -3.3 z m 9.72,-4.86 h -8.7 v 0.12 h 9.3 q -0.36,-0.12 -0.6,-0.12 z" />
      <path
         id="path38"
         style="font-family:'Blue Cobra Gradient Italic'"
         d="m 434.08562,86.8 h 10.8 l 0.30001,-1.44 h -10.80001 z m 4.92,12 h 3.30001 l 0.41999,-1.86 h -3.29999 z m -7.5,0 h 3.30001 l 0.41999,-1.86 h -3.29999 z m 8.04,-2.4 h 3.3 l 0.36,-1.74 h -3.3 z m -7.5,0 h 3.3 l 0.36,-1.74 h -3.3 z m 7.98,-2.4 h 3.3 l 0.36001,-1.68 h -3.30001 z m -7.5,0 h 3.3 l 0.36001,-1.68 h -3.30001 z m 8.04,-2.4 h 3.30001 l 0.29999,-1.56 h -3.29999 z m -7.5,0 h 3.30001 l 0.29999,-1.56 h -3.29999 z m 7.98,-2.4 h 3.3 l 0.36,-1.5 h -3.3 z m -3.84,-1.5 h -3.3 l -0.36,1.5 h 3.3 z m 3.48001,-32.04 h 10.74 q 0.06,-0.12 0,-0.18 0,-0.12 0.06,-0.24 h -10.56 q -0.12,0.12 -0.12,0.24 0,0.06 -0.12,0.18 z m -6.12001,28.74 h 3.30001 l 0.29999,-1.32 h -3.29999 z m 7.5,0 h 3.30001 l 0.29999,-1.32 h -3.29999 z m -6.96,-2.4 h 3.3 l 0.24,-1.26 h -3.3 z m 7.5,0 h 3.3 l 0.24,-1.26 h -3.3 z m -7.02,-2.4 h 3.3 l 0.24001,-1.14 h -3.30001 z m 7.5,0 h 3.3 l 0.24001,-1.14 h -3.30001 z m -6.95999,-2.4 h 3.3 l 0.23999,-1.08 h -3.29999 z m 7.5,0 h 3.3 l 0.23999,-1.08 h -3.29999 z m -7.02001,-2.4 h 3.3 l 0.24,-1.02 h -3.3 z m 7.5,0 h 3.3 l 0.24,-1.02 h -3.3 z m -6.96,-2.4 h 3.3 l 0.18001,-0.9 h -3.30001 z m 7.5,0 h 3.3 l 0.18001,-0.9 h -3.30001 z M 437.62563,70 h 3.3 l 0.17999,-0.84 h -3.29999 z m 7.5,0 h 3.3 l 0.17999,-0.84 h -3.29999 z m -6.96001,-2.4 h 3.3 l 0.18,-0.78 h -3.3 z m 7.5,0 h 3.3 l 0.18,-0.78 h -3.3 z m -11.1,32.4 0.18001,-0.72 h -3.30001 l -0.18,0.72 z m 7.5,0 0.18001,-0.72 h -3.30001 l -0.18,0.72 z m 4.08,-34.8 h 3.3 l 0.18001,-0.66 h -3.30001 z m -7.5,0 h 3.3 l 0.18001,-0.66 h -3.30001 z m 0.54001,-2.4 h 3.3 l 0.11999,-0.6 h -3.29999 z m 7.5,0 h 3.3 l 0.11999,-0.6 h -3.29999 z m -7.02001,-2.4 h 3.3 l 0.12,-0.48 h -3.3 z m 7.5,0 h 3.3 l 0.12,-0.48 h -3.3 z m -3.6,-2.82 h -3.3 l -0.06,0.42 h 3.3 z m 4.14,0.42 h 3.3 l 0.06,-0.42 h -3.36 q 0.06,0.12 0,0.24 0,0.06 0,0.18 z m -4.38,-4.86 q -0.24,0 -0.6,0.12 h 7.8 q -0.36,-0.12 -0.59999,-0.12 z" />
      <path
         id="path40"
         style="font-family:'Blue Cobra Gradient Italic'"
         d="m 445.33375,98.8 h 3.3 l 0.42,-1.86 h -3.3 z m 7.74,0 h 3.3 l 0.42,-1.86 h -3.3 z m 0.54,-2.4 h 3.3 l 0.36,-1.74 h -3.3 z m -7.74,0 h 3.3 l 0.36,-1.74 h -3.3 z m 8.22,-2.4 h 3.3 l 0.36,-1.68 h -3.3 z m -7.74,0 h 3.3 l 0.36,-1.68 h -3.3 z m 8.28,-2.4 h 3.3 l 0.3,-1.56 h -3.3 z m -7.74,0 h 3.3 l 0.3,-1.56 h -3.3 z m 8.22,-2.4 h 3.3 l 0.36,-1.5 h -3.3 z m -7.74,0 h 3.3 l 0.36,-1.5 h -3.3 z m 8.28,-2.4 h 3.3 l 0.3,-1.44 h -3.3 z m -7.74,0 h 3.3 l 0.3,-1.44 h -3.3 z m 8.22,-2.4 h 3.3 l 0.3,-1.32 h -3.3 z m -7.74,0 h 3.3 l 0.3,-1.32 h -3.3 z m 9.3,-16.8 h 5.34 l 0.18,-0.78 h -5.64 z m -1.02,14.4 h 3.3 l 0.24,-1.26 h -3.3 z m -7.74,0 h 3.3 l 0.24,-1.26 h -3.3 z m 9.18,-12 h 4.38 l 0.18,-0.84 h -4.68 z m -8.7,9.6 h 3.3 l 0.24,-1.14 h -3.3 z m 7.74,0 h 3.3 l 0.24,-1.14 h -3.3 z m -7.2,-2.4 h 3.3 l 0.24,-1.08 h -3.3 z m 7.74,0 h 3.3 l 0.24,-1.08 h -3.3 z m -7.26,-2.4 h 3.3 l 0.24,-1.02 h -3.3 z m 7.74,0 h 3.3 l 0.24,-1.02 h -3.3 z m 0.42,-2.4 h 3.42 l 0.18,-0.9 h -3.78 z m -7.62,0 h 3.3 l 0.18,-0.9 h -3.3 z m 0.48,-2.4 h 3.3 l 0.18,-0.84 h -3.3 z m 2.04,-9.6 h 5.7 l -0.06,-0.48 h -5.52 z m -1.5,7.2 h 3.3 l 0.18,-0.78 h -3.3 z m 4.14,32.4 0.18,-0.72 h -3.3 l -0.18,0.72 z m -7.74,0 0.18,-0.72 h -3.3 l -0.18,0.72 z m 4.08,-34.8 h 3.3 l 0.18,-0.66 h -3.3 z m 7.74,0 h 3.3 l 0.18,-0.66 h -3.3 z m -7.2,-2.4 h 3.3 l 0.12,-0.6 h -3.3 z m 7.74,0 h 3.3 l 0.12,-0.6 h -3.3 z m -6.72,-4.8 h 4.74 l -0.12,-0.42 h -4.56 z m 3.18,7.2 h 2.88 l -0.06,-0.66 h -2.88 z m -0.42,-2.4 h 2.88 l -0.12,-0.6 h -2.88 z m 4.44,-2.4 h 3.3 l 0.12,-0.48 h -3.3 z m -6.72,-4.74 h 3.78 l -0.06,-0.42 h -3.6 z m 7.74,0 h 3.3 l 0.12,-0.42 h -3.3 z m -0.48,2.34 h 3.3 l 0.06,-0.42 h -3.3 z m 4.32,-4.86 h -3.3 v 0.12 h 3.3 z m -11.04,0 v 0.12 h 2.82 l -0.06,-0.12 z" />
      <path
         id="path42"
         style="font-family:'Blue Cobra Gradient Italic'"
         d="m 459.39625,98.8 h 8.4 l 0.42,-1.86 h -8.4 z m 5.1,-24 h 8.4 l 0.24,-1.02 h -8.4 z m 3.06,25.2 0.18,-0.72 h -8.4 l -0.18,0.72 z m -7.62,-3.6 h 3.3 l 0.36,-1.74 h -3.3 z m 0.48,-2.4 h 3.3 l 0.36,-1.68 h -3.3 z m 0.54,-2.4 h 3.3 l 0.3,-1.56 h -3.3 z m 0.48,-2.4 h 3.3 l 0.36,-1.5 h -3.3 z m 0.54,-2.4 h 3.3 l 0.3,-1.44 h -3.3 z m 0.48,-2.4 h 3.3 l 0.3,-1.32 h -3.3 z m 0.54,-2.4 h 3.3 l 0.24,-1.26 h -3.3 z m 0.48,-2.4 h 3.3 l 0.24,-1.14 h -3.3 z m 0.54,-2.4 h 3.3 l 0.24,-1.08 h -3.3 z m 4.56,-21.54 h 8.4 l 0.12,-0.42 h -8.4 z m -3.54,16.74 h 3.3 l 0.18,-0.9 h -3.3 z m 0.48,-2.4 h 3.3 l 0.18,-0.84 h -3.3 z m 0.54,-2.4 h 3.3 l 0.18,-0.78 h -3.3 z m 0.48,-2.4 h 3.3 l 0.18,-0.66 h -3.3 z m 0.54,-2.4 h 3.3 l 0.12,-0.6 h -3.3 z m 0.48,-2.4 h 3.3 l 0.12,-0.48 h -3.3 z m 0.54,-2.4 h 3.3 l 0.06,-0.42 h -3.3 z m 9.42,-4.86 h -8.4 v 0.12 h 8.4 z" />
      <path
         id="path44"
         style="font-family:'Blue Cobra Gradient Italic'"
         d="m 473.34344,86.8 h 10.8 l 0.3,-1.44 h -10.8 z m 4.92,12 h 3.3 l 0.42,-1.86 h -3.3 z m -7.5,0 h 3.3 l 0.42,-1.86 h -3.3 z m 8.04,-2.4 h 3.3 l 0.36,-1.74 h -3.3 z m -7.5,0 h 3.3 l 0.36,-1.74 h -3.3 z m 7.98,-2.4 h 3.3 l 0.36,-1.68 h -3.3 z m -7.5,0 h 3.3 l 0.36,-1.68 h -3.3 z m 8.04,-2.4 h 3.3 l 0.3,-1.56 h -3.3 z m -7.5,0 h 3.3 l 0.3,-1.56 h -3.3 z m 7.98,-2.4 h 3.3 l 0.36,-1.5 h -3.3 z m -3.84,-1.5 h -3.3 l -0.36,1.5 h 3.3 z m 3.48,-32.04 h 10.74 q 0.06,-0.12 0,-0.18 0,-0.12 0.06,-0.24 h -10.56 q -0.12,0.12 -0.12,0.24 0,0.06 -0.12,0.18 z m -6.12,28.74 h 3.3 l 0.3,-1.32 h -3.3 z m 7.5,0 h 3.3 l 0.3,-1.32 h -3.3 z m -6.96,-2.4 h 3.3 l 0.24,-1.26 h -3.3 z m 7.5,0 h 3.3 l 0.24,-1.26 h -3.3 z m -7.02,-2.4 h 3.3 l 0.24,-1.14 h -3.3 z m 7.5,0 h 3.3 l 0.24,-1.14 h -3.3 z m -6.96,-2.4 h 3.3 l 0.24,-1.08 h -3.3 z m 7.5,0 h 3.3 l 0.24,-1.08 h -3.3 z m -7.02,-2.4 h 3.3 l 0.24,-1.02 h -3.3 z m 7.5,0 h 3.3 l 0.24,-1.02 h -3.3 z m -6.96,-2.4 h 3.3 l 0.18,-0.9 h -3.3 z m 7.5,0 h 3.3 l 0.18,-0.9 h -3.3 z m -7.02,-2.4 h 3.3 l 0.18,-0.84 h -3.3 z m 7.5,0 h 3.3 l 0.18,-0.84 h -3.3 z m -6.96,-2.4 h 3.3 l 0.18,-0.78 h -3.3 z m 7.5,0 h 3.3 l 0.18,-0.78 h -3.3 z m -11.1,32.4 0.18,-0.72 h -3.3 l -0.18,0.72 z m 7.5,0 0.18,-0.72 h -3.3 l -0.18,0.72 z m 4.08,-34.8 h 3.3 l 0.18,-0.66 h -3.3 z m -7.5,0 h 3.3 l 0.18,-0.66 h -3.3 z m 0.54,-2.4 h 3.3 l 0.12,-0.6 h -3.3 z m 7.5,0 h 3.3 l 0.12,-0.6 h -3.3 z m -7.02,-2.4 h 3.3 l 0.12,-0.48 h -3.3 z m 7.5,0 h 3.3 l 0.12,-0.48 h -3.3 z m -3.6,-2.82 h -3.3 l -0.06,0.42 h 3.3 z m 4.14,0.42 h 3.3 l 0.06,-0.42 h -3.36 q 0.06,0.12 0,0.24 0,0.06 0,0.18 z m -4.38,-4.86 q -0.24,0 -0.6,0.12 h 7.8 q -0.36,-0.12 -0.6,-0.12 z" />
    </g>
  </g>
</svg>
