<?xml version="1.0" encoding="UTF-8" standalone="no"?>
<svg
   xmlns:dc="http://purl.org/dc/elements/1.1/"
   xmlns:cc="http://creativecommons.org/ns#"
   xmlns:rdf="http://www.w3.org/1999/02/22-rdf-syntax-ns#"
   xmlns:svg="http://www.w3.org/2000/svg"
   xmlns="http://www.w3.org/2000/svg"
   id="svg16"
   width="800px"
   version="1.1"
   height="200px">
  <metadata
     id="metadata20">
    <rdf:RDF>
      <cc:Work
         rdf:about="">
        <dc:format>image/svg+xml</dc:format>
        <dc:type
           rdf:resource="http://purl.org/dc/dcmitype/StillImage" />
      </cc:Work>
    </rdf:RDF>
  </metadata>
  <defs
     id="defs4">
    <style
       id="style2"
       type="text/css"><![CDATA[    
     @font-face {font-family:Bluu Next;
     src: url('/Users/francesco/Repos/write-logos/src/fonts/Fonts_E_TEMPORANEA/BluuNext-Bold.otf');}
     @font-face {font-family:Westpart;
     src: url('/Users/francesco/Repos/write-logos/src/fonts/Fonts_X/WestpartDemo.otf');}
     ]]></style>
  </defs>
  <g
     id="g14"
     style="font-size:60px">
    <g
       style="text-anchor:middle"
       id="text12"
       aria-label="EXTEMPORANEA">
      <path
         id="path22"
         style="font-family:'Bluu Next';letter-spacing:0.075em"
         d="m 164.60828,86.98 -0.66,-0.12 -7.92,10.98 h -10.74 V 80.38 h 16.38 v -2.7 h -16.38 V 61.06 h 10.2 l 6.6,10.44 h 0.72 V 58.9 h -28.92 l 3.6,6.24 v 28.5 l -3.6,6.36 h 30.06 z" />
      <path
         id="path24"
         style="font-family:Westpart;letter-spacing:0.05em"
         d="m 171.49609,103.96 c 0,0 0,0 0,0 0,0 0,0 0,0 z m 34.5,-47.94 c -0.24,-0.18 -0.48,-0.3 -0.66,-0.48 -0.42,0.06 -0.84,0.12 -1.26,0.12 -1.14,0.48 -1.98,1.32 -2.88,2.04 -0.42,0.84 -1.2,1.32 -1.8,1.92 -1.02,1.14 -2.22,2.04 -3,3.36 -0.42,0.72 -1.02,1.26 -1.44,1.98 -0.6,1.02 -1.38,1.86 -2.04,2.88 -0.54,0.78 -1.26,1.44 -1.62,2.34 -0.06,0.18 -0.3,0.36 -0.42,0.48 -0.18,0.18 -0.36,0.36 -0.48,0.6 -0.54,0.9 -1.2,1.74 -1.86,2.64 -0.24,0.36 -0.54,0.72 -0.84,1.08 0,0.06 -0.12,0.06 -0.3,0.06 0.54,-1.26 1.38,-2.34 2.22,-3.36 0.18,-0.54 0.48,-1.08 0.9,-1.5 0.42,-0.48 0.84,-0.9 0.9,-1.56 0.72,-0.6 1.26,-1.38 1.74,-2.16 0.24,-0.48 0.66,-0.96 0.96,-1.38 0.18,-0.24 0.42,-0.42 0.54,-0.66 0.54,-0.78 1.14,-1.5 1.62,-2.28 0.36,-0.54 0.84,-1.08 1.14,-1.68 0.06,-0.06 0,-0.12 0.06,-0.36 -1.08,0.96 -2.04,1.74 -2.82,2.82 -0.48,0.66 -1.02,1.32 -1.62,1.92 -0.9,0.96 -1.74,1.92 -2.46,3 -0.18,0.24 -0.3,0.48 -0.54,0.66 -0.9,0.84 -1.44,2.04 -2.34,2.88 -0.24,0.3 -0.36,0.72 -0.66,0.96 -0.3,0.24 -0.54,0.66 -0.84,1.02 -0.24,-0.42 -0.42,-0.78 -0.72,-1.08 -0.24,-0.3 -0.42,-0.54 -0.6,-0.84 -0.36,-0.6 -0.78,-1.14 -1.2,-1.62 -0.12,-0.18 -0.3,-0.42 -0.6,-0.36 -0.06,0 -0.12,-0.12 -0.18,-0.12 0.06,-0.18 0.06,-0.36 0.12,-0.48 -0.72,-0.72 -1.2,-1.5 -1.68,-2.28 -0.36,-0.54 -0.84,-0.96 -1.44,-1.08 -1.02,-1.14 -2.1,-2.1 -3.24,-2.94 -0.54,-0.12 -0.96,0 -1.26,0.36 0,0.06 -0.06,0.12 -0.06,0.18 0,1.02 0.36,1.98 0.6,3 0.18,0.6 0.6,1.2 0.9,1.8 0.48,1.02 0.96,1.98 1.5,3.06 0.12,0.12 0.42,0.36 0.48,0.6 0.06,0.42 0.36,0.66 0.6,0.96 0.12,0.12 0.18,0.3 0.3,0.42 0.42,0.66 0.66,1.44 1.26,1.98 0.06,0.06 0.06,0.18 0.12,0.3 0.48,0.9 1.02,1.8 1.5,2.7 0.12,0.18 0.12,0.36 0.18,0.48 -0.06,0.24 -0.12,0.48 -0.18,0.66 -0.12,0.18 -0.24,0.36 -0.36,0.48 -0.18,0.3 -0.42,0.54 -0.54,0.84 -0.42,0.84 -0.96,1.56 -1.5,2.28 -0.18,0.18 -0.36,0.42 -0.42,0.66 -0.48,1.02 -1.14,1.98 -1.68,2.94 -0.48,0.78 -1.02,1.5 -1.32,2.34 -0.12,0.3 -0.3,0.6 -0.42,0.84 -0.42,0.78 -0.84,1.62 -1.26,2.4 -0.3,0.72 -0.72,1.38 -0.96,2.16 -0.24,0.78 -0.72,1.44 -0.9,2.22 -0.06,0.36 -0.18,0.78 -0.42,1.08 -0.18,0.3 -0.12,0.66 -0.24,1.02 -0.12,0.12 -0.36,0.12 -0.3,0.36 0.24,0.12 0.48,0.24 0.72,0.3 -0.06,0.24 -0.12,0.48 -0.18,0.72 0,0.3 0,0.54 0,0.84 -0.24,0.12 -0.42,0.3 -0.6,0.42 -0.24,0.72 -0.3,1.44 -0.78,1.98 -0.18,0.24 -0.18,0.66 0.06,1.02 0.3,-0.24 0.6,-0.48 0.96,-0.66 0.06,-0.18 0.18,-0.36 0.18,-0.54 0.06,-0.18 0.06,-0.36 0.06,-0.54 0.3,-0.42 0.6,-0.78 0.84,-1.14 0.3,0 0.54,0 0.78,0 0,-0.66 0.48,-0.96 0.78,-1.14 0.3,-0.54 0.6,-0.9 0.84,-1.32 0.72,-1.38 1.62,-2.7 2.4,-4.02 0.54,-0.96 1.32,-1.8 1.68,-2.82 0.18,-0.3 0.48,-0.54 0.72,-0.78 0.84,-1.26 1.74,-2.52 2.58,-3.78 0.3,-0.48 0.54,-0.9 0.96,-1.5 0.06,-0.12 0.36,-0.24 0.6,-0.48 0.18,-0.24 0.24,-0.54 0.54,-0.78 0.24,-0.18 0.36,-0.48 0.54,-0.66 0.24,0.36 0.54,0.66 0.72,1.08 0.6,1.14 1.2,2.34 1.8,3.48 0.12,0.18 0.18,0.42 0.3,0.54 0.42,0.42 0.6,0.9 0.9,1.38 0.24,0.48 0.48,1.08 0.84,1.44 0.66,0.72 1.32,1.5 2.16,2.04 0.48,0.36 0.84,0.78 1.26,1.2 0.06,0 0.12,0 0.24,0.06 0.18,-0.18 0.36,-0.3 0.54,-0.48 0.24,0.12 0.42,0.24 0.6,0.3 0.18,0.3 0.36,0.54 0.48,0.84 0.36,0.18 0.72,0.3 1.02,0.48 0.3,-0.36 0.18,-0.72 0.18,-1.02 -0.06,-0.06 -0.06,-0.12 -0.12,-0.24 0,0 0.06,0 0.06,0 0,0.06 0.06,0.18 0.06,0.24 0.12,0 0.24,0.06 0.3,0.06 0.36,-0.54 0.42,-1.14 0.36,-1.62 -0.24,-0.66 -0.48,-1.14 -0.66,-1.68 -0.18,-0.6 -0.42,-1.14 -0.48,-1.74 -0.12,-0.48 -0.36,-0.84 -0.6,-1.26 -0.36,-0.78 -1.02,-1.32 -1.26,-2.16 -0.24,-0.12 -0.42,-0.24 -0.6,-0.42 0,-0.78 -0.48,-1.38 -0.96,-2.04 0,-0.9 -1.02,-1.26 -1.08,-2.1 -0.24,-0.12 -0.36,-0.18 -0.48,-0.3 -0.3,-0.54 -0.48,-1.08 -0.84,-1.5 -0.42,-0.54 -0.78,-1.14 -1.08,-1.8 0.12,-0.24 0.24,-0.54 0.42,-0.78 0.6,-0.84 1.32,-1.68 1.92,-2.52 0.42,-0.54 0.72,-1.08 1.26,-1.5 0.24,-0.18 0.36,-0.48 0.54,-0.78 0.18,-0.24 0.3,-0.48 0.48,-0.72 0.3,-0.42 0.66,-0.78 1.02,-1.32 0.12,-0.06 0.36,-0.18 0.36,-0.18 0.6,-0.72 1.02,-1.2 1.44,-1.74 0.24,-0.36 0.54,-0.72 0.96,-1.26 0.06,-0.12 0.36,-0.42 0.6,-0.72 0.96,-1.02 1.56,-2.28 2.4,-3.36 0.24,-0.3 0.48,-0.6 0.66,-0.9 0.72,-1.44 1.68,-2.7 2.7,-3.9 0.6,-0.72 1.14,-1.44 1.62,-2.1 0,-0.3 0,-0.54 0,-0.78 z m -33,42.96 c 0,-0.12 0,-0.24 0.06,-0.48 0.18,0.24 0.06,0.36 -0.06,0.48 z m 1.92,-1.5 c -0.06,0.12 -0.06,0.18 -0.12,0.24 0,0 0,0 -0.06,0 0.06,-0.06 0.12,-0.18 0.18,-0.24 0,0 0,-0.06 0,-0.06 0,0.06 0,0.06 0,0.06 z m 1.44,-3.06 v -0.06 l 0.12,0.06 z m 6.6,-27.06 c 0.12,0.06 0.24,0.12 0.42,-0.12 -0.6,-0.78 -0.96,-1.68 -1.98,-2.34 0.06,0.24 0.06,0.36 0.06,0.36 0.54,0.72 1.02,1.38 1.5,2.1 z m -11.46,36.6 c -0.06,0 -0.06,0 -0.06,0.06 0,-0.06 0,-0.06 0.06,-0.06 z" />
      <path
         id="path26"
         style="font-family:'Bluu Next';letter-spacing:0.075em"
         d="m 211.49547,72.04 0.48,0.06 7.68,-11.04 h 6 v 32.58 l -4.44,6.36 h 16.68 l -4.44,-6.36 V 61 h 6 l 7.74,11.1 0.48,-0.06 V 58.9 h -36.18 z" />
      <path
         id="path28"
         style="font-family:'Bluu Next';letter-spacing:0.075em"
         d="m 287.58484,86.98 -0.66,-0.12 -7.92,10.98 h -10.74 V 80.38 h 16.38 v -2.7 h -16.38 V 61.06 h 10.2 l 6.6,10.44 h 0.72 V 58.9 h -28.92 l 3.6,6.24 v 28.5 l -3.6,6.36 h 30.06 z" />
      <path
         id="path30"
         style="font-family:'Bluu Next';letter-spacing:0.075em"
         d="M 303.65266,94.24 V 69.52 l 15.42,31.2 h 0.42 l 15.54,-35.94 v 28.98 l -5.04,6.24 h 17.34 l -4.5,-6.3 V 63.82 l 4.44,-4.92 h -12.54 l -12.9,30 -14.28,-30 h -11.88 l 5.16,6.24 v 29.1 l -4.62,5.76 h 12.3 z" />
      <path
         id="path32"
         style="font-family:'Bluu Next';letter-spacing:0.075em"
         d="m 356.33359,100 h 17.64 l -5.4,-6.36 V 82.6 c 1.38,0 3.6,-0.12 5.52,-0.42 6.3,-0.78 13.32,-4.92 13.32,-12.3 0,-9.96 -10.86,-10.98 -16.68,-10.98 h -14.4 l 4.44,6.36 v 28.38 z m 12.24,-39.3 c 6.42,0 10.32,3.18 10.32,9.9 0,6.72 -3.78,9.96 -10.32,9.96 z" />
      <path
         id="path34"
         style="font-family:'Bluu Next';letter-spacing:0.075em"
         d="m 435.88703,77.62 c 0,-9.78 -6.72,-19.5 -17.76,-19.5 -14.64,0 -22.32,11.04 -22.32,23.1 0,9.78 6.72,19.5 17.76,19.5 14.64,0 22.32,-11.04 22.32,-23.1 z m -22.02,-16.92 c 8.52,0 13.62,11.82 13.62,24.18 0,4.74 -2.46,13.32 -9.66,13.32 -8.52,0 -13.5,-11.88 -13.5,-24.24 0,-4.74 1.44,-13.26 9.54,-13.26 z" />
      <path
         id="path36"
         style="font-family:'Bluu Next';letter-spacing:0.075em"
         d="m 483.66391,100 -6.36,-5.88 -9.3,-14.46 c 4.86,-1.8 9.3,-5.22 9.3,-10.14 0,-9.96 -11.82,-10.62 -17.22,-10.62 h -15.18 l 4.44,6.36 v 28.38 l -4.44,6.36 h 16.68 l -4.44,-6.36 V 81.52 l 2.88,-0.24 c 3.42,4.74 7.44,11.76 11.52,18.72 z m -26.52,-39.3 c 6.42,0 11.34,2.34 11.34,9.54 0,6.12 -5.58,9.18 -11.34,9.3 z" />
      <path
         id="path38"
         style="font-family:'Bluu Next';letter-spacing:0.075em"
         d="m 511.80484,100 h 18.48 l -4.5,-4.02 -16.2,-37.68 h -2.82 l -15.24,36.96 -4.26,4.74 h 13.26 l -5.7,-4.68 3.24,-8.16 h 15.6 l 3.66,8.7 z m -6.06,-31.98 6.84,16.44 h -13.44 z" />
      <path
         id="path40"
         style="font-family:'Bluu Next';letter-spacing:0.075em"
         d="M 573.87859,96.52 V 64.48 l 4.44,-5.58 h -12.48 l 5.16,5.16 v 29.1 l -24.6,-34.26 h -9.9 l 5.82,7.62 v 27.9 l -4.44,5.58 h 12.36 l -5.1,-5.16 V 70.66 l 22.02,29.34 h 9.3 z" />
      <path
         id="path42"
         style="font-family:'Bluu Next';letter-spacing:0.075em"
         d="m 618.03016,86.98 -0.66,-0.12 -7.92,10.98 h -10.74 V 80.38 h 16.38 v -2.7 h -16.38 V 61.06 h 10.2 l 6.6,10.44 h 0.72 V 58.9 h -28.92 l 3.6,6.24 v 28.5 l -3.6,6.36 h 30.06 z" />
      <path
         id="path44"
         style="font-family:'Bluu Next';letter-spacing:0.075em"
         d="m 649.75797,100 h 18.48 l -4.5,-4.02 -16.2,-37.68 h -2.82 l -15.24,36.96 -4.26,4.74 h 13.26 l -5.7,-4.68 3.24,-8.16 h 15.6 l 3.66,8.7 z m -6.06,-31.98 6.84,16.44 h -13.44 z" />
    </g>
  </g>
</svg>
