<?xml version="1.0" encoding="UTF-8" standalone="no"?>
<svg
   xmlns:dc="http://purl.org/dc/elements/1.1/"
   xmlns:cc="http://creativecommons.org/ns#"
   xmlns:rdf="http://www.w3.org/1999/02/22-rdf-syntax-ns#"
   xmlns:svg="http://www.w3.org/2000/svg"
   xmlns="http://www.w3.org/2000/svg"
   id="svg16"
   width="800px"
   version="1.1"
   height="200px">
  <metadata
     id="metadata20">
    <rdf:RDF>
      <cc:Work
         rdf:about="">
        <dc:format>image/svg+xml</dc:format>
        <dc:type
           rdf:resource="http://purl.org/dc/dcmitype/StillImage" />
      </cc:Work>
    </rdf:RDF>
  </metadata>
  <defs
     id="defs4">
    <style
       id="style2"
       type="text/css"><![CDATA[    
     @font-face {font-family:Bluu Next;
     src: url('/Users/francesco/Repos/write-logos/src/fonts/Fonts_E_TEMPORANEA/BluuNext-Bold.otf');}
     @font-face {font-family:Interferencias;
     src: url('/Users/francesco/Repos/write-logos/src/fonts/Fonts_X/Interferencias.otf');}
     ]]></style>
  </defs>
  <g
     id="g14"
     style="font-size:60px">
    <g
       style="text-anchor:middle"
       id="text12"
       aria-label="EXTEMPORANEA">
      <path
         id="path22"
         style="font-family:'Bluu Next';letter-spacing:0.075em"
         d="m 169.76453,86.98 -0.66,-0.12 -7.92,10.98 h -10.74 V 80.38 h 16.38 v -2.7 h -16.38 V 61.06 h 10.2 l 6.6,10.44 h 0.72 V 58.9 h -28.92 l 3.6,6.24 v 28.5 l -3.6,6.36 h 30.06 z" />
      <path
         id="path24"
         style="font-family:Interferencias;letter-spacing:0.05em"
         d="m 173.45898,58.017578 h 7.06055 l 3.42774,2.138672 q 1.43554,1.582031 3.45703,7.851562 0,1.289063 0.64453,1.494141 0.67383,-0.498047 2.63672,-8.847656 0,-0.761719 -1.64063,-1.992188 v -0.146484 q 0.17578,-0.498047 0.9961,-0.498047 h 5.5664 q 3.42774,1.435547 3.42774,3.457031 -4.10157,14.619141 -4.57032,17.197266 1.99219,7.236328 3.92578,7.236328 3.07618,0.878906 3.28125,1.142578 v 0.322266 q -0.0879,0.498047 -2.28515,1.142578 -0.49805,1.259766 -0.49805,1.816406 v 0.146485 q 2.95899,8.876953 2.95899,9.345703 L 201.49609,100 h -5.88867 q -2.08008,0 -3.10547,-4.277344 -1.99218,-5.332031 -1.99218,-6.064453 0.67382,-1.171875 0.67382,-1.464844 l -0.32226,-0.175781 q -1.25977,0 -1.49414,1.816406 -0.82032,0 -1.96289,6.240235 Q 186.67187,100 186.08594,100 h -6.06446 q -1.78711,-0.527344 -1.78711,-0.996094 v -0.46875 q 1.99219,-8.408203 2.78321,-9.345703 1.40625,-1.113281 4.57031,-1.816406 l 0.17578,-0.322266 q -0.49805,-0.380859 -2.46094,-0.820312 -1.46484,-1.201172 -1.46484,-1.816407 1.28906,-4.921875 1.46484,-6.5625 -3.10546,-8.378906 -4.42382,-11.308593 0,-1.201172 -2.28516,-5.566407 0,-0.908203 -2.8125,-1.816406 l -0.64453,-0.820312 q 0.0586,-0.322266 0.32226,-0.322266 z" />
      <path
         id="path26"
         style="font-family:'Bluu Next';letter-spacing:0.075em"
         d="m 206.33922,72.04 0.48,0.06 7.68,-11.04 h 6 v 32.58 l -4.44,6.36 h 16.68 l -4.44,-6.36 V 61 h 6 l 7.74,11.1 0.48,-0.06 V 58.9 h -36.18 z" />
      <path
         id="path28"
         style="font-family:'Bluu Next';letter-spacing:0.075em"
         d="m 282.42859,86.98 -0.66,-0.12 -7.92,10.98 h -10.74 V 80.38 h 16.38 v -2.7 h -16.38 V 61.06 h 10.2 l 6.6,10.44 h 0.72 V 58.9 h -28.92 l 3.6,6.24 v 28.5 l -3.6,6.36 h 30.06 z" />
      <path
         id="path30"
         style="font-family:'Bluu Next';letter-spacing:0.075em"
         d="M 298.49641,94.24 V 69.52 l 15.42,31.2 h 0.42 l 15.54,-35.94 v 28.98 l -5.04,6.24 h 17.34 l -4.5,-6.3 V 63.82 l 4.44,-4.92 h -12.54 l -12.9,30 -14.28,-30 h -11.88 l 5.16,6.24 v 29.1 l -4.62,5.76 h 12.3 z" />
      <path
         id="path32"
         style="font-family:'Bluu Next';letter-spacing:0.075em"
         d="m 351.17734,100 h 17.64 l -5.4,-6.36 V 82.6 c 1.38,0 3.6,-0.12 5.52,-0.42 6.3,-0.78 13.32,-4.92 13.32,-12.3 0,-9.96 -10.86,-10.98 -16.68,-10.98 h -14.4 l 4.44,6.36 v 28.38 z m 12.24,-39.3 c 6.42,0 10.32,3.18 10.32,9.9 0,6.72 -3.78,9.96 -10.32,9.96 z" />
      <path
         id="path34"
         style="font-family:'Bluu Next';letter-spacing:0.075em"
         d="m 430.73078,77.62 c 0,-9.78 -6.72,-19.5 -17.76,-19.5 -14.64,0 -22.32,11.04 -22.32,23.1 0,9.78 6.72,19.5 17.76,19.5 14.64,0 22.32,-11.04 22.32,-23.1 z m -22.02,-16.92 c 8.52,0 13.62,11.82 13.62,24.18 0,4.74 -2.46,13.32 -9.66,13.32 -8.52,0 -13.5,-11.88 -13.5,-24.24 0,-4.74 1.44,-13.26 9.54,-13.26 z" />
      <path
         id="path36"
         style="font-family:'Bluu Next';letter-spacing:0.075em"
         d="m 478.50766,100 -6.36,-5.88 -9.3,-14.46 c 4.86,-1.8 9.3,-5.22 9.3,-10.14 0,-9.96 -11.82,-10.62 -17.22,-10.62 h -15.18 l 4.44,6.36 v 28.38 l -4.44,6.36 h 16.68 l -4.44,-6.36 V 81.52 l 2.88,-0.24 c 3.42,4.74 7.44,11.76 11.52,18.72 z m -26.52,-39.3 c 6.42,0 11.34,2.34 11.34,9.54 0,6.12 -5.58,9.18 -11.34,9.3 z" />
      <path
         id="path38"
         style="font-family:'Bluu Next';letter-spacing:0.075em"
         d="m 506.64859,100 h 18.48 l -4.5,-4.02 -16.2,-37.68 h -2.82 l -15.24,36.96 -4.26,4.74 h 13.26 l -5.7,-4.68 3.24,-8.16 h 15.6 l 3.66,8.7 z m -6.06,-31.98 6.84,16.44 h -13.44 z" />
      <path
         id="path40"
         style="font-family:'Bluu Next';letter-spacing:0.075em"
         d="M 568.72234,96.52 V 64.48 l 4.44,-5.58 h -12.48 l 5.16,5.16 v 29.1 l -24.6,-34.26 h -9.9 l 5.82,7.62 v 27.9 l -4.44,5.58 h 12.36 l -5.1,-5.16 V 70.66 l 22.02,29.34 h 9.3 z" />
      <path
         id="path42"
         style="font-family:'Bluu Next';letter-spacing:0.075em"
         d="m 612.87391,86.98 -0.66,-0.12 -7.92,10.98 h -10.74 V 80.38 h 16.38 v -2.7 h -16.38 V 61.06 h 10.2 l 6.6,10.44 h 0.72 V 58.9 h -28.92 l 3.6,6.24 v 28.5 l -3.6,6.36 h 30.06 z" />
      <path
         id="path44"
         style="font-family:'Bluu Next';letter-spacing:0.075em"
         d="m 644.60172,100 h 18.48 l -4.5,-4.02 -16.2,-37.68 h -2.82 l -15.24,36.96 -4.26,4.74 h 13.26 l -5.7,-4.68 3.24,-8.16 h 15.6 l 3.66,8.7 z m -6.06,-31.98 6.84,16.44 h -13.44 z" />
    </g>
  </g>
</svg>
