<?xml version="1.0" encoding="UTF-8" standalone="no"?>
<svg
   xmlns:dc="http://purl.org/dc/elements/1.1/"
   xmlns:cc="http://creativecommons.org/ns#"
   xmlns:rdf="http://www.w3.org/1999/02/22-rdf-syntax-ns#"
   xmlns:svg="http://www.w3.org/2000/svg"
   xmlns="http://www.w3.org/2000/svg"
   id="svg16"
   width="800px"
   version="1.1"
   height="200px">
  <metadata
     id="metadata20">
    <rdf:RDF>
      <cc:Work
         rdf:about="">
        <dc:format>image/svg+xml</dc:format>
        <dc:type
           rdf:resource="http://purl.org/dc/dcmitype/StillImage" />
      </cc:Work>
    </rdf:RDF>
  </metadata>
  <defs
     id="defs4">
    <style
       id="style2"
       type="text/css"><![CDATA[    
     @font-face {font-family:Bluu Next;
     src: url('/Users/francesco/Repos/write-logos/src/fonts/Fonts_E_TEMPORANEA/BluuNext-Bold.otf');}
     @font-face {font-family:Chakie;
     src: url('/Users/francesco/Repos/write-logos/src/fonts/Fonts_X/Chakie.ttf');}
     ]]></style>
  </defs>
  <g
     id="g14"
     style="font-size:60px">
    <g
       style="text-anchor:middle"
       id="text12"
       aria-label="EXTEMPORANEA">
      <path
         id="path22"
         style="font-family:'Bluu Next';letter-spacing:0.075em"
         d="m 166.24891,86.98 -0.66,-0.12 -7.92,10.98 h -10.74 V 80.38 h 16.38 v -2.7 h -16.38 V 61.06 h 10.2 l 6.6,10.44 h 0.72 V 58.9 h -28.92 l 3.6,6.24 v 28.5 l -3.6,6.36 h 30.06 z" />
      <path
         id="path24"
         style="font-family:Chakie;letter-spacing:0.05em"
         d="m 203.25672,96.28 q -0.12,0 -0.24,0.06 -0.12,0 -0.18,-0.06 -0.3,-0.36 -0.66,0 -0.12,0.06 -0.48,0.06 0.18,0.3 0.36,0.42 0.18,0.12 0.3,0.3 0.06,0.06 -0.06,0.36 -0.12,0 -0.18,0 0,-0.06 -0.06,-0.06 l -0.12,-0.12 q -0.42,-0.12 -0.48,0.12 -0.06,0.12 0,0.3 0.12,0.12 0.24,0.12 0.36,0 0.3,0.24 0,0.24 0.06,0.54 V 98.5 q -0.12,-0.24 -0.12,0 -0.24,0.12 -0.06,0.24 l 0.06,-0.06 q 0,0 0.12,-0.12 0.24,0.06 0.3,0.24 0.12,0.12 0,0.18 -0.6,0.18 -0.96,0.66 -0.12,0.06 -0.12,0.06 -0.3,0.06 -0.6,0 -0.24,-0.12 -0.48,0.24 h -0.12 q -0.12,-0.42 -0.48,-0.3 -0.3,0.12 -0.48,-0.18 -0.06,-0.18 -0.24,0 -0.42,0.48 -0.9,0.06 -0.06,0 -0.06,0 0,-0.06 -0.06,-0.06 -0.06,0 -0.06,-0.06 -0.18,0.18 -0.36,0.3 -0.18,0.06 -0.36,-0.24 -0.18,-0.18 -0.42,-0.06 -0.24,0.06 -0.36,-0.12 -0.18,-0.24 -0.42,-0.24 -0.18,0 -0.36,0 -0.36,0.12 -0.6,0 -0.24,-0.18 -0.48,-0.3 -0.36,-0.12 -0.78,-0.3 -0.36,-0.24 -0.66,-0.54 -0.36,-0.3 -0.78,-0.48 -0.42,-0.24 -0.72,-0.6 -0.24,-0.3 -0.42,-0.66 -0.12,-0.42 -0.48,-0.6 0.12,-0.24 -0.06,-0.36 -0.18,-0.12 -0.18,-0.3 0,-0.3 -0.18,-0.42 -0.18,-0.18 -0.3,-0.36 -0.12,-0.12 -0.24,-0.24 -0.12,-0.12 -0.24,-0.24 -0.24,-0.3 -0.36,-0.6 -0.06,-0.3 -0.36,-0.48 -0.18,-0.18 -0.06,-0.42 0,-0.18 -0.18,-0.3 -0.12,-0.18 -0.24,-0.3 -0.12,-0.18 -0.36,-0.12 -0.18,0.06 -0.18,-0.24 0,-0.18 -0.12,-0.24 -0.12,-0.12 -0.12,-0.3 -0.12,-0.66 -0.6,-0.84 -0.42,-0.24 -0.9,-0.54 l -0.24,0.12 q 0.06,0.06 0.06,0.12 0,0 0.06,0.06 v 0.12 q 0,0.06 0.06,0.06 -0.06,0.12 -0.18,0.24 -0.12,0.12 -0.3,0.18 -0.18,0.06 -0.36,0.18 v 0.12 q -0.18,0.3 -0.3,0.6 -0.06,0.3 -0.3,0.54 0.12,0.48 -0.12,0.72 -0.18,0.18 -0.42,0.42 -0.12,0.12 -0.3,0.3 -0.12,0.18 -0.3,0.36 -0.12,0.12 -0.3,0.18 -0.12,0 -0.24,0.12 0,0.12 0.12,0.18 0.12,0 0,0.24 -0.12,0.3 -0.36,0.66 -0.18,0.36 -0.12,0.72 0.06,0.12 -0.3,0.24 -0.12,0.06 -0.3,0.18 -0.18,0.06 -0.3,0.18 0.12,0.12 0.18,0.24 0.06,0.06 0.18,0.18 -0.3,0.12 -0.54,0.24 -0.24,0.06 -0.36,0.36 0.36,0.12 0.48,0.18 -0.12,0.18 -0.24,0.36 -0.06,0.18 -0.3,0.12 -0.3,-0.06 -0.48,0.12 -0.18,0.12 -0.36,0.36 0.06,0.12 0.12,0.18 0.06,0.06 0.06,0.12 0.3,0.3 0,0.48 -0.12,0.06 -0.3,0.06 -0.12,0 -0.24,0.12 -0.12,0.24 -0.36,0.12 -0.24,-0.12 -0.42,0.12 -0.12,0.18 -0.3,0.36 -0.12,0.18 -0.36,0.3 -0.24,0.24 -0.78,0.12 -0.12,-0.06 -0.18,-0.18 0,-0.06 -0.12,-0.06 -0.3,0 -0.42,-0.18 -0.12,-0.24 -0.3,-0.36 -0.18,-0.12 -0.42,-0.18 -0.18,-0.12 -0.42,-0.24 -0.18,-0.12 -0.36,-0.24 -0.12,-0.18 -0.24,-0.3 -0.18,-0.12 -0.3,-0.24 -0.12,-0.12 -0.36,-0.18 -0.12,0 -0.24,-0.18 -0.12,-0.18 -0.24,-0.36 -0.12,-0.12 -0.18,-0.3 0,-0.24 -0.12,-0.42 -0.12,-0.18 -0.24,-0.36 -0.06,-0.18 0.24,-0.3 0,-0.3 0,-0.48 0,-0.24 0.3,-0.42 -0.06,-0.36 0.12,-0.54 0.24,-0.24 0.42,-0.36 0.18,-0.18 0.24,-0.36 0.06,-0.24 0.12,-0.54 0.06,-0.24 0.18,-0.42 0.12,-0.18 0.24,-0.36 0.06,-0.12 0.12,-0.18 0.06,-0.12 0.06,-0.3 0,-0.3 0.12,-0.42 0.3,-0.24 0.42,-0.66 0.12,-0.42 0.48,-0.66 0.18,-0.12 0.12,-0.3 0,-0.24 0,-0.42 l 0.9,-0.9 q 0,-0.48 0.24,-0.6 0.3,-0.18 0.48,-0.48 0.12,-0.24 0.12,-0.36 0,-0.12 0,-0.3 0.06,-0.24 0.24,-0.36 0.12,-0.12 0.24,-0.24 0.18,-0.12 0.18,-0.42 0,-0.12 0.12,-0.24 0.12,-0.18 0.18,-0.42 0.12,-0.24 0.24,-0.42 0.18,-0.24 0.3,-0.48 0.12,-0.24 0.18,-0.48 0.06,-0.3 0.18,-0.48 0.42,-0.42 0.6,-0.96 0.12,-0.3 0.24,-0.54 0.12,-0.24 0.36,-0.42 0.24,-0.12 0.24,-0.3 0,-0.24 -0.06,-0.9 -0.06,-0.3 0,-0.54 0.06,-0.3 -0.06,-0.66 -0.12,-0.06 -0.24,-0.06 -0.06,0 -0.18,-0.06 0,-0.12 -0.12,-0.24 v -1.14 q -0.12,0 -0.48,-0.12 -0.48,-0.42 -0.6,-1.2 -0.06,-0.3 -0.18,-0.42 -0.12,-0.18 -0.12,-0.36 -0.06,-0.3 -0.18,-0.42 -0.12,-0.12 -0.24,-0.24 -0.18,-0.12 -0.24,-0.42 0,-0.3 -0.24,-0.42 l 0.24,-0.24 q -0.06,-0.06 -0.06,-0.06 0,-0.06 -0.06,-0.12 -0.24,-0.3 -0.54,-0.54 -0.24,-0.24 -0.54,-0.54 0,-0.24 0.06,-0.48 0.06,-0.24 -0.06,-0.36 -0.12,-0.3 -0.18,-0.48 -0.06,-0.18 -0.18,-0.36 -0.24,-0.3 -0.36,-0.66 -0.06,-0.36 -0.36,-0.66 -0.12,-0.12 0.06,-0.18 0.24,-0.06 0.12,-0.24 -0.12,-0.12 -0.24,-0.36 0,-0.48 -0.18,-0.72 -0.12,-0.24 -0.24,-0.42 -0.12,-0.24 -0.12,-0.48 0.06,-0.36 -0.12,-0.54 -0.18,-0.24 -0.24,-0.54 -0.06,-0.18 -0.24,-0.36 -0.12,-0.18 -0.24,-0.48 -0.06,-0.06 0,-0.12 0.12,-0.06 0.24,-0.18 -0.12,-0.12 -0.12,-0.12 -0.18,-0.06 -0.42,-0.12 -0.18,-0.06 -0.12,-0.36 0.06,-0.12 0,-0.3 0,-0.18 0,-0.3 -0.12,-0.18 -0.24,-0.3 -0.12,-0.18 -0.24,-0.3 0.18,-0.3 0.12,-0.42 -0.12,-0.18 -0.24,-0.36 -0.12,-0.18 -0.24,-0.48 -0.06,-0.24 -0.06,-0.48 0.06,-0.24 0.06,-0.54 V 59.5 q 0.12,-0.24 0.36,-0.36 0.3,-0.18 0.54,-0.3 0.24,-0.12 0.36,-0.06 0.18,0 0.36,-0.06 0.3,0 0.48,0 0.24,0 0.42,-0.3 h 0.84 q 0.12,0.18 0.18,0.36 0.06,0.18 0.18,0.24 0.42,0.12 0.84,-0.18 0.3,-0.36 0.48,0.36 0,0 0.12,0.12 h 1.08 q 0.24,0.3 0.42,0.54 0.24,0.18 0.36,0.36 h 0.72 q 0.3,0.3 0.36,0.66 0.06,0.3 0.48,0.36 0.24,0 0.24,0.18 0,0.12 0,0.24 0.06,0.6 0.6,0.3 0.06,-0.06 0.06,-0.06 0.06,0 0.12,-0.06 0.12,0.24 0.12,0.3 -0.12,0.12 -0.12,0.3 -0.18,0.24 0.12,0.3 h 0.3 v 0.12 q 0,0.06 0.06,0.12 0.3,-0.06 0.42,0.18 0.18,0.18 0.48,0.18 0.18,0 0.18,0.3 -0.06,0.78 0.66,0.9 0.18,0.06 0.24,0.24 0.12,0.12 0.3,0.24 -0.12,0.12 -0.3,0.3 -0.12,0.18 -0.3,0.36 0.36,0.12 0.42,0.12 0.12,-0.06 0.12,-0.12 0.06,-0.12 0.18,-0.18 0.18,0 0.42,0.12 -0.06,0.06 -0.06,0.12 0,0 -0.06,0.06 -0.24,0.18 -0.06,0.48 0.12,0.18 0.3,0.3 0.36,0.42 0,0.78 l -0.36,0.36 q 0.12,0.12 0.12,0.12 h 1.14 q 0.12,0.24 0.24,0.42 0.12,0.18 0.18,0.42 0.12,0.48 0.54,0.72 0.18,-0.12 0.3,-0.24 0.18,-0.18 0.36,-0.36 0.18,-0.3 0.36,-0.48 0.24,-0.18 0.3,-0.54 0.06,-0.24 0.24,-0.36 0.24,-0.12 0.3,-0.42 0.12,-0.42 0.42,-0.6 0.3,-0.24 0.42,-0.54 0.18,-0.3 0.3,-0.6 0.18,-0.36 0.48,-0.6 0.18,-0.18 0.24,-0.48 0.06,-0.3 0.3,-0.6 0.24,-0.18 0.36,-0.42 0.12,-0.3 0.42,-0.54 0.18,-0.18 0.42,-0.36 0.24,-0.24 0.36,-0.54 0.12,-0.42 0.42,-0.66 0.3,-0.3 0.6,-0.66 0.24,-0.3 0.3,-0.54 0.06,-0.12 0.18,-0.24 0.18,-0.12 0.3,-0.24 0.12,-0.12 0.3,-0.18 0.18,-0.06 0.3,-0.18 0.3,-0.12 0.54,-0.18 0.3,-0.12 0.54,-0.42 0.42,0 0.84,0 0.42,0 0.78,0.06 0.24,0 0.24,0.06 0.18,0.3 0.42,0.24 0.3,-0.12 0.48,0.06 0.12,0.12 0.3,0.18 0.18,0.06 0.3,0.18 0.12,0.18 0.36,0.18 0.24,-0.06 0.24,0.3 0,0.3 0.24,0.3 0.3,-0.06 0.42,0.12 0.06,0.12 0.18,0.24 0.12,0.12 0.06,0.3 0,0.48 0.24,0.66 0.3,0.24 0.48,0.54 0.18,0.3 0.36,0.66 0.24,0.48 0,0.78 -0.12,0.12 -0.12,0.24 0,0.12 -0.12,0.3 -0.06,0.12 -0.24,0.12 -0.12,0 -0.18,0.12 -0.12,0.18 -0.12,0.36 0,0.18 -0.06,0.42 -0.18,0 -0.36,0.06 -0.18,0 -0.48,0 0.12,0.18 0.18,0.3 0.06,0.12 0.18,0.24 -0.48,0.6 -0.78,0.96 -0.3,0.36 -0.72,0.6 -0.66,0.24 -0.6,1.02 0,0 -0.18,0.18 -0.06,-0.06 -0.06,-0.12 0,-0.06 -0.06,-0.18 -0.06,-0.06 -0.06,-0.12 v -0.12 q -0.24,-0.06 -0.24,0.24 0,0.24 -0.06,0.3 -0.18,0.12 -0.18,0.24 0.06,0.06 0.18,0.24 l -0.06,0.18 q -0.18,0 -0.36,0.06 -0.12,0 -0.06,0.3 0,0.12 -0.3,0.24 -0.18,0 -0.48,0.48 -0.24,0.42 -0.18,0.54 0.12,0.18 0.3,0.3 -0.3,0.18 -0.6,0.36 -0.24,0.12 -0.3,0.66 -0.06,0.18 -0.3,0.12 -0.18,-0.06 -0.36,0 -0.12,0 -0.12,0.18 0,0.12 0.12,0.12 h 0.12 q 0.12,0 0.24,0.12 -0.42,0.48 -0.6,0.6 -0.12,0.06 -0.78,0.36 0.06,0.12 0.12,0.18 0.06,0 0.12,0.12 -0.18,0.12 -0.42,0.24 -0.24,0.06 -0.18,0.36 -0.12,0.06 -0.18,0.06 -0.12,0 -0.18,0.06 0,0 -0.06,0 -0.06,0 -0.06,0.12 0,0.06 -0.06,0.06 0.36,0.24 0.06,0.48 -0.12,0.12 -0.18,0.36 0,0.24 -0.24,0.42 -0.12,0.12 -0.18,0.3 0,0.12 -0.12,0.3 -0.12,0.18 -0.36,0.24 -0.18,0 -0.36,0.18 -0.12,0.18 0,0.24 0.12,0.06 0.18,0.18 -0.12,0.12 -0.3,0.18 -0.12,0 -0.3,0.12 l 0.12,0.12 q 0.3,0.18 0.18,0.48 -0.12,0.3 0.12,0.42 0.6,0.18 0.72,0.54 -0.06,0 -0.12,0.06 -0.06,0.06 -0.12,0 -0.3,0 -0.3,0.36 0,0.12 0.06,0.18 0.06,0.06 0.12,0.18 l 0.18,-0.18 q 0.36,0.24 0.42,0.36 0.06,0.06 0.12,0.54 0.36,0.42 0.72,0.78 0.36,0.36 0.72,0.72 v 0.96 q -0.12,0.06 -0.3,0.18 -0.12,0.06 -0.24,0.12 0.12,0.12 0.3,0.18 0.18,0.06 0.3,0.18 0.24,0.18 0.36,0.06 0.18,-0.12 0.36,-0.24 0.24,0.36 -0.18,0.78 0.42,0.36 0.78,0.78 0.36,0.36 0.72,0.78 0.36,0.36 0.06,0.96 -0.24,0.66 0.24,0.66 0.12,0.06 0.3,0.06 0.24,0 0.24,0.12 0,0.24 0.06,0.36 0.12,0.12 0.24,0.24 -0.36,0.24 0,0.6 0.12,0.12 0,0.36 -0.06,0.24 0.18,0.36 0.18,0.06 0.3,0.18 0.18,0.12 0.3,0.12 0.3,0 0.48,0.18 0.18,0.18 0.3,0.42 0.18,0.3 0.3,0.6 0.18,0.24 0.42,0.48 -0.06,0 -0.06,0.06 -0.06,0.12 -0.06,0.12 0,0.06 -0.06,0.06 0,0 0,0.06 v 0.12 q 0.12,0.12 0.24,0.12 0.18,0 0.24,0.12 0.12,0.12 0.12,0.24 0,0.12 0.18,0.24 0.24,0.12 0.3,0.36 0.06,0.24 0.12,0.54 0.06,0.3 0.18,0.6 0.12,0.24 0.42,0.42 0.18,0.18 0.18,0.42 0.06,0.18 0.06,0.36 0,0.12 -0.12,0.42 -0.06,0.24 -0.18,0.36 z m -5.76,-7.62 h 0.18 v -0.12 q -0.18,-0.18 -0.3,-0.06 l 0.06,0.06 q 0.12,0.12 0.24,0.12 -0.12,0.3 0.18,0.3 0.24,0.06 0.66,0.06 0.06,0.24 0.54,0.54 0.12,-0.42 0,-0.48 -0.06,-0.06 -0.54,-0.06 0.12,-0.36 -0.18,-0.36 -0.18,-0.06 -0.36,0 -0.18,0 -0.48,0 z m -10.44,-18.3 h 0.3 q 0.3,0 0.3,-0.3 0,-0.3 -0.24,-0.36 -0.36,0 -0.36,0.36 0,0.24 -0.24,0.3 h -0.42 q 0,0 -0.18,0.18 0.06,0.06 0.12,0.06 0.18,0.06 0.54,0.06 0.18,0 0.18,-0.18 0.06,-0.18 -0.06,-0.12 -0.06,0.06 0.06,0 z m -1.44,-3.9 q -0.3,-0.24 -0.54,0 -0.12,0 0,0.12 0.12,0.12 0.24,0.12 0.18,0 0.24,-0.12 0.06,-0.06 0.06,-0.12 z m -0.3,-0.78 q -0.06,-0.06 -0.06,-0.06 0,-0.06 -0.06,-0.12 0,0.06 -0.06,0.06 -0.06,0 -0.06,0.06 0,0.06 0.06,0.12 0.06,0 0.06,0.06 z m 1.02,1.26 q 0.06,0 0.06,-0.06 0.06,-0.06 0.12,-0.06 -0.12,-0.12 -0.12,-0.12 -0.06,0 -0.18,0.12 0.06,0 0.06,0.06 0,0.06 0.06,0.06 z m -0.54,0.66 q -0.12,0.12 -0.18,0.12 l 0.12,0.12 q 0.06,-0.06 0.06,-0.06 0.06,0 0.12,-0.06 z m 2.4,2.04 q -0.06,-0.06 -0.06,-0.06 0,-0.06 -0.06,-0.12 l -0.06,0.06 q 0,0.06 0,0.12 0.06,0 0.06,0.06 0.06,0 0.06,0 0,-0.06 0.06,-0.06 z m 7.56,2.88 -0.06,0.06 q 0,0.06 0,0.12 0.06,0 0.06,0.12 l 0.12,-0.12 q 0,-0.06 -0.12,-0.18 z m 0.36,12.24 q -0.06,0 -0.18,0.12 l 0.06,0.06 q 0.06,0 0.06,0 0.06,-0.06 0.18,-0.06 z m 1.44,2.34 q 0.06,-0.12 0.12,-0.18 -0.06,0 -0.12,0 0,-0.06 -0.12,-0.06 l -0.06,0.06 q 0.06,0.06 0.06,0.06 0.06,0 0.12,0.12 z m -13.44,4.14 q -0.12,-0.12 -0.12,-0.12 -0.06,0.06 -0.06,0.12 0,0 -0.06,0.06 0,0 0.12,0.12 0,-0.06 0.12,-0.18 z m -0.9,1.56 q 0,-0.06 -0.12,-0.18 0,0.06 -0.06,0.06 0,0 0,0.06 0,0.06 0,0.12 0.06,0 0.06,0.06 0.12,0 0.12,-0.12 z m 17.88,2.28 q 0,-0.06 0,-0.06 0.06,0 0.06,-0.12 -0.06,0 -0.12,0 0,-0.06 -0.06,-0.06 l -0.06,0.06 q 0.06,0.12 0.06,0.12 0.06,0 0.12,0.06 z m -0.96,-6.06 q -0.24,-0.24 -0.36,-0.48 0.06,0 0.06,-0.06 0,-0.12 0.06,-0.12 0.3,0 0.36,0.12 0.06,0.06 0,0.18 0,0.12 0,0.24 z m 3.66,7.5 q 0,0.18 -0.48,0.06 -0.06,0 -0.06,-0.06 V 96.4 q -0.12,-0.24 0.12,-0.12 0.12,0 0.18,0.06 0.06,0 0.18,0 0.06,0 0.06,0.18 z m -19.8,-34.08 0.12,0.12 q -0.06,0.06 -0.06,0.12 0,0 -0.06,0.06 h -0.12 q -0.12,-0.12 0,-0.12 0,-0.06 0.12,-0.18 z" />
      <path
         id="path26"
         style="font-family:'Bluu Next';letter-spacing:0.075em"
         d="m 209.85484,72.04 0.48,0.06 7.68,-11.04 h 6 v 32.58 l -4.44,6.36 h 16.68 l -4.44,-6.36 V 61 h 6 l 7.74,11.1 0.48,-0.06 V 58.9 h -36.18 z" />
      <path
         id="path28"
         style="font-family:'Bluu Next';letter-spacing:0.075em"
         d="m 285.94422,86.98 -0.66,-0.12 -7.92,10.98 h -10.74 V 80.38 h 16.38 v -2.7 h -16.38 V 61.06 h 10.2 l 6.6,10.44 h 0.72 V 58.9 h -28.92 l 3.6,6.24 v 28.5 l -3.6,6.36 h 30.06 z" />
      <path
         id="path30"
         style="font-family:'Bluu Next';letter-spacing:0.075em"
         d="M 302.01203,94.24 V 69.52 l 15.42,31.2 h 0.42 l 15.54,-35.94 v 28.98 l -5.04,6.24 h 17.34 l -4.5,-6.3 V 63.82 l 4.44,-4.92 h -12.54 l -12.9,30 -14.28,-30 h -11.88 l 5.16,6.24 v 29.1 l -4.62,5.76 h 12.3 z" />
      <path
         id="path32"
         style="font-family:'Bluu Next';letter-spacing:0.075em"
         d="m 354.69297,100 h 17.64 l -5.4,-6.36 V 82.6 c 1.38,0 3.6,-0.12 5.52,-0.42 6.3,-0.78 13.32,-4.92 13.32,-12.3 0,-9.96 -10.86,-10.98 -16.68,-10.98 h -14.4 l 4.44,6.36 v 28.38 z m 12.24,-39.3 c 6.42,0 10.32,3.18 10.32,9.9 0,6.72 -3.78,9.96 -10.32,9.96 z" />
      <path
         id="path34"
         style="font-family:'Bluu Next';letter-spacing:0.075em"
         d="m 434.24641,77.62 c 0,-9.78 -6.72,-19.5 -17.76,-19.5 -14.64,0 -22.32,11.04 -22.32,23.1 0,9.78 6.72,19.5 17.76,19.5 14.64,0 22.32,-11.04 22.32,-23.1 z m -22.02,-16.92 c 8.52,0 13.62,11.82 13.62,24.18 0,4.74 -2.46,13.32 -9.66,13.32 -8.52,0 -13.5,-11.88 -13.5,-24.24 0,-4.74 1.44,-13.26 9.54,-13.26 z" />
      <path
         id="path36"
         style="font-family:'Bluu Next';letter-spacing:0.075em"
         d="m 482.02328,100 -6.36,-5.88 -9.3,-14.46 c 4.86,-1.8 9.3,-5.22 9.3,-10.14 0,-9.96 -11.82,-10.62 -17.22,-10.62 h -15.18 l 4.44,6.36 v 28.38 l -4.44,6.36 h 16.68 l -4.44,-6.36 V 81.52 l 2.88,-0.24 c 3.42,4.74 7.44,11.76 11.52,18.72 z m -26.52,-39.3 c 6.42,0 11.34,2.34 11.34,9.54 0,6.12 -5.58,9.18 -11.34,9.3 z" />
      <path
         id="path38"
         style="font-family:'Bluu Next';letter-spacing:0.075em"
         d="m 510.16422,100 h 18.48 l -4.5,-4.02 -16.2,-37.68 h -2.82 l -15.24,36.96 -4.26,4.74 h 13.26 l -5.7,-4.68 3.24,-8.16 h 15.6 l 3.66,8.7 z m -6.06,-31.98 6.84,16.44 h -13.44 z" />
      <path
         id="path40"
         style="font-family:'Bluu Next';letter-spacing:0.075em"
         d="M 572.23797,96.52 V 64.48 l 4.44,-5.58 h -12.48 l 5.16,5.16 v 29.1 l -24.6,-34.26 h -9.9 l 5.82,7.62 v 27.9 l -4.44,5.58 h 12.36 l -5.1,-5.16 V 70.66 l 22.02,29.34 h 9.3 z" />
      <path
         id="path42"
         style="font-family:'Bluu Next';letter-spacing:0.075em"
         d="m 616.38953,86.98 -0.66,-0.12 -7.92,10.98 h -10.74 V 80.38 h 16.38 v -2.7 h -16.38 V 61.06 h 10.2 l 6.6,10.44 h 0.72 V 58.9 h -28.92 l 3.6,6.24 v 28.5 l -3.6,6.36 h 30.06 z" />
      <path
         id="path44"
         style="font-family:'Bluu Next';letter-spacing:0.075em"
         d="m 648.11734,100 h 18.48 l -4.5,-4.02 -16.2,-37.68 h -2.82 l -15.24,36.96 -4.26,4.74 h 13.26 l -5.7,-4.68 3.24,-8.16 h 15.6 l 3.66,8.7 z m -6.06,-31.98 6.84,16.44 h -13.44 z" />
    </g>
  </g>
</svg>
