<?xml version="1.0" encoding="UTF-8" standalone="no"?>
<svg
   xmlns:dc="http://purl.org/dc/elements/1.1/"
   xmlns:cc="http://creativecommons.org/ns#"
   xmlns:rdf="http://www.w3.org/1999/02/22-rdf-syntax-ns#"
   xmlns:svg="http://www.w3.org/2000/svg"
   xmlns="http://www.w3.org/2000/svg"
   id="svg16"
   width="800px"
   version="1.1"
   height="200px">
  <metadata
     id="metadata20">
    <rdf:RDF>
      <cc:Work
         rdf:about="">
        <dc:format>image/svg+xml</dc:format>
        <dc:type
           rdf:resource="http://purl.org/dc/dcmitype/StillImage" />
      </cc:Work>
    </rdf:RDF>
  </metadata>
  <defs
     id="defs4">
    <style
       id="style2"
       type="text/css"><![CDATA[    
     @font-face {font-family:Bluu Next;
     src: url('/Users/francesco/Repos/write-logos/src/fonts/Fonts_E_TEMPORANEA/BluuNext-Bold.otf');}
     @font-face {font-family:Dr Eye;
     src: url('/Users/francesco/Repos/write-logos/src/fonts/Fonts_X/DrEye.otf');}
     ]]></style>
  </defs>
  <g
     id="g14"
     style="font-size:60px">
    <g
       style="text-anchor:middle"
       id="text12"
       aria-label="EXTEMPORANEA">
      <path
         id="path22"
         style="font-family:'Bluu Next';letter-spacing:0.075em"
         d="m 161.15125,86.98 -0.66,-0.12 -7.92,10.98 h -10.74 V 80.38 h 16.38 v -2.7 h -16.38 V 61.06 h 10.2 l 6.6,10.44 h 0.72 V 58.9 h -28.92 l 3.6,6.24 v 28.5 l -3.6,6.36 h 30.06 z" />
      <path
         id="path24"
         style="font-family:'Dr Eye';letter-spacing:0.05em"
         d="m 166.95906,55.78 c 0.18,-0.24 2.1,-1.08 0,-1.2 -0.66,-0.06 -0.24,0.96 0,1.2 z m 0.9,8.94 c -0.12,0 -0.6,0.06 -0.72,0 -0.06,0.18 -0.42,0.12 -0.6,0.18 0.06,0.12 0,0.66 0,0.78 0.18,0 0.36,0.12 0.6,0.18 -0.42,0.12 0.84,-0.18 0.54,-0.18 0.42,0.24 0.18,-0.96 0.18,-0.96 z m 37.74,28.5 c 0.78,-3.9 -2.28,-3.06 -3.9,-4.08 -0.3,-0.12 -0.06,-0.36 -0.3,-0.6 -0.48,-0.84 -0.36,-2.28 -0.9,-3.18 -0.9,-1.5 -3.18,-1.2 -4.08,-2.4 -0.78,-1.02 -0.42,-3 -1.38,-3.78 l -0.18,-0.18 c -1.26,-1.02 -2.34,-0.42 -3,-2.1 0,-0.06 -0.42,-0.9 -0.36,-0.9 0.48,-0.36 0.36,-1.32 0.78,-1.68 0.78,-0.78 2.52,-0.66 3.18,-1.56 l 0.42,-0.36 c 0.42,-1.44 0,-2.16 0.72,-3.18 0.84,-1.26 3.24,-1.02 4.08,-2.46 0.36,-0.66 0.24,-1.98 0.54,-2.76 0.66,-1.8 5.46,-1.8 3.42,-5.1 l -0.18,-0.36 c -0.72,-0.6 -1.98,-0.48 -2.76,-0.96 -1.44,-0.9 -0.54,-3.48 -2.88,-4.14 -0.12,0 -0.36,0 -0.54,0 -2.1,0.12 -2.04,2.34 -3.24,3.42 -0.96,0.78 -1.86,0.48 -2.94,1.14 -1.56,1.02 -0.9,2.7 -1.68,4.32 l -0.6,0.54 c -1.44,0.78 -2.82,0.42 -3.96,1.5 -0.6,0.54 -0.42,2.16 -1.26,2.4 -1.02,0.3 -2.28,-0.12 -2.7,-0.54 -0.3,-0.42 -0.6,-1.74 -0.36,-2.58 0.3,-1.14 1.86,-0.48 2.28,-1.86 0.12,-0.48 0.18,-0.84 0.18,-1.2 0,-0.06 -0.06,-0.36 -0.18,-0.72 -0.06,-0.06 -0.3,-0.54 -0.36,-0.6 -0.84,-0.72 -2.34,-0.48 -3.42,-0.18 0,0.3 0.12,1.14 0,1.32 -0.3,0.54 -1.5,0.48 -2.4,0.54 -1.14,-1.68 -1.26,-2.7 1.14,-3.36 0.3,-1.14 0.54,-3.66 -1.14,-3.96 -2.58,-0.48 -2.28,2.28 -3.6,3.06 -1.08,0.6 -2.7,0.18 -3.9,0.9 -1.08,0.66 -0.78,5.16 0.18,5.64 0.78,0.42 1.56,0.12 2.22,0.6 1.32,0.78 1.38,2.4 1.14,4.32 -1.68,0.66 -2.04,0.72 -2.22,2.94 1.38,0.66 1.26,0.78 2.58,0 0.12,-0.06 0.78,-0.12 0.78,-0.18 0.18,-0.3 0,-1.08 0,-1.44 0.06,0 0.54,0 0.54,0 0.42,-0.12 0.48,-0.3 0.96,-0.24 2.28,0.18 2.46,2.04 1.86,3.96 -0.72,0.18 -1.56,0.3 -1.86,0.96 -0.36,0.66 -0.18,1.92 0,2.58 0.6,2.28 2.4,1.56 2.64,3 0.54,3.24 -2.58,3.36 -4.32,3.24 -0.42,1.32 -0.3,3.84 -1.14,4.86 -0.78,1.02 -3.42,0.84 -3.9,2.04 -0.6,1.62 -0.12,3.24 -1.38,4.14 -1.26,0.96 -1.86,-0.06 -2.58,1.86 -0.3,0.78 -0.48,1.44 0,2.22 0.06,0.12 0.42,0.54 0.54,0.6 0,0.06 0.18,0.18 0.18,0.18 0.84,0.6 2.04,0.3 3,0.72 1.08,0.54 0.72,3.06 1.92,3.6 0.42,0.24 1.5,0 1.5,0 0.36,-0.3 0.9,-0.36 1.08,-0.72 0.48,-0.9 0.18,-2.34 0.96,-2.88 0.66,-0.42 1.44,-0.12 2.46,-0.36 2.46,-0.54 1.86,-3.42 2.58,-5.76 1.38,0.06 3.9,0.24 4.38,-1.56 0.24,-1.08 -0.24,-2.1 -0.42,-2.76 -2.4,-0.6 -2.04,-1.32 -1.44,-3.42 1.02,-0.06 2.58,-0.12 2.94,0.9 0.06,0.36 -0.18,0.96 0,1.2 0.18,0.24 1.02,0.36 1.32,0.54 1.38,0.72 3.3,0.78 3.78,2.46 0.42,1.32 0.48,3.06 1.68,3.54 1.44,0.6 2.1,0 2.94,1.32 0.66,0.96 0.54,3.54 1.74,3.9 0.9,0.3 1.98,-0.06 2.76,0.18 2.46,0.66 1.98,3.24 4.74,3.24 0.84,-1.92 0.78,-3 -1.68,-3.42 -0.06,-0.3 0.12,-0.42 -0.18,-0.54 0,-1.86 0.12,-3.3 1.08,-4.08 0.84,-0.72 1.86,-0.42 2.1,-1.74 z m -31.92,-11.94 c -0.36,-0.6 -0.66,-0.54 -1.32,-0.84 -0.06,0.18 -0.6,0.3 -0.72,0.48 0.06,0.3 -0.12,0.72 0,1.08 0.36,1.08 3.96,1.56 2.04,-0.72 z m -6.54,4.8 c -0.78,0 -0.18,1.02 -0.18,1.02 0.3,-0.24 1.2,-0.96 0.18,-1.02 z m 41.82,11.46 c 0.6,-0.06 0.3,-1.14 -0.54,-1.08 -0.72,0.06 -0.24,1.14 0.54,1.08 z m -30.36,-6 c 0.9,0.36 1.62,2.52 -1.14,1.14 0,-0.36 0.18,-1.08 0.18,-1.14 0.3,0.12 0.6,-0.12 0.96,0 z" />
      <path
         id="path26"
         style="font-family:'Bluu Next';letter-spacing:0.075em"
         d="m 214.9525,72.04 0.48,0.06 7.68,-11.04 h 6 v 32.58 l -4.44,6.36 h 16.68 l -4.44,-6.36 V 61 h 6 l 7.74,11.1 0.48,-0.06 V 58.9 h -36.18 z" />
      <path
         id="path28"
         style="font-family:'Bluu Next';letter-spacing:0.075em"
         d="m 291.04187,86.98 -0.66,-0.12 -7.91999,10.98 H 271.72187 V 80.38 h 16.38 v -2.7 h -16.38 V 61.06 h 10.2 l 6.60001,10.44 h 0.71999 V 58.9 h -28.92 l 3.6,6.24 v 28.5 l -3.6,6.36 h 30.06 z" />
      <path
         id="path30"
         style="font-family:'Bluu Next';letter-spacing:0.075em"
         d="M 307.10969,94.24 V 69.52 l 15.42,31.2 h 0.42 l 15.54,-35.94 v 28.98 l -5.04,6.24 h 17.34 l -4.5,-6.3 V 63.82 l 4.44,-4.92 h -12.54 l -12.9,30 -14.28,-30 h -11.88 l 5.16,6.24 v 29.1 l -4.62,5.76 h 12.3 z" />
      <path
         id="path32"
         style="font-family:'Bluu Next';letter-spacing:0.075em"
         d="m 359.79062,100 h 17.64001 l -5.40001,-6.36 V 82.6 c 1.38,0 3.6,-0.12 5.52001,-0.42 6.29999,-0.78 13.32,-4.92 13.32,-12.3 0,-9.96 -10.86001,-10.98 -16.68001,-10.98 h -14.4 l 4.44,6.36 v 28.38 z m 12.24,-39.3 c 6.42,0 10.32,3.18 10.32,9.9 0,6.72 -3.78,9.96 -10.32,9.96 z" />
      <path
         id="path34"
         style="font-family:'Bluu Next';letter-spacing:0.075em"
         d="m 439.34406,77.62 c 0,-9.78 -6.72,-19.5 -17.76,-19.5 -14.64,0 -22.32,11.04 -22.32,23.1 0,9.78 6.72,19.5 17.76,19.5 14.64,0 22.32,-11.04 22.32,-23.1 z m -22.02,-16.92 c 8.52,0 13.62,11.82 13.62,24.18 0,4.74 -2.46,13.32 -9.66,13.32 -8.52,0 -13.5,-11.88 -13.5,-24.24 0,-4.74 1.44,-13.26 9.54,-13.26 z" />
      <path
         id="path36"
         style="font-family:'Bluu Next';letter-spacing:0.075em"
         d="m 487.12094,100 -6.36,-5.88 -9.3,-14.46 c 4.86,-1.8 9.3,-5.22 9.3,-10.14 0,-9.96 -11.82,-10.62 -17.22,-10.62 h -15.18 l 4.44,6.36 v 28.38 l -4.44,6.36 h 16.68 l -4.44,-6.36 V 81.52 l 2.88,-0.24 c 3.42,4.74 7.44,11.76 11.52,18.72 z m -26.52,-39.3 c 6.42,0 11.34,2.34 11.34,9.54 0,6.12 -5.58,9.18 -11.34,9.3 z" />
      <path
         id="path38"
         style="font-family:'Bluu Next';letter-spacing:0.075em"
         d="m 515.26188,100 h 18.48 l -4.5,-4.02 -16.20001,-37.68 h -2.82 l -15.24,36.96 -4.26,4.74 h 13.26 l -5.69999,-4.68 3.24,-8.16 h 15.6 l 3.66,8.7 z m -6.06001,-31.98 6.84,16.44 h -13.44 z" />
      <path
         id="path40"
         style="font-family:'Bluu Next';letter-spacing:0.075em"
         d="M 577.33563,96.52 V 64.48 l 4.43999,-5.58 h -12.48 l 5.16001,5.16 v 29.1 l -24.6,-34.26 h -9.9 l 5.81999,7.62 v 27.9 l -4.43999,5.58 h 12.35999 l -5.09999,-5.16 V 70.66 l 22.02,29.34 h 9.29999 z" />
      <path
         id="path42"
         style="font-family:'Bluu Next';letter-spacing:0.075em"
         d="m 621.48719,86.98 -0.66,-0.12 -7.92,10.98 h -10.74 V 80.38 h 16.38 v -2.7 h -16.38 V 61.06 h 10.2 l 6.6,10.44 h 0.72 V 58.9 h -28.92 l 3.6,6.24 v 28.5 l -3.6,6.36 h 30.06 z" />
      <path
         id="path44"
         style="font-family:'Bluu Next';letter-spacing:0.075em"
         d="m 653.215,100 h 18.48 l -4.5,-4.02 -16.2,-37.68 h -2.82 l -15.24,36.96 -4.26,4.74 h 13.26 l -5.7,-4.68 3.24,-8.16 h 15.6 l 3.66,8.7 z m -6.06,-31.98 6.84,16.44 h -13.44 z" />
    </g>
  </g>
</svg>
