<?xml version="1.0" encoding="UTF-8" standalone="no"?>
<svg
   xmlns:dc="http://purl.org/dc/elements/1.1/"
   xmlns:cc="http://creativecommons.org/ns#"
   xmlns:rdf="http://www.w3.org/1999/02/22-rdf-syntax-ns#"
   xmlns:svg="http://www.w3.org/2000/svg"
   xmlns="http://www.w3.org/2000/svg"
   id="svg16"
   width="800px"
   version="1.1"
   height="200px">
  <metadata
     id="metadata20">
    <rdf:RDF>
      <cc:Work
         rdf:about="">
        <dc:format>image/svg+xml</dc:format>
        <dc:type
           rdf:resource="http://purl.org/dc/dcmitype/StillImage" />
      </cc:Work>
    </rdf:RDF>
  </metadata>
  <defs
     id="defs4">
    <style
       id="style2"
       type="text/css"><![CDATA[    
     @font-face {font-family:Bluu Next;
     src: url('/Users/francesco/Repos/write-logos/src/fonts/Fonts_E_TEMPORANEA/BluuNext-Bold.otf');}
     @font-face {font-family:Arsenale Blue;
     src: url('/Users/francesco/Repos/write-logos/src/fonts/Fonts_X/arsenaleblue.ttf');}
     ]]></style>
  </defs>
  <g
     id="g14"
     style="font-size:60px">
    <g
       style="text-anchor:middle"
       id="text12"
       aria-label="EXTEMPORANEA">
      <path
         id="path22"
         style="font-family:'Bluu Next';letter-spacing:0.075em"
         d="m 160.97547,86.98 -0.66,-0.12 -7.92,10.98 h -10.74 V 80.38 h 16.38 v -2.7 h -16.38 V 61.06 h 10.2 l 6.6,10.44 h 0.72 V 58.9 h -28.92 l 3.6,6.24 v 28.5 l -3.6,6.36 h 30.06 z" />
      <path
         id="path24"
         style="font-family:'Arsenale Blue';letter-spacing:0.05em"
         d="m 209.02328,91 q 0.18,1.38 0.18,2.88 0,3.24 -1.2,5.22 -1.14,1.92 -3.78,2.64 -1.8,0 -6.06,-3.6 -4.26,-3.66 -11.22,-10.8 -7.5,-7.62 -11.04,-11.4 -3.48,-3.84 -3.48,-3.72 -0.72,-2.76 -0.72,-4.74 0,-2.82 1.2,-4.44 1.26,-1.68 4.14,-1.68 3,0 6.3,1.32 3.36,1.26 6.66,3.48 3.3,2.22 6.36,5.16 3.06,2.94 5.58,6.24 2.58,3.24 4.38,6.66 1.86,3.36 2.64,6.54 z m -21.12,-0.06 q 0,1.98 -1.14,3.9 -1.08,1.86 -2.76,3.36 -1.62,1.5 -3.48,2.4 -1.8,0.96 -3.24,0.96 -0.84,0 -1.68,-0.24 -0.84,-0.24 -1.68,-0.9 -0.12,0 -0.9,-0.48 -0.72,-0.54 -1.56,-1.32 -0.84,-0.84 -1.56,-1.86 -0.66,-1.02 -0.66,-2.16 0,-2.04 1.62,-4.92 0.72,-1.02 1.62,-2.16 0.9,-1.14 1.92,-2.1 1.08,-1.02 2.28,-1.62 1.2,-0.66 2.58,-0.66 1.38,0 2.82,0.78 1.44,0.72 3,2.58 0.42,0.48 0.9,0.96 0.54,0.48 0.96,0.96 0.42,0.48 0.66,1.02 0.3,0.48 0.3,1.08 z m 7.32,-22.74 q 0,-1.38 0.78,-2.76 0.84,-1.38 1.98,-2.46 1.2,-1.08 2.52,-1.74 1.38,-0.72 2.4,-0.72 1.32,0 2.4,0.84 0.12,0 0.66,0.36 0.54,0.36 1.14,0.96 0.66,0.6 1.14,1.38 0.48,0.72 0.48,1.5 0,0.6 -0.54,1.98 -0.54,1.38 -1.5,2.76 -0.9,1.38 -2.28,2.46 -1.32,1.08 -2.94,1.08 -1.02,0 -2.1,-0.54 -1.02,-0.54 -2.1,-1.86 -0.66,-0.78 -1.38,-1.44 -0.66,-0.66 -0.66,-1.5 z" />
      <path
         id="path26"
         style="font-family:'Bluu Next';letter-spacing:0.075em"
         d="m 215.12828,72.04 0.48,0.06 7.68,-11.04 h 6 v 32.58 l -4.44,6.36 h 16.68 l -4.44,-6.36 V 61 h 6 l 7.74,11.1 0.48,-0.06 V 58.9 h -36.18 z" />
      <path
         id="path28"
         style="font-family:'Bluu Next';letter-spacing:0.075em"
         d="m 291.21766,86.98 -0.66,-0.12 -7.92,10.98 h -10.74 V 80.38 h 16.38 v -2.7 h -16.38 V 61.06 h 10.2 l 6.6,10.44 h 0.72 V 58.9 h -28.92 l 3.6,6.24 v 28.5 l -3.6,6.36 h 30.06 z" />
      <path
         id="path30"
         style="font-family:'Bluu Next';letter-spacing:0.075em"
         d="M 307.28547,94.24 V 69.52 l 15.42,31.2 h 0.42 l 15.54,-35.94 v 28.98 l -5.04,6.24 h 17.34 l -4.5,-6.3 V 63.82 l 4.44,-4.92 h -12.54 l -12.9,30 -14.28,-30 h -11.88 l 5.16,6.24 v 29.1 l -4.62,5.76 h 12.3 z" />
      <path
         id="path32"
         style="font-family:'Bluu Next';letter-spacing:0.075em"
         d="m 359.96641,100 h 17.64 l -5.4,-6.36 V 82.6 c 1.38,0 3.6,-0.12 5.52,-0.42 6.3,-0.78 13.32,-4.92 13.32,-12.3 0,-9.96 -10.86,-10.98 -16.68,-10.98 h -14.4 l 4.44,6.36 v 28.38 z m 12.24,-39.3 c 6.42,0 10.32,3.18 10.32,9.9 0,6.72 -3.78,9.96 -10.32,9.96 z" />
      <path
         id="path34"
         style="font-family:'Bluu Next';letter-spacing:0.075em"
         d="m 439.51984,77.62 c 0,-9.78 -6.72,-19.5 -17.76,-19.5 -14.64,0 -22.32,11.04 -22.32,23.1 0,9.78 6.72,19.5 17.76,19.5 14.64,0 22.32,-11.04 22.32,-23.1 z m -22.02,-16.92 c 8.52,0 13.62,11.82 13.62,24.18 0,4.74 -2.46,13.32 -9.66,13.32 -8.52,0 -13.5,-11.88 -13.5,-24.24 0,-4.74 1.44,-13.26 9.54,-13.26 z" />
      <path
         id="path36"
         style="font-family:'Bluu Next';letter-spacing:0.075em"
         d="m 487.29672,100 -6.36,-5.88 -9.3,-14.46 c 4.86,-1.8 9.3,-5.22 9.3,-10.14 0,-9.96 -11.82,-10.62 -17.22,-10.62 h -15.18 l 4.44,6.36 v 28.38 l -4.44,6.36 h 16.68 l -4.44,-6.36 V 81.52 l 2.88,-0.24 c 3.42,4.74 7.44,11.76 11.52,18.72 z m -26.52,-39.3 c 6.42,0 11.34,2.34 11.34,9.54 0,6.12 -5.58,9.18 -11.34,9.3 z" />
      <path
         id="path38"
         style="font-family:'Bluu Next';letter-spacing:0.075em"
         d="m 515.43766,100 h 18.48 l -4.5,-4.02 -16.2,-37.68 h -2.82 l -15.24,36.96 -4.26,4.74 h 13.26 l -5.7,-4.68 3.24,-8.16 h 15.6 l 3.66,8.7 z m -6.06,-31.98 6.84,16.44 h -13.44 z" />
      <path
         id="path40"
         style="font-family:'Bluu Next';letter-spacing:0.075em"
         d="M 577.51141,96.52 V 64.48 l 4.44,-5.58 h -12.48 l 5.16,5.16 v 29.1 l -24.6,-34.26 h -9.9 l 5.82,7.62 v 27.9 l -4.44,5.58 h 12.36 l -5.1,-5.16 V 70.66 l 22.02,29.34 h 9.3 z" />
      <path
         id="path42"
         style="font-family:'Bluu Next';letter-spacing:0.075em"
         d="m 621.66297,86.98 -0.66,-0.12 -7.92,10.98 h -10.74 V 80.38 h 16.38 v -2.7 h -16.38 V 61.06 h 10.2 l 6.6,10.44 h 0.72 V 58.9 h -28.92 l 3.6,6.24 v 28.5 l -3.6,6.36 h 30.06 z" />
      <path
         id="path44"
         style="font-family:'Bluu Next';letter-spacing:0.075em"
         d="m 653.39078,100 h 18.48 l -4.5,-4.02 -16.2,-37.68 h -2.82 l -15.24,36.96 -4.26,4.74 h 13.26 l -5.7,-4.68 3.24,-8.16 h 15.6 l 3.66,8.7 z m -6.06,-31.98 6.84,16.44 h -13.44 z" />
    </g>
  </g>
</svg>
