<?xml version="1.0" encoding="UTF-8" standalone="no"?>
<svg
   xmlns:dc="http://purl.org/dc/elements/1.1/"
   xmlns:cc="http://creativecommons.org/ns#"
   xmlns:rdf="http://www.w3.org/1999/02/22-rdf-syntax-ns#"
   xmlns:svg="http://www.w3.org/2000/svg"
   xmlns="http://www.w3.org/2000/svg"
   id="svg16"
   width="800px"
   version="1.1"
   height="200px">
  <metadata
     id="metadata20">
    <rdf:RDF>
      <cc:Work
         rdf:about="">
        <dc:format>image/svg+xml</dc:format>
        <dc:type
           rdf:resource="http://purl.org/dc/dcmitype/StillImage" />
      </cc:Work>
    </rdf:RDF>
  </metadata>
  <defs
     id="defs4">
    <style
       id="style2"
       type="text/css"><![CDATA[    
     @font-face {font-family:Bluu Next;
     src: url('/Users/francesco/Repos/write-logos/src/fonts/Fonts_E_TEMPORANEA/BluuNext-Bold.otf');}
     @font-face {font-family:Brandon;
     src: url('/Users/francesco/Repos/write-logos/src/fonts/Fonts_X/BrandonFree.ttf');}
     ]]></style>
  </defs>
  <g
     id="g14"
     style="font-size:60px">
    <g
       style="text-anchor:middle"
       id="text12"
       aria-label="EXTEMPORANEA">
      <path
         id="path22"
         style="font-family:'Bluu Next';letter-spacing:0.075em"
         d="m 165.83875,86.98 -0.66,-0.12 -7.92,10.98 h -10.74 V 80.38 h 16.38 v -2.7 h -16.38 V 61.06 h 10.2 l 6.6,10.44 h 0.72 V 58.9 h -28.92 l 3.6,6.24 v 28.5 l -3.6,6.36 h 30.06 z" />
      <path
         id="path24"
         style="font-family:Brandon;letter-spacing:0.05em"
         d="m 173.04883,70.615234 v 0 0 q -0.32227,-0.55664 0.32226,-1.611328 0.67383,-1.054687 1.75782,-2.138672 1.08398,-1.113281 1.99218,-1.816406 0.90821,-0.703125 1.08399,-0.556641 3.22265,4.482422 6.91406,8.613282 0.64453,0.703125 1.28906,1.464843 2.49024,3.046875 5.41992,5.595704 0.90821,0.732421 1.9043,1.40625 1.08399,0.732421 2.10938,1.582031 0.9375,0.820312 1.78711,1.757812 0.79101,0.84961 1.66992,1.611328 1.20117,0.996094 2.60742,1.757813 2.49023,1.201172 3.95508,3.457031 0.20508,0.439453 -0.0879,1.054688 -0.29297,0.615234 -0.76172,1.230468 -0.46875,0.615235 -0.84961,1.025391 -0.14649,0.175781 -0.26367,0.263672 -0.0879,0.117187 -0.52735,0.615234 -0.43945,0.46875 -1.02539,0.996094 -0.55664,0.527344 -1.02539,0.849609 -0.46875,0.322266 -0.61523,0.117188 -1.46485,-2.285156 -3.98438,-3.457031 -1.37695,-0.791016 -2.57812,-1.757813 -0.87891,-0.791015 -1.69922,-1.640625 -0.84961,-0.908203 -1.75781,-1.757812 -1.02539,-0.820313 -2.10938,-1.582032 -0.9668,-0.644531 -1.9043,-1.376953 -2.92968,-2.578125 -5.41992,-5.595703 -0.64453,-0.761719 -1.28906,-1.49414 -3.69141,-4.101563 -6.91406,-8.613282 z m 27.53906,-3.574218 v 0 0 q 0.0586,-0.05859 0.11719,-0.175782 0.32226,-0.439453 0.96679,-1.230468 0.67383,-0.820313 1.37696,-1.464844 0.70312,-0.644531 1.14258,-0.556641 0.43945,0.146485 0.26367,0.703125 -0.17578,0.527344 -0.58594,1.113281 -0.38086,0.556641 -0.64453,0.878907 -0.0293,0.05859 -0.0586,0.08789 -11.95313,15.585938 -24.72657,30.527344 0,0 -0.0293,0.05859 -0.23438,0.292969 -0.87891,0.996094 -0.61523,0.673828 -1.28906,1.201171 -0.64453,0.498047 -0.9961,0.292969 -0.26367,-0.292969 0.11719,-1.02539 0.41016,-0.761719 0.99609,-1.494141 0.58594,-0.732422 0.82032,-1.025391 0.0293,-0.0293 0.0293,-0.0293 12.07032,-14.121093 23.37891,-28.857421 z" />
      <path
         id="path26"
         style="font-family:'Bluu Next';letter-spacing:0.075em"
         d="m 210.265,72.04 0.48,0.06 7.68,-11.04 h 6 v 32.58 l -4.44,6.36 h 16.68 l -4.44,-6.36 V 61 h 6 l 7.74,11.1 0.48,-0.06 V 58.9 h -36.18 z" />
      <path
         id="path28"
         style="font-family:'Bluu Next';letter-spacing:0.075em"
         d="m 286.35437,86.98 -0.66,-0.12 -7.91999,10.98 H 267.03437 V 80.38 h 16.38 v -2.7 h -16.38 V 61.06 h 10.2 l 6.60001,10.44 h 0.71999 V 58.9 h -28.92 l 3.6,6.24 v 28.5 l -3.6,6.36 h 30.06 z" />
      <path
         id="path30"
         style="font-family:'Bluu Next';letter-spacing:0.075em"
         d="M 302.42219,94.24 V 69.52 l 15.42,31.2 h 0.42 l 15.54,-35.94 v 28.98 l -5.04,6.24 h 17.34 l -4.5,-6.3 V 63.82 l 4.44,-4.92 h -12.54 l -12.9,30 -14.28,-30 h -11.88 l 5.16,6.24 v 29.1 l -4.62,5.76 h 12.3 z" />
      <path
         id="path32"
         style="font-family:'Bluu Next';letter-spacing:0.075em"
         d="m 355.10312,100 h 17.64001 l -5.40001,-6.36 V 82.6 c 1.38,0 3.6,-0.12 5.52001,-0.42 6.29999,-0.78 13.32,-4.92 13.32,-12.3 0,-9.96 -10.86001,-10.98 -16.68001,-10.98 h -14.4 l 4.44,6.36 v 28.38 z m 12.24,-39.3 c 6.42,0 10.32,3.18 10.32,9.9 0,6.72 -3.78,9.96 -10.32,9.96 z" />
      <path
         id="path34"
         style="font-family:'Bluu Next';letter-spacing:0.075em"
         d="m 434.65656,77.62 c 0,-9.78 -6.72,-19.5 -17.76,-19.5 -14.64,0 -22.32,11.04 -22.32,23.1 0,9.78 6.72,19.5 17.76,19.5 14.64,0 22.32,-11.04 22.32,-23.1 z m -22.02,-16.92 c 8.52,0 13.62,11.82 13.62,24.18 0,4.74 -2.46,13.32 -9.66,13.32 -8.52,0 -13.5,-11.88 -13.5,-24.24 0,-4.74 1.44,-13.26 9.54,-13.26 z" />
      <path
         id="path36"
         style="font-family:'Bluu Next';letter-spacing:0.075em"
         d="m 482.43344,100 -6.36,-5.88 -9.3,-14.46 c 4.86,-1.8 9.3,-5.22 9.3,-10.14 0,-9.96 -11.82,-10.62 -17.22,-10.62 h -15.18 l 4.44,6.36 v 28.38 l -4.44,6.36 h 16.68 l -4.44,-6.36 V 81.52 l 2.88,-0.24 c 3.42,4.74 7.44,11.76 11.52,18.72 z m -26.52,-39.3 c 6.42,0 11.34,2.34 11.34,9.54 0,6.12 -5.58,9.18 -11.34,9.3 z" />
      <path
         id="path38"
         style="font-family:'Bluu Next';letter-spacing:0.075em"
         d="m 510.57438,100 h 18.48 l -4.5,-4.02 -16.20001,-37.68 h -2.82 l -15.24,36.96 -4.26,4.74 h 13.26 l -5.69999,-4.68 3.24,-8.16 h 15.6 l 3.66,8.7 z m -6.06001,-31.98 6.84,16.44 h -13.44 z" />
      <path
         id="path40"
         style="font-family:'Bluu Next';letter-spacing:0.075em"
         d="M 572.64813,96.52 V 64.48 l 4.43999,-5.58 h -12.48 l 5.16001,5.16 v 29.1 l -24.6,-34.26 h -9.9 l 5.81999,7.62 v 27.9 l -4.43999,5.58 h 12.35999 l -5.09999,-5.16 V 70.66 l 22.02,29.34 h 9.29999 z" />
      <path
         id="path42"
         style="font-family:'Bluu Next';letter-spacing:0.075em"
         d="m 616.79969,86.98 -0.66,-0.12 -7.92,10.98 h -10.74 V 80.38 h 16.38 v -2.7 h -16.38 V 61.06 h 10.2 l 6.6,10.44 h 0.72 V 58.9 h -28.92 l 3.6,6.24 v 28.5 l -3.6,6.36 h 30.06 z" />
      <path
         id="path44"
         style="font-family:'Bluu Next';letter-spacing:0.075em"
         d="m 648.5275,100 h 18.48 l -4.5,-4.02 -16.2,-37.68 h -2.82 l -15.24,36.96 -4.26,4.74 h 13.26 l -5.7,-4.68 3.24,-8.16 h 15.6 l 3.66,8.7 z m -6.06,-31.98 6.84,16.44 h -13.44 z" />
    </g>
  </g>
</svg>
