<?xml version="1.0" encoding="UTF-8" standalone="no"?>
<svg
   xmlns:dc="http://purl.org/dc/elements/1.1/"
   xmlns:cc="http://creativecommons.org/ns#"
   xmlns:rdf="http://www.w3.org/1999/02/22-rdf-syntax-ns#"
   xmlns:svg="http://www.w3.org/2000/svg"
   xmlns="http://www.w3.org/2000/svg"
   id="svg16"
   width="800px"
   version="1.1"
   height="200px">
  <metadata
     id="metadata20">
    <rdf:RDF>
      <cc:Work
         rdf:about="">
        <dc:format>image/svg+xml</dc:format>
        <dc:type
           rdf:resource="http://purl.org/dc/dcmitype/StillImage" />
      </cc:Work>
    </rdf:RDF>
  </metadata>
  <defs
     id="defs4">
    <style
       id="style2"
       type="text/css"><![CDATA[    
     @font-face {font-family:Bould Light;
     src: url('/Users/francesco/Repos/write-logos/src/fonts/Fonts_E_TEMPORANEA/Bould-Light.otf');}
     @font-face {font-family:Ephesus extrabold outline;
     src: url('/Users/francesco/Repos/write-logos/src/fonts/Fonts_X/Ephesus-ExtraBold-outline.otf');}
     ]]></style>
  </defs>
  <g
     id="g14"
     style="font-size:60px">
    <g
       style="text-anchor:middle"
       id="text12"
       aria-label="EXTEMPORANEA">
      <path
         id="path22"
         style="font-family:'Bould Light';letter-spacing:0.075em"
         d="m 157.00703,100 h 21.9 v -3.78 h -17.82 V 80.44 h 16.5 v -3.78 h -16.5 V 61.78 h 17.82 V 58 h -21.9 z" />
      <path
         id="path24"
         style="font-family:'Ephesus extrabold outline';letter-spacing:0.05em"
         d="m 189.58234,98.14 c -0.18,0.18 -0.3,0.48 -0.3,0.72 0,0.54 0.42,1.14 1.08,1.14 h 9.66 c 1.98,0 2.7,-0.9 3.06,-1.26 l 7.08,-9.96 7.08,9.96 c 0.36,0.36 1.08,1.26 3.06,1.26 h 9.66 c 0.66,0 1.08,-0.6 1.08,-1.14 0,-0.24 -0.12,-0.54 -0.3,-0.72 l -13.44,-19.08 13.32,-19.08 c 0.24,-0.3 0.36,-0.6 0.36,-0.84 0,-0.72 -0.78,-1.14 -1.2,-1.14 h -9.84 c -1.86,0 -2.4,0.6 -3.06,1.26 l -6.72,9.6 -6.72,-9.6 c -0.66,-0.66 -1.2,-1.26 -3.06,-1.26 h -9.84 c -0.42,0 -1.2,0.42 -1.2,1.14 0,0.24 0.12,0.54 0.36,0.84 l 13.32,19.08 z m 10.44,-0.06 h -8.1 l 13.44,-19.02 -13.44,-19.14 h 8.46 c 1.02,0 1.32,0.36 1.68,0.72 l -0.18,-0.3 8.28,11.82 c 2.22,-3.18 6.06,-8.64 8.1,-11.52 0.36,-0.36 0.66,-0.72 1.68,-0.72 h 8.34 l -13.32,19.14 13.38,19.02 h -8.04 c -0.96,0 -1.26,-0.24 -1.44,-0.42 l -8.7,-12.24 c -2.34,3.3 -6.3,8.88 -8.64,12.18 l 0.12,-0.12 c -0.18,0.24 -0.6,0.6 -1.62,0.6 z" />
      <path
         id="path26"
         style="font-family:'Bould Light';letter-spacing:0.075em"
         d="m 251.15078,100 h 4.08 V 61.78 h 11.94 V 58 h -28.02 v 3.78 h 12 z" />
      <path
         id="path28"
         style="font-family:'Bould Light';letter-spacing:0.075em"
         d="m 281.62422,100 h 21.9 v -3.78 h -17.82 V 80.44 h 16.5 v -3.78 h -16.5 V 61.78 h 17.82 V 58 h -21.9 z" />
      <path
         id="path30"
         style="font-family:'Bould Light';letter-spacing:0.075em"
         d="m 318.51953,100 h 3.96 l 0.96,-35.64 h 0.3 l 11.16,30.24 h 5.58 l 11.16,-30.24 h 0.3 l 0.9,35.64 h 4.02 l -1.38,-42 h -5.46 l -12.3,33.24 -12.36,-33.24 h -5.52 z" />
      <path
         id="path32"
         style="font-family:'Bould Light';letter-spacing:0.075em"
         d="m 373.59297,100 h 4.08 V 84.34 h 8.46 c 8.52,0 13.08,-5.34 13.08,-13.14 0,-8.28 -4.92,-13.2 -13.08,-13.2 h -12.54 z m 4.08,-19.44 V 61.78 h 8.34 c 6.6,0 8.94,3.96 8.94,9.42 0,5.34 -2.34,9.36 -8.94,9.36 z" />
      <path
         id="path34"
         style="font-family:'Bould Light';letter-spacing:0.075em"
         d="m 427.16078,57.52 c -11.04,0 -15.36,8.34 -15.36,21.42 0,13.2 4.32,21.54 15.36,21.54 10.98,0 15.36,-8.34 15.36,-21.54 0,-13.08 -4.38,-21.42 -15.36,-21.42 z m 0,39.18 c -8.4,0 -11.1,-6.9 -11.1,-17.76 0,-10.74 2.7,-17.64 11.1,-17.64 8.34,0 11.04,6.9 11.04,17.64 0,10.86 -2.7,17.76 -11.04,17.76 z" />
      <path
         id="path36"
         style="font-family:'Bould Light';letter-spacing:0.075em"
         d="m 484.95016,100 -9.06,-17.46 c 5.1,-1.62 7.92,-5.82 7.92,-11.94 0,-8.28 -5.22,-12.6 -13.2,-12.6 h -12.9 v 42 h 4.08 V 83.32 h 8.82 c 0.42,0 0.84,0 1.26,-0.06 l 8.4,16.74 z m -14.7,-20.52 h -8.46 v -17.7 h 8.46 c 6.36,0 9.24,3.3 9.24,8.82 0,5.64 -2.88,8.88 -9.24,8.88 z" />
      <path
         id="path38"
         style="font-family:'Bould Light';letter-spacing:0.075em"
         d="m 521.39266,100 h 4.26 l -11.7,-42 h -7.44 l -11.64,42 h 4.14 l 3,-10.98 h 16.38 z m -18.3,-14.82 6.24,-22.8 h 1.8 l 6.18,22.74 z" />
      <path
         id="path40"
         style="font-family:'Bould Light';letter-spacing:0.075em"
         d="m 538.78047,100 h 3.9 V 66.76 h 0.3 l 19.14,33.24 h 3.78 V 58 h -3.9 v 33.66 h -0.3 L 542.08047,58 h -3.3 z" />
      <path
         id="path42"
         style="font-family:'Bould Light';letter-spacing:0.075em"
         d="m 582.88984,100 h 21.9 v -3.78 h -17.82 V 80.44 h 16.5 v -3.78 h -16.5 V 61.78 h 17.82 V 58 h -21.9 z" />
      <path
         id="path44"
         style="font-family:'Bould Light';letter-spacing:0.075em"
         d="m 642.70516,100 h 4.26 l -11.7,-42 h -7.44 l -11.64,42 h 4.14 l 3,-10.98 h 16.38 z m -18.3,-14.82 6.24,-22.8 h 1.8 l 6.18,22.74 z" />
    </g>
  </g>
</svg>
