<?xml version="1.0" encoding="UTF-8" standalone="no"?>
<svg
   xmlns:dc="http://purl.org/dc/elements/1.1/"
   xmlns:cc="http://creativecommons.org/ns#"
   xmlns:rdf="http://www.w3.org/1999/02/22-rdf-syntax-ns#"
   xmlns:svg="http://www.w3.org/2000/svg"
   xmlns="http://www.w3.org/2000/svg"
   id="svg16"
   width="800px"
   version="1.1"
   height="200px">
  <metadata
     id="metadata20">
    <rdf:RDF>
      <cc:Work
         rdf:about="">
        <dc:format>image/svg+xml</dc:format>
        <dc:type
           rdf:resource="http://purl.org/dc/dcmitype/StillImage" />
      </cc:Work>
    </rdf:RDF>
  </metadata>
  <defs
     id="defs4">
    <style
       id="style2"
       type="text/css"><![CDATA[    
     @font-face {font-family:Bould SemiBold;
     src: url('/Users/francesco/Repos/write-logos/src/fonts/Fonts_E_TEMPORANEA/Bould-SemiBold.otf');}
     @font-face {font-family:Panic;
     src: url('/Users/francesco/Repos/write-logos/src/fonts/Fonts_X/Panic.ttf');}
     ]]></style>
  </defs>
  <g
     id="g14"
     style="font-size:60px">
    <g
       style="text-anchor:middle"
       id="text12"
       aria-label="EXTEMPORANEA">
      <path
         id="path22"
         style="font-family:'Bould SemiBold';letter-spacing:0.075em"
         d="m 151.28125,100 h 24.36 v -7.02 h -16.26 V 82.12 h 14.94 v -7.08 h -14.94 v -9.9 h 16.26 V 58 h -24.36 z" />
      <path
         id="path24"
         style="font-family:Panic;letter-spacing:0.05em"
         d="m 221.71094,50.429687 q 0.23437,0.0293 0.23437,0.234375 -0.32226,0.498047 -0.46875,1.289063 -1.05469,0.351562 -1.05469,0.9375 0.23438,0.0293 0.23438,0.234375 v 0.351562 q 0,0.205079 -1.05469,0.351563 l -0.11719,0.234375 v 0.234375 l 0.35157,0.46875 0.46875,-0.117188 0.82031,0.117188 q 0,-0.175781 1.75781,-0.46875 l 0.70313,0.117187 q 0,-0.175781 3.04687,-0.585937 H 226.75 q 0.23437,0.0293 0.23437,0.234375 v 0.117187 q -0.32226,0.322266 -0.46875,1.171875 -0.9375,0.46875 -0.9375,0.703125 L 225.8125,56.875 q -0.26367,0.205078 -1.17188,0.351562 0,0.351563 -0.11718,0.351563 0.46875,0.556641 0.46875,0.703125 -0.17578,0.46875 -0.35157,0.46875 -0.58593,-0.234375 -0.58593,-0.351563 -0.58594,0.205079 -0.58594,0.585938 0,0.205078 0.82031,0.703125 l -1.64062,3.632812 q -0.82032,0.644532 -0.82032,1.289063 0,0.527344 -0.9375,0.820312 l -0.23437,0.351563 q 0.35156,0.585937 0.35156,0.820312 -1.28906,0.117188 -1.28906,0.351563 v 0.351562 q 0.58594,0.615235 0.58594,0.9375 L 219.83594,68.59375 219.25,68.125 h -0.23438 q -0.17578,0 -0.35156,0.351562 v 0.46875 q 0.82031,0.146485 0.82031,0.585938 -0.58593,1.845703 -1.64062,3.046875 0,0.9375 -0.70313,0.9375 -0.23437,0.292969 -0.23437,0.46875 0,0.410156 0.9375,0.585937 0,0.351563 0.23437,1.171875 -0.82031,0.439454 -0.82031,0.585938 0,0.585937 0.46875,0.703125 0.41016,0 0.58594,-0.9375 0.70312,0.234375 0.70312,0.46875 v 0.351562 Q 218.54687,77.441406 218.54687,77.5 v 0.117187 q 0,0.146485 0.58594,0.46875 l 0.46875,-0.351562 h 0.35156 q 0.23438,0.0293 0.23438,0.234375 -0.11719,0.644531 -0.11719,1.054687 l 0.58594,0.117188 q 0.0586,0 0.46875,-0.117188 0.35156,1.171875 0.70312,1.171875 0.79102,0 1.05469,1.054688 0.38086,0 1.875,1.875 0.26367,0 0.35156,0.585937 -0.14648,0 -0.58593,0.585938 l 0.11718,0.585937 h 0.46875 l 0.58594,-0.46875 h 0.11719 q 0.20508,0 0.35156,0.585938 l -0.35156,0.585937 q 0,0.175782 0.46875,0.46875 l 0.82031,-0.234375 0.23438,0.46875 q -0.11719,0.205079 -0.11719,0.46875 0.20508,0.205079 1.28906,0.585938 0,0.527344 1.52344,1.640625 1.17187,1.40625 1.17187,1.640625 -0.79101,0.292969 -0.9375,0.820312 0.43946,0.351563 0.82032,0.351563 0.43945,-0.703125 0.58593,-0.703125 h 0.11719 q 0.32227,0 0.46875,0.820312 -0.46875,0.175782 -0.46875,0.351563 v 0.351562 q 0.11719,0.351563 0.70313,0.351563 0,-0.175781 0.35156,-0.351563 h 0.23437 q 0.23438,0.0293 0.23438,0.234375 0,0.585938 -0.23438,0.585938 0,0.117187 0.46875,0.703125 V 94.375 l -0.58593,0.117187 q -0.11719,0 -0.35157,-0.117187 -0.43945,0.234375 -0.9375,0.234375 -0.23437,0 -0.23437,-0.234375 l 0.35156,-0.585938 q -0.11719,-0.46875 -0.70312,-0.46875 -0.23438,0.05859 -0.46875,0.585938 0.14648,0 0.58593,0.585937 0,0.205079 -1.99218,0.46875 -0.23438,0 -0.23438,-0.234375 l 0.35156,-0.585937 v -0.117188 q -0.11718,-0.351562 -0.70312,-0.351562 -0.17578,0 -0.35156,0.351562 v 0.234375 q 0.46875,0.527344 0.46875,0.585938 0,0.205078 -1.875,0.46875 -0.23438,0 -0.23438,-0.351563 0.23438,-0.380859 0.23438,-0.703125 l -0.35157,-0.234375 h -0.35156 q -0.23437,0.0293 -0.23437,0.234375 v 0.46875 l 0.35156,0.46875 q 0,0.234375 -0.23438,0.234375 h -0.58593 q -0.11719,0 -0.11719,-0.117187 -0.73242,0.351562 -1.05469,0.351562 l -0.11719,-0.234375 V 95.3125 l 0.23438,-0.351563 v -0.351562 q 0,-0.117188 -0.46875,-0.351563 -0.46875,0.175782 -0.46875,0.351563 v 0.351562 l 0.35156,0.46875 v 0.117188 q 0,0.234375 -0.23437,0.234375 H 223 q -0.11719,0 -0.11719,-0.117188 -0.38086,0.234375 -0.70312,0.234375 h -0.23438 q -0.23437,0 -0.23437,-0.234375 0.35156,-0.46875 0.35156,-0.703125 -0.43945,-0.351562 -0.82031,-0.351562 l -0.23438,0.351562 v 0.46875 q 0.46875,0.05859 0.46875,0.351563 0,0.263672 -0.58594,0.351562 -0.9375,0 -1.28906,-0.9375 -0.9375,-1.171875 -0.9375,-1.640625 0.32227,-0.08789 0.58594,-0.585937 v -0.117188 q 0,-0.175781 -0.35156,-0.351562 l -1.05469,0.117187 -0.11719,-0.234375 q -0.8789,0.234375 -0.9375,0.234375 -0.11719,-0.234375 -0.11719,-0.351562 0.23438,-0.380859 0.23438,-0.703125 0,-0.234375 -0.70313,-0.351563 l -0.35156,0.46875 v 0.117188 q 0.46875,0.527344 0.46875,0.585937 0,0.175782 -0.35156,0.351563 h -0.11719 q -1.02539,0 -1.875,-1.757813 -0.20508,0 -0.46875,-0.703125 0.49805,-0.292968 0.70313,-0.820312 -0.38086,-0.351563 -0.58594,-0.351563 l -0.82031,0.117188 -0.11719,-0.234375 v -0.820313 q -1.40625,-0.351562 -1.40625,-1.171875 -0.29297,-0.117187 -0.9375,-1.171875 v -0.117187 q 0,-0.08789 0.58594,-0.585938 v -0.46875 q 0,-0.175781 -0.35157,-0.351562 h -0.11718 q -0.32227,0 -0.70313,2.578125 l -0.9375,0.9375 q 0.23438,0.380859 0.23438,0.703125 0,0.234375 -0.23438,0.234375 H 208 q 0,0.175781 -0.23438,0.46875 v 0.117187 l 0.82032,0.703125 q -0.61524,2.373047 -1.40625,3.046875 -0.11719,0 -0.11719,0.117188 l 0.23437,0.820312 Q 206.125,94.140625 206.125,94.375 v 0.351562 l 0.58594,0.585938 v 0.117187 q 0,0.615235 -0.35157,0.703125 -0.70312,-0.585937 -0.82031,-0.585937 -0.17578,0 -0.58594,0.46875 0.20508,0.585937 0.70313,0.585937 0.0293,-0.234375 0.23437,-0.234375 h 0.23438 q 0.23437,0.0293 0.23437,0.234375 -0.29296,1.640625 -1.28906,1.640625 h -0.11719 q -0.23437,0 -0.23437,-0.234375 l 0.23437,-0.351562 v -0.351563 q 0,-0.175781 -0.35156,-0.351562 h -0.23437 q -0.17578,0 -0.35157,0.351562 v 0.234375 l 0.35157,0.46875 v 0.351563 h -0.35157 q -0.38085,0 -1.64062,0.234375 l -0.11719,-0.234375 v -0.117188 l 0.35156,-0.46875 V 97.65625 q -0.11718,-0.351563 -0.70312,-0.351563 -0.17578,0 -0.35156,0.351563 v 0.234375 q 0.46875,0.527344 0.46875,0.585937 0,0.205079 -2.10938,0.46875 l -0.11719,-0.234375 0.35157,-0.585937 v -0.117188 q -0.23438,-0.46875 -0.70313,-0.46875 -0.35156,0.38086 -0.35156,0.585938 l 0.46875,0.585937 v 0.117188 q 0,0.205078 -1.99219,0.46875 -0.11719,-0.234375 -0.11719,-0.351563 0.23438,-0.380859 0.23438,-0.703125 -0.46875,-0.234375 -0.46875,-0.351562 -0.46875,0.175781 -0.46875,0.351562 v 0.351563 l 0.35156,0.46875 q 0,0.175781 -0.35156,0.351562 h -0.46875 q -0.11719,0 -0.11719,-0.117187 -0.38086,0.234375 -0.70312,0.234375 h -0.23438 q -0.23437,0 -0.23437,-0.234375 l 0.23437,-0.351563 V 98.59375 q -0.11719,-0.351563 -0.70312,-0.351563 -0.23438,0.38086 -0.23438,0.585938 l 0.35156,0.585937 v 0.234375 l -0.58593,0.117188 q -0.11719,0 -0.35157,-0.117188 -0.43945,0.234375 -0.9375,0.234375 -0.23437,0 -0.23437,-0.234375 l 0.35156,-0.585937 -0.46875,-0.585938 v -0.234375 q 0,-0.175781 0.35156,-0.351562 0.43946,0.351562 0.82032,0.351562 0.35156,-0.46875 0.35156,-0.703125 -0.82031,-0.46875 -0.82031,-0.585937 0,-0.410156 0.70312,-1.289063 h -0.23437 q -0.17578,0 -1.05469,0.234375 l -0.11719,-0.234375 q 0.0293,-0.585937 0.23438,-0.585937 -0.17578,-0.585938 -0.70313,-0.585938 -0.35156,0.38086 -0.35156,0.585938 0,0.117187 0.46875,0.703125 0,0.234375 -2.10938,0.351562 v -0.117187 q 0,-0.08789 0.23438,-0.703125 -0.11719,-0.46875 -0.70313,-0.46875 -0.23437,0.46875 -0.35156,0.46875 0,0.117187 0.46875,0.703125 0,0.175781 -0.35156,0.351562 h -0.46875 q -0.11719,0 -0.11719,-0.117187 -0.43945,0.234375 -0.9375,0.234375 -0.23437,0 -0.23437,-0.234375 v -0.117188 l 0.23437,-0.351562 v -0.234375 q 0,-0.05859 -0.46875,-0.585938 0.17578,-0.46875 0.35156,-0.46875 h 0.11719 q 0.46875,0.351563 0.70313,0.351563 l 0.35156,-0.46875 v -0.117188 q 0,-0.175781 -0.82031,-0.703125 V 93.4375 l 1.875,-3.632813 q 0,-0.05859 0.70312,-0.703125 l -0.11719,-0.820312 q 1.17188,-0.351563 1.17188,-0.9375 -0.23438,0 -0.23438,-0.234375 v -0.46875 q 0.0293,-0.234375 0.23438,-0.234375 h 0.11719 q 0.29297,0.234375 0.46875,0.234375 0.46875,-0.117188 0.46875,-0.703125 -0.14649,0 -0.58594,-0.585938 V 85 q 0,-0.175781 0.35156,-0.351563 0.52735,0.46875 0.58594,0.46875 h 0.35156 Q 193.70312,85 193.70312,84.414062 q -0.9375,-0.410156 -0.9375,-0.585937 0,-0.820313 1.64063,-3.046875 0,-1.054688 0.82031,-1.054688 0.23438,-0.380859 0.23438,-0.703125 -0.23438,0 -0.23438,-0.234375 v -0.117187 q 0,-0.205078 1.05469,-0.351563 0.11719,-0.351562 0.23437,-0.351562 0,-0.117188 -0.58593,-0.820313 V 77.03125 q 0,-0.175781 0.35156,-0.351563 h 0.23437 l 0.58594,0.351563 0.35156,-0.46875 V 76.210937 L 196.75,75.742187 V 75.625 q 0.58594,-1.40625 0.70312,-2.578125 0.82032,0 0.82032,-0.46875 v -0.117188 q 0,-0.322265 -1.28907,-0.46875 0,-1.02539 -1.17187,-1.289062 -1.64063,-1.875 -1.64063,-2.34375 h 0.58594 q 0.35156,-0.117188 0.35156,-0.703125 l -0.35156,-0.234375 h -0.35156 q -0.14648,0 -0.58594,0.820312 -0.14648,0 -0.58594,-0.585937 v -0.234375 l 0.58594,-0.703125 q 0,-0.175781 -0.46875,-0.46875 -0.38086,0 -0.82031,0.351562 h -0.11719 q -0.23437,0 -0.23437,-0.234375 0.11718,-0.644531 0.11718,-0.9375 L 191.82812,65.195312 191.125,65.3125 190.89062,64.960937 191.00781,64.375 q -0.43945,-0.322266 -1.17187,-0.46875 0,-0.234375 -2.69532,-3.046875 v -0.46875 q 0.70313,-0.08789 0.70313,-0.703125 -0.43945,-0.351563 -0.70313,-0.351563 -0.32226,0.703125 -0.46875,0.703125 h -0.11718 q -0.29297,0 -0.46875,-0.820312 0.17578,0 0.35156,-0.351563 v -0.234375 q 0,-0.175781 -0.46875,-0.351562 -0.38086,0.234375 -0.70313,0.234375 -0.23437,0 -0.35156,-1.289063 -0.35156,0 -0.35156,-0.117187 l -0.23438,0.117187 h -0.23437 l -1.05469,-1.40625 0.35156,-0.234375 h 0.35157 q 0.26367,0 0.46875,0.117188 0.58593,-0.351563 0.9375,-0.351563 h 0.11718 q 0.11719,0 0.11719,0.117188 0.38086,-0.234375 0.70313,-0.234375 l 0.82031,0.117187 q 0,-0.234375 0.70312,-0.351562 l 0.23438,0.117187 q 0.38086,-0.234375 0.70312,-0.234375 L 189.36719,55 q 0,-0.175781 1.64062,-0.46875 l 0.58594,0.117187 q 0.17578,-0.234375 4.57031,-0.703125 l 0.23438,0.117188 q 0.20508,-0.117188 0.46875,-0.117188 0.17578,0 0.35156,0.351563 v 0.585937 q 0.61523,0 1.28906,1.640625 -0.9375,0.322266 -0.9375,0.585938 v 0.117187 q 0.23438,0.46875 0.70313,0.46875 0,-0.175781 0.46875,-0.46875 h 0.23437 q 0.23438,0 0.23438,0.46875 0.49804,-0.351562 2.69531,-0.351562 0.29297,0 0.46875,0.9375 0.61523,0.263672 1.17187,1.289062 v 0.234375 l -0.9375,0.703125 q 0.0879,0.351563 0.70313,0.585938 0,-0.175781 0.58594,-0.46875 h 0.11718 q 0.23438,0.0293 0.23438,0.234375 v 0.351562 l -0.23438,0.351563 v 0.117187 q 0,0.322266 1.17188,0.46875 l 0.23437,0.585938 h 0.11719 V 62.617187 L 205.1875,62.03125 v -0.351563 q 0,-0.234375 0.35156,-0.234375 0.38086,0.234375 0.58594,0.234375 0.46875,-0.117187 0.46875,-0.703125 Q 206.125,60.742187 206.125,60.625 l -0.23438,0.117187 h -0.11718 q -0.23438,0 -0.23438,-0.234375 v -0.234375 q 0,-0.820312 0.70313,-1.523437 V 58.515625 L 206.125,57.929687 q 0.38086,-0.292968 1.05469,-0.351562 v -0.585938 l -0.46875,-0.46875 q 0.0879,-0.703125 0.35156,-0.703125 h 0.23437 q 0,0.46875 0.70313,0.585938 l 0.35156,-0.46875 Q 208.20508,55.351562 208,55.351562 l -0.82031,0.117188 -0.11719,-0.234375 q 0,-0.908203 0.9375,-1.875 l -0.11719,-0.703125 q 0,-0.263672 0.58594,-0.351563 v 0.117188 q 0.73242,-0.46875 2.22656,-0.46875 l 0.23438,0.117187 q 0.61523,-0.351562 1.17187,-0.351562 v 0.117187 q 0.46875,-0.234375 0.82031,-0.234375 l 0.70313,0.117188 q 0,-0.205078 0.70312,-0.351563 l 0.23438,0.117188 Q 215.03125,51.25 215.26562,51.25 q 0.46875,0.117187 0.82032,0.117187 0,-0.175781 1.64062,-0.46875 l 0.70313,0.117188 q 0.26367,-0.205078 3.28125,-0.585938 z m -2.22657,0.703125 q -0.35156,0.38086 -0.35156,0.585938 0.17578,0.46875 0.35156,0.46875 h 0.23438 q 0.17578,0 0.35156,-0.351563 v -0.351562 q 0,-0.263672 -0.58594,-0.351563 z m -2.57812,0.351563 q 0,0.175781 -0.23438,0.46875 v 0.117187 q 0,0.175782 0.46875,0.46875 h 0.11719 q 0.46875,-0.234375 0.46875,-0.703125 l -0.46875,-0.351562 z m -2.34375,0.351562 -0.35156,0.46875 v 0.117188 l 0.46875,0.46875 q 0.52734,-0.234375 0.58593,-0.46875 V 52.1875 q -0.11718,-0.351563 -0.70312,-0.351563 z m -2.34375,0.234375 -0.35156,0.46875 0.11718,0.585938 h 0.70313 l 0.11719,-0.585938 q -0.0586,-0.234375 -0.58594,-0.46875 z m -2.8125,0.9375 q 0.17578,0.46875 0.35156,0.46875 h 0.35156 q 0.23438,0 0.23438,-0.234375 v -0.351562 q 0,-0.175781 -0.46875,-0.46875 -0.23438,0.05859 -0.46875,0.585937 z m 8.67187,-0.117187 v 0.351562 q 0,0.234375 0.70313,0.351563 0.35156,-0.46875 0.35156,-0.703125 -0.38086,-0.351563 -0.58594,-0.351563 -0.46875,0.175782 -0.46875,0.351563 z m -2.46093,0.46875 q 0.20508,0.585937 0.70312,0.585937 0.35156,-0.46875 0.35156,-0.703125 -0.23437,0 -0.23437,-0.351562 h -0.46875 q -0.17578,0 -0.35156,0.46875 z m -2.46094,0.46875 q 0.0586,0 0.58594,0.46875 0.17578,0 0.46875,-0.46875 V 53.59375 q 0,-0.175781 -0.35157,-0.351563 h -0.35156 q -0.20508,0 -0.35156,0.585938 z m -2.34375,0.351562 q 0,0.146485 0.58594,0.46875 l 0.35156,-0.46875 v -0.46875 q -0.46875,0 -0.46875,-0.234375 -0.46875,0.117188 -0.46875,0.703125 z m -2.46094,0.234375 q 0.11719,0.46875 0.70313,0.46875 l 0.35156,-0.46875 v -0.117187 q -0.0586,-0.234375 -0.58594,-0.46875 -0.46875,0.117187 -0.46875,0.585937 z m 8.67188,0 v 0.234375 Q 217.14062,55 217.72656,55 l 0.35156,-0.46875 v -0.117188 q 0,-0.175781 -0.35156,-0.351562 H 217.375 q -0.17578,0 -0.35156,0.351562 z m -21.91407,0 q 0,0.205079 -0.35156,0.585938 0,0.175781 0.46875,0.46875 h 0.23438 q 0.17578,0 0.35156,-0.351563 v -0.46875 q -0.17578,0 -0.46875,-0.234375 z m 19.45313,0.351563 V 55 q 0,0.234375 0.70312,0.351562 0,-0.234375 0.35157,-0.234375 v -0.351562 q 0,-0.175781 -0.35157,-0.351563 h -0.35156 q -0.17578,0 -0.35156,0.351563 z m 9.72656,0.117187 v 0.351563 q 0,0.351562 0.46875,0.351562 0.46875,-0.117187 0.46875,-0.703125 l -0.46875,-0.351562 h -0.11719 q -0.17578,0 -0.35156,0.351562 z m -31.875,0.351563 v 0.234375 q 0,0.175781 0.35156,0.351562 H 193 q 0.11719,0 0.46875,-0.46875 Q 193.23437,54.824219 193,54.765625 h -0.11719 q -0.17578,0 -0.46875,0.46875 z M 212.21875,55 v 0.351562 q 0,0.263672 0.58594,0.351563 0.35156,-0.380859 0.35156,-0.585938 -0.11719,-0.234375 -0.11719,-0.351562 h -0.58594 Q 212.21875,54.794922 212.21875,55 Z m 9.84375,-0.117188 q -0.35156,0.439454 -0.35156,0.703125 0.46875,0.234375 0.46875,0.351563 0.52734,0 0.70312,-0.703125 -0.43945,-0.351563 -0.82031,-0.351563 z m -12.30469,0.820313 0.58594,0.351562 q 0,-0.234375 0.35156,-0.234375 v -0.46875 q 0,-0.292968 -0.46875,-0.351562 -0.46875,0.117187 -0.46875,0.703125 z M 190.1875,55.117187 q 0,0.175782 -0.23438,0.46875 v 0.117188 q 0,0.175781 0.46875,0.46875 0.58594,-0.205078 0.58594,-0.703125 l -0.46875,-0.351563 z m 29.17969,0.46875 v 0.234375 q 0,0.175782 0.35156,0.351563 h 0.46875 q 0,-0.175781 0.23437,-0.46875 -0.23437,-0.46875 -0.58593,-0.46875 -0.46875,0.175781 -0.46875,0.351562 z M 187.72656,55.46875 q 0,0.175781 -0.23437,0.46875 v 0.117187 q 0,0.175782 0.35156,0.351563 h 0.35156 q 0.17578,0 0.35156,-0.351563 v -0.234375 q -0.11718,-0.351562 -0.70312,-0.351562 z m 8.4375,0.703125 0.46875,0.351562 H 196.75 q 0.17578,0 0.46875,-0.46875 V 55.9375 q -0.23438,-0.46875 -0.58594,-0.46875 -0.46875,0.117187 -0.46875,0.703125 z M 185.5,55.703125 q -0.46875,0.527344 -0.46875,0.585937 0,0.175782 0.46875,0.46875 h 0.23437 q 0.11719,0 0.46875,-0.46875 Q 186.14453,55.9375 185.5,55.703125 Z m 8.55469,0.117187 q -0.23438,0.46875 -0.35157,0.46875 0.20508,0.585938 0.70313,0.585938 l 0.35156,-0.46875 v -0.234375 q -0.11719,-0.351563 -0.70312,-0.351563 z m 29.0625,0.820313 q 0.46875,0.351562 0.70312,0.351562 l 0.35156,-0.46875 v -0.234375 q 0,-0.175781 -0.35156,-0.351562 -0.70312,0 -0.70312,0.703125 z m -11.71875,-0.585938 -0.35157,0.46875 q 0.17579,0.46875 0.35157,0.46875 h 0.11718 L 212.10156,56.875 v -0.46875 q -0.11719,-0.351563 -0.70312,-0.351563 z m -20.15625,0.585938 q 0.0879,0.322266 0.58593,0.585937 h 0.11719 q 0.46875,-0.234375 0.46875,-0.703125 l -0.46875,-0.351562 h -0.23437 q -0.11719,0 -0.46875,0.46875 z M 220.77344,56.40625 V 56.875 q 0.0586,0.234375 0.58593,0.46875 l 0.35157,-0.46875 v -0.234375 q 0,-0.175781 -0.35157,-0.351563 z m -12.07032,0.351562 0.11719,0.585938 h 0.46875 q 0.23438,-0.05859 0.46875,-0.585938 l -0.46875,-0.351562 h -0.23437 q -0.17578,0 -0.35157,0.351562 z M 188.89844,56.875 v 0.234375 q 0.23437,0.46875 0.70312,0.46875 0.35156,-0.46875 0.35156,-0.703125 l -0.46875,-0.351563 H 189.25 q -0.17578,0 -0.35156,0.351563 z m -2.34375,0.234375 v 0.585937 l 0.58593,0.117188 q 0.35157,-0.117188 0.35157,-0.703125 -0.46875,-0.234375 -0.46875,-0.351563 -0.46875,0.175782 -0.46875,0.351563 z m 32.46093,-0.351563 q 0,0.46875 -0.46875,0.46875 v 0.117188 q 0,0.234375 0.35157,0.234375 0.23437,-0.117188 0.35156,-0.117188 v -0.703125 z m -23.90625,0.9375 0.70313,0.351563 0.35156,-0.46875 V 57.34375 q 0,-0.175781 -0.35156,-0.351563 -0.70313,0 -0.70313,0.703125 z m -2.34375,-0.234375 v 0.703125 q 0.61524,0.117188 0.70313,0.117188 l 0.23437,-0.351563 v -0.234375 q 0,-0.175781 -0.35156,-0.351562 z m 17.34375,0.585938 q 0.17579,0.46875 0.35157,0.46875 h 0.23437 q 0.17578,0 0.35156,-0.351563 0,-0.585937 -0.46875,-0.703125 -0.46875,0.117188 -0.46875,0.585938 z m 11.95313,0 q 0.43945,0.351562 0.82031,0.351562 L 223.23437,57.8125 Q 223,57.8125 223,57.460937 h -0.58594 q -0.26367,0 -0.35156,0.585938 z m -31.75781,0.117187 q 0.11718,0.46875 0.70312,0.46875 0.23438,-0.46875 0.35156,-0.46875 -0.17578,-0.46875 -0.35156,-0.46875 h -0.35156 q -0.29297,0 -0.35156,0.46875 z m 9.96093,-0.351562 -0.35156,0.46875 v 0.234375 q 0.11719,0.351562 0.70313,0.351562 l 0.35156,-0.46875 V 58.28125 q -0.23438,-0.46875 -0.70313,-0.46875 z m 7.61719,0 q 0,0.175781 -0.23437,0.46875 v 0.117187 q 0,0.175782 0.46875,0.46875 h 0.11718 q 0.17579,0 0.35157,-0.351562 V 58.164062 Q 208.46875,57.8125 207.88281,57.8125 Z m 11.83594,0.234375 v 0.351562 q 0.11719,0.351563 0.70312,0.351563 0.35157,-0.46875 0.35157,-0.703125 L 220.42187,57.8125 h -0.46875 q -0.23437,0.0293 -0.23437,0.234375 z m -31.875,0.585937 q 0.46875,0.351563 0.70312,0.351563 0.35157,-0.380859 0.35157,-0.585938 -0.11719,-0.234375 -0.11719,-0.351562 h -0.58594 q -0.26367,0 -0.35156,0.585937 z m 23.55469,0.585938 0.46875,0.351562 q 0,-0.322265 0.58593,-0.351562 v -0.234375 q 0,-0.175781 -0.46875,-0.46875 -0.58593,0.175781 -0.58593,0.703125 z m 9.72656,-0.117188 v 0.351563 q 0,0.175781 0.46875,0.351562 0.46875,-0.117187 0.46875,-0.703125 0,-0.117187 -0.46875,-0.351562 -0.46875,0.175781 -0.46875,0.351562 z m -19.80469,0.117188 v 0.351562 q 0.11719,0.351563 0.70313,0.351563 l 0.23437,-0.351563 V 59.21875 q 0,-0.292969 -0.46875,-0.351563 -0.46875,0.175782 -0.46875,0.351563 z m 7.73438,0 v 0.351562 q 0.11718,0.351563 0.70312,0.351563 0.35156,-0.46875 0.35156,-0.703125 -0.38085,-0.351563 -0.58593,-0.351563 -0.46875,0.175782 -0.46875,0.351563 z m 9.60937,0.234375 0.11719,0.585937 h 0.58594 q 0.23437,0 0.23437,-0.234375 v -0.351562 q 0,-0.175781 -0.46875,-0.351563 -0.46875,0.175782 -0.46875,0.351563 z M 206.59375,59.6875 q 0.20508,0.585937 0.70312,0.585937 l 0.23438,-0.351562 v -0.117188 l -0.11719,-0.585937 h -0.46875 q -0.17578,0 -0.35156,0.46875 z m -7.73438,-0.117188 v 0.234375 h 0.11719 v -0.234375 z m 17.34375,0.234375 v 0.234375 h 0.11719 v -0.234375 z m -19.80468,0.117188 v 0.234375 h 0.11718 v -0.234375 z m 26.36718,0 -0.35156,0.46875 v 0.117187 q 0.0586,0.234375 0.58594,0.46875 0.46875,-0.175781 0.46875,-0.351562 v -0.351563 q -0.11719,-0.351562 -0.70313,-0.351562 z m -12.30468,0.46875 0.11718,0.585937 h 0.46875 q 0.17579,0 0.35157,-0.351562 v -0.234375 q 0,-0.175781 -0.35157,-0.351563 h -0.23437 q -0.17578,0 -0.35156,0.351563 z m 9.96093,-0.234375 -0.35156,0.46875 v 0.234375 q 0.0586,0.234375 0.58594,0.46875 0.46875,-0.585938 0.46875,-0.703125 -0.58594,-0.46875 -0.70313,-0.46875 z m -31.875,0.234375 q -0.35156,0.439453 -0.35156,0.820312 0.46875,0.234375 0.46875,0.351563 Q 189.25,61.386719 189.25,60.742187 Z M 208,61.09375 l 0.35156,0.234375 0.58594,-0.117188 V 60.625 q 0,-0.234375 -0.23438,-0.234375 h -0.35156 Q 208,60.507812 208,61.09375 Z m 9.96094,-0.585938 q -0.35157,0.38086 -0.35157,0.585938 0.17579,0.46875 0.35157,0.46875 h 0.46875 q 0.23437,-0.644531 0.23437,-0.703125 -0.43945,-0.351563 -0.70312,-0.351563 z m -8.20313,0.820313 -0.35156,0.46875 v 0.234375 q 0,0.175781 0.35156,0.351562 h 0.46875 q 0,-0.205078 0.23438,-0.585937 -0.58594,-0.46875 -0.70313,-0.46875 z m 11.71875,0.234375 v 0.351562 q 0.0586,0.234375 0.58594,0.46875 l 0.35156,-0.46875 v -0.234375 q 0,-0.175781 -0.35156,-0.351562 h -0.35156 q -0.23438,0.0293 -0.23438,0.234375 z m -19.80469,0.234375 v 0.234375 q 0.26368,0 0.70313,0.351562 l 0.23437,-0.351562 v -0.234375 q 0,-0.175781 -0.35156,-0.351563 h -0.23437 q -0.17578,0 -0.35157,0.351563 z m -12.07031,0.117187 v 0.234375 q 0,0.117188 0.46875,0.46875 0.32227,-0.08789 0.58594,-0.585937 v -0.117188 q -0.58594,0 -0.58594,-0.351562 h -0.11719 q -0.17578,0 -0.35156,0.351562 z m 29.41406,0.351563 q 0.0586,0.234375 0.58594,0.46875 l 0.35156,-0.46875 q 0,-0.585938 -0.46875,-0.703125 -0.46875,0.117187 -0.46875,0.703125 z m -11.71875,-0.585938 q -0.35156,0.38086 -0.35156,0.585938 0.17578,0.46875 0.35156,0.46875 l 0.58594,-0.117188 v -0.234375 q 0,-0.644531 -0.58594,-0.703125 z m 9.49219,0.234375 q 0,0.175782 -0.23437,0.46875 v 0.351563 q 0.17578,0 0.46875,0.234375 h 0.11718 q 0.17579,0 0.46875,-0.46875 v -0.117188 q 0,-0.175781 -0.46875,-0.46875 z m -17.57812,0.117188 v 0.234375 h 0.11718 V 62.03125 Z M 196.75,62.382812 v 0.234375 h 0.11719 v -0.234375 z m 6.21094,0.703125 q 0.20508,0.46875 0.82031,0.46875 l 0.23437,-0.351562 v -0.46875 q -0.17578,0 -0.46875,-0.234375 h -0.11718 q -0.14649,0 -0.46875,0.585937 z M 191.00781,62.96875 q 0.0879,0.703125 0.35156,0.703125 h 0.23438 q 0.23437,0 0.23437,-0.234375 -0.58593,0 -0.58593,-0.703125 -0.23438,0.0293 -0.23438,0.234375 z m 29.64844,-0.234375 -0.23438,0.351562 V 63.4375 q 0,0.175781 0.46875,0.351562 l 0.58594,-0.46875 q -0.17578,-0.585937 -0.82031,-0.585937 z m -12.07031,0.117187 -0.35157,0.585938 q 0.52735,0.46875 0.58594,0.46875 0.46875,-0.175781 0.46875,-0.351563 v -0.351562 q -0.11719,-0.351563 -0.70312,-0.351563 z m 9.375,0.585938 q 0,0.498047 0.46875,0.703125 0.32226,-0.08789 0.58593,-0.585938 0,-0.175781 -0.46875,-0.46875 h -0.23437 q -0.17578,0 -0.35156,0.351563 z m -11.71875,-0.234375 q 0,0.234375 -0.23438,0.234375 0.35156,0.527344 0.35156,0.703125 h 0.23438 q 0.35156,-0.117188 0.35156,-0.703125 -0.38086,-0.234375 -0.70312,-0.234375 z M 215.5,63.90625 q 0.17578,0.46875 0.35156,0.46875 h 0.35156 q 0.23438,0 0.23438,-0.234375 v -0.46875 q 0,-0.234375 -0.23438,-0.234375 h -0.35156 q -0.11719,0 -0.35156,0.46875 z m -5.74219,0.351562 v 0.351563 q 0,0.175781 0.46875,0.351562 L 210.8125,64.375 q -0.29297,0 -0.35156,-0.46875 -0.70313,0.05859 -0.70313,0.351562 z m 9.84375,-0.117187 -0.23437,0.351562 0.11718,0.585938 h 0.58594 q 0.23438,0 0.23438,-0.234375 v -0.351563 q -0.11719,-0.351562 -0.70313,-0.351562 z m -12.30469,0.46875 v 0.234375 q 0,0.117187 0.46875,0.46875 0.46875,-0.175781 0.46875,-0.351563 V 64.84375 l -0.11718,-0.585938 h -0.46875 q -0.17578,0 -0.35157,0.351563 z m 9.60938,0.234375 v 0.234375 q 0,0.175781 0.35156,0.351562 h 0.35156 q 0.17579,0 0.35157,-0.46875 -0.11719,-0.46875 -0.70313,-0.46875 -0.17578,0 -0.35156,0.351563 z M 199.5625,64.609375 v 0.234375 h 0.11719 v -0.234375 z m 14.88281,0.703125 q 0.17578,0.46875 0.35156,0.46875 h 0.35157 Q 215.5,65.664062 215.5,65.078125 l -0.23438,-0.117188 h -0.11718 q -0.70313,0.263672 -0.70313,0.351563 z m -5.85937,0.703125 0.46875,0.351562 h 0.23437 q 0.17578,0 0.35156,-0.351562 v -0.351563 q 0,-0.234375 -0.23437,-0.234375 h -0.35156 q -0.23438,0.05859 -0.46875,0.585938 z m 9.72656,0 V 66.25 q 0,0.175781 0.35156,0.351562 h 0.23438 q 0.23437,-0.05859 0.46875,-0.585937 l -0.58594,-0.46875 q -0.17578,0 -0.46875,0.46875 z m -2.10938,-0.117188 q -0.23437,0.46875 -0.35156,0.46875 0.23438,0.38086 0.23438,0.585938 h 0.11718 l 0.58594,-0.117188 V 66.25 q 0,-0.263672 -0.58594,-0.351563 z m -9.02343,0.234375 v 0.234375 h 0.11718 v -0.234375 z m 6.79687,0.9375 V 67.1875 h 0.35156 q 0.11719,-0.410156 0.11719,-0.46875 h -0.11719 q -0.17578,0 -0.35156,0.351562 z m 3.28125,0.585938 q 0.11719,0.351562 0.70313,0.351562 0.35156,-0.46875 0.35156,-0.703125 -0.38086,-0.351562 -0.58594,-0.351562 -0.46875,0.117187 -0.46875,0.703125 z m -2.46094,0.351562 q 0.46875,0.351563 0.70313,0.351563 0.35156,-0.46875 0.35156,-0.703125 -0.38086,-0.351563 -0.58594,-0.351563 -0.46875,0.117188 -0.46875,0.703125 z m -17.34375,-0.585937 v 0.234375 h 0.11719 v -0.234375 z m -1.64062,0.9375 q -0.35156,0.380859 -0.35156,0.585937 0.11718,0.46875 0.58593,0.46875 0.46875,-0.117187 0.46875,-0.585937 -0.11718,0 -0.70312,-0.46875 z m 20.39062,0.585937 q 0.17579,0.46875 0.35157,0.46875 h 0.23437 q 0.17578,0 0.35156,-0.351562 l -0.11718,-0.585938 h -0.46875 q -0.17578,0 -0.35157,0.46875 z m -8.67187,-0.351562 v 0.234375 h 0.11719 V 68.59375 Z m 6.21094,0.703125 q 0.11718,0.46875 0.70312,0.46875 0,-0.234375 0.35156,-0.234375 0,-0.615234 -0.35156,-0.703125 h -0.35156 q -0.17578,0 -0.35156,0.46875 z m 4.21875,0.117187 q 0,0.175782 -0.46875,0.46875 0.23437,0.527344 0.46875,0.585938 h 0.23437 q 0.17578,0 0.35156,-0.351563 v -0.46875 q -0.20507,0 -0.58593,-0.234375 z M 196.86719,70 v 0.117187 q 0,0.175782 0.46875,0.46875 h 0.11718 Q 197.6875,70.527344 197.92187,70 q -0.70312,0 -0.70312,-0.351563 -0.17578,0 -0.35156,0.351563 z M 215.5,69.765625 q -0.35156,0.380859 -0.35156,0.585937 0.17578,0.46875 0.35156,0.46875 h 0.23437 q 0.46875,-0.234375 0.46875,-0.703125 -0.43945,-0.351562 -0.70312,-0.351562 z m -2.46094,0.351562 -0.23437,0.351563 v 0.351562 q 0,0.351563 0.46875,0.351563 0.23437,-0.117188 0.35156,-0.117188 V 70.46875 q 0,-0.263672 -0.58594,-0.351563 z m 3.51563,1.40625 q 0.17578,0.46875 0.35156,0.46875 h 0.23437 q 0.17579,0 0.35157,-0.351562 v -0.351563 q 0,-0.175781 -0.35157,-0.351562 h -0.23437 q -0.26367,0 -0.35156,0.585937 z m -18.28125,-0.46875 v 0.351563 h 0.23437 q -0.11719,-0.234375 -0.11719,-0.351563 z m 15.82031,0.9375 0.46875,0.351563 q 0.17578,0 0.58594,-0.46875 -0.0586,-0.585938 -0.70313,-0.585938 -0.35156,0.117188 -0.35156,0.703125 z M 215.5,72.695312 v 0.234375 q 0.23437,0.46875 0.70312,0.46875 0.35157,-0.46875 0.35157,-0.703125 l -0.46875,-0.351562 h -0.23438 q -0.17578,0 -0.35156,0.351562 z m -2.10938,0 V 72.8125 q 0.17579,0 0.46875,0.234375 h 0.11719 v -0.117188 q 0,-0.234375 -0.23437,-0.234375 z M 198.625,73.515625 V 73.75 q 0,0.351562 0.46875,0.351562 0.46875,-0.175781 0.46875,-0.351562 v -0.46875 l -0.58594,-0.117188 q -0.17578,0 -0.35156,0.351563 z M 208.11719,73.75 v 0.234375 h 0.11718 V 73.75 Z m 6.32812,0.585937 q 0.58594,0 0.58594,0.351563 h 0.11719 q 0.23437,0 0.23437,-0.234375 v -0.351563 q 0,-0.234375 -0.23437,-0.234375 h -0.35157 q -0.17578,0 -0.35156,0.46875 z M 200.26562,74.21875 q -0.35156,0.439453 -0.35156,0.703125 0.38086,0.351562 0.58594,0.351562 0.46875,-0.175781 0.46875,-0.351562 v -0.351563 q -0.11719,-0.351562 -0.70313,-0.351562 z m -2.46093,0.351562 -0.35157,0.46875 q 0.0293,0.322266 0.58594,0.585938 0.58594,-0.205078 0.58594,-0.703125 -0.43945,-0.351563 -0.82031,-0.351563 z m 18.39843,0.234375 q 0,0.234375 -0.35156,0.234375 v 0.351563 q 0,0.175781 0.46875,0.46875 0.17578,0 0.58594,-0.46875 -0.17578,-0.585938 -0.70313,-0.585938 z m -14.88281,0.9375 v 0.117188 q 0.23438,0.46875 0.70313,0.46875 l 0.35156,-0.46875 v -0.117188 q 0,-0.175781 -0.46875,-0.46875 h -0.11719 q -0.17578,0 -0.46875,0.46875 z m -2.34375,0 v 0.703125 q 0.17578,0 0.46875,0.234375 0.17578,0 0.46875,-0.46875 v -0.234375 q 0,-0.175781 -0.35156,-0.351562 z m 9.49219,0.46875 v 0.234375 q 0.23437,0 0.23437,-0.234375 z M 200.5,76.796875 q 0,0.175781 -0.23438,0.46875 0.11719,0.46875 0.70313,0.46875 0.17578,0 0.35156,-0.351563 v -0.234375 q 0,-0.175781 -0.35156,-0.351562 z m -2.69531,0.9375 q 0.43945,0.351562 0.82031,0.351562 l 0.35156,-0.46875 q 0,-0.175781 -0.46875,-0.585937 -0.52734,0 -0.70312,0.703125 z m 3.86718,0.46875 V 78.4375 q 0.0293,0.234375 0.23438,0.234375 l 0.46875,-0.820313 q -0.11719,0 -0.11719,-0.117187 -0.52734,0.234375 -0.58594,0.46875 z m -2.34375,0.234375 v 0.351562 q 0,0.175782 0.35157,0.351563 h 0.23437 q 0.17578,0 0.35156,-0.351563 v -0.234375 q 0,-0.117187 -0.46875,-0.46875 -0.46875,0.175782 -0.46875,0.351563 z m -2.46093,0.351562 v 0.351563 q 0,0.175781 0.35156,0.351562 h 0.23437 q 0.17579,0 0.35157,-0.351562 v -0.351563 q 0,-0.175781 -0.46875,-0.351562 -0.46875,0.175781 -0.46875,0.351562 z m 11.95312,0 v 0.234375 h 0.11719 v -0.234375 z m -7.85156,0.46875 -0.35156,0.46875 v 0.117188 q 0,0.175781 0.46875,0.46875 l 0.58593,-0.46875 v -0.234375 q -0.11718,-0.351563 -0.70312,-0.351563 z m -2.46094,0.351563 q -0.23437,0.46875 -0.35156,0.46875 0.17578,0.46875 0.35156,0.46875 h 0.58594 q 0,-0.205078 0.23437,-0.585938 -0.43945,-0.351562 -0.82031,-0.351562 z m 21.32813,0.117187 v 0.234375 h 0.11718 v -0.234375 z m -23.67188,0.117188 -0.35156,0.46875 v 0.234375 q 0,0.175781 0.35156,0.351562 h 0.46875 q 0,-0.205078 0.23438,-0.585937 -0.58594,-0.46875 -0.70313,-0.46875 z m 22.73438,0 v 0.351562 h 0.11718 V 79.84375 Z m -13.47657,0.703125 v 0.351562 q 0.38086,0.234375 0.70313,0.234375 l 0.23437,-0.351562 h -0.11718 l -0.58594,0.117187 q -0.11719,-0.234375 -0.11719,-0.351562 z m -5.85937,0.585937 q 0.20508,0.585938 0.70312,0.585938 L 200.61719,81.25 v -0.234375 q 0,-0.175781 -0.35157,-0.351563 h -0.35156 q -0.11719,0 -0.35156,0.46875 z m 20.85937,-0.117187 q 0.58594,0 0.58594,0.585937 h 0.23438 l 0.11718,-0.585937 -0.46875,-0.351563 h -0.11718 q -0.17578,0 -0.35157,0.351563 z m -23.20312,0.351562 v 0.234375 q 0,0.175782 0.35156,0.351563 h 0.23438 q 0.17578,0 0.35156,-0.351563 l -0.11719,-0.585937 h -0.46875 q -0.17578,0 -0.35156,0.351562 z m 9.96094,-0.234375 q -0.46875,0.527344 -0.46875,0.585938 0,0.175781 0.46875,0.46875 h 0.23437 q 0.17578,0 0.35156,-0.351563 -0.14648,-0.498046 -0.58593,-0.703125 z M 209.17187,81.25 v 0.234375 h 0.11719 V 81.25 Z m -14.41406,0.46875 v 0.234375 q 0.11719,0.351562 0.70313,0.351562 l 0.35156,-0.46875 V 81.71875 q 0,-0.175781 -0.35156,-0.351563 h -0.35157 q -0.17578,0 -0.35156,0.351563 z m 10.3125,-0.117188 q -0.11719,0.820313 -0.11719,0.9375 0.11719,0 0.46875,-0.46875 -0.17578,-0.46875 -0.35156,-0.46875 z m 16.64063,0.820313 q 0.46875,0 0.46875,0.351562 h 0.11718 q 0.11719,0 0.46875,-0.46875 -0.23437,-0.527343 -0.46875,-0.585937 h -0.23437 q -0.35156,0.117187 -0.35156,0.703125 z m -23.20313,0.351562 q 0.43946,0.351563 0.82031,0.351563 l 0.23438,-0.351563 v -0.351562 q 0,-0.234375 -0.23438,-0.234375 h -0.46875 q -0.26367,0 -0.35156,0.585937 z m 3.39844,-0.585937 v 0.234375 h 0.11719 V 82.1875 Z M 219.25,82.421875 v 0.234375 h 0.11719 v -0.234375 z m -23.08594,0.351562 V 83.125 q 0,0.175781 0.46875,0.351562 0.46875,-0.175781 0.46875,-0.351562 v -0.351563 q 0,-0.234375 -0.23437,-0.234375 h -0.46875 q -0.23438,0.0293 -0.23438,0.234375 z m 9.84375,-0.117187 -0.35156,0.585937 q 0.52734,0.46875 0.58594,0.46875 0.58593,-0.205078 0.58593,-0.703125 -0.43945,-0.351562 -0.82031,-0.351562 z m -12.30469,0.585937 q 0,0.175782 0.46875,0.585938 0.58594,-0.205078 0.58594,-0.703125 -0.38086,-0.351563 -0.58594,-0.351563 -0.38085,0.117188 -0.46875,0.46875 z m 14.53125,-0.46875 v 0.234375 q 0,0.175782 0.35157,0.351563 h 0.35156 v -0.117188 q -0.43945,0 -0.70313,-0.46875 z m 14.88282,0.46875 v 0.234375 q 0,0.146485 0.58593,0.46875 0,-0.05859 0.46875,-0.585937 -0.11718,-0.46875 -0.70312,-0.46875 -0.17578,0 -0.35156,0.351562 z m -25.54688,0.585938 v 0.351562 q 0.0293,0.234375 0.23438,0.234375 h 0.46875 q 0.23437,0 0.23437,-0.234375 v -0.351562 q 0,-0.175781 -0.46875,-0.351563 -0.46875,0.175782 -0.46875,0.351563 z m 9.49219,0.585937 q 0.43945,0.351563 0.82031,0.351563 0,-0.205078 0.35156,-0.585938 0,-0.175781 -0.46875,-0.46875 h -0.23437 q -0.46875,0.234375 -0.46875,0.703125 z m -12.07031,-0.117187 q 0.11718,0.46875 0.70312,0.46875 h 0.11719 q 0.35156,-0.117188 0.35156,-0.703125 -0.38086,-0.234375 -0.70312,-0.234375 -0.17578,0 -0.46875,0.46875 z m 9.72656,0.117187 v 0.234375 q 0,0.117188 0.46875,0.46875 Q 205.65625,85 205.65625,84.414062 v -0.117187 q 0,-0.234375 -0.23438,-0.234375 h -0.35156 q -0.17578,0 -0.35156,0.351562 z m 7.73437,0.117188 v 0.234375 h 0.11719 V 84.53125 Z m -15.58593,0.351562 -0.35157,0.46875 v 0.234375 q 0,0.175782 0.35157,0.351563 h 0.46875 q 0,-0.205078 0.23437,-0.585938 -0.58594,-0.46875 -0.70312,-0.46875 z m 11.71875,0.234375 v 0.351563 q 0,0.351562 0.46875,0.351562 0.46875,-0.175781 0.46875,-0.351562 v -0.234375 q 0,-0.175781 -0.35157,-0.351563 h -0.35156 q -0.23437,0.0293 -0.23437,0.234375 z m 11.01562,-0.234375 v 0.351563 h 0.11719 v -0.351563 z m -25.19531,0.351563 q -0.35156,0.380859 -0.35156,0.585937 0.17578,0.46875 0.35156,0.46875 h 0.35156 q 0.11719,0 0.35156,-0.46875 -0.17578,-0.585937 -0.70312,-0.585937 z m 11.83594,0 q 0,0.205078 -0.23438,0.585937 0.43946,0.351563 0.82031,0.351563 0,-0.175781 0.35157,-0.351563 -0.14649,-0.585937 -0.35157,-0.585937 z m 5.15625,0.9375 v 0.117187 q 0.17578,0 0.46875,0.234375 h 0.11718 l 0.46875,-0.351562 q -0.11718,-0.703125 -0.58593,-0.703125 -0.46875,0.117187 -0.46875,0.703125 z M 203.66406,85.9375 v 0.234375 q 0.11719,0.351562 0.70313,0.351562 l 0.35156,-0.46875 V 85.9375 q 0,-0.175781 -0.35156,-0.351563 h -0.35157 q -0.17578,0 -0.35156,0.351563 z m -5.85937,0.703125 0.23437,0.117187 0.23438,-0.703125 h -0.11719 q -0.20508,0 -0.35156,0.585938 z m 10.07812,-0.46875 q -0.46875,0.380859 -0.46875,0.703125 0.38086,0.351562 0.58594,0.351562 0.46875,-0.175781 0.46875,-0.351562 v -0.46875 q -0.20508,0 -0.58594,-0.234375 z m -12.1875,0.117187 -0.35156,0.585938 q 0.20508,0.46875 0.82031,0.46875 l 0.35156,-0.46875 v -0.117188 q -0.17578,-0.46875 -0.82031,-0.46875 z m 9.375,0.9375 q 0,0.175782 0.46875,0.351563 0.46875,-0.175781 0.46875,-0.351563 V 86.875 q 0,-0.117188 -0.46875,-0.351563 -0.46875,0.117188 -0.46875,0.703125 z m 7.96875,-0.703125 -0.23437,0.351563 v 0.351562 q 0,0.175782 0.46875,0.351563 0.32226,-0.08789 0.58593,-0.585938 -0.17578,-0.46875 -0.82031,-0.46875 z M 193,86.992187 v 0.46875 q 0.17578,0 0.46875,0.234375 h 0.11719 q 0.17578,0 0.46875,-0.46875 v -0.117187 q 0,-0.175781 -0.46875,-0.46875 h -0.23438 q -0.17578,0 -0.35156,0.351562 z m 10.07812,0.820313 h 0.23438 q 0.17578,0 0.35156,-0.46875 -0.11719,-0.234375 -0.11719,-0.351563 -0.17578,0 -0.46875,0.820313 z m -0.46875,-0.585938 v 0.234375 h 0.11719 v -0.234375 z m -5.74218,0.585938 v 0.351562 q 0.0293,0.234375 0.23437,0.234375 h 0.11719 q 0,-0.351562 0.58594,-0.351562 V 87.8125 q 0,-0.175781 -0.35157,-0.351563 h -0.23437 q -0.17578,0 -0.35156,0.351563 z m 23.08593,-0.351563 v 0.234375 h 0.11719 v -0.234375 z m -19.80468,0.117188 V 87.8125 h 0.11718 v -0.234375 z m 26.36718,0 v 0.117187 q 0.58594,0.08789 0.58594,0.585938 h 0.11719 v -0.351563 q 0,-0.175781 -0.35156,-0.351562 z m -20.15625,0.703125 q 0.52735,0.46875 0.58594,0.46875 0.46875,-0.175781 0.46875,-0.351563 v -0.351562 q 0,-0.175781 -0.35156,-0.351563 h -0.23438 q -0.23437,0.05859 -0.46875,0.585938 z m 7.85157,-0.234375 0.11718,0.585937 h 0.58594 q 0.23438,0 0.23438,-0.234375 v -0.234375 q -0.58594,0 -0.58594,-0.46875 -0.17578,0 -0.35156,0.351563 z m -19.80469,0.117187 v 0.234375 q 0,0.117188 0.46875,0.46875 0.46875,-0.175781 0.46875,-0.351562 v -0.351563 q 0,-0.175781 -0.35156,-0.351562 h -0.23438 q -0.17578,0 -0.35156,0.351562 z m 9.60937,0.234375 v 0.234375 q 0,0.175782 0.35157,0.351563 h 0.35156 q 0.35156,-0.117188 0.35156,-0.703125 l -0.58594,-0.351563 q -0.17578,0 -0.46875,0.46875 z m -12.07031,0.46875 0.35156,0.234375 h 0.35157 q 0.17578,0 0.35156,-0.46875 -0.17578,-0.46875 -0.35156,-0.46875 h -0.35157 q -0.35156,0.117188 -0.35156,0.703125 z m 35.97656,-0.234375 q 0,0.234375 -0.35156,0.234375 v 0.351563 q 0.58594,0 0.58594,0.351562 h 0.11719 q 0.35156,-0.117187 0.35156,-0.703125 -0.38086,-0.234375 -0.70313,-0.234375 z m -31.875,0.234375 -0.35156,0.46875 q 0,0.175782 0.46875,0.46875 h 0.23438 q 0.23437,-0.05859 0.46875,-0.585937 -0.43946,-0.351563 -0.82032,-0.351563 z m 9.49219,0.234375 -0.11719,0.585938 q 0,0.175781 0.35157,0.351562 h 0.23437 q 0.17578,0 0.35156,-0.351562 v -0.234375 q 0,-0.175781 -0.35156,-0.351563 z m -12.1875,0.46875 v 0.234375 q 0,0.175782 0.35156,0.351563 h 0.23438 q 0.11719,0 0.46875,-0.46875 -0.11719,-0.46875 -0.70313,-0.46875 -0.17578,0 -0.35156,0.351562 z m -2.34375,0.234375 v 0.46875 q 0.0293,0.234375 0.23438,0.234375 0.49804,0 0.70312,-0.46875 0,-0.175781 -0.46875,-0.585937 -0.46875,0.175781 -0.46875,0.351562 z m 12.07031,-0.351562 -0.11718,0.585937 q 0,0.175782 0.35156,0.351563 h 0.23437 q 0.17579,0 0.46875,-0.46875 -0.17578,-0.46875 -0.35156,-0.46875 z m 26.25,0.234375 q -0.35156,0.439453 -0.35156,0.703125 0.23438,0 0.23438,0.351562 h 0.46875 q 0.17578,0 0.35156,-0.46875 -0.17578,-0.585937 -0.70313,-0.585937 z m -9.02343,0.234375 v 0.351562 h 0.11718 v -0.351562 z m -13.59375,0.9375 0.46875,0.351562 h 0.23437 q 0.17578,0 0.35156,-0.351562 v -0.351563 q 0,-0.175781 -0.46875,-0.351562 -0.58593,0.175781 -0.58593,0.703125 z m 7.85156,-0.351563 q 0,0.585938 0.46875,0.703125 0.46875,-0.175781 0.46875,-0.351562 0,-0.703125 -0.46875,-0.703125 -0.46875,0.175781 -0.46875,0.351562 z m -19.80469,0.351563 q 0.17578,0.46875 0.35156,0.46875 h 0.23438 q 0.17578,0 0.35156,-0.351563 v -0.46875 q -0.17578,0 -0.46875,-0.234375 -0.46875,0.234375 -0.46875,0.585938 z m 9.60938,0 v 0.351562 q 0.11718,0.351563 0.70312,0.351563 0.35156,-0.46875 0.35156,-0.703125 l -0.58593,-0.351563 q -0.46875,0.175782 -0.46875,0.351563 z M 192.53125,90.625 q 0,0.175781 -0.23438,0.46875 v 0.117187 q 0,0.175782 0.46875,0.46875 0.58594,-0.205078 0.58594,-0.703125 Q 192.91211,90.625 192.53125,90.625 Z m 9.375,0.585937 v 0.234375 l 0.46875,0.46875 q 0.58594,-0.205078 0.58594,-0.703125 -0.38086,-0.351562 -0.58594,-0.351562 -0.46875,0.175781 -0.46875,0.351562 z m -11.71875,-0.234375 -0.35156,0.46875 V 91.5625 q 0,0.175781 0.35156,0.351562 h 0.35156 q 0.17578,0 0.35156,-0.351562 v -0.234375 q -0.11718,-0.351563 -0.70312,-0.351563 z m 37.73437,0.585938 v 0.351562 q 0.64454,0.234375 0.70313,0.234375 l 0.35156,-0.46875 V 91.5625 q 0,-0.117188 -0.46875,-0.46875 -0.52734,0.234375 -0.58594,0.46875 z m -2.34375,0 v 0.585937 q 0,0.263672 0.58594,0.351563 0.35156,-0.380859 0.35156,-0.585938 -0.17578,-0.46875 -0.35156,-0.46875 z m -19.57031,0 -0.23437,0.351562 v 0.351563 q 0,0.351562 0.46875,0.351562 0.46875,-0.175781 0.46875,-0.351562 V 91.914062 Q 206.59375,91.5625 206.00781,91.5625 Z m -12.30469,0.46875 v 0.351562 q 0,0.234375 0.70313,0.351563 0.35156,-0.46875 0.35156,-0.703125 -0.38086,-0.351563 -0.58594,-0.351563 -0.46875,0.175782 -0.46875,0.351563 z m 29.41407,0.117187 v 0.234375 q 0,0.175782 0.46875,0.46875 0.17578,0 0.46875,-0.46875 l -0.11719,-0.585937 h -0.46875 q -0.17578,0 -0.35156,0.351562 z m -19.57032,-0.234375 -0.23437,0.351563 V 92.5 q 0,0.175781 0.35156,0.351562 h 0.35156 q 0.0879,0 0.35157,-0.351562 -0.17578,-0.585938 -0.82032,-0.585938 z M 191.24219,92.5 q 0,0.175781 0.46875,0.585937 0.58593,-0.205078 0.58593,-0.703125 -0.23437,0 -0.23437,-0.351562 h -0.46875 q -0.17578,0 -0.35156,0.46875 z m 29.41406,0 v 0.234375 q 0,0.117187 0.46875,0.46875 0.32227,-0.08789 0.58594,-0.585938 -0.11719,-0.46875 -0.70313,-0.46875 -0.17578,0 -0.35156,0.351563 z m 8.67187,0.117187 v 0.234375 q 0,0.117188 0.46875,0.46875 0.32227,0 0.58594,-0.585937 -0.17578,-0.46875 -0.35156,-0.46875 h -0.35156 q -0.17578,0 -0.35157,0.351562 z m -40.54687,0.351563 q 0.52734,0.46875 0.58594,0.46875 0.46875,-0.234375 0.46875,-0.585938 -0.17578,-0.46875 -0.35157,-0.46875 h -0.35156 q -0.20508,0 -0.35156,0.585938 z m 12.77344,-0.585938 q 0,0.351563 -0.23438,0.351563 h -0.11719 L 200.85156,92.5 v 0.46875 q 0.17578,0 0.46875,0.234375 h 0.23438 Q 201.90625,93.085937 201.90625,92.5 l -0.23438,-0.117188 z m 25.3125,0.9375 q 0.38086,0.234375 0.70312,0.234375 0.17578,0 0.35156,-0.351562 V 92.96875 q 0,-0.175781 -0.35156,-0.351563 h -0.35156 q -0.35156,0.117188 -0.35156,0.703125 z m -21.79688,-0.351562 -0.35156,0.46875 v 0.234375 q 0,0.175781 0.35156,0.351562 h 0.23438 q 0.11718,0 0.46875,-0.46875 -0.0586,-0.351562 -0.70313,-0.585937 z m 19.33594,0.46875 q 0.11719,0.46875 0.70312,0.46875 0.17579,0 0.35157,-0.351563 v -0.234375 q 0,-0.175781 -0.35157,-0.351562 h -0.35156 q -0.11719,0 -0.35156,0.46875 z m -31.75781,0.117187 v 0.234375 q 0.11718,0.351563 0.70312,0.351563 l 0.35156,-0.46875 q -0.17578,-0.46875 -0.35156,-0.46875 H 193 q -0.17578,0 -0.35156,0.351562 z m 9.96093,-0.234375 -0.35156,0.46875 v 0.234375 q 0,0.175782 0.35156,0.351563 h 0.23438 q 0.46875,-0.234375 0.46875,-0.703125 -0.43945,-0.351563 -0.70313,-0.351563 z m 19.45313,0.234375 v 0.351563 q 0.11719,0.351562 0.70312,0.351562 l 0.35157,-0.585937 q -0.23438,0 -0.23438,-0.351563 h -0.58594 q -0.23437,0.0293 -0.23437,0.234375 z m -31.875,0.351563 v 0.234375 q 0.11719,0.351562 0.70312,0.351562 0,-0.234375 0.35157,-0.234375 V 93.90625 q 0,-0.175781 -0.35157,-0.351563 h -0.35156 q -0.17578,0 -0.35156,0.351563 z m 29.41406,0.117187 q 0.23438,0.527344 0.46875,0.585938 h 0.11719 q 0.17578,0 0.35156,-0.351563 V 93.90625 q 0,-0.292969 -0.46875,-0.351563 -0.17578,0 -0.46875,0.46875 z m 14.29688,-0.117187 h 0.46875 v 0.117187 q 0,0.234375 -0.23438,0.234375 h -0.23437 z M 194.05469,94.375 v 0.234375 q 0.23437,0 0.23437,-0.234375 z m 9.72656,0.117187 -0.11719,0.585938 q 0.11719,0.351562 0.70313,0.351562 l 0.23437,-0.351562 v -0.351563 q 0,-0.234375 -0.23437,-0.234375 z m -2.22656,0.234375 -0.35157,0.46875 v 0.351563 q 0.17579,0 0.46875,0.234375 h 0.11719 q 0.17578,0 0.46875,-0.46875 v -0.117188 q -0.23437,-0.46875 -0.70312,-0.46875 z m -2.8125,0.820313 q 0.20508,0.585937 0.70312,0.585937 l 0.35156,-0.46875 v -0.117187 q -0.23437,-0.46875 -0.58593,-0.46875 -0.38086,0.117187 -0.46875,0.46875 z m -2.34375,0 v 0.46875 q 0.0586,0.234375 0.58593,0.46875 l 0.35157,-0.46875 V 95.78125 q 0,-0.175781 -0.35157,-0.351563 z m -2.46094,0.46875 v 0.351562 q 0.0586,0.234375 0.58594,0.46875 l 0.35156,-0.46875 v -0.351562 q 0,-0.234375 -0.23438,-0.234375 h -0.46875 q -0.23437,0.0293 -0.23437,0.234375 z M 202.60937,96.25 v 0.46875 q 0.46875,0.0293 0.46875,0.234375 0.32227,-0.08789 0.58594,-0.585938 0,-0.175781 -0.46875,-0.46875 h -0.23437 q -0.17578,0 -0.35157,0.351563 z m -15.82031,-0.117188 h 0.11719 q 0.23437,0.0293 0.23437,0.234375 0,0.234375 -0.23437,0.234375 l -0.11719,-0.234375 z m 13.35938,0.585938 q 0.11718,0.46875 0.70312,0.46875 0.17578,0 0.35156,-0.46875 Q 201.02734,96.25 200.85156,96.25 H 200.5 q -0.17578,0 -0.35156,0.46875 z m -2.46094,0.46875 0.46875,0.351562 h 0.23437 q 0.17579,0 0.35157,-0.351562 L 198.625,96.601562 h -0.58594 q -0.26367,0 -0.35156,0.585938 z m -2.34375,0 v 0.351562 q 0.11719,0.351563 0.70312,0.351563 0.23438,-0.46875 0.35157,-0.46875 -0.11719,-0.46875 -0.70313,-0.46875 h -0.11719 q -0.23437,0.0293 -0.23437,0.234375 z m -3.28125,2.34375 q 0.23437,0.0293 0.23437,0.234375 0,0.234375 -0.23437,0.234375 -0.23438,0 -0.23438,-0.234375 0.0293,-0.234375 0.23438,-0.234375 z" />
      <path
         id="path26"
         style="font-family:'Bould SemiBold';letter-spacing:0.075em"
         d="m 249.9925,100 h 8.1 V 65.14 h 11.82 V 58 h -31.8 v 7.14 h 11.88 z" />
      <path
         id="path28"
         style="font-family:'Bould SemiBold';letter-spacing:0.075em"
         d="m 280.70312,100 h 24.36001 v -7.02 h -16.26 V 82.12 h 14.94 v -7.08 h -14.94 v -9.9 h 16.26 V 58 h -24.36001 z" />
      <path
         id="path30"
         style="font-family:'Bould SemiBold';letter-spacing:0.075em"
         d="m 316.90094,100 h 7.8 l 0.72,-26.22 h 0.3 l 7.2,20.82 h 9.54 l 7.14,-20.82 h 0.3 l 0.72,26.22 h 7.86 l -1.38,-42 h -9.18 l -10.2,28.68 -10.26,-28.68 h -9.18 z" />
      <path
         id="path32"
         style="font-family:'Bould SemiBold';letter-spacing:0.075em"
         d="m 371.85156,100 h 8.1 V 85.6 h 6.78 c 9,0 14.04,-6.12 14.04,-13.86 0,-8.28 -5.16,-13.74 -14.04,-13.74 h -14.88 z m 8.1,-21.6 V 65.14 h 6.3 c 4.32,0 6.18,2.76 6.18,6.6 0,3.84 -1.86,6.66 -6.18,6.66 z" />
      <path
         id="path34"
         style="font-family:'Bould SemiBold';letter-spacing:0.075em"
         d="m 427.57938,57.52 c -11.22001,0 -17.28001,7.5 -17.28001,21.42 0,14.04 6.06,21.54 17.28001,21.54 11.21999,0 17.33999,-7.5 17.33999,-21.54 0,-13.92 -6.12,-21.42 -17.33999,-21.42 z m 0,35.64 c -6.12,0 -8.94001,-4.62 -8.94001,-14.22 0,-9.48 2.82001,-14.1 8.94001,-14.1 6.17999,0 9,4.62 9,14.1 0,9.6 -2.82001,14.22 -9,14.22 z" />
      <path
         id="path36"
         style="font-family:'Bould SemiBold';letter-spacing:0.075em"
         d="m 478.74625,100 h 8.82 l -8.64,-16.8 c 4.8,-1.98 7.44,-6.36 7.44,-12.24 0,-8.34 -5.4,-12.96 -13.56,-12.96 h -15.9 v 42 h 8.1 V 84.28 h 6.36 z m -13.74,-34.86 h 7.08 c 4.02,0 6,2.22 6,5.82 0,3.72 -1.98,6.12 -6,6.12 h -7.08 z" />
      <path
         id="path38"
         style="font-family:'Bould SemiBold';letter-spacing:0.075em"
         d="m 521.12875,100 h 8.46 l -11.16,-42 h -12.9 l -11.04,42 h 8.4 l 2.28,-9.6 h 13.68 z m -14.22,-16.74 4.2,-17.52 h 1.8 l 4.2,17.46 z" />
      <path
         id="path40"
         style="font-family:'Bould SemiBold';letter-spacing:0.075em"
         d="m 539.61719,100 h 7.8 V 73.9 h 0.3 l 15.66,26.1 h 7.44 V 58 h -7.8 v 26.64 h -0.3 l -16.2,-26.64 h -6.9 z" />
      <path
         id="path42"
         style="font-family:'Bould SemiBold';letter-spacing:0.075em"
         d="m 584.3125,100 h 24.36 v -7.02 h -16.26 V 82.12 h 14.94 v -7.08 h -14.94 v -9.9 h 16.26 V 58 h -24.36 z" />
      <path
         id="path44"
         style="font-family:'Bould SemiBold';letter-spacing:0.075em"
         d="m 643.73031,100 h 8.46 l -11.16,-42 h -12.9 l -11.04,42 h 8.4 l 2.28,-9.6 h 13.68 z m -14.22,-16.74 4.2,-17.52 h 1.8 l 4.2,17.46 z" />
    </g>
  </g>
</svg>
