<?xml version="1.0" encoding="UTF-8" standalone="no"?>
<svg
   xmlns:dc="http://purl.org/dc/elements/1.1/"
   xmlns:cc="http://creativecommons.org/ns#"
   xmlns:rdf="http://www.w3.org/1999/02/22-rdf-syntax-ns#"
   xmlns:svg="http://www.w3.org/2000/svg"
   xmlns="http://www.w3.org/2000/svg"
   id="svg16"
   width="800px"
   version="1.1"
   height="200px">
  <metadata
     id="metadata20">
    <rdf:RDF>
      <cc:Work
         rdf:about="">
        <dc:format>image/svg+xml</dc:format>
        <dc:type
           rdf:resource="http://purl.org/dc/dcmitype/StillImage" />
      </cc:Work>
    </rdf:RDF>
  </metadata>
  <defs
     id="defs4">
    <style
       id="style2"
       type="text/css"><![CDATA[    
     @font-face {font-family:Bould Light;
     src: url('/Users/francesco/Repos/write-logos/src/fonts/Fonts_E_TEMPORANEA/Bould-Light.otf');}
     @font-face {font-family:Special Elite;
     src: url('/Users/francesco/Repos/write-logos/src/fonts/Fonts_X/SpecialElite-Regular.ttf');}
     ]]></style>
  </defs>
  <g
     id="g14"
     style="font-size:60px">
    <g
       style="text-anchor:middle"
       id="text12"
       aria-label="EXTEMPORANEA">
      <path
         id="path22"
         style="font-family:'Bould Light';letter-spacing:0.075em"
         d="m 161.87031,100 h 21.9 v -3.78 h -17.82 V 80.44 h 16.5 v -3.78 h -16.5 V 61.78 h 17.82 V 58 h -21.9 z" />
      <path
         id="path24"
         style="font-family:'Special Elite';letter-spacing:0.05em"
         d="m 227.54102,96.25 q -0.14649,0.673828 -0.32227,1.376953 -0.14648,0.703125 -0.46875,1.289063 -0.23438,0.410156 -0.79102,0.644531 -0.52734,0.205078 -1.17187,0.322265 Q 224.17187,100 223.52734,100 q -0.64453,0.0293 -1.05468,0.0293 -1.75782,0 -3.51563,-0.175784 -1.72851,-0.205079 -3.48633,-0.322266 -0.67383,-0.0293 -1.28906,-0.05859 -0.58594,-0.05859 -1.08398,-0.263672 -0.46875,-0.234375 -0.76172,-0.673828 -0.26367,-0.46875 -0.26367,-1.318359 0,-1.31836 0.35156,-1.992188 0.35156,-0.703125 0.79101,-1.113281 0.43946,-0.439453 0.79102,-0.761719 0.35156,-0.322265 0.35156,-0.878906 0,-0.585937 -0.29297,-1.054687 -0.29297,-0.498047 -0.61523,-0.996094 -0.46875,-0.732422 -0.73242,-1.611328 -0.23438,-0.908203 -0.55664,-1.699219 -0.32227,-0.791016 -0.90821,-1.318359 -0.58593,-0.527344 -1.72851,-0.527344 -0.61524,0 -0.82032,0.234375 -0.17578,0.205078 -0.23437,0.55664 -0.0586,0.322266 -0.14648,0.703125 -0.0586,0.351563 -0.43946,0.615235 -0.52734,0.380859 -0.99609,1.054687 -0.46875,0.673828 -0.82031,1.435547 -0.35157,0.761719 -0.55664,1.582031 -0.20508,0.791016 -0.20508,1.435547 0,0.527344 0.38086,1.025391 0.38086,0.46875 0.84961,0.966797 0.46875,0.498047 0.84961,1.054687 0.38085,0.556641 0.38085,1.259766 0,0.146484 -0.0586,0.46875 -0.0586,0.292969 -0.29297,0.292969 -0.14648,0 -0.29297,-0.08789 -0.11718,-0.08789 -0.26367,-0.08789 -0.11719,0 -0.20508,0.117188 -0.0586,0.117187 -0.0586,0.234375 0,0.117187 0.14648,0.117187 h 0.0586 q 0.11719,0 0.20508,0.0293 0.0879,0.0293 0.0879,0.263672 0,0.351563 -0.26368,0.556641 -0.26367,0.205078 -0.64453,0.322265 -0.35156,0.08789 -0.73242,0.117188 -0.38086,0 -0.61523,0 -0.58594,0 -1.14258,-0.05859 -0.52734,-0.05859 -1.11328,-0.05859 -1.58203,0 -3.19336,0.146485 -1.58203,0.117187 -3.19336,0.117187 -0.43945,0 -0.99609,-0.0293 -0.55665,-0.0293 -1.05469,-0.175781 -0.49805,-0.175781 -0.84961,-0.498047 -0.32227,-0.351562 -0.32227,-0.966797 0,-0.615234 0.35157,-1.113281 0.35156,-0.527344 0.79101,-0.908203 0.52734,-0.439453 1.14258,-0.673828 0.61523,-0.263672 1.25976,-0.46875 0.64454,-0.205078 1.25977,-0.439453 0.64453,-0.234375 1.17188,-0.673828 0.76171,-0.615235 1.25976,-1.435547 0.52734,-0.84961 0.9375,-1.728516 0.43945,-0.908203 0.87891,-1.787109 0.43945,-0.908203 1.11328,-1.640625 0.20508,-0.234375 0.41015,-0.615235 0.20508,-0.380859 0.35157,-0.820312 0.14648,-0.439453 0.23437,-0.849609 0.0879,-0.439454 0.0879,-0.761719 0,-0.263672 0.20508,-0.410156 0.23438,-0.175782 0.41016,-0.322266 0.55664,-0.410156 0.82031,-0.791016 0.26367,-0.410156 0.49805,-1.054687 0.29297,-0.878906 0.73242,-1.757813 0.46875,-0.878906 0.46875,-1.816406 0,-0.380859 -0.17578,-0.966797 -0.14649,-0.615234 -0.41016,-1.230469 -0.23437,-0.615234 -0.52734,-1.171875 -0.29297,-0.55664 -0.55664,-0.849609 -0.23438,-0.263672 -0.43946,-0.410156 -0.20507,-0.146485 -0.35156,-0.263672 -0.14648,-0.146484 -0.23437,-0.351563 -0.0879,-0.234375 -0.0879,-0.673828 0,-0.46875 -0.14649,-0.849609 -0.14648,-0.380859 -0.38086,-0.703125 -0.23437,-0.351563 -0.52734,-0.673828 -0.26367,-0.322266 -0.49805,-0.673828 -0.38086,-0.556641 -0.64453,-1.171875 -0.23438,-0.644532 -0.46875,-1.289063 -0.20508,-0.644531 -0.49805,-1.259765 -0.26367,-0.615235 -0.70312,-1.142579 -0.52735,-0.615234 -0.87891,-0.996093 -0.35156,-0.38086 -0.73242,-0.585938 -0.38086,-0.234375 -0.9082,-0.292969 -0.49805,-0.08789 -1.31836,-0.08789 -0.38086,0 -0.9668,-0.205078 -0.58594,-0.234375 -1.14258,-0.556641 -0.52734,-0.351562 -0.9375,-0.791016 -0.38086,-0.439453 -0.38086,-0.878906 0,-0.410156 0.38086,-0.615234 0.41016,-0.205078 0.9375,-0.292969 0.52735,-0.117187 1.05469,-0.117187 0.52734,-0.0293 0.79102,-0.05859 0.8789,-0.05859 1.75781,-0.117188 0.8789,-0.08789 1.75781,-0.08789 0.58594,0 1.14258,0.05859 0.58594,0.05859 1.17187,0.05859 1.02539,0 1.99219,-0.08789 0.9082,-0.08789 1.43555,0.117187 0.52734,0.205078 0.79101,0.527344 0.26368,0.322265 0.32227,0.644531 0.0879,0.292969 0.0879,0.410156 0,0.439453 -0.38086,0.820313 -0.35156,0.351562 -0.82031,0.703125 -0.43946,0.351562 -0.84961,0.703125 -0.38086,0.351562 -0.43945,0.732422 0.64453,1.904297 1.49414,3.662109 0.8789,1.757813 2.19726,3.339844 0.11719,0.146484 0.29297,0.351562 0.17578,0.205078 0.35156,0.410157 0.20508,0.175781 0.41016,0.322265 0.23437,0.117188 0.43945,0.117188 0.0879,0 0.32227,-0.175782 0.23437,-0.205078 0.52734,-0.46875 0.32227,-0.263671 0.64453,-0.498046 0.35157,-0.263672 0.61524,-0.38086 0.43945,-0.175781 0.70312,-0.820312 0.29297,-0.644532 0.49805,-1.435547 0.23437,-0.791016 0.43945,-1.552735 0.20508,-0.761718 0.46875,-1.201171 0.23438,-0.322266 0.55664,-0.791016 0.32227,-0.498047 0.32227,-0.908203 0,-0.410156 -0.32227,-0.644531 -0.32226,-0.234375 -0.70312,-0.46875 -0.38086,-0.234375 -0.70313,-0.585938 -0.32226,-0.380859 -0.32226,-1.054687 0,-0.673829 0.32226,-1.083985 0.35157,-0.439453 0.9961,-0.585937 0.96679,-0.205078 1.99218,-0.351563 1.02539,-0.146484 2.02149,-0.146484 0.49805,0 0.9668,0.175781 0.46875,0.175781 0.96679,0.175781 0.55664,0 1.05469,-0.234375 0.49805,-0.234375 1.08398,-0.234375 0.55664,0 1.11329,0.08789 0.58593,0.08789 1.11328,0.234375 0.26367,0.08789 0.61523,0.292969 0.35156,0.175781 0.64453,0.439453 0.32227,0.263672 0.52735,0.585937 0.23437,0.292969 0.23437,0.615235 0,0.439453 -0.55664,0.761718 -0.55664,0.322266 -1.28906,0.556641 -0.73242,0.234375 -1.46485,0.410156 -0.73242,0.146485 -1.05468,0.234375 -1.23047,0.351563 -2.10938,1.083985 -0.8789,0.703125 -1.52344,1.640625 -0.61523,0.908203 -1.08398,1.992187 -0.43945,1.054688 -0.84961,2.138672 -0.43945,1.142578 -1.05469,2.255859 -0.61523,1.113282 -1.17187,2.25586 -0.55664,1.142578 -0.9668,2.314453 -0.38086,1.171875 -0.38086,2.431641 0,1.142578 0.32227,1.96289 0.32226,0.791016 0.70312,1.464844 0.38086,0.644531 0.70313,1.230469 0.32226,0.55664 0.32226,1.171875 0,0.146484 0.20508,0.410156 0.23438,0.234375 0.52734,0.498047 0.29297,0.263672 0.55665,0.527344 0.29296,0.263671 0.38085,0.439453 0.55665,0.9375 0.9668,2.050781 0.43945,1.083984 0.9375,2.109375 0.49805,1.025391 1.17188,1.904297 0.70312,0.878906 1.78711,1.40625 0.49804,0.263672 1.02539,0.380859 0.55664,0.08789 1.11328,0.175781 0.55664,0.05859 1.11328,0.117188 0.55664,0.05859 1.08398,0.205078 0.49805,0.05859 0.79102,0.234375 0.32226,0.146484 0.49805,0.380859 0.17578,0.234375 0.23437,0.527344 0.0879,0.263672 0.14649,0.527344 z" />
      <path
         id="path26"
         style="font-family:'Bould Light';letter-spacing:0.075em"
         d="m 246.2875,100 h 4.08 V 61.78 h 11.94 V 58 h -28.02 v 3.78 h 12 z" />
      <path
         id="path28"
         style="font-family:'Bould Light';letter-spacing:0.075em"
         d="m 276.76094,100 h 21.9 v -3.78 h -17.82 V 80.44 h 16.5 v -3.78 h -16.5 V 61.78 h 17.82 V 58 h -21.9 z" />
      <path
         id="path30"
         style="font-family:'Bould Light';letter-spacing:0.075em"
         d="m 313.65625,100 h 3.96 l 0.96,-35.64 h 0.3 l 11.16,30.24 h 5.58 l 11.16,-30.24 h 0.3 l 0.9,35.64 h 4.02 l -1.38,-42 h -5.46 l -12.3,33.24 -12.36,-33.24 h -5.52 z" />
      <path
         id="path32"
         style="font-family:'Bould Light';letter-spacing:0.075em"
         d="m 368.72969,100 h 4.08 V 84.34 h 8.46 c 8.52,0 13.08,-5.34 13.08,-13.14 0,-8.28 -4.92,-13.2 -13.08,-13.2 h -12.54 z m 4.08,-19.44 V 61.78 h 8.34 c 6.6,0 8.94,3.96 8.94,9.42 0,5.34 -2.34,9.36 -8.94,9.36 z" />
      <path
         id="path34"
         style="font-family:'Bould Light';letter-spacing:0.075em"
         d="m 422.2975,57.52 c -11.04,0 -15.36,8.34 -15.36,21.42 0,13.2 4.32,21.54 15.36,21.54 10.98,0 15.36,-8.34 15.36,-21.54 0,-13.08 -4.38,-21.42 -15.36,-21.42 z m 0,39.18 c -8.4,0 -11.1,-6.9 -11.1,-17.76 0,-10.74 2.7,-17.64 11.1,-17.64 8.34,0 11.04,6.9 11.04,17.64 0,10.86 -2.7,17.76 -11.04,17.76 z" />
      <path
         id="path36"
         style="font-family:'Bould Light';letter-spacing:0.075em"
         d="m 480.08688,100 -9.06,-17.46 c 5.09999,-1.62 7.91999,-5.82 7.91999,-11.94 0,-8.28 -5.22,-12.6 -13.2,-12.6 h -12.9 v 42 h 4.08 V 83.32 h 8.82 c 0.42,0 0.84001,0 1.26,-0.06 L 475.40688,100 Z M 465.38687,79.48 h -8.46 v -17.7 h 8.46 c 6.36,0 9.24,3.3 9.24,8.82 0,5.64 -2.88,8.88 -9.24,8.88 z" />
      <path
         id="path38"
         style="font-family:'Bould Light';letter-spacing:0.075em"
         d="m 516.52937,100 h 4.26 L 509.08938,58 h -7.44 l -11.64001,42 h 4.14001 l 3,-10.98 h 16.37999 z m -18.3,-14.82 6.24001,-22.8 h 1.8 l 6.18,22.74 z" />
      <path
         id="path40"
         style="font-family:'Bould Light';letter-spacing:0.075em"
         d="m 533.91719,100 h 3.9 V 66.76 h 0.3 l 19.14,33.24 h 3.78 V 58 h -3.9 v 33.66 h -0.3 L 537.21719,58 h -3.3 z" />
      <path
         id="path42"
         style="font-family:'Bould Light';letter-spacing:0.075em"
         d="m 578.02656,100 h 21.9 v -3.78 h -17.82 V 80.44 h 16.5 v -3.78 h -16.5 V 61.78 h 17.82 V 58 h -21.9 z" />
      <path
         id="path44"
         style="font-family:'Bould Light';letter-spacing:0.075em"
         d="m 637.84187,100 h 4.26 L 630.40188,58 h -7.44001 l -11.64,42 h 4.14 l 3,-10.98 h 16.38 z m -18.3,-14.82 6.24001,-22.8 h 1.79999 l 6.18001,22.74 z" />
    </g>
  </g>
</svg>
