<?xml version="1.0" encoding="UTF-8" standalone="no"?>
<svg
   xmlns:dc="http://purl.org/dc/elements/1.1/"
   xmlns:cc="http://creativecommons.org/ns#"
   xmlns:rdf="http://www.w3.org/1999/02/22-rdf-syntax-ns#"
   xmlns:svg="http://www.w3.org/2000/svg"
   xmlns="http://www.w3.org/2000/svg"
   id="svg16"
   width="800px"
   version="1.1"
   height="200px">
  <metadata
     id="metadata20">
    <rdf:RDF>
      <cc:Work
         rdf:about="">
        <dc:format>image/svg+xml</dc:format>
        <dc:type
           rdf:resource="http://purl.org/dc/dcmitype/StillImage" />
      </cc:Work>
    </rdf:RDF>
  </metadata>
  <defs
     id="defs4">
    <style
       id="style2"
       type="text/css"><![CDATA[    
     @font-face {font-family:Bould SemiBold;
     src: url('/Users/francesco/Repos/write-logos/src/fonts/Fonts_E_TEMPORANEA/Bould-SemiBold.otf');}
     @font-face {font-family:Ephesus extrabold outline;
     src: url('/Users/francesco/Repos/write-logos/src/fonts/Fonts_X/Ephesus-ExtraBold-outline.otf');}
     ]]></style>
  </defs>
  <g
     id="g14"
     style="font-size:60px">
    <g
       style="text-anchor:middle"
       id="text12"
       aria-label="EXTEMPORANEA">
      <path
         id="path22"
         style="font-family:'Bould SemiBold';letter-spacing:0.075em"
         d="m 154.09375,100 h 24.36 v -7.02 h -16.26 V 82.12 h 14.94 v -7.08 h -14.94 v -9.9 h 16.26 V 58 h -24.36 z" />
      <path
         id="path24"
         style="font-family:'Ephesus extrabold outline';letter-spacing:0.05em"
         d="m 187.53156,98.14 c -0.18,0.18 -0.3,0.48 -0.3,0.72 0,0.54 0.42,1.14 1.08,1.14 h 9.66 c 1.98,0 2.7,-0.9 3.06,-1.26 l 7.08,-9.96 7.08,9.96 c 0.36,0.36 1.08,1.26 3.06,1.26 h 9.66 c 0.66,0 1.08,-0.6 1.08,-1.14 0,-0.24 -0.12,-0.54 -0.3,-0.72 l -13.44,-19.08 13.32,-19.08 c 0.24,-0.3 0.36,-0.6 0.36,-0.84 0,-0.72 -0.78,-1.14 -1.2,-1.14 h -9.84 c -1.86,0 -2.4,0.6 -3.06,1.26 l -6.72,9.6 -6.72,-9.6 c -0.66,-0.66 -1.2,-1.26 -3.06,-1.26 h -9.84 c -0.42,0 -1.2,0.42 -1.2,1.14 0,0.24 0.12,0.54 0.36,0.84 l 13.32,19.08 z m 10.44,-0.06 h -8.1 l 13.44,-19.02 -13.44,-19.14 h 8.46 c 1.02,0 1.32,0.36 1.68,0.72 l -0.18,-0.3 8.28,11.82 c 2.22,-3.18 6.06,-8.64 8.1,-11.52 0.36,-0.36 0.66,-0.72 1.68,-0.72 h 8.34 l -13.32,19.14 13.38,19.02 h -8.04 c -0.96,0 -1.26,-0.24 -1.44,-0.42 l -8.7,-12.24 c -2.34,3.3 -6.3,8.88 -8.64,12.18 l 0.12,-0.12 c -0.18,0.24 -0.6,0.6 -1.62,0.6 z" />
      <path
         id="path26"
         style="font-family:'Bould SemiBold';letter-spacing:0.075em"
         d="m 247.18,100 h 8.1 V 65.14 H 267.1 V 58 h -31.8 v 7.14 h 11.88 z" />
      <path
         id="path28"
         style="font-family:'Bould SemiBold';letter-spacing:0.075em"
         d="m 277.89062,100 h 24.36001 v -7.02 h -16.26 V 82.12 h 14.94 v -7.08 h -14.94 v -9.9 h 16.26 V 58 h -24.36001 z" />
      <path
         id="path30"
         style="font-family:'Bould SemiBold';letter-spacing:0.075em"
         d="m 314.08844,100 h 7.8 l 0.72,-26.22 h 0.3 l 7.2,20.82 h 9.54 l 7.14,-20.82 h 0.3 l 0.72,26.22 h 7.86 l -1.38,-42 h -9.18 l -10.2,28.68 -10.26,-28.68 h -9.18 z" />
      <path
         id="path32"
         style="font-family:'Bould SemiBold';letter-spacing:0.075em"
         d="m 369.03906,100 h 8.1 V 85.6 h 6.78 c 9,0 14.04,-6.12 14.04,-13.86 0,-8.28 -5.16,-13.74 -14.04,-13.74 h -14.88 z m 8.1,-21.6 V 65.14 h 6.3 c 4.32,0 6.18,2.76 6.18,6.6 0,3.84 -1.86,6.66 -6.18,6.66 z" />
      <path
         id="path34"
         style="font-family:'Bould SemiBold';letter-spacing:0.075em"
         d="m 424.76688,57.52 c -11.22001,0 -17.28001,7.5 -17.28001,21.42 0,14.04 6.06,21.54 17.28001,21.54 11.21999,0 17.33999,-7.5 17.33999,-21.54 0,-13.92 -6.12,-21.42 -17.33999,-21.42 z m 0,35.64 c -6.12,0 -8.94001,-4.62 -8.94001,-14.22 0,-9.48 2.82001,-14.1 8.94001,-14.1 6.17999,0 9,4.62 9,14.1 0,9.6 -2.82001,14.22 -9,14.22 z" />
      <path
         id="path36"
         style="font-family:'Bould SemiBold';letter-spacing:0.075em"
         d="m 475.93375,100 h 8.82 l -8.64,-16.8 c 4.8,-1.98 7.44,-6.36 7.44,-12.24 0,-8.34 -5.4,-12.96 -13.56,-12.96 h -15.9 v 42 h 8.1 V 84.28 h 6.36 z m -13.74,-34.86 h 7.08 c 4.02,0 6,2.22 6,5.82 0,3.72 -1.98,6.12 -6,6.12 h -7.08 z" />
      <path
         id="path38"
         style="font-family:'Bould SemiBold';letter-spacing:0.075em"
         d="m 518.31625,100 h 8.46 l -11.16,-42 h -12.9 l -11.04,42 h 8.4 l 2.28,-9.6 h 13.68 z m -14.22,-16.74 4.2,-17.52 h 1.8 l 4.2,17.46 z" />
      <path
         id="path40"
         style="font-family:'Bould SemiBold';letter-spacing:0.075em"
         d="m 536.80469,100 h 7.8 V 73.9 h 0.3 l 15.66,26.1 h 7.44 V 58 h -7.8 v 26.64 h -0.3 l -16.2,-26.64 h -6.9 z" />
      <path
         id="path42"
         style="font-family:'Bould SemiBold';letter-spacing:0.075em"
         d="m 581.5,100 h 24.36 V 92.98 H 589.6 V 82.12 h 14.94 V 75.04 H 589.6 v -9.9 h 16.26 V 58 H 581.5 Z" />
      <path
         id="path44"
         style="font-family:'Bould SemiBold';letter-spacing:0.075em"
         d="m 640.91781,100 h 8.46 l -11.16,-42 h -12.9 l -11.04,42 h 8.4 l 2.28,-9.6 h 13.68 z m -14.22,-16.74 4.2,-17.52 h 1.8 l 4.2,17.46 z" />
    </g>
  </g>
</svg>
