<?xml version="1.0" encoding="UTF-8" standalone="no"?>
<svg
   xmlns:dc="http://purl.org/dc/elements/1.1/"
   xmlns:cc="http://creativecommons.org/ns#"
   xmlns:rdf="http://www.w3.org/1999/02/22-rdf-syntax-ns#"
   xmlns:svg="http://www.w3.org/2000/svg"
   xmlns="http://www.w3.org/2000/svg"
   id="svg16"
   width="800px"
   version="1.1"
   height="200px">
  <metadata
     id="metadata20">
    <rdf:RDF>
      <cc:Work
         rdf:about="">
        <dc:format>image/svg+xml</dc:format>
        <dc:type
           rdf:resource="http://purl.org/dc/dcmitype/StillImage" />
      </cc:Work>
    </rdf:RDF>
  </metadata>
  <defs
     id="defs4">
    <style
       id="style2"
       type="text/css"><![CDATA[    
     @font-face {font-family:Bould Light;
     src: url('/Users/francesco/Repos/write-logos/src/fonts/Fonts_E_TEMPORANEA/Bould-Light.otf');}
     @font-face {font-family:Emblema One;
     src: url('/Users/francesco/Repos/write-logos/src/fonts/Fonts_X/EmblemaOne-Regular.ttf');}
     ]]></style>
  </defs>
  <g
     id="g14"
     style="font-size:60px">
    <g
       style="text-anchor:middle"
       id="text12"
       aria-label="EXTEMPORANEA">
      <path
         id="path22"
         style="font-family:'Bould Light';letter-spacing:0.075em"
         d="m 159.29219,100 h 21.9 v -3.78 h -17.82 V 80.44 h 16.5 v -3.78 h -16.5 V 61.78 h 17.82 V 58 h -21.9 z" />
      <path
         id="path24"
         style="font-family:'Emblema One';letter-spacing:0.05em"
         d="m 209.37695,100 q -5.88867,-20.214844 -14.17968,-37.96875 0,-0.380859 0.9375,-1.142578 0.96679,-0.761719 1.64062,-0.761719 h 15 q 3.33984,11.425781 6.41602,19.746094 3.07617,8.291015 7.73437,18.193359 0,0.38086 -0.9375,1.171875 Q 225.05078,100 224.37695,100 Z m 11.39649,-21.123047 q 1.66992,-5.537109 1.66992,-9.609375 0,-1.933594 -0.35156,-3.398437 -0.35157,-1.494141 -1.23047,-3.837891 0,-0.380859 0.9375,-1.142578 0.96679,-0.761719 1.64062,-0.761719 h 9.34571 q -3.48633,5.332031 -5.71289,9.140625 -2.22657,3.808594 -3.75,7.617188 -0.17579,0.46875 -1.0254,1.230468 -0.8496,0.761719 -1.52343,0.761719 z m -19.33594,2.255859 q -1.66992,5.361329 -1.66992,9.052735 0,3.691406 1.58203,7.880859 0,0.38086 -0.9668,1.171875 Q 199.44531,100 198.77148,100 h -9.375 q 6.88477,-10.576172 9.46289,-16.933594 0.17579,-0.46875 1.0254,-1.201172 0.8789,-0.732422 1.55273,-0.732422 z" />
      <path
         id="path26"
         style="font-family:'Bould Light';letter-spacing:0.075em"
         d="m 248.86562,100 h 4.08 V 61.78 h 11.94 V 58 h -28.02 v 3.78 h 12 z" />
      <path
         id="path28"
         style="font-family:'Bould Light';letter-spacing:0.075em"
         d="m 279.33906,100 h 21.9 v -3.78 h -17.82 V 80.44 h 16.5 v -3.78 h -16.5 V 61.78 h 17.82 V 58 h -21.9 z" />
      <path
         id="path30"
         style="font-family:'Bould Light';letter-spacing:0.075em"
         d="m 316.23437,100 h 3.96 l 0.96001,-35.64 h 0.3 l 11.15999,30.24 h 5.58 l 11.16,-30.24 h 0.30001 l 0.89999,35.64 h 4.02 l -1.38,-42 h -5.46 l -12.3,33.24 -12.36,-33.24 h -5.52 z" />
      <path
         id="path32"
         style="font-family:'Bould Light';letter-spacing:0.075em"
         d="m 371.30781,100 h 4.08 V 84.34 h 8.46 c 8.52,0 13.08,-5.34 13.08,-13.14 0,-8.28 -4.92,-13.2 -13.08,-13.2 h -12.54 z m 4.08,-19.44 V 61.78 h 8.34 c 6.6,0 8.94,3.96 8.94,9.42 0,5.34 -2.34,9.36 -8.94,9.36 z" />
      <path
         id="path34"
         style="font-family:'Bould Light';letter-spacing:0.075em"
         d="m 424.87563,57.52 c -11.04001,0 -15.36001,8.34 -15.36001,21.42 0,13.2 4.32,21.54 15.36001,21.54 10.97999,0 15.36,-8.34 15.36,-21.54 0,-13.08 -4.38001,-21.42 -15.36,-21.42 z m 0,39.18 c -8.40001,0 -11.10001,-6.9 -11.10001,-17.76 0,-10.74 2.7,-17.64 11.10001,-17.64 8.33999,0 11.03999,6.9 11.03999,17.64 0,10.86 -2.7,17.76 -11.03999,17.76 z" />
      <path
         id="path36"
         style="font-family:'Bould Light';letter-spacing:0.075em"
         d="m 482.665,100 -9.06,-17.46 c 5.1,-1.62 7.92,-5.82 7.92,-11.94 0,-8.28 -5.22,-12.6 -13.2,-12.6 h -12.9 v 42 h 4.08 V 83.32 h 8.82 c 0.42,0 0.84,0 1.26,-0.06 l 8.4,16.74 z m -14.7,-20.52 h -8.46 v -17.7 h 8.46 c 6.36,0 9.24,3.3 9.24,8.82 0,5.64 -2.88,8.88 -9.24,8.88 z" />
      <path
         id="path38"
         style="font-family:'Bould Light';letter-spacing:0.075em"
         d="m 519.1075,100 h 4.26 l -11.7,-42 h -7.44 l -11.64,42 h 4.14 l 3,-10.98 h 16.38 z m -18.3,-14.82 6.24,-22.8 h 1.8 l 6.18,22.74 z" />
      <path
         id="path40"
         style="font-family:'Bould Light';letter-spacing:0.075em"
         d="m 536.49531,100 h 3.9 V 66.76 h 0.3 l 19.14,33.24 h 3.78 V 58 h -3.9 v 33.66 h -0.3 L 539.79531,58 h -3.3 z" />
      <path
         id="path42"
         style="font-family:'Bould Light';letter-spacing:0.075em"
         d="m 580.60469,100 h 21.9 v -3.78 h -17.82 V 80.44 h 16.5 v -3.78 h -16.5 V 61.78 h 17.82 V 58 h -21.9 z" />
      <path
         id="path44"
         style="font-family:'Bould Light';letter-spacing:0.075em"
         d="m 640.42,100 h 4.26 l -11.7,-42 h -7.44 l -11.64,42 h 4.14 l 3,-10.98 h 16.38 z m -18.3,-14.82 6.24,-22.8 h 1.8 l 6.18,22.74 z" />
    </g>
  </g>
</svg>
