<?xml version="1.0" encoding="UTF-8" standalone="no"?>
<svg
   xmlns:dc="http://purl.org/dc/elements/1.1/"
   xmlns:cc="http://creativecommons.org/ns#"
   xmlns:rdf="http://www.w3.org/1999/02/22-rdf-syntax-ns#"
   xmlns:svg="http://www.w3.org/2000/svg"
   xmlns="http://www.w3.org/2000/svg"
   id="svg16"
   width="800px"
   version="1.1"
   height="200px">
  <metadata
     id="metadata20">
    <rdf:RDF>
      <cc:Work
         rdf:about="">
        <dc:format>image/svg+xml</dc:format>
        <dc:type
           rdf:resource="http://purl.org/dc/dcmitype/StillImage" />
      </cc:Work>
    </rdf:RDF>
  </metadata>
  <defs
     id="defs4">
    <style
       id="style2"
       type="text/css"><![CDATA[    
     @font-face {font-family:Bould Light;
     src: url('/Users/francesco/Repos/write-logos/src/fonts/Fonts_E_TEMPORANEA/Bould-Light.otf');}
     @font-face {font-family:Astral Wave;
     src: url('/Users/francesco/Repos/write-logos/src/fonts/Fonts_X/AstralWave.ttf');}
     ]]></style>
  </defs>
  <g
     id="g14"
     style="font-size:60px">
    <g
       style="text-anchor:middle"
       id="text12"
       aria-label="EXTEMPORANEA">
      <path
         id="path22"
         style="font-family:'Bould Light';letter-spacing:0.075em"
         d="m 154.19453,100 h 21.9 v -3.78 h -17.82 V 80.44 h 16.5 v -3.78 h -16.5 V 61.78 h 17.82 V 58 h -21.9 z" />
      <path
         id="path24"
         style="font-family:'Astral Wave';letter-spacing:0.05em"
         d="m 227.10156,46.679687 h 2.05078 q 5.36133,2.958985 6.15235,4.775391 v 2.050781 q 0,2.050782 -6.15235,2.050782 l 1.37696,2.050781 v 2.050781 q 0,2.050781 -6.15235,2.753906 l 0.67383,1.347657 q 0,1.816406 -3.42773,3.427734 -1.69922,0 -8.87696,-1.376953 5.47852,3.925781 5.47852,4.804687 v 2.050782 q 0,2.050781 -5.47852,2.724609 v 0.673828 q 15.0293,6.621094 15.0293,11.630859 0,9.375 3.42773,11.63086 v 1.347658 q 0,0.99609 -2.05078,2.05078 h -0.67382 q -6.85547,0 -6.85547,-11.601563 0,-3.427735 -0.67383,-3.427735 -18.45703,-10.253906 -18.45703,-13.68164 v -0.673828 q 4.77539,-2.753907 4.77539,-3.427735 -12.97852,-6.533203 -14.35547,-9.550781 l 0.67383,-3.427734 q -3.22266,0 -6.15235,-5.478516 0.70313,-2.724609 4.10157,-2.724609 15.41015,10.927734 21.88476,10.927734 v -0.673828 q 0,-1.611328 4.80469,-2.050781 l -2.05078,-2.72461 q 0,-4.101562 4.10156,-4.101562 h 4.77539 q 0.17578,-3.427735 2.05078,-3.427735 z m -27.36328,32.8125 h 0.70313 q 9.55078,2.607422 9.55078,6.826172 0,2.314453 -10.25391,5.478516 v 0.673828 q 3.13477,1.347656 3.42774,2.753906 v 2.050782 q 0,2.548828 -17.08008,4.101559 l -1.37696,-2.050778 v -1.376953 q 0,-1.875 6.82618,-3.427735 v -0.673828 q -1.69922,0 -2.05079,-2.724609 0,-2.841797 10.25391,-5.478516 l -2.05078,-3.427734 q 1.02539,-2.72461 2.05078,-2.72461 z" />
      <path
         id="path26"
         style="font-family:'Bould Light';letter-spacing:0.075em"
         d="m 253.96328,100 h 4.08 V 61.78 h 11.94 V 58 h -28.02 v 3.78 h 12 z" />
      <path
         id="path28"
         style="font-family:'Bould Light';letter-spacing:0.075em"
         d="m 284.43672,100 h 21.9 v -3.78 h -17.82 V 80.44 h 16.5 v -3.78 h -16.5 V 61.78 h 17.82 V 58 h -21.9 z" />
      <path
         id="path30"
         style="font-family:'Bould Light';letter-spacing:0.075em"
         d="m 321.33203,100 h 3.96 l 0.96,-35.64 h 0.3 l 11.16,30.24 h 5.58 l 11.16,-30.24 h 0.3 l 0.9,35.64 h 4.02 l -1.38,-42 h -5.46 l -12.3,33.24 -12.36,-33.24 h -5.52 z" />
      <path
         id="path32"
         style="font-family:'Bould Light';letter-spacing:0.075em"
         d="m 376.40547,100 h 4.08 V 84.34 h 8.46 c 8.52,0 13.08,-5.34 13.08,-13.14 0,-8.28 -4.92,-13.2 -13.08,-13.2 h -12.54 z m 4.08,-19.44 V 61.78 h 8.34 c 6.6,0 8.94,3.96 8.94,9.42 0,5.34 -2.34,9.36 -8.94,9.36 z" />
      <path
         id="path34"
         style="font-family:'Bould Light';letter-spacing:0.075em"
         d="m 429.97328,57.52 c -11.04,0 -15.36,8.34 -15.36,21.42 0,13.2 4.32,21.54 15.36,21.54 10.98,0 15.36,-8.34 15.36,-21.54 0,-13.08 -4.38,-21.42 -15.36,-21.42 z m 0,39.18 c -8.4,0 -11.1,-6.9 -11.1,-17.76 0,-10.74 2.7,-17.64 11.1,-17.64 8.34,0 11.04,6.9 11.04,17.64 0,10.86 -2.7,17.76 -11.04,17.76 z" />
      <path
         id="path36"
         style="font-family:'Bould Light';letter-spacing:0.075em"
         d="m 487.76266,100 -9.06,-17.46 c 5.1,-1.62 7.92,-5.82 7.92,-11.94 0,-8.28 -5.22,-12.6 -13.2,-12.6 h -12.9 v 42 h 4.08 V 83.32 h 8.82 c 0.42,0 0.84,0 1.26,-0.06 l 8.4,16.74 z m -14.7,-20.52 h -8.46 v -17.7 h 8.46 c 6.36,0 9.24,3.3 9.24,8.82 0,5.64 -2.88,8.88 -9.24,8.88 z" />
      <path
         id="path38"
         style="font-family:'Bould Light';letter-spacing:0.075em"
         d="m 524.20516,100 h 4.26 l -11.7,-42 h -7.44 l -11.64,42 h 4.14 l 3,-10.98 h 16.38 z m -18.3,-14.82 6.24,-22.8 h 1.8 l 6.18,22.74 z" />
      <path
         id="path40"
         style="font-family:'Bould Light';letter-spacing:0.075em"
         d="m 541.59297,100 h 3.9 V 66.76 h 0.3 l 19.14,33.24 h 3.78 V 58 h -3.9 v 33.66 h -0.3 L 544.89297,58 h -3.3 z" />
      <path
         id="path42"
         style="font-family:'Bould Light';letter-spacing:0.075em"
         d="m 585.70234,100 h 21.9 v -3.78 h -17.82 V 80.44 h 16.5 v -3.78 h -16.5 V 61.78 h 17.82 V 58 h -21.9 z" />
      <path
         id="path44"
         style="font-family:'Bould Light';letter-spacing:0.075em"
         d="m 645.51766,100 h 4.26 l -11.7,-42 h -7.44 l -11.64,42 h 4.14 l 3,-10.98 h 16.38 z m -18.3,-14.82 6.24,-22.8 h 1.8 l 6.18,22.74 z" />
    </g>
  </g>
</svg>
