<?xml version="1.0" encoding="UTF-8" standalone="no"?>
<svg
   xmlns:dc="http://purl.org/dc/elements/1.1/"
   xmlns:cc="http://creativecommons.org/ns#"
   xmlns:rdf="http://www.w3.org/1999/02/22-rdf-syntax-ns#"
   xmlns:svg="http://www.w3.org/2000/svg"
   xmlns="http://www.w3.org/2000/svg"
   id="svg16"
   width="800px"
   version="1.1"
   height="200px">
  <metadata
     id="metadata20">
    <rdf:RDF>
      <cc:Work
         rdf:about="">
        <dc:format>image/svg+xml</dc:format>
        <dc:type
           rdf:resource="http://purl.org/dc/dcmitype/StillImage" />
      </cc:Work>
    </rdf:RDF>
  </metadata>
  <defs
     id="defs4">
    <style
       id="style2"
       type="text/css"><![CDATA[    
     @font-face {font-family:Bould Light;
     src: url('/Users/francesco/Repos/write-logos/src/fonts/Fonts_E_TEMPORANEA/Bould-Light.otf');}
     @font-face {font-family:Iceberg;
     src: url('/Users/francesco/Repos/write-logos/src/fonts/Fonts_X/Iceberg-Regular.ttf');}
     ]]></style>
  </defs>
  <g
     id="g14"
     style="font-size:60px">
    <g
       style="text-anchor:middle"
       id="text12"
       aria-label="EXTEMPORANEA">
      <path
         id="path22"
         style="font-family:'Bould Light';letter-spacing:0.075em"
         d="m 163.04219,100 h 21.9 v -3.78 h -17.82 V 80.44 h 16.5 v -3.78 h -16.5 V 61.78 h 17.82 V 58 h -21.9 z" />
      <path
         id="path24"
         style="font-family:Iceberg;letter-spacing:0.05em"
         d="m 223.2175,100 h -5.94 V 89.98 l -6.9,-9.96 h -0.72 l -6.48,9.96 V 100 h -5.88 V 88.54 l 8.88,-12.6 -8.88,-12 v -5.4 h 5.88 v 4.14 l 6.96,9.84 h 0.72 l 6.42,-9.84 v -4.14 h 5.94 v 5.4 l -8.82,12 8.76,12.6 z" />
      <path
         id="path26"
         style="font-family:'Bould Light';letter-spacing:0.075em"
         d="m 245.11562,100 h 4.08 V 61.78 h 11.94 V 58 h -28.02 v 3.78 h 12 z" />
      <path
         id="path28"
         style="font-family:'Bould Light';letter-spacing:0.075em"
         d="m 275.58906,100 h 21.9 v -3.78 h -17.82 V 80.44 h 16.5 v -3.78 h -16.5 V 61.78 h 17.82 V 58 h -21.9 z" />
      <path
         id="path30"
         style="font-family:'Bould Light';letter-spacing:0.075em"
         d="m 312.48437,100 h 3.96 l 0.96001,-35.64 h 0.3 l 11.15999,30.24 h 5.58 l 11.16,-30.24 h 0.30001 l 0.89999,35.64 h 4.02 l -1.38,-42 h -5.46 l -12.3,33.24 -12.36,-33.24 h -5.52 z" />
      <path
         id="path32"
         style="font-family:'Bould Light';letter-spacing:0.075em"
         d="m 367.55781,100 h 4.08 V 84.34 h 8.46 c 8.52,0 13.08,-5.34 13.08,-13.14 0,-8.28 -4.92,-13.2 -13.08,-13.2 h -12.54 z m 4.08,-19.44 V 61.78 h 8.34 c 6.6,0 8.94,3.96 8.94,9.42 0,5.34 -2.34,9.36 -8.94,9.36 z" />
      <path
         id="path34"
         style="font-family:'Bould Light';letter-spacing:0.075em"
         d="m 421.12563,57.52 c -11.04001,0 -15.36001,8.34 -15.36001,21.42 0,13.2 4.32,21.54 15.36001,21.54 10.97999,0 15.36,-8.34 15.36,-21.54 0,-13.08 -4.38001,-21.42 -15.36,-21.42 z m 0,39.18 c -8.40001,0 -11.10001,-6.9 -11.10001,-17.76 0,-10.74 2.7,-17.64 11.10001,-17.64 8.33999,0 11.03999,6.9 11.03999,17.64 0,10.86 -2.7,17.76 -11.03999,17.76 z" />
      <path
         id="path36"
         style="font-family:'Bould Light';letter-spacing:0.075em"
         d="m 478.915,100 -9.06,-17.46 c 5.1,-1.62 7.92,-5.82 7.92,-11.94 0,-8.28 -5.22,-12.6 -13.2,-12.6 h -12.9 v 42 h 4.08 V 83.32 h 8.82 c 0.42,0 0.84,0 1.26,-0.06 l 8.4,16.74 z m -14.7,-20.52 h -8.46 v -17.7 h 8.46 c 6.36,0 9.24,3.3 9.24,8.82 0,5.64 -2.88,8.88 -9.24,8.88 z" />
      <path
         id="path38"
         style="font-family:'Bould Light';letter-spacing:0.075em"
         d="m 515.3575,100 h 4.26 l -11.7,-42 h -7.44 l -11.64,42 h 4.14 l 3,-10.98 h 16.38 z m -18.3,-14.82 6.24,-22.8 h 1.8 l 6.18,22.74 z" />
      <path
         id="path40"
         style="font-family:'Bould Light';letter-spacing:0.075em"
         d="m 532.74531,100 h 3.9 V 66.76 h 0.3 l 19.14,33.24 h 3.78 V 58 h -3.9 v 33.66 h -0.3 L 536.04531,58 h -3.3 z" />
      <path
         id="path42"
         style="font-family:'Bould Light';letter-spacing:0.075em"
         d="m 576.85469,100 h 21.9 v -3.78 h -17.82 V 80.44 h 16.5 v -3.78 h -16.5 V 61.78 h 17.82 V 58 h -21.9 z" />
      <path
         id="path44"
         style="font-family:'Bould Light';letter-spacing:0.075em"
         d="m 636.67,100 h 4.26 l -11.7,-42 h -7.44 l -11.64,42 h 4.14 l 3,-10.98 h 16.38 z m -18.3,-14.82 6.24,-22.8 h 1.8 l 6.18,22.74 z" />
    </g>
  </g>
</svg>
