<?xml version="1.0" encoding="UTF-8" standalone="no"?>
<svg
   xmlns:dc="http://purl.org/dc/elements/1.1/"
   xmlns:cc="http://creativecommons.org/ns#"
   xmlns:rdf="http://www.w3.org/1999/02/22-rdf-syntax-ns#"
   xmlns:svg="http://www.w3.org/2000/svg"
   xmlns="http://www.w3.org/2000/svg"
   id="svg16"
   width="800px"
   version="1.1"
   height="200px">
  <metadata
     id="metadata20">
    <rdf:RDF>
      <cc:Work
         rdf:about="">
        <dc:format>image/svg+xml</dc:format>
        <dc:type
           rdf:resource="http://purl.org/dc/dcmitype/StillImage" />
      </cc:Work>
    </rdf:RDF>
  </metadata>
  <defs
     id="defs4">
    <style
       id="style2"
       type="text/css"><![CDATA[    
     @font-face {font-family:Bould SemiBold;
     src: url('/Users/francesco/Repos/write-logos/src/fonts/Fonts_E_TEMPORANEA/Bould-SemiBold.otf');}
     @font-face {font-family:Akronim;
     src: url('/Users/francesco/Repos/write-logos/src/fonts/Fonts_X/Akronim-Regular.ttf');}
     ]]></style>
  </defs>
  <g
     id="g14"
     style="font-size:60px">
    <g
       style="text-anchor:middle"
       id="text12"
       aria-label="EXTEMPORANEA">
      <path
         id="path22"
         style="font-family:'Bould SemiBold';letter-spacing:0.075em"
         d="m 161.59375,100 h 24.36 v -7.02 h -16.26 V 82.12 h 14.94 v -7.08 h -14.94 v -9.9 h 16.26 V 58 h -24.36 z" />
      <path
         id="path24"
         style="font-family:Akronim;letter-spacing:0.05em"
         d="m 196.05156,99.28 q -0.12,0.54 -0.18,0.54 -0.12,-0.06 -0.18,-0.24 0,-0.18 0,-0.3 -0.18,-2.76 0.36,-5.34 0.54,-2.64 1.62,-5.16 1.14,-2.52 2.64,-4.86 1.56,-2.4 3.3,-4.62 l 1.32,-1.68 q -2.46,-5.52 -4.86,-10.68 -2.34,-5.22 -5.16,-9 -0.18,-0.24 -0.18,-0.36 0.06,-0.12 0.24,0 0.18,0.12 0.3,0.18 1.86,1.5 3.36,3.54 1.56,2.04 2.88,4.44 1.32,2.34 2.46,4.98 1.14,2.58 2.28,5.22 l 1.02,-1.26 q -0.3,-0.6 -0.96,-1.86 -0.66,-1.32 -1.56,-2.94 -0.9,-1.62 -1.92,-3.42 -0.96,-1.8 -1.98,-3.36 -1.02,-1.62 -1.92,-2.88 -0.9,-1.26 -1.56,-1.8 -0.48,-0.36 -0.3,-0.48 0.12,-0.06 0.54,0.06 1.2,0.48 2.52,1.68 1.38,1.2 2.58,2.7 1.26,1.5 2.28,3.12 1.02,1.62 1.62,2.94 l 2.1,4.5 0.66,-0.72 q -1.2,-2.7 -2.58,-5.46 -1.38,-2.76 -3.3,-5.4 -0.18,-0.3 -0.24,-0.3 -0.06,0 0.06,-0.12 0,0 0.48,0.24 1.68,1.14 3.48,3.78 1.8,2.58 3.42,5.7 3.06,-3.6 6.12,-7.44 3.06,-3.9 4.98,-7.38 0.06,-0.12 0.12,-0.24 0.06,-0.12 0.24,0 0.06,0.06 0,0.24 0,0.18 0,0.24 -0.9,3.3 -2.88,6.54 -1.98,3.18 -4.44,6.36 -2.46,3.12 -5.16,6.24 -2.7,3.06 -5.04,6.12 -1.44,1.92 -2.88,4.14 -1.38,2.16 -2.52,4.5 -1.14,2.28 -1.98,4.68 -0.84,2.34 -1.2,4.62 z m 27.72,0.48 q 0.36,0.18 0.36,0.24 0,0 -0.42,0 -2.4,-0.36 -4.5,-1.56 -2.04,-1.26 -3.84,-3.06 -1.74,-1.8 -3.3,-4.02 -1.5,-2.28 -2.76,-4.62 -1.92,2.28 -4.02,4.5 -2.1,2.16 -3.78,3.72 -0.3,0.3 -0.54,0.54 -0.18,0.24 -0.3,0.18 -0.12,-0.06 0.06,-0.42 0.24,-0.36 0.36,-0.66 1.14,-2.22 2.58,-4.38 1.5,-2.16 3.12,-4.2 1.68,-2.1 3.42,-4.14 1.74,-2.04 3.42,-4.08 2.1,-2.58 4.56,-5.76 2.46,-3.18 4.26,-6.54 0.18,-0.42 0.3,-0.42 0.12,0 0.06,0.3 -0.06,0.24 -0.06,0.42 -0.12,1.26 -0.9,2.94 -0.78,1.68 -1.92,3.54 -1.08,1.8 -2.4,3.72 -1.26,1.86 -2.46,3.48 l 0.54,1.2 q 1.44,3.18 2.94,6.6 1.5,3.42 2.52,6.12 0.12,0.3 0.18,0.66 0.12,0.3 0,0.36 -0.06,0 -0.3,-0.24 -0.24,-0.3 -0.48,-0.6 -2.1,-2.82 -3.78,-5.88 -1.62,-3.06 -3.18,-6.3 -0.72,0.9 -1.44,1.86 -0.72,0.9 -1.44,1.86 1.14,2.22 2.58,4.44 1.44,2.16 3.12,4.14 1.68,1.92 3.54,3.54 1.92,1.56 3.9,2.52 z m -6.42,-28.2 q -2.34,3 -5.16,6.06 -2.82,3 -5.52,5.7 -0.12,0.06 -0.48,0.48 -0.36,0.36 -0.48,0.24 -0.12,-0.06 0.06,-0.6 0.24,-0.54 0.42,-0.78 0.42,-0.72 1.2,-1.8 0.78,-1.14 1.62,-2.28 0.9,-1.2 1.68,-2.28 0.84,-1.14 1.38,-1.8 1.38,-1.8 3,-4.02 1.68,-2.22 3.12,-4.44 1.5,-2.22 2.64,-4.2 1.2,-1.98 1.62,-3.18 0.18,-0.66 0.24,-0.66 0.06,0 0.12,0.24 0.12,0.18 0.12,0.48 0.06,1.32 -0.48,3.12 -0.54,1.74 -1.44,3.54 -0.84,1.8 -1.86,3.48 -0.96,1.62 -1.8,2.7 z m -18.06,24.36 q -0.48,1.2 -0.9,2.22 -0.36,1.02 -0.66,1.86 -0.06,0.12 -0.24,0.3 -0.12,0.18 -0.24,-0.3 -0.18,-1.02 0,-2.22 0.18,-1.2 1.02,-3.12 0.3,-0.72 0.78,-1.62 0.48,-0.96 1.02,-1.74 0.54,-0.84 0.96,-1.38 0.48,-0.54 0.72,-0.36 0,0.06 -0.12,0.42 -0.12,0.36 -0.3,0.78 -0.12,0.42 -0.3,0.84 -0.12,0.36 -0.18,0.48 -0.42,1.14 -0.78,1.98 -0.36,0.84 -0.78,1.86 z m 22.02,-0.12 q 0.96,0.9 1.86,1.68 0.96,0.72 1.98,1.38 0.12,0.12 0.3,0.3 0.18,0.12 0.12,0.18 -0.12,0.12 -0.36,0.12 -0.18,-0.06 -0.48,-0.12 -0.6,-0.18 -1.08,-0.3 -0.48,-0.12 -1.02,-0.36 -0.48,-0.3 -1.08,-0.72 -0.54,-0.42 -1.26,-1.14 -0.6,-0.6 -1.38,-1.5 -0.72,-0.96 -1.38,-1.86 -0.6,-0.96 -0.96,-1.68 -0.36,-0.72 -0.18,-0.84 0.06,-0.06 0.36,0.18 0.3,0.24 0.6,0.6 0.3,0.3 0.54,0.6 0.3,0.3 0.42,0.42 0.84,0.9 1.56,1.62 0.72,0.72 1.44,1.44 z" />
      <path
         id="path26"
         style="font-family:'Bould SemiBold';letter-spacing:0.075em"
         d="m 239.68,100 h 8.1 V 65.14 H 259.6 V 58 h -31.8 v 7.14 h 11.88 z" />
      <path
         id="path28"
         style="font-family:'Bould SemiBold';letter-spacing:0.075em"
         d="m 270.39062,100 h 24.36001 v -7.02 h -16.26 V 82.12 h 14.94 v -7.08 h -14.94 v -9.9 h 16.26 V 58 h -24.36001 z" />
      <path
         id="path30"
         style="font-family:'Bould SemiBold';letter-spacing:0.075em"
         d="m 306.58844,100 h 7.8 l 0.72,-26.22 h 0.3 l 7.2,20.82 h 9.54 l 7.14,-20.82 h 0.3 l 0.72,26.22 h 7.86 l -1.38,-42 h -9.18 l -10.2,28.68 -10.26,-28.68 h -9.18 z" />
      <path
         id="path32"
         style="font-family:'Bould SemiBold';letter-spacing:0.075em"
         d="m 361.53906,100 h 8.1 V 85.6 h 6.78 c 9,0 14.04,-6.12 14.04,-13.86 0,-8.28 -5.16,-13.74 -14.04,-13.74 h -14.88 z m 8.1,-21.6 V 65.14 h 6.3 c 4.32,0 6.18,2.76 6.18,6.6 0,3.84 -1.86,6.66 -6.18,6.66 z" />
      <path
         id="path34"
         style="font-family:'Bould SemiBold';letter-spacing:0.075em"
         d="m 417.26688,57.52 c -11.22001,0 -17.28001,7.5 -17.28001,21.42 0,14.04 6.06,21.54 17.28001,21.54 11.21999,0 17.33999,-7.5 17.33999,-21.54 0,-13.92 -6.12,-21.42 -17.33999,-21.42 z m 0,35.64 c -6.12,0 -8.94001,-4.62 -8.94001,-14.22 0,-9.48 2.82001,-14.1 8.94001,-14.1 6.17999,0 9,4.62 9,14.1 0,9.6 -2.82001,14.22 -9,14.22 z" />
      <path
         id="path36"
         style="font-family:'Bould SemiBold';letter-spacing:0.075em"
         d="m 468.43375,100 h 8.82 l -8.64,-16.8 c 4.8,-1.98 7.44,-6.36 7.44,-12.24 0,-8.34 -5.4,-12.96 -13.56,-12.96 h -15.9 v 42 h 8.1 V 84.28 h 6.36 z m -13.74,-34.86 h 7.08 c 4.02,0 6,2.22 6,5.82 0,3.72 -1.98,6.12 -6,6.12 h -7.08 z" />
      <path
         id="path38"
         style="font-family:'Bould SemiBold';letter-spacing:0.075em"
         d="m 510.81625,100 h 8.46 l -11.16,-42 h -12.9 l -11.04,42 h 8.4 l 2.28,-9.6 h 13.68 z m -14.22,-16.74 4.2,-17.52 h 1.8 l 4.2,17.46 z" />
      <path
         id="path40"
         style="font-family:'Bould SemiBold';letter-spacing:0.075em"
         d="m 529.30469,100 h 7.8 V 73.9 h 0.3 l 15.66,26.1 h 7.44 V 58 h -7.8 v 26.64 h -0.3 l -16.2,-26.64 h -6.9 z" />
      <path
         id="path42"
         style="font-family:'Bould SemiBold';letter-spacing:0.075em"
         d="m 574,100 h 24.36 V 92.98 H 582.1 V 82.12 h 14.94 V 75.04 H 582.1 v -9.9 h 16.26 V 58 H 574 Z" />
      <path
         id="path44"
         style="font-family:'Bould SemiBold';letter-spacing:0.075em"
         d="m 633.41781,100 h 8.46 l -11.16,-42 h -12.9 l -11.04,42 h 8.4 l 2.28,-9.6 h 13.68 z m -14.22,-16.74 4.2,-17.52 h 1.8 l 4.2,17.46 z" />
    </g>
  </g>
</svg>
