<?xml version="1.0" encoding="UTF-8" standalone="no"?>
<svg
   xmlns:dc="http://purl.org/dc/elements/1.1/"
   xmlns:cc="http://creativecommons.org/ns#"
   xmlns:rdf="http://www.w3.org/1999/02/22-rdf-syntax-ns#"
   xmlns:svg="http://www.w3.org/2000/svg"
   xmlns="http://www.w3.org/2000/svg"
   id="svg16"
   width="800px"
   version="1.1"
   height="200px">
  <metadata
     id="metadata20">
    <rdf:RDF>
      <cc:Work
         rdf:about="">
        <dc:format>image/svg+xml</dc:format>
        <dc:type
           rdf:resource="http://purl.org/dc/dcmitype/StillImage" />
      </cc:Work>
    </rdf:RDF>
  </metadata>
  <defs
     id="defs4">
    <style
       id="style2"
       type="text/css"><![CDATA[    
     @font-face {font-family:Bould SemiBold;
     src: url('/Users/francesco/Repos/write-logos/src/fonts/Fonts_E_TEMPORANEA/Bould-SemiBold.otf');}
     @font-face {font-family:Qualy;
     src: url('/Users/francesco/Repos/write-logos/src/fonts/Fonts_X/QualyBold.ttf');}
     ]]></style>
  </defs>
  <g
     id="g14"
     style="font-size:60px">
    <g
       style="text-anchor:middle"
       id="text12"
       aria-label="EXTEMPORANEA">
      <path
         id="path22"
         style="font-family:'Bould SemiBold';letter-spacing:0.075em"
         d="m 155.32422,100 h 24.36 v -7.02 h -16.26 V 82.12 h 14.94 v -7.08 h -14.94 v -9.9 h 16.26 V 58 h -24.36 z" />
      <path
         id="path24"
         style="font-family:Qualy;letter-spacing:0.05em"
         d="m 224.58203,100 h -9.02344 L 205.94922,85.292969 196.10547,100 h -9.02344 L 201.23242,78.378906 187.87305,57.988281 h 9.02343 l 13.56446,20.390625 q 3.92578,6.035156 6.29883,9.697266 2.40234,3.662109 3.31054,5.039062 z m -10.81055,-26.71875 -4.6875,-6.855469 5.6836,-8.4375 h 9.05273 z" />
      <path
         id="path26"
         style="font-family:'Bould SemiBold';letter-spacing:0.075em"
         d="m 245.94953,100 h 8.1 V 65.14 h 11.82 V 58 h -31.8 v 7.14 h 11.88 z" />
      <path
         id="path28"
         style="font-family:'Bould SemiBold';letter-spacing:0.075em"
         d="m 276.66016,100 h 24.36 v -7.02 h -16.26 V 82.12 h 14.94 v -7.08 h -14.94 v -9.9 h 16.26 V 58 h -24.36 z" />
      <path
         id="path30"
         style="font-family:'Bould SemiBold';letter-spacing:0.075em"
         d="m 312.85797,100 h 7.8 l 0.72,-26.22 h 0.3 l 7.2,20.82 h 9.54 l 7.14,-20.82 h 0.3 l 0.72,26.22 h 7.86 l -1.38,-42 h -9.18 l -10.2,28.68 -10.26,-28.68 h -9.18 z" />
      <path
         id="path32"
         style="font-family:'Bould SemiBold';letter-spacing:0.075em"
         d="m 367.80859,100 h 8.1 V 85.6 h 6.78 c 9,0 14.04,-6.12 14.04,-13.86 0,-8.28 -5.16,-13.74 -14.04,-13.74 h -14.88 z m 8.1,-21.6 V 65.14 h 6.3 c 4.32,0 6.18,2.76 6.18,6.6 0,3.84 -1.86,6.66 -6.18,6.66 z" />
      <path
         id="path34"
         style="font-family:'Bould SemiBold';letter-spacing:0.075em"
         d="m 423.53641,57.52 c -11.22,0 -17.28,7.5 -17.28,21.42 0,14.04 6.06,21.54 17.28,21.54 11.22,0 17.34,-7.5 17.34,-21.54 0,-13.92 -6.12,-21.42 -17.34,-21.42 z m 0,35.64 c -6.12,0 -8.94,-4.62 -8.94,-14.22 0,-9.48 2.82,-14.1 8.94,-14.1 6.18,0 9,4.62 9,14.1 0,9.6 -2.82,14.22 -9,14.22 z" />
      <path
         id="path36"
         style="font-family:'Bould SemiBold';letter-spacing:0.075em"
         d="m 474.70328,100 h 8.82 l -8.64,-16.8 c 4.8,-1.98 7.44,-6.36 7.44,-12.24 0,-8.34 -5.4,-12.96 -13.56,-12.96 h -15.9 v 42 h 8.1 V 84.28 h 6.36 z m -13.74,-34.86 h 7.08 c 4.02,0 6,2.22 6,5.82 0,3.72 -1.98,6.12 -6,6.12 h -7.08 z" />
      <path
         id="path38"
         style="font-family:'Bould SemiBold';letter-spacing:0.075em"
         d="m 517.08578,100 h 8.46 l -11.16,-42 h -12.9 l -11.04,42 h 8.4 l 2.28,-9.6 h 13.68 z m -14.22,-16.74 4.2,-17.52 h 1.8 l 4.2,17.46 z" />
      <path
         id="path40"
         style="font-family:'Bould SemiBold';letter-spacing:0.075em"
         d="m 535.57422,100 h 7.8 V 73.9 h 0.3 l 15.66,26.1 h 7.44 V 58 h -7.8 v 26.64 h -0.3 l -16.2,-26.64 h -6.9 z" />
      <path
         id="path42"
         style="font-family:'Bould SemiBold';letter-spacing:0.075em"
         d="m 580.26953,100 h 24.36 v -7.02 h -16.26 V 82.12 h 14.94 v -7.08 h -14.94 v -9.9 h 16.26 V 58 h -24.36 z" />
      <path
         id="path44"
         style="font-family:'Bould SemiBold';letter-spacing:0.075em"
         d="m 639.68734,100 h 8.46 l -11.16,-42 h -12.9 l -11.04,42 h 8.4 l 2.28,-9.6 h 13.68 z m -14.22,-16.74 4.2,-17.52 h 1.8 l 4.2,17.46 z" />
    </g>
  </g>
</svg>
