<?xml version="1.0" encoding="UTF-8" standalone="no"?>
<svg
   xmlns:dc="http://purl.org/dc/elements/1.1/"
   xmlns:cc="http://creativecommons.org/ns#"
   xmlns:rdf="http://www.w3.org/1999/02/22-rdf-syntax-ns#"
   xmlns:svg="http://www.w3.org/2000/svg"
   xmlns="http://www.w3.org/2000/svg"
   id="svg16"
   width="800px"
   version="1.1"
   height="200px">
  <metadata
     id="metadata20">
    <rdf:RDF>
      <cc:Work
         rdf:about="">
        <dc:format>image/svg+xml</dc:format>
        <dc:type
           rdf:resource="http://purl.org/dc/dcmitype/StillImage" />
      </cc:Work>
    </rdf:RDF>
  </metadata>
  <defs
     id="defs4">
    <style
       id="style2"
       type="text/css"><![CDATA[    
     @font-face {font-family:Bould Light;
     src: url('/Users/francesco/Repos/write-logos/src/fonts/Fonts_E_TEMPORANEA/Bould-Light.otf');}
     @font-face {font-family:Dr Eye;
     src: url('/Users/francesco/Repos/write-logos/src/fonts/Fonts_X/DrEye.otf');}
     ]]></style>
  </defs>
  <g
     id="g14"
     style="font-size:60px">
    <g
       style="text-anchor:middle"
       id="text12"
       aria-label="EXTEMPORANEA">
      <path
         id="path22"
         style="font-family:'Bould Light';letter-spacing:0.075em"
         d="m 157.94453,100 h 21.9 v -3.78 h -17.82 V 80.44 h 16.5 v -3.78 h -16.5 V 61.78 h 17.82 V 58 h -21.9 z" />
      <path
         id="path24"
         style="font-family:'Dr Eye';letter-spacing:0.05em"
         d="m 187.75984,55.78 c 0.18,-0.24 2.1,-1.08 0,-1.2 -0.66,-0.06 -0.24,0.96 0,1.2 z m 0.9,8.94 c -0.12,0 -0.6,0.06 -0.72,0 -0.06,0.18 -0.42,0.12 -0.6,0.18 0.06,0.12 0,0.66 0,0.78 0.18,0 0.36,0.12 0.6,0.18 -0.42,0.12 0.84,-0.18 0.54,-0.18 0.42,0.24 0.18,-0.96 0.18,-0.96 z m 37.74,28.5 c 0.78,-3.9 -2.28,-3.06 -3.9,-4.08 -0.3,-0.12 -0.06,-0.36 -0.3,-0.6 -0.48,-0.84 -0.36,-2.28 -0.9,-3.18 -0.9,-1.5 -3.18,-1.2 -4.08,-2.4 -0.78,-1.02 -0.42,-3 -1.38,-3.78 l -0.18,-0.18 c -1.26,-1.02 -2.34,-0.42 -3,-2.1 0,-0.06 -0.42,-0.9 -0.36,-0.9 0.48,-0.36 0.36,-1.32 0.78,-1.68 0.78,-0.78 2.52,-0.66 3.18,-1.56 l 0.42,-0.36 c 0.42,-1.44 0,-2.16 0.72,-3.18 0.84,-1.26 3.24,-1.02 4.08,-2.46 0.36,-0.66 0.24,-1.98 0.54,-2.76 0.66,-1.8 5.46,-1.8 3.42,-5.1 l -0.18,-0.36 c -0.72,-0.6 -1.98,-0.48 -2.76,-0.96 -1.44,-0.9 -0.54,-3.48 -2.88,-4.14 -0.12,0 -0.36,0 -0.54,0 -2.1,0.12 -2.04,2.34 -3.24,3.42 -0.96,0.78 -1.86,0.48 -2.94,1.14 -1.56,1.02 -0.9,2.7 -1.68,4.32 l -0.6,0.54 c -1.44,0.78 -2.82,0.42 -3.96,1.5 -0.6,0.54 -0.42,2.16 -1.26,2.4 -1.02,0.3 -2.28,-0.12 -2.7,-0.54 -0.3,-0.42 -0.6,-1.74 -0.36,-2.58 0.3,-1.14 1.86,-0.48 2.28,-1.86 0.12,-0.48 0.18,-0.84 0.18,-1.2 0,-0.06 -0.06,-0.36 -0.18,-0.72 -0.06,-0.06 -0.3,-0.54 -0.36,-0.6 -0.84,-0.72 -2.34,-0.48 -3.42,-0.18 0,0.3 0.12,1.14 0,1.32 -0.3,0.54 -1.5,0.48 -2.4,0.54 -1.14,-1.68 -1.26,-2.7 1.14,-3.36 0.3,-1.14 0.54,-3.66 -1.14,-3.96 -2.58,-0.48 -2.28,2.28 -3.6,3.06 -1.08,0.6 -2.7,0.18 -3.9,0.9 -1.08,0.66 -0.78,5.16 0.18,5.64 0.78,0.42 1.56,0.12 2.22,0.6 1.32,0.78 1.38,2.4 1.14,4.32 -1.68,0.66 -2.04,0.72 -2.22,2.94 1.38,0.66 1.26,0.78 2.58,0 0.12,-0.06 0.78,-0.12 0.78,-0.18 0.18,-0.3 0,-1.08 0,-1.44 0.06,0 0.54,0 0.54,0 0.42,-0.12 0.48,-0.3 0.96,-0.24 2.28,0.18 2.46,2.04 1.86,3.96 -0.72,0.18 -1.56,0.3 -1.86,0.96 -0.36,0.66 -0.18,1.92 0,2.58 0.6,2.28 2.4,1.56 2.64,3 0.54,3.24 -2.58,3.36 -4.32,3.24 -0.42,1.32 -0.3,3.84 -1.14,4.86 -0.78,1.02 -3.42,0.84 -3.9,2.04 -0.6,1.62 -0.12,3.24 -1.38,4.14 -1.26,0.96 -1.86,-0.06 -2.58,1.86 -0.3,0.78 -0.48,1.44 0,2.22 0.06,0.12 0.42,0.54 0.54,0.6 0,0.06 0.18,0.18 0.18,0.18 0.84,0.6 2.04,0.3 3,0.72 1.08,0.54 0.72,3.06 1.92,3.6 0.42,0.24 1.5,0 1.5,0 0.36,-0.3 0.9,-0.36 1.08,-0.72 0.48,-0.9 0.18,-2.34 0.96,-2.88 0.66,-0.42 1.44,-0.12 2.46,-0.36 2.46,-0.54 1.86,-3.42 2.58,-5.76 1.38,0.06 3.9,0.24 4.38,-1.56 0.24,-1.08 -0.24,-2.1 -0.42,-2.76 -2.4,-0.6 -2.04,-1.32 -1.44,-3.42 1.02,-0.06 2.58,-0.12 2.94,0.9 0.06,0.36 -0.18,0.96 0,1.2 0.18,0.24 1.02,0.36 1.32,0.54 1.38,0.72 3.3,0.78 3.78,2.46 0.42,1.32 0.48,3.06 1.68,3.54 1.44,0.6 2.1,0 2.94,1.32 0.66,0.96 0.54,3.54 1.74,3.9 0.9,0.3 1.98,-0.06 2.76,0.18 2.46,0.66 1.98,3.24 4.74,3.24 0.84,-1.92 0.78,-3 -1.68,-3.42 -0.06,-0.3 0.12,-0.42 -0.18,-0.54 0,-1.86 0.12,-3.3 1.08,-4.08 0.84,-0.72 1.86,-0.42 2.1,-1.74 z m -31.92,-11.94 c -0.36,-0.6 -0.66,-0.54 -1.32,-0.84 -0.06,0.18 -0.6,0.3 -0.72,0.48 0.06,0.3 -0.12,0.72 0,1.08 0.36,1.08 3.96,1.56 2.04,-0.72 z m -6.54,4.8 c -0.78,0 -0.18,1.02 -0.18,1.02 0.3,-0.24 1.2,-0.96 0.18,-1.02 z m 41.82,11.46 c 0.6,-0.06 0.3,-1.14 -0.54,-1.08 -0.72,0.06 -0.24,1.14 0.54,1.08 z m -30.36,-6 c 0.9,0.36 1.62,2.52 -1.14,1.14 0,-0.36 0.18,-1.08 0.18,-1.14 0.3,0.12 0.6,-0.12 0.96,0 z" />
      <path
         id="path26"
         style="font-family:'Bould Light';letter-spacing:0.075em"
         d="m 250.21328,100 h 4.08 V 61.78 h 11.94 V 58 h -28.02 v 3.78 h 12 z" />
      <path
         id="path28"
         style="font-family:'Bould Light';letter-spacing:0.075em"
         d="m 280.68672,100 h 21.9 v -3.78 h -17.82 V 80.44 h 16.5 v -3.78 h -16.5 V 61.78 h 17.82 V 58 h -21.9 z" />
      <path
         id="path30"
         style="font-family:'Bould Light';letter-spacing:0.075em"
         d="m 317.58203,100 h 3.96 l 0.96,-35.64 h 0.3 l 11.16,30.24 h 5.58 l 11.16,-30.24 h 0.3 l 0.9,35.64 h 4.02 l -1.38,-42 h -5.46 l -12.3,33.24 -12.36,-33.24 h -5.52 z" />
      <path
         id="path32"
         style="font-family:'Bould Light';letter-spacing:0.075em"
         d="m 372.65547,100 h 4.08 V 84.34 h 8.46 c 8.52,0 13.08,-5.34 13.08,-13.14 0,-8.28 -4.92,-13.2 -13.08,-13.2 h -12.54 z m 4.08,-19.44 V 61.78 h 8.34 c 6.6,0 8.94,3.96 8.94,9.42 0,5.34 -2.34,9.36 -8.94,9.36 z" />
      <path
         id="path34"
         style="font-family:'Bould Light';letter-spacing:0.075em"
         d="m 426.22328,57.52 c -11.04,0 -15.36,8.34 -15.36,21.42 0,13.2 4.32,21.54 15.36,21.54 10.98,0 15.36,-8.34 15.36,-21.54 0,-13.08 -4.38,-21.42 -15.36,-21.42 z m 0,39.18 c -8.4,0 -11.1,-6.9 -11.1,-17.76 0,-10.74 2.7,-17.64 11.1,-17.64 8.34,0 11.04,6.9 11.04,17.64 0,10.86 -2.7,17.76 -11.04,17.76 z" />
      <path
         id="path36"
         style="font-family:'Bould Light';letter-spacing:0.075em"
         d="m 484.01266,100 -9.06,-17.46 c 5.1,-1.62 7.92,-5.82 7.92,-11.94 0,-8.28 -5.22,-12.6 -13.2,-12.6 h -12.9 v 42 h 4.08 V 83.32 h 8.82 c 0.42,0 0.84,0 1.26,-0.06 l 8.4,16.74 z m -14.7,-20.52 h -8.46 v -17.7 h 8.46 c 6.36,0 9.24,3.3 9.24,8.82 0,5.64 -2.88,8.88 -9.24,8.88 z" />
      <path
         id="path38"
         style="font-family:'Bould Light';letter-spacing:0.075em"
         d="m 520.45516,100 h 4.26 l -11.7,-42 h -7.44 l -11.64,42 h 4.14 l 3,-10.98 h 16.38 z m -18.3,-14.82 6.24,-22.8 h 1.8 l 6.18,22.74 z" />
      <path
         id="path40"
         style="font-family:'Bould Light';letter-spacing:0.075em"
         d="m 537.84297,100 h 3.9 V 66.76 h 0.3 l 19.14,33.24 h 3.78 V 58 h -3.9 v 33.66 h -0.3 L 541.14297,58 h -3.3 z" />
      <path
         id="path42"
         style="font-family:'Bould Light';letter-spacing:0.075em"
         d="m 581.95234,100 h 21.9 v -3.78 h -17.82 V 80.44 h 16.5 v -3.78 h -16.5 V 61.78 h 17.82 V 58 h -21.9 z" />
      <path
         id="path44"
         style="font-family:'Bould Light';letter-spacing:0.075em"
         d="m 641.76766,100 h 4.26 l -11.7,-42 h -7.44 l -11.64,42 h 4.14 l 3,-10.98 h 16.38 z m -18.3,-14.82 6.24,-22.8 h 1.8 l 6.18,22.74 z" />
    </g>
  </g>
</svg>
