<?xml version="1.0" encoding="UTF-8" standalone="no"?>
<svg
   xmlns:dc="http://purl.org/dc/elements/1.1/"
   xmlns:cc="http://creativecommons.org/ns#"
   xmlns:rdf="http://www.w3.org/1999/02/22-rdf-syntax-ns#"
   xmlns:svg="http://www.w3.org/2000/svg"
   xmlns="http://www.w3.org/2000/svg"
   id="svg16"
   width="800px"
   version="1.1"
   height="200px">
  <metadata
     id="metadata20">
    <rdf:RDF>
      <cc:Work
         rdf:about="">
        <dc:format>image/svg+xml</dc:format>
        <dc:type
           rdf:resource="http://purl.org/dc/dcmitype/StillImage" />
      </cc:Work>
    </rdf:RDF>
  </metadata>
  <defs
     id="defs4">
    <style
       id="style2"
       type="text/css"><![CDATA[    
     @font-face {font-family:Bould SemiBold;
     src: url('/Users/francesco/Repos/write-logos/src/fonts/Fonts_E_TEMPORANEA/Bould-SemiBold.otf');}
     @font-face {font-family:SomewhereInSpace;
     src: url('/Users/francesco/Repos/write-logos/src/fonts/Fonts_X/SOMWHEREINSPACE.ttf');}
     ]]></style>
  </defs>
  <g
     id="g14"
     style="font-size:60px">
    <g
       style="text-anchor:middle"
       id="text12"
       aria-label="EXTEMPORANEA">
      <path
         id="path22"
         style="font-family:'Bould SemiBold';letter-spacing:0.075em"
         d="m 157.08203,100 h 24.36 v -7.02 h -16.26 V 82.12 h 14.94 v -7.08 h -14.94 v -9.9 h 16.26 V 58 h -24.36 z" />
      <path
         id="path24"
         style="font-family:SomewhereInSpace;letter-spacing:0.05em"
         d="m 226.63984,108.4 q -2.4,-3.84 -6.9,-3.72 -1.44,0 -2.64,0.6 -0.3,0.06 -0.78,0.24 -0.36,-2.16 -1.26,-6.18 l -0.72,-1.26 q -1.32,-4.38 -3.78,-9.18 l -0.3,-0.3 q -0.84,0.84 -1.26,2.1 0.48,2.7 0.42,5.46 -0.12,5.28 -2.22,10.98 -0.84,2.28 -2.28,5.22 -0.42,0.42 -1.2,1.02 -0.18,0.06 -0.78,0.24 -1.98,0.54 -2.88,0.54 -2.82,0 -4.32,-1.14 -0.24,-0.18 -0.78,-0.66 -0.48,-0.48 -1.2,-1.74 0.24,-0.66 0.6,-2.04 3.24,-7.98 3,-16.08 l -0.12,-4.68 q -0.06,-2.88 -0.42,-4.62 -0.24,-1.32 -0.36,-2.22 -0.54,-0.84 -1.92,-3.06 -2.64,-4.38 -3.18,-7.32 -1.92,-6.24 -1.8,-10.86 0.06,-1.8 0.18,-3.9 0.06,-0.3 0.3,-0.96 1.14,3.24 4.38,4.26 2.1,0.66 4.5,0 1.26,0.9 2.04,3.36 0.18,0.42 1.02,3.96 0.12,0.96 0.42,2.82 0.42,0.72 1.8,3 l 0.42,-0.48 0.3,-0.42 q 0.12,-0.42 0.42,-1.2 0.66,-5.88 5.58,-17.28 4.26,-2.4 6.66,-2.46 1.02,-0.06 2.28,0.42 0.96,0.48 1.62,1.14 -6.6,9.84 -7.56,21.24 l 4.68,7.32 q 2.88,4.56 4.38,7.38 3.9,7.38 4.08,16.38 0,1.44 -0.24,3.3 -0.18,0.54 -0.18,0.78 z" />
      <path
         id="path26"
         style="font-family:'Bould SemiBold';letter-spacing:0.075em"
         d="m 244.19172,100 h 8.1 V 65.14 h 11.82 V 58 h -31.8 v 7.14 h 11.88 z" />
      <path
         id="path28"
         style="font-family:'Bould SemiBold';letter-spacing:0.075em"
         d="m 274.90234,100 h 24.36 v -7.02 h -16.26 V 82.12 h 14.94 v -7.08 h -14.94 v -9.9 h 16.26 V 58 h -24.36 z" />
      <path
         id="path30"
         style="font-family:'Bould SemiBold';letter-spacing:0.075em"
         d="m 311.10016,100 h 7.8 l 0.72,-26.22 h 0.3 l 7.2,20.82 h 9.54 l 7.14,-20.82 h 0.3 l 0.72,26.22 h 7.86 l -1.38,-42 h -9.18 l -10.2,28.68 -10.26,-28.68 h -9.18 z" />
      <path
         id="path32"
         style="font-family:'Bould SemiBold';letter-spacing:0.075em"
         d="m 366.05078,100 h 8.1 V 85.6 h 6.78 c 9,0 14.04,-6.12 14.04,-13.86 0,-8.28 -5.16,-13.74 -14.04,-13.74 h -14.88 z m 8.1,-21.6 V 65.14 h 6.3 c 4.32,0 6.18,2.76 6.18,6.6 0,3.84 -1.86,6.66 -6.18,6.66 z" />
      <path
         id="path34"
         style="font-family:'Bould SemiBold';letter-spacing:0.075em"
         d="m 421.77859,57.52 c -11.22,0 -17.28,7.5 -17.28,21.42 0,14.04 6.06,21.54 17.28,21.54 11.22,0 17.34,-7.5 17.34,-21.54 0,-13.92 -6.12,-21.42 -17.34,-21.42 z m 0,35.64 c -6.12,0 -8.94,-4.62 -8.94,-14.22 0,-9.48 2.82,-14.1 8.94,-14.1 6.18,0 9,4.62 9,14.1 0,9.6 -2.82,14.22 -9,14.22 z" />
      <path
         id="path36"
         style="font-family:'Bould SemiBold';letter-spacing:0.075em"
         d="m 472.94547,100 h 8.82 l -8.64,-16.8 c 4.8,-1.98 7.44,-6.36 7.44,-12.24 0,-8.34 -5.4,-12.96 -13.56,-12.96 h -15.9 v 42 h 8.1 V 84.28 h 6.36 z m -13.74,-34.86 h 7.08 c 4.02,0 6,2.22 6,5.82 0,3.72 -1.98,6.12 -6,6.12 h -7.08 z" />
      <path
         id="path38"
         style="font-family:'Bould SemiBold';letter-spacing:0.075em"
         d="m 515.32797,100 h 8.46 l -11.16,-42 h -12.9 l -11.04,42 h 8.4 l 2.28,-9.6 h 13.68 z m -14.22,-16.74 4.2,-17.52 h 1.8 l 4.2,17.46 z" />
      <path
         id="path40"
         style="font-family:'Bould SemiBold';letter-spacing:0.075em"
         d="m 533.81641,100 h 7.8 V 73.9 h 0.3 l 15.66,26.1 h 7.44 V 58 h -7.8 v 26.64 h -0.3 l -16.2,-26.64 h -6.9 z" />
      <path
         id="path42"
         style="font-family:'Bould SemiBold';letter-spacing:0.075em"
         d="m 578.51172,100 h 24.36 v -7.02 h -16.26 V 82.12 h 14.94 v -7.08 h -14.94 v -9.9 h 16.26 V 58 h -24.36 z" />
      <path
         id="path44"
         style="font-family:'Bould SemiBold';letter-spacing:0.075em"
         d="m 637.92953,100 h 8.46 l -11.16,-42 h -12.9 l -11.04,42 h 8.4 l 2.28,-9.6 h 13.68 z m -14.22,-16.74 4.2,-17.52 h 1.8 l 4.2,17.46 z" />
    </g>
  </g>
</svg>
