<?xml version="1.0" encoding="UTF-8" standalone="no"?>
<svg
   xmlns:dc="http://purl.org/dc/elements/1.1/"
   xmlns:cc="http://creativecommons.org/ns#"
   xmlns:rdf="http://www.w3.org/1999/02/22-rdf-syntax-ns#"
   xmlns:svg="http://www.w3.org/2000/svg"
   xmlns="http://www.w3.org/2000/svg"
   id="svg16"
   width="800px"
   version="1.1"
   height="200px">
  <metadata
     id="metadata20">
    <rdf:RDF>
      <cc:Work
         rdf:about="">
        <dc:format>image/svg+xml</dc:format>
        <dc:type
           rdf:resource="http://purl.org/dc/dcmitype/StillImage" />
      </cc:Work>
    </rdf:RDF>
  </metadata>
  <defs
     id="defs4">
    <style
       id="style2"
       type="text/css"><![CDATA[    
     @font-face {font-family:Cabin;
     src: url('/Users/francesco/Repos/write-logos/src/fonts/Fonts_E_TEMPORANEA/Cabin-Bold.ttf');}
     @font-face {font-family:PWChalk;
     src: url('/Users/francesco/Repos/write-logos/src/fonts/Fonts_X/PWChalk.ttf');}
     ]]></style>
  </defs>
  <g
     id="g14"
     style="font-size:60px">
    <g
       style="text-anchor:middle"
       id="text12"
       aria-label="EXTEMPORANEA">
      <path
         id="path22"
         style="font-family:Cabin;letter-spacing:0.075em"
         d="M 148.76453,100 V 58 h 26.88 v 7.44 h -19.02 v 8.94 h 14.76 v 7.44 h -14.76 v 10.74 h 19.62 V 100 Z" />
      <path
         id="path24"
         style="font-family:PWChalk;letter-spacing:0.05em"
         d="m 190.18609,69.1 1.74,1.98 -0.84,-1.08 -2.58,-4.02 -1.26,-1.86 0.42,0.96 1.92,3.18 z m 12.42,18.66 0.3,0.54 2.16,3.3 1.62,2.58 -0.66,0.36 0.48,0.66 1.62,1.68 0.9,0.72 0.06,0.12 -0.12,-0.84 -1.38,-2.22 -1.26,-2.16 -0.42,-0.6 -2.28,-2.88 z m -6.54,-8.4 -0.12,0.12 0.12,0.18 0.66,1.02 0.18,-0.24 z m 8.4,8.34 -0.9,-1.38 -0.48,-0.6 1.08,1.56 0.84,1.32 z m -17.76,3.24 V 91 Z m 8.1,-4.62 2.4,-3.24 -0.24,-0.3 -0.3,0.42 z m 13.92,-18.6 2.76,-3.72 -1.5,1.56 -3.6,4.44 z m -9.72,15.96 -0.12,0.24 0.3,0.42 2.88,4.44 -2.16,-3.66 z m -1.02,-1.62 -0.24,-0.42 -0.18,0.24 0.24,0.42 z m 3.24,-4.02 -0.48,-0.6 -0.48,0.72 0.42,0.6 z m -7.62,-9.3 0.3,0.54 2.76,4.2 v 0.06 l 0.9,1.14 0.48,-0.6 -0.96,-1.2 -2.7,-3.18 z m 6.3,6.06 0.66,0.84 3.18,-4.56 3.84,-5.16 3,-4.02 -2.58,2.64 -4.32,4.5 0.66,0.6 z m 1.5,1.86 0.42,0.6 0.6,-0.72 0.6,-0.72 1.5,-2.22 1.32,-1.8 -0.9,0.9 z m -2.16,-1.14 -0.54,0.6 0.24,0.3 0.54,0.72 0.24,-0.3 0.3,-0.42 -0.12,-0.12 z m -14.58,20.88 -0.84,-0.36 0.06,-0.24 -0.18,0.3 -0.42,1.26 -0.06,0.6 -0.96,-0.12 0.06,-0.72 0.54,-1.38 1.5,-2.76 2.22,-3.72 3.3,-5.04 4.2,-5.34 0.24,-0.3 -2.16,-3.48 -0.84,-1.38 -2.22,-2.7 -2.34,-3 -1.5,-2.1 0.72,-0.66 0.78,0.54 0.3,0.24 -0.06,-0.12 -0.18,-0.36 -0.24,-0.42 -1.86,-2.82 -1.02,-1.98 0.54,-0.3 -0.06,-0.06 0.54,-0.3 -0.3,-0.66 0.78,-0.6 0.72,0.6 1.32,1.62 v -0.06 l -0.48,-0.84 0.84,-0.54 0.06,0.18 0.9,-0.24 0.24,0.9 1.08,2.22 0.36,0.66 2.1,2.82 2.76,3.36 2.7,3.18 0.9,1.02 4.26,-4.86 4.32,-4.62 3.66,-3.66 2.4,-2.16 1.08,-0.9 0.72,0.66 -1.2,1.44 -2.34,2.94 -1.2,1.62 1.98,-2.1 1.8,-1.68 0.9,-0.66 0.66,0.72 -0.96,1.44 -2.46,3 -1.38,1.86 0.18,0.24 0.78,-0.84 1.62,-1.74 1.08,-1.2 2.7,-2.76 0.84,-0.84 0.72,0.6 -0.9,1.02 -2.16,2.22 -1.56,1.62 -2.4,2.7 -4.14,4.62 -3.18,3.6 -1.86,2.7 0.48,0.66 2.52,3.3 2.58,3.3 2.16,3.3 1.98,3.12 1.62,2.52 1.2,1.68 0.48,0.78 -0.84,0.48 -0.48,-0.78 -1.2,-1.68 -1.62,-2.52 -1.98,-3.12 -2.16,-3.18 -2.46,-3.3 -2.52,-3.3 -0.36,-0.42 -0.54,0.78 0.6,0.84 3.12,4.02 2.52,3.84 2.58,3.36 0.48,0.78 0.84,1.02 0.9,1.74 1.32,2.1 0.96,1.32 -0.84,0.6 -0.96,-1.44 -1.02,-1.56 -0.78,-0.78 -1.62,-1.86 -0.3,-0.36 0.6,1.38 -0.6,0.72 0.6,1.02 -0.12,1.8 -1.14,0.12 -1.14,-0.96 -1.74,-1.8 -2.1,-2.82 -2.46,-3.72 -2.88,-4.44 -1.5,2.34 -2.82,4.62 -1.92,3.06 -0.66,0.54 -0.66,-0.66 0.42,-0.54 1.2,-2.34 2.16,-3.54 0.6,-0.96 -1.14,1.5 -3.66,5.4 -2.58,4.14 -0.84,1.44 -0.54,1.02 -0.12,-0.06 -0.36,0.54 -0.54,1.08 -0.84,-0.36 0.54,-1.2 1.38,-2.22 0.78,-1.5 2.58,-4.68 1.14,-1.98 -0.9,1.38 -2.34,4.32 -1.5,2.64 -0.84,-0.48 1.5,-2.64 2.34,-4.32 3.78,-5.82 3.12,-4.02 -0.84,-1.26 -1.44,1.74 -3.78,5.1 -2.52,4.32 -1.8,2.58 -0.72,1.56 z" />
      <path
         id="path26"
         style="font-family:Cabin;letter-spacing:0.075em"
         d="M 240.59641,100 V 65.44 h -11.88 V 58 h 31.44 v 7.44 h -11.88 V 100 Z" />
      <path
         id="path28"
         style="font-family:Cabin;letter-spacing:0.075em"
         d="M 270.21766,100 V 58 h 26.88 v 7.44 h -19.02 v 8.94 h 14.76 v 7.44 h -14.76 v 10.74 h 19.62 V 100 Z" />
      <path
         id="path30"
         style="font-family:Cabin;letter-spacing:0.075em"
         d="m 306.83922,100 5.82,-42 h 6.3 l 10.26,19.14 10.2,-19.14 h 6.3 l 5.82,42 h -7.98 l -3.6,-28.14 -10.74,19.32 -10.8,-19.29 -3.6,28.11 z" />
      <path
         id="path32"
         style="font-family:Cabin;letter-spacing:0.075em"
         d="M 363.00672,100 V 58 h 14.94 q 7.26,0 11.1,3.27 3.84,3.27 3.84,10.29 0,7.11 -3.84,10.5 -3.81,3.36 -10.92,3.36 h -7.44 V 100 Z m 7.68,-21 h 6.54 q 3.93,0 5.88,-1.77 1.98,-1.77 1.98,-5.55 0,-3.78 -2.01,-5.52 -1.98,-1.74 -6.03,-1.74 h -6.36 z" />
      <path
         id="path34"
         style="font-family:Cabin;letter-spacing:0.075em"
         d="m 421.42891,100.84 q -6,0 -10.68,-2.7 -4.68,-2.73 -7.35,-7.62 -2.67,-4.92 -2.67,-11.52 0,-6.6 2.67,-11.49 2.67,-4.92 7.35,-7.62 4.68,-2.73 10.68,-2.73 6,0 10.68,2.73 4.68,2.7 7.35,7.62 2.67,4.89 2.67,11.49 0,6.6 -2.67,11.52 -2.67,4.89 -7.35,7.62 -4.68,2.7 -10.68,2.7 z m 0,-7.44 q 4.2,0 7.02,-1.86 2.82,-1.86 4.23,-5.1 1.41,-3.27 1.41,-7.44 0,-4.17 -1.41,-7.41 -1.41,-3.27 -4.23,-5.13 -2.82,-1.86 -7.02,-1.86 -4.2,0 -7.02,1.86 -2.82,1.86 -4.23,5.13 -1.41,3.24 -1.41,7.41 0,4.17 1.41,7.44 1.41,3.24 4.23,5.1 2.82,1.86 7.02,1.86 z" />
      <path
         id="path36"
         style="font-family:Cabin;letter-spacing:0.075em"
         d="M 453.33484,100 V 58 h 15.36 q 6.54,0 10.5,3.12 3.96,3.12 3.96,9.6 0,4.62 -1.98,7.35 -1.95,2.7 -5.16,4.29 l 9.48,17.64 h -8.58 l -8.1,-15.6 h -7.8 V 100 Z m 7.68,-22.02 h 5.64 q 4.74,0 6.6,-1.92 1.86,-1.95 1.86,-4.92 0,-3.15 -1.83,-4.92 -1.83,-1.8 -6.33,-1.8 h -5.94 z" />
      <path
         id="path38"
         style="font-family:Cabin;letter-spacing:0.075em"
         d="m 520.71203,100 -3.51,-9.96 h -15.24 l -3.51,9.96 h -7.44 l 14.94,-42 h 7.26 l 14.94,42 z m -16.41,-16.68 h 10.56 l -5.28,-15 z" />
      <path
         id="path40"
         style="font-family:Cabin;letter-spacing:0.075em"
         d="M 537.45203,100 V 58 h 7.56 l 17.94,27.12 V 58 h 7.68 v 42 h -6.3 l -19.2,-28.8 V 100 Z" />
      <path
         id="path42"
         style="font-family:Cabin;letter-spacing:0.075em"
         d="M 584.37391,100 V 58 h 26.88 v 7.44 h -19.02 v 8.94 h 14.76 v 7.44 h -14.76 v 10.74 h 19.62 V 100 Z" />
      <path
         id="path44"
         style="font-family:Cabin;letter-spacing:0.075em"
         d="m 648.23547,100 -3.51,-9.96 h -15.24 l -3.51,9.96 h -7.44 l 14.94,-42 h 7.26 l 14.94,42 z m -16.41,-16.68 h 10.56 l -5.28,-15 z" />
    </g>
  </g>
</svg>
