<?xml version="1.0" encoding="UTF-8" standalone="no"?>
<svg
   xmlns:dc="http://purl.org/dc/elements/1.1/"
   xmlns:cc="http://creativecommons.org/ns#"
   xmlns:rdf="http://www.w3.org/1999/02/22-rdf-syntax-ns#"
   xmlns:svg="http://www.w3.org/2000/svg"
   xmlns="http://www.w3.org/2000/svg"
   id="svg16"
   width="800px"
   version="1.1"
   height="200px">
  <metadata
     id="metadata20">
    <rdf:RDF>
      <cc:Work
         rdf:about="">
        <dc:format>image/svg+xml</dc:format>
        <dc:type
           rdf:resource="http://purl.org/dc/dcmitype/StillImage" />
      </cc:Work>
    </rdf:RDF>
  </metadata>
  <defs
     id="defs4">
    <style
       id="style2"
       type="text/css"><![CDATA[    
     @font-face {font-family:Cabin;
     src: url('/Users/francesco/Repos/write-logos/src/fonts/Fonts_E_TEMPORANEA/Cabin-Bold.ttf');}
     @font-face {font-family:DK Plakkaat;
     src: url('/Users/francesco/Repos/write-logos/src/fonts/Fonts_X/Plakkaat.ttf');}
     ]]></style>
  </defs>
  <g
     id="g14"
     style="font-size:60px">
    <g
       style="text-anchor:middle"
       id="text12"
       aria-label="EXTEMPORANEA">
      <path
         id="path22"
         style="font-family:Cabin;letter-spacing:0.075em"
         d="M 150.69812,100 V 58 h 26.88 v 7.44 h -19.02 v 8.94 h 14.76 v 7.44 h -14.76 v 10.74 h 19.62 V 100 Z" />
      <path
         id="path24"
         style="font-family:'DK Plakkaat';letter-spacing:0.05em"
         d="m 205.07969,69.34 q 0.3,0 0.3,-0.24 l 0.06,-0.06 q 0,-0.12 0.06,-0.24 0.06,-0.12 0.12,-0.3 l 0.3,-0.06 0.24,-0.24 q 0.3,-0.12 0.42,-0.42 0.12,-0.3 0.12,-0.36 v -0.18 q 0.06,0 0.12,-0.06 l 0.18,-0.3 h 0.12 l 0.78,-0.78 q 0.12,-0.12 0.6,-0.72 0.54,-0.66 0.84,-0.96 l 0.18,-0.3 q 0.42,-0.42 0.66,-0.9 0.3,-0.48 0.84,-1.02 l 0.12,-0.18 q 0.06,-0.06 0.18,-0.3 0.18,-0.3 0.3,-0.36 l 0.18,-0.24 q 0.12,-0.12 0.12,-0.18 l 0.6,-0.36 q 0.66,-0.66 1.38,-1.26 0.72,-0.6 0.84,-0.72 l 0.66,-0.54 v 0.18 l 0.3,-0.24 v 0.06 q 0,0.06 -0.06,0.18 0,0.12 -0.12,0.18 l 0.18,0.06 0.24,-0.36 -0.06,0.3 q -0.06,0.06 -0.06,0.18 l -0.06,0.18 q -0.06,0.06 -0.06,0.12 l 0.12,0.12 0.12,-0.06 q 0.06,0 0.12,-0.06 h 0.12 l 0.06,0.42 q 0,-0.06 0.06,-0.12 l 0.18,-0.12 v 0.24 h 0.12 l 0.42,-0.42 q 0,0.06 -0.06,0.18 0,0.06 0,0.12 v 0.06 q -0.06,0 -0.12,0.18 0,0.12 -0.06,0.12 v 0.06 l 0.24,-0.24 q 0.18,-0.18 0.18,-0.3 l 0.18,-0.06 q 0,0.12 -0.18,0.36 -0.18,0.18 -0.18,0.42 v 0.12 l 0.18,-0.12 q -0.06,0.06 -0.06,0.12 0,0.12 0.06,0.12 l 0.18,0.06 0.18,-0.18 q 0.06,-0.06 0.24,-0.18 0.18,-0.12 0.24,-0.12 v 0.12 q 0,0.06 -0.06,0.18 0,0.06 0,0.12 l -0.18,0.12 v 0.12 h 0.18 q 0,-0.06 0.12,-0.18 0.18,-0.18 0.24,-0.18 l 0.06,-0.06 q 0.06,0 0.12,-0.06 0,0.06 -0.18,0.24 h 0.48 l -0.12,0.54 q 0,-0.06 0.12,-0.18 0.12,-0.18 0.18,-0.24 h 0.12 l -0.12,0.42 0.06,-0.06 q 0.06,-0.12 0.18,-0.3 0.12,-0.24 0.24,-0.3 h 0.06 l -0.3,0.78 h 0.36 l 0.18,-0.18 q 0.12,-0.12 0.18,-0.12 l 0.06,-0.12 v 0.3 q 0,0.06 -0.06,0.12 0,0.06 0,0.12 l 0.24,-0.18 q 0.06,-0.06 0.12,-0.06 l -0.06,0.06 q -0.06,0.06 -0.06,0.18 l 0.06,0.42 h 0.48 q 0.48,0 0.66,0.3 0.24,0.24 0.24,0.42 v 0.54 l -0.24,0.24 q 0,0.12 -0.12,0.3 -0.12,0.12 -0.12,0.42 l -0.12,0.12 q -0.06,0.06 -0.06,0.12 v 0.18 q 0,0.24 -0.24,0.48 -0.18,0.24 -0.18,0.36 l -0.06,0.18 q 0,0.06 -0.12,0.3 -0.06,0.18 -0.24,0.48 -0.12,0.24 -0.24,0.48 -0.06,0.24 -0.06,0.3 l -0.6,0.84 q -0.54,0.84 -0.54,1.32 -0.18,0.66 -0.54,1.02 -0.3,0.3 -0.42,0.78 l -0.12,0.18 q -0.06,0.06 -0.06,0.12 l -0.06,0.06 q 0,0.18 -0.12,0.18 l -0.18,0.18 v 0.18 q 0,0.12 -0.36,0.54 -0.36,0.42 -0.36,0.9 l -1.2,1.92 q -0.06,0.06 -0.18,0.3 -0.12,0.24 -0.24,0.3 l -0.06,0.06 q 0,0.06 -0.24,0.42 -0.18,0.36 -0.48,0.84 -0.3,0.42 -0.6,0.84 -0.24,0.36 -0.42,0.54 l -0.06,0.12 q -0.18,0.18 -0.36,0.66 -0.12,0.48 -0.6,0.96 l -0.12,0.12 q 0,0.06 -0.18,0.3 -0.12,0.24 -0.12,0.3 v 0.12 q 0,0.06 0.06,0.18 0.12,0.12 0.18,0.18 l 0.66,0.84 q 0,0.06 0.18,0.3 0.18,0.18 0.36,0.36 l 0.12,0.18 q 0.48,0.48 0.84,1.08 0.36,0.54 0.6,0.78 l 0.42,0.48 q 0,0.06 0.12,0.24 0.18,0.18 0.24,0.24 l 0.12,0.12 q 0,0.06 0.06,0.12 l 0.24,0.42 q 0.06,0 0.12,0.12 0.12,0.12 0.24,0.18 l 0.36,0.54 q 0.18,0.36 0.48,0.54 l 0.06,0.12 q 0,0.06 0.06,0.24 0.12,0.12 0.24,0.18 v 0.24 q 0.24,0 0.24,0.24 l 1.14,1.68 q 0.12,0.18 0.3,0.42 0.24,0.24 0.78,0.78 v 0.06 q 0,0.18 0.12,0.3 l 0.06,0.06 q 0,0.18 0.18,0.36 l 0.12,0.3 q 0,0.06 0.06,0.12 l 0.06,0.24 q -0.24,0 -0.24,0.06 l 0.06,0.36 q 0.06,0.06 0.06,0.12 h -0.36 l -0.24,-0.12 q 0,0.36 -0.42,0.36 l -0.12,0.3 q -0.06,0.06 -0.06,0.12 l -0.06,0.06 q -0.06,0.06 -0.06,0.12 l -0.12,0.42 q 0,0.12 0.12,0.24 l 0.06,0.6 -0.18,0.12 -0.24,-0.06 q -0.06,0 -0.12,-0.06 l -0.18,0.06 0.06,0.3 h -0.24 l 0.18,0.18 h -0.36 v 0.42 l -0.18,0.12 q -0.06,0.06 -0.18,0.06 h -0.24 v 0.3 l -0.18,0.06 q 0.06,0.12 0.18,0.36 0.18,0.24 0.18,0.36 -0.06,0.06 -0.06,0.12 v 0.18 q 0,0.3 -0.18,0.42 -0.12,0.06 -0.12,0.18 l -0.18,0.24 q -0.12,0.48 -0.54,0.66 -0.42,0.18 -0.6,0.18 -0.3,0 -0.36,-0.06 0,0.24 -0.42,0.24 l -0.06,0.18 q 0,0.12 0.12,0.24 l -0.54,-0.24 h -1.02 q -0.06,0 -0.12,-0.06 h -0.42 l -0.18,-0.18 q 0,0.18 -0.18,0.18 -0.12,0 -0.24,-0.12 l -0.12,0.12 h -0.3 l -0.66,-0.24 q -0.06,-0.06 -0.18,-0.06 -0.12,-0.06 -0.24,-0.18 l -0.9,-0.66 -1.38,-1.5 q 0,-0.06 -0.12,-0.18 -0.12,-0.18 -0.18,-0.18 l -0.06,-0.06 q -0.06,0 -0.42,-0.48 l -0.9,-1.08 q -0.3,-0.3 -0.84,-0.84 -0.54,-0.6 -0.66,-0.9 l -0.24,-0.24 q -0.12,-0.06 -0.36,-0.36 -0.18,-0.3 -0.24,-0.36 l -0.54,-0.48 -0.06,0.12 q -0.12,0 -0.48,0.54 -0.3,0.48 -0.42,0.9 l -0.06,0.12 q -0.12,0.06 -0.36,0.42 -0.18,0.3 -0.3,0.48 l -0.12,0.12 h 0.06 q 0,0.12 -0.36,0.78 -0.3,0.6 -1.02,1.32 l -0.54,0.96 q -0.18,0.18 -0.54,0.6 -0.3,0.42 -0.96,1.08 l -0.18,0.18 q -0.06,0.06 -0.24,0.18 -0.12,0.12 -0.12,0.18 l -0.3,0.06 V 100 l 0.24,-0.3 q 0,-0.06 -0.06,-0.12 l -0.24,-0.12 q -0.12,-0.12 -0.3,-0.12 l -0.6,-0.06 -0.06,-0.24 h -0.24 q 0,0.06 -0.18,0.18 -0.18,0.12 -0.24,0.12 l -0.24,0.12 v -0.12 q 0.06,0 0.18,-0.12 l 0.24,-0.24 q 0.12,0 0.12,-0.06 -0.06,0 -0.18,-0.06 -0.12,-0.06 -0.18,-0.06 -0.06,0.06 -0.12,0.06 h -0.06 q -0.06,0 -0.12,0.06 l -0.42,0.06 v -0.06 q -0.06,0.06 -0.12,0.06 h -0.3 l 0.24,-0.24 -0.06,-0.06 q 0,-0.12 -0.18,-0.12 -0.12,0 -0.24,0.06 -0.12,0 -0.24,0 l -0.24,0.12 q -0.06,0.06 -0.18,0.06 l -0.24,0.06 q -0.06,0 -0.12,-0.06 l -1.02,0.12 0.42,-0.6 q -0.12,0.12 -0.18,0.12 l -0.18,-0.12 -0.24,0.18 q -0.12,0.12 -0.24,0.12 l -0.12,-0.06 q 0,-0.12 0.12,-0.12 0.12,-0.06 0.12,-0.12 h -0.48 q 0.06,0 0.18,-0.12 l 0.3,-0.06 q -0.12,-0.06 -0.3,-0.06 -0.12,-0.06 -0.18,-0.12 h -0.12 l -0.12,-0.18 q -0.06,-0.06 -0.06,-0.12 l -0.72,0.06 0.06,-0.12 q 0,-0.06 0.12,-0.18 0.12,-0.12 0.12,-0.42 h -0.06 q -0.3,0.12 -0.48,0.3 V 97 l -0.36,0.3 0.3,-0.54 q 0,-0.12 -0.12,-0.12 0,0.12 -0.24,0.12 h -0.42 q -0.06,0 -0.18,0.12 -0.06,0.06 -0.12,0.06 v -0.18 q 0,-0.06 -0.06,-0.12 v -0.12 q 0,-0.06 0,-0.18 0.06,-0.12 0.06,-0.24 v -0.12 q -0.06,-0.06 -0.06,-0.24 v -0.3 q -0.06,0 -0.18,0 -0.06,-0.06 -0.12,-0.06 l -0.24,-0.42 v -0.24 q -0.06,0 -0.18,-0.12 -0.12,-0.18 -0.18,-0.24 l -0.12,-0.3 -0.18,-0.12 v -0.36 l 0.18,-0.54 q 0.12,-0.24 0.12,-0.42 0.06,-0.18 0.18,-0.3 l 0.06,-0.24 q 0.12,-0.12 0.24,-0.48 0.18,-0.42 0.24,-0.48 0.66,-0.66 0.96,-1.5 l 0.06,-0.18 q 0,-0.06 0.06,-0.12 0.06,-0.12 0.12,-0.24 l 0.42,-0.6 q 0.18,-0.18 0.3,-0.54 0.12,-0.42 0.78,-1.08 h 0.12 l 0.6,-0.72 q 0.18,-0.18 0.54,-0.42 0.36,-0.3 0.48,-0.72 l 0.54,-0.6 q 0.06,-0.06 0.24,-0.3 0.18,-0.24 0.24,-0.24 l 0.24,-0.36 q 0.06,-0.12 0.42,-0.48 0.36,-0.42 0.42,-0.54 l 0.12,-0.12 v 0.12 l 0.36,-0.06 V 82 l -0.36,-0.36 v -0.18 q -0.06,-0.06 -0.24,-0.18 -0.12,-0.12 -0.12,-0.24 l -0.42,-0.42 q -0.18,-0.12 -0.48,-0.42 -0.24,-0.36 -0.3,-0.42 l -0.42,-0.54 q -0.42,-0.42 -0.66,-0.72 -0.18,-0.36 -0.42,-0.72 -0.18,-0.42 -0.48,-0.9 -0.3,-0.54 -0.9,-1.32 l -0.18,-0.36 q -0.12,-0.3 -0.3,-0.36 l -0.24,-0.3 q -0.12,-0.12 -0.3,-0.3 -0.12,-0.24 -0.24,-0.66 -0.12,-0.18 -0.36,-0.6 -0.18,-0.42 -0.42,-0.78 -0.18,-0.42 -0.42,-0.72 -0.18,-0.36 -0.24,-0.36 l -0.24,-0.24 -0.24,-0.6 -0.6,-0.66 q -0.06,-0.12 -0.24,-0.36 -0.18,-0.24 -0.24,-0.36 v -0.06 q 0,-0.06 -0.06,-0.18 -0.06,-0.18 -0.06,-0.24 v -0.12 q -0.24,0 -0.3,-0.3 0,-0.36 -0.18,-0.36 l -0.24,-0.42 q -0.12,-0.12 -0.3,-0.48 -0.12,-0.36 -0.18,-0.48 l -0.12,-0.18 q -0.12,-0.12 -0.12,-0.3 l -0.06,-0.12 0.18,-0.12 q 0,-0.12 0.24,-0.12 l 0.12,-0.06 v -0.3 h 0.42 l 0.06,-0.42 h 0.18 l 0.06,-0.42 0.12,-0.06 q 0.24,0 0.24,-0.6 l 0.12,-0.24 q 0,-0.06 -0.06,-0.12 0,-0.12 0,-0.24 0,-0.06 0.06,-0.12 l 0.12,-0.12 q 0,-0.12 0.06,-0.12 l 0.48,-0.06 q 0.06,0 0.12,-0.06 l 0.3,-0.3 0.3,-0.6 0.18,-0.12 q 0.06,0 0.12,-0.06 l -0.06,-0.18 0.18,-0.18 q 0.12,0 0.18,-0.06 0.06,-0.12 0.18,-0.12 h 0.06 q 0.12,0 0.24,0 0.18,-0.06 0.42,-0.18 l 0.06,-0.18 q 0,-0.06 0.18,-0.24 l 0.18,-0.18 -0.06,-0.18 q 0,-0.06 0.06,-0.12 0.06,0 0.24,0.06 0.24,0 0.36,0 v -0.48 h 0.12 l 0.12,0.18 h 0.36 l -0.06,-0.18 h 0.12 q 0.12,0 0.18,-0.06 l 0.06,-0.06 q 0,-0.06 0.06,-0.18 0.06,-0.18 0.06,-0.3 l 0.3,0.06 q 0.06,0.06 0.12,0.06 l 0.06,0.12 0.12,-0.12 v -0.36 l 0.84,-0.06 0.72,0.3 q 0.06,0.06 0.18,0.06 l 0.12,0.06 q 0.06,0.06 0.06,0.12 l 0.06,0.06 q 0.06,0.06 0.18,0.24 0.18,0.18 0.3,0.24 l 0.06,0.06 q 0,0.12 0.18,0.3 l 0.24,0.24 q 0,0.3 0.3,0.72 0.36,0.36 0.72,1.2 l 0.36,0.54 q 0,0.12 0.06,0.12 l 0.12,0.18 q 0.12,0.12 0.24,0.42 0.18,0.24 0.24,0.3 l 0.24,0.36 q 0.48,0.48 1.08,1.2 0.6,0.72 0.78,1.08 h 0.06 q 0.06,0.06 0.12,0.24 0.12,0.12 0.24,0.24 l 0.84,1.02 q 0,0.18 0.18,0.18 v 0.18 l -0.24,-0.06 q -0.12,-0.12 -0.36,-0.36 -0.18,-0.3 -0.3,-0.36 l -0.12,0.06 q 0.3,0.36 0.42,0.6 0.12,0.18 0.24,0.3 l 0.18,0.3 q 0,0.12 0.24,0.36 0.3,0.18 0.3,0.3 l 0.12,0.06 q 0.18,0.48 0.66,0.72 0.54,0.18 0.54,0.66 l 0.36,-0.12 v 0.36 l 0.18,-0.18 h 0.24 q 0.06,-0.06 0.06,-0.12 l 0.06,-0.36 q 0.12,-0.06 0.36,-0.36 0.3,-0.3 0.42,-0.3 v -0.18 l -0.12,-0.06 q 0,-0.12 0.12,-0.12 z m 6.06,-7.74 q -0.12,0.3 -0.24,0.42 l -0.18,0.12 q 0,-0.12 0.06,-0.18 0.06,-0.06 0.06,-0.12 l 0.12,-0.12 q 0.12,-0.12 0.18,-0.12 z m 6.42,34.8 q 0,0.12 0.06,0.12 0.12,0 0.12,-0.12 0,-0.12 -0.12,-0.12 z m -9.12,-31.32 0.06,0.12 q 0,0.06 -0.12,0.06 v -0.24 q 0,-0.12 0.12,-0.12 z m -1.98,2.76 -0.24,0.06 v -0.06 q 0,-0.12 0.12,-0.12 z m 4.2,-5.4 -0.24,0.06 v -0.06 q 0,-0.12 0.12,-0.12 z m -5.4,6.72 q 0,0.06 -0.12,0.06 -0.12,0 -0.12,-0.06 l 0.12,-0.06 z m 3.66,-4.56 v -0.12 q 0,-0.06 0.18,-0.24 z m -6.12,7.08 q 0.06,0 0.12,-0.06 0,-0.12 -0.12,-0.12 z m 7.08,-8.34 h -0.12 l 0.18,-0.24 z m -3.36,4.2 -0.06,0.12 -0.06,-0.06 q 0,-0.12 0.18,-0.12 z m 1.86,-2.16 -0.12,0.06 v -0.18 z m 1.08,-1.38 -0.12,0.06 v -0.18 z m -23.16,1.62 q 0.06,0 0.06,-0.18 l -0.06,0.06 z m 25.2,-4.5 v -0.06 q 0,-0.12 0.12,-0.12 z m -16.32,38.46 q -0.18,0.18 -0.3,0.18 z m 16.68,-38.82 -0.18,0.12 0.12,-0.12 z" />
      <path
         id="path26"
         style="font-family:Cabin;letter-spacing:0.075em"
         d="M 238.66281,100 V 65.44 h -11.88 V 58 h 31.44 v 7.44 h -11.88 V 100 Z" />
      <path
         id="path28"
         style="font-family:Cabin;letter-spacing:0.075em"
         d="M 268.28406,100 V 58 h 26.88 v 7.44 h -19.02 v 8.94 h 14.76 v 7.44 h -14.76 v 10.74 h 19.62 V 100 Z" />
      <path
         id="path30"
         style="font-family:Cabin;letter-spacing:0.075em"
         d="m 304.90562,100 5.82,-42 h 6.3 l 10.26,19.14 L 337.48563,58 h 6.29999 l 5.82001,42 h -7.98 l -3.60001,-28.14 -10.74,19.32 -10.79999,-19.29 -3.60001,28.11 z" />
      <path
         id="path32"
         style="font-family:Cabin;letter-spacing:0.075em"
         d="M 361.07312,100 V 58 h 14.94 q 7.26,0 11.10001,3.27 3.83999,3.27 3.83999,10.29 0,7.11 -3.83999,10.5 -3.81,3.36 -10.92001,3.36 h -7.44 V 100 Z m 7.68,-21 h 6.54 q 3.93,0 5.88001,-1.77 1.97999,-1.77 1.97999,-5.55 0,-3.78 -2.01,-5.52 -1.98,-1.74 -6.02999,-1.74 h -6.36001 z" />
      <path
         id="path34"
         style="font-family:Cabin;letter-spacing:0.075em"
         d="m 419.49531,100.84 q -6,0 -10.68,-2.7 -4.68,-2.73 -7.35,-7.62 -2.67,-4.92 -2.67,-11.52 0,-6.6 2.67,-11.49 2.67,-4.92 7.35,-7.62 4.68,-2.73 10.68,-2.73 6,0 10.68,2.73 4.68,2.7 7.35,7.62 2.67,4.89 2.67,11.49 0,6.6 -2.67,11.52 -2.67,4.89 -7.35,7.62 -4.68,2.7 -10.68,2.7 z m 0,-7.44 q 4.2,0 7.02,-1.86 2.82,-1.86 4.23,-5.1 1.41,-3.27 1.41,-7.44 0,-4.17 -1.41,-7.41 -1.41,-3.27 -4.23,-5.13 -2.82,-1.86 -7.02,-1.86 -4.2,0 -7.02,1.86 -2.82,1.86 -4.23,5.13 -1.41,3.24 -1.41,7.41 0,4.17 1.41,7.44 1.41,3.24 4.23,5.1 2.82,1.86 7.02,1.86 z" />
      <path
         id="path36"
         style="font-family:Cabin;letter-spacing:0.075em"
         d="M 451.40125,100 V 58 h 15.36 q 6.54,0 10.5,3.12 3.96,3.12 3.96,9.6 0,4.62 -1.98,7.35 -1.95,2.7 -5.16,4.29 l 9.48,17.64 h -8.58 l -8.1,-15.6 h -7.8 V 100 Z m 7.68,-22.02 h 5.64 q 4.74,0 6.6,-1.92 1.86,-1.95 1.86,-4.92 0,-3.15 -1.83,-4.92 -1.83,-1.8 -6.33,-1.8 h -5.94 z" />
      <path
         id="path38"
         style="font-family:Cabin;letter-spacing:0.075em"
         d="m 518.77844,100 -3.51,-9.96 h -15.24 l -3.51,9.96 h -7.44 l 14.94,-42 h 7.26 l 14.94,42 z m -16.41,-16.68 h 10.56 l -5.28,-15 z" />
      <path
         id="path40"
         style="font-family:Cabin;letter-spacing:0.075em"
         d="M 535.51844,100 V 58 h 7.56 l 17.94,27.12 V 58 h 7.68 v 42 h -6.3 l -19.2,-28.8 V 100 Z" />
      <path
         id="path42"
         style="font-family:Cabin;letter-spacing:0.075em"
         d="M 582.44031,100 V 58 h 26.88 v 7.44 h -19.02 v 8.94 h 14.76 v 7.44 h -14.76 v 10.74 h 19.62 V 100 Z" />
      <path
         id="path44"
         style="font-family:Cabin;letter-spacing:0.075em"
         d="m 646.30187,100 -3.51,-9.96 h -15.24 l -3.51,9.96 h -7.44 l 14.94,-42 h 7.26 l 14.94001,42 z M 629.89188,83.32 h 10.55999 l -5.28,-15 z" />
    </g>
  </g>
</svg>
