<?xml version="1.0" encoding="UTF-8" standalone="no"?>
<svg
   xmlns:dc="http://purl.org/dc/elements/1.1/"
   xmlns:cc="http://creativecommons.org/ns#"
   xmlns:rdf="http://www.w3.org/1999/02/22-rdf-syntax-ns#"
   xmlns:svg="http://www.w3.org/2000/svg"
   xmlns="http://www.w3.org/2000/svg"
   id="svg16"
   width="800px"
   version="1.1"
   height="200px">
  <metadata
     id="metadata20">
    <rdf:RDF>
      <cc:Work
         rdf:about="">
        <dc:format>image/svg+xml</dc:format>
        <dc:type
           rdf:resource="http://purl.org/dc/dcmitype/StillImage" />
      </cc:Work>
    </rdf:RDF>
  </metadata>
  <defs
     id="defs4">
    <style
       id="style2"
       type="text/css"><![CDATA[    
     @font-face {font-family:Cabin;
     src: url('/Users/francesco/Repos/write-logos/src/fonts/Fonts_E_TEMPORANEA/Cabin-Bold.ttf');}
     @font-face {font-family:Modak;
     src: url('/Users/francesco/Repos/write-logos/src/fonts/Fonts_X/Modak-Regular.ttf');}
     ]]></style>
  </defs>
  <g
     id="g14"
     style="font-size:60px">
    <g
       style="text-anchor:middle"
       id="text12"
       aria-label="EXTEMPORANEA">
      <path
         id="path22"
         style="font-family:Cabin;letter-spacing:0.075em"
         d="M 150.9325,100 V 58 h 26.88 v 7.44 h -19.02 v 8.94 h 14.76 v 7.44 h -14.76 v 10.74 h 19.62 V 100 Z" />
      <path
         id="path24"
         style="font-family:Modak;letter-spacing:0.05em"
         d="m 204.01562,93.115234 -3.39843,6.621094 q -2.19727,0.820312 -4.77539,0.820312 -4.54102,0 -7.44141,-2.578124 Q 185.5,95.400391 185.5,91.035156 q 0,-3.867187 2.60742,-6.884765 2.60742,-3.017579 7.38281,-5.06836 -0.35156,-0.966797 -1.20117,-0.966797 -0.84961,0 -3.10547,1.552735 -2.19726,-1.142578 -3.86718,-3.779297 -1.64063,-2.636719 -1.64063,-6.09375 0,-3.457031 2.54883,-5.917969 2.54883,-2.460937 7.03125,-2.460937 3.86719,0 6.35742,1.435546 l 3.10547,6.181641 2.51953,-6.328125 q 2.49024,-1.113281 5.56641,-1.113281 4.36523,0 7.08984,2.402344 2.72461,2.460937 2.72461,6.884765 0,3.66211 -2.63672,6.884766 -2.60742,3.193359 -6.70898,5.068359 0.32226,0.84961 1.14258,0.84961 0.8496,0 2.7246,-1.289063 l 6.03516,7.558594 q 0,4.716797 -2.34375,7.529297 -2.57812,3.105471 -7.11914,3.105471 -6.91406,0 -9.69727,-7.470706 z" />
      <path
         id="path26"
         style="font-family:Cabin;letter-spacing:0.075em"
         d="M 238.42844,100 V 65.44 h -11.88 V 58 h 31.44 v 7.44 h -11.88 V 100 Z" />
      <path
         id="path28"
         style="font-family:Cabin;letter-spacing:0.075em"
         d="M 268.04969,100 V 58 h 26.88 v 7.44 h -19.02 v 8.94 h 14.76 v 7.44 h -14.76 v 10.74 h 19.62 V 100 Z" />
      <path
         id="path30"
         style="font-family:Cabin;letter-spacing:0.075em"
         d="m 304.67125,100 5.82,-42 h 6.3 l 10.26,19.14 10.2,-19.14 h 6.3 l 5.82,42 h -7.98 l -3.6,-28.14 -10.74,19.32 -10.8,-19.29 -3.6,28.11 z" />
      <path
         id="path32"
         style="font-family:Cabin;letter-spacing:0.075em"
         d="M 360.83875,100 V 58 h 14.94 q 7.26,0 11.1,3.27 3.84,3.27 3.84,10.29 0,7.11 -3.84,10.5 -3.81,3.36 -10.92,3.36 h -7.44 V 100 Z m 7.68,-21 h 6.54 q 3.93,0 5.88,-1.77 1.98,-1.77 1.98,-5.55 0,-3.78 -2.01,-5.52 -1.98,-1.74 -6.03,-1.74 h -6.36 z" />
      <path
         id="path34"
         style="font-family:Cabin;letter-spacing:0.075em"
         d="m 419.26094,100.84 q -6,0 -10.68,-2.7 -4.68,-2.73 -7.35,-7.62 -2.67,-4.92 -2.67,-11.52 0,-6.6 2.67,-11.49 2.67,-4.92 7.35,-7.62 4.68,-2.73 10.68,-2.73 6,0 10.68,2.73 4.68,2.7 7.35,7.62 2.67,4.89 2.67,11.49 0,6.6 -2.67,11.52 -2.67,4.89 -7.35,7.62 -4.68,2.7 -10.68,2.7 z m 0,-7.44 q 4.2,0 7.02,-1.86 2.82,-1.86 4.23,-5.1 1.41,-3.27 1.41,-7.44 0,-4.17 -1.41,-7.41 -1.41,-3.27 -4.23,-5.13 -2.82,-1.86 -7.02,-1.86 -4.2,0 -7.02,1.86 -2.82,1.86 -4.23,5.13 -1.41,3.24 -1.41,7.41 0,4.17 1.41,7.44 1.41,3.24 4.23,5.1 2.82,1.86 7.02,1.86 z" />
      <path
         id="path36"
         style="font-family:Cabin;letter-spacing:0.075em"
         d="M 451.16687,100 V 58 h 15.36001 q 6.53999,0 10.5,3.12 3.95999,3.12 3.95999,9.6 0,4.62 -1.98,7.35 -1.95,2.7 -5.16,4.29 l 9.48,17.64 h -8.58 l -8.09999,-15.6 h -7.80001 V 100 Z m 7.68,-22.02 h 5.64 q 4.74,0 6.60001,-1.92 1.85999,-1.95 1.85999,-4.92 0,-3.15 -1.83,-4.92 -1.83,-1.8 -6.33,-1.8 h -5.94 z" />
      <path
         id="path38"
         style="font-family:Cabin;letter-spacing:0.075em"
         d="m 518.54406,100 -3.51,-9.96 h -15.24 l -3.51,9.96 h -7.44 l 14.94,-42 h 7.26 l 14.94,42 z m -16.41,-16.68 h 10.56 l -5.28,-15 z" />
      <path
         id="path40"
         style="font-family:Cabin;letter-spacing:0.075em"
         d="M 535.28406,100 V 58 h 7.56 l 17.94,27.12 V 58 h 7.68 v 42 h -6.3 l -19.2,-28.8 V 100 Z" />
      <path
         id="path42"
         style="font-family:Cabin;letter-spacing:0.075em"
         d="M 582.20594,100 V 58 h 26.88 v 7.44 h -19.02 v 8.94 h 14.76 v 7.44 h -14.76 v 10.74 h 19.62 V 100 Z" />
      <path
         id="path44"
         style="font-family:Cabin;letter-spacing:0.075em"
         d="m 646.0675,100 -3.51,-9.96 h -15.24 l -3.51,9.96 h -7.44 l 14.94,-42 h 7.26 l 14.94,42 z m -16.41,-16.68 h 10.56 l -5.28,-15 z" />
    </g>
  </g>
</svg>
