<?xml version="1.0" encoding="UTF-8" standalone="no"?>
<svg
   xmlns:dc="http://purl.org/dc/elements/1.1/"
   xmlns:cc="http://creativecommons.org/ns#"
   xmlns:rdf="http://www.w3.org/1999/02/22-rdf-syntax-ns#"
   xmlns:svg="http://www.w3.org/2000/svg"
   xmlns="http://www.w3.org/2000/svg"
   id="svg16"
   width="800px"
   version="1.1"
   height="200px">
  <metadata
     id="metadata20">
    <rdf:RDF>
      <cc:Work
         rdf:about="">
        <dc:format>image/svg+xml</dc:format>
        <dc:type
           rdf:resource="http://purl.org/dc/dcmitype/StillImage" />
      </cc:Work>
    </rdf:RDF>
  </metadata>
  <defs
     id="defs4">
    <style
       id="style2"
       type="text/css"><![CDATA[    
     @font-face {font-family:Cabin;
     src: url('/Users/francesco/Repos/write-logos/src/fonts/Fonts_E_TEMPORANEA/Cabin-Bold.ttf');}
     @font-face {font-family:Qualy;
     src: url('/Users/francesco/Repos/write-logos/src/fonts/Fonts_X/QualyBold.ttf');}
     ]]></style>
  </defs>
  <g
     id="g14"
     style="font-size:60px">
    <g
       style="text-anchor:middle"
       id="text12"
       aria-label="EXTEMPORANEA">
      <path
         id="path22"
         style="font-family:Cabin;letter-spacing:0.075em"
         d="M 148.70594,100 V 58 h 26.88 v 7.44 h -19.02 v 8.94 h 14.76 v 7.44 h -14.76 v 10.74 h 19.62 V 100 Z" />
      <path
         id="path24"
         style="font-family:Qualy;letter-spacing:0.05em"
         d="m 220.1875,100 h -9.02344 L 201.55469,85.292969 191.71094,100 H 182.6875 L 196.83789,78.378906 183.47852,57.988281 h 9.02343 l 13.56446,20.390625 q 3.92578,6.035156 6.29882,9.697266 2.40235,3.662109 3.31055,5.039062 z m -10.81055,-26.71875 -4.6875,-6.855469 5.6836,-8.4375 h 9.05273 z" />
      <path
         id="path26"
         style="font-family:Cabin;letter-spacing:0.075em"
         d="M 240.655,100 V 65.44 h -11.88 V 58 h 31.44 v 7.44 h -11.88 V 100 Z" />
      <path
         id="path28"
         style="font-family:Cabin;letter-spacing:0.075em"
         d="M 270.27625,100 V 58 h 26.88 v 7.44 h -19.02 v 8.94 h 14.76 v 7.44 h -14.76 v 10.74 h 19.62 V 100 Z" />
      <path
         id="path30"
         style="font-family:Cabin;letter-spacing:0.075em"
         d="m 306.89781,100 5.82,-42 h 6.3 l 10.26,19.14 10.2,-19.14 h 6.3 l 5.82,42 h -7.98 l -3.6,-28.14 -10.74,19.32 -10.8,-19.29 -3.6,28.11 z" />
      <path
         id="path32"
         style="font-family:Cabin;letter-spacing:0.075em"
         d="M 363.06531,100 V 58 h 14.94 q 7.26,0 11.1,3.27 3.84,3.27 3.84,10.29 0,7.11 -3.84,10.5 -3.81,3.36 -10.92,3.36 h -7.44 V 100 Z m 7.68,-21 h 6.54 q 3.93,0 5.88,-1.77 1.98,-1.77 1.98,-5.55 0,-3.78 -2.01,-5.52 -1.98,-1.74 -6.03,-1.74 h -6.36 z" />
      <path
         id="path34"
         style="font-family:Cabin;letter-spacing:0.075em"
         d="m 421.4875,100.84 q -6,0 -10.68,-2.7 -4.68,-2.73 -7.35,-7.62 -2.67,-4.92 -2.67,-11.52 0,-6.6 2.67,-11.49 2.67,-4.92 7.35,-7.62 4.68,-2.73 10.68,-2.73 6,0 10.68,2.73 4.68,2.7 7.35,7.62 2.67,4.89 2.67,11.49 0,6.6 -2.67,11.52 -2.67,4.89 -7.35,7.62 -4.68,2.7 -10.68,2.7 z m 0,-7.44 q 4.2,0 7.02,-1.86 2.82,-1.86 4.23,-5.1 1.41,-3.27 1.41,-7.44 0,-4.17 -1.41,-7.41 -1.41,-3.27 -4.23,-5.13 -2.82,-1.86 -7.02,-1.86 -4.2,0 -7.02,1.86 -2.82,1.86 -4.23,5.13 -1.41,3.24 -1.41,7.41 0,4.17 1.41,7.44 1.41,3.24 4.23,5.1 2.82,1.86 7.02,1.86 z" />
      <path
         id="path36"
         style="font-family:Cabin;letter-spacing:0.075em"
         d="M 453.39344,100 V 58 h 15.36 q 6.54,0 10.5,3.12 3.96,3.12 3.96,9.6 0,4.62 -1.98,7.35 -1.95,2.7 -5.16,4.29 l 9.48,17.64 h -8.58 l -8.1,-15.6 h -7.8 V 100 Z m 7.68,-22.02 h 5.64 q 4.74,0 6.6,-1.92 1.86,-1.95 1.86,-4.92 0,-3.15 -1.83,-4.92 -1.83,-1.8 -6.33,-1.8 h -5.94 z" />
      <path
         id="path38"
         style="font-family:Cabin;letter-spacing:0.075em"
         d="m 520.77062,100 -3.51,-9.96 h -15.24 l -3.51,9.96 h -7.44 l 14.94,-42 h 7.26 l 14.94001,42 z M 504.36063,83.32 h 10.55999 l -5.28,-15 z" />
      <path
         id="path40"
         style="font-family:Cabin;letter-spacing:0.075em"
         d="M 537.51062,100 V 58 h 7.56 l 17.94,27.12 V 58 h 7.68 v 42 h -6.3 l -19.2,-28.8 V 100 Z" />
      <path
         id="path42"
         style="font-family:Cabin;letter-spacing:0.075em"
         d="M 584.4325,100 V 58 h 26.88 v 7.44 h -19.02 v 8.94 h 14.76 v 7.44 h -14.76 v 10.74 h 19.62 V 100 Z" />
      <path
         id="path44"
         style="font-family:Cabin;letter-spacing:0.075em"
         d="m 648.29406,100 -3.51,-9.96 h -15.24 l -3.51,9.96 h -7.44 l 14.94,-42 h 7.26 l 14.94,42 z m -16.41,-16.68 h 10.56 l -5.28,-15 z" />
    </g>
  </g>
</svg>
