<?xml version="1.0" encoding="UTF-8" standalone="no"?>
<svg
   xmlns:dc="http://purl.org/dc/elements/1.1/"
   xmlns:cc="http://creativecommons.org/ns#"
   xmlns:rdf="http://www.w3.org/1999/02/22-rdf-syntax-ns#"
   xmlns:svg="http://www.w3.org/2000/svg"
   xmlns="http://www.w3.org/2000/svg"
   id="svg16"
   width="800px"
   version="1.1"
   height="200px">
  <metadata
     id="metadata20">
    <rdf:RDF>
      <cc:Work
         rdf:about="">
        <dc:format>image/svg+xml</dc:format>
        <dc:type
           rdf:resource="http://purl.org/dc/dcmitype/StillImage" />
      </cc:Work>
    </rdf:RDF>
  </metadata>
  <defs
     id="defs4">
    <style
       id="style2"
       type="text/css"><![CDATA[    
     @font-face {font-family:Cabin;
     src: url('/Users/francesco/Repos/write-logos/src/fonts/Fonts_E_TEMPORANEA/Cabin-Bold.ttf');}
     @font-face {font-family:Panic;
     src: url('/Users/francesco/Repos/write-logos/src/fonts/Fonts_X/Panic.ttf');}
     ]]></style>
  </defs>
  <g
     id="g14"
     style="font-size:60px">
    <g
       style="text-anchor:middle"
       id="text12"
       aria-label="EXTEMPORANEA">
      <path
         id="path22"
         style="font-family:Cabin;letter-spacing:0.075em"
         d="M 144.66297,100 V 58 h 26.88 v 7.44 h -19.02 v 8.94 h 14.76 v 7.44 h -14.76 v 10.74 h 19.62 V 100 Z" />
      <path
         id="path24"
         style="font-family:Panic;letter-spacing:0.05em"
         d="m 217.31641,50.429687 q 0.23437,0.0293 0.23437,0.234375 -0.32226,0.498047 -0.46875,1.289063 -1.05469,0.351562 -1.05469,0.9375 0.23438,0.0293 0.23438,0.234375 v 0.351562 q 0,0.205079 -1.05469,0.351563 l -0.11719,0.234375 v 0.234375 l 0.35157,0.46875 0.46875,-0.117188 0.82031,0.117188 q 0,-0.175781 1.75781,-0.46875 l 0.70313,0.117187 q 0,-0.175781 3.04687,-0.585937 h 0.11719 q 0.23437,0.0293 0.23437,0.234375 v 0.117187 q -0.32226,0.322266 -0.46875,1.171875 -0.9375,0.46875 -0.9375,0.703125 l 0.23438,0.820313 q -0.26367,0.205078 -1.17188,0.351562 0,0.351563 -0.11718,0.351563 0.46875,0.556641 0.46875,0.703125 -0.17579,0.46875 -0.35157,0.46875 -0.58593,-0.234375 -0.58593,-0.351563 -0.58594,0.205079 -0.58594,0.585938 0,0.205078 0.82031,0.703125 l -1.64062,3.632812 q -0.82032,0.644532 -0.82032,1.289063 0,0.527344 -0.9375,0.820312 l -0.23437,0.351563 q 0.35156,0.585937 0.35156,0.820312 -1.28906,0.117188 -1.28906,0.351563 v 0.351562 q 0.58594,0.615235 0.58594,0.9375 l -0.46875,0.351563 -0.58594,-0.46875 h -0.23438 q -0.17578,0 -0.35156,0.351562 v 0.46875 q 0.82031,0.146485 0.82031,0.585938 -0.58593,1.845703 -1.64062,3.046875 0,0.9375 -0.70313,0.9375 -0.23437,0.292969 -0.23437,0.46875 0,0.410156 0.9375,0.585937 0,0.351563 0.23437,1.171875 -0.82031,0.439454 -0.82031,0.585938 0,0.585937 0.46875,0.703125 0.41016,0 0.58594,-0.9375 0.70312,0.234375 0.70312,0.46875 v 0.351562 Q 214.15234,77.441406 214.15234,77.5 v 0.117187 q 0,0.146485 0.58594,0.46875 l 0.46875,-0.351562 h 0.35156 q 0.23438,0.0293 0.23438,0.234375 -0.11719,0.644531 -0.11719,1.054687 l 0.58594,0.117188 q 0.0586,0 0.46875,-0.117188 0.35156,1.171875 0.70312,1.171875 0.79102,0 1.05469,1.054688 0.38086,0 1.875,1.875 0.26367,0 0.35156,0.585937 -0.14648,0 -0.58593,0.585938 l 0.11718,0.585937 h 0.46875 l 0.58594,-0.46875 h 0.11719 q 0.20508,0 0.35156,0.585938 l -0.35156,0.585937 q 0,0.175782 0.46875,0.46875 l 0.82031,-0.234375 0.23438,0.46875 q -0.11719,0.205079 -0.11719,0.46875 0.20508,0.205079 1.28906,0.585938 0,0.527344 1.52344,1.640625 1.17187,1.40625 1.17187,1.640625 -0.79101,0.292969 -0.9375,0.820312 0.43946,0.351563 0.82032,0.351563 0.43945,-0.703125 0.58593,-0.703125 h 0.11719 q 0.32227,0 0.46875,0.820312 -0.46875,0.175782 -0.46875,0.351563 v 0.351562 q 0.11719,0.351563 0.70313,0.351563 0,-0.175781 0.35156,-0.351563 h 0.23437 q 0.23438,0.0293 0.23438,0.234375 0,0.585938 -0.23438,0.585938 0,0.117187 0.46875,0.703125 V 94.375 l -0.58593,0.117187 q -0.11719,0 -0.35157,-0.117187 -0.43945,0.234375 -0.9375,0.234375 -0.23437,0 -0.23437,-0.234375 l 0.35156,-0.585938 q -0.11719,-0.46875 -0.70312,-0.46875 -0.23438,0.05859 -0.46875,0.585938 0.14648,0 0.58593,0.585937 0,0.205079 -1.99218,0.46875 -0.23438,0 -0.23438,-0.234375 l 0.35156,-0.585937 v -0.117188 q -0.11718,-0.351562 -0.70312,-0.351562 -0.17578,0 -0.35156,0.351562 v 0.234375 q 0.46875,0.527344 0.46875,0.585938 0,0.205078 -1.875,0.46875 -0.23438,0 -0.23438,-0.351563 0.23438,-0.380859 0.23438,-0.703125 l -0.35157,-0.234375 h -0.35156 q -0.23437,0.0293 -0.23437,0.234375 v 0.46875 l 0.35156,0.46875 q 0,0.234375 -0.23438,0.234375 h -0.58593 q -0.11719,0 -0.11719,-0.117187 -0.73242,0.351562 -1.05469,0.351562 l -0.11719,-0.234375 V 95.3125 l 0.23438,-0.351563 v -0.351562 q 0,-0.117188 -0.46875,-0.351563 -0.46875,0.175782 -0.46875,0.351563 v 0.351562 l 0.35156,0.46875 v 0.117188 q 0,0.234375 -0.23437,0.234375 h -0.58594 q -0.11719,0 -0.11719,-0.117188 -0.38086,0.234375 -0.70312,0.234375 h -0.23438 q -0.23437,0 -0.23437,-0.234375 0.35156,-0.46875 0.35156,-0.703125 -0.43945,-0.351562 -0.82031,-0.351562 l -0.23438,0.351562 v 0.46875 q 0.46875,0.05859 0.46875,0.351563 0,0.263672 -0.58594,0.351562 -0.9375,0 -1.28906,-0.9375 -0.9375,-1.171875 -0.9375,-1.640625 0.32227,-0.08789 0.58594,-0.585937 v -0.117188 q 0,-0.175781 -0.35156,-0.351562 l -1.05469,0.117187 -0.11719,-0.234375 q -0.87891,0.234375 -0.9375,0.234375 -0.11719,-0.234375 -0.11719,-0.351562 0.23438,-0.380859 0.23438,-0.703125 0,-0.234375 -0.70313,-0.351563 l -0.35156,0.46875 v 0.117188 q 0.46875,0.527344 0.46875,0.585937 0,0.175782 -0.35156,0.351563 h -0.11719 q -1.02539,0 -1.875,-1.757813 -0.20508,0 -0.46875,-0.703125 0.49805,-0.292968 0.70313,-0.820312 -0.38086,-0.351563 -0.58594,-0.351563 l -0.82031,0.117188 -0.11719,-0.234375 v -0.820313 q -1.40625,-0.351562 -1.40625,-1.171875 -0.29297,-0.117187 -0.9375,-1.171875 v -0.117187 q 0,-0.08789 0.58594,-0.585938 v -0.46875 q 0,-0.175781 -0.35157,-0.351562 h -0.11718 q -0.32227,0 -0.70313,2.578125 l -0.9375,0.9375 q 0.23438,0.380859 0.23438,0.703125 0,0.234375 -0.23438,0.234375 h -0.82031 q 0,0.175781 -0.23438,0.46875 v 0.117187 l 0.82032,0.703125 q -0.61524,2.373047 -1.40625,3.046875 -0.11719,0 -0.11719,0.117188 l 0.23437,0.820312 q -1.17187,0.117188 -1.17187,0.351563 v 0.351562 l 0.58594,0.585938 v 0.117187 q 0,0.615235 -0.35157,0.703125 -0.70312,-0.585937 -0.82031,-0.585937 -0.17578,0 -0.58594,0.46875 0.20508,0.585937 0.70313,0.585937 0.0293,-0.234375 0.23437,-0.234375 h 0.23438 q 0.23437,0.0293 0.23437,0.234375 -0.29297,1.640625 -1.28906,1.640625 h -0.11719 q -0.23437,0 -0.23437,-0.234375 l 0.23437,-0.351562 v -0.351563 q 0,-0.175781 -0.35156,-0.351562 h -0.23437 q -0.17579,0 -0.35157,0.351562 v 0.234375 l 0.35157,0.46875 v 0.351563 h -0.35157 q -0.38086,0 -1.64062,0.234375 l -0.11719,-0.234375 v -0.117188 l 0.35156,-0.46875 V 97.65625 q -0.11718,-0.351563 -0.70312,-0.351563 -0.17578,0 -0.35156,0.351563 v 0.234375 q 0.46875,0.527344 0.46875,0.585937 0,0.205079 -2.10938,0.46875 l -0.11719,-0.234375 0.35157,-0.585937 v -0.117188 q -0.23438,-0.46875 -0.70313,-0.46875 -0.35156,0.38086 -0.35156,0.585938 l 0.46875,0.585937 v 0.117188 q 0,0.205078 -1.99219,0.46875 -0.11719,-0.234375 -0.11719,-0.351563 0.23438,-0.380859 0.23438,-0.703125 -0.46875,-0.234375 -0.46875,-0.351562 -0.46875,0.175781 -0.46875,0.351562 v 0.351563 l 0.35156,0.46875 q 0,0.175781 -0.35156,0.351562 h -0.46875 q -0.11719,0 -0.11719,-0.117187 -0.38086,0.234375 -0.70312,0.234375 h -0.23438 q -0.23437,0 -0.23437,-0.234375 l 0.23437,-0.351563 V 98.59375 q -0.11719,-0.351563 -0.70312,-0.351563 -0.23438,0.38086 -0.23438,0.585938 l 0.35156,0.585937 v 0.234375 l -0.58593,0.117188 q -0.11719,0 -0.35157,-0.117188 -0.43945,0.234375 -0.9375,0.234375 -0.23437,0 -0.23437,-0.234375 l 0.35156,-0.585937 -0.46875,-0.585938 v -0.234375 q 0,-0.175781 0.35156,-0.351562 0.43946,0.351562 0.82032,0.351562 0.35156,-0.46875 0.35156,-0.703125 -0.82031,-0.46875 -0.82031,-0.585937 0,-0.410156 0.70312,-1.289063 h -0.23437 q -0.17579,0 -1.05469,0.234375 l -0.11719,-0.234375 q 0.0293,-0.585937 0.23438,-0.585937 -0.17579,-0.585938 -0.70313,-0.585938 -0.35156,0.38086 -0.35156,0.585938 0,0.117187 0.46875,0.703125 0,0.234375 -2.10938,0.351562 v -0.117187 q 0,-0.08789 0.23438,-0.703125 -0.11719,-0.46875 -0.70313,-0.46875 -0.23437,0.46875 -0.35156,0.46875 0,0.117187 0.46875,0.703125 0,0.175781 -0.35156,0.351562 h -0.46875 q -0.11719,0 -0.11719,-0.117187 -0.43945,0.234375 -0.9375,0.234375 -0.23437,0 -0.23437,-0.234375 v -0.117188 l 0.23437,-0.351562 v -0.234375 q 0,-0.05859 -0.46875,-0.585938 0.17578,-0.46875 0.35156,-0.46875 h 0.11719 q 0.46875,0.351563 0.70313,0.351563 l 0.35156,-0.46875 v -0.117188 q 0,-0.175781 -0.82031,-0.703125 V 93.4375 l 1.875,-3.632813 q 0,-0.05859 0.70312,-0.703125 l -0.11719,-0.820312 q 1.17188,-0.351563 1.17188,-0.9375 -0.23438,0 -0.23438,-0.234375 v -0.46875 q 0.0293,-0.234375 0.23438,-0.234375 h 0.11719 q 0.29296,0.234375 0.46875,0.234375 0.46875,-0.117188 0.46875,-0.703125 -0.14649,0 -0.58594,-0.585938 V 85 q 0,-0.175781 0.35156,-0.351563 0.52734,0.46875 0.58594,0.46875 h 0.35156 Q 189.30859,85 189.30859,84.414062 q -0.9375,-0.410156 -0.9375,-0.585937 0,-0.820313 1.64063,-3.046875 0,-1.054688 0.82031,-1.054688 0.23438,-0.380859 0.23438,-0.703125 -0.23438,0 -0.23438,-0.234375 v -0.117187 q 0,-0.205078 1.05469,-0.351563 0.11719,-0.351562 0.23437,-0.351562 0,-0.117188 -0.58593,-0.820313 V 77.03125 q 0,-0.175781 0.35156,-0.351563 h 0.23437 l 0.58594,0.351563 0.35156,-0.46875 v -0.351563 l -0.70312,-0.46875 V 75.625 q 0.58594,-1.40625 0.70312,-2.578125 0.82032,0 0.82032,-0.46875 v -0.117188 q 0,-0.322265 -1.28907,-0.46875 0,-1.02539 -1.17187,-1.289062 -1.64063,-1.875 -1.64063,-2.34375 h 0.58594 q 0.35156,-0.117188 0.35156,-0.703125 l -0.35156,-0.234375 h -0.35156 q -0.14649,0 -0.58594,0.820312 -0.14648,0 -0.58594,-0.585937 v -0.234375 l 0.58594,-0.703125 q 0,-0.175781 -0.46875,-0.46875 -0.38086,0 -0.82031,0.351562 h -0.11719 q -0.23437,0 -0.23437,-0.234375 0.11718,-0.644531 0.11718,-0.9375 l -0.46875,-0.234375 -0.70312,0.117188 -0.23438,-0.351563 0.11719,-0.585937 q -0.43945,-0.322266 -1.17187,-0.46875 0,-0.234375 -2.69532,-3.046875 v -0.46875 q 0.70313,-0.08789 0.70313,-0.703125 -0.43945,-0.351563 -0.70313,-0.351563 -0.32226,0.703125 -0.46875,0.703125 h -0.11718 q -0.29297,0 -0.46875,-0.820312 0.17578,0 0.35156,-0.351563 v -0.234375 q 0,-0.175781 -0.46875,-0.351562 -0.38086,0.234375 -0.70313,0.234375 -0.23437,0 -0.35156,-1.289063 -0.35156,0 -0.35156,-0.117187 l -0.23438,0.117187 h -0.23437 l -1.05469,-1.40625 0.35156,-0.234375 h 0.35157 q 0.26367,0 0.46875,0.117188 0.58593,-0.351563 0.9375,-0.351563 h 0.11718 q 0.11719,0 0.11719,0.117188 0.38086,-0.234375 0.70313,-0.234375 l 0.82031,0.117187 q 0,-0.234375 0.70312,-0.351562 l 0.23438,0.117187 q 0.38086,-0.234375 0.70312,-0.234375 L 184.97266,55 q 0,-0.175781 1.64062,-0.46875 l 0.58594,0.117187 q 0.17578,-0.234375 4.57031,-0.703125 l 0.23438,0.117188 q 0.20507,-0.117188 0.46875,-0.117188 0.17578,0 0.35156,0.351563 v 0.585937 q 0.61523,0 1.28906,1.640625 -0.9375,0.322266 -0.9375,0.585938 v 0.117187 q 0.23438,0.46875 0.70313,0.46875 0,-0.175781 0.46875,-0.46875 h 0.23437 q 0.23438,0 0.23438,0.46875 0.49804,-0.351562 2.69531,-0.351562 0.29297,0 0.46875,0.9375 0.61523,0.263672 1.17187,1.289062 v 0.234375 l -0.9375,0.703125 q 0.0879,0.351563 0.70313,0.585938 0,-0.175781 0.58594,-0.46875 h 0.11718 q 0.23438,0.0293 0.23438,0.234375 v 0.351562 l -0.23438,0.351563 v 0.117187 q 0,0.322266 1.17188,0.46875 l 0.23437,0.585938 h 0.11719 v -0.117188 l -0.35156,-0.585937 v -0.351563 q 0,-0.234375 0.35156,-0.234375 0.38086,0.234375 0.58594,0.234375 0.46875,-0.117187 0.46875,-0.703125 -0.46875,-0.234375 -0.46875,-0.351562 l -0.23438,0.117187 h -0.11718 q -0.23438,0 -0.23438,-0.234375 v -0.234375 q 0,-0.820312 0.70313,-1.523437 v -0.234375 l -0.11719,-0.585938 q 0.38086,-0.292968 1.05469,-0.351562 v -0.585938 l -0.46875,-0.46875 q 0.0879,-0.703125 0.35156,-0.703125 h 0.23437 q 0,0.46875 0.70313,0.585938 l 0.35156,-0.46875 q -0.14648,-0.585938 -0.35156,-0.585938 l -0.82031,0.117188 -0.11719,-0.234375 q 0,-0.908203 0.9375,-1.875 l -0.11719,-0.703125 q 0,-0.263672 0.58594,-0.351563 v 0.117188 q 0.73242,-0.46875 2.22656,-0.46875 l 0.23438,0.117187 q 0.61523,-0.351562 1.17187,-0.351562 v 0.117187 q 0.46875,-0.234375 0.82031,-0.234375 l 0.70313,0.117188 q 0,-0.205078 0.70312,-0.351563 l 0.23438,0.117188 Q 210.63672,51.25 210.87109,51.25 q 0.46875,0.117187 0.82032,0.117187 0,-0.175781 1.64062,-0.46875 l 0.70313,0.117188 q 0.26367,-0.205078 3.28125,-0.585938 z m -2.22657,0.703125 q -0.35156,0.38086 -0.35156,0.585938 0.17578,0.46875 0.35156,0.46875 h 0.23438 q 0.17578,0 0.35156,-0.351563 v -0.351562 q 0,-0.263672 -0.58594,-0.351563 z m -2.57812,0.351563 q 0,0.175781 -0.23438,0.46875 v 0.117187 q 0,0.175782 0.46875,0.46875 h 0.11719 q 0.46875,-0.234375 0.46875,-0.703125 l -0.46875,-0.351562 z m -2.34375,0.351562 -0.35156,0.46875 v 0.117188 l 0.46875,0.46875 q 0.52734,-0.234375 0.58593,-0.46875 V 52.1875 q -0.11718,-0.351563 -0.70312,-0.351563 z m -2.34375,0.234375 -0.35156,0.46875 0.11718,0.585938 h 0.70313 l 0.11719,-0.585938 q -0.0586,-0.234375 -0.58594,-0.46875 z m -2.8125,0.9375 q 0.17578,0.46875 0.35156,0.46875 h 0.35156 q 0.23438,0 0.23438,-0.234375 v -0.351562 q 0,-0.175781 -0.46875,-0.46875 -0.23438,0.05859 -0.46875,0.585937 z m 8.67187,-0.117187 v 0.351562 q 0,0.234375 0.70313,0.351563 0.35156,-0.46875 0.35156,-0.703125 -0.38086,-0.351563 -0.58594,-0.351563 -0.46875,0.175782 -0.46875,0.351563 z m -2.46093,0.46875 q 0.20507,0.585937 0.70312,0.585937 0.35156,-0.46875 0.35156,-0.703125 -0.23437,0 -0.23437,-0.351562 h -0.46875 q -0.17578,0 -0.35156,0.46875 z m -2.46094,0.46875 q 0.0586,0 0.58594,0.46875 0.17578,0 0.46875,-0.46875 V 53.59375 q 0,-0.175781 -0.35157,-0.351563 h -0.35156 q -0.20508,0 -0.35156,0.585938 z m -2.34375,0.351562 q 0,0.146485 0.58594,0.46875 l 0.35156,-0.46875 v -0.46875 q -0.46875,0 -0.46875,-0.234375 -0.46875,0.117188 -0.46875,0.703125 z m -2.46094,0.234375 q 0.11719,0.46875 0.70313,0.46875 l 0.35156,-0.46875 v -0.117187 q -0.0586,-0.234375 -0.58594,-0.46875 -0.46875,0.117187 -0.46875,0.585937 z m 8.67188,0 v 0.234375 Q 212.74609,55 213.33203,55 l 0.35156,-0.46875 v -0.117188 q 0,-0.175781 -0.35156,-0.351562 h -0.35156 q -0.17578,0 -0.35156,0.351562 z m -21.91407,0 q 0,0.205079 -0.35156,0.585938 0,0.175781 0.46875,0.46875 h 0.23438 q 0.17578,0 0.35156,-0.351563 v -0.46875 q -0.17578,0 -0.46875,-0.234375 z m 19.45313,0.351563 V 55 q 0,0.234375 0.70312,0.351562 0,-0.234375 0.35157,-0.234375 v -0.351562 q 0,-0.175781 -0.35157,-0.351563 h -0.35156 q -0.17578,0 -0.35156,0.351563 z m 9.72656,0.117187 v 0.351563 q 0,0.351562 0.46875,0.351562 0.46875,-0.117187 0.46875,-0.703125 l -0.46875,-0.351562 h -0.11719 q -0.17578,0 -0.35156,0.351562 z m -31.875,0.351563 v 0.234375 q 0,0.175781 0.35156,0.351562 h 0.23438 q 0.11719,0 0.46875,-0.46875 -0.23438,-0.527343 -0.46875,-0.585937 h -0.11719 q -0.17578,0 -0.46875,0.46875 z M 207.82422,55 v 0.351562 q 0,0.263672 0.58594,0.351563 0.35156,-0.380859 0.35156,-0.585938 -0.11719,-0.234375 -0.11719,-0.351562 h -0.58594 Q 207.82422,54.794922 207.82422,55 Z m 9.84375,-0.117188 q -0.35156,0.439454 -0.35156,0.703125 0.46875,0.234375 0.46875,0.351563 0.52734,0 0.70312,-0.703125 -0.43945,-0.351563 -0.82031,-0.351563 z m -12.30469,0.820313 0.58594,0.351562 q 0,-0.234375 0.35156,-0.234375 v -0.46875 q 0,-0.292968 -0.46875,-0.351562 -0.46875,0.117187 -0.46875,0.703125 z m -19.57031,-0.585938 q 0,0.175782 -0.23438,0.46875 v 0.117188 q 0,0.175781 0.46875,0.46875 0.58594,-0.205078 0.58594,-0.703125 l -0.46875,-0.351563 z m 29.17969,0.46875 v 0.234375 q 0,0.175782 0.35156,0.351563 h 0.46875 q 0,-0.175781 0.23437,-0.46875 -0.23437,-0.46875 -0.58593,-0.46875 -0.46875,0.175781 -0.46875,0.351562 z M 183.33203,55.46875 q 0,0.175781 -0.23437,0.46875 v 0.117187 q 0,0.175782 0.35156,0.351563 h 0.35156 q 0.17578,0 0.35156,-0.351563 v -0.234375 q -0.11718,-0.351562 -0.70312,-0.351562 z m 8.4375,0.703125 0.46875,0.351562 h 0.11719 q 0.17578,0 0.46875,-0.46875 V 55.9375 q -0.23438,-0.46875 -0.58594,-0.46875 -0.46875,0.117187 -0.46875,0.703125 z m -10.66406,-0.46875 q -0.46875,0.527344 -0.46875,0.585937 0,0.175782 0.46875,0.46875 h 0.23437 q 0.11719,0 0.46875,-0.46875 -0.0586,-0.351562 -0.70312,-0.585937 z m 8.55469,0.117187 q -0.23438,0.46875 -0.35157,0.46875 0.20508,0.585938 0.70313,0.585938 l 0.35156,-0.46875 v -0.234375 q -0.11719,-0.351563 -0.70312,-0.351563 z m 29.0625,0.820313 q 0.46875,0.351562 0.70312,0.351562 l 0.35156,-0.46875 v -0.234375 q 0,-0.175781 -0.35156,-0.351562 -0.70312,0 -0.70312,0.703125 z m -11.71875,-0.585938 -0.35157,0.46875 q 0.17578,0.46875 0.35157,0.46875 h 0.11718 L 207.70703,56.875 v -0.46875 q -0.11719,-0.351563 -0.70312,-0.351563 z m -20.15625,0.585938 q 0.0879,0.322266 0.58593,0.585937 h 0.11719 q 0.46875,-0.234375 0.46875,-0.703125 l -0.46875,-0.351562 h -0.23437 q -0.11719,0 -0.46875,0.46875 z M 216.37891,56.40625 V 56.875 q 0.0586,0.234375 0.58593,0.46875 l 0.35157,-0.46875 v -0.234375 q 0,-0.175781 -0.35157,-0.351563 z m -12.07032,0.351562 0.11719,0.585938 h 0.46875 q 0.23438,-0.05859 0.46875,-0.585938 l -0.46875,-0.351562 h -0.23437 q -0.17579,0 -0.35157,0.351562 z M 184.50391,56.875 v 0.234375 q 0.23437,0.46875 0.70312,0.46875 0.35156,-0.46875 0.35156,-0.703125 l -0.46875,-0.351563 h -0.23437 q -0.17578,0 -0.35156,0.351563 z m -2.34375,0.234375 v 0.585937 l 0.58593,0.117188 q 0.35157,-0.117188 0.35157,-0.703125 -0.46875,-0.234375 -0.46875,-0.351563 -0.46875,0.175782 -0.46875,0.351563 z m 32.46093,-0.351563 q 0,0.46875 -0.46875,0.46875 v 0.117188 q 0,0.234375 0.35157,0.234375 0.23437,-0.117188 0.35156,-0.117188 v -0.703125 z m -23.90625,0.9375 0.70313,0.351563 0.35156,-0.46875 V 57.34375 q 0,-0.175781 -0.35156,-0.351563 -0.70313,0 -0.70313,0.703125 z m -2.34375,-0.234375 v 0.703125 q 0.61524,0.117188 0.70313,0.117188 l 0.23437,-0.351563 v -0.234375 q 0,-0.175781 -0.35156,-0.351562 z m 17.34375,0.585938 q 0.17578,0.46875 0.35157,0.46875 h 0.23437 q 0.17578,0 0.35156,-0.351563 0,-0.585937 -0.46875,-0.703125 -0.46875,0.117188 -0.46875,0.585938 z m 11.95313,0 q 0.43945,0.351562 0.82031,0.351562 l 0.35156,-0.585937 q -0.23437,0 -0.23437,-0.351563 h -0.58594 q -0.26367,0 -0.35156,0.585938 z m -31.75781,0.117187 q 0.11718,0.46875 0.70312,0.46875 0.23438,-0.46875 0.35156,-0.46875 -0.17578,-0.46875 -0.35156,-0.46875 h -0.35156 q -0.29297,0 -0.35156,0.46875 z m 9.96093,-0.351562 -0.35156,0.46875 v 0.234375 q 0.11719,0.351562 0.70313,0.351562 l 0.35156,-0.46875 V 58.28125 q -0.23438,-0.46875 -0.70313,-0.46875 z m 7.61719,0 q 0,0.175781 -0.23437,0.46875 v 0.117187 q 0,0.175782 0.46875,0.46875 h 0.11718 q 0.17578,0 0.35157,-0.351562 V 58.164062 Q 204.07422,57.8125 203.48828,57.8125 Z m 11.83594,0.234375 v 0.351562 q 0.11719,0.351563 0.70312,0.351563 0.35157,-0.46875 0.35157,-0.703125 L 216.02734,57.8125 h -0.46875 q -0.23437,0.0293 -0.23437,0.234375 z m -31.875,0.585937 q 0.46875,0.351563 0.70312,0.351563 0.35157,-0.380859 0.35157,-0.585938 -0.11719,-0.234375 -0.11719,-0.351562 h -0.58594 q -0.26367,0 -0.35156,0.585937 z m 23.55469,0.585938 0.46875,0.351562 q 0,-0.322265 0.58593,-0.351562 v -0.234375 q 0,-0.175781 -0.46875,-0.46875 -0.58593,0.175781 -0.58593,0.703125 z m 9.72656,-0.117188 v 0.351563 q 0,0.175781 0.46875,0.351562 0.46875,-0.117187 0.46875,-0.703125 0,-0.117187 -0.46875,-0.351562 -0.46875,0.175781 -0.46875,0.351562 z m -19.80469,0.117188 v 0.351562 q 0.11719,0.351563 0.70313,0.351563 l 0.23437,-0.351563 V 59.21875 q 0,-0.292969 -0.46875,-0.351563 -0.46875,0.175782 -0.46875,0.351563 z m 7.73438,0 v 0.351562 q 0.11718,0.351563 0.70312,0.351563 0.35156,-0.46875 0.35156,-0.703125 -0.38086,-0.351563 -0.58593,-0.351563 -0.46875,0.175782 -0.46875,0.351563 z m 9.60937,0.234375 0.11719,0.585937 h 0.58594 q 0.23437,0 0.23437,-0.234375 v -0.351562 q 0,-0.175781 -0.46875,-0.351563 -0.46875,0.175782 -0.46875,0.351563 z M 202.19922,59.6875 q 0.20508,0.585937 0.70312,0.585937 l 0.23438,-0.351562 v -0.117188 l -0.11719,-0.585937 h -0.46875 q -0.17578,0 -0.35156,0.46875 z m -7.73438,-0.117188 v 0.234375 h 0.11719 v -0.234375 z m 17.34375,0.234375 v 0.234375 h 0.11719 v -0.234375 z m -19.80468,0.117188 v 0.234375 h 0.11718 v -0.234375 z m 26.36718,0 -0.35156,0.46875 v 0.117187 q 0.0586,0.234375 0.58594,0.46875 0.46875,-0.175781 0.46875,-0.351562 v -0.351563 q -0.11719,-0.351562 -0.70313,-0.351562 z m -12.30468,0.46875 0.11718,0.585937 h 0.46875 q 0.17578,0 0.35157,-0.351562 v -0.234375 q 0,-0.175781 -0.35157,-0.351563 h -0.23437 q -0.17578,0 -0.35156,0.351563 z m 9.96093,-0.234375 -0.35156,0.46875 v 0.234375 q 0.0586,0.234375 0.58594,0.46875 0.46875,-0.585938 0.46875,-0.703125 -0.58594,-0.46875 -0.70313,-0.46875 z m -31.875,0.234375 q -0.35156,0.439453 -0.35156,0.820312 0.46875,0.234375 0.46875,0.351563 0.58594,-0.175781 0.58594,-0.820313 z m 19.45313,0.703125 0.35156,0.234375 0.58594,-0.117188 V 60.625 q 0,-0.234375 -0.23438,-0.234375 h -0.35156 q -0.35156,0.117187 -0.35156,0.703125 z m 9.96094,-0.585938 q -0.35157,0.38086 -0.35157,0.585938 0.17578,0.46875 0.35157,0.46875 h 0.46875 q 0.23437,-0.644531 0.23437,-0.703125 -0.43945,-0.351563 -0.70312,-0.351563 z m -8.20313,0.820313 -0.35156,0.46875 v 0.234375 q 0,0.175781 0.35156,0.351562 h 0.46875 q 0,-0.205078 0.23438,-0.585937 -0.58594,-0.46875 -0.70313,-0.46875 z m 11.71875,0.234375 v 0.351562 q 0.0586,0.234375 0.58594,0.46875 l 0.35156,-0.46875 v -0.234375 q 0,-0.175781 -0.35156,-0.351562 h -0.35156 q -0.23438,0.0293 -0.23438,0.234375 z m -19.80469,0.234375 v 0.234375 q 0.26368,0 0.70313,0.351562 l 0.23437,-0.351562 v -0.234375 q 0,-0.175781 -0.35156,-0.351563 h -0.23437 q -0.17579,0 -0.35157,0.351563 z m -12.07031,0.117187 v 0.234375 q 0,0.117188 0.46875,0.46875 0.32227,-0.08789 0.58594,-0.585937 v -0.117188 q -0.58594,0 -0.58594,-0.351562 h -0.11719 q -0.17578,0 -0.35156,0.351562 z m 29.41406,0.351563 q 0.0586,0.234375 0.58594,0.46875 l 0.35156,-0.46875 q 0,-0.585938 -0.46875,-0.703125 -0.46875,0.117187 -0.46875,0.703125 z m -11.71875,-0.585938 q -0.35156,0.38086 -0.35156,0.585938 0.17578,0.46875 0.35156,0.46875 l 0.58594,-0.117188 v -0.234375 q 0,-0.644531 -0.58594,-0.703125 z m 9.49219,0.234375 q 0,0.175782 -0.23437,0.46875 v 0.351563 q 0.17578,0 0.46875,0.234375 h 0.11718 q 0.17578,0 0.46875,-0.46875 v -0.117188 q 0,-0.175781 -0.46875,-0.46875 z m -17.57812,0.117188 v 0.234375 h 0.11718 V 62.03125 Z m -2.46094,0.351562 v 0.234375 h 0.11719 v -0.234375 z m 6.21094,0.703125 q 0.20507,0.46875 0.82031,0.46875 l 0.23437,-0.351562 v -0.46875 q -0.17578,0 -0.46875,-0.234375 h -0.11718 q -0.14649,0 -0.46875,0.585937 z M 186.61328,62.96875 q 0.0879,0.703125 0.35156,0.703125 h 0.23438 q 0.23437,0 0.23437,-0.234375 -0.58593,0 -0.58593,-0.703125 -0.23438,0.0293 -0.23438,0.234375 z m 29.64844,-0.234375 -0.23438,0.351562 V 63.4375 q 0,0.175781 0.46875,0.351562 l 0.58594,-0.46875 q -0.17578,-0.585937 -0.82031,-0.585937 z m -12.07031,0.117187 -0.35157,0.585938 q 0.52735,0.46875 0.58594,0.46875 0.46875,-0.175781 0.46875,-0.351563 v -0.351562 q -0.11719,-0.351563 -0.70312,-0.351563 z m 9.375,0.585938 q 0,0.498047 0.46875,0.703125 0.32226,-0.08789 0.58593,-0.585938 0,-0.175781 -0.46875,-0.46875 h -0.23437 q -0.17578,0 -0.35156,0.351563 z m -11.71875,-0.234375 q 0,0.234375 -0.23438,0.234375 0.35156,0.527344 0.35156,0.703125 h 0.23438 q 0.35156,-0.117188 0.35156,-0.703125 -0.38086,-0.234375 -0.70312,-0.234375 z m 9.25781,0.703125 q 0.17578,0.46875 0.35156,0.46875 h 0.35156 q 0.23438,0 0.23438,-0.234375 v -0.46875 q 0,-0.234375 -0.23438,-0.234375 h -0.35156 q -0.11719,0 -0.35156,0.46875 z m -5.74219,0.351562 v 0.351563 q 0,0.175781 0.46875,0.351562 L 206.41797,64.375 q -0.29297,0 -0.35156,-0.46875 -0.70313,0.05859 -0.70313,0.351562 z m 9.84375,-0.117187 -0.23437,0.351562 0.11718,0.585938 h 0.58594 q 0.23438,0 0.23438,-0.234375 v -0.351563 q -0.11719,-0.351562 -0.70313,-0.351562 z m -12.30469,0.46875 v 0.234375 q 0,0.117187 0.46875,0.46875 0.46875,-0.175781 0.46875,-0.351563 V 64.84375 l -0.11718,-0.585938 h -0.46875 q -0.17579,0 -0.35157,0.351563 z m 9.60938,0.234375 v 0.234375 q 0,0.175781 0.35156,0.351562 h 0.35156 q 0.17578,0 0.35157,-0.46875 -0.11719,-0.46875 -0.70313,-0.46875 -0.17578,0 -0.35156,0.351563 z m -17.34375,-0.234375 v 0.234375 h 0.11719 v -0.234375 z m 14.88281,0.703125 q 0.17578,0.46875 0.35156,0.46875 h 0.35157 q 0.35156,-0.117188 0.35156,-0.703125 l -0.23438,-0.117188 h -0.11718 q -0.70313,0.263672 -0.70313,0.351563 z m -5.85937,0.703125 0.46875,0.351562 h 0.23437 q 0.17578,0 0.35156,-0.351562 v -0.351563 q 0,-0.234375 -0.23437,-0.234375 h -0.35156 q -0.23438,0.05859 -0.46875,0.585938 z m 9.72656,0 V 66.25 q 0,0.175781 0.35156,0.351562 h 0.23438 q 0.23437,-0.05859 0.46875,-0.585937 l -0.58594,-0.46875 q -0.17578,0 -0.46875,0.46875 z m -2.10938,-0.117188 q -0.23437,0.46875 -0.35156,0.46875 0.23438,0.38086 0.23438,0.585938 h 0.11718 l 0.58594,-0.117188 V 66.25 q 0,-0.263672 -0.58594,-0.351563 z m -9.02343,0.234375 v 0.234375 h 0.11718 v -0.234375 z m 6.79687,0.9375 V 67.1875 h 0.35156 q 0.11719,-0.410156 0.11719,-0.46875 h -0.11719 q -0.17578,0 -0.35156,0.351562 z m 3.28125,0.585938 q 0.11719,0.351562 0.70313,0.351562 0.35156,-0.46875 0.35156,-0.703125 -0.38086,-0.351562 -0.58594,-0.351562 -0.46875,0.117187 -0.46875,0.703125 z m -2.46094,0.351562 q 0.46875,0.351563 0.70313,0.351563 0.35156,-0.46875 0.35156,-0.703125 -0.38086,-0.351563 -0.58594,-0.351563 -0.46875,0.117188 -0.46875,0.703125 z m -17.34375,-0.585937 v 0.234375 h 0.11719 v -0.234375 z m -1.64062,0.9375 q -0.35156,0.380859 -0.35156,0.585937 0.11718,0.46875 0.58593,0.46875 0.46875,-0.117187 0.46875,-0.585937 -0.11718,0 -0.70312,-0.46875 z m 20.39062,0.585937 q 0.17578,0.46875 0.35157,0.46875 h 0.23437 q 0.17578,0 0.35156,-0.351562 l -0.11718,-0.585938 h -0.46875 q -0.17579,0 -0.35157,0.46875 z m -8.67187,-0.351562 v 0.234375 h 0.11719 V 68.59375 Z m 6.21094,0.703125 q 0.11718,0.46875 0.70312,0.46875 0,-0.234375 0.35156,-0.234375 0,-0.615234 -0.35156,-0.703125 h -0.35156 q -0.17578,0 -0.35156,0.46875 z m 4.21875,0.117187 q 0,0.175782 -0.46875,0.46875 0.23437,0.527344 0.46875,0.585938 h 0.23437 q 0.17578,0 0.35156,-0.351563 v -0.46875 q -0.20507,0 -0.58593,-0.234375 z M 192.47266,70 v 0.117187 q 0,0.175782 0.46875,0.46875 h 0.11718 q 0.23438,-0.05859 0.46875,-0.585937 -0.70312,0 -0.70312,-0.351563 -0.17578,0 -0.35156,0.351563 z m 18.63281,-0.234375 q -0.35156,0.380859 -0.35156,0.585937 0.17578,0.46875 0.35156,0.46875 h 0.23437 q 0.46875,-0.234375 0.46875,-0.703125 -0.43945,-0.351562 -0.70312,-0.351562 z m -2.46094,0.351562 -0.23437,0.351563 v 0.351562 q 0,0.351563 0.46875,0.351563 0.23437,-0.117188 0.35156,-0.117188 V 70.46875 q 0,-0.263672 -0.58594,-0.351563 z m 3.51563,1.40625 q 0.17578,0.46875 0.35156,0.46875 h 0.23437 q 0.17578,0 0.35157,-0.351562 v -0.351563 q 0,-0.175781 -0.35157,-0.351562 h -0.23437 q -0.26367,0 -0.35156,0.585937 z m -18.28125,-0.46875 v 0.351563 h 0.23437 q -0.11719,-0.234375 -0.11719,-0.351563 z m 15.82031,0.9375 0.46875,0.351563 q 0.17578,0 0.58594,-0.46875 -0.0586,-0.585938 -0.70313,-0.585938 -0.35156,0.117188 -0.35156,0.703125 z m 1.40625,0.703125 v 0.234375 q 0.23437,0.46875 0.70312,0.46875 0.35157,-0.46875 0.35157,-0.703125 l -0.46875,-0.351562 h -0.23438 q -0.17578,0 -0.35156,0.351562 z m -2.10938,0 V 72.8125 q 0.17578,0 0.46875,0.234375 h 0.11719 v -0.117188 q 0,-0.234375 -0.23437,-0.234375 z m -14.76562,0.820313 V 73.75 q 0,0.351562 0.46875,0.351562 0.46875,-0.175781 0.46875,-0.351562 v -0.46875 l -0.58594,-0.117188 q -0.17578,0 -0.35156,0.351563 z M 203.72266,73.75 v 0.234375 h 0.11718 V 73.75 Z m 6.32812,0.585937 q 0.58594,0 0.58594,0.351563 h 0.11719 q 0.23437,0 0.23437,-0.234375 v -0.351563 q 0,-0.234375 -0.23437,-0.234375 h -0.35157 q -0.17578,0 -0.35156,0.46875 z M 195.87109,74.21875 q -0.35156,0.439453 -0.35156,0.703125 0.38086,0.351562 0.58594,0.351562 0.46875,-0.175781 0.46875,-0.351562 v -0.351563 q -0.11719,-0.351562 -0.70313,-0.351562 z m -2.46093,0.351562 -0.35157,0.46875 q 0.0293,0.322266 0.58594,0.585938 0.58594,-0.205078 0.58594,-0.703125 -0.43945,-0.351563 -0.82031,-0.351563 z m 18.39843,0.234375 q 0,0.234375 -0.35156,0.234375 v 0.351563 q 0,0.175781 0.46875,0.46875 0.17578,0 0.58594,-0.46875 -0.17578,-0.585938 -0.70313,-0.585938 z m -14.88281,0.9375 v 0.117188 q 0.23438,0.46875 0.70313,0.46875 l 0.35156,-0.46875 v -0.117188 q 0,-0.175781 -0.46875,-0.46875 h -0.11719 q -0.17578,0 -0.46875,0.46875 z m -2.34375,0 v 0.703125 q 0.17578,0 0.46875,0.234375 0.17578,0 0.46875,-0.46875 v -0.234375 q 0,-0.175781 -0.35156,-0.351562 z m 9.49219,0.46875 v 0.234375 q 0.23437,0 0.23437,-0.234375 z m -7.96875,0.585938 q 0,0.175781 -0.23438,0.46875 0.11719,0.46875 0.70313,0.46875 0.17578,0 0.35156,-0.351563 v -0.234375 q 0,-0.175781 -0.35156,-0.351562 z m -2.69531,0.9375 q 0.43945,0.351562 0.82031,0.351562 l 0.35156,-0.46875 q 0,-0.175781 -0.46875,-0.585937 -0.52734,0 -0.70312,0.703125 z m 3.86718,0.46875 V 78.4375 q 0.0293,0.234375 0.23438,0.234375 l 0.46875,-0.820313 q -0.11719,0 -0.11719,-0.117187 -0.52734,0.234375 -0.58594,0.46875 z m -2.34375,0.234375 v 0.351562 q 0,0.175782 0.35157,0.351563 h 0.23437 q 0.17578,0 0.35156,-0.351563 v -0.234375 q 0,-0.117187 -0.46875,-0.46875 -0.46875,0.175782 -0.46875,0.351563 z m -2.46093,0.351562 v 0.351563 q 0,0.175781 0.35156,0.351562 h 0.23437 q 0.17578,0 0.35157,-0.351562 v -0.351563 q 0,-0.175781 -0.46875,-0.351562 -0.46875,0.175781 -0.46875,0.351562 z m 11.95312,0 v 0.234375 h 0.11719 v -0.234375 z m -7.85156,0.46875 -0.35156,0.46875 v 0.117188 q 0,0.175781 0.46875,0.46875 l 0.58593,-0.46875 v -0.234375 q -0.11718,-0.351563 -0.70312,-0.351563 z m -2.46094,0.351563 q -0.23437,0.46875 -0.35156,0.46875 0.17578,0.46875 0.35156,0.46875 h 0.58594 q 0,-0.205078 0.23437,-0.585938 -0.43945,-0.351562 -0.82031,-0.351562 z m 21.32813,0.117187 v 0.234375 h 0.11718 v -0.234375 z m -23.67188,0.117188 -0.35156,0.46875 v 0.234375 q 0,0.175781 0.35156,0.351562 h 0.46875 q 0,-0.205078 0.23438,-0.585937 -0.58594,-0.46875 -0.70313,-0.46875 z m 22.73438,0 v 0.351562 h 0.11718 V 79.84375 Z m -13.47657,0.703125 v 0.351562 q 0.38086,0.234375 0.70313,0.234375 l 0.23437,-0.351562 h -0.11718 l -0.58594,0.117187 q -0.11719,-0.234375 -0.11719,-0.351562 z m -5.85937,0.585937 q 0.20508,0.585938 0.70312,0.585938 L 196.22266,81.25 v -0.234375 q 0,-0.175781 -0.35157,-0.351563 h -0.35156 q -0.11719,0 -0.35156,0.46875 z m 20.85937,-0.117187 q 0.58594,0 0.58594,0.585937 h 0.23438 l 0.11718,-0.585937 -0.46875,-0.351563 h -0.11718 q -0.17579,0 -0.35157,0.351563 z m -23.20312,0.351562 v 0.234375 q 0,0.175782 0.35156,0.351563 h 0.23438 q 0.17578,0 0.35156,-0.351563 l -0.11719,-0.585937 h -0.46875 q -0.17578,0 -0.35156,0.351562 z m 9.96094,-0.234375 q -0.46875,0.527344 -0.46875,0.585938 0,0.175781 0.46875,0.46875 h 0.23437 q 0.17578,0 0.35156,-0.351563 -0.14648,-0.498046 -0.58593,-0.703125 z M 204.77734,81.25 v 0.234375 h 0.11719 V 81.25 Z m -14.41406,0.46875 v 0.234375 q 0.11719,0.351562 0.70313,0.351562 l 0.35156,-0.46875 V 81.71875 q 0,-0.175781 -0.35156,-0.351563 h -0.35157 q -0.17578,0 -0.35156,0.351563 z m 10.3125,-0.117188 q -0.11719,0.820313 -0.11719,0.9375 0.11719,0 0.46875,-0.46875 -0.17578,-0.46875 -0.35156,-0.46875 z m 16.64063,0.820313 q 0.46875,0 0.46875,0.351562 h 0.11718 q 0.11719,0 0.46875,-0.46875 -0.23437,-0.527343 -0.46875,-0.585937 h -0.23437 q -0.35156,0.117187 -0.35156,0.703125 z m -23.20313,0.351562 q 0.43945,0.351563 0.82031,0.351563 l 0.23438,-0.351563 v -0.351562 q 0,-0.234375 -0.23438,-0.234375 h -0.46875 q -0.26367,0 -0.35156,0.585937 z m 3.39844,-0.585937 v 0.234375 h 0.11719 V 82.1875 Z m 17.34375,0.234375 v 0.234375 h 0.11719 v -0.234375 z m -23.08594,0.351562 V 83.125 q 0,0.175781 0.46875,0.351562 0.46875,-0.175781 0.46875,-0.351562 v -0.351563 q 0,-0.234375 -0.23437,-0.234375 h -0.46875 q -0.23438,0.0293 -0.23438,0.234375 z m 9.84375,-0.117187 -0.35156,0.585937 q 0.52734,0.46875 0.58594,0.46875 0.58593,-0.205078 0.58593,-0.703125 -0.43945,-0.351562 -0.82031,-0.351562 z m -12.30469,0.585937 q 0,0.175782 0.46875,0.585938 0.58594,-0.205078 0.58594,-0.703125 -0.38086,-0.351563 -0.58594,-0.351563 -0.38086,0.117188 -0.46875,0.46875 z m 14.53125,-0.46875 v 0.234375 q 0,0.175782 0.35157,0.351563 h 0.35156 v -0.117188 q -0.43945,0 -0.70313,-0.46875 z m 14.88282,0.46875 v 0.234375 q 0,0.146485 0.58593,0.46875 0,-0.05859 0.46875,-0.585937 -0.11718,-0.46875 -0.70312,-0.46875 -0.17578,0 -0.35156,0.351562 z m -25.54688,0.585938 v 0.351562 q 0.0293,0.234375 0.23438,0.234375 h 0.46875 q 0.23437,0 0.23437,-0.234375 v -0.351562 q 0,-0.175781 -0.46875,-0.351563 -0.46875,0.175782 -0.46875,0.351563 z m 9.49219,0.585937 q 0.43945,0.351563 0.82031,0.351563 0,-0.205078 0.35156,-0.585938 0,-0.175781 -0.46875,-0.46875 h -0.23437 q -0.46875,0.234375 -0.46875,0.703125 z m -12.07031,-0.117187 q 0.11718,0.46875 0.70312,0.46875 h 0.11719 q 0.35156,-0.117188 0.35156,-0.703125 -0.38086,-0.234375 -0.70312,-0.234375 -0.17579,0 -0.46875,0.46875 z m 9.72656,0.117187 v 0.234375 q 0,0.117188 0.46875,0.46875 Q 201.26172,85 201.26172,84.414062 v -0.117187 q 0,-0.234375 -0.23438,-0.234375 h -0.35156 q -0.17578,0 -0.35156,0.351562 z m 7.73437,0.117188 v 0.234375 h 0.11719 V 84.53125 Z m -15.58593,0.351562 -0.35157,0.46875 v 0.234375 q 0,0.175782 0.35157,0.351563 h 0.46875 q 0,-0.205078 0.23437,-0.585938 -0.58594,-0.46875 -0.70312,-0.46875 z m 11.71875,0.234375 v 0.351563 q 0,0.351562 0.46875,0.351562 0.46875,-0.175781 0.46875,-0.351562 v -0.234375 q 0,-0.175781 -0.35157,-0.351563 h -0.35156 q -0.23437,0.0293 -0.23437,0.234375 z m 11.01562,-0.234375 v 0.351563 h 0.11719 v -0.351563 z m -25.19531,0.351563 q -0.35156,0.380859 -0.35156,0.585937 0.17578,0.46875 0.35156,0.46875 h 0.35156 q 0.11719,0 0.35156,-0.46875 -0.17578,-0.585937 -0.70312,-0.585937 z m 11.83594,0 q 0,0.205078 -0.23438,0.585937 0.43945,0.351563 0.82031,0.351563 0,-0.175781 0.35157,-0.351563 -0.14649,-0.585937 -0.35157,-0.585937 z m 5.15625,0.9375 v 0.117187 q 0.17578,0 0.46875,0.234375 h 0.11718 l 0.46875,-0.351562 q -0.11718,-0.703125 -0.58593,-0.703125 -0.46875,0.117187 -0.46875,0.703125 z M 199.26953,85.9375 v 0.234375 q 0.11719,0.351562 0.70313,0.351562 l 0.35156,-0.46875 V 85.9375 q 0,-0.175781 -0.35156,-0.351563 h -0.35157 q -0.17578,0 -0.35156,0.351563 z m -5.85937,0.703125 0.23437,0.117187 0.23438,-0.703125 h -0.11719 q -0.20508,0 -0.35156,0.585938 z m 10.07812,-0.46875 q -0.46875,0.380859 -0.46875,0.703125 0.38086,0.351562 0.58594,0.351562 0.46875,-0.175781 0.46875,-0.351562 v -0.46875 q -0.20508,0 -0.58594,-0.234375 z m -12.1875,0.117187 -0.35156,0.585938 q 0.20508,0.46875 0.82031,0.46875 l 0.35156,-0.46875 v -0.117188 q -0.17578,-0.46875 -0.82031,-0.46875 z m 9.375,0.9375 q 0,0.175782 0.46875,0.351563 0.46875,-0.175781 0.46875,-0.351563 V 86.875 q 0,-0.117188 -0.46875,-0.351563 -0.46875,0.117188 -0.46875,0.703125 z m 7.96875,-0.703125 -0.23437,0.351563 v 0.351562 q 0,0.175782 0.46875,0.351563 0.32226,-0.08789 0.58593,-0.585938 -0.17578,-0.46875 -0.82031,-0.46875 z m -20.03906,0.46875 v 0.46875 q 0.17578,0 0.46875,0.234375 h 0.11719 q 0.17578,0 0.46875,-0.46875 v -0.117187 q 0,-0.175781 -0.46875,-0.46875 h -0.23438 q -0.17578,0 -0.35156,0.351562 z m 10.07812,0.820313 h 0.23438 q 0.17578,0 0.35156,-0.46875 -0.11719,-0.234375 -0.11719,-0.351563 -0.17578,0 -0.46875,0.820313 z m -0.46875,-0.585938 v 0.234375 h 0.11719 v -0.234375 z m -5.74218,0.585938 v 0.351562 q 0.0293,0.234375 0.23437,0.234375 h 0.11719 q 0,-0.351562 0.58594,-0.351562 V 87.8125 q 0,-0.175781 -0.35157,-0.351563 h -0.23437 q -0.17578,0 -0.35156,0.351563 z m 23.08593,-0.351563 v 0.234375 h 0.11719 v -0.234375 z m -19.80468,0.117188 V 87.8125 h 0.11718 v -0.234375 z m 26.36718,0 v 0.117187 q 0.58594,0.08789 0.58594,0.585938 h 0.11719 v -0.351563 q 0,-0.175781 -0.35156,-0.351562 z m -20.15625,0.703125 q 0.52735,0.46875 0.58594,0.46875 0.46875,-0.175781 0.46875,-0.351563 v -0.351562 q 0,-0.175781 -0.35156,-0.351563 h -0.23438 q -0.23437,0.05859 -0.46875,0.585938 z m 7.85157,-0.234375 0.11718,0.585937 h 0.58594 q 0.23438,0 0.23438,-0.234375 v -0.234375 q -0.58594,0 -0.58594,-0.46875 -0.17578,0 -0.35156,0.351563 z m -19.80469,0.117187 v 0.234375 q 0,0.117188 0.46875,0.46875 0.46875,-0.175781 0.46875,-0.351562 v -0.351563 q 0,-0.175781 -0.35156,-0.351562 h -0.23438 q -0.17578,0 -0.35156,0.351562 z m 9.60937,0.234375 v 0.234375 q 0,0.175782 0.35157,0.351563 h 0.35156 q 0.35156,-0.117188 0.35156,-0.703125 l -0.58594,-0.351563 q -0.17578,0 -0.46875,0.46875 z m -12.07031,0.46875 0.35156,0.234375 h 0.35157 q 0.17578,0 0.35156,-0.46875 -0.17578,-0.46875 -0.35156,-0.46875 h -0.35157 q -0.35156,0.117188 -0.35156,0.703125 z m 35.97656,-0.234375 q 0,0.234375 -0.35156,0.234375 v 0.351563 q 0.58594,0 0.58594,0.351562 h 0.11719 q 0.35156,-0.117187 0.35156,-0.703125 -0.38086,-0.234375 -0.70313,-0.234375 z m -31.875,0.234375 -0.35156,0.46875 q 0,0.175782 0.46875,0.46875 h 0.23438 q 0.23437,-0.05859 0.46875,-0.585937 -0.43946,-0.351563 -0.82032,-0.351563 z m 9.49219,0.234375 -0.11719,0.585938 q 0,0.175781 0.35157,0.351562 h 0.23437 q 0.17578,0 0.35156,-0.351562 v -0.234375 q 0,-0.175781 -0.35156,-0.351563 z m -12.1875,0.46875 v 0.234375 q 0,0.175782 0.35156,0.351563 h 0.23438 q 0.11719,0 0.46875,-0.46875 -0.11719,-0.46875 -0.70313,-0.46875 -0.17578,0 -0.35156,0.351562 z m -2.34375,0.234375 v 0.46875 q 0.0293,0.234375 0.23438,0.234375 0.49804,0 0.70312,-0.46875 0,-0.175781 -0.46875,-0.585937 -0.46875,0.175781 -0.46875,0.351562 z m 12.07031,-0.351562 -0.11718,0.585937 q 0,0.175782 0.35156,0.351563 h 0.23437 q 0.17578,0 0.46875,-0.46875 -0.17578,-0.46875 -0.35156,-0.46875 z m 26.25,0.234375 q -0.35156,0.439453 -0.35156,0.703125 0.23438,0 0.23438,0.351562 h 0.46875 q 0.17578,0 0.35156,-0.46875 -0.17578,-0.585937 -0.70313,-0.585937 z m -9.02343,0.234375 v 0.351562 h 0.11718 v -0.351562 z m -13.59375,0.9375 0.46875,0.351562 h 0.23437 q 0.17578,0 0.35156,-0.351562 v -0.351563 q 0,-0.175781 -0.46875,-0.351562 -0.58593,0.175781 -0.58593,0.703125 z m 7.85156,-0.351563 q 0,0.585938 0.46875,0.703125 0.46875,-0.175781 0.46875,-0.351562 0,-0.703125 -0.46875,-0.703125 -0.46875,0.175781 -0.46875,0.351562 z m -19.80469,0.351563 q 0.17578,0.46875 0.35156,0.46875 h 0.23438 q 0.17578,0 0.35156,-0.351563 v -0.46875 q -0.17578,0 -0.46875,-0.234375 -0.46875,0.234375 -0.46875,0.585938 z m 9.60938,0 v 0.351562 q 0.11718,0.351563 0.70312,0.351563 0.35156,-0.46875 0.35156,-0.703125 l -0.58593,-0.351563 q -0.46875,0.175782 -0.46875,0.351563 z M 188.13672,90.625 q 0,0.175781 -0.23438,0.46875 v 0.117187 q 0,0.175782 0.46875,0.46875 0.58594,-0.205078 0.58594,-0.703125 Q 188.51758,90.625 188.13672,90.625 Z m 9.375,0.585937 v 0.234375 l 0.46875,0.46875 q 0.58594,-0.205078 0.58594,-0.703125 -0.38086,-0.351562 -0.58594,-0.351562 -0.46875,0.175781 -0.46875,0.351562 z m -11.71875,-0.234375 -0.35156,0.46875 V 91.5625 q 0,0.175781 0.35156,0.351562 h 0.35156 q 0.17578,0 0.35156,-0.351562 v -0.234375 q -0.11718,-0.351563 -0.70312,-0.351563 z m 37.73437,0.585938 v 0.351562 q 0.64453,0.234375 0.70313,0.234375 l 0.35156,-0.46875 V 91.5625 q 0,-0.117188 -0.46875,-0.46875 -0.52734,0.234375 -0.58594,0.46875 z m -2.34375,0 v 0.585937 q 0,0.263672 0.58594,0.351563 0.35156,-0.380859 0.35156,-0.585938 -0.17578,-0.46875 -0.35156,-0.46875 z m -19.57031,0 -0.23437,0.351562 v 0.351563 q 0,0.351562 0.46875,0.351562 0.46875,-0.175781 0.46875,-0.351562 V 91.914062 Q 202.19922,91.5625 201.61328,91.5625 Z m -12.30469,0.46875 v 0.351562 q 0,0.234375 0.70313,0.351563 0.35156,-0.46875 0.35156,-0.703125 -0.38086,-0.351563 -0.58594,-0.351563 -0.46875,0.175782 -0.46875,0.351563 z m 29.41407,0.117187 v 0.234375 q 0,0.175782 0.46875,0.46875 0.17578,0 0.46875,-0.46875 l -0.11719,-0.585937 h -0.46875 q -0.17578,0 -0.35156,0.351562 z m -19.57032,-0.234375 -0.23437,0.351563 V 92.5 q 0,0.175781 0.35156,0.351562 h 0.35156 q 0.0879,0 0.35157,-0.351562 -0.17579,-0.585938 -0.82032,-0.585938 z M 186.84766,92.5 q 0,0.175781 0.46875,0.585937 0.58593,-0.205078 0.58593,-0.703125 -0.23437,0 -0.23437,-0.351562 h -0.46875 q -0.17578,0 -0.35156,0.46875 z m 29.41406,0 v 0.234375 q 0,0.117187 0.46875,0.46875 0.32226,-0.08789 0.58594,-0.585938 -0.11719,-0.46875 -0.70313,-0.46875 -0.17578,0 -0.35156,0.351563 z m 8.67187,0.117187 v 0.234375 q 0,0.117188 0.46875,0.46875 0.32227,0 0.58594,-0.585937 -0.17578,-0.46875 -0.35156,-0.46875 h -0.35156 q -0.17579,0 -0.35157,0.351562 z m -40.54687,0.351563 q 0.52734,0.46875 0.58594,0.46875 0.46875,-0.234375 0.46875,-0.585938 -0.17579,-0.46875 -0.35157,-0.46875 h -0.35156 q -0.20508,0 -0.35156,0.585938 z m 12.77344,-0.585938 q 0,0.351563 -0.23438,0.351563 h -0.11719 L 196.45703,92.5 v 0.46875 q 0.17578,0 0.46875,0.234375 h 0.23438 Q 197.51172,93.085937 197.51172,92.5 l -0.23438,-0.117188 z m 25.3125,0.9375 q 0.38086,0.234375 0.70312,0.234375 0.17578,0 0.35156,-0.351562 V 92.96875 q 0,-0.175781 -0.35156,-0.351563 h -0.35156 q -0.35156,0.117188 -0.35156,0.703125 z m -21.79688,-0.351562 -0.35156,0.46875 v 0.234375 q 0,0.175781 0.35156,0.351562 h 0.23438 q 0.11718,0 0.46875,-0.46875 -0.0586,-0.351562 -0.70313,-0.585937 z m 19.33594,0.46875 q 0.11719,0.46875 0.70312,0.46875 0.17578,0 0.35157,-0.351563 v -0.234375 q 0,-0.175781 -0.35157,-0.351562 h -0.35156 q -0.11719,0 -0.35156,0.46875 z m -31.75781,0.117187 v 0.234375 q 0.11718,0.351563 0.70312,0.351563 l 0.35156,-0.46875 q -0.17578,-0.46875 -0.35156,-0.46875 h -0.35156 q -0.17578,0 -0.35156,0.351562 z m 9.96093,-0.234375 -0.35156,0.46875 v 0.234375 q 0,0.175782 0.35156,0.351563 h 0.23438 q 0.46875,-0.234375 0.46875,-0.703125 -0.43945,-0.351563 -0.70313,-0.351563 z m 19.45313,0.234375 v 0.351563 q 0.11719,0.351562 0.70312,0.351562 l 0.35157,-0.585937 q -0.23438,0 -0.23438,-0.351563 h -0.58594 q -0.23437,0.0293 -0.23437,0.234375 z m -31.875,0.351563 v 0.234375 q 0.11719,0.351562 0.70312,0.351562 0,-0.234375 0.35157,-0.234375 V 93.90625 q 0,-0.175781 -0.35157,-0.351563 h -0.35156 q -0.17578,0 -0.35156,0.351563 z m 29.41406,0.117187 q 0.23438,0.527344 0.46875,0.585938 h 0.11719 q 0.17578,0 0.35156,-0.351563 V 93.90625 q 0,-0.292969 -0.46875,-0.351563 -0.17578,0 -0.46875,0.46875 z m 14.29688,-0.117187 h 0.46875 v 0.117187 q 0,0.234375 -0.23438,0.234375 h -0.23437 z M 189.66016,94.375 v 0.234375 q 0.23437,0 0.23437,-0.234375 z m 9.72656,0.117187 -0.11719,0.585938 q 0.11719,0.351562 0.70313,0.351562 l 0.23437,-0.351562 v -0.351563 q 0,-0.234375 -0.23437,-0.234375 z m -2.22656,0.234375 -0.35157,0.46875 v 0.351563 q 0.17578,0 0.46875,0.234375 h 0.11719 q 0.17578,0 0.46875,-0.46875 v -0.117188 q -0.23437,-0.46875 -0.70312,-0.46875 z m -2.8125,0.820313 q 0.20507,0.585937 0.70312,0.585937 l 0.35156,-0.46875 v -0.117187 q -0.23437,-0.46875 -0.58593,-0.46875 -0.38086,0.117187 -0.46875,0.46875 z m -2.34375,0 v 0.46875 q 0.0586,0.234375 0.58593,0.46875 l 0.35157,-0.46875 V 95.78125 q 0,-0.175781 -0.35157,-0.351563 z m -2.46094,0.46875 v 0.351562 q 0.0586,0.234375 0.58594,0.46875 l 0.35156,-0.46875 v -0.351562 q 0,-0.234375 -0.23438,-0.234375 h -0.46875 q -0.23437,0.0293 -0.23437,0.234375 z M 198.21484,96.25 v 0.46875 q 0.46875,0.0293 0.46875,0.234375 0.32227,-0.08789 0.58594,-0.585938 0,-0.175781 -0.46875,-0.46875 h -0.23437 q -0.17579,0 -0.35157,0.351563 z m -15.82031,-0.117188 h 0.11719 q 0.23437,0.0293 0.23437,0.234375 0,0.234375 -0.23437,0.234375 l -0.11719,-0.234375 z m 13.35938,0.585938 q 0.11718,0.46875 0.70312,0.46875 0.17578,0 0.35156,-0.46875 Q 196.63281,96.25 196.45703,96.25 h -0.35156 q -0.17578,0 -0.35156,0.46875 z m -2.46094,0.46875 0.46875,0.351562 h 0.23437 q 0.17578,0 0.35157,-0.351562 l -0.11719,-0.585938 h -0.58594 q -0.26367,0 -0.35156,0.585938 z m -2.34375,0 v 0.351562 q 0.11719,0.351563 0.70312,0.351563 0.23438,-0.46875 0.35157,-0.46875 -0.11719,-0.46875 -0.70313,-0.46875 h -0.11719 q -0.23437,0.0293 -0.23437,0.234375 z m -3.28125,2.34375 q 0.23437,0.0293 0.23437,0.234375 0,0.234375 -0.23437,0.234375 -0.23438,0 -0.23438,-0.234375 0.0293,-0.234375 0.23438,-0.234375 z" />
      <path
         id="path26"
         style="font-family:Cabin;letter-spacing:0.075em"
         d="M 244.69797,100 V 65.44 h -11.88 V 58 h 31.44 v 7.44 h -11.88 V 100 Z" />
      <path
         id="path28"
         style="font-family:Cabin;letter-spacing:0.075em"
         d="M 274.31922,100 V 58 h 26.88 v 7.44 h -19.02 v 8.94 h 14.76 v 7.44 h -14.76 v 10.74 h 19.62 V 100 Z" />
      <path
         id="path30"
         style="font-family:Cabin;letter-spacing:0.075em"
         d="m 310.94078,100 5.82,-42 h 6.3 l 10.26,19.14 10.2,-19.14 h 6.3 l 5.82,42 h -7.98 l -3.6,-28.14 -10.74,19.32 -10.8,-19.29 -3.6,28.11 z" />
      <path
         id="path32"
         style="font-family:Cabin;letter-spacing:0.075em"
         d="M 367.10828,100 V 58 h 14.94 q 7.26,0 11.1,3.27 3.84,3.27 3.84,10.29 0,7.11 -3.84,10.5 -3.81,3.36 -10.92,3.36 h -7.44 V 100 Z m 7.68,-21 h 6.54 q 3.93,0 5.88,-1.77 1.98,-1.77 1.98,-5.55 0,-3.78 -2.01,-5.52 -1.98,-1.74 -6.03,-1.74 h -6.36 z" />
      <path
         id="path34"
         style="font-family:Cabin;letter-spacing:0.075em"
         d="m 425.53047,100.84 q -6,0 -10.68,-2.7 -4.68,-2.73 -7.35,-7.62 -2.67,-4.92 -2.67,-11.52 0,-6.6 2.67,-11.49 2.67,-4.92 7.35,-7.62 4.68,-2.73 10.68,-2.73 6,0 10.68,2.73 4.68,2.7 7.35,7.62 2.67,4.89 2.67,11.49 0,6.6 -2.67,11.52 -2.67,4.89 -7.35,7.62 -4.68,2.7 -10.68,2.7 z m 0,-7.44 q 4.2,0 7.02,-1.86 2.82,-1.86 4.23,-5.1 1.41,-3.27 1.41,-7.44 0,-4.17 -1.41,-7.41 -1.41,-3.27 -4.23,-5.13 -2.82,-1.86 -7.02,-1.86 -4.2,0 -7.02,1.86 -2.82,1.86 -4.23,5.13 -1.41,3.24 -1.41,7.41 0,4.17 1.41,7.44 1.41,3.24 4.23,5.1 2.82,1.86 7.02,1.86 z" />
      <path
         id="path36"
         style="font-family:Cabin;letter-spacing:0.075em"
         d="M 457.43641,100 V 58 h 15.36 q 6.54,0 10.5,3.12 3.96,3.12 3.96,9.6 0,4.62 -1.98,7.35 -1.95,2.7 -5.16,4.29 l 9.48,17.64 h -8.58 l -8.1,-15.6 h -7.8 V 100 Z m 7.68,-22.02 h 5.64 q 4.74,0 6.6,-1.92 1.86,-1.95 1.86,-4.92 0,-3.15 -1.83,-4.92 -1.83,-1.8 -6.33,-1.8 h -5.94 z" />
      <path
         id="path38"
         style="font-family:Cabin;letter-spacing:0.075em"
         d="m 524.81359,100 -3.51,-9.96 h -15.24 l -3.51,9.96 h -7.44 l 14.94,-42 h 7.26 l 14.94,42 z m -16.41,-16.68 h 10.56 l -5.28,-15 z" />
      <path
         id="path40"
         style="font-family:Cabin;letter-spacing:0.075em"
         d="M 541.55359,100 V 58 h 7.56 l 17.94,27.12 V 58 h 7.68 v 42 h -6.3 l -19.2,-28.8 V 100 Z" />
      <path
         id="path42"
         style="font-family:Cabin;letter-spacing:0.075em"
         d="M 588.47547,100 V 58 h 26.88 v 7.44 h -19.02 v 8.94 h 14.76 v 7.44 h -14.76 v 10.74 h 19.62 V 100 Z" />
      <path
         id="path44"
         style="font-family:Cabin;letter-spacing:0.075em"
         d="m 652.33703,100 -3.51,-9.96 h -15.24 l -3.51,9.96 h -7.44 l 14.94,-42 h 7.26 l 14.94,42 z m -16.41,-16.68 h 10.56 l -5.28,-15 z" />
    </g>
  </g>
</svg>
