<?xml version="1.0" encoding="UTF-8" standalone="no"?>
<svg
   xmlns:dc="http://purl.org/dc/elements/1.1/"
   xmlns:cc="http://creativecommons.org/ns#"
   xmlns:rdf="http://www.w3.org/1999/02/22-rdf-syntax-ns#"
   xmlns:svg="http://www.w3.org/2000/svg"
   xmlns="http://www.w3.org/2000/svg"
   id="svg16"
   width="800px"
   version="1.1"
   height="200px">
  <metadata
     id="metadata20">
    <rdf:RDF>
      <cc:Work
         rdf:about="">
        <dc:format>image/svg+xml</dc:format>
        <dc:type
           rdf:resource="http://purl.org/dc/dcmitype/StillImage" />
      </cc:Work>
    </rdf:RDF>
  </metadata>
  <defs
     id="defs4">
    <style
       id="style2"
       type="text/css"><![CDATA[    
     @font-face {font-family:Cabin;
     src: url('/Users/francesco/Repos/write-logos/src/fonts/Fonts_E_TEMPORANEA/Cabin-Bold.ttf');}
     @font-face {font-family:lift me up;
     src: url('/Users/francesco/Repos/write-logos/src/fonts/Fonts_X/liftmeup.ttf');}
     ]]></style>
  </defs>
  <g
     id="g14"
     style="font-size:60px">
    <g
       style="text-anchor:middle"
       id="text12"
       aria-label="EXTEMPORANEA">
      <path
         id="path22"
         style="font-family:Cabin;letter-spacing:0.075em"
         d="M 142.43641,100 V 58 h 26.88 v 7.44 h -19.02 v 8.94 h 14.76 v 7.44 h -14.76 v 10.74 h 19.62 V 100 Z" />
      <path
         id="path24"
         style="font-family:'lift me up';letter-spacing:0.05em"
         d="m 186.01797,53.26 12.6,16.98 -0.84,1.14 -13.5,-18.12 z m 16.02,21.6 3,-4.08 0.84,1.14 -3,3.96 3,4.08 -0.84,1.14 -3,-4.14 -2.64,3.54 -0.78,-1.08 2.58,-3.54 -2.58,-3.42 0.84,-1.08 z m 16.86,25.08 -13.02,-17.76 0.84,-1.08 13.86,18.84 z m -35.58,0 14.46,-19.38 0.78,1.02 -13.62,18.36 z m 36.48,-46.68 -13.08,17.52 -0.84,-1.08 12.24,-16.44 z m 6.84,46.68 -16.92,-22.98 -3,4.14 -0.84,-1.14 3,-4.08 -3,-3.96 0.84,-1.14 3,4.08 16.14,-21.6 h 1.62 l -16.86,22.62 17.64,24.06 z m -24.18,-15.3 2.58,-3.54 0.84,1.08 -2.64,3.54 z m 2.58,-13.86 -2.58,-3.48 0.84,-1.14 2.58,3.54 z m -11.28,-17.52 8.7,11.76 -0.84,1.14 -9.6,-12.9 z m -2.7,46.68 10.56,-14.22 0.78,1.14 -9.72,13.08 z m 8.34,-19.44 3.06,4.14 -0.84,1.08 -3.06,-4.14 z m 3.06,-13.2 -3,4.08 -0.84,-1.14 3,-4.08 z m -6.42,8.58 2.58,3.54 -0.84,1.14 -2.64,-3.6 -17.04,22.98 h -1.62 l 17.82,-24.06 -16.92,-22.62 h 1.74 l 16.02,21.6 2.64,-3.48 0.84,1.08 z m 16.02,24.06 -9.66,-13.08 0.84,-1.14 10.44,14.22 z m 0.84,-46.68 -9.6,12.9 -0.84,-1.14 8.82,-11.76 z" />
      <path
         id="path26"
         style="font-family:Cabin;letter-spacing:0.075em"
         d="M 246.92453,100 V 65.44 h -11.88 V 58 h 31.44 v 7.44 h -11.88 V 100 Z" />
      <path
         id="path28"
         style="font-family:Cabin;letter-spacing:0.075em"
         d="M 276.54578,100 V 58 h 26.88 v 7.44 h -19.02 v 8.94 h 14.76 v 7.44 h -14.76 v 10.74 h 19.62 V 100 Z" />
      <path
         id="path30"
         style="font-family:Cabin;letter-spacing:0.075em"
         d="m 313.16734,100 5.82,-42 h 6.3 l 10.26,19.14 10.2,-19.14 h 6.3 l 5.82,42 h -7.98 l -3.6,-28.14 -10.74,19.32 -10.8,-19.29 -3.6,28.11 z" />
      <path
         id="path32"
         style="font-family:Cabin;letter-spacing:0.075em"
         d="M 369.33484,100 V 58 h 14.94 q 7.26,0 11.1,3.27 3.84,3.27 3.84,10.29 0,7.11 -3.84,10.5 -3.81,3.36 -10.92,3.36 h -7.44 V 100 Z m 7.68,-21 h 6.54 q 3.93,0 5.88,-1.77 1.98,-1.77 1.98,-5.55 0,-3.78 -2.01,-5.52 -1.98,-1.74 -6.03,-1.74 h -6.36 z" />
      <path
         id="path34"
         style="font-family:Cabin;letter-spacing:0.075em"
         d="m 427.75703,100.84 q -6,0 -10.68,-2.7 -4.68,-2.73 -7.35,-7.62 -2.67,-4.92 -2.67,-11.52 0,-6.6 2.67,-11.49 2.67,-4.92 7.35,-7.62 4.68,-2.73 10.68,-2.73 6,0 10.68,2.73 4.68,2.7 7.35,7.62 2.67,4.89 2.67,11.49 0,6.6 -2.67,11.52 -2.67,4.89 -7.35,7.62 -4.68,2.7 -10.68,2.7 z m 0,-7.44 q 4.2,0 7.02,-1.86 2.82,-1.86 4.23,-5.1 1.41,-3.27 1.41,-7.44 0,-4.17 -1.41,-7.41 -1.41,-3.27 -4.23,-5.13 -2.82,-1.86 -7.02,-1.86 -4.2,0 -7.02,1.86 -2.82,1.86 -4.23,5.13 -1.41,3.24 -1.41,7.41 0,4.17 1.41,7.44 1.41,3.24 4.23,5.1 2.82,1.86 7.02,1.86 z" />
      <path
         id="path36"
         style="font-family:Cabin;letter-spacing:0.075em"
         d="M 459.66297,100 V 58 h 15.36 q 6.54,0 10.5,3.12 3.96,3.12 3.96,9.6 0,4.62 -1.98,7.35 -1.95,2.7 -5.16,4.29 l 9.48,17.64 h -8.58 l -8.1,-15.6 h -7.8 V 100 Z m 7.68,-22.02 h 5.64 q 4.74,0 6.6,-1.92 1.86,-1.95 1.86,-4.92 0,-3.15 -1.83,-4.92 -1.83,-1.8 -6.33,-1.8 h -5.94 z" />
      <path
         id="path38"
         style="font-family:Cabin;letter-spacing:0.075em"
         d="m 527.04016,100 -3.51,-9.96 h -15.24 l -3.51,9.96 h -7.44 l 14.94,-42 h 7.26 l 14.94,42 z m -16.41,-16.68 h 10.56 l -5.28,-15 z" />
      <path
         id="path40"
         style="font-family:Cabin;letter-spacing:0.075em"
         d="M 543.78016,100 V 58 h 7.56 l 17.94,27.12 V 58 h 7.68 v 42 h -6.3 l -19.2,-28.8 V 100 Z" />
      <path
         id="path42"
         style="font-family:Cabin;letter-spacing:0.075em"
         d="M 590.70203,100 V 58 h 26.88 v 7.44 h -19.02 v 8.94 h 14.76 v 7.44 h -14.76 v 10.74 h 19.62 V 100 Z" />
      <path
         id="path44"
         style="font-family:Cabin;letter-spacing:0.075em"
         d="m 654.56359,100 -3.51,-9.96 h -15.24 l -3.51,9.96 h -7.44 l 14.94,-42 h 7.26 l 14.94,42 z m -16.41,-16.68 h 10.56 l -5.28,-15 z" />
    </g>
  </g>
</svg>
