<?xml version="1.0" encoding="UTF-8" standalone="no"?>
<svg
   xmlns:dc="http://purl.org/dc/elements/1.1/"
   xmlns:cc="http://creativecommons.org/ns#"
   xmlns:rdf="http://www.w3.org/1999/02/22-rdf-syntax-ns#"
   xmlns:svg="http://www.w3.org/2000/svg"
   xmlns="http://www.w3.org/2000/svg"
   id="svg16"
   width="800px"
   version="1.1"
   height="200px">
  <metadata
     id="metadata20">
    <rdf:RDF>
      <cc:Work
         rdf:about="">
        <dc:format>image/svg+xml</dc:format>
        <dc:type
           rdf:resource="http://purl.org/dc/dcmitype/StillImage" />
      </cc:Work>
    </rdf:RDF>
  </metadata>
  <defs
     id="defs4">
    <style
       id="style2"
       type="text/css"><![CDATA[    
     @font-face {font-family:Callovia;
     src: url('/Users/francesco/Repos/write-logos/src/fonts/Callovia.ttf');}
     @font-face {font-family:Blue Cobra Expanded;
     src: url('/Users/francesco/Repos/write-logos/src/fonts/bluecobraexpand.ttf');}
     ]]></style>
  </defs>
  <g
     id="g14"
     style="font-size:60px">
    <g
       style="text-anchor:middle"
       id="text12"
       aria-label="eXtemporanea">
      <path
         id="path22"
         style="font-family:Callovia"
         d="m 295.23109,93.58 q -1.8,0 -3.6,-0.96 -1.74,-0.96 -2.04,-3.6 V 88.9 q 0,-2.16 1.98,-4.38 2.04,-2.28 4.86,-3.72 2.22,-1.08 4.08,-1.08 1.8,0 2.34,1.02 0.3,0.48 0.3,0.96 0,1.02 -1.26,1.86 -1.74,1.38 -6.3,3.24 l -0.3,0.12 q -1.32,0.54 -2.34,0.78 -0.36,0.06 -0.36,1.14 0,1.32 0.9,2.16 0.9,0.84 2.46,0.84 l 0.72,-0.06 q 2.82,-0.42 5.7,-1.86 2.88,-1.44 4.92,-3.24 0.06,0 0.12,-0.06 0.06,-0.06 0.18,-0.18 0.18,-0.12 0.42,-0.12 0.6,0 0.66,0.6 0,0.36 -0.36,0.78 l -0.12,0.12 q -4.02,3.54 -9.3,5.22 -2.04,0.54 -3.66,0.54 z m -1.56,-7.86 q 0.18,0 0.24,-0.06 0.12,-0.06 0.18,-0.06 1.56,-0.54 3,-1.26 1.26,-0.48 3.06,-1.62 1.2,-0.72 1.2,-1.02 0,-0.06 -0.06,-0.18 0,-0.18 -0.6,-0.18 -0.12,0 -0.42,0.06 -0.3,0 -0.78,0.12 -0.48,0.12 -0.72,0.24 -3.18,1.2 -5.04,3.78 v 0.12 q -0.06,0 -0.06,0.06 z" />
      <path
         id="path24"
         style="font-family:'Blue Cobra Expanded'"
         d="M 312.94328,69.1 V 53.14 h -3.96 v 17.28 q 0.06,0.24 0.42,0.78 0.42,0.54 0.96,1.14 0.54,0.6 1.2,1.2 0.72,0.54 1.44,0.84 -0.78,0.36 -1.5,0.96 -0.66,0.54 -1.2,1.14 -0.48,0.54 -0.84,1.08 -0.36,0.48 -0.42,0.72 V 100 h 3.96 V 79.72 q 0,-0.66 0.78,-1.56 0.78,-0.9 1.68,-1.56 0.84,0.66 1.62,1.56 0.84,0.9 0.84,1.56 V 100 h 3.96 V 78.28 q -0.12,-0.24 -0.48,-0.72 -0.3,-0.54 -0.84,-1.08 -0.48,-0.6 -1.2,-1.14 -0.66,-0.6 -1.44,-0.96 0.72,-0.3 1.38,-0.84 0.72,-0.6 1.26,-1.2 0.54,-0.6 0.9,-1.14 0.36,-0.54 0.48,-0.78 V 53.14 h -3.96 V 69.1 q 0,0.72 -0.84,1.68 -0.84,0.9 -1.68,1.5 -0.9,-0.6 -1.74,-1.5 -0.78,-0.96 -0.78,-1.68 z" />
      <path
         id="path26"
         style="font-family:Callovia"
         d="m 325.39234,104.92 q -3.06,-0.24 -3.42,-4.44 -0.12,-1.08 -0.12,-2.28 0,-3.42 1.02,-8.46 1.02,-5.04 2.46,-10.02 1.5,-4.98 2.1,-6.66 l 0.06,-0.36 -0.96,0.06 q -5.28,0.3 -10.56,0.78 -0.6,0 -0.6,-0.48 0,-0.6 0.9,-0.78 5.7,-0.36 5.82,-0.42 5.76,-0.36 5.76,-0.36 0.06,0 0.18,-0.3 v -0.06 q 1.8,-4.98 3.96,-9.9 0.3,-0.72 1.26,-0.72 0.9,0 0.9,0.72 l -0.06,0.42 q -2.04,4.62 -3.72,9.42 -0.06,0.06 -0.06,0.12 0,0 -0.06,0.06 0,0.06 0,0.12 0.12,0.06 0.36,0.06 10.2,-0.3 20.22,-0.3 0.84,0 0.84,0.54 0,0.6 -0.9,0.6 h -4.62 q -8.04,0 -16.08,0.3 -0.12,0 -0.18,0.06 0,0 -0.12,0.12 -2.4,7.2 -4.56,16.62 -1.38,6 -1.38,10.02 0,3.66 2.04,3.66 h 0.24 q 3.72,-1.02 9.42,-10.38 3.18,-5.22 3.18,-5.52 l 0.24,-0.3 q 0.24,-0.54 0.72,-0.54 0.18,0 0.3,0.18 0.18,0.12 0.18,0.36 0,0.36 -0.48,1.2 l -0.18,0.3 q -0.24,0.78 -3.3,5.82 -6.3,10.32 -10.8,10.74 z" />
      <path
         id="path28"
         style="font-family:Callovia"
         d="m 343.62953,93.58 q -1.8,0 -3.6,-0.96 -1.74,-0.96 -2.04,-3.6 V 88.9 q 0,-2.16 1.98,-4.38 2.04,-2.28 4.86,-3.72 2.22,-1.08 4.08,-1.08 1.8,0 2.34,1.02 0.3,0.48 0.3,0.96 0,1.02 -1.26,1.86 -1.74,1.38 -6.3,3.24 l -0.3,0.12 q -1.32,0.54 -2.34,0.78 -0.36,0.06 -0.36,1.14 0,1.32 0.9,2.16 0.9,0.84 2.46,0.84 l 0.72,-0.06 q 2.82,-0.42 5.7,-1.86 2.88,-1.44 4.92,-3.24 0.06,0 0.12,-0.06 0.06,-0.06 0.18,-0.18 0.18,-0.12 0.42,-0.12 0.6,0 0.66,0.6 0,0.36 -0.36,0.78 l -0.12,0.12 q -4.02,3.54 -9.3,5.22 -2.04,0.54 -3.66,0.54 z m -1.56,-7.86 q 0.18,0 0.24,-0.06 0.12,-0.06 0.18,-0.06 1.56,-0.54 3,-1.26 1.26,-0.48 3.06,-1.62 1.2,-0.72 1.2,-1.02 0,-0.06 -0.06,-0.18 0,-0.18 -0.6,-0.18 -0.12,0 -0.42,0.06 -0.3,0 -0.78,0.12 -0.48,0.12 -0.72,0.24 -3.18,1.2 -5.04,3.78 v 0.12 q -0.06,0 -0.06,0.06 z" />
      <path
         id="path30"
         style="font-family:Callovia"
         d="m 357.14172,98.2 h -0.12 q -0.72,0 -1.26,-0.66 -0.84,-1.38 -0.84,-4.2 0,-0.78 0.18,-3.3 0.18,-2.52 1.38,-6.48 1.2,-4.02 2.76,-5.52 0.18,-0.12 0.48,-0.12 0.24,0 0.66,0.12 0.42,0.12 0.66,0.42 0.3,0.3 0.3,0.54 0,0.18 -0.12,0.36 -2.1,2.7 -3.42,7.98 -0.72,3 -0.72,5.28 0,1.8 0.42,3.18 l 0.12,0.06 h 0.06 q 1.8,-1.02 5.94,-8.16 l 0.3,-0.48 q 1.68,-3 3.84,-5.64 0.66,-0.9 1.74,-1.32 0.42,-0.12 0.72,-0.12 0.48,0 0.9,0.36 0.42,0.3 0.6,1.08 0.18,0.72 0.18,1.38 -0.06,1.38 -0.18,2.58 l -0.12,3.24 q 0,1.32 0.48,1.32 l 0.36,-0.06 q 0.36,-0.06 1.68,-1.68 l 2.76,-3.6 q 2.76,-3.24 3.9,-3.6 0.42,-0.18 0.78,-0.18 0.6,0 0.96,0.6 0.54,0.78 0.54,2.34 0,1.56 -0.12,3.24 -0.12,1.26 -0.12,2.22 0,1.68 0.54,1.68 h 0.12 q 1.38,-0.36 5.7,-2.52 3.3,-1.68 3.78,-1.98 h 0.06 q 0.48,-0.24 0.78,-0.24 0.54,0 0.54,0.66 0,0.06 -0.06,0.36 -0.06,0.3 -6.66,3.54 -3.18,1.68 -4.02,1.98 -0.84,0.24 -1.44,0.24 -0.72,0 -1.32,-0.66 -0.6,-0.72 -0.6,-2.16 v -5.1 q -0.06,-0.96 -0.3,-0.96 -0.42,0 -2.64,2.82 -1.5,1.8 -3.18,3.6 -1.62,1.8 -3.06,2.58 -0.6,0.3 -1.08,0.3 -0.66,0 -1.08,-0.66 -0.12,-0.48 -0.12,-1.44 0,-1.62 0.24,-3.9 0.18,-1.62 0.3,-2.22 v -0.36 q 0.18,-1.14 0.18,-1.56 0,-0.54 -0.24,-0.54 -0.3,0 -0.96,0.78 -1.5,1.98 -2.76,4.26 l -1.14,2.04 q -1.08,1.74 -2.7,4.2 -1.62,2.46 -3,3.6 -0.72,0.48 -1.56,0.48 z" />
      <path
         id="path32"
         style="font-family:Callovia"
         d="m 390.32734,109.9 q -0.42,0 -0.84,-0.24 -0.42,-0.24 -0.42,-0.78 v -0.3 q 0.48,-2.88 0.9,-5.82 1.56,-11.64 4.62,-22.62 0.3,-0.72 1.32,-0.72 0.42,0 0.84,0.18 0.42,0.18 0.42,0.6 0,0.06 0,0.12 0,0.06 -1.98,7.2 0.12,0 0.12,-0.06 0.06,-0.06 0.12,-0.24 1.8,-3.66 3.84,-5.76 1.5,-1.56 3.42,-1.56 1.26,0 2.04,1.02 0.84,0.96 0.84,2.7 0,1.74 -0.84,3.18 -0.06,0 -0.12,0.06 0,0.06 -0.06,0.18 l 0.18,0.06 q 0.06,0 0.06,-0.06 3.18,-0.72 7.38,-0.72 h 0.66 q 0.6,0 0.6,0.54 0,0.24 -0.24,0.48 -0.24,0.24 -0.72,0.24 h -0.3 q -5.16,0 -10.08,1.86 l -0.24,0.18 q -3,2.58 -6.78,4.08 -0.24,0.06 -0.36,0.18 -0.12,0.06 -0.24,0.36 -2.7,7.5 -3.6,15.3 -0.06,0.36 -0.54,0.36 z m 5.64,-19.38 q 0,-0.06 0.12,-0.06 2.16,-1.44 4.68,-2.28 l 0.36,-0.24 q 1.68,-1.74 2.34,-3.9 0.18,-0.6 0.18,-1.08 0,-0.84 -0.48,-1.26 -0.24,-0.18 -0.54,-0.18 -0.66,0 -1.74,0.84 -2.7,2.4 -4.92,7.98 z" />
      <path
         id="path34"
         style="font-family:Callovia"
         d="m 414.05172,95.56 q -0.18,0 -1.32,-0.06 -1.14,-0.12 -1.92,-2.76 -0.18,-0.72 -0.18,-1.44 0,-1.8 1.02,-3.48 l 0.18,-0.3 q 0,-0.06 -0.06,-0.18 -0.06,-0.18 -0.06,-0.42 0,-0.42 0.3,-0.72 1.02,-1.5 3,-1.8 h 0.3 q 2.58,0 3.66,1.86 0.18,0.24 0.18,0.42 0.06,0.12 0.12,0.18 0.06,0 0.24,0 0.66,-0.06 1.38,-0.06 3.18,-0.18 6.24,-0.54 h 0.12 q 0.54,0 0.54,0.48 0,0.18 -0.36,0.54 -0.3,0.36 -1.02,0.48 -3.36,0.42 -6.72,0.72 -0.18,0.06 -0.18,0.18 -0.3,3.24 -2.1,5.34 -1.44,1.56 -3.36,1.56 z m 3.06,-8.58 q 0.12,0 0.18,-0.06 l -0.06,-0.06 q -0.66,-0.84 -1.8,-0.84 h -0.12 q -0.06,0.24 -0.12,0.36 0,0.06 -0.36,0.42 l 0.18,0.06 q 0.84,0.12 2.1,0.12 z m -2.04,6.78 q 1.02,-0.36 1.74,-1.98 0.72,-1.62 0.84,-3 v -0.06 q 0,-0.12 -0.3,-0.12 h -0.6 q -1.2,0 -2.4,-0.18 -0.24,0 -0.3,0.12 -0.06,0.12 -0.12,0.12 -0.72,1.32 -0.72,2.88 0,2.22 1.44,2.22 z" />
      <path
         id="path36"
         style="font-family:Callovia"
         d="m 429.66859,101.32 q -0.9,0 -1.38,-0.66 -0.66,-0.84 -0.66,-2.04 0,-1.56 1.08,-4.56 0.78,-2.04 1.14,-4.08 0,-0.36 -0.06,-0.66 -0.06,-0.3 -0.48,-0.48 -0.42,-0.24 -1.14,-0.42 -0.66,-0.24 -1.2,-0.54 -1.98,-1.2 -1.98,-3.3 0,-0.36 0.24,-1.86 0.18,-1.5 1.8,-3.9 1.62,-2.4 3.18,-3.18 0.36,-0.18 0.72,-0.18 0.24,0 0.66,0.12 0.42,0.06 0.84,0.6 0.42,0.48 0.42,1.38 0,0.9 -0.6,2.64 -0.6,1.74 -1.92,3.9 -1.26,2.16 -1.8,2.7 0.12,0 0.3,0.12 0.24,0.06 0.6,0.18 1.14,0.36 1.86,1.08 0.78,0.66 0.78,1.5 0,0.84 -1.14,4.8 -1.14,3.36 -1.14,4.5 0,0.66 0.42,0.72 2.22,-0.12 11.28,-13.08 0.24,-0.3 0.54,-0.3 h 0.3 q 0.18,0 0.24,0.24 0.12,0.24 0.12,0.36 0,0.36 -0.84,1.62 0,0.06 -0.06,0.06 -1.62,2.76 -4.62,6.78 -2.94,3.96 -5.88,5.52 -0.96,0.42 -1.62,0.42 z m -2.28,-15.72 q 0.3,-0.36 0.84,-1.38 2.82,-5.28 2.82,-6.42 0,-0.18 -0.18,-0.18 l -0.42,0.18 q -0.48,0.18 -2.4,4.14 -0.18,0.42 -0.6,1.86 -0.24,0.84 -0.24,1.32 0,0.36 0.18,0.48 z" />
      <path
         id="path38"
         style="font-family:Callovia"
         d="m 447.07422,96.76 q -1.5,0 -1.5,-1.56 0,-1.62 1.44,-4.86 0.66,-1.38 0.66,-1.68 0,-0.12 -0.12,-0.18 -0.24,0 -1.2,0.78 -2.7,2.4 -4.68,2.4 l -0.66,-0.06 q -1.74,-0.42 -1.74,-1.8 v -0.12 q 0.48,-2.52 3.54,-5.28 3.06,-2.76 6.78,-3 0.72,0 0.96,0.6 0.06,0.12 0.12,0.12 l 0.06,-0.06 q 0.06,-0.06 0.12,-0.06 0.3,-0.18 0.54,-0.18 0.24,0 0.42,0.12 0.42,0.24 0.42,0.72 0,0.3 -0.12,0.54 -1.14,2.04 -2.76,6.42 -1.5,3.9 -1.5,4.8 0,0.42 0.24,0.42 0.54,0 1.8,-1.08 1.56,-1.26 5.16,-5.22 1.62,-1.74 2.16,-2.22 0.24,-0.18 0.48,-0.18 0.42,0 0.48,0.6 0,0.36 -0.3,0.78 -0.84,1.02 -2.82,3.06 -1.98,1.98 -4.02,3.78 -2.82,2.4 -3.96,2.4 z m -5.16,-6.72 q 1.98,-0.42 5.7,-4.32 2.22,-2.34 2.22,-2.58 0,-0.12 -0.18,-0.12 -2.1,0 -5.4,3.12 -2.04,1.92 -2.52,3.78 0,0.12 0.12,0.12 z" />
      <path
         id="path40"
         style="font-family:Callovia"
         d="m 467.32891,100 q -1.14,0 -1.56,-0.96 -0.12,-0.36 -0.12,-0.84 v -0.6 l 0.12,-0.96 q 0.72,-4.92 2.46,-9.78 l 0.12,-0.24 q 0.6,-1.62 0.6,-2.16 0,-0.3 -0.24,-0.3 -0.66,0 -2.28,1.92 l -2.82,3.54 q -2.22,3 -3.72,4.5 -0.84,0.78 -1.98,1.08 h -0.36 q -1.44,0 -1.62,-1.68 l -0.06,-1.02 q 0,-1.56 0.54,-3.66 0.48,-2.16 1.02,-3.42 l 0.18,-0.48 q 0.18,-0.54 0.48,-0.84 0.3,-0.36 1.2,-0.36 0.84,0 0.84,0.72 0,0.24 -0.12,0.54 -0.84,1.74 -1.5,4.02 -0.6,2.28 -0.6,4.02 0,0.36 0.06,0.36 h 0.06 q 1.98,-1.5 5.28,-5.82 5.16,-6.96 7.5,-6.96 1.2,0 1.32,1.26 0,2.28 -1.62,6.78 -1.56,4.44 -1.98,8.46 v 0.12 q 0,0.18 0.06,0.18 0.06,0 0.18,-0.12 1.8,-1.5 3.3,-3.72 1.56,-2.22 2.88,-4.5 0.78,-1.32 1.5,-2.4 0.24,-0.3 0.54,-0.3 0.06,0 0.3,0.06 0.3,0.06 0.42,0.36 0.18,0.24 0.18,0.48 0,0.24 -0.12,0.48 -2.88,4.86 -6.18,8.94 -2.7,3.3 -4.26,3.3 z" />
      <path
         id="path42"
         style="font-family:Callovia"
         d="m 481.44203,93.58 q -1.8,0 -3.6,-0.96 -1.74,-0.96 -2.04,-3.6 V 88.9 q 0,-2.16 1.98,-4.38 2.04,-2.28 4.86,-3.72 2.22,-1.08 4.08,-1.08 1.8,0 2.34,1.02 0.3,0.48 0.3,0.96 0,1.02 -1.26,1.86 -1.74,1.38 -6.3,3.24 l -0.3,0.12 q -1.32,0.54 -2.34,0.78 -0.36,0.06 -0.36,1.14 0,1.32 0.9,2.16 0.9,0.84 2.46,0.84 l 0.72,-0.06 q 2.82,-0.42 5.7,-1.86 2.88,-1.44 4.92,-3.24 0.06,0 0.12,-0.06 0.06,-0.06 0.18,-0.18 0.18,-0.12 0.42,-0.12 0.6,0 0.66,0.6 0,0.36 -0.36,0.78 l -0.12,0.12 q -4.02,3.54 -9.3,5.22 -2.04,0.54 -3.66,0.54 z m -1.56,-7.86 q 0.18,0 0.24,-0.06 0.12,-0.06 0.18,-0.06 1.56,-0.54 3,-1.26 1.26,-0.48 3.06,-1.62 1.2,-0.72 1.2,-1.02 0,-0.06 -0.06,-0.18 0,-0.18 -0.6,-0.18 -0.12,0 -0.42,0.06 -0.3,0 -0.78,0.12 -0.48,0.12 -0.72,0.24 -3.18,1.2 -5.04,3.78 v 0.12 q -0.06,0 -0.06,0.06 z" />
      <path
         id="path44"
         style="font-family:Callovia"
         d="m 499.57422,96.76 q -1.5,0 -1.5,-1.56 0,-1.62 1.44,-4.86 0.66,-1.38 0.66,-1.68 0,-0.12 -0.12,-0.18 -0.24,0 -1.2,0.78 -2.7,2.4 -4.68,2.4 l -0.66,-0.06 q -1.74,-0.42 -1.74,-1.8 v -0.12 q 0.48,-2.52 3.54,-5.28 3.06,-2.76 6.78,-3 0.72,0 0.96,0.6 0.06,0.12 0.12,0.12 l 0.06,-0.06 q 0.06,-0.06 0.12,-0.06 0.3,-0.18 0.54,-0.18 0.24,0 0.42,0.12 0.42,0.24 0.42,0.72 0,0.3 -0.12,0.54 -1.14,2.04 -2.76,6.42 -1.5,3.9 -1.5,4.8 0,0.42 0.24,0.42 0.54,0 1.8,-1.08 1.56,-1.26 5.16,-5.22 1.62,-1.74 2.16,-2.22 0.24,-0.18 0.48,-0.18 0.42,0 0.48,0.6 0,0.36 -0.3,0.78 -0.84,1.02 -2.82,3.06 -1.98,1.98 -4.02,3.78 -2.82,2.4 -3.96,2.4 z m -5.16,-6.72 q 1.98,-0.42 5.7,-4.32 2.22,-2.34 2.22,-2.58 0,-0.12 -0.18,-0.12 -2.1,0 -5.4,3.12 -2.04,1.92 -2.52,3.78 0,0.12 0.12,0.12 z" />
    </g>
  </g>
</svg>
