<?xml version="1.0" encoding="UTF-8" standalone="no"?>
<svg
   xmlns:dc="http://purl.org/dc/elements/1.1/"
   xmlns:cc="http://creativecommons.org/ns#"
   xmlns:rdf="http://www.w3.org/1999/02/22-rdf-syntax-ns#"
   xmlns:svg="http://www.w3.org/2000/svg"
   xmlns="http://www.w3.org/2000/svg"
   id="svg16"
   width="800px"
   version="1.1"
   height="200px">
  <metadata
     id="metadata20">
    <rdf:RDF>
      <cc:Work
         rdf:about="">
        <dc:format>image/svg+xml</dc:format>
        <dc:type
           rdf:resource="http://purl.org/dc/dcmitype/StillImage" />
      </cc:Work>
    </rdf:RDF>
  </metadata>
  <defs
     id="defs4">
    <style
       id="style2"
       type="text/css"><![CDATA[    
     @font-face {font-family:Catharsis Macchiato;
     src: url('/Users/francesco/Repos/write-logos/src/fonts/CAM.TTF');}
     @font-face {font-family:Vtks Velhos Tempos;
     src: url('/Users/francesco/Repos/write-logos/src/fonts/Vtks_Velhos_Tempos.ttf');}
     ]]></style>
  </defs>
  <g
     id="g14"
     style="font-size:60px">
    <g
       style="text-anchor:middle"
       id="text12"
       aria-label="eXtemporanea">
      <path
         id="path22"
         style="font-family:'Catharsis Macchiato'"
         d="m 204.0332,82.246094 v 2.636718 h -24.78515 q 0.35156,5.566407 3.33984,8.496094 3.01758,2.900391 8.37891,2.900391 3.10547,0 6.00586,-0.761719 2.92968,-0.761719 5.80078,-2.285156 v 5.097656 q -2.90039,1.230469 -5.94727,1.875002 -3.04687,0.64453 -6.18164,0.64453 -7.85156,0 -12.45117,-4.570313 -4.57031,-4.570313 -4.57031,-12.363281 0,-8.056641 4.33593,-12.773438 4.36524,-4.746094 11.74805,-4.746094 6.62109,0 10.45899,4.277344 3.86718,4.248047 3.86718,11.572266 z m -5.39062,-1.582032 q -0.0586,-4.423828 -2.49024,-7.060546 -2.40234,-2.636719 -6.38672,-2.636719 -4.51171,0 -7.23632,2.548828 -2.69532,2.548828 -3.10547,7.177734 z" />
      <path
         id="path24"
         style="font-family:'Vtks Velhos Tempos'"
         d="m 211.5918,62.910156 q 0.0586,0.175781 -0.0879,0.263672 -0.11719,0.05859 -0.23438,-0.05859 -0.73242,-1.757812 -1.55273,-3.457031 -0.79102,-1.699219 -1.49414,-3.427734 -0.0879,-0.175782 0.0293,-0.263672 0.11719,-0.08789 0.26367,0 0.49805,0.351562 1.05469,1.054687 0.58594,0.703125 1.14258,1.582032 0.58594,0.849609 1.14258,1.757812 0.58594,0.908203 1.05469,1.699219 h 0.0879 l 0.61523,-0.351563 h 0.67383 q -0.11719,-0.322265 -0.23438,-0.673828 -0.0879,-0.351562 -0.17578,-0.732422 -0.20508,-1.02539 -0.46875,-1.845703 -0.23437,-0.820312 -0.38086,-1.435547 -0.11718,-0.615234 -0.11718,-1.02539 0.0293,-0.439453 0.29296,-0.703125 0.29297,-0.263672 0.90821,-0.351563 0.61523,-0.117187 1.66992,-0.117187 0.17578,0.08789 0.17578,0.234375 0,0.117187 -0.20508,0.175781 -1.20117,-0.0293 -1.8164,0.146484 -0.61524,0.146485 -0.76172,0.703125 -0.11719,0.527344 0.17578,1.523438 0.32226,0.996094 0.9082,2.607422 0.11719,0.380859 0.26367,0.761718 0.17579,0.351563 0.32227,0.732422 h 1.11328 l 0.26367,-0.146484 4.13086,-0.05859 0.17578,-0.205078 h 2.40235 l -1.25977,-2.929687 q -0.0879,-0.205079 0.0586,-0.292969 0.17578,-0.117188 0.23437,0.08789 0.35156,0.791016 0.67383,1.582032 0.35156,0.761718 0.70312,1.552734 h 1.66993 l 0.23437,0.205078 h 0.11719 l 2.25586,0.05859 q 0,0.146484 0.84961,0.263672 l 0.0586,0.08789 h 1.20117 l 0.26367,-0.205078 h 2.10938 l 0.32226,-0.205078 q 0.9961,0.0293 1.46485,0.410156 1.31836,0.263672 1.31836,0.498047 0,0.146485 -0.58594,0.322266 v 0.175781 q 0.23438,0 0.43945,0.351563 l -0.43945,0.08789 v 0.175782 l 0.23438,0.292968 v 0.117188 h -0.41016 q -0.82031,0.644531 -2.60742,1.347656 l -0.41016,0.498047 q 0.35156,1.054687 3.01758,4.804687 1.96289,1.992188 3.98437,5.332032 0.11719,0 0.73243,1.523437 l 0.35156,0.234375 h 0.0879 l 1.66992,-1.933594 q 1.25977,-1.142578 2.90039,-3.134765 0.17578,0 0.17578,-0.234375 l 1.02539,-1.289063 q 1.11328,-1.787109 2.16797,-3.603515 1.08399,-1.816407 2.08008,-3.691407 0.29297,-0.498046 0.58594,-0.996093 0.29297,-0.498047 0.55664,-0.996094 v -0.146484 l 0.14648,-0.234375 q -1.8164,-3.486329 -3.89648,-4.335938 h -0.26367 q -0.82032,0.498047 -1.49414,1.259766 l -0.49805,0.966797 -0.11719,0.820312 0.52735,0.322266 h 0.76171 l 0.82032,-0.585938 q 0.61523,0.117188 0.61523,0.351563 v 0.234375 q -0.9082,1.201172 -2.37305,1.201172 l -0.23437,0.263671 h -0.41016 q -0.84961,-0.46875 -0.84961,-1.02539 l -0.43945,-0.84961 v -0.644531 q 0.67383,-2.197265 1.37695,-2.636719 1.37696,-0.878906 2.16797,-0.9375 h 1.25977 l 0.26367,-0.175781 h 0.43945 l 0.23438,0.175781 0.17578,-0.175781 h 1.17187 l 0.26368,0.175781 0.26367,-0.175781 q 0.14648,0.439453 0.73242,0.439453 0.49805,0.322266 1.08398,1.142578 0.49805,-1.904296 0.87891,-3.808593 0.38086,-1.933594 0.73242,-3.867188 0.11719,-0.55664 0.20508,-1.230469 0.0879,-0.703125 0.20508,-1.318359 0.11719,-0.644531 0.29297,-1.113281 0.20508,-0.498047 0.52734,-0.673828 0.35156,-0.175782 0.84961,0.05859 0.52734,0.234375 1.28906,1.083985 0.23438,0.234375 0.49805,0.585937 0.26367,0.322266 0.43945,0.585938 0.11719,0.175781 0,0.292969 -0.11718,0.117187 -0.26367,-0.0293 -0.26367,-0.292969 -0.58594,-0.703125 -0.29297,-0.439453 -0.67382,-0.791016 -0.35157,-0.351562 -0.79102,-0.527344 -0.41016,-0.205078 -0.84961,-0.05859 -0.55664,2.988281 -1.08398,5.976562 -0.49805,2.958984 -1.34766,5.888672 0.87891,0.527344 0.87891,1.816406 l 0.0879,0.732422 0.14648,0.175781 V 60.625 l -0.0879,0.08789 v 0.08789 q 0.20508,0 0.26367,1.025391 l 0.0879,0.08789 v 0.761719 l -0.35156,0.585938 0.20508,0.146484 q 0,1.142578 -2.10938,3.134766 -0.73242,0.673828 -1.25976,0.673828 l -1.46485,2.929687 -0.23437,0.263672 q 0.58594,-0.146484 1.20117,-0.117187 0.64453,0.0293 1.02539,0.351562 0.49805,0.351563 1.02539,0.673828 0.55664,0.292969 1.05469,0.615235 0.52734,0.322265 0.99609,0.703125 0.46875,0.380859 0.84961,0.849609 1.17188,1.552734 2.05078,3.193359 0.87891,1.611329 1.58204,3.339844 0.70312,1.699219 1.20117,3.486328 0.52734,1.78711 0.99609,3.603516 0.58594,-0.05859 1.17188,-0.08789 0.58593,-0.0293 1.14257,0 0.58594,0.0293 1.17188,0.146485 0.58594,0.08789 1.23047,0.351562 0.11719,0.05859 0.14648,0.175781 0.0586,0.08789 -0.0293,0.175782 -0.55665,0.498047 -1.11329,0.849609 0.49805,0.175781 0.90821,0.410156 0.43945,0.205078 0.8789,0.498047 0.46875,0.263672 0.9961,0.644531 0.52734,0.351563 1.23047,0.820313 0.20507,0.146484 0.32226,0.410156 0.11719,0.234375 0.17578,0.498047 0.0879,0.263672 0.11719,0.585938 0.0586,0.292968 0.17578,0.55664 0,0.0293 0,0.0293 0,0 -0.0586,0.08789 -0.29297,0.410156 -0.58594,0.878906 -0.29297,0.46875 -0.73242,0.761719 -0.38086,0.322265 -0.9668,0.527343 -0.55664,0.205079 -1.20117,0.351563 -0.64453,0.146484 -1.37695,0.234375 -0.70313,0.08789 -1.40625,0.117187 0.20507,1.31836 0.38086,2.666016 0.14648,1.113281 0.11718,2.167972 0,1.08398 -0.17578,2.10937 -0.14648,1.02539 -0.49804,1.9336 -0.35157,0.9375 -0.9375,1.69921 0.38085,0.20508 0.43945,0.32227 0,0.35156 -0.76172,0.35156 0,0.17578 -0.41016,0.17578 0,0 0,0 v 0.0879 l -0.0879,-0.0586 q -0.96679,0.9375 -2.37304,1.46484 -1.40625,0.52735 -3.33985,0.52735 -1.52344,0 -2.95898,-0.55664 -1.40625,-0.55664 -2.75391,-1.31836 0.70313,0.49805 1.34766,0.99609 0.67383,0.49805 1.37695,0.9668 1.81641,1.25976 3.75,2.46094 1.93359,1.23047 3.92578,2.34375 1.99219,1.11328 4.04297,2.05078 2.08008,0.96679 4.18945,1.69922 1.9336,0.67382 3.89649,1.17187 1.99219,0.49805 4.04297,0.73242 1.90429,0.17578 3.77929,0 1.9043,-0.14648 3.7793,-0.26367 0.20508,-0.0293 0.55664,-0.11719 0.35156,-0.0879 0.70313,-0.20507 0.38086,-0.11719 0.73242,-0.23438 0.35156,-0.11719 0.49805,-0.17578 1.52343,-0.58594 3.01757,-1.46484 1.52344,-0.87891 2.75391,-2.05079 1.23047,-1.17187 2.05078,-2.63671 0.82031,-1.46485 0.9668,-3.22266 0.0293,-0.35156 0.0293,-0.76172 0,-0.38086 0,-0.79101 0,-0.38086 -0.0879,-0.76172 -0.0586,-0.38086 -0.17578,-0.70313 -0.38086,-0.99609 -0.73242,-1.96289 -0.32226,-0.9668 -0.87891,-1.78711 -0.73242,-1.08398 -1.875,-1.78711 -1.11328,-0.70312 -2.40234,-0.9375 -1.25976,-0.23437 -2.57812,0 -1.28907,0.26367 -2.34375,1.05469 -0.29297,0.17578 -0.46875,0.46875 -0.14649,0.32227 -0.35157,0.61523 0.11719,0.23438 0.20508,0.49805 0.11719,0.26367 0.23438,0.52734 0.55664,0.17579 1.14257,0.35157 0.61524,0.17578 1.17188,0.38086 0.17578,0.0586 0.14648,0.23437 0,0.17578 -0.23437,0.14649 -0.70313,-0.23438 -1.14258,-0.35157 -0.41016,-0.0879 -0.67383,-0.17578 -0.26367,-0.0586 -0.41015,-0.11719 -0.14649,-0.0293 -0.26368,-0.20507 -0.0879,-0.14649 -0.23437,-0.43946 -0.11719,-0.26367 -0.35156,-0.76172 0,-0.14648 0.0293,-0.23437 0.23438,-0.35156 0.41016,-0.73242 0.17578,-0.38086 0.52734,-0.55664 0.52735,-0.23438 0.9961,-0.55664 0.46875,-0.32227 1.02539,-0.38086 0.58594,-0.0586 1.28906,-0.146488 0.73242,-0.08789 1.46484,-0.08789 0.73243,0 1.40625,0.175781 0.67383,0.146487 1.20118,0.615237 0.58593,0.49804 1.17187,1.02539 0.58594,0.55664 1.20117,1.08398 0.38086,0.35157 0.58594,0.79102 0.23438,0.46875 0.38086,0.99609 0.17578,0.52735 0.32227,1.05469 0.14648,0.52734 0.38086,0.99609 0.0586,0.17578 0.11718,0.46875 0.0586,0.29297 0.0879,0.61524 0.0586,0.35156 0.0586,0.64453 0.0293,0.32226 0.0293,0.52734 -0.0293,2.02149 -0.79101,3.69141 -0.73242,1.66992 -1.96289,2.98828 -1.23047,1.31836 -2.8418,2.28516 -1.61133,0.99609 -3.39844,1.69922 -1.31836,0.52734 -2.49023,0.73242 -1.14258,0.20508 -2.34375,0.23437 -1.17188,0.0586 -2.49024,0.0293 -1.28906,0 -2.92968,0.0586 -1.02539,0.0586 -2.05078,-0.17578 -0.9961,-0.20508 -1.99219,-0.52734 -0.9961,-0.29297 -1.99219,-0.64453 -0.99609,-0.32227 -1.99219,-0.55664 -1.11328,-0.26368 -2.49023,-0.84961 -1.34766,-0.55664 -2.8418,-1.31836 -1.49414,-0.76172 -3.04687,-1.64063 -1.52344,-0.84961 -2.95899,-1.72851 -1.40625,-0.87891 -2.63672,-1.69922 -1.23046,-0.79102 -2.10937,-1.40625 -0.9668,-0.64453 -1.9043,-1.34766 -0.9082,-0.70312 -1.875,-1.40625 h -1.8457 q 4.18945,5.15625 8.96484,9.81445 4.77539,4.6875 10.04883,8.73047 5.27344,4.04297 11.04492,7.38282 5.77149,3.33984 11.95313,5.83007 3.07617,1.25977 6.26953,2.28516 3.19336,1.05469 6.41601,1.72852 3.25196,0.70312 6.5625,0.96679 3.33985,0.29297 6.67969,0 2.08008,-0.20508 4.07227,-0.64453 2.02148,-0.43945 3.95508,-1.28906 1.99218,-0.9082 3.86718,-2.54883 1.875,-1.64062 3.42774,-3.63281 1.58203,-1.99219 2.7832,-4.16016 1.23047,-2.16797 1.93359,-4.13086 0.52735,-1.61133 0.76172,-3.36914 0.23438,-1.72851 0.0293,-3.45703 -0.20508,-1.69922 -0.9082,-3.28125 -0.67383,-1.58203 -1.9336,-2.8418 -0.9082,-0.9375 -2.08007,-1.52343 -1.14258,-0.58594 -2.40235,-0.73243 -1.25976,-0.14648 -2.51953,0.14649 -1.23047,0.32226 -2.28516,1.17187 -0.82031,0.67383 -1.43554,1.55274 -0.58594,0.8789 -1.20117,1.72851 -0.11719,0.11719 -0.23438,0.38086 -0.11719,0.26368 -0.20508,0.52735 -0.0879,0.29297 -0.17578,0.55664 -0.0879,0.26367 -0.0879,0.46875 -0.11719,0.73242 0.0293,1.28906 0.14648,0.58594 0.49804,1.05469 0.35157,0.49804 0.82032,0.9082 0.46875,0.43945 1.02539,0.82031 0.0879,0.17578 0,0.26368 -0.0879,0.11718 -0.26367,0.0293 -0.55665,-0.38086 -1.08399,-0.84961 -0.52734,-0.46875 -0.9082,-1.02539 -0.38086,-0.55664 -0.52735,-1.20117 -0.14648,-0.64453 0.0586,-1.40625 0.0879,-0.46875 0.23437,-1.08398 0.17578,-0.58594 0.46875,-0.9668 0.35157,-0.43945 0.64453,-0.9375 0.29297,-0.46875 0.58594,-0.9668 0.32227,-0.46875 0.67383,-0.8789 0.35156,-0.38086 0.84961,-0.58594 0.84961,-0.38086 1.64062,-0.82031 0.79102,-0.41016 1.66993,-0.58594 0.8789,-0.14649 1.75781,-0.0293 0.9082,0.11719 1.75781,0.43945 0.87891,0.35157 1.64063,0.84961 0.76171,0.52735 1.34765,1.11329 1.17188,1.17187 1.9043,2.87109 0.76172,1.72851 1.05469,3.57422 0.29297,1.8457 0.0586,3.6914 -0.20508,1.84571 -0.9375,3.31055 -0.79102,1.55273 -1.58203,3.10547 -0.76172,1.58203 -1.58203,3.07617 -0.49805,0.9668 -1.28906,1.875 -0.79102,0.9082 -1.52344,1.69922 -1.55274,1.69922 -3.13477,2.87109 -1.55273,1.20118 -3.28125,2.02149 -1.72851,0.82031 -3.66211,1.25976 -1.93359,0.46875 -4.24804,0.67383 -3.66211,0.32227 -6.94336,0.0293 -3.28125,-0.26367 -6.41602,-0.9961 -3.13476,-0.70312 -6.29883,-1.75781 -3.16406,-1.05469 -6.5625,-2.28515 -1.8457,-0.67383 -3.63281,-1.52344 -1.75781,-0.84961 -3.51562,-1.75781 -5.09766,-2.54883 -9.90235,-5.71289 -4.77539,-3.16407 -9.16992,-6.82618 -4.39453,-3.66211 -8.4375,-7.76367 -4.04297,-4.07226 -7.61719,-8.52539 l -0.8789,0.26367 -0.0879,0.0879 -0.17579,-0.17578 h -0.99609 l -0.26367,0.17578 h -0.76172 l -0.9082,0.41016 h -1.20118 q -1.37695,-0.67383 -1.43554,-0.84961 v -0.14648 l 0.17578,-0.20508 0.26367,0.20508 q 0.26367,-0.82032 0.99609,-1.69922 l -0.0879,-0.41016 q 0.41016,0 0.84961,-0.76172 v -0.67383 l -0.9375,-1.37695 -1.61132,-2.373046 -1.05469,-1.49414 q -1.69922,-1.699219 -3.31055,-3.427735 -1.61133,-1.728515 -3.16406,-3.544922 -2.43164,2.988282 -5.24414,5.654297 -1.37696,1.31836 -2.78321,2.636719 -1.37695,1.289067 -2.8125,2.548827 v 0.70313 q 0.70313,-0.23438 1.52344,-0.35157 0.84961,-0.11718 1.58203,0 0.76172,0.14649 1.31836,0.58594 0.58594,0.43945 0.76172,1.25977 0.0879,0.52734 -0.17578,1.17187 -0.26367,0.64453 -0.76172,1.28906 -0.46875,0.67383 -1.08398,1.28907 -0.58594,0.61523 -1.14258,1.14258 -0.52734,0.52734 -0.9668,0.8789 -0.43945,0.38086 -0.52734,0.52735 -1.05469,1.05468 -2.66602,1.875 -1.58203,0.82031 -3.36914,1.43554 -1.78711,0.64453 -3.57422,1.11328 -1.75781,0.49805 -3.16406,0.90821 -0.41016,0.11718 -1.11328,0.35156 -0.70313,0.23437 -1.46484,0.43945 -0.76172,0.23438 -1.46485,0.35156 -0.70312,0.11719 -1.11328,-0.0293 -0.11719,-0.0879 -0.14648,-0.20508 0.0293,-0.29297 0.41015,-0.67383 0.35157,-0.38086 0.79102,-0.76172 0.43945,-0.38086 0.8789,-0.70312 0.43946,-0.32227 0.64454,-0.49805 1.64062,-1.37695 3.28125,-2.75391 1.66992,-1.34765 3.31054,-2.69531 l -0.0293,-0.0586 q -1.64063,0 -1.96289,-0.26367 h -1.08399 q -0.38086,-0.29297 -0.9082,-0.41016 l -0.11719,-0.0586 v -0.0879 q 0,-0.26368 0.67383,-0.26368 0,-0.14648 0.9375,-0.35156 0,-0.17578 0.84961,-0.23437 0,-0.29297 1.25976,-0.52735 l 2.28516,-1.58203 q 0.70312,0 6.50391,-6.328124 0,-0.263672 1.8457,-2.226562 2.46094,-2.841797 3.7793,-4.716797 l 2.8125,-3.046875 q -0.90821,-1.113281 -1.72852,-2.226563 -0.82031,-1.113281 -1.61133,-2.226562 -2.10937,-2.958985 -3.92578,-6.09375 -1.78711,-3.134766 -3.60351,-6.210938 -1.31836,-2.197265 -2.66602,-4.365234 -1.31836,-2.197266 -2.69531,-4.335938 -1.31836,-0.585937 -1.34766,-0.761718 0.11719,-0.263672 0.52734,-0.263672 h 0.17579 q -0.87891,-1.31836 -1.75782,-2.607422 -0.8789,-1.318359 -1.78711,-2.607422 0.61524,1.552734 1.31836,3.046875 0.73243,1.464844 1.37696,3.017578 z m 35.00976,10.195313 q 0,0.205078 -1.11328,1.347656 -0.43945,0.996094 -0.61523,2.109375 -0.17578,1.113281 -0.11719,2.226562 0.0586,1.083985 0.32226,2.109375 0.29297,0.996094 0.79102,1.78711 0.32227,0.527344 0.76172,0.966797 0.43945,0.439453 0.9082,0.849609 0.49805,0.410156 0.9961,0.791016 0.49804,0.380859 0.99609,0.761718 0.17578,0.146485 0.52734,0.292969 0.35157,0.117188 0.73243,0.263672 0.38085,0.117188 0.73242,0.205078 0.35156,0.08789 0.55664,0.146485 1.72851,0.380859 3.51562,0.410156 1.78711,0 3.54492,-0.117188 0.76172,-0.0293 1.49415,-0.117187 -0.29297,-1.054688 -0.58594,-1.992188 -0.26367,-0.966797 -0.52735,-1.728515 -0.23437,-0.791016 -0.43945,-1.376953 -0.17578,-0.585938 -0.29297,-0.908204 -0.73242,-1.992187 -1.69922,-3.867187 -0.96679,-1.875 -2.25586,-3.515625 -0.38086,-0.46875 -0.84961,-0.820313 -0.43945,-0.351562 -0.96679,-0.673828 -0.49805,-0.322265 -1.02539,-0.615234 -0.49805,-0.292969 -0.9668,-0.644531 -0.70312,0.08789 -1.46484,0.08789 -0.73243,0 -1.43555,0.292969 z m 14.70703,33.251951 q 0.20508,0.0879 0.41016,0.17578 0.35156,-0.26367 0.61523,-0.84961 0.29297,-0.55664 0.46875,-1.20117 0.20508,-0.64453 0.32227,-1.25976 0.11719,-0.61524 0.14648,-0.9668 0.11719,-1.20117 -0.0586,-2.753907 -0.17578,-1.552734 -0.49805,-3.369141 -1.23047,0.05859 -2.28515,0.0293 -1.02539,-0.05859 -1.58203,-0.117187 -1.58204,-0.146485 -2.75391,-0.292969 -1.17188,-0.146484 -2.13867,-0.292969 -0.9668,-0.175781 -1.78711,-0.351562 -0.79102,-0.205078 -1.61133,-0.439453 l 0.61523,0.996093 0.9961,1.435547 q 0.38086,0.263672 1.25976,1.933594 0.76172,0.703125 0.76172,1.259767 0.17578,0 0.79102,0.84961 2.02148,1.93359 2.51953,2.60742 l 2.25586,2.05078 z m -48.33984,2.46094 q -0.41016,0.32227 -0.82031,0.64453 -0.41016,0.35156 -0.79102,0.73242 -0.9375,0.79102 -1.93359,1.55274 -0.9961,0.79101 -1.99219,1.58203 -0.9668,0.79101 -1.93359,1.58203 -0.9668,0.82031 -1.84571,1.69922 0.79102,0 1.61133,-0.17578 0.79102,-0.17578 1.58203,-0.41016 0.79102,-0.23437 1.55274,-0.49805 0.79101,-0.26367 1.55273,-0.46875 1.96289,-0.55664 3.83789,-1.20117 1.9043,-0.64453 3.66211,-1.52344 1.75781,-0.8496 3.33985,-1.99218 1.58203,-1.14258 2.92968,-2.69532 -0.38086,0.26368 -1.17187,0.9961 h -0.14649 l -0.70312,-0.67383 -0.55664,0.0879 h -1.11328 l -0.26368,0.17578 h -1.25976 l -0.26367,0.14649 h -1.17188 q -0.14648,0.17578 -0.84961,0.17578 l -0.20508,0.0293 q -0.0293,0.73243 0.11719,1.46485 0.14649,0.73242 0.20508,1.46484 0,0.23438 -0.17578,0.20508 -0.17578,0 -0.20508,-0.17578 -0.0879,-0.73242 -0.14648,-1.46484 -0.0293,-0.70313 -0.0586,-1.46485 l -0.43945,0.11719 -0.0879,0.0879 z m 32.87109,-21.533204 q 0.79102,1.376953 0.90821,1.376953 l 0.73242,1.201172 q 1.43555,-0.996094 3.16406,-1.49414 1.75781,-0.527344 3.60352,-0.703125 -1.28907,-0.117188 -2.51953,-0.410157 -1.23047,-0.292968 -2.34375,-0.849609 -1.11329,-0.556641 -2.10938,-1.40625 -0.9668,-0.849609 -1.72852,-2.080078 -0.52734,-0.84961 -0.82031,-1.816406 -0.29297,-0.966797 -0.35156,-1.992188 -0.0586,-1.025391 0.0586,-2.050781 0.11719,-1.054688 0.43946,-1.962891 -1.20118,1.171875 -3.25196,3.046875 -0.26367,0.46875 -0.49804,0.908203 -0.23438,0.439453 -0.46875,0.908203 0.38086,0.820313 2.90039,4.306641 l 1.34765,1.757813 q 0,0.175781 0.9375,1.259765 z m 3.13477,4.804688 0.58594,0.966797 q 2.49023,-0.205079 4.83398,-0.908204 2.34375,-0.703125 4.74609,-1.523437 0.52735,-0.175781 1.08399,-0.351563 0.55664,-0.205078 1.11328,-0.380859 l -0.38086,-1.582031 q -1.49414,-0.234375 -3.25195,-0.292969 -1.75781,-0.08789 -3.51563,0.08789 -1.75781,0.146484 -3.45703,0.644531 -1.66992,0.498047 -3.04687,1.40625 z m 9.87305,3.574218 q 0.79101,0.08789 1.78711,0.117188 0.99609,0.0293 2.02148,0 -0.23438,-1.376953 -0.55664,-2.753906 -0.32227,-1.376953 -0.64453,-2.783203 -0.58594,0.205078 -1.11328,0.380859 -0.52735,0.175781 -1.08399,0.351562 -1.78711,0.644532 -3.7207,1.31836 -1.93359,0.673828 -3.86719,0.9375 -0.46875,0.05859 -0.9375,0.117187 -0.46875,0.0293 -0.9375,0.05859 l 0.52735,0.908203 q 1.20117,0.322266 2.37304,0.527344 1.17188,0.205078 2.25586,0.351562 1.11328,0.146485 2.08008,0.263672 0.99609,0.117188 1.81641,0.205078 z m 3.77929,-1.728515 q 0.11719,0.439453 0.20508,0.908203 0.11719,0.439453 0.23438,0.878906 1.31836,-0.05859 2.54882,-0.292969 1.23047,-0.263671 2.28516,-0.820312 0.41016,-0.234375 0.64453,-0.673828 0.23438,-0.46875 0.52735,-0.84961 -0.17579,-0.439453 -0.29297,-0.878906 -0.0879,-0.46875 -0.41016,-0.820312 -0.76172,-0.820313 -1.875,-1.376953 -1.11328,-0.556641 -2.28516,-0.966797 -0.61523,0.351562 -1.25976,0.615234 -0.61524,0.263672 -1.25977,0.498047 0.23438,0.966797 0.43946,1.904297 0.23437,0.9375 0.49804,1.875 z m -24.60937,-8.320313 v 0.05859 q 0,0.703125 0.82031,1.875 0,0.498047 1.02539,1.523438 v 0.498046 l -0.26367,0.322266 q 0,0.615234 1.25976,1.962891 0.20508,1.054687 1.0254,1.49414 0.76171,1.025391 0.99609,1.699219 0.41016,0 0.61523,1.025391 0.32227,0 0.67383,1.289062 0.58594,0.146485 0.58594,0.46875 l 0.49805,0.585938 v 0.175781 l -0.0879,0.08789 v 0.08789 l 0.8496,0.908203 q 0.64454,0.673826 0.84961,1.376956 0.64454,0.41015 1.25977,1.69922 0.20508,0.23437 2.19727,0.23437 v -0.23437 q -0.87891,-0.52735 -1.66993,-1.96289 -0.70312,-0.64454 -1.78711,-2.19727 l -4.39453,-6.328125 q -0.52734,-1.025391 -0.67383,-1.025391 l -0.17578,0.205078 h -0.17578 q -0.79101,-1.259765 -1.58203,-3.046875 -0.76172,-0.849609 -1.43555,-2.460937 z m -24.4336,-22.441406 q 0.0586,0.08789 0.0879,0.146484 0.0293,0.05859 0.0879,0.117188 1.28906,2.021484 2.51953,4.042969 1.25976,1.992187 2.46093,4.042968 1.58204,2.636719 3.07618,5.302735 1.52343,2.666015 3.22265,5.24414 2.08008,3.134766 4.54102,6.181641 l 0.14648,-0.205078 q 0,-0.263672 0.14649,-0.351563 -1.61133,-2.197265 -3.13477,-4.453125 -1.49414,-2.255859 -2.98828,-4.570312 -1.61133,-2.490234 -3.13477,-5.039063 -1.49414,-2.548828 -2.90039,-5.15625 -0.70312,-1.318359 -1.46484,-2.607421 -0.76172,-1.289063 -1.40625,-2.666016 l -0.0293,-0.0293 z M 223.75,107.03125 q 0.17578,0.0879 0.20508,0.35156 0.17578,-0.17578 0.29297,-0.38086 0.14648,-0.17578 0.32226,-0.35156 0.35156,-0.49805 0.49805,-1.14258 0.17578,-0.61523 0.38086,-1.20117 -0.38086,-0.61523 -0.84961,-1.20117 -0.49805,-0.0293 -1.02539,-0.17578 -0.49805,-0.11719 -1.02539,-0.0293 -0.46875,0.0293 -0.9375,0.11719 -0.46875,0.11719 -0.90821,0.29297 v 0.0293 q 0.73243,1.75782 1.49415,1.75782 l 0.79101,0.49804 H 223.75 q 0.55664,0.41016 0.82031,0.84961 -0.23437,0.41016 -0.76172,0.41016 l -0.0586,0.11719 z m -8.11523,-43.505859 q 0.58593,1.201171 1.17187,2.373046 0.58594,1.142579 1.20117,2.314454 1.99219,3.632812 4.36524,7.558593 2.40234,3.896485 4.95117,7.617188 l -0.20508,-0.38086 -1.46484,-2.373046 q -0.29297,-0.146485 -0.55664,-0.9375 -0.64454,-0.527344 -2.19727,-4.042969 -0.17578,0 -0.26367,-0.585938 -0.23438,0 -0.76172,-1.171875 l -2.10938,-3.632812 q -0.23437,-0.117188 -0.8496,-1.611328 -0.64454,-0.761719 -1.49415,-3.28125 v -0.84961 z m 5.06835,38.085939 q 2.10938,-1.875002 4.13086,-3.837893 2.02149,-1.96289 3.95508,-4.072265 0.61524,-0.673828 1.23047,-1.347656 0.64453,-0.703125 1.25977,-1.40625 -0.38086,-0.439454 -0.73243,-0.878907 -0.43945,0.38086 -0.82031,0.966797 l -0.99609,1.669922 -1.11328,1.347656 q -1.99219,1.875 -3.45703,3.867188 l -3.01758,2.958988 -0.43946,0.70312 z m 0.9961,-37.998049 v 0.322266 q 1.64062,3.691406 2.05078,3.691406 0,0.292969 1.69922,2.460938 0.32226,0.585937 0.64453,0.820312 0,0.527344 0.26367,0.527344 l 0.0586,-0.08789 -0.9668,-2.285156 q -0.61524,-1.025391 -0.61524,-1.318359 -0.76171,-1.289063 -1.34765,-3.310547 0,-0.820313 -0.41016,-1.083985 h -1.11328 z m 29.23828,43.945309 q 1.14258,0.43946 2.25586,0.79102 1.14258,0.38086 2.25586,0.82031 0.99609,-0.41015 2.02148,-0.76172 1.02539,-0.35156 2.02149,-0.76172 l -0.90821,-0.26367 h -0.26367 l -0.32226,0.32227 0.0586,0.26367 -0.0586,0.0879 h -0.58594 q -0.79102,0 -2.22656,-0.49805 l -2.66602,0.0879 z m -20.21484,-30.380856 1.20117,2.431641 q 0.26367,0.9375 2.16797,3.398437 h 0.11718 v -0.410156 q -0.38086,-0.410156 -0.58593,-1.054687 -0.20508,0 -0.43946,-0.996094 -0.32226,0 -0.58593,-1.113281 l -0.82032,-1.757813 -0.79101,-0.761719 z m 20.03906,-14.267578 v -0.292969 q -0.20508,0.351563 -0.41016,0.673829 -0.17578,0.322265 -0.38086,0.703125 -0.32226,0.585937 -0.70312,1.289062 -0.38086,0.673828 -0.79102,1.40625 -0.41015,0.703125 -0.84961,1.40625 -0.41015,0.703125 -0.82031,1.40625 0.20508,-0.146484 0.46875,-0.263672 1.78711,-1.728515 1.78711,-2.460937 0.84961,-0.878907 1.49414,-3.515625 z m 10.2832,24.580078 q 0.0293,0.117188 0.0586,0.234375 0.0293,0.117188 0.0586,0.234375 0.0586,0 0.11719,0.0293 0.0879,0 0.14648,0 0.9375,0.146485 1.61133,0.292969 0.70312,0.146484 1.23047,0.292969 0.58594,-0.38086 1.02539,-0.791016 -1.02539,-0.380859 -2.10938,-0.380859 -1.05468,-0.0293 -2.13867,0.08789 z m -22.4707,5.390625 q 0.43945,1.582032 2.87109,4.21875 0.70313,0.908203 1.28906,1.171875 l 0.0586,-0.08789 -1.34766,-1.875 q -0.14648,-0.410157 -0.76172,-0.732422 0,-0.322266 -1.17187,-1.611328 -0.67383,-0.908203 -0.67383,-1.083985 z M 224.6582,63.525391 q 0,0.351562 0.52735,0.498046 l 0.32226,-0.08789 h 0.0879 q 0.55664,0.205078 1.61133,2.109375 l 0.55664,0.585937 0.20508,-0.175781 -1.02539,-1.347656 v -0.175781 l 0.35156,-0.410157 v -0.08789 q -0.17578,-0.175782 -0.17578,-0.673828 -0.26367,-0.234375 -1.875,-0.234375 z m 7.41211,27.041015 q -0.0879,0.117188 -0.14648,0.205078 -0.0586,0.05859 -0.14649,0.175782 1.20118,1.376953 2.43164,2.724609 1.23047,1.318359 2.51954,2.636719 l -0.20508,-0.322266 q -1.23047,-1.376953 -2.34375,-2.753906 -1.11328,-1.376953 -2.10938,-2.666016 z M 261.25,88.339844 q 0.0879,0.380859 0.17578,0.732422 0.0879,0.351562 0.17578,0.732421 0.52735,-0.205078 1.05469,-0.410156 0.52734,-0.234375 1.02539,-0.46875 -0.61523,-0.175781 -1.23047,-0.322265 -0.58594,-0.146485 -1.11328,-0.263672 z m -17.51953,14.414066 q 0.0293,0.0586 0.0293,0.0586 0.14648,0.17578 0.29296,0.29297 0.14649,0.11719 0.29297,0.23437 h 0.14649 l 0.26367,-0.17578 h 0.58594 v -0.35156 l -1.11328,-1.02539 v -0.0586 h -0.0586 q -0.14648,0 -0.43945,0.58593 z m 8.08594,2.43164 q 0.38086,0.41015 1.25976,0.41015 h 0.52735 l 0.23437,0.20508 h 0.79102 v -0.20508 l -0.52735,-0.41015 h -1.8457 l -0.26367,-0.17578 z M 229.4043,76.679687 v -0.234375 q -0.0879,-0.146484 -0.0879,-0.322265 l -0.84961,-1.230469 -0.0879,0.08789 v 0.234375 q 0.67382,1.464843 0.84961,1.464843 z m -11.74805,29.941403 q -0.26367,0 -0.9082,-0.26367 -0.11719,0.17578 -0.20508,0.32227 -0.0586,0.17578 -0.14649,0.35156 l 1.25977,-0.0586 z M 231.25,89.482422 q -0.20508,0.146484 -0.43945,0.322265 0.17578,0.175782 0.35156,0.410157 0.17578,0.205078 0.35156,0.410156 0.0879,-0.08789 0.14649,-0.175781 0.0879,-0.08789 0.17578,-0.205078 -0.32227,-0.38086 -0.58594,-0.761719 z m -11.54297,14.208988 q -0.26367,0.11718 -0.43945,0.26367 v 0.64453 l 0.41015,0.14648 0.17579,-0.23437 v -0.41016 z m 39.49219,-16.025394 q -0.0293,0 -0.0586,0.0293 -0.0293,0 -0.0586,0 0.43945,0.0293 0.87891,0.08789 0.43945,0.05859 0.8789,0.117188 -0.0586,-0.117188 -0.0586,-0.205079 0,-0.08789 -0.0586,-0.175781 -0.38086,0.0293 -0.76172,0.08789 -0.38086,0.0293 -0.76172,0.05859 z M 218.59375,63.349609 v 0.175782 q 0.32227,0.498046 0.58594,0.55664 l 0.0879,-0.05859 v -0.351562 l -0.35156,-0.322266 z m 1.49414,43.183591 0.0879,0.0879 h 0.35156 l 0.26368,-0.35156 -0.0879,-0.0586 h -0.26367 z m -4.36523,0.49805 h 0.0879 q 0.0586,-0.14648 0.11718,-0.29297 0.0586,-0.14648 0.17579,-0.29297 l -0.64454,0.52735 z m 27.01171,-0.67383 v 0.26367 h 0.32227 v -0.26367 z M 229.72656,82.509766 v 0.146484 l 0.26367,0.263672 v -0.117188 l -0.11718,-0.292968 z m 0.9961,1.669921 v 0.322266 l 0.17578,-0.146484 z m 19.59961,-25.927734 v 0.205078 h 0.0879 V 58.251953 Z M 230.3125,83.417969 v 0.146484 h 0.17578 z m -3.63281,-11.367188 v 0.146485 l 0.17578,-0.146485 z" />
      <path
         id="path26"
         style="font-family:'Catharsis Macchiato'"
         d="M 273.64258,57.871094 V 67.1875 h 11.10351 v 4.189453 h -11.10351 v 17.8125 q 0,4.013672 1.08398,5.15625 1.11328,1.142578 4.48242,1.142578 h 5.53711 V 100 h -5.53711 q -6.24023,0 -8.61328,-2.314453 -2.37304,-2.34375 -2.37304,-8.496094 v -17.8125 h -3.95508 V 67.1875 h 3.95508 v -9.316406 z" />
      <path
         id="path28"
         style="font-family:'Catharsis Macchiato'"
         d="m 319.93164,82.246094 v 2.636718 h -24.78516 q 0.35157,5.566407 3.33985,8.496094 3.01758,2.900391 8.3789,2.900391 3.10547,0 6.00586,-0.761719 2.92969,-0.761719 5.80078,-2.285156 v 5.097656 q -2.90039,1.230469 -5.94726,1.875002 -3.04688,0.64453 -6.18164,0.64453 -7.85156,0 -12.45117,-4.570313 -4.57032,-4.570313 -4.57032,-12.363281 0,-8.056641 4.33594,-12.773438 4.36524,-4.746094 11.74805,-4.746094 6.62109,0 10.45898,4.277344 3.86719,4.248047 3.86719,11.572266 z m -5.39062,-1.582032 q -0.0586,-4.423828 -2.49024,-7.060546 -2.40234,-2.636719 -6.38672,-2.636719 -4.51172,0 -7.23633,2.548828 -2.69531,2.548828 -3.10546,7.177734 z" />
      <path
         id="path30"
         style="font-family:'Catharsis Macchiato'"
         d="m 354.32617,73.486328 q 2.02149,-3.632812 4.83399,-5.361328 2.8125,-1.728516 6.62109,-1.728516 5.12695,0 7.91016,3.603516 2.7832,3.574219 2.7832,10.195312 V 100 h -5.41992 V 80.371094 q 0,-4.716797 -1.66992,-7.001953 -1.66993,-2.285157 -5.09766,-2.285157 -4.18945,0 -6.62109,2.783203 -2.43165,2.783204 -2.43165,7.587891 V 100 h -5.41992 V 80.371094 q 0,-4.746094 -1.66992,-7.001953 -1.66992,-2.285157 -5.15625,-2.285157 -4.13086,0 -6.5625,2.8125 -2.43164,2.783203 -2.43164,7.558594 V 100 h -5.41992 V 67.1875 h 5.41992 v 5.097656 q 1.8457,-3.017578 4.42383,-4.453125 2.57812,-1.435547 6.12305,-1.435547 3.57421,0 6.06445,1.816407 2.51953,1.816406 3.7207,5.273437 z" />
      <path
         id="path32"
         style="font-family:'Catharsis Macchiato'"
         d="m 392.4707,95.078125 v 17.402345 h -5.41992 V 67.1875 h 5.41992 v 4.980469 q 1.69922,-2.929688 4.27735,-4.335938 2.60742,-1.435547 6.21093,-1.435547 5.97657,0 9.69727,4.746094 3.75,4.746094 3.75,12.480469 0,7.734375 -3.75,12.480469 -3.7207,4.746094 -9.69727,4.746094 -3.60351,0 -6.21093,-1.406251 -2.57813,-1.435547 -4.27735,-4.365234 z m 18.33985,-11.455078 q 0,-5.947266 -2.46094,-9.316406 -2.43164,-3.398438 -6.70899,-3.398438 -4.27734,0 -6.73828,3.398438 -2.43164,3.36914 -2.43164,9.316406 0,5.947265 2.43164,9.345703 2.46094,3.369141 6.73828,3.369141 4.27735,0 6.70899,-3.369141 2.46094,-3.398438 2.46094,-9.345703 z" />
      <path
         id="path34"
         style="font-family:'Catharsis Macchiato'"
         d="m 438.05664,70.966797 q -4.33594,0 -6.85547,3.398437 -2.51953,3.369141 -2.51953,9.257813 0,5.888672 2.49023,9.287109 2.51954,3.369141 6.88477,3.369141 4.30664,0 6.82617,-3.398438 2.51953,-3.398437 2.51953,-9.257812 0,-5.830078 -2.51953,-9.228516 -2.51953,-3.427734 -6.82617,-3.427734 z m 0,-4.570313 q 7.03125,0 11.04492,4.570313 4.01367,4.570312 4.01367,12.65625 0,8.05664 -4.01367,12.65625 -4.01367,4.570313 -11.04492,4.570313 -7.06055,0 -11.07422,-4.570313 -3.98437,-4.59961 -3.98437,-12.65625 0,-8.085938 3.98437,-12.65625 4.01367,-4.570313 11.07422,-4.570313 z" />
      <path
         id="path36"
         style="font-family:'Catharsis Macchiato'"
         d="m 481.03516,72.226562 q -0.90821,-0.527343 -1.99219,-0.761718 -1.05469,-0.263672 -2.34375,-0.263672 -4.57031,0 -7.03125,2.988281 -2.43164,2.958984 -2.43164,8.525391 V 100 h -5.41992 V 67.1875 h 5.41992 v 5.097656 q 1.69922,-2.988281 4.42383,-4.423828 2.72461,-1.464844 6.62109,-1.464844 0.55664,0 1.23047,0.08789 0.67383,0.05859 1.49414,0.205078 z" />
      <path
         id="path38"
         style="font-family:'Catharsis Macchiato'"
         d="m 501.66016,83.505859 q -6.53321,0 -9.05274,1.494141 -2.51953,1.494141 -2.51953,5.097656 0,2.871094 1.875,4.570313 1.9043,1.669922 5.15625,1.669922 4.48242,0 7.17773,-3.164063 2.72461,-3.193359 2.72461,-8.466797 v -1.201172 z m 10.75195,-2.226562 V 100 h -5.39063 v -4.980469 q -1.8457,2.988281 -4.59961,4.423828 -2.7539,1.406251 -6.73828,1.406251 -5.03906,0 -8.02734,-2.812501 -2.95898,-2.841797 -2.95898,-7.58789 0,-5.53711 3.6914,-8.34961 3.7207,-2.8125 11.07422,-2.8125 h 7.55859 v -0.527343 q 0,-3.720704 -2.46093,-5.742188 -2.43164,-2.050781 -6.85547,-2.050781 -2.8125,0 -5.47852,0.673828 -2.66601,0.673828 -5.12695,2.021484 v -4.980468 q 2.95898,-1.142579 5.74219,-1.699219 2.7832,-0.585938 5.41992,-0.585938 7.11914,0 10.63476,3.691407 3.51563,3.691406 3.51563,11.191406 z" />
      <path
         id="path40"
         style="font-family:'Catharsis Macchiato'"
         d="M 550.82031,80.195312 V 100 h -5.39062 V 80.371094 q 0,-4.658203 -1.81641,-6.972657 -1.81641,-2.314453 -5.44922,-2.314453 -4.36523,0 -6.88476,2.783203 -2.51953,2.783204 -2.51953,7.587891 V 100 h -5.41993 V 67.1875 h 5.41993 v 5.097656 q 1.93359,-2.958984 4.54101,-4.423828 2.63672,-1.464844 6.06445,-1.464844 5.6543,0 8.55469,3.515625 2.90039,3.486328 2.90039,10.283203 z" />
      <path
         id="path42"
         style="font-family:'Catharsis Macchiato'"
         d="m 589.69727,82.246094 v 2.636718 h -24.78516 q 0.35156,5.566407 3.33984,8.496094 3.01758,2.900391 8.37891,2.900391 3.10547,0 6.00586,-0.761719 2.92969,-0.761719 5.80078,-2.285156 v 5.097656 q -2.90039,1.230469 -5.94727,1.875002 -3.04687,0.64453 -6.18164,0.64453 -7.85156,0 -12.45117,-4.570313 -4.57031,-4.570313 -4.57031,-12.363281 0,-8.056641 4.33594,-12.773438 4.36523,-4.746094 11.74804,-4.746094 6.6211,0 10.45899,4.277344 3.86719,4.248047 3.86719,11.572266 z m -5.39063,-1.582032 q -0.0586,-4.423828 -2.49023,-7.060546 -2.40235,-2.636719 -6.38672,-2.636719 -4.51172,0 -7.23633,2.548828 -2.69531,2.548828 -3.10547,7.177734 z" />
      <path
         id="path44"
         style="font-family:'Catharsis Macchiato'"
         d="m 613.45703,83.505859 q -6.5332,0 -9.05273,1.494141 -2.51953,1.494141 -2.51953,5.097656 0,2.871094 1.875,4.570313 1.90429,1.669922 5.15625,1.669922 4.48242,0 7.17773,-3.164063 2.72461,-3.193359 2.72461,-8.466797 v -1.201172 z m 10.75195,-2.226562 V 100 h -5.39062 v -4.980469 q -1.8457,2.988281 -4.59961,4.423828 -2.75391,1.406251 -6.73828,1.406251 -5.03906,0 -8.02735,-2.812501 -2.95898,-2.841797 -2.95898,-7.58789 0,-5.53711 3.69141,-8.34961 3.7207,-2.8125 11.07422,-2.8125 h 7.55859 v -0.527343 q 0,-3.720704 -2.46094,-5.742188 -2.43164,-2.050781 -6.85547,-2.050781 -2.8125,0 -5.47851,0.673828 -2.66602,0.673828 -5.12696,2.021484 v -4.980468 q 2.95899,-1.142579 5.74219,-1.699219 2.7832,-0.585938 5.41992,-0.585938 7.11914,0 10.63477,3.691407 3.51562,3.691406 3.51562,11.191406 z" />
    </g>
  </g>
</svg>
