<?xml version="1.0" encoding="UTF-8" standalone="no"?>
<svg
   xmlns:dc="http://purl.org/dc/elements/1.1/"
   xmlns:cc="http://creativecommons.org/ns#"
   xmlns:rdf="http://www.w3.org/1999/02/22-rdf-syntax-ns#"
   xmlns:svg="http://www.w3.org/2000/svg"
   xmlns="http://www.w3.org/2000/svg"
   id="svg10"
   width="500px"
   version="1.1"
   height="200px">
  <metadata
     id="metadata14">
    <rdf:RDF>
      <cc:Work
         rdf:about="">
        <dc:format>image/svg+xml</dc:format>
        <dc:type
           rdf:resource="http://purl.org/dc/dcmitype/StillImage" />
      </cc:Work>
    </rdf:RDF>
  </metadata>
  <defs
     id="defs4">
    <style
       id="style2"
       type="text/css"><![CDATA[    
     @font-face {font-family:Camigata;
     src: url('/Users/francesco/Repos/write-logos/src/fonts//Camigata.ttf');}]]></style>
  </defs>
  <g
     id="g8"
     style="font-size:30px;font-family:Camigata">
    <g
       style=""
       id="text6"
       aria-label="eXtemporanea">
      <path
         id="path16"
         style=""
         d="m 101.81641,88.75 h 0.16113 q 0.52734,0 0.9082,0.366211 0.10254,0.161133 0.10254,0.307617 0,0.424805 -0.70312,0.834961 -0.26368,0.175781 -0.82032,0.336914 -0.23437,0.07324 -0.9082,0.161133 -0.51269,1.21582 -0.51269,2.167969 0,1.186523 0.86425,1.538086 0.16114,0.05859 0.4541,0.08789 1.33301,0 3.8086,-2.15332 1.20117,-1.12793 1.46484,-1.494141 0.39551,-0.483398 0.57129,-0.805664 0.10254,-0.05859 0.16113,-0.05859 h 0.0586 q 0.10254,0.01465 0.10254,0.04395 v 0.01465 q -0.17578,0.424805 -1.15723,1.508789 -1.04004,1.040039 -1.40625,1.31836 -2.25586,1.831054 -3.57422,1.831054 h -0.11719 q -0.57128,0 -1.21582,-0.512695 -0.454098,-0.46875 -0.600582,-0.908203 -0.19043,-0.541992 -0.19043,-0.996094 v -0.205078 q 0,-1.054687 0.747072,-2.197266 0.14648,-0.249023 0.64453,-0.717773 0.62988,-0.46875 1.15723,-0.46875 z m -0.98145,1.435547 h 0.0147 q 0.51269,-0.05859 0.86426,-0.263672 0.24902,-0.175781 0.24902,-0.322266 v -0.0293 q 0,-0.175781 -0.32226,-0.263671 -0.27833,0.117187 -0.62989,0.615234 -0.0879,0.102539 -0.17578,0.263672 z" />
      <path
         id="path18"
         style=""
         d="m 128.59375,74.072266 h 0.10254 q 0.27832,0 0.27832,0.27832 -0.0293,0.131836 -1.31836,0.776367 -1.53809,0.922852 -3.85254,3.149414 -2.88574,3.017578 -5.09766,6.108399 -2.15332,3.105468 -3.85253,5.947265 1.3623,3.134766 3.50097,6.269531 1.08399,1.845704 4.16016,5.009768 l 1.43555,1.28906 q -0.0146,0.0879 -0.19043,0.16113 -1.97754,-1.50879 -4.35059,-4.394528 -3.04688,-3.984375 -4.86328,-7.792969 h -0.044 q -3.79394,6.708985 -5.37597,11.015627 -0.42481,1.02539 -1.04004,3.14941 l -0.46875,0.23438 H 107.5 q -0.23437,-0.14649 -0.23437,-0.26367 1.30371,-4.90723 7.07519,-14.516606 -3.69141,-7.866211 -3.69141,-13.579102 v -0.395507 q 0,-0.08789 -0.0439,-0.146485 0.17578,-0.659179 0.58594,-0.659179 h 0.23437 q 0.27832,0 0.27832,0.263671 0,0.219727 -0.19043,0.512696 0,5.947265 3.14942,13.461914 0.19043,-0.205078 1.43554,-2.226563 3.14942,-4.877929 7.16309,-9.448242 3.09082,-3.134765 3.85254,-3.427734 1.09863,-0.776367 1.47949,-0.776367 z" />
      <path
         id="path20"
         style=""
         d="m 116.43555,78.759766 h 0.61523 q 1.30371,0 1.30371,0.424804 0.0439,0.05859 0.0439,0.19043 -0.11719,0.351562 -0.65918,0.351562 h -0.19043 q -0.54199,-0.05859 -0.54199,-0.46875 -0.26368,-0.0293 -0.41016,-0.0293 -3.19336,0 -4.81934,2.607421 -0.23437,0.527344 -0.23437,0.84961 v 0.380859 q 0,1.508789 2.31445,2.050781 0.60059,0.146485 1.58203,0.146485 2.51953,0 6.24024,-1.040039 0.76172,-3.896485 1.34765,-5.200196 0.24903,-0.190429 0.57129,-0.190429 0.23438,0.08789 0.23438,0.161133 -0.80567,2.490234 -1.3916,5.039062 h 0.0439 q 9.63867,-3.046875 10.62012,-3.046875 1.20117,-0.263672 2.3584,-0.263672 2.34375,0 2.84179,1.508789 v 0.07324 q -0.0732,0.146485 -0.19043,0.146485 -0.10253,0 -0.65918,-0.834961 -0.74707,-0.65918 -1.91894,-0.65918 h -0.30762 q -0.0439,0 -0.0439,-0.04394 l -0.0733,0.04394 h -0.23437 q -2.21191,0 -10.40039,2.651367 -0.43945,0.161133 -2.10938,0.65918 -1.20117,5.288086 -1.20117,9.169922 v 0.0293 q 0,3.75 1.55274,4.658203 0.20507,0.04394 0.33691,0.04394 h 0.16113 q 1.34766,0 4.2334,-4.277343 1.25977,-2.021485 2.22656,-3.764649 l 0.0879,-0.04394 h 0.19043 v 0.04394 q -0.71777,1.552734 -2.85644,4.760742 -2.50488,3.515625 -4.11621,3.515625 h -0.044 q -1.83105,0 -2.15332,-4.658203 -0.0439,-0.732422 -0.0439,-1.245117 0,-3.325195 0.89355,-8.041992 h -0.0439 q -4.02832,1.040039 -6.31348,1.040039 -3.7793,0 -4.39453,-2.314453 -0.0293,-0.19043 -0.0293,-0.454102 0,-1.699219 2.69531,-3.237305 1.64063,-0.732421 2.88575,-0.732421 z" />
      <path
         id="path22"
         style=""
         d="m 131.52344,88.75 h 0.16113 q 0.52734,0 0.9082,0.366211 0.10254,0.161133 0.10254,0.307617 0,0.424805 -0.70312,0.834961 -0.26367,0.175781 -0.82032,0.336914 -0.23437,0.07324 -0.9082,0.161133 -0.51269,1.21582 -0.51269,2.167969 0,1.186523 0.86425,1.538086 0.16114,0.05859 0.45411,0.08789 1.333,0 3.80859,-2.15332 1.20117,-1.12793 1.46484,-1.494141 0.39551,-0.483398 0.57129,-0.805664 0.10254,-0.05859 0.16114,-0.05859 h 0.0586 q 0.10254,0.01465 0.10254,0.04395 v 0.01465 q -0.17578,0.424805 -1.15723,1.508789 -1.04004,1.040039 -1.40625,1.31836 -2.25586,1.831054 -3.57422,1.831054 h -0.11718 q -0.57129,0 -1.21583,-0.512695 -0.4541,-0.46875 -0.60058,-0.908203 -0.19043,-0.541992 -0.19043,-0.996094 v -0.205078 q 0,-1.054687 0.74707,-2.197266 0.14648,-0.249023 0.64453,-0.717773 0.62988,-0.46875 1.15723,-0.46875 z m -0.98145,1.435547 h 0.0146 q 0.5127,-0.05859 0.86426,-0.263672 0.24902,-0.175781 0.24902,-0.322266 v -0.0293 q 0,-0.175781 -0.32226,-0.263671 -0.27832,0.117187 -0.62989,0.615234 -0.0879,0.102539 -0.17578,0.263672 z" />
      <path
         id="path24"
         style=""
         d="m 141.99707,86.186523 q 0.54199,0 0.54199,0.9375 v 0.102539 q 0,0.65918 -0.24902,4.423829 v 0.644531 l 0.0586,0.351562 q 0.23438,-0.205078 1.33301,-1.948242 0.52734,-0.644531 0.99609,-0.644531 h 0.10254 q 0.4834,0 0.79102,1.59668 0.39551,1.040039 1.18652,1.040039 1.37696,0 3.92578,-2.226563 0.38086,-0.410156 0.542,-0.410156 l 0.10253,0.161133 q -2.92968,2.680664 -4.6582,2.680664 -0.92285,0 -1.28906,-0.893555 l -0.60059,-1.743164 h -0.14648 q -0.4541,0 -1.78711,2.241211 -0.35156,0.336914 -0.55664,0.336914 h -0.14649 q -0.35156,-0.161133 -0.35156,-0.74707 v -0.08789 q 0.10254,-4.438476 0.10254,-4.921875 0,-0.498047 -0.24902,-0.498047 -0.4541,0 -1.72852,2.53418 -0.55664,0.981445 -2.34375,5.112305 -0.43945,0.659179 -0.68847,0.74707 h -0.10254 q -0.30762,0 -0.35157,-1.142578 0.26368,-4.028321 0.84961,-4.028321 l 0.29297,-0.04395 h 0.10254 l 0.20508,0.146485 q -0.74707,2.70996 -0.74707,3.925781 0.0439,0.01465 0.0439,0.498047 h 0.0586 q 3.2373,-8.144532 4.76074,-8.144532 z" />
      <path
         id="path26"
         style=""
         d="m 151.88477,88.544922 h 0.26367 q 0.0586,0 0.11718,0.117187 v 0.07324 q -1.37695,5.288085 -1.40625,7.075195 -0.11718,0.454101 -0.21972,2.490234 v 0.117188 h 0.0293 q 0,-0.878907 1.25976,-5.06836 1.58203,-4.233398 3.58887,-4.233398 1.62597,0.19043 1.62597,1.582031 v 0.454102 l 0.0293,0.07324 q 2.25586,-1.12793 3.63281,-1.12793 l 0.044,0.07324 q 0,0.131836 -1.28906,0.307618 -1.46485,0.410156 -2.49024,1.054687 -0.4541,1.933594 -1.62597,3.178711 -1.23047,1.171875 -2.12403,1.171875 h -0.19043 q -0.4541,-0.102539 -0.4541,-0.424805 v -0.102539 q 0.0879,-1.230468 3.75,-3.706054 0.0293,-0.07324 0.0293,-0.161133 v -0.644531 q 0,-0.981446 -0.71778,-1.274415 l -0.21972,-0.04395 h -0.26367 q -2.69532,0 -4.42383,9.75586 -0.27832,2.080073 -0.38086,2.197263 h -0.19043 l -0.14649,-0.11719 q -0.0439,-1.14257 -0.0439,-1.699214 v -1.054688 q 0,-5.15625 1.3623,-9.873046 0.23438,-0.19043 0.45411,-0.19043 z m 1.28906,6.811523 q 0,0.219727 0.38086,0.292969 1.12793,0 2.2998,-2.080078 0.23438,-0.439453 0.52735,-1.582031 h -0.0293 q -3.17871,2.211914 -3.17871,3.36914 z" />
      <path
         id="path28"
         style=""
         d="m 161.93359,88.837891 h 0.11719 q 0.98145,0 1.40625,1.054687 0.11719,0.424805 0.11719,0.996094 v 0.05859 q 2.12402,0 3.98437,-0.84961 0.10254,0.0293 0.10254,0.117188 -1.55273,0.9375 -4.14551,0.9375 v 0.05859 q -0.49804,2.080079 -1.31835,2.680665 -0.38086,0.307617 -0.62989,0.307617 h -0.10254 q -1.20117,-0.249024 -1.20117,-1.933594 v -0.05859 q 0,-0.644531 0.30762,-1.845703 -0.17578,0 -0.26367,-0.571289 0.24902,-0.952148 1.62597,-0.952148 z m -1.25976,0.952148 v 0.161133 h 0.10254 q 0,-0.483399 0.74707,-0.585938 0.30761,0.04395 0.30761,0.161133 0,0.08789 -0.4248,1.054688 0.84961,0.307617 1.78711,0.307617 v -0.04394 q 0,-1.78711 -1.46484,-1.78711 -1.05469,0.117188 -1.05469,0.732422 z m 0.62988,1.098633 q -0.26367,0.922851 -0.26367,1.523437 0,1.31836 0.58594,1.31836 h 0.0439 q 0.89356,0 1.47949,-2.519532 0,-0.05859 -0.0586,-0.05859 -1.14258,-0.102539 -1.78711,-0.307617 z" />
      <path
         id="path30"
         style=""
         d="m 170.69336,87.841797 h 0.0879 q 0.4834,0 1.08398,0.673828 0.65918,0.688477 0.84961,0.834961 1.06934,0.878906 2.50489,0.878906 0.57129,0 1.42089,-0.175781 0.0732,0 0.10254,0.05859 v 0.0293 q 0,0.102539 -0.43945,0.161132 -0.58594,0.102539 -1.21582,0.102539 -1.74316,0 -2.98828,-1.274414 -0.79102,-0.820312 -0.80566,-0.820312 -0.33692,-0.27832 -0.57129,-0.27832 h -0.0586 q -0.43945,0 -0.92285,0.9375 -0.68848,1.245117 -1.52344,4.11621 -0.20507,0.703125 -0.33691,1.245118 -0.17578,0.131836 -0.33691,0.131836 H 167.5 q -0.14648,0 -0.14648,-0.175782 -0.0879,-0.454101 -0.0879,-1.230468 v -0.439454 q 0,-1.77246 0.24903,-3.237304 0,-0.175781 0.23437,-0.395508 0.21973,-0.146484 0.38086,-0.146484 h 0.0293 q 0.23437,0.0293 0.23437,0.234375 v 0.0293 q 0,0.175782 -0.16113,0.527344 -0.14648,0.527344 -0.24902,2.519531 v 0 h 0.0147 q 0.99609,-2.70996 1.88965,-3.823242 0.3955,-0.483398 0.80566,-0.483398 z" />
      <path
         id="path32"
         style=""
         d="m 180.46387,88.779297 h 0.0439 q 0.21973,0.04394 0.21973,0.219726 -0.0439,1.245118 -0.0439,1.508789 v 0.483399 q 0,2.270508 1.04004,2.270508 h 0.0146 q 1.11328,0 3.35449,-2.548828 1.65528,-1.816407 2.16797,-1.860352 h 0.0439 q 0.30761,0 0.41015,0.483398 v 0.234375 q -0.29297,0.84961 -0.67382,3.647461 v 0.01465 h 0.0293 q 0.9961,-2.050781 2.21192,-3.603516 0.43945,-0.483398 0.9082,-0.483398 0.33691,0 0.41016,1.02539 0.0439,1.215821 0.46875,2.153321 0.38086,0.644531 1.20117,0.644531 1.50879,0 5.02441,-2.827148 h 0.13184 q 0.0293,0 0.0586,0.07324 v 0.01465 q -3.54492,2.958985 -5.40527,2.958985 -1.11328,0 -1.55274,-1.31836 -0.19043,-0.65918 -0.33691,-2.211914 -0.0732,-0.249023 -0.10254,-0.249023 -0.17578,0 -0.71777,0.849609 -0.64453,1.054688 -2.03614,3.618164 -0.20507,0.19043 -0.33691,0.19043 h -0.21973 q -0.33691,0 -0.33691,-0.791016 0,-0.981445 0.58594,-3.706055 -0.0293,-0.117187 -0.0732,-0.117187 -0.20507,0 -1.86035,1.787109 -2.18261,2.25586 -3.45703,2.25586 -0.99609,0 -1.27441,-1.362305 -0.16113,-0.615234 -0.16113,-1.464844 v -0.410156 q 0,-0.527344 0.0439,-1.142578 h -0.0439 q -0.41016,0.673828 -0.58594,1.054687 0.13183,0.483399 0.13183,0.600586 v 0.0293 q -0.10254,0.483399 -0.60058,0.483399 -0.0732,0 -0.20508,-0.05859 -2.02148,3.061523 -2.97363,3.061523 h -0.0586 q -0.43945,0 -0.49804,-0.9375 v -0.175781 q 0,-1.582031 1.20117,-3.369141 0.79101,-0.9375 1.64062,-0.9375 0.74707,0 1.20117,0.966797 0.5127,-0.688476 0.67383,-0.849609 0.21973,-0.205078 0.33692,-0.205078 z m -4.32129,4.77539 q 0.0439,0.307618 0.14648,0.307618 h 0.0586 q 0.52734,-0.161133 1.68457,-1.78711 l 0.73242,-1.127929 v -0.263672 q 0,-1.274414 -0.5127,-1.274414 -0.38086,0 -1.06933,1.157226 -1.04004,2.021485 -1.04004,2.988281 z" />
      <path
         id="path34"
         style=""
         d="m 199.08203,88.75 h 0.16113 q 0.52735,0 0.90821,0.366211 0.10254,0.161133 0.10254,0.307617 0,0.424805 -0.70313,0.834961 -0.26367,0.175781 -0.82031,0.336914 -0.23438,0.07324 -0.9082,0.161133 -0.5127,1.21582 -0.5127,2.167969 0,1.186523 0.86426,1.538086 0.16113,0.05859 0.4541,0.08789 1.33301,0 3.80859,-2.15332 1.20118,-1.12793 1.46485,-1.494141 0.3955,-0.483398 0.57129,-0.805664 0.10254,-0.05859 0.16113,-0.05859 h 0.0586 q 0.10254,0.01465 0.10254,0.04395 v 0.01465 q -0.17578,0.424805 -1.15722,1.508789 -1.04004,1.040039 -1.40625,1.31836 -2.25586,1.831054 -3.57422,1.831054 h -0.11719 q -0.57129,0 -1.21582,-0.512695 -0.4541,-0.46875 -0.60059,-0.908203 -0.19043,-0.541992 -0.19043,-0.996094 v -0.205078 q 0,-1.054687 0.74707,-2.197266 0.14649,-0.249023 0.64453,-0.717773 0.62989,-0.46875 1.15723,-0.46875 z m -0.98144,1.435547 h 0.0146 q 0.5127,-0.05859 0.86426,-0.263672 0.24903,-0.175781 0.24903,-0.322266 v -0.0293 q 0,-0.175781 -0.32227,-0.263671 -0.27832,0.117187 -0.62988,0.615234 -0.0879,0.102539 -0.17578,0.263672 z" />
      <path
         id="path36"
         style=""
         d="m 208.50098,88.793945 h 0.0146 q 0.14649,0 0.20508,0.161133 0.0147,0.0293 0.0293,0.117188 -0.10254,1.113281 -0.10254,1.625976 0,2.050781 0.83496,2.592774 0.26367,0.175781 0.62988,0.175781 1.55274,0 4.76075,-3.369141 0.0732,-0.04394 0.17578,-0.04394 h 0.0439 q 0.0586,0 0.0879,0.04394 v 0.01465 q 0,0.04394 -0.23437,0.27832 -3.19336,3.295898 -4.92188,3.295898 -1.23046,0 -1.62597,-1.552734 -0.19043,-0.761719 -0.19043,-1.816406 0.0146,-0.878906 0.0439,-1.171875 0,-0.01465 0,-0.0293 h -0.0146 q -0.17578,0.19043 -0.46875,0.74707 -0.14648,0.307617 -0.16113,0.307617 0.14649,0.46875 0.14649,0.571289 v 0.05859 q 0,0.263672 -0.36621,0.454102 -0.11719,0.0293 -0.20508,0.0293 -0.11719,0 -0.23438,-0.07324 -0.52734,0.864258 -1.33301,1.831055 -1.04003,1.230469 -1.61132,1.230469 h -0.0293 q -0.42481,0 -0.52734,-0.703125 -0.0147,-0.102539 -0.0147,-0.249024 v -0.146484 q 0,-1.054687 0.68847,-2.504883 0.95215,-1.772461 2.09473,-1.772461 h 0.0586 q 0.73243,0 1.20118,0.966797 h 0.0146 q 0.67383,-1.069336 1.01075,-1.069336 z m -4.33594,4.731446 q 0,0.336914 0.17578,0.336914 0.4541,0 1.80176,-1.962891 0.14648,-0.19043 0.64453,-0.952148 v -0.04395 -0.366211 q 0,-0.908203 -0.36621,-1.113281 -0.10254,-0.01465 -0.10254,-0.01465 -0.62988,0 -1.58203,2.080078 -0.57129,1.40625 -0.57129,2.036133 z" />
    </g>
  </g>
</svg>
