<?xml version="1.0" encoding="UTF-8" standalone="no"?>
<svg
   xmlns:dc="http://purl.org/dc/elements/1.1/"
   xmlns:cc="http://creativecommons.org/ns#"
   xmlns:rdf="http://www.w3.org/1999/02/22-rdf-syntax-ns#"
   xmlns:svg="http://www.w3.org/2000/svg"
   xmlns="http://www.w3.org/2000/svg"
   id="svg16"
   width="800px"
   version="1.1"
   height="200px">
  <metadata
     id="metadata20">
    <rdf:RDF>
      <cc:Work
         rdf:about="">
        <dc:format>image/svg+xml</dc:format>
        <dc:type
           rdf:resource="http://purl.org/dc/dcmitype/StillImage" />
      </cc:Work>
    </rdf:RDF>
  </metadata>
  <defs
     id="defs4">
    <style
       id="style2"
       type="text/css"><![CDATA[    
     @font-face {font-family:CHANEY Extended;
     src: url('/Users/francesco/Repos/write-logos/src/fonts/Fonts_E_TEMPORANEA/CHANEY-Extended.otf');}
     @font-face {font-family:PWChalk;
     src: url('/Users/francesco/Repos/write-logos/src/fonts/Fonts_X/PWChalk.ttf');}
     ]]></style>
  </defs>
  <g
     id="g14"
     style="font-size:60px">
    <g
       style="text-anchor:middle"
       id="text12"
       aria-label="EXTEMPORANEA">
      <path
         id="path22"
         style="font-family:'CHANEY Extended';letter-spacing:0.075em"
         d="M 67.520781,69.4 V 58 h -50.22 v 42 h 50.22 V 88.6 h -37.02 v -4.08 h 32.94 V 73.6 h -32.94 v -4.2 z" />
      <path
         id="path24"
         style="font-family:PWChalk;letter-spacing:0.05em"
         d="m 82.490781,69.1 1.74,1.98 -0.84,-1.08 -2.58,-4.02 -1.26,-1.86 0.42,0.96 1.92,3.18 z m 12.42,18.66 0.3,0.54 2.16,3.3 1.62,2.58 -0.66,0.36 0.48,0.66 1.619999,1.68 0.9,0.72 0.06,0.12 -0.12,-0.84 -1.379999,-2.22 -1.26,-2.16 -0.42,-0.6 -2.28,-2.88 z m -6.54,-8.4 -0.12,0.12 0.12,0.18 0.66,1.02 0.18,-0.24 z m 8.4,8.34 -0.9,-1.38 -0.48,-0.6 1.08,1.56 0.84,1.32 z m -17.76,3.24 V 91 Z m 8.1,-4.62 2.4,-3.24 -0.24,-0.3 -0.3,0.42 z m 13.919999,-18.6 2.76,-3.72 -1.5,1.56 -3.599999,4.44 z m -9.719999,15.96 -0.12,0.24 0.3,0.42 2.88,4.44 -2.16,-3.66 z m -1.02,-1.62 -0.24,-0.42 -0.18,0.24 0.24,0.42 z m 3.24,-4.02 -0.48,-0.6 -0.48,0.72 0.42,0.6 z m -7.62,-9.3 0.3,0.54 2.76,4.2 v 0.06 l 0.9,1.14 0.48,-0.6 -0.96,-1.2 -2.7,-3.18 z m 6.3,6.06 0.66,0.84 3.18,-4.56 3.84,-5.16 2.999999,-4.02 -2.58,2.64 -4.319999,4.5 0.66,0.6 z m 1.5,1.86 0.42,0.6 0.6,-0.72 0.6,-0.72 1.5,-2.22 1.32,-1.8 -0.9,0.9 z m -2.16,-1.14 -0.54,0.6 0.24,0.3 0.54,0.72 0.24,-0.3 0.3,-0.42 -0.12,-0.12 z m -14.58,20.88 -0.84,-0.36 0.06,-0.24 -0.18,0.3 -0.42,1.26 -0.06,0.6 -0.96,-0.12 0.06,-0.72 0.54,-1.38 1.5,-2.76 2.22,-3.72 3.3,-5.04 4.2,-5.34 0.24,-0.3 -2.16,-3.48 -0.84,-1.38 -2.22,-2.7 -2.34,-3 -1.5,-2.1 0.72,-0.66 0.78,0.54 0.3,0.24 -0.06,-0.12 -0.18,-0.36 -0.24,-0.42 -1.86,-2.82 -1.02,-1.98 0.54,-0.3 -0.06,-0.06 0.54,-0.3 -0.3,-0.66 0.78,-0.6 0.72,0.6 1.32,1.62 v -0.06 l -0.48,-0.84 0.84,-0.54 0.06,0.18 0.9,-0.24 0.24,0.9 1.08,2.22 0.36,0.66 2.1,2.82 2.76,3.36 2.7,3.18 0.9,1.02 4.26,-4.86 4.32,-4.62 3.659999,-3.66 2.4,-2.16 1.08,-0.9 0.72,0.66 -1.2,1.44 -2.34,2.94 -1.2,1.62 1.98,-2.1 1.8,-1.68 0.9,-0.66 0.66,0.72 -0.96,1.44 -2.46,3 -1.38,1.86 0.18,0.24 0.78,-0.84 1.62,-1.74 1.08,-1.2 2.7,-2.76 0.84,-0.84 0.72,0.6 -0.9,1.02 -2.16,2.22 -1.56,1.62 -2.4,2.7 -4.14,4.62 -3.179999,3.6 -1.86,2.7 0.48,0.66 2.52,3.3 2.579999,3.3 2.16,3.3 1.98,3.12 1.62,2.52 1.2,1.68 0.48,0.78 -0.84,0.48 -0.48,-0.78 -1.2,-1.68 -1.62,-2.52 -1.98,-3.12 -2.159999,-3.18 -2.46,-3.3 -2.52,-3.3 -0.36,-0.42 -0.54,0.78 0.6,0.84 3.12,4.02 2.519999,3.84 2.58,3.36 0.48,0.78 0.84,1.02 0.9,1.74 1.32,2.1 0.96,1.32 -0.84,0.6 -0.96,-1.44 -1.02,-1.56 -0.78,-0.78 -1.62,-1.86 -0.3,-0.36 0.6,1.38 -0.6,0.72 0.6,1.02 -0.12,1.8 -1.14,0.12 -1.139999,-0.96 -1.74,-1.8 -2.1,-2.82 -2.46,-3.72 -2.88,-4.44 -1.5,2.34 -2.82,4.62 -1.92,3.06 -0.66,0.54 -0.66,-0.66 0.42,-0.54 1.2,-2.34 2.16,-3.54 0.6,-0.96 -1.14,1.5 -3.66,5.4 -2.58,4.14 -0.84,1.44 -0.54,1.02 -0.12,-0.06 -0.36,0.54 -0.54,1.08 -0.84,-0.36 0.54,-1.2 1.38,-2.22 0.78,-1.5 2.58,-4.68 1.14,-1.98 -0.9,1.38 -2.34,4.32 -1.5,2.64 -0.84,-0.48 1.5,-2.64 2.34,-4.32 3.78,-5.82 3.12,-4.02 -0.84,-1.26 -1.44,1.74 -3.78,5.1 -2.52,4.32 -1.8,2.58 -0.72,1.56 z" />
      <path
         id="path26"
         style="font-family:'CHANEY Extended';letter-spacing:0.075em"
         d="m 180.30109,58 h -57.18 v 11.58 h 21.96 V 100 h 13.2 V 69.58 h 22.02 z" />
      <path
         id="path28"
         style="font-family:'CHANEY Extended';letter-spacing:0.075em"
         d="M 241.00516,69.4 V 58 h -50.22 v 42 h 50.22 V 88.6 h -37.02 v -4.08 h 32.94 V 73.6 h -32.94 v -4.2 z" />
      <path
         id="path30"
         style="font-family:'CHANEY Extended';letter-spacing:0.075em"
         d="m 301.75516,58 -18.42,16.44 -18.9,-16.44 h -12.9 v 42 h 12.9 V 75.64 l 18.9,16.38 18.42,-16.2 V 100 h 12.9 V 58 Z" />
      <path
         id="path32"
         style="font-family:'CHANEY Extended';letter-spacing:0.075em"
         d="m 364.05578,58 h -38.88 v 42 h 13.2 v -9.6 h 25.68 c 10.74,0 17.82,-7.26 17.82,-16.2 0,-8.94 -7.08,-16.2 -17.82,-16.2 z m 0,20.82 h -25.68 v -9.24 h 25.68 c 2.52,0 4.62,2.04 4.62,4.62 0,2.58 -2.1,4.62 -4.62,4.62 z" />
      <path
         id="path34"
         style="font-family:'CHANEY Extended';letter-spacing:0.075em"
         d="m 429.11922,57.28 h -16.08 c -13.44,0 -23.04,8.76 -23.04,21.72 0,13.02 9.9,21.72 23.04,21.72 h 16.08 c 13.44,0 23.04,-8.7 23.04,-21.72 0,-12.96 -9.6,-21.72 -23.04,-21.72 z m 0,31.14 h -16.08 c -5.7,0 -9.6,-4.02 -9.6,-9.42 0,-5.34 3.9,-9.42 9.6,-9.42 h 16.08 c 5.7,0 9.6,4.08 9.6,9.42 0,5.4 -3.9,9.42 -9.6,9.42 z" />
      <path
         id="path36"
         style="font-family:'CHANEY Extended';letter-spacing:0.075em"
         d="m 461.44141,100 h 13.26 v -9.6 h 21.48 l 5.7,9.6 h 15.3 l -7.68,-11.76 c 5.4,-2.76 8.64,-8.04 8.64,-14.04 0,-8.94 -7.08,-16.2 -17.82,-16.2 h -38.88 z m 13.26,-21.18 v -9.24 h 25.62 c 2.52,0 4.62,2.04 4.62,4.62 0,2.58 -2.1,4.62 -4.62,4.62 z" />
      <path
         id="path38"
         style="font-family:'CHANEY Extended';letter-spacing:0.075em"
         d="m 574.37359,100 h 13.38 l -11.1,-42 h -40.02 l -11.1,42 h 13.32 l 1.74,-6.66 h 32.04 z m -30.78,-18.36 3.12,-12.06 h 19.74 l 3.12,12.06 z" />
      <path
         id="path40"
         style="font-family:'CHANEY Extended';letter-spacing:0.075em"
         d="M 641.07203,58 V 82.72 L 608.79203,58 h -12.96 v 42 h 12.96 V 75.1 l 32.28,24.9 h 12.96 V 58 Z" />
      <path
         id="path42"
         style="font-family:'CHANEY Extended';letter-spacing:0.075em"
         d="M 714.77078,69.4 V 58 h -50.22 v 42 h 50.22 V 88.6 h -37.02 v -4.08 h 32.94 V 73.6 h -32.94 v -4.2 z" />
      <path
         id="path44"
         style="font-family:'CHANEY Extended';letter-spacing:0.075em"
         d="m 771.74078,100 h 13.38 l -11.1,-42 h -40.02 l -11.1,42 h 13.32 l 1.74,-6.66 h 32.04 z m -30.78,-18.36 3.12,-12.06 h 19.74 l 3.12,12.06 z" />
    </g>
  </g>
</svg>
