<?xml version="1.0" encoding="UTF-8" standalone="no"?>
<svg
   xmlns:dc="http://purl.org/dc/elements/1.1/"
   xmlns:cc="http://creativecommons.org/ns#"
   xmlns:rdf="http://www.w3.org/1999/02/22-rdf-syntax-ns#"
   xmlns:svg="http://www.w3.org/2000/svg"
   xmlns="http://www.w3.org/2000/svg"
   id="svg16"
   width="800px"
   version="1.1"
   height="200px">
  <metadata
     id="metadata20">
    <rdf:RDF>
      <cc:Work
         rdf:about="">
        <dc:format>image/svg+xml</dc:format>
        <dc:type
           rdf:resource="http://purl.org/dc/dcmitype/StillImage" />
      </cc:Work>
    </rdf:RDF>
  </metadata>
  <defs
     id="defs4">
    <style
       id="style2"
       type="text/css"><![CDATA[    
     @font-face {font-family:CHANEY;
     src: url('/Users/francesco/Repos/write-logos/src/fonts/Fonts_E_TEMPORANEA/CHANEY-Regular.otf');}
     @font-face {font-family:Special Elite;
     src: url('/Users/francesco/Repos/write-logos/src/fonts/Fonts_X/SpecialElite-Regular.ttf');}
     ]]></style>
  </defs>
  <g
     id="g14"
     style="font-size:60px">
    <g
       style="text-anchor:middle"
       id="text12"
       aria-label="EXTEMPORANEA">
      <path
         id="path22"
         style="font-family:CHANEY;letter-spacing:0.075em"
         d="M 143.31719,69.4 V 58 h -34.2 v 42 h 34.2 V 88.54 h -21 v -4.02 h 16.92 V 73.6 h -16.92 v -4.2 z" />
      <path
         id="path24"
         style="font-family:'Special Elite';letter-spacing:0.05em"
         d="m 185.58789,96.25 q -0.14648,0.673828 -0.32227,1.376953 -0.14648,0.703125 -0.46875,1.289063 -0.23437,0.410156 -0.79101,0.644531 -0.52734,0.205078 -1.17188,0.322265 Q 182.21875,100 181.57422,100 q -0.64453,0.0293 -1.05469,0.0293 -1.75781,0 -3.51562,-0.175784 -1.72852,-0.205079 -3.48633,-0.322266 -0.67383,-0.0293 -1.28906,-0.05859 -0.58594,-0.05859 -1.08399,-0.263672 -0.46875,-0.234375 -0.76172,-0.673828 -0.26367,-0.46875 -0.26367,-1.318359 0,-1.31836 0.35156,-1.992188 0.35157,-0.703125 0.79102,-1.113281 0.43945,-0.439453 0.79101,-0.761719 0.35157,-0.322265 0.35157,-0.878906 0,-0.585937 -0.29297,-1.054687 -0.29297,-0.498047 -0.61524,-0.996094 -0.46875,-0.732422 -0.73242,-1.611328 -0.23437,-0.908203 -0.55664,-1.699219 -0.32226,-0.791016 -0.9082,-1.318359 -0.58594,-0.527344 -1.72852,-0.527344 -0.61523,0 -0.82031,0.234375 -0.17578,0.205078 -0.23438,0.55664 -0.0586,0.322266 -0.14648,0.703125 -0.0586,0.351563 -0.43945,0.615235 -0.52735,0.380859 -0.9961,1.054687 -0.46875,0.673828 -0.82031,1.435547 -0.35156,0.761719 -0.55664,1.582031 -0.20508,0.791016 -0.20508,1.435547 0,0.527344 0.38086,1.025391 0.38086,0.46875 0.84961,0.966797 0.46875,0.498047 0.84961,1.054687 0.38086,0.556641 0.38086,1.259766 0,0.146484 -0.0586,0.46875 -0.0586,0.292969 -0.29297,0.292969 -0.14649,0 -0.29297,-0.08789 -0.11719,-0.08789 -0.26367,-0.08789 -0.11719,0 -0.20508,0.117188 -0.0586,0.117187 -0.0586,0.234375 0,0.117187 0.14649,0.117187 h 0.0586 q 0.11719,0 0.20508,0.0293 0.0879,0.0293 0.0879,0.263672 0,0.351563 -0.26367,0.556641 -0.26367,0.205078 -0.64453,0.322265 -0.35156,0.08789 -0.73242,0.117188 -0.38086,0 -0.61524,0 -0.58594,0 -1.14258,-0.05859 -0.52734,-0.05859 -1.11328,-0.05859 -1.58203,0 -3.19336,0.146485 -1.58203,0.117187 -3.19336,0.117187 -0.43945,0 -0.99609,-0.0293 -0.55664,-0.0293 -1.05469,-0.175781 -0.49804,-0.175781 -0.84961,-0.498047 -0.32226,-0.351562 -0.32226,-0.966797 0,-0.615234 0.35156,-1.113281 0.35156,-0.527344 0.79102,-0.908203 0.52734,-0.439453 1.14257,-0.673828 0.61524,-0.263672 1.25977,-0.46875 0.64453,-0.205078 1.25977,-0.439453 0.64453,-0.234375 1.17187,-0.673828 0.76172,-0.615235 1.25977,-1.435547 0.52734,-0.84961 0.9375,-1.728516 0.43945,-0.908203 0.8789,-1.787109 0.43946,-0.908203 1.11328,-1.640625 0.20508,-0.234375 0.41016,-0.615235 0.20508,-0.380859 0.35156,-0.820312 0.14649,-0.439453 0.23438,-0.849609 0.0879,-0.439454 0.0879,-0.761719 0,-0.263672 0.20508,-0.410156 0.23437,-0.175782 0.41015,-0.322266 0.55664,-0.410156 0.82031,-0.791016 0.26368,-0.410156 0.49805,-1.054687 0.29297,-0.878906 0.73242,-1.757813 0.46875,-0.878906 0.46875,-1.816406 0,-0.380859 -0.17578,-0.966797 -0.14648,-0.615234 -0.41015,-1.230469 -0.23438,-0.615234 -0.52735,-1.171875 -0.29297,-0.55664 -0.55664,-0.849609 -0.23437,-0.263672 -0.43945,-0.410156 -0.20508,-0.146485 -0.35156,-0.263672 -0.14649,-0.146484 -0.23438,-0.351563 -0.0879,-0.234375 -0.0879,-0.673828 0,-0.46875 -0.14648,-0.849609 -0.14649,-0.380859 -0.38086,-0.703125 -0.23438,-0.351563 -0.52735,-0.673828 -0.26367,-0.322266 -0.49804,-0.673828 -0.38086,-0.556641 -0.64454,-1.171875 -0.23437,-0.644532 -0.46875,-1.289063 -0.20507,-0.644531 -0.49804,-1.259765 -0.26367,-0.615235 -0.70313,-1.142579 -0.52734,-0.615234 -0.8789,-0.996093 -0.35157,-0.38086 -0.73243,-0.585938 -0.38085,-0.234375 -0.9082,-0.292969 -0.49805,-0.08789 -1.31836,-0.08789 -0.38086,0 -0.96679,-0.205078 -0.58594,-0.234375 -1.14258,-0.556641 -0.52735,-0.351562 -0.9375,-0.791016 -0.38086,-0.439453 -0.38086,-0.878906 0,-0.410156 0.38086,-0.615234 0.41015,-0.205078 0.9375,-0.292969 0.52734,-0.117187 1.05468,-0.117187 0.52735,-0.0293 0.79102,-0.05859 0.87891,-0.05859 1.75781,-0.117188 0.87891,-0.08789 1.75782,-0.08789 0.58593,0 1.14257,0.05859 0.58594,0.05859 1.17188,0.05859 1.02539,0 1.99219,-0.08789 0.9082,-0.08789 1.43554,0.117187 0.52735,0.205078 0.79102,0.527344 0.26367,0.322265 0.32226,0.644531 0.0879,0.292969 0.0879,0.410156 0,0.439453 -0.38085,0.820313 -0.35157,0.351562 -0.82032,0.703125 -0.43945,0.351562 -0.84961,0.703125 -0.38086,0.351562 -0.43945,0.732422 0.64453,1.904297 1.49414,3.662109 0.87891,1.757813 2.19727,3.339844 0.11718,0.146484 0.29297,0.351562 0.17578,0.205078 0.35156,0.410157 0.20508,0.175781 0.41015,0.322265 0.23438,0.117188 0.43946,0.117188 0.0879,0 0.32226,-0.175782 0.23438,-0.205078 0.52735,-0.46875 0.32226,-0.263671 0.64453,-0.498046 0.35156,-0.263672 0.61523,-0.38086 0.43946,-0.175781 0.70313,-0.820312 0.29297,-0.644532 0.49804,-1.435547 0.23438,-0.791016 0.43946,-1.552735 0.20508,-0.761718 0.46875,-1.201171 0.23437,-0.322266 0.55664,-0.791016 0.32226,-0.498047 0.32226,-0.908203 0,-0.410156 -0.32226,-0.644531 -0.32227,-0.234375 -0.70313,-0.46875 -0.38086,-0.234375 -0.70312,-0.585938 -0.32227,-0.380859 -0.32227,-1.054687 0,-0.673829 0.32227,-1.083985 0.35156,-0.439453 0.99609,-0.585937 0.9668,-0.205078 1.99219,-0.351563 1.02539,-0.146484 2.02148,-0.146484 0.49805,0 0.9668,0.175781 0.46875,0.175781 0.9668,0.175781 0.55664,0 1.05468,-0.234375 0.49805,-0.234375 1.08399,-0.234375 0.55664,0 1.11328,0.08789 0.58594,0.08789 1.11328,0.234375 0.26367,0.08789 0.61524,0.292969 0.35156,0.175781 0.64453,0.439453 0.32226,0.263672 0.52734,0.585937 0.23438,0.292969 0.23438,0.615235 0,0.439453 -0.55664,0.761718 -0.55665,0.322266 -1.28907,0.556641 -0.73242,0.234375 -1.46484,0.410156 -0.73242,0.146485 -1.05469,0.234375 -1.23047,0.351563 -2.10937,1.083985 -0.87891,0.703125 -1.52344,1.640625 -0.61524,0.908203 -1.08399,1.992187 -0.43945,1.054688 -0.8496,2.138672 -0.43946,1.142578 -1.05469,2.255859 -0.61524,1.113282 -1.17188,2.25586 -0.55664,1.142578 -0.96679,2.314453 -0.38086,1.171875 -0.38086,2.431641 0,1.142578 0.32226,1.96289 0.32227,0.791016 0.70313,1.464844 0.38086,0.644531 0.70312,1.230469 0.32227,0.55664 0.32227,1.171875 0,0.146484 0.20508,0.410156 0.23437,0.234375 0.52734,0.498047 0.29297,0.263672 0.55664,0.527344 0.29297,0.263671 0.38086,0.439453 0.55664,0.9375 0.9668,2.050781 0.43945,1.083984 0.9375,2.109375 0.49804,1.025391 1.17187,1.904297 0.70313,0.878906 1.78711,1.40625 0.49805,0.263672 1.02539,0.380859 0.55664,0.08789 1.11328,0.175781 0.55664,0.05859 1.11328,0.117188 0.55664,0.05859 1.08399,0.205078 0.49805,0.05859 0.79101,0.234375 0.32227,0.146484 0.49805,0.380859 0.17578,0.234375 0.23438,0.527344 0.0879,0.263672 0.14648,0.527344 z" />
      <path
         id="path26"
         style="font-family:CHANEY;letter-spacing:0.075em"
         d="m 232.89437,58 h -41.16 v 11.58 h 13.98 V 100 h 13.2 V 69.58 h 13.98 z" />
      <path
         id="path28"
         style="font-family:CHANEY;letter-spacing:0.075em"
         d="M 277.54375,69.4 V 58 h -34.2 v 42 h 34.2 V 88.54 h -21 v -4.02 h 16.92 V 73.6 h -16.92 v -4.2 z" />
      <path
         id="path30"
         style="font-family:CHANEY;letter-spacing:0.075em"
         d="m 322.23906,58 -10.38,14.46 -10.92,-14.46 h -12.9 v 42 h 12.9 V 78.64 l 10.92,13.38 10.38,-13.02 v 21 h 12.9 V 58 Z" />
      <path
         id="path32"
         style="font-family:CHANEY;letter-spacing:0.075em"
         d="m 368.485,58 h -22.86 v 42 h 13.2 v -9.6 h 9.66 c 10.74,0 17.82,-7.26 17.82,-16.2 0,-8.94 -7.08,-16.2 -17.82,-16.2 z m 0,20.82 h -9.66 v -9.24 h 9.66 c 2.52,0 4.62,2.04 4.62,4.62 0,2.58 -2.1,4.62 -4.62,4.62 z" />
      <path
         id="path34"
         style="font-family:CHANEY;letter-spacing:0.075em"
         d="m 417.61375,57.28 h -0.18 c -13.44,0 -23.04,8.76 -23.04,21.72 0,13.02 9.9,21.72 23.04,21.72 h 0.18 c 13.44,0 23.04,-8.7 23.04,-21.72 0,-12.96 -9.6,-21.72 -23.04,-21.72 z m 0,31.14 h -0.18 c -5.7,0 -9.6,-3.9 -9.6,-9.42 0,-5.46 3.9,-9.42 9.6,-9.42 h 0.18 c 5.7,0 9.6,3.96 9.6,9.42 0,5.52 -3.9,9.42 -9.6,9.42 z" />
      <path
         id="path36"
         style="font-family:CHANEY;letter-spacing:0.075em"
         d="m 449.89844,100 h 13.26 v -9.6 h 7.5 l 5.7,9.6 h 15.3 l -8.28,-12.54 c 4.56,-2.94 7.2,-7.8 7.2,-13.26 0,-8.94 -7.08,-16.2 -17.82,-16.2 h -22.86 z m 13.26,-21.18 v -9.24 h 9.6 c 2.52,0 4.62,2.04 4.62,4.62 0,2.58 -2.1,4.62 -4.62,4.62 z" />
      <path
         id="path38"
         style="font-family:CHANEY;letter-spacing:0.075em"
         d="m 530.75594,100 h 13.38 l -11.1,-42 h -24 l -11.1,42 h 13.32 l 1.74,-6.66 h 16.02 z m -14.76,-18.36 3.12,-12.06 h 3.72 l 3.12,12.06 z" />
      <path
         id="path40"
         style="font-family:CHANEY;letter-spacing:0.075em"
         d="M 581.39969,58 V 79.54 L 565.13969,58 h -12.96 v 42 h 12.96 V 77.92 l 16.26,22.08 h 12.96 V 58 Z" />
      <path
         id="path42"
         style="font-family:CHANEY;letter-spacing:0.075em"
         d="M 639.04375,69.4 V 58 h -34.2 v 42 h 34.2 V 88.54 h -21 v -4.02 h 16.92 V 73.6 h -16.92 v -4.2 z" />
      <path
         id="path44"
         style="font-family:CHANEY;letter-spacing:0.075em"
         d="m 679.95906,100 h 13.38 l -11.1,-42 h -24 l -11.1,42 h 13.32 l 1.74,-6.66 h 16.02 z m -14.76,-18.36 3.12,-12.06 h 3.72 l 3.12,12.06 z" />
    </g>
  </g>
</svg>
