<?xml version="1.0" encoding="UTF-8" standalone="no"?>
<svg
   xmlns:dc="http://purl.org/dc/elements/1.1/"
   xmlns:cc="http://creativecommons.org/ns#"
   xmlns:rdf="http://www.w3.org/1999/02/22-rdf-syntax-ns#"
   xmlns:svg="http://www.w3.org/2000/svg"
   xmlns="http://www.w3.org/2000/svg"
   id="svg16"
   width="800px"
   version="1.1"
   height="200px">
  <metadata
     id="metadata20">
    <rdf:RDF>
      <cc:Work
         rdf:about="">
        <dc:format>image/svg+xml</dc:format>
        <dc:type
           rdf:resource="http://purl.org/dc/dcmitype/StillImage" />
      </cc:Work>
    </rdf:RDF>
  </metadata>
  <defs
     id="defs4">
    <style
       id="style2"
       type="text/css"><![CDATA[    
     @font-face {font-family:CHANEY;
     src: url('/Users/francesco/Repos/write-logos/src/fonts/Fonts_E_TEMPORANEA/CHANEY-Regular.otf');}
     @font-face {font-family:Chakie;
     src: url('/Users/francesco/Repos/write-logos/src/fonts/Fonts_X/Chakie.ttf');}
     ]]></style>
  </defs>
  <g
     id="g14"
     style="font-size:60px">
    <g
       style="text-anchor:middle"
       id="text12"
       aria-label="EXTEMPORANEA">
      <path
         id="path22"
         style="font-family:CHANEY;letter-spacing:0.075em"
         d="M 144.48906,69.4 V 58 h -34.2 v 42 h 34.2 V 88.54 h -21 v -4.02 h 16.92 V 73.6 h -16.92 v -4.2 z" />
      <path
         id="path24"
         style="font-family:Chakie;letter-spacing:0.05em"
         d="m 182.10437,96.28 q -0.12,0 -0.24,0.06 -0.12,0 -0.18,-0.06 -0.3,-0.36 -0.66,0 -0.12,0.06 -0.48,0.06 0.18,0.3 0.36,0.42 0.18,0.12 0.3,0.3 0.06,0.06 -0.06,0.36 -0.12,0 -0.18,0 0,-0.06 -0.06,-0.06 l -0.12,-0.12 q -0.42,-0.12 -0.48,0.12 -0.06,0.12 0,0.3 0.12,0.12 0.24,0.12 0.36,0 0.30001,0.24 0,0.24 0.06,0.54 V 98.5 q -0.12,-0.24 -0.12,0 -0.24,0.12 -0.06,0.24 l 0.06,-0.06 q 0,0 0.12,-0.12 0.24,0.06 0.3,0.24 0.12,0.12 0,0.18 -0.6,0.18 -0.96,0.66 -0.12,0.06 -0.12,0.06 -0.3,0.06 -0.6,0 -0.24,-0.12 -0.48,0.24 h -0.12 q -0.12,-0.42 -0.48,-0.3 -0.3,0.12 -0.48,-0.18 -0.06,-0.18 -0.24,0 -0.42,0.48 -0.9,0.06 -0.06,0 -0.06,0 0,-0.06 -0.06,-0.06 -0.06,0 -0.06,-0.06 -0.18,0.18 -0.36,0.3 -0.18,0.06 -0.36,-0.24 -0.18,-0.18 -0.42,-0.06 -0.24,0.06 -0.36,-0.12 -0.18,-0.24 -0.42,-0.24 -0.18,0 -0.36,0 -0.36,0.12 -0.6,0 -0.24,-0.18 -0.48,-0.3 -0.36,-0.12 -0.78,-0.3 -0.36,-0.24 -0.65999,-0.54 -0.36001,-0.3 -0.78001,-0.48 -0.42,-0.24 -0.71999,-0.6 -0.24001,-0.3 -0.42001,-0.66 -0.12,-0.42 -0.48,-0.6 0.12,-0.24 -0.06,-0.36 -0.18,-0.12 -0.18,-0.3 0,-0.3 -0.18,-0.42 -0.17999,-0.18 -0.3,-0.36 -0.12,-0.12 -0.24,-0.24 -0.12,-0.12 -0.24,-0.24 -0.24,-0.3 -0.36,-0.6 -0.06,-0.3 -0.36,-0.48 -0.17999,-0.18 -0.06,-0.42 0,-0.18 -0.18,-0.3 -0.12,-0.18 -0.24,-0.3 -0.12,-0.18 -0.36,-0.12 -0.18,0.06 -0.18,-0.24 0,-0.18 -0.12,-0.24 -0.12,-0.12 -0.12,-0.3 -0.12,-0.66 -0.6,-0.84 -0.42,-0.24 -0.9,-0.54 l -0.24,0.12 q 0.06,0.06 0.06,0.12 0,0 0.06,0.06 v 0.12 q 0,0.06 0.06,0.06 -0.06,0.12 -0.18,0.24 -0.11999,0.12 -0.3,0.18 -0.18,0.06 -0.36,0.18 v 0.12 q -0.18,0.3 -0.3,0.6 -0.06,0.3 -0.3,0.54 0.12,0.48 -0.12,0.72 -0.18,0.18 -0.42,0.42 -0.12,0.12 -0.3,0.3 -0.12,0.18 -0.3,0.36 -0.12,0.12 -0.3,0.18 -0.12,0 -0.24,0.12 0,0.12 0.12,0.18 0.12,0 0,0.24 -0.12,0.3 -0.35999,0.66 -0.18001,0.36 -0.12001,0.72 0.06,0.12 -0.3,0.24 -0.12,0.06 -0.3,0.18 -0.18,0.06 -0.3,0.18 0.12,0.12 0.18,0.24 0.06,0.06 0.18,0.18 -0.3,0.12 -0.54,0.24 -0.24,0.06 -0.36,0.36 0.36,0.12 0.48,0.18 -0.12,0.18 -0.24,0.36 -0.06,0.18 -0.3,0.12 -0.3,-0.06 -0.48,0.12 -0.18,0.12 -0.36,0.36 0.06,0.12 0.12,0.18 0.06,0.06 0.06,0.12 0.3,0.3 0,0.48 -0.12,0.06 -0.3,0.06 -0.12,0 -0.24,0.12 -0.12,0.24 -0.36,0.12 -0.24,-0.12 -0.42,0.12 -0.12,0.18 -0.3,0.36 -0.12,0.18 -0.36,0.3 -0.23999,0.24 -0.78,0.12 -0.12,-0.06 -0.18,-0.18 0,-0.06 -0.12,-0.06 -0.3,0 -0.42,-0.18 -0.12,-0.24 -0.3,-0.36 -0.18,-0.12 -0.42,-0.18 -0.18,-0.12 -0.42,-0.24 -0.18,-0.12 -0.36,-0.24 -0.12,-0.18 -0.23999,-0.3 -0.18001,-0.12 -0.30001,-0.24 -0.12,-0.12 -0.36,-0.18 -0.12,0 -0.24,-0.18 -0.12,-0.18 -0.24,-0.36 -0.12,-0.12 -0.18,-0.3 0,-0.24 -0.12,-0.42 -0.12,-0.18 -0.24,-0.36 -0.06,-0.18 0.24,-0.3 0,-0.3 0,-0.48 0,-0.24 0.3,-0.42 -0.06,-0.36 0.12,-0.54 0.24,-0.24 0.42,-0.36 0.18,-0.18 0.24,-0.36 0.06,-0.24 0.12,-0.54 0.06,-0.24 0.18,-0.42 0.12,-0.18 0.24,-0.36 0.06,-0.12 0.12,-0.18 0.06,-0.12 0.06,-0.3 0,-0.3 0.12,-0.42 0.3,-0.24 0.42,-0.66 0.12,-0.42 0.48,-0.66 0.18,-0.12 0.12001,-0.3 0,-0.24 0,-0.42 l 0.89999,-0.9 q 0,-0.48 0.24,-0.6 0.3,-0.18 0.48,-0.48 0.12,-0.24 0.12,-0.36 0,-0.12 0,-0.3 0.06,-0.24 0.24,-0.36 0.12,-0.12 0.24,-0.24 0.18,-0.12 0.18,-0.42 0,-0.12 0.12,-0.24 0.12,-0.18 0.18,-0.42 0.12,-0.24 0.24,-0.42 0.18,-0.24 0.3,-0.48 0.12,-0.24 0.18,-0.48 0.06,-0.3 0.18,-0.48 0.42,-0.42 0.6,-0.96 0.12,-0.3 0.24,-0.54 0.12,-0.24 0.36,-0.42 0.24,-0.12 0.24,-0.3 0,-0.24 -0.06,-0.9 -0.06,-0.3 0,-0.54 0.06,-0.3 -0.06,-0.66 -0.12,-0.06 -0.24,-0.06 -0.06,0 -0.17999,-0.06 0,-0.12 -0.12001,-0.24 v -1.14 q -0.12,0 -0.48,-0.12 -0.48,-0.42 -0.6,-1.2 -0.06,-0.3 -0.18,-0.42 -0.11999,-0.18 -0.11999,-0.36 -0.06,-0.3 -0.18001,-0.42 -0.12,-0.12 -0.24,-0.24 -0.18,-0.12 -0.24,-0.42 0,-0.3 -0.24,-0.42 l 0.24,-0.24 q -0.06,-0.06 -0.06,-0.06 0,-0.06 -0.06,-0.12 -0.24,-0.3 -0.54,-0.54 -0.24,-0.24 -0.54,-0.54 0,-0.24 0.06,-0.48 0.06,-0.24 -0.06,-0.36 -0.12,-0.3 -0.18,-0.48 -0.06,-0.18 -0.18,-0.36 -0.24,-0.3 -0.36,-0.66 -0.06,-0.36 -0.36,-0.66 -0.12,-0.12 0.06,-0.18 0.24,-0.06 0.12,-0.24 -0.12,-0.12 -0.23999,-0.36 0,-0.48 -0.18001,-0.72 -0.12,-0.24 -0.24,-0.42 -0.12,-0.24 -0.12,-0.48 0.06,-0.36 -0.12,-0.54 -0.18,-0.24 -0.24,-0.54 -0.06,-0.18 -0.24,-0.36 -0.12,-0.18 -0.24,-0.48 -0.06,-0.06 0,-0.12 0.12,-0.06 0.24,-0.18 -0.12,-0.12 -0.12,-0.12 -0.18,-0.06 -0.42,-0.12 -0.18,-0.06 -0.12,-0.36 0.06,-0.12 0,-0.3 0,-0.18 0,-0.3 -0.12,-0.18 -0.24,-0.3 -0.12,-0.18 -0.24,-0.3 0.18,-0.3 0.12,-0.42 -0.12,-0.18 -0.24,-0.36 -0.12,-0.18 -0.24,-0.48 -0.06,-0.24 -0.06,-0.48 0.06,-0.24 0.06,-0.54 V 59.5 q 0.12,-0.24 0.36,-0.36 0.3,-0.18 0.54,-0.3 0.24001,-0.12 0.36,-0.06 0.18,0 0.36,-0.06 0.3,0 0.48,0 0.24,0 0.42,-0.3 h 0.84 q 0.12,0.18 0.18,0.36 0.06,0.18 0.18,0.24 0.42001,0.12 0.84,-0.18 0.3,-0.36 0.48,0.36 0,0 0.12,0.12 h 1.08 q 0.24,0.3 0.42,0.54 0.24,0.18 0.36,0.36 h 0.72 q 0.3,0.3 0.36,0.66 0.06,0.3 0.48,0.36 0.24,0 0.24,0.18 0,0.12 0,0.24 0.06,0.6 0.6,0.3 0.06,-0.06 0.06,-0.06 0.06,0 0.12,-0.06 0.12,0.24 0.12,0.3 -0.12,0.12 -0.12,0.3 -0.18,0.24 0.12,0.3 h 0.3 v 0.12 q 0,0.06 0.06,0.12 0.3,-0.06 0.42,0.18 0.18,0.18 0.48,0.18 0.18,0 0.18,0.3 -0.06,0.78 0.66,0.9 0.18,0.06 0.24,0.24 0.12,0.12 0.3,0.24 -0.12,0.12 -0.3,0.3 -0.12,0.18 -0.3,0.36 0.36,0.12 0.42,0.12 0.12,-0.06 0.12,-0.12 0.06,-0.12 0.18,-0.18 0.18,0 0.42,0.12 -0.06,0.06 -0.06,0.12 0,0 -0.06,0.06 -0.24,0.18 -0.06,0.48 0.12,0.18 0.3,0.3 0.36,0.42 0,0.78 l -0.36,0.36 q 0.12,0.12 0.12,0.12 h 1.14 q 0.12,0.24 0.24,0.42 0.12,0.18 0.18,0.42 0.12,0.48 0.54,0.72 0.18,-0.12 0.3,-0.24 0.18,-0.18 0.36,-0.36 0.18,-0.3 0.36,-0.48 0.24001,-0.18 0.30001,-0.54 0.06,-0.24 0.23999,-0.36 0.24,-0.12 0.3,-0.42 0.12,-0.42 0.42,-0.6 0.3,-0.24 0.42,-0.54 0.18,-0.3 0.3,-0.6 0.18,-0.36 0.48,-0.6 0.18,-0.18 0.24,-0.48 0.06,-0.3 0.3,-0.6 0.24001,-0.18 0.36,-0.42 0.12,-0.3 0.42,-0.54 0.18,-0.18 0.42,-0.36 0.24,-0.24 0.36,-0.54 0.12,-0.42 0.42,-0.66 0.3,-0.3 0.6,-0.66 0.24,-0.3 0.3,-0.54 0.06,-0.12 0.18,-0.24 0.18001,-0.12 0.3,-0.24 0.12,-0.12 0.3,-0.18 0.18,-0.06 0.3,-0.18 0.3,-0.12 0.54,-0.18 0.30001,-0.12 0.54,-0.42 0.42,0 0.84,0 0.42,0 0.78,0.06 0.24,0 0.24,0.06 0.18,0.3 0.42,0.24 0.3,-0.12 0.48001,0.06 0.11999,0.12 0.29999,0.18 0.18,0.06 0.3,0.18 0.12,0.18 0.36,0.18 0.24,-0.06 0.24,0.3 0,0.3 0.24001,0.3 0.29999,-0.06 0.41999,0.12 0.06,0.12 0.18,0.24 0.12,0.12 0.06,0.3 0,0.48 0.24,0.66 0.3,0.24 0.48,0.54 0.18001,0.3 0.36,0.66 0.24,0.48 0,0.78 -0.12,0.12 -0.12,0.24 0,0.12 -0.11999,0.3 -0.06,0.12 -0.24001,0.12 -0.12,0 -0.18,0.12 -0.12,0.18 -0.12,0.36 0,0.18 -0.06,0.42 -0.18,0 -0.36,0.06 -0.18,0 -0.48,0 0.12,0.18 0.18,0.3 0.06,0.12 0.18,0.24 -0.48,0.6 -0.78,0.96 -0.3,0.36 -0.72,0.6 -0.66,0.24 -0.6,1.02 0,0 -0.18,0.18 -0.06,-0.06 -0.06,-0.12 0,-0.06 -0.06,-0.18 -0.06,-0.06 -0.06,-0.12 v -0.12 q -0.24,-0.06 -0.24,0.24 0,0.24 -0.06,0.3 -0.18,0.12 -0.18,0.24 0.06,0.06 0.18,0.24 l -0.06,0.18 q -0.18,0 -0.36,0.06 -0.12,0 -0.06,0.3 0,0.12 -0.3,0.24 -0.18,0 -0.48,0.48 -0.24,0.42 -0.18,0.54 0.12,0.18 0.3,0.3 -0.3,0.18 -0.6,0.36 -0.24,0.12 -0.3,0.66 -0.06,0.18 -0.3,0.12 -0.18,-0.06 -0.36,0 -0.12,0 -0.12,0.18 0,0.12 0.12,0.12 h 0.12 q 0.12,0 0.24,0.12 -0.42,0.48 -0.6,0.6 -0.12,0.06 -0.78,0.36 0.06,0.12 0.12001,0.18 0.06,0 0.11999,0.12 -0.17999,0.12 -0.42,0.24 -0.24,0.06 -0.18,0.36 -0.12,0.06 -0.18,0.06 -0.12,0 -0.18,0.06 0,0 -0.06,0 -0.06,0 -0.06,0.12 0,0.06 -0.06,0.06 0.36,0.24 0.06,0.48 -0.12,0.12 -0.18,0.36 0,0.24 -0.24,0.42 -0.12,0.12 -0.17999,0.3 0,0.12 -0.12001,0.3 -0.12,0.18 -0.36,0.24 -0.18,0 -0.36,0.18 -0.12,0.18 0,0.24 0.12,0.06 0.18,0.18 -0.12,0.12 -0.3,0.18 -0.12,0 -0.3,0.12 l 0.12,0.12 q 0.3,0.18 0.18,0.48 -0.12,0.3 0.12,0.42 0.6,0.18 0.72,0.54 -0.06,0 -0.12,0.06 -0.06,0.06 -0.12,0 -0.3,0 -0.3,0.36 0,0.12 0.06,0.18 0.06,0.06 0.12,0.18 l 0.18,-0.18 q 0.36,0.24 0.42,0.36 0.06,0.06 0.12,0.54 0.36,0.42 0.72,0.78 0.36,0.36 0.72,0.72 v 0.96 q -0.11999,0.06 -0.3,0.18 -0.12,0.06 -0.24,0.12 0.12,0.12 0.3,0.18 0.18,0.06 0.3,0.18 0.24,0.18 0.36,0.06 0.18,-0.12 0.36,-0.24 0.24,0.36 -0.18,0.78 0.42,0.36 0.78001,0.78 0.35999,0.36 0.71999,0.78 0.36,0.36 0.06,0.96 -0.24,0.66 0.24,0.66 0.12,0.06 0.3,0.06 0.24,0 0.24,0.12 0,0.24 0.06,0.36 0.12,0.12 0.24,0.24 -0.36,0.24 0,0.6 0.12,0.12 0,0.36 -0.06,0.24 0.18,0.36 0.18,0.06 0.3,0.18 0.18,0.12 0.3,0.12 0.30001,0 0.48,0.18 0.18,0.18 0.3,0.42 0.18,0.3 0.3,0.6 0.18,0.24 0.42,0.48 -0.06,0 -0.06,0.06 -0.06,0.12 -0.06,0.12 0,0.06 -0.06,0.06 0,0 0,0.06 v 0.12 q 0.12,0.12 0.24,0.12 0.18,0 0.24001,0.12 0.11999,0.12 0.11999,0.24 0,0.12 0.18,0.24 0.24,0.12 0.3,0.36 0.06,0.24 0.12,0.54 0.06,0.3 0.18,0.6 0.12,0.24 0.42,0.42 0.18001,0.18 0.18001,0.42 0.06,0.18 0.06,0.36 0,0.12 -0.12001,0.42 -0.06,0.24 -0.18,0.36 z m -5.75999,-7.62 h 0.17999 v -0.12 q -0.17999,-0.18 -0.3,-0.06 l 0.06,0.06 q 0.12001,0.12 0.24,0.12 -0.11999,0.3 0.18,0.3 0.24,0.06 0.66,0.06 0.06,0.24 0.54,0.54 0.12,-0.42 0,-0.48 -0.06,-0.06 -0.54,-0.06 0.12,-0.36 -0.18,-0.36 -0.18,-0.06 -0.36,0 -0.18,0 -0.47999,0 z m -10.44001,-18.3 h 0.3 q 0.3,0 0.3,-0.3 0,-0.3 -0.24,-0.36 -0.36,0 -0.36,0.36 0,0.24 -0.24,0.3 h -0.42 q 0,0 -0.18,0.18 0.06,0.06 0.12,0.06 0.18,0.06 0.54,0.06 0.18,0 0.18,-0.18 0.06,-0.18 -0.06,-0.12 -0.06,0.06 0.06,0 z m -1.44,-3.9 q -0.3,-0.24 -0.54,0 -0.12,0 0,0.12 0.12,0.12 0.24,0.12 0.18001,0 0.24001,-0.12 0.06,-0.06 0.06,-0.12 z m -0.3,-0.78 q -0.06,-0.06 -0.06,-0.06 0,-0.06 -0.06,-0.12 0,0.06 -0.06,0.06 -0.06,0 -0.06,0.06 0,0.06 0.06,0.12 0.06,0 0.06,0.06 z m 1.02,1.26 q 0.06,0 0.06,-0.06 0.06,-0.06 0.12,-0.06 -0.12,-0.12 -0.12,-0.12 -0.06,0 -0.18,0.12 0.06,0 0.06,0.06 0,0.06 0.06,0.06 z m -0.54,0.66 q -0.12,0.12 -0.18,0.12 l 0.12,0.12 q 0.06,-0.06 0.06,-0.06 0.06,0 0.12,-0.06 z m 2.4,2.04 q -0.06,-0.06 -0.06,-0.06 0,-0.06 -0.06,-0.12 l -0.06,0.06 q 0,0.06 0,0.12 0.06,0 0.06,0.06 0.06,0 0.06,0 0,-0.06 0.06,-0.06 z m 7.56,2.88 -0.06,0.06 q 0,0.06 0,0.12 0.06,0 0.06,0.12 l 0.12,-0.12 q 0,-0.06 -0.12,-0.18 z m 0.36,12.24 q -0.06,0 -0.18,0.12 l 0.06,0.06 q 0.06,0 0.06,0 0.06,-0.06 0.17999,-0.06 z m 1.44001,2.34 q 0.06,-0.12 0.11999,-0.18 -0.06,0 -0.11999,0 0,-0.06 -0.12001,-0.06 l -0.06,0.06 q 0.06,0.06 0.06,0.06 0.06,0 0.12001,0.12 z m -13.44001,4.14 q -0.11999,-0.12 -0.11999,-0.12 -0.06,0.06 -0.06,0.12 0,0 -0.06,0.06 0,0 0.12001,0.12 0,-0.06 0.11999,-0.18 z m -0.9,1.56 q 0,-0.06 -0.12,-0.18 0,0.06 -0.06,0.06 0,0 0,0.06 0,0.06 0,0.12 0.06,0 0.06,0.06 0.12,0 0.12,-0.12 z m 17.88,2.28 q 0,-0.06 0,-0.06 0.06,0 0.06,-0.12 -0.06,0 -0.12,0 0,-0.06 -0.06,-0.06 l -0.06,0.06 q 0.06,0.12 0.06,0.12 0.06,0 0.12,0.06 z m -0.96,-6.06 q -0.24,-0.24 -0.36,-0.48 0.06,0 0.06,-0.06 0,-0.12 0.06,-0.12 0.3,0 0.36,0.12 0.06,0.06 0,0.18 0,0.12 0,0.24 z m 3.66,7.5 q 0,0.18 -0.48,0.06 -0.06,0 -0.06,-0.06 V 96.4 q -0.12,-0.24 0.12,-0.12 0.12001,0 0.18001,0.06 0.06,0 0.17999,0 0.06,0 0.06,0.18 z m -19.79999,-34.08 0.11999,0.12 q -0.06,0.06 -0.06,0.12 0,0 -0.06,0.06 h -0.12001 q -0.12,-0.12 0,-0.12 0,-0.06 0.12001,-0.18 z" />
      <path
         id="path26"
         style="font-family:CHANEY;letter-spacing:0.075em"
         d="m 231.7225,58 h -41.16 v 11.58 h 13.98 V 100 h 13.2 V 69.58 h 13.98 z" />
      <path
         id="path28"
         style="font-family:CHANEY;letter-spacing:0.075em"
         d="M 276.37187,69.4 V 58 h -34.2 v 42 h 34.2 V 88.54 h -21 v -4.02 h 16.92 V 73.6 h -16.92 v -4.2 z" />
      <path
         id="path30"
         style="font-family:CHANEY;letter-spacing:0.075em"
         d="m 321.06719,58 -10.38,14.46 -10.92,-14.46 h -12.9 v 42 h 12.9 V 78.64 l 10.92,13.38 10.38,-13.02 v 21 h 12.9 V 58 Z" />
      <path
         id="path32"
         style="font-family:CHANEY;letter-spacing:0.075em"
         d="m 367.31313,58 h -22.86001 v 42 h 13.2 v -9.6 h 9.66001 c 10.74,0 17.81999,-7.26 17.81999,-16.2 0,-8.94 -7.07999,-16.2 -17.81999,-16.2 z m 0,20.82 h -9.66001 v -9.24 h 9.66001 c 2.51999,0 4.62,2.04 4.62,4.62 0,2.58 -2.10001,4.62 -4.62,4.62 z" />
      <path
         id="path34"
         style="font-family:CHANEY;letter-spacing:0.075em"
         d="m 416.44187,57.28 h -0.17999 c -13.44001,0 -23.04001,8.76 -23.04001,21.72 0,13.02 9.9,21.72 23.04001,21.72 h 0.17999 c 13.44,0 23.04,-8.7 23.04,-21.72 0,-12.96 -9.6,-21.72 -23.04,-21.72 z m 0,31.14 h -0.17999 c -5.70001,0 -9.60001,-3.9 -9.60001,-9.42 0,-5.46 3.9,-9.42 9.60001,-9.42 h 0.17999 c 5.70001,0 9.6,3.96 9.6,9.42 0,5.52 -3.89999,9.42 -9.6,9.42 z" />
      <path
         id="path36"
         style="font-family:CHANEY;letter-spacing:0.075em"
         d="m 448.72656,100 h 13.26 v -9.6 h 7.5 l 5.7,9.6 h 15.3 l -8.28,-12.54 c 4.56,-2.94 7.2,-7.8 7.2,-13.26 0,-8.94 -7.08,-16.2 -17.82,-16.2 h -22.86 z m 13.26,-21.18 v -9.24 h 9.6 c 2.52,0 4.62,2.04 4.62,4.62 0,2.58 -2.1,4.62 -4.62,4.62 z" />
      <path
         id="path38"
         style="font-family:CHANEY;letter-spacing:0.075em"
         d="m 529.58406,100 h 13.38 l -11.1,-42 h -24 l -11.1,42 h 13.32 l 1.74,-6.66 h 16.02 z m -14.76,-18.36 3.12,-12.06 h 3.72 l 3.12,12.06 z" />
      <path
         id="path40"
         style="font-family:CHANEY;letter-spacing:0.075em"
         d="M 580.22781,58 V 79.54 L 563.96781,58 h -12.96 v 42 h 12.96 V 77.92 l 16.26,22.08 h 12.96 V 58 Z" />
      <path
         id="path42"
         style="font-family:CHANEY;letter-spacing:0.075em"
         d="M 637.87188,69.4 V 58 h -34.20001 v 42 h 34.20001 V 88.54 h -21 v -4.02 h 16.91999 V 73.6 h -16.91999 v -4.2 z" />
      <path
         id="path44"
         style="font-family:CHANEY;letter-spacing:0.075em"
         d="m 678.78719,100 h 13.38 l -11.1,-42 h -24 l -11.1,42 h 13.32 l 1.74,-6.66 h 16.02 z m -14.76,-18.36 3.12,-12.06 h 3.72 l 3.12,12.06 z" />
    </g>
  </g>
</svg>
