<?xml version="1.0" encoding="UTF-8" standalone="no"?>
<svg
   xmlns:dc="http://purl.org/dc/elements/1.1/"
   xmlns:cc="http://creativecommons.org/ns#"
   xmlns:rdf="http://www.w3.org/1999/02/22-rdf-syntax-ns#"
   xmlns:svg="http://www.w3.org/2000/svg"
   xmlns="http://www.w3.org/2000/svg"
   id="svg16"
   width="800px"
   version="1.1"
   height="200px">
  <metadata
     id="metadata20">
    <rdf:RDF>
      <cc:Work
         rdf:about="">
        <dc:format>image/svg+xml</dc:format>
        <dc:type
           rdf:resource="http://purl.org/dc/dcmitype/StillImage" />
      </cc:Work>
    </rdf:RDF>
  </metadata>
  <defs
     id="defs4">
    <style
       id="style2"
       type="text/css"><![CDATA[    
     @font-face {font-family:CHANEY Extended;
     src: url('/Users/francesco/Repos/write-logos/src/fonts/Fonts_E_TEMPORANEA/CHANEY-Extended.otf');}
     @font-face {font-family:lift me up;
     src: url('/Users/francesco/Repos/write-logos/src/fonts/Fonts_X/liftmeup.ttf');}
     ]]></style>
  </defs>
  <g
     id="g14"
     style="font-size:60px">
    <g
       style="text-anchor:middle"
       id="text12"
       aria-label="EXTEMPORANEA">
      <path
         id="path22"
         style="font-family:'CHANEY Extended';letter-spacing:0.075em"
         d="M 61.192656,69.4 V 58 h -50.22 v 42 h 50.22 V 88.6 h -37.02 v -4.08 h 32.94 V 73.6 h -32.94 v -4.2 z" />
      <path
         id="path24"
         style="font-family:'lift me up';letter-spacing:0.05em"
         d="m 78.322656,53.26 12.6,16.98 -0.84,1.14 -13.5,-18.12 z m 16.02,21.6 3,-4.08 0.84,1.14 -3,3.96 3,4.08 -0.84,1.14 -3,-4.14 -2.64,3.54 -0.78,-1.08 2.58,-3.54 -2.58,-3.42 0.84,-1.08 z m 16.860004,25.08 -13.020004,-17.76 0.84,-1.08 13.860004,18.84 z m -35.580004,0 14.46,-19.38 0.78,1.02 -13.62,18.36 z m 36.480004,-46.68 -13.080004,17.52 -0.84,-1.08 12.240004,-16.44 z m 6.84,46.68 -16.92,-22.98 -3.000004,4.14 -0.84,-1.14 3.000004,-4.08 -3.000004,-3.96 0.84,-1.14 3.000004,4.08 16.14,-21.6 h 1.62 l -16.86,22.62 17.64,24.06 z m -24.180004,-15.3 2.58,-3.54 0.84,1.08 -2.64,3.54 z m 2.58,-13.86 -2.58,-3.48 0.84,-1.14 2.58,3.54 z m -11.28,-17.52 8.7,11.76 -0.84,1.14 -9.6,-12.9 z m -2.7,46.68 10.56,-14.22 0.78,1.14 -9.72,13.08 z m 8.34,-19.44 3.06,4.14 -0.84,1.08 -3.06,-4.14 z m 3.06,-13.2 -3,4.08 -0.84,-1.14 3,-4.08 z m -6.42,8.58 2.58,3.54 -0.84,1.14 -2.64,-3.6 -17.04,22.98 h -1.62 l 17.82,-24.06 -16.92,-22.62 h 1.74 l 16.02,21.6 2.64,-3.48 0.84,1.08 z m 16.020004,24.06 -9.660004,-13.08 0.84,-1.14 10.440004,14.22 z m 0.84,-46.68 -9.600004,12.9 -0.84,-1.14 8.820004,-11.76 z" />
      <path
         id="path26"
         style="font-family:'CHANEY Extended';letter-spacing:0.075em"
         d="m 186.62922,58 h -57.18 v 11.58 h 21.96 V 100 h 13.2 V 69.58 h 22.02 z" />
      <path
         id="path28"
         style="font-family:'CHANEY Extended';letter-spacing:0.075em"
         d="M 247.33328,69.4 V 58 h -50.22 v 42 h 50.22 V 88.6 h -37.02 v -4.08 h 32.94 V 73.6 h -32.94 v -4.2 z" />
      <path
         id="path30"
         style="font-family:'CHANEY Extended';letter-spacing:0.075em"
         d="m 308.08328,58 -18.42,16.44 -18.9,-16.44 h -12.9 v 42 h 12.9 V 75.64 l 18.9,16.38 18.42,-16.2 V 100 h 12.9 V 58 Z" />
      <path
         id="path32"
         style="font-family:'CHANEY Extended';letter-spacing:0.075em"
         d="m 370.38391,58 h -38.88 v 42 h 13.2 v -9.6 h 25.68 c 10.74,0 17.82,-7.26 17.82,-16.2 0,-8.94 -7.08,-16.2 -17.82,-16.2 z m 0,20.82 h -25.68 v -9.24 h 25.68 c 2.52,0 4.62,2.04 4.62,4.62 0,2.58 -2.1,4.62 -4.62,4.62 z" />
      <path
         id="path34"
         style="font-family:'CHANEY Extended';letter-spacing:0.075em"
         d="m 435.44734,57.28 h -16.08 c -13.44,0 -23.04,8.76 -23.04,21.72 0,13.02 9.9,21.72 23.04,21.72 h 16.08 c 13.44,0 23.04,-8.7 23.04,-21.72 0,-12.96 -9.6,-21.72 -23.04,-21.72 z m 0,31.14 h -16.08 c -5.7,0 -9.6,-4.02 -9.6,-9.42 0,-5.34 3.9,-9.42 9.6,-9.42 h 16.08 c 5.7,0 9.6,4.08 9.6,9.42 0,5.4 -3.9,9.42 -9.6,9.42 z" />
      <path
         id="path36"
         style="font-family:'CHANEY Extended';letter-spacing:0.075em"
         d="m 467.76953,100 h 13.26 v -9.6 h 21.48 l 5.7,9.6 h 15.3 l -7.68,-11.76 c 5.4,-2.76 8.64,-8.04 8.64,-14.04 0,-8.94 -7.08,-16.2 -17.82,-16.2 h -38.88 z m 13.26,-21.18 v -9.24 h 25.62 c 2.52,0 4.62,2.04 4.62,4.62 0,2.58 -2.1,4.62 -4.62,4.62 z" />
      <path
         id="path38"
         style="font-family:'CHANEY Extended';letter-spacing:0.075em"
         d="m 580.70172,100 h 13.38 l -11.1,-42 h -40.02 l -11.1,42 h 13.32 l 1.74,-6.66 h 32.04 z m -30.78,-18.36 3.12,-12.06 h 19.74 l 3.12,12.06 z" />
      <path
         id="path40"
         style="font-family:'CHANEY Extended';letter-spacing:0.075em"
         d="M 647.40016,58 V 82.72 L 615.12016,58 h -12.96 v 42 h 12.96 V 75.1 l 32.28,24.9 h 12.96 V 58 Z" />
      <path
         id="path42"
         style="font-family:'CHANEY Extended';letter-spacing:0.075em"
         d="M 721.09891,69.4 V 58 h -50.22 v 42 h 50.22 V 88.6 h -37.02 v -4.08 h 32.94 V 73.6 h -32.94 v -4.2 z" />
      <path
         id="path44"
         style="font-family:'CHANEY Extended';letter-spacing:0.075em"
         d="m 778.06891,100 h 13.38 l -11.1,-42 h -40.02 l -11.1,42 h 13.32 l 1.74,-6.66 h 32.04 z m -30.78,-18.36 3.12,-12.06 h 19.74 l 3.12,12.06 z" />
    </g>
  </g>
</svg>
