<?xml version="1.0" encoding="UTF-8" standalone="no"?>
<svg
   xmlns:dc="http://purl.org/dc/elements/1.1/"
   xmlns:cc="http://creativecommons.org/ns#"
   xmlns:rdf="http://www.w3.org/1999/02/22-rdf-syntax-ns#"
   xmlns:svg="http://www.w3.org/2000/svg"
   xmlns="http://www.w3.org/2000/svg"
   id="svg16"
   width="800px"
   version="1.1"
   height="200px">
  <metadata
     id="metadata20">
    <rdf:RDF>
      <cc:Work
         rdf:about="">
        <dc:format>image/svg+xml</dc:format>
        <dc:type
           rdf:resource="http://purl.org/dc/dcmitype/StillImage" />
      </cc:Work>
    </rdf:RDF>
  </metadata>
  <defs
     id="defs4">
    <style
       id="style2"
       type="text/css"><![CDATA[    
     @font-face {font-family:CHANEY Extended;
     src: url('/Users/francesco/Repos/write-logos/src/fonts/Fonts_E_TEMPORANEA/CHANEY-Extended.otf');}
     @font-face {font-family:Bamboo shoot;
     src: url('/Users/francesco/Repos/write-logos/src/fonts/Fonts_X/bambooshoot.ttf');}
     ]]></style>
  </defs>
  <g
     id="g14"
     style="font-size:60px">
    <g
       style="text-anchor:middle"
       id="text12"
       aria-label="EXTEMPORANEA">
      <path
         id="path22"
         style="font-family:'CHANEY Extended';letter-spacing:0.075em"
         d="M 66.173125,69.4 V 58 h -50.22 v 42 h 50.22 V 88.6 h -37.02 v -4.08 h 32.94 V 73.6 h -32.94 v -4.2 z" />
      <path
         id="path24"
         style="font-family:'Bamboo shoot';letter-spacing:0.05em"
         d="m 81.730469,50.664062 h 0.820312 q 3.779297,0 7.265625,5.390625 6.181641,7.705079 6.210938,7.96875 h 0.117187 q 7.529299,-10.019531 9.726559,-12.070312 1.84571,-1.289063 3.75,-1.289063 h 0.82032 q 4.21875,0 6.32812,4.921875 l 0.23438,1.640625 v 0.820313 q 0,2.900391 -3.98438,7.03125 l -7.96875,10.195312 q 11.48438,14.589844 11.48438,15 0.46875,1.347657 0.46875,2.34375 V 93.4375 q 0,4.335937 -5.03907,6.328125 Q 111.4375,100 110.44141,100 h -0.82032 q -3.77929,0 -7.26562,-5.390625 -6.181642,-7.705078 -6.210939,-7.96875 H 96.027344 Q 88.498047,96.660156 86.300781,98.710937 84.455078,100 82.550781,100 h -0.820312 q -4.21875,0 -6.328125,-4.921875 L 75.167969,93.4375 v -0.820313 q 0,-2.90039 3.984375,-7.03125 l 7.96875,-10.195312 q -11.484375,-14.589844 -11.484375,-15 -0.46875,-1.347656 -0.46875,-2.34375 v -0.820313 q 0,-4.335937 5.039062,-6.328125 0.527344,-0.234375 1.523438,-0.234375 z m -1.757813,6.914063 v 0.117187 q 0,1.171875 3.867188,5.507813 0.644531,1.113281 6.445312,8.203125 l 2.695313,-3.515625 Q 84.865234,57.431641 83.371094,55.820312 82.785156,55.46875 82.199219,55.46875 h -0.117188 q -2.109375,0.322266 -2.109375,2.109375 z m 19.21875,10.3125 2.812504,3.515625 9.96093,-12.773438 0.23438,-0.9375 v -0.117187 q -0.32227,-2.109375 -2.10938,-2.109375 h -0.11718 q -1.43555,0 -3.39844,3.046875 z m -3.164062,3.867187 -2.695313,3.515625 2.695313,3.632813 h 0.117187 l 2.695313,-3.515625 -2.695313,-3.632813 z m -5.859375,7.5 -9.960938,12.773438 -0.234375,0.9375 v 0.117187 q 0.322266,2.109375 2.109375,2.109375 h 0.117188 q 1.40625,0 3.398437,-3.046875 l 7.382813,-9.375 z m 11.718751,0 -2.695314,3.515625 q 8.583984,11.044922 9.609374,12.070313 0.61524,0.351562 1.17188,0.351562 h 0.11718 q 2.10938,-0.322265 2.10938,-2.109375 V 92.96875 q 0,-1.171875 -3.86719,-5.507813 -0.64453,-1.113281 -6.44531,-8.203125 z" />
      <path
         id="path26"
         style="font-family:'CHANEY Extended';letter-spacing:0.075em"
         d="m 181.64875,58 h -57.18 v 11.58 h 21.96 V 100 h 13.2 V 69.58 h 22.02 z" />
      <path
         id="path28"
         style="font-family:'CHANEY Extended';letter-spacing:0.075em"
         d="M 242.35281,69.4 V 58 h -50.22 v 42 h 50.22 V 88.6 h -37.02 v -4.08 h 32.94 V 73.6 h -32.94 v -4.2 z" />
      <path
         id="path30"
         style="font-family:'CHANEY Extended';letter-spacing:0.075em"
         d="m 303.10281,58 -18.42,16.44 -18.9,-16.44 h -12.9 v 42 h 12.9 V 75.64 l 18.9,16.38 18.42,-16.2 V 100 h 12.9 V 58 Z" />
      <path
         id="path32"
         style="font-family:'CHANEY Extended';letter-spacing:0.075em"
         d="m 365.40344,58 h -38.88 v 42 h 13.2 v -9.6 h 25.68 c 10.74,0 17.82,-7.26 17.82,-16.2 0,-8.94 -7.08,-16.2 -17.82,-16.2 z m 0,20.82 h -25.68 v -9.24 h 25.68 c 2.52,0 4.62,2.04 4.62,4.62 0,2.58 -2.1,4.62 -4.62,4.62 z" />
      <path
         id="path34"
         style="font-family:'CHANEY Extended';letter-spacing:0.075em"
         d="m 430.46688,57.28 h -16.08 c -13.44001,0 -23.04001,8.76 -23.04001,21.72 0,13.02 9.9,21.72 23.04001,21.72 h 16.08 c 13.44,0 23.03999,-8.7 23.03999,-21.72 0,-12.96 -9.59999,-21.72 -23.03999,-21.72 z m 0,31.14 h -16.08 c -5.70001,0 -9.60001,-4.02 -9.60001,-9.42 0,-5.34 3.9,-9.42 9.60001,-9.42 h 16.08 c 5.69999,0 9.59999,4.08 9.59999,9.42 0,5.4 -3.9,9.42 -9.59999,9.42 z" />
      <path
         id="path36"
         style="font-family:'CHANEY Extended';letter-spacing:0.075em"
         d="m 462.78906,100 h 13.26 v -9.6 h 21.48 l 5.7,9.6 h 15.3 l -7.68,-11.76 c 5.4,-2.76 8.64,-8.04 8.64,-14.04 0,-8.94 -7.08,-16.2 -17.82,-16.2 h -38.88 z m 13.26,-21.18 v -9.24 h 25.62 c 2.52,0 4.62,2.04 4.62,4.62 0,2.58 -2.1,4.62 -4.62,4.62 z" />
      <path
         id="path38"
         style="font-family:'CHANEY Extended';letter-spacing:0.075em"
         d="m 575.72125,100 h 13.38 l -11.1,-42 h -40.02 l -11.1,42 h 13.32 l 1.74,-6.66 h 32.04 z m -30.78,-18.36 3.12,-12.06 h 19.74 l 3.12,12.06 z" />
      <path
         id="path40"
         style="font-family:'CHANEY Extended';letter-spacing:0.075em"
         d="M 642.41969,58 V 82.72 L 610.13969,58 h -12.96 v 42 h 12.96 V 75.1 l 32.28,24.9 h 12.96 V 58 Z" />
      <path
         id="path42"
         style="font-family:'CHANEY Extended';letter-spacing:0.075em"
         d="M 716.11844,69.4 V 58 h -50.22 v 42 h 50.22 V 88.6 h -37.02 v -4.08 h 32.94 V 73.6 h -32.94 v -4.2 z" />
      <path
         id="path44"
         style="font-family:'CHANEY Extended';letter-spacing:0.075em"
         d="m 773.08844,100 h 13.38 l -11.1,-42 h -40.02 l -11.1,42 h 13.32 l 1.74,-6.66 h 32.04 z m -30.78,-18.36 3.12,-12.06 h 19.74 l 3.12,12.06 z" />
    </g>
  </g>
</svg>
