<?xml version="1.0" encoding="UTF-8" standalone="no"?>
<svg
   xmlns:dc="http://purl.org/dc/elements/1.1/"
   xmlns:cc="http://creativecommons.org/ns#"
   xmlns:rdf="http://www.w3.org/1999/02/22-rdf-syntax-ns#"
   xmlns:svg="http://www.w3.org/2000/svg"
   xmlns="http://www.w3.org/2000/svg"
   id="svg16"
   width="800px"
   version="1.1"
   height="200px">
  <metadata
     id="metadata20">
    <rdf:RDF>
      <cc:Work
         rdf:about="">
        <dc:format>image/svg+xml</dc:format>
        <dc:type
           rdf:resource="http://purl.org/dc/dcmitype/StillImage" />
      </cc:Work>
    </rdf:RDF>
  </metadata>
  <defs
     id="defs4">
    <style
       id="style2"
       type="text/css"><![CDATA[    
     @font-face {font-family:CHANEY;
     src: url('/Users/francesco/Repos/write-logos/src/fonts/Fonts_E_TEMPORANEA/CHANEY-Regular.otf');}
     @font-face {font-family:Astral Wave;
     src: url('/Users/francesco/Repos/write-logos/src/fonts/Fonts_X/AstralWave.ttf');}
     ]]></style>
  </defs>
  <g
     id="g14"
     style="font-size:60px">
    <g
       style="text-anchor:middle"
       id="text12"
       aria-label="EXTEMPORANEA">
      <path
         id="path22"
         style="font-family:CHANEY;letter-spacing:0.075em"
         d="M 135.64141,69.4 V 58 h -34.2 v 42 h 34.2 V 88.54 h -21 v -4.02 h 16.92 V 73.6 h -16.92 v -4.2 z" />
      <path
         id="path24"
         style="font-family:'Astral Wave';letter-spacing:0.05em"
         d="m 185.14844,46.679687 h 2.05078 q 5.36133,2.958985 6.15234,4.775391 v 2.050781 q 0,2.050782 -6.15234,2.050782 l 1.37695,2.050781 v 2.050781 q 0,2.050781 -6.15234,2.753906 l 0.67383,1.347657 q 0,1.816406 -3.42774,3.427734 -1.69922,0 -8.87695,-1.376953 5.47851,3.925781 5.47851,4.804687 v 2.050782 q 0,2.050781 -5.47851,2.724609 v 0.673828 q 15.0293,6.621094 15.0293,11.630859 0,9.375 3.42773,11.63086 v 1.347658 q 0,0.99609 -2.05078,2.05078 h -0.67383 q -6.85547,0 -6.85547,-11.601563 0,-3.427735 -0.67383,-3.427735 -18.45703,-10.253906 -18.45703,-13.68164 v -0.673828 q 4.77539,-2.753907 4.77539,-3.427735 -12.97851,-6.533203 -14.35547,-9.550781 l 0.67383,-3.427734 q -3.22265,0 -6.15234,-5.478516 0.70312,-2.724609 4.10156,-2.724609 15.41016,10.927734 21.88477,10.927734 v -0.673828 q 0,-1.611328 4.80468,-2.050781 l -2.05078,-2.72461 q 0,-4.101562 4.10157,-4.101562 h 4.77539 q 0.17578,-3.427735 2.05078,-3.427735 z m -27.36328,32.8125 h 0.70312 q 9.55078,2.607422 9.55078,6.826172 0,2.314453 -10.2539,5.478516 v 0.673828 q 3.13476,1.347656 3.42773,2.753906 v 2.050782 q 0,2.548828 -17.08008,4.101559 l -1.37695,-2.050778 v -1.376953 q 0,-1.875 6.82617,-3.427735 v -0.673828 q -1.69922,0 -2.05078,-2.724609 0,-2.841797 10.25391,-5.478516 l -2.05079,-3.427734 q 1.0254,-2.72461 2.05079,-2.72461 z" />
      <path
         id="path26"
         style="font-family:CHANEY;letter-spacing:0.075em"
         d="m 240.57016,58 h -41.16 v 11.58 h 13.98 V 100 h 13.2 V 69.58 h 13.98 z" />
      <path
         id="path28"
         style="font-family:CHANEY;letter-spacing:0.075em"
         d="M 285.21953,69.4 V 58 h -34.2 v 42 h 34.2 V 88.54 h -21 v -4.02 h 16.92 V 73.6 h -16.92 v -4.2 z" />
      <path
         id="path30"
         style="font-family:CHANEY;letter-spacing:0.075em"
         d="m 329.91484,58 -10.38,14.46 -10.92,-14.46 h -12.9 v 42 h 12.9 V 78.64 l 10.92,13.38 10.38,-13.02 v 21 h 12.9 V 58 Z" />
      <path
         id="path32"
         style="font-family:CHANEY;letter-spacing:0.075em"
         d="m 376.16078,58 h -22.86 v 42 h 13.2 v -9.6 h 9.66 c 10.74,0 17.82,-7.26 17.82,-16.2 0,-8.94 -7.08,-16.2 -17.82,-16.2 z m 0,20.82 h -9.66 v -9.24 h 9.66 c 2.52,0 4.62,2.04 4.62,4.62 0,2.58 -2.1,4.62 -4.62,4.62 z" />
      <path
         id="path34"
         style="font-family:CHANEY;letter-spacing:0.075em"
         d="m 425.28953,57.28 h -0.18 c -13.44,0 -23.04,8.76 -23.04,21.72 0,13.02 9.9,21.72 23.04,21.72 h 0.18 c 13.44,0 23.04,-8.7 23.04,-21.72 0,-12.96 -9.6,-21.72 -23.04,-21.72 z m 0,31.14 h -0.18 c -5.7,0 -9.6,-3.9 -9.6,-9.42 0,-5.46 3.9,-9.42 9.6,-9.42 h 0.18 c 5.7,0 9.6,3.96 9.6,9.42 0,5.52 -3.9,9.42 -9.6,9.42 z" />
      <path
         id="path36"
         style="font-family:CHANEY;letter-spacing:0.075em"
         d="m 457.57422,100 h 13.26 v -9.6 h 7.5 l 5.7,9.6 h 15.3 l -8.28,-12.54 c 4.56,-2.94 7.2,-7.8 7.2,-13.26 0,-8.94 -7.08,-16.2 -17.82,-16.2 h -22.86 z m 13.26,-21.18 v -9.24 h 9.6 c 2.52,0 4.62,2.04 4.62,4.62 0,2.58 -2.1,4.62 -4.62,4.62 z" />
      <path
         id="path38"
         style="font-family:CHANEY;letter-spacing:0.075em"
         d="m 538.43172,100 h 13.38 l -11.1,-42 h -24 l -11.1,42 h 13.32 l 1.74,-6.66 h 16.02 z m -14.76,-18.36 3.12,-12.06 h 3.72 l 3.12,12.06 z" />
      <path
         id="path40"
         style="font-family:CHANEY;letter-spacing:0.075em"
         d="M 589.07547,58 V 79.54 L 572.81547,58 h -12.96 v 42 h 12.96 V 77.92 l 16.26,22.08 h 12.96 V 58 Z" />
      <path
         id="path42"
         style="font-family:CHANEY;letter-spacing:0.075em"
         d="M 646.71953,69.4 V 58 h -34.2 v 42 h 34.2 V 88.54 h -21 v -4.02 h 16.92 V 73.6 h -16.92 v -4.2 z" />
      <path
         id="path44"
         style="font-family:CHANEY;letter-spacing:0.075em"
         d="m 687.63484,100 h 13.38 l -11.1,-42 h -24 l -11.1,42 h 13.32 l 1.74,-6.66 h 16.02 z m -14.76,-18.36 3.12,-12.06 h 3.72 l 3.12,12.06 z" />
    </g>
  </g>
</svg>
