<?xml version="1.0" encoding="UTF-8" standalone="no"?>
<svg
   xmlns:dc="http://purl.org/dc/elements/1.1/"
   xmlns:cc="http://creativecommons.org/ns#"
   xmlns:rdf="http://www.w3.org/1999/02/22-rdf-syntax-ns#"
   xmlns:svg="http://www.w3.org/2000/svg"
   xmlns="http://www.w3.org/2000/svg"
   id="svg16"
   width="800px"
   version="1.1"
   height="200px">
  <metadata
     id="metadata20">
    <rdf:RDF>
      <cc:Work
         rdf:about="">
        <dc:format>image/svg+xml</dc:format>
        <dc:type
           rdf:resource="http://purl.org/dc/dcmitype/StillImage" />
      </cc:Work>
    </rdf:RDF>
  </metadata>
  <defs
     id="defs4">
    <style
       id="style2"
       type="text/css"><![CDATA[    
     @font-face {font-family:CHANEY Extended;
     src: url('/Users/francesco/Repos/write-logos/src/fonts/Fonts_E_TEMPORANEA/CHANEY-Extended.otf');}
     @font-face {font-family:FrankfurterEF;
     src: url('/Users/francesco/Repos/write-logos/src/fonts/Fonts_X/FrankfurterEF-Highlight.ttf');}
     ]]></style>
  </defs>
  <g
     id="g14"
     style="font-size:60px">
    <g
       style="text-anchor:middle"
       id="text12"
       aria-label="EXTEMPORANEA">
      <path
         id="path22"
         style="font-family:'CHANEY Extended';letter-spacing:0.075em"
         d="M 70.919219,69.4 V 58 h -50.22 v 42 h 50.22 V 88.6 h -37.02 v -4.08 h 32.94 V 73.6 h -32.94 v -4.2 z" />
      <path
         id="path24"
         style="font-family:FrankfurterEF;letter-spacing:0.05em"
         d="m 113.48922,93.7 q 0,-1.2 -0.42,-2.28 -0.36,-1.08 -1.02,-2.04 l -7.5,-10.02 6.12,-8.1 q 0.84,-1.08 1.44,-2.34 0.66,-1.32 0.66,-2.7 0,-1.32 -0.54,-2.52 -0.54,-1.2 -1.5,-2.04 -0.9,-0.9 -2.16,-1.38 -1.2,-0.54 -2.52,-0.54 -2.04,0 -3.36,1.02 -1.26,1.02 -2.46,2.52 l -4.020001,5.04 -4.26,-5.64 q -1.02,-1.38 -2.4,-2.16 -1.38,-0.78 -3.18,-0.78 -1.38,0 -2.58,0.54 -1.2,0.48 -2.16,1.38 -0.9,0.9 -1.44,2.1 -0.54,1.2 -0.54,2.58 0,1.62 0.84,3.06 0.84,1.38 1.8,2.58 l 5.58,7.38 -7.5,9.9 q -0.72,0.96 -1.14,2.16 -0.42,1.14 -0.42,2.34 0,1.38 0.54,2.58 0.54,1.2 1.44,2.1 0.9,0.84 2.1,1.38 1.2,0.48 2.58,0.48 1.8,0 3,-0.72 1.26,-0.78 2.34,-2.16 l 5.4,-7.02 5.400001,7.08 q 1.02,1.32 2.4,2.1 1.38,0.72 3.06,0.72 1.32,0 2.52,-0.54 1.2,-0.54 2.04,-1.44 0.84,-0.9 1.32,-2.1 0.54,-1.2 0.54,-2.52 z m -8.46,-29.4 q 0,0.48 -0.36,0.84 -0.36,0.36 -0.84,0.36 -0.48,0 -0.84,-0.36 -0.3,-0.36 -0.3,-0.84 0,-1.14 1.14,-1.14 0.48,0 0.84,0.36 0.36,0.3 0.36,0.78 z m -2.22,2.28 q 0,0.3 -0.12,0.54 -0.12,0.18 -0.24,0.42 l -3.000001,3.9 q -0.18,0.24 -0.42,0.42 -0.24,0.18 -0.54,0.18 -0.48,0 -0.72,-0.3 -0.24,-0.3 -0.24,-0.72 0,-0.3 0.12,-0.54 0.18,-0.3 0.36,-0.54 l 2.760001,-3.6 q 0.42,-0.66 1.08,-0.66 0.36,0 0.66,0.24 0.3,0.24 0.3,0.66 z M 85.409219,64 q 0,1.14 -1.14,1.14 -0.48,0 -0.84,-0.3 -0.36,-0.36 -0.36,-0.84 0,-0.48 0.36,-0.84 0.36,-0.36 0.84,-0.36 0.48,0 0.78,0.36 0.36,0.36 0.36,0.84 z m 22.680001,32.94 q 0,0.66 -0.48,0.9 -0.42,0.24 -0.96,0.24 -1.38,0 -2.16,-0.66 -0.72,-0.72 -1.44,-1.74 l -5.100001,-6.84 q -0.18,-0.24 -0.36,-0.48 -0.12,-0.3 -0.12,-0.6 0,-0.96 0.9,-0.96 0.42,0 0.66,0.3 0.3,0.24 0.54,0.54 l 5.340001,7.2 q 0.54,0.72 1.08,0.9 0.54,0.18 1.02,0.3 0.48,0.06 0.78,0.18 0.3,0.12 0.3,0.72 z M 92.369219,79.48 q 0,1.02 -0.6,1.86 -0.54,0.84 -1.14,1.62 l -6.78,8.76 q -0.3,0.36 -0.48,0.84 -0.18,0.42 -0.18,0.9 0,0.96 0.42,1.38 0.48,0.42 1.02,0.66 0.54,0.24 0.96,0.48 0.48,0.18 0.48,0.72 0,0.48 -0.42,0.78 -0.36,0.3 -0.84,0.3 -0.72,0 -1.44,-0.36 -0.66,-0.42 -1.14,-0.96 -0.48,-0.6 -0.78,-1.32 -0.3,-0.72 -0.3,-1.44 0,-1.02 0.36,-1.92 0.42,-0.96 1.08,-1.8 l 6.9,-8.82 q 0.3,-0.36 0.54,-0.78 0.24,-0.48 0.24,-0.96 0,-0.66 -0.36,-1.26 -0.36,-0.6 -0.72,-1.08 l -6.3,-8.46 q -0.24,-0.3 -0.48,-0.72 -0.18,-0.48 -0.18,-0.9 0,-0.48 0.24,-0.78 0.3,-0.3 0.78,-0.3 0.72,0 0.96,0.66 0.12,0.24 0.24,0.48 0.12,0.18 0.24,0.42 l 5.76,7.8 q 0.66,0.96 1.26,1.98 0.66,1.02 0.66,2.22 z" />
      <path
         id="path26"
         style="font-family:'CHANEY Extended';letter-spacing:0.075em"
         d="m 176.90266,58 h -57.18 v 11.58 h 21.96 V 100 h 13.2 V 69.58 h 22.02 z" />
      <path
         id="path28"
         style="font-family:'CHANEY Extended';letter-spacing:0.075em"
         d="M 237.60672,69.4 V 58 h -50.22 v 42 h 50.22 V 88.6 h -37.02 v -4.08 h 32.94 V 73.6 h -32.94 v -4.2 z" />
      <path
         id="path30"
         style="font-family:'CHANEY Extended';letter-spacing:0.075em"
         d="m 298.35672,58 -18.42,16.44 -18.9,-16.44 h -12.9 v 42 h 12.9 V 75.64 l 18.9,16.38 18.42,-16.2 V 100 h 12.9 V 58 Z" />
      <path
         id="path32"
         style="font-family:'CHANEY Extended';letter-spacing:0.075em"
         d="m 360.65734,58 h -38.88 v 42 h 13.2 v -9.6 h 25.68 c 10.74,0 17.82,-7.26 17.82,-16.2 0,-8.94 -7.08,-16.2 -17.82,-16.2 z m 0,20.82 h -25.68 v -9.24 h 25.68 c 2.52,0 4.62,2.04 4.62,4.62 0,2.58 -2.1,4.62 -4.62,4.62 z" />
      <path
         id="path34"
         style="font-family:'CHANEY Extended';letter-spacing:0.075em"
         d="m 425.72078,57.28 h -16.08 c -13.44,0 -23.04,8.76 -23.04,21.72 0,13.02 9.9,21.72 23.04,21.72 h 16.08 c 13.44,0 23.04,-8.7 23.04,-21.72 0,-12.96 -9.6,-21.72 -23.04,-21.72 z m 0,31.14 h -16.08 c -5.7,0 -9.6,-4.02 -9.6,-9.42 0,-5.34 3.9,-9.42 9.6,-9.42 h 16.08 c 5.7,0 9.6,4.08 9.6,9.42 0,5.4 -3.9,9.42 -9.6,9.42 z" />
      <path
         id="path36"
         style="font-family:'CHANEY Extended';letter-spacing:0.075em"
         d="m 458.04297,100 h 13.26 v -9.6 h 21.48 l 5.7,9.6 h 15.3 l -7.68,-11.76 c 5.4,-2.76 8.64,-8.04 8.64,-14.04 0,-8.94 -7.08,-16.2 -17.82,-16.2 h -38.88 z m 13.26,-21.18 v -9.24 h 25.62 c 2.52,0 4.62,2.04 4.62,4.62 0,2.58 -2.1,4.62 -4.62,4.62 z" />
      <path
         id="path38"
         style="font-family:'CHANEY Extended';letter-spacing:0.075em"
         d="m 570.97516,100 h 13.38 l -11.1,-42 h -40.02 l -11.1,42 h 13.32 l 1.74,-6.66 h 32.04 z m -30.78,-18.36 3.12,-12.06 h 19.74 l 3.12,12.06 z" />
      <path
         id="path40"
         style="font-family:'CHANEY Extended';letter-spacing:0.075em"
         d="M 637.67359,58 V 82.72 L 605.39359,58 h -12.96 v 42 h 12.96 V 75.1 l 32.28,24.9 h 12.96 V 58 Z" />
      <path
         id="path42"
         style="font-family:'CHANEY Extended';letter-spacing:0.075em"
         d="M 711.37234,69.4 V 58 h -50.22 v 42 h 50.22 V 88.6 h -37.02 v -4.08 h 32.94 V 73.6 h -32.94 v -4.2 z" />
      <path
         id="path44"
         style="font-family:'CHANEY Extended';letter-spacing:0.075em"
         d="m 768.34234,100 h 13.38 l -11.1,-42 h -40.02 l -11.1,42 h 13.32 l 1.74,-6.66 h 32.04 z m -30.78,-18.36 3.12,-12.06 h 19.74 l 3.12,12.06 z" />
    </g>
  </g>
</svg>
