<?xml version="1.0" encoding="UTF-8" standalone="no"?>
<svg
   xmlns:dc="http://purl.org/dc/elements/1.1/"
   xmlns:cc="http://creativecommons.org/ns#"
   xmlns:rdf="http://www.w3.org/1999/02/22-rdf-syntax-ns#"
   xmlns:svg="http://www.w3.org/2000/svg"
   xmlns="http://www.w3.org/2000/svg"
   id="svg16"
   width="800px"
   version="1.1"
   height="200px">
  <metadata
     id="metadata20">
    <rdf:RDF>
      <cc:Work
         rdf:about="">
        <dc:format>image/svg+xml</dc:format>
        <dc:type
           rdf:resource="http://purl.org/dc/dcmitype/StillImage" />
      </cc:Work>
    </rdf:RDF>
  </metadata>
  <defs
     id="defs4">
    <style
       id="style2"
       type="text/css"><![CDATA[    
     @font-face {font-family:CHANEY;
     src: url('/Users/francesco/Repos/write-logos/src/fonts/Fonts_E_TEMPORANEA/CHANEY-Regular.otf');}
     @font-face {font-family:Brandon;
     src: url('/Users/francesco/Repos/write-logos/src/fonts/Fonts_X/BrandonFree.ttf');}
     ]]></style>
  </defs>
  <g
     id="g14"
     style="font-size:60px">
    <g
       style="text-anchor:middle"
       id="text12"
       aria-label="EXTEMPORANEA">
      <path
         id="path22"
         style="font-family:CHANEY;letter-spacing:0.075em"
         d="M 144.07891,69.4 V 58 h -34.2 v 42 h 34.2 V 88.54 h -21 v -4.02 h 16.92 V 73.6 h -16.92 v -4.2 z" />
      <path
         id="path24"
         style="font-family:Brandon;letter-spacing:0.05em"
         d="m 151.89648,70.615234 v 0 0 q -0.32226,-0.55664 0.32227,-1.611328 0.67383,-1.054687 1.75781,-2.138672 1.08399,-1.113281 1.99219,-1.816406 0.9082,-0.703125 1.08398,-0.556641 3.22266,4.482422 6.91407,8.613282 0.64453,0.703125 1.28906,1.464843 2.49023,3.046875 5.41992,5.595704 0.9082,0.732421 1.9043,1.40625 1.08398,0.732421 2.10937,1.582031 0.9375,0.820312 1.78711,1.757812 0.79102,0.84961 1.66992,1.611328 1.20118,0.996094 2.60743,1.757813 2.49023,1.201172 3.95507,3.457031 0.20508,0.439453 -0.0879,1.054688 -0.29297,0.615234 -0.76172,1.230468 -0.46875,0.615235 -0.8496,1.025391 -0.14649,0.175781 -0.26368,0.263672 -0.0879,0.117187 -0.52734,0.615234 -0.43945,0.46875 -1.02539,0.996094 -0.55664,0.527344 -1.02539,0.849609 -0.46875,0.322266 -0.61524,0.117188 -1.46484,-2.285156 -3.98437,-3.457031 -1.37695,-0.791016 -2.57813,-1.757813 -0.8789,-0.791015 -1.69921,-1.640625 -0.84961,-0.908203 -1.75782,-1.757812 -1.02539,-0.820313 -2.10937,-1.582032 -0.9668,-0.644531 -1.9043,-1.376953 -2.92969,-2.578125 -5.41992,-5.595703 -0.64453,-0.761719 -1.28906,-1.49414 -3.69141,-4.101563 -6.91407,-8.613282 z m 27.53907,-3.574218 v 0 0 q 0.0586,-0.05859 0.11718,-0.175782 0.32227,-0.439453 0.9668,-1.230468 0.67383,-0.820313 1.37695,-1.464844 0.70313,-0.644531 1.14258,-0.556641 0.43946,0.146485 0.26367,0.703125 -0.17578,0.527344 -0.58593,1.113281 -0.38086,0.556641 -0.64453,0.878907 -0.0293,0.05859 -0.0586,0.08789 -11.95312,15.585938 -24.72656,30.527344 0,0 -0.0293,0.05859 -0.23437,0.292969 -0.8789,0.996094 -0.61524,0.673828 -1.28907,1.201171 -0.64453,0.498047 -0.99609,0.292969 -0.26367,-0.292969 0.11719,-1.02539 0.41015,-0.761719 0.99609,-1.494141 0.58594,-0.732422 0.82031,-1.025391 0.0293,-0.0293 0.0293,-0.0293 12.07031,-14.121093 23.37891,-28.857421 z" />
      <path
         id="path26"
         style="font-family:CHANEY;letter-spacing:0.075em"
         d="m 232.13266,58 h -41.16 v 11.58 h 13.98 V 100 h 13.2 V 69.58 h 13.98 z" />
      <path
         id="path28"
         style="font-family:CHANEY;letter-spacing:0.075em"
         d="M 276.78203,69.4 V 58 h -34.2 v 42 h 34.2 V 88.54 h -21 v -4.02 h 16.92 V 73.6 h -16.92 v -4.2 z" />
      <path
         id="path30"
         style="font-family:CHANEY;letter-spacing:0.075em"
         d="m 321.47734,58 -10.38,14.46 -10.92,-14.46 h -12.9 v 42 h 12.9 V 78.64 l 10.92,13.38 10.38,-13.02 v 21 h 12.9 V 58 Z" />
      <path
         id="path32"
         style="font-family:CHANEY;letter-spacing:0.075em"
         d="m 367.72328,58 h -22.86 v 42 h 13.2 v -9.6 h 9.66 c 10.74,0 17.82,-7.26 17.82,-16.2 0,-8.94 -7.08,-16.2 -17.82,-16.2 z m 0,20.82 h -9.66 v -9.24 h 9.66 c 2.52,0 4.62,2.04 4.62,4.62 0,2.58 -2.1,4.62 -4.62,4.62 z" />
      <path
         id="path34"
         style="font-family:CHANEY;letter-spacing:0.075em"
         d="m 416.85203,57.28 h -0.18 c -13.44,0 -23.04,8.76 -23.04,21.72 0,13.02 9.9,21.72 23.04,21.72 h 0.18 c 13.44,0 23.04,-8.7 23.04,-21.72 0,-12.96 -9.6,-21.72 -23.04,-21.72 z m 0,31.14 h -0.18 c -5.7,0 -9.6,-3.9 -9.6,-9.42 0,-5.46 3.9,-9.42 9.6,-9.42 h 0.18 c 5.7,0 9.6,3.96 9.6,9.42 0,5.52 -3.9,9.42 -9.6,9.42 z" />
      <path
         id="path36"
         style="font-family:CHANEY;letter-spacing:0.075em"
         d="m 449.13672,100 h 13.26 v -9.6 h 7.5 l 5.7,9.6 h 15.3 l -8.28,-12.54 c 4.56,-2.94 7.2,-7.8 7.2,-13.26 0,-8.94 -7.08,-16.2 -17.82,-16.2 h -22.86 z m 13.26,-21.18 v -9.24 h 9.6 c 2.52,0 4.62,2.04 4.62,4.62 0,2.58 -2.1,4.62 -4.62,4.62 z" />
      <path
         id="path38"
         style="font-family:CHANEY;letter-spacing:0.075em"
         d="m 529.99422,100 h 13.38 l -11.1,-42 h -24 l -11.1,42 h 13.32 l 1.74,-6.66 h 16.02 z m -14.76,-18.36 3.12,-12.06 h 3.72 l 3.12,12.06 z" />
      <path
         id="path40"
         style="font-family:CHANEY;letter-spacing:0.075em"
         d="M 580.63797,58 V 79.54 L 564.37797,58 h -12.96 v 42 h 12.96 V 77.92 l 16.26,22.08 h 12.96 V 58 Z" />
      <path
         id="path42"
         style="font-family:CHANEY;letter-spacing:0.075em"
         d="M 638.28203,69.4 V 58 h -34.2 v 42 h 34.2 V 88.54 h -21 v -4.02 h 16.92 V 73.6 h -16.92 v -4.2 z" />
      <path
         id="path44"
         style="font-family:CHANEY;letter-spacing:0.075em"
         d="m 679.19734,100 h 13.38 l -11.1,-42 h -24 l -11.1,42 h 13.32 l 1.74,-6.66 h 16.02 z m -14.76,-18.36 3.12,-12.06 h 3.72 l 3.12,12.06 z" />
    </g>
  </g>
</svg>
