<?xml version="1.0" encoding="UTF-8" standalone="no"?>
<svg
   xmlns:dc="http://purl.org/dc/elements/1.1/"
   xmlns:cc="http://creativecommons.org/ns#"
   xmlns:rdf="http://www.w3.org/1999/02/22-rdf-syntax-ns#"
   xmlns:svg="http://www.w3.org/2000/svg"
   xmlns="http://www.w3.org/2000/svg"
   id="svg16"
   width="800px"
   version="1.1"
   height="200px">
  <metadata
     id="metadata20">
    <rdf:RDF>
      <cc:Work
         rdf:about="">
        <dc:format>image/svg+xml</dc:format>
        <dc:type
           rdf:resource="http://purl.org/dc/dcmitype/StillImage" />
      </cc:Work>
    </rdf:RDF>
  </metadata>
  <defs
     id="defs4">
    <style
       id="style2"
       type="text/css"><![CDATA[    
     @font-face {font-family:CHANEY Extended;
     src: url('/Users/francesco/Repos/write-logos/src/fonts/Fonts_E_TEMPORANEA/CHANEY-Extended.otf');}
     @font-face {font-family:Brandon;
     src: url('/Users/francesco/Repos/write-logos/src/fonts/Fonts_X/BrandonFree.ttf');}
     ]]></style>
  </defs>
  <g
     id="g14"
     style="font-size:60px">
    <g
       style="text-anchor:middle"
       id="text12"
       aria-label="EXTEMPORANEA">
      <path
         id="path22"
         style="font-family:'CHANEY Extended';letter-spacing:0.075em"
         d="M 71.856719,69.4 V 58 h -50.22 v 42 h 50.22 V 88.6 h -37.02 v -4.08 h 32.94 V 73.6 h -32.94 v -4.2 z" />
      <path
         id="path24"
         style="font-family:Brandon;letter-spacing:0.05em"
         d="m 79.708984,70.615234 v 0 0 q -0.322265,-0.55664 0.322266,-1.611328 0.673828,-1.054687 1.757812,-2.138672 1.083985,-1.113281 1.992188,-1.816406 0.908203,-0.703125 1.083984,-0.556641 3.222657,4.482422 6.914063,8.613282 0.644531,0.703125 1.289062,1.464843 2.490235,3.046875 5.419922,5.595704 0.908203,0.732421 1.904299,1.40625 1.08398,0.732421 2.10937,1.582031 0.9375,0.820312 1.78711,1.757812 0.79102,0.84961 1.66992,1.611328 1.20118,0.996094 2.60743,1.757813 2.49023,1.201172 3.95507,3.457031 0.20508,0.439453 -0.0879,1.054688 -0.29296,0.615234 -0.76171,1.230468 -0.46875,0.615235 -0.84961,1.025391 -0.14649,0.175781 -0.26368,0.263672 -0.0879,0.117187 -0.52734,0.615234 -0.43945,0.46875 -1.02539,0.996094 -0.55664,0.527344 -1.02539,0.849609 -0.46875,0.322266 -0.61524,0.117188 -1.46484,-2.285156 -3.98437,-3.457031 -1.37695,-0.791016 -2.57813,-1.757813 -0.878902,-0.791015 -1.699214,-1.640625 -0.84961,-0.908203 -1.757813,-1.757812 -1.025391,-0.820313 -2.109375,-1.582032 -0.966797,-0.644531 -1.904297,-1.376953 -2.929687,-2.578125 -5.419922,-5.595703 -0.644531,-0.761719 -1.289062,-1.49414 -3.691406,-4.101563 -6.914063,-8.613282 z m 27.539066,-3.574218 v 0 0 q 0.0586,-0.05859 0.11718,-0.175782 0.32227,-0.439453 0.9668,-1.230468 0.67383,-0.820313 1.37695,-1.464844 0.70313,-0.644531 1.14258,-0.556641 0.43946,0.146485 0.26367,0.703125 -0.17578,0.527344 -0.58593,1.113281 -0.38086,0.556641 -0.64453,0.878907 -0.0293,0.05859 -0.0586,0.08789 -11.953123,15.585938 -24.726561,30.527344 0,0 -0.0293,0.05859 -0.234375,0.292969 -0.878906,0.996094 -0.615234,0.673828 -1.289062,1.201171 -0.644532,0.498047 -0.996094,0.292969 -0.263672,-0.292969 0.117187,-1.02539 0.410157,-0.761719 0.996094,-1.494141 0.585938,-0.732422 0.820313,-1.025391 0.0293,-0.0293 0.0293,-0.0293 12.070312,-14.121093 23.378909,-28.857421 z" />
      <path
         id="path26"
         style="font-family:'CHANEY Extended';letter-spacing:0.075em"
         d="m 175.96516,58 h -57.18 v 11.58 h 21.96 V 100 h 13.2 V 69.58 h 22.02 z" />
      <path
         id="path28"
         style="font-family:'CHANEY Extended';letter-spacing:0.075em"
         d="M 236.66922,69.4 V 58 h -50.22 v 42 h 50.22 V 88.6 h -37.02 v -4.08 h 32.94 V 73.6 h -32.94 v -4.2 z" />
      <path
         id="path30"
         style="font-family:'CHANEY Extended';letter-spacing:0.075em"
         d="m 297.41922,58 -18.42,16.44 -18.9,-16.44 h -12.9 v 42 h 12.9 V 75.64 l 18.9,16.38 18.42,-16.2 V 100 h 12.9 V 58 Z" />
      <path
         id="path32"
         style="font-family:'CHANEY Extended';letter-spacing:0.075em"
         d="m 359.71984,58 h -38.88 v 42 h 13.2 v -9.6 h 25.68 c 10.74,0 17.82,-7.26 17.82,-16.2 0,-8.94 -7.08,-16.2 -17.82,-16.2 z m 0,20.82 h -25.68 v -9.24 h 25.68 c 2.52,0 4.62,2.04 4.62,4.62 0,2.58 -2.1,4.62 -4.62,4.62 z" />
      <path
         id="path34"
         style="font-family:'CHANEY Extended';letter-spacing:0.075em"
         d="m 424.78328,57.28 h -16.08 c -13.44,0 -23.04,8.76 -23.04,21.72 0,13.02 9.9,21.72 23.04,21.72 h 16.08 c 13.44,0 23.04,-8.7 23.04,-21.72 0,-12.96 -9.6,-21.72 -23.04,-21.72 z m 0,31.14 h -16.08 c -5.7,0 -9.6,-4.02 -9.6,-9.42 0,-5.34 3.9,-9.42 9.6,-9.42 h 16.08 c 5.7,0 9.6,4.08 9.6,9.42 0,5.4 -3.9,9.42 -9.6,9.42 z" />
      <path
         id="path36"
         style="font-family:'CHANEY Extended';letter-spacing:0.075em"
         d="m 457.10547,100 h 13.26 v -9.6 h 21.48 l 5.7,9.6 h 15.3 l -7.68,-11.76 c 5.4,-2.76 8.64,-8.04 8.64,-14.04 0,-8.94 -7.08,-16.2 -17.82,-16.2 h -38.88 z m 13.26,-21.18 v -9.24 h 25.62 c 2.52,0 4.62,2.04 4.62,4.62 0,2.58 -2.1,4.62 -4.62,4.62 z" />
      <path
         id="path38"
         style="font-family:'CHANEY Extended';letter-spacing:0.075em"
         d="m 570.03766,100 h 13.38 l -11.1,-42 h -40.02 l -11.1,42 h 13.32 l 1.74,-6.66 h 32.04 z m -30.78,-18.36 3.12,-12.06 h 19.74 l 3.12,12.06 z" />
      <path
         id="path40"
         style="font-family:'CHANEY Extended';letter-spacing:0.075em"
         d="M 636.73609,58 V 82.72 L 604.45609,58 h -12.96 v 42 h 12.96 V 75.1 l 32.28,24.9 h 12.96 V 58 Z" />
      <path
         id="path42"
         style="font-family:'CHANEY Extended';letter-spacing:0.075em"
         d="M 710.43484,69.4 V 58 h -50.22 v 42 h 50.22 V 88.6 h -37.02 v -4.08 h 32.94 V 73.6 h -32.94 v -4.2 z" />
      <path
         id="path44"
         style="font-family:'CHANEY Extended';letter-spacing:0.075em"
         d="m 767.40484,100 h 13.38 l -11.1,-42 h -40.02 l -11.1,42 h 13.32 l 1.74,-6.66 h 32.04 z m -30.78,-18.36 3.12,-12.06 h 19.74 l 3.12,12.06 z" />
    </g>
  </g>
</svg>
