<?xml version="1.0" encoding="UTF-8" standalone="no"?>
<svg
   xmlns:dc="http://purl.org/dc/elements/1.1/"
   xmlns:cc="http://creativecommons.org/ns#"
   xmlns:rdf="http://www.w3.org/1999/02/22-rdf-syntax-ns#"
   xmlns:svg="http://www.w3.org/2000/svg"
   xmlns="http://www.w3.org/2000/svg"
   id="svg16"
   width="800px"
   version="1.1"
   height="200px">
  <metadata
     id="metadata20">
    <rdf:RDF>
      <cc:Work
         rdf:about="">
        <dc:format>image/svg+xml</dc:format>
        <dc:type
           rdf:resource="http://purl.org/dc/dcmitype/StillImage" />
      </cc:Work>
    </rdf:RDF>
  </metadata>
  <defs
     id="defs4">
    <style
       id="style2"
       type="text/css"><![CDATA[    
     @font-face {font-family:CHANEY Extended;
     src: url('/Users/francesco/Repos/write-logos/src/fonts/Fonts_E_TEMPORANEA/CHANEY-Extended.otf');}
     @font-face {font-family:Westpart;
     src: url('/Users/francesco/Repos/write-logos/src/fonts/Fonts_X/WestpartDemo.otf');}
     ]]></style>
  </defs>
  <g
     id="g14"
     style="font-size:60px">
    <g
       style="text-anchor:middle"
       id="text12"
       aria-label="EXTEMPORANEA">
      <path
         id="path22"
         style="font-family:'CHANEY Extended';letter-spacing:0.075em"
         d="M 70.62625,69.4 V 58 h -50.22 v 42 h 50.22 V 88.6 h -37.02 v -4.08 h 32.94 V 73.6 h -32.94 v -4.2 z" />
      <path
         id="path24"
         style="font-family:Westpart;letter-spacing:0.05em"
         d="m 78.15625,103.96 c 0,0 0,0 0,0 0,0 0,0 0,0 z m 34.5,-47.94 c -0.24,-0.18 -0.48,-0.3 -0.66,-0.48 -0.42,0.06 -0.84,0.12 -1.26,0.12 -1.14,0.48 -1.98,1.32 -2.88,2.04 -0.42,0.84 -1.2,1.32 -1.8,1.92 -1.02,1.14 -2.22,2.04 -3,3.36 -0.42,0.72 -1.02,1.26 -1.44,1.98 -0.6,1.02 -1.38,1.86 -2.04,2.88 -0.54,0.78 -1.26,1.44 -1.62,2.34 -0.06,0.18 -0.3,0.36 -0.42,0.48 -0.18,0.18 -0.36,0.36 -0.48,0.6 -0.54,0.9 -1.2,1.74 -1.86,2.64 -0.24,0.36 -0.54,0.72 -0.84,1.08 0,0.06 -0.12,0.06 -0.3,0.06 0.54,-1.26 1.38,-2.34 2.22,-3.36 0.18,-0.54 0.48,-1.08 0.9,-1.5 0.42,-0.48 0.84,-0.9 0.9,-1.56 0.72,-0.6 1.26,-1.38 1.74,-2.16 0.24,-0.48 0.66,-0.96 0.96,-1.38 0.18,-0.24 0.42,-0.42 0.54,-0.66 0.54,-0.78 1.14,-1.5 1.62,-2.28 0.36,-0.54 0.84,-1.08 1.14,-1.68 0.06,-0.06 0,-0.12 0.06,-0.36 -1.08,0.96 -2.04,1.74 -2.82,2.82 -0.48,0.66 -1.02,1.32 -1.62,1.92 -0.9,0.96 -1.74,1.92 -2.46,3 -0.18,0.24 -0.3,0.48 -0.54,0.66 -0.9,0.84 -1.44,2.04 -2.34,2.88 -0.24,0.3 -0.36,0.72 -0.66,0.96 -0.3,0.24 -0.54,0.66 -0.84,1.02 -0.24,-0.42 -0.42,-0.78 -0.72,-1.08 -0.24,-0.3 -0.42,-0.54 -0.6,-0.84 -0.36,-0.6 -0.78,-1.14 -1.2,-1.62 -0.12,-0.18 -0.3,-0.42 -0.6,-0.36 -0.06,0 -0.12,-0.12 -0.18,-0.12 0.06,-0.18 0.06,-0.36 0.12,-0.48 -0.72,-0.72 -1.2,-1.5 -1.68,-2.28 -0.36,-0.54 -0.84,-0.96 -1.44,-1.08 -1.02,-1.14 -2.1,-2.1 -3.24,-2.94 -0.54,-0.12 -0.96,0 -1.26,0.36 0,0.06 -0.06,0.12 -0.06,0.18 0,1.02 0.36,1.98 0.6,3 0.18,0.6 0.6,1.2 0.9,1.8 0.48,1.02 0.96,1.98 1.5,3.06 0.12,0.12 0.42,0.36 0.48,0.6 0.06,0.42 0.36,0.66 0.6,0.96 0.12,0.12 0.18,0.3 0.3,0.42 0.42,0.66 0.66,1.44 1.26,1.98 0.06,0.06 0.06,0.18 0.12,0.3 0.48,0.9 1.02,1.8 1.5,2.7 0.12,0.18 0.12,0.36 0.18,0.48 -0.06,0.24 -0.12,0.48 -0.18,0.66 -0.12,0.18 -0.24,0.36 -0.36,0.48 -0.18,0.3 -0.42,0.54 -0.54,0.84 -0.42,0.84 -0.96,1.56 -1.5,2.28 -0.18,0.18 -0.36,0.42 -0.42,0.66 -0.48,1.02 -1.14,1.98 -1.68,2.94 -0.48,0.78 -1.02,1.5 -1.32,2.34 -0.12,0.3 -0.3,0.6 -0.42,0.84 -0.42,0.78 -0.84,1.62 -1.26,2.4 -0.3,0.72 -0.72,1.38 -0.96,2.16 -0.24,0.78 -0.72,1.44 -0.9,2.22 -0.06,0.36 -0.18,0.78 -0.42,1.08 -0.18,0.3 -0.12,0.66 -0.24,1.02 -0.12,0.12 -0.36,0.12 -0.3,0.36 0.24,0.12 0.48,0.24 0.72,0.3 -0.06,0.24 -0.12,0.48 -0.18,0.72 0,0.3 0,0.54 0,0.84 -0.24,0.12 -0.42,0.3 -0.6,0.42 -0.24,0.72 -0.3,1.44 -0.78,1.98 -0.18,0.24 -0.18,0.66 0.06,1.02 0.3,-0.24 0.6,-0.48 0.96,-0.66 0.06,-0.18 0.18,-0.36 0.18,-0.54 0.06,-0.18 0.06,-0.36 0.06,-0.54 0.3,-0.42 0.6,-0.78 0.84,-1.14 0.3,0 0.54,0 0.78,0 0,-0.66 0.48,-0.96 0.78,-1.14 0.3,-0.54 0.6,-0.9 0.84,-1.32 0.72,-1.38 1.62,-2.7 2.4,-4.02 0.54,-0.96 1.32,-1.8 1.68,-2.82 0.18,-0.3 0.48,-0.54 0.72,-0.78 0.84,-1.26 1.74,-2.52 2.58,-3.78 0.3,-0.48 0.54,-0.9 0.96,-1.5 0.06,-0.12 0.36,-0.24 0.6,-0.48 0.18,-0.24 0.24,-0.54 0.54,-0.78 0.24,-0.18 0.36,-0.48 0.54,-0.66 0.24,0.36 0.54,0.66 0.72,1.08 0.6,1.14 1.2,2.34 1.8,3.48 0.12,0.18 0.18,0.42 0.3,0.54 0.42,0.42 0.6,0.9 0.9,1.38 0.24,0.48 0.48,1.08 0.84,1.44 0.66,0.72 1.32,1.5 2.16,2.04 0.48,0.36 0.84,0.78 1.26,1.2 0.06,0 0.12,0 0.24,0.06 0.18,-0.18 0.36,-0.3 0.54,-0.48 0.24,0.12 0.42,0.24 0.6,0.3 0.18,0.3 0.36,0.54 0.48,0.84 0.36,0.18 0.72,0.3 1.02,0.48 0.3,-0.36 0.18,-0.72 0.18,-1.02 -0.06,-0.06 -0.06,-0.12 -0.12,-0.24 0,0 0.06,0 0.06,0 0,0.06 0.06,0.18 0.06,0.24 0.12,0 0.24,0.06 0.3,0.06 0.36,-0.54 0.42,-1.14 0.36,-1.62 -0.24,-0.66 -0.48,-1.14 -0.66,-1.68 -0.18,-0.6 -0.42,-1.14 -0.48,-1.74 -0.12,-0.48 -0.36,-0.84 -0.6,-1.26 -0.36,-0.78 -1.02,-1.32 -1.26,-2.16 -0.24,-0.12 -0.42,-0.24 -0.6,-0.42 0,-0.78 -0.48,-1.38 -0.96,-2.04 0,-0.9 -1.02,-1.26 -1.08,-2.1 -0.24,-0.12 -0.36,-0.18 -0.48,-0.3 -0.3,-0.54 -0.48,-1.08 -0.84,-1.5 -0.42,-0.54 -0.78,-1.14 -1.08,-1.8 0.12,-0.24 0.24,-0.54 0.42,-0.78 0.6,-0.84 1.32,-1.68 1.92,-2.52 0.42,-0.54 0.72,-1.08 1.26,-1.5 0.24,-0.18 0.36,-0.48 0.54,-0.78 0.18,-0.24 0.3,-0.48 0.48,-0.72 0.3,-0.42 0.66,-0.78 1.02,-1.32 0.12,-0.06 0.36,-0.18 0.36,-0.18 0.6,-0.72 1.02,-1.2 1.44,-1.74 0.24,-0.36 0.54,-0.72 0.96,-1.26 0.06,-0.12 0.36,-0.42 0.6,-0.72 0.96,-1.02 1.56,-2.28 2.4,-3.36 0.24,-0.3 0.48,-0.6 0.66,-0.9 0.72,-1.44 1.68,-2.7 2.7,-3.9 0.6,-0.72 1.14,-1.44 1.62,-2.1 0,-0.3 0,-0.54 0,-0.78 z m -33,42.96 c 0,-0.12 0,-0.24 0.06,-0.48 0.18,0.24 0.06,0.36 -0.06,0.48 z m 1.92,-1.5 c -0.06,0.12 -0.06,0.18 -0.12,0.24 0,0 0,0 -0.06,0 0.06,-0.06 0.12,-0.18 0.18,-0.24 0,0 0,-0.06 0,-0.06 0,0.06 0,0.06 0,0.06 z m 1.44,-3.06 v -0.06 l 0.12,0.06 z m 6.6,-27.06 c 0.12,0.06 0.24,0.12 0.42,-0.12 -0.6,-0.78 -0.96,-1.68 -1.98,-2.34 0.06,0.24 0.06,0.36 0.06,0.36 0.54,0.72 1.02,1.38 1.5,2.1 z m -11.46,36.6 c -0.06,0 -0.06,0 -0.06,0.06 0,-0.06 0,-0.06 0.06,-0.06 z" />
      <path
         id="path26"
         style="font-family:'CHANEY Extended';letter-spacing:0.075em"
         d="m 177.19562,58 h -57.17999 v 11.58 h 21.95999 V 100 h 13.2 V 69.58 h 22.02 z" />
      <path
         id="path28"
         style="font-family:'CHANEY Extended';letter-spacing:0.075em"
         d="M 237.89969,69.4 V 58 h -50.22 v 42 h 50.22 V 88.6 h -37.02 v -4.08 h 32.94 V 73.6 h -32.94 v -4.2 z" />
      <path
         id="path30"
         style="font-family:'CHANEY Extended';letter-spacing:0.075em"
         d="m 298.64969,58 -18.42,16.44 -18.9,-16.44 h -12.9 v 42 h 12.9 V 75.64 l 18.9,16.38 18.42,-16.2 V 100 h 12.9 V 58 Z" />
      <path
         id="path32"
         style="font-family:'CHANEY Extended';letter-spacing:0.075em"
         d="m 360.95031,58 h -38.88 v 42 h 13.2 v -9.6 h 25.68 c 10.74,0 17.82,-7.26 17.82,-16.2 0,-8.94 -7.08,-16.2 -17.82,-16.2 z m 0,20.82 h -25.68 v -9.24 h 25.68 c 2.52,0 4.62,2.04 4.62,4.62 0,2.58 -2.1,4.62 -4.62,4.62 z" />
      <path
         id="path34"
         style="font-family:'CHANEY Extended';letter-spacing:0.075em"
         d="m 426.01375,57.28 h -16.08 c -13.44,0 -23.04,8.76 -23.04,21.72 0,13.02 9.9,21.72 23.04,21.72 h 16.08 c 13.44,0 23.04,-8.7 23.04,-21.72 0,-12.96 -9.6,-21.72 -23.04,-21.72 z m 0,31.14 h -16.08 c -5.7,0 -9.6,-4.02 -9.6,-9.42 0,-5.34 3.9,-9.42 9.6,-9.42 h 16.08 c 5.7,0 9.6,4.08 9.6,9.42 0,5.4 -3.9,9.42 -9.6,9.42 z" />
      <path
         id="path36"
         style="font-family:'CHANEY Extended';letter-spacing:0.075em"
         d="m 458.33594,100 h 13.26 v -9.6 h 21.48 l 5.7,9.6 h 15.3 l -7.68,-11.76 c 5.4,-2.76 8.64,-8.04 8.64,-14.04 0,-8.94 -7.08,-16.2 -17.82,-16.2 h -38.88 z m 13.26,-21.18 v -9.24 h 25.62 c 2.52,0 4.62,2.04 4.62,4.62 0,2.58 -2.1,4.62 -4.62,4.62 z" />
      <path
         id="path38"
         style="font-family:'CHANEY Extended';letter-spacing:0.075em"
         d="m 571.26813,100 h 13.37999 L 573.54813,58 h -40.02 l -11.1,42 h 13.31999 l 1.74,-6.66 h 32.04001 z m -30.78001,-18.36 3.12,-12.06 h 19.74 l 3.12,12.06 z" />
      <path
         id="path40"
         style="font-family:'CHANEY Extended';letter-spacing:0.075em"
         d="M 637.96656,58 V 82.72 L 605.68656,58 h -12.96 v 42 h 12.96 V 75.1 l 32.28,24.9 h 12.96 V 58 Z" />
      <path
         id="path42"
         style="font-family:'CHANEY Extended';letter-spacing:0.075em"
         d="M 711.66531,69.4 V 58 h -50.22 v 42 h 50.22 V 88.6 h -37.02 v -4.08 h 32.94 V 73.6 h -32.94 v -4.2 z" />
      <path
         id="path44"
         style="font-family:'CHANEY Extended';letter-spacing:0.075em"
         d="m 768.63531,100 h 13.38 l -11.1,-42 h -40.02 l -11.1,42 h 13.32 l 1.74,-6.66 h 32.04 z m -30.78,-18.36 3.12,-12.06 h 19.74 l 3.12,12.06 z" />
    </g>
  </g>
</svg>
