<?xml version="1.0" encoding="UTF-8" standalone="no"?>
<svg
   xmlns:dc="http://purl.org/dc/elements/1.1/"
   xmlns:cc="http://creativecommons.org/ns#"
   xmlns:rdf="http://www.w3.org/1999/02/22-rdf-syntax-ns#"
   xmlns:svg="http://www.w3.org/2000/svg"
   xmlns="http://www.w3.org/2000/svg"
   id="svg16"
   width="800px"
   version="1.1"
   height="200px">
  <metadata
     id="metadata20">
    <rdf:RDF>
      <cc:Work
         rdf:about="">
        <dc:format>image/svg+xml</dc:format>
        <dc:type
           rdf:resource="http://purl.org/dc/dcmitype/StillImage" />
      </cc:Work>
    </rdf:RDF>
  </metadata>
  <defs
     id="defs4">
    <style
       id="style2"
       type="text/css"><![CDATA[    
     @font-face {font-family:CHANEY Extended;
     src: url('/Users/francesco/Repos/write-logos/src/fonts/Fonts_E_TEMPORANEA/CHANEY-Extended.otf');}
     @font-face {font-family:Panic;
     src: url('/Users/francesco/Repos/write-logos/src/fonts/Fonts_X/Panic.ttf');}
     ]]></style>
  </defs>
  <g
     id="g14"
     style="font-size:60px">
    <g
       style="text-anchor:middle"
       id="text12"
       aria-label="EXTEMPORANEA">
      <path
         id="path22"
         style="font-family:'CHANEY Extended';letter-spacing:0.075em"
         d="M 63.419219,69.4 V 58 h -50.22 v 42 h 50.22 V 88.6 h -37.02 v -4.08 h 32.94 V 73.6 h -32.94 v -4.2 z" />
      <path
         id="path24"
         style="font-family:Panic;letter-spacing:0.05em"
         d="m 109.62109,50.429687 q 0.23438,0.0293 0.23438,0.234375 -0.32227,0.498047 -0.46875,1.289063 -1.05469,0.351562 -1.05469,0.9375 0.23438,0.0293 0.23438,0.234375 v 0.351562 q 0,0.205079 -1.05469,0.351563 l -0.11719,0.234375 v 0.234375 l 0.35156,0.46875 0.46875,-0.117188 0.82032,0.117188 q 0,-0.175781 1.75781,-0.46875 l 0.70312,0.117187 q 0,-0.175781 3.04688,-0.585937 h 0.11719 q 0.23437,0.0293 0.23437,0.234375 v 0.117187 q -0.32226,0.322266 -0.46875,1.171875 -0.9375,0.46875 -0.9375,0.703125 l 0.23438,0.820313 q -0.26368,0.205078 -1.17188,0.351562 0,0.351563 -0.11719,0.351563 0.46875,0.556641 0.46875,0.703125 -0.17578,0.46875 -0.35156,0.46875 -0.58594,-0.234375 -0.58594,-0.351563 -0.58593,0.205079 -0.58593,0.585938 0,0.205078 0.82031,0.703125 l -1.64063,3.632812 q -0.82031,0.644532 -0.82031,1.289063 0,0.527344 -0.9375,0.820312 l -0.23437,0.351563 q 0.35156,0.585937 0.35156,0.820312 -1.28906,0.117188 -1.28906,0.351563 v 0.351562 q 0.58593,0.615235 0.58593,0.9375 l -0.46875,0.351563 -0.58593,-0.46875 h -0.23438 q -0.17578,0 -0.35156,0.351562 v 0.46875 q 0.82031,0.146485 0.82031,0.585938 -0.58594,1.845703 -1.64062,3.046875 0,0.9375 -0.70313,0.9375 -0.23437,0.292969 -0.23437,0.46875 0,0.410156 0.9375,0.585937 0,0.351563 0.23437,1.171875 -0.82031,0.439454 -0.82031,0.585938 0,0.585937 0.46875,0.703125 0.41016,0 0.58594,-0.9375 0.70312,0.234375 0.70312,0.46875 v 0.351562 Q 106.45703,77.441406 106.45703,77.5 v 0.117187 q 0,0.146485 0.58594,0.46875 l 0.46875,-0.351562 h 0.35156 q 0.23438,0.0293 0.23438,0.234375 -0.11719,0.644531 -0.11719,1.054687 l 0.58594,0.117188 q 0.0586,0 0.46875,-0.117188 0.35156,1.171875 0.70312,1.171875 0.79102,0 1.05469,1.054688 0.38086,0 1.875,1.875 0.26367,0 0.35156,0.585937 -0.14648,0 -0.58594,0.585938 l 0.11719,0.585937 h 0.46875 l 0.58594,-0.46875 h 0.11719 q 0.20507,0 0.35156,0.585938 l -0.35156,0.585937 q 0,0.175782 0.46875,0.46875 l 0.82031,-0.234375 0.23437,0.46875 q -0.11718,0.205079 -0.11718,0.46875 0.20507,0.205079 1.28906,0.585938 0,0.527344 1.52344,1.640625 1.17187,1.40625 1.17187,1.640625 -0.79101,0.292969 -0.9375,0.820312 0.43945,0.351563 0.82031,0.351563 0.43946,-0.703125 0.58594,-0.703125 h 0.11719 q 0.32226,0 0.46875,0.820312 -0.46875,0.175782 -0.46875,0.351563 v 0.351562 q 0.11719,0.351563 0.70312,0.351563 0,-0.175781 0.35157,-0.351563 h 0.23437 q 0.23438,0.0293 0.23438,0.234375 0,0.585938 -0.23438,0.585938 0,0.117187 0.46875,0.703125 V 94.375 l -0.58594,0.117187 q -0.11718,0 -0.35156,-0.117187 -0.43945,0.234375 -0.9375,0.234375 -0.23437,0 -0.23437,-0.234375 l 0.35156,-0.585938 q -0.11719,-0.46875 -0.70313,-0.46875 -0.23437,0.05859 -0.46875,0.585938 0.14649,0 0.58594,0.585937 0,0.205079 -1.99219,0.46875 -0.23437,0 -0.23437,-0.234375 l 0.35156,-0.585937 v -0.117188 q -0.11719,-0.351562 -0.70312,-0.351562 -0.17578,0 -0.35157,0.351562 v 0.234375 q 0.46875,0.527344 0.46875,0.585938 0,0.205078 -1.875,0.46875 -0.23437,0 -0.23437,-0.351563 0.23437,-0.380859 0.23437,-0.703125 l -0.35156,-0.234375 h -0.35156 q -0.23438,0.0293 -0.23438,0.234375 v 0.46875 l 0.35157,0.46875 q 0,0.234375 -0.23438,0.234375 h -0.58594 q -0.11718,0 -0.11718,-0.117187 -0.73243,0.351562 -1.05469,0.351562 l -0.11719,-0.234375 V 95.3125 l 0.23438,-0.351563 v -0.351562 q 0,-0.117188 -0.46875,-0.351563 -0.46875,0.175782 -0.46875,0.351563 v 0.351562 l 0.35156,0.46875 v 0.117188 q 0,0.234375 -0.23438,0.234375 h -0.58593 q -0.11719,0 -0.11719,-0.117188 -0.38086,0.234375 -0.70313,0.234375 h -0.23437 q -0.23438,0 -0.23438,-0.234375 0.35157,-0.46875 0.35157,-0.703125 -0.43946,-0.351562 -0.82032,-0.351562 l -0.23437,0.351562 v 0.46875 q 0.46875,0.05859 0.46875,0.351563 0,0.263672 -0.58594,0.351562 -0.9375,0 -1.28906,-0.9375 -0.9375,-1.171875 -0.9375,-1.640625 0.32226,-0.08789 0.58594,-0.585937 v -0.117188 q 0,-0.175781 -0.35157,-0.351562 l -1.05468,0.117187 -0.11719,-0.234375 q -0.87891,0.234375 -0.9375,0.234375 -0.11719,-0.234375 -0.11719,-0.351562 0.23438,-0.380859 0.23438,-0.703125 0,-0.234375 -0.70313,-0.351563 l -0.35156,0.46875 v 0.117188 q 0.46875,0.527344 0.46875,0.585937 0,0.175782 -0.35156,0.351563 h -0.11719 q -1.02539,0 -1.875,-1.757813 -0.20508,0 -0.46875,-0.703125 0.49805,-0.292968 0.70312,-0.820312 -0.38086,-0.351563 -0.58593,-0.351563 l -0.82032,0.117188 -0.11718,-0.234375 V 88.164062 Q 99.191406,87.8125 99.191406,86.992187 98.898437,86.875 98.253906,85.820312 v -0.117187 q 0,-0.08789 0.585938,-0.585938 v -0.46875 q 0,-0.175781 -0.351563,-0.351562 h -0.117187 q -0.322266,0 -0.703125,2.578125 l -0.9375,0.9375 q 0.234375,0.380859 0.234375,0.703125 0,0.234375 -0.234375,0.234375 h -0.820313 q 0,0.175781 -0.234375,0.46875 v 0.117187 l 0.820313,0.703125 q -0.615235,2.373047 -1.40625,3.046875 -0.117188,0 -0.117188,0.117188 l 0.234375,0.820312 Q 94.035156,94.140625 94.035156,94.375 v 0.351562 l 0.585938,0.585938 v 0.117187 q 0,0.615235 -0.351563,0.703125 -0.703125,-0.585937 -0.820312,-0.585937 -0.175782,0 -0.585938,0.46875 0.205078,0.585937 0.703125,0.585937 0.0293,-0.234375 0.234375,-0.234375 h 0.234375 q 0.234375,0.0293 0.234375,0.234375 -0.292969,1.640625 -1.289062,1.640625 h -0.117188 q -0.234375,0 -0.234375,-0.234375 l 0.234375,-0.351562 v -0.351563 q 0,-0.175781 -0.351562,-0.351562 h -0.234375 q -0.175782,0 -0.351563,0.351562 v 0.234375 l 0.351563,0.46875 v 0.351563 h -0.351563 q -0.380859,0 -1.640625,0.234375 l -0.117187,-0.234375 v -0.117188 l 0.351562,-0.46875 V 97.65625 q -0.117187,-0.351563 -0.703125,-0.351563 -0.175781,0 -0.351562,0.351563 v 0.234375 q 0.46875,0.527344 0.46875,0.585937 0,0.205079 -2.109375,0.46875 L 87.707031,98.710937 88.058594,98.125 v -0.117188 q -0.234375,-0.46875 -0.703125,-0.46875 -0.351563,0.38086 -0.351563,0.585938 l 0.46875,0.585937 v 0.117188 q 0,0.205078 -1.992187,0.46875 -0.117188,-0.234375 -0.117188,-0.351563 0.234375,-0.380859 0.234375,-0.703125 -0.46875,-0.234375 -0.46875,-0.351562 -0.46875,0.175781 -0.46875,0.351562 v 0.351563 l 0.351563,0.46875 q 0,0.175781 -0.351563,0.351562 h -0.46875 q -0.117187,0 -0.117187,-0.117187 -0.38086,0.234375 -0.703125,0.234375 h -0.234375 q -0.234375,0 -0.234375,-0.234375 l 0.234375,-0.351563 V 98.59375 q -0.117188,-0.351563 -0.703125,-0.351563 -0.234375,0.38086 -0.234375,0.585938 l 0.351562,0.585937 v 0.234375 l -0.585937,0.117188 q -0.117188,0 -0.351563,-0.117188 -0.439453,0.234375 -0.9375,0.234375 -0.234375,0 -0.234375,-0.234375 l 0.351563,-0.585937 -0.46875,-0.585938 v -0.234375 q 0,-0.175781 0.351562,-0.351562 0.439453,0.351562 0.820313,0.351562 0.351562,-0.46875 0.351562,-0.703125 -0.820312,-0.46875 -0.820312,-0.585937 0,-0.410156 0.703125,-1.289063 h -0.234375 q -0.175782,0 -1.054688,0.234375 l -0.117187,-0.234375 q 0.0293,-0.585937 0.234375,-0.585937 -0.175782,-0.585938 -0.703125,-0.585938 -0.351563,0.38086 -0.351563,0.585938 0,0.117187 0.46875,0.703125 0,0.234375 -2.109375,0.351562 v -0.117187 q 0,-0.08789 0.234375,-0.703125 -0.117187,-0.46875 -0.703125,-0.46875 -0.234375,0.46875 -0.351562,0.46875 0,0.117187 0.46875,0.703125 0,0.175781 -0.351563,0.351562 h -0.46875 q -0.117187,0 -0.117187,-0.117187 -0.439453,0.234375 -0.9375,0.234375 -0.234375,0 -0.234375,-0.234375 v -0.117188 l 0.234375,-0.351562 v -0.234375 q 0,-0.05859 -0.46875,-0.585938 0.175781,-0.46875 0.351562,-0.46875 h 0.117188 q 0.46875,0.351563 0.703125,0.351563 L 76.691406,94.375 v -0.117188 q 0,-0.175781 -0.820312,-0.703125 V 93.4375 l 1.875,-3.632813 q 0,-0.05859 0.703125,-0.703125 L 78.332031,88.28125 q 1.171875,-0.351563 1.171875,-0.9375 -0.234375,0 -0.234375,-0.234375 v -0.46875 q 0.0293,-0.234375 0.234375,-0.234375 h 0.117188 q 0.292968,0.234375 0.46875,0.234375 0.46875,-0.117188 0.46875,-0.703125 -0.146485,0 -0.585938,-0.585938 V 85 q 0,-0.175781 0.351563,-0.351563 0.527343,0.46875 0.585937,0.46875 h 0.351563 Q 81.613281,85 81.613281,84.414062 q -0.9375,-0.410156 -0.9375,-0.585937 0,-0.820313 1.640625,-3.046875 0,-1.054688 0.820313,-1.054688 0.234375,-0.380859 0.234375,-0.703125 -0.234375,0 -0.234375,-0.234375 v -0.117187 q 0,-0.205078 1.054687,-0.351563 0.117188,-0.351562 0.234375,-0.351562 0,-0.117188 -0.585937,-0.820313 V 77.03125 q 0,-0.175781 0.351562,-0.351563 h 0.234375 l 0.585938,0.351563 0.351562,-0.46875 v -0.351563 l -0.703125,-0.46875 V 75.625 q 0.585938,-1.40625 0.703125,-2.578125 0.820313,0 0.820313,-0.46875 v -0.117188 q 0,-0.322265 -1.289063,-0.46875 0,-1.02539 -1.171875,-1.289062 -1.640625,-1.875 -1.640625,-2.34375 h 0.585938 q 0.351562,-0.117188 0.351562,-0.703125 l -0.351562,-0.234375 h -0.351563 q -0.146484,0 -0.585937,0.820312 -0.146485,0 -0.585938,-0.585937 v -0.234375 l 0.585938,-0.703125 q 0,-0.175781 -0.46875,-0.46875 -0.38086,0 -0.820313,0.351562 h -0.117187 q -0.234375,0 -0.234375,-0.234375 0.117187,-0.644531 0.117187,-0.9375 L 79.738281,65.195312 79.035156,65.3125 78.800781,64.960937 78.917969,64.375 q -0.439453,-0.322266 -1.171875,-0.46875 0,-0.234375 -2.695313,-3.046875 v -0.46875 q 0.703125,-0.08789 0.703125,-0.703125 -0.439453,-0.351563 -0.703125,-0.351563 -0.322265,0.703125 -0.46875,0.703125 h -0.117187 q -0.292969,0 -0.46875,-0.820312 0.175781,0 0.351562,-0.351563 v -0.234375 q 0,-0.175781 -0.46875,-0.351562 -0.380859,0.234375 -0.703125,0.234375 -0.234375,0 -0.351562,-1.289063 -0.351563,0 -0.351563,-0.117187 l -0.234375,0.117187 h -0.234375 l -1.054687,-1.40625 0.351562,-0.234375 h 0.351563 q 0.263672,0 0.46875,0.117188 0.585937,-0.351563 0.9375,-0.351563 h 0.117187 q 0.117188,0 0.117188,0.117188 0.380859,-0.234375 0.703125,-0.234375 l 0.820312,0.117187 q 0,-0.234375 0.703125,-0.351562 l 0.234375,0.117187 q 0.38086,-0.234375 0.703125,-0.234375 L 77.277344,55 q 0,-0.175781 1.640625,-0.46875 l 0.585937,0.117187 q 0.175781,-0.234375 4.570313,-0.703125 l 0.234375,0.117188 q 0.205078,-0.117188 0.46875,-0.117188 0.175781,0 0.351562,0.351563 v 0.585937 q 0.615235,0 1.289063,1.640625 -0.9375,0.322266 -0.9375,0.585938 v 0.117187 q 0.234375,0.46875 0.703125,0.46875 0,-0.175781 0.46875,-0.46875 h 0.234375 q 0.234375,0 0.234375,0.46875 0.498047,-0.351562 2.695312,-0.351562 0.292969,0 0.46875,0.9375 0.615235,0.263672 1.171875,1.289062 v 0.234375 l -0.9375,0.703125 q 0.08789,0.351563 0.703125,0.585938 0,-0.175781 0.585938,-0.46875 h 0.117187 q 0.234375,0.0293 0.234375,0.234375 v 0.351562 L 91.925781,61.5625 v 0.117187 q 0,0.322266 1.171875,0.46875 l 0.234375,0.585938 h 0.117188 V 62.617187 L 93.097656,62.03125 v -0.351563 q 0,-0.234375 0.351563,-0.234375 0.380859,0.234375 0.585937,0.234375 0.46875,-0.117187 0.46875,-0.703125 -0.46875,-0.234375 -0.46875,-0.351562 l -0.234375,0.117187 h -0.117187 q -0.234375,0 -0.234375,-0.234375 v -0.234375 q 0,-0.820312 0.703125,-1.523437 v -0.234375 l -0.117188,-0.585938 q 0.38086,-0.292968 1.054688,-0.351562 v -0.585938 l -0.46875,-0.46875 q 0.08789,-0.703125 0.351562,-0.703125 h 0.234375 q 0,0.46875 0.703125,0.585938 l 0.351563,-0.46875 q -0.146485,-0.585938 -0.351563,-0.585938 l -0.820312,0.117188 -0.117188,-0.234375 q 0,-0.908203 0.9375,-1.875 L 95.792969,52.65625 q 0,-0.263672 0.585937,-0.351563 v 0.117188 q 0.732422,-0.46875 2.226563,-0.46875 l 0.234375,0.117187 q 0.615234,-0.351562 1.171876,-0.351562 v 0.117187 q 0.46875,-0.234375 0.82031,-0.234375 l 0.70313,0.117188 q 0,-0.205078 0.70312,-0.351563 l 0.23438,0.117188 Q 102.94141,51.25 103.17578,51.25 q 0.46875,0.117187 0.82031,0.117187 0,-0.175781 1.64063,-0.46875 l 0.70312,0.117188 q 0.26368,-0.205078 3.28125,-0.585938 z m -2.22656,0.703125 q -0.35156,0.38086 -0.35156,0.585938 0.17578,0.46875 0.35156,0.46875 h 0.23438 q 0.17578,0 0.35156,-0.351563 v -0.351562 q 0,-0.263672 -0.58594,-0.351563 z m -2.57812,0.351563 q 0,0.175781 -0.23438,0.46875 v 0.117187 q 0,0.175782 0.46875,0.46875 h 0.11719 q 0.46875,-0.234375 0.46875,-0.703125 l -0.46875,-0.351562 z m -2.34375,0.351562 -0.35157,0.46875 v 0.117188 l 0.46875,0.46875 q 0.52735,-0.234375 0.58594,-0.46875 V 52.1875 q -0.11719,-0.351563 -0.70312,-0.351563 z m -2.34375,0.234375 -0.351566,0.46875 0.117187,0.585938 h 0.703129 l 0.11718,-0.585938 q -0.0586,-0.234375 -0.58593,-0.46875 z m -2.812504,0.9375 q 0.175781,0.46875 0.351563,0.46875 h 0.351562 q 0.234375,0 0.234375,-0.234375 v -0.351562 q 0,-0.175781 -0.46875,-0.46875 -0.234375,0.05859 -0.46875,0.585937 z m 8.671874,-0.117187 v 0.351562 q 0,0.234375 0.70313,0.351563 0.35156,-0.46875 0.35156,-0.703125 -0.38086,-0.351563 -0.58594,-0.351563 -0.46875,0.175782 -0.46875,0.351563 z m -2.46094,0.46875 q 0.20508,0.585937 0.70313,0.585937 0.35156,-0.46875 0.35156,-0.703125 -0.23437,0 -0.23437,-0.351562 h -0.46875 q -0.17578,0 -0.35157,0.46875 z m -2.46093,0.46875 q 0.0586,0 0.58593,0.46875 0.17579,0 0.46875,-0.46875 V 53.59375 q 0,-0.175781 -0.35156,-0.351563 h -0.35156 q -0.20508,0 -0.35156,0.585938 z m -2.343754,0.351562 q 0,0.146485 0.585938,0.46875 l 0.351562,-0.46875 v -0.46875 q -0.46875,0 -0.46875,-0.234375 -0.46875,0.117188 -0.46875,0.703125 z m -2.460937,0.234375 q 0.117187,0.46875 0.703125,0.46875 l 0.351562,-0.46875 v -0.117187 q -0.05859,-0.234375 -0.585937,-0.46875 -0.46875,0.117187 -0.46875,0.585937 z m 8.671871,0 v 0.234375 Q 105.05078,55 105.63672,55 l 0.35156,-0.46875 v -0.117188 q 0,-0.175781 -0.35156,-0.351562 h -0.35156 q -0.17578,0 -0.35157,0.351562 z m -21.914059,0 q 0,0.205079 -0.351562,0.585938 0,0.175781 0.46875,0.46875 h 0.234375 q 0.175781,0 0.351562,-0.351563 v -0.46875 q -0.175781,0 -0.46875,-0.234375 z m 19.453129,0.351563 V 55 q 0,0.234375 0.70312,0.351562 0,-0.234375 0.35156,-0.234375 v -0.351562 q 0,-0.175781 -0.35156,-0.351563 h -0.35156 q -0.17578,0 -0.35156,0.351563 z m 9.72656,0.117187 v 0.351563 q 0,0.351562 0.46875,0.351562 0.46875,-0.117187 0.46875,-0.703125 l -0.46875,-0.351562 h -0.11719 q -0.17578,0 -0.35156,0.351562 z m -31.875001,0.351563 v 0.234375 q 0,0.175781 0.351562,0.351562 h 0.234375 q 0.117188,0 0.46875,-0.46875 -0.234375,-0.527343 -0.46875,-0.585937 h -0.117187 q -0.175782,0 -0.46875,0.46875 z M 100.12891,55 v 0.351562 q 0,0.263672 0.58593,0.351563 0.35157,-0.380859 0.35157,-0.585938 -0.11719,-0.234375 -0.11719,-0.351562 h -0.58594 Q 100.12891,54.794922 100.12891,55 Z m 9.84375,-0.117188 q -0.35157,0.439454 -0.35157,0.703125 0.46875,0.234375 0.46875,0.351563 0.52735,0 0.70313,-0.703125 -0.43945,-0.351563 -0.82031,-0.351563 z m -12.304691,0.820313 0.585937,0.351562 q 0,-0.234375 0.351563,-0.234375 v -0.46875 q 0,-0.292968 -0.46875,-0.351562 -0.46875,0.117187 -0.46875,0.703125 z M 78.097656,55.117187 q 0,0.175782 -0.234375,0.46875 v 0.117188 q 0,0.175781 0.46875,0.46875 0.585938,-0.205078 0.585938,-0.703125 l -0.46875,-0.351563 z m 29.179684,0.46875 v 0.234375 q 0,0.175782 0.35157,0.351563 h 0.46875 q 0,-0.175781 0.23437,-0.46875 -0.23437,-0.46875 -0.58594,-0.46875 -0.46875,0.175781 -0.46875,0.351562 z M 75.636719,55.46875 q 0,0.175781 -0.234375,0.46875 v 0.117187 q 0,0.175782 0.351562,0.351563 h 0.351563 q 0.175781,0 0.351562,-0.351563 V 55.820312 Q 76.339844,55.46875 75.753906,55.46875 Z m 8.4375,0.703125 0.46875,0.351562 h 0.117187 q 0.175781,0 0.46875,-0.46875 V 55.9375 q -0.234375,-0.46875 -0.585937,-0.46875 -0.46875,0.117187 -0.46875,0.703125 z m -10.664063,-0.46875 q -0.46875,0.527344 -0.46875,0.585937 0,0.175782 0.46875,0.46875 h 0.234375 q 0.117188,0 0.46875,-0.46875 -0.05859,-0.351562 -0.703125,-0.585937 z m 8.554688,0.117187 q -0.234375,0.46875 -0.351563,0.46875 0.205078,0.585938 0.703125,0.585938 l 0.351563,-0.46875 v -0.234375 q -0.117188,-0.351563 -0.703125,-0.351563 z m 29.062496,0.820313 q 0.46875,0.351562 0.70313,0.351562 l 0.35156,-0.46875 v -0.234375 q 0,-0.175781 -0.35156,-0.351562 -0.70313,0 -0.70313,0.703125 z m -11.718746,-0.585938 -0.351563,0.46875 q 0.175781,0.46875 0.351563,0.46875 h 0.117187 L 100.01172,56.875 v -0.46875 q -0.117189,-0.351563 -0.703126,-0.351563 z m -20.15625,0.585938 q 0.08789,0.322266 0.585937,0.585937 h 0.117188 q 0.46875,-0.234375 0.46875,-0.703125 l -0.46875,-0.351562 h -0.234375 q -0.117188,0 -0.46875,0.46875 z M 108.68359,56.40625 V 56.875 q 0.0586,0.234375 0.58594,0.46875 l 0.35156,-0.46875 v -0.234375 q 0,-0.175781 -0.35156,-0.351563 z m -12.070309,0.351562 0.117188,0.585938 h 0.46875 q 0.234375,-0.05859 0.46875,-0.585938 l -0.46875,-0.351562 h -0.234375 q -0.175782,0 -0.351563,0.351562 z M 76.808594,56.875 v 0.234375 q 0.234375,0.46875 0.703125,0.46875 0.351562,-0.46875 0.351562,-0.703125 l -0.46875,-0.351563 h -0.234375 q -0.175781,0 -0.351562,0.351563 z m -2.34375,0.234375 v 0.585937 l 0.585937,0.117188 q 0.351563,-0.117188 0.351563,-0.703125 -0.46875,-0.234375 -0.46875,-0.351563 -0.46875,0.175782 -0.46875,0.351563 z m 32.460936,-0.351563 q 0,0.46875 -0.46875,0.46875 v 0.117188 q 0,0.234375 0.35156,0.234375 0.23438,-0.117188 0.35157,-0.117188 v -0.703125 z m -23.906249,0.9375 0.703125,0.351563 0.351563,-0.46875 V 57.34375 q 0,-0.175781 -0.351563,-0.351563 -0.703125,0 -0.703125,0.703125 z m -2.34375,-0.234375 v 0.703125 q 0.615235,0.117188 0.703125,0.117188 l 0.234375,-0.351563 v -0.234375 q 0,-0.175781 -0.351562,-0.351562 z m 17.34375,0.585938 q 0.175781,0.46875 0.351563,0.46875 h 0.234375 q 0.175781,0 0.351562,-0.351563 0,-0.585937 -0.46875,-0.703125 -0.46875,0.117188 -0.46875,0.585938 z m 11.953129,0 q 0.43945,0.351562 0.82031,0.351562 l 0.35156,-0.585937 q -0.23437,0 -0.23437,-0.351563 h -0.58594 q -0.26367,0 -0.35156,0.585938 z m -31.757816,0.117187 q 0.117187,0.46875 0.703125,0.46875 0.234375,-0.46875 0.351562,-0.46875 -0.175781,-0.46875 -0.351562,-0.46875 h -0.351563 q -0.292969,0 -0.351562,0.46875 z m 9.960937,-0.351562 -0.351562,0.46875 v 0.234375 q 0.117187,0.351562 0.703125,0.351562 l 0.351562,-0.46875 V 58.28125 Q 88.644531,57.8125 88.175781,57.8125 Z m 7.617188,0 q 0,0.175781 -0.234375,0.46875 v 0.117187 q 0,0.175782 0.46875,0.46875 h 0.117187 q 0.175781,0 0.351563,-0.351562 V 58.164062 Q 96.378906,57.8125 95.792969,57.8125 Z m 11.835941,0.234375 v 0.351562 q 0.11718,0.351563 0.70312,0.351563 0.35156,-0.46875 0.35156,-0.703125 L 108.33203,57.8125 h -0.46875 q -0.23437,0.0293 -0.23437,0.234375 z m -31.875004,0.585937 q 0.46875,0.351563 0.703125,0.351563 0.351563,-0.380859 0.351563,-0.585938 -0.117188,-0.234375 -0.117188,-0.351562 h -0.585937 q -0.263672,0 -0.351563,0.585937 z m 23.554688,0.585938 0.46875,0.351562 q 0,-0.322265 0.585936,-0.351562 v -0.234375 q 0,-0.175781 -0.468749,-0.46875 -0.585937,0.175781 -0.585937,0.703125 z m 9.726566,-0.117188 v 0.351563 q 0,0.175781 0.46875,0.351562 0.46875,-0.117187 0.46875,-0.703125 0,-0.117187 -0.46875,-0.351562 -0.46875,0.175781 -0.46875,0.351562 z M 89.230469,59.21875 v 0.351562 q 0.117187,0.351563 0.703125,0.351563 l 0.234375,-0.351563 V 59.21875 q 0,-0.292969 -0.46875,-0.351563 -0.46875,0.175782 -0.46875,0.351563 z m 7.734375,0 v 0.351562 q 0.117187,0.351563 0.703125,0.351563 0.351562,-0.46875 0.351562,-0.703125 -0.380859,-0.351563 -0.585937,-0.351563 -0.46875,0.175782 -0.46875,0.351563 z m 9.609376,0.234375 0.11719,0.585937 h 0.58593 q 0.23438,0 0.23438,-0.234375 v -0.351562 q 0,-0.175781 -0.46875,-0.351563 -0.46875,0.175782 -0.46875,0.351563 z M 94.503906,59.6875 q 0.205078,0.585937 0.703125,0.585937 l 0.234375,-0.351562 V 59.804687 L 95.324219,59.21875 h -0.46875 q -0.175782,0 -0.351563,0.46875 z m -7.734375,-0.117188 v 0.234375 h 0.117188 v -0.234375 z m 17.343749,0.234375 v 0.234375 h 0.11719 v -0.234375 z m -19.804686,0.117188 v 0.234375 h 0.117187 v -0.234375 z m 26.367186,0 -0.35156,0.46875 v 0.117187 q 0.0586,0.234375 0.58594,0.46875 0.46875,-0.175781 0.46875,-0.351562 v -0.351563 q -0.11719,-0.351562 -0.70313,-0.351562 z m -12.304686,0.46875 0.117187,0.585937 h 0.46875 q 0.175781,0 0.351563,-0.351562 v -0.234375 q 0,-0.175781 -0.351563,-0.351563 h -0.234375 q -0.175781,0 -0.351562,0.351563 z m 9.960936,-0.234375 -0.35156,0.46875 v 0.234375 q 0.0586,0.234375 0.58594,0.46875 0.46875,-0.585938 0.46875,-0.703125 -0.58594,-0.46875 -0.70313,-0.46875 z m -31.874999,0.234375 q -0.351562,0.439453 -0.351562,0.820312 0.46875,0.234375 0.46875,0.351563 0.585937,-0.175781 0.585937,-0.820313 z m 19.453125,0.703125 0.351563,0.234375 0.585937,-0.117188 V 60.625 q 0,-0.234375 -0.234375,-0.234375 h -0.351562 q -0.351563,0.117187 -0.351563,0.703125 z m 9.960934,-0.585938 q -0.35156,0.38086 -0.35156,0.585938 0.17578,0.46875 0.35156,0.46875 h 0.46875 q 0.23438,-0.644531 0.23438,-0.703125 -0.43945,-0.351563 -0.70313,-0.351563 z m -8.203121,0.820313 -0.351563,0.46875 v 0.234375 q 0,0.175781 0.351563,0.351562 h 0.46875 q 0,-0.205078 0.234375,-0.585937 -0.585938,-0.46875 -0.703125,-0.46875 z M 109.38672,61.5625 v 0.351562 q 0.0586,0.234375 0.58594,0.46875 l 0.35156,-0.46875 v -0.234375 q 0,-0.175781 -0.35156,-0.351562 h -0.35157 q -0.23437,0.0293 -0.23437,0.234375 z m -19.804689,0.234375 v 0.234375 q 0.263672,0 0.703125,0.351562 l 0.234375,-0.351562 v -0.234375 q 0,-0.175781 -0.351562,-0.351563 h -0.234375 q -0.175782,0 -0.351563,0.351563 z m -12.070312,0.117187 v 0.234375 q 0,0.117188 0.46875,0.46875 0.322265,-0.08789 0.585937,-0.585937 v -0.117188 q -0.585937,0 -0.585937,-0.351562 h -0.117188 q -0.175781,0 -0.351562,0.351562 z m 29.414061,0.351563 q 0.0586,0.234375 0.58594,0.46875 l 0.35156,-0.46875 q 0,-0.585938 -0.46875,-0.703125 -0.46875,0.117187 -0.46875,0.703125 z M 95.207031,61.679687 q -0.351562,0.38086 -0.351562,0.585938 0.175781,0.46875 0.351562,0.46875 l 0.585938,-0.117188 v -0.234375 q 0,-0.644531 -0.585938,-0.703125 z m 9.492189,0.234375 q 0,0.175782 -0.23438,0.46875 v 0.351563 q 0.17579,0 0.46875,0.234375 h 0.11719 q 0.17578,0 0.46875,-0.46875 v -0.117188 q 0,-0.175781 -0.46875,-0.46875 z M 87.121094,62.03125 v 0.234375 h 0.117187 V 62.03125 Z m -2.460938,0.351562 v 0.234375 h 0.117188 v -0.234375 z m 6.210938,0.703125 q 0.205078,0.46875 0.820312,0.46875 l 0.234375,-0.351562 v -0.46875 q -0.175781,0 -0.46875,-0.234375 h -0.117187 q -0.146485,0 -0.46875,0.585937 z M 78.917969,62.96875 q 0.08789,0.703125 0.351562,0.703125 h 0.234375 q 0.234375,0 0.234375,-0.234375 -0.585937,0 -0.585937,-0.703125 -0.234375,0.0293 -0.234375,0.234375 z m 29.648441,-0.234375 -0.23438,0.351562 V 63.4375 q 0,0.175781 0.46875,0.351562 l 0.58594,-0.46875 q -0.17578,-0.585937 -0.82031,-0.585937 z M 96.496094,62.851562 96.144531,63.4375 q 0.527344,0.46875 0.585938,0.46875 0.46875,-0.175781 0.46875,-0.351563 v -0.351562 q -0.117188,-0.351563 -0.703125,-0.351563 z m 9.374996,0.585938 q 0,0.498047 0.46875,0.703125 0.32227,-0.08789 0.58594,-0.585938 0,-0.175781 -0.46875,-0.46875 h -0.23437 q -0.17578,0 -0.35157,0.351563 z M 94.152344,63.203125 q 0,0.234375 -0.234375,0.234375 0.351562,0.527344 0.351562,0.703125 h 0.234375 q 0.351563,-0.117188 0.351563,-0.703125 -0.38086,-0.234375 -0.703125,-0.234375 z m 9.257816,0.703125 q 0.17578,0.46875 0.35156,0.46875 h 0.35156 q 0.23438,0 0.23438,-0.234375 v -0.46875 q 0,-0.234375 -0.23438,-0.234375 h -0.35156 q -0.11719,0 -0.35156,0.46875 z m -5.742191,0.351562 v 0.351563 q 0,0.175781 0.46875,0.351562 L 98.722656,64.375 q -0.292969,0 -0.351562,-0.46875 -0.703125,0.05859 -0.703125,0.351562 z m 9.843751,-0.117187 -0.23438,0.351562 0.11719,0.585938 h 0.58594 q 0.23437,0 0.23437,-0.234375 v -0.351563 q -0.11718,-0.351562 -0.70312,-0.351562 z m -12.304689,0.46875 v 0.234375 q 0,0.117187 0.46875,0.46875 0.46875,-0.175781 0.46875,-0.351563 V 64.84375 l -0.117187,-0.585938 h -0.46875 q -0.175782,0 -0.351563,0.351563 z m 9.609379,0.234375 v 0.234375 q 0,0.175781 0.35156,0.351562 h 0.35156 q 0.17578,0 0.35156,-0.46875 -0.11718,-0.46875 -0.70312,-0.46875 -0.17578,0 -0.35156,0.351563 z M 87.472656,64.609375 v 0.234375 h 0.117188 V 64.609375 Z M 102.35547,65.3125 q 0.17578,0.46875 0.35156,0.46875 h 0.35156 q 0.35157,-0.117188 0.35157,-0.703125 l -0.23438,-0.117188 h -0.11719 q -0.70312,0.263672 -0.70312,0.351563 z m -5.859376,0.703125 0.46875,0.351562 h 0.234375 q 0.175781,0 0.351562,-0.351562 v -0.351563 q 0,-0.234375 -0.234375,-0.234375 h -0.351562 q -0.234375,0.05859 -0.46875,0.585938 z m 9.726566,0 V 66.25 q 0,0.175781 0.35156,0.351562 h 0.23437 q 0.23438,-0.05859 0.46875,-0.585937 l -0.58593,-0.46875 q -0.17578,0 -0.46875,0.46875 z m -2.10938,-0.117188 q -0.23437,0.46875 -0.35156,0.46875 0.23437,0.38086 0.23437,0.585938 h 0.11719 l 0.58594,-0.117188 V 66.25 q 0,-0.263672 -0.58594,-0.351563 z m -9.023436,0.234375 v 0.234375 h 0.117187 v -0.234375 z m 6.796876,0.9375 V 67.1875 h 0.35156 q 0.11719,-0.410156 0.11719,-0.46875 h -0.11719 q -0.17578,0 -0.35156,0.351562 z m 3.28125,0.585938 q 0.11719,0.351562 0.70312,0.351562 0.35157,-0.46875 0.35157,-0.703125 -0.38086,-0.351562 -0.58594,-0.351562 -0.46875,0.117187 -0.46875,0.703125 z m -2.46094,0.351562 q 0.46875,0.351563 0.70313,0.351563 0.35156,-0.46875 0.35156,-0.703125 -0.38086,-0.351563 -0.58594,-0.351563 -0.46875,0.117188 -0.46875,0.703125 z M 85.363281,67.421875 v 0.234375 h 0.117188 v -0.234375 z m -1.640625,0.9375 q -0.351562,0.380859 -0.351562,0.585937 0.117187,0.46875 0.585937,0.46875 0.46875,-0.117187 0.46875,-0.585937 -0.117187,0 -0.703125,-0.46875 z m 20.390624,0.585937 q 0.17578,0.46875 0.35156,0.46875 h 0.23438 q 0.17578,0 0.35156,-0.351562 l -0.11719,-0.585938 h -0.46875 q -0.17578,0 -0.35156,0.46875 z M 95.441406,68.59375 v 0.234375 h 0.117188 V 68.59375 Z m 6.210934,0.703125 q 0.11719,0.46875 0.70313,0.46875 0,-0.234375 0.35156,-0.234375 0,-0.615234 -0.35156,-0.703125 h -0.35156 q -0.17578,0 -0.35157,0.46875 z m 4.21875,0.117187 q 0,0.175782 -0.46875,0.46875 0.23438,0.527344 0.46875,0.585938 h 0.23438 q 0.17578,0 0.35156,-0.351563 v -0.46875 q -0.20508,0 -0.58594,-0.234375 z M 84.777344,70 v 0.117187 q 0,0.175782 0.46875,0.46875 h 0.117187 Q 85.597656,70.527344 85.832031,70 q -0.703125,0 -0.703125,-0.351563 -0.175781,0 -0.351562,0.351563 z m 18.632816,-0.234375 q -0.35157,0.380859 -0.35157,0.585937 0.17579,0.46875 0.35157,0.46875 h 0.23437 q 0.46875,-0.234375 0.46875,-0.703125 -0.43945,-0.351562 -0.70312,-0.351562 z m -2.46094,0.351562 -0.23438,0.351563 v 0.351562 q 0,0.351563 0.46875,0.351563 0.23438,-0.117188 0.35157,-0.117188 V 70.46875 q 0,-0.263672 -0.58594,-0.351563 z m 3.51562,1.40625 q 0.17579,0.46875 0.35157,0.46875 h 0.23437 q 0.17578,0 0.35156,-0.351562 v -0.351563 q 0,-0.175781 -0.35156,-0.351562 h -0.23437 q -0.26368,0 -0.35157,0.585937 z m -18.281246,-0.46875 v 0.351563 h 0.234375 q -0.117188,-0.234375 -0.117188,-0.351563 z m 15.820316,0.9375 0.46875,0.351563 q 0.17578,0 0.58593,-0.46875 -0.0586,-0.585938 -0.70312,-0.585938 -0.35156,0.117188 -0.35156,0.703125 z m 1.40625,0.703125 v 0.234375 q 0.23437,0.46875 0.70312,0.46875 0.35156,-0.46875 0.35156,-0.703125 l -0.46875,-0.351562 h -0.23437 q -0.17578,0 -0.35156,0.351562 z m -2.10938,0 V 72.8125 q 0.17578,0 0.46875,0.234375 h 0.11719 v -0.117188 q 0,-0.234375 -0.23438,-0.234375 z M 86.535156,73.515625 V 73.75 q 0,0.351562 0.46875,0.351562 0.46875,-0.175781 0.46875,-0.351562 v -0.46875 l -0.585937,-0.117188 q -0.175782,0 -0.351563,0.351563 z M 96.027344,73.75 v 0.234375 h 0.117187 V 73.75 Z m 6.328126,0.585937 q 0.58594,0 0.58594,0.351563 h 0.11718 q 0.23438,0 0.23438,-0.234375 v -0.351563 q 0,-0.234375 -0.23438,-0.234375 h -0.35156 q -0.17578,0 -0.35156,0.46875 z M 88.175781,74.21875 q -0.351562,0.439453 -0.351562,0.703125 0.380859,0.351562 0.585937,0.351562 0.46875,-0.175781 0.46875,-0.351562 V 74.570312 Q 88.761719,74.21875 88.175781,74.21875 Z m -2.460937,0.351562 -0.351563,0.46875 q 0.0293,0.322266 0.585938,0.585938 0.585937,-0.205078 0.585937,-0.703125 -0.439453,-0.351563 -0.820312,-0.351563 z m 18.398436,0.234375 q 0,0.234375 -0.35156,0.234375 v 0.351563 q 0,0.175781 0.46875,0.46875 0.17578,0 0.58594,-0.46875 -0.17578,-0.585938 -0.70313,-0.585938 z m -14.882811,0.9375 v 0.117188 q 0.234375,0.46875 0.703125,0.46875 l 0.351562,-0.46875 v -0.117188 q 0,-0.175781 -0.46875,-0.46875 h -0.117187 q -0.175782,0 -0.46875,0.46875 z m -2.34375,0 v 0.703125 q 0.175781,0 0.46875,0.234375 0.175781,0 0.46875,-0.46875 v -0.234375 q 0,-0.175781 -0.351563,-0.351562 z m 9.492187,0.46875 v 0.234375 q 0.234375,0 0.234375,-0.234375 z m -7.96875,0.585938 q 0,0.175781 -0.234375,0.46875 0.117188,0.46875 0.703125,0.46875 0.175781,0 0.351563,-0.351563 v -0.234375 q 0,-0.175781 -0.351563,-0.351562 z m -2.695312,0.9375 q 0.439453,0.351562 0.820312,0.351562 l 0.351563,-0.46875 q 0,-0.175781 -0.46875,-0.585937 -0.527344,0 -0.703125,0.703125 z m 3.867187,0.46875 V 78.4375 q 0.0293,0.234375 0.234375,0.234375 l 0.46875,-0.820313 q -0.117187,0 -0.117187,-0.117187 -0.527344,0.234375 -0.585938,0.46875 z m -2.34375,0.234375 v 0.351562 q 0,0.175782 0.351563,0.351563 h 0.234375 q 0.175781,0 0.351562,-0.351563 v -0.234375 q 0,-0.117187 -0.46875,-0.46875 -0.46875,0.175782 -0.46875,0.351563 z m -2.460937,0.351562 v 0.351563 q 0,0.175781 0.351562,0.351562 h 0.234375 q 0.175781,0 0.351563,-0.351562 v -0.351563 q 0,-0.175781 -0.46875,-0.351562 -0.46875,0.175781 -0.46875,0.351562 z m 11.953125,0 v 0.234375 h 0.117187 v -0.234375 z m -7.851563,0.46875 -0.351562,0.46875 v 0.117188 q 0,0.175781 0.46875,0.46875 l 0.585937,-0.46875 v -0.234375 q -0.117187,-0.351563 -0.703125,-0.351563 z m -2.460937,0.351563 q -0.234375,0.46875 -0.351563,0.46875 0.175781,0.46875 0.351563,0.46875 h 0.585937 q 0,-0.205078 0.234375,-0.585938 -0.439453,-0.351562 -0.820312,-0.351562 z m 21.328121,0.117187 v 0.234375 h 0.11719 V 79.726562 Z M 84.074219,79.84375 83.722656,80.3125 v 0.234375 q 0,0.175781 0.351563,0.351562 h 0.46875 q 0,-0.205078 0.234375,-0.585937 -0.585938,-0.46875 -0.703125,-0.46875 z m 22.734371,0 v 0.351562 h 0.11719 V 79.84375 Z m -13.476559,0.703125 v 0.351562 q 0.38086,0.234375 0.703125,0.234375 l 0.234375,-0.351562 h -0.117187 l -0.585938,0.117187 q -0.117187,-0.234375 -0.117187,-0.351562 z m -5.859375,0.585937 q 0.205078,0.585938 0.703125,0.585938 L 88.527344,81.25 v -0.234375 q 0,-0.175781 -0.351563,-0.351563 h -0.351562 q -0.117188,0 -0.351563,0.46875 z m 20.859374,-0.117187 q 0.58594,0 0.58594,0.585937 h 0.23437 l 0.11719,-0.585937 -0.46875,-0.351563 h -0.11719 q -0.17578,0 -0.35156,0.351563 z m -23.203124,0.351562 v 0.234375 q 0,0.175782 0.351563,0.351563 h 0.234375 q 0.175781,0 0.351562,-0.351563 l -0.117187,-0.585937 h -0.46875 q -0.175782,0 -0.351563,0.351562 z m 9.960938,-0.234375 q -0.46875,0.527344 -0.46875,0.585938 0,0.175781 0.46875,0.46875 h 0.234375 q 0.175781,0 0.351562,-0.351563 -0.146484,-0.498046 -0.585937,-0.703125 z M 97.082031,81.25 v 0.234375 h 0.117188 V 81.25 Z m -14.414062,0.46875 v 0.234375 q 0.117187,0.351562 0.703125,0.351562 l 0.351562,-0.46875 V 81.71875 q 0,-0.175781 -0.351562,-0.351563 h -0.351563 q -0.175781,0 -0.351562,0.351563 z m 10.3125,-0.117188 q -0.117188,0.820313 -0.117188,0.9375 0.117188,0 0.46875,-0.46875 -0.175781,-0.46875 -0.351562,-0.46875 z m 16.640621,0.820313 q 0.46875,0 0.46875,0.351562 h 0.11719 q 0.11719,0 0.46875,-0.46875 -0.23437,-0.527343 -0.46875,-0.585937 h -0.23437 q -0.35157,0.117187 -0.35157,0.703125 z M 86.417969,82.773437 Q 86.857422,83.125 87.238281,83.125 l 0.234375,-0.351563 v -0.351562 q 0,-0.234375 -0.234375,-0.234375 h -0.46875 q -0.263672,0 -0.351562,0.585937 z M 89.816406,82.1875 v 0.234375 h 0.117188 V 82.1875 Z m 17.343754,0.234375 v 0.234375 h 0.11718 V 82.421875 Z M 84.074219,82.773437 V 83.125 q 0,0.175781 0.46875,0.351562 0.46875,-0.175781 0.46875,-0.351562 v -0.351563 q 0,-0.234375 -0.234375,-0.234375 h -0.46875 q -0.234375,0.0293 -0.234375,0.234375 z m 9.84375,-0.117187 -0.351563,0.585937 q 0.527344,0.46875 0.585938,0.46875 0.585937,-0.205078 0.585937,-0.703125 -0.439453,-0.351562 -0.820312,-0.351562 z m -12.304688,0.585937 q 0,0.175782 0.46875,0.585938 0.585938,-0.205078 0.585938,-0.703125 -0.38086,-0.351563 -0.585938,-0.351563 -0.380859,0.117188 -0.46875,0.46875 z m 14.53125,-0.46875 v 0.234375 q 0,0.175782 0.351563,0.351563 h 0.351562 v -0.117188 q -0.439453,0 -0.703125,-0.46875 z m 14.882809,0.46875 v 0.234375 q 0,0.146485 0.58594,0.46875 0,-0.05859 0.46875,-0.585937 -0.11719,-0.46875 -0.70312,-0.46875 -0.17578,0 -0.35157,0.351562 z m -25.546871,0.585938 v 0.351562 q 0.0293,0.234375 0.234375,0.234375 h 0.46875 q 0.234375,0 0.234375,-0.234375 v -0.351562 q 0,-0.175781 -0.46875,-0.351563 -0.46875,0.175782 -0.46875,0.351563 z m 9.492187,0.585937 q 0.439453,0.351563 0.820313,0.351563 0,-0.205078 0.351562,-0.585938 0,-0.175781 -0.46875,-0.46875 h -0.234375 q -0.46875,0.234375 -0.46875,0.703125 z M 82.902344,84.296875 q 0.117187,0.46875 0.703125,0.46875 h 0.117187 q 0.351563,-0.117188 0.351563,-0.703125 -0.38086,-0.234375 -0.703125,-0.234375 -0.175782,0 -0.46875,0.46875 z m 9.726562,0.117187 v 0.234375 q 0,0.117188 0.46875,0.46875 Q 93.566406,85 93.566406,84.414062 v -0.117187 q 0,-0.234375 -0.234375,-0.234375 h -0.351562 q -0.175782,0 -0.351563,0.351562 z m 7.734374,0.117188 v 0.234375 h 0.11719 V 84.53125 Z m -15.585936,0.351562 -0.351563,0.46875 v 0.234375 q 0,0.175782 0.351563,0.351563 h 0.46875 q 0,-0.205078 0.234375,-0.585938 -0.585938,-0.46875 -0.703125,-0.46875 z m 11.71875,0.234375 v 0.351563 q 0,0.351562 0.46875,0.351562 0.46875,-0.175781 0.46875,-0.351562 v -0.234375 q 0,-0.175781 -0.351563,-0.351563 h -0.351562 q -0.234375,0.0293 -0.234375,0.234375 z m 11.015626,-0.234375 v 0.351563 h 0.11719 v -0.351563 z m -25.195314,0.351563 q -0.351562,0.380859 -0.351562,0.585937 0.175781,0.46875 0.351562,0.46875 h 0.351563 q 0.117187,0 0.351562,-0.46875 -0.175781,-0.585937 -0.703125,-0.585937 z m 11.835938,0 q 0,0.205078 -0.234375,0.585937 0.439453,0.351563 0.820312,0.351563 0,-0.175781 0.351563,-0.351563 -0.146485,-0.585937 -0.351563,-0.585937 z m 5.15625,0.9375 v 0.117187 q 0.175781,0 0.46875,0.234375 h 0.117187 l 0.468749,-0.351562 q -0.11719,-0.703125 -0.585936,-0.703125 -0.46875,0.117187 -0.46875,0.703125 z M 91.574219,85.9375 v 0.234375 q 0.117187,0.351562 0.703125,0.351562 l 0.351562,-0.46875 V 85.9375 q 0,-0.175781 -0.351562,-0.351563 h -0.351563 q -0.175781,0 -0.351562,0.351563 z m -5.859375,0.703125 0.234375,0.117187 0.234375,-0.703125 h -0.117188 q -0.205078,0 -0.351562,0.585938 z m 10.078125,-0.46875 q -0.46875,0.380859 -0.46875,0.703125 0.380859,0.351562 0.585937,0.351562 0.46875,-0.175781 0.46875,-0.351562 v -0.46875 q -0.205078,0 -0.585937,-0.234375 z m -12.1875,0.117187 -0.351563,0.585938 q 0.205078,0.46875 0.820313,0.46875 L 84.425781,86.875 V 86.757812 Q 84.25,86.289062 83.605469,86.289062 Z m 9.375,0.9375 q 0,0.175782 0.46875,0.351563 0.46875,-0.175781 0.46875,-0.351563 V 86.875 q 0,-0.117188 -0.46875,-0.351563 -0.46875,0.117188 -0.46875,0.703125 z m 7.968751,-0.703125 -0.23438,0.351563 v 0.351562 q 0,0.175782 0.46875,0.351563 0.32227,-0.08789 0.58594,-0.585938 -0.17578,-0.46875 -0.82031,-0.46875 z m -20.039064,0.46875 v 0.46875 q 0.175781,0 0.46875,0.234375 h 0.117188 q 0.175781,0 0.46875,-0.46875 v -0.117187 q 0,-0.175781 -0.46875,-0.46875 h -0.234375 q -0.175782,0 -0.351563,0.351562 z M 90.988281,87.8125 h 0.234375 q 0.175781,0 0.351563,-0.46875 -0.117188,-0.234375 -0.117188,-0.351563 -0.175781,0 -0.46875,0.820313 z m -0.46875,-0.585938 v 0.234375 h 0.117188 V 87.226562 Z M 84.777344,87.8125 v 0.351562 q 0.0293,0.234375 0.234375,0.234375 h 0.117187 q 0,-0.351562 0.585938,-0.351562 V 87.8125 q 0,-0.175781 -0.351563,-0.351563 h -0.234375 q -0.175781,0 -0.351562,0.351563 z m 23.085936,-0.351563 v 0.234375 h 0.11719 V 87.460937 Z M 88.058594,87.578125 V 87.8125 h 0.117187 v -0.234375 z m 26.367186,0 v 0.117187 q 0.58594,0.08789 0.58594,0.585938 h 0.11719 v -0.351563 q 0,-0.175781 -0.35157,-0.351562 z M 94.269531,88.28125 q 0.527344,0.46875 0.585938,0.46875 0.46875,-0.175781 0.46875,-0.351563 v -0.351562 q 0,-0.175781 -0.351563,-0.351563 h -0.234375 q -0.234375,0.05859 -0.46875,0.585938 z m 7.851559,-0.234375 0.11719,0.585937 h 0.58594 q 0.23437,0 0.23437,-0.234375 v -0.234375 q -0.58593,0 -0.58593,-0.46875 -0.17578,0 -0.35157,0.351563 z m -19.804684,0.117187 v 0.234375 q 0,0.117188 0.46875,0.46875 0.46875,-0.175781 0.46875,-0.351562 v -0.351563 q 0,-0.175781 -0.351562,-0.351562 h -0.234375 q -0.175782,0 -0.351563,0.351562 z m 9.609375,0.234375 v 0.234375 q 0,0.175782 0.351563,0.351563 h 0.351562 q 0.351563,-0.117188 0.351563,-0.703125 l -0.585938,-0.351563 q -0.175781,0 -0.46875,0.46875 z m -12.070312,0.46875 0.351562,0.234375 h 0.351563 q 0.175781,0 0.351562,-0.46875 -0.175781,-0.46875 -0.351562,-0.46875 h -0.351563 q -0.351562,0.117188 -0.351562,0.703125 z m 35.976561,-0.234375 q 0,0.234375 -0.35156,0.234375 v 0.351563 q 0.58594,0 0.58594,0.351562 h 0.11718 q 0.35157,-0.117187 0.35157,-0.703125 -0.38086,-0.234375 -0.70313,-0.234375 z m -31.874999,0.234375 -0.351562,0.46875 q 0,0.175782 0.46875,0.46875 h 0.234375 q 0.234375,-0.05859 0.46875,-0.585937 -0.439453,-0.351563 -0.820313,-0.351563 z m 9.492188,0.234375 -0.117188,0.585938 q 0,0.175781 0.351563,0.351562 h 0.234375 q 0.175781,0 0.351562,-0.351562 v -0.234375 q 0,-0.175781 -0.351562,-0.351563 z m -12.1875,0.46875 v 0.234375 q 0,0.175782 0.351562,0.351563 h 0.234375 q 0.117188,0 0.46875,-0.46875 -0.117187,-0.46875 -0.703125,-0.46875 -0.175781,0 -0.351562,0.351562 z m -2.34375,0.234375 v 0.46875 q 0.0293,0.234375 0.234375,0.234375 0.498047,0 0.703125,-0.46875 0,-0.175781 -0.46875,-0.585937 -0.46875,0.175781 -0.46875,0.351562 z m 12.070312,-0.351562 -0.117187,0.585937 q 0,0.175782 0.351562,0.351563 h 0.234375 q 0.175781,0 0.46875,-0.46875 Q 91.75,89.453125 91.574219,89.453125 Z M 117.23828,89.6875 q -0.35156,0.439453 -0.35156,0.703125 0.23437,0 0.23437,0.351562 h 0.46875 q 0.17579,0 0.35157,-0.46875 -0.17578,-0.585937 -0.70313,-0.585937 z m -9.02344,0.234375 v 0.351562 h 0.11719 v -0.351562 z m -13.593746,0.9375 0.46875,0.351562 h 0.234375 q 0.175781,0 0.351562,-0.351562 v -0.351563 q 0,-0.175781 -0.46875,-0.351562 -0.585937,0.175781 -0.585937,0.703125 z m 7.851566,-0.351563 q 0,0.585938 0.46875,0.703125 0.46875,-0.175781 0.46875,-0.351562 0,-0.703125 -0.46875,-0.703125 -0.46875,0.175781 -0.46875,0.351562 z m -19.804691,0.351563 q 0.175781,0.46875 0.351562,0.46875 h 0.234375 q 0.175781,0 0.351563,-0.351563 v -0.46875 q -0.175782,0 -0.46875,-0.234375 -0.46875,0.234375 -0.46875,0.585938 z m 9.609375,0 v 0.351562 q 0.117187,0.351563 0.703125,0.351563 0.351562,-0.46875 0.351562,-0.703125 l -0.585937,-0.351563 q -0.46875,0.175782 -0.46875,0.351563 z M 80.441406,90.625 q 0,0.175781 -0.234375,0.46875 v 0.117187 q 0,0.175782 0.46875,0.46875 0.585938,-0.205078 0.585938,-0.703125 Q 80.822266,90.625 80.441406,90.625 Z m 9.375,0.585937 v 0.234375 l 0.46875,0.46875 q 0.585938,-0.205078 0.585938,-0.703125 -0.38086,-0.351562 -0.585938,-0.351562 -0.46875,0.175781 -0.46875,0.351562 z m -11.71875,-0.234375 -0.351562,0.46875 V 91.5625 q 0,0.175781 0.351562,0.351562 h 0.351563 q 0.175781,0 0.351562,-0.351562 V 91.328125 Q 78.683594,90.976562 78.097656,90.976562 Z M 115.83203,91.5625 v 0.351562 q 0.64453,0.234375 0.70313,0.234375 l 0.35156,-0.46875 V 91.5625 q 0,-0.117188 -0.46875,-0.46875 -0.52734,0.234375 -0.58594,0.46875 z m -2.34375,0 v 0.585937 q 0,0.263672 0.58594,0.351563 0.35156,-0.380859 0.35156,-0.585938 -0.17578,-0.46875 -0.35156,-0.46875 z m -19.570311,0 -0.234375,0.351562 v 0.351563 q 0,0.351562 0.46875,0.351562 0.46875,-0.175781 0.46875,-0.351562 V 91.914062 Q 94.503906,91.5625 93.917969,91.5625 Z m -12.304688,0.46875 v 0.351562 q 0,0.234375 0.703125,0.351563 0.351563,-0.46875 0.351563,-0.703125 -0.38086,-0.351563 -0.585938,-0.351563 -0.46875,0.175782 -0.46875,0.351563 z m 29.414059,0.117187 v 0.234375 q 0,0.175782 0.46875,0.46875 0.17579,0 0.46875,-0.46875 l -0.11718,-0.585937 h -0.46875 q -0.17578,0 -0.35157,0.351562 z M 91.457031,91.914062 91.222656,92.265625 V 92.5 q 0,0.175781 0.351563,0.351562 h 0.351562 q 0.08789,0 0.351563,-0.351562 -0.175782,-0.585938 -0.820313,-0.585938 z M 79.152344,92.5 q 0,0.175781 0.46875,0.585937 0.585937,-0.205078 0.585937,-0.703125 -0.234375,0 -0.234375,-0.351562 h -0.46875 q -0.175781,0 -0.351562,0.46875 z m 29.414066,0 v 0.234375 q 0,0.117187 0.46875,0.46875 0.32226,-0.08789 0.58593,-0.585938 -0.11718,-0.46875 -0.70312,-0.46875 -0.17578,0 -0.35156,0.351563 z m 8.67187,0.117187 v 0.234375 q 0,0.117188 0.46875,0.46875 0.32227,0 0.58594,-0.585937 -0.17578,-0.46875 -0.35156,-0.46875 h -0.35157 q -0.17578,0 -0.35156,0.351562 z M 76.691406,92.96875 q 0.527344,0.46875 0.585938,0.46875 0.46875,-0.234375 0.46875,-0.585938 -0.175782,-0.46875 -0.351563,-0.46875 h -0.351562 q -0.205078,0 -0.351563,0.585938 z m 12.773438,-0.585938 q 0,0.351563 -0.234375,0.351563 H 89.113281 L 88.761719,92.5 v 0.46875 q 0.175781,0 0.46875,0.234375 h 0.234375 Q 89.816406,93.085937 89.816406,92.5 l -0.234375,-0.117188 z m 25.312496,0.9375 q 0.38086,0.234375 0.70313,0.234375 0.17578,0 0.35156,-0.351562 V 92.96875 q 0,-0.175781 -0.35156,-0.351563 h -0.35156 q -0.35157,0.117188 -0.35157,0.703125 z M 92.980469,92.96875 92.628906,93.4375 v 0.234375 q 0,0.175781 0.351563,0.351562 h 0.234375 q 0.117187,0 0.46875,-0.46875 Q 93.625,93.203125 92.980469,92.96875 Z m 19.335941,0.46875 q 0.11718,0.46875 0.70312,0.46875 0.17578,0 0.35156,-0.351563 v -0.234375 q 0,-0.175781 -0.35156,-0.351562 h -0.35156 q -0.11719,0 -0.35156,0.46875 z m -31.757816,0.117187 v 0.234375 q 0.117187,0.351563 0.703125,0.351563 l 0.351562,-0.46875 q -0.175781,-0.46875 -0.351562,-0.46875 h -0.351563 q -0.175781,0 -0.351562,0.351562 z m 9.960937,-0.234375 -0.351562,0.46875 v 0.234375 q 0,0.175782 0.351562,0.351563 h 0.234375 q 0.46875,-0.234375 0.46875,-0.703125 -0.439453,-0.351563 -0.703125,-0.351563 z m 19.453129,0.234375 v 0.351563 q 0.11718,0.351562 0.70312,0.351562 l 0.35156,-0.585937 q -0.23437,0 -0.23437,-0.351563 h -0.58594 q -0.23437,0.0293 -0.23437,0.234375 z M 78.097656,93.90625 v 0.234375 q 0.117188,0.351562 0.703125,0.351562 0,-0.234375 0.351563,-0.234375 V 93.90625 q 0,-0.175781 -0.351563,-0.351563 h -0.351562 q -0.175782,0 -0.351563,0.351563 z m 29.414064,0.117187 q 0.23437,0.527344 0.46875,0.585938 h 0.11719 q 0.17578,0 0.35156,-0.351563 V 93.90625 q 0,-0.292969 -0.46875,-0.351563 -0.17578,0 -0.46875,0.46875 z m 14.29687,-0.117187 h 0.46875 v 0.117187 q 0,0.234375 -0.23437,0.234375 h -0.23438 z M 81.964844,94.375 v 0.234375 q 0.234375,0 0.234375,-0.234375 z m 9.726562,0.117187 -0.117187,0.585938 q 0.117187,0.351562 0.703125,0.351562 l 0.234375,-0.351562 v -0.351563 q 0,-0.234375 -0.234375,-0.234375 z m -2.226562,0.234375 -0.351563,0.46875 v 0.351563 q 0.175781,0 0.46875,0.234375 h 0.117188 q 0.175781,0 0.46875,-0.46875 v -0.117188 q -0.234375,-0.46875 -0.703125,-0.46875 z m -2.8125,0.820313 q 0.205078,0.585937 0.703125,0.585937 l 0.351562,-0.46875 v -0.117187 q -0.234375,-0.46875 -0.585937,-0.46875 -0.38086,0.117187 -0.46875,0.46875 z m -2.34375,0 v 0.46875 q 0.05859,0.234375 0.585937,0.46875 l 0.351563,-0.46875 V 95.78125 q 0,-0.175781 -0.351563,-0.351563 z m -2.460938,0.46875 v 0.351562 q 0.05859,0.234375 0.585938,0.46875 l 0.351562,-0.46875 v -0.351562 q 0,-0.234375 -0.234375,-0.234375 h -0.46875 q -0.234375,0.0293 -0.234375,0.234375 z M 90.519531,96.25 v 0.46875 q 0.46875,0.0293 0.46875,0.234375 0.322266,-0.08789 0.585938,-0.585938 0,-0.175781 -0.46875,-0.46875 h -0.234375 q -0.175782,0 -0.351563,0.351563 z M 74.699219,96.132812 h 0.117187 q 0.234375,0.0293 0.234375,0.234375 0,0.234375 -0.234375,0.234375 l -0.117187,-0.234375 z m 13.359375,0.585938 q 0.117187,0.46875 0.703125,0.46875 0.175781,0 0.351562,-0.46875 Q 88.9375,96.25 88.761719,96.25 h -0.351563 q -0.175781,0 -0.351562,0.46875 z m -2.460938,0.46875 0.46875,0.351562 h 0.234375 q 0.175781,0 0.351563,-0.351562 l -0.117188,-0.585938 h -0.585937 q -0.263672,0 -0.351563,0.585938 z m -2.34375,0 v 0.351562 q 0.117188,0.351563 0.703125,0.351563 0.234375,-0.46875 0.351563,-0.46875 -0.117188,-0.46875 -0.703125,-0.46875 h -0.117188 q -0.234375,0.0293 -0.234375,0.234375 z m -3.28125,2.34375 q 0.234375,0.0293 0.234375,0.234375 0,0.234375 -0.234375,0.234375 -0.234375,0 -0.234375,-0.234375 0.0293,-0.234375 0.234375,-0.234375 z" />
      <path
         id="path26"
         style="font-family:'CHANEY Extended';letter-spacing:0.075em"
         d="m 184.40266,58 h -57.18 v 11.58 h 21.96 V 100 h 13.2 V 69.58 h 22.02 z" />
      <path
         id="path28"
         style="font-family:'CHANEY Extended';letter-spacing:0.075em"
         d="M 245.10672,69.4 V 58 h -50.22 v 42 h 50.22 V 88.6 h -37.02 v -4.08 h 32.94 V 73.6 h -32.94 v -4.2 z" />
      <path
         id="path30"
         style="font-family:'CHANEY Extended';letter-spacing:0.075em"
         d="m 305.85672,58 -18.42,16.44 -18.9,-16.44 h -12.9 v 42 h 12.9 V 75.64 l 18.9,16.38 18.42,-16.2 V 100 h 12.9 V 58 Z" />
      <path
         id="path32"
         style="font-family:'CHANEY Extended';letter-spacing:0.075em"
         d="m 368.15734,58 h -38.88 v 42 h 13.2 v -9.6 h 25.68 c 10.74,0 17.82,-7.26 17.82,-16.2 0,-8.94 -7.08,-16.2 -17.82,-16.2 z m 0,20.82 h -25.68 v -9.24 h 25.68 c 2.52,0 4.62,2.04 4.62,4.62 0,2.58 -2.1,4.62 -4.62,4.62 z" />
      <path
         id="path34"
         style="font-family:'CHANEY Extended';letter-spacing:0.075em"
         d="m 433.22078,57.28 h -16.08 c -13.44,0 -23.04,8.76 -23.04,21.72 0,13.02 9.9,21.72 23.04,21.72 h 16.08 c 13.44,0 23.04,-8.7 23.04,-21.72 0,-12.96 -9.6,-21.72 -23.04,-21.72 z m 0,31.14 h -16.08 c -5.7,0 -9.6,-4.02 -9.6,-9.42 0,-5.34 3.9,-9.42 9.6,-9.42 h 16.08 c 5.7,0 9.6,4.08 9.6,9.42 0,5.4 -3.9,9.42 -9.6,9.42 z" />
      <path
         id="path36"
         style="font-family:'CHANEY Extended';letter-spacing:0.075em"
         d="m 465.54297,100 h 13.26 v -9.6 h 21.48 l 5.7,9.6 h 15.3 l -7.68,-11.76 c 5.4,-2.76 8.64,-8.04 8.64,-14.04 0,-8.94 -7.08,-16.2 -17.82,-16.2 h -38.88 z m 13.26,-21.18 v -9.24 h 25.62 c 2.52,0 4.62,2.04 4.62,4.62 0,2.58 -2.1,4.62 -4.62,4.62 z" />
      <path
         id="path38"
         style="font-family:'CHANEY Extended';letter-spacing:0.075em"
         d="m 578.47516,100 h 13.38 l -11.1,-42 h -40.02 l -11.1,42 h 13.32 l 1.74,-6.66 h 32.04 z m -30.78,-18.36 3.12,-12.06 h 19.74 l 3.12,12.06 z" />
      <path
         id="path40"
         style="font-family:'CHANEY Extended';letter-spacing:0.075em"
         d="M 645.17359,58 V 82.72 L 612.89359,58 h -12.96 v 42 h 12.96 V 75.1 l 32.28,24.9 h 12.96 V 58 Z" />
      <path
         id="path42"
         style="font-family:'CHANEY Extended';letter-spacing:0.075em"
         d="M 718.87234,69.4 V 58 h -50.22 v 42 h 50.22 V 88.6 h -37.02 v -4.08 h 32.94 V 73.6 h -32.94 v -4.2 z" />
      <path
         id="path44"
         style="font-family:'CHANEY Extended';letter-spacing:0.075em"
         d="m 775.84234,100 h 13.38 l -11.1,-42 h -40.02 l -11.1,42 h 13.32 l 1.74,-6.66 h 32.04 z m -30.78,-18.36 3.12,-12.06 h 19.74 l 3.12,12.06 z" />
    </g>
  </g>
</svg>
