<?xml version="1.0" encoding="UTF-8" standalone="no"?>
<svg
   xmlns:dc="http://purl.org/dc/elements/1.1/"
   xmlns:cc="http://creativecommons.org/ns#"
   xmlns:rdf="http://www.w3.org/1999/02/22-rdf-syntax-ns#"
   xmlns:svg="http://www.w3.org/2000/svg"
   xmlns="http://www.w3.org/2000/svg"
   id="svg16"
   width="800px"
   version="1.1"
   height="200px">
  <metadata
     id="metadata20">
    <rdf:RDF>
      <cc:Work
         rdf:about="">
        <dc:format>image/svg+xml</dc:format>
        <dc:type
           rdf:resource="http://purl.org/dc/dcmitype/StillImage" />
      </cc:Work>
    </rdf:RDF>
  </metadata>
  <defs
     id="defs4">
    <style
       id="style2"
       type="text/css"><![CDATA[    
     @font-face {font-family:CHASE ZEN SPRAWL;
     src: url('/Users/francesco/Repos/write-logos/src/fonts/CHASEZENSPRAWL.ttf');}
     @font-face {font-family:GREEN HOME;
     src: url('/Users/francesco/Repos/write-logos/src/fonts/GREEN_HOME_Demo.ttf');}
     ]]></style>
  </defs>
  <g
     id="g14"
     style="font-size:60px">
    <g
       style="text-anchor:middle"
       id="text12"
       aria-label="eXtemporanea">
      <path
         id="path22"
         style="font-family:'CHASE ZEN SPRAWL'"
         d="m 274.92906,87.82 q -1.02,-0.36 -1.8,-1.56 -0.84,-1.26 -1.08,-2.76 -0.24,-1.56 0.36,-3.06 0.54,-1.5 2.28,-2.4 1.38,-0.6 2.7,-0.72 1.14,-0.12 2.4,0.24 1.32,0.36 2.34,1.74 l 0.3,-1.5 q 0.12,-0.66 0.36,-1.44 0.24,-0.84 0.6,-1.68 l -1.26,0.6 0.36,-1.38 q 1.98,-1.68 4.2,-2.4 2.28,-0.72 4.14,-0.54 1.92,0.18 3.24,1.2 1.32,0.96 1.5,2.64 -1.92,1.56 -3.6,3.3 -1.44,1.5 -2.94,3.36 -1.44,1.86 -2.28,3.72 0.18,0.18 0.48,0.18 0.3,0 0.6,-0.12 0.3,-0.12 0.72,-0.3 l 0.24,0.96 q -2.34,1.26 -3.9,1.38 -1.5,0.12 -2.4,-0.3 -0.9,-0.48 -1.32,-1.14 -0.36,-0.72 -0.42,-1.2 l 0.36,-1.62 q 0.06,-0.9 -0.48,-1.2 -0.48,-0.36 -1.08,-0.18 -0.6,0.12 -1.14,0.66 -0.48,0.54 -0.36,1.38 0.12,1.02 0.6,1.8 0.42,0.66 1.14,1.32 0.72,0.66 2.04,0.78 0.24,0.84 0,1.44 -0.24,0.54 -0.66,0.84 -0.48,0.36 -1.2,0.54 l -1.26,-0.06 q 0.66,2.52 1.2,3.96 0.54,1.44 1.02,2.22 0.54,0.9 1.02,1.26 0.78,0.48 1.44,0.24 0.72,-0.24 1.14,-0.84 0.48,-0.6 0.6,-1.44 0.18,-0.9 -0.12,-1.68 -0.3,-0.84 -1.2,-1.38 -0.84,-0.6 -2.34,-0.72 0.48,-1.62 1.38,-2.46 0.9,-0.9 1.98,-1.14 1.14,-0.3 2.34,-0.12 1.2,0.18 2.22,0.54 2.22,0.84 2.94,2.82 0.78,1.92 -0.12,4.02 -0.84,2.04 -3.3,3.72 -2.46,1.68 -6.66,2.04 -1.92,0.12 -3.72,-0.3 -1.74,-0.42 -3.24,-1.26 -1.44,-0.9 -2.46,-2.1 -1.08,-1.26 -1.5,-2.76 -0.42,-1.5 -0.18,-2.58 0.18,-1.14 0.78,-1.98 0.6,-0.84 1.44,-1.44 0.78,-0.6 1.56,-1.14 z" />
      <path
         id="path24"
         style="font-family:'GREEN HOME'"
         d="m 295.29297,99.824219 v 0 l 11.01562,-25.664063 -6.38672,-16.02539 h 1.49415 l 5.68359,14.208984 6.09375,-14.208984 h 1.52344 l -6.91407,16.02539 10.25391,25.664063 h -1.49414 l -9.52148,-23.847657 -10.25391,23.847657 z" />
      <path
         id="path26"
         style="font-family:'CHASE ZEN SPRAWL'"
         d="m 318.66625,82.6 -0.24,0.78 q -1.98,-0.24 -2.94,-0.96 -0.96,-0.78 -1.26,-1.68 -0.3,-0.96 -0.06,-1.92 0.18,-0.96 0.54,-1.62 3.6,-2.28 7.98,-3.9 4.44,-1.62 8.4,-2.64 4.62,-1.14 9.24,-1.92 0.72,0.48 1.08,1.68 0.36,1.14 0.3,2.58 0,1.44 -0.54,2.94 -0.48,1.5 -1.56,2.76 -1.08,1.2 -2.76,1.98 -1.62,0.72 -3.96,0.6 l 0.12,-0.78 q 0.66,-0.12 1.02,-0.48 0.36,-0.36 0.54,-0.66 0.24,-0.36 0.3,-0.78 -0.72,-0.42 -1.62,-0.48 -0.9,-0.12 -1.74,-0.06 -0.96,0.06 -1.92,0.3 -0.18,3.72 0.3,6.96 0.54,3.18 1.2,5.7 0.78,2.88 1.8,5.34 0.72,-0.06 1.14,-0.3 l 0.36,-0.18 0.6,0.6 q -0.84,1.38 -2.22,2.16 -1.32,0.72 -2.58,1.14 -1.5,0.48 -3.12,0.6 -1.08,-1.14 -1.92,-2.64 -0.84,-1.5 -1.56,-3.12 -0.66,-1.62 -1.2,-3.3 -0.48,-1.74 -0.84,-3.3 -0.9,-3.72 -1.32,-7.68 -1.38,0.48 -1.86,0.96 -0.24,0.24 -0.36,0.48 -0.06,0.18 0,0.36 0.06,0.12 0.18,0.24 0.12,0.12 0.48,0.24 z" />
      <path
         id="path28"
         style="font-family:'CHASE ZEN SPRAWL'"
         d="m 339.15445,87.82 q -1.02,-0.36 -1.8,-1.56 -0.84,-1.26 -1.08,-2.76 -0.24,-1.56 0.36,-3.06 0.54,-1.5 2.28,-2.4 1.38,-0.6 2.7,-0.72 1.14,-0.12 2.4,0.24 1.32,0.36 2.34,1.74 l 0.3,-1.5 q 0.12,-0.66 0.36,-1.44 0.24,-0.84 0.6,-1.68 l -1.26,0.6 0.36,-1.38 q 1.98,-1.68 4.2,-2.4 2.28,-0.72 4.14,-0.54 1.92,0.18 3.24,1.2 1.32,0.96 1.5,2.64 -1.92,1.56 -3.6,3.3 -1.44,1.5 -2.94,3.36 -1.44,1.86 -2.28,3.72 0.18,0.18 0.48,0.18 0.3,0 0.6,-0.12 0.3,-0.12 0.72,-0.3 l 0.24,0.96 q -2.34,1.26 -3.9,1.38 -1.5,0.12 -2.4,-0.3 -0.9,-0.48 -1.32,-1.14 -0.36,-0.72 -0.42,-1.2 l 0.36,-1.62 q 0.06,-0.9 -0.48,-1.2 -0.48,-0.36 -1.08,-0.18 -0.6,0.12 -1.14,0.66 -0.48,0.54 -0.36,1.38 0.12,1.02 0.6,1.8 0.42,0.66 1.14,1.32 0.72,0.66 2.04,0.78 0.24,0.84 0,1.44 -0.24,0.54 -0.66,0.84 -0.48,0.36 -1.2,0.54 l -1.26,-0.06 q 0.66,2.52 1.2,3.96 0.54,1.44 1.02,2.22 0.54,0.9 1.02,1.26 0.78,0.48 1.44,0.24 0.72,-0.24 1.14,-0.84 0.48,-0.6 0.6,-1.44 0.18,-0.9 -0.12,-1.68 -0.3,-0.84 -1.2,-1.38 -0.84,-0.6 -2.34,-0.72 0.48,-1.62 1.38,-2.46 0.9,-0.9 1.98,-1.14 1.14,-0.3 2.34,-0.12 1.2,0.18 2.22,0.54 2.22,0.84 2.94,2.82 0.78,1.92 -0.12,4.02 -0.84,2.04 -3.3,3.72 -2.46,1.68 -6.66,2.04 -1.92,0.12 -3.72,-0.3 -1.74,-0.42 -3.24,-1.26 -1.44,-0.9 -2.46,-2.1 -1.08,-1.26 -1.5,-2.76 -0.42,-1.5 -0.18,-2.58 0.18,-1.14 0.78,-1.98 0.6,-0.84 1.44,-1.44 0.78,-0.6 1.56,-1.14 z" />
      <path
         id="path30"
         style="font-family:'CHASE ZEN SPRAWL'"
         d="m 356.71654,82.72 q 0.9,-3.12 2.58,-5.7 1.74,-2.64 3.72,-4.26 1.98,-1.62 3.9,-1.92 1.98,-0.3 3.3,1.2 -0.66,-0.3 -1.08,0.12 -0.36,0.36 -0.54,0.96 -0.24,0.72 -0.3,1.74 0,1.08 0.12,2.58 0.12,1.26 0.36,3.18 0.24,1.86 0.84,4.26 0.12,-2.34 0.9,-4.38 0.78,-2.1 1.98,-3.84 1.26,-1.74 2.76,-3.12 1.56,-1.44 3.18,-2.58 3.72,-2.64 8.4,-4.38 -0.72,0 -1.26,0.78 -0.54,0.72 -0.9,1.98 -0.3,1.26 -0.48,2.88 -0.18,1.56 -0.24,3.24 -0.24,3.9 0.06,8.82 0.06,1.02 0.3,2.64 0.18,1.38 0.54,3.66 0.42,2.28 1.08,5.64 0.42,0.84 0.96,0.96 0.6,0.06 1.08,-0.12 0.6,-0.24 1.2,-0.78 0.48,2.1 -0.18,3.36 -0.6,1.2 -1.56,1.86 -1.08,0.72 -2.64,1.02 -1.62,0.18 -2.88,-0.42 -1.2,-0.6 -2.1,-1.68 -0.9,-1.08 -1.5,-2.4 -0.54,-1.32 -0.96,-2.52 -0.36,-1.26 -0.54,-2.22 -0.18,-0.96 -0.24,-1.26 -0.06,-0.48 -0.3,-2.1 -0.24,-1.62 -0.48,-3.54 -0.24,-1.98 -0.42,-3.78 -0.18,-1.86 -0.12,-2.76 -0.96,2.52 -1.26,4.98 -0.3,2.46 -0.3,4.44 0,2.34 0.24,4.44 -1.02,0.96 -1.44,1.14 -0.3,0.18 -0.54,0.24 -0.24,0.06 -0.66,-0.18 -0.42,-0.24 -0.96,-0.66 -0.48,-0.42 -1.02,-0.96 -0.48,-0.54 -0.9,-1.08 -0.42,-0.54 -1.08,-1.98 -0.66,-1.2 -1.68,-3.48 -1.02,-2.34 -2.64,-6.24 1.02,4.02 1.8,6.72 0.84,2.64 1.5,4.26 0.72,1.92 1.32,2.94 l 1.02,-1.2 q 1.2,1.14 1.02,1.98 -0.12,0.84 -0.78,1.38 -0.72,0.66 -2.04,1.08 -1.86,0.54 -3.18,0.12 -1.32,-0.42 -2.16,-1.26 -0.84,-0.9 -1.32,-1.92 -0.42,-1.02 -0.48,-1.68 -0.06,-0.6 -0.24,-1.92 -0.12,-1.14 -0.36,-3.06 -0.24,-1.98 -0.54,-5.1 -0.24,-0.42 -0.48,-0.48 -0.18,-0.12 -0.36,-0.06 -0.24,0.06 -0.36,0.3 z" />
      <path
         id="path32"
         style="font-family:'CHASE ZEN SPRAWL'"
         d="m 393.14409,77.8 q -0.42,0.18 -0.78,0.48 -0.36,0.3 -0.78,0.72 -0.36,0.36 -0.66,1.02 l -0.9,-0.18 q 0.6,-2.88 2.1,-4.56 1.56,-1.74 3.36,-2.4 1.8,-0.66 3.48,-0.36 1.74,0.3 2.7,1.44 -0.66,2.16 -1.26,4.68 -0.6,2.52 -0.42,5.04 0.24,2.52 1.56,4.86 1.38,2.28 4.56,4.02 -0.18,0.66 -0.6,1.5 -0.42,0.78 -1.02,1.56 -0.54,0.72 -1.32,1.32 -0.72,0.6 -1.56,0.84 -0.66,0.18 -1.56,0.18 -0.78,0 -1.92,-0.18 -1.08,-0.18 -2.46,-0.66 l 0.54,2.22 q -0.3,-0.24 -0.36,-0.24 0,0 0.12,0.12 l 0.36,0.36 q 0.3,0.24 0.66,0.24 0.78,0.12 1.92,-0.84 -0.54,1.56 -1.32,2.4 -0.72,0.84 -1.38,1.26 -0.78,0.48 -1.68,0.6 -1.08,0 -1.92,-0.6 -0.78,-0.54 -1.38,-1.38 -0.54,-0.78 -0.9,-1.68 -0.3,-0.9 -0.48,-1.56 -0.18,-0.66 -0.48,-2.28 -0.24,-1.62 -0.54,-3.36 -0.24,-1.8 -0.48,-3.24 -0.18,-1.5 -0.24,-1.8 -0.06,-0.24 -0.12,-0.3 -0.18,-0.18 -0.42,0.54 l -0.66,-0.9 q 0.72,-1.5 1.68,-2.76 0.84,-1.08 1.92,-2.1 1.08,-1.08 2.46,-1.5 z m 1.68,12 0.06,4.14 q 0.48,0 0.9,-0.24 0.36,-0.12 0.66,-0.42 0.36,-0.36 0.48,-0.96 l -1.8,-2.04 z" />
      <path
         id="path34"
         style="font-family:'CHASE ZEN SPRAWL'"
         d="m 415.49594,91.72 q 0.66,-0.6 0.9,-1.86 0.18,-1.08 -0.18,-2.88 -0.36,-1.86 -1.74,-4.8 -0.42,0.18 -0.9,0.3 -0.42,0.12 -1.02,0.24 -0.54,0.06 -1.26,0.06 h -0.9 q 0.06,1.8 0.42,3.66 0.42,1.86 1.08,3.24 0.72,1.38 1.62,2.04 0.9,0.66 1.98,0 z m -5.1,-13.92 q -0.42,0.36 -0.24,0.72 0.24,0.36 0.78,0.66 0.6,0.3 1.32,0.48 0.78,0.18 1.44,0.18 -0.84,-1.08 -1.44,-1.5 -0.6,-0.48 -1.02,-0.6 -0.48,-0.12 -0.84,0.06 z m 10.56,1.86 q 1.68,2.58 2.52,4.98 0.72,2.1 0.78,4.44 0.06,2.28 -1.5,4.02 l -3.66,3.06 q -1.5,1.26 -3.24,1.44 -1.74,0.12 -3.48,-0.54 -1.74,-0.66 -3.36,-1.98 -1.56,-1.32 -2.82,-2.94 -1.26,-1.68 -2.1,-3.48 -0.84,-1.86 -1.02,-3.54 -0.06,-1.26 0.18,-2.34 0.24,-0.9 0.84,-1.62 0.6,-0.78 1.92,-0.78 -0.36,-0.24 -0.6,-0.54 -0.18,-0.3 -0.24,-0.66 -0.06,-0.36 0.24,-0.84 -0.24,0.18 -0.48,0.42 -0.54,0.54 -0.84,1.5 l -1.44,-0.06 q 0.72,-2.88 2.82,-4.56 2.1,-1.74 4.8,-1.92 2.7,-0.18 5.52,1.26 2.88,1.38 5.16,4.68 z" />
      <path
         id="path36"
         style="font-family:'CHASE ZEN SPRAWL'"
         d="m 450.48719,108.82 q -1.14,0 -2.7,-0.24 -1.56,-0.24 -2.58,-1.14 -2.16,-1.92 -3.72,-4.32 -1.56,-2.4 -3.36,-4.74 l -0.12,0.3 q -0.48,1.26 -1.62,1.74 -1.08,0.54 -1.56,0.54 -0.18,0 -0.36,-0.06 -0.18,0 -0.36,0 -1.26,-0.18 -2.1,-1.02 -0.78,-0.9 -1.32,-2.46 -0.54,-1.62 -0.96,-3.78 -0.42,-2.22 -0.84,-5.04 -0.12,-0.48 -0.48,-0.36 -0.3,0.12 -0.54,0.3 l -0.36,0.36 -0.36,-1.26 q 1.26,-2.1 2.46,-3.3 1.2,-1.2 2.16,-1.86 1.08,-0.72 2.16,-1.02 l -0.12,-5.22 q -0.42,0.18 -1.32,0.78 -0.9,0.54 -1.2,1.26 l -0.72,-0.3 q 0.96,-2.52 2.4,-4.32 1.5,-1.8 3.3,-2.7 1.86,-0.96 3.9,-1.02 2.04,-0.06 4.2,0.84 -0.78,1.92 -1.56,4.2 -0.78,2.28 -1.2,4.56 -0.42,2.28 -0.36,4.38 0.06,2.1 0.96,3.72 0.48,0.9 1.2,1.44 0.72,0.48 1.32,0.78 0.66,0.24 1.14,0.36 0.48,0.06 0.48,0.06 l -0.72,1.74 q -1.68,3.12 -5.16,3.6 1.62,1.14 3.72,2.52 2.16,1.32 4.32,2.52 2.22,1.2 4.26,2.04 2.04,0.9 3.54,1.08 0.48,0.06 0.9,0 0.84,0 1.44,-0.42 -0.06,0.06 -0.78,0.9 -0.66,0.9 -1.8,1.86 -1.14,1.02 -2.64,1.86 -1.44,0.84 -2.94,0.84 z m -15.36,-15.12 q 0.06,0.48 0.06,1.14 0.06,0.66 0.12,1.32 0.06,0.6 0.06,1.08 0.06,0.48 0.12,0.66 v 0.06 q 0.06,0.06 0.18,0.36 0.12,0.24 0.48,0.24 0.18,0 0.54,-0.12 0.42,-0.12 0.72,-0.3 l 0.3,-0.24 q -0.72,-0.9 -1.44,-2.22 -0.66,-1.32 -1.14,-1.98 z m 0.06,-5.88 q -0.06,1.02 -0.06,1.92 0,0.84 0.18,2.4 0.54,0 1.32,-0.18 0.78,-0.24 1.26,-1.26 -0.6,-0.54 -1.38,-1.26 -0.78,-0.72 -1.32,-1.62 z" />
      <path
         id="path38"
         style="font-family:'CHASE ZEN SPRAWL'"
         d="m 460.69191,91.24 q 0.78,0.12 1.62,0.3 0.9,0.12 1.5,0.54 0.6,0.36 0.78,1.08 0.18,0.72 -0.36,1.98 -0.84,1.86 -2.1,3.12 -1.08,1.14 -2.76,1.86 -1.62,0.72 -3.84,0.12 l -1.68,-6 h -2.82 v 0.48 q -0.12,0.6 0,1.02 0.12,0.36 0.42,0.54 0.36,0.18 1.2,-0.12 l 0.3,1.2 q -1.02,0.78 -2.28,1.32 -1.08,0.48 -2.52,0.72 -1.44,0.18 -3.18,-0.3 l 6.24,-20.16 -0.12,-0.6 q -0.12,-0.54 -0.3,-0.42 l -2.88,3.18 q 2.4,-5.34 4.68,-7.68 2.34,-2.34 4.2,-2.82 1.92,-0.48 3.3,0.3 1.38,0.72 2.04,1.5 -0.9,3.06 -1.44,6.3 -0.48,2.76 -0.66,6.12 -0.12,3.3 0.66,6.42 z m -6.54,-0.06 -1.08,-3.6 q -0.48,1.08 -0.78,1.8 -0.3,0.66 -0.42,1.08 l -0.24,0.72 h 0.54 q 0.3,0 0.72,0.06 0.48,0 1.26,-0.06 z m 5.7,2.76 0.42,0.96 q 0.18,0.24 0.48,0.24 h 0.3 q 0.84,-0.12 1.08,-0.48 0.06,-0.12 -0.36,-0.48 -0.36,-0.36 -1.92,-0.24 z" />
      <path
         id="path40"
         style="font-family:'CHASE ZEN SPRAWL'"
         d="m 487.00567,94.42 q 0.06,1.5 -0.6,2.58 -0.6,1.02 -1.98,1.8 -1.38,0.78 -4.2,0.78 l -4.56,-4.68 q -1.26,-1.56 -2.4,-2.58 -1.08,-1.08 -1.92,-1.74 -0.96,-0.72 -1.74,-1.2 0.66,1.2 1.14,2.1 0.54,0.9 0.84,1.56 0.36,0.78 0.66,1.38 0.12,0.18 0.72,0.36 0.6,0.12 1.38,-0.84 l 1.32,0.96 q -0.24,1.08 -1.14,1.86 -0.78,0.72 -2.28,1.32 -1.5,0.54 -4.08,0.6 -1.62,-1.14 -2.64,-3.18 -1.02,-2.04 -1.62,-4.14 -0.6,-2.16 -0.84,-3.9 -0.18,-1.8 -0.18,-2.46 -0.06,-0.48 -0.18,-0.78 -0.12,-0.3 -0.3,-0.48 -0.24,-0.24 -0.66,-0.12 l -1.02,0.36 q 0.48,-1.08 1.62,-2.52 1.08,-1.5 2.46,-2.64 1.38,-1.2 2.94,-1.74 1.62,-0.54 3.12,0.24 -0.66,-0.12 -0.84,0.18 -0.12,0.24 -0.06,0.54 0.06,0.36 0.36,0.9 l 5.28,9.48 -0.66,-8.94 q 0,-0.66 -0.24,-0.78 -0.24,-0.12 -0.54,0 -0.36,0.12 -0.78,0.48 1.38,-3.18 3.36,-5.22 2.04,-2.04 3.96,-3.24 2.22,-1.44 4.56,-2.16 -0.48,2.22 -0.84,5.1 -0.36,2.88 -0.6,5.94 -0.24,3 -0.36,5.94 -0.06,2.88 0,5.22 0.06,2.28 0.3,3.78 0.3,1.44 0.78,1.56 l 0.84,-0.42 1.62,-1.26 z" />
      <path
         id="path42"
         style="font-family:'CHASE ZEN SPRAWL'"
         d="m 487.81755,87.82 q -1.02,-0.36 -1.8,-1.56 -0.84,-1.26 -1.08,-2.76 -0.24,-1.56 0.36,-3.06 0.54,-1.5 2.28,-2.4 1.38,-0.6 2.7,-0.72 1.14,-0.12 2.4,0.24 1.32,0.36 2.34,1.74 l 0.3,-1.5 q 0.12,-0.66 0.36,-1.44 0.24,-0.84 0.6,-1.68 l -1.26,0.6 0.36,-1.38 q 1.98,-1.68 4.2,-2.4 2.28,-0.72 4.14,-0.54 1.92,0.18 3.24,1.2 1.32,0.96 1.5,2.64 -1.92,1.56 -3.6,3.3 -1.44,1.5 -2.94,3.36 -1.44,1.86 -2.28,3.72 0.18,0.18 0.48,0.18 0.3,0 0.6,-0.12 0.3,-0.12 0.72,-0.3 l 0.24,0.96 q -2.34,1.26 -3.9,1.38 -1.5,0.12 -2.4,-0.3 -0.9,-0.48 -1.32,-1.14 -0.36,-0.72 -0.42,-1.2 l 0.36,-1.62 q 0.06,-0.9 -0.48,-1.2 -0.48,-0.36 -1.08,-0.18 -0.6,0.12 -1.14,0.66 -0.48,0.54 -0.36,1.38 0.12,1.02 0.6,1.8 0.42,0.66 1.14,1.32 0.72,0.66 2.04,0.78 0.24,0.84 0,1.44 -0.24,0.54 -0.66,0.84 -0.48,0.36 -1.2,0.54 l -1.26,-0.06 q 0.66,2.52 1.2,3.96 0.54,1.44 1.02,2.22 0.54,0.9 1.02,1.26 0.78,0.48 1.44,0.24 0.72,-0.24 1.14,-0.84 0.48,-0.6 0.6,-1.44 0.18,-0.9 -0.12,-1.68 -0.3,-0.84 -1.2,-1.38 -0.84,-0.6 -2.34,-0.72 0.48,-1.62 1.38,-2.46 0.9,-0.9 1.98,-1.14 1.14,-0.3 2.34,-0.12 1.2,0.18 2.22,0.54 2.22,0.84 2.94,2.82 0.78,1.92 -0.12,4.02 -0.84,2.04 -3.3,3.72 -2.46,1.68 -6.66,2.04 -1.92,0.12 -3.72,-0.3 -1.74,-0.42 -3.24,-1.26 -1.44,-0.9 -2.46,-2.1 -1.08,-1.26 -1.5,-2.76 -0.42,-1.5 -0.18,-2.58 0.18,-1.14 0.78,-1.98 0.6,-0.84 1.44,-1.44 0.78,-0.6 1.56,-1.14 z" />
      <path
         id="path44"
         style="font-family:'CHASE ZEN SPRAWL'"
         d="m 522.26786,91.24 q 0.78,0.12 1.62,0.3 0.9,0.12 1.5,0.54 0.6,0.36 0.78,1.08 0.18,0.72 -0.36,1.98 -0.84,1.86 -2.1,3.12 -1.08,1.14 -2.76,1.86 -1.62,0.72 -3.84,0.12 l -1.68,-6 h -2.82 v 0.48 q -0.12,0.6 0,1.02 0.12,0.36 0.42,0.54 0.36,0.18 1.2,-0.12 l 0.3,1.2 q -1.02,0.78 -2.28,1.32 -1.08,0.48 -2.52,0.72 -1.44,0.18 -3.18,-0.3 l 6.24,-20.16 -0.12,-0.6 q -0.12,-0.54 -0.3,-0.42 l -2.88,3.18 q 2.4,-5.34 4.68,-7.68 2.34,-2.34 4.2,-2.82 1.92,-0.48 3.3,0.3 1.38,0.72 2.04,1.5 -0.9,3.06 -1.44,6.3 -0.48,2.76 -0.66,6.12 -0.12,3.3 0.66,6.42 z m -6.54,-0.06 -1.08,-3.6 q -0.48,1.08 -0.78,1.8 -0.3,0.66 -0.42,1.08 l -0.24,0.72 h 0.54 q 0.3,0 0.72,0.06 0.48,0 1.26,-0.06 z m 5.7,2.76 0.42,0.96 q 0.18,0.24 0.48,0.24 h 0.3 q 0.84,-0.12 1.08,-0.48 0.06,-0.12 -0.36,-0.48 -0.36,-0.36 -1.92,-0.24 z" />
    </g>
  </g>
</svg>
