<?xml version="1.0" encoding="UTF-8" standalone="no"?>
<svg
   xmlns:dc="http://purl.org/dc/elements/1.1/"
   xmlns:cc="http://creativecommons.org/ns#"
   xmlns:rdf="http://www.w3.org/1999/02/22-rdf-syntax-ns#"
   xmlns:svg="http://www.w3.org/2000/svg"
   xmlns="http://www.w3.org/2000/svg"
   id="svg16"
   width="800px"
   version="1.1"
   height="200px">
  <metadata
     id="metadata20">
    <rdf:RDF>
      <cc:Work
         rdf:about="">
        <dc:format>image/svg+xml</dc:format>
        <dc:type
           rdf:resource="http://purl.org/dc/dcmitype/StillImage" />
      </cc:Work>
    </rdf:RDF>
  </metadata>
  <defs
     id="defs4">
    <style
       id="style2"
       type="text/css"><![CDATA[    
     @font-face {font-family:Mauritania;
     src: url('/Users/francesco/Repos/write-logos/src/fonts/Cheerful_Script.ttf');}
     @font-face {font-family:The Spooky Time;
     src: url('/Users/francesco/Repos/write-logos/src/fonts/The_Spooky_Time_Personal_Use_Only_!!!!!!!!!!!.ttf');}
     ]]></style>
  </defs>
  <g
     id="g14"
     style="font-size:60px">
    <g
       style="text-anchor:middle"
       id="text12"
       aria-label="eXtemporanea">
      <path
         id="path22"
         style="font-family:Mauritania"
         d="m 302.695,79.18 q 0.6,0 1.08,0.36 0.48,0.36 0.78,0.9 0.36,0.54 0.54,1.2 0.18,0.6 0.18,1.14 0,0.96 -0.66,1.68 -0.66,0.66 -1.62,1.14 -0.9,0.48 -1.92,0.78 -1.02,0.3 -1.74,0.48 -0.18,1.2 -0.3,2.34 -0.12,1.14 -0.12,2.34 0,0.42 0,1.08 0.06,0.66 0.18,1.26 0.18,0.6 0.54,1.02 0.36,0.42 1.02,0.42 1.08,0 2.46,-1.08 1.38,-1.14 2.76,-2.64 1.38,-1.5 2.52,-3.06 1.2,-1.56 1.8,-2.4 l 0.42,-0.18 q 0.18,0.06 0.18,0.36 l -0.36,0.78 q -0.66,1.14 -1.86,2.88 -1.2,1.74 -2.7,3.36 -1.44,1.62 -3.06,2.76 -1.56,1.14 -2.94,1.14 -1.14,0 -1.92,-0.66 -0.72,-0.72 -1.14,-1.74 -0.42,-1.08 -0.54,-2.22 -0.18,-1.14 -0.18,-2.04 0,-1.38 0.3,-2.88 0.3,-1.56 0.84,-3 0.6,-1.5 1.5,-2.7 0.96,-1.26 2.22,-1.98 0.12,-0.06 0.36,-0.18 0.24,-0.12 0.54,-0.24 0.3,-0.18 0.54,-0.3 0.24,-0.12 0.3,-0.12 z m 0.06,1.2 q -0.66,0 -1.2,0.72 -0.54,0.66 -0.96,1.56 -0.42,0.9 -0.72,1.86 -0.24,0.9 -0.36,1.44 0.54,-0.18 1.38,-0.48 0.84,-0.3 1.62,-0.72 0.78,-0.48 1.32,-1.02 0.54,-0.6 0.54,-1.32 0,-0.66 -0.48,-1.32 -0.42,-0.72 -1.14,-0.72 z" />
      <path
         id="path24"
         style="font-family:'The Spooky Time'"
         d="m 329.07437,85.12 q 2.22,4.74 4.26001,9.06 4.01999,8.46 5.63999,11.82 h 5.04 v 2.22 h -11.82 V 106 h 4.26001 q -2.88001,-5.82 -8.70001,-18.18 -0.96,2.1 -1.85999,4.02 -1.38001,3.12 -2.70001,5.76 h 2.82 v 2.22 h -11.82 V 97.6 h 3.18 q 3.3,-6.9 7.5,-15.96 -0.71999,-1.5 -1.44,-3 -5.52,-11.64 -8.15999,-17.16 h -4.44 v -2.34 h 11.82 v 2.34 h -4.92001 q 3.06,6.18 8.4,17.58 0.54,-1.08 1.02001,-2.1 4.56,-9.6 7.37999,-15.48 h -3 v -2.34 h 11.82 v 2.34 h -2.94 q -2.63999,5.34 -7.92,16.38 -1.68,3.6 -3.42,7.26 z" />
      <path
         id="path26"
         style="font-family:Mauritania"
         d="m 345.29031,74.02 q 0.12,-0.6 0.3,-1.92 0.24,-1.32 0.6,-2.94 0.36,-1.62 0.84,-3.36 0.48,-1.8 1.02,-3.24 0.54,-1.44 1.14,-2.34 0.6,-0.96 1.26,-0.96 0.78,0 1.26,1.32 0.54,1.26 0.78,2.94 0.3,1.68 0.36,3.3 0.12,1.62 0.12,2.22 0,1.08 -0.18,2.16 -0.12,1.08 -0.36,2.1 3.12,-0.42 6.24,-0.6 3.12,-0.18 6.3,-0.18 0.3,0 0.66,0.06 0.42,0 0.78,0.12 0.36,0.06 0.6,0.3 0.24,0.18 0.24,0.6 l -0.12,0.12 q -3.78,-0.06 -7.5,0.18 -3.72,0.18 -7.5,0.48 -0.72,2.58 -1.8,4.98 -1.08,2.4 -2.46,4.68 v 5.34 q 0,3.66 0.18,7.32 0.18,3.66 1.14,7.2 0.12,0.3 0.24,0.84 0.18,0.6 0.6,0.6 0.42,0 1.02,-1.02 0.6,-0.96 1.32,-2.52 0.72,-1.5 1.44,-3.36 0.72,-1.86 1.32,-3.54 0.66,-1.68 1.08,-3 0.48,-1.32 0.66,-1.8 0.06,-0.24 0.24,-0.84 0.24,-0.66 0.48,-1.32 0.24,-0.66 0.42,-1.26 0.24,-0.6 0.36,-0.72 h 0.06 l 0.12,-0.06 0.3,0.24 q -0.24,0.96 -0.78,2.94 -0.48,1.98 -1.26,4.38 -0.72,2.34 -1.62,4.86 -0.9,2.46 -1.98,4.5 -1.02,2.04 -2.16,3.36 -1.08,1.32 -2.22,1.32 -1.08,0 -1.86,-1.2 -0.72,-1.14 -1.26,-2.94 -0.48,-1.8 -0.78,-4.02 -0.3,-2.22 -0.42,-4.26 -0.18,-2.1 -0.18,-3.78 -0.06,-1.68 -0.06,-2.46 0,-3.48 0.18,-6.9 0.18,-3.42 0.66,-6.84 -0.3,0 -0.9,0.12 -1.92,0.36 -3.84,0.54 -1.98,0.12 -3.96,0.12 -0.66,0 -0.66,-0.66 l 0.06,-0.18 q 2.4,-0.06 4.74,-0.36 2.34,-0.36 4.74,-0.66 z m 5.58,-11.46 q -0.18,0 -0.36,0.36 -0.18,0.36 -0.36,0.84 -0.12,0.48 -0.24,0.9 -0.06,0.42 -0.12,0.6 -0.48,2.1 -0.84,4.26 -0.3,2.1 -0.6,4.2 l 2.76,-0.3 q 0.24,-1.2 0.36,-2.34 0.12,-1.14 0.12,-2.34 0,-0.6 0,-1.32 0,-0.78 -0.06,-1.56 0,-0.84 -0.12,-1.56 -0.06,-0.78 -0.24,-1.32 -0.06,-0.12 -0.12,-0.24 -0.06,-0.18 -0.18,-0.18 z m -3,19.86 q 0.96,-1.92 1.74,-3.84 0.78,-1.98 1.26,-4.08 l -2.7,0.3 q 0,0.96 -0.18,1.92 -0.12,0.9 -0.12,1.86 z" />
      <path
         id="path28"
         style="font-family:Mauritania"
         d="m 364.10125,79.18 q 0.6,0 1.08,0.36 0.48,0.36 0.78,0.9 0.36,0.54 0.54,1.2 0.18,0.6 0.18,1.14 0,0.96 -0.66,1.68 -0.66,0.66 -1.62,1.14 -0.9,0.48 -1.92,0.78 -1.02,0.3 -1.74,0.48 -0.18,1.2 -0.3,2.34 -0.12,1.14 -0.12,2.34 0,0.42 0,1.08 0.06,0.66 0.18,1.26 0.18,0.6 0.54,1.02 0.36,0.42 1.02,0.42 1.08,0 2.46,-1.08 1.38,-1.14 2.76,-2.64 1.38,-1.5 2.52,-3.06 1.2,-1.56 1.8,-2.4 l 0.42,-0.18 q 0.18,0.06 0.18,0.36 l -0.36,0.78 q -0.66,1.14 -1.86,2.88 -1.2,1.74 -2.7,3.36 -1.44,1.62 -3.06,2.76 -1.56,1.14 -2.94,1.14 -1.14,0 -1.92,-0.66 -0.72,-0.72 -1.14,-1.74 -0.42,-1.08 -0.54,-2.22 -0.18,-1.14 -0.18,-2.04 0,-1.38 0.3,-2.88 0.3,-1.56 0.84,-3 0.6,-1.5 1.5,-2.7 0.96,-1.26 2.22,-1.98 0.12,-0.06 0.36,-0.18 0.24,-0.12 0.54,-0.24 0.3,-0.18 0.54,-0.3 0.24,-0.12 0.3,-0.12 z m 0.06,1.2 q -0.66,0 -1.2,0.72 -0.54,0.66 -0.96,1.56 -0.42,0.9 -0.72,1.86 -0.24,0.9 -0.36,1.44 0.54,-0.18 1.38,-0.48 0.84,-0.3 1.62,-0.72 0.78,-0.48 1.32,-1.02 0.54,-0.6 0.54,-1.32 0,-0.66 -0.48,-1.32 -0.42,-0.72 -1.14,-0.72 z" />
      <path
         id="path30"
         style="font-family:Mauritania"
         d="m 409.26062,82.6 q 0.54001,0 0.96,0.42 0.42,0.36 0.66,0.9 0.30001,0.54 0.42001,1.14 0.11999,0.6 0.11999,1.02 0,1.02 -0.6,1.98 -0.6,0.96 -1.5,1.8 -0.9,0.84 -1.92,1.5 -1.02,0.66 -1.86,1.08 -0.53999,2.94 -0.78,5.82 -0.24,2.82 -0.36,5.82 0,0.42 -0.06,1.44 0,1.02 -0.06,2.34 -0.06,1.32 -0.12,2.7 -0.06,1.44 -0.17999,2.64 -0.06,1.26 -0.18,2.1 -0.06,0.9 -0.18,1.08 -0.30001,0.42 -0.78001,0.42 -0.47999,0 -0.77999,-0.9 -0.30001,-0.84 -0.54001,-1.98 -0.18,-1.08 -0.3,-2.16 -0.06,-1.02 -0.06,-1.38 -0.06,-1.02 -0.12,-3.72 0,-2.7 -0.06,-6.12 -0.06,-3.42 -0.11999,-7.14 0,-3.78 -0.06,-6.96 -0.06,-3.18 -0.18,-5.34 -0.06,-2.16 -0.18001,-2.46 -0.18,0.3 -0.36,0.66 -0.12,0.36 -0.18,0.72 -0.36,0.78 -1.02,2.46 -0.6,1.62 -1.37999,3.66 -0.72001,1.98 -1.62001,4.14 -0.9,2.1 -1.86,3.9 -0.89999,1.74 -1.92,2.88 -0.96,1.08 -1.85999,1.08 -0.78001,0 -1.26001,-0.84 -0.41999,-0.84 -0.66,-2.04 -0.24,-1.26 -0.3,-2.76 -0.06,-1.5 -0.12,-2.76 -0.06,-1.32 -0.12,-2.22 -0.06,-0.9 -0.3,-1.02 -1.56,2.16 -2.64,4.62 -1.02,2.46 -2.33999,4.74 -0.18001,0.36 -0.36001,0.6 -0.18,0.24 -0.66,0.24 -0.66,0 -1.08,-0.42 -0.36,-0.48 -0.53999,-1.08 -0.18,-0.66 -0.24,-1.32 -0.06,-0.72 -0.06,-1.2 0,-1.38 0.24,-2.76 0.23999,-1.38 0.47999,-2.76 0.3,-1.38 0.54,-2.76 0.24001,-1.38 0.24001,-2.76 0,-0.12 -0.06,-0.36 -0.06,-0.24 -0.18001,-0.24 -0.12,0 -0.42,0.54 -0.3,0.48 -0.42,0.66 -0.78,1.44 -1.56,3.6 -0.72,2.16 -1.44,4.5 -0.66,2.34 -1.2,4.62 -0.53999,2.28 -0.9,3.96 -0.06,0.42 -0.24,1.08 -0.12,0.72 -0.42,1.38 -0.24,0.72 -0.59999,1.2 -0.36001,0.48 -0.90001,0.48 -0.78,0 -1.26,-1.2 -0.54,-1.14 -0.83999,-2.64 -0.30001,-1.56 -0.36001,-3 -0.12,-1.5 -0.12,-2.1 0,-0.48 0.12,-1.5 0.06,-1.02 0.24001,-2.22 0.18,-1.26 0.47999,-2.58 0.3,-1.32 0.72,-2.34 0.42001,-1.08 0.9,-1.74 0.54,-0.72 1.20001,-0.72 0.47999,0 0.71999,0.36 0.24,0.3 0.36,0.78 0.12001,0.42 0.12001,0.9 0.06,0.48 0.06,0.78 0,2.76 -0.60001,5.46 -0.59999,2.64 -0.59999,5.46 0,0.18 0,0.36 0.06,0.18 0.23999,0.3 0.36,-0.72 0.78,-2.28 0.48001,-1.62 1.02,-3.6 0.54,-2.04 1.14,-4.2 0.6,-2.16 1.32001,-3.96 0.71999,-1.8 1.5,-2.94 0.83999,-1.14 1.79999,-1.14 0.6,0 0.90001,0.54 0.35999,0.48 0.53999,1.2 0.18,0.72 0.18,1.44 0.06,0.72 0.06,1.14 0,2.28 -0.47999,4.44 -0.48001,2.16 -0.48001,4.44 0,0.42 0.18001,0.54 0.3,-0.54 0.95999,-1.86 0.72001,-1.32 1.5,-2.7 0.78001,-1.38 1.56,-2.46 0.78001,-1.08 1.32,-1.08 1.02,0 1.56,0.96 0.60001,0.9 0.84001,2.16 0.29999,1.26 0.29999,2.58 0.06,1.26 0.06,1.98 0,0.24 0,0.84 0,0.54 0,1.14 0.06,0.54 0.18,1.02 0.18,0.42 0.48,0.42 0.54001,0 1.38,-1.56 0.84,-1.62 1.80001,-4.02 1.01999,-2.4 2.09999,-5.22 1.14001,-2.82 2.16,-5.22 1.08,-2.4 2.04001,-3.96 0.95999,-1.62 1.67999,-1.62 0.6,0 0.96,1.08 0.42001,1.08 0.66,2.76 0.24,1.62 0.36,3.6 0.18,1.98 0.24,3.84 0.06,1.86 0.06,3.36 0,1.5 0,2.1 L 405.06063,91 q 0.18,-0.72 0.47999,-2.1 0.36,-1.44 0.84,-2.82 0.54,-1.38 1.26,-2.4 0.72001,-1.08 1.62,-1.08 z m -3.36,7.92 q 1.38,-0.84 2.64,-2.16 1.26001,-1.32 1.26001,-3.06 0,-0.36 -0.18,-0.84 -0.12,-0.54 -0.60001,-0.54 -0.6,0 -1.14,0.84 -0.48,0.84 -0.9,1.98 -0.41999,1.08 -0.72,2.22 -0.24,1.08 -0.36,1.56 z" />
      <path
         id="path32"
         style="font-family:Mauritania"
         d="m 412.54281,93.94 q 0,-0.6 0.36,-2.1 0.3,-1.56 0.84,-3.12 0.54,-1.56 1.2,-2.76 0.66,-1.26 1.38,-1.26 0.36,0 0.42,0.36 0.06,0.36 0.06,0.6 0,2.04 -0.6,3.96 -0.6,1.92 -0.6,3.96 0,0.24 0,0.66 0,0.36 0.06,0.78 0.12,0.36 0.3,0.66 0.18,0.24 0.54,0.24 0.72,0 1.32,-1.32 0.66,-1.32 1.08,-3 0.48,-1.74 0.72,-3.36 0.24,-1.68 0.24,-2.28 0,-2.16 -1.08,-3.42 -1.02,-1.32 -3.06,-1.92 -0.18,-0.06 -0.42,-0.06 -0.18,-0.06 -0.36,-0.18 0.42,-0.78 1.2,-0.78 1.92,0 3.9,-0.36 1.98,-0.42 3.6,-1.56 -0.48,-0.42 -0.78,-0.9 -0.3,-0.48 -0.3,-1.14 0,-0.54 0.18,-1.26 0.24,-0.78 0.66,-1.5 0.42,-0.72 0.96,-1.2 0.54,-0.48 1.14,-0.48 0.96,0 1.32,0.9 0.42,0.9 0.42,1.68 0,0.9 -0.48,1.74 -0.42,0.78 -1.02,1.44 0.84,0.72 1.56,1.26 0.72,0.48 1.2,1.08 0.54,0.6 0.84,1.38 0.3,0.78 0.3,2.04 0,3.78 -0.54,7.56 -0.54,3.78 -0.54,7.56 0,0.12 0,0.48 0.06,0.36 0.12,0.72 0.12,0.36 0.24,0.66 0.12,0.3 0.3,0.3 0.3,0 0.84,-0.9 0.6,-0.9 1.26,-2.28 0.72,-1.38 1.44,-3.06 0.78,-1.68 1.38,-3.18 0.66,-1.56 1.14,-2.76 0.54,-1.26 0.72,-1.74 l 0.3,-0.12 q 0.36,0 0.48,0.36 -0.24,0.78 -0.72,2.28 -0.42,1.44 -1.08,3.24 -0.6,1.74 -1.38,3.6 -0.78,1.8 -1.68,3.3 -0.84,1.5 -1.8,2.46 -0.96,0.96 -1.86,0.96 -0.9,0 -1.5,-0.78 -0.6,-0.78 -0.96,-1.86 -0.36,-1.08 -0.54,-2.16 -0.18,-1.14 -0.18,-1.8 0,-1.44 0.48,-2.88 0.54,-1.5 0.48,-2.88 l 0.06,-0.12 q 0,-0.3 0,-0.48 0.06,-0.24 0.12,-0.54 0.3,-1.74 0.36,-3.42 0.06,-1.74 0.06,-3.48 0,-1.26 -0.78,-2.04 -0.72,-0.84 -1.62,-1.5 -0.54,0.36 -1.32,0.78 -0.78,0.42 -1.62,0.78 -0.84,0.36 -1.68,0.6 -0.78,0.24 -1.44,0.24 1.38,0.72 2.1,2.16 0.78,1.44 0.78,2.94 0,0.96 -0.42,3 -0.36,1.98 -1.08,4.08 -0.72,2.04 -1.74,3.6 -0.96,1.56 -2.16,1.56 -0.6,0 -1.14,-0.42 -0.6,-0.42 -1.02,-1.02 -0.42,-0.66 -0.66,-1.32 -0.3,-0.72 -0.3,-1.26 z m 12.6,-17.64 q 0.3,-0.42 0.66,-1.02 0.42,-0.6 0.42,-1.14 0,-0.3 -0.24,-0.78 -0.18,-0.48 -0.6,-0.48 -0.24,0 -0.42,0.24 -0.12,0.24 -0.24,0.54 -0.06,0.3 -0.12,0.6 0,0.3 0,0.48 0,0.9 0.54,1.56 z" />
      <path
         id="path34"
         style="font-family:Mauritania"
         d="m 452.83938,97.3 q 0,-3.06 0.53999,-6 0.6,-2.94 1.14001,-5.94 0.23999,-1.32 0.53999,-2.58 0.36,-1.32 0.42,-2.7 0.18,-0.48 0.24001,-1.02 0.06,-0.6 0.06,-1.08 0,-0.3 -0.06,-0.48 0,-0.24 -0.12001,-0.48 -0.36,0.12 -0.96,1.5 -0.6,1.38 -1.32,3.42 -0.72,1.98 -1.62,4.26 -0.9,2.28 -1.91999,4.26 -0.96001,1.98 -2.10001,3.3 -1.08,1.26 -2.27999,1.26 -0.90001,0 -1.38,-0.78 -0.48001,-0.78 -0.72001,-1.8 -0.24,-1.08 -0.3,-2.16 -0.06,-1.08 -0.06,-1.68 v -0.78 l -0.24,-1.08 q -0.23999,0.9 -0.84,2.76 -0.6,1.86 -1.5,3.78 -0.83999,1.92 -1.86,3.36 -0.96,1.44 -2.03999,1.44 -0.60001,0 -1.08001,-0.42 -0.47999,-0.48 -0.78,-1.14 -0.36,-0.66 -0.54,-1.32 -0.18,-0.72 -0.18,-1.2 0,-1.56 0.54,-3.9 0.48001,-2.4 1.44,-4.62 1.02,-2.22 2.52,-3.78 1.5,-1.56 3.48,-1.56 1.56,0 2.76,1.14 1.26,1.14 1.26,2.76 l -0.06,0.18 q -0.29999,-0.48 -0.59999,-1.08 -0.30001,-0.6 -0.66001,-1.14 -0.36,-0.54 -0.9,-0.9 -0.48,-0.36 -1.13999,-0.36 -1.44,0 -2.46001,1.74 -1.02,1.68 -1.68,3.96 -0.59999,2.22 -0.9,4.5 -0.3,2.22 -0.3,3.3 0,0.12 0,0.78 0.06,0.66 0.3,0.66 0.30001,0 0.66,-0.6 0.36,-0.66 0.72,-1.44 0.36001,-0.84 0.66001,-1.62 0.35999,-0.78 0.53999,-1.02 v -0.06 l 0.06,-0.12 v -0.06 q 0.18,-0.42 0.60001,-1.5 0.47999,-1.08 1.01999,-2.16 0.54001,-1.14 1.08,-1.98 0.6,-0.9 1.02001,-0.9 0.59999,0 0.89999,0.84 0.36,0.78 0.36,1.26 0,0.42 -0.06,1.68 -0.06,1.2 0,2.52 0.12,1.26 0.36001,2.28 0.29999,1.02 0.89999,1.02 0.66001,0 1.44,-1.38 0.78001,-1.38 1.62,-3.42 0.84,-2.04 1.74,-4.44 0.9,-2.46 1.80001,-4.5 0.89999,-2.04 1.73999,-3.42 0.9,-1.38 1.68,-1.38 0.54,0 0.84,0.72 0.36001,0.66 0.48,1.56 0.12,0.9 0.12,1.8 0.06,0.9 0.06,1.26 0,2.58 -0.35999,5.1 -0.30001,2.46 -0.66001,4.98 0.3,-0.72 0.96,-2.28 0.72,-1.62 1.62,-3.18 0.90001,-1.62 1.86,-2.82 1.02,-1.2 1.86,-1.2 0.72,0 1.08,0.9 0.42,0.9 0.60001,2.28 0.18,1.32 0.3,2.88 0.17999,1.56 0.41999,2.94 0.24,1.32 0.72001,2.22 0.47999,0.9 1.31999,0.9 0.84,0 1.56,-0.78 0.78,-0.84 1.44,-1.92 0.72,-1.08 1.26,-2.16 0.54001,-1.14 0.9,-1.74 v -0.06 l 0.42,-0.72 0.3,0.18 q -0.24,1.14 -0.83999,2.64 -0.54001,1.5 -1.44001,2.88 -0.84,1.38 -1.98,2.34 -1.13999,0.96 -2.52,0.96 -1.38,0 -2.16,-0.96 -0.78,-0.96 -1.13999,-2.28 -0.36001,-1.38 -0.48001,-2.82 -0.06,-1.44 -0.06,-2.4 0,-0.18 0,-0.66 0,-0.54 -0.06,-1.08 -0.06,-0.54 -0.18,-0.96 -0.12,-0.48 -0.3,-0.48 -0.29999,0 -0.96,1.02 -0.66,1.02 -1.44,2.58 -0.72,1.56 -1.5,3.48 -0.77999,1.92 -1.44,3.66 -0.6,1.74 -1.01999,3.12 -0.42001,1.38 -0.42001,1.92 0,0.48 -0.42,0.48 -0.36,0 -0.77999,-0.24 -0.36001,-0.24 -0.72001,-0.54 -0.3,-0.36 -0.53999,-0.72 -0.18,-0.42 -0.18,-0.78 z" />
      <path
         id="path36"
         style="font-family:Mauritania"
         d="m 478.59344,79.18 q 0.6,0 1.08,0.36 0.48,0.36 0.78,0.9 0.36,0.54 0.54,1.2 0.18,0.6 0.18,1.14 0,0.96 -0.66,1.68 -0.66,0.66 -1.62,1.14 -0.9,0.48 -1.92,0.78 -1.02,0.3 -1.74,0.48 -0.18,1.2 -0.3,2.34 -0.12,1.14 -0.12,2.34 0,0.42 0,1.08 0.06,0.66 0.18,1.26 0.18,0.6 0.54,1.02 0.36,0.42 1.02,0.42 1.08,0 2.46,-1.08 1.38,-1.14 2.76,-2.64 1.38,-1.5 2.52,-3.06 1.2,-1.56 1.8,-2.4 l 0.42,-0.18 q 0.18,0.06 0.18,0.36 l -0.36,0.78 q -0.66,1.14 -1.86,2.88 -1.2,1.74 -2.7,3.36 -1.44,1.62 -3.06,2.76 -1.56,1.14 -2.94,1.14 -1.14,0 -1.92,-0.66 -0.72,-0.72 -1.14,-1.74 -0.42,-1.08 -0.54,-2.22 -0.18,-1.14 -0.18,-2.04 0,-1.38 0.3,-2.88 0.3,-1.56 0.84,-3 0.6,-1.5 1.5,-2.7 0.96,-1.26 2.22,-1.98 0.12,-0.06 0.36,-0.18 0.24,-0.12 0.54,-0.24 0.3,-0.18 0.54,-0.3 0.24,-0.12 0.3,-0.12 z m 0.06,1.2 q -0.66,0 -1.2,0.72 -0.54,0.66 -0.96,1.56 -0.42,0.9 -0.72,1.86 -0.24,0.9 -0.36,1.44 0.54,-0.18 1.38,-0.48 0.84,-0.3 1.62,-0.72 0.78,-0.48 1.32,-1.02 0.54,-0.6 0.54,-1.32 0,-0.66 -0.48,-1.32 -0.42,-0.72 -1.14,-0.72 z" />
      <path
         id="path38"
         style="font-family:Mauritania"
         d="m 491.47281,80.86 q 0.96,0 1.74,0.54 0.84,0.48 1.02,1.5 l 0.24,-0.18 q 0.6,0 1.02,0.36 0.42,0.36 0.42,1.02 0,0.36 -0.06,0.78 -0.06,0.36 -0.12,0.72 -0.3,1.92 -0.48,3.9 -0.12,1.98 -0.12,3.96 0,0.36 0,1.2 0.06,0.84 0.18,1.68 0.18,0.78 0.48,1.44 0.36,0.6 0.9,0.6 0.96,0 1.98,-1.56 1.02,-1.62 1.92,-3.72 0.9,-2.1 1.56,-4.08 0.72,-2.04 0.96,-2.88 l 0.3,-0.18 0.3,0.18 q -0.18,1.38 -0.72,3.78 -0.54,2.34 -1.5,4.68 -0.9,2.28 -2.28,3.96 -1.32,1.68 -3.12,1.68 -1.14,0 -1.8,-0.66 -0.6,-0.72 -0.96,-1.68 -0.3,-1.02 -0.42,-2.1 -0.06,-1.14 -0.06,-1.92 0,-0.48 0,-1.32 0.06,-0.9 0.12,-1.86 0.12,-0.96 0.18,-1.74 0.12,-0.84 0.3,-1.2 0,-0.54 0.12,-1.02 0.18,-0.48 0.18,-1.02 v -0.06 q -0.3,0.06 -0.78,0.78 -0.42,0.72 -0.96,1.86 -0.54,1.14 -1.14,2.46 -0.54,1.32 -1.08,2.58 -0.48,1.2 -0.9,2.22 -0.42,0.96 -0.72,1.32 -0.3,0.48 -0.78,0.84 -0.42,0.3 -1.02,0.3 -0.66,0 -1.02,-0.42 -0.42,-0.48 -0.6,-1.14 -0.24,-0.66 -0.3,-1.32 -0.06,-0.72 -0.06,-1.2 0,-1.38 0.48,-3.6 0.42,-2.22 1.26,-4.32 0.9,-2.1 2.22,-3.6 1.32,-1.56 3.12,-1.56 z m -4.32,14.58 q 0.12,0 0.3,-0.24 0.18,-0.3 0.36,-0.66 0.18,-0.36 0.3,-0.66 0.12,-0.36 0.18,-0.48 0.42,-1.08 1.08,-2.46 0.66,-1.38 1.38,-2.76 0.78,-1.38 1.56,-2.64 0.78,-1.32 1.5,-2.22 -0.12,-0.48 -0.54,-0.78 -0.36,-0.36 -0.84,-0.36 -0.78,0 -1.5,0.78 -0.72,0.72 -1.38,1.92 -0.6,1.14 -1.08,2.58 -0.48,1.38 -0.84,2.76 -0.36,1.38 -0.54,2.58 -0.18,1.14 -0.18,1.8 0,0.12 0.06,0.48 0.06,0.36 0.18,0.36 z" />
    </g>
  </g>
</svg>
