<?xml version="1.0" encoding="UTF-8" standalone="no"?>
<svg
   xmlns:dc="http://purl.org/dc/elements/1.1/"
   xmlns:cc="http://creativecommons.org/ns#"
   xmlns:rdf="http://www.w3.org/1999/02/22-rdf-syntax-ns#"
   xmlns:svg="http://www.w3.org/2000/svg"
   xmlns="http://www.w3.org/2000/svg"
   id="svg16"
   width="800px"
   version="1.1"
   height="200px">
  <metadata
     id="metadata20">
    <rdf:RDF>
      <cc:Work
         rdf:about="">
        <dc:format>image/svg+xml</dc:format>
        <dc:type
           rdf:resource="http://purl.org/dc/dcmitype/StillImage" />
      </cc:Work>
    </rdf:RDF>
  </metadata>
  <defs
     id="defs4">
    <style
       id="style2"
       type="text/css"><![CDATA[    
     @font-face {font-family:China;
     src: url('/Users/francesco/Repos/write-logos/src/fonts/China.ttf');}
     @font-face {font-family:Confused Italic;
     src: url('/Users/francesco/Repos/write-logos/src/fonts/Confused_Italic.ttf');}
     ]]></style>
  </defs>
  <g
     id="g14"
     style="font-size:60px">
    <g
       style="text-anchor:middle"
       id="text12"
       aria-label="eXtemporanea">
      <path
         id="path22"
         style="font-family:China"
         d="m 159.58422,62.38 q -0.12,-0.42 -0.24,-0.66 -0.06,-0.3 -0.12,-0.54 9.72,0.42 19.02,1.62 l 0.66,2.1 0.18,0.84 q 0.12,0.66 0.3,1.32 0.18,0.6 0.36,1.26 -4.5,-0.18 -9.36,-0.3 -4.8,-0.12 -9.36,-0.12 -0.24,-0.66 -0.42,-1.38 -0.18,-0.72 -0.36,-1.38 V 64.9 l -0.3,-1.32 z m 16.5,2.16 q -3.96,-0.54 -7.92,-0.9 -3.9,-0.36 -7.98,-0.6 l 0.12,0.36 0.3,1.5 v 0.18 q 0,0.06 0,0.12 0.06,0 0.06,0.06 0.18,0.6 0.24,1.14 0.12,0.54 0.36,1.14 3.96,0.06 7.8,0.12 3.9,0.06 7.86,0.24 v -0.24 l -0.3,-1.2 z m 9.48,25.56 q 0.12,0 0.24,-0.06 -0.06,0.06 -0.24,0.06 z m -21,-8.82 q -0.3,-1.2 -0.66,-2.4 -0.3,-1.2 -0.72,-2.34 l -0.54,-1.68 10.74,-0.42 q 0.6,0 1.32,0 0.78,-0.06 1.44,-0.06 l 2.34,-0.12 1.32,5.4 q -1.26,0.12 -2.7,0.3 -1.38,0.12 -2.58,0.24 -0.96,0.12 -2.04,0.24 -1.08,0.06 -2.04,0.18 l -1.62,0.24 z m -1.02,-4.74 q 0.66,2.1 1.32,4.32 0.96,-0.06 1.92,-0.12 1.02,-0.12 2.04,-0.24 l 1.62,-0.18 1.56,-0.18 0.78,-0.06 1.62,-0.18 q 0.6,-0.06 1.32,-0.12 0.72,-0.12 1.38,-0.18 l -0.9,-3.6 q -0.48,0 -1.08,0.06 -0.54,0 -1.02,0 -0.6,0.06 -1.44,0.12 -0.84,0 -1.38,0 z m -4.86,-8.64 q -1.68,0 -3.48,0 -1.74,0 -3.3,0.06 -0.48,-1.74 -0.84,-3.54 -0.36,-1.8 -0.66,-3.54 1.56,0 3.3,0 1.8,0 3.36,0.06 l 0.6,2.52 q 0.24,1.14 0.48,2.28 0.24,1.08 0.54,2.16 z m 27,22.14 q 0,0.06 -0.06,0.06 h -0.06 q -6.36,1.86 -12.84,3.66 -6.48,1.74 -13.02,3.18 h -0.6 l -0.12,-0.18 V 96.7 l -2.52,-7.68 q -2.46,-7.26 -4.74,-14.46 -2.22,-7.26 -3.24,-14.58 0,-0.12 0.06,-0.18 0.12,-0.12 0.48,-0.24 7.68,0 15.06,0.72 7.44,0.72 14.82,1.68 l 0.42,0.36 0.06,-0.06 v 0.06 q 2.1,6.9 3.78,13.74 1.68,6.84 2.7,13.74 z m -26.94,-29.1 q 0.12,0.72 0.3,1.44 0.24,0.72 0.42,1.44 0.3,1.08 0.54,2.22 0.24,1.08 0.6,2.1 v 0.24 q 4.92,0 9.84,0.12 4.98,0.12 9.96,0.36 v -0.3 q -0.24,-0.72 -0.42,-1.44 -0.18,-0.78 -0.42,-1.56 -0.18,-0.72 -0.36,-1.44 -0.18,-0.78 -0.42,-1.56 v -0.18 q -5.04,-0.66 -10.02,-1.08 -4.98,-0.42 -10.02,-0.66 z m 3.9,15.72 q 0.9,2.28 1.44,4.92 v 0.24 l 4.8,-0.48 q 2.82,-0.36 5.7,-0.66 2.94,-0.36 5.76,-0.66 v -0.3 l -1.38,-5.76 v -0.24 q -4.2,0.18 -8.46,0.36 -4.2,0.12 -8.4,0.36 v 0.3 z m -12.78,-15.96 q 0.3,1.92 0.66,3.78 0.42,1.86 0.9,3.78 v 0.18 q 1.92,-0.06 3.9,-0.06 1.98,0 3.96,0 v -0.24 q -0.3,-1.2 -0.6,-2.4 -0.24,-1.2 -0.54,-2.4 l -0.6,-2.64 v -0.24 q -1.92,-0.06 -3.84,-0.06 -1.92,0 -3.84,0 z m 2.04,9.18 q 0.24,1.02 0.48,2.1 0.3,1.08 0.6,2.1 v 0.18 q 1.02,-0.12 1.98,-0.12 0.96,0 1.92,0 l 3.96,-0.18 v -0.3 q -0.12,-0.54 -0.3,-1.08 -0.18,-0.54 -0.36,-1.14 v -0.06 q -0.24,-0.6 -0.36,-1.08 -0.12,-0.54 -0.24,-1.02 v -0.24 q -1.98,0 -3.96,0.06 -1.92,0 -3.84,0.06 v 0.24 q 0,0.12 0.06,0.24 0.06,0.06 0.06,0.18 z m 12.54,16.98 -0.42,-1.62 q -0.24,-0.6 -0.42,-1.2 -0.12,-0.66 -0.24,-1.32 v -0.18 l -3.78,0.42 q -0.96,0.12 -1.86,0.24 -0.9,0.06 -1.86,0.12 v 0.36 l 1.32,4.26 v 0.12 q 1.2,-0.12 2.28,-0.24 1.08,-0.12 2.16,-0.24 0.72,-0.12 1.44,-0.18 0.72,-0.12 1.38,-0.24 z m 20.64,2.7 -0.78,-5.16 v -0.18 q -4.62,0.84 -9.24,1.68 -4.56,0.84 -9.18,1.62 v 0.3 l 0.72,2.94 q 0.24,0.84 0.48,1.74 0.24,0.9 0.42,1.8 v 0.18 q 4.44,-1.08 8.82,-2.22 4.38,-1.2 8.76,-2.4 z m -4.86,-27.66 q 2.1,6.78 3.78,13.74 1.74,6.96 2.76,14.46 l -0.18,0.36 -0.12,-0.06 -0.78,0.54 h 0.06 l -0.36,0.24 h 0.06 l -1.02,0.72 -0.72,0.42 q -6.36,1.86 -12.84,3.66 -6.48,1.74 -13.02,3.18 l -1.5,-0.06 -0.12,-0.66 -0.6,-1.98 q -0.48,-1.44 -0.96,-2.88 -0.48,-1.44 -0.96,-2.88 -2.46,-7.2 -4.74,-14.4 -2.22,-7.26 -3.24,-14.64 0,-0.24 0,-0.48 0.06,-0.3 0.36,-0.48 0.06,0 0.18,-0.12 l -0.18,0.12 1.68,-1.2 q 0.24,-0.66 1.02,-0.72 8.04,0 15.54,0.72 7.56,0.66 14.94,1.68 z m 5.94,28.32 0.24,-0.24 q -1.02,-7.2 -2.76,-14.1 -1.68,-6.96 -3.78,-13.8 l -0.72,-0.6 q -7.44,-0.96 -14.94,-1.68 -7.5,-0.72 -15.36,-0.72 -0.54,0.12 -0.72,0.42 -0.18,0.3 -0.18,0.54 1.08,7.44 3.3,14.64 2.22,7.2 4.68,14.46 l 2.58,7.74 0.06,0.54 h 1.32 q 6.54,-1.44 13.02,-3.18 6.48,-1.8 12.9,-3.66 v -0.06 q 0.12,-0.06 0.18,-0.06 0.12,-0.06 0.24,-0.18 z m -19.68,-2.28 q 4.26,-0.72 8.64,-1.5 4.38,-0.78 8.7,-1.62 l 0.72,4.68 q -4.14,1.2 -8.28,2.28 -4.08,1.08 -8.34,2.1 -0.12,-0.72 -0.3,-1.32 -0.18,-0.6 -0.3,-1.2 l -0.18,-0.66 -0.12,-0.54 -0.24,-0.84 z m 1.74,5.52 q 3.6,-0.84 7.02,-1.68 3.42,-0.9 6.84,-1.86 l -0.48,-3.3 q -3.6,0.66 -7.26,1.32 -3.6,0.6 -7.2,1.26 v 0.06 l 0.24,0.78 0.12,0.54 0.18,0.66 q 0.12,0.54 0.24,1.08 0.18,0.48 0.3,1.14 z m -5.34,-10.44 q 0.12,0.66 0.24,1.26 0.18,0.6 0.36,1.14 l 0.36,1.38 q -0.6,0.06 -1.26,0.12 -0.6,0.06 -1.02,0.18 h -0.18 -0.18 q -0.84,0.18 -1.8,0.3 -0.96,0.06 -1.8,0.18 l -1.14,-3.78 q 0.78,-0.06 1.62,-0.12 0.84,-0.12 1.5,-0.24 z m -1.74,3.78 q -0.18,-0.48 -0.3,-1.02 -0.12,-0.54 -0.24,-1.02 l -3,0.42 q -0.12,0 -0.24,0.06 -0.06,0 -0.18,0 l 0.18,0.42 0.48,1.62 q 0.18,0 0.3,-0.06 0.06,0 0.12,0 0.12,-0.06 0.24,-0.06 0.66,-0.06 1.26,-0.12 0.66,-0.12 1.32,-0.24 z m -5.52,-13.14 q -0.48,0 -1.08,0.06 -0.54,0 -1.08,0 -0.72,-2.04 -1.08,-3.9 0,0 -0.06,-0.12 v -0.06 h 0.66 q 0.3,0 0.6,0 0.36,-0.06 0.72,-0.06 1.08,0 2.28,0 1.26,-0.06 2.46,-0.06 l 0.6,1.98 0.12,0.36 0.48,1.68 -3.36,0.12 h -0.6 z m 1.14,-2.4 q -0.84,0 -1.8,0 -0.9,0 -1.8,0.06 l 0.54,2.1 h 0.36 q 0.12,0 0.24,0 0.18,-0.06 0.36,-0.06 h 0.96 q 0.12,0 0.12,0 0.06,-0.06 0.24,-0.06 h 0.9 0.6 l -0.06,-0.18 q -0.24,-0.54 -0.42,-0.96 -0.12,-0.42 -0.24,-0.9 z" />
      <path
         id="path24"
         style="font-family:'Confused Italic'"
         d="m 205.17578,63.759766 q 0.49805,0 0.82031,0.205078 0.32227,0.175781 0.32227,0.615234 -0.0293,1.025391 0.0293,3.925781 0.0879,2.900391 0.23437,6.826172 6.94336,-7.236328 11.86524,-10.927734 0.9375,-0.615235 1.58203,-0.615235 0.55664,0 0.82031,0.351563 0.29297,0.322266 0.14648,0.791016 -0.14648,0.380859 -0.64453,0.761718 -6.18164,4.716797 -13.62304,12.744141 0.23437,5.595703 0.58593,10.722656 0.35157,5.097656 0.79102,7.792969 0.0586,0.380859 -0.0879,0.761719 -0.35156,0.996093 -1.72852,1.699218 -1.37695,0.673828 -2.60742,0.673828 -0.70312,0 -1.23047,-0.263671 -0.49805,-0.263672 -0.58594,-0.878907 -0.82031,-5.830078 -1.37695,-13.476562 -7.67578,9.052734 -10.3125,13.564453 -0.35156,0.556641 -0.73242,0.820313 -0.35156,0.234374 -0.67383,0.234374 -0.52734,0 -0.79101,-0.55664 -0.23438,-0.585938 0.0586,-1.40625 0.14648,-0.351563 0.35156,-0.703125 3.51563,-5.800781 11.89453,-15.234375 -0.32226,-5.742188 -0.32226,-10.166016 0,-4.423828 0.38086,-5.537109 l 0.0586,-0.146484 q 0.64453,-1.054688 2.10938,-1.78711 1.46484,-0.732422 2.66601,-0.791015 z" />
      <path
         id="path26"
         style="font-family:China"
         d="m 236.74047,64.12 0.24,0.78 0.72,2.82 q 0.48,0.06 0.78,0.06 0.36,0 0.66,0 l 2.88,0.12 -0.12,-0.6 -0.78,-2.64 q -0.06,0 -0.12,0 0,-0.06 -0.06,-0.06 l -2.4,-0.3 h -0.12 -0.3 l -1.26,-0.18 z m -12.72,-1.08 q -1.98,-0.12 -4.02,-0.12 -2.04,-0.06 -3.96,-0.18 0.24,1.2 0.48,2.46 0.3,1.2 0.66,2.46 h 7.98 z m 12.9,7.26 1.08,3.9 q 1.02,4.08 2.16,8.64 1.2,4.56 2.04,8.7 v 0.36 l 6.12,-1.74 q -0.78,-4.92 -1.92,-9.84 -1.08,-4.98 -2.46,-10.02 l -0.3,0.24 q -1.56,-0.06 -3.3,-0.12 -1.68,-0.06 -3.24,-0.12 z m -20.94,-0.18 q 1.32,4.86 2.88,9.72 1.62,4.8 3.24,9.54 l 2.28,6.9 h 0.12 0.18 q 2.22,-0.48 4.44,-0.96 2.28,-0.54 4.62,-1.08 -1.5,-5.88 -3.06,-11.7 -1.5,-5.82 -3,-11.58 v -0.48 l 1.86,-1.44 v -0.3 h 4.86 l -1.5,-5.4 v -0.42 l 0.24,-0.12 -0.72,-0.12 -3.54,-0.36 -1.38,-0.06 1.44,5.82 v 0.66 h -0.36 l -1.92,1.44 h -3.18 q -0.72,0 -1.5,0 -0.78,-0.06 -1.5,-0.06 -0.84,0 -1.56,0.06 -0.72,0 -1.56,0 z m 29.28,-8.1 q 2.16,6.9 3.84,13.92 1.74,7.02 2.76,14.4 l -0.54,0.12 -1.74,1.26 q -6.48,1.92 -13.2,3.78 -6.72,1.86 -13.5,3.3 l -1.56,-0.06 -0.12,-0.66 -2.34,-6.84 q -1.14,-3.48 -2.34,-7.14 -1.2,-3.72 -2.34,-7.5 -1.08,-3.78 -2.04,-7.56 -0.96,-3.84 -1.56,-7.56 l 1.02,-0.9 1.14,-0.84 0.9,-0.84 q 3.6,0 6.9,0.18 3.36,0.12 6.66,0.42 1.02,0.06 1.92,0.12 0.9,0 1.86,0.12 l 3.54,0.3 q 3.66,0.36 7.08,0.9 l 2.7,0.36 z m -0.78,0.42 0.06,-0.06 v 0.06 q 2.1,6.84 3.72,13.62 1.62,6.78 2.64,13.68 -6.48,1.92 -12.96,3.66 -6.42,1.74 -13.14,3.24 l -0.66,-0.06 -0.12,-0.06 V 96.4 l -2.34,-6.96 q -2.46,-7.26 -4.74,-14.52 -2.28,-7.32 -3.48,-14.76 l 0.54,-0.42 q 3.42,0 6.6,0.12 3.24,0.12 6.6,0.36 1.74,0.06 3.78,0.36 l 3.54,0.36 q 1.74,0.18 3.48,0.42 1.74,0.18 3.48,0.36 l 2.46,0.36 z m -17.7,-1.32 v -0.18 q -3.06,-0.3 -6.06,-0.36 -2.94,-0.12 -6,-0.18 v 0.36 q 0.3,1.92 0.78,3.78 0.48,1.86 0.96,3.72 v 0.24 q 6.12,-0.12 12.12,0 v -0.3 z m 9.54,7.92 h -4.26 -2.1 v 0.3 q 1.56,6 3.12,11.94 1.62,5.88 3.12,11.88 v 0.24 l 5.58,-1.5 v -0.3 q -0.84,-4.38 -1.98,-8.64 -1.08,-4.32 -2.16,-8.7 l -1.32,-4.98 z m 7.5,-6.54 q -0.84,-0.12 -1.74,-0.18 -0.84,-0.12 -1.68,-0.24 -1.26,-0.12 -2.58,-0.3 -1.26,-0.18 -2.64,-0.3 v 0.3 l 1.8,6.6 v 0.18 q 0.54,0.06 1.08,0.06 0.6,0 1.08,0 1.62,0.06 3.18,0.12 1.62,0 3.18,0.06 v -0.18 l -0.48,-1.98 q -0.54,-1.98 -1.2,-3.96 z m 0.42,-0.9 -2.7,-0.3 -7.02,-0.9 -3.54,-0.36 q -0.96,-0.06 -1.86,-0.12 -0.9,-0.06 -1.92,-0.18 -3.3,-0.18 -6.6,-0.3 -3.24,-0.18 -6.78,-0.18 l -0.9,0.78 q 0.54,3.6 1.44,7.38 0.96,3.78 2.04,7.56 1.14,3.72 2.34,7.44 1.26,3.72 2.4,7.2 l 2.4,6.96 0.12,0.48 1.26,0.06 q 6.72,-1.5 13.32,-3.3 6.66,-1.86 13.2,-3.78 -1.02,-7.08 -2.7,-13.98 -1.62,-6.96 -3.72,-13.86 z m -7.14,12.78 q 1.08,4.14 2.16,8.58 1.14,4.44 1.98,8.58 l -4.62,1.2 q -0.66,-2.52 -1.44,-5.46 -0.78,-3 -1.62,-6.06 -0.78,-3.06 -1.56,-6.06 -0.78,-3 -1.5,-5.58 h 5.34 z m -20.16,-6.42 q -0.48,-1.74 -0.9,-3.6 -0.42,-1.86 -0.72,-3.42 2.64,0.06 5.46,0.18 2.82,0.12 5.52,0.24 l 1.62,6.6 z m 27.24,-2.22 0.12,0.48 0.18,0.6 0.42,1.56 q -1.38,-0.12 -2.88,-0.12 -1.5,-0.06 -2.88,-0.12 -0.3,0 -0.78,0 -0.42,0 -0.96,-0.06 l -1.5,-6 1.98,0.24 1.08,0.12 1.38,0.18 h 0.12 0.24 q 0.48,0.12 1.2,0.24 0.78,0.06 1.44,0.12 z" />
      <path
         id="path28"
         style="font-family:China"
         d="m 267.27953,62.38 q -0.12,-0.42 -0.24,-0.66 -0.06,-0.3 -0.12,-0.54 9.72,0.42 19.02,1.62 l 0.66,2.1 0.18,0.84 q 0.12,0.66 0.3,1.32 0.18,0.6 0.36,1.26 -4.5,-0.18 -9.36,-0.3 -4.8,-0.12 -9.36,-0.12 -0.24,-0.66 -0.42,-1.38 -0.18,-0.72 -0.36,-1.38 V 64.9 l -0.3,-1.32 z m 16.5,2.16 q -3.96,-0.54 -7.92,-0.9 -3.9,-0.36 -7.98,-0.6 l 0.12,0.36 0.3,1.5 v 0.18 q 0,0.06 0,0.12 0.06,0 0.06,0.06 0.18,0.6 0.24,1.14 0.12,0.54 0.36,1.14 3.96,0.06 7.8,0.12 3.9,0.06 7.86,0.24 v -0.24 l -0.3,-1.2 z m 9.48,25.56 q 0.12,0 0.24,-0.06 -0.06,0.06 -0.24,0.06 z m -21,-8.82 q -0.3,-1.2 -0.66,-2.4 -0.3,-1.2 -0.72,-2.34 l -0.54,-1.68 10.74,-0.42 q 0.6,0 1.32,0 0.78,-0.06 1.44,-0.06 l 2.34,-0.12 1.32,5.4 q -1.26,0.12 -2.7,0.3 -1.38,0.12 -2.58,0.24 -0.96,0.12 -2.04,0.24 -1.08,0.06 -2.04,0.18 l -1.62,0.24 z m -1.02,-4.74 q 0.66,2.1 1.32,4.32 0.96,-0.06 1.92,-0.12 1.02,-0.12 2.04,-0.24 l 1.62,-0.18 1.56,-0.18 0.78,-0.06 1.62,-0.18 q 0.6,-0.06 1.32,-0.12 0.72,-0.12 1.38,-0.18 l -0.9,-3.6 q -0.48,0 -1.08,0.06 -0.54,0 -1.02,0 -0.6,0.06 -1.44,0.12 -0.84,0 -1.38,0 z m -4.86,-8.64 q -1.68,0 -3.48,0 -1.74,0 -3.3,0.06 -0.48,-1.74 -0.84,-3.54 -0.36,-1.8 -0.66,-3.54 1.56,0 3.3,0 1.8,0 3.36,0.06 l 0.6,2.52 q 0.24,1.14 0.48,2.28 0.24,1.08 0.54,2.16 z m 27,22.14 q 0,0.06 -0.06,0.06 h -0.06 q -6.36,1.86 -12.84,3.66 -6.48,1.74 -13.02,3.18 h -0.6 l -0.12,-0.18 V 96.7 l -2.52,-7.68 q -2.46,-7.26 -4.74,-14.46 -2.22,-7.26 -3.24,-14.58 0,-0.12 0.06,-0.18 0.12,-0.12 0.48,-0.24 7.68,0 15.06,0.72 7.44,0.72 14.82,1.68 l 0.42,0.36 0.06,-0.06 v 0.06 q 2.1,6.9 3.78,13.74 1.68,6.84 2.7,13.74 z m -26.94,-29.1 q 0.12,0.72 0.3,1.44 0.24,0.72 0.42,1.44 0.3,1.08 0.54,2.22 0.24,1.08 0.6,2.1 v 0.24 q 4.92,0 9.84,0.12 4.98,0.12 9.96,0.36 v -0.3 q -0.24,-0.72 -0.42,-1.44 -0.18,-0.78 -0.42,-1.56 -0.18,-0.72 -0.36,-1.44 -0.18,-0.78 -0.42,-1.56 v -0.18 q -5.04,-0.66 -10.02,-1.08 -4.98,-0.42 -10.02,-0.66 z m 3.9,15.72 q 0.9,2.28 1.44,4.92 v 0.24 l 4.8,-0.48 q 2.82,-0.36 5.7,-0.66 2.94,-0.36 5.76,-0.66 v -0.3 l -1.38,-5.76 v -0.24 q -4.2,0.18 -8.46,0.36 -4.2,0.12 -8.4,0.36 v 0.3 z m -12.78,-15.96 q 0.3,1.92 0.66,3.78 0.42,1.86 0.9,3.78 v 0.18 q 1.92,-0.06 3.9,-0.06 1.98,0 3.96,0 v -0.24 q -0.3,-1.2 -0.6,-2.4 -0.24,-1.2 -0.54,-2.4 l -0.6,-2.64 v -0.24 q -1.92,-0.06 -3.84,-0.06 -1.92,0 -3.84,0 z m 2.04,9.18 q 0.24,1.02 0.48,2.1 0.3,1.08 0.6,2.1 v 0.18 q 1.02,-0.12 1.98,-0.12 0.96,0 1.92,0 l 3.96,-0.18 v -0.3 q -0.12,-0.54 -0.3,-1.08 -0.18,-0.54 -0.36,-1.14 v -0.06 q -0.24,-0.6 -0.36,-1.08 -0.12,-0.54 -0.24,-1.02 v -0.24 q -1.98,0 -3.96,0.06 -1.92,0 -3.84,0.06 v 0.24 q 0,0.12 0.06,0.24 0.06,0.06 0.06,0.18 z m 12.54,16.98 -0.42,-1.62 q -0.24,-0.6 -0.42,-1.2 -0.12,-0.66 -0.24,-1.32 v -0.18 l -3.78,0.42 q -0.96,0.12 -1.86,0.24 -0.9,0.06 -1.86,0.12 v 0.36 l 1.32,4.26 v 0.12 q 1.2,-0.12 2.28,-0.24 1.08,-0.12 2.16,-0.24 0.72,-0.12 1.44,-0.18 0.72,-0.12 1.38,-0.24 z m 20.64,2.7 -0.78,-5.16 v -0.18 q -4.62,0.84 -9.24,1.68 -4.56,0.84 -9.18,1.62 v 0.3 l 0.72,2.94 q 0.24,0.84 0.48,1.74 0.24,0.9 0.42,1.8 v 0.18 q 4.44,-1.08 8.82,-2.22 4.38,-1.2 8.76,-2.4 z m -4.86,-27.66 q 2.1,6.78 3.78,13.74 1.74,6.96 2.76,14.46 l -0.18,0.36 -0.12,-0.06 -0.78,0.54 h 0.06 l -0.36,0.24 h 0.06 l -1.02,0.72 -0.72,0.42 q -6.36,1.86 -12.84,3.66 -6.48,1.74 -13.02,3.18 l -1.5,-0.06 -0.12,-0.66 -0.6,-1.98 q -0.48,-1.44 -0.96,-2.88 -0.48,-1.44 -0.96,-2.88 -2.46,-7.2 -4.74,-14.4 -2.22,-7.26 -3.24,-14.64 0,-0.24 0,-0.48 0.06,-0.3 0.36,-0.48 0.06,0 0.18,-0.12 l -0.18,0.12 1.68,-1.2 q 0.24,-0.66 1.02,-0.72 8.04,0 15.54,0.72 7.56,0.66 14.94,1.68 z m 5.94,28.32 0.24,-0.24 q -1.02,-7.2 -2.76,-14.1 -1.68,-6.96 -3.78,-13.8 l -0.72,-0.6 q -7.44,-0.96 -14.94,-1.68 -7.5,-0.72 -15.36,-0.72 -0.54,0.12 -0.72,0.42 -0.18,0.3 -0.18,0.54 1.08,7.44 3.3,14.64 2.22,7.2 4.68,14.46 l 2.58,7.74 0.06,0.54 h 1.32 q 6.54,-1.44 13.02,-3.18 6.48,-1.8 12.9,-3.66 v -0.06 q 0.12,-0.06 0.18,-0.06 0.12,-0.06 0.24,-0.18 z m -19.68,-2.28 q 4.26,-0.72 8.64,-1.5 4.38,-0.78 8.7,-1.62 l 0.72,4.68 q -4.14,1.2 -8.28,2.28 -4.08,1.08 -8.34,2.1 -0.12,-0.72 -0.3,-1.32 -0.18,-0.6 -0.3,-1.2 l -0.18,-0.66 -0.12,-0.54 -0.24,-0.84 z m 1.74,5.52 q 3.6,-0.84 7.02,-1.68 3.42,-0.9 6.84,-1.86 l -0.48,-3.3 q -3.6,0.66 -7.26,1.32 -3.6,0.6 -7.2,1.26 v 0.06 l 0.24,0.78 0.12,0.54 0.18,0.66 q 0.12,0.54 0.24,1.08 0.18,0.48 0.3,1.14 z m -5.34,-10.44 q 0.12,0.66 0.24,1.26 0.18,0.6 0.36,1.14 l 0.36,1.38 q -0.6,0.06 -1.26,0.12 -0.6,0.06 -1.02,0.18 h -0.18 -0.18 q -0.84,0.18 -1.8,0.3 -0.96,0.06 -1.8,0.18 l -1.14,-3.78 q 0.78,-0.06 1.62,-0.12 0.84,-0.12 1.5,-0.24 z m -1.74,3.78 q -0.18,-0.48 -0.3,-1.02 -0.12,-0.54 -0.24,-1.02 l -3,0.42 q -0.12,0 -0.24,0.06 -0.06,0 -0.18,0 l 0.18,0.42 0.48,1.62 q 0.18,0 0.3,-0.06 0.06,0 0.12,0 0.12,-0.06 0.24,-0.06 0.66,-0.06 1.26,-0.12 0.66,-0.12 1.32,-0.24 z m -5.52,-13.14 q -0.48,0 -1.08,0.06 -0.54,0 -1.08,0 -0.72,-2.04 -1.08,-3.9 0,0 -0.06,-0.12 v -0.06 h 0.66 q 0.3,0 0.6,0 0.36,-0.06 0.72,-0.06 1.08,0 2.28,0 1.26,-0.06 2.46,-0.06 l 0.6,1.98 0.12,0.36 0.48,1.68 -3.36,0.12 h -0.6 z m 1.14,-2.4 q -0.84,0 -1.8,0 -0.9,0 -1.8,0.06 l 0.54,2.1 h 0.36 q 0.12,0 0.24,0 0.18,-0.06 0.36,-0.06 h 0.96 q 0.12,0 0.12,0 0.06,-0.06 0.24,-0.06 h 0.9 0.6 l -0.06,-0.18 q -0.24,-0.54 -0.42,-0.96 -0.12,-0.42 -0.24,-0.9 z" />
      <path
         id="path30"
         style="font-family:China"
         d="m 333.33859,62.38 q 1.92,6.66 3.48,13.32 1.62,6.66 2.64,14.16 l -0.3,0.06 q -0.12,0.24 -0.3,0.36 -0.18,0.12 -0.36,0.24 l -0.3,0.06 -1.38,1.14 -0.12,0.06 -0.24,0.18 -3,0.78 q -6.42,1.86 -12.96,3.6 -6.48,1.68 -13.02,3.06 h -0.24 q -0.42,-0.06 -0.72,-0.12 -0.24,-0.12 -0.3,-0.6 l -2.46,-7.14 q -1.2,-3.42 -2.4,-7.14 -1.2,-3.78 -2.28,-7.68 -1.08,-3.9 -2.04,-7.86 -0.9,-3.96 -1.44,-7.74 l 0.84,-0.96 1.32,-0.96 0.78,-0.66 q 7.68,0 15.84,0.84 8.16,0.84 15.42,1.8 l 1.08,0.12 q 0.24,0 0.54,0.06 0.36,0 0.84,0 l 0.78,0.78 z m 5.76,27.18 q -0.96,-7.14 -2.58,-13.74 -1.62,-6.66 -3.54,-13.26 v 0.06 l -0.18,-0.24 -0.66,-0.66 q -0.72,0 -1.32,-0.12 l -1.08,-0.12 q -3.6,-0.42 -7.5,-0.9 -3.9,-0.48 -7.92,-0.84 -3.96,-0.42 -7.98,-0.66 -3.96,-0.3 -7.68,-0.3 l -0.84,0.9 q 0.54,3.72 1.44,7.62 0.96,3.9 2.04,7.8 1.14,3.84 2.34,7.62 1.2,3.78 2.4,7.2 l 2.46,7.2 q 0.06,0.3 0.24,0.36 0.18,0.06 0.6,0.12 0.18,0 0.3,0.06 6.54,-1.38 12.9,-3.06 6.42,-1.74 12.78,-3.54 l 3.06,-0.9 q 0.48,-0.12 0.6,-0.48 h 0.12 z m -7.14,-8.94 -0.3,-1.14 0.24,-1.5 q 0.36,-2.1 0.66,-4.38 0.3,-2.34 0.48,-4.5 1.38,4.86 2.4,10.02 1.08,5.16 1.74,10.02 -0.84,0.3 -1.68,0.54 -0.84,0.18 -1.68,0.36 -0.3,-2.04 -0.72,-4.2 -0.42,-2.16 -0.84,-4.08 z m 0.18,-1.14 q 0,0.12 0,0.24 0,0.12 0.06,0.24 l 0.12,0.54 0.24,1.14 q 0.9,3.9 1.44,8.04 l 0.42,-0.12 0.36,-0.12 q -0.48,-2.94 -1.08,-6.06 -0.54,-3.12 -1.26,-6.3 l -0.18,0.96 z m -19.92,1.68 q 1.02,3.3 1.98,6.78 1.02,3.42 1.86,6.72 -1.2,0.42 -2.16,0.54 l -1.08,0.24 q -0.66,0.12 -1.32,0.24 -0.6,0.06 -1.26,0.18 -2.4,-7.08 -4.74,-14.28 -2.28,-7.26 -4.02,-14.82 l 7.38,10.02 3.42,4.44 z m -1.2,5.16 -0.96,-3.6 -3.3,-4.38 q -0.72,-0.96 -1.44,-1.8 -0.72,-0.9 -1.38,-1.86 1.5,5.28 3.18,10.62 1.68,5.34 3.36,10.26 l 0.9,-0.18 1.38,-0.3 0.66,-0.12 z m 20.22,-23.34 q 0,0.24 0.12,0.6 0,0.18 0.06,0.24 0,0.06 0.06,0.06 -0.42,5.64 -1.32,11.94 -0.84,6.3 -1.86,12.6 l -0.36,-0.48 -3.48,-5.28 0.48,-3.36 q 0.66,-4.2 1.2,-8.34 0.6,-4.2 0.96,-8.4 l 2.16,0.18 q 0.36,0.12 0.9,0.18 0.6,0 1.08,0.06 z m -3.78,23.64 q 0.9,-5.52 1.56,-10.92 0.72,-5.4 1.08,-10.56 l -0.06,-0.24 -0.06,-0.06 q -0.06,-0.06 -0.06,-0.36 V 64.3 64.12 h -0.06 l -0.12,-0.12 q -0.3,0 -0.48,0 -0.12,0 -0.42,-0.06 l -0.78,-0.12 -0.72,0.48 q -0.42,3.78 -0.96,7.56 -0.48,3.72 -1.08,7.5 l -0.48,3.24 z m 4.98,-23.94 q 1.98,6.6 3.54,13.2 1.56,6.54 2.58,13.44 -0.12,0.06 -0.12,0.24 -0.06,0.12 -0.06,0.18 0,0 -0.18,0 l -3,0.84 q -6.36,1.8 -12.72,3.54 -6.3,1.74 -12.84,3.06 h -0.24 q -0.12,-0.06 -0.3,-0.06 -0.18,-0.06 -0.18,0 V 97 l -2.34,-7.2 q -2.58,-7.44 -4.86,-14.94 -2.28,-7.5 -3.36,-15 l 0.42,-0.54 q 3.66,0 7.56,0.3 3.96,0.24 7.92,0.6 4.02,0.36 7.92,0.84 3.96,0.48 7.56,0.9 l 2.16,0.24 z m -15.84,32.04 q -0.84,-3.48 -1.8,-6.9 -0.96,-3.42 -2.04,-6.84 v -0.06 l -3.36,-4.44 q -2.28,-2.94 -4.56,-6 -2.28,-3.06 -4.38,-6.18 v 0.18 q 1.86,8.22 4.32,16.08 2.46,7.86 5.16,15.72 v 0.24 q 1.5,-0.48 2.94,-0.72 0.96,-0.12 1.92,-0.3 0.96,-0.18 1.8,-0.48 z m 6.3,-12.06 q -3.72,-5.64 -7.68,-11.04 -3.9,-5.4 -7.38,-11.22 v -0.06 q -1.8,-0.06 -3.06,-0.12 -1.2,-0.12 -2.16,-0.12 -0.9,-0.06 -1.62,-0.06 -0.66,-0.06 -1.26,-0.06 v 0.3 q 0,0.3 0,0.66 0.06,0.36 0.18,0.6 3,4.62 6.24,9.06 3.24,4.44 6.6,8.94 2.22,2.88 4.44,5.82 2.22,2.88 4.38,5.94 v -0.12 q 0.24,-1.38 0.42,-2.82 0.18,-1.44 0.48,-2.82 l 0.42,-2.76 z m 5.7,7.08 q 1.08,-6.36 1.98,-13.02 0.9,-6.66 1.38,-13.08 -0.06,0 -0.06,-0.06 V 63.46 63.4 q -0.12,-0.36 -0.12,-0.66 v -0.18 l -2.52,-0.24 -2.58,-0.24 v 0.18 q -0.36,4.26 -0.96,8.46 -0.6,4.2 -1.26,8.52 l -0.54,3.42 v 0.12 l 4.68,7.08 z m 4.08,-23.7 q -0.12,2.88 -0.48,5.94 -0.3,3.06 -0.84,6 l -0.24,1.32 v 0.12 l 0.6,2.46 q 0.48,2.04 0.9,4.32 0.48,2.22 0.78,4.32 v 0.18 q 1.08,-0.3 2.22,-0.6 1.14,-0.3 2.16,-0.6 v -0.3 q -0.84,-5.94 -2.16,-11.64 -1.26,-5.76 -2.94,-11.58 z m -25.2,-5.16 14.94,21.9 -0.48,2.7 q -0.18,1.08 -0.42,2.16 -0.18,1.08 -0.3,2.22 -1.26,-1.74 -2.22,-2.94 -0.96,-1.2 -2.1,-2.76 -0.36,-0.42 -0.66,-0.78 -0.3,-0.42 -0.6,-0.84 l -2.46,-3.36 q -3.36,-4.32 -6.6,-8.82 -3.24,-4.56 -6.3,-9.06 -0.12,-0.24 -0.12,-0.84 z m 9.78,19.2 q -1.56,-2.28 -3.12,-4.38 -1.5,-2.1 -3,-4.2 -1.44,-2.16 -2.88,-4.32 -1.44,-2.22 -2.82,-4.62 l -2.52,-0.18 h -0.66 -0.36 -0.48 q 2.88,4.2 5.88,8.4 3.06,4.2 6.12,8.22 0.6,0.84 1.2,1.68 0.6,0.84 1.26,1.68 l 0.48,0.6 0.36,0.42 0.42,0.6 1.8,2.34 q 0.12,0.3 0.3,0.54 0.24,0.18 0.42,0.36 l 0.06,-0.24 0.42,-2.58 q -0.48,-0.84 -1.02,-1.56 -0.54,-0.72 -1.08,-1.56 z" />
      <path
         id="path32"
         style="font-family:China"
         d="m 369.28422,68.2 q -3.42,-0.12 -6.9,-0.18 -3.42,-0.06 -6.72,-0.12 -0.48,-1.56 -0.9,-3.36 -0.36,-1.8 -0.72,-3.48 3.36,0.18 6.84,0.48 3.48,0.3 6.66,0.6 h -0.06 q 1.86,0.42 3.36,1.38 1.56,0.96 2.76,2.22 1.2,1.26 2.04,2.76 0.84,1.44 1.26,2.88 0.36,1.08 0.36,2.1 0,1.08 -0.3,2.16 -0.3,1.02 -0.96,1.92 -0.6,0.9 -1.62,1.56 -0.96,0.6 -2.34,0.84 h 0.06 l -0.84,0.12 q -0.84,0.12 -1.74,0.24 -0.9,0.06 -1.74,0.18 l -2.16,0.24 -6.42,0.66 -0.54,-1.98 q -0.12,-0.66 -0.3,-1.2 -0.18,-0.6 -0.36,-1.2 l -0.48,-2.04 13.2,-0.6 q 1.5,-0.12 1.98,-1.14 0.54,-1.08 0.3,-2.04 -0.36,-0.9 -1.26,-1.86 -0.9,-0.96 -2.46,-1.14 z m -3.78,-4.32 q -2.64,-0.24 -5.34,-0.48 -2.7,-0.3 -5.4,-0.48 0.3,1.2 0.54,2.4 0.24,1.14 0.6,2.28 3.3,0.06 6.66,0.12 3.36,0 6.72,0.12 1.68,0.18 2.7,1.26 1.02,1.02 1.32,2.1 0.3,0.9 -0.06,1.92 -0.36,0.96 -1.56,1.44 l -1.38,0.96 q -0.66,0.48 -1.62,0.54 l -10.38,0.6 q 0,0.18 0.06,0.3 0.18,0.54 0.3,1.14 0.18,0.54 0.3,1.2 l 0.54,1.74 q 1.5,-0.18 3,-0.36 1.56,-0.18 3.12,-0.3 l 2.1,-0.24 q 0.84,-0.12 1.8,-0.18 0.96,-0.12 1.74,-0.24 l 0.66,-0.06 V 79.6 q 0.54,-0.06 0.96,-0.18 0.48,-0.18 0.96,-0.42 0.6,-0.84 0.9,-1.92 0.3,-1.08 0.3,-2.16 0,-0.9 -0.36,-1.98 -0.42,-1.44 -1.26,-2.88 -0.78,-1.44 -1.98,-2.64 -1.14,-1.26 -2.64,-2.16 -1.5,-0.96 -3.3,-1.38 z m 16.08,25.98 V 89.8 h 0.12 z m -33.48,-16.14 q -0.3,-0.96 -0.6,-2.04 -0.24,-1.08 -0.54,-2.1 1.74,-0.06 3.48,-0.06 1.74,0 3.42,0 0.12,0.66 0.24,1.26 0.18,0.6 0.42,1.26 l 0.42,1.44 q -0.54,0.06 -1.08,0.06 -0.54,0 -1.02,0 -0.12,0 -0.3,0.06 -0.18,0 -0.36,0 h -0.6 z m -0.3,-2.52 0.6,2.28 3.18,-0.24 h 0.54 l -0.48,-2.04 z m 31.26,0 q 0.96,4.26 1.86,8.82 0.96,4.5 1.62,9.78 -0.06,0.06 -0.06,0.54 l -0.48,0.18 -1.74,1.32 q -7.26,2.22 -14.22,4.14 -6.96,1.86 -13.38,3.36 l -1.62,-0.06 -0.06,-0.72 q -1.56,-4.74 -3.18,-9.66 -1.62,-4.98 -3.06,-9.84 -1.44,-4.86 -2.58,-9.36 -1.14,-4.5 -1.74,-8.34 0.18,-0.66 0.54,-0.84 l 0.12,-0.12 1.44,-1.08 q 0.3,-0.6 1.08,-0.72 5.82,0 11.94,0.6 6.18,0.54 11.76,1.2 h 0.18 q 2.46,0.42 4.32,1.56 1.92,1.08 3.36,2.58 1.44,1.44 2.4,3.24 0.96,1.74 1.5,3.42 z m 3.06,18.96 q 0,-0.42 0.06,-0.48 -0.6,-4.98 -1.56,-9.48 -0.9,-4.56 -1.92,-8.94 -0.54,-1.68 -1.5,-3.36 -0.96,-1.74 -2.34,-3.18 -1.38,-1.5 -3.24,-2.58 -1.86,-1.08 -4.26,-1.5 h -0.06 q -5.82,-0.66 -11.76,-1.14 -5.88,-0.54 -11.88,-0.54 -0.84,0.06 -1.02,0.84 0.6,3.9 1.74,8.4 1.14,4.44 2.46,9.06 1.38,4.56 2.82,9 1.44,4.38 2.76,8.22 l 0.72,2.52 0.12,0.54 1.32,0.06 q 6.54,-1.44 13.38,-3.36 6.9,-1.92 14.16,-4.08 z m -24.3,-5.88 q 0.72,2.46 1.44,5.1 0.72,2.58 1.38,5.1 l -2.76,0.72 q -0.78,0.24 -1.44,0.42 -0.66,0.12 -1.44,0.3 l -2.04,-6 q -0.42,-1.14 -0.78,-2.34 -0.36,-1.26 -0.72,-2.46 l -0.42,-1.26 q 1.56,-0.12 3.24,-0.3 1.74,-0.24 3.3,-0.48 z m 0,10.62 q 0,0 0.24,-0.12 l -2.4,-9 -0.3,-0.96 -3.48,0.54 0.54,1.5 q 0.24,0.78 0.42,1.56 0.18,0.72 0.48,1.38 l 1.92,5.76 q 0,-0.06 0.06,-0.06 0.06,0 0.12,-0.06 z m 23.82,-5.4 q -0.06,0 -0.06,0.3 -6.9,2.1 -13.68,3.96 -6.72,1.86 -13.44,3.36 l -0.66,-0.06 -0.12,-0.24 -0.84,-2.4 v -0.06 q -2.94,-8.64 -5.64,-17.22 -2.64,-8.58 -4.02,-17.28 0.06,-0.36 0.6,-0.48 5.94,0.06 11.76,0.6 5.88,0.54 11.76,1.2 2.28,0.42 4.02,1.44 1.8,1.02 3.12,2.46 1.38,1.38 2.28,3.06 0.9,1.68 1.44,3.3 1.14,4.5 2.04,9 0.9,4.44 1.44,9.06 z m -28.2,-28.68 q 0.78,3.72 1.8,7.38 v 0.18 q 3.54,0 7.02,0.12 3.48,0.06 7.02,0.18 1.32,0.12 2.1,0.96 0.78,0.84 1.08,1.68 v 0.06 q 0.3,0.78 -0.12,1.62 -0.42,0.78 -1.62,0.9 l -13.8,0.72 v 0.24 l 0.6,2.28 q 0.3,1.14 0.6,2.28 0.3,1.14 0.66,2.34 v 0.18 l 6.9,-0.78 q 1.62,-0.18 3.24,-0.36 1.68,-0.18 3.24,-0.3 1.44,-0.24 2.52,-0.9 1.08,-0.72 1.74,-1.68 0.72,-0.96 1.02,-2.1 0.36,-1.14 0.36,-2.34 0,-0.66 -0.12,-1.14 -0.06,-0.54 -0.24,-1.14 -0.48,-1.5 -1.32,-3 -0.84,-1.56 -2.1,-2.88 -1.26,-1.32 -2.88,-2.28 -1.56,-0.96 -3.54,-1.38 -3.48,-0.3 -7.02,-0.6 -3.54,-0.36 -7.14,-0.54 z m -7.32,7.98 q 1.5,-0.06 3.18,-0.06 1.74,0 3.42,0 -0.42,-1.56 -0.84,-3.18 -0.36,-1.62 -0.66,-3.12 v -0.6 l 0.42,-0.24 q -1.98,-0.12 -4.02,-0.24 -1.98,-0.12 -3.9,-0.18 0.48,2.04 0.9,4.08 0.48,2.04 1.02,4.14 l 0.48,-0.36 z m 0.36,0.6 q 0.3,1.2 0.54,2.34 0.3,1.14 0.66,2.28 v 0.24 l 3.9,-0.18 q 0.96,-0.06 1.92,-0.06 0.96,0 1.98,-0.12 v -0.3 l -0.48,-1.68 -0.66,-2.7 v -0.18 q -1.98,0 -3.96,0 -1.92,0 -3.9,0.06 z m 3.66,13.68 2.22,-0.24 3.96,-0.36 -0.36,-1.38 -0.66,-2.4 -0.6,-2.28 v -0.48 l 1.86,-1.38 v -0.3 l 13.8,-0.66 q 0,-0.12 -0.12,-0.72 -0.24,-0.84 -1.02,-1.62 -0.72,-0.78 -1.98,-0.9 -3.06,-0.12 -6.18,-0.24 -3.12,-0.12 -6.18,-0.12 l 0.42,1.8 0.54,1.74 v 0.72 q -0.12,0 -0.24,0.06 -0.06,0 -0.18,0 l -1.74,1.32 q -0.66,0.06 -1.44,0.12 -0.72,0 -1.38,0 -0.3,0 -0.66,0.06 -0.36,0 -0.72,0 h -2.16 l 2.4,7.86 0.42,-0.36 z m 11.04,11.52 q -0.66,-2.64 -1.38,-5.22 -0.72,-2.64 -1.44,-5.28 l -0.36,-1.26 V 82.6 q -1.86,0.24 -3.72,0.42 -1.86,0.12 -3.78,0.36 v 0.3 q 0.48,1.56 0.96,3.18 0.48,1.62 1.02,3.24 l 2.1,6.24 v 0.12 q 0.9,-0.18 1.74,-0.36 0.9,-0.18 1.74,-0.42 1.38,-0.48 3.12,-0.78 z m 0.36,0.42 q 4.38,-1.02 8.88,-2.28 4.5,-1.26 8.82,-2.52 -0.36,-3.18 -0.96,-6.24 -0.6,-3.12 -1.26,-6.36 -1.08,1.74 -2.82,2.58 l -1.02,0.72 q -1.08,0.9 -3,1.26 -1.08,0.12 -2.16,0.24 -1.08,0.12 -2.16,0.24 l -2.22,0.24 -5.1,0.48 0.18,0.6 0.24,1.08 q 0.66,2.28 1.32,4.74 0.66,2.4 1.26,4.68 z" />
      <path
         id="path34"
         style="font-family:China"
         d="m 422.95516,93.52 q 0,0 -0.12,0.12 z m -31.98,-29.64 v -0.06 z m 31.86,29.76 -0.24,0.06 z m -17.76,3.48 -0.36,0.3 0.42,-0.3 z m -6.72,-26.52 q -0.3,0.72 -0.06,1.26 l 1.62,6.06 0.84,2.82 0.42,1.14 1.14,4.02 q 0.42,0.84 1.56,1.68 1.14,0.84 2.34,0.9 3.42,-0.54 6.78,-1.14 3.42,-0.6 6.84,-1.26 0.24,-0.36 0.12,-0.84 -0.6,-2.64 -1.2,-5.28 -0.6,-2.64 -1.26,-5.28 l -0.3,-1.02 q -0.24,-0.9 -1.14,-1.68 -0.84,-0.78 -2.16,-1.08 h -0.06 q -3.84,-0.12 -7.68,-0.18 -3.78,-0.06 -7.68,-0.12 z m 21.18,17.52 q -0.42,0.42 -1.14,0.6 -3.6,0.6 -7.08,1.26 -3.48,0.6 -7.08,1.08 -0.96,0.12 -1.8,-0.12 -0.84,-0.3 -1.56,-0.78 -0.66,-0.48 -1.2,-1.08 -0.48,-0.66 -0.72,-1.32 l -1.02,-4.02 -0.48,-1.14 -0.84,-2.76 -1.68,-6.06 q -0.12,-0.84 0.18,-1.8 0.36,-1.02 1.2,-1.68 l 0.18,-0.12 1.2,-0.9 q 0.48,-0.6 1.2,-0.96 0.72,-0.36 1.74,-0.36 7.86,0.12 15.42,0.36 h 0.12 q 0.3,0.06 0.54,0.06 0.24,0 0.42,0.12 l 0.06,-0.06 v 0.12 q 1.38,0.36 2.16,1.26 0.84,0.84 1.14,1.68 l 0.24,1.32 0.72,2.82 0.48,2.1 q 0.36,1.44 0.66,3 0.36,1.56 0.6,2.82 0.12,0.96 -0.42,2.04 -0.54,1.08 -1.86,1.56 l -1.14,0.84 z m -22.92,-25.08 q -1.02,0 -1.98,0.18 -0.9,0.12 -1.8,0.6 -1.38,1.2 -2.22,2.88 -0.78,1.62 -0.78,3.3 0,0.48 0.12,1.02 0.12,0.48 0.24,1.02 1.98,7.38 4.62,14.94 0.6,1.5 1.68,3 1.08,1.5 2.52,2.76 1.44,1.2 3.18,1.98 1.8,0.72 3.78,0.72 0.36,0 0.84,-0.06 0.48,-0.06 0.96,-0.18 l 13.26,-3.36 q 0.54,-0.18 1.32,-0.6 2.1,-2.28 2.1,-5.16 0,-0.3 0,-0.66 0,-0.42 -0.12,-0.9 -0.66,-2.76 -1.26,-5.4 -0.6,-2.64 -1.26,-5.4 -0.42,-1.5 -1.32,-3 -0.84,-1.56 -2.1,-2.82 -1.26,-1.32 -2.88,-2.28 -1.62,-0.96 -3.54,-1.38 -3.42,-0.36 -6.9,-0.6 -3.42,-0.3 -6.84,-0.54 h -0.96 q -0.12,0 -0.18,0 -0.06,-0.06 -0.18,-0.06 z m 17.64,-2.52 q 2.52,0.54 4.5,1.74 1.98,1.2 3.48,2.76 1.5,1.5 2.52,3.3 1.02,1.74 1.62,3.48 1.5,5.1 2.46,10.8 v -0.06 q 0.12,0.48 0.18,0.96 0.06,0.48 0.06,0.96 0,2.52 -1.5,4.92 -1.44,2.34 -4.2,3.84 l -0.42,0.3 0.18,-0.12 -0.54,0.3 q -1.14,0.84 -2.46,1.38 -1.26,0.48 -2.64,0.9 -1.32,0.36 -2.7,0.66 -1.32,0.3 -2.64,0.72 l -3.18,0.9 -2.58,0.54 q -0.6,0.12 -1.32,0.18 -0.66,0.06 -1.32,0.06 -2.64,0 -4.92,-0.9 -2.28,-0.9 -4.14,-2.34 -1.8,-1.5 -3.12,-3.3 -1.32,-1.8 -1.98,-3.6 -1.26,-3.72 -2.46,-7.38 -1.14,-3.66 -2.28,-7.44 -0.36,-1.26 -0.36,-2.64 0,-2.28 1.2,-4.56 1.2,-2.34 3.36,-3.9 l 0.66,-0.54 q 1.62,-1.56 3.84,-2.52 2.28,-1.02 5.1,-0.9 3.9,0.3 7.74,0.6 3.9,0.3 7.68,0.9 z m 1.8,8.58 q 1.56,0.18 2.34,1.08 0.84,0.9 1.14,1.8 0.72,2.94 1.44,5.82 0.72,2.88 1.38,5.82 0.12,0.84 -0.36,1.68 -0.42,0.84 -1.62,1.08 -3.6,0.66 -7.08,1.26 -3.42,0.6 -7.02,1.2 -1.68,0.12 -2.82,-0.78 -1.08,-0.96 -1.5,-2.04 -0.42,-1.44 -0.78,-2.64 -0.36,-1.2 -0.84,-2.58 -0.6,-2.16 -1.26,-4.38 -0.66,-2.22 -1.14,-4.44 -0.18,-0.48 -0.12,-1.02 0.12,-0.6 0.48,-1.08 0.36,-0.48 0.9,-0.78 0.6,-0.3 1.44,-0.3 3.96,0.06 7.8,0.12 3.84,0.06 7.62,0.18 z m -2.04,-7.74 q 2.34,0.48 4.2,1.62 1.86,1.08 3.24,2.58 1.44,1.44 2.4,3.18 1.02,1.68 1.62,3.36 0.66,2.7 1.32,5.34 0.66,2.58 1.14,5.28 0.18,0.9 0.18,1.74 0,2.7 -1.68,5.1 -1.62,2.4 -4.92,3.54 -2.58,0.72 -5.22,1.44 -2.64,0.66 -5.34,1.32 l -2.58,0.66 q -0.6,0.12 -1.26,0.18 -0.6,0.06 -1.26,0.06 -2.46,0 -4.62,-0.84 -2.1,-0.9 -3.84,-2.22 -1.74,-1.38 -3,-3.06 -1.2,-1.74 -1.86,-3.48 -1.26,-3.72 -2.52,-7.38 -1.2,-3.72 -2.22,-7.56 -0.36,-1.14 -0.36,-2.4 0,-1.8 0.78,-3.6 0.78,-1.86 2.22,-3.3 1.5,-1.44 3.54,-2.28 2.1,-0.9 4.68,-0.84 3.9,0.36 7.68,0.72 3.84,0.36 7.68,0.84 z m 10.74,10.56 q -0.42,-1.62 -1.38,-3.24 -0.9,-1.62 -2.28,-2.94 -1.32,-1.38 -3.06,-2.34 -1.74,-1.02 -3.78,-1.5 -3.72,-0.36 -7.68,-0.6 -3.96,-0.3 -7.74,-0.6 -2.22,0 -4.08,0.84 -1.8,0.78 -3.12,2.1 -1.26,1.32 -1.98,3 -0.66,1.68 -0.66,3.36 0,1.32 0.24,2.22 1.02,3.78 2.22,7.5 1.2,3.72 2.52,7.5 0.54,1.62 1.62,3.24 1.14,1.56 2.7,2.88 1.62,1.32 3.54,2.16 1.98,0.78 4.14,0.78 1.08,0 2.1,-0.18 3.3,-0.78 6.66,-1.62 3.42,-0.9 6.72,-1.68 2.82,-1.08 4.38,-3.36 1.56,-2.34 1.56,-4.86 0,-0.9 -0.18,-1.92 -0.6,-2.7 -1.2,-5.34 -0.6,-2.64 -1.26,-5.4 z m -10.68,-11.04 q -3.84,-0.48 -7.68,-0.84 -3.84,-0.42 -7.74,-0.72 -2.7,-0.06 -4.86,0.84 -2.16,0.9 -3.72,2.4 -1.5,1.5 -2.34,3.42 -0.78,1.92 -0.78,3.84 0,1.44 0.36,2.58 1.02,3.84 2.22,7.5 1.2,3.66 2.46,7.44 0.66,1.74 1.92,3.54 1.32,1.74 3.12,3.18 1.8,1.38 4.02,2.28 2.28,0.9 4.8,0.9 1.44,0 2.7,-0.18 l 2.58,-0.6 3.18,-0.84 q 1.92,-0.48 3.72,-0.96 1.8,-0.54 3.66,-1.08 1.68,-0.6 3,-1.56 1.32,-1.02 2.22,-2.22 0.9,-1.2 1.32,-2.58 0.48,-1.38 0.48,-2.76 0,-0.42 -0.06,-0.84 -0.06,-0.48 -0.18,-0.96 -0.48,-2.88 -1.14,-5.46 -0.66,-2.64 -1.32,-5.28 -0.6,-1.74 -1.62,-3.48 -1.02,-1.8 -2.52,-3.3 -1.44,-1.5 -3.42,-2.58 -1.92,-1.14 -4.32,-1.68 z m 10.14,11.22 q 0.66,2.7 1.26,5.4 0.66,2.64 1.2,5.4 0.12,0.48 0.12,0.84 0.06,0.36 0.06,0.84 0,1.08 -0.42,2.28 -0.42,1.14 -1.14,2.22 -0.72,1.02 -1.8,1.86 -1.02,0.84 -2.28,1.38 -3.06,0.72 -6.6,1.62 -3.54,0.9 -6.72,1.68 -1.02,0.18 -1.92,0.18 -2.04,0 -3.9,-0.78 -1.86,-0.84 -3.36,-2.1 -1.5,-1.26 -2.58,-2.82 -1.08,-1.56 -1.62,-3.06 -1.32,-3.72 -2.52,-7.44 -1.2,-3.78 -2.22,-7.44 -0.18,-0.54 -0.24,-1.02 -0.06,-0.54 -0.06,-1.14 0,-1.62 0.66,-3.18 0.66,-1.56 1.86,-2.82 1.26,-1.26 3,-2.04 1.74,-0.78 3.84,-0.78 0.12,0 0.3,0.06 0.24,0 0.36,0 0.18,0.06 0.42,0.06 0.24,0 0.36,0 3.54,0.3 7.02,0.54 3.48,0.18 6.9,0.6 h -0.06 q 1.92,0.42 3.54,1.44 1.68,0.96 3,2.28 1.32,1.26 2.22,2.82 0.9,1.56 1.32,3.12 z m -8.16,-3.42 q -7.56,-0.24 -15.42,-0.36 -0.9,0 -1.62,0.36 -0.66,0.36 -1.08,0.96 -0.42,0.54 -0.6,1.26 -0.18,0.66 0,1.26 l 1.68,6.06 0.84,2.82 0.42,1.08 1.08,3.96 q 0.54,1.26 1.8,2.34 1.32,1.08 3.18,0.9 3.6,-0.6 7.08,-1.14 3.48,-0.6 7.08,-1.26 1.44,-0.36 1.92,-1.38 0.54,-1.08 0.42,-1.98 -0.48,-2.52 -1.2,-5.28 -0.66,-2.82 -1.26,-5.4 l -0.3,-1.2 q -0.3,-0.9 -1.26,-1.86 -0.96,-0.96 -2.7,-1.14 z m 4.02,24.12 h -0.18 z m -3,-23.82 q -0.06,0 -0.12,-0.06 0.12,0.06 0.12,0.06 z" />
      <path
         id="path36"
         style="font-family:China"
         d="m 464.98141,80.32 h -0.06 z m -1.56,-6.18 q 0.06,-0.06 0.06,-0.12 z m -25.44,-2.88 0.12,0.48 q 0.12,0.42 0.24,0.84 0.12,0.36 0.24,0.72 0.84,0 1.68,0 0.84,-0.06 1.74,-0.12 h 0.6 v -0.12 q -0.42,-0.78 -0.54,-1.8 z m 22.98,12 0.78,0.72 q 1.14,1.2 1.92,2.1 0.78,0.9 1.38,1.68 0.66,0.72 1.2,1.38 0.54,0.6 1.08,1.26 l 1.44,-0.48 -0.6,-0.6 q -1.38,-1.74 -2.28,-2.76 -0.84,-1.08 -1.38,-1.74 -0.54,-0.66 -0.9,-1.02 -0.3,-0.42 -0.6,-0.78 h -0.12 l -0.96,0.12 h -0.42 z m -18.78,2.04 0.42,0.96 0.42,1.32 1.68,4.98 1.02,2.94 1.14,-0.18 1.8,-0.42 h 0.06 l -0.18,-0.72 -0.18,-0.54 q -0.24,-0.9 -0.48,-1.74 -0.24,-0.9 -0.48,-1.74 l -0.42,-1.26 -1.2,-3.9 h -0.12 z m 14.34,-21.42 q -2.82,-0.3 -5.64,-0.54 -2.76,-0.24 -5.52,-0.42 l 0.12,0.42 q 0.18,1.08 0.36,2.1 0.18,1.02 0.54,2.1 3.54,0 6.96,0.06 3.42,0.06 7.14,0.18 1.68,0.18 2.76,1.26 1.08,1.02 1.44,2.04 0.24,0.96 -0.18,1.98 -0.42,0.96 -1.62,1.44 l -0.42,0.3 -1.02,0.78 q 1.14,0.66 2.04,1.5 0.96,0.78 1.92,1.68 0.48,-0.84 0.66,-1.74 0.24,-0.96 0.24,-1.86 0,-0.96 -0.36,-2.16 -0.54,-1.32 -1.44,-2.76 -0.9,-1.44 -2.16,-2.7 -1.2,-1.32 -2.7,-2.28 -1.5,-1.02 -3.12,-1.38 z m -25.02,-3.66 1.32,-0.9 0.72,-0.72 q 1.02,0 3,0.06 1.98,0.06 4.38,0.18 2.46,0.12 5.1,0.3 2.7,0.18 5.1,0.36 2.46,0.18 4.44,0.36 1.98,0.18 3,0.36 h 0.06 q 2.4,0.48 4.32,1.62 1.92,1.08 3.36,2.58 1.44,1.44 2.46,3.18 1.02,1.68 1.74,3.36 0.18,0.72 0.24,1.44 0.06,0.72 0.06,1.38 0,1.86 -0.84,3.66 -0.84,1.8 -2.82,3.18 0.12,0 0.12,0.12 l 0.54,0.72 1.56,1.92 q 0.6,0.72 1.38,1.68 0.78,0.9 1.56,1.92 0.78,0.96 1.44,1.92 0.72,0.9 1.2,1.62 l -0.6,0.06 -1.74,1.32 -0.96,0.18 q -1.02,0.3 -2.22,0.66 -1.14,0.36 -2.04,0.66 -6.12,1.62 -12.18,3.24 -6,1.56 -12.12,2.88 l -1.5,-0.18 -0.18,-0.54 -1.92,-5.52 q -1.32,-3.66 -2.64,-7.62 -1.32,-4.02 -2.52,-8.1 -1.14,-4.08 -2.16,-8.22 -0.96,-4.2 -1.62,-8.22 z m 41.94,29.52 q 0.06,0.06 0.06,0 z m -3.78,-18.42 q 0.12,0.66 0.18,1.26 0.06,0.6 0.06,1.2 0,1.8 -0.84,3.54 -0.84,1.74 -2.94,2.94 v 0.36 q 0.72,0.84 1.32,1.62 0.66,0.78 1.38,1.62 1.14,1.38 2.28,2.94 1.2,1.5 2.34,2.94 l -0.12,0.06 v 0.24 q 0,0.12 -0.06,0 -0.06,-0.12 -0.06,-0.06 -1.02,0.3 -2.04,0.6 -0.96,0.24 -1.92,0.6 -6.12,1.74 -12.12,3.3 -6,1.5 -12.18,2.82 l -0.6,-0.12 -0.12,-0.06 V 97 q -2.1,-6 -3.84,-11.04 -1.68,-5.04 -3.06,-9.48 -1.38,-4.5 -2.4,-8.52 -0.96,-4.08 -1.56,-8.04 l 0.48,-0.48 q 1.02,0 2.94,0.06 1.98,0.06 4.38,0.24 2.4,0.12 4.98,0.3 2.64,0.12 5.04,0.3 2.4,0.18 4.32,0.36 1.98,0.12 3,0.3 2.34,0.48 4.14,1.56 1.8,1.08 3.12,2.52 1.38,1.44 2.34,3.12 0.96,1.62 1.56,3.18 z m -24.9,-2.28 q -0.84,0.06 -1.8,0.06 -0.96,0 -1.86,0 h -2.28 q -0.6,0 -1.14,0 -0.48,0 -1.02,0.06 v 0.36 q 0.12,0.3 0.18,0.72 0.12,0.36 0.24,0.72 0.18,0.9 0.36,1.68 0.24,0.78 0.36,1.26 v 0.18 q 2.1,-0.06 4.14,-0.12 2.1,-0.06 4.2,-0.12 V 73.6 q -0.18,-0.54 -0.36,-1.02 -0.18,-0.54 -0.3,-1.2 v -0.06 q -0.24,-0.54 -0.42,-1.08 -0.18,-0.54 -0.3,-1.02 z m 3.9,13.62 q 0.06,0 0,0.06 z m 0,0.06 q -0.24,0 -0.66,0.06 -0.42,0 -0.66,0 l -6.54,0.66 v 0.36 q 1.02,3.18 2.16,6.3 1.14,3.06 2.22,6.3 v 0.12 l 1.98,-0.42 q 1.2,-0.3 2.4,-0.54 1.26,-0.24 2.46,-0.54 v -0.3 q -0.66,-1.92 -1.14,-3.78 -0.48,-1.92 -1.02,-3.84 l -1.2,-4.26 z m 10.26,-1.74 4.5,-0.48 1.08,-0.3 v -0.36 q -1.02,-1.14 -2.46,-2.1 -1.38,-1.02 -3.06,-1.74 -1.62,-0.78 -3.42,-1.2 -1.8,-0.48 -3.6,-0.48 -0.72,0.06 -1.56,0.12 -0.78,0 -1.44,0 -0.3,0 -0.72,0.06 -0.36,0 -0.66,0 v 0.3 q 0.3,1.74 0.84,3.48 0.6,1.74 1.02,3.48 v 0.18 z m -1.2,1.08 q 1.14,0.48 1.98,1.08 0.9,0.6 1.38,1.32 2.28,2.52 3.54,4.02 1.32,1.5 2.4,2.76 v 0.12 l 5.4,-1.62 v -0.3 q -0.54,-0.84 -1.2,-1.56 -0.66,-0.72 -1.32,-1.56 -1.08,-1.38 -2.22,-2.82 -1.14,-1.5 -2.4,-2.88 v -0.06 l -0.48,0.3 -0.84,0.12 h -0.36 q -1.44,0.12 -2.94,0.3 -1.44,0.18 -2.94,0.36 z m 7.68,-2.16 q 1.98,-0.96 2.88,-2.7 0.96,-1.74 0.96,-3.54 0,-0.66 -0.12,-1.2 -0.12,-0.54 -0.24,-1.2 -0.54,-1.44 -1.5,-2.94 -0.9,-1.56 -2.22,-2.88 -1.32,-1.38 -2.94,-2.4 -1.62,-1.02 -3.48,-1.44 -3.66,-0.36 -7.38,-0.66 -3.72,-0.3 -7.32,-0.48 v 0.3 q 0.12,0.42 0.12,0.84 0.06,0.42 0.18,0.96 0.3,1.38 0.66,2.88 0.36,1.5 0.78,2.76 v 0.12 q 3.66,0 7.26,0.12 3.66,0.12 7.44,0.24 1.38,0.12 2.22,0.96 0.84,0.84 1.08,1.68 0.24,0.84 -0.24,1.68 -0.42,0.78 -1.62,0.9 -0.78,0 -1.5,0 -0.66,0 -1.32,0.06 -0.36,0.06 -0.9,0.12 -0.48,0 -0.84,0 v 0.48 q 2.64,0.84 4.56,2.28 1.98,1.38 3.48,3 z m -6.84,-19.32 q -0.3,-0.06 -2.1,-0.18 -1.74,-0.18 -4.32,-0.36 -2.52,-0.24 -5.52,-0.48 -2.94,-0.24 -5.64,-0.36 -2.64,-0.18 -4.68,-0.24 -1.98,-0.12 -2.64,-0.06 l -0.84,0.84 q 0.6,4.08 1.56,8.16 1.02,4.08 2.22,8.1 1.2,3.96 2.52,7.92 1.38,3.9 2.7,7.68 l 1.92,5.58 0.12,0.54 1.32,0.06 q 6.12,-1.32 12.12,-2.88 6,-1.56 12.06,-3.3 1.02,-0.3 2.16,-0.6 1.2,-0.36 2.22,-0.6 v -0.06 l 0.6,-0.06 q -1.02,-1.5 -2.52,-3.42 -1.5,-1.92 -2.64,-3.3 l -1.62,-1.92 -0.42,-0.6 q -0.12,-0.06 -0.18,-0.18 -0.06,-0.18 -0.18,-0.3 2.04,-1.32 2.88,-3.12 0.84,-1.8 0.84,-3.66 0,-1.2 -0.36,-2.76 h -0.06 q -0.66,-1.62 -1.68,-3.3 -1.02,-1.68 -2.4,-3.12 -1.38,-1.44 -3.24,-2.46 -1.86,-1.08 -4.2,-1.56 z m 0.12,13.92 h 0.48 q 0.66,-0.06 1.32,-0.06 0.72,-0.06 1.44,-0.06 1.56,-0.12 2.1,-1.14 0.54,-1.08 0.24,-2.04 -0.3,-1.02 -1.26,-1.98 -0.96,-0.96 -2.52,-1.08 -3.78,-0.12 -7.26,-0.18 -3.48,-0.06 -7.08,-0.06 -0.36,-1.2 -0.6,-2.28 -0.18,-1.08 -0.42,-2.22 v 0.06 l -0.36,-0.9 -0.18,-1.56 q 3.42,0.18 7.02,0.48 3.66,0.3 7.08,0.66 h -0.06 q 1.68,0.36 3.18,1.38 1.56,0.96 2.82,2.28 1.26,1.26 2.22,2.76 0.96,1.5 1.44,2.82 0.36,1.38 0.36,2.28 0,1.56 -0.78,3.12 -0.72,1.5 -2.4,2.52 -1.5,-1.5 -3.18,-2.7 -1.62,-1.26 -3.6,-2.1 z m -9.36,12.84 0.36,1.26 q 0.36,0.9 0.6,1.98 0.24,1.02 0.54,2.04 l 0.48,2.04 q -0.36,0.12 -0.72,0.24 -0.36,0.06 -0.78,0.12 l -1.08,0.24 -1.74,0.3 -1.5,0.36 -1.14,-3.24 q -0.72,-2.16 -1.5,-4.44 -0.78,-2.28 -1.5,-4.38 0.72,-0.06 1.62,-0.12 0.9,-0.12 1.74,-0.18 0.84,-0.12 1.5,-0.18 0.72,-0.06 1.14,-0.06 h 0.24 q 0.06,0 0.18,0 0.18,-0.06 0.3,-0.06 h 0.12 z m -1.2,-12.36 h 0.54 q 0.06,0 0.12,0 0.06,-0.06 0.18,-0.06 0.54,0 1.38,0 0.9,-0.06 1.62,-0.12 1.68,0.06 3.42,0.48 1.74,0.42 3.3,1.08 1.56,0.66 2.88,1.56 1.38,0.9 2.34,1.92 l -0.66,0.24 -4.38,0.36 -9,1.08 z m 11.58,6.84 q 0.84,-0.06 1.56,-0.12 0.78,-0.12 1.56,-0.18 l 0.84,-0.12 h 0.3 l 0.96,-0.12 q 0.06,0 0.12,0 0.12,-0.06 0.18,-0.06 0.84,1.02 1.5,1.86 0.66,0.84 1.44,1.92 l 1.5,1.56 0.72,1.08 q -0.06,-0.12 0.3,0.36 0.42,0.42 0.54,0.6 l 0.6,0.84 -2.82,0.84 -1.8,0.48 -5.16,-5.88 -0.6,-0.66 q -0.48,-0.66 -1.2,-1.2 -0.72,-0.54 -1.5,-1.02 z m -14.82,-10.44 q 0.06,0.3 0.12,0.6 0.12,0.24 0.24,0.36 l 0.06,0.42 0.18,0.66 -3.48,0.12 q -0.96,0.06 -1.92,0.12 -0.9,0 -1.8,0 -0.24,-0.48 -0.36,-0.9 -0.06,-0.48 -0.18,-1.14 v 0.06 -0.42 q -0.3,-0.96 -0.42,-1.2 -0.06,-0.3 -0.12,-0.48 h 7.14 q 0.06,0.42 0.18,0.9 0.18,0.48 0.36,0.9 z m 24.36,-0.12 h -0.06 z m -23.88,1.14 q -0.12,-0.12 -0.12,-0.18 0,0.06 0.12,0.18 z" />
      <path
         id="path38"
         style="font-family:China"
         d="m 517.82453,70.84 q 1.26,4.38 2.22,9 0.96,4.62 1.68,9.36 v 0.42 q 0,0.3 -0.18,0.48 -0.12,0.12 -0.24,0.24 -0.18,0.12 -0.36,0.18 l -0.3,0.12 -1.38,0.96 q -0.12,0.12 -0.12,0.12 -0.12,0.12 -0.18,0.12 -0.06,0.06 -0.12,0.06 -6.18,1.62 -10.86,2.82 -4.62,1.2 -8.28,2.1 -3.66,0.9 -6.6,1.56 -2.94,0.6 -5.76,1.14 l -1.26,-0.06 -0.54,-0.66 q -2.4,-6.36 -4.8,-13.02 -2.34,-6.72 -4.02,-12.84 -0.18,-0.6 -0.3,-1.26 -0.12,-0.66 -0.12,-1.44 0,-2.1 1.08,-4.2 1.14,-2.16 3.12,-3.6 l 0.3,-0.18 0.42,-0.3 q 1.56,-1.62 3.84,-2.64 2.34,-1.02 5.28,-0.9 3.84,0.3 7.68,0.66 3.9,0.36 7.68,0.84 h 0.18 q 2.4,0.54 4.38,1.68 1.98,1.14 3.48,2.64 1.5,1.44 2.52,3.18 1.02,1.68 1.56,3.42 z m 3.48,18.36 q -0.66,-4.68 -1.68,-9.24 -0.96,-4.62 -2.16,-9 -0.54,-1.68 -1.56,-3.36 -0.96,-1.68 -2.46,-3.12 -1.44,-1.44 -3.36,-2.52 -1.92,-1.14 -4.32,-1.68 h -0.12 q -3.78,-0.48 -7.62,-0.84 -3.84,-0.36 -7.68,-0.66 -2.7,-0.12 -4.86,0.78 -2.16,0.84 -3.72,2.28 -1.5,1.44 -2.34,3.3 -0.84,1.8 -0.84,3.6 0,1.32 0.48,2.64 1.68,6.3 4.02,12.9 2.34,6.6 4.74,13.02 l 0.42,0.42 1.08,0.06 q 5.94,-1.38 10.08,-2.34 4.14,-1.02 6.84,-1.62 2.76,-0.66 4.32,-1.02 1.62,-0.42 2.46,-0.6 0.9,-0.24 1.2,-0.3 0.3,-0.06 0.54,-0.12 l 5.94,-1.5 q 0.12,-0.06 0.3,-0.18 0.3,-0.3 0.3,-0.48 z m -27.54,-1.68 q 0.48,1.74 1.08,3.6 0.6,1.86 1.14,3.6 -0.66,0.12 -1.38,0.3 -0.72,0.12 -1.32,0.18 l -3.48,0.9 q -0.78,-1.92 -1.44,-3.9 -0.66,-2.04 -1.26,-3.84 l -0.24,-0.48 3.78,-0.42 3,-0.36 z m -0.48,7.38 q -0.48,-1.44 -0.96,-2.94 -0.42,-1.5 -0.84,-2.88 l -0.06,-0.24 -2.82,0.36 -0.84,0.06 0.18,0.54 q 0.48,1.38 1.02,2.94 0.6,1.56 1.08,2.88 l 3.18,-0.72 z m 22.5,-5.88 q -0.24,-1.32 -0.48,-2.58 -0.18,-1.26 -0.48,-2.4 0.9,-0.18 1.92,-0.36 1.02,-0.18 1.86,-0.3 0.3,1.5 0.54,2.94 0.24,1.38 0.42,2.82 l -1.8,0.36 -1.86,0.48 z m -0.36,-3.72 q 0.24,0.84 0.36,1.8 0.18,0.9 0.3,1.86 l 0.12,0.54 0.9,-0.18 q -0.12,-0.66 -0.24,-1.32 -0.06,-0.72 -0.24,-1.44 l -0.24,-1.44 z m -9.78,-24.54 q 2.28,0.54 4.14,1.62 1.86,1.02 3.24,2.46 1.44,1.38 2.4,3 0.96,1.62 1.5,3.24 1.2,4.5 2.16,9.06 1.02,4.5 1.68,9.12 v 0.36 q 0,0.12 -0.18,0.12 l -6,1.56 q -6.36,1.62 -12.6,3.24 -6.24,1.56 -12.78,2.76 l -0.78,-0.06 -0.12,-0.18 q -2.46,-6.48 -4.74,-12.84 -2.28,-6.42 -4.02,-12.9 v -0.06 q -0.42,-1.2 -0.42,-2.52 0,-1.8 0.78,-3.54 0.84,-1.74 2.28,-3.06 1.5,-1.38 3.54,-2.16 2.1,-0.78 4.62,-0.66 7.62,0.48 15.3,1.44 z m -16.2,35.88 q 1.02,-0.18 2.04,-0.42 1.02,-0.24 1.92,-0.54 0.84,-0.18 1.62,-0.3 0.78,-0.12 1.62,-0.24 v -0.36 q -1.38,-3.9 -2.34,-7.44 l -0.18,-0.6 v -0.18 l -3.54,0.42 -4.32,0.54 v 0.24 q 0.84,2.22 1.56,4.44 0.78,2.16 1.62,4.26 z m 7.08,-1.2 q 0.12,0 0.18,-0.06 z m 16.68,-12.36 q -0.48,-1.56 -0.78,-3.3 -0.12,-0.66 -0.24,-1.26 -0.12,-0.66 -0.36,-1.2 v -0.18 q -4.44,0.18 -8.82,0.48 -4.38,0.3 -8.82,0.6 l -1.26,0.06 v 0.36 l 1.98,6.96 v 0.18 q 4.62,-0.54 9.18,-1.14 4.56,-0.66 9.12,-1.32 z m 5.88,-0.18 q -0.12,0 -0.3,0.06 -0.12,0 -0.24,0 l -4.32,0.66 v 0.3 q 0.36,1.26 0.54,2.58 0.24,1.26 0.48,2.58 0.06,0.3 0.06,0.66 0,0.3 0.12,0.72 v 0.18 l 2.52,-0.66 2.16,-0.48 v -0.3 q -0.24,-1.56 -0.48,-3.06 -0.24,-1.5 -0.54,-3.06 z m -1.68,-7.02 q -0.18,-0.48 -0.3,-1.02 -0.12,-0.6 -0.24,-1.14 -0.24,-0.66 -0.42,-1.38 -0.12,-0.78 -0.36,-1.38 v 0.06 q -0.48,-1.56 -1.38,-3.06 -0.9,-1.56 -2.22,-2.88 -1.32,-1.32 -3,-2.28 -1.68,-1.02 -3.66,-1.44 -3.78,-0.42 -7.68,-0.72 -3.84,-0.3 -7.62,-0.6 -2.16,0 -4.02,0.84 -1.86,0.78 -3.18,2.04 -1.32,1.26 -2.1,2.88 -0.72,1.56 -0.72,3.18 0,1.32 0.42,2.4 l 0.72,2.46 q 0.3,1.02 0.6,2.16 0.36,1.08 0.66,2.04 v 0.18 q 1.8,-0.18 3.6,-0.18 l 4.74,-0.3 v -0.36 l -0.6,-1.74 q -0.72,-1.8 -1.08,-3.42 -0.06,-0.36 -0.12,-0.72 0,-0.36 0,-0.78 0,-1.08 0.54,-1.92 0.6,-0.9 2.22,-0.78 2.82,0 5.58,0.06 2.82,0.06 5.64,0.18 l 4.32,0.12 q 1.5,0.48 2.28,1.32 0.84,0.84 1.26,1.92 0.42,1.08 0.6,2.28 0.24,1.2 0.6,2.34 v 0.18 q 0.6,0 1.2,-0.06 0.6,-0.06 1.2,-0.06 0.66,0 1.26,0 0.6,0 1.26,-0.12 z m -5.52,3.96 0.72,3.12 q -4.32,0.66 -8.64,1.26 -4.26,0.54 -8.52,1.02 l -1.98,-6.42 0.72,-0.06 5.88,-0.48 11.28,-0.72 q 0.18,0.54 0.24,0.96 0.06,0.42 0.18,0.78 z m -16.2,5.04 q 3.54,-0.36 7.08,-0.78 3.6,-0.48 7.2,-0.96 l -0.36,-1.68 -0.12,-0.6 q -0.06,-0.12 -0.06,-0.48 0,-0.3 -0.3,-1.08 l -11.1,0.72 -3.66,0.24 z m 20.64,-10.98 q 0.06,0.96 0.48,1.92 h -1.92 q -0.24,0 -0.6,0 -0.36,0 -0.66,0.06 -0.12,0 -0.3,0.06 -0.18,0 -0.3,0 h -0.06 q -0.3,-1.38 -0.6,-2.64 -0.3,-1.26 -0.84,-2.34 -0.54,-1.08 -1.38,-1.86 -0.84,-0.78 -2.28,-1.2 l -4.44,-0.12 q -2.82,-0.12 -5.64,-0.18 -2.76,-0.06 -5.58,-0.06 -1.86,-0.12 -2.58,0.9 -0.72,0.96 -0.72,2.28 0,0.42 0,0.84 0.06,0.42 0.12,0.78 0.18,0.9 0.48,1.8 0.3,0.9 0.6,1.68 l 0.54,1.5 q -0.66,0.06 -1.26,0.12 -0.6,0 -1.14,0 l -1.74,0.12 h -1.08 q -0.6,0 -1.08,0.06 -0.48,0 -1.08,0.06 -0.3,-1.02 -0.48,-1.74 -0.18,-0.78 -0.42,-1.68 l -0.18,-0.6 -0.72,-2.28 q -0.42,-1.08 -0.42,-2.4 0,-1.5 0.72,-3 0.72,-1.5 1.98,-2.64 1.32,-1.2 3,-1.92 1.74,-0.78 3.72,-0.9 l 4.38,0.36 q 2.76,0.24 5.46,0.48 2.76,0.18 5.46,0.48 h -0.06 q 1.92,0.42 3.54,1.38 1.62,0.96 2.88,2.28 1.26,1.26 2.16,2.76 0.9,1.5 1.38,3 0.12,0.12 0.12,0.36 0.06,0.18 0.12,0.36 l 0.12,0.78 z m -2.28,1.56 -0.36,-1.2 -0.06,-0.72 q -0.12,-0.48 -0.24,-0.66 -0.48,-1.5 -1.38,-2.94 -0.84,-1.5 -2.1,-2.76 -1.2,-1.26 -2.82,-2.22 -1.56,-0.96 -3.42,-1.38 -2.7,-0.3 -5.46,-0.54 -2.7,-0.24 -5.46,-0.48 -1.02,-0.12 -2.22,-0.12 -1.14,-0.06 -2.1,-0.18 -1.86,0.12 -3.36,0.9 -1.62,1.14 -2.64,2.7 -0.96,1.5 -0.96,3.12 0,0.54 0,1.14 0.06,0.54 0.36,1.14 l 0.72,2.34 0.12,0.6 q 0.12,0.12 0.12,0.36 0.06,0.24 0.12,0.54 0.12,0.48 0.3,1.14 0.18,0.6 0.48,1.08 h 1.74 0.84 0.06 q 0.06,0 0.06,0 0.06,-0.06 0.12,-0.06 l 1.2,-0.06 q -0.3,-0.78 -0.54,-1.56 -0.24,-0.84 -0.36,-1.74 -0.18,-0.72 -0.18,-1.62 0,-0.84 0.24,-1.62 0.3,-0.78 0.96,-1.2 l 0.18,-0.18 h -0.06 q 1.32,-1.26 2.16,-1.68 0.9,-0.48 2.1,-0.42 2.82,0 5.58,0.06 2.82,0.06 5.64,0.18 l 4.56,0.18 q 1.38,0.36 2.28,1.2 0.9,0.78 1.44,1.86 0.54,1.02 0.84,2.16 0.3,1.08 0.54,2.1 l 0.24,0.72 h 0.12 0.18 q 0.06,0 0.12,0 0.12,-0.06 0.3,-0.06 z" />
      <path
         id="path40"
         style="font-family:China"
         d="m 538.77953,77.56 q 0.24,0.96 0.54,1.92 0.3,0.96 0.6,1.98 0.84,3.12 1.8,6.48 0.96,3.3 1.8,6.48 -0.66,0.12 -1.44,0.36 -0.72,0.24 -1.38,0.42 l -1.02,0.3 -0.84,0.18 -1.08,0.3 -2.16,-6.78 q -0.9,-2.7 -1.86,-5.58 -0.9,-2.88 -1.8,-5.82 -0.9,-3 -1.74,-5.94 -0.78,-2.94 -1.38,-5.64 l 0.84,0.78 8.16,7.08 0.48,1.68 z m 2.04,17.22 -2.28,-8.34 -1.02,-3.48 -0.96,-3.3 -0.66,-2.28 -0.42,-1.74 q -1.32,-1.02 -2.52,-2.1 -1.2,-1.08 -2.4,-2.1 1.02,3.78 2.28,7.8 1.26,3.96 2.46,7.5 l 0.24,1.08 0.36,1.26 2.1,6.48 0.78,-0.24 0.84,-0.18 1.02,-0.3 z m 16.56,-5.52 q -4.32,-3.96 -8.7,-7.8 -4.38,-3.9 -8.7,-7.74 -0.66,-2.34 -1.38,-4.92 -0.66,-2.64 -1.2,-5.16 l 13.14,12.78 5.22,4.92 q 0.06,0.42 0.12,0.78 0.06,0.3 0.12,0.6 l 0.3,1.38 0.12,0.42 z m -18.3,-19.92 q 0.36,1.14 0.66,2.22 0.3,1.02 0.6,2.04 3.48,3.06 6.84,6.06 3.36,2.94 6.78,6.06 l -0.3,-1.44 q -0.24,-0.6 -0.24,-1.38 l -1.44,-1.26 q -0.96,-0.96 -2.04,-1.86 -1.02,-0.96 -1.74,-1.62 z m 19.74,-6.9 q 1.92,6.6 3.66,13.38 1.8,6.72 2.7,14.16 l -0.54,0.78 -0.54,0.18 -1.8,1.32 q -6.72,1.92 -13.44,3.78 -6.66,1.8 -13.5,3.36 l -0.72,-0.06 -0.9,-0.42 q -0.66,-2.1 -1.44,-4.32 -0.72,-2.22 -1.44,-4.32 -2.28,-6.9 -4.5,-14.1 -2.16,-7.2 -3.24,-14.88 0.12,-0.42 0.42,-0.54 l 1.68,-1.08 q 0.12,-0.3 0.42,-0.54 0.3,-0.3 0.9,-0.24 7.86,0.12 15.84,0.9 7.98,0.72 15.3,1.62 z m 6,27.42 q -0.84,-7.08 -2.64,-13.8 -1.74,-6.78 -3.72,-13.5 l -0.9,-0.78 q -7.62,-1.02 -15.36,-1.74 -7.68,-0.78 -15.72,-0.78 -0.54,-0.12 -0.72,0.12 -0.12,0.24 -0.24,0.54 1.02,7.5 3.18,14.64 2.16,7.14 4.5,14.22 0.72,2.04 1.44,4.2 0.78,2.16 1.38,4.26 l 0.84,0.3 0.54,0.12 q 6.9,-1.56 13.56,-3.42 6.72,-1.86 13.44,-3.78 z m -2.1,-3.24 q -0.12,-0.12 -0.12,-0.18 0,0 0.12,0.12 z m -4.8,-23.88 q 2.04,6.72 3.78,13.56 1.8,6.78 2.64,13.5 l -0.24,0.3 q -6.72,1.92 -13.38,3.72 -6.6,1.8 -13.5,3.36 l -0.24,-0.06 -0.48,-0.12 v -0.06 q -0.66,-2.1 -1.38,-4.2 -0.66,-2.1 -1.38,-4.14 -2.34,-7.08 -4.56,-14.22 -2.16,-7.2 -3.3,-14.34 l 0.12,-0.06 q 0.06,-0.12 0.12,-0.18 0.06,-0.12 0.36,-0.06 7.86,0 15.54,0.78 7.74,0.72 15.42,1.74 z m -21.42,-0.54 q 0.66,2.94 1.38,5.82 0.72,2.82 1.56,5.7 v 0.18 q 4.68,4.14 9.3,8.28 4.68,4.08 9.3,8.28 v -0.24 q -0.3,-1.56 -0.6,-3.06 -0.24,-1.56 -0.6,-3.12 l -0.6,-2.76 v -0.12 l -5.34,-5.1 q -3.66,-3.48 -7.26,-6.96 -3.6,-3.48 -7.14,-7.08 z m 7.62,32.34 q -0.84,-3.36 -1.8,-6.6 -0.9,-3.3 -1.98,-6.66 l -1.98,-7.26 V 73.9 l -8.34,-7.2 -1.98,-1.92 v 0.3 q 1.32,6.18 3.18,12.18 1.92,6 3.9,12.12 0.54,1.68 1.08,3.42 0.6,1.74 1.14,3.54 v 0.24 q 0.9,-0.18 1.8,-0.42 0.9,-0.24 1.74,-0.48 0.84,-0.24 1.62,-0.42 0.78,-0.24 1.62,-0.42 z m 14.28,-3.24 -0.3,-0.24 -0.66,0.54 z m 4.74,-4.5 q -0.96,-6.06 -2.52,-12 -1.5,-5.94 -3.3,-11.94 v -0.18 l -2.7,-0.3 q -0.6,-0.12 -1.26,-0.12 -0.6,-0.06 -1.08,-0.12 v 0.3 l 0.72,2.94 q 1.08,3.96 2.1,7.8 1.02,3.84 1.92,7.8 v 0.12 l 4.02,3.96 v 0.06 l 2.1,1.92 z m -6.36,-23.7 q 1.74,5.64 3.18,11.46 1.44,5.82 2.46,11.58 l -0.12,-0.36 q -0.24,-0.24 -0.48,-0.48 -0.18,-0.3 -0.42,-0.48 l -3.9,-3.9 q -0.9,-4.02 -1.92,-7.86 -0.96,-3.9 -2.04,-7.8 l -0.66,-2.58 1.5,0.12 q 0.06,0 0.06,0.06 0.06,0 0.12,0 z m 2.22,18.78 q -1.02,-4.32 -2.16,-8.64 -1.14,-4.32 -2.34,-8.46 -0.12,0 -0.36,0 -0.18,0 -0.3,-0.06 l 0.12,0.42 q 0.36,1.62 0.9,3.66 0.54,1.98 1.08,4.14 0.54,2.1 1.02,4.14 0.48,2.04 0.84,3.66 z" />
      <path
         id="path42"
         style="font-family:China"
         d="m 580.52172,62.38 q -0.12,-0.42 -0.24,-0.66 -0.06,-0.3 -0.12,-0.54 9.72,0.42 19.02,1.62 l 0.66,2.1 0.18,0.84 q 0.12,0.66 0.3,1.32 0.18,0.6 0.36,1.26 -4.5,-0.18 -9.36,-0.3 -4.8,-0.12 -9.36,-0.12 -0.24,-0.66 -0.42,-1.38 -0.18,-0.72 -0.36,-1.38 V 64.9 l -0.3,-1.32 z m 16.5,2.16 q -3.96,-0.54 -7.92,-0.9 -3.9,-0.36 -7.98,-0.6 l 0.12,0.36 0.3,1.5 v 0.18 q 0,0.06 0,0.12 0.06,0 0.06,0.06 0.18,0.6 0.24,1.14 0.12,0.54 0.36,1.14 3.96,0.06 7.8,0.12 3.9,0.06 7.86,0.24 v -0.24 l -0.3,-1.2 z m 9.48,25.56 q 0.12,0 0.24,-0.06 -0.06,0.06 -0.24,0.06 z m -21,-8.82 q -0.3,-1.2 -0.66,-2.4 -0.3,-1.2 -0.72,-2.34 l -0.54,-1.68 10.74,-0.42 q 0.6,0 1.32,0 0.78,-0.06 1.44,-0.06 l 2.34,-0.12 1.32,5.4 q -1.26,0.12 -2.7,0.3 -1.38,0.12 -2.58,0.24 -0.96,0.12 -2.04,0.24 -1.08,0.06 -2.04,0.18 l -1.62,0.24 z m -1.02,-4.74 q 0.66,2.1 1.32,4.32 0.96,-0.06 1.92,-0.12 1.02,-0.12 2.04,-0.24 l 1.62,-0.18 1.56,-0.18 0.78,-0.06 1.62,-0.18 q 0.6,-0.06 1.32,-0.12 0.72,-0.12 1.38,-0.18 l -0.9,-3.6 q -0.48,0 -1.08,0.06 -0.54,0 -1.02,0 -0.6,0.06 -1.44,0.12 -0.84,0 -1.38,0 z m -4.86,-8.64 q -1.68,0 -3.48,0 -1.74,0 -3.3,0.06 -0.48,-1.74 -0.84,-3.54 -0.36,-1.8 -0.66,-3.54 1.56,0 3.3,0 1.8,0 3.36,0.06 l 0.6,2.52 q 0.24,1.14 0.48,2.28 0.24,1.08 0.54,2.16 z m 27,22.14 q 0,0.06 -0.06,0.06 h -0.06 q -6.36,1.86 -12.84,3.66 -6.48,1.74 -13.02,3.18 h -0.6 l -0.12,-0.18 V 96.7 l -2.52,-7.68 q -2.46,-7.26 -4.74,-14.46 -2.22,-7.26 -3.24,-14.58 0,-0.12 0.06,-0.18 0.12,-0.12 0.48,-0.24 7.68,0 15.06,0.72 7.44,0.72 14.82,1.68 l 0.42,0.36 0.06,-0.06 v 0.06 q 2.1,6.9 3.78,13.74 1.68,6.84 2.7,13.74 z m -26.94,-29.1 q 0.12,0.72 0.3,1.44 0.24,0.72 0.42,1.44 0.3,1.08 0.54,2.22 0.24,1.08 0.6,2.1 v 0.24 q 4.92,0 9.84,0.12 4.98,0.12 9.96,0.36 v -0.3 q -0.24,-0.72 -0.42,-1.44 -0.18,-0.78 -0.42,-1.56 -0.18,-0.72 -0.36,-1.44 -0.18,-0.78 -0.42,-1.56 v -0.18 q -5.04,-0.66 -10.02,-1.08 -4.98,-0.42 -10.02,-0.66 z m 3.9,15.72 q 0.9,2.28 1.44,4.92 v 0.24 l 4.8,-0.48 q 2.82,-0.36 5.7,-0.66 2.94,-0.36 5.76,-0.66 v -0.3 l -1.38,-5.76 v -0.24 q -4.2,0.18 -8.46,0.36 -4.2,0.12 -8.4,0.36 v 0.3 z m -12.78,-15.96 q 0.3,1.92 0.66,3.78 0.42,1.86 0.9,3.78 v 0.18 q 1.92,-0.06 3.9,-0.06 1.98,0 3.96,0 v -0.24 q -0.3,-1.2 -0.6,-2.4 -0.24,-1.2 -0.54,-2.4 l -0.6,-2.64 v -0.24 q -1.92,-0.06 -3.84,-0.06 -1.92,0 -3.84,0 z m 2.04,9.18 q 0.24,1.02 0.48,2.1 0.3,1.08 0.6,2.1 v 0.18 q 1.02,-0.12 1.98,-0.12 0.96,0 1.92,0 l 3.96,-0.18 v -0.3 q -0.12,-0.54 -0.3,-1.08 -0.18,-0.54 -0.36,-1.14 v -0.06 q -0.24,-0.6 -0.36,-1.08 -0.12,-0.54 -0.24,-1.02 v -0.24 q -1.98,0 -3.96,0.06 -1.92,0 -3.84,0.06 v 0.24 q 0,0.12 0.06,0.24 0.06,0.06 0.06,0.18 z m 12.54,16.98 -0.42,-1.62 q -0.24,-0.6 -0.42,-1.2 -0.12,-0.66 -0.24,-1.32 v -0.18 l -3.78,0.42 q -0.96,0.12 -1.86,0.24 -0.9,0.06 -1.86,0.12 v 0.36 l 1.32,4.26 v 0.12 q 1.2,-0.12 2.28,-0.24 1.08,-0.12 2.16,-0.24 0.72,-0.12 1.44,-0.18 0.72,-0.12 1.38,-0.24 z m 20.64,2.7 -0.78,-5.16 v -0.18 q -4.62,0.84 -9.24,1.68 -4.56,0.84 -9.18,1.62 v 0.3 l 0.72,2.94 q 0.24,0.84 0.48,1.74 0.24,0.9 0.42,1.8 v 0.18 q 4.44,-1.08 8.82,-2.22 4.38,-1.2 8.76,-2.4 z m -4.86,-27.66 q 2.1,6.78 3.78,13.74 1.74,6.96 2.76,14.46 l -0.18,0.36 -0.12,-0.06 -0.78,0.54 h 0.06 l -0.36,0.24 h 0.06 l -1.02,0.72 -0.72,0.42 q -6.36,1.86 -12.84,3.66 -6.48,1.74 -13.02,3.18 l -1.5,-0.06 -0.12,-0.66 -0.6,-1.98 q -0.48,-1.44 -0.96,-2.88 -0.48,-1.44 -0.96,-2.88 -2.46,-7.2 -4.74,-14.4 -2.22,-7.26 -3.24,-14.64 0,-0.24 0,-0.48 0.06,-0.3 0.36,-0.48 0.06,0 0.18,-0.12 l -0.18,0.12 1.68,-1.2 q 0.24,-0.66 1.02,-0.72 8.04,0 15.54,0.72 7.56,0.66 14.94,1.68 z m 5.94,28.32 0.24,-0.24 q -1.02,-7.2 -2.76,-14.1 -1.68,-6.96 -3.78,-13.8 l -0.72,-0.6 q -7.44,-0.96 -14.94,-1.68 -7.5,-0.72 -15.36,-0.72 -0.54,0.12 -0.72,0.42 -0.18,0.3 -0.18,0.54 1.08,7.44 3.3,14.64 2.22,7.2 4.68,14.46 l 2.58,7.74 0.06,0.54 h 1.32 q 6.54,-1.44 13.02,-3.18 6.48,-1.8 12.9,-3.66 v -0.06 q 0.12,-0.06 0.18,-0.06 0.12,-0.06 0.24,-0.18 z m -19.68,-2.28 q 4.26,-0.72 8.64,-1.5 4.38,-0.78 8.7,-1.62 l 0.72,4.68 q -4.14,1.2 -8.28,2.28 -4.08,1.08 -8.34,2.1 -0.12,-0.72 -0.3,-1.32 -0.18,-0.6 -0.3,-1.2 l -0.18,-0.66 -0.12,-0.54 -0.24,-0.84 z m 1.74,5.52 q 3.6,-0.84 7.02,-1.68 3.42,-0.9 6.84,-1.86 l -0.48,-3.3 q -3.6,0.66 -7.26,1.32 -3.6,0.6 -7.2,1.26 v 0.06 l 0.24,0.78 0.12,0.54 0.18,0.66 q 0.12,0.54 0.24,1.08 0.18,0.48 0.3,1.14 z m -5.34,-10.44 q 0.12,0.66 0.24,1.26 0.18,0.6 0.36,1.14 l 0.36,1.38 q -0.6,0.06 -1.26,0.12 -0.6,0.06 -1.02,0.18 h -0.18 -0.18 q -0.84,0.18 -1.8,0.3 -0.96,0.06 -1.8,0.18 l -1.14,-3.78 q 0.78,-0.06 1.62,-0.12 0.84,-0.12 1.5,-0.24 z m -1.74,3.78 q -0.18,-0.48 -0.3,-1.02 -0.12,-0.54 -0.24,-1.02 l -3,0.42 q -0.12,0 -0.24,0.06 -0.06,0 -0.18,0 l 0.18,0.42 0.48,1.62 q 0.18,0 0.3,-0.06 0.06,0 0.12,0 0.12,-0.06 0.24,-0.06 0.66,-0.06 1.26,-0.12 0.66,-0.12 1.32,-0.24 z m -5.52,-13.14 q -0.48,0 -1.08,0.06 -0.54,0 -1.08,0 -0.72,-2.04 -1.08,-3.9 0,0 -0.06,-0.12 v -0.06 h 0.66 q 0.3,0 0.6,0 0.36,-0.06 0.72,-0.06 1.08,0 2.28,0 1.26,-0.06 2.46,-0.06 l 0.6,1.98 0.12,0.36 0.48,1.68 -3.36,0.12 h -0.6 z m 1.14,-2.4 q -0.84,0 -1.8,0 -0.9,0 -1.8,0.06 l 0.54,2.1 h 0.36 q 0.12,0 0.24,0 0.18,-0.06 0.36,-0.06 h 0.96 q 0.12,0 0.12,0 0.06,-0.06 0.24,-0.06 h 0.9 0.6 l -0.06,-0.18 q -0.24,-0.54 -0.42,-0.96 -0.12,-0.42 -0.24,-0.9 z" />
      <path
         id="path44"
         style="font-family:China"
         d="m 650.48078,70.84 q 1.26,4.38 2.22,9 0.96,4.62 1.68,9.36 v 0.42 q 0,0.3 -0.18,0.48 -0.12,0.12 -0.24,0.24 -0.18,0.12 -0.36,0.18 l -0.3,0.12 -1.38,0.96 q -0.12,0.12 -0.12,0.12 -0.12,0.12 -0.18,0.12 -0.06,0.06 -0.12,0.06 -6.18,1.62 -10.86,2.82 -4.62,1.2 -8.28,2.1 -3.66,0.9 -6.6,1.56 -2.94,0.6 -5.76,1.14 l -1.26,-0.06 -0.54,-0.66 q -2.4,-6.36 -4.8,-13.02 -2.34,-6.72 -4.02,-12.84 -0.18,-0.6 -0.3,-1.26 -0.12,-0.66 -0.12,-1.44 0,-2.1 1.08,-4.2 1.14,-2.16 3.12,-3.6 l 0.3,-0.18 0.42,-0.3 q 1.56,-1.62 3.84,-2.64 2.34,-1.02 5.28,-0.9 3.84,0.3 7.68,0.66 3.9,0.36 7.68,0.84 h 0.18 q 2.4,0.54 4.38,1.68 1.98,1.14 3.48,2.64 1.5,1.44 2.52,3.18 1.02,1.68 1.56,3.42 z m 3.48,18.36 q -0.66,-4.68 -1.68,-9.24 -0.96,-4.62 -2.16,-9 -0.54,-1.68 -1.56,-3.36 -0.96,-1.68 -2.46,-3.12 -1.44,-1.44 -3.36,-2.52 -1.92,-1.14 -4.32,-1.68 h -0.12 q -3.78,-0.48 -7.62,-0.84 -3.84,-0.36 -7.68,-0.66 -2.7,-0.12 -4.86,0.78 -2.16,0.84 -3.72,2.28 -1.5,1.44 -2.34,3.3 -0.84,1.8 -0.84,3.6 0,1.32 0.48,2.64 1.68,6.3 4.02,12.9 2.34,6.6 4.74,13.02 l 0.42,0.42 1.08,0.06 q 5.94,-1.38 10.08,-2.34 4.14,-1.02 6.84,-1.62 2.76,-0.66 4.32,-1.02 1.62,-0.42 2.46,-0.6 0.9,-0.24 1.2,-0.3 0.3,-0.06 0.54,-0.12 l 5.94,-1.5 q 0.12,-0.06 0.3,-0.18 0.3,-0.3 0.3,-0.48 z m -27.54,-1.68 q 0.48,1.74 1.08,3.6 0.6,1.86 1.14,3.6 -0.66,0.12 -1.38,0.3 -0.72,0.12 -1.32,0.18 l -3.48,0.9 q -0.78,-1.92 -1.44,-3.9 -0.66,-2.04 -1.26,-3.84 l -0.24,-0.48 3.78,-0.42 3,-0.36 z m -0.48,7.38 q -0.48,-1.44 -0.96,-2.94 -0.42,-1.5 -0.84,-2.88 l -0.06,-0.24 -2.82,0.36 -0.84,0.06 0.18,0.54 q 0.48,1.38 1.02,2.94 0.6,1.56 1.08,2.88 l 3.18,-0.72 z m 22.5,-5.88 q -0.24,-1.32 -0.48,-2.58 -0.18,-1.26 -0.48,-2.4 0.9,-0.18 1.92,-0.36 1.02,-0.18 1.86,-0.3 0.3,1.5 0.54,2.94 0.24,1.38 0.42,2.82 l -1.8,0.36 -1.86,0.48 z m -0.36,-3.72 q 0.24,0.84 0.36,1.8 0.18,0.9 0.3,1.86 l 0.12,0.54 0.9,-0.18 q -0.12,-0.66 -0.24,-1.32 -0.06,-0.72 -0.24,-1.44 l -0.24,-1.44 z m -9.78,-24.54 q 2.28,0.54 4.14,1.62 1.86,1.02 3.24,2.46 1.44,1.38 2.4,3 0.96,1.62 1.5,3.24 1.2,4.5 2.16,9.06 1.02,4.5 1.68,9.12 v 0.36 q 0,0.12 -0.18,0.12 l -6,1.56 q -6.36,1.62 -12.6,3.24 -6.24,1.56 -12.78,2.76 l -0.78,-0.06 -0.12,-0.18 q -2.46,-6.48 -4.74,-12.84 -2.28,-6.42 -4.02,-12.9 v -0.06 q -0.42,-1.2 -0.42,-2.52 0,-1.8 0.78,-3.54 0.84,-1.74 2.28,-3.06 1.5,-1.38 3.54,-2.16 2.1,-0.78 4.62,-0.66 7.62,0.48 15.3,1.44 z m -16.2,35.88 q 1.02,-0.18 2.04,-0.42 1.02,-0.24 1.92,-0.54 0.84,-0.18 1.62,-0.3 0.78,-0.12 1.62,-0.24 v -0.36 q -1.38,-3.9 -2.34,-7.44 l -0.18,-0.6 v -0.18 l -3.54,0.42 -4.32,0.54 v 0.24 q 0.84,2.22 1.56,4.44 0.78,2.16 1.62,4.26 z m 7.08,-1.2 q 0.12,0 0.18,-0.06 z m 16.68,-12.36 q -0.48,-1.56 -0.78,-3.3 -0.12,-0.66 -0.24,-1.26 -0.12,-0.66 -0.36,-1.2 v -0.18 q -4.44,0.18 -8.82,0.48 -4.38,0.3 -8.82,0.6 l -1.26,0.06 v 0.36 l 1.98,6.96 v 0.18 q 4.62,-0.54 9.18,-1.14 4.56,-0.66 9.12,-1.32 z m 5.88,-0.18 q -0.12,0 -0.3,0.06 -0.12,0 -0.24,0 l -4.32,0.66 v 0.3 q 0.36,1.26 0.54,2.58 0.24,1.26 0.48,2.58 0.06,0.3 0.06,0.66 0,0.3 0.12,0.72 v 0.18 l 2.52,-0.66 2.16,-0.48 v -0.3 q -0.24,-1.56 -0.48,-3.06 -0.24,-1.5 -0.54,-3.06 z m -1.68,-7.02 q -0.18,-0.48 -0.3,-1.02 -0.12,-0.6 -0.24,-1.14 -0.24,-0.66 -0.42,-1.38 -0.12,-0.78 -0.36,-1.38 v 0.06 q -0.48,-1.56 -1.38,-3.06 -0.9,-1.56 -2.22,-2.88 -1.32,-1.32 -3,-2.28 -1.68,-1.02 -3.66,-1.44 -3.78,-0.42 -7.68,-0.72 -3.84,-0.3 -7.62,-0.6 -2.16,0 -4.02,0.84 -1.86,0.78 -3.18,2.04 -1.32,1.26 -2.1,2.88 -0.72,1.56 -0.72,3.18 0,1.32 0.42,2.4 l 0.72,2.46 q 0.3,1.02 0.6,2.16 0.36,1.08 0.66,2.04 v 0.18 q 1.8,-0.18 3.6,-0.18 l 4.74,-0.3 v -0.36 l -0.6,-1.74 q -0.72,-1.8 -1.08,-3.42 -0.06,-0.36 -0.12,-0.72 0,-0.36 0,-0.78 0,-1.08 0.54,-1.92 0.6,-0.9 2.22,-0.78 2.82,0 5.58,0.06 2.82,0.06 5.64,0.18 l 4.32,0.12 q 1.5,0.48 2.28,1.32 0.84,0.84 1.26,1.92 0.42,1.08 0.6,2.28 0.24,1.2 0.6,2.34 v 0.18 q 0.6,0 1.2,-0.06 0.6,-0.06 1.2,-0.06 0.66,0 1.26,0 0.6,0 1.26,-0.12 z m -5.52,3.96 0.72,3.12 q -4.32,0.66 -8.64,1.26 -4.26,0.54 -8.52,1.02 l -1.98,-6.42 0.72,-0.06 5.88,-0.48 11.28,-0.72 q 0.18,0.54 0.24,0.96 0.06,0.42 0.18,0.78 z m -16.2,5.04 q 3.54,-0.36 7.08,-0.78 3.6,-0.48 7.2,-0.96 l -0.36,-1.68 -0.12,-0.6 q -0.06,-0.12 -0.06,-0.48 0,-0.3 -0.3,-1.08 l -11.1,0.72 -3.66,0.24 z m 20.64,-10.98 q 0.06,0.96 0.48,1.92 h -1.92 q -0.24,0 -0.6,0 -0.36,0 -0.66,0.06 -0.12,0 -0.3,0.06 -0.18,0 -0.3,0 h -0.06 q -0.3,-1.38 -0.6,-2.64 -0.3,-1.26 -0.84,-2.34 -0.54,-1.08 -1.38,-1.86 -0.84,-0.78 -2.28,-1.2 l -4.44,-0.12 q -2.82,-0.12 -5.64,-0.18 -2.76,-0.06 -5.58,-0.06 -1.86,-0.12 -2.58,0.9 -0.72,0.96 -0.72,2.28 0,0.42 0,0.84 0.06,0.42 0.12,0.78 0.18,0.9 0.48,1.8 0.3,0.9 0.6,1.68 l 0.54,1.5 q -0.66,0.06 -1.26,0.12 -0.6,0 -1.14,0 l -1.74,0.12 h -1.08 q -0.6,0 -1.08,0.06 -0.48,0 -1.08,0.06 -0.3,-1.02 -0.48,-1.74 -0.18,-0.78 -0.42,-1.68 l -0.18,-0.6 -0.72,-2.28 q -0.42,-1.08 -0.42,-2.4 0,-1.5 0.72,-3 0.72,-1.5 1.98,-2.64 1.32,-1.2 3,-1.92 1.74,-0.78 3.72,-0.9 l 4.38,0.36 q 2.76,0.24 5.46,0.48 2.76,0.18 5.46,0.48 h -0.06 q 1.92,0.42 3.54,1.38 1.62,0.96 2.88,2.28 1.26,1.26 2.16,2.76 0.9,1.5 1.38,3 0.12,0.12 0.12,0.36 0.06,0.18 0.12,0.36 l 0.12,0.78 z m -2.28,1.56 -0.36,-1.2 -0.06,-0.72 q -0.12,-0.48 -0.24,-0.66 -0.48,-1.5 -1.38,-2.94 -0.84,-1.5 -2.1,-2.76 -1.2,-1.26 -2.82,-2.22 -1.56,-0.96 -3.42,-1.38 -2.7,-0.3 -5.46,-0.54 -2.7,-0.24 -5.46,-0.48 -1.02,-0.12 -2.22,-0.12 -1.14,-0.06 -2.1,-0.18 -1.86,0.12 -3.36,0.9 -1.62,1.14 -2.64,2.7 -0.96,1.5 -0.96,3.12 0,0.54 0,1.14 0.06,0.54 0.36,1.14 l 0.72,2.34 0.12,0.6 q 0.12,0.12 0.12,0.36 0.06,0.24 0.12,0.54 0.12,0.48 0.3,1.14 0.18,0.6 0.48,1.08 h 1.74 0.84 0.06 q 0.06,0 0.06,0 0.06,-0.06 0.12,-0.06 l 1.2,-0.06 q -0.3,-0.78 -0.54,-1.56 -0.24,-0.84 -0.36,-1.74 -0.18,-0.72 -0.18,-1.62 0,-0.84 0.24,-1.62 0.3,-0.78 0.96,-1.2 l 0.18,-0.18 h -0.06 q 1.32,-1.26 2.16,-1.68 0.9,-0.48 2.1,-0.42 2.82,0 5.58,0.06 2.82,0.06 5.64,0.18 l 4.56,0.18 q 1.38,0.36 2.28,1.2 0.9,0.78 1.44,1.86 0.54,1.02 0.84,2.16 0.3,1.08 0.54,2.1 l 0.24,0.72 h 0.12 0.18 q 0.06,0 0.12,0 0.12,-0.06 0.3,-0.06 z" />
    </g>
  </g>
</svg>
