<?xml version="1.0" encoding="UTF-8" standalone="no"?>
<svg
   xmlns:dc="http://purl.org/dc/elements/1.1/"
   xmlns:cc="http://creativecommons.org/ns#"
   xmlns:rdf="http://www.w3.org/1999/02/22-rdf-syntax-ns#"
   xmlns:svg="http://www.w3.org/2000/svg"
   xmlns="http://www.w3.org/2000/svg"
   id="svg16"
   width="800px"
   version="1.1"
   height="200px">
  <metadata
     id="metadata20">
    <rdf:RDF>
      <cc:Work
         rdf:about="">
        <dc:format>image/svg+xml</dc:format>
        <dc:type
           rdf:resource="http://purl.org/dc/dcmitype/StillImage" />
      </cc:Work>
    </rdf:RDF>
  </metadata>
  <defs
     id="defs4">
    <style
       id="style2"
       type="text/css"><![CDATA[    
     @font-face {font-family:Chivo Black;
     src: url('/Users/francesco/Repos/write-logos/src/fonts/Fonts_E_TEMPORANEA/Chivo-Black.ttf');}
     @font-face {font-family:Arsenale Blue;
     src: url('/Users/francesco/Repos/write-logos/src/fonts/Fonts_X/arsenaleblue.ttf');}
     ]]></style>
  </defs>
  <g
     id="g14"
     style="font-size:60px">
    <g
       style="text-anchor:middle"
       id="text12"
       aria-label="EXTEMPORANEA">
      <path
         id="path22"
         style="font-family:'Chivo Black';letter-spacing:0.075em"
         d="m 161.15125,68.32 h -17.34 v 6 h 16.68 v 9.18 h -16.68 v 6.66 h 17.34 l 1.2,9.84 h -30.9 V 58.84 h 30.9 z" />
      <path
         id="path24"
         style="font-family:'Arsenale Blue';letter-spacing:0.05em"
         d="m 209.66781,91 q 0.18,1.38 0.18,2.88 0,3.24 -1.2,5.22 -1.14,1.92 -3.78,2.64 -1.8,0 -6.06,-3.6 -4.26,-3.66 -11.22,-10.8 -7.5,-7.62 -11.04,-11.4 -3.48,-3.84 -3.48,-3.72 -0.72,-2.76 -0.72,-4.74 0,-2.82 1.2,-4.44 1.26,-1.68 4.14,-1.68 3,0 6.3,1.32 3.36,1.26 6.66,3.48 3.3,2.22 6.36,5.16 3.06,2.94 5.58,6.24 2.58,3.24 4.38,6.66 1.86,3.36 2.64,6.54 z m -21.12,-0.06 q 0,1.98 -1.14,3.9 -1.08,1.86 -2.76,3.36 -1.62,1.5 -3.48,2.4 -1.8,0.96 -3.24,0.96 -0.84,0 -1.68,-0.24 -0.84,-0.24 -1.68,-0.9 -0.12,0 -0.9,-0.48 -0.72,-0.54 -1.56,-1.32 -0.84,-0.84 -1.56,-1.86 -0.66,-1.02 -0.66,-2.16 0,-2.04 1.62,-4.92 0.72,-1.02 1.62,-2.16 0.9,-1.14 1.92,-2.1 1.08,-1.02 2.28,-1.62 1.2,-0.66 2.58,-0.66 1.38,0 2.82,0.78 1.44,0.72 3,2.58 0.42,0.48 0.9,0.96 0.54,0.48 0.96,0.96 0.42,0.48 0.66,1.02 0.3,0.48 0.3,1.08 z m 7.32,-22.74 q 0,-1.38 0.78,-2.76 0.84,-1.38 1.98,-2.46 1.2,-1.08 2.52,-1.74 1.38,-0.72 2.4,-0.72 1.32,0 2.4,0.84 0.12,0 0.66,0.36 0.54,0.36 1.14,0.96 0.66,0.6 1.14,1.38 0.48,0.72 0.48,1.5 0,0.6 -0.54,1.98 -0.54,1.38 -1.5,2.76 -0.9,1.38 -2.28,2.46 -1.32,1.08 -2.94,1.08 -1.02,0 -2.1,-0.54 -1.02,-0.54 -2.1,-1.86 -0.66,-0.78 -1.38,-1.44 -0.66,-0.66 -0.66,-1.5 z" />
      <path
         id="path26"
         style="font-family:'Chivo Black';letter-spacing:0.075em"
         d="m 248.89281,68.74 h -10.44 V 100 h -12.48 V 68.74 h -10.44 v -9.9 h 33.36 z" />
      <path
         id="path28"
         style="font-family:'Chivo Black';letter-spacing:0.075em"
         d="m 287.40906,68.32 h -17.34 v 6 h 16.68 v 9.18 h -16.68 v 6.66 h 17.34 l 1.2,9.84 h -30.9 V 58.84 h 30.9 z" />
      <path
         id="path30"
         style="font-family:'Chivo Black';letter-spacing:0.075em"
         d="M 351.58562,100 H 338.98563 V 73.6 h -0.24 l -7.20001,26.4 h -14.46 l -7.14,-26.4 h -0.3 V 100 H 298.18563 V 58.84 h 20.63999 l 5.94,21.96 h 0.24 l 5.82,-21.96 h 20.76 z" />
      <path
         id="path32"
         style="font-family:'Chivo Black';letter-spacing:0.075em"
         d="m 384.82,58.84 q 3.42,0 6.3,1.68 2.94,1.68 4.62,4.62 1.68,2.88 1.68,6.3 v 1.32 q 0,3.42 -1.68,6.36 -1.68,2.88 -4.62,4.56 -2.88,1.68 -6.3,1.68 h -9.3 V 100 h -12.6 V 58.84 Z m -9.3,17.34 h 5.52 q 1.68,0 2.64,-1.08 0.96,-1.14 0.96,-2.52 v -0.72 q 0,-1.38 -0.96,-2.46 -0.9,-1.14 -2.64,-1.14 h -5.52 z" />
      <path
         id="path34"
         style="font-family:'Chivo Black';letter-spacing:0.075em"
         d="m 425.89188,58.36 q 4.91999,0 9,2.46 4.14,2.4 6.53999,6.54 2.46001,4.08 2.46001,9 v 6.24 q 0,4.92 -2.46001,9.06 -2.39999,4.08 -6.53999,6.54 -4.08001,2.4 -9,2.4 h -3.36 q -4.92001,0 -9.06001,-2.4 -4.07999,-2.46 -6.54,-6.54 -2.39999,-4.14 -2.39999,-9.06 v -6.24 q 0,-4.92 2.39999,-9 2.46001,-4.14 6.54,-6.54 4.14,-2.46 9.06001,-2.46 z m -1.8,9.24 q -2.52001,0 -4.26,1.74 -1.74,1.74 -1.74,4.26 v 11.58 q 0,2.52 1.74,4.26 1.73999,1.74 4.26,1.74 h 0.3 q 2.51999,0 4.26,-1.74 1.74,-1.74 1.74,-4.26 V 73.6 q 0,-2.52 -1.74,-4.26 -1.74001,-1.74 -4.26,-1.74 z" />
      <path
         id="path36"
         style="font-family:'Chivo Black';letter-spacing:0.075em"
         d="m 476.81687,58.84 q 2.94,0 5.52001,1.32 2.63999,1.26 4.25999,3.6 1.62001,2.28 1.62001,5.28 0,2.16 -1.02001,4.26 -0.96,2.1 -2.64,3.6 -1.68,1.5 -3.71999,1.86 v 0.3 q 3.3,1.02 4.91999,3.84 1.68,2.76 1.68,6.72 0,2.82 0.54,4.86 0.54001,1.98 2.52,2.52 v 2.46 q -2.76,1.14 -7.2,1.14 -4.26,0 -6.36,-1.74 -2.09999,-1.8 -2.09999,-6 0,-3.96 -1.02001,-6.36 -0.96,-2.46 -4.32,-2.46 h -3.47999 V 100 h -12.3 V 58.84 Z m -10.79999,16.02 h 6.35999 q 1.26,0 2.1,-0.84 0.9,-0.9 0.9,-2.16 v -0.6 q 0,-1.26 -0.9,-2.1 -0.84,-0.9 -2.1,-0.9 h -6.35999 z" />
      <path
         id="path38"
         style="font-family:'Chivo Black';letter-spacing:0.075em"
         d="m 538.53531,100 h -13.08 l -2.46,-7.32 h -13.08 l -2.4,7.32 h -12.12 l 13.74,-41.16 h 15.66 z m -22.2,-28.5 -3.54,12.48 h 7.32 l -3.48,-12.48 z" />
      <path
         id="path40"
         style="font-family:'Chivo Black';letter-spacing:0.075em"
         d="m 581.07438,100 h -10.80001 l -12.36,-17.82 -0.18,-0.42 V 100 h -11.58 V 58.84 h 10.56001 l 12.6,18.24 0.12,0.42 V 58.84 h 11.64 z" />
      <path
         id="path42"
         style="font-family:'Chivo Black';letter-spacing:0.075em"
         d="m 622.07312,68.32 h -17.34 v 6 h 16.68001 v 9.18 h -16.68001 v 6.66 h 17.34 l 1.20001,9.84 H 592.37312 V 58.84 h 30.90001 z" />
      <path
         id="path44"
         style="font-family:'Chivo Black';letter-spacing:0.075em"
         d="m 672.26969,100 h -13.08 l -2.46,-7.32 h -13.08 l -2.4,7.32 h -12.12 l 13.74,-41.16 h 15.66 z m -22.2,-28.5 -3.54,12.48 h 7.32 l -3.48,-12.48 z" />
    </g>
  </g>
</svg>
