<?xml version="1.0" encoding="UTF-8" standalone="no"?>
<svg
   xmlns:dc="http://purl.org/dc/elements/1.1/"
   xmlns:cc="http://creativecommons.org/ns#"
   xmlns:rdf="http://www.w3.org/1999/02/22-rdf-syntax-ns#"
   xmlns:svg="http://www.w3.org/2000/svg"
   xmlns="http://www.w3.org/2000/svg"
   id="svg16"
   width="800px"
   version="1.1"
   height="200px">
  <metadata
     id="metadata20">
    <rdf:RDF>
      <cc:Work
         rdf:about="">
        <dc:format>image/svg+xml</dc:format>
        <dc:type
           rdf:resource="http://purl.org/dc/dcmitype/StillImage" />
      </cc:Work>
    </rdf:RDF>
  </metadata>
  <defs
     id="defs4">
    <style
       id="style2"
       type="text/css"><![CDATA[    
     @font-face {font-family:Chivo Black;
     src: url('/Users/francesco/Repos/write-logos/src/fonts/Fonts_E_TEMPORANEA/Chivo-Black.ttf');}
     @font-face {font-family:DK Plakkaat;
     src: url('/Users/francesco/Repos/write-logos/src/fonts/Fonts_X/Plakkaat.ttf');}
     ]]></style>
  </defs>
  <g
     id="g14"
     style="font-size:60px">
    <g
       style="text-anchor:middle"
       id="text12"
       aria-label="EXTEMPORANEA">
      <path
         id="path22"
         style="font-family:'Chivo Black';letter-spacing:0.075em"
         d="m 163.61219,68.32 h -17.34 v 6 h 16.68 v 9.18 h -16.68 v 6.66 h 17.34 l 1.2,9.84 h -30.9 V 58.84 h 30.9 z" />
      <path
         id="path24"
         style="font-family:'DK Plakkaat';letter-spacing:0.05em"
         d="m 191.36875,69.34 q 0.3,0 0.3,-0.24 l 0.06,-0.06 q 0,-0.12 0.06,-0.24 0.06,-0.12 0.12,-0.3 l 0.3,-0.06 0.24,-0.24 q 0.3,-0.12 0.42,-0.42 0.12,-0.3 0.12,-0.36 v -0.18 q 0.06,0 0.12,-0.06 l 0.18,-0.3 h 0.12 l 0.78,-0.78 q 0.12,-0.12 0.6,-0.72 0.54,-0.66 0.84,-0.96 l 0.18,-0.3 q 0.42,-0.42 0.66,-0.9 0.3,-0.48 0.84,-1.02 l 0.12,-0.18 q 0.06,-0.06 0.18,-0.3 0.18,-0.3 0.3,-0.36 l 0.18,-0.24 q 0.12,-0.12 0.12,-0.18 l 0.6,-0.36 q 0.66,-0.66 1.38,-1.26 0.72,-0.6 0.84,-0.72 l 0.66,-0.54 v 0.18 l 0.3,-0.24 v 0.06 q 0,0.06 -0.06,0.18 0,0.12 -0.12,0.18 l 0.18,0.06 0.24,-0.36 -0.06,0.3 q -0.06,0.06 -0.06,0.18 l -0.06,0.18 q -0.06,0.06 -0.06,0.12 l 0.12,0.12 0.12,-0.06 q 0.06,0 0.12,-0.06 h 0.12 l 0.06,0.42 q 0,-0.06 0.06,-0.12 l 0.18,-0.12 v 0.24 h 0.12 l 0.42,-0.42 q 0,0.06 -0.06,0.18 0,0.06 0,0.12 v 0.06 q -0.06,0 -0.12,0.18 0,0.12 -0.06,0.12 v 0.06 l 0.24,-0.24 q 0.18,-0.18 0.18,-0.3 l 0.18,-0.06 q 0,0.12 -0.18,0.36 -0.18,0.18 -0.18,0.42 v 0.12 l 0.18,-0.12 q -0.06,0.06 -0.06,0.12 0,0.12 0.06,0.12 l 0.18,0.06 0.18,-0.18 q 0.06,-0.06 0.24,-0.18 0.18,-0.12 0.24,-0.12 v 0.12 q 0,0.06 -0.06,0.18 0,0.06 0,0.12 l -0.18,0.12 v 0.12 h 0.18 q 0,-0.06 0.12,-0.18 0.18,-0.18 0.24,-0.18 l 0.06,-0.06 q 0.06,0 0.12,-0.06 0,0.06 -0.18,0.24 h 0.48 l -0.12,0.54 q 0,-0.06 0.12,-0.18 0.12,-0.18 0.18,-0.24 h 0.12 l -0.12,0.42 0.06,-0.06 q 0.06,-0.12 0.18,-0.3 0.12,-0.24 0.24,-0.3 h 0.06 l -0.3,0.78 h 0.36 l 0.18,-0.18 q 0.12,-0.12 0.18,-0.12 l 0.06,-0.12 v 0.3 q 0,0.06 -0.06,0.12 0,0.06 0,0.12 l 0.24,-0.18 q 0.06,-0.06 0.12,-0.06 l -0.06,0.06 q -0.06,0.06 -0.06,0.18 l 0.06,0.42 h 0.48 q 0.48,0 0.66,0.3 0.24,0.24 0.24,0.42 v 0.54 l -0.24,0.24 q 0,0.12 -0.12,0.3 -0.12,0.12 -0.12,0.42 l -0.12,0.12 q -0.06,0.06 -0.06,0.12 v 0.18 q 0,0.24 -0.24,0.48 -0.18,0.24 -0.18,0.36 l -0.06,0.18 q 0,0.06 -0.12,0.3 -0.06,0.18 -0.24,0.48 -0.12,0.24 -0.24,0.48 -0.06,0.24 -0.06,0.3 l -0.6,0.84 q -0.54,0.84 -0.54,1.32 -0.18,0.66 -0.54,1.02 -0.3,0.3 -0.42,0.78 l -0.12,0.18 q -0.06,0.06 -0.06,0.12 l -0.06,0.06 q 0,0.18 -0.12,0.18 l -0.18,0.18 v 0.18 q 0,0.12 -0.36,0.54 -0.36,0.42 -0.36,0.9 l -1.2,1.92 q -0.06,0.06 -0.18,0.3 -0.12,0.24 -0.24,0.3 l -0.06,0.06 q 0,0.06 -0.24,0.42 -0.18,0.36 -0.48,0.84 -0.3,0.42 -0.6,0.84 -0.24,0.36 -0.42,0.54 l -0.06,0.12 q -0.18,0.18 -0.36,0.66 -0.12,0.48 -0.6,0.96 l -0.12,0.12 q 0,0.06 -0.18,0.3 -0.12,0.24 -0.12,0.3 v 0.12 q 0,0.06 0.06,0.18 0.12,0.12 0.18,0.18 l 0.66,0.84 q 0,0.06 0.18,0.3 0.18,0.18 0.36,0.36 l 0.12,0.18 q 0.48,0.48 0.84,1.08 0.36,0.54 0.6,0.78 l 0.42,0.48 q 0,0.06 0.12,0.24 0.18,0.18 0.24,0.24 l 0.12,0.12 q 0,0.06 0.06,0.12 l 0.24,0.42 q 0.06,0 0.12,0.12 0.12,0.12 0.24,0.18 l 0.36,0.54 q 0.18,0.36 0.48,0.54 l 0.06,0.12 q 0,0.06 0.06,0.24 0.12,0.12 0.24,0.18 v 0.24 q 0.24,0 0.24,0.24 l 1.14,1.68 q 0.12,0.18 0.3,0.42 0.24,0.24 0.78,0.78 v 0.06 q 0,0.18 0.12,0.3 l 0.06,0.06 q 0,0.18 0.18,0.36 l 0.12,0.3 q 0,0.06 0.06,0.12 l 0.06,0.24 q -0.24,0 -0.24,0.06 l 0.06,0.36 q 0.06,0.06 0.06,0.12 h -0.36 l -0.24,-0.12 q 0,0.36 -0.42,0.36 l -0.12,0.3 q -0.06,0.06 -0.06,0.12 l -0.06,0.06 q -0.06,0.06 -0.06,0.12 l -0.12,0.42 q 0,0.12 0.12,0.24 l 0.06,0.6 -0.18,0.12 -0.24,-0.06 q -0.06,0 -0.12,-0.06 l -0.18,0.06 0.06,0.3 h -0.24 l 0.18,0.18 h -0.36 v 0.42 l -0.18,0.12 q -0.06,0.06 -0.18,0.06 h -0.24 v 0.3 l -0.18,0.06 q 0.06,0.12 0.18,0.36 0.18,0.24 0.18,0.36 -0.06,0.06 -0.06,0.12 v 0.18 q 0,0.3 -0.18,0.42 -0.12,0.06 -0.12,0.18 l -0.18,0.24 q -0.12,0.48 -0.54,0.66 -0.42,0.18 -0.6,0.18 -0.3,0 -0.36,-0.06 0,0.24 -0.42,0.24 l -0.06,0.18 q 0,0.12 0.12,0.24 l -0.54,-0.24 h -1.02 q -0.06,0 -0.12,-0.06 h -0.42 l -0.18,-0.18 q 0,0.18 -0.18,0.18 -0.12,0 -0.24,-0.12 l -0.12,0.12 h -0.3 l -0.66,-0.24 q -0.06,-0.06 -0.18,-0.06 -0.12,-0.06 -0.24,-0.18 l -0.9,-0.66 -1.38,-1.5 q 0,-0.06 -0.12,-0.18 -0.12,-0.18 -0.18,-0.18 l -0.06,-0.06 q -0.06,0 -0.42,-0.48 l -0.9,-1.08 q -0.3,-0.3 -0.84,-0.84 -0.54,-0.6 -0.66,-0.9 l -0.24,-0.24 q -0.12,-0.06 -0.36,-0.36 -0.18,-0.3 -0.24,-0.36 l -0.54,-0.48 -0.06,0.12 q -0.12,0 -0.48,0.54 -0.3,0.48 -0.42,0.9 l -0.06,0.12 q -0.12,0.06 -0.36,0.42 -0.18,0.3 -0.3,0.48 l -0.12,0.12 h 0.06 q 0,0.12 -0.36,0.78 -0.3,0.6 -1.02,1.32 l -0.54,0.96 q -0.18,0.18 -0.54,0.6 -0.3,0.42 -0.96,1.08 l -0.18,0.18 q -0.06,0.06 -0.24,0.18 -0.12,0.12 -0.12,0.18 l -0.3,0.06 V 100 l 0.24,-0.3 q 0,-0.06 -0.06,-0.12 l -0.24,-0.12 q -0.12,-0.12 -0.3,-0.12 l -0.6,-0.06 -0.06,-0.24 h -0.24 q 0,0.06 -0.18,0.18 -0.18,0.12 -0.24,0.12 l -0.24,0.12 v -0.12 q 0.06,0 0.18,-0.12 l 0.24,-0.24 q 0.12,0 0.12,-0.06 -0.06,0 -0.18,-0.06 -0.12,-0.06 -0.18,-0.06 -0.06,0.06 -0.12,0.06 h -0.06 q -0.06,0 -0.12,0.06 l -0.42,0.06 v -0.06 q -0.06,0.06 -0.12,0.06 h -0.3 l 0.24,-0.24 -0.06,-0.06 q 0,-0.12 -0.18,-0.12 -0.12,0 -0.24,0.06 -0.12,0 -0.24,0 l -0.24,0.12 q -0.06,0.06 -0.18,0.06 l -0.24,0.06 q -0.06,0 -0.12,-0.06 l -1.02,0.12 0.42,-0.6 q -0.12,0.12 -0.18,0.12 l -0.18,-0.12 -0.24,0.18 q -0.12,0.12 -0.24,0.12 l -0.12,-0.06 q 0,-0.12 0.12,-0.12 0.12,-0.06 0.12,-0.12 h -0.48 q 0.06,0 0.18,-0.12 l 0.3,-0.06 q -0.12,-0.06 -0.3,-0.06 -0.12,-0.06 -0.18,-0.12 h -0.12 l -0.12,-0.18 q -0.06,-0.06 -0.06,-0.12 l -0.72,0.06 0.06,-0.12 q 0,-0.06 0.12,-0.18 0.12,-0.12 0.12,-0.42 h -0.06 q -0.3,0.12 -0.48,0.3 V 97 l -0.36,0.3 0.3,-0.54 q 0,-0.12 -0.12,-0.12 0,0.12 -0.24,0.12 h -0.42 q -0.06,0 -0.18,0.12 -0.06,0.06 -0.12,0.06 v -0.18 q 0,-0.06 -0.06,-0.12 v -0.12 q 0,-0.06 0,-0.18 0.06,-0.12 0.06,-0.24 v -0.12 q -0.06,-0.06 -0.06,-0.24 v -0.3 q -0.06,0 -0.18,0 -0.06,-0.06 -0.12,-0.06 l -0.24,-0.42 v -0.24 q -0.06,0 -0.18,-0.12 -0.12,-0.18 -0.18,-0.24 l -0.12,-0.3 -0.18,-0.12 v -0.36 l 0.18,-0.54 q 0.12,-0.24 0.12,-0.42 0.06,-0.18 0.18,-0.3 l 0.06,-0.24 q 0.12,-0.12 0.24,-0.48 0.18,-0.42 0.24,-0.48 0.66,-0.66 0.96,-1.5 l 0.06,-0.18 q 0,-0.06 0.06,-0.12 0.06,-0.12 0.12,-0.24 l 0.42,-0.6 q 0.18,-0.18 0.3,-0.54 0.12,-0.42 0.78,-1.08 h 0.12 l 0.6,-0.72 q 0.18,-0.18 0.54,-0.42 0.36,-0.3 0.48,-0.72 l 0.54,-0.6 q 0.06,-0.06 0.24,-0.3 0.18,-0.24 0.24,-0.24 l 0.24,-0.36 q 0.06,-0.12 0.42,-0.48 0.36,-0.42 0.42,-0.54 l 0.12,-0.12 v 0.12 l 0.36,-0.06 V 82 l -0.36,-0.36 v -0.18 q -0.06,-0.06 -0.24,-0.18 -0.12,-0.12 -0.12,-0.24 l -0.42,-0.42 q -0.18,-0.12 -0.48,-0.42 -0.24,-0.36 -0.3,-0.42 l -0.42,-0.54 q -0.42,-0.42 -0.66,-0.72 -0.18,-0.36 -0.42,-0.72 -0.18,-0.42 -0.48,-0.9 -0.3,-0.54 -0.9,-1.32 l -0.18,-0.36 q -0.12,-0.3 -0.3,-0.36 l -0.24,-0.3 q -0.12,-0.12 -0.3,-0.3 -0.12,-0.24 -0.24,-0.66 -0.12,-0.18 -0.36,-0.6 -0.18,-0.42 -0.42,-0.78 -0.18,-0.42 -0.42,-0.72 -0.18,-0.36 -0.24,-0.36 l -0.24,-0.24 -0.24,-0.6 -0.6,-0.66 q -0.06,-0.12 -0.24,-0.36 -0.18,-0.24 -0.24,-0.36 v -0.06 q 0,-0.06 -0.06,-0.18 -0.06,-0.18 -0.06,-0.24 v -0.12 q -0.24,0 -0.3,-0.3 0,-0.36 -0.18,-0.36 l -0.24,-0.42 q -0.12,-0.12 -0.3,-0.48 -0.12,-0.36 -0.18,-0.48 l -0.12,-0.18 q -0.12,-0.12 -0.12,-0.3 l -0.06,-0.12 0.18,-0.12 q 0,-0.12 0.24,-0.12 l 0.12,-0.06 v -0.3 h 0.42 l 0.06,-0.42 h 0.18 l 0.06,-0.42 0.12,-0.06 q 0.24,0 0.24,-0.6 l 0.12,-0.24 q 0,-0.06 -0.06,-0.12 0,-0.12 0,-0.24 0,-0.06 0.06,-0.12 l 0.12,-0.12 q 0,-0.12 0.06,-0.12 l 0.48,-0.06 q 0.06,0 0.12,-0.06 l 0.3,-0.3 0.3,-0.6 0.18,-0.12 q 0.06,0 0.12,-0.06 l -0.06,-0.18 0.18,-0.18 q 0.12,0 0.18,-0.06 0.06,-0.12 0.18,-0.12 h 0.06 q 0.12,0 0.24,0 0.18,-0.06 0.42,-0.18 l 0.06,-0.18 q 0,-0.06 0.18,-0.24 l 0.18,-0.18 -0.06,-0.18 q 0,-0.06 0.06,-0.12 0.06,0 0.24,0.06 0.24,0 0.36,0 v -0.48 h 0.12 l 0.12,0.18 h 0.36 l -0.06,-0.18 h 0.12 q 0.12,0 0.18,-0.06 l 0.06,-0.06 q 0,-0.06 0.06,-0.18 0.06,-0.18 0.06,-0.3 l 0.3,0.06 q 0.06,0.06 0.12,0.06 l 0.06,0.12 0.12,-0.12 v -0.36 l 0.84,-0.06 0.72,0.3 q 0.06,0.06 0.18,0.06 l 0.12,0.06 q 0.06,0.06 0.06,0.12 l 0.06,0.06 q 0.06,0.06 0.18,0.24 0.18,0.18 0.3,0.24 l 0.06,0.06 q 0,0.12 0.18,0.3 l 0.24,0.24 q 0,0.3 0.3,0.72 0.36,0.36 0.72,1.2 l 0.36,0.54 q 0,0.12 0.06,0.12 l 0.12,0.18 q 0.12,0.12 0.24,0.42 0.18,0.24 0.24,0.3 l 0.24,0.36 q 0.48,0.48 1.08,1.2 0.6,0.72 0.78,1.08 h 0.06 q 0.06,0.06 0.12,0.24 0.12,0.12 0.24,0.24 l 0.84,1.02 q 0,0.18 0.18,0.18 v 0.18 l -0.24,-0.06 q -0.12,-0.12 -0.36,-0.36 -0.18,-0.3 -0.3,-0.36 l -0.12,0.06 q 0.3,0.36 0.42,0.6 0.12,0.18 0.24,0.3 l 0.18,0.3 q 0,0.12 0.24,0.36 0.3,0.18 0.3,0.3 l 0.12,0.06 q 0.18,0.48 0.66,0.72 0.54,0.18 0.54,0.66 l 0.36,-0.12 v 0.36 l 0.18,-0.18 h 0.24 q 0.06,-0.06 0.06,-0.12 l 0.06,-0.36 q 0.12,-0.06 0.36,-0.36 0.3,-0.3 0.42,-0.3 v -0.18 l -0.12,-0.06 q 0,-0.12 0.12,-0.12 z m 6.06,-7.74 q -0.12,0.3 -0.24,0.42 l -0.18,0.12 q 0,-0.12 0.06,-0.18 0.06,-0.06 0.06,-0.12 l 0.12,-0.12 q 0.12,-0.12 0.18,-0.12 z m 6.42,34.8 q 0,0.12 0.06,0.12 0.12,0 0.12,-0.12 0,-0.12 -0.12,-0.12 z m -9.12,-31.32 0.06,0.12 q 0,0.06 -0.12,0.06 v -0.24 q 0,-0.12 0.12,-0.12 z m -1.98,2.76 -0.24,0.06 v -0.06 q 0,-0.12 0.12,-0.12 z m 4.2,-5.4 -0.24,0.06 v -0.06 q 0,-0.12 0.12,-0.12 z m -5.4,6.72 q 0,0.06 -0.12,0.06 -0.12,0 -0.12,-0.06 l 0.12,-0.06 z m 3.66,-4.56 v -0.12 q 0,-0.06 0.18,-0.24 z m -6.12,7.08 q 0.06,0 0.12,-0.06 0,-0.12 -0.12,-0.12 z m 7.08,-8.34 h -0.12 l 0.18,-0.24 z m -3.36,4.2 -0.06,0.12 -0.06,-0.06 q 0,-0.12 0.18,-0.12 z m 1.86,-2.16 -0.12,0.06 v -0.18 z m 1.08,-1.38 -0.12,0.06 v -0.18 z m -23.16,1.62 q 0.06,0 0.06,-0.18 l -0.06,0.06 z m 25.2,-4.5 v -0.06 q 0,-0.12 0.12,-0.12 z m -16.32,38.46 q -0.18,0.18 -0.3,0.18 z m 16.68,-38.82 -0.18,0.12 0.12,-0.12 z" />
      <path
         id="path26"
         style="font-family:'Chivo Black';letter-spacing:0.075em"
         d="m 246.43187,68.74 h -10.44 V 100 h -12.48 V 68.74 h -10.44 v -9.9 h 33.36 z" />
      <path
         id="path28"
         style="font-family:'Chivo Black';letter-spacing:0.075em"
         d="m 284.94812,68.32 h -17.34 v 6 h 16.68 v 9.18 h -16.68 v 6.66 h 17.34 l 1.2,9.84 h -30.9 V 58.84 h 30.9 z" />
      <path
         id="path30"
         style="font-family:'Chivo Black';letter-spacing:0.075em"
         d="m 349.12469,100 h -12.6 V 73.6 h -0.24 l -7.2,26.4 h -14.46 l -7.14,-26.4 h -0.3 V 100 h -11.46 V 58.84 h 20.64 l 5.94,21.96 h 0.24 l 5.82,-21.96 h 20.76 z" />
      <path
         id="path32"
         style="font-family:'Chivo Black';letter-spacing:0.075em"
         d="m 382.35906,58.84 q 3.42,0 6.3,1.68 2.94,1.68 4.62,4.62 1.68,2.88 1.68,6.3 v 1.32 q 0,3.42 -1.68,6.36 -1.68,2.88 -4.62,4.56 -2.88,1.68 -6.3,1.68 h -9.3 V 100 h -12.6 V 58.84 Z m -9.3,17.34 h 5.52 q 1.68,0 2.64,-1.08 0.96,-1.14 0.96,-2.52 v -0.72 q 0,-1.38 -0.96,-2.46 -0.9,-1.14 -2.64,-1.14 h -5.52 z" />
      <path
         id="path34"
         style="font-family:'Chivo Black';letter-spacing:0.075em"
         d="m 423.43094,58.36 q 4.92,0 9,2.46 4.14,2.4 6.54,6.54 2.46,4.08 2.46,9 v 6.24 q 0,4.92 -2.46,9.06 -2.4,4.08 -6.54,6.54 -4.08,2.4 -9,2.4 h -3.36 q -4.92,0 -9.06,-2.4 -4.08,-2.46 -6.54,-6.54 -2.4,-4.14 -2.4,-9.06 v -6.24 q 0,-4.92 2.4,-9 2.46,-4.14 6.54,-6.54 4.14,-2.46 9.06,-2.46 z m -1.8,9.24 q -2.52,0 -4.26,1.74 -1.74,1.74 -1.74,4.26 v 11.58 q 0,2.52 1.74,4.26 1.74,1.74 4.26,1.74 h 0.3 q 2.52,0 4.26,-1.74 1.74,-1.74 1.74,-4.26 V 73.6 q 0,-2.52 -1.74,-4.26 -1.74,-1.74 -4.26,-1.74 z" />
      <path
         id="path36"
         style="font-family:'Chivo Black';letter-spacing:0.075em"
         d="m 474.35594,58.84 q 2.94,0 5.52,1.32 2.64,1.26 4.26,3.6 1.62,2.28 1.62,5.28 0,2.16 -1.02,4.26 -0.96,2.1 -2.64,3.6 -1.68,1.5 -3.72,1.86 v 0.3 q 3.3,1.02 4.92,3.84 1.68,2.76 1.68,6.72 0,2.82 0.54,4.86 0.54,1.98 2.52,2.52 v 2.46 q -2.76,1.14 -7.2,1.14 -4.26,0 -6.36,-1.74 -2.1,-1.8 -2.1,-6 0,-3.96 -1.02,-6.36 -0.96,-2.46 -4.32,-2.46 h -3.48 V 100 h -12.3 V 58.84 Z m -10.8,16.02 h 6.36 q 1.26,0 2.1,-0.84 0.9,-0.9 0.9,-2.16 v -0.6 q 0,-1.26 -0.9,-2.1 -0.84,-0.9 -2.1,-0.9 h -6.36 z" />
      <path
         id="path38"
         style="font-family:'Chivo Black';letter-spacing:0.075em"
         d="m 536.07438,100 h -13.08001 l -2.46,-7.32 h -13.07999 l -2.40001,7.32 h -12.12 l 13.74,-41.16 h 15.66001 z m -22.20001,-28.5 -3.53999,12.48 h 7.31999 L 514.17438,71.5 Z" />
      <path
         id="path40"
         style="font-family:'Chivo Black';letter-spacing:0.075em"
         d="m 578.61344,100 h -10.8 l -12.36,-17.82 -0.18,-0.42 V 100 h -11.58 V 58.84 h 10.56 l 12.6,18.24 0.12,0.42 V 58.84 h 11.64 z" />
      <path
         id="path42"
         style="font-family:'Chivo Black';letter-spacing:0.075em"
         d="m 619.61219,68.32 h -17.34 v 6 h 16.68 v 9.18 h -16.68 v 6.66 h 17.34 l 1.2,9.84 h -30.9 V 58.84 h 30.9 z" />
      <path
         id="path44"
         style="font-family:'Chivo Black';letter-spacing:0.075em"
         d="m 669.80875,100 h -13.08 l -2.46,-7.32 h -13.08 l -2.4,7.32 h -12.12 l 13.74,-41.16 h 15.66 z m -22.2,-28.5 -3.54,12.48 h 7.32 l -3.48,-12.48 z" />
    </g>
  </g>
</svg>
