<?xml version="1.0" encoding="UTF-8" standalone="no"?>
<svg
   xmlns:dc="http://purl.org/dc/elements/1.1/"
   xmlns:cc="http://creativecommons.org/ns#"
   xmlns:rdf="http://www.w3.org/1999/02/22-rdf-syntax-ns#"
   xmlns:svg="http://www.w3.org/2000/svg"
   xmlns="http://www.w3.org/2000/svg"
   id="svg16"
   width="800px"
   version="1.1"
   height="200px">
  <metadata
     id="metadata20">
    <rdf:RDF>
      <cc:Work
         rdf:about="">
        <dc:format>image/svg+xml</dc:format>
        <dc:type
           rdf:resource="http://purl.org/dc/dcmitype/StillImage" />
      </cc:Work>
    </rdf:RDF>
  </metadata>
  <defs
     id="defs4">
    <style
       id="style2"
       type="text/css"><![CDATA[    
     @font-face {font-family:Chivo Black;
     src: url('/Users/francesco/Repos/write-logos/src/fonts/Fonts_E_TEMPORANEA/Chivo-Black.ttf');}
     @font-face {font-family:ScreenMatrix;
     src: url('/Users/francesco/Repos/write-logos/src/fonts/Fonts_X/ScreenMatrix.ttf');}
     ]]></style>
  </defs>
  <g
     id="g14"
     style="font-size:60px">
    <g
       style="text-anchor:middle"
       id="text12"
       aria-label="EXTEMPORANEA">
      <path
         id="path22"
         style="font-family:'Chivo Black';letter-spacing:0.075em"
         d="m 164.72547,68.32 h -17.34 v 6 h 16.68 v 9.18 h -16.68 v 6.66 h 17.34 l 1.2,9.84 h -30.9 V 58.84 h 30.9 z" />
      <path
         id="path24"
         style="font-family:ScreenMatrix;letter-spacing:0.05em"
         d="m 199.35742,63.994141 v -5.390625 h 5.39063 v 5.390625 z m 0,6.005859 v -5.390625 h 5.39063 V 70 Z m -6.00586,6.005859 v -5.419922 h 5.39063 v 5.419922 z M 175.36328,63.994141 v -5.390625 h 5.39063 v 5.390625 z m 0,6.005859 v -5.390625 h 5.39063 V 70 Z m 5.97656,6.005859 v -5.419922 h 5.41993 v 5.419922 z m 6.00586,6.00586 v -5.419922 h 5.41992 v 5.419922 z m 6.00586,5.976562 v -5.390625 h 5.39063 v 5.390625 z m 6.00586,6.00586 v -5.390625 h 5.39063 v 5.390625 z m 0,6.005859 v -5.390625 h 5.39063 V 100 Z M 181.33984,87.988281 v -5.390625 h 5.41993 v 5.390625 z m -5.97656,6.00586 v -5.390625 h 5.39063 v 5.390625 z m 0,6.005859 v -5.390625 h 5.39063 V 100 Z" />
      <path
         id="path26"
         style="font-family:'Chivo Black';letter-spacing:0.075em"
         d="m 245.31859,68.74 h -10.44 V 100 h -12.48 V 68.74 h -10.44 v -9.9 h 33.36 z" />
      <path
         id="path28"
         style="font-family:'Chivo Black';letter-spacing:0.075em"
         d="m 283.83484,68.32 h -17.34 v 6 h 16.68 v 9.18 h -16.68 v 6.66 h 17.34 l 1.2,9.84 h -30.9 V 58.84 h 30.9 z" />
      <path
         id="path30"
         style="font-family:'Chivo Black';letter-spacing:0.075em"
         d="m 348.01141,100 h -12.6 V 73.6 h -0.24 l -7.2,26.4 h -14.46 l -7.14,-26.4 h -0.3 V 100 h -11.46 V 58.84 h 20.64 l 5.94,21.96 h 0.24 l 5.82,-21.96 h 20.76 z" />
      <path
         id="path32"
         style="font-family:'Chivo Black';letter-spacing:0.075em"
         d="m 381.24578,58.84 q 3.42,0 6.3,1.68 2.94,1.68 4.62,4.62 1.68,2.88 1.68,6.3 v 1.32 q 0,3.42 -1.68,6.36 -1.68,2.88 -4.62,4.56 -2.88,1.68 -6.3,1.68 h -9.3 V 100 h -12.6 V 58.84 Z m -9.3,17.34 h 5.52 q 1.68,0 2.64,-1.08 0.96,-1.14 0.96,-2.52 v -0.72 q 0,-1.38 -0.96,-2.46 -0.9,-1.14 -2.64,-1.14 h -5.52 z" />
      <path
         id="path34"
         style="font-family:'Chivo Black';letter-spacing:0.075em"
         d="m 422.31766,58.36 q 4.92,0 9,2.46 4.14,2.4 6.54,6.54 2.46,4.08 2.46,9 v 6.24 q 0,4.92 -2.46,9.06 -2.4,4.08 -6.54,6.54 -4.08,2.4 -9,2.4 h -3.36 q -4.92,0 -9.06,-2.4 -4.08,-2.46 -6.54,-6.54 -2.4,-4.14 -2.4,-9.06 v -6.24 q 0,-4.92 2.4,-9 2.46,-4.14 6.54,-6.54 4.14,-2.46 9.06,-2.46 z m -1.8,9.24 q -2.52,0 -4.26,1.74 -1.74,1.74 -1.74,4.26 v 11.58 q 0,2.52 1.74,4.26 1.74,1.74 4.26,1.74 h 0.3 q 2.52,0 4.26,-1.74 1.74,-1.74 1.74,-4.26 V 73.6 q 0,-2.52 -1.74,-4.26 -1.74,-1.74 -4.26,-1.74 z" />
      <path
         id="path36"
         style="font-family:'Chivo Black';letter-spacing:0.075em"
         d="m 473.24266,58.84 q 2.94,0 5.52,1.32 2.64,1.26 4.26,3.6 1.62,2.28 1.62,5.28 0,2.16 -1.02,4.26 -0.96,2.1 -2.64,3.6 -1.68,1.5 -3.72,1.86 v 0.3 q 3.3,1.02 4.92,3.84 1.68,2.76 1.68,6.72 0,2.82 0.54,4.86 0.54,1.98 2.52,2.52 v 2.46 q -2.76,1.14 -7.2,1.14 -4.26,0 -6.36,-1.74 -2.1,-1.8 -2.1,-6 0,-3.96 -1.02,-6.36 -0.96,-2.46 -4.32,-2.46 h -3.48 V 100 h -12.3 V 58.84 Z m -10.8,16.02 h 6.36 q 1.26,0 2.1,-0.84 0.9,-0.9 0.9,-2.16 v -0.6 q 0,-1.26 -0.9,-2.1 -0.84,-0.9 -2.1,-0.9 h -6.36 z" />
      <path
         id="path38"
         style="font-family:'Chivo Black';letter-spacing:0.075em"
         d="m 534.96109,100 h -13.08 l -2.46,-7.32 h -13.08 l -2.4,7.32 h -12.12 l 13.74,-41.16 h 15.66 z m -22.2,-28.5 -3.54,12.48 h 7.32 l -3.48,-12.48 z" />
      <path
         id="path40"
         style="font-family:'Chivo Black';letter-spacing:0.075em"
         d="m 577.50016,100 h -10.8 l -12.36,-17.82 -0.18,-0.42 V 100 h -11.58 V 58.84 h 10.56 l 12.6,18.24 0.12,0.42 V 58.84 h 11.64 z" />
      <path
         id="path42"
         style="font-family:'Chivo Black';letter-spacing:0.075em"
         d="m 618.49891,68.32 h -17.34 v 6 h 16.68 v 9.18 h -16.68 v 6.66 h 17.34 l 1.2,9.84 h -30.9 V 58.84 h 30.9 z" />
      <path
         id="path44"
         style="font-family:'Chivo Black';letter-spacing:0.075em"
         d="m 668.69547,100 h -13.08 l -2.46,-7.32 h -13.08 l -2.4,7.32 h -12.12 l 13.74,-41.16 h 15.66 z m -22.2,-28.5 -3.54,12.48 h 7.32 l -3.48,-12.48 z" />
    </g>
  </g>
</svg>
