<?xml version="1.0" encoding="UTF-8" standalone="no"?>
<svg
   xmlns:dc="http://purl.org/dc/elements/1.1/"
   xmlns:cc="http://creativecommons.org/ns#"
   xmlns:rdf="http://www.w3.org/1999/02/22-rdf-syntax-ns#"
   xmlns:svg="http://www.w3.org/2000/svg"
   xmlns="http://www.w3.org/2000/svg"
   id="svg16"
   width="800px"
   version="1.1"
   height="200px">
  <metadata
     id="metadata20">
    <rdf:RDF>
      <cc:Work
         rdf:about="">
        <dc:format>image/svg+xml</dc:format>
        <dc:type
           rdf:resource="http://purl.org/dc/dcmitype/StillImage" />
      </cc:Work>
    </rdf:RDF>
  </metadata>
  <defs
     id="defs4">
    <style
       id="style2"
       type="text/css"><![CDATA[    
     @font-face {font-family:Chivo Black;
     src: url('/Users/francesco/Repos/write-logos/src/fonts/Fonts_E_TEMPORANEA/Chivo-Black.ttf');}
     @font-face {font-family:Dr Eye;
     src: url('/Users/francesco/Repos/write-logos/src/fonts/Fonts_X/DrEye.otf');}
     ]]></style>
  </defs>
  <g
     id="g14"
     style="font-size:60px">
    <g
       style="text-anchor:middle"
       id="text12"
       aria-label="EXTEMPORANEA">
      <path
         id="path22"
         style="font-family:'Chivo Black';letter-spacing:0.075em"
         d="m 161.32703,68.32 h -17.34 v 6 h 16.68 v 9.18 h -16.68 v 6.66 h 17.34 l 1.2,9.84 h -30.9 V 58.84 h 30.9 z" />
      <path
         id="path24"
         style="font-family:'Dr Eye';letter-spacing:0.05em"
         d="m 167.60359,55.78 c 0.18,-0.24 2.1,-1.08 0,-1.2 -0.66,-0.06 -0.24,0.96 0,1.2 z m 0.9,8.94 c -0.12,0 -0.6,0.06 -0.72,0 -0.06,0.18 -0.42,0.12 -0.6,0.18 0.06,0.12 0,0.66 0,0.78 0.18,0 0.36,0.12 0.6,0.18 -0.42,0.12 0.84,-0.18 0.54,-0.18 0.42,0.24 0.18,-0.96 0.18,-0.96 z m 37.74,28.5 c 0.78,-3.9 -2.28,-3.06 -3.9,-4.08 -0.3,-0.12 -0.06,-0.36 -0.3,-0.6 -0.48,-0.84 -0.36,-2.28 -0.9,-3.18 -0.9,-1.5 -3.18,-1.2 -4.08,-2.4 -0.78,-1.02 -0.42,-3 -1.38,-3.78 l -0.18,-0.18 c -1.26,-1.02 -2.34,-0.42 -3,-2.1 0,-0.06 -0.42,-0.9 -0.36,-0.9 0.48,-0.36 0.36,-1.32 0.78,-1.68 0.78,-0.78 2.52,-0.66 3.18,-1.56 l 0.42,-0.36 c 0.42,-1.44 0,-2.16 0.72,-3.18 0.84,-1.26 3.24,-1.02 4.08,-2.46 0.36,-0.66 0.24,-1.98 0.54,-2.76 0.66,-1.8 5.46,-1.8 3.42,-5.1 l -0.18,-0.36 c -0.72,-0.6 -1.98,-0.48 -2.76,-0.96 -1.44,-0.9 -0.54,-3.48 -2.88,-4.14 -0.12,0 -0.36,0 -0.54,0 -2.1,0.12 -2.04,2.34 -3.24,3.42 -0.96,0.78 -1.86,0.48 -2.94,1.14 -1.56,1.02 -0.9,2.7 -1.68,4.32 l -0.6,0.54 c -1.44,0.78 -2.82,0.42 -3.96,1.5 -0.6,0.54 -0.42,2.16 -1.26,2.4 -1.02,0.3 -2.28,-0.12 -2.7,-0.54 -0.3,-0.42 -0.6,-1.74 -0.36,-2.58 0.3,-1.14 1.86,-0.48 2.28,-1.86 0.12,-0.48 0.18,-0.84 0.18,-1.2 0,-0.06 -0.06,-0.36 -0.18,-0.72 -0.06,-0.06 -0.3,-0.54 -0.36,-0.6 -0.84,-0.72 -2.34,-0.48 -3.42,-0.18 0,0.3 0.12,1.14 0,1.32 -0.3,0.54 -1.5,0.48 -2.4,0.54 -1.14,-1.68 -1.26,-2.7 1.14,-3.36 0.3,-1.14 0.54,-3.66 -1.14,-3.96 -2.58,-0.48 -2.28,2.28 -3.6,3.06 -1.08,0.6 -2.7,0.18 -3.9,0.9 -1.08,0.66 -0.78,5.16 0.18,5.64 0.78,0.42 1.56,0.12 2.22,0.6 1.32,0.78 1.38,2.4 1.14,4.32 -1.68,0.66 -2.04,0.72 -2.22,2.94 1.38,0.66 1.26,0.78 2.58,0 0.12,-0.06 0.78,-0.12 0.78,-0.18 0.18,-0.3 0,-1.08 0,-1.44 0.06,0 0.54,0 0.54,0 0.42,-0.12 0.48,-0.3 0.96,-0.24 2.28,0.18 2.46,2.04 1.86,3.96 -0.72,0.18 -1.56,0.3 -1.86,0.96 -0.36,0.66 -0.18,1.92 0,2.58 0.6,2.28 2.4,1.56 2.64,3 0.54,3.24 -2.58,3.36 -4.32,3.24 -0.42,1.32 -0.3,3.84 -1.14,4.86 -0.78,1.02 -3.42,0.84 -3.9,2.04 -0.6,1.62 -0.12,3.24 -1.38,4.14 -1.26,0.96 -1.86,-0.06 -2.58,1.86 -0.3,0.78 -0.48,1.44 0,2.22 0.06,0.12 0.42,0.54 0.54,0.6 0,0.06 0.18,0.18 0.18,0.18 0.84,0.6 2.04,0.3 3,0.72 1.08,0.54 0.72,3.06 1.92,3.6 0.42,0.24 1.5,0 1.5,0 0.36,-0.3 0.9,-0.36 1.08,-0.72 0.48,-0.9 0.18,-2.34 0.96,-2.88 0.66,-0.42 1.44,-0.12 2.46,-0.36 2.46,-0.54 1.86,-3.42 2.58,-5.76 1.38,0.06 3.9,0.24 4.38,-1.56 0.24,-1.08 -0.24,-2.1 -0.42,-2.76 -2.4,-0.6 -2.04,-1.32 -1.44,-3.42 1.02,-0.06 2.58,-0.12 2.94,0.9 0.06,0.36 -0.18,0.96 0,1.2 0.18,0.24 1.02,0.36 1.32,0.54 1.38,0.72 3.3,0.78 3.78,2.46 0.42,1.32 0.48,3.06 1.68,3.54 1.44,0.6 2.1,0 2.94,1.32 0.66,0.96 0.54,3.54 1.74,3.9 0.9,0.3 1.98,-0.06 2.76,0.18 2.46,0.66 1.98,3.24 4.74,3.24 0.84,-1.92 0.78,-3 -1.68,-3.42 -0.06,-0.3 0.12,-0.42 -0.18,-0.54 0,-1.86 0.12,-3.3 1.08,-4.08 0.84,-0.72 1.86,-0.42 2.1,-1.74 z m -31.92,-11.94 c -0.36,-0.6 -0.66,-0.54 -1.32,-0.84 -0.06,0.18 -0.6,0.3 -0.72,0.48 0.06,0.3 -0.12,0.72 0,1.08 0.36,1.08 3.96,1.56 2.04,-0.72 z m -6.54,4.8 c -0.78,0 -0.18,1.02 -0.18,1.02 0.3,-0.24 1.2,-0.96 0.18,-1.02 z m 41.82,11.46 c 0.6,-0.06 0.3,-1.14 -0.54,-1.08 -0.72,0.06 -0.24,1.14 0.54,1.08 z m -30.36,-6 c 0.9,0.36 1.62,2.52 -1.14,1.14 0,-0.36 0.18,-1.08 0.18,-1.14 0.3,0.12 0.6,-0.12 0.96,0 z" />
      <path
         id="path26"
         style="font-family:'Chivo Black';letter-spacing:0.075em"
         d="m 248.71703,68.74 h -10.44 V 100 h -12.48 V 68.74 h -10.44 v -9.9 h 33.36 z" />
      <path
         id="path28"
         style="font-family:'Chivo Black';letter-spacing:0.075em"
         d="m 287.23328,68.32 h -17.34 v 6 h 16.68 v 9.18 h -16.68 v 6.66 h 17.34 l 1.2,9.84 h -30.9 V 58.84 h 30.9 z" />
      <path
         id="path30"
         style="font-family:'Chivo Black';letter-spacing:0.075em"
         d="m 351.40984,100 h -12.6 V 73.6 h -0.24 l -7.2,26.4 h -14.46 l -7.14,-26.4 h -0.3 V 100 h -11.46 V 58.84 h 20.64 l 5.94,21.96 h 0.24 l 5.82,-21.96 h 20.76 z" />
      <path
         id="path32"
         style="font-family:'Chivo Black';letter-spacing:0.075em"
         d="m 384.64422,58.84 q 3.42,0 6.3,1.68 2.94,1.68 4.62,4.62 1.68,2.88 1.68,6.3 v 1.32 q 0,3.42 -1.68,6.36 -1.68,2.88 -4.62,4.56 -2.88,1.68 -6.3,1.68 h -9.3 V 100 h -12.6 V 58.84 Z m -9.3,17.34 h 5.52 q 1.68,0 2.64,-1.08 0.96,-1.14 0.96,-2.52 v -0.72 q 0,-1.38 -0.96,-2.46 -0.9,-1.14 -2.64,-1.14 h -5.52 z" />
      <path
         id="path34"
         style="font-family:'Chivo Black';letter-spacing:0.075em"
         d="m 425.71609,58.36 q 4.92,0 9,2.46 4.14,2.4 6.54,6.54 2.46,4.08 2.46,9 v 6.24 q 0,4.92 -2.46,9.06 -2.4,4.08 -6.54,6.54 -4.08,2.4 -9,2.4 h -3.36 q -4.92,0 -9.06,-2.4 -4.08,-2.46 -6.54,-6.54 -2.4,-4.14 -2.4,-9.06 v -6.24 q 0,-4.92 2.4,-9 2.46,-4.14 6.54,-6.54 4.14,-2.46 9.06,-2.46 z m -1.8,9.24 q -2.52,0 -4.26,1.74 -1.74,1.74 -1.74,4.26 v 11.58 q 0,2.52 1.74,4.26 1.74,1.74 4.26,1.74 h 0.3 q 2.52,0 4.26,-1.74 1.74,-1.74 1.74,-4.26 V 73.6 q 0,-2.52 -1.74,-4.26 -1.74,-1.74 -4.26,-1.74 z" />
      <path
         id="path36"
         style="font-family:'Chivo Black';letter-spacing:0.075em"
         d="m 476.64109,58.84 q 2.94,0 5.52,1.32 2.64,1.26 4.26,3.6 1.62,2.28 1.62,5.28 0,2.16 -1.02,4.26 -0.96,2.1 -2.64,3.6 -1.68,1.5 -3.72,1.86 v 0.3 q 3.3,1.02 4.92,3.84 1.68,2.76 1.68,6.72 0,2.82 0.54,4.86 0.54,1.98 2.52,2.52 v 2.46 q -2.76,1.14 -7.2,1.14 -4.26,0 -6.36,-1.74 -2.1,-1.8 -2.1,-6 0,-3.96 -1.02,-6.36 -0.96,-2.46 -4.32,-2.46 h -3.48 V 100 h -12.3 V 58.84 Z m -10.8,16.02 h 6.36 q 1.26,0 2.1,-0.84 0.9,-0.9 0.9,-2.16 v -0.6 q 0,-1.26 -0.9,-2.1 -0.84,-0.9 -2.1,-0.9 h -6.36 z" />
      <path
         id="path38"
         style="font-family:'Chivo Black';letter-spacing:0.075em"
         d="m 538.35953,100 h -13.08 l -2.46,-7.32 h -13.08 l -2.4,7.32 h -12.12 l 13.74,-41.16 h 15.66 z m -22.2,-28.5 -3.54,12.48 h 7.32 l -3.48,-12.48 z" />
      <path
         id="path40"
         style="font-family:'Chivo Black';letter-spacing:0.075em"
         d="m 580.89859,100 h -10.8 l -12.36,-17.82 -0.18,-0.42 V 100 h -11.58 V 58.84 h 10.56 l 12.6,18.24 0.12,0.42 V 58.84 h 11.64 z" />
      <path
         id="path42"
         style="font-family:'Chivo Black';letter-spacing:0.075em"
         d="m 621.89734,68.32 h -17.34 v 6 h 16.68 v 9.18 h -16.68 v 6.66 h 17.34 l 1.2,9.84 h -30.9 V 58.84 h 30.9 z" />
      <path
         id="path44"
         style="font-family:'Chivo Black';letter-spacing:0.075em"
         d="m 672.09391,100 h -13.08 l -2.46,-7.32 h -13.08 l -2.4,7.32 h -12.12 l 13.74,-41.16 h 15.66 z m -22.2,-28.5 -3.54,12.48 h 7.32 l -3.48,-12.48 z" />
    </g>
  </g>
</svg>
