<?xml version="1.0" encoding="UTF-8" standalone="no"?>
<svg
   xmlns:dc="http://purl.org/dc/elements/1.1/"
   xmlns:cc="http://creativecommons.org/ns#"
   xmlns:rdf="http://www.w3.org/1999/02/22-rdf-syntax-ns#"
   xmlns:svg="http://www.w3.org/2000/svg"
   xmlns="http://www.w3.org/2000/svg"
   id="svg16"
   width="800px"
   version="1.1"
   height="200px">
  <metadata
     id="metadata20">
    <rdf:RDF>
      <cc:Work
         rdf:about="">
        <dc:format>image/svg+xml</dc:format>
        <dc:type
           rdf:resource="http://purl.org/dc/dcmitype/StillImage" />
      </cc:Work>
    </rdf:RDF>
  </metadata>
  <defs
     id="defs4">
    <style
       id="style2"
       type="text/css"><![CDATA[    
     @font-face {font-family:Chivo Black;
     src: url('/Users/francesco/Repos/write-logos/src/fonts/Fonts_E_TEMPORANEA/Chivo-Black.ttf');}
     @font-face {font-family:Brandon;
     src: url('/Users/francesco/Repos/write-logos/src/fonts/Fonts_X/BrandonFree.ttf');}
     ]]></style>
  </defs>
  <g
     id="g14"
     style="font-size:60px">
    <g
       style="text-anchor:middle"
       id="text12"
       aria-label="EXTEMPORANEA">
      <path
         id="path22"
         style="font-family:'Chivo Black';letter-spacing:0.075em"
         d="m 166.01453,68.32 h -17.34 v 6 h 16.68 v 9.18 h -16.68 v 6.66 h 17.34 l 1.2,9.84 h -30.9 V 58.84 h 30.9 z" />
      <path
         id="path24"
         style="font-family:Brandon;letter-spacing:0.05em"
         d="m 173.69336,70.615234 v 0 0 q -0.32227,-0.55664 0.32226,-1.611328 0.67383,-1.054687 1.75782,-2.138672 1.08398,-1.113281 1.99218,-1.816406 0.90821,-0.703125 1.08399,-0.556641 3.22266,4.482422 6.91406,8.613282 0.64453,0.703125 1.28906,1.464843 2.49024,3.046875 5.41993,5.595704 0.9082,0.732421 1.90429,1.40625 1.08399,0.732421 2.10938,1.582031 0.9375,0.820312 1.78711,1.757812 0.79101,0.84961 1.66992,1.611328 1.20117,0.996094 2.60742,1.757813 2.49024,1.201172 3.95508,3.457031 0.20508,0.439453 -0.0879,1.054688 -0.29297,0.615234 -0.76172,1.230468 -0.46875,0.615235 -0.84961,1.025391 -0.14648,0.175781 -0.26367,0.263672 -0.0879,0.117187 -0.52735,0.615234 -0.43945,0.46875 -1.02539,0.996094 -0.55664,0.527344 -1.02539,0.849609 -0.46875,0.322266 -0.61523,0.117188 -1.46484,-2.285156 -3.98438,-3.457031 -1.37695,-0.791016 -2.57812,-1.757813 -0.87891,-0.791015 -1.69922,-1.640625 -0.84961,-0.908203 -1.75781,-1.757812 -1.02539,-0.820313 -2.10938,-1.582032 -0.96679,-0.644531 -1.90429,-1.376953 -2.92969,-2.578125 -5.41993,-5.595703 -0.64453,-0.761719 -1.28906,-1.49414 -3.6914,-4.101563 -6.91406,-8.613282 z m 27.53906,-3.574218 v 0 0 q 0.0586,-0.05859 0.11719,-0.175782 0.32226,-0.439453 0.9668,-1.230468 0.67382,-0.820313 1.37695,-1.464844 0.70312,-0.644531 1.14258,-0.556641 0.43945,0.146485 0.26367,0.703125 -0.17578,0.527344 -0.58594,1.113281 -0.38086,0.556641 -0.64453,0.878907 -0.0293,0.05859 -0.0586,0.08789 -11.95313,15.585938 -24.72657,30.527344 0,0 -0.0293,0.05859 -0.23438,0.292969 -0.87891,0.996094 -0.61523,0.673828 -1.28906,1.201171 -0.64453,0.498047 -0.9961,0.292969 -0.26367,-0.292969 0.11719,-1.02539 0.41016,-0.761719 0.9961,-1.494141 0.58593,-0.732422 0.82031,-1.025391 0.0293,-0.0293 0.0293,-0.0293 12.07031,-14.121093 23.3789,-28.857421 z" />
      <path
         id="path26"
         style="font-family:'Chivo Black';letter-spacing:0.075em"
         d="m 244.02953,68.74 h -10.44 V 100 h -12.48 V 68.74 h -10.44 v -9.9 h 33.36 z" />
      <path
         id="path28"
         style="font-family:'Chivo Black';letter-spacing:0.075em"
         d="m 282.54578,68.32 h -17.34 v 6 h 16.68 v 9.18 h -16.68 v 6.66 h 17.34 l 1.2,9.84 h -30.9 V 58.84 h 30.9 z" />
      <path
         id="path30"
         style="font-family:'Chivo Black';letter-spacing:0.075em"
         d="m 346.72234,100 h -12.6 V 73.6 h -0.24 l -7.2,26.4 h -14.46 l -7.14,-26.4 h -0.3 V 100 h -11.46 V 58.84 h 20.64 l 5.94,21.96 h 0.24 l 5.82,-21.96 h 20.76 z" />
      <path
         id="path32"
         style="font-family:'Chivo Black';letter-spacing:0.075em"
         d="m 379.95672,58.84 q 3.42,0 6.3,1.68 2.94,1.68 4.62,4.62 1.68,2.88 1.68,6.3 v 1.32 q 0,3.42 -1.68,6.36 -1.68,2.88 -4.62,4.56 -2.88,1.68 -6.3,1.68 h -9.3 V 100 h -12.6 V 58.84 Z m -9.3,17.34 h 5.52 q 1.68,0 2.64,-1.08 0.96,-1.14 0.96,-2.52 v -0.72 q 0,-1.38 -0.96,-2.46 -0.9,-1.14 -2.64,-1.14 h -5.52 z" />
      <path
         id="path34"
         style="font-family:'Chivo Black';letter-spacing:0.075em"
         d="m 421.02859,58.36 q 4.92,0 9,2.46 4.14,2.4 6.54,6.54 2.46,4.08 2.46,9 v 6.24 q 0,4.92 -2.46,9.06 -2.4,4.08 -6.54,6.54 -4.08,2.4 -9,2.4 h -3.36 q -4.92,0 -9.06,-2.4 -4.08,-2.46 -6.54,-6.54 -2.4,-4.14 -2.4,-9.06 v -6.24 q 0,-4.92 2.4,-9 2.46,-4.14 6.54,-6.54 4.14,-2.46 9.06,-2.46 z m -1.8,9.24 q -2.52,0 -4.26,1.74 -1.74,1.74 -1.74,4.26 v 11.58 q 0,2.52 1.74,4.26 1.74,1.74 4.26,1.74 h 0.3 q 2.52,0 4.26,-1.74 1.74,-1.74 1.74,-4.26 V 73.6 q 0,-2.52 -1.74,-4.26 -1.74,-1.74 -4.26,-1.74 z" />
      <path
         id="path36"
         style="font-family:'Chivo Black';letter-spacing:0.075em"
         d="m 471.95359,58.84 q 2.94,0 5.52,1.32 2.64,1.26 4.26,3.6 1.62,2.28 1.62,5.28 0,2.16 -1.02,4.26 -0.96,2.1 -2.64,3.6 -1.68,1.5 -3.72,1.86 v 0.3 q 3.3,1.02 4.92,3.84 1.68,2.76 1.68,6.72 0,2.82 0.54,4.86 0.54,1.98 2.52,2.52 v 2.46 q -2.76,1.14 -7.2,1.14 -4.26,0 -6.36,-1.74 -2.1,-1.8 -2.1,-6 0,-3.96 -1.02,-6.36 -0.96,-2.46 -4.32,-2.46 h -3.48 V 100 h -12.3 V 58.84 Z m -10.8,16.02 h 6.36 q 1.26,0 2.1,-0.84 0.9,-0.9 0.9,-2.16 v -0.6 q 0,-1.26 -0.9,-2.1 -0.84,-0.9 -2.1,-0.9 h -6.36 z" />
      <path
         id="path38"
         style="font-family:'Chivo Black';letter-spacing:0.075em"
         d="m 533.67203,100 h -13.08 l -2.46,-7.32 h -13.08 l -2.4,7.32 h -12.12 l 13.74,-41.16 h 15.66 z m -22.2,-28.5 -3.54,12.48 h 7.32 l -3.48,-12.48 z" />
      <path
         id="path40"
         style="font-family:'Chivo Black';letter-spacing:0.075em"
         d="m 576.21109,100 h -10.8 l -12.36,-17.82 -0.18,-0.42 V 100 h -11.58 V 58.84 h 10.56 l 12.6,18.24 0.12,0.42 V 58.84 h 11.64 z" />
      <path
         id="path42"
         style="font-family:'Chivo Black';letter-spacing:0.075em"
         d="m 617.20984,68.32 h -17.34 v 6 h 16.68 v 9.18 h -16.68 v 6.66 h 17.34 l 1.2,9.84 h -30.9 V 58.84 h 30.9 z" />
      <path
         id="path44"
         style="font-family:'Chivo Black';letter-spacing:0.075em"
         d="m 667.40641,100 h -13.08 l -2.46,-7.32 h -13.08 l -2.4,7.32 h -12.12 l 13.74,-41.16 h 15.66 z m -22.2,-28.5 -3.54,12.48 h 7.32 l -3.48,-12.48 z" />
    </g>
  </g>
</svg>
