<?xml version="1.0" encoding="UTF-8" standalone="no"?>
<svg
   xmlns:dc="http://purl.org/dc/elements/1.1/"
   xmlns:cc="http://creativecommons.org/ns#"
   xmlns:rdf="http://www.w3.org/1999/02/22-rdf-syntax-ns#"
   xmlns:svg="http://www.w3.org/2000/svg"
   xmlns="http://www.w3.org/2000/svg"
   id="svg16"
   width="800px"
   version="1.1"
   height="200px">
  <metadata
     id="metadata20">
    <rdf:RDF>
      <cc:Work
         rdf:about="">
        <dc:format>image/svg+xml</dc:format>
        <dc:type
           rdf:resource="http://purl.org/dc/dcmitype/StillImage" />
      </cc:Work>
    </rdf:RDF>
  </metadata>
  <defs
     id="defs4">
    <style
       id="style2"
       type="text/css"><![CDATA[    
     @font-face {font-family:Chivo Black;
     src: url('/Users/francesco/Repos/write-logos/src/fonts/Fonts_E_TEMPORANEA/Chivo-Black.ttf');}
     @font-face {font-family:Astral Wave;
     src: url('/Users/francesco/Repos/write-logos/src/fonts/Fonts_X/AstralWave.ttf');}
     ]]></style>
  </defs>
  <g
     id="g14"
     style="font-size:60px">
    <g
       style="text-anchor:middle"
       id="text12"
       aria-label="EXTEMPORANEA">
      <path
         id="path22"
         style="font-family:'Chivo Black';letter-spacing:0.075em"
         d="m 157.57703,68.32 h -17.34 v 6 h 16.68 v 9.18 h -16.68 v 6.66 h 17.34 l 1.2,9.84 h -30.9 V 58.84 h 30.9 z" />
      <path
         id="path24"
         style="font-family:'Astral Wave';letter-spacing:0.05em"
         d="m 206.94531,46.679687 h 2.05078 q 5.36133,2.958985 6.15235,4.775391 v 2.050781 q 0,2.050782 -6.15235,2.050782 l 1.37696,2.050781 v 2.050781 q 0,2.050781 -6.15235,2.753906 l 0.67383,1.347657 q 0,1.816406 -3.42773,3.427734 -1.69922,0 -8.87696,-1.376953 5.47852,3.925781 5.47852,4.804687 v 2.050782 q 0,2.050781 -5.47852,2.724609 v 0.673828 q 15.0293,6.621094 15.0293,11.630859 0,9.375 3.42773,11.63086 v 1.347658 q 0,0.99609 -2.05078,2.05078 h -0.67382 q -6.85547,0 -6.85547,-11.601563 0,-3.427735 -0.67383,-3.427735 -18.45703,-10.253906 -18.45703,-13.68164 v -0.673828 q 4.77539,-2.753907 4.77539,-3.427735 -12.97852,-6.533203 -14.35547,-9.550781 l 0.67383,-3.427734 q -3.22266,0 -6.15235,-5.478516 0.70313,-2.724609 4.10157,-2.724609 15.41015,10.927734 21.88476,10.927734 v -0.673828 q 0,-1.611328 4.80469,-2.050781 l -2.05078,-2.72461 q 0,-4.101562 4.10156,-4.101562 h 4.77539 q 0.17578,-3.427735 2.05078,-3.427735 z m -27.36328,32.8125 h 0.70313 q 9.55078,2.607422 9.55078,6.826172 0,2.314453 -10.25391,5.478516 v 0.673828 q 3.13477,1.347656 3.42774,2.753906 v 2.050782 q 0,2.548828 -17.08008,4.101559 l -1.37696,-2.050778 v -1.376953 q 0,-1.875 6.82618,-3.427735 v -0.673828 q -1.69922,0 -2.05079,-2.724609 0,-2.841797 10.25391,-5.478516 l -2.05078,-3.427734 q 1.02539,-2.72461 2.05078,-2.72461 z" />
      <path
         id="path26"
         style="font-family:'Chivo Black';letter-spacing:0.075em"
         d="m 252.46703,68.74 h -10.44 V 100 h -12.48 V 68.74 h -10.44 v -9.9 h 33.36 z" />
      <path
         id="path28"
         style="font-family:'Chivo Black';letter-spacing:0.075em"
         d="m 290.98328,68.32 h -17.34 v 6 h 16.68 v 9.18 h -16.68 v 6.66 h 17.34 l 1.2,9.84 h -30.9 V 58.84 h 30.9 z" />
      <path
         id="path30"
         style="font-family:'Chivo Black';letter-spacing:0.075em"
         d="m 355.15984,100 h -12.6 V 73.6 h -0.24 l -7.2,26.4 h -14.46 l -7.14,-26.4 h -0.3 V 100 h -11.46 V 58.84 h 20.64 l 5.94,21.96 h 0.24 l 5.82,-21.96 h 20.76 z" />
      <path
         id="path32"
         style="font-family:'Chivo Black';letter-spacing:0.075em"
         d="m 388.39422,58.84 q 3.42,0 6.3,1.68 2.94,1.68 4.62,4.62 1.68,2.88 1.68,6.3 v 1.32 q 0,3.42 -1.68,6.36 -1.68,2.88 -4.62,4.56 -2.88,1.68 -6.3,1.68 h -9.3 V 100 h -12.6 V 58.84 Z m -9.3,17.34 h 5.52 q 1.68,0 2.64,-1.08 0.96,-1.14 0.96,-2.52 v -0.72 q 0,-1.38 -0.96,-2.46 -0.9,-1.14 -2.64,-1.14 h -5.52 z" />
      <path
         id="path34"
         style="font-family:'Chivo Black';letter-spacing:0.075em"
         d="m 429.46609,58.36 q 4.92,0 9,2.46 4.14,2.4 6.54,6.54 2.46,4.08 2.46,9 v 6.24 q 0,4.92 -2.46,9.06 -2.4,4.08 -6.54,6.54 -4.08,2.4 -9,2.4 h -3.36 q -4.92,0 -9.06,-2.4 -4.08,-2.46 -6.54,-6.54 -2.4,-4.14 -2.4,-9.06 v -6.24 q 0,-4.92 2.4,-9 2.46,-4.14 6.54,-6.54 4.14,-2.46 9.06,-2.46 z m -1.8,9.24 q -2.52,0 -4.26,1.74 -1.74,1.74 -1.74,4.26 v 11.58 q 0,2.52 1.74,4.26 1.74,1.74 4.26,1.74 h 0.3 q 2.52,0 4.26,-1.74 1.74,-1.74 1.74,-4.26 V 73.6 q 0,-2.52 -1.74,-4.26 -1.74,-1.74 -4.26,-1.74 z" />
      <path
         id="path36"
         style="font-family:'Chivo Black';letter-spacing:0.075em"
         d="m 480.39109,58.84 q 2.94,0 5.52,1.32 2.64,1.26 4.26,3.6 1.62,2.28 1.62,5.28 0,2.16 -1.02,4.26 -0.96,2.1 -2.64,3.6 -1.68,1.5 -3.72,1.86 v 0.3 q 3.3,1.02 4.92,3.84 1.68,2.76 1.68,6.72 0,2.82 0.54,4.86 0.54,1.98 2.52,2.52 v 2.46 q -2.76,1.14 -7.2,1.14 -4.26,0 -6.36,-1.74 -2.1,-1.8 -2.1,-6 0,-3.96 -1.02,-6.36 -0.96,-2.46 -4.32,-2.46 h -3.48 V 100 h -12.3 V 58.84 Z m -10.8,16.02 h 6.36 q 1.26,0 2.1,-0.84 0.9,-0.9 0.9,-2.16 v -0.6 q 0,-1.26 -0.9,-2.1 -0.84,-0.9 -2.1,-0.9 h -6.36 z" />
      <path
         id="path38"
         style="font-family:'Chivo Black';letter-spacing:0.075em"
         d="m 542.10953,100 h -13.08 l -2.46,-7.32 h -13.08 l -2.4,7.32 h -12.12 l 13.74,-41.16 h 15.66 z m -22.2,-28.5 -3.54,12.48 h 7.32 l -3.48,-12.48 z" />
      <path
         id="path40"
         style="font-family:'Chivo Black';letter-spacing:0.075em"
         d="m 584.64859,100 h -10.8 l -12.36,-17.82 -0.18,-0.42 V 100 h -11.58 V 58.84 h 10.56 l 12.6,18.24 0.12,0.42 V 58.84 h 11.64 z" />
      <path
         id="path42"
         style="font-family:'Chivo Black';letter-spacing:0.075em"
         d="m 625.64734,68.32 h -17.34 v 6 h 16.68 v 9.18 h -16.68 v 6.66 h 17.34 l 1.2,9.84 h -30.9 V 58.84 h 30.9 z" />
      <path
         id="path44"
         style="font-family:'Chivo Black';letter-spacing:0.075em"
         d="m 675.84391,100 h -13.08 l -2.46,-7.32 h -13.08 l -2.4,7.32 h -12.12 l 13.74,-41.16 h 15.66 z m -22.2,-28.5 -3.54,12.48 h 7.32 l -3.48,-12.48 z" />
    </g>
  </g>
</svg>
