<?xml version="1.0" encoding="UTF-8" standalone="no"?>
<svg
   xmlns:dc="http://purl.org/dc/elements/1.1/"
   xmlns:cc="http://creativecommons.org/ns#"
   xmlns:rdf="http://www.w3.org/1999/02/22-rdf-syntax-ns#"
   xmlns:svg="http://www.w3.org/2000/svg"
   xmlns="http://www.w3.org/2000/svg"
   id="svg16"
   width="800px"
   version="1.1"
   height="200px">
  <metadata
     id="metadata20">
    <rdf:RDF>
      <cc:Work
         rdf:about="">
        <dc:format>image/svg+xml</dc:format>
        <dc:type
           rdf:resource="http://purl.org/dc/dcmitype/StillImage" />
      </cc:Work>
    </rdf:RDF>
  </metadata>
  <defs
     id="defs4">
    <style
       id="style2"
       type="text/css"><![CDATA[    
     @font-face {font-family:Cocogoose Condensed Trial;
     src: url('/Users/francesco/Repos/write-logos/src/fonts/Fonts_E_TEMPORANEA/Cocogoose-Condensed-Regular-trial.ttf');}
     @font-face {font-family:Oubli_CAP;
     src: url('/Users/francesco/Repos/write-logos/src/fonts/Fonts_X/Oubli_CAP.ttf');}
     ]]></style>
  </defs>
  <g
     id="g14"
     style="font-size:60px">
    <g
       style="text-anchor:middle"
       id="text12"
       aria-label="EXTEMPORANEA">
      <path
         id="path22"
         style="font-family:'Cocogoose Condensed Trial';letter-spacing:0.075em"
         d="m 166.50781,56.78125 q 0,-1.34375 1.3125,-1.34375 h 22.6875 q 1.0625,0 1.0625,1.34375 V 65.125 q 0,1.3125 -1.0625,1.3125 h -12.4375 V 72.25 h 9.3125 q 1.21875,0 1.21875,1.375 v 8.28125 q 0,1.3125 -1.21875,1.3125 h -9.3125 V 89 h 12.78125 q 1.125,0 1.125,1.3125 v 8.375 q 0,1.3125 -1.125,1.3125 h -23.03125 q -1.3125,0 -1.3125,-1.3125 z" />
      <path
         id="path24"
         style="font-family:Oubli_CAP;letter-spacing:0.05em"
         d="m 226.69141,58.017578 2.46093,4.365234 h 3.57422 l -10.3125,16.113282 11.36719,17.138672 h -3.86719 l -9.52148,-14.882813 -0.0293,8.115234 L 227.51172,100 h 14.44336 l -14.32617,-21.5625 13.0957,-20.419922 z m -26.60157,0 13.06641,20.15625 L 198.85937,100 h 14.35547 l -2.40234,-4.365234 h -3.86719 L 218.37109,78.203125 208.14648,62.382812 h 3.63282 l 8.78906,14.0625 -0.0586,-8.320312 -6.29883,-10.107422 z" />
      <path
         id="path26"
         style="font-family:'Cocogoose Condensed Trial';letter-spacing:0.075em"
         d="m 245.20312,56.78125 q 0,-1.34375 1.125,-1.34375 h 26.28125 q 0.53125,0 0.8125,0.34375 0.3125,0.34375 0.3125,1 v 8.3125 q 0,0.65625 -0.3125,1 -0.28125,0.34375 -0.8125,0.34375 h -7.3125 v 32.25 q 0,1.3125 -1.1875,1.3125 h -9.3125 q -1.0625,0 -1.0625,-1.3125 v -32.25 h -7.40625 q -1.125,0 -1.125,-1.34375 z" />
      <path
         id="path28"
         style="font-family:'Cocogoose Condensed Trial';letter-spacing:0.075em"
         d="m 281.98437,56.78125 q 0,-1.34375 1.3125,-1.34375 h 22.6875 q 1.0625,0 1.0625,1.34375 V 65.125 q 0,1.3125 -1.0625,1.3125 h -12.4375 V 72.25 h 9.3125 q 1.21875,0 1.21875,1.375 v 8.28125 q 0,1.3125 -1.21875,1.3125 h -9.3125 V 89 h 12.78125 q 1.125,0 1.125,1.3125 v 8.375 q 0,1.3125 -1.125,1.3125 h -23.03125 q -1.3125,0 -1.3125,-1.3125 z" />
      <path
         id="path30"
         style="font-family:'Cocogoose Condensed Trial';letter-spacing:0.075em"
         d="m 329.27344,79.84375 -1.96875,-7.46875 0.65625,7.5 0.625,18.8125 q 0.0312,1.3125 -1.125,1.3125 h -8.59375 q -1.15625,0 -1.09375,-1.3125 V 56.78125 q 0.0625,-0.65625 0.28125,-1 0.25,-0.34375 0.8125,-0.34375 h 10.4375 q 0.65625,0 0.78125,0.34375 0.15625,0.34375 0.375,1 l 6.875,19.9375 0.59375,3.71875 0.65625,-3.71875 6.84375,-19.9375 q 0.21875,-0.65625 0.34375,-1 0.15625,-0.34375 0.8125,-0.34375 h 10.4375 q 0.5625,0 0.78125,0.34375 0.25,0.34375 0.3125,1 V 98.6875 Q 358.14844,100 357.02344,100 h -8.625 q -1.15625,0 -1.09375,-1.3125 l 0.65625,-18.8125 0.625,-7.46875 -1.9375,7.40625 -4.125,12.5 q -0.25,0.8125 -0.4375,1.09375 -0.1875,0.28125 -0.84375,0.28125 h -6.53125 q -0.65625,0 -0.875,-0.28125 -0.1875,-0.28125 -0.40625,-1.09375 z" />
      <path
         id="path32"
         style="font-family:'Cocogoose Condensed Trial';letter-spacing:0.075em"
         d="m 369.5,56.78125 q 0,-1.34375 1.3125,-1.34375 h 14.65625 q 2.84375,0 5.28125,1.03125 2.46875,1.03125 4.25,2.8125 1.8125,1.75 2.84375,4.09375 1.03125,2.3125 1.03125,4.90625 v 4.78125 q 0,2.65625 -1.0625,5.125 -1.03125,2.46875 -2.84375,4.375 -1.8125,1.875 -4.25,3 -2.4375,1.125 -5.1875,1.125 h -4.46875 v 12 q 0,1.3125 -1.34375,1.3125 H 370.8125 Q 369.5,100 369.5,98.6875 Z m 15.3125,18.90625 q 1.09375,0 1.78125,-0.6875 0.71875,-0.71875 0.71875,-1.71875 v -4.375 q 0,-1.03125 -0.71875,-1.75 -0.71875,-0.71875 -1.8125,-0.71875 h -3.71875 v 9.25 z" />
      <path
         id="path34"
         style="font-family:'Cocogoose Condensed Trial';letter-spacing:0.075em"
         d="m 406.61719,70.71875 q 0,-3.1875 0.9375,-6.125 0.9375,-2.96875 2.84375,-5.21875 1.9375,-2.25 4.84375,-3.59375 2.9375,-1.375 6.90625,-1.375 3.90625,0 6.8125,1.34375 2.9375,1.34375 4.875,3.59375 1.9375,2.25 2.90625,5.1875 0.96875,2.9375 0.96875,6.15625 v 14.09375 q 0,3.21875 -0.96875,6.15625 -0.9375,2.9375 -2.875,5.1875 -1.9375,2.25 -4.875,3.59375 -2.90625,1.34375 -6.84375,1.34375 -3.84375,0 -6.78125,-1.34375 -2.90625,-1.34375 -4.84375,-3.59375 -1.9375,-2.28125 -2.9375,-5.21875 -0.96875,-2.9375 -0.96875,-6.125 z m 11.5625,14.9375 q 0,1.875 0.96875,3.15625 1,1.25 3.03125,1.25 1,0 1.75,-0.34375 0.75,-0.34375 1.21875,-0.90625 0.5,-0.59375 0.75,-1.375 0.25,-0.8125 0.25,-1.75 V 69.78125 q 0,-0.84375 -0.25,-1.625 -0.25,-0.8125 -0.75,-1.40625 -0.5,-0.625 -1.25,-1 -0.75,-0.375 -1.71875,-0.375 -1,0 -1.75,0.375 -0.71875,0.375 -1.25,1 -0.5,0.59375 -0.75,1.40625 -0.25,0.78125 -0.25,1.625 z" />
      <path
         id="path36"
         style="font-family:'Cocogoose Condensed Trial';letter-spacing:0.075em"
         d="m 447.875,56.78125 q 0,-1.34375 1.3125,-1.34375 h 14.6875 q 2.75,0 5.1875,1.03125 2.4375,1 4.25,2.78125 1.84375,1.75 2.875,4.125 1.0625,2.375 1.0625,5.125 v 3.84375 q 0,1.625 -0.40625,3.125 -0.375,1.46875 -1.0625,2.78125 -0.65625,1.3125 -1.59375,2.4375 -0.9375,1.09375 -2,2 l 0.9375,1.46875 4.125,14.53125 q 0.15625,0.4375 0,0.875 Q 477.09375,100 476.5625,100 h -10.125 q -0.625,0 -0.875,-0.25 -0.25,-0.25 -0.4375,-1 l -2.8125,-12.6875 h -2.875 v 12.625 q 0,1.3125 -1.375,1.3125 h -8.875 q -1.3125,0 -1.3125,-1.3125 z m 11.5625,9.65625 v 8.9375 h 3.71875 q 0.5625,0 1.03125,-0.21875 0.46875,-0.25 0.78125,-0.625 0.34375,-0.40625 0.53125,-0.875 0.1875,-0.5 0.1875,-1 v -3.75 q 0,-1.03125 -0.71875,-1.75 -0.71875,-0.71875 -1.8125,-0.71875 z" />
      <path
         id="path38"
         style="font-family:'Cocogoose Condensed Trial';letter-spacing:0.075em"
         d="M 518.74219,98.6875 Q 519.14844,100 518.08594,100 h -9.6875 q -0.65625,0 -1.09375,-0.3125 -0.4375,-0.3125 -0.59375,-1 l -0.65625,-3.59375 h -8.875 l -0.65625,3.59375 q -0.15625,0.6875 -0.625,1 -0.4375,0.3125 -1.0625,0.3125 h -9.6875 q -1.0625,0 -0.6875,-1.3125 l 11.375,-41.90625 q 0.375,-1.34375 1.625,-1.34375 h 8.28125 q 1.28125,0 1.65625,1.34375 z m -19.65625,-13.875 h 5.0625 l -1.84375,-10.09375 -0.6875,-5.25 -0.65625,5.25 z" />
      <path
         id="path40"
         style="font-family:'Cocogoose Condensed Trial';letter-spacing:0.075em"
         d="m 526.95312,56.78125 q 0,-1.34375 1.3125,-1.34375 h 8.09375 q 1.375,0 1.90625,1.34375 l 8.5,18.15625 1.71875,5 -0.5625,-5.03125 -0.53125,-18.125 q 0,-0.53125 0.3125,-0.9375 0.34375,-0.40625 1,-0.40625 h 8.40625 q 0.375,0 0.8125,0.25 0.4375,0.21875 0.4375,1.03125 V 98.6875 q 0,1.3125 -1.4375,1.3125 h -7.9375 q -0.625,0 -1.15625,-0.3125 -0.5,-0.3125 -0.78125,-1 l -8.4375,-17.71875 -1.65625,-4.6875 0.5,4.6875 0.5,17.71875 Q 537.98437,100 536.64062,100 h -8.375 q -1.3125,0 -1.3125,-1.3125 z" />
      <path
         id="path42"
         style="font-family:'Cocogoose Condensed Trial';letter-spacing:0.075em"
         d="m 569.77344,56.78125 q 0,-1.34375 1.3125,-1.34375 h 22.6875 q 1.0625,0 1.0625,1.34375 V 65.125 q 0,1.3125 -1.0625,1.3125 h -12.4375 V 72.25 h 9.3125 q 1.21875,0 1.21875,1.375 v 8.28125 q 0,1.3125 -1.21875,1.3125 h -9.3125 V 89 h 12.78125 q 1.125,0 1.125,1.3125 v 8.375 q 0,1.3125 -1.125,1.3125 h -23.03125 q -1.3125,0 -1.3125,-1.3125 z" />
      <path
         id="path44"
         style="font-family:'Cocogoose Condensed Trial';letter-spacing:0.075em"
         d="M 636.65625,98.6875 Q 637.0625,100 636,100 h -9.6875 q -0.65625,0 -1.09375,-0.3125 -0.4375,-0.3125 -0.59375,-1 l -0.65625,-3.59375 h -8.875 l -0.65625,3.59375 q -0.15625,0.6875 -0.625,1 Q 613.375,100 612.75,100 h -9.6875 Q 602,100 602.375,98.6875 L 613.75,56.78125 q 0.375,-1.34375 1.625,-1.34375 h 8.28125 q 1.28125,0 1.65625,1.34375 z M 617,84.8125 h 5.0625 l -1.84375,-10.09375 -0.6875,-5.25 -0.65625,5.25 z" />
    </g>
  </g>
</svg>
