<?xml version="1.0" encoding="UTF-8" standalone="no"?>
<svg
   xmlns:dc="http://purl.org/dc/elements/1.1/"
   xmlns:cc="http://creativecommons.org/ns#"
   xmlns:rdf="http://www.w3.org/1999/02/22-rdf-syntax-ns#"
   xmlns:svg="http://www.w3.org/2000/svg"
   xmlns="http://www.w3.org/2000/svg"
   id="svg16"
   width="800px"
   version="1.1"
   height="200px">
  <metadata
     id="metadata20">
    <rdf:RDF>
      <cc:Work
         rdf:about="">
        <dc:format>image/svg+xml</dc:format>
        <dc:type
           rdf:resource="http://purl.org/dc/dcmitype/StillImage" />
      </cc:Work>
    </rdf:RDF>
  </metadata>
  <defs
     id="defs4">
    <style
       id="style2"
       type="text/css"><![CDATA[    
     @font-face {font-family:Cocogoose Condensed Trial;
     src: url('/Users/francesco/Repos/write-logos/src/fonts/Fonts_E_TEMPORANEA/Cocogoose-Condensed-Regular-trial.ttf');}
     @font-face {font-family:Modak;
     src: url('/Users/francesco/Repos/write-logos/src/fonts/Fonts_X/Modak-Regular.ttf');}
     ]]></style>
  </defs>
  <g
     id="g14"
     style="font-size:60px">
    <g
       style="text-anchor:middle"
       id="text12"
       aria-label="EXTEMPORANEA">
      <path
         id="path22"
         style="font-family:'Cocogoose Condensed Trial';letter-spacing:0.075em"
         d="m 169.20312,56.78125 q 0,-1.34375 1.3125,-1.34375 h 22.6875 q 1.0625,0 1.0625,1.34375 V 65.125 q 0,1.3125 -1.0625,1.3125 h -12.4375 V 72.25 h 9.3125 q 1.21875,0 1.21875,1.375 v 8.28125 q 0,1.3125 -1.21875,1.3125 h -9.3125 V 89 h 12.78125 q 1.125,0 1.125,1.3125 v 8.375 q 0,1.3125 -1.125,1.3125 h -23.03125 q -1.3125,0 -1.3125,-1.3125 z" />
      <path
         id="path24"
         style="font-family:Modak;letter-spacing:0.05em"
         d="m 220.65625,93.115234 -3.39844,6.621094 q -2.19726,0.820312 -4.77539,0.820312 -4.54101,0 -7.4414,-2.578124 -2.9004,-2.578125 -2.9004,-6.94336 0,-3.867187 2.60743,-6.884765 2.60742,-3.017579 7.38281,-5.06836 -0.35156,-0.966797 -1.20117,-0.966797 -0.84961,0 -3.10547,1.552735 -2.19727,-1.142578 -3.86719,-3.779297 -1.64062,-2.636719 -1.64062,-6.09375 0,-3.457031 2.54882,-5.917969 2.54883,-2.460937 7.03125,-2.460937 3.86719,0 6.35743,1.435546 l 3.10546,6.181641 2.51954,-6.328125 q 2.49023,-1.113281 5.5664,-1.113281 4.36524,0 7.08985,2.402344 2.72461,2.460937 2.72461,6.884765 0,3.66211 -2.63672,6.884766 -2.60743,3.193359 -6.70899,5.068359 0.32227,0.84961 1.14258,0.84961 0.84961,0 2.72461,-1.289063 l 6.03516,7.558594 q 0,4.716797 -2.34375,7.529297 -2.57813,3.105471 -7.11914,3.105471 -6.91407,0 -9.69727,-7.470706 z" />
      <path
         id="path26"
         style="font-family:'Cocogoose Condensed Trial';letter-spacing:0.075em"
         d="m 242.50781,56.78125 q 0,-1.34375 1.125,-1.34375 h 26.28125 q 0.53125,0 0.8125,0.34375 0.3125,0.34375 0.3125,1 v 8.3125 q 0,0.65625 -0.3125,1 -0.28125,0.34375 -0.8125,0.34375 h -7.3125 v 32.25 q 0,1.3125 -1.1875,1.3125 h -9.3125 q -1.0625,0 -1.0625,-1.3125 v -32.25 h -7.40625 q -1.125,0 -1.125,-1.34375 z" />
      <path
         id="path28"
         style="font-family:'Cocogoose Condensed Trial';letter-spacing:0.075em"
         d="m 279.28906,56.78125 q 0,-1.34375 1.3125,-1.34375 h 22.6875 q 1.0625,0 1.0625,1.34375 V 65.125 q 0,1.3125 -1.0625,1.3125 h -12.4375 V 72.25 h 9.3125 q 1.21875,0 1.21875,1.375 v 8.28125 q 0,1.3125 -1.21875,1.3125 h -9.3125 V 89 h 12.78125 q 1.125,0 1.125,1.3125 v 8.375 q 0,1.3125 -1.125,1.3125 h -23.03125 q -1.3125,0 -1.3125,-1.3125 z" />
      <path
         id="path30"
         style="font-family:'Cocogoose Condensed Trial';letter-spacing:0.075em"
         d="m 326.57812,79.84375 -1.96875,-7.46875 0.65625,7.5 0.625,18.8125 q 0.0312,1.3125 -1.125,1.3125 h -8.59375 q -1.15625,0 -1.09375,-1.3125 V 56.78125 q 0.0625,-0.65625 0.28125,-1 0.25,-0.34375 0.8125,-0.34375 h 10.4375 q 0.65625,0 0.78125,0.34375 0.15625,0.34375 0.375,1 l 6.875,19.9375 0.59375,3.71875 0.65625,-3.71875 6.84375,-19.9375 q 0.21875,-0.65625 0.34375,-1 0.15625,-0.34375 0.8125,-0.34375 h 10.4375 q 0.5625,0 0.78125,0.34375 0.25,0.34375 0.3125,1 V 98.6875 Q 355.45312,100 354.32812,100 h -8.625 q -1.15625,0 -1.09375,-1.3125 l 0.65625,-18.8125 0.625,-7.46875 -1.9375,7.40625 -4.125,12.5 q -0.25,0.8125 -0.4375,1.09375 -0.1875,0.28125 -0.84375,0.28125 h -6.53125 q -0.65625,0 -0.875,-0.28125 -0.1875,-0.28125 -0.40625,-1.09375 z" />
      <path
         id="path32"
         style="font-family:'Cocogoose Condensed Trial';letter-spacing:0.075em"
         d="m 366.80469,56.78125 q 0,-1.34375 1.3125,-1.34375 h 14.65625 q 2.84375,0 5.28125,1.03125 2.46875,1.03125 4.25,2.8125 1.8125,1.75 2.84375,4.09375 1.03125,2.3125 1.03125,4.90625 v 4.78125 q 0,2.65625 -1.0625,5.125 -1.03125,2.46875 -2.84375,4.375 -1.8125,1.875 -4.25,3 -2.4375,1.125 -5.1875,1.125 h -4.46875 v 12 q 0,1.3125 -1.34375,1.3125 h -8.90625 q -1.3125,0 -1.3125,-1.3125 z m 15.3125,18.90625 q 1.09375,0 1.78125,-0.6875 0.71875,-0.71875 0.71875,-1.71875 v -4.375 q 0,-1.03125 -0.71875,-1.75 -0.71875,-0.71875 -1.8125,-0.71875 h -3.71875 v 9.25 z" />
      <path
         id="path34"
         style="font-family:'Cocogoose Condensed Trial';letter-spacing:0.075em"
         d="m 403.92187,70.71875 q 0,-3.1875 0.9375,-6.125 0.9375,-2.96875 2.84375,-5.21875 1.9375,-2.25 4.84375,-3.59375 2.9375,-1.375 6.90625,-1.375 3.90625,0 6.8125,1.34375 2.9375,1.34375 4.875,3.59375 1.9375,2.25 2.90625,5.1875 0.96875,2.9375 0.96875,6.15625 v 14.09375 q 0,3.21875 -0.96875,6.15625 -0.9375,2.9375 -2.875,5.1875 -1.9375,2.25 -4.875,3.59375 -2.90625,1.34375 -6.84375,1.34375 -3.84375,0 -6.78125,-1.34375 -2.90625,-1.34375 -4.84375,-3.59375 -1.9375,-2.28125 -2.9375,-5.21875 -0.96875,-2.9375 -0.96875,-6.125 z m 11.5625,14.9375 q 0,1.875 0.96875,3.15625 1,1.25 3.03125,1.25 1,0 1.75,-0.34375 0.75,-0.34375 1.21875,-0.90625 0.5,-0.59375 0.75,-1.375 0.25,-0.8125 0.25,-1.75 V 69.78125 q 0,-0.84375 -0.25,-1.625 -0.25,-0.8125 -0.75,-1.40625 -0.5,-0.625 -1.25,-1 -0.75,-0.375 -1.71875,-0.375 -1,0 -1.75,0.375 -0.71875,0.375 -1.25,1 -0.5,0.59375 -0.75,1.40625 -0.25,0.78125 -0.25,1.625 z" />
      <path
         id="path36"
         style="font-family:'Cocogoose Condensed Trial';letter-spacing:0.075em"
         d="m 445.17969,56.78125 q 0,-1.34375 1.3125,-1.34375 h 14.6875 q 2.75,0 5.1875,1.03125 2.4375,1 4.25,2.78125 1.84375,1.75 2.875,4.125 1.0625,2.375 1.0625,5.125 v 3.84375 q 0,1.625 -0.40625,3.125 -0.375,1.46875 -1.0625,2.78125 -0.65625,1.3125 -1.59375,2.4375 -0.9375,1.09375 -2,2 l 0.9375,1.46875 4.125,14.53125 q 0.15625,0.4375 0,0.875 Q 474.39844,100 473.86719,100 h -10.125 q -0.625,0 -0.875,-0.25 -0.25,-0.25 -0.4375,-1 l -2.8125,-12.6875 h -2.875 v 12.625 q 0,1.3125 -1.375,1.3125 h -8.875 q -1.3125,0 -1.3125,-1.3125 z m 11.5625,9.65625 v 8.9375 h 3.71875 q 0.5625,0 1.03125,-0.21875 0.46875,-0.25 0.78125,-0.625 0.34375,-0.40625 0.53125,-0.875 0.1875,-0.5 0.1875,-1 v -3.75 q 0,-1.03125 -0.71875,-1.75 -0.71875,-0.71875 -1.8125,-0.71875 z" />
      <path
         id="path38"
         style="font-family:'Cocogoose Condensed Trial';letter-spacing:0.075em"
         d="M 516.04687,98.6875 Q 516.45312,100 515.39062,100 h -9.6875 q -0.65625,0 -1.09375,-0.3125 -0.4375,-0.3125 -0.59375,-1 l -0.65625,-3.59375 h -8.875 l -0.65625,3.59375 q -0.15625,0.6875 -0.625,1 -0.4375,0.3125 -1.0625,0.3125 h -9.6875 q -1.0625,0 -0.6875,-1.3125 l 11.375,-41.90625 q 0.375,-1.34375 1.625,-1.34375 h 8.28125 q 1.28125,0 1.65625,1.34375 z m -19.65625,-13.875 h 5.0625 l -1.84375,-10.09375 -0.6875,-5.25 -0.65625,5.25 z" />
      <path
         id="path40"
         style="font-family:'Cocogoose Condensed Trial';letter-spacing:0.075em"
         d="m 524.25781,56.78125 q 0,-1.34375 1.3125,-1.34375 h 8.09375 q 1.375,0 1.90625,1.34375 l 8.5,18.15625 1.71875,5 -0.5625,-5.03125 -0.53125,-18.125 q 0,-0.53125 0.3125,-0.9375 0.34375,-0.40625 1,-0.40625 h 8.40625 q 0.375,0 0.8125,0.25 0.4375,0.21875 0.4375,1.03125 V 98.6875 q 0,1.3125 -1.4375,1.3125 h -7.9375 q -0.625,0 -1.15625,-0.3125 -0.5,-0.3125 -0.78125,-1 l -8.4375,-17.71875 -1.65625,-4.6875 0.5,4.6875 0.5,17.71875 Q 535.28906,100 533.94531,100 h -8.375 q -1.3125,0 -1.3125,-1.3125 z" />
      <path
         id="path42"
         style="font-family:'Cocogoose Condensed Trial';letter-spacing:0.075em"
         d="m 567.07812,56.78125 q 0,-1.34375 1.3125,-1.34375 h 22.6875 q 1.0625,0 1.0625,1.34375 V 65.125 q 0,1.3125 -1.0625,1.3125 h -12.4375 V 72.25 h 9.3125 q 1.21875,0 1.21875,1.375 v 8.28125 q 0,1.3125 -1.21875,1.3125 h -9.3125 V 89 h 12.78125 q 1.125,0 1.125,1.3125 v 8.375 q 0,1.3125 -1.125,1.3125 h -23.03125 q -1.3125,0 -1.3125,-1.3125 z" />
      <path
         id="path44"
         style="font-family:'Cocogoose Condensed Trial';letter-spacing:0.075em"
         d="M 633.96094,98.6875 Q 634.36719,100 633.30469,100 h -9.6875 q -0.65625,0 -1.09375,-0.3125 -0.4375,-0.3125 -0.59375,-1 l -0.65625,-3.59375 h -8.875 l -0.65625,3.59375 q -0.15625,0.6875 -0.625,1 -0.4375,0.3125 -1.0625,0.3125 h -9.6875 q -1.0625,0 -0.6875,-1.3125 l 11.375,-41.90625 q 0.375,-1.34375 1.625,-1.34375 h 8.28125 q 1.28125,0 1.65625,1.34375 z m -19.65625,-13.875 h 5.0625 l -1.84375,-10.09375 -0.6875,-5.25 -0.65625,5.25 z" />
    </g>
  </g>
</svg>
