<?xml version="1.0" encoding="UTF-8" standalone="no"?>
<svg
   xmlns:dc="http://purl.org/dc/elements/1.1/"
   xmlns:cc="http://creativecommons.org/ns#"
   xmlns:rdf="http://www.w3.org/1999/02/22-rdf-syntax-ns#"
   xmlns:svg="http://www.w3.org/2000/svg"
   xmlns="http://www.w3.org/2000/svg"
   id="svg16"
   width="800px"
   version="1.1"
   height="200px">
  <metadata
     id="metadata20">
    <rdf:RDF>
      <cc:Work
         rdf:about="">
        <dc:format>image/svg+xml</dc:format>
        <dc:type
           rdf:resource="http://purl.org/dc/dcmitype/StillImage" />
      </cc:Work>
    </rdf:RDF>
  </metadata>
  <defs
     id="defs4">
    <style
       id="style2"
       type="text/css"><![CDATA[    
     @font-face {font-family:Cocogoose Condensed Trial;
     src: url('/Users/francesco/Repos/write-logos/src/fonts/Fonts_E_TEMPORANEA/Cocogoose-Condensed-Regular-trial.ttf');}
     @font-face {font-family:Westpart;
     src: url('/Users/francesco/Repos/write-logos/src/fonts/Fonts_X/WestpartDemo.otf');}
     ]]></style>
  </defs>
  <g
     id="g14"
     style="font-size:60px">
    <g
       style="text-anchor:middle"
       id="text12"
       aria-label="EXTEMPORANEA">
      <path
         id="path22"
         style="font-family:'Cocogoose Condensed Trial';letter-spacing:0.075em"
         d="m 170.14062,56.78125 q 0,-1.34375 1.3125,-1.34375 h 22.6875 q 1.0625,0 1.0625,1.34375 V 65.125 q 0,1.3125 -1.0625,1.3125 h -12.4375 V 72.25 h 9.3125 q 1.21875,0 1.21875,1.375 v 8.28125 q 0,1.3125 -1.21875,1.3125 h -9.3125 V 89 h 12.78125 q 1.125,0 1.125,1.3125 v 8.375 q 0,1.3125 -1.125,1.3125 h -23.03125 q -1.3125,0 -1.3125,-1.3125 z" />
      <path
         id="path24"
         style="font-family:Westpart;letter-spacing:0.05em"
         d="m 202.49219,103.96 c 0,0 0,0 0,0 0,0 0,0 0,0 z m 34.5,-47.94 c -0.24,-0.18 -0.48,-0.3 -0.66,-0.48 -0.42,0.06 -0.84,0.12 -1.26,0.12 -1.14,0.48 -1.98,1.32 -2.88,2.04 -0.42,0.84 -1.2,1.32 -1.8,1.92 -1.02,1.14 -2.22,2.04 -3,3.36 -0.42,0.72 -1.02,1.26 -1.44,1.98 -0.6,1.02 -1.38,1.86 -2.04,2.88 -0.54,0.78 -1.26,1.44 -1.62,2.34 -0.06,0.18 -0.3,0.36 -0.42,0.48 -0.18,0.18 -0.36,0.36 -0.48,0.6 -0.54,0.9 -1.2,1.74 -1.86,2.64 -0.24,0.36 -0.54,0.72 -0.84,1.08 0,0.06 -0.12,0.06 -0.3,0.06 0.54,-1.26 1.38,-2.34 2.22,-3.36 0.18,-0.54 0.48,-1.08 0.9,-1.5 0.42,-0.48 0.84,-0.9 0.9,-1.56 0.72,-0.6 1.26,-1.38 1.74,-2.16 0.24,-0.48 0.66,-0.96 0.96,-1.38 0.18,-0.24 0.42,-0.42 0.54,-0.66 0.54,-0.78 1.14,-1.5 1.62,-2.28 0.36,-0.54 0.84,-1.08 1.14,-1.68 0.06,-0.06 0,-0.12 0.06,-0.36 -1.08,0.96 -2.04,1.74 -2.82,2.82 -0.48,0.66 -1.02,1.32 -1.62,1.92 -0.9,0.96 -1.74,1.92 -2.46,3 -0.18,0.24 -0.3,0.48 -0.54,0.66 -0.9,0.84 -1.44,2.04 -2.34,2.88 -0.24,0.3 -0.36,0.72 -0.66,0.96 -0.3,0.24 -0.54,0.66 -0.84,1.02 -0.24,-0.42 -0.42,-0.78 -0.72,-1.08 -0.24,-0.3 -0.42,-0.54 -0.6,-0.84 -0.36,-0.6 -0.78,-1.14 -1.2,-1.62 -0.12,-0.18 -0.3,-0.42 -0.6,-0.36 -0.06,0 -0.12,-0.12 -0.18,-0.12 0.06,-0.18 0.06,-0.36 0.12,-0.48 -0.72,-0.72 -1.2,-1.5 -1.68,-2.28 -0.36,-0.54 -0.84,-0.96 -1.44,-1.08 -1.02,-1.14 -2.1,-2.1 -3.24,-2.94 -0.54,-0.12 -0.96,0 -1.26,0.36 0,0.06 -0.06,0.12 -0.06,0.18 0,1.02 0.36,1.98 0.6,3 0.18,0.6 0.6,1.2 0.9,1.8 0.48,1.02 0.96,1.98 1.5,3.06 0.12,0.12 0.42,0.36 0.48,0.6 0.06,0.42 0.36,0.66 0.6,0.96 0.12,0.12 0.18,0.3 0.3,0.42 0.42,0.66 0.66,1.44 1.26,1.98 0.06,0.06 0.06,0.18 0.12,0.3 0.48,0.9 1.02,1.8 1.5,2.7 0.12,0.18 0.12,0.36 0.18,0.48 -0.06,0.24 -0.12,0.48 -0.18,0.66 -0.12,0.18 -0.24,0.36 -0.36,0.48 -0.18,0.3 -0.42,0.54 -0.54,0.84 -0.42,0.84 -0.96,1.56 -1.5,2.28 -0.18,0.18 -0.36,0.42 -0.42,0.66 -0.48,1.02 -1.14,1.98 -1.68,2.94 -0.48,0.78 -1.02,1.5 -1.32,2.34 -0.12,0.3 -0.3,0.6 -0.42,0.84 -0.42,0.78 -0.84,1.62 -1.26,2.4 -0.3,0.72 -0.72,1.38 -0.96,2.16 -0.24,0.78 -0.72,1.44 -0.9,2.22 -0.06,0.36 -0.18,0.78 -0.42,1.08 -0.18,0.3 -0.12,0.66 -0.24,1.02 -0.12,0.12 -0.36,0.12 -0.3,0.36 0.24,0.12 0.48,0.24 0.72,0.3 -0.06,0.24 -0.12,0.48 -0.18,0.72 0,0.3 0,0.54 0,0.84 -0.24,0.12 -0.42,0.3 -0.6,0.42 -0.24,0.72 -0.3,1.44 -0.78,1.98 -0.18,0.24 -0.18,0.66 0.06,1.02 0.3,-0.24 0.6,-0.48 0.96,-0.66 0.06,-0.18 0.18,-0.36 0.18,-0.54 0.06,-0.18 0.06,-0.36 0.06,-0.54 0.3,-0.42 0.6,-0.78 0.84,-1.14 0.3,0 0.54,0 0.78,0 0,-0.66 0.48,-0.96 0.78,-1.14 0.3,-0.54 0.6,-0.9 0.84,-1.32 0.72,-1.38 1.62,-2.7 2.4,-4.02 0.54,-0.96 1.32,-1.8 1.68,-2.82 0.18,-0.3 0.48,-0.54 0.72,-0.78 0.84,-1.26 1.74,-2.52 2.58,-3.78 0.3,-0.48 0.54,-0.9 0.96,-1.5 0.06,-0.12 0.36,-0.24 0.6,-0.48 0.18,-0.24 0.24,-0.54 0.54,-0.78 0.24,-0.18 0.36,-0.48 0.54,-0.66 0.24,0.36 0.54,0.66 0.72,1.08 0.6,1.14 1.2,2.34 1.8,3.48 0.12,0.18 0.18,0.42 0.3,0.54 0.42,0.42 0.6,0.9 0.9,1.38 0.24,0.48 0.48,1.08 0.84,1.44 0.66,0.72 1.32,1.5 2.16,2.04 0.48,0.36 0.84,0.78 1.26,1.2 0.06,0 0.12,0 0.24,0.06 0.18,-0.18 0.36,-0.3 0.54,-0.48 0.24,0.12 0.42,0.24 0.6,0.3 0.18,0.3 0.36,0.54 0.48,0.84 0.36,0.18 0.72,0.3 1.02,0.48 0.3,-0.36 0.18,-0.72 0.18,-1.02 -0.06,-0.06 -0.06,-0.12 -0.12,-0.24 0,0 0.06,0 0.06,0 0,0.06 0.06,0.18 0.06,0.24 0.12,0 0.24,0.06 0.3,0.06 0.36,-0.54 0.42,-1.14 0.36,-1.62 -0.24,-0.66 -0.48,-1.14 -0.66,-1.68 -0.18,-0.6 -0.42,-1.14 -0.48,-1.74 -0.12,-0.48 -0.36,-0.84 -0.6,-1.26 -0.36,-0.78 -1.02,-1.32 -1.26,-2.16 -0.24,-0.12 -0.42,-0.24 -0.6,-0.42 0,-0.78 -0.48,-1.38 -0.96,-2.04 0,-0.9 -1.02,-1.26 -1.08,-2.1 -0.24,-0.12 -0.36,-0.18 -0.48,-0.3 -0.3,-0.54 -0.48,-1.08 -0.84,-1.5 -0.42,-0.54 -0.78,-1.14 -1.08,-1.8 0.12,-0.24 0.24,-0.54 0.42,-0.78 0.6,-0.84 1.32,-1.68 1.92,-2.52 0.42,-0.54 0.72,-1.08 1.26,-1.5 0.24,-0.18 0.36,-0.48 0.54,-0.78 0.18,-0.24 0.3,-0.48 0.48,-0.72 0.3,-0.42 0.66,-0.78 1.02,-1.32 0.12,-0.06 0.36,-0.18 0.36,-0.18 0.6,-0.72 1.02,-1.2 1.44,-1.74 0.24,-0.36 0.54,-0.72 0.96,-1.26 0.06,-0.12 0.36,-0.42 0.6,-0.72 0.96,-1.02 1.56,-2.28 2.4,-3.36 0.24,-0.3 0.48,-0.6 0.66,-0.9 0.72,-1.44 1.68,-2.7 2.7,-3.9 0.6,-0.72 1.14,-1.44 1.62,-2.1 0,-0.3 0,-0.54 0,-0.78 z m -33,42.96 c 0,-0.12 0,-0.24 0.06,-0.48 0.18,0.24 0.06,0.36 -0.06,0.48 z m 1.92,-1.5 c -0.06,0.12 -0.06,0.18 -0.12,0.24 0,0 0,0 -0.06,0 0.06,-0.06 0.12,-0.18 0.18,-0.24 0,0 0,-0.06 0,-0.06 0,0.06 0,0.06 0,0.06 z m 1.44,-3.06 v -0.06 l 0.12,0.06 z m 6.6,-27.06 c 0.12,0.06 0.24,0.12 0.42,-0.12 -0.6,-0.78 -0.96,-1.68 -1.98,-2.34 0.06,0.24 0.06,0.36 0.06,0.36 0.54,0.72 1.02,1.38 1.5,2.1 z m -11.46,36.6 c -0.06,0 -0.06,0 -0.06,0.06 0,-0.06 0,-0.06 0.06,-0.06 z" />
      <path
         id="path26"
         style="font-family:'Cocogoose Condensed Trial';letter-spacing:0.075em"
         d="m 241.57031,56.78125 q 0,-1.34375 1.125,-1.34375 h 26.28125 q 0.53125,0 0.8125,0.34375 0.3125,0.34375 0.3125,1 v 8.3125 q 0,0.65625 -0.3125,1 -0.28125,0.34375 -0.8125,0.34375 h -7.3125 v 32.25 q 0,1.3125 -1.1875,1.3125 h -9.3125 q -1.0625,0 -1.0625,-1.3125 v -32.25 h -7.40625 q -1.125,0 -1.125,-1.34375 z" />
      <path
         id="path28"
         style="font-family:'Cocogoose Condensed Trial';letter-spacing:0.075em"
         d="m 278.35156,56.78125 q 0,-1.34375 1.3125,-1.34375 h 22.6875 q 1.0625,0 1.0625,1.34375 V 65.125 q 0,1.3125 -1.0625,1.3125 h -12.4375 V 72.25 h 9.3125 q 1.21875,0 1.21875,1.375 v 8.28125 q 0,1.3125 -1.21875,1.3125 h -9.3125 V 89 h 12.78125 q 1.125,0 1.125,1.3125 v 8.375 q 0,1.3125 -1.125,1.3125 h -23.03125 q -1.3125,0 -1.3125,-1.3125 z" />
      <path
         id="path30"
         style="font-family:'Cocogoose Condensed Trial';letter-spacing:0.075em"
         d="m 325.64062,79.84375 -1.96875,-7.46875 0.65625,7.5 0.625,18.8125 q 0.0312,1.3125 -1.125,1.3125 h -8.59375 q -1.15625,0 -1.09375,-1.3125 V 56.78125 q 0.0625,-0.65625 0.28125,-1 0.25,-0.34375 0.8125,-0.34375 h 10.4375 q 0.65625,0 0.78125,0.34375 0.15625,0.34375 0.375,1 l 6.875,19.9375 0.59375,3.71875 0.65625,-3.71875 6.84375,-19.9375 q 0.21875,-0.65625 0.34375,-1 0.15625,-0.34375 0.8125,-0.34375 h 10.4375 q 0.5625,0 0.78125,0.34375 0.25,0.34375 0.3125,1 V 98.6875 Q 354.51562,100 353.39062,100 h -8.625 q -1.15625,0 -1.09375,-1.3125 l 0.65625,-18.8125 0.625,-7.46875 -1.9375,7.40625 -4.125,12.5 q -0.25,0.8125 -0.4375,1.09375 -0.1875,0.28125 -0.84375,0.28125 h -6.53125 q -0.65625,0 -0.875,-0.28125 -0.1875,-0.28125 -0.40625,-1.09375 z" />
      <path
         id="path32"
         style="font-family:'Cocogoose Condensed Trial';letter-spacing:0.075em"
         d="m 365.86719,56.78125 q 0,-1.34375 1.3125,-1.34375 h 14.65625 q 2.84375,0 5.28125,1.03125 2.46875,1.03125 4.25,2.8125 1.8125,1.75 2.84375,4.09375 1.03125,2.3125 1.03125,4.90625 v 4.78125 q 0,2.65625 -1.0625,5.125 -1.03125,2.46875 -2.84375,4.375 -1.8125,1.875 -4.25,3 -2.4375,1.125 -5.1875,1.125 h -4.46875 v 12 q 0,1.3125 -1.34375,1.3125 h -8.90625 q -1.3125,0 -1.3125,-1.3125 z m 15.3125,18.90625 q 1.09375,0 1.78125,-0.6875 0.71875,-0.71875 0.71875,-1.71875 v -4.375 q 0,-1.03125 -0.71875,-1.75 -0.71875,-0.71875 -1.8125,-0.71875 h -3.71875 v 9.25 z" />
      <path
         id="path34"
         style="font-family:'Cocogoose Condensed Trial';letter-spacing:0.075em"
         d="m 402.98437,70.71875 q 0,-3.1875 0.9375,-6.125 0.9375,-2.96875 2.84375,-5.21875 1.9375,-2.25 4.84375,-3.59375 2.9375,-1.375 6.90625,-1.375 3.90625,0 6.8125,1.34375 2.9375,1.34375 4.875,3.59375 1.9375,2.25 2.90625,5.1875 0.96875,2.9375 0.96875,6.15625 v 14.09375 q 0,3.21875 -0.96875,6.15625 -0.9375,2.9375 -2.875,5.1875 -1.9375,2.25 -4.875,3.59375 -2.90625,1.34375 -6.84375,1.34375 -3.84375,0 -6.78125,-1.34375 -2.90625,-1.34375 -4.84375,-3.59375 -1.9375,-2.28125 -2.9375,-5.21875 -0.96875,-2.9375 -0.96875,-6.125 z m 11.5625,14.9375 q 0,1.875 0.96875,3.15625 1,1.25 3.03125,1.25 1,0 1.75,-0.34375 0.75,-0.34375 1.21875,-0.90625 0.5,-0.59375 0.75,-1.375 0.25,-0.8125 0.25,-1.75 V 69.78125 q 0,-0.84375 -0.25,-1.625 -0.25,-0.8125 -0.75,-1.40625 -0.5,-0.625 -1.25,-1 -0.75,-0.375 -1.71875,-0.375 -1,0 -1.75,0.375 -0.71875,0.375 -1.25,1 -0.5,0.59375 -0.75,1.40625 -0.25,0.78125 -0.25,1.625 z" />
      <path
         id="path36"
         style="font-family:'Cocogoose Condensed Trial';letter-spacing:0.075em"
         d="m 444.24219,56.78125 q 0,-1.34375 1.3125,-1.34375 h 14.6875 q 2.75,0 5.1875,1.03125 2.4375,1 4.25,2.78125 1.84375,1.75 2.875,4.125 1.0625,2.375 1.0625,5.125 v 3.84375 q 0,1.625 -0.40625,3.125 -0.375,1.46875 -1.0625,2.78125 -0.65625,1.3125 -1.59375,2.4375 -0.9375,1.09375 -2,2 l 0.9375,1.46875 4.125,14.53125 q 0.15625,0.4375 0,0.875 Q 473.46094,100 472.92969,100 h -10.125 q -0.625,0 -0.875,-0.25 -0.25,-0.25 -0.4375,-1 l -2.8125,-12.6875 h -2.875 v 12.625 q 0,1.3125 -1.375,1.3125 h -8.875 q -1.3125,0 -1.3125,-1.3125 z m 11.5625,9.65625 v 8.9375 h 3.71875 q 0.5625,0 1.03125,-0.21875 0.46875,-0.25 0.78125,-0.625 0.34375,-0.40625 0.53125,-0.875 0.1875,-0.5 0.1875,-1 v -3.75 q 0,-1.03125 -0.71875,-1.75 -0.71875,-0.71875 -1.8125,-0.71875 z" />
      <path
         id="path38"
         style="font-family:'Cocogoose Condensed Trial';letter-spacing:0.075em"
         d="M 515.10937,98.6875 Q 515.51562,100 514.45312,100 h -9.6875 q -0.65625,0 -1.09375,-0.3125 -0.4375,-0.3125 -0.59375,-1 l -0.65625,-3.59375 h -8.875 l -0.65625,3.59375 q -0.15625,0.6875 -0.625,1 -0.4375,0.3125 -1.0625,0.3125 h -9.6875 q -1.0625,0 -0.6875,-1.3125 l 11.375,-41.90625 q 0.375,-1.34375 1.625,-1.34375 h 8.28125 q 1.28125,0 1.65625,1.34375 z m -19.65625,-13.875 h 5.0625 l -1.84375,-10.09375 -0.6875,-5.25 -0.65625,5.25 z" />
      <path
         id="path40"
         style="font-family:'Cocogoose Condensed Trial';letter-spacing:0.075em"
         d="m 523.32031,56.78125 q 0,-1.34375 1.3125,-1.34375 h 8.09375 q 1.375,0 1.90625,1.34375 l 8.5,18.15625 1.71875,5 -0.5625,-5.03125 -0.53125,-18.125 q 0,-0.53125 0.3125,-0.9375 0.34375,-0.40625 1,-0.40625 h 8.40625 q 0.375,0 0.8125,0.25 0.4375,0.21875 0.4375,1.03125 V 98.6875 q 0,1.3125 -1.4375,1.3125 h -7.9375 q -0.625,0 -1.15625,-0.3125 -0.5,-0.3125 -0.78125,-1 l -8.4375,-17.71875 -1.65625,-4.6875 0.5,4.6875 0.5,17.71875 Q 534.35156,100 533.00781,100 h -8.375 q -1.3125,0 -1.3125,-1.3125 z" />
      <path
         id="path42"
         style="font-family:'Cocogoose Condensed Trial';letter-spacing:0.075em"
         d="m 566.14062,56.78125 q 0,-1.34375 1.3125,-1.34375 h 22.6875 q 1.0625,0 1.0625,1.34375 V 65.125 q 0,1.3125 -1.0625,1.3125 h -12.4375 V 72.25 h 9.3125 q 1.21875,0 1.21875,1.375 v 8.28125 q 0,1.3125 -1.21875,1.3125 h -9.3125 V 89 h 12.78125 q 1.125,0 1.125,1.3125 v 8.375 q 0,1.3125 -1.125,1.3125 h -23.03125 q -1.3125,0 -1.3125,-1.3125 z" />
      <path
         id="path44"
         style="font-family:'Cocogoose Condensed Trial';letter-spacing:0.075em"
         d="M 633.02344,98.6875 Q 633.42969,100 632.36719,100 h -9.6875 q -0.65625,0 -1.09375,-0.3125 -0.4375,-0.3125 -0.59375,-1 l -0.65625,-3.59375 h -8.875 l -0.65625,3.59375 q -0.15625,0.6875 -0.625,1 -0.4375,0.3125 -1.0625,0.3125 h -9.6875 q -1.0625,0 -0.6875,-1.3125 l 11.375,-41.90625 q 0.375,-1.34375 1.625,-1.34375 h 8.28125 q 1.28125,0 1.65625,1.34375 z m -19.65625,-13.875 h 5.0625 l -1.84375,-10.09375 -0.6875,-5.25 -0.65625,5.25 z" />
    </g>
  </g>
</svg>
