<?xml version="1.0" encoding="UTF-8" standalone="no"?>
<svg
   xmlns:dc="http://purl.org/dc/elements/1.1/"
   xmlns:cc="http://creativecommons.org/ns#"
   xmlns:rdf="http://www.w3.org/1999/02/22-rdf-syntax-ns#"
   xmlns:svg="http://www.w3.org/2000/svg"
   xmlns="http://www.w3.org/2000/svg"
   id="svg10"
   width="500px"
   version="1.1"
   height="200px">
  <metadata
     id="metadata14">
    <rdf:RDF>
      <cc:Work
         rdf:about="">
        <dc:format>image/svg+xml</dc:format>
        <dc:type
           rdf:resource="http://purl.org/dc/dcmitype/StillImage" />
      </cc:Work>
    </rdf:RDF>
  </metadata>
  <defs
     id="defs4">
    <style
       id="style2"
       type="text/css"><![CDATA[    
     @font-face {font-family:Congrats Calligraphy;
     src: url('/Users/francesco/Repos/write-logos/src/fonts//Congrats_Calligraphy_-_TTF.ttf');}]]></style>
  </defs>
  <g
     id="g8"
     style="font-size:30px;font-family:'Congrats Calligraphy'">
    <g
       style=""
       id="text6"
       aria-label="eXtemporanea">
      <path
         id="path16"
         style=""
         d="m 107.68,92.95 q 0.18,0.06 0.24,0.24 0.09,0.18 0,0.36 -0.24,0.54 -0.69,1.62 -0.42,1.05 -1.11,2.1 -0.66,1.02 -1.62,1.8 -0.93,0.78 -2.16,0.78 -1.32,0 -2.04,-1.47 -0.57,-1.23 -0.57,-2.97 0,-2.01 0.72,-3.42 0.42,-0.84 1.02,-1.29 0.63,-0.45 1.38,-0.45 0.54,0 0.9,0.15 0.39,0.12 0.63,0.33 0.27,0.18 0.39,0.42 0.15,0.24 0.24,0.42 0.33,0.78 0.09,1.74 -0.24,0.93 -0.9,1.56 -0.6,0.57 -1.23,0.87 -0.6,0.3 -1.11,0.45 0.15,1.38 0.48,1.95 0.36,0.54 0.84,0.54 0.57,0 1.23,-0.75 0.66,-0.75 1.23,-1.71 0.57,-0.96 0.96,-1.83 0.42,-0.9 0.51,-1.2 0.06,-0.18 0.24,-0.24 0.18,-0.06 0.33,0 z m -4.11,1.26 q 0.45,-0.45 0.63,-1.11 0.18,-0.69 -0.03,-1.2 -0.18,-0.45 -0.45,-0.48 -0.24,-0.06 -0.51,0.09 -0.24,0.15 -0.48,0.48 -0.21,0.3 -0.33,0.57 -0.51,1.11 -0.57,2.55 v 0.15 q 0.42,-0.15 0.87,-0.39 0.45,-0.24 0.87,-0.66 z" />
      <path
         id="path18"
         style=""
         d="m 129.01984,92.95 q 0.15,0.09 0.21,0.27 0.06,0.18 0,0.33 l -0.39,0.84 q -0.39,0.78 -0.84,1.71 -0.45,0.93 -0.96,1.74 -1.29,2.04 -2.49,2.04 -1.08,0 -2.04,-1.14 -0.66,-0.78 -1.17,-1.92 -0.51,-1.14 -0.93,-2.4 -0.39,-1.26 -0.69,-2.52 -0.3,-1.26 -0.48,-2.28 -2.64,3.33 -3.99,5.82 -1.35,2.46 -1.35,3.99 0,0.18 -0.15,0.33 -0.12,0.12 -0.3,0.12 -0.21,0 -0.33,-0.12 -0.12,-0.15 -0.12,-0.33 0,-3.57 6.03,-11.01 -0.33,-1.98 -0.48,-3.81 -0.15,-1.83 -0.12,-3.27 -0.84,0.42 -2.49,0.6 -0.99,0.09 -2.04,0.12 -1.05,0 -1.86,-0.03 h -1.08 q -0.09,0 -0.12,0.03 0.54,0.78 0.54,1.59 0,0.57 -0.3,0.87 -0.15,0.12 -0.39,0.24 -0.21,0.12 -0.6,0.12 -0.6,0 -0.96,-0.42 -0.36,-0.42 -0.39,-1.11 0,-0.84 0.54,-1.47 l 0.09,-0.12 q -0.33,-0.27 -0.75,-0.45 -0.39,-0.18 -0.84,-0.18 -0.18,0 -0.33,-0.12 -0.12,-0.15 -0.12,-0.33 0,-0.21 0.12,-0.33 0.15,-0.12 0.33,-0.12 1.29,0 2.4,1.05 0.15,-0.06 0.33,-0.09 0.21,-0.03 0.42,-0.06 h 1.11 q 0.81,0.03 1.83,0.03 1.02,-0.03 1.98,-0.12 1.26,-0.15 1.83,-0.36 0.57,-0.21 0.81,-0.45 0,-0.39 0.09,-0.72 0.06,-0.18 0.42,-0.36 0.36,-0.18 0.75,-0.24 0.39,-0.06 0.69,0.03 0.3,0.09 0.24,0.48 -0.09,0.51 -0.12,1.26 -0.03,0.75 -0.03,1.65 0.03,0.9 0.09,1.92 0.09,0.99 0.21,2.01 1.23,-1.44 2.4,-2.67 1.17,-1.26 2.07,-2.19 0.9,-0.93 1.44,-1.47 0.57,-0.57 0.57,-0.57 0.3,-0.3 0.63,0 0.3,0.33 0,0.63 0,0 -0.6,0.6 -0.6,0.6 -1.59,1.62 -0.96,1.02 -2.22,2.37 -1.23,1.35 -2.52,2.88 0.09,0.66 0.18,1.29 0.12,0.63 0.24,1.26 0.33,1.65 0.72,3.09 0.42,1.41 0.87,2.55 0.36,0.96 0.69,1.68 0.36,0.72 0.72,1.02 0.39,0.3 0.84,0.09 0.45,-0.21 1.02,-1.08 0.51,-0.78 0.93,-1.68 0.45,-0.9 0.81,-1.68 0.09,-0.24 0.18,-0.45 0.12,-0.21 0.21,-0.39 0.06,-0.15 0.24,-0.21 0.18,-0.06 0.36,0 z m -18.6,-9.06 q 0.06,-0.06 0.06,-0.12 0,-0.06 0,-0.12 0,-0.57 -0.48,-1.23 -0.21,0.24 -0.3,0.48 -0.06,0.24 -0.06,0.42 0,0.09 0.06,0.39 0.06,0.27 0.39,0.27 0.24,0 0.33,-0.09 z" />
      <path
         id="path20"
         style=""
         d="m 134.95797,81.31 q 0.15,0.12 0.3,0.36 0.15,0.21 0.15,0.63 0,0.18 -0.12,0.33 -0.12,0.12 -0.33,0.12 -0.18,0 -0.33,-0.12 -0.12,-0.15 -0.12,-0.33 0,-0.06 -0.03,-0.12 0,-0.06 0,-0.09 -0.03,-0.03 -0.03,-0.06 -0.06,-0.06 -0.3,-0.09 -0.21,-0.03 -0.75,0.06 -0.36,0.06 -0.78,0.18 -0.42,0.12 -0.84,0.24 -0.3,1.86 -0.66,4.17 -0.33,2.28 -0.6,4.53 -0.27,2.22 -0.42,4.17 -0.12,1.92 0.03,3.09 0.09,-0.15 0.24,-0.45 0.18,-0.3 0.39,-0.63 0.21,-0.33 0.39,-0.69 0.21,-0.36 0.36,-0.63 0.27,-0.54 0.51,-1.02 0.24,-0.51 0.42,-0.9 0.21,-0.39 0.33,-0.63 0.12,-0.27 0.12,-0.27 0.06,-0.15 0.24,-0.21 0.18,-0.06 0.36,0 0.36,0.21 0.21,0.6 -0.21,0.45 -0.45,0.96 -0.21,0.42 -0.48,0.99 -0.27,0.54 -0.57,1.11 -0.6,1.14 -1.02,1.8 -0.42,0.63 -0.72,0.96 -0.27,0.33 -0.45,0.42 -0.18,0.09 -0.33,0.09 -0.15,0 -0.33,-0.06 -0.18,-0.06 -0.36,-0.3 -0.18,-0.21 -0.39,-0.9 -0.21,-0.69 -0.24,-2.46 -0.06,-2.16 0.27,-5.55 0.18,-1.98 0.42,-3.93 0.27,-1.95 0.51,-3.63 -0.45,0.12 -0.93,0.12 -0.66,0 -0.96,-0.27 -0.15,-0.12 -0.3,-0.33 -0.15,-0.21 -0.15,-0.63 0,-0.18 0.15,-0.3 0.12,-0.15 0.3,-0.15 0.21,0 0.33,0.15 0.12,0.12 0.12,0.3 0,0.24 0.09,0.24 0.06,0.06 0.27,0.09 0.21,0.03 0.75,-0.06 0.12,-0.03 0.24,-0.03 0.12,-0.03 0.24,-0.09 l 0.36,-2.07 q 0,-0.3 0.36,-0.57 0.39,-0.27 0.81,-0.36 0.42,-0.12 0.75,0.03 0.36,0.12 0.27,0.63 l -0.33,1.68 q 0.99,-0.27 1.77,-0.36 0.78,-0.12 1.26,0.24 z" />
      <path
         id="path22"
         style=""
         d="m 140.55109,92.95 q 0.18,0.06 0.24,0.24 0.09,0.18 0,0.36 -0.24,0.54 -0.69,1.62 -0.42,1.05 -1.11,2.1 -0.66,1.02 -1.62,1.8 -0.93,0.78 -2.16,0.78 -1.32,0 -2.04,-1.47 -0.57,-1.23 -0.57,-2.97 0,-2.01 0.72,-3.42 0.42,-0.84 1.02,-1.29 0.63,-0.45 1.38,-0.45 0.54,0 0.9,0.15 0.39,0.12 0.63,0.33 0.27,0.18 0.39,0.42 0.15,0.24 0.24,0.42 0.33,0.78 0.09,1.74 -0.24,0.93 -0.9,1.56 -0.6,0.57 -1.23,0.87 -0.6,0.3 -1.11,0.45 0.15,1.38 0.48,1.95 0.36,0.54 0.84,0.54 0.57,0 1.23,-0.75 0.66,-0.75 1.23,-1.71 0.57,-0.96 0.96,-1.83 0.42,-0.9 0.51,-1.2 0.06,-0.18 0.24,-0.24 0.18,-0.06 0.33,0 z m -4.11,1.26 q 0.45,-0.45 0.63,-1.11 0.18,-0.69 -0.03,-1.2 -0.18,-0.45 -0.45,-0.48 -0.24,-0.06 -0.51,0.09 -0.24,0.15 -0.48,0.48 -0.21,0.3 -0.33,0.57 -0.51,1.11 -0.57,2.55 v 0.15 q 0.42,-0.15 0.87,-0.39 0.45,-0.24 0.87,-0.66 z" />
      <path
         id="path24"
         style=""
         d="m 154.27094,92.95 q 0.15,0.09 0.21,0.27 0.06,0.18 0,0.33 0,0 -0.12,0.27 -0.12,0.27 -0.33,0.72 -0.21,0.42 -0.51,0.96 -0.27,0.54 -0.57,1.11 -0.18,0.3 -0.48,0.87 -0.27,0.54 -0.6,1.08 -0.33,0.54 -0.72,0.93 -0.36,0.39 -0.72,0.39 -0.6,0 -0.81,-0.66 -0.21,-0.69 -0.21,-1.56 0,-0.87 0.12,-1.68 0.12,-0.81 0.18,-1.05 0.12,-0.75 0.21,-1.44 0.12,-0.69 0.12,-1.2 0.03,-0.51 -0.09,-0.75 -0.12,-0.27 -0.42,-0.15 -0.27,0.09 -0.78,0.66 -0.48,0.54 -1.26,1.62 0.09,0.81 0.09,1.65 0,1.77 -0.33,2.94 -0.18,0.69 -0.45,1.08 -0.24,0.33 -0.51,0.45 -0.24,0.09 -0.42,0.09 -0.42,0 -0.66,-0.15 -0.21,-0.15 -0.36,-0.3 -0.3,-0.45 -0.3,-1.02 0,-0.75 0.33,-1.68 0.36,-0.96 0.84,-1.86 -0.24,-1.44 -0.42,-2.13 -0.15,-0.69 -0.39,-0.69 -0.33,0 -0.87,0.87 -0.51,0.84 -1.05,2.01 -0.54,1.14 -0.99,2.31 -0.45,1.14 -0.63,1.77 -0.03,0.36 -0.33,0.63 -0.27,0.24 -0.63,0.33 -0.33,0.09 -0.6,-0.03 -0.3,-0.12 -0.33,-0.51 -0.09,-1.32 0.03,-2.73 0.09,-1.44 0.3,-2.64 0.18,-1.23 0.36,-2.07 0.18,-0.84 0.24,-1.02 0.12,-0.45 0.54,-0.69 0.45,-0.24 0.9,-0.27 0.48,-0.06 0.84,0.12 0.36,0.15 0.3,0.51 0,0 -0.12,0.39 -0.12,0.39 -0.3,1.05 -0.18,0.66 -0.42,1.53 -0.24,0.84 -0.51,1.8 0.45,-0.9 0.9,-1.8 0.48,-0.93 0.99,-1.68 0.51,-0.75 1.02,-1.2 0.54,-0.48 1.14,-0.48 0.42,0 0.69,0.24 0.27,0.21 0.42,0.57 0.18,0.33 0.3,0.72 0.12,0.36 0.21,0.63 0.3,-0.36 0.63,-0.75 0.36,-0.39 0.72,-0.69 0.39,-0.33 0.78,-0.51 0.39,-0.21 0.75,-0.21 0.72,0 1.08,0.48 0.39,0.45 0.51,1.2 0.15,0.72 0.09,1.62 -0.06,0.9 -0.21,1.8 -0.15,0.87 -0.36,1.65 -0.18,0.78 -0.3,1.23 l 1.26,-2.25 q 0.27,-0.54 0.51,-1.02 0.27,-0.51 0.45,-0.9 0.21,-0.39 0.33,-0.63 0.12,-0.27 0.12,-0.27 0.06,-0.15 0.24,-0.21 0.18,-0.06 0.36,0 z m -8.4,3.72 q -0.42,1.08 -0.42,1.74 0,0.3 0.09,0.42 l 0.06,-0.09 q 0.33,-0.51 0.27,-2.07 z" />
      <path
         id="path26"
         style=""
         d="m 160.42187,91.48 q 0.42,0.99 0.42,2.43 0,1.05 -0.21,2.07 -0.21,0.99 -0.59999,1.8 -0.45001,0.87 -1.05001,1.44 -0.78,0.63 -1.62,0.63 -0.36,0 -0.66,-0.09 -0.15,0 -0.27,-0.09 -0.36,-0.18 -0.66,-0.48 -0.27,-0.24 -0.45,-0.57 l -0.18,1.29 0.6,0.06 q 0.18,0.03 0.3,0.18 0.12,0.15 0.09,0.33 -0.03,0.18 -0.18,0.3 -0.15,0.12 -0.33,0.09 -0.15,-0.03 -0.3,-0.06 -0.15,0 -0.3,0 -0.15,0.87 -0.3,1.68 -0.12,0.81 -0.27,1.59 -0.78,3.81 -1.8,6.3 -1.23,2.97 -2.79,4.08 -0.96,0.75 -2.07,0.75 -0.42,0 -1.02,-0.15 -1.14,-0.33 -1.53,-1.68 -0.42,-1.32 0,-3.36 0.42,-1.86 1.35,-3.69 0.93,-1.83 2.22,-3.27 1.44,-1.62 3.12,-2.43 0.54,-0.3 1.05,-0.42 0.39,-2.67 0.57,-5.07 0.15,-2.4 0.15,-4.29 0,-0.39 0.36,-0.57 0.36,-0.21 0.78,-0.21 0.45,0 0.78,0.18 0.36,0.18 0.36,0.54 -0.03,0.3 -0.03,0.6 0,0.3 0,0.6 0,-0.03 0.06,-0.09 1.44,-1.65 2.85,-1.65 1.05,0 1.56,1.23 z m -14.28,18.72 q -0.35999,1.62 -0.12,2.55 0.24,0.93 0.84,1.14 0.57,0.21 1.38,-0.39 0.81,-0.57 1.59,-1.98 1.29,-2.25 2.19,-6.15 0.48,-1.98 0.81,-4.17 -1.04999,0.42 -1.89,1.08 -0.87,0.69 -1.47,1.38 -1.2,1.35 -2.07,3.09 -0.9,1.74 -1.26,3.45 z m 9.72,-16.62 q -0.06,0.63 -0.12,1.26 -0.06,0.63 -0.12,1.29 0.06,1.68 0.51,2.16 0.45,0.48 0.96,0.15 0.54,-0.36 0.99,-1.32 0.48,-0.99 0.63,-2.25 0.09,-1.02 0.03,-1.77 -0.03,-0.78 -0.27,-1.17 -0.21,-0.39 -0.66,-0.27 -0.45,0.09 -1.14,0.84 -0.27,0.33 -0.48,0.6 -0.18,0.27 -0.33,0.48 z" />
      <path
         id="path28"
         style=""
         d="m 177.26641,92.95 q 0.15,0.06 0.21,0.24 0.09,0.18 0,0.36 -0.18,0.45 -0.42,0.96 -0.21,0.42 -0.48,0.99 -0.27,0.54 -0.57,1.11 -0.9,1.74 -1.5,2.46 0,0.03 -0.03,0.03 0,0 0,0.03 -0.39,0.45 -0.66,0.6 -0.24,0.15 -0.42,0.15 -0.36,0 -0.6,-0.3 -0.12,-0.15 -0.24,-0.42 -0.09,-0.27 -0.15,-0.84 -0.06,-0.57 -0.03,-1.47 0.03,-0.9 0.18,-2.31 0.12,-0.87 0.21,-1.68 0.12,-0.81 0.21,-1.38 -0.6,0.21 -1.23,0.33 -0.6,0.12 -1.11,0.12 -0.27,0.84 -0.6,1.47 -0.3,0.6 -0.75,1.08 -0.42,0.45 -1.05,0.84 -0.6,0.39 -1.47,0.78 -0.12,0.57 -0.33,1.08 -0.18,0.48 -0.42,0.9 -0.48,0.78 -1.2,1.26 -0.81,0.54 -1.77,0.54 -1.29,0 -1.95,-1.08 -0.42,-0.69 -0.42,-1.62 -0.03,-0.93 0.21,-1.89 -0.3,-0.66 -0.3,-1.35 0,-0.66 0.27,-1.32 0.24,-0.66 0.66,-1.17 1.02,-1.2 2.58,-1.2 1.41,0 2.19,1.38 0.66,1.17 0.66,2.85 0,0.15 0,0.3 0,0.12 -0.03,0.27 1.11,-0.54 1.71,-1.32 0.63,-0.78 1.11,-1.98 -0.51,-0.18 -0.87,-0.54 -0.33,-0.36 -0.54,-0.84 -0.21,-0.48 -0.27,-1.02 -0.06,-0.57 0.03,-1.08 0.18,-0.87 0.72,-1.32 0.57,-0.45 1.35,-0.3 0.6,0.15 0.87,0.66 0.48,0.84 0.12,2.7 -0.06,0.3 -0.15,0.6 -0.09,0.3 0.24,0.45 0.39,0 0.75,-0.12 0.39,-0.12 0.69,-0.24 0.3,-0.15 0.48,-0.27 0.18,-0.12 0.18,-0.12 0.12,-0.09 0.45,-0.15 0.36,-0.06 0.69,-0.03 0.33,0 0.54,0.15 0.24,0.15 0.18,0.51 0,0 -0.18,0.84 -0.18,0.84 -0.39,2.01 -0.21,1.17 -0.39,2.46 -0.18,1.29 -0.18,2.22 0.09,-0.15 0.24,-0.42 0.18,-0.3 0.36,-0.63 0.18,-0.36 0.33,-0.66 0.18,-0.33 0.3,-0.57 0.27,-0.54 0.51,-1.02 0.27,-0.51 0.45,-0.93 0.21,-0.48 0.42,-0.9 0.06,-0.18 0.24,-0.24 0.18,-0.06 0.36,0 z m -11.28,2.52 q 0.03,-0.24 0.03,-0.48 0.03,-0.27 0.03,-0.51 0,-0.69 -0.15,-1.32 -0.12,-0.63 -0.39,-1.08 -0.54,-0.93 -1.41,-0.93 -0.6,0 -1.23,0.69 -0.63,0.66 -0.9,1.68 0.15,-0.48 0.51,-0.66 0.36,-0.21 0.69,-0.15 0.33,0.03 0.54,0.27 0.21,0.24 0.03,0.6 -0.27,0.57 -0.51,1.14 -0.21,0.54 -0.33,1.08 0.15,0.06 0.3,0.06 0.18,0 0.39,0 1.26,0 2.4,-0.39 z m -0.72,2.13 q 0.15,-0.24 0.27,-0.51 0.12,-0.3 0.21,-0.63 -0.51,0.15 -1.08,0.24 -0.54,0.06 -1.08,0.06 -0.24,0 -0.42,0 -0.18,0 -0.39,-0.06 -0.03,0.78 0.21,1.38 0.27,0.63 0.9,0.72 0.51,-0.18 0.81,-0.51 0.33,-0.36 0.57,-0.69 z m 4.89,-8.13 q 0,0.06 0.06,0.24 0.03,0.09 0.03,0.15 0.15,-0.66 0.15,-1.08 0,-0.45 -0.06,-0.54 -0.06,-0.12 -0.15,0.18 -0.06,0.27 -0.03,1.05 z" />
      <path
         id="path30"
         style=""
         d="m 186.96062,92.95 q 0.15,0.06 0.21,0.24 0.09,0.18 0.03,0.36 0,0 -0.15,0.27 -0.12,0.27 -0.33,0.69 -0.18,0.42 -0.45,0.99 -0.26999,0.54 -0.57,1.11 -0.9,1.74 -1.5,2.46 0,0.03 -0.03,0.03 0,0 0,0.03 -0.39,0.45 -0.63,0.6 -0.24,0.15 -0.45,0.15 -0.36,0 -0.6,-0.3 -0.12,-0.15 -0.23999,-0.42 -0.09,-0.27 -0.15001,-0.84 -0.03,-0.57 0,-1.47 0.03,-0.9 0.18,-2.31 0,-0.12 0,-0.24 0.03,-0.12 0.03,-0.24 l -0.57,1.2 q -0.78,1.56 -1.38,2.49 -0.57,0.9 -1.02,1.38 -0.45,0.48 -0.78,0.63 -0.33,0.12 -0.57,0.12 -0.45,0 -0.78,-0.36 -0.33,-0.36 -0.54,-0.93 -0.18,-0.57 -0.27,-1.26 -0.09,-0.69 -0.09,-1.38 0,-2.19 0.69001,-3.72 0.53999,-1.23 1.22999,-1.59 0.72,-0.39 1.26,-0.39 0.96,0 1.56,0.63 0.39,0.42 0.54,0.99 0.15,0.57 0.21,1.14 0.48,-1.05 0.66,-1.53 0.21,-0.51 0.21,-0.54 0.15,-0.39 0.54,-0.63 0.42,-0.24 0.81,-0.3 0.42,-0.09 0.69,0.06 0.3,0.12 0.24,0.51 0,0 -0.21,0.87 -0.18,0.87 -0.42,2.1 -0.24,1.2 -0.45,2.52 -0.18,1.32 -0.18,2.25 0.09,-0.15 0.24,-0.42 0.18,-0.3 0.36,-0.63 0.21001,-0.36 0.39,-0.69 0.18,-0.33 0.3,-0.57 0.27001,-0.51 0.51,-1.02 0.27,-0.51 0.45,-0.93 0.21,-0.48 0.42,-0.87 0.06,-0.18 0.24,-0.24 0.18,-0.06 0.36,0 z m -6.03,1.92 q -0.06,-0.12 -0.06,-0.18 0,-0.06 0,-0.12 0.03,-0.06 0.03,-0.15 0,-0.21 0,-0.6 0.03,-0.39 0,-0.81 -0.03,-0.45 -0.14999,-0.84 -0.12001,-0.39 -0.36001,-0.66 -0.33,-0.3 -0.63,-0.03 -0.3,0.27 -0.54,0.78 -0.24,0.48 -0.42,1.02 -0.18,0.51 -0.21,0.72 -0.09,0.54 -0.15,1.41 -0.06,0.87 0,1.59 0.06,0.69 0.24,1.02 0.21,0.3 0.57001,-0.24 0.38999,-0.51 0.80999,-1.23 0.42,-0.72 0.87,-1.68 z" />
      <path
         id="path32"
         style=""
         d="m 196.05719,92.95 q 0.18,0.06 0.24,0.24 0.06,0.18 0,0.36 -0.21,0.45 -0.45,0.96 -0.21,0.42 -0.48,0.96 -0.27,0.54 -0.57,1.11 -0.36,0.69 -0.69,1.23 -0.3,0.51 -0.54,0.9 -0.42,0.6 -0.72,0.87 -0.3,0.27 -0.6,0.27 -0.54,0 -0.78,-0.45 -0.24,-0.48 -0.3,-1.2 -0.03,-0.72 0.06,-1.59 0.12,-0.87 0.24,-1.71 0.15,-0.84 0.27,-1.5 0.15,-0.69 0.18,-1.02 0.12,-1.11 -0.12,-1.11 -0.18,0 -0.54,0.51 -0.36,0.51 -0.81,1.29 -0.42,0.78 -0.9,1.74 -0.45,0.93 -0.84,1.8 -0.36,0.84 -0.63,1.5 -0.24,0.66 -0.27,0.9 -0.03,0.36 -0.33,0.63 -0.27,0.24 -0.63,0.33 -0.33,0.09 -0.6,-0.03 -0.3,-0.12 -0.33,-0.51 -0.09,-1.32 0.03,-2.73 0.09,-1.44 0.3,-2.64 0.18,-1.23 0.36,-2.07 0.18,-0.84 0.24,-1.02 0.12,-0.45 0.54,-0.69 0.45,-0.24 0.9,-0.27 0.48,-0.06 0.84,0.12 0.36,0.15 0.3,0.51 0,0 -0.18,0.51 -0.15,0.48 -0.42,1.29 -0.24,0.81 -0.51,1.83 -0.27,1.02 -0.48,2.1 0.36,-0.9 0.84,-1.98 0.48,-1.08 1.05,-2.01 0.6,-0.96 1.23,-1.59 0.63,-0.63 1.26,-0.63 0.81,0 1.32,0.51 0.51,0.51 0.51,1.38 0,1.35 -0.36,2.91 -0.33,1.56 -0.66,3.03 l 1.08,-2.01 q 0.27,-0.54 0.51,-1.02 0.24,-0.51 0.42,-0.9 0.21,-0.39 0.33,-0.63 0.12,-0.27 0.12,-0.27 0.06,-0.15 0.24,-0.21 0.18,-0.06 0.33,0 z" />
      <path
         id="path34"
         style=""
         d="m 203.18781,92.95 q 0.18,0.06 0.24,0.24 0.09,0.18 0,0.36 -0.24,0.54 -0.69,1.62 -0.42,1.05 -1.11,2.1 -0.66,1.02 -1.62,1.8 -0.93,0.78 -2.16,0.78 -1.32,0 -2.04,-1.47 -0.57,-1.23 -0.57,-2.97 0,-2.01 0.72,-3.42 0.42,-0.84 1.02,-1.29 0.63,-0.45 1.38,-0.45 0.54,0 0.9,0.15 0.39,0.12 0.63,0.33 0.27,0.18 0.39,0.42 0.15,0.24 0.24,0.42 0.33,0.78 0.09,1.74 -0.24,0.93 -0.9,1.56 -0.6,0.57 -1.23,0.87 -0.6,0.3 -1.11,0.45 0.15,1.38 0.48,1.95 0.36,0.54 0.84,0.54 0.57,0 1.23,-0.75 0.66,-0.75 1.23,-1.71 0.57,-0.96 0.96,-1.83 0.42,-0.9 0.51,-1.2 0.06,-0.18 0.24,-0.24 0.18,-0.06 0.33,0 z m -4.11,1.26 q 0.45,-0.45 0.63,-1.11 0.18,-0.69 -0.03,-1.2 -0.18,-0.45 -0.45,-0.48 -0.24,-0.06 -0.51,0.09 -0.24,0.15 -0.48,0.48 -0.21,0.3 -0.33,0.57 -0.51,1.11 -0.57,2.55 v 0.15 q 0.42,-0.15 0.87,-0.39 0.45,-0.24 0.87,-0.66 z" />
      <path
         id="path36"
         style=""
         d="m 212.91766,92.95 q 0.15,0.06 0.21,0.24 0.09,0.18 0.03,0.36 0,0 -0.15,0.27 -0.12,0.27 -0.33,0.69 -0.18,0.42 -0.45,0.99 -0.27,0.54 -0.57,1.11 -0.9,1.74 -1.5,2.46 0,0.03 -0.03,0.03 0,0 0,0.03 -0.39,0.45 -0.63,0.6 -0.24,0.15 -0.45,0.15 -0.36,0 -0.6,-0.3 -0.12,-0.15 -0.24,-0.42 -0.09,-0.27 -0.15,-0.84 -0.03,-0.57 0,-1.47 0.03,-0.9 0.18,-2.31 0,-0.12 0,-0.24 0.03,-0.12 0.03,-0.24 l -0.57,1.2 q -0.78,1.56 -1.38,2.49 -0.57,0.9 -1.02,1.38 -0.45,0.48 -0.78,0.63 -0.33,0.12 -0.57,0.12 -0.45,0 -0.78,-0.36 -0.33,-0.36 -0.54,-0.93 -0.18,-0.57 -0.27,-1.26 -0.09,-0.69 -0.09,-1.38 0,-2.19 0.69,-3.72 0.54,-1.23 1.23,-1.59 0.72,-0.39 1.26,-0.39 0.96,0 1.56,0.63 0.39,0.42 0.54,0.99 0.15,0.57 0.21,1.14 0.48,-1.05 0.66,-1.53 0.21,-0.51 0.21,-0.54 0.15,-0.39 0.54,-0.63 0.42,-0.24 0.81,-0.3 0.42,-0.09 0.69,0.06 0.3,0.12 0.24,0.51 0,0 -0.21,0.87 -0.18,0.87 -0.42,2.1 -0.24,1.2 -0.45,2.52 -0.18,1.32 -0.18,2.25 0.09,-0.15 0.24,-0.42 0.18,-0.3 0.36,-0.63 0.21,-0.36 0.39,-0.69 0.18,-0.33 0.3,-0.57 0.27,-0.51 0.51,-1.02 0.27,-0.51 0.45,-0.93 0.21,-0.48 0.42,-0.87 0.06,-0.18 0.24,-0.24 0.18,-0.06 0.36,0 z m -6.03,1.92 q -0.06,-0.12 -0.06,-0.18 0,-0.06 0,-0.12 0.03,-0.06 0.03,-0.15 0,-0.21 0,-0.6 0.03,-0.39 0,-0.81 -0.03,-0.45 -0.15,-0.84 -0.12,-0.39 -0.36,-0.66 -0.33,-0.3 -0.63,-0.03 -0.3,0.27 -0.54,0.78 -0.24,0.48 -0.42,1.02 -0.18,0.51 -0.21,0.72 -0.09,0.54 -0.15,1.41 -0.06,0.87 0,1.59 0.06,0.69 0.24,1.02 0.21,0.3 0.57,-0.24 0.39,-0.51 0.81,-1.23 0.42,-0.72 0.87,-1.68 z" />
    </g>
  </g>
</svg>
