<?xml version="1.0" encoding="UTF-8" standalone="no"?>
<svg
   xmlns:dc="http://purl.org/dc/elements/1.1/"
   xmlns:cc="http://creativecommons.org/ns#"
   xmlns:rdf="http://www.w3.org/1999/02/22-rdf-syntax-ns#"
   xmlns:svg="http://www.w3.org/2000/svg"
   xmlns="http://www.w3.org/2000/svg"
   id="svg16"
   width="800px"
   version="1.1"
   height="200px">
  <metadata
     id="metadata20">
    <rdf:RDF>
      <cc:Work
         rdf:about="">
        <dc:format>image/svg+xml</dc:format>
        <dc:type
           rdf:resource="http://purl.org/dc/dcmitype/StillImage" />
      </cc:Work>
    </rdf:RDF>
  </metadata>
  <defs
     id="defs4">
    <style
       id="style2"
       type="text/css"><![CDATA[    
     @font-face {font-family:Cotton Candies;
     src: url('/Users/francesco/Repos/write-logos/src/fonts/Cotton_Candies.ttf');}
     @font-face {font-family:Vtks Noba;
     src: url('/Users/francesco/Repos/write-logos/src/fonts/Vtks_Noba.ttf');}
     ]]></style>
  </defs>
  <g
     id="g14"
     style="font-size:60px">
    <g
       style="text-anchor:middle"
       id="text12"
       aria-label="eXtemporanea">
      <path
         id="path22"
         style="font-family:'Cotton Candies'"
         d="m 301.03516,76.298828 h 0.35156 q 1.8164,0 3.16406,1.40625 0.70313,0.9375 0.70313,2.431641 0,3.28125 -2.51954,5.71289 -1.17187,1.083985 -2.43164,1.640625 -1.02539,0.439453 -2.19726,0.703125 -0.73242,0.146485 -1.34766,0.175782 v 0.908203 q 0,2.43164 1.14258,3.076172 0.35156,0.117187 0.58594,0.117187 2.28515,0 7.32422,-6.181641 1.58203,-2.021484 2.49023,-3.457031 0.84961,-0.878906 1.64063,-0.878906 h 0.11718 q 0.46875,0.05859 0.46875,0.351562 v 0.05859 q 0,0.292969 -0.64453,1.289063 -1.34765,2.255859 -3.48633,5.039062 -0.84961,1.083985 -2.54882,2.841797 -3.60352,3.544922 -6.26954,3.544922 h -0.26367 q -2.40234,0 -4.27734,-3.017578 -0.73242,-1.523438 -0.73242,-3.339844 v -0.527344 q 0,-4.277343 2.87109,-8.232422 2.75391,-3.662109 5.85938,-3.662109 z m -3.7793,9.873047 h 0.14648 0.0879 q 2.90039,0 3.83789,-2.666016 0.32227,-1.054687 0.32227,-2.021484 -0.11719,-1.845703 -0.64453,-1.845703 h -0.0293 q -0.99609,0 -3.48633,5.859375 z" />
      <path
         id="path24"
         style="font-family:'Vtks Noba'"
         d="m 349.28711,64.580078 h 1.17187 l 0.49805,0.498047 v 0.08789 q 0,0.703125 -0.67383,0.703125 -1.37695,-0.05859 -1.37695,-0.498047 v -0.38086 z m -1.66992,0.205078 q 0.52734,0.146485 0.52734,0.673828 Q 347.99805,66.25 346.5332,66.25 q -0.46875,-0.117188 -0.46875,-0.673828 v -0.117188 q 0.38086,-0.673828 1.55274,-0.673828 z m 4.6875,0.38086 q 1.28906,0.498046 1.28906,1.201171 -0.20508,0.439454 -0.38086,0.498047 h -0.49805 q -0.99609,-0.585937 -1.08398,-0.791015 v -0.205078 q 0,-0.703125 0.67383,-0.703125 z m -7.38282,0.615234 q 0.52735,0.205078 0.52735,0.644531 0,0.556641 -1.43555,0.996094 h -0.0879 q -0.49805,-0.292969 -0.49805,-0.703125 0,-0.527344 1.49414,-0.9375 z m 9.16993,1.347656 h 0.17578 q 0.96679,0.205078 0.96679,1.435547 v 0.117188 l -0.38085,0.410156 h -0.17579 q -0.70312,0 -0.99609,-1.376953 v -0.205078 z m -11.92383,0.08789 h 0.35156 l 0.43945,0.380859 v 0.498047 q -0.64453,0.761719 -1.31836,0.908203 -0.35156,-0.146484 -0.55664,-0.498047 v -0.410156 q 0.20508,-0.292969 1.08399,-0.878906 z m -2.08008,1.787109 h 0.20508 l 0.38086,0.38086 v 0.498046 l -0.9668,0.84961 h -0.38086 l -0.46875,-0.46875 q 0,-0.84961 1.23047,-1.259766 z m 14.88281,0.878906 h 0.20508 l 0.35156,0.38086 v 0.263672 q 0,1.40625 -0.79101,1.40625 h -0.0586 l -0.49804,-0.498047 q 0,-1.552735 0.79101,-1.552735 z m -17.22656,1.083985 h 0.49805 l 0.38086,0.351562 v 0.410157 q -0.64453,0.966796 -1.17188,0.966796 h -0.29297 l -0.26367,-0.292968 v -0.556641 z m 16.14258,1.640625 h 0.49805 q 0.35156,0.117187 0.35156,0.673828 -0.52735,1.171875 -1.14258,1.171875 -0.55664,0 -0.55664,-0.703125 v -0.05859 q 0.52734,-0.908203 0.84961,-1.083984 z m -17.95899,0.380859 h 0.0586 q 0.52734,0 0.67383,0.410156 v 0.498047 l -0.84961,0.966797 h -0.49805 q -0.38086,-0.175781 -0.38086,-0.673828 v -0.117187 q 0.20508,-0.498047 0.99609,-1.083985 z m 12.68555,0.205078 h 0.0879 q 0.49805,0.263672 0.49805,0.791016 -0.20508,0.556641 -0.79102,0.556641 -0.43945,-0.175782 -0.49804,-0.351563 v -0.292969 q 0,-0.703125 0.70312,-0.703125 z m 3.33984,1.347657 h 0.35157 l 0.41015,0.410156 v 0.46875 q 0,0.292969 -1.28906,0.732422 h -0.26367 l -0.41016,-0.439453 V 75.625 q 0,-0.585938 1.20117,-1.083984 z m -3.54492,0.615234 h 0.20508 q 1.46484,0.205078 1.46484,0.878906 -0.20507,0.585938 -0.79101,0.585938 -1.25977,0 -1.25977,-0.908203 v -0.175782 z m -14.35547,0.08789 h 0.46875 q 0.17579,0.05859 0.41016,0.46875 -0.52734,1.40625 -1.28906,1.40625 -0.41016,-0.205079 -0.46875,-0.410157 v -0.498047 q 0.20508,-0.498046 0.8789,-0.966796 z m -49.27734,0.46875 h 1.05469 q 0.70312,0 0.70312,0.703125 0,0.292968 -0.58593,0.585937 -1.46485,-0.08789 -1.46485,-0.498047 v -0.46875 z m -1.58203,0.322265 q 0.49805,0.146485 0.49805,0.673828 v 0.08789 Q 283.19336,77.5 282.19727,77.5 h -0.17579 q -0.38086,-0.175781 -0.38086,-0.703125 v -0.08789 q 0.46875,-0.673828 1.55274,-0.673828 z m 4.59961,0.38086 h 0.20508 q 0.8789,0.644531 0.96679,0.878906 v 0.498047 l -0.38086,0.380859 h -0.41015 q -1.08399,-0.732422 -1.08399,-1.259766 0.17578,-0.498046 0.70313,-0.498046 z m -7.61719,0.703125 h 0.17578 q 0.70313,0 0.70313,0.673828 0,0.527343 -1.46485,0.966797 -0.49804,-0.146485 -0.49804,-0.673829 v -0.205078 q 0.0879,-0.263672 1.08398,-0.761718 z M 332.26562,77.5 h 0.49805 q 0.41016,0.117187 0.41016,0.673828 l -0.29297,0.46875 v 0.117188 q 3.07617,2.314453 3.60351,2.929687 -5.03906,6.328125 -10.95703,13.300781 l 8.61328,12.802736 -4.89257,3.33984 h -0.29297 q -6.85547,-10.51758 -7.64649,-11.337888 -4.27734,5.273438 -13.88672,15.351558 -16.90429,17.28516 -17.95898,17.28516 -5.12695,3.92578 -9.99023,3.92578 h -0.55664 q -6.41602,0 -10.45899,-6.73828 -1.58203,-2.92969 -1.58203,-6.18164 0,-5.71289 4.89258,-8.90625 0.0293,-0.58594 0.58594,-0.58594 l 0.58593,0.11719 q 1.9043,-0.87891 4.51172,-0.87891 3.19336,0 5.44922,1.34766 l -1.8457,3.51563 q 0.17578,0 0.29297,0.61523 0,0.49805 -0.87891,0.49805 l -0.29297,0.67382 h -0.11719 q -1.69922,-0.58593 -2.7539,-0.58593 -2.72461,0 -3.98438,2.34375 -0.38086,1.05468 -0.38086,1.8457 0,3.95508 4.01367,6.35742 1.40625,0.49805 2.43165,0.49805 5.5664,0 16.90429,-12.71484 0.79102,-0.79102 0.9961,-0.79102 v -0.0879 h -0.11719 l -0.58594,0.20508 q -0.38086,-0.17578 -0.55664,-0.49805 v -0.0879 q 0,-0.82031 1.43555,-0.99609 h 0.11718 q 0.46875,0.17578 0.46875,0.58593 0.43946,-0.14648 0.79102,-1.25976 0.87891,0 5.00977,-4.57031 l 0.64453,-0.70313 h -0.0879 l -0.55664,0.20508 h -0.20508 l -0.41016,-0.41016 v -0.49804 q 0,-0.26368 1.40625,-0.76172 0.55664,0.23437 0.55664,0.67382 l 0.61524,-0.46875 -0.11719,-0.70312 v -0.0879 q 0.76172,-0.99609 1.72851,-0.99609 l 5.97657,-6.650396 q 4.42383,-4.951172 4.42383,-5.273437 v -0.08789 l -7.5586,-11.132812 4.89258,-3.369141 h 0.11719 q 0.35156,0.322266 6.03515,8.90625 l 0.70313,0.878906 9.99023,-11.923828 z m -54.3457,1.083984 q 0.70313,0 0.70313,0.673828 v 0.175782 q -0.73243,0.878906 -1.31836,0.878906 h -0.17578 l -0.38086,-0.351563 v -0.410156 q 0.49804,-0.673828 1.17187,-0.966797 z m 11.3086,0.175782 h 0.23437 q 0.38086,0.146484 0.38086,0.673828 v 0.996093 l -0.38086,0.351563 h -0.11719 q -0.64453,0 -0.64453,-0.966797 l -0.11719,-0.556641 q 0.14649,-0.498046 0.64454,-0.498046 z m -13.35938,1.669921 q 0.38086,0.117188 0.61523,0.498047 v 0.38086 l -0.99609,0.966797 h -0.41016 q -0.32226,-0.175782 -0.49804,-0.585938 0,-0.585937 1.28906,-1.259766 z m 13.00781,1.083985 q 0.58594,0 0.58594,0.673828 v 0.08789 q -0.23437,1.259765 -0.99609,1.259765 h -0.0879 q -0.35157,-0.175781 -0.49805,-0.55664 0.35156,-1.464844 0.99609,-1.464844 z m -15.14648,1.054687 h 0.35156 l 0.43945,0.410157 v 0.498046 q -0.67382,0.84961 -0.9082,0.966797 h -0.41016 L 272.85156,84.0625 v -0.527344 q 0.64453,-0.849609 0.87891,-0.966797 z m 13.56445,1.494141 h 0.41016 l 0.38086,0.380859 v 0.498047 Q 287.5,85.9375 286.91406,85.9375 q -0.61523,0 -0.61523,-0.732422 v -0.05859 q 0.23437,-0.527343 0.99609,-1.083984 z m -4.89258,0.556641 h 0.11719 q 0.46875,0.322265 0.84961,1.054687 v 0.527344 q -0.11719,0.380859 -0.64453,0.380859 -0.55664,0 -0.99609,-1.376953 0,-0.585937 0.67382,-0.585937 z m -10.16601,0.205078 q 0.43945,0.146484 0.61523,0.498047 v 0.351562 q -0.52734,1.083984 -1.08398,1.083984 h -0.17578 l -0.43946,-0.351562 v -0.205078 q 0.43946,-1.376953 1.08399,-1.376953 z m 13.18359,1.113281 h 0.14649 l 0.38086,0.351562 v 0.46875 q -0.35157,0.615235 -1.61133,0.615235 l -0.35157,-0.38086 v -0.498046 q 0,-0.351563 1.43555,-0.556641 z m -14.64844,1.347656 q 0.41016,0.117188 0.58594,0.46875 v 0.205078 q -0.32226,1.376953 -1.08398,1.376953 -0.41016,-0.205078 -0.46875,-0.380859 v -0.322266 q 0.35156,-1.347656 0.96679,-1.347656 z m -1.46484,2.636719 h 0.20508 q 0.67383,0 0.67383,0.644531 -0.46875,1.230469 -0.76172,1.289063 h -0.41016 l -0.38086,-0.38086 v -0.292968 q 0.29297,-1.259766 0.67383,-1.259766 z m -0.67383,2.607422 h 0.0879 q 0.38086,0.205078 0.46875,0.615234 -0.17578,1.464844 -0.96679,1.464844 h -0.0879 l -0.38086,-0.380859 v -0.117188 q 0,-1.582031 0.8789,-1.582031 z m -0.79101,2.753906 q 0.61523,0.175781 0.61523,0.410156 v 0.05859 q -0.11719,1.611328 -0.49805,1.611328 h -0.46875 l -0.43945,-0.439453 q 0,-1.640625 0.79102,-1.640625 z m 20.91797,2.548828 q 0.46875,0.146485 0.46875,0.673828 v 0.117188 q 0,0.292969 -1.43555,0.761719 -0.58594,-0.175782 -0.58594,-0.761719 0.38086,-0.791016 1.55274,-0.791016 z m 1.66992,0.205078 h 0.11718 q 0.79102,0 1.37696,1.171875 -0.14649,0.38086 -0.52735,0.585938 h -0.38086 l -1.05468,-0.996094 v -0.292969 z m -22.88086,0.117188 q 0.49804,0.117187 0.49804,0.644531 v 0.08789 q 0,1.171871 -0.49804,1.289061 h -0.38086 l -0.41016,-0.380858 v -0.908203 q 0,-0.732422 0.79102,-0.732422 z m 18.48633,1.230469 h 0.49804 q 0.38086,0.146484 0.38086,0.703124 -0.35156,0.67383 -0.96679,1.17188 h -0.11719 q -0.52735,0 -0.67383,-0.41016 v -0.49805 q 0.64453,-0.849607 0.87891,-0.966794 z m 5.88867,0.966794 h 0.35156 q 0.49805,0.17578 0.49805,1.28907 0,0.55664 -0.49805,0.79101 h -0.0879 q -0.70313,0 -0.70313,-0.70312 v -0.9668 z m -24.58008,0.58594 q 0.43945,0.17578 0.61523,0.49805 v 0.99609 q 0,0.49805 -0.29296,0.61524 h -0.61524 q -0.35156,0 -0.35156,-1.23047 v -0.0879 q 0.0293,-0.79102 0.64453,-0.79102 z m 17.51953,0.79102 q 0.29297,0 0.55664,0.58593 -0.29297,1.46485 -0.64453,1.46485 h -0.43945 q -0.29297,-0.17578 -0.46875,-0.55664 0,-1.23047 0.99609,-1.49414 z m 6.44531,1.17187 q 0.41016,0.17578 0.61524,0.49805 v 0.11719 q 0,0.76171 -1.37696,1.05468 -0.41015,0 -0.58593,-0.38086 v -0.49804 q 0,-0.20508 1.34765,-0.79102 z m -23.75976,0.87891 q 0.76172,0 0.76172,1.58203 -0.17578,0.41015 -0.35157,0.46875 h -0.46875 q -0.52734,0 -0.52734,-1.43555 v -0.20508 q 0,-0.17578 0.58594,-0.41015 z m 16.93359,0.79101 h 0.11719 q 0.46875,0 0.55664,1.58203 -0.14648,0.46875 -0.67383,0.46875 h -0.14648 q -0.49805,0 -0.52735,-1.55273 v -0.11719 q 0.14649,-0.38086 0.67383,-0.38086 z m -16.52344,2.05078 h 0.35157 q 0.70312,0.46875 0.70312,1.58204 -0.14648,0.46875 -0.70312,0.46875 -0.76172,-0.35157 -0.76172,-1.46485 v -0.17578 z m 17.46094,0.58594 q 0.41016,0 1.11328,1.08399 v 0.38086 l -0.41015,0.41015 h -0.46875 q -0.87891,-0.70312 -0.87891,-1.28906 0,-0.58594 0.64453,-0.58594 z m 1.78711,1.96289 h 0.49805 q 0.99609,0.49805 1.05469,0.76172 v 0.20508 q 0,0.70312 -0.58594,0.70312 -1.37696,-0.43945 -1.37696,-1.20117 0.23438,-0.41015 0.41016,-0.46875 z m 14.85352,0 q 0.61523,0.23438 0.61523,0.67383 0,0.55664 -1.40625,0.87891 h -0.29297 q -0.35156,-0.14649 -0.35156,-0.64453 v -0.14649 q 0,-0.35156 1.43555,-0.76172 z m -32.8711,0.11719 h 0.11719 q 0.38086,0 0.79102,1.34766 v 0.29296 l -0.29297,0.29297 h -0.61524 q -0.26367,0 -0.64453,-1.37695 0,-0.55664 0.64453,-0.55664 z m 30.23438,0.84961 q 0.49804,0.17578 0.49804,0.70312 -0.11718,0.76172 -1.58203,0.76172 -0.46875,-0.11718 -0.46875,-0.67383 v -0.0879 q 0,-0.46875 1.55274,-0.70312 z m -9.375,0.11719 q 1.43554,0.20507 1.43554,0.96679 -0.17578,0.43946 -0.35156,0.49805 h -0.41015 q -1.25977,-0.20508 -1.25977,-0.58594 v -0.41015 q 0.20508,-0.32227 0.58594,-0.46875 z m 6.76758,0.46875 q 0.35156,0.46875 0.35156,0.70312 0,0.67383 -1.75781,0.67383 l -0.29297,-0.38086 v -0.49805 q 0,-0.49804 1.69922,-0.49804 z m -4.04297,0.11718 q 1.46484,0.0586 1.46484,0.38086 v 0.58594 l -0.29297,0.29297 h -1.25976 q -0.49805,-0.29297 -0.49805,-0.67383 0.23437,-0.58594 0.58594,-0.58594 z m -22.5,0.9668 h 0.49804 q 0.32227,0.20508 0.87891,1.05469 v 0.11719 q 0,0.52734 -0.38086,0.67382 h -0.49805 q -0.84961,-0.82031 -0.84961,-1.34765 0.17579,-0.46875 0.35157,-0.49805 z m 24.46289,4.51172 h 0.20508 l 0.38086,0.38086 v 0.41016 q -0.46875,0.64453 -1.46485,0.64453 h -0.0879 l -0.41016,-0.35157 v -0.49804 q 0,-0.41016 1.37696,-0.58594 z m -2.54883,0.79102 0.41016,0.35156 v 0.41015 q 0,0.38086 -1.40625,0.67383 -0.55664,0 -0.64454,-0.79101 0.23438,-0.64453 1.64063,-0.64453 z m -2.72461,0.58593 0.38086,0.49805 q 0,0.84961 -1.66992,0.84961 l -0.38086,-0.38086 v -0.46875 q 0,-0.46875 1.66992,-0.49805 z m -3.51562,0.35157 h 0.35156 q 0.73242,0 0.73242,0.70312 -0.23438,0.61523 -0.79102,0.61523 h -0.9082 l -0.38086,-0.43945 v -0.38086 q 0.20508,-0.49804 0.9961,-0.49804 z m -3.42774,0.14648 h 1.17188 q 0.46875,0.26367 0.46875,0.64453 -0.17579,0.58594 -0.79102,0.58594 h -0.0879 q -1.14258,0 -1.14258,-0.38086 v -0.49805 z" />
      <path
         id="path26"
         style="font-family:'Cotton Candies'"
         d="m 340.52734,60.537109 h 0.32227 q 1.46484,0 2.40234,1.054688 l 0.0879,0.351562 q 0,0.05859 -1.05468,3.222657 h 0.0293 q 1.84571,-0.146485 5.06836,-0.205079 7.29492,0 9.75586,1.78711 0.0586,0.117187 0.0586,0.205078 v 0.117187 q 0,0.498047 -1.08399,1.083985 -0.99609,0.527344 -1.875,0.527344 h -0.14648 q -0.11719,0 -1.23047,-0.410157 -1.25977,-0.263672 -2.63672,-0.263672 h -0.70313 q -3.13476,0 -8.32031,0.644532 -4.59961,16.02539 -4.59961,24.169922 v 0.234375 q 0,1.816406 0.58594,2.34375 0.9668,0.46875 0.9668,1.02539 -0.17578,0.84961 -1.49414,0.84961 h -0.32227 q -2.25586,0 -3.22266,-2.431641 Q 332.5,92.998047 332.5,90.478516 q 0,-6.884766 4.01367,-21.123047 h -0.0293 q -5.27343,0.878906 -8.55468,1.904297 -1.08399,0 -2.51953,-2.080079 -0.17579,-0.410156 -0.17579,-0.673828 v -0.05859 q 0,-0.351563 1.34766,-0.673829 2.37305,-0.878906 10.19531,-2.050781 0.90821,0 0.90821,-0.234375 1.40625,-4.541015 1.55273,-4.541015 0.46875,-0.410157 1.28906,-0.410157 z" />
      <path
         id="path28"
         style="font-family:'Cotton Candies'"
         d="m 348.84766,76.298828 h 0.35156 q 1.8164,0 3.16406,1.40625 0.70313,0.9375 0.70313,2.431641 0,3.28125 -2.51954,5.71289 -1.17187,1.083985 -2.43164,1.640625 -1.02539,0.439453 -2.19726,0.703125 -0.73242,0.146485 -1.34766,0.175782 v 0.908203 q 0,2.43164 1.14258,3.076172 0.35156,0.117187 0.58594,0.117187 2.28515,0 7.32422,-6.181641 1.58203,-2.021484 2.49023,-3.457031 0.84961,-0.878906 1.64063,-0.878906 h 0.11718 q 0.46875,0.05859 0.46875,0.351562 v 0.05859 q 0,0.292969 -0.64453,1.289063 -1.34765,2.255859 -3.48633,5.039062 -0.84961,1.083985 -2.54882,2.841797 -3.60352,3.544922 -6.26954,3.544922 h -0.26367 q -2.40234,0 -4.27734,-3.017578 -0.73242,-1.523438 -0.73242,-3.339844 v -0.527344 q 0,-4.277343 2.87109,-8.232422 2.75391,-3.662109 5.85938,-3.662109 z m -3.7793,9.873047 h 0.14648 0.0879 q 2.90039,0 3.83789,-2.666016 0.32227,-1.054687 0.32227,-2.021484 -0.11719,-1.845703 -0.64453,-1.845703 h -0.0293 q -0.99609,0 -3.48633,5.859375 z" />
      <path
         id="path30"
         style="font-family:'Cotton Candies'"
         d="m 375.83008,75.507812 h 0.0293 q 1.78711,0 2.43165,1.025391 0.14648,0.322266 0.14648,0.732422 v 0.351562 q 0,1.523438 -1.9043,9.023438 -0.96679,4.130859 -0.96679,5.595703 v 0.08789 q 0,0.820312 0.29296,1.02539 0.87891,-0.966797 2.34375,-2.958984 3.19336,-4.335938 5.03907,-7.03125 0.49804,-0.585938 0.9375,-0.585938 h 0.20508 q 0.58593,0.146485 0.58593,0.556641 v 0.175781 q 0,0.38086 -0.73242,1.31836 -2.72461,4.013672 -4.83398,6.738281 -2.92969,3.75 -4.83399,3.75 h -0.23437 q -0.90821,0 -2.16797,-0.908203 -0.55664,-0.585938 -0.55664,-2.285156 0,-2.373047 1.40625,-9.28711 0.14648,-0.761719 0.41015,-2.490234 v -0.0293 h -0.0293 q -1.84571,3.574219 -6.53321,12.158203 -0.67382,0.996094 -1.55273,0.996094 -0.9375,0 -1.40625,-1.142578 -0.0879,-0.292969 -0.0879,-0.615235 v -0.322265 q 0,-1.376953 1.11328,-9.375 0.0293,-0.585938 0.0293,-0.84961 v -0.05859 l -0.0293,-0.08789 q -0.61523,0 -2.54883,4.101562 -1.17187,2.431641 -3.75,8.378907 -0.52734,1.113281 -0.64453,1.113281 -0.46875,0.380859 -1.31836,0.380859 h -0.20508 q -1.25976,0 -2.08007,-0.732422 -0.49805,-0.527343 -0.49805,-1.230468 v -0.234375 q 0,-0.703125 0.9375,-5.273438 0.9668,-4.570312 1.66992,-7.001953 0.43945,-0.615234 1.58203,-0.615234 h 0.0879 q 1.52344,0 2.46094,0.908203 0.17578,0.263672 0.17578,0.410156 v 0.08789 q 0,0.05859 -0.9668,3.867187 v 0 0 q 1.69922,-2.871094 2.78321,-4.482422 2.02148,-2.871093 3.25195,-2.871093 2.57813,0 2.57813,6.240234 v 0.0293 h 0.0293 q 5.15625,-8.583985 7.35352,-8.583985 z" />
      <path
         id="path32"
         style="font-family:'Cotton Candies'"
         d="m 386.8457,75.800781 0.55664,-0.0293 q 2.13868,-0.05859 2.60743,1.347657 l 1.08398,-0.117188 0.79102,-0.0293 q 4.16015,-0.146484 6.00585,3.457031 0.32227,1.083985 0.35157,2.226563 0.11718,3.076172 -2.34375,6.943359 v 0.175782 q 4.07226,-3.486329 6.00586,-7.001954 0.49804,-0.439453 0.8789,-0.46875 l 0.61524,-0.0293 q 0.52734,0 0.9082,0.527343 l 0.0293,0.351563 q -0.9375,2.695312 -7.32422,7.998047 -4.80469,3.574218 -7.91016,3.662109 -2.7832,0.08789 -3.57422,-0.498047 -0.84961,6.533204 -0.73242,10.458984 l 0.0293,0.64453 q -0.41016,0.70313 -1.23047,0.73242 l -0.52734,0.0293 q -2.13868,0.0586 -2.63672,-1.34766 l -0.0586,-1.40625 q -0.26367,-8.291011 3.69141,-22.880855 1.55273,-4.541016 2.08008,-4.541016 0.32226,-0.205078 0.70312,-0.205078 z m -1.08398,17.607422 q 2.28515,-1.054687 3.48633,-2.080078 4.74609,-4.775391 4.59961,-9.521484 -0.0586,-1.728516 -1.17188,-2.548829 -2.60742,0.820313 -3.80859,2.900391 -1.02539,1.435547 -1.75782,4.072266 -1.08398,4.833984 -1.34765,7.177734 z" />
      <path
         id="path34"
         style="font-family:'Cotton Candies'"
         d="m 420.44922,74.248047 q 0.67383,0 1.40625,0.527344 2.72461,0.908203 4.13086,2.490234 1.37695,1.347656 1.93359,2.871094 0.32227,0.966797 0.32227,1.611328 0,2.666015 -2.43164,8.554687 -1.05469,3.134766 -1.05469,4.453125 0.11719,0.996094 0.49805,0.996094 0.11718,0 0.9082,-1.230469 5.12695,-8.203125 6.79687,-10.634765 1.11329,-1.230469 2.40235,-1.230469 h 0.26367 q 0.79102,0.05859 0.79102,0.439453 v 0.175781 q 0,0.263672 -1.58204,2.050782 -2.37304,3.339843 -6.00586,8.847656 -1.17187,1.757812 -2.7832,3.36914 -0.9375,0.615235 -1.75781,0.615235 h -0.43945 q -2.37305,0 -3.19336,-1.78711 -0.17578,-0.761718 -0.17578,-1.318359 0,-2.255859 3.07617,-9.638672 0.82031,-2.255859 0.82031,-3.134765 v -0.175782 q 0,-1.113281 -2.95898,-4.042968 -0.52735,2.197265 -1.61133,4.482421 -0.76172,1.31836 -1.875,2.607422 -2.13867,2.050782 -4.18946,2.8125 -1.58203,0.527344 -1.69921,0.644532 -0.55665,1.318359 -2.37305,3.36914 -2.51953,2.285156 -4.80469,2.285156 h -0.35156 q -2.19727,0 -3.60352,-2.636718 -0.70312,-1.816407 -0.70312,-3.076172 v -0.761719 q 0,-2.460937 1.52344,-4.628906 0,-2.636719 2.40234,-5.097656 1.75781,-1.494141 3.83789,-1.494141 3.60352,0 4.89258,2.695312 0.55664,1.259766 0.55664,2.958985 0,1.669922 -0.70313,4.335937 h 0.0586 q 4.04297,-1.816406 5.97656,-6.416015 0.26367,-0.9375 0.26367,-1.494141 V 78.4375 q 0,-1.435547 -1.43555,-2.255859 -0.14648,-0.175782 -0.14648,-0.410157 v -0.0293 q 0,-0.966796 2.31445,-1.49414 z m -14.91211,7.763672 q 1.37695,0.55664 1.37695,1.142578 v 0.175781 q 0,0.322266 -0.9375,0.9375 -0.52734,0.673828 -0.52734,0.791016 0.35156,1.171875 1.46484,1.96289 0.82031,0.351563 1.61133,0.351563 h 0.23438 q 1.14257,-3.310547 1.14257,-5.478516 v -0.410156 q 0,-1.875 -0.8789,-3.017578 l -0.23438,-0.0293 q -0.82031,0 -2.16797,1.523437 -0.67382,0.878907 -1.08398,2.050782 z m -0.9668,6.035156 v 0.820312 q 0,1.611329 0.70313,2.783204 0.20508,0.234375 0.38086,0.234375 h 0.0879 q 0.9082,0 2.22656,-2.72461 -1.23047,0 -3.39844,-1.113281 z" />
      <path
         id="path36"
         style="font-family:'Cotton Candies'"
         d="m 446.02539,76.005859 h 0.58594 q 2.46094,0.38086 2.46094,1.464844 v 0.05859 q -2.98829,7.763672 -2.98829,12.568359 v 0.38086 q 0,0.908203 0.26368,1.875 h 0.32226 q 1.37695,-1.289063 3.07617,-4.394532 2.66602,-5.097656 2.8711,-5.332031 0.46875,-0.205078 0.73242,-0.205078 0.87891,0.292969 0.87891,0.585937 v 0.263672 q -5.50782,11.689453 -9.08204,11.689453 h -0.32226 q -2.10938,0 -3.07617,-3.193359 -0.20508,-0.908203 -0.20508,-1.669922 v -0.46875 h -0.0586 q -3.01757,4.335938 -4.74609,4.335938 -3.19336,0 -4.39453,-2.460938 -0.41016,-1.02539 -0.41016,-2.021484 v -0.585938 q 0,-3.867187 2.72461,-8.759765 2.43164,-3.808594 5.88867,-3.808594 1.61133,0 3.28125,1.289062 0.0586,0 0.0586,-0.08789 0.73242,-1.523438 2.13867,-1.523438 z m -9.55078,13.740235 v 0.410156 q 0,1.142578 0.58594,1.142578 1.31836,-0.791016 2.34375,-2.753906 1.37695,-2.080078 3.60351,-6.210938 -0.46875,-3.134765 -1.46484,-3.134765 -1.875,0 -4.7461,8.759765 -0.32226,1.230469 -0.32226,1.78711 z" />
      <path
         id="path38"
         style="font-family:'Cotton Candies'"
         d="m 464.89258,76.210937 h 0.35156 q 1.23047,0 2.05078,0.820313 0.20508,0.263672 0.20508,0.761719 0,1.054687 -1.875,8.466797 -0.79102,3.134765 -1.08398,5.800781 0.0293,0.08789 0.0586,0.08789 0.41016,-0.234375 1.23047,-1.376953 4.13086,-6.123047 6.00586,-8.583984 0.55664,-0.498047 1.17187,-0.498047 0.76172,0.146484 0.76172,0.585938 v 0.146484 q 0,0.380859 -1.8457,2.783203 -3.45703,5.15625 -5.33203,7.705078 -1.52344,1.757813 -2.54883,1.757813 h -0.26367 q -1.37696,0 -2.37305,-1.669922 -0.52734,-1.201172 -0.52734,-2.548828 v -0.703125 q 0,-2.72461 1.72851,-8.847657 v -0.05859 h -0.0293 q -4.01367,5.800781 -6.94335,10.986328 -1.14258,2.314453 -1.37696,2.490234 -0.38086,0.175781 -0.76172,0.175781 -1.875,0 -2.54882,-1.376953 -0.0586,-0.380859 -0.0586,-0.498047 v -0.322265 q 0.38086,-3.076172 1.46485,-7.910156 0.9375,-4.482422 1.40625,-5.917969 0.43945,-0.556641 1.52343,-0.556641 1.72852,0 2.60742,1.113281 l 0.0879,0.234375 V 79.375 q -0.9375,3.339844 -1.20118,4.570312 h 0.0586 q 1.49414,-2.490234 3.57422,-5.039062 2.46093,-2.695313 4.48242,-2.695313 z" />
      <path
         id="path40"
         style="font-family:'Cotton Candies'"
         d="m 479.27734,76.298828 h 0.35157 q 1.8164,0 3.16406,1.40625 0.70312,0.9375 0.70312,2.431641 0,3.28125 -2.51953,5.71289 -1.17187,1.083985 -2.43164,1.640625 -1.02539,0.439453 -2.19726,0.703125 -0.73243,0.146485 -1.34766,0.175782 v 0.908203 q 0,2.43164 1.14258,3.076172 0.35156,0.117187 0.58594,0.117187 2.28515,0 7.32421,-6.181641 1.58204,-2.021484 2.49024,-3.457031 0.84961,-0.878906 1.64062,-0.878906 h 0.11719 q 0.46875,0.05859 0.46875,0.351562 v 0.05859 q 0,0.292969 -0.64453,1.289063 -1.34766,2.255859 -3.48633,5.039062 -0.84961,1.083985 -2.54883,2.841797 -3.60351,3.544922 -6.26953,3.544922 h -0.26367 q -2.40234,0 -4.27734,-3.017578 -0.73243,-1.523438 -0.73243,-3.339844 v -0.527344 q 0,-4.277343 2.8711,-8.232422 2.7539,-3.662109 5.85937,-3.662109 z m -3.77929,9.873047 h 0.14648 0.0879 q 2.90039,0 3.83789,-2.666016 0.32227,-1.054687 0.32227,-2.021484 -0.11719,-1.845703 -0.64453,-1.845703 h -0.0293 q -0.99609,0 -3.48633,5.859375 z" />
      <path
         id="path42"
         style="font-family:'Cotton Candies'"
         d="m 498.99414,76.005859 h 0.58594 q 2.46094,0.38086 2.46094,1.464844 v 0.05859 q -2.98829,7.763672 -2.98829,12.568359 v 0.38086 q 0,0.908203 0.26368,1.875 h 0.32226 q 1.37695,-1.289063 3.07617,-4.394532 2.66602,-5.097656 2.8711,-5.332031 0.46875,-0.205078 0.73242,-0.205078 0.87891,0.292969 0.87891,0.585937 v 0.263672 q -5.50782,11.689453 -9.08204,11.689453 h -0.32226 q -2.10938,0 -3.07617,-3.193359 -0.20508,-0.908203 -0.20508,-1.669922 v -0.46875 h -0.0586 q -3.01757,4.335938 -4.74609,4.335938 -3.19336,0 -4.39453,-2.460938 -0.41016,-1.02539 -0.41016,-2.021484 v -0.585938 q 0,-3.867187 2.72461,-8.759765 2.43164,-3.808594 5.88867,-3.808594 1.61133,0 3.28125,1.289062 0.0586,0 0.0586,-0.08789 0.73242,-1.523438 2.13867,-1.523438 z m -9.55078,13.740235 v 0.410156 q 0,1.142578 0.58594,1.142578 1.31836,-0.791016 2.34375,-2.753906 1.37695,-2.080078 3.60351,-6.210938 -0.46875,-3.134765 -1.46484,-3.134765 -1.875,0 -4.7461,8.759765 -0.32226,1.230469 -0.32226,1.78711 z" />
    </g>
  </g>
</svg>
