<?xml version="1.0" encoding="UTF-8" standalone="no"?>
<svg
   xmlns:dc="http://purl.org/dc/elements/1.1/"
   xmlns:cc="http://creativecommons.org/ns#"
   xmlns:rdf="http://www.w3.org/1999/02/22-rdf-syntax-ns#"
   xmlns:svg="http://www.w3.org/2000/svg"
   xmlns="http://www.w3.org/2000/svg"
   id="svg16"
   width="800px"
   version="1.1"
   height="200px">
  <metadata
     id="metadata20">
    <rdf:RDF>
      <cc:Work
         rdf:about="">
        <dc:format>image/svg+xml</dc:format>
        <dc:type
           rdf:resource="http://purl.org/dc/dcmitype/StillImage" />
      </cc:Work>
    </rdf:RDF>
  </metadata>
  <defs
     id="defs4">
    <style
       id="style2"
       type="text/css"><![CDATA[    
     @font-face {font-family:Cretino;
     src: url('/Users/francesco/Repos/write-logos/src/fonts/cretino.ttf');}
     @font-face {font-family:Grudge BRK;
     src: url('/Users/francesco/Repos/write-logos/src/fonts/grudge.ttf');}
     ]]></style>
  </defs>
  <g
     id="g14"
     style="font-size:60px">
    <g
       style="text-anchor:middle"
       id="text12"
       aria-label="eXtemporanea">
      <path
         id="path22"
         style="font-family:Cretino"
         d="m 284.78781,94.66 q -5.22,6.24 -11.52,6.24 -0.66,0 -1.32,-0.12 -0.66,-0.12 -1.32,-0.3 l -1.56,0.6 q -1.08,0.36 -1.5,0.36 -1.44,0 -1.44,-3.12 0,-1.5 0.24,-2.4 l 1.44,-0.48 q 0.18,-4.14 1.26,-7.44 1.14,-3.36 3.36,-6 2.28,-2.64 5.7,-4.62 3.42,-1.98 8.16,-3.48 0.72,0.48 1.38,1.86 l 3.24,-1.02 q 0.06,0.24 0.06,0.54 0,0.24 0,0.54 0,2.46 -1.62,5.34 l -1.68,0.24 q -1.26,2.52 -6.54,5.1 l -8.1,3.3 q -0.36,1.74 -0.36,3.66 0,2.7 0.72,4.32 0.78,1.62 2.1,1.62 1.86,0 4.5,-3.24 z m -2.76,-18.78 q -6.42,4.5 -8.7,12.72 2.22,-0.72 4.14,-1.74 1.98,-1.02 3.42,-2.16 1.44,-1.2 2.28,-2.46 0.84,-1.26 0.84,-2.52 0,-1.92 -1.98,-3.84 z" />
      <path
         id="path24"
         style="font-family:'Grudge BRK'"
         d="m 285.67281,106.48 q 0,-0.42 0,-0.84 0.06,-0.36 0.24,-0.72 l 2.46,-4.92 h -5.22 V 60.94 h 5.1 v -0.12 q -0.12,-0.24 -0.42,-0.84 -0.3,-0.66 -0.66,-1.38 -0.36,-0.72 -0.66,-1.32 -0.3,-0.66 -0.42,-0.9 -0.42,-0.78 -0.42,-1.86 0,-1.68 1.14,-2.82 1.14,-1.14 2.82,-1.14 1.02,0 1.98,0.48 0.96,0.48 1.44,1.44 l 4.2,8.4 h 10.68 l 4.26,-8.4 q 0.48,-0.96 1.44,-1.44 0.96,-0.48 1.98,-0.48 1.68,0 2.76,1.2 1.14,1.14 1.14,2.82 0,0.42 -0.06,0.84 -0.06,0.42 -0.3,0.78 l -2.28,4.74 h 5.28 V 100 h -5.28 l 2.4,4.92 q 0.18,0.36 0.18,0.72 0.06,0.42 0.06,0.84 0,1.62 -1.14,2.76 -1.14,1.14 -2.76,1.14 -1.08,0 -2.1,-0.54 -0.96,-0.54 -1.44,-1.56 l -4.2,-8.28 h -10.56 l -4.2,8.28 q -0.48,1.02 -1.44,1.56 -0.96,0.54 -2.04,0.54 -1.62,0 -2.82,-1.14 -1.14,-1.14 -1.14,-2.76 z m 2.16,-0.06 q 0,0.72 0.54,1.26 0.54,0.54 1.26,0.54 0.42,0 0.84,-0.24 0.42,-0.24 0.66,-0.66 l 10.56,-20.94 q 0.12,-0.3 0.36,-0.36 0.24,-0.12 0.54,-0.12 0.3,0 0.54,0.12 0.24,0.06 0.36,0.36 l 10.56,20.94 q 0.48,0.9 1.56,0.9 0.66,0 1.2,-0.54 0.54,-0.54 0.54,-1.26 0,-0.42 -0.06,-0.54 l -12.42,-24.78 q -0.12,-0.18 -0.12,-0.3 0.06,-0.18 0.06,-0.36 v -0.3 l 12.48,-25.02 q 0.06,-0.12 0.06,-0.6 0,-0.72 -0.54,-1.2 -0.48,-0.54 -1.26,-0.54 -0.36,0 -0.78,0.18 -0.42,0.12 -0.6,0.48 l -10.56,21.06 q -0.36,0.6 -1.02,0.6 -0.66,0 -1.02,-0.6 l -10.56,-21.06 q -0.18,-0.36 -0.6,-0.48 -0.42,-0.18 -0.78,-0.18 -0.78,0 -1.32,0.54 -0.48,0.48 -0.48,1.2 0,0.48 0.06,0.6 l 12.48,25.02 v 0.78 l -12.48,24.96 q -0.06,0.12 -0.06,0.54 z" />
      <path
         id="path26"
         style="font-family:Cretino"
         d="m 326.45875,102.34 1.44,-2.4 -2.04,0.66 q 1.38,-2.34 2.64,-5.22 1.32,-2.88 2.64,-6.3 l 4.5,-11.76 q -0.9,-0.06 -1.62,-0.06 -0.66,0 -1.14,0 -2.52,0 -4.32,0.18 1.86,-0.6 2.88,-0.96 1.08,-0.36 1.68,-0.54 0.66,-0.18 1.02,-0.24 0.42,-0.06 0.9,-0.06 h 1.2 l 1.02,-2.28 -2.88,0.96 q 0.42,-0.72 0.96,-1.98 0.6,-1.32 1.14,-2.64 0.6,-1.38 1.08,-2.46 0.48,-1.14 0.66,-1.5 l 4.74,-1.56 -1.08,2.34 2.34,-0.72 q -0.24,1.08 -0.9,2.7 -0.6,1.62 -1.26,3.24 -0.66,1.56 -1.2,2.7 -0.54,1.14 -0.54,1.2 0.6,0.06 1.08,0.06 0.54,0 0.96,0 1.5,0 2.94,-0.06 1.5,-0.12 3,-0.36 -2.82,0.9 -4.92,1.44 -2.1,0.48 -3.66,0.6 -1.02,2.58 -2.52,6.42 -1.44,3.84 -3.54,8.94 l 2.64,-0.78 q -0.78,1.74 -2.22,4.2 -1.44,2.4 -2.94,4.8 z" />
      <path
         id="path28"
         style="font-family:Cretino"
         d="m 357.67844,94.66 q -5.22,6.24 -11.52,6.24 -0.66,0 -1.32,-0.12 -0.66,-0.12 -1.32,-0.3 l -1.56,0.6 q -1.08,0.36 -1.5,0.36 -1.44,0 -1.44,-3.12 0,-1.5 0.24,-2.4 l 1.44,-0.48 q 0.18,-4.14 1.26,-7.44 1.14,-3.36 3.36,-6 2.28,-2.64 5.7,-4.62 3.42,-1.98 8.16,-3.48 0.72,0.48 1.38,1.86 l 3.24,-1.02 q 0.06,0.24 0.06,0.54 0,0.24 0,0.54 0,2.46 -1.62,5.34 l -1.68,0.24 q -1.26,2.52 -6.54,5.1 l -8.1,3.3 q -0.36,1.74 -0.36,3.66 0,2.7 0.72,4.32 0.78,1.62 2.1,1.62 1.86,0 4.5,-3.24 z m -2.76,-18.78 q -6.42,4.5 -8.7,12.72 2.22,-0.72 4.14,-1.74 1.98,-1.02 3.42,-2.16 1.44,-1.2 2.28,-2.46 0.84,-1.26 0.84,-2.52 0,-1.92 -1.98,-3.84 z" />
      <path
         id="path30"
         style="font-family:Cretino"
         d="m 391.50344,91.78 q 0,6.96 -12.78,12.6 3.18,-2.16 5.7,-5.64 -1.14,0.84 -1.68,1.26 -0.48,0.36 -1.14,0.6 -0.66,0.3 -1.86,0.48 -1.14,0.18 -3.48,0.54 7.32,-4.14 9.06,-8.04 0.42,-0.9 0.96,-7.02 0.36,-4.38 4.02,-8.34 -1.5,0.9 -3.78,2.16 -2.28,1.26 -5.34,2.94 -0.18,1.44 -0.48,3.6 -0.3,2.16 -0.78,5.04 -0.36,1.62 -1.08,2.88 -0.66,1.2 -2.04,2.28 -1.38,1.02 -3.6,2.04 -2.16,0.96 -5.58,2.04 6.12,-3.48 7.74,-7.62 0.3,-1.02 0.84,-7.44 0.36,-4.5 3.48,-7.92 -1.32,0.84 -3.66,2.16 -2.34,1.26 -5.76,3.12 l -3.06,9.18 2.1,-0.6 q 0,1.8 -1.38,3.96 -1.32,2.1 -2.88,4.56 l -4.8,1.56 2.22,-3.24 -1.68,0.54 q 0.66,-2.52 1.8,-6.12 1.2,-3.6 2.94,-8.46 l -2.16,0.72 q 0.24,-0.72 0.9,-2.1 0.66,-1.38 1.38,-2.88 0.72,-1.5 1.32,-2.88 0.66,-1.38 0.96,-2.04 l 4.62,-1.56 -1.26,2.94 2.1,-0.66 -2.52,5.58 q 5.28,-2.94 9.54,-4.86 4.26,-1.98 7.62,-3.06 -5.46,3.18 -6.66,8.1 3.78,-2.04 6.24,-3.3 2.46,-1.32 4.26,-2.16 1.8,-0.9 3.3,-1.44 1.5,-0.54 3.42,-1.2 -2.1,1.26 -3.54,2.64 -1.44,1.32 -2.1,2.76 -0.42,0.84 -0.72,2.46 -0.3,1.62 -0.6,3.54 -0.3,1.86 -0.66,3.72 -0.36,1.8 -0.9,3 z" />
      <path
         id="path32"
         style="font-family:Cretino"
         d="m 387.51062,111.4 q 4.56,-3.06 6.18,-11.22 2.52,-12.72 3,-14.1 2.94,-7.74 11.28,-10.62 l 4.56,-1.56 0.96001,0.78 3.06,-0.96 q 1.32,1.5 1.32,4.08 0,0.3 -0.06,1.2 -0.06,0.9 -0.18001,2.34 l -2.1,0.72 q -0.59999,3.72 -1.91999,6.96 -1.32001,3.24 -3.18,5.64 -1.80001,2.34 -4.08001,3.72 -2.28,1.32 -4.79999,1.32 -1.5,0 -3.3,-0.54 -0.30001,3 -1.14,5.1 l 2.33999,-0.78 q -0.89999,2.04 -1.92,3.48 -0.96,1.44 -2.15999,2.46 -1.20001,1.08 -2.82,1.8 -1.56,0.78 -3.72001,1.38 0.72001,-0.66 1.32,-1.26 0.60001,-0.54 1.2,-1.2 z m 13.86001,-12.84 q 1.68,0 3.41999,-1.62 1.8,-1.68 3.18,-4.32 1.44,-2.7 2.34001,-6 0.89999,-3.36 0.89999,-6.78 0,-3.3 -2.04,-3.3 -1.79999,0 -3.6,1.86 -1.74,1.8 -3.12,4.62 -1.38,2.82 -2.22,6.18 -0.84,3.36 -0.84,6.48 0,2.88 1.98001,2.88 z" />
      <path
         id="path34"
         style="font-family:Cretino"
         d="m 418.69844,101.68 -1.5,-1.2 -1.5,0.54 q -2.76,-0.9 -2.76,-4.14 0,-0.84 0.24,-1.5 l 2.4,-0.72 q 0.54,-4.32 1.74,-7.56 1.2,-3.24 3,-5.58 1.8,-2.34 4.2,-3.9 2.4,-1.62 5.34,-2.64 l 3.24,-1.08 q 0.06,0.06 0.42,0.36 0.36,0.3 1.2,0.9 l 3.66,-1.14 q 0.12,0.48 0.18,1.08 0.06,0.6 0.06,1.14 0,1.32 -0.3,2.7 -0.24,1.38 -0.72,2.76 l -1.56,0.48 q -2.28,14.4 -12.72,18 z m 3.3,-2.76 q 1.8,0 3.54,-1.74 1.8,-1.74 3.18,-4.5 1.38,-2.76 2.22,-6.12 0.84,-3.42 0.84,-6.72 0,-3.3 -2.04,-3.3 -1.86,0 -3.6,1.86 -1.74,1.8 -3.12,4.62 -1.32,2.82 -2.16,6.18 -0.84,3.36 -0.84,6.48 0,3.24 1.98,3.24 z" />
      <path
         id="path36"
         style="font-family:Cretino"
         d="m 435.67187,102.88 1.38,-2.7 -2.76,0.9 q 2.52,-5.4 4.2,-9.48 1.74,-4.14 2.76,-7.2 l -2.28,0.6 q 1.86001,-5.16 1.86001,-7.44 0,-0.3 -0.06,-0.66 0,-0.36 -0.06,-0.66 l 4.68,-1.5 q 0.06,0.3 0.06,0.66 0.06,0.3 0.06,0.6 0,0.3 -0.06,0.54 0,0.24 -0.06,0.54 l 2.33999,-0.78 -0.66,2.88 q 0.96001,-0.78 2.16,-1.62 1.26,-0.84 2.4,-1.5 1.20001,-0.72 2.22,-1.14 1.08,-0.42 1.74001,-0.42 0.83999,0 1.31999,0.54 l 1.68001,-0.54 q 0.41999,0.6 0.41999,1.62 0,1.62 -1.5,5.58 l -4.61999,1.44 0.77999,-2.28 -1.62,0.54 q 0,-0.36 0.06,-0.9 0.06,-0.54 0.12,-1.14 0.06,-0.6 0.12,-1.08 0.06,-0.54 0.06,-0.9 0,-0.78 -0.24,-1.02 -2.1,1.02 -3.72,3 -1.55999,1.98 -2.88,4.62 -1.32,2.64 -2.52,5.7 -1.14,3 -2.27999,6.06 l 2.33999,-0.72 q -0.89999,2.88 -2.7,6.36 z" />
      <path
         id="path38"
         style="font-family:Cretino"
         d="m 466.45656,102.28 q -0.78,-0.72 -0.78,-1.98 0,-0.66 0.3,-1.98 -0.9,0.54 -2.16,1.14 -1.26,0.54 -2.58,0.96 -1.26,0.48 -2.46,0.78 -1.14,0.3 -1.86,0.3 -1.08,0 -1.5,-0.42 l -2.22,0.66 q -1.14,-0.72 -1.14,-2.64 0,-1.92 1.2,-4.5 l 2.7,-0.9 q 1.38,-4.26 2.16,-6.78 0.84,-2.58 1.2,-3.42 0.78,-1.86 1.8,-3.18 1.08,-1.32 2.7,-2.4 1.62,-1.08 4.08,-1.98 2.46,-0.9 6.06,-1.92 l 1.74,-0.6 0.6,1.5 3.36,-1.02 q -0.18,2.88 -0.6,5.04 -0.42,2.1 -1.02,3.48 l -2.46,0.72 -3.06,7.8 q -1.98,5.16 -1.98,7.86 0,1.44 0.6,1.86 z m 1.38,-8.88 q 2.28,-5.58 3.36,-9.36 1.08,-3.78 1.14,-5.88 0,-2.28 -1.5,-2.28 -0.48,0 -1.14,0.12 -0.66,0.12 -1.56,0.9 -0.9,0.72 -2.1,2.4 -1.14,1.62 -2.52,4.68 -4.2,9.18 -4.2,13.2 0,2.4 1.2,2.4 0.48,0 1.38,-0.36 0.96,-0.36 1.86,-0.9 0.96,-0.54 1.74,-1.08 0.84,-0.6 1.14,-1.02 z" />
      <path
         id="path40"
         style="font-family:Cretino"
         d="m 496.84469,91.78 q 0,6.9 -12.78,12.6 3.18,-2.1 5.76,-5.64 -1.26,0.9 -2.04,1.38 -0.72,0.54 -1.44,0.84 -0.72,0.36 -1.62,0.54 -0.9,0.24 -2.34,0.6 7.14,-3.6 8.88,-7.92 0.3,-0.66 0.48,-2.58 0.18,-1.92 0.36,-5.1 0.18,-4.68 3.6,-8.28 l -9.42,5.28 q -0.3,0.66 -1.08,2.94 -0.78,2.28 -2.04,6.24 l 1.92,-0.6 q -0.9,5.04 -3.84,8.52 l -4.74,1.56 2.04,-3.3 -1.86,0.6 q 0.66,-2.52 1.86,-6.12 1.2,-3.6 2.94,-8.46 l -2.22,0.72 q 0.24,-0.72 0.9,-2.1 0.66,-1.38 1.32,-2.88 0.72,-1.56 1.32,-2.88 0.66,-1.38 0.96,-2.04 l 4.74,-1.56 q -0.3,0.66 -0.6,1.44 -0.3,0.72 -0.72,1.5 l 2.1,-0.66 -2.58,5.58 q 5.34,-2.94 9.6,-4.86 4.32,-1.98 7.68,-3.06 -4.26,2.52 -5.7,5.4 -0.36,0.84 -0.66,2.46 -0.3,1.62 -0.6,3.54 -0.3,1.86 -0.72,3.72 -0.36,1.8 -0.9,3 z" />
      <path
         id="path42"
         style="font-family:Cretino"
         d="m 516.81906,94.66 q -5.22,6.24 -11.52,6.24 -0.66,0 -1.32,-0.12 -0.66,-0.12 -1.32,-0.3 l -1.56,0.6 q -1.08,0.36 -1.5,0.36 -1.44,0 -1.44,-3.12 0,-1.5 0.24,-2.4 l 1.44,-0.48 q 0.18,-4.14 1.26,-7.44 1.14,-3.36 3.36,-6 2.28,-2.64 5.7,-4.62 3.42,-1.98 8.16,-3.48 0.72,0.48 1.38,1.86 l 3.24,-1.02 q 0.06,0.24 0.06,0.54 0,0.24 0,0.54 0,2.46 -1.62,5.34 l -1.68,0.24 q -1.26,2.52 -6.54,5.1 l -8.1,3.3 q -0.36,1.74 -0.36,3.66 0,2.7 0.72,4.32 0.78,1.62 2.1,1.62 1.86,0 4.5,-3.24 z m -2.76,-18.78 q -6.42,4.5 -8.7,12.72 2.22,-0.72 4.14,-1.74 1.98,-1.02 3.42,-2.16 1.44,-1.2 2.28,-2.46 0.84,-1.26 0.84,-2.52 0,-1.92 -1.98,-3.84 z" />
      <path
         id="path44"
         style="font-family:Cretino"
         d="m 531.14406,102.28 q -0.78,-0.72 -0.78,-1.98 0,-0.66 0.3,-1.98 -0.9,0.54 -2.16,1.14 -1.26,0.54 -2.58,0.96 -1.26,0.48 -2.46,0.78 -1.14,0.3 -1.86,0.3 -1.08,0 -1.5,-0.42 l -2.22,0.66 q -1.14,-0.72 -1.14,-2.64 0,-1.92 1.2,-4.5 l 2.7,-0.9 q 1.38,-4.26 2.16,-6.78 0.84,-2.58 1.2,-3.42 0.78,-1.86 1.8,-3.18 1.08,-1.32 2.7,-2.4 1.62,-1.08 4.08,-1.98 2.46,-0.9 6.06,-1.92 l 1.74,-0.6 0.6,1.5 3.36,-1.02 q -0.18,2.88 -0.6,5.04 -0.42,2.1 -1.02,3.48 l -2.46,0.72 -3.06,7.8 q -1.98,5.16 -1.98,7.86 0,1.44 0.6,1.86 z m 1.38,-8.88 q 2.28,-5.58 3.36,-9.36 1.08,-3.78 1.14,-5.88 0,-2.28 -1.5,-2.28 -0.48,0 -1.14,0.12 -0.66,0.12 -1.56,0.9 -0.9,0.72 -2.1,2.4 -1.14,1.62 -2.52,4.68 -4.2,9.18 -4.2,13.2 0,2.4 1.2,2.4 0.48,0 1.38,-0.36 0.96,-0.36 1.86,-0.9 0.96,-0.54 1.74,-1.08 0.84,-0.6 1.14,-1.02 z" />
    </g>
  </g>
</svg>
