<?xml version="1.0" encoding="UTF-8" standalone="no"?>
<svg
   xmlns:dc="http://purl.org/dc/elements/1.1/"
   xmlns:cc="http://creativecommons.org/ns#"
   xmlns:rdf="http://www.w3.org/1999/02/22-rdf-syntax-ns#"
   xmlns:svg="http://www.w3.org/2000/svg"
   xmlns="http://www.w3.org/2000/svg"
   id="svg16"
   width="800px"
   version="1.1"
   height="200px">
  <metadata
     id="metadata20">
    <rdf:RDF>
      <cc:Work
         rdf:about="">
        <dc:format>image/svg+xml</dc:format>
        <dc:type
           rdf:resource="http://purl.org/dc/dcmitype/StillImage" />
      </cc:Work>
    </rdf:RDF>
  </metadata>
  <defs
     id="defs4">
    <style
       id="style2"
       type="text/css"><![CDATA[    
     @font-face {font-family:Dark Hornet Gradient;
     src: url('/Users/francesco/Repos/write-logos/src/fonts/darkhornetgrad.ttf');}
     @font-face {font-family:Break;
     src: url('/Users/francesco/Repos/write-logos/src/fonts/Break.ttf');}
     ]]></style>
  </defs>
  <g
     id="g14"
     style="font-size:60px">
    <g
       style="text-anchor:middle"
       id="text12"
       aria-label="eXtemporanea">
      <path
         id="path22"
         style="font-family:'Dark Hornet Gradient'"
         d="m 176.20703,97.48 v -2.34 h 33.18 v 2.34 z m 0,-3.18 v -2.22 h 33.18 v 2.22 z m 0,-3.24 v -2.04 h 33.18 v 2.04 z m 0,-3.18 V 85.9 h 33.18 v 1.98 z m 33.18,12.12 h -33.18 v -1.8 h 33.18 z m -33.18,-25.02 v -1.32 h 33.18 v 1.32 z m 0,-3.18 v -1.2 h 33.18 v 1.2 z m 0,-3.24 v -1.08 h 33.18 v 1.08 z m 0,-3.18 v -0.96 h 33.18 v 0.96 z m 0,19.2 1.68,-1.74 h 16.56 l -1.86,1.8 h -16.38 z m 20.22,-3.6 -0.48,0.42 h -16.62 l 0.6,-0.6 -1.02,-1.02 h 16.68 l 0.84,0.78 z m -20.22,-4.02 v -0.24 h 16.2 l 1.56,1.5 h -16.56 z m 33.18,-15.42 v 0.6 h -33.18 v -0.6 z" />
      <path
         id="path24"
         style="font-family:Break"
         d="m 219.43797,75.04 -9.84,19.26 2.52,5.04 9.9,-19.44 z m 11.16,4.86 q 1.86,3.78 3.72,7.44 1.92,3.6 3.78,7.38 l 3,6 h -8.52 l -6.24,-12.18 -2.4,4.62 -1.5,2.94 q -0.6,1.08 -1.26,2.34 -0.6,1.26 -1.08,2.28 h -7.26 q 1.08,2.1 2.16,4.2 1.08,2.1 2.1,4.2 l 3,6 h -8.52 l -6.24,-12.18 -2.4,4.62 -1.5,2.94 q -0.6,1.08 -1.2,2.34 -0.66,1.26 -1.14,2.28 h -8.7 l 10.62,-20.82 -5.04,-9.54 -3.06,-6.06 v 0.06 l -3,-5.76 h 8.46 l 6.96,12.78 q 1.62,-3.18 3.36,-6.42 1.74,-3.24 3.3,-6.36 h 6.36 l -1.38,-2.64 -3.06,-6.06 v 0.06 l -3,-5.76 h 8.46 l 6.96,12.78 q 1.62,-3.18 3.36,-6.42 1.74,-3.24 3.3,-6.36 h 8.46 z m 9.66,-20.58 h -6.84 l -7.08,13.68 -7.44,-13.68 h -6.78 q 1.38,2.7 2.76,5.34 1.38,2.64 2.76,5.34 v -0.06 l 5.22,9.96 -10.26,20.1 h 7.02 q 0.84,-1.74 1.8,-3.54 0.96,-1.8 1.86,-3.6 v 0.06 l 3.06,-6 6.66,13.08 h 6.9 q -2.52,-4.98 -5.04,-10.02 -2.52,-5.1 -5.04,-10.08 z" />
      <path
         id="path26"
         style="font-family:'Dark Hornet Gradient'"
         d="m 243.35547,74.98 v -1.32 h 35.34 v 1.32 z m 0,-3.18 v -1.2 h 35.34 v 1.2 z m 0,-3.24 v -1.08 h 35.34 v 1.08 z m 10.32,28.92 v -2.34 h 14.7 v 2.34 z m -10.32,-32.1 v -0.96 h 35.34 v 0.96 z m 10.32,28.92 v -2.22 h 14.7 v 2.22 z m 0,-3.24 v -2.04 h 14.7 v 2.04 z m 0,-3.18 V 85.9 h 14.7 v 1.98 z m 14.7,12.12 h -14.7 v -1.8 h 14.7 z m -14.7,-15.36 v -1.8 h 14.7 v 1.8 z m 0,-3.24 v -1.62 h 14.7 v 1.62 z m 0,-3.18 v -1.5 h 14.7 v 1.5 z m -10.32,-16.08 v -0.6 h 35.34 v 0.6 z" />
      <path
         id="path28"
         style="font-family:'Dark Hornet Gradient'"
         d="m 281.67578,97.48 v -2.34 h 33.18 v 2.34 z m 0,-3.18 v -2.22 h 33.18 v 2.22 z m 0,-3.24 v -2.04 h 33.18 v 2.04 z m 0,-3.18 V 85.9 h 33.18 v 1.98 z m 33.18,12.12 h -33.18 v -1.8 h 33.18 z m -33.18,-25.02 v -1.32 h 33.18 v 1.32 z m 0,-3.18 v -1.2 h 33.18 v 1.2 z m 0,-3.24 v -1.08 h 33.18 v 1.08 z m 0,-3.18 v -0.96 h 33.18 v 0.96 z m 0,19.2 1.68,-1.74 h 16.56 l -1.86,1.8 h -16.38 z m 20.22,-3.6 -0.48,0.42 h -16.62 l 0.6,-0.6 -1.02,-1.02 h 16.68 l 0.84,0.78 z m -20.22,-4.02 v -0.24 h 16.2 l 1.56,1.5 h -16.56 z m 33.18,-15.42 v 0.6 h -33.18 v -0.6 z" />
      <path
         id="path30"
         style="font-family:'Dark Hornet Gradient'"
         d="m 342.96672,87.88 v -0.24 l -0.24,0.24 h -9.9 l -0.24,-0.24 v 0.24 h -14.7 V 85.9 h 39.78 v 1.98 z m -25.08,-3.24 v -1.8 h 39.78 v 1.8 z m 0,-3.24 v -1.62 h 39.78 v 1.62 z m 0,-3.18 v -1.5 h 39.78 v 1.5 z m 0,-3.24 v -1.32 h 39.78 v 1.32 z m 19.74,-4.38 0.42,0.42 0.42,-0.42 h 19.2 v 1.2 h -39.78 v -1.2 z m -19.74,26.88 v -2.34 h 14.7 v 2.34 z m 25.08,0 v -2.34 h 14.7 v 2.34 z m -25.08,-3.18 v -2.22 h 14.7 v 2.22 z m 25.08,0 v -2.22 h 14.7 v 2.22 z m -25.08,-3.24 v -2.04 h 14.7 v 2.04 z m 25.08,0 v -2.04 h 14.7 v 2.04 z m 14.7,8.94 h -14.7 v -1.8 h 14.7 z m -39.78,0 v -1.8 h 14.7 v 1.8 z m 0,-31.44 v -1.08 h 16.5 l 1.14,1.08 z m 22.56,0 1.02,-1.08 h 16.2 v 1.08 z m -22.56,-3.18 v -0.96 h 13.38 l 1.02,0.96 z m 25.62,0 0.96,-0.96 h 13.2 v 0.96 z m -7.62,25.68 -1.98,-2.04 h 7.68 l -1.98,2.04 z m -18,-28.92 v -0.6 h 10.44 l 0.6,0.6 z m 28.8,0 0.6,-0.6 h 10.38 v 0.6 z m -8.94,30.78 -0.84,-0.84 h 1.68 z" />
      <path
         id="path32"
         style="font-family:'Dark Hornet Gradient'"
         d="m 360.66016,94.3 v -2.22 h 35.34 v 2.22 z m 0,-3.24 v -2.04 h 35.34 v 2.04 z m 0,-3.18 V 85.9 h 35.34 v 1.98 z m 0,-3.24 v -1.8 h 35.34 v 1.8 z m 14.7,-3.96 h 5.94 v -0.9 h 14.7 v 1.62 h -35.34 v -1.62 h 14.7 z m -14.7,-5.7 v -1.32 h 35.34 v 1.32 z m 0,-3.18 v -1.2 h 35.34 v 1.2 z m 0,-3.24 v -1.08 h 35.34 v 1.08 z m 0,28.92 v -2.34 h 14.7 v 2.34 z m 0,-32.1 v -0.96 h 35.34 v 0.96 z m 14.7,34.62 h -14.7 v -1.8 h 14.7 z m -14.7,-21.78 v -1.5 h 14.7 v 1.5 z m 20.64,0 v -1.5 h 14.7 v 1.5 z m -20.64,-16.08 v -0.6 h 35.34 v 0.6 z" />
      <path
         id="path34"
         style="font-family:'Dark Hornet Gradient'"
         d="m 398.98047,97.48 v -2.34 h 35.34 v 2.34 z m 0,-3.18 v -2.22 h 35.34 v 2.22 z m 0,-3.24 v -2.04 h 35.34 v 2.04 z m 0,-3.18 V 85.9 h 35.34 v 1.98 z m 35.34,12.12 h -35.34 v -1.8 h 35.34 z m -35.34,-25.02 v -1.32 h 35.34 v 1.32 z m 0,-3.18 v -1.2 h 35.34 v 1.2 z m 0,-3.24 v -1.08 h 35.34 v 1.08 z m 0,-3.18 v -0.96 h 35.34 v 0.96 z m 0,19.26 v -1.8 h 14.7 v 1.8 z m 20.64,0 v -1.8 h 14.7 v 1.8 z m -20.64,-3.24 v -1.62 h 14.7 v 1.62 z m 20.64,0 v -1.62 h 14.7 v 1.62 z m -20.64,-3.18 v -1.5 h 14.7 v 1.5 z m 20.64,0 v -1.5 h 14.7 v 1.5 z m -20.64,-16.08 v -0.6 h 35.34 v 0.6 z" />
      <path
         id="path36"
         style="font-family:'Dark Hornet Gradient'"
         d="m 437.30078,74.98 v -1.32 h 35.34 v 1.32 z m 0,-3.18 v -1.2 h 35.34 v 1.2 z m 0,-3.24 v -1.08 h 35.34 v 1.08 z m 35.34,19.14 v 0.18 h -18.12 l -1.26,-1.26 V 85.9 h 17.58 z m -35.34,9.78 v -2.34 h 14.7 v 2.34 z m 20.64,0 v -2.34 h 14.7 v 2.34 z m -20.64,-32.1 v -0.96 h 35.34 v 0.96 z m 0,28.92 v -2.22 h 14.7 v 2.22 z m 20.64,0 v -2.22 h 14.7 v 2.22 z m -0.24,-3.24 -2.04,-2.04 h 16.98 v 2.04 z m 14.94,-10.92 -1.26,1.26 h -18.12 v -1.02 l 0.6,-0.6 h 18.78 z m -35.34,10.92 v -2.04 h 14.7 v 2.04 z m 0,-3.18 V 85.9 h 14.7 v 1.98 z m 15.96,-3.24 v -1.8 h 16.68 l -1.08,1.08 0.72,0.72 z m -1.26,15.36 h -14.7 v -1.8 h 14.7 z m -14.7,-15.36 v -1.8 h 14.7 v 1.8 z m 35.34,15.36 h -14.7 v -1.8 h 14.7 z m -17.16,-21.78 1.5,-1.5 h 15.66 v 1.5 z m -18.18,3.18 v -1.62 h 14.7 v 1.62 z m 0,-3.18 v -1.5 h 14.7 v 1.5 z m 35.34,-16.68 v 0.6 h -35.34 v -0.6 z" />
      <path
         id="path38"
         style="font-family:'Dark Hornet Gradient'"
         d="m 475.62109,94.3 v -2.22 h 35.34 v 2.22 z m 0,-3.24 v -2.04 h 35.34 v 2.04 z m 0,-3.18 V 85.9 h 35.34 v 1.98 z m 0,-3.24 v -1.8 h 35.34 v 1.8 z m 14.7,-3.96 h 5.94 v -0.9 h 14.7 v 1.62 h -35.34 v -1.62 h 14.7 z m -14.7,-5.7 v -1.32 h 35.34 v 1.32 z m 0,-3.18 v -1.2 h 35.34 v 1.2 z m 0,-3.24 v -1.08 h 35.34 v 1.08 z m 0,28.92 v -2.34 h 14.7 v 2.34 z m 20.64,0 v -2.34 h 14.7 v 2.34 z m -20.64,-32.1 v -0.96 h 35.34 v 0.96 z m 14.7,34.62 h -14.7 v -1.8 h 14.7 z m 20.64,0 h -14.7 v -1.8 h 14.7 z m -35.34,-21.78 v -1.5 h 14.7 v 1.5 z m 20.64,0 v -1.5 h 14.7 v 1.5 z m -20.64,-16.08 v -0.6 h 35.34 v 0.6 z" />
      <path
         id="path40"
         style="font-family:'Dark Hornet Gradient'"
         d="m 528.64141,87.1 v 0.78 h -14.7 V 85.9 h 35.34 v 1.98 h -19.86 z m -14.7,-2.46 v -1.8 h 35.34 v 1.8 z m 0,-3.24 v -1.62 h 35.34 v 1.62 z m 0,-3.18 v -1.5 h 35.34 v 1.5 z m 0,-3.24 v -1.32 h 35.34 v 1.32 z m 19.68,-4.38 0.96,0.9 v -0.9 h 14.7 v 1.2 h -35.34 v -1.2 z m -1.02,20.46 -2.04,-2.04 h 18.72 v 2.04 z m -18.66,6.42 v -2.34 h 14.7 v 2.34 z m 20.64,0 v -2.34 h 14.7 v 2.34 z m 0,-3.18 v -1.26 l -0.96,-0.96 h 15.66 v 2.22 z m -20.64,0 v -2.22 h 14.7 v 2.22 z m 0,-3.24 v -2.04 h 14.7 v 2.04 z m 14.7,8.94 h -14.7 v -1.8 h 14.7 z m 20.64,0 h -14.7 v -1.8 h 14.7 z m -35.34,-31.44 v -1.08 h 16.5 l 1.14,1.08 z m 20.64,0 v -1.08 h 14.7 v 1.08 z m 0,-3.18 v -0.96 h 14.7 v 0.96 z m -20.64,0 v -0.96 h 13.38 l 0.96,0.96 z m 20.64,-3.24 v -0.6 h 14.7 v 0.6 z m -20.64,0 v -0.6 h 10.44 l 0.6,0.6 z" />
      <path
         id="path42"
         style="font-family:'Dark Hornet Gradient'"
         d="m 552.26172,97.48 v -2.34 h 33.18 v 2.34 z m 0,-3.18 v -2.22 h 33.18 v 2.22 z m 0,-3.24 v -2.04 h 33.18 v 2.04 z m 0,-3.18 V 85.9 h 33.18 v 1.98 z m 33.18,12.12 h -33.18 v -1.8 h 33.18 z m -33.18,-25.02 v -1.32 h 33.18 v 1.32 z m 0,-3.18 v -1.2 h 33.18 v 1.2 z m 0,-3.24 v -1.08 h 33.18 v 1.08 z m 0,-3.18 v -0.96 h 33.18 v 0.96 z m 0,19.2 1.68,-1.74 h 16.56 l -1.86,1.8 h -16.38 z m 20.22,-3.6 -0.48,0.42 h -16.62 l 0.6,-0.6 -1.02,-1.02 h 16.68 l 0.84,0.78 z m -20.22,-4.02 v -0.24 h 16.2 l 1.56,1.5 h -16.56 z m 33.18,-15.42 v 0.6 h -33.18 v -0.6 z" />
      <path
         id="path44"
         style="font-family:'Dark Hornet Gradient'"
         d="m 588.47266,94.3 v -2.22 h 35.34 v 2.22 z m 0,-3.24 v -2.04 h 35.34 v 2.04 z m 0,-3.18 V 85.9 h 35.34 v 1.98 z m 0,-3.24 v -1.8 h 35.34 v 1.8 z m 14.7,-3.96 h 5.94 v -0.9 h 14.7 v 1.62 h -35.34 v -1.62 h 14.7 z m -14.7,-5.7 v -1.32 h 35.34 v 1.32 z m 0,-3.18 v -1.2 h 35.34 v 1.2 z m 0,-3.24 v -1.08 h 35.34 v 1.08 z m 0,28.92 v -2.34 h 14.7 v 2.34 z m 20.64,0 v -2.34 h 14.7 v 2.34 z m -20.64,-32.1 v -0.96 h 35.34 v 0.96 z m 14.7,34.62 h -14.7 v -1.8 h 14.7 z m 20.64,0 h -14.7 v -1.8 h 14.7 z m -35.34,-21.78 v -1.5 h 14.7 v 1.5 z m 20.64,0 v -1.5 h 14.7 v 1.5 z m -20.64,-16.08 v -0.6 h 35.34 v 0.6 z" />
    </g>
  </g>
</svg>
