<?xml version="1.0" encoding="UTF-8" standalone="no"?>
<svg
   xmlns:dc="http://purl.org/dc/elements/1.1/"
   xmlns:cc="http://creativecommons.org/ns#"
   xmlns:rdf="http://www.w3.org/1999/02/22-rdf-syntax-ns#"
   xmlns:svg="http://www.w3.org/2000/svg"
   xmlns="http://www.w3.org/2000/svg"
   id="svg16"
   width="800px"
   version="1.1"
   height="200px">
  <metadata
     id="metadata20">
    <rdf:RDF>
      <cc:Work
         rdf:about="">
        <dc:format>image/svg+xml</dc:format>
        <dc:type
           rdf:resource="http://purl.org/dc/dcmitype/StillImage" />
      </cc:Work>
    </rdf:RDF>
  </metadata>
  <defs
     id="defs4">
    <style
       id="style2"
       type="text/css"><![CDATA[    
     @font-face {font-family:Dark Hornet Halftone;
     src: url('/Users/francesco/Repos/write-logos/src/fonts/darkhornethalf.ttf');}
     @font-face {font-family:Faster Bottom;
     src: url('/Users/francesco/Repos/write-logos/src/fonts/Faster_Bottom.ttf');}
     ]]></style>
  </defs>
  <g
     id="g14"
     style="font-size:60px">
    <g
       style="text-anchor:middle"
       id="text12"
       aria-label="eXtemporanea">
      <path
         id="path22"
         style="font-family:'Dark Hornet Halftone'"
         d="m 180.13281,84.58 1.32,-1.38 h 16.56 l -2.7,2.58 h 18 V 100 h -33.18 z m 0,-9.84 v -2.7 h 33.18 v 2.7 z m 0,-4.08 v -2.34 h 33.18 v 2.34 z m 0,-4.08 V 64.6 h 33.18 v 1.98 z m 20.22,14.4 -2.04,1.92 h -16.56 l 2.1,-2.1 -1.32,-1.32 h 16.68 l 1.14,1.08 z m -20.22,-4.02 v -1.2 h 15.24 l 3.18,3.06 h -16.62 z m 33.18,-15.42 v 0.96 h -33.18 v -0.96 z" />
      <path
         id="path24"
         style="font-family:'Faster Bottom'"
         d="m 217.06375,100.06 q -1.32,0 -1.98,-1.14 -0.24,-0.36 -0.24,-0.84 0,-0.78 0.48,-0.78 0.3,0 0.3,0.24 l -0.06,0.48 q 0,0.3 0.18,0.66 0.24,0.36 0.6,0.6 0.42,0.18 0.72,0.18 0.54,0 1.14,-0.36 1.2,-0.72 2.04,-1.86 2.58,-3.18 4.02,-7.38 -1.62,-4.38 -2.88,-8.94 l -0.3,-1.02 q -1.5,-4.8 -2.1,-9.78 V 70 q 0,-0.78 0.42,-1.02 0.48,-0.3 0.9,-0.3 1.14,0 1.5,1.02 0.48,1.74 0.84,3.48 l 0.42,1.92 q 1.2,5.04 2.7,9.78 l 1.92,-8.28 q 0.54,-1.98 1.32,-4.08 0.78,-2.1 2.04,-3.6 1.32,-1.5 3.06,-1.5 2.1,0 2.28,1.8 0,0.24 -0.24,0.24 h -0.12 q -0.72,-0.36 -1.38,-0.36 -1.74,0 -3.06,2.76 -0.78,1.56 -1.2,2.94 l -0.24,0.66 q -1.62,4.38 -3.78,11.22 2.28,6.48 2.52,7.74 0.24,0.9 0.66,1.8 0.42,0.9 1.32,1.32 0.42,0.12 0.78,0.12 1.32,0 2.46,-2.4 2.88,-5.1 4.68,-11.1 0.12,-0.48 0.18,-1.02 0.12,-0.54 0.3,-0.96 0.18,-0.48 0.48,-0.48 0.24,0 0.36,0.12 0.18,0.12 0.18,0.36 0,0.54 -0.66,2.1 l -0.42,1.08 q -1.5,4.56 -3.6,8.76 -1.74,4.62 -4.32,4.62 l -0.72,-0.06 q -2.16,-0.54 -3.36,-2.46 -1.2,-1.92 -1.98,-4.02 l -0.48,-1.14 q -2.28,5.52 -5.52,8.16 -1.14,0.84 -2.16,0.84 z" />
      <path
         id="path26"
         style="font-family:'Dark Hornet Halftone'"
         d="m 264.44969,100 h -14.7 V 83.2 h 14.7 z m -25.02,-25.26 v -2.7 h 35.34 v 2.7 z m 0,-4.08 v -2.34 h 35.34 v 2.34 z m 0,-4.08 V 64.6 h 35.34 v 1.98 z m 10.32,16.32 v -3.42 h 14.7 v 3.42 z m 0,-4.08 v -3.06 h 14.7 v 3.06 z m -10.32,-16.32 v -0.96 h 35.34 v 0.96 z" />
      <path
         id="path28"
         style="font-family:'Dark Hornet Halftone'"
         d="m 277.75,84.58 1.32,-1.38 h 16.56 l -2.7,2.58 h 18 V 100 h -33.18 z m 0,-9.84 v -2.7 h 33.18 v 2.7 z m 0,-4.08 v -2.34 h 33.18 v 2.34 z m 0,-4.08 V 64.6 h 33.18 v 1.98 z m 20.22,14.4 -2.04,1.92 h -16.56 l 2.1,-2.1 -1.32,-1.32 h 16.68 l 1.14,1.08 z m -20.22,-4.02 v -1.2 h 15.24 l 3.18,3.06 h -16.62 z m 33.18,-15.42 v 0.96 h -33.18 v -0.96 z" />
      <path
         id="path30"
         style="font-family:'Dark Hornet Halftone'"
         d="M 313.96094,100 V 83.2 h 39.78 V 100 h -14.7 V 87.64 l -5.22,5.28 -5.16,-5.28 V 100 Z m 0,-17.1 v -3.42 h 39.78 v 3.42 z m 0,-4.08 v -3.06 h 39.78 v 3.06 z m 0,-4.08 v -2.7 h 39.78 v 2.7 z m 0,-4.08 v -2.34 h 17.4 l 2.4,2.34 z m 20.52,0 2.28,-2.34 h 16.98 v 2.34 z m -20.52,-4.08 V 64.6 h 13.56 l 2.04,1.98 z m 24.48,0 1.92,-1.98 h 13.38 v 1.98 z m -24.48,-4.08 v -0.96 h 10.44 l 0.96,0.96 z m 28.44,0 0.96,-0.96 h 10.38 v 0.96 z" />
      <path
         id="path32"
         style="font-family:'Dark Hornet Halftone'"
         d="m 392.07437,94.9 h -20.64 v 5.1 h -14.7 V 83.2 h 35.34 z m -20.64,-14.22 h 5.94 v -1.2 h 14.7 v 3.42 h -35.34 v -3.42 h 14.7 z m -14.7,-5.94 v -2.7 h 35.34 v 2.7 z m 0,-4.08 v -2.34 h 35.34 v 2.34 z m 0,-4.08 V 64.6 h 35.34 v 1.98 z m 20.64,9.18 h 14.7 v 3.06 h -14.7 z m -5.94,0 v 3.06 h -14.7 v -3.06 z m -14.7,-13.26 v -0.96 h 35.34 v 0.96 z" />
      <path
         id="path34"
         style="font-family:'Dark Hornet Halftone'"
         d="m 430.39469,100 h -35.34 V 83.2 h 14.7 v 2.58 h 5.94 V 83.2 h 14.7 z m -35.34,-25.26 v -2.7 h 35.34 v 2.7 z m 0,-4.08 v -2.34 h 35.34 v 2.34 z m 0,-4.08 V 64.6 h 35.34 v 1.98 z m 0,16.32 v -3.42 h 14.7 v 3.42 z m 20.64,0 v -3.42 h 14.7 v 3.42 z m -20.64,-4.08 v -3.06 h 14.7 v 3.06 z m 20.64,0 v -3.06 h 14.7 v 3.06 z m -20.64,-16.32 v -0.96 h 35.34 v 0.96 z" />
      <path
         id="path36"
         style="font-family:'Dark Hornet Halftone'"
         d="M 468.715,87.7 V 100 h -14.7 v -8.7 l -4.68,-4.68 V 83.2 h 16.32 l -0.72,0.72 z m -20.64,12.3 h -14.7 V 83.2 h 14.7 z m -14.7,-25.26 v -2.7 h 35.34 v 2.7 z m 0,-4.08 v -2.34 h 35.34 v 2.34 z m 0,-4.08 V 64.6 h 35.34 v 1.98 z m 35.34,13.56 -2.76,2.76 h -16.62 v -2.52 l 0.9,-0.9 h 18.48 z m -35.34,2.76 v -3.42 h 14.7 v 3.42 z m 17.58,-4.08 3.12,-3.06 h 14.64 v 3.06 z m -17.58,0 v -3.06 h 14.7 v 3.06 z m 35.34,-17.28 v 0.96 h -35.34 v -0.96 z" />
      <path
         id="path38"
         style="font-family:'Dark Hornet Halftone'"
         d="m 507.03531,100 h -14.7 v -5.1 h -5.94 v 5.1 h -14.7 V 83.2 h 35.34 z m -20.64,-19.32 h 5.94 v -1.2 h 14.7 v 3.42 h -35.34 v -3.42 h 14.7 z m -14.7,-5.94 v -2.7 h 35.34 v 2.7 z m 0,-4.08 v -2.34 h 35.34 v 2.34 z m 0,-4.08 V 64.6 h 35.34 v 1.98 z m 20.64,9.18 h 14.7 v 3.06 h -14.7 z m -5.94,0 v 3.06 h -14.7 v -3.06 z m -14.7,-13.26 v -0.96 h 35.34 v 0.96 z" />
      <path
         id="path40"
         style="font-family:'Dark Hornet Halftone'"
         d="M 545.35563,100 H 530.65562 V 93.04 L 524.71563,87.1 V 100 H 510.01562 V 83.2 h 35.34001 z M 510.01562,82.9 v -3.42 h 35.34001 v 3.42 z m 0,-4.08 v -3.06 h 35.34001 v 3.06 z m 0,-4.08 v -2.7 h 35.34001 v 2.7 z m 0,-4.08 v -2.34 h 17.34001 l 2.39999,2.34 z m 20.64,0 v -2.34 h 14.70001 v 2.34 z m 0,-4.08 V 64.6 h 14.70001 v 1.98 z m -20.64,0 V 64.6 h 13.56 l 2.04001,1.98 z m 20.64,-4.08 v -0.96 h 14.70001 v 0.96 z m -20.64,0 v -0.96 h 10.44001 l 0.95999,0.96 z" />
      <path
         id="path42"
         style="font-family:'Dark Hornet Halftone'"
         d="m 548.33594,84.58 1.32,-1.38 h 16.56 l -2.7,2.58 h 18 V 100 h -33.18 z m 0,-9.84 v -2.7 h 33.18 v 2.7 z m 0,-4.08 v -2.34 h 33.18 v 2.34 z m 0,-4.08 V 64.6 h 33.18 v 1.98 z m 20.22,14.4 -2.04,1.92 h -16.56 l 2.1,-2.1 -1.32,-1.32 h 16.68 l 1.14,1.08 z m -20.22,-4.02 v -1.2 h 15.24 l 3.18,3.06 h -16.62 z m 33.18,-15.42 v 0.96 h -33.18 v -0.96 z" />
      <path
         id="path44"
         style="font-family:'Dark Hornet Halftone'"
         d="m 619.88688,100 h -14.70001 v -5.1 h -5.93999 V 100 H 584.54687 V 83.2 h 35.34001 z m -20.64,-19.32 h 5.93999 v -1.2 h 14.70001 v 3.42 h -35.34001 v -3.42 h 14.70001 z m -14.70001,-5.94 v -2.7 h 35.34001 v 2.7 z m 0,-4.08 v -2.34 h 35.34001 v 2.34 z m 0,-4.08 V 64.6 h 35.34001 v 1.98 z m 20.64,9.18 h 14.70001 v 3.06 h -14.70001 z m -5.93999,0 v 3.06 H 584.54687 V 75.76 Z M 584.54687,62.5 v -0.96 h 35.34001 v 0.96 z" />
    </g>
  </g>
</svg>
