<?xml version="1.0" encoding="UTF-8" standalone="no"?>
<svg
   xmlns:dc="http://purl.org/dc/elements/1.1/"
   xmlns:cc="http://creativecommons.org/ns#"
   xmlns:rdf="http://www.w3.org/1999/02/22-rdf-syntax-ns#"
   xmlns:svg="http://www.w3.org/2000/svg"
   xmlns="http://www.w3.org/2000/svg"
   id="svg16"
   width="800px"
   version="1.1"
   height="200px">
  <metadata
     id="metadata20">
    <rdf:RDF>
      <cc:Work
         rdf:about="">
        <dc:format>image/svg+xml</dc:format>
        <dc:type
           rdf:resource="http://purl.org/dc/dcmitype/StillImage" />
      </cc:Work>
    </rdf:RDF>
  </metadata>
  <defs
     id="defs4">
    <style
       id="style2"
       type="text/css"><![CDATA[    
     @font-face {font-family:Dark Hornet Gradient 2 Italic;
     src: url('/Users/francesco/Repos/write-logos/src/fonts/darkhornetgrad2ital.ttf');}
     @font-face {font-family:Blue Cobra Extra-Expanded Ital;
     src: url('/Users/francesco/Repos/write-logos/src/fonts/bluecobraextraexpandital.ttf');}
     ]]></style>
  </defs>
  <g
     id="g14"
     style="font-size:60px">
    <g
       style="text-anchor:middle"
       id="text12"
       aria-label="eXtemporanea">
      <path
         id="path22"
         style="font-family:'Dark Hornet Gradient 2 Italic'"
         d="m 192.02219,65.92 0.6,-2.22 h 33.18 l -0.6,2.22 z m -0.9,3.06 0.6,-2.04 h 33.18 l -0.6,2.04 z m -0.9,3.12 0.6,-1.98 h 33.18 l -0.6,1.98 z m -0.84,3.06 0.48,-1.8 h 33.18 l -0.48,1.8 z m 37.08,-13.62 -0.42,1.32 h -33.18 l 0.42,-1.32 z m -40.62,25.86 0.36,-1.2 h 33.18 l -0.36,1.2 z m -0.9,3.12 0.3,-1.08 h 33.18 l -0.3,1.08 z m -0.84,3.06 0.24,-0.96 h 33.18 l -0.24,0.96 z m -0.9,3.06 0.24,-0.78 h 33.18 l -0.24,0.78 z m 5.64,-19.68 0.12,-0.36 h 16.08 l 1.2,1.62 h -16.56 z m 19.08,4.02 -0.48,0.3 h -16.62 l 0.66,-0.48 -0.72,-1.02 h 16.68 l 0.6,0.78 z m -20.94,3.36 1.62,-1.32 h 16.56 l -1.74,1.32 z m -4.68,15.36 0.18,-0.6 h 33.18 l -0.18,0.6 z" />
      <path
         id="path24"
         style="font-family:'Blue Cobra Extra-Expanded Ital'"
         d="m 229.91312,69.1 q -0.12,0.72 0.6,1.68 0.78,0.9 1.74,1.5 0.6,-0.3 1.2,-0.66 0.6,-0.42 1.14,-0.84 0.54,-0.48 0.9,-0.9 0.36,-0.42 0.42,-0.78 l 3.42,-15.96 h 4.8 l -3.66,17.28 q -0.18,0.24 -0.78,0.78 -0.54,0.54 -1.32,1.14 -0.78,0.6 -1.74,1.2 -0.9,0.54 -1.86,0.84 0.9,0.36 1.56,0.96 0.66,0.54 1.14,1.14 0.54,0.54 0.78,1.08 0.3,0.48 0.42,0.72 l -4.62,21.72 h -4.73999 l 4.31999,-20.28 q 0.12,-0.66 -0.66,-1.56 -0.72,-0.9 -1.62,-1.56 -1.2,0.66 -2.34,1.56 -1.14,0.9 -1.26,1.56 l -4.32,20.28 h -4.74 l 4.62001,-21.72 q 0.11999,-0.24 0.59999,-0.72 0.54,-0.54 1.26,-1.08 0.78,-0.6 1.74,-1.14 0.96,-0.6 1.98,-0.96 -0.78,-0.3 -1.5,-0.84 -0.72,-0.6 -1.26,-1.2 -0.54,-0.6 -0.9,-1.14 -0.36,-0.54 -0.36,-0.78 l 3.66,-17.28 h 4.8 z" />
      <path
         id="path26"
         style="font-family:'Dark Hornet Gradient 2 Italic'"
         d="m 247.10031,65.92 0.6,-2.22 h 35.34 l -0.6,2.22 z m -0.9,3.06 0.6,-2.04 h 35.34 l -0.6,2.04 z m -0.9,3.12 0.6,-1.98 h 35.34 l -0.6,1.98 z m -0.84,3.06 0.48,-1.8 h 35.34 l -0.48,1.8 z m 3.48,-12.3 0.42,-1.32 h 35.34 l -0.42,1.32 z m 5.94,15.36 0.48,-1.62 h 14.7 l -0.48,1.62 z m -0.9,3.06 0.48,-1.5 h 14.7 l -0.48,1.5 z m -0.84,3.06 0.36,-1.32 h 14.7 l -0.36,1.32 z m -0.9,3.06 0.36,-1.2 h 14.7 l -0.36,1.2 z m -0.9,3.12 0.3,-1.08 h 14.7 l -0.3,1.08 z m -0.84,3.06 0.24,-0.96 h 14.7 l -0.24,0.96 z m -0.9,3.06 0.24,-0.78 h 14.7 l -0.24,0.78 z m -0.9,3.06 0.18,-0.6 h 14.7 l -0.18,0.6 z" />
      <path
         id="path28"
         style="font-family:'Dark Hornet Gradient 2 Italic'"
         d="m 285.42062,65.92 0.6,-2.22 h 33.18 l -0.6,2.22 z m -0.9,3.06 0.60001,-2.04 h 33.17999 l -0.6,2.04 z m -0.89999,3.12 0.59999,-1.98 h 33.18 l -0.6,1.98 z m -0.84001,3.06 0.48,-1.8 h 33.18 l -0.48,1.8 z m 37.08001,-13.62 -0.42001,1.32 h -33.18 l 0.42001,-1.32 z m -40.62,25.86 0.35999,-1.2 h 33.18 l -0.36,1.2 z m -0.90001,3.12 0.3,-1.08 h 33.18 l -0.3,1.08 z m -0.83999,3.06 0.24,-0.96 h 33.17999 l -0.23999,0.96 z m -0.90001,3.06 0.24,-0.78 h 33.18 l -0.24,0.78 z m 5.64001,-19.68 0.12,-0.36 h 16.07999 l 1.2,1.62 h -16.56 z m 19.07999,4.02 -0.48,0.3 h -16.62 l 0.66,-0.48 -0.72,-1.02 h 16.68 l 0.6,0.78 z m -20.94,3.36 1.62001,-1.32 h 16.56 l -1.74001,1.32 z m -4.68,15.36 0.18,-0.6 h 33.18001 l -0.18001,0.6 z" />
      <path
         id="path30"
         style="font-family:'Dark Hornet Gradient 2 Italic'"
         d="m 339.63156,70.12 0.66,0.9 1.14,-0.9 h 18.78 l -0.6,1.98 h -39.78 l 0.6,-1.98 z m -20.64,5.04 0.48,-1.8 h 39.78 l -0.48,1.8 z m -0.9,3.06 0.48,-1.62 h 39.78 l -0.48,1.62 z m -0.9,3.06 0.48,-1.5 h 39.78 l -0.48,1.5 z m -0.84,3.06 0.36,-1.32 h 39.78 l -0.36,1.32 z m -0.9,3.06 0.36,-1.2 h 39.78 l -0.36,1.2 z m 5.28,-18.42 0.6,-2.04 h 15.96 l 1.5,2.04 z m 22.14,0 2.58,-2.04 h 15.66 l -0.6,2.04 z m -21.24,-3.06 0.6,-2.22 h 12.66 l 1.68,2.22 z m 25.08,0 2.76,-2.22 h 12.54 l -0.6,2.22 z m -32.16,24.6 0.3,-1.08 h 14.7 l -0.3,1.08 z m 25.08,0 0.3,-1.08 h 14.7 l -0.3,1.08 z m -17.16,-27.66 0.42,-1.32 h 10.44 l 0.9,1.32 z m 28.08,0 1.74,-1.32 h 10.38 l -0.42,1.32 z m -36.84,30.72 0.24,-0.96 h 14.7 l -0.24,0.96 z m 25.08,0 0.24,-0.96 h 14.7 l -0.24,0.96 z m -0.9,3.06 0.24,-0.78 h 14.7 l -0.24,0.78 z m -25.08,0 0.24,-0.78 h 14.7 l -0.24,0.78 z m -0.9,3.06 0.18,-0.6 h 14.7 l -0.18,0.6 z m 25.08,0 0.18,-0.6 h 14.7 l -0.18,0.6 z m -4.92,-9.18 -0.78,-1.08 h 6.84 l -1.38,1.08 z m 1.68,2.4 -0.24,-0.3 h 0.6 z" />
      <path
         id="path32"
         style="font-family:'Dark Hornet Gradient 2 Italic'"
         d="m 364.405,65.92 0.6,-2.22 h 35.34 l -0.6,2.22 z m -0.9,3.06 0.6,-2.04 h 35.34 l -0.6,2.04 z m -0.9,3.12 0.6,-1.98 h 35.34 l -0.6,1.98 z m -0.84,3.06 0.48,-1.8 h 35.34 l -0.48,1.8 z m 13.08,5.52 h 5.94 l 0.3,-0.9 h 14.7 l -0.48,1.5 h -35.34 l 0.48,-1.5 h 14.7 z m -15.72,3.66 0.36,-1.32 h 35.34 l -0.36,1.32 z m 6.12,-21.48 0.42,-1.32 h 35.34 l -0.42,1.32 z m -7.02,24.54 0.36,-1.2 h 35.34 l -0.36,1.2 z m -0.9,3.12 0.3,-1.08 h 35.34 l -0.3,1.08 z m -0.84,3.06 0.24,-0.96 h 35.34 l -0.24,0.96 z m 4.38,-15.36 0.48,-1.62 h 14.7 l -0.48,1.62 z m 20.64,0 0.48,-1.62 h 14.7 l -0.48,1.62 z m -25.92,18.42 0.24,-0.78 h 14.7 l -0.24,0.78 z m -0.9,3.06 0.18,-0.6 h 14.7 l -0.18,0.6 z" />
      <path
         id="path34"
         style="font-family:'Dark Hornet Gradient 2 Italic'"
         d="m 402.72531,65.92 0.6,-2.22 h 35.34 l -0.6,2.22 z m -0.9,3.06 0.6,-2.04 h 35.34 l -0.6,2.04 z m -0.9,3.12 0.6,-1.98 h 35.34 l -0.6,1.98 z m -0.84,3.06 0.48,-1.8 h 35.34 l -0.48,1.8 z m 3.48,-12.3 0.42,-1.32 h 35.34 l -0.42,1.32 z m -7.02,24.54 0.36,-1.2 h 35.34 l -0.36,1.2 z m -0.9,3.12 0.3,-1.08 h 35.34 l -0.3,1.08 z m -0.84,3.06 0.24,-0.96 h 35.34 l -0.24,0.96 z m -0.9,3.06 0.24,-0.78 h 35.34 l -0.24,0.78 z m 5.28,-18.42 0.48,-1.62 h 14.7 l -0.48,1.62 z m 20.64,0 0.48,-1.62 h 14.7 l -0.48,1.62 z m -21.54,3.06 0.48,-1.5 h 14.7 l -0.48,1.5 z m 20.64,0 0.48,-1.5 h 14.7 l -0.48,1.5 z m -25.92,18.42 0.18,-0.6 h 35.34 l -0.18,0.6 z m 4.44,-15.36 0.36,-1.32 h 14.7 l -0.36,1.32 z m 20.64,0 0.36,-1.32 h 14.7 l -0.36,1.32 z" />
      <path
         id="path36"
         style="font-family:'Dark Hornet Gradient 2 Italic'"
         d="m 441.04562,65.92 0.6,-2.22 h 35.34001 l -0.60001,2.22 z m -0.9,3.06 0.60001,-2.04 h 35.33999 l -0.59999,2.04 z m -0.89999,3.12 0.59999,-1.98 h 35.34001 l -0.60001,1.98 z m -0.84001,3.06 0.48,-1.8 h 35.34 l -0.47999,1.8 z m 39.24,-13.62 -0.42,1.32 h -35.34 l 0.42001,-1.32 z m -5.33999,18.6 -1.5,1.14 h -18.24001 l 0.30001,-0.9 0.77999,-0.6 h 18.78 z m -16.62,-1.92 2.09999,-1.62 h 15.54 l -0.48,1.62 z m -18.18001,0 0.48001,-1.62 h 14.7 l -0.48001,1.62 z m -0.9,3.06 0.48,-1.5 h 14.7 l -0.47999,1.5 z m 14.46,5.34 0.12001,-0.42 h 17.87999 l 0.84,1.2 h -18.3 z m 0.66,-2.28 0.36,-1.32 h 16.5 l -1.14,0.9 0.30001,0.42 z m -15.96,0 0.36001,-1.32 h 14.69999 l -0.36,1.32 z m -0.89999,3.06 0.35999,-1.2 h 14.70001 l -0.36001,1.2 z m 18.95999,3.12 -0.78,-1.08 h 16.56001 l -0.3,1.08 z m -19.86,0 0.3,-1.08 h 14.7 l -0.3,1.08 z m -0.83999,3.06 0.24,-0.96 h 14.69999 l -0.24,0.96 z m 20.63999,0 0.24,-0.96 h 14.7 l -0.24,0.96 z m -21.54,3.06 0.24,-0.78 h 14.7 l -0.23999,0.78 z m 20.64001,0 0.23999,-0.78 h 14.70001 l -0.24001,0.78 z m -21.54001,3.06 0.18,-0.6 h 14.7 l -0.18,0.6 z m 20.64,0 0.18,-0.6 h 14.7 l -0.18,0.6 z" />
      <path
         id="path38"
         style="font-family:'Dark Hornet Gradient 2 Italic'"
         d="m 479.36594,65.92 0.6,-2.22 h 35.34 l -0.6,2.22 z m -0.9,3.06 0.6,-2.04 h 35.34 l -0.6,2.04 z m -0.9,3.12 0.6,-1.98 h 35.34 l -0.6,1.98 z m -0.84,3.06 0.48,-1.8 h 35.34 l -0.48,1.8 z m 13.08,5.52 h 5.94 l 0.3,-0.9 h 14.7 l -0.48,1.5 h -35.34 l 0.48,-1.5 h 14.7 z m -15.72,3.66 0.36,-1.32 h 35.34 l -0.36,1.32 z m 6.12,-21.48 0.42,-1.32 h 35.34 l -0.42,1.32 z m -7.02,24.54 0.36,-1.2 h 35.34 l -0.36,1.2 z m -0.9,3.12 0.3,-1.08 h 35.34 l -0.3,1.08 z m -0.84,3.06 0.24,-0.96 h 35.34 l -0.24,0.96 z m 4.38,-15.36 0.48,-1.62 h 14.7 l -0.48,1.62 z m 20.64,0 0.48,-1.62 h 14.7 l -0.48,1.62 z m -25.92,18.42 0.24,-0.78 h 14.7 l -0.24,0.78 z m 20.64,0 0.24,-0.78 h 14.7 l -0.24,0.78 z m -21.54,3.06 0.18,-0.6 h 14.7 l -0.18,0.6 z m 20.64,0 0.18,-0.6 h 14.7 l -0.18,0.6 z" />
      <path
         id="path40"
         style="font-family:'Dark Hornet Gradient 2 Italic'"
         d="m 535.68625,70.12 1.02,1.38 0.42,-1.38 h 14.7 l -0.6,1.98 h -35.34 l 0.6,-1.98 z m -20.64,5.04 0.48,-1.8 h 35.34 l -0.48,1.8 z m -0.9,3.06 0.48,-1.62 h 35.34 l -0.48,1.62 z m -0.9,3.06 0.48,-1.5 h 35.34 l -0.48,1.5 z m -0.84,3.06 0.36,-1.32 h 35.34 l -0.36,1.32 z m 13.92,2.76 -0.12,0.3 h -14.7 l 0.36,-1.2 h 35.34 l -0.36,1.2 h -20.34 z m -9.54,-18.12 0.6,-2.04 h 15.96 l 1.5,2.04 z m 21.54,-3.06 0.6,-2.22 h 14.7 l -0.6,2.22 z m -20.64,0 0.6,-2.22 h 12.66 l 1.68,2.22 z m 19.74,3.06 0.6,-2.04 h 14.7 l -0.6,2.04 z m 1.74,-6.12 0.42,-1.32 h 14.7 l -0.42,1.32 z m -10.44,27.66 -0.78,-1.08 h 18.3 l -0.3,1.08 z m -18.12,0 0.3,-1.08 h 14.7 l -0.3,1.08 z m 7.92,-27.66 0.42,-1.32 h 10.44 l 0.9,1.32 z m 11.88,30.72 0.12,-0.54 -0.3,-0.42 h 15.12 l -0.24,0.96 z m -20.64,0 0.24,-0.96 h 14.7 l -0.24,0.96 z m -0.9,3.06 0.24,-0.78 h 14.7 l -0.24,0.78 z m 20.64,0 0.24,-0.78 h 14.7 l -0.24,0.78 z m -0.9,3.06 0.18,-0.6 h 14.7 l -0.18,0.6 z m -20.64,0 0.18,-0.6 h 14.7 l -0.18,0.6 z" />
      <path
         id="path42"
         style="font-family:'Dark Hornet Gradient 2 Italic'"
         d="m 556.00656,65.92 0.6,-2.22 h 33.18 l -0.6,2.22 z m -0.9,3.06 0.6,-2.04 h 33.18 l -0.6,2.04 z m -0.9,3.12 0.6,-1.98 h 33.18 l -0.6,1.98 z m -0.84,3.06 0.48,-1.8 h 33.18 l -0.48,1.8 z m 37.08,-13.62 -0.42,1.32 h -33.18 l 0.42,-1.32 z m -40.62,25.86 0.36,-1.2 h 33.18 l -0.36,1.2 z m -0.9,3.12 0.3,-1.08 h 33.18 l -0.3,1.08 z m -0.84,3.06 0.24,-0.96 h 33.18 l -0.24,0.96 z m -0.9,3.06 0.24,-0.78 h 33.18 l -0.24,0.78 z m 5.64,-19.68 0.12,-0.36 h 16.08 l 1.2,1.62 h -16.56 z m 19.08,4.02 -0.48,0.3 h -16.62 l 0.66,-0.48 -0.72,-1.02 h 16.68 l 0.6,0.78 z m -20.94,3.36 1.62,-1.32 h 16.56 l -1.74,1.32 z m -4.68,15.36 0.18,-0.6 h 33.18 l -0.18,0.6 z" />
      <path
         id="path44"
         style="font-family:'Dark Hornet Gradient 2 Italic'"
         d="m 592.2175,65.92 0.6,-2.22 h 35.34 l -0.6,2.22 z m -0.9,3.06 0.6,-2.04 h 35.34 l -0.6,2.04 z m -0.9,3.12 0.6,-1.98 h 35.34 l -0.6,1.98 z m -0.84,3.06 0.48,-1.8 h 35.34 l -0.48,1.8 z m 13.08,5.52 h 5.94 l 0.3,-0.9 h 14.7 l -0.48,1.5 h -35.34 l 0.48,-1.5 h 14.7 z m -15.72,3.66 0.36,-1.32 h 35.34 l -0.36,1.32 z m 6.12,-21.48 0.42,-1.32 h 35.34 l -0.42,1.32 z m -7.02,24.54 0.36,-1.2 h 35.34 l -0.36,1.2 z m -0.9,3.12 0.3,-1.08 h 35.34 l -0.3,1.08 z m -0.84,3.06 0.24,-0.96 h 35.34 l -0.24,0.96 z m 4.38,-15.36 0.48,-1.62 h 14.7 l -0.48,1.62 z m 20.64,0 0.48,-1.62 h 14.7 l -0.48,1.62 z m -25.92,18.42 0.24,-0.78 h 14.7 l -0.24,0.78 z m 20.64,0 0.24,-0.78 h 14.7 l -0.24,0.78 z m -21.54,3.06 0.18,-0.6 h 14.7 l -0.18,0.6 z m 20.64,0 0.18,-0.6 h 14.7 l -0.18,0.6 z" />
    </g>
  </g>
</svg>
