<?xml version="1.0" encoding="UTF-8" standalone="no"?>
<svg
   xmlns:dc="http://purl.org/dc/elements/1.1/"
   xmlns:cc="http://creativecommons.org/ns#"
   xmlns:rdf="http://www.w3.org/1999/02/22-rdf-syntax-ns#"
   xmlns:svg="http://www.w3.org/2000/svg"
   xmlns="http://www.w3.org/2000/svg"
   id="svg16"
   width="800px"
   version="1.1"
   height="200px">
  <metadata
     id="metadata20">
    <rdf:RDF>
      <cc:Work
         rdf:about="">
        <dc:format>image/svg+xml</dc:format>
        <dc:type
           rdf:resource="http://purl.org/dc/dcmitype/StillImage" />
      </cc:Work>
    </rdf:RDF>
  </metadata>
  <defs
     id="defs4">
    <style
       id="style2"
       type="text/css"><![CDATA[    
     @font-face {font-family:DB Layer 1 BRK;
     src: url('/Users/francesco/Repos/write-logos/src/fonts/dblayer1.ttf');}
     @font-face {font-family:Dark Hornet Semi-Italic;
     src: url('/Users/francesco/Repos/write-logos/src/fonts/darkhornetsemital.ttf');}
     ]]></style>
  </defs>
  <g
     id="g14"
     style="font-size:60px">
    <g
       style="text-anchor:middle"
       id="text12"
       aria-label="eXtemporanea">
      <path
         id="path22"
         style="font-family:'DB Layer 1 BRK'"
         d="m 168.73844,71.98 q -3.06,0 -5.28,2.22 -2.16,2.16 -2.16,5.28 v 7.44 h 7.44 q 3.12,0 5.28,-2.16 2.22,-2.22 2.22,-5.28 0,-3.12 -2.22,-5.28 -2.16,-2.22 -5.28,-2.22 z m -5.16,38.64 -3.36,-12.66 q -0.06,-0.12 -0.12,-0.36 0,-0.24 -0.12,-0.54 V 95.74 79.48 q 0,-1.32 0.24,-2.22 l 3.36,-12.72 -9.06,9.54 q -5.4,5.7 -5.4,13.5 0,7.92 5.4,13.56 z m 24.84,-23.04 q 0,-7.8 -5.4,-13.5 l -9.06,-9.54 3.3,12.72 q 0.3,1.02 0.3,2.22 0,3.66 -2.58,6.24 -2.58,2.58 -6.24,2.58 h -7.44 v 7.44 q 0,3.06 2.16,5.22 2.22,2.22 5.28,2.22 4.56,0 6.66,-4.08 h 1.56 l -3,11.52 9.06,-9.48 q 5.4,-5.64 5.4,-13.56 z" />
      <path
         id="path24"
         style="font-family:'Dark Hornet Semi-Italic'"
         d="m 213.53969,61.54 -1.86,8.7 2.34,3 3.6,-3 1.86,-8.7 h 14.7 l -3.24,15.42 -4.62,3.84 3,3.78 -3.3,15.42 h -14.7 l 1.86,-8.76 -2.34,-3.06 -3.6,3.06 -1.86,8.76 h -14.7 l 3.3,-15.42 4.5,-3.78 -2.88,-3.84 3.24,-15.42 z" />
      <path
         id="path26"
         style="font-family:'DB Layer 1 BRK'"
         d="m 267.52,87.58 q 0,-4.32 -1.74,-8.1 -1.68,-3.78 -4.92,-6.66 l -0.78,-0.66 -0.18,-0.18 h -11.34 v 35.76 l 4.2,-1.08 q 6.66,-1.74 10.68,-7.02 4.08,-5.34 4.08,-12.06 z m -20.34,-15.6 h -11.34 l -0.18,0.18 -0.78,0.66 q -3.24,2.88 -4.98,6.72 -1.68,3.84 -1.68,8.04 0,6.78 4.14,12.06 4.14,5.34 10.62,7.02 l 4.2,1.08 z" />
      <path
         id="path28"
         style="font-family:'DB Layer 1 BRK'"
         d="m 288.62125,71.98 q -3.06,0 -5.28,2.22 -2.16,2.16 -2.16,5.28 v 7.44 h 7.44 q 3.12,0 5.28,-2.16 2.22,-2.22 2.22,-5.28 0,-3.12 -2.22,-5.28 -2.16,-2.22 -5.28,-2.22 z m -5.16,38.64 -3.36,-12.66 q -0.06,-0.12 -0.12,-0.36 0,-0.24 -0.12,-0.54 V 95.74 79.48 q 0,-1.32 0.24,-2.22 l 3.36,-12.72 -9.06,9.54 q -5.4,5.7 -5.4,13.5 0,7.92 5.4,13.56 z m 24.84,-23.04 q 0,-7.8 -5.4,-13.5 l -9.06,-9.54 3.3,12.72 q 0.3,1.02 0.3,2.22 0,3.66 -2.58,6.24 -2.58,2.58 -6.24,2.58 h -7.44 v 7.44 q 0,3.06 2.16,5.22 2.22,2.22 5.28,2.22 4.56,0 6.66,-4.08 h 1.56 l -3,11.52 9.06,-9.48 q 5.4,-5.64 5.4,-13.56 z" />
      <path
         id="path30"
         style="font-family:'DB Layer 1 BRK'"
         d="m 336.9025,71.98 h -7.44 q -3.12,0 -5.28,2.22 -2.16,2.28 -2.16,5.28 V 106 l 0.48,0.12 2.04,0.54 q 2.58,0.6 4.92,0.6 h 7.44 z m 16.26,7.5 q 0,-3.18 -2.16,-5.34 -2.16,-2.16 -5.28,-2.16 h -7.44 v 35.28 h 7.44 q 1.2,0 2.52,-0.18 1.32,-0.18 2.4,-0.42 l 2.04,-0.54 0.48,-0.12 z m -32.22,-2.22 3.3,-12.72 -9.06,9.54 q -5.4,5.7 -5.4,13.5 0,7.5 4.92,13.02 l 5.94,6.72 V 79.48 q 0,-0.9 0.3,-2.22 z m 44.46,10.32 q 0,-7.8 -5.4,-13.5 l -9.06,-9.54 3.3,12.72 q 0.3,1.32 0.3,2.22 v 27.84 l 5.94,-6.72 q 2.4,-2.7 3.66,-6.06 1.26,-3.36 1.26,-6.96 z" />
      <path
         id="path32"
         style="font-family:'DB Layer 1 BRK'"
         d="m 406.15281,87.58 q 0,-7.8 -5.4,-13.5 l -9.06,-9.54 3.3,12.72 q 0.3,1.02 0.3,2.22 0,3.66 -2.58,6.24 -2.58,2.58 -6.24,2.58 h -7.44 V 106 l 0.54,0.12 2.04,0.54 q 2.46,0.6 4.86,0.6 8.16,0 13.92,-5.76 5.76,-5.76 5.76,-13.92 z m -19.68,-15.6 q -3.06,0 -5.28,2.22 -2.16,2.16 -2.16,5.28 v 7.44 h 7.44 q 3.12,0 5.28,-2.16 2.22,-2.22 2.22,-5.28 0,-3.12 -2.22,-5.28 -2.16,-2.22 -5.28,-2.22 z m -8.52,5.28 3.36,-12.72 -9.06,9.54 q -5.4,5.7 -5.4,13.5 0,7.5 4.92,13.02 l 5.94,6.72 V 79.48 q 0,-1.32 0.24,-2.22 z" />
      <path
         id="path34"
         style="font-family:'DB Layer 1 BRK'"
         d="m 422.09406,110.62 -3.36,-12.66 q -0.06,-0.12 -0.12,-0.36 0,-0.24 -0.12,-0.54 V 95.74 79.48 q 0,-1.32 0.24,-2.22 l 3.36,-12.72 -9.06,9.54 q -5.4,5.7 -5.4,13.5 0,7.92 5.4,13.56 z m 5.16,-7.44 q 3.12,0 5.28,-2.22 2.22,-2.16 2.22,-5.22 V 79.48 q 0,-3.12 -2.22,-5.28 -2.16,-2.22 -5.28,-2.22 -3.06,0 -5.28,2.22 -2.16,2.16 -2.16,5.28 v 16.26 q 0,3.06 2.16,5.22 2.22,2.22 5.28,2.22 z m 19.68,-15.6 q 0,-7.8 -5.4,-13.5 l -9.06,-9.54 3.3,12.72 q 0.3,1.02 0.3,2.22 v 16.26 q 0,1.14 -0.3,2.22 l -3.3,12.66 9.06,-9.48 q 5.4,-5.64 5.4,-13.56 z" />
      <path
         id="path36"
         style="font-family:'DB Layer 1 BRK'"
         d="m 487.71531,87.58 q 0,-7.8 -5.4,-13.5 l -9.06,-9.54 3.3,12.72 q 0.3,1.02 0.3,2.22 0,3.36 -2.22,5.82 l -1.68,1.86 -0.36,0.42 0.36,0.48 1.68,1.8 q 2.22,2.46 2.22,5.88 v 11.58 l 5.94,-6.72 q 2.4,-2.7 3.66,-6.06 1.26,-3.36 1.26,-6.96 z m -28.2,-10.32 3.36,-12.72 -9.06,9.54 q -5.4,5.7 -5.4,13.5 0,7.5 4.92,13.02 l 5.94,6.72 V 79.48 q 0,-1.32 0.24,-2.22 z m 16.02,18.48 q 0,-3.12 -2.22,-5.28 -2.28,-2.16 -5.28,-2.16 h -7.44 V 106 l 0.54,0.12 2.04,0.54 q 2.46,0.6 4.86,0.6 2.46,0 4.92,-0.6 l 2.04,-0.54 0.54,-0.12 z m -7.5,-23.76 q -3.06,0 -5.28,2.22 -2.16,2.16 -2.16,5.28 v 7.44 h 7.44 q 3.12,0 5.28,-2.16 2.22,-2.22 2.22,-5.28 0,-3.12 -2.22,-5.28 -2.16,-2.22 -5.28,-2.22 z" />
      <path
         id="path38"
         style="font-family:'DB Layer 1 BRK'"
         d="m 508.81656,103.18 q 3.12,0 5.28,-2.22 2.22,-2.16 2.22,-5.22 V 88.3 h -7.5 q -3.12,0 -5.28,2.16 -2.16,2.16 -2.16,5.28 0,3.06 2.16,5.22 2.22,2.22 5.28,2.22 z m 19.68,-15.6 q 0,-7.8 -5.4,-13.5 l -9.06,-9.54 3.3,12.72 q 0.3,1.02 0.3,2.22 v 16.26 q 0,1.14 -0.3,2.22 l -3.3,12.66 9.06,-9.48 q 5.4,-5.64 5.4,-13.56 z m -24.84,23.04 -3.36,-12.66 q -0.06,-0.12 -0.12,-0.36 0,-0.24 -0.12,-0.54 v -1.32 q 0,-3.66 2.58,-6.24 2.58,-2.58 6.18,-2.58 h 7.5 v -7.44 q 0,-3.12 -2.22,-5.28 -2.16,-2.22 -5.28,-2.22 -2.1,0 -3.9,1.14 -1.74,1.08 -2.7,2.94 h -1.56 l 3,-11.52 -9.06,9.54 q -5.4,5.7 -5.4,13.5 0,7.92 5.4,13.56 z" />
      <path
         id="path40"
         style="font-family:'DB Layer 1 BRK'"
         d="m 541.07781,77.26 3.36,-12.72 -9.06,9.54 q -5.4,5.7 -5.4,13.5 0,7.5 4.92,13.02 l 5.94,6.72 V 79.48 q 0,-1.32 0.24,-2.22 z m 28.2,10.32 q 0,-7.8 -5.4,-13.5 l -9.06,-9.54 3.3,12.72 q 0.3,1.02 0.3,2.22 v 27.84 l 5.94,-6.72 q 2.4,-2.7 3.66,-6.06 1.26,-3.36 1.26,-6.96 z m -12.18,-8.1 q 0,-3.12 -2.22,-5.28 -2.16,-2.22 -5.28,-2.22 -3.06,0 -5.28,2.22 -2.16,2.16 -2.16,5.28 V 106 l 0.54,0.12 2.04,0.54 q 2.46,0.6 4.86,0.6 2.46,0 4.92,-0.6 l 2.04,-0.54 0.54,-0.12 z" />
      <path
         id="path42"
         style="font-family:'DB Layer 1 BRK'"
         d="m 590.37906,71.98 q -3.06,0 -5.28,2.22 -2.16,2.16 -2.16,5.28 v 7.44 h 7.44 q 3.12,0 5.28,-2.16 2.22,-2.22 2.22,-5.28 0,-3.12 -2.22,-5.28 -2.16,-2.22 -5.28,-2.22 z m -5.16,38.64 -3.36,-12.66 q -0.06,-0.12 -0.12,-0.36 0,-0.24 -0.12,-0.54 V 95.74 79.48 q 0,-1.32 0.24,-2.22 l 3.36,-12.72 -9.06,9.54 q -5.4,5.7 -5.4,13.5 0,7.92 5.4,13.56 z m 24.84,-23.04 q 0,-7.8 -5.4,-13.5 l -9.06,-9.54 3.3,12.72 q 0.3,1.02 0.3,2.22 0,3.66 -2.58,6.24 -2.58,2.58 -6.24,2.58 h -7.44 v 7.44 q 0,3.06 2.16,5.22 2.22,2.22 5.28,2.22 4.56,0 6.66,-4.08 h 1.56 l -3,11.52 9.06,-9.48 q 5.4,-5.64 5.4,-13.56 z" />
      <path
         id="path44"
         style="font-family:'DB Layer 1 BRK'"
         d="m 631.16031,103.18 q 3.12,0 5.28,-2.22 2.22,-2.16 2.22,-5.22 V 88.3 h -7.5 q -3.12,0 -5.28,2.16 -2.16,2.16 -2.16,5.28 0,3.06 2.16,5.22 2.22,2.22 5.28,2.22 z m 19.68,-15.6 q 0,-7.8 -5.4,-13.5 l -9.06,-9.54 3.3,12.72 q 0.3,1.02 0.3,2.22 v 16.26 q 0,1.14 -0.3,2.22 l -3.3,12.66 9.06,-9.48 q 5.4,-5.64 5.4,-13.56 z m -24.84,23.04 -3.36,-12.66 q -0.06,-0.12 -0.12,-0.36 0,-0.24 -0.12,-0.54 v -1.32 q 0,-3.66 2.58,-6.24 2.58,-2.58 6.18,-2.58 h 7.5 v -7.44 q 0,-3.12 -2.22,-5.28 -2.16,-2.22 -5.28,-2.22 -2.1,0 -3.9,1.14 -1.74,1.08 -2.7,2.94 h -1.56 l 3,-11.52 -9.06,9.54 q -5.4,5.7 -5.4,13.5 0,7.92 5.4,13.56 z" />
    </g>
  </g>
</svg>
