<?xml version="1.0" encoding="UTF-8" standalone="no"?>
<svg
   xmlns:dc="http://purl.org/dc/elements/1.1/"
   xmlns:cc="http://creativecommons.org/ns#"
   xmlns:rdf="http://www.w3.org/1999/02/22-rdf-syntax-ns#"
   xmlns:svg="http://www.w3.org/2000/svg"
   xmlns="http://www.w3.org/2000/svg"
   id="svg10"
   width="500px"
   version="1.1"
   height="200px">
  <metadata
     id="metadata14">
    <rdf:RDF>
      <cc:Work
         rdf:about="">
        <dc:format>image/svg+xml</dc:format>
        <dc:type
           rdf:resource="http://purl.org/dc/dcmitype/StillImage" />
      </cc:Work>
    </rdf:RDF>
  </metadata>
  <defs
     id="defs4">
    <style
       id="style2"
       type="text/css"><![CDATA[    
     @font-face {font-family:Dearest Dorothy;
     src: url('/Users/francesco/Repos/write-logos/src/fonts//Dearest_Dorothy.ttf');}]]></style>
  </defs>
  <g
     id="g8"
     style="font-size:30px;font-family:'Dearest Dorothy'">
    <g
       style=""
       id="text6"
       aria-label="eXtemporanea">
      <path
         id="path16"
         style=""
         d="m 109.3457,80.063477 h 0.26368 q 0.21972,0.07324 0.21972,0.571289 v 0.08789 l -0.30762,0.9375 0.13184,0.131836 v 0.04395 q -0.55664,0.366211 -0.79102,1.40625 0,0.541993 -0.61523,1.640625 h -0.0879 l -0.0879,-0.08789 q -0.16113,-1.772461 -0.5127,-1.772461 -0.20507,-0.263672 -0.92285,-0.527344 l -0.0879,-0.08789 q -0.4834,0.292968 -0.4834,1.289062 v 0.175781 q 0,0.454102 0.83496,0.703125 0.35157,-0.117187 0.35157,-0.395508 -0.0733,-0.175781 -0.13184,-0.175781 h -0.13184 l -0.0879,0.08789 q 0.17579,0.01465 0.17579,0.131836 v 0.04394 l -0.17579,0.175781 h -0.0439 q -0.23438,0 -0.35156,-0.219726 v -0.08789 q 0,-0.483398 0.65918,-0.483398 0.27832,0 0.3955,0.483398 v 0.219727 q 0,0.498047 -0.79101,0.659179 0,-0.131836 -0.26367,-0.131836 -0.83496,-0.46875 -0.83496,-1.450195 0.11718,-0.615234 0.35156,-1.157226 l -0.61524,-0.131836 h -0.26367 l -0.13183,0.08789 q 0.30761,0.629883 0.30761,0.834961 v 0.175781 q -0.10254,1.201172 -0.83496,1.201172 -0.82031,0 -0.95215,-0.571289 l -0.0879,-0.351562 v -0.278321 q 0.32227,-0.615234 0.70313,-0.615234 h 0.26367 q 0.27832,0 0.33691,0.849609 v 0.08789 l -0.26367,0.263672 h -0.29297 l -0.17578,-0.175781 v -0.219727 l 0.17578,-0.19043 h 0.044 q 0.13183,0 0.13183,0.234375 h 0.044 v -0.234375 q 0,-0.146484 -0.13184,-0.307617 -0.27832,0 -0.43945,0.629883 0.14649,0.439453 0.4834,0.439453 h 0.16113 q 0.35156,0 0.43946,-0.483398 0,-1.025391 -1.04004,-1.508789 0,-0.131836 -0.0879,-0.131836 h -0.17579 q -0.13183,0 -0.26367,0.483398 -0.33691,0 -0.57129,1.201172 v 0.04394 l 0.0879,0.351563 -0.0439,1.274414 0.13183,0.629883 -0.0879,0.08789 v 0.08789 q 0,0.219727 0.26368,0.571289 0.29296,-0.292969 0.65918,-0.351562 0.11718,-0.219727 0.52734,-0.483399 v -0.04394 q -0.19043,-0.454102 -0.52734,-0.454102 h -0.26368 q -0.17578,0.07324 -0.17578,0.307617 0.0293,0.234375 0.13184,0.234375 h 0.0879 l 0.0879,-0.08789 v -0.05859 q -0.21973,0 -0.21973,-0.131836 v -0.04394 l 0.13184,-0.131836 h 0.21973 l 0.21972,0.219726 v 0.08789 q 0,0.366211 -0.52734,0.498047 -0.43945,-0.19043 -0.43945,-0.498047 v -0.219726 q 0,-0.234375 0.35156,-0.483399 h 0.43945 q 0.5127,0 0.86426,0.761719 l 1.31836,-0.454102 h 0.43945 l 0.4834,0.175782 -0.0439,0.541992 v 0.307617 q 0,0.541992 0.30762,1.230469 l 0.0879,0.527343 q 0,0.307618 -0.21972,0.454102 h -0.17579 q -0.0879,0 -0.52734,-0.849609 -0.23437,0 -0.26367,-0.395508 h -0.57129 q -0.39551,0.659179 -0.39551,0.893554 v 0.439454 q 0.20508,0.703125 0.65918,0.703125 0.43945,-0.161133 0.43945,-0.263672 v -0.175782 q -0.0732,-0.395507 -0.35156,-0.395507 -0.17578,0.04394 -0.17578,0.219726 l 0.0439,0.04395 h 0.0439 l 0.13184,-0.131836 h 0.0439 q 0.17578,0.07324 0.17578,0.307617 v 0.04394 l -0.17578,0.175781 h -0.26367 q -0.32226,0 -0.4834,-0.439453 0,-0.527344 0.39551,-0.717773 0.9668,0.08789 0.9668,0.673828 v 0.175781 q 0,0.541992 -0.4834,0.834961 h -0.35156 q -0.58594,0 -0.92286,-0.791016 l -0.0439,-0.659179 0.21973,-0.981446 h -0.044 q -0.61523,0 -1.30371,1.113282 -0.20508,0 -0.26367,0.966797 -0.36621,0.512695 -0.43946,0.878906 l 0.26368,1.333008 0.65918,-0.922852 q 0.54199,-0.454101 1.12793,-0.454101 1.01074,0.205078 1.01074,1.02539 l 0.0439,0.439453 q 0,0.629883 -0.83496,0.966797 h -0.17578 q -0.9082,-0.08789 -0.9082,-0.65918 v -0.307617 q 0,-0.322265 0.51269,-0.74707 h 0.17578 q 0.61524,0.146484 0.61524,0.527344 v 0.219726 q 0,0.234375 -0.35156,0.483399 h -0.17578 q -0.35157,0 -0.35157,-0.351563 v -0.131836 l 0.21973,-0.219726 h 0.0439 l 0.13184,0.131836 v 0.08789 l -0.0879,0.131836 h 0.0879 q 0.13184,-0.0293 0.13184,-0.351562 l -0.17578,-0.175782 h -0.17579 q -0.0586,0 -0.30761,0.439454 0.10254,0.571289 0.57129,0.571289 h 0.17578 q 0.3955,-0.292969 0.3955,-0.747071 0,-0.834961 -0.74707,-0.834961 h -0.0879 q -0.62988,0 -1.21582,1.186524 l -0.0879,0.74707 q 0.30762,1.113281 0.74707,1.113281 l 0.55664,0.04395 h 0.43946 q 0.16113,-0.131836 0.30761,-0.131836 h 0.9668 q 0.26367,0 0.4834,-0.219727 h 0.35156 q 0.86426,-0.146484 0.86426,-0.805664 v -0.395508 l 0.0439,-0.04395 q -0.10254,-1.142578 -0.55665,-1.142578 l -0.21972,-0.04395 q -0.35156,0 -0.43946,0.615234 0.0586,0.263672 0.30762,0.263672 0.21973,-0.05859 0.21973,-0.307617 l -0.044,-0.04395 h -0.0439 q 0,0.175782 -0.13184,0.175782 h -0.0439 l -0.17578,-0.175782 v -0.131836 l 0.21972,-0.219726 h 0.30762 l 0.29297,0.307617 V 91.5625 q 0,0.424805 -0.60059,0.615234 h -0.17578 q -0.38086,0 -0.52734,-0.571289 0,-0.834961 0.79101,-0.966797 h 0.42481 l 0.4834,0.307618 q 0,-0.410157 0.17578,-0.410157 h 0.17578 q 0.65918,0.131836 0.65918,0.498047 l -0.13184,1.010742 q 0.19043,1.274414 0.30762,1.552735 v 0.04394 l -0.044,0.04394 v 0.04395 l 0.0879,0.08789 -0.0879,0.08789 q 0.32227,0.46875 0.61524,1.186523 0.21972,0.205079 0.21972,0.454102 h -1.66992 l -0.21972,0.04394 v 0.04395 q 0.68847,0 0.74707,0.351562 l 0.0879,0.08789 v 0.483398 q -0.10254,0.527344 -0.52735,0.527344 h -0.3955 q -0.90821,-0.322266 -0.90821,-0.922852 v -0.527343 l 0.0439,-0.04395 v -0.04394 L 104.14551,95.3125 h -1.05469 q -0.11719,0.205078 -0.9668,0.322266 h -0.52734 l -0.4834,-0.04395 -0.11719,0.04395 -0.0879,-0.131836 v -0.146485 q 0.5127,-1.113281 0.5127,-1.801758 l -0.044,-0.175781 v -0.04394 l 0.0879,-0.131836 v -0.541992 q 0,-0.219727 -0.17578,-0.483399 l 0.0439,-0.307617 q 0,-1.49414 -0.29297,-2.43164 v -0.04395 l 0.11719,-0.703125 v -0.263672 l 0.17578,-0.673828 q -0.0732,0 -0.21973,-0.527344 v -0.175781 l 0.0439,-0.439453 q -0.13184,0 -0.20508,-0.571289 v -0.263672 l 0.0439,-0.498047 -0.21972,-0.922851 v -1.054688 q 0,-1.069336 -1.05469,-1.948242 -0.117188,-0.249023 -0.263672,-0.263672 v -0.08789 q 0,-0.205079 0.615232,-0.278321 l 0.70313,0.04395 0.33691,-0.08789 h 0.30762 l 0.0879,0.08789 0.13184,-0.08789 0.13183,0.04394 0.9668,-0.04394 h 0.83496 l 0.39551,0.131836 1.25976,-0.04394 h 0.35156 l 0.21973,-0.04395 0.26367,0.04395 h 0.61524 q 2.22656,-0.08789 2.22656,-0.395508 z m -1.3623,15.878906 -0.0879,0.219726 q 0,0.527344 0.65918,0.571289 0.35156,-0.0293 0.35156,-0.351562 0,-0.351563 -0.39551,-0.351563 h -0.0879 v 0.08789 h -0.0439 l 0.0439,0.131836 0.044,-0.04394 h 0.0879 l 0.13183,0.131836 v 0.08789 l -0.13183,0.131836 h -0.13184 q -0.39551,-0.131836 -0.39551,-0.395508 v -0.219726 z" />
      <path
         id="path18"
         style=""
         d="m 126.26465,78.071289 h 0.13183 q 0.79102,0 1.11329,1.098633 l 0.0439,0.366211 q 0,0.673828 -0.9668,1.054687 h -0.32226 q -0.9375,0 -1.11328,-0.74707 0,-0.805664 0.73242,-1.069336 l 0.23437,-0.04394 q 0.74707,0.117187 0.74707,0.893554 v 0.175782 q -0.21972,0.263672 -0.46875,0.263672 h -0.23437 q -0.41016,-0.07324 -0.41016,-0.351563 0.0586,-0.307617 0.19043,-0.307617 h 0.21973 q 0.19043,0.07324 0.19043,0.263672 l 0.0879,-0.08789 v -0.04394 q 0,-0.234375 -0.21973,-0.454102 h -0.14648 q -0.35156,0 -0.5127,0.805664 0,0.205078 0.70313,0.351563 0.68848,-0.205078 0.68848,-0.527344 0.0879,0 0.0879,-0.307617 v -0.131836 q -0.17579,-0.761719 -0.64454,-0.761719 l -0.23437,-0.04394 q -0.5127,0 -1.24512,0.65918 -0.29297,0.336914 -0.68847,1.333007 0.41015,0.556641 0.41015,0.673828 -0.0147,0.234375 -1.15722,0.878907 -0.77637,0.629883 -1.09864,1.201172 -0.82031,0.454101 -1.62597,1.596679 -1.36231,1.289063 -2.12403,2.563477 l -0.13183,0.131836 v 0.351562 l 0.17578,0.263672 -0.0439,0.04395 1.20117,1.772461 q 0.43946,0.761719 1.20118,0.761719 0.26367,0.131836 0.51269,0.131836 0.57129,0 1.43555,-0.65918 l 0.32226,-0.717773 q -0.0439,-1.333008 -0.70312,-1.552734 l -0.27832,-0.04395 h -0.17578 q -1.08399,0 -1.20117,1.069336 l -0.044,0.175781 q 0,0.498047 0.64453,0.65918 0.83496,-0.249023 0.83496,-0.65918 -0.23437,-0.527343 -0.4248,-0.527343 -0.36621,0 -0.36621,0.307617 v 0.04394 l 0.13183,0.131836 q 0,-0.351562 0.14649,-0.351562 h 0.13183 q 0.14649,0 0.14649,0.175781 -0.0439,0.571289 -0.5127,0.571289 -0.4541,-0.19043 -0.4541,-0.527344 0,-0.366211 0.54199,-0.761719 h 0.33692 q 0.4541,0.234375 0.77636,0.761719 v 0.175781 q 0,0.512696 -0.92285,1.069336 h -0.0439 q -1.3916,-0.205078 -1.3916,-1.069336 v -0.04395 q 0,-1.054687 1.15722,-1.640625 h 0.23438 q 1.46484,0.19043 1.61133,0.65918 0.38085,0.541992 0.38085,0.849609 v 0.08789 q -0.16113,0.849609 -0.51269,1.289062 0,0.322266 -0.9668,0.834961 -0.51269,0.219727 -0.8789,0.219727 l -0.60059,-0.08789 q 0.42481,0.805664 0.64453,0.9375 0.20508,0.05859 0.41016,0.615235 l 1.90429,1.860351 q 0.5127,0.395508 1.01075,0.395508 l 0.0879,0.263672 q 0,0.146484 -1.28906,0.234375 l -2.49024,-0.234375 -0.51269,0.146484 h -0.0439 q -0.55664,0 -0.55664,-0.322265 l 0.27832,-0.351563 v -0.483398 l -0.92285,-1.948243 q -0.83496,-0.55664 -0.83496,-0.805664 h -0.0879 q -1.53809,0.322266 -1.53809,0.893555 -0.49805,0.585938 -0.49805,1.054688 v 0.190429 q 0.0733,0.966797 0.92286,0.966797 1.27441,0 1.43554,-0.922851 v -0.04395 q 0,-0.893554 -0.79101,-0.893554 l -0.13184,-0.04395 h -0.10254 q -0.19043,0 -0.49805,0.703125 v 0.322266 q 0,0.102539 0.41016,0.219726 0.27832,-0.07324 0.27832,-0.351562 l -0.0439,-0.05859 h -0.0439 l -0.10254,0.102539 h -0.0879 l -0.13183,-0.146484 q 0,-0.351563 0.36621,-0.351563 h 0.13183 q 0.32227,0.146485 0.32227,0.673829 0,0.234375 -0.49805,0.483398 h -0.27832 Q 116.875,94.257812 116.875,93.671875 v -0.146484 q 0,-0.644532 0.92285,-1.142579 h 0.14649 q 1.11328,0 1.333,1.376954 v 0.395507 q -0.20507,0.952149 -1.56738,1.054688 h -0.41016 q -1.43554,-0.366211 -1.43554,-1.142578 V 93.71582 q 0,-1.596679 1.75781,-2.490234 l 0.49805,-0.131836 q -0.11719,-0.322266 -1.09864,-1.420898 0,0.307617 -0.79101,1.201171 -2.15332,2.768555 -2.16797,3.896485 0.24902,0 0.32227,0.175781 v 0.219727 l -0.14649,0.131836 0.0439,0.04394 v 0.04394 q 0,0.19043 -2.25586,0.234375 l -0.42481,-0.04394 -0.86426,0.04394 q -0.35156,0 -0.46875,-0.234375 v -0.131836 q 0.19043,-0.161133 0.19043,-0.263672 l 0.17579,-0.131836 0.23437,0.04395 q 0.33691,-0.219727 0.68848,-0.65918 1.04004,-0.849609 1.25976,-1.464844 0.26367,-0.190429 0.41016,-0.659179 0.26367,0 0.79101,-1.201172 0.21973,-1.113282 0.21973,-1.772461 -0.46875,-1.772461 -1.01074,-1.772461 -0.14649,-0.175781 -0.46875,-0.175781 h -0.17578 q -1.30371,0.263671 -1.30371,0.791015 l -0.17578,0.805664 q 0.16113,0.878907 0.8789,0.878907 h 0.0439 q 0.83496,0 0.83496,-1.098633 v -0.04395 q 0,-0.46875 -0.64453,-0.541992 -0.46875,0.07324 -0.46875,0.454102 v 0.219726 q 0,0.351563 0.36621,0.351563 h 0.0439 l 0.0586,-0.219727 v -0.175781 h -0.0586 q 0,0.175781 -0.13183,0.175781 h -0.0439 l -0.19043,-0.175781 v -0.131836 l 0.23438,-0.219726 h 0.23437 q 0.32227,0.190429 0.32227,0.439453 v 0.175781 q 0,0.292969 -0.42481,0.527344 -0.8789,-0.161133 -0.8789,-0.791016 0,-0.65918 0.60058,-0.9375 l 0.46875,-0.131836 q 0.92285,0.219727 0.92285,1.333008 v 0.219726 q 0,0.585938 -0.64453,0.878907 l -0.41015,0.146484 h -0.23438 q -0.82031,0 -1.24512,-1.157226 v -0.08789 q 0,-1.391602 0.9668,-1.904297 0.38086,-0.175781 0.64453,-0.175781 1.55274,0 2.3584,1.860351 0.0732,0.527344 0.23438,0.527344 0.49804,-0.629883 0.64453,-1.201172 l 0.0439,-0.04394 v -0.395508 q -0.24902,-0.673828 -0.60058,-1.054687 0,-0.322266 -0.68848,-1.157227 -0.4834,-1.318359 -1.06934,-1.640625 -0.33691,-0.336914 -0.73242,-1.069336 -1.09863,-1.12793 -1.30371,-1.186523 -0.20508,0 -0.55664,-0.219727 h -0.0439 l 0.0439,-0.234375 -0.13183,-0.131836 v -0.04394 q 0.10253,-0.219727 0.51269,-0.219727 1.25977,0.219727 1.69922,0.219727 h 1.52344 q 0.3955,0 0.65918,0.175781 -0.32227,0.424805 -0.65918,0.541992 l -0.21973,0.219727 v 0.04394 q 0.23438,0.38086 0.55664,0.65918 0,0.131836 0.27832,0.410156 0.32227,-0.688476 1.09863,-1.157226 0.62989,-0.263672 0.87891,-0.263672 h 0.36621 q 1.01074,0 1.3916,0.922851 v 0.04395 q 0,1.611328 -1.01074,1.948242 l -0.38086,0.04394 q -1.08398,0 -1.33301,-0.966797 v -0.08789 q 0,-0.922852 1.01075,-1.157227 h 0.27832 q 0.27832,0 0.55664,0.439453 v 0.454102 q 0,0.366211 -0.64453,0.615234 h -0.14649 q -0.4541,-0.08789 -0.4541,-0.439453 v -0.04395 q 0,-0.263672 0.27832,-0.454102 h 0.23437 l 0.13184,0.146484 v 0.08789 q 0,0.131836 -0.27832,0.131836 v 0.131836 l 0.0879,0.08789 h 0.14649 q 0.27832,-0.117188 0.27832,-0.351563 v -0.234375 l -0.23438,-0.263672 h -0.0879 q -0.54199,0 -0.74707,0.805664 0,0.615235 0.74707,0.615235 h 0.17578 q 0.57129,0 0.79102,-0.527344 0.13183,0 0.23437,-0.629883 -0.29297,-1.010742 -1.02539,-1.010742 -0.71777,0 -1.56738,0.74707 -0.41016,0.46875 -0.41016,0.9375 0,0.263672 0.77637,1.333008 0.73242,1.245117 0.92285,1.274414 0.43945,0 1.15723,-1.098633 0.27832,-0.205078 1.20117,-1.464844 l 1.30371,-1.157226 q 0.73242,-0.512695 0.73242,-0.966797 h -0.0439 l -0.13184,-0.131836 v -0.234375 l 0.0879,-0.131836 0.5127,0.04395 1.56738,-0.04395 q 0.4834,-0.219726 0.9668,-1.49414 0.51269,-1.289063 1.94824,-1.289063 z" />
      <path
         id="path20"
         style=""
         d="m 131.47949,77.96875 q 0.9668,0 1.66992,0.703125 0.64454,0.46875 0.64454,1.757812 0,0.454102 -0.49805,0.966797 l 1.52344,-0.08789 q 0,-0.117188 1.47949,-0.219727 0,-0.102539 0.24902,-0.131836 l 0.0879,0.08789 h 0.14649 l 0.29297,-0.175781 h 0.30761 q 0.0293,0.219726 0.14649,0.219726 l -0.10254,0.615235 V 82.1875 l 0.14648,0.571289 -0.0439,0.878906 0.0439,0.439453 q -0.19043,0.131836 -0.43945,0.131836 h -0.14649 q -0.13183,-0.05859 -0.49804,-0.615234 -0.61524,-0.556641 -1.81641,-0.791016 h -0.8789 l -0.49805,0.04395 q 0,0.820312 1.08398,1.49414 l 0.49805,0.08789 h 0.19043 q 0.11719,0 0.24902,-0.439453 -0.19043,-0.483399 -0.43945,-0.483399 l -0.24902,0.351563 0.0439,0.131836 h 0.10254 q 0,-0.263672 0.14648,-0.263672 h 0.0439 l 0.14648,0.131836 v 0.307617 l -0.19043,0.175781 h -0.35156 l -0.29297,-0.263672 v -0.351562 q 0.14649,-0.571289 0.542,-0.571289 h 0.24902 q 0.68848,0.27832 0.68848,0.791015 -0.11719,0.922852 -0.87891,0.922852 -0.92285,0 -1.875,-1.450195 -0.10254,-0.439453 -0.19043,-0.439453 h -0.49805 v 0.04395 l 0.14649,0.351562 -0.0439,0.571289 0.0439,0.307618 -0.0879,0.615234 v 0.395508 l 0.0439,0.527344 q -0.14648,0 -0.19043,1.582031 l 0.0879,2.06543 q 0.26367,0.541992 0.64453,0.703125 0.61524,0.307617 0.9375,0.307617 h 0.58594 q 1.06934,0 1.52344,-0.834961 0.13184,-0.263672 0.23437,-1.142578 -0.23437,-1.230469 -0.77636,-1.230469 -0.13184,-0.117188 -0.49805,-0.131836 h -0.29297 q -0.67383,0 -0.9375,0.878906 v 0.395508 l -0.0439,0.04395 q 0.13183,0.922852 0.98144,0.922852 h 0.0586 q 0.73242,-0.234375 0.73242,-0.834961 v -0.131836 q -0.10254,-0.527344 -0.39551,-0.527344 h -0.14649 q -0.38085,0 -0.54199,0.571289 0,0.131836 0.24903,0.395508 0.30761,-0.08789 0.33691,-0.219726 v -0.175782 h -0.0439 q 0,0.175782 -0.14648,0.175782 h -0.10254 l -0.14648,-0.131836 v -0.131836 q 0,-0.351563 0.3955,-0.351563 0.26368,0 0.43946,0.263672 v 0.351563 q 0,0.366211 -0.62988,0.527343 h -0.16114 q -0.4541,0 -0.52734,-0.615234 v -0.175781 q 0,-0.805664 1.06933,-0.922852 h 0.10254 q 0.79102,0.395508 0.79102,0.966797 v 0.395508 q -0.42481,1.098633 -1.37695,1.098633 -1.37696,-0.263672 -1.37696,-1.230469 V 88.47168 q 0,-0.9375 0.73242,-1.582032 l 0.64454,-0.175781 h 0.68847 q 0.89356,0 1.46485,1.186524 l 0.0586,0.351562 q 0,1.494141 -0.9375,2.197266 -0.19043,0.307617 -1.23047,0.351562 -1.47949,0 -2.40234,-0.351562 v 0.04394 l 0.39551,3.457031 0.62988,1.098633 0.43945,0.395508 v 0.08789 q 0,0.117187 -0.33691,0.175781 l -0.54199,-0.04395 -0.62989,0.08789 h -0.4541 l -0.14648,-0.08789 h -0.83496 l -0.14649,0.08789 h -0.0439 q -0.68848,-0.146484 -0.68848,-0.351562 v -0.175782 q 0.33691,-0.849609 0.49805,-1.713867 l -0.16114,-0.820312 v -2.197266 q -0.9375,0.395508 -1.4209,1.142578 -0.29296,0.410156 -0.48339,1.259766 v 0.131836 q 0.0879,0.615234 0.68847,0.615234 0.73242,-0.175781 0.73242,-0.703125 0,-0.263672 -0.24902,-0.512695 -0.43945,0.08789 -0.43945,0.512695 v 0.131836 h 0.0439 l 0.20508,-0.307617 h 0.0879 l 0.16114,0.131836 v 0.263672 l -0.30762,0.263672 h -0.0879 q -0.41016,0 -0.49805,-0.395508 v -0.263672 q 0,-0.410156 0.68848,-0.644531 h 0.14648 q 0.49805,0 0.64453,0.732421 0,0.908204 -0.9375,1.274415 h -0.0439 q -1.23047,0 -1.23047,-1.31836 v -0.04394 q 0.19043,-0.878906 0.62988,-1.479492 1.08399,-1.069336 1.66992,-1.142578 v -0.65918 q 0,-0.307617 -0.0879,-0.307617 l 0.0439,-0.878907 v -0.878906 l 0.0439,-2.197265 -0.0879,-0.439454 0.0439,-0.527343 -0.10254,-0.65918 0.14648,-0.131836 v -0.175781 q -0.0879,-0.102539 -0.0879,-0.307617 l -1.37695,-0.351563 h -0.9375 q -1.71387,0.219727 -1.71387,0.703125 -0.49804,0.600586 -0.49804,0.922852 l 0.0586,0.395507 -0.0586,0.395508 q 0,1.12793 1.27441,1.538086 l 0.35156,0.08789 q 1.37696,-0.08789 1.37696,-0.922852 -0.26368,-1.010742 -0.79102,-1.010742 l -0.29297,-0.04394 q -0.46875,0 -0.73242,0.659179 v 0.04395 q 0.13184,0.527344 0.58594,0.527344 0.10254,-0.01465 0.19043,-0.219727 h -0.044 l -0.10254,0.08789 h -0.0439 q -0.26368,0 -0.43946,-0.263672 v -0.351563 q 0.20508,-0.395508 0.62989,-0.395508 0.60058,0.219727 0.60058,0.527344 v 0.131836 q -0.21972,0.791016 -0.49804,0.791016 h -0.39551 q -0.41016,0 -0.87891,-0.527344 v -0.307617 q 0.14649,-1.186524 1.27442,-1.186524 0.92285,0 1.47949,1.142578 v 0.439454 q 0,0.776367 -1.43555,1.230468 h -0.29297 q -1.12793,0 -2.00683,-1.098632 -0.32227,-0.439454 -0.49805,-2.416993 l 0.0586,-0.04395 h 0.0439 l -0.10254,-0.74707 v -1.054688 l 0.10254,-0.131836 -0.14649,-0.175781 v -0.175781 q 0,-0.161133 1.52344,-0.219727 l 0.98145,0.04395 q 0,0.263671 4.51172,0.439453 h 0.0586 q 0.87891,0 0.87891,-0.307618 0.35156,-0.571289 0.35156,-1.186523 v -0.263672 q -0.4834,-1.274414 -1.37696,-1.274414 -0.86425,0 -1.12793,0.615234 v 0.08789 q 0,0.65918 0.43946,0.966797 l 0.43945,0.131836 h 0.0439 q 0.64453,-0.117188 0.64453,-0.483399 0,-0.644531 -0.58594,-0.791015 -0.23437,0 -0.39551,0.527344 0.0586,0.219726 0.14649,0.219726 0.24902,0 0.29297,-0.175781 l -0.24903,-0.219727 v -0.04395 l 0.14649,-0.131836 h 0.0586 q 0.26367,0 0.38086,0.219727 v 0.395507 q -0.19043,0.263672 -0.4834,0.263672 h -0.19043 q -0.49805,-0.08789 -0.49805,-0.439453 v -0.351562 q 0.24903,-0.541992 0.58594,-0.65918 h 0.0586 q 0.89355,0.07324 1.17187,0.966797 v 0.263672 q 0,0.512695 -0.98144,0.878906 h -0.19043 q -0.92286,0 -1.33301,-0.966797 l -0.10254,-0.263672 v -0.439453 q 0,-0.439453 0.83496,-0.878906 0.24902,-0.131836 0.54199,-0.131836 z m -4.11621,7.294922 v 0.131836 l 0.14649,-0.08789 h 0.0439 q 0.14649,0 0.14649,0.219727 h 0.0439 v -0.175782 q -0.0879,-0.205078 -0.19043,-0.219726 z" />
      <path
         id="path22"
         style=""
         d="m 147.43164,80.063477 h 0.26367 q 0.21973,0.07324 0.21973,0.571289 v 0.08789 l -0.30762,0.9375 0.13184,0.131836 v 0.04395 q -0.55664,0.366211 -0.79102,1.40625 0,0.541993 -0.61523,1.640625 h -0.0879 l -0.0879,-0.08789 q -0.16114,-1.772461 -0.5127,-1.772461 -0.20508,-0.263672 -0.92285,-0.527344 l -0.0879,-0.08789 q -0.4834,0.292968 -0.4834,1.289062 v 0.175781 q 0,0.454102 0.83496,0.703125 0.35156,-0.117187 0.35156,-0.395508 -0.0732,-0.175781 -0.13183,-0.175781 h -0.13184 l -0.0879,0.08789 q 0.17578,0.01465 0.17578,0.131836 v 0.04394 l -0.17578,0.175781 h -0.0439 q -0.23438,0 -0.35157,-0.219726 v -0.08789 q 0,-0.483398 0.65918,-0.483398 0.27832,0 0.39551,0.483398 v 0.219727 q 0,0.498047 -0.79101,0.659179 0,-0.131836 -0.26368,-0.131836 -0.83496,-0.46875 -0.83496,-1.450195 0.11719,-0.615234 0.35157,-1.157226 l -0.61524,-0.131836 h -0.26367 l -0.13184,0.08789 q 0.30762,0.629883 0.30762,0.834961 v 0.175781 q -0.10254,1.201172 -0.83496,1.201172 -0.82031,0 -0.95215,-0.571289 l -0.0879,-0.351562 v -0.278321 q 0.32227,-0.615234 0.70313,-0.615234 h 0.26367 q 0.27832,0 0.33691,0.849609 v 0.08789 l -0.26367,0.263672 h -0.29297 l -0.17578,-0.175781 v -0.219727 l 0.17578,-0.19043 h 0.044 q 0.13183,0 0.13183,0.234375 h 0.0439 v -0.234375 q 0,-0.146484 -0.13184,-0.307617 -0.27832,0 -0.43945,0.629883 0.14648,0.439453 0.4834,0.439453 h 0.16113 q 0.35156,0 0.43945,-0.483398 0,-1.025391 -1.04004,-1.508789 0,-0.131836 -0.0879,-0.131836 h -0.17578 q -0.13183,0 -0.26367,0.483398 -0.33691,0 -0.57129,1.201172 v 0.04394 l 0.0879,0.351563 -0.0439,1.274414 0.13183,0.629883 -0.0879,0.08789 v 0.08789 q 0,0.219727 0.26367,0.571289 0.29297,-0.292969 0.65918,-0.351562 0.11719,-0.219727 0.52735,-0.483399 v -0.04394 Q 142.2168,85.27832 141.87988,85.27832 h -0.26367 q -0.17578,0.07324 -0.17578,0.307617 0.0293,0.234375 0.13184,0.234375 h 0.0879 l 0.0879,-0.08789 v -0.05859 q -0.21973,0 -0.21973,-0.131836 v -0.04394 l 0.13184,-0.131836 h 0.21972 l 0.21973,0.219726 v 0.08789 q 0,0.366211 -0.52734,0.498047 -0.43946,-0.19043 -0.43946,-0.498047 v -0.219726 q 0,-0.234375 0.35156,-0.483399 h 0.43946 q 0.51269,0 0.86426,0.761719 l 1.31836,-0.454102 h 0.43945 l 0.4834,0.175782 -0.0439,0.541992 v 0.307617 q 0,0.541992 0.30762,1.230469 l 0.0879,0.527343 q 0,0.307618 -0.21973,0.454102 h -0.17578 q -0.0879,0 -0.52734,-0.849609 -0.23438,0 -0.26367,-0.395508 h -0.57129 q -0.39551,0.659179 -0.39551,0.893554 v 0.439454 q 0.20508,0.703125 0.65918,0.703125 0.43945,-0.161133 0.43945,-0.263672 v -0.175782 q -0.0732,-0.395507 -0.35156,-0.395507 -0.17578,0.04394 -0.17578,0.219726 l 0.0439,0.04395 h 0.0439 l 0.13183,-0.131836 h 0.0439 q 0.17578,0.07324 0.17578,0.307617 v 0.04394 l -0.17578,0.175781 h -0.26367 q -0.32227,0 -0.4834,-0.439453 0,-0.527344 0.39551,-0.717773 0.96679,0.08789 0.96679,0.673828 v 0.175781 q 0,0.541992 -0.48339,0.834961 h -0.35157 q -0.58593,0 -0.92285,-0.791016 l -0.0439,-0.659179 0.21972,-0.981446 h -0.0439 q -0.61524,0 -1.30371,1.113282 -0.20508,0 -0.26368,0.966797 -0.36621,0.512695 -0.43945,0.878906 l 0.26367,1.333008 0.65918,-0.922852 q 0.542,-0.454101 1.12793,-0.454101 1.01075,0.205078 1.01075,1.02539 l 0.0439,0.439453 q 0,0.629883 -0.83496,0.966797 h -0.17578 q -0.9082,-0.08789 -0.9082,-0.65918 v -0.307617 q 0,-0.322265 0.51269,-0.74707 h 0.17578 q 0.61524,0.146484 0.61524,0.527344 v 0.219726 q 0,0.234375 -0.35157,0.483399 h -0.17578 q -0.35156,0 -0.35156,-0.351563 v -0.131836 l 0.21973,-0.219726 h 0.0439 l 0.13184,0.131836 v 0.08789 l -0.0879,0.131836 h 0.0879 q 0.13183,-0.0293 0.13183,-0.351562 l -0.17578,-0.175782 h -0.17578 q -0.0586,0 -0.30762,0.439454 0.10254,0.571289 0.57129,0.571289 h 0.17578 q 0.39551,-0.292969 0.39551,-0.747071 0,-0.834961 -0.74707,-0.834961 h -0.0879 q -0.62988,0 -1.21582,1.186524 l -0.0879,0.74707 q 0.30762,1.113281 0.74707,1.113281 l 0.55664,0.04395 h 0.43945 q 0.16114,-0.131836 0.30762,-0.131836 h 0.9668 q 0.26367,0 0.4834,-0.219727 h 0.35156 q 0.86426,-0.146484 0.86426,-0.805664 v -0.395508 l 0.0439,-0.04395 q -0.10254,-1.142578 -0.55664,-1.142578 l -0.21972,-0.04395 q -0.35157,0 -0.43946,0.615234 0.0586,0.263672 0.30762,0.263672 0.21973,-0.05859 0.21973,-0.307617 l -0.044,-0.04395 h -0.0439 q 0,0.175782 -0.13184,0.175782 h -0.044 l -0.17578,-0.175782 v -0.131836 l 0.21973,-0.219726 h 0.30762 l 0.29297,0.307617 V 91.5625 q 0,0.424805 -0.60059,0.615234 h -0.17578 q -0.38086,0 -0.52735,-0.571289 0,-0.834961 0.79102,-0.966797 h 0.4248 l 0.4834,0.307618 q 0,-0.410157 0.17578,-0.410157 h 0.17579 q 0.65918,0.131836 0.65918,0.498047 l -0.13184,1.010742 q 0.19043,1.274414 0.30762,1.552735 v 0.04394 l -0.0439,0.04394 v 0.04395 l 0.0879,0.08789 -0.0879,0.08789 q 0.32227,0.46875 0.61524,1.186523 0.21972,0.205079 0.21972,0.454102 h -1.66992 l -0.21973,0.04394 v 0.04395 q 0.68848,0 0.74707,0.351562 l 0.0879,0.08789 v 0.483398 q -0.10253,0.527344 -0.52734,0.527344 h -0.39551 q -0.9082,-0.322266 -0.9082,-0.922852 v -0.527343 l 0.0439,-0.04395 v -0.04394 L 142.23145,95.3125 h -1.05469 q -0.11719,0.205078 -0.9668,0.322266 h -0.52734 l -0.4834,-0.04395 -0.11719,0.04395 -0.0879,-0.131836 v -0.146485 q 0.5127,-1.113281 0.5127,-1.801758 l -0.044,-0.175781 v -0.04394 l 0.0879,-0.131836 v -0.541992 q 0,-0.219727 -0.17578,-0.483399 l 0.0439,-0.307617 q 0,-1.49414 -0.29297,-2.43164 v -0.04395 l 0.11718,-0.703125 v -0.263672 l 0.17579,-0.673828 q -0.0733,0 -0.21973,-0.527344 v -0.175781 l 0.0439,-0.439453 q -0.13183,0 -0.20507,-0.571289 v -0.263672 l 0.0439,-0.498047 -0.21973,-0.922851 v -1.054688 q 0,-1.069336 -1.05468,-1.948242 -0.11719,-0.249023 -0.26367,-0.263672 v -0.08789 q 0,-0.205079 0.61523,-0.278321 l 0.70312,0.04395 0.33692,-0.08789 h 0.30762 l 0.0879,0.08789 0.13183,-0.08789 0.13184,0.04394 0.9668,-0.04394 h 0.83496 l 0.3955,0.131836 1.25977,-0.04394 h 0.35156 l 0.21973,-0.04395 0.26367,0.04395 h 0.61523 q 2.22657,-0.08789 2.22657,-0.395508 z m -1.3623,15.878906 -0.0879,0.219726 q 0,0.527344 0.65917,0.571289 0.35157,-0.0293 0.35157,-0.351562 0,-0.351563 -0.39551,-0.351563 h -0.0879 v 0.08789 h -0.0439 l 0.0439,0.131836 0.0439,-0.04394 h 0.0879 l 0.13184,0.131836 v 0.08789 l -0.13184,0.131836 h -0.13183 q -0.39551,-0.131836 -0.39551,-0.395508 v -0.219726 z" />
      <path
         id="path24"
         style=""
         d="m 168.39355,78.041992 q 1.12793,0 1.49415,0.893555 v 0.219726 q -0.11719,1.069336 -1.06934,1.069336 -1.4209,0 -1.58203,-0.732422 v -0.249023 q 0,-0.571289 1.11328,-0.644531 0.62988,0 0.74707,0.644531 V 79.375 l -0.32227,0.249023 h -0.4248 l -0.21973,-0.175781 v -0.205078 l 0.16114,-0.131836 h 0.10253 q 0.16114,0 0.16114,0.219727 l 0.11718,-0.08789 q 0,-0.234375 -0.21972,-0.307617 h -0.26367 q -0.45411,0 -0.58594,0.512695 0.19043,0.439453 1.06933,0.439453 0.62989,0 0.79102,-0.732422 -0.11719,-0.732421 -0.9082,-0.732421 -0.95215,0 -2.49024,0.952148 l -0.64453,1.40625 q 0,0.27832 -0.20508,0.483398 v 0.424805 q -0.16113,0.161133 -0.16113,0.732422 l 0.0586,0.04394 v 0.04395 q -0.48339,1.523437 -0.48339,2.62207 l 0.16113,0.336914 -0.10254,0.08789 v 0.08789 q 0.10254,0.249024 0.16113,1.113281 l -0.0586,0.424805 0.0586,0.483399 -0.11718,0.205078 0.0586,1.552734 v 0.08789 l -0.10254,1.02539 v 0.46875 l 0.4248,1.040039 v 0.161133 l -0.0586,1.12793 q 0.41016,2.021484 1.27441,2.021484 0.32227,0.205078 0.84961,0.205078 l 0.0586,0.04395 v 0.219726 l -0.16113,0.131836 h -0.52735 l -2.28515,-0.131836 -2.34375,0.04395 -0.10254,-0.131836 v -0.175782 q 0,-0.146484 0.52734,-0.205078 l 0.4248,-2.065429 0.16114,-0.219727 V 92.69043 l -0.10254,-0.08789 0.0439,-0.864258 v -0.9375 l 0.16114,-2.490234 q -0.16114,-1.464844 -0.52735,-2.53418 l -0.16113,-0.08789 h -0.16113 q -0.23438,0 -1.11328,1.450195 -0.11719,0 -0.26368,0.351562 1.91895,1.025391 1.91895,2.402344 0,0.908203 -0.74707,1.201172 l -0.42481,0.08789 q -1.80175,-0.19043 -1.80175,-0.820313 v -0.117187 l 0.0439,-0.04395 -0.0439,-0.04394 v -0.08789 q 0,-0.761718 0.99609,-1.245117 h 0.4834 q 0.68848,0.46875 0.68848,1.069336 -0.13184,0.644531 -0.79102,0.644531 h -0.26367 l -0.38086,-0.292968 v -0.263672 q 0.0732,-0.424805 0.4834,-0.424805 h 0.16113 l 0.20508,0.161133 v 0.175781 l -0.16114,0.131836 h -0.0439 l -0.21973,-0.131836 v 0.08789 l 0.0586,0.219726 h 0.26367 q 0.11719,0 0.26367,-0.307617 -0.23437,-0.644531 -0.58594,-0.644531 -0.23437,0 -0.73242,0.864258 0,0.55664 0.95215,0.644531 h 0.58594 q 0.52734,-0.263672 0.52734,-0.820313 v -0.292968 q 0,-0.366211 -1.17187,-1.508789 l -0.52735,-0.307618 -0.32226,0.483399 0.0586,0.117187 -0.16113,0.08789 0.0586,0.04394 v 0.08789 Q 160,88.94043 159.75098,89.02832 q -0.84961,1.010742 -0.84961,1.333008 -0.0732,0.01465 -0.64453,1.12793 -0.24903,0.07324 -0.74707,0.512695 l -0.26368,0.04394 q -1.17187,-0.380859 -1.17187,-1.083984 -0.41016,-0.410156 -0.57129,-0.761719 -0.21973,-0.05859 -0.58594,-0.688476 -0.76172,-0.351563 -1.53808,-1.245117 h -0.0586 v 0.04394 q 0,0.263672 0.62989,1.245117 0.21972,0.688477 0.21972,1.289063 v 0.161132 q 0,0.571289 -1.17187,0.908203 h -0.52735 q -0.64453,-0.263671 -0.64453,-0.820312 v -0.131836 q 0,-0.644531 0.64453,-0.849609 h 0.52735 q 0.32226,0.146484 0.32226,0.688476 v 0.08789 q 0,0.46875 -0.4834,0.46875 h -0.30761 l -0.27832,-0.131836 v 0.04394 q 0,0.219727 0.58593,0.336914 h 0.11719 q 0.79102,-0.234375 0.79102,-0.981445 v -0.219727 q 0,-0.600586 -0.58594,-1.245117 l -0.52734,-1.669922 q -0.80567,-0.659179 -1.01075,-1.113281 l -0.36621,-0.131836 v 0.292969 q 0.26367,0 0.30762,1.977539 l 0.11719,0.131836 q -0.0732,1.552734 -0.21973,1.552734 l 0.0586,0.336914 -0.0586,1.464844 q 0,0.366211 0.64453,2.06543 0.4834,0.878906 1.31836,1.113281 l 0.74707,0.175781 h 0.20508 q 1.97754,0 2.28516,-1.245117 v -0.263672 q -0.27832,-0.952148 -1.15723,-0.952148 l -0.0586,-0.04395 h -0.0586 q -1.01074,0 -1.01074,0.864258 0,0.454102 0.80566,0.512696 0.42481,0 0.58594,-0.424805 -0.14648,-0.424805 -0.32226,-0.424805 -0.21973,0 -0.36622,0.161133 l 0.0439,0.131836 h 0.0586 q 0,-0.249023 0.16114,-0.249023 h 0.10254 l 0.16113,0.117187 v 0.08789 q 0,0.336914 -0.26367,0.439453 h -0.21973 q -0.29297,0 -0.46875,-0.263672 v -0.263672 q 0.0586,-0.556641 0.52734,-0.556641 h 0.044 q 1.06934,0 1.06934,0.600586 v 0.08789 q 0,0.644531 -0.64454,0.908203 h -0.73242 q -0.67383,0 -0.96679,-0.908203 v -0.292969 q 0,-0.512695 1.01074,-0.952148 h 0.4834 q 0.96679,0.205078 1.47949,0.864258 l 0.16113,0.644531 v 0.336914 q -0.33691,0.864258 -1.21582,1.245117 -0.77637,0.219727 -1.64062,0.263672 -0.61524,0 -1.75782,-0.351563 l -0.0586,0.04395 v 0.04394 l -0.89356,-0.08789 h -0.0586 l -0.68848,0.175782 -0.79101,-0.131836 h -0.21973 q -0.26367,0.01465 -0.26367,0.08789 -1.11328,-0.08789 -1.11328,-0.205078 0,-0.190429 0.46875,-0.732422 l 0.21973,-0.688476 0.20507,-0.864258 v -0.424805 l 0.11719,-0.131836 v -0.04394 l -0.11719,-0.336914 v -0.688477 l 0.16114,-0.688476 -0.0439,-1.464844 0.0439,-0.600586 -0.0439,-1.889648 v -0.600586 q -0.16113,-0.146485 -0.16113,-0.424805 l 0.16113,-0.527344 v -0.336914 l -0.11719,-0.131836 v -0.732421 l -0.14648,-0.424805 0.0439,-1.201172 q -0.46875,-1.420898 -0.79101,-1.420898 -0.32227,-0.278321 -0.32227,-0.46875 v -0.131836 l 0.21973,-0.175782 h 0.30762 l 0.64453,0.395508 q 0,-0.629883 0.84961,-0.996094 l 0.32226,-0.04394 h 0.0439 q 1.23047,0 1.23047,1.040039 -0.32227,0.46875 -0.90821,0.46875 -0.74707,-0.117187 -0.74707,-0.46875 V 80.3125 q 0.14649,-0.263672 0.68848,-0.263672 l 0.21973,0.263672 v 0.08789 l -0.16114,0.131836 h -0.0586 l -0.20508,-0.131836 -0.10254,0.131836 v 0.04394 q 0,0.117187 0.52735,0.161133 0.16113,0 0.26367,-0.38086 0,-0.336914 -0.58594,-0.424804 h -0.20508 q -0.54199,0 -0.74707,0.644531 v 0.04394 q 0.0439,0.46875 0.46875,0.46875 1.55274,1.098633 1.55274,1.713867 0.43945,0.395508 1.21582,1.684571 h 0.0586 q 0,-1.025391 1.21582,-2.021485 0.62988,-0.439453 2.02149,-0.439453 0.83496,0 1.21582,0.864258 l 0.10254,0.820312 q -0.35157,1.025391 -1.21582,1.025391 l -0.32227,0.04394 h -0.10254 q -0.76172,0 -1.06934,-0.820312 v -0.205078 q 0,-0.600586 1.01075,-0.996094 h 0.26367 q 0.33691,0 0.58594,0.307617 v 0.600586 q 0,0.27832 -0.42481,0.46875 h -0.20508 q -0.43945,0 -0.52734,-0.46875 0.0293,-0.351562 0.4248,-0.351562 h 0.0439 l 0.16113,0.131836 v 0.04395 q 0,0.131836 -0.20508,0.131836 v 0.08789 h 0.10254 l 0.26368,-0.219726 -0.10254,-0.336914 q -0.84961,0.117187 -0.84961,0.688476 0.24902,0.46875 0.68847,0.46875 0.89356,-0.161132 0.89356,-0.644531 l 0.0586,-0.175781 v -0.424805 q 0,-0.600586 -1.01074,-0.600586 v -0.04394 q -0.80566,0 -1.64063,0.600586 -0.73242,0.922851 -0.8496,1.801758 0,0.571289 0.74707,1.201172 0.57128,0.322265 1.37695,1.464843 0.54199,0.439453 1.21582,1.420899 0.26367,0.07324 0.26367,0.380859 l 0.0586,0.04395 h 0.0586 q 0.51269,-0.849609 0.84961,-1.113281 0.73242,-0.966797 0.73242,-1.083984 -1.96289,-0.585938 -1.96289,-1.289063 v -0.249023 q 0,-0.556641 0.74707,-1.245117 l 0.62988,-0.131836 h 0.42481 q 0.79101,0.102539 0.84961,1.069336 0,0.996093 -1.05469,0.996093 h -0.26367 q -0.64453,-0.322265 -0.64453,-0.600585 v -0.175782 q 0.21972,-0.600586 0.68847,-0.600586 h 0.21973 q 0.20508,0.08789 0.36621,0.336914 v 0.307618 l -0.20508,0.175781 h -0.26367 l -0.21973,-0.175781 v -0.04395 q 0,-0.117187 0.26367,-0.131836 l -0.0439,-0.131836 h -0.21973 q 0,0.131836 -0.16113,0.219727 0,0.424805 0.9082,0.424805 0.20508,-0.249024 0.20508,-0.38086 v -0.263672 q -0.14648,-0.659179 -0.62988,-0.732421 -1.01074,0 -1.01074,1.083984 0,0.395508 0.79101,0.9375 l 0.80567,0.263672 q 0.4248,-0.46875 0.89355,-1.801758 0,-0.219727 0.58594,-0.864258 0.83496,-1.274414 1.43555,-1.669922 0.43945,-0.351562 0.80566,-0.952148 0.60059,-0.292969 1.74316,-1.113281 0.58594,0 1.06934,-0.996094 1.11328,-1.362305 2.85644,-1.362305 z m -16.02539,12.714844 v 0.04394 l 0.044,-0.04394 h 0.16113 q 0.16113,0 0.16113,0.161133 l -0.0586,0.131836 h 0.0586 l 0.21973,-0.131836 -0.11719,-0.46875 q -0.30761,0 -0.46875,0.307617 z" />
      <path
         id="path26"
         style=""
         d="m 171.93848,77.880859 h 0.24902 q 1.04004,0 1.33301,0.571289 l 0.19043,0.278321 v 0.46875 q -0.29297,0.849609 -0.73242,0.849609 0,0.08789 -0.49805,0.08789 -1.04004,-0.205078 -1.04004,-0.703125 v -0.04395 q 0,-0.996093 0.98144,-0.996093 0.55665,0.205078 0.55665,0.615234 0,0.615234 -0.64454,0.615234 -0.4541,-0.102539 -0.4541,-0.380859 h -0.0439 v 0.102539 q 0,0.263672 0.83496,0.410156 0.41015,0 0.64453,-0.893554 -0.30762,-0.600586 -0.89356,-0.600586 h -0.19042 q -1.08399,0.190429 -1.08399,0.791015 v 0.05859 q 0,0.966797 1.58203,1.728516 0.84961,0.190429 2.16797,0.234375 0,0.161133 0.84961,0.292968 0,0.07324 0.33691,0.131836 1.39161,1.069336 1.39161,1.699219 0.14648,0.585938 0.14648,1.025391 v 1.655273 q 0,0.483399 -0.54199,1.362305 -0.79102,1.069336 -2.3291,1.59668 -0.49805,0.190429 -0.74707,0.190429 l -1.62598,-0.04394 -0.0439,-0.05859 q -0.4541,0.483399 -0.4541,1.230469 0,0.981445 1.04004,1.12793 h 0.20508 q 0.83496,0 0.83496,-0.996094 0,-0.366211 -0.74707,-0.556641 -0.68848,0.117188 -0.68848,0.615235 0,0.249023 0.49805,0.27832 h 0.0439 q 0.20507,-0.07324 0.20507,-0.336914 l -0.0586,-0.04395 h -0.0439 q 0,0.234375 -0.14649,0.234375 h -0.14648 l -0.14649,-0.131836 v -0.292969 l 0.24903,-0.234375 h 0.23437 q 0.27832,0 0.49805,0.336914 v 0.27832 q 0,0.615235 -0.68848,0.615235 h -0.14648 q -0.74707,-0.19043 -0.74707,-0.615235 v -0.27832 q 0.32226,-0.9375 0.99609,-0.9375 1.47949,0.322266 1.47949,1.171875 v 0.131836 q 0,1.010742 -1.43554,1.230469 -0.67383,0 -1.43555,-0.703125 -0.29297,-0.717774 -0.29297,-1.230469 v -0.04395 q 0,-0.351563 0.19043,-0.9375 h -0.044 L 171.00098,88.75 v 0.04394 l 0.0879,0.556641 -0.0879,0.65918 0.0439,0.893554 v 0.102539 q -0.14648,0.84961 -0.14648,1.875 v 0.747071 l 0.0439,0.292968 -0.0439,0.131836 q 0.36621,1.040039 1.08398,1.31836 l 0.43945,0.146484 h 0.10254 q 1.24512,-0.336914 1.24512,-1.12793 v -0.102539 q -0.16113,-0.74707 -0.79101,-0.74707 h -0.20508 q -0.64453,0.263672 -0.64453,0.791016 0.27832,0.292968 0.49804,0.292968 0.35157,0 0.35157,-0.380859 l -0.0586,-0.04394 -0.33691,0.27832 h -0.0586 l -0.14648,-0.146484 v -0.175782 q 0.19043,-0.336914 0.74707,-0.336914 0.29297,0.351563 0.29297,0.571289 v 0.278321 q -0.0439,0.117187 -0.49805,0.424804 h -0.24902 q -0.9375,-0.234375 -0.9375,-0.893554 v -0.146485 q 0.33691,-0.849609 0.89355,-0.849609 h 0.35157 q 1.333,0.117187 1.333,1.274414 v 0.102539 q 0,1.289063 -1.83105,1.68457 -0.41016,0 -1.72852,-0.615234 l -2.47558,-0.08789 v -0.04394 q 0.49804,-1.479492 0.49804,-1.787109 v -1.12793 l 0.0879,-0.761719 v -0.600586 l 0.0586,-1.040039 -0.14649,-2.109375 0.044,-0.190429 -0.10254,-0.571289 v -1.31836 l 0.10254,-0.74707 v -0.146485 l -0.20508,-2.534179 v -0.556641 l -0.23437,-0.893555 q 0.35156,-0.307617 0.58593,-0.380859 0,-0.146484 0.20508,-0.146484 l 0.0879,-0.46875 q -0.21972,-0.9375 -0.68847,-0.9375 l -0.19043,-0.146485 q -0.60059,0 -0.60059,0.805664 l 0.43945,0.146485 0.0586,-0.05859 v -0.131836 q -0.29297,0 -0.29297,-0.146484 v -0.08789 q 0.11719,-0.234375 0.39551,-0.234375 h 0.0439 l 0.29297,0.27832 v 0.234375 q 0,0.38086 -0.58594,0.556641 h -0.0586 q -0.68848,-0.219727 -0.68848,-0.46875 v -0.512695 q 0,-0.46875 0.83496,-0.703125 h 0.30762 q 0.57129,0 0.83496,0.55664 0.39551,0.791016 0.39551,1.362305 l 0.49805,-0.04394 1.14257,0.190429 h 0.29297 q -1.09863,-0.791015 -1.09863,-1.875 0.13184,-0.761718 0.49805,-0.761718 0.41015,-0.249024 0.84961,-0.278321 z m 0,1.171875 v 0.05859 q 0.20507,-0.19043 0.3955,-0.19043 l 0.0879,0.278321 q 0.16114,-0.04395 0.16114,-0.278321 l -0.16114,-0.146484 h -0.0879 q -0.23437,0 -0.3955,0.27832 z m -0.9961,5.551758 v 0.981445 l 0.10254,0.38086 v 0.102539 l -0.0439,0.791016 0.8789,0.27832 h 0.30762 q 0.23437,-0.08789 0.29297,-0.981445 0,-0.307618 -0.64453,-0.512696 -0.14649,0.161133 -0.14649,0.322266 0.0439,0.512695 0.19043,0.512695 h 0.14649 v -0.08789 q 0,-0.07324 -0.19043,-0.146485 l -0.0439,-0.04394 v -0.08789 l 0.14649,-0.146484 h 0.19043 l 0.24902,0.234375 v 0.424805 q -0.13184,0.234375 -0.39551,0.234375 -0.65918,0 -0.83496,-0.84961 0.10254,-0.74707 0.79102,-0.74707 h 0.19043 q 0.36621,0.161133 0.74707,0.74707 -0.0586,0.776367 -0.20508,1.12793 h 0.99609 q 0.62988,0 1.33301,-0.600586 0.60059,-0.629883 0.60059,-1.186524 v -0.512695 q 0,-1.157226 -0.70313,-1.508789 -0.19043,-0.483398 -0.9375,-0.791016 l -0.43945,-0.146484 q 0.98144,0.878906 0.98144,1.743164 -0.10254,0 -0.14648,0.556641 -0.5127,0.805664 -1.14258,0.805664 -1.4209,-0.205078 -1.4209,-1.040039 v -0.175781 q 0.29297,-0.952149 1.02539,-0.952149 h 0.10254 q 0.57129,0 0.74707,0.65918 v 0.190429 q 0,0.46875 -0.68847,0.615235 -0.45411,-0.07324 -0.45411,-0.424805 0.0586,-0.380859 0.20508,-0.380859 h 0.19043 l 0.14649,0.146484 v 0.08789 l -0.0879,0.146484 h 0.0879 l 0.20507,-0.27832 q -0.10253,-0.27832 -0.20507,-0.27832 h -0.4834 q -0.11719,0 -0.30762,0.512695 0.26367,0.498047 0.54199,0.615234 h 0.30762 q 0.83496,-0.249023 0.83496,-0.805664 v -0.234375 q 0,-0.483398 -0.74707,-1.318359 l -0.54199,-0.19043 q -0.62988,0.205078 -1.47949,1.12793 z" />
      <path
         id="path28"
         style=""
         d="m 185.45898,80.957031 0.73243,0.336914 q 0,0.131836 0.23437,0.131836 0.29297,0.249024 1.30371,0.673828 1.06934,0.483399 1.21582,0.761719 0.55664,0.410156 0.82031,0.9375 1.11329,0.820313 1.11329,1.098633 0.35156,0.541992 0.62988,1.567383 l -0.0586,0.512695 0.10253,0.08789 v 0.46875 l 0.19043,0.834961 v 0.307617 q -0.43945,0.893554 -0.43945,1.655273 -0.52734,0.351563 -1.01074,1.860352 -0.39551,1.479492 -0.9668,1.479492 -1.14258,0.629883 -2.12402,1.362305 -0.84961,0.46875 -1.4502,0.46875 h -0.52734 l -0.39551,-0.04395 -0.38086,0.04395 h -0.38086 q -0.54199,0 -1.45019,-0.219727 -0.65918,0 -0.92285,-0.336914 -0.14649,-0.117187 -0.77637,-0.249023 l -0.19043,-0.131836 h -0.0439 l -0.14648,0.08789 h -0.044 q -0.0879,-0.46875 -0.48339,-0.46875 -0.0293,-0.146484 -0.77637,-0.717773 l -0.19043,-0.249024 q 0,-0.102539 -0.24902,-0.263671 0,-0.336915 -0.23438,-0.512696 0,-0.249023 -0.39551,-0.922851 l -0.52734,-1.274414 0.19043,-1.274414 0.0439,-0.04395 h 0.0586 l -0.0586,-0.205078 v -0.04394 q 0,-0.498047 0.20508,-0.9375 l -0.14648,-0.08789 0.0879,-0.336914 -0.0439,-0.04394 v -0.04395 l 0.38086,-1.391601 q 0.58594,-0.322266 0.58594,-0.761719 0.35156,-0.615234 0.52734,-0.732422 l 0.14649,-0.117187 -0.0439,-0.292969 q 0.14649,0 0.19043,-0.395508 0.10254,0 0.62988,-0.717773 0.35157,0 0.71778,-0.46875 1.61133,-0.864258 2.03613,-0.966797 l 1.25977,-0.380859 0.23437,0.04394 h 0.43945 z m -1.34765,2.285156 v 0.131836 q 0.92285,0.527344 0.92285,1.948243 -0.27832,1.435546 -1.59668,1.435546 -1.11328,0 -1.11328,-1.186523 0.39551,-0.922852 1.11328,-0.922852 0.61523,0 0.82031,0.761719 v 0.336914 q 0,0.219727 -0.39551,0.46875 h -0.48339 q -0.42481,-0.205078 -0.42481,-0.512695 0,-0.161133 0.33692,-0.380859 h 0.19043 l 0.24902,0.219726 v 0.07324 l -0.14649,0.131836 h -0.0586 l -0.14648,-0.08789 v 0.04394 q 0.0439,0.117187 0.24902,0.219727 h 0.10254 q 0.13183,0 0.13183,-0.38086 h 0.0586 q 0,-0.498047 -0.67383,-0.55664 l -0.43945,0.55664 v 0.249024 q 0,0.585937 0.71777,0.585937 0.65918,0 1.06934,-0.834961 l 0.0439,-0.732422 q -0.4248,-1.303711 -1.30371,-1.303711 0,-0.117187 -0.71777,-0.175781 h -0.0586 q -0.67382,0.351563 -1.20117,1.230469 -0.74707,0.55664 -1.40625,2.080078 -0.23437,0.600586 -0.23437,0.893555 v 0.07324 l 0.0439,0.175781 -0.14648,1.142578 q 0,0.688477 0.67383,1.655274 0.0293,0.249023 0.14648,0.249023 l 1.11328,-1.640625 q 0.89356,-0.688476 1.78711,-0.688476 h 0.10254 q 1.91895,0 2.41699,1.523437 v 0.08789 q 0,1.538086 -0.92285,1.831054 l -0.82031,0.117188 q -1.3916,0 -1.64063,-1.142578 v -0.336914 q 0.33692,-1.230469 1.3916,-1.230469 h 0.10254 q 0.58594,0 1.06934,0.849609 v 0.249024 q 0,0.703125 -0.43945,0.849609 l -0.38086,0.131836 h -0.20508 q -0.76172,-0.219727 -0.76172,-0.600586 0.0879,-0.717773 0.57129,-0.717773 h 0.10254 q 0.4248,0.05859 0.4248,0.380859 V 90.625 q -0.16113,0.249023 -0.4248,0.249023 l -0.14649,-0.117187 v -0.04395 l 0.19043,-0.219727 h -0.19043 l -0.10254,0.307617 v 0.0293 q 0,0.117188 0.39551,0.175781 0.42481,-0.131836 0.42481,-0.380859 v -0.04394 q 0,-0.805664 -0.62989,-0.805664 -0.60058,0 -0.86425,0.629882 l -0.0439,0.395508 q 0.19043,0.527344 0.57129,0.673828 l 0.62988,0.08789 q 1.15723,-0.146484 1.15723,-1.025391 v -0.08789 q 0,-0.512696 -0.67383,-1.259766 l -0.71777,-0.307617 h -0.58594 q -1.20117,0.336914 -1.20117,0.46875 -1.02539,1.098633 -1.02539,2.124023 l -0.0439,0.249024 q 0,0.791015 0.92285,1.40625 0.13184,0.249023 1.39161,0.585937 0,0.08789 0.73242,0.175782 l 0.77637,-0.131836 0.4248,0.04395 q 0.67383,0 1.99219,-0.629883 0.14648,-0.205078 0.86426,-0.644531 0.60058,-0.46875 0.67382,-1.098633 0.19043,-0.08789 0.19043,-0.673828 0.33692,-0.9375 0.4834,-1.831055 -0.0879,0 -0.0879,-0.46875 -0.14648,-0.322265 -0.14648,-0.585937 0,-0.893555 -1.4502,-1.069336 -1.74316,0.219726 -1.74316,1.49414 0.43945,0.629883 0.77636,0.629883 1.04004,0 1.40625,-0.761719 -0.21972,-0.717773 -0.68847,-0.717773 -0.38086,0 -0.52735,0.512695 l 0.044,0.249024 q 0.29297,-0.08789 0.29297,-0.175781 v -0.07324 q -0.19043,0 -0.19043,-0.131836 v -0.08789 l 0.14648,-0.131836 h 0.0439 q 0.43945,0.08789 0.43945,0.219726 v 0.08789 q 0,0.380859 -0.4834,0.585938 h -0.33691 q -0.39551,-0.175782 -0.39551,-0.673829 v -0.04394 q 0.36621,-0.673828 0.9668,-0.673828 h 0.0586 q 0.9668,0.263672 0.9668,0.878906 v 0.351563 q -0.4541,0.922851 -1.69922,0.922851 -0.9082,0 -1.30371,-1.142578 0,-0.922851 0.52734,-1.142578 0.86426,-0.556641 1.88965,-0.556641 0.71777,0.146485 1.25977,0.600586 v -0.04395 q -0.29297,-0.263672 -0.43946,-1.567383 -0.70312,-1.49414 -1.59668,-1.743164 l -0.76172,0.04395 q -0.23437,0 -0.58593,-0.55664 h -0.14649 l -0.19043,0.04394 -0.62988,-0.161133 q -0.82031,0.102539 -0.82031,0.205078 z" />
      <path
         id="path30"
         style=""
         d="m 194.43848,79.492187 h 0.33691 q 0.80566,0.263672 0.80566,0.84961 l 0.14649,0.234375 0.84961,-0.102539 q 1.09863,0 2.34375,0.996094 0.60058,0.864257 1.18652,0.864257 h 0.0879 q 0.52735,0 1.05469,-1.274414 v -0.131836 q 0,-0.585937 -0.9082,-0.761718 -0.95215,0 -0.95215,0.849609 0.11719,0.322266 0.46875,0.541992 0.71777,-0.146484 0.71777,-0.498047 v -0.08789 q -0.27832,-0.219727 -0.46875,-0.219727 h -0.0586 q -0.0732,0 -0.13184,0.219727 l 0.0439,0.04394 h 0.0439 l 0.29297,-0.04394 0.0879,0.131836 v 0.05859 l -0.23437,0.219727 h -0.14649 q -0.43945,0 -0.52734,-0.629883 0.16113,-0.410156 0.52734,-0.410156 h 0.23438 q 0.46875,0 0.71777,0.673828 V 81.25 q 0,0.205078 -0.65918,0.673828 h -0.57129 q -0.76172,-0.395508 -0.76172,-1.083984 0,-0.761719 0.89356,-1.083985 l 0.29297,-0.04395 q 1.25976,0 1.52343,1.12793 0,1.420898 -1.333,2.607422 l -0.33692,0.102539 h -0.80566 q -0.80567,0 -2.05078,-0.776368 l -0.84961,-0.175781 -0.0879,0.08789 h -0.43946 q -0.57128,0.249023 -0.65918,0.498047 v 0.263672 q 0.19043,0.585937 0.80567,0.585937 0.38086,-0.161133 0.38086,-0.439453 v -0.08789 q -0.19043,-0.322265 -0.27832,-0.322265 -0.29297,0 -0.29297,0.263672 v 0.05859 h 0.10254 q 0.0146,-0.190429 0.13183,-0.190429 h 0.0586 l 0.13183,0.131836 v 0.146484 q -0.14648,0.263672 -0.51269,0.263672 -0.29297,-0.219727 -0.29297,-0.410156 v -0.263672 q 0.21973,-0.410157 0.57129,-0.410157 0.84961,0.19043 0.84961,0.673829 v 0.05859 q -0.10254,0.84961 -0.80567,0.84961 h -0.19043 q -1.23046,-0.307617 -1.23046,-1.171875 h -0.0439 q 0,0.146484 -0.33691,0.629883 l -0.0879,0.410156 q 0.0879,0.205078 0.0879,0.585937 v 0.307617 l -0.0439,0.04395 0.0439,0.04394 v 0.146484 l -0.0879,0.131836 v 0.366211 l 0.0879,0.131836 v 0.307617 l 0.0439,0.234375 h 0.0439 q 0,-0.761718 1.14257,-1.083984 h 0.10254 q 0.90821,0.27832 0.90821,0.849609 v 0.278321 q 0,0.483398 -0.67383,0.585937 h -0.19043 q -0.61524,-0.190429 -0.61524,-0.366211 v -0.219726 q 0.0879,-0.454102 0.46875,-0.454102 h 0.10254 q 0.23438,0.117188 0.23438,0.366211 l -0.14649,0.131836 h -0.0439 l -0.19043,-0.131836 -0.0879,0.131836 q 0.13183,0.219727 0.38086,0.219727 0.27832,0 0.27832,-0.541993 -0.21973,-0.395507 -0.52735,-0.395507 h -0.19042 q -0.57129,0.395507 -0.57129,0.893554 v 0.04395 q 0,0.322265 0.52734,0.498047 0,0.234375 0.4248,0.234375 l 0.38086,0.04394 0.57129,-0.04394 0.61524,0.131835 q 0.57129,-0.322265 1.05468,-0.322265 0.32227,-0.322266 1.37696,-0.9375 0.84961,-0.307617 0.84961,-0.688477 0.19043,0 0.19043,-0.351562 v -0.19043 q -0.68848,-0.893555 -1.52344,-0.893555 -1.72852,0.08789 -2.08008,0.805664 l -0.14648,0.410157 q 0.16113,0.864258 1.28906,0.864258 0.51269,0 0.51269,-0.688477 v -0.219727 q 0,-0.351562 -0.51269,-0.454101 -0.54199,0 -0.62988,0.541992 0,0.249023 0.4834,0.366211 0.23437,-0.07324 0.23437,-0.322266 v -0.04395 h -0.0879 l -0.0586,-0.04394 -0.19043,0.175781 h -0.0439 l -0.14648,-0.131836 v -0.175781 l 0.24902,-0.234375 h 0.0879 q 0.29297,0 0.52734,0.322265 v 0.263672 q 0,0.322266 -0.48339,0.498047 -0.89356,0 -0.89356,-0.761719 0,-0.615234 0.70313,-0.864257 h 0.19043 q 1.18652,0.102539 1.18652,0.952148 v 0.27832 q 0,0.600586 -1.23047,1.025391 -0.83496,0 -1.4209,-0.673828 -0.23437,-0.307617 -0.23437,-0.541992 0,-1.054688 0.89355,-1.479493 0.9082,-0.541992 2.05078,-0.541992 h 0.70313 q 0.70312,0 1.86035,0.629883 l 0.27832,1.435547 q -0.13184,0 -0.13184,0.952148 -0.61523,1.069336 -0.86425,1.303711 -1.27442,0.556641 -2.32911,1.259766 1.56739,1.171875 1.56739,2.080078 0.38086,1.289063 0.38086,2.255859 0.32226,0.673829 0.43945,1.215821 0.32227,0.834961 1.8457,2.109375 l 0.80567,0.541992 q 0.74707,-0.307617 1.24511,-0.307617 h 0.38086 q 0.70313,0.190429 0.70313,0.585937 v 0.263672 q 0,0.249024 -0.23438,0.366211 h -0.23437 q -0.52735,-0.19043 -0.52735,-0.498047 v -0.04394 l 0.19043,-0.175781 h 0.14649 q 0.14648,0 0.14648,0.175781 l -0.0586,0.131836 h 0.14648 l 0.10254,-0.08789 q -0.0879,-0.205078 -0.29297,-0.307617 h -0.19043 q -0.8496,0.04395 -0.8496,0.263672 1.30371,0.74707 2.37304,0.996094 v -0.131836 q 0,-0.864258 0.71778,-1.083985 h 0.46875 q 0.80566,0.102539 0.80566,0.673828 v 0.175782 q 0,0.27832 -0.42481,0.585937 h -0.33691 q -0.61523,-0.05859 -0.61523,-0.454101 v -0.08789 q 0,-0.454102 0.38086,-0.454102 h 0.14648 l 0.27832,0.278321 v 0.131836 l -0.19043,0.175781 h -0.0439 q -0.14649,0 -0.14649,-0.263672 h -0.0439 l -0.044,0.175781 q 0,0.19043 0.52734,0.19043 0.19043,-0.249023 0.19043,-0.410156 0,-0.410156 -0.57129,-0.410156 h -0.19042 q -0.57129,0.102539 -0.57129,0.776367 0,0.336914 0.84961,0.439453 l 0.14648,0.04394 2.56348,-0.04394 q 0.38086,0.117187 0.38086,0.454101 0,0.336914 -1.4209,0.629882 l -1.56739,0.0439 h -0.10253 v 0.0439 q 0.65918,0.21973 0.65918,1.25977 0,0.60058 -0.89356,0.80566 h -0.29297 q -1.08398,0 -1.08398,-1.02539 0.26367,-0.58594 0.61523,-0.58594 h 0.33692 q 0.46875,0.21973 0.46875,0.62989 v 0.0439 q -0.16114,0.26367 -0.42481,0.26367 -0.38086,-0.10254 -0.38086,-0.21972 v -0.044 l 0.14649,-0.14648 h 0.0439 l 0.23438,0.0586 v -0.0586 l -0.0439,-0.13184 h -0.33691 q -0.0879,0 -0.19043,0.32227 0,0.52734 0.67383,0.58593 0.61523,-0.16113 0.61523,-0.58593 v -0.27832 q 0,-0.4834 -1.05469,-0.9375 -1.28906,0 -3.32519,-1.127933 l -0.0439,0.04394 h -0.0879 l -0.14648,-0.08789 q -0.542,0 -1.18653,1.757808 l -0.19043,0.71778 q 0.13184,2.22656 1.08399,2.43164 0.4541,0.27832 0.76172,0.27832 1.47949,-0.11719 1.47949,-0.9082 v -0.32227 q -0.13184,-0.76172 -1.18652,-0.76172 h -0.10254 q -0.95215,0.19043 -0.95215,0.86426 0.32226,0.39551 0.61523,0.4834 0.62989,-0.16114 0.62989,-0.4834 0,-0.13184 -0.24903,-0.36621 -0.27832,0.0586 -0.27832,0.13183 v 0.0879 l 0.0879,0.10254 0.14649,-0.14648 h 0.0439 l 0.14649,0.14648 v 0.0879 l -0.23438,0.21973 h -0.29297 q -0.27832,-0.14648 -0.27832,-0.49805 v -0.17578 q 0.16113,-0.36621 0.61524,-0.36621 0.38086,0 0.67382,0.4541 v 0.41016 q -0.13183,0.76172 -0.67382,0.76172 h -0.23438 q -1.09863,-0.20508 -1.09863,-0.9961 v -0.0439 q 0,-0.92285 1.33301,-1.17188 h 0.19043 q 0.98144,0 1.66992,0.90821 l 0.0439,0.41015 q 0,0.9961 -1.23047,1.43555 l -0.86425,0.0879 q -1.74317,0 -2.3291,-1.80176 l 0.0439,-1.17187 v -0.36621 q 0.13184,-1.18653 1.14258,-2.695315 -0.9082,-0.527344 -1.56738,-1.259766 -1.09864,-1.113281 -1.14258,-1.347656 l -0.0879,-0.278321 0.0439,-0.04395 q -0.55664,-0.908203 -1.09863,-2.197265 -0.4834,-0.776368 -0.74707,-1.625977 -0.29297,-0.585938 -0.9082,-1.362305 l -1.28907,-0.761718 h -0.4248 l -0.99609,-0.263672 h -0.29297 q -0.11719,0 -0.19043,0.395507 -0.13184,0.04395 -0.13184,0.278321 v 0.263672 l 0.0879,0.498047 v 0.629882 q 0,0.410157 -0.19043,0.585938 v 0.19043 l 0.0586,0.04394 v 0.04394 q 0.64453,-0.541992 1.18652,-0.541992 h 0.38086 q 0.9082,0 1.08398,1.347656 0,0.878906 -1.08398,0.996094 h -0.29297 q -0.60059,0 -0.84961,-0.908203 0,-0.527344 0.76172,-0.717774 h 0.38086 q 0.27832,0.161133 0.27832,0.410157 v 0.307617 q -0.19043,0.27832 -0.46875,0.27832 -0.26367,0 -0.38086,-0.234375 v -0.175781 l 0.19043,-0.175781 h 0.0879 l 0.14648,0.08789 h 0.044 v -0.131836 l -0.23438,-0.04395 q -0.4248,0.219727 -0.4248,0.527344 0,0.190429 0.61523,0.322265 0.65918,-0.175781 0.65918,-1.083984 -0.19043,-0.454102 -0.76172,-0.454102 -0.35156,0 -0.8496,0.322266 -0.52735,0.717774 -0.52735,1.12793 0.19043,0.190429 0.19043,0.454101 v 0.629883 l 0.14649,0.351563 q -0.11719,0.410156 -0.42481,0.410156 h -0.0439 l -0.38086,-0.08789 -0.10254,0.08789 -0.90821,-0.04395 -0.19043,0.08789 -0.0439,-0.04394 q 0.4248,-1.186524 0.4248,-1.757813 v -1.303711 l -0.0439,-0.498046 0.0439,-0.585938 v -2.475586 q 0,-0.878906 -0.32226,-3.017578 v -0.688477 q -0.24903,-0.732421 -0.33692,-1.845703 -0.38086,-0.644531 -0.38086,-1.040039 1.28907,-1.347656 2.66602,-1.347656 h 0.46875 q 0.33691,-0.27832 0.33691,-0.541992 0,-0.292969 -0.38085,-0.498047 -0.57129,0.05859 -0.57129,0.322266 0.0879,0.234375 0.23437,0.263671 l 0.19043,-0.04395 v -0.08789 q -0.23437,0 -0.23437,-0.131836 v -0.04395 l 0.14648,-0.131836 h 0.23438 l 0.23437,0.219727 q 0,0.541992 -0.57129,0.541992 -0.57129,-0.102539 -0.57129,-0.541992 0.17578,-0.717774 0.61524,-0.717774 z m -2.51953,15.688477 h 0.0586 l -0.0586,0.219727 h -0.0879 v -0.131836 z" />
      <path
         id="path32"
         style=""
         d="m 203.21289,79.887695 5.78613,0.864258 0.83496,0.08789 q 0.57129,-0.644532 1.52344,-0.644532 h 0.21973 q 0.79101,0.249024 0.79101,0.864258 -0.0439,0.952149 -0.65918,0.952149 h -0.26367 q -0.67383,-0.131836 -0.67383,-0.527344 v -0.131836 q 0.11719,-0.512695 0.4834,-0.512695 h 0.14649 q 0.24902,0 0.43945,0.351562 v 0.117188 l -0.26367,0.263672 h -0.0879 l -0.13184,-0.131836 v -0.04395 l 0.13184,-0.161132 h -0.13184 l -0.19043,0.161132 q 0.0146,0.175782 0.27832,0.307618 0.36621,0 0.52735,-0.263672 v -0.08789 q -0.0733,-0.688477 -0.65918,-0.688477 h -0.14649 q -0.51269,0 -0.79101,0.527344 0.19043,0 0.48339,1.772461 0.17579,0.161133 0.39551,1.464844 0.19043,0.336914 0.4541,1.435547 l -0.0879,0.08789 v 0.07324 q 0.26368,0.219726 0.26368,0.395507 l 0.43945,1.347657 q 0.0586,0 0.13183,0.292968 l -0.0439,0.395508 v 0.219727 l 0.36621,0.776367 q 0.26367,0 0.30762,0.776367 0.26367,0.234375 0.39551,1.083985 l 0.0439,0.04394 v 0.644531 l 0.21973,0.351563 v 0.292968 l 0.27832,0.820313 q 0.14648,0 0.26367,-0.336914 l -0.044,-0.131836 -0.0439,0.04394 h -0.13184 q -0.11718,0 -0.14648,-0.175781 0.0879,-0.19043 0.19043,-0.219727 h 0.0439 q 0.43946,0.08789 0.43946,0.439453 v 0.04395 q -0.10254,0.644531 -0.52735,0.644531 0.0879,0.834961 0.83496,1.728516 0.55664,0.27832 0.80567,0.659179 0.86426,0.791016 2.49023,1.113282 l -0.0439,-0.04395 v -0.117187 q 0.23437,-0.703125 0.65918,-0.703125 h 0.30761 q 0.41016,0 0.41016,0.527344 v 0.08789 q -0.20508,0.292969 -0.4541,0.292969 h -0.0879 q -0.23438,0 -0.35156,-0.205078 v -0.175781 l 0.0879,-0.131836 h -0.044 q -0.17578,0.175781 -0.17578,0.351562 0,0.249024 0.89355,0.249024 1.59668,-0.131836 1.59668,-0.600586 0,-0.512696 0.87891,-0.820313 h 0.10254 q 0.4541,0.249024 0.65918,0.644531 v 0.483399 q -0.11719,0.27832 -0.57129,0.644531 -0.11719,0 -0.49805,0.395508 -1.43554,0.644531 -2.40234,0.644531 0.36621,0.512695 0.36621,0.820313 v 0.219726 q -0.20508,0.893553 -0.80566,0.893553 h -0.35157 q -0.4248,0 -0.67382,-0.60058 v -0.336918 q 0,-0.366211 0.58593,-0.527344 h 0.13184 q 0.38086,0 0.52734,0.263672 v 0.395508 q 0,0.336912 -0.52734,0.336912 v 0.0439 q 0.35156,0.0293 0.35156,0.0879 0.43945,-0.30762 0.43945,-0.600588 -0.30761,-1.12793 -1.14257,-1.12793 l -0.9375,-0.219726 -2.13868,-0.908204 -1.46484,-1.259765 q -0.21973,-0.19043 -0.21973,-0.600586 l -0.43945,-0.46875 q -0.17578,0 -0.41016,-0.952149 -0.35156,-0.307617 -0.65918,-0.307617 h -0.17578 q -0.84961,0 -1.06933,0.556641 -0.11719,0 -0.17578,0.351562 v 0.04395 q 0,0.600586 0.57129,0.600586 h 0.13183 q 0.62988,0 0.62988,-0.556641 v -0.175781 q -0.11718,-0.219727 -0.35156,-0.219727 h -0.10254 q -0.30761,0.234375 -0.30761,0.483399 0.17578,0 0.17578,0.08789 l 0.13183,-0.04394 v -0.04394 l -0.13183,-0.175782 v -0.04394 l 0.13183,-0.131836 q 0.24903,0 0.32227,0.175781 v 0.219727 q 0,0.336914 -0.4541,0.336914 h -0.0879 q -0.23438,0 -0.39551,-0.249023 v -0.263672 q 0,-0.629883 0.76172,-0.688477 0.74707,0.263672 0.74707,0.776367 v 0.219727 q 0,0.512695 -0.83496,0.688476 h -0.23438 q -0.86426,0 -1.05469,-0.952148 v -0.04394 q 0,-0.791016 0.87891,-1.347657 l 0.26367,-0.08789 h 0.80567 q 0.21972,0 0.43945,0.131836 v -0.04395 q 0,-0.161132 -0.35156,-0.512695 v -0.395508 q -0.26368,-0.541992 -0.4834,-1.376953 -0.16113,0 -0.36621,-0.644531 -0.90821,-0.996094 -1.33301,-0.996094 -0.16113,0 -0.26367,0.117188 l 0.0439,0.219726 v 0.131836 q -0.10254,1.303711 -1.06933,1.303711 h -0.0879 q -1.05469,-0.263672 -1.05469,-0.864258 v -0.131836 q 0.16113,-0.776367 0.43945,-0.776367 h 0.35156 q 0.49805,0 0.62989,0.512696 v 0.131835 q -0.0879,0.424805 -0.4541,0.424805 -0.43946,-0.07324 -0.43946,-0.205078 v -0.219727 l 0.17578,-0.175781 h 0.0879 l 0.13184,0.08789 v -0.04394 q 0,-0.05859 -0.17578,-0.131836 -0.35156,0 -0.35156,0.439453 v 0.08789 q 0,0.351563 0.57129,0.46875 h 0.0879 q 0.54199,-0.117187 0.54199,-0.46875 v -0.351562 q -0.29297,-0.996094 -0.76172,-0.996094 -0.17578,-0.249023 -1.24512,-0.556641 h -0.0439 q -0.82032,1.04004 -0.92285,2.153321 -0.24903,0.249023 -0.542,1.435547 -0.14648,0.131836 -0.35156,1.127929 -0.35156,0.571289 -0.4834,1.508789 0,0.688477 -0.32226,0.688477 l -0.35157,0.08789 q -1.17187,0 -1.42089,-0.512696 v -0.08789 l 0.21972,-0.615235 q 0.21973,-0.336914 0.71778,-2.065429 0.21972,-0.07324 0.21972,-0.307618 l 0.26367,-0.644531 0.21973,-0.820312 q 0.29297,-0.366211 0.41016,-0.952149 l 0.0439,-0.175781 q 0.24903,0 0.4834,-1.171875 0.35156,-0.483398 0.65918,-2.548828 0.11719,0 0.19043,-0.864258 0.87891,-2.021484 0.87891,-2.167969 l -0.17578,-0.131836 h -0.0439 q -0.39551,0 -0.39551,0.307618 v 0.08789 l 0.17578,-0.263672 h 0.0879 l 0.13184,0.131836 v 0.08789 q 0,0.234375 -0.21973,0.336914 h -0.17578 q -0.36621,0 -0.36621,-0.46875 0.17578,-0.556641 0.58594,-0.556641 h 0.0439 l 0.52735,0.07324 0.13183,-0.424804 q -0.58593,-0.219727 -2.34375,-0.395508 -1.69921,-0.19043 -1.69921,-0.556641 -0.13184,0 -0.13184,-0.688476 v -0.04395 q 0,-0.234375 0.17578,-0.307617 z m 4.36523,7.133789 0.17579,0.08789 h 0.0879 q 0.3955,0 0.3955,-0.864258 0.35157,-0.55664 0.80567,-0.55664 0.55664,0 0.65918,0.820312 -0.0439,0.644531 -0.52735,0.644531 h -0.0879 q -0.43945,-0.08789 -0.43945,-0.424804 v -0.08789 q 0,-0.234375 0.26367,-0.395508 h 0.21973 l 0.17578,0.131836 v -0.04394 q 0,-0.161133 -0.30762,-0.307617 -0.4541,0.146484 -0.4541,0.527343 v 0.219727 q 0,0.571289 1.02539,1.113281 l 0.98145,0.527344 v -0.04395 q -0.89356,-2.270508 -1.59668,-4.628907 v -0.08789 h -0.0439 q -0.54199,0.410156 -0.89355,2.255859 -0.43946,0.922852 -0.43946,1.113281 z m 1.72852,-0.600586 q 0,0.219727 -0.13184,0.219727 h -0.0439 l -0.044,-0.04394 h -0.0439 l -0.0439,0.04394 0.0439,0.131836 h 0.17578 q 0.13184,-0.04395 0.13184,-0.263672 v -0.08789 z m 9.50684,10.297852 v 0.04394 q 0.17578,0 0.17578,0.263672 h 0.0439 l 0.17578,-0.08789 q -0.0439,-0.219727 -0.13183,-0.219727 z m -0.70313,3.251953 q 0,0.161137 0.21973,0.249027 v -0.0439 l -0.13184,-0.13183 v -0.205083 l 0.13184,-0.131836 h 0.0879 q 0.13183,0 0.13183,0.263672 h 0.0439 l 0.0439,-0.219726 v -0.04395 q 0,-0.102539 -0.21973,-0.131836 -0.30762,0.08789 -0.30762,0.395508 z" />
      <path
         id="path34"
         style=""
         d="m 228.32031,78.261719 q 0.58594,0.205078 0.58594,0.9375 v 0.04394 q -0.14648,0.834961 -0.82031,0.834961 h -0.29297 q -0.83496,0 -0.83496,-0.512695 v -0.322266 l 0.0439,-0.04394 v -0.04395 h -0.0439 q -0.62989,0.761719 -0.62989,1.303711 v 0.131836 q 0.0293,0.278321 0.14649,0.278321 0.33691,-0.234375 1.17187,-0.366211 0,-0.08789 0.4834,-0.102539 l 0.14649,0.146484 v 0.04394 q 0,0.307617 -0.33692,0.600586 l -0.14648,0.556641 0.0439,8.276367 0.10254,1.025391 -0.10254,0.644531 v 1.450195 l 0.10254,0.131836 v 0.04395 q 0.0879,2.25586 0.43946,5.06836 0.38086,0 0.43945,0.512695 -0.0732,0.19043 -0.14649,0.19043 h -0.64453 v 0.131836 q 0.98145,0.908207 0.98145,1.860347 v 0.32227 q 0,0.61523 -0.92285,1.34766 L 227.5,102.94434 q -0.95215,0 -1.50879,-0.61524 v -0.68847 q 0,-0.83497 1.15723,-1.25977 h 0.49804 q 0.82032,0 0.82032,0.98144 v 0.0879 q -0.35157,0.9375 -0.87891,0.9375 -0.70312,0 -1.02539,-0.27832 h -0.0439 v 0.0439 q 0.27832,0.32227 1.06934,0.32227 0.42481,0 0.9375,-0.79102 l 0.0879,-0.60059 q 0,-0.61523 -1.21582,-1.801753 l -0.58594,-0.336915 h -0.43945 l -0.0439,-0.04395 -0.33691,0.19043 h -0.29297 l -0.14648,-0.146485 v -0.04395 q 0.29297,-0.922851 0.4834,-2.036133 v -0.102539 l -0.10254,-2.548828 0.10254,-0.74707 q -0.10254,-3.852539 -0.43946,-3.852539 -0.24902,-0.615235 -0.83496,-0.615235 h -0.43945 q -0.64453,0 -0.92285,1.113282 0.13183,0.74707 0.62988,0.74707 h 0.24902 q 0.45411,0 0.68848,-0.600586 0,-0.249023 -0.54199,-0.600586 -0.39551,0 -0.39551,0.410156 l 0.14648,0.146485 h 0.14649 l -0.14649,-0.19043 v -0.08789 l 0.14649,-0.146484 h 0.20508 q 0.23437,0.117188 0.23437,0.380859 v 0.04395 q -0.19043,0.366211 -0.4834,0.366211 h -0.19043 q -0.43945,-0.19043 -0.43945,-0.600586 v -0.04395 q 0,-0.498046 0.92285,-0.703125 0.83496,0.263672 0.83496,0.791016 v 0.234375 q -0.32226,0.878906 -0.83496,0.878906 -0.17578,0.146485 -0.4834,0.146485 -0.79101,0 -1.08398,-1.171875 l -0.0439,-0.366211 v -0.278321 q 0.43946,-0.659179 1.31836,-0.922851 h 0.29297 q 0.67383,0.01465 0.73242,0.131836 l 0.24903,-0.04395 q 0,-0.410156 -0.9375,-0.83496 0,-0.175782 -0.4834,-0.322266 -0.42481,-0.249024 -0.98145,-0.703125 l -1.69921,-0.600586 q -0.64454,-0.219727 -1.0254,-0.512695 l -0.62988,-0.234375 -0.0586,0.04394 v 0.04394 q 1.24512,1.245117 1.4209,1.538086 v 0.04395 l -0.0439,0.04394 v 0.05859 q 0.23438,0.307617 0.23438,0.834961 v 0.600585 q -0.30762,1.113282 -1.11329,1.582032 -0.4541,0.322265 -1.08398,0.322265 h -0.0439 q -1.06934,-0.175781 -1.06934,-1.391601 v -0.19043 q 0,-0.878906 1.3623,-1.157226 0.87891,0 1.06934,0.791015 -0.13184,1.157227 -0.9668,1.157227 h -0.35156 q -0.43945,-0.219727 -0.43945,-0.600586 0,-0.424805 0.39551,-0.600586 h 0.29296 l 0.24903,0.219726 v 0.292969 l -0.20508,0.175781 h -0.044 q -0.14648,0 -0.14648,-0.322265 h -0.10254 l -0.0439,0.146484 q 0,0.102539 0.3955,0.322266 0.58594,-0.219727 0.58594,-0.834961 -0.27832,-0.336914 -0.49805,-0.336914 h -0.29297 q -0.8789,0.131836 -0.8789,1.127929 v 0.04395 q 0,0.600586 0.8789,0.732422 h 0.0586 q 1.40625,-0.571289 1.40625,-1.479493 l 0.0586,-0.04395 0.0879,-0.19043 q 0,-1.230468 -0.67383,-1.816406 Q 218.85742,85 218.08105,84.501953 h -0.0439 l -0.0586,0.410156 q 0.0879,0.117188 0.14648,1.025391 -0.14648,1.904297 -0.38086,2.504883 l 0.044,0.659179 v 0.556641 l -0.10254,0.131836 0.10254,0.791016 q -0.10254,0 -0.10254,0.146484 0,1.655273 0.43945,2.138672 0.49805,-1.201172 1.27441,-1.538086 0.82032,-0.424805 1.17188,-0.424805 h 0.33691 q 1.33301,0 1.61133,1.625977 0,0.644531 -1.21582,1.259765 -0.19043,0.08789 -0.54199,0.08789 h -0.0439 q -1.06933,-0.19043 -1.06933,-1.010742 v -0.146484 q 0.32226,-1.069336 1.02539,-1.069336 h 0.14648 q 0.58594,0.380859 0.58594,0.703125 v 0.366211 q -0.27832,0.380859 -0.54199,0.380859 h -0.0439 q -0.30761,0 -0.54199,-0.336914 v -0.08789 q 0,-0.366211 0.39551,-0.366211 l 0.0879,0.131836 v 0.08789 l -0.0879,0.146484 0.0439,0.04395 q 0.21973,-0.08789 0.24903,-0.19043 0,-0.219727 -0.29297,-0.454102 -0.64453,0.146485 -0.64453,0.791016 0.32226,0.556641 0.83496,0.556641 0.92285,-0.322266 0.92285,-0.703125 0.10254,0 0.10254,-0.278321 l 0.0879,-0.08789 q -0.0732,-0.410157 -0.52734,-0.9375 l -0.62989,-0.131836 h -0.35156 q -1.15723,0.292968 -1.61133,1.02539 -0.52734,0.834961 -0.52734,1.523438 l 0.14648,0.102539 -0.0586,0.234375 v 0.410156 q 0.54199,0.703125 0.58594,1.025391 l -0.19043,0.190429 h -1.84571 l -0.14648,-0.102539 h -0.9375 q -0.4834,0 -0.4834,-0.08789 0.54199,-1.347657 0.54199,-1.860352 l 0.0439,-0.55664 -0.0439,-1.948243 v -0.190429 q 0,-0.395508 0.19043,-1.069336 -0.0879,-0.08789 -0.14648,-1.435547 -0.0879,0 -0.10254,-0.46875 v -0.600586 l 0.0586,-0.19043 -0.10254,-0.234375 0.0439,-0.234375 v -1.113281 l -0.52734,-4.40918 q -0.24903,-0.410156 -0.39551,-1.02539 V 80.12207 l 0.10254,-0.08789 0.0439,0.04394 0.10254,-0.08789 h 0.0439 q 0.24902,0 1.17187,0.922852 l 1.40625,0.834961 q 0.30762,0.366211 0.58594,0.512695 l -0.0879,-0.644531 q 0,-1.391602 1.31836,-2.460938 0.60058,-0.336914 0.92285,-0.336914 h 0.54199 q 0.82031,0 1.36231,1.450196 v 0.688476 q -0.49805,1.538086 -1.46485,1.538086 -1.50879,-0.322265 -1.50879,-1.157226 v -0.146485 q 0,-1.010742 0.82032,-1.391601 h 0.54199 q 0.46875,0 0.68847,0.703125 v 0.454101 q 0,0.424805 -0.58593,0.46875 h -0.39551 l -0.33692,-0.322265 v -0.19043 q 0,-0.249024 0.29297,-0.410156 0.36621,0 0.43946,0.175781 v 0.102539 l -0.14649,0.131836 h -0.0586 l -0.0439,-0.04395 h -0.0439 v 0.190429 h 0.29297 l 0.14648,-0.424804 v -0.04395 q -0.0732,-0.424804 -0.43945,-0.424804 -0.4834,0 -0.68848,0.615234 v 0.08789 q 0,1.069336 0.83496,1.069336 h 0.29297 q 0.71777,-0.07324 0.86426,-1.435547 -0.20508,-1.259766 -1.30371,-1.259766 -1.33301,0 -1.81641,1.860352 v 0.46875 q 0,1.054687 1.02539,1.435546 0,0.205079 0.9375,0.46875 0.20508,0.205079 0.86426,0.454102 0,0.146484 1.02539,0.424805 0,0.161133 0.98145,0.74707 0,0.07324 1.06933,0.46875 0,0.307617 0.68848,0.410156 l 0.19043,-0.834961 v -0.08789 h -0.38086 q -0.67383,0 -1.81641,-1.069336 l -0.0439,-0.234375 v -0.556641 q 0,-0.761719 1.12793,-0.9375 h 0.19043 q 0.4834,0 0.4834,0.9375 0,0.483399 -0.82032,0.556641 -0.49804,-0.131836 -0.49804,-0.278321 v -0.322265 q 0.16113,-0.336914 0.43945,-0.336914 h 0.10254 l 0.14648,0.146484 q 0,0.161133 -0.19043,0.366211 v 0.04394 h 0.14649 q 0.11718,0 0.23437,-0.366211 -0.0293,-0.36621 -0.29297,-0.36621 -0.3955,0 -0.67382,0.410156 v 0.46875 q 0.14648,0.117187 0.14648,0.410156 0.65918,0.65918 1.65527,0.65918 v -0.04395 q 0,-2.15332 -0.58593,-3.398437 v -0.131836 l 0.14648,-0.146484 h 0.4834 l 0.35156,0.04395 -0.0586,-0.366211 q 0,-0.805664 0.58593,-1.582031 0.43946,-0.703125 1.80176,-0.703125 z m -0.92285,0.55664 v 0.05859 h 0.0439 l 0.43945,-0.05859 q 0.32226,0 0.39551,0.424805 0,0.205078 -0.29297,0.424805 h 0.10254 q 0.36621,0 0.43945,-0.46875 l -0.20508,-0.556641 h -0.19043 q -0.32226,0 -0.73242,0.175781 z m 0.24902,0.424805 0.19043,0.04395 v -0.131836 h -0.10254 z m -0.24902,0.19043 v 0.08789 l -0.0439,0.04395 0.0439,0.04394 0.19043,0.05859 z m -0.92285,22.060546 q 0.36621,-0.60059 0.67383,-0.60059 0.64453,0.0879 0.64453,0.5127 v 0.23438 q -0.13184,0.23437 -0.39551,0.23437 h -0.14648 l -0.24903,-0.23437 v -0.0879 l 0.14649,-0.14648 h 0.0586 l 0.14649,0.0879 h 0.0439 v -0.0879 l -0.10254,-0.0879 h -0.19043 q -0.24902,0.17578 -0.24902,0.41016 0,0.24902 0.49805,0.27832 0.4541,0 0.73242,-0.64454 v -0.19042 q 0,-0.46875 -0.79102,-0.46875 -0.54199,0.19042 -0.82031,0.70312 z" />
      <path
         id="path36"
         style=""
         d="m 238.01758,80.063477 h 0.26367 q 0.21973,0.07324 0.21973,0.571289 v 0.08789 l -0.30762,0.9375 0.13184,0.131836 v 0.04395 q -0.55665,0.366211 -0.79102,1.40625 0,0.541993 -0.61523,1.640625 h -0.0879 l -0.0879,-0.08789 q -0.16113,-1.772461 -0.51269,-1.772461 -0.20508,-0.263672 -0.92285,-0.527344 l -0.0879,-0.08789 q -0.4834,0.292968 -0.4834,1.289062 v 0.175781 q 0,0.454102 0.83496,0.703125 0.35156,-0.117187 0.35156,-0.395508 -0.0732,-0.175781 -0.13183,-0.175781 h -0.13184 l -0.0879,0.08789 q 0.17578,0.01465 0.17578,0.131836 v 0.04394 l -0.17578,0.175781 h -0.0439 q -0.23437,0 -0.35156,-0.219726 v -0.08789 q 0,-0.483398 0.65918,-0.483398 0.27832,0 0.39551,0.483398 v 0.219727 q 0,0.498047 -0.79102,0.659179 0,-0.131836 -0.26367,-0.131836 -0.83496,-0.46875 -0.83496,-1.450195 0.11719,-0.615234 0.35156,-1.157226 l -0.61523,-0.131836 h -0.26367 l -0.13184,0.08789 q 0.30762,0.629883 0.30762,0.834961 v 0.175781 q -0.10254,1.201172 -0.83496,1.201172 -0.82032,0 -0.95215,-0.571289 l -0.0879,-0.351562 v -0.278321 q 0.32226,-0.615234 0.70312,-0.615234 h 0.26367 q 0.27832,0 0.33692,0.849609 v 0.08789 l -0.26367,0.263672 h -0.29297 l -0.17578,-0.175781 v -0.219727 l 0.17578,-0.19043 h 0.0439 q 0.13184,0 0.13184,0.234375 h 0.0439 v -0.234375 q 0,-0.146484 -0.13183,-0.307617 -0.27832,0 -0.43945,0.629883 0.14648,0.439453 0.48339,0.439453 h 0.16114 q 0.35156,0 0.43945,-0.483398 0,-1.025391 -1.04004,-1.508789 0,-0.131836 -0.0879,-0.131836 h -0.17578 q -0.13184,0 -0.26367,0.483398 -0.33692,0 -0.57129,1.201172 v 0.04394 l 0.0879,0.351563 -0.0439,1.274414 0.13184,0.629883 -0.0879,0.08789 v 0.08789 q 0,0.219727 0.26367,0.571289 0.29297,-0.292969 0.65918,-0.351562 0.11719,-0.219727 0.52734,-0.483399 v -0.04394 q -0.19043,-0.454102 -0.52734,-0.454102 h -0.26367 q -0.17578,0.07324 -0.17578,0.307617 0.0293,0.234375 0.13183,0.234375 h 0.0879 l 0.0879,-0.08789 v -0.05859 q -0.21972,0 -0.21972,-0.131836 v -0.04394 l 0.13183,-0.131836 h 0.21973 l 0.21973,0.219726 v 0.08789 q 0,0.366211 -0.52735,0.498047 -0.43945,-0.19043 -0.43945,-0.498047 v -0.219726 q 0,-0.234375 0.35156,-0.483399 h 0.43946 q 0.51269,0 0.86425,0.761719 l 1.31836,-0.454102 h 0.43946 l 0.48339,0.175782 -0.0439,0.541992 v 0.307617 q 0,0.541992 0.30762,1.230469 l 0.0879,0.527343 q 0,0.307618 -0.21973,0.454102 h -0.17578 q -0.0879,0 -0.52734,-0.849609 -0.23438,0 -0.26368,-0.395508 h -0.57129 q -0.3955,0.659179 -0.3955,0.893554 v 0.439454 q 0.20507,0.703125 0.65918,0.703125 0.43945,-0.161133 0.43945,-0.263672 v -0.175782 q -0.0732,-0.395507 -0.35156,-0.395507 -0.17578,0.04394 -0.17578,0.219726 l 0.0439,0.04395 h 0.0439 l 0.13183,-0.131836 h 0.0439 q 0.17578,0.07324 0.17578,0.307617 v 0.04394 l -0.17578,0.175781 h -0.26367 q -0.32227,0 -0.4834,-0.439453 0,-0.527344 0.3955,-0.717773 0.9668,0.08789 0.9668,0.673828 v 0.175781 q 0,0.541992 -0.4834,0.834961 h -0.35156 q -0.58594,0 -0.92285,-0.791016 l -0.044,-0.659179 0.21973,-0.981446 h -0.0439 q -0.61524,0 -1.30372,1.113282 -0.20507,0 -0.26367,0.966797 -0.36621,0.512695 -0.43945,0.878906 l 0.26367,1.333008 0.65918,-0.922852 q 0.54199,-0.454101 1.12793,-0.454101 1.01074,0.205078 1.01074,1.02539 l 0.0439,0.439453 q 0,0.629883 -0.83496,0.966797 h -0.17578 q -0.90821,-0.08789 -0.90821,-0.65918 v -0.307617 q 0,-0.322265 0.5127,-0.74707 h 0.17578 q 0.61523,0.146484 0.61523,0.527344 v 0.219726 q 0,0.234375 -0.35156,0.483399 h -0.17578 q -0.35156,0 -0.35156,-0.351563 v -0.131836 l 0.21972,-0.219726 h 0.044 l 0.13184,0.131836 v 0.08789 l -0.0879,0.131836 h 0.0879 q 0.13183,-0.0293 0.13183,-0.351562 l -0.17578,-0.175782 h -0.17578 q -0.0586,0 -0.30762,0.439454 0.10254,0.571289 0.57129,0.571289 h 0.17578 q 0.39551,-0.292969 0.39551,-0.747071 0,-0.834961 -0.74707,-0.834961 h -0.0879 q -0.62988,0 -1.21582,1.186524 l -0.0879,0.74707 q 0.30761,1.113281 0.74707,1.113281 l 0.55664,0.04395 h 0.43945 q 0.16113,-0.131836 0.30762,-0.131836 h 0.9668 q 0.26367,0 0.48339,-0.219727 h 0.35157 q 0.86425,-0.146484 0.86425,-0.805664 v -0.395508 l 0.0439,-0.04395 q -0.10254,-1.142578 -0.55664,-1.142578 l -0.21973,-0.04395 q -0.35156,0 -0.43945,0.615234 0.0586,0.263672 0.30762,0.263672 0.21972,-0.05859 0.21972,-0.307617 l -0.0439,-0.04395 h -0.0439 q 0,0.175782 -0.13183,0.175782 h -0.0439 l -0.17578,-0.175782 v -0.131836 l 0.21973,-0.219726 h 0.30761 l 0.29297,0.307617 V 91.5625 q 0,0.424805 -0.60058,0.615234 h -0.17578 q -0.38086,0 -0.52735,-0.571289 0,-0.834961 0.79102,-0.966797 h 0.4248 l 0.4834,0.307618 q 0,-0.410157 0.17578,-0.410157 h 0.17578 q 0.65918,0.131836 0.65918,0.498047 l -0.13183,1.010742 q 0.19043,1.274414 0.30761,1.552735 v 0.04394 l -0.0439,0.04394 v 0.04395 l 0.0879,0.08789 -0.0879,0.08789 q 0.32226,0.46875 0.61523,1.186523 0.21973,0.205079 0.21973,0.454102 h -1.66992 l -0.21973,0.04394 v 0.04395 q 0.68848,0 0.74707,0.351562 l 0.0879,0.08789 v 0.483398 q -0.10254,0.527344 -0.52734,0.527344 h -0.39551 q -0.9082,-0.322266 -0.9082,-0.922852 v -0.527343 l 0.0439,-0.04395 v -0.04394 L 232.81738,95.3125 h -1.05468 q -0.11719,0.205078 -0.9668,0.322266 h -0.52735 l -0.48339,-0.04395 -0.11719,0.04395 -0.0879,-0.131836 v -0.146485 q 0.51269,-1.113281 0.51269,-1.801758 l -0.0439,-0.175781 v -0.04394 l 0.0879,-0.131836 v -0.541992 q 0,-0.219727 -0.17578,-0.483399 l 0.0439,-0.307617 q 0,-1.49414 -0.29297,-2.43164 v -0.04395 l 0.11719,-0.703125 v -0.263672 l 0.17578,-0.673828 q -0.0732,0 -0.21972,-0.527344 v -0.175781 l 0.0439,-0.439453 q -0.13183,0 -0.20508,-0.571289 v -0.263672 l 0.0439,-0.498047 -0.21973,-0.922851 v -1.054688 q 0,-1.069336 -1.05469,-1.948242 -0.11718,-0.249023 -0.26367,-0.263672 v -0.08789 q 0,-0.205079 0.61524,-0.278321 l 0.70312,0.04395 0.33692,-0.08789 h 0.30761 l 0.0879,0.08789 0.13184,-0.08789 0.13184,0.04394 0.96679,-0.04394 h 0.83496 l 0.39551,0.131836 1.25977,-0.04394 h 0.35156 l 0.21973,-0.04395 0.26367,0.04395 h 0.61523 q 2.22656,-0.08789 2.22656,-0.395508 z m -1.36231,15.878906 -0.0879,0.219726 q 0,0.527344 0.65918,0.571289 0.35156,-0.0293 0.35156,-0.351562 0,-0.351563 -0.3955,-0.351563 h -0.0879 v 0.08789 h -0.0439 l 0.0439,0.131836 0.0439,-0.04394 h 0.0879 l 0.13184,0.131836 v 0.08789 l -0.13184,0.131836 h -0.13183 q -0.39551,-0.131836 -0.39551,-0.395508 v -0.219726 z" />
      <path
         id="path38"
         style=""
         d="m 239.54102,79.887695 5.78613,0.864258 0.83496,0.08789 q 0.57129,-0.644532 1.52344,-0.644532 h 0.21972 q 0.79102,0.249024 0.79102,0.864258 -0.0439,0.952149 -0.65918,0.952149 h -0.26367 q -0.67383,-0.131836 -0.67383,-0.527344 v -0.131836 q 0.11719,-0.512695 0.4834,-0.512695 h 0.14648 q 0.24903,0 0.43946,0.351562 v 0.117188 l -0.26368,0.263672 h -0.0879 l -0.13183,-0.131836 v -0.04395 l 0.13183,-0.161132 h -0.13183 l -0.19043,0.161132 q 0.0147,0.175782 0.27832,0.307618 0.36621,0 0.52734,-0.263672 v -0.08789 q -0.0732,-0.688477 -0.65918,-0.688477 h -0.14648 q -0.5127,0 -0.79102,0.527344 0.19043,0 0.4834,1.772461 0.17578,0.161133 0.39551,1.464844 0.19043,0.336914 0.4541,1.435547 l -0.0879,0.08789 v 0.07324 q 0.26367,0.219726 0.26367,0.395507 l 0.43945,1.347657 q 0.0586,0 0.13184,0.292968 l -0.0439,0.395508 v 0.219727 l 0.36622,0.776367 q 0.26367,0 0.30761,0.776367 0.26367,0.234375 0.39551,1.083985 l 0.0439,0.04394 v 0.644531 l 0.21972,0.351563 v 0.292968 l 0.27832,0.820313 q 0.14649,0 0.26367,-0.336914 l -0.0439,-0.131836 -0.0439,0.04394 h -0.13183 q -0.11719,0 -0.14649,-0.175781 0.0879,-0.19043 0.19043,-0.219727 h 0.0439 q 0.43945,0.08789 0.43945,0.439453 v 0.04395 q -0.10254,0.644531 -0.52734,0.644531 0.0879,0.834961 0.83496,1.728516 0.55664,0.27832 0.80566,0.659179 0.86426,0.791016 2.49024,1.113282 l -0.0439,-0.04395 v -0.117187 q 0.23438,-0.703125 0.65918,-0.703125 h 0.30762 q 0.41015,0 0.41015,0.527344 v 0.08789 q -0.20507,0.292969 -0.4541,0.292969 h -0.0879 q -0.23437,0 -0.35156,-0.205078 v -0.175781 l 0.0879,-0.131836 h -0.0439 q -0.17579,0.175781 -0.17579,0.351562 0,0.249024 0.89356,0.249024 1.59668,-0.131836 1.59668,-0.600586 0,-0.512696 0.8789,-0.820313 h 0.10254 q 0.45411,0.249024 0.65918,0.644531 v 0.483399 q -0.11718,0.27832 -0.57129,0.644531 -0.11718,0 -0.49804,0.395508 -1.43555,0.644531 -2.40235,0.644531 0.36621,0.512695 0.36621,0.820313 v 0.219726 q -0.20507,0.893553 -0.80566,0.893553 h -0.35156 q -0.42481,0 -0.67383,-0.60058 v -0.336918 q 0,-0.366211 0.58594,-0.527344 h 0.13183 q 0.38086,0 0.52735,0.263672 v 0.395508 q 0,0.336912 -0.52735,0.336912 v 0.0439 q 0.35157,0.0293 0.35157,0.0879 0.43945,-0.30762 0.43945,-0.600588 -0.30762,-1.12793 -1.14258,-1.12793 l -0.9375,-0.219726 -2.13867,-0.908204 -1.46484,-1.259765 q -0.21973,-0.19043 -0.21973,-0.600586 l -0.43945,-0.46875 q -0.17579,0 -0.41016,-0.952149 -0.35156,-0.307617 -0.65918,-0.307617 h -0.17578 q -0.84961,0 -1.06934,0.556641 -0.11718,0 -0.17578,0.351562 v 0.04395 q 0,0.600586 0.57129,0.600586 h 0.13184 q 0.62988,0 0.62988,-0.556641 v -0.175781 q -0.11719,-0.219727 -0.35156,-0.219727 h -0.10254 q -0.30762,0.234375 -0.30762,0.483399 0.17578,0 0.17578,0.08789 l 0.13184,-0.04394 v -0.04394 l -0.13184,-0.175782 v -0.04394 l 0.13184,-0.131836 q 0.24902,0 0.32226,0.175781 v 0.219727 q 0,0.336914 -0.4541,0.336914 h -0.0879 q -0.23437,0 -0.39551,-0.249023 v -0.263672 q 0,-0.629883 0.76172,-0.688477 0.74707,0.263672 0.74707,0.776367 v 0.219727 q 0,0.512695 -0.83496,0.688476 h -0.23437 q -0.86426,0 -1.05469,-0.952148 v -0.04394 q 0,-0.791016 0.87891,-1.347657 l 0.26367,-0.08789 h 0.80566 q 0.21973,0 0.43945,0.131836 v -0.04395 q 0,-0.161132 -0.35156,-0.512695 v -0.395508 q -0.26367,-0.541992 -0.4834,-1.376953 -0.16113,0 -0.36621,-0.644531 -0.9082,-0.996094 -1.33301,-0.996094 -0.16113,0 -0.26367,0.117188 l 0.0439,0.219726 v 0.131836 q -0.10254,1.303711 -1.06934,1.303711 h -0.0879 q -1.05469,-0.263672 -1.05469,-0.864258 v -0.131836 q 0.16114,-0.776367 0.43946,-0.776367 h 0.35156 q 0.49805,0 0.62988,0.512696 v 0.131835 q -0.0879,0.424805 -0.4541,0.424805 -0.43945,-0.07324 -0.43945,-0.205078 v -0.219727 l 0.17578,-0.175781 h 0.0879 l 0.13184,0.08789 v -0.04394 q 0,-0.05859 -0.17579,-0.131836 -0.35156,0 -0.35156,0.439453 v 0.08789 q 0,0.351563 0.57129,0.46875 h 0.0879 q 0.54199,-0.117187 0.54199,-0.46875 v -0.351562 q -0.29297,-0.996094 -0.76172,-0.996094 -0.17578,-0.249023 -1.24511,-0.556641 h -0.0439 q -0.82031,1.04004 -0.92285,2.153321 -0.24902,0.249023 -0.54199,1.435547 -0.14649,0.131836 -0.35156,1.127929 -0.35157,0.571289 -0.4834,1.508789 0,0.688477 -0.32227,0.688477 l -0.35156,0.08789 q -1.17188,0 -1.4209,-0.512696 v -0.08789 l 0.21973,-0.615235 q 0.21972,-0.336914 0.71777,-2.065429 0.21973,-0.07324 0.21973,-0.307618 l 0.26367,-0.644531 0.21973,-0.820312 q 0.29296,-0.366211 0.41015,-0.952149 l 0.0439,-0.175781 q 0.24902,0 0.4834,-1.171875 0.35156,-0.483398 0.65918,-2.548828 0.11718,0 0.19043,-0.864258 0.8789,-2.021484 0.8789,-2.167969 l -0.17578,-0.131836 h -0.0439 q -0.39551,0 -0.39551,0.307618 v 0.08789 l 0.17578,-0.263672 h 0.0879 l 0.13184,0.131836 v 0.08789 q 0,0.234375 -0.21973,0.336914 h -0.17578 q -0.36621,0 -0.36621,-0.46875 0.17578,-0.556641 0.58593,-0.556641 h 0.044 l 0.52734,0.07324 0.13184,-0.424804 q -0.58594,-0.219727 -2.34375,-0.395508 -1.69922,-0.19043 -1.69922,-0.556641 -0.13184,0 -0.13184,-0.688476 v -0.04395 q 0,-0.234375 0.17579,-0.307617 z m 4.36523,7.133789 0.17578,0.08789 h 0.0879 q 0.39551,0 0.39551,-0.864258 0.35156,-0.55664 0.80566,-0.55664 0.55664,0 0.65918,0.820312 -0.0439,0.644531 -0.52734,0.644531 h -0.0879 q -0.43945,-0.08789 -0.43945,-0.424804 v -0.08789 q 0,-0.234375 0.26367,-0.395508 h 0.21972 l 0.17579,0.131836 v -0.04394 q 0,-0.161133 -0.30762,-0.307617 -0.4541,0.146484 -0.4541,0.527343 v 0.219727 q 0,0.571289 1.02539,1.113281 l 0.98144,0.527344 v -0.04395 q -0.89355,-2.270508 -1.59668,-4.628907 v -0.08789 h -0.0439 q -0.54199,0.410156 -0.89356,2.255859 -0.43945,0.922852 -0.43945,1.113281 z m 1.72852,-0.600586 q 0,0.219727 -0.13184,0.219727 h -0.0439 l -0.0439,-0.04394 h -0.0439 l -0.0439,0.04394 0.0439,0.131836 h 0.17578 q 0.13184,-0.04395 0.13184,-0.263672 v -0.08789 z m 9.50683,10.297852 v 0.04394 q 0.17578,0 0.17578,0.263672 h 0.0439 l 0.17578,-0.08789 q -0.044,-0.219727 -0.13184,-0.219727 z m -0.70312,3.251953 q 0,0.161137 0.21972,0.249027 v -0.0439 l -0.13183,-0.13183 v -0.205083 l 0.13183,-0.131836 h 0.0879 q 0.13184,0 0.13184,0.263672 h 0.0439 l 0.0439,-0.219726 v -0.04395 q 0,-0.102539 -0.21973,-0.131836 -0.30761,0.08789 -0.30761,0.395508 z" />
    </g>
  </g>
</svg>
