<?xml version="1.0" encoding="UTF-8" standalone="no"?>
<svg
   xmlns:dc="http://purl.org/dc/elements/1.1/"
   xmlns:cc="http://creativecommons.org/ns#"
   xmlns:rdf="http://www.w3.org/1999/02/22-rdf-syntax-ns#"
   xmlns:svg="http://www.w3.org/2000/svg"
   xmlns="http://www.w3.org/2000/svg"
   id="svg16"
   width="800px"
   version="1.1"
   height="200px">
  <metadata
     id="metadata20">
    <rdf:RDF>
      <cc:Work
         rdf:about="">
        <dc:format>image/svg+xml</dc:format>
        <dc:type
           rdf:resource="http://purl.org/dc/dcmitype/StillImage" />
      </cc:Work>
    </rdf:RDF>
  </metadata>
  <defs
     id="defs4">
    <style
       id="style2"
       type="text/css"><![CDATA[    
     @font-face {font-family:Degrassi Back;
     src: url('/Users/francesco/Repos/write-logos/src/fonts/degrassi_back.ttf');}
     @font-face {font-family:Jellyfish 3d;
     src: url('/Users/francesco/Repos/write-logos/src/fonts/Jellyfish3d-Regular.ttf');}
     ]]></style>
  </defs>
  <g
     id="g14"
     style="font-size:60px">
    <g
       style="text-anchor:middle"
       id="text12"
       aria-label="eXtemporanea">
      <path
         id="path22"
         style="font-family:'Degrassi Back'"
         d="m 203.20094,57.94 -8.16,12.18 h 0.84 l -0.48,5.28 -2.16,1.8 q -6,0 -9.12,-0.72 l 9.78,4.98 -2.4,1.98 -11.28,5.16 0.72,0.3 20.76,-8.94 -1.14,12.84 -2.1,1.86 -20.88,9.36 -13.86,-6.36 -15.72,2.76 -1.62,-3.72 5.58,-8.22 0.48,-2.52 h -0.18 q -1.92,0 -3.24,-1.14 -1.26,-1.14 -1.26,-2.76 0,-1.14 0.78,-2.28 l 8.46,-12.84 -3.72,-0.78 0.3,-4.2 1.8,-2.1 17.22,-1.56 h 10.92 l 1.32,-1.68 15.3,-1.26 z m -24.96,2.52 h -4.62 l -8.76,11.46 z" />
      <path
         id="path24"
         style="font-family:'Jellyfish 3d'"
         d="m 235.32719,96.1 q 0,-0.12 -0.12,-0.12 -0.12,0 -0.12,0.12 0,0.06 0.12,0.06 0.12,0 0.12,-0.06 z m 0.18,-1.2 q 0.3,-0.54 0.18,-0.66 -0.12,-0.12 -0.6,0.24 -0.54,0.42 -1.2,0.66 -0.42,0.18 -0.48,0.24 0,0.06 0.24,0.3 0.3,0.36 0.9,-0.12 0.24,-0.18 0.48,-0.24 0.3,-0.06 0.48,-0.42 z m -0.6,-1.5 q -0.18,0.12 -0.42,0.12 -0.18,0 -0.36,-0.12 -0.18,-0.18 -0.3,-0.18 -0.18,0 -0.6,0.48 -0.42,0.42 -0.42,0.66 0,0.24 0.42,0.24 0.66,0 1.62,-0.72 0.78,-0.6 0.54,-0.66 -0.06,-0.06 -0.48,0.18 z m -21.84,0.6 q -0.3,-0.78 -0.48,-0.84 -0.18,0 -0.18,0.54 0,0.6 -0.6,1.2 -0.54,0.6 -1.2,0.72 -0.84,0.18 -1.86,1.38 -1.08,1.2 -1.08,1.44 0,0.12 0.84,0.12 1.2,0 4.02,-0.3 l 2.46,-0.24 1.14,-1.38 q 1.14,-1.32 1.14,-1.56 0,-0.06 -0.06,-0.06 -0.12,0 -0.6,0.3 -0.66,0.42 -1.32,0.42 -1.44,0 -2.22,-1.74 z m 23.76,-0.9 q 0,-0.48 -0.18,-0.66 -0.06,0 -0.12,0.06 0,0.06 0,0.24 0,0.18 0,0.36 0,0.12 0,0.42 v 0.42 q 0,0.72 -0.48,1.38 -0.54,0.66 -0.54,0.84 0,0.24 0.48,0.24 0.42,0 0.66,-0.06 0.24,0 0.6,-0.06 0.36,-0.06 0.6,-0.06 0.3,-0.06 0.42,-0.06 0.48,0 0.12,-0.66 -0.3,-0.6 -0.96,-1.26 -0.6,-0.6 -0.6,-1.14 z m -2.82,-1.8 q 0,-0.36 -0.36,-0.84 -0.3,-0.48 -0.54,-0.48 -0.3,0 -0.54,0.3 -0.24,0.24 -0.24,0.48 0,0.36 0.3,0.06 0.3,-0.3 0.54,-0.06 0.24,0.18 0.24,0.72 0,0.54 -0.36,0.84 -0.36,0.3 -0.84,0.18 -0.42,-0.06 -0.42,-0.06 0,0.06 0.24,0.54 0.3,0.66 0.48,0.66 0.42,0 0.96,-0.84 0.54,-0.9 0.54,-1.5 z m -17.94,-1.56 q 0.3,0 0.54,0.48 0.24,0.42 0.42,0.42 0.3,0 0.24,0.42 -0.06,0.42 0.06,0.42 0.12,0 0.36,0.6 0.3,0.54 0.3,0.78 -0.06,0.12 -0.3,0.12 -0.24,-0.06 -0.6,-0.18 -0.36,-0.12 -0.54,-0.24 -1.38,-1.26 -1.38,-2.1 0,-0.3 -0.18,-0.18 l -0.24,0.24 q -0.42,0.42 -0.42,0.6 0,0.3 1.02,1.26 1.08,0.96 1.62,1.2 0.54,0.18 0.54,0.66 0,0.36 0.18,0.36 0.3,0 0.3,-0.66 0,-0.54 0.3,-0.66 0.3,-0.12 0.3,-0.84 0,-1.62 -1.02,-3.54 -0.36,-0.78 -0.6,-0.78 -0.24,0 -0.84,0.66 -0.54,0.6 -0.54,0.84 0,0.12 0.48,0.12 z m 14.88,4.38 q 0,-0.06 -0.54,-0.84 -0.48,-0.84 -1.2,-1.98 -0.66,-1.14 -1.38,-2.28 -0.66,-1.14 -1.2,-1.92 -0.48,-0.78 -0.54,-0.78 -0.24,0 -4.08,4.62 -3.78,4.56 -3.78,4.86 0,0.12 0.48,0.12 0.42,0 6.36,-0.36 6,-0.42 6.12,-0.54 0.18,-0.18 -0.24,-0.9 z m 0.66,-7.26 q -0.42,-0.84 -1.56,-0.96 -0.42,-0.06 -1.08,-0.06 -0.96,0 -0.96,0.24 0,0.3 0.48,0.6 0.48,0.3 0.84,0.18 0.42,-0.12 0.42,0 0,0.06 -0.06,0.24 -0.24,0.6 -0.18,0.96 0,0.42 0.36,0.42 0.24,0 0.42,0.48 0.18,0.42 0.3,0.96 0.18,0.54 0.24,0.66 0.18,0.54 0.42,1.02 0.24,0.48 0.24,0.48 0.06,0 0.12,-0.42 0.12,-1.32 0.72,-1.92 0.42,-0.42 0.84,-0.42 0.42,0 0.9,0.48 0.36,0.42 0.3,1.74 l -0.06,1.2 0.6,-0.48 q 0.6,-0.48 0.48,-1.44 -0.06,-0.84 -0.78,-2.16 -0.72,-1.32 -1.2,-1.62 -0.3,-0.18 -0.36,-0.12 -0.06,0.06 -0.06,0.6 0,0.78 -0.24,0.78 -0.3,0 -1.14,-1.44 z m -3.36,-1.68 q -0.24,-0.36 -0.36,-0.36 -0.3,0 0.3,0.48 0.24,0.24 0.24,0.18 0.06,-0.06 -0.18,-0.3 z m -7.74,-0.36 q 0,-0.42 -0.18,-0.42 -0.24,0 -0.24,0.54 0,0.42 0.18,0.42 0.18,-0.12 0.24,-0.54 z m 10.92,-0.48 q 0.24,0.12 0.42,0 -0.06,-0.06 -0.3,-0.12 -0.06,0.06 -0.12,0.12 z m -4.38,-0.36 q -0.12,-0.24 -0.66,-0.24 -0.48,0 -0.36,0.18 0.24,0.36 0.9,0.3 0.24,0 0.12,-0.24 z m -4.92,-0.48 -0.6,-0.6 q -0.36,0 -0.36,1.44 0,2.16 -1.38,2.16 -0.24,0 -0.36,-0.06 -0.6,-0.06 -0.54,0.06 0,0.18 0.54,0.9 1.08,1.26 1.08,2.22 0,0.12 -0.06,0.42 0,0.24 0,0.42 l -0.18,1.32 0.72,-0.84 q 0.24,-0.3 1.98,-2.22 1.2,-1.44 1.2,-1.56 0,-0.18 -0.72,-0.06 -0.18,0.06 -0.42,0.06 -1.02,0 -1.02,-0.96 0,-0.48 0.54,-0.66 0.54,-0.18 0.36,-0.48 -0.3,-0.66 0.54,-0.66 0.54,0 0.54,-0.18 0.06,-0.18 -0.6,-0.18 -0.84,0 -1.26,-0.54 z m 9.12,-1.02 q 0,-0.3 -0.36,-0.66 l -0.42,-0.48 -0.24,0.96 q -0.24,0.9 -0.18,0.96 0.06,0.06 0.6,-0.3 0.6,-0.36 0.6,-0.48 z m -5.1,-0.96 q 0,0.36 0.06,0.36 l 0.06,-0.72 V 81.1 q -0.06,0.24 -0.12,0.42 z m -2.22,-0.18 q -0.12,-0.42 -0.36,-0.54 -0.24,-0.06 -0.24,0.06 -0.06,0.18 0.36,0.54 0.24,0.18 0.24,0.18 0.06,0 0,-0.24 z m 2.64,-6.78 q -0.54,-1.32 -0.78,-0.3 -0.36,1.56 -1.38,1.56 -0.54,0 -0.96,-0.42 -0.36,-0.48 -0.36,-1.08 v -0.54 l -0.6,0.72 q -0.78,1.08 -0.06,1.14 1.32,0 1.32,1.56 0,0.54 -0.12,0.66 -0.06,0.12 -0.36,0 -0.06,0 -0.12,0 -0.06,-0.06 -0.12,-0.06 -0.12,0 -0.12,0.12 0,0.3 0.96,1.68 0.72,1.14 0.72,1.8 0,0.6 -0.54,1.14 l -0.54,0.54 q 0.36,0 1.08,0.06 0.72,0.06 1.08,0.06 l -0.12,-0.72 q -0.18,-1.26 -0.18,-3.18 0,-2.28 0.24,-2.28 h 0.06 q 0.18,0.06 0.36,-0.12 0.18,-0.24 0.42,-0.72 0.42,-0.9 0.12,-1.62 z m 4.02,-0.54 q 0,-0.3 -0.12,-0.42 -0.06,-0.18 -0.18,-0.06 -0.12,0.12 -0.18,0.42 -0.12,0.54 -0.66,1.32 -0.48,0.78 -0.12,0.78 0.42,0 0.42,0.54 0,0.54 -1.02,1.5 -0.9,0.9 -0.72,1.02 0.06,0 0.18,0.06 0.42,0.06 0.42,0.36 0,0.3 -0.84,1.14 -0.9,0.9 -0.96,1.8 -0.12,0.72 0,0.78 0.06,0.06 0.24,-0.18 0.24,-0.36 0.66,-0.36 0.48,0 0.6,0.3 0.24,0.66 0.36,0.12 0.12,-0.3 0.06,-0.78 -0.06,-0.9 0.36,-1.8 0.66,-1.14 0.96,-0.48 0.06,0.12 0.06,0.18 0.06,0 0.12,0 0.12,-0.06 0.24,-0.18 0.12,-0.12 0.36,-0.36 l 0.66,-0.72 -0.54,-0.66 q -0.54,-0.6 -0.54,-1.38 0,-0.48 0.06,-0.6 0.06,-0.12 0.36,0 0.42,0.12 0.42,-0.06 l -0.3,-0.96 q -0.36,-0.84 -0.36,-1.32 z m 5.28,-0.36 q 0.3,0 0.18,-0.18 -0.12,-0.24 -0.18,-0.24 -0.18,0 -0.24,0.24 0.12,0.12 0.24,0.18 z m -10.56,0.42 q 0,-0.48 -0.3,-0.96 -0.24,-0.48 -0.6,-0.48 -0.3,0 -0.48,0.12 -0.12,0.06 -0.06,0.18 0.12,0.12 0.42,0.18 0.54,0.12 0.48,0.96 -0.06,0.72 -0.6,0.9 -0.6,0.12 -0.12,0.3 0.36,0.12 0.78,-0.24 0.48,-0.42 0.48,-0.96 z m -2.64,-1.62 q 0,-0.18 -0.36,-0.18 -0.48,0 -1.2,0.3 -0.72,0.3 -0.72,0.42 0,0.06 0.3,0.06 0.42,0 0.48,0.36 0.12,0.36 0.18,0.36 0.18,0 0.66,-0.42 0.66,-0.66 0.66,-0.9 z m 1.92,-1.02 q 0,-0.48 -0.36,-0.24 -0.48,0.3 -0.18,0.48 0.06,0.06 0.24,0.06 0.3,0 0.3,-0.3 z m 12.84,0.12 q 0.54,-0.12 0.18,-0.36 -0.3,-0.24 -0.66,0 -0.18,0.12 -0.36,0.54 -0.18,0.42 -0.18,0.72 0,0.3 0.18,0.36 0.18,0 0.3,-0.54 0.12,-0.66 0.54,-0.72 z m -3.84,-1.74 q 0,0.18 0.06,0.18 0.18,-0.06 0.12,-0.3 -0.06,-0.06 -0.12,0 -0.06,0.06 -0.06,0.12 z m -10.74,-1.08 q 0.54,-0.06 0.24,-0.36 -0.48,-0.3 -0.78,0.18 -0.18,0.24 0.12,0.24 0.18,0 0.42,-0.06 z m 19.2,-2.58 -4.32,-1.02 q -0.18,0 -1.14,1.2 -0.84,1.08 -0.84,1.32 0,0.18 0.12,0.3 0.3,0.36 0,0.48 -0.36,0.12 -0.66,0.06 -0.24,-0.06 -0.42,0.06 -0.12,0.12 -0.18,0.66 -0.18,1.62 -1.2,1.62 h -0.18 q -0.42,-0.12 -0.96,0.42 -0.36,0.48 -0.12,0.48 0.42,0 0.84,0.48 0.42,0.42 0.42,0.84 0,0.48 -0.48,0.06 -0.3,-0.3 -0.42,-0.3 -0.06,0 -0.3,0.24 -0.06,0.12 -0.12,0.18 -0.6,0.72 -0.36,0.96 0.06,0.06 0.18,0 0.06,-0.06 0.12,0 0.06,0.06 0.06,0.18 0,0.36 0.6,1.26 0.6,0.84 0.84,0.84 0.36,0 0.9,-1.68 0.24,-0.72 0,-1.08 -0.18,-0.24 0.12,-0.66 0.36,-0.48 0,-0.66 -0.3,-0.18 -0.3,-0.66 0,-0.48 0.54,-0.3 0.48,0.18 0.66,-0.24 0.12,-0.36 0.42,-0.24 0.18,0.06 0.66,-0.18 0.66,-0.54 1.38,0 0.12,0.12 0.24,0.12 0.3,0 2.1,-2.04 1.92,-2.28 1.92,-2.58 0,-0.12 -0.12,-0.12 z m -27.18,-7.14 q -1.14,-0.3 -2.1,-0.54 -0.96,-0.3 -1.26,-0.36 -0.3,-0.06 -0.36,-0.06 -0.06,0 -0.06,0.12 0,0.3 3.06,5.28 3.12,4.98 3.3,4.98 0.24,0 0.24,-0.36 0.06,-0.36 0.06,-0.54 0.06,-0.24 0.54,0 0.42,0.3 0.36,1.32 0,0.96 0.12,0.96 0.24,0 0.78,-0.84 0.54,-0.84 0.54,-1.26 l 0.06,-0.6 0.48,0.6 q 0.54,0.54 0.54,1.44 0,0.78 -0.42,1.44 l -0.48,0.72 1.44,-0.12 q 1.5,-0.12 1.74,-0.36 0.3,-0.18 0.36,-0.54 0.12,-0.42 -0.06,-0.72 -0.18,-0.06 -0.24,0.18 0,0.3 -0.36,0.72 -0.3,0.42 -0.6,0.42 -0.36,0 -0.66,-0.48 -0.3,-0.54 -0.3,-1.14 0,-0.72 0.54,-1.38 l 0.54,-0.54 -1.8,-3.24 q -1.86,-3.48 -2.04,-3.72 -0.3,-0.42 -3.96,-1.38 z m -4.92,0.3 q -0.12,-0.96 -0.12,-1.26 0,-0.9 0.78,-0.9 0.48,0 4.5,1.08 4.02,1.08 4.2,1.26 0.18,0.18 6.6,12.24 1.08,2.04 1.38,2.34 0.06,0.06 0.18,0.06 0.3,0 1.44,-1.38 0.42,-0.48 1.08,-1.2 0.66,-0.72 0.78,-0.84 0.18,-0.24 2.46,-2.76 3,-3.48 4.56,-3.48 0.42,0 2.64,0.66 2.28,0.6 2.46,0.78 0.12,0.12 0.12,0.3 0,0.48 -0.78,1.38 -0.48,0.6 -2.28,2.64 -1.8,1.98 -2.28,2.58 -1.14,1.38 -3.78,4.44 l -2.82,3.3 0.54,1.14 q 1.26,2.52 4.38,8.04 2.28,4.2 2.82,5.1 0.6,0.84 1.38,1.38 1.2,0.84 0.72,1.14 -0.24,0.12 -5.76,0.66 -25.5,2.46 -27.66,2.76 -2.52,0.3 -3.06,0.3 -0.72,0 -1.08,-0.18 -0.36,-0.18 -0.36,-0.78 0,-0.78 0.54,-1.68 0.6,-0.96 1.38,-1.26 0.96,-0.36 1.2,-0.36 0.66,0 10.26,-10.62 0.24,-0.24 1.38,-1.5 1.14,-1.26 2.16,-2.4 1.08,-1.14 1.26,-1.32 0.66,-0.78 0.66,-0.96 0,-0.12 -0.06,-0.3 -0.06,-0.18 -0.18,-0.42 -0.12,-0.3 -0.3,-0.54 -0.12,-0.3 -0.42,-0.78 -0.3,-0.48 -0.6,-0.9 -0.24,-0.48 -0.78,-1.26 -0.48,-0.84 -0.9,-1.56 -1.2,-1.86 -3.3,-5.22 -2.04,-3.42 -2.88,-4.8 -1.56,-2.52 -1.98,-3.24 -0.36,-0.78 -0.48,-1.68 z" />
      <path
         id="path26"
         style="font-family:'Degrassi Back'"
         d="m 259.72937,66.1 10.74001,-9.9 9.29999,4.86 11.1,-5.76 -0.41999,4.62 7.91999,-3.78 7.92,8.28 -6.12,6.72 1.26,-0.12 1.38,4.02 -14.52,9.9 -1.07999,12.6 4.19999,4.56 -5.75999,5.16 q -7.02001,-3.3 -15.36001,-3.3 -18.72,0 -18.72,-3.54 0,-0.48 0.06,-0.72 0.12,-0.3 0.24,-0.42 l 5.64,-8.82 -3.66,-0.78 0.3,-4.2 2.34,-2.16 -12.3,-4.08 4.68,-8.16 12.90001,4.8 2.39999,-3.72 z m 15.36001,30.12 0.95999,-12.6 -10.07999,12.6 z" />
      <path
         id="path28"
         style="font-family:'Degrassi Back'"
         d="m 339.50969,57.94 -8.16,12.18 h 0.9 l -0.54,5.28 -2.16,1.8 q -2.94,0 -5.22,-0.18 -2.22,-0.18 -3.84,-0.48 l 9.66,4.92 -2.4,1.98 -11.22,5.16 0.72,0.3 20.76,-8.94 -1.08,12.84 -2.16,1.86 -20.88,9.36 -13.2,-5.82 q -1.44,-0.66 -1.98,-1.92 -0.48,-1.26 -0.48,-2.46 0,-2.04 1.56,-4.14 1.62,-2.1 4.26,-3.3 l 2.04,-0.96 -4.14,-2.1 q -0.96,-0.48 -1.26,-1.2 -0.24,-0.78 -0.24,-1.38 0,-1.32 0.96,-2.28 l 6.24,-5.82 -4.02,1.5 -2.16,-4.08 1.74,-2.04 14.4,-10.8 1.74,1.62 1.8,-2.22 15.3,-1.26 z" />
      <path
         id="path30"
         style="font-family:'Degrassi Back'"
         d="m 394.94875,57.82 q 0.3,2.4 0.42,4.74 0.18,2.28 0.18,4.62 0,3.9 -0.36,8.04 -0.36,4.08 -0.96,8.82 -0.54,4.68 -1.32,10.2 -0.78,5.46 -1.62,12.06 l -2.1,1.68 q -4.2,-1.98 -8.64,-3.48 -4.38,-1.5 -9.06,-2.46 l 1.86,-5.1 1.86,-2.1 q 1.02,0.12 1.8,0.3 0.84,0.12 1.44,0.18 0.78,-6 1.26,-10.62 0.54,-4.62 0.78,-8.04 -3.06,5.04 -7.14,12.48 -4.02,7.44 -9.3,17.64 l -2.1,1.74 -3.48,-1.08 q 1.26,-10.5 2.1,-17.94 0.84,-7.5 1.14,-12.36 -1.98,3.78 -4.32,8.88 -2.34,5.1 -5.04,11.64 l 4.08,4.44 -5.76,5.1 q -3.6,-1.56 -7.92,-2.4 -4.26,-0.84 -9.66,-0.9 l 0.3,-4.38 1.8,-2.04 q 0.9,-0.3 1.56,-0.48 0.66,-0.18 1.26,-0.36 l 2.76,-30.9 -4.32,-2.16 0.54,-3.84 1.8,-2.16 14.4,-1.44 2.4,2.34 -1.38,15.36 q 2.28,-4.5 4.92,-8.7 2.7,-4.2 6.12,-8.04 l 8.16,-0.96 2.34,2.16 q 0.12,1.32 0.18,2.58 0.06,1.2 0.06,2.52 0,1.2 -0.06,2.52 -0.06,1.26 -0.18,2.64 1.86,-2.94 3.78,-5.76 1.98,-2.88 4.56,-5.7 l 9.12,-0.9 1.74,1.62 z" />
      <path
         id="path32"
         style="font-family:'Degrassi Back'"
         d="m 411.29687,78.82 4.2,-2.94 q -2.03999,-0.6 -3.77999,-1.56 z m 25.14,-9.06 q -3.24,2.64 -6.36,5.04 -3.12,2.34 -6.29999,4.62 -3.12,2.28 -6.42001,4.56 -3.3,2.28 -6.95999,4.62 l -0.72001,8.94 4.2,4.56 -5.7,5.16 q -7.38,-3.3 -17.64,-3.36 l 0.30001,-4.38 1.79999,-2.04 q 0.9,-0.3 1.56,-0.48 0.72,-0.18 1.26001,-0.36 0.59999,-6.42 1.01999,-11.04 0.42001,-4.68 0.66,-7.86 0.3,-3.24 0.42,-5.22 0.18,-2.04 0.24,-3.18 0.12,-1.2 0.12,-1.74 0.06,-0.54 0.06,-0.84 l 0.12,-0.12 -4.07999,-2.16 v -3.84 l 1.97999,-2.16 14.46001,-1.44 2.39999,2.1 q 1.02,-0.54 2.22,-1.02 1.20001,-0.54 2.28,-0.9 1.14,-0.36 2.10001,-0.6 0.95999,-0.24 1.56,-0.24 0.17999,0 0.35999,0.06 0.24,0 0.84001,0.3 0.65999,0.24 1.8,0.78 1.14,0.54 3.11999,1.56 -2.88,0.6 -4.26,1.38 -1.38,0.78 -1.38,2.34 0,1.14 1.08,2.46 1.08001,1.26 3,2.34 1.98,1.02 4.74,1.68 2.76,0.66 6.12,0.48 z" />
      <path
         id="path34"
         style="font-family:'Degrassi Back'"
         d="m 449.55625,95.14 q 0,-0.12 -0.42,-1.32 -0.42,-1.26 -0.96,-2.82 -0.48,-1.56 -1.02,-3.12 -0.48,-1.56 -0.66,-2.28 l -0.78,9.78 q 0.42,0.24 1.26,0.24 0.66,0 1.38,-0.12 0.72,-0.18 1.2,-0.36 z m 14.28,-27.3 q -2.22,0.36 -3.3,2.4 -1.08,2.04 -1.08,4.74 0,1.68 0.24,3.54 0.24,1.86 0.66,3.72 0.48,1.8 1.08,3.54 0.66,1.74 1.44,3.18 1.14,2.28 1.14,4.8 0,3.24 -1.5,5.46 -1.44,2.22 -3.78,3.54 -2.28,1.38 -5.16,1.98 -2.88,0.6 -5.7,0.6 -3,0 -5.88,-0.54 -2.88,-0.48 -5.34,-1.32 -2.46,-0.78 -4.44,-1.74 -1.92,-0.96 -3.06,-1.92 l 0.72,-4.5 1.74,-1.86 q 1.02,-11.28 1.5,-17.94 0.54,-6.72 0.6,-9 l -3.9,-2.04 v -3.96 l 2.04,-3.3 h 32.94 z" />
      <path
         id="path36"
         style="font-family:'Degrassi Back'"
         d="m 480.78062,78.94 5.16,-3.24 q -1.25999,-0.36 -2.46,-0.78 -1.14,-0.42 -2.28,-0.84 z m 0.18,26.52 -3.3,1.74 q -3.59999,-1.56 -7.91999,-2.4 -4.26001,-0.84 -9.66001,-0.9 l 0.24,-4.38 1.80001,-2.04 q 0.89999,-0.3 1.62,-0.48 0.71999,-0.18 1.19999,-0.36 l 2.58,-29.82 -4.01999,-2.34 v -3.84 l 2.03999,-2.16 14.4,-1.44 2.34,2.1 q 1.08001,-0.6 2.22001,-1.08 1.19999,-0.54 2.27999,-0.9 1.14,-0.36 2.04,-0.54 0.96,-0.24 1.62,-0.24 0.30001,0 0.66,0.06 0.36,0 0.84,0.24 l 4.92001,2.46 q -3.06,0.48 -4.68,1.74 -1.62,1.26 -1.62,2.1 0,1.14 1.19999,2.4 1.2,1.2 3.30001,2.22 2.15999,0.96 5.03999,1.62 2.94,0.6 6.36,0.6 l -16.32,12.24 4.08,6.84 2.40001,-3.18 h 5.09999 l -1.38,16.44 -2.15999,1.8 h -12.72001 l -6,-10.02 -0.3,3.6 4.26,4.56 z" />
      <path
         id="path38"
         style="font-family:'Degrassi Back'"
         d="m 531.87906,60.22 q -0.06,0.42 -0.06,0.78 0,0.36 0,0.66 0,5.4 0.66,10.68 0.66,5.28 2.22,10.74 1.56,5.46 4.14,11.22 2.58,5.76 6.42,12 l -2.4,1.68 -21.9,-5.7 -5.94,4.92 q -6.12,-3.24 -17.22,-3.3 l 1.44,-4.44 1.86,-2.16 q 2.52,-0.6 3.96,-1.38 3.3,-7.08 5.88,-14.34 2.58,-7.26 4.62,-15.12 l -3.6,-2.22 1.14,-3.66 1.86,-2.16 14.28,-1.32 z" />
      <path
         id="path40"
         style="font-family:'Degrassi Back'"
         d="m 582.02219,58.66 q 0.54,2.34 0.78,4.8 0.24,2.4 0.24,4.92 0,4.2 -0.54,8.52 -0.54,4.26 -1.2,8.52 -0.78,4.92 -2.16,9.96 -1.38,4.98 -3.42,10.8 l -2.1,1.74 q -4.56,-2.7 -10.8,-4.44 l -4.08,3.72 q -3.6,-1.56 -7.92,-2.4 -4.26,-0.84 -9.66,-0.9 l 0.24,-4.38 1.8,-2.04 q 0.9,-0.3 1.56,-0.48 0.72,-0.18 1.26,-0.36 1.14,-12.66 1.74,-20.1 0.66,-7.5 0.72,-10.02 l -3.9,-2.04 v -3.84 l 2.04,-2.16 14.4,-1.44 2.64,2.28 -0.78,7.74 q 1.92,-2.7 4.08,-4.98 2.16,-2.34 4.32,-4.14 l 8.94,-0.84 z m -18.24,36.72 q 2.28,-5.28 3.48,-11.28 1.2,-6.06 1.74,-12 -1.86,2.52 -3.78,6.06 -1.92,3.54 -4.02,8.22 l -0.72,8.52 q 2.58,0.48 3.3,0.48 z" />
      <path
         id="path42"
         style="font-family:'Degrassi Back'"
         d="m 620.29094,57.94 -8.16,12.18 h 0.9 l -0.54,5.28 -2.16,1.8 q -2.94,0 -5.22,-0.18 -2.22,-0.18 -3.84,-0.48 l 9.66,4.92 -2.4,1.98 -11.22,5.16 0.72,0.3 20.76,-8.94 -1.08,12.84 -2.16,1.86 -20.88,9.36 -13.2,-5.82 q -1.44,-0.66 -1.98,-1.92 -0.48,-1.26 -0.48,-2.46 0,-2.04 1.56,-4.14 1.62,-2.1 4.26,-3.3 l 2.04,-0.96 -4.14,-2.1 q -0.96,-0.48 -1.26,-1.2 -0.24,-0.78 -0.24,-1.38 0,-1.32 0.96,-2.28 l 6.24,-5.82 -4.02,1.5 -2.16,-4.08 1.74,-2.04 14.4,-10.8 1.74,1.62 1.8,-2.22 15.3,-1.26 z" />
      <path
         id="path44"
         style="font-family:'Degrassi Back'"
         d="m 642.50406,60.22 q -0.06,0.42 -0.06,0.78 0,0.36 0,0.66 0,5.4 0.66,10.68 0.66,5.28 2.22,10.74 1.56,5.46 4.14,11.22 2.58,5.76 6.42,12 l -2.4,1.68 -21.9,-5.7 -5.94,4.92 q -6.12,-3.24 -17.22,-3.3 l 1.44,-4.44 1.86,-2.16 q 2.52,-0.6 3.96,-1.38 3.3,-7.08 5.88,-14.34 2.58,-7.26 4.62,-15.12 l -3.6,-2.22 1.14,-3.66 1.86,-2.16 14.28,-1.32 z" />
    </g>
  </g>
</svg>
