<?xml version="1.0" encoding="UTF-8" standalone="no"?>
<svg
   xmlns:dc="http://purl.org/dc/elements/1.1/"
   xmlns:cc="http://creativecommons.org/ns#"
   xmlns:rdf="http://www.w3.org/1999/02/22-rdf-syntax-ns#"
   xmlns:svg="http://www.w3.org/2000/svg"
   xmlns="http://www.w3.org/2000/svg"
   id="svg10"
   width="500px"
   version="1.1"
   height="200px">
  <metadata
     id="metadata14">
    <rdf:RDF>
      <cc:Work
         rdf:about="">
        <dc:format>image/svg+xml</dc:format>
        <dc:type
           rdf:resource="http://purl.org/dc/dcmitype/StillImage" />
      </cc:Work>
    </rdf:RDF>
  </metadata>
  <defs
     id="defs4">
    <style
       id="style2"
       type="text/css"><![CDATA[    
     @font-face {font-family:Esmeralda;
     src: url('/Users/francesco/Repos/write-logos/src/fonts//Esmeralda.ttf');}]]></style>
  </defs>
  <g
     id="g8"
     style="font-size:30px;font-family:Esmeralda">
    <g
       style=""
       id="text6"
       aria-label="eXtemporanea">
      <path
         id="path16"
         style=""
         d="m 109.18,95.77 q 0.09,0 0.09,0.03 0.06,0.27 -0.99,1.32 -2.49,2.58 -5.43,2.97 -0.45,0.09 -0.72,0.06 -0.72,-0.12 -1.14,-0.72 -0.39,-0.6 -0.39,-1.53 0,-0.57 0.18,-1.29 0.51,-1.98 1.74,-2.22 0.36,-0.06 0.75,0.15 0.39,0.21 0.57,0.57 0.21,0.48 -0.12,1.17 -0.39,0.66 -1.02,1.11 -0.84,0.42 -0.99,0.45 -0.15,0.03 -0.18,0.09 0,0.06 0.06,0.33 0.15,0.84 0.63,0.93 0.39,0.12 1.65,-0.21 2.01,-0.6 4.83,-2.82 0.09,-0.09 0.21,-0.18 0.12,-0.09 0.18,-0.15 0.06,-0.06 0.09,-0.06 z m -7.56,1.65 v 0.09 l 0.09,-0.06 0.09,-0.06 q 0.09,-0.06 0.12,-0.09 0.57,-0.33 0.96,-0.9 0.42,-0.6 0.3,-0.93 -0.06,-0.15 -0.15,-0.18 -0.24,-0.15 -0.45,-0.06 -0.39,0.18 -0.78,1.17 -0.18,0.48 -0.18,1.02 z" />
      <path
         id="path18"
         style=""
         d="m 121.77156,106.54 q 0.42,0.3 0.42,0.36 -0.03,0.06 -0.27,0.03 -0.21,0 -0.36,-0.06 -1.11,-0.27 -2.52,-1.71 -1.89,-1.95 -4.29,-6.42 -1.59,-3.06 -2.28,-4.56 l -0.33,-0.66 q -0.12,0.15 -0.27,0.36 -0.06,0.06 -2.1,2.94 -4.68,6.63 -6.18,9.12 -0.21,0.36 -0.3,0.51 -0.12,0.18 -0.18,0.27 -0.09,0.12 -0.09,0.12 -0.03,0 -0.06,0 -0.12,-0.03 0,-0.54 0.12,-0.51 0.39,-1.17 1.53,-3.72 7.32,-12 0.75,-1.02 0.75,-1.08 0.03,-0.03 -0.99,-2.07 -0.99,-2.04 -1.53,-3.03 -2.1,-3.78 -3.75,-5.4 -0.72,-0.72 -1.59,-1.23 -0.36,-0.21 -0.36,-0.27 0.12,-0.12 0.66,0.03 0.39,0.09 0.9,0.33 2.79,1.35 6.12,7.32 0.72,1.32 1.32,2.46 0.18,0.45 0.24,0.42 0,-0.03 0.33,-0.48 0.36,-0.45 0.96,-1.32 0.63,-0.87 1.17,-1.65 4.2,-6 4.29,-7.08 0,-0.18 0.09,-0.21 0.15,-0.03 0.21,0.12 0.09,0.15 0.09,0.45 0,0.42 -0.21,1.17 -0.81,2.37 -4.62,8.1 -0.54,0.87 -1.17,1.74 l -0.42,0.63 0.15,0.27 q 0.48,1.02 2.67,5.58 1.83,3.78 3.15,5.73 1.32,1.98 2.64,2.88 z" />
      <path
         id="path20"
         style=""
         d="m 135.62453,84.76 q 0.21,0.09 -0.15,0.12 -0.33,0.03 -1.65,0.03 -2.58,0.06 -6.93,0.27 -0.36,0 -0.75,0.03 -0.39,0.03 -0.63,0.06 -0.24,0 -0.27,0 l -0.15,0.03 -0.03,0.18 q -0.12,0.63 -0.51,2.13 -1.32,4.92 -2.58,7.68 l -0.15,0.39 0.09,0.78 q 0.42,4.05 1.02,5.22 0.09,0.18 0.03,0.18 -0.03,-0.03 -0.06,-0.09 -0.03,-0.03 -0.09,-0.09 -0.06,-0.03 -0.09,-0.06 -0.81,-0.75 -1.5,-4.11 -0.66,-3.39 -0.9,-7.62 -0.12,-2.85 0,-3.96 l 0.03,-0.39 h -0.12 q -0.39,0 -1.47,0.09 -6.18,0.33 -8.34,0.33 -0.84,-0.06 -0.84,-0.12 1.14,-0.45 10.32,-1.11 l 0.51,-0.03 0.03,-0.21 q 0.54,-4.98 2.4,-5.94 0.66,-0.27 1.29,-0.18 0.9,0.18 1.23,1.23 0.18,0.57 0.18,1.65 0,1.17 -0.27,2.76 l -0.03,0.45 q 0.27,0 0.57,-0.03 4.62,-0.18 7.08,-0.03 2.19,0.15 2.73,0.36 z m -12.15,2.82 q 0.06,-0.33 0.18,-0.93 0.12,-0.6 0.21,-0.99 l 0.06,-0.36 q -0.03,-0.03 -1.2,0.06 -1.14,0.06 -1.14,0.09 -0.03,0.03 -0.09,1.47 -0.03,0.66 -0.03,2.46 0.03,1.8 0.06,2.49 0.09,1.35 0.12,2.07 0.06,0.69 0.09,0.63 l 0.33,-1.38 q 1.05,-3.99 1.41,-5.61 z m 0.81,-4.68 q 0.06,-0.51 0.06,-1.53 0,-0.96 -0.06,-1.2 -0.15,-0.57 -0.27,-0.6 -0.03,-0.03 -0.27,-0.03 -0.63,0 -1.2,1.11 -0.54,1.14 -0.81,3.3 -0.06,0.51 -0.09,0.57 l -0.03,0.09 h 0.18 q 0.12,-0.03 1.23,-0.09 1.05,-0.06 1.05,-0.09 0.03,-0.03 0.21,-1.53 z" />
      <path
         id="path22"
         style=""
         d="m 131.97297,95.77 q 0.09,0 0.09,0.03 0.06,0.27 -0.99,1.32 -2.49,2.58 -5.43,2.97 -0.45,0.09 -0.72,0.06 -0.72,-0.12 -1.14,-0.72 -0.39,-0.6 -0.39,-1.53 0,-0.57 0.18,-1.29 0.51,-1.98 1.74,-2.22 0.36,-0.06 0.75,0.15 0.39,0.21 0.57,0.57 0.21,0.48 -0.12,1.17 -0.39,0.66 -1.02,1.11 -0.84,0.42 -0.99,0.45 -0.15,0.03 -0.18,0.09 0,0.06 0.06,0.33 0.15,0.84 0.63,0.93 0.39,0.12 1.65,-0.21 2.01,-0.6 4.83,-2.82 0.09,-0.09 0.21,-0.18 0.12,-0.09 0.18,-0.15 0.06,-0.06 0.09,-0.06 z m -7.56,1.65 v 0.09 l 0.09,-0.06 0.09,-0.06 q 0.09,-0.06 0.12,-0.09 0.57,-0.33 0.96,-0.9 0.42,-0.6 0.3,-0.93 -0.06,-0.15 -0.15,-0.18 -0.24,-0.15 -0.45,-0.06 -0.39,0.18 -0.78,1.17 -0.18,0.48 -0.18,1.02 z" />
      <path
         id="path24"
         style=""
         d="m 147.42297,96.04 q 0.06,0.06 -0.39,0.81 -0.45,0.72 -1.02,1.44 -3.03,3.9 -4.86,3.54 -1.17,-0.27 -1.71,-2.31 -0.18,-0.72 -0.33,-2.07 -0.12,-0.87 -0.15,-0.9 -0.03,-0.09 -0.21,0.33 -0.09,0.27 -0.3,0.81 -0.54,1.44 -1.02,1.8 -0.96,0.6 -1.53,-0.45 -0.18,-0.39 -0.39,-1.89 -0.12,-0.99 -0.27,-1.41 -0.09,-0.24 -0.15,-0.27 -0.03,-0.03 -0.15,0.09 -0.42,0.42 -1.2,2.46 -0.75,1.98 -1.2,2.16 -0.48,0.18 -0.72,-0.18 -0.33,-0.42 -0.33,-1.59 0,-0.9 0.15,-2.13 0.15,-1.26 0.27,-1.26 0.12,0 0.15,1.32 0.09,1.95 0.18,2.73 l 0.06,0.15 0.6,-1.59 q 0.06,-0.18 0.15,-0.48 0.12,-0.33 0.18,-0.51 0.09,-0.21 0.12,-0.3 0.57,-1.47 1.26,-1.8 0.15,-0.09 0.48,-0.09 0.3,0 0.48,0.09 0.51,0.24 0.78,1.02 0.12,0.42 0.33,1.62 0.18,1.14 0.24,1.17 l 0.03,-0.03 q 0.06,-0.06 0.12,-0.21 0.06,-0.18 0.12,-0.36 0.09,-0.18 0.24,-0.54 0.51,-1.41 0.99,-1.83 0.69,-0.57 1.26,-0.12 0.3,0.3 0.48,1.89 0.24,2.1 0.42,2.67 0.3,0.9 0.66,1.02 0.3,0.18 1.02,-0.15 1.23,-0.63 4.08,-3.63 0.6,-0.63 0.81,-0.84 0.24,-0.21 0.27,-0.18 z" />
      <path
         id="path26"
         style=""
         d="m 155.90453,95.86 q 0.09,0 -0.06,0.36 -0.39,0.72 -1.5,1.32 -1.08,0.57 -2.58,0.87 -1.2,0.27 -2.13,0.27 -0.06,0 -0.21,0.24 -0.48,0.84 -0.99,1.05 -0.51,0.24 -0.99,0.09 l -0.15,-0.03 q -0.06,0.06 0.12,3.36 0.09,2.43 0.09,3.93 0,1.83 -0.21,2.25 -0.03,0.18 -0.12,0.09 l -0.03,-0.06 q 0,-0.06 -0.03,-0.15 0,-0.09 0,-0.15 0,-0.06 -0.03,-0.33 -0.03,-0.27 -0.09,-0.69 -0.03,-0.42 -0.09,-0.78 -0.36,-3.21 -0.42,-3.93 -0.57,-6.66 0.3,-8.37 0.39,-0.9 1.26,-0.81 1.53,0.09 1.83,2.01 0.06,0.39 0,1.2 l -0.06,0.33 q 0,0.03 1.05,-0.15 3.06,-0.48 4.68,-1.68 0.3,-0.24 0.36,-0.24 z m -7.59,3.36 q 0.33,-0.33 0.33,-0.48 -0.24,-0.03 -0.54,-0.03 -0.12,0 -0.27,0 -0.15,-0.03 -0.27,-0.03 -0.09,-0.03 -0.12,-0.03 l -0.12,-0.03 v 0.39 0.36 l 0.15,0.09 q 0.3,0.09 0.54,-0.03 0.15,-0.03 0.3,-0.21 z m 0.6,-1.29 q 0.15,-0.66 0.03,-1.2 -0.15,-0.93 -0.57,-1.2 -0.15,-0.09 -0.36,-0.12 l -0.18,-0.03 -0.09,0.15 q -0.27,0.39 -0.36,1.44 -0.03,0.24 -0.06,0.57 0,0.3 0,0.51 0,0.18 0,0.21 0.24,0 0.81,-0.09 l 0.75,-0.09 z" />
      <path
         id="path28"
         style=""
         d="m 166.26062,95.89 q 0.12,0.06 -0.09,0.45 -0.3,0.6 -0.96,1.11 -1.02,0.66 -2.91,0.9 -0.48,0.06 -1.04999,0.06 -0.66001,0.03 -0.69001,0.06 0,0.09 -0.09,0.3 -0.33,1.32 -1.05,2.19 -0.93,0.93 -1.95,0.78 -1.23,-0.18 -1.65,-1.89 -0.12,-0.72 -0.09,-1.59 0,-0.69 -0.03,-0.69 -0.06,-0.03 -0.06,-0.06 0.03,-0.06 0.09,-0.06 0.06,0 0.06,-0.06 0.18,-0.75 0.27,-0.18 l 0.03,0.21 0.39,0.03 q 0.75,0 1.14,0.03 0.78,0.06 1.38001,0.06 l 0.65999,0.03 0.03,-0.15 q 0,-0.72 -0.12,-1.08 -0.27,-0.84 -1.08,-1.08 -0.57,-0.12 -1.08,0.03 -0.65999,0.15 -1.23,0.63 -1.14,0.99 -0.84,2.64 0.12,0.39 0.03,0.39 -0.06,0 -0.36,-0.48 -0.42,-0.81 -0.15,-1.74 0.21,-0.78 0.96,-1.5 1.02,-0.87 2.28,-0.87 1.2,0 1.89,0.81 0.69,0.78 0.69,2.13 v 0.36 l 0.33,-0.03 q 2.22,-0.09 3.27,-0.45 1.02,-0.33 1.62,-0.99 0.33,-0.33 0.36,-0.3 z m -6.78,2.85 q 0.09,-0.27 0.09,-0.33 0,-0.06 -0.24,-0.06 -1.41,-0.12 -2.79,-0.45 l -0.39,-0.09 q -0.12,0.12 0.3,1.74 0.48,1.59 1.56,1.29 0.42,-0.12 0.81,-0.72 0.42,-0.57 0.66,-1.38 z" />
      <path
         id="path30"
         style=""
         d="m 174.35172,95.83 q 0.06,0.03 0,0.27 -0.06,0.21 -0.27,0.66 -0.21,0.45 -0.51,0.96 -1.17,2.01 -2.25,3.06 -0.75,0.78 -1.44,0.99 -0.39,0.06 -0.72,0 -0.78,-0.24 -0.9,-2.34 -0.06,-0.6 -0.06,-1.47 -0.03,-1.56 -0.12,-2.07 -0.06,-0.48 -0.15,-0.57 -0.12,0 -0.21,0.06 -1.05,0.36 -2.1,-0.15 -0.51,-0.21 -0.51,-0.42 0,-0.09 0.42,0 1.11,0.18 2.04,-0.21 0.45,-0.24 0.75,-0.06 0.42,0.18 0.63,0.96 0.21,0.78 0.33,2.58 0.18,2.67 0.3,2.67 0.18,0 0.51,-0.27 0.84,-0.57 2.91,-3.15 1.17,-1.5 1.35,-1.5 z" />
      <path
         id="path32"
         style=""
         d="m 185.19766,95.77 q 0.09,0 -0.09,0.54 -0.48,1.47 -1.68,3.06 -0.72,1.02 -1.56,1.59 -0.66,0.51 -1.35,0.66 -0.45,0.18 -0.9,0.12 -0.93,-0.12 -1.35,-1.26 -0.18,-0.6 -0.18,-1.77 0,-1.11 0.03,-1.32 l 0.03,-0.45 -0.18,0.42 q -0.57,1.2 -1.05,1.71 -0.48,0.48 -0.96,0.66 -1.08,0.57 -1.83,0.09 -0.39,-0.18 -0.66,-0.69 -0.42,-0.81 -0.21,-1.98 0.24,-1.2 0.93,-1.95 1.02,-1.11 2.25,-0.48 0.48,0.33 0.51,0.51 -0.09,0 -0.36,-0.09 -0.6,-0.24 -1.08,-0.09 -0.81,0.24 -1.2,1.41 -0.24,0.75 -0.18,1.5 0.09,0.75 0.45,0.96 0.24,0.15 0.66,0 0.42,-0.15 0.75,-0.51 0.63,-0.6 1.35,-2.64 0.39,-0.93 0.54,-1.11 0.36,-0.3 0.63,-0.3 0.6,0 0.78,0.63 0.06,0.36 0.03,0.81 0,0.42 -0.06,1.44 -0.18,1.95 -0.03,2.58 0.09,0.66 0.39,0.81 0.45,0.27 1.38,-0.24 1.41,-0.75 3.51,-3.78 0.57,-0.84 0.69,-0.84 z" />
      <path
         id="path34"
         style=""
         d="m 195.4975,97.09 q 0.93,-0.9 0.93,-0.78 0,0.03 -0.03,0.12 -0.36,0.93 -2.07,2.7 -1.77,1.8 -3.18,2.34 -0.48,0.45 -1.11,0.3 -0.69,-0.15 -0.96,-1.11 -0.21,-0.66 -0.42,-2.58 -0.15,-2.16 -0.39,-2.55 l -0.06,-0.12 -0.15,0.15 q -0.36,0.39 -1.05,2.19 -0.72,1.86 -1.05,2.16 -0.21,0.21 -0.48,0.21 -0.6,0 -0.78,-0.93 -0.15,-0.87 0.12,-3.24 0.18,-1.08 0.27,-1.08 0.03,0 0.06,0.12 0.06,0.21 0.15,2.43 0.06,1.62 0.18,1.62 0.09,0 0.54,-1.44 0.6,-1.77 1.08,-2.55 0.3,-0.42 0.69,-0.63 0.15,-0.09 0.42,-0.09 0.3,0 0.42,0.09 0.66,0.3 0.87,1.74 0.06,0.42 0.21,1.83 0.15,2.16 0.39,2.61 0.06,0.12 0.15,0.12 0.51,0 1.41,-0.48 1.41,-0.78 3.84,-3.15 z" />
      <path
         id="path36"
         style=""
         d="m 203.80891,95.77 q 0.09,0 0.09,0.03 0.06,0.27 -0.99,1.32 -2.49,2.58 -5.43,2.97 -0.45,0.09 -0.72,0.06 -0.72,-0.12 -1.14,-0.72 -0.39,-0.6 -0.39,-1.53 0,-0.57 0.18,-1.29 0.51,-1.98 1.74,-2.22 0.36,-0.06 0.75,0.15 0.39,0.21 0.57,0.57 0.21,0.48 -0.12,1.17 -0.39,0.66 -1.02,1.11 -0.84,0.42 -0.99,0.45 -0.15,0.03 -0.18,0.09 0,0.06 0.06,0.33 0.15,0.84 0.63,0.93 0.39,0.12 1.65,-0.21 2.01,-0.6 4.83,-2.82 0.09,-0.09 0.21,-0.18 0.12,-0.09 0.18,-0.15 0.06,-0.06 0.09,-0.06 z m -7.56,1.65 v 0.09 l 0.09,-0.06 0.09,-0.06 q 0.09,-0.06 0.12,-0.09 0.57,-0.33 0.96,-0.9 0.42,-0.6 0.3,-0.93 -0.06,-0.15 -0.15,-0.18 -0.24,-0.15 -0.45,-0.06 -0.39,0.18 -0.78,1.17 -0.18,0.48 -0.18,1.02 z" />
      <path
         id="path38"
         style=""
         d="m 214.72891,95.77 q 0.09,0 -0.09,0.54 -0.48,1.47 -1.68,3.06 -0.72,1.02 -1.56,1.59 -0.66,0.51 -1.35,0.66 -0.45,0.18 -0.9,0.12 -0.93,-0.12 -1.35,-1.26 -0.18,-0.6 -0.18,-1.77 0,-1.11 0.03,-1.32 l 0.03,-0.45 -0.18,0.42 q -0.57,1.2 -1.05,1.71 -0.48,0.48 -0.96,0.66 -1.08,0.57 -1.83,0.09 -0.39,-0.18 -0.66,-0.69 -0.42,-0.81 -0.21,-1.98 0.24,-1.2 0.93,-1.95 1.02,-1.11 2.25,-0.48 0.48,0.33 0.51,0.51 -0.09,0 -0.36,-0.09 -0.6,-0.24 -1.08,-0.09 -0.81,0.24 -1.2,1.41 -0.24,0.75 -0.18,1.5 0.09,0.75 0.45,0.96 0.24,0.15 0.66,0 0.42,-0.15 0.75,-0.51 0.63,-0.6 1.35,-2.64 0.39,-0.93 0.54,-1.11 0.36,-0.3 0.63,-0.3 0.6,0 0.78,0.63 0.06,0.36 0.03,0.81 0,0.42 -0.06,1.44 -0.18,1.95 -0.03,2.58 0.09,0.66 0.39,0.81 0.45,0.27 1.38,-0.24 1.41,-0.75 3.51,-3.78 0.57,-0.84 0.69,-0.84 z" />
    </g>
  </g>
</svg>
