<?xml version="1.0" encoding="UTF-8" standalone="no"?>
<svg
   xmlns:dc="http://purl.org/dc/elements/1.1/"
   xmlns:cc="http://creativecommons.org/ns#"
   xmlns:rdf="http://www.w3.org/1999/02/22-rdf-syntax-ns#"
   xmlns:svg="http://www.w3.org/2000/svg"
   xmlns="http://www.w3.org/2000/svg"
   id="svg16"
   width="800px"
   version="1.1"
   height="200px">
  <metadata
     id="metadata20">
    <rdf:RDF>
      <cc:Work
         rdf:about="">
        <dc:format>image/svg+xml</dc:format>
        <dc:type
           rdf:resource="http://purl.org/dc/dcmitype/StillImage" />
      </cc:Work>
    </rdf:RDF>
  </metadata>
  <defs
     id="defs4">
    <style
       id="style2"
       type="text/css"><![CDATA[    
     @font-face {font-family:Fancy Pants NF;
     src: url('/Users/francesco/Repos/write-logos/src/fonts/FancyPantsNF.ttf');}
     @font-face {font-family:Dark Hornet Laser;
     src: url('/Users/francesco/Repos/write-logos/src/fonts/darkhornetlaser.ttf');}
     ]]></style>
  </defs>
  <g
     id="g14"
     style="font-size:60px">
    <g
       style="text-anchor:middle"
       id="text12"
       aria-label="eXtemporanea">
      <path
         id="path22"
         style="font-family:'Fancy Pants NF'"
         d="m 156.085,88.6 q 0,4.86 -3.84,8.16 -3.84,3.24 -8.76,3.24 h -29.22 v -4.56 h 3.72 V 62.32 h -3.78 v -4.56 h 28.98 l 5.4,9.12 -3.9,2.34 -4.08,-6.9 h -7.5 v 10.56 h 2.88 v -3.42 h 4.56 V 80.8 h -4.56 v -3.36 h -2.88 v 18 h 10.2 q 3.12,0 5.64,-1.86 2.58,-1.92 2.58,-4.98 0,-2.1 -1.14,-3.78 -1.08,-1.68 -3.12,-1.68 -1.14,0 -1.86,0.66 -0.66,0.66 -0.66,1.56 0,1.38 1.56,1.74 v 4.32 q -2.88,-0.3 -4.44,-2.04 -1.56,-1.74 -1.56,-4.08 0,-2.64 1.92,-4.68 1.98,-2.04 5.28,-2.04 3.9,0 6.24,3 2.34,3 2.34,7.02 z" />
      <path
         id="path24"
         style="font-family:'Dark Hornet Laser'"
         d="m 194.0275,76.96 -3.78,3.84 3.78,3.78 V 100 h -14.7 v -8.76 l -3,-3.06 -2.94,3.06 V 100 h -14.7 V 84.58 l 3.72,-3.78 -3.72,-3.84 z m -20.64,-15.42 v 8.7 l 2.94,3 3,-3 v -8.7 h 14.7 V 75.7 h -35.34 V 61.54 Z" />
      <path
         id="path26"
         style="font-family:'Fancy Pants NF'"
         d="m 245.30781,59.5 q -2.4,3.96 -10.86,3.96 -1.92,0 -3.9,-0.18 v 32.16 h 4.68 V 100 h -24.48 v -4.56 h 4.68 V 61.48 h -1.8 q -5.22,0 -8.88,2.1 -3.6,2.1 -3.6,6.9 0,2.4 1.14,3.9 1.14,1.44 3.48,1.44 1.2,0 2.1,-0.54 0.9,-0.6 0.9,-1.68 0,-1.32 -1.26,-1.56 v -3.9 q 2.22,0 4.02,1.68 1.8,1.62 1.8,3.78 0,2.94 -2.22,4.86 -2.22,1.92 -5.28,1.92 -4.32,0 -6.78,-2.82 -2.46,-2.82 -2.46,-7.26 0,-3.48 1.44,-6.18 1.5,-2.7 3.96,-4.2 2.52,-1.56 5.46,-2.28 2.94,-0.78 6.24,-0.78 3.54,0 10.56,1.02 7.08,1.02 10.68,1.02 5.4,0 6.48,-1.74 z" />
      <path
         id="path28"
         style="font-family:'Fancy Pants NF'"
         d="m 289.32719,88.6 q 0,4.86 -3.84,8.16 -3.84,3.24 -8.76,3.24 h -29.22 v -4.56 h 3.72 V 62.32 h -3.78 v -4.56 h 28.98 l 5.4,9.12 -3.9,2.34 -4.08,-6.9 h -7.5 v 10.56 h 2.88 v -3.42 h 4.56 V 80.8 h -4.56 v -3.36 h -2.88 v 18 h 10.2 q 3.12,0 5.64,-1.86 2.58,-1.92 2.58,-4.98 0,-2.1 -1.14,-3.78 -1.08,-1.68 -3.12,-1.68 -1.14,0 -1.86,0.66 -0.66,0.66 -0.66,1.56 0,1.38 1.56,1.74 v 4.32 q -2.88,-0.3 -4.44,-2.04 -1.56,-1.74 -1.56,-4.08 0,-2.64 1.92,-4.68 1.98,-2.04 5.28,-2.04 3.9,0 6.24,3 2.34,3 2.34,7.02 z" />
      <path
         id="path30"
         style="font-family:'Fancy Pants NF'"
         d="m 346.64969,100 h -23.52 v -4.56 h 4.02 V 72.82 l -6.36,15.42 h -4.2 l -6.3,-15.18 v 22.38 h 4.68 V 100 h -23.46 v -4.56 h 3.66 V 62.32 h -3.66 v -4.56 h 17.4 l 9.78,23.64 9.72,-23.64 h 17.4 v 4.56 h -3.54 v 33.12 h 4.38 z" />
      <path
         id="path32"
         style="font-family:'Fancy Pants NF'"
         d="m 390.87437,74.92 q 0,5.58 -4.02,10.08 -3.96,4.5 -9.42,4.5 -3.06,0 -5.15999,-1.8 -2.10001,-1.8 -2.10001,-4.86 0,-2.46 1.86,-4.14 1.92001,-1.74 4.44,-1.74 2.28,0 4.2,1.32 l -2.45999,3.54 q -0.96001,-0.54 -1.56,-0.54 -0.72001,0 -1.38,0.54 -0.60001,0.54 -0.60001,1.26 0,0.96 0.9,1.44 0.9,0.42 1.92,0.42 3.54,0 6.18,-3.18 2.64,-3.24 2.64,-6.84 0,-6.36 -4.2,-9.54 -4.2,-3.18 -10.74,-3.18 h -2.82 v 33.24 h 5.46 V 100 h -25.2 v -4.56 h 4.62 V 62.2 h -4.56 v -4.56 h 24.12 q 0.12,0 0.3,0.06 0.24,0 0.30001,0 4.62,0.6 6.48,1.32 5.03999,1.92 7.91999,6.18 2.88,4.26 2.88,9.72 z" />
      <path
         id="path34"
         style="font-family:'Fancy Pants NF'"
         d="m 435.17406,78.76 q 0,8.88 -6.12,15.06 -6.06,6.18 -14.94,6.18 -8.76,0 -14.94,-6.18 -6.18,-6.18 -6.18,-14.94 0,-7.68 4.86,-13.5 4.86,-5.88 12.36,-7.26 v 36.84 q 2.04,0.48 3.9,0.48 7.02,0 11.76,-4.8 4.74,-4.8 4.74,-11.82 0,-4.5 -2.46,-8.46 -2.4,-3.96 -6.6,-3.96 -2.46,0 -4.08,1.74 -1.62,1.68 -1.62,4.26 0,1.2 0.84,2.22 0.84,0.96 1.98,0.96 0.66,0 1.2,-0.42 0.6,-0.42 0.6,-1.08 0,-0.84 -1.14,-1.44 l 2.04,-4.02 q 3.66,1.8 3.66,5.28 0,2.52 -1.92,4.38 -1.86,1.86 -4.38,1.86 -3.06,0 -5.28,-2.22 -2.22,-2.28 -2.22,-5.34 0,-4.68 3.06,-7.68 3.06,-3 7.38,-3 4.14,0 7.32,2.64 3.18,2.64 4.68,6.42 1.5,3.78 1.5,7.8 z" />
      <path
         id="path36"
         style="font-family:'Fancy Pants NF'"
         d="m 485.89094,95.86 q -2.46,4.02 -7.5,4.02 -2.16,0 -3.9,-0.9 -1.68,-0.9 -2.94,-2.76 -1.26,-1.86 -1.92,-3.18 -0.6,-1.38 -1.56,-3.78 -1.32,-3.36 -3.84,-5.94 -2.52,-2.58 -5.76,-3.06 v -4.5 h 2.94 q 2.94,0 5.1,-1.8 2.22,-1.86 2.22,-4.5 0,-2.76 -1.68,-4.44 -1.62,-1.74 -3.78,-2.28 -2.16,-0.54 -4.86,-0.54 h -1.44 v 33.24 h 5.46 V 100 h -25.14 v -4.56 h 4.56 V 62.2 h -3.12 v -4.56 h 20.46 q 5.94,0 10.02,3.06 4.08,3.06 4.08,8.76 0,3.24 -1.86,5.82 -1.86,2.58 -4.92,4.02 2.28,1.92 3.84,4.5 1.62,2.52 2.52,5.4 1.98,6.12 5.82,6.12 2.22,0 3.36,-1.92 z" />
      <path
         id="path38"
         style="font-family:'Fancy Pants NF'"
         d="m 537.77313,100 h -22.68001 v -4.56 h 4.14 l -3.36,-7.02 q -1.97999,0.36 -4.02,0.36 -3.9,0 -7.79999,-1.86 l -4.14001,8.52 h 3.06 V 100 h -13.44 v -4.56 h 5.28001 l 5.21999,-10.68 q -2.76,-1.2 -4.38,-1.2 -1.2,0 -2.09999,0.66 -0.90001,0.6 -0.90001,1.8 0,0.3 0.36,1.2 l -3.83999,2.46 q -1.14001,-1.68 -1.14001,-3.6 0,-3.18 2.22,-5.1 2.22,-1.92 5.46,-1.92 2.76,0 6.3,1.62 l 12.30001,-25.98 20.51999,40.74 h 2.94001 z m -24,-15.9 -4.20001,-8.58 -3.54,7.32 q 2.76,1.38 5.82,1.38 0.6,0 1.92001,-0.12 z" />
      <path
         id="path40"
         style="font-family:'Fancy Pants NF'"
         d="m 589.80719,62.2 h -4.26 V 100 h -7.02 l -19.8,-26.64 v 22.08 h 4.68 V 100 h -23.46 v -4.56 h 3.66 V 62.32 h -3.66 v -4.56 h 12.84 l 18.84,25.32 V 62.2 h -4.26 v -4.5 h 22.44 z" />
      <path
         id="path42"
         style="font-family:'Fancy Pants NF'"
         d="m 633.85844,88.6 q 0,4.86 -3.84,8.16 -3.84,3.24 -8.76,3.24 h -29.22 v -4.56 h 3.72 V 62.32 h -3.78 v -4.56 h 28.98 l 5.4,9.12 -3.9,2.34 -4.08,-6.9 h -7.5 v 10.56 h 2.88 v -3.42 h 4.56 V 80.8 h -4.56 v -3.36 h -2.88 v 18 h 10.2 q 3.12,0 5.64,-1.86 2.58,-1.92 2.58,-4.98 0,-2.1 -1.14,-3.78 -1.08,-1.68 -3.12,-1.68 -1.14,0 -1.86,0.66 -0.66,0.66 -0.66,1.56 0,1.38 1.56,1.74 v 4.32 q -2.88,-0.3 -4.44,-2.04 -1.56,-1.74 -1.56,-4.08 0,-2.64 1.92,-4.68 1.98,-2.04 5.28,-2.04 3.9,0 6.24,3 2.34,3 2.34,7.02 z" />
      <path
         id="path44"
         style="font-family:'Fancy Pants NF'"
         d="m 685.78094,100 h -22.68 v -4.56 h 4.14 l -3.36,-7.02 q -1.98,0.36 -4.02,0.36 -3.9,0 -7.8,-1.86 l -4.14,8.52 h 3.06 V 100 h -13.44 v -4.56 h 5.28 l 5.22,-10.68 q -2.76,-1.2 -4.38,-1.2 -1.2,0 -2.1,0.66 -0.9,0.6 -0.9,1.8 0,0.3 0.36,1.2 l -3.84,2.46 q -1.14,-1.68 -1.14,-3.6 0,-3.18 2.22,-5.1 2.22,-1.92 5.46,-1.92 2.76,0 6.3,1.62 l 12.3,-25.98 20.52,40.74 h 2.94 z m -24,-15.9 -4.2,-8.58 -3.54,7.32 q 2.76,1.38 5.82,1.38 0.6,0 1.92,-0.12 z" />
    </g>
  </g>
</svg>
