<?xml version="1.0" encoding="UTF-8" standalone="no"?>
<svg
   xmlns:dc="http://purl.org/dc/elements/1.1/"
   xmlns:cc="http://creativecommons.org/ns#"
   xmlns:rdf="http://www.w3.org/1999/02/22-rdf-syntax-ns#"
   xmlns:svg="http://www.w3.org/2000/svg"
   xmlns="http://www.w3.org/2000/svg"
   id="svg10"
   width="500px"
   version="1.1"
   height="200px">
  <metadata
     id="metadata14">
    <rdf:RDF>
      <cc:Work
         rdf:about="">
        <dc:format>image/svg+xml</dc:format>
        <dc:type
           rdf:resource="http://purl.org/dc/dcmitype/StillImage" />
      </cc:Work>
    </rdf:RDF>
  </metadata>
  <defs
     id="defs4">
    <style
       id="style2"
       type="text/css"><![CDATA[    
     @font-face {font-family:Fireplace PERSONAL USE ONLY;
     src: url('/Users/francesco/Repos/write-logos/src/fonts//Fireplace_PERSONAL_USE_ONLY.ttf');}]]></style>
  </defs>
  <g
     id="g8"
     style="font-size:30px;font-family:'Fireplace PERSONAL USE ONLY'">
    <g
       style=""
       id="text6"
       aria-label="eXtemporanea">
      <path
         id="path16"
         style=""
         d="m 107.02,93.25 q -0.15,0.06 -0.75,0.27 -0.57,0.18 -1.32,0.39 -0.75,0.18 -1.53,0.36 -0.78,0.18 -1.32,0.21 -0.36,0.69 -0.54,1.41 -0.3,1.11 -0.06,1.83 0.27,0.72 0.9,1.05 0.66,0.3 1.62,0.24 0.96,-0.06 2.1,-0.48 1.83,-0.69 3.6,-1.95 1.77,-1.29 3.03,-2.82 0.15,-0.15 0.33,-0.18 0.21,-0.03 0.36,0.12 0.15,0.12 0.15,0.33 0.03,0.18 -0.09,0.33 -1.32,1.59 -3.21,2.97 -1.86,1.38 -3.84,2.1 -1.5,0.51 -2.88,0.57 -1.38,0.09 -2.4,-0.36 -0.99,-0.45 -1.47,-1.47 -0.48,-1.02 -0.15,-2.67 0.3,-1.5 0.96,-2.76 0.66,-1.29 1.56,-2.31 0.9,-1.02 1.92,-1.8 1.05,-0.78 2.07,-1.26 1.05,-0.51 2.01,-0.69 0.96,-0.21 1.71,-0.09 0.96,0.15 1.53,0.84 0.6,0.69 0.42,1.68 -0.15,0.96 -1.26,2.07 -1.08,1.11 -3.45,2.07 z m 2.55,-5.73 q -1.11,0.06 -2.16,0.63 -1.02,0.54 -1.95,1.41 -0.9,0.87 -1.68,1.95 -0.75,1.08 -1.29,2.16 1.05,-0.27 2.1,-0.54 1.05,-0.3 2.01,-0.78 1.2,-0.54 1.95,-1.26 0.78,-0.75 1.11,-1.47 0.36,-0.72 0.33,-1.29 -0.03,-0.57 -0.42,-0.81 z m -3.03,-7.44 1.59,-1.59 -1.53,-1.5 0.54,-0.57 1.53,1.53 1.62,-1.62 0.51,0.51 -1.62,1.62 1.53,1.53 -0.57,0.54 -1.5,-1.53 -1.59,1.59 z m -7.86,27.18 1.23,-1.23 0.42,0.42 -1.23,1.23 z m 3.18,-2.37 -0.39,-0.39 1.23,-1.26 0.42,0.42 z m -2.7,-1.56 1.17,1.17 -0.42,0.42 -1.17,-1.14 z m 2.31,3.15 0.42,-0.45 1.14,1.17 -0.45,0.42 z m 6.78,-27.6 h 0.84 v -0.84 h -0.84 z m -7.38,27.03 0.6,0.57 -0.57,0.57 -0.57,-0.6 z m 1.59,-0.42 -0.57,0.54 -0.57,-0.57 0.54,-0.57 z m -2.13,-0.99 0.57,-0.57 0.57,0.57 -0.57,0.54 z m -0.99,0.99 0.57,-0.57 0.54,0.57 -0.54,0.54 z" />
      <path
         id="path18"
         style=""
         d="m 155.01766,78.97 q -3,0.18 -5.76,1.2 -2.76,0.99 -5.19,2.64 -2.43,1.62 -4.5,3.78 -2.04,2.13 -3.63,4.59 -0.15,0.27 -0.33,0.57 -0.15,0.27 -0.33,0.54 0.57,2.22 1.56,4.32 1.02,2.07 2.37,3.78 1.35,1.71 2.97,2.88 1.62,1.17 3.42,1.53 0.51,0.12 0.99,0.18 0.51,0.06 1.02,0 0.24,-0.03 0.36,0.12 0.15,0.15 0.15,0.33 0.03,0.21 -0.09,0.36 -0.12,0.15 -0.39,0.15 -2.76,0.33 -5.04,-0.48 -2.28,-0.81 -4.05,-2.43 -1.74,-1.59 -2.97,-3.78 -1.23,-2.22 -1.89,-4.65 -1.62,2.16 -3.66,4.02 -2.01,1.83 -4.35,2.94 -2.31,1.14 -4.89,1.32 -2.58,0.18 -5.31,-0.99 -0.45,-0.12 -1.08,-0.48 -0.63,-0.33 -1.05,-0.78 -0.42,-0.45 -0.45,-0.93 0,-0.48 0.75,-0.87 0.45,-0.09 0.78,0.06 0.36,0.15 0.66,0.45 0.33,0.27 0.6,0.6 0.27,0.33 0.6,0.54 1.08,0.93 2.28,1.26 1.23,0.36 2.49,0.24 1.26,-0.09 2.49,-0.57 1.26,-0.48 2.4,-1.2 1.17,-0.69 2.19,-1.56 1.02,-0.9 1.83,-1.8 0.96,-0.99 1.74,-2.1 0.81,-1.14 1.53,-2.31 -0.21,-1.23 -0.27,-2.43 -0.06,-1.2 0.06,-2.37 0.09,-0.87 0.24,-1.8 0.15,-0.93 0.42,-1.83 0.3,-0.9 0.75,-1.71 0.45,-0.81 1.11,-1.44 -1.02,0.15 -2.1,0.15 -1.05,0 -2.13,-0.03 -1.05,-0.06 -2.1,-0.06 -1.05,-0.03 -2.04,0.12 -0.99,0.06 -1.74,0.54 -0.75,0.48 -1.23,1.2 -0.45,0.69 -0.6,1.5 -0.15,0.81 0.06,1.53 0.24,0.72 0.87,1.23 0.66,0.51 1.8,0.6 0.21,-0.03 0.42,0.09 0.24,0.09 0.39,0.27 0.18,0.15 0.18,0.36 0.03,0.21 -0.18,0.42 -1.11,0.36 -2.07,-0.03 -0.93,-0.42 -1.59,-1.26 -0.63,-0.84 -0.87,-1.98 -0.21,-1.17 0.09,-2.31 0.33,-1.17 1.29,-2.16 0.99,-0.99 2.76,-1.53 0.93,-0.39 1.98,-0.51 1.05,-0.12 2.16,-0.12 1.11,0 2.22,0.06 1.14,0.06 2.16,0.06 1.05,-0.03 1.95,-0.18 0.93,-0.18 1.65,-0.66 0.15,-0.18 0.36,-0.15 0.21,0 0.33,0.15 0.15,0.12 0.15,0.33 0.03,0.18 -0.15,0.33 -0.57,0.6 -1.17,0.99 -0.6,0.39 -1.26,0.63 0,0.03 -0.03,0.03 -1.62,1.68 -2.13,4.14 -0.48,2.46 -0.15,5.19 0.6,-0.96 1.2,-1.86 0.63,-0.9 1.38,-1.77 1.56,-1.8 3.57,-3.6 2.04,-1.8 4.32,-3.06 2.31,-1.26 4.8,-1.65 2.49,-0.42 5.01,0.57 0.21,0.09 0.15,0.33 -0.03,0.21 -0.24,0.21 z m -25.59,29.19 1.59,-1.59 -1.53,-1.5 0.54,-0.57 1.53,1.53 1.62,-1.62 0.51,0.51 -1.62,1.62 1.53,1.53 -0.57,0.54 -1.5,-1.53 -1.59,1.59 z m -10.26,-14.58 h 0.48 v -0.45 l 1.05,1.05 -0.48,0.45 z m -1.98,0.66 1.05,-1.05 v 0.39 h 0.48 l -1.11,1.11 z m 2.46,-1.59 v -0.48 h -0.36 l 1.05,-1.05 0.42,0.42 z m -1.41,0 -0.99,-0.99 0.45,-0.48 0.99,0.99 h -0.45 z m 12.9,14.31 h 0.84 v -0.84 h -0.84 z m -12.45,-14.79 h 0.6 l -0.3,0.3 z m -0.15,0.75 -0.3,0.27 v -0.54 z m 0.87,-0.03 0.24,-0.24 v 0.48 z m -0.45,0.45 0.21,0.24 h -0.45 z" />
      <path
         id="path20"
         style=""
         d="m 145.53062,85.3 q -0.36,0.03 -0.87,0.12 -0.51,0.09 -1.05,0.12 -0.51,0.03 -0.96,-0.06 -0.48,-0.12 -0.78,-0.48 -0.24,-0.24 -0.09,-0.51 0.15,-0.3 0.48,-0.3 0.81,0.06 1.62,0.09 0.84,0.03 1.68,0.06 0.66,-0.12 1.35,-0.3 0.72,-0.21 1.38,-0.48 0.66,-0.3 1.26,-0.66 0.6,-0.39 1.05,-0.87 0.12,-0.18 0.21,-0.36 0.12,-0.21 0.27,-0.39 0.24,-0.36 0.6,-0.39 0.39,-0.06 0.69,0.15 0.3,0.18 0.42,0.54 0.15,0.33 -0.09,0.72 -0.27,0.51 -0.57,1.02 -0.27,0.48 -0.57,0.99 0.72,0 1.53,-0.03 0.84,-0.03 1.95,-0.03 0.48,0 0.48,0.48 0,0.48 -0.48,0.48 -0.48,0 -1.11,0 -0.6,0 -1.38,0.03 -0.39,0 -0.78,0.03 -0.39,0 -0.81,0 -1.65,2.7 -3.42,5.25 -1.74,2.55 -3.27,5.28 -0.51,0.87 -0.66,1.5 -0.12,0.6 -0.03,0.99 0.09,0.36 0.36,0.51 0.3,0.12 0.63,0.06 0.72,-0.12 1.65,-0.75 0.96,-0.66 1.83,-1.44 0.87,-0.81 1.53,-1.56 0.69,-0.78 0.84,-1.14 0.63,-0.21 0.78,-0.06 0.15,0.15 0,0.51 -0.15,0.33 -0.54,0.81 -0.36,0.48 -0.78,0.96 -0.39,0.45 -0.78,0.81 -0.36,0.36 -0.48,0.45 -0.66,0.57 -1.38,1.14 -0.72,0.54 -1.56,0.9 -0.99,0.42 -1.89,0.39 -0.9,-0.03 -1.47,-0.48 -0.6,-0.45 -0.78,-1.26 -0.18,-0.84 0.27,-2.04 0.42,-1.11 1.17,-2.34 0.78,-1.23 1.56,-2.4 0.78,-1.17 1.47,-2.13 0.69,-0.99 0.96,-1.62 l 1.47,-2.31 q -1.43999,0.03 -2.91,0 z m -1.68,22.29 1.2,-1.17 -1.14,-1.11 0.39,-0.42 1.14,1.11 1.2,-1.2 0.36001,0.39 -1.20001,1.2 1.14,1.14 -0.42,0.39 -1.11,-1.14 -1.17,1.17 z m 1.26,-0.9 h 0.63 v -0.6 h -0.63 z" />
      <path
         id="path22"
         style=""
         d="m 157.46922,93.25 q -0.15,0.06 -0.75,0.27 -0.57,0.18 -1.32,0.39 -0.75,0.18 -1.53,0.36 -0.78,0.18 -1.32,0.21 -0.36,0.69 -0.54,1.41 -0.3,1.11 -0.06,1.83 0.27,0.72 0.9,1.05 0.66,0.3 1.62,0.24 0.96,-0.06 2.1,-0.48 1.83,-0.69 3.6,-1.95 1.77,-1.29 3.03,-2.82 0.15,-0.15 0.33,-0.18 0.21,-0.03 0.36,0.12 0.15,0.12 0.15,0.33 0.03,0.18 -0.09,0.33 -1.32,1.59 -3.21,2.97 -1.86,1.38 -3.84,2.1 -1.5,0.51 -2.88,0.57 -1.38,0.09 -2.4,-0.36 -0.99,-0.45 -1.47,-1.47 -0.48,-1.02 -0.15,-2.67 0.3,-1.5 0.96,-2.76 0.66,-1.29 1.56,-2.31 0.9,-1.02 1.92,-1.8 1.05,-0.78 2.07,-1.26 1.05,-0.51 2.01,-0.69 0.96,-0.21 1.71,-0.09 0.96,0.15 1.53,0.84 0.6,0.69 0.42,1.68 -0.15,0.96 -1.26,2.07 -1.08,1.11 -3.45,2.07 z m 2.55,-5.73 q -1.11,0.06 -2.16,0.63 -1.02,0.54 -1.95,1.41 -0.9,0.87 -1.68,1.95 -0.75,1.08 -1.29,2.16 1.05,-0.27 2.1,-0.54 1.05,-0.3 2.01,-0.78 1.2,-0.54 1.95,-1.26 0.78,-0.75 1.11,-1.47 0.36,-0.72 0.33,-1.29 -0.03,-0.57 -0.42,-0.81 z m -3.03,-7.44 1.59,-1.59 -1.53,-1.5 0.54,-0.57 1.53,1.53 1.62,-1.62 0.51,0.51 -1.62,1.62 1.53,1.53 -0.57,0.54 -1.5,-1.53 -1.59,1.59 z m -7.86,27.18 1.23,-1.23 0.42,0.42 -1.23,1.23 z m 3.18,-2.37 -0.39,-0.39 1.23,-1.26 0.42,0.42 z m -2.7,-1.56 1.17,1.17 -0.42,0.42 -1.17,-1.14 z m 2.31,3.15 0.42,-0.45 1.14,1.17 -0.45,0.42 z m 6.78,-27.6 h 0.84 v -0.84 h -0.84 z m -7.38,27.03 0.6,0.57 -0.57,0.57 -0.57,-0.6 z m 1.59,-0.42 -0.57,0.54 -0.57,-0.57 0.54,-0.57 z m -2.13,-0.99 0.57,-0.57 0.57,0.57 -0.57,0.54 z m -0.99,0.99 0.57,-0.57 0.54,0.57 -0.54,0.54 z" />
      <path
         id="path24"
         style=""
         d="m 164.60687,88.36 q 0.57,-0.06 0.99,-0.18 0.45,-0.12 0.84,-0.3 0.42,-0.21 0.81,-0.45 0.42,-0.27 0.9,-0.6 0.33,-0.27 0.6,0.03 0.06,0.78 -0.21,1.65 -0.27,0.84 -0.72,1.74 0.93,-1.02 1.95,-1.89 1.05,-0.87 2.31,-1.53 0.78,-0.33 1.68,-0.12 0.90001,0.21 1.38,1.08 0.3,0.87 0.21,1.71 -0.09,0.84 -0.42,1.62 1.14,-1.14 2.34,-2.16 1.23,-1.02 2.61,-1.89 1.38,-0.69 2.31,-0.51 0.93,0.15 1.32,0.84 0.39,0.66 0.21001,1.71 -0.18001,1.02 -1.02001,2.07 -0.18,0.42 -0.69,1.08 -0.51,0.63 -1.14,1.38 -0.6,0.75 -1.23,1.56 -0.63,0.78 -1.08,1.5 -0.45,0.72 -0.6,1.32 -0.15,0.57 0.18,0.9 1.08001,0.03 2.04,-0.45 0.99,-0.48 1.86,-1.23 0.9,-0.75 1.65,-1.62 0.78,-0.9 1.47001,-1.65 0.11999,-0.15 0.29999,-0.18 0.21,-0.03 0.36,0.09 0.15001,0.15 0.18,0.36 0.03,0.18 -0.09,0.33 -0.39001,0.54 -1.20001,1.41 -0.78,0.84 -1.77,1.68 -0.99,0.81 -2.07,1.5 -1.05,0.66 -2.01,0.84 -0.93,0.18 -1.65,-0.24 -0.69,-0.45 -0.93,-1.86 0.18,-1.53 0.96,-2.79 0.81,-1.26 1.77,-2.46 0.96001,-1.2 1.86,-2.37 0.9,-1.17 1.29001,-2.52 -0.57001,-0.3 -1.29001,-0.09 -0.69,0.21 -1.47,0.75 -0.78,0.54 -1.59,1.29 -0.81,0.75 -1.56,1.5 -0.72,0.75 -1.35,1.44 -0.6,0.66 -1.02,1.02 l -1.62,1.71 q -0.18,0.27 -0.36,0.54 -0.15,0.27 -0.3,0.54 l -2.01,2.91 q -0.24,0.36 -0.63,0.39 -0.36,0.03 -0.66,-0.15 -0.3,-0.18 -0.45,-0.51 -0.12,-0.36 0.09,-0.75 0.12,-0.42 0.75,-1.35 0.66,-0.96 1.47001,-2.13 0.83999,-1.17 1.67999,-2.43 0.84,-1.29 1.38,-2.34 0.54,-1.05 0.6,-1.77 0.06,-0.72 -0.69,-0.78 -0.66,-0.03 -1.5,0.54 -0.81,0.54 -1.74,1.44 -0.9,0.9 -1.83,2.01 -0.93,1.11 -1.8,2.19 -0.84,1.05 -1.56,1.95 -0.72,0.87 -1.2,1.32 -0.3,0.45 -0.63,1.02 -0.33,0.54 -0.69,0.99 -0.39,0.45 -0.81,0.66 -0.45,0.18 -0.99,-0.12 -0.3,-0.24 -0.33,-0.6 -0.06,-0.36 0.15,-0.66 1.62,-2.25 3.06,-4.68 1.44,-2.46 3.15001,-4.68 -0.75,0.33 -1.38001,0.39 -0.6,0.06 -0.84,-0.42 -0.06,-0.48 0.42,-0.54 z m 4.65,16.95 1.2,-1.17 -1.14,-1.11 0.39,-0.42 1.14,1.11 1.2,-1.2 0.36001,0.39 -1.20001,1.2 1.14,1.14 -0.42,0.39 -1.11,-1.14 -1.17,1.17 z m 8.31,-26.04 -0.39,-0.39 1.41,-1.62 0.6,0.6 z m -2.7,-1.92 1.29001,1.53 -0.39001,0.42 -1.53,-1.26 z m 2.31,3.36 0.42,-0.39 1.47,1.23 -0.65999,0.66 z m -3,0.96 1.59,-1.35 0.36,0.39 -1.35,1.56 z m -3.66,22.74 h 0.63 v -0.6 h -0.63 z" />
      <path
         id="path26"
         style=""
         d="m 189.51672,99.82 q -1.23,0.06 -2.4,-0.27 -1.14,-0.36 -2.07,-0.99 -1.44,2.55 -2.88,5.04 -1.47,2.52 -3.06,4.95 -0.3,0.6 -0.75,0.69 -0.48,0.09 -0.81,-0.15 -0.33,-0.21 -0.42,-0.66 -0.09,-0.45 0.36,-0.96 1.53,-2.58 3,-5.19 1.47,-2.58 2.97,-5.22 -0.9,-1.23 -0.81,-2.49 0.06,-0.48 0.54,-0.42 0.48,0.06 0.42,0.51 -0.03,0.78 0.36,1.47 0.99,-1.8 2.01,-3.6 1.02,-1.83 2.07,-3.69 -0.63,0.24 -1.17,0.27 -0.54,0 -0.78,-0.45 -0.03,-0.21 0.09,-0.36 0.15,-0.15 0.33,-0.18 0.57,-0.06 0.96,-0.15 0.42,-0.09 0.78,-0.21 0.36,-0.15 0.69,-0.36 0.36,-0.24 0.84,-0.57 0.15,-0.3 0.48,-0.15 0.24,0.45 0.21,0.93 -0.03,0.48 -0.21,0.96 -0.15,0.48 -0.42,0.96 -0.24,0.45 -0.42,0.84 l -0.42,0.78 q 0.57,-0.87 1.2,-1.65 0.63,-0.81 1.32,-1.41 0.69,-0.63 1.47,-1.02 0.78,-0.39 1.71,-0.42 0.54,-0.03 0.99,0.15 0.45,0.18 0.72,0.6 0.3,0.39 0.36,1.05 0.09,0.63 -0.15,1.56 -0.3,1.32 -0.9,2.55 -0.6,1.23 -1.41,2.34 -0.81,1.11 -1.8,2.07 -0.99,0.93 -2.1,1.71 1.05,-0.09 2.16,-0.54 1.11,-0.48 2.13,-1.17 1.02,-0.69 1.89,-1.47 0.87,-0.81 1.5,-1.53 0.15,-0.15 0.33,-0.18 0.21,-0.03 0.36,0.09 0.15,0.15 0.18,0.36 0.03,0.18 -0.12,0.33 -0.87,1.02 -1.92,1.95 -1.05,0.9 -2.25,1.62 -1.17,0.72 -2.49,1.17 -1.29,0.42 -2.67,0.51 z m 4.86,-12.18 q -0.75,-0.09 -1.62,0.54 -0.87,0.6 -1.77,1.59 -0.9,0.99 -1.77,2.19 -0.87,1.2 -1.62,2.28 -0.39,0.54 -0.69,1.02 -0.3,0.48 -0.57,0.87 -0.21,0.39 -0.42,0.78 -0.18,0.36 -0.42,0.75 0.6,0.39 1.32,0.66 0.75,0.27 1.44,0.42 0.03,-0.06 0.06,-0.06 0.03,-0.03 0.09,-0.09 0.54,-0.51 1.17,-1.26 0.66,-0.75 1.17,-1.32 0.27,-0.27 0.87,-1.05 0.63,-0.81 1.29,-1.83 0.66,-1.02 1.23,-2.1 0.6,-1.11 0.78,-1.95 0.15,-0.72 -0.03,-1.05 -0.15,-0.33 -0.51,-0.39 z m 1.74,-10.56 h 0.69 v -0.6 l 1.47,1.47 -0.69,0.66 z m 0.69,-1.32 v -0.69 h -0.54 l 1.5,-1.53 0.63,0.63 z m -3.54,2.31 1.5,-1.53 v 0.54 h 0.69 l -1.59,1.59 z m 1.5,-2.31 -1.44,-1.41 0.66,-0.69 1.41,1.41 h -0.63 z m 0.63,-0.69 h 0.87 l -0.45,0.42 z m -0.24,1.08 -0.39,0.39 v -0.78 z m 1.29,-0.03 0.36,-0.36 v 0.72 z m -0.66,0.66 0.33,0.3 h -0.66 z" />
      <path
         id="path28"
         style=""
         d="m 198.53594,93.01 q 0.63,-1.08 1.47,-2.22 0.87,-1.14 1.89,-2.04 1.05,-0.93 2.25,-1.53 1.2,-0.63 2.55,-0.69 0.63,-0.21 1.26,0.09 0.63,0.3 1.05,1.23 0.63,1.35 0.3,2.79 -0.33,1.44 -1.05,2.76 1.56,0.84 3.36,0.39 0.18,-0.03 0.33,0.09 0.18,0.09 0.21,0.3 0.06,0.21 -0.06,0.39 -0.12,0.15 -0.33,0.18 -0.99,0.18 -2.04,0.06 -1.05,-0.12 -1.95,-0.6 -0.69,1.05 -1.62,2.07 -0.93,0.99 -1.92,1.8 -0.99,0.81 -1.98,1.32 -0.99,0.51 -1.74,0.57 -0.96,0.03 -1.56,-0.3 -0.6,-0.36 -0.93,-0.93 -0.36,-0.57 -0.42,-1.32 -0.09,-0.75 0,-1.53 0.09,-0.78 0.36,-1.53 0.24,-0.75 0.57,-1.35 z m 7.53,-0.33 q -1.05,-1.56 -1.14,-2.85 -0.06,-1.32 0.45,-2.19 -1.35,0.78 -2.85,2.76 -1.5,1.95 -2.67,4.71 -0.3,0.69 -0.42,1.47 -0.09,0.78 0.09,1.35 0.18,0.57 0.72,0.81 0.54,0.21 1.5,-0.15 0.66,-0.27 1.32,-0.78 0.66,-0.54 1.29,-1.23 0.63,-0.72 1.2,-1.53 0.6,-0.84 1.05,-1.71 -0.27,-0.24 -0.54,-0.66 z m -0.18,-3.03 q 0.06,1.68 1.14,2.82 0.36,-0.75 0.6,-1.5 0.24,-0.75 0.33,-1.38 0.09,-0.63 0,-1.14 -0.09,-0.51 -0.36,-0.81 -0.24,-0.27 -0.54,-0.27 -0.27,-0.03 -0.54,0.21 -0.24,0.24 -0.42,0.75 -0.18,0.51 -0.21,1.32 z m -5.79,-9.48 1.59,-1.59 -1.53,-1.5 0.54,-0.57 1.53,1.53 1.62,-1.62 0.51,0.51 -1.62,1.62 1.53,1.53 -0.57,0.54 -1.5,-1.53 -1.59,1.59 z m 5.16,25.47 1.2,-1.17 -1.14,-1.11 0.39,-0.42 1.14,1.11 1.2,-1.2 0.36,0.39 -1.2,1.2 1.14,1.14 -0.42,0.39 -1.11,-1.14 -1.17,1.17 z m -3.45,-26.67 h 0.84 v -0.84 h -0.84 z m 4.71,25.77 h 0.63 v -0.6 h -0.63 z" />
      <path
         id="path30"
         style=""
         d="m 211.70828,94 q 0.12,-0.21 0.63,-0.87 0.51,-0.66 1.17,-1.53 0.69,-0.87 1.41,-1.89 0.75,-1.02 1.32,-2.01 -0.69,-0.78 -0.9,-1.8 -0.18,-1.02 0.39,-2.07 0.63,-0.78 1.17,-0.69 0.57,0.06 0.93,0.6 0.36,0.51 0.42,1.29 0.06,0.75 -0.3,1.32 -0.15,0.3 -0.3,0.6 -0.15,0.3 -0.3,0.57 0.06,0.09 0.21,0.12 0.18,0.18 0.42,0.27 0.27,0.09 0.57,0.15 0.3,0.03 0.6,0.06 0.3,0 0.54,0.06 0.24,-0.03 0.48,0.09 0.24,0.12 0.39,0.33 0.18,0.18 0.21,0.45 0.06,0.24 -0.09,0.51 -1.02,2.01 -2.37,3.93 -1.32,1.89 -2.43,3.84 -0.21,0.39 -0.24,0.75 0,0.33 0.15,0.57 0.15,0.21 0.48,0.3 0.33,0.09 0.78,-0.06 0.9,-0.27 1.71,-0.81 0.81,-0.57 1.53,-1.26 0.72,-0.69 1.35,-1.44 0.66,-0.78 1.26,-1.53 0.69,-0.21 0.78,0.03 0.09,0.24 -0.21,0.72 -0.27,0.48 -0.84,1.14 -0.54,0.63 -1.11,1.23 -0.57,0.6 -1.08,1.05 -0.48,0.42 -0.63,0.48 -0.66,0.66 -1.47,0.99 -0.81,0.33 -1.59,0.36 -0.75,0 -1.41,-0.24 -0.63,-0.27 -0.99,-0.81 -0.36,-0.54 -0.36,-1.32 0.03,-0.81 0.57,-1.83 0.93,-1.71 1.98,-3.33 1.05,-1.62 2.13,-3.21 -0.51,-0.09 -0.96,-0.3 -0.42,-0.21 -0.81,-0.51 -0.99,1.65 -2.16,3.15 -1.17,1.5 -2.22,3.09 -0.12,0.18 -0.33,0.21 -0.18,0 -0.33,-0.09 -0.15,-0.12 -0.21,-0.3 -0.09,-0.18 0.06,-0.36 z m 2.91,15.81 0.72,0.72 -0.69,0.69 -0.72,-0.72 z m 1.95,-0.51 -0.69,0.69 -0.72,-0.72 0.69,-0.69 z m -2.61,-1.23 0.69,-0.69 0.69,0.69 -0.69,0.69 z m -1.23,1.23 0.69,-0.69 0.69,0.69 -0.69,0.69 z m 3.12,-0.72 -0.51,-0.51 0.93,-0.93 0.51,0.51 z m -3.33,2.31 0.9,-0.9 0.51,0.51 -0.9,0.9 z m 0.6,-3.66 0.84,0.84 -0.54,0.54 -0.84,-0.81 z m 2.22,3.3 0.54,-0.54 0.81,0.81 -0.57,0.54 z m -0.03,-35.07 h 0.39 V 75.1 l 0.84,0.87 -0.39,0.36 z m -1.65,0.57 0.87,-0.87 v 0.3 h 0.39 l -0.9,0.93 z m 2.04,-1.32 v -0.39 h -0.33 l 0.87,-0.87 0.36,0.33 z m -1.17,0 -0.81,-0.81 0.36,-0.39 0.81,0.81 h -0.36 z m 0.36,-0.39 h 0.48 l -0.24,0.24 z m -0.12,0.6 -0.24,0.24 v -0.45 z m 0.72,0 0.21,-0.21 v 0.39 z m -0.39,0.36 0.21,0.18 h -0.39 z" />
      <path
         id="path32"
         style=""
         d="m 236.6125,87.97 q -0.63,1.26 -1.41,2.46 -0.75,1.2 -1.56,2.37 -0.81,1.17 -1.59,2.34 -0.78,1.17 -1.44,2.4 -0.09,0.21 -0.12,0.48 -0.03,0.24 0.03,0.48 0.06,0.21 0.21,0.36 0.18,0.12 0.48,0.09 1.05,-0.12 1.92,-0.63 0.9,-0.51 1.68,-1.2 0.78,-0.72 1.44,-1.53 0.69,-0.84 1.32,-1.62 0.84,-0.3 0.87,0.09 0.06,0.36 -0.45,1.08 -0.51,0.69 -1.41,1.59 -0.87,0.87 -1.89,1.62 -1.02,0.75 -2.04,1.23 -0.99,0.45 -1.68,0.3 -1.41,-0.3 -1.86,-0.99 -0.42,-0.72 -0.27,-1.62 -0.39,0.3 -0.57,0.54 -0.9,0.72 -1.95,1.44 -1.05,0.69 -2.31,0.78 -1.35,-0.3 -1.86,-1.11 -0.54,-0.81 -0.42,-1.92 0.12,-1.11 0.75,-2.4 0.63,-1.29 1.59,-2.55 0.99,-1.26 2.19,-2.37 1.2,-1.11 2.4,-1.89 1.23,-0.78 2.34,-1.08 1.14,-0.3 2.01,0.06 0.45,0.15 0.78,0.45 0.33,0.27 0.57,0.63 l 0.63,-0.9 q 0.24,-0.36 0.6,-0.39 0.39,-0.03 0.69,0.15 0.3,0.18 0.42,0.54 0.12,0.33 -0.09,0.72 z m -2.82,0.75 q -0.27,-0.9 -1.05,-0.9 -0.75,-0.03 -1.77,0.57 -1.02,0.6 -2.19,1.68 -1.14,1.05 -2.19,2.28 -1.05,1.23 -1.89,2.49 -0.84,1.26 -1.23,2.25 -0.36,0.96 -0.15,1.56 0.21,0.57 1.26,0.42 1.44,-0.42 2.61,-1.38 1.2,-0.96 2.22,-2.1 0.51,-1.05 1.2,-2.07 0.72,-1.02 1.17,-1.71 z m -7.08,-5.49 1.59,-1.59 -1.53,-1.5 0.54,-0.57 1.53,1.53 1.62,-1.62 0.51,0.51 -1.62,1.62 1.53,1.53 -0.57,0.54 -1.5,-1.53 -1.59,1.59 z m 4.08,26.85 1.23,-1.23 0.42,0.42 -1.23,1.23 z m 3.18,-2.37 -0.39,-0.39 1.23,-1.26 0.42,0.42 z m -2.7,-1.56 1.17,1.17 -0.42,0.42 -1.17,-1.14 z m 2.31,3.15 0.42,-0.45 1.14,1.17 -0.45,0.42 z m -5.16,-27.27 h 0.84 v -0.84 h -0.84 z" />
      <path
         id="path34"
         style=""
         d="m 239.16812,88.36 q 0.57,-0.06 0.99,-0.18 0.45,-0.12 0.84,-0.3 0.42,-0.21 0.81,-0.45 0.42,-0.27 0.9,-0.6 0.33,-0.27 0.6,0.03 0.06,0.99 -0.39,2.16 -0.45,1.14 -1.14,2.34 1.83,-1.74 3.63,-3.09 1.8,-1.35 3.39,-1.68 0.84,-0.18 1.35,0.12 0.54001,0.3 0.75,0.87 0.21,0.54 0.15,1.26 -0.06,0.69 -0.39,1.32 -0.27,0.75 -0.99,1.68 -0.69,0.9 -1.47,1.89 -0.78,0.96 -1.53,1.92 -0.72,0.93 -1.08,1.77 -0.14999,0.33 -0.24,0.66 -0.09,0.3 -0.03,0.54 0.09,0.21 0.33,0.33 0.24,0.09 0.75,0 0.72,-0.12 1.41,-0.6 0.72,-0.51 1.26,-0.9 0.99,-0.69 1.83,-1.59 0.84,-0.93 1.62,-1.89 0.15,-0.15 0.33,-0.18 0.21,-0.03 0.36,0.09 0.15,0.15 0.18,0.36 0.03,0.18 -0.12,0.33 -0.54,0.66 -1.47,1.68 -0.93,1.02 -2.07,1.92 -1.11,0.9 -2.31,1.47 -1.17,0.57 -2.19,0.3 -0.69,-0.21 -1.05,-0.63 -0.33,-0.45 -0.42,-0.99 -0.06,-0.57 0.09,-1.23 0.15,-0.66 0.42,-1.29 0.39,-0.9 0.99,-1.71 0.6,-0.84 1.26,-1.65 0.66,-0.81 1.32,-1.62 0.66,-0.81 1.14,-1.65 0.54,-0.96 0.21001,-1.41 -0.30001,-0.48 -1.17001,-0.03 -0.81,0.42 -1.89,1.23 -1.08,0.78 -2.25,1.77 -1.14,0.99 -2.31,2.07 -1.14,1.08 -2.1,2.1 -0.63,0.96 -1.08,1.71 -0.24,0.21 -0.44999,0.57 -0.21001,0.33 -0.45001,0.72 -0.24,0.36 -0.48,0.75 -0.27,0.36 -0.54,0.63 -0.42,0.39 -0.77999,0.48 -0.39001,0.09 -0.66001,-0.06 -0.27,-0.15 -0.36,-0.51 -0.12,-0.36 0.03,-0.87 0.15,-0.6 0.66,-1.29 0.48,-0.69 1.17,-1.38 1.08,-1.71 2.16001,-3.42 1.07999,-1.71 2.27999,-3.3 -0.75,0.33 -1.38,0.39 -0.6,0.06 -0.84,-0.42 -0.06,-0.21 0.06,-0.36 0.15,-0.15 0.36,-0.18 z m 0.96,17.31 1.2,-1.17 -1.13999,-1.11 0.38999,-0.42 1.14,1.11 1.2,-1.2 0.36,0.39 -1.2,1.2 1.14,1.14 -0.42,0.39 -1.10999,-1.14 -1.17001,1.17 z m 5.85,-25.14 h 0.57 v -0.51 l 1.23,1.23 -0.57,0.54 z m -2.37,0.81 1.26,-1.26 v 0.45 h 0.57001 l -1.32001,1.32 z m 2.94,-1.92 v -0.57 h -0.45 l 1.26,-1.26 0.51,0.51 z m -1.68,0 -1.2,-1.17 0.54,-0.57 1.17,1.17 h -0.51 z m -3.48,25.35 h 0.63 v -0.6 h -0.63 z m 3.99,-25.92 h 0.72 l -0.36,0.36 z m -0.18,0.9 -0.33,0.33 v -0.66 z m 1.05,-0.03 0.3,-0.3 v 0.6 z m -0.54,0.54 0.27,0.27 h -0.53999 z" />
      <path
         id="path36"
         style=""
         d="m 259.53953,93.25 q -0.15,0.06 -0.75,0.27 -0.57,0.18 -1.32,0.39 -0.75,0.18 -1.53,0.36 -0.78,0.18 -1.32,0.21 -0.36,0.69 -0.54,1.41 -0.3,1.11 -0.06,1.83 0.27,0.72 0.9,1.05 0.66,0.3 1.62,0.24 0.96,-0.06 2.1,-0.48 1.83,-0.69 3.6,-1.95 1.77,-1.29 3.03,-2.82 0.15,-0.15 0.33,-0.18 0.21,-0.03 0.36,0.12 0.15,0.12 0.15,0.33 0.03,0.18 -0.09,0.33 -1.32,1.59 -3.21,2.97 -1.86,1.38 -3.84,2.1 -1.5,0.51 -2.88,0.57 -1.38,0.09 -2.4,-0.36 -0.99,-0.45 -1.47,-1.47 -0.48,-1.02 -0.15,-2.67 0.3,-1.5 0.96,-2.76 0.66,-1.29 1.56,-2.31 0.9,-1.02 1.92,-1.8 1.05,-0.78 2.07,-1.26 1.05,-0.51 2.01,-0.69 0.96,-0.21 1.71,-0.09 0.96,0.15 1.53,0.84 0.6,0.69 0.42,1.68 -0.15,0.96 -1.26,2.07 -1.08,1.11 -3.45,2.07 z m 2.55,-5.73 q -1.11,0.06 -2.16,0.63 -1.02,0.54 -1.95,1.41 -0.9,0.87 -1.68,1.95 -0.75,1.08 -1.29,2.16 1.05,-0.27 2.1,-0.54 1.05,-0.3 2.01,-0.78 1.2,-0.54 1.95,-1.26 0.78,-0.75 1.11,-1.47 0.36,-0.72 0.33,-1.29 -0.03,-0.57 -0.42,-0.81 z m -3.03,-7.44 1.59,-1.59 -1.53,-1.5 0.54,-0.57 1.53,1.53 1.62,-1.62 0.51,0.51 -1.62,1.62 1.53,1.53 -0.57,0.54 -1.5,-1.53 -1.59,1.59 z m -7.86,27.18 1.23,-1.23 0.42,0.42 -1.23,1.23 z m 3.18,-2.37 -0.39,-0.39 1.23,-1.26 0.42,0.42 z m -2.7,-1.56 1.17,1.17 -0.42,0.42 -1.17,-1.14 z m 2.31,3.15 0.42,-0.45 1.14,1.17 -0.45,0.42 z m 6.78,-27.6 h 0.84 v -0.84 h -0.84 z m -7.38,27.03 0.6,0.57 -0.57,0.57 -0.57,-0.6 z m 1.59,-0.42 -0.57,0.54 -0.57,-0.57 0.54,-0.57 z m -2.13,-0.99 0.57,-0.57 0.57,0.57 -0.57,0.54 z m -0.99,0.99 0.57,-0.57 0.54,0.57 -0.54,0.54 z" />
      <path
         id="path38"
         style=""
         d="m 278.91719,87.97 q -0.63,1.26 -1.41,2.46 -0.75,1.2 -1.56,2.37 -0.81,1.17 -1.59,2.34 -0.78,1.17 -1.44,2.4 -0.09,0.21 -0.12,0.48 -0.03,0.24 0.03,0.48 0.06,0.21 0.21,0.36 0.18,0.12 0.48,0.09 1.05,-0.12 1.92,-0.63 0.9,-0.51 1.68,-1.2 0.78,-0.72 1.44,-1.53 0.69,-0.84 1.32,-1.62 0.84,-0.3 0.87,0.09 0.06,0.36 -0.45,1.08 -0.51,0.69 -1.41,1.59 -0.87,0.87 -1.89,1.62 -1.02,0.75 -2.04,1.23 -0.99,0.45 -1.68,0.3 -1.41,-0.3 -1.86,-0.99 -0.42,-0.72 -0.27,-1.62 -0.39,0.3 -0.57,0.54 -0.9,0.72 -1.95,1.44 -1.05,0.69 -2.31,0.78 -1.35,-0.3 -1.86,-1.11 -0.54,-0.81 -0.42,-1.92 0.12,-1.11 0.75,-2.4 0.63,-1.29 1.59,-2.55 0.99,-1.26 2.19,-2.37 1.2,-1.11 2.4,-1.89 1.23,-0.78 2.34,-1.08 1.14,-0.3 2.01,0.06 0.45,0.15 0.78,0.45 0.33,0.27 0.57,0.63 l 0.63,-0.9 q 0.24,-0.36 0.6,-0.39 0.39,-0.03 0.69,0.15 0.3,0.18 0.42,0.54 0.12,0.33 -0.09,0.72 z m -2.82,0.75 q -0.27,-0.9 -1.05,-0.9 -0.75,-0.03 -1.77,0.57 -1.02,0.6 -2.19,1.68 -1.14,1.05 -2.19,2.28 -1.05,1.23 -1.89,2.49 -0.84,1.26 -1.23,2.25 -0.36,0.96 -0.15,1.56 0.21,0.57 1.26,0.42 1.44,-0.42 2.61,-1.38 1.2,-0.96 2.22,-2.1 0.51,-1.05 1.2,-2.07 0.72,-1.02 1.17,-1.71 z m -7.08,-5.49 1.59,-1.59 -1.53,-1.5 0.54,-0.57 1.53,1.53 1.62,-1.62 0.51,0.51 -1.62,1.62 1.53,1.53 -0.57,0.54 -1.5,-1.53 -1.59,1.59 z m 4.08,26.85 1.23,-1.23 0.42,0.42 -1.23,1.23 z m 3.18,-2.37 -0.39,-0.39 1.23,-1.26 0.42,0.42 z m -2.7,-1.56 1.17,1.17 -0.42,0.42 -1.17,-1.14 z m 2.31,3.15 0.42,-0.45 1.14,1.17 -0.45,0.42 z m -5.16,-27.27 h 0.84 v -0.84 h -0.84 z" />
    </g>
  </g>
</svg>
