<?xml version="1.0" encoding="UTF-8" standalone="no"?>
<svg
   xmlns:dc="http://purl.org/dc/elements/1.1/"
   xmlns:cc="http://creativecommons.org/ns#"
   xmlns:rdf="http://www.w3.org/1999/02/22-rdf-syntax-ns#"
   xmlns:svg="http://www.w3.org/2000/svg"
   xmlns="http://www.w3.org/2000/svg"
   id="svg10"
   width="500px"
   version="1.1"
   height="200px">
  <metadata
     id="metadata14">
    <rdf:RDF>
      <cc:Work
         rdf:about="">
        <dc:format>image/svg+xml</dc:format>
        <dc:type
           rdf:resource="http://purl.org/dc/dcmitype/StillImage" />
      </cc:Work>
    </rdf:RDF>
  </metadata>
  <defs
     id="defs4">
    <style
       id="style2"
       type="text/css"><![CDATA[    
     @font-face {font-family:FoglihtenNo07;
     src: url('/Users/francesco/Repos/write-logos/src/fonts//FoglihtenNo07.ttf');}]]></style>
  </defs>
  <g
     id="g8"
     style="font-size:30px;font-family:FoglihtenNo07">
    <g
       style=""
       id="text6"
       aria-label="eXtemporanea">
      <path
         id="path16"
         style=""
         d="m 108.93555,90.390625 q -0.90821,0 -1.55274,0.585937 -0.64453,0.644532 -0.64453,1.464844 v 1.640625 q -0.52734,0 -0.9082,-0.380859 -0.35156,-0.38086 -0.35156,-0.908203 0,-1.259766 0.99609,-2.138672 1.02539,-0.908203 2.46094,-0.908203 h 6.26953 q 0.23437,0 0.23437,-0.263672 0,-2.900391 -1.49414,-4.658203 -1.49414,-1.78711 -3.95508,-1.78711 -2.84179,0 -4.57031,2.138672 -1.72851,2.138672 -1.72851,5.654297 0,3.662109 1.8457,6.269531 1.875,2.607422 4.48242,2.607422 2.57813,0 4.51172,-1.142578 1.96289,-1.142578 2.92969,-3.164062 l 0.43945,0.292968 q -1.05469,2.138672 -3.10547,3.339844 -2.05078,1.201177 -4.77539,1.201177 -3.95508,0 -6.38672,-2.460943 -2.43164,-2.460937 -2.43164,-6.474609 0,-3.632812 2.60742,-6.210937 2.60743,-2.578125 6.29883,-2.578125 3.48633,0 5.625,1.933593 2.13867,1.904297 2.13867,5.039063 v 0.146484 q 0,0.351563 -0.26367,0.615235 -0.26367,0.234375 -0.64453,0.234375 z" />
      <path
         id="path18"
         style=""
         d="m 119.51172,100 v -0.263672 h 0.26367 q 0.9082,0 1.40625,-0.439453 0.49805,-0.439453 1.23047,-1.845703 l 4.01367,-7.822266 -3.80859,-8.144531 q -0.64453,-1.347656 -1.14258,-1.816406 -0.49805,-0.46875 -1.14258,-0.46875 h -0.46875 v -0.263672 h 5.15625 v 0.263672 h -1.58203 v 0.05859 q 0.32227,0.117188 0.76172,0.615235 0.46875,0.46875 0.73242,0.996094 l 3.22266,6.914062 3.45703,-6.386719 q 0.64453,-1.171875 0.64453,-1.611328 0,-0.585937 -1.31836,-0.585937 h -1.02539 v -0.263672 h 5.00976 v 0.263672 h -0.46875 q -0.64453,0 -1.08398,0.439453 -0.41016,0.439453 -1.20117,1.845703 l -3.7207,6.914062 4.21875,9.052735 q 0.67382,1.40625 1.05468,1.845703 0.38086,0.410156 1.08399,0.410156 h 0.49804 V 100 h -6.79687 v -0.292969 h 0.61523 q 0.84961,0 1.20118,-0.146484 0.35156,-0.175781 0.35156,-0.556641 0,-0.205078 -0.55664,-1.435547 l -3.42774,-7.353515 -3.6914,7.236328 q -0.61524,1.201172 -0.61524,1.669922 0,0.351562 0.32227,0.498047 0.32226,0.117187 1.05469,0.117187 h 0.99609 V 100 Z" />
      <path
         id="path20"
         style=""
         d="M 138.70117,96.074219 V 83.828125 h -3.83789 v -0.791016 h 2.19727 q 1.20117,0 2.08007,-0.9375 0.90821,-0.966797 1.23047,-1.875 0.32227,-0.908203 0.32227,-1.376953 v -3.427734 h 0.29297 v 6.328125 q 0,1.02539 -0.38086,1.230469 v 0.05859 q 1.93359,0 7.96875,-0.996093 6.03515,-1.025391 8.73047,-1.025391 5.53711,0 9.19922,4.042969 l -0.17579,0.175781 q -2.34375,-2.578125 -7.76367,-2.578125 -2.87109,0 -8.99414,0.585937 -6.12304,0.585938 -8.58398,0.585938 v 13.007812 q 0,1.289063 0.79101,2.080079 0.82032,0.791015 2.13868,0.791015 1.64062,0 2.7832,-1.083984 1.17187,-1.083985 1.17187,-2.607422 0,-1.40625 -1.02539,-2.373047 -1.02539,-0.996094 -2.49023,-0.996094 -0.55664,0 -0.9375,-0.351562 -0.38086,-0.38086 -0.38086,-0.908203 h 0.58594 q 1.96289,0 3.36914,1.376953 1.40625,1.347656 1.40625,3.251953 0,1.757812 -1.31836,2.988281 -1.31836,1.230474 -3.16406,1.230474 -2.34375,0 -3.7793,-1.142583 -1.43555,-1.142578 -1.43555,-3.017578 z m 20.47852,-4.21875 q -0.79102,0 -1.34766,0.527343 -0.55664,0.498047 -0.55664,1.230469 v 1.669922 q -0.52734,0 -0.9082,-0.380859 -0.35157,-0.410157 -0.35157,-0.9375 0,-1.142578 0.90821,-1.933594 0.9375,-0.820313 2.25586,-0.820313 h 4.27734 q 0.23438,0 0.23438,-0.263671 0,-2.109375 -1.28907,-3.398438 -1.25976,-1.289062 -3.33984,-1.289062 -2.60742,0 -4.21875,1.757812 -1.58203,1.728516 -1.58203,4.570313 0,2.958984 1.78711,5.039062 1.8164,2.080078 4.33594,2.080078 2.10937,0 3.80859,-0.761719 1.72851,-0.791015 2.8125,-2.197265 l 0.35156,0.351562 q -2.49023,3.134771 -6.97265,3.134771 -3.51563,0 -6.03516,-2.10938 -2.49024,-2.109375 -2.49024,-5.068359 0,-3.046875 2.43165,-5.185547 2.46093,-2.138672 5.88867,-2.138672 3.10547,0 4.98047,1.435547 1.90429,1.435547 1.90429,3.779297 v 0.146484 q 0,0.351562 -0.26367,0.615234 -0.26367,0.234375 -0.64453,0.234375 z" />
      <path
         id="path22"
         style=""
         d="M 170.42969,98.183594 V 85.292969 q 0,-0.410157 -0.26367,-0.673828 -0.26368,-0.263672 -0.70313,-0.263672 -0.0586,0 -0.11719,0 l -1.72851,0.146484 -0.0293,-0.175781 2.25586,-0.46875 q 2.05078,-0.410156 2.05078,-2.138672 v -0.117188 h 0.23438 v 3.837891 q 0,2.109375 -0.0586,2.695313 h 0.26367 q 0.17579,-1.230469 0.46875,-2.021485 1.37696,-3.603515 4.62891,-3.603515 2.13867,0 3.01758,1.02539 0.8789,1.025391 0.8789,2.841797 v 1.757813 h 0.11719 q 0.0293,-0.644532 0.29297,-1.523438 0.29297,-0.908203 0.43945,-1.201172 1.52344,-2.90039 4.33594,-2.90039 1.96289,0 3.16406,1.02539 1.20118,1.025391 1.20118,2.871094 v 10.078125 q -0.26368,0.615234 -0.26368,1.171875 0,0.820312 0.49805,1.318359 0.52734,0.498047 1.37695,0.498047 0.76172,0 1.23047,-0.46875 0.46875,-0.46875 0.46875,-1.259765 0,-1.113282 -0.73242,-1.728516 -0.70312,-0.615234 -1.81641,-0.761719 0,-0.439453 1.14258,-0.439453 0.67383,0.410156 1.17188,1.201172 0.49804,0.791016 0.49804,1.728516 0,1.171875 -0.76171,1.875 -0.73243,0.703129 -1.9336,0.703129 -1.31836,0 -2.25586,-1.113286 -0.9082,-1.113281 -0.9082,-2.695312 v -9.84375 q 0,-1.728516 -0.64453,-2.695313 -0.64453,-0.966797 -1.69922,-0.966797 -1.99219,0 -3.22266,1.875 -1.23047,1.845704 -1.23047,4.892579 v 8.408203 q 0,1.054687 0.26368,1.318359 0.26367,0.234375 1.31836,0.234375 h 0.76171 V 100 h -6.32812 v -0.263672 h 1.96289 v -0.05859 q -0.26367,-0.263672 -0.26367,-0.761718 V 86.669922 q 0,-1.728516 -0.64453,-2.695313 -0.64453,-0.966797 -1.69922,-0.966797 -1.99219,0 -3.22266,1.875 -1.23047,1.845704 -1.23047,4.892579 v 8.408203 q 0,1.054687 0.26368,1.318359 0.26367,0.234375 1.31835,0.234375 h 1.0254 V 100 h -7.47071 v -0.263672 h 1.02539 q 1.05469,0 1.28907,-0.234375 0.26367,-0.263672 0.26367,-1.318359 z" />
      <path
         id="path24"
         style=""
         d="m 197.73437,85.292969 q 0,-0.410157 -0.26367,-0.673828 -0.26367,-0.263672 -0.70312,-0.263672 -0.0586,0 -0.11719,0 l -1.72852,0.146484 -0.0293,-0.175781 2.25586,-0.46875 q 0.9375,-0.175781 1.55273,-0.732422 0.61524,-0.556641 0.61524,-1.40625 v -0.117188 h 0.23437 v 3.837891 q 0,2.373047 -0.17578,3.955078 h 0.17578 q 0.35156,-2.695312 2.60742,-4.77539 2.28516,-2.109375 4.92188,-2.109375 3.95508,0 6.38672,2.43164 2.43164,2.431641 2.43164,6.416016 0,2.841797 -1.64063,5.15625 1.78711,1.113281 2.90039,1.757812 1.11328,0.615235 2.8125,1.40625 1.72852,0.791016 3.42774,1.142576 1.69922,0.38086 3.45703,0.38086 4.98047,0 7.96875,-3.07617 L 235,98.300781 q -4.07227,4.482419 -8.99414,4.482419 -1.61133,0 -3.25195,-0.43945 -1.61133,-0.41016 -3.33985,-1.34766 -1.72851,-0.9082 -2.87109,-1.611324 -1.14258,-0.732422 -2.98828,-1.992188 -1.23047,1.347656 -2.90039,2.109375 -1.64063,0.732427 -3.51563,0.732427 -2.28515,0 -3.92578,-1.259771 -1.61133,-1.289062 -1.61133,-3.105468 0,-1.435547 0.9375,-2.314454 0.9668,-0.878906 2.49024,-0.878906 1.75781,0 3.51562,0.732422 1.75781,0.703125 4.01367,2.080078 0.79102,-2.021484 0.79102,-4.658203 0,-3.222656 -1.81641,-5.507812 -1.78711,-2.285157 -4.33593,-2.285157 -2.69532,0 -4.95118,2.25586 -2.22656,2.226562 -2.22656,4.892578 v 12.685543 q 0,1.05469 0.26367,1.28907 0.26367,0.26367 1.31836,0.26367 h 1.02539 v 0.26367 h -7.4707 v -0.26367 h 1.02539 q 1.05469,0 1.28906,-0.26367 0.26367,-0.23438 0.26367,-1.28907 z m 4.18946,10.40039 q 0,1.669922 1.52344,2.841797 1.52343,1.171875 3.6914,1.171875 1.61133,0 2.90039,-0.849609 1.28906,-0.84961 2.10938,-2.431641 -2.34375,-1.582031 -4.01367,-2.402344 -1.66993,-0.820312 -3.10547,-0.820312 -1.40625,0 -2.25586,0.703125 -0.84961,0.673828 -0.84961,1.787109 z" />
      <path
         id="path26"
         style=""
         d="m 227.00195,97.011719 q -3.63281,0 -5.85937,-1.992188 -2.22656,-1.992187 -2.22656,-5.273437 0,-2.988282 2.37304,-5.097657 2.37305,-2.138671 5.71289,-2.138671 3.60352,0 5.80078,1.992187 2.22657,1.992188 2.22657,5.244141 0,3.017578 -2.37305,5.15625 -2.34375,2.109375 -5.6543,2.109375 z m 0.0879,-0.527344 q 2.43164,0 3.89649,-1.699219 1.49414,-1.699219 1.49414,-4.482422 0,-3.017578 -1.64063,-5.126953 -1.64062,-2.138672 -3.95507,-2.138672 -2.43165,0 -3.92579,1.699219 -1.49414,1.699219 -1.49414,4.482422 0,3.017578 1.64063,5.15625 1.66992,2.109375 3.98437,2.109375 z" />
      <path
         id="path28"
         style=""
         d="M 239.33594,98.183594 V 85.292969 q 0,-0.410157 -0.26367,-0.673828 -0.26368,-0.263672 -0.70313,-0.263672 -0.0586,0 -0.11719,0 l -1.72851,0.146484 -0.0293,-0.175781 2.25586,-0.46875 q 0.99609,-0.205078 1.66992,-0.732422 0.70313,-0.556641 0.70313,-1.40625 v -0.117188 h 0.23437 v 3.837891 q 0,1.962891 -0.23437,2.695313 v 0.05859 h 0.23437 q 0.58594,-2.695312 1.96289,-4.189453 1.40625,-1.523437 3.25196,-1.523437 0.9082,0 1.52343,0.234375 0.87891,0.322265 0.87891,1.230468 0,0.527344 -0.38086,0.9375 -0.38086,0.38086 -0.9082,0.38086 -0.52735,0 -0.9375,-0.38086 -0.38086,-0.410156 -0.38086,-0.9375 0,-0.351562 0.20508,-0.673828 v -0.0293 q -2.22657,0 -3.60352,2.25586 -1.34766,2.255859 -1.34766,5.947265 v 6.767579 q 0,1.552734 1.58203,1.552734 h 1.84571 V 100 h -8.29102 v -0.263672 h 1.02539 q 1.55274,0 1.55274,-1.552734 z" />
      <path
         id="path30"
         style=""
         d="m 262.2168,87.460937 q 0,-1.992187 -1.43555,-3.193359 -1.43555,-1.230469 -3.7793,-1.230469 -2.10937,0 -3.28125,1.113282 -1.17187,1.083984 -1.25976,2.871093 l -0.0879,1.816407 h -0.52735 l 0.32227,-6.914063 h 0.29297 l -0.0879,1.552734 q -0.0586,0.703125 -0.11719,0.9375 l 0.20508,0.05859 q 0.14648,-0.439453 0.46875,-0.673828 1.72851,-1.289062 4.04297,-1.289062 3.39843,0 5.44921,1.464843 2.08008,1.464844 2.08008,3.867188 v 7.060547 q 0,2.080078 1.40625,3.544922 1.43555,1.464843 3.42774,1.464843 1.58203,0 2.57812,-0.9375 1.02539,-0.966797 1.02539,-2.373047 0,-1.171875 -0.73242,-1.933593 -0.73242,-0.761719 -1.96289,-0.84961 h -2.37305 v -0.263672 h 0.73243 q 1.05468,0 1.28906,-0.234375 0.26367,-0.234375 0.26367,-1.289062 v -6.738281 q 0,-0.410157 -0.26367,-0.673828 -0.26367,-0.263672 -0.70313,-0.263672 -0.0586,0 -0.11718,0 l -1.72852,0.146484 -0.0293,-0.175781 2.25586,-0.46875 q 0.9375,-0.175781 1.55274,-0.732422 0.61523,-0.556641 0.61523,-1.40625 v -0.117188 h 0.23438 v 3.837891 q 0,2.548828 -0.0586,3.076172 h 0.20508 q 0.0879,-0.791016 0.46875,-1.904297 0.64453,-1.875 2.08008,-2.988281 1.46484,-1.113281 3.28125,-1.113281 2.34375,0 3.63281,1.201171 1.28906,1.201172 1.28906,3.222657 v 11.25 q 0,1.054687 0.23438,1.318359 0.26367,0.234375 1.31836,0.234375 h 1.05469 V 100 h -7.47071 v -0.263672 h 2.8418 v -0.05859 q -0.26367,-0.263672 -0.26367,-0.761718 V 87.431641 q 0,-4.423829 -2.8711,-4.423829 -2.28515,0 -3.77929,1.992188 -1.49414,1.992187 -1.49414,5.15625 v 1.875 q 0,0.966797 0.41015,2.460937 0.35156,1.31836 0.35156,2.109375 0,1.699219 -1.17187,2.871094 -1.17188,1.142574 -2.98828,1.142574 -2.57813,0 -4.39453,-1.699214 -1.81641,-1.699219 -1.81641,-4.101563 h -0.14648 l -0.14649,0.673828 q -0.41015,1.640625 -1.58203,2.783203 -1.17187,1.113282 -2.40234,1.552735 -1.23047,0.410161 -2.40235,0.410161 -2.7539,0 -4.45312,-1.259771 -1.66992,-1.289062 -1.66992,-3.398437 0,-2.402344 1.66992,-3.867188 1.66992,-1.49414 4.42383,-1.49414 1.78711,0 3.04687,0.996093 1.28906,0.966797 1.28906,2.34375 0,0.556641 -0.38086,0.9375 -0.35156,0.38086 -0.8789,0.38086 v -1.376953 q 0,-1.142578 -0.9082,-1.933594 -0.90821,-0.820313 -2.16797,-0.820313 -1.69922,0 -2.72461,1.31836 -1.02539,1.289062 -1.02539,3.427734 0,1.78711 1.14257,2.871094 1.14258,1.083984 2.98829,1.083984 2.37304,0 4.04296,-1.757812 1.66993,-1.78711 1.66993,-4.306641 z" />
      <path
         id="path32"
         style=""
         d="m 294.38477,90.390625 q -0.90821,0 -1.55274,0.585937 -0.64453,0.644532 -0.64453,1.464844 v 1.640625 q -0.52734,0 -0.9082,-0.380859 -0.35157,-0.38086 -0.35157,-0.908203 0,-1.259766 0.9961,-2.138672 1.02539,-0.908203 2.46094,-0.908203 h 6.26953 q 0.23437,0 0.23437,-0.263672 0,-2.900391 -1.49414,-4.658203 -1.49414,-1.78711 -3.95508,-1.78711 -2.84179,0 -4.57031,2.138672 -1.72852,2.138672 -1.72852,5.654297 0,3.662109 1.84571,6.269531 1.875,2.607422 4.48242,2.607422 2.57812,0 4.51172,-1.142578 1.96289,-1.142578 2.92969,-3.164062 l 0.43945,0.292968 q -1.05469,2.138672 -3.10547,3.339844 -2.05078,1.201177 -4.77539,1.201177 -3.95508,0 -6.38672,-2.460943 -2.43164,-2.460937 -2.43164,-6.474609 0,-3.632812 2.60742,-6.210937 2.60742,-2.578125 6.29883,-2.578125 3.48633,0 5.625,1.933593 2.13867,1.904297 2.13867,5.039063 v 0.146484 q 0,0.351563 -0.26367,0.615235 -0.26367,0.234375 -0.64453,0.234375 z" />
      <path
         id="path34"
         style=""
         d="m 317.64648,87.460937 q 0,-1.992187 -1.43554,-3.193359 -1.43555,-1.230469 -3.7793,-1.230469 -2.10937,0 -3.28125,1.113282 -1.17187,1.083984 -1.25977,2.871093 l -0.0879,1.816407 h -0.52734 l 0.32227,-6.914063 h 0.29296 l -0.0879,1.552734 q -0.0586,0.703125 -0.11718,0.9375 l 0.20507,0.05859 q 0.14649,-0.439453 0.46875,-0.673828 1.72852,-1.289062 4.04297,-1.289062 3.39844,0 5.44922,1.464843 2.08008,1.464844 2.08008,3.867188 v 10.078125 q 0,0.908203 0.14648,1.201172 0.17579,0.292968 0.82032,0.292968 l 0.58593,-0.0293 0.49805,-0.0293 0.0293,0.263672 q -1.72852,0.175781 -3.19336,0.644529 v -0.23437 q 0,-0.878909 -0.32227,-2.636722 -0.23437,-1.318359 -0.23437,-1.904297 h -0.29297 q -0.41016,1.640625 -1.58203,2.783203 -1.17188,1.113282 -2.40235,1.552735 -1.23046,0.410161 -2.40234,0.410161 -2.75391,0 -4.45312,-1.259771 -1.66993,-1.289062 -1.66993,-3.398437 0,-2.402344 1.66993,-3.867188 1.66992,-1.49414 4.42382,-1.49414 1.78711,0 3.04688,0.996093 1.28906,0.966797 1.28906,2.34375 0,0.556641 -0.38086,0.9375 -0.35156,0.38086 -0.8789,0.38086 v -1.376953 q 0,-1.142578 -0.90821,-1.933594 -0.9082,-0.820313 -2.16797,-0.820313 -1.69921,0 -2.72461,1.31836 -1.02539,1.289062 -1.02539,3.427734 0,1.78711 1.14258,2.871094 1.14258,1.083984 2.98828,1.083984 2.37305,0 4.04297,-1.757812 1.66992,-1.78711 1.66992,-4.306641 z" />
    </g>
  </g>
</svg>
