<?xml version="1.0" encoding="UTF-8" standalone="no"?>
<svg
   xmlns:dc="http://purl.org/dc/elements/1.1/"
   xmlns:cc="http://creativecommons.org/ns#"
   xmlns:rdf="http://www.w3.org/1999/02/22-rdf-syntax-ns#"
   xmlns:svg="http://www.w3.org/2000/svg"
   xmlns="http://www.w3.org/2000/svg"
   id="svg16"
   width="800px"
   version="1.1"
   height="200px">
  <metadata
     id="metadata20">
    <rdf:RDF>
      <cc:Work
         rdf:about="">
        <dc:format>image/svg+xml</dc:format>
        <dc:type
           rdf:resource="http://purl.org/dc/dcmitype/StillImage" />
      </cc:Work>
    </rdf:RDF>
  </metadata>
  <defs
     id="defs4">
    <style
       id="style2"
       type="text/css"><![CDATA[    
     @font-face {font-family:FoglihtenNo07calt;
     src: url('/Users/francesco/Repos/write-logos/src/fonts/FoglihtenNo07calt.ttf');}
     @font-face {font-family:Heilig;
     src: url('/Users/francesco/Repos/write-logos/src/fonts/Heilig-Regular.ttf');}
     ]]></style>
  </defs>
  <g
     id="g14"
     style="font-size:60px">
    <g
       style="text-anchor:middle"
       id="text12"
       aria-label="eXtemporanea">
      <path
         id="path22"
         style="font-family:FoglihtenNo07calt"
         d="m 138.4375,82.597656 q 0,-7.265625 5.21484,-12.421875 5.21485,-5.15625 12.59766,-5.15625 7.03125,0 11.25,3.867188 4.27734,3.808593 4.27734,10.078125 v 0.46875 h 26.60157 q 4.6289,0 9.08203,-1.933594 4.51172,-1.992188 7.08984,-4.863281 l 0.35156,0.351562 q -8.61328,9.492188 -19.16015,9.492188 -3.69141,0 -13.06641,-0.761719 -9.375,-0.761719 -12.71484,-0.761719 L 153.90625,80.78125 q -1.81641,0 -3.10547,1.230469 -1.28906,1.171875 -1.28906,2.871093 v 3.28125 q -1.05469,0 -1.81641,-0.761718 -0.70312,-0.761719 -0.70312,-1.816407 0,-2.519531 1.99218,-4.277343 2.05079,-1.816407 4.92188,-1.816407 h 12.53906 q 0.46875,0 0.46875,-0.527343 0,-5.800782 -2.98828,-9.316407 -2.98828,-3.574218 -7.91016,-3.574218 -5.625,0 -9.14062,4.277343 -3.45703,4.277344 -3.45703,11.308594 0,7.324219 3.6914,12.539063 3.75,5.214843 8.96485,5.214843 5.15625,0 9.02344,-2.285156 3.92578,-2.285156 5.85937,-6.328125 l 0.87891,0.585938 q -2.10938,4.277343 -6.21094,6.679687 -4.10156,2.402344 -9.55078,2.402344 -7.91016,0 -12.77344,-4.921875 Q 138.4375,90.625 138.4375,82.597656 Z" />
      <path
         id="path24"
         style="font-family:Heilig"
         d="m 247.89062,59.628906 q -1.58203,2.988281 -5.50781,10.957031 -1.99219,4.042969 -5.625,11.191407 5.21485,9.023437 7.67578,14.648437 0.41016,0.820313 0.41016,1.757813 0,1.347656 -0.76172,2.343746 -0.76172,0.9961 -1.875,0.9961 -0.52734,0 -1.17187,-0.35156 -0.64454,-0.64454 -1.40625,-2.10938 -0.76172,-1.464844 -2.28516,-4.628906 -2.28516,-4.804688 -3.39844,-6.738282 l -3.51562,7.5 q -0.87891,2.050782 -2.10938,4.628907 -0.41015,1.113281 -1.05469,1.640621 -0.64453,0.58594 -1.52343,0.70313 -0.70313,0.17578 -1.58203,0.17578 -1.69922,0 -3.45704,-0.64453 -1.69921,-0.58594 -2.7539,-1.757814 -1.05469,-1.230469 -0.82031,-2.929687 0.17578,-1.40625 2.16796,-4.980469 2.05079,-3.574219 2.28516,-3.984375 1.75781,-3.222656 6.5625,-11.542969 -1.34766,-2.753906 -2.8125,-5.214844 -1.46484,-2.519531 -1.75781,-3.046875 -2.75391,-4.628906 -4.33594,-7.851562 -0.23437,-0.644531 0.52734,-1.640625 0.76172,-0.996094 1.52344,-0.996094 0.35156,0 0.58594,0.175781 0.82031,0.410157 1.69922,1.757813 0.9375,1.289062 2.28515,3.574219 0.70313,1.230468 0.76172,1.347656 l 0.9375,1.464844 3.39844,5.625 q 1.75781,-2.929688 2.57813,-4.394532 3.86718,-6.621093 7.03125,-11.660156 0.35156,-0.820312 1.58203,-0.820312 1.11328,0 2.51953,0.644531 1.40625,0.644531 2.34375,1.640625 0.99609,0.9375 0.99609,1.933594 0,0.234375 -0.11719,0.585937 z m -5.91796,-0.351562 q -0.76172,0 -1.40625,0.585937 -0.58594,0.585938 -0.58594,1.40625 0,0.820313 0.58594,1.40625 0.58593,0.585938 1.40625,0.585938 0.82031,0 1.40625,-0.585938 0.58593,-0.585937 0.58593,-1.40625 0,-0.820312 -0.58593,-1.40625 -0.58594,-0.585937 -1.40625,-0.585937 z m -4.16016,8.144531 q -0.76172,0 -1.40625,0.585937 -0.58594,0.585938 -0.58594,1.40625 0,0.820313 0.58594,1.40625 0.58594,0.585938 1.40625,0.585938 0.82031,0 1.40625,-0.585938 0.58594,-0.585937 0.58594,-1.40625 0,-0.820312 -0.58594,-1.40625 -0.58594,-0.585937 -1.40625,-0.585937 z m -5.50781,9.199219 q -0.76172,0 -1.40625,0.585937 -0.58594,0.585938 -0.58594,1.40625 0,0.820313 0.58594,1.40625 0.58593,0.585938 1.40625,0.585938 0.82031,0 1.40625,-0.585938 0.58593,-0.585937 0.58593,-1.40625 0,-0.820312 -0.58593,-1.40625 -0.58594,-0.585937 -1.40625,-0.585937 z m -4.7461,8.320312 q -0.76172,0 -1.40625,0.585938 -0.58593,0.585937 -0.58593,1.40625 0,0.820312 0.58593,1.40625 0.58594,0.585937 1.40625,0.585937 0.82032,0 1.40625,-0.585937 0.58594,-0.585938 0.58594,-1.40625 0,-0.820313 -0.58594,-1.40625 -0.58593,-0.585938 -1.40625,-0.585938 z m -4.04297,8.671875 q -0.76171,0 -1.40625,0.585938 -0.58593,0.585937 -0.58593,1.40625 0,0.820312 0.58593,1.40625 0.58594,0.585937 1.40625,0.585937 0.82032,0 1.40625,-0.585937 0.58594,-0.585938 0.58594,-1.40625 0,-0.820313 -0.58594,-1.40625 -0.58593,-0.585938 -1.40625,-0.585938 z" />
      <path
         id="path26"
         style="font-family:FoglihtenNo07calt"
         d="M 256.5625,92.148437 V 67.65625 h -7.67578 v -1.582031 h 4.39453 q 2.40234,0 4.16016,-1.875 1.8164,-1.933594 2.46093,-3.75 0.64453,-1.816407 0.64453,-2.753907 v -6.855468 h 0.58594 v 12.65625 q 0,2.050781 -0.76172,2.460937 v 0.117188 q 3.86719,0 15.9375,-1.992188 12.07032,-2.050781 17.46094,-2.050781 11.07422,0 18.39844,8.085937 l -0.35156,0.351563 q -4.6875,-5.15625 -15.52735,-5.15625 -5.80078,0 -18.04687,1.171875 -12.1875,1.171875 -17.10938,1.171875 v 26.015625 q 0,2.578125 1.58203,4.160156 1.64063,1.582031 4.27735,1.582031 3.28125,0 5.5664,-2.167968 2.34375,-2.167969 2.34375,-5.214844 0,-2.8125 -2.05078,-4.746094 -2.05078,-1.992187 -4.98047,-1.992187 -1.11328,0 -1.875,-0.703125 -0.76172,-0.761719 -0.76172,-1.816407 h 1.17188 q 3.92578,0 6.73828,2.753907 2.8125,2.695312 2.8125,6.503906 0,3.515625 -2.63672,5.976562 -2.63672,2.460938 -6.32812,2.460938 -4.6875,0 -7.5586,-2.285156 -2.87109,-2.285157 -2.87109,-6.035157 z m 40.95703,-8.4375 q -1.58203,0 -2.69531,1.054688 -1.11328,0.996094 -1.11328,2.460937 v 3.339844 q -1.05469,0 -1.81641,-0.761719 -0.70312,-0.820312 -0.70312,-1.875 0,-2.285156 1.8164,-3.867187 1.875,-1.640625 4.51172,-1.640625 h 8.55469 q 0.46875,0 0.46875,-0.527344 0,-4.21875 -2.57813,-6.796875 -2.51953,-2.578125 -6.67968,-2.578125 -5.21485,0 -8.4375,3.515625 -3.16407,3.457031 -3.16407,9.140625 0,5.917969 3.57422,10.078125 3.63281,4.160156 8.67188,4.160156 4.27734,0 7.67578,-1.523437 3.39844,-1.582031 5.5664,-4.394531 l 0.70313,0.703125 q -4.98047,6.269531 -13.94531,6.269531 -7.03125,0 -12.07032,-4.21875 -4.98046,-4.21875 -4.98046,-10.136719 0,-6.035156 4.86328,-10.3125 4.92187,-4.335937 11.77734,-4.335937 6.21094,0 9.96094,2.871093 3.80859,2.871094 3.80859,7.558594 V 82.1875 q 0,0.703125 -0.52734,1.230469 -0.52735,0.46875 -1.28906,0.46875 z" />
      <path
         id="path28"
         style="font-family:FoglihtenNo07calt"
         d="m 320.01953,96.367187 v -25.78125 q 0,-0.820312 -0.52734,-1.347656 -0.52735,-0.527344 -1.40625,-0.527344 -0.11719,0 -0.23438,0 l -3.45703,0.292969 -0.0586,-0.351562 4.51172,-0.9375 q 4.10156,-0.820313 4.10156,-4.277344 v -0.234375 h 0.46875 v 7.675781 q 0,4.21875 -0.11719,5.390625 h 0.52734 q 0.35157,-2.460937 0.9375,-4.042969 2.75391,-7.207031 9.25782,-7.207031 4.27734,0 6.03515,2.050781 1.75782,2.050782 1.75782,5.683594 v 3.515625 h 0.23437 q 0.0586,-1.289062 0.58594,-3.046875 0.58594,-1.816406 0.8789,-2.402344 3.04688,-5.800781 8.67188,-5.800781 3.92578,0 6.32812,2.050781 2.40235,2.050782 2.40235,5.742188 v 20.15625 q -0.52735,1.230469 -0.52735,2.34375 0,1.640625 0.9961,2.636719 1.05469,0.996093 2.7539,0.996093 1.52344,0 2.46094,-0.9375 0.9375,-0.9375 0.9375,-2.519531 0,-2.226562 -1.46484,-3.457031 -1.40625,-1.230469 -3.63281,-1.523438 0,-0.878906 2.28515,-0.878906 1.34766,0.820313 2.34375,2.402344 0.9961,1.582031 0.9961,3.457031 0,2.34375 -1.52344,3.75 -1.46485,1.406249 -3.86719,1.406249 -2.63672,0 -4.51172,-2.226561 -1.8164,-2.226563 -1.8164,-5.390625 v -19.6875 q 0,-3.457032 -1.28907,-5.390625 -1.28906,-1.933594 -3.39843,-1.933594 -3.98438,0 -6.44532,3.75 -2.46093,3.691406 -2.46093,9.785156 v 16.816406 q 0,2.109375 0.52734,2.636719 0.52734,0.46875 2.63672,0.46875 h 1.52344 V 100 h -12.65625 v -0.527344 h 3.92578 v -0.117187 q -0.52735,-0.527344 -0.52735,-1.523438 V 73.339844 q 0,-3.457032 -1.28906,-5.390625 -1.28906,-1.933594 -3.39844,-1.933594 -3.98437,0 -6.44531,3.75 -2.46094,3.691406 -2.46094,9.785156 v 16.816406 q 0,2.109375 0.52735,2.636719 0.52734,0.46875 2.63672,0.46875 h 2.05078 V 100 h -14.94141 v -0.527344 h 2.05078 q 2.10938,0 2.57813,-0.46875 0.52734,-0.527344 0.52734,-2.636719 z" />
      <path
         id="path30"
         style="font-family:FoglihtenNo07calt"
         d="m 374.62891,70.585937 q 0,-0.820312 -0.52735,-1.347656 -0.52734,-0.527344 -1.40625,-0.527344 -0.11719,0 -0.23437,0 l -3.45703,0.292969 -0.0586,-0.351562 4.51172,-0.9375 q 1.875,-0.351563 3.10547,-1.464844 1.23047,-1.113281 1.23047,-2.8125 v -0.234375 h 0.46875 v 7.675781 q 0,4.746094 -0.35156,7.910156 h 0.35156 q 0.70312,-5.390625 5.21484,-9.550781 4.57031,-4.21875 9.84375,-4.21875 7.91016,0 12.77344,4.863281 4.86328,4.863282 4.86328,12.832032 0,5.683593 -3.28125,10.3125 3.57422,2.226562 5.80078,3.515625 2.22656,1.230468 5.625,2.8125 3.45703,1.582031 6.85547,2.285161 3.39844,0.76171 6.91406,0.76171 9.96094,0 15.9375,-6.15234 l 0.35157,0.351562 q -8.14454,8.964848 -17.98829,8.964848 -3.22265,0 -6.5039,-0.87891 -3.22266,-0.82031 -6.67969,-2.69531 -3.45703,-1.81641 -5.74219,-3.222659 -2.28515,-1.464844 -5.97656,-3.984375 -2.46094,2.695313 -5.80078,4.21875 -3.28125,1.464844 -7.03125,1.464844 -4.57031,0 -7.85156,-2.519531 -3.22266,-2.578125 -3.22266,-6.210938 0,-2.871094 1.875,-4.628906 1.93359,-1.757813 4.98047,-1.757813 3.51562,0 7.03125,1.464844 3.51562,1.40625 8.02734,4.160156 1.58203,-4.042968 1.58203,-9.316406 0,-6.445312 -3.63281,-11.015625 -3.57422,-4.570312 -8.67187,-4.570312 -5.39063,0 -9.90235,4.511718 -4.45312,4.453125 -4.45312,9.785157 v 25.371096 q 0,2.10937 0.52734,2.57812 0.52735,0.52735 2.63672,0.52735 h 2.05078 v 0.52734 h -14.9414 v -0.52734 h 2.05078 q 2.10937,0 2.57812,-0.52735 0.52735,-0.46875 0.52735,-2.57812 z m 8.3789,20.800782 q 0,3.339843 3.04688,5.683593 3.04687,2.34375 7.38281,2.34375 3.22266,0 5.80078,-1.699218 2.57813,-1.699219 4.21875,-4.863282 -4.6875,-3.164062 -8.02734,-4.804687 -3.33985,-1.640625 -6.21094,-1.640625 -2.8125,0 -4.51172,1.40625 -1.69922,1.347656 -1.69922,3.574219 z" />
      <path
         id="path32"
         style="font-family:FoglihtenNo07calt"
         d="m 433.16406,94.023437 q -7.26562,0 -11.71875,-3.984375 -4.45312,-3.984375 -4.45312,-10.546875 0,-5.976562 4.74609,-10.195312 4.74609,-4.277344 11.42578,-4.277344 7.20703,0 11.60156,3.984375 4.45313,3.984375 4.45313,10.488281 0,6.035157 -4.74609,10.3125 -4.6875,4.21875 -11.3086,4.21875 z m 0.17578,-1.054687 q 4.86328,0 7.79297,-3.398438 2.98828,-3.398437 2.98828,-8.964843 0,-6.035157 -3.28125,-10.253907 -3.28125,-4.277343 -7.91015,-4.277343 -4.86328,0 -7.85157,3.398437 -2.98828,3.398438 -2.98828,8.964844 0,6.035156 3.28125,10.3125 3.33985,4.21875 7.96875,4.21875 z" />
      <path
         id="path34"
         style="font-family:FoglihtenNo07calt"
         d="m 462.40234,81.953125 h 6.85547 q 4.16016,0 6.67969,-2.34375 2.51953,-2.402344 2.51953,-6.269531 0,-3.28125 -1.81641,-5.273438 -1.8164,-2.050781 -4.74609,-2.050781 -3.92578,0 -6.73828,3.574219 -2.75391,3.574218 -2.75391,8.613281 z m -4.57031,14.414062 v -25.78125 q 0,-0.820312 -0.52734,-1.347656 -0.52735,-0.527344 -1.40625,-0.527344 -0.11719,0 -0.23438,0 l -3.45703,0.292969 -0.0586,-0.351562 4.51172,-0.9375 Q 458.65234,67.304687 460,66.25 q 1.40625,-1.113281 1.40625,-2.8125 v -0.234375 h 0.46875 v 4.6875 q 0,3.925781 -0.46875,5.390625 v 0.117187 h 0.58594 q 1.11328,-3.691406 3.80859,-6.035156 2.69531,-2.34375 6.09375,-2.34375 5.27344,0 8.4375,2.285156 3.22266,2.285157 3.22266,6.035157 0,3.867187 -3.8086,6.679687 -3.75,2.753906 -9.14062,2.929688 7.73437,1.582031 8.78906,7.910156 1.40625,8.378906 5.27344,8.378906 1.52344,0 2.40234,-0.996094 0.9375,-1.054687 0.9375,-2.753906 0,-2.226562 -1.46484,-3.457031 -1.40625,-1.230469 -3.63281,-1.523438 0,-0.878906 2.28515,-0.878906 1.34766,0.820313 2.34375,2.402344 0.9961,1.582031 0.9961,3.457031 0,2.34375 -1.52344,3.75 -1.46485,1.406249 -3.92578,1.406249 -1.58203,0 -2.92969,-0.703124 -1.34766,-0.761719 -2.16797,-1.757812 -0.82031,-0.996094 -1.52344,-2.578125 -0.70312,-1.640625 -1.05468,-2.753907 -0.35157,-1.171875 -0.76172,-2.8125 -0.35157,-1.523437 -0.87891,-2.578125 -0.46875,-1.054687 -1.52344,-2.167968 -1.05468,-1.171875 -2.98828,-1.757813 -1.93359,-0.585937 -4.6875,-0.585937 h -2.16797 v 13.476562 q 0,3.105469 3.16407,3.105469 h 3.6914 V 100 h -16.58203 v -0.527344 h 2.05078 q 3.10547,0 3.10547,-3.105469 z" />
      <path
         id="path36"
         style="font-family:FoglihtenNo07calt"
         d="m 515.89844,74.921875 q 0,-3.984375 -2.8711,-6.386719 -2.87109,-2.460937 -7.55859,-2.460937 -4.21875,0 -6.5625,2.226562 -2.34375,2.167969 -2.51953,5.742188 l -0.17578,3.632812 h -1.05469 l 0.64453,-13.828125 h 0.58594 l -0.17578,3.105469 q -0.11719,1.40625 -0.23438,1.875 l 0.41016,0.117187 q 0.29297,-0.878906 0.9375,-1.347656 3.45703,-2.578125 8.08594,-2.578125 6.79687,0 10.89843,2.929688 4.16016,2.929687 4.16016,7.734375 v 14.121093 q 0,4.160157 2.8125,7.089844 2.87109,2.929688 6.85547,2.929688 3.16406,0 5.15625,-1.875 2.05078,-1.933594 2.05078,-4.746094 0,-2.34375 -1.46484,-3.867188 -1.46485,-1.523437 -3.92579,-1.699218 h -4.74609 v -0.527344 h 1.46484 q 2.10938,0 2.57813,-0.46875 0.52734,-0.46875 0.52734,-2.578125 V 70.585937 q 0,-0.820312 -0.52734,-1.347656 -0.52734,-0.527344 -1.40625,-0.527344 -0.11719,0 -0.23438,0 l -3.45703,0.292969 -0.0586,-0.351562 4.51172,-0.9375 q 1.875,-0.351563 3.10547,-1.464844 1.23047,-1.113281 1.23047,-2.8125 v -0.234375 h 0.46875 v 7.675781 q 0,5.097656 -0.11719,6.152344 h 0.41015 q 0.17579,-1.582031 0.9375,-3.808594 1.28907,-3.75 4.16016,-5.976562 2.92969,-2.226563 6.5625,-2.226563 4.6875,0 7.26563,2.402344 2.57812,2.402344 2.57812,6.445312 v 22.5 q 0,2.109375 0.46875,2.636719 0.52734,0.46875 2.63672,0.46875 h 2.10937 V 100 h -14.9414 v -0.527344 h 5.68359 v -0.117187 q -0.52734,-0.527344 -0.52734,-1.523438 v -22.96875 q 0,-8.847656 -5.74219,-8.847656 -4.57031,0 -7.55859,3.984375 -2.98828,3.984375 -2.98828,10.3125 v 3.75 q 0,1.933594 0.82031,4.921875 0.70312,2.636719 0.70312,4.21875 0,3.398437 -2.34375,5.742187 -2.34375,2.285158 -5.97656,2.285158 -5.15625,0 -8.78906,-3.398439 -3.63281,-3.398437 -3.63281,-8.203125 h -0.29297 l -0.29297,1.347656 q -0.82031,3.28125 -3.16406,5.566407 -2.34375,2.226562 -4.80469,3.105468 -2.46094,0.820313 -4.80469,0.820313 -5.50781,0 -8.90625,-2.519531 -3.33984,-2.578125 -3.33984,-6.796875 0,-4.804688 3.33984,-7.734375 3.33984,-2.988282 8.84766,-2.988282 3.57422,0 6.09375,1.992188 2.57812,1.933594 2.57812,4.6875 0,1.113281 -0.76172,1.875 -0.70312,0.761719 -1.75781,0.761719 v -2.753907 q 0,-2.285156 -1.81641,-3.867187 -1.8164,-1.640625 -4.33593,-1.640625 -3.39844,0 -5.44922,2.636719 -2.05078,2.578125 -2.05078,6.855468 0,3.574219 2.28515,5.742188 2.28516,2.167969 5.97657,2.167969 4.74609,0 8.08593,-3.515625 3.33985,-3.574219 3.33985,-8.613282 z" />
      <path
         id="path38"
         style="font-family:FoglihtenNo07calt"
         d="m 580.23437,80.78125 q -1.8164,0 -3.10546,1.230469 -1.28907,1.171875 -1.28907,2.871093 v 3.28125 q -1.05468,0 -1.8164,-0.761718 -0.70313,-0.761719 -0.70313,-1.816407 0,-2.519531 1.99219,-4.277343 2.05078,-1.816407 4.92187,-1.816407 h 12.53907 q 0.46875,0 0.46875,-0.527343 0,-5.800782 -2.98828,-9.316407 -2.98829,-3.574218 -7.91016,-3.574218 -5.625,0 -9.14063,4.277343 -3.45703,4.277344 -3.45703,11.308594 0,7.324219 3.69141,12.539063 3.75,5.214843 8.96484,5.214843 5.15625,0 9.02344,-2.285156 3.92578,-2.285156 5.85938,-6.328125 l 0.8789,0.585938 q -2.10937,4.277343 -6.21094,6.679687 -4.10156,2.402344 -9.55078,2.402344 -7.91015,0 -12.77343,-4.921875 -4.86329,-4.921875 -4.86329,-12.949219 0,-7.265625 5.21485,-12.421875 5.21484,-5.15625 12.59765,-5.15625 7.03125,0 11.25,3.867188 4.27735,3.808593 4.27735,10.078125 v 0.292968 q 0,0.703125 -0.52735,1.230469 -0.52734,0.46875 -1.28906,0.46875 z" />
      <path
         id="path40"
         style="font-family:FoglihtenNo07calt"
         d="m 602.38281,91.152344 q 0,-4.453125 3.75,-7.558594 3.75,-3.164063 9.02344,-3.164063 h 0.52734 q 3.57422,0 11.07422,1.230469 v -6.738281 q 0,-3.984375 -2.87109,-6.386719 -2.8711,-2.460937 -7.5586,-2.460937 -4.21875,0 -6.5625,2.226562 -2.34375,2.167969 -2.51953,5.742188 l -0.17578,3.632812 h -1.05469 l 0.64454,-13.828125 h 0.58593 l -0.17578,3.105469 q -0.11719,1.40625 -0.23437,1.875 l 0.41015,0.117187 q 0.29297,-0.878906 0.9375,-1.347656 3.45703,-2.578125 8.08594,-2.578125 6.79688,0 10.89844,2.929688 4.16015,2.929687 4.16015,7.734375 v 6.796875 q 11.66016,1.992187 15.9375,1.992187 6.15235,0 9.84375,-2.8125 3.69141,-2.871094 3.69141,-7.558594 0,-2.8125 -2.05078,-4.746093 -2.05078,-1.992188 -4.98047,-1.992188 -1.11328,0 -1.875,-0.703125 -0.76172,-0.761719 -0.76172,-1.816406 h 1.17188 q 3.92578,0 6.73828,2.753906 2.8125,2.695313 2.8125,6.503906 0,5.859375 -4.45313,9.433594 -4.45312,3.515625 -11.83593,3.515625 -4.10157,0 -14.23829,-2.578125 v 11.367188 q 0,1.816406 0.29297,2.402343 0.35157,0.585938 1.64063,0.585938 l 1.17187,-0.05859 0.9961,-0.05859 0.0586,0.527344 q -3.45703,0.351563 -6.38672,1.289059 v -0.46875 q 0,-1.757809 -0.64453,-5.273434 -0.41016,-2.636719 -0.46875,-3.808594 h -0.58594 q -0.82031,3.28125 -3.16406,5.566407 -2.34375,2.226562 -4.80469,3.105468 -2.46093,0.820313 -4.80468,0.820313 -5.50782,0 -8.90625,-2.519531 -3.33985,-2.578125 -3.33985,-6.796875 z m 4.62891,-0.175782 q 0,3.574219 2.28515,5.742188 2.28516,2.167969 6.03516,2.167969 4.74609,0 8.08594,-3.515625 3.33984,-3.574219 3.33984,-8.613282 v -3.398437 q -7.61719,-1.875 -11.07422,-1.875 h -0.52734 q -3.45703,0 -5.80078,2.636719 -2.34375,2.636718 -2.34375,6.855468 z" />
    </g>
  </g>
</svg>
