<?xml version="1.0" encoding="UTF-8" standalone="no"?>
<svg
   xmlns:dc="http://purl.org/dc/elements/1.1/"
   xmlns:cc="http://creativecommons.org/ns#"
   xmlns:rdf="http://www.w3.org/1999/02/22-rdf-syntax-ns#"
   xmlns:svg="http://www.w3.org/2000/svg"
   xmlns="http://www.w3.org/2000/svg"
   id="svg16"
   width="800px"
   version="1.1"
   height="200px">
  <metadata
     id="metadata20">
    <rdf:RDF>
      <cc:Work
         rdf:about="">
        <dc:format>image/svg+xml</dc:format>
        <dc:type
           rdf:resource="http://purl.org/dc/dcmitype/StillImage" />
      </cc:Work>
    </rdf:RDF>
  </metadata>
  <defs
     id="defs4">
    <style
       id="style2"
       type="text/css"><![CDATA[    
     @font-face {font-family:Fontleroy Brown NF;
     src: url('/Users/francesco/Repos/write-logos/src/fonts/FontleroyBrownNF.ttf');}
     @font-face {font-family:Something Fishy;
     src: url('/Users/francesco/Repos/write-logos/src/fonts/Something_Fishy.ttf');}
     ]]></style>
  </defs>
  <g
     id="g14"
     style="font-size:60px">
    <g
       style="text-anchor:middle"
       id="text12"
       aria-label="eXtemporanea">
      <path
         id="path22"
         style="font-family:'Fontleroy Brown NF'"
         d="m 310.31922,97.48 q -2.28,2.7 -6,2.7 -2.64,0 -4.62,-1.92 -1.92,-1.98 -1.92,-4.98 0,-2.88 2.1,-4.8 2.16,-1.98 5.04,-1.98 1.74,0 3.12,0.9 1.38,0.9 1.38,2.52 0,0.6 -0.12,1.14 -0.12,0.48 -0.42,0.96 -0.3,0.42 -0.54,0.78 -0.24,0.3 -0.78,0.66 -0.54,0.3 -0.84,0.48 -0.24,0.18 -0.96,0.48 -0.66,0.24 -0.96,0.36 -0.24,0.12 -1.02,0.36 -0.78,0.24 -0.96,0.3 0,1.02 0.84,1.98 0.9,0.96 1.8,0.96 1.86,0 3.54,-1.98 z m -4.74,-9.18 q -1.14,0 -2.04,1.5 -0.84,1.44 -0.84,3.9 1.5,-0.42 2.22,-0.66 0.72,-0.3 1.74,-1.14 1.02,-0.84 1.02,-1.92 0,-1.68 -2.1,-1.68 z" />
      <path
         id="path24"
         style="font-family:'Something Fishy'"
         d="m 328.56766,52.6 -0.12,-0.06 -2.64,12.96 q -0.48,-3 -1.26,-6.42 -1.02,-4.56 -1.26,-6.54 l 0.06,0.18 q -0.3,0.6 -0.9,1.08 -0.6,0.48 -1.38,0.6 -0.78,0.12 -1.74,-0.18 -0.96,-0.3 -1.98,-1.32 -0.54,1.02 -1.62,1.2 -1.02,0.18 -2.04,0 -1.02,-0.24 -1.74,-0.72 -0.72,-0.48 -0.6,-0.78 v -0.06 l 4.44,21 -4.44,26.46 h 12 l 1.2,-7.74 q 0.78,-5.04 1.26,-9.54 1.68,10.2 3.78,17.28 h 11.4 l -6.48,-26.46 4.32,-21 -0.06,0.06 q -0.3,0.36 -0.9,0.78 -0.54,0.42 -1.2,0.6 -0.66,0.12 -1.32,-0.12 -0.66,-0.24 -1.08,-1.14 -1.56,1.38 -3.36,1.38 -1.68,0 -2.34,-1.5 z m -11.1,17.46 q 0.06,-0.9 1.08,-1.38 1.08,-0.48 2.28,-0.48 1.26,0 2.16,0.42 0.9,0.42 0.72,1.26 0.48,-0.42 0.54,-0.72 0.12,-0.36 0.84,-0.66 0,0.66 0,1.62 0.06,0.96 0,1.62 -0.54,-0.24 -0.78,-0.66 -0.18,-0.42 -0.6,-0.66 0.06,0.9 -0.9,1.26 -0.96,0.36 -2.16,0.3 -1.2,-0.12 -2.22,-0.6 -0.96,-0.48 -0.96,-1.26 z m 17.88,15.18 q -0.06,0.9 -1.14,1.44 -1.02,0.48 -2.22,0.48 -1.26,0 -2.16,-0.36 -0.9,-0.42 -0.72,-1.32 -0.48,0.48 -0.6,0.84 -0.06,0.3 -0.78,0.6 0,-0.66 -0.06,-1.62 0,-0.96 0.06,-1.62 0.54,0.24 0.72,0.66 0.24,0.42 0.66,0.6 -0.06,-0.9 0.9,-1.26 0.96,-0.36 2.16,-0.3 1.2,0.06 2.16,0.54 1.02,0.48 1.02,1.26 z" />
      <path
         id="path26"
         style="font-family:'Fontleroy Brown NF'"
         d="m 350.13297,96.4 q 0,1.5 -1.02,2.52 -1.02,1.02 -2.52,1.02 -1.5,0 -2.52,-1.02 -1.02,-1.02 -1.02,-2.52 v -8.16 h -1.68 V 86.5 h 1.68 V 76.42 h 4.14 V 86.5 h 2.76 v 1.74 h -2.76 v 9.42 q 0,0.3 0.3,0.3 0.3,0 0.6,-0.6 0.3,-0.6 0.3,-0.96 z" />
      <path
         id="path28"
         style="font-family:'Fontleroy Brown NF'"
         d="m 364.81141,97.48 q -2.28,2.7 -6,2.7 -2.64,0 -4.62,-1.92 -1.92,-1.98 -1.92,-4.98 0,-2.88 2.1,-4.8 2.16,-1.98 5.04,-1.98 1.74,0 3.12,0.9 1.38,0.9 1.38,2.52 0,0.6 -0.12,1.14 -0.12,0.48 -0.42,0.96 -0.3,0.42 -0.54,0.78 -0.24,0.3 -0.78,0.66 -0.54,0.3 -0.84,0.48 -0.24,0.18 -0.96,0.48 -0.66,0.24 -0.96,0.36 -0.24,0.12 -1.02,0.36 -0.78,0.24 -0.96,0.3 0,1.02 0.84,1.98 0.9,0.96 1.8,0.96 1.86,0 3.54,-1.98 z m -4.74,-9.18 q -1.14,0 -2.04,1.5 -0.84,1.44 -0.84,3.9 1.5,-0.42 2.22,-0.66 0.72,-0.3 1.74,-1.14 1.02,-0.84 1.02,-1.92 0,-1.68 -2.1,-1.68 z" />
      <path
         id="path30"
         style="font-family:'Fontleroy Brown NF'"
         d="m 390.29078,96.52 q 0,1.5 -1.02,2.52 -1.02,1.02 -2.52,1.02 -1.5,0 -2.52,-1.02 -1.02,-1.02 -1.02,-2.52 v -7.2 q 0,-0.9 -1.2,-0.9 -1.14,0 -1.86,1.08 0.12,0.48 0.12,0.72 V 100 h -4.2 V 89.32 q 0,-0.9 -0.84,-0.9 -0.78,0 -1.68,1.02 -0.9,0.96 -0.9,1.8 V 100 h -4.08 q 0,-0.18 0.06,-4.68 0.06,-4.5 0.06,-6.24 0,-0.54 -0.48,-0.54 -0.9,0 -0.9,1.5 h -1.68 q 0,-1.5 1.02,-2.52 1.02,-1.02 2.58,-1.02 2.04,0 3.06,1.98 1.98,-1.98 4.2,-1.98 1.86,0 2.94,1.38 1.68,-1.38 3.72,-1.38 1.68,0 2.94,1.08 1.26,1.02 1.26,2.64 v 7.56 q 0,0.3 0.3,0.3 0.3,0 0.6,-0.6 0.3,-0.6 0.3,-0.96 z" />
      <path
         id="path32"
         style="font-family:'Fontleroy Brown NF'"
         d="m 399.30672,99.94 q -1.32,0 -2.7,-0.78 v 14.28 h -4.14 V 83.86 h 4.14 v 3.42 q 1.44,-0.78 2.76,-0.78 2.52,0 4.2,1.98 1.74,1.98 1.74,4.56 0,2.82 -1.62,4.86 -1.62,2.04 -4.38,2.04 z m 1.56,-6.18 q 0,-5.28 -2.76,-5.28 -0.96,0.18 -1.5,1.02 V 97 q 1.14,1.02 1.8,1.02 1.14,0 1.8,-1.2 0.66,-1.26 0.66,-3.06 z" />
      <path
         id="path34"
         style="font-family:'Fontleroy Brown NF'"
         d="m 419.46672,93.28 q 0,2.94 -1.68,4.92 -1.68,1.98 -4.32,1.98 -2.52,0 -4.26,-2.1 -1.74,-2.16 -1.74,-4.74 0,-2.76 1.68,-4.86 1.68,-2.16 4.32,-2.16 2.64,0 4.32,2.04 1.68,2.04 1.68,4.92 z m -1.74,0.06 q 0,-2.16 -0.78,-3.48 -0.72,-1.38 -2.16,-1.38 -1.26,0 -1.92,1.38 -0.66,1.32 -0.66,3.36 0,1.98 0.66,3.36 0.72,1.38 2.04,1.38 1.32,0 2.04,-1.38 0.78,-1.38 0.78,-3.24 z" />
      <path
         id="path36"
         style="font-family:'Fontleroy Brown NF'"
         d="m 431.57734,91.72 q -1.2,0 -1.92,-0.96 -0.66,-0.96 -0.66,-2.16 v -0.36 q -1.14,0 -1.86,0.48 0.24,0.54 0.24,1.26 V 100 h -4.08 V 88.9 q 0,-0.42 -0.42,-0.42 -0.24,0 -0.54,0.48 -0.24,0.42 -0.24,1.08 h -1.74 q 0,-1.5 1.02,-2.52 1.02,-1.02 2.52,-1.02 1.38,0 2.22,0.84 1.38,-0.84 2.94,-0.84 1.68,0 3,0.84 1.32,0.84 1.32,2.28 0,0.9 -0.48,1.5 -0.48,0.6 -1.32,0.6 z" />
      <path
         id="path38"
         style="font-family:'Fontleroy Brown NF'"
         d="m 451.67172,96.52 q 0,1.5 -1.02,2.52 -1.02,1.02 -2.58,1.02 -1.68,0 -2.76,-1.5 -1.62,1.5 -3.66,1.5 -2.7,0 -4.38,-1.92 -1.68,-1.98 -1.68,-4.74 0,-2.7 1.62,-4.8 1.68,-2.1 4.32,-2.1 1.62,0 3.12,1.02 v -0.66 h 4.08 v 10.92 q 0,0.3 0.3,0.3 0.48,0 0.72,-0.48 0.24,-0.54 0.24,-1.08 z m -7.02,0.18 v -6.84 q -0.24,-0.66 -0.9,-1.02 -0.66,-0.42 -1.2,-0.42 -2.52,0 -2.52,4.98 0,4.68 2.52,4.68 1.02,0 2.1,-1.38 z" />
      <path
         id="path40"
         style="font-family:'Fontleroy Brown NF'"
         d="m 470.18641,96.52 q 0,1.5 -1.02,2.52 -1.02,1.02 -2.52,1.02 -1.5,0 -2.52,-1.02 -1.02,-1.02 -1.02,-2.52 V 89.5 q 0,-1.08 -1.32,-1.08 -0.84,0 -1.98,0.9 -1.08,0.84 -1.08,2.28 v 8.4 h -4.14 V 88.84 q 0,-0.36 -0.36,-0.36 -0.36,0 -0.6,0.54 -0.24,0.48 -0.24,1.02 h -1.74 q 0,-1.5 1.02,-2.52 1.02,-1.02 2.52,-1.02 2.46,0 3.24,2.16 1.98,-2.16 4.68,-2.16 4.32,0 4.32,4.26 0,0.78 -0.06,3.54 -0.06,2.7 -0.06,3.36 0,0.42 0.3,0.42 0.6,0 0.84,-1.56 z" />
      <path
         id="path42"
         style="font-family:'Fontleroy Brown NF'"
         d="m 483.99109,97.48 q -2.28,2.7 -6,2.7 -2.64,0 -4.62,-1.92 -1.92,-1.98 -1.92,-4.98 0,-2.88 2.1,-4.8 2.16,-1.98 5.04,-1.98 1.74,0 3.12,0.9 1.38,0.9 1.38,2.52 0,0.6 -0.12,1.14 -0.12,0.48 -0.42,0.96 -0.3,0.42 -0.54,0.78 -0.24,0.3 -0.78,0.66 -0.54,0.3 -0.84,0.48 -0.24,0.18 -0.96,0.48 -0.66,0.24 -0.96,0.36 -0.24,0.12 -1.02,0.36 -0.78,0.24 -0.96,0.3 0,1.02 0.84,1.98 0.9,0.96 1.8,0.96 1.86,0 3.54,-1.98 z m -4.74,-9.18 q -1.14,0 -2.04,1.5 -0.84,1.44 -0.84,3.9 1.5,-0.42 2.22,-0.66 0.72,-0.3 1.74,-1.14 1.02,-0.84 1.02,-1.92 0,-1.68 -2.1,-1.68 z" />
      <path
         id="path44"
         style="font-family:'Fontleroy Brown NF'"
         d="m 502.17953,96.52 q 0,1.5 -1.02,2.52 -1.02,1.02 -2.58,1.02 -1.68,0 -2.76,-1.5 -1.62,1.5 -3.66,1.5 -2.7,0 -4.38,-1.92 -1.68,-1.98 -1.68,-4.74 0,-2.7 1.62,-4.8 1.68,-2.1 4.32,-2.1 1.62,0 3.12,1.02 v -0.66 h 4.08 v 10.92 q 0,0.3 0.3,0.3 0.48,0 0.72,-0.48 0.24,-0.54 0.24,-1.08 z m -7.02,0.18 v -6.84 q -0.24,-0.66 -0.9,-1.02 -0.66,-0.42 -1.2,-0.42 -2.52,0 -2.52,4.98 0,4.68 2.52,4.68 1.02,0 2.1,-1.38 z" />
    </g>
  </g>
</svg>
