<?xml version="1.0" encoding="UTF-8" standalone="no"?>
<svg
   xmlns:dc="http://purl.org/dc/elements/1.1/"
   xmlns:cc="http://creativecommons.org/ns#"
   xmlns:rdf="http://www.w3.org/1999/02/22-rdf-syntax-ns#"
   xmlns:svg="http://www.w3.org/2000/svg"
   xmlns="http://www.w3.org/2000/svg"
   id="svg16"
   width="500px"
   version="1.1"
   height="200px">
  <metadata
     id="metadata20">
    <rdf:RDF>
      <cc:Work
         rdf:about="">
        <dc:format>image/svg+xml</dc:format>
        <dc:type
           rdf:resource="http://purl.org/dc/dcmitype/StillImage" />
      </cc:Work>
    </rdf:RDF>
  </metadata>
  <defs
     id="defs4">
    <style
       id="style2"
       type="text/css"><![CDATA[    
     @font-face {font-family:Forgiven Script;
     src: url('/Users/francesco/Repos/write-logos/src/fonts/Forgiven_Script_-_TTF.ttf');}
     @font-face {font-family:Goodies;
     src: url('/Users/francesco/Repos/write-logos/src/fonts/Goodies-Regular.ttf');}
     ]]></style>
  </defs>
  <g
     id="g14"
     style="font-size:30px">
    <g
       style="text-anchor:middle"
       id="text12"
       aria-label="eXtemporanea">
      <path
         id="path22"
         style="font-family:'Forgiven Script'"
         d="m 178.56437,95.35 q 0,-1.23 0.42,-2.49 0.42,-1.26 1.17,-2.31 0.75,-1.05 1.8,-1.71 1.05,-0.66 2.31,-0.66 1.38,0 2.19,0.78 0.81,0.75 0.81,1.92 0,0.93 -0.48,1.77 -0.48,0.81 -1.23,1.5 -0.6,0.51 -1.74,1.02 -1.11,0.48 -2.82,0.54 -0.03,0.15 -0.03,0.3 0,0.12 0,0.27 0,0.27 0.06,0.75 0.06,0.48 0.24,0.96 0.21,0.45 0.6,0.78 0.42,0.33 1.14,0.33 1.2,0 2.13,-0.6 0.96001,-0.6 1.71001,-1.5 0.75,-0.9 1.31999,-1.98 0.57,-1.08 0.96,-2.01 0.12,-0.24 0.39,-0.24 0.18,0 0.33001,0.12 0.14999,0.12 0.14999,0.3 0,0.12 -0.03,0.18 -0.48,1.14 -1.14,2.34 -0.66,1.17 -1.53,2.13 -0.87,0.96 -1.98,1.56 -1.11,0.6 -2.52,0.6 -1.02,0 -1.8,-0.36 -0.78,-0.36 -1.32,-0.99 -0.54,-0.63 -0.81,-1.47 -0.3,-0.84 -0.3,-1.83 z m 2.52,-0.54 q 1.89,-0.18 3.06,-1.32 1.17,-1.14 1.17,-3.09 0,-0.42 -0.15,-0.87 -0.15,-0.45 -0.81,-0.45 -0.69,0 -1.23,0.57 -0.54,0.54 -0.96,1.41 -0.39,0.84 -0.66,1.86 -0.27,0.99 -0.42,1.89 z" />
      <path
         id="path24"
         style="font-family:Goodies"
         d="m 189.78109,102.31 q -0.03,0.15 -0.21,0.27 -0.18,0.06 -0.33,0.06 -0.15,0 -0.39,-0.06 -0.21,-0.09 -0.27,-0.21 -0.12,-0.78 -0.12,-1.2 0,-0.6 0.15,-1.29 0.36,-1.38 0.96,-2.46 0.66,-1.17 1.62,-2.37 1.02,-1.2 2.07,-2.22 -1.41,-3 -2.55,-6.36 -1.14,-3.24 -1.8,-6.27 0,-0.18 0.15,-0.27 0.18,-0.09 0.39,-0.09 0.12,0 0.42,0.06 0.18,0.09 0.24,0.24 0.78,2.94 2.04,5.76 l 2.55,5.58 q 1.35,-1.2 3.06,-2.55 l 2.67,-2.16 q 1.44,-1.14 2.49,-2.37 1.11,-1.23 1.98,-3.03 0.15,-0.24 0.36,-0.36 0.24,-0.09 0.42,-0.09 0.18,0 0.3,0.12 0.03,0.03 0.03,0.09 0,0.09 -0.09,0.24 -0.09,0.72 -0.42,1.65 -0.27,0.75 -0.78,1.71 -0.57,0.96 -1.02,1.62 -0.78,1.02 -1.14,1.41 -1.38,1.53 -3.09,2.85 -1.53,1.17 -3.69,3.09 l 0.84,1.53 q 0.27,0.51 0.87,1.47 0.69,1.11 1.26,1.95 l 2.58,3.66 q 0.48,0.69 0.84,1.35 l 2.16,2.85 1.74,2.25 q 0.21,0.15 0.15,0.27 -0.12,0.12 -0.27,0.15 -0.15,0.03 -0.42,0.03 -0.27,0 -0.33,-0.03 -1.83,-1.47 -3.51,-3.15 -1.71,-1.71 -3.09,-3.99 -1.32,-1.8 -2.25,-3.39 -1.26,-2.13 -2.01,-3.6 l -1.62,1.56 q -0.57,0.54 -1.11,1.11 -0.48,0.48 -1.02,1.23 -0.48,0.66 -0.6,1.2 -0.12,0.51 -0.15,1.08 -0.09,0.75 -0.06,1.08 z" />
      <path
         id="path26"
         style="font-family:'Forgiven Script'"
         d="m 202.58641,83.23 q 0,-0.21 0.15,-0.33 0.12,-0.12 0.3,-0.12 h 1.65 q 0.21,-1.2 0.33,-2.01 0.12,-0.84 0.12,-1.14 0,-0.15 -0.06,-0.15 -0.24,-0.03 -0.24,-0.09 0,-0.12 0.54,-0.24 0.54,-0.15 1.11,-0.15 0.51,0 0.84,0.15 0.33,0.12 0.33,0.66 0,0.3 -0.12,1.08 -0.12,0.78 -0.33,1.89 h 1.59 q 0.45,0 0.45,0.45 0,0.18 -0.12,0.33 -0.12,0.12 -0.33,0.12 h -1.77 q -0.3,1.59 -0.66,3.51 -0.36,1.92 -0.69,3.84 -0.3,1.89 -0.51,3.6 -0.21,1.71 -0.21,2.88 0,0.51 0.03,0.84 0.06,0.3 0.12,0.48 0.06,0.18 0.15,0.27 0.27,0 0.6,-0.39 0.36,-0.39 0.72,-0.99 0.39,-0.63 0.78,-1.35 0.39,-0.72 0.69,-1.38 0.33,-0.69 0.57,-1.23 0.24,-0.54 0.33,-0.75 0.09,-0.24 0.39,-0.24 0.18,0 0.33,0.12 0.15,0.12 0.15,0.3 0,0.12 -0.03,0.18 -0.15,0.39 -0.42,1.05 -0.27,0.63 -0.63,1.38 -0.36,0.72 -0.78,1.47 -0.42,0.75 -0.9,1.35 -0.45,0.6 -0.96,0.99 -0.51,0.39 -1.02,0.39 -0.66,0 -1.11,-0.39 -0.42,-0.42 -0.69,-1.02 -0.24,-0.63 -0.33,-1.35 -0.09,-0.72 -0.09,-1.32 0,-0.99 0.18,-2.46 0.15,-1.47 0.39,-3.15 0.27,-1.68 0.54,-3.42 0.3,-1.74 0.57,-3.21 h -1.5 q -0.18,0 -0.3,-0.12 -0.15,-0.15 -0.15,-0.33 z" />
      <path
         id="path28"
         style="font-family:'Forgiven Script'"
         d="m 208.50578,95.35 q 0,-1.23 0.42,-2.49 0.42,-1.26 1.17,-2.31 0.75,-1.05 1.8,-1.71 1.05,-0.66 2.31,-0.66 1.38,0 2.19,0.78 0.81,0.75 0.81,1.92 0,0.93 -0.48,1.77 -0.48,0.81 -1.23,1.5 -0.6,0.51 -1.74,1.02 -1.11,0.48 -2.82,0.54 -0.03,0.15 -0.03,0.3 0,0.12 0,0.27 0,0.27 0.06,0.75 0.06,0.48 0.24,0.96 0.21,0.45 0.6,0.78 0.42,0.33 1.14,0.33 1.2,0 2.13,-0.6 0.96,-0.6 1.71,-1.5 0.75,-0.9 1.32,-1.98 0.57,-1.08 0.96,-2.01 0.12,-0.24 0.39,-0.24 0.18,0 0.33,0.12 0.15,0.12 0.15,0.3 0,0.12 -0.03,0.18 -0.48,1.14 -1.14,2.34 -0.66,1.17 -1.53,2.13 -0.87,0.96 -1.98,1.56 -1.11,0.6 -2.52,0.6 -1.02,0 -1.8,-0.36 -0.78,-0.36 -1.32,-0.99 -0.54,-0.63 -0.81,-1.47 -0.3,-0.84 -0.3,-1.83 z m 2.52,-0.54 q 1.89,-0.18 3.06,-1.32 1.17,-1.14 1.17,-3.09 0,-0.42 -0.15,-0.87 -0.15,-0.45 -0.81,-0.45 -0.69,0 -1.23,0.57 -0.54,0.54 -0.96,1.41 -0.39,0.84 -0.66,1.86 -0.27,0.99 -0.42,1.89 z" />
      <path
         id="path30"
         style="font-family:'Forgiven Script'"
         d="m 221.5525,99.37 q 0,0.33 -0.09,0.48 -0.06,0.15 -0.51,0.15 -0.72,-0.06 -1.17,-0.48 -0.42,-0.42 -0.66,-1.02 -0.21,-0.63 -0.27,-1.32 -0.09,-0.69 -0.09,-1.26 0,-0.9 0.15,-1.92 0.15,-1.05 0.33,-2.04 0.18,-0.99 0.33,-1.8 0.15,-0.84 0.15,-1.35 0,-0.15 -0.06,-0.15 -0.24,-0.03 -0.24,-0.09 0,-0.12 0.54,-0.24 0.54,-0.15 1.11,-0.15 0.51,0 0.84,0.15 0.33,0.12 0.33,0.66 0,0.57 -0.21,1.53 -0.21,0.96 -0.48,2.13 -0.27,1.17 -0.48,2.46 -0.21,1.26 -0.21,2.4 v 0.39 q 0.12,-0.54 0.27,-1.14 0.15,-0.6 0.3,-1.14 0.15,-0.54 0.27,-0.96 0.12,-0.45 0.21,-0.69 0.45,-1.47 0.84,-2.55 0.39,-1.08 0.81,-1.8 0.45,-0.72 0.99,-1.08 0.57,-0.36 1.38,-0.36 0.66,0 1.14,0.27 0.48,0.27 0.78,0.75 0.33,0.45 0.48,1.05 0.15,0.6 0.15,1.26 0,0.24 -0.03,0.45 0,0.21 -0.03,0.45 0.39,-1.08 0.72,-1.86 0.36,-0.81 0.78,-1.32 0.42,-0.54 0.93,-0.78 0.54,-0.27 1.26,-0.27 0.66,0 1.14,0.3 0.48,0.3 0.78,0.84 0.33,0.51 0.48,1.2 0.15,0.66 0.15,1.38 0,0.81 -0.15,1.62 -0.15,0.81 -0.36,1.62 -0.18,0.78 -0.39,1.56 -0.18,0.75 -0.27,1.47 -0.03,0.15 -0.03,0.27 0,0.12 0,0.24 0,0.42 0.12,0.42 0.24,0 0.57,-0.39 0.33,-0.39 0.69,-0.99 0.39,-0.63 0.78,-1.35 0.39,-0.75 0.69,-1.41 0.33,-0.69 0.57,-1.2 0.24,-0.54 0.33,-0.75 0.09,-0.24 0.39,-0.24 0.18,0 0.33,0.12 0.15,0.12 0.15,0.3 0,0.12 -0.03,0.18 -0.15,0.39 -0.42,1.05 -0.27,0.63 -0.63,1.38 -0.36,0.72 -0.78,1.47 -0.42,0.75 -0.9,1.35 -0.45,0.6 -0.96,0.99 -0.51,0.39 -1.02,0.39 -0.6,0 -0.96,-0.27 -0.33,-0.27 -0.51,-0.66 -0.15,-0.42 -0.21,-0.87 -0.03,-0.48 -0.03,-0.84 0,-1.74 0.3,-3.3 0.33,-1.59 0.33,-3.06 v -0.48 q 0,-0.51 -0.12,-0.96 -0.09,-0.48 -0.51,-0.48 -0.45,0 -0.9,0.57 -0.45,0.57 -0.87,1.47 -0.39,0.9 -0.72,1.98 -0.33,1.08 -0.6,2.13 -0.24,1.02 -0.42,1.86 -0.15,0.84 -0.18,1.26 0,0.15 -0.03,0.24 -0.12,0.3 -0.51,0.3 -0.6,0 -0.96,-0.27 -0.33,-0.27 -0.51,-0.66 -0.15,-0.42 -0.21,-0.87 -0.03,-0.48 -0.03,-0.84 0,-0.87 0.06,-1.59 0.06,-0.75 0.12,-1.38 0.09,-0.66 0.15,-1.29 0.06,-0.63 0.06,-1.26 v -0.42 q 0,-0.42 -0.12,-0.81 -0.09,-0.42 -0.51,-0.42 -0.42,0 -0.87,0.66 -0.45,0.63 -0.87,1.65 -0.39,0.99 -0.78,2.22 -0.36,1.2 -0.66,2.34 -0.27,1.14 -0.48,2.07 -0.18,0.93 -0.24,1.35 z" />
      <path
         id="path32"
         style="font-family:'Forgiven Script'"
         d="m 247.21656,92.8 q 0,1.59 -0.69,3.15 -0.66,1.53 -1.83,2.58 0.96,-0.33 1.71,-0.87 0.78,-0.57 1.38,-1.29 0.6,-0.75 1.05,-1.59 0.48,-0.87 0.87,-1.77 0.09,-0.24 0.39,-0.24 0.18,0 0.33,0.12 0.15,0.12 0.15,0.3 0,0.12 -0.03,0.18 -0.75,1.71 -1.65,2.97 -0.87,1.23 -2.04,2.07 -1.14,0.81 -2.64,1.2 -1.47,0.39 -3.36,0.39 -0.78,-0.06 -1.35,-0.36 -0.57,-0.3 -0.93,-0.99 -0.3,1.77 -0.66,3.39 -0.33,1.62 -0.75,2.82 -0.42,1.23 -0.96,1.95 -0.57,0.72 -1.32,0.72 -0.18,0 -0.3,-0.15 -0.15,-0.12 -0.15,-0.3 0,-0.36 0.36,-0.45 0.33,-0.06 0.57,-0.63 0.21,-0.57 0.39,-1.56 0.15,-0.99 0.33,-2.4 0.15,-1.38 0.36,-3.09 0.15,-1.14 0.33,-2.52 0.18,-1.41 0.36,-2.79 0.15,-1.41 0.27,-2.67 0.12,-1.29 0.12,-2.16 0,-0.15 -0.06,-0.15 -0.24,-0.03 -0.24,-0.09 0,-0.12 0.54,-0.24 0.54,-0.15 1.11,-0.15 0.51,0 0.84,0.15 0.33,0.12 0.33,0.66 0,0.42 -0.09,1.2 -0.09,0.78 -0.24,1.8 0.24,-0.66 0.51,-1.32 0.27,-0.69 0.66,-1.23 0.42,-0.57 0.99,-0.9 0.57,-0.36 1.41,-0.36 0.9,0 1.62,0.36 0.72,0.33 1.23,0.96 0.51,0.6 0.78,1.47 0.3,0.84 0.3,1.83 z m -7.02,0.48 q -0.21,0.75 -0.39,1.5 -0.18,0.72 -0.3,1.35 -0.12,0.6 -0.18,1.02 -0.06,0.42 -0.09,0.54 0,0.66 0.54,1.05 0.57,0.36 1.17,0.36 0.78,0 1.47,-0.66 0.69,-0.69 1.23,-1.74 0.54,-1.05 0.84,-2.31 0.33,-1.26 0.33,-2.43 0,-0.45 -0.06,-0.96 -0.06,-0.51 -0.27,-0.93 -0.18,-0.42 -0.51,-0.69 -0.33,-0.3 -0.87,-0.3 -0.63,0 -1.11,0.48 -0.48,0.48 -0.84,1.17 -0.36,0.66 -0.6,1.38 -0.21,0.69 -0.36,1.17 z" />
      <path
         id="path34"
         style="font-family:'Forgiven Script'"
         d="m 251.11703,91.39 q 0.18,-0.78 0.57,-1.38 0.42,-0.6 0.96,-0.99 0.57,-0.42 1.26,-0.63 0.69,-0.21 1.44,-0.21 1.05,0 1.77,0.39 0.75,0.36 1.23,0.99 0.51,0.6 0.72,1.41 0.24,0.81 0.24,1.68 0,1.53 -0.63,3.15 -0.63,1.59 -1.83,2.7 0.9,-0.36 1.62,-0.93 0.75,-0.57 1.32,-1.29 0.6,-0.72 1.05,-1.56 0.48,-0.84 0.84,-1.71 0.09,-0.24 0.39,-0.24 0.18,0 0.33,0.12 0.15,0.12 0.15,0.3 0,0.12 -0.03,0.18 -0.63,1.53 -1.5,2.76 -0.84,1.2 -1.98,2.07 -1.11,0.87 -2.52,1.35 -1.38,0.45 -3.09,0.45 -1.98,0 -3.21,-1.08 -1.2,-1.11 -1.2,-3.15 0,-1.26 0.54,-2.46 0.51,-1.2 1.56,-1.92 z m 0.3,4.89 q 0,0.48 0.09,0.99 0.09,0.51 0.3,0.93 0.24,0.39 0.63,0.66 0.39,0.24 0.99,0.24 0.96,-0.06 1.68,-0.84 0.72,-0.81 1.17,-1.92 0.48,-1.14 0.69,-2.4 0.24,-1.26 0.24,-2.25 0,-0.24 -0.03,-0.66 -0.03,-0.45 -0.21,-0.87 -0.18,-0.42 -0.57,-0.75 -0.36,-0.33 -1.02,-0.33 -0.78,0 -1.38,0.48 -0.57,0.48 -0.9,1.2 0.18,0 0.3,0.15 0.12,0.12 0.12,0.3 0,0.21 -0.15,0.33 -0.12,0.12 -0.3,0.12 -0.45,0 -0.75,0.54 -0.3,0.54 -0.51,1.29 -0.21,0.75 -0.3,1.53 -0.09,0.78 -0.09,1.26 z" />
      <path
         id="path36"
         style="font-family:'Forgiven Script'"
         d="m 262.53016,90.82 q -0.78,-0.57 -0.78,-1.59 0,-0.36 0.12,-0.84 0.12,-0.48 0.36,-0.87 0.24,-0.42 0.57,-0.69 0.36,-0.3 0.78,-0.3 0.42,0 0.57,0.33 0.18,0.3 0.18,0.66 0,0.36 -0.15,0.99 -0.12,0.6 -0.45,1.62 0.75,-0.06 1.29,-0.24 0.57,-0.21 0.93,-0.45 0.36,-0.24 0.54,-0.45 0.21,-0.21 0.27,-0.3 -0.27,-0.09 -0.27,-0.12 0,-0.12 0.54,-0.24 0.54,-0.15 1.11,-0.15 0.51,0 0.84,0.15 0.33,0.12 0.33,0.66 0,0.57 -0.21,1.56 -0.21,0.96 -0.48,2.13 -0.27,1.17 -0.48,2.43 -0.21,1.26 -0.21,2.43 0,0.51 0.03,0.81 0.06,0.3 0.12,0.48 0.03,0.18 0.12,0.27 0.27,0 0.6,-0.39 0.36,-0.39 0.72,-0.99 0.39,-0.63 0.78,-1.35 0.39,-0.72 0.69,-1.38 0.33,-0.69 0.57,-1.23 0.24,-0.54 0.33,-0.75 0.09,-0.24 0.39,-0.24 0.18,0 0.33,0.12 0.15,0.12 0.15,0.3 0,0.12 -0.03,0.18 -0.15,0.39 -0.42,1.05 -0.27,0.63 -0.63,1.38 -0.36,0.72 -0.78,1.47 -0.42,0.75 -0.9,1.35 -0.45,0.6 -0.96,0.99 -0.51,0.39 -1.02,0.39 -0.66,0 -1.08,-0.39 -0.42,-0.42 -0.66,-1.02 -0.24,-0.63 -0.36,-1.35 -0.09,-0.72 -0.09,-1.35 0,-0.69 0.09,-1.44 0.09,-0.78 0.21,-1.53 0.15,-0.78 0.27,-1.5 0.15,-0.75 0.24,-1.35 -0.48,0.36 -1.26,0.66 -0.78,0.3 -1.92,0.3 -0.42,0.93 -0.69,1.62 -0.24,0.69 -0.27,0.72 -0.09,0.24 -0.39,0.24 -0.18,0 -0.33,-0.12 -0.15,-0.12 -0.15,-0.3 0,-0.12 0.03,-0.18 0.3,-0.72 0.51,-1.26 0.21,-0.57 0.36,-0.93 z" />
      <path
         id="path38"
         style="font-family:'Forgiven Script'"
         d="m 271.52406,95.38 q 0,-1.29 0.45,-2.58 0.48,-1.29 1.29,-2.31 0.81,-1.02 1.92,-1.65 1.11,-0.66 2.4,-0.66 0.63,0 1.08,0.15 0.48,0.15 0.81,0.39 0.15,0.12 0.27,0.24 0.12,0.09 0.21,0.24 0.03,-0.15 0.03,-0.39 0,-0.15 -0.06,-0.15 -0.24,-0.03 -0.24,-0.09 0,-0.12 0.54,-0.24 0.54,-0.15 1.11,-0.15 0.51,0 0.84,0.15 0.33,0.12 0.33,0.66 0,0.57 -0.21,1.56 -0.21,0.96 -0.48,2.13 -0.27,1.17 -0.48,2.43 -0.21,1.26 -0.21,2.43 0,0.51 0.03,0.81 0.06,0.3 0.12,0.48 0.03,0.18 0.12,0.27 0.27,0 0.6,-0.39 0.36,-0.39 0.72,-0.99 0.39,-0.63 0.78,-1.35 0.39,-0.72 0.69,-1.38 0.33,-0.69 0.57,-1.23 0.24,-0.54 0.33,-0.75 0.09,-0.24 0.39,-0.24 0.18,0 0.33,0.12 0.15,0.12 0.15,0.3 0,0.12 -0.03,0.18 -0.15,0.39 -0.42,1.05 -0.27,0.63 -0.63,1.38 -0.36,0.72 -0.78,1.47 -0.42,0.75 -0.9,1.35 -0.45,0.6 -0.96,0.99 -0.51,0.39 -1.02,0.39 -0.6,0 -1.02,-0.36 -0.42,-0.36 -0.66,-0.9 -0.24,-0.57 -0.36,-1.23 -0.12,-0.69 -0.15,-1.29 -0.21,0.66 -0.51,1.35 -0.27,0.66 -0.69,1.2 -0.39,0.54 -0.99,0.9 -0.57,0.33 -1.38,0.33 -0.9,0 -1.62,-0.33 -0.72,-0.36 -1.23,-0.96 -0.51,-0.63 -0.78,-1.47 -0.3,-0.87 -0.3,-1.86 z m 7.02,-0.48 q 0.24,-0.75 0.39,-1.47 0.18,-0.75 0.3,-1.35 0.12,-0.63 0.18,-1.05 0.06,-0.42 0.09,-0.54 0,-0.66 -0.54,-1.02 -0.54,-0.39 -1.14,-0.39 -0.75,0 -1.47,0.69 -0.69,0.66 -1.23,1.71 -0.54,1.02 -0.87,2.28 -0.33,1.26 -0.33,2.46 0,0.45 0.06,0.96 0.06,0.51 0.24,0.93 0.21,0.42 0.54,0.72 0.33,0.27 0.87,0.27 0.63,0 1.11,-0.48 0.48,-0.48 0.84,-1.14 0.36,-0.69 0.6,-1.38 0.24,-0.72 0.36,-1.2 z" />
      <path
         id="path40"
         style="font-family:'Forgiven Script'"
         d="m 287.58766,99.37 q 0,0.33 -0.09,0.48 -0.06,0.15 -0.51,0.15 -0.72,-0.06 -1.17,-0.48 -0.42,-0.42 -0.66,-1.02 -0.21,-0.63 -0.27,-1.32 -0.09,-0.69 -0.09,-1.26 0,-0.9 0.15,-1.92 0.15,-1.05 0.33,-2.04 0.18,-0.99 0.33,-1.8 0.15,-0.84 0.15,-1.35 0,-0.15 -0.06,-0.15 -0.24,-0.03 -0.24,-0.09 0,-0.12 0.54,-0.24 0.54,-0.15 1.11,-0.15 0.51,0 0.84,0.15 0.33,0.12 0.33,0.66 0,0.57 -0.21,1.53 -0.21,0.96 -0.48,2.13 -0.27,1.17 -0.48,2.46 -0.21,1.26 -0.21,2.4 v 0.39 q 0.12,-0.54 0.27,-1.14 0.15,-0.6 0.3,-1.14 0.15,-0.54 0.27,-0.96 0.12,-0.45 0.21,-0.69 0.9,-2.94 1.89,-4.35 0.99,-1.44 2.49,-1.44 0.72,0 1.26,0.3 0.54,0.3 0.87,0.84 0.33,0.51 0.48,1.2 0.18,0.66 0.18,1.41 0,0.78 -0.15,1.59 -0.15,0.81 -0.36,1.62 -0.18,0.78 -0.39,1.56 -0.18,0.75 -0.27,1.47 -0.03,0.15 -0.03,0.27 0,0.12 0,0.24 0,0.42 0.12,0.42 0.24,0 0.57,-0.39 0.33,-0.39 0.69,-0.99 0.39,-0.63 0.78,-1.35 0.39,-0.75 0.69,-1.41 0.33,-0.69 0.57,-1.2 0.24,-0.54 0.33,-0.75 0.09,-0.24 0.39,-0.24 0.18,0 0.33,0.12 0.15,0.12 0.15,0.3 0,0.12 -0.03,0.18 -0.15,0.39 -0.42,1.05 -0.27,0.63 -0.63,1.38 -0.36,0.72 -0.78,1.47 -0.42,0.75 -0.9,1.35 -0.45,0.6 -0.96,0.99 -0.51,0.39 -1.02,0.39 -0.6,0 -0.96,-0.27 -0.33,-0.27 -0.51,-0.66 -0.15,-0.42 -0.21,-0.87 -0.03,-0.48 -0.03,-0.84 0,-1.74 0.3,-3.3 0.33,-1.59 0.33,-3.06 v -0.42 q 0,-0.54 -0.12,-1.02 -0.12,-0.48 -0.63,-0.48 -0.54,0 -1.08,0.63 -0.51,0.63 -0.99,1.62 -0.45,0.96 -0.84,2.19 -0.39,1.2 -0.69,2.34 -0.3,1.14 -0.51,2.1 -0.18,0.93 -0.27,1.41 z" />
      <path
         id="path42"
         style="font-family:'Forgiven Script'"
         d="m 297.27531,95.35 q 0,-1.23 0.42,-2.49 0.42,-1.26 1.17,-2.31 0.75,-1.05 1.8,-1.71 1.05,-0.66 2.31,-0.66 1.38,0 2.19,0.78 0.81,0.75 0.81,1.92 0,0.93 -0.48,1.77 -0.48,0.81 -1.23,1.5 -0.6,0.51 -1.74,1.02 -1.11,0.48 -2.82,0.54 -0.03,0.15 -0.03,0.3 0,0.12 0,0.27 0,0.27 0.06,0.75 0.06,0.48 0.24,0.96 0.21,0.45 0.6,0.78 0.42,0.33 1.14,0.33 1.2,0 2.13,-0.6 0.96,-0.6 1.71,-1.5 0.75,-0.9 1.32,-1.98 0.57,-1.08 0.96,-2.01 0.12,-0.24 0.39,-0.24 0.18,0 0.33,0.12 0.15,0.12 0.15,0.3 0,0.12 -0.03,0.18 -0.48,1.14 -1.14,2.34 -0.66,1.17 -1.53,2.13 -0.87,0.96 -1.98,1.56 -1.11,0.6 -2.52,0.6 -1.02,0 -1.8,-0.36 -0.78,-0.36 -1.32,-0.99 -0.54,-0.63 -0.81,-1.47 -0.3,-0.84 -0.3,-1.83 z m 2.52,-0.54 q 1.89,-0.18 3.06,-1.32 1.17,-1.14 1.17,-3.09 0,-0.42 -0.15,-0.87 -0.15,-0.45 -0.81,-0.45 -0.69,0 -1.23,0.57 -0.54,0.54 -0.96,1.41 -0.39,0.84 -0.66,1.86 -0.27,0.99 -0.42,1.89 z" />
      <path
         id="path44"
         style="font-family:'Forgiven Script'"
         d="m 307.44203,95.38 q 0,-1.29 0.45,-2.58 0.48,-1.29 1.29,-2.31 0.81,-1.02 1.92,-1.65 1.11,-0.66 2.4,-0.66 0.63,0 1.08,0.15 0.48,0.15 0.81,0.39 0.15,0.12 0.27,0.24 0.12,0.09 0.21,0.24 0.03,-0.15 0.03,-0.39 0,-0.15 -0.06,-0.15 -0.24,-0.03 -0.24,-0.09 0,-0.12 0.54,-0.24 0.54,-0.15 1.11,-0.15 0.51,0 0.84,0.15 0.33,0.12 0.33,0.66 0,0.57 -0.21,1.56 -0.21,0.96 -0.48,2.13 -0.27,1.17 -0.48,2.43 -0.21,1.26 -0.21,2.43 0,0.51 0.03,0.81 0.06,0.3 0.12,0.48 0.03,0.18 0.12,0.27 0.27,0 0.6,-0.39 0.36,-0.39 0.72,-0.99 0.39,-0.63 0.78,-1.35 0.39,-0.72 0.69,-1.38 0.33,-0.69 0.57,-1.23 0.24,-0.54 0.33,-0.75 0.09,-0.24 0.39,-0.24 0.18,0 0.33,0.12 0.15,0.12 0.15,0.3 0,0.12 -0.03,0.18 -0.15,0.39 -0.42,1.05 -0.27,0.63 -0.63,1.38 -0.36,0.72 -0.78,1.47 -0.42,0.75 -0.9,1.35 -0.45,0.6 -0.96,0.99 -0.51,0.39 -1.02,0.39 -0.6,0 -1.02,-0.36 -0.42,-0.36 -0.66,-0.9 -0.24,-0.57 -0.36,-1.23 -0.12,-0.69 -0.15,-1.29 -0.21,0.66 -0.51,1.35 -0.27,0.66 -0.69,1.2 -0.39,0.54 -0.99,0.9 -0.57,0.33 -1.38,0.33 -0.9,0 -1.62,-0.33 -0.72,-0.36 -1.23,-0.96 -0.51,-0.63 -0.78,-1.47 -0.3,-0.87 -0.3,-1.86 z m 7.02,-0.48 q 0.24,-0.75 0.39,-1.47 0.18,-0.75 0.3,-1.35 0.12,-0.63 0.18,-1.05 0.06,-0.42 0.09,-0.54 0,-0.66 -0.54,-1.02 -0.54,-0.39 -1.14,-0.39 -0.75,0 -1.47,0.69 -0.69,0.66 -1.23,1.71 -0.54,1.02 -0.87,2.28 -0.33,1.26 -0.33,2.46 0,0.45 0.06,0.96 0.06,0.51 0.24,0.93 0.21,0.42 0.54,0.72 0.33,0.27 0.87,0.27 0.63,0 1.11,-0.48 0.48,-0.48 0.84,-1.14 0.36,-0.69 0.6,-1.38 0.24,-0.72 0.36,-1.2 z" />
    </g>
  </g>
</svg>
