<?xml version="1.0" encoding="UTF-8" standalone="no"?>
<svg
   xmlns:dc="http://purl.org/dc/elements/1.1/"
   xmlns:cc="http://creativecommons.org/ns#"
   xmlns:rdf="http://www.w3.org/1999/02/22-rdf-syntax-ns#"
   xmlns:svg="http://www.w3.org/2000/svg"
   xmlns="http://www.w3.org/2000/svg"
   id="svg16"
   width="800px"
   version="1.1"
   height="200px">
  <metadata
     id="metadata20">
    <rdf:RDF>
      <cc:Work
         rdf:about="">
        <dc:format>image/svg+xml</dc:format>
        <dc:type
           rdf:resource="http://purl.org/dc/dcmitype/StillImage" />
      </cc:Work>
    </rdf:RDF>
  </metadata>
  <defs
     id="defs4">
    <style
       id="style2"
       type="text/css"><![CDATA[    
     @font-face {font-family:Geomanist;
     src: url('/Users/francesco/Repos/write-logos/src/fonts/Fonts_E_TEMPORANEA/Geomanist-Black.otf');}
     @font-face {font-family:SomewhereInSpace;
     src: url('/Users/francesco/Repos/write-logos/src/fonts/Fonts_X/SOMWHEREINSPACE.ttf');}
     ]]></style>
  </defs>
  <g
     id="g14"
     style="font-size:60px">
    <g
       style="text-anchor:middle"
       id="text12"
       aria-label="EXTEMPORANEA">
      <path
         id="path22"
         style="font-family:Geomanist;letter-spacing:0.075em"
         d="m 146.39406,100 h 24 V 89.56 h -12.06 v -5.58 h 9.78 V 73.6 h -9.78 v -5.16 h 11.58 V 58 h -23.52 z" />
      <path
         id="path24"
         style="font-family:SomewhereInSpace;letter-spacing:0.05em"
         d="m 215.09687,108.4 q -2.4,-3.84 -6.9,-3.72 -1.44,0 -2.64,0.6 -0.3,0.06 -0.78,0.24 -0.36,-2.16 -1.26,-6.18 l -0.72,-1.26 q -1.32,-4.38 -3.78,-9.18 l -0.3,-0.3 q -0.84,0.84 -1.26,2.1 0.48,2.7 0.42,5.46 -0.12,5.28 -2.21999,10.98 -0.84001,2.28 -2.28001,5.22 -0.42,0.42 -1.2,1.02 -0.18,0.06 -0.78,0.24 -1.98,0.54 -2.88,0.54 -2.82,0 -4.32,-1.14 -0.24,-0.18 -0.78,-0.66 -0.48,-0.48 -1.2,-1.74 0.24,-0.66 0.6,-2.04 3.24,-7.98 3,-16.08 l -0.12,-4.68 q -0.06,-2.88 -0.42,-4.62 -0.24,-1.32 -0.36,-2.22 -0.54,-0.84 -1.92,-3.06 -2.64,-4.38 -3.18,-7.32 -1.92,-6.24 -1.8,-10.86 0.06,-1.8 0.18,-3.9 0.06,-0.3 0.3,-0.96 1.14,3.24 4.38,4.26 2.1,0.66 4.5,0 1.26,0.9 2.04,3.36 0.18,0.42 1.02,3.96 0.12,0.96 0.42,2.82 0.42,0.72 1.80001,3 l 0.41999,-0.48 0.3,-0.42 q 0.12,-0.42 0.42,-1.2 0.66,-5.88 5.58,-17.28 4.26,-2.4 6.66,-2.46 1.02,-0.06 2.28,0.42 0.96,0.48 1.62,1.14 -6.6,9.84 -7.56,21.24 l 4.68,7.32 q 2.88,4.56 4.38,7.38 3.9,7.38 4.08,16.38 0,1.44 -0.23999,3.3 -0.18001,0.54 -0.18001,0.78 z" />
      <path
         id="path26"
         style="font-family:Geomanist;letter-spacing:0.075em"
         d="m 228.62875,100 h 11.94 V 68.44 h 8.7 V 58 h -29.22 v 10.44 h 8.58 z" />
      <path
         id="path28"
         style="font-family:Geomanist;letter-spacing:0.075em"
         d="m 258.23781,100 h 24 V 89.56 h -12.06 v -5.58 h 9.78 V 73.6 h -9.78 v -5.16 h 11.58 V 58 h -23.52 z" />
      <path
         id="path30"
         style="font-family:Geomanist;letter-spacing:0.075em"
         d="m 308.16062,58 h -15.53999 v 42 h 11.45999 V 74.44 l 8.04001,22.26 h 10.86 l 8.09999,-22.26 V 100 h 11.40001 V 58 h -15.48 l -9.48001,24.96 z" />
      <path
         id="path32"
         style="font-family:Geomanist;letter-spacing:0.075em"
         d="m 353.95656,100 h 11.94 V 86.08 h 4.62 c 8.46,0 13.98,-5.82 13.98,-14.1 0,-8.46 -5.22,-13.98 -14.16,-13.98 h -16.38 z m 11.94,-23.94 v -8.04 h 2.64 c 2.28,0 3.72,1.62 3.72,3.9 0,2.4 -1.32,4.14 -3.84,4.14 z" />
      <path
         id="path34"
         style="font-family:Geomanist;letter-spacing:0.075em"
         d="m 414.07562,100.78 c 13.86001,0 22.68,-9.54 22.68,-21.84 0,-12.12 -8.81999,-21.72 -22.68,-21.72 -13.86,0 -22.68,9.6 -22.68,21.72 0,12.3 8.82,21.84 22.68,21.84 z m 0,-32.64 c 6.12,0 10.2,4.68 10.2,10.8 0,6.3 -4.08,10.92 -10.2,10.92 -6.12,0 -10.19999,-4.62 -10.19999,-10.92 0,-6.12 4.07999,-10.8 10.19999,-10.8 z" />
      <path
         id="path36"
         style="font-family:Geomanist;letter-spacing:0.075em"
         d="m 446.15969,100 h 11.94 V 85.18 h 2.16 l 7.08,14.82 h 13.14 l -9.6,-17.64 c 3.6,-2.28 5.52,-6.6 5.52,-11.1 0,-8.22 -4.98,-13.26 -15.42,-13.26 h -14.82 z m 11.94,-24.54 v -7.44 h 1.98 c 2.7,0 4.14,1.32 4.14,3.66 0,2.16 -1.44,3.78 -4.14,3.78 z" />
      <path
         id="path38"
         style="font-family:Geomanist;letter-spacing:0.075em"
         d="m 512.50844,91.96 2.52,8.04 h 12 l -14.52,-42 h -12.6 l -14.52,42 h 12 l 2.52,-8.04 z m -2.82,-9.54 h -6.96 l 3.48,-12.06 z" />
      <path
         id="path40"
         style="font-family:Geomanist;letter-spacing:0.075em"
         d="m 535.19875,100 h 11.7 V 76.54 l 13.86,23.46 h 11.88 V 58 h -11.76 v 23.82 l -13.5,-23.82 h -12.18 z" />
      <path
         id="path42"
         style="font-family:Geomanist;letter-spacing:0.075em"
         d="m 584.11281,100 h 24 V 89.56 h -12.06 v -5.58 h 9.78 V 73.6 h -9.78 v -5.16 h 11.58 V 58 h -23.52 z" />
      <path
         id="path44"
         style="font-family:Geomanist;letter-spacing:0.075em"
         d="m 642.37563,91.96 2.51999,8.04 h 12 L 642.37563,58 h -12.60001 l -14.52,42 h 12 l 2.52,-8.04 z m -2.82001,-9.54 h -6.95999 l 3.47999,-12.06 z" />
    </g>
  </g>
</svg>
