<?xml version="1.0" encoding="UTF-8" standalone="no"?>
<svg
   xmlns:dc="http://purl.org/dc/elements/1.1/"
   xmlns:cc="http://creativecommons.org/ns#"
   xmlns:rdf="http://www.w3.org/1999/02/22-rdf-syntax-ns#"
   xmlns:svg="http://www.w3.org/2000/svg"
   xmlns="http://www.w3.org/2000/svg"
   id="svg16"
   width="800px"
   version="1.1"
   height="200px">
  <metadata
     id="metadata20">
    <rdf:RDF>
      <cc:Work
         rdf:about="">
        <dc:format>image/svg+xml</dc:format>
        <dc:type
           rdf:resource="http://purl.org/dc/dcmitype/StillImage" />
      </cc:Work>
    </rdf:RDF>
  </metadata>
  <defs
     id="defs4">
    <style
       id="style2"
       type="text/css"><![CDATA[    
     @font-face {font-family:Geomanist;
     src: url('/Users/francesco/Repos/write-logos/src/fonts/Fonts_E_TEMPORANEA/Geomanist-Book.otf');}
     @font-face {font-family:Monofett;
     src: url('/Users/francesco/Repos/write-logos/src/fonts/Fonts_X/Monofett-Regular.ttf');}
     ]]></style>
  </defs>
  <g
     id="g14"
     style="font-size:60px">
    <g
       style="text-anchor:middle"
       id="text12"
       aria-label="EXTEMPORANEA">
      <path
         id="path22"
         style="font-family:Geomanist;letter-spacing:0.075em"
         d="m 161.64953,100 h 21.36 v -6 h -14.7 V 81.64 h 12.24 V 75.7 h -12.24 V 64 h 14.1 v -6 h -20.76 z" />
      <path
         id="path24"
         style="font-family:Monofett;letter-spacing:0.05em"
         d="m 212.33594,59.863281 q 2.95898,0 5.36133,0.878906 2.40234,0.878907 4.07226,2.402344 1.69922,1.523438 2.60742,3.574219 0.90821,2.021484 0.90821,4.306641 v 17.8125 q 0,2.285156 -0.90821,4.335937 -0.9082,2.021484 -2.60742,3.544922 -1.66992,1.523437 -4.07226,2.402344 Q 215.29492,100 212.33594,100 h -9.02344 q -2.95898,0 -5.36133,-0.878906 -2.40234,-0.878907 -4.10156,-2.402344 -1.66992,-1.523438 -2.57813,-3.544922 -0.9082,-2.050781 -0.9082,-4.335937 v -17.8125 q 0,-2.285157 0.9082,-4.306641 0.90821,-2.050781 2.57813,-3.574219 1.69922,-1.523437 4.10156,-2.402344 2.40235,-0.878906 5.36133,-0.878906 z m 3.57422,2.578125 -6.65039,10.546875 -6.47461,-10.546875 -2.8125,1.201172 6.82617,11.044922 -6.76758,10.986328 2.75391,1.113281 6.47461,-10.195312 6.65039,10.195312 2.7832,-1.113281 -6.79688,-10.986328 6.91407,-11.162109 z" />
      <path
         id="path26"
         style="font-family:Geomanist;letter-spacing:0.075em"
         d="m 239.92797,100 h 6.66 V 64 h 10.56 v -6 h -27.78 v 6 h 10.56 z" />
      <path
         id="path28"
         style="font-family:Geomanist;letter-spacing:0.075em"
         d="m 267.75109,100 h 21.36 v -6 h -14.7 V 81.64 h 12.24 V 75.7 h -12.24 V 64 h 14.1 v -6 h -20.76 z" />
      <path
         id="path30"
         style="font-family:Geomanist;letter-spacing:0.075em"
         d="m 309.48203,58 h -8.58 v 42 h 6.42 V 67.48 l 12.54,28.8 h 6.36 l 12.54,-28.8 V 100 h 6.42 V 58 h -8.58 l -13.56,30.66 z" />
      <path
         id="path32"
         style="font-family:Geomanist;letter-spacing:0.075em"
         d="m 358.43078,100 h 6.66 V 83.38 h 5.58 c 7.62,0 13.38,-5.34 13.38,-12.78 0,-7.56 -5.52,-12.6 -13.44,-12.6 h -12.18 z m 6.66,-22.44 V 63.82 h 4.8 c 4.32,0 7.32,2.64 7.32,6.78 0,4.2 -3,6.96 -7.38,6.96 z" />
      <path
         id="path34"
         style="font-family:Geomanist;letter-spacing:0.075em"
         d="m 392.11422,79 c 0,12.42 9.06,21.78 21.6,21.78 12.6,0 21.66,-9.42 21.66,-21.78 0,-12.24 -9.06,-21.78 -21.6,-21.78 -12.54,0 -21.66,9.48 -21.66,21.78 z m 6.96,0 c 0,-8.88 6.24,-15.54 14.7,-15.54 8.4,0 14.7,6.66 14.7,15.54 0,9 -6.3,15.54 -14.7,15.54 -8.46,0 -14.7,-6.54 -14.7,-15.54 z" />
      <path
         id="path36"
         style="font-family:Geomanist;letter-spacing:0.075em"
         d="m 446.29797,100 h 6.66 V 82.66 h 5.82 l 8.82,17.34 h 7.38 l -10.2,-18.84 c 4.26,-1.74 6.84,-5.94 6.84,-10.8 0,-7.02 -5.04,-12.36 -14.04,-12.36 h -11.28 z m 6.66,-23.04 V 63.82 h 4.5 c 4.86,0 7.26,2.64 7.26,6.54 0,4.26 -3.06,6.6 -7.26,6.6 z" />
      <path
         id="path38"
         style="font-family:Geomanist;letter-spacing:0.075em"
         d="m 507.46234,87.76 4.32,12.24 h 6.72 l -15.3,-42 h -6.9 l -15.3,42 h 6.72 l 4.38,-12.24 z m -1.86,-5.58 h -11.64 l 5.82,-16.98 z" />
      <path
         id="path40"
         style="font-family:Geomanist;letter-spacing:0.075em"
         d="m 528.01141,100 h 6.6 V 68.98 l 20.64,31.02 h 6.6 V 58 h -6.54 v 31.2 l -20.58,-31.2 h -6.72 z" />
      <path
         id="path42"
         style="font-family:Geomanist;letter-spacing:0.075em"
         d="m 575.11047,100 h 21.36 v -6 h -14.7 V 81.64 h 12.24 V 75.7 h -12.24 V 64 h 14.1 v -6 h -20.76 z" />
      <path
         id="path44"
         style="font-family:Geomanist;letter-spacing:0.075em"
         d="m 631.00141,87.76 4.32,12.24 h 6.72 l -15.3,-42 h -6.9 l -15.3,42 h 6.72 l 4.38,-12.24 z m -1.86,-5.58 h -11.64 l 5.82,-16.98 z" />
    </g>
  </g>
</svg>
