<?xml version="1.0" encoding="UTF-8" standalone="no"?>
<svg
   xmlns:dc="http://purl.org/dc/elements/1.1/"
   xmlns:cc="http://creativecommons.org/ns#"
   xmlns:rdf="http://www.w3.org/1999/02/22-rdf-syntax-ns#"
   xmlns:svg="http://www.w3.org/2000/svg"
   xmlns="http://www.w3.org/2000/svg"
   id="svg16"
   width="800px"
   version="1.1"
   height="200px">
  <metadata
     id="metadata20">
    <rdf:RDF>
      <cc:Work
         rdf:about="">
        <dc:format>image/svg+xml</dc:format>
        <dc:type
           rdf:resource="http://purl.org/dc/dcmitype/StillImage" />
      </cc:Work>
    </rdf:RDF>
  </metadata>
  <defs
     id="defs4">
    <style
       id="style2"
       type="text/css"><![CDATA[    
     @font-face {font-family:Geomanist;
     src: url('/Users/francesco/Repos/write-logos/src/fonts/Fonts_E_TEMPORANEA/Geomanist-Black.otf');}
     @font-face {font-family:Modak;
     src: url('/Users/francesco/Repos/write-logos/src/fonts/Fonts_X/Modak-Regular.ttf');}
     ]]></style>
  </defs>
  <g
     id="g14"
     style="font-size:60px">
    <g
       style="text-anchor:middle"
       id="text12"
       aria-label="EXTEMPORANEA">
      <path
         id="path22"
         style="font-family:Geomanist;letter-spacing:0.075em"
         d="m 146.86281,100 h 24 V 89.56 h -12.06 v -5.58 h 9.78 V 73.6 h -9.78 v -5.16 h 11.58 V 58 h -23.52 z" />
      <path
         id="path24"
         style="font-family:Modak;letter-spacing:0.05em"
         d="m 196.86719,93.115234 -3.39844,6.621094 q -2.19727,0.820312 -4.77539,0.820312 -4.54102,0 -7.44141,-2.578124 -2.90039,-2.578125 -2.90039,-6.94336 0,-3.867187 2.60742,-6.884765 2.60743,-3.017579 7.38282,-5.06836 -0.35157,-0.966797 -1.20118,-0.966797 -0.8496,0 -3.10546,1.552735 -2.19727,-1.142578 -3.86719,-3.779297 -1.64063,-2.636719 -1.64063,-6.09375 0,-3.457031 2.54883,-5.917969 2.54883,-2.460937 7.03125,-2.460937 3.86719,0 6.35742,1.435546 l 3.10547,6.181641 2.51953,-6.328125 q 2.49024,-1.113281 5.56641,-1.113281 4.36523,0 7.08984,2.402344 2.72461,2.460937 2.72461,6.884765 0,3.66211 -2.63672,6.884766 -2.60742,3.193359 -6.70898,5.068359 0.32227,0.84961 1.14258,0.84961 0.84961,0 2.72461,-1.289063 l 6.03515,7.558594 q 0,4.716797 -2.34375,7.529297 -2.57812,3.105471 -7.11914,3.105471 -6.91406,0 -9.69726,-7.470706 z" />
      <path
         id="path26"
         style="font-family:Geomanist;letter-spacing:0.075em"
         d="M 228.16,100 H 240.1 V 68.44 h 8.7 V 58 h -29.22 v 10.44 h 8.58 z" />
      <path
         id="path28"
         style="font-family:Geomanist;letter-spacing:0.075em"
         d="m 257.76906,100 h 24 V 89.56 h -12.06 v -5.58 h 9.78 V 73.6 h -9.78 v -5.16 h 11.58 V 58 h -23.52 z" />
      <path
         id="path30"
         style="font-family:Geomanist;letter-spacing:0.075em"
         d="m 307.69187,58 h -15.53999 v 42 h 11.45999 V 74.44 l 8.04001,22.26 h 10.86 l 8.09999,-22.26 V 100 h 11.40001 V 58 h -15.48 l -9.48001,24.96 z" />
      <path
         id="path32"
         style="font-family:Geomanist;letter-spacing:0.075em"
         d="m 353.48781,100 h 11.94 V 86.08 h 4.62 c 8.46,0 13.98,-5.82 13.98,-14.1 0,-8.46 -5.22,-13.98 -14.16,-13.98 h -16.38 z m 11.94,-23.94 v -8.04 h 2.64 c 2.28,0 3.72,1.62 3.72,3.9 0,2.4 -1.32,4.14 -3.84,4.14 z" />
      <path
         id="path34"
         style="font-family:Geomanist;letter-spacing:0.075em"
         d="m 413.60687,100.78 c 13.86001,0 22.68,-9.54 22.68,-21.84 0,-12.12 -8.81999,-21.72 -22.68,-21.72 -13.86,0 -22.68,9.6 -22.68,21.72 0,12.3 8.82,21.84 22.68,21.84 z m 0,-32.64 c 6.12,0 10.2,4.68 10.2,10.8 0,6.3 -4.08,10.92 -10.2,10.92 -6.12,0 -10.19999,-4.62 -10.19999,-10.92 0,-6.12 4.07999,-10.8 10.19999,-10.8 z" />
      <path
         id="path36"
         style="font-family:Geomanist;letter-spacing:0.075em"
         d="m 445.69094,100 h 11.94 V 85.18 h 2.16 l 7.08,14.82 h 13.14 l -9.6,-17.64 c 3.6,-2.28 5.52,-6.6 5.52,-11.1 0,-8.22 -4.98,-13.26 -15.42,-13.26 h -14.82 z m 11.94,-24.54 v -7.44 h 1.98 c 2.7,0 4.14,1.32 4.14,3.66 0,2.16 -1.44,3.78 -4.14,3.78 z" />
      <path
         id="path38"
         style="font-family:Geomanist;letter-spacing:0.075em"
         d="m 512.03969,91.96 2.52,8.04 h 12 l -14.52,-42 h -12.6 l -14.52,42 h 12 l 2.52,-8.04 z m -2.82,-9.54 h -6.96 l 3.48,-12.06 z" />
      <path
         id="path40"
         style="font-family:Geomanist;letter-spacing:0.075em"
         d="m 534.73,100 h 11.7 V 76.54 L 560.29,100 h 11.88 V 58 H 560.41 V 81.82 L 546.91,58 h -12.18 z" />
      <path
         id="path42"
         style="font-family:Geomanist;letter-spacing:0.075em"
         d="m 583.64406,100 h 24 V 89.56 h -12.06 v -5.58 h 9.78 V 73.6 h -9.78 v -5.16 h 11.58 V 58 h -23.52 z" />
      <path
         id="path44"
         style="font-family:Geomanist;letter-spacing:0.075em"
         d="m 641.90688,91.96 2.51999,8.04 h 12 L 641.90688,58 h -12.60001 l -14.52,42 h 12 l 2.52,-8.04 z m -2.82001,-9.54 h -6.95999 l 3.47999,-12.06 z" />
    </g>
  </g>
</svg>
