<?xml version="1.0" encoding="UTF-8" standalone="no"?>
<svg
   xmlns:dc="http://purl.org/dc/elements/1.1/"
   xmlns:cc="http://creativecommons.org/ns#"
   xmlns:rdf="http://www.w3.org/1999/02/22-rdf-syntax-ns#"
   xmlns:svg="http://www.w3.org/2000/svg"
   xmlns="http://www.w3.org/2000/svg"
   id="svg16"
   width="800px"
   version="1.1"
   height="200px">
  <metadata
     id="metadata20">
    <rdf:RDF>
      <cc:Work
         rdf:about="">
        <dc:format>image/svg+xml</dc:format>
        <dc:type
           rdf:resource="http://purl.org/dc/dcmitype/StillImage" />
      </cc:Work>
    </rdf:RDF>
  </metadata>
  <defs
     id="defs4">
    <style
       id="style2"
       type="text/css"><![CDATA[    
     @font-face {font-family:Geomanist;
     src: url('/Users/francesco/Repos/write-logos/src/fonts/Fonts_E_TEMPORANEA/Geomanist-Black.otf');}
     @font-face {font-family:FrankfurterEF;
     src: url('/Users/francesco/Repos/write-logos/src/fonts/Fonts_X/FrankfurterEF-Highlight.ttf');}
     ]]></style>
  </defs>
  <g
     id="g14"
     style="font-size:60px">
    <g
       style="text-anchor:middle"
       id="text12"
       aria-label="EXTEMPORANEA">
      <path
         id="path22"
         style="font-family:Geomanist;letter-spacing:0.075em"
         d="m 148.09328,100 h 24 V 89.56 h -12.06 v -5.58 h 9.78 V 73.6 h -9.78 v -5.16 h 11.58 V 58 h -23.52 z" />
      <path
         id="path24"
         style="font-family:FrankfurterEF;letter-spacing:0.05em"
         d="m 214.03609,93.7 q 0,-1.2 -0.42,-2.28 -0.36,-1.08 -1.02,-2.04 l -7.5,-10.02 6.12,-8.1 q 0.84,-1.08 1.44,-2.34 0.66,-1.32 0.66,-2.7 0,-1.32 -0.54,-2.52 -0.54,-1.2 -1.5,-2.04 -0.9,-0.9 -2.16,-1.38 -1.2,-0.54 -2.52,-0.54 -2.04,0 -3.36,1.02 -1.26,1.02 -2.46,2.52 l -4.02,5.04 -4.26,-5.64 q -1.02,-1.38 -2.4,-2.16 -1.38,-0.78 -3.18,-0.78 -1.38,0 -2.58,0.54 -1.2,0.48 -2.16,1.38 -0.9,0.9 -1.44,2.1 -0.54,1.2 -0.54,2.58 0,1.62 0.84,3.06 0.84,1.38 1.8,2.58 l 5.58,7.38 -7.5,9.9 q -0.72,0.96 -1.14,2.16 -0.42,1.14 -0.42,2.34 0,1.38 0.54,2.58 0.54,1.2 1.44,2.1 0.9,0.84 2.1,1.38 1.2,0.48 2.58,0.48 1.8,0 3,-0.72 1.26,-0.78 2.34,-2.16 l 5.4,-7.02 5.4,7.08 q 1.02,1.32 2.4,2.1 1.38,0.72 3.06,0.72 1.32,0 2.52,-0.54 1.2,-0.54 2.04,-1.44 0.84,-0.9 1.32,-2.1 0.54,-1.2 0.54,-2.52 z m -8.46,-29.4 q 0,0.48 -0.36,0.84 -0.36,0.36 -0.84,0.36 -0.48,0 -0.84,-0.36 -0.3,-0.36 -0.3,-0.84 0,-1.14 1.14,-1.14 0.48,0 0.84,0.36 0.36,0.3 0.36,0.78 z m -2.22,2.28 q 0,0.3 -0.12,0.54 -0.12,0.18 -0.24,0.42 l -3,3.9 q -0.18,0.24 -0.42,0.42 -0.24,0.18 -0.54,0.18 -0.48,0 -0.72,-0.3 -0.24,-0.3 -0.24,-0.72 0,-0.3 0.12,-0.54 0.18,-0.3 0.36,-0.54 l 2.76,-3.6 q 0.42,-0.66 1.08,-0.66 0.36,0 0.66,0.24 0.3,0.24 0.3,0.66 z m -17.4,-2.58 q 0,1.14 -1.14,1.14 -0.48,0 -0.84,-0.3 -0.36,-0.36 -0.36,-0.84 0,-0.48 0.36,-0.84 0.36,-0.36 0.84,-0.36 0.48,0 0.78,0.36 0.36,0.36 0.36,0.84 z m 22.68,32.94 q 0,0.66 -0.48,0.9 -0.42,0.24 -0.96,0.24 -1.38,0 -2.16,-0.66 -0.72,-0.72 -1.44,-1.74 l -5.1,-6.84 q -0.18,-0.24 -0.36,-0.48 -0.12,-0.3 -0.12,-0.6 0,-0.96 0.9,-0.96 0.42,0 0.66,0.3 0.3,0.24 0.54,0.54 l 5.34,7.2 q 0.54,0.72 1.08,0.9 0.54,0.18 1.02,0.3 0.48,0.06 0.78,0.18 0.3,0.12 0.3,0.72 z m -15.72,-17.46 q 0,1.02 -0.6,1.86 -0.54,0.84 -1.14,1.62 l -6.78,8.76 q -0.3,0.36 -0.48,0.84 -0.18,0.42 -0.18,0.9 0,0.96 0.42,1.38 0.48,0.42 1.02,0.66 0.54,0.24 0.96,0.48 0.48,0.18 0.48,0.72 0,0.48 -0.42,0.78 -0.36,0.3 -0.84,0.3 -0.72,0 -1.44,-0.36 -0.66,-0.42 -1.14,-0.96 -0.48,-0.6 -0.78,-1.32 -0.3,-0.72 -0.3,-1.44 0,-1.02 0.36,-1.92 0.42,-0.96 1.08,-1.8 l 6.9,-8.82 q 0.3,-0.36 0.54,-0.78 0.24,-0.48 0.24,-0.96 0,-0.66 -0.36,-1.26 -0.36,-0.6 -0.72,-1.08 l -6.3,-8.46 q -0.24,-0.3 -0.48,-0.72 -0.18,-0.48 -0.18,-0.9 0,-0.48 0.24,-0.78 0.3,-0.3 0.78,-0.3 0.72,0 0.96,0.66 0.12,0.24 0.24,0.48 0.12,0.18 0.24,0.42 l 5.76,7.8 q 0.66,0.96 1.26,1.98 0.66,1.02 0.66,2.22 z" />
      <path
         id="path26"
         style="font-family:Geomanist;letter-spacing:0.075em"
         d="m 226.92953,100 h 11.94 V 68.44 h 8.7 V 58 h -29.22 v 10.44 h 8.58 z" />
      <path
         id="path28"
         style="font-family:Geomanist;letter-spacing:0.075em"
         d="m 256.53859,100 h 24 V 89.56 h -12.06 v -5.58 h 9.78 V 73.6 h -9.78 v -5.16 h 11.58 V 58 h -23.52 z" />
      <path
         id="path30"
         style="font-family:Geomanist;letter-spacing:0.075em"
         d="m 306.46141,58 h -15.54 v 42 h 11.46 V 74.44 l 8.04,22.26 h 10.86 l 8.1,-22.26 V 100 h 11.4 V 58 h -15.48 l -9.48,24.96 z" />
      <path
         id="path32"
         style="font-family:Geomanist;letter-spacing:0.075em"
         d="m 352.25734,100 h 11.94 V 86.08 h 4.62 c 8.46,0 13.98,-5.82 13.98,-14.1 0,-8.46 -5.22,-13.98 -14.16,-13.98 h -16.38 z m 11.94,-23.94 v -8.04 h 2.64 c 2.28,0 3.72,1.62 3.72,3.9 0,2.4 -1.32,4.14 -3.84,4.14 z" />
      <path
         id="path34"
         style="font-family:Geomanist;letter-spacing:0.075em"
         d="m 412.37641,100.78 c 13.86,0 22.68,-9.54 22.68,-21.84 0,-12.12 -8.82,-21.72 -22.68,-21.72 -13.86,0 -22.68,9.6 -22.68,21.72 0,12.3 8.82,21.84 22.68,21.84 z m 0,-32.64 c 6.12,0 10.2,4.68 10.2,10.8 0,6.3 -4.08,10.92 -10.2,10.92 -6.12,0 -10.2,-4.62 -10.2,-10.92 0,-6.12 4.08,-10.8 10.2,-10.8 z" />
      <path
         id="path36"
         style="font-family:Geomanist;letter-spacing:0.075em"
         d="m 444.46047,100 h 11.94 V 85.18 h 2.16 l 7.08,14.82 h 13.14 l -9.6,-17.64 c 3.6,-2.28 5.52,-6.6 5.52,-11.1 0,-8.22 -4.98,-13.26 -15.42,-13.26 h -14.82 z m 11.94,-24.54 v -7.44 h 1.98 c 2.7,0 4.14,1.32 4.14,3.66 0,2.16 -1.44,3.78 -4.14,3.78 z" />
      <path
         id="path38"
         style="font-family:Geomanist;letter-spacing:0.075em"
         d="m 510.80922,91.96 2.52,8.04 h 12 l -14.52,-42 h -12.6 l -14.52,42 h 12 l 2.52,-8.04 z m -2.82,-9.54 h -6.96 l 3.48,-12.06 z" />
      <path
         id="path40"
         style="font-family:Geomanist;letter-spacing:0.075em"
         d="m 533.49953,100 h 11.7 V 76.54 l 13.86,23.46 h 11.88 V 58 h -11.76 v 23.82 l -13.5,-23.82 h -12.18 z" />
      <path
         id="path42"
         style="font-family:Geomanist;letter-spacing:0.075em"
         d="m 582.41359,100 h 24 V 89.56 h -12.06 v -5.58 h 9.78 V 73.6 h -9.78 v -5.16 h 11.58 V 58 h -23.52 z" />
      <path
         id="path44"
         style="font-family:Geomanist;letter-spacing:0.075em"
         d="m 640.67641,91.96 2.52,8.04 h 12 l -14.52,-42 h -12.6 l -14.52,42 h 12 l 2.52,-8.04 z m -2.82,-9.54 h -6.96 l 3.48,-12.06 z" />
    </g>
  </g>
</svg>
