<?xml version="1.0" encoding="UTF-8" standalone="no"?>
<svg
   xmlns:dc="http://purl.org/dc/elements/1.1/"
   xmlns:cc="http://creativecommons.org/ns#"
   xmlns:rdf="http://www.w3.org/1999/02/22-rdf-syntax-ns#"
   xmlns:svg="http://www.w3.org/2000/svg"
   xmlns="http://www.w3.org/2000/svg"
   id="svg16"
   width="800px"
   version="1.1"
   height="200px">
  <metadata
     id="metadata20">
    <rdf:RDF>
      <cc:Work
         rdf:about="">
        <dc:format>image/svg+xml</dc:format>
        <dc:type
           rdf:resource="http://purl.org/dc/dcmitype/StillImage" />
      </cc:Work>
    </rdf:RDF>
  </metadata>
  <defs
     id="defs4">
    <style
       id="style2"
       type="text/css"><![CDATA[    
     @font-face {font-family:Geomanist;
     src: url('/Users/francesco/Repos/write-logos/src/fonts/Fonts_E_TEMPORANEA/Geomanist-Black.otf');}
     @font-face {font-family:PWChalk;
     src: url('/Users/francesco/Repos/write-logos/src/fonts/Fonts_X/PWChalk.ttf');}
     ]]></style>
  </defs>
  <g
     id="g14"
     style="font-size:60px">
    <g
       style="text-anchor:middle"
       id="text12"
       aria-label="EXTEMPORANEA">
      <path
         id="path22"
         style="font-family:Geomanist;letter-spacing:0.075em"
         d="m 144.69484,100 h 24 V 89.56 h -12.06 v -5.58 h 9.78 V 73.6 h -9.78 v -5.16 h 11.58 V 58 h -23.52 z" />
      <path
         id="path24"
         style="font-family:PWChalk;letter-spacing:0.05em"
         d="m 183.03766,69.1 1.74,1.98 -0.84,-1.08 -2.58,-4.02 -1.26,-1.86 0.42,0.96 1.92,3.18 z m 12.42,18.66 0.3,0.54 2.16,3.3 1.62,2.58 -0.66,0.36 0.48,0.66 1.62,1.68 0.9,0.72 0.06,0.12 -0.12,-0.84 -1.38,-2.22 -1.26,-2.16 -0.42,-0.6 -2.28,-2.88 z m -6.54,-8.4 -0.12,0.12 0.12,0.18 0.66,1.02 0.18,-0.24 z m 8.4,8.34 -0.9,-1.38 -0.48,-0.6 1.08,1.56 0.84,1.32 z m -17.76,3.24 V 91 Z m 8.1,-4.62 2.4,-3.24 -0.24,-0.3 -0.3,0.42 z m 13.92,-18.6 2.76,-3.72 -1.5,1.56 -3.6,4.44 z m -9.72,15.96 -0.12,0.24 0.3,0.42 2.88,4.44 -2.16,-3.66 z m -1.02,-1.62 -0.24,-0.42 -0.18,0.24 0.24,0.42 z m 3.24,-4.02 -0.48,-0.6 -0.48,0.72 0.42,0.6 z m -7.62,-9.3 0.3,0.54 2.76,4.2 v 0.06 l 0.9,1.14 0.48,-0.6 -0.96,-1.2 -2.7,-3.18 z m 6.3,6.06 0.66,0.84 3.18,-4.56 3.84,-5.16 3,-4.02 -2.58,2.64 -4.32,4.5 0.66,0.6 z m 1.5,1.86 0.42,0.6 0.6,-0.72 0.6,-0.72 1.5,-2.22 1.32,-1.8 -0.9,0.9 z m -2.16,-1.14 -0.54,0.6 0.24,0.3 0.54,0.72 0.24,-0.3 0.3,-0.42 -0.12,-0.12 z m -14.58,20.88 -0.84,-0.36 0.06,-0.24 -0.18,0.3 -0.42,1.26 -0.06,0.6 -0.96,-0.12 0.06,-0.72 0.54,-1.38 1.5,-2.76 2.22,-3.72 3.3,-5.04 4.2,-5.34 0.24,-0.3 -2.16,-3.48 -0.84,-1.38 -2.22,-2.7 -2.34,-3 -1.5,-2.1 0.72,-0.66 0.78,0.54 0.3,0.24 -0.06,-0.12 -0.18,-0.36 -0.24,-0.42 -1.86,-2.82 -1.02,-1.98 0.54,-0.3 -0.06,-0.06 0.54,-0.3 -0.3,-0.66 0.78,-0.6 0.72,0.6 1.32,1.62 v -0.06 l -0.48,-0.84 0.84,-0.54 0.06,0.18 0.9,-0.24 0.24,0.9 1.08,2.22 0.36,0.66 2.1,2.82 2.76,3.36 2.7,3.18 0.9,1.02 4.26,-4.86 4.32,-4.62 3.66,-3.66 2.4,-2.16 1.08,-0.9 0.72,0.66 -1.2,1.44 -2.34,2.94 -1.2,1.62 1.98,-2.1 1.8,-1.68 0.9,-0.66 0.66,0.72 -0.96,1.44 -2.46,3 -1.38,1.86 0.18,0.24 0.78,-0.84 1.62,-1.74 1.08,-1.2 2.7,-2.76 0.84,-0.84 0.72,0.6 -0.9,1.02 -2.16,2.22 -1.56,1.62 -2.4,2.7 -4.14,4.62 -3.18,3.6 -1.86,2.7 0.48,0.66 2.52,3.3 2.58,3.3 2.16,3.3 1.98,3.12 1.62,2.52 1.2,1.68 0.48,0.78 -0.84,0.48 -0.48,-0.78 -1.2,-1.68 -1.62,-2.52 -1.98,-3.12 -2.16,-3.18 -2.46,-3.3 -2.52,-3.3 -0.36,-0.42 -0.54,0.78 0.6,0.84 3.12,4.02 2.52,3.84 2.58,3.36 0.48,0.78 0.84,1.02 0.9,1.74 1.32,2.1 0.96,1.32 -0.84,0.6 -0.96,-1.44 -1.02,-1.56 -0.78,-0.78 -1.62,-1.86 -0.3,-0.36 0.6,1.38 -0.6,0.72 0.6,1.02 -0.12,1.8 -1.14,0.12 -1.14,-0.96 -1.74,-1.8 -2.1,-2.82 -2.46,-3.72 -2.88,-4.44 -1.5,2.34 -2.82,4.62 -1.92,3.06 -0.66,0.54 -0.66,-0.66 0.42,-0.54 1.2,-2.34 2.16,-3.54 0.6,-0.96 -1.14,1.5 -3.66,5.4 -2.58,4.14 -0.84,1.44 -0.54,1.02 -0.12,-0.06 -0.36,0.54 -0.54,1.08 -0.84,-0.36 0.54,-1.2 1.38,-2.22 0.78,-1.5 2.58,-4.68 1.14,-1.98 -0.9,1.38 -2.34,4.32 -1.5,2.64 -0.84,-0.48 1.5,-2.64 2.34,-4.32 3.78,-5.82 3.12,-4.02 -0.84,-1.26 -1.44,1.74 -3.78,5.1 -2.52,4.32 -1.8,2.58 -0.72,1.56 z" />
      <path
         id="path26"
         style="font-family:Geomanist;letter-spacing:0.075em"
         d="m 230.32797,100 h 11.94 V 68.44 h 8.7 V 58 h -29.22 v 10.44 h 8.58 z" />
      <path
         id="path28"
         style="font-family:Geomanist;letter-spacing:0.075em"
         d="m 259.93703,100 h 24 V 89.56 h -12.06 v -5.58 h 9.78 V 73.6 h -9.78 v -5.16 h 11.58 V 58 h -23.52 z" />
      <path
         id="path30"
         style="font-family:Geomanist;letter-spacing:0.075em"
         d="m 309.85984,58 h -15.54 v 42 h 11.46 V 74.44 l 8.04,22.26 h 10.86 l 8.1,-22.26 V 100 h 11.4 V 58 h -15.48 l -9.48,24.96 z" />
      <path
         id="path32"
         style="font-family:Geomanist;letter-spacing:0.075em"
         d="m 355.65578,100 h 11.94 V 86.08 h 4.62 c 8.46,0 13.98,-5.82 13.98,-14.1 0,-8.46 -5.22,-13.98 -14.16,-13.98 h -16.38 z m 11.94,-23.94 v -8.04 h 2.64 c 2.28,0 3.72,1.62 3.72,3.9 0,2.4 -1.32,4.14 -3.84,4.14 z" />
      <path
         id="path34"
         style="font-family:Geomanist;letter-spacing:0.075em"
         d="m 415.77484,100.78 c 13.86,0 22.68,-9.54 22.68,-21.84 0,-12.12 -8.82,-21.72 -22.68,-21.72 -13.86,0 -22.68,9.6 -22.68,21.72 0,12.3 8.82,21.84 22.68,21.84 z m 0,-32.64 c 6.12,0 10.2,4.68 10.2,10.8 0,6.3 -4.08,10.92 -10.2,10.92 -6.12,0 -10.2,-4.62 -10.2,-10.92 0,-6.12 4.08,-10.8 10.2,-10.8 z" />
      <path
         id="path36"
         style="font-family:Geomanist;letter-spacing:0.075em"
         d="m 447.85891,100 h 11.94 V 85.18 h 2.16 l 7.08,14.82 h 13.14 l -9.6,-17.64 c 3.6,-2.28 5.52,-6.6 5.52,-11.1 0,-8.22 -4.98,-13.26 -15.42,-13.26 h -14.82 z m 11.94,-24.54 v -7.44 h 1.98 c 2.7,0 4.14,1.32 4.14,3.66 0,2.16 -1.44,3.78 -4.14,3.78 z" />
      <path
         id="path38"
         style="font-family:Geomanist;letter-spacing:0.075em"
         d="m 514.20766,91.96 2.52,8.04 h 12 l -14.52,-42 h -12.6 l -14.52,42 h 12 l 2.52,-8.04 z m -2.82,-9.54 h -6.96 l 3.48,-12.06 z" />
      <path
         id="path40"
         style="font-family:Geomanist;letter-spacing:0.075em"
         d="m 536.89797,100 h 11.7 V 76.54 l 13.86,23.46 h 11.88 V 58 h -11.76 v 23.82 l -13.5,-23.82 h -12.18 z" />
      <path
         id="path42"
         style="font-family:Geomanist;letter-spacing:0.075em"
         d="m 585.81203,100 h 24 V 89.56 h -12.06 v -5.58 h 9.78 V 73.6 h -9.78 v -5.16 h 11.58 V 58 h -23.52 z" />
      <path
         id="path44"
         style="font-family:Geomanist;letter-spacing:0.075em"
         d="m 644.07484,91.96 2.52,8.04 h 12 l -14.52,-42 h -12.6 l -14.52,42 h 12 l 2.52,-8.04 z m -2.82,-9.54 h -6.96 l 3.48,-12.06 z" />
    </g>
  </g>
</svg>
