<?xml version="1.0" encoding="UTF-8" standalone="no"?>
<svg
   xmlns:dc="http://purl.org/dc/elements/1.1/"
   xmlns:cc="http://creativecommons.org/ns#"
   xmlns:rdf="http://www.w3.org/1999/02/22-rdf-syntax-ns#"
   xmlns:svg="http://www.w3.org/2000/svg"
   xmlns="http://www.w3.org/2000/svg"
   id="svg16"
   width="800px"
   version="1.1"
   height="200px">
  <metadata
     id="metadata20">
    <rdf:RDF>
      <cc:Work
         rdf:about="">
        <dc:format>image/svg+xml</dc:format>
        <dc:type
           rdf:resource="http://purl.org/dc/dcmitype/StillImage" />
      </cc:Work>
    </rdf:RDF>
  </metadata>
  <defs
     id="defs4">
    <style
       id="style2"
       type="text/css"><![CDATA[    
     @font-face {font-family:Geomanist;
     src: url('/Users/francesco/Repos/write-logos/src/fonts/Fonts_E_TEMPORANEA/Geomanist-Book.otf');}
     @font-face {font-family:Zian;
     src: url('/Users/francesco/Repos/write-logos/src/fonts/Fonts_X/Zianfreepromo.ttf');}
     ]]></style>
  </defs>
  <g
     id="g14"
     style="font-size:60px">
    <g
       style="text-anchor:middle"
       id="text12"
       aria-label="EXTEMPORANEA">
      <path
         id="path22"
         style="font-family:Geomanist;letter-spacing:0.075em"
         d="m 156.25891,100 h 21.36 v -6 h -14.7 V 81.64 h 12.24 V 75.7 h -12.24 V 64 h 14.1 v -6 h -20.76 z" />
      <path
         id="path24"
         style="font-family:Zian;letter-spacing:0.05em"
         d="m 189.86523,57.988281 h 0.82032 q 2.08007,0 4.59961,2.8125 10.95703,10.839844 11.13281,10.869141 12.77344,-12.832031 13.35937,-13.007813 1.23047,-0.673828 2.19727,-0.673828 h 0.82031 q 2.7832,0 4.42383,3.222656 0.35156,0.84961 0.35156,1.494141 v 0.996094 q 0,2.255859 -3.92578,5.566406 l -9.78516,9.755859 q 0,0.08789 12.45118,12.363282 1.25976,1.49414 1.25976,3.046875 v 0.761718 q 0,3.222657 -3.83789,4.716797 Q 223.26367,100 222.9707,100 h -1.17187 q -2.13867,0 -5.27344,-3.632813 L 206.33008,86.40625 Q 195.60742,96.923828 193.20508,99.179687 191.88672,100 190.86133,100 h -1.17188 q -2.60742,0 -4.27734,-3.222656 -0.32227,-0.84961 -0.32227,-1.494141 v -0.761719 q 0,-2.548828 3.51563,-5.302734 l 10.19531,-10.195313 v -0.05859 q -12.86133,-12.65625 -12.86133,-12.861328 -0.84961,-1.376954 -0.84961,-2.490235 v -0.732422 q 0,-2.90039 3.25196,-4.570312 0.84961,-0.322266 1.52343,-0.322266 z" />
      <path
         id="path26"
         style="font-family:Geomanist;letter-spacing:0.075em"
         d="m 245.31859,100 h 6.66 V 64 h 10.56 v -6 h -27.78 v 6 h 10.56 z" />
      <path
         id="path28"
         style="font-family:Geomanist;letter-spacing:0.075em"
         d="m 273.14172,100 h 21.36 v -6 h -14.7 V 81.64 h 12.24 V 75.7 h -12.24 V 64 h 14.1 v -6 h -20.76 z" />
      <path
         id="path30"
         style="font-family:Geomanist;letter-spacing:0.075em"
         d="m 314.87266,58 h -8.58 v 42 h 6.42 V 67.48 l 12.54,28.8 h 6.36 l 12.54,-28.8 V 100 h 6.42 V 58 h -8.58 l -13.56,30.66 z" />
      <path
         id="path32"
         style="font-family:Geomanist;letter-spacing:0.075em"
         d="m 363.82141,100 h 6.66 V 83.38 h 5.58 c 7.62,0 13.38,-5.34 13.38,-12.78 0,-7.56 -5.52,-12.6 -13.44,-12.6 h -12.18 z m 6.66,-22.44 V 63.82 h 4.8 c 4.32,0 7.32,2.64 7.32,6.78 0,4.2 -3,6.96 -7.38,6.96 z" />
      <path
         id="path34"
         style="font-family:Geomanist;letter-spacing:0.075em"
         d="m 397.50484,79 c 0,12.42 9.06,21.78 21.6,21.78 12.6,0 21.66,-9.42 21.66,-21.78 0,-12.24 -9.06,-21.78 -21.6,-21.78 -12.54,0 -21.66,9.48 -21.66,21.78 z m 6.96,0 c 0,-8.88 6.24,-15.54 14.7,-15.54 8.4,0 14.7,6.66 14.7,15.54 0,9 -6.3,15.54 -14.7,15.54 -8.46,0 -14.7,-6.54 -14.7,-15.54 z" />
      <path
         id="path36"
         style="font-family:Geomanist;letter-spacing:0.075em"
         d="m 451.68859,100 h 6.66 V 82.66 h 5.82 l 8.82,17.34 h 7.38 l -10.2,-18.84 c 4.26,-1.74 6.84,-5.94 6.84,-10.8 0,-7.02 -5.04,-12.36 -14.04,-12.36 h -11.28 z m 6.66,-23.04 V 63.82 h 4.5 c 4.86,0 7.26,2.64 7.26,6.54 0,4.26 -3.06,6.6 -7.26,6.6 z" />
      <path
         id="path38"
         style="font-family:Geomanist;letter-spacing:0.075em"
         d="m 512.85297,87.76 4.32,12.24 h 6.72 l -15.3,-42 h -6.9 l -15.3,42 h 6.72 l 4.38,-12.24 z m -1.86,-5.58 h -11.64 l 5.82,-16.98 z" />
      <path
         id="path40"
         style="font-family:Geomanist;letter-spacing:0.075em"
         d="m 533.40203,100 h 6.6 V 68.98 l 20.64,31.02 h 6.6 V 58 h -6.54 v 31.2 l -20.58,-31.2 h -6.72 z" />
      <path
         id="path42"
         style="font-family:Geomanist;letter-spacing:0.075em"
         d="m 580.50109,100 h 21.36 v -6 h -14.7 V 81.64 h 12.24 V 75.7 h -12.24 V 64 h 14.1 v -6 h -20.76 z" />
      <path
         id="path44"
         style="font-family:Geomanist;letter-spacing:0.075em"
         d="m 636.39203,87.76 4.32,12.24 h 6.72 l -15.3,-42 h -6.9 l -15.3,42 h 6.72 l 4.38,-12.24 z m -1.86,-5.58 h -11.64 l 5.82,-16.98 z" />
    </g>
  </g>
</svg>
