<?xml version="1.0" encoding="UTF-8" standalone="no"?>
<svg
   xmlns:dc="http://purl.org/dc/elements/1.1/"
   xmlns:cc="http://creativecommons.org/ns#"
   xmlns:rdf="http://www.w3.org/1999/02/22-rdf-syntax-ns#"
   xmlns:svg="http://www.w3.org/2000/svg"
   xmlns="http://www.w3.org/2000/svg"
   id="svg16"
   width="800px"
   version="1.1"
   height="200px">
  <metadata
     id="metadata20">
    <rdf:RDF>
      <cc:Work
         rdf:about="">
        <dc:format>image/svg+xml</dc:format>
        <dc:type
           rdf:resource="http://purl.org/dc/dcmitype/StillImage" />
      </cc:Work>
    </rdf:RDF>
  </metadata>
  <defs
     id="defs4">
    <style
       id="style2"
       type="text/css"><![CDATA[    
     @font-face {font-family:Geomanist;
     src: url('/Users/francesco/Repos/write-logos/src/fonts/Fonts_E_TEMPORANEA/Geomanist-Black.otf');}
     @font-face {font-family:Qualy;
     src: url('/Users/francesco/Repos/write-logos/src/fonts/Fonts_X/QualyBold.ttf');}
     ]]></style>
  </defs>
  <g
     id="g14"
     style="font-size:60px">
    <g
       style="text-anchor:middle"
       id="text12"
       aria-label="EXTEMPORANEA">
      <path
         id="path22"
         style="font-family:Geomanist;letter-spacing:0.075em"
         d="m 144.63625,100 h 24 V 89.56 h -12.06 v -5.58 h 9.78 V 73.6 h -9.78 v -5.16 h 11.58 V 58 h -23.52 z" />
      <path
         id="path24"
         style="font-family:Qualy;letter-spacing:0.05em"
         d="m 213.03906,100 h -9.02344 L 194.40625,85.292969 184.5625,100 h -9.02344 L 189.68945,78.378906 176.33008,57.988281 h 9.02344 l 13.56445,20.390625 q 3.92578,6.035156 6.29883,9.697266 2.40234,3.662109 3.31054,5.039062 z m -10.81054,-26.71875 -4.6875,-6.855469 5.68359,-8.4375 h 9.05273 z" />
      <path
         id="path26"
         style="font-family:Geomanist;letter-spacing:0.075em"
         d="m 230.38656,100 h 11.94 V 68.44 h 8.7 V 58 h -29.22 v 10.44 h 8.58 z" />
      <path
         id="path28"
         style="font-family:Geomanist;letter-spacing:0.075em"
         d="m 259.99563,100 h 24 V 89.56 h -12.06 v -5.58 h 9.77999 V 73.6 h -9.77999 v -5.16 h 11.57999 V 58 h -23.51999 z" />
      <path
         id="path30"
         style="font-family:Geomanist;letter-spacing:0.075em"
         d="m 309.91844,58 h -15.54 v 42 h 11.46 V 74.44 l 8.04,22.26 h 10.86 l 8.1,-22.26 V 100 h 11.4 V 58 h -15.48 l -9.48,24.96 z" />
      <path
         id="path32"
         style="font-family:Geomanist;letter-spacing:0.075em"
         d="m 355.71438,100 h 11.94 V 86.08 h 4.62 c 8.45999,0 13.97999,-5.82 13.97999,-14.1 0,-8.46 -5.22,-13.98 -14.15999,-13.98 h -16.38 z m 11.94,-23.94 v -8.04 h 2.63999 c 2.28,0 3.72,1.62 3.72,3.9 0,2.4 -1.32,4.14 -3.84,4.14 z" />
      <path
         id="path34"
         style="font-family:Geomanist;letter-spacing:0.075em"
         d="m 415.83344,100.78 c 13.86,0 22.68,-9.54 22.68,-21.84 0,-12.12 -8.82,-21.72 -22.68,-21.72 -13.86,0 -22.68,9.6 -22.68,21.72 0,12.3 8.82,21.84 22.68,21.84 z m 0,-32.64 c 6.12,0 10.2,4.68 10.2,10.8 0,6.3 -4.08,10.92 -10.2,10.92 -6.12,0 -10.2,-4.62 -10.2,-10.92 0,-6.12 4.08,-10.8 10.2,-10.8 z" />
      <path
         id="path36"
         style="font-family:Geomanist;letter-spacing:0.075em"
         d="m 447.9175,100 h 11.94 V 85.18 h 2.16 l 7.08,14.82 h 13.14 l -9.6,-17.64 c 3.6,-2.28 5.52,-6.6 5.52,-11.1 0,-8.22 -4.98,-13.26 -15.42,-13.26 h -14.82 z m 11.94,-24.54 v -7.44 h 1.98 c 2.7,0 4.14,1.32 4.14,3.66 0,2.16 -1.44,3.78 -4.14,3.78 z" />
      <path
         id="path38"
         style="font-family:Geomanist;letter-spacing:0.075em"
         d="m 514.26625,91.96 2.52,8.04 h 12 l -14.52,-42 h -12.6 l -14.52,42 h 12 l 2.52,-8.04 z m -2.82,-9.54 h -6.96 l 3.48,-12.06 z" />
      <path
         id="path40"
         style="font-family:Geomanist;letter-spacing:0.075em"
         d="m 536.95656,100 h 11.7 V 76.54 l 13.86,23.46 h 11.88 V 58 h -11.76 v 23.82 l -13.5,-23.82 h -12.18 z" />
      <path
         id="path42"
         style="font-family:Geomanist;letter-spacing:0.075em"
         d="m 585.87063,100 h 24 V 89.56 h -12.06001 v -5.58 h 9.78001 V 73.6 h -9.78001 v -5.16 h 11.58 V 58 h -23.51999 z" />
      <path
         id="path44"
         style="font-family:Geomanist;letter-spacing:0.075em"
         d="m 644.13344,91.96 2.52,8.04 h 12 l -14.52,-42 h -12.6 l -14.52,42 h 12 l 2.52,-8.04 z m -2.82,-9.54 h -6.96 l 3.48,-12.06 z" />
    </g>
  </g>
</svg>
