<?xml version="1.0" encoding="UTF-8" standalone="no"?>
<svg
   xmlns:dc="http://purl.org/dc/elements/1.1/"
   xmlns:cc="http://creativecommons.org/ns#"
   xmlns:rdf="http://www.w3.org/1999/02/22-rdf-syntax-ns#"
   xmlns:svg="http://www.w3.org/2000/svg"
   xmlns="http://www.w3.org/2000/svg"
   id="svg16"
   width="800px"
   version="1.1"
   height="200px">
  <metadata
     id="metadata20">
    <rdf:RDF>
      <cc:Work
         rdf:about="">
        <dc:format>image/svg+xml</dc:format>
        <dc:type
           rdf:resource="http://purl.org/dc/dcmitype/StillImage" />
      </cc:Work>
    </rdf:RDF>
  </metadata>
  <defs
     id="defs4">
    <style
       id="style2"
       type="text/css"><![CDATA[    
     @font-face {font-family:Geomanist;
     src: url('/Users/francesco/Repos/write-logos/src/fonts/Fonts_E_TEMPORANEA/Geomanist-Book.otf');}
     @font-face {font-family:Brandon;
     src: url('/Users/francesco/Repos/write-logos/src/fonts/Fonts_X/BrandonFree.ttf');}
     ]]></style>
  </defs>
  <g
     id="g14"
     style="font-size:60px">
    <g
       style="text-anchor:middle"
       id="text12"
       aria-label="EXTEMPORANEA">
      <path
         id="path22"
         style="font-family:Geomanist;letter-spacing:0.075em"
         d="m 162.29406,100 h 21.36 v -6 h -14.7 V 81.64 h 12.24 V 75.7 h -12.24 V 64 h 14.1 v -6 h -20.76 z" />
      <path
         id="path24"
         style="font-family:Brandon;letter-spacing:0.05em"
         d="m 191.44727,70.615234 v 0 0 q -0.32227,-0.55664 0.32226,-1.611328 0.67383,-1.054687 1.75781,-2.138672 1.08399,-1.113281 1.99219,-1.816406 0.9082,-0.703125 1.08399,-0.556641 3.22265,4.482422 6.91406,8.613282 0.64453,0.703125 1.28906,1.464843 2.49023,3.046875 5.41992,5.595704 0.90821,0.732421 1.9043,1.40625 1.08398,0.732421 2.10937,1.582031 0.9375,0.820312 1.78711,1.757812 0.79102,0.84961 1.66993,1.611328 1.20117,0.996094 2.60742,1.757813 2.49023,1.201172 3.95508,3.457031 0.20507,0.439453 -0.0879,1.054688 -0.29296,0.615234 -0.76171,1.230468 -0.46875,0.615235 -0.84961,1.025391 -0.14649,0.175781 -0.26368,0.263672 -0.0879,0.117187 -0.52734,0.615234 -0.43945,0.46875 -1.02539,0.996094 -0.55664,0.527344 -1.02539,0.849609 -0.46875,0.322266 -0.61523,0.117188 -1.46485,-2.285156 -3.98438,-3.457031 -1.37695,-0.791016 -2.57812,-1.757813 -0.87891,-0.791015 -1.69922,-1.640625 -0.84961,-0.908203 -1.75782,-1.757812 -1.02539,-0.820313 -2.10937,-1.582032 -0.9668,-0.644531 -1.9043,-1.376953 -2.92969,-2.578125 -5.41992,-5.595703 -0.64453,-0.761719 -1.28906,-1.49414 -3.69141,-4.101563 -6.91406,-8.613282 z m 27.53906,-3.574218 v 0 0 q 0.0586,-0.05859 0.11719,-0.175782 0.32226,-0.439453 0.96679,-1.230468 0.67383,-0.820313 1.37696,-1.464844 0.70312,-0.644531 1.14257,-0.556641 0.43946,0.146485 0.26368,0.703125 -0.17579,0.527344 -0.58594,1.113281 -0.38086,0.556641 -0.64453,0.878907 -0.0293,0.05859 -0.0586,0.08789 -11.95312,15.585938 -24.72656,30.527344 0,0 -0.0293,0.05859 -0.23437,0.292969 -0.8789,0.996094 -0.61524,0.673828 -1.28907,1.201171 -0.64453,0.498047 -0.99609,0.292969 -0.26367,-0.292969 0.11719,-1.02539 0.41015,-0.761719 0.99609,-1.494141 0.58594,-0.732422 0.82031,-1.025391 0.0293,-0.0293 0.0293,-0.0293 12.07031,-14.121093 23.37891,-28.857421 z" />
      <path
         id="path26"
         style="font-family:Geomanist;letter-spacing:0.075em"
         d="m 239.28344,100 h 6.66 V 64 h 10.56 v -6 h -27.78 v 6 h 10.56 z" />
      <path
         id="path28"
         style="font-family:Geomanist;letter-spacing:0.075em"
         d="m 267.10656,100 h 21.36 v -6 h -14.7 V 81.64 h 12.24 V 75.7 h -12.24 V 64 h 14.1 v -6 h -20.76 z" />
      <path
         id="path30"
         style="font-family:Geomanist;letter-spacing:0.075em"
         d="m 308.8375,58 h -8.58 v 42 h 6.42 V 67.48 l 12.54,28.8 h 6.36 l 12.54,-28.8 V 100 h 6.42 V 58 h -8.58 l -13.56,30.66 z" />
      <path
         id="path32"
         style="font-family:Geomanist;letter-spacing:0.075em"
         d="m 357.78625,100 h 6.66 V 83.38 h 5.58 c 7.62,0 13.38,-5.34 13.38,-12.78 0,-7.56 -5.52,-12.6 -13.44,-12.6 h -12.18 z m 6.66,-22.44 V 63.82 h 4.8 c 4.32,0 7.32,2.64 7.32,6.78 0,4.2 -3,6.96 -7.38,6.96 z" />
      <path
         id="path34"
         style="font-family:Geomanist;letter-spacing:0.075em"
         d="m 391.46969,79 c 0,12.42 9.06,21.78 21.6,21.78 12.6,0 21.66,-9.42 21.66,-21.78 0,-12.24 -9.06,-21.78 -21.6,-21.78 -12.54,0 -21.66,9.48 -21.66,21.78 z m 6.96,0 c 0,-8.88 6.24,-15.54 14.7,-15.54 8.4,0 14.7,6.66 14.7,15.54 0,9 -6.3,15.54 -14.7,15.54 -8.46,0 -14.7,-6.54 -14.7,-15.54 z" />
      <path
         id="path36"
         style="font-family:Geomanist;letter-spacing:0.075em"
         d="m 445.65344,100 h 6.66 V 82.66 h 5.82 l 8.82,17.34 h 7.38 l -10.2,-18.84 c 4.26,-1.74 6.84,-5.94 6.84,-10.8 0,-7.02 -5.04,-12.36 -14.04,-12.36 h -11.28 z m 6.66,-23.04 V 63.82 h 4.5 c 4.86,0 7.26,2.64 7.26,6.54 0,4.26 -3.06,6.6 -7.26,6.6 z" />
      <path
         id="path38"
         style="font-family:Geomanist;letter-spacing:0.075em"
         d="m 506.81781,87.76 4.32,12.24 h 6.72 l -15.3,-42 h -6.9 l -15.3,42 h 6.72 l 4.38,-12.24 z m -1.86,-5.58 h -11.64 l 5.82,-16.98 z" />
      <path
         id="path40"
         style="font-family:Geomanist;letter-spacing:0.075em"
         d="m 527.36688,100 h 6.59999 V 68.98 l 20.64,31.02 h 6.6 V 58 h -6.54 v 31.2 l -20.58,-31.2 h -6.71999 z" />
      <path
         id="path42"
         style="font-family:Geomanist;letter-spacing:0.075em"
         d="m 574.46594,100 h 21.36 v -6 h -14.7 V 81.64 h 12.24 V 75.7 h -12.24 V 64 h 14.1 v -6 h -20.76 z" />
      <path
         id="path44"
         style="font-family:Geomanist;letter-spacing:0.075em"
         d="m 630.35687,87.76 4.32,12.24 h 6.72001 L 626.09687,58 h -6.9 l -15.29999,42 h 6.72 l 4.38,-12.24 z m -1.85999,-5.58 h -11.64001 l 5.82,-16.98 z" />
    </g>
  </g>
</svg>
