<?xml version="1.0" encoding="UTF-8" standalone="no"?>
<svg
   xmlns:dc="http://purl.org/dc/elements/1.1/"
   xmlns:cc="http://creativecommons.org/ns#"
   xmlns:rdf="http://www.w3.org/1999/02/22-rdf-syntax-ns#"
   xmlns:svg="http://www.w3.org/2000/svg"
   xmlns="http://www.w3.org/2000/svg"
   id="svg16"
   width="800px"
   version="1.1"
   height="200px">
  <metadata
     id="metadata20">
    <rdf:RDF>
      <cc:Work
         rdf:about="">
        <dc:format>image/svg+xml</dc:format>
        <dc:type
           rdf:resource="http://purl.org/dc/dcmitype/StillImage" />
      </cc:Work>
    </rdf:RDF>
  </metadata>
  <defs
     id="defs4">
    <style
       id="style2"
       type="text/css"><![CDATA[    
     @font-face {font-family:Geomanist;
     src: url('/Users/francesco/Repos/write-logos/src/fonts/Fonts_E_TEMPORANEA/Geomanist-Black.otf');}
     @font-face {font-family:Akronim;
     src: url('/Users/francesco/Repos/write-logos/src/fonts/Fonts_X/Akronim-Regular.ttf');}
     ]]></style>
  </defs>
  <g
     id="g14"
     style="font-size:60px">
    <g
       style="text-anchor:middle"
       id="text12"
       aria-label="EXTEMPORANEA">
      <path
         id="path22"
         style="font-family:Geomanist;letter-spacing:0.075em"
         d="m 150.90578,100 h 24 V 89.56 h -12.06 v -5.58 h 9.78 V 73.6 h -9.78 v -5.16 h 11.58 V 58 h -23.52 z" />
      <path
         id="path24"
         style="font-family:Akronim;letter-spacing:0.05em"
         d="m 184.50859,99.28 q -0.12,0.54 -0.18,0.54 -0.12,-0.06 -0.18,-0.24 0,-0.18 0,-0.3 -0.18,-2.76 0.36,-5.34 0.54,-2.64 1.62,-5.16 1.14,-2.52 2.64,-4.86 1.56,-2.4 3.3,-4.62 l 1.32,-1.68 q -2.46,-5.52 -4.86,-10.68 -2.34,-5.22 -5.16,-9 -0.18,-0.24 -0.18,-0.36 0.06,-0.12 0.24,0 0.18,0.12 0.3,0.18 1.86,1.5 3.36,3.54 1.56,2.04 2.88,4.44 1.32,2.34 2.46,4.98 1.14,2.58 2.28,5.22 l 1.02,-1.26 q -0.3,-0.6 -0.96,-1.86 -0.66,-1.32 -1.56,-2.94 -0.9,-1.62 -1.92,-3.42 -0.96,-1.8 -1.98,-3.36 -1.02,-1.62 -1.92,-2.88 -0.9,-1.26 -1.56,-1.8 -0.48,-0.36 -0.3,-0.48 0.12,-0.06 0.54,0.06 1.2,0.48 2.52,1.68 1.38,1.2 2.58,2.7 1.26,1.5 2.28,3.12 1.02,1.62 1.62,2.94 l 2.1,4.5 0.66,-0.72 q -1.2,-2.7 -2.58,-5.46 -1.38,-2.76 -3.3,-5.4 -0.18,-0.3 -0.24,-0.3 -0.06,0 0.06,-0.12 0,0 0.48,0.24 1.68,1.14 3.48,3.78 1.8,2.58 3.42,5.7 3.06,-3.6 6.12,-7.44 3.06,-3.9 4.98,-7.38 0.06,-0.12 0.12,-0.24 0.06,-0.12 0.24,0 0.06,0.06 0,0.24 0,0.18 0,0.24 -0.9,3.3 -2.88,6.54 -1.98,3.18 -4.44,6.36 -2.46,3.12 -5.16,6.24 -2.7,3.06 -5.04,6.12 -1.44,1.92 -2.88,4.14 -1.38,2.16 -2.52,4.5 -1.14,2.28 -1.98,4.68 -0.84,2.34 -1.2,4.62 z m 27.72,0.48 q 0.36,0.18 0.36,0.24 0,0 -0.42,0 -2.4,-0.36 -4.5,-1.56 -2.04,-1.26 -3.84,-3.06 -1.74,-1.8 -3.3,-4.02 -1.5,-2.28 -2.76,-4.62 -1.92,2.28 -4.02,4.5 -2.1,2.16 -3.78,3.72 -0.3,0.3 -0.54,0.54 -0.18,0.24 -0.3,0.18 -0.12,-0.06 0.06,-0.42 0.24,-0.36 0.36,-0.66 1.14,-2.22 2.58,-4.38 1.5,-2.16 3.12,-4.2 1.68,-2.1 3.42,-4.14 1.74,-2.04 3.42,-4.08 2.1,-2.58 4.56,-5.76 2.46,-3.18 4.26,-6.54 0.18,-0.42 0.3,-0.42 0.12,0 0.06,0.3 -0.06,0.24 -0.06,0.42 -0.12,1.26 -0.9,2.94 -0.78,1.68 -1.92,3.54 -1.08,1.8 -2.4,3.72 -1.26,1.86 -2.46,3.48 l 0.54,1.2 q 1.44,3.18 2.94,6.6 1.5,3.42 2.52,6.12 0.12,0.3 0.18,0.66 0.12,0.3 0,0.36 -0.06,0 -0.3,-0.24 -0.24,-0.3 -0.48,-0.6 -2.1,-2.82 -3.78,-5.88 -1.62,-3.06 -3.18,-6.3 -0.72,0.9 -1.44,1.86 -0.72,0.9 -1.44,1.86 1.14,2.22 2.58,4.44 1.44,2.16 3.12,4.14 1.68,1.92 3.54,3.54 1.92,1.56 3.9,2.52 z m -6.42,-28.2 q -2.34,3 -5.16,6.06 -2.82,3 -5.52,5.7 -0.12,0.06 -0.48,0.48 -0.36,0.36 -0.48,0.24 -0.12,-0.06 0.06,-0.6 0.24,-0.54 0.42,-0.78 0.42,-0.72 1.2,-1.8 0.78,-1.14 1.62,-2.28 0.9,-1.2 1.68,-2.28 0.84,-1.14 1.38,-1.8 1.38,-1.8 3,-4.02 1.68,-2.22 3.12,-4.44 1.5,-2.22 2.64,-4.2 1.2,-1.98 1.62,-3.18 0.18,-0.66 0.24,-0.66 0.06,0 0.12,0.24 0.12,0.18 0.12,0.48 0.06,1.32 -0.48,3.12 -0.54,1.74 -1.44,3.54 -0.84,1.8 -1.86,3.48 -0.96,1.62 -1.8,2.7 z m -18.06,24.36 q -0.48,1.2 -0.9,2.22 -0.36,1.02 -0.66,1.86 -0.06,0.12 -0.24,0.3 -0.12,0.18 -0.24,-0.3 -0.18,-1.02 0,-2.22 0.18,-1.2 1.02,-3.12 0.3,-0.72 0.78,-1.62 0.48,-0.96 1.02,-1.74 0.54,-0.84 0.96,-1.38 0.48,-0.54 0.72,-0.36 0,0.06 -0.12,0.42 -0.12,0.36 -0.3,0.78 -0.12,0.42 -0.3,0.84 -0.12,0.36 -0.18,0.48 -0.42,1.14 -0.78,1.98 -0.36,0.84 -0.78,1.86 z m 22.02,-0.12 q 0.96,0.9 1.86,1.68 0.96,0.72 1.98,1.38 0.12,0.12 0.3,0.3 0.18,0.12 0.12,0.18 -0.12,0.12 -0.36,0.12 -0.18,-0.06 -0.48,-0.12 -0.6,-0.18 -1.08,-0.3 -0.48,-0.12 -1.02,-0.36 -0.48,-0.3 -1.08,-0.72 -0.54,-0.42 -1.26,-1.14 -0.6,-0.6 -1.38,-1.5 -0.72,-0.96 -1.38,-1.86 -0.6,-0.96 -0.96,-1.68 -0.36,-0.72 -0.18,-0.84 0.06,-0.06 0.36,0.18 0.3,0.24 0.6,0.6 0.3,0.3 0.54,0.6 0.3,0.3 0.42,0.42 0.84,0.9 1.56,1.62 0.72,0.72 1.44,1.44 z" />
      <path
         id="path26"
         style="font-family:Geomanist;letter-spacing:0.075em"
         d="m 224.11703,100 h 11.94 V 68.44 h 8.7 V 58 h -29.22 v 10.44 h 8.58 z" />
      <path
         id="path28"
         style="font-family:Geomanist;letter-spacing:0.075em"
         d="m 253.72609,100 h 24 V 89.56 h -12.06 v -5.58 h 9.78 V 73.6 h -9.78 v -5.16 h 11.58 V 58 h -23.52 z" />
      <path
         id="path30"
         style="font-family:Geomanist;letter-spacing:0.075em"
         d="m 303.64891,58 h -15.54 v 42 h 11.46 V 74.44 l 8.04,22.26 h 10.86 l 8.1,-22.26 V 100 h 11.4 V 58 h -15.48 l -9.48,24.96 z" />
      <path
         id="path32"
         style="font-family:Geomanist;letter-spacing:0.075em"
         d="m 349.44484,100 h 11.94 V 86.08 h 4.62 c 8.46,0 13.98,-5.82 13.98,-14.1 0,-8.46 -5.22,-13.98 -14.16,-13.98 h -16.38 z m 11.94,-23.94 v -8.04 h 2.64 c 2.28,0 3.72,1.62 3.72,3.9 0,2.4 -1.32,4.14 -3.84,4.14 z" />
      <path
         id="path34"
         style="font-family:Geomanist;letter-spacing:0.075em"
         d="m 409.56391,100.78 c 13.86,0 22.68,-9.54 22.68,-21.84 0,-12.12 -8.82,-21.72 -22.68,-21.72 -13.86,0 -22.68,9.6 -22.68,21.72 0,12.3 8.82,21.84 22.68,21.84 z m 0,-32.64 c 6.12,0 10.2,4.68 10.2,10.8 0,6.3 -4.08,10.92 -10.2,10.92 -6.12,0 -10.2,-4.62 -10.2,-10.92 0,-6.12 4.08,-10.8 10.2,-10.8 z" />
      <path
         id="path36"
         style="font-family:Geomanist;letter-spacing:0.075em"
         d="m 441.64797,100 h 11.94 V 85.18 h 2.16 l 7.08,14.82 h 13.14 l -9.6,-17.64 c 3.6,-2.28 5.52,-6.6 5.52,-11.1 0,-8.22 -4.98,-13.26 -15.42,-13.26 h -14.82 z m 11.94,-24.54 v -7.44 h 1.98 c 2.7,0 4.14,1.32 4.14,3.66 0,2.16 -1.44,3.78 -4.14,3.78 z" />
      <path
         id="path38"
         style="font-family:Geomanist;letter-spacing:0.075em"
         d="m 507.99672,91.96 2.52,8.04 h 12 l -14.52,-42 h -12.6 l -14.52,42 h 12 l 2.52,-8.04 z m -2.82,-9.54 h -6.96 l 3.48,-12.06 z" />
      <path
         id="path40"
         style="font-family:Geomanist;letter-spacing:0.075em"
         d="m 530.68703,100 h 11.7 V 76.54 l 13.86,23.46 h 11.88 V 58 h -11.76 v 23.82 l -13.5,-23.82 h -12.18 z" />
      <path
         id="path42"
         style="font-family:Geomanist;letter-spacing:0.075em"
         d="m 579.60109,100 h 24 V 89.56 h -12.06 v -5.58 h 9.78 V 73.6 h -9.78 v -5.16 h 11.58 V 58 h -23.52 z" />
      <path
         id="path44"
         style="font-family:Geomanist;letter-spacing:0.075em"
         d="m 637.86391,91.96 2.52,8.04 h 12 l -14.52,-42 h -12.6 l -14.52,42 h 12 l 2.52,-8.04 z m -2.82,-9.54 h -6.96 l 3.48,-12.06 z" />
    </g>
  </g>
</svg>
