<?xml version="1.0" encoding="UTF-8" standalone="no"?>
<svg
   xmlns:dc="http://purl.org/dc/elements/1.1/"
   xmlns:cc="http://creativecommons.org/ns#"
   xmlns:rdf="http://www.w3.org/1999/02/22-rdf-syntax-ns#"
   xmlns:svg="http://www.w3.org/2000/svg"
   xmlns="http://www.w3.org/2000/svg"
   id="svg16"
   width="800px"
   version="1.1"
   height="200px">
  <metadata
     id="metadata20">
    <rdf:RDF>
      <cc:Work
         rdf:about="">
        <dc:format>image/svg+xml</dc:format>
        <dc:type
           rdf:resource="http://purl.org/dc/dcmitype/StillImage" />
      </cc:Work>
    </rdf:RDF>
  </metadata>
  <defs
     id="defs4">
    <style
       id="style2"
       type="text/css"><![CDATA[    
     @font-face {font-family:Glacial Indifference;
     src: url('/Users/francesco/Repos/write-logos/src/fonts/Fonts_E_TEMPORANEA/GlacialIndifference-Bold.otf');}
     @font-face {font-family:Monoton;
     src: url('/Users/francesco/Repos/write-logos/src/fonts/Fonts_X/Monoton-Regular.ttf');}
     ]]></style>
  </defs>
  <g
     id="g14"
     style="font-size:60px">
    <g
       style="text-anchor:middle"
       id="text12"
       aria-label="EXTEMPORANEA">
      <path
         id="path22"
         style="font-family:'Glacial Indifference';letter-spacing:0.075em"
         d="m 170.15406,91.84 h -14.64 v -8.22 h 14.04 v -8.16 h -14.04 v -8.1 h 14.64 V 59.2 h -23.64 V 100 h 23.64 z" />
      <path
         id="path24"
         style="font-family:Monoton;letter-spacing:0.05em"
         d="m 195.66602,73.779297 -1.25977,1.992187 -15.26367,-24.287109 h 2.49023 z m 10.40039,15.849609 1.23046,-1.992187 L 215.08984,100 h -2.49023 z m -7.91016,-19.77539 -1.25977,1.96289 -12.77343,-20.332031 h 2.46093 z m 10.40039,15.820312 1.23047,-1.992187 L 220.07031,100 h -2.49023 z m -7.91016,-19.804687 -1.23046,1.96289 -10.3125,-16.347656 h 2.49023 z m 10.42969,15.820312 1.23047,-1.992187 L 225.08008,100 h -2.49024 z m -7.93945,-19.775391 -1.23047,1.992188 -7.82227,-12.421875 h 2.49024 z m 10.40039,15.820313 1.23047,-1.992188 L 230.06055,100 h -2.49024 z m 12.56836,-26.25 h 2.49023 L 198.06836,100 h -2.49024 z m -4.95117,0 h 2.46093 L 193.08789,100 h -2.49023 z m -5.00977,0 h 2.49024 L 188.07812,100 h -2.49023 z m -4.98047,0 h 2.49024 L 183.09766,100 h -2.49024 z" />
      <path
         id="path26"
         style="font-family:'Glacial Indifference';letter-spacing:0.075em"
         d="m 254.79156,67.36 h 11.64 V 59.2 h -32.28 v 8.16 h 11.64 V 100 h 9 z" />
      <path
         id="path28"
         style="font-family:'Glacial Indifference';letter-spacing:0.075em"
         d="m 298.52125,91.84 h -14.64 v -8.22 h 14.04 v -8.16 h -14.04 v -8.1 h 14.64 V 59.2 h -23.64 V 100 h 23.64 z" />
      <path
         id="path30"
         style="font-family:'Glacial Indifference';letter-spacing:0.075em"
         d="m 361.08156,100 -7.92,-40.8 h -10.68 l -8.46,28.62 -8.52,-28.62 h -10.68 l -7.92,40.8 h 9.9 l 4.8,-28.14 7.98,28.14 h 8.82 l 7.98,-28.14 4.8,28.14 z" />
      <path
         id="path32"
         style="font-family:'Glacial Indifference';letter-spacing:0.075em"
         d="m 378.42813,85.42 h 6.29999 c 6.6,0 12.48,-4.86 12.48,-13.14 0,-7.74 -5.88,-13.08 -12.48,-13.08 h -6.29999 -2.22001 -6.77999 V 100 h 9 z m 4.79999,-19.14 c 2.64001,0 5.4,2.28 5.4,6 0,3.9 -2.75999,6.06 -5.4,6.06 h -4.79999 V 66.28 Z" />
      <path
         id="path34"
         style="font-family:'Glacial Indifference';letter-spacing:0.075em"
         d="m 437.65469,79.54 c 0,6.3 -5.7,12.06 -12,12.06 -6.3,0 -12,-5.76 -12,-12.06 0,-6.3 5.7,-12 12,-12 6.3,0 12,5.7 12,12 z m 9,0.06 c 0,-11.28 -9.72,-21 -21,-21 -11.28,0 -21,9.72 -21,21 0,11.28 9.72,21 21,21 11.28,0 21,-9.72 21,-21 z" />
      <path
         id="path36"
         style="font-family:'Glacial Indifference';letter-spacing:0.075em"
         d="m 465.82656,85.42 h 0.06 l 9.72,14.58 h 11.4 l -11.7,-15 c 5.16,-1.26 9.3,-5.82 9.3,-12.72 0,-7.74 -5.88,-13.08 -12.48,-13.08 h -6.3 -2.22 -6.78 V 100 h 9 z m 4.8,-19.14 c 2.64,0 5.4,2.28 5.4,6 0,3.9 -2.76,6.06 -5.4,6.06 h -4.8 V 66.28 Z" />
      <path
         id="path38"
         style="font-family:'Glacial Indifference';letter-spacing:0.075em"
         d="m 516.57344,84.4 h -10.32 l 5.16,-14.52 z m 15.24,15.6 -16.56,-40.8 h -7.62 l -16.56,40.8 h 9.66 l 2.94,-8.22 h 15.54 l 2.94,8.22 z" />
      <path
         id="path40"
         style="font-family:'Glacial Indifference';letter-spacing:0.075em"
         d="M 572.28062,100 V 59.2 h -9 V 84.64 L 549.24063,59.2 h -9 V 100 h 9 V 74.56 L 563.28062,100 Z" />
      <path
         id="path42"
         style="font-family:'Glacial Indifference';letter-spacing:0.075em"
         d="m 607.63844,91.84 h -14.64 v -8.22 h 14.04 v -8.16 h -14.04 v -8.1 h 14.64 V 59.2 h -23.64 V 100 h 23.64 z" />
      <path
         id="path44"
         style="font-family:'Glacial Indifference';letter-spacing:0.075em"
         d="m 641.51875,84.4 h -10.32 l 5.16,-14.52 z m 15.24,15.6 -16.56,-40.8 h -7.62 l -16.56,40.8 h 9.66 l 2.94,-8.22 h 15.54 l 2.94,8.22 z" />
    </g>
  </g>
</svg>
