<?xml version="1.0" encoding="UTF-8" standalone="no"?>
<svg
   xmlns:dc="http://purl.org/dc/elements/1.1/"
   xmlns:cc="http://creativecommons.org/ns#"
   xmlns:rdf="http://www.w3.org/1999/02/22-rdf-syntax-ns#"
   xmlns:svg="http://www.w3.org/2000/svg"
   xmlns="http://www.w3.org/2000/svg"
   id="svg16"
   width="800px"
   version="1.1"
   height="200px">
  <metadata
     id="metadata20">
    <rdf:RDF>
      <cc:Work
         rdf:about="">
        <dc:format>image/svg+xml</dc:format>
        <dc:type
           rdf:resource="http://purl.org/dc/dcmitype/StillImage" />
      </cc:Work>
    </rdf:RDF>
  </metadata>
  <defs
     id="defs4">
    <style
       id="style2"
       type="text/css"><![CDATA[    
     @font-face {font-family:Glacial Indifference;
     src: url('/Users/francesco/Repos/write-logos/src/fonts/Fonts_E_TEMPORANEA/GlacialIndifference-Bold.otf');}
     @font-face {font-family:SomewhereInSpace;
     src: url('/Users/francesco/Repos/write-logos/src/fonts/Fonts_X/SOMWHEREINSPACE.ttf');}
     ]]></style>
  </defs>
  <g
     id="g14"
     style="font-size:60px">
    <g
       style="text-anchor:middle"
       id="text12"
       aria-label="EXTEMPORANEA">
      <path
         id="path22"
         style="font-family:'Glacial Indifference';letter-spacing:0.075em"
         d="m 177.12672,91.84 h -14.64 v -8.22 h 14.04 v -8.16 h -14.04 v -8.1 h 14.64 V 59.2 h -23.64 V 100 h 23.64 z" />
      <path
         id="path24"
         style="font-family:SomewhereInSpace;letter-spacing:0.05em"
         d="m 223.00703,108.4 q -2.4,-3.84 -6.9,-3.72 -1.44,0 -2.64,0.6 -0.3,0.06 -0.78,0.24 -0.36,-2.16 -1.26,-6.18 l -0.72,-1.26 q -1.32,-4.38 -3.78,-9.18 l -0.3,-0.3 q -0.84,0.84 -1.26,2.1 0.48,2.7 0.42,5.46 -0.12,5.28 -2.22,10.98 -0.84,2.28 -2.28,5.22 -0.42,0.42 -1.2,1.02 -0.18,0.06 -0.78,0.24 -1.98,0.54 -2.88,0.54 -2.82,0 -4.32,-1.14 -0.24,-0.18 -0.78,-0.66 -0.48,-0.48 -1.2,-1.74 0.24,-0.66 0.6,-2.04 3.24,-7.98 3,-16.08 l -0.12,-4.68 q -0.06,-2.88 -0.42,-4.62 -0.24,-1.32 -0.36,-2.22 -0.54,-0.84 -1.92,-3.06 -2.64,-4.38 -3.18,-7.32 -1.92,-6.24 -1.8,-10.86 0.06,-1.8 0.18,-3.9 0.06,-0.3 0.3,-0.96 1.14,3.24 4.38,4.26 2.1,0.66 4.5,0 1.26,0.9 2.04,3.36 0.18,0.42 1.02,3.96 0.12,0.96 0.42,2.82 0.42,0.72 1.8,3 l 0.42,-0.48 0.3,-0.42 q 0.12,-0.42 0.42,-1.2 0.66,-5.88 5.58,-17.28 4.26,-2.4 6.66,-2.46 1.02,-0.06 2.28,0.42 0.96,0.48 1.62,1.14 -6.6,9.84 -7.56,21.24 l 4.68,7.32 q 2.88,4.56 4.38,7.38 3.9,7.38 4.08,16.38 0,1.44 -0.24,3.3 -0.18,0.54 -0.18,0.78 z" />
      <path
         id="path26"
         style="font-family:'Glacial Indifference';letter-spacing:0.075em"
         d="m 247.81891,67.36 h 11.64 V 59.2 h -32.28 v 8.16 h 11.64 V 100 h 9 z" />
      <path
         id="path28"
         style="font-family:'Glacial Indifference';letter-spacing:0.075em"
         d="m 291.54859,91.84 h -14.64 v -8.22 h 14.04 v -8.16 h -14.04 v -8.1 h 14.64 V 59.2 h -23.64 V 100 h 23.64 z" />
      <path
         id="path30"
         style="font-family:'Glacial Indifference';letter-spacing:0.075em"
         d="m 354.10891,100 -7.92,-40.8 h -10.68 l -8.46,28.62 -8.52,-28.62 h -10.68 l -7.92,40.8 h 9.9 l 4.8,-28.14 7.98,28.14 h 8.82 l 7.98,-28.14 4.8,28.14 z" />
      <path
         id="path32"
         style="font-family:'Glacial Indifference';letter-spacing:0.075em"
         d="m 371.45547,85.42 h 6.3 c 6.6,0 12.48,-4.86 12.48,-13.14 0,-7.74 -5.88,-13.08 -12.48,-13.08 h -6.3 -2.22 -6.78 V 100 h 9 z m 4.8,-19.14 c 2.64,0 5.4,2.28 5.4,6 0,3.9 -2.76,6.06 -5.4,6.06 h -4.8 V 66.28 Z" />
      <path
         id="path34"
         style="font-family:'Glacial Indifference';letter-spacing:0.075em"
         d="m 430.68203,79.54 c 0,6.3 -5.7,12.06 -12,12.06 -6.3,0 -12,-5.76 -12,-12.06 0,-6.3 5.7,-12 12,-12 6.3,0 12,5.7 12,12 z m 9,0.06 c 0,-11.28 -9.72,-21 -21,-21 -11.28,0 -21,9.72 -21,21 0,11.28 9.72,21 21,21 11.28,0 21,-9.72 21,-21 z" />
      <path
         id="path36"
         style="font-family:'Glacial Indifference';letter-spacing:0.075em"
         d="m 458.85391,85.42 h 0.06 l 9.72,14.58 h 11.4 l -11.7,-15 c 5.16,-1.26 9.3,-5.82 9.3,-12.72 0,-7.74 -5.88,-13.08 -12.48,-13.08 h -6.3 -2.22 -6.78 V 100 h 9 z m 4.8,-19.14 c 2.64,0 5.4,2.28 5.4,6 0,3.9 -2.76,6.06 -5.4,6.06 h -4.8 V 66.28 Z" />
      <path
         id="path38"
         style="font-family:'Glacial Indifference';letter-spacing:0.075em"
         d="m 509.60078,84.4 h -10.32 l 5.16,-14.52 z m 15.24,15.6 -16.56,-40.8 h -7.62 l -16.56,40.8 h 9.66 l 2.94,-8.22 h 15.54 l 2.94,8.22 z" />
      <path
         id="path40"
         style="font-family:'Glacial Indifference';letter-spacing:0.075em"
         d="M 565.30797,100 V 59.2 h -9 v 25.44 l -14.04,-25.44 h -9 V 100 h 9 V 74.56 l 14.04,25.44 z" />
      <path
         id="path42"
         style="font-family:'Glacial Indifference';letter-spacing:0.075em"
         d="m 600.66578,91.84 h -14.64 v -8.22 h 14.04 v -8.16 h -14.04 v -8.1 h 14.64 V 59.2 h -23.64 V 100 h 23.64 z" />
      <path
         id="path44"
         style="font-family:'Glacial Indifference';letter-spacing:0.075em"
         d="m 634.54609,84.4 h -10.32 l 5.16,-14.52 z m 15.24,15.6 -16.56,-40.8 h -7.62 l -16.56,40.8 h 9.66 l 2.94,-8.22 h 15.54 l 2.94,8.22 z" />
    </g>
  </g>
</svg>
