<?xml version="1.0" encoding="UTF-8" standalone="no"?>
<svg
   xmlns:dc="http://purl.org/dc/elements/1.1/"
   xmlns:cc="http://creativecommons.org/ns#"
   xmlns:rdf="http://www.w3.org/1999/02/22-rdf-syntax-ns#"
   xmlns:svg="http://www.w3.org/2000/svg"
   xmlns="http://www.w3.org/2000/svg"
   id="svg16"
   width="800px"
   version="1.1"
   height="200px">
  <metadata
     id="metadata20">
    <rdf:RDF>
      <cc:Work
         rdf:about="">
        <dc:format>image/svg+xml</dc:format>
        <dc:type
           rdf:resource="http://purl.org/dc/dcmitype/StillImage" />
      </cc:Work>
    </rdf:RDF>
  </metadata>
  <defs
     id="defs4">
    <style
       id="style2"
       type="text/css"><![CDATA[    
     @font-face {font-family:Glacial Indifference;
     src: url('/Users/francesco/Repos/write-logos/src/fonts/Fonts_E_TEMPORANEA/GlacialIndifference-Bold.otf');}
     @font-face {font-family:Seven Segment;
     src: url('/Users/francesco/Repos/write-logos/src/fonts/Fonts_X/SevenSegment.ttf');}
     ]]></style>
  </defs>
  <g
     id="g14"
     style="font-size:60px">
    <g
       style="text-anchor:middle"
       id="text12"
       aria-label="EXTEMPORANEA">
      <path
         id="path22"
         style="font-family:'Glacial Indifference';letter-spacing:0.075em"
         d="m 181.40406,91.84 h -14.64 v -8.22 h 14.04 v -8.16 h -14.04 v -8.1 h 14.64 V 59.2 h -23.64 V 100 h 23.64 z" />
      <path
         id="path24"
         style="font-family:'Seven Segment';letter-spacing:0.05em"
         d="m 193.08789,97.539062 6.62109,-16.787109 2.46094,-1.083984 1.08399,2.490234 -6.6211,16.757813 L 194.17187,100 Z m 0,-37.11914 1.08398,-2.490235 2.46094,1.083985 6.6211,16.787109 -1.08399,2.460938 -2.46094,-1.083985 z m 12.74414,21.738281 1.08399,-2.490234 2.46093,1.083984 6.6211,16.787109 L 214.91406,100 212.42383,98.916016 Z m 0,-6.357422 6.5918,-16.787109 2.49023,-1.083985 1.08399,2.490235 -6.6211,16.757812 -2.46093,1.083985 z" />
      <path
         id="path26"
         style="font-family:'Glacial Indifference';letter-spacing:0.075em"
         d="m 243.54156,67.36 h 11.64 V 59.2 h -32.28 v 8.16 h 11.64 V 100 h 9 z" />
      <path
         id="path28"
         style="font-family:'Glacial Indifference';letter-spacing:0.075em"
         d="m 287.27125,91.84 h -14.64 v -8.22 h 14.04 v -8.16 h -14.04 v -8.1 h 14.64 V 59.2 h -23.64 V 100 h 23.64 z" />
      <path
         id="path30"
         style="font-family:'Glacial Indifference';letter-spacing:0.075em"
         d="m 349.83156,100 -7.92,-40.8 h -10.68 l -8.46,28.62 -8.52,-28.62 h -10.68 l -7.92,40.8 h 9.9 l 4.8,-28.14 7.98,28.14 h 8.82 l 7.98,-28.14 4.8,28.14 z" />
      <path
         id="path32"
         style="font-family:'Glacial Indifference';letter-spacing:0.075em"
         d="m 367.17813,85.42 h 6.29999 c 6.6,0 12.48,-4.86 12.48,-13.14 0,-7.74 -5.88,-13.08 -12.48,-13.08 h -6.29999 -2.22001 -6.77999 V 100 h 9 z m 4.79999,-19.14 c 2.64001,0 5.4,2.28 5.4,6 0,3.9 -2.75999,6.06 -5.4,6.06 h -4.79999 V 66.28 Z" />
      <path
         id="path34"
         style="font-family:'Glacial Indifference';letter-spacing:0.075em"
         d="m 426.40469,79.54 c 0,6.3 -5.7,12.06 -12,12.06 -6.3,0 -12,-5.76 -12,-12.06 0,-6.3 5.7,-12 12,-12 6.3,0 12,5.7 12,12 z m 9,0.06 c 0,-11.28 -9.72,-21 -21,-21 -11.28,0 -21,9.72 -21,21 0,11.28 9.72,21 21,21 11.28,0 21,-9.72 21,-21 z" />
      <path
         id="path36"
         style="font-family:'Glacial Indifference';letter-spacing:0.075em"
         d="m 454.57656,85.42 h 0.06 l 9.72,14.58 h 11.4 l -11.7,-15 c 5.16,-1.26 9.3,-5.82 9.3,-12.72 0,-7.74 -5.88,-13.08 -12.48,-13.08 h -6.3 -2.22 -6.78 V 100 h 9 z m 4.8,-19.14 c 2.64,0 5.4,2.28 5.4,6 0,3.9 -2.76,6.06 -5.4,6.06 h -4.8 V 66.28 Z" />
      <path
         id="path38"
         style="font-family:'Glacial Indifference';letter-spacing:0.075em"
         d="m 505.32344,84.4 h -10.32 l 5.16,-14.52 z m 15.24,15.6 -16.56,-40.8 h -7.62 l -16.56,40.8 h 9.66 l 2.94,-8.22 h 15.54 l 2.94,8.22 z" />
      <path
         id="path40"
         style="font-family:'Glacial Indifference';letter-spacing:0.075em"
         d="M 561.03062,100 V 59.2 h -9 V 84.64 L 537.99063,59.2 h -9 V 100 h 9 V 74.56 L 552.03062,100 Z" />
      <path
         id="path42"
         style="font-family:'Glacial Indifference';letter-spacing:0.075em"
         d="m 596.38844,91.84 h -14.64 v -8.22 h 14.04 v -8.16 h -14.04 v -8.1 h 14.64 V 59.2 h -23.64 V 100 h 23.64 z" />
      <path
         id="path44"
         style="font-family:'Glacial Indifference';letter-spacing:0.075em"
         d="m 630.26875,84.4 h -10.32 l 5.16,-14.52 z m 15.24,15.6 -16.56,-40.8 h -7.62 l -16.56,40.8 h 9.66 l 2.94,-8.22 h 15.54 l 2.94,8.22 z" />
    </g>
  </g>
</svg>
