<?xml version="1.0" encoding="UTF-8" standalone="no"?>
<svg
   xmlns:dc="http://purl.org/dc/elements/1.1/"
   xmlns:cc="http://creativecommons.org/ns#"
   xmlns:rdf="http://www.w3.org/1999/02/22-rdf-syntax-ns#"
   xmlns:svg="http://www.w3.org/2000/svg"
   xmlns="http://www.w3.org/2000/svg"
   id="svg16"
   width="800px"
   version="1.1"
   height="200px">
  <metadata
     id="metadata20">
    <rdf:RDF>
      <cc:Work
         rdf:about="">
        <dc:format>image/svg+xml</dc:format>
        <dc:type
           rdf:resource="http://purl.org/dc/dcmitype/StillImage" />
      </cc:Work>
    </rdf:RDF>
  </metadata>
  <defs
     id="defs4">
    <style
       id="style2"
       type="text/css"><![CDATA[    
     @font-face {font-family:Glacial Indifference;
     src: url('/Users/francesco/Repos/write-logos/src/fonts/Fonts_E_TEMPORANEA/GlacialIndifference-Bold.otf');}
     @font-face {font-family:Zian;
     src: url('/Users/francesco/Repos/write-logos/src/fonts/Fonts_X/Zianfreepromo.ttf');}
     ]]></style>
  </defs>
  <g
     id="g14"
     style="font-size:60px">
    <g
       style="text-anchor:middle"
       id="text12"
       aria-label="EXTEMPORANEA">
      <path
         id="path22"
         style="font-family:'Glacial Indifference';letter-spacing:0.075em"
         d="m 173.72828,91.84 h -14.64 v -8.22 h 14.04 v -8.16 h -14.04 v -8.1 h 14.64 V 59.2 h -23.64 V 100 h 23.64 z" />
      <path
         id="path24"
         style="font-family:Zian;letter-spacing:0.05em"
         d="m 186.58398,57.988281 h 0.82032 q 2.08007,0 4.59961,2.8125 10.95703,10.839844 11.13281,10.869141 12.77344,-12.832031 13.35937,-13.007813 1.23047,-0.673828 2.19727,-0.673828 h 0.82031 q 2.7832,0 4.42383,3.222656 0.35156,0.84961 0.35156,1.494141 v 0.996094 q 0,2.255859 -3.92578,5.566406 l -9.78516,9.755859 q 0,0.08789 12.45118,12.363282 1.25976,1.49414 1.25976,3.046875 v 0.761718 q 0,3.222657 -3.83789,4.716797 Q 219.98242,100 219.68945,100 h -1.17187 q -2.13867,0 -5.27344,-3.632813 L 203.04883,86.40625 Q 192.32617,96.923828 189.92383,99.179687 188.60547,100 187.58008,100 h -1.17188 q -2.60742,0 -4.27734,-3.222656 -0.32227,-0.84961 -0.32227,-1.494141 v -0.761719 q 0,-2.548828 3.51563,-5.302734 l 10.19531,-10.195313 v -0.05859 Q 182.6582,66.308594 182.6582,66.103516 q -0.84961,-1.376954 -0.84961,-2.490235 v -0.732422 q 0,-2.90039 3.25196,-4.570312 0.84961,-0.322266 1.52343,-0.322266 z" />
      <path
         id="path26"
         style="font-family:'Glacial Indifference';letter-spacing:0.075em"
         d="m 251.21734,67.36 h 11.64 V 59.2 h -32.28 v 8.16 h 11.64 V 100 h 9 z" />
      <path
         id="path28"
         style="font-family:'Glacial Indifference';letter-spacing:0.075em"
         d="m 294.94703,91.84 h -14.64 v -8.22 h 14.04 v -8.16 h -14.04 v -8.1 h 14.64 V 59.2 h -23.64 V 100 h 23.64 z" />
      <path
         id="path30"
         style="font-family:'Glacial Indifference';letter-spacing:0.075em"
         d="m 357.50734,100 -7.92,-40.8 h -10.68 l -8.46,28.62 -8.52,-28.62 h -10.68 l -7.92,40.8 h 9.9 l 4.8,-28.14 7.98,28.14 h 8.82 l 7.98,-28.14 4.8,28.14 z" />
      <path
         id="path32"
         style="font-family:'Glacial Indifference';letter-spacing:0.075em"
         d="m 374.85391,85.42 h 6.3 c 6.6,0 12.48,-4.86 12.48,-13.14 0,-7.74 -5.88,-13.08 -12.48,-13.08 h -6.3 -2.22 -6.78 V 100 h 9 z m 4.8,-19.14 c 2.64,0 5.4,2.28 5.4,6 0,3.9 -2.76,6.06 -5.4,6.06 h -4.8 V 66.28 Z" />
      <path
         id="path34"
         style="font-family:'Glacial Indifference';letter-spacing:0.075em"
         d="m 434.08047,79.54 c 0,6.3 -5.7,12.06 -12,12.06 -6.3,0 -12,-5.76 -12,-12.06 0,-6.3 5.7,-12 12,-12 6.3,0 12,5.7 12,12 z m 9,0.06 c 0,-11.28 -9.72,-21 -21,-21 -11.28,0 -21,9.72 -21,21 0,11.28 9.72,21 21,21 11.28,0 21,-9.72 21,-21 z" />
      <path
         id="path36"
         style="font-family:'Glacial Indifference';letter-spacing:0.075em"
         d="m 462.25234,85.42 h 0.06 l 9.72,14.58 h 11.4 l -11.7,-15 c 5.16,-1.26 9.3,-5.82 9.3,-12.72 0,-7.74 -5.88,-13.08 -12.48,-13.08 h -6.3 -2.22 -6.78 V 100 h 9 z m 4.8,-19.14 c 2.64,0 5.4,2.28 5.4,6 0,3.9 -2.76,6.06 -5.4,6.06 h -4.8 V 66.28 Z" />
      <path
         id="path38"
         style="font-family:'Glacial Indifference';letter-spacing:0.075em"
         d="m 512.99922,84.4 h -10.32 l 5.16,-14.52 z m 15.24,15.6 -16.56,-40.8 h -7.62 l -16.56,40.8 h 9.66 l 2.94,-8.22 h 15.54 l 2.94,8.22 z" />
      <path
         id="path40"
         style="font-family:'Glacial Indifference';letter-spacing:0.075em"
         d="M 568.70641,100 V 59.2 h -9 v 25.44 l -14.04,-25.44 h -9 V 100 h 9 V 74.56 l 14.04,25.44 z" />
      <path
         id="path42"
         style="font-family:'Glacial Indifference';letter-spacing:0.075em"
         d="m 604.06422,91.84 h -14.64 v -8.22 h 14.04 v -8.16 h -14.04 v -8.1 h 14.64 V 59.2 h -23.64 V 100 h 23.64 z" />
      <path
         id="path44"
         style="font-family:'Glacial Indifference';letter-spacing:0.075em"
         d="m 637.94453,84.4 h -10.32 l 5.16,-14.52 z m 15.24,15.6 -16.56,-40.8 h -7.62 l -16.56,40.8 h 9.66 l 2.94,-8.22 h 15.54 l 2.94,8.22 z" />
    </g>
  </g>
</svg>
