<?xml version="1.0" encoding="UTF-8" standalone="no"?>
<svg
   xmlns:dc="http://purl.org/dc/elements/1.1/"
   xmlns:cc="http://creativecommons.org/ns#"
   xmlns:rdf="http://www.w3.org/1999/02/22-rdf-syntax-ns#"
   xmlns:svg="http://www.w3.org/2000/svg"
   xmlns="http://www.w3.org/2000/svg"
   id="svg16"
   width="800px"
   version="1.1"
   height="200px">
  <metadata
     id="metadata20">
    <rdf:RDF>
      <cc:Work
         rdf:about="">
        <dc:format>image/svg+xml</dc:format>
        <dc:type
           rdf:resource="http://purl.org/dc/dcmitype/StillImage" />
      </cc:Work>
    </rdf:RDF>
  </metadata>
  <defs
     id="defs4">
    <style
       id="style2"
       type="text/css"><![CDATA[    
     @font-face {font-family:Glacial Indifference;
     src: url('/Users/francesco/Repos/write-logos/src/fonts/Fonts_E_TEMPORANEA/GlacialIndifference-Bold.otf');}
     @font-face {font-family:Ephesus extrabold outline;
     src: url('/Users/francesco/Repos/write-logos/src/fonts/Fonts_X/Ephesus-ExtraBold-outline.otf');}
     ]]></style>
  </defs>
  <g
     id="g14"
     style="font-size:60px">
    <g
       style="text-anchor:middle"
       id="text12"
       aria-label="EXTEMPORANEA">
      <path
         id="path22"
         style="font-family:'Glacial Indifference';letter-spacing:0.075em"
         d="m 174.13844,91.84 h -14.64 v -8.22 h 14.04 v -8.16 h -14.04 v -8.1 h 14.64 V 59.2 h -23.64 V 100 h 23.64 z" />
      <path
         id="path24"
         style="font-family:'Ephesus extrabold outline';letter-spacing:0.05em"
         d="m 183.89875,98.14 c -0.18,0.18 -0.3,0.48 -0.3,0.72 0,0.54 0.42,1.14 1.08,1.14 h 9.66 c 1.98,0 2.7,-0.9 3.06,-1.26 l 7.08,-9.96 7.08,9.96 c 0.36,0.36 1.08,1.26 3.06,1.26 h 9.66 c 0.66,0 1.08,-0.6 1.08,-1.14 0,-0.24 -0.12,-0.54 -0.3,-0.72 l -13.44,-19.08 13.32,-19.08 c 0.24,-0.3 0.36,-0.6 0.36,-0.84 0,-0.72 -0.78,-1.14 -1.2,-1.14 h -9.84 c -1.86,0 -2.4,0.6 -3.06,1.26 l -6.72,9.6 -6.72,-9.6 c -0.66,-0.66 -1.2,-1.26 -3.06,-1.26 h -9.84 c -0.42,0 -1.2,0.42 -1.2,1.14 0,0.24 0.12,0.54 0.36,0.84 l 13.32,19.08 z m 10.44,-0.06 h -8.1 l 13.44,-19.02 -13.44,-19.14 h 8.46 c 1.02,0 1.32,0.36 1.68,0.72 l -0.18,-0.3 8.28,11.82 c 2.22,-3.18 6.06,-8.64 8.1,-11.52 0.36,-0.36 0.66,-0.72 1.68,-0.72 h 8.34 l -13.32,19.14 13.38,19.02 h -8.04 c -0.96,0 -1.26,-0.24 -1.44,-0.42 l -8.7,-12.24 c -2.34,3.3 -6.3,8.88 -8.64,12.18 l 0.12,-0.12 c -0.18,0.24 -0.6,0.6 -1.62,0.6 z" />
      <path
         id="path26"
         style="font-family:'Glacial Indifference';letter-spacing:0.075em"
         d="m 250.80719,67.36 h 11.64 V 59.2 h -32.28 v 8.16 h 11.64 V 100 h 9 z" />
      <path
         id="path28"
         style="font-family:'Glacial Indifference';letter-spacing:0.075em"
         d="m 294.53687,91.84 h -14.63999 v -8.22 h 14.03999 v -8.16 h -14.03999 v -8.1 h 14.63999 V 59.2 H 270.89688 V 100 h 23.63999 z" />
      <path
         id="path30"
         style="font-family:'Glacial Indifference';letter-spacing:0.075em"
         d="m 357.09719,100 -7.92,-40.8 h -10.68 l -8.46,28.62 -8.52,-28.62 h -10.68 l -7.92,40.8 h 9.9 l 4.8,-28.14 7.98,28.14 h 8.82 l 7.98,-28.14 4.8,28.14 z" />
      <path
         id="path32"
         style="font-family:'Glacial Indifference';letter-spacing:0.075em"
         d="m 374.44375,85.42 h 6.3 c 6.6,0 12.48,-4.86 12.48,-13.14 0,-7.74 -5.88,-13.08 -12.48,-13.08 h -6.3 -2.22 -6.78 V 100 h 9 z m 4.8,-19.14 c 2.64,0 5.4,2.28 5.4,6 0,3.9 -2.76,6.06 -5.4,6.06 h -4.8 V 66.28 Z" />
      <path
         id="path34"
         style="font-family:'Glacial Indifference';letter-spacing:0.075em"
         d="m 433.67031,79.54 c 0,6.3 -5.7,12.06 -12,12.06 -6.3,0 -12,-5.76 -12,-12.06 0,-6.3 5.7,-12 12,-12 6.3,0 12,5.7 12,12 z m 9,0.06 c 0,-11.28 -9.72,-21 -21,-21 -11.28,0 -21,9.72 -21,21 0,11.28 9.72,21 21,21 11.28,0 21,-9.72 21,-21 z" />
      <path
         id="path36"
         style="font-family:'Glacial Indifference';letter-spacing:0.075em"
         d="m 461.84219,85.42 h 0.06 l 9.72,14.58 h 11.4 l -11.7,-15 c 5.16,-1.26 9.3,-5.82 9.3,-12.72 0,-7.74 -5.88,-13.08 -12.48,-13.08 h -6.3 -2.22 -6.78 V 100 h 9 z m 4.8,-19.14 c 2.64,0 5.4,2.28 5.4,6 0,3.9 -2.76,6.06 -5.4,6.06 h -4.8 V 66.28 Z" />
      <path
         id="path38"
         style="font-family:'Glacial Indifference';letter-spacing:0.075em"
         d="m 512.58906,84.4 h -10.32 l 5.16,-14.52 z m 15.24,15.6 -16.56,-40.8 h -7.62 l -16.56,40.8 h 9.66 l 2.94,-8.22 h 15.54 l 2.94,8.22 z" />
      <path
         id="path40"
         style="font-family:'Glacial Indifference';letter-spacing:0.075em"
         d="M 568.29625,100 V 59.2 h -9 v 25.44 l -14.04,-25.44 h -9 V 100 h 9 V 74.56 l 14.04,25.44 z" />
      <path
         id="path42"
         style="font-family:'Glacial Indifference';letter-spacing:0.075em"
         d="m 603.65406,91.84 h -14.64 v -8.22 h 14.04 v -8.16 h -14.04 v -8.1 h 14.64 V 59.2 h -23.64 V 100 h 23.64 z" />
      <path
         id="path44"
         style="font-family:'Glacial Indifference';letter-spacing:0.075em"
         d="m 637.53437,84.4 h -10.31999 l 5.15999,-14.52 z m 15.24,15.6 -16.55999,-40.8 h -7.62 L 612.03437,100 h 9.66001 l 2.93999,-8.22 h 15.54001 l 2.93999,8.22 z" />
    </g>
  </g>
</svg>
