<?xml version="1.0" encoding="UTF-8" standalone="no"?>
<svg
   xmlns:dc="http://purl.org/dc/elements/1.1/"
   xmlns:cc="http://creativecommons.org/ns#"
   xmlns:rdf="http://www.w3.org/1999/02/22-rdf-syntax-ns#"
   xmlns:svg="http://www.w3.org/2000/svg"
   xmlns="http://www.w3.org/2000/svg"
   id="svg16"
   width="800px"
   version="1.1"
   height="200px">
  <metadata
     id="metadata20">
    <rdf:RDF>
      <cc:Work
         rdf:about="">
        <dc:format>image/svg+xml</dc:format>
        <dc:type
           rdf:resource="http://purl.org/dc/dcmitype/StillImage" />
      </cc:Work>
    </rdf:RDF>
  </metadata>
  <defs
     id="defs4">
    <style
       id="style2"
       type="text/css"><![CDATA[    
     @font-face {font-family:Gourmet Hearth;
     src: url('/Users/francesco/Repos/write-logos/src/fonts/Fonts_E_TEMPORANEA/GourmetHearthdf.otf');}
     @font-face {font-family:St Bookashade;
     src: url('/Users/francesco/Repos/write-logos/src/fonts/Fonts_X/bookashade.ttf');}
     ]]></style>
  </defs>
  <g
     id="g14"
     style="font-size:60px">
    <g
       style="text-anchor:middle"
       id="text12"
       aria-label="EXTEMPORANEA">
      <path
         id="path22"
         style="font-family:'Gourmet Hearth';letter-spacing:0.075em"
         d="m 213.51953,60.449219 v 7.324218 H 197.40625 V 76.5625 h 13.18359 v 7.324219 h -13.18359 v 8.789062 h 16.11328 V 100 h -23.4375 V 60.449219 Z" />
      <path
         id="path24"
         style="font-family:'St Bookashade';letter-spacing:0.05em"
         d="m 271.19266,58.12 -24,20.7 -24,-20.82 h 48 z m -48,41.82 24,-20.7 24,20.82 h -48 z" />
      <path
         id="path26"
         style="font-family:'Gourmet Hearth';letter-spacing:0.075em"
         d="m 298.36328,60.449219 v 7.324218 h -8.05664 V 100 h -7.32422 V 67.773437 h -8.05664 v -7.324218 z" />
      <path
         id="path28"
         style="font-family:'Gourmet Hearth';letter-spacing:0.075em"
         d="m 330.75391,60.449219 v 7.324218 H 314.64062 V 76.5625 h 13.1836 v 7.324219 h -13.1836 v 8.789062 h 16.11329 V 100 h -23.4375 V 60.449219 Z" />
      <path
         id="path30"
         style="font-family:'Gourmet Hearth';letter-spacing:0.075em"
         d="M 347.03125,82.421875 V 100 h -7.32422 V 60.449219 h 8.78906 l 7.32422,28.242187 7.32422,-28.242187 h 8.78906 V 100 h -7.32422 V 82.421875 L 358.75,100 h -5.85938 z" />
      <path
         id="path32"
         style="font-family:'Gourmet Hearth';letter-spacing:0.075em"
         d="m 397,72.167969 q 0,-4.394532 -4.39453,-4.394532 h -4.39453 V 76.5625 h 4.39453 Q 397,76.5625 397,72.167969 Z m -4.39453,-11.71875 q 11.71875,0 11.71875,11.71875 0,11.71875 -11.71875,11.71875 h -4.39453 V 100 h -7.32422 V 60.449219 Z" />
      <path
         id="path34"
         style="font-family:'Gourmet Hearth';letter-spacing:0.075em"
         d="m 413.27734,72.167969 q 0,-11.71875 11.71875,-11.71875 11.71875,0 11.71875,11.71875 V 88.28125 Q 436.71484,100 424.99609,100 413.27734,100 413.27734,88.28125 Z m 11.71875,-4.394532 q -4.39453,0 -4.39453,4.394532 V 88.28125 q 0,4.394531 4.39453,4.394531 4.39453,0 4.39453,-4.394531 V 72.167969 q 0,-4.394532 -4.39453,-4.394532 z" />
      <path
         id="path36"
         style="font-family:'Gourmet Hearth';letter-spacing:0.075em"
         d="m 457.38672,60.449219 q 11.71875,0 11.71875,11.71875 0,6.386718 -3.48633,9.287109 L 470.57031,100 h -7.32422 l -4.30664,-16.171875 q -0.76172,0.05859 -1.55273,0.05859 h -4.39453 V 100 h -7.32422 V 60.449219 Z m 4.39453,11.71875 q 0,-4.394532 -4.39453,-4.394532 h -4.39453 V 76.5625 h 4.39453 q 4.39453,0 4.39453,-4.394531 z" />
      <path
         id="path38"
         style="font-family:'Gourmet Hearth';letter-spacing:0.075em"
         d="M 497.27734,94.140625 H 487.14062 L 485.61719,100 H 478 l 10.25391,-39.550781 h 7.91015 L 506.41797,100 h -7.61719 z m -8.23242,-7.324219 h 6.32813 l -3.16407,-12.246094 z" />
      <path
         id="path40"
         style="font-family:'Gourmet Hearth';letter-spacing:0.075em"
         d="M 521.17187,77.5 V 100 h -7.32421 V 60.449219 h 7.91015 l 9.66797,22.5 v -22.5 H 538.75 V 100 h -7.91016 z" />
      <path
         id="path42"
         style="font-family:'Gourmet Hearth';letter-spacing:0.075em"
         d="m 571.08203,60.449219 v 7.324218 H 554.96875 V 76.5625 h 13.18359 v 7.324219 h -13.18359 v 8.789062 h 16.11328 V 100 h -23.4375 V 60.449219 Z" />
      <path
         id="path44"
         style="font-family:'Gourmet Hearth';letter-spacing:0.075em"
         d="M 597.84766,94.140625 H 587.71094 L 586.1875,100 h -7.61719 l 10.25391,-39.550781 h 7.91015 L 606.98828,100 h -7.61719 z m -8.23243,-7.324219 h 6.32813 L 592.7793,74.570312 Z" />
    </g>
  </g>
</svg>
