<?xml version="1.0" encoding="UTF-8" standalone="no"?>
<svg
   xmlns:dc="http://purl.org/dc/elements/1.1/"
   xmlns:cc="http://creativecommons.org/ns#"
   xmlns:rdf="http://www.w3.org/1999/02/22-rdf-syntax-ns#"
   xmlns:svg="http://www.w3.org/2000/svg"
   xmlns="http://www.w3.org/2000/svg"
   id="svg16"
   width="800px"
   version="1.1"
   height="200px">
  <metadata
     id="metadata20">
    <rdf:RDF>
      <cc:Work
         rdf:about="">
        <dc:format>image/svg+xml</dc:format>
        <dc:type
           rdf:resource="http://purl.org/dc/dcmitype/StillImage" />
      </cc:Work>
    </rdf:RDF>
  </metadata>
  <defs
     id="defs4">
    <style
       id="style2"
       type="text/css"><![CDATA[    
     @font-face {font-family:Gourmet Hearth;
     src: url('/Users/francesco/Repos/write-logos/src/fonts/Fonts_E_TEMPORANEA/GourmetHearthdf.otf');}
     @font-face {font-family:carbono;
     src: url('/Users/francesco/Repos/write-logos/src/fonts/Fonts_X/carbono_pw.ttf');}
     ]]></style>
  </defs>
  <g
     id="g14"
     style="font-size:60px">
    <g
       style="text-anchor:middle"
       id="text12"
       aria-label="EXTEMPORANEA">
      <path
         id="path22"
         style="font-family:'Gourmet Hearth';letter-spacing:0.075em"
         d="m 219.84766,60.449219 v 7.324218 H 203.73437 V 76.5625 h 13.1836 v 7.324219 h -13.1836 v 8.789062 h 16.11329 V 100 h -23.4375 V 60.449219 Z" />
      <path
         id="path24"
         style="font-family:carbono;letter-spacing:0.05em"
         d="m 233.60078,60.4 11.04,17.52 -12,18.3 h 5.94 l 8.64,-14.46 8.64,14.46 h 5.94 l -12,-18.3 11.04,-17.52 h -5.4 l -8.22,13.74 -8.22,-13.74 z m 5.4,-3.78 q 0.78,0 1.8,0.6 1.02,0.6 1.44,1.26 l 4.98,8.28 q 1.2,-2.04 2.46,-4.14 1.32,-2.1 2.52,-4.14 0.42,-0.66 1.44,-1.26 1.02,-0.6 1.8,-0.6 h 5.4 q 1.2,0 2.1,0.54 0.9,0.54 1.32,1.38 0.48,0.84 0.42,1.86 0,1.02 -0.66,2.04 l -9.78,15.48 q 2.7,4.14 5.34,8.1 2.7,3.96 5.4,8.1 0.66,1.02 0.66,2.1 0.06,1.02 -0.42,1.86 -0.42,0.84 -1.32,1.38 -0.84,0.54 -2.1,0.54 h -5.94 q -0.78,0 -1.8,-0.6 -1.02,-0.6 -1.44,-1.26 l -5.4,-9 q -1.38,2.22 -2.76,4.5 -1.32,2.28 -2.64,4.5 -0.42,0.66 -1.44,1.26 -1.02,0.6 -1.8,0.6 h -5.94 q -1.26,0 -2.16,-0.54 -0.9,-0.54 -1.38,-1.38 -0.42,-0.84 -0.36,-1.86 0.06,-1.08 0.72,-2.1 l 10.74,-16.2 q -2.4,-3.78 -4.92,-7.74 -2.46,-3.96 -4.86,-7.74 -0.66,-1.02 -0.72,-2.04 0,-1.02 0.42,-1.86 0.48,-0.84 1.38,-1.38 0.9,-0.54 2.1,-0.54 z" />
      <path
         id="path26"
         style="font-family:'Gourmet Hearth';letter-spacing:0.075em"
         d="m 292.03516,60.449219 v 7.324218 h -8.05664 V 100 H 276.6543 V 67.773437 h -8.05664 v -7.324218 z" />
      <path
         id="path28"
         style="font-family:'Gourmet Hearth';letter-spacing:0.075em"
         d="m 324.42578,60.449219 v 7.324218 H 308.3125 V 76.5625 h 13.18359 v 7.324219 H 308.3125 v 8.789062 h 16.11328 V 100 h -23.4375 V 60.449219 Z" />
      <path
         id="path30"
         style="font-family:'Gourmet Hearth';letter-spacing:0.075em"
         d="M 340.70312,82.421875 V 100 h -7.32421 V 60.449219 h 8.78906 l 7.32422,28.242187 7.32422,-28.242187 h 8.78906 V 100 h -7.32422 V 82.421875 L 352.42187,100 h -5.85937 z" />
      <path
         id="path32"
         style="font-family:'Gourmet Hearth';letter-spacing:0.075em"
         d="m 390.67187,72.167969 q 0,-4.394532 -4.39453,-4.394532 h -4.39453 V 76.5625 h 4.39453 q 4.39453,0 4.39453,-4.394531 z m -4.39453,-11.71875 q 11.71875,0 11.71875,11.71875 0,11.71875 -11.71875,11.71875 h -4.39453 V 100 h -7.32422 V 60.449219 Z" />
      <path
         id="path34"
         style="font-family:'Gourmet Hearth';letter-spacing:0.075em"
         d="m 406.94922,72.167969 q 0,-11.71875 11.71875,-11.71875 11.71875,0 11.71875,11.71875 V 88.28125 Q 430.38672,100 418.66797,100 406.94922,100 406.94922,88.28125 Z m 11.71875,-4.394532 q -4.39453,0 -4.39453,4.394532 V 88.28125 q 0,4.394531 4.39453,4.394531 4.39453,0 4.39453,-4.394531 V 72.167969 q 0,-4.394532 -4.39453,-4.394532 z" />
      <path
         id="path36"
         style="font-family:'Gourmet Hearth';letter-spacing:0.075em"
         d="m 451.05859,60.449219 q 11.71875,0 11.71875,11.71875 0,6.386718 -3.48632,9.287109 L 464.24219,100 h -7.32422 l -4.30664,-16.171875 q -0.76172,0.05859 -1.55274,0.05859 h -4.39453 V 100 h -7.32422 V 60.449219 Z m 4.39453,11.71875 q 0,-4.394532 -4.39453,-4.394532 h -4.39453 V 76.5625 h 4.39453 q 4.39453,0 4.39453,-4.394531 z" />
      <path
         id="path38"
         style="font-family:'Gourmet Hearth';letter-spacing:0.075em"
         d="M 490.94922,94.140625 H 480.8125 L 479.28906,100 h -7.61719 l 10.25391,-39.550781 h 7.91016 L 500.08984,100 h -7.61718 z m -8.23242,-7.324219 h 6.32812 l -3.16406,-12.246094 z" />
      <path
         id="path40"
         style="font-family:'Gourmet Hearth';letter-spacing:0.075em"
         d="M 514.84375,77.5 V 100 h -7.32422 V 60.449219 h 7.91016 l 9.66797,22.5 v -22.5 h 7.32421 V 100 h -7.91015 z" />
      <path
         id="path42"
         style="font-family:'Gourmet Hearth';letter-spacing:0.075em"
         d="m 564.75391,60.449219 v 7.324218 H 548.64062 V 76.5625 h 13.1836 v 7.324219 h -13.1836 v 8.789062 h 16.11329 V 100 h -23.4375 V 60.449219 Z" />
      <path
         id="path44"
         style="font-family:'Gourmet Hearth';letter-spacing:0.075em"
         d="M 591.51953,94.140625 H 581.38281 L 579.85937,100 h -7.61718 l 10.2539,-39.550781 h 7.91016 L 600.66016,100 h -7.61719 z m -8.23242,-7.324219 h 6.32812 l -3.16406,-12.246094 z" />
    </g>
  </g>
</svg>
