<?xml version="1.0" encoding="UTF-8" standalone="no"?>
<svg
   xmlns:dc="http://purl.org/dc/elements/1.1/"
   xmlns:cc="http://creativecommons.org/ns#"
   xmlns:rdf="http://www.w3.org/1999/02/22-rdf-syntax-ns#"
   xmlns:svg="http://www.w3.org/2000/svg"
   xmlns="http://www.w3.org/2000/svg"
   id="svg16"
   width="800px"
   version="1.1"
   height="200px">
  <metadata
     id="metadata20">
    <rdf:RDF>
      <cc:Work
         rdf:about="">
        <dc:format>image/svg+xml</dc:format>
        <dc:type
           rdf:resource="http://purl.org/dc/dcmitype/StillImage" />
      </cc:Work>
    </rdf:RDF>
  </metadata>
  <defs
     id="defs4">
    <style
       id="style2"
       type="text/css"><![CDATA[    
     @font-face {font-family:Gourmet Hearth;
     src: url('/Users/francesco/Repos/write-logos/src/fonts/Fonts_E_TEMPORANEA/GourmetHearthdf.otf');}
     @font-face {font-family:Bamboo shoot;
     src: url('/Users/francesco/Repos/write-logos/src/fonts/Fonts_X/bambooshoot.ttf');}
     ]]></style>
  </defs>
  <g
     id="g14"
     style="font-size:60px">
    <g
       style="text-anchor:middle"
       id="text12"
       aria-label="EXTEMPORANEA">
      <path
         id="path22"
         style="font-family:'Gourmet Hearth';letter-spacing:0.075em"
         d="m 215.86328,60.449219 v 7.324218 H 199.75 V 76.5625 h 13.18359 v 7.324219 H 199.75 v 8.789062 h 16.11328 V 100 h -23.4375 V 60.449219 Z" />
      <path
         id="path24"
         style="font-family:'Bamboo shoot';letter-spacing:0.05em"
         d="m 232.84375,50.664062 h 0.82031 q 3.7793,0 7.26563,5.390625 6.18164,7.705079 6.21093,7.96875 h 0.11719 q 7.5293,-10.019531 9.72656,-12.070312 1.84571,-1.289063 3.75,-1.289063 h 0.82032 q 4.21875,0 6.32812,4.921875 l 0.23438,1.640625 v 0.820313 q 0,2.900391 -3.98438,7.03125 l -7.96875,10.195312 q 11.48438,14.589844 11.48438,15 0.46875,1.347657 0.46875,2.34375 V 93.4375 q 0,4.335937 -5.03907,6.328125 Q 262.55078,100 261.55469,100 h -0.82032 q -3.77929,0 -7.26562,-5.390625 -6.18164,-7.705078 -6.21094,-7.96875 h -0.11719 Q 239.61133,96.660156 237.41406,98.710937 235.56836,100 233.66406,100 h -0.82031 q -4.21875,0 -6.32813,-4.921875 L 226.28125,93.4375 v -0.820313 q 0,-2.90039 3.98437,-7.03125 l 7.96875,-10.195312 q -11.48437,-14.589844 -11.48437,-15 -0.46875,-1.347656 -0.46875,-2.34375 v -0.820313 q 0,-4.335937 5.03906,-6.328125 0.52735,-0.234375 1.52344,-0.234375 z m -1.75781,6.914063 v 0.117187 q 0,1.171875 3.86718,5.507813 0.64454,1.113281 6.44532,8.203125 l 2.69531,-3.515625 Q 235.97852,57.431641 234.48437,55.820312 233.89844,55.46875 233.3125,55.46875 h -0.11719 q -2.10937,0.322266 -2.10937,2.109375 z m 19.21875,10.3125 2.8125,3.515625 9.96093,-12.773438 0.23438,-0.9375 v -0.117187 q -0.32227,-2.109375 -2.10938,-2.109375 h -0.11718 q -1.43555,0 -3.39844,3.046875 z m -3.16407,3.867187 -2.69531,3.515625 2.69531,3.632813 h 0.11719 l 2.69531,-3.515625 -2.69531,-3.632813 z m -5.85937,7.5 -9.96094,12.773438 -0.23437,0.9375 v 0.117187 q 0.32226,2.109375 2.10937,2.109375 h 0.11719 q 1.40625,0 3.39844,-3.046875 l 7.38281,-9.375 z m 11.71875,0 -2.69531,3.515625 q 8.58398,11.044922 9.60937,12.070313 0.61524,0.351562 1.17188,0.351562 h 0.11718 q 2.10938,-0.322265 2.10938,-2.109375 V 92.96875 q 0,-1.171875 -3.86719,-5.507813 Q 258.80078,86.347656 253,79.257812 Z" />
      <path
         id="path26"
         style="font-family:'Gourmet Hearth';letter-spacing:0.075em"
         d="m 296.01953,60.449219 v 7.324218 h -8.05664 V 100 h -7.32422 V 67.773437 h -8.05664 v -7.324218 z" />
      <path
         id="path28"
         style="font-family:'Gourmet Hearth';letter-spacing:0.075em"
         d="m 328.41016,60.449219 v 7.324218 H 312.29687 V 76.5625 h 13.1836 v 7.324219 h -13.1836 v 8.789062 h 16.11329 V 100 h -23.4375 V 60.449219 Z" />
      <path
         id="path30"
         style="font-family:'Gourmet Hearth';letter-spacing:0.075em"
         d="M 344.6875,82.421875 V 100 h -7.32422 V 60.449219 h 8.78906 l 7.32422,28.242187 7.32422,-28.242187 h 8.78906 V 100 h -7.32422 V 82.421875 L 356.40625,100 h -5.85938 z" />
      <path
         id="path32"
         style="font-family:'Gourmet Hearth';letter-spacing:0.075em"
         d="m 394.65625,72.167969 q 0,-4.394532 -4.39453,-4.394532 h -4.39453 V 76.5625 h 4.39453 q 4.39453,0 4.39453,-4.394531 z m -4.39453,-11.71875 q 11.71875,0 11.71875,11.71875 0,11.71875 -11.71875,11.71875 h -4.39453 V 100 h -7.32422 V 60.449219 Z" />
      <path
         id="path34"
         style="font-family:'Gourmet Hearth';letter-spacing:0.075em"
         d="m 410.93359,72.167969 q 0,-11.71875 11.71875,-11.71875 11.71875,0 11.71875,11.71875 V 88.28125 Q 434.37109,100 422.65234,100 410.93359,100 410.93359,88.28125 Z m 11.71875,-4.394532 q -4.39453,0 -4.39453,4.394532 V 88.28125 q 0,4.394531 4.39453,4.394531 4.39453,0 4.39453,-4.394531 V 72.167969 q 0,-4.394532 -4.39453,-4.394532 z" />
      <path
         id="path36"
         style="font-family:'Gourmet Hearth';letter-spacing:0.075em"
         d="m 455.04297,60.449219 q 11.71875,0 11.71875,11.71875 0,6.386718 -3.48633,9.287109 L 468.22656,100 h -7.32422 L 456.5957,83.828125 q -0.76172,0.05859 -1.55273,0.05859 h -4.39453 V 100 h -7.32422 V 60.449219 Z m 4.39453,11.71875 q 0,-4.394532 -4.39453,-4.394532 h -4.39453 V 76.5625 h 4.39453 q 4.39453,0 4.39453,-4.394531 z" />
      <path
         id="path38"
         style="font-family:'Gourmet Hearth';letter-spacing:0.075em"
         d="M 494.93359,94.140625 H 484.79687 L 483.27344,100 h -7.61719 l 10.25391,-39.550781 h 7.91015 L 504.07422,100 h -7.61719 z m -8.23242,-7.324219 h 6.32813 l -3.16407,-12.246094 z" />
      <path
         id="path40"
         style="font-family:'Gourmet Hearth';letter-spacing:0.075em"
         d="M 518.82812,77.5 V 100 h -7.32421 V 60.449219 h 7.91015 l 9.66797,22.5 v -22.5 h 7.32422 V 100 h -7.91016 z" />
      <path
         id="path42"
         style="font-family:'Gourmet Hearth';letter-spacing:0.075em"
         d="m 568.73828,60.449219 v 7.324218 H 552.625 V 76.5625 h 13.18359 v 7.324219 H 552.625 v 8.789062 h 16.11328 V 100 h -23.4375 V 60.449219 Z" />
      <path
         id="path44"
         style="font-family:'Gourmet Hearth';letter-spacing:0.075em"
         d="M 595.50391,94.140625 H 585.36719 L 583.84375,100 h -7.61719 l 10.25391,-39.550781 h 7.91015 L 604.64453,100 h -7.61719 z m -8.23243,-7.324219 h 6.32813 l -3.16406,-12.246094 z" />
    </g>
  </g>
</svg>
