<?xml version="1.0" encoding="UTF-8" standalone="no"?>
<svg
   xmlns:dc="http://purl.org/dc/elements/1.1/"
   xmlns:cc="http://creativecommons.org/ns#"
   xmlns:rdf="http://www.w3.org/1999/02/22-rdf-syntax-ns#"
   xmlns:svg="http://www.w3.org/2000/svg"
   xmlns="http://www.w3.org/2000/svg"
   id="svg16"
   width="800px"
   version="1.1"
   height="200px">
  <metadata
     id="metadata20">
    <rdf:RDF>
      <cc:Work
         rdf:about="">
        <dc:format>image/svg+xml</dc:format>
        <dc:type
           rdf:resource="http://purl.org/dc/dcmitype/StillImage" />
      </cc:Work>
    </rdf:RDF>
  </metadata>
  <defs
     id="defs4">
    <style
       id="style2"
       type="text/css"><![CDATA[    
     @font-face {font-family:Gourmet Hearth;
     src: url('/Users/francesco/Repos/write-logos/src/fonts/Fonts_E_TEMPORANEA/GourmetHearthdf.otf');}
     @font-face {font-family:Bungee Outline;
     src: url('/Users/francesco/Repos/write-logos/src/fonts/Fonts_X/BungeeOutline-Regular.ttf');}
     ]]></style>
  </defs>
  <g
     id="g14"
     style="font-size:60px">
    <g
       style="text-anchor:middle"
       id="text12"
       aria-label="EXTEMPORANEA">
      <path
         id="path22"
         style="font-family:'Gourmet Hearth';letter-spacing:0.075em"
         d="m 216.15625,60.449219 v 7.324218 H 200.04297 V 76.5625 h 13.18359 v 7.324219 h -13.18359 v 8.789062 h 16.11328 V 100 h -23.4375 V 60.449219 Z" />
      <path
         id="path24"
         style="font-family:'Bungee Outline';letter-spacing:0.05em"
         d="m 235.72937,91.9 v 2.7 h -0.6 v -2.7 q 0,-1.32 0.06,-2.46 0.12,-1.2 0.84,-2.16 l 7.2,-9.84 -7.2,-9.72 q -0.66,-0.96 -0.78,-2.1 -0.12,-1.2 -0.12,-2.52 v -0.9 h 0.6 v 0.9 q 0,1.26 0.12,2.4 0.12001,1.14 0.72,1.98 l 7.2,9.72 h 7.14 l 6.96,-9.72 q 0.60001,-0.84 0.72001,-1.98 0.12,-1.14 0.12,-2.4 v -0.9 h 0.59999 v 0.9 q 0,1.32 -0.12,2.52 -0.12,1.14 -0.78,2.1 l -7.08,9.84 7.08,9.72 q 0.66,0.96 0.78,2.16 0.12,1.14 0.12,2.46 v 2.7 h -0.59999 v -2.7 q 0,-1.26 -0.12,-2.4 -0.12,-1.14 -0.72001,-1.98 l -7.02,-9.72 h -7.2 l -7.08,9.72 q -0.59999,0.78 -0.72,1.98 -0.12,1.14 -0.12,2.4 z m 6.42,5.94 V 91.9 q 0,-0.6 0.06,-1.26 0.06,-0.66 0.48,-1.26 l 2.7,-3.78 q 0.36,-0.54 0.66,-0.78 0.3,-0.24 0.78,-0.24 h 0.84 q 0.48,0 0.78,0.24 0.3,0.24 0.66,0.78 l 2.64,3.78 q 0.42,0.6 0.48,1.26 0.06,0.66 0.06,1.26 v 5.94 q 0,1.14 0.48,1.68 0.54,0.48 1.68,0.48 h 9.12 q 1.14001,0 1.62,-0.48 0.54,-0.54 0.54,-1.68 v -6.42 q 0,-2.76 -0.48,-4.14 -0.41999,-1.38 -1.79999,-3.24 l -4.86,-6.48 4.86,-6.6 q 1.32,-1.86 1.79999,-3.24 0.48,-1.38 0.48,-4.14 v -4.62 q 0,-1.14 -0.54,-1.62 -0.47999,-0.54 -1.62,-0.54 h -9.12 q -1.14,0 -1.68,0.54 -0.48,0.48 -0.48,1.62 v 4.14 q 0,0.6 -0.06,1.26 -0.06,0.66 -0.48,1.26 l -2.7,3.78 q -0.36,0.48 -0.66,0.78 -0.3,0.24 -0.78,0.24 h -0.72 q -0.48,0 -0.84,-0.24 -0.3,-0.3 -0.6,-0.78 l -2.64,-3.78 q -0.42,-0.6 -0.48,-1.26 -0.06,-0.66 -0.06,-1.26 v -4.14 q 0,-1.14 -0.54,-1.62 -0.48,-0.54 -1.62,-0.54 h -9.24 q -1.14,0 -1.68,0.54 -0.48,0.48 -0.48,1.62 v 4.62 q 0,2.76 0.42,4.14 0.48,1.38 1.86,3.24 l 4.86,6.54 -4.86,6.54 q -1.32,1.86 -1.8,3.24 -0.48,1.38 -0.48,4.14 v 6.42 q 0,1.14 0.48,1.68 0.54,0.48 1.68,0.48 h 9.12 q 1.14,0 1.62,-0.48 0.54,-0.54 0.54,-1.68 z m -2.16,2.76 h -9.12 q -1.44,0 -2.1,-0.66 -0.66,-0.66 -0.66,-2.1 v -6.42 q 0,-2.94 0.48,-4.38 0.48,-1.44 1.92,-3.36 l 4.62,-6.18 -4.62,-6.18 q -1.44,-1.92 -1.92,-3.36 -0.48,-1.44 -0.48,-4.38 v -4.62 q 0,-1.44 0.66,-2.1 0.66,-0.66 2.1,-0.66 h 9.24 q 1.44,0 2.1,0.66 0.66,0.66 0.66,2.1 v 4.14 q 0,0.54 0,1.14 0.06,0.54 0.42,1.02 l 2.64,3.84 q 0.24,0.3 0.42,0.54 0.18,0.18 0.54,0.18 h 0.72 q 0.36001,0 0.54,-0.24 0.18,-0.24 0.42,-0.54 l 2.7,-3.78 q 0.36,-0.48 0.36,-1.02 0.06,-0.6 0.06,-1.14 v -4.14 q 0,-1.44 0.66,-2.1 0.66,-0.66 2.1,-0.66 h 9.12 q 1.44,0 2.1,0.66 0.66001,0.66 0.66001,2.1 v 4.62 q 0,2.94 -0.48001,4.38 -0.48,1.44 -1.92,3.36 l -4.62,6.24 4.62,6.12 q 1.44,1.92 1.92,3.36 0.48001,1.44 0.48001,4.38 v 6.42 q 0,1.44 -0.66001,2.1 -0.66,0.66 -2.1,0.66 h -9.12 q -1.44,0 -2.1,-0.66 -0.66,-0.66 -0.66,-2.1 V 91.9 q 0,-0.54 -0.06,-1.08 0,-0.54 -0.36,-1.08 l -2.64,-3.78 q -0.24,-0.36 -0.42,-0.54 -0.17999,-0.24 -0.54,-0.24 h -0.84 q -0.35999,0 -0.54,0.24 -0.18,0.18 -0.42,0.54 l -2.7,3.78 q -0.36,0.54 -0.42,1.08 0,0.54 0,1.08 v 5.94 q 0,1.44 -0.66,2.1 -0.66,0.66 -2.1,0.66 z" />
      <path
         id="path26"
         style="font-family:'Gourmet Hearth';letter-spacing:0.075em"
         d="m 295.72656,60.449219 v 7.324218 h -8.05664 V 100 H 280.3457 V 67.773437 h -8.05664 v -7.324218 z" />
      <path
         id="path28"
         style="font-family:'Gourmet Hearth';letter-spacing:0.075em"
         d="m 328.11719,60.449219 v 7.324218 H 312.00391 V 76.5625 h 13.18359 v 7.324219 h -13.18359 v 8.789062 h 16.11328 V 100 h -23.4375 V 60.449219 Z" />
      <path
         id="path30"
         style="font-family:'Gourmet Hearth';letter-spacing:0.075em"
         d="M 344.39453,82.421875 V 100 h -7.32422 V 60.449219 h 8.78906 l 7.32422,28.242187 7.32422,-28.242187 h 8.78906 V 100 h -7.32421 V 82.421875 L 356.11328,100 h -5.85937 z" />
      <path
         id="path32"
         style="font-family:'Gourmet Hearth';letter-spacing:0.075em"
         d="m 394.36328,72.167969 q 0,-4.394532 -4.39453,-4.394532 h -4.39453 V 76.5625 h 4.39453 q 4.39453,0 4.39453,-4.394531 z m -4.39453,-11.71875 q 11.71875,0 11.71875,11.71875 0,11.71875 -11.71875,11.71875 h -4.39453 V 100 H 378.25 V 60.449219 Z" />
      <path
         id="path34"
         style="font-family:'Gourmet Hearth';letter-spacing:0.075em"
         d="m 410.64062,72.167969 q 0,-11.71875 11.71875,-11.71875 11.71875,0 11.71875,11.71875 V 88.28125 Q 434.07812,100 422.35937,100 410.64062,100 410.64062,88.28125 Z m 11.71875,-4.394532 q -4.39453,0 -4.39453,4.394532 V 88.28125 q 0,4.394531 4.39453,4.394531 4.39454,0 4.39454,-4.394531 V 72.167969 q 0,-4.394532 -4.39454,-4.394532 z" />
      <path
         id="path36"
         style="font-family:'Gourmet Hearth';letter-spacing:0.075em"
         d="m 454.75,60.449219 q 11.71875,0 11.71875,11.71875 0,6.386718 -3.48633,9.287109 L 467.93359,100 h -7.32422 l -4.30664,-16.171875 q -0.76171,0.05859 -1.55273,0.05859 h -4.39453 V 100 h -7.32422 V 60.449219 Z m 4.39453,11.71875 q 0,-4.394532 -4.39453,-4.394532 h -4.39453 V 76.5625 H 454.75 q 4.39453,0 4.39453,-4.394531 z" />
      <path
         id="path38"
         style="font-family:'Gourmet Hearth';letter-spacing:0.075em"
         d="M 494.64062,94.140625 H 484.50391 L 482.98047,100 h -7.61719 l 10.25391,-39.550781 h 7.91015 L 503.78125,100 h -7.61719 z m -8.23242,-7.324219 h 6.32813 l -3.16406,-12.246094 z" />
      <path
         id="path40"
         style="font-family:'Gourmet Hearth';letter-spacing:0.075em"
         d="M 518.53516,77.5 V 100 h -7.32422 V 60.449219 h 7.91015 l 9.66797,22.5 v -22.5 h 7.32422 V 100 h -7.91016 z" />
      <path
         id="path42"
         style="font-family:'Gourmet Hearth';letter-spacing:0.075em"
         d="m 568.44531,60.449219 v 7.324218 H 552.33203 V 76.5625 h 13.18359 v 7.324219 h -13.18359 v 8.789062 h 16.11328 V 100 h -23.4375 V 60.449219 Z" />
      <path
         id="path44"
         style="font-family:'Gourmet Hearth';letter-spacing:0.075em"
         d="M 595.21094,94.140625 H 585.07422 L 583.55078,100 h -7.61719 L 586.1875,60.449219 h 7.91016 L 604.35156,100 h -7.61719 z m -8.23242,-7.324219 h 6.32812 l -3.16406,-12.246094 z" />
    </g>
  </g>
</svg>
