<?xml version="1.0" encoding="UTF-8" standalone="no"?>
<svg
   xmlns:dc="http://purl.org/dc/elements/1.1/"
   xmlns:cc="http://creativecommons.org/ns#"
   xmlns:rdf="http://www.w3.org/1999/02/22-rdf-syntax-ns#"
   xmlns:svg="http://www.w3.org/2000/svg"
   xmlns="http://www.w3.org/2000/svg"
   id="svg16"
   width="800px"
   version="1.1"
   height="200px">
  <metadata
     id="metadata20">
    <rdf:RDF>
      <cc:Work
         rdf:about="">
        <dc:format>image/svg+xml</dc:format>
        <dc:type
           rdf:resource="http://purl.org/dc/dcmitype/StillImage" />
      </cc:Work>
    </rdf:RDF>
  </metadata>
  <defs
     id="defs4">
    <style
       id="style2"
       type="text/css"><![CDATA[    
     @font-face {font-family:Gourmet Hearth;
     src: url('/Users/francesco/Repos/write-logos/src/fonts/Fonts_E_TEMPORANEA/GourmetHearthdf.otf');}
     @font-face {font-family:Dr Eye;
     src: url('/Users/francesco/Repos/write-logos/src/fonts/Fonts_X/DrEye.otf');}
     ]]></style>
  </defs>
  <g
     id="g14"
     style="font-size:60px">
    <g
       style="text-anchor:middle"
       id="text12"
       aria-label="EXTEMPORANEA">
      <path
         id="path22"
         style="font-family:'Gourmet Hearth';letter-spacing:0.075em"
         d="m 216.85937,60.449219 v 7.324218 H 200.74609 V 76.5625 h 13.1836 v 7.324219 h -13.1836 v 8.789062 h 16.11328 V 100 h -23.4375 V 60.449219 Z" />
      <path
         id="path24"
         style="font-family:'Dr Eye';letter-spacing:0.05em"
         d="m 224.7325,55.78 c 0.18,-0.24 2.1,-1.08 0,-1.2 -0.66,-0.06 -0.24,0.96 0,1.2 z m 0.9,8.94 c -0.12,0 -0.6,0.06 -0.72,0 -0.06,0.18 -0.42,0.12 -0.6,0.18 0.06,0.12 0,0.66 0,0.78 0.18,0 0.36,0.12 0.6,0.18 -0.42,0.12 0.84,-0.18 0.54,-0.18 0.42,0.24 0.18,-0.96 0.18,-0.96 z m 37.74,28.5 c 0.78,-3.9 -2.28,-3.06 -3.9,-4.08 -0.3,-0.12 -0.06,-0.36 -0.3,-0.6 -0.48,-0.84 -0.36,-2.28 -0.9,-3.18 -0.9,-1.5 -3.18,-1.2 -4.08,-2.4 -0.78,-1.02 -0.42,-3 -1.38,-3.78 l -0.18,-0.18 c -1.26,-1.02 -2.34,-0.42 -3,-2.1 0,-0.06 -0.42,-0.9 -0.36,-0.9 0.48,-0.36 0.36,-1.32 0.78,-1.68 0.78,-0.78 2.52,-0.66 3.18,-1.56 l 0.42,-0.36 c 0.42,-1.44 0,-2.16 0.72,-3.18 0.84,-1.26 3.24,-1.02 4.08,-2.46 0.36,-0.66 0.24,-1.98 0.54,-2.76 0.66,-1.8 5.46,-1.8 3.42,-5.1 l -0.18,-0.36 c -0.72,-0.6 -1.98,-0.48 -2.76,-0.96 -1.44,-0.9 -0.54,-3.48 -2.88,-4.14 -0.12,0 -0.36,0 -0.54,0 -2.1,0.12 -2.04,2.34 -3.24,3.42 -0.96,0.78 -1.86,0.48 -2.94,1.14 -1.56,1.02 -0.9,2.7 -1.68,4.32 l -0.6,0.54 c -1.44,0.78 -2.82,0.42 -3.96,1.5 -0.6,0.54 -0.42,2.16 -1.26,2.4 -1.02,0.3 -2.28,-0.12 -2.7,-0.54 -0.3,-0.42 -0.6,-1.74 -0.36,-2.58 0.3,-1.14 1.86,-0.48 2.28,-1.86 0.12,-0.48 0.18,-0.84 0.18,-1.2 0,-0.06 -0.06,-0.36 -0.18,-0.72 -0.06,-0.06 -0.3,-0.54 -0.36,-0.6 -0.84,-0.72 -2.34,-0.48 -3.42,-0.18 0,0.3 0.12,1.14 0,1.32 -0.3,0.54 -1.5,0.48 -2.4,0.54 -1.14,-1.68 -1.26,-2.7 1.14,-3.36 0.3,-1.14 0.54,-3.66 -1.14,-3.96 -2.58,-0.48 -2.28,2.28 -3.6,3.06 -1.08,0.6 -2.7,0.18 -3.9,0.9 -1.08,0.66 -0.78,5.16 0.18,5.64 0.78,0.42 1.56,0.12 2.22,0.6 1.32,0.78 1.38,2.4 1.14,4.32 -1.68,0.66 -2.04,0.72 -2.22,2.94 1.38,0.66 1.26,0.78 2.58,0 0.12,-0.06 0.78,-0.12 0.78,-0.18 0.18,-0.3 0,-1.08 0,-1.44 0.06,0 0.54,0 0.54,0 0.42,-0.12 0.48,-0.3 0.96,-0.24 2.28,0.18 2.46,2.04 1.86,3.96 -0.72,0.18 -1.56,0.3 -1.86,0.96 -0.36,0.66 -0.18,1.92 0,2.58 0.6,2.28 2.4,1.56 2.64,3 0.54,3.24 -2.58,3.36 -4.32,3.24 -0.42,1.32 -0.3,3.84 -1.14,4.86 -0.78,1.02 -3.42,0.84 -3.9,2.04 -0.6,1.62 -0.12,3.24 -1.38,4.14 -1.26,0.96 -1.86,-0.06 -2.58,1.86 -0.3,0.78 -0.48,1.44 0,2.22 0.06,0.12 0.42,0.54 0.54,0.6 0,0.06 0.18,0.18 0.18,0.18 0.84,0.6 2.04,0.3 3,0.72 1.08,0.54 0.72,3.06 1.92,3.6 0.42,0.24 1.5,0 1.5,0 0.36,-0.3 0.9,-0.36 1.08,-0.72 0.48,-0.9 0.18,-2.34 0.96,-2.88 0.66,-0.42 1.44,-0.12 2.46,-0.36 2.46,-0.54 1.86,-3.42 2.58,-5.76 1.38,0.06 3.9,0.24 4.38,-1.56 0.24,-1.08 -0.24,-2.1 -0.42,-2.76 -2.4,-0.6 -2.04,-1.32 -1.44,-3.42 1.02,-0.06 2.58,-0.12 2.94,0.9 0.06,0.36 -0.18,0.96 0,1.2 0.18,0.24 1.02,0.36 1.32,0.54 1.38,0.72 3.3,0.78 3.78,2.46 0.42,1.32 0.48,3.06 1.68,3.54 1.44,0.6 2.1,0 2.94,1.32 0.66,0.96 0.54,3.54 1.74,3.9 0.9,0.3 1.98,-0.06 2.76,0.18 2.46,0.66 1.98,3.24 4.74,3.24 0.84,-1.92 0.78,-3 -1.68,-3.42 -0.06,-0.3 0.12,-0.42 -0.18,-0.54 0,-1.86 0.12,-3.3 1.08,-4.08 0.84,-0.72 1.86,-0.42 2.1,-1.74 z m -31.92,-11.94 c -0.36,-0.6 -0.66,-0.54 -1.32,-0.84 -0.06,0.18 -0.6,0.3 -0.72,0.48 0.06,0.3 -0.12,0.72 0,1.08 0.36,1.08 3.96,1.56 2.04,-0.72 z m -6.54,4.8 c -0.78,0 -0.18,1.02 -0.18,1.02 0.3,-0.24 1.2,-0.96 0.18,-1.02 z m 41.82,11.46 c 0.6,-0.06 0.3,-1.14 -0.54,-1.08 -0.72,0.06 -0.24,1.14 0.54,1.08 z m -30.36,-6 c 0.9,0.36 1.62,2.52 -1.14,1.14 0,-0.36 0.18,-1.08 0.18,-1.14 0.3,0.12 0.6,-0.12 0.96,0 z" />
      <path
         id="path26"
         style="font-family:'Gourmet Hearth';letter-spacing:0.075em"
         d="m 295.02344,60.449219 v 7.324218 H 286.9668 V 100 h -7.32422 V 67.773437 h -8.05664 v -7.324218 z" />
      <path
         id="path28"
         style="font-family:'Gourmet Hearth';letter-spacing:0.075em"
         d="m 327.41406,60.449219 v 7.324218 H 311.30078 V 76.5625 h 13.18359 v 7.324219 h -13.18359 v 8.789062 h 16.11328 V 100 h -23.4375 V 60.449219 Z" />
      <path
         id="path30"
         style="font-family:'Gourmet Hearth';letter-spacing:0.075em"
         d="M 343.69141,82.421875 V 100 h -7.32422 V 60.449219 h 8.78906 l 7.32422,28.242187 7.32422,-28.242187 h 8.78906 V 100 h -7.32422 V 82.421875 L 355.41016,100 h -5.85938 z" />
      <path
         id="path32"
         style="font-family:'Gourmet Hearth';letter-spacing:0.075em"
         d="m 393.66016,72.167969 q 0,-4.394532 -4.39454,-4.394532 h -4.39453 V 76.5625 h 4.39453 q 4.39454,0 4.39454,-4.394531 z m -4.39454,-11.71875 q 11.71875,0 11.71875,11.71875 0,11.71875 -11.71875,11.71875 h -4.39453 V 100 h -7.32422 V 60.449219 Z" />
      <path
         id="path34"
         style="font-family:'Gourmet Hearth';letter-spacing:0.075em"
         d="m 409.9375,72.167969 q 0,-11.71875 11.71875,-11.71875 11.71875,0 11.71875,11.71875 V 88.28125 Q 433.375,100 421.65625,100 409.9375,100 409.9375,88.28125 Z m 11.71875,-4.394532 q -4.39453,0 -4.39453,4.394532 V 88.28125 q 0,4.394531 4.39453,4.394531 4.39453,0 4.39453,-4.394531 V 72.167969 q 0,-4.394532 -4.39453,-4.394532 z" />
      <path
         id="path36"
         style="font-family:'Gourmet Hearth';letter-spacing:0.075em"
         d="m 454.04687,60.449219 q 11.71875,0 11.71875,11.71875 0,6.386718 -3.48632,9.287109 L 467.23047,100 h -7.32422 l -4.30664,-16.171875 q -0.76172,0.05859 -1.55274,0.05859 h -4.39453 V 100 h -7.32422 V 60.449219 Z m 4.39454,11.71875 q 0,-4.394532 -4.39454,-4.394532 h -4.39453 V 76.5625 h 4.39453 q 4.39454,0 4.39454,-4.394531 z" />
      <path
         id="path38"
         style="font-family:'Gourmet Hearth';letter-spacing:0.075em"
         d="M 493.9375,94.140625 H 483.80078 L 482.27734,100 h -7.61718 l 10.2539,-39.550781 h 7.91016 L 503.07812,100 h -7.61718 z m -8.23242,-7.324219 h 6.32812 l -3.16406,-12.246094 z" />
      <path
         id="path40"
         style="font-family:'Gourmet Hearth';letter-spacing:0.075em"
         d="M 517.83203,77.5 V 100 h -7.32422 V 60.449219 h 7.91016 l 9.66797,22.5 v -22.5 h 7.32422 V 100 H 527.5 Z" />
      <path
         id="path42"
         style="font-family:'Gourmet Hearth';letter-spacing:0.075em"
         d="m 567.74219,60.449219 v 7.324218 H 551.62891 V 76.5625 h 13.18359 v 7.324219 h -13.18359 v 8.789062 h 16.11328 V 100 h -23.4375 V 60.449219 Z" />
      <path
         id="path44"
         style="font-family:'Gourmet Hearth';letter-spacing:0.075em"
         d="M 594.50781,94.140625 H 584.37109 L 582.84766,100 h -7.61719 l 10.2539,-39.550781 h 7.91016 L 603.64844,100 h -7.61719 z m -8.23242,-7.324219 h 6.32813 l -3.16407,-12.246094 z" />
    </g>
  </g>
</svg>
