<?xml version="1.0" encoding="UTF-8" standalone="no"?>
<svg
   xmlns:dc="http://purl.org/dc/elements/1.1/"
   xmlns:cc="http://creativecommons.org/ns#"
   xmlns:rdf="http://www.w3.org/1999/02/22-rdf-syntax-ns#"
   xmlns:svg="http://www.w3.org/2000/svg"
   xmlns="http://www.w3.org/2000/svg"
   id="svg16"
   width="800px"
   version="1.1"
   height="200px">
  <metadata
     id="metadata20">
    <rdf:RDF>
      <cc:Work
         rdf:about="">
        <dc:format>image/svg+xml</dc:format>
        <dc:type
           rdf:resource="http://purl.org/dc/dcmitype/StillImage" />
      </cc:Work>
    </rdf:RDF>
  </metadata>
  <defs
     id="defs4">
    <style
       id="style2"
       type="text/css"><![CDATA[    
     @font-face {font-family:Gourmet Hearth;
     src: url('/Users/francesco/Repos/write-logos/src/fonts/Fonts_E_TEMPORANEA/GourmetHearthdf.otf');}
     @font-face {font-family:Deadlist;
     src: url('/Users/francesco/Repos/write-logos/src/fonts/Fonts_X/Deadlist.ttf');}
     ]]></style>
  </defs>
  <g
     id="g14"
     style="font-size:60px">
    <g
       style="text-anchor:middle"
       id="text12"
       aria-label="EXTEMPORANEA">
      <path
         id="path22"
         style="font-family:'Gourmet Hearth';letter-spacing:0.075em"
         d="m 218.73437,60.449219 v 7.324218 H 202.62109 V 76.5625 h 13.1836 v 7.324219 h -13.1836 v 8.789062 h 16.11328 V 100 h -23.4375 V 60.449219 Z" />
      <path
         id="path24"
         style="font-family:Deadlist;letter-spacing:0.05em"
         d="m 227.6875,56.44 h 13.44 v 12.42 l 2.4,2.52 v 0.06 q -0.96,0.48 -0.96,0.66 l -0.18,0.24 q 0.18,0 1.32,0.12 l -0.06,0.18 h 0.42 v 0.06 l -0.36,0.12 v 0.06 h 0.66 q 0,0.24 0.78,0.36 h 0.12 v -0.06 q -0.48,-0.3 -0.66,-0.3 v -0.06 q 0.48,-0.12 0.72,-0.12 v -0.06 h -0.18 l 0.12,-0.18 q -1.26,-0.12 -2.34,-0.3 V 72.1 q 0.24,0 2.94,-0.36 v -0.12 q -0.3,0 -0.6,-0.06 v -0.12 q 0.6,0 0.6,-0.36 0.72,-0.12 0.72,-0.36 h 0.18 q 0.3,0 0.48,-0.06 l 0.78,0.18 1.92,-1.98 V 56.44 h 13.38 V 70.3 q -0.54,0.42 -1.44,0.42 l 0.12,0.18 q -0.36,0 -0.54,0.18 l 0.18,0.36 h -0.36 v 0.12 q 0.42,0.06 0.9,0.06 v 0.12 l -2.52,0.36 v 0.06 l 2.7,0.3 v 0.06 h -0.18 v 0.12 h 0.36 v 0.06 q -0.12,0 -0.54,0.12 v 0.06 h 0.54 l -0.12,0.18 0.48,0.12 v 0.06 h -0.18 v 0.12 q 0.42,0 0.78,0.06 v 0.12 q -0.84,0 -1.14,0.24 -0.36,0 -0.36,0.36 h 0.18 v 0.12 q -1.08,0 -1.38,0.42 3.24,0.3 3.96,0.54 v 0.12 q -0.24,0 -0.78,0.18 v 0.06 l 0.36,0.12 v 0.06 l -2.46,0.54 v 0.12 h 0.18 v 0.06 q -0.9,0 -0.9,0.18 0.12,0 0.12,0.12 h -0.36 l 0.06,0.18 h -0.72 v 0.06 q 0.42,0 1.44,0.18 v 0.12 l -0.9,0.06 v 0.12 h 0.48 v 0.06 q -0.36,0 -1.62,0.36 -0.3,0 -0.3,0.18 0.66,0 1.02,0.3 v 0.06 l -0.36,0.12 v 0.18 h 0.18 v 0.06 q -1.62,0 -3.06,0.36 v 0.12 h 0.36 v 0.06 l -0.48,0.12 v 0.06 h 0.66 l -0.18,0.3 q 0.06,0 0.06,0.06 h -0.18 v 0.18 q 0.48,0.18 1.98,0.3 0,0.18 -0.54,0.18 v 0.06 l 1.02,0.18 q 0,0.18 -0.36,0.18 v 0.12 l 0.6,0.06 h 0.36 v 0.18 h 1.02 q 0,0.42 2.76,0.54 V 82 q -0.6,0 -0.9,0.42 h 0.3 l -0.12,0.18 q 0.18,0.12 1.08,0.18 v 0.12 q -0.78,0 -0.78,0.18 0.06,0 0.06,0.06 -0.12,0.12 -0.42,0.12 v 0.06 q 0.36,0 0.36,0.18 -0.12,0 -0.12,0.12 l 0.54,0.06 v 0.12 q -0.36,0 -1.44,0.24 v 0.18 h 0.18 l -0.06,0.18 v 0.12 h 0.36 v 0.06 q -0.3,0 -0.66,0.12 v 0.06 q 0.18,0 1.02,0.3 0,0.18 -0.36,0.18 v 0.06 h 0.18 v 0.12 h -0.18 v 0.06 q 0.96,0 0.96,0.3 v 0.06 l -0.9,-0.24 V 100 h -13.38 V 87.58 q 0,-0.12 -1.44,-1.44 l 0.06,-0.48 v -0.18 h -0.72 q 0,-0.18 -0.24,-0.18 v -0.06 h 0.24 q 0,-0.18 -1.32,-0.48 v -0.18 h 0.24 v -0.06 q -0.18,0 -0.6,-0.3 -0.18,-0.06 -0.3,-0.06 v -0.12 q 0.84,-0.24 1.2,-0.24 v -0.12 q -0.24,0 -0.72,-0.06 l 0.06,-0.18 -0.9,-0.18 0.12,0.18 v 0.06 h -0.18 q 0,0.18 0.36,0.18 v 0.12 q -1.86,0.12 -1.92,0.42 0.12,0 0.12,0.12 -0.3,0 -0.3,0.18 h 0.3 v 0.06 q -0.36,0 -0.84,0.12 v 0.06 q 0.66,0.18 0.66,0.36 l -0.54,0.12 0.06,0.18 h -0.24 v 0.06 h 0.72 q 0,0.24 0.06,0.36 h -0.18 v 0.12 q 0.36,0.06 0.66,0.06 v 0.18 q -0.48,0 -1.02,0.54 -0.3,-0.18 -0.78,-0.18 -0.18,0.12 -0.3,0.12 l 0.3,-0.54 h -0.12 l -1.32,1.44 V 100 h -13.44 V 85.6 h 0.18 v -0.12 h -0.18 l 0.12,-0.18 h -0.18 v -0.06 h 0.36 v -0.18 q -0.9,-0.3 -0.9,-0.3 0,-0.18 0.42,-0.18 v -0.06 h -0.24 l 0.06,-0.18 v -0.12 q -0.24,0 -0.24,-0.18 1.14,-0.24 1.5,-0.24 v -0.12 l -0.54,-0.06 V 83.5 h 0.18 v -0.06 l -0.42,-0.12 v -0.06 l 0.54,-0.12 v -0.06 h -0.18 q 0,-0.18 0.18,-0.18 h 0.9 v -0.12 l -0.48,-0.06 q 0,-0.18 0.3,-0.18 l -0.12,-0.18 q 1.38,-0.36 1.62,-0.36 v -0.12 q -1.5,0 -1.68,-0.54 h -0.66 q 0,-0.24 -0.54,-0.24 v -0.12 q 0.3,0 0.84,-0.06 0,-0.3 -0.66,-0.3 v -0.06 q 0.66,0 1.02,-0.12 v -0.06 l -0.9,-0.12 h -0.18 v -0.18 q 0,-0.12 0.96,-0.42 v -0.12 h -0.36 v -0.06 l 0.84,-0.12 -0.12,-0.18 0.54,-0.18 q 2.46,-0.18 3.36,-0.18 h 0.06 q 0,-0.36 0.72,-0.36 h 0.18 q 0,-0.06 0.12,-0.24 l -1.08,-0.18 v -0.12 q 0.18,0 0.54,-0.18 l -0.12,-0.18 h 0.36 V 77.5 h -0.54 v -0.12 h 0.48 V 77.2 h -0.12 q -1.44,-0.18 -1.86,-0.18 v -0.06 h 0.6 v -0.12 h -0.24 v -0.06 h 0.24 v -0.12 q -0.06,0 -0.72,-0.06 v -0.12 h 0.9 v -0.06 h -0.42 V 76.3 h 0.24 v -0.06 h -0.18 q 0,-0.18 1.26,-0.36 v -0.12 q -0.42,-0.18 -0.78,-0.18 v -0.06 h 0.18 V 75.4 h -0.3 v -0.06 h 0.36 v -0.12 l -5.28,-0.6 V 74.5 h 0.18 v -0.06 h -0.3 v -0.18 h 0.66 v -0.12 q -0.3,0 -0.72,-0.24 h -0.18 v -0.12 h 0.42 v -0.06 l -0.42,-0.12 v -0.06 h 0.78 v -0.12 q -0.12,0 -0.9,-0.06 v -0.12 h 0.18 v -0.06 q -0.72,-0.3 -0.96,-0.3 v -0.06 l 0.54,-0.12 v -0.06 q -0.3,0 -0.3,-0.18 -0.36,0 -2.7,-0.3 V 72.1 q 0.3,0 2.46,-0.36 h 0.06 v -0.12 q -0.3,0 -0.78,-0.06 v -0.12 h 0.36 v -0.06 l -0.18,-0.3 q 0,0 0.36,-0.06 0.18,0.36 1.08,0.36 l 0.42,-0.12 z m 13.26,15.66 v 0.06 q 0.06,0 0.24,0.12 h 0.18 v -0.12 q -0.18,0 -0.36,-0.06 z m 3.96,14.1 h 0.06 q 0.78,0.12 0.9,0.12 v 0.06 h -0.18 v 0.12 h 0.36 v 0.06 h -0.9 q -0.12,0 -0.24,-0.24 z" />
      <path
         id="path26"
         style="font-family:'Gourmet Hearth';letter-spacing:0.075em"
         d="m 293.14844,60.449219 v 7.324218 H 285.0918 V 100 h -7.32422 V 67.773437 h -8.05664 v -7.324218 z" />
      <path
         id="path28"
         style="font-family:'Gourmet Hearth';letter-spacing:0.075em"
         d="m 325.53906,60.449219 v 7.324218 H 309.42578 V 76.5625 h 13.18359 v 7.324219 h -13.18359 v 8.789062 h 16.11328 V 100 h -23.4375 V 60.449219 Z" />
      <path
         id="path30"
         style="font-family:'Gourmet Hearth';letter-spacing:0.075em"
         d="M 341.81641,82.421875 V 100 h -7.32422 V 60.449219 h 8.78906 l 7.32422,28.242187 7.32422,-28.242187 h 8.78906 V 100 h -7.32422 V 82.421875 L 353.53516,100 h -5.85938 z" />
      <path
         id="path32"
         style="font-family:'Gourmet Hearth';letter-spacing:0.075em"
         d="m 391.78516,72.167969 q 0,-4.394532 -4.39454,-4.394532 h -4.39453 V 76.5625 h 4.39453 q 4.39454,0 4.39454,-4.394531 z m -4.39454,-11.71875 q 11.71875,0 11.71875,11.71875 0,11.71875 -11.71875,11.71875 h -4.39453 V 100 h -7.32422 V 60.449219 Z" />
      <path
         id="path34"
         style="font-family:'Gourmet Hearth';letter-spacing:0.075em"
         d="m 408.0625,72.167969 q 0,-11.71875 11.71875,-11.71875 11.71875,0 11.71875,11.71875 V 88.28125 Q 431.5,100 419.78125,100 408.0625,100 408.0625,88.28125 Z m 11.71875,-4.394532 q -4.39453,0 -4.39453,4.394532 V 88.28125 q 0,4.394531 4.39453,4.394531 4.39453,0 4.39453,-4.394531 V 72.167969 q 0,-4.394532 -4.39453,-4.394532 z" />
      <path
         id="path36"
         style="font-family:'Gourmet Hearth';letter-spacing:0.075em"
         d="m 452.17187,60.449219 q 11.71875,0 11.71875,11.71875 0,6.386718 -3.48632,9.287109 L 465.35547,100 h -7.32422 l -4.30664,-16.171875 q -0.76172,0.05859 -1.55274,0.05859 h -4.39453 V 100 h -7.32422 V 60.449219 Z m 4.39454,11.71875 q 0,-4.394532 -4.39454,-4.394532 h -4.39453 V 76.5625 h 4.39453 q 4.39454,0 4.39454,-4.394531 z" />
      <path
         id="path38"
         style="font-family:'Gourmet Hearth';letter-spacing:0.075em"
         d="M 492.0625,94.140625 H 481.92578 L 480.40234,100 h -7.61718 l 10.2539,-39.550781 h 7.91016 L 501.20312,100 h -7.61718 z m -8.23242,-7.324219 h 6.32812 l -3.16406,-12.246094 z" />
      <path
         id="path40"
         style="font-family:'Gourmet Hearth';letter-spacing:0.075em"
         d="M 515.95703,77.5 V 100 h -7.32422 V 60.449219 h 7.91016 l 9.66797,22.5 v -22.5 h 7.32422 V 100 H 525.625 Z" />
      <path
         id="path42"
         style="font-family:'Gourmet Hearth';letter-spacing:0.075em"
         d="m 565.86719,60.449219 v 7.324218 H 549.75391 V 76.5625 h 13.18359 v 7.324219 h -13.18359 v 8.789062 h 16.11328 V 100 h -23.4375 V 60.449219 Z" />
      <path
         id="path44"
         style="font-family:'Gourmet Hearth';letter-spacing:0.075em"
         d="M 592.63281,94.140625 H 582.49609 L 580.97266,100 h -7.61719 l 10.2539,-39.550781 h 7.91016 L 601.77344,100 h -7.61719 z m -8.23242,-7.324219 h 6.32813 l -3.16407,-12.246094 z" />
    </g>
  </g>
</svg>
