<?xml version="1.0" encoding="UTF-8" standalone="no"?>
<svg
   xmlns:dc="http://purl.org/dc/elements/1.1/"
   xmlns:cc="http://creativecommons.org/ns#"
   xmlns:rdf="http://www.w3.org/1999/02/22-rdf-syntax-ns#"
   xmlns:svg="http://www.w3.org/2000/svg"
   xmlns="http://www.w3.org/2000/svg"
   id="svg16"
   width="800px"
   version="1.1"
   height="200px">
  <metadata
     id="metadata20">
    <rdf:RDF>
      <cc:Work
         rdf:about="">
        <dc:format>image/svg+xml</dc:format>
        <dc:type
           rdf:resource="http://purl.org/dc/dcmitype/StillImage" />
      </cc:Work>
    </rdf:RDF>
  </metadata>
  <defs
     id="defs4">
    <style
       id="style2"
       type="text/css"><![CDATA[    
     @font-face {font-family:Gourmet Hearth;
     src: url('/Users/francesco/Repos/write-logos/src/fonts/Fonts_E_TEMPORANEA/GourmetHearthdf.otf');}
     @font-face {font-family:Pirata One;
     src: url('/Users/francesco/Repos/write-logos/src/fonts/Fonts_X/PirataOne-Regular.ttf');}
     ]]></style>
  </defs>
  <g
     id="g14"
     style="font-size:60px">
    <g
       style="text-anchor:middle"
       id="text12"
       aria-label="EXTEMPORANEA">
      <path
         id="path22"
         style="font-family:'Gourmet Hearth';letter-spacing:0.075em"
         d="m 224.59375,60.449219 v 7.324218 H 208.48047 V 76.5625 h 13.18359 v 7.324219 h -13.18359 v 8.789062 h 16.11328 V 100 h -23.4375 V 60.449219 Z" />
      <path
         id="path24"
         style="font-family:'Pirata One';letter-spacing:0.05em"
         d="m 234.86687,58.72 v -1.26 l 6.24,-3.66 h 2.34 l 6.54,19.44 1.32,-0.6 V 62.5 q 0,-1.74 -0.6,-2.7 -0.6,-1.02 -1.2,-1.2 l -0.66,-0.12 v -1.32 l 5.76,-3.42 q 0.48,0 2.04001,1.38 1.56,1.32 1.56,2.52 V 72.4 q 0,1.02 -7.32001,3.66 l 5.88001,17.7 q 0.29999,0.84 1.14,1.08 0.89999,0.18 2.63999,0.18 v 1.32 l -6.54,3.66 h -2.64 l -6.95999,-21 -1.26001,0.6 v 11.64 q 0,1.74 0.6,2.76 0.6,0.96 1.2,1.08 l 0.66,0.18 v 1.32 l -5.76,3.42 q -0.48,0 -2.04,-1.32 -1.56,-1.38 -1.56,-2.58 V 79.84 q 0,-0.48 2.46,-1.62 2.46,-1.2 4.74,-2.04 l -5.16,-15.54 q -0.3,-0.9 -0.9,-1.32 -0.6,-0.48 -1.08,-0.54 -0.48,-0.06 -1.44,-0.06 z" />
      <path
         id="path26"
         style="font-family:'Gourmet Hearth';letter-spacing:0.075em"
         d="m 287.28906,60.449219 v 7.324218 h -8.05664 V 100 H 271.9082 V 67.773437 h -8.05664 v -7.324218 z" />
      <path
         id="path28"
         style="font-family:'Gourmet Hearth';letter-spacing:0.075em"
         d="m 319.67969,60.449219 v 7.324218 H 303.56641 V 76.5625 H 316.75 v 7.324219 h -13.18359 v 8.789062 h 16.11328 V 100 h -23.4375 V 60.449219 Z" />
      <path
         id="path30"
         style="font-family:'Gourmet Hearth';letter-spacing:0.075em"
         d="M 335.95703,82.421875 V 100 h -7.32422 V 60.449219 h 8.78906 l 7.32422,28.242187 7.32422,-28.242187 h 8.78906 V 100 h -7.32421 V 82.421875 L 347.67578,100 h -5.85937 z" />
      <path
         id="path32"
         style="font-family:'Gourmet Hearth';letter-spacing:0.075em"
         d="m 385.92578,72.167969 q 0,-4.394532 -4.39453,-4.394532 h -4.39453 V 76.5625 h 4.39453 q 4.39453,0 4.39453,-4.394531 z m -4.39453,-11.71875 q 11.71875,0 11.71875,11.71875 0,11.71875 -11.71875,11.71875 h -4.39453 V 100 H 369.8125 V 60.449219 Z" />
      <path
         id="path34"
         style="font-family:'Gourmet Hearth';letter-spacing:0.075em"
         d="m 402.20312,72.167969 q 0,-11.71875 11.71875,-11.71875 11.71875,0 11.71875,11.71875 V 88.28125 Q 425.64062,100 413.92187,100 402.20312,100 402.20312,88.28125 Z m 11.71875,-4.394532 q -4.39453,0 -4.39453,4.394532 V 88.28125 q 0,4.394531 4.39453,4.394531 4.39454,0 4.39454,-4.394531 V 72.167969 q 0,-4.394532 -4.39454,-4.394532 z" />
      <path
         id="path36"
         style="font-family:'Gourmet Hearth';letter-spacing:0.075em"
         d="m 446.3125,60.449219 q 11.71875,0 11.71875,11.71875 0,6.386718 -3.48633,9.287109 L 459.49609,100 h -7.32422 l -4.30664,-16.171875 q -0.76171,0.05859 -1.55273,0.05859 h -4.39453 V 100 h -7.32422 V 60.449219 Z m 4.39453,11.71875 q 0,-4.394532 -4.39453,-4.394532 h -4.39453 V 76.5625 h 4.39453 q 4.39453,0 4.39453,-4.394531 z" />
      <path
         id="path38"
         style="font-family:'Gourmet Hearth';letter-spacing:0.075em"
         d="M 486.20312,94.140625 H 476.06641 L 474.54297,100 h -7.61719 l 10.25391,-39.550781 h 7.91015 L 495.34375,100 h -7.61719 z m -8.23242,-7.324219 h 6.32813 l -3.16406,-12.246094 z" />
      <path
         id="path40"
         style="font-family:'Gourmet Hearth';letter-spacing:0.075em"
         d="M 510.09766,77.5 V 100 h -7.32422 V 60.449219 h 7.91015 l 9.66797,22.5 v -22.5 h 7.32422 V 100 h -7.91016 z" />
      <path
         id="path42"
         style="font-family:'Gourmet Hearth';letter-spacing:0.075em"
         d="m 560.00781,60.449219 v 7.324218 H 543.89453 V 76.5625 h 13.18359 v 7.324219 h -13.18359 v 8.789062 h 16.11328 V 100 h -23.4375 V 60.449219 Z" />
      <path
         id="path44"
         style="font-family:'Gourmet Hearth';letter-spacing:0.075em"
         d="M 586.77344,94.140625 H 576.63672 L 575.11328,100 h -7.61719 L 577.75,60.449219 h 7.91016 L 595.91406,100 h -7.61719 z m -8.23242,-7.324219 h 6.32812 l -3.16406,-12.246094 z" />
    </g>
  </g>
</svg>
