<?xml version="1.0" encoding="UTF-8" standalone="no"?>
<svg
   xmlns:dc="http://purl.org/dc/elements/1.1/"
   xmlns:cc="http://creativecommons.org/ns#"
   xmlns:rdf="http://www.w3.org/1999/02/22-rdf-syntax-ns#"
   xmlns:svg="http://www.w3.org/2000/svg"
   xmlns="http://www.w3.org/2000/svg"
   id="svg16"
   width="800px"
   version="1.1"
   height="200px">
  <metadata
     id="metadata20">
    <rdf:RDF>
      <cc:Work
         rdf:about="">
        <dc:format>image/svg+xml</dc:format>
        <dc:type
           rdf:resource="http://purl.org/dc/dcmitype/StillImage" />
      </cc:Work>
    </rdf:RDF>
  </metadata>
  <defs
     id="defs4">
    <style
       id="style2"
       type="text/css"><![CDATA[    
     @font-face {font-family:Gourmet Hearth;
     src: url('/Users/francesco/Repos/write-logos/src/fonts/Fonts_E_TEMPORANEA/GourmetHearthdf.otf');}
     @font-face {font-family:Rise From The Grave;
     src: url('/Users/francesco/Repos/write-logos/src/fonts/Fonts_X/RiseFro.ttf');}
     ]]></style>
  </defs>
  <g
     id="g14"
     style="font-size:60px">
    <g
       style="text-anchor:middle"
       id="text12"
       aria-label="EXTEMPORANEA">
      <path
         id="path22"
         style="font-family:'Gourmet Hearth';letter-spacing:0.075em"
         d="m 218.85156,60.449219 v 7.324218 H 202.73828 V 76.5625 h 13.18359 v 7.324219 h -13.18359 v 8.789062 h 16.11328 V 100 h -23.4375 V 60.449219 Z" />
      <path
         id="path24"
         style="font-family:'Rise From The Grave';letter-spacing:0.05em"
         d="m 245.32469,57.94 q 0,5.94 -3.3,5.94 -1.62,0 -2.58,-1.44 -0.9,-1.26 -0.9,-3.06 0,-1.8 1.38,-3 1.5,-1.2 3.42,-1.2 1.98,0 1.98,2.76 z m 21.72,0.12 q 0,0.96 -1.02,1.86 -0.66,0.6 -1.08,1.02 -0.36,0.42 -0.48,0.66 -0.24,0.36 -1.8,4.08 -0.9,2.16 -2.1,3.72 -0.6,0.54 -1.14,1.08 -0.54,0.54 -1.14,1.08 -1.14,1.14 -1.14,2.46 0,0.6 0.72,0.96 0.54,0.3 0.84,0.48 0.3,0.18 0.36,0.24 2.22,2.22 2.22,5.82 0,1.5 -0.72,3 -1.2,2.76 -1.26,2.82 -0.12,0.42 -0.3,0.78 -0.12,0.36 -0.24,0.78 -0.3,0.84 -1.02,0.84 -0.78,0 -1.26,-0.84 -0.24,-0.48 -0.42,-0.9 -0.18,-0.42 -0.36,-0.9 -0.36,-0.6 -0.72,-1.14 -0.36,-0.54 -0.72,-1.14 -0.72,-1.14 -0.72,-2.34 0,-1.08 0.96,-3.6 V 76.9 q -0.06,0 -0.3,-0.12 -0.24,-0.12 -0.3,-0.12 -1.5,0 -2.64,0.96 -0.12,0.12 -0.66,0.66 -0.54,0.54 -1.44,1.56 1.2,1.74 1.2,3 0,1.92 -1.56,4.02 -2.1,2.82 -2.52,3.84 -0.12,0.3 -1.26,4.14 -0.6,2.1 -1.92,3.6 -1.74,1.92 -4.14,2.52 -1.5,0.42 -5.04,0.42 h -3.36 q -0.6,-0.54 -1.14,-1.14 -0.6,-0.6 -0.6,-1.32 0,-2.04 1.86,-3.36 0.9,-0.66 1.86,-1.2 0.96,-0.54 1.86,-1.2 1.26,-0.9 2.16,-2.58 1.44,-2.58 1.74,-3 0.66,-1.02 1.32,-2.1 0.66,-1.08 1.32,-2.1 1.38,-2.22 3.36,-3.3 0.18,-0.12 0.84,-0.3 0.66,-0.18 1.8,-0.48 1.5,-0.36 1.5,-1.38 0,-0.24 -0.24,-0.48 -0.24,-0.24 -0.24,-0.54 v -2.88 q 0,-0.96 0.66,-1.98 1.2,-1.62 1.26,-1.86 1.2,-2.4 2.46,-4.38 1.32,-2.04 2.88,-3.6 0.78,-0.84 1.2,-2.34 0.24,-0.9 0.48,-1.5 0.24,-0.66 0.48,-1.02 0.6,-0.9 1.98,-1.38 0.66,-0.24 1.32,-0.42 0.66,-0.18 1.32,-0.36 0.18,-0.06 0.54,-0.3 0.36,-0.24 0.96,-0.66 0.78,-0.54 1.62,-0.54 1.92,0 1.92,1.98 z m -34.56,3.12 q 0,1.98 -1.68,1.98 -1.26,0 -1.26,-1.38 0,-0.66 0.6,-1.08 0.3,-0.24 0.54,-0.48 0.3,-0.24 0.6,-0.48 h 0.96 q 0.24,0.96 0.24,1.44 z m 36.06,35.82 q 0,3.9 -8.52,3.9 -2.52,0 -4.44,-1.38 -2.04,-1.5 -2.04,-3.84 0,-1.98 2.22,-2.76 1.08,-0.42 2.16,-0.72 1.08,-0.36 2.1,-0.78 0.72,-0.42 2.46,-2.22 1.26,-1.38 2.64,-1.38 2.16,0 2.16,2.88 v 3.18 q 0,0.66 0.6,1.5 0.66,1.02 0.66,1.62 z" />
      <path
         id="path26"
         style="font-family:'Gourmet Hearth';letter-spacing:0.075em"
         d="m 293.03125,60.449219 v 7.324218 h -8.05664 V 100 h -7.32422 V 67.773437 h -8.05664 v -7.324218 z" />
      <path
         id="path28"
         style="font-family:'Gourmet Hearth';letter-spacing:0.075em"
         d="m 325.42187,60.449219 v 7.324218 H 309.30859 V 76.5625 h 13.1836 v 7.324219 h -13.1836 v 8.789062 h 16.11328 V 100 h -23.4375 V 60.449219 Z" />
      <path
         id="path30"
         style="font-family:'Gourmet Hearth';letter-spacing:0.075em"
         d="M 341.69922,82.421875 V 100 H 334.375 V 60.449219 h 8.78906 l 7.32422,28.242187 7.32422,-28.242187 h 8.78906 V 100 h -7.32422 V 82.421875 L 353.41797,100 h -5.85938 z" />
      <path
         id="path32"
         style="font-family:'Gourmet Hearth';letter-spacing:0.075em"
         d="m 391.66797,72.167969 q 0,-4.394532 -4.39453,-4.394532 h -4.39453 V 76.5625 h 4.39453 q 4.39453,0 4.39453,-4.394531 z m -4.39453,-11.71875 q 11.71875,0 11.71875,11.71875 0,11.71875 -11.71875,11.71875 h -4.39453 V 100 h -7.32422 V 60.449219 Z" />
      <path
         id="path34"
         style="font-family:'Gourmet Hearth';letter-spacing:0.075em"
         d="m 407.94531,72.167969 q 0,-11.71875 11.71875,-11.71875 11.71875,0 11.71875,11.71875 V 88.28125 Q 431.38281,100 419.66406,100 407.94531,100 407.94531,88.28125 Z m 11.71875,-4.394532 q -4.39453,0 -4.39453,4.394532 V 88.28125 q 0,4.394531 4.39453,4.394531 4.39453,0 4.39453,-4.394531 V 72.167969 q 0,-4.394532 -4.39453,-4.394532 z" />
      <path
         id="path36"
         style="font-family:'Gourmet Hearth';letter-spacing:0.075em"
         d="m 452.05469,60.449219 q 11.71875,0 11.71875,11.71875 0,6.386718 -3.48633,9.287109 L 465.23828,100 h -7.32422 l -4.30664,-16.171875 q -0.76172,0.05859 -1.55273,0.05859 h -4.39453 V 100 h -7.32422 V 60.449219 Z m 4.39453,11.71875 q 0,-4.394532 -4.39453,-4.394532 h -4.39453 V 76.5625 h 4.39453 q 4.39453,0 4.39453,-4.394531 z" />
      <path
         id="path38"
         style="font-family:'Gourmet Hearth';letter-spacing:0.075em"
         d="M 491.94531,94.140625 H 481.80859 L 480.28516,100 h -7.61719 l 10.2539,-39.550781 h 7.91016 L 501.08594,100 h -7.61719 z m -8.23242,-7.324219 h 6.32813 l -3.16407,-12.246094 z" />
      <path
         id="path40"
         style="font-family:'Gourmet Hearth';letter-spacing:0.075em"
         d="M 515.83984,77.5 V 100 h -7.32422 V 60.449219 h 7.91016 l 9.66797,22.5 v -22.5 h 7.32422 V 100 h -7.91016 z" />
      <path
         id="path42"
         style="font-family:'Gourmet Hearth';letter-spacing:0.075em"
         d="m 565.75,60.449219 v 7.324218 H 549.63672 V 76.5625 h 13.18359 v 7.324219 h -13.18359 v 8.789062 H 565.75 V 100 H 542.3125 V 60.449219 Z" />
      <path
         id="path44"
         style="font-family:'Gourmet Hearth';letter-spacing:0.075em"
         d="M 592.51562,94.140625 H 582.37891 L 580.85547,100 h -7.61719 l 10.25391,-39.550781 h 7.91015 L 601.65625,100 h -7.61719 z m -8.23242,-7.324219 h 6.32813 l -3.16406,-12.246094 z" />
    </g>
  </g>
</svg>
