<?xml version="1.0" encoding="UTF-8" standalone="no"?>
<svg
   xmlns:dc="http://purl.org/dc/elements/1.1/"
   xmlns:cc="http://creativecommons.org/ns#"
   xmlns:rdf="http://www.w3.org/1999/02/22-rdf-syntax-ns#"
   xmlns:svg="http://www.w3.org/2000/svg"
   xmlns="http://www.w3.org/2000/svg"
   id="svg10"
   width="500px"
   version="1.1"
   height="200px">
  <metadata
     id="metadata14">
    <rdf:RDF>
      <cc:Work
         rdf:about="">
        <dc:format>image/svg+xml</dc:format>
        <dc:type
           rdf:resource="http://purl.org/dc/dcmitype/StillImage" />
      </cc:Work>
    </rdf:RDF>
  </metadata>
  <defs
     id="defs4">
    <style
       id="style2"
       type="text/css"><![CDATA[    
     @font-face {font-family:GREEN HOME;
     src: url('/Users/francesco/Repos/write-logos/src/fonts//GREEN_HOME_Demo.ttf');}]]></style>
  </defs>
  <g
     id="g8"
     style="font-size:30px;font-family:'GREEN HOME'">
    <g
       style=""
       id="text6"
       aria-label="eXtemporanea">
      <path
         id="path16"
         style=""
         d="m 107.33887,99.223633 v 0 0.688476 h -6.89942 v 0 -0.688476 -19.467774 -0.688476 0 h 6.89942 v 0.688476 h -6.19629 v 3.823243 h 4.35058 V 84.0625 h -4.35058 v 15.161133 z" />
      <path
         id="path18"
         style=""
         d="m 108.23242,99.912109 v 0 l 5.50781,-12.832031 -3.19335,-8.012695 h 0.74707 l 2.84179,7.104492 3.04688,-7.104492 h 0.76172 l -3.45704,8.012695 5.12696,12.832031 h -0.74707 l -4.76074,-11.923828 -5.12696,11.923828 z" />
      <path
         id="path20"
         style=""
         d="m 124.7998,99.912109 v 0 -20.15625 h -4.32128 v -0.688476 h 9.3457 v 0.688476 h -4.32129 v 20.15625 z" />
      <path
         id="path22"
         style=""
         d="m 137.63184,99.223633 v 0 0.688476 h -6.89942 v 0 -0.688476 -19.467774 -0.688476 0 h 6.89942 v 0.688476 h -6.19629 v 3.823243 h 4.35058 V 84.0625 h -4.35058 v 15.161133 z" />
      <path
         id="path24"
         style=""
         d="m 139.66797,82.407227 v 0 17.504882 h -0.70313 V 79.067383 h 0.35157 0.35156 l 3.38379,16.098633 3.41308,-16.098633 h 0.35157 0.35156 v 20.844726 h -0.68848 V 82.37793 l -3.07617,14.472656 h -0.70312 z" />
      <path
         id="path26"
         style=""
         d="m 149.61426,89.482422 v 0 10.429687 h -0.68848 V 79.067383 h 0.68848 q 1.37695,0.102539 2.47558,0.820312 1.09864,0.717774 1.74317,1.875 0.64453,1.142578 0.64453,2.519532 0,1.376953 -0.64453,2.534179 -0.64453,1.142578 -1.74317,1.860352 -1.09863,0.703125 -2.47558,0.805664 z m 0,-9.697266 v 0 9.008789 q 1.18652,-0.102539 2.12402,-0.717773 0.9375,-0.629883 1.49414,-1.611328 0.55664,-0.996094 0.55664,-2.182617 0,-1.186524 -0.55664,-2.167969 -0.55664,-0.996094 -1.49414,-1.611328 -0.9375,-0.615235 -2.12402,-0.717774 z" />
      <path
         id="path28"
         style=""
         d="m 158.53516,99.912109 v 0 q -1.43555,0 -2.16797,-1.186523 -0.32227,-0.556641 -0.42481,-1.157227 -0.10254,-0.600586 -0.10254,-1.069336 V 82.46582 q 0,-1.655273 0.62989,-2.460937 0.71777,-0.9375 2.22656,-0.9375 1.43555,0 2.16797,1.186523 0.32226,0.556641 0.4248,1.157227 0.10254,0.600586 0.10254,1.054687 v 14.033203 q 0,1.655274 -0.62988,2.475586 -0.71777,0.9375 -2.22656,0.9375 z M 156.52832,82.46582 v 0 14.033203 q 0,0.307618 0.0586,0.776368 0.0733,0.454101 0.26368,0.893554 0.20507,0.439453 0.60058,0.747071 0.41016,0.292968 1.08399,0.292968 1.18652,0 1.66992,-0.659179 0.49804,-0.629883 0.49804,-2.050782 V 82.46582 q 0,-0.307617 -0.0732,-0.761718 -0.0586,-0.454102 -0.26367,-0.893555 -0.19043,-0.439453 -0.60059,-0.74707 -0.3955,-0.307618 -1.06933,-0.307618 -1.18652,0 -1.66992,0.673828 -0.49805,0.629883 -0.49805,2.036133 z" />
      <path
         id="path30"
         style=""
         d="m 163.85254,90.141602 v 0 9.770507 h -0.68848 V 79.067383 h 0.68848 v 0.01465 q 1.37695,0.102539 2.46094,0.820313 1.09863,0.703125 1.74316,1.860351 0.65918,1.142578 0.65918,2.519532 0,1.30371 -0.58594,2.402343 -0.58593,1.098633 -1.58203,1.831055 -0.98144,0.717773 -2.25586,0.922852 l 4.7461,10.532226 h -0.79102 z m 0,-10.356446 v 0 9.008789 q 1.17187,-0.102539 2.10937,-0.717773 0.95215,-0.629883 1.50879,-1.611328 0.55664,-0.996094 0.55664,-2.182617 0,-1.186524 -0.55664,-2.167969 -0.55664,-0.996094 -1.50879,-1.611328 -0.9375,-0.615235 -2.10937,-0.717774 z" />
      <path
         id="path32"
         style=""
         d="m 170.50293,86.904297 v 0 13.007812 h -0.68848 V 82.46582 q 0,-1.669922 0.80567,-2.490234 0.84961,-0.908203 2.72461,-0.908203 1.77246,0 2.66601,1.157226 0.41016,0.556641 0.54199,1.171875 0.13184,0.615235 0.13184,1.069336 v 17.446289 h -0.68848 V 82.46582 q 0,-0.380859 -0.10254,-0.834961 -0.0879,-0.46875 -0.36621,-0.893554 -0.26367,-0.424805 -0.79101,-0.703125 -0.52735,-0.278321 -1.3916,-0.278321 -1.56739,0 -2.22657,0.703125 -0.61523,0.615235 -0.61523,2.006836 v 3.955078 h 4.2041 v 0.483399 z" />
      <path
         id="path34"
         style=""
         d="m 178.67676,82.041016 v 17.871093 h -0.68848 V 79.067383 h 0.70313 l 4.23339,17.871094 V 79.067383 h 0.68848 v 20.844726 h -0.70312 l -4.2334,-17.871093 z" />
      <path
         id="path36"
         style=""
         d="m 191.83105,99.223633 v 0 0.688476 h -6.89941 v 0 -0.688476 -19.467774 -0.688476 0 h 6.89941 v 0.688476 h -6.19628 v 3.823243 h 4.35058 V 84.0625 h -4.35058 v 15.161133 z" />
      <path
         id="path38"
         style=""
         d="m 193.41309,86.904297 v 0 13.007812 h -0.68848 V 82.46582 q 0,-1.669922 0.80566,-2.490234 0.84961,-0.908203 2.72461,-0.908203 1.77246,0 2.66602,1.157226 0.41015,0.556641 0.54199,1.171875 0.13184,0.615235 0.13184,1.069336 v 17.446289 h -0.68848 V 82.46582 q 0,-0.380859 -0.10254,-0.834961 -0.0879,-0.46875 -0.36621,-0.893554 -0.26367,-0.424805 -0.79102,-0.703125 -0.52734,-0.278321 -1.3916,-0.278321 -1.56738,0 -2.22656,0.703125 -0.61523,0.615235 -0.61523,2.006836 v 3.955078 h 4.2041 v 0.483399 z" />
    </g>
  </g>
</svg>
