<?xml version="1.0" encoding="UTF-8" standalone="no"?>
<svg
   xmlns:dc="http://purl.org/dc/elements/1.1/"
   xmlns:cc="http://creativecommons.org/ns#"
   xmlns:rdf="http://www.w3.org/1999/02/22-rdf-syntax-ns#"
   xmlns:svg="http://www.w3.org/2000/svg"
   xmlns="http://www.w3.org/2000/svg"
   id="svg16"
   width="800px"
   version="1.1"
   height="200px">
  <metadata
     id="metadata20">
    <rdf:RDF>
      <cc:Work
         rdf:about="">
        <dc:format>image/svg+xml</dc:format>
        <dc:type
           rdf:resource="http://purl.org/dc/dcmitype/StillImage" />
      </cc:Work>
    </rdf:RDF>
  </metadata>
  <defs
     id="defs4">
    <style
       id="style2"
       type="text/css"><![CDATA[    
     @font-face {font-family:Hallo Bernad;
     src: url('/Users/francesco/Repos/write-logos/src/fonts/Hallo_Bernad.ttf');}
     @font-face {font-family:Adine Kirnberg;
     src: url('/Users/francesco/Repos/write-logos/src/fonts/Adine_Kirnberg.ttf');}
     ]]></style>
  </defs>
  <g
     id="g14"
     style="font-size:60px">
    <g
       style="text-anchor:middle"
       id="text12"
       aria-label="eXtemporanea">
      <path
         id="path22"
         style="font-family:'Hallo Bernad'"
         d="m 217.74414,68.916016 v 0 q 0.79102,-4.013672 2.57813,-5.830079 1.7871,-1.845703 5.33203,-2.285156 4.54101,-0.673828 9.08203,-0.351562 0.67383,0.08789 0.99609,1.113281 0.35156,1.025391 0.35156,2.490234 0,1.113282 -0.32226,2.109375 -0.32227,0.996094 -1.05469,1.054688 -0.67383,0.0293 -1.11328,0 -0.38086,0 -0.76172,0 -0.35156,0 -0.84961,0.05859 -1.64062,0.117187 -2.72461,0.673828 -1.55273,0.878906 -2.40234,2.783203 -0.82031,1.904297 -1.11328,4.072265 -0.29297,2.138672 -0.20508,3.75 2.43164,-0.08789 4.83398,-0.117187 2.40235,-0.0293 3.66211,0.05859 0.67383,0.05859 0.90821,1.054687 0.26367,0.996094 0.26367,2.490235 0.0293,1.142578 -0.20508,1.845703 -0.20508,0.673828 -0.9082,0.732422 -1.20118,0 -2.46094,0.0293 -3.60352,0.0293 -6.21094,0.175782 0.17578,5.097656 0.87891,7.96875 0.32226,1.142578 1.31836,1.376953 0.99609,0.205078 2.46093,0.146484 1.14258,-0.05859 2.51954,-0.175781 1.28906,-0.08789 2.37304,-0.146484 0.73242,0.05859 1.05469,1.083984 0.32227,1.025391 0.35156,2.226562 0,2.167969 -0.70312,2.25586 -1.58203,0.292969 -3.60352,0.380859 -1.99219,0.08789 -3.57422,0.0293 -3.7207,-0.05859 -5.80078,-1.083984 -2.08008,-1.054688 -3.16406,-3.19336 -1.05469,-2.167968 -1.75781,-5.595703 -2.10938,-10.546875 -0.0293,-21.18164 z" />
      <path
         id="path24"
         style="font-family:'Adine Kirnberg'"
         d="m 267.14266,64.48 q -3.24,-1.98 -7.26,-1.98 -4.56,0 -7.68,2.22 -2.7,1.86 -4.38,4.8 -1.8,3.06 -1.8,6.24 0,0.3 0,0.78 0.06,0.42 0.12,1.02 0.78,2.76 3.36,4.08 1.98,0.6 3.6,0.6 2.04,0 3.36,-0.78 5.58,-3.3 5.58,-7.8 0,-0.6 -0.18,-1.44 -0.48,-1.44 -2.58,-1.44 -1.02,0 -1.8,0.18 -2.58,1.2 -2.64,3.36 0.24,-0.54 1.08,-1.38 1.14,-1.14 2.16,-1.14 1.62,0 2.64,1.44 0.36,0.9 0.36,1.92 0,1.14 -0.78,2.46 -0.96,1.62 -3.06,2.52 -2.04,0.9 -4.08,0.9 h -0.9 q -2.82,-1.02 -4.26,-3.72 -0.6,-1.38 -0.6,-3.18 0,-3.78 2.52,-6.66 3.48,-3.96 9.12,-3.96 2.58,0 4.68,0.78 l 3.54,2.7 q 1.74,1.68 2.28,3.66 0.12,1.2 0.18,2.16 0.12,0.9 0.12,1.62 0,5.82 -3.06,12 -3.3,6.48 -7.92,9.42 -5.82,3.66 -10.08,3.66 -3.24,0 -5.28,-1.68 -0.96,-0.96 -0.96,-2.1 0,-1.14 1.02,-1.8 0.18,-0.06 0.48,0 0.36,0.06 0.66,0.24 0.3,0.12 0.6,0.24 0.3,0.06 0.48,0.06 0,-1.26 -1.32,-2.16 -2.16,-0.18 -3.42,1.32 -0.36,0.72 -0.36,1.44 0,1.92 2.28,3.84 2.88,1.08 5.58,1.08 8.16,0 17.1,-9.36 0,6.06 2.4,7.92 2.34,1.08 4.8,1.08 2.88,0 4.44,-1.32 7.68,-6.24 7.68,-11.76 0,-0.84 -0.3,-2.16 -1.08,-2.52 -3.06,-2.52 -0.36,0 -0.72,0.18 -3,0 -5.04,4.2 0.12,0.06 0.3,0.06 0.24,0 0.36,-0.66 0.96,-2.04 3.54,-2.04 0.24,0 0.6,0.06 0.36,0 0.84,0.06 1.32,0.6 1.98,2.4 0.3,1.38 0.3,2.1 0,4.68 -4.86,8.16 -2.94,2.1 -5.28,2.1 -1.32,0 -2.46,-0.54 -2.04,0 -3.06,-2.82 0,-9.78 4.8,-18.3 4.86,-8.52 13.38,-13.02 -9.24,3.9 -14.16,10.86 0,-1.14 -0.42,-2.58 -0.3,-1.08 -0.42,-1.68 -0.12,-0.66 -0.18,-0.9 -0.42,-0.66 -0.84,-1.38 -0.42,-0.72 -0.9,-1.38 -1.2,-1.68 -2.22,-2.28 z m 21.66,-1.44 q 0.36,-0.12 0.6,-0.12 0.3,-0.06 0.54,-0.12 -0.24,-0.06 -1.14,0.24 z m -2.04,0.6 q 0.9,-0.18 1.56,-0.42 -0.78,-0.06 -1.56,0.42 z" />
      <path
         id="path26"
         style="font-family:'Hallo Bernad'"
         d="m 286.47461,67.363281 v 0 q -0.35156,-1.113281 -0.43945,-2.578125 -0.0586,-1.49414 0.23437,-2.666015 0.32227,-1.201172 1.14258,-1.201172 14.67773,-0.761719 29.61914,0 0.79102,0 1.08398,1.142578 0.32227,1.113281 0.26368,2.548828 -0.0293,1.435547 -0.35157,2.548828 -0.23437,0.908203 -0.79101,1.083984 -0.52735,0.175782 -1.49414,0.08789 -0.23438,0 -0.46875,0 -4.33594,-0.146484 -8.67188,-0.205078 0,3.867187 0.0293,8.085937 0.0879,12.890625 -0.0586,22.646485 -0.0293,0.585937 -0.55665,0.849609 -0.52734,0.234375 -1.23046,0.292969 -0.70313,0.0293 -1.31836,0.0293 -0.26368,0 -0.46875,0 -0.61524,0.0293 -1.49414,0 -0.84961,-0.0293 -1.55274,-0.205081 -0.70312,-0.205078 -0.84961,-0.644532 -0.99609,-5.478515 -1.25976,-14.355468 -0.23438,-8.876953 0.38086,-16.728516 -4.7168,0.05859 -9.49219,0.234375 -0.0293,0 -0.0586,0 -0.96679,0.05859 -1.49414,-0.08789 -0.49804,-0.146484 -0.70312,-0.878906 z" />
      <path
         id="path28"
         style="font-family:'Hallo Bernad'"
         d="m 321.80664,68.916016 v 0 q 0.79102,-4.013672 2.57813,-5.830079 1.7871,-1.845703 5.33203,-2.285156 4.54101,-0.673828 9.08203,-0.351562 0.67383,0.08789 0.99609,1.113281 0.35156,1.025391 0.35156,2.490234 0,1.113282 -0.32226,2.109375 -0.32227,0.996094 -1.05469,1.054688 -0.67383,0.0293 -1.11328,0 -0.38086,0 -0.76172,0 -0.35156,0 -0.84961,0.05859 -1.64062,0.117187 -2.72461,0.673828 -1.55273,0.878906 -2.40234,2.783203 -0.82031,1.904297 -1.11328,4.072265 -0.29297,2.138672 -0.20508,3.75 2.43164,-0.08789 4.83398,-0.117187 2.40235,-0.0293 3.66211,0.05859 0.67383,0.05859 0.90821,1.054687 0.26367,0.996094 0.26367,2.490235 0.0293,1.142578 -0.20508,1.845703 -0.20508,0.673828 -0.9082,0.732422 -1.20118,0 -2.46094,0.0293 -3.60352,0.0293 -6.21094,0.175782 0.17578,5.097656 0.87891,7.96875 0.32226,1.142578 1.31836,1.376953 0.99609,0.205078 2.46093,0.146484 1.14258,-0.05859 2.51954,-0.175781 1.28906,-0.08789 2.37304,-0.146484 0.73242,0.05859 1.05469,1.083984 0.32227,1.025391 0.35156,2.226562 0,2.167969 -0.70312,2.25586 -1.58203,0.292969 -3.60352,0.380859 -1.99219,0.08789 -3.57422,0.0293 -3.7207,-0.05859 -5.80078,-1.083984 -2.08008,-1.054688 -3.16406,-3.19336 -1.05469,-2.167968 -1.75781,-5.595703 -2.10938,-10.546875 -0.0293,-21.18164 z" />
      <path
         id="path30"
         style="font-family:'Hallo Bernad'"
         d="m 376.09375,61.240234 v 0 q 0.79102,7.265625 0.73242,19.013672 -0.0586,11.748047 -0.73242,18.925781 -0.0879,0.644532 -0.82031,0.761719 -0.70313,0.117184 -1.58203,0.08789 -0.0586,0 -0.0879,0 -0.20508,0 -0.46875,0 -0.90821,0.0293 -1.9336,-0.146488 -1.02539,-0.175781 -1.17187,-1.02539 -0.38086,-4.59961 -0.52735,-10.458985 l -0.0586,-9.492187 q 0.0293,-3.691406 0.11719,-7.236328 -1.05469,1.02539 -3.31055,3.134765 -2.25586,2.109375 -3.80859,3.369141 -0.70313,0.556641 -1.17188,0.556641 -0.46875,-0.0293 -1.20117,-0.585938 -1.25977,-0.908203 -3.07617,-2.636719 -1.78711,-1.728515 -3.19336,-3.105468 -0.49805,-0.498047 -0.87891,-0.84961 0.0293,2.695313 0.0293,5.507813 0.11719,12.451172 -0.0293,21.796875 -0.0293,0.585937 -0.55664,0.849609 -0.52734,0.234375 -1.25976,0.292969 -0.70313,0.0293 -1.28907,0.0293 -0.29297,0 -0.46875,0 -0.61523,0.0293 -1.49414,0 -0.8789,-0.0293 -1.58203,-0.205081 -0.70312,-0.205078 -0.82031,-0.644532 -1.28906,-7.207031 -1.31836,-18.955078 -0.0293,-11.777343 1.31836,-18.984375 0.14648,-0.498047 0.84961,-0.673828 0.73242,-0.175781 1.55273,-0.205078 0.0586,0 0.14649,0 1.34765,-0.05859 2.69531,-0.0293 0.70312,0.0293 1.05469,0.08789 0.35156,0.05859 0.61523,0.263672 0.26367,0.205078 0.67383,0.615234 0.14648,0.175781 0.32226,0.351563 4.42383,4.511718 7.93946,8.408203 3.6914,-4.072266 8.29101,-8.759766 0.52735,-0.556641 1.02539,-0.732422 0.49805,-0.205078 1.69922,-0.205078 0.17578,0 0.35157,0 1.14257,-0.05859 2.19726,0.0293 0.46875,0.05859 0.82031,0.234375 0.35157,0.175781 0.41016,0.615234 z" />
      <path
         id="path32"
         style="font-family:'Hallo Bernad'"
         d="m 389.45312,91.386719 v 0 q 0,4.130859 -0.0586,7.470703 -0.0586,0.585937 -0.58594,0.849609 -0.52734,0.234375 -1.23047,0.292969 -0.70312,0.0293 -1.31835,0.0293 -0.26368,0 -0.46875,0 -0.61524,0.0293 -1.49415,0 -0.8496,-0.0293 -1.55273,-0.205081 -0.70312,-0.205078 -0.84961,-0.644532 -1.25976,-7.207031 -1.31836,-18.955078 -0.0293,-11.777343 1.31836,-18.984375 0.14649,-0.439453 0.84961,-0.615234 0.70313,-0.205078 1.55273,-0.234375 0.87891,-0.0293 1.49415,0 0.20507,0 0.43945,0 0.67383,-0.0293 1.43555,0.0293 0.79101,0.05859 1.31835,0.380859 5.74219,-0.703125 9.84375,1.435547 4.10157,2.138672 6.29883,6.064453 2.22657,3.925781 2.22657,8.408203 0,3.896485 -1.55274,7.001953 -1.55273,3.105469 -4.13086,5.126954 -2.54883,2.021484 -5.74219,2.724609 -3.16406,0.673828 -6.47461,-0.175781 z m 11.71875,-15.820313 v 0 q -0.35156,-2.607422 -2.25585,-4.30664 -1.9043,-1.699219 -4.51172,-2.080079 -2.60743,-0.410156 -5.00977,0.84961 0,2.255859 0.0293,4.570312 0.0293,5.683594 0.0293,11.337891 3.28125,1.142578 6.06446,0 2.7832,-1.142578 4.36523,-3.896484 1.58203,-2.783204 1.28906,-6.47461 z" />
      <path
         id="path34"
         style="font-family:'Hallo Bernad'"
         d="m 425.07812,60.449219 v 0 q 4.95118,0.205078 7.96875,3.867187 3.04688,3.632813 4.18946,9.052735 1.14258,5.419921 0.46875,10.957031 -0.41016,3.28125 -1.58203,6.5625 -1.17188,3.28125 -3.45703,5.683594 -2.25586,2.373046 -5.91797,2.988281 -4.80469,0.527343 -8.61328,-2.226563 -3.7793,-2.783203 -5.47852,-7.177734 -1.40625,-3.808594 -1.52344,-8.4375 -0.11719,-4.628906 1.08399,-9.052734 1.23047,-4.453125 3.86718,-7.734375 1.66993,-2.050782 3.92579,-3.251954 2.25585,-1.230468 5.06835,-1.230468 z m 5.36133,28.359375 v 0 q 1.9043,-3.867188 1.78711,-8.994141 -0.0879,-5.126953 -2.13867,-8.847656 -1.43555,-2.373047 -3.7207,-2.8125 -2.28516,-0.439453 -4.21875,1.816406 -2.63672,3.662109 -3.01758,9.316406 -0.35156,5.654297 1.75781,9.873047 2.19727,3.867188 4.83399,3.66211 2.66601,-0.234375 4.71679,-4.013672 z" />
      <path
         id="path36"
         style="font-family:'Hallo Bernad'"
         d="m 450.50781,60.800781 v 0 q 5.74219,-0.703125 9.84375,1.435547 4.10156,2.138672 6.29883,6.064453 2.22656,3.925781 2.22656,8.408203 0,3.603516 -1.31836,6.533203 -1.31836,2.900391 -3.57422,4.951172 -2.25585,2.021485 -5.06835,2.958985 l 7.70507,5.507812 q 1.78711,1.259766 1.72852,1.728516 -0.0293,0.46875 -1.93359,0.644531 l -5.47852,0.615234 q -0.14648,0.0293 -0.29297,0.0293 -0.9668,0.146485 -1.52344,0.146485 -0.52734,-0.0293 -0.9375,-0.292969 -0.41015,-0.263672 -1.08398,-0.9375 l -6.12305,-6.152344 q 0,3.515625 -0.0586,6.416016 -0.0586,0.585937 -0.58594,0.849609 -0.49805,0.234375 -1.23047,0.292969 -0.70312,0.0293 -1.28906,0.0293 -0.29297,0 -0.46875,0 -0.61523,0.0293 -1.49414,0 -0.87891,-0.0293 -1.58203,-0.205081 -0.70313,-0.205078 -0.82031,-0.644532 -1.28907,-7.207031 -1.34766,-18.955078 -0.0293,-11.777343 1.34766,-18.984375 0.11718,-0.439453 0.82031,-0.615234 0.70312,-0.205078 1.58203,-0.234375 0.87891,-0.0293 1.49414,0 0.17578,0 0.43945,0 0.64453,-0.0293 1.43555,0.0293 0.79102,0.05859 1.28906,0.380859 z m 0.46875,25.136719 v 0 q 3.28125,1.142578 6.06446,0 2.7832,-1.142578 4.36523,-3.896484 1.58203,-2.783204 1.28906,-6.47461 -0.32226,-2.607422 -2.25586,-4.30664 -1.90429,-1.699219 -4.51172,-2.080079 -2.60742,-0.410156 -5.00976,0.84961 0,2.226562 0.0293,4.570312 0.0293,5.683594 0.0293,11.337891 z" />
      <path
         id="path38"
         style="font-family:'Hallo Bernad'"
         d="m 489.76562,97.597656 v 0 q -0.58593,-2.402344 -1.05468,-4.482422 -0.26367,-1.171875 -0.52735,-2.285156 h -7.61718 q -0.79102,3.808594 -1.58204,7.939453 -0.11718,0.878906 -0.43945,1.083985 -0.29297,0.175784 -1.23047,0.146484 -0.0879,0 -0.17578,0 h -2.51953 q -1.37695,0 -1.72852,-0.263672 -0.35156,-0.292969 -0.23437,-1.552734 0.26367,-3.925782 1.49414,-11.308594 1.23047,-7.382813 2.98828,-14.443359 1.78711,-7.089844 3.69141,-10.107422 1.28906,-1.611328 3.89648,-1.757813 2.63672,-0.175781 4.21875,1.054688 1.9336,1.992187 3.89649,8.759765 1.96289,6.767578 3.45703,14.736328 1.52344,7.939454 2.08008,13.447266 0.11718,0.761719 -0.46875,0.9375 -0.55664,0.175781 -2.19727,0.234375 -0.0879,0 -0.17578,0 l -2.31445,0.117188 q -0.26368,0.0293 -0.49805,0.0293 -1.61133,0.146488 -2.10938,-0.205078 -0.49804,-0.351562 -0.84961,-2.080078 z M 481.79687,85.46875 v 0 h 5.15625 q -1.02539,-4.365234 -2.57812,-9.84375 -1.40625,4.863281 -2.57813,9.84375 z" />
      <path
         id="path40"
         style="font-family:'Hallo Bernad'"
         d="m 526.5918,60.566406 v 0 q 0,0 0.0293,0 0.9375,-0.05859 1.81641,0.05859 0.9082,0.117187 1.02539,0.791016 0.82031,7.265625 0.73242,19.189453 -0.0586,11.894531 -0.73242,19.072265 -0.0586,0.498046 -0.46875,0.673826 -0.41016,0.17578 -0.99609,0.17578 -0.20508,0.0293 -0.41016,0.0293 -1.28906,0.0879 -2.40234,-0.0586 -1.11328,-0.14649 -2.13868,-0.996097 -2.28515,-2.138672 -4.74609,-6.5625 -2.46094,-4.453125 -4.42383,-8.935547 -1.96289,-4.511719 -2.84179,-6.855469 0.0879,12.392579 -0.0293,21.708985 -0.0293,0.585937 -0.55664,0.849609 -0.52735,0.234375 -1.25977,0.292969 -0.70312,0.0293 -1.28906,0.0293 -0.26367,0 -0.46875,0 -0.61523,0.0293 -1.49414,0 -0.87891,-0.0293 -1.58203,-0.205081 -0.70313,-0.205078 -0.82031,-0.644532 -1.28907,-7.207031 -1.31836,-18.955078 -0.0293,-11.777343 1.31836,-18.984375 0.26367,-0.761718 1.72851,-0.908203 0.87891,-0.117187 2.19727,-0.08789 1.34765,0.0293 2.19726,0.205078 1.17188,0.175781 2.22657,1.787109 3.07617,4.921875 5.88867,11.132813 2.84179,6.210937 5.03906,12.099609 -0.0879,-7.207031 0.0879,-15.439453 0.0586,-4.453125 0.0879,-8.320313 0.0293,-0.585937 0.55664,-0.820312 0.52735,-0.263672 1.23047,-0.292969 0.73242,-0.05859 1.34766,-0.0293 0.26367,0 0.46875,0 z" />
      <path
         id="path42"
         style="font-family:'Hallo Bernad'"
         d="m 536.02539,68.916016 v 0 q 0.79102,-4.013672 2.57813,-5.830079 1.7871,-1.845703 5.33203,-2.285156 4.54101,-0.673828 9.08203,-0.351562 0.67383,0.08789 0.99609,1.113281 0.35156,1.025391 0.35156,2.490234 0,1.113282 -0.32226,2.109375 -0.32227,0.996094 -1.05469,1.054688 -0.67383,0.0293 -1.11328,0 -0.38086,0 -0.76172,0 -0.35156,0 -0.84961,0.05859 -1.64062,0.117187 -2.72461,0.673828 -1.55273,0.878906 -2.40234,2.783203 -0.82031,1.904297 -1.11328,4.072265 -0.29297,2.138672 -0.20508,3.75 2.43164,-0.08789 4.83398,-0.117187 2.40235,-0.0293 3.66211,0.05859 0.67383,0.05859 0.90821,1.054687 0.26367,0.996094 0.26367,2.490235 0.0293,1.142578 -0.20508,1.845703 -0.20508,0.673828 -0.9082,0.732422 -1.20118,0 -2.46094,0.0293 -3.60352,0.0293 -6.21094,0.175782 0.17578,5.097656 0.87891,7.96875 0.32226,1.142578 1.31836,1.376953 0.99609,0.205078 2.46093,0.146484 1.14258,-0.05859 2.51954,-0.175781 1.28906,-0.08789 2.37304,-0.146484 0.73242,0.05859 1.05469,1.083984 0.32227,1.025391 0.35156,2.226562 0,2.167969 -0.70312,2.25586 -1.58203,0.292969 -3.60352,0.380859 -1.99219,0.08789 -3.57422,0.0293 -3.7207,-0.05859 -5.80078,-1.083984 -2.08008,-1.054688 -3.16406,-3.19336 -1.05469,-2.167968 -1.75781,-5.595703 -2.10938,-10.546875 -0.0293,-21.18164 z" />
      <path
         id="path44"
         style="font-family:'Hallo Bernad'"
         d="m 575.54687,97.597656 v 0 q -0.58593,-2.402344 -1.05468,-4.482422 -0.26367,-1.171875 -0.52735,-2.285156 h -7.61718 q -0.79102,3.808594 -1.58204,7.939453 -0.11718,0.878906 -0.43945,1.083985 Q 564.0332,100.0293 563.0957,100 q -0.0879,0 -0.17578,0 h -2.51953 q -1.37695,0 -1.72852,-0.263672 -0.35156,-0.292969 -0.23437,-1.552734 0.26367,-3.925782 1.49414,-11.308594 1.23047,-7.382813 2.98828,-14.443359 1.78711,-7.089844 3.69141,-10.107422 1.28906,-1.611328 3.89648,-1.757813 2.63672,-0.175781 4.21875,1.054688 1.9336,1.992187 3.89649,8.759765 1.96289,6.767578 3.45703,14.736328 1.52344,7.939454 2.08008,13.447266 0.11718,0.761719 -0.46875,0.9375 -0.55664,0.175781 -2.19727,0.234375 -0.0879,0 -0.17578,0 l -2.31445,0.117188 q -0.26368,0.0293 -0.49805,0.0293 -1.61133,0.146488 -2.10938,-0.205078 -0.49804,-0.351562 -0.84961,-2.080078 z M 567.57812,85.46875 v 0 h 5.15625 q -1.02539,-4.365234 -2.57812,-9.84375 -1.40625,4.863281 -2.57813,9.84375 z" />
    </g>
  </g>
</svg>
