<?xml version="1.0" encoding="UTF-8" standalone="no"?>
<svg
   xmlns:dc="http://purl.org/dc/elements/1.1/"
   xmlns:cc="http://creativecommons.org/ns#"
   xmlns:rdf="http://www.w3.org/1999/02/22-rdf-syntax-ns#"
   xmlns:svg="http://www.w3.org/2000/svg"
   xmlns="http://www.w3.org/2000/svg"
   id="svg16"
   width="800px"
   version="1.1"
   height="200px">
  <metadata
     id="metadata20">
    <rdf:RDF>
      <cc:Work
         rdf:about="">
        <dc:format>image/svg+xml</dc:format>
        <dc:type
           rdf:resource="http://purl.org/dc/dcmitype/StillImage" />
      </cc:Work>
    </rdf:RDF>
  </metadata>
  <defs
     id="defs4">
    <style
       id="style2"
       type="text/css"><![CDATA[    
     @font-face {font-family:Harry Piel;
     src: url('/Users/francesco/Repos/write-logos/src/fonts/HarryPiel.ttf');}
     @font-face {font-family:Winter Twilight;
     src: url('/Users/francesco/Repos/write-logos/src/fonts/Winter_Twilight.ttf');}
     ]]></style>
  </defs>
  <g
     id="g14"
     style="font-size:60px">
    <g
       style="text-anchor:middle"
       id="text12"
       aria-label="eXtemporanea">
      <path
         id="path22"
         style="font-family:'Harry Piel'"
         d="m 99.287969,59.56 q -2.34,0 -4.68,0.54 -2.28,0.54 -4.38,1.56 v 12.72 q 4.38,-1.92 9.06,-1.92 3.960001,0 7.620001,1.26 3.66,1.26 7.02,3.3 h 0.3 q 0.48,0 0.6,-0.36 0.12,-0.42 0.12,-0.84 0,-0.9 -0.42,-1.26 -0.36,-0.42 -0.84,-0.54 -0.42,-0.18 -0.84,-0.24 -0.36,-0.12 -0.36,-0.54 0,-0.78 0.72,-0.78 1.44,0 2.52,0.96 1.08,0.9 1.08,2.4 0,0.66 -0.3,1.38 -0.3,0.72 -0.96,1.02 0.48,0.66 0.84,1.38 0.36,0.72 0.36,1.56 0,1.44 -1.08,2.1 -1.08,0.6 -2.28,0.6 -0.54,0 -1.08,-0.06 -0.54,-0.12 -0.54,-0.84 0,-0.6 0.48,-0.6 0.48,-0.06 0.84,-0.06 0.72,0 1.2,-0.3 0.54,-0.36 0.54,-1.14 0,-0.84 -0.48,-1.44 -0.48,-0.66 -1.14,-1.08 -3.3,-1.92 -6.66,-3.18 -3.36,-1.26 -7.260001,-1.26 -2.34,0 -4.68,0.54 -2.28,0.54 -4.38,1.56 v 21.3 q 2.1,1.02 4.38,1.56 2.34,0.54 4.68,0.54 3.900001,0 7.260001,-1.26 3.36,-1.26 6.66,-3.18 0.66,-0.42 1.14,-1.02 0.48,-0.66 0.48,-1.5 0,-1.02 -0.72,-1.2 -0.66,-0.24 -1.5,-0.24 -0.3,0 -0.6,-0.12 -0.24,-0.18 -0.24,-0.54 0,-0.72 0.54,-0.78 0.54,-0.12 1.08,-0.12 1.2,0 2.28,0.66 1.08,0.6 1.08,2.04 0,0.84 -0.36,1.56 -0.36,0.72 -0.84,1.38 0.66,0.3 0.96,1.02 0.3,0.72 0.3,1.38 0,1.5 -1.08,2.46 -1.08,0.9 -2.52,0.9 -0.72,0 -0.72,-0.78 0,-0.42 0.36,-0.48 0.42,-0.12 0.84,-0.24 0.48,-0.18 0.84,-0.54 0.42,-0.42 0.42,-1.32 0,-0.42 -0.12,-0.78 -0.12,-0.42 -0.6,-0.42 h -0.3 q -3.36,2.04 -7.08,3.3 -3.66,1.26 -7.620001,1.26 -3.66,0 -7.08,-1.14 -3.42,-1.2 -6.48,-3.18 -0.96,1.5 -2.52,2.52 -1.5,0.96 -3.3,0.96 -0.72,0 -1.56,-0.18 -0.78,-0.18 -1.5,-0.54 -0.66,-0.36 -1.14,-0.96 -0.42,-0.6 -0.42,-1.44 0,-0.84 0.54,-1.8 0.54,-1.02 1.5,-1.02 0.36,0 0.6,0.36 0.3,0.36 0.3,0.72 0,0.54 -0.48,1.02 -0.42,0.42 -0.42,0.84 0,0.96 0.9,1.26 0.96,0.24 1.68,0.24 0.84,0 1.38,-0.24 V 74.98 q -0.48,-0.12 -0.9,-0.24 -0.36,-0.18 -0.84,-0.18 -1.08,0 -1.62,0.36 -0.48,0.36 -0.78,0.78 -0.3,0.36 -0.54,0.72 -0.18,0.36 -0.6,0.36 -0.3,0 -0.54,-0.24 -0.18,-0.3 -0.18,-0.6 0,-0.66 0.48,-1.2 0.48,-0.54 1.14,-0.9 0.66,-0.36 1.38,-0.54 0.78,-0.24 1.32,-0.24 0.78,0 1.68,0.3 V 59.8 q -0.54,-0.24 -1.38,-0.24 -0.72,0 -1.68,0.3 -0.9,0.24 -0.9,1.2 0,0.48 0.42,0.9 0.48,0.36 0.48,1.02 0,0.3 -0.3,0.66 -0.24,0.36 -0.6,0.36 -0.96,0 -1.5,-0.96 -0.54,-1.02 -0.54,-1.86 0,-0.78 0.42,-1.38 0.48,-0.6 1.14,-0.96 0.66,-0.42 1.44,-0.6 0.84,-0.18 1.5,-0.18 2.22,0 3.72,1.2 1.5,1.2 2.7,2.94 3,-1.92 6.24,-3 3.3,-1.08 6.9,-1.08 3.960001,0 7.620001,1.26 3.66,1.26 7.02,3.3 h 0.3 q 0.48,0 0.6,-0.36 0.12,-0.42 0.12,-0.84 0,-0.9 -0.42,-1.26 -0.36,-0.42 -0.84,-0.54 -0.42,-0.18 -0.84,-0.24 -0.36,-0.12 -0.36,-0.54 0,-0.78 0.72,-0.78 1.44,0 2.52,0.96 1.08,0.9 1.08,2.4 0,0.66 -0.3,1.38 -0.3,0.72 -0.96,1.02 0.48,0.66 0.84,1.38 0.36,0.72 0.36,1.56 0,1.44 -1.08,2.1 -1.08,0.6 -2.28,0.6 -0.54,0 -1.08,-0.06 -0.54,-0.12 -0.54,-0.84 0,-0.6 0.48,-0.6 0.48,-0.06 0.84,-0.06 0.72,0 1.2,-0.3 0.54,-0.36 0.54,-1.14 0,-0.84 -0.48,-1.44 -0.48,-0.66 -1.14,-1.08 -3.3,-1.92 -6.66,-3.18 -3.36,-1.26 -7.260001,-1.26 z m -10.5,16.98 q -0.72,0.66 -1.26,1.08 -0.54,0.42 -0.96,1.44 v 16.08 q 0.54,0.48 1.08,0.84 0.6,0.3 1.14,0.72 z m 0,-14.46 q -1.38,0.6 -2.22,1.62 v 12.66 q 0.48,-0.6 1.02,-0.9 0.6,-0.36 1.2,-0.78 z" />
      <path
         id="path24"
         style="font-family:'Winter Twilight'"
         d="m 123.64328,72.7 q 0.06,-3.42 1.5,-5.88 1.5,-2.52 4.02,-4.32 -0.54,-1.38 -1.5,-2.22 -0.96,-0.84 -2.46,-0.84 -0.66,0 -1.08,-0.42 -0.42,-0.42 -0.42,-1.08 0,-0.66 0.42,-1.08 0.42,-0.42 1.08,-0.42 2.52,0 4.56,1.02 2.04,0.96 3.48,2.76 1.26,-0.54 2.64,-1.02 1.38,-0.48 2.76,-0.84 1.98,-0.54 4.02,-0.78 2.04,-0.24 3.96,-0.42 1.98,-0.18 3.78,-0.36 1.8,-0.18 3.36,-0.48 0.3,-0.06 0.9,-0.06 0.6,0 1.02,0.42 0.48,0.42 0.48,1.08 0,0.84 -0.54,1.2 -0.54,0.3 -1.26,0.3 -1.38,0.18 -2.04,1.62 -0.66,1.44 -0.78,3.78 -0.06,2.34 0.36,5.34 0.48,3 1.32,6.24 4.62,-4.68 8.58,-8.4 4.02,-3.72 7.44,-6.24 3.42,-2.58 6.24,-3.96 2.88,-1.38 5.22,-1.38 2.04,0 3.12,0.96 1.08,0.9 1.14,1.98 0.06,1.14 -1.08,2.1 -1.14,0.96 -3.54,0.96 -4.92,0 -11.34,4.62 -6.42,4.62 -14.82,12.9 0.12,0.42 0.24,0.78 0.12,0.36 0.24,0.78 1.2,3.6 2.64,6.96 1.44,3.36 3,6 1.56,2.58 3.12,4.14 1.62,1.56 3.12,1.56 1.14,-0.54 2.7,-2.52 1.56,-1.98 3.12,-4.44 1.62,-2.46 2.88,-4.86 1.32,-2.4 1.92,-3.72 0.36,-0.84 1.32,-0.84 0.66,0 1.08,0.48 0.48,0.42 0.48,1.08 0,0.18 -0.6,1.38 -0.54,1.14 -1.32,2.52 -0.72,1.32 -1.38,2.58 -0.66,1.2 -0.84,1.5 -0.6,1.02 -1.68,2.7 -1.08,1.68 -2.4,3.3 -1.32,1.56 -2.76,2.7 -1.44,1.2 -2.82,1.2 -2.82,0 -5.34,-1.5 -2.52,-1.5 -4.68,-4.02 -2.1,-2.58 -3.84,-5.94 -1.74,-3.36 -2.94,-7.02 -3.3,3.36 -6.78,7.14 -3.48,3.78 -7.44,7.74 -0.48,0.48 -1.08,0.48 -0.6,0 -1.02,-0.42 -0.48,-0.48 -0.54,-1.02 0,-0.6 0.42,-1.08 4.14,-4.56 7.98,-8.58 3.9,-4.02 7.44,-7.68 -0.78,-3.12 -1.2,-6.24 -0.42,-3.12 -0.36,-5.94 0.06,-2.82 0.54,-5.22 0.54,-2.46 1.56,-4.14 -3.78,0.3 -7.26,1.08 -3.42,0.78 -6.9,2.22 0.48,1.14 0.72,2.34 0.24,1.2 0.24,2.58 0,2.1 -0.6,3.9 -0.54,1.8 -1.56,3.12 -0.96,1.32 -2.34,2.1 -1.38,0.72 -3,0.72 -2.16,0 -3.42,-1.32 -1.2,-1.32 -1.2,-3.66 z m 3.6,1.98 q 1.14,0 1.86,-2.1 0.78,-2.1 0.78,-5.28 0,-0.3 0,-0.54 0,-0.24 -0.06,-0.54 -1.56,1.5 -2.46,3.36 -0.84,1.86 -0.84,4.14 0,0.96 0.72,0.96 z" />
      <path
         id="path26"
         style="font-family:'Harry Piel'"
         d="m 208.33047,59.62 q -1.98,0 -3.78,0.9 v 12.84 q 0.9,-0.3 1.68,-0.3 0.54,0 1.26,0.24 0.78,0.18 1.44,0.54 0.66,0.36 1.14,0.9 0.48,0.54 0.48,1.2 0,0.3 -0.24,0.6 -0.18,0.24 -0.48,0.24 -0.42,0 -0.66,-0.36 -0.18,-0.36 -0.54,-0.72 -0.3,-0.42 -0.84,-0.78 -0.48,-0.36 -1.5,-0.36 -0.48,0 -0.9,0.18 -0.36,0.12 -0.84,0.24 v 23.28 q 0.54,0.24 1.38,0.24 0.36,0 0.78,-0.06 0.42,-0.06 0.84,-0.18 0.42,-0.18 0.66,-0.42 0.3,-0.3 0.3,-0.78 0,-0.48 -0.48,-0.9 -0.42,-0.48 -0.42,-1.02 0,-0.36 0.24,-0.72 0.3,-0.36 0.66,-0.36 0.96,0 1.5,1.02 0.54,0.96 0.54,1.8 0,0.84 -0.48,1.44 -0.42,0.54 -1.14,0.96 -0.66,0.36 -1.5,0.54 -0.78,0.18 -1.5,0.18 -1.8,0 -3.36,-0.96 -1.56,-1.02 -2.52,-2.58 -0.96,1.56 -2.52,2.58 -1.5,0.96 -3.36,0.96 -0.72,0 -1.56,-0.18 -0.78,-0.18 -1.5,-0.54 -0.66,-0.42 -1.14,-0.96 -0.42,-0.6 -0.42,-1.44 0,-0.84 0.54,-1.8 0.54,-1.02 1.5,-1.02 0.36,0 0.6,0.36 0.3,0.36 0.3,0.72 0,0.54 -0.48,1.02 -0.42,0.42 -0.42,0.9 0,0.48 0.24,0.78 0.3,0.24 0.72,0.42 0.42,0.12 0.84,0.18 0.42,0.06 0.78,0.06 0.84,0 1.38,-0.24 V 74.98 q -0.48,-0.12 -0.9,-0.24 -0.36,-0.18 -0.84,-0.18 -1.02,0 -1.56,0.36 -0.48,0.36 -0.84,0.78 -0.3,0.36 -0.54,0.72 -0.18,0.36 -0.6,0.36 -0.3,0 -0.54,-0.24 -0.18,-0.3 -0.18,-0.6 0,-0.66 0.48,-1.2 0.48,-0.54 1.14,-0.9 0.66,-0.36 1.38,-0.54 0.78,-0.24 1.32,-0.24 0.78,0 1.68,0.3 v -12.6 q -2.1,-1.14 -4.2,-1.14 -2.58,0 -4.74,1.32 -2.1,1.26 -3.9,2.94 -0.54,0.48 -0.96,1.2 -0.42,0.66 -0.42,1.44 0,1.02 0.72,1.14 0.78,0.12 1.56,0.12 0.3,0 0.48,0.3 0.18,0.24 0.18,0.54 0,0.54 -0.6,0.66 -0.6,0.06 -1.02,0.06 -1.2,0 -2.28,-0.6 -1.08,-0.66 -1.08,-2.1 0,-0.84 0.36,-1.56 0.36,-0.72 0.84,-1.38 -0.6,-0.3 -0.96,-1.02 -0.3,-0.72 -0.3,-1.38 0,-1.5 1.08,-2.4 1.08,-0.96 2.52,-0.96 0.72,0 0.72,0.78 0,0.42 -0.42,0.54 -0.36,0.12 -0.84,0.24 -0.42,0.12 -0.84,0.54 -0.36,0.36 -0.36,1.32 0,0.36 0.18,0.78 0.18,0.42 0.6,0.42 0.06,0 0.12,0 0.06,-0.06 0.12,-0.06 1.86,-1.74 4.14,-3.06 2.34,-1.38 5.04,-1.38 2.52,0 4.68,1.32 2.16,1.26 3.9,3 1.74,-1.74 3.84,-3 2.16,-1.32 4.74,-1.32 1.8,0 3.42,0.72 1.68,0.66 2.94,1.56 1.32,0.84 2.1,1.56 0.78,0.66 0.9,0.66 0.42,0 0.6,-0.42 0.18,-0.42 0.18,-0.78 0,-0.96 -0.42,-1.32 -0.36,-0.42 -0.84,-0.54 -0.42,-0.12 -0.84,-0.24 -0.36,-0.12 -0.36,-0.54 0,-0.78 0.72,-0.78 1.44,0 2.52,0.96 1.08,0.9 1.08,2.4 0,0.66 -0.36,1.38 -0.3,0.72 -0.9,1.02 0.48,0.66 0.84,1.38 0.36,0.72 0.36,1.56 0,1.44 -1.08,2.1 -1.08,0.6 -2.28,0.6 -0.42,0 -1.02,-0.06 -0.6,-0.12 -0.6,-0.66 0,-0.72 0.42,-0.78 0.42,-0.06 0.9,-0.06 0.66,0 1.14,-0.24 0.48,-0.3 0.48,-1.02 0,-0.78 -0.42,-1.44 -0.42,-0.72 -0.96,-1.2 -1.8,-1.68 -3.96,-2.94 -2.1,-1.32 -4.68,-1.32 z m -5.28,16.32 q -1.44,1.32 -2.22,3.12 v 15.72 q 0.36,0.84 0.9,1.56 0.54,0.72 1.32,1.2 z m -2.22,0.18 q 0.48,-0.6 1.02,-1.08 0.54,-0.48 1.2,-0.96 V 61.42 q -0.6,0.48 -1.14,0.96 -0.54,0.48 -1.08,0.96 z" />
      <path
         id="path28"
         style="font-family:'Harry Piel'"
         d="m 250.57703,59.56 q -2.34,0 -4.68,0.54 -2.28,0.54 -4.38,1.56 v 12.72 q 4.38,-1.92 9.06,-1.92 3.96,0 7.62,1.26 3.66,1.26 7.02,3.3 h 0.3 q 0.48,0 0.6,-0.36 0.12,-0.42 0.12,-0.84 0,-0.9 -0.42,-1.26 -0.36,-0.42 -0.84,-0.54 -0.42,-0.18 -0.84,-0.24 -0.36,-0.12 -0.36,-0.54 0,-0.78 0.72,-0.78 1.44,0 2.52,0.96 1.08,0.9 1.08,2.4 0,0.66 -0.3,1.38 -0.3,0.72 -0.96,1.02 0.48,0.66 0.84,1.38 0.36,0.72 0.36,1.56 0,1.44 -1.08,2.1 -1.08,0.6 -2.28,0.6 -0.54,0 -1.08,-0.06 -0.54,-0.12 -0.54,-0.84 0,-0.6 0.48,-0.6 0.48,-0.06 0.84,-0.06 0.72,0 1.2,-0.3 0.54,-0.36 0.54,-1.14 0,-0.84 -0.48,-1.44 -0.48,-0.66 -1.14,-1.08 -3.3,-1.92 -6.66,-3.18 -3.36,-1.26 -7.26,-1.26 -2.34,0 -4.68,0.54 -2.28,0.54 -4.38,1.56 v 21.3 q 2.1,1.02 4.38,1.56 2.34,0.54 4.68,0.54 3.9,0 7.26,-1.26 3.36,-1.26 6.66,-3.18 0.66,-0.42 1.14,-1.02 0.48,-0.66 0.48,-1.5 0,-1.02 -0.72,-1.2 -0.66,-0.24 -1.5,-0.24 -0.3,0 -0.6,-0.12 -0.24,-0.18 -0.24,-0.54 0,-0.72 0.54,-0.78 0.54,-0.12 1.08,-0.12 1.2,0 2.28,0.66 1.08,0.6 1.08,2.04 0,0.84 -0.36,1.56 -0.36,0.72 -0.84,1.38 0.66,0.3 0.96,1.02 0.3,0.72 0.3,1.38 0,1.5 -1.08,2.46 -1.08,0.9 -2.52,0.9 -0.72,0 -0.72,-0.78 0,-0.42 0.36,-0.48 0.42,-0.12 0.84,-0.24 0.48,-0.18 0.84,-0.54 0.42,-0.42 0.42,-1.32 0,-0.42 -0.12,-0.78 -0.12,-0.42 -0.6,-0.42 h -0.3 q -3.36,2.04 -7.08,3.3 -3.66,1.26 -7.62,1.26 -3.66,0 -7.08,-1.14 -3.42,-1.2 -6.48,-3.18 -0.96,1.5 -2.52,2.52 -1.5,0.96 -3.3,0.96 -0.72,0 -1.56,-0.18 -0.78,-0.18 -1.5,-0.54 -0.66,-0.36 -1.14,-0.96 -0.42,-0.6 -0.42,-1.44 0,-0.84 0.54,-1.8 0.54,-1.02 1.5,-1.02 0.36,0 0.6,0.36 0.3,0.36 0.3,0.72 0,0.54 -0.48,1.02 -0.42,0.42 -0.42,0.84 0,0.96 0.9,1.26 0.96,0.24 1.68,0.24 0.84,0 1.38,-0.24 V 74.98 q -0.48,-0.12 -0.9,-0.24 -0.36,-0.18 -0.84,-0.18 -1.08,0 -1.62,0.36 -0.48,0.36 -0.78,0.78 -0.3,0.36 -0.54,0.72 -0.18,0.36 -0.6,0.36 -0.3,0 -0.54,-0.24 -0.18,-0.3 -0.18,-0.6 0,-0.66 0.48,-1.2 0.48,-0.54 1.14,-0.9 0.66,-0.36 1.38,-0.54 0.78,-0.24 1.32,-0.24 0.78,0 1.68,0.3 V 59.8 q -0.54,-0.24 -1.38,-0.24 -0.72,0 -1.68,0.3 -0.9,0.24 -0.9,1.2 0,0.48 0.42,0.9 0.48,0.36 0.48,1.02 0,0.3 -0.3,0.66 -0.24,0.36 -0.6,0.36 -0.96,0 -1.5,-0.96 -0.54,-1.02 -0.54,-1.86 0,-0.78 0.42,-1.38 0.48,-0.6 1.14,-0.96 0.66,-0.42 1.44,-0.6 0.84,-0.18 1.5,-0.18 2.22,0 3.72,1.2 1.5,1.2 2.7,2.94 3,-1.92 6.24,-3 3.3,-1.08 6.9,-1.08 3.96,0 7.62,1.26 3.66,1.26 7.02,3.3 h 0.3 q 0.48,0 0.6,-0.36 0.12,-0.42 0.12,-0.84 0,-0.9 -0.42,-1.26 -0.36,-0.42 -0.84,-0.54 -0.42,-0.18 -0.84,-0.24 -0.36,-0.12 -0.36,-0.54 0,-0.78 0.72,-0.78 1.44,0 2.52,0.96 1.08,0.9 1.08,2.4 0,0.66 -0.3,1.38 -0.3,0.72 -0.96,1.02 0.48,0.66 0.84,1.38 0.36,0.72 0.36,1.56 0,1.44 -1.08,2.1 -1.08,0.6 -2.28,0.6 -0.54,0 -1.08,-0.06 -0.54,-0.12 -0.54,-0.84 0,-0.6 0.48,-0.6 0.48,-0.06 0.84,-0.06 0.72,0 1.2,-0.3 0.54,-0.36 0.54,-1.14 0,-0.84 -0.48,-1.44 -0.48,-0.66 -1.14,-1.08 -3.3,-1.92 -6.66,-3.18 -3.36,-1.26 -7.26,-1.26 z m -10.5,16.98 q -0.72,0.66 -1.26,1.08 -0.54,0.42 -0.96,1.44 v 16.08 q 0.54,0.48 1.08,0.84 0.6,0.3 1.14,0.72 z m 0,-14.46 q -1.38,0.6 -2.22,1.62 v 12.66 q 0.48,-0.6 1.02,-0.9 0.6,-0.36 1.2,-0.78 z" />
      <path
         id="path30"
         style="font-family:'Harry Piel'"
         d="m 323.29234,61.54 q 0.96,-1.56 2.52,-2.52 1.56,-0.96 3.48,-0.96 0.66,0 1.44,0.18 0.78,0.18 1.44,0.6 0.72,0.36 1.14,0.96 0.48,0.6 0.48,1.38 0,0.84 -0.54,1.86 -0.54,0.96 -1.5,0.96 -0.36,0 -0.66,-0.36 -0.24,-0.36 -0.24,-0.72 0,-0.6 0.42,-1.02 0.48,-0.42 0.48,-0.9 0,-0.42 -0.3,-0.72 -0.24,-0.3 -0.66,-0.42 -0.42,-0.18 -0.84,-0.24 -0.42,-0.06 -0.78,-0.06 -0.84,0 -1.38,0.24 v 13.56 q 0.9,-0.3 1.68,-0.3 0.54,0 1.26,0.24 0.78,0.18 1.44,0.54 0.66,0.36 1.14,0.9 0.48,0.54 0.48,1.2 0,0.3 -0.24,0.6 -0.18,0.24 -0.48,0.24 -0.42,0 -0.66,-0.36 -0.18,-0.36 -0.54,-0.72 -0.3,-0.42 -0.84,-0.78 -0.48,-0.36 -1.5,-0.36 -0.48,0 -0.9,0.18 -0.36,0.12 -0.84,0.24 v 23.28 q 0.54,0.24 1.38,0.24 0.36,0 0.78,-0.06 0.42,-0.06 0.84,-0.18 0.42,-0.18 0.66,-0.42 0.3,-0.3 0.3,-0.78 0,-0.48 -0.48,-0.9 -0.42,-0.48 -0.42,-1.02 0,-0.36 0.24,-0.72 0.3,-0.36 0.66,-0.36 0.96,0 1.5,1.02 0.54,0.96 0.54,1.8 0,0.84 -0.48,1.44 -0.42,0.54 -1.14,0.96 -0.66,0.36 -1.5,0.54 -0.78,0.18 -1.5,0.18 -1.86,0 -3.42,-0.96 -1.5,-1.02 -2.46,-2.58 -0.96,1.56 -2.52,2.58 -1.56,0.96 -3.36,0.96 -0.72,0 -1.56,-0.18 -0.78,-0.18 -1.5,-0.54 -0.66,-0.42 -1.14,-0.96 -0.42,-0.6 -0.42,-1.44 0,-0.84 0.54,-1.8 0.54,-1.02 1.5,-1.02 0.36,0 0.6,0.36 0.3,0.36 0.3,0.72 0,0.54 -0.48,1.02 -0.42,0.42 -0.42,0.9 0,0.48 0.24,0.78 0.3,0.24 0.72,0.42 0.42,0.12 0.84,0.18 0.42,0.06 0.78,0.06 0.84,0 1.38,-0.24 V 74.98 q -0.48,-0.12 -0.9,-0.24 -0.36,-0.18 -0.84,-0.18 -1.02,0 -1.56,0.36 -0.48,0.36 -0.84,0.78 -0.3,0.36 -0.54,0.72 -0.18,0.36 -0.6,0.36 -0.3,0 -0.54,-0.24 -0.18,-0.3 -0.18,-0.6 0,-0.66 0.48,-1.2 0.48,-0.54 1.14,-0.9 0.66,-0.36 1.38,-0.54 0.78,-0.24 1.32,-0.24 0.78,0 1.68,0.3 v -8.04 l -20.58,20.64 -13.8,-14.04 v 22.8 q 0,0.54 0.48,1.26 0.48,0.66 1.14,1.26 0.66,0.54 1.44,0.96 0.78,0.36 1.32,0.36 0.72,0 1.26,-0.36 0.6,-0.42 0.96,-1.02 v -0.12 q 0,-0.48 -0.48,-0.9 -0.42,-0.48 -0.42,-1.02 0,-0.36 0.24,-0.72 0.3,-0.36 0.66,-0.36 0.96,0 1.5,1.02 0.54,0.96 0.54,1.8 0,0.84 -0.42,1.44 -0.42,0.6 -1.08,0.96 -0.66,0.36 -1.44,0.54 -0.72,0.18 -1.44,0.18 -1.8,0 -2.94,-1.08 -1.14,-1.14 -2.1,-2.52 -0.96,1.38 -2.1,2.52 -1.14,1.08 -2.94,1.08 -0.72,0 -1.5,-0.18 -0.72,-0.18 -1.38,-0.54 -0.66,-0.36 -1.08,-0.96 -0.42,-0.6 -0.42,-1.44 0,-0.84 0.54,-1.8 0.54,-1.02 1.5,-1.02 0.36,0 0.6,0.36 0.3,0.36 0.3,0.72 0,0.54 -0.48,1.02 -0.42,0.42 -0.42,0.9 v 0.12 q 0.36,0.6 0.9,1.02 0.6,0.36 1.32,0.36 0.54,0 1.32,-0.36 0.78,-0.42 1.44,-0.96 0.66,-0.6 1.14,-1.26 0.48,-0.72 0.48,-1.26 V 77.26 q -0.78,-1.08 -1.92,-1.86 -1.08,-0.84 -2.46,-0.84 -1.02,0 -1.56,0.36 -0.48,0.36 -0.84,0.78 -0.3,0.36 -0.54,0.72 -0.18,0.36 -0.6,0.36 -0.3,0 -0.54,-0.24 -0.18,-0.3 -0.18,-0.6 0,-0.66 0.48,-1.2 0.48,-0.54 1.14,-0.9 0.66,-0.36 1.38,-0.54 0.78,-0.24 1.32,-0.24 1.2,0 2.28,0.54 1.14,0.54 2.04,1.38 V 63.22 q -0.54,-1.26 -1.86,-2.46 -1.32,-1.2 -2.76,-1.2 -0.6,0 -1.32,0.42 -0.66,0.36 -0.66,1.02 0,0.48 0.42,0.9 0.48,0.42 0.48,0.96 0,0.42 -0.24,0.78 -0.24,0.36 -0.66,0.36 -0.96,0 -1.5,-0.96 -0.54,-1.02 -0.54,-1.86 0,-0.72 0.42,-1.32 0.42,-0.6 1.02,-0.96 0.66,-0.42 1.38,-0.66 0.72,-0.24 1.38,-0.24 1.74,0 3.12,0.96 1.38,0.96 2.1,2.52 v -0.06 q 0.72,-1.56 2.1,-2.46 1.38,-0.96 3.12,-0.96 0.6,0 1.32,0.24 0.78,0.24 1.38,0.66 0.66,0.36 1.08,0.96 0.42,0.6 0.42,1.32 0,0.84 -0.54,1.86 -0.54,0.96 -1.5,0.96 -0.36,0 -0.66,-0.36 -0.24,-0.36 -0.24,-0.72 0,-0.6 0.42,-1.02 0.48,-0.42 0.48,-0.9 0,-0.66 -0.72,-1.02 -0.72,-0.42 -1.26,-0.42 -0.84,0 -1.62,0.42 -0.78,0.42 -1.44,1.02 l 17.52,17.58 17.52,-17.58 q -0.66,-0.6 -1.44,-1.02 -0.78,-0.42 -1.62,-0.42 -0.54,0 -1.26,0.42 -0.72,0.36 -0.72,1.02 0,0.48 0.42,0.9 0.48,0.42 0.48,0.96 0,0.42 -0.24,0.78 -0.24,0.36 -0.66,0.36 -0.96,0 -1.5,-0.96 -0.54,-1.02 -0.54,-1.86 0,-0.72 0.42,-1.32 0.42,-0.6 1.02,-0.96 0.66,-0.42 1.38,-0.66 0.72,-0.24 1.38,-0.24 1.74,0 3.12,0.96 1.38,0.9 2.1,2.46 z m -38.88,1.68 v 1.2 l 16.5,16.74 1.5,-1.56 -17.4,-17.46 q -0.42,0.54 -0.6,1.08 z m 41.94,12.72 q -1.44,1.32 -2.22,3.12 v 15.72 q 0.36,0.84 0.9,1.56 0.54,0.72 1.32,1.2 z m 0,-15.42 q -1.32,1.02 -2.22,2.76 v 12.84 q 0.48,-0.6 1.02,-1.08 0.54,-0.48 1.2,-0.96 z" />
      <path
         id="path32"
         style="font-family:'Harry Piel'"
         d="m 365.03453,58 q 1.92,0 4.2,0.36 2.34,0.3 4.68,1.02 2.34,0.72 4.5,1.8 2.22,1.08 3.9,2.58 1.68,1.5 2.7,3.48 1.02,1.98 1.02,4.38 0,2.46 -1.02,4.44 -1.02,1.92 -2.76,3.42 -1.68,1.5 -3.9,2.58 -2.16,1.08 -4.5,1.8 -2.34,0.72 -4.68,1.08 -2.28,0.3 -4.2,0.3 -5.16,0 -10.02,-1.62 v 14.64 q 0.54,0.24 1.38,0.24 0.72,0 1.62,-0.24 0.96,-0.3 0.96,-1.26 0,-0.48 -0.48,-0.9 -0.42,-0.42 -0.42,-1.02 0,-0.3 0.24,-0.66 0.3,-0.36 0.66,-0.36 0.96,0 1.5,1.02 0.54,0.96 0.54,1.8 0,0.84 -0.48,1.44 -0.42,0.54 -1.14,0.96 -0.66,0.36 -1.5,0.54 -0.78,0.18 -1.5,0.18 -1.8,0 -3.36,-0.96 -1.56,-1.02 -2.52,-2.58 -0.96,1.56 -2.52,2.58 -1.5,0.96 -3.36,0.96 -0.72,0 -1.56,-0.18 -0.78,-0.18 -1.5,-0.54 -0.66,-0.42 -1.14,-0.96 -0.42,-0.6 -0.42,-1.44 0,-0.84 0.54,-1.8 0.54,-1.02 1.5,-1.02 0.36,0 0.6,0.36 0.3,0.36 0.3,0.72 0,0.6 -0.48,1.02 -0.42,0.36 -0.42,1.02 0,0.42 0.3,0.66 0.3,0.24 0.66,0.42 0.42,0.12 0.84,0.18 0.48,0.06 0.78,0.06 0.84,0 1.38,-0.24 V 74.98 q -0.48,-0.12 -0.9,-0.24 -0.36,-0.18 -0.84,-0.18 -1.02,0 -1.56,0.36 -0.54,0.36 -0.84,0.78 -0.3,0.36 -0.54,0.72 -0.18,0.36 -0.6,0.36 -0.3,0 -0.54,-0.24 -0.18,-0.3 -0.18,-0.6 0,-0.66 0.48,-1.2 0.48,-0.54 1.14,-0.9 0.66,-0.36 1.38,-0.54 0.78,-0.24 1.32,-0.24 0.78,0 1.68,0.3 V 59.8 q -0.54,-0.24 -1.38,-0.24 -0.72,0 -1.68,0.3 -0.9,0.24 -0.9,1.2 0,0.42 0.42,0.84 0.48,0.42 0.48,1.02 0,0.36 -0.3,0.72 -0.24,0.36 -0.6,0.36 -0.96,0 -1.5,-0.96 -0.54,-1.02 -0.54,-1.86 0,-0.78 0.42,-1.38 0.48,-0.6 1.14,-0.96 0.66,-0.42 1.44,-0.6 0.84,-0.18 1.5,-0.18 1.98,0 3.54,1.02 1.56,1.02 2.58,2.64 3.24,-1.98 6.96,-2.82 3.72,-0.9 7.5,-0.9 z m -0.06,1.5 q -2.58,0 -5.1,0.42 -2.46,0.42 -4.92,1.32 v 20.82 q 2.52,0.78 4.92,1.26 2.46,0.42 5.1,0.42 1.08,0 2.22,-0.24 1.2,-0.3 2.34,-0.78 1.2,-0.48 2.22,-1.08 1.08,-0.66 1.8,-1.44 1.68,-1.74 2.58,-3.96 0.9,-2.22 0.9,-4.62 0,-2.52 -0.96,-4.74 -0.9,-2.22 -2.58,-3.84 -1.62,-1.62 -3.84,-2.58 -2.16,-0.96 -4.68,-0.96 z m -11.52,21.9 V 61.84 q -0.6,0.3 -1.14,0.6 -0.54,0.24 -1.08,0.6 v 17.22 q 0.96,0.54 2.22,1.14 z m 0,16.14 V 83.02 q -0.6,-0.24 -1.14,-0.48 -0.54,-0.24 -1.08,-0.54 v 12.78 q 0.36,0.84 0.9,1.56 0.54,0.72 1.32,1.2 z m 24.42,-16.8 q 1.26,-0.72 2.46,-1.62 1.2,-0.96 2.1,-2.1 0.96,-1.14 1.5,-2.46 0.6,-1.38 0.6,-2.94 0,-1.56 -0.6,-2.88 -0.54,-1.38 -1.5,-2.52 -0.9,-1.14 -2.1,-2.04 -1.2,-0.96 -2.46,-1.68 1.98,1.74 3.18,4.08 1.26,2.34 1.26,5.04 0,2.7 -1.26,5.04 -1.2,2.34 -3.18,4.08 z" />
      <path
         id="path34"
         style="font-family:'Harry Piel'"
         d="m 418.78516,58 q 3.72,0 7.26,1.08 3.54,1.02 6.54,3.06 3,1.98 5.22,4.86 2.22,2.88 3.3,6.54 1.14,-0.48 2.22,-0.48 0.54,0 1.32,0.24 0.78,0.18 1.5,0.54 0.72,0.36 1.2,0.9 0.54,0.54 0.54,1.2 0,0.3 -0.24,0.6 -0.24,0.24 -0.54,0.24 -0.42,0 -0.66,-0.36 -0.24,-0.36 -0.54,-0.72 -0.3,-0.42 -0.9,-0.78 -0.54,-0.36 -1.62,-0.36 -1.02,0 -1.86,0.48 0.42,1.86 0.42,3.96 0,4.68 -1.98,8.52 -1.98,3.84 -5.22,6.66 -3.24,2.76 -7.44,4.32 -4.14,1.5 -8.52,1.5 -4.44,0 -8.64,-1.5 -4.14,-1.56 -7.38,-4.32 -3.24,-2.76 -5.22,-6.6 -1.98,-3.9 -1.98,-8.58 0,-1.08 0.12,-2.1 0.12,-1.08 0.36,-2.1 -0.54,-0.24 -1.26,-0.24 -1.08,0 -1.68,0.36 -0.54,0.36 -0.9,0.78 -0.3,0.36 -0.54,0.72 -0.18,0.36 -0.6,0.36 -0.78,0 -0.78,-0.84 0,-0.66 0.48,-1.2 0.54,-0.54 1.26,-0.9 0.72,-0.36 1.5,-0.54 0.78,-0.24 1.32,-0.24 0.78,0 1.56,0.3 1.08,-3.6 3.36,-6.42 2.28,-2.88 5.28,-4.86 3,-1.98 6.54,-3 3.54,-1.08 7.2,-1.08 z m 0,1.5 q -2.7,0 -4.92,1.26 -2.16,1.26 -3.84,3.24 -1.62,1.98 -2.76,4.44 -1.08,2.4 -1.56,4.74 0.3,-0.06 0.54,-0.06 0.24,-0.06 0.54,-0.06 0.54,0 1.32,0.24 0.78,0.18 1.5,0.54 0.72,0.36 1.2,0.9 0.48,0.54 0.48,1.26 0,0.3 -0.24,0.54 -0.18,0.24 -0.48,0.24 -0.48,0 -0.72,-0.36 -0.18,-0.36 -0.48,-0.72 -0.3,-0.42 -0.84,-0.78 -0.54,-0.36 -1.68,-0.36 -0.66,0 -1.44,0.3 -0.36,2.1 -0.36,4.14 0,1.98 0.36,4.2 0.36,2.16 1.08,4.32 0.78,2.16 1.92,4.14 1.14,1.98 2.64,3.54 1.56,1.5 3.48,2.4 1.92,0.9 4.26,0.9 2.34,0 4.26,-0.9 1.98,-0.9 3.48,-2.4 1.5,-1.56 2.64,-3.54 1.14,-1.98 1.86,-4.14 0.72,-2.16 1.08,-4.38 0.36,-2.22 0.36,-4.14 0,-2.16 -0.36,-4.32 -0.6,-0.12 -0.9,-0.12 -1.08,0 -1.62,0.36 -0.54,0.36 -0.9,0.78 -0.3,0.36 -0.54,0.72 -0.24,0.36 -0.66,0.36 -0.3,0 -0.54,-0.24 -0.24,-0.3 -0.24,-0.6 0,-0.72 0.6,-1.26 0.6,-0.6 1.38,-0.96 0.84,-0.42 1.68,-0.54 0.9,-0.18 1.5,-0.06 -0.54,-2.34 -1.62,-4.74 -1.08,-2.46 -2.76,-4.38 -1.62,-1.98 -3.84,-3.24 -2.16,-1.26 -4.86,-1.26 z m -9.6,35.88 q -1.44,-1.5 -2.52,-3.48 -1.08,-1.98 -1.8,-4.14 -0.72,-2.22 -1.08,-4.44 -0.3,-2.28 -0.3,-4.32 0,-1.62 0.18,-3.24 -0.72,0.48 -1.38,1.14 -0.6,0.66 -1.14,1.32 V 79 q 0,4.8 2.04,9.18 2.04,4.38 6,7.2 z m 28.8,-16.38 q 0,1.86 -0.48,4.14 -0.42,2.28 -1.26,4.5 -0.84,2.16 -2.1,4.08 -1.2,1.92 -2.76,3.06 2.04,-1.26 3.66,-2.94 1.68,-1.74 2.82,-3.78 1.2,-2.04 1.86,-4.32 0.66,-2.34 0.66,-4.74 0,-1.56 -0.36,-3.12 -0.54,0.48 -1.08,0.96 -0.54,0.48 -1.02,1.08 0.06,0.3 0.06,0.54 0,0.24 0,0.54 z m -28.8,-16.38 q -3.24,2.28 -5.16,5.64 -1.92,3.3 -2.64,7.2 0.6,-0.48 1.2,-0.9 0.66,-0.42 1.32,-0.78 0.54,-2.82 1.86,-5.94 1.38,-3.12 3.42,-5.22 z m 22.32,0.72 q 1.2,0.84 2.22,2.34 1.08,1.5 1.86,3.3 0.84,1.74 1.38,3.54 0.54,1.8 0.72,3.18 0.48,-0.42 0.96,-0.78 0.48,-0.36 1.02,-0.66 -0.9,-3.36 -3.06,-6.24 -2.1,-2.94 -5.1,-4.68 z" />
      <path
         id="path36"
         style="font-family:'Harry Piel'"
         d="m 490.27797,83.14 q 1.38,1.74 2.28,3.78 0.96,1.98 1.8,4.02 0.3,0.84 0.72,1.92 0.42,1.02 1.02,1.98 0.6,0.96 1.38,1.62 0.84,0.66 1.92,0.66 1.08,0 2.04,-1.02 1.02,-1.02 1.02,-2.1 0,-0.6 0.36,-0.96 0.42,-0.42 1.02,-0.42 0.54,0 0.96,0.48 0.42,0.42 0.42,0.96 0,1.38 -1.38,2.46 -1.32,1.08 -3.12,1.86 -1.8,0.72 -3.66,1.14 -1.86,0.36 -2.94,0.36 -2.04,0 -3.78,-0.6 -1.74,-0.66 -3.12,-2.16 -1.2,-1.32 -2.22,-2.82 -1.02,-1.5 -1.98,-3 -0.96,-1.56 -1.98,-3.06 -0.96,-1.56 -2.04,-3 -5.16,0 -10.02,-1.62 v 14.64 q 0.54,0.24 1.38,0.24 0.72,0 1.62,-0.24 0.96,-0.3 0.96,-1.26 0,-0.42 -0.48,-0.84 -0.42,-0.48 -0.42,-1.02 0,-0.36 0.24,-0.72 0.3,-0.36 0.66,-0.36 0.96,0 1.5,1.02 0.54,0.96 0.54,1.8 0,0.84 -0.48,1.44 -0.42,0.54 -1.14,0.96 -0.66,0.36 -1.5,0.54 -0.78,0.18 -1.5,0.18 -1.8,0 -3.36,-0.96 -1.56,-1.02 -2.52,-2.58 -0.96,1.56 -2.52,2.58 -1.5,0.96 -3.36,0.96 -0.72,0 -1.56,-0.18 -0.78,-0.18 -1.5,-0.54 -0.66,-0.42 -1.14,-0.96 -0.42,-0.6 -0.42,-1.44 0,-0.84 0.54,-1.8 0.54,-1.02 1.5,-1.02 0.36,0 0.6,0.36 0.3,0.36 0.3,0.72 0,0.6 -0.48,1.02 -0.42,0.36 -0.42,1.02 0,0.42 0.3,0.66 0.3,0.24 0.66,0.42 0.42,0.12 0.84,0.18 0.48,0.06 0.78,0.06 0.84,0 1.38,-0.24 V 74.98 q -0.48,-0.12 -0.9,-0.24 -0.36,-0.18 -0.84,-0.18 -1.08,0 -1.62,0.36 -0.48,0.36 -0.78,0.78 -0.3,0.36 -0.54,0.72 -0.18,0.36 -0.6,0.36 -0.3,0 -0.54,-0.24 -0.18,-0.3 -0.18,-0.6 0,-0.66 0.48,-1.2 0.48,-0.54 1.14,-0.9 0.66,-0.36 1.38,-0.54 0.78,-0.24 1.32,-0.24 0.78,0 1.68,0.3 V 59.8 q -0.54,-0.24 -1.38,-0.24 -0.72,0 -1.68,0.3 -0.9,0.24 -0.9,1.2 0,0.42 0.42,0.9 0.48,0.42 0.48,0.9 0,0.42 -0.24,0.78 -0.24,0.36 -0.66,0.36 -0.96,0 -1.5,-0.96 -0.54,-1.02 -0.54,-1.86 0,-0.78 0.42,-1.38 0.48,-0.6 1.14,-0.96 0.66,-0.42 1.44,-0.6 0.84,-0.18 1.5,-0.18 1.98,0 3.54,1.02 1.56,1.02 2.58,2.64 3.24,-1.92 6.9,-2.82 3.72,-0.9 7.5,-0.9 2.94,0 6.54,0.78 3.66,0.72 6.84,2.4 3.24,1.62 5.4,4.2 2.22,2.58 2.22,6.24 0,2.1 -0.9,3.84 -0.84,1.74 -2.28,3.18 -1.38,1.44 -3.12,2.58 -1.74,1.08 -3.42,1.92 z m -21.3,-21.9 v 16.14 q 3.72,-0.84 7.26,-0.84 3.06,0 5.94,0.84 2.94,0.78 5.34,2.82 1.68,-1.56 2.58,-3.96 0.9,-2.4 0.9,-4.62 0,-2.52 -0.96,-4.68 -0.9,-2.22 -2.52,-3.84 -1.62,-1.68 -3.84,-2.64 -2.16,-0.96 -4.68,-0.96 -2.58,0 -5.1,0.42 -2.46,0.42 -4.92,1.32 z m 7.56,16.86 q 3.18,0.78 5.4,2.52 2.28,1.68 3.9,3.78 1.68,2.1 2.88,4.38 1.2,2.28 2.28,4.2 1.14,1.86 2.34,3.12 1.2,1.26 2.88,1.32 l -0.3,-0.24 q -1.02,-1.08 -1.8,-2.7 -0.72,-1.68 -1.32,-3.06 -1.26,-2.94 -2.64,-5.34 -1.32,-2.46 -3.18,-4.2 -1.86,-1.74 -4.38,-2.7 -2.52,-1.02 -6.06,-1.08 z m -9.06,-16.26 q -0.6,0.3 -1.14,0.6 -0.54,0.24 -1.08,0.6 v 15.3 q 0.54,-0.18 1.08,-0.3 0.6,-0.18 1.14,-0.3 z m 0,35.7 V 83.02 q -0.6,-0.24 -1.14,-0.48 -0.54,-0.24 -1.08,-0.54 v 12.78 q 0.36,0.84 0.9,1.56 0.54,0.72 1.32,1.2 z m 24.36,-16.8 q 1.26,-0.72 2.46,-1.62 1.2,-0.96 2.1,-2.1 0.96,-1.14 1.5,-2.46 0.6,-1.38 0.6,-2.94 0,-1.56 -0.6,-2.88 -0.54,-1.38 -1.5,-2.52 -0.9,-1.14 -2.1,-2.04 -1.2,-0.96 -2.46,-1.68 1.98,1.74 3.18,4.08 1.26,2.34 1.26,5.04 0,2.7 -1.26,5.04 -1.2,2.34 -3.18,4.08 z m -14.16,3 q -1.8,-1.86 -3.96,-2.94 -2.1,-1.08 -4.74,-1.2 v 2.46 q 2.16,0.66 4.26,1.14 2.16,0.42 4.44,0.54 z m -10.2,-2.34 v -1.8 q -0.54,0.06 -1.14,0.12 -0.54,0.06 -1.08,0.18 v 0.36 q 0.96,0.54 2.22,1.14 z" />
      <path
         id="path38"
         style="font-family:'Harry Piel'"
         d="m 523.94172,81.94 q -0.54,-0.3 -1.26,-0.72 -0.72,-0.42 -1.56,-0.78 -0.78,-0.42 -1.56,-0.66 -0.78,-0.3 -1.38,-0.3 -0.78,0 -1.32,0.18 -0.48,0.18 -0.84,0.42 -0.36,0.24 -0.6,0.42 -0.24,0.18 -0.48,0.18 -0.66,0 -0.66,-0.78 0,-0.42 0.42,-0.78 0.48,-0.36 1.02,-0.6 0.6,-0.3 1.2,-0.42 0.6,-0.18 0.96,-0.18 1.92,0 3.54,0.96 1.68,0.9 3.24,1.8 l 11.1,-21.06 q 0.48,-0.9 1.2,-1.26 0.72,-0.36 1.74,-0.36 0.36,0 0.9,0.12 0.54,0.06 0.54,0.6 0,0.72 -0.36,0.78 -0.36,0.06 -0.84,0.06 -0.72,0 -1.2,0.36 -0.42,0.36 -0.48,1.08 l 9.84,18.54 q 1.08,-0.6 2.22,-1.14 1.2,-0.54 2.4,-0.54 0.36,0 1.02,0.18 0.66,0.12 1.26,0.42 0.66,0.24 1.14,0.66 0.48,0.36 0.48,0.78 0,0.78 -0.72,0.78 -0.42,0 -1.14,-0.6 -0.72,-0.66 -1.98,-0.66 -1.08,0 -2.04,0.48 -0.96,0.48 -1.92,0.96 l 9.24,17.34 q 0.3,0.06 0.48,0.06 0.24,0 0.54,0 0.72,0 1.44,-0.18 0.24,-0.12 0.36,-0.42 0.18,-0.3 0.18,-0.6 0,-0.54 -0.42,-0.96 -0.42,-0.42 -0.42,-1.02 0,-0.3 0.24,-0.66 0.24,-0.42 0.6,-0.42 0.42,0 0.78,0.3 0.36,0.3 0.6,0.78 0.24,0.42 0.36,0.9 0.12,0.48 0.12,0.84 0,0.84 -0.42,1.44 -0.42,0.6 -1.08,1.02 -0.6,0.42 -1.38,0.6 -0.72,0.18 -1.44,0.18 -1.86,0 -3.66,-1.08 -1.8,-1.08 -3.06,-2.34 -1.02,1.56 -2.94,2.46 -1.92,0.9 -3.78,0.9 -0.72,0 -1.5,-0.18 -0.78,-0.18 -1.44,-0.54 -0.6,-0.42 -1.02,-1.02 -0.42,-0.6 -0.42,-1.44 0,-0.36 0.12,-0.84 0.12,-0.54 0.3,-0.96 0.24,-0.42 0.6,-0.72 0.36,-0.3 0.84,-0.3 0.36,0 0.6,0.42 0.24,0.36 0.24,0.66 0,0.6 -0.42,1.08 -0.42,0.42 -0.42,0.9 0,0.9 0.84,1.2 0.9,0.24 1.62,0.24 0.78,0 1.56,-0.18 0.78,-0.18 1.44,-0.66 l -6.42,-12.18 q -0.3,0.24 -1.2,1.02 -0.84,0.78 -1.86,1.62 -0.96,0.84 -1.8,1.5 -0.84,0.66 -0.96,0.66 -0.12,0 -0.24,-0.06 -0.06,-0.06 -0.18,-0.12 -0.66,-0.48 -1.26,-1.08 -0.6,-0.6 -1.26,-1.14 -1.62,-1.38 -3.3,-2.64 -1.68,-1.32 -3.48,-2.52 -0.24,0.48 -0.78,1.44 -0.54,0.96 -1.26,2.22 -0.66,1.2 -1.38,2.58 -0.72,1.32 -1.32,2.52 -0.6,1.2 -1.02,2.1 -0.36,0.9 -0.36,1.26 0,1.26 1.02,2.4 1.08,1.08 2.34,1.08 0.6,0 1.08,-0.3 0.48,-0.36 0.78,-0.84 v -0.12 q 0,-0.54 -0.42,-0.96 -0.42,-0.42 -0.42,-1.02 0,-0.36 0.24,-0.72 0.24,-0.36 0.6,-0.36 0.54,0 0.9,0.36 0.36,0.36 0.6,0.9 0.24,0.48 0.3,1.02 0.12,0.54 0.12,0.96 0,0.72 -0.42,1.26 -0.42,0.48 -1.08,0.84 -0.6,0.3 -1.32,0.48 -0.72,0.18 -1.26,0.18 -1.68,0 -2.64,-1.08 -0.9,-1.14 -1.68,-2.4 -0.84,1.38 -1.98,2.46 -1.14,1.02 -2.88,1.02 -1.44,0 -2.76,-0.72 -1.32,-0.72 -1.32,-2.46 0,-0.36 0.12,-0.84 0.12,-0.48 0.36,-0.9 0.24,-0.48 0.6,-0.78 0.36,-0.3 0.78,-0.3 0.36,0 0.6,0.42 0.24,0.36 0.24,0.66 0,0.6 -0.42,1.08 -0.42,0.42 -0.42,0.9 v 0.12 q 0.3,0.54 0.84,1.02 0.54,0.42 1.2,0.42 0.66,0 1.32,-0.42 0.72,-0.42 1.32,-1.02 0.6,-0.6 1.02,-1.26 0.48,-0.66 0.78,-1.2 z m 1.86,-0.54 q 2.46,1.56 4.68,3.42 2.28,1.8 4.44,3.72 2.4,-2.34 5.04,-4.32 l -7.74,-14.82 z m 9.06,-17.22 9.06,17.28 q 0.48,-0.3 0.9,-0.54 0.48,-0.3 0.96,-0.6 l -9.72,-18.36 z m 20.04,33.36 -8.46,-15.96 -1.86,1.2 6.06,11.46 q 0.18,0.36 0.72,0.84 0.54,0.48 1.2,1.02 0.66,0.48 1.32,0.9 0.66,0.36 1.02,0.54 z" />
      <path
         id="path40"
         style="font-family:'Harry Piel'"
         d="m 610.08109,63.22 v 11.76 q 0.9,-0.84 1.98,-1.38 1.14,-0.54 2.34,-0.54 0.54,0 1.26,0.24 0.78,0.18 1.44,0.54 0.66,0.36 1.14,0.9 0.48,0.54 0.48,1.2 0,0.3 -0.24,0.6 -0.18,0.24 -0.48,0.24 -0.42,0 -0.66,-0.36 -0.18,-0.36 -0.48,-0.72 -0.3,-0.42 -0.84,-0.78 -0.54,-0.36 -1.56,-0.36 -1.38,0 -2.52,0.84 -1.08,0.78 -1.86,1.86 v 22.02 q 0,0.78 -0.78,0.78 -0.48,0 -0.66,-0.36 l -31.26,-27.78 v 22.8 q 0,0.54 0.48,1.26 0.48,0.66 1.14,1.26 0.66,0.54 1.44,0.96 0.78,0.36 1.32,0.36 0.72,0 1.26,-0.36 0.6,-0.42 0.96,-1.02 v -0.12 q 0,-0.48 -0.48,-0.9 -0.42,-0.48 -0.42,-1.02 0,-0.36 0.24,-0.72 0.3,-0.36 0.66,-0.36 0.96,0 1.5,1.02 0.54,0.96 0.54,1.8 0,0.84 -0.42,1.44 -0.42,0.6 -1.08,0.96 -0.66,0.36 -1.44,0.54 -0.72,0.18 -1.44,0.18 -1.8,0 -2.94,-1.08 -1.14,-1.14 -2.1,-2.52 -0.96,1.38 -2.1,2.52 -1.14,1.08 -2.94,1.08 -0.72,0 -1.5,-0.18 -0.72,-0.18 -1.38,-0.54 -0.66,-0.36 -1.08,-0.96 -0.42,-0.6 -0.42,-1.44 0,-0.84 0.54,-1.8 0.54,-1.02 1.5,-1.02 0.36,0 0.6,0.36 0.3,0.36 0.3,0.72 0,0.54 -0.48,0.96 -0.42,0.42 -0.42,0.9 v 0.18 q 0.36,0.6 0.9,1.02 0.6,0.36 1.32,0.36 0.54,0 1.32,-0.36 0.78,-0.42 1.44,-0.96 0.66,-0.6 1.14,-1.26 0.48,-0.72 0.48,-1.26 V 77.26 q -0.78,-1.08 -1.92,-1.86 -1.08,-0.84 -2.46,-0.84 -1.02,0 -1.56,0.36 -0.54,0.36 -0.84,0.78 -0.3,0.36 -0.54,0.72 -0.18,0.36 -0.6,0.36 -0.3,0 -0.54,-0.24 -0.18,-0.3 -0.18,-0.6 0,-0.66 0.48,-1.2 0.48,-0.54 1.14,-0.9 0.66,-0.36 1.38,-0.54 0.78,-0.24 1.32,-0.24 1.2,0 2.28,0.54 1.14,0.54 2.04,1.38 V 63.22 q -0.54,-1.26 -1.86,-2.46 -1.32,-1.2 -2.76,-1.2 -0.6,0 -1.32,0.42 -0.66,0.36 -0.66,1.02 0,0.48 0.42,0.9 0.48,0.42 0.48,1.02 0,0.36 -0.3,0.72 -0.24,0.36 -0.6,0.36 -0.96,0 -1.5,-0.96 -0.54,-1.02 -0.54,-1.86 0,-0.72 0.42,-1.32 0.42,-0.6 1.02,-0.96 0.66,-0.42 1.38,-0.66 0.72,-0.24 1.38,-0.24 1.74,0 3.12,0.96 1.38,0.96 2.1,2.52 0.72,-1.56 2.1,-2.52 1.38,-0.96 3.12,-0.96 0.6,0 1.32,0.24 0.78,0.24 1.38,0.66 0.66,0.36 1.08,0.96 0.42,0.6 0.42,1.32 0,0.84 -0.54,1.86 -0.54,0.96 -1.5,0.96 -0.36,0 -0.66,-0.36 -0.24,-0.36 -0.24,-0.72 0,-0.54 0.42,-0.96 0.48,-0.42 0.48,-0.9 0,-0.66 -0.72,-1.08 -0.66,-0.42 -1.26,-0.42 -0.84,0 -1.62,0.42 -0.78,0.42 -1.44,1.02 l 29.58,25.86 v -9.6 q -0.78,-1.08 -1.92,-1.86 -1.08,-0.84 -2.46,-0.84 -1.02,0 -1.56,0.36 -0.54,0.36 -0.84,0.78 -0.3,0.36 -0.54,0.72 -0.18,0.36 -0.6,0.36 -0.3,0 -0.54,-0.24 -0.18,-0.3 -0.18,-0.6 0,-0.66 0.48,-1.2 0.48,-0.54 1.14,-0.9 0.66,-0.36 1.38,-0.54 0.78,-0.24 1.32,-0.24 1.2,0 2.28,0.54 1.14,0.54 2.04,1.38 V 63.22 q -0.54,-1.26 -1.86,-2.46 -1.32,-1.2 -2.76,-1.2 -0.6,0 -1.32,0.42 -0.66,0.36 -0.66,1.02 0,0.48 0.42,0.9 0.48,0.42 0.48,1.02 0,0.36 -0.3,0.72 -0.24,0.36 -0.6,0.36 -0.96,0 -1.5,-0.96 -0.54,-1.02 -0.54,-1.86 0,-0.72 0.42,-1.32 0.42,-0.6 1.02,-0.96 0.66,-0.42 1.38,-0.66 0.72,-0.24 1.38,-0.24 1.74,0 3.12,0.96 1.38,0.96 2.1,2.52 0.72,-1.56 2.1,-2.52 1.38,-0.96 3.12,-0.96 0.6,0 1.32,0.24 0.78,0.24 1.38,0.66 0.66,0.36 1.08,0.96 0.42,0.6 0.42,1.32 0,0.84 -0.54,1.86 -0.54,0.96 -1.5,0.96 -0.36,0 -0.66,-0.36 -0.24,-0.36 -0.24,-0.72 0,-0.54 0.42,-0.96 0.48,-0.42 0.48,-0.9 0,-0.66 -0.72,-1.08 -0.66,-0.42 -1.26,-0.42 -1.44,0 -2.76,1.2 -1.32,1.2 -1.86,2.46 z m -1.56,28.98 v -3.24 l -30.54,-26.82 q -0.48,0.72 -0.54,1.02 -0.06,0.24 -0.06,1.26 z" />
      <path
         id="path42"
         style="font-family:'Harry Piel'"
         d="m 648.89734,59.56 q -2.34,0 -4.68,0.54 -2.28,0.54 -4.38,1.56 v 12.72 q 4.38,-1.92 9.06,-1.92 3.96,0 7.62,1.26 3.66,1.26 7.02,3.3 h 0.3 q 0.48,0 0.6,-0.36 0.12,-0.42 0.12,-0.84 0,-0.9 -0.42,-1.26 -0.36,-0.42 -0.84,-0.54 -0.42,-0.18 -0.84,-0.24 -0.36,-0.12 -0.36,-0.54 0,-0.78 0.72,-0.78 1.44,0 2.52,0.96 1.08,0.9 1.08,2.4 0,0.66 -0.3,1.38 -0.3,0.72 -0.96,1.02 0.48,0.66 0.84,1.38 0.36,0.72 0.36,1.56 0,1.44 -1.08,2.1 -1.08,0.6 -2.28,0.6 -0.54,0 -1.08,-0.06 -0.54,-0.12 -0.54,-0.84 0,-0.6 0.48,-0.6 0.48,-0.06 0.84,-0.06 0.72,0 1.2,-0.3 0.54,-0.36 0.54,-1.14 0,-0.84 -0.48,-1.44 -0.48,-0.66 -1.14,-1.08 -3.3,-1.92 -6.66,-3.18 -3.36,-1.26 -7.26,-1.26 -2.34,0 -4.68,0.54 -2.28,0.54 -4.38,1.56 v 21.3 q 2.1,1.02 4.38,1.56 2.34,0.54 4.68,0.54 3.9,0 7.26,-1.26 3.36,-1.26 6.66,-3.18 0.66,-0.42 1.14,-1.02 0.48,-0.66 0.48,-1.5 0,-1.02 -0.72,-1.2 -0.66,-0.24 -1.5,-0.24 -0.3,0 -0.6,-0.12 -0.24,-0.18 -0.24,-0.54 0,-0.72 0.54,-0.78 0.54,-0.12 1.08,-0.12 1.2,0 2.28,0.66 1.08,0.6 1.08,2.04 0,0.84 -0.36,1.56 -0.36,0.72 -0.84,1.38 0.66,0.3 0.96,1.02 0.3,0.72 0.3,1.38 0,1.5 -1.08,2.46 -1.08,0.9 -2.52,0.9 -0.72,0 -0.72,-0.78 0,-0.42 0.36,-0.48 0.42,-0.12 0.84,-0.24 0.48,-0.18 0.84,-0.54 0.42,-0.42 0.42,-1.32 0,-0.42 -0.12,-0.78 -0.12,-0.42 -0.6,-0.42 h -0.3 q -3.36,2.04 -7.08,3.3 -3.66,1.26 -7.62,1.26 -3.66,0 -7.08,-1.14 -3.42,-1.2 -6.48,-3.18 -0.96,1.5 -2.52,2.52 -1.5,0.96 -3.3,0.96 -0.72,0 -1.56,-0.18 -0.78,-0.18 -1.5,-0.54 -0.66,-0.36 -1.14,-0.96 -0.42,-0.6 -0.42,-1.44 0,-0.84 0.54,-1.8 0.54,-1.02 1.5,-1.02 0.36,0 0.6,0.36 0.3,0.36 0.3,0.72 0,0.54 -0.48,1.02 -0.42,0.42 -0.42,0.84 0,0.96 0.9,1.26 0.96,0.24 1.68,0.24 0.84,0 1.38,-0.24 V 74.98 q -0.48,-0.12 -0.9,-0.24 -0.36,-0.18 -0.84,-0.18 -1.08,0 -1.62,0.36 -0.48,0.36 -0.78,0.78 -0.3,0.36 -0.54,0.72 -0.18,0.36 -0.6,0.36 -0.3,0 -0.54,-0.24 -0.18,-0.3 -0.18,-0.6 0,-0.66 0.48,-1.2 0.48,-0.54 1.14,-0.9 0.66,-0.36 1.38,-0.54 0.78,-0.24 1.32,-0.24 0.78,0 1.68,0.3 V 59.8 q -0.54,-0.24 -1.38,-0.24 -0.72,0 -1.68,0.3 -0.9,0.24 -0.9,1.2 0,0.48 0.42,0.9 0.48,0.36 0.48,1.02 0,0.3 -0.3,0.66 -0.24,0.36 -0.6,0.36 -0.96,0 -1.5,-0.96 -0.54,-1.02 -0.54,-1.86 0,-0.78 0.42,-1.38 0.48,-0.6 1.14,-0.96 0.66,-0.42 1.44,-0.6 0.84,-0.18 1.5,-0.18 2.22,0 3.72,1.2 1.5,1.2 2.7,2.94 3,-1.92 6.24,-3 3.3,-1.08 6.9,-1.08 3.96,0 7.62,1.26 3.66,1.26 7.02,3.3 h 0.3 q 0.48,0 0.6,-0.36 0.12,-0.42 0.12,-0.84 0,-0.9 -0.42,-1.26 -0.36,-0.42 -0.84,-0.54 -0.42,-0.18 -0.84,-0.24 -0.36,-0.12 -0.36,-0.54 0,-0.78 0.72,-0.78 1.44,0 2.52,0.96 1.08,0.9 1.08,2.4 0,0.66 -0.3,1.38 -0.3,0.72 -0.96,1.02 0.48,0.66 0.84,1.38 0.36,0.72 0.36,1.56 0,1.44 -1.08,2.1 -1.08,0.6 -2.28,0.6 -0.54,0 -1.08,-0.06 -0.54,-0.12 -0.54,-0.84 0,-0.6 0.48,-0.6 0.48,-0.06 0.84,-0.06 0.72,0 1.2,-0.3 0.54,-0.36 0.54,-1.14 0,-0.84 -0.48,-1.44 -0.48,-0.66 -1.14,-1.08 -3.3,-1.92 -6.66,-3.18 -3.36,-1.26 -7.26,-1.26 z m -10.5,16.98 q -0.72,0.66 -1.26,1.08 -0.54,0.42 -0.96,1.44 v 16.08 q 0.54,0.48 1.08,0.84 0.6,0.3 1.14,0.72 z m 0,-14.46 q -1.38,0.6 -2.22,1.62 v 12.66 q 0.48,-0.6 1.02,-0.9 0.6,-0.36 1.2,-0.78 z" />
      <path
         id="path44"
         style="font-family:'Harry Piel'"
         d="m 687.65266,81.94 q -0.54,-0.3 -1.26,-0.72 -0.72,-0.42 -1.56,-0.78 -0.78,-0.42 -1.56,-0.66 -0.78,-0.3 -1.38,-0.3 -0.78,0 -1.32,0.18 -0.48,0.18 -0.84,0.42 -0.36,0.24 -0.6,0.42 -0.24,0.18 -0.48,0.18 -0.66,0 -0.66,-0.78 0,-0.42 0.42,-0.78 0.48,-0.36 1.02,-0.6 0.6,-0.3 1.2,-0.42 0.6,-0.18 0.96,-0.18 1.92,0 3.54,0.96 1.68,0.9 3.24,1.8 l 11.1,-21.06 q 0.48,-0.9 1.2,-1.26 0.72,-0.36 1.74,-0.36 0.36,0 0.9,0.12 0.54,0.06 0.54,0.6 0,0.72 -0.36,0.78 -0.36,0.06 -0.84,0.06 -0.72,0 -1.2,0.36 -0.42,0.36 -0.48,1.08 l 9.84,18.54 q 1.08,-0.6 2.22,-1.14 1.2,-0.54 2.4,-0.54 0.36,0 1.02,0.18 0.66,0.12 1.26,0.42 0.66,0.24 1.14,0.66 0.48,0.36 0.48,0.78 0,0.78 -0.72,0.78 -0.42,0 -1.14,-0.6 -0.72,-0.66 -1.98,-0.66 -1.08,0 -2.04,0.48 -0.96,0.48 -1.92,0.96 l 9.24,17.34 q 0.3,0.06 0.48,0.06 0.24,0 0.54,0 0.72,0 1.44,-0.18 0.24,-0.12 0.36,-0.42 0.18,-0.3 0.18,-0.6 0,-0.54 -0.42,-0.96 -0.42,-0.42 -0.42,-1.02 0,-0.3 0.24,-0.66 0.24,-0.42 0.6,-0.42 0.42,0 0.78,0.3 0.36,0.3 0.6,0.78 0.24,0.42 0.36,0.9 0.12,0.48 0.12,0.84 0,0.84 -0.42,1.44 -0.42,0.6 -1.08,1.02 -0.6,0.42 -1.38,0.6 -0.72,0.18 -1.44,0.18 -1.86,0 -3.66,-1.08 -1.8,-1.08 -3.06,-2.34 -1.02,1.56 -2.94,2.46 -1.92,0.9 -3.78,0.9 -0.72,0 -1.5,-0.18 -0.78,-0.18 -1.44,-0.54 -0.6,-0.42 -1.02,-1.02 -0.42,-0.6 -0.42,-1.44 0,-0.36 0.12,-0.84 0.12,-0.54 0.3,-0.96 0.24,-0.42 0.6,-0.72 0.36,-0.3 0.84,-0.3 0.36,0 0.6,0.42 0.24,0.36 0.24,0.66 0,0.6 -0.42,1.08 -0.42,0.42 -0.42,0.9 0,0.9 0.84,1.2 0.9,0.24 1.62,0.24 0.78,0 1.56,-0.18 0.78,-0.18 1.44,-0.66 l -6.42,-12.18 q -0.3,0.24 -1.2,1.02 -0.84,0.78 -1.86,1.62 -0.96,0.84 -1.8,1.5 -0.84,0.66 -0.96,0.66 -0.12,0 -0.24,-0.06 -0.06,-0.06 -0.18,-0.12 -0.66,-0.48 -1.26,-1.08 -0.6,-0.6 -1.26,-1.14 -1.62,-1.38 -3.3,-2.64 -1.68,-1.32 -3.48,-2.52 -0.24,0.48 -0.78,1.44 -0.54,0.96 -1.26,2.22 -0.66,1.2 -1.38,2.58 -0.72,1.32 -1.32,2.52 -0.6,1.2 -1.02,2.1 -0.36,0.9 -0.36,1.26 0,1.26 1.02,2.4 1.08,1.08 2.34,1.08 0.6,0 1.08,-0.3 0.48,-0.36 0.78,-0.84 v -0.12 q 0,-0.54 -0.42,-0.96 -0.42,-0.42 -0.42,-1.02 0,-0.36 0.24,-0.72 0.24,-0.36 0.6,-0.36 0.54,0 0.9,0.36 0.36,0.36 0.6,0.9 0.24,0.48 0.3,1.02 0.12,0.54 0.12,0.96 0,0.72 -0.42,1.26 -0.42,0.48 -1.08,0.84 -0.6,0.3 -1.32,0.48 -0.72,0.18 -1.26,0.18 -1.68,0 -2.64,-1.08 -0.9,-1.14 -1.68,-2.4 -0.84,1.38 -1.98,2.46 -1.14,1.02 -2.88,1.02 -1.44,0 -2.76,-0.72 -1.32,-0.72 -1.32,-2.46 0,-0.36 0.12,-0.84 0.12,-0.48 0.36,-0.9 0.24,-0.48 0.6,-0.78 0.36,-0.3 0.78,-0.3 0.36,0 0.6,0.42 0.24,0.36 0.24,0.66 0,0.6 -0.42,1.08 -0.42,0.42 -0.42,0.9 v 0.12 q 0.3,0.54 0.84,1.02 0.54,0.42 1.2,0.42 0.66,0 1.32,-0.42 0.72,-0.42 1.32,-1.02 0.6,-0.6 1.02,-1.26 0.48,-0.66 0.78,-1.2 z m 1.86,-0.54 q 2.46,1.56 4.68,3.42 2.28,1.8 4.44,3.72 2.4,-2.34 5.04,-4.32 l -7.74,-14.82 z m 9.06,-17.22 9.06,17.28 q 0.48,-0.3 0.9,-0.54 0.48,-0.3 0.96,-0.6 l -9.72,-18.36 z m 20.04,33.36 -8.46,-15.96 -1.86,1.2 6.06,11.46 q 0.18,0.36 0.72,0.84 0.54,0.48 1.2,1.02 0.66,0.48 1.32,0.9 0.66,0.36 1.02,0.54 z" />
    </g>
  </g>
</svg>
