<?xml version="1.0" encoding="UTF-8" standalone="no"?>
<svg
   xmlns:dc="http://purl.org/dc/elements/1.1/"
   xmlns:cc="http://creativecommons.org/ns#"
   xmlns:rdf="http://www.w3.org/1999/02/22-rdf-syntax-ns#"
   xmlns:svg="http://www.w3.org/2000/svg"
   xmlns="http://www.w3.org/2000/svg"
   id="svg16"
   width="800px"
   version="1.1"
   height="200px">
  <metadata
     id="metadata20">
    <rdf:RDF>
      <cc:Work
         rdf:about="">
        <dc:format>image/svg+xml</dc:format>
        <dc:type
           rdf:resource="http://purl.org/dc/dcmitype/StillImage" />
      </cc:Work>
    </rdf:RDF>
  </metadata>
  <defs
     id="defs4">
    <style
       id="style2"
       type="text/css"><![CDATA[    
     @font-face {font-family:Heading Pro Trial;
     src: url('/Users/francesco/Repos/write-logos/src/fonts/Fonts_E_TEMPORANEA/Heading-Pro-Heavy-trial.ttf');}
     @font-face {font-family:Scrittura Ravvicinata;
     src: url('/Users/francesco/Repos/write-logos/src/fonts/Fonts_X/ScritturaRavvicinata-Regular.ttf');}
     ]]></style>
  </defs>
  <g
     id="g14"
     style="font-size:60px">
    <g
       style="text-anchor:middle"
       id="text12"
       aria-label="EXTEMPORANEA">
      <path
         id="path22"
         style="font-family:'Heading Pro Trial';letter-spacing:0.075em"
         d="M 210.23828,100 V 55.410156 h 20.50781 v 9.257813 h -11.01562 v 8.203125 h 8.99414 v 9.257812 h -8.99414 v 8.642578 h 11.01562 V 100 Z" />
      <path
         id="path24"
         style="font-family:'Scrittura Ravvicinata';letter-spacing:0.05em"
         d="m 255.64703,91 q -0.12,0 -0.9,-1.56 -0.78,-1.56 -0.84,-1.56 -0.24,0 -0.78,-1.44 -0.66,-1.56 -1.08,-1.8 -0.3,-0.24 -0.48,-0.12 -0.18,0.12 -0.48,0.72 -0.3,0.6 -0.6,1.08 -0.3,0.42 -0.54,1.08 -0.3,0.66 -0.78,1.32 -0.42,0.66 -0.72,1.38 -0.36,0.9 -1.2,2.34 -0.78,1.2 -0.78,1.56 0,0.24 -0.54,0.78 -0.54,0.48 -1.14,1.98 -0.66,1.5 -0.96,1.68 -0.12,0.06 -0.78,1.38 -1.2,2.46 -2.1,2.46 -0.66,0 -0.9,-1.14 -0.24,-0.9 -0.24,-2.76 0,-3.96 0.72,-4.98 0.24,-0.42 0.54,-1.5 0.78,-3 1.32,-3 0.48,0 0.6,0.96 0.18,0.9 0.42,0.9 0.06,0 0.36,-0.18 0.48,-0.48 2.58,-4.56 0.36,-0.66 0.78,-1.32 0.48,-0.72 0.96,-1.8 0.84,-1.62 0.9,-1.68 0.18,-0.18 0.48,-0.78 0.18,-0.36 0.18,-0.66 0,-0.48 -0.54,-1.5 -0.18,-0.36 -0.42,-0.84 -0.18,-0.54 -0.48,-1.08 -0.24,-0.54 -0.3,-0.72 -0.42,-1.2 -0.66,-1.32 -0.18,-0.12 -0.66,-1.14 -0.42,-1.02 -0.42,-1.26 0,-0.3 -0.36,-0.66 -0.42,-0.54 -1.02,-2.46 -0.78,-2.04 -0.96,-2.16 -0.42,-0.3 -1.02,-3 -0.54,-2.76 -0.54,-4.32 0,-0.66 0.12,-0.78 0.18,-0.3 0.18,-0.96 0,-0.72 0.36,-0.72 0.36,0 0.78,0.6 0.48,0.54 0.6,1.14 0.9,3.72 1.56,4.38 0.3,0.3 0.3,0.66 0,0.24 1.2,3 l 1.2,2.7 q 0.18,0.6 0.48,0.6 0.24,0 0.24,0.3 0,0.36 0.36,1.32 0.42,0.9 0.48,1.02 0.12,0.72 0.36,0.72 0.3,0 0.72,1.26 l 0.42,1.26 0.6,-0.72 q 0.42,-0.54 1.02,-1.8 0.42,-1.2 0.78,-1.56 0.12,-0.12 0.78,-1.62 0.72,-1.56 0.84,-1.68 0.24,-0.12 1.56,-2.94 1.14,-2.52 2.04,-3.84 0.78,-1.26 0.9,-1.62 0.24,-0.6 0.54,-0.72 0.36,-0.12 0.36,-0.48 0,-0.42 1.08,-1.5 0.84,-0.84 1.14,-0.84 0.48,0 0.48,2.88 0,2.4 -0.66,3.66 -0.72,1.2 -1.08,1.56 -0.42,0.42 -0.42,0.78 0,0.18 -0.9,1.62 -0.9,1.44 -0.9,1.62 0,0.3 -0.6,1.02 -0.66,0.66 -1.08,1.92 -0.42,1.2 -0.78,1.56 -0.36,0.36 -0.36,0.54 0,0.18 -1.44,3.06 -1.38,2.76 -1.38,3.36 0,0.48 0.48,1.68 0.48,1.2 0.84,1.56 0.18,0.18 0.78,1.44 0.6,1.2 0.84,1.44 0.18,0.18 0.96,1.74 0.84,1.56 1.08,1.74 0.36,0.36 0.36,0.66 0,0.36 0.66,1.02 0.66,0.66 0.66,0.78 0,0.12 0.84,1.32 0.84,1.14 1.08,1.38 0.36,0.36 0.36,0.6 0,0.36 0.6,0.96 1.2,1.38 1.2,4.02 0,2.58 -0.66,2.58 -0.3,0 -0.6,-0.48 -0.3,-0.48 -1.02,-1.32 -0.66,-0.84 -1.14,-1.56 -0.84,-1.2 -1.02,-1.2 -0.12,-0.06 -0.72,-1.08 -0.54,-1.02 -0.72,-1.02 -0.24,0 -0.78,-1.14 -0.3,-0.66 -1.02,-1.68 -0.72,-1.02 -1.02,-1.74 -0.36,-0.78 -0.54,-0.78 z" />
      <path
         id="path26"
         style="font-family:'Heading Pro Trial';letter-spacing:0.075em"
         d="M 286.49805,64.667969 V 100 h -9.55078 V 64.667969 h -6.6504 v -9.257813 h 22.85157 v 9.257813 z" />
      <path
         id="path28"
         style="font-family:'Heading Pro Trial';letter-spacing:0.075em"
         d="M 300.87109,100 V 55.410156 h 20.50782 v 9.257813 h -11.01563 v 8.203125 h 8.99414 v 9.257812 h -8.99414 v 8.642578 h 11.01563 V 100 Z" />
      <path
         id="path30"
         style="font-family:'Heading Pro Trial';letter-spacing:0.075em"
         d="M 340,77.265625 340.76172,100 h -9.49219 V 55.410156 h 11.63086 l 4.27734,21.650391 4.27735,-21.650391 h 11.54297 V 100 h -9.49219 l 0.73242,-22.177734 -3.25195,17.607421 h -7.61719 z" />
      <path
         id="path32"
         style="font-family:'Heading Pro Trial';letter-spacing:0.075em"
         d="m 396.29687,74.658203 q 0,3.310547 -0.8496,5.537109 -0.82032,2.226563 -2.37305,3.603516 -1.52344,1.347656 -3.69141,1.933594 -2.13867,0.55664 -4.77539,0.55664 h -1.72851 V 100 h -9.49219 V 55.410156 h 11.16211 q 2.63672,0 4.77539,0.585938 2.16797,0.585937 3.7207,1.933593 1.55274,1.31836 2.40235,3.486329 0.8496,2.167968 0.8496,5.332031 z m -9.52148,-7.910156 q 0,-1.025391 -0.49805,-1.552735 -0.46875,-0.527343 -1.72851,-0.527343 h -1.66992 v 12.451172 h 1.55273 q 1.34766,0 1.8457,-0.585938 0.49805,-0.615234 0.49805,-1.875 z" />
      <path
         id="path34"
         style="font-family:'Heading Pro Trial';letter-spacing:0.075em"
         d="m 404.89844,66.630859 q 0,-2.636718 0.58593,-4.833984 0.58594,-2.197266 1.9336,-3.779297 1.37695,-1.582031 3.57422,-2.431641 2.19726,-0.878906 5.44922,-0.878906 3.25195,0 5.44921,0.878906 2.19727,0.84961 3.54493,2.431641 1.37695,1.582031 1.96289,3.779297 0.58593,2.197266 0.58593,4.863281 V 88.75 q 0,2.636719 -0.58593,4.833984 -0.58594,2.197266 -1.96289,3.779297 -1.34766,1.582031 -3.54493,2.460938 -2.19726,0.849611 -5.44921,0.849611 -3.25196,0 -5.44922,-0.849611 -2.19727,-0.878907 -3.57422,-2.460938 -1.34766,-1.582031 -1.9336,-3.779297 -0.58593,-2.197265 -0.58593,-4.863281 z m 11.54297,24.785157 q 0.0293,0 0.0293,0.0293 0.0293,0 0.0586,0 0.61523,-0.0293 0.99609,-0.292968 0.41016,-0.292969 0.61523,-0.673828 0.20508,-0.410157 0.26368,-0.878907 0.0879,-0.46875 0.0879,-0.849609 V 66.660156 q 0,-0.380859 -0.0879,-0.849609 -0.0586,-0.46875 -0.29297,-0.878906 -0.20508,-0.410157 -0.61524,-0.673829 -0.41015,-0.292968 -1.05468,-0.292968 -0.0879,0 -0.11719,-0.0293 -0.61524,0.0293 -0.9961,0.322265 -0.38085,0.292969 -0.58593,0.703125 -0.20508,0.38086 -0.29297,0.84961 -0.0586,0.439453 -0.0586,0.820312 v 22.089844 q 0,0.380859 0.0586,0.849609 0.0879,0.46875 0.29297,0.878907 0.23437,0.410156 0.61523,0.703125 0.41016,0.263672 1.08399,0.263672 z" />
      <path
         id="path36"
         style="font-family:'Heading Pro Trial';letter-spacing:0.075em"
         d="M 437.46484,100 V 55.410156 h 11.92383 q 2.8418,0 5.00977,0.673828 2.16797,0.644532 3.63281,2.050782 1.46484,1.40625 2.19727,3.603515 0.76171,2.167969 0.76171,5.185547 v 5.214844 q 0,2.578125 -1.08398,4.658203 -1.08398,2.050781 -2.7832,3.544922 0.82031,0.585937 1.34765,1.201172 0.55664,0.585937 0.87891,1.464843 0.35156,0.84961 0.52734,2.109375 0.20508,1.259766 0.32227,3.164063 l 0.35156,5.947266 q 0.0879,1.054687 0.26367,1.904296 0.20508,0.820313 0.46875,1.523438 0.26367,0.703125 0.52735,1.289062 0.29297,0.556641 0.55664,1.054688 h -9.78516 q -0.0586,-0.08789 -0.29297,-0.585938 -0.20508,-0.498046 -0.46875,-1.230468 -0.26367,-0.761719 -0.49804,-1.699219 -0.23438,-0.966797 -0.29297,-1.992188 l -0.38086,-6.005859 q -0.0586,-1.464844 -0.35157,-2.373047 -0.26367,-0.9375 -0.67382,-1.435547 -0.41016,-0.498047 -0.9375,-0.673828 -0.52735,-0.175781 -1.08399,-0.146484 h -0.64453 V 100 Z m 14.03321,-33.193359 q 0,-0.439454 -0.0879,-0.820313 -0.0879,-0.380859 -0.35157,-0.673828 -0.23437,-0.292969 -0.67382,-0.46875 -0.43946,-0.175781 -1.11329,-0.175781 h -2.31445 v 9.93164 h 2.31445 q 1.34766,0 1.78711,-0.703125 0.43946,-0.703125 0.43946,-1.757812 z" />
      <path
         id="path38"
         style="font-family:'Heading Pro Trial';letter-spacing:0.075em"
         d="m 474.80664,55.380859 h 12.33398 L 493.9375,100 h -9.55078 l -0.67383,-5.830078 h -5.50781 L 477.56055,100 h -9.55078 z m 4.39453,30.087891 h 3.54492 l -1.78711,-15.849609 z" />
      <path
         id="path40"
         style="font-family:'Heading Pro Trial';letter-spacing:0.075em"
         d="M 502.83203,100 V 55.410156 h 11.01563 l 5.47851,19.804688 -0.26367,-19.804688 h 9.49219 V 100 H 518.47656 L 512.03125,78.466797 512.32422,100 Z" />
      <path
         id="path42"
         style="font-family:'Heading Pro Trial';letter-spacing:0.075em"
         d="M 537.56641,100 V 55.410156 h 20.50781 v 9.257813 h -11.01563 v 8.203125 h 8.99414 v 9.257812 h -8.99414 v 8.642578 h 11.01563 V 100 Z" />
      <path
         id="path44"
         style="font-family:'Heading Pro Trial';letter-spacing:0.075em"
         d="m 572.0957,55.380859 h 12.33399 L 591.22656,100 h -9.55078 l -0.67383,-5.830078 h -5.50781 L 574.84961,100 h -9.55078 z m 4.39453,30.087891 h 3.54493 l -1.78711,-15.849609 z" />
    </g>
  </g>
</svg>
