<?xml version="1.0" encoding="UTF-8" standalone="no"?>
<svg
   xmlns:dc="http://purl.org/dc/elements/1.1/"
   xmlns:cc="http://creativecommons.org/ns#"
   xmlns:rdf="http://www.w3.org/1999/02/22-rdf-syntax-ns#"
   xmlns:svg="http://www.w3.org/2000/svg"
   xmlns="http://www.w3.org/2000/svg"
   id="svg16"
   width="800px"
   version="1.1"
   height="200px">
  <metadata
     id="metadata20">
    <rdf:RDF>
      <cc:Work
         rdf:about="">
        <dc:format>image/svg+xml</dc:format>
        <dc:type
           rdf:resource="http://purl.org/dc/dcmitype/StillImage" />
      </cc:Work>
    </rdf:RDF>
  </metadata>
  <defs
     id="defs4">
    <style
       id="style2"
       type="text/css"><![CDATA[    
     @font-face {font-family:Heading Pro Trial;
     src: url('/Users/francesco/Repos/write-logos/src/fonts/Fonts_E_TEMPORANEA/Heading-Pro-Heavy-trial.ttf');}
     @font-face {font-family:Iceberg;
     src: url('/Users/francesco/Repos/write-logos/src/fonts/Fonts_X/Iceberg-Regular.ttf');}
     ]]></style>
  </defs>
  <g
     id="g14"
     style="font-size:60px">
    <g
       style="text-anchor:middle"
       id="text12"
       aria-label="EXTEMPORANEA">
      <path
         id="path22"
         style="font-family:'Heading Pro Trial';letter-spacing:0.075em"
         d="M 208.59766,100 V 55.410156 h 20.50781 v 9.257813 h -11.01563 v 8.203125 h 8.99414 v 9.257812 h -8.99414 v 8.642578 h 11.01563 V 100 Z" />
      <path
         id="path24"
         style="font-family:Iceberg;letter-spacing:0.05em"
         d="m 265.34641,100 h -5.94 V 89.98 l -6.9,-9.96 h -0.72 l -6.48,9.96 V 100 h -5.88 V 88.54 l 8.88,-12.6 -8.88,-12 v -5.4 h 5.88 v 4.14 l 6.96,9.84 h 0.72 l 6.42,-9.84 v -4.14 h 5.94 v 5.4 l -8.82,12 8.76,12.6 z" />
      <path
         id="path26"
         style="font-family:'Heading Pro Trial';letter-spacing:0.075em"
         d="M 288.13867,64.667969 V 100 h -9.55078 V 64.667969 h -6.65039 v -9.257813 h 22.85156 v 9.257813 z" />
      <path
         id="path28"
         style="font-family:'Heading Pro Trial';letter-spacing:0.075em"
         d="M 302.51172,100 V 55.410156 h 20.50781 v 9.257813 h -11.01562 v 8.203125 h 8.99414 v 9.257812 h -8.99414 v 8.642578 h 11.01562 V 100 Z" />
      <path
         id="path30"
         style="font-family:'Heading Pro Trial';letter-spacing:0.075em"
         d="M 341.64062,77.265625 342.40234,100 h -9.49218 V 55.410156 h 11.63086 l 4.27734,21.650391 4.27734,-21.650391 h 11.54297 V 100 h -9.49219 l 0.73243,-22.177734 -3.25196,17.607421 h -7.61718 z" />
      <path
         id="path32"
         style="font-family:'Heading Pro Trial';letter-spacing:0.075em"
         d="m 397.9375,74.658203 q 0,3.310547 -0.84961,5.537109 -0.82031,2.226563 -2.37305,3.603516 -1.52343,1.347656 -3.6914,1.933594 -2.13867,0.55664 -4.77539,0.55664 h -1.72852 V 100 h -9.49219 V 55.410156 h 11.16211 q 2.63672,0 4.77539,0.585938 2.16797,0.585937 3.72071,1.933593 1.55273,1.31836 2.40234,3.486329 0.84961,2.167968 0.84961,5.332031 z m -9.52148,-7.910156 q 0,-1.025391 -0.49805,-1.552735 -0.46875,-0.527343 -1.72852,-0.527343 h -1.66992 v 12.451172 h 1.55274 q 1.34765,0 1.8457,-0.585938 0.49805,-0.615234 0.49805,-1.875 z" />
      <path
         id="path34"
         style="font-family:'Heading Pro Trial';letter-spacing:0.075em"
         d="m 406.53906,66.630859 q 0,-2.636718 0.58594,-4.833984 0.58594,-2.197266 1.93359,-3.779297 1.37696,-1.582031 3.57422,-2.431641 2.19727,-0.878906 5.44922,-0.878906 3.25195,0 5.44922,0.878906 2.19727,0.84961 3.54492,2.431641 1.37695,1.582031 1.96289,3.779297 0.58594,2.197266 0.58594,4.863281 V 88.75 q 0,2.636719 -0.58594,4.833984 -0.58594,2.197266 -1.96289,3.779297 -1.34765,1.582031 -3.54492,2.460938 -2.19727,0.849611 -5.44922,0.849611 -3.25195,0 -5.44922,-0.849611 -2.19726,-0.878907 -3.57422,-2.460938 -1.34765,-1.582031 -1.93359,-3.779297 -0.58594,-2.197265 -0.58594,-4.863281 z m 11.54297,24.785157 q 0.0293,0 0.0293,0.0293 0.0293,0 0.0586,0 0.61524,-0.0293 0.9961,-0.292968 0.41015,-0.292969 0.61523,-0.673828 0.20508,-0.410157 0.26367,-0.878907 0.0879,-0.46875 0.0879,-0.849609 V 66.660156 q 0,-0.380859 -0.0879,-0.849609 -0.0586,-0.46875 -0.29297,-0.878906 -0.20508,-0.410157 -0.61523,-0.673829 -0.41016,-0.292968 -1.05469,-0.292968 -0.0879,0 -0.11719,-0.0293 -0.61523,0.0293 -0.99609,0.322265 -0.38086,0.292969 -0.58594,0.703125 -0.20508,0.38086 -0.29297,0.84961 -0.0586,0.439453 -0.0586,0.820312 v 22.089844 q 0,0.380859 0.0586,0.849609 0.0879,0.46875 0.29297,0.878907 0.23438,0.410156 0.61524,0.703125 0.41015,0.263672 1.08398,0.263672 z" />
      <path
         id="path36"
         style="font-family:'Heading Pro Trial';letter-spacing:0.075em"
         d="M 439.10547,100 V 55.410156 h 11.92383 q 2.84179,0 5.00976,0.673828 2.16797,0.644532 3.63281,2.050782 1.46485,1.40625 2.19727,3.603515 0.76172,2.167969 0.76172,5.185547 v 5.214844 q 0,2.578125 -1.08399,4.658203 -1.08398,2.050781 -2.7832,3.544922 0.82031,0.585937 1.34766,1.201172 0.55664,0.585937 0.8789,1.464843 0.35157,0.84961 0.52735,2.109375 0.20508,1.259766 0.32226,3.164063 l 0.35157,5.947266 q 0.0879,1.054687 0.26367,1.904296 0.20508,0.820313 0.46875,1.523438 0.26367,0.703125 0.52734,1.289062 0.29297,0.556641 0.55664,1.054688 h -9.78515 q -0.0586,-0.08789 -0.29297,-0.585938 -0.20508,-0.498046 -0.46875,-1.230468 -0.26367,-0.761719 -0.49805,-1.699219 -0.23437,-0.966797 -0.29297,-1.992188 l -0.38086,-6.005859 q -0.0586,-1.464844 -0.35156,-2.373047 -0.26367,-0.9375 -0.67383,-1.435547 -0.41015,-0.498047 -0.9375,-0.673828 -0.52734,-0.175781 -1.08398,-0.146484 h -0.64453 V 100 Z m 14.0332,-33.193359 q 0,-0.439454 -0.0879,-0.820313 -0.0879,-0.380859 -0.35156,-0.673828 -0.23438,-0.292969 -0.67383,-0.46875 -0.43945,-0.175781 -1.11328,-0.175781 h -2.31445 v 9.93164 h 2.31445 q 1.34766,0 1.78711,-0.703125 0.43945,-0.703125 0.43945,-1.757812 z" />
      <path
         id="path38"
         style="font-family:'Heading Pro Trial';letter-spacing:0.075em"
         d="m 476.44727,55.380859 h 12.33398 L 495.57812,100 h -9.55078 l -0.67382,-5.830078 H 479.8457 L 479.20117,100 h -9.55078 z m 4.39453,30.087891 h 3.54492 l -1.78711,-15.849609 z" />
      <path
         id="path40"
         style="font-family:'Heading Pro Trial';letter-spacing:0.075em"
         d="M 504.47266,100 V 55.410156 h 11.01562 l 5.47852,19.804688 -0.26368,-19.804688 h 9.49219 V 100 H 520.11719 L 513.67187,78.466797 513.96484,100 Z" />
      <path
         id="path42"
         style="font-family:'Heading Pro Trial';letter-spacing:0.075em"
         d="M 539.20703,100 V 55.410156 h 20.50781 v 9.257813 h -11.01562 v 8.203125 h 8.99414 v 9.257812 h -8.99414 v 8.642578 h 11.01562 V 100 Z" />
      <path
         id="path44"
         style="font-family:'Heading Pro Trial';letter-spacing:0.075em"
         d="m 573.73633,55.380859 h 12.33398 L 592.86719,100 h -9.55078 l -0.67383,-5.830078 h -5.50781 L 576.49023,100 h -9.55078 z m 4.39453,30.087891 h 3.54492 l -1.78711,-15.849609 z" />
    </g>
  </g>
</svg>
