<?xml version="1.0" encoding="UTF-8" standalone="no"?>
<svg
   xmlns:dc="http://purl.org/dc/elements/1.1/"
   xmlns:cc="http://creativecommons.org/ns#"
   xmlns:rdf="http://www.w3.org/1999/02/22-rdf-syntax-ns#"
   xmlns:svg="http://www.w3.org/2000/svg"
   xmlns="http://www.w3.org/2000/svg"
   id="svg16"
   width="800px"
   version="1.1"
   height="200px">
  <metadata
     id="metadata20">
    <rdf:RDF>
      <cc:Work
         rdf:about="">
        <dc:format>image/svg+xml</dc:format>
        <dc:type
           rdf:resource="http://purl.org/dc/dcmitype/StillImage" />
      </cc:Work>
    </rdf:RDF>
  </metadata>
  <defs
     id="defs4">
    <style
       id="style2"
       type="text/css"><![CDATA[    
     @font-face {font-family:Heading Pro Trial;
     src: url('/Users/francesco/Repos/write-logos/src/fonts/Fonts_E_TEMPORANEA/Heading-Pro-Heavy-trial.ttf');}
     @font-face {font-family:PWChalk;
     src: url('/Users/francesco/Repos/write-logos/src/fonts/Fonts_X/PWChalk.ttf');}
     ]]></style>
  </defs>
  <g
     id="g14"
     style="font-size:60px">
    <g
       style="text-anchor:middle"
       id="text12"
       aria-label="EXTEMPORANEA">
      <path
         id="path22"
         style="font-family:'Heading Pro Trial';letter-spacing:0.075em"
         d="M 203.85156,100 V 55.410156 h 20.50781 v 9.257813 h -11.01562 v 8.203125 h 8.99414 v 9.257812 h -8.99414 v 8.642578 h 11.01562 V 100 Z" />
      <path
         id="path24"
         style="font-family:PWChalk;letter-spacing:0.05em"
         d="m 238.76031,69.1 1.74,1.98 -0.84,-1.08 -2.58,-4.02 -1.26,-1.86 0.42,0.96 1.92,3.18 z m 12.42,18.66 0.3,0.54 2.16,3.3 1.62,2.58 -0.66,0.36 0.48,0.66 1.62,1.68 0.9,0.72 0.06,0.12 -0.12,-0.84 -1.38,-2.22 -1.26,-2.16 -0.42,-0.6 -2.28,-2.88 z m -6.54,-8.4 -0.12,0.12 0.12,0.18 0.66,1.02 0.18,-0.24 z m 8.4,8.34 -0.9,-1.38 -0.48,-0.6 1.08,1.56 0.84,1.32 z m -17.76,3.24 V 91 Z m 8.1,-4.62 2.4,-3.24 -0.24,-0.3 -0.3,0.42 z m 13.92,-18.6 2.76,-3.72 -1.5,1.56 -3.6,4.44 z m -9.72,15.96 -0.12,0.24 0.3,0.42 2.88,4.44 -2.16,-3.66 z m -1.02,-1.62 -0.24,-0.42 -0.18,0.24 0.24,0.42 z m 3.24,-4.02 -0.48,-0.6 -0.48,0.72 0.42,0.6 z m -7.62,-9.3 0.3,0.54 2.76,4.2 v 0.06 l 0.9,1.14 0.48,-0.6 -0.96,-1.2 -2.7,-3.18 z m 6.3,6.06 0.66,0.84 3.18,-4.56 3.84,-5.16 3,-4.02 -2.58,2.64 -4.32,4.5 0.66,0.6 z m 1.5,1.86 0.42,0.6 0.6,-0.72 0.6,-0.72 1.5,-2.22 1.32,-1.8 -0.9,0.9 z m -2.16,-1.14 -0.54,0.6 0.24,0.3 0.54,0.72 0.24,-0.3 0.3,-0.42 -0.12,-0.12 z m -14.58,20.88 -0.84,-0.36 0.06,-0.24 -0.18,0.3 -0.42,1.26 -0.06,0.6 -0.96,-0.12 0.06,-0.72 0.54,-1.38 1.5,-2.76 2.22,-3.72 3.3,-5.04 4.2,-5.34 0.24,-0.3 -2.16,-3.48 -0.84,-1.38 -2.22,-2.7 -2.34,-3 -1.5,-2.1 0.72,-0.66 0.78,0.54 0.3,0.24 -0.06,-0.12 -0.18,-0.36 -0.24,-0.42 -1.86,-2.82 -1.02,-1.98 0.54,-0.3 -0.06,-0.06 0.54,-0.3 -0.3,-0.66 0.78,-0.6 0.72,0.6 1.32,1.62 v -0.06 l -0.48,-0.84 0.84,-0.54 0.06,0.18 0.9,-0.24 0.24,0.9 1.08,2.22 0.36,0.66 2.1,2.82 2.76,3.36 2.7,3.18 0.9,1.02 4.26,-4.86 4.32,-4.62 3.66,-3.66 2.4,-2.16 1.08,-0.9 0.72,0.66 -1.2,1.44 -2.34,2.94 -1.2,1.62 1.98,-2.1 1.8,-1.68 0.9,-0.66 0.66,0.72 -0.96,1.44 -2.46,3 -1.38,1.86 0.18,0.24 0.78,-0.84 1.62,-1.74 1.08,-1.2 2.7,-2.76 0.84,-0.84 0.72,0.6 -0.9,1.02 -2.16,2.22 -1.56,1.62 -2.4,2.7 -4.14,4.62 -3.18,3.6 -1.86,2.7 0.48,0.66 2.52,3.3 2.58,3.3 2.16,3.3 1.98,3.12 1.62,2.52 1.2,1.68 0.48,0.78 -0.84,0.48 -0.48,-0.78 -1.2,-1.68 -1.62,-2.52 -1.98,-3.12 -2.16,-3.18 -2.46,-3.3 -2.52,-3.3 -0.36,-0.42 -0.54,0.78 0.6,0.84 3.12,4.02 2.52,3.84 2.58,3.36 0.48,0.78 0.84,1.02 0.9,1.74 1.32,2.1 0.96,1.32 -0.84,0.6 -0.96,-1.44 -1.02,-1.56 -0.78,-0.78 -1.62,-1.86 -0.3,-0.36 0.6,1.38 -0.6,0.72 0.6,1.02 -0.12,1.8 -1.14,0.12 -1.14,-0.96 -1.74,-1.8 -2.1,-2.82 -2.46,-3.72 -2.88,-4.44 -1.5,2.34 -2.82,4.62 -1.92,3.06 -0.66,0.54 -0.66,-0.66 0.42,-0.54 1.2,-2.34 2.16,-3.54 0.6,-0.96 -1.14,1.5 -3.66,5.4 -2.58,4.14 -0.84,1.44 -0.54,1.02 -0.12,-0.06 -0.36,0.54 -0.54,1.08 -0.84,-0.36 0.54,-1.2 1.38,-2.22 0.78,-1.5 2.58,-4.68 1.14,-1.98 -0.9,1.38 -2.34,4.32 -1.5,2.64 -0.84,-0.48 1.5,-2.64 2.34,-4.32 3.78,-5.82 3.12,-4.02 -0.84,-1.26 -1.44,1.74 -3.78,5.1 -2.52,4.32 -1.8,2.58 -0.72,1.56 z" />
      <path
         id="path26"
         style="font-family:'Heading Pro Trial';letter-spacing:0.075em"
         d="M 292.88477,64.667969 V 100 h -9.55079 V 64.667969 h -6.65039 v -9.257813 h 22.85157 v 9.257813 z" />
      <path
         id="path28"
         style="font-family:'Heading Pro Trial';letter-spacing:0.075em"
         d="M 307.25781,100 V 55.410156 h 20.50781 v 9.257813 H 316.75 v 8.203125 h 8.99414 v 9.257812 H 316.75 v 8.642578 h 11.01562 V 100 Z" />
      <path
         id="path30"
         style="font-family:'Heading Pro Trial';letter-spacing:0.075em"
         d="M 346.38672,77.265625 347.14844,100 h -9.49219 V 55.410156 h 11.63086 l 4.27734,21.650391 4.27735,-21.650391 h 11.54297 V 100 h -9.49219 l 0.73242,-22.177734 -3.25195,17.607421 h -7.61719 z" />
      <path
         id="path32"
         style="font-family:'Heading Pro Trial';letter-spacing:0.075em"
         d="m 402.68359,74.658203 q 0,3.310547 -0.84961,5.537109 -0.82031,2.226563 -2.37304,3.603516 -1.52344,1.347656 -3.69141,1.933594 -2.13867,0.55664 -4.77539,0.55664 h -1.72852 V 100 h -9.49218 V 55.410156 h 11.16211 q 2.63672,0 4.77539,0.585938 2.16797,0.585937 3.7207,1.933593 1.55273,1.31836 2.40234,3.486329 0.84961,2.167968 0.84961,5.332031 z m -9.52148,-7.910156 q 0,-1.025391 -0.49805,-1.552735 -0.46875,-0.527343 -1.72851,-0.527343 h -1.66993 v 12.451172 h 1.55274 q 1.34766,0 1.8457,-0.585938 0.49805,-0.615234 0.49805,-1.875 z" />
      <path
         id="path34"
         style="font-family:'Heading Pro Trial';letter-spacing:0.075em"
         d="m 411.28516,66.630859 q 0,-2.636718 0.58593,-4.833984 0.58594,-2.197266 1.9336,-3.779297 1.37695,-1.582031 3.57422,-2.431641 2.19726,-0.878906 5.44921,-0.878906 3.25196,0 5.44922,0.878906 2.19727,0.84961 3.54493,2.431641 1.37695,1.582031 1.96289,3.779297 0.58593,2.197266 0.58593,4.863281 V 88.75 q 0,2.636719 -0.58593,4.833984 -0.58594,2.197266 -1.96289,3.779297 -1.34766,1.582031 -3.54493,2.460938 -2.19726,0.849611 -5.44922,0.849611 -3.25195,0 -5.44921,-0.849611 -2.19727,-0.878907 -3.57422,-2.460938 -1.34766,-1.582031 -1.9336,-3.779297 -0.58593,-2.197265 -0.58593,-4.863281 z m 11.54296,24.785157 q 0.0293,0 0.0293,0.0293 0.0293,0 0.0586,0 0.61523,-0.0293 0.99609,-0.292968 0.41016,-0.292969 0.61523,-0.673828 0.20508,-0.410157 0.26368,-0.878907 0.0879,-0.46875 0.0879,-0.849609 V 66.660156 q 0,-0.380859 -0.0879,-0.849609 -0.0586,-0.46875 -0.29297,-0.878906 -0.20508,-0.410157 -0.61524,-0.673829 -0.41015,-0.292968 -1.05469,-0.292968 -0.0879,0 -0.11718,-0.0293 -0.61524,0.0293 -0.9961,0.322265 -0.38086,0.292969 -0.58593,0.703125 -0.20508,0.38086 -0.29297,0.84961 -0.0586,0.439453 -0.0586,0.820312 v 22.089844 q 0,0.380859 0.0586,0.849609 0.0879,0.46875 0.29297,0.878907 0.23437,0.410156 0.61523,0.703125 0.41016,0.263672 1.08398,0.263672 z" />
      <path
         id="path36"
         style="font-family:'Heading Pro Trial';letter-spacing:0.075em"
         d="M 443.85156,100 V 55.410156 h 11.92383 q 2.8418,0 5.00977,0.673828 2.16796,0.644532 3.63281,2.050782 1.46484,1.40625 2.19726,3.603515 0.76172,2.167969 0.76172,5.185547 v 5.214844 q 0,2.578125 -1.08398,4.658203 -1.08399,2.050781 -2.7832,3.544922 0.82031,0.585937 1.34765,1.201172 0.55664,0.585937 0.87891,1.464843 0.35156,0.84961 0.52734,2.109375 0.20508,1.259766 0.32227,3.164063 l 0.35156,5.947266 q 0.0879,1.054687 0.26367,1.904296 0.20508,0.820313 0.46875,1.523438 0.26367,0.703125 0.52735,1.289062 0.29296,0.556641 0.55664,1.054688 h -9.78516 q -0.0586,-0.08789 -0.29297,-0.585938 -0.20508,-0.498046 -0.46875,-1.230468 -0.26367,-0.761719 -0.49805,-1.699219 -0.23437,-0.966797 -0.29296,-1.992188 l -0.38086,-6.005859 q -0.0586,-1.464844 -0.35157,-2.373047 -0.26367,-0.9375 -0.67382,-1.435547 -0.41016,-0.498047 -0.9375,-0.673828 -0.52735,-0.175781 -1.08399,-0.146484 h -0.64453 V 100 Z m 14.03321,-33.193359 q 0,-0.439454 -0.0879,-0.820313 -0.0879,-0.380859 -0.35156,-0.673828 -0.23437,-0.292969 -0.67383,-0.46875 -0.43945,-0.175781 -1.11328,-0.175781 h -2.31445 v 9.93164 h 2.31445 q 1.34766,0 1.78711,-0.703125 0.43946,-0.703125 0.43946,-1.757812 z" />
      <path
         id="path38"
         style="font-family:'Heading Pro Trial';letter-spacing:0.075em"
         d="m 481.19336,55.380859 h 12.33398 L 500.32422,100 h -9.55078 l -0.67383,-5.830078 H 484.5918 L 483.94727,100 h -9.55079 z m 4.39453,30.087891 h 3.54492 L 487.3457,69.619141 Z" />
      <path
         id="path40"
         style="font-family:'Heading Pro Trial';letter-spacing:0.075em"
         d="M 509.21875,100 V 55.410156 h 11.01562 l 5.47852,19.804688 -0.26367,-19.804688 h 9.49219 V 100 H 524.86328 L 518.41797,78.466797 518.71094,100 Z" />
      <path
         id="path42"
         style="font-family:'Heading Pro Trial';letter-spacing:0.075em"
         d="M 543.95312,100 V 55.410156 h 20.50782 v 9.257813 h -11.01563 v 8.203125 h 8.99414 v 9.257812 h -8.99414 v 8.642578 h 11.01563 V 100 Z" />
      <path
         id="path44"
         style="font-family:'Heading Pro Trial';letter-spacing:0.075em"
         d="m 578.48242,55.380859 h 12.33399 L 597.61328,100 h -9.55078 l -0.67383,-5.830078 h -5.50781 L 581.23633,100 h -9.55078 z m 4.39453,30.087891 h 3.54492 l -1.7871,-15.849609 z" />
    </g>
  </g>
</svg>
