<?xml version="1.0" encoding="UTF-8" standalone="no"?>
<svg
   xmlns:dc="http://purl.org/dc/elements/1.1/"
   xmlns:cc="http://creativecommons.org/ns#"
   xmlns:rdf="http://www.w3.org/1999/02/22-rdf-syntax-ns#"
   xmlns:svg="http://www.w3.org/2000/svg"
   xmlns="http://www.w3.org/2000/svg"
   id="svg16"
   width="800px"
   version="1.1"
   height="200px">
  <metadata
     id="metadata20">
    <rdf:RDF>
      <cc:Work
         rdf:about="">
        <dc:format>image/svg+xml</dc:format>
        <dc:type
           rdf:resource="http://purl.org/dc/dcmitype/StillImage" />
      </cc:Work>
    </rdf:RDF>
  </metadata>
  <defs
     id="defs4">
    <style
       id="style2"
       type="text/css"><![CDATA[    
     @font-face {font-family:Heading Pro Trial;
     src: url('/Users/francesco/Repos/write-logos/src/fonts/Fonts_E_TEMPORANEA/Heading-Pro-Heavy-trial.ttf');}
     @font-face {font-family:Akronim;
     src: url('/Users/francesco/Repos/write-logos/src/fonts/Fonts_X/Akronim-Regular.ttf');}
     ]]></style>
  </defs>
  <g
     id="g14"
     style="font-size:60px">
    <g
       style="text-anchor:middle"
       id="text12"
       aria-label="EXTEMPORANEA">
      <path
         id="path22"
         style="font-family:'Heading Pro Trial';letter-spacing:0.075em"
         d="M 210.0625,100 V 55.410156 h 20.50781 v 9.257813 h -11.01562 v 8.203125 h 8.99414 v 9.257812 h -8.99414 v 8.642578 h 11.01562 V 100 Z" />
      <path
         id="path24"
         style="font-family:Akronim;letter-spacing:0.05em"
         d="m 240.23125,99.28 q -0.12,0.54 -0.18,0.54 -0.12,-0.06 -0.18,-0.24 0,-0.18 0,-0.3 -0.18,-2.76 0.36,-5.34 0.54,-2.64 1.62,-5.16 1.14,-2.52 2.64,-4.86 1.56,-2.4 3.3,-4.62 l 1.32,-1.68 q -2.46,-5.52 -4.86,-10.68 -2.34,-5.22 -5.16,-9 -0.18,-0.24 -0.18,-0.36 0.06,-0.12 0.24,0 0.18,0.12 0.3,0.18 1.86,1.5 3.36,3.54 1.56,2.04 2.88,4.44 1.32,2.34 2.46,4.98 1.14,2.58 2.28,5.22 l 1.02,-1.26 q -0.3,-0.6 -0.96,-1.86 -0.66,-1.32 -1.56,-2.94 -0.9,-1.62 -1.92,-3.42 -0.96,-1.8 -1.98,-3.36 -1.02,-1.62 -1.92,-2.88 -0.9,-1.26 -1.56,-1.8 -0.48,-0.36 -0.3,-0.48 0.12,-0.06 0.54,0.06 1.2,0.48 2.52,1.68 1.38,1.2 2.58,2.7 1.26,1.5 2.28,3.12 1.02,1.62 1.62,2.94 l 2.1,4.5 0.66,-0.72 q -1.2,-2.7 -2.58,-5.46 -1.38,-2.76 -3.3,-5.4 -0.18,-0.3 -0.24,-0.3 -0.06,0 0.06,-0.12 0,0 0.48,0.24 1.68,1.14 3.48,3.78 1.8,2.58 3.42,5.7 3.06,-3.6 6.12,-7.44 3.06,-3.9 4.98,-7.38 0.06,-0.12 0.12,-0.24 0.06,-0.12 0.24,0 0.06,0.06 0,0.24 0,0.18 0,0.24 -0.9,3.3 -2.88,6.54 -1.98,3.18 -4.44,6.36 -2.46,3.12 -5.16,6.24 -2.7,3.06 -5.04,6.12 -1.44,1.92 -2.88,4.14 -1.38,2.16 -2.52,4.5 -1.14,2.28 -1.98,4.68 -0.84,2.34 -1.2,4.62 z m 27.72,0.48 q 0.36,0.18 0.36,0.24 0,0 -0.42,0 -2.4,-0.36 -4.5,-1.56 -2.04,-1.26 -3.84,-3.06 -1.74,-1.8 -3.3,-4.02 -1.5,-2.28 -2.76,-4.62 -1.92,2.28 -4.02,4.5 -2.1,2.16 -3.78,3.72 -0.3,0.3 -0.54,0.54 -0.18,0.24 -0.3,0.18 -0.12,-0.06 0.06,-0.42 0.24,-0.36 0.36,-0.66 1.14,-2.22 2.58,-4.38 1.5,-2.16 3.12,-4.2 1.68,-2.1 3.42,-4.14 1.74,-2.04 3.42,-4.08 2.1,-2.58 4.56,-5.76 2.46,-3.18 4.26,-6.54 0.18,-0.42 0.3,-0.42 0.12,0 0.06,0.3 -0.06,0.24 -0.06,0.42 -0.12,1.26 -0.9,2.94 -0.78,1.68 -1.92,3.54 -1.08,1.8 -2.4,3.72 -1.26,1.86 -2.46,3.48 l 0.54,1.2 q 1.44,3.18 2.94,6.6 1.5,3.42 2.52,6.12 0.12,0.3 0.18,0.66 0.12,0.3 0,0.36 -0.06,0 -0.3,-0.24 -0.24,-0.3 -0.48,-0.6 -2.1,-2.82 -3.78,-5.88 -1.62,-3.06 -3.18,-6.3 -0.72,0.9 -1.44,1.86 -0.72,0.9 -1.44,1.86 1.14,2.22 2.58,4.44 1.44,2.16 3.12,4.14 1.68,1.92 3.54,3.54 1.92,1.56 3.9,2.52 z m -6.42,-28.2 q -2.34,3 -5.16,6.06 -2.82,3 -5.52,5.7 -0.12,0.06 -0.48,0.48 -0.36,0.36 -0.48,0.24 -0.12,-0.06 0.06,-0.6 0.24,-0.54 0.42,-0.78 0.42,-0.72 1.2,-1.8 0.78,-1.14 1.62,-2.28 0.9,-1.2 1.68,-2.28 0.84,-1.14 1.38,-1.8 1.38,-1.8 3,-4.02 1.68,-2.22 3.12,-4.44 1.5,-2.22 2.64,-4.2 1.2,-1.98 1.62,-3.18 0.18,-0.66 0.24,-0.66 0.06,0 0.12,0.24 0.12,0.18 0.12,0.48 0.06,1.32 -0.48,3.12 -0.54,1.74 -1.44,3.54 -0.84,1.8 -1.86,3.48 -0.96,1.62 -1.8,2.7 z m -18.06,24.36 q -0.48,1.2 -0.9,2.22 -0.36,1.02 -0.66,1.86 -0.06,0.12 -0.24,0.3 -0.12,0.18 -0.24,-0.3 -0.18,-1.02 0,-2.22 0.18,-1.2 1.02,-3.12 0.3,-0.72 0.78,-1.62 0.48,-0.96 1.02,-1.74 0.54,-0.84 0.96,-1.38 0.48,-0.54 0.72,-0.36 0,0.06 -0.12,0.42 -0.12,0.36 -0.3,0.78 -0.12,0.42 -0.3,0.84 -0.12,0.36 -0.18,0.48 -0.42,1.14 -0.78,1.98 -0.36,0.84 -0.78,1.86 z m 22.02,-0.12 q 0.96,0.9 1.86,1.68 0.96,0.72 1.98,1.38 0.12,0.12 0.3,0.3 0.18,0.12 0.12,0.18 -0.12,0.12 -0.36,0.12 -0.18,-0.06 -0.48,-0.12 -0.6,-0.18 -1.08,-0.3 -0.48,-0.12 -1.02,-0.36 -0.48,-0.3 -1.08,-0.72 -0.54,-0.42 -1.26,-1.14 -0.6,-0.6 -1.38,-1.5 -0.72,-0.96 -1.38,-1.86 -0.6,-0.96 -0.96,-1.68 -0.36,-0.72 -0.18,-0.84 0.06,-0.06 0.36,0.18 0.3,0.24 0.6,0.6 0.3,0.3 0.54,0.6 0.3,0.3 0.42,0.42 0.84,0.9 1.56,1.62 0.72,0.72 1.44,1.44 z" />
      <path
         id="path26"
         style="font-family:'Heading Pro Trial';letter-spacing:0.075em"
         d="M 286.67383,64.667969 V 100 h -9.55078 V 64.667969 h -6.65039 v -9.257813 h 22.85156 v 9.257813 z" />
      <path
         id="path28"
         style="font-family:'Heading Pro Trial';letter-spacing:0.075em"
         d="M 301.04687,100 V 55.410156 h 20.50782 v 9.257813 h -11.01563 v 8.203125 h 8.99414 v 9.257812 h -8.99414 v 8.642578 h 11.01563 V 100 Z" />
      <path
         id="path30"
         style="font-family:'Heading Pro Trial';letter-spacing:0.075em"
         d="M 340.17578,77.265625 340.9375,100 h -9.49219 V 55.410156 h 11.63086 l 4.27735,21.650391 4.27734,-21.650391 h 11.54297 V 100 h -9.49219 l 0.73242,-22.177734 -3.25195,17.607421 h -7.61719 z" />
      <path
         id="path32"
         style="font-family:'Heading Pro Trial';letter-spacing:0.075em"
         d="m 396.47266,74.658203 q 0,3.310547 -0.84961,5.537109 -0.82032,2.226563 -2.37305,3.603516 -1.52344,1.347656 -3.69141,1.933594 -2.13867,0.55664 -4.77539,0.55664 h -1.72851 V 100 H 373.5625 V 55.410156 h 11.16211 q 2.63672,0 4.77539,0.585938 2.16797,0.585937 3.7207,1.933593 1.55274,1.31836 2.40235,3.486329 0.84961,2.167968 0.84961,5.332031 z m -9.52149,-7.910156 q 0,-1.025391 -0.49805,-1.552735 -0.46875,-0.527343 -1.72851,-0.527343 h -1.66992 v 12.451172 h 1.55273 q 1.34766,0 1.8457,-0.585938 0.49805,-0.615234 0.49805,-1.875 z" />
      <path
         id="path34"
         style="font-family:'Heading Pro Trial';letter-spacing:0.075em"
         d="m 405.07422,66.630859 q 0,-2.636718 0.58594,-4.833984 0.58593,-2.197266 1.93359,-3.779297 1.37695,-1.582031 3.57422,-2.431641 2.19726,-0.878906 5.44922,-0.878906 3.25195,0 5.44922,0.878906 2.19726,0.84961 3.54492,2.431641 1.37695,1.582031 1.96289,3.779297 0.58594,2.197266 0.58594,4.863281 V 88.75 q 0,2.636719 -0.58594,4.833984 -0.58594,2.197266 -1.96289,3.779297 -1.34766,1.582031 -3.54492,2.460938 -2.19727,0.849611 -5.44922,0.849611 -3.25196,0 -5.44922,-0.849611 -2.19727,-0.878907 -3.57422,-2.460938 -1.34766,-1.582031 -1.93359,-3.779297 -0.58594,-2.197265 -0.58594,-4.863281 z m 11.54297,24.785157 q 0.0293,0 0.0293,0.0293 0.0293,0 0.0586,0 0.61523,-0.0293 0.99609,-0.292968 0.41016,-0.292969 0.61524,-0.673828 0.20507,-0.410157 0.26367,-0.878907 0.0879,-0.46875 0.0879,-0.849609 V 66.660156 q 0,-0.380859 -0.0879,-0.849609 -0.0586,-0.46875 -0.29297,-0.878906 -0.20508,-0.410157 -0.61524,-0.673829 -0.41015,-0.292968 -1.05468,-0.292968 -0.0879,0 -0.11719,-0.0293 -0.61523,0.0293 -0.99609,0.322265 -0.38086,0.292969 -0.58594,0.703125 -0.20508,0.38086 -0.29297,0.84961 -0.0586,0.439453 -0.0586,0.820312 v 22.089844 q 0,0.380859 0.0586,0.849609 0.0879,0.46875 0.29297,0.878907 0.23437,0.410156 0.61523,0.703125 0.41016,0.263672 1.08399,0.263672 z" />
      <path
         id="path36"
         style="font-family:'Heading Pro Trial';letter-spacing:0.075em"
         d="M 437.64062,100 V 55.410156 h 11.92383 q 2.8418,0 5.00977,0.673828 2.16797,0.644532 3.63281,2.050782 1.46484,1.40625 2.19727,3.603515 0.76172,2.167969 0.76172,5.185547 v 5.214844 q 0,2.578125 -1.08399,4.658203 -1.08398,2.050781 -2.7832,3.544922 0.82031,0.585937 1.34765,1.201172 0.55664,0.585937 0.87891,1.464843 0.35156,0.84961 0.52734,2.109375 0.20508,1.259766 0.32227,3.164063 l 0.35156,5.947266 q 0.0879,1.054687 0.26367,1.904296 0.20508,0.820313 0.46875,1.523438 0.26368,0.703125 0.52735,1.289062 0.29297,0.556641 0.55664,1.054688 h -9.78516 q -0.0586,-0.08789 -0.29297,-0.585938 -0.20507,-0.498046 -0.46875,-1.230468 -0.26367,-0.761719 -0.49804,-1.699219 -0.23438,-0.966797 -0.29297,-1.992188 l -0.38086,-6.005859 q -0.0586,-1.464844 -0.35156,-2.373047 -0.26368,-0.9375 -0.67383,-1.435547 -0.41016,-0.498047 -0.9375,-0.673828 -0.52735,-0.175781 -1.08399,-0.146484 h -0.64453 V 100 Z m 14.03321,-33.193359 q 0,-0.439454 -0.0879,-0.820313 -0.0879,-0.380859 -0.35157,-0.673828 -0.23437,-0.292969 -0.67382,-0.46875 -0.43946,-0.175781 -1.11328,-0.175781 h -2.31446 v 9.93164 h 2.31446 q 1.34765,0 1.7871,-0.703125 0.43946,-0.703125 0.43946,-1.757812 z" />
      <path
         id="path38"
         style="font-family:'Heading Pro Trial';letter-spacing:0.075em"
         d="m 474.98242,55.380859 h 12.33399 L 494.11328,100 h -9.55078 l -0.67383,-5.830078 h -5.50781 L 477.73633,100 h -9.55078 z m 4.39453,30.087891 h 3.54492 l -1.7871,-15.849609 z" />
      <path
         id="path40"
         style="font-family:'Heading Pro Trial';letter-spacing:0.075em"
         d="M 503.00781,100 V 55.410156 h 11.01563 l 5.47851,19.804688 -0.26367,-19.804688 h 9.49219 V 100 H 518.65234 L 512.20703,78.466797 512.5,100 Z" />
      <path
         id="path42"
         style="font-family:'Heading Pro Trial';letter-spacing:0.075em"
         d="M 537.74219,100 V 55.410156 H 558.25 v 9.257813 h -11.01563 v 8.203125 h 8.99415 v 9.257812 h -8.99415 v 8.642578 H 558.25 V 100 Z" />
      <path
         id="path44"
         style="font-family:'Heading Pro Trial';letter-spacing:0.075em"
         d="m 572.27148,55.380859 h 12.33399 L 591.40234,100 h -9.55078 l -0.67383,-5.830078 h -5.50781 L 575.02539,100 h -9.55078 z m 4.39454,30.087891 h 3.54492 l -1.78711,-15.849609 z" />
    </g>
  </g>
</svg>
