<?xml version="1.0" encoding="UTF-8" standalone="no"?>
<svg
   xmlns:dc="http://purl.org/dc/elements/1.1/"
   xmlns:cc="http://creativecommons.org/ns#"
   xmlns:rdf="http://www.w3.org/1999/02/22-rdf-syntax-ns#"
   xmlns:svg="http://www.w3.org/2000/svg"
   xmlns="http://www.w3.org/2000/svg"
   id="svg16"
   width="800px"
   version="1.1"
   height="200px">
  <metadata
     id="metadata20">
    <rdf:RDF>
      <cc:Work
         rdf:about="">
        <dc:format>image/svg+xml</dc:format>
        <dc:type
           rdf:resource="http://purl.org/dc/dcmitype/StillImage" />
      </cc:Work>
    </rdf:RDF>
  </metadata>
  <defs
     id="defs4">
    <style
       id="style2"
       type="text/css"><![CDATA[    
     @font-face {font-family:Heidorn Hill;
     src: url('/Users/francesco/Repos/write-logos/src/fonts/HEIDH___.ttf');}
     @font-face {font-family:HELLO CROCODILO;
     src: url('/Users/francesco/Repos/write-logos/src/fonts/HELLO_CROCODILO.ttf');}
     ]]></style>
  </defs>
  <g
     id="g14"
     style="font-size:60px">
    <g
       style="text-anchor:middle"
       id="text12"
       aria-label="eXtemporanea">
      <path
         id="path22"
         style="font-family:'Heidorn Hill'"
         d="m 285.56031,73.48 -3.66,-1.92 -2.64,-1.14 q -2.46,-1.08 -2.46,-3.66 0,-0.96 0.54,-2.04 l -1.68,-0.9 q 0.06,0.3 0.06,0.54 0,0.24 0,0.54 0,6.54 -7.2,8.76 h -0.06 V 88.6 q 0,2.76 -1.02,4.8 l -0.84,1.38 v 0.24 l 5.94,2.82 0.36,0.24 q 2.46,1.08 2.46,3.66 0,0.9 -0.48,2.04 l 1.74,0.9 q -0.12,-0.3 -0.18,-0.66 -0.06,-0.36 -0.06,-0.78 0,-6.54 5.82,-10.08 l -1.74,-0.78 q -1.2,2.34 -3.54,2.34 -0.66,0 -1.2,-0.12 -0.48,-0.18 -0.96,-0.42 l -0.3,-0.12 q -1.74,-0.72 -1.74,-2.94 V 74.8 q 1.32,-1.14 2.64,-1.14 0.3,0 0.78,0.18 0.48,0.12 1.2,0.36 l 0.36,0.18 q 0.66,0.72 1.02,1.32 0.36,0.54 0.66,1.02 -0.54,8.34 -5.7,8.52 0.24,0.06 0.72,0.06 6.06,0 8.52,-5.4 0.18,-0.18 0.18,-0.3 0.24,-0.6 0.36,-0.84 0.48,-1.2 0.96,-2.52 0.54,-1.32 1.14,-2.76 z" />
      <path
         id="path24"
         style="font-family:'HELLO CROCODILO'"
         d="m 294.38477,61.796875 v 0 0 q -1.17188,-2.226563 -2.02149,-2.753906 -0.64453,-0.410157 -0.87891,-0.08789 -0.23437,0.292969 -0.0586,0.908203 0.29297,1.113281 0.99609,2.753906 -1.69921,-3.017578 -2.54882,-2.314453 -0.29297,0.292969 -0.11719,0.820313 0.20508,0.498047 0.61523,1.02539 0.41016,0.498047 0.76172,0.878907 0.17578,0.175781 0.26367,0.292968 -0.11718,-0.05859 -0.38086,-0.234375 -0.49804,-0.351562 -1.23046,-0.761718 -0.70313,-0.410157 -1.28907,-0.615235 -0.55664,-0.205078 -0.67382,0.117188 -0.0879,0.322265 0.61523,1.464844 0.0879,0.146484 0.17578,0.292968 0.55664,0.996094 1.78711,2.490235 4.27734,5.742187 9.55078,13.183593 -0.14648,0.234375 -0.32226,0.46875 -5.21485,7.089844 -9.19922,12.714844 -1.31836,1.611328 -1.84571,2.636719 -0.0586,0.08789 -0.11718,0.175781 -0.70313,1.201172 -0.61524,1.552735 0.11719,0.351562 0.67383,0.146484 0.55664,-0.205078 1.25977,-0.644531 0.70312,-0.439453 1.20117,-0.820313 0.14648,-0.08789 0.26367,-0.146484 l 0.0586,0.0293 q -0.0586,0.05859 -0.11718,0.146484 -0.35157,0.380859 -0.79102,0.9375 -0.43945,0.556641 -0.67383,1.113281 -0.20508,0.527344 0.11719,0.84961 0.84961,0.615234 2.49023,-2.285157 h 0.0293 q -0.61523,1.523438 -0.87891,2.548829 -0.17578,0.644531 0.0293,0.966796 0.20508,0.322266 0.9082,-0.117187 0.82032,-0.527344 1.9336,-2.695313 l 2.22656,-3.105468 6.88477,-9.550782 q 4.6875,6.591797 8.4082,11.748047 1.11328,1.728516 1.93359,2.578125 0.0586,0.05859 0.14649,0.146485 0.9082,1.054687 1.25976,1.083984 0.35157,0 0.32227,-0.585937 0,-0.585938 -0.20508,-1.376954 -0.17578,-0.820312 -0.35156,-1.40625 -0.0586,-0.175781 -0.0879,-0.322265 l 0.0586,-0.0293 q 0.0293,0.05859 0.0879,0.146484 0.26367,0.46875 0.64453,1.054688 0.41016,0.585937 0.84961,0.966797 0.43946,0.380859 0.82032,0.175781 0.8496,-0.615234 -1.37696,-3.076172 l 0.0293,-0.0293 q 1.25976,1.054688 2.13867,1.640625 0.55664,0.38086 0.9082,0.292969 0.38086,-0.117188 0.20508,-0.908203 -0.26367,-0.966797 -1.93359,-2.695313 l -2.25586,-3.076172 -8.08594,-11.25 10.25391,-14.208984 q 1.72851,-1.845703 1.96289,-2.8125 0.17578,-0.761719 -0.20508,-0.878906 -0.35156,-0.117188 -0.87891,0.234375 -0.9375,0.644531 -2.28515,1.845703 2.31445,-2.607422 1.37695,-3.164063 -0.38086,-0.205078 -0.79101,0.146485 -0.41016,0.351562 -0.79102,0.908203 -0.35156,0.556641 -0.58594,0.996094 -0.11719,0.234375 -0.20508,0.351562 0.0293,-0.146484 0.11719,-0.46875 0.14649,-0.585937 0.32227,-1.376953 0.17578,-0.791016 0.17578,-1.40625 0,-0.615234 -0.35156,-0.615234 -0.32227,0 -1.17188,1.02539 -0.0879,0.117188 -0.20508,0.234375 -0.79101,0.84961 -1.8164,2.548828 -3.63282,5.244141 -8.40821,11.806641 z" />
      <path
         id="path26"
         style="font-family:'Heidorn Hill'"
         d="m 338.71,75.52 q -1.98,-2.88 -1.98,-6.3 0,-3.54 1.98,-6.36 l -1.98,-0.06 v 0.18 q 0,4.08 -4.26,4.08 h -2.04 v -3.78 q 0,-10.98 7.74,-12.66 -4.14,0.36 -7.02,2.34 -4.92,3.48 -4.92,10.32 v 3.78 h -0.78 l -1.56,0.12 h -0.3 q -0.72,0 -0.72,1.02 0.12,0.54 0.12,1.02 0,0.42 0,0.78 0,3.12 -1.74,5.7 h 1.92 l 0.12,-0.9 q 0.18,-2.76 2.94,-3.36 v 19.5 q 0,3.78 -4.14,3.78 4.74,1.08 4.74,2.94 0,0.72 -0.78,1.5 -3.36,4.68 -3.36,9.12 0,3.42 2.76,5.58 -0.72,-1.14 -1.02,-2.46 -0.3,-1.26 -0.3,-2.7 0,-8.34 10.68,-13.98 -4.38,-0.36 -4.38,-4.08 V 71.32 h 2.16 q 4.14,0 4.14,4.2 z" />
      <path
         id="path28"
         style="font-family:'Heidorn Hill'"
         d="m 358.8025,73.48 -3.66,-1.92 -2.64,-1.14 q -2.46,-1.08 -2.46,-3.66 0,-0.96 0.54,-2.04 l -1.68,-0.9 q 0.06,0.3 0.06,0.54 0,0.24 0,0.54 0,6.54 -7.2,8.76 h -0.06 V 88.6 q 0,2.76 -1.02,4.8 l -0.84,1.38 v 0.24 l 5.94,2.82 0.36,0.24 q 2.46,1.08 2.46,3.66 0,0.9 -0.48,2.04 l 1.74,0.9 q -0.12,-0.3 -0.18,-0.66 -0.06,-0.36 -0.06,-0.78 0,-6.54 5.82,-10.08 l -1.74,-0.78 q -1.2,2.34 -3.54,2.34 -0.66,0 -1.2,-0.12 -0.48,-0.18 -0.96,-0.42 l -0.3,-0.12 q -1.74,-0.72 -1.74,-2.94 V 74.8 q 1.32,-1.14 2.64,-1.14 0.3,0 0.78,0.18 0.48,0.12 1.2,0.36 l 0.36,0.18 q 0.66,0.72 1.02,1.32 0.36,0.54 0.66,1.02 -0.54,8.34 -5.7,8.52 0.24,0.06 0.72,0.06 6.06,0 8.52,-5.4 0.18,-0.18 0.18,-0.3 0.24,-0.6 0.36,-0.84 0.48,-1.2 0.96,-2.52 0.54,-1.32 1.14,-2.76 z" />
      <path
         id="path30"
         style="font-family:'Heidorn Hill'"
         d="M 391.79875,73.06 V 73 l -6.72,-3.42 q -2.04,-0.84 -2.04,-3.12 0,-0.18 0,-0.36 0,-0.24 0.06,-0.48 l 0.42,-1.44 -1.74,-0.9 q 0.12,0.48 0.18,0.96 0.06,0.42 0.06,0.9 0,3.66 -3,7.14 l -4.68,-2.34 q -2.04,-1.14 -2.04,-3.42 V 65.5 l 0.42,-1.2 -1.86,-0.9 q 0.3,0.78 0.3,1.8 0,4.56 -3.96,8.16 -2.16,-4.38 -7.56,-4.56 4.2,0.3 4.2,8.58 v 14.34 q 0,4.02 -4.02,4.02 h -0.18 q 4.8,1.2 4.8,3.06 0,0.6 -0.78,1.38 -1.74,2.4 -2.58,4.62 -0.78,2.28 -0.78,4.38 0,3.48 2.64,5.82 -1.26,-2.4 -1.26,-5.4 0,-8.16 10.62,-13.86 -3.66,0 -4.2,-3.72 V 77.38 q 0,-0.54 -0.06,-1.14 -0.06,-0.66 -0.24,-1.44 1.32,-1.44 3,-1.44 0.72,0 1.92,0.42 l 0.42,0.24 q 1.62,0.72 1.62,2.94 v 18.96 q 0,11.04 -7.68,12.78 4.2,-0.54 7.08,-2.46 4.8,-3.48 4.86,-10.32 v -16.5 q 0,-2.22 1.14,-4.8 l 0.72,-1.32 q 0.18,-0.12 0.72,-0.12 0.3,0 1.92,0.48 l 0.42,0.12 q 1.74,0.66 1.74,2.94 V 95.8 q 0,10.98 -7.74,12.66 2.1,-0.12 3.84,-0.72 1.74,-0.6 3.18,-1.62 4.92,-3.36 4.92,-10.32 h 0.06 V 79.3 q 0,-1.44 0.24,-2.64 0.24,-1.26 0.78,-2.16 l 0.72,-1.44 z" />
      <path
         id="path32"
         style="font-family:'Heidorn Hill'"
         d="m 410.86844,72.46 v -0.12 l -6.18,-3.06 q -2.58,-1.14 -2.58,-3.78 0,-0.96 0.54,-2.04 l -1.74,-0.78 q 0.06,0.3 0.06,0.6 0,0.3 0,0.6 0,6.24 -7.14,8.4 v 37.2 h -0.06 v 0.72 q 0,1.62 -0.42,3.3 -0.36,1.68 -1.02,3.42 -1.98,4.86 -6.12,5.34 7.5,-0.84 10.38,-6.12 2.46,1.8 5.46,1.92 -4.02,-0.18 -4.02,-7.74 v -13.8 l 0.42,0.24 q 2.22,1.32 2.22,3.54 0,0.54 -0.12,1.02 -0.12,0.48 -0.36,1.02 l 1.74,0.9 q -0.06,-0.36 -0.06,-0.72 0,-0.3 0,-0.6 0,-6.3 7.08,-8.34 V 78.7 q 0,-1.32 0.3,-2.46 0.3,-1.2 0.84,-2.34 z m -6.12,19.92 q -1.2,1.02 -2.52,1.02 -0.54,0 -1.08,-0.12 -0.54,-0.18 -1.08,-0.42 l -0.3,-0.18 q -1.56,-0.66 -1.74,-2.88 V 73.66 q 0.66,-0.48 1.26,-0.78 0.6,-0.3 1.32,-0.3 0.96,0 2.1,0.48 l 0.3,0.24 q 1.68,0.6 1.74,2.82 z" />
      <path
         id="path34"
         style="font-family:'Heidorn Hill'"
         d="m 430.81,72.46 v -0.12 l -5.34,-2.64 q -3.18,-1.5 -3.18,-4.5 0,-0.78 0.36,-1.62 v -0.12 l -1.74,-0.78 q 0,0.24 0,0.48 0.06,0.24 0.06,0.48 0,6.48 -7.2,8.64 v 15 q 0,1.26 -0.24,2.52 -0.24,1.2 -0.78,2.22 l -0.72,1.44 h -0.12 v 0.12 l 6.3,3.18 q 2.46,1.14 2.46,3.54 0,0.54 -0.12,1.02 -0.12,0.48 -0.36,1.02 l 1.74,0.9 q -0.12,-0.3 -0.12,-0.6 0,-0.3 0,-0.6 0,-6.3 7.14,-8.46 V 78.7 q 0,-2.76 1.02,-4.8 z m -6.12,19.92 q -1.14,1.02 -2.58,1.02 -0.36,0 -0.84,-0.12 -0.48,-0.18 -1.08,-0.42 l -0.42,-0.18 q -1.74,-0.84 -1.74,-2.88 V 73.66 q 1.2,-1.08 2.64,-1.08 1.14,0 1.98,0.48 l 0.36,0.24 h -0.06 q 1.38,0.48 1.74,2.82 z" />
      <path
         id="path36"
         style="font-family:'Heidorn Hill'"
         d="m 450.36906,72.04 q 0,-0.66 -0.72,-0.78 l -1.86,-0.84 -2.64,-1.44 q -1.8,-1.14 -1.8,-3.36 0,-0.48 0.06,-0.9 0.06,-0.48 0.3,-1.02 l -1.74,-0.84 q 0.06,0.3 0.06,0.54 0,0.24 0,0.54 0,6.36 -7.2,8.7 v 20.22 q -0.72,2.94 -3.78,2.94 h -0.36 q 4.8,1.32 4.8,3.06 0,0.72 -0.72,1.44 -3.36,4.86 -3.36,9.06 0,3.6 2.64,5.76 -1.32,-2.28 -1.32,-5.34 0,-8.34 10.68,-13.98 -4.26,-0.12 -4.26,-3.96 V 73.78 q 1.02,-1.02 2.52,-1.02 1.2,0 2.04,0.42 l 1.14,0.48 q 2.34,1.08 2.34,3.48 0,0.42 -0.06,0.78 -0.06,0.36 -0.12,0.66 l -0.3,0.72 v 0.12 l 1.8,0.78 q -0.06,-0.48 -0.12,-0.9 -0.06,-0.42 -0.06,-0.84 0,-2.82 1.8,-5.82 0.12,-0.24 0.18,-0.36 0.06,-0.12 0.06,-0.24 z" />
      <path
         id="path38"
         style="font-family:'Heidorn Hill'"
         d="m 470.36219,73.78 v -0.12 l -7.02,-3.54 q -0.84,-0.54 -1.26,-1.32 -0.36,-0.84 -0.36,-1.86 0,-0.36 0.06,-0.72 0.06,-0.42 0.24,-0.78 l 0.12,-0.54 -1.68,-0.9 v 1.44 q 0,6.54 -5.7,10.08 l 1.74,0.84 0.54,-0.84 q 0.66,-0.84 1.44,-1.2 0.84,-0.42 1.68,-0.42 0.54,0 1.02,0.12 0.48,0.12 1.02,0.36 l 0.3,0.24 q 1.68,0.6 1.68,2.82 v 3.9 q -3.6,0.24 -6.12,2.16 -2.52,1.86 -4.02,5.28 v -0.12 q -0.12,0.24 -0.3,0.54 -0.12,0.24 -0.18,0.6 -0.24,0.66 -0.78,1.98 -0.54,1.26 -1.38,3.3 l 6.3,3.18 q 2.46,1.26 2.46,3.66 0,0.9 -0.48,2.04 l 1.74,0.84 q -0.12,-0.3 -0.12,-0.6 0,-0.3 0,-0.6 0,-6.36 7.14,-8.58 h 0.12 v -15 q 0,-2.52 1.08,-4.8 z m -6.18,20.1 q -1.14,1.14 -2.58,1.14 -0.66,0 -1.14,-0.12 -0.42,-0.18 -0.78,-0.42 l -0.42,-0.3 q -1.5,-0.48 -1.74,-2.34 v -1.32 q 0,-2.7 1.62,-4.74 1.68,-2.1 5.04,-3.72 z" />
      <path
         id="path40"
         style="font-family:'Heidorn Hill'"
         d="m 493.09,73.06 -6.24,-3.12 q -2.46,-1.08 -2.46,-3.6 0,-0.42 0.3,-1.5 l 0.24,-0.66 -1.86,-0.78 q 0.3,0.6 0.3,1.74 0,4.44 -3.84,8.16 -2.28,-4.38 -7.56,-4.62 2.28,0.24 3.36,3.36 0.72,2.16 0.72,5.22 v 14.4 q -0.18,3.96 -3.84,3.96 h -0.36 q 4.8,1.08 4.8,2.94 0,0.72 -0.84,1.56 -3.36,4.74 -3.36,8.94 0,3.54 2.7,5.76 -1.26,-2.34 -1.26,-5.34 0,-8.16 10.62,-13.86 -3.78,0 -4.2,-3.66 v -14.7 q 0,-0.54 -0.06,-1.14 -0.06,-0.66 -0.24,-1.5 1.26,-1.44 2.94,-1.44 1.02,0 1.98,0.48 l 0.42,0.24 q 1.62,0.72 1.62,2.82 V 95.8 q 0,10.92 -7.68,12.66 2.1,-0.24 3.84,-0.78 1.74,-0.54 3.24,-1.56 4.86,-3.24 4.86,-10.32 V 79.42 q 0,-1.2 0.3,-2.34 0.3,-1.14 0.84,-2.46 z" />
      <path
         id="path42"
         style="font-family:'Heidorn Hill'"
         d="m 513.25562,73.48 -3.66,-1.92 -2.64,-1.14 q -2.45999,-1.08 -2.45999,-3.66 0,-0.96 0.53999,-2.04 l -1.68,-0.9 q 0.06,0.3 0.06,0.54 0,0.24 0,0.54 0,6.54 -7.2,8.76 h -0.06 V 88.6 q 0,2.76 -1.02,4.8 l -0.84,1.38 v 0.24 l 5.94001,2.82 0.35999,0.24 q 2.46001,1.08 2.46001,3.66 0,0.9 -0.48001,2.04 l 1.74,0.9 q -0.12,-0.3 -0.18,-0.66 -0.06,-0.36 -0.06,-0.78 0,-6.54 5.82,-10.08 l -1.74,-0.78 q -1.2,2.34 -3.53999,2.34 -0.66001,0 -1.20001,-0.12 -0.47999,-0.18 -0.96,-0.42 l -0.3,-0.12 q -1.74,-0.72 -1.74,-2.94 V 74.8 q 1.32001,-1.14 2.64001,-1.14 0.29999,0 0.77999,0.18 0.48,0.12 1.2,0.36 l 0.36,0.18 q 0.66001,0.72 1.02,1.32 0.36,0.54 0.66,1.02 -0.54,8.34 -5.69999,8.52 0.24,0.06 0.71999,0.06 6.06,0 8.52001,-5.4 0.17999,-0.18 0.17999,-0.3 0.24,-0.6 0.36,-0.84 0.48,-1.2 0.96001,-2.52 0.53999,-1.32 1.13999,-2.76 z" />
      <path
         id="path44"
         style="font-family:'Heidorn Hill'"
         d="m 533.29187,73.78 v -0.12 l -7.01999,-3.54 q -0.84001,-0.54 -1.26,-1.32 -0.36,-0.84 -0.36,-1.86 0,-0.36 0.06,-0.72 0.06,-0.42 0.24,-0.78 l 0.12,-0.54 -1.67999,-0.9 v 1.44 q 0,6.54 -5.70001,10.08 l 1.74,0.84 0.54,-0.84 q 0.66001,-0.84 1.44,-1.2 0.84001,-0.42 1.68,-0.42 0.54001,0 1.02001,0.12 0.47999,0.12 1.02,0.36 l 0.29999,0.24 q 1.68001,0.6 1.68001,2.82 v 3.9 q -3.6,0.24 -6.12,2.16 -2.52001,1.86 -4.02001,5.28 v -0.12 q -0.12,0.24 -0.3,0.54 -0.12,0.24 -0.17999,0.6 -0.24,0.66 -0.78001,1.98 -0.54,1.26 -1.38,3.3 l 6.30001,3.18 q 2.45999,1.26 2.45999,3.66 0,0.9 -0.47999,2.04 l 1.73999,0.84 q -0.12,-0.3 -0.12,-0.6 0,-0.3 0,-0.6 0,-6.36 7.14001,-8.58 h 0.12 v -15 q 0,-2.52 1.07999,-4.8 z m -6.17999,20.1 q -1.14001,1.14 -2.58,1.14 -0.66,0 -1.14,-0.12 -0.42001,-0.18 -0.78,-0.42 l -0.42001,-0.3 q -1.5,-0.48 -1.74,-2.34 v -1.32 q 0,-2.7 1.62,-4.74 1.68001,-2.1 5.04001,-3.72 z" />
    </g>
  </g>
</svg>
