<?xml version="1.0" encoding="UTF-8" standalone="no"?>
<svg
   xmlns:dc="http://purl.org/dc/elements/1.1/"
   xmlns:cc="http://creativecommons.org/ns#"
   xmlns:rdf="http://www.w3.org/1999/02/22-rdf-syntax-ns#"
   xmlns:svg="http://www.w3.org/2000/svg"
   xmlns="http://www.w3.org/2000/svg"
   id="svg16"
   width="800px"
   version="1.1"
   height="200px">
  <metadata
     id="metadata20">
    <rdf:RDF>
      <cc:Work
         rdf:about="">
        <dc:format>image/svg+xml</dc:format>
        <dc:type
           rdf:resource="http://purl.org/dc/dcmitype/StillImage" />
      </cc:Work>
    </rdf:RDF>
  </metadata>
  <defs
     id="defs4">
    <style
       id="style2"
       type="text/css"><![CDATA[    
     @font-face {font-family:Holyriver;
     src: url('/Users/francesco/Repos/write-logos/src/fonts/Holyriver.ttf');}
     @font-face {font-family:Plastic Love;
     src: url('/Users/francesco/Repos/write-logos/src/fonts/PlasticLove-Regular.ttf');}
     ]]></style>
  </defs>
  <g
     id="g14"
     style="font-size:60px">
    <g
       style="text-anchor:middle"
       id="text12"
       aria-label="eXtemporanea">
      <path
         id="path22"
         style="font-family:Holyriver"
         d="m 255.33203,100 h -19.13086 q 0.64453,0 1.08399,-0.439453 0.46875,-0.46875 0.46875,-1.083985 0,-33.134765 -0.0293,-33.310546 -0.11719,-0.527344 -0.55664,-0.878907 -0.41016,-0.351562 -0.9668,-0.351562 h 19.13086 v 8.408203 q 0,-0.644531 -0.46875,-1.083984 -0.43945,-0.46875 -1.08398,-0.46875 h -9.16993 v 7.382812 l 7.82227,-5.302734 v 9.345703 q -0.46875,-0.439453 -1.08398,-0.439453 -0.49805,0 -0.87891,0.263672 l -5.85938,3.925781 v 7.177734 h 9.16993 q 0.64453,0 1.08398,-0.439453 0.46875,-0.46875 0.46875,-1.113281 z m -2.46094,-3.28125 V 96.425781 H 241.32812 V 84.355469 l 8.4668,-5.683594 v -0.351563 l -8.4668,5.683594 V 66.923828 h 11.54297 V 66.630859 H 241.03516 V 96.71875 Z" />
      <path
         id="path24"
         style="font-family:'Plastic Love'"
         d="m 255.91375,52.96 23.1,2.4 5.7,11.1 8.04,-11.34 h 19.02 l 0.72,0.78 -20.1,24.84 8.34,19.26 -15.06,-0.18 -0.66,-0.78 -0.48,-0.96 q -0.66,-1.26 -1.26,-2.46 -0.54,-1.26 -1.2,-2.46 l -4.5,6.66 -19.44,0.18 -0.66,-0.78 16.38,-20.58 z m 3.66,2.16 16.5,23.58 -14.94,18.72 14.76,-0.12 5.88,-8.64 q 1.2,2.28 2.16,4.26 1.02,1.92 2.16,4.38 l 11.22,0.12 -7.68,-17.76 18.42,-22.8 h -14.4 l -9.36,13.2 -6.66,-13.02 z m 11.58,3.72 q -0.66,-0.12 -0.54,-0.72 0,-0.24 0.18,-0.36 0.24,-0.18 0.48,-0.18 l 4.68,0.54 q 0.36,0 0.48,0.3 l 6.12,11.46 q 0.3,0.54 -0.24,0.84 -0.12,0.06 -0.3,0.06 -0.36,0 -0.54,-0.3 l -6,-11.16 z m -2.04,-0.06 q -0.3,0 -0.54,-0.18 -0.18,-0.24 -0.18,-0.54 0,-0.3 0.18,-0.48 0.24,-0.18 0.54,-0.18 0.66,0 0.66,0.66 0,0.72 -0.66,0.72 z" />
      <path
         id="path26"
         style="font-family:Holyriver"
         d="m 324.56055,100 h -9.96094 q 0.64453,0 1.08398,-0.410156 0.43946,-0.439453 0.46875,-1.083985 V 70.791016 h -5.97656 q -0.64453,0 -1.11328,0.46875 -0.43945,0.439453 -0.43945,1.083984 v -8.408203 h 22.06054 v 8.408203 q 0,-0.644531 -0.46875,-1.083984 -0.43945,-0.46875 -1.08398,-0.46875 h -6.12305 v 27.714843 q 0.0586,0.644532 0.49805,1.083985 Q 323.94531,100 324.56055,100 Z m -4.83399,-2.050781 V 67.509766 h 8.4668 v -0.292969 h -17.10938 v 0.292969 h 8.34961 v 30.439453 z" />
      <path
         id="path28"
         style="font-family:Holyriver"
         d="M 352.59766,100 H 333.4668 q 0.64453,0 1.08398,-0.439453 0.46875,-0.46875 0.46875,-1.083985 0,-33.134765 -0.0293,-33.310546 -0.11718,-0.527344 -0.55664,-0.878907 -0.41015,-0.351562 -0.96679,-0.351562 h 19.13086 v 8.408203 q 0,-0.644531 -0.46875,-1.083984 -0.43946,-0.46875 -1.08399,-0.46875 H 341.875 v 7.382812 l 7.82227,-5.302734 v 9.345703 q -0.46875,-0.439453 -1.08399,-0.439453 -0.49805,0 -0.87891,0.263672 l -5.85937,3.925781 v 7.177734 h 9.16992 q 0.64453,0 1.08399,-0.439453 0.46875,-0.46875 0.46875,-1.113281 z m -2.46094,-3.28125 V 96.425781 H 338.59375 V 84.355469 l 8.4668,-5.683594 v -0.351563 l -8.4668,5.683594 V 66.923828 h 11.54297 V 66.630859 H 338.30078 V 96.71875 Z" />
      <path
         id="path30"
         style="font-family:Holyriver"
         d="m 385.20508,100 h -9.96094 q 0.55664,0 0.9668,-0.351563 0.43945,-0.351562 0.52734,-0.878906 h 0.0293 q 0.0293,-0.146484 0.0293,-21.708984 l -3.6621,6.708984 q -0.11719,0.175781 -0.14649,0.351563 l -0.0293,0.322265 q 0,0.439453 0.20508,0.791016 h -5.77148 q 0.20508,-0.351563 0.20508,-0.791016 l -0.0293,-0.322265 q -0.0293,-0.205078 -0.11719,-0.322266 -0.0586,-0.117187 -0.0879,-0.146484 -0.0293,-0.05859 -0.0293,-0.08789 l -3.51562,-6.474609 v 21.357422 q 0,0.644531 0.43945,1.113281 Q 364.72656,100 365.37109,100 h -9.99023 q 0.55664,0 0.99609,-0.351563 0.43946,-0.351562 0.52735,-0.878906 0.0293,-0.146484 0.0293,-16.787109 0,-16.640625 -0.0293,-16.816406 -0.0879,-0.527344 -0.52735,-0.878907 -0.43945,-0.351562 -0.99609,-0.351562 h 11.07422 q -0.64453,0 -1.11328,0.46875 -0.43946,0.439453 -0.43946,1.083984 0,0.322266 0.11719,0.585938 l 5.27344,8.964843 5.03906,-8.613281 q 0.14649,-0.146484 0.23438,-0.351562 0.0879,-0.292969 0.11718,-0.585938 0,-0.644531 -0.46875,-1.083984 -0.46875,-0.46875 -1.08398,-0.46875 h 11.07422 q -0.64453,0 -1.11328,0.46875 -0.43946,0.439453 -0.43946,1.083984 v 32.958985 q 0,0.644531 0.43946,1.113281 Q 384.56055,100 385.20508,100 Z m -4.83399,-2.050781 V 66.220703 h -0.64453 l -9.43359,15.175781 -9.4336,-15.175781 h -0.64453 v 31.728516 h 0.32227 V 66.513672 h 0.17578 l 9.58008,15.439453 9.58008,-15.439453 h 0.20507 v 31.435547 z" />
      <path
         id="path32"
         style="font-family:Holyriver"
         d="M 392.44141,87.167969 V 67.509766 h 10.83984 V 77.5 Z m 3.13476,-6.796875 4.57031,-4.042969 v -6.123047 h -4.57031 z M 397.2168,100 h -9.96094 q 0.64453,0 1.08398,-0.439453 0.46875,-0.46875 0.46875,-1.083985 V 65.488281 q 0,-0.732422 -0.58593,-1.201172 -0.41016,-0.351562 -0.9668,-0.351562 h 18.13476 l 1.61133,1.640625 v 13.242187 l -11.33789,10.283203 v 9.345704 q 0,0.322265 0.11719,0.585937 Q 396.2207,100 397.2168,100 Z m -4.77539,-2.050781 V 87.548828 l 11.13281,-9.902344 V 67.216797 h -11.42578 v 30.732422 z" />
      <path
         id="path34"
         style="font-family:Holyriver"
         d="m 428.59375,99.941406 h -16.8457 l -3.98438,-4.072265 5.18555,-30.410157 1.55273,-1.582031 h 11.33789 l 1.55274,1.582031 5.18554,30.410157 z m -3.13477,-2.695312 2.8418,-3.398438 -4.21875,-26.689453 h -7.82226 l -4.21875,26.689453 2.84179,3.398438 z m -0.14648,-0.292969 h -10.2832 l -2.66602,-3.164063 4.13086,-26.33789 h 7.35352 l 4.13086,26.33789 z m -2.51953,-3.486328 1.58203,-1.582031 -2.8418,-21.152344 h -2.72461 l -2.84179,21.152344 1.58203,1.582031 z" />
      <path
         id="path36"
         style="font-family:Holyriver"
         d="M 440.37109,87.167969 V 67.509766 h 10.83985 V 77.5 l -4.65821,4.160156 -0.0586,0.0293 v 0.0293 z m 3.13477,-6.796875 4.57031,-4.042969 v -6.123047 h -4.57031 z M 458.65234,100 h -10.51757 q 0.64453,0 1.08398,-0.439453 0.46875,-0.46875 0.46875,-1.083985 0,-0.175781 -0.0293,-0.322265 -0.0293,-0.117188 -4.27734,-10.722656 l -1.78711,1.669921 v 9.345704 q 0,0.322265 0.0879,0.585937 Q 444.15039,100 445.14648,100 h -9.96093 q 0.64453,0 1.08398,-0.439453 0.46875,-0.46875 0.46875,-1.083985 0,-33.134765 -0.0293,-33.310546 -0.11718,-0.527344 -0.55664,-0.878907 -0.41015,-0.351562 -0.96679,-0.351562 h 18.10547 l 1.64062,1.640625 v 13.300781 l -4.33594,4.21875 6.18164,15.703125 Q 457.42187,100 458.65234,100 Z m -5.44922,-2.109375 -6.35742,-16.083984 4.65821,-4.160157 V 67.216797 h -11.42579 v 30.673828 h 0.29297 V 87.548828 l 6.24024,-5.537109 6.26953,15.878906 z" />
      <path
         id="path38"
         style="font-family:Holyriver"
         d="m 465.00977,93.701172 5.74218,-26.777344 h 2.66602 l 3.86719,18.046875 z m 4.5996,-7.324219 4.36524,-3.076172 -1.9043,-10.253906 z M 485.86914,100 h -10.66406 q 0.64453,0 1.08398,-0.439453 0.46875,-0.46875 0.46875,-1.113281 l -0.0293,-0.292969 -1.55274,-8.261719 -7.14844,4.980469 -0.58593,3.28125 -0.0293,0.292969 q 0,0.644531 0.43945,1.113281 Q 468.32031,100 468.96484,100 h -10.69336 q 0.82032,-0.0293 1.40625,-0.527344 0.61524,-0.498047 0.79102,-1.347656 6.5918,-32.373047 6.5918,-32.402344 0.0293,-0.0293 0.0293,-0.234375 0,-0.644531 -0.46875,-1.083984 -0.43945,-0.46875 -1.08398,-0.46875 h 13.06641 q -0.61524,0 -1.08399,0.46875 -0.43945,0.439453 -0.43945,1.083984 0,0.205078 0,0.234375 0,0.0293 6.62109,32.402344 0.14649,0.849609 0.76172,1.347656 0.61523,0.498047 1.40625,0.527344 z m -5.44922,-1.787109 -6.76758,-31.582032 h -3.16406 L 463.75,98.212891 h 0.29297 l 0.8789,-4.072266 12.42188,-8.847656 2.75391,12.919922 z" />
      <path
         id="path40"
         style="font-family:Holyriver"
         d="m 512.88086,100 h -9.96094 q 0.55664,0 0.9961,-0.351563 0.43945,-0.351562 0.52734,-0.878906 0.0293,-0.146484 0.0293,-3.28125 l -10.13672,-18.28125 v 21.240235 q 0,0.644531 0.43945,1.113281 Q 495.24414,100 495.88867,100 h -9.96094 q 0.55664,0 0.9961,-0.351563 0.43945,-0.351562 0.52734,-0.878906 0.0293,-0.146484 0.0293,-16.787109 0,-16.640625 -0.0293,-16.816406 -0.0879,-0.527344 -0.52734,-0.878907 -0.43946,-0.351562 -0.9961,-0.351562 h 11.10352 q -0.64453,0 -1.11328,0.46875 -0.43945,0.439453 -0.43945,1.083984 0,0.498047 0.26367,0.878906 l 8.73047,16.025391 q 0,-17.050781 -0.0293,-17.226562 -0.0879,-0.527344 -0.52734,-0.878907 -0.43946,-0.351562 -0.9961,-0.351562 h 9.96094 q -0.61524,0 -1.08399,0.46875 -0.46875,0.439453 -0.46875,1.083984 v 32.958985 q 0,0.644531 0.46875,1.113281 Q 512.26562,100 512.88086,100 Z m -4.83399,-1.757813 V 65.693359 h -0.29296 v 27.451172 l -16.72852,-27.509765 -0.26367,0.05859 v 32.548828 h 0.29297 V 66.220703 l 16.69922,27.509766 v 4.511718 z" />
      <path
         id="path42"
         style="font-family:Holyriver"
         d="m 534.70703,100 h -19.13086 q 0.64453,0 1.08399,-0.439453 0.46875,-0.46875 0.46875,-1.083985 0,-33.134765 -0.0293,-33.310546 -0.11719,-0.527344 -0.55664,-0.878907 -0.41016,-0.351562 -0.9668,-0.351562 h 19.13086 v 8.408203 q 0,-0.644531 -0.46875,-1.083984 -0.43945,-0.46875 -1.08398,-0.46875 h -9.16993 v 7.382812 l 7.82227,-5.302734 v 9.345703 q -0.46875,-0.439453 -1.08398,-0.439453 -0.49805,0 -0.87891,0.263672 l -5.85938,3.925781 v 7.177734 h 9.16993 q 0.64453,0 1.08398,-0.439453 0.46875,-0.46875 0.46875,-1.113281 z m -2.46094,-3.28125 V 96.425781 H 520.70312 V 84.355469 l 8.4668,-5.683594 v -0.351563 l -8.4668,5.683594 V 66.923828 h 11.54297 V 66.630859 H 520.41016 V 96.71875 Z" />
      <path
         id="path44"
         style="font-family:Holyriver"
         d="m 542.93945,93.701172 5.74219,-26.777344 h 2.66602 l 3.86718,18.046875 z m 4.59961,-7.324219 4.36524,-3.076172 L 550,73.046875 Z M 563.79883,100 h -10.66406 q 0.64453,0 1.08398,-0.439453 0.46875,-0.46875 0.46875,-1.113281 l -0.0293,-0.292969 -1.55273,-8.261719 -7.14844,4.980469 -0.58594,3.28125 -0.0293,0.292969 q 0,0.644531 0.43945,1.113281 Q 546.25,100 546.89453,100 h -10.69336 q 0.82031,-0.0293 1.40625,-0.527344 0.61524,-0.498047 0.79102,-1.347656 6.59179,-32.373047 6.59179,-32.402344 0.0293,-0.0293 0.0293,-0.234375 0,-0.644531 -0.46875,-1.083984 -0.43945,-0.46875 -1.08398,-0.46875 h 13.0664 q -0.61523,0 -1.08398,0.46875 -0.43945,0.439453 -0.43945,1.083984 0,0.205078 0,0.234375 0,0.0293 6.62109,32.402344 0.14648,0.849609 0.76172,1.347656 0.61523,0.498047 1.40625,0.527344 z m -5.44922,-1.787109 -6.76758,-31.582032 h -3.16406 l -6.73828,31.582032 h 0.29297 l 0.8789,-4.072266 12.42188,-8.847656 2.7539,12.919922 z" />
    </g>
  </g>
</svg>
