<?xml version="1.0" encoding="UTF-8" standalone="no"?>
<svg
   xmlns:dc="http://purl.org/dc/elements/1.1/"
   xmlns:cc="http://creativecommons.org/ns#"
   xmlns:rdf="http://www.w3.org/1999/02/22-rdf-syntax-ns#"
   xmlns:svg="http://www.w3.org/2000/svg"
   xmlns="http://www.w3.org/2000/svg"
   id="svg16"
   width="500px"
   version="1.1"
   height="200px">
  <metadata
     id="metadata20">
    <rdf:RDF>
      <cc:Work
         rdf:about="">
        <dc:format>image/svg+xml</dc:format>
        <dc:type
           rdf:resource="http://purl.org/dc/dcmitype/StillImage" />
      </cc:Work>
    </rdf:RDF>
  </metadata>
  <defs
     id="defs4">
    <style
       id="style2"
       type="text/css"><![CDATA[    
     @font-face {font-family:Holyriver Shadow;
     src: url('/Users/francesco/Repos/write-logos/src/fonts/Holyriver_Shadow.ttf');}
     @font-face {font-family:CAT Altgotisch;
     src: url('/Users/francesco/Repos/write-logos/src/fonts/Altgotisch.ttf');}
     ]]></style>
  </defs>
  <g
     id="g14"
     style="font-size:60px">
    <g
       style="text-anchor:middle"
       id="text12"
       aria-label="eXtemporanea">
      <path
         id="path22"
         style="font-family:'Holyriver Shadow'"
         d="m 103.66211,93.935547 h -1.52344 v -7.207031 l 5.88867,-3.925782 q 0.38086,-0.263672 0.87891,-0.263672 0.61523,0 1.08398,0.439454 v -6.826172 l 1.49415,-1.025391 v 9.375 q -0.43946,-0.439453 -1.08399,-0.439453 -0.46875,0 -0.87891,0.263672 l -5.85937,3.925781 z m -1.52344,-15 v -7.41211 h 9.22852 q 0.61523,0 1.05469,0.439454 0.46875,0.439453 0.49804,1.113281 -0.0293,-0.0293 -9.25781,-0.0293 v 4.863281 z m 12.27539,-4.335938 q 0,-0.615234 -0.43945,-1.054687 -0.41016,-0.439453 -1.05469,-0.46875 v -6.884766 h 1.49414 z m 0,27.744141 H 95.224609 q 0.644532,0 1.083985,-0.43945 0.439453,-0.43946 0.46875,-1.08399 h 16.142576 v -5.361326 q 0.64453,-0.0293 1.05469,-0.46875 0.43945,-0.439453 0.43945,-1.083984 z" />
      <path
         id="path24"
         style="font-family:'CAT Altgotisch'"
         d="m 124.0675,76.72 q 1.02,-0.06 1.56,-0.54 0.54,-0.54 0.72,-1.2 0.24,-0.72 0.24,-1.5 0.06,-0.78 0.12,-1.38 l 0.66,-0.06 q -0.06,2.82 1.08,3.9 1.2,1.02 3,0.9 l 0.36,-8.64 q 0,-1.44 -0.06,-2.7 -0.06,-1.32 -0.54,-2.22 -0.42,-0.96 -1.44,-1.5 -0.96,-0.6 -2.76,-0.6 -1.38,0 -2.4,0.96 -1.02,0.96 -1.02,2.34 l -0.48,0.06 q -1.02,0 -1.74,-0.78 -0.66,-0.78 -0.66,-1.74 0,-1.26 0.9,-1.98 V 59.5 q -1.2,-0.6 -2.28,-1.2 -1.02,-0.6 -1.74,-1.26 -0.66,-0.66 -0.84,-1.5 -0.12,-0.84 0.54,-1.86 l 0.36,0.54 q -0.18,1.08 0.84,1.68 1.02,0.54 2.64,0.78 1.62,0.18 3.48,0.18 1.86,0 3.24,0 3.24,0 5.1,1.74 1.86,1.74 3.18,4.56 2.88,-2.4 5.34,-3.9 2.52,-1.5 4.86,-3.06 -0.06,0.24 -0.18,0.54 -0.12,0.3 -0.12,0.54 0,1.38 0.54,2.04 0.54,0.66 1.38,0.96 0.84,0.24 1.8,0.36 0.96,0.12 1.86,0.36 -1.68,0 -3.24,0.78 -1.5,0.72 -2.7,1.98 -1.14,1.2 -1.86,2.76 -0.66,1.56 -0.54,3.18 0.06,1.44 1.08,2.4 1.02,0.96 2.16,1.2 1.2,0.24 2.16,-0.36 0.96,-0.6 0.96,-2.34 0,-0.24 -0.24,-0.48 -0.24,-0.3 -0.54,-0.48 -0.3,-0.24 -0.66,-0.36 -0.3,-0.18 -0.54,-0.18 -0.66,0 -1.02,0.48 -0.3,0.42 -0.3,1.02 l 1.02,0.48 v 0.3 l -0.18,0.06 q -1.32,0 -1.32,-1.2 0,-0.72 0.54,-1.2 0.54,-0.54 1.26,-0.54 1.02,0 1.74,0.78 0.72,0.78 0.72,1.8 0,1.38 -0.96,2.16 -0.96,0.72 -2.28,0.72 -0.9,0 -1.74,-0.36 -0.78,-0.42 -1.38,-1.02 -0.6,-0.66 -0.96,-1.44 -0.36,-0.84 -0.36,-1.74 0,-0.96 0.3,-1.98 0.36,-1.08 0.72,-1.98 0.36,-0.9 0.66,-1.56 0.36,-0.72 0.36,-1.02 0,-0.84 -0.84,-1.68 -0.84,-0.9 -1.74,-0.9 -0.54,0 -1.5,0.48 -0.9,0.48 -1.86,1.2 -0.9,0.72 -1.62,1.5 -0.66,0.72 -0.66,1.26 l -0.3,12.18 1.5,-0.06 q 0.9,0 1.5,-0.36 0.6,-0.42 0.9,-1.02 0.36,-0.6 0.48,-1.32 0.12,-0.78 0.06,-1.56 h 0.54 q 0,1.92 0.72,2.94 0.78,1.02 2.7,1.5 -0.3,0.36 -0.72,0.36 -0.36,0 -0.72,0.12 -0.84,0.3 -1.26,1.14 -0.42,0.84 -0.6,1.86 -0.12,1.02 -0.12,2.04 0,1.02 0,1.74 h -0.54 l 0.06,-1.92 q 0,-0.6 -0.24,-1.44 -0.18,-0.9 -0.6,-1.62 -0.36,-0.78 -0.96,-1.32 -0.54,-0.54 -1.26,-0.54 l -1.38,-0.06 -0.06,8.22 q 0,2.46 0.36,4.32 0.42,1.86 1.44,3.12 1.02,1.26 2.76,1.92 1.74,0.6 4.44,0.6 l 1.74,-1.14 0.3,0.6 q -1.74,1.08 -3.6,2.58 -1.8,1.44 -3.36,2.4 -1.2,-0.36 -2.52,-1.14 -1.32,-0.84 -2.52,-1.92 -1.14,-1.08 -2.04,-2.34 -0.84,-1.26 -1.14,-2.52 -0.72,0.72 -2.16,1.98 -1.38,1.26 -2.88,2.52 -1.44,1.26 -2.76,2.28 -1.26,1.02 -1.74,1.26 -0.42,-2.46 -1.74,-3.84 -1.26,-1.38 -3.84,-1.44 -0.84,0.42 -1.56,1.5 -0.66,1.02 -1.14,2.28 -0.48,1.26 -0.78,2.52 -0.24,1.26 -0.24,2.1 0,1.56 0.48,3 0.48,1.44 1.38,2.52 0.96,1.14 2.28,1.8 1.32,0.72 2.94,0.72 1.14,0 2.16,-0.3 1.08,-0.3 1.86,-0.9 0.84,-0.54 1.32,-1.44 0.48,-0.9 0.48,-2.16 0,-0.72 -0.42,-1.44 -0.36,-0.66 -0.96,-1.2 -0.54,-0.48 -1.26,-0.78 -0.72,-0.3 -1.38,-0.3 -1.26,0 -2.28,1.02 -1.02,1.08 -1.02,2.28 0,0.66 0.42,1.26 0.42,0.6 1.14,0.6 0.18,0 0.6,-0.3 0.48,-0.24 0.42,-1.26 h 0.3 l 0.48,0.18 q -0.18,0.84 -0.48,1.44 -0.3,0.6 -1.32,0.6 -0.96,0 -1.56,-0.84 -0.54,-0.78 -0.54,-1.62 0,-1.56 1.2,-2.7 1.2,-1.14 2.7,-1.14 1.8,0 3.18,1.26 1.38,1.26 1.38,3.12 0,2.4 -1.68,3.72 -1.68,1.38 -3.96,1.38 -4.32,0 -6.48,-2.52 -2.1,-2.52 -2.1,-6.6 0,-2.28 0.84,-4.2 0.84,-1.98 2.1,-3.6 1.32,-1.68 2.82,-3.06 1.5,-1.44 2.76,-2.76 1.32,-1.38 2.16,-2.64 0.84,-1.26 0.84,-2.64 0,-1.02 -0.84,-1.56 -0.78,-0.54 -1.68,-0.54 -0.6,0 -1.02,0.42 -0.42,0.42 -0.42,1.02 0,0.6 0.42,0.9 0.42,0.3 0.9,0.48 l -0.54,0.24 q -0.66,0 -1.08,-0.54 -0.36,-0.6 -0.36,-1.2 0,-0.9 0.66,-1.44 0.72,-0.54 1.56,-0.54 1.38,0 2.1,1.02 0.78,0.96 0.78,2.22 0,1.26 -0.6,2.22 -0.54,0.96 -1.2,1.8 -0.66,0.78 -1.26,1.44 -0.54,0.66 -0.54,1.26 0,0.78 0.54,1.62 0.6,0.84 1.38,1.56 0.84,0.72 1.74,1.2 0.96,0.48 1.74,0.48 0.24,0 1.14,-0.66 0.96,-0.72 1.92,-1.56 0.96,-0.9 1.74,-1.68 0.78,-0.84 0.78,-1.08 l -0.18,-13.32 q -0.24,-0.06 -0.48,-0.06 -0.24,0 -0.48,0 -1.2,0 -1.8,0.3 -0.6,0.3 -0.9,0.9 -0.3,0.54 -0.36,1.32 0,0.78 0,1.74 l -0.12,2.22 h -0.54 l 0.12,-1.5 q 0.18,-2.52 -0.48,-3.78 -0.6,-1.26 -2.4,-1.38 z" />
      <path
         id="path26"
         style="font-family:'Holyriver Shadow'"
         d="m 155.51758,74.599609 v -3.076172 h 6.03515 v 1.523438 h -4.48242 q -0.64453,0 -1.11328,0.46875 -0.43945,0.46875 -0.43945,1.083984 z m 15.96679,27.744141 h -9.96093 q 0.64453,-0.0293 1.08398,-0.46875 0.43945,-0.41016 0.46875,-1.05469 h 6.88477 q 0.0293,0.64453 0.43945,1.05469 0.43945,0.43945 1.08398,0.46875 z m -1.52343,-1.52344 q -0.64453,-0.0293 -1.08399,-0.46875 -0.41015,-0.410154 -0.43945,-1.054685 V 71.523437 h 6.12305 q 0.61523,0 1.05468,0.439454 0.46875,0.439453 0.49805,1.113281 -0.0293,-0.0293 -6.15234,-0.0293 z m 7.64648,-26.220701 q 0,-0.615234 -0.43945,-1.054687 -0.41016,-0.439453 -1.05469,-0.46875 v -6.884766 h 1.49414 z m -7.61719,26.220701 h -0.0293 z" />
      <path
         id="path28"
         style="font-family:'Holyriver Shadow'"
         d="m 188.74023,93.935547 h -1.52343 v -7.207031 l 5.88867,-3.925782 q 0.38086,-0.263672 0.8789,-0.263672 0.61524,0 1.08399,0.439454 v -6.826172 l 1.49414,-1.025391 v 9.375 q -0.43945,-0.439453 -1.08398,-0.439453 -0.46875,0 -0.87891,0.263672 l -5.85938,3.925781 z m -1.52343,-15 v -7.41211 h 9.22851 q 0.61524,0 1.05469,0.439454 0.46875,0.439453 0.49805,1.113281 -0.0293,-0.0293 -9.25782,-0.0293 v 4.863281 z m 12.27539,-4.335938 q 0,-0.615234 -0.43946,-1.054687 -0.41015,-0.439453 -1.05468,-0.46875 v -6.884766 h 1.49414 z m 0,27.744141 h -19.18946 q 0.64454,0 1.08399,-0.43945 0.43945,-0.43946 0.46875,-1.08399 h 16.14258 v -5.361326 q 0.64453,-0.0293 1.05468,-0.46875 0.43946,-0.439453 0.43946,-1.083984 z" />
      <path
         id="path30"
         style="font-family:'Holyriver Shadow'"
         d="m 230.48828,100.82031 q -0.64453,-0.0293 -1.08398,-0.49804 -0.41016,-0.439458 -0.41016,-1.054692 V 66.191406 h 3.04688 q -0.64454,0 -1.11329,0.46875 -0.43945,0.439453 -0.43945,1.083985 z m 1.55274,1.52344 h -9.99024 q 0.55664,0 0.99609,-0.35156 0.55665,-0.46875 0.55665,-1.17188 h 6.88476 q 0.0293,0.64453 0.46875,1.08399 0.43945,0.43945 1.08399,0.43945 z M 220,87.519531 h -5.80078 q 0.20508,-0.351562 0.20508,-0.791015 0,-0.351563 -0.14649,-0.673829 l -0.0293,-0.05859 h 4.24804 q -0.20508,-0.351563 -0.20508,-0.791016 l 0.0293,-0.292969 0.0293,-0.0293 q 0.0586,-0.292968 0.20508,-0.498046 l 3.57421,-6.5625 v 4.277343 l -2.16796,3.955078 q -0.0586,0.08789 -0.11719,0.351563 -0.0293,0.117187 -0.0293,0.322266 0,0.439453 0.20508,0.791015 z m -4.39453,-11.71875 -5.06836,-8.642578 q -0.32227,-0.410156 -0.32227,-0.966797 h 3.04688 q -0.64453,0 -1.11328,0.46875 -0.43946,0.439453 -0.43946,1.083985 0,0.322265 0.11719,0.585937 l 4.07227,6.943359 z m -3.42774,26.542969 h -9.99023 q 0.55664,0 0.9668,-0.35156 0.55664,-0.46875 0.58593,-1.17188 h 6.85547 q 0.0293,0.64453 0.46875,1.08399 0.46875,0.43945 1.11328,0.43945 z m -1.58203,-1.52344 q -0.61523,-0.0293 -1.05468,-0.49804 -0.43946,-0.439458 -0.43946,-1.054692 V 77.851562 l 1.49414,2.753907 z m 19.95117,0 h -0.0586 z m -19.89257,0 h -0.0586 z" />
      <path
         id="path32"
         style="font-family:'Holyriver Shadow'"
         d="M 240.91797,81.132812 V 70.9375 h 4.57031 v 1.523437 h -3.07617 v 7.353516 z M 242.5,100.82031 q -1.02539,-0.0879 -1.40625,-0.996091 -0.0879,-0.263672 -0.0879,-0.556641 V 89.863281 L 252.37305,79.580078 V 66.308594 l 1.49414,1.523437 V 81.103516 L 242.5,91.386719 Z m 1.55273,1.52344 h -9.99023 q 0.64453,0 1.08398,-0.43945 0.43946,-0.43946 0.46875,-1.08399 H 242.5 q 0,0.26367 0.11719,0.52735 0.43945,0.99609 1.43554,0.99609 z m -1.49414,-1.52344 H 242.5 Z" />
      <path
         id="path34"
         style="font-family:'Holyriver Shadow'"
         d="m 275.42969,102.34375 h -16.9043 l -1.49414,-1.52344 h 16.9043 l 3.98437,-4.10156 -5.18555,-30.46875 1.49415,1.494141 5.21484,30.498046 z m -12.65625,-8.085938 -1.52344,-1.49414 2.87109,-21.240235 h 2.72461 l 0.20508,1.523438 h -1.43555 z" />
      <path
         id="path36"
         style="font-family:'Holyriver Shadow'"
         d="M 288.87695,81.132812 V 70.9375 h 4.57032 v 1.523437 h -3.07618 v 7.353516 z m 16.66992,21.210938 H 295 q 0.64453,0 1.08398,-0.43945 0.46875,-0.43946 0.49805,-1.08399 h 6.97266 l 0.11718,0.29297 q 0.61524,1.23047 1.875,1.23047 z m -2.02148,-1.61133 q -0.9375,-0.26367 -1.34766,-1.142576 l -6.21093,-15.732422 4.33593,-4.21875 v -0.05859 h 0.0293 V 66.308594 l 1.49414,1.523437 v 13.271485 l -0.0293,0.05859 -4.33593,4.21875 z m -11.51367,1.61133 h -9.99024 q 0.64454,0 1.08399,-0.43945 0.43945,-0.43946 0.46875,-1.08399 h 6.88476 q 0,0.29297 0.0879,0.52735 0.46875,0.99609 1.46485,0.99609 z m -1.55274,-1.52344 q -1.02539,-0.0879 -1.40625,-0.996091 -0.11718,-0.263672 -0.11718,-0.556641 v -9.404297 l 1.78711,-1.669922 0.84961,2.138672 -1.11329,1.054688 z m 13.59375,0 h -0.49804 l -0.0293,-0.0879 q 0.26367,0.0879 0.52734,0.0879 z m -13.56445,0 h -0.0293 z" />
      <path
         id="path38"
         style="font-family:'Holyriver Shadow'"
         d="m 314.95117,87.138672 2.46094,-13.330078 0.9082,4.833984 -1.31836,7.060547 z m 17.8125,15.205078 h -10.72265 q 0.64453,0 1.08398,-0.43945 0.43945,-0.43946 0.46875,-1.08399 h 7.06055 q 0.55664,1.37696 2.10937,1.52344 z m -2.13867,-1.64062 q -1.31836,-0.43946 -1.58203,-1.757818 l -6.5918,-32.490234 q -0.0293,-0.0293 -0.0293,-0.263672 h 3.04688 q -0.64453,0 -1.11328,0.46875 -0.43945,0.439453 -0.43945,1.083985 0,0.205078 0,0.234375 0.0293,0 6.65039,32.490234 z m -16.37695,0.11718 q -0.64453,-0.0586 -1.08399,-0.49804 -0.43945,-0.439458 -0.43945,-1.054692 l 0.64453,-3.603516 7.17773,-5.009765 0.41016,2.285156 -6.06445,4.248047 -0.61524,3.28125 z m 1.55273,1.52344 h -10.69336 q 1.52344,-0.14648 2.08008,-1.52344 h 7.06055 q 0.0293,0.64453 0.46875,1.08399 0.43945,0.43945 1.08398,0.43945 z m 15.43945,-1.52344 h -0.58593 l -0.0293,-0.11718 q 0.29297,0.0879 0.61523,0.11718 z m -16.93359,0 h -0.0586 z" />
      <path
         id="path40"
         style="font-family:'Holyriver Shadow'"
         d="m 341.17187,100.82031 q -0.64453,-0.0293 -1.08398,-0.49804 -0.41016,-0.439458 -0.41016,-1.054692 V 77.96875 l 1.49414,2.695312 z m 1.55274,1.52344 h -9.96094 q 0.55664,0 0.9668,-0.35156 0.41015,-0.35156 0.55664,-0.87891 l 0.0293,-0.29297 h 6.85546 q 0.0293,0.64453 0.46875,1.08399 0.46875,0.43945 1.08399,0.43945 z m 7.11914,-19.189453 -8.75977,-16.054688 q -0.0879,-0.08789 -0.11718,-0.205078 -0.14649,-0.322265 -0.14649,-0.703125 h 3.04688 q -0.64453,0 -1.11328,0.46875 -0.43946,0.439453 -0.43946,1.083985 0,0.46875 0.26367,0.878906 l 7.26563,13.300781 z m 9.93164,19.189453 h -9.99023 q 0.55664,0 0.96679,-0.35156 0.43946,-0.35156 0.55664,-0.87891 l 0.0293,-0.29297 h 6.88477 q 0.0293,0.64453 0.46875,1.08399 0.43945,0.43945 1.08398,0.43945 z m -1.55273,-1.52344 q -0.64454,-0.0293 -1.08399,-0.49804 -0.41015,-0.439458 -0.41015,-1.054692 V 66.191406 h 3.04687 q -0.64453,0 -1.11328,0.46875 -0.43945,0.439453 -0.43945,1.083985 z m -16.99219,0 h -0.0586 z m 17.05078,0 h -0.0586 z" />
      <path
         id="path42"
         style="font-family:'Holyriver Shadow'"
         d="m 370.84961,93.935547 h -1.52344 v -7.207031 l 5.88867,-3.925782 q 0.38086,-0.263672 0.87891,-0.263672 0.61523,0 1.08398,0.439454 v -6.826172 l 1.49414,-1.025391 v 9.375 q -0.43945,-0.439453 -1.08398,-0.439453 -0.46875,0 -0.87891,0.263672 l -5.85937,3.925781 z m -1.52344,-15 v -7.41211 h 9.22852 q 0.61523,0 1.05468,0.439454 0.46875,0.439453 0.49805,1.113281 -0.0293,-0.0293 -9.25781,-0.0293 v 4.863281 z m 12.27539,-4.335938 q 0,-0.615234 -0.43945,-1.054687 -0.41016,-0.439453 -1.05469,-0.46875 v -6.884766 h 1.49414 z m 0,27.744141 h -19.18945 q 0.64453,0 1.08398,-0.43945 0.43946,-0.43946 0.46875,-1.08399 h 16.14258 v -5.361326 q 0.64453,-0.0293 1.05469,-0.46875 0.43945,-0.439453 0.43945,-1.083984 z" />
      <path
         id="path44"
         style="font-family:'Holyriver Shadow'"
         d="m 392.88086,87.138672 2.46094,-13.330078 0.9082,4.833984 -1.31836,7.060547 z m 17.8125,15.205078 H 399.9707 q 0.64453,0 1.08399,-0.43945 0.43945,-0.43946 0.46875,-1.08399 h 7.06054 q 0.55664,1.37696 2.10938,1.52344 z m -2.13867,-1.64062 q -1.31836,-0.43946 -1.58203,-1.757818 l -6.5918,-32.490234 q -0.0293,-0.0293 -0.0293,-0.263672 h 3.04688 q -0.64453,0 -1.11328,0.46875 -0.43946,0.439453 -0.43946,1.083985 0,0.205078 0,0.234375 0.0293,0 6.65039,32.490234 z m -16.37696,0.11718 q -0.64453,-0.0586 -1.08398,-0.49804 -0.43945,-0.439458 -0.43945,-1.054692 l 0.64453,-3.603516 7.17773,-5.009765 0.41016,2.285156 -6.06445,4.248047 -0.61524,3.28125 z m 1.55274,1.52344 h -10.69336 q 1.52344,-0.14648 2.08008,-1.52344 h 7.06054 q 0.0293,0.64453 0.46875,1.08399 0.43946,0.43945 1.08399,0.43945 z m 15.43945,-1.52344 h -0.58594 l -0.0293,-0.11718 q 0.29297,0.0879 0.61523,0.11718 z m -16.93359,0 h -0.0586 z" />
    </g>
  </g>
</svg>
