<?xml version="1.0" encoding="UTF-8" standalone="no"?>
<svg
   xmlns:dc="http://purl.org/dc/elements/1.1/"
   xmlns:cc="http://creativecommons.org/ns#"
   xmlns:rdf="http://www.w3.org/1999/02/22-rdf-syntax-ns#"
   xmlns:svg="http://www.w3.org/2000/svg"
   xmlns="http://www.w3.org/2000/svg"
   id="svg16"
   width="800px"
   version="1.1"
   height="200px">
  <metadata
     id="metadata20">
    <rdf:RDF>
      <cc:Work
         rdf:about="">
        <dc:format>image/svg+xml</dc:format>
        <dc:type
           rdf:resource="http://purl.org/dc/dcmitype/StillImage" />
      </cc:Work>
    </rdf:RDF>
  </metadata>
  <defs
     id="defs4">
    <style
       id="style2"
       type="text/css"><![CDATA[    
     @font-face {font-family:IBM Plex Sans;
     src: url('/Users/francesco/Repos/write-logos/src/fonts/Fonts_E_TEMPORANEA/IBMPlexSans-Bold.ttf');}
     @font-face {font-family:Bungee Outline;
     src: url('/Users/francesco/Repos/write-logos/src/fonts/Fonts_X/BungeeOutline-Regular.ttf');}
     ]]></style>
  </defs>
  <g
     id="g14"
     style="font-size:60px">
    <g
       style="text-anchor:middle"
       id="text12"
       aria-label="EXTEMPORANEA">
      <path
         id="path22"
         style="font-family:'IBM Plex Sans';letter-spacing:0.075em"
         d="M 137.57312,100 V 58.12 h 28.5 v 8.1 h -19.38 v 8.58 h 16.62001 v 8.04 h -16.62001 v 9.06 h 19.38 v 8.1 z" />
      <path
         id="path24"
         style="font-family:'Bungee Outline';letter-spacing:0.05em"
         d="m 184.51844,91.9 v 2.7 h -0.6 v -2.7 q 0,-1.32 0.06,-2.46 0.12,-1.2 0.84,-2.16 l 7.2,-9.84 -7.2,-9.72 q -0.66,-0.96 -0.78,-2.1 -0.12,-1.2 -0.12,-2.52 v -0.9 h 0.6 v 0.9 q 0,1.26 0.12,2.4 0.12,1.14 0.72,1.98 l 7.2,9.72 h 7.14 l 6.96,-9.72 q 0.6,-0.84 0.72,-1.98 0.12,-1.14 0.12,-2.4 v -0.9 h 0.6 v 0.9 q 0,1.32 -0.12,2.52 -0.12,1.14 -0.78,2.1 l -7.08,9.84 7.08,9.72 q 0.66,0.96 0.78,2.16 0.12,1.14 0.12,2.46 v 2.7 h -0.6 v -2.7 q 0,-1.26 -0.12,-2.4 -0.12,-1.14 -0.72,-1.98 l -7.02,-9.72 h -7.2 l -7.08,9.72 q -0.6,0.78 -0.72,1.98 -0.12,1.14 -0.12,2.4 z m 6.42,5.94 V 91.9 q 0,-0.6 0.06,-1.26 0.06,-0.66 0.48,-1.26 l 2.7,-3.78 q 0.36,-0.54 0.66,-0.78 0.3,-0.24 0.78,-0.24 h 0.84 q 0.48,0 0.78,0.24 0.3,0.24 0.66,0.78 l 2.64,3.78 q 0.42,0.6 0.48,1.26 0.06,0.66 0.06,1.26 v 5.94 q 0,1.14 0.48,1.68 0.54,0.48 1.68,0.48 h 9.12 q 1.14,0 1.62,-0.48 0.54,-0.54 0.54,-1.68 v -6.42 q 0,-2.76 -0.48,-4.14 -0.42,-1.38 -1.8,-3.24 l -4.86,-6.48 4.86,-6.6 q 1.32,-1.86 1.8,-3.24 0.48,-1.38 0.48,-4.14 v -4.62 q 0,-1.14 -0.54,-1.62 -0.48,-0.54 -1.62,-0.54 h -9.12 q -1.14,0 -1.68,0.54 -0.48,0.48 -0.48,1.62 v 4.14 q 0,0.6 -0.06,1.26 -0.06,0.66 -0.48,1.26 l -2.7,3.78 q -0.36,0.48 -0.66,0.78 -0.3,0.24 -0.78,0.24 h -0.72 q -0.48,0 -0.84,-0.24 -0.3,-0.3 -0.6,-0.78 l -2.64,-3.78 q -0.42,-0.6 -0.48,-1.26 -0.06,-0.66 -0.06,-1.26 v -4.14 q 0,-1.14 -0.54,-1.62 -0.48,-0.54 -1.62,-0.54 h -9.24 q -1.14,0 -1.68,0.54 -0.48,0.48 -0.48,1.62 v 4.62 q 0,2.76 0.42,4.14 0.48,1.38 1.86,3.24 l 4.86,6.54 -4.86,6.54 q -1.32,1.86 -1.8,3.24 -0.48,1.38 -0.48,4.14 v 6.42 q 0,1.14 0.48,1.68 0.54,0.48 1.68,0.48 h 9.12 q 1.14,0 1.62,-0.48 0.54,-0.54 0.54,-1.68 z m -2.16,2.76 h -9.12 q -1.44,0 -2.1,-0.66 -0.66,-0.66 -0.66,-2.1 v -6.42 q 0,-2.94 0.48,-4.38 0.48,-1.44 1.92,-3.36 l 4.62,-6.18 -4.62,-6.18 q -1.44,-1.92 -1.92,-3.36 -0.48,-1.44 -0.48,-4.38 v -4.62 q 0,-1.44 0.66,-2.1 0.66,-0.66 2.1,-0.66 h 9.24 q 1.44,0 2.1,0.66 0.66,0.66 0.66,2.1 v 4.14 q 0,0.54 0,1.14 0.06,0.54 0.42,1.02 l 2.64,3.84 q 0.24,0.3 0.42,0.54 0.18,0.18 0.54,0.18 h 0.72 q 0.36,0 0.54,-0.24 0.18,-0.24 0.42,-0.54 l 2.7,-3.78 q 0.36,-0.48 0.36,-1.02 0.06,-0.6 0.06,-1.14 v -4.14 q 0,-1.44 0.66,-2.1 0.66,-0.66 2.1,-0.66 h 9.12 q 1.44,0 2.1,0.66 0.66,0.66 0.66,2.1 v 4.62 q 0,2.94 -0.48,4.38 -0.48,1.44 -1.92,3.36 l -4.62,6.24 4.62,6.12 q 1.44,1.92 1.92,3.36 0.48,1.44 0.48,4.38 v 6.42 q 0,1.44 -0.66,2.1 -0.66,0.66 -2.1,0.66 h -9.12 q -1.44,0 -2.1,-0.66 -0.66,-0.66 -0.66,-2.1 V 91.9 q 0,-0.54 -0.06,-1.08 0,-0.54 -0.36,-1.08 l -2.64,-3.78 q -0.24,-0.36 -0.42,-0.54 -0.18,-0.24 -0.54,-0.24 h -0.84 q -0.36,0 -0.54,0.24 -0.18,0.18 -0.42,0.54 l -2.7,3.78 q -0.36,0.54 -0.42,1.08 0,0.54 0,1.08 v 5.94 q 0,1.44 -0.66,2.1 -0.66,0.66 -2.1,0.66 z" />
      <path
         id="path26"
         style="font-family:'IBM Plex Sans';letter-spacing:0.075em"
         d="M 243.15812,66.22 V 100 h -9.12 V 66.22 h -11.34 v -8.1 h 31.80001 v 8.1 z" />
      <path
         id="path28"
         style="font-family:'IBM Plex Sans';letter-spacing:0.075em"
         d="M 265.23719,100 V 58.12 h 28.5 v 8.1 h -19.38 v 8.58 h 16.62 v 8.04 h -16.62 v 9.06 h 19.38 v 8.1 z" />
      <path
         id="path30"
         style="font-family:'IBM Plex Sans';letter-spacing:0.075em"
         d="m 337.5025,72.52 h -0.18 l -3.06,6.12 -8.16,14.82 -7.98,-14.76 -3.18,-6.6 h -0.18 V 100 h -8.58 V 58.12 h 9.66 l 10.26,19.62 h 0.12 l 10.14,-19.62 h 9.72 V 100 h -8.58 z" />
      <path
         id="path32"
         style="font-family:'IBM Plex Sans';letter-spacing:0.075em"
         d="M 359.78406,100 V 58.12 h 19.8 q 2.94,0 5.28,1.02 2.34,0.96 3.96,2.7 1.68,1.74 2.58,4.26 0.9,2.46 0.9,5.4 0,3 -0.9,5.46 -0.9,2.46 -2.58,4.2 -1.62,1.74 -3.96,2.76 -2.34,0.96 -5.28,0.96 h -10.68 V 100 Z m 9.12,-23.04 h 9.6 q 2.04,0 3.18,-1.02 1.2,-1.08 1.2,-3.12 v -2.64 q 0,-2.04 -1.2,-3.06 -1.14,-1.08 -3.18,-1.08 h -9.6 z" />
      <path
         id="path34"
         style="font-family:'IBM Plex Sans';letter-spacing:0.075em"
         d="m 420.45906,100.72 q -4.14,0 -7.56,-1.38 -3.42,-1.38 -5.82,-4.08 -2.4,-2.76 -3.72,-6.78 -1.32,-4.08 -1.32,-9.42 0,-5.34 1.32,-9.36 1.32,-4.08 3.72,-6.78 2.4,-2.76 5.82,-4.14 3.42,-1.38 7.56,-1.38 4.14,0 7.56,1.38 3.42,1.38 5.82,4.14 2.4,2.7 3.72,6.78 1.32,4.02 1.32,9.36 0,5.34 -1.32,9.42 -1.32,4.02 -3.72,6.78 -2.4,2.7 -5.82,4.08 -3.42,1.38 -7.56,1.38 z m 0,-8.1 q 4.14,0 6.42,-2.7 2.34,-2.7 2.34,-7.74 v -6.24 q 0,-5.04 -2.34,-7.74 -2.28,-2.7 -6.42,-2.7 -4.14,0 -6.48,2.7 -2.28,2.7 -2.28,7.74 v 6.24 q 0,5.04 2.28,7.74 2.34,2.7 6.48,2.7 z" />
      <path
         id="path36"
         style="font-family:'IBM Plex Sans';letter-spacing:0.075em"
         d="m 460.16969,100 h -9.12 V 58.12 h 19.86 q 2.88,0 5.22,0.96 2.34,0.96 3.96,2.76 1.68,1.74 2.58,4.2 0.9,2.46 0.9,5.46 0,4.26 -1.92,7.44 -1.86,3.18 -5.7,4.62 l 8.22,16.44 h -10.14 l -7.32,-15.36 h -6.54 z m 9.6,-23.04 q 2.04,0 3.18,-1.02 1.2,-1.08 1.2,-3.12 v -2.64 q 0,-2.04 -1.2,-3.06 -1.14,-1.08 -3.18,-1.08 h -9.6 v 10.92 z" />
      <path
         id="path38"
         style="font-family:'IBM Plex Sans';letter-spacing:0.075em"
         d="m 521.77937,100 -3,-9.96 h -13.98 l -3,9.96 h -9.24 l 13.8,-41.88 h 11.28 l 13.62,41.88 z m -9.9,-33.6 h -0.29999 l -4.62,15.9 h 9.6 z" />
      <path
         id="path40"
         style="font-family:'IBM Plex Sans';letter-spacing:0.075em"
         d="m 554.39219,80.2 -4.02,-8.4 h -0.18 V 100 h -8.58 V 58.12 h 9.96 l 11.46,19.8 4.02,8.4 h 0.18 v -28.2 h 8.58 V 100 h -9.96 z" />
      <path
         id="path42"
         style="font-family:'IBM Plex Sans';letter-spacing:0.075em"
         d="M 589.58875,100 V 58.12 h 28.5 v 8.1 h -19.38 v 8.58 h 16.62 v 8.04 h -16.62 v 9.06 h 19.38 v 8.1 z" />
      <path
         id="path44"
         style="font-family:'IBM Plex Sans';letter-spacing:0.075em"
         d="m 656.33406,100 -3,-9.96 h -13.98 l -3,9.96 h -9.24 l 13.8,-41.88 h 11.28 l 13.62,41.88 z m -9.9,-33.6 h -0.3 l -4.62,15.9 h 9.6 z" />
    </g>
  </g>
</svg>
