<?xml version="1.0" encoding="UTF-8" standalone="no"?>
<svg
   xmlns:dc="http://purl.org/dc/elements/1.1/"
   xmlns:cc="http://creativecommons.org/ns#"
   xmlns:rdf="http://www.w3.org/1999/02/22-rdf-syntax-ns#"
   xmlns:svg="http://www.w3.org/2000/svg"
   xmlns="http://www.w3.org/2000/svg"
   id="svg16"
   width="800px"
   version="1.1"
   height="200px">
  <metadata
     id="metadata20">
    <rdf:RDF>
      <cc:Work
         rdf:about="">
        <dc:format>image/svg+xml</dc:format>
        <dc:type
           rdf:resource="http://purl.org/dc/dcmitype/StillImage" />
      </cc:Work>
    </rdf:RDF>
  </metadata>
  <defs
     id="defs4">
    <style
       id="style2"
       type="text/css"><![CDATA[    
     @font-face {font-family:IBM Plex Sans;
     src: url('/Users/francesco/Repos/write-logos/src/fonts/Fonts_E_TEMPORANEA/IBMPlexSans-Bold.ttf');}
     @font-face {font-family:Scrittura Ravvicinata;
     src: url('/Users/francesco/Repos/write-logos/src/fonts/Fonts_X/ScritturaRavvicinata-Regular.ttf');}
     ]]></style>
  </defs>
  <g
     id="g14"
     style="font-size:60px">
    <g
       style="text-anchor:middle"
       id="text12"
       aria-label="EXTEMPORANEA">
      <path
         id="path22"
         style="font-family:'IBM Plex Sans';letter-spacing:0.075em"
         d="M 145.01453,100 V 58.12 h 28.5 v 8.1 h -19.38 v 8.58 h 16.62 v 8.04 h -16.62 v 9.06 h 19.38 v 8.1 z" />
      <path
         id="path24"
         style="font-family:'Scrittura Ravvicinata';letter-spacing:0.05em"
         d="m 199.27984,91 q -0.12,0 -0.9,-1.56 -0.78,-1.56 -0.84,-1.56 -0.24,0 -0.78,-1.44 -0.66,-1.56 -1.08,-1.8 -0.3,-0.24 -0.48,-0.12 -0.18,0.12 -0.48,0.72 -0.3,0.6 -0.6,1.08 -0.3,0.42 -0.54,1.08 -0.3,0.66 -0.78,1.32 -0.42,0.66 -0.72,1.38 -0.36,0.9 -1.2,2.34 -0.78,1.2 -0.78,1.56 0,0.24 -0.54,0.78 -0.54,0.48 -1.14,1.98 -0.66,1.5 -0.96,1.68 -0.12,0.06 -0.78,1.38 -1.2,2.46 -2.1,2.46 -0.66,0 -0.9,-1.14 -0.24,-0.9 -0.24,-2.76 0,-3.96 0.72,-4.98 0.24,-0.42 0.54,-1.5 0.78,-3 1.32,-3 0.48,0 0.6,0.96 0.18,0.9 0.42,0.9 0.06,0 0.36,-0.18 0.48,-0.48 2.58,-4.56 0.36,-0.66 0.78,-1.32 0.48,-0.72 0.96,-1.8 0.84,-1.62 0.9,-1.68 0.18,-0.18 0.48,-0.78 0.18,-0.36 0.18,-0.66 0,-0.48 -0.54,-1.5 -0.18,-0.36 -0.42,-0.84 -0.18,-0.54 -0.48,-1.08 -0.24,-0.54 -0.3,-0.72 -0.42,-1.2 -0.66,-1.32 -0.18,-0.12 -0.66,-1.14 -0.42,-1.02 -0.42,-1.26 0,-0.3 -0.36,-0.66 -0.42,-0.54 -1.02,-2.46 -0.78,-2.04 -0.96,-2.16 -0.42,-0.3 -1.02,-3 -0.54,-2.76 -0.54,-4.32 0,-0.66 0.12,-0.78 0.18,-0.3 0.18,-0.96 0,-0.72 0.36,-0.72 0.36,0 0.78,0.6 0.48,0.54 0.6,1.14 0.9,3.72 1.56,4.38 0.3,0.3 0.3,0.66 0,0.24 1.2,3 l 1.2,2.7 q 0.18,0.6 0.48,0.6 0.24,0 0.24,0.3 0,0.36 0.36,1.32 0.42,0.9 0.48,1.02 0.12,0.72 0.36,0.72 0.3,0 0.72,1.26 l 0.42,1.26 0.6,-0.72 q 0.42,-0.54 1.02,-1.8 0.42,-1.2 0.78,-1.56 0.12,-0.12 0.78,-1.62 0.72,-1.56 0.84,-1.68 0.24,-0.12 1.56,-2.94 1.14,-2.52 2.04,-3.84 0.78,-1.26 0.9,-1.62 0.24,-0.6 0.54,-0.72 0.36,-0.12 0.36,-0.48 0,-0.42 1.08,-1.5 0.84,-0.84 1.14,-0.84 0.48,0 0.48,2.88 0,2.4 -0.66,3.66 -0.72,1.2 -1.08,1.56 -0.42,0.42 -0.42,0.78 0,0.18 -0.9,1.62 -0.9,1.44 -0.9,1.62 0,0.3 -0.6,1.02 -0.66,0.66 -1.08,1.92 -0.42,1.2 -0.78,1.56 -0.36,0.36 -0.36,0.54 0,0.18 -1.44,3.06 -1.38,2.76 -1.38,3.36 0,0.48 0.48,1.68 0.48,1.2 0.84,1.56 0.18,0.18 0.78,1.44 0.6,1.2 0.84,1.44 0.18,0.18 0.96,1.74 0.84,1.56 1.08,1.74 0.36,0.36 0.36,0.66 0,0.36 0.66,1.02 0.66,0.66 0.66,0.78 0,0.12 0.84,1.32 0.84,1.14 1.08,1.38 0.36,0.36 0.36,0.6 0,0.36 0.6,0.96 1.2,1.38 1.2,4.02 0,2.58 -0.66,2.58 -0.3,0 -0.6,-0.48 -0.3,-0.48 -1.02,-1.32 -0.66,-0.84 -1.14,-1.56 -0.84,-1.2 -1.02,-1.2 -0.12,-0.06 -0.72,-1.08 -0.54,-1.02 -0.72,-1.02 -0.24,0 -0.78,-1.14 -0.3,-0.66 -1.02,-1.68 -0.72,-1.02 -1.02,-1.74 -0.36,-0.78 -0.54,-0.78 z" />
      <path
         id="path26"
         style="font-family:'IBM Plex Sans';letter-spacing:0.075em"
         d="M 235.71672,66.22 V 100 h -9.12 V 66.22 h -11.34 v -8.1 h 31.8 v 8.1 z" />
      <path
         id="path28"
         style="font-family:'IBM Plex Sans';letter-spacing:0.075em"
         d="M 257.79578,100 V 58.12 h 28.5 v 8.1 h -19.38 v 8.58 h 16.62 v 8.04 h -16.62 v 9.06 h 19.38 v 8.1 z" />
      <path
         id="path30"
         style="font-family:'IBM Plex Sans';letter-spacing:0.075em"
         d="m 330.06109,72.52 h -0.18 l -3.06,6.12 -8.16,14.82 -7.98,-14.76 -3.18,-6.6 h -0.18 V 100 h -8.58 V 58.12 h 9.66 l 10.26,19.62 h 0.12 l 10.14,-19.62 h 9.72 V 100 h -8.58 z" />
      <path
         id="path32"
         style="font-family:'IBM Plex Sans';letter-spacing:0.075em"
         d="M 352.34266,100 V 58.12 h 19.8 q 2.94,0 5.28,1.02 2.34,0.96 3.96,2.7 1.68,1.74 2.58,4.26 0.9,2.46 0.9,5.4 0,3 -0.9,5.46 -0.9,2.46 -2.58,4.2 -1.62,1.74 -3.96,2.76 -2.34,0.96 -5.28,0.96 h -10.68 V 100 Z m 9.12,-23.04 h 9.6 q 2.04,0 3.18,-1.02 1.2,-1.08 1.2,-3.12 v -2.64 q 0,-2.04 -1.2,-3.06 -1.14,-1.08 -3.18,-1.08 h -9.6 z" />
      <path
         id="path34"
         style="font-family:'IBM Plex Sans';letter-spacing:0.075em"
         d="m 413.01766,100.72 q -4.14,0 -7.56,-1.38 -3.42,-1.38 -5.82,-4.08 -2.4,-2.76 -3.72,-6.78 -1.32,-4.08 -1.32,-9.42 0,-5.34 1.32,-9.36 1.32,-4.08 3.72,-6.78 2.4,-2.76 5.82,-4.14 3.42,-1.38 7.56,-1.38 4.14,0 7.56,1.38 3.42,1.38 5.82,4.14 2.4,2.7 3.72,6.78 1.32,4.02 1.32,9.36 0,5.34 -1.32,9.42 -1.32,4.02 -3.72,6.78 -2.4,2.7 -5.82,4.08 -3.42,1.38 -7.56,1.38 z m 0,-8.1 q 4.14,0 6.42,-2.7 2.34,-2.7 2.34,-7.74 v -6.24 q 0,-5.04 -2.34,-7.74 -2.28,-2.7 -6.42,-2.7 -4.14,0 -6.48,2.7 -2.28,2.7 -2.28,7.74 v 6.24 q 0,5.04 2.28,7.74 2.34,2.7 6.48,2.7 z" />
      <path
         id="path36"
         style="font-family:'IBM Plex Sans';letter-spacing:0.075em"
         d="m 452.72828,100 h -9.12 V 58.12 h 19.86 q 2.88,0 5.22,0.96 2.34,0.96 3.96,2.76 1.68,1.74 2.58,4.2 0.9,2.46 0.9,5.46 0,4.26 -1.92,7.44 -1.86,3.18 -5.7,4.62 l 8.22,16.44 h -10.14 l -7.32,-15.36 h -6.54 z m 9.6,-23.04 q 2.04,0 3.18,-1.02 1.2,-1.08 1.2,-3.12 v -2.64 q 0,-2.04 -1.2,-3.06 -1.14,-1.08 -3.18,-1.08 h -9.6 v 10.92 z" />
      <path
         id="path38"
         style="font-family:'IBM Plex Sans';letter-spacing:0.075em"
         d="m 514.33797,100 -3,-9.96 h -13.98 l -3,9.96 h -9.24 l 13.8,-41.88 h 11.28 l 13.62,41.88 z m -9.9,-33.6 h -0.3 l -4.62,15.9 h 9.6 z" />
      <path
         id="path40"
         style="font-family:'IBM Plex Sans';letter-spacing:0.075em"
         d="m 546.95078,80.2 -4.02,-8.4 h -0.18 V 100 h -8.58 V 58.12 h 9.96 l 11.46,19.8 4.02,8.4 h 0.18 v -28.2 h 8.58 V 100 h -9.96 z" />
      <path
         id="path42"
         style="font-family:'IBM Plex Sans';letter-spacing:0.075em"
         d="M 582.14734,100 V 58.12 h 28.5 v 8.1 h -19.38 v 8.58 h 16.62 v 8.04 h -16.62 v 9.06 h 19.38 v 8.1 z" />
      <path
         id="path44"
         style="font-family:'IBM Plex Sans';letter-spacing:0.075em"
         d="m 648.89266,100 -3,-9.96 h -13.98 l -3,9.96 h -9.24 l 13.8,-41.88 h 11.28 l 13.62,41.88 z m -9.9,-33.6 h -0.3 l -4.62,15.9 h 9.6 z" />
    </g>
  </g>
</svg>
