<?xml version="1.0" encoding="UTF-8" standalone="no"?>
<svg
   xmlns:dc="http://purl.org/dc/elements/1.1/"
   xmlns:cc="http://creativecommons.org/ns#"
   xmlns:rdf="http://www.w3.org/1999/02/22-rdf-syntax-ns#"
   xmlns:svg="http://www.w3.org/2000/svg"
   xmlns="http://www.w3.org/2000/svg"
   id="svg16"
   width="800px"
   version="1.1"
   height="200px">
  <metadata
     id="metadata20">
    <rdf:RDF>
      <cc:Work
         rdf:about="">
        <dc:format>image/svg+xml</dc:format>
        <dc:type
           rdf:resource="http://purl.org/dc/dcmitype/StillImage" />
      </cc:Work>
    </rdf:RDF>
  </metadata>
  <defs
     id="defs4">
    <style
       id="style2"
       type="text/css"><![CDATA[    
     @font-face {font-family:IBM Plex Sans;
     src: url('/Users/francesco/Repos/write-logos/src/fonts/Fonts_E_TEMPORANEA/IBMPlexSans-Bold.ttf');}
     @font-face {font-family:PWChalk;
     src: url('/Users/francesco/Repos/write-logos/src/fonts/Fonts_X/PWChalk.ttf');}
     ]]></style>
  </defs>
  <g
     id="g14"
     style="font-size:60px">
    <g
       style="text-anchor:middle"
       id="text12"
       aria-label="EXTEMPORANEA">
      <path
         id="path22"
         style="font-family:'IBM Plex Sans';letter-spacing:0.075em"
         d="M 138.62781,100 V 58.12 h 28.5 v 8.1 h -19.38 v 8.58 h 16.62 v 8.04 h -16.62 v 9.06 h 19.38 v 8.1 z" />
      <path
         id="path24"
         style="font-family:PWChalk;letter-spacing:0.05em"
         d="m 182.39312,69.1 1.74,1.98 -0.84,-1.08 -2.58,-4.02 -1.26,-1.86 0.42,0.96 1.92,3.18 z m 12.42001,18.66 0.29999,0.54 2.16,3.3 1.62,2.58 -0.66,0.36 0.48,0.66 1.62,1.68 0.9,0.72 0.06,0.12 -0.12,-0.84 -1.38,-2.22 -1.26,-2.16 -0.42,-0.6 -2.28,-2.88 z m -6.54001,-8.4 -0.12,0.12 0.12,0.18 0.66,1.02 0.18,-0.24 z m 8.4,8.34 -0.9,-1.38 -0.48,-0.6 1.08,1.56 0.84,1.32 z m -17.76,3.24 V 91 Z m 8.1,-4.62 2.4,-3.24 -0.24,-0.3 -0.3,0.42 z m 13.92,-18.6 2.76,-3.72 -1.5,1.56 -3.6,4.44 z m -9.72,15.96 -0.12,0.24 0.3,0.42 2.88,4.44 -2.16,-3.66 z m -1.02,-1.62 -0.24,-0.42 -0.18,0.24 0.24,0.42 z m 3.24,-4.02 -0.48,-0.6 -0.48,0.72 0.42,0.6 z m -7.61999,-9.3 0.29999,0.54 2.76,4.2 v 0.06 l 0.9,1.14 0.48,-0.6 -0.96,-1.2 -2.7,-3.18 z m 6.29999,6.06 0.66,0.84 3.18,-4.56 3.84,-5.16 3,-4.02 -2.58,2.64 -4.32,4.5 0.66,0.6 z m 1.5,1.86 0.42,0.6 0.6,-0.72 0.6,-0.72 1.5,-2.22 1.32,-1.8 -0.9,0.9 z m -2.16,-1.14 -0.54,0.6 0.24,0.3 0.54,0.72 0.24,-0.3 0.3,-0.42 -0.12,-0.12 z m -14.58,20.88 -0.84,-0.36 0.06,-0.24 -0.18,0.3 -0.42,1.26 -0.06,0.6 -0.96,-0.12 0.06,-0.72 0.54,-1.38 1.5,-2.76 2.22,-3.72 3.3,-5.04 4.2,-5.34 0.24,-0.3 -2.16,-3.48 -0.84,-1.38 -2.21999,-2.7 -2.34001,-3 -1.5,-2.1 0.72,-0.66 0.78,0.54 0.3,0.24 -0.06,-0.12 -0.18,-0.36 -0.24,-0.42 -1.86,-2.82 -1.02,-1.98 0.54,-0.3 -0.06,-0.06 0.54,-0.3 -0.3,-0.66 0.78,-0.6 0.72,0.6 1.32,1.62 v -0.06 l -0.48,-0.84 0.84001,-0.54 0.06,0.18 0.9,-0.24 0.24,0.9 1.08,2.22 0.36,0.66 2.1,2.82 2.76001,3.36 2.69999,3.18 0.9,1.02 4.26,-4.86 4.32,-4.62 3.66,-3.66 2.4,-2.16 1.08,-0.9 0.72,0.66 -1.2,1.44 -2.33999,2.94 -1.20001,1.62 1.98,-2.1 1.8,-1.68 0.9,-0.66 0.66,0.72 -0.96,1.44 -2.46,3 -1.38,1.86 0.18,0.24 0.78,-0.84 1.62,-1.74 1.08001,-1.2 2.69999,-2.76 0.84,-0.84 0.72,0.6 -0.9,1.02 -2.16,2.22 -1.56,1.62 -2.4,2.7 -4.14,4.62 -3.18,3.6 -1.85999,2.7 0.47999,0.66 2.52001,3.3 2.57999,3.3 2.16,3.3 1.98,3.12 1.62,2.52 1.2,1.68 0.48,0.78 -0.84,0.48 -0.48,-0.78 -1.19999,-1.68 -1.62001,-2.52 -1.98,-3.12 -2.16,-3.18 -2.46,-3.3 -2.52,-3.3 -0.36,-0.42 -0.54,0.78 0.6,0.84 3.12,4.02 2.52,3.84 2.58,3.36 0.48,0.78 0.84,1.02 0.9,1.74 1.32,2.1 0.96,1.32 -0.84,0.6 -0.96,-1.44 -1.02,-1.56 -0.78,-0.78 -1.62,-1.86 -0.3,-0.36 0.6,1.38 -0.6,0.72 0.6,1.02 -0.12,1.8 -1.14,0.12 -1.14,-0.96 -1.74,-1.8 -2.1,-2.82 -2.46,-3.72 -2.88,-4.44 -1.5,2.34 -2.82,4.62 -1.91999,3.06 -0.66001,0.54 -0.66,-0.66 0.42,-0.54 1.2,-2.34 2.16,-3.54 0.60001,-0.96 -1.14001,1.5 -3.66,5.4 -2.58,4.14 -0.84,1.44 -0.54,1.02 -0.12,-0.06 -0.36,0.54 -0.54,1.08 -0.84,-0.36 0.54,-1.2 1.38,-2.22 0.78,-1.5 2.58,-4.68 1.14,-1.98 -0.9,1.38 -2.34,4.32 -1.5,2.64 -0.84,-0.48 1.5,-2.64 2.34,-4.32 3.78,-5.82 3.12,-4.02 -0.84,-1.26 -1.44,1.74 -3.78,5.1 -2.52,4.32 -1.8,2.58 -0.72,1.56 z" />
      <path
         id="path26"
         style="font-family:'IBM Plex Sans';letter-spacing:0.075em"
         d="M 242.10344,66.22 V 100 h -9.12 V 66.22 h -11.34 v -8.1 h 31.8 v 8.1 z" />
      <path
         id="path28"
         style="font-family:'IBM Plex Sans';letter-spacing:0.075em"
         d="M 264.1825,100 V 58.12 h 28.5 v 8.1 h -19.38 v 8.58 h 16.62 v 8.04 h -16.62 v 9.06 h 19.38 v 8.1 z" />
      <path
         id="path30"
         style="font-family:'IBM Plex Sans';letter-spacing:0.075em"
         d="m 336.44781,72.52 h -0.18 l -3.06,6.12 -8.16,14.82 -7.98,-14.76 -3.18,-6.6 h -0.18 V 100 h -8.58 V 58.12 h 9.66 l 10.26,19.62 h 0.12 l 10.14,-19.62 h 9.72 V 100 h -8.58 z" />
      <path
         id="path32"
         style="font-family:'IBM Plex Sans';letter-spacing:0.075em"
         d="M 358.72937,100 V 58.12 h 19.80001 q 2.94,0 5.27999,1.02 2.34001,0.96 3.96001,2.7 1.67999,1.74 2.57999,4.26 0.9,2.46 0.9,5.4 0,3 -0.9,5.46 -0.9,2.46 -2.57999,4.2 -1.62,1.74 -3.96001,2.76 -2.33999,0.96 -5.27999,0.96 H 367.84937 V 100 Z m 9.12,-23.04 h 9.6 q 2.04,0 3.18,-1.02 1.20001,-1.08 1.20001,-3.12 v -2.64 q 0,-2.04 -1.20001,-3.06 -1.14,-1.08 -3.18,-1.08 h -9.6 z" />
      <path
         id="path34"
         style="font-family:'IBM Plex Sans';letter-spacing:0.075em"
         d="m 419.40438,100.72 q -4.14001,0 -7.56,-1.38 -3.42001,-1.38 -5.82,-4.08 -2.40001,-2.76 -3.72001,-6.78 -1.32,-4.08 -1.32,-9.42 0,-5.34 1.32,-9.36 1.32,-4.08 3.72001,-6.78 2.39999,-2.76 5.82,-4.14 3.41999,-1.38 7.56,-1.38 4.13999,0 7.56,1.38 3.41999,1.38 5.81999,4.14 2.4,2.7 3.72,6.78 1.32001,4.02 1.32001,9.36 0,5.34 -1.32001,9.42 -1.32,4.02 -3.72,6.78 -2.4,2.7 -5.81999,4.08 -3.42001,1.38 -7.56,1.38 z m 0,-8.1 q 4.13999,0 6.41999,-2.7 2.34,-2.7 2.34,-7.74 v -6.24 q 0,-5.04 -2.34,-7.74 -2.28,-2.7 -6.41999,-2.7 -4.14001,0 -6.48001,2.7 -2.27999,2.7 -2.27999,7.74 v 6.24 q 0,5.04 2.27999,7.74 2.34,2.7 6.48001,2.7 z" />
      <path
         id="path36"
         style="font-family:'IBM Plex Sans';letter-spacing:0.075em"
         d="m 459.115,100 h -9.12 V 58.12 h 19.86 q 2.88,0 5.22,0.96 2.34,0.96 3.96,2.76 1.68,1.74 2.58,4.2 0.9,2.46 0.9,5.46 0,4.26 -1.92,7.44 -1.86,3.18 -5.7,4.62 l 8.22,16.44 h -10.14 l -7.32,-15.36 h -6.54 z m 9.6,-23.04 q 2.04,0 3.18,-1.02 1.2,-1.08 1.2,-3.12 v -2.64 q 0,-2.04 -1.2,-3.06 -1.14,-1.08 -3.18,-1.08 h -9.6 v 10.92 z" />
      <path
         id="path38"
         style="font-family:'IBM Plex Sans';letter-spacing:0.075em"
         d="m 520.72469,100 -3,-9.96 h -13.98 l -3,9.96 h -9.24 l 13.8,-41.88 h 11.28 l 13.62,41.88 z m -9.9,-33.6 h -0.3 l -4.62,15.9 h 9.6 z" />
      <path
         id="path40"
         style="font-family:'IBM Plex Sans';letter-spacing:0.075em"
         d="m 553.3375,80.2 -4.02,-8.4 h -0.18 V 100 h -8.58 V 58.12 h 9.96 l 11.46,19.8 4.02,8.4 h 0.18 v -28.2 h 8.58 V 100 h -9.96 z" />
      <path
         id="path42"
         style="font-family:'IBM Plex Sans';letter-spacing:0.075em"
         d="M 588.53406,100 V 58.12 h 28.5 v 8.1 h -19.38 v 8.58 h 16.62 v 8.04 h -16.62 v 9.06 h 19.38 v 8.1 z" />
      <path
         id="path44"
         style="font-family:'IBM Plex Sans';letter-spacing:0.075em"
         d="m 655.27937,100 -3,-9.96 h -13.97999 l -3,9.96 h -9.24 l 13.79999,-41.88 h 11.28 l 13.62,41.88 z m -9.9,-33.6 h -0.29999 l -4.62,15.9 h 9.6 z" />
    </g>
  </g>
</svg>
