<?xml version="1.0" encoding="UTF-8" standalone="no"?>
<svg
   xmlns:dc="http://purl.org/dc/elements/1.1/"
   xmlns:cc="http://creativecommons.org/ns#"
   xmlns:rdf="http://www.w3.org/1999/02/22-rdf-syntax-ns#"
   xmlns:svg="http://www.w3.org/2000/svg"
   xmlns="http://www.w3.org/2000/svg"
   id="svg16"
   width="800px"
   version="1.1"
   height="200px">
  <metadata
     id="metadata20">
    <rdf:RDF>
      <cc:Work
         rdf:about="">
        <dc:format>image/svg+xml</dc:format>
        <dc:type
           rdf:resource="http://purl.org/dc/dcmitype/StillImage" />
      </cc:Work>
    </rdf:RDF>
  </metadata>
  <defs
     id="defs4">
    <style
       id="style2"
       type="text/css"><![CDATA[    
     @font-face {font-family:IBM Plex Sans;
     src: url('/Users/francesco/Repos/write-logos/src/fonts/Fonts_E_TEMPORANEA/IBMPlexSans-Bold.ttf');}
     @font-face {font-family:FrankfurterEF;
     src: url('/Users/francesco/Repos/write-logos/src/fonts/Fonts_X/FrankfurterEF-Highlight.ttf');}
     ]]></style>
  </defs>
  <g
     id="g14"
     style="font-size:60px">
    <g
       style="text-anchor:middle"
       id="text12"
       aria-label="EXTEMPORANEA">
      <path
         id="path22"
         style="font-family:'IBM Plex Sans';letter-spacing:0.075em"
         d="M 142.02625,100 V 58.12 h 28.5 v 8.1 h -19.38 v 8.58 h 16.62 v 8.04 h -16.62 v 9.06 h 19.38 v 8.1 z" />
      <path
         id="path24"
         style="font-family:FrankfurterEF;letter-spacing:0.05em"
         d="m 213.39156,93.7 q 0,-1.2 -0.42,-2.28 -0.36,-1.08 -1.02,-2.04 l -7.5,-10.02 6.12,-8.1 q 0.84,-1.08 1.44,-2.34 0.66,-1.32 0.66,-2.7 0,-1.32 -0.54,-2.52 -0.54,-1.2 -1.5,-2.04 -0.9,-0.9 -2.16,-1.38 -1.2,-0.54 -2.52,-0.54 -2.04,0 -3.36,1.02 -1.26,1.02 -2.46,2.52 l -4.02,5.04 -4.26,-5.64 q -1.02,-1.38 -2.4,-2.16 -1.38,-0.78 -3.18,-0.78 -1.38,0 -2.58,0.54 -1.2,0.48 -2.16,1.38 -0.9,0.9 -1.44,2.1 -0.54,1.2 -0.54,2.58 0,1.62 0.84,3.06 0.84,1.38 1.8,2.58 l 5.58,7.38 -7.5,9.9 q -0.72,0.96 -1.14,2.16 -0.42,1.14 -0.42,2.34 0,1.38 0.54,2.58 0.54,1.2 1.44,2.1 0.9,0.84 2.1,1.38 1.2,0.48 2.58,0.48 1.8,0 3,-0.72 1.26,-0.78 2.34,-2.16 l 5.4,-7.02 5.4,7.08 q 1.02,1.32 2.4,2.1 1.38,0.72 3.06,0.72 1.32,0 2.52,-0.54 1.2,-0.54 2.04,-1.44 0.84,-0.9 1.32,-2.1 0.54,-1.2 0.54,-2.52 z m -8.46,-29.4 q 0,0.48 -0.36,0.84 -0.36,0.36 -0.84,0.36 -0.48,0 -0.84,-0.36 -0.3,-0.36 -0.3,-0.84 0,-1.14 1.14,-1.14 0.48,0 0.84,0.36 0.36,0.3 0.36,0.78 z m -2.22,2.28 q 0,0.3 -0.12,0.54 -0.12,0.18 -0.24,0.42 l -3,3.9 q -0.18,0.24 -0.42,0.42 -0.24,0.18 -0.54,0.18 -0.48,0 -0.72,-0.3 -0.24,-0.3 -0.24,-0.72 0,-0.3 0.12,-0.54 0.18,-0.3 0.36,-0.54 l 2.76,-3.6 q 0.42,-0.66 1.08,-0.66 0.36,0 0.66,0.24 0.3,0.24 0.3,0.66 z m -17.4,-2.58 q 0,1.14 -1.14,1.14 -0.48,0 -0.84,-0.3 -0.36,-0.36 -0.36,-0.84 0,-0.48 0.36,-0.84 0.36,-0.36 0.84,-0.36 0.48,0 0.78,0.36 0.36,0.36 0.36,0.84 z m 22.68,32.94 q 0,0.66 -0.48,0.9 -0.42,0.24 -0.96,0.24 -1.38,0 -2.16,-0.66 -0.72,-0.72 -1.44,-1.74 l -5.1,-6.84 q -0.18,-0.24 -0.36,-0.48 -0.12,-0.3 -0.12,-0.6 0,-0.96 0.9,-0.96 0.42,0 0.66,0.3 0.3,0.24 0.54,0.54 l 5.34,7.2 q 0.54,0.72 1.08,0.9 0.54,0.18 1.02,0.3 0.48,0.06 0.78,0.18 0.3,0.12 0.3,0.72 z m -15.72,-17.46 q 0,1.02 -0.6,1.86 -0.54,0.84 -1.14,1.62 l -6.78,8.76 q -0.3,0.36 -0.48,0.84 -0.18,0.42 -0.18,0.9 0,0.96 0.42,1.38 0.48,0.42 1.02,0.66 0.54,0.24 0.96,0.48 0.48,0.18 0.48,0.72 0,0.48 -0.42,0.78 -0.36,0.3 -0.84,0.3 -0.72,0 -1.44,-0.36 -0.66,-0.42 -1.14,-0.96 -0.48,-0.6 -0.78,-1.32 -0.3,-0.72 -0.3,-1.44 0,-1.02 0.36,-1.92 0.42,-0.96 1.08,-1.8 l 6.9,-8.82 q 0.3,-0.36 0.54,-0.78 0.24,-0.48 0.24,-0.96 0,-0.66 -0.36,-1.26 -0.36,-0.6 -0.72,-1.08 l -6.3,-8.46 q -0.24,-0.3 -0.48,-0.72 -0.18,-0.48 -0.18,-0.9 0,-0.48 0.24,-0.78 0.3,-0.3 0.78,-0.3 0.72,0 0.96,0.66 0.12,0.24 0.24,0.48 0.12,0.18 0.24,0.42 l 5.76,7.8 q 0.66,0.96 1.26,1.98 0.66,1.02 0.66,2.22 z" />
      <path
         id="path26"
         style="font-family:'IBM Plex Sans';letter-spacing:0.075em"
         d="M 238.705,66.22 V 100 h -9.12 V 66.22 h -11.34 v -8.1 h 31.8 v 8.1 z" />
      <path
         id="path28"
         style="font-family:'IBM Plex Sans';letter-spacing:0.075em"
         d="M 260.78406,100 V 58.12 h 28.5 v 8.1 h -19.38 v 8.58 h 16.62 v 8.04 h -16.62 v 9.06 h 19.38 v 8.1 z" />
      <path
         id="path30"
         style="font-family:'IBM Plex Sans';letter-spacing:0.075em"
         d="m 333.04937,72.52 h -0.18 l -3.06,6.12 -8.15999,14.82 -7.98001,-14.76 -3.18,-6.6 h -0.18 V 100 h -8.58 V 58.12 h 9.66 l 10.26001,19.62 h 0.12 l 10.13999,-19.62 h 9.72 V 100 h -8.58 z" />
      <path
         id="path32"
         style="font-family:'IBM Plex Sans';letter-spacing:0.075em"
         d="M 355.33094,100 V 58.12 h 19.8 q 2.94,0 5.28,1.02 2.34,0.96 3.96,2.7 1.68,1.74 2.58,4.26 0.9,2.46 0.9,5.4 0,3 -0.9,5.46 -0.9,2.46 -2.58,4.2 -1.62,1.74 -3.96,2.76 -2.34,0.96 -5.28,0.96 h -10.68 V 100 Z m 9.12,-23.04 h 9.6 q 2.04,0 3.18,-1.02 1.2,-1.08 1.2,-3.12 v -2.64 q 0,-2.04 -1.2,-3.06 -1.14,-1.08 -3.18,-1.08 h -9.6 z" />
      <path
         id="path34"
         style="font-family:'IBM Plex Sans';letter-spacing:0.075em"
         d="m 416.00594,100.72 q -4.14,0 -7.56,-1.38 -3.42,-1.38 -5.82,-4.08 -2.4,-2.76 -3.72,-6.78 -1.32,-4.08 -1.32,-9.42 0,-5.34 1.32,-9.36 1.32,-4.08 3.72,-6.78 2.4,-2.76 5.82,-4.14 3.42,-1.38 7.56,-1.38 4.14,0 7.56,1.38 3.42,1.38 5.82,4.14 2.4,2.7 3.72,6.78 1.32,4.02 1.32,9.36 0,5.34 -1.32,9.42 -1.32,4.02 -3.72,6.78 -2.4,2.7 -5.82,4.08 -3.42,1.38 -7.56,1.38 z m 0,-8.1 q 4.14,0 6.42,-2.7 2.34,-2.7 2.34,-7.74 v -6.24 q 0,-5.04 -2.34,-7.74 -2.28,-2.7 -6.42,-2.7 -4.14,0 -6.48,2.7 -2.28,2.7 -2.28,7.74 v 6.24 q 0,5.04 2.28,7.74 2.34,2.7 6.48,2.7 z" />
      <path
         id="path36"
         style="font-family:'IBM Plex Sans';letter-spacing:0.075em"
         d="m 455.71656,100 h -9.12 V 58.12 h 19.86 q 2.88,0 5.22,0.96 2.34,0.96 3.96,2.76 1.68,1.74 2.58,4.2 0.9,2.46 0.9,5.46 0,4.26 -1.92,7.44 -1.86,3.18 -5.7,4.62 l 8.22,16.44 h -10.14 l -7.32,-15.36 h -6.54 z m 9.6,-23.04 q 2.04,0 3.18,-1.02 1.2,-1.08 1.2,-3.12 v -2.64 q 0,-2.04 -1.2,-3.06 -1.14,-1.08 -3.18,-1.08 h -9.6 v 10.92 z" />
      <path
         id="path38"
         style="font-family:'IBM Plex Sans';letter-spacing:0.075em"
         d="m 517.32625,100 -3,-9.96 h -13.98 l -3,9.96 h -9.24 l 13.8,-41.88 h 11.28 l 13.62,41.88 z m -9.9,-33.6 h -0.3 l -4.62,15.9 h 9.6 z" />
      <path
         id="path40"
         style="font-family:'IBM Plex Sans';letter-spacing:0.075em"
         d="m 549.93906,80.2 -4.02,-8.4 h -0.18 V 100 h -8.58 V 58.12 h 9.96 l 11.46,19.8 4.02,8.4 h 0.18 v -28.2 h 8.58 V 100 h -9.96 z" />
      <path
         id="path42"
         style="font-family:'IBM Plex Sans';letter-spacing:0.075em"
         d="M 585.13562,100 V 58.12 h 28.5 v 8.1 h -19.38 v 8.58 h 16.62001 v 8.04 h -16.62001 v 9.06 h 19.38 v 8.1 z" />
      <path
         id="path44"
         style="font-family:'IBM Plex Sans';letter-spacing:0.075em"
         d="m 651.88094,100 -3,-9.96 h -13.98 l -3,9.96 h -9.24 l 13.8,-41.88 h 11.28 l 13.62,41.88 z m -9.9,-33.6 h -0.3 l -4.62,15.9 h 9.6 z" />
    </g>
  </g>
</svg>
