<?xml version="1.0" encoding="UTF-8" standalone="no"?>
<svg
   xmlns:dc="http://purl.org/dc/elements/1.1/"
   xmlns:cc="http://creativecommons.org/ns#"
   xmlns:rdf="http://www.w3.org/1999/02/22-rdf-syntax-ns#"
   xmlns:svg="http://www.w3.org/2000/svg"
   xmlns="http://www.w3.org/2000/svg"
   id="svg16"
   width="800px"
   version="1.1"
   height="200px">
  <metadata
     id="metadata20">
    <rdf:RDF>
      <cc:Work
         rdf:about="">
        <dc:format>image/svg+xml</dc:format>
        <dc:type
           rdf:resource="http://purl.org/dc/dcmitype/StillImage" />
      </cc:Work>
    </rdf:RDF>
  </metadata>
  <defs
     id="defs4">
    <style
       id="style2"
       type="text/css"><![CDATA[    
     @font-face {font-family:IBM Plex Sans;
     src: url('/Users/francesco/Repos/write-logos/src/fonts/Fonts_E_TEMPORANEA/IBMPlexSans-Bold.ttf');}
     @font-face {font-family:Modak;
     src: url('/Users/francesco/Repos/write-logos/src/fonts/Fonts_X/Modak-Regular.ttf');}
     ]]></style>
  </defs>
  <g
     id="g14"
     style="font-size:60px">
    <g
       style="text-anchor:middle"
       id="text12"
       aria-label="EXTEMPORANEA">
      <path
         id="path22"
         style="font-family:'IBM Plex Sans';letter-spacing:0.075em"
         d="M 140.79578,100 V 58.12 h 28.5 v 8.1 h -19.38 v 8.58 h 16.62 v 8.04 h -16.62 v 9.06 h 19.38 v 8.1 z" />
      <path
         id="path24"
         style="font-family:Modak;letter-spacing:0.05em"
         d="m 196.22266,93.115234 -3.39844,6.621094 q -2.19727,0.820312 -4.77539,0.820312 -4.54102,0 -7.44141,-2.578124 -2.90039,-2.578125 -2.90039,-6.94336 0,-3.867187 2.60742,-6.884765 2.60742,-3.017579 7.38282,-5.06836 -0.35157,-0.966797 -1.20118,-0.966797 -0.84961,0 -3.10547,1.552735 -2.19726,-1.142578 -3.86718,-3.779297 -1.64063,-2.636719 -1.64063,-6.09375 0,-3.457031 2.54883,-5.917969 2.54883,-2.460937 7.03125,-2.460937 3.86719,0 6.35742,1.435546 l 3.10547,6.181641 2.51953,-6.328125 q 2.49024,-1.113281 5.56641,-1.113281 4.36523,0 7.08984,2.402344 2.72461,2.460937 2.72461,6.884765 0,3.66211 -2.63672,6.884766 -2.60742,3.193359 -6.70898,5.068359 0.32226,0.84961 1.14258,0.84961 0.84961,0 2.72461,-1.289063 l 6.03515,7.558594 q 0,4.716797 -2.34375,7.529297 -2.57812,3.105471 -7.11914,3.105471 -6.91406,0 -9.69726,-7.470706 z" />
      <path
         id="path26"
         style="font-family:'IBM Plex Sans';letter-spacing:0.075em"
         d="M 239.93547,66.22 V 100 h -9.12 V 66.22 h -11.34 v -8.1 h 31.8 v 8.1 z" />
      <path
         id="path28"
         style="font-family:'IBM Plex Sans';letter-spacing:0.075em"
         d="M 262.01453,100 V 58.12 h 28.5 v 8.1 h -19.38 v 8.58 h 16.62 v 8.04 h -16.62 v 9.06 h 19.38 v 8.1 z" />
      <path
         id="path30"
         style="font-family:'IBM Plex Sans';letter-spacing:0.075em"
         d="m 334.27984,72.52 h -0.18 l -3.06,6.12 -8.16,14.82 -7.98,-14.76 -3.18,-6.6 h -0.18 V 100 h -8.58 V 58.12 h 9.66 l 10.26,19.62 h 0.12 l 10.14,-19.62 h 9.72 V 100 h -8.58 z" />
      <path
         id="path32"
         style="font-family:'IBM Plex Sans';letter-spacing:0.075em"
         d="M 356.56141,100 V 58.12 h 19.8 q 2.94,0 5.28,1.02 2.34,0.96 3.96,2.7 1.68,1.74 2.58,4.26 0.9,2.46 0.9,5.4 0,3 -0.9,5.46 -0.9,2.46 -2.58,4.2 -1.62,1.74 -3.96,2.76 -2.34,0.96 -5.28,0.96 h -10.68 V 100 Z m 9.12,-23.04 h 9.6 q 2.04,0 3.18,-1.02 1.2,-1.08 1.2,-3.12 v -2.64 q 0,-2.04 -1.2,-3.06 -1.14,-1.08 -3.18,-1.08 h -9.6 z" />
      <path
         id="path34"
         style="font-family:'IBM Plex Sans';letter-spacing:0.075em"
         d="m 417.23641,100.72 q -4.14,0 -7.56,-1.38 -3.42,-1.38 -5.82,-4.08 -2.4,-2.76 -3.72,-6.78 -1.32,-4.08 -1.32,-9.42 0,-5.34 1.32,-9.36 1.32,-4.08 3.72,-6.78 2.4,-2.76 5.82,-4.14 3.42,-1.38 7.56,-1.38 4.14,0 7.56,1.38 3.42,1.38 5.82,4.14 2.4,2.7 3.72,6.78 1.32,4.02 1.32,9.36 0,5.34 -1.32,9.42 -1.32,4.02 -3.72,6.78 -2.4,2.7 -5.82,4.08 -3.42,1.38 -7.56,1.38 z m 0,-8.1 q 4.14,0 6.42,-2.7 2.34,-2.7 2.34,-7.74 v -6.24 q 0,-5.04 -2.34,-7.74 -2.28,-2.7 -6.42,-2.7 -4.14,0 -6.48,2.7 -2.28,2.7 -2.28,7.74 v 6.24 q 0,5.04 2.28,7.74 2.34,2.7 6.48,2.7 z" />
      <path
         id="path36"
         style="font-family:'IBM Plex Sans';letter-spacing:0.075em"
         d="m 456.94703,100 h -9.12 V 58.12 h 19.86 q 2.88,0 5.22,0.96 2.34,0.96 3.96,2.76 1.68,1.74 2.58,4.2 0.9,2.46 0.9,5.46 0,4.26 -1.92,7.44 -1.86,3.18 -5.7,4.62 l 8.22,16.44 h -10.14 l -7.32,-15.36 h -6.54 z m 9.6,-23.04 q 2.04,0 3.18,-1.02 1.2,-1.08 1.2,-3.12 v -2.64 q 0,-2.04 -1.2,-3.06 -1.14,-1.08 -3.18,-1.08 h -9.6 v 10.92 z" />
      <path
         id="path38"
         style="font-family:'IBM Plex Sans';letter-spacing:0.075em"
         d="m 518.55672,100 -3,-9.96 h -13.98 l -3,9.96 h -9.24 l 13.8,-41.88 h 11.28 l 13.62,41.88 z m -9.9,-33.6 h -0.3 l -4.62,15.9 h 9.6 z" />
      <path
         id="path40"
         style="font-family:'IBM Plex Sans';letter-spacing:0.075em"
         d="m 551.16953,80.2 -4.02,-8.4 h -0.18 V 100 h -8.58 V 58.12 h 9.96 l 11.46,19.8 4.02,8.4 h 0.18 v -28.2 h 8.58 V 100 h -9.96 z" />
      <path
         id="path42"
         style="font-family:'IBM Plex Sans';letter-spacing:0.075em"
         d="M 586.36609,100 V 58.12 h 28.5 v 8.1 h -19.38 v 8.58 h 16.62 v 8.04 h -16.62 v 9.06 h 19.38 v 8.1 z" />
      <path
         id="path44"
         style="font-family:'IBM Plex Sans';letter-spacing:0.075em"
         d="m 653.11141,100 -3,-9.96 h -13.98 l -3,9.96 h -9.24 l 13.8,-41.88 h 11.28 l 13.62,41.88 z m -9.9,-33.6 h -0.3 l -4.62,15.9 h 9.6 z" />
    </g>
  </g>
</svg>
