<?xml version="1.0" encoding="UTF-8" standalone="no"?>
<svg
   xmlns:dc="http://purl.org/dc/elements/1.1/"
   xmlns:cc="http://creativecommons.org/ns#"
   xmlns:rdf="http://www.w3.org/1999/02/22-rdf-syntax-ns#"
   xmlns:svg="http://www.w3.org/2000/svg"
   xmlns="http://www.w3.org/2000/svg"
   id="svg16"
   width="800px"
   version="1.1"
   height="200px">
  <metadata
     id="metadata20">
    <rdf:RDF>
      <cc:Work
         rdf:about="">
        <dc:format>image/svg+xml</dc:format>
        <dc:type
           rdf:resource="http://purl.org/dc/dcmitype/StillImage" />
      </cc:Work>
    </rdf:RDF>
  </metadata>
  <defs
     id="defs4">
    <style
       id="style2"
       type="text/css"><![CDATA[    
     @font-face {font-family:Inter;
     src: url('/Users/francesco/Repos/write-logos/src/fonts/Fonts_E_TEMPORANEA/Inter-roman.ttf');}
     @font-face {font-family:Bungee Outline;
     src: url('/Users/francesco/Repos/write-logos/src/fonts/Fonts_X/BungeeOutline-Regular.ttf');}
     ]]></style>
  </defs>
  <g
     id="g14"
     style="font-size:60px">
    <g
       style="text-anchor:middle"
       id="text12"
       aria-label="EXTEMPORANEA">
      <path
         id="path22"
         style="font-family:Inter;letter-spacing:0.075em"
         d="M 135.30753,100 V 56.363636 h 26.33523 v 4.6875 h -21.05114 v 14.744319 h 19.6875 v 4.6875 h -19.6875 V 95.3125 h 21.39204 V 100 Z" />
      <path
         id="path24"
         style="font-family:'Bungee Outline';letter-spacing:0.05em"
         d="m 181.00281,91.9 v 2.7 h -0.6 v -2.7 q 0,-1.32 0.06,-2.46 0.12,-1.2 0.84,-2.16 l 7.2,-9.84 -7.2,-9.72 q -0.66,-0.96 -0.78,-2.1 -0.12,-1.2 -0.12,-2.52 v -0.9 h 0.6 v 0.9 q 0,1.26 0.12,2.4 0.12,1.14 0.72,1.98 l 7.2,9.72 h 7.14 l 6.96,-9.72 q 0.6,-0.84 0.72,-1.98 0.12,-1.14 0.12,-2.4 v -0.9 h 0.6 v 0.9 q 0,1.32 -0.12,2.52 -0.12,1.14 -0.78,2.1 l -7.08,9.84 7.08,9.72 q 0.66,0.96 0.78,2.16 0.12,1.14 0.12,2.46 v 2.7 h -0.6 v -2.7 q 0,-1.26 -0.12,-2.4 -0.12,-1.14 -0.72,-1.98 l -7.02,-9.72 h -7.2 l -7.08,9.72 q -0.6,0.78 -0.72,1.98 -0.12,1.14 -0.12,2.4 z m 6.42,5.94 V 91.9 q 0,-0.6 0.06,-1.26 0.06,-0.66 0.48,-1.26 l 2.7,-3.78 q 0.36,-0.54 0.66,-0.78 0.3,-0.24 0.78,-0.24 h 0.84 q 0.48,0 0.78,0.24 0.3,0.24 0.66,0.78 l 2.64,3.78 q 0.42,0.6 0.48,1.26 0.06,0.66 0.06,1.26 v 5.94 q 0,1.14 0.48,1.68 0.54,0.48 1.68,0.48 h 9.12 q 1.14,0 1.62,-0.48 0.54,-0.54 0.54,-1.68 v -6.42 q 0,-2.76 -0.48,-4.14 -0.42,-1.38 -1.8,-3.24 l -4.86,-6.48 4.86,-6.6 q 1.32,-1.86 1.8,-3.24 0.48,-1.38 0.48,-4.14 v -4.62 q 0,-1.14 -0.54,-1.62 -0.48,-0.54 -1.62,-0.54 h -9.12 q -1.14,0 -1.68,0.54 -0.48,0.48 -0.48,1.62 v 4.14 q 0,0.6 -0.06,1.26 -0.06,0.66 -0.48,1.26 l -2.7,3.78 q -0.36,0.48 -0.66,0.78 -0.3,0.24 -0.78,0.24 h -0.72 q -0.48,0 -0.84,-0.24 -0.3,-0.3 -0.6,-0.78 l -2.64,-3.78 q -0.42,-0.6 -0.48,-1.26 -0.06,-0.66 -0.06,-1.26 v -4.14 q 0,-1.14 -0.54,-1.62 -0.48,-0.54 -1.62,-0.54 h -9.24 q -1.14,0 -1.68,0.54 -0.48,0.48 -0.48,1.62 v 4.62 q 0,2.76 0.42,4.14 0.48,1.38 1.86,3.24 l 4.86,6.54 -4.86,6.54 q -1.32,1.86 -1.8,3.24 -0.48,1.38 -0.48,4.14 v 6.42 q 0,1.14 0.48,1.68 0.54,0.48 1.68,0.48 h 9.12 q 1.14,0 1.62,-0.48 0.54,-0.54 0.54,-1.68 z m -2.16,2.76 h -9.12 q -1.44,0 -2.1,-0.66 -0.66,-0.66 -0.66,-2.1 v -6.42 q 0,-2.94 0.48,-4.38 0.48,-1.44 1.92,-3.36 l 4.62,-6.18 -4.62,-6.18 q -1.44,-1.92 -1.92,-3.36 -0.48,-1.44 -0.48,-4.38 v -4.62 q 0,-1.44 0.66,-2.1 0.66,-0.66 2.1,-0.66 h 9.24 q 1.44,0 2.1,0.66 0.66,0.66 0.66,2.1 v 4.14 q 0,0.54 0,1.14 0.06,0.54 0.42,1.02 l 2.64,3.84 q 0.24,0.3 0.42,0.54 0.18,0.18 0.54,0.18 h 0.72 q 0.36,0 0.54,-0.24 0.18,-0.24 0.42,-0.54 l 2.7,-3.78 q 0.36,-0.48 0.36,-1.02 0.06,-0.6 0.06,-1.14 v -4.14 q 0,-1.44 0.66,-2.1 0.66,-0.66 2.1,-0.66 h 9.12 q 1.44,0 2.1,0.66 0.66,0.66 0.66,2.1 v 4.62 q 0,2.94 -0.48,4.38 -0.48,1.44 -1.92,3.36 l -4.62,6.24 4.62,6.12 q 1.44,1.92 1.92,3.36 0.48,1.44 0.48,4.38 v 6.42 q 0,1.44 -0.66,2.1 -0.66,0.66 -2.1,0.66 h -9.12 q -1.44,0 -2.1,-0.66 -0.66,-0.66 -0.66,-2.1 V 91.9 q 0,-0.54 -0.06,-1.08 0,-0.54 -0.36,-1.08 l -2.64,-3.78 q -0.24,-0.36 -0.42,-0.54 -0.18,-0.24 -0.54,-0.24 h -0.84 q -0.36,0 -0.54,0.24 -0.18,0.18 -0.42,0.54 l -2.7,3.78 q -0.36,0.54 -0.42,1.08 0,0.54 0,1.08 v 5.94 q 0,1.44 -0.66,2.1 -0.66,0.66 -2.1,0.66 z" />
      <path
         id="path26"
         style="font-family:Inter;letter-spacing:0.075em"
         d="m 220.46023,61.051136 v -4.6875 h 32.72727 v 4.6875 H 239.46591 V 100 h -5.28409 V 61.051136 Z" />
      <path
         id="path28"
         style="font-family:Inter;letter-spacing:0.075em"
         d="M 265.90128,100 V 56.363636 h 26.33523 v 4.6875 h -21.05114 v 14.744319 h 19.6875 v 4.6875 h -19.6875 V 95.3125 h 21.39204 V 100 Z" />
      <path
         id="path30"
         style="font-family:Inter;letter-spacing:0.075em"
         d="m 306.26065,56.363636 h 6.30682 l 14.82955,36.221591 h 0.51136 l 14.82955,-36.221591 h 6.30681 V 100 h -4.94318 V 66.846591 h -0.42613 L 330.03906,100 h -4.77272 L 311.62997,66.846591 h -0.42613 V 100 h -4.94319 z" />
      <path
         id="path32"
         style="font-family:Inter;letter-spacing:0.075em"
         d="M 364.08097,100 V 56.363636 h 14.74431 q 5.13495,0 8.39489,1.853694 3.28125,1.832386 4.85795,4.964488 1.57671,3.132102 1.57671,6.988637 0,3.856534 -1.57671,7.009943 -1.55539,3.153409 -4.81534,5.028409 -3.25994,1.853693 -8.35227,1.853693 H 368.34233 V 79.375 h 10.39773 q 3.51562,0 5.6463,-1.214489 2.13069,-1.214488 3.08949,-3.28125 0.98012,-2.088068 0.98012,-4.708806 0,-2.620739 -0.98012,-4.6875 -0.9588,-2.066762 -3.11079,-3.238637 -2.15199,-1.193182 -5.71023,-1.193182 h -9.28977 V 100 Z" />
      <path
         id="path34"
         style="font-family:Inter;letter-spacing:0.075em"
         d="m 443.48509,78.181818 q 0,6.903409 -2.4929,11.931818 -2.4929,5.028409 -6.83949,7.755682 -4.34659,2.727272 -9.92898,2.727272 -5.58238,0 -9.92898,-2.727272 -4.34659,-2.727273 -6.83948,-7.755682 -2.4929,-5.028409 -2.4929,-11.931818 0,-6.903409 2.4929,-11.931818 2.49289,-5.028409 6.83948,-7.755682 4.3466,-2.727273 9.92898,-2.727273 5.58239,0 9.92898,2.727273 4.34659,2.727273 6.83949,7.755682 2.4929,5.028409 2.4929,11.931818 z m -5.11364,0 q 0,-5.667613 -1.89631,-9.566761 -1.875,-3.899148 -5.09233,-5.901989 -3.19602,-2.002841 -7.15909,-2.002841 -3.96307,0 -7.1804,2.002841 -3.19602,2.002841 -5.09233,5.901989 -1.875,3.899148 -1.875,9.566761 0,5.667614 1.875,9.566762 1.89631,3.899147 5.09233,5.901988 3.21733,2.002841 7.1804,2.002841 3.96307,0 7.15909,-2.002841 3.21733,-2.002841 5.09233,-5.901988 1.89631,-3.899148 1.89631,-9.566762 z" />
      <path
         id="path36"
         style="font-family:Inter;letter-spacing:0.075em"
         d="M 456.87003,100 V 56.363636 h 14.74432 q 5.11363,0 8.39488,1.747159 3.28125,1.725853 4.85796,4.751421 1.5767,3.025568 1.5767,6.882102 0,3.856534 -1.5767,6.839489 -1.57671,2.982954 -4.83665,4.6875 -3.25994,1.683238 -8.33097,1.683238 h -11.93181 v -4.772727 h 11.76136 q 3.49432,0 5.625,-1.022727 2.15199,-1.022727 3.11079,-2.897727 0.98012,-1.896307 0.98012,-4.517046 0,-2.620738 -0.98012,-4.580966 -0.98011,-1.960227 -3.1321,-3.025568 -2.15199,-1.086648 -5.68892,-1.086648 h -9.28977 V 100 Z M 477.4098,80.397727 488.14844,100 h -6.13637 L 471.44389,80.397727 Z" />
      <path
         id="path38"
         style="font-family:Inter;letter-spacing:0.075em"
         d="m 501.48011,100 h -5.53977 l 16.02273,-43.636364 h 5.45454 L 533.44034,100 h -5.53977 L 514.8608,63.267045 h -0.34091 z m 2.04546,-17.045455 h 22.32954 v 4.6875 h -22.32954 z" />
      <path
         id="path40"
         style="font-family:Inter;letter-spacing:0.075em"
         d="M 579.33949,56.363636 V 100 h -5.11364 L 550.44744,65.738636 h -0.42613 V 100 h -5.28409 V 56.363636 h 5.11363 l 23.86364,34.346591 h 0.42613 V 56.363636 Z" />
      <path
         id="path42"
         style="font-family:Inter;letter-spacing:0.075em"
         d="M 594.3544,100 V 56.363636 h 26.33523 v 4.6875 h -21.05114 v 14.744319 h 19.6875 v 4.6875 h -19.6875 V 95.3125 h 21.39205 V 100 Z" />
      <path
         id="path44"
         style="font-family:Inter;letter-spacing:0.075em"
         d="m 636.50355,100 h -5.53977 l 16.02273,-43.636364 h 5.45454 L 668.46378,100 h -5.53977 L 649.88423,63.267045 h -0.34091 z m 2.04546,-17.045455 h 22.32954 v 4.6875 h -22.32954 z" />
    </g>
  </g>
</svg>
