<?xml version="1.0" encoding="UTF-8" standalone="no"?>
<svg
   xmlns:dc="http://purl.org/dc/elements/1.1/"
   xmlns:cc="http://creativecommons.org/ns#"
   xmlns:rdf="http://www.w3.org/1999/02/22-rdf-syntax-ns#"
   xmlns:svg="http://www.w3.org/2000/svg"
   xmlns="http://www.w3.org/2000/svg"
   id="svg16"
   width="800px"
   version="1.1"
   height="200px">
  <metadata
     id="metadata20">
    <rdf:RDF>
      <cc:Work
         rdf:about="">
        <dc:format>image/svg+xml</dc:format>
        <dc:type
           rdf:resource="http://purl.org/dc/dcmitype/StillImage" />
      </cc:Work>
    </rdf:RDF>
  </metadata>
  <defs
     id="defs4">
    <style
       id="style2"
       type="text/css"><![CDATA[    
     @font-face {font-family:Inter Black;
     src: url('/Users/francesco/Repos/write-logos/src/fonts/Fonts_E_TEMPORANEA/Inter-Black.otf');}
     @font-face {font-family:Plaster;
     src: url('/Users/francesco/Repos/write-logos/src/fonts/Fonts_X/Plaster-Regular.ttf');}
     ]]></style>
  </defs>
  <g
     id="g14"
     style="font-size:60px">
    <g
       style="text-anchor:middle"
       id="text12"
       aria-label="EXTEMPORANEA">
      <path
         id="path22"
         style="font-family:'Inter Black';letter-spacing:0.075em"
         d="m 118.77344,100 h 31.36363 v -9.545455 h -19.51704 v -7.5 h 17.98295 v -9.545454 h -17.98295 v -7.5 h 19.60227 v -9.545455 h -31.44886 z" />
      <path
         id="path24"
         style="font-family:Plaster;letter-spacing:0.05em"
         d="M 164.02539,74.306641 Q 161.62305,70.820312 161.62305,64.375 v -4.248047 h 11.54297 l 21.79687,23.876953 q 1.8457,2.050781 2.46094,3.457031 0.61523,1.40625 0.9082,2.578125 0.64453,2.34375 0.64453,5.771485 V 100 h -11.2207 L 164.11328,74.306641 Z m 22.26563,-1.669922 q 0,-8.056641 2.49023,-10.488282 1.31836,-1.289062 3.42773,-1.640625 2.13868,-0.380859 5.18555,-0.380859 h 1.58203 v 4.628906 q 0,6.240235 -3.28125,8.34961 -2.34375,1.523437 -7.88086,1.523437 h -1.52343 z m -24.66797,22.792968 q 0,-6.240234 3.28125,-8.378906 2.34375,-1.49414 7.88086,-1.49414 h 1.52343 v 1.992187 q 0,8.144531 -2.49023,10.458984 -1.69922,1.582032 -4.95117,1.875 Q 165.22656,100 163.20508,100 h -1.58203 z" />
      <path
         id="path26"
         style="font-family:'Inter Black';letter-spacing:0.075em"
         d="m 207.46307,65.909091 h 13.125 V 100 H 232.2642 V 65.909091 h 13.125 v -9.545455 h -37.92613 z" />
      <path
         id="path28"
         style="font-family:'Inter Black';letter-spacing:0.075em"
         d="m 254.28906,100 h 31.36364 v -9.545455 h -19.51705 v -7.5 h 17.98296 v -9.545454 h -17.98296 v -7.5 h 19.60228 v -9.545455 h -31.44887 z" />
      <path
         id="path30"
         style="font-family:'Inter Black';letter-spacing:0.075em"
         d="M 296.17187,56.363636 V 100 h 11.59091 V 74.602273 h 0.34091 l 9.71591,25.056818 h 6.98864 l 9.71591,-24.886364 h 0.34091 V 100 h 11.59091 V 56.363636 H 331.71165 L 321.5696,81.079545 h -0.51136 L 310.91619,56.363636 Z" />
      <path
         id="path32"
         style="font-family:'Inter Black';letter-spacing:0.075em"
         d="M 356.57031,100 H 368.4169 V 87.045455 h 6.5625 c 9.95029,0 16.61932,-5.859375 16.61932,-15.255682 0,-9.289773 -6.49858,-15.426137 -16.19318,-15.426137 H 356.57031 Z M 368.4169,77.840909 V 65.823864 h 4.17614 c 4.15483,0 6.64773,2.215909 6.64773,5.965909 0,3.728693 -2.4929,6.051136 -6.64773,6.051136 z" />
      <path
         id="path34"
         style="font-family:'Inter Black';letter-spacing:0.075em"
         d="m 442.71804,78.181818 c 0,-14.573863 -9.375,-22.414773 -21.22159,-22.414773 -11.93182,0 -21.22159,7.84091 -21.22159,22.414773 0,14.488637 9.28977,22.414772 21.22159,22.414772 11.84659,0 21.22159,-7.840908 21.22159,-22.414772 z m -12.1875,0 c 0,7.840909 -3.15341,12.102273 -9.03409,12.102273 -5.88068,0 -9.03409,-4.261364 -9.03409,-12.102273 0,-7.840909 3.15341,-12.102273 9.03409,-12.102273 5.88068,0 9.03409,4.261364 9.03409,12.102273 z" />
      <path
         id="path36"
         style="font-family:'Inter Black';letter-spacing:0.075em"
         d="m 452.64062,100 h 11.8466 V 85.596591 h 4.0909 L 476.24858,100 h 12.86932 l -8.86364,-16.278409 c 4.64489,-2.237216 7.41477,-6.477273 7.41477,-12.528409 0,-9.289773 -6.49858,-14.829546 -16.19318,-14.829546 h -18.83523 z m 11.8466,-23.607955 V 65.823864 h 4.17613 c 4.15483,0 6.64773,1.619318 6.64773,5.369318 0,3.728693 -2.4929,5.198863 -6.64773,5.198863 z" />
      <path
         id="path38"
         style="font-family:'Inter Black';letter-spacing:0.075em"
         d="m 508.55398,100 2.5142,-8.352273 h 14.40341 L 527.9858,100 h 12.78409 L 526.36648,56.363636 H 510.1733 L 495.76989,100 Z m 5.19886,-17.215909 4.34659,-14.403409 h 0.34091 l 4.34659,14.403409 z" />
      <path
         id="path40"
         style="font-family:'Inter Black';letter-spacing:0.075em"
         d="m 587.16974,56.363636 h -11.84659 v 22.840909 h -0.34091 L 559.47088,56.363636 H 549.41406 V 100 h 11.84659 V 77.073864 h 0.25569 L 577.28338,100 h 9.88636 z" />
      <path
         id="path42"
         style="font-family:'Inter Black';letter-spacing:0.075em"
         d="m 597.27344,100 h 31.36363 v -9.545455 h -19.51704 v -7.5 h 17.98295 v -9.545454 h -17.98295 v -7.5 h 19.60227 v -9.545455 h -31.44886 z" />
      <path
         id="path44"
         style="font-family:'Inter Black';letter-spacing:0.075em"
         d="m 650.49148,100 2.5142,-8.352273 h 14.40341 L 669.9233,100 h 12.78409 L 668.30398,56.363636 H 652.1108 L 637.70739,100 Z m 5.19886,-17.215909 4.34659,-14.403409 h 0.34091 l 4.34659,14.403409 z" />
    </g>
  </g>
</svg>
