<?xml version="1.0" encoding="UTF-8" standalone="no"?>
<svg
   xmlns:dc="http://purl.org/dc/elements/1.1/"
   xmlns:cc="http://creativecommons.org/ns#"
   xmlns:rdf="http://www.w3.org/1999/02/22-rdf-syntax-ns#"
   xmlns:svg="http://www.w3.org/2000/svg"
   xmlns="http://www.w3.org/2000/svg"
   id="svg16"
   width="800px"
   version="1.1"
   height="200px">
  <metadata
     id="metadata20">
    <rdf:RDF>
      <cc:Work
         rdf:about="">
        <dc:format>image/svg+xml</dc:format>
        <dc:type
           rdf:resource="http://purl.org/dc/dcmitype/StillImage" />
      </cc:Work>
    </rdf:RDF>
  </metadata>
  <defs
     id="defs4">
    <style
       id="style2"
       type="text/css"><![CDATA[    
     @font-face {font-family:Inter Black;
     src: url('/Users/francesco/Repos/write-logos/src/fonts/Fonts_E_TEMPORANEA/Inter-Black.otf');}
     @font-face {font-family:lift me up;
     src: url('/Users/francesco/Repos/write-logos/src/fonts/Fonts_X/liftmeup.ttf');}
     ]]></style>
  </defs>
  <g
     id="g14"
     style="font-size:60px">
    <g
       style="text-anchor:middle"
       id="text12"
       aria-label="EXTEMPORANEA">
      <path
         id="path22"
         style="font-family:'Inter Black';letter-spacing:0.075em"
         d="m 113.91016,100 h 31.36363 v -9.545455 h -19.51704 v -7.5 h 17.98295 v -9.545454 h -17.98295 v -7.5 h 19.60227 v -9.545455 h -31.44886 z" />
      <path
         id="path24"
         style="font-family:'lift me up';letter-spacing:0.05em"
         d="m 162.58047,53.26 12.6,16.98 -0.84,1.14 -13.5,-18.12 z m 16.02,21.6 3,-4.08 0.84,1.14 -3,3.96 3,4.08 -0.84,1.14 -3,-4.14 -2.64,3.54 -0.78,-1.08 2.58,-3.54 -2.58,-3.42 0.84,-1.08 z m 16.86,25.08 -13.02,-17.76 0.84,-1.08 13.86,18.84 z m -35.58,0 14.46,-19.38 0.78,1.02 -13.62,18.36 z m 36.48,-46.68 -13.08,17.52 -0.84,-1.08 12.24,-16.44 z m 6.84,46.68 -16.92,-22.98 -3,4.14 -0.84,-1.14 3,-4.08 -3,-3.96 0.84,-1.14 3,4.08 16.14,-21.6 h 1.62 l -16.86,22.62 17.64,24.06 z m -24.18,-15.3 2.58,-3.54 0.84,1.08 -2.64,3.54 z m 2.58,-13.86 -2.58,-3.48 0.84,-1.14 2.58,3.54 z m -11.28,-17.52 8.7,11.76 -0.84,1.14 -9.6,-12.9 z m -2.7,46.68 10.56,-14.22 0.78,1.14 -9.72,13.08 z m 8.34,-19.44 3.06,4.14 -0.84,1.08 -3.06,-4.14 z m 3.06,-13.2 -3,4.08 -0.84,-1.14 3,-4.08 z m -6.42,8.58 2.58,3.54 -0.84,1.14 -2.64,-3.6 -17.04,22.98 h -1.62 l 17.82,-24.06 -16.92,-22.62 h 1.74 l 16.02,21.6 2.64,-3.48 0.84,1.08 z m 16.02,24.06 -9.66,-13.08 0.84,-1.14 10.44,14.22 z m 0.84,-46.68 -9.6,12.9 -0.84,-1.14 8.82,-11.76 z" />
      <path
         id="path26"
         style="font-family:'Inter Black';letter-spacing:0.075em"
         d="m 212.32635,65.909091 h 13.125 V 100 h 11.67614 V 65.909091 h 13.125 v -9.545455 h -37.92614 z" />
      <path
         id="path28"
         style="font-family:'Inter Black';letter-spacing:0.075em"
         d="m 259.15234,100 h 31.36364 v -9.545455 h -19.51705 v -7.5 h 17.98296 v -9.545454 h -17.98296 v -7.5 h 19.60228 v -9.545455 h -31.44887 z" />
      <path
         id="path30"
         style="font-family:'Inter Black';letter-spacing:0.075em"
         d="M 301.03516,56.363636 V 100 h 11.59091 V 74.602273 h 0.3409 l 9.71591,25.056818 h 6.98864 l 9.71591,-24.886364 h 0.34091 V 100 h 11.59091 V 56.363636 h -14.74432 l -10.14205,24.715909 h -0.51136 L 315.77947,56.363636 Z" />
      <path
         id="path32"
         style="font-family:'Inter Black';letter-spacing:0.075em"
         d="m 361.43359,100 h 11.84659 V 87.045455 h 6.5625 c 9.95029,0 16.61932,-5.859375 16.61932,-15.255682 0,-9.289773 -6.49858,-15.426137 -16.19318,-15.426137 H 361.43359 Z M 373.28018,77.840909 V 65.823864 h 4.17614 c 4.15483,0 6.64773,2.215909 6.64773,5.965909 0,3.728693 -2.4929,6.051136 -6.64773,6.051136 z" />
      <path
         id="path34"
         style="font-family:'Inter Black';letter-spacing:0.075em"
         d="m 447.58132,78.181818 c 0,-14.573863 -9.375,-22.414773 -21.22159,-22.414773 -11.93182,0 -21.22159,7.84091 -21.22159,22.414773 0,14.488637 9.28977,22.414772 21.22159,22.414772 11.84659,0 21.22159,-7.840908 21.22159,-22.414772 z m -12.1875,0 c 0,7.840909 -3.15341,12.102273 -9.03409,12.102273 -5.88068,0 -9.03409,-4.261364 -9.03409,-12.102273 0,-7.840909 3.15341,-12.102273 9.03409,-12.102273 5.88068,0 9.03409,4.261364 9.03409,12.102273 z" />
      <path
         id="path36"
         style="font-family:'Inter Black';letter-spacing:0.075em"
         d="M 457.50391,100 H 469.3505 V 85.596591 h 4.09091 L 481.11186,100 h 12.86932 l -8.86364,-16.278409 c 4.64489,-2.237216 7.41478,-6.477273 7.41478,-12.528409 0,-9.289773 -6.49858,-14.829546 -16.19319,-14.829546 H 457.50391 Z M 469.3505,76.392045 V 65.823864 h 4.17613 c 4.15483,0 6.64773,1.619318 6.64773,5.369318 0,3.728693 -2.4929,5.198863 -6.64773,5.198863 z" />
      <path
         id="path38"
         style="font-family:'Inter Black';letter-spacing:0.075em"
         d="m 513.41726,100 2.5142,-8.352273 h 14.40341 L 532.84908,100 h 12.78409 L 531.22976,56.363636 H 515.03658 L 500.63317,100 Z m 5.19886,-17.215909 4.34659,-14.403409 h 0.34091 l 4.34659,14.403409 z" />
      <path
         id="path40"
         style="font-family:'Inter Black';letter-spacing:0.075em"
         d="m 592.03303,56.363636 h -11.8466 v 22.840909 h -0.3409 L 564.33416,56.363636 H 554.27734 V 100 h 11.84659 V 77.073864 h 0.25569 L 582.14666,100 h 9.88637 z" />
      <path
         id="path42"
         style="font-family:'Inter Black';letter-spacing:0.075em"
         d="m 602.13672,100 h 31.36364 v -9.545455 h -19.51705 v -7.5 h 17.98295 v -9.545454 h -17.98295 v -7.5 h 19.60227 v -9.545455 h -31.44886 z" />
      <path
         id="path44"
         style="font-family:'Inter Black';letter-spacing:0.075em"
         d="m 655.35476,100 2.5142,-8.352273 h 14.40341 L 674.78658,100 h 12.78409 L 673.16726,56.363636 H 656.97408 L 642.57067,100 Z m 5.19886,-17.215909 4.34659,-14.403409 h 0.34091 l 4.34659,14.403409 z" />
    </g>
  </g>
</svg>
