<?xml version="1.0" encoding="UTF-8" standalone="no"?>
<svg
   xmlns:dc="http://purl.org/dc/elements/1.1/"
   xmlns:cc="http://creativecommons.org/ns#"
   xmlns:rdf="http://www.w3.org/1999/02/22-rdf-syntax-ns#"
   xmlns:svg="http://www.w3.org/2000/svg"
   xmlns="http://www.w3.org/2000/svg"
   id="svg16"
   width="800px"
   version="1.1"
   height="200px">
  <metadata
     id="metadata20">
    <rdf:RDF>
      <cc:Work
         rdf:about="">
        <dc:format>image/svg+xml</dc:format>
        <dc:type
           rdf:resource="http://purl.org/dc/dcmitype/StillImage" />
      </cc:Work>
    </rdf:RDF>
  </metadata>
  <defs
     id="defs4">
    <style
       id="style2"
       type="text/css"><![CDATA[    
     @font-face {font-family:Inter;
     src: url('/Users/francesco/Repos/write-logos/src/fonts/Fonts_E_TEMPORANEA/Inter-roman.ttf');}
     @font-face {font-family:lift me up;
     src: url('/Users/francesco/Repos/write-logos/src/fonts/Fonts_X/liftmeup.ttf');}
     ]]></style>
  </defs>
  <g
     id="g14"
     style="font-size:60px">
    <g
       style="text-anchor:middle"
       id="text12"
       aria-label="EXTEMPORANEA">
      <path
         id="path22"
         style="font-family:Inter;letter-spacing:0.075em"
         d="M 130.03409,100 V 56.363636 h 26.33523 v 4.6875 h -21.05114 v 14.744319 h 19.6875 v 4.6875 h -19.6875 V 95.3125 h 21.39205 V 100 Z" />
      <path
         id="path24"
         style="font-family:'lift me up';letter-spacing:0.05em"
         d="m 174.70937,53.26 12.6,16.98 -0.83999,1.14 -13.5,-18.12 z m 16.02,21.6 3,-4.08 0.84,1.14 -3,3.96 3,4.08 -0.84,1.14 -3,-4.14 -2.64,3.54 -0.78,-1.08 2.58,-3.54 -2.58,-3.42 0.84,-1.08 z m 16.86,25.08 -13.02,-17.76 0.84,-1.08 13.86,18.84 z m -35.58,0 14.46001,-19.38 0.77999,1.02 -13.62,18.36 z m 36.48,-46.68 -13.08,17.52 -0.84,-1.08 12.24,-16.44 z m 6.84,46.68 -16.92,-22.98 -3,4.14 -0.84,-1.14 3,-4.08 -3,-3.96 0.84,-1.14 3,4.08 16.14,-21.6 h 1.62 l -16.86,22.62 17.64,24.06 z m -24.18,-15.3 2.58,-3.54 0.84,1.08 -2.64,3.54 z m 2.58,-13.86 -2.58,-3.48 0.84,-1.14 2.58,3.54 z m -11.28,-17.52 8.7,11.76 -0.84,1.14 -9.6,-12.9 z m -2.7,46.68 10.56,-14.22 0.78,1.14 -9.72,13.08 z m 8.34,-19.44 3.06,4.14 -0.84,1.08 -3.06,-4.14 z m 3.06,-13.2 -3,4.08 -0.84,-1.14 3,-4.08 z m -6.42,8.58 2.58,3.54 -0.83999,1.14 -2.64001,-3.6 -17.04,22.98 h -1.62 l 17.82,-24.06 -16.92,-22.62 h 1.74 l 16.02,21.6 2.64001,-3.48 0.83999,1.08 z m 16.02,24.06 -9.66,-13.08 0.84,-1.14 10.44,14.22 z m 0.84,-46.68 -9.6,12.9 -0.84,-1.14 8.82001,-11.76 z" />
      <path
         id="path26"
         style="font-family:Inter;letter-spacing:0.075em"
         d="m 225.73366,61.051136 v -4.6875 h 32.72728 v 4.6875 H 244.73935 V 100 h -5.28409 V 61.051136 Z" />
      <path
         id="path28"
         style="font-family:Inter;letter-spacing:0.075em"
         d="M 271.17472,100 V 56.363636 h 26.33522 v 4.6875 h -21.05113 v 14.744319 h 19.6875 v 4.6875 h -19.6875 V 95.3125 h 21.39204 V 100 Z" />
      <path
         id="path30"
         style="font-family:Inter;letter-spacing:0.075em"
         d="m 311.53409,56.363636 h 6.30682 l 14.82954,36.221591 h 0.51137 l 14.82954,-36.221591 h 6.30682 V 100 H 349.375 V 66.846591 h -0.42614 L 335.3125,100 h -4.77273 L 316.90341,66.846591 h -0.42614 V 100 h -4.94318 z" />
      <path
         id="path32"
         style="font-family:Inter;letter-spacing:0.075em"
         d="M 369.3544,100 V 56.363636 h 14.74432 q 5.13494,0 8.39489,1.853694 3.28125,1.832386 4.85795,4.964488 1.57671,3.132102 1.57671,6.988637 0,3.856534 -1.57671,7.009943 -1.5554,3.153409 -4.81534,5.028409 -3.25994,1.853693 -8.35227,1.853693 H 373.61577 V 79.375 h 10.39772 q 3.51563,0 5.64631,-1.214489 2.13068,-1.214488 3.08949,-3.28125 0.98011,-2.088068 0.98011,-4.708806 0,-2.620739 -0.98011,-4.6875 -0.95881,-2.066762 -3.1108,-3.238637 -2.15198,-1.193182 -5.71022,-1.193182 h -9.28978 V 100 Z" />
      <path
         id="path34"
         style="font-family:Inter;letter-spacing:0.075em"
         d="m 448.75852,78.181818 q 0,6.903409 -2.4929,11.931818 -2.49289,5.028409 -6.83948,7.755682 -4.34659,2.727272 -9.92898,2.727272 -5.58239,0 -9.92898,-2.727272 -4.34659,-2.727273 -6.83949,-7.755682 -2.49289,-5.028409 -2.49289,-11.931818 0,-6.903409 2.49289,-11.931818 2.4929,-5.028409 6.83949,-7.755682 4.34659,-2.727273 9.92898,-2.727273 5.58239,0 9.92898,2.727273 4.34659,2.727273 6.83948,7.755682 2.4929,5.028409 2.4929,11.931818 z m -5.11363,0 q 0,-5.667613 -1.89631,-9.566761 -1.875,-3.899148 -5.09233,-5.901989 -3.19602,-2.002841 -7.15909,-2.002841 -3.96307,0 -7.1804,2.002841 -3.19602,2.002841 -5.09233,5.901989 -1.875,3.899148 -1.875,9.566761 0,5.667614 1.875,9.566762 1.89631,3.899147 5.09233,5.901988 3.21733,2.002841 7.1804,2.002841 3.96307,0 7.15909,-2.002841 3.21733,-2.002841 5.09233,-5.901988 1.89631,-3.899148 1.89631,-9.566762 z" />
      <path
         id="path36"
         style="font-family:Inter;letter-spacing:0.075em"
         d="M 462.14347,100 V 56.363636 h 14.74431 q 5.11364,0 8.39489,1.747159 3.28125,1.725853 4.85795,4.751421 1.57671,3.025568 1.57671,6.882102 0,3.856534 -1.57671,6.839489 -1.5767,2.982954 -4.83664,4.6875 -3.25995,1.683238 -8.33097,1.683238 h -11.93182 v -4.772727 h 11.76137 q 3.49431,0 5.625,-1.022727 2.15199,-1.022727 3.11079,-2.897727 0.98012,-1.896307 0.98012,-4.517046 0,-2.620738 -0.98012,-4.580966 -0.98011,-1.960227 -3.1321,-3.025568 -2.15199,-1.086648 -5.68892,-1.086648 h -9.28977 V 100 Z M 482.68324,80.397727 493.42187,100 h -6.13636 L 476.71733,80.397727 Z" />
      <path
         id="path38"
         style="font-family:Inter;letter-spacing:0.075em"
         d="m 506.75355,100 h -5.53977 l 16.02273,-43.636364 h 5.45454 L 538.71378,100 h -5.53977 L 520.13423,63.267045 h -0.34091 z m 2.04546,-17.045455 h 22.32954 v 4.6875 h -22.32954 z" />
      <path
         id="path40"
         style="font-family:Inter;letter-spacing:0.075em"
         d="M 584.61293,56.363636 V 100 h -5.11364 L 555.72088,65.738636 h -0.42614 V 100 h -5.28409 V 56.363636 h 5.11364 l 23.86364,34.346591 h 0.42613 V 56.363636 Z" />
      <path
         id="path42"
         style="font-family:Inter;letter-spacing:0.075em"
         d="M 599.62784,100 V 56.363636 h 26.33523 v 4.6875 h -21.05114 v 14.744319 h 19.6875 v 4.6875 h -19.6875 V 95.3125 h 21.39205 V 100 Z" />
      <path
         id="path44"
         style="font-family:Inter;letter-spacing:0.075em"
         d="m 641.77699,100 h -5.53977 l 16.02272,-43.636364 h 5.45455 L 673.73722,100 h -5.53978 L 655.15767,63.267045 h -0.34091 z m 2.04545,-17.045455 h 22.32955 v 4.6875 h -22.32955 z" />
    </g>
  </g>
</svg>
