<?xml version="1.0" encoding="UTF-8" standalone="no"?>
<svg
   xmlns:dc="http://purl.org/dc/elements/1.1/"
   xmlns:cc="http://creativecommons.org/ns#"
   xmlns:rdf="http://www.w3.org/1999/02/22-rdf-syntax-ns#"
   xmlns:svg="http://www.w3.org/2000/svg"
   xmlns="http://www.w3.org/2000/svg"
   id="svg16"
   width="800px"
   version="1.1"
   height="200px">
  <metadata
     id="metadata20">
    <rdf:RDF>
      <cc:Work
         rdf:about="">
        <dc:format>image/svg+xml</dc:format>
        <dc:type
           rdf:resource="http://purl.org/dc/dcmitype/StillImage" />
      </cc:Work>
    </rdf:RDF>
  </metadata>
  <defs
     id="defs4">
    <style
       id="style2"
       type="text/css"><![CDATA[    
     @font-face {font-family:Inter;
     src: url('/Users/francesco/Repos/write-logos/src/fonts/Fonts_E_TEMPORANEA/Inter-roman.ttf');}
     @font-face {font-family:Chango;
     src: url('/Users/francesco/Repos/write-logos/src/fonts/Fonts_X/Chango-Regular.ttf');}
     ]]></style>
  </defs>
  <g
     id="g14"
     style="font-size:60px">
    <g
       style="text-anchor:middle"
       id="text12"
       aria-label="EXTEMPORANEA">
      <path
         id="path22"
         style="font-family:Inter;letter-spacing:0.075em"
         d="M 126.57706,100 V 56.363636 h 26.33523 v 4.6875 h -21.05114 v 14.744319 h 19.6875 v 4.6875 h -19.6875 V 95.3125 H 153.2532 V 100 Z" />
      <path
         id="path24"
         style="font-family:Chango;letter-spacing:0.05em"
         d="m 164.95234,100 q -1.2,0 -1.2,-0.9 0,-0.54 0.66,-1.26 l 15.96,-16.86 -14.58,-16.98 q -1.26,-1.56 -1.26,-2.52 0,-1.02 0.3,-1.62 0.9,-1.8 3.18,-1.8 l 22.68,-0.06 q 1.74,0 2.58,0.54 0.9,0.54 2.1,2.22 l 3.18,4.56 q 0.9,1.38 1.44,1.38 0.6,0 1.68,-1.14 l 6.06,-6.12 q 0.9,-0.96 1.38,-1.2 0.48,-0.24 1.38,-0.24 h 9.54 q 1.14,0 1.14,0.78 0,0.6 -0.66,1.44 l -14.1,15.6 q 9.18,12.3 13.38,18.42 1.32,1.86 1.32,3.36 0,2.16 -2.46,2.22 -5.52,0.12 -10.62,0.12 -5.1,0 -8.64,0 -3.54,-0.06 -4.2,-1.02 l -6.9,-8.58 q -0.72,-0.9 -1.26,-0.9 -0.48,0 -1.38,0.9 l -7.92,8.28 q -0.9,0.96 -1.38,1.2 -0.42,0.18 -1.32,0.18 z" />
      <path
         id="path26"
         style="font-family:Inter;letter-spacing:0.075em"
         d="m 229.1907,61.051136 v -4.6875 h 32.72727 v 4.6875 H 248.19638 V 100 h -5.28409 V 61.051136 Z" />
      <path
         id="path28"
         style="font-family:Inter;letter-spacing:0.075em"
         d="M 274.63175,100 V 56.363636 h 26.33522 v 4.6875 h -21.05113 v 14.744319 h 19.6875 v 4.6875 h -19.6875 V 95.3125 h 21.39204 V 100 Z" />
      <path
         id="path30"
         style="font-family:Inter;letter-spacing:0.075em"
         d="m 314.99112,56.363636 h 6.30682 l 14.82955,36.221591 h 0.51136 l 14.82954,-36.221591 h 6.30682 V 100 h -4.94318 V 66.846591 h -0.42614 L 338.76953,100 H 333.9968 L 320.36044,66.846591 H 319.9343 V 100 h -4.94318 z" />
      <path
         id="path32"
         style="font-family:Inter;letter-spacing:0.075em"
         d="M 372.81143,100 V 56.363636 h 14.74432 q 5.13495,0 8.39489,1.853694 3.28125,1.832386 4.85795,4.964488 1.57671,3.132102 1.57671,6.988637 0,3.856534 -1.57671,7.009943 -1.55539,3.153409 -4.81534,5.028409 -3.25994,1.853693 -8.35227,1.853693 H 377.0728 V 79.375 h 10.39773 q 3.51562,0 5.6463,-1.214489 2.13068,-1.214488 3.08949,-3.28125 0.98011,-2.088068 0.98011,-4.708806 0,-2.620739 -0.98011,-4.6875 -0.95881,-2.066762 -3.11079,-3.238637 -2.15199,-1.193182 -5.71023,-1.193182 h -9.28977 V 100 Z" />
      <path
         id="path34"
         style="font-family:Inter;letter-spacing:0.075em"
         d="m 452.21555,78.181818 q 0,6.903409 -2.49289,11.931818 -2.4929,5.028409 -6.83949,7.755682 -4.34659,2.727272 -9.92898,2.727272 -5.58239,0 -9.92898,-2.727272 -4.34659,-2.727273 -6.83949,-7.755682 -2.49289,-5.028409 -2.49289,-11.931818 0,-6.903409 2.49289,-11.931818 2.4929,-5.028409 6.83949,-7.755682 4.34659,-2.727273 9.92898,-2.727273 5.58239,0 9.92898,2.727273 4.34659,2.727273 6.83949,7.755682 2.49289,5.028409 2.49289,11.931818 z m -5.11363,0 q 0,-5.667613 -1.89631,-9.566761 -1.875,-3.899148 -5.09233,-5.901989 -3.19602,-2.002841 -7.15909,-2.002841 -3.96307,0 -7.1804,2.002841 -3.19602,2.002841 -5.09233,5.901989 -1.875,3.899148 -1.875,9.566761 0,5.667614 1.875,9.566762 1.89631,3.899147 5.09233,5.901988 3.21733,2.002841 7.1804,2.002841 3.96307,0 7.15909,-2.002841 3.21733,-2.002841 5.09233,-5.901988 1.89631,-3.899148 1.89631,-9.566762 z" />
      <path
         id="path36"
         style="font-family:Inter;letter-spacing:0.075em"
         d="M 465.6005,100 V 56.363636 h 14.74432 q 5.11363,0 8.39488,1.747159 3.28125,1.725853 4.85796,4.751421 1.5767,3.025568 1.5767,6.882102 0,3.856534 -1.5767,6.839489 -1.57671,2.982954 -4.83665,4.6875 -3.25994,1.683238 -8.33097,1.683238 h -11.93182 v -4.772727 h 11.76137 q 3.49432,0 5.625,-1.022727 2.15199,-1.022727 3.11079,-2.897727 0.98012,-1.896307 0.98012,-4.517046 0,-2.620738 -0.98012,-4.580966 -0.98011,-1.960227 -3.1321,-3.025568 -2.15199,-1.086648 -5.68892,-1.086648 h -9.28977 V 100 Z M 486.14027,80.397727 496.87891,100 h -6.13637 L 480.17436,80.397727 Z" />
      <path
         id="path38"
         style="font-family:Inter;letter-spacing:0.075em"
         d="m 510.21058,100 h -5.53977 l 16.02273,-43.636364 h 5.45454 L 542.17081,100 h -5.53977 L 523.59126,63.267045 h -0.3409 z m 2.04546,-17.045455 h 22.32954 v 4.6875 h -22.32954 z" />
      <path
         id="path40"
         style="font-family:Inter;letter-spacing:0.075em"
         d="M 588.06996,56.363636 V 100 h -5.11364 L 559.17791,65.738636 h -0.42613 V 100 h -5.2841 V 56.363636 h 5.11364 l 23.86364,34.346591 h 0.42613 V 56.363636 Z" />
      <path
         id="path42"
         style="font-family:Inter;letter-spacing:0.075em"
         d="M 603.08487,100 V 56.363636 h 26.33523 v 4.6875 h -21.05114 v 14.744319 h 19.6875 v 4.6875 h -19.6875 V 95.3125 h 21.39205 V 100 Z" />
      <path
         id="path44"
         style="font-family:Inter;letter-spacing:0.075em"
         d="m 645.23402,100 h -5.53977 l 16.02272,-43.636364 h 5.45455 L 677.19425,100 h -5.53978 L 658.6147,63.267045 h -0.34091 z m 2.04545,-17.045455 h 22.32955 v 4.6875 h -22.32955 z" />
    </g>
  </g>
</svg>
