<?xml version="1.0" encoding="UTF-8" standalone="no"?>
<svg
   xmlns:dc="http://purl.org/dc/elements/1.1/"
   xmlns:cc="http://creativecommons.org/ns#"
   xmlns:rdf="http://www.w3.org/1999/02/22-rdf-syntax-ns#"
   xmlns:svg="http://www.w3.org/2000/svg"
   xmlns="http://www.w3.org/2000/svg"
   id="svg16"
   width="800px"
   version="1.1"
   height="200px">
  <metadata
     id="metadata20">
    <rdf:RDF>
      <cc:Work
         rdf:about="">
        <dc:format>image/svg+xml</dc:format>
        <dc:type
           rdf:resource="http://purl.org/dc/dcmitype/StillImage" />
      </cc:Work>
    </rdf:RDF>
  </metadata>
  <defs
     id="defs4">
    <style
       id="style2"
       type="text/css"><![CDATA[    
     @font-face {font-family:Inter Black;
     src: url('/Users/francesco/Repos/write-logos/src/fonts/Fonts_E_TEMPORANEA/Inter-Black.otf');}
     @font-face {font-family:Ephesus extrabold outline;
     src: url('/Users/francesco/Repos/write-logos/src/fonts/Fonts_X/Ephesus-ExtraBold-outline.otf');}
     ]]></style>
  </defs>
  <g
     id="g14"
     style="font-size:60px">
    <g
       style="text-anchor:middle"
       id="text12"
       aria-label="EXTEMPORANEA">
      <path
         id="path22"
         style="font-family:'Inter Black';letter-spacing:0.075em"
         d="m 118.94922,100 h 31.36364 v -9.545455 h -19.51705 v -7.5 h 17.98295 v -9.545454 h -17.98295 v -7.5 h 19.60227 v -9.545455 h -31.44886 z" />
      <path
         id="path24"
         style="font-family:'Ephesus extrabold outline';letter-spacing:0.05em"
         d="m 159.69953,98.14 c -0.18,0.18 -0.3,0.48 -0.3,0.72 0,0.54 0.42,1.14 1.08,1.14 h 9.66 c 1.98,0 2.7,-0.9 3.06,-1.26 l 7.08,-9.96 7.08,9.96 c 0.36,0.36 1.08,1.26 3.06,1.26 h 9.66 c 0.66,0 1.08,-0.6 1.08,-1.14 0,-0.24 -0.12,-0.54 -0.3,-0.72 l -13.44,-19.08 13.32,-19.08 c 0.24,-0.3 0.36,-0.6 0.36,-0.84 0,-0.72 -0.78,-1.14 -1.2,-1.14 h -9.84 c -1.86,0 -2.4,0.6 -3.06,1.26 l -6.72,9.6 -6.72,-9.6 c -0.66,-0.66 -1.2,-1.26 -3.06,-1.26 h -9.84 c -0.42,0 -1.2,0.42 -1.2,1.14 0,0.24 0.12,0.54 0.36,0.84 l 13.32,19.08 z m 10.44,-0.06 h -8.1 l 13.44,-19.02 -13.44,-19.14 h 8.46 c 1.02,0 1.32,0.36 1.68,0.72 l -0.18,-0.3 8.28,11.82 c 2.22,-3.18 6.06,-8.64 8.1,-11.52 0.36,-0.36 0.66,-0.72 1.68,-0.72 h 8.34 l -13.32,19.14 13.38,19.02 h -8.04 c -0.96,0 -1.26,-0.24 -1.44,-0.42 l -8.7,-12.24 c -2.34,3.3 -6.3,8.88 -8.64,12.18 l 0.12,-0.12 c -0.18,0.24 -0.6,0.6 -1.62,0.6 z" />
      <path
         id="path26"
         style="font-family:'Inter Black';letter-spacing:0.075em"
         d="m 207.28729,65.909091 h 13.125 V 100 h 11.67613 V 65.909091 h 13.125 v -9.545455 h -37.92613 z" />
      <path
         id="path28"
         style="font-family:'Inter Black';letter-spacing:0.075em"
         d="m 254.11328,100 h 31.36364 v -9.545455 h -19.51705 v -7.5 h 17.98296 v -9.545454 h -17.98296 v -7.5 h 19.60227 v -9.545455 h -31.44886 z" />
      <path
         id="path30"
         style="font-family:'Inter Black';letter-spacing:0.075em"
         d="M 295.99609,56.363636 V 100 H 307.587 V 74.602273 h 0.34091 l 9.71591,25.056818 h 6.98864 l 9.71591,-24.886364 h 0.34091 V 100 h 11.5909 V 56.363636 h -14.74431 l -10.14205,24.715909 h -0.51136 L 310.74041,56.363636 Z" />
      <path
         id="path32"
         style="font-family:'Inter Black';letter-spacing:0.075em"
         d="m 356.39453,100 h 11.84659 V 87.045455 h 6.5625 c 9.95029,0 16.61932,-5.859375 16.61932,-15.255682 0,-9.289773 -6.49858,-15.426137 -16.19318,-15.426137 H 356.39453 Z M 368.24112,77.840909 V 65.823864 h 4.17614 c 4.15483,0 6.64773,2.215909 6.64773,5.965909 0,3.728693 -2.4929,6.051136 -6.64773,6.051136 z" />
      <path
         id="path34"
         style="font-family:'Inter Black';letter-spacing:0.075em"
         d="m 442.54226,78.181818 c 0,-14.573863 -9.375,-22.414773 -21.22159,-22.414773 -11.93182,0 -21.22159,7.84091 -21.22159,22.414773 0,14.488637 9.28977,22.414772 21.22159,22.414772 11.84659,0 21.22159,-7.840908 21.22159,-22.414772 z m -12.1875,0 c 0,7.840909 -3.15341,12.102273 -9.03409,12.102273 -5.88068,0 -9.03409,-4.261364 -9.03409,-12.102273 0,-7.840909 3.15341,-12.102273 9.03409,-12.102273 5.88068,0 9.03409,4.261364 9.03409,12.102273 z" />
      <path
         id="path36"
         style="font-family:'Inter Black';letter-spacing:0.075em"
         d="m 452.46484,100 h 11.84659 V 85.596591 h 4.09091 L 476.0728,100 h 12.86932 l -8.86364,-16.278409 c 4.64489,-2.237216 7.41477,-6.477273 7.41477,-12.528409 0,-9.289773 -6.49858,-14.829546 -16.19318,-14.829546 H 452.46484 Z M 464.31143,76.392045 V 65.823864 h 4.17614 c 4.15483,0 6.64773,1.619318 6.64773,5.369318 0,3.728693 -2.4929,5.198863 -6.64773,5.198863 z" />
      <path
         id="path38"
         style="font-family:'Inter Black';letter-spacing:0.075em"
         d="m 508.3782,100 2.5142,-8.352273 h 14.40341 L 527.81001,100 h 12.7841 L 526.1907,56.363636 H 509.99751 L 495.59411,100 Z m 5.19886,-17.215909 4.34659,-14.403409 h 0.34091 l 4.34659,14.403409 z" />
      <path
         id="path40"
         style="font-family:'Inter Black';letter-spacing:0.075em"
         d="m 586.99396,56.363636 h -11.84659 v 22.840909 h -0.34091 L 559.2951,56.363636 H 549.23828 V 100 h 11.84659 V 77.073864 h 0.25568 L 577.1076,100 h 9.88636 z" />
      <path
         id="path42"
         style="font-family:'Inter Black';letter-spacing:0.075em"
         d="m 597.09766,100 h 31.36363 v -9.545455 h -19.51704 v -7.5 h 17.98295 v -9.545454 h -17.98295 v -7.5 h 19.60227 v -9.545455 h -31.44886 z" />
      <path
         id="path44"
         style="font-family:'Inter Black';letter-spacing:0.075em"
         d="m 650.3157,100 2.5142,-8.352273 h 14.40341 L 669.74751,100 h 12.7841 L 668.1282,56.363636 H 651.93501 L 637.53161,100 Z m 5.19886,-17.215909 4.34659,-14.403409 h 0.34091 l 4.34659,14.403409 z" />
    </g>
  </g>
</svg>
