<?xml version="1.0" encoding="UTF-8" standalone="no"?>
<svg
   xmlns:dc="http://purl.org/dc/elements/1.1/"
   xmlns:cc="http://creativecommons.org/ns#"
   xmlns:rdf="http://www.w3.org/1999/02/22-rdf-syntax-ns#"
   xmlns:svg="http://www.w3.org/2000/svg"
   xmlns="http://www.w3.org/2000/svg"
   id="svg16"
   width="800px"
   version="1.1"
   height="200px">
  <metadata
     id="metadata20">
    <rdf:RDF>
      <cc:Work
         rdf:about="">
        <dc:format>image/svg+xml</dc:format>
        <dc:type
           rdf:resource="http://purl.org/dc/dcmitype/StillImage" />
      </cc:Work>
    </rdf:RDF>
  </metadata>
  <defs
     id="defs4">
    <style
       id="style2"
       type="text/css"><![CDATA[    
     @font-face {font-family:Inter;
     src: url('/Users/francesco/Repos/write-logos/src/fonts/Fonts_E_TEMPORANEA/Inter-roman.ttf');}
     @font-face {font-family:DK Plakkaat;
     src: url('/Users/francesco/Repos/write-logos/src/fonts/Fonts_X/Plakkaat.ttf');}
     ]]></style>
  </defs>
  <g
     id="g14"
     style="font-size:60px">
    <g
       style="text-anchor:middle"
       id="text12"
       aria-label="EXTEMPORANEA">
      <path
         id="path22"
         style="font-family:Inter;letter-spacing:0.075em"
         d="M 138.29581,100 V 56.363636 h 26.33523 v 4.6875 H 143.5799 v 14.744319 h 19.6875 v 4.6875 H 143.5799 V 95.3125 h 21.39205 V 100 Z" />
      <path
         id="path24"
         style="font-family:'DK Plakkaat';letter-spacing:0.05em"
         d="m 193.77109,69.34 q 0.3,0 0.3,-0.24 l 0.06,-0.06 q 0,-0.12 0.06,-0.24 0.06,-0.12 0.12,-0.3 l 0.3,-0.06 0.24,-0.24 q 0.3,-0.12 0.42,-0.42 0.12,-0.3 0.12,-0.36 v -0.18 q 0.06,0 0.12,-0.06 l 0.18,-0.3 h 0.12 l 0.78,-0.78 q 0.12,-0.12 0.6,-0.72 0.54,-0.66 0.84,-0.96 l 0.18,-0.3 q 0.42,-0.42 0.66,-0.9 0.3,-0.48 0.84,-1.02 l 0.12,-0.18 q 0.06,-0.06 0.18,-0.3 0.18,-0.3 0.3,-0.36 l 0.18,-0.24 q 0.12,-0.12 0.12,-0.18 l 0.6,-0.36 q 0.66,-0.66 1.38,-1.26 0.72,-0.6 0.84,-0.72 l 0.66,-0.54 v 0.18 l 0.3,-0.24 v 0.06 q 0,0.06 -0.06,0.18 0,0.12 -0.12,0.18 l 0.18,0.06 0.24,-0.36 -0.06,0.3 q -0.06,0.06 -0.06,0.18 l -0.06,0.18 q -0.06,0.06 -0.06,0.12 l 0.12,0.12 0.12,-0.06 q 0.06,0 0.12,-0.06 h 0.12 l 0.06,0.42 q 0,-0.06 0.06,-0.12 l 0.18,-0.12 v 0.24 h 0.12 l 0.42,-0.42 q 0,0.06 -0.06,0.18 0,0.06 0,0.12 v 0.06 q -0.06,0 -0.12,0.18 0,0.12 -0.06,0.12 v 0.06 l 0.24,-0.24 q 0.18,-0.18 0.18,-0.3 l 0.18,-0.06 q 0,0.12 -0.18,0.36 -0.18,0.18 -0.18,0.42 v 0.12 l 0.18,-0.12 q -0.06,0.06 -0.06,0.12 0,0.12 0.06,0.12 l 0.18,0.06 0.18,-0.18 q 0.06,-0.06 0.24,-0.18 0.18,-0.12 0.24,-0.12 v 0.12 q 0,0.06 -0.06,0.18 0,0.06 0,0.12 l -0.18,0.12 v 0.12 h 0.18 q 0,-0.06 0.12,-0.18 0.18,-0.18 0.24,-0.18 l 0.06,-0.06 q 0.06,0 0.12,-0.06 0,0.06 -0.18,0.24 h 0.48 l -0.12,0.54 q 0,-0.06 0.12,-0.18 0.12,-0.18 0.18,-0.24 h 0.12 l -0.12,0.42 0.06,-0.06 q 0.06,-0.12 0.18,-0.3 0.12,-0.24 0.24,-0.3 h 0.06 l -0.3,0.78 h 0.36 l 0.18,-0.18 q 0.12,-0.12 0.18,-0.12 l 0.06,-0.12 v 0.3 q 0,0.06 -0.06,0.12 0,0.06 0,0.12 l 0.24,-0.18 q 0.06,-0.06 0.12,-0.06 l -0.06,0.06 q -0.06,0.06 -0.06,0.18 l 0.06,0.42 h 0.48 q 0.48,0 0.66,0.3 0.24,0.24 0.24,0.42 v 0.54 l -0.24,0.24 q 0,0.12 -0.12,0.3 -0.12,0.12 -0.12,0.42 l -0.12,0.12 q -0.06,0.06 -0.06,0.12 v 0.18 q 0,0.24 -0.24,0.48 -0.18,0.24 -0.18,0.36 l -0.06,0.18 q 0,0.06 -0.12,0.3 -0.06,0.18 -0.24,0.48 -0.12,0.24 -0.24,0.48 -0.06,0.24 -0.06,0.3 l -0.6,0.84 q -0.54,0.84 -0.54,1.32 -0.18,0.66 -0.54,1.02 -0.3,0.3 -0.42,0.78 l -0.12,0.18 q -0.06,0.06 -0.06,0.12 l -0.06,0.06 q 0,0.18 -0.12,0.18 l -0.18,0.18 v 0.18 q 0,0.12 -0.36,0.54 -0.36,0.42 -0.36,0.9 l -1.2,1.92 q -0.06,0.06 -0.18,0.3 -0.12,0.24 -0.24,0.3 l -0.06,0.06 q 0,0.06 -0.24,0.42 -0.18,0.36 -0.48,0.84 -0.3,0.42 -0.6,0.84 -0.24,0.36 -0.42,0.54 l -0.06,0.12 q -0.18,0.18 -0.36,0.66 -0.12,0.48 -0.6,0.96 l -0.12,0.12 q 0,0.06 -0.18,0.3 -0.12,0.24 -0.12,0.3 v 0.12 q 0,0.06 0.06,0.18 0.12,0.12 0.18,0.18 l 0.66,0.84 q 0,0.06 0.18,0.3 0.18,0.18 0.36,0.36 l 0.12,0.18 q 0.48,0.48 0.84,1.08 0.36,0.54 0.6,0.78 l 0.42,0.48 q 0,0.06 0.12,0.24 0.18,0.18 0.24,0.24 l 0.12,0.12 q 0,0.06 0.06,0.12 l 0.24,0.42 q 0.06,0 0.12,0.12 0.12,0.12 0.24,0.18 l 0.36,0.54 q 0.18,0.36 0.48,0.54 l 0.06,0.12 q 0,0.06 0.06,0.24 0.12,0.12 0.24,0.18 v 0.24 q 0.24,0 0.24,0.24 l 1.14,1.68 q 0.12,0.18 0.3,0.42 0.24,0.24 0.78,0.78 v 0.06 q 0,0.18 0.12,0.3 l 0.06,0.06 q 0,0.18 0.18,0.36 l 0.12,0.3 q 0,0.06 0.06,0.12 l 0.06,0.24 q -0.24,0 -0.24,0.06 l 0.06,0.36 q 0.06,0.06 0.06,0.12 h -0.36 l -0.24,-0.12 q 0,0.36 -0.42,0.36 l -0.12,0.3 q -0.06,0.06 -0.06,0.12 l -0.06,0.06 q -0.06,0.06 -0.06,0.12 l -0.12,0.42 q 0,0.12 0.12,0.24 l 0.06,0.6 -0.18,0.12 -0.24,-0.06 q -0.06,0 -0.12,-0.06 l -0.18,0.06 0.06,0.3 h -0.24 l 0.18,0.18 h -0.36 v 0.42 l -0.18,0.12 q -0.06,0.06 -0.18,0.06 h -0.24 v 0.3 l -0.18,0.06 q 0.06,0.12 0.18,0.36 0.18,0.24 0.18,0.36 -0.06,0.06 -0.06,0.12 v 0.18 q 0,0.3 -0.18,0.42 -0.12,0.06 -0.12,0.18 l -0.18,0.24 q -0.12,0.48 -0.54,0.66 -0.42,0.18 -0.6,0.18 -0.3,0 -0.36,-0.06 0,0.24 -0.42,0.24 l -0.06,0.18 q 0,0.12 0.12,0.24 l -0.54,-0.24 h -1.02 q -0.06,0 -0.12,-0.06 h -0.42 l -0.18,-0.18 q 0,0.18 -0.18,0.18 -0.12,0 -0.24,-0.12 l -0.12,0.12 h -0.3 l -0.66,-0.24 q -0.06,-0.06 -0.18,-0.06 -0.12,-0.06 -0.24,-0.18 l -0.9,-0.66 -1.38,-1.5 q 0,-0.06 -0.12,-0.18 -0.12,-0.18 -0.18,-0.18 l -0.06,-0.06 q -0.06,0 -0.42,-0.48 l -0.9,-1.08 q -0.3,-0.3 -0.84,-0.84 -0.54,-0.6 -0.66,-0.9 l -0.24,-0.24 q -0.12,-0.06 -0.36,-0.36 -0.18,-0.3 -0.24,-0.36 l -0.54,-0.48 -0.06,0.12 q -0.12,0 -0.48,0.54 -0.3,0.48 -0.42,0.9 l -0.06,0.12 q -0.12,0.06 -0.36,0.42 -0.18,0.3 -0.3,0.48 l -0.12,0.12 h 0.06 q 0,0.12 -0.36,0.78 -0.3,0.6 -1.02,1.32 l -0.54,0.96 q -0.18,0.18 -0.54,0.6 -0.3,0.42 -0.96,1.08 l -0.18,0.18 q -0.06,0.06 -0.24,0.18 -0.12,0.12 -0.12,0.18 l -0.3,0.06 V 100 l 0.24,-0.3 q 0,-0.06 -0.06,-0.12 l -0.24,-0.12 q -0.12,-0.12 -0.3,-0.12 l -0.6,-0.06 -0.06,-0.24 h -0.24 q 0,0.06 -0.18,0.18 -0.18,0.12 -0.24,0.12 l -0.24,0.12 v -0.12 q 0.06,0 0.18,-0.12 l 0.24,-0.24 q 0.12,0 0.12,-0.06 -0.06,0 -0.18,-0.06 -0.12,-0.06 -0.18,-0.06 -0.06,0.06 -0.12,0.06 h -0.06 q -0.06,0 -0.12,0.06 l -0.42,0.06 v -0.06 q -0.06,0.06 -0.12,0.06 h -0.3 l 0.24,-0.24 -0.06,-0.06 q 0,-0.12 -0.18,-0.12 -0.12,0 -0.24,0.06 -0.12,0 -0.24,0 l -0.24,0.12 q -0.06,0.06 -0.18,0.06 l -0.24,0.06 q -0.06,0 -0.12,-0.06 l -1.02,0.12 0.42,-0.6 q -0.12,0.12 -0.18,0.12 l -0.18,-0.12 -0.24,0.18 q -0.12,0.12 -0.24,0.12 l -0.12,-0.06 q 0,-0.12 0.12,-0.12 0.12,-0.06 0.12,-0.12 h -0.48 q 0.06,0 0.18,-0.12 l 0.3,-0.06 q -0.12,-0.06 -0.3,-0.06 -0.12,-0.06 -0.18,-0.12 h -0.12 l -0.12,-0.18 q -0.06,-0.06 -0.06,-0.12 l -0.72,0.06 0.06,-0.12 q 0,-0.06 0.12,-0.18 0.12,-0.12 0.12,-0.42 h -0.06 q -0.3,0.12 -0.48,0.3 V 97 l -0.36,0.3 0.3,-0.54 q 0,-0.12 -0.12,-0.12 0,0.12 -0.24,0.12 h -0.42 q -0.06,0 -0.18,0.12 -0.06,0.06 -0.12,0.06 v -0.18 q 0,-0.06 -0.06,-0.12 v -0.12 q 0,-0.06 0,-0.18 0.06,-0.12 0.06,-0.24 v -0.12 q -0.06,-0.06 -0.06,-0.24 v -0.3 q -0.06,0 -0.18,0 -0.06,-0.06 -0.12,-0.06 l -0.24,-0.42 v -0.24 q -0.06,0 -0.18,-0.12 -0.12,-0.18 -0.18,-0.24 l -0.12,-0.3 -0.18,-0.12 v -0.36 l 0.18,-0.54 q 0.12,-0.24 0.12,-0.42 0.06,-0.18 0.18,-0.3 l 0.06,-0.24 q 0.12,-0.12 0.24,-0.48 0.18,-0.42 0.24,-0.48 0.66,-0.66 0.96,-1.5 l 0.06,-0.18 q 0,-0.06 0.06,-0.12 0.06,-0.12 0.12,-0.24 l 0.42,-0.6 q 0.18,-0.18 0.3,-0.54 0.12,-0.42 0.78,-1.08 h 0.12 l 0.6,-0.72 q 0.18,-0.18 0.54,-0.42 0.36,-0.3 0.48,-0.72 l 0.54,-0.6 q 0.06,-0.06 0.24,-0.3 0.18,-0.24 0.24,-0.24 l 0.24,-0.36 q 0.06,-0.12 0.42,-0.48 0.36,-0.42 0.42,-0.54 l 0.12,-0.12 v 0.12 l 0.36,-0.06 V 82 l -0.36,-0.36 v -0.18 q -0.06,-0.06 -0.24,-0.18 -0.12,-0.12 -0.12,-0.24 l -0.42,-0.42 q -0.18,-0.12 -0.48,-0.42 -0.24,-0.36 -0.3,-0.42 l -0.42,-0.54 q -0.42,-0.42 -0.66,-0.72 -0.18,-0.36 -0.42,-0.72 -0.18,-0.42 -0.48,-0.9 -0.3,-0.54 -0.9,-1.32 l -0.18,-0.36 q -0.12,-0.3 -0.3,-0.36 l -0.24,-0.3 q -0.12,-0.12 -0.3,-0.3 -0.12,-0.24 -0.24,-0.66 -0.12,-0.18 -0.36,-0.6 -0.18,-0.42 -0.42,-0.78 -0.18,-0.42 -0.42,-0.72 -0.18,-0.36 -0.24,-0.36 l -0.24,-0.24 -0.24,-0.6 -0.6,-0.66 q -0.06,-0.12 -0.24,-0.36 -0.18,-0.24 -0.24,-0.36 v -0.06 q 0,-0.06 -0.06,-0.18 -0.06,-0.18 -0.06,-0.24 v -0.12 q -0.24,0 -0.3,-0.3 0,-0.36 -0.18,-0.36 l -0.24,-0.42 q -0.12,-0.12 -0.3,-0.48 -0.12,-0.36 -0.18,-0.48 l -0.12,-0.18 q -0.12,-0.12 -0.12,-0.3 l -0.06,-0.12 0.18,-0.12 q 0,-0.12 0.24,-0.12 l 0.12,-0.06 v -0.3 h 0.42 l 0.06,-0.42 h 0.18 l 0.06,-0.42 0.12,-0.06 q 0.24,0 0.24,-0.6 l 0.12,-0.24 q 0,-0.06 -0.06,-0.12 0,-0.12 0,-0.24 0,-0.06 0.06,-0.12 l 0.12,-0.12 q 0,-0.12 0.06,-0.12 l 0.48,-0.06 q 0.06,0 0.12,-0.06 l 0.3,-0.3 0.3,-0.6 0.18,-0.12 q 0.06,0 0.12,-0.06 l -0.06,-0.18 0.18,-0.18 q 0.12,0 0.18,-0.06 0.06,-0.12 0.18,-0.12 h 0.06 q 0.12,0 0.24,0 0.18,-0.06 0.42,-0.18 l 0.06,-0.18 q 0,-0.06 0.18,-0.24 l 0.18,-0.18 -0.06,-0.18 q 0,-0.06 0.06,-0.12 0.06,0 0.24,0.06 0.24,0 0.36,0 v -0.48 h 0.12 l 0.12,0.18 h 0.36 l -0.06,-0.18 h 0.12 q 0.12,0 0.18,-0.06 l 0.06,-0.06 q 0,-0.06 0.06,-0.18 0.06,-0.18 0.06,-0.3 l 0.3,0.06 q 0.06,0.06 0.12,0.06 l 0.06,0.12 0.12,-0.12 v -0.36 l 0.84,-0.06 0.72,0.3 q 0.06,0.06 0.18,0.06 l 0.12,0.06 q 0.06,0.06 0.06,0.12 l 0.06,0.06 q 0.06,0.06 0.18,0.24 0.18,0.18 0.3,0.24 l 0.06,0.06 q 0,0.12 0.18,0.3 l 0.24,0.24 q 0,0.3 0.3,0.72 0.36,0.36 0.72,1.2 l 0.36,0.54 q 0,0.12 0.06,0.12 l 0.12,0.18 q 0.12,0.12 0.24,0.42 0.18,0.24 0.24,0.3 l 0.24,0.36 q 0.48,0.48 1.08,1.2 0.6,0.72 0.78,1.08 h 0.06 q 0.06,0.06 0.12,0.24 0.12,0.12 0.24,0.24 l 0.84,1.02 q 0,0.18 0.18,0.18 v 0.18 l -0.24,-0.06 q -0.12,-0.12 -0.36,-0.36 -0.18,-0.3 -0.3,-0.36 l -0.12,0.06 q 0.3,0.36 0.42,0.6 0.12,0.18 0.24,0.3 l 0.18,0.3 q 0,0.12 0.24,0.36 0.3,0.18 0.3,0.3 l 0.12,0.06 q 0.18,0.48 0.66,0.72 0.54,0.18 0.54,0.66 l 0.36,-0.12 v 0.36 l 0.18,-0.18 h 0.24 q 0.06,-0.06 0.06,-0.12 l 0.06,-0.36 q 0.12,-0.06 0.36,-0.36 0.3,-0.3 0.42,-0.3 v -0.18 l -0.12,-0.06 q 0,-0.12 0.12,-0.12 z m 6.06,-7.74 q -0.12,0.3 -0.24,0.42 l -0.18,0.12 q 0,-0.12 0.06,-0.18 0.06,-0.06 0.06,-0.12 l 0.12,-0.12 q 0.12,-0.12 0.18,-0.12 z m 6.42,34.8 q 0,0.12 0.06,0.12 0.12,0 0.12,-0.12 0,-0.12 -0.12,-0.12 z m -9.12,-31.32 0.06,0.12 q 0,0.06 -0.12,0.06 v -0.24 q 0,-0.12 0.12,-0.12 z m -1.98,2.76 -0.24,0.06 v -0.06 q 0,-0.12 0.12,-0.12 z m 4.2,-5.4 -0.24,0.06 v -0.06 q 0,-0.12 0.12,-0.12 z m -5.4,6.72 q 0,0.06 -0.12,0.06 -0.12,0 -0.12,-0.06 l 0.12,-0.06 z m 3.66,-4.56 v -0.12 q 0,-0.06 0.18,-0.24 z m -6.12,7.08 q 0.06,0 0.12,-0.06 0,-0.12 -0.12,-0.12 z m 7.08,-8.34 h -0.12 l 0.18,-0.24 z m -3.36,4.2 -0.06,0.12 -0.06,-0.06 q 0,-0.12 0.18,-0.12 z m 1.86,-2.16 -0.12,0.06 v -0.18 z m 1.08,-1.38 -0.12,0.06 v -0.18 z m -23.16,1.62 q 0.06,0 0.06,-0.18 l -0.06,0.06 z m 25.2,-4.5 v -0.06 q 0,-0.12 0.12,-0.12 z m -16.32,38.46 q -0.18,0.18 -0.3,0.18 z m 16.68,-38.82 -0.18,0.12 0.12,-0.12 z" />
      <path
         id="path26"
         style="font-family:Inter;letter-spacing:0.075em"
         d="m 217.47195,61.051136 v -4.6875 h 32.72727 v 4.6875 H 236.47763 V 100 h -5.28409 V 61.051136 Z" />
      <path
         id="path28"
         style="font-family:Inter;letter-spacing:0.075em"
         d="M 262.913,100 V 56.363636 h 26.33522 v 4.6875 h -21.05113 v 14.744319 h 19.6875 v 4.6875 h -19.6875 V 95.3125 h 21.39204 V 100 Z" />
      <path
         id="path30"
         style="font-family:Inter;letter-spacing:0.075em"
         d="m 303.27237,56.363636 h 6.30682 l 14.82955,36.221591 h 0.51136 l 14.82954,-36.221591 h 6.30682 V 100 h -4.94318 V 66.846591 h -0.42614 L 327.05078,100 h -4.77273 L 308.64169,66.846591 h -0.42614 V 100 h -4.94318 z" />
      <path
         id="path32"
         style="font-family:Inter;letter-spacing:0.075em"
         d="M 361.09268,100 V 56.363636 H 375.837 q 5.13495,0 8.39489,1.853694 3.28125,1.832386 4.85795,4.964488 1.57671,3.132102 1.57671,6.988637 0,3.856534 -1.57671,7.009943 -1.55539,3.153409 -4.81534,5.028409 -3.25994,1.853693 -8.35227,1.853693 H 365.35405 V 79.375 h 10.39773 q 3.51562,0 5.6463,-1.214489 2.13068,-1.214488 3.08949,-3.28125 0.98011,-2.088068 0.98011,-4.708806 0,-2.620739 -0.98011,-4.6875 -0.95881,-2.066762 -3.11079,-3.238637 -2.15199,-1.193182 -5.71023,-1.193182 h -9.28977 V 100 Z" />
      <path
         id="path34"
         style="font-family:Inter;letter-spacing:0.075em"
         d="m 440.4968,78.181818 q 0,6.903409 -2.49289,11.931818 -2.4929,5.028409 -6.83949,7.755682 -4.34659,2.727272 -9.92898,2.727272 -5.58239,0 -9.92898,-2.727272 -4.34659,-2.727273 -6.83949,-7.755682 -2.49289,-5.028409 -2.49289,-11.931818 0,-6.903409 2.49289,-11.931818 2.4929,-5.028409 6.83949,-7.755682 4.34659,-2.727273 9.92898,-2.727273 5.58239,0 9.92898,2.727273 4.34659,2.727273 6.83949,7.755682 2.49289,5.028409 2.49289,11.931818 z m -5.11363,0 q 0,-5.667613 -1.89631,-9.566761 -1.875,-3.899148 -5.09233,-5.901989 -3.19602,-2.002841 -7.15909,-2.002841 -3.96307,0 -7.1804,2.002841 -3.19602,2.002841 -5.09233,5.901989 -1.875,3.899148 -1.875,9.566761 0,5.667614 1.875,9.566762 1.89631,3.899147 5.09233,5.901988 3.21733,2.002841 7.1804,2.002841 3.96307,0 7.15909,-2.002841 3.21733,-2.002841 5.09233,-5.901988 1.89631,-3.899148 1.89631,-9.566762 z" />
      <path
         id="path36"
         style="font-family:Inter;letter-spacing:0.075em"
         d="M 453.88175,100 V 56.363636 h 14.74432 q 5.11363,0 8.39488,1.747159 3.28125,1.725853 4.85796,4.751421 1.5767,3.025568 1.5767,6.882102 0,3.856534 -1.5767,6.839489 -1.57671,2.982954 -4.83665,4.6875 -3.25994,1.683238 -8.33097,1.683238 h -11.93182 v -4.772727 h 11.76137 q 3.49432,0 5.625,-1.022727 2.15199,-1.022727 3.11079,-2.897727 0.98012,-1.896307 0.98012,-4.517046 0,-2.620738 -0.98012,-4.580966 -0.98011,-1.960227 -3.1321,-3.025568 -2.15199,-1.086648 -5.68892,-1.086648 h -9.28977 V 100 Z M 474.42152,80.397727 485.16016,100 h -6.13637 L 468.45561,80.397727 Z" />
      <path
         id="path38"
         style="font-family:Inter;letter-spacing:0.075em"
         d="m 498.49183,100 h -5.53977 l 16.02273,-43.636364 h 5.45454 L 530.45206,100 h -5.53977 L 511.87251,63.267045 h -0.3409 z m 2.04546,-17.045455 h 22.32954 v 4.6875 h -22.32954 z" />
      <path
         id="path40"
         style="font-family:Inter;letter-spacing:0.075em"
         d="M 576.35121,56.363636 V 100 h -5.11364 L 547.45916,65.738636 h -0.42613 V 100 h -5.2841 V 56.363636 h 5.11364 l 23.86364,34.346591 h 0.42613 V 56.363636 Z" />
      <path
         id="path42"
         style="font-family:Inter;letter-spacing:0.075em"
         d="M 591.36612,100 V 56.363636 h 26.33523 v 4.6875 h -21.05114 v 14.744319 h 19.6875 v 4.6875 h -19.6875 V 95.3125 h 21.39205 V 100 Z" />
      <path
         id="path44"
         style="font-family:Inter;letter-spacing:0.075em"
         d="m 633.51527,100 h -5.53977 l 16.02272,-43.636364 h 5.45455 L 665.4755,100 h -5.53978 L 646.89595,63.267045 h -0.34091 z m 2.04545,-17.045455 h 22.32955 v 4.6875 h -22.32955 z" />
    </g>
  </g>
</svg>
