<?xml version="1.0" encoding="UTF-8" standalone="no"?>
<svg
   xmlns:dc="http://purl.org/dc/elements/1.1/"
   xmlns:cc="http://creativecommons.org/ns#"
   xmlns:rdf="http://www.w3.org/1999/02/22-rdf-syntax-ns#"
   xmlns:svg="http://www.w3.org/2000/svg"
   xmlns="http://www.w3.org/2000/svg"
   id="svg16"
   width="800px"
   version="1.1"
   height="200px">
  <metadata
     id="metadata20">
    <rdf:RDF>
      <cc:Work
         rdf:about="">
        <dc:format>image/svg+xml</dc:format>
        <dc:type
           rdf:resource="http://purl.org/dc/dcmitype/StillImage" />
      </cc:Work>
    </rdf:RDF>
  </metadata>
  <defs
     id="defs4">
    <style
       id="style2"
       type="text/css"><![CDATA[    
     @font-face {font-family:Inter;
     src: url('/Users/francesco/Repos/write-logos/src/fonts/Fonts_E_TEMPORANEA/Inter-roman.ttf');}
     @font-face {font-family:Mercury Blob;
     src: url('/Users/francesco/Repos/write-logos/src/fonts/Fonts_X/Mercblob.ttf');}
     ]]></style>
  </defs>
  <g
     id="g14"
     style="font-size:60px">
    <g
       style="text-anchor:middle"
       id="text12"
       aria-label="EXTEMPORANEA">
      <path
         id="path22"
         style="font-family:Inter;letter-spacing:0.075em"
         d="M 127.57315,100 V 56.363636 h 26.33523 v 4.6875 h -21.05114 v 14.744319 h 19.6875 v 4.6875 h -19.6875 V 95.3125 h 21.39205 V 100 Z" />
      <path
         id="path24"
         style="font-family:'Mercury Blob';letter-spacing:0.05em"
         d="m 177.70844,61.54 q 1.98,0 3.36,-1.38 1.44,-1.44 1.44,-3.36 0,-1.98 -1.44,-3.36 -1.38,-1.44 -3.36,-1.44 -1.98,0 -3.36,1.38 -1.38,1.38 -1.38,3.42 0,1.92 1.32,3.36 1.38,1.38 3.42,1.38 z m -10.02,0 q 1.98,0 3.36,-1.38 1.38,-1.38 1.38,-3.36 0,-1.92 -1.38,-3.36 -1.38,-1.44 -3.36,-1.44 -1.98,0 -3.42,1.44 -1.38,1.38 -1.38,3.36 0,1.98 1.38,3.36 1.38,1.38 3.42,1.38 z m 10.02,10.02 q 1.92,0 3.36,-1.38 1.44,-1.38 1.44,-3.36 0,-1.98 -1.44,-3.36 -1.38,-1.44 -3.36,-1.44 -1.98,0 -3.36,1.38 -1.38,1.38 -1.38,3.42 0,1.98 1.38,3.36 1.38,1.38 3.36,1.38 z m 20.1,30.18 q 1.98,0 3.36,-1.44 1.44,-1.38 1.44,-3.36 0,-1.98 -1.38,-3.36 -1.38,-1.38 -3.42,-1.38 -1.92,0 -3.36,1.38 -1.44,1.38 -1.44,3.36 0,1.98 1.38,3.36 1.44,1.44 3.42,1.44 z m 10.02,10.02 q 1.92,0 3.36,-1.38 1.44,-1.38 1.44,-3.36 0,-1.98 -1.44,-3.42 -1.38,-1.38 -3.36,-1.38 -1.98,0 -3.36,1.38 -1.38,1.38 -1.38,3.42 0,1.98 1.38,3.36 1.38,1.38 3.36,1.38 z m 0.06,-50.22 q 1.98,0 3.36,-1.38 1.38,-1.38 1.38,-3.36 0,-1.92 -1.38,-3.36 -1.38,-1.44 -3.36,-1.44 -1.98,0 -3.42,1.44 -1.38,1.38 -1.38,3.36 0,3.54 -0.84,4.38 -0.84,0.84 -4.44,0.84 -1.98,0 -3.42,1.44 -1.38,1.38 -1.38,3.3 l 0.06,0.42 q 0,3.3 -0.9,4.08 -0.9,0.78 -4.38,0.78 -1.98,0 -3.42,1.44 -1.38,1.38 -1.38,3.36 v 0.42 q 0,3.24 -0.9,4.08 -0.84,0.78 -4.38,0.78 -1.98,0 -3.36,1.38 -1.38,1.38 -1.38,3.36 0,1.92 1.38,3.36 1.38,1.44 3.36,1.44 1.98,0 3.36,-1.38 1.44,-1.44 1.44,-3.42 0,-3.54 0.84,-4.38 0.84,-0.84 4.44,-0.84 1.98,0 3.36,-1.38 1.38,-1.38 1.38,-3.42 v -0.42 q 0,-3.24 0.84,-4.02 0.9,-0.84 4.44,-0.84 1.92,0 3.36,-1.38 1.44,-1.38 1.44,-3.36 V 66.4 q 0,-3.3 0.84,-4.08 0.84,-0.78 4.44,-0.78 z m -10.08,20.1 q 1.98,0 3.36,-1.38 1.44,-1.44 1.44,-3.42 0,-1.98 -1.38,-3.36 -1.38,-1.38 -3.42,-1.38 -1.98,0 -3.36,1.38 -1.38,1.38 -1.38,3.36 0,3.6 -0.84,4.44 -0.84,0.84 -4.44,0.84 -1.92,0 -3.36,1.38 -1.44,1.38 -1.44,3.36 v 0.42 q 0,3.3 -0.9,4.08 -0.9,0.78 -4.38,0.78 -1.98,0 -3.36,1.38 -1.38,1.38 -1.38,3.42 v 0.42 q 0,3.24 -0.9,4.02 -0.84,0.84 -4.38,0.84 -1.92,0 -3.36,1.38 -1.44,1.38 -1.44,3.36 0,1.98 1.38,3.36 1.44,1.44 3.42,1.44 1.98,0 3.36,-1.38 1.38,-1.38 1.38,-3.42 0,-3.54 0.84,-4.38 0.84,-0.84 4.44,-0.84 1.98,0 3.36,-1.44 1.44,-1.38 1.44,-3.36 v -0.42 q 0,-3.24 0.84,-4.02 0.9,-0.84 4.44,-0.84 1.98,0 3.36,-1.38 1.38,-1.38 1.38,-3.36 V 86.5 q 0,-3.3 0.9,-4.08 0.9,-0.78 4.38,-0.78 z m 0,30.12 q 1.92,0 3.36,-1.38 1.44,-1.38 1.44,-3.36 0,-1.98 -1.44,-3.42 -1.38,-1.38 -3.36,-1.38 -1.98,0 -3.42,1.38 -1.38,1.44 -1.38,3.42 0,1.98 1.38,3.36 1.38,1.38 3.42,1.38 z" />
      <path
         id="path26"
         style="font-family:Inter;letter-spacing:0.075em"
         d="m 228.1946,61.051136 v -4.6875 h 32.72727 v 4.6875 H 247.20028 V 100 h -5.28409 V 61.051136 Z" />
      <path
         id="path28"
         style="font-family:Inter;letter-spacing:0.075em"
         d="M 273.63565,100 V 56.363636 h 26.33523 v 4.6875 h -21.05114 v 14.744319 h 19.6875 v 4.6875 h -19.6875 V 95.3125 h 21.39205 V 100 Z" />
      <path
         id="path30"
         style="font-family:Inter;letter-spacing:0.075em"
         d="m 313.99503,56.363636 h 6.30682 l 14.82954,36.221591 h 0.51137 L 350.4723,56.363636 h 6.30682 V 100 h -4.94318 V 66.846591 H 351.4098 L 337.77344,100 h -4.77273 L 319.36435,66.846591 h -0.42614 V 100 h -4.94318 z" />
      <path
         id="path32"
         style="font-family:Inter;letter-spacing:0.075em"
         d="M 371.81534,100 V 56.363636 h 14.74432 q 5.13494,0 8.39489,1.853694 3.28125,1.832386 4.85795,4.964488 1.5767,3.132102 1.5767,6.988637 0,3.856534 -1.5767,7.009943 -1.5554,3.153409 -4.81534,5.028409 -3.25994,1.853693 -8.35227,1.853693 H 376.0767 V 79.375 h 10.39773 q 3.51563,0 5.64631,-1.214489 2.13068,-1.214488 3.08949,-3.28125 0.98011,-2.088068 0.98011,-4.708806 0,-2.620739 -0.98011,-4.6875 -0.95881,-2.066762 -3.1108,-3.238637 -2.15199,-1.193182 -5.71023,-1.193182 h -9.28977 V 100 Z" />
      <path
         id="path34"
         style="font-family:Inter;letter-spacing:0.075em"
         d="m 451.21946,78.181818 q 0,6.903409 -2.4929,11.931818 -2.4929,5.028409 -6.83949,7.755682 -4.34659,2.727272 -9.92897,2.727272 -5.58239,0 -9.92898,-2.727272 -4.34659,-2.727273 -6.83949,-7.755682 -2.4929,-5.028409 -2.4929,-11.931818 0,-6.903409 2.4929,-11.931818 2.4929,-5.028409 6.83949,-7.755682 4.34659,-2.727273 9.92898,-2.727273 5.58238,0 9.92897,2.727273 4.34659,2.727273 6.83949,7.755682 2.4929,5.028409 2.4929,11.931818 z m -5.11364,0 q 0,-5.667613 -1.8963,-9.566761 -1.875,-3.899148 -5.09233,-5.901989 -3.19603,-2.002841 -7.15909,-2.002841 -3.96307,0 -7.1804,2.002841 -3.19602,2.002841 -5.09233,5.901989 -1.875,3.899148 -1.875,9.566761 0,5.667614 1.875,9.566762 1.89631,3.899147 5.09233,5.901988 3.21733,2.002841 7.1804,2.002841 3.96306,0 7.15909,-2.002841 3.21733,-2.002841 5.09233,-5.901988 1.8963,-3.899148 1.8963,-9.566762 z" />
      <path
         id="path36"
         style="font-family:Inter;letter-spacing:0.075em"
         d="M 464.6044,100 V 56.363636 h 14.74432 q 5.11364,0 8.39489,1.747159 3.28125,1.725853 4.85795,4.751421 1.57671,3.025568 1.57671,6.882102 0,3.856534 -1.57671,6.839489 -1.5767,2.982954 -4.83665,4.6875 -3.25994,1.683238 -8.33096,1.683238 h -11.93182 v -4.772727 h 11.76136 q 3.49432,0 5.625,-1.022727 2.15199,-1.022727 3.1108,-2.897727 0.98011,-1.896307 0.98011,-4.517046 0,-2.620738 -0.98011,-4.580966 -0.98011,-1.960227 -3.1321,-3.025568 -2.15199,-1.086648 -5.68892,-1.086648 h -9.28978 V 100 Z M 485.14418,80.397727 495.88281,100 h -6.13636 L 479.17827,80.397727 Z" />
      <path
         id="path38"
         style="font-family:Inter;letter-spacing:0.075em"
         d="m 509.21449,100 h -5.53977 l 16.02272,-43.636364 h 5.45455 L 541.17472,100 h -5.53978 L 522.59517,63.267045 h -0.34091 z m 2.04545,-17.045455 h 22.32955 v 4.6875 h -22.32955 z" />
      <path
         id="path40"
         style="font-family:Inter;letter-spacing:0.075em"
         d="M 587.07386,56.363636 V 100 h -5.11363 L 558.18182,65.738636 h -0.42614 V 100 h -5.28409 V 56.363636 h 5.11364 l 23.86363,34.346591 H 581.875 V 56.363636 Z" />
      <path
         id="path42"
         style="font-family:Inter;letter-spacing:0.075em"
         d="M 602.08878,100 V 56.363636 h 26.33523 v 4.6875 h -21.05114 v 14.744319 h 19.6875 v 4.6875 h -19.6875 V 95.3125 h 21.39204 V 100 Z" />
      <path
         id="path44"
         style="font-family:Inter;letter-spacing:0.075em"
         d="m 644.23793,100 h -5.53978 l 16.02273,-43.636364 h 5.45455 L 676.19815,100 h -5.53977 L 657.61861,63.267045 h -0.34091 z m 2.04545,-17.045455 h 22.32955 v 4.6875 h -22.32955 z" />
    </g>
  </g>
</svg>
