<?xml version="1.0" encoding="UTF-8" standalone="no"?>
<svg
   xmlns:dc="http://purl.org/dc/elements/1.1/"
   xmlns:cc="http://creativecommons.org/ns#"
   xmlns:rdf="http://www.w3.org/1999/02/22-rdf-syntax-ns#"
   xmlns:svg="http://www.w3.org/2000/svg"
   xmlns="http://www.w3.org/2000/svg"
   id="svg16"
   width="800px"
   version="1.1"
   height="200px">
  <metadata
     id="metadata20">
    <rdf:RDF>
      <cc:Work
         rdf:about="">
        <dc:format>image/svg+xml</dc:format>
        <dc:type
           rdf:resource="http://purl.org/dc/dcmitype/StillImage" />
      </cc:Work>
    </rdf:RDF>
  </metadata>
  <defs
     id="defs4">
    <style
       id="style2"
       type="text/css"><![CDATA[    
     @font-face {font-family:Inter Black;
     src: url('/Users/francesco/Repos/write-logos/src/fonts/Fonts_E_TEMPORANEA/Inter-Black.otf');}
     @font-face {font-family:SomewhereInSpace;
     src: url('/Users/francesco/Repos/write-logos/src/fonts/Fonts_X/SOMWHEREINSPACE.ttf');}
     ]]></style>
  </defs>
  <g
     id="g14"
     style="font-size:60px">
    <g
       style="text-anchor:middle"
       id="text12"
       aria-label="EXTEMPORANEA">
      <path
         id="path22"
         style="font-family:'Inter Black';letter-spacing:0.075em"
         d="m 121.9375,100 h 31.36364 v -9.545455 h -19.51705 v -7.5 h 17.98296 v -9.545454 h -17.98296 v -7.5 h 19.60227 V 56.363636 H 121.9375 Z" />
      <path
         id="path24"
         style="font-family:SomewhereInSpace;letter-spacing:0.05em"
         d="m 198.80781,108.4 q -2.4,-3.84 -6.9,-3.72 -1.44,0 -2.64,0.6 -0.3,0.06 -0.78,0.24 -0.36,-2.16 -1.26,-6.18 l -0.72,-1.26 q -1.32,-4.38 -3.78,-9.18 l -0.3,-0.3 q -0.84,0.84 -1.26,2.1 0.48,2.7 0.42,5.46 -0.12,5.28 -2.22,10.98 -0.84,2.28 -2.28,5.22 -0.42,0.42 -1.2,1.02 -0.18,0.06 -0.78,0.24 -1.98,0.54 -2.88,0.54 -2.82,0 -4.32,-1.14 -0.24,-0.18 -0.78,-0.66 -0.48,-0.48 -1.2,-1.74 0.24,-0.66 0.6,-2.04 3.24,-7.98 3,-16.08 l -0.12,-4.68 q -0.06,-2.88 -0.42,-4.62 -0.24,-1.32 -0.36,-2.22 -0.54,-0.84 -1.92,-3.06 -2.64,-4.38 -3.18,-7.32 -1.92,-6.24 -1.8,-10.86 0.06,-1.8 0.18,-3.9 0.06,-0.3 0.3,-0.96 1.14,3.24 4.38,4.26 2.1,0.66 4.5,0 1.26,0.9 2.04,3.36 0.18,0.42 1.02,3.96 0.12,0.96 0.42,2.82 0.42,0.72 1.8,3 l 0.42,-0.48 0.3,-0.42 q 0.12,-0.42 0.42,-1.2 0.66,-5.88 5.58,-17.28 4.26,-2.4 6.66,-2.46 1.02,-0.06 2.28,0.42 0.96,0.48 1.62,1.14 -6.6,9.84 -7.56,21.24 l 4.68,7.32 q 2.88,4.56 4.38,7.38 3.9,7.38 4.08,16.38 0,1.44 -0.24,3.3 -0.18,0.54 -0.18,0.78 z" />
      <path
         id="path26"
         style="font-family:'Inter Black';letter-spacing:0.075em"
         d="m 204.29901,65.909091 h 13.125 V 100 h 11.67613 V 65.909091 h 13.125 v -9.545455 h -37.92613 z" />
      <path
         id="path28"
         style="font-family:'Inter Black';letter-spacing:0.075em"
         d="m 251.125,100 h 31.36364 v -9.545455 h -19.51705 v -7.5 h 17.98296 v -9.545454 h -17.98296 v -7.5 h 19.60227 V 56.363636 H 251.125 Z" />
      <path
         id="path30"
         style="font-family:'Inter Black';letter-spacing:0.075em"
         d="M 293.00781,56.363636 V 100 h 11.59091 V 74.602273 h 0.34091 l 9.71591,25.056818 h 6.98864 l 9.71591,-24.886364 h 0.3409 V 100 H 343.2919 V 56.363636 h -14.74431 l -10.14205,24.715909 h -0.51136 L 307.75213,56.363636 Z" />
      <path
         id="path32"
         style="font-family:'Inter Black';letter-spacing:0.075em"
         d="m 353.40625,100 h 11.84659 V 87.045455 h 6.5625 c 9.95028,0 16.61932,-5.859375 16.61932,-15.255682 0,-9.289773 -6.49858,-15.426137 -16.19318,-15.426137 H 353.40625 Z M 365.25284,77.840909 V 65.823864 h 4.17614 c 4.15483,0 6.64772,2.215909 6.64772,5.965909 0,3.728693 -2.49289,6.051136 -6.64772,6.051136 z" />
      <path
         id="path34"
         style="font-family:'Inter Black';letter-spacing:0.075em"
         d="m 439.55398,78.181818 c 0,-14.573863 -9.375,-22.414773 -21.22159,-22.414773 -11.93182,0 -21.22159,7.84091 -21.22159,22.414773 0,14.488637 9.28977,22.414772 21.22159,22.414772 11.84659,0 21.22159,-7.840908 21.22159,-22.414772 z m -12.1875,0 c 0,7.840909 -3.15341,12.102273 -9.03409,12.102273 -5.88069,0 -9.03409,-4.261364 -9.03409,-12.102273 0,-7.840909 3.1534,-12.102273 9.03409,-12.102273 5.88068,0 9.03409,4.261364 9.03409,12.102273 z" />
      <path
         id="path36"
         style="font-family:'Inter Black';letter-spacing:0.075em"
         d="m 449.47656,100 h 11.84659 V 85.596591 h 4.09091 L 473.08452,100 h 12.86932 L 477.0902,83.721591 c 4.64489,-2.237216 7.41477,-6.477273 7.41477,-12.528409 0,-9.289773 -6.49858,-14.829546 -16.19318,-14.829546 H 449.47656 Z M 461.32315,76.392045 V 65.823864 h 4.17614 c 4.15483,0 6.64773,1.619318 6.64773,5.369318 0,3.728693 -2.4929,5.198863 -6.64773,5.198863 z" />
      <path
         id="path38"
         style="font-family:'Inter Black';letter-spacing:0.075em"
         d="m 505.38991,100 2.51421,-8.352273 h 14.40341 L 524.82173,100 h 12.78409 L 523.20241,56.363636 H 507.00923 L 492.60582,100 Z m 5.19887,-17.215909 4.34659,-14.403409 h 0.34091 l 4.34659,14.403409 z" />
      <path
         id="path40"
         style="font-family:'Inter Black';letter-spacing:0.075em"
         d="m 584.00568,56.363636 h -11.84659 v 22.840909 h -0.34091 L 556.30682,56.363636 H 546.25 V 100 h 11.84659 V 77.073864 h 0.25568 L 574.11932,100 h 9.88636 z" />
      <path
         id="path42"
         style="font-family:'Inter Black';letter-spacing:0.075em"
         d="m 594.10937,100 h 31.36364 v -9.545455 h -19.51704 v -7.5 h 17.98295 v -9.545454 h -17.98295 v -7.5 h 19.60227 v -9.545455 h -31.44887 z" />
      <path
         id="path44"
         style="font-family:'Inter Black';letter-spacing:0.075em"
         d="m 647.32741,100 2.51421,-8.352273 h 14.40341 L 666.75923,100 h 12.78409 L 665.13991,56.363636 H 648.94673 L 634.54332,100 Z m 5.19887,-17.215909 4.34659,-14.403409 h 0.34091 l 4.34659,14.403409 z" />
    </g>
  </g>
</svg>
