<?xml version="1.0" encoding="UTF-8" standalone="no"?>
<svg
   xmlns:dc="http://purl.org/dc/elements/1.1/"
   xmlns:cc="http://creativecommons.org/ns#"
   xmlns:rdf="http://www.w3.org/1999/02/22-rdf-syntax-ns#"
   xmlns:svg="http://www.w3.org/2000/svg"
   xmlns="http://www.w3.org/2000/svg"
   id="svg16"
   width="800px"
   version="1.1"
   height="200px">
  <metadata
     id="metadata20">
    <rdf:RDF>
      <cc:Work
         rdf:about="">
        <dc:format>image/svg+xml</dc:format>
        <dc:type
           rdf:resource="http://purl.org/dc/dcmitype/StillImage" />
      </cc:Work>
    </rdf:RDF>
  </metadata>
  <defs
     id="defs4">
    <style
       id="style2"
       type="text/css"><![CDATA[    
     @font-face {font-family:Inter;
     src: url('/Users/francesco/Repos/write-logos/src/fonts/Fonts_E_TEMPORANEA/Inter-roman.ttf');}
     @font-face {font-family:Interferencias;
     src: url('/Users/francesco/Repos/write-logos/src/fonts/Fonts_X/Interferencias.otf');}
     ]]></style>
  </defs>
  <g
     id="g14"
     style="font-size:60px">
    <g
       style="text-anchor:middle"
       id="text12"
       aria-label="EXTEMPORANEA">
      <path
         id="path22"
         style="font-family:Inter;letter-spacing:0.075em"
         d="M 144.62393,100 V 56.363636 h 26.33523 v 4.6875 h -21.05113 v 14.744319 h 19.6875 v 4.6875 h -19.6875 V 95.3125 h 21.39204 V 100 Z" />
      <path
         id="path24"
         style="font-family:Interferencias;letter-spacing:0.05em"
         d="m 176.50586,58.017578 h 7.06055 l 3.42773,2.138672 q 1.43555,1.582031 3.45703,7.851562 0,1.289063 0.64453,1.494141 0.67383,-0.498047 2.63672,-8.847656 0,-0.761719 -1.64062,-1.992188 v -0.146484 q 0.17578,-0.498047 0.99609,-0.498047 h 5.56641 q 3.42773,1.435547 3.42773,3.457031 -4.10156,14.619141 -4.57031,17.197266 1.99219,7.236328 3.92578,7.236328 3.07617,0.878906 3.28125,1.142578 v 0.322266 q -0.0879,0.498047 -2.28516,1.142578 -0.49804,1.259766 -0.49804,1.816406 v 0.146485 q 2.95898,8.876953 2.95898,9.345703 L 204.54297,100 h -5.88867 q -2.08008,0 -3.10547,-4.277344 -1.99219,-5.332031 -1.99219,-6.064453 0.67383,-1.171875 0.67383,-1.464844 l -0.32227,-0.175781 q -1.25976,0 -1.49414,1.816406 -0.82031,0 -1.96289,6.240235 Q 189.71875,100 189.13281,100 h -6.06445 q -1.78711,-0.527344 -1.78711,-0.996094 v -0.46875 q 1.99219,-8.408203 2.7832,-9.345703 1.40625,-1.113281 4.57032,-1.816406 l 0.17578,-0.322266 q -0.49805,-0.380859 -2.46094,-0.820312 -1.46484,-1.201172 -1.46484,-1.816407 1.28906,-4.921875 1.46484,-6.5625 -3.10547,-8.378906 -4.42383,-11.308593 0,-1.201172 -2.28516,-5.566407 0,-0.908203 -2.8125,-1.816406 l -0.64453,-0.820312 q 0.0586,-0.322266 0.32227,-0.322266 z" />
      <path
         id="path26"
         style="font-family:Inter;letter-spacing:0.075em"
         d="m 211.14382,61.051136 v -4.6875 h 32.72727 v 4.6875 H 230.1495 V 100 h -5.28409 V 61.051136 Z" />
      <path
         id="path28"
         style="font-family:Inter;letter-spacing:0.075em"
         d="M 256.58487,100 V 56.363636 h 26.33523 v 4.6875 h -21.05114 v 14.744319 h 19.6875 v 4.6875 h -19.6875 V 95.3125 h 21.39205 V 100 Z" />
      <path
         id="path30"
         style="font-family:Inter;letter-spacing:0.075em"
         d="m 296.94425,56.363636 h 6.30682 l 14.82954,36.221591 h 0.51136 l 14.82955,-36.221591 h 6.30682 V 100 h -4.94318 V 66.846591 h -0.42614 L 320.72266,100 h -4.77273 L 302.31357,66.846591 h -0.42614 V 100 h -4.94318 z" />
      <path
         id="path32"
         style="font-family:Inter;letter-spacing:0.075em"
         d="M 354.76456,100 V 56.363636 h 14.74432 q 5.13494,0 8.39488,1.853694 3.28125,1.832386 4.85796,4.964488 1.5767,3.132102 1.5767,6.988637 0,3.856534 -1.5767,7.009943 -1.5554,3.153409 -4.81534,5.028409 -3.25995,1.853693 -8.35227,1.853693 H 359.02592 V 79.375 h 10.39773 q 3.51563,0 5.64631,-1.214489 2.13068,-1.214488 3.08949,-3.28125 0.98011,-2.088068 0.98011,-4.708806 0,-2.620739 -0.98011,-4.6875 -0.95881,-2.066762 -3.1108,-3.238637 -2.15199,-1.193182 -5.71023,-1.193182 h -9.28977 V 100 Z" />
      <path
         id="path34"
         style="font-family:Inter;letter-spacing:0.075em"
         d="m 434.16868,78.181818 q 0,6.903409 -2.4929,11.931818 -2.4929,5.028409 -6.83949,7.755682 -4.34659,2.727272 -9.92897,2.727272 -5.58239,0 -9.92898,-2.727272 -4.34659,-2.727273 -6.83949,-7.755682 -2.4929,-5.028409 -2.4929,-11.931818 0,-6.903409 2.4929,-11.931818 2.4929,-5.028409 6.83949,-7.755682 4.34659,-2.727273 9.92898,-2.727273 5.58238,0 9.92897,2.727273 4.34659,2.727273 6.83949,7.755682 2.4929,5.028409 2.4929,11.931818 z m -5.11364,0 q 0,-5.667613 -1.8963,-9.566761 -1.875,-3.899148 -5.09233,-5.901989 -3.19603,-2.002841 -7.15909,-2.002841 -3.96307,0 -7.1804,2.002841 -3.19603,2.002841 -5.09233,5.901989 -1.875,3.899148 -1.875,9.566761 0,5.667614 1.875,9.566762 1.8963,3.899147 5.09233,5.901988 3.21733,2.002841 7.1804,2.002841 3.96306,0 7.15909,-2.002841 3.21733,-2.002841 5.09233,-5.901988 1.8963,-3.899148 1.8963,-9.566762 z" />
      <path
         id="path36"
         style="font-family:Inter;letter-spacing:0.075em"
         d="M 447.55362,100 V 56.363636 h 14.74432 q 5.11364,0 8.39489,1.747159 3.28125,1.725853 4.85795,4.751421 1.57671,3.025568 1.57671,6.882102 0,3.856534 -1.57671,6.839489 -1.5767,2.982954 -4.83665,4.6875 -3.25994,1.683238 -8.33096,1.683238 h -11.93182 v -4.772727 h 11.76136 q 3.49432,0 5.625,-1.022727 2.15199,-1.022727 3.1108,-2.897727 0.98011,-1.896307 0.98011,-4.517046 0,-2.620738 -0.98011,-4.580966 -0.98012,-1.960227 -3.1321,-3.025568 -2.15199,-1.086648 -5.68892,-1.086648 h -9.28978 V 100 Z M 468.09339,80.397727 478.83203,100 h -6.13636 L 462.12749,80.397727 Z" />
      <path
         id="path38"
         style="font-family:Inter;letter-spacing:0.075em"
         d="m 492.16371,100 h -5.53978 l 16.02273,-43.636364 h 5.45455 L 524.12393,100 h -5.53977 L 505.54439,63.267045 h -0.34091 z m 2.04545,-17.045455 h 22.32955 v 4.6875 h -22.32955 z" />
      <path
         id="path40"
         style="font-family:Inter;letter-spacing:0.075em"
         d="M 570.02308,56.363636 V 100 h -5.11363 L 541.13104,65.738636 H 540.7049 V 100 h -5.28409 V 56.363636 h 5.11364 l 23.86363,34.346591 h 0.42614 V 56.363636 Z" />
      <path
         id="path42"
         style="font-family:Inter;letter-spacing:0.075em"
         d="M 585.038,100 V 56.363636 h 26.33522 v 4.6875 h -21.05113 v 14.744319 h 19.6875 v 4.6875 h -19.6875 V 95.3125 h 21.39204 V 100 Z" />
      <path
         id="path44"
         style="font-family:Inter;letter-spacing:0.075em"
         d="m 627.18714,100 h -5.53977 L 637.6701,56.363636 h 5.45454 L 659.14737,100 H 653.6076 L 640.56783,63.267045 h -0.34091 z m 2.04546,-17.045455 h 22.32954 v 4.6875 H 629.2326 Z" />
    </g>
  </g>
</svg>
