<?xml version="1.0" encoding="UTF-8" standalone="no"?>
<svg
   xmlns:dc="http://purl.org/dc/elements/1.1/"
   xmlns:cc="http://creativecommons.org/ns#"
   xmlns:rdf="http://www.w3.org/1999/02/22-rdf-syntax-ns#"
   xmlns:svg="http://www.w3.org/2000/svg"
   xmlns="http://www.w3.org/2000/svg"
   id="svg16"
   width="800px"
   version="1.1"
   height="200px">
  <metadata
     id="metadata20">
    <rdf:RDF>
      <cc:Work
         rdf:about="">
        <dc:format>image/svg+xml</dc:format>
        <dc:type
           rdf:resource="http://purl.org/dc/dcmitype/StillImage" />
      </cc:Work>
    </rdf:RDF>
  </metadata>
  <defs
     id="defs4">
    <style
       id="style2"
       type="text/css"><![CDATA[    
     @font-face {font-family:Inter;
     src: url('/Users/francesco/Repos/write-logos/src/fonts/Fonts_E_TEMPORANEA/Inter-roman.ttf');}
     @font-face {font-family:Dr Eye;
     src: url('/Users/francesco/Repos/write-logos/src/fonts/Fonts_X/DrEye.otf');}
     ]]></style>
  </defs>
  <g
     id="g14"
     style="font-size:60px">
    <g
       style="text-anchor:middle"
       id="text12"
       aria-label="EXTEMPORANEA">
      <path
         id="path22"
         style="font-family:Inter;letter-spacing:0.075em"
         d="M 136.01065,100 V 56.363636 h 26.33523 v 4.6875 h -21.05114 v 14.744319 h 19.6875 v 4.6875 h -19.6875 V 95.3125 h 21.39205 V 100 Z" />
      <path
         id="path24"
         style="font-family:'Dr Eye';letter-spacing:0.05em"
         d="m 170.00594,55.78 c 0.18,-0.24 2.1,-1.08 0,-1.2 -0.66,-0.06 -0.24,0.96 0,1.2 z m 0.9,8.94 c -0.12,0 -0.6,0.06 -0.72,0 -0.06,0.18 -0.42,0.12 -0.6,0.18 0.06,0.12 0,0.66 0,0.78 0.18,0 0.36,0.12 0.6,0.18 -0.42,0.12 0.84,-0.18 0.54,-0.18 0.42,0.24 0.18,-0.96 0.18,-0.96 z m 37.74,28.5 c 0.78,-3.9 -2.28,-3.06 -3.9,-4.08 -0.3,-0.12 -0.06,-0.36 -0.3,-0.6 -0.48,-0.84 -0.36,-2.28 -0.9,-3.18 -0.9,-1.5 -3.18,-1.2 -4.08,-2.4 -0.78,-1.02 -0.42,-3 -1.38,-3.78 l -0.18,-0.18 c -1.26,-1.02 -2.34,-0.42 -3,-2.1 0,-0.06 -0.42,-0.9 -0.36,-0.9 0.48,-0.36 0.36,-1.32 0.78,-1.68 0.78,-0.78 2.52,-0.66 3.18,-1.56 l 0.42,-0.36 c 0.42,-1.44 0,-2.16 0.72,-3.18 0.84,-1.26 3.24,-1.02 4.08,-2.46 0.36,-0.66 0.24,-1.98 0.54,-2.76 0.66,-1.8 5.46,-1.8 3.42,-5.1 l -0.18,-0.36 c -0.72,-0.6 -1.98,-0.48 -2.76,-0.96 -1.44,-0.9 -0.54,-3.48 -2.88,-4.14 -0.12,0 -0.36,0 -0.54,0 -2.1,0.12 -2.04,2.34 -3.24,3.42 -0.96,0.78 -1.86,0.48 -2.94,1.14 -1.56,1.02 -0.9,2.7 -1.68,4.32 l -0.6,0.54 c -1.44,0.78 -2.82,0.42 -3.96,1.5 -0.6,0.54 -0.42,2.16 -1.26,2.4 -1.02,0.3 -2.28,-0.12 -2.7,-0.54 -0.3,-0.42 -0.6,-1.74 -0.36,-2.58 0.3,-1.14 1.86,-0.48 2.28,-1.86 0.12,-0.48 0.18,-0.84 0.18,-1.2 0,-0.06 -0.06,-0.36 -0.18,-0.72 -0.06,-0.06 -0.3,-0.54 -0.36,-0.6 -0.84,-0.72 -2.34,-0.48 -3.42,-0.18 0,0.3 0.12,1.14 0,1.32 -0.3,0.54 -1.5,0.48 -2.4,0.54 -1.14,-1.68 -1.26,-2.7 1.14,-3.36 0.3,-1.14 0.54,-3.66 -1.14,-3.96 -2.58,-0.48 -2.28,2.28 -3.6,3.06 -1.08,0.6 -2.7,0.18 -3.9,0.9 -1.08,0.66 -0.78,5.16 0.18,5.64 0.78,0.42 1.56,0.12 2.22,0.6 1.32,0.78 1.38,2.4 1.14,4.32 -1.68,0.66 -2.04,0.72 -2.22,2.94 1.38,0.66 1.26,0.78 2.58,0 0.12,-0.06 0.78,-0.12 0.78,-0.18 0.18,-0.3 0,-1.08 0,-1.44 0.06,0 0.54,0 0.54,0 0.42,-0.12 0.48,-0.3 0.96,-0.24 2.28,0.18 2.46,2.04 1.86,3.96 -0.72,0.18 -1.56,0.3 -1.86,0.96 -0.36,0.66 -0.18,1.92 0,2.58 0.6,2.28 2.4,1.56 2.64,3 0.54,3.24 -2.58,3.36 -4.32,3.24 -0.42,1.32 -0.3,3.84 -1.14,4.86 -0.78,1.02 -3.42,0.84 -3.9,2.04 -0.6,1.62 -0.12,3.24 -1.38,4.14 -1.26,0.96 -1.86,-0.06 -2.58,1.86 -0.3,0.78 -0.48,1.44 0,2.22 0.06,0.12 0.42,0.54 0.54,0.6 0,0.06 0.18,0.18 0.18,0.18 0.84,0.6 2.04,0.3 3,0.72 1.08,0.54 0.72,3.06 1.92,3.6 0.42,0.24 1.5,0 1.5,0 0.36,-0.3 0.9,-0.36 1.08,-0.72 0.48,-0.9 0.18,-2.34 0.96,-2.88 0.66,-0.42 1.44,-0.12 2.46,-0.36 2.46,-0.54 1.86,-3.42 2.58,-5.76 1.38,0.06 3.9,0.24 4.38,-1.56 0.24,-1.08 -0.24,-2.1 -0.42,-2.76 -2.4,-0.6 -2.04,-1.32 -1.44,-3.42 1.02,-0.06 2.58,-0.12 2.94,0.9 0.06,0.36 -0.18,0.96 0,1.2 0.18,0.24 1.02,0.36 1.32,0.54 1.38,0.72 3.3,0.78 3.78,2.46 0.42,1.32 0.48,3.06 1.68,3.54 1.44,0.6 2.1,0 2.94,1.32 0.66,0.96 0.54,3.54 1.74,3.9 0.9,0.3 1.98,-0.06 2.76,0.18 2.46,0.66 1.98,3.24 4.74,3.24 0.84,-1.92 0.78,-3 -1.68,-3.42 -0.06,-0.3 0.12,-0.42 -0.18,-0.54 0,-1.86 0.12,-3.3 1.08,-4.08 0.84,-0.72 1.86,-0.42 2.1,-1.74 z m -31.92,-11.94 c -0.36,-0.6 -0.66,-0.54 -1.32,-0.84 -0.06,0.18 -0.6,0.3 -0.72,0.48 0.06,0.3 -0.12,0.72 0,1.08 0.36,1.08 3.96,1.56 2.04,-0.72 z m -6.54,4.8 c -0.78,0 -0.18,1.02 -0.18,1.02 0.3,-0.24 1.2,-0.96 0.18,-1.02 z m 41.82,11.46 c 0.6,-0.06 0.3,-1.14 -0.54,-1.08 -0.72,0.06 -0.24,1.14 0.54,1.08 z m -30.36,-6 c 0.9,0.36 1.62,2.52 -1.14,1.14 0,-0.36 0.18,-1.08 0.18,-1.14 0.3,0.12 0.6,-0.12 0.96,0 z" />
      <path
         id="path26"
         style="font-family:Inter;letter-spacing:0.075em"
         d="m 219.7571,61.051136 v -4.6875 h 32.72727 v 4.6875 H 238.76278 V 100 h -5.28409 V 61.051136 Z" />
      <path
         id="path28"
         style="font-family:Inter;letter-spacing:0.075em"
         d="M 265.19815,100 V 56.363636 h 26.33523 v 4.6875 h -21.05114 v 14.744319 h 19.6875 v 4.6875 h -19.6875 V 95.3125 h 21.39205 V 100 Z" />
      <path
         id="path30"
         style="font-family:Inter;letter-spacing:0.075em"
         d="m 305.55753,56.363636 h 6.30682 l 14.82954,36.221591 h 0.51137 L 342.0348,56.363636 h 6.30682 V 100 h -4.94318 V 66.846591 H 342.9723 L 329.33594,100 h -4.77273 L 310.92685,66.846591 h -0.42614 V 100 h -4.94318 z" />
      <path
         id="path32"
         style="font-family:Inter;letter-spacing:0.075em"
         d="M 363.37784,100 V 56.363636 h 14.74432 q 5.13494,0 8.39489,1.853694 3.28125,1.832386 4.85795,4.964488 1.5767,3.132102 1.5767,6.988637 0,3.856534 -1.5767,7.009943 -1.5554,3.153409 -4.81534,5.028409 -3.25994,1.853693 -8.35227,1.853693 H 367.6392 V 79.375 h 10.39773 q 3.51563,0 5.64631,-1.214489 2.13068,-1.214488 3.08949,-3.28125 0.98011,-2.088068 0.98011,-4.708806 0,-2.620739 -0.98011,-4.6875 -0.95881,-2.066762 -3.1108,-3.238637 -2.15199,-1.193182 -5.71023,-1.193182 h -9.28977 V 100 Z" />
      <path
         id="path34"
         style="font-family:Inter;letter-spacing:0.075em"
         d="m 442.78196,78.181818 q 0,6.903409 -2.4929,11.931818 -2.4929,5.028409 -6.83949,7.755682 -4.34659,2.727272 -9.92897,2.727272 -5.58239,0 -9.92898,-2.727272 -4.34659,-2.727273 -6.83949,-7.755682 -2.4929,-5.028409 -2.4929,-11.931818 0,-6.903409 2.4929,-11.931818 2.4929,-5.028409 6.83949,-7.755682 4.34659,-2.727273 9.92898,-2.727273 5.58238,0 9.92897,2.727273 4.34659,2.727273 6.83949,7.755682 2.4929,5.028409 2.4929,11.931818 z m -5.11364,0 q 0,-5.667613 -1.8963,-9.566761 -1.875,-3.899148 -5.09233,-5.901989 -3.19603,-2.002841 -7.15909,-2.002841 -3.96307,0 -7.1804,2.002841 -3.19602,2.002841 -5.09233,5.901989 -1.875,3.899148 -1.875,9.566761 0,5.667614 1.875,9.566762 1.89631,3.899147 5.09233,5.901988 3.21733,2.002841 7.1804,2.002841 3.96306,0 7.15909,-2.002841 3.21733,-2.002841 5.09233,-5.901988 1.8963,-3.899148 1.8963,-9.566762 z" />
      <path
         id="path36"
         style="font-family:Inter;letter-spacing:0.075em"
         d="M 456.1669,100 V 56.363636 h 14.74432 q 5.11364,0 8.39489,1.747159 3.28125,1.725853 4.85795,4.751421 1.57671,3.025568 1.57671,6.882102 0,3.856534 -1.57671,6.839489 -1.5767,2.982954 -4.83665,4.6875 -3.25994,1.683238 -8.33096,1.683238 h -11.93182 v -4.772727 h 11.76136 q 3.49432,0 5.625,-1.022727 2.15199,-1.022727 3.1108,-2.897727 0.98011,-1.896307 0.98011,-4.517046 0,-2.620738 -0.98011,-4.580966 -0.98011,-1.960227 -3.1321,-3.025568 -2.15199,-1.086648 -5.68892,-1.086648 h -9.28978 V 100 Z M 476.70668,80.397727 487.44531,100 h -6.13636 L 470.74077,80.397727 Z" />
      <path
         id="path38"
         style="font-family:Inter;letter-spacing:0.075em"
         d="m 500.77699,100 h -5.53977 l 16.02272,-43.636364 h 5.45455 L 532.73722,100 h -5.53978 L 514.15767,63.267045 h -0.34091 z m 2.04545,-17.045455 h 22.32955 v 4.6875 h -22.32955 z" />
      <path
         id="path40"
         style="font-family:Inter;letter-spacing:0.075em"
         d="M 578.63636,56.363636 V 100 h -5.11363 L 549.74432,65.738636 h -0.42614 V 100 h -5.28409 V 56.363636 h 5.11364 l 23.86363,34.346591 h 0.42614 V 56.363636 Z" />
      <path
         id="path42"
         style="font-family:Inter;letter-spacing:0.075em"
         d="M 593.65128,100 V 56.363636 h 26.33523 v 4.6875 h -21.05114 v 14.744319 h 19.6875 v 4.6875 h -19.6875 V 95.3125 h 21.39204 V 100 Z" />
      <path
         id="path44"
         style="font-family:Inter;letter-spacing:0.075em"
         d="m 635.80043,100 h -5.53978 l 16.02273,-43.636364 h 5.45455 L 667.76065,100 h -5.53977 L 649.18111,63.267045 h -0.34091 z m 2.04545,-17.045455 h 22.32955 v 4.6875 h -22.32955 z" />
    </g>
  </g>
</svg>
