<?xml version="1.0" encoding="UTF-8" standalone="no"?>
<svg
   xmlns:dc="http://purl.org/dc/elements/1.1/"
   xmlns:cc="http://creativecommons.org/ns#"
   xmlns:rdf="http://www.w3.org/1999/02/22-rdf-syntax-ns#"
   xmlns:svg="http://www.w3.org/2000/svg"
   xmlns="http://www.w3.org/2000/svg"
   id="svg16"
   width="800px"
   version="1.1"
   height="200px">
  <metadata
     id="metadata20">
    <rdf:RDF>
      <cc:Work
         rdf:about="">
        <dc:format>image/svg+xml</dc:format>
        <dc:type
           rdf:resource="http://purl.org/dc/dcmitype/StillImage" />
      </cc:Work>
    </rdf:RDF>
  </metadata>
  <defs
     id="defs4">
    <style
       id="style2"
       type="text/css"><![CDATA[    
     @font-face {font-family:Inter;
     src: url('/Users/francesco/Repos/write-logos/src/fonts/Fonts_E_TEMPORANEA/Inter-roman.ttf');}
     @font-face {font-family:___Devastation;
     src: url('/Users/francesco/Repos/write-logos/src/fonts/Fonts_X/Devastation.ttf');}
     ]]></style>
  </defs>
  <g
     id="g14"
     style="font-size:60px">
    <g
       style="text-anchor:middle"
       id="text12"
       aria-label="EXTEMPORANEA">
      <path
         id="path22"
         style="font-family:Inter;letter-spacing:0.075em"
         d="M 136.83097,100 V 56.363636 h 26.33522 v 4.6875 h -21.05113 v 14.744319 h 19.6875 v 4.6875 h -19.6875 V 95.3125 H 163.5071 V 100 Z" />
      <path
         id="path24"
         style="font-family:'___Devastation';letter-spacing:0.05em"
         d="m 175.68555,56.259766 h 6.35742 l 10.86914,16.259765 10.92773,-16.259765 h 6.35743 l -14.0625,21.005859 15,22.734375 h -6.35743 L 192.47266,81.396484 180.08008,100 h -6.38672 l 15.61523,-23.349609 z" />
      <path
         id="path26"
         style="font-family:Inter;letter-spacing:0.075em"
         d="m 218.93679,61.051136 v -4.6875 h 32.72727 v 4.6875 H 237.94247 V 100 h -5.28409 V 61.051136 Z" />
      <path
         id="path28"
         style="font-family:Inter;letter-spacing:0.075em"
         d="M 264.37784,100 V 56.363636 h 26.33523 v 4.6875 h -21.05114 v 14.744319 h 19.6875 v 4.6875 h -19.6875 V 95.3125 h 21.39205 V 100 Z" />
      <path
         id="path30"
         style="font-family:Inter;letter-spacing:0.075em"
         d="m 304.73722,56.363636 h 6.30681 l 14.82955,36.221591 h 0.51136 l 14.82955,-36.221591 h 6.30682 V 100 h -4.94319 V 66.846591 h -0.42613 L 328.51562,100 H 323.7429 L 310.10653,66.846591 H 309.6804 V 100 h -4.94318 z" />
      <path
         id="path32"
         style="font-family:Inter;letter-spacing:0.075em"
         d="M 362.55753,100 V 56.363636 h 14.74432 q 5.13494,0 8.39488,1.853694 3.28125,1.832386 4.85796,4.964488 1.5767,3.132102 1.5767,6.988637 0,3.856534 -1.5767,7.009943 -1.5554,3.153409 -4.81534,5.028409 -3.25995,1.853693 -8.35228,1.853693 H 366.81889 V 79.375 h 10.39773 q 3.51562,0 5.64631,-1.214489 2.13068,-1.214488 3.08948,-3.28125 0.98012,-2.088068 0.98012,-4.708806 0,-2.620739 -0.98012,-4.6875 -0.9588,-2.066762 -3.11079,-3.238637 -2.15199,-1.193182 -5.71023,-1.193182 h -9.28977 V 100 Z" />
      <path
         id="path34"
         style="font-family:Inter;letter-spacing:0.075em"
         d="m 441.96165,78.181818 q 0,6.903409 -2.4929,11.931818 -2.4929,5.028409 -6.83949,7.755682 -4.34659,2.727272 -9.92898,2.727272 -5.58238,0 -9.92897,-2.727272 -4.34659,-2.727273 -6.83949,-7.755682 -2.4929,-5.028409 -2.4929,-11.931818 0,-6.903409 2.4929,-11.931818 2.4929,-5.028409 6.83949,-7.755682 4.34659,-2.727273 9.92897,-2.727273 5.58239,0 9.92898,2.727273 4.34659,2.727273 6.83949,7.755682 2.4929,5.028409 2.4929,11.931818 z m -5.11364,0 q 0,-5.667613 -1.89631,-9.566761 -1.875,-3.899148 -5.09233,-5.901989 -3.19602,-2.002841 -7.15909,-2.002841 -3.96306,0 -7.18039,2.002841 -3.19603,2.002841 -5.09233,5.901989 -1.875,3.899148 -1.875,9.566761 0,5.667614 1.875,9.566762 1.8963,3.899147 5.09233,5.901988 3.21733,2.002841 7.18039,2.002841 3.96307,0 7.15909,-2.002841 3.21733,-2.002841 5.09233,-5.901988 1.89631,-3.899148 1.89631,-9.566762 z" />
      <path
         id="path36"
         style="font-family:Inter;letter-spacing:0.075em"
         d="M 455.34659,100 V 56.363636 h 14.74432 q 5.11364,0 8.39489,1.747159 3.28125,1.725853 4.85795,4.751421 1.5767,3.025568 1.5767,6.882102 0,3.856534 -1.5767,6.839489 -1.5767,2.982954 -4.83665,4.6875 -3.25994,1.683238 -8.33096,1.683238 h -11.93182 v -4.772727 h 11.76136 q 3.49432,0 5.625,-1.022727 2.15199,-1.022727 3.1108,-2.897727 0.98011,-1.896307 0.98011,-4.517046 0,-2.620738 -0.98011,-4.580966 -0.98012,-1.960227 -3.13211,-3.025568 -2.15198,-1.086648 -5.68892,-1.086648 h -9.28977 V 100 Z M 475.88636,80.397727 486.625,100 h -6.13636 L 469.92045,80.397727 Z" />
      <path
         id="path38"
         style="font-family:Inter;letter-spacing:0.075em"
         d="m 499.95668,100 h -5.53978 l 16.02273,-43.636364 h 5.45455 L 531.9169,100 h -5.53977 L 513.33736,63.267045 h -0.34091 z m 2.04545,-17.045455 h 22.32955 v 4.6875 h -22.32955 z" />
      <path
         id="path40"
         style="font-family:Inter;letter-spacing:0.075em"
         d="M 577.81605,56.363636 V 100 h -5.11364 l -23.7784,-34.261364 h -0.42614 V 100 h -5.28409 V 56.363636 h 5.11363 l 23.86364,34.346591 h 0.42614 V 56.363636 Z" />
      <path
         id="path42"
         style="font-family:Inter;letter-spacing:0.075em"
         d="M 592.83097,100 V 56.363636 h 26.33522 v 4.6875 h -21.05113 v 14.744319 h 19.6875 v 4.6875 h -19.6875 V 95.3125 H 619.5071 V 100 Z" />
      <path
         id="path44"
         style="font-family:Inter;letter-spacing:0.075em"
         d="m 634.98011,100 h -5.53977 l 16.02273,-43.636364 h 5.45454 L 666.94034,100 h -5.53977 L 648.3608,63.267045 h -0.34091 z m 2.04546,-17.045455 h 22.32954 v 4.6875 h -22.32954 z" />
    </g>
  </g>
</svg>
