<?xml version="1.0" encoding="UTF-8" standalone="no"?>
<svg
   xmlns:dc="http://purl.org/dc/elements/1.1/"
   xmlns:cc="http://creativecommons.org/ns#"
   xmlns:rdf="http://www.w3.org/1999/02/22-rdf-syntax-ns#"
   xmlns:svg="http://www.w3.org/2000/svg"
   xmlns="http://www.w3.org/2000/svg"
   id="svg16"
   width="800px"
   version="1.1"
   height="200px">
  <metadata
     id="metadata20">
    <rdf:RDF>
      <cc:Work
         rdf:about="">
        <dc:format>image/svg+xml</dc:format>
        <dc:type
           rdf:resource="http://purl.org/dc/dcmitype/StillImage" />
      </cc:Work>
    </rdf:RDF>
  </metadata>
  <defs
     id="defs4">
    <style
       id="style2"
       type="text/css"><![CDATA[    
     @font-face {font-family:Inter;
     src: url('/Users/francesco/Repos/write-logos/src/fonts/Fonts_E_TEMPORANEA/Inter-roman.ttf');}
     @font-face {font-family:Monoton;
     src: url('/Users/francesco/Repos/write-logos/src/fonts/Fonts_X/Monoton-Regular.ttf');}
     ]]></style>
  </defs>
  <g
     id="g14"
     style="font-size:60px">
    <g
       style="text-anchor:middle"
       id="text12"
       aria-label="EXTEMPORANEA">
      <path
         id="path22"
         style="font-family:Inter;letter-spacing:0.075em"
         d="M 131.08878,100 V 56.363636 h 26.33523 v 4.6875 h -21.05114 v 14.744319 h 19.6875 v 4.6875 h -19.6875 V 95.3125 h 21.39204 V 100 Z" />
      <path
         id="path24"
         style="font-family:Monoton;letter-spacing:0.05em"
         d="m 183.5957,73.779297 -1.25976,1.992187 -15.26367,-24.287109 h 2.49023 z m 10.40039,15.849609 1.23047,-1.992187 L 203.01953,100 h -2.49023 z m -7.91015,-19.77539 -1.25977,1.96289 -12.77344,-20.332031 h 2.46094 z M 196.48633,85.673828 197.7168,83.681641 208,100 h -2.49023 z m -7.91016,-19.804687 -1.23047,1.96289 -10.3125,-16.347656 h 2.49024 z m 10.42969,15.820312 1.23047,-1.992187 L 213.00977,100 h -2.49024 z m -7.93945,-19.775391 -1.23047,1.992188 -7.82227,-12.421875 h 2.49024 z M 201.4668,77.734375 202.69727,75.742187 217.99023,100 H 215.5 Z m 12.56836,-26.25 h 2.49023 L 185.99805,100 h -2.49024 z m -4.95118,0 h 2.46094 L 181.01758,100 h -2.49024 z m -5.00976,0 h 2.49023 L 176.00781,100 h -2.49023 z m -4.98047,0 h 2.49023 L 171.02734,100 h -2.49023 z" />
      <path
         id="path26"
         style="font-family:Inter;letter-spacing:0.075em"
         d="m 224.67898,61.051136 v -4.6875 h 32.72727 v 4.6875 H 243.68466 V 100 h -5.28409 V 61.051136 Z" />
      <path
         id="path28"
         style="font-family:Inter;letter-spacing:0.075em"
         d="M 270.12003,100 V 56.363636 h 26.33523 v 4.6875 h -21.05114 v 14.744319 h 19.6875 v 4.6875 h -19.6875 V 95.3125 h 21.39204 V 100 Z" />
      <path
         id="path30"
         style="font-family:Inter;letter-spacing:0.075em"
         d="m 310.4794,56.363636 h 6.30682 l 14.82955,36.221591 h 0.51136 l 14.82955,-36.221591 h 6.30681 V 100 h -4.94318 V 66.846591 h -0.42613 L 334.25781,100 h -4.77272 L 315.84872,66.846591 h -0.42613 V 100 h -4.94319 z" />
      <path
         id="path32"
         style="font-family:Inter;letter-spacing:0.075em"
         d="M 368.29972,100 V 56.363636 h 14.74431 q 5.13495,0 8.39489,1.853694 3.28125,1.832386 4.85795,4.964488 1.57671,3.132102 1.57671,6.988637 0,3.856534 -1.57671,7.009943 -1.55539,3.153409 -4.81534,5.028409 -3.25994,1.853693 -8.35227,1.853693 H 372.56108 V 79.375 h 10.39773 q 3.51562,0 5.6463,-1.214489 2.13069,-1.214488 3.08949,-3.28125 0.98012,-2.088068 0.98012,-4.708806 0,-2.620739 -0.98012,-4.6875 -0.9588,-2.066762 -3.11079,-3.238637 -2.15199,-1.193182 -5.71023,-1.193182 h -9.28977 V 100 Z" />
      <path
         id="path34"
         style="font-family:Inter;letter-spacing:0.075em"
         d="m 447.70384,78.181818 q 0,6.903409 -2.4929,11.931818 -2.4929,5.028409 -6.83949,7.755682 -4.34659,2.727272 -9.92898,2.727272 -5.58238,0 -9.92898,-2.727272 -4.34659,-2.727273 -6.83948,-7.755682 -2.4929,-5.028409 -2.4929,-11.931818 0,-6.903409 2.4929,-11.931818 2.49289,-5.028409 6.83948,-7.755682 4.3466,-2.727273 9.92898,-2.727273 5.58239,0 9.92898,2.727273 4.34659,2.727273 6.83949,7.755682 2.4929,5.028409 2.4929,11.931818 z m -5.11364,0 q 0,-5.667613 -1.89631,-9.566761 -1.875,-3.899148 -5.09233,-5.901989 -3.19602,-2.002841 -7.15909,-2.002841 -3.96307,0 -7.1804,2.002841 -3.19602,2.002841 -5.09233,5.901989 -1.875,3.899148 -1.875,9.566761 0,5.667614 1.875,9.566762 1.89631,3.899147 5.09233,5.901988 3.21733,2.002841 7.1804,2.002841 3.96307,0 7.15909,-2.002841 3.21733,-2.002841 5.09233,-5.901988 1.89631,-3.899148 1.89631,-9.566762 z" />
      <path
         id="path36"
         style="font-family:Inter;letter-spacing:0.075em"
         d="M 461.08878,100 V 56.363636 h 14.74432 q 5.11363,0 8.39488,1.747159 3.28125,1.725853 4.85796,4.751421 1.5767,3.025568 1.5767,6.882102 0,3.856534 -1.5767,6.839489 -1.57671,2.982954 -4.83665,4.6875 -3.25994,1.683238 -8.33097,1.683238 h -11.93181 v -4.772727 h 11.76136 q 3.49432,0 5.625,-1.022727 2.15199,-1.022727 3.11079,-2.897727 0.98012,-1.896307 0.98012,-4.517046 0,-2.620738 -0.98012,-4.580966 -0.98011,-1.960227 -3.1321,-3.025568 -2.15199,-1.086648 -5.68892,-1.086648 h -9.28977 V 100 Z M 481.62855,80.397727 492.36719,100 h -6.13637 L 475.66264,80.397727 Z" />
      <path
         id="path38"
         style="font-family:Inter;letter-spacing:0.075em"
         d="m 505.69886,100 h -5.53977 l 16.02273,-43.636364 h 5.45454 L 537.65909,100 h -5.53977 L 519.07955,63.267045 h -0.34091 z m 2.04546,-17.045455 h 22.32954 v 4.6875 h -22.32954 z" />
      <path
         id="path40"
         style="font-family:Inter;letter-spacing:0.075em"
         d="M 583.55824,56.363636 V 100 H 578.4446 L 554.66619,65.738636 h -0.42613 V 100 h -5.28409 V 56.363636 h 5.11363 l 23.86364,34.346591 h 0.42613 V 56.363636 Z" />
      <path
         id="path42"
         style="font-family:Inter;letter-spacing:0.075em"
         d="M 598.57315,100 V 56.363636 h 26.33523 v 4.6875 h -21.05114 v 14.744319 h 19.6875 v 4.6875 h -19.6875 V 95.3125 h 21.39205 V 100 Z" />
      <path
         id="path44"
         style="font-family:Inter;letter-spacing:0.075em"
         d="m 640.7223,100 h -5.53977 l 16.02273,-43.636364 h 5.45454 L 672.68253,100 h -5.53977 L 654.10298,63.267045 h -0.34091 z m 2.04546,-17.045455 h 22.32954 v 4.6875 h -22.32954 z" />
    </g>
  </g>
</svg>
