<?xml version="1.0" encoding="UTF-8" standalone="no"?>
<svg
   xmlns:dc="http://purl.org/dc/elements/1.1/"
   xmlns:cc="http://creativecommons.org/ns#"
   xmlns:rdf="http://www.w3.org/1999/02/22-rdf-syntax-ns#"
   xmlns:svg="http://www.w3.org/2000/svg"
   xmlns="http://www.w3.org/2000/svg"
   id="svg16"
   width="800px"
   version="1.1"
   height="200px">
  <metadata
     id="metadata20">
    <rdf:RDF>
      <cc:Work
         rdf:about="">
        <dc:format>image/svg+xml</dc:format>
        <dc:type
           rdf:resource="http://purl.org/dc/dcmitype/StillImage" />
      </cc:Work>
    </rdf:RDF>
  </metadata>
  <defs
     id="defs4">
    <style
       id="style2"
       type="text/css"><![CDATA[    
     @font-face {font-family:Inter Black;
     src: url('/Users/francesco/Repos/write-logos/src/fonts/Fonts_E_TEMPORANEA/Inter-Black.otf');}
     @font-face {font-family:MCF Alien Delon;
     src: url('/Users/francesco/Repos/write-logos/src/fonts/Fonts_X/AlienDelon.ttf');}
     ]]></style>
  </defs>
  <g
     id="g14"
     style="font-size:60px">
    <g
       style="text-anchor:middle"
       id="text12"
       aria-label="EXTEMPORANEA">
      <path
         id="path22"
         style="font-family:'Inter Black';letter-spacing:0.075em"
         d="m 123.22656,100 h 31.36364 v -9.545455 h -19.51705 v -7.5 h 17.98296 v -9.545454 h -17.98296 v -7.5 h 19.60228 v -9.545455 h -31.44887 z" />
      <path
         id="path24"
         style="font-family:'MCF Alien Delon';letter-spacing:0.05em"
         d="m 167.39687,58.12 30.18,41.88 h -7.38 l -11.58,-16.02 -11.58,16.02 h -7.44 l 15.3,-21.18 -15,-20.7 h 0.84 6.66 v 0 z m 10.26001,0 6.11999,8.46 6.12,-8.46 h 7.38 l -9.84,13.56 5.52,7.62 h -7.44 l -15.3,-21.18 h 6.72 0.72001 v 0 z" />
      <path
         id="path26"
         style="font-family:'Inter Black';letter-spacing:0.075em"
         d="m 203.00994,65.909091 h 13.125 V 100 h 11.67614 V 65.909091 h 13.125 v -9.545455 h -37.92614 z" />
      <path
         id="path28"
         style="font-family:'Inter Black';letter-spacing:0.075em"
         d="m 249.83594,100 h 31.36363 v -9.545455 h -19.51704 v -7.5 h 17.98295 v -9.545454 h -17.98295 v -7.5 h 19.60227 v -9.545455 h -31.44886 z" />
      <path
         id="path30"
         style="font-family:'Inter Black';letter-spacing:0.075em"
         d="M 291.71875,56.363636 V 100 h 11.59091 V 74.602273 h 0.34091 l 9.71591,25.056818 h 6.98863 l 9.71591,-24.886364 h 0.34091 V 100 h 11.59091 V 56.363636 h -14.74432 l -10.14204,24.715909 h -0.51137 L 306.46307,56.363636 Z" />
      <path
         id="path32"
         style="font-family:'Inter Black';letter-spacing:0.075em"
         d="m 352.11719,100 h 11.84659 V 87.045455 h 6.5625 c 9.95028,0 16.61932,-5.859375 16.61932,-15.255682 0,-9.289773 -6.49858,-15.426137 -16.19319,-15.426137 H 352.11719 Z M 363.96378,77.840909 V 65.823864 h 4.17613 c 4.15483,0 6.64773,2.215909 6.64773,5.965909 0,3.728693 -2.4929,6.051136 -6.64773,6.051136 z" />
      <path
         id="path34"
         style="font-family:'Inter Black';letter-spacing:0.075em"
         d="m 438.26491,78.181818 c 0,-14.573863 -9.375,-22.414773 -21.22159,-22.414773 -11.93181,0 -21.22159,7.84091 -21.22159,22.414773 0,14.488637 9.28978,22.414772 21.22159,22.414772 11.84659,0 21.22159,-7.840908 21.22159,-22.414772 z m -12.1875,0 c 0,7.840909 -3.1534,12.102273 -9.03409,12.102273 -5.88068,0 -9.03409,-4.261364 -9.03409,-12.102273 0,-7.840909 3.15341,-12.102273 9.03409,-12.102273 5.88069,0 9.03409,4.261364 9.03409,12.102273 z" />
      <path
         id="path36"
         style="font-family:'Inter Black';letter-spacing:0.075em"
         d="m 448.1875,100 h 11.84659 V 85.596591 H 464.125 L 471.79545,100 h 12.86932 l -8.86363,-16.278409 c 4.64488,-2.237216 7.41477,-6.477273 7.41477,-12.528409 0,-9.289773 -6.49858,-14.829546 -16.19318,-14.829546 H 448.1875 Z M 460.03409,76.392045 V 65.823864 h 4.17614 c 4.15483,0 6.64772,1.619318 6.64772,5.369318 0,3.728693 -2.49289,5.198863 -6.64772,5.198863 z" />
      <path
         id="path38"
         style="font-family:'Inter Black';letter-spacing:0.075em"
         d="m 504.10085,100 2.51421,-8.352273 h 14.40341 L 523.53267,100 h 12.78409 L 521.91335,56.363636 H 505.72017 L 491.31676,100 Z m 5.19887,-17.215909 4.34659,-14.403409 h 0.34091 l 4.34659,14.403409 z" />
      <path
         id="path40"
         style="font-family:'Inter Black';letter-spacing:0.075em"
         d="m 582.71662,56.363636 h -11.84659 v 22.840909 h -0.34091 L 555.01776,56.363636 H 544.96094 V 100 h 11.84659 V 77.073864 h 0.25568 L 572.83026,100 h 9.88636 z" />
      <path
         id="path42"
         style="font-family:'Inter Black';letter-spacing:0.075em"
         d="m 592.82031,100 h 31.36364 V 90.454545 H 604.6669 v -7.5 h 17.98296 V 73.409091 H 604.6669 v -7.5 h 19.60228 v -9.545455 h -31.44887 z" />
      <path
         id="path44"
         style="font-family:'Inter Black';letter-spacing:0.075em"
         d="m 646.03835,100 2.51421,-8.352273 h 14.40341 L 665.47017,100 h 12.78409 L 663.85085,56.363636 H 647.65767 L 633.25426,100 Z m 5.19887,-17.215909 4.34659,-14.403409 h 0.34091 l 4.34659,14.403409 z" />
    </g>
  </g>
</svg>
