<?xml version="1.0" encoding="UTF-8" standalone="no"?>
<svg
   xmlns:dc="http://purl.org/dc/elements/1.1/"
   xmlns:cc="http://creativecommons.org/ns#"
   xmlns:rdf="http://www.w3.org/1999/02/22-rdf-syntax-ns#"
   xmlns:svg="http://www.w3.org/2000/svg"
   xmlns="http://www.w3.org/2000/svg"
   id="svg16"
   width="800px"
   version="1.1"
   height="200px">
  <metadata
     id="metadata20">
    <rdf:RDF>
      <cc:Work
         rdf:about="">
        <dc:format>image/svg+xml</dc:format>
        <dc:type
           rdf:resource="http://purl.org/dc/dcmitype/StillImage" />
      </cc:Work>
    </rdf:RDF>
  </metadata>
  <defs
     id="defs4">
    <style
       id="style2"
       type="text/css"><![CDATA[    
     @font-face {font-family:Inter;
     src: url('/Users/francesco/Repos/write-logos/src/fonts/Fonts_E_TEMPORANEA/Inter-roman.ttf');}
     @font-face {font-family:MCF Alien Delon;
     src: url('/Users/francesco/Repos/write-logos/src/fonts/Fonts_X/AlienDelon.ttf');}
     ]]></style>
  </defs>
  <g
     id="g14"
     style="font-size:60px">
    <g
       style="text-anchor:middle"
       id="text12"
       aria-label="EXTEMPORANEA">
      <path
         id="path22"
         style="font-family:Inter;letter-spacing:0.075em"
         d="M 139.3505,100 V 56.363636 h 26.33522 v 4.6875 h -21.05113 v 14.744319 h 19.6875 v 4.6875 h -19.6875 V 95.3125 h 21.39204 V 100 Z" />
      <path
         id="path24"
         style="font-family:'MCF Alien Delon';letter-spacing:0.05em"
         d="m 179.52578,58.12 30.18,41.88 h -7.38 l -11.58,-16.02 -11.58,16.02 h -7.44 l 15.3,-21.18 -15,-20.7 h 0.84 6.66 v 0 z m 10.26,0 6.12,8.46 6.12,-8.46 h 7.38 l -9.84,13.56 5.52,7.62 h -7.44 l -15.3,-21.18 h 6.72 0.72 v 0 z" />
      <path
         id="path26"
         style="font-family:Inter;letter-spacing:0.075em"
         d="m 216.41726,61.051136 v -4.6875 h 32.72727 v 4.6875 H 235.42294 V 100 h -5.28409 V 61.051136 Z" />
      <path
         id="path28"
         style="font-family:Inter;letter-spacing:0.075em"
         d="M 261.85831,100 V 56.363636 h 26.33523 v 4.6875 H 267.1424 v 14.744319 h 19.6875 v 4.6875 H 267.1424 V 95.3125 h 21.39205 V 100 Z" />
      <path
         id="path30"
         style="font-family:Inter;letter-spacing:0.075em"
         d="m 302.21768,56.363636 h 6.30682 l 14.82955,36.221591 h 0.51136 l 14.82955,-36.221591 h 6.30682 V 100 h -4.94319 V 66.846591 h -0.42613 L 325.99609,100 h -4.77272 L 307.587,66.846591 h -0.42613 V 100 h -4.94319 z" />
      <path
         id="path32"
         style="font-family:Inter;letter-spacing:0.075em"
         d="M 360.038,100 V 56.363636 h 14.74432 q 5.13494,0 8.39488,1.853694 3.28125,1.832386 4.85796,4.964488 1.5767,3.132102 1.5767,6.988637 0,3.856534 -1.5767,7.009943 -1.5554,3.153409 -4.81534,5.028409 -3.25995,1.853693 -8.35228,1.853693 H 364.29936 V 79.375 h 10.39773 q 3.51562,0 5.6463,-1.214489 2.13069,-1.214488 3.08949,-3.28125 0.98012,-2.088068 0.98012,-4.708806 0,-2.620739 -0.98012,-4.6875 -0.9588,-2.066762 -3.11079,-3.238637 -2.15199,-1.193182 -5.71023,-1.193182 h -9.28977 V 100 Z" />
      <path
         id="path34"
         style="font-family:Inter;letter-spacing:0.075em"
         d="m 439.44212,78.181818 q 0,6.903409 -2.4929,11.931818 -2.4929,5.028409 -6.83949,7.755682 -4.34659,2.727272 -9.92898,2.727272 -5.58238,0 -9.92897,-2.727272 -4.3466,-2.727273 -6.83949,-7.755682 -2.4929,-5.028409 -2.4929,-11.931818 0,-6.903409 2.4929,-11.931818 2.49289,-5.028409 6.83949,-7.755682 4.34659,-2.727273 9.92897,-2.727273 5.58239,0 9.92898,2.727273 4.34659,2.727273 6.83949,7.755682 2.4929,5.028409 2.4929,11.931818 z m -5.11364,0 q 0,-5.667613 -1.89631,-9.566761 -1.875,-3.899148 -5.09233,-5.901989 -3.19602,-2.002841 -7.15909,-2.002841 -3.96307,0 -7.18039,2.002841 -3.19603,2.002841 -5.09233,5.901989 -1.875,3.899148 -1.875,9.566761 0,5.667614 1.875,9.566762 1.8963,3.899147 5.09233,5.901988 3.21732,2.002841 7.18039,2.002841 3.96307,0 7.15909,-2.002841 3.21733,-2.002841 5.09233,-5.901988 1.89631,-3.899148 1.89631,-9.566762 z" />
      <path
         id="path36"
         style="font-family:Inter;letter-spacing:0.075em"
         d="M 452.82706,100 V 56.363636 h 14.74432 q 5.11363,0 8.39488,1.747159 3.28125,1.725853 4.85796,4.751421 1.5767,3.025568 1.5767,6.882102 0,3.856534 -1.5767,6.839489 -1.57671,2.982954 -4.83665,4.6875 -3.25994,1.683238 -8.33096,1.683238 h -11.93182 v -4.772727 h 11.76136 q 3.49432,0 5.625,-1.022727 2.15199,-1.022727 3.1108,-2.897727 0.98011,-1.896307 0.98011,-4.517046 0,-2.620738 -0.98011,-4.580966 -0.98012,-1.960227 -3.13211,-3.025568 -2.15198,-1.086648 -5.68892,-1.086648 h -9.28977 V 100 Z M 473.36683,80.397727 484.10547,100 h -6.13636 L 467.40092,80.397727 Z" />
      <path
         id="path38"
         style="font-family:Inter;letter-spacing:0.075em"
         d="m 497.43714,100 h -5.53977 L 507.9201,56.363636 h 5.45454 L 529.39737,100 H 523.8576 L 510.81783,63.267045 h -0.34091 z m 2.04546,-17.045455 h 22.32954 v 4.6875 H 499.4826 Z" />
      <path
         id="path40"
         style="font-family:Inter;letter-spacing:0.075em"
         d="M 575.29652,56.363636 V 100 h -5.11364 L 546.40447,65.738636 h -0.42613 V 100 h -5.28409 V 56.363636 h 5.11363 l 23.86364,34.346591 h 0.42614 V 56.363636 Z" />
      <path
         id="path42"
         style="font-family:Inter;letter-spacing:0.075em"
         d="M 590.31143,100 V 56.363636 h 26.33523 v 4.6875 h -21.05113 v 14.744319 h 19.6875 v 4.6875 h -19.6875 V 95.3125 h 21.39204 V 100 Z" />
      <path
         id="path44"
         style="font-family:Inter;letter-spacing:0.075em"
         d="m 632.46058,100 h -5.53977 l 16.02273,-43.636364 h 5.45454 L 664.42081,100 h -5.53977 L 645.84126,63.267045 h -0.3409 z m 2.04546,-17.045455 h 22.32954 v 4.6875 h -22.32954 z" />
    </g>
  </g>
</svg>
