<?xml version="1.0" encoding="UTF-8" standalone="no"?>
<svg
   xmlns:dc="http://purl.org/dc/elements/1.1/"
   xmlns:cc="http://creativecommons.org/ns#"
   xmlns:rdf="http://www.w3.org/1999/02/22-rdf-syntax-ns#"
   xmlns:svg="http://www.w3.org/2000/svg"
   xmlns="http://www.w3.org/2000/svg"
   id="svg16"
   width="800px"
   version="1.1"
   height="200px">
  <metadata
     id="metadata20">
    <rdf:RDF>
      <cc:Work
         rdf:about="">
        <dc:format>image/svg+xml</dc:format>
        <dc:type
           rdf:resource="http://purl.org/dc/dcmitype/StillImage" />
      </cc:Work>
    </rdf:RDF>
  </metadata>
  <defs
     id="defs4">
    <style
       id="style2"
       type="text/css"><![CDATA[    
     @font-face {font-family:Inter Black;
     src: url('/Users/francesco/Repos/write-logos/src/fonts/Fonts_E_TEMPORANEA/Inter-Black.otf');}
     @font-face {font-family:Interferencias;
     src: url('/Users/francesco/Repos/write-logos/src/fonts/Fonts_X/Interferencias.otf');}
     ]]></style>
  </defs>
  <g
     id="g14"
     style="font-size:60px">
    <g
       style="text-anchor:middle"
       id="text12"
       aria-label="EXTEMPORANEA">
      <path
         id="path22"
         style="font-family:'Inter Black';letter-spacing:0.075em"
         d="m 128.5,100 h 31.36364 v -9.545455 h -19.51705 v -7.5 h 17.98296 v -9.545454 h -17.98296 v -7.5 h 19.60227 V 56.363636 H 128.5 Z" />
      <path
         id="path24"
         style="font-family:Interferencias;letter-spacing:0.05em"
         d="m 164.37695,58.017578 h 7.06055 l 3.42773,2.138672 q 1.43555,1.582031 3.45704,7.851562 0,1.289063 0.64453,1.494141 0.67382,-0.498047 2.63672,-8.847656 0,-0.761719 -1.64063,-1.992188 v -0.146484 q 0.17578,-0.498047 0.99609,-0.498047 h 5.56641 q 3.42773,1.435547 3.42773,3.457031 -4.10156,14.619141 -4.57031,17.197266 1.99219,7.236328 3.92578,7.236328 3.07618,0.878906 3.28125,1.142578 v 0.322266 q -0.0879,0.498047 -2.28515,1.142578 -0.49805,1.259766 -0.49805,1.816406 v 0.146485 q 2.95898,8.876953 2.95898,9.345703 L 192.41406,100 h -5.88867 q -2.08008,0 -3.10547,-4.277344 -1.99219,-5.332031 -1.99219,-6.064453 0.67383,-1.171875 0.67383,-1.464844 l -0.32226,-0.175781 q -1.25977,0 -1.49414,1.816406 -0.82032,0 -1.96289,6.240235 Q 177.58984,100 177.00391,100 h -6.06446 q -1.78711,-0.527344 -1.78711,-0.996094 v -0.46875 q 1.99219,-8.408203 2.78321,-9.345703 1.40625,-1.113281 4.57031,-1.816406 l 0.17578,-0.322266 q -0.49805,-0.380859 -2.46094,-0.820312 -1.46484,-1.201172 -1.46484,-1.816407 1.28906,-4.921875 1.46484,-6.5625 -3.10547,-8.378906 -4.42383,-11.308593 0,-1.201172 -2.28515,-5.566407 0,-0.908203 -2.8125,-1.816406 l -0.64453,-0.820312 q 0.0586,-0.322266 0.32226,-0.322266 z" />
      <path
         id="path26"
         style="font-family:'Inter Black';letter-spacing:0.075em"
         d="m 197.73651,65.909091 h 13.125 V 100 h 11.67613 V 65.909091 h 13.125 v -9.545455 h -37.92613 z" />
      <path
         id="path28"
         style="font-family:'Inter Black';letter-spacing:0.075em"
         d="m 244.5625,100 h 31.36364 v -9.545455 h -19.51705 v -7.5 h 17.98296 v -9.545454 h -17.98296 v -7.5 h 19.60227 V 56.363636 H 244.5625 Z" />
      <path
         id="path30"
         style="font-family:'Inter Black';letter-spacing:0.075em"
         d="M 286.44531,56.363636 V 100 h 11.59091 V 74.602273 h 0.34091 l 9.71591,25.056818 h 6.98864 l 9.71591,-24.886364 h 0.3409 V 100 H 336.7294 V 56.363636 h -14.74431 l -10.14205,24.715909 h -0.51136 L 301.18963,56.363636 Z" />
      <path
         id="path32"
         style="font-family:'Inter Black';letter-spacing:0.075em"
         d="m 346.84375,100 h 11.84659 V 87.045455 h 6.5625 c 9.95028,0 16.61932,-5.859375 16.61932,-15.255682 0,-9.289773 -6.49858,-15.426137 -16.19318,-15.426137 H 346.84375 Z M 358.69034,77.840909 V 65.823864 h 4.17614 c 4.15483,0 6.64772,2.215909 6.64772,5.965909 0,3.728693 -2.49289,6.051136 -6.64772,6.051136 z" />
      <path
         id="path34"
         style="font-family:'Inter Black';letter-spacing:0.075em"
         d="m 432.99148,78.181818 c 0,-14.573863 -9.375,-22.414773 -21.22159,-22.414773 -11.93182,0 -21.22159,7.84091 -21.22159,22.414773 0,14.488637 9.28977,22.414772 21.22159,22.414772 11.84659,0 21.22159,-7.840908 21.22159,-22.414772 z m -12.1875,0 c 0,7.840909 -3.15341,12.102273 -9.03409,12.102273 -5.88069,0 -9.03409,-4.261364 -9.03409,-12.102273 0,-7.840909 3.1534,-12.102273 9.03409,-12.102273 5.88068,0 9.03409,4.261364 9.03409,12.102273 z" />
      <path
         id="path36"
         style="font-family:'Inter Black';letter-spacing:0.075em"
         d="m 442.91406,100 h 11.84659 V 85.596591 h 4.09091 L 466.52202,100 h 12.86932 L 470.5277,83.721591 c 4.64489,-2.237216 7.41477,-6.477273 7.41477,-12.528409 0,-9.289773 -6.49858,-14.829546 -16.19318,-14.829546 H 442.91406 Z M 454.76065,76.392045 V 65.823864 h 4.17614 c 4.15483,0 6.64773,1.619318 6.64773,5.369318 0,3.728693 -2.4929,5.198863 -6.64773,5.198863 z" />
      <path
         id="path38"
         style="font-family:'Inter Black';letter-spacing:0.075em"
         d="m 498.82741,100 2.51421,-8.352273 h 14.40341 L 518.25923,100 h 12.78409 L 516.63991,56.363636 H 500.44673 L 486.04332,100 Z m 5.19887,-17.215909 4.34659,-14.403409 h 0.34091 l 4.34659,14.403409 z" />
      <path
         id="path40"
         style="font-family:'Inter Black';letter-spacing:0.075em"
         d="m 577.44318,56.363636 h -11.84659 v 22.840909 h -0.34091 L 549.74432,56.363636 H 539.6875 V 100 h 11.84659 V 77.073864 h 0.25568 L 567.55682,100 h 9.88636 z" />
      <path
         id="path42"
         style="font-family:'Inter Black';letter-spacing:0.075em"
         d="m 587.54687,100 h 31.36364 v -9.545455 h -19.51704 v -7.5 h 17.98295 v -9.545454 h -17.98295 v -7.5 h 19.60227 v -9.545455 h -31.44887 z" />
      <path
         id="path44"
         style="font-family:'Inter Black';letter-spacing:0.075em"
         d="m 640.76491,100 2.51421,-8.352273 h 14.40341 L 660.19673,100 h 12.78409 L 658.57741,56.363636 H 642.38423 L 627.98082,100 Z m 5.19887,-17.215909 4.34659,-14.403409 h 0.34091 l 4.34659,14.403409 z" />
    </g>
  </g>
</svg>
