<?xml version="1.0" encoding="UTF-8" standalone="no"?>
<svg
   xmlns:dc="http://purl.org/dc/elements/1.1/"
   xmlns:cc="http://creativecommons.org/ns#"
   xmlns:rdf="http://www.w3.org/1999/02/22-rdf-syntax-ns#"
   xmlns:svg="http://www.w3.org/2000/svg"
   xmlns="http://www.w3.org/2000/svg"
   id="svg16"
   width="800px"
   version="1.1"
   height="200px">
  <metadata
     id="metadata20">
    <rdf:RDF>
      <cc:Work
         rdf:about="">
        <dc:format>image/svg+xml</dc:format>
        <dc:type
           rdf:resource="http://purl.org/dc/dcmitype/StillImage" />
      </cc:Work>
    </rdf:RDF>
  </metadata>
  <defs
     id="defs4">
    <style
       id="style2"
       type="text/css"><![CDATA[    
     @font-face {font-family:Inter Black;
     src: url('/Users/francesco/Repos/write-logos/src/fonts/Fonts_E_TEMPORANEA/Inter-Black.otf');}
     @font-face {font-family:PWChalk;
     src: url('/Users/francesco/Repos/write-logos/src/fonts/Fonts_X/PWChalk.ttf');}
     ]]></style>
  </defs>
  <g
     id="g14"
     style="font-size:60px">
    <g
       style="text-anchor:middle"
       id="text12"
       aria-label="EXTEMPORANEA">
      <path
         id="path22"
         style="font-family:'Inter Black';letter-spacing:0.075em"
         d="m 120.23828,100 h 31.36364 v -9.545455 h -19.51705 v -7.5 h 17.98296 v -9.545454 h -17.98296 v -7.5 h 19.60227 v -9.545455 h -31.44886 z" />
      <path
         id="path24"
         style="font-family:PWChalk;letter-spacing:0.05em"
         d="m 166.74859,69.1 1.74,1.98 -0.84,-1.08 -2.58,-4.02 -1.26,-1.86 0.42,0.96 1.92,3.18 z m 12.42,18.66 0.3,0.54 2.16,3.3 1.62,2.58 -0.66,0.36 0.48,0.66 1.62,1.68 0.9,0.72 0.06,0.12 -0.12,-0.84 -1.38,-2.22 -1.26,-2.16 -0.42,-0.6 -2.28,-2.88 z m -6.54,-8.4 -0.12,0.12 0.12,0.18 0.66,1.02 0.18,-0.24 z m 8.4,8.34 -0.9,-1.38 -0.48,-0.6 1.08,1.56 0.84,1.32 z m -17.76,3.24 V 91 Z m 8.1,-4.62 2.4,-3.24 -0.24,-0.3 -0.3,0.42 z m 13.92,-18.6 2.76,-3.72 -1.5,1.56 -3.6,4.44 z m -9.72,15.96 -0.12,0.24 0.3,0.42 2.88,4.44 -2.16,-3.66 z m -1.02,-1.62 -0.24,-0.42 -0.18,0.24 0.24,0.42 z m 3.24,-4.02 -0.48,-0.6 -0.48,0.72 0.42,0.6 z m -7.62,-9.3 0.3,0.54 2.76,4.2 v 0.06 l 0.9,1.14 0.48,-0.6 -0.96,-1.2 -2.7,-3.18 z m 6.3,6.06 0.66,0.84 3.18,-4.56 3.84,-5.16 3,-4.02 -2.58,2.64 -4.32,4.5 0.66,0.6 z m 1.5,1.86 0.42,0.6 0.6,-0.72 0.6,-0.72 1.5,-2.22 1.32,-1.8 -0.9,0.9 z m -2.16,-1.14 -0.54,0.6 0.24,0.3 0.54,0.72 0.24,-0.3 0.3,-0.42 -0.12,-0.12 z m -14.58,20.88 -0.84,-0.36 0.06,-0.24 -0.18,0.3 -0.42,1.26 -0.06,0.6 -0.96,-0.12 0.06,-0.72 0.54,-1.38 1.5,-2.76 2.22,-3.72 3.3,-5.04 4.2,-5.34 0.24,-0.3 -2.16,-3.48 -0.84,-1.38 -2.22,-2.7 -2.34,-3 -1.5,-2.1 0.72,-0.66 0.78,0.54 0.3,0.24 -0.06,-0.12 -0.18,-0.36 -0.24,-0.42 -1.86,-2.82 -1.02,-1.98 0.54,-0.3 -0.06,-0.06 0.54,-0.3 -0.3,-0.66 0.78,-0.6 0.72,0.6 1.32,1.62 v -0.06 l -0.48,-0.84 0.84,-0.54 0.06,0.18 0.9,-0.24 0.24,0.9 1.08,2.22 0.36,0.66 2.1,2.82 2.76,3.36 2.7,3.18 0.9,1.02 4.26,-4.86 4.32,-4.62 3.66,-3.66 2.4,-2.16 1.08,-0.9 0.72,0.66 -1.2,1.44 -2.34,2.94 -1.2,1.62 1.98,-2.1 1.8,-1.68 0.9,-0.66 0.66,0.72 -0.96,1.44 -2.46,3 -1.38,1.86 0.18,0.24 0.78,-0.84 1.62,-1.74 1.08,-1.2 2.7,-2.76 0.84,-0.84 0.72,0.6 -0.9,1.02 -2.16,2.22 -1.56,1.62 -2.4,2.7 -4.14,4.62 -3.18,3.6 -1.86,2.7 0.48,0.66 2.52,3.3 2.58,3.3 2.16,3.3 1.98,3.12 1.62,2.52 1.2,1.68 0.48,0.78 -0.84,0.48 -0.48,-0.78 -1.2,-1.68 -1.62,-2.52 -1.98,-3.12 -2.16,-3.18 -2.46,-3.3 -2.52,-3.3 -0.36,-0.42 -0.54,0.78 0.6,0.84 3.12,4.02 2.52,3.84 2.58,3.36 0.48,0.78 0.84,1.02 0.9,1.74 1.32,2.1 0.96,1.32 -0.84,0.6 -0.96,-1.44 -1.02,-1.56 -0.78,-0.78 -1.62,-1.86 -0.3,-0.36 0.6,1.38 -0.6,0.72 0.6,1.02 -0.12,1.8 -1.14,0.12 -1.14,-0.96 -1.74,-1.8 -2.1,-2.82 -2.46,-3.72 -2.88,-4.44 -1.5,2.34 -2.82,4.62 -1.92,3.06 -0.66,0.54 -0.66,-0.66 0.42,-0.54 1.2,-2.34 2.16,-3.54 0.6,-0.96 -1.14,1.5 -3.66,5.4 -2.58,4.14 -0.84,1.44 -0.54,1.02 -0.12,-0.06 -0.36,0.54 -0.54,1.08 -0.84,-0.36 0.54,-1.2 1.38,-2.22 0.78,-1.5 2.58,-4.68 1.14,-1.98 -0.9,1.38 -2.34,4.32 -1.5,2.64 -0.84,-0.48 1.5,-2.64 2.34,-4.32 3.78,-5.82 3.12,-4.02 -0.84,-1.26 -1.44,1.74 -3.78,5.1 -2.52,4.32 -1.8,2.58 -0.72,1.56 z" />
      <path
         id="path26"
         style="font-family:'Inter Black';letter-spacing:0.075em"
         d="m 205.99822,65.909091 h 13.125 V 100 h 11.67614 V 65.909091 h 13.125 v -9.545455 h -37.92614 z" />
      <path
         id="path28"
         style="font-family:'Inter Black';letter-spacing:0.075em"
         d="m 252.82422,100 h 31.36364 v -9.545455 h -19.51705 v -7.5 h 17.98295 v -9.545454 h -17.98295 v -7.5 h 19.60227 v -9.545455 h -31.44886 z" />
      <path
         id="path30"
         style="font-family:'Inter Black';letter-spacing:0.075em"
         d="M 294.70703,56.363636 V 100 h 11.59091 V 74.602273 h 0.34091 l 9.71591,25.056818 h 6.98863 l 9.71591,-24.886364 h 0.34091 V 100 h 11.59091 V 56.363636 H 330.2468 l -10.14204,24.715909 h -0.51137 L 309.45135,56.363636 Z" />
      <path
         id="path32"
         style="font-family:'Inter Black';letter-spacing:0.075em"
         d="m 355.10547,100 h 11.84659 V 87.045455 h 6.5625 c 9.95028,0 16.61932,-5.859375 16.61932,-15.255682 0,-9.289773 -6.49858,-15.426137 -16.19318,-15.426137 H 355.10547 Z M 366.95206,77.840909 V 65.823864 h 4.17614 c 4.15483,0 6.64772,2.215909 6.64772,5.965909 0,3.728693 -2.49289,6.051136 -6.64772,6.051136 z" />
      <path
         id="path34"
         style="font-family:'Inter Black';letter-spacing:0.075em"
         d="m 441.2532,78.181818 c 0,-14.573863 -9.375,-22.414773 -21.22159,-22.414773 -11.93182,0 -21.2216,7.84091 -21.2216,22.414773 0,14.488637 9.28978,22.414772 21.2216,22.414772 11.84659,0 21.22159,-7.840908 21.22159,-22.414772 z m -12.1875,0 c 0,7.840909 -3.15341,12.102273 -9.03409,12.102273 -5.88069,0 -9.0341,-4.261364 -9.0341,-12.102273 0,-7.840909 3.15341,-12.102273 9.0341,-12.102273 5.88068,0 9.03409,4.261364 9.03409,12.102273 z" />
      <path
         id="path36"
         style="font-family:'Inter Black';letter-spacing:0.075em"
         d="m 451.17578,100 h 11.84659 V 85.596591 h 4.09091 L 474.78374,100 h 12.86931 l -8.86363,-16.278409 c 4.64488,-2.237216 7.41477,-6.477273 7.41477,-12.528409 0,-9.289773 -6.49858,-14.829546 -16.19318,-14.829546 H 451.17578 Z M 463.02237,76.392045 V 65.823864 h 4.17614 c 4.15483,0 6.64773,1.619318 6.64773,5.369318 0,3.728693 -2.4929,5.198863 -6.64773,5.198863 z" />
      <path
         id="path38"
         style="font-family:'Inter Black';letter-spacing:0.075em"
         d="m 507.08913,100 2.51421,-8.352273 h 14.40341 L 526.52095,100 h 12.78409 L 524.90163,56.363636 H 508.70845 L 494.30504,100 Z m 5.19887,-17.215909 4.34659,-14.403409 h 0.34091 l 4.34659,14.403409 z" />
      <path
         id="path40"
         style="font-family:'Inter Black';letter-spacing:0.075em"
         d="M 585.7049,56.363636 H 573.85831 V 79.204545 H 573.5174 L 558.00604,56.363636 H 547.94922 V 100 h 11.84659 V 77.073864 h 0.25568 L 575.81854,100 h 9.88636 z" />
      <path
         id="path42"
         style="font-family:'Inter Black';letter-spacing:0.075em"
         d="m 595.80859,100 h 31.36364 v -9.545455 h -19.51705 v -7.5 h 17.98296 v -9.545454 h -17.98296 v -7.5 h 19.60228 v -9.545455 h -31.44887 z" />
      <path
         id="path44"
         style="font-family:'Inter Black';letter-spacing:0.075em"
         d="m 649.02663,100 2.51421,-8.352273 h 14.40341 L 668.45845,100 h 12.78409 L 666.83913,56.363636 H 650.64595 L 636.24254,100 Z m 5.19887,-17.215909 4.34659,-14.403409 h 0.34091 l 4.34659,14.403409 z" />
    </g>
  </g>
</svg>
