<?xml version="1.0" encoding="UTF-8" standalone="no"?>
<svg
   xmlns:dc="http://purl.org/dc/elements/1.1/"
   xmlns:cc="http://creativecommons.org/ns#"
   xmlns:rdf="http://www.w3.org/1999/02/22-rdf-syntax-ns#"
   xmlns:svg="http://www.w3.org/2000/svg"
   xmlns="http://www.w3.org/2000/svg"
   id="svg16"
   width="800px"
   version="1.1"
   height="200px">
  <metadata
     id="metadata20">
    <rdf:RDF>
      <cc:Work
         rdf:about="">
        <dc:format>image/svg+xml</dc:format>
        <dc:type
           rdf:resource="http://purl.org/dc/dcmitype/StillImage" />
      </cc:Work>
    </rdf:RDF>
  </metadata>
  <defs
     id="defs4">
    <style
       id="style2"
       type="text/css"><![CDATA[    
     @font-face {font-family:Inter Black;
     src: url('/Users/francesco/Repos/write-logos/src/fonts/Fonts_E_TEMPORANEA/Inter-Black.otf');}
     @font-face {font-family:Monoton;
     src: url('/Users/francesco/Repos/write-logos/src/fonts/Fonts_X/Monoton-Regular.ttf');}
     ]]></style>
  </defs>
  <g
     id="g14"
     style="font-size:60px">
    <g
       style="text-anchor:middle"
       id="text12"
       aria-label="EXTEMPORANEA">
      <path
         id="path22"
         style="font-family:'Inter Black';letter-spacing:0.075em"
         d="m 114.96484,100 h 31.36364 v -9.545455 h -19.51705 v -7.5 h 17.98296 v -9.545454 h -17.98296 v -7.5 h 19.60228 v -9.545455 h -31.44887 z" />
      <path
         id="path24"
         style="font-family:Monoton;letter-spacing:0.05em"
         d="m 171.4668,73.779297 -1.25977,1.992187 -15.26367,-24.287109 h 2.49023 z m 10.40039,15.849609 1.23047,-1.992187 L 190.89062,100 h -2.49023 z m -7.91016,-19.77539 -1.25976,1.96289 -12.77344,-20.332031 h 2.46094 z m 10.40039,15.820312 1.23047,-1.992187 L 195.87109,100 h -2.49023 z m -7.91015,-19.804687 -1.23047,1.96289 -10.3125,-16.347656 h 2.49023 z m 10.42968,15.820312 1.23047,-1.992187 L 200.88086,100 h -2.49024 z m -7.93945,-19.775391 -1.23047,1.992188 -7.82226,-12.421875 h 2.49023 z m 10.40039,15.820313 1.23047,-1.992188 L 205.86133,100 h -2.49024 z m 12.56836,-26.25 h 2.49023 L 173.86914,100 h -2.49023 z m -4.95117,0 h 2.46094 L 168.88867,100 h -2.49023 z m -5.00977,0 h 2.49024 L 163.87891,100 h -2.49024 z m -4.98047,0 h 2.49024 L 158.89844,100 h -2.49024 z" />
      <path
         id="path26"
         style="font-family:'Inter Black';letter-spacing:0.075em"
         d="m 211.27166,65.909091 h 13.125 V 100 H 236.0728 V 65.909091 h 13.125 v -9.545455 h -37.92614 z" />
      <path
         id="path28"
         style="font-family:'Inter Black';letter-spacing:0.075em"
         d="m 258.09766,100 h 31.36363 v -9.545455 h -19.51704 v -7.5 h 17.98295 v -9.545454 h -17.98295 v -7.5 h 19.60227 v -9.545455 h -31.44886 z" />
      <path
         id="path30"
         style="font-family:'Inter Black';letter-spacing:0.075em"
         d="M 299.98047,56.363636 V 100 h 11.59091 V 74.602273 h 0.34091 l 9.71591,25.056818 h 6.98863 l 9.71591,-24.886364 h 0.34091 V 100 h 11.59091 V 56.363636 H 335.52024 L 325.3782,81.079545 h -0.51137 L 314.72479,56.363636 Z" />
      <path
         id="path32"
         style="font-family:'Inter Black';letter-spacing:0.075em"
         d="M 360.37891,100 H 372.2255 V 87.045455 h 6.5625 c 9.95028,0 16.61932,-5.859375 16.61932,-15.255682 0,-9.289773 -6.49858,-15.426137 -16.19319,-15.426137 H 360.37891 Z M 372.2255,77.840909 V 65.823864 h 4.17613 c 4.15483,0 6.64773,2.215909 6.64773,5.965909 0,3.728693 -2.4929,6.051136 -6.64773,6.051136 z" />
      <path
         id="path34"
         style="font-family:'Inter Black';letter-spacing:0.075em"
         d="m 446.52663,78.181818 c 0,-14.573863 -9.375,-22.414773 -21.22159,-22.414773 -11.93182,0 -21.22159,7.84091 -21.22159,22.414773 0,14.488637 9.28977,22.414772 21.22159,22.414772 11.84659,0 21.22159,-7.840908 21.22159,-22.414772 z m -12.1875,0 c 0,7.840909 -3.15341,12.102273 -9.03409,12.102273 -5.88068,0 -9.03409,-4.261364 -9.03409,-12.102273 0,-7.840909 3.15341,-12.102273 9.03409,-12.102273 5.88068,0 9.03409,4.261364 9.03409,12.102273 z" />
      <path
         id="path36"
         style="font-family:'Inter Black';letter-spacing:0.075em"
         d="m 456.44922,100 h 11.84659 V 85.596591 h 4.09091 L 480.05717,100 h 12.86932 l -8.86363,-16.278409 c 4.64488,-2.237216 7.41477,-6.477273 7.41477,-12.528409 0,-9.289773 -6.49858,-14.829546 -16.19318,-14.829546 H 456.44922 Z M 468.29581,76.392045 V 65.823864 h 4.17614 c 4.15483,0 6.64772,1.619318 6.64772,5.369318 0,3.728693 -2.49289,5.198863 -6.64772,5.198863 z" />
      <path
         id="path38"
         style="font-family:'Inter Black';letter-spacing:0.075em"
         d="m 512.36257,100 2.51421,-8.352273 h 14.4034 L 531.79439,100 h 12.78409 L 530.17507,56.363636 H 513.98189 L 499.57848,100 Z m 5.19886,-17.215909 4.3466,-14.403409 h 0.3409 l 4.3466,14.403409 z" />
      <path
         id="path40"
         style="font-family:'Inter Black';letter-spacing:0.075em"
         d="m 590.97834,56.363636 h -11.84659 v 22.840909 h -0.34091 L 563.27947,56.363636 H 553.22266 V 100 h 11.84659 V 77.073864 h 0.25568 L 581.09197,100 h 9.88637 z" />
      <path
         id="path42"
         style="font-family:'Inter Black';letter-spacing:0.075em"
         d="m 601.08203,100 h 31.36364 v -9.545455 h -19.51705 v -7.5 h 17.98296 v -9.545454 h -17.98296 v -7.5 h 19.60227 v -9.545455 h -31.44886 z" />
      <path
         id="path44"
         style="font-family:'Inter Black';letter-spacing:0.075em"
         d="m 654.30007,100 2.51421,-8.352273 h 14.4034 L 673.73189,100 h 12.78409 L 672.11257,56.363636 H 655.91939 L 641.51598,100 Z m 5.19886,-17.215909 4.3466,-14.403409 h 0.3409 l 4.3466,14.403409 z" />
    </g>
  </g>
</svg>
