<?xml version="1.0" encoding="UTF-8" standalone="no"?>
<svg
   xmlns:dc="http://purl.org/dc/elements/1.1/"
   xmlns:cc="http://creativecommons.org/ns#"
   xmlns:rdf="http://www.w3.org/1999/02/22-rdf-syntax-ns#"
   xmlns:svg="http://www.w3.org/2000/svg"
   xmlns="http://www.w3.org/2000/svg"
   id="svg10"
   width="500px"
   version="1.1"
   height="200px">
  <metadata
     id="metadata14">
    <rdf:RDF>
      <cc:Work
         rdf:about="">
        <dc:format>image/svg+xml</dc:format>
        <dc:type
           rdf:resource="http://purl.org/dc/dcmitype/StillImage" />
      </cc:Work>
    </rdf:RDF>
  </metadata>
  <defs
     id="defs4">
    <style
       id="style2"
       type="text/css"><![CDATA[    
     @font-face {font-family:Kingthings Chimaera;
     src: url('/Users/francesco/Repos/write-logos/src/fonts//Kingthings_Chimaera.ttf');}]]></style>
  </defs>
  <g
     id="g8"
     style="font-size:30px;font-family:'Kingthings Chimaera'">
    <g
       style=""
       id="text6"
       aria-label="eXtemporanea">
      <path
         id="path16"
         style=""
         d="m 113.53516,98.212891 q -3.39844,2.490239 -7.11914,1.831059 -3.72071,-0.659184 -5.12696,-3.647466 -1.391599,-3.002929 -0.20508,-6.503906 1.18653,-3.515625 5.12696,-4.526367 3.94043,-1.025391 6.31347,0.805664 1.77247,-1.59668 0.32227,-4.49707 l 0.32227,-0.175782 q 1.65527,3.310547 0.17578,5.258789 l -2.18262,2.548829 q -1.46484,-1.215821 -3.89648,-0.747071 -2.417,0.46875 -2.68067,2.182617 l 4.84863,-0.01465 -0.0439,3.500977 h -4.84863 q 0.4541,1.640625 2.7539,2.285156 2.31446,0.629883 4.43848,-0.908203 z m -1.68457,-7.96875 q -2.16797,-0.07324 -2.16797,2.15332 0.0147,2.211914 2.15332,2.211914 2.15332,-0.01465 2.16797,-2.15332 0.0293,-2.138672 -2.15332,-2.211914 z" />
      <path
         id="path18"
         style=""
         d="m 122.00195,85.791016 -3.17871,-6.298829 -4.24804,0.01465 4.93652,9.624023 -5.00977,10.898441 h 4.49707 l 2.98828,-7.368167 3.06153,7.324219 h 4.59961 l -5.18555,-10.942383 4.42383,-9.550782 h -4.08692 z m -5.625,3.017578 q -0.0293,-0.952149 1.34766,-0.952149 1.37695,0.01465 1.37695,1.347657 0,1.333007 -1.33301,1.347656 -1.333,0.01465 -1.34765,-0.9375 l -5.02442,-0.410156 z m 11.35254,0.74707 q 0.0293,0.952148 -1.34765,0.952148 -1.37696,-0.01465 -1.37696,-1.347656 0,-1.333008 1.33301,-1.347656 1.33301,-0.01465 1.34766,0.9375 l 5.02441,0.410156 z" />
      <path
         id="path20"
         style=""
         d="m 132.68066,78.818359 v 6.547852 h -2.41699 l -0.0146,3.837891 h 2.25586 v 5.24414 q -0.0147,3.764649 2.49024,4.951172 2.51953,1.186526 4.76074,0.454102 2.25586,-0.732422 3.7207,-2.475586 L 141.25,94.65332 q -1.88965,1.684571 -3.42773,1.303711 -1.52344,-0.380859 -1.64063,-2.270508 l 0.0147,-4.423828 h 4.21875 q 0.4834,1.728516 2.97363,3.442383 l 0.0147,-0.234375 q -1.75781,-1.59668 -1.80176,-3.325195 v -1.860352 l 0.0146,-1.992187 h -5.28809 l 0.0146,-6.459961 z m 6.22559,11.381836 q -2.16797,-0.07324 -2.16797,2.153321 0.0146,2.211914 2.15332,2.211914 2.15332,-0.01465 2.16797,-2.153321 0.0293,-2.138672 -2.15332,-2.211914 z" />
      <path
         id="path22"
         style=""
         d="m 156.60156,98.212891 q -3.39844,2.490239 -7.11914,1.831059 -3.7207,-0.659184 -5.12695,-3.647466 -1.3916,-3.002929 -0.20508,-6.503906 1.18652,-3.515625 5.12695,-4.526367 3.94043,-1.025391 6.31348,0.805664 1.77246,-1.59668 0.32227,-4.49707 l 0.32226,-0.175782 q 1.65527,3.310547 0.17578,5.258789 l -2.18261,2.548829 q -1.46485,-1.215821 -3.89649,-0.747071 -2.41699,0.46875 -2.68066,2.182617 l 4.84863,-0.01465 -0.0439,3.500977 h -4.84863 q 0.4541,1.640625 2.75391,2.285156 2.31445,0.629883 4.43847,-0.908203 z m -1.68457,-7.96875 q -2.16797,-0.07324 -2.16797,2.15332 0.0146,2.211914 2.15332,2.211914 2.15332,-0.01465 2.16797,-2.15332 0.0293,-2.138672 -2.15332,-2.211914 z" />
      <path
         id="path24"
         style=""
         d="m 158.46191,85.292969 -0.0146,1.362304 0.0439,13.344727 3.98438,0.0293 0.0146,-9.697269 q 0.19043,-1.582031 2.13868,-1.567383 1.94824,0.01465 2.31445,1.538086 l 0.0146,9.711916 3.88183,-0.0147 -0.0146,-9.741211 q 0.35156,-1.655273 2.19726,-1.655273 1.86035,0 2.19727,1.508789 L 175.20508,100 h 3.80859 v -9.858398 q -0.29297,-4.13086 -3.7207,-4.731446 -3.42774,-0.615234 -5.81543,1.59668 -1.01074,-1.655274 -3.35449,-1.728516 -2.3291,-0.08789 -3.64746,1.230469 v -1.21582 z m 5.74219,14.721681 q -1.21582,0.0293 -1.21582,-1.728517 0.0146,-1.757813 1.71387,-1.757813 1.69922,0 1.72851,1.699219 0.0147,1.699219 -1.20117,1.728516 l -0.51269,6.416015 z m 8.34961,0 q -1.21582,0.0293 -1.21582,-1.728517 0.0147,-1.757813 1.71387,-1.757813 1.69922,0 1.72851,1.699219 0.0146,1.699219 -1.20117,1.728516 l -0.51269,6.416015 z" />
      <path
         id="path26"
         style=""
         d="M 180.61035,105.94727 V 86.201172 84.868164 h 3.8086 l -0.0146,1.230469 q 0.9375,-1.40625 4.46777,-1.083985 3.54492,0.322266 4.96582,3.515625 1.4209,3.178711 0.16113,6.914063 -1.24511,3.735351 -4.36523,4.379883 -3.12012,0.644531 -5.1709,-0.615235 l -0.0146,6.767576 z m 3.92578,-10.312504 q 2.27051,1.274414 4.14551,0.615234 1.875,-0.673828 2.13867,-2.387695 0.26367,-1.713868 -0.27832,-3.105469 -0.52734,-1.40625 -2.43164,-1.918945 -1.88965,-0.512696 -3.57422,1.02539 z m 0.33692,-3.076172 2.73925,2.724609 2.65137,-2.680664 -2.70996,-2.709961 z" />
      <path
         id="path28"
         style=""
         d="m 200.83984,85.322266 q -4.39453,0.175781 -5.083,5.507812 -0.68848,5.332031 1.55273,7.382813 2.25586,2.036129 5.08301,2.006839 2.84179,-0.0147 5.18554,-2.065433 2.34375,-2.06543 1.68458,-7.382813 -0.65918,-5.332031 -5.49317,-5.463867 -1.52344,1.801758 -2.92969,0.01465 z m 1.49414,3.266601 q 3.17872,-0.05859 3.33985,3.764649 0.16113,3.808593 -3.20801,3.925781 -3.36914,0.102539 -3.33984,-3.764649 0.0293,-3.867187 3.208,-3.925781 z m 0.0293,1.611328 q -2.16797,-0.07324 -2.16797,2.153321 0.0146,2.211914 2.15332,2.211914 2.15332,-0.01465 2.16797,-2.153321 0.0293,-2.138672 -2.15332,-2.211914 z m -0.4834,-7.060547 q -0.9082,-0.01465 -0.9082,1.289063 0.0147,1.318359 1.27441,1.318359 1.27442,0 1.28907,-1.259765 0.0146,-1.289063 -0.89356,-1.303711 l -0.38086,-9.697266 z" />
      <path
         id="path30"
         style=""
         d="m 217.23145,89.057617 q 0.95214,-0.0293 0.95214,1.347656 -0.0146,1.376954 -1.34765,1.376954 -1.33301,0 -1.34766,-1.333008 -0.0146,-1.333008 0.9375,-1.347657 l 0.41016,-13.374023 z m -0.74708,11.015623 q -0.95214,0.0293 -0.95214,-1.347654 0.0146,-1.376953 1.34765,-1.376953 1.33301,0 1.34766,1.333008 0.0146,1.333009 -0.9375,1.347659 l -0.41016,5.02441 z m -5.5371,-14.736326 0.0146,14.663086 3.95508,0.0293 v -3.837894 q 1.80176,-0.263672 3.2959,0.791016 1.49414,1.054687 4.30664,4.584958 4.14551,4.2627 6.82617,3.67676 2.69532,-0.58594 4.18946,-2.8418 -2.98829,0.64454 -4.57032,-0.26367 -1.56738,-0.9082 -3.58886,-3.07617 -3.7793,-4.321289 -4.80469,-4.526367 1.55273,-0.336914 2.28516,-1.582031 1.77246,-3.574219 -0.27833,-6.035157 -2.03613,-2.475586 -5.1123,-1.596679 l 0.4541,2.915039 q 1.9336,0.307617 1.83106,2.607422 -0.10254,2.285156 -4.96582,1.68457 l -0.0146,-4.174805 0.99609,-0.01465 0.30762,-2.988282 z" />
      <path
         id="path32"
         style=""
         d="m 226.5332,86.933594 2.06543,1.083984 -0.86426,2.241211 q 2.53418,-1.464844 5.09766,-1.362305 2.56348,0.08789 2.08008,2.431641 -3.23731,-1.479492 -6.1377,-0.46875 -2.88574,0.996094 -3.22265,3.588867 -0.33692,2.592774 0.84961,4.116211 1.18652,1.508787 4.36523,1.582027 3.19336,0.0879 4.02832,-1.127925 l 0.16113,1.040035 4.07227,-0.0146 q -0.38086,-0.893559 -0.38086,-1.772466 l 0.0586,-8.671875 q -0.19043,-2.065429 -1.91894,-3.36914 -1.71387,-1.31836 -4.55566,-1.113282 -2.82715,0.205079 -5.69825,1.816407 z m 3.2666,6.752929 q 1.4209,-0.908203 5.03907,0.498047 v 1.494141 q -1.53809,1.68457 -3.58887,1.464844 -2.03613,-0.219727 -2.44629,-1.376953 -0.41016,-1.171875 0.99609,-2.080079 z m -4.70214,-4.526367 2.08007,1.069336 1.04004,-2.050781 -2.05078,-1.054688 z m 6.54785,4.643555 q -1.43555,-0.05859 -1.43555,1.40625 0.0147,1.464844 1.4209,1.464844 1.4209,-0.01465 1.43555,-1.420899 0.0146,-1.40625 -1.4209,-1.450195 z" />
      <path
         id="path34"
         style=""
         d="M 240.1123,85.615234 240.12695,100 l 4.02832,0.0293 0.0146,-8.891605 q 0.10254,-1.728515 2.51953,-2.080078 2.43164,-0.351562 3.22266,1.59668 0.79101,1.948242 -0.4541,4.526367 -1.23047,2.563477 -0.46875,6.914066 l 1.78711,-1.62598 1.78711,1.59668 q -0.41016,-4.321289 0.60058,-6.518555 1.01074,-2.197266 0.71778,-4.658203 -0.29297,-2.460938 -1.58204,-3.837891 -1.27441,-1.376953 -3.61816,-1.450195 -2.3291,-0.07324 -4.52637,1.21582 l -0.0146,-1.230469 z m 7.9834,18.017576 2.73926,2.72461 2.65137,-2.68066 -2.70996,-2.70996 z m -3.64746,-11.074216 2.73926,2.724609 2.65137,-2.680664 -2.70996,-2.709961 z" />
      <path
         id="path36"
         style=""
         d="m 267.87109,98.212891 q -3.39843,2.490239 -7.11914,1.831059 -3.7207,-0.659184 -5.12695,-3.647466 -1.3916,-3.002929 -0.20508,-6.503906 1.18653,-3.515625 5.12695,-4.526367 3.94043,-1.025391 6.31348,0.805664 1.77246,-1.59668 0.32227,-4.49707 l 0.32226,-0.175782 q 1.65528,3.310547 0.17578,5.258789 l -2.18261,2.548829 q -1.46485,-1.215821 -3.89649,-0.747071 -2.41699,0.46875 -2.68066,2.182617 l 4.84863,-0.01465 -0.0439,3.500977 h -4.84864 q 0.4541,1.640625 2.75391,2.285156 2.31445,0.629883 4.43848,-0.908203 z m -1.68457,-7.96875 q -2.16797,-0.07324 -2.16797,2.15332 0.0147,2.211914 2.15332,2.211914 2.15333,-0.01465 2.16797,-2.15332 0.0293,-2.138672 -2.15332,-2.211914 z" />
      <path
         id="path38"
         style=""
         d="m 270.41992,86.933594 2.06543,1.083984 -0.86426,2.241211 q 2.53418,-1.464844 5.09766,-1.362305 2.56348,0.08789 2.08008,2.431641 -3.23731,-1.479492 -6.1377,-0.46875 -2.88574,0.996094 -3.22265,3.588867 -0.33692,2.592774 0.84961,4.116211 1.18652,1.508787 4.36523,1.582027 3.19336,0.0879 4.02832,-1.127925 l 0.16113,1.040035 4.07227,-0.0146 q -0.38086,-0.893559 -0.38086,-1.772466 l 0.0586,-8.671875 q -0.19043,-2.065429 -1.91894,-3.36914 -1.71387,-1.31836 -4.55567,-1.113282 -2.82714,0.205079 -5.69824,1.816407 z m 3.2666,6.752929 q 1.4209,-0.908203 5.03907,0.498047 v 1.494141 q -1.53809,1.68457 -3.58887,1.464844 -2.03613,-0.219727 -2.44629,-1.376953 -0.41016,-1.171875 0.99609,-2.080079 z m -4.70215,-4.526367 2.08008,1.069336 1.04004,-2.050781 -2.05078,-1.054688 z m 6.54786,4.643555 q -1.43555,-0.05859 -1.43555,1.40625 0.0147,1.464844 1.4209,1.464844 1.4209,-0.01465 1.43554,-1.420899 0.0146,-1.40625 -1.42089,-1.450195 z" />
    </g>
  </g>
</svg>
