<?xml version="1.0" encoding="UTF-8" standalone="no"?>
<svg
   xmlns:dc="http://purl.org/dc/elements/1.1/"
   xmlns:cc="http://creativecommons.org/ns#"
   xmlns:rdf="http://www.w3.org/1999/02/22-rdf-syntax-ns#"
   xmlns:svg="http://www.w3.org/2000/svg"
   xmlns="http://www.w3.org/2000/svg"
   id="svg16"
   width="800px"
   version="1.1"
   height="200px">
  <metadata
     id="metadata20">
    <rdf:RDF>
      <cc:Work
         rdf:about="">
        <dc:format>image/svg+xml</dc:format>
        <dc:type
           rdf:resource="http://purl.org/dc/dcmitype/StillImage" />
      </cc:Work>
    </rdf:RDF>
  </metadata>
  <defs
     id="defs4">
    <style
       id="style2"
       type="text/css"><![CDATA[    
     @font-face {font-family:Kingthings Chimaera;
     src: url('/Users/francesco/Repos/write-logos/src/fonts/Kingthings_Chimaera.ttf');}
     @font-face {font-family:Mincer BRK;
     src: url('/Users/francesco/Repos/write-logos/src/fonts/mincer.ttf');}
     ]]></style>
  </defs>
  <g
     id="g14"
     style="font-size:60px">
    <g
       style="text-anchor:middle"
       id="text12"
       aria-label="eXtemporanea">
      <path
         id="path22"
         style="font-family:'Kingthings Chimaera'"
         d="m 244.96094,96.425781 q -6.79688,4.980469 -14.23828,3.662109 -7.44141,-1.318359 -10.25391,-7.294921 -2.7832,-6.00586 -0.41016,-13.007813 2.37305,-7.03125 10.25391,-9.052734 7.88086,-2.050781 12.62695,1.611328 3.54492,-3.193359 0.64453,-8.994141 l 0.64454,-0.351562 q 3.31054,6.621094 0.35156,10.517578 l -4.36524,5.097656 q -2.92968,-2.43164 -7.79297,-1.49414 -4.83398,0.9375 -5.36132,4.365234 l 9.69726,-0.0293 -0.0879,7.001953 h -9.69726 q 0.9082,3.28125 5.50781,4.570313 4.6289,1.259765 8.87695,-1.816407 z m -3.36914,-15.9375 q -4.33594,-0.146484 -4.33594,4.306641 0.0293,4.423828 4.30664,4.423828 4.30664,-0.0293 4.33594,-4.306641 0.0586,-4.277343 -4.30664,-4.423828 z" />
      <path
         id="path24"
         style="font-family:'Mincer BRK'"
         d="m 271.69,97.54 -1.98,1.98 -1.98,-1.98 -5.94,3 3.42,-6.9 1.56,-1.56 v -3 q 0,-0.84 -0.18,-1.56 -0.84,-3.3 -3.72,-4.08 l -1.98,1.98 -1.98,-1.98 q -2.34,0.6 -3.36,3.18 -0.24,0.78 -0.54,2.46 v 3 l 1.56,1.56 3.42,6.9 -5.94,-3 -1.98,1.98 -1.98,-1.98 -5.94,3 3.42,-6.9 1.56,-1.56 v -3 q 0,-2.16 0.9,-4.62 0.96,-2.46 2.76,-4.2 -0.9,-0.84 -1.56,-1.92 -0.66,-1.08 -1.14,-2.22 -0.48,-1.2 -0.72,-2.4 -0.24,-1.2 -0.24,-2.28 v -3.06 l -1.56,-1.56 -3.42,-6.84 5.94,2.94 1.98,-1.98 1.98,1.98 5.94,-2.94 -3.42,6.84 -1.56,1.56 v 3.06 q 0.18,1.38 0.48,2.34 0.96,2.64 3.42,3.24 l 1.98,-1.98 1.98,1.98 q 2.34,-0.66 3.36,-3.18 0.24,-0.72 0.54,-2.4 v -3.06 l -1.56,-1.56 -3.42,-6.84 5.94,2.94 1.98,-1.98 1.98,1.98 5.94,-2.94 -3.42,6.84 -1.56,1.56 v 3.06 q 0,2.16 -0.96,4.62 -0.9,2.46 -2.7,4.2 0.9,0.84 1.56,1.92 0.66,1.08 1.14,2.28 0.48,1.14 0.72,2.34 0.24,1.2 0.24,2.28 v 3 l 1.56,1.56 3.42,6.9 z m 1.08,-2.82 -1.86,-1.86 v -3.78 q -0.06,-1.08 -0.18,-1.86 -0.78,-4.38 -3.9,-6.48 l -0.72,-0.48 0.72,-0.48 q 2.58,-1.74 3.54,-5.22 0.3,-1.2 0.54,-3.12 v -3.78 l 1.86,-1.92 0.9,-1.86 -2.28,1.2 -1.68,-1.68 -1.62,1.68 -2.34,-1.2 0.9,1.86 1.86,1.92 v 3.78 q -0.24,2.1 -0.72,3.3 -1.56,3.54 -5.16,4.14 l -0.3,0.06 -1.44,-1.38 -1.44,1.38 -0.3,-0.06 q -3.54,-0.6 -5.1,-4.08 -0.24,-0.6 -0.48,-1.38 -0.18,-0.84 -0.3,-1.98 v -3.78 l 1.86,-1.92 0.9,-1.86 -2.34,1.2 -1.62,-1.68 -1.62,1.68 -2.34,-1.2 0.9,1.86 1.86,1.92 v 3.78 q 0.12,1.02 0.24,1.8 0.12,0.72 0.24,1.32 0.96,3.42 3.6,5.22 l 0.72,0.48 -0.72,0.48 q -2.52,1.74 -3.54,5.16 -0.3,1.26 -0.54,3.18 v 3.78 l -1.86,1.86 -0.9,1.86 2.34,-1.2 1.62,1.68 1.62,-1.68 2.34,1.2 -0.9,-1.86 -1.86,-1.86 v -3.78 q 0.24,-2.1 0.72,-3.3 1.56,-3.6 5.16,-4.2 l 0.3,-0.06 1.44,1.44 1.44,-1.44 0.3,0.06 q 3.54,0.6 5.1,4.14 0.24,0.6 0.42,1.44 0.24,0.78 0.36,1.92 v 3.78 l -1.86,1.86 -0.9,1.86 2.34,-1.2 1.62,1.68 1.68,-1.68 2.28,1.2 z" />
      <path
         id="path26"
         style="font-family:'Kingthings Chimaera'"
         d="m 281.14258,57.636719 v 13.095703 h -4.83399 l -0.0293,7.675781 h 4.51172 v 10.488281 q -0.0293,7.529297 4.98046,9.902344 5.03907,2.373052 9.52149,0.908203 4.51172,-1.464844 7.4414,-4.951172 l -4.45312,-5.449218 q -3.7793,3.36914 -6.85547,2.607421 -3.04687,-0.761718 -3.28125,-4.541015 l 0.0293,-8.847656 h 8.4375 q 0.96679,3.457031 5.94726,6.884765 l 0.0293,-0.46875 q -3.51562,-3.193359 -3.60352,-6.65039 v -3.720704 l 0.0293,-3.984375 H 288.4375 l 0.0293,-12.919921 z m 12.45117,22.763672 q -4.33594,-0.146485 -4.33594,4.30664 0.0293,4.423828 4.30664,4.423828 4.30664,-0.0293 4.33594,-4.30664 0.0586,-4.277344 -4.30664,-4.423828 z" />
      <path
         id="path28"
         style="font-family:'Kingthings Chimaera'"
         d="m 328.98437,96.425781 q -6.79687,4.980469 -14.23828,3.662109 -7.4414,-1.318359 -10.2539,-7.294921 -2.78321,-6.00586 -0.41016,-13.007813 2.37305,-7.03125 10.25391,-9.052734 7.88086,-2.050781 12.62695,1.611328 3.54492,-3.193359 0.64453,-8.994141 l 0.64453,-0.351562 q 3.31055,6.621094 0.35157,10.517578 l -4.36524,5.097656 q -2.92969,-2.43164 -7.79297,-1.49414 -4.83398,0.9375 -5.36133,4.365234 l 9.69727,-0.0293 -0.0879,7.001953 h -9.69727 q 0.90821,3.28125 5.50782,4.570313 4.6289,1.259765 8.87695,-1.816407 z m -3.36914,-15.9375 q -4.33593,-0.146484 -4.33593,4.306641 0.0293,4.423828 4.30664,4.423828 4.30664,-0.0293 4.33593,-4.306641 0.0586,-4.277343 -4.30664,-4.423828 z" />
      <path
         id="path30"
         style="font-family:'Kingthings Chimaera'"
         d="m 332.70508,70.585937 -0.0293,2.72461 0.0879,26.689453 7.96875,0.0586 0.0293,-19.394528 q 0.38086,-3.164062 4.27734,-3.134765 3.89649,0.0293 4.62891,3.076172 l 0.0293,19.423831 7.76367,-0.0293 -0.0293,-19.482422 q 0.70313,-3.310547 4.39453,-3.310547 3.7207,0 4.39453,3.017578 L 366.19141,100 h 7.61718 V 80.283203 q -0.58593,-8.261719 -7.4414,-9.462891 -6.85547,-1.230468 -11.63086,3.19336 -2.02149,-3.310547 -6.70899,-3.457031 -4.6582,-0.175782 -7.29492,2.460937 v -2.431641 z m 11.48437,29.443363 q -2.43164,0.0586 -2.43164,-3.457034 0.0293,-3.515625 3.42774,-3.515625 3.39843,0 3.45703,3.398437 0.0293,3.398438 -2.40235,3.457031 l -1.02539,12.832031 z m 16.69922,0 q -2.43164,0.0586 -2.43164,-3.457034 0.0293,-3.515625 3.42774,-3.515625 3.39843,0 3.45703,3.398437 0.0293,3.398438 -2.40235,3.457031 l -1.02539,12.832031 z" />
      <path
         id="path32"
         style="font-family:'Kingthings Chimaera'"
         d="M 377.00195,111.89453 V 72.402344 69.736328 h 7.61719 l -0.0293,2.460938 q 1.875,-2.8125 8.93555,-2.167969 7.08984,0.644531 9.93164,7.03125 2.8418,6.357422 0.32227,13.828125 -2.49024,7.470703 -8.73047,8.759765 -6.24024,1.289063 -10.3418,-1.230468 l -0.0293,13.535161 z m 7.85157,-20.624999 q 4.54101,2.548828 8.29101,1.230469 3.75,-1.347656 4.27734,-4.775391 0.52735,-3.427734 -0.55664,-6.210937 -1.05468,-2.8125 -4.86328,-3.837891 -3.77929,-1.02539 -7.14843,2.050781 z m 0.67382,-6.152344 5.47852,5.449219 5.30273,-5.361328 -5.41992,-5.419922 z" />
      <path
         id="path34"
         style="font-family:'Kingthings Chimaera'"
         d="m 417.46094,70.644531 q -8.78907,0.351563 -10.16602,11.015625 -1.37695,10.664063 3.10547,14.765625 4.51172,4.072269 10.16602,4.013669 5.68359,-0.0293 10.37109,-4.130856 4.6875,-4.13086 3.36914,-14.765625 -1.31836,-10.664063 -10.98633,-10.927735 -3.04687,3.603516 -5.85937,0.0293 z m 2.98828,6.533203 q 6.35742,-0.117187 6.67969,7.529297 0.32226,7.617188 -6.41602,7.851563 -6.73828,0.205078 -6.67969,-7.529297 0.0586,-7.734375 6.41602,-7.851563 z m 0.0586,3.222657 q -4.33594,-0.146485 -4.33594,4.30664 0.0293,4.423828 4.30665,4.423828 4.30664,-0.0293 4.33593,-4.30664 0.0586,-4.277344 -4.30664,-4.423828 z m -0.96679,-14.121094 q -1.81641,-0.0293 -1.81641,2.578125 0.0293,2.636719 2.54883,2.636719 2.54883,0 2.57812,-2.519532 0.0293,-2.578125 -1.78711,-2.607422 l -0.76172,-19.394531 z" />
      <path
         id="path36"
         style="font-family:'Kingthings Chimaera'"
         d="m 450.24414,78.115234 q 1.9043,-0.05859 1.9043,2.695313 -0.0293,2.753906 -2.69532,2.753906 -2.66601,0 -2.69531,-2.666016 -0.0293,-2.666015 1.875,-2.695312 l 0.82031,-26.748047 z M 448.75,100.14648 q -1.9043,0.0586 -1.9043,-2.695308 0.0293,-2.753906 2.69532,-2.753906 2.66601,0 2.69531,2.666015 0.0293,2.666019 -1.875,2.695309 l -0.82031,10.04883 z M 437.67578,70.673828 437.70508,100 l 7.91015,0.0586 v -7.675778 q 3.60352,-0.527343 6.5918,1.582032 2.98828,2.109375 8.61328,9.169926 8.29102,8.52539 13.65235,7.35351 5.39062,-1.17187 8.3789,-5.68359 -5.97656,1.28906 -9.14062,-0.52735 -3.13477,-1.8164 -7.17774,-6.15234 -7.55859,-8.642578 -9.60937,-9.052734 3.10547,-0.673829 4.57031,-3.164063 3.54492,-7.148437 -0.55664,-12.070312 -4.07227,-4.951172 -10.22461,-3.19336 l 0.9082,5.830078 q 3.86719,0.615235 3.66211,5.214844 -0.20508,4.570313 -9.93164,3.369141 l -0.0293,-8.34961 1.99218,-0.0293 0.61524,-5.976562 z" />
      <path
         id="path38"
         style="font-family:'Kingthings Chimaera'"
         d="m 468.84766,73.867187 4.13086,2.167969 -1.72852,4.482422 q 5.06836,-2.929687 10.19531,-2.724609 5.12696,0.175781 4.16016,4.863281 -6.47461,-2.958984 -12.27539,-0.9375 -5.77149,1.992187 -6.44531,7.177734 -0.67383,5.185547 1.69921,8.232422 2.37305,3.017574 8.73047,3.164064 6.38672,0.17578 8.05664,-2.255861 l 0.32227,2.080081 8.14453,-0.0293 q -0.76172,-1.787109 -0.76172,-3.544921 l 0.11719,-17.34375 q -0.38086,-4.13086 -3.83789,-6.738282 -3.42774,-2.636718 -9.11133,-2.226562 -5.6543,0.410156 -11.39648,3.632812 z m 6.5332,13.50586 q 2.8418,-1.816406 10.07812,0.996094 v 2.988281 q -3.07617,3.36914 -7.17773,2.929687 -4.07227,-0.439453 -4.89258,-2.753906 -0.82031,-2.34375 1.99219,-4.160156 z m -9.4043,-9.052735 4.16016,2.138672 2.08008,-4.101562 -4.10157,-2.109375 z m 13.09571,9.28711 q -2.8711,-0.117188 -2.8711,2.8125 0.0293,2.929687 2.8418,2.929687 2.8418,-0.0293 2.87109,-2.841797 0.0293,-2.8125 -2.84179,-2.90039 z" />
      <path
         id="path40"
         style="font-family:'Kingthings Chimaera'"
         d="M 496.00586,71.230469 496.03516,100 l 8.05664,0.0586 0.0293,-17.783199 q 0.20508,-3.457032 5.03907,-4.160157 4.86328,-0.703125 6.44531,3.19336 1.58203,3.896484 -0.9082,9.052734 -2.46094,5.126953 -0.9375,13.828122 l 3.57421,-3.25195 3.57422,3.19336 q -0.82031,-8.642579 1.20117,-13.03711 2.02149,-4.394531 1.43555,-9.316406 -0.58594,-4.921875 -3.16406,-7.675782 -2.54883,-2.753906 -7.23633,-2.90039 -4.6582,-0.146485 -9.05273,2.43164 l -0.0293,-2.460937 z m 15.9668,36.035161 5.47851,5.44921 5.30274,-5.36132 -5.41993,-5.41993 z m -7.29493,-22.148443 5.47852,5.449219 5.30273,-5.361328 -5.41992,-5.419922 z" />
      <path
         id="path42"
         style="font-family:'Kingthings Chimaera'"
         d="m 551.52344,96.425781 q -6.79688,4.980469 -14.23828,3.662109 -7.44141,-1.318359 -10.25391,-7.294921 -2.7832,-6.00586 -0.41016,-13.007813 2.37305,-7.03125 10.25391,-9.052734 7.88086,-2.050781 12.62695,1.611328 3.54492,-3.193359 0.64453,-8.994141 l 0.64454,-0.351562 q 3.31054,6.621094 0.35156,10.517578 l -4.36524,5.097656 q -2.92968,-2.43164 -7.79297,-1.49414 -4.83398,0.9375 -5.36132,4.365234 l 9.69726,-0.0293 -0.0879,7.001953 h -9.69726 q 0.9082,3.28125 5.50781,4.570313 4.6289,1.259765 8.87695,-1.816407 z m -3.36914,-15.9375 q -4.33594,-0.146484 -4.33594,4.306641 0.0293,4.423828 4.30664,4.423828 4.30664,-0.0293 4.33594,-4.306641 0.0586,-4.277343 -4.30664,-4.423828 z" />
      <path
         id="path44"
         style="font-family:'Kingthings Chimaera'"
         d="m 556.62109,73.867187 4.13086,2.167969 -1.72851,4.482422 q 5.06836,-2.929687 10.19531,-2.724609 5.12695,0.175781 4.16016,4.863281 -6.47461,-2.958984 -12.27539,-0.9375 -5.77149,1.992187 -6.44532,7.177734 -0.67383,5.185547 1.69922,8.232422 2.37305,3.017574 8.73047,3.164064 6.38672,0.17578 8.05664,-2.255861 l 0.32227,2.080081 8.14453,-0.0293 q -0.76172,-1.787109 -0.76172,-3.544921 l 0.11719,-17.34375 q -0.38086,-4.13086 -3.83789,-6.738282 -3.42774,-2.636718 -9.11133,-2.226562 -5.6543,0.410156 -11.39649,3.632812 z m 6.53321,13.50586 q 2.84179,-1.816406 10.07812,0.996094 v 2.988281 q -3.07617,3.36914 -7.17773,2.929687 -4.07227,-0.439453 -4.89258,-2.753906 -0.82031,-2.34375 1.99219,-4.160156 z m -9.4043,-9.052735 4.16016,2.138672 2.08007,-4.101562 -4.10156,-2.109375 z m 13.0957,9.28711 q -2.87109,-0.117188 -2.87109,2.8125 0.0293,2.929687 2.8418,2.929687 2.84179,-0.0293 2.87109,-2.841797 0.0293,-2.8125 -2.8418,-2.90039 z" />
    </g>
  </g>
</svg>
