<?xml version="1.0" encoding="UTF-8" standalone="no"?>
<svg
   xmlns:dc="http://purl.org/dc/elements/1.1/"
   xmlns:cc="http://creativecommons.org/ns#"
   xmlns:rdf="http://www.w3.org/1999/02/22-rdf-syntax-ns#"
   xmlns:svg="http://www.w3.org/2000/svg"
   xmlns="http://www.w3.org/2000/svg"
   id="svg10"
   width="500px"
   version="1.1"
   height="200px">
  <metadata
     id="metadata14">
    <rdf:RDF>
      <cc:Work
         rdf:about="">
        <dc:format>image/svg+xml</dc:format>
        <dc:type
           rdf:resource="http://purl.org/dc/dcmitype/StillImage" />
      </cc:Work>
    </rdf:RDF>
  </metadata>
  <defs
     id="defs4">
    <style
       id="style2"
       type="text/css"><![CDATA[    
     @font-face {font-family:Kingthings Gothique;
     src: url('/Users/francesco/Repos/write-logos/src/fonts//Kingthings_Gothique.ttf');}]]></style>
  </defs>
  <g
     id="g8"
     style="font-size:30px;font-family:'Kingthings Gothique'">
    <g
       style=""
       id="text6"
       aria-label="eXtemporanea">
      <path
         id="path16"
         style=""
         d="m 104.2334,86.201172 q -2.05078,1.157226 -2.98828,2.739258 -0.9375,1.567382 -1.289065,3.105468 -0.366211,1.523438 0.102535,3.603516 0.46875,2.06543 2.12403,3.222656 1.65527,1.15723 3.25195,1.23047 1.61133,0.0732 3.2666,-1.054688 1.66992,-1.142579 2.66602,-3.19336 l -0.52735,-0.307617 q -2.38769,1.640625 -4.76074,0.717773 -2.37305,-0.9375 -2.7832,-2.446289 l 5.6543,-0.05859 0.30761,0.996093 0.36621,-0.981445 q 3.79395,0.04395 3.85254,-0.410156 0.9668,1.508789 1.96289,0.864258 1.01075,-0.65918 -0.4248,-2.138672 l -0.27832,0.615234 q 1.21582,0.834961 0.49805,1.230469 -0.70313,0.380859 -1.46485,-0.820313 l 1.83106,-3.295898 -0.33692,-0.27832 q -1.86035,1.171875 -5.33203,1.010742 0.0293,-1.245117 1.75781,-2.944336 -0.71777,-1.801758 -3.06152,-2.182617 -2.34375,-0.38086 -4.39453,0.776367 z m 2.16797,1.889648 q 2.19726,0.527344 2.40234,2.431641 -4.6875,-0.146484 -5.21484,0.146484 -0.5127,0.292969 -0.9375,1.010742 -0.23438,-1.669921 0.65918,-2.90039 0.89355,-1.230469 3.09082,-0.688477 z m 2.87109,11.088867 q 1.28906,2.387693 0.64453,3.164063 -0.64453,0.79102 -1.30371,-0.0147 -0.65918,-0.80566 0.65918,-3.149413 z m -7.20703,-1.171875 q 1.78711,-1.582031 3.92578,-1.083984 -1.61133,1.538086 -3.92578,1.083984 z m 1.49414,-2.519531 q 1.58203,1.801758 1.08398,3.94043 -1.52343,-1.625977 -1.08398,-3.94043 z m 0.89356,-7.163086 q 0.35156,-0.175781 0.79101,0.0293 0.43945,0.19043 0.54199,0.585938 0.11719,0.380859 -0.0732,0.74707 -0.17578,0.366211 -0.51269,0.512695 -0.32227,0.146485 -0.71778,0 -0.38086,-0.146484 -0.57129,-0.527343 -0.17578,-0.395508 0,-0.776368 0.19043,-0.395507 0.542,-0.571289 z m 0.65917,0.556641 q -0.0879,0.04394 -0.14648,0.146484 -0.0439,0.08789 0,0.19043 0.0586,0.102539 0.14648,0.146484 0.10254,0.0293 0.19043,0 0.0879,-0.04395 0.13184,-0.131836 0.0586,-0.08789 0.0293,-0.190429 -0.0293,-0.102539 -0.14649,-0.161133 -0.11718,-0.05859 -0.20508,0 z m 4.40918,11.689454 q -0.62988,1.14258 -0.30761,1.53809 0.32226,0.3955 0.62988,0 0.32227,-0.39551 -0.32227,-1.53809 z m 3.42774,-8.452149 q -3.75,1.420898 -7.14844,0.05859 3.44238,-1.435547 7.14844,-0.05859 z m -4.36524,-0.541993 q 0.68848,-0.175781 1.50879,-0.0293 0.0147,0.439453 -0.13183,0.717773 -0.13184,0.27832 -0.36621,0.395508 -0.23438,0.102539 -0.52735,0 -0.29297,-0.117188 -0.4248,-0.410156 -0.13184,-0.292969 -0.0586,-0.673829 z m -3.31054,7.001954 q 1.08398,-0.966797 2.38769,-0.65918 -0.98144,0.922851 -2.38769,0.65918 z m 0.9082,-1.538086 q 0.9668,1.098632 0.65918,2.402343 -0.92285,-0.996093 -0.65918,-2.402343 z m -5.18555,-1.025391 q 1.08399,-0.966797 2.3877,-0.65918 -0.98145,0.922852 -2.3877,0.65918 z m 0.90821,-1.538086 q 0.96679,1.098633 0.65918,2.402344 -0.92285,-0.996094 -0.65918,-2.402344 z" />
      <path
         id="path18"
         style=""
         d="m 115.64453,84.370117 0.36621,0.307617 q 0.49805,-0.864257 4.08692,-0.600586 -1.20118,0.703125 -0.9961,2.270508 0.21973,1.567383 1.24512,2.72461 -2.49023,2.885742 -3.35449,4.365234 -0.84961,1.479492 -0.36621,3.588867 0.49804,2.094727 3.04687,2.988283 2.54883,0.89355 4.37988,-3.793947 l -0.41015,-0.395508 q -1.58203,0.996094 -2.8125,-0.732422 -1.21582,-1.728515 0.55664,-4.365234 5.50781,9.375001 6.9873,9.301761 1.4795,-0.0586 3.79395,-5.170902 l -0.42481,-0.46875 q -1.72851,0.761719 -5.24414,-4.365234 l 3.14942,-5.917969 h 1.75781 l 1.46484,-3.354492 -0.23437,-0.307617 -6.78223,0.04394 -1.74316,3.867188 0.39551,0.410156 q 0.49804,-1.12793 3.19336,-0.805664 l -2.57813,4.672851 q -1.64062,-2.373046 -2.3584,-3.969726 -0.71777,-1.611328 1.30371,-3.881836 l -0.29297,-0.351563 -6.5332,0.0293 z m 12.46582,-3.896484 q 1.18652,0.55664 2.28516,-0.04395 -1.08399,-0.55664 -2.28516,0.04395 z m 1.17188,-1.157227 q -0.57129,1.186524 0.0439,2.285156 0.55664,-1.083984 -0.0439,-2.285156 z m -0.73243,-0.46875 q 0.57129,-0.322265 1.30372,-0.0293 0.74707,0.278321 0.96679,0.908203 0.21973,0.629883 -0.0586,1.259766 -0.26367,0.615234 -0.80567,0.893555 -0.52734,0.263672 -1.17187,0.05859 -0.64453,-0.205079 -0.98145,-0.834961 -0.33691,-0.629883 -0.0732,-1.274414 0.26367,-0.65918 0.82031,-0.981446 z m -8.14453,17.929688 q 0.41016,-0.205078 0.90821,0.0293 0.51269,0.219726 0.64453,0.673828 0.14648,0.454101 -0.0732,0.878906 -0.21973,0.424805 -0.60059,0.600586 -0.38086,0.161133 -0.83496,0 -0.43945,-0.175781 -0.65918,-0.629883 -0.20508,-0.454101 0,-0.893555 0.21973,-0.454101 0.61523,-0.659179 z m -1.31836,-5.405274 q 0.21973,-0.117187 0.49805,0.01465 0.27832,0.131836 0.35156,0.380859 0.0733,0.249024 -0.0586,0.483399 -0.11719,0.234375 -0.32227,0.322265 -0.20507,0.08789 -0.4541,0 -0.23437,-0.08789 -0.35156,-0.336914 -0.11719,-0.263672 0,-0.498047 0.11719,-0.249023 0.33691,-0.366211 z m -0.84961,3.925782 q 0.35157,-0.175782 0.79102,0.0293 0.43945,0.19043 0.55664,0.585938 0.11719,0.395508 -0.0732,0.761719 -0.19043,0.366211 -0.52734,0.512695 -0.32227,0.146484 -0.71778,0 -0.38086,-0.146484 -0.57129,-0.541992 -0.17578,-0.395508 0,-0.776367 0.19043,-0.395508 0.54199,-0.571289 z m 2.69532,-5.932618 q 0.13183,-0.08789 0.30761,-0.01465 0.17579,0.07324 0.21973,0.219726 0.0586,0.146485 -0.0146,0.292969 -0.0586,0.146485 -0.17578,0.219727 -0.11719,0.05859 -0.27832,0.01465 -0.14648,-0.05859 -0.23437,-0.205078 -0.0733,-0.161133 -0.0147,-0.307617 0.0732,-0.146484 0.19043,-0.219727 z m -2.53418,3.603516 q 0.29297,-0.146484 0.65918,0.0293 0.38086,0.161133 0.46875,0.498047 0.10254,0.322265 -0.0586,0.629883 -0.16113,0.307617 -0.43945,0.424804 -0.27832,0.117188 -0.60059,0 -0.30761,-0.117187 -0.46875,-0.454101 -0.14648,-0.336914 0,-0.65918 0.16114,-0.322266 0.43946,-0.46875 z m 9.65332,2.871094 q 0.17578,-0.102539 0.41015,0 0.23438,0.08789 0.29297,0.292968 0.0732,0.19043 -0.0147,0.38086 -0.0879,0.19043 -0.24902,0.27832 -0.16113,0.07324 -0.36621,0.01465 -0.19043,-0.05859 -0.30762,-0.263672 -0.10254,-0.205078 -0.0147,-0.395508 0.0879,-0.205078 0.24903,-0.307617 z m -7.44141,1.523437 q 0.17578,-0.102539 0.41016,0 0.23437,0.08789 0.29297,0.292969 0.0732,0.19043 -0.0147,0.380859 -0.0879,0.19043 -0.24903,0.278321 -0.16113,0.07324 -0.36621,0.01465 -0.19043,-0.05859 -0.30761,-0.263672 -0.10254,-0.205078 -0.0147,-0.395508 0.0879,-0.205078 0.24902,-0.307617 z m -0.58594,-7.060547 q 0.17579,-0.102539 0.41016,0 0.23438,0.08789 0.29297,0.292969 0.0732,0.19043 -0.0147,0.380859 -0.0879,0.19043 -0.24902,0.278321 -0.16114,0.07324 -0.36621,0.01465 -0.19043,-0.05859 -0.30762,-0.263672 -0.10254,-0.205078 -0.0147,-0.395507 0.0879,-0.205079 0.24902,-0.307618 z m 11.2793,-6.196289 q 1.28906,2.387696 0.64453,3.178711 -0.64453,0.776367 -1.30371,-0.0293 -0.65918,-0.805664 0.65918,-3.149414 z m 0.17578,1.347657 q -0.62988,1.142578 -0.30762,1.538085 0.32227,0.395508 0.62989,0 0.32226,-0.395507 -0.32227,-1.538085 z m -3.60351,10.20996 q -5.36133,-3.427734 -6.84082,-9.038085 5.083,3.032226 6.84082,9.038085 z m -3.42774,-6.064453 q 0.86426,0.717774 1.46485,1.889649 -0.55664,0.439453 -1.04004,0.527344 -0.4834,0.08789 -0.84961,-0.117188 -0.36621,-0.205078 -0.49805,-0.673828 -0.13184,-0.483399 0.10254,-0.922852 0.24902,-0.439453 0.82031,-0.703125 z m -3.96972,-4.248047 q 0.17578,-0.102539 0.41015,0 0.23438,0.08789 0.29297,0.292969 0.0732,0.19043 -0.0147,0.38086 -0.0879,0.190429 -0.24902,0.27832 -0.16113,0.07324 -0.36621,0.01465 -0.19043,-0.05859 -0.30762,-0.263672 -0.10254,-0.205078 -0.0147,-0.395507 0.0879,-0.205078 0.24903,-0.307618 z" />
      <path
         id="path20"
         style=""
         d="m 135.77148,85.688477 q -0.30761,0.292968 -2.91503,3.925781 l 0.27832,0.307617 q 1.15722,-1.069336 3.28125,-0.717773 -1.94825,1.728515 -2.62207,4.11621 -0.67383,2.373047 1.46484,4.511719 2.15332,2.138672 4.77539,2.314449 2.02148,-1.479488 2.8418,-2.343746 0.83496,-0.864257 1.31836,-1.420898 0.48339,-0.571289 0.54199,-0.805664 l -0.35156,-0.117188 q -2.72461,1.904297 -5.12696,-0.249023 -2.79785,-1.933594 -1.09863,-5.771484 l 4.04297,0.322265 0.0147,0.952149 -0.0586,2.182617 q 0.0293,0.834961 0.38086,0.878906 l -0.0293,-0.585937 0.35156,-3.369141 0.76172,0.102539 2.7539,-4.02832 -0.17578,-0.205078 q -0.27832,-0.05859 -10.42969,0 z m 6.73829,0.249023 q 0.95214,1.933594 0.0146,3.676758 -0.95214,-1.772461 -0.0146,-3.676758 z m -1.9043,1.845703 q 1.93359,-0.952148 3.67676,-0.0293 -1.77246,0.952149 -3.67676,0.0293 z m -1.68457,2.138672 q 0.49805,-0.249023 1.11328,0.0293 0.61523,0.27832 0.77637,0.834961 0.16113,0.541992 -0.10254,1.054687 -0.26367,0.512696 -0.73242,0.717774 -0.45411,0.205078 -0.9961,0 -0.54199,-0.205078 -0.80566,-0.747071 -0.24903,-0.55664 0,-1.098632 0.26367,-0.541993 0.74707,-0.791016 z m 0.92285,0.776367 q -0.11719,0.05859 -0.19043,0.205078 -0.0586,0.131836 0,0.278321 0.0732,0.146484 0.20508,0.205078 0.14648,0.04394 0.26367,0 0.11719,-0.05859 0.19043,-0.19043 0.0732,-0.131836 0.0293,-0.27832 -0.0439,-0.146485 -0.20508,-0.219727 -0.16113,-0.07324 -0.29297,0 z m -3.75,1.962891 q -0.21973,0.117187 -0.49805,-0.01465 -0.27832,-0.131836 -0.35156,-0.380859 -0.0732,-0.249023 0.044,-0.483398 0.13183,-0.234375 0.33691,-0.322266 0.20508,-0.08789 0.43945,0 0.24903,0.08789 0.36621,0.351562 0.11719,0.249024 0,0.498047 -0.11718,0.234375 -0.33691,0.351563 z m 4.11621,6.269531 q -0.41016,0.205078 -0.95215,-0.0293 -0.52734,-0.234375 -0.67383,-0.703125 -0.13183,-0.483398 0.0879,-0.922851 0.23438,-0.439454 0.62989,-0.615235 0.41015,-0.175781 0.86426,0 0.46875,0.175781 0.68847,0.65918 0.21973,0.46875 0,0.9375 -0.21972,0.454101 -0.64453,0.673828 z m -3.36914,-8.144531 q -0.16113,0.102539 -0.39551,0.01465 -0.23437,-0.102539 -0.30761,-0.292969 -0.0586,-0.205078 0.0293,-0.395507 0.0879,-0.19043 0.24903,-0.263672 0.16113,-0.08789 0.35156,-0.0293 0.20508,0.05859 0.30762,0.263672 0.11718,0.205078 0.0293,0.410156 -0.0879,0.19043 -0.26367,0.292969 z m -1.14258,4.423828 q -0.27832,0.146484 -0.65918,-0.01465 -0.36621,-0.175781 -0.46875,-0.498046 -0.0879,-0.336914 0.0732,-0.644532 0.16114,-0.307617 0.43946,-0.424804 0.27832,-0.117188 0.58594,0 0.32226,0.117187 0.46875,0.454101 0.16113,0.336914 0,0.65918 -0.14649,0.322266 -0.43946,0.46875 z m 1.71387,2.197266 q -0.35156,0.175781 -0.79102,-0.01465 -0.43945,-0.205078 -0.55664,-0.600586 -0.11718,-0.395508 0.0733,-0.761719 0.19042,-0.366211 0.51269,-0.512695 0.33691,-0.146484 0.71777,0 0.39551,0.146484 0.57129,0.541992 0.19043,0.395508 0,0.791016 -0.17578,0.380859 -0.52734,0.556641 z" />
      <path
         id="path22"
         style=""
         d="m 150.46387,86.201172 q -2.05078,1.157226 -2.98828,2.739258 -0.9375,1.567382 -1.28907,3.105468 -0.36621,1.523438 0.10254,3.603516 0.46875,2.06543 2.12403,3.222656 1.65527,1.15723 3.25195,1.23047 1.61133,0.0732 3.2666,-1.054688 1.66992,-1.142579 2.66602,-3.19336 l -0.52735,-0.307617 q -2.38769,1.640625 -4.76074,0.717773 -2.37305,-0.9375 -2.7832,-2.446289 l 5.65429,-0.05859 0.30762,0.996093 0.36621,-0.981445 q 3.79395,0.04395 3.85254,-0.410156 0.9668,1.508789 1.96289,0.864258 1.01074,-0.65918 -0.4248,-2.138672 l -0.27832,0.615234 q 1.21582,0.834961 0.49804,1.230469 Q 160.76172,94.316406 160,93.115234 l 1.83105,-3.295898 -0.33691,-0.27832 q -1.86035,1.171875 -5.33203,1.010742 0.0293,-1.245117 1.75781,-2.944336 -0.71777,-1.801758 -3.06152,-2.182617 -2.34375,-0.38086 -4.39453,0.776367 z m 2.16797,1.889648 q 2.19726,0.527344 2.40234,2.431641 -4.6875,-0.146484 -5.21484,0.146484 -0.5127,0.292969 -0.9375,1.010742 -0.23438,-1.669921 0.65918,-2.90039 0.89355,-1.230469 3.09082,-0.688477 z m 2.87109,11.088867 q 1.28906,2.387693 0.64453,3.164063 -0.64453,0.79102 -1.30371,-0.0147 -0.65918,-0.80566 0.65918,-3.149413 z m -7.20703,-1.171875 q 1.78711,-1.582031 3.92578,-1.083984 -1.61133,1.538086 -3.92578,1.083984 z m 1.49414,-2.519531 q 1.58203,1.801758 1.08398,3.94043 -1.52343,-1.625977 -1.08398,-3.94043 z m 0.89355,-7.163086 q 0.35157,-0.175781 0.79102,0.0293 0.43945,0.19043 0.54199,0.585938 0.11719,0.380859 -0.0732,0.74707 -0.17578,0.366211 -0.5127,0.512695 -0.32226,0.146485 -0.71777,0 -0.38086,-0.146484 -0.57129,-0.527343 -0.17578,-0.395508 0,-0.776368 0.19043,-0.395507 0.54199,-0.571289 z m 0.65918,0.556641 q -0.0879,0.04394 -0.14648,0.146484 -0.0439,0.08789 0,0.19043 0.0586,0.102539 0.14648,0.146484 0.10254,0.0293 0.19043,0 0.0879,-0.04395 0.13184,-0.131836 0.0586,-0.08789 0.0293,-0.190429 -0.0293,-0.102539 -0.14649,-0.161133 -0.11719,-0.05859 -0.20508,0 z m 4.40918,11.689454 q -0.62988,1.14258 -0.30761,1.53809 0.32226,0.3955 0.62988,0 0.32226,-0.39551 -0.32227,-1.53809 z m 3.42774,-8.452149 q -3.75,1.420898 -7.14844,0.05859 3.44238,-1.435547 7.14844,-0.05859 z m -4.36524,-0.541993 q 0.68848,-0.175781 1.50879,-0.0293 0.0146,0.439453 -0.13183,0.717773 -0.13184,0.27832 -0.36621,0.395508 -0.23438,0.102539 -0.52735,0 -0.29297,-0.117188 -0.4248,-0.410156 -0.13184,-0.292969 -0.0586,-0.673829 z m -3.31054,7.001954 q 1.08398,-0.966797 2.38769,-0.65918 -0.98144,0.922851 -2.38769,0.65918 z m 0.9082,-1.538086 q 0.9668,1.098632 0.65918,2.402343 -0.92285,-0.996093 -0.65918,-2.402343 z m -5.18555,-1.025391 q 1.08399,-0.966797 2.3877,-0.65918 -0.98145,0.922852 -2.3877,0.65918 z m 0.90821,-1.538086 q 0.96679,1.098633 0.65918,2.402344 -0.92286,-0.996094 -0.65918,-2.402344 z" />
      <path
         id="path24"
         style=""
         d="m 169.00879,85.805664 q -2.03613,0.878906 -2.68067,1.347656 -0.62988,0.454102 -1.27441,1.054688 -0.64453,0.585937 -0.9668,1.098633 -0.32226,0.512695 -0.67382,1.02539 -0.33692,0.512696 -0.52735,0.9375 -0.19043,0.410156 -0.38086,1.040039 -0.19043,0.629883 -0.26367,2.460938 -0.0586,1.831054 1.4502,3.808594 1.50879,1.962888 3.73535,1.274414 1.37695,-1.347657 1.75781,-1.875 0.38086,-0.527344 0.89355,-0.761719 l -0.24902,-0.527344 q -1.52344,0.454102 -2.54883,-0.380859 -1.02539,-0.84961 -1.53808,-3.120117 -0.5127,-2.270508 0.80566,-4.277344 2.24121,-0.673828 3.10547,0.527344 0.86426,1.201171 0.64453,5.625 -0.20508,4.423828 -0.0293,5.756833 0.17579,1.33301 0.62989,2.02149 0.46875,0.68847 1.27441,1.09863 -0.27832,1.96289 1.08399,2.19727 1.37695,0.24902 1.77246,-1.56739 l -0.42481,-0.14648 q -0.19043,1.28906 -0.96679,1.20117 -0.77637,-0.0732 -0.98145,-0.55664 -0.20508,-0.4834 0.57129,-1.43555 0.79101,-0.9375 1.4209,-1.3623 0.62988,-0.42481 0.86426,-0.61524 v -0.26367 q -1.27442,-0.57129 -1.40625,-1.567381 -0.13184,-0.996094 -0.0733,-9.418946 0.90821,-1.68457 2.27051,-1.040039 1.37695,0.644532 2.02149,3.925782 0.64453,3.28125 -2.18262,6.474609 0.0586,0.322265 0.35156,0.468755 3.61816,-2.138677 5.22949,-4.204107 1.62598,-2.080078 0.17578,-6.914062 -0.46875,-1.083984 -1.333,-2.080078 -0.84961,-0.996094 -2.00684,-1.171875 -1.15723,-0.175781 -1.91895,0.161133 -0.76171,0.336914 -1.69921,1.362304 -0.9375,1.010742 -1.53809,1.31836 -1.52344,-3.090821 -4.39453,-2.900391 z m 3.25195,6.679688 0.90821,4.277343 -0.74708,4.584965 -0.9082,-4.526371 z m -1.56738,-5.478516 q 0.35156,-0.175781 0.79101,0.0293 0.43946,0.190429 0.55665,0.585937 0.11718,0.395508 -0.0733,0.761719 -0.19043,0.366211 -0.52734,0.512695 -0.32227,0.146485 -0.71777,0 -0.38086,-0.146484 -0.57129,-0.541992 -0.17578,-0.395508 0,-0.776367 0.19043,-0.395508 0.54199,-0.571289 z m 5.05371,1.655273 q 2.68066,-1.318359 5.09766,-0.0293 -2.46094,1.31836 -5.09766,0.0293 z m 2.63672,-2.548828 q 1.31836,2.680664 0.0293,5.097656 -1.31836,-2.460937 -0.0293,-5.097656 z m -11.98242,13.872071 q 1.28906,2.387698 0.64453,3.164058 -0.64453,0.79102 -1.30371,-0.0146 -0.65918,-0.80567 0.65918,-3.149418 z m -0.10254,3.325198 q 0.33691,0.0586 0.64453,-0.36621 0.32226,-0.42481 -0.0732,-1.58204 l -0.24903,-0.49804 q 0.32227,1.83105 -0.32226,2.44629 z" />
      <path
         id="path26"
         style=""
         d="m 188.5791,89.306641 q -0.0439,-2.900391 -1.08398,-3.66211 l -4.6875,3.837891 0.29297,0.703125 q 1.28906,-1.040039 1.3623,0.703125 0.0879,1.743164 0,4.672851 -0.0879,2.929688 -0.0146,5.478517 0.0732,2.56348 0.41016,3.54492 0.33691,0.99609 1.61133,1.80176 1.31836,-2.19727 3.31054,-3.19336 -1.66992,-1.81641 -1.25976,-4.042969 2.76855,1.464839 5.85937,-0.805664 3.09082,-2.285157 3.53028,-5.947266 0.4541,-3.676758 -4.21875,-6.606445 l -0.38086,-0.351563 z m 2.53418,-0.292969 q 2.31445,1.728515 2.72461,4.130859 0.41016,2.402344 -0.84961,3.75 -1.24512,1.347656 -2.53418,-0.161133 -1.15723,-1.347656 0.65918,-2.709961 l -0.41016,-0.571289 -2.03613,1.538086 -0.0439,-4.086914 z m -4.7168,-0.175781 0.90821,4.277343 -0.74707,4.584961 -0.90821,-4.526367 z m 7.99805,0.205078 q 0.29297,-0.146485 0.64453,0.0293 0.36621,0.161132 0.4541,0.483398 0.10254,0.322266 -0.0586,0.629883 -0.14648,0.307617 -0.4248,0.424805 -0.26368,0.117187 -0.58594,0 -0.32227,-0.117188 -0.4834,-0.439454 -0.14648,-0.336914 0,-0.659179 0.16113,-0.322266 0.4541,-0.46875 z m -7.79297,9.023437 q 1.28906,2.387694 0.64453,3.164064 -0.64453,0.79101 -1.30371,-0.0147 -0.65918,-0.80566 0.65918,-3.149414 z m 8.9502,-4.936523 q 0.17578,-0.08789 0.39551,0.01465 0.23437,0.08789 0.29296,0.292969 0.0586,0.205078 -0.0439,0.395508 -0.0879,0.190429 -0.26367,0.263672 -0.16114,0.07324 -0.36621,0 -0.19043,-0.07324 -0.29297,-0.278321 -0.0879,-0.205078 0,-0.395507 0.10254,-0.205079 0.27832,-0.292969 z m -0.19043,-1.962891 q 0.24902,-0.131836 0.54199,0.01465 0.30762,0.131836 0.38086,0.410156 0.0879,0.263672 -0.0439,0.512695 -0.13183,0.249024 -0.36621,0.351563 -0.21972,0.102539 -0.4834,0 -0.26367,-0.102539 -0.3955,-0.366211 -0.11719,-0.278321 0,-0.541992 0.13183,-0.263672 0.36621,-0.38086 z m -0.29297,3.691406 q 0.13184,-0.07324 0.29297,0 0.17578,0.07324 0.21972,0.219727 0.0586,0.146484 -0.0146,0.292969 -0.0733,0.131836 -0.20508,0.190429 -0.13184,0.05859 -0.27832,0 -0.14649,-0.05859 -0.21973,-0.205078 -0.0732,-0.146484 0,-0.292968 0.0732,-0.146485 0.20508,-0.205079 z m -2.44629,-7.690429 q 0.35156,-0.175782 0.79102,0.0293 0.43945,0.190429 0.55664,0.585937 0.11718,0.395508 -0.0733,0.761719 -0.19043,0.366211 -0.52734,0.512695 -0.32227,0.146485 -0.71777,0 -0.38086,-0.146484 -0.57129,-0.541992 -0.17578,-0.395508 0,-0.776367 0.19043,-0.395508 0.54199,-0.571289 z m -2.08008,3.266601 q 0.35156,-0.175781 0.79102,0.0293 0.43945,0.19043 0.55664,0.585938 0.11719,0.395507 -0.0732,0.761718 -0.19043,0.366211 -0.52735,0.512696 -0.32226,0.146484 -0.71777,0 -0.38086,-0.146485 -0.57129,-0.541992 -0.17578,-0.395508 0,-0.776368 0.19043,-0.395507 0.54199,-0.571289 z" />
      <path
         id="path28"
         style=""
         d="m 204.41406,85.322266 q -4.01367,2.050781 -5.49316,5.112304 -1.46485,3.046875 0.21972,6.079102 1.69922,3.017578 3.88184,3.47168 2.19727,0.454098 3.83789,-0.966797 1.64063,-1.435547 2.54883,-3.310547 0.92285,-1.875 1.4209,-4.995117 -0.46875,-5.566407 -6.41602,-5.390625 z m -0.80566,2.90039 q 3.07617,0.498047 4.16015,2.592774 1.09864,2.080078 0.26368,4.511718 -2.00684,0.65918 -3.26661,0.102539 -1.25976,-0.571289 -2.21191,-1.992187 -0.9375,-1.435547 -1.08398,-4.482422 l 0.76172,-0.776367 h 0.62988 l 0.27832,3.676758 0.21972,0.0293 z m 2.87109,4.116211 q -0.17578,0.08789 -0.27832,0.292969 -0.0879,0.19043 0,0.395508 0.10254,0.205078 0.29297,0.27832 0.20508,0.07324 0.36621,0 0.17578,-0.07324 0.26367,-0.249023 0.10254,-0.19043 0.0439,-0.395508 -0.0586,-0.205078 -0.29297,-0.307617 -0.21973,-0.102539 -0.39551,-0.01465 z m -1.4209,-1.12793 q 0.71778,-0.36621 1.61133,0.04395 0.9082,0.410156 1.14258,1.21582 0.24902,0.805664 -0.14648,1.567383 -0.38086,0.74707 -1.06934,1.040039 -0.67383,0.292969 -1.46484,0.01465 -0.79102,-0.292968 -1.17188,-1.113281 -0.36621,-0.820312 0,-1.611328 0.38086,-0.791016 1.09863,-1.157227 z m -5.41992,5.493165 q 2.68067,-1.31836 5.09766,-0.0293 -2.46094,1.318359 -5.09766,0.0293 z m 2.63672,-2.548829 q 1.31836,2.680664 0.0293,5.097657 -1.31836,-2.460938 -0.0293,-5.097657 z" />
      <path
         id="path30"
         style=""
         d="m 215.75195,88.00293 q 3.3252,-0.08789 3.57422,1.757812 0.36621,2.636719 -3.75,4.057617 0.39551,-4.365234 0.17578,-5.815429 z m -2.08008,-0.893555 0.90821,4.277344 -0.74707,4.584961 -0.90821,-4.526368 z m 3.23731,1.875 q 0.49805,-0.249023 1.11328,0.0293 0.61524,0.27832 0.77637,0.834961 0.16113,0.541992 -0.10254,1.054687 -0.26367,0.512696 -0.73242,0.717774 -0.4541,0.205078 -0.9961,0 -0.54199,-0.205078 -0.80566,-0.747071 -0.24902,-0.55664 0,-1.098632 0.26367,-0.541993 0.74707,-0.791016 z m 0.92285,0.776367 q -0.11719,0.05859 -0.19043,0.205078 -0.0586,0.131836 0,0.278321 0.0732,0.146484 0.20508,0.205078 0.14648,0.04394 0.26367,0 0.11719,-0.05859 0.19043,-0.19043 0.0732,-0.131836 0.0293,-0.27832 -0.0439,-0.146485 -0.20508,-0.219727 -0.16113,-0.07324 -0.29297,0 z m 2.53418,5.917969 q 1.65527,1.025391 1.53809,1.757812 -0.11719,0.717774 -0.82032,0.454102 -0.70312,-0.263672 -0.71777,-2.211914 z m -0.9668,-2.094727 q 1.05469,0.820313 0.92286,1.303711 -0.13184,0.46875 -0.60059,0.249024 -0.4541,-0.234375 -0.32227,-1.552735 z m 2.47559,4.790039 q 2.3584,1.333008 2.22656,2.343747 -0.13183,1.01075 -1.12793,0.67383 -0.98144,-0.33691 -1.09863,-3.017577 z m -2.09473,-13.286132 q -1.96289,0.424804 -4.04297,2.006836 -0.46875,-1.245118 -1.49414,-1.50879 l -3.14941,2.666016 q 0.68848,0.717774 0.89355,1.552734 0.21973,0.820313 -0.0586,3.574219 -0.27832,2.739258 0.0586,4.584961 0.35157,1.831055 1.94825,2.343753 l 2.88574,-1.831058 q -1.27442,-1.508789 -0.99609,-3.720703 l 1.97753,-0.908203 q 1.36231,4.965821 2.46094,7.031254 1.11328,2.06543 2.60742,3.42773 l 4.2627,-3.2959 -0.20508,-0.55664 q -0.71777,0.26367 -1.66992,-0.791014 -0.9375,-1.069336 -2.13867,-3.544922 -1.20117,-2.475586 -1.88965,-4.438477 2.72461,-2.504882 2.25586,-4.291992 -0.86426,-2.211914 -3.70606,-2.299804 z" />
      <path
         id="path32"
         style=""
         d="m 234.4873,85.878906 q -0.8496,-0.732422 -2.22656,-0.527344 -1.3623,0.205079 -4.39453,3.588868 l 0.4541,0.410156 q 1.96289,-1.801758 3.44239,0.878906 l 0.41015,0.834961 2.09473,4.760742 q -2.54883,1.289063 -3.73535,0.703125 -1.17188,-0.585937 -1.25977,-1.948242 -0.0732,-1.362305 2.24121,-2.841797 l -0.51269,-0.981445 q -3.88184,2.768555 -4.6875,4.145508 -0.79102,1.362304 -0.41016,2.988281 0.38086,1.611328 2.50488,2.036133 2.13867,0.424802 4.32129,-1.289063 l 2.09473,-1.655273 q 1.12793,2.885742 3.03223,3.281248 1.59667,-0.878904 3.80859,-3.706053 l -0.27832,-0.424805 q -0.9082,0.805665 -1.37695,0.336915 -0.46875,-0.483399 -0.76172,-1.215821 -0.27832,-0.732422 -2.09473,-4.6875 -1.80176,-3.969726 -2.66602,-4.6875 z m -6.85546,10.400391 q 0.35156,-0.175781 0.79101,0.0293 0.43945,0.190429 0.55664,0.585937 0.11719,0.395508 -0.0732,0.761719 -0.19043,0.366211 -0.52734,0.512695 -0.32227,0.146485 -0.71778,0 -0.38086,-0.146484 -0.57129,-0.541992 -0.17578,-0.395508 0,-0.776367 0.19043,-0.395508 0.542,-0.571289 z m 0.71777,-6.972656 q 0.71777,1.318359 0.35156,1.757812 -0.35156,0.424805 -0.71777,-0.01465 -0.36621,-0.439453 0.36621,-1.743164 z m 7.16309,7.734375 q 2.3291,-1.142579 4.42382,-0.0293 -2.13867,1.142578 -4.42382,0.0293 z m 2.16796,-2.211914 q 1.14258,2.329101 0.0147,4.423828 -1.14258,-2.138672 -0.0147,-4.423828 z m -5.99121,-0.717774 q -0.10254,0.04394 -0.16113,0.175781 -0.0586,0.131836 0,0.263672 0.0586,0.117188 0.17578,0.175781 0.13184,0.04395 0.23438,0 0.11718,-0.05859 0.17578,-0.175781 0.0586,-0.117187 0.0146,-0.234375 -0.0293,-0.131836 -0.17579,-0.190429 -0.14648,-0.07324 -0.26367,-0.01465 z m -0.89355,-0.717773 q 0.4541,-0.234375 1.02539,0.0293 0.57129,0.263671 0.71777,0.776367 0.16114,0.498047 -0.0879,0.981445 -0.24902,0.46875 -0.67383,0.65918 -0.4248,0.190429 -0.92285,0.01465 -0.49804,-0.19043 -0.74707,-0.703125 -0.23437,-0.527344 0,-1.02539 0.24903,-0.498047 0.68848,-0.732422 z" />
      <path
         id="path34"
         style=""
         d="m 246.35254,85.146484 q -1.99219,1.860352 -4.64356,3.75 l 0.57129,1.376953 q 0.87891,-0.659179 1.40625,-1.230468 0.13184,3.486328 -0.13183,5.068359 -0.26367,1.567383 0.23437,3.603516 0.5127,2.021484 1.97754,2.446286 2.37305,-3.310544 2.91504,-3.44238 v -0.395508 q -1.83105,-2.680664 -0.98144,-5.71289 3.06152,-2.827149 4.70214,1.655273 0.38086,1.083984 0.0733,1.918945 -0.29297,0.820313 -1.59668,2.929688 -1.28907,2.109375 -1.28907,2.460937 0.0146,0.38086 0.52735,0.512695 l 2.84179,-0.0147 q 1.18653,-0.0293 1.77247,-0.190428 0.58593,-0.175781 1.40625,-1.420898 0.83496,-1.259766 1.28906,-1.669922 0.46875,-0.424805 0.54199,-0.791015 l -0.24902,-0.146485 q -0.65918,0.27832 -2.37305,0.336914 -1.69922,0.04395 -1.59668,-0.46875 0.65918,-1.201172 1.43555,-2.43164 0.77636,-1.245118 1.02539,-2.856446 0.24902,-1.611328 -0.20508,-2.753906 -0.43945,-1.157227 -1.46484,-1.875 -1.0254,-0.732422 -2.70997,-0.205078 -1.68457,0.527344 -3.83789,2.856445 0.26368,-2.387695 -1.34765,-3.354492 z m -0.86426,3.061524 0.9082,4.277344 -0.74707,4.58496 -0.9082,-4.526367 z m 6.09375,9.360351 q 0.35156,-0.175781 0.79102,0.0293 0.43945,0.19043 0.55664,0.585938 0.11718,0.395508 -0.0732,0.761718 -0.19043,0.366211 -0.52735,0.512696 -0.32226,0.146484 -0.71777,0 -0.38086,-0.146485 -0.57129,-0.541992 -0.17578,-0.395508 0,-0.776368 0.19043,-0.395507 0.54199,-0.571289 z m -9.25781,-7.368164 q 1.28906,2.387696 0.64453,3.178711 -0.64453,0.776367 -1.30371,-0.0293 -0.65918,-0.805664 0.65918,-3.149414 z m 8.27637,-1.464843 q 2.68066,-1.31836 5.09765,-0.0293 -2.46094,1.318359 -5.09765,0.0293 z m 2.63671,-2.548829 q 1.31836,2.680664 0.0293,5.097657 -1.31836,-2.460938 -0.0293,-5.097657 z" />
      <path
         id="path36"
         style=""
         d="m 262.49512,86.201172 q -2.05078,1.157226 -2.98828,2.739258 -0.9375,1.567382 -1.28907,3.105468 -0.36621,1.523438 0.10254,3.603516 0.46875,2.06543 2.12403,3.222656 1.65527,1.15723 3.25195,1.23047 1.61133,0.0732 3.2666,-1.054688 1.66992,-1.142579 2.66602,-3.19336 l -0.52735,-0.307617 q -2.38769,1.640625 -4.76074,0.717773 -2.37305,-0.9375 -2.7832,-2.446289 l 5.65429,-0.05859 0.30762,0.996093 0.36621,-0.981445 q 3.79395,0.04395 3.85254,-0.410156 0.9668,1.508789 1.96289,0.864258 1.01074,-0.65918 -0.4248,-2.138672 l -0.27832,0.615234 q 1.21582,0.834961 0.49804,1.230469 -0.70312,0.380859 -1.46484,-0.820313 l 1.83105,-3.295898 -0.33691,-0.27832 q -1.86035,1.171875 -5.33203,1.010742 0.0293,-1.245117 1.75781,-2.944336 -0.71777,-1.801758 -3.06152,-2.182617 -2.34375,-0.38086 -4.39453,0.776367 z m 2.16797,1.889648 q 2.19726,0.527344 2.40234,2.431641 -4.6875,-0.146484 -5.21484,0.146484 -0.5127,0.292969 -0.9375,1.010742 -0.23438,-1.669921 0.65918,-2.90039 0.89355,-1.230469 3.09082,-0.688477 z m 2.87109,11.088867 q 1.28906,2.387693 0.64453,3.164063 -0.64453,0.79102 -1.30371,-0.0147 -0.65918,-0.80566 0.65918,-3.149413 z m -7.20703,-1.171875 q 1.78711,-1.582031 3.92578,-1.083984 -1.61133,1.538086 -3.92578,1.083984 z m 1.49414,-2.519531 q 1.58203,1.801758 1.08398,3.94043 -1.52343,-1.625977 -1.08398,-3.94043 z m 0.89355,-7.163086 q 0.35157,-0.175781 0.79102,0.0293 0.43945,0.19043 0.54199,0.585938 0.11719,0.380859 -0.0732,0.74707 -0.17578,0.366211 -0.5127,0.512695 -0.32226,0.146485 -0.71777,0 -0.38086,-0.146484 -0.57129,-0.527343 -0.17578,-0.395508 0,-0.776368 0.19043,-0.395507 0.54199,-0.571289 z m 0.65918,0.556641 q -0.0879,0.04394 -0.14648,0.146484 -0.0439,0.08789 0,0.19043 0.0586,0.102539 0.14648,0.146484 0.10254,0.0293 0.19043,0 0.0879,-0.04395 0.13184,-0.131836 0.0586,-0.08789 0.0293,-0.190429 -0.0293,-0.102539 -0.14649,-0.161133 -0.11719,-0.05859 -0.20508,0 z m 4.40918,11.689454 q -0.62988,1.14258 -0.30761,1.53809 0.32226,0.3955 0.62988,0 0.32226,-0.39551 -0.32227,-1.53809 z m 3.42774,-8.452149 q -3.75,1.420898 -7.14844,0.05859 3.44238,-1.435547 7.14844,-0.05859 z m -4.36524,-0.541993 q 0.68848,-0.175781 1.50879,-0.0293 0.0147,0.439453 -0.13183,0.717773 -0.13184,0.27832 -0.36621,0.395508 -0.23438,0.102539 -0.52735,0 -0.29297,-0.117188 -0.4248,-0.410156 -0.13184,-0.292969 -0.0586,-0.673829 z m -3.31054,7.001954 q 1.08398,-0.966797 2.38769,-0.65918 -0.98144,0.922851 -2.38769,0.65918 z m 0.9082,-1.538086 q 0.9668,1.098632 0.65918,2.402343 -0.92285,-0.996093 -0.65918,-2.402343 z m -5.18555,-1.025391 q 1.08399,-0.966797 2.3877,-0.65918 -0.98145,0.922852 -2.3877,0.65918 z m 0.90821,-1.538086 q 0.96679,1.098633 0.65918,2.402344 -0.92286,-0.996094 -0.65918,-2.402344 z" />
      <path
         id="path38"
         style=""
         d="m 282.70996,85.878906 q -0.84961,-0.732422 -2.22656,-0.527344 -1.36231,0.205079 -4.39453,3.588868 l 0.4541,0.410156 q 1.96289,-1.801758 3.44238,0.878906 l 0.41016,0.834961 2.09472,4.760742 q -2.54882,1.289063 -3.73535,0.703125 -1.17187,-0.585937 -1.25976,-1.948242 -0.0732,-1.362305 2.24121,-2.841797 l -0.5127,-0.981445 q -3.88183,2.768555 -4.6875,4.145508 -0.79101,1.362304 -0.41015,2.988281 0.38086,1.611328 2.50488,2.036133 2.13867,0.424802 4.32129,-1.289063 l 2.09472,-1.655273 q 1.12793,2.885742 3.03223,3.281248 1.59668,-0.878904 3.8086,-3.706053 l -0.27833,-0.424805 q -0.9082,0.805665 -1.37695,0.336915 -0.46875,-0.483399 -0.76172,-1.215821 -0.27832,-0.732422 -2.09472,-4.6875 -1.80176,-3.969726 -2.66602,-4.6875 z m -6.85547,10.400391 q 0.35156,-0.175781 0.79102,0.0293 0.43945,0.190429 0.55664,0.585937 0.11719,0.395508 -0.0732,0.761719 -0.19043,0.366211 -0.52735,0.512695 -0.32226,0.146485 -0.71777,0 -0.38086,-0.146484 -0.57129,-0.541992 -0.17578,-0.395508 0,-0.776367 0.19043,-0.395508 0.54199,-0.571289 z m 0.71778,-6.972656 q 0.71777,1.318359 0.35156,1.757812 -0.35156,0.424805 -0.71778,-0.01465 -0.36621,-0.439453 0.36622,-1.743164 z m 7.16308,7.734375 q 2.3291,-1.142579 4.42383,-0.0293 -2.13867,1.142578 -4.42383,0.0293 z m 2.16797,-2.211914 q 1.14258,2.329101 0.0147,4.423828 -1.14258,-2.138672 -0.0147,-4.423828 z m -5.99121,-0.717774 q -0.10254,0.04394 -0.16113,0.175781 -0.0586,0.131836 0,0.263672 0.0586,0.117188 0.17578,0.175781 0.13183,0.04395 0.23437,0 0.11719,-0.05859 0.17578,-0.175781 0.0586,-0.117187 0.0147,-0.234375 -0.0293,-0.131836 -0.17578,-0.190429 -0.14648,-0.07324 -0.26367,-0.01465 z m -0.89356,-0.717773 q 0.45411,-0.234375 1.0254,0.0293 0.57128,0.263671 0.71777,0.776367 0.16113,0.498047 -0.0879,0.981445 -0.24903,0.46875 -0.67383,0.65918 -0.4248,0.190429 -0.92285,0.01465 -0.49805,-0.19043 -0.74707,-0.703125 -0.23438,-0.527344 0,-1.02539 0.24902,-0.498047 0.68847,-0.732422 z" />
    </g>
  </g>
</svg>
