<?xml version="1.0" encoding="UTF-8" standalone="no"?>
<svg
   xmlns:dc="http://purl.org/dc/elements/1.1/"
   xmlns:cc="http://creativecommons.org/ns#"
   xmlns:rdf="http://www.w3.org/1999/02/22-rdf-syntax-ns#"
   xmlns:svg="http://www.w3.org/2000/svg"
   xmlns="http://www.w3.org/2000/svg"
   id="svg16"
   width="800px"
   version="1.1"
   height="200px">
  <metadata
     id="metadata20">
    <rdf:RDF>
      <cc:Work
         rdf:about="">
        <dc:format>image/svg+xml</dc:format>
        <dc:type
           rdf:resource="http://purl.org/dc/dcmitype/StillImage" />
      </cc:Work>
    </rdf:RDF>
  </metadata>
  <defs
     id="defs4">
    <style
       id="style2"
       type="text/css"><![CDATA[    
     @font-face {font-family:Latchboy;
     src: url('/Users/francesco/Repos/write-logos/src/fonts/Latchboy.ttf');}
     @font-face {font-family:Dearest Dorothy;
     src: url('/Users/francesco/Repos/write-logos/src/fonts/Dearest_Dorothy.ttf');}
     ]]></style>
  </defs>
  <g
     id="g14"
     style="font-size:60px">
    <g
       style="text-anchor:middle"
       id="text12"
       aria-label="eXtemporanea">
      <path
         id="path22"
         style="font-family:Latchboy"
         d="m 311.14258,79.785156 q 2.69531,4.160156 2.69531,5.009766 l 0.14648,1.992187 v 0.117188 l -0.14648,0.146484 v 0.117188 q -2.10937,0 -7.06055,-1.962891 -1.75781,3.779297 -1.75781,5.126953 l 0.11719,2.519531 -0.11719,1.435547 q 0,1.582032 1.75781,4.101563 0.9668,1.435547 1.34766,1.435547 l 2.31445,0.146484 q 1.58203,0 2.46094,-1.845703 0,-2.080078 -1.49414,-5.683594 h -0.26367 q -1.78711,1.40625 -1.78711,2.373047 l 1.37695,0.527344 v -0.117188 l -0.14648,-0.673828 h 0.26367 l 0.55664,1.728516 h -0.14648 q -2.54883,-1.201172 -2.72461,-1.728516 l 2.05078,-2.753906 h 0.14648 q 2.05078,0.380859 2.57813,1.054687 l -0.14649,0.644532 0.55664,5.683593 q -1.78711,1.582033 -2.46093,1.582033 -4.62891,0 -5.7129,-1.992189 -0.82031,0 -2.43164,-4.746094 l -0.14648,-3.955078 0.14648,-1.435547 -0.14648,-0.410156 q 0,-0.908203 1.64062,-3.808594 -0.82031,0 -1.37695,-0.791015 v -0.527344 l 0.67383,-0.673828 h 0.14648 l 0.82032,0.791016 v 0.410156 h -0.55664 l -0.26368,-0.263672 v -0.146484 h 0.41016 l -0.41016,-0.38086 -0.41015,0.38086 v 0.410156 l 0.96679,0.263672 h 0.26368 q 1.17187,-2.900391 2.98828,-2.900391 2.46094,-1.201172 3.28125,-1.201172 z m -3.95508,5.009766 4.62891,1.201172 V 84.53125 q -0.9961,-3.544922 -2.19727,-3.544922 -1.02539,0 -1.9043,2.753906 -0.35156,0 -0.52734,1.054688 z" />
      <path
         id="path24"
         style="font-family:'Dearest Dorothy'"
         d="m 346.24023,56.142578 h 0.26368 q 1.58203,0 2.22656,2.197266 l 0.0879,0.732422 q 0,1.347656 -1.93359,2.109375 h -0.64454 q -1.875,0 -2.22656,-1.494141 0,-1.611328 1.46485,-2.138672 l 0.46875,-0.08789 q 1.49414,0.234375 1.49414,1.78711 v 0.351562 q -0.43946,0.527344 -0.9375,0.527344 h -0.46875 q -0.82032,-0.146484 -0.82032,-0.703125 0.11719,-0.615234 0.38086,-0.615234 h 0.43946 q 0.38086,0.146484 0.38086,0.527343 l 0.17578,-0.175781 v -0.08789 q 0,-0.46875 -0.43946,-0.908204 h -0.29297 q -0.70312,0 -1.02539,1.611329 0,0.410156 1.40625,0.703125 1.37696,-0.410157 1.37696,-1.054688 0.17578,0 0.17578,-0.615234 v -0.263672 q -0.35156,-1.523438 -1.28906,-1.523438 l -0.46875,-0.08789 q -1.02539,0 -2.49024,1.318359 -0.58594,0.673828 -1.37695,2.666016 0.82031,1.113281 0.82031,1.347656 -0.0293,0.46875 -2.31445,1.757812 -1.55274,1.259766 -2.19727,2.402344 -1.64062,0.908203 -3.25195,3.19336 -2.72461,2.578125 -4.24805,5.126953 l -0.26367,0.263672 v 0.703125 l 0.35156,0.527343 -0.0879,0.08789 2.40235,3.544922 q 0.8789,1.523437 2.40234,1.523437 0.52734,0.263672 1.02539,0.263672 1.14258,0 2.87109,-1.318359 l 0.64454,-1.435547 q -0.0879,-2.666016 -1.40625,-3.105469 l -0.55665,-0.08789 h -0.35156 q -2.16797,0 -2.40234,2.138671 l -0.0879,0.351563 q 0,0.996094 1.28906,1.318359 1.66992,-0.498047 1.66992,-1.318359 -0.46875,-1.054688 -0.84961,-1.054688 -0.73242,0 -0.73242,0.615235 v 0.08789 l 0.26367,0.263672 q 0,-0.703125 0.29297,-0.703125 h 0.26367 q 0.29297,0 0.29297,0.351563 -0.0879,1.142578 -1.02539,1.142578 -0.9082,-0.380859 -0.9082,-1.054688 0,-0.732421 1.08398,-1.523437 h 0.67383 q 0.9082,0.46875 1.55274,1.523437 v 0.351563 q 0,1.025391 -1.84571,2.138672 h -0.0879 q -2.7832,-0.410156 -2.7832,-2.138672 v -0.08789 q 0,-2.109375 2.31445,-3.28125 h 0.46875 q 2.92969,0.38086 3.22266,1.31836 0.76172,1.083984 0.76172,1.699218 v 0.175782 q -0.32227,1.699218 -1.02539,2.578125 0,0.644531 -1.9336,1.669922 -1.02539,0.439453 -1.75781,0.439453 l -1.20117,-0.175782 q 0.84961,1.611329 1.28906,1.875 0.41016,0.117188 0.82031,1.230469 l 3.8086,3.720703 q 1.02539,0.791016 2.02148,0.791016 l 0.17578,0.527344 q 0,0.292968 -2.57812,0.46875 l -4.98047,-0.46875 -1.02539,0.292968 h -0.0879 q -1.11328,0 -1.11328,-0.644531 l 0.55664,-0.703125 v -0.966797 l -1.84571,-3.896484 q -1.66992,-1.113281 -1.66992,-1.611328 h -0.17578 q -3.07617,0.644531 -3.07617,1.787109 -0.9961,1.171875 -0.9961,2.109375 v 0.38086 q 0.14649,1.933593 1.84571,1.933593 2.54883,0 2.87109,-1.845703 v -0.08789 q 0,-1.78711 -1.58203,-1.78711 l -0.26367,-0.08789 h -0.20508 q -0.38086,0 -0.99609,1.40625 v 0.644531 q 0,0.205078 0.82031,0.439453 0.55664,-0.146484 0.55664,-0.703125 l -0.0879,-0.117188 h -0.0879 l -0.20508,0.205079 h -0.17578 l -0.26367,-0.292969 q 0,-0.703125 0.73242,-0.703125 h 0.26367 q 0.64453,0.292969 0.64453,1.347656 0,0.46875 -0.99609,0.966797 h -0.55664 q -1.49414,-0.234375 -1.49414,-1.40625 v -0.292969 q 0,-1.289062 1.8457,-2.285156 h 0.29297 q 2.22656,0 2.66601,2.753906 v 0.791016 q -0.41015,1.904297 -3.13476,2.109375 h -0.82031 q -2.8711,-0.732422 -2.8711,-2.285156 v -0.703125 q 0,-3.19336 3.51563,-4.980469 l 0.99609,-0.263672 q -0.23437,-0.644531 -2.19726,-2.841797 0,0.615234 -1.58204,2.402344 -4.30664,5.537109 -4.33593,7.792969 0.49804,0 0.64453,0.351562 v 0.439453 l -0.29297,0.263672 0.0879,0.08789 v 0.08789 q 0,0.38086 -4.51172,0.46875 l -0.84961,-0.08789 -1.72851,0.08789 q -0.70313,0 -0.9375,-0.46875 v -0.263672 q 0.38086,-0.322265 0.38086,-0.527343 l 0.35156,-0.263672 0.46875,0.08789 q 0.67383,-0.439453 1.37695,-1.318359 2.08008,-1.699219 2.51953,-2.929687 0.52735,-0.38086 0.82032,-1.31836 0.52734,0 1.58203,-2.402344 0.43945,-2.226562 0.43945,-3.544921 -0.9375,-3.544922 -2.02148,-3.544922 -0.29297,-0.351563 -0.9375,-0.351563 h -0.35157 q -2.60742,0.527344 -2.60742,1.582031 l -0.35156,1.611329 q 0.32226,1.757812 1.75781,1.757812 h 0.0879 q 1.66992,0 1.66992,-2.197266 v -0.08789 q 0,-0.9375 -1.28906,-1.083985 -0.9375,0.146485 -0.9375,0.908204 v 0.439453 q 0,0.703125 0.73242,0.703125 h 0.0879 l 0.11719,-0.439453 v -0.351563 h -0.11719 q 0,0.351563 -0.26367,0.351563 h -0.0879 l -0.38086,-0.351563 v -0.263672 l 0.46875,-0.439453 h 0.46875 q 0.64453,0.380859 0.64453,0.878906 v 0.351563 q 0,0.585937 -0.84961,1.054687 -1.75781,-0.322265 -1.75781,-1.582031 0,-1.318359 1.20117,-1.875 l 0.9375,-0.263672 q 1.84571,0.439453 1.84571,2.666016 v 0.439453 q 0,1.171875 -1.28907,1.757812 l -0.82031,0.292969 h -0.46875 q -1.64062,0 -2.49023,-2.314453 v -0.175781 q 0,-2.783203 1.93359,-3.808594 0.76172,-0.351562 1.28906,-0.351562 3.10547,0 4.7168,3.720703 0.14648,1.054687 0.46875,1.054687 0.99609,-1.259765 1.28906,-2.402344 l 0.0879,-0.08789 v -0.791016 q -0.49804,-1.347656 -1.20117,-2.109375 0,-0.644531 -1.37695,-2.314453 -0.9668,-2.636719 -2.13867,-3.28125 -0.67383,-0.673828 -1.46485,-2.138672 -2.19726,-2.255859 -2.60742,-2.373047 -0.41016,0 -1.11328,-0.439453 h -0.0879 l 0.0879,-0.46875 -0.26367,-0.263672 v -0.08789 q 0.20508,-0.439453 1.02539,-0.439453 2.51953,0.439453 3.39844,0.439453 h 3.04687 q 0.79102,0 1.31836,0.351562 -0.64453,0.84961 -1.31836,1.083985 l -0.43945,0.439453 v 0.08789 q 0.46875,0.761719 1.11328,1.31836 0,0.263672 0.55664,0.820312 0.64453,-1.376953 2.19726,-2.314453 1.25977,-0.527344 1.75782,-0.527344 h 0.73242 q 2.02148,0 2.7832,1.845703 v 0.08789 q 0,3.222656 -2.02148,3.896484 l -0.76172,0.08789 q -2.16797,0 -2.66602,-1.933594 v -0.175781 q 0,-1.845703 2.02149,-2.314453 h 0.55664 q 0.55664,0 1.11328,0.878906 v 0.908203 q 0,0.732422 -1.28906,1.230469 h -0.29297 q -0.9082,-0.175781 -0.9082,-0.878906 v -0.08789 q 0,-0.527344 0.55664,-0.908203 h 0.46875 l 0.26367,0.292969 v 0.175781 q 0,0.263672 -0.55664,0.263672 v 0.263672 l 0.17578,0.175781 h 0.29297 q 0.55664,-0.234375 0.55664,-0.703125 v -0.46875 l -0.46875,-0.527344 h -0.17578 q -1.08399,0 -1.49414,1.611328 0,1.230469 1.49414,1.230469 h 0.35156 q 1.14258,0 1.58203,-1.054687 0.26367,0 0.46875,-1.259766 -0.58594,-2.021484 -2.05078,-2.021484 -1.43555,0 -3.13477,1.49414 -0.82031,0.9375 -0.82031,1.875 0,0.527344 1.55274,2.666016 1.46484,2.490234 1.8457,2.548828 0.8789,0 2.31445,-2.197266 0.55664,-0.410156 2.40235,-2.929687 l 2.60742,-2.314453 q 1.46484,-1.025391 1.46484,-1.933594 h -0.0879 l -0.26367,-0.263672 v -0.46875 l 0.17578,-0.263672 1.02539,0.08789 3.13477,-0.08789 q 0.96679,-0.439453 1.93359,-2.988281 1.02539,-2.578125 3.89648,-2.578125 z" />
      <path
         id="path26"
         style="font-family:Latchboy"
         d="m 353.76953,70.46875 0.9375,0.820312 v 0.117188 l -0.23437,0.234375 q 0,-0.205078 -0.82032,-0.46875 -1.37695,0.46875 -2.69531,4.804687 l 0.11719,0.703125 q -0.70313,1.523438 -1.17188,4.21875 h 0.35157 l 2.8125,-0.585937 1.28906,1.523437 q -0.23438,0 -1.28906,1.757813 h -0.11719 l -1.64063,-1.523438 v -0.117187 l 0.9375,-0.234375 -0.23437,0.351562 0.35156,0.351563 0.58594,-0.117188 -0.11719,-0.117187 V 81.25 l -1.17187,-0.117188 q -2.34375,0 -2.34375,1.640625 -0.29297,0.146485 -0.46875,2.695313 l 0.58593,3.164062 q 0.23438,0 0.23438,0.351563 l -1.64063,10.429687 q 2.92969,1.962888 5.03907,3.749998 4.83398,3.16407 5.85937,3.16407 l 1.28906,-1.05469 q 0.35157,0 0.35157,-0.46875 0,-0.9375 -0.82032,-0.9375 0,-0.23438 -1.17187,-0.23438 0.26367,1.02539 0.58594,1.28907 l 0.35156,-0.11719 v -0.23438 h -0.11719 l -0.35156,0.11719 v -0.11719 q 0.23437,-0.46875 0.70312,-0.46875 l 0.58594,0.82032 q 0,0.23437 -1.40625,0.58593 -1.17187,-1.28906 -1.17187,-2.34375 l 0.11718,-0.11718 h 0.11719 q 2.49024,0 3.39844,0.46875 0,1.28906 -0.82031,2.69531 -0.46875,1.23047 -0.46875,1.99219 h -0.23438 q -1.37695,-1.84571 -9.72656,-5.74219 0,-0.20508 -3.04688,-1.75781 l -0.58593,-0.46875 v -0.11719 l 0.58593,-3.750003 0.46875,-5.390625 V 89.6875 l 0.46875,-1.40625 v -0.234375 q 0,-0.380859 -0.35156,-0.820313 v -0.46875 l 0.11719,-1.171875 -0.11719,-0.703125 q 0.23438,-0.732421 0.35156,-3.046875 h -0.11718 q -1.9043,0.703125 -3.16407,0.820313 -0.11718,-0.410156 -1.99218,-1.757813 l 2.22656,-1.757812 0.58594,1.054687 -0.11719,0.117188 h -0.11719 q -0.23437,0 -0.23437,-0.46875 l -0.70313,0.585937 0.35156,0.820313 h 0.11719 l 0.35156,-0.234375 0.70313,0.117187 2.10937,-0.117187 h 0.23438 v -0.9375 l -0.23438,-0.234375 0.23438,-2.695313 q 0,-2.285156 -1.40625,-4.570312 -0.9082,-0.585938 -1.52344,-0.585938 l -0.35156,0.351563 0.11719,0.117187 V 72.8125 q -0.46875,-0.175781 -0.70313,-0.585938 v -0.117187 q 0,-0.410156 0.46875,-0.9375 l 2.46094,0.46875 q 3.07617,0 6.44531,-1.171875 z" />
      <path
         id="path28"
         style="font-family:Latchboy"
         d="m 362.23633,79.785156 q 2.69531,4.160156 2.69531,5.009766 l 0.14648,1.992187 v 0.117188 l -0.14648,0.146484 v 0.117188 q -2.10937,0 -7.06055,-1.962891 -1.75781,3.779297 -1.75781,5.126953 l 0.11719,2.519531 -0.11719,1.435547 q 0,1.582032 1.75781,4.101563 0.9668,1.435547 1.34766,1.435547 l 2.31445,0.146484 q 1.58203,0 2.46094,-1.845703 0,-2.080078 -1.49414,-5.683594 h -0.26367 q -1.78711,1.40625 -1.78711,2.373047 l 1.37695,0.527344 v -0.117188 l -0.14648,-0.673828 h 0.26367 L 362.5,96.279297 h -0.14648 q -2.54883,-1.201172 -2.72461,-1.728516 l 2.05078,-2.753906 h 0.14648 q 2.05078,0.380859 2.57813,1.054687 l -0.14649,0.644532 0.55664,5.683593 q -1.78711,1.582033 -2.46093,1.582033 -4.62891,0 -5.7129,-1.992189 -0.82031,0 -2.43164,-4.746094 l -0.14648,-3.955078 0.14648,-1.435547 -0.14648,-0.410156 q 0,-0.908203 1.64062,-3.808594 -0.82031,0 -1.37695,-0.791015 V 83.095703 L 355,82.421875 h 0.14648 l 0.82032,0.791016 v 0.410156 h -0.55664 l -0.26368,-0.263672 v -0.146484 h 0.41016 l -0.41016,-0.38086 -0.41015,0.38086 v 0.410156 l 0.96679,0.263672 h 0.26368 q 1.17187,-2.900391 2.98828,-2.900391 2.46094,-1.201172 3.28125,-1.201172 z m -3.95508,5.009766 4.62891,1.201172 V 84.53125 q -0.9961,-3.544922 -2.19727,-3.544922 -1.02539,0 -1.9043,2.753906 -0.35156,0 -0.52734,1.054688 z" />
      <path
         id="path30"
         style="font-family:Latchboy"
         d="m 363.81836,76.533203 q 2.63672,1.728516 3.63281,1.728516 l 1.14258,-0.263672 q 0,0.263672 0.76172,0.527344 v 0.117187 q 0,0.410156 -1.14258,0.673828 l -0.11719,-0.117187 v -0.146485 l 0.11719,-0.117187 h 0.11719 l 0.14648,0.117187 0.23438,-0.410156 h -0.11719 l -0.64453,0.146484 v 2.402344 l 0.14648,0.644531 q 0.43946,0 4.27735,-2.373046 l 2.51953,-1.201172 q 2.51953,2.197265 2.51953,3.310547 2.87109,-1.962891 5.91797,-3.457032 h 0.49804 q 1.43555,0.732422 1.64063,1.083985 v 3.164062 q 0,2.783203 -0.38086,4.775391 l 0.26367,1.728515 q -0.52734,2.607422 -1.52344,5.039063 l -0.61523,4.130859 0.35156,1.464844 -0.49804,0.644527 0.49804,1.46485 -0.23437,1.58203 q 0,0.55664 1.37695,2.51953 0,0.99609 1.75781,1.875 0.11719,0.35156 1.64063,1.17188 0.61523,0 2.51953,-2.63672 -1.28906,-3.04688 -2.63672,-3.04688 l -0.76172,-0.14648 -0.99609,2.10937 v 0.14649 q 1.02539,1.31836 1.25976,1.31836 1.49414,0 1.49414,-1.46485 -0.20507,-0.58593 -0.73242,-0.9082 h -0.52734 q -0.49805,0.20508 -0.49805,0.9082 l 0.38086,0.29297 0.49805,-0.29297 q 0,-0.26367 -0.61524,-0.26367 l 0.38086,-0.38086 q 0.73243,0.29297 0.73243,0.52735 v 0.67382 q 0,0.26368 -1.11329,0.52735 l -0.8789,-1.08399 v -0.11718 q 0,-1.46485 1.99219,-1.46485 0.0586,0.32227 1.14257,1.46485 -0.17578,2.10937 -1.49414,2.10937 l -1.02539,0.41016 -1.64062,-2.40235 q 0.76172,-2.7832 1.14258,-2.7832 h 2.51953 q 0.76172,0.76172 2.13867,3.7207 -1.23047,3.31055 -2.13867,3.31055 l -2.02149,0.29297 q -3.48633,-2.66602 -4.54101,-5.5957 l -0.49805,-0.90821 0.26367,-1.34765 -0.14648,-0.38086 0.14648,-0.14649 v -0.11719 l -0.14648,-0.82031 V 100 l 0.26367,-0.908203 -0.61524,-0.791016 q 0.73243,-2.373047 1.61133,-8.232422 v -0.527343 l 0.14649,-0.146485 -0.14649,-0.117187 0.14649,-0.673828 v -1.992188 l 0.11718,-0.527344 -0.38085,-1.845703 0.26367,-4.130859 -1.40625,-0.527344 -0.35157,0.410156 -0.14648,-0.146484 h -0.11719 q -1.25976,1.376953 -3.39843,3.046875 -0.49805,1.171875 -1.14258,4.511719 l -0.61524,1.201172 0.11719,0.9375 v 0.527343 q 0,0.644532 -0.87891,2.929688 l -0.49804,2.783203 0.38086,2.929687 h 0.99609 v 0.263672 q -0.38086,0 -0.87891,0.644532 l -3.77929,-1.845704 -0.49805,0.117188 h -0.11719 q -0.29297,0 -0.38086,-1.318359 h 0.11719 q 0.61524,0.46875 1.49414,0.673828 1.78711,-0.9375 1.78711,-3.603516 1.11328,-4.804687 1.37695,-9.140625 l 0.11719,-0.146484 q -0.35156,-0.46875 -0.49805,-3.310547 l -1.52343,-1.31836 q -5.91797,3.046875 -5.91797,5.15625 l -0.11719,1.992188 0.26367,1.611328 -0.14648,2.255859 h -0.11719 l 0.11719,0.117188 v 0.146484 l -0.23438,2.25586 0.23438,4.248047 q 0.76172,1.875 1.14258,4.892574 1.25976,1.96289 1.25976,2.78321 v 0.14648 h -0.23437 l -1.52344,-2.66601 q -0.87891,-2.37305 -1.52344,-5.683598 -0.73242,-1.582031 -0.73242,-2.25586 l 0.23438,-2.255859 -0.23438,-3.603516 0.35156,-2.109375 v -0.791015 l -0.73242,-5.185547 h 0.11719 q -0.70313,-2.402344 -1.37695,-2.402344 l -1.37696,-0.117187 q 0.17578,1.318359 1.14258,1.318359 l 0.11719,-0.117187 v -0.263672 q -0.49805,0 -0.49805,-0.410157 h 0.23438 q 0.58593,0.234375 0.8789,0.791016 l -0.61523,0.673828 q -1.58203,-0.644531 -2.02149,-1.992187 l -0.26367,-0.791016 v -0.263672 z" />
      <path
         id="path32"
         style="font-family:Latchboy"
         d="m 397.01172,70.556641 q 1.875,0.263671 3.48633,1.904296 1.58203,1.201172 3.04687,4.042969 0,0.46875 -1.37695,2.695313 0,1.669922 -1.81641,2.021484 -0.64453,0.615234 -3.48633,2.167969 l -3.33984,-0.9375 v 0.263672 l 0.14648,1.347656 h -0.14648 l -0.14648,-0.117188 h -0.14649 v 1.757813 l -0.14648,0.117187 q 1.20117,2.167969 1.20117,3.66211 v 0.380859 q 0,0.38086 -1.34766,2.314453 l -0.17578,0.410157 1.37695,7.529299 v 1.64062 q 0,0.79102 -0.9082,2.8418 l 1.52344,3.89648 q -0.9668,3.8086 -1.23047,3.8086 l -4.6875,-2.05078 -2.13867,-0.79102 q 0,-0.38086 3.33984,-3.10547 h 0.32227 q 0.8789,0.43946 2.25586,1.75781 -0.29297,0.52735 -2.72461,1.46485 l -0.61524,-0.79102 v -0.14648 q 0,-0.73242 0.76172,-1.08399 0.70313,0.26368 0.76172,0.55664 l -0.14648,0.67383 h -0.29297 l -0.46875,-0.41015 v -0.14649 h 0.29297 v 0.26367 l 0.17578,-0.11718 h 0.14648 l -0.14648,-0.41016 h -0.32227 q -0.29297,0 -0.43945,0.82031 h 0.14648 l 0.61524,0.11719 h 0.14648 l 0.90821,-0.79102 -1.37696,-0.82031 q -0.43945,0 -1.8164,1.875 0.23437,0.29297 2.72461,1.08399 1.55273,1.08398 1.99218,1.08398 v -0.11719 l 0.58594,-2.43164 q -1.40625,-2.57812 -1.81641,-4.33593 v -0.14649 q 0.20508,0 0.61524,-1.34766 l 0.29297,-0.26367 v -3.486326 q -1.20117,-4.77539 -1.20117,-6.210937 V 91.09375 q 0.41015,-2.167969 0.76171,-2.167969 l -1.37695,-3.632812 q 0.29297,-1.611328 0.29297,-4.072266 0,-2.753906 -0.73242,-7.822266 h -0.17578 q -1.875,0 -2.72461,1.201172 0.0879,0.322266 1.05468,0.673828 l 0.61524,-0.673828 v 0.292969 l -0.9082,1.347656 h -0.14649 l -1.66992,-2.021484 3.19336,-1.757813 q 0,-0.9375 7.41211,-1.904296 z m -4.54102,4.599609 0.29297,1.611328 -0.14648,2.314453 0.61523,2.431641 h 0.14649 q 0,-1.083985 0.29296,-1.083985 h 1.08399 l 0.29297,0.263672 v 0.527344 h -0.14649 q -0.29297,0 -0.29297,-0.410156 h -0.76171 v 0.292969 q 0,1.083984 2.43164,1.347656 l 4.07226,-2.314453 q 0,-0.84961 1.81641,-3.486328 l -0.14649,-0.146485 q -1.34765,-0.410156 -1.34765,-1.611328 0,-1.201172 -2.28516,-2.578125 l -1.37695,-0.527344 -3.63281,0.673828 q -0.43946,0.38086 -0.43946,1.201172 -0.46875,0 -0.46875,1.494141 z" />
      <path
         id="path34"
         style="font-family:Latchboy"
         d="m 411.98242,76.533203 h 0.70313 q 0.46875,0 3.98437,1.845703 l 0.29297,0.46875 h -0.14648 l -3.86719,-1.552734 h -0.14649 q -3.83789,2.8125 -6.62109,8.583984 0.35156,1.289063 1.23047,2.460938 0.26367,0.878906 3.75,5.683593 0.0293,0.585938 3.04687,4.277344 h 0.11719 q 3.42774,-3.36914 4.30664,-5.654297 0.20508,-0.117187 1.78711,-4.30664 -0.82031,-4.746094 -1.78711,-4.746094 -3.80859,-2.753906 -4.71679,-2.753906 -2.02149,0.615234 -4.83399,4.746093 0.61524,4.072266 2.90039,6.884766 2.34375,2.167969 2.90039,2.167969 2.8125,-4.21875 3.31055,-6.591797 -1.25977,-3.984375 -3.01758,-3.984375 0,-0.263672 -1.25976,-0.46875 -1.31836,0.556641 -2.9004,3.515625 0.43946,3.076172 1.66993,3.076172 l 2.7539,0.908203 1.37696,-3.369141 q -0.38086,-1.054687 -1.37696,-2.138672 h -2.19726 l -0.29297,2.138672 1.37695,1.376953 q 1.11328,-0.615234 1.11328,-1.845703 l -0.82031,-0.292968 -0.29297,0.908203 0.70313,-0.146485 -0.55664,0.615235 -0.82032,-0.761719 q 0.32227,-0.820313 1.37696,-1.376953 h 0.14648 q 0.41016,0.175781 1.08399,1.669922 v 0.175781 l -1.78711,2.138672 q -2.16797,-1.904297 -2.34375,-2.460938 v -0.615234 q 0.41015,-2.285156 0.82031,-2.285156 h 3.04687 q 0.73243,0 1.64063,4.453125 -2.43164,2.753906 -2.75391,3.515625 -4.42383,-3.28125 -4.42383,-3.984375 l -0.26367,-2.314453 v -1.230469 q 4.45313,-3.369141 5.39063,-3.369141 2.57812,2.607422 3.86718,5.830078 v 0.46875 q -2.28515,4.716797 -2.34375,6.298828 l -2.49023,2.285157 Q 409.81445,92.5 409.22852,89.101562 q -0.55665,-0.820312 -1.11329,-3.36914 v -0.46875 q 1.9043,-3.925781 5.94727,-6.269531 3.54492,1.083984 6.06445,4.130859 2.63672,3.164062 2.63672,4.453125 v 0.146484 q -0.9082,1.259766 -1.66992,3.222657 l -4.83398,7.207031 -0.9668,1.699219 L 415.17578,100 h -0.14648 q -2.75391,-1.142578 -2.75391,-1.992188 -0.26367,0 -0.84961,-1.083984 -0.26367,0 -2.90039,-3.515625 -1.20117,-0.234375 -4.98047,-4.921875 l -0.26367,-0.761719 q 2.34375,-4.160156 4.57031,-6.591797 z" />
      <path
         id="path36"
         style="font-family:Latchboy"
         d="m 434.6875,76.533203 q 1.8457,0.615234 2.37305,2.167969 0.70312,1.523437 0.70312,2.197265 0,1.171875 -2.66601,5.273438 l -1.11329,0.791016 h -0.14648 q -0.9668,-0.292969 -3.36914,-3.28125 v -0.292969 q 0.29297,-2.431641 1.55273,-3.75 2.66602,0 2.66602,1.083984 l 0.26367,1.552735 v 0.175781 l -1.52344,2.167969 h -0.29296 l -1.40625,-1.40625 v -0.146485 q 0.38085,-1.875 0.70312,-1.875 h 1.14258 q 0.41015,0.117188 0.41015,1.259766 l -0.70312,0.615234 -0.70313,-0.615234 0.14649,-0.46875 h 0.26367 v 0.615234 l 0.29297,-0.322265 v -0.292969 q 0,-0.263672 -0.70313,-0.46875 l -0.29296,1.40625 v 0.146484 l 0.84961,0.615235 0.43945,0.175781 v -0.175781 l 0.82031,-1.552735 -0.70312,-1.699219 h -1.66993 q -0.46875,0.175782 -0.70312,3.574219 2.28516,1.699219 2.8125,1.699219 h 0.11719 q 0.38086,0 1.96289,-5.126953 -0.9961,-2.636719 -2.08008,-2.636719 -0.99609,-0.117187 -0.99609,-0.322266 -2.78321,1.933594 -4.48243,5.449219 l -0.14648,1.230469 v 2.8125 l 0.43945,0.46875 -0.14648,0.761719 v 1.875 l 0.14648,0.9375 -0.14648,0.46875 q 0.84961,0.380859 0.84961,0.9375 l 0.26367,4.042968 Q 429.23828,97.568359 428.65234,100 l -1.25976,1.72852 q -0.84961,-0.43946 -0.84961,-1.11329 h 0.14648 l 0.55664,0.32227 1.55274,-2.783203 -0.14649,-0.146485 v -0.791015 l 0.14649,-0.146485 v -0.175781 l -0.29297,-0.292969 v -1.259765 l 0.14648,-0.146485 q -0.26367,-2.753906 -1.25976,-3.574218 l -0.55664,-3.427735 0.29297,-2.636718 q -0.43946,-0.146485 -0.43946,-0.9375 v -1.40625 q 0,-1.728516 -0.96679,-4.335938 -0.38086,0.146484 -1.25977,1.552734 0.0879,1.230469 0.26367,1.230469 0.43946,0 0.43946,-0.9375 0.32226,0 0.41015,1.083985 l -1.55273,1.40625 h -0.11719 l -0.29297,-5.888672 1.55274,-0.644532 3.07617,2.666016 h 0.14648 q 0.67383,0 3.07617,-2.197266 1.37696,0 3.22266,-0.615234 z" />
      <path
         id="path38"
         style="font-family:Latchboy"
         d="m 448.66211,74.775391 q 1.99219,0.673828 2.37305,1.523437 l 0.41015,0.615234 -0.14648,0.146485 0.29297,3.076172 -0.14649,1.669922 0.14649,4.130859 q 0,1.523437 -0.43946,2.138672 v 1.845703 l -0.26367,3.193359 q 0.46875,0 0.9668,6.591797 l 0.70312,1.201169 v 0.46875 q -0.96679,-0.9082 -1.40625,-2.900388 -0.20507,0 -0.67382,-4.130859 -0.29297,0 -0.9961,3.046875 -2.34375,1.699219 -5.15625,1.699219 0,-0.205078 -1.11328,-0.615235 l -3.7793,-4.130859 q 0,-0.439453 -0.84961,-1.054687 l -0.96679,-1.845704 v -1.083984 q 4.48242,-5.683594 6.15234,-7.177734 0.17578,-0.673828 3.07617,-1.845703 h 0.11719 q 2.46094,2.460937 2.95898,2.460937 0.46875,0 1.11329,-3.515625 -0.26368,-4.130859 -1.40625,-4.130859 h -0.84961 q -0.58594,0 -0.82032,0.615234 0.26368,2.138672 0.70313,2.138672 h 0.11719 q 0.84961,-0.615234 0.99609,-1.083984 v -0.292969 l -0.29297,-0.46875 0.14649,-0.146485 h 0.41015 q 0.43946,0.146485 0.43946,0.908204 -1.46485,1.787109 -2.10938,2.138671 -1.11328,-1.083984 -1.11328,-2.578125 0,-2.607421 1.40625,-2.607421 z m 0.41016,1.992187 h 0.41015 v 0.292969 q -0.55664,0 -0.55664,0.322265 v 0.146485 l 0.14649,0.146484 v 0.146485 l -0.14649,0.175781 h -0.14648 l -0.11719,-0.175781 v -0.585938 z m -9.34571,14.677734 v 0.146485 l 3.75,3.222656 q 0.46875,0 1.25977,0.908203 1.43554,0.615235 2.22656,0.615235 0.99609,0 0.99609,-1.523438 0.32227,-0.175781 1.66993,-3.984375 l 0.55664,-2.607422 v -1.669922 q -2.49024,-3.398437 -3.22266,-3.662109 -1.9043,0 -3.19336,2.431641 -0.0586,0.761718 -2.10937,3.046875 -0.32227,1.201171 -1.52344,2.314453 z m 12.97852,10.078128 h 0.26367 l 0.29297,0.29297 -0.14649,0.17578 -0.41015,-0.17578 z" />
      <path
         id="path40"
         style="font-family:Latchboy"
         d="m 453.4082,76.533203 q 2.13867,1.875 4.7168,1.875 l 0.67383,-0.146484 v 0.146484 l -0.55664,1.025391 -1.08399,-0.439453 v 0.146484 l -0.14648,0.585937 v 2.900391 h 0.14648 q 1.875,-1.992187 4.98047,-3.046875 l 3.31055,-1.464844 2.63672,1.171875 -0.29297,2.607422 1.52344,7.119141 v 0.146484 q -2.63672,3.251953 -3.04688,6.972656 -0.61523,1.552735 -2.08008,3.339844 l -0.11718,0.439453 q 0,2.724611 1.52343,2.724611 l 4.6875,3.92578 h 0.14649 l 2.49023,-1.02539 v -3.04688 q -0.11719,-0.46875 -1.66992,-1.14257 l -1.11328,2.02148 1.8164,0.87891 0.41016,-0.43946 0.14649,0.14649 v 0.14648 q -0.23438,0 -0.55665,0.84961 h -0.14648 q -0.38086,0 -2.08008,-1.28906 h -0.14648 v -0.29297 q 0,-0.67383 1.40625,-2.90039 0.52734,0 2.19726,1.02539 0.64453,0 1.11328,4.77539 l -4.16015,1.46485 q -4.45313,-3.54493 -6.35742,-4.51172 l -1.11328,-2.75391 h 0.14648 l -0.14648,-0.14648 v -0.29297 q 2.7832,-6.826175 2.7832,-7.822269 l 0.82031,-2.314453 q 0.38086,0 0.9668,-3.046875 -1.78711,-4.628906 -1.78711,-5.947266 -0.32227,-0.205078 -0.70313,-1.318359 -1.90429,0.439453 -3.7207,1.318359 -3.60352,4.511719 -3.60352,5.06836 v 0.732422 l 0.14649,1.582031 q -0.23438,0 -0.41016,5.654297 -0.84961,1.376953 -0.84961,4.21875 0.84961,2.929683 0.84961,3.750003 -0.52734,1.11328 -1.25976,1.61133 v -0.14649 l 0.41015,-1.17187 q 0,-2.16797 -0.96679,-3.896489 l -0.14649,-2.021484 q 0.35156,0 0.70313,-3.779297 0,-3.222656 -0.82032,-5.800781 l 0.11719,-2.34375 q -0.26367,-0.556641 -0.41015,-4.482422 l -1.11329,-2.167969 -0.67382,0.146484 0.41015,0.556641 -0.11718,0.146484 h -0.14649 q -0.70312,-0.55664 -0.70312,-1.289062 z" />
      <path
         id="path42"
         style="font-family:Latchboy"
         d="m 478.25195,79.785156 q 2.69532,4.160156 2.69532,5.009766 l 0.14648,1.992187 v 0.117188 l -0.14648,0.146484 v 0.117188 q -2.10938,0 -7.06055,-1.962891 -1.75781,3.779297 -1.75781,5.126953 l 0.11718,2.519531 -0.11718,1.435547 q 0,1.582032 1.75781,4.101563 0.9668,1.435547 1.34765,1.435547 l 2.31446,0.146484 q 1.58203,0 2.46094,-1.845703 0,-2.080078 -1.49415,-5.683594 h -0.26367 q -1.78711,1.40625 -1.78711,2.373047 l 1.37696,0.527344 v -0.117188 l -0.14649,-0.673828 h 0.26367 l 0.55664,1.728516 h -0.14648 q -2.54883,-1.201172 -2.72461,-1.728516 l 2.05078,-2.753906 h 0.14649 q 2.05078,0.380859 2.57812,1.054687 l -0.14648,0.644532 0.55664,5.683593 q -1.78711,1.582033 -2.46094,1.582033 -4.62891,0 -5.71289,-1.992189 -0.82031,0 -2.43164,-4.746094 l -0.14649,-3.955078 0.14649,-1.435547 -0.14649,-0.410156 q 0,-0.908203 1.64063,-3.808594 -0.82031,0 -1.37695,-0.791015 v -0.527344 l 0.67382,-0.673828 h 0.14649 l 0.82031,0.791016 v 0.410156 h -0.55664 l -0.26367,-0.263672 v -0.146484 h 0.41016 l -0.41016,-0.38086 -0.41016,0.38086 v 0.410156 l 0.9668,0.263672 h 0.26367 q 1.17188,-2.900391 2.98828,-2.900391 2.46094,-1.201172 3.28125,-1.201172 z m -3.95508,5.009766 4.62891,1.201172 V 84.53125 q -0.99609,-3.544922 -2.19726,-3.544922 -1.0254,0 -1.9043,2.753906 -0.35156,0 -0.52735,1.054688 z" />
      <path
         id="path44"
         style="font-family:Latchboy"
         d="m 492.37305,74.775391 q 1.99218,0.673828 2.37304,1.523437 l 0.41016,0.615234 -0.14648,0.146485 0.29296,3.076172 -0.14648,1.669922 0.14648,4.130859 q 0,1.523437 -0.43945,2.138672 v 1.845703 l -0.26367,3.193359 q 0.46875,0 0.9668,6.591797 l 0.70312,1.201169 v 0.46875 q -0.9668,-0.9082 -1.40625,-2.900388 -0.20508,0 -0.67383,-4.130859 -0.29297,0 -0.99609,3.046875 -2.34375,1.699219 -5.15625,1.699219 0,-0.205078 -1.11328,-0.615235 l -3.7793,-4.130859 q 0,-0.439453 -0.84961,-1.054687 l -0.9668,-1.845704 v -1.083984 q 4.48243,-5.683594 6.15235,-7.177734 0.17578,-0.673828 3.07617,-1.845703 h 0.11719 q 2.46094,2.460937 2.95898,2.460937 0.46875,0 1.11328,-3.515625 -0.26367,-4.130859 -1.40625,-4.130859 h -0.84961 q -0.58593,0 -0.82031,0.615234 0.26367,2.138672 0.70313,2.138672 h 0.11718 q 0.84961,-0.615234 0.9961,-1.083984 v -0.292969 l -0.29297,-0.46875 0.14648,-0.146485 H 493.75 q 0.43945,0.146485 0.43945,0.908204 -1.46484,1.787109 -2.10937,2.138671 -1.11328,-1.083984 -1.11328,-2.578125 0,-2.607421 1.40625,-2.607421 z m 0.41015,1.992187 h 0.41016 v 0.292969 q -0.55664,0 -0.55664,0.322265 v 0.146485 l 0.14648,0.146484 v 0.146485 l -0.14648,0.175781 h -0.14649 l -0.11718,-0.175781 v -0.585938 z m -9.3457,14.677734 v 0.146485 l 3.75,3.222656 q 0.46875,0 1.25977,0.908203 1.43554,0.615235 2.22656,0.615235 0.99609,0 0.99609,-1.523438 0.32227,-0.175781 1.66992,-3.984375 l 0.55664,-2.607422 v -1.669922 q -2.49023,-3.398437 -3.22265,-3.662109 -1.9043,0 -3.19336,2.431641 -0.0586,0.761718 -2.10938,3.046875 -0.32226,1.201171 -1.52343,2.314453 z m 12.97852,10.078128 h 0.26367 l 0.29297,0.29297 -0.14649,0.17578 -0.41015,-0.17578 z" />
    </g>
  </g>
</svg>
