<?xml version="1.0" encoding="UTF-8" standalone="no"?>
<svg
   xmlns:dc="http://purl.org/dc/elements/1.1/"
   xmlns:cc="http://creativecommons.org/ns#"
   xmlns:rdf="http://www.w3.org/1999/02/22-rdf-syntax-ns#"
   xmlns:svg="http://www.w3.org/2000/svg"
   xmlns="http://www.w3.org/2000/svg"
   id="svg16"
   width="800px"
   version="1.1"
   height="200px">
  <metadata
     id="metadata20">
    <rdf:RDF>
      <cc:Work
         rdf:about="">
        <dc:format>image/svg+xml</dc:format>
        <dc:type
           rdf:resource="http://purl.org/dc/dcmitype/StillImage" />
      </cc:Work>
    </rdf:RDF>
  </metadata>
  <defs
     id="defs4">
    <style
       id="style2"
       type="text/css"><![CDATA[    
     @font-face {font-family:Loveya Script Italic;
     src: url('/Users/francesco/Repos/write-logos/src/fonts/LoveyaScriptItalic-Regular.ttf');}
     @font-face {font-family:HELLO CROCODILO;
     src: url('/Users/francesco/Repos/write-logos/src/fonts/HELLO_CROCODILO.ttf');}
     ]]></style>
  </defs>
  <g
     id="g14"
     style="font-size:60px">
    <g
       style="text-anchor:middle"
       id="text12"
       aria-label="eXtemporanea">
      <path
         id="path22"
         style="font-family:'Loveya Script Italic'"
         d="m 292.82734,87.58 q -1.2,2.58 -1.2,4.26 0,1.44 1.14,1.44 0.36,0 0.54,-0.06 2.22,-0.48 6.72,-4.44 4.5,-4.02 7.08,-6.96 0.06,-0.12 0.18,-0.12 0.12,-0.06 0.24,0 0.12,0.06 0.06,0.18 0,0.12 -0.12,0.24 -2.88,3.42 -7.62,7.44 -4.68,4.02 -7.98,4.86 -0.36,0.12 -1.02,0.12 -1.38,0 -2.16,-0.9 -0.72,-0.96 -0.72,-2.4 0,-0.84 0.3,-1.92 1.14,-3.66 4.02,-6.54 2.88,-2.94 6.36,-3.42 2.22,-0.18 2.22,1.38 0,0.42 -0.18,0.96 -0.78,1.92 -3.06,3.42 -2.22,1.5 -4.8,2.46 z m 6.66,-7.32 q -1.62,0 -3.36,2.16 -1.74,2.16 -2.94,4.5 5.7,-2.52 6.96,-5.28 0.18,-0.36 0.18,-0.66 0,-0.72 -0.84,-0.72 z" />
      <path
         id="path24"
         style="font-family:'HELLO CROCODILO'"
         d="m 309.79492,61.796875 v 0 0 q -1.17187,-2.226563 -2.02148,-2.753906 -0.64453,-0.410157 -0.87891,-0.08789 -0.23437,0.292969 -0.0586,0.908203 0.29297,1.113281 0.99609,2.753906 -1.69922,-3.017578 -2.54883,-2.314453 -0.29297,0.292969 -0.11718,0.820313 0.20507,0.498047 0.61523,1.02539 0.41016,0.498047 0.76172,0.878907 0.17578,0.175781 0.26367,0.292968 -0.11719,-0.05859 -0.38086,-0.234375 -0.49805,-0.351562 -1.23047,-0.761718 -0.70312,-0.410157 -1.28906,-0.615235 -0.55664,-0.205078 -0.67383,0.117188 -0.0879,0.322265 0.61524,1.464844 0.0879,0.146484 0.17578,0.292968 0.55664,0.996094 1.78711,2.490235 4.27734,5.742187 9.55078,13.183593 -0.14649,0.234375 -0.32227,0.46875 -5.21484,7.089844 -9.19922,12.714844 -1.31836,1.611328 -1.8457,2.636719 -0.0586,0.08789 -0.11719,0.175781 -0.70312,1.201172 -0.61523,1.552735 0.11719,0.351562 0.67383,0.146484 0.55664,-0.205078 1.25976,-0.644531 0.70313,-0.439453 1.20117,-0.820313 0.14649,-0.08789 0.26368,-0.146484 l 0.0586,0.0293 q -0.0586,0.05859 -0.11719,0.146484 -0.35156,0.380859 -0.79101,0.9375 -0.43946,0.556641 -0.67383,1.113281 -0.20508,0.527344 0.11719,0.84961 0.84961,0.615234 2.49023,-2.285157 h 0.0293 q -0.61524,1.523438 -0.87891,2.548829 -0.17578,0.644531 0.0293,0.966796 0.20508,0.322266 0.9082,-0.117187 0.82031,-0.527344 1.93359,-2.695313 l 2.22657,-3.105468 6.88476,-9.550782 q 4.6875,6.591797 8.40821,11.748047 1.11328,1.728516 1.93359,2.578125 0.0586,0.05859 0.14648,0.146485 0.90821,1.054687 1.25977,1.083984 0.35156,0 0.32227,-0.585937 0,-0.585938 -0.20508,-1.376954 -0.17578,-0.820312 -0.35157,-1.40625 -0.0586,-0.175781 -0.0879,-0.322265 l 0.0586,-0.0293 q 0.0293,0.05859 0.0879,0.146484 0.26367,0.46875 0.64453,1.054688 0.41016,0.585937 0.84961,0.966797 0.43945,0.380859 0.82031,0.175781 0.84961,-0.615234 -1.37695,-3.076172 l 0.0293,-0.0293 q 1.25976,1.054688 2.13867,1.640625 0.55664,0.38086 0.9082,0.292969 0.38086,-0.117188 0.20508,-0.908203 -0.26367,-0.966797 -1.9336,-2.695313 l -2.25585,-3.076172 -8.08594,-11.25 10.2539,-14.208984 q 1.72852,-1.845703 1.96289,-2.8125 0.17579,-0.761719 -0.20507,-0.878906 -0.35157,-0.117188 -0.87891,0.234375 -0.9375,0.644531 -2.28516,1.845703 2.31446,-2.607422 1.37696,-3.164063 -0.38086,-0.205078 -0.79102,0.146485 -0.41015,0.351562 -0.79101,0.908203 -0.35157,0.556641 -0.58594,0.996094 -0.11719,0.234375 -0.20508,0.351562 0.0293,-0.146484 0.11719,-0.46875 0.14648,-0.585937 0.32226,-1.376953 0.17578,-0.791016 0.17578,-1.40625 0,-0.615234 -0.35156,-0.615234 -0.32226,0 -1.17187,1.02539 -0.0879,0.117188 -0.20508,0.234375 -0.79102,0.84961 -1.81641,2.548828 -3.63281,5.244141 -8.4082,11.806641 z" />
      <path
         id="path26"
         style="font-family:'Loveya Script Italic'"
         d="m 354.72016,82.18 q 0.12,0.06 0.12,0.18 0,0.12 -0.12,0.24 -6,7.02 -10.62,10.74 -4.68,3.78 -7.02,3.36 l -0.36,-0.12 q -0.78,-0.42 -0.78,-1.74 0,-2.94 3.24,-8.94 3.3,-6.06 6.6,-10.92 -0.66,-0.24 -1.5,-0.24 -0.96,0 -1.86,0.24 -0.84,0.24 -1.44,0.54 -0.6,0.3 -0.72,0.36 -0.06,0.12 -0.24,0.12 -0.18,-0.06 -0.12,-0.24 0,-0.18 0.06,-0.24 0.06,-0.12 0.12,-0.12 0.18,-0.12 0.78,-0.36 0.66,-0.3 1.62,-0.54 1.02,-0.3 2.04,-0.3 0.96,0 1.68,0.24 2.4,-3.66 3.72,-5.34 0.72,-0.72 0.96,-1.02 0.3,-0.24 0.9,0 0.66,0.18 1.14,0.72 0.54,0.48 0.54,1.08 0,0.3 -0.18,0.66 -1.26,1.62 -3.66,5.34 0.72,0.12 1.26,0.12 1.44,0 2.82,-0.48 1.38,-0.48 2.1,-1.5 0.42,-0.18 0.3,0.42 -0.66,1.02 -2.22,1.56 -1.5,0.54 -3.12,0.54 -1.02,0 -1.44,-0.12 -3.72,5.64 -6.6,10.92 -2.88,5.28 -2.88,7.02 0,0.72 0.54,0.72 0.84,0 3.06,-1.86 l 0.36,-0.24 q 2.58,-2.1 5.4,-4.98 2.82,-2.94 5.22,-5.7 0,0 0.12,-0.06 0.12,-0.12 0.18,-0.06 z" />
      <path
         id="path28"
         style="font-family:'Loveya Script Italic'"
         d="m 353.76484,87.58 q -1.2,2.58 -1.2,4.26 0,1.44 1.14,1.44 0.36,0 0.54,-0.06 2.22,-0.48 6.72,-4.44 4.5,-4.02 7.08,-6.96 0.06,-0.12 0.18,-0.12 0.12,-0.06 0.24,0 0.12,0.06 0.06,0.18 0,0.12 -0.12,0.24 -2.88,3.42 -7.62,7.44 -4.68,4.02 -7.98,4.86 -0.36,0.12 -1.02,0.12 -1.38,0 -2.16,-0.9 -0.72,-0.96 -0.72,-2.4 0,-0.84 0.3,-1.92 1.14,-3.66 4.02,-6.54 2.88,-2.94 6.36,-3.42 2.22,-0.18 2.22,1.38 0,0.42 -0.18,0.96 -0.78,1.92 -3.06,3.42 -2.22,1.5 -4.8,2.46 z m 6.66,-7.32 q -1.62,0 -3.36,2.16 -1.74,2.16 -2.94,4.5 5.7,-2.52 6.96,-5.28 0.18,-0.36 0.18,-0.66 0,-0.72 -0.84,-0.72 z" />
      <path
         id="path30"
         style="font-family:'Loveya Script Italic'"
         d="m 370.18422,82.54 q -1.5,1.92 -2.94,4.92 -1.44,3 -1.44,4.68 0,2.04 7.2,-6.48 2.28,-2.7 4.38,-4.62 0.24,-0.12 0.9,0.06 0.66,0.18 1.08,0.66 0.48,0.48 0.24,1.26 -0.18,0.84 -1.2,2.7 -0.96,1.8 -2.04,3.66 l -0.78,1.44 q -0.42,0.48 2.52,-2.88 4.38,-5.1 6.54,-7.02 0.18,-0.18 0.78,0 0.66,0.12 1.14,0.6 0.54,0.48 0.54,1.2 0,0.78 -0.84,2.46 -0.78,1.62 -2.52,4.8 -1.68,3.06 -2.58,4.8 -0.84,1.74 -0.9,2.64 0,0.9 0.54,0.72 1.32,-0.18 5.82,-4.86 2.64,-2.82 5.46,-6.18 2.82,-3.42 3.78,-4.8 0.18,-0.18 0.42,-0.12 0.18,0.18 0.06,0.42 -0.96,1.44 -3.84,4.86 -2.88,3.42 -5.58,6.24 -4.56,4.74 -6.24,5.1 -0.72,0.12 -1.02,0.12 -2.1,0 -2.1,-2.22 0,-2.1 1.5,-5.34 1.5,-3.3 3.96,-7.68 l 0.66,-1.2 q -1.32,1.32 -4.56,4.98 -3.36,3.78 -4.32,4.74 -0.06,0.06 -0.24,0.24 -0.18,0.12 -0.42,0.06 -1.02,-0.24 -1.02,-1.62 0,-2.4 3.42,-8.46 -0.72,0.66 -3.18,3.6 -3,3.48 -5.04,5.4 -2.04,1.92 -3.6,1.92 -0.9,0 -1.38,-0.72 -0.48,-0.78 -0.48,-1.98 0,-1.14 0.3,-1.98 0.66,-1.92 1.68,-3.9 1.08,-2.04 2.04,-3.36 1.02,-1.32 1.38,-1.32 0.72,0 1.44,0.54 0.72,0.48 0.72,1.2 0,0.42 -0.24,0.72 z" />
      <path
         id="path32"
         style="font-family:'Loveya Script Italic'"
         d="m 398.64672,77.14 q 0.54,-0.48 1.2,-0.48 0.78,0 1.26,0.78 0.48,0.78 0.48,1.86 0,1.08 -0.48,1.86 -0.24,0.36 -1.32,2.28 l -0.06,0.12 q 2.16,-2.7 4.14,-4.02 1.98,-1.38 3.42,-1.38 1.2,0 1.86,0.84 0.66,0.84 0.66,2.34 0,2.28 -1.38,5.28 4.26,-1.92 7.44,-4.62 0.06,-0.18 0.3,-0.06 0.18,0.06 0.18,0.24 0,0.12 -0.12,0.18 -3.18,2.94 -8.1,5.04 -0.96,1.98 -2.76,4.2 -1.8,2.16 -4.02,3.66 -2.16,1.44 -4.14,1.44 -0.48,0 -0.72,-0.06 -0.72,-0.12 -1.14,-0.6 -0.36,-0.48 -0.36,-1.14 0,-0.78 0.42,-1.44 0.9,-1.74 3.48,-3 2.58,-1.26 5.76,-2.34 4.02,-5.34 4.02,-7.86 0,-1.38 -1.26,-1.38 -1.74,0 -4.74,2.52 -2.94,2.52 -5.46,6.6 -3.6,6.42 -6.6,11.4 -3,4.92 -6.3,9.12 -3.78,4.8 -7.02,7.08 -3.24,2.34 -5.4,2.34 -1.38,0 -2.16,-0.9 -0.78,-0.9 -0.78,-2.46 0,-2.28 1.68,-5.46 1.68,-3.18 4.98,-6.66 2.94,-3.18 6.48,-5.22 3.48,-2.1 6.6,-3.24 l 9.42,-16.2 q 0.06,-0.12 0.18,-0.36 0.18,-0.24 0.36,-0.3 z m -2.76,16.44 q -0.3,0.72 -0.3,0.96 0,0.6 0.72,0.6 2.82,0 7.74,-6.24 -2.4,0.72 -4.86,1.98 -2.46,1.26 -3.3,2.7 z m -7.62,1.2 q -7.62,3.06 -12.3,8.04 -3.12,3.24 -4.68,6.24 -1.56,3 -1.56,5.22 0,1.32 0.6,2.22 v -0.06 q 0.42,0.6 1.08,0.6 2.76,0 8.22,-8.22 5.4,-8.16 8.64,-14.04 z" />
      <path
         id="path34"
         style="font-family:'Loveya Script Italic'"
         d="m 416.61109,79.84 q 1.62,-0.9 3.06,-0.78 0.9,-0.84 1.8,-1.08 1.02,-0.3 1.5,-0.3 1.8,0 1.8,2.16 0,1.74 -1.08,4.26 -1.02,2.46 -2.1,3.78 2.22,-0.42 4.5,-2.16 2.34,-1.74 3.66,-3.9 0.24,-0.24 0.42,-0.12 0.18,0.06 0.06,0.3 -1.8,2.52 -4.14,4.26 -2.34,1.74 -4.92,2.22 -1.62,2.22 -3.18,3.36 -1.8,1.32 -3.18,1.32 -0.48,0 -1.02,-0.18 -1.86,-0.78 -1.86,-3.42 0,-1.68 0.66,-3.66 0.66,-1.98 1.56,-3.48 1.14,-1.92 2.46,-2.58 z m 1.32,5.7 q 0.12,0.96 1.02,1.62 0.96,0.66 1.98,0.78 1.08,-1.08 2.16,-3.6 1.14,-2.58 1.14,-4.32 0,-1.8 -1.44,-1.8 -0.54,0 -1.2,0.24 -0.84,0.36 -1.2,0.66 l 0.6,0.18 q 0.06,0 0.12,0.12 0.06,0.12 0.06,0.3 0,0.3 -0.24,0.72 -0.12,0.3 -0.42,0.84 -0.3,0.48 -0.66,1.08 -1.2,1.74 -1.92,3.18 z m -0.42,0.72 q -0.48,0.9 -1.08,2.46 -0.6,1.56 -0.6,2.52 0,0.84 0.54,0.84 0.3,0 0.66,-0.18 1.86,-1.14 3.54,-3.48 -2.16,-0.24 -3.06,-2.16 z" />
      <path
         id="path36"
         style="font-family:'Loveya Script Italic'"
         d="m 429.53922,78.64 q 0.54,-0.12 0.84,0.3 0.36,0.42 0.36,1.26 0,0.72 -0.18,1.44 -0.12,0.66 -0.12,0.96 0,0.42 0.36,0.6 0.66,0.06 1.26,0.06 0.66,-0.06 1.14,-0.06 2.34,0 2.46,1.2 0.24,0.48 -0.06,1.26 -0.3,0.78 -0.84,1.44 -0.6,0.96 -3.06,4.44 -2.28,3.12 -3.48,4.98 -1.2,1.86 -1.2,2.64 0,0.36 0.24,0.42 1.26,0.18 6.48,-5.16 2.7,-2.7 5.64,-6.24 3,-3.54 5.1,-6.42 0.06,-0.12 0.12,-0.12 0.12,-0.06 0.24,0 0.3,0.18 0.06,0.36 -1.92,2.76 -4.92,6.24 -2.94,3.48 -5.82,6.54 -5.34,5.34 -6.96,5.34 -0.6,0.18 -1.14,0.18 -1.02,0 -1.5,-0.6 -0.48,-0.66 -0.48,-1.74 0,-1.32 0.78,-3.18 0.84,-2.1 2.7,-5.04 1.86,-2.94 3.18,-4.8 0.18,-0.3 0.18,-0.54 0,-0.24 -0.18,-0.36 -0.12,-0.18 -0.3,-0.24 -1.98,-0.42 -2.1,-2.46 0,-2.4 1.2,-2.7 z" />
      <path
         id="path38"
         style="font-family:'Loveya Script Italic'"
         d="m 449.64766,85.24 q -0.18,0.12 -0.36,0 -0.18,-0.18 0.06,-0.36 0.78,-0.6 1.44,-1.62 0.72,-1.02 0.72,-1.8 0,-0.66 -0.6,-1.02 -0.96,-0.54 -3.12,1.68 -2.1,2.22 -3.9,5.28 -1.74,3 -1.74,4.44 0,0.84 0.66,0.84 0.24,0 0.96,-0.3 2.7,-1.56 6.48,-6.54 1.02,-2.1 1.38,-2.34 0.24,-0.12 0.54,-0.12 0.9,0 1.62,0.6 0.72,0.6 0.54,1.92 -0.06,0.36 -1.5,3 -2.94,5.22 -2.94,6.36 0,0.42 0.36,0.36 1.44,-0.36 4.98,-4.08 2.52,-2.34 5.1,-5.34 2.64,-3 3.54,-4.32 0.24,-0.3 0.42,-0.12 0.24,0.12 0.06,0.36 -0.78,1.2 -3.48,4.26 -2.7,3 -5.22,5.52 -2.16,2.16 -3.6,3.36 -1.44,1.14 -2.22,1.26 -0.36,0.06 -0.9,0.06 -2.16,0 -2.16,-2.16 0,-2.16 2.04,-6.06 -1.98,2.34 -4.14,3.96 -2.1,1.56 -4.08,1.56 -1.2,0 -1.74,-0.72 -0.6,-0.72 -0.6,-1.92 0,-1.86 1.14,-3.84 1.8,-3.12 4.86,-5.64 3.06,-2.52 5.82,-2.52 1.02,0 1.56,0.54 0.54,0.48 0.54,1.32 0,0.96 -0.72,2.1 -0.66,1.14 -1.8,2.04 z" />
      <path
         id="path40"
         style="font-family:'Loveya Script Italic'"
         d="m 466.39797,83.08 q -1.5,1.92 -3.12,5.16 -1.56,3.18 -1.44,4.8 0,0.24 0.12,0.24 0.24,0 0.96,-0.72 1.2,-1.26 3.6,-4.98 2.76,-4.32 4.32,-5.88 0.84,-0.84 1.74,-1.02 1.14,-0.18 1.92,0.84 0.78,0.96 0.78,2.16 0,0.48 -0.18,0.96 -0.78,2.22 -1.98,4.56 -1.2,2.28 -1.44,2.76 -1.26,2.28 -1.86,3.66 -0.6,1.32 -0.6,2.16 0,0.96 0.66,0.96 0.66,0 1.68,-0.9 2.76,-2.58 7.02,-7.62 4.32,-5.1 5.94,-7.92 0.12,-0.18 0.3,-0.18 0.3,0 0.18,0.36 -1.62,2.88 -5.94,8.04 -4.32,5.1 -7.08,7.68 -2.22,2.04 -4.2,2.04 -1.08,0 -1.8,-0.6 -0.66,-0.66 -0.78,-1.5 -0.06,-2.28 1.08,-4.98 1.14,-2.76 3.3,-6.72 1.38,-2.46 2.04,-3.9 0.24,-0.42 0.24,-0.66 0,-0.18 -0.12,-0.18 -0.18,0 -0.84,0.66 -1.98,2.22 -4.56,6.42 -1.5,2.4 -2.34,3.54 -0.84,1.08 -1.68,1.5 -0.96,0.48 -1.56,0.48 -0.96,0 -1.44,-0.78 -0.48,-0.84 -0.48,-2.1 0,-1.2 0.3,-2.1 1.26,-3.72 4.5,-8.52 0.3,-0.3 0.78,-0.3 0.72,0 1.44,0.54 0.78,0.48 0.78,1.2 0,0.42 -0.24,0.84 z" />
      <path
         id="path42"
         style="font-family:'Loveya Script Italic'"
         d="m 483.84297,87.58 q -1.2,2.58 -1.2,4.26 0,1.44 1.14,1.44 0.36,0 0.54,-0.06 2.22,-0.48 6.72,-4.44 4.5,-4.02 7.08,-6.96 0.06,-0.12 0.18,-0.12 0.12,-0.06 0.24,0 0.12,0.06 0.06,0.18 0,0.12 -0.12,0.24 -2.88,3.42 -7.62,7.44 -4.68,4.02 -7.98,4.86 -0.36,0.12 -1.02,0.12 -1.38,0 -2.16,-0.9 -0.72,-0.96 -0.72,-2.4 0,-0.84 0.3,-1.92 1.14,-3.66 4.02,-6.54 2.88,-2.94 6.36,-3.42 2.22,-0.18 2.22,1.38 0,0.42 -0.18,0.96 -0.78,1.92 -3.06,3.42 -2.22,1.5 -4.8,2.46 z m 6.66,-7.32 q -1.62,0 -3.36,2.16 -1.74,2.16 -2.94,4.5 5.7,-2.52 6.96,-5.28 0.18,-0.36 0.18,-0.66 0,-0.72 -0.84,-0.72 z" />
      <path
         id="path44"
         style="font-family:'Loveya Script Italic'"
         d="m 503.20234,85.24 q -0.18,0.12 -0.36,0 -0.18,-0.18 0.06,-0.36 0.78,-0.6 1.44,-1.62 0.72,-1.02 0.72,-1.8 0,-0.66 -0.6,-1.02 -0.96,-0.54 -3.12,1.68 -2.1,2.22 -3.9,5.28 -1.74,3 -1.74,4.44 0,0.84 0.66,0.84 0.24,0 0.96,-0.3 2.7,-1.56 6.48,-6.54 1.02,-2.1 1.38,-2.34 0.24,-0.12 0.54,-0.12 0.9,0 1.62,0.6 0.72,0.6 0.54,1.92 -0.06,0.36 -1.5,3 -2.94,5.22 -2.94,6.36 0,0.42 0.36,0.36 1.44,-0.36 4.98,-4.08 2.52,-2.34 5.1,-5.34 2.64,-3 3.54,-4.32 0.24,-0.3 0.42,-0.12 0.24,0.12 0.06,0.36 -0.78,1.2 -3.48,4.26 -2.7,3 -5.22,5.52 -2.16,2.16 -3.6,3.36 -1.44,1.14 -2.22,1.26 -0.36,0.06 -0.9,0.06 -2.16,0 -2.16,-2.16 0,-2.16 2.04,-6.06 -1.98,2.34 -4.14,3.96 -2.1,1.56 -4.08,1.56 -1.2,0 -1.74,-0.72 -0.6,-0.72 -0.6,-1.92 0,-1.86 1.14,-3.84 1.8,-3.12 4.86,-5.64 3.06,-2.52 5.82,-2.52 1.02,0 1.56,0.54 0.54,0.48 0.54,1.32 0,0.96 -0.72,2.1 -0.66,1.14 -1.8,2.04 z" />
    </g>
  </g>
</svg>
