<?xml version="1.0" encoding="UTF-8" standalone="no"?>
<svg
   xmlns:dc="http://purl.org/dc/elements/1.1/"
   xmlns:cc="http://creativecommons.org/ns#"
   xmlns:rdf="http://www.w3.org/1999/02/22-rdf-syntax-ns#"
   xmlns:svg="http://www.w3.org/2000/svg"
   xmlns="http://www.w3.org/2000/svg"
   id="svg10"
   width="500px"
   version="1.1"
   height="200px">
  <metadata
     id="metadata14">
    <rdf:RDF>
      <cc:Work
         rdf:about="">
        <dc:format>image/svg+xml</dc:format>
        <dc:type
           rdf:resource="http://purl.org/dc/dcmitype/StillImage" />
      </cc:Work>
    </rdf:RDF>
  </metadata>
  <defs
     id="defs4">
    <style
       id="style2"
       type="text/css"><![CDATA[    
     @font-face {font-family:Loveya Script Italic;
     src: url('/Users/francesco/Repos/write-logos/src/fonts//LoveyaScriptItalic-Regular.ttf');}]]></style>
  </defs>
  <g
     id="g8"
     style="font-size:30px;font-family:'Loveya Script Italic'">
    <g
       style=""
       id="text6"
       aria-label="eXtemporanea">
      <path
         id="path16"
         style=""
         d="m 102.4,93.79 q -0.6,1.29 -0.6,2.13 0,0.72 0.57,0.72 0.18,0 0.27,-0.03 1.11,-0.24 3.36,-2.22 2.25,-2.01 3.54,-3.48 0.03,-0.06 0.09,-0.06 0.06,-0.03 0.12,0 0.06,0.03 0.03,0.09 0,0.06 -0.06,0.12 -1.44,1.71 -3.81,3.72 -2.34,2.01 -3.99,2.43 -0.18,0.06 -0.51,0.06 -0.69,0 -1.08,-0.45 -0.36,-0.48 -0.36,-1.2 0,-0.42 0.15,-0.96 0.57,-1.83 2.01,-3.27 1.44,-1.47 3.18,-1.71 1.11,-0.09 1.11,0.69 0,0.21 -0.09,0.48 -0.39,0.96 -1.53,1.71 -1.11,0.75 -2.4,1.23 z m 3.33,-3.66 q -0.81,0 -1.68,1.08 -0.87,1.08 -1.47,2.25 2.85,-1.26 3.48,-2.64 0.09,-0.18 0.09,-0.33 0,-0.36 -0.42,-0.36 z" />
      <path
         id="path18"
         style=""
         d="m 114.74969,91 q 0.09,0.06 0.06,0.18 0,0.12 -0.15,0.12 l -0.54,-0.03 q -1.74,0 -3.06,0.78 -1.29,0.78 -1.98,2.01 -0.66,1.2 -0.66,2.4 0,1.23 0.72,2.04 0.75,0.81 2.13,0.81 4.44,0 11.43,-7.71 0.03,-2.22 0.33,-5.82 0.27,-2.97 0.27,-4.35 0,-2.07 -0.57,-2.43 -0.06,-0.06 -0.27,-0.06 -0.48,0 -1.23,0.42 -0.75,0.42 -1.68,1.02 -0.12,0.09 -0.21,0 0,-0.18 0.12,-0.21 0,-0.06 1.11,-0.69 1.11,-0.66 2.37,-1.17 1.29,-0.54 2.25,-0.54 1.26,0 1.5,1.05 0.15,0.66 0.15,1.56 0,1.47 -0.45,4.95 l -0.24,2.25 0.45,-0.54 q 3.3,-3.9 5.22,-6.03 1.95,-2.13 3.84,-3.54 1.89,-1.44 3.36,-1.44 0.75,0 1.44,0.45 0.06,0 0.06,0.06 0,0.09 -0.12,0.18 -0.12,0.09 -0.15,0.03 -0.57,-0.39 -1.29,-0.39 -1.44,0 -3.36,1.5 -1.92,1.47 -3.84,3.57 -1.89,2.1 -4.83,5.64 l -0.81,0.96 q -0.21,2.94 -0.21,4.56 0,8.16 4.02,8.16 1.32,0 3.21,-0.96 h 0.09 q 0.12,0 0.12,0.09 0,0.09 -0.12,0.15 -2.94,1.53 -5.1,1.53 -3,0 -4.26,-2.67 -1.23,-2.7 -1.2,-6.93 -2.91,3.24 -5.94,5.46 -3.03,2.19 -5.61,2.19 -1.53,0 -2.34,-0.84 -0.78,-0.84 -0.78,-2.13 0,-1.29 0.75,-2.61 0.78,-1.32 2.16,-2.19 1.38,-0.87 3.18,-0.87 0.45,0 0.66,0.03 z m 24.84,-13.5 q 0,-0.24 0.21,-0.42 0.21,-0.21 0.45,-0.18 0.21,0.06 0.33,0.18 0,-0.36 0.15,-0.51 0.18,-0.18 0.36,-0.18 0.21,0 0.3,0.15 0.09,0.12 0.09,0.27 0,0.21 -0.15,0.42 -0.12,0.21 -0.27,0.39 -0.21,0.36 -0.09,0.48 -0.27,0.12 -0.81,-0.09 -0.51,-0.24 -0.57,-0.51 z m -23.07,12.69 q 0.18,0.09 0.18,0.3 0,0.24 -0.3,0.45 -0.18,0.09 -0.42,0.15 0.24,0.09 0.24,0.36 -0.03,0.21 -0.21,0.36 -0.15,0.12 -0.33,0.12 -0.33,-0.03 -0.42,-0.21 -0.09,-0.21 -0.12,-0.57 -0.06,-0.33 -0.3,-0.33 0.15,-0.24 0.78,-0.48 0.66,-0.27 0.9,-0.15 z" />
      <path
         id="path20"
         style=""
         d="m 139.67453,91.09 q 0.06,0.03 0.06,0.09 0,0.06 -0.06,0.12 -3,3.51 -5.31,5.37 -2.34,1.89 -3.51,1.68 l -0.18,-0.06 q -0.39,-0.21 -0.39,-0.87 0,-1.47 1.62,-4.47 1.65,-3.03 3.3,-5.46 -0.33,-0.12 -0.75,-0.12 -0.48,0 -0.93,0.12 -0.42,0.12 -0.72,0.27 -0.3,0.15 -0.36,0.18 -0.03,0.06 -0.12,0.06 -0.09,-0.03 -0.06,-0.12 0,-0.09 0.03,-0.12 0.03,-0.06 0.06,-0.06 0.09,-0.06 0.39,-0.18 0.33,-0.15 0.81,-0.27 0.51,-0.15 1.02,-0.15 0.48,0 0.84,0.12 1.2,-1.83 1.86,-2.67 0.36,-0.36 0.48,-0.51 0.15,-0.12 0.45,0 0.33,0.09 0.57,0.36 0.27,0.24 0.27,0.54 0,0.15 -0.09,0.33 -0.63,0.81 -1.83,2.67 0.36,0.06 0.63,0.06 0.72,0 1.41,-0.24 0.69,-0.24 1.05,-0.75 0.21,-0.09 0.15,0.21 -0.33,0.51 -1.11,0.78 -0.75,0.27 -1.56,0.27 -0.51,0 -0.72,-0.06 -1.86,2.82 -3.3,5.46 -1.44,2.64 -1.44,3.51 0,0.36 0.27,0.36 0.42,0 1.53,-0.93 l 0.18,-0.12 q 1.29,-1.05 2.7,-2.49 1.41,-1.47 2.61,-2.85 0,0 0.06,-0.03 0.06,-0.06 0.09,-0.03 z" />
      <path
         id="path22"
         style=""
         d="m 139.19687,93.79 q -0.6,1.29 -0.6,2.13 0,0.72 0.57,0.72 0.18,0 0.27,-0.03 1.11,-0.24 3.36,-2.22 2.25,-2.01 3.54,-3.48 0.03,-0.06 0.09,-0.06 0.06,-0.03 0.12,0 0.06,0.03 0.03,0.09 0,0.06 -0.06,0.12 -1.44,1.71 -3.81,3.72 -2.34,2.01 -3.99,2.43 -0.18,0.06 -0.51,0.06 -0.69,0 -1.08,-0.45 -0.36,-0.48 -0.36,-1.2 0,-0.42 0.15,-0.96 0.57,-1.83 2.01,-3.27 1.44,-1.47 3.18,-1.71 1.11,-0.09 1.11,0.69 0,0.21 -0.09,0.48 -0.39,0.96 -1.53,1.71 -1.11,0.75 -2.4,1.23 z m 3.33,-3.66 q -0.81,0 -1.68,1.08 -0.87,1.08 -1.47,2.25 2.85,-1.26 3.48,-2.64 0.09,-0.18 0.09,-0.33 0,-0.36 -0.42,-0.36 z" />
      <path
         id="path24"
         style=""
         d="m 147.40656,91.27 q -0.75,0.96 -1.47,2.46 -0.72,1.5 -0.72,2.34 0,1.02 3.6,-3.24 1.14,-1.35 2.19,-2.31 0.12,-0.06 0.45,0.03 0.33,0.09 0.54,0.33 0.24,0.24 0.12,0.63 -0.09,0.42 -0.6,1.35 -0.48,0.9 -1.02,1.83 l -0.39,0.72 q -0.21,0.24 1.26,-1.44 2.19,-2.55 3.27,-3.51 0.09,-0.09 0.39,0 0.33,0.06 0.57,0.3 0.27,0.24 0.27,0.6 0,0.39 -0.42,1.23 -0.39,0.81 -1.26,2.4 -0.84,1.53 -1.29,2.4 -0.42,0.87 -0.45,1.32 0,0.45 0.27,0.36 0.66,-0.09 2.91,-2.43 1.32,-1.41 2.73,-3.09 1.41,-1.71 1.89,-2.4 0.09,-0.09 0.21,-0.06 0.09,0.09 0.03,0.21 -0.48,0.72 -1.92,2.43 -1.44,1.71 -2.79,3.12 -2.28,2.37 -3.12,2.55 -0.36,0.06 -0.51,0.06 -1.05,0 -1.05,-1.11 0,-1.05 0.75,-2.67 0.75,-1.65 1.98,-3.84 l 0.33,-0.6 q -0.66,0.66 -2.28,2.49 -1.68,1.89 -2.16,2.37 -0.03,0.03 -0.12,0.12 -0.09,0.06 -0.21,0.03 -0.51,-0.12 -0.51,-0.81 0,-1.2 1.71,-4.23 -0.36,0.33 -1.59,1.8 -1.5,1.74 -2.52,2.7 -1.02,0.96 -1.8,0.96 -0.45,0 -0.69,-0.36 -0.24,-0.39 -0.24,-0.99 0,-0.57 0.15,-0.99 0.33,-0.96 0.84,-1.95 0.54,-1.02 1.02,-1.68 0.51,-0.66 0.69,-0.66 0.36,0 0.72,0.27 0.36,0.24 0.36,0.6 0,0.21 -0.12,0.36 z" />
      <path
         id="path26"
         style=""
         d="m 161.63781,88.57 q 0.27,-0.24 0.6,-0.24 0.39,0 0.63,0.39 0.24,0.39 0.24,0.93 0,0.54 -0.24,0.93 -0.12,0.18 -0.66,1.14 l -0.03,0.06 q 1.08,-1.35 2.07,-2.01 0.99,-0.69 1.71,-0.69 0.6,0 0.93,0.42 0.33,0.42 0.33,1.17 0,1.14 -0.69,2.64 2.13,-0.96 3.72,-2.31 0.03,-0.09 0.15,-0.03 0.09,0.03 0.09,0.12 0,0.06 -0.06,0.09 -1.59,1.47 -4.05,2.52 -0.48,0.99 -1.38,2.1 -0.9,1.08 -2.01,1.83 -1.08,0.72 -2.07,0.72 -0.24,0 -0.36,-0.03 -0.36,-0.06 -0.57,-0.3 -0.18,-0.24 -0.18,-0.57 0,-0.39 0.21,-0.72 0.45,-0.87 1.74,-1.5 1.29,-0.63 2.88,-1.17 2.01,-2.67 2.01,-3.93 0,-0.69 -0.63,-0.69 -0.87,0 -2.37,1.26 -1.47,1.26 -2.73,3.3 -1.8,3.21 -3.3,5.7 -1.5,2.46 -3.15,4.56 -1.89,2.4 -3.51,3.54 -1.62,1.17 -2.7,1.17 -0.69,0 -1.08,-0.45 -0.39,-0.45 -0.39,-1.23 0,-1.14 0.84,-2.73 0.84,-1.59 2.49,-3.33 1.47,-1.59 3.24,-2.61 1.74,-1.05 3.3,-1.62 l 4.71,-8.1 q 0.03,-0.06 0.09,-0.18 0.09,-0.12 0.18,-0.15 z m -1.38,8.22 q -0.15,0.36 -0.15,0.48 0,0.3 0.36,0.3 1.41,0 3.87,-3.12 -1.2,0.36 -2.43,0.99 -1.23,0.63 -1.65,1.35 z m -3.81,0.6 q -3.81,1.53 -6.15,4.02 -1.56,1.62 -2.34,3.12 -0.78,1.5 -0.78,2.61 0,0.66 0.3,1.11 v -0.03 q 0.21,0.3 0.54,0.3 1.38,0 4.11,-4.11 2.7,-4.08 4.32,-7.02 z" />
      <path
         id="path28"
         style=""
         d="m 170.62,89.92 q 0.81,-0.45 1.53,-0.39 0.45,-0.42 0.9,-0.54 0.51,-0.15 0.75,-0.15 0.9,0 0.9,1.08 0,0.87 -0.54,2.13 -0.51,1.23 -1.05,1.89 1.11,-0.21 2.25,-1.08 1.17,-0.87 1.83,-1.95 0.12,-0.12 0.21,-0.06 0.09,0.03 0.03,0.15 -0.9,1.26 -2.07,2.13 -1.17,0.87 -2.46,1.11 -0.81,1.11 -1.59,1.68 -0.9,0.66 -1.59,0.66 -0.24,0 -0.51,-0.09 -0.93,-0.39 -0.93,-1.71 0,-0.84 0.33,-1.83 0.33,-0.99 0.78,-1.74 0.57,-0.96 1.23,-1.29 z m 0.66,2.85 q 0.06,0.48 0.51,0.81 0.48,0.33 0.99,0.39 0.54,-0.54 1.08,-1.8 0.57,-1.29 0.57,-2.16 0,-0.9 -0.72,-0.9 -0.27,0 -0.6,0.12 -0.42,0.18 -0.6,0.33 l 0.3,0.09 q 0.03,0 0.06,0.06 0.03,0.06 0.03,0.15 0,0.15 -0.12,0.36 -0.06,0.15 -0.21,0.42 -0.15,0.24 -0.33,0.54 -0.6,0.87 -0.96,1.59 z m -0.21,0.36 q -0.24,0.45 -0.54,1.23 -0.3,0.78 -0.3,1.26 0,0.42 0.27,0.42 0.15,0 0.33,-0.09 0.93,-0.57 1.77,-1.74 -1.08,-0.12 -1.53,-1.08 z" />
      <path
         id="path30"
         style=""
         d="m 177.08406,89.32 q 0.27,-0.06 0.42,0.15 0.18,0.21 0.18,0.63 0,0.36 -0.09,0.72 -0.06,0.33 -0.06,0.48 0,0.21 0.18,0.3 0.33,0.03 0.63,0.03 0.33,-0.03 0.57,-0.03 1.17,0 1.23,0.6 0.12,0.24 -0.03,0.63 -0.15,0.39 -0.42,0.72 -0.3,0.48 -1.53,2.22 -1.14,1.56 -1.74,2.49 -0.6,0.93 -0.6,1.32 0,0.18 0.12,0.21 0.63,0.09 3.24,-2.58 1.35,-1.35 2.82,-3.12 1.5,-1.77 2.55,-3.21 0.03,-0.06 0.06,-0.06 0.06,-0.03 0.12,0 0.15,0.09 0.03,0.18 -0.96,1.38 -2.46,3.12 -1.47,1.74 -2.91,3.27 -2.67,2.67 -3.48,2.67 -0.3,0.09 -0.57,0.09 -0.51,0 -0.75,-0.3 -0.24,-0.33 -0.24,-0.87 0,-0.66 0.39,-1.59 0.42,-1.05 1.35,-2.52 0.93,-1.47 1.59,-2.4 0.09,-0.15 0.09,-0.27 0,-0.12 -0.09,-0.18 -0.06,-0.09 -0.15,-0.12 -0.99,-0.21 -1.05,-1.23 0,-1.2 0.6,-1.35 z" />
      <path
         id="path32"
         style=""
         d="m 187.13828,92.62 q -0.09,0.06 -0.18,0 -0.09,-0.09 0.03,-0.18 0.39,-0.3 0.72,-0.81 0.36,-0.51 0.36,-0.9 0,-0.33 -0.3,-0.51 -0.48,-0.27 -1.56,0.84 -1.05,1.11 -1.95,2.64 -0.87,1.5 -0.87,2.22 0,0.42 0.33,0.42 0.12,0 0.48,-0.15 1.35,-0.78 3.24,-3.27 0.51,-1.05 0.69,-1.17 0.12,-0.06 0.27,-0.06 0.45,0 0.81,0.3 0.36,0.3 0.27,0.96 -0.03,0.18 -0.75,1.5 -1.47,2.61 -1.47,3.18 0,0.21 0.18,0.18 0.72,-0.18 2.49,-2.04 1.26,-1.17 2.55,-2.67 1.32,-1.5 1.77,-2.16 0.12,-0.15 0.21,-0.06 0.12,0.06 0.03,0.18 -0.39,0.6 -1.74,2.13 -1.35,1.5 -2.61,2.76 -1.08,1.08 -1.8,1.68 -0.72,0.57 -1.11,0.63 -0.18,0.03 -0.45,0.03 -1.08,0 -1.08,-1.08 0,-1.08 1.02,-3.03 -0.99,1.17 -2.07,1.98 -1.05,0.78 -2.04,0.78 -0.6,0 -0.87,-0.36 -0.3,-0.36 -0.3,-0.96 0,-0.93 0.57,-1.92 0.9,-1.56 2.43,-2.82 1.53,-1.26 2.91,-1.26 0.51,0 0.78,0.27 0.27,0.24 0.27,0.66 0,0.48 -0.36,1.05 -0.33,0.57 -0.9,1.02 z" />
      <path
         id="path34"
         style=""
         d="m 195.51344,91.54 q -0.75,0.96 -1.56,2.58 -0.78,1.59 -0.72,2.4 0,0.12 0.06,0.12 0.12,0 0.48,-0.36 0.6,-0.63 1.8,-2.49 1.38,-2.16 2.16,-2.94 0.42,-0.42 0.87,-0.51 0.57,-0.09 0.96,0.42 0.39,0.48 0.39,1.08 0,0.24 -0.09,0.48 -0.39,1.11 -0.99,2.28 -0.6,1.14 -0.72,1.38 -0.63,1.14 -0.93,1.83 -0.3,0.66 -0.3,1.08 0,0.48 0.33,0.48 0.33,0 0.84,-0.45 1.38,-1.29 3.51,-3.81 2.16,-2.55 2.97,-3.96 0.06,-0.09 0.15,-0.09 0.15,0 0.09,0.18 -0.81,1.44 -2.97,4.02 -2.16,2.55 -3.54,3.84 -1.11,1.02 -2.1,1.02 -0.54,0 -0.9,-0.3 -0.33,-0.33 -0.39,-0.75 -0.03,-1.14 0.54,-2.49 0.57,-1.38 1.65,-3.36 0.69,-1.23 1.02,-1.95 0.12,-0.21 0.12,-0.33 0,-0.09 -0.06,-0.09 -0.09,0 -0.42,0.33 -0.99,1.11 -2.28,3.21 -0.75,1.2 -1.17,1.77 -0.42,0.54 -0.84,0.75 -0.48,0.24 -0.78,0.24 -0.48,0 -0.72,-0.39 -0.24,-0.42 -0.24,-1.05 0,-0.6 0.15,-1.05 0.63,-1.86 2.25,-4.26 0.15,-0.15 0.39,-0.15 0.36,0 0.72,0.27 0.39,0.24 0.39,0.6 0,0.21 -0.12,0.42 z" />
      <path
         id="path36"
         style=""
         d="m 204.23594,93.79 q -0.6,1.29 -0.6,2.13 0,0.72 0.57,0.72 0.18,0 0.27,-0.03 1.11,-0.24 3.36,-2.22 2.25,-2.01 3.54,-3.48 0.03,-0.06 0.09,-0.06 0.06,-0.03 0.12,0 0.06,0.03 0.03,0.09 0,0.06 -0.06,0.12 -1.44,1.71 -3.81,3.72 -2.34,2.01 -3.99,2.43 -0.18,0.06 -0.51,0.06 -0.69,0 -1.08,-0.45 -0.36,-0.48 -0.36,-1.2 0,-0.42 0.15,-0.96 0.57,-1.83 2.01,-3.27 1.44,-1.47 3.18,-1.71 1.11,-0.09 1.11,0.69 0,0.21 -0.09,0.48 -0.39,0.96 -1.53,1.71 -1.11,0.75 -2.4,1.23 z m 3.33,-3.66 q -0.81,0 -1.68,1.08 -0.87,1.08 -1.47,2.25 2.85,-1.26 3.48,-2.64 0.09,-0.18 0.09,-0.33 0,-0.36 -0.42,-0.36 z" />
      <path
         id="path38"
         style=""
         d="m 213.91562,92.62 q -0.09,0.06 -0.18,0 -0.09,-0.09 0.03,-0.18 0.39,-0.3 0.72,-0.81 0.36,-0.51 0.36,-0.9 0,-0.33 -0.3,-0.51 -0.48,-0.27 -1.56,0.84 -1.05,1.11 -1.95,2.64 -0.87,1.5 -0.87,2.22 0,0.42 0.33,0.42 0.12,0 0.48,-0.15 1.35,-0.78 3.24,-3.27 0.51,-1.05 0.69,-1.17 0.12,-0.06 0.27,-0.06 0.45001,0 0.81,0.3 0.36,0.3 0.27,0.96 -0.03,0.18 -0.75,1.5 -1.47,2.61 -1.47,3.18 0,0.21 0.18,0.18 0.72,-0.18 2.49,-2.04 1.26,-1.17 2.55,-2.67 1.32,-1.5 1.77,-2.16 0.12,-0.15 0.21,-0.06 0.12,0.06 0.03,0.18 -0.38999,0.6 -1.74,2.13 -1.35,1.5 -2.61,2.76 -1.08,1.08 -1.8,1.68 -0.72,0.57 -1.11,0.63 -0.18,0.03 -0.45,0.03 -1.08,0 -1.08,-1.08 0,-1.08 1.02,-3.03 -0.99,1.17 -2.07,1.98 -1.04999,0.78 -2.04,0.78 -0.6,0 -0.87,-0.36 -0.3,-0.36 -0.3,-0.96 0,-0.93 0.57,-1.92 0.9,-1.56 2.43,-2.82 1.53,-1.26 2.91001,-1.26 0.50999,0 0.77999,0.27 0.27,0.24 0.27,0.66 0,0.48 -0.36,1.05 -0.33,0.57 -0.9,1.02 z" />
    </g>
  </g>
</svg>
