<?xml version="1.0" encoding="UTF-8" standalone="no"?>
<svg
   xmlns:dc="http://purl.org/dc/elements/1.1/"
   xmlns:cc="http://creativecommons.org/ns#"
   xmlns:rdf="http://www.w3.org/1999/02/22-rdf-syntax-ns#"
   xmlns:svg="http://www.w3.org/2000/svg"
   xmlns="http://www.w3.org/2000/svg"
   id="svg16"
   width="800px"
   version="1.1"
   height="200px">
  <metadata
     id="metadata20">
    <rdf:RDF>
      <cc:Work
         rdf:about="">
        <dc:format>image/svg+xml</dc:format>
        <dc:type
           rdf:resource="http://purl.org/dc/dcmitype/StillImage" />
      </cc:Work>
    </rdf:RDF>
  </metadata>
  <defs
     id="defs4">
    <style
       id="style2"
       type="text/css"><![CDATA[    
     @font-face {font-family:MADE Soulmaze;
     src: url('/Users/francesco/Repos/write-logos/src/fonts/Fonts_E_TEMPORANEA/MADE.otf');}
     @font-face {font-family:Zian;
     src: url('/Users/francesco/Repos/write-logos/src/fonts/Fonts_X/Zianfreepromo.ttf');}
     ]]></style>
  </defs>
  <g
     id="g14"
     style="font-size:60px">
    <g
       style="text-anchor:middle"
       id="text12"
       aria-label="EXTEMPORANEA">
      <path
         id="path22"
         style="font-family:'MADE Soulmaze';letter-spacing:0.075em"
         d="M 128.1025,70.6 V 58 h -35.34 v 42 h 35.34 V 87.4 h -19.32 v -2.7 h 17.58 V 73.3 h -17.58 v -2.7 z" />
      <path
         id="path24"
         style="font-family:Zian;letter-spacing:0.05em"
         d="m 139.5332,57.988281 h 0.82032 q 2.08007,0 4.5996,2.8125 10.95704,10.839844 11.13282,10.869141 12.77343,-12.832031 13.35937,-13.007813 1.23047,-0.673828 2.19727,-0.673828 h 0.82031 q 2.7832,0 4.42383,3.222656 0.35156,0.84961 0.35156,1.494141 v 0.996094 q 0,2.255859 -3.92578,5.566406 l -9.78516,9.755859 q 0,0.08789 12.45118,12.363282 1.25976,1.49414 1.25976,3.046875 v 0.761718 q 0,3.222657 -3.83789,4.716797 Q 172.93164,100 172.63867,100 h -1.17187 q -2.13868,0 -5.27344,-3.632813 L 155.99805,86.40625 Q 145.27539,96.923828 142.87305,99.179687 141.55469,100 140.5293,100 h -1.17188 q -2.60742,0 -4.27734,-3.222656 -0.32227,-0.84961 -0.32227,-1.494141 v -0.761719 q 0,-2.548828 3.51563,-5.302734 l 10.19531,-10.195313 v -0.05859 q -12.86133,-12.65625 -12.86133,-12.861328 -0.84961,-1.376954 -0.84961,-2.490235 v -0.732422 q 0,-2.90039 3.25196,-4.570312 0.8496,-0.322266 1.52343,-0.322266 z" />
      <path
         id="path26"
         style="font-family:'MADE Soulmaze';letter-spacing:0.075em"
         d="m 227.02656,58 h -42 v 14.28 h 13.02 V 100 h 15.96 V 72.28 h 13.02 z" />
      <path
         id="path28"
         style="font-family:'MADE Soulmaze';letter-spacing:0.075em"
         d="M 271.3525,70.6 V 58 h -35.34 v 42 h 35.34 V 87.4 h -19.32 v -2.7 h 17.58 V 73.3 h -17.58 v -2.7 z" />
      <path
         id="path30"
         style="font-family:'MADE Soulmaze';letter-spacing:0.075em"
         d="m 316.34781,58 -4.86,24.3 h -0.42 l -4.86,-24.3 h -25.5 v 42 h 16.02 V 72.28 h 0.36 l 5.7,27.72 h 16.98 l 5.64,-27.72 h 0.36 V 100 h 16.02 V 58 Z" />
      <path
         id="path32"
         style="font-family:'MADE Soulmaze';letter-spacing:0.075em"
         d="m 373.07312,58 c -0.24,0 -21.42,0 -21.42,0 v 42 h 16.02001 v -9.48 c 2.21999,0 5.15999,0 5.39999,0 12.18,0 18.12,-5.94 18.12,-16.26 0,-10.32 -5.94,-16.26 -18.12,-16.26 z m -2.16,19.38 c -0.84,0 -2.09999,0 -3.23999,0 v -6.24 c 1.14,0 2.39999,0 3.23999,0 3.12,0 4.68,0.66 4.68,3.12 0,2.4 -1.56,3.12 -4.68,3.12 z" />
      <path
         id="path34"
         style="font-family:'MADE Soulmaze';letter-spacing:0.075em"
         d="m 422.95562,56.86 c -14.04,0 -23.64,9.3 -23.64,22.14 0,12.84 9.6,22.14 23.64,22.14 14.04001,0 23.64,-9.3 23.64,-22.14 0,-12.84 -9.59999,-22.14 -23.64,-22.14 z m 0,29.22 c -3.77999,0 -6.89999,-3.18 -6.89999,-7.08 0,-3.9 2.69999,-7.08 6.89999,-7.08 4.2,0 6.90001,3.18 6.90001,7.08 0,3.9 -3.12,7.08 -6.90001,7.08 z" />
      <path
         id="path36"
         style="font-family:'MADE Soulmaze';letter-spacing:0.075em"
         d="m 480.475,100 h 17.16 l -7.74,-14.46 c 3.48,-2.52 5.22,-6.54 5.22,-12.12 0,-10.32 -5.94,-15.42 -18.12,-15.42 -0.24,0 -21.42,0 -21.42,0 v 42 h 16.02 V 88.78 c 1.14,0 2.46,0 3.48,0 z m -5.04,-30 c 2.64,0 4.08,0.9 4.08,3.42 0,2.46 -1.44,3.36 -4.08,3.36 -0.9,0 -2.46,0 -3.84,0 V 70 c 1.38,0 2.94,0 3.84,0 z" />
      <path
         id="path38"
         style="font-family:'MADE Soulmaze';letter-spacing:0.075em"
         d="m 533.91437,100 h 17.16001 L 538.47437,58 h -23.63999 l -12.60001,42 h 17.16 l 1.56001,-6.66 h 11.39999 z m -10.07999,-19.2 1.98,-8.52 h 1.67999 l 1.98,8.52 z" />
      <path
         id="path40"
         style="font-family:'MADE Soulmaze';letter-spacing:0.075em"
         d="m 590.21125,58 v 20.88 h -0.42 l -9.48,-20.88 h -20.58 v 42 h 16.02 V 79.12 h 0.42 l 10.02,20.88 h 20.04 V 58 Z" />
      <path
         id="path42"
         style="font-family:'MADE Soulmaze';letter-spacing:0.075em"
         d="M 651.48531,70.6 V 58 h -35.34 v 42 h 35.34 V 87.4 h -19.32 v -2.7 h 17.58 V 73.3 h -17.58 v -2.7 z" />
      <path
         id="path44"
         style="font-family:'MADE Soulmaze';letter-spacing:0.075em"
         d="m 691.32062,100 h 17.16001 L 695.88062,58 h -23.63999 l -12.60001,42 h 17.16 l 1.56001,-6.66 h 11.39999 z m -10.07999,-19.2 1.98,-8.52 h 1.67999 l 1.98,8.52 z" />
    </g>
  </g>
</svg>
