<?xml version="1.0" encoding="UTF-8" standalone="no"?>
<svg
   xmlns:dc="http://purl.org/dc/elements/1.1/"
   xmlns:cc="http://creativecommons.org/ns#"
   xmlns:rdf="http://www.w3.org/1999/02/22-rdf-syntax-ns#"
   xmlns:svg="http://www.w3.org/2000/svg"
   xmlns="http://www.w3.org/2000/svg"
   id="svg16"
   width="800px"
   version="1.1"
   height="200px">
  <metadata
     id="metadata20">
    <rdf:RDF>
      <cc:Work
         rdf:about="">
        <dc:format>image/svg+xml</dc:format>
        <dc:type
           rdf:resource="http://purl.org/dc/dcmitype/StillImage" />
      </cc:Work>
    </rdf:RDF>
  </metadata>
  <defs
     id="defs4">
    <style
       id="style2"
       type="text/css"><![CDATA[    
     @font-face {font-family:MADE Soulmaze;
     src: url('/Users/francesco/Repos/write-logos/src/fonts/Fonts_E_TEMPORANEA/MADE.otf');}
     @font-face {font-family:Dr Eye;
     src: url('/Users/francesco/Repos/write-logos/src/fonts/Fonts_X/DrEye.otf');}
     ]]></style>
  </defs>
  <g
     id="g14"
     style="font-size:60px">
    <g
       style="text-anchor:middle"
       id="text12"
       aria-label="EXTEMPORANEA">
      <path
         id="path22"
         style="font-family:'MADE Soulmaze';letter-spacing:0.075em"
         d="M 129.45016,70.6 V 58 H 94.110156 v 42 H 129.45016 V 87.4 h -19.32 v -2.7 h 17.58 V 73.3 h -17.58 v -2.7 z" />
      <path
         id="path24"
         style="font-family:'Dr Eye';letter-spacing:0.05em"
         d="m 135.02547,55.78 c 0.18,-0.24 2.1,-1.08 0,-1.2 -0.66,-0.06 -0.24,0.96 0,1.2 z m 0.9,8.94 c -0.12,0 -0.6,0.06 -0.72,0 -0.06,0.18 -0.42,0.12 -0.6,0.18 0.06,0.12 0,0.66 0,0.78 0.18,0 0.36,0.12 0.6,0.18 -0.42,0.12 0.84,-0.18 0.54,-0.18 0.42,0.24 0.18,-0.96 0.18,-0.96 z m 37.74,28.5 c 0.78,-3.9 -2.28,-3.06 -3.9,-4.08 -0.3,-0.12 -0.06,-0.36 -0.3,-0.6 -0.48,-0.84 -0.36,-2.28 -0.9,-3.18 -0.9,-1.5 -3.18,-1.2 -4.08,-2.4 -0.78,-1.02 -0.42,-3 -1.38,-3.78 l -0.18,-0.18 c -1.26,-1.02 -2.34,-0.42 -3,-2.1 0,-0.06 -0.42,-0.9 -0.36,-0.9 0.48,-0.36 0.36,-1.32 0.78,-1.68 0.78,-0.78 2.52,-0.66 3.18,-1.56 l 0.42,-0.36 c 0.42,-1.44 0,-2.16 0.72,-3.18 0.84,-1.26 3.24,-1.02 4.08,-2.46 0.36,-0.66 0.24,-1.98 0.54,-2.76 0.66,-1.8 5.46,-1.8 3.42,-5.1 l -0.18,-0.36 c -0.72,-0.6 -1.98,-0.48 -2.76,-0.96 -1.44,-0.9 -0.54,-3.48 -2.88,-4.14 -0.12,0 -0.36,0 -0.54,0 -2.1,0.12 -2.04,2.34 -3.24,3.42 -0.96,0.78 -1.86,0.48 -2.94,1.14 -1.56,1.02 -0.9,2.7 -1.68,4.32 l -0.6,0.54 c -1.44,0.78 -2.82,0.42 -3.96,1.5 -0.6,0.54 -0.42,2.16 -1.26,2.4 -1.02,0.3 -2.28,-0.12 -2.7,-0.54 -0.3,-0.42 -0.6,-1.74 -0.36,-2.58 0.3,-1.14 1.86,-0.48 2.28,-1.86 0.12,-0.48 0.18,-0.84 0.18,-1.2 0,-0.06 -0.06,-0.36 -0.18,-0.72 -0.06,-0.06 -0.3,-0.54 -0.36,-0.6 -0.84,-0.72 -2.34,-0.48 -3.42,-0.18 0,0.3 0.12,1.14 0,1.32 -0.3,0.54 -1.5,0.48 -2.4,0.54 -1.14,-1.68 -1.26,-2.7 1.14,-3.36 0.3,-1.14 0.54,-3.66 -1.14,-3.96 -2.58,-0.48 -2.28,2.28 -3.6,3.06 -1.08,0.6 -2.7,0.18 -3.9,0.9 -1.08,0.66 -0.78,5.16 0.18,5.64 0.78,0.42 1.56,0.12 2.22,0.6 1.32,0.78 1.38,2.4 1.14,4.32 -1.68,0.66 -2.04,0.72 -2.22,2.94 1.38,0.66 1.26,0.78 2.58,0 0.12,-0.06 0.78,-0.12 0.78,-0.18 0.18,-0.3 0,-1.08 0,-1.44 0.06,0 0.54,0 0.54,0 0.42,-0.12 0.48,-0.3 0.96,-0.24 2.28,0.18 2.46,2.04 1.86,3.96 -0.72,0.18 -1.56,0.3 -1.86,0.96 -0.36,0.66 -0.18,1.92 0,2.58 0.6,2.28 2.4,1.56 2.64,3 0.54,3.24 -2.58,3.36 -4.32,3.24 -0.42,1.32 -0.3,3.84 -1.14,4.86 -0.78,1.02 -3.42,0.84 -3.9,2.04 -0.6,1.62 -0.12,3.24 -1.38,4.14 -1.26,0.96 -1.86,-0.06 -2.58,1.86 -0.3,0.78 -0.48,1.44 0,2.22 0.06,0.12 0.42,0.54 0.54,0.6 0,0.06 0.18,0.18 0.18,0.18 0.84,0.6 2.04,0.3 3,0.72 1.08,0.54 0.72,3.06 1.92,3.6 0.42,0.24 1.5,0 1.5,0 0.36,-0.3 0.9,-0.36 1.08,-0.72 0.48,-0.9 0.18,-2.34 0.96,-2.88 0.66,-0.42 1.44,-0.12 2.46,-0.36 2.46,-0.54 1.86,-3.42 2.58,-5.76 1.38,0.06 3.9,0.24 4.38,-1.56 0.24,-1.08 -0.24,-2.1 -0.42,-2.76 -2.4,-0.6 -2.04,-1.32 -1.44,-3.42 1.02,-0.06 2.58,-0.12 2.94,0.9 0.06,0.36 -0.18,0.96 0,1.2 0.18,0.24 1.02,0.36 1.32,0.54 1.38,0.72 3.3,0.78 3.78,2.46 0.42,1.32 0.48,3.06 1.68,3.54 1.44,0.6 2.1,0 2.94,1.32 0.66,0.96 0.54,3.54 1.74,3.9 0.9,0.3 1.98,-0.06 2.76,0.18 2.46,0.66 1.98,3.24 4.74,3.24 0.84,-1.92 0.78,-3 -1.68,-3.42 -0.06,-0.3 0.12,-0.42 -0.18,-0.54 0,-1.86 0.12,-3.3 1.08,-4.08 0.84,-0.72 1.86,-0.42 2.1,-1.74 z m -31.92,-11.94 c -0.36,-0.6 -0.66,-0.54 -1.32,-0.84 -0.06,0.18 -0.6,0.3 -0.72,0.48 0.06,0.3 -0.12,0.72 0,1.08 0.36,1.08 3.96,1.56 2.04,-0.72 z m -6.54,4.8 c -0.78,0 -0.18,1.02 -0.18,1.02 0.3,-0.24 1.2,-0.96 0.18,-1.02 z m 41.82,11.46 c 0.6,-0.06 0.3,-1.14 -0.54,-1.08 -0.72,0.06 -0.24,1.14 0.54,1.08 z m -30.36,-6 c 0.9,0.36 1.62,2.52 -1.14,1.14 0,-0.36 0.18,-1.08 0.18,-1.14 0.3,0.12 0.6,-0.12 0.96,0 z" />
      <path
         id="path26"
         style="font-family:'MADE Soulmaze';letter-spacing:0.075em"
         d="m 225.67891,58 h -42 v 14.28 h 13.02 V 100 h 15.96 V 72.28 h 13.02 z" />
      <path
         id="path28"
         style="font-family:'MADE Soulmaze';letter-spacing:0.075em"
         d="M 270.00484,70.6 V 58 h -35.34 v 42 h 35.34 V 87.4 h -19.32 v -2.7 h 17.58 V 73.3 h -17.58 v -2.7 z" />
      <path
         id="path30"
         style="font-family:'MADE Soulmaze';letter-spacing:0.075em"
         d="m 315.00016,58 -4.86,24.3 h -0.42 l -4.86,-24.3 h -25.5 v 42 h 16.02 V 72.28 h 0.36 l 5.7,27.72 h 16.98 l 5.64,-27.72 h 0.36 V 100 h 16.02 V 58 Z" />
      <path
         id="path32"
         style="font-family:'MADE Soulmaze';letter-spacing:0.075em"
         d="m 371.72547,58 c -0.24,0 -21.42,0 -21.42,0 v 42 h 16.02 v -9.48 c 2.22,0 5.16,0 5.4,0 12.18,0 18.12,-5.94 18.12,-16.26 0,-10.32 -5.94,-16.26 -18.12,-16.26 z m -2.16,19.38 c -0.84,0 -2.1,0 -3.24,0 v -6.24 c 1.14,0 2.4,0 3.24,0 3.12,0 4.68,0.66 4.68,3.12 0,2.4 -1.56,3.12 -4.68,3.12 z" />
      <path
         id="path34"
         style="font-family:'MADE Soulmaze';letter-spacing:0.075em"
         d="m 421.60797,56.86 c -14.04,0 -23.64,9.3 -23.64,22.14 0,12.84 9.6,22.14 23.64,22.14 14.04,0 23.64,-9.3 23.64,-22.14 0,-12.84 -9.6,-22.14 -23.64,-22.14 z m 0,29.22 c -3.78,0 -6.9,-3.18 -6.9,-7.08 0,-3.9 2.7,-7.08 6.9,-7.08 4.2,0 6.9,3.18 6.9,7.08 0,3.9 -3.12,7.08 -6.9,7.08 z" />
      <path
         id="path36"
         style="font-family:'MADE Soulmaze';letter-spacing:0.075em"
         d="m 479.12734,100 h 17.16 l -7.74,-14.46 c 3.48,-2.52 5.22,-6.54 5.22,-12.12 0,-10.32 -5.94,-15.42 -18.12,-15.42 -0.24,0 -21.42,0 -21.42,0 v 42 h 16.02 V 88.78 c 1.14,0 2.46,0 3.48,0 z m -5.04,-30 c 2.64,0 4.08,0.9 4.08,3.42 0,2.46 -1.44,3.36 -4.08,3.36 -0.9,0 -2.46,0 -3.84,0 V 70 c 1.38,0 2.94,0 3.84,0 z" />
      <path
         id="path38"
         style="font-family:'MADE Soulmaze';letter-spacing:0.075em"
         d="m 532.56672,100 h 17.16 l -12.6,-42 h -23.64 l -12.6,42 h 17.16 l 1.56,-6.66 h 11.4 z m -10.08,-19.2 1.98,-8.52 h 1.68 l 1.98,8.52 z" />
      <path
         id="path40"
         style="font-family:'MADE Soulmaze';letter-spacing:0.075em"
         d="m 588.86359,58 v 20.88 h -0.42 l -9.48,-20.88 h -20.58 v 42 h 16.02 V 79.12 h 0.42 l 10.02,20.88 h 20.04 V 58 Z" />
      <path
         id="path42"
         style="font-family:'MADE Soulmaze';letter-spacing:0.075em"
         d="M 650.13766,70.6 V 58 h -35.34 v 42 h 35.34 V 87.4 h -19.32 v -2.7 h 17.58 V 73.3 h -17.58 v -2.7 z" />
      <path
         id="path44"
         style="font-family:'MADE Soulmaze';letter-spacing:0.075em"
         d="m 689.97297,100 h 17.16 l -12.6,-42 h -23.64 l -12.6,42 h 17.16 l 1.56,-6.66 h 11.4 z m -10.08,-19.2 1.98,-8.52 h 1.68 l 1.98,8.52 z" />
    </g>
  </g>
</svg>
