<?xml version="1.0" encoding="UTF-8" standalone="no"?>
<svg
   xmlns:dc="http://purl.org/dc/elements/1.1/"
   xmlns:cc="http://creativecommons.org/ns#"
   xmlns:rdf="http://www.w3.org/1999/02/22-rdf-syntax-ns#"
   xmlns:svg="http://www.w3.org/2000/svg"
   xmlns="http://www.w3.org/2000/svg"
   id="svg16"
   width="800px"
   version="1.1"
   height="200px">
  <metadata
     id="metadata20">
    <rdf:RDF>
      <cc:Work
         rdf:about="">
        <dc:format>image/svg+xml</dc:format>
        <dc:type
           rdf:resource="http://purl.org/dc/dcmitype/StillImage" />
      </cc:Work>
    </rdf:RDF>
  </metadata>
  <defs
     id="defs4">
    <style
       id="style2"
       type="text/css"><![CDATA[    
     @font-face {font-family:MADE Soulmaze;
     src: url('/Users/francesco/Repos/write-logos/src/fonts/Fonts_E_TEMPORANEA/MADE.otf');}
     @font-face {font-family:LEIXO DEMO;
     src: url('/Users/francesco/Repos/write-logos/src/fonts/Fonts_X/LEIXO-DEMO.ttf');}
     ]]></style>
  </defs>
  <g
     id="g14"
     style="font-size:60px">
    <g
       style="text-anchor:middle"
       id="text12"
       aria-label="EXTEMPORANEA">
      <path
         id="path22"
         style="font-family:'MADE Soulmaze';letter-spacing:0.075em"
         d="M 130.09469,70.6 V 58 H 94.754688 v 42 H 130.09469 V 87.4 h -19.32 v -2.7 h 17.58 V 73.3 h -17.58 v -2.7 z" />
      <path
         id="path24"
         style="font-family:'LEIXO DEMO';letter-spacing:0.05em"
         d="m 141.79,100 q -0.72,0 -0.72,-0.72 0,-0.48 0.24,-0.78 L 153.13,79.54 140.59,59.5 q -0.24,-0.42 -0.24,-0.9 0,-0.66 0.6,-0.66 l 6.18,0.06 h 0.36 q 1.02,0 1.32,0.48 l 8.7,14.04 8.76,-14.04 q 0.18,-0.3 0.54,-0.36 0.42,-0.12 1.26,-0.12 l 6,-0.06 q 0.6,0 0.6,0.66 0,0.48 -0.24,0.9 l -24.84,39.84 q -0.48,0.66 -1.74,0.66 z m 25.38,0 q -1.26,0 -1.68,-0.66 l -4.08,-6.54 q -0.36,-0.66 -0.36,-1.08 0,-0.6 0.42,-1.2 0.3,-0.48 1.26,-2.04 1.02,-1.62 1.56,-2.28 0.6,-0.66 1.02,-0.66 0.36,0 0.6,0.42 l 7.8,12.54 q 0.24,0.3 0.24,0.78 0,0.72 -0.72,0.72 z" />
      <path
         id="path26"
         style="font-family:'MADE Soulmaze';letter-spacing:0.075em"
         d="m 225.03437,58 h -42 v 14.28 h 13.02 V 100 h 15.96 V 72.28 h 13.02 z" />
      <path
         id="path28"
         style="font-family:'MADE Soulmaze';letter-spacing:0.075em"
         d="M 269.36031,70.6 V 58 h -35.34 v 42 h 35.34 V 87.4 h -19.32 v -2.7 h 17.58 V 73.3 h -17.58 v -2.7 z" />
      <path
         id="path30"
         style="font-family:'MADE Soulmaze';letter-spacing:0.075em"
         d="m 314.35563,58 -4.86,24.3 h -0.42001 l -4.86,-24.3 h -25.5 v 42 h 16.02001 V 72.28 h 0.35999 l 5.7,27.72 h 16.98 l 5.64,-27.72 h 0.36 V 100 h 16.02 V 58 Z" />
      <path
         id="path32"
         style="font-family:'MADE Soulmaze';letter-spacing:0.075em"
         d="m 371.08094,58 c -0.24,0 -21.42,0 -21.42,0 v 42 h 16.02 v -9.48 c 2.22,0 5.16,0 5.4,0 12.18,0 18.12,-5.94 18.12,-16.26 0,-10.32 -5.94,-16.26 -18.12,-16.26 z m -2.16,19.38 c -0.84,0 -2.1,0 -3.24,0 v -6.24 c 1.14,0 2.4,0 3.24,0 3.12,0 4.68,0.66 4.68,3.12 0,2.4 -1.56,3.12 -4.68,3.12 z" />
      <path
         id="path34"
         style="font-family:'MADE Soulmaze';letter-spacing:0.075em"
         d="m 420.96344,56.86 c -14.04,0 -23.64,9.3 -23.64,22.14 0,12.84 9.6,22.14 23.64,22.14 14.04,0 23.64,-9.3 23.64,-22.14 0,-12.84 -9.6,-22.14 -23.64,-22.14 z m 0,29.22 c -3.78,0 -6.9,-3.18 -6.9,-7.08 0,-3.9 2.7,-7.08 6.9,-7.08 4.2,0 6.9,3.18 6.9,7.08 0,3.9 -3.12,7.08 -6.9,7.08 z" />
      <path
         id="path36"
         style="font-family:'MADE Soulmaze';letter-spacing:0.075em"
         d="m 478.48281,100 h 17.16 l -7.74,-14.46 c 3.48,-2.52 5.22,-6.54 5.22,-12.12 0,-10.32 -5.94,-15.42 -18.12,-15.42 -0.24,0 -21.42,0 -21.42,0 v 42 h 16.02 V 88.78 c 1.14,0 2.46,0 3.48,0 z m -5.04,-30 c 2.64,0 4.08,0.9 4.08,3.42 0,2.46 -1.44,3.36 -4.08,3.36 -0.9,0 -2.46,0 -3.84,0 V 70 c 1.38,0 2.94,0 3.84,0 z" />
      <path
         id="path38"
         style="font-family:'MADE Soulmaze';letter-spacing:0.075em"
         d="m 531.92219,100 h 17.16 l -12.6,-42 h -23.64 l -12.6,42 h 17.16 l 1.56,-6.66 h 11.4 z m -10.08,-19.2 1.98,-8.52 h 1.68 l 1.98,8.52 z" />
      <path
         id="path40"
         style="font-family:'MADE Soulmaze';letter-spacing:0.075em"
         d="m 588.21906,58 v 20.88 h -0.42 l -9.48,-20.88 h -20.58 v 42 h 16.02 V 79.12 h 0.42 l 10.02,20.88 h 20.04 V 58 Z" />
      <path
         id="path42"
         style="font-family:'MADE Soulmaze';letter-spacing:0.075em"
         d="M 649.49312,70.6 V 58 h -35.33999 v 42 h 35.33999 V 87.4 h -19.31999 v -2.7 h 17.57999 V 73.3 h -17.57999 v -2.7 z" />
      <path
         id="path44"
         style="font-family:'MADE Soulmaze';letter-spacing:0.075em"
         d="m 689.32844,100 h 17.16 l -12.6,-42 h -23.64 l -12.6,42 h 17.16 l 1.56,-6.66 h 11.4 z m -10.08,-19.2 1.98,-8.52 h 1.68 l 1.98,8.52 z" />
    </g>
  </g>
</svg>
