<?xml version="1.0" encoding="UTF-8" standalone="no"?>
<svg
   xmlns:dc="http://purl.org/dc/elements/1.1/"
   xmlns:cc="http://creativecommons.org/ns#"
   xmlns:rdf="http://www.w3.org/1999/02/22-rdf-syntax-ns#"
   xmlns:svg="http://www.w3.org/2000/svg"
   xmlns="http://www.w3.org/2000/svg"
   id="svg16"
   width="800px"
   version="1.1"
   height="200px">
  <metadata
     id="metadata20">
    <rdf:RDF>
      <cc:Work
         rdf:about="">
        <dc:format>image/svg+xml</dc:format>
        <dc:type
           rdf:resource="http://purl.org/dc/dcmitype/StillImage" />
      </cc:Work>
    </rdf:RDF>
  </metadata>
  <defs
     id="defs4">
    <style
       id="style2"
       type="text/css"><![CDATA[    
     @font-face {font-family:MADE Soulmaze;
     src: url('/Users/francesco/Repos/write-logos/src/fonts/Fonts_E_TEMPORANEA/MADE.otf');}
     @font-face {font-family:PWChalk;
     src: url('/Users/francesco/Repos/write-logos/src/fonts/Fonts_X/PWChalk.ttf');}
     ]]></style>
  </defs>
  <g
     id="g14"
     style="font-size:60px">
    <g
       style="text-anchor:middle"
       id="text12"
       aria-label="EXTEMPORANEA">
      <path
         id="path22"
         style="font-family:'MADE Soulmaze';letter-spacing:0.075em"
         d="M 129.80172,70.6 V 58 H 94.461719 v 42 H 129.80172 V 87.4 h -19.32 v -2.7 h 17.58 V 73.3 h -17.58 v -2.7 z" />
      <path
         id="path24"
         style="font-family:PWChalk;letter-spacing:0.05em"
         d="m 143.89703,69.1 1.74,1.98 -0.84,-1.08 -2.58,-4.02 -1.26,-1.86 0.42,0.96 1.92,3.18 z m 12.42,18.66 0.3,0.54 2.16,3.3 1.62,2.58 -0.66,0.36 0.48,0.66 1.62,1.68 0.9,0.72 0.06,0.12 -0.12,-0.84 -1.38,-2.22 -1.26,-2.16 -0.42,-0.6 -2.28,-2.88 z m -6.54,-8.4 -0.12,0.12 0.12,0.18 0.66,1.02 0.18,-0.24 z m 8.4,8.34 -0.9,-1.38 -0.48,-0.6 1.08,1.56 0.84,1.32 z m -17.76,3.24 V 91 Z m 8.1,-4.62 2.4,-3.24 -0.24,-0.3 -0.3,0.42 z m 13.92,-18.6 2.76,-3.72 -1.5,1.56 -3.6,4.44 z m -9.72,15.96 -0.12,0.24 0.3,0.42 2.88,4.44 -2.16,-3.66 z m -1.02,-1.62 -0.24,-0.42 -0.18,0.24 0.24,0.42 z m 3.24,-4.02 -0.48,-0.6 -0.48,0.72 0.42,0.6 z m -7.62,-9.3 0.3,0.54 2.76,4.2 v 0.06 l 0.9,1.14 0.48,-0.6 -0.96,-1.2 -2.7,-3.18 z m 6.3,6.06 0.66,0.84 3.18,-4.56 3.84,-5.16 3,-4.02 -2.58,2.64 -4.32,4.5 0.66,0.6 z m 1.5,1.86 0.42,0.6 0.6,-0.72 0.6,-0.72 1.5,-2.22 1.32,-1.8 -0.9,0.9 z m -2.16,-1.14 -0.54,0.6 0.24,0.3 0.54,0.72 0.24,-0.3 0.3,-0.42 -0.12,-0.12 z m -14.58,20.88 -0.84,-0.36 0.06,-0.24 -0.18,0.3 -0.42,1.26 -0.06,0.6 -0.96,-0.12 0.06,-0.72 0.54,-1.38 1.5,-2.76 2.22,-3.72 3.3,-5.04 4.2,-5.34 0.24,-0.3 -2.16,-3.48 -0.84,-1.38 -2.22,-2.7 -2.34,-3 -1.5,-2.1 0.72,-0.66 0.78,0.54 0.3,0.24 -0.06,-0.12 -0.18,-0.36 -0.24,-0.42 -1.86,-2.82 -1.02,-1.98 0.54,-0.3 -0.06,-0.06 0.54,-0.3 -0.3,-0.66 0.78,-0.6 0.72,0.6 1.32,1.62 v -0.06 l -0.48,-0.84 0.84,-0.54 0.06,0.18 0.9,-0.24 0.24,0.9 1.08,2.22 0.36,0.66 2.1,2.82 2.76,3.36 2.7,3.18 0.9,1.02 4.26,-4.86 4.32,-4.62 3.66,-3.66 2.4,-2.16 1.08,-0.9 0.72,0.66 -1.2,1.44 -2.34,2.94 -1.2,1.62 1.98,-2.1 1.8,-1.68 0.9,-0.66 0.66,0.72 -0.96,1.44 -2.46,3 -1.38,1.86 0.18,0.24 0.78,-0.84 1.62,-1.74 1.08,-1.2 2.7,-2.76 0.84,-0.84 0.72,0.6 -0.9,1.02 -2.16,2.22 -1.56,1.62 -2.4,2.7 -4.14,4.62 -3.18,3.6 -1.86,2.7 0.48,0.66 2.52,3.3 2.58,3.3 2.16,3.3 1.98,3.12 1.62,2.52 1.2,1.68 0.48,0.78 -0.84,0.48 -0.48,-0.78 -1.2,-1.68 -1.62,-2.52 -1.98,-3.12 -2.16,-3.18 -2.46,-3.3 -2.52,-3.3 -0.36,-0.42 -0.54,0.78 0.6,0.84 3.12,4.02 2.52,3.84 2.58,3.36 0.48,0.78 0.84,1.02 0.9,1.74 1.32,2.1 0.96,1.32 -0.84,0.6 -0.96,-1.44 -1.02,-1.56 -0.78,-0.78 -1.62,-1.86 -0.3,-0.36 0.6,1.38 -0.6,0.72 0.6,1.02 -0.12,1.8 -1.14,0.12 -1.14,-0.96 -1.74,-1.8 -2.1,-2.82 -2.46,-3.72 -2.88,-4.44 -1.5,2.34 -2.82,4.62 -1.92,3.06 -0.66,0.54 -0.66,-0.66 0.42,-0.54 1.2,-2.34 2.16,-3.54 0.6,-0.96 -1.14,1.5 -3.66,5.4 -2.58,4.14 -0.84,1.44 -0.54,1.02 -0.12,-0.06 -0.36,0.54 -0.54,1.08 -0.84,-0.36 0.54,-1.2 1.38,-2.22 0.78,-1.5 2.58,-4.68 1.14,-1.98 -0.9,1.38 -2.34,4.32 -1.5,2.64 -0.84,-0.48 1.5,-2.64 2.34,-4.32 3.78,-5.82 3.12,-4.02 -0.84,-1.26 -1.44,1.74 -3.78,5.1 -2.52,4.32 -1.8,2.58 -0.72,1.56 z" />
      <path
         id="path26"
         style="font-family:'MADE Soulmaze';letter-spacing:0.075em"
         d="m 225.32734,58 h -42 v 14.28 h 13.02 V 100 h 15.96 V 72.28 h 13.02 z" />
      <path
         id="path28"
         style="font-family:'MADE Soulmaze';letter-spacing:0.075em"
         d="M 269.65328,70.6 V 58 h -35.34 v 42 h 35.34 V 87.4 h -19.32 v -2.7 h 17.58 V 73.3 h -17.58 v -2.7 z" />
      <path
         id="path30"
         style="font-family:'MADE Soulmaze';letter-spacing:0.075em"
         d="m 314.64859,58 -4.86,24.3 h -0.42 l -4.86,-24.3 h -25.5 v 42 h 16.02 V 72.28 h 0.36 l 5.7,27.72 h 16.98 l 5.64,-27.72 h 0.36 V 100 h 16.02 V 58 Z" />
      <path
         id="path32"
         style="font-family:'MADE Soulmaze';letter-spacing:0.075em"
         d="m 371.37391,58 c -0.24,0 -21.42,0 -21.42,0 v 42 h 16.02 v -9.48 c 2.22,0 5.16,0 5.4,0 12.18,0 18.12,-5.94 18.12,-16.26 0,-10.32 -5.94,-16.26 -18.12,-16.26 z m -2.16,19.38 c -0.84,0 -2.1,0 -3.24,0 v -6.24 c 1.14,0 2.4,0 3.24,0 3.12,0 4.68,0.66 4.68,3.12 0,2.4 -1.56,3.12 -4.68,3.12 z" />
      <path
         id="path34"
         style="font-family:'MADE Soulmaze';letter-spacing:0.075em"
         d="m 421.25641,56.86 c -14.04,0 -23.64,9.3 -23.64,22.14 0,12.84 9.6,22.14 23.64,22.14 14.04,0 23.64,-9.3 23.64,-22.14 0,-12.84 -9.6,-22.14 -23.64,-22.14 z m 0,29.22 c -3.78,0 -6.9,-3.18 -6.9,-7.08 0,-3.9 2.7,-7.08 6.9,-7.08 4.2,0 6.9,3.18 6.9,7.08 0,3.9 -3.12,7.08 -6.9,7.08 z" />
      <path
         id="path36"
         style="font-family:'MADE Soulmaze';letter-spacing:0.075em"
         d="m 478.77578,100 h 17.16 l -7.74,-14.46 c 3.48,-2.52 5.22,-6.54 5.22,-12.12 0,-10.32 -5.94,-15.42 -18.12,-15.42 -0.24,0 -21.42,0 -21.42,0 v 42 h 16.02 V 88.78 c 1.14,0 2.46,0 3.48,0 z m -5.04,-30 c 2.64,0 4.08,0.9 4.08,3.42 0,2.46 -1.44,3.36 -4.08,3.36 -0.9,0 -2.46,0 -3.84,0 V 70 c 1.38,0 2.94,0 3.84,0 z" />
      <path
         id="path38"
         style="font-family:'MADE Soulmaze';letter-spacing:0.075em"
         d="m 532.21516,100 h 17.16 l -12.6,-42 h -23.64 l -12.6,42 h 17.16 l 1.56,-6.66 h 11.4 z m -10.08,-19.2 1.98,-8.52 h 1.68 l 1.98,8.52 z" />
      <path
         id="path40"
         style="font-family:'MADE Soulmaze';letter-spacing:0.075em"
         d="m 588.51203,58 v 20.88 h -0.42 l -9.48,-20.88 h -20.58 v 42 h 16.02 V 79.12 h 0.42 l 10.02,20.88 h 20.04 V 58 Z" />
      <path
         id="path42"
         style="font-family:'MADE Soulmaze';letter-spacing:0.075em"
         d="M 649.78609,70.6 V 58 h -35.34 v 42 h 35.34 V 87.4 h -19.32 v -2.7 h 17.58 V 73.3 h -17.58 v -2.7 z" />
      <path
         id="path44"
         style="font-family:'MADE Soulmaze';letter-spacing:0.075em"
         d="m 689.62141,100 h 17.16 l -12.6,-42 h -23.64 l -12.6,42 h 17.16 l 1.56,-6.66 h 11.4 z m -10.08,-19.2 1.98,-8.52 h 1.68 l 1.98,8.52 z" />
    </g>
  </g>
</svg>
