<?xml version="1.0" encoding="UTF-8" standalone="no"?>
<svg
   xmlns:dc="http://purl.org/dc/elements/1.1/"
   xmlns:cc="http://creativecommons.org/ns#"
   xmlns:rdf="http://www.w3.org/1999/02/22-rdf-syntax-ns#"
   xmlns:svg="http://www.w3.org/2000/svg"
   xmlns="http://www.w3.org/2000/svg"
   id="svg16"
   width="500px"
   version="1.1"
   height="200px">
  <metadata
     id="metadata20">
    <rdf:RDF>
      <cc:Work
         rdf:about="">
        <dc:format>image/svg+xml</dc:format>
        <dc:type
           rdf:resource="http://purl.org/dc/dcmitype/StillImage" />
      </cc:Work>
    </rdf:RDF>
  </metadata>
  <defs
     id="defs4">
    <style
       id="style2"
       type="text/css"><![CDATA[    
     @font-face {font-family:Making a List Checking it Twice;
     src: url('/Users/francesco/Repos/write-logos/src/fonts/Making_a_List,_Checking_it_Twice.ttf');}
     @font-face {font-family:Howling Sinister;
     src: url('/Users/francesco/Repos/write-logos/src/fonts/Howling_Sinister.ttf');}
     ]]></style>
  </defs>
  <g
     id="g14"
     style="font-size:30px">
    <g
       style="text-anchor:middle"
       id="text12"
       aria-label="eXtemporanea">
      <path
         id="path22"
         style="font-family:'Making a List Checking it Twice'"
         d="m 113.54688,98.29 q 0.18,0.03 0.32999,0.06 0.18001,0 0.36,0 0.81001,0 1.59001,-0.12 0.81,-0.12 1.59,-0.15 0.72,-0.03 1.47,0.21 0.78,0.21 1.56,0.21 0.92999,0 1.8,0.09 0.86999,0.06 1.8,0.06 0.09,0 0.18,0 0.09,-0.03 0.18,-0.03 0.45,0 0.92999,0.09 0.48,0.09 1.02001,0.09 0.75,-0.42 1.41,-0.54 0.65999,-0.12 1.16999,-0.33 0.54,-0.21 0.93,-0.75 0.42,-0.54 0.69,-1.8 0.03,-0.12 0.03,-0.33 0,-0.33 -0.48,-0.66 -0.15,0.78 -0.51,1.35 -0.33,0.54 -0.96,0.54 -0.42,0 -0.68999,-0.24 -0.24001,-0.24 -0.24001,-0.84 0,-0.18 0.15001,-0.48 0.14999,-0.3 0.41999,-0.57 0.27,-0.27 0.63001,-0.48 0.38999,-0.21 0.81,-0.21 0.29999,0 0.53999,0.21 0.27,0.18 0.48,0.48 0.21,0.27 0.33,0.6 0.12,0.33 0.12,0.6 0,1.11 -0.48,1.92 -0.45,0.78 -1.2,1.32 -0.75,0.51 -1.70999,0.75 -0.96,0.24 -1.92001,0.24 -1.23,0 -2.45999,-0.15 -1.23,-0.18 -2.43001,-0.18 -0.23999,0 -0.50999,0.03 -0.27001,0 -0.51,0 -0.60001,0 -1.17,-0.21 -0.57,-0.21 -1.08,-0.21 -0.81,0 -1.62001,0.12 -0.78,0.09 -1.59,0.09 -0.47999,0 -1.02,-0.12 -0.50999,-0.15 -0.84,-0.24 -0.33,0.45 -0.66,0.96 -0.32999,0.48 -0.68999,0.9 -0.36,0.45 -0.75,0.72 -0.36,0.27 -0.81001,0.27 -0.71999,0 -1.34999,-0.57 -0.63001,-0.54 -0.63001,-1.38 0,-0.39 0.18001,-0.75 0.20999,-0.36 0.51,-0.63 0.3,-0.3 0.66,-0.48 0.36,-0.18 0.69,-0.18 0.54,0 1.14,0.15 0.62999,0.12 1.26,0.24 0.41999,-0.75 0.75,-1.56 0.33,-0.81 0.6,-1.65 0.29999,-0.84 0.59999,-1.68 0.33001,-0.87 0.72,-1.68 0.21001,-0.48 0.36001,-0.99 0.18,-0.51 0.33,-1.02 0.14999,-0.54 0.33,-1.05 0.20999,-0.51 0.50999,-1.02 0.12001,-0.12 0.21001,-0.54 0.12,-0.42 0.20999,-0.93 0.09,-0.51 0.15001,-0.99 0.09,-0.51 0.14999,-0.81 0.21001,-0.87 0.48,-1.71 0.27,-0.87 0.39,-1.83 -0.15,-0.03 -0.26999,-0.06 -0.09,-0.03 -0.24,-0.03 -0.87,0 -1.77001,0.12 -0.86999,0.09 -1.73999,0.09 -0.60001,0 -1.26001,-0.15 -0.65999,-0.18 -1.2,-0.54 -0.53999,-0.36 -0.89999,-0.87 -0.36,-0.54 -0.36,-1.26 0,-1.08 0.45,-1.8 0.47999,-0.72 1.02,-1.17 0.53999,-0.45 0.98999,-0.63 0.45001,-0.18 0.42,-0.15 0.18001,-0.12 0.3,-0.12 0.15001,0 0.30001,0.15 0.18,0.12 0.33,0.12 0.09,0 0.17999,-0.03 0.12001,-0.03 0.21001,-0.03 0.27,0 0.57,0.24 0.29999,0.24 0.29999,0.6 0,0.36 -0.33,0.66 -0.29999,0.27 -0.75,0.48 -0.42,0.18 -0.87,0.3 -0.41999,0.09 -0.66,0.09 -0.23999,0 -0.36,-0.15 -0.11999,-0.18 -0.36,-0.69 -0.26999,0.24 -0.50999,0.63 -0.21,0.36 -0.39,0.75 -0.18,0.36 -0.27001,0.69 -0.09,0.3 -0.09,0.42 0,0.27 0.27,0.6 0.27,0.3 0.69,0.57 0.42,0.24 0.92999,0.42 0.54001,0.15 1.05001,0.15 1.19999,0 2.33999,-0.15 1.14,-0.15 2.37,-0.15 0.06,0 0.15001,0.03 0.11999,0 0.17999,0 0.18001,0 0.33,-0.09 0.18001,-0.12 0.33,-0.12 0.30001,0 0.57001,0.06 0.29999,0.03 0.59999,0.03 0.33,0 0.60001,-0.03 0.3,-0.06 0.63,-0.06 0.35999,0 0.71999,0.03 0.36,0 0.72,0 1.32001,0 2.64,-0.24 1.35001,-0.27 2.88,-0.27 0.51,0 1.14,0.12 0.63,0.12 1.17,0.39 0.54,0.27 0.9,0.72 0.39,0.42 0.39,1.05 0,0.54 -0.3,1.02 -0.27,0.48 -0.66,0.84 -0.39,0.36 -0.78,0.63 -0.39,0.24 -0.6,0.33 -0.32999,0.18 -0.63,0.18 -0.57,0 -1.05,-0.36 -0.47999,-0.36 -0.47999,-0.96 0.03,-0.21 0.15,-0.54 0.14999,-0.33 0.38999,-0.63 0.24,-0.33 0.6,-0.54 0.39,-0.24 0.9,-0.24 0.42,0 0.66,0.39 0.24,0.39 0.24,0.72 0,0.3 -0.09,0.45 -0.06,0.15 -0.09,0.24 0.33,0 0.54,-0.21 0.24,-0.24 0.36,-0.51 0.15,-0.27 0.18,-0.51 0.06,-0.27 0.06,-0.33 0,-0.51 -0.42,-0.78 -0.39,-0.3 -0.93,-0.45 -0.51,-0.15 -1.02,-0.18 -0.51,-0.06 -0.72,-0.06 -1.19999,0 -2.43,0.3 -1.19999,0.27 -2.48999,0.27 -0.66,0 -1.32001,-0.03 -0.66,-0.06 -1.34999,-0.06 -0.24,0 -0.51001,0.06 -0.26999,0.03 -0.50999,0.21 0.27,0.15 0.33,0.27 0.09,0.09 0.09,0.24 0,0.39 -0.21001,0.81 -0.20999,0.42 -0.45,0.84 -0.23999,0.39 -0.45,0.78 -0.21,0.36 -0.21,0.66 0,0.12 0.06,0.24 0.09,0.09 0.09,0.24 0,0.09 -0.06,0.27 -0.48001,1.05 -0.99,2.07 -0.51,0.99 -0.87,2.07 0.14999,-0.03 0.23999,-0.03 0.12001,-0.03 0.21001,-0.06 0.36,0 0.72,0.06 0.39,0.03 0.72,0.03 0.3,0 0.59999,-0.06 0.3,-0.06 0.60001,-0.06 0.33,0 0.6,0.06 0.29999,0.06 0.62999,0.06 0.48001,0 0.99001,-0.09 0.50999,-0.09 1.02,-0.09 0.45,0 0.89999,0.03 0.48,0 0.93001,0 0.32999,0 0.68999,0.12 0.36,0.12 0.63001,0.12 0.18,0 0.36,-0.06 0.17999,-0.09 0.33,-0.09 0.11999,0 0.20999,0.09 0.09,0.09 0.18001,0.09 0.09,0 0.20999,-0.06 0.12,-0.09 0.21,-0.09 0.21,0 0.39,0.06 0.21,0.03 0.42,0.03 0.24,0 0.45,-0.06 0.24,-0.09 0.48,-0.09 0.33001,0.03 0.66,0.06 0.36,0 0.69,0 0.12,0 0.21,-0.06 0.09,-0.06 0.24,-0.12 0.03,0.12 0.03,0.24 0,0.09 0.03,0.18 0.66,0 1.08,-0.42 0.42,-0.42 0.42,-0.99 0,-0.33 -0.12,-0.57 -0.36,0.33 -0.78,0.69 -0.39,0.33 -0.81,0.33 -0.48,0 -0.75,-0.3 -0.24,-0.33 -0.24,-0.75 0,-0.24 0.15,-0.54 0.15,-0.3 0.39,-0.54 0.24,-0.27 0.54,-0.45 0.33,-0.18 0.66,-0.18 0.33,0 0.6,0.24 0.27,0.24 0.45,0.6 0.18,0.36 0.27,0.75 0.12,0.39 0.12,0.69 0,0.36 -0.15,0.75 -0.15,0.39 -0.42,0.69 -0.24,0.3 -0.57,0.51 -0.3,0.18 -0.66,0.18 -0.33,0 -0.69,-0.12 -0.33,-0.15 -0.66,-0.15 -0.84,0 -1.68,0.03 -0.81,0.03 -1.64999,0.03 -0.81001,0 -1.59001,-0.12 -0.75,-0.12 -1.56,-0.12 -0.44999,0 -0.89999,0.06 -0.45,0.06 -0.90001,0.06 -0.32999,0 -0.65999,-0.03 -0.3,-0.06 -0.63,-0.06 -0.60001,0 -1.26,0.06 -0.63,0.06 -1.23001,0.06 -0.26999,0 -0.50999,-0.03 -0.24001,-0.06 -0.42,-0.06 -0.45,0 -1.05,0.9 -0.60001,0.87 -1.08001,2.76 -0.06,0.42 -0.3,0.75 -0.20999,0.33 -0.26999,0.66 -0.06,0.51 -0.3,0.99 -0.21001,0.45 -0.48,0.93 -0.24,0.48 -0.48001,0.93 -0.20999,0.45 -0.26999,0.9 z m -4.23001,1.89 q 0.21001,0.15 0.36,0.15 0.18001,0 0.48001,-0.15 0.29999,-0.15 0.59999,-0.39 0.33001,-0.27 0.57001,-0.57 0.26999,-0.33 0.33,-0.69 -0.27,-0.06 -0.54001,-0.09 -0.27,-0.03 -0.53999,-0.03 -0.12001,0 -0.33,0.06 -0.18001,0.06 -0.39,0.18 -0.18001,0.09 -0.33,0.21 -0.12,0.09 -0.12,0.18 0,0.06 0.03,0.15 0.03,0.09 0.03,0.15 0,0.24 -0.09,0.45 -0.06,0.18 -0.06,0.39 z" />
      <path
         id="path24"
         style="font-family:'Howling Sinister'"
         d="M 143.34473,100.41016 Q 142.43652,100 140.03418,95.092773 q -0.43945,-0.922851 -0.9668,-2.050781 -0.52734,-1.142578 -0.74707,-1.68457 -0.0732,-0.175781 -0.10254,-0.205078 -0.0146,-0.0293 -0.0293,-0.0293 -0.0293,0 -0.0439,0.04394 -0.0293,0.04395 -0.33691,0.629883 -0.29297,0.585937 -0.71778,1.420898 -0.99609,1.992188 -1.46484,3.090821 -0.46875,1.083984 -0.65918,1.860351 -0.0586,0.234375 -0.11719,0.410157 -0.0586,0.175781 -0.0879,0.205078 -0.0879,0.07324 -0.17578,0.07324 -0.0732,0 -0.14648,-0.04394 -0.19043,-0.08789 -0.19043,-0.292969 0,-0.175781 0.10254,-0.585938 0.10253,-0.410156 0.26367,-0.878906 0.24902,-0.732422 0.71777,-1.787109 0.4834,-1.069336 1.36231,-2.8125 L 137.82227,90.214844 137.5,89.394531 q -1.56738,-3.867187 -2.25586,-7.617187 -0.13184,-0.717774 -0.19043,-1.31836 -0.0586,-0.600586 -0.0586,-0.849609 v -0.102539 q 0.0586,-0.292969 0.19043,-0.366211 0.14648,-0.08789 0.23437,-0.08789 0.10254,0 0.21973,0.07324 0.11719,0.08789 0.19043,0.36621 0.0732,0.263672 0.0879,0.644532 0.0439,0.571289 0.36621,2.050781 0.32227,1.479492 0.68848,2.783203 0.29296,1.040039 0.68847,2.226563 0.39551,1.186523 0.65918,1.875 0.0146,0.04395 0.0146,0.05859 0.0147,0 0.0293,0 0.0146,0 0.0439,-0.0293 0.0293,-0.04395 0.0879,-0.146484 0.0733,-0.117187 0.19043,-0.307617 0.11719,-0.205078 0.27832,-0.527344 2.18262,-3.999023 4.62891,-7.749023 0.29297,-0.454102 0.49805,-0.805664 0.21972,-0.351563 0.24902,-0.439453 0.0293,-0.07324 0.0879,-0.175782 0.0732,-0.117187 0.16113,-0.219726 0.13184,-0.131836 0.20508,-0.175782 0.0732,-0.04395 0.16113,-0.04395 0.23438,0 0.29297,0.131836 0.0586,0.117188 0.0586,0.19043 0,0.131836 -0.0732,0.27832 -0.0439,0.07324 -0.26367,0.424805 -0.21972,0.351562 -0.51269,0.805664 -1.97754,3.061523 -3.58887,5.874023 -0.33691,0.571289 -0.77637,1.347657 -0.4248,0.776367 -0.79101,1.435546 -0.36621,0.65918 -0.4834,0.893555 l -0.10254,0.205078 0.33691,0.791016 q 1.09864,2.680664 2.29981,5.097656 1.21582,2.402344 1.94824,3.427734 0.13184,0.161133 0.21973,0.249024 0.10254,0.08789 0.21972,0.131836 0.29297,0.117187 0.29297,0.307618 0,0.0879 -0.0586,0.17578 -0.0586,0.0879 -0.17578,0.14648 -0.10254,0.0733 -0.20508,0.0733 -0.0293,0 -0.10254,-0.0293 -0.0586,-0.0293 -0.14648,-0.0586 z" />
      <path
         id="path26"
         style="font-family:'Making a List Checking it Twice'"
         d="m 166.26016,80.2 q -0.42,0.87 -0.81,1.41 -0.39,0.51 -1.29,0.51 -0.6,0 -0.99,-0.24 -0.39,-0.27 -0.39,-0.69 0,-0.42 0.33,-0.81 0.33,-0.39 0.81,-0.69 0.48,-0.3 1.02,-0.48 0.54,-0.18 0.93,-0.18 0.12,0 0.42,0.18 0.3,0.18 0.6,0.45 0.3,0.27 0.51,0.6 0.24,0.33 0.24,0.63 0,0.06 -0.03,0.12 0,0.06 0,0.12 0,0.12 0.06,0.24 0.06,0.09 0.06,0.21 0,0.24 -0.21,0.57 -0.18,0.33 -0.42,0.63 -0.21,0.3 -0.39,0.51 -0.18,0.21 -0.15,0.21 -1.32,0.78 -2.58,1.14 -1.26,0.33 -2.76,0.33 -0.96,0 -1.95,-0.06 -0.99,-0.09 -1.92,-0.33 -0.33,1.53 -0.9,2.91 -0.54,1.38 -0.78,2.79 -0.09,0.54 -0.36,1.17 -0.24,0.63 -0.51,1.26 -0.27,0.63 -0.51,1.2 -0.21,0.57 -0.21,1.02 0,0.48 -0.27,1.11 -0.27,0.6 -0.63,1.17 -0.36,0.57 -0.72,0.99 -0.33,0.42 -0.45,0.48 -0.42,0.27 -0.78,0.51 -0.36,0.24 -0.75,0.45 -0.39,0.18 -0.87,0.3 -0.48,0.12 -1.14,0.12 -0.45,0 -0.9,-0.03 -0.42,-0.03 -0.87,-0.03 -0.24,0 -0.51,-0.12 -0.27,-0.15 -0.48,-0.15 -0.12,0.03 -0.3,0.03 -0.66,0 -1.14,-0.39 -0.48,-0.42 -0.78,-0.96 -0.3,-0.57 -0.45,-1.14 -0.15,-0.6 -0.15,-0.96 0,-0.72 0.3,-1.47 0.33,-0.78 0.81,-1.41 0.48,-0.63 1.05,-1.05 0.57,-0.42 1.11,-0.42 0.33,0 0.66,0.18 0.36,0.18 0.63,0.48 0.3,0.27 0.48,0.66 0.18,0.36 0.18,0.75 0,0.27 -0.15,0.57 -0.12,0.3 -0.36,0.54 -0.21,0.24 -0.51,0.42 -0.27,0.15 -0.57,0.15 -0.45,0 -0.81,-0.36 -0.33,-0.39 -0.33,-0.69 0,-0.09 0.09,-0.33 0.09,-0.27 0.24,-0.54 0.18,-0.27 0.39,-0.51 0.24,-0.27 0.51,-0.36 -0.3,-0.39 -0.66,-0.39 -0.45,0 -0.84,0.36 -0.36,0.33 -0.66,0.84 -0.27,0.48 -0.48,1.02 -0.18,0.51 -0.27,0.84 -0.09,0.42 -0.09,0.75 0,0.84 0.36,1.44 0.39,0.6 0.99,0.99 0.6,0.39 1.35,0.57 0.78,0.18 1.56,0.18 1.23,0 2.07,-0.3 0.87,-0.33 1.5,-0.99 0.63,-0.69 1.11,-1.71 0.48,-1.02 0.99,-2.46 0.51,-1.44 1.14,-3.3 0.63,-1.86 1.56,-4.17 0.15,-0.51 0.3,-0.87 0.15,-0.39 0.15,-0.63 0,-0.15 -0.03,-0.3 -0.03,-0.15 -0.09,-0.33 -0.06,0 -0.15,0.03 -0.09,0 -0.18,0 0,-0.18 -0.15,-0.3 -0.12,-0.15 -0.3,-0.24 -0.18,-0.09 -0.39,-0.15 -0.21,-0.09 -0.39,-0.15 -0.42,-0.09 -0.78,-0.3 -0.36,-0.24 -0.69,-0.51 -0.33,-0.27 -0.66,-0.54 -0.3,-0.3 -0.66,-0.51 -0.3,-0.18 -0.75,-0.51 -0.45,-0.33 -0.93,-0.66 -0.45,-0.36 -0.84,-0.6 -0.39,-0.27 -0.51,-0.27 -0.42,0 -0.81,0.12 -0.39,0.09 -0.81,0.09 -0.42,0 -0.99,0.45 -0.54,0.42 -1.08,1.02 -0.51,0.57 -0.9,1.23 -0.36,0.63 -0.39,1.02 -0.06,0.42 -0.15,0.87 -0.09,0.42 -0.15,0.84 0.3,0.12 0.57,0.12 0.54,0 1.11,-0.24 0.57,-0.24 0.81,-0.57 -1.2,0 -1.2,-0.69 0,-0.48 0.24,-0.78 0.27,-0.33 0.63,-0.51 0.36,-0.18 0.72,-0.24 0.39,-0.06 0.63,-0.06 0.36,0 0.78,0.06 0.42,0.03 0.42,0.3 0,0.63 -0.45,1.23 -0.42,0.6 -1.08,1.08 -0.63,0.45 -1.41,0.75 -0.78,0.27 -1.44,0.27 -0.66,0 -0.9,-0.15 -0.24,-0.15 -0.24,-0.6 0,-0.63 0.18,-1.38 0.21,-0.75 0.57,-1.44 0.36,-0.69 0.87,-1.23 0.51,-0.57 1.14,-0.84 0.42,-0.21 0.63,-0.42 0.21,-0.24 0.51,-0.42 0.3,-0.21 0.81,-0.33 0.51,-0.12 1.53,-0.12 0.21,0 0.54,0.21 0.33,0.21 0.63,0.48 0.33,0.27 0.57,0.51 0.24,0.24 0.27,0.27 0.51,0.57 1.2,0.87 0.69,0.27 1.08,0.66 0.6,0.6 1.44,1.02 0.87,0.42 1.8,0.69 0.93,0.27 1.86,0.42 0.93,0.12 1.68,0.12 0.75,0 1.86,-0.12 1.14,-0.15 2.16,-0.48 1.05,-0.36 1.77,-0.93 0.75,-0.6 0.75,-1.5 0,-0.75 -0.69,-1.2 z" />
      <path
         id="path28"
         style="font-family:'Making a List Checking it Twice'"
         d="m 175.65625,98.29 q 0.18,0.03 0.33,0.06 0.18,0 0.36,0 0.81,0 1.59,-0.12 0.81,-0.12 1.59,-0.15 0.72,-0.03 1.47,0.21 0.78,0.21 1.56,0.21 0.93,0 1.8,0.09 0.87,0.06 1.8,0.06 0.09,0 0.18,0 0.09,-0.03 0.18,-0.03 0.45,0 0.93,0.09 0.48,0.09 1.02,0.09 0.75,-0.42 1.41,-0.54 0.66,-0.12 1.17,-0.33 0.54,-0.21 0.93,-0.75 0.42,-0.54 0.69,-1.8 0.03,-0.12 0.03,-0.33 0,-0.33 -0.48,-0.66 -0.15,0.78 -0.51,1.35 -0.33,0.54 -0.96,0.54 -0.42,0 -0.69,-0.24 -0.24,-0.24 -0.24,-0.84 0,-0.18 0.15,-0.48 0.15,-0.3 0.42,-0.57 0.27,-0.27 0.63,-0.48 0.39,-0.21 0.81,-0.21 0.3,0 0.54,0.21 0.27,0.18 0.48,0.48 0.21,0.27 0.33,0.6 0.12,0.33 0.12,0.6 0,1.11 -0.48,1.92 -0.45,0.78 -1.2,1.32 -0.75,0.51 -1.71,0.75 -0.96,0.24 -1.92,0.24 -1.23,0 -2.46,-0.15 -1.23,-0.18 -2.43,-0.18 -0.24,0 -0.51,0.03 -0.27,0 -0.51,0 -0.6,0 -1.17,-0.21 -0.57,-0.21 -1.08,-0.21 -0.81,0 -1.62,0.12 -0.78,0.09 -1.59,0.09 -0.48,0 -1.02,-0.12 -0.51,-0.15 -0.84,-0.24 -0.33,0.45 -0.66,0.96 -0.33,0.48 -0.69,0.9 -0.36,0.45 -0.75,0.72 -0.36,0.27 -0.81,0.27 -0.72,0 -1.35,-0.57 -0.63,-0.54 -0.63,-1.38 0,-0.39 0.18,-0.75 0.21,-0.36 0.51,-0.63 0.3,-0.3 0.66,-0.48 0.36,-0.18 0.69,-0.18 0.54,0 1.14,0.15 0.63,0.12 1.26,0.24 0.42,-0.75 0.75,-1.56 0.33,-0.81 0.6,-1.65 0.3,-0.84 0.6,-1.68 0.33,-0.87 0.72,-1.68 0.21,-0.48 0.36,-0.99 0.18,-0.51 0.33,-1.02 0.15,-0.54 0.33,-1.05 0.21,-0.51 0.51,-1.02 0.12,-0.12 0.21,-0.54 0.12,-0.42 0.21,-0.93 0.09,-0.51 0.15,-0.99 0.09,-0.51 0.15,-0.81 0.21,-0.87 0.48,-1.71 0.27,-0.87 0.39,-1.83 -0.15,-0.03 -0.27,-0.06 -0.09,-0.03 -0.24,-0.03 -0.87,0 -1.77,0.12 -0.87,0.09 -1.74,0.09 -0.6,0 -1.26,-0.15 -0.66,-0.18 -1.2,-0.54 -0.54,-0.36 -0.9,-0.87 -0.36,-0.54 -0.36,-1.26 0,-1.08 0.45,-1.8 0.48,-0.72 1.02,-1.17 0.54,-0.45 0.99,-0.63 0.45,-0.18 0.42,-0.15 0.18,-0.12 0.3,-0.12 0.15,0 0.3,0.15 0.18,0.12 0.33,0.12 0.09,0 0.18,-0.03 0.12,-0.03 0.21,-0.03 0.27,0 0.57,0.24 0.3,0.24 0.3,0.6 0,0.36 -0.33,0.66 -0.3,0.27 -0.75,0.48 -0.42,0.18 -0.87,0.3 -0.42,0.09 -0.66,0.09 -0.24,0 -0.36,-0.15 -0.12,-0.18 -0.36,-0.69 -0.27,0.24 -0.51,0.63 -0.21,0.36 -0.39,0.75 -0.18,0.36 -0.27,0.69 -0.09,0.3 -0.09,0.42 0,0.27 0.27,0.6 0.27,0.3 0.69,0.57 0.42,0.24 0.93,0.42 0.54,0.15 1.05,0.15 1.2,0 2.34,-0.15 1.14,-0.15 2.37,-0.15 0.06,0 0.15,0.03 0.12,0 0.18,0 0.18,0 0.33,-0.09 0.18,-0.12 0.33,-0.12 0.3,0 0.57,0.06 0.3,0.03 0.6,0.03 0.33,0 0.6,-0.03 0.3,-0.06 0.63,-0.06 0.36,0 0.72,0.03 0.36,0 0.72,0 1.32,0 2.64,-0.24 1.35,-0.27 2.88,-0.27 0.51,0 1.14,0.12 0.63,0.12 1.17,0.39 0.54,0.27 0.9,0.72 0.39,0.42 0.39,1.05 0,0.54 -0.3,1.02 -0.27,0.48 -0.66,0.84 -0.39,0.36 -0.78,0.63 -0.39,0.24 -0.6,0.33 -0.33,0.18 -0.63,0.18 -0.57,0 -1.05,-0.36 -0.48,-0.36 -0.48,-0.96 0.03,-0.21 0.15,-0.54 0.15,-0.33 0.39,-0.63 0.24,-0.33 0.6,-0.54 0.39,-0.24 0.9,-0.24 0.42,0 0.66,0.39 0.24,0.39 0.24,0.72 0,0.3 -0.09,0.45 -0.06,0.15 -0.09,0.24 0.33,0 0.54,-0.21 0.24,-0.24 0.36,-0.51 0.15,-0.27 0.18,-0.51 0.06,-0.27 0.06,-0.33 0,-0.51 -0.42,-0.78 -0.39,-0.3 -0.93,-0.45 -0.51,-0.15 -1.02,-0.18 -0.51,-0.06 -0.72,-0.06 -1.2,0 -2.43,0.3 -1.2,0.27 -2.49,0.27 -0.66,0 -1.32,-0.03 -0.66,-0.06 -1.35,-0.06 -0.24,0 -0.51,0.06 -0.27,0.03 -0.51,0.21 0.27,0.15 0.33,0.27 0.09,0.09 0.09,0.24 0,0.39 -0.21,0.81 -0.21,0.42 -0.45,0.84 -0.24,0.39 -0.45,0.78 -0.21,0.36 -0.21,0.66 0,0.12 0.06,0.24 0.09,0.09 0.09,0.24 0,0.09 -0.06,0.27 -0.48,1.05 -0.99,2.07 -0.51,0.99 -0.87,2.07 0.15,-0.03 0.24,-0.03 0.12,-0.03 0.21,-0.06 0.36,0 0.72,0.06 0.39,0.03 0.72,0.03 0.3,0 0.6,-0.06 0.3,-0.06 0.6,-0.06 0.33,0 0.6,0.06 0.3,0.06 0.63,0.06 0.48,0 0.99,-0.09 0.51,-0.09 1.02,-0.09 0.45,0 0.9,0.03 0.48,0 0.93,0 0.33,0 0.69,0.12 0.36,0.12 0.63,0.12 0.18,0 0.36,-0.06 0.18,-0.09 0.33,-0.09 0.12,0 0.21,0.09 0.09,0.09 0.18,0.09 0.09,0 0.21,-0.06 0.12,-0.09 0.21,-0.09 0.21,0 0.39,0.06 0.21,0.03 0.42,0.03 0.24,0 0.45,-0.06 0.24,-0.09 0.48,-0.09 0.33,0.03 0.66,0.06 0.36,0 0.69,0 0.12,0 0.21,-0.06 0.09,-0.06 0.24,-0.12 0.03,0.12 0.03,0.24 0,0.09 0.03,0.18 0.66,0 1.08,-0.42 0.42,-0.42 0.42,-0.99 0,-0.33 -0.12,-0.57 -0.36,0.33 -0.78,0.69 -0.39,0.33 -0.81,0.33 -0.48,0 -0.75,-0.3 -0.24,-0.33 -0.24,-0.75 0,-0.24 0.15,-0.54 0.15,-0.3 0.39,-0.54 0.24,-0.27 0.54,-0.45 0.33,-0.18 0.66,-0.18 0.33,0 0.6,0.24 0.27,0.24 0.45,0.6 0.18,0.36 0.27,0.75 0.12,0.39 0.12,0.69 0,0.36 -0.15,0.75 -0.15,0.39 -0.42,0.69 -0.24,0.3 -0.57,0.51 -0.3,0.18 -0.66,0.18 -0.33,0 -0.69,-0.12 -0.33,-0.15 -0.66,-0.15 -0.84,0 -1.68,0.03 -0.81,0.03 -1.65,0.03 -0.81,0 -1.59,-0.12 -0.75,-0.12 -1.56,-0.12 -0.45,0 -0.9,0.06 -0.45,0.06 -0.9,0.06 -0.33,0 -0.66,-0.03 -0.3,-0.06 -0.63,-0.06 -0.6,0 -1.26,0.06 -0.63,0.06 -1.23,0.06 -0.27,0 -0.51,-0.03 -0.24,-0.06 -0.42,-0.06 -0.45,0 -1.05,0.9 -0.6,0.87 -1.08,2.76 -0.06,0.42 -0.3,0.75 -0.21,0.33 -0.27,0.66 -0.06,0.51 -0.3,0.99 -0.21,0.45 -0.48,0.93 -0.24,0.48 -0.48,0.93 -0.21,0.45 -0.27,0.9 z m -4.23,1.89 q 0.21,0.15 0.36,0.15 0.18,0 0.48,-0.15 0.3,-0.15 0.6,-0.39 0.33,-0.27 0.57,-0.57 0.27,-0.33 0.33,-0.69 -0.27,-0.06 -0.54,-0.09 -0.27,-0.03 -0.54,-0.03 -0.12,0 -0.33,0.06 -0.18,0.06 -0.39,0.18 -0.18,0.09 -0.33,0.21 -0.12,0.09 -0.12,0.18 0,0.06 0.03,0.15 0.03,0.09 0.03,0.15 0,0.24 -0.09,0.45 -0.06,0.18 -0.06,0.39 z" />
      <path
         id="path30"
         style="font-family:'Making a List Checking it Twice'"
         d="m 218.54687,100.9 q 0.9,-0.45 1.62,-0.66 0.75,-0.18 1.38,-0.51 0.63,-0.33 1.2,-0.96 0.57,-0.63 1.17,-1.89 -0.33,0.06 -0.63,0.12 -0.27,0.03 -0.51,0.09 -0.54,-0.63 -0.54,-1.47 0,-0.39 0.18,-0.84 0.21,-0.45 0.51,-0.84 0.33,-0.39 0.69,-0.66 0.39,-0.27 0.72,-0.27 0.75,0 0.96,0.42 0.24,0.42 0.24,1.02 0,1.62 -0.78,2.94 -0.75,1.32 -1.83,2.25 -1.05,0.93 -2.22,1.41 -1.14,0.51 -1.92,0.51 -0.57,0 -0.96,-0.39 -0.35999,-0.39 -0.35999,-0.9 0,-0.63 0.20999,-1.32 0.24,-0.69 0.54,-1.41 0.33,-0.72 0.66,-1.41 0.36,-0.69 0.63,-1.29 0.48,-1.11 0.63,-2.25 0.18,-1.17 0.57,-2.22 0.39,-1.11 0.81,-2.1 0.42,-1.02 0.78,-2.04 0.39,-1.05 0.75,-2.13 0.36001,-1.08 0.63,-2.34 0.03,-0.12 0.03,-0.3 0,-0.03 -0.18,-0.24 -0.15,-0.24 -0.42,-0.45 -0.27,-0.24 -0.6,-0.42 -0.33,-0.21 -0.69,-0.21 -1.11,0 -2.13,0.45 -0.99,0.45 -1.8,1.02 -0.78,0.57 -1.29,1.11 -0.48,0.51 -0.57,0.66 -0.27,0.48 -0.54,0.48 -0.18,0 -0.54,-0.12 -0.53999,0.81 -1.02,2.01 -0.48,1.17 -0.84,2.1 -0.63,1.53 -1.11,3.12 -0.45,1.59 -1.02,3.15 -0.18,0.51 -0.39,1.14 -0.18,0.6 -0.36,1.26 -0.15,0.63 -0.27,1.29 -0.09,0.63 -0.09,1.2 0,0.36 0.18,0.57 0.21,0.18 0.51,0.3 0.33,0.12 0.69,0.15 0.39,0.03 0.72,0.03 0.6,0 1.08,-0.51 0.51,-0.54 0.87,-1.14 0.36,-0.63 0.57,-1.14 0.21,-0.54 0.24,-0.54 v 0.03 q -0.29999,0.24 -0.57,0.42 -0.27,0.15 -0.57,0.15 -0.42,0 -0.72,-0.3 -0.27,-0.3 -0.27,-0.81 0,-1.26 0.66,-1.98 0.69,-0.72 2.04,-0.72 0.45,0.06 0.57,0.57 0.12001,0.48 0.12001,0.81 0,0.39 -0.12001,0.75 -0.12,0.36 -0.27,0.69 -0.12,0.33 -0.24,0.63 -0.12,0.27 -0.12,0.54 0,0.6 -0.36,1.17 -0.33,0.57 -0.84,1.02 -0.48,0.45 -0.99,0.72 -0.51,0.27 -0.86999,0.27 -0.42001,0 -0.96001,-0.09 -0.51,-0.06 -0.96,-0.24 -0.45,-0.18 -0.75,-0.48 -0.3,-0.33 -0.3,-0.81 0,-1.26 0.27,-2.61 0.3,-1.35 0.69,-2.61 0.39,-1.26 0.81,-2.34 0.45001,-1.11 0.72,-1.86 0.24,-0.69 0.57,-1.44 0.36,-0.78 0.66001,-1.5 0.32999,-0.72 0.53999,-1.32 0.21001,-0.63 0.21001,-1.02 0,-0.27 0.11999,-0.57 0.15,-0.33 0.3,-0.72 0.18,-0.39 0.3,-0.81 0.15,-0.42 0.15,-0.87 0,-0.87 -0.42,-1.08 -0.42,-0.24 -0.96,-0.24 -0.21,0 -0.45,0.18 -0.24,0.18 -0.48,0.42 -0.21,0.21 -0.42,0.39 -0.21,0.18 -0.38999,0.18 -0.09,0 -0.18001,-0.06 -0.06,-0.09 -0.12,-0.09 -0.24,0 -0.6,0.36 -0.33,0.33 -0.72,0.81 -0.36,0.45 -0.78,0.9 -0.39,0.45 -0.72,0.66 -0.48,0.3 -0.96,0.9 -0.48,0.57 -0.9,1.29 -0.42,0.72 -0.78,1.53 -0.36,0.78 -0.57,1.47 -0.78,2.49 -1.74,4.89 -0.96,2.37 -1.92,4.77 -0.06,0.09 -0.12,0.21 -0.03,0.12 -0.03,0.18 0,0.09 0.03,0.18 0.06,0.09 0.06,0.18 0,0.21 -0.12,0.45 -0.12,0.24 -0.27,0.51 -0.15,0.27 -0.3,0.6 -0.12,0.33 -0.15,0.72 0.15,0.03 0.3,0.03 0.18,0 0.33,0 0.63,0 1.08,-0.24 0.45,-0.21 0.87,-0.66 0.45,-0.45 0.96,-1.08 0.51,-0.66 1.29,-1.5 -0.33,0.09 -0.48,0.15 -0.15,0.03 -0.33,0.03 -0.48,0 -0.75,-0.42 -0.24,-0.42 -0.24,-0.96 0,-0.33 0.21,-0.72 0.24,-0.42 0.57,-0.75 0.36,-0.36 0.78,-0.6 0.42,-0.24 0.78,-0.24 0.33,0 0.48,0.45 0.15,0.45 0.15,0.84 0,0.84 -0.24,1.5 -0.24,0.66 -0.66,1.26 -0.39,0.6 -0.9,1.2 -0.48,0.6 -0.99,1.29 -0.6,0.84 -1.41,1.02 -0.81,0.21 -1.77,0.21 -0.6,0 -0.84,-0.15 -0.24,-0.12 -0.24,-0.42 0,-0.45 0.12,-0.96 0.15,-0.48 0.36,-0.99 0.21001,-0.48 0.42,-0.96 0.21,-0.51 0.39,-0.96 0.6,-1.62 1.2,-3.24 0.6,-1.65 1.20001,-3.27 0.47999,-1.29 0.92999,-2.43 0.45,-1.17 0.84,-2.34 0.39,-1.2 0.66,-2.52 0.3,-1.32 0.45,-2.97 0,-0.45 -0.12,-1.05 -0.09,-0.63 -0.33,-1.17 -0.24,-0.57 -0.63,-0.96 -0.36,-0.39 -0.9,-0.39 -0.81,0 -1.8,0.33 -0.99,0.3 -1.86,0.87 -0.84,0.57 -1.41,1.41 -0.57,0.84 -0.57,1.86 0,0.66 0.3,1.08 0.3,0.42 0.45,0.42 0.27,-0.03 0.51,-0.12 0.21,-0.06 0.36,-0.12 0.18,-0.09 0.18,-0.18 0,-0.18 -0.24,-0.45 -0.21,-0.27 -0.21,-0.54 0,-0.21 0.12,-0.6 0.15,-0.39 0.36,-0.75 0.21,-0.36 0.48,-0.63 0.27,-0.27 0.51,-0.27 0.06,0 0.15,0.03 0.09,0 0.15,0 0.12001,0 0.21,0 0.12,-0.03 0.21,-0.03 0.33,0 0.51,0.18 0.21,0.18 0.21,0.51 0,0.54 -0.24,1.2 -0.24,0.63 -0.69,1.2 -0.45,0.54 -1.14,0.93 -0.66,0.39 -1.5,0.39 -0.3,0 -0.54,-0.24 -0.24,-0.24 -0.42,-0.57 -0.18,-0.33 -0.27,-0.69 -0.09,-0.39 -0.09,-0.66 0,-1.11 0.39,-1.89 0.42,-0.81 1.11,-1.38 0.72,-0.6 1.68,-1.02 0.96,-0.42 2.04,-0.84 0.48,-0.18 0.96,-0.18 0.72,0 1.2,0.45 0.51,0.42 0.84,1.08 0.33,0.63 0.48,1.38 0.15,0.72 0.15,1.29 0,0.81 -0.12,1.71 -0.12,0.9 -0.21,1.89 0.27,-0.15 0.54,-0.51 0.3,-0.39 0.57,-0.84 0.3,-0.48 0.6,-0.96 0.3,-0.51 0.66,-0.87 0.48001,-0.51 1.11,-1.08 0.63,-0.57 1.35,-1.05 0.72,-0.51 1.47,-0.84 0.75,-0.33 1.47,-0.33 0.81,0 1.08001,0.9 0.29999,0.87 0.29999,2.34 1.86,-1.44 3.72,-2.19 1.89,-0.78 3.72,-0.78 0.87,0 1.29,0.42 0.45,0.42 0.45,1.47 0,1.29 -0.27,2.49 -0.27,1.17 -0.66,2.22 -0.36,1.02 -0.78,1.89 -0.39,0.87 -0.66,1.53 -0.42,0.96 -0.84,1.92 -0.42,0.96 -0.57,1.98 -0.15,0.99 -0.51,1.92 -0.33,0.93 -0.72,1.86 -0.36,0.9 -0.75,1.83 -0.39,0.93 -0.63,1.89 -0.03,0.06 -0.03,0.21 0,0.39 0.33,0.69 z" />
      <path
         id="path32"
         style="font-family:'Making a List Checking it Twice'"
         d="m 231.92547,83.83 h 0.15 q 0.39,0 0.87,-0.3 0.48,-0.3 0.93,-0.69 0.45,-0.39 0.81,-0.75 0.36,-0.36 0.51,-0.51 0.99,-0.93 2.01,-1.83 1.02,-0.93 2.22,-1.74 0.15,-0.12 0.36,-0.12 1.56,0 2.61,0.42 1.05,0.39 1.77,1.05 0.75,0.63 1.29,1.44 0.57,0.81 1.14,1.62 0.09,0.15 0.09,0.3 0,0.6 -0.15,1.32 -0.12,0.72 -0.36,1.41 -0.24,0.66 -0.57,1.26 -0.33,0.57 -0.72,0.93 -0.15,0.09 -0.21,0.33 -0.06,0.21 -0.12,0.48 -0.06,0.24 -0.18,0.45 -0.12,0.21 -0.36,0.24 -0.78,0.15 -1.41,0.48 -0.6,0.3 -1.41,0.36 -0.45,0.09 -0.96,0.24 -0.48,0.15 -0.99,0.33 -0.48,0.15 -0.96,0.27 -0.48,0.12 -0.87,0.12 -0.15,0 -0.3,0 -0.12,0 -0.27,-0.03 -0.48,1.35 -0.81,2.64 -0.3,1.29 -0.69,2.64 -0.09,0.33 -0.27,0.6 -0.18,0.27 -0.36,0.48 -0.18,0.18 -0.33,0.36 -0.12,0.15 -0.12,0.27 v 0.03 q -0.33,0.33 -0.63,0.66 -0.24,0.27 -0.48,0.57 -0.24,0.27 -0.36,0.45 -0.51,0.84 -1.44,0.84 -0.54,0 -1.17,-0.39 -0.63,-0.36 -1.14,-0.84 -0.51,-0.48 -0.87,-0.93 -0.33,-0.45 -0.33,-0.6 0,-0.24 0.33,-0.84 0.33,-0.63 0.81,-1.26 0.51,-0.66 1.08,-1.14 0.57,-0.51 1.05,-0.51 0.51,0 0.81,0.42 0.33,0.42 0.33,1.02 0,0.27 -0.15,0.63 -0.12,0.33 -0.33,0.63 -0.18,0.3 -0.45,0.51 -0.24,0.21 -0.48,0.21 -0.21,0 -0.42,-0.12 -0.18,-0.15 -0.39,-0.15 h -0.15 q -0.42,0 -0.42,-0.24 0,-0.06 0.03,-0.18 0.06,-0.12 0.06,-0.21 0,-0.18 -0.24,-0.33 -0.21,0.33 -0.54,0.78 -0.3,0.42 -0.3,0.72 0,0.27 0.45,0.66 0.45,0.39 1.02,0.75 0.57,0.36 1.02,0.63 0.48,0.24 0.54,0.24 0.54,0 0.93,-0.63 0.39,-0.63 0.66,-1.41 0.27,-0.81 0.42,-1.53 0.18,-0.75 0.27,-0.99 0.06,-0.24 0.36,-0.42 0.3,-0.21 0.42,-0.57 0.27,-0.96 0.45,-1.77 0.21,-0.84 0.3,-1.62 0.12,-0.78 0.18,-1.56 0.06,-0.81 0.06,-1.68 0,-0.15 -0.03,-0.27 0,-0.12 0,-0.24 0,-0.21 0.09,-0.39 0.12,-0.21 0.12,-0.36 0,-0.09 -0.03,-0.18 0,-0.12 0,-0.21 0,-0.87 0.27,-1.8 0.3,-0.93 0.63,-1.92 -0.18,-0.12 -0.18,-0.27 0,-0.24 0.18,-0.54 0.21,-0.3 0.36,-0.63 0,0 -0.12,-0.06 -0.15,0.09 -0.51,0.39 -0.36,0.3 -0.72,0.63 -0.36,0.3 -0.66,0.57 -0.27,0.24 -0.27,0.27 0,0.36 -0.42,0.69 -0.42,0.33 -0.9,0.6 -0.48,0.27 -0.87,0.45 -0.36,0.15 -0.27,0.15 -0.57,0.12 -1.14,0.21 -0.57,0.09 -1.14,0.09 -0.18,0 -0.45,0 -0.24,-0.03 -0.45,-0.06 -0.21,-0.06 -0.36,-0.15 -0.15,-0.12 -0.15,-0.3 0,-0.72 0.18,-1.23 0.21,-0.51 0.57,-0.93 0.36,-0.45 0.84,-0.81 0.51,-0.39 1.11,-0.84 0.6,0.24 1.11,0.63 0.54,0.39 0.54,1.11 0,0.33 -0.36,0.75 -0.36,0.39 -0.6,0.75 z m 5.04,6.24 q 0.3,0.27 0.78,0.27 0.54,0 1.44,-0.21 0.9,-0.21 1.77,-0.48 0.9,-0.27 1.59,-0.54 0.69,-0.27 0.87,-0.39 0.15,-0.09 0.21,-0.24 0.09,-0.18 0.09,-0.33 0,-0.15 -0.15,-0.24 -0.12,-0.09 -0.12,-0.24 0,-0.6 0.18,-1.29 0.18,-0.69 0.42,-1.29 0.24,-0.63 0.45,-1.08 0.21,-0.48 0.27,-0.63 0.15,-0.33 0.33,-0.84 0.18,-0.54 0.21,-0.72 0,-0.12 -0.21,-0.36 -0.18,-0.27 -0.45,-0.54 -0.24,-0.27 -0.51,-0.54 -0.27,-0.3 -0.45,-0.48 -0.6,-0.63 -1.38,-0.99 -0.75,-0.36 -1.62,-0.36 -0.27,0 -0.66,0.36 -0.36,0.33 -0.72,0.84 -0.36,0.48 -0.66,1.05 -0.27,0.54 -0.36,0.93 -0.27,1.44 -0.69,2.91 -0.39,1.47 -0.54,2.82 -0.06,0.6 -0.06,1.26 0,0.63 -0.03,1.35 z" />
      <path
         id="path34"
         style="font-family:'Making a List Checking it Twice'"
         d="m 272.49484,81.82 q -0.42,0.03 -0.78,0.09 -0.33,0.06 -0.66,0.06 -0.45,0 -0.93,-0.27 -0.45,-0.3 -0.45,-0.72 0,-0.6 0.24,-1.17 0.24,-0.57 0.66,-0.99 0.42,-0.45 1.02,-0.72 0.6,-0.27 1.29,-0.27 0.3,0 0.66,0.15 0.39,0.15 0.69,0.45 0.33,0.27 0.54,0.66 0.21,0.39 0.21,0.87 0,0.87 -0.48,1.68 -0.48,0.78 -1.11,1.41 -0.63,0.63 -1.29,1.05 -0.66,0.39 -1.02,0.51 -0.27,0.09 -0.75,0.21 -0.45,0.09 -0.9,0.24 -0.45,0.12 -0.78,0.3 -0.33,0.18 -0.33,0.45 0,0.96 -0.15,1.77 -0.15,0.78 -0.45,1.62 -0.27,0.84 -0.69,1.8 -0.39,0.93 -0.9,2.16 -0.36,0.36 -0.66,0.9 -0.3,0.51 -0.57,0.93 -0.36,0.57 -0.78,1.02 -0.42,0.45 -0.81,0.81 -0.36,0.33 -0.63,0.6 -0.27,0.27 -0.36,0.48 -0.03,0.09 -0.12,0.18 -0.06,0.06 -0.12,0.15 -0.21,-0.15 -0.33,-0.21 -0.09,-0.09 -0.21,-0.09 -0.09,0 -0.3,0.18 -0.21,0.18 -0.48,0.42 -0.24,0.21 -0.51,0.45 -0.27,0.21 -0.54,0.3 -1.26,0.27 -2.49,0.45 -1.2,0.18 -2.55,0.18 -0.57,0 -1.23,-0.18 -0.66,-0.18 -1.26,-0.36 -0.6,-0.21 -1.05,-0.39 -0.42,-0.18 -0.51,-0.18 -0.09,0 -0.18,0.06 -0.06,0.03 -0.12,0.03 -0.21,0 -0.36,-0.12 -0.15,-0.15 -0.3,-0.3 0.06,-0.27 0.12,-0.57 0.06,-0.3 0.06,-0.54 0,-0.15 -0.03,-0.27 -0.03,-0.15 -0.03,-0.3 0,-0.15 0,-0.3 0.03,-0.15 0.03,-0.3 0,-0.18 -0.06,-0.36 -0.06,-0.18 -0.06,-0.36 0,-0.48 0.27,-0.96 0.3,-0.51 0.51,-0.99 0.3,-0.72 0.48,-1.53 0.21,-0.81 0.72,-1.41 0.45,-0.51 0.72,-1.2 0.27,-0.72 0.48,-1.44 0.24,-0.72 0.48,-1.35 0.27,-0.66 0.72,-1.05 0.09,-0.09 0.27,-0.42 0.18,-0.33 0.36,-0.72 0.21,-0.42 0.39,-0.78 0.21,-0.39 0.36,-0.6 0.45,-0.57 1.05,-1.38 0.6,-0.81 1.23,-1.56 0.66,-0.75 1.32,-1.26 0.66,-0.51 1.29,-0.51 0.87,0 1.65,0.24 0.81,0.24 1.44,0.54 0.63,0.3 1.05,0.57 0.42,0.27 0.51,0.33 0.27,0.15 0.75,0.57 0.51,0.42 0.99,0.99 0.48,0.54 0.87,1.14 0.39,0.6 0.45,1.08 0.06,0.39 0.36,0.39 0.45,0 0.87,-0.18 0.42,-0.18 0.81,-0.42 0.42,-0.24 0.78,-0.48 0.39,-0.24 0.75,-0.36 0.33,-0.12 0.51,-0.3 0.21,-0.18 0.36,-0.6 z m -14.1,-0.06 q -0.99,1.59 -1.74,3 -0.75,1.38 -1.5,2.97 -0.36,0.75 -0.51,1.32 -0.12,0.57 -0.36,1.17 -0.21,0.45 -0.42,0.99 -0.18,0.54 -0.42,1.08 -0.21,0.51 -0.45,0.96 -0.24,0.45 -0.51,0.75 -0.33,0.36 -0.51,0.84 -0.18,0.45 -0.33,0.93 -0.12,0.45 -0.3,0.87 -0.15,0.39 -0.45,0.66 -0.12,0.12 -0.12,0.36 0,0.54 0.51,0.87 0.51,0.33 1.17,0.51 0.66,0.18 1.23,0.24 0.6,0.06 0.75,0.06 0.6,0 1.29,-0.03 0.72,-0.03 1.41,-0.12 0.72,-0.09 1.32,-0.24 0.6,-0.18 0.96,-0.45 0.48,-0.36 0.96,-0.69 0.48,-0.33 0.87,-0.72 0.42,-0.42 0.69,-0.87 0.27,-0.48 0.36,-1.11 0.03,-0.24 0.15,-0.39 0.12,-0.18 0.27,-0.33 0.18,-0.18 0.3,-0.36 0.12,-0.21 0.15,-0.48 0.03,-0.33 0.18,-0.54 0.18,-0.21 0.42,-0.36 -0.12,-0.12 -0.12,-0.27 0,-0.15 0.09,-0.33 0.12,-0.18 0.24,-0.33 0.12,-0.15 0.21,-0.27 0.12,-0.12 0.12,-0.18 v -0.12 q 0,-0.18 0.09,-0.36 0.12,-0.21 0.24,-0.39 0.15,-0.18 0.27,-0.39 0.12,-0.21 0.12,-0.45 0,-0.24 0.12,-0.57 0.12,-0.36 0.27,-0.66 0.15,-0.33 0.27,-0.54 0.12,-0.24 0.09,-0.24 0.27,-0.03 0.45,-0.24 0.18,-0.21 0.3,-0.48 0.12,-0.27 0.18,-0.57 0.06,-0.3 0.12,-0.51 -0.63,0.06 -1.26,0.15 -0.6,0.09 -1.2,0.09 -0.48,0 -0.93,-0.12 -0.45,-0.15 -0.84,-0.51 -0.15,0.06 -0.27,0.15 -0.09,0.06 -0.18,0.06 -0.45,0 -0.81,-0.27 -0.33,-0.27 -0.63,-0.6 -0.3,-0.36 -0.6,-0.66 -0.27,-0.33 -0.6,-0.39 -0.57,-0.12 -0.72,-0.66 -0.15,-0.54 -0.39,-1.23 z m 2.28,-2.94 q -0.39,0.21 -0.78,0.42 -0.36,0.18 -0.36,0.51 0,0.15 0.09,0.33 0.12,0.15 0.24,0.33 0.12,0.18 0.21,0.39 0.12,0.21 0.12,0.42 v 0.12 q 0,0.18 0.15,0.51 0.15,0.3 0.36,0.66 0.24,0.33 0.48,0.63 0.24,0.3 0.39,0.42 1.44,1.17 3.33,1.17 0.39,0 0.69,-0.21 0.06,0 0.06,0.03 0.03,0 0.09,0 0.24,0 0.42,-0.09 0.21,-0.09 0.45,-0.09 0.12,0 0.24,0.06 0.12,0.03 0.21,0.03 0.21,0 0.21,-0.3 0,-0.81 -0.66,-1.65 -0.63,-0.84 -1.47,-1.53 -0.81,-0.72 -1.59,-1.14 -0.75,-0.45 -0.99,-0.45 h -0.21 q -0.27,0 -0.78,-0.21 -0.48,-0.21 -0.9,-0.36 z" />
      <path
         id="path36"
         style="font-family:'Making a List Checking it Twice'"
         d="m 285.92266,79.24 q -0.45,-0.09 -0.93,-0.12 -0.45,-0.06 -0.81,-0.06 -0.99,0 -1.74,0.21 -0.75,0.18 -1.35,0.6 -0.6,0.39 -1.11,1.05 -0.51,0.63 -1.05,1.56 -0.12,0.21 -0.21,0.42 -0.06,0.18 -0.06,0.39 0,0.24 0.15,0.6 0.18,0.33 0.42,0.66 0.27,0.3 0.54,0.54 0.3,0.21 0.57,0.21 1.02,0 1.77,-0.6 0.78,-0.63 0.78,-1.68 0,-0.3 -0.03,-0.42 -0.3,0.48 -0.66,0.81 -0.33,0.33 -0.84,0.33 -0.27,0 -0.45,-0.27 -0.15,-0.3 -0.15,-0.75 0,-0.27 0.09,-0.57 0.12,-0.3 0.3,-0.54 0.21,-0.27 0.45,-0.42 0.27,-0.18 0.57,-0.18 0.27,0 0.48,0.24 0.24,0.21 0.39,0.54 0.18,0.3 0.27,0.66 0.09,0.36 0.09,0.6 0,0.57 -0.27,1.08 -0.27,0.51 -0.72,0.9 -0.45,0.36 -1.08,0.57 -0.6,0.21 -1.32,0.21 -0.33,0 -0.66,-0.3 -0.3,-0.33 -0.57,-0.75 -0.27,-0.42 -0.45,-0.81 -0.15,-0.42 -0.15,-0.6 0,-0.48 0.27,-1.05 0.27,-0.6 0.66,-1.17 0.42,-0.57 0.9,-1.05 0.48,-0.51 0.9,-0.81 0.39,-0.3 0.81,-0.39 0.45,-0.12 0.9,-0.18 0.06,0 0.09,0.03 0.06,0 0.12,0 0.3,0 0.57,-0.09 0.27,-0.09 0.57,-0.09 0.33,0 0.63,0.06 0.33,0.03 0.66,0.03 0.09,0 0.18,-0.03 0.09,-0.06 0.18,-0.06 0.48,0 0.75,0.42 0.3,0.39 0.42,0.96 0.15,0.57 0.18,1.17 0.03,0.6 0.03,0.96 0.57,-0.57 1.08,-1.05 0.51,-0.51 1.02,-0.9 0.54,-0.39 1.08,-0.6 0.57,-0.24 1.2,-0.24 0.3,0 0.6,0.06 0.33,0.03 0.66,0.03 0.36,0 0.69,0.27 0.33,0.27 0.81,0.27 0.09,0 0.18,0.27 0.09,0.27 0.15,0.63 0.06,0.36 0.09,0.72 0.03,0.33 0.03,0.45 -0.09,0.72 -0.18,1.47 -0.06,0.72 -0.27,1.41 -0.18,0.69 -0.54,1.32 -0.33,0.63 -0.96,1.14 -0.27,0.21 -0.69,0.48 -0.42,0.27 -0.84,0.54 -0.39,0.27 -0.69,0.51 -0.27,0.24 -0.27,0.36 0,0.48 0.33,1.2 0.36,0.72 0.48,1.38 0.15,0.96 0.33,1.92 0.21,0.96 0.48,1.86 0.06,0.18 0.18,0.33 0.15,0.12 0.21,0.27 0.33,0.72 0.63,1.5 0.3,0.75 0.81,1.26 0.21,0.3 0.54,0.63 0.36,0.33 0.75,0.6 0.39,0.3 0.75,0.48 0.36,0.18 0.63,0.18 0.39,0 0.81,-0.45 0.42,-0.45 0.75,-1.05 0.36,-0.6 0.57,-1.2 0.24,-0.63 0.24,-0.99 0,-0.51 -0.3,-0.99 -0.15,0.33 -0.3,0.75 -0.15,0.39 -0.36,0.75 -0.18,0.36 -0.48,0.6 -0.3,0.24 -0.69,0.24 -0.42,0 -0.81,-0.21 -0.39,-0.24 -0.39,-0.69 0,-0.39 0.21,-0.81 0.24,-0.45 0.57,-0.78 0.33,-0.36 0.69,-0.57 0.39,-0.24 0.69,-0.24 0.45,0 0.75,0.18 0.33,0.18 0.54,0.48 0.21,0.27 0.3,0.63 0.09,0.33 0.09,0.66 0,0.6 -0.3,1.35 -0.27,0.72 -0.72,1.35 -0.45,0.63 -0.99,1.05 -0.51,0.45 -0.96,0.45 -0.72,0 -1.35,-0.39 -0.6,-0.36 -1.08,-0.84 -0.54,-0.54 -1.02,-1.26 -0.21,-0.45 -0.48,-0.96 -0.24,-0.51 -0.48,-1.02 -0.24,-0.51 -0.42,-0.99 -0.18,-0.48 -0.27,-0.87 -0.24,-1.23 -0.45,-2.55 -0.18,-1.32 -0.75,-2.4 -0.09,0 -0.84,-0.15 -0.75,-0.18 -1.62,-0.36 -0.84,-0.21 -1.59,-0.39 -0.72,-0.18 -0.81,-0.21 -0.06,0.21 -0.21,0.75 -0.12,0.54 -0.3,1.26 -0.18,0.69 -0.39,1.44 -0.18,0.75 -0.39,1.38 -0.18,0.63 -0.36,1.05 -0.18,0.39 -0.3,0.39 -0.36,0.15 -0.66,0.54 -0.3,0.36 -0.57,0.84 -0.27,0.45 -0.54,0.93 -0.24,0.45 -0.45,0.75 -0.18,0.24 -0.42,0.51 -0.24,0.24 -0.51,0.48 -0.24,0.21 -0.48,0.36 -0.21,0.15 -0.36,0.15 -0.66,0 -1.17,-0.42 -0.48,-0.42 -0.81,-1.02 -0.33,-0.6 -0.51,-1.23 -0.15,-0.63 -0.15,-1.08 0,-0.45 0.12,-1.02 0.12,-0.6 0.39,-1.11 0.27,-0.51 0.69,-0.84 0.45,-0.36 1.05,-0.36 0.75,0 1.23,0.54 0.51,0.54 0.51,1.5 0,0.3 -0.09,0.66 -0.06,0.33 -0.24,0.66 -0.15,0.3 -0.45,0.51 -0.27,0.21 -0.66,0.21 -0.51,0 -0.69,-0.42 -0.18,-0.42 -0.18,-0.81 0,-0.63 0.24,-0.9 0.27,-0.3 0.51,-0.3 0.18,0 0.39,0.06 0.24,0.06 0.57,0.18 0.06,-0.24 0.06,-0.36 0,-0.33 -0.27,-0.69 -0.24,-0.39 -0.84,-0.39 -0.63,0 -1.02,0.45 -0.36,0.45 -0.54,1.02 -0.18,0.54 -0.24,1.05 -0.06,0.51 -0.06,0.63 0,0.33 0.15,0.84 0.15,0.48 0.42,0.96 0.3,0.45 0.66,0.78 0.39,0.33 0.84,0.33 0.39,0 0.75,-0.36 0.36,-0.36 0.69,-0.81 0.33,-0.48 0.6,-0.93 0.27,-0.48 0.45,-0.72 0.69,-0.87 1.17,-2.04 0.48,-1.2 0.81,-2.37 0.33,-1.17 0.57,-2.19 0.24,-1.02 0.48,-1.59 0.36,-0.96 0.66,-1.92 0.33,-0.99 0.63,-1.95 0.03,-0.15 0.06,-0.42 0.06,-0.3 0.09,-0.63 0.03,-0.36 0.03,-0.69 0.03,-0.36 0.03,-0.63 0,-0.69 -0.06,-1.32 -0.03,-0.66 -0.03,-1.38 z m -0.06,7.32 q 0.33,-0.18 0.54,-0.27 0.21,-0.09 0.39,-0.09 0.18,0 0.45,0.21 0.27,0.18 0.63,0.18 0.36,0 0.6,0.3 0.24,0.27 0.45,0.63 0.21,0.36 0.39,0.66 0.21,0.27 0.48,0.27 0.12,0 0.24,-0.12 0.15,-0.15 0.3,-0.3 0.15,-0.18 0.3,-0.3 0.15,-0.15 0.3,-0.15 0.06,0 0.12,0.06 0.09,0.06 0.15,0.06 0.39,0 0.72,-0.39 0.36,-0.42 0.6,-1.02 0.27,-0.63 0.42,-1.32 0.15,-0.69 0.15,-1.26 0,-0.24 -0.03,-0.48 -0.03,-0.27 -0.03,-0.51 0,-0.24 0.06,-0.42 0.09,-0.21 0.09,-0.42 0,-0.36 0,-0.72 0,-0.39 -0.15,-0.66 -0.15,-0.3 -0.51,-0.48 -0.33,-0.18 -1.05,-0.18 -0.54,0 -1.14,0.27 -0.57,0.24 -1.14,0.66 -0.57,0.39 -1.05,0.93 -0.48,0.51 -0.78,1.05 -0.42,0.54 -0.63,0.99 -0.18,0.45 -0.3,0.9 -0.09,0.42 -0.21,0.9 -0.09,0.45 -0.36,1.02 z m 3.27,2.25 q -0.42,-0.87 -1.14,-1.47 -0.69,-0.6 -1.29,-0.6 -0.24,0 -0.42,0.24 -0.15,0.21 -0.15,0.57 0,0.36 0.24,0.66 0.27,0.3 0.6,0.51 0.33,0.21 0.66,0.33 0.36,0.09 0.51,0.09 0.48,0 0.99,-0.33 z" />
      <path
         id="path38"
         style="font-family:'Making a List Checking it Twice'"
         d="m 314.08047,87.13 q -0.33,-0.51 -0.87,-0.87 -0.54,-0.39 -1.11,-0.63 -0.54,-0.24 -1.02,-0.36 -0.48,-0.12 -0.69,-0.12 -0.42,0 -0.84,0.24 -0.42,0.21 -0.78,0.57 -0.36,0.33 -0.6,0.78 -0.21,0.42 -0.21,0.81 0,0.51 0.21,0.9 0.24,0.36 0.75,0.36 0.27,0 0.6,-0.03 0.36,-0.06 0.66,-0.15 0.33,-0.09 0.6,-0.24 0.27,-0.15 0.39,-0.33 -0.12,-0.12 -0.15,-0.12 -0.09,0 -0.18,0.03 -0.06,0 -0.12,0 -0.54,0 -1.08,-0.21 -0.51,-0.21 -0.51,-0.57 0,-0.51 0.48,-0.81 0.48,-0.3 0.84,-0.3 0.69,0 1.26,0.27 0.57,0.27 0.57,1.02 0,0.78 -0.48,1.23 -0.45,0.42 -1.08,0.63 -0.6,0.18 -1.17,0.21 -0.57,0.03 -0.78,0.03 -0.75,0 -1.08,-0.39 -0.33,-0.39 -0.33,-0.9 0,-0.15 0.03,-0.33 0.03,-0.21 0.03,-0.36 0,-0.15 -0.03,-0.27 -0.03,-0.15 -0.03,-0.27 0,-0.45 0.36,-0.9 0.36,-0.45 0.84,-0.81 0.51,-0.36 1.02,-0.57 0.51,-0.24 0.81,-0.24 0.45,0 1.05,0.18 0.6,0.18 1.17,0.45 0.57,0.24 0.96,0.51 0.42,0.27 0.45,0.45 0.12,0.3 0.45,0.36 1.26,-1.71 2.4,-3.21 1.14,-1.53 2.22,-3.24 0.21,-0.33 0.39,-0.54 0.21,-0.21 0.48,-0.45 0.24,0.15 0.24,0.39 0,0.24 -0.15,0.6 -0.15,0.36 -0.39,0.75 -0.21,0.39 -0.45,0.81 -0.24,0.39 -0.39,0.69 -0.63,1.26 -1.29,2.61 -0.63,1.32 -1.17,2.52 0.45,0.87 0.84,1.65 0.42,0.75 0.69,1.5 0.3,0.75 0.45,1.5 0.18,0.75 0.18,1.59 0,0.99 -0.39,1.92 -0.39,0.93 -0.9,1.68 -0.48,0.75 -0.93,1.26 -0.42,0.48 -0.51,0.63 -0.39,0.57 -1.08,0.81 -0.66,0.24 -1.29,0.24 -0.6,0 -1.08,-0.3 -0.45,-0.33 -0.57,-0.84 0,-0.15 -0.15,-0.39 -0.12,-0.24 -0.12,-0.48 0,-0.48 0.12,-0.93 0.12,-0.48 0.3,-0.93 0.18,-0.45 0.36,-0.9 0.18,-0.45 0.33,-0.96 0.42,-1.71 1.26,-3.24 0.84,-1.56 1.56,-3.15 -0.24,-0.12 -0.45,-0.21 -0.18,-0.12 -0.42,-0.27 -1.38,2.04 -3.48,4.65 -2.1,2.61 -5.07,5.73 -0.27,0.27 -0.6,0.63 -0.3,0.33 -0.66,0.63 -0.33,0.3 -0.72,0.51 -0.36,0.18 -0.75,0.18 h -0.12 q -0.15,0 -0.33,0.09 -0.15,0.09 -0.3,0.09 -0.48,0 -0.9,-0.21 -0.39,-0.24 -0.69,-0.6 -0.3,-0.36 -0.48,-0.81 -0.18,-0.45 -0.24,-0.9 0,-1.32 0.48,-2.52 0.48,-1.2 1.17,-2.1 0.72,-0.9 1.47,-1.44 0.78,-0.54 1.35,-0.54 0.36,0 0.66,0.18 0.33,0.15 0.54,0.39 0.24,0.21 0.36,0.48 0.12,0.27 0.12,0.48 0,0.6 -0.36,1.14 -0.36,0.51 -0.87,0.93 -0.48,0.39 -1.02,0.63 -0.54,0.21 -0.9,0.21 -0.33,0 -0.39,-0.3 -0.06,-0.33 -0.06,-0.51 0,-0.18 0.12,-0.45 0.15,-0.3 0.33,-0.57 0.18,-0.3 0.36,-0.51 0.21,-0.21 0.33,-0.21 0.24,0 0.51,0.21 0.27,0.18 0.57,0.42 0.15,-0.27 0.33,-0.54 0.18,-0.27 0.18,-0.51 0,-0.57 -0.69,-0.57 -0.03,0 -0.06,0.03 0,0 -0.03,0 -0.12,0 -0.24,-0.06 -0.09,-0.06 -0.21,-0.06 -0.66,0 -1.17,0.42 -0.51,0.39 -0.93,1.02 -0.39,0.6 -0.69,1.32 -0.27,0.69 -0.45,1.32 -0.18,0.63 -0.27,1.05 -0.09,0.42 -0.09,0.45 0,0.27 0.12,0.66 0.12,0.36 0.33,0.69 0.24,0.33 0.51,0.57 0.27,0.24 0.6,0.24 0.09,0 0.27,-0.12 0.18,-0.15 0.36,-0.3 0.18,-0.18 0.3,-0.3 0.15,-0.15 0.15,-0.12 0.03,-0.18 0.33,-0.51 0.33,-0.33 0.66,-0.63 0.36,-0.33 0.63,-0.54 0.27,-0.24 0.24,-0.21 0.33,-0.18 0.78,-0.57 0.45,-0.42 0.87,-0.84 0.42,-0.42 0.72,-0.78 0.33,-0.39 0.36,-0.51 0,-0.03 0.21,-0.27 0.24,-0.27 0.54,-0.57 0.3,-0.3 0.6,-0.54 0.3,-0.27 0.42,-0.27 0.27,-0.06 0.75,-0.6 0.51,-0.57 1.05,-1.26 0.54,-0.69 0.99,-1.29 0.48,-0.6 0.66,-0.75 0.3,-0.24 0.51,-0.6 0.21,-0.36 0.45,-0.72 z m -1.65,11.79 q 0.6,-0.09 0.96,-0.18 0.39,-0.09 0.75,-0.54 0.24,-0.33 0.63,-0.48 0.42,-0.15 0.6,-0.39 0.3,-0.45 0.63,-0.9 0.33,-0.48 0.66,-0.96 -0.24,-0.15 -0.24,-0.39 0,-0.21 0.12,-0.51 0.12,-0.3 0.24,-0.63 0.15,-0.33 0.27,-0.63 0.12,-0.33 0.12,-0.57 -0.03,-0.15 -0.03,-0.42 0,-0.33 0.03,-0.63 0.03,-0.33 0.03,-0.66 0,-0.72 -0.42,-1.44 -0.42,-0.75 -0.78,-1.2 -0.72,1.08 -1.17,1.98 -0.42,0.9 -0.75,1.77 -0.3,0.87 -0.6,1.74 -0.3,0.87 -0.81,1.89 -0.24,0.45 -0.45,0.93 -0.18,0.45 -0.18,1.02 0,0.33 0.09,0.63 0.12,0.27 0.3,0.57 z m 4.68,-14.64 -0.09,-0.09 q -0.6,0.54 -1.08,1.2 -0.45,0.63 -0.93,1.32 0.21,0.15 0.33,0.27 0.15,0.09 0.3,0.21 0.42,-0.78 0.75,-1.5 0.36,-0.72 0.72,-1.41 z" />
      <path
         id="path40"
         style="font-family:'Making a List Checking it Twice'"
         d="m 323.20703,80.86 h 0.12 q 0.36,0 0.69,-0.09 0.36,-0.12 0.69,-0.12 0.33,0 0.51,0.18 0.21,0.15 0.21,0.48 0,0.45 -0.33,0.9 -0.3,0.42 -0.75,0.78 -0.45,0.33 -0.96,0.54 -0.48,0.21 -0.84,0.21 -0.21,0 -0.39,-0.15 -0.15,-0.18 -0.27,-0.42 -0.09,-0.24 -0.15,-0.48 -0.06,-0.27 -0.06,-0.45 0,-0.36 0.21,-0.84 0.21,-0.48 0.57,-0.96 0.36,-0.48 0.84,-0.87 0.48,-0.42 1.02,-0.6 0.6,-0.15 1.26,-0.36 0.69,-0.24 1.29,-0.24 0.48,0 0.96,0.21 0.51,0.18 0.9,0.57 0.39,0.36 0.63,0.96 0.27,0.57 0.27,1.35 0,0.33 -0.09,0.54 -0.09,0.18 -0.15,0.69 0.6,-0.48 1.29,-1.05 0.72,-0.57 1.5,-1.05 0.81,-0.48 1.65,-0.81 0.87,-0.33 1.77,-0.39 0.36,-0.03 0.69,-0.15 0.36,-0.15 0.75,-0.15 0.48,0 0.87,0.27 0.39,0.24 0.66,0.66 0.27,0.39 0.42,0.96 0.15,0.54 0.15,1.11 0,0.87 -0.27,1.59 -0.24,0.72 -0.54,1.35 -0.27,0.6 -0.54,1.14 -0.24,0.51 -0.24,0.96 0,0.21 -0.12,0.39 -0.09,0.15 -0.09,0.36 0,0.12 0.03,0.24 0.03,0.12 0.03,0.24 0,0.27 -0.15,0.54 -0.15,0.24 -0.36,0.45 -0.18,0.21 -0.33,0.39 -0.15,0.18 -0.15,0.3 0,0.03 0,0.06 0.03,0 0.03,0.03 0,0.12 -0.09,0.15 -0.33,0.18 -0.54,0.57 -0.21,0.36 -0.42,0.81 -0.18,0.42 -0.36,0.9 -0.18,0.45 -0.39,0.81 -0.45,0.75 -0.66,1.47 -0.21,0.72 -0.48,1.65 0,0.03 -0.03,0.06 0,0 0,0.03 0,0.21 0.27,0.39 0.3,0.18 0.69,0.36 0.42,0.15 0.9,0.3 0.48,0.12 0.84,0.21 0.36,0.06 0.54,0.09 0.18,0.03 0.03,-0.03 0.12,0.06 0.39,0.06 0.39,0 0.81,-0.12 0.42,-0.15 0.78,-0.33 0.39,-0.18 0.66,-0.33 0.27,-0.15 0.36,-0.18 0.54,-0.15 1.08,-0.51 0.57,-0.39 0.99,-0.9 0.45,-0.51 0.72,-1.11 0.3,-0.6 0.33,-1.2 l -0.03,-0.03 q -0.03,0 -0.06,-0.03 -0.24,0.45 -0.57,0.9 -0.33,0.42 -0.72,0.78 -0.39,0.33 -0.81,0.54 -0.42,0.21 -0.87,0.21 -0.42,0 -0.69,-0.3 -0.24,-0.33 -0.24,-0.75 0,-0.54 0.3,-1.17 0.33,-0.63 0.78,-1.14 0.48,-0.51 0.99,-0.84 0.54,-0.36 0.96,-0.36 0.39,0 0.72,0.24 0.33,0.24 0.54,0.6 0.24,0.36 0.36,0.78 0.12,0.42 0.12,0.78 0,0.24 -0.09,0.6 -0.09,0.36 -0.24,0.72 -0.12,0.36 -0.27,0.63 -0.15,0.27 -0.27,0.36 -0.66,0.48 -1.2,1.11 -0.54,0.6 -1.11,1.14 -0.57,0.54 -1.26,0.93 -0.69,0.39 -1.65,0.39 -0.93,0 -1.8,-0.18 -0.87,-0.18 -1.56,-0.51 -0.66,-0.33 -1.08,-0.81 -0.42,-0.51 -0.42,-1.11 0,-0.48 0.21,-1.2 0.21,-0.75 0.48,-1.5 0.3,-0.75 0.57,-1.38 0.3,-0.66 0.48,-1.02 0.87,-1.8 1.56,-3.51 0.72,-1.74 1.44,-3.54 0.06,-0.18 0.06,-0.3 0,-0.12 -0.12,-0.21 -0.12,-0.09 -0.12,-0.21 0,-0.42 0.24,-0.87 0.24,-0.45 0.24,-0.96 0,-0.6 -0.42,-1.08 -0.39,-0.48 -1.17,-0.48 -0.9,0 -1.92,0.36 -0.99,0.36 -1.95,0.9 -0.93,0.54 -1.71,1.17 -0.75,0.63 -1.14,1.14 -0.36,0.45 -0.6,1.02 -0.24,0.54 -0.42,1.11 -0.18,0.57 -0.33,1.17 -0.12,0.57 -0.27,1.05 -0.51,1.65 -1.2,3.36 -0.69,1.71 -1.05,3.12 -0.36,0.93 -0.69,2.04 -0.3,1.08 -0.87,1.95 -0.15,0.15 -0.18,0.27 0,0.12 0,0.21 0,0.09 -0.06,0.18 -0.06,0.09 -0.27,0.15 -0.09,0.03 -0.18,0.12 -0.06,0.09 -0.12,0.15 -0.21,-0.12 -0.21,-0.27 0,-0.36 0.24,-0.9 0.24,-0.54 0.54,-1.14 0.33,-0.63 0.6,-1.26 0.27,-0.66 0.36,-1.2 0.06,-0.42 0.21,-0.78 0.18,-0.39 0.36,-0.78 0.75,-2.16 1.44,-4.26 0.69,-2.1 1.2,-4.41 0,-0.18 0.06,-0.21 0.24,-0.24 0.36,-0.6 0.15,-0.39 0.24,-0.78 0.09,-0.42 0.12,-0.78 0.06,-0.39 0.12,-0.57 0.09,-0.45 0.09,-0.84 0,-0.36 -0.12,-0.75 -0.12,-0.39 -0.36,-0.72 -0.24,-0.36 -0.6,-0.57 -0.33,-0.21 -0.78,-0.21 -1.11,0 -2.13,0.51 -1.02,0.51 -1.71,1.41 z" />
      <path
         id="path42"
         style="font-family:'Making a List Checking it Twice'"
         d="m 351.08594,98.29 q 0.18,0.03 0.33,0.06 0.18,0 0.36,0 0.81,0 1.59,-0.12 0.81,-0.12 1.59,-0.15 0.72,-0.03 1.47,0.21 0.78,0.21 1.56,0.21 0.93,0 1.8,0.09 0.87,0.06 1.8,0.06 0.09,0 0.18,0 0.09,-0.03 0.18,-0.03 0.45,0 0.93,0.09 0.48,0.09 1.02,0.09 0.75,-0.42 1.41,-0.54 0.66,-0.12 1.17,-0.33 0.54,-0.21 0.93,-0.75 0.42,-0.54 0.69,-1.8 0.03,-0.12 0.03,-0.33 0,-0.33 -0.48,-0.66 -0.15,0.78 -0.51,1.35 -0.33,0.54 -0.96,0.54 -0.42,0 -0.69,-0.24 -0.24,-0.24 -0.24,-0.84 0,-0.18 0.15,-0.48 0.15,-0.3 0.42,-0.57 0.27,-0.27 0.63,-0.48 0.39,-0.21 0.81,-0.21 0.3,0 0.54,0.21 0.27,0.18 0.48,0.48 0.21,0.27 0.33,0.6 0.12,0.33 0.12,0.6 0,1.11 -0.48,1.92 -0.45,0.78 -1.2,1.32 -0.75,0.51 -1.71,0.75 -0.96,0.24 -1.92,0.24 -1.23,0 -2.46,-0.15 -1.23,-0.18 -2.43,-0.18 -0.24,0 -0.51,0.03 -0.27,0 -0.51,0 -0.6,0 -1.17,-0.21 -0.57,-0.21 -1.08,-0.21 -0.81,0 -1.62,0.12 -0.78,0.09 -1.59,0.09 -0.48,0 -1.02,-0.12 -0.51,-0.15 -0.84,-0.24 -0.33,0.45 -0.66,0.96 -0.33,0.48 -0.69,0.9 -0.36,0.45 -0.75,0.72 -0.36,0.27 -0.81,0.27 -0.72,0 -1.35,-0.57 -0.63,-0.54 -0.63,-1.38 0,-0.39 0.18,-0.75 0.21,-0.36 0.51,-0.63 0.3,-0.3 0.66,-0.48 0.36,-0.18 0.69,-0.18 0.54,0 1.14,0.15 0.63,0.12 1.26,0.24 0.42,-0.75 0.75,-1.56 0.33,-0.81 0.6,-1.65 0.3,-0.84 0.6,-1.68 0.33,-0.87 0.72,-1.68 0.21,-0.48 0.36,-0.99 0.18,-0.51 0.33,-1.02 0.15,-0.54 0.33,-1.05 0.21,-0.51 0.51,-1.02 0.12,-0.12 0.21,-0.54 0.12,-0.42 0.21,-0.93 0.09,-0.51 0.15,-0.99 0.09,-0.51 0.15,-0.81 0.21,-0.87 0.48,-1.71 0.27,-0.87 0.39,-1.83 -0.15,-0.03 -0.27,-0.06 -0.09,-0.03 -0.24,-0.03 -0.87,0 -1.77,0.12 -0.87,0.09 -1.74,0.09 -0.6,0 -1.26,-0.15 -0.66,-0.18 -1.2,-0.54 -0.54,-0.36 -0.9,-0.87 -0.36,-0.54 -0.36,-1.26 0,-1.08 0.45,-1.8 0.48,-0.72 1.02,-1.17 0.54,-0.45 0.99,-0.63 0.45,-0.18 0.42,-0.15 0.18,-0.12 0.3,-0.12 0.15,0 0.3,0.15 0.18,0.12 0.33,0.12 0.09,0 0.18,-0.03 0.12,-0.03 0.21,-0.03 0.27,0 0.57,0.24 0.3,0.24 0.3,0.6 0,0.36 -0.33,0.66 -0.3,0.27 -0.75,0.48 -0.42,0.18 -0.87,0.3 -0.42,0.09 -0.66,0.09 -0.24,0 -0.36,-0.15 -0.12,-0.18 -0.36,-0.69 -0.27,0.24 -0.51,0.63 -0.21,0.36 -0.39,0.75 -0.18,0.36 -0.27,0.69 -0.09,0.3 -0.09,0.42 0,0.27 0.27,0.6 0.27,0.3 0.69,0.57 0.42,0.24 0.93,0.42 0.54,0.15 1.05,0.15 1.2,0 2.34,-0.15 1.14,-0.15 2.37,-0.15 0.06,0 0.15,0.03 0.12,0 0.18,0 0.18,0 0.33,-0.09 0.18,-0.12 0.33,-0.12 0.3,0 0.57,0.06 0.3,0.03 0.6,0.03 0.33,0 0.6,-0.03 0.3,-0.06 0.63,-0.06 0.36,0 0.72,0.03 0.36,0 0.72,0 1.32,0 2.64,-0.24 1.35,-0.27 2.88,-0.27 0.51,0 1.14,0.12 0.63,0.12 1.17,0.39 0.54,0.27 0.9,0.72 0.39,0.42 0.39,1.05 0,0.54 -0.3,1.02 -0.27,0.48 -0.66,0.84 -0.39,0.36 -0.78,0.63 -0.39,0.24 -0.6,0.33 -0.33,0.18 -0.63,0.18 -0.57,0 -1.05,-0.36 -0.48,-0.36 -0.48,-0.96 0.03,-0.21 0.15,-0.54 0.15,-0.33 0.39,-0.63 0.24,-0.33 0.6,-0.54 0.39,-0.24 0.9,-0.24 0.42,0 0.66,0.39 0.24,0.39 0.24,0.72 0,0.3 -0.09,0.45 -0.06,0.15 -0.09,0.24 0.33,0 0.54,-0.21 0.24,-0.24 0.36,-0.51 0.15,-0.27 0.18,-0.51 0.06,-0.27 0.06,-0.33 0,-0.51 -0.42,-0.78 -0.39,-0.3 -0.93,-0.45 -0.51,-0.15 -1.02,-0.18 -0.51,-0.06 -0.72,-0.06 -1.2,0 -2.43,0.3 -1.2,0.27 -2.49,0.27 -0.66,0 -1.32,-0.03 -0.66,-0.06 -1.35,-0.06 -0.24,0 -0.51,0.06 -0.27,0.03 -0.51,0.21 0.27,0.15 0.33,0.27 0.09,0.09 0.09,0.24 0,0.39 -0.21,0.81 -0.21,0.42 -0.45,0.84 -0.24,0.39 -0.45,0.78 -0.21,0.36 -0.21,0.66 0,0.12 0.06,0.24 0.09,0.09 0.09,0.24 0,0.09 -0.06,0.27 -0.48,1.05 -0.99,2.07 -0.51,0.99 -0.87,2.07 0.15,-0.03 0.24,-0.03 0.12,-0.03 0.21,-0.06 0.36,0 0.72,0.06 0.39,0.03 0.72,0.03 0.3,0 0.6,-0.06 0.3,-0.06 0.6,-0.06 0.33,0 0.6,0.06 0.3,0.06 0.63,0.06 0.48,0 0.99,-0.09 0.51,-0.09 1.02,-0.09 0.45,0 0.9,0.03 0.48,0 0.93,0 0.33,0 0.69,0.12 0.36,0.12 0.63,0.12 0.18,0 0.36,-0.06 0.18,-0.09 0.33,-0.09 0.12,0 0.21,0.09 0.09,0.09 0.18,0.09 0.09,0 0.21,-0.06 0.12,-0.09 0.21,-0.09 0.21,0 0.39,0.06 0.21,0.03 0.42,0.03 0.24,0 0.45,-0.06 0.24,-0.09 0.48,-0.09 0.33,0.03 0.66,0.06 0.36,0 0.69,0 0.12,0 0.21,-0.06 0.09,-0.06 0.24,-0.12 0.03,0.12 0.03,0.24 0,0.09 0.03,0.18 0.66,0 1.08,-0.42 0.42,-0.42 0.42,-0.99 0,-0.33 -0.12,-0.57 -0.36,0.33 -0.78,0.69 -0.39,0.33 -0.81,0.33 -0.48,0 -0.75,-0.3 -0.24,-0.33 -0.24,-0.75 0,-0.24 0.15,-0.54 0.15,-0.3 0.39,-0.54 0.24,-0.27 0.54,-0.45 0.33,-0.18 0.66,-0.18 0.33,0 0.6,0.24 0.27,0.24 0.45,0.6 0.18,0.36 0.27,0.75 0.12,0.39 0.12,0.69 0,0.36 -0.15,0.75 -0.15,0.39 -0.42,0.69 -0.24,0.3 -0.57,0.51 -0.3,0.18 -0.66,0.18 -0.33,0 -0.69,-0.12 -0.33,-0.15 -0.66,-0.15 -0.84,0 -1.68,0.03 -0.81,0.03 -1.65,0.03 -0.81,0 -1.59,-0.12 -0.75,-0.12 -1.56,-0.12 -0.45,0 -0.9,0.06 -0.45,0.06 -0.9,0.06 -0.33,0 -0.66,-0.03 -0.3,-0.06 -0.63,-0.06 -0.6,0 -1.26,0.06 -0.63,0.06 -1.23,0.06 -0.27,0 -0.51,-0.03 -0.24,-0.06 -0.42,-0.06 -0.45,0 -1.05,0.9 -0.6,0.87 -1.08,2.76 -0.06,0.42 -0.3,0.75 -0.21,0.33 -0.27,0.66 -0.06,0.51 -0.3,0.99 -0.21,0.45 -0.48,0.93 -0.24,0.48 -0.48,0.93 -0.21,0.45 -0.27,0.9 z m -4.23,1.89 q 0.21,0.15 0.36,0.15 0.18,0 0.48,-0.15 0.3,-0.15 0.6,-0.39 0.33,-0.27 0.57,-0.57 0.27,-0.33 0.33,-0.69 -0.27,-0.06 -0.54,-0.09 -0.27,-0.03 -0.54,-0.03 -0.12,0 -0.33,0.06 -0.18,0.06 -0.39,0.18 -0.18,0.09 -0.33,0.21 -0.12,0.09 -0.12,0.18 0,0.06 0.03,0.15 0.03,0.09 0.03,0.15 0,0.24 -0.09,0.45 -0.06,0.18 -0.06,0.39 z" />
      <path
         id="path44"
         style="font-family:'Making a List Checking it Twice'"
         d="m 386.32656,87.13 q -0.33,-0.51 -0.87,-0.87 -0.54,-0.39 -1.11,-0.63 -0.54,-0.24 -1.02,-0.36 -0.48,-0.12 -0.69,-0.12 -0.42,0 -0.84,0.24 -0.42,0.21 -0.78,0.57 -0.36,0.33 -0.6,0.78 -0.21,0.42 -0.21,0.81 0,0.51 0.21,0.9 0.24,0.36 0.75,0.36 0.27,0 0.6,-0.03 0.36,-0.06 0.66,-0.15 0.33,-0.09 0.6,-0.24 0.27,-0.15 0.39,-0.33 -0.12,-0.12 -0.15,-0.12 -0.09,0 -0.18,0.03 -0.06,0 -0.12,0 -0.54,0 -1.08,-0.21 -0.51,-0.21 -0.51,-0.57 0,-0.51 0.48,-0.81 0.48,-0.3 0.84,-0.3 0.69,0 1.26,0.27 0.57,0.27 0.57,1.02 0,0.78 -0.48,1.23 -0.45,0.42 -1.08,0.63 -0.6,0.18 -1.17,0.21 -0.57,0.03 -0.78,0.03 -0.75,0 -1.08,-0.39 -0.33,-0.39 -0.33,-0.9 0,-0.15 0.03,-0.33 0.03,-0.21 0.03,-0.36 0,-0.15 -0.03,-0.27 -0.03,-0.15 -0.03,-0.27 0,-0.45 0.36,-0.9 0.36,-0.45 0.84,-0.81 0.51,-0.36 1.02,-0.57 0.51,-0.24 0.81,-0.24 0.45,0 1.05,0.18 0.6,0.18 1.17,0.45 0.57,0.24 0.96,0.51 0.42,0.27 0.45,0.45 0.12,0.3 0.45,0.36 1.26,-1.71 2.4,-3.21 1.14,-1.53 2.22,-3.24 0.21,-0.33 0.39,-0.54 0.21,-0.21 0.48,-0.45 0.24,0.15 0.24,0.39 0,0.24 -0.15,0.6 -0.15,0.36 -0.39,0.75 -0.21,0.39 -0.45,0.81 -0.24,0.39 -0.39,0.69 -0.63,1.26 -1.29,2.61 -0.63,1.32 -1.17,2.52 0.45,0.87 0.84,1.65 0.42,0.75 0.69,1.5 0.3,0.75 0.45,1.5 0.18,0.75 0.18,1.59 0,0.99 -0.39,1.92 -0.39,0.93 -0.9,1.68 -0.48,0.75 -0.93,1.26 -0.42,0.48 -0.51,0.63 -0.39,0.57 -1.08,0.81 -0.66,0.24 -1.29,0.24 -0.6,0 -1.08,-0.3 -0.45,-0.33 -0.57,-0.84 0,-0.15 -0.15,-0.39 -0.12,-0.24 -0.12,-0.48 0,-0.48 0.12,-0.93 0.12,-0.48 0.3,-0.93 0.18,-0.45 0.36,-0.9 0.18,-0.45 0.33,-0.96 0.42,-1.71 1.26,-3.24 0.84,-1.56 1.56,-3.15 -0.24,-0.12 -0.45,-0.21 -0.18,-0.12 -0.42,-0.27 -1.38,2.04 -3.48,4.65 -2.1,2.61 -5.07,5.73 -0.27,0.27 -0.6,0.63 -0.3,0.33 -0.66,0.63 -0.33,0.3 -0.72,0.51 -0.36,0.18 -0.75,0.18 h -0.12 q -0.15,0 -0.33,0.09 -0.15,0.09 -0.3,0.09 -0.48,0 -0.9,-0.21 -0.39,-0.24 -0.69,-0.6 -0.3,-0.36 -0.48,-0.81 -0.18,-0.45 -0.24,-0.9 0,-1.32 0.48,-2.52 0.48,-1.2 1.17,-2.1 0.72,-0.9 1.47,-1.44 0.78,-0.54 1.35,-0.54 0.36,0 0.66,0.18 0.33,0.15 0.54,0.39 0.24,0.21 0.36,0.48 0.12,0.27 0.12,0.48 0,0.6 -0.36,1.14 -0.36,0.51 -0.87,0.93 -0.48,0.39 -1.02,0.63 -0.54,0.21 -0.9,0.21 -0.33,0 -0.39,-0.3 -0.06,-0.33 -0.06,-0.51 0,-0.18 0.12,-0.45 0.15,-0.3 0.33,-0.57 0.18,-0.3 0.36,-0.51 0.21,-0.21 0.33,-0.21 0.24,0 0.51,0.21 0.27,0.18 0.57,0.42 0.15,-0.27 0.33,-0.54 0.18,-0.27 0.18,-0.51 0,-0.57 -0.69,-0.57 -0.03,0 -0.06,0.03 0,0 -0.03,0 -0.12,0 -0.24,-0.06 -0.09,-0.06 -0.21,-0.06 -0.66,0 -1.17,0.42 -0.51,0.39 -0.93,1.02 -0.39,0.6 -0.69,1.32 -0.27,0.69 -0.45,1.32 -0.18,0.63 -0.27,1.05 -0.09,0.42 -0.09,0.45 0,0.27 0.12,0.66 0.12,0.36 0.33,0.69 0.24,0.33 0.51,0.57 0.27,0.24 0.6,0.24 0.09,0 0.27,-0.12 0.18,-0.15 0.36,-0.3 0.18,-0.18 0.3,-0.3 0.15,-0.15 0.15,-0.12 0.03,-0.18 0.33,-0.51 0.33,-0.33 0.66,-0.63 0.36,-0.33 0.63,-0.54 0.27,-0.24 0.24,-0.21 0.33,-0.18 0.78,-0.57 0.45,-0.42 0.87,-0.84 0.42,-0.42 0.72,-0.78 0.33,-0.39 0.36,-0.51 0,-0.03 0.21,-0.27 0.24,-0.27 0.54,-0.57 0.3,-0.3 0.6,-0.54 0.3,-0.27 0.42,-0.27 0.27,-0.06 0.75,-0.6 0.51,-0.57 1.05,-1.26 0.54,-0.69 0.99,-1.29 0.48,-0.6 0.66,-0.75 0.3,-0.24 0.51,-0.6 0.21,-0.36 0.45,-0.72 z m -1.65,11.79 q 0.6,-0.09 0.96,-0.18 0.39,-0.09 0.75,-0.54 0.24,-0.33 0.63,-0.48 0.42,-0.15 0.6,-0.39 0.3,-0.45 0.63,-0.9 0.33,-0.48 0.66,-0.96 -0.24,-0.15 -0.24,-0.39 0,-0.21 0.12,-0.51 0.12,-0.3 0.24,-0.63 0.15,-0.33 0.27,-0.63 0.12,-0.33 0.12,-0.57 -0.03,-0.15 -0.03,-0.42 0,-0.33 0.03,-0.63 0.03,-0.33 0.03,-0.66 0,-0.72 -0.42,-1.44 -0.42,-0.75 -0.78,-1.2 -0.72,1.08 -1.17,1.98 -0.42,0.9 -0.75,1.77 -0.3,0.87 -0.6,1.74 -0.3,0.87 -0.81,1.89 -0.24,0.45 -0.45,0.93 -0.18,0.45 -0.18,1.02 0,0.33 0.09,0.63 0.12,0.27 0.3,0.57 z m 4.68,-14.64 -0.09,-0.09 q -0.6,0.54 -1.08,1.2 -0.45,0.63 -0.93,1.32 0.21,0.15 0.33,0.27 0.15,0.09 0.3,0.21 0.42,-0.78 0.75,-1.5 0.36,-0.72 0.72,-1.41 z" />
    </g>
  </g>
</svg>
