<?xml version="1.0" encoding="UTF-8" standalone="no"?>
<svg
   xmlns:dc="http://purl.org/dc/elements/1.1/"
   xmlns:cc="http://creativecommons.org/ns#"
   xmlns:rdf="http://www.w3.org/1999/02/22-rdf-syntax-ns#"
   xmlns:svg="http://www.w3.org/2000/svg"
   xmlns="http://www.w3.org/2000/svg"
   id="svg16"
   width="500px"
   version="1.1"
   height="200px">
  <metadata
     id="metadata20">
    <rdf:RDF>
      <cc:Work
         rdf:about="">
        <dc:format>image/svg+xml</dc:format>
        <dc:type
           rdf:resource="http://purl.org/dc/dcmitype/StillImage" />
      </cc:Work>
    </rdf:RDF>
  </metadata>
  <defs
     id="defs4">
    <style
       id="style2"
       type="text/css"><![CDATA[    
     @font-face {font-family:Manenschijn_02;
     src: url('/Users/francesco/Repos/write-logos/src/fonts/manenschijn_02.ttf');}
     @font-face {font-family:DuererGotisch;
     src: url('/Users/francesco/Repos/write-logos/src/fonts/DuererGotisch.ttf');}
     ]]></style>
  </defs>
  <g
     id="g14"
     style="font-size:30px">
    <g
       style="text-anchor:middle"
       id="text12"
       aria-label="eXtemporanea">
      <path
         id="path22"
         style="font-family:Manenschijn_02"
         d="m 158.28613,83.330078 q 2.57813,0 4.99512,2.329102 v -0.161133 l -1.33301,-1.333008 h 0.17578 q 2.66602,1.948242 2.66602,4.335938 v 1.992187 l -0.33692,1.010742 0.16114,0.834961 -0.65918,1.157227 q 0.46875,0 0.99609,2.006836 0,4.49707 -6.5039,4.49707 h -0.49805 q -7.5,-0.791016 -7.5,-7.5 v -1.494141 q 0,-5.566406 5.66894,-7.514648 z m -7.5,8.173828 v 0.65918 q 0,4.863281 4.16016,6.84082 1.3623,0.65918 3.16406,0.65918 h 0.5127 q 4.89257,0 5.83007,-3.00293 v -0.996094 q 0,-1.30371 -0.83496,-1.992187 -0.64453,0.498047 -2.16796,0.65918 v -0.336914 l 1.66992,-0.322266 v -0.175781 h -0.17578 q -2.05079,0.673828 -7.82227,0.673828 v 0.161133 q 0.87891,2.504882 4.49707,2.504882 l 1.66992,-0.175781 -0.67383,-1.157226 0.17579,-0.175782 h 0.16113 l 0.16113,0.175782 h 0.17578 l -0.17578,0.161132 v 0.175782 q 0,0.498047 1.17188,0.498047 v 0.161132 q 0,0.498047 -3.33985,0.834961 -4.83398,-0.527343 -4.83398,-4.335937 -0.16113,-1.333008 -0.9961,-2.666016 0.33692,-3.867187 1.83106,-4.49707 l 0.17578,0.161133 4.49707,-0.336914 q 1.28906,0 3.50098,1.669922 h 0.16113 q 0,-2.622071 -5.33203,-3.66211 -6.37207,0 -7.16309,7.836914 z m 10.66407,-7.675781 h 0.33691 v 0.175781 h -0.33691 z m -7.66114,5.332031 q 0.33692,2.167969 1.33301,2.167969 1.49414,-0.541992 1.49414,-0.834961 l -1.83105,-2.167969 h 0.49804 q 0,0.512696 1.66992,1.845703 h 0.16114 q 0,-0.629882 0.67383,-1.171875 l 0.16113,0.161133 h 0.16113 q 1.33301,-0.292969 1.33301,-0.996094 V 88.00293 h -0.16113 v 0.322265 h -0.33692 q 0,-1.567383 -2.66601,-1.992187 -2.03614,0 -2.49024,2.827148 z m 5.49317,-2.666015 1.17187,1.831054 v 0.175782 h -0.49805 V 88.00293 h -0.17578 q 0,1.127929 -1.15722,1.49414 l -0.17578,0.673828 0.83496,0.161133 h 0.49804 v 0.336914 q -1.78711,0.117188 -2.16797,0.498047 l -0.16113,-0.161133 h -0.16113 l -0.67383,0.161133 v 0.336914 h 0.16113 l 5.84473,0.65918 q 0.83496,-0.27832 0.83496,-0.834961 -0.83496,-1.479492 -1.33301,-3.325195 -1.46484,-1.508789 -2.84179,-1.508789 z m -3.50098,1.831054 h 0.67383 v 0.336914 h -0.67383 z m 0.99609,0.175782 h 0.17578 l 0.33692,0.336914 h -0.5127 z m -1.83105,3.83789 v 1.333008 l 1.33301,-1.333008 v -0.175781 h -0.16114 z m 0.49805,1.494141 h 2.00683 Q 156.95312,93.393555 156.95312,92.5 h -0.17578 z M 157.29004,92.5 v 0.65918 l 0.32226,0.336914 0.67383,0.175781 0.16114,-0.175781 h 1.17187 q 0,-0.336914 0.65918,-0.336914 0,-0.439453 -2.98828,-0.65918 z m 3.32519,0.834961 v 0.161133 h 1.33301 V 93.334961 L 161.4502,93.15918 Z" />
      <path
         id="path24"
         style="font-family:DuererGotisch"
         d="m 176.11305,81.01 q -1.53,1.62 -1.53,1.77 l -0.03,4.65 h 0.81 l 0.03,1.29 h -0.9 v 1.05 h 0.87 v 1.26 h -0.87 v 6.9 l 0.21,0.06 0.54,-0.51 0.24,0.18 -2.13,2.34 q -2.28,-1.5 -2.88,-2.49 -0.96,2.4 -3.42,2.4 -0.45,0 -0.72,-0.03 0.06,-1.98 0,-2.94 h 0.21 q 0.27,0.93 1.47,1.02 0.66,0.06 1.29,-0.66 0.66,-0.72 0.66,-1.38 l 0.03,-5.01 h -1.92 v -1.14 l 1.89,-0.03 0.03,-1.05 -1.95,0.03 v -1.17 l 2.01,-0.03 0.03,-4.47 q 0,-0.12 -0.87,-0.84 -0.84,-0.72 -0.99,-0.72 -0.48,0 -0.93,0.57 -0.45,0.54 -0.45,1.02 0,1.08 1.29,1.08 0.27,0 0.66,-0.21 l 0.12,0.12 q -0.06,0.18 -0.54,0.69 -0.45,0.48 -0.6,0.48 -0.6,0 -1.11,-0.72 -0.42,-0.6 -0.42,-1.08 0,-0.84 1.23,-2.1 1.38,-1.41 1.56,-2.13 l 2.88,2.58 q 0.48,-0.36 1.29,-1.26 l 1.17,-1.32 z m -1.89,6.48 v -4.74 q 0.03,-0.18 -0.81,-0.93 v 5.67 z m -0.06,1.23 h -0.87 v 1.05 h 0.87 z m -1.26,8.22 V 81.49 q -0.84,0.51 -0.96,1.5 0,0.21 0,0.63 -0.03,0.42 -0.03,0.66 v 11.43 q 0,0.45 0.99,1.23 z m 1.2,-5.88 h -0.78 v 6.15 l 0.78,0.54 z" />
      <path
         id="path26"
         style="font-family:Manenschijn_02"
         d="m 182.73437,79.199219 h 1.59668 q 2.27051,0 2.8418,3.193359 h 0.71777 q 2.12403,0 2.66602,3.383789 0,2.783203 -3.01758,3.735352 v 0.351562 h -0.36621 v -0.527344 h -0.17578 l -0.17578,3.017579 v 0.717773 l 0.17578,-0.175781 q 2.8418,0.527344 2.8418,2.475586 l -0.17578,0.717773 0.17578,1.245117 Q 189.00391,100 185.40039,100 h -1.4209 v -0.351563 h 0.70313 v -0.175781 q -4.79004,0 -4.79004,-7.11914 v -3.19336 q -2.13867,-0.805664 -2.13867,-2.856445 v -0.878906 q 0,-1.875 1.96289,-3.032227 0.3955,-3.193359 3.01757,-3.193359 z m -2.66601,3.193359 h 1.94824 l 0.36621,0.366211 q -2.05078,2.314453 -2.49023,2.314453 V 84.53125 q 0.52734,0 1.94824,-1.772461 h -1.06934 q -2.40234,0 -2.66601,2.841797 v 0.351562 q 0,2.006836 1.78711,2.841797 v -1.420898 l -0.17578,-0.878906 h 0.17578 l 2.49023,2.490234 -0.36621,0.351562 h -1.4209 l -0.17578,-0.175781 h -0.17578 v 2.299805 q 0,5.932617 2.49023,7.119141 l 2.49024,0.703125 1.24512,-0.175782 v -0.175781 h -0.542 v -0.351562 h 0.36622 V 98.40332 q -3.91114,-0.366211 -3.91114,-3.208008 v -0.527343 l 0.87891,-7.998047 -0.17578,-0.175781 h -0.17578 l -0.52735,0.351562 h -1.43554 v -0.175781 q 0,-0.454102 0.71777,-0.541992 -0.36621,-0.703125 -0.89356,-0.703125 v -0.351563 h 0.89356 q 0.64453,0 1.59668,0.703125 l 0.17578,-0.527344 h 0.36621 q 0,0.703125 0.70313,0.703125 v 0.351563 q -0.52735,0 -0.52735,1.245117 v 0.541992 l 0.17578,0.893555 2.49024,-2.314453 0.17578,0.175781 v 0.175781 q -0.54199,0 -1.96289,1.772461 h 0.71777 v 0.366211 h -1.06933 l -0.17579,0.175781 h -0.17578 q 0.35157,3.222657 1.06934,5.15625 h 0.52734 q 0.71778,0 0.71778,-4.277343 v -0.878907 l -0.17578,-0.175781 v -0.175781 l 0.17578,-0.19043 0.70312,0.19043 q 2.62207,0 3.03223,-3.208008 -0.43946,-3.017578 -2.85645,-3.017578 h -0.17578 l -0.17578,0.175781 -0.17578,-0.175781 h -1.96289 q 1.34765,1.772461 2.13867,1.772461 l -0.35156,0.351562 -2.49024,-2.490234 h 2.66602 q 0,-2.446289 -3.01758,-2.841797 h -0.89355 q -2.8418,0.366211 -2.8418,2.841797 z m 1.94824,3.208008 -0.17578,0.893555 h 0.54199 l 0.35156,-0.366211 z m 1.61133,0.351562 v 0.351563 h 0.17578 v -0.351563 z m 3.19336,-0.175781 h 0.35156 v 0.351563 h -0.35156 z m -6.57715,1.59668 v 1.611328 h 1.59668 z m 3.19336,3.55957 -0.35156,3.383789 q 0,3.19336 4.08691,3.19336 0.80567,0 1.4209,-1.245118 -0.4541,-1.142578 -0.87891,-1.245117 h -0.36621 l 0.19043,0.175781 v 0.175782 l -1.06933,0.366211 h -0.71778 q -1.94824,0 -1.94824,-4.453125 v -0.351563 z m 3.55957,0.351563 h 0.35156 v 1.420898 h -0.35156 z m -5.15625,5.874023 0.89355,0.878906 h -0.17578 l -0.71777,-0.703125 z m -0.89355,0.878906 0.71777,0.717774 h -0.17578 l -0.54199,-0.527344 z m 2.49023,0.366211 h 0.19043 l 1.05469,0.175782 v 0.351562 h -0.17578 Q 183.4375,98.754883 183.4375,98.40332 Z m 3.38379,0.351563 v 0.175781 h 0.35156 v -0.175781 z m -4.98047,0.175781 h 0.35156 v 0.175781 h -0.35156 z m 4.98047,0.351563 v 0.190429 h 0.35156 v -0.190429 z m -4.2627,0 h 0.17578 l 0.89356,0.190429 v 0.351563 q -1.06934,-0.175782 -1.06934,-0.541992 z m 3.19336,0.190429 v 0.175781 h 0.89356 v -0.175781 z" />
      <path
         id="path28"
         style="font-family:Manenschijn_02"
         d="m 200.41504,83.330078 q 2.57812,0 4.99512,2.329102 v -0.161133 l -1.33301,-1.333008 h 0.17578 q 2.66602,1.948242 2.66602,4.335938 v 1.992187 l -0.33692,1.010742 0.16113,0.834961 -0.65918,1.157227 q 0.46875,0 0.9961,2.006836 0,4.49707 -6.50391,4.49707 h -0.49805 q -7.5,-0.791016 -7.5,-7.5 v -1.494141 q 0,-5.566406 5.66895,-7.514648 z m -7.5,8.173828 v 0.65918 q 0,4.863281 4.16016,6.84082 1.3623,0.65918 3.16406,0.65918 h 0.51269 q 4.89258,0 5.83008,-3.00293 v -0.996094 q 0,-1.30371 -0.83496,-1.992187 -0.64453,0.498047 -2.16797,0.65918 v -0.336914 l 1.66992,-0.322266 v -0.175781 h -0.17578 q -2.05078,0.673828 -7.82226,0.673828 v 0.161133 q 0.8789,2.504882 4.49707,2.504882 l 1.66992,-0.175781 -0.67383,-1.157226 0.17578,-0.175782 h 0.16113 l 0.16114,0.175782 h 0.17578 l -0.17578,0.161132 v 0.175782 q 0,0.498047 1.17187,0.498047 v 0.161132 q 0,0.498047 -3.33984,0.834961 -4.83399,-0.527343 -4.83399,-4.335937 -0.16113,-1.333008 -0.99609,-2.666016 0.33691,-3.867187 1.83106,-4.49707 l 0.17578,0.161133 4.49707,-0.336914 q 1.28906,0 3.50097,1.669922 h 0.16114 q 0,-2.622071 -5.33204,-3.66211 -6.37207,0 -7.16308,7.836914 z m 10.66406,-7.675781 h 0.33692 v 0.175781 h -0.33692 z m -7.66113,5.332031 q 0.33691,2.167969 1.33301,2.167969 1.49414,-0.541992 1.49414,-0.834961 l -1.83106,-2.167969 h 0.49805 q 0,0.512696 1.66992,1.845703 h 0.16113 q 0,-0.629882 0.67383,-1.171875 l 0.16113,0.161133 h 0.16114 q 1.33301,-0.292969 1.33301,-0.996094 V 88.00293 h -0.16114 v 0.322265 h -0.33691 q 0,-1.567383 -2.66602,-1.992187 -2.03613,0 -2.49023,2.827148 z m 5.49316,-2.666015 1.17188,1.831054 v 0.175782 h -0.49805 V 88.00293 h -0.17578 q 0,1.127929 -1.15723,1.49414 l -0.17578,0.673828 0.83496,0.161133 h 0.49805 v 0.336914 q -1.78711,0.117188 -2.16797,0.498047 l -0.16113,-0.161133 h -0.16113 l -0.67383,0.161133 v 0.336914 h 0.16113 l 5.84473,0.65918 q 0.83496,-0.27832 0.83496,-0.834961 -0.83496,-1.479492 -1.33301,-3.325195 -1.46484,-1.508789 -2.8418,-1.508789 z m -3.50097,1.831054 h 0.67382 v 0.336914 h -0.67382 z m 0.99609,0.175782 h 0.17578 l 0.33692,0.336914 h -0.5127 z m -1.83105,3.83789 v 1.333008 l 1.333,-1.333008 v -0.175781 h -0.16113 z m 0.49804,1.494141 h 2.00684 Q 199.08203,93.393555 199.08203,92.5 h -0.17578 z M 199.41895,92.5 v 0.65918 l 0.32226,0.336914 0.67383,0.175781 0.16113,-0.175781 h 1.17188 q 0,-0.336914 0.65918,-0.336914 0,-0.439453 -2.98828,-0.65918 z m 3.32519,0.834961 v 0.161133 h 1.33301 V 93.334961 L 203.5791,93.15918 Z" />
      <path
         id="path30"
         style="font-family:Manenschijn_02"
         d="m 213.45215,83.081055 h 0.84961 q 0.83496,0 1.71386,0.512695 l 1.0254,-0.336914 v 0.336914 l -0.84961,0.175781 0.33691,0.512696 v 0.161132 l -0.68848,-0.512695 -0.51269,0.351563 h -0.33692 q 0,-0.351563 0.5127,-0.351563 -0.10254,-0.512695 -1.36231,-0.512695 h -0.51269 q -2.73926,0 -2.73926,3.076172 v 10.605468 q 0,2.387696 2.3877,2.387696 v 0.336914 q -3.23731,0 -3.23731,-6.313477 V 92.30957 h 0.33692 v -0.175781 l 0.17578,-7.001953 q 0.86426,-2.050781 2.90039,-2.050781 z m 3.92578,0 h 0.68848 v 0.336914 h -0.68848 z m 1.71387,0 h 0.51269 v 0.336914 h -0.51269 z m 0.84961,0.175781 h 0.35156 l 0.33691,0.336914 h -0.68847 z m 4.79004,0 h 0.51269 v 0.336914 h -0.51269 z m 1.20117,0 h 0.67383 v 0.336914 h -0.67383 z m -1.53809,0.161133 v 0.351562 q -1.12793,0 -1.88965,0.84961 l 0.68848,0.849609 v 0.175781 q -0.84961,-0.849609 -1.36231,-0.849609 l 0.16114,-0.175781 v -0.175782 l -0.33692,-0.336914 h 0.17578 l 0.67383,0.175782 q 0,-0.424805 1.88965,-0.864258 z m 2.56348,0 h 0.16113 q 4.27734,1.333008 4.27734,5.639648 0,4.482422 -0.51269,8.041992 h -0.33692 q -0.68847,-3.310547 -0.68847,-5.302734 h -0.17578 v 2.563477 h -0.33692 v -3.413086 q 0,-5.126954 -2.90039,-5.126954 h -0.68847 q -1.875,0.263672 -1.875,0.84961 l 1.69921,-0.175781 q 1.68457,0 2.22657,2.739257 l -0.5127,8.027344 q 0,0.46875 2.05078,0.864258 l 0.17578,0.161133 h 0.33692 l 0.84961,-0.673828 v 0.336914 q -0.21973,0.571289 -2.05078,1.538086 h -0.33692 v -0.336914 h -0.68847 v 0.336914 h -0.16114 q -2.22656,-0.556641 -2.22656,-2.226563 v -0.161133 h 0.33691 l -0.16113,-6.328125 v -0.175781 h -0.17578 q 0,0.512695 -0.33691,0.512695 l -0.17578,-0.161132 v 5.126953 q 0,3.75 -2.9004,3.75 h -1.20117 q -2.90039,-0.483399 -2.90039,-2.900391 v -6.84082 h -0.17578 v 6.84082 q -0.4541,2.900391 -2.73926,2.900391 v -0.336914 q 2.40235,0 2.40235,-3.076172 v -5.81543 h -0.17578 v 0.351563 h -0.33692 v -0.175782 q 0.29297,-1.538086 0.67383,-1.538086 l 0.35156,0.336914 q 0.0439,-0.849609 0.5127,-0.849609 l 0.16113,0.175781 -0.33691,1.362305 v 5.976563 q 0,3.251953 2.73925,3.251953 h 0.84961 q 2.73926,0 2.73926,-3.588868 l -0.17578,-3.413085 h 0.17578 l -0.17578,-0.175782 v -1.02539 l -0.68848,-0.175782 0.17578,-0.512695 h -0.51269 q 0,-1.245117 1.53809,-1.875 l 0.33691,-0.336914 h 0.35156 q 0.60059,0 0.84961,1.699219 h -0.33691 v -0.336914 h -0.17578 v 0.688476 l 0.17578,6.152344 0.16113,-0.175781 h 0.17578 l -0.17578,-0.175781 v -1.699219 q 0.5127,0 0.86426,-4.965821 V 89.40918 q -0.39551,-2.050782 -1.88965,-2.050782 -2.90039,0.644532 -2.90039,3.413086 l -0.5127,5.302735 0.33692,0.336914 -0.67383,0.688476 -0.68848,-0.688476 q 0,-0.336914 0.5127,-0.336914 l 0.33691,-7.177735 q 0,-2.402343 -3.41308,-3.251953 h -0.84961 l 0.16113,0.688477 -0.16113,0.673828 v 0.351562 h 0.33691 v 0.336914 h -0.17578 l -2.3877,-0.849609 q -0.84961,0.922852 -0.84961,1.362305 h -0.35156 l 0.17578,-1.025391 0.17578,0.175781 h 0.16114 l 0.51269,-0.688476 -0.16113,-0.175781 1.02539,-0.336914 h 0.16113 l -0.33691,0.512695 1.3623,0.512695 v -1.362305 l -0.16113,0.161133 h -0.51269 l 0.67382,-0.512695 -0.16113,-0.161133 v -0.512695 q 0.33692,0 0.33692,0.673828 l 1.02539,-0.161133 q 0.76171,0 2.38769,0.673828 l 0.86426,-0.849609 h 0.16113 l -0.84961,1.025391 0.17578,0.175781 -0.17578,0.161133 q 0.84961,0.512695 0.84961,1.201171 h 0.86426 q 0.55664,-1.362304 1.18652,-1.362304 l -0.16113,-0.175781 v -0.336915 l 0.5127,0.336915 q 0,-0.629883 2.56347,-0.84961 3.19336,0 4.10156,5.463867 v 0.175782 h 0.33692 l 0.17578,-1.713868 q 0,-4.49707 -4.10156,-5.463867 z m -6.15235,0.175781 h 0.33692 l 0.33691,0.336914 h -0.33691 z m -6.15234,0.849609 h 0.16113 l -0.67383,0.688477 h -0.17578 z m -1.02539,0.864258 h 0.16113 l -0.33691,0.512695 q 1.20117,0.395508 1.20117,0.673829 -0.5127,0 -0.5127,0.351562 h -0.35156 q 0,-0.454101 -0.67383,-1.025391 z m 7.51465,0.84961 h 0.33691 v 0.336914 h -0.33691 z m 2.22656,0.688476 v 0.161133 h 0.33691 v -0.161133 z m -1.53809,1.025391 v 0.512695 l 0.33692,-0.351562 -0.17578,-0.161133 z m 2.05079,1.875 v 0.336914 h 0.16113 v -0.336914 z m -13.68164,1.362304 v 0.512696 h -0.33692 v -0.512696 z m 14.70703,0.688477 h 0.33691 v 1.875 h -0.33691 z m 0.16113,3.413086 h 0.35156 v 1.025391 h -0.35156 z m -11.2793,0.864258 h 0.35156 v 0.161133 h -0.35156 z m 11.79199,1.186523 v 0.512695 h 0.17579 v -0.512695 z m 0.35157,0.864258 v 0.336914 l 0.16113,0.175781 h 0.17578 L 226.09375,98.125 Z m 1.02539,0.849609 v 0.175782 h 0.33691 v -0.175782 z m -13.33008,0.688477 h 0.84961 V 100 h -0.84961 z" />
      <path
         id="path32"
         style="font-family:Manenschijn_02"
         d="m 238.44238,82.788086 2.00684,0.351562 q 0.8789,-0.541992 2.73926,-0.541992 h 0.55664 q 4.1455,0 6.0205,4.570313 0.36622,0.703125 0.36622,2.006836 v 1.274414 l -0.19043,1.274414 q 0.58593,0 0.73242,1.831054 0,4.145508 -3.10547,6.386719 h -0.17578 l 1.8164,-2.197265 v -0.175782 h -0.17578 q -1.94824,3.281251 -5.65429,3.281251 h -1.09864 v 0.17578 l 0.17578,0.17578 -0.17578,0.19043 v 1.27442 q 0,2.49023 -3.10547,2.92968 h -1.27441 q -3.10547,-0.35156 -3.10547,-3.10547 V 85.878906 q 0,-2.827148 3.64746,-3.09082 z m -3.28125,3.28125 v 16.420894 q 0.36621,2.73926 2.73926,2.73926 h 1.09863 q 2.50489,0 2.91504,-2.73926 v -0.92285 l -0.19043,-0.17578 0.19043,-0.19043 v -0.54199 q -1.04004,0 -2.73926,-1.083985 v -0.190429 h -0.54199 v 0.908204 l -0.19043,0.9082 0.90821,0.36621 v 0.73242 h -0.35157 q 0,-0.54199 -0.36621,-0.54199 l -0.55664,0.73242 h -0.17578 l 0.36621,-3.823238 -0.19043,-0.19043 h -0.17578 l -0.73242,0.19043 v -0.366211 q 1.46484,0 1.46484,-2.197265 -1.17187,0 -1.64062,-6.5625 0.30761,-2.021485 1.64062,-2.021485 V 87.34375 h -0.36621 l 0.17578,-0.908203 h -0.36621 v -0.556641 l 1.83106,0.732422 1.64062,-0.908203 0.17578,0.175781 h 0.19043 q 1.20117,-0.541992 2.54883,-0.541992 h 0.36621 q 1.62598,0 4.01367,2.182617 h 0.19043 q 0,-2.519531 -4.01367,-4.013672 l -1.46484,-0.175781 h -0.36621 l -2.18262,0.366211 v 0.175781 l 0.36621,0.556641 v 0.175781 q -1.53809,-1.464844 -3.10547,-1.464844 -3.10547,0.439454 -3.10547,2.929688 z m 4.01367,-1.640625 h 0.36622 v 0.175781 h -0.36622 z m 2.19727,0.175781 0.35156,0.366211 v 0.19043 h -0.35156 z m -2.73926,0.366211 h 0.17578 l -0.73242,0.732422 v -0.19043 z m 5.11231,0.732422 v 0.175781 q 2.72461,1.186524 2.72461,3.105469 v 0.19043 q 0,1.889648 -0.90821,3.09082 l 0.19043,0.556641 h 0.17578 v -0.366211 h 0.36622 v 0.175781 q -0.30762,4.394531 -2.37305,4.746094 v 0.190429 h 0.54199 q 3.66211,-1.201172 3.66211,-3.647461 0.35156,0 1.08398,-2.006836 l 0.19043,-0.190429 -0.92285,-2.915039 h -0.17578 v 0.541992 h -0.36621 q 0,-2.680664 -3.83789,-3.647461 z m -4.93653,0.908203 -0.17578,0.556641 0.17578,0.175781 h 0.19043 q 0,-0.366211 0.542,-0.366211 l -0.36622,-0.366211 z m -0.9082,3.837891 q 0,5.288086 1.64063,5.288086 0,0.585937 2.91503,1.464843 2.73926,-0.424804 2.73926,-2.563476 v -0.717774 l -0.54199,-0.55664 -1.09863,0.908203 h -0.54199 l -0.55665,-0.351563 h -0.17578 v 0.541993 h -0.36621 l -0.54199,-1.640625 0.17578,-0.19043 h 0.17578 l 0.19043,0.19043 v -1.831055 l -0.19043,0.19043 h -0.17578 l -0.17578,-0.19043 q 0.43945,-1.450195 0.71777,-1.450195 l 0.36621,0.351562 0.92286,-0.717773 h 0.17578 q 1.02539,2.050781 1.46484,2.182617 l 0.54199,-2.006836 -0.17578,-1.098633 -0.19043,0.19043 h -0.36621 q 0,-1.259766 -2.37305,-1.831055 -4.55566,0.805664 -4.55566,3.837891 z m 8.02734,-1.831055 v 0.922852 h 0.19043 V 88.618164 Z M 242.28027,90.625 v 2.373047 l 0.90821,0.922851 q 0.38086,0 1.27441,-2.006836 l -0.9082,-2.021484 h -0.54199 z m 2.54883,-0.908203 h 0.36621 v 0.366211 h -0.36621 z m 3.2959,0 h 0.35156 v 0.541992 H 248.125 Z M 245.75195,90.625 v 0.366211 h 0.17578 V 90.625 Z m 3.28125,4.204102 q -1.71386,3.64746 -4.93652,3.64746 l -1.81641,-0.175781 v 1.274414 l 0.17578,0.175782 -0.17578,0.190429 v 0.541994 h 0.90821 q 3.79394,0 6.0205,-3.837892 v -0.175781 h -0.17578 q 0,0.83496 -1.64062,2.197265 h -0.19043 q 1.91894,-2.15332 2.00683,-3.662109 v -0.175781 z m 0.90821,0.541992 v 0.366211 h 0.19043 v -0.366211 z m -10.94239,1.464843 v 0.732422 l 0.71778,-0.190429 q 0,-0.263672 -0.71778,-0.541993 z m -0.19043,1.464844 v 0.366211 q 1.4209,1.435548 3.10547,1.625978 v -2.182618 l -1.83105,-0.541993 q -1.27442,0.424805 -1.27442,0.732422 z m 8.21778,0.366211 h 0.17578 l -0.36621,0.351563 h -0.17578 z m -1.09864,0.717774 q 0,0.366211 -1.09863,0.55664 v -0.366211 z m -6.75293,0.732424 h 0.17579 v 0.36621 h -0.17579 z m 7.66114,0 h 0.36621 v 0.17578 h -0.36621 z" />
      <path
         id="path34"
         style="font-family:Manenschijn_02"
         d="m 260.70801,82.84668 h 0.86426 q 5.50781,0 7.03125,5.654297 v 1.889648 h 0.17578 v -1.889648 h 0.33691 v 0.527343 q 0,1.450196 -0.33691,2.226563 l 0.16113,1.889648 v 0.161133 q -0.33691,3.266602 -1.02539,3.266602 V 96.220703 Q 265.30762,100 261.05957,100 h -0.35156 q -6.73828,0 -7.54395,-7.895508 v -0.673828 q 0,-6.049805 5.1416,-8.24707 z m -7.20703,8.232422 v 0.512695 q 0,5.800781 4.64355,7.543945 0.61524,0.351563 3.07617,0.527344 4.67285,0 6.69434,-4.804688 v -0.175781 h -0.17578 l -0.16114,0.688477 h -0.17578 v -0.351563 l 0.5127,-1.875 q -2.24121,3.94043 -5.1416,3.94043 -3.95508,-0.205078 -4.29199,-0.512695 h -0.17579 v 0.175781 l 1.20118,0.336914 v 0.336914 q -3.60352,-1.40625 -3.60352,-3.94043 -0.26367,0 -0.5127,-3.779297 0,-1.787109 1.55274,-3.251953 v 0.175782 l -0.35156,1.02539 q 1.93359,-2.06543 3.60351,-2.06543 5.30274,0 7.20703,2.753907 l 0.17578,0.161133 h 0.16114 v -0.336915 q 0,-3.676757 -5.31739,-4.804687 l -1.3623,-0.175781 q -6.69434,0 -7.55859,7.895508 z m 2.7539,-0.688477 v 0.864258 q 0,4.379883 4.11621,5.317383 3.42774,-0.585938 3.42774,-2.578125 v -0.175782 l -0.17578,-0.849609 h -0.5127 q -0.8789,0.849609 -1.53808,0.849609 -1.55274,0 -1.55274,-1.713867 v -1.362305 q 0,-1.713867 1.37695,-1.713867 h 0.5127 q 1.37695,1.069336 1.37695,2.050782 0.68848,-0.234375 0.68848,-1.538086 V 89.02832 q -0.27832,-2.065429 -1.20117,-2.065429 v 0.175781 l 0.33691,0.336914 v 0.175781 q -1.3623,-1.201172 -3.25195,-1.201172 -2.75391,0 -3.60352,3.94043 z m 7.20703,-3.603516 v 0.175782 q 0.84961,0 1.20118,3.09082 -0.52735,0 -0.52735,1.025391 l -0.33691,0.351562 q 0.39551,0 0.51269,0.849609 l 0.17578,-0.175781 h 0.33692 v 0.175781 q -0.5127,3.94043 -1.88965,3.94043 v 0.175781 h 0.17578 q 2.54883,0 4.29199,-4.96582 -0.54199,-0.27832 -1.37695,-2.929687 -1.25977,-1.538086 -1.88965,-1.538086 l 0.17578,0.175781 v 0.336914 z m 0.84961,0.688477 h 0.17578 v 0.351562 h -0.17578 z m 4.292,0 h 0.33691 v 0.351562 h -0.33691 z m -8.23243,3.955078 v 0.512695 q 0,1.538086 1.02539,1.538086 1.01075,0 1.71387,-2.050781 -0.79101,-2.06543 -1.53808,-2.06543 -1.20118,0 -1.20118,2.06543 z m 8.05664,-0.688477 v 0.336915 h 0.17579 v -0.336915 z m -0.51269,3.427735 v 0.336914 h 0.17578 v -0.336914 z m 0.51269,0 v 0.336914 h 0.17579 v -0.336914 z m -0.17578,0.688476 v 0.336914 h 0.17578 v -0.336914 z m -0.16113,0.512696 v 0.336914 h 0.16113 v -0.336914 z m -1.20117,0.512695 h 0.16113 v 0.336914 h -0.16113 z m -0.17578,0.512695 v 0.175782 l -0.84961,0.849609 h -0.17578 z m 1.02539,0.512696 v 0.351562 h -0.33692 z m -0.68848,0.688476 h 0.17578 v 0.336914 h -0.17578 z m -0.84961,1.025391 h 0.17578 l -0.35156,0.351562 h -0.16113 z" />
      <path
         id="path36"
         style="font-family:Manenschijn_02"
         d="m 275.01953,82.436523 h 0.87891 l 1.4209,0.351563 1.42089,-0.351563 h 1.06934 q 3.36914,0.65918 3.36914,2.490235 v 0.703125 l -0.17578,0.175781 v 0.175781 l 0.35156,0.351563 v 1.069336 q 0,1.464843 -1.94824,1.948242 v -0.351563 h -1.06934 q -1.05468,1.450196 -1.05468,3.017579 v 4.96582 q 0,2.62207 -3.55957,3.017578 h -0.17579 q -3.54492,-0.322266 -3.54492,-3.017578 v -11.52832 q 0.42481,-3.017579 3.01758,-3.017579 z m -2.66601,14.370118 q 0,2.504882 3.19335,2.841796 3.36915,0 3.36915,-3.36914 v -3.017578 q 0,-2.138672 -0.52735,-2.138672 v -0.175781 l 0.17578,-0.175782 v -0.175781 l -0.70312,-0.175781 -0.17578,0.175781 v -0.351562 q 0.26367,-0.9375 1.05468,-1.420899 0,-0.893555 0.89356,-0.893555 l -0.35156,-0.351562 q -3.01758,0.65918 -3.01758,4.438477 h -0.17578 l 0.17578,0.175781 v 0.175781 l -0.17578,0.175781 0.17578,0.175782 v 0.190429 q -0.41016,0.410156 -0.71778,2.651367 h 0.35157 v 0.175782 l -0.52735,1.069336 h -0.35156 l 0.87891,-6.738282 q -0.30762,-4.086914 -0.87891,-4.086914 h -0.52734 v -0.351562 l 1.05468,-0.703125 v 0.175781 l -0.17578,0.175781 0.17578,0.703125 h 0.17579 l 0.17578,-0.175781 h 0.19043 l 0.35156,0.527344 -0.17578,0.541992 0.17578,0.175781 h -0.54199 l 0.19043,1.772461 h 0.17578 q 0,-0.351562 1.05469,-1.420898 l -0.70313,-0.175782 q 0.23438,-1.069335 0.52734,-1.069335 0,0.424804 1.24512,0.717773 l 0.17578,-0.175781 v -1.245117 l -0.17578,-1.245118 0.17578,0.175782 h 0.17578 q 0,-0.351563 1.06934,-0.703125 l -0.35156,-0.351563 h -1.4209 v 0.351563 q -1.18652,-0.893555 -2.8418,-0.893555 -2.84179,0 -2.84179,4.262695 z m 5.85937,-12.949219 h 0.17578 v 0.351562 h -0.17578 z m -1.77246,0.175781 h 0.17578 l -0.35156,0.351563 h -0.17578 z m 4.61426,0.703125 0.17578,0.19043 v 0.351562 l -1.24512,-0.351562 -1.06933,0.175781 v 1.59668 h 0.54199 v -0.366211 h 0.52734 l 1.06934,1.069336 q 0.46875,0 1.05468,-1.245117 -0.46875,-1.420899 -0.8789,-1.420899 z m -3.36914,0.366211 h 0.17578 v 0.351563 h -0.17578 z m -0.542,1.772461 0.35157,0.351562 h 0.36621 V 86.875 Z m 3.54493,1.59668 v 0.175781 h 0.71777 V 88.47168 Z m 0.89355,0.351562 v 0.175781 h 0.35156 v -0.175781 z m -3.19336,0.703125 -0.17578,0.541992 h 0.35156 v -0.541992 z m 0.89356,0 -0.19043,0.717774 q 0.36621,0 0.36621,-0.527344 v -0.19043 z m -3.19336,6.577149 h 0.35156 v 0.351562 h -0.35156 z" />
      <path
         id="path38"
         style="font-family:Manenschijn_02"
         d="m 292.04102,83.051758 h 1.52343 q 4.55567,0 5.58106,4.892578 l 0.16113,1.699219 q 0,3.779297 -0.84961,7.763672 l 0.17578,0.175781 q -1.27441,2.021484 -3.04687,2.021484 l -1.34766,-0.336914 q -1.09863,0.512695 -2.70996,0.512695 -4.16016,0 -5.56641,-3.544921 Q 285.625,95.576172 285.625,94.375 v -0.512695 q 0,-2.06543 1.50879,-3.720703 -1.17188,-1.274415 -1.17188,-2.871094 0,-3.574219 6.07911,-4.21875 z m -6.54786,4.321289 q 0,1.420898 1.18653,2.53418 h 0.16113 q 1.56738,-1.274415 3.89648,-1.523438 v 0.336914 q -1.99218,0 -3.7207,1.523438 h 0.5127 v 0.336914 l -0.84961,-0.175782 q -1.52344,1.860352 -1.52344,3.383789 v 0.336915 q 0,4.833984 5.58105,5.405273 1.68457,0 2.19727,-0.498047 l -0.5127,-1.186523 -1.18652,0.175781 h -0.83496 Q 287.0166,97.1875 287.0166,95.136719 v -0.498047 q 0.27832,0 1.18652,-2.197266 1.21583,-0.849609 1.86036,-0.849609 0,0.512695 0.83496,0.512695 l 0.17578,-0.175781 v -0.161133 l 2.02148,0.336914 h 1.01075 l 1.69921,-1.699219 v -1.171875 l -0.17578,-1.186523 q 0.41016,0 1.36231,5.244141 l 0.49804,0.498046 q 0.5127,-1.201171 0.5127,-4.21875 v -0.849609 q 0,-3.691406 -4.05762,-5.068359 l -1.86035,-0.175782 h -0.51269 q -5.18555,0 -6.07911,3.896485 z m 9.59473,-1.289063 0.83496,0.84961 v 0.175781 q -0.76172,-0.673828 -1.17187,-0.673828 z m -6.25488,0.512696 h 0.33691 v 0.336914 h -0.33691 z m 0.67383,0.512695 h 0.33691 v 0.336914 z m 2.53418,1.010742 h 1.68457 v 0.336914 h -1.68457 z m 2.53418,0 h 0.17578 l 0.33691,0.336914 -2.53418,2.373047 h -0.17578 l 0.17578,-0.175781 v -1.010742 l -0.17578,-0.175782 v -0.161132 l 0.67383,-0.512696 0.17578,0.175782 v 0.161132 l -0.33692,0.512696 v 0.498047 q 1.68458,-1.274415 1.68458,-2.021485 z m -2.70997,1.186524 v 0.336914 l -2.35839,0.834961 v -0.336914 z m 4.73145,2.197265 v 0.673828 h -0.33691 V 91.84082 l -1.17188,1.010742 0.16113,0.84961 v 0.834961 l -0.33691,0.512695 v 0.161133 l 1.34766,1.186523 h -0.33692 v 0.336914 l 1.02539,-0.336914 v -0.498047 h 0.33692 q 0.24902,1.50879 0.67382,1.50879 v -0.161133 q -0.67382,-1.435547 -0.67382,-2.197266 h -0.17579 v 0.512695 h -0.33691 v -0.175781 l -0.33691,-2.709961 h 0.33691 v -1.171875 z m -6.24023,0.834961 0.16113,0.175781 v 0.336914 q -1.52344,0 -1.86035,2.197266 0,1.611328 2.53418,2.021484 2.22656,0 2.70996,-2.197265 0,-0.864258 -0.5127,-1.010742 h -0.67383 L 292.04102,94.375 291.7041,94.038086 v -0.336914 q 0.84961,0 0.84961,-0.336914 -0.4248,-1.025391 -1.52344,-1.025391 z m 2.19726,0.175781 v 0.161133 h 0.49805 v -0.161133 z m 0.49805,0.512696 h -0.16114 v 0.336914 h 1.17188 q 0.39551,0 0.5127,0.834961 h 0.17578 l 0.16113,-1.171875 -0.16113,-0.175782 h -0.17578 z m 3.20801,3.706054 v 0.175782 l 1.02539,0.336914 v -0.175782 l -0.33692,-0.336914 z m -1.01075,0.175782 v 0.336914 h 0.33692 V 96.90918 Z m 0.5127,0.161132 v 0.336915 h 0.49805 l -0.33692,-0.336915 z m 0.83496,0.336915 v 0.175781 h 0.35156 v -0.175781 z m 0.84961,0 -0.16113,0.512695 h 0.16113 l 0.33691,-0.336914 -0.16113,-0.175781 z m -3.38379,0.351562 v 0.336914 l 0.17578,0.161133 h 0.17578 l -0.17578,-0.498047 z m -0.49805,0.161133 v 0.336914 l 0.49805,0.336914 v -0.161133 q -0.33691,0 -0.33691,-0.512695 z" />
      <path
         id="path40"
         style="font-family:Manenschijn_02"
         d="m 308.13965,82.597656 h 0.33691 v 0.336914 h -0.33691 z m 2.21191,0 h 0.17578 q 3.73536,0 5.44922,4.951172 l 0.17578,1.875 q 0,3.852539 -1.02539,8.012695 -1.02539,-0.205078 -1.02539,-2.90039 h -0.16113 v 1.201172 h -0.35156 v -0.175782 q 0,-8.862304 -1.875,-8.862304 0,-0.351563 -1.02539,-0.351563 h -0.16114 v 0.175781 q 1.4502,0 1.875,3.076172 l -0.68847,7.836914 0.17578,0.175782 h 0.16113 l 0.17578,-0.175782 q 0,0.688477 2.22656,0.688477 l 0.49805,-0.512695 v 0.336914 q -0.84961,1.713867 -2.03613,1.713867 h -0.17578 v -0.351563 h -0.5127 q -2.56347,0 -2.56347,-3.75 l -0.33692,-5.800781 h -0.17578 l -0.49805,0.512695 v 7.001954 Q 308.65234,100 305.23926,100 h -0.17578 q -3.41309,0 -3.41309,-2.900391 V 86.523437 q 0,-3.413085 3.41309,-3.413085 l 2.21191,0.336914 q 0.61523,-0.336914 3.92578,-0.336914 V 82.93457 h -0.84961 z m 1.02539,0.512696 v 0.175781 h 0.33692 v -0.175781 z m -9.38965,3.076171 v 10.737305 q 0.35157,2.739258 2.73926,2.739258 h 0.84961 q 2.72461,0 2.72461,-2.563477 v -6.313476 l -0.16113,0.175781 h -0.35156 v -0.175781 q 0.30761,-1.362305 0.68847,-1.362305 l 0.17578,0.175781 0.84961,-0.512695 q 0.30762,0.615234 0.67383,8.525391 0.68848,1.186523 1.37695,1.186523 h 0.16114 v -0.161133 q -1.36231,0 -1.36231,-2.563476 h 0.17578 q 0.67383,-1.508789 1.02539,-6.987305 -0.57128,-2.226562 -2.22656,-2.226562 h -1.02539 v 0.336914 l 0.17578,0.175781 v 0.175781 h -0.33691 l -0.86426,-0.175781 q 0,0.27832 -1.69922,1.362305 -0.33691,1.098632 -0.84961,7.338867 l 0.5127,-0.336914 0.67383,0.849609 v 0.175781 h -0.33692 q 0,-0.688476 -0.51269,-0.688476 l -0.33692,0.849609 H 304.375 q 0.35156,-8.862305 1.02539,-8.862305 v -0.175781 l -0.16113,-0.175781 v -0.161133 h 0.33691 l 0.5127,0.161133 q 0,-1.040039 4.08691,-1.875 2.68067,0 3.76465,3.413086 0,1.098633 0.84961,3.925781 0.67383,0 0.67383,-4.086914 -0.74707,-5.639648 -5.44922,-5.639648 h -0.35156 l -2.21192,0.351562 0.33692,0.849609 q -0.5127,-0.512695 -1.18653,-0.512695 l 0.16114,-0.175781 v -0.161133 l -1.875,-0.351562 q -2.9004,0.292968 -2.9004,2.739257 z m 4.10157,-1.889648 h 0.33691 v 0.175781 h -0.33691 z m -0.5127,0.351562 h 0.33692 v 0.161133 h -0.33692 z m -0.33691,0.336915 h 0.16113 l -0.84961,0.849609 v -0.161133 z m 2.72461,0 0.33691,0.336914 v 0.351562 h -0.33691 z m -3.41309,1.02539 h 0.33692 q 1.20117,0.410156 1.20117,0.688477 h -0.33692 l -0.17578,-0.175782 -0.68847,0.336915 z m 4.59961,10.063477 h 0.35156 v 0.336914 h -0.35156 z m 1.71387,1.02539 v 0.512696 h 0.17578 v -0.512696 z m -1.53809,0.336914 h 0.33692 l 0.35156,1.201172 q -0.4541,0 -0.68848,-1.201172 z m 0.68848,1.201172 0.33691,0.336914 h -0.33691 z m 0.33691,0.336914 h 0.17578 l 1.02539,0.336914 v 0.351563 q -0.92285,0 -1.20117,-0.688477 z m 2.72461,0.175782 v 0.161132 h 0.35156 v -0.161132 z" />
      <path
         id="path42"
         style="font-family:Manenschijn_02"
         d="m 326.80176,83.330078 q 2.57812,0 4.99511,2.329102 v -0.161133 l -1.333,-1.333008 h 0.17578 q 2.66601,1.948242 2.66601,4.335938 v 1.992187 l -0.33691,1.010742 0.16113,0.834961 -0.65918,1.157227 q 0.46875,0 0.9961,2.006836 0,4.49707 -6.50391,4.49707 h -0.49805 q -7.5,-0.791016 -7.5,-7.5 v -1.494141 q 0,-5.566406 5.66895,-7.514648 z m -7.5,8.173828 v 0.65918 q 0,4.863281 4.16015,6.84082 1.36231,0.65918 3.16407,0.65918 h 0.51269 q 4.89258,0 5.83008,-3.00293 v -0.996094 q 0,-1.30371 -0.83496,-1.992187 -0.64453,0.498047 -2.16797,0.65918 v -0.336914 l 1.66992,-0.322266 v -0.175781 h -0.17578 q -2.05078,0.673828 -7.82226,0.673828 v 0.161133 q 0.8789,2.504882 4.49707,2.504882 l 1.66992,-0.175781 -0.67383,-1.157226 0.17578,-0.175782 h 0.16113 l 0.16114,0.175782 h 0.17578 l -0.17578,0.161132 v 0.175782 q 0,0.498047 1.17187,0.498047 v 0.161132 q 0,0.498047 -3.33984,0.834961 -4.83399,-0.527343 -4.83399,-4.335937 -0.16113,-1.333008 -0.99609,-2.666016 0.33691,-3.867187 1.83105,-4.49707 l 0.17579,0.161133 4.49707,-0.336914 q 1.28906,0 3.50097,1.669922 h 0.16113 q 0,-2.622071 -5.33203,-3.66211 -6.37207,0 -7.16308,7.836914 z m 10.66406,-7.675781 h 0.33691 v 0.175781 h -0.33691 z m -7.66113,5.332031 q 0.33691,2.167969 1.33301,2.167969 1.49414,-0.541992 1.49414,-0.834961 l -1.83106,-2.167969 h 0.49805 q 0,0.512696 1.66992,1.845703 h 0.16113 q 0,-0.629882 0.67383,-1.171875 l 0.16113,0.161133 h 0.16114 q 1.333,-0.292969 1.333,-0.996094 V 88.00293 h -0.16113 v 0.322265 h -0.33691 q 0,-1.567383 -2.66602,-1.992187 -2.03613,0 -2.49023,2.827148 z m 5.49316,-2.666015 1.17188,1.831054 v 0.175782 h -0.49805 V 88.00293 h -0.17578 q 0,1.127929 -1.15723,1.49414 l -0.17578,0.673828 0.83496,0.161133 h 0.49805 v 0.336914 q -1.78711,0.117188 -2.16797,0.498047 l -0.16113,-0.161133 h -0.16114 l -0.67382,0.161133 v 0.336914 h 0.16113 l 5.84473,0.65918 q 0.83496,-0.27832 0.83496,-0.834961 -0.83496,-1.479492 -1.33301,-3.325195 -1.46485,-1.508789 -2.8418,-1.508789 z m -3.50098,1.831054 h 0.67383 v 0.336914 h -0.67383 z m 0.9961,0.175782 h 0.17578 l 0.33691,0.336914 h -0.51269 z m -1.83106,3.83789 v 1.333008 l 1.33301,-1.333008 v -0.175781 h -0.16113 z m 0.49805,1.494141 h 2.00684 Q 325.46875,93.393555 325.46875,92.5 h -0.17578 z M 325.80566,92.5 v 0.65918 l 0.32227,0.336914 0.67383,0.175781 0.16113,-0.175781 h 1.17188 q 0,-0.336914 0.65918,-0.336914 0,-0.439453 -2.98829,-0.65918 z m 3.3252,0.834961 v 0.161133 h 1.33301 v -0.161133 l -0.49805,-0.175781 z" />
      <path
         id="path44"
         style="font-family:Manenschijn_02"
         d="m 342.43164,83.051758 h 1.52344 q 4.55566,0 5.58105,4.892578 l 0.16114,1.699219 q 0,3.779297 -0.84961,7.763672 l 0.17578,0.175781 q -1.27442,2.021484 -3.04688,2.021484 l -1.34765,-0.336914 q -1.09864,0.512695 -2.70996,0.512695 -4.16016,0 -5.56641,-3.544921 -0.33692,-0.65918 -0.33692,-1.860352 v -0.512695 q 0,-2.06543 1.50879,-3.720703 -1.17187,-1.274415 -1.17187,-2.871094 0,-3.574219 6.0791,-4.21875 z m -6.54785,4.321289 q 0,1.420898 1.18652,2.53418 h 0.16114 q 1.56738,-1.274415 3.89648,-1.523438 v 0.336914 q -1.99219,0 -3.7207,1.523438 h 0.51269 v 0.336914 l -0.84961,-0.175782 q -1.52344,1.860352 -1.52344,3.383789 v 0.336915 q 0,4.833984 5.58106,5.405273 1.68457,0 2.19727,-0.498047 l -0.5127,-1.186523 -1.18652,0.175781 h -0.83496 q -3.38379,-0.834961 -3.38379,-2.885742 v -0.498047 q 0.27832,0 1.18652,-2.197266 1.21582,-0.849609 1.86035,-0.849609 0,0.512695 0.83496,0.512695 l 0.17578,-0.175781 v -0.161133 l 2.02149,0.336914 h 1.01074 l 1.69922,-1.699219 v -1.171875 l -0.17578,-1.186523 q 0.41015,0 1.3623,5.244141 l 0.49805,0.498046 q 0.51269,-1.201171 0.51269,-4.21875 v -0.849609 q 0,-3.691406 -4.05761,-5.068359 l -1.86035,-0.175782 h -0.5127 q -5.18555,0 -6.0791,3.896485 z m 9.59473,-1.289063 0.83496,0.84961 v 0.175781 q -0.76172,-0.673828 -1.17188,-0.673828 z m -6.25489,0.512696 h 0.33692 v 0.336914 h -0.33692 z m 0.67383,0.512695 h 0.33691 v 0.336914 z m 2.53418,1.010742 h 1.68457 v 0.336914 h -1.68457 z m 2.53418,0 h 0.17578 l 0.33692,0.336914 -2.53418,2.373047 h -0.17579 l 0.17579,-0.175781 v -1.010742 l -0.17579,-0.175782 v -0.161132 l 0.67383,-0.512696 0.17578,0.175782 v 0.161132 l -0.33691,0.512696 v 0.498047 q 1.68457,-1.274415 1.68457,-2.021485 z m -2.70996,1.186524 v 0.336914 l -2.3584,0.834961 v -0.336914 z m 4.73144,2.197265 v 0.673828 h -0.33691 V 91.84082 l -1.17187,1.010742 0.16113,0.84961 v 0.834961 l -0.33692,0.512695 v 0.161133 l 1.34766,1.186523 h -0.33691 v 0.336914 l 1.02539,-0.336914 v -0.498047 h 0.33691 q 0.24902,1.50879 0.67383,1.50879 v -0.161133 q -0.67383,-1.435547 -0.67383,-2.197266 H 347.5 v 0.512695 h -0.33691 v -0.175781 l -0.33692,-2.709961 h 0.33692 v -1.171875 z m -6.24023,0.834961 0.16113,0.175781 v 0.336914 q -1.52343,0 -1.86035,2.197266 0,1.611328 2.53418,2.021484 2.22656,0 2.70996,-2.197265 0,-0.864258 -0.51269,-1.010742 h -0.67383 l -0.67383,0.512695 -0.33691,-0.336914 v -0.336914 q 0.84961,0 0.84961,-0.336914 -0.42481,-1.025391 -1.52344,-1.025391 z m 2.19727,0.175781 v 0.161133 h 0.49804 v -0.161133 z m 0.49804,0.512696 h -0.16113 v 0.336914 h 1.17187 q 0.39551,0 0.5127,0.834961 h 0.17578 l 0.16113,-1.171875 -0.16113,-0.175782 h -0.17578 z m 3.20801,3.706054 v 0.175782 l 1.02539,0.336914 v -0.175782 l -0.33691,-0.336914 z m -1.01074,0.175782 v 0.336914 h 0.33691 V 96.90918 Z m 0.51269,0.161132 v 0.336915 h 0.49805 l -0.33691,-0.336915 z m 0.83496,0.336915 v 0.175781 h 0.35157 v -0.175781 z m 0.84961,0 -0.16113,0.512695 h 0.16113 l 0.33692,-0.336914 -0.16113,-0.175781 z m -3.38379,0.351562 v 0.336914 l 0.17579,0.161133 h 0.17578 l -0.17578,-0.498047 z m -0.49804,0.161133 v 0.336914 l 0.49804,0.336914 v -0.161133 q -0.33691,0 -0.33691,-0.512695 z" />
    </g>
  </g>
</svg>
