<?xml version="1.0" encoding="UTF-8" standalone="no"?>
<svg
   xmlns:dc="http://purl.org/dc/elements/1.1/"
   xmlns:cc="http://creativecommons.org/ns#"
   xmlns:rdf="http://www.w3.org/1999/02/22-rdf-syntax-ns#"
   xmlns:svg="http://www.w3.org/2000/svg"
   xmlns="http://www.w3.org/2000/svg"
   id="svg10"
   width="500px"
   version="1.1"
   height="200px">
  <metadata
     id="metadata14">
    <rdf:RDF>
      <cc:Work
         rdf:about="">
        <dc:format>image/svg+xml</dc:format>
        <dc:type
           rdf:resource="http://purl.org/dc/dcmitype/StillImage" />
      </cc:Work>
    </rdf:RDF>
  </metadata>
  <defs
     id="defs4">
    <style
       id="style2"
       type="text/css"><![CDATA[    
     @font-face {font-family:Matt Rostine;
     src: url('/Users/francesco/Repos/write-logos/src/fonts//Matt_Rostine.ttf');}]]></style>
  </defs>
  <g
     id="g8"
     style="font-size:30px;font-family:'Matt Rostine'">
    <g
       style=""
       id="text6"
       aria-label="eXtemporanea">
      <path
         id="path16"
         style=""
         d="m 105.82,95.2 q 0.06,-0.03 0.15,0 0.12,0 0.18,0.06 0.09,0.06 0.09,0.12 0.03,0.06 -0.09,0.12 -1.41,0.66 -2.94,1.17 -0.33,0.09 -0.75,0.24 -0.42,0.12 -0.87,0.21 -0.42,0.06 -0.84,0.06 -0.42,-0.03 -0.75,-0.21 -0.3,-0.18 -0.39,-0.45 -0.09,-0.27 -0.03,-0.54 0.06,-0.3 0.21,-0.6 0.12,-0.3 0.27,-0.51 0.09,-0.12 0.27,-0.33 0.21,-0.24 0.42,-0.39 0.24,-0.15 0.48,-0.15 0.24,0 0.39,0.27 0.09,0.18 0,0.48 -0.09,0.27 -0.27,0.54 -0.18,0.27 -0.42,0.48 -0.21,0.21 -0.39,0.24 -0.21,0.06 -0.33,-0.15 -0.12,0.33 -0.09,0.63 0.06,0.27 0.39,0.33 0.42,0.09 0.9,-0.03 0.48,-0.12 0.87,-0.21 0.9,-0.24 1.68,-0.54 1.02,-0.39 1.86,-0.81 z m -4.98,-0.54 q -0.12,0.15 -0.3,0.42 -0.15,0.27 -0.3,0.6 0.03,0 0.03,0 0,-0.03 0.03,-0.03 0.21,-0.06 0.42,-0.42 0.24,-0.39 0.3,-0.57 0.03,-0.03 0.03,-0.06 0.03,-0.06 0.06,-0.12 -0.18,0.12 -0.24,0.21 z" />
      <path
         id="path18"
         style=""
         d="m 123.355,84.04 q 0,-0.12 0.27,-0.09 0.27,0.03 0.27,0.18 0,0.21 -0.18,0.42 -0.18,0.18 -0.3,0.33 -0.33,0.33 -0.66,0.66 -0.33,0.3 -0.66,0.63 -2.04,1.98 -4.14,3.87 -2.07,1.86 -4.14,3.81 0.03,0.51 0.03,0.99 0.03,0.48 0.09,0.99 0.09,1.17 0.24,2.34 0.18,1.17 0.57,2.28 0.09,0.3 0.24,0.66 0.15,0.36 0.36,0.66 0.24,0.33 0.51,0.54 0.3,0.24 0.69,0.24 0.21,0 0.3,0.15 0.09,0.15 -0.21,0.15 -0.96,-0.03 -1.53,-0.69 -0.54,-0.66 -0.87,-1.44 -0.42,-1.14 -0.6,-2.34 -0.18,-1.2 -0.27,-2.4 -0.03,-0.42 -0.03,-0.81 0,-0.39 -0.03,-0.81 -1.08,1.05 -2.16,2.1 -1.05,1.02 -2.1,2.1 -0.87,0.9 -1.68,1.83 -0.81,0.93 -1.5,1.98 -0.03,0.06 -0.15,0.03 -0.09,0 -0.18,-0.03 -0.12,-0.03 -0.18,-0.09 -0.06,-0.03 -0.03,-0.09 0.78,-1.2 1.74,-2.25 0.96,-1.08 1.95,-2.1 1.05,-1.05 2.1,-2.07 1.08,-1.05 2.16,-2.07 -0.03,-0.93 -0.06,-1.83 0,-0.93 0.03,-1.86 0.06,-2.22 0.21,-4.41 0.15,-2.19 0.15,-4.41 0,-0.15 0.27,-0.09 0.27,0.03 0.27,0.18 0,0.93 -0.06,1.86 -0.06,0.9 -0.12,1.83 -0.12,2.04 -0.21,4.08 -0.06,2.01 0,4.08 l 4.41,-4.05 q 0.93,-0.84 1.83,-1.65 0.93,-0.84 1.8,-1.71 0.3,-0.27 0.57,-0.54 0.3,-0.27 0.57,-0.57 0.12,-0.12 0.27,-0.27 0.15,-0.18 0.15,-0.36 z" />
      <path
         id="path20"
         style=""
         d="m 130.2325,89.8 q 0.18,0.15 -0.06,0.21 -0.24,0.03 -0.36,-0.06 -0.18,-0.15 -0.45,-0.18 -0.24,-0.06 -0.48,-0.09 -0.42,-0.03 -0.87,0 -0.42,0 -0.84,0.06 -1.68,0.15 -3.33,0.45 -1.62,0.27 -3.27,0.6 -0.06,0.06 -0.12,0.15 -0.03,0.06 -0.09,0.12 -0.51,1.02 -1.02,2.04 -0.48,0.99 -0.93,2.04 -0.66,1.44 -1.23,2.91 -0.6,1.44 -1.02,2.97 -0.15,0.57 -0.27,1.11 -0.12,0.57 -0.18,1.14 -0.03,0.33 0,0.72 0,0.39 0.21,0.69 0.09,0.15 -0.18,0.12 -0.27,0 -0.33,-0.09 -0.27,-0.36 -0.27,-0.84 -0.03,-0.48 0.03,-0.9 0.09,-0.78 0.3,-1.53 0.21,-0.72 0.45,-1.44 0.78,-2.34 1.77,-4.62 0.99,-2.28 2.13,-4.5 -0.18,0.03 -0.36,0.06 -0.18,0.03 -0.36,0.06 -0.84,0.15 -1.65,0.3 -0.84,0.15 -1.71,0.24 -0.36,0.06 -0.87,0.09 -0.54,0.03 -0.87,-0.24 -0.18,-0.15 0.06,-0.18 0.24,-0.06 0.36,0.03 0,0.03 0.03,0.03 h 0.15 q 0.15,0.03 0.27,0.03 0.12,0 0.27,0 0.42,-0.03 0.81,-0.09 0.36,-0.06 0.75,-0.12 0.84,-0.15 1.65,-0.3 0.84,-0.15 1.68,-0.3 0.42,-0.78 0.84,-1.53 0.42,-0.75 0.84,-1.5 0.27,-0.45 0.54,-0.9 0.27,-0.48 0.6,-0.9 0.15,-0.21 0.3,-0.42 0.18,-0.21 0.45,-0.21 0.33,0 0.39,0.18 0.09,0.18 0.03,0.42 -0.06,0.24 -0.18,0.48 -0.12,0.24 -0.21,0.39 -0.6,1.02 -1.29,1.98 -0.69,0.93 -1.41,1.86 0.96,-0.18 1.89,-0.36 0.93,-0.18 1.89,-0.33 0.87,-0.15 1.74,-0.24 0.9,-0.12 1.77,-0.15 0.48,0 1.05,0.06 0.6,0.03 0.99,0.39 z m -6.93,-3.87 q -0.45,0.57 -0.84,1.2 -0.36,0.63 -0.69,1.29 0.36,-0.51 0.69,-1.02 0.33,-0.51 0.63,-1.05 0.06,-0.12 0.09,-0.21 0.06,-0.12 0.12,-0.24 z" />
      <path
         id="path22"
         style=""
         d="m 125.33172,95.2 q 0.06,-0.03 0.15,0 0.12,0 0.18,0.06 0.09,0.06 0.09,0.12 0.03,0.06 -0.09,0.12 -1.41,0.66 -2.94,1.17 -0.33,0.09 -0.75,0.24 -0.42,0.12 -0.87,0.21 -0.42,0.06 -0.84,0.06 -0.42,-0.03 -0.75,-0.21 -0.3,-0.18 -0.39,-0.45 -0.09,-0.27 -0.03,-0.54 0.06,-0.3 0.21,-0.6 0.12,-0.3 0.27,-0.51 0.09,-0.12 0.27,-0.33 0.21,-0.24 0.42,-0.39 0.24,-0.15 0.48,-0.15 0.24,0 0.39,0.27 0.09,0.18 0,0.48 -0.09,0.27 -0.27,0.54 -0.18,0.27 -0.42,0.48 -0.21,0.21 -0.39,0.24 -0.21,0.06 -0.33,-0.15 -0.12,0.33 -0.09,0.63 0.06,0.27 0.39,0.33 0.42,0.09 0.9,-0.03 0.48,-0.12 0.87,-0.21 0.9,-0.24 1.68,-0.54 1.02,-0.39 1.86,-0.81 z m -4.98,-0.54 q -0.12,0.15 -0.3,0.42 -0.15,0.27 -0.3,0.6 0.03,0 0.03,0 0,-0.03 0.03,-0.03 0.21,-0.06 0.42,-0.42 0.24,-0.39 0.3,-0.57 0.03,-0.03 0.03,-0.06 0.03,-0.06 0.06,-0.12 -0.18,0.12 -0.24,0.21 z" />
      <path
         id="path24"
         style=""
         d="m 138.38969,95.29 q 0.15,-0.09 0.39,0.03 0.24,0.09 0.06,0.21 -0.54,0.33 -1.14,0.57 -0.6,0.24 -1.2,0.39 -0.78,0.21 -1.68,0.3 -0.9,0.06 -1.62,-0.39 -0.24,-0.15 -0.42,-0.33 -0.15,-0.21 -0.36,-0.39 -0.27,-0.24 -0.57,-0.24 -0.3,0 -0.63,0.06 -0.42,0.06 -0.84,0.18 -0.39,0.12 -0.81,0.24 -0.18,0.06 -0.42,0.12 -0.21,0.06 -0.39,0 -0.18,-0.06 -0.21,-0.18 -0.03,-0.12 0.03,-0.27 0.03,-0.12 0.06,-0.21 0.06,-0.12 0.09,-0.24 v -0.12 q -0.12,0.06 -0.24,0.15 -0.12,0.06 -0.21,0.12 l -0.9,0.63 q -0.48,0.33 -0.93,0.66 -0.45,0.33 -0.93,0.66 -0.09,0.06 -0.24,0.15 -0.15,0.09 -0.3,0.15 -0.15,0.06 -0.3,0.09 -0.15,0 -0.27,-0.12 -0.12,-0.12 -0.06,-0.3 0.03,-0.21 0.12,-0.42 0.09,-0.24 0.21,-0.45 0.12,-0.21 0.18,-0.3 0.24,-0.51 0.54,-1.02 0.27,-0.51 0.66,-0.93 0.12,-0.12 0.39,-0.03 0.27,0.09 0.15,0.24 -0.42,0.42 -0.72,0.99 -0.3,0.57 -0.57,1.08 -0.06,0.15 -0.12,0.3 -0.09,0.12 -0.15,0.27 v 0.12 q 0.84,-0.54 1.62,-1.17 0.78,-0.63 1.65,-1.11 0.21,-0.12 0.51,-0.18 0.3,-0.06 0.45,0.24 0.09,0.18 0.03,0.39 -0.06,0.21 -0.12,0.36 v 0.09 h 0.06 q 0.66,-0.18 1.35,-0.39 0.69,-0.21 1.38,-0.15 0.48,0.06 0.75,0.33 0.27,0.24 0.6,0.57 0.3,0.3 0.72,0.39 0.45,0.09 0.9,0.06 0.45,-0.03 0.9,-0.15 0.45,-0.12 0.81,-0.24 0.45,-0.15 0.87,-0.33 0.45,-0.18 0.87,-0.42 z" />
      <path
         id="path26"
         style=""
         d="m 140.93594,93.79 q 0.18,0.21 0.21,0.48 0.06,0.27 0.03,0.57 -0.03,0.3 -0.12,0.6 -0.09,0.27 -0.18,0.48 -0.27,0.69 -0.78,1.26 -0.51,0.57 -1.23,0.81 -0.24,0.06 -0.63,0.09 -0.36,0.03 -0.66,-0.06 l -0.45,1.53 q -0.27,0.87 -0.54,1.74 -0.3,0.9 -0.57,1.77 -0.15,0.48 -0.3,0.96 -0.18,0.51 -0.21,1.02 0,0.15 -0.27,0.09 -0.27,-0.03 -0.27,-0.18 0.03,-0.51 0.21,-1.02 0.15,-0.48 0.3,-0.96 0.27,-0.87 0.57,-1.77 0.27,-0.87 0.54,-1.74 0.3,-0.87 0.6,-1.74 0.27,-0.9 0.54,-1.77 0.15,-0.51 0.33,-1.05 0.15,-0.54 0.15,-1.05 0,-0.15 0.27,-0.09 0.27,0.03 0.27,0.18 0,0.45 -0.15,0.99 0.15,-0.21 0.27,-0.39 0.15,-0.21 0.3,-0.39 0.15,-0.18 0.39,-0.36 0.24,-0.18 0.48,-0.27 0.27,-0.09 0.51,-0.06 0.27,0.03 0.48,0.27 z m -1.17,2.91 q 0.39,-0.48 0.63,-1.11 0.24,-0.63 0.18,-1.26 0,-0.27 -0.09,-0.45 -0.06,-0.12 -0.09,-0.12 0,0 -0.12,0.06 -0.33,0.12 -0.6,0.45 -0.27,0.3 -0.48,0.6 -0.42,0.57 -0.84,1.32 -0.42,0.72 -0.45,1.47 0,0.09 -0.18,0.09 0,0.06 0.03,0.09 0.09,0.09 0.42,0 0.36,-0.12 0.48,-0.18 0.66,-0.27 1.14,-0.9 z" />
      <path
         id="path28"
         style=""
         d="m 148.49453,94 q 0.12,-0.09 0.36,0 0.27,0.09 0.18,0.18 -0.36,0.33 -0.9,0.48 -0.51,0.12 -0.96,0.21 -0.69,0.15 -1.35,0.21 -0.66,0.06 -1.35,0.12 -0.33,0.51 -0.84,0.96 -0.27,0.24 -0.6,0.51 -0.3,0.27 -0.66,0.39 -0.33,0.12 -0.63,0.03 -0.33,-0.12 -0.42,-0.45 -0.06,-0.27 0.06,-0.72 0.12,-0.45 0.45,-0.51 0.12,-0.03 0.33,0.12 0.21,0.12 0,0.15 -0.15,0.03 -0.24,0.27 -0.06,0.24 -0.09,0.39 0,0.3 0.06,0.42 0.06,0.15 0.03,0.15 -0.03,-0.03 0.03,-0.03 0.12,0 0.27,-0.09 0.18,-0.09 0.33,-0.21 0.15,-0.15 0.27,-0.27 0.15,-0.15 0.24,-0.24 0.36,-0.36 0.69,-0.78 -0.33,0.03 -0.69,0.03 -0.33,0 -0.66,-0.06 -0.42,-0.09 -0.48,-0.33 -0.06,-0.24 0.33,-0.48 0.18,-0.12 0.66,-0.27 0.51,-0.15 0.99,-0.18 0.48,-0.03 0.75,0.15 0.3,0.15 0.06,0.66 l -0.09,0.09 h 0.36 q 0.51,-0.06 1.02,-0.12 0.54,-0.06 1.05,-0.18 0.33,-0.06 0.72,-0.15 0.39,-0.12 0.66,-0.36 z m -4.47,0.87 q 0.06,-0.09 0.15,-0.24 0.12,-0.15 0.09,-0.3 v -0.12 q -0.06,-0.06 -0.42,0.03 -0.33,0.06 -0.39,0.09 -0.15,0.06 -0.54,0.21 -0.39,0.12 -0.45,0.33 -0.03,0.15 0.24,0.15 0.3,-0.03 0.45,-0.03 0.24,0 0.42,0 0.21,-0.03 0.45,-0.06 0,-0.03 0,-0.03 0.03,-0.03 0.03,-0.06 z" />
      <path
         id="path30"
         style=""
         d="m 151.79125,96.04 q 0.6,-0.18 1.26,-0.36 0.66,-0.21 1.32,-0.18 -0.03,0.12 -0.03,0.36 -0.15,0 -0.27,0.03 -0.12,0 -0.27,0.03 -0.42,0.06 -0.84,0.18 -0.39,0.12 -0.81,0.24 -0.18,0.06 -0.42,0.12 -0.21,0.06 -0.39,0 -0.18,-0.06 -0.21,-0.18 -0.03,-0.12 0.03,-0.27 0.03,-0.12 0.06,-0.21 0.06,-0.12 0.09,-0.24 v -0.12 q -0.12,0.06 -0.24,0.15 -0.12,0.06 -0.21,0.12 l -0.9,0.63 q -0.48,0.33 -0.93,0.66 -0.45,0.33 -0.93,0.66 -0.09,0.06 -0.24,0.18 -0.15,0.09 -0.3,0.15 -0.15,0.06 -0.3,0.09 -0.15,0 -0.27,-0.12 -0.12,-0.12 -0.06,-0.3 0.03,-0.21 0.12,-0.42 0.09,-0.24 0.21,-0.45 0.12,-0.21 0.18,-0.3 0.24,-0.51 0.54,-1.02 0.27,-0.51 0.66,-0.93 0.12,-0.12 0.39,-0.03 0.27,0.09 0.15,0.24 -0.42,0.42 -0.72,0.99 -0.3,0.57 -0.57,1.08 -0.06,0.15 -0.12,0.3 -0.09,0.12 -0.15,0.27 v 0.12 q 0.84,-0.54 1.62,-1.17 0.78,-0.63 1.65,-1.11 0.21,-0.12 0.51,-0.18 0.3,-0.06 0.45,0.24 0.09,0.18 0.03,0.39 -0.06,0.21 -0.12,0.36 v 0.09 h 0.06 z" />
      <path
         id="path32"
         style=""
         d="m 163.50625,95.05 q 0.12,-0.03 0.36,0.06 0.24,0.09 0.12,0.15 -1.11,0.51 -2.28,0.93 -1.14,0.42 -2.34,0.69 -0.36,0.09 -0.87,0.15 -0.51,0.06 -1.05,0.03 -0.51,-0.03 -0.96,-0.21 -0.42,-0.18 -0.6,-0.6 -0.3,0.3 -0.6,0.6 -0.3,0.27 -0.63,0.51 -0.09,0.06 -0.27,0.18 -0.18,0.09 -0.39,0.15 -0.18,0.03 -0.33,0 -0.18,-0.03 -0.21,-0.27 -0.06,-0.24 0.12,-0.51 0.15,-0.27 0.27,-0.45 0.15,-0.27 0.36,-0.54 0.21,-0.27 0.45,-0.48 0.3,-0.24 0.69,-0.21 0.39,0 0.63,0.33 0.12,0 0.21,0.06 0.12,0.03 0.12,0.09 0,0.63 0.45,0.87 0.45,0.21 1.14,0.18 0.72,-0.06 1.56,-0.3 0.87,-0.24 1.68,-0.51 0.81,-0.3 1.44,-0.57 0.63,-0.3 0.93,-0.42 z m -8.58,1.47 0.63,-0.63 q -0.09,-0.42 -0.42,-0.18 -0.15,0.15 -0.3,0.33 -0.12,0.15 -0.24,0.3 -0.15,0.18 -0.27,0.39 -0.12,0.18 -0.21,0.39 l -0.09,0.18 0.27,-0.18 q 0.18,-0.15 0.33,-0.3 0.18,-0.18 0.33,-0.33 z" />
      <path
         id="path34"
         style=""
         d="m 172.72562,95.11 q 0.09,-0.06 0.33,0.03 0.24,0.09 0.12,0.21 -0.69,0.54 -1.47,0.99 -0.78,0.45 -1.62,0.78 -0.20999,0.09 -0.6,0.21 -0.39,0.09 -0.78,0.12 -0.39,0.03 -0.72,-0.06 -0.33,-0.12 -0.45,-0.48 -0.09,-0.27 -0.03,-0.54 0.06,-0.3 0.18,-0.6 0.12,-0.3 0.21,-0.57 0.12,-0.3 0.12,-0.57 0,-0.21 -0.12,-0.27 -0.12,-0.09 -0.26999,-0.06 -0.15001,0 -0.36001,0.06 -0.18,0.06 -0.3,0.12 -0.45,0.18 -0.87,0.42 -0.42,0.24 -0.84,0.51 -0.39,0.24 -0.75,0.51 -0.36,0.27 -0.72,0.54 -0.15,0.12 -0.3,0.27 -0.15,0.12 -0.3,0.21 -0.06,0.03 -0.3,0 -0.27,-0.03 -0.21,-0.15 0.24,-0.51 0.54,-0.99 0.3,-0.51 0.36,-1.08 0.03,-0.15 0.30001,-0.09 0.26999,0.03 0.23999,0.18 -0.03,0.3 -0.15,0.6 -0.12,0.27 -0.27,0.54 0.36,-0.27 0.72,-0.51 0.36,-0.27 0.75,-0.51 0.3,-0.18 0.66,-0.36 0.36,-0.21 0.75,-0.36 0.39,-0.15 0.78,-0.18 0.39,-0.06 0.75,0.06 0.3,0.12 0.39,0.36 0.09,0.21 0.06,0.48 -0.03,0.27 -0.15,0.54 -0.09,0.27 -0.15,0.48 -0.06,0.24 -0.18,0.6 -0.12,0.33 0.03,0.57 0.12,0.18 0.39,0.18 0.27,-0.03 0.57,-0.09 0.33,-0.09 0.6,-0.21 0.27,-0.12 0.42,-0.18 1.38,-0.57 2.64,-1.56 z" />
      <path
         id="path36"
         style=""
         d="m 178.35906,95.2 q 0.06,-0.03 0.15,0 0.12,0 0.18,0.06 0.09,0.06 0.09,0.12 0.03,0.06 -0.09,0.12 -1.41,0.66 -2.94,1.17 -0.33,0.09 -0.75,0.24 -0.42,0.12 -0.87,0.21 -0.42,0.06 -0.84,0.06 -0.42,-0.03 -0.75,-0.21 -0.3,-0.18 -0.39,-0.45 -0.09,-0.27 -0.03,-0.54 0.06,-0.3 0.21,-0.6 0.12,-0.3 0.27,-0.51 0.09,-0.12 0.27,-0.33 0.21,-0.24 0.42,-0.39 0.24,-0.15 0.48,-0.15 0.24,0 0.39,0.27 0.09,0.18 0,0.48 -0.09,0.27 -0.27,0.54 -0.18,0.27 -0.42,0.48 -0.21,0.21 -0.39,0.24 -0.21,0.06 -0.33,-0.15 -0.12,0.33 -0.09,0.63 0.06,0.27 0.39,0.33 0.42,0.09 0.9,-0.03 0.48,-0.12 0.87,-0.21 0.9,-0.24 1.68,-0.54 1.02,-0.39 1.86,-0.81 z m -4.98,-0.54 q -0.12,0.15 -0.3,0.42 -0.15,0.27 -0.3,0.6 0.03,0 0.03,0 0,-0.03 0.03,-0.03 0.21,-0.06 0.42,-0.42 0.24,-0.39 0.3,-0.57 0.03,-0.03 0.03,-0.06 0.03,-0.06 0.06,-0.12 -0.18,0.12 -0.24,0.21 z" />
      <path
         id="path38"
         style=""
         d="m 187.76406,95.05 q 0.12,-0.03 0.36,0.06 0.24,0.09 0.12,0.15 -1.11,0.51 -2.28,0.93 -1.14,0.42 -2.34,0.69 -0.36,0.09 -0.87,0.15 -0.51,0.06 -1.05,0.03 -0.51,-0.03 -0.96,-0.21 -0.42,-0.18 -0.6,-0.6 -0.3,0.3 -0.6,0.6 -0.3,0.27 -0.63,0.51 -0.09,0.06 -0.27,0.18 -0.18,0.09 -0.39,0.15 -0.18,0.03 -0.33,0 -0.18,-0.03 -0.21,-0.27 -0.06,-0.24 0.12,-0.51 0.15,-0.27 0.27,-0.45 0.15,-0.27 0.36,-0.54 0.21,-0.27 0.45,-0.48 0.3,-0.24 0.69,-0.21 0.39,0 0.63,0.33 0.12,0 0.21,0.06 0.12,0.03 0.12,0.09 0,0.63 0.45,0.87 0.45,0.21 1.14,0.18 0.72,-0.06 1.56,-0.3 0.87,-0.24 1.68,-0.51 0.81,-0.3 1.44,-0.57 0.63,-0.3 0.93,-0.42 z m -8.58,1.47 0.63,-0.63 q -0.09,-0.42 -0.42,-0.18 -0.15,0.15 -0.3,0.33 -0.12,0.15 -0.24,0.3 -0.15,0.18 -0.27,0.39 -0.12,0.18 -0.21,0.39 l -0.09,0.18 0.27,-0.18 q 0.18,-0.15 0.33,-0.3 0.18,-0.18 0.33,-0.33 z" />
    </g>
  </g>
</svg>
