<?xml version="1.0" encoding="UTF-8" standalone="no"?>
<svg
   xmlns:dc="http://purl.org/dc/elements/1.1/"
   xmlns:cc="http://creativecommons.org/ns#"
   xmlns:rdf="http://www.w3.org/1999/02/22-rdf-syntax-ns#"
   xmlns:svg="http://www.w3.org/2000/svg"
   xmlns="http://www.w3.org/2000/svg"
   id="svg16"
   width="800px"
   version="1.1"
   height="200px">
  <metadata
     id="metadata20">
    <rdf:RDF>
      <cc:Work
         rdf:about="">
        <dc:format>image/svg+xml</dc:format>
        <dc:type
           rdf:resource="http://purl.org/dc/dcmitype/StillImage" />
      </cc:Work>
    </rdf:RDF>
  </metadata>
  <defs
     id="defs4">
    <style
       id="style2"
       type="text/css"><![CDATA[    
     @font-face {font-family:Metropolis;
     src: url('/Users/francesco/Repos/write-logos/src/fonts/Fonts_E_TEMPORANEA/Metropolis-Bold.otf');}
     @font-face {font-family:Chango;
     src: url('/Users/francesco/Repos/write-logos/src/fonts/Fonts_X/Chango-Regular.ttf');}
     ]]></style>
  </defs>
  <g
     id="g14"
     style="font-size:60px">
    <g
       style="text-anchor:middle"
       id="text12"
       aria-label="EXTEMPORANEA">
      <path
         id="path22"
         style="font-family:Metropolis;letter-spacing:0.075em"
         d="m 145.33562,66.76 v -7.98 h -31.74 V 100 h 31.74 v -7.98 h -22.86 v -9.06 h 20.7 v -7.98 h -20.7 v -8.22 z" />
      <path
         id="path24"
         style="font-family:Chango;letter-spacing:0.05em"
         d="m 155.75312,100 q -1.2,0 -1.2,-0.9 0,-0.54 0.66,-1.26 l 15.96,-16.86 -14.58,-16.98 q -1.26,-1.56 -1.26,-2.52 0,-1.02 0.3,-1.62 0.9,-1.8 3.18001,-1.8 L 181.49312,58 q 1.74,0 2.58,0.54 0.9,0.54 2.1,2.22 l 3.18,4.56 q 0.9,1.38 1.44,1.38 0.6,0 1.68,-1.14 l 6.06,-6.12 q 0.90001,-0.96 1.38,-1.2 0.48,-0.24 1.38,-0.24 h 9.54 q 1.14,0 1.14,0.78 0,0.6 -0.65999,1.44 l -14.10001,15.6 q 9.18,12.3 13.38,18.42 1.32,1.86 1.32,3.36 0,2.16 -2.46,2.22 -5.52,0.12 -10.62,0.12 -5.1,0 -8.64,0 -3.54,-0.06 -4.19999,-1.02 l -6.90001,-8.58 q -0.72,-0.9 -1.26,-0.9 -0.48,0 -1.38,0.9 l -7.92,8.28 q -0.9,0.96 -1.38,1.2 -0.42,0.18 -1.32,0.18 z" />
      <path
         id="path26"
         style="font-family:Metropolis;letter-spacing:0.075em"
         d="m 231.85375,100 h 8.88 V 66.76 h 12.84 v -7.98 h -34.56 v 7.98 h 12.84 z" />
      <path
         id="path28"
         style="font-family:Metropolis;letter-spacing:0.075em"
         d="m 295.73406,66.76 v -7.98 h -31.74 V 100 h 31.74 v -7.98 h -22.86 v -9.06 h 20.7 v -7.98 h -20.7 v -8.22 z" />
      <path
         id="path30"
         style="font-family:Metropolis;letter-spacing:0.075em"
         d="m 307.29156,100 h 8.82 V 74.32 l 12.78,23.28 12.72,-23.28 V 100 h 8.88 V 58.78 h -8.88 l -12.72,23.28 -12.78,-23.28 h -8.82 z" />
      <path
         id="path32"
         style="font-family:Metropolis;letter-spacing:0.075em"
         d="m 363.46281,100 h 8.82 V 86.62 h 9.72 c 8.94,0 15.54,-5.76 15.54,-13.92 0,-8.16 -6.6,-13.92 -15.54,-13.92 h -18.54 z m 8.82,-21.48 V 66.88 h 8.76 c 4.38,0 7.38,2.28 7.38,5.82 0,3.54 -3,5.82 -7.38,5.82 z" />
      <path
         id="path34"
         style="font-family:Metropolis;letter-spacing:0.075em"
         d="m 427.85219,100.72 c 11.94,0 21.9,-9.78 21.9,-21.36 0,-11.58 -9.96,-21.3 -21.9,-21.3 -11.82,0 -21.9,9.72 -21.9,21.3 0,11.58 10.08,21.36 21.9,21.36 z m 0,-8.04 c -6.9,0 -12.78,-6.12 -12.78,-13.32 0,-7.14 5.88,-13.26 12.78,-13.26 6.96,0 12.84,6.12 12.84,13.26 0,7.2 -5.88,13.32 -12.84,13.32 z" />
      <path
         id="path36"
         style="font-family:Metropolis;letter-spacing:0.075em"
         d="m 495.68219,100 -10.14,-14.4 c 5.64,-1.98 9.36,-6.78 9.36,-12.9 0,-8.16 -6.6,-13.92 -15.54,-13.92 h -18.54 V 100 h 8.82 V 86.62 h 6.54 l 9.42,13.38 z m -26.04,-33.12 h 8.76 c 4.38,0 7.38,2.28 7.38,5.82 0,3.54 -3,5.82 -7.38,5.82 h -8.76 z" />
      <path
         id="path38"
         style="font-family:Metropolis;letter-spacing:0.075em"
         d="m 536.22625,100 h 9.96 l -16.8,-41.22 h -9.9 l -16.8,41.22 h 9.9 l 2.64,-6.48 h 18.36 z m -17.94,-13.98 6.12,-15.06 6.12,15.06 z" />
      <path
         id="path40"
         style="font-family:Metropolis;letter-spacing:0.075em"
         d="m 555.96344,100 h 8.82 V 73.36 l 19.86,26.64 h 8.88 V 58.78 h -8.88 v 26.64 l -19.86,-26.64 h -8.82 z" />
      <path
         id="path42"
         style="font-family:Metropolis;letter-spacing:0.075em"
         d="m 638.24969,66.76 v -7.98 h -31.74 V 100 h 31.74 v -7.98 h -22.86 v -9.06 h 20.7 v -7.98 h -20.7 v -8.22 z" />
      <path
         id="path44"
         style="font-family:Metropolis;letter-spacing:0.075em"
         d="m 679.68719,100 h 9.96 l -16.8,-41.22 h -9.9 l -16.8,41.22 h 9.9 l 2.64,-6.48 h 18.36 z m -17.94,-13.98 6.12,-15.06 6.12,15.06 z" />
    </g>
  </g>
</svg>
