<?xml version="1.0" encoding="UTF-8" standalone="no"?>
<svg
   xmlns:dc="http://purl.org/dc/elements/1.1/"
   xmlns:cc="http://creativecommons.org/ns#"
   xmlns:rdf="http://www.w3.org/1999/02/22-rdf-syntax-ns#"
   xmlns:svg="http://www.w3.org/2000/svg"
   xmlns="http://www.w3.org/2000/svg"
   id="svg16"
   width="800px"
   version="1.1"
   height="200px">
  <metadata
     id="metadata20">
    <rdf:RDF>
      <cc:Work
         rdf:about="">
        <dc:format>image/svg+xml</dc:format>
        <dc:type
           rdf:resource="http://purl.org/dc/dcmitype/StillImage" />
      </cc:Work>
    </rdf:RDF>
  </metadata>
  <defs
     id="defs4">
    <style
       id="style2"
       type="text/css"><![CDATA[    
     @font-face {font-family:Metropolis;
     src: url('/Users/francesco/Repos/write-logos/src/fonts/Fonts_E_TEMPORANEA/Metropolis-Bold.otf');}
     @font-face {font-family:MADE Soulmaze Outline;
     src: url('/Users/francesco/Repos/write-logos/src/fonts/Fonts_X/MADE_Outline.otf');}
     ]]></style>
  </defs>
  <g
     id="g14"
     style="font-size:60px">
    <g
       style="text-anchor:middle"
       id="text12"
       aria-label="EXTEMPORANEA">
      <path
         id="path22"
         style="font-family:Metropolis;letter-spacing:0.075em"
         d="m 151.66375,66.76 v -7.98 h -31.74 V 100 h 31.74 v -7.98 h -22.86 v -9.06 h 20.7 v -7.98 h -20.7 v -8.22 z" />
      <path
         id="path24"
         style="font-family:'MADE Soulmaze Outline';letter-spacing:0.05em"
         d="m 196.88125,78.16 8.88,-20.16 h -18.18 l -4.08,13.68 h -0.54 l -4.08,-13.68 h -18.18 l 8.88,20.16 -9.48,21.84 h 18.78 l 4.08,-13.68 h 0.54 l 4.08,13.68 h 18.78 z m -12.96,7.62 h -1.38 l -4.08,13.62 h -17.52 l 9.24,-21.24 -8.64,-19.62 h 16.92 l 4.08,13.68 h 1.38 l 4.08,-13.68 h 16.92 l -8.64,19.62 9.24,21.24 h -17.52 z" />
      <path
         id="path26"
         style="font-family:Metropolis;letter-spacing:0.075em"
         d="m 225.52562,100 h 8.88 V 66.76 h 12.84 v -7.98 h -34.56 v 7.98 h 12.84 z" />
      <path
         id="path28"
         style="font-family:Metropolis;letter-spacing:0.075em"
         d="m 289.40594,66.76 v -7.98 h -31.74 V 100 h 31.74 v -7.98 h -22.86 v -9.06 h 20.7 v -7.98 h -20.7 v -8.22 z" />
      <path
         id="path30"
         style="font-family:Metropolis;letter-spacing:0.075em"
         d="m 300.96344,100 h 8.82 V 74.32 l 12.78,23.28 12.72,-23.28 V 100 h 8.88 V 58.78 h -8.88 l -12.72,23.28 -12.78,-23.28 h -8.82 z" />
      <path
         id="path32"
         style="font-family:Metropolis;letter-spacing:0.075em"
         d="m 357.13469,100 h 8.82 V 86.62 h 9.72 c 8.94,0 15.54,-5.76 15.54,-13.92 0,-8.16 -6.6,-13.92 -15.54,-13.92 h -18.54 z m 8.82,-21.48 V 66.88 h 8.76 c 4.38,0 7.38,2.28 7.38,5.82 0,3.54 -3,5.82 -7.38,5.82 z" />
      <path
         id="path34"
         style="font-family:Metropolis;letter-spacing:0.075em"
         d="m 421.52406,100.72 c 11.94,0 21.9,-9.78 21.9,-21.36 0,-11.58 -9.96,-21.3 -21.9,-21.3 -11.82,0 -21.9,9.72 -21.9,21.3 0,11.58 10.08,21.36 21.9,21.36 z m 0,-8.04 c -6.9,0 -12.78,-6.12 -12.78,-13.32 0,-7.14 5.88,-13.26 12.78,-13.26 6.96,0 12.84,6.12 12.84,13.26 0,7.2 -5.88,13.32 -12.84,13.32 z" />
      <path
         id="path36"
         style="font-family:Metropolis;letter-spacing:0.075em"
         d="m 489.35406,100 -10.14,-14.4 c 5.64,-1.98 9.36,-6.78 9.36,-12.9 0,-8.16 -6.6,-13.92 -15.54,-13.92 h -18.54 V 100 h 8.82 V 86.62 h 6.54 l 9.42,13.38 z m -26.04,-33.12 h 8.76 c 4.38,0 7.38,2.28 7.38,5.82 0,3.54 -3,5.82 -7.38,5.82 h -8.76 z" />
      <path
         id="path38"
         style="font-family:Metropolis;letter-spacing:0.075em"
         d="m 529.89813,100 h 9.95999 L 523.05813,58.78 h -9.9 L 496.35812,100 h 9.9 l 2.64,-6.48 h 18.36 z m -17.94001,-13.98 6.12,-15.06 6.12,15.06 z" />
      <path
         id="path40"
         style="font-family:Metropolis;letter-spacing:0.075em"
         d="m 549.63531,100 h 8.82 V 73.36 l 19.86,26.64 h 8.88 V 58.78 h -8.88 v 26.64 l -19.86,-26.64 h -8.82 z" />
      <path
         id="path42"
         style="font-family:Metropolis;letter-spacing:0.075em"
         d="m 631.92156,66.76 v -7.98 h -31.74 V 100 h 31.74 v -7.98 h -22.86 v -9.06 h 20.7 v -7.98 h -20.7 v -8.22 z" />
      <path
         id="path44"
         style="font-family:Metropolis;letter-spacing:0.075em"
         d="m 673.35906,100 h 9.96 l -16.8,-41.22 h -9.9 l -16.8,41.22 h 9.9 l 2.64,-6.48 h 18.36 z m -17.94,-13.98 6.12,-15.06 6.12,15.06 z" />
    </g>
  </g>
</svg>
