<?xml version="1.0" encoding="UTF-8" standalone="no"?>
<svg
   xmlns:dc="http://purl.org/dc/elements/1.1/"
   xmlns:cc="http://creativecommons.org/ns#"
   xmlns:rdf="http://www.w3.org/1999/02/22-rdf-syntax-ns#"
   xmlns:svg="http://www.w3.org/2000/svg"
   xmlns="http://www.w3.org/2000/svg"
   id="svg16"
   width="800px"
   version="1.1"
   height="200px">
  <metadata
     id="metadata20">
    <rdf:RDF>
      <cc:Work
         rdf:about="">
        <dc:format>image/svg+xml</dc:format>
        <dc:type
           rdf:resource="http://purl.org/dc/dcmitype/StillImage" />
      </cc:Work>
    </rdf:RDF>
  </metadata>
  <defs
     id="defs4">
    <style
       id="style2"
       type="text/css"><![CDATA[    
     @font-face {font-family:Metropolis;
     src: url('/Users/francesco/Repos/write-logos/src/fonts/Fonts_E_TEMPORANEA/Metropolis-Bold.otf');}
     @font-face {font-family:Modak;
     src: url('/Users/francesco/Repos/write-logos/src/fonts/Fonts_X/Modak-Regular.ttf');}
     ]]></style>
  </defs>
  <g
     id="g14"
     style="font-size:60px">
    <g
       style="text-anchor:middle"
       id="text12"
       aria-label="EXTEMPORANEA">
      <path
         id="path22"
         style="font-family:Metropolis;letter-spacing:0.075em"
         d="m 157.28875,66.76 v -7.98 h -31.74 V 100 h 31.74 v -7.98 h -22.86 v -9.06 h 20.7 v -7.98 h -20.7 v -8.22 z" />
      <path
         id="path24"
         style="font-family:Modak;letter-spacing:0.05em"
         d="m 183.50781,93.115234 -3.39844,6.621094 q -2.19726,0.820312 -4.77539,0.820312 -4.54101,0 -7.4414,-2.578124 -2.90039,-2.578125 -2.90039,-6.94336 0,-3.867187 2.60742,-6.884765 2.60742,-3.017579 7.38281,-5.06836 -0.35156,-0.966797 -1.20117,-0.966797 -0.84961,0 -3.10547,1.552735 -2.19726,-1.142578 -3.86719,-3.779297 -1.64062,-2.636719 -1.64062,-6.09375 0,-3.457031 2.54883,-5.917969 2.54882,-2.460937 7.03125,-2.460937 3.86718,0 6.35742,1.435546 l 3.10547,6.181641 2.51953,-6.328125 q 2.49023,-1.113281 5.5664,-1.113281 4.36524,0 7.08985,2.402344 2.72461,2.460937 2.72461,6.884765 0,3.66211 -2.63672,6.884766 -2.60742,3.193359 -6.70899,5.068359 0.32227,0.84961 1.14258,0.84961 0.84961,0 2.72461,-1.289063 l 6.03516,7.558594 q 0,4.716797 -2.34375,7.529297 -2.57813,3.105471 -7.11914,3.105471 -6.91406,0 -9.69727,-7.470706 z" />
      <path
         id="path26"
         style="font-family:Metropolis;letter-spacing:0.075em"
         d="m 219.90062,100 h 8.88 V 66.76 h 12.84 v -7.98 h -34.56 v 7.98 h 12.84 z" />
      <path
         id="path28"
         style="font-family:Metropolis;letter-spacing:0.075em"
         d="m 283.78094,66.76 v -7.98 h -31.74 V 100 h 31.74 v -7.98 h -22.86 v -9.06 h 20.7 v -7.98 h -20.7 v -8.22 z" />
      <path
         id="path30"
         style="font-family:Metropolis;letter-spacing:0.075em"
         d="m 295.33844,100 h 8.82 V 74.32 l 12.78,23.28 12.72,-23.28 V 100 h 8.88 V 58.78 h -8.88 l -12.72,23.28 -12.78,-23.28 h -8.82 z" />
      <path
         id="path32"
         style="font-family:Metropolis;letter-spacing:0.075em"
         d="m 351.50969,100 h 8.82 V 86.62 h 9.72 c 8.94,0 15.54,-5.76 15.54,-13.92 0,-8.16 -6.6,-13.92 -15.54,-13.92 h -18.54 z m 8.82,-21.48 V 66.88 h 8.76 c 4.38,0 7.38,2.28 7.38,5.82 0,3.54 -3,5.82 -7.38,5.82 z" />
      <path
         id="path34"
         style="font-family:Metropolis;letter-spacing:0.075em"
         d="m 415.89906,100.72 c 11.94,0 21.9,-9.78 21.9,-21.36 0,-11.58 -9.96,-21.3 -21.9,-21.3 -11.82,0 -21.9,9.72 -21.9,21.3 0,11.58 10.08,21.36 21.9,21.36 z m 0,-8.04 c -6.9,0 -12.78,-6.12 -12.78,-13.32 0,-7.14 5.88,-13.26 12.78,-13.26 6.96,0 12.84,6.12 12.84,13.26 0,7.2 -5.88,13.32 -12.84,13.32 z" />
      <path
         id="path36"
         style="font-family:Metropolis;letter-spacing:0.075em"
         d="m 483.72906,100 -10.14,-14.4 c 5.64,-1.98 9.36,-6.78 9.36,-12.9 0,-8.16 -6.6,-13.92 -15.54,-13.92 h -18.54 V 100 h 8.82 V 86.62 h 6.54 l 9.42,13.38 z m -26.04,-33.12 h 8.76 c 4.38,0 7.38,2.28 7.38,5.82 0,3.54 -3,5.82 -7.38,5.82 h -8.76 z" />
      <path
         id="path38"
         style="font-family:Metropolis;letter-spacing:0.075em"
         d="m 524.27313,100 h 9.95999 L 517.43313,58.78 h -9.90001 l -16.8,41.22 h 9.9 l 2.64,-6.48 h 18.36 z m -17.94001,-13.98 6.12,-15.06 6.12,15.06 z" />
      <path
         id="path40"
         style="font-family:Metropolis;letter-spacing:0.075em"
         d="m 544.01031,100 h 8.82 V 73.36 l 19.86,26.64 h 8.88 V 58.78 h -8.88 v 26.64 l -19.86,-26.64 h -8.82 z" />
      <path
         id="path42"
         style="font-family:Metropolis;letter-spacing:0.075em"
         d="m 626.29656,66.76 v -7.98 h -31.74 V 100 h 31.74 v -7.98 h -22.86 v -9.06 h 20.7 v -7.98 h -20.7 v -8.22 z" />
      <path
         id="path44"
         style="font-family:Metropolis;letter-spacing:0.075em"
         d="m 667.73406,100 h 9.96 l -16.8,-41.22 h -9.9 l -16.8,41.22 h 9.9 l 2.64,-6.48 h 18.36 z m -17.94,-13.98 6.12,-15.06 6.12,15.06 z" />
    </g>
  </g>
</svg>
