<?xml version="1.0" encoding="UTF-8" standalone="no"?>
<svg
   xmlns:dc="http://purl.org/dc/elements/1.1/"
   xmlns:cc="http://creativecommons.org/ns#"
   xmlns:rdf="http://www.w3.org/1999/02/22-rdf-syntax-ns#"
   xmlns:svg="http://www.w3.org/2000/svg"
   xmlns="http://www.w3.org/2000/svg"
   id="svg16"
   width="800px"
   version="1.1"
   height="200px">
  <metadata
     id="metadata20">
    <rdf:RDF>
      <cc:Work
         rdf:about="">
        <dc:format>image/svg+xml</dc:format>
        <dc:type
           rdf:resource="http://purl.org/dc/dcmitype/StillImage" />
      </cc:Work>
    </rdf:RDF>
  </metadata>
  <defs
     id="defs4">
    <style
       id="style2"
       type="text/css"><![CDATA[    
     @font-face {font-family:Metropolis;
     src: url('/Users/francesco/Repos/write-logos/src/fonts/Fonts_E_TEMPORANEA/Metropolis-Bold.otf');}
     @font-face {font-family:Panic;
     src: url('/Users/francesco/Repos/write-logos/src/fonts/Fonts_X/Panic.ttf');}
     ]]></style>
  </defs>
  <g
     id="g14"
     style="font-size:60px">
    <g
       style="text-anchor:middle"
       id="text12"
       aria-label="EXTEMPORANEA">
      <path
         id="path22"
         style="font-family:Metropolis;letter-spacing:0.075em"
         d="m 151.01922,66.76 v -7.98 h -31.74 V 100 h 31.74 v -7.98 h -22.86 v -9.06 h 20.7 v -7.98 h -20.7 v -8.22 z" />
      <path
         id="path24"
         style="font-family:Panic;letter-spacing:0.05em"
         d="m 196.80859,50.429687 q 0.23438,0.0293 0.23438,0.234375 -0.32227,0.498047 -0.46875,1.289063 -1.05469,0.351562 -1.05469,0.9375 0.23438,0.0293 0.23438,0.234375 v 0.351562 q 0,0.205079 -1.05469,0.351563 l -0.11719,0.234375 v 0.234375 l 0.35156,0.46875 0.46875,-0.117188 0.82032,0.117188 q 0,-0.175781 1.75781,-0.46875 l 0.70312,0.117187 q 0,-0.175781 3.04688,-0.585937 h 0.11719 q 0.23437,0.0293 0.23437,0.234375 v 0.117187 q -0.32226,0.322266 -0.46875,1.171875 -0.9375,0.46875 -0.9375,0.703125 l 0.23438,0.820313 q -0.26368,0.205078 -1.17188,0.351562 0,0.351563 -0.11719,0.351563 0.46875,0.556641 0.46875,0.703125 -0.17578,0.46875 -0.35156,0.46875 -0.58594,-0.234375 -0.58594,-0.351563 -0.58593,0.205079 -0.58593,0.585938 0,0.205078 0.82031,0.703125 l -1.64063,3.632812 q -0.82031,0.644532 -0.82031,1.289063 0,0.527344 -0.9375,0.820312 l -0.23437,0.351563 q 0.35156,0.585937 0.35156,0.820312 -1.28906,0.117188 -1.28906,0.351563 v 0.351562 q 0.58593,0.615235 0.58593,0.9375 l -0.46875,0.351563 -0.58593,-0.46875 h -0.23438 q -0.17578,0 -0.35156,0.351562 v 0.46875 q 0.82031,0.146485 0.82031,0.585938 -0.58594,1.845703 -1.64062,3.046875 0,0.9375 -0.70313,0.9375 -0.23437,0.292969 -0.23437,0.46875 0,0.410156 0.9375,0.585937 0,0.351563 0.23437,1.171875 -0.82031,0.439454 -0.82031,0.585938 0,0.585937 0.46875,0.703125 0.41015,0 0.58594,-0.9375 0.70312,0.234375 0.70312,0.46875 v 0.351562 Q 193.64453,77.441406 193.64453,77.5 v 0.117187 q 0,0.146485 0.58594,0.46875 l 0.46875,-0.351562 h 0.35156 q 0.23438,0.0293 0.23438,0.234375 -0.11719,0.644531 -0.11719,1.054687 l 0.58594,0.117188 q 0.0586,0 0.46875,-0.117188 0.35156,1.171875 0.70312,1.171875 0.79102,0 1.05469,1.054688 0.38086,0 1.875,1.875 0.26367,0 0.35156,0.585937 -0.14648,0 -0.58594,0.585938 l 0.11719,0.585937 h 0.46875 l 0.58594,-0.46875 h 0.11719 q 0.20507,0 0.35156,0.585938 l -0.35156,0.585937 q 0,0.175782 0.46875,0.46875 l 0.82031,-0.234375 0.23437,0.46875 q -0.11718,0.205079 -0.11718,0.46875 0.20507,0.205079 1.28906,0.585938 0,0.527344 1.52344,1.640625 1.17187,1.40625 1.17187,1.640625 -0.79101,0.292969 -0.9375,0.820312 0.43945,0.351563 0.82031,0.351563 0.43946,-0.703125 0.58594,-0.703125 h 0.11719 q 0.32226,0 0.46875,0.820312 -0.46875,0.175782 -0.46875,0.351563 v 0.351562 q 0.11719,0.351563 0.70312,0.351563 0,-0.175781 0.35157,-0.351563 h 0.23437 q 0.23438,0.0293 0.23438,0.234375 0,0.585938 -0.23438,0.585938 0,0.117187 0.46875,0.703125 V 94.375 l -0.58594,0.117187 q -0.11718,0 -0.35156,-0.117187 -0.43945,0.234375 -0.9375,0.234375 -0.23437,0 -0.23437,-0.234375 l 0.35156,-0.585938 q -0.11719,-0.46875 -0.70313,-0.46875 -0.23437,0.05859 -0.46875,0.585938 0.14649,0 0.58594,0.585937 0,0.205079 -1.99219,0.46875 -0.23437,0 -0.23437,-0.234375 l 0.35156,-0.585937 v -0.117188 q -0.11719,-0.351562 -0.70312,-0.351562 -0.17579,0 -0.35157,0.351562 v 0.234375 q 0.46875,0.527344 0.46875,0.585938 0,0.205078 -1.875,0.46875 -0.23437,0 -0.23437,-0.351563 0.23437,-0.380859 0.23437,-0.703125 l -0.35156,-0.234375 h -0.35156 q -0.23438,0.0293 -0.23438,0.234375 v 0.46875 l 0.35157,0.46875 q 0,0.234375 -0.23438,0.234375 h -0.58594 q -0.11718,0 -0.11718,-0.117187 -0.73243,0.351562 -1.05469,0.351562 l -0.11719,-0.234375 V 95.3125 l 0.23438,-0.351563 v -0.351562 q 0,-0.117188 -0.46875,-0.351563 -0.46875,0.175782 -0.46875,0.351563 v 0.351562 l 0.35156,0.46875 v 0.117188 q 0,0.234375 -0.23438,0.234375 h -0.58593 q -0.11719,0 -0.11719,-0.117188 -0.38086,0.234375 -0.70313,0.234375 h -0.23437 q -0.23438,0 -0.23438,-0.234375 0.35157,-0.46875 0.35157,-0.703125 -0.43946,-0.351562 -0.82032,-0.351562 l -0.23437,0.351562 v 0.46875 q 0.46875,0.05859 0.46875,0.351563 0,0.263672 -0.58594,0.351562 -0.9375,0 -1.28906,-0.9375 -0.9375,-1.171875 -0.9375,-1.640625 0.32226,-0.08789 0.58594,-0.585937 v -0.117188 q 0,-0.175781 -0.35157,-0.351562 l -1.05468,0.117187 -0.11719,-0.234375 q -0.87891,0.234375 -0.9375,0.234375 -0.11719,-0.234375 -0.11719,-0.351562 0.23438,-0.380859 0.23438,-0.703125 0,-0.234375 -0.70313,-0.351563 l -0.35156,0.46875 v 0.117188 q 0.46875,0.527344 0.46875,0.585937 0,0.175782 -0.35156,0.351563 h -0.11719 q -1.02539,0 -1.875,-1.757813 -0.20508,0 -0.46875,-0.703125 0.49805,-0.292968 0.70312,-0.820312 -0.38086,-0.351563 -0.58593,-0.351563 l -0.82032,0.117188 -0.11718,-0.234375 v -0.820313 q -1.40625,-0.351562 -1.40625,-1.171875 -0.29297,-0.117187 -0.9375,-1.171875 v -0.117187 q 0,-0.08789 0.58593,-0.585938 v -0.46875 q 0,-0.175781 -0.35156,-0.351562 h -0.11719 q -0.32226,0 -0.70312,2.578125 l -0.9375,0.9375 q 0.23437,0.380859 0.23437,0.703125 0,0.234375 -0.23437,0.234375 h -0.82031 q 0,0.175781 -0.23438,0.46875 v 0.117187 l 0.82031,0.703125 q -0.61523,2.373047 -1.40625,3.046875 -0.11718,0 -0.11718,0.117188 l 0.23437,0.820312 q -1.17187,0.117188 -1.17187,0.351563 v 0.351562 l 0.58593,0.585938 v 0.117187 q 0,0.615235 -0.35156,0.703125 -0.70312,-0.585937 -0.82031,-0.585937 -0.17578,0 -0.58594,0.46875 0.20508,0.585937 0.70313,0.585937 0.0293,-0.234375 0.23437,-0.234375 h 0.23438 q 0.23437,0.0293 0.23437,0.234375 -0.29297,1.640625 -1.28906,1.640625 h -0.11719 q -0.23437,0 -0.23437,-0.234375 l 0.23437,-0.351562 v -0.351563 q 0,-0.175781 -0.35156,-0.351562 h -0.23438 q -0.17578,0 -0.35156,0.351562 v 0.234375 l 0.35156,0.46875 v 0.351563 h -0.35156 q -0.38086,0 -1.64062,0.234375 l -0.11719,-0.234375 v -0.117188 l 0.35156,-0.46875 V 97.65625 q -0.11719,-0.351563 -0.70312,-0.351563 -0.17579,0 -0.35157,0.351563 v 0.234375 q 0.46875,0.527344 0.46875,0.585937 0,0.205079 -2.10937,0.46875 l -0.11719,-0.234375 0.35156,-0.585937 v -0.117188 q -0.23437,-0.46875 -0.70312,-0.46875 -0.35156,0.38086 -0.35156,0.585938 l 0.46875,0.585937 v 0.117188 q 0,0.205078 -1.99219,0.46875 -0.11719,-0.234375 -0.11719,-0.351563 0.23438,-0.380859 0.23438,-0.703125 -0.46875,-0.234375 -0.46875,-0.351562 -0.46875,0.175781 -0.46875,0.351562 v 0.351563 l 0.35156,0.46875 q 0,0.175781 -0.35156,0.351562 h -0.46875 q -0.11719,0 -0.11719,-0.117187 -0.38086,0.234375 -0.70313,0.234375 h -0.23437 q -0.23438,0 -0.23438,-0.234375 l 0.23438,-0.351563 V 98.59375 q -0.11719,-0.351563 -0.70313,-0.351563 -0.23437,0.38086 -0.23437,0.585938 l 0.35156,0.585937 v 0.234375 l -0.58594,0.117188 q -0.11718,0 -0.35156,-0.117188 -0.43945,0.234375 -0.9375,0.234375 -0.23437,0 -0.23437,-0.234375 l 0.35156,-0.585937 -0.46875,-0.585938 v -0.234375 q 0,-0.175781 0.35156,-0.351562 0.43945,0.351562 0.82031,0.351562 0.35157,-0.46875 0.35157,-0.703125 -0.82032,-0.46875 -0.82032,-0.585937 0,-0.410156 0.70313,-1.289063 h -0.23438 q -0.17578,0 -1.05468,0.234375 l -0.11719,-0.234375 q 0.0293,-0.585937 0.23437,-0.585937 -0.17578,-0.585938 -0.70312,-0.585938 -0.35156,0.38086 -0.35156,0.585938 0,0.117187 0.46875,0.703125 0,0.234375 -2.10938,0.351562 v -0.117187 q 0,-0.08789 0.23438,-0.703125 -0.11719,-0.46875 -0.70313,-0.46875 -0.23437,0.46875 -0.35156,0.46875 0,0.117187 0.46875,0.703125 0,0.175781 -0.35156,0.351562 h -0.46875 q -0.11719,0 -0.11719,-0.117187 -0.43945,0.234375 -0.9375,0.234375 -0.23438,0 -0.23438,-0.234375 v -0.117188 l 0.23438,-0.351562 v -0.234375 q 0,-0.05859 -0.46875,-0.585938 0.17578,-0.46875 0.35156,-0.46875 h 0.11719 q 0.46875,0.351563 0.70312,0.351563 l 0.35157,-0.46875 v -0.117188 q 0,-0.175781 -0.82032,-0.703125 V 93.4375 l 1.875,-3.632813 q 0,-0.05859 0.70313,-0.703125 l -0.11719,-0.820312 q 1.17188,-0.351563 1.17188,-0.9375 -0.23438,0 -0.23438,-0.234375 v -0.46875 q 0.0293,-0.234375 0.23438,-0.234375 h 0.11718 q 0.29297,0.234375 0.46875,0.234375 0.46875,-0.117188 0.46875,-0.703125 -0.14648,0 -0.58593,-0.585938 V 85 q 0,-0.175781 0.35156,-0.351563 0.52734,0.46875 0.58594,0.46875 h 0.35156 Q 168.80078,85 168.80078,84.414062 q -0.9375,-0.410156 -0.9375,-0.585937 0,-0.820313 1.64063,-3.046875 0,-1.054688 0.82031,-1.054688 0.23437,-0.380859 0.23437,-0.703125 -0.23437,0 -0.23437,-0.234375 v -0.117187 q 0,-0.205078 1.05469,-0.351563 0.11718,-0.351562 0.23437,-0.351562 0,-0.117188 -0.58594,-0.820313 V 77.03125 q 0,-0.175781 0.35157,-0.351563 h 0.23437 l 0.58594,0.351563 0.35156,-0.46875 v -0.351563 l -0.70312,-0.46875 V 75.625 q 0.58593,-1.40625 0.70312,-2.578125 0.82031,0 0.82031,-0.46875 v -0.117188 q 0,-0.322265 -1.28906,-0.46875 0,-1.02539 -1.17187,-1.289062 -1.64063,-1.875 -1.64063,-2.34375 h 0.58594 q 0.35156,-0.117188 0.35156,-0.703125 l -0.35156,-0.234375 h -0.35156 q -0.14649,0 -0.58594,0.820312 -0.14649,0 -0.58594,-0.585937 v -0.234375 l 0.58594,-0.703125 q 0,-0.175781 -0.46875,-0.46875 -0.38086,0 -0.82031,0.351562 h -0.11719 q -0.23438,0 -0.23438,-0.234375 0.11719,-0.644531 0.11719,-0.9375 l -0.46875,-0.234375 -0.70312,0.117188 -0.23438,-0.351563 0.11719,-0.585937 q -0.43945,-0.322266 -1.17188,-0.46875 0,-0.234375 -2.69531,-3.046875 v -0.46875 q 0.70313,-0.08789 0.70313,-0.703125 -0.43946,-0.351563 -0.70313,-0.351563 -0.32226,0.703125 -0.46875,0.703125 h -0.11719 q -0.29297,0 -0.46875,-0.820312 0.17578,0 0.35157,-0.351563 v -0.234375 q 0,-0.175781 -0.46875,-0.351562 -0.38086,0.234375 -0.70313,0.234375 -0.23437,0 -0.35156,-1.289063 -0.35156,0 -0.35156,-0.117187 l -0.23438,0.117187 h -0.23437 l -1.05469,-1.40625 0.35156,-0.234375 h 0.35156 q 0.26368,0 0.46875,0.117188 0.58594,-0.351563 0.9375,-0.351563 h 0.11719 q 0.11719,0 0.11719,0.117188 0.38086,-0.234375 0.70312,-0.234375 l 0.82032,0.117187 q 0,-0.234375 0.70312,-0.351562 l 0.23438,0.117187 q 0.38086,-0.234375 0.70312,-0.234375 L 164.46484,55 q 0,-0.175781 1.64063,-0.46875 l 0.58594,0.117187 q 0.17578,-0.234375 4.57031,-0.703125 l 0.23437,0.117188 q 0.20508,-0.117188 0.46875,-0.117188 0.17578,0 0.35157,0.351563 v 0.585937 q 0.61523,0 1.28906,1.640625 -0.9375,0.322266 -0.9375,0.585938 v 0.117187 q 0.23437,0.46875 0.70312,0.46875 0,-0.175781 0.46875,-0.46875 h 0.23438 q 0.23437,0 0.23437,0.46875 0.49805,-0.351562 2.69532,-0.351562 0.29296,0 0.46875,0.9375 0.61523,0.263672 1.17187,1.289062 v 0.234375 l -0.9375,0.703125 q 0.0879,0.351563 0.70313,0.585938 0,-0.175781 0.58593,-0.46875 h 0.11719 q 0.23438,0.0293 0.23438,0.234375 v 0.351562 l -0.23438,0.351563 v 0.117187 q 0,0.322266 1.17188,0.46875 l 0.23437,0.585938 h 0.11719 v -0.117188 l -0.35156,-0.585937 v -0.351563 q 0,-0.234375 0.35156,-0.234375 0.38086,0.234375 0.58594,0.234375 0.46875,-0.117187 0.46875,-0.703125 -0.46875,-0.234375 -0.46875,-0.351562 l -0.23438,0.117187 h -0.11719 q -0.23437,0 -0.23437,-0.234375 v -0.234375 q 0,-0.820312 0.70312,-1.523437 v -0.234375 l -0.11718,-0.585938 q 0.38086,-0.292968 1.05468,-0.351562 v -0.585938 l -0.46875,-0.46875 q 0.0879,-0.703125 0.35157,-0.703125 h 0.23437 q 0,0.46875 0.70313,0.585938 l 0.35156,-0.46875 q -0.14649,-0.585938 -0.35156,-0.585938 l -0.82032,0.117188 -0.11718,-0.234375 q 0,-0.908203 0.9375,-1.875 l -0.11719,-0.703125 q 0,-0.263672 0.58594,-0.351563 v 0.117188 q 0.73242,-0.46875 2.22656,-0.46875 l 0.23437,0.117187 q 0.61524,-0.351562 1.17188,-0.351562 v 0.117187 q 0.46875,-0.234375 0.82031,-0.234375 l 0.70313,0.117188 q 0,-0.205078 0.70312,-0.351563 l 0.23438,0.117188 Q 190.12891,51.25 190.36328,51.25 q 0.46875,0.117187 0.82031,0.117187 0,-0.175781 1.64063,-0.46875 l 0.70312,0.117188 q 0.26368,-0.205078 3.28125,-0.585938 z m -2.22656,0.703125 q -0.35156,0.38086 -0.35156,0.585938 0.17578,0.46875 0.35156,0.46875 h 0.23438 q 0.17578,0 0.35156,-0.351563 v -0.351562 q 0,-0.263672 -0.58594,-0.351563 z m -2.57812,0.351563 q 0,0.175781 -0.23438,0.46875 v 0.117187 q 0,0.175782 0.46875,0.46875 h 0.11719 q 0.46875,-0.234375 0.46875,-0.703125 l -0.46875,-0.351562 z m -2.34375,0.351562 -0.35157,0.46875 v 0.117188 l 0.46875,0.46875 q 0.52735,-0.234375 0.58594,-0.46875 V 52.1875 q -0.11719,-0.351563 -0.70312,-0.351563 z m -2.34375,0.234375 -0.35157,0.46875 0.11719,0.585938 h 0.70313 l 0.11718,-0.585938 q -0.0586,-0.234375 -0.58593,-0.46875 z m -2.8125,0.9375 q 0.17578,0.46875 0.35156,0.46875 h 0.35156 q 0.23438,0 0.23438,-0.234375 v -0.351562 q 0,-0.175781 -0.46875,-0.46875 -0.23438,0.05859 -0.46875,0.585937 z m 8.67187,-0.117187 v 0.351562 q 0,0.234375 0.70313,0.351563 0.35156,-0.46875 0.35156,-0.703125 -0.38086,-0.351563 -0.58594,-0.351563 -0.46875,0.175782 -0.46875,0.351563 z m -2.46094,0.46875 q 0.20508,0.585937 0.70313,0.585937 0.35156,-0.46875 0.35156,-0.703125 -0.23437,0 -0.23437,-0.351562 h -0.46875 q -0.17579,0 -0.35157,0.46875 z m -2.46093,0.46875 q 0.0586,0 0.58593,0.46875 0.17578,0 0.46875,-0.46875 V 53.59375 q 0,-0.175781 -0.35156,-0.351563 h -0.35156 q -0.20508,0 -0.35156,0.585938 z m -2.34375,0.351562 q 0,0.146485 0.58593,0.46875 l 0.35157,-0.46875 v -0.46875 q -0.46875,0 -0.46875,-0.234375 -0.46875,0.117188 -0.46875,0.703125 z m -2.46094,0.234375 q 0.11719,0.46875 0.70312,0.46875 l 0.35157,-0.46875 v -0.117187 q -0.0586,-0.234375 -0.58594,-0.46875 -0.46875,0.117187 -0.46875,0.585937 z m 8.67187,0 v 0.234375 Q 192.23828,55 192.82422,55 l 0.35156,-0.46875 v -0.117188 q 0,-0.175781 -0.35156,-0.351562 h -0.35156 q -0.17579,0 -0.35157,0.351562 z m -21.91406,0 q 0,0.205079 -0.35156,0.585938 0,0.175781 0.46875,0.46875 h 0.23437 q 0.17578,0 0.35157,-0.351563 v -0.46875 q -0.17579,0 -0.46875,-0.234375 z m 19.45313,0.351563 V 55 q 0,0.234375 0.70312,0.351562 0,-0.234375 0.35156,-0.234375 v -0.351562 q 0,-0.175781 -0.35156,-0.351563 h -0.35156 q -0.17578,0 -0.35156,0.351563 z m 9.72656,0.117187 v 0.351563 q 0,0.351562 0.46875,0.351562 0.46875,-0.117187 0.46875,-0.703125 l -0.46875,-0.351562 h -0.11719 q -0.17578,0 -0.35156,0.351562 z m -31.875,0.351563 v 0.234375 q 0,0.175781 0.35156,0.351562 h 0.23438 q 0.11718,0 0.46875,-0.46875 -0.23438,-0.527343 -0.46875,-0.585937 h -0.11719 q -0.17578,0 -0.46875,0.46875 z M 187.31641,55 v 0.351562 q 0,0.263672 0.58593,0.351563 0.35157,-0.380859 0.35157,-0.585938 -0.11719,-0.234375 -0.11719,-0.351562 h -0.58594 Q 187.31641,54.794922 187.31641,55 Z m 9.84375,-0.117188 q -0.35157,0.439454 -0.35157,0.703125 0.46875,0.234375 0.46875,0.351563 0.52735,0 0.70313,-0.703125 -0.43945,-0.351563 -0.82031,-0.351563 z m -12.30469,0.820313 0.58594,0.351562 q 0,-0.234375 0.35156,-0.234375 v -0.46875 q 0,-0.292968 -0.46875,-0.351562 -0.46875,0.117187 -0.46875,0.703125 z m -19.57031,-0.585938 q 0,0.175782 -0.23438,0.46875 v 0.117188 q 0,0.175781 0.46875,0.46875 0.58594,-0.205078 0.58594,-0.703125 l -0.46875,-0.351563 z m 29.17968,0.46875 v 0.234375 q 0,0.175782 0.35157,0.351563 h 0.46875 q 0,-0.175781 0.23437,-0.46875 -0.23437,-0.46875 -0.58594,-0.46875 -0.46875,0.175781 -0.46875,0.351562 z M 162.82422,55.46875 q 0,0.175781 -0.23438,0.46875 v 0.117187 q 0,0.175782 0.35157,0.351563 h 0.35156 q 0.17578,0 0.35156,-0.351563 v -0.234375 q -0.11719,-0.351562 -0.70312,-0.351562 z m 8.4375,0.703125 0.46875,0.351562 h 0.11719 q 0.17578,0 0.46875,-0.46875 V 55.9375 q -0.23438,-0.46875 -0.58594,-0.46875 -0.46875,0.117187 -0.46875,0.703125 z m -10.66406,-0.46875 q -0.46875,0.527344 -0.46875,0.585937 0,0.175782 0.46875,0.46875 h 0.23437 q 0.11719,0 0.46875,-0.46875 -0.0586,-0.351562 -0.70312,-0.585937 z m 8.55468,0.117187 q -0.23437,0.46875 -0.35156,0.46875 0.20508,0.585938 0.70313,0.585938 l 0.35156,-0.46875 v -0.234375 q -0.11719,-0.351563 -0.70313,-0.351563 z m 29.0625,0.820313 q 0.46875,0.351562 0.70313,0.351562 l 0.35156,-0.46875 v -0.234375 q 0,-0.175781 -0.35156,-0.351562 -0.70313,0 -0.70313,0.703125 z m -11.71875,-0.585938 -0.35156,0.46875 q 0.17578,0.46875 0.35156,0.46875 h 0.11719 L 187.19922,56.875 v -0.46875 q -0.11719,-0.351563 -0.70313,-0.351563 z m -20.15625,0.585938 q 0.0879,0.322266 0.58594,0.585937 h 0.11719 q 0.46875,-0.234375 0.46875,-0.703125 l -0.46875,-0.351562 h -0.23438 q -0.11718,0 -0.46875,0.46875 z M 195.87109,56.40625 V 56.875 q 0.0586,0.234375 0.58594,0.46875 l 0.35156,-0.46875 v -0.234375 q 0,-0.175781 -0.35156,-0.351563 z m -12.07031,0.351562 0.11719,0.585938 h 0.46875 q 0.23437,-0.05859 0.46875,-0.585938 l -0.46875,-0.351562 h -0.23438 q -0.17578,0 -0.35156,0.351562 z M 163.99609,56.875 v 0.234375 q 0.23438,0.46875 0.70313,0.46875 0.35156,-0.46875 0.35156,-0.703125 l -0.46875,-0.351563 h -0.23437 q -0.17579,0 -0.35157,0.351563 z m -2.34375,0.234375 v 0.585937 l 0.58594,0.117188 q 0.35156,-0.117188 0.35156,-0.703125 -0.46875,-0.234375 -0.46875,-0.351563 -0.46875,0.175782 -0.46875,0.351563 z m 32.46094,-0.351563 q 0,0.46875 -0.46875,0.46875 v 0.117188 q 0,0.234375 0.35156,0.234375 0.23438,-0.117188 0.35157,-0.117188 v -0.703125 z m -23.90625,0.9375 0.70313,0.351563 0.35156,-0.46875 V 57.34375 q 0,-0.175781 -0.35156,-0.351563 -0.70313,0 -0.70313,0.703125 z m -2.34375,-0.234375 v 0.703125 q 0.61524,0.117188 0.70313,0.117188 l 0.23437,-0.351563 v -0.234375 q 0,-0.175781 -0.35156,-0.351562 z m 17.34375,0.585938 q 0.17578,0.46875 0.35156,0.46875 h 0.23438 q 0.17578,0 0.35156,-0.351563 0,-0.585937 -0.46875,-0.703125 -0.46875,0.117188 -0.46875,0.585938 z m 11.95313,0 q 0.43945,0.351562 0.82031,0.351562 l 0.35156,-0.585937 q -0.23437,0 -0.23437,-0.351563 h -0.58594 q -0.26367,0 -0.35156,0.585938 z m -31.75782,0.117187 q 0.11719,0.46875 0.70313,0.46875 0.23437,-0.46875 0.35156,-0.46875 -0.17578,-0.46875 -0.35156,-0.46875 h -0.35156 q -0.29297,0 -0.35157,0.46875 z m 9.96094,-0.351562 -0.35156,0.46875 v 0.234375 q 0.11719,0.351562 0.70312,0.351562 l 0.35157,-0.46875 V 58.28125 q -0.23438,-0.46875 -0.70313,-0.46875 z m 7.61719,0 q 0,0.175781 -0.23438,0.46875 v 0.117187 q 0,0.175782 0.46875,0.46875 h 0.11719 q 0.17578,0 0.35156,-0.351562 V 58.164062 Q 183.56641,57.8125 182.98047,57.8125 Z m 11.83594,0.234375 v 0.351562 q 0.11718,0.351563 0.70312,0.351563 0.35156,-0.46875 0.35156,-0.703125 L 195.51953,57.8125 h -0.46875 q -0.23437,0.0293 -0.23437,0.234375 z m -31.875,0.585937 q 0.46875,0.351563 0.70312,0.351563 0.35156,-0.380859 0.35156,-0.585938 -0.11718,-0.234375 -0.11718,-0.351562 h -0.58594 q -0.26367,0 -0.35156,0.585937 z m 23.55468,0.585938 0.46875,0.351562 q 0,-0.322265 0.58594,-0.351562 v -0.234375 q 0,-0.175781 -0.46875,-0.46875 -0.58594,0.175781 -0.58594,0.703125 z m 9.72657,-0.117188 v 0.351563 q 0,0.175781 0.46875,0.351562 0.46875,-0.117187 0.46875,-0.703125 0,-0.117187 -0.46875,-0.351562 -0.46875,0.175781 -0.46875,0.351562 z m -19.80469,0.117188 v 0.351562 q 0.11719,0.351563 0.70312,0.351563 l 0.23438,-0.351563 V 59.21875 q 0,-0.292969 -0.46875,-0.351563 -0.46875,0.175782 -0.46875,0.351563 z m 7.73437,0 v 0.351562 q 0.11719,0.351563 0.70313,0.351563 0.35156,-0.46875 0.35156,-0.703125 -0.38086,-0.351563 -0.58594,-0.351563 -0.46875,0.175782 -0.46875,0.351563 z m 9.60938,0.234375 0.11719,0.585937 h 0.58593 q 0.23438,0 0.23438,-0.234375 v -0.351562 q 0,-0.175781 -0.46875,-0.351563 -0.46875,0.175782 -0.46875,0.351563 z M 181.69141,59.6875 q 0.20507,0.585937 0.70312,0.585937 l 0.23438,-0.351562 v -0.117188 l -0.11719,-0.585937 h -0.46875 q -0.17578,0 -0.35156,0.46875 z m -7.73438,-0.117188 v 0.234375 h 0.11719 v -0.234375 z m 17.34375,0.234375 v 0.234375 h 0.11719 v -0.234375 z m -19.80469,0.117188 v 0.234375 h 0.11719 v -0.234375 z m 26.36719,0 -0.35156,0.46875 v 0.117187 q 0.0586,0.234375 0.58594,0.46875 0.46875,-0.175781 0.46875,-0.351562 v -0.351563 q -0.11719,-0.351562 -0.70313,-0.351562 z m -12.30469,0.46875 0.11719,0.585937 h 0.46875 q 0.17578,0 0.35156,-0.351562 v -0.234375 q 0,-0.175781 -0.35156,-0.351563 h -0.23437 q -0.17579,0 -0.35157,0.351563 z m 9.96094,-0.234375 -0.35156,0.46875 v 0.234375 q 0.0586,0.234375 0.58594,0.46875 0.46875,-0.585938 0.46875,-0.703125 -0.58594,-0.46875 -0.70313,-0.46875 z m -31.875,0.234375 q -0.35156,0.439453 -0.35156,0.820312 0.46875,0.234375 0.46875,0.351563 0.58594,-0.175781 0.58594,-0.820313 z m 19.45313,0.703125 0.35156,0.234375 0.58594,-0.117188 V 60.625 q 0,-0.234375 -0.23438,-0.234375 h -0.35156 q -0.35156,0.117187 -0.35156,0.703125 z m 9.96093,-0.585938 q -0.35156,0.38086 -0.35156,0.585938 0.17578,0.46875 0.35156,0.46875 h 0.46875 q 0.23438,-0.644531 0.23438,-0.703125 -0.43945,-0.351563 -0.70313,-0.351563 z m -8.20312,0.820313 -0.35156,0.46875 v 0.234375 q 0,0.175781 0.35156,0.351562 h 0.46875 q 0,-0.205078 0.23437,-0.585937 -0.58593,-0.46875 -0.70312,-0.46875 z m 11.71875,0.234375 v 0.351562 q 0.0586,0.234375 0.58594,0.46875 l 0.35156,-0.46875 v -0.234375 q 0,-0.175781 -0.35156,-0.351562 h -0.35157 q -0.23437,0.0293 -0.23437,0.234375 z m -19.80469,0.234375 v 0.234375 q 0.26367,0 0.70313,0.351562 l 0.23437,-0.351562 v -0.234375 q 0,-0.175781 -0.35156,-0.351563 h -0.23438 q -0.17578,0 -0.35156,0.351563 z m -12.07031,0.117187 v 0.234375 q 0,0.117188 0.46875,0.46875 0.32226,-0.08789 0.58594,-0.585937 v -0.117188 q -0.58594,0 -0.58594,-0.351562 h -0.11719 q -0.17578,0 -0.35156,0.351562 z m 29.41406,0.351563 q 0.0586,0.234375 0.58594,0.46875 l 0.35156,-0.46875 q 0,-0.585938 -0.46875,-0.703125 -0.46875,0.117187 -0.46875,0.703125 z m -11.71875,-0.585938 q -0.35156,0.38086 -0.35156,0.585938 0.17578,0.46875 0.35156,0.46875 l 0.58594,-0.117188 v -0.234375 q 0,-0.644531 -0.58594,-0.703125 z m 9.49219,0.234375 q 0,0.175782 -0.23438,0.46875 v 0.351563 q 0.17578,0 0.46875,0.234375 h 0.11719 q 0.17578,0 0.46875,-0.46875 v -0.117188 q 0,-0.175781 -0.46875,-0.46875 z m -17.57813,0.117188 v 0.234375 h 0.11719 V 62.03125 Z m -2.46093,0.351562 v 0.234375 h 0.11718 v -0.234375 z m 6.21093,0.703125 q 0.20508,0.46875 0.82032,0.46875 l 0.23437,-0.351562 v -0.46875 q -0.17578,0 -0.46875,-0.234375 h -0.11719 q -0.14648,0 -0.46875,0.585937 z M 166.10547,62.96875 q 0.0879,0.703125 0.35156,0.703125 h 0.23438 q 0.23437,0 0.23437,-0.234375 -0.58594,0 -0.58594,-0.703125 -0.23437,0.0293 -0.23437,0.234375 z m 29.64844,-0.234375 -0.23438,0.351562 V 63.4375 q 0,0.175781 0.46875,0.351562 l 0.58594,-0.46875 q -0.17578,-0.585937 -0.82031,-0.585937 z m -12.07032,0.117187 -0.35156,0.585938 q 0.52734,0.46875 0.58594,0.46875 0.46875,-0.175781 0.46875,-0.351563 v -0.351562 q -0.11719,-0.351563 -0.70313,-0.351563 z m 9.375,0.585938 q 0,0.498047 0.46875,0.703125 0.32227,-0.08789 0.58594,-0.585938 0,-0.175781 -0.46875,-0.46875 h -0.23437 q -0.17579,0 -0.35157,0.351563 z m -11.71875,-0.234375 q 0,0.234375 -0.23437,0.234375 0.35156,0.527344 0.35156,0.703125 h 0.23438 q 0.35156,-0.117188 0.35156,-0.703125 -0.38086,-0.234375 -0.70313,-0.234375 z m 9.25782,0.703125 q 0.17578,0.46875 0.35156,0.46875 h 0.35156 q 0.23438,0 0.23438,-0.234375 v -0.46875 q 0,-0.234375 -0.23438,-0.234375 h -0.35156 q -0.11719,0 -0.35156,0.46875 z m -5.74219,0.351562 v 0.351563 q 0,0.175781 0.46875,0.351562 L 185.91016,64.375 q -0.29297,0 -0.35157,-0.46875 -0.70312,0.05859 -0.70312,0.351562 z m 9.84375,-0.117187 -0.23438,0.351562 0.11719,0.585938 h 0.58594 q 0.23437,0 0.23437,-0.234375 v -0.351563 q -0.11718,-0.351562 -0.70312,-0.351562 z m -12.30469,0.46875 v 0.234375 q 0,0.117187 0.46875,0.46875 0.46875,-0.175781 0.46875,-0.351563 V 64.84375 l -0.11719,-0.585938 h -0.46875 q -0.17578,0 -0.35156,0.351563 z m 9.60938,0.234375 v 0.234375 q 0,0.175781 0.35156,0.351562 h 0.35156 q 0.17578,0 0.35156,-0.46875 -0.11718,-0.46875 -0.70312,-0.46875 -0.17578,0 -0.35156,0.351563 z m -17.34375,-0.234375 v 0.234375 h 0.11718 v -0.234375 z m 14.88281,0.703125 q 0.17578,0.46875 0.35156,0.46875 h 0.35156 q 0.35157,-0.117188 0.35157,-0.703125 l -0.23438,-0.117188 h -0.11719 q -0.70312,0.263672 -0.70312,0.351563 z m -5.85938,0.703125 0.46875,0.351562 h 0.23438 q 0.17578,0 0.35156,-0.351562 v -0.351563 q 0,-0.234375 -0.23437,-0.234375 h -0.35157 q -0.23437,0.05859 -0.46875,0.585938 z m 9.72657,0 V 66.25 q 0,0.175781 0.35156,0.351562 h 0.23437 q 0.23438,-0.05859 0.46875,-0.585937 l -0.58593,-0.46875 q -0.17579,0 -0.46875,0.46875 z m -2.10938,-0.117188 q -0.23437,0.46875 -0.35156,0.46875 0.23437,0.38086 0.23437,0.585938 h 0.11719 l 0.58594,-0.117188 V 66.25 q 0,-0.263672 -0.58594,-0.351563 z m -9.02344,0.234375 v 0.234375 h 0.11719 v -0.234375 z m 6.79688,0.9375 V 67.1875 h 0.35156 q 0.11719,-0.410156 0.11719,-0.46875 h -0.11719 q -0.17578,0 -0.35156,0.351562 z m 3.28125,0.585938 q 0.11719,0.351562 0.70312,0.351562 0.35157,-0.46875 0.35157,-0.703125 -0.38086,-0.351562 -0.58594,-0.351562 -0.46875,0.117187 -0.46875,0.703125 z m -2.46094,0.351562 q 0.46875,0.351563 0.70313,0.351563 0.35156,-0.46875 0.35156,-0.703125 -0.38086,-0.351563 -0.58594,-0.351563 -0.46875,0.117188 -0.46875,0.703125 z m -17.34375,-0.585937 v 0.234375 h 0.11719 v -0.234375 z m -1.64062,0.9375 q -0.35157,0.380859 -0.35157,0.585937 0.11719,0.46875 0.58594,0.46875 0.46875,-0.117187 0.46875,-0.585937 -0.11719,0 -0.70312,-0.46875 z m 20.39062,0.585937 q 0.17578,0.46875 0.35156,0.46875 h 0.23438 q 0.17578,0 0.35156,-0.351562 l -0.11719,-0.585938 h -0.46875 q -0.17578,0 -0.35156,0.46875 z m -8.67187,-0.351562 v 0.234375 h 0.11718 V 68.59375 Z m 6.21093,0.703125 q 0.11719,0.46875 0.70313,0.46875 0,-0.234375 0.35156,-0.234375 0,-0.615234 -0.35156,-0.703125 h -0.35156 q -0.17579,0 -0.35157,0.46875 z m 4.21875,0.117187 q 0,0.175782 -0.46875,0.46875 0.23438,0.527344 0.46875,0.585938 h 0.23438 q 0.17578,0 0.35156,-0.351563 v -0.46875 q -0.20508,0 -0.58594,-0.234375 z M 171.96484,70 v 0.117187 q 0,0.175782 0.46875,0.46875 h 0.11719 q 0.23438,-0.05859 0.46875,-0.585937 -0.70312,0 -0.70312,-0.351563 -0.17579,0 -0.35157,0.351563 z m 18.63282,-0.234375 q -0.35157,0.380859 -0.35157,0.585937 0.17578,0.46875 0.35157,0.46875 h 0.23437 q 0.46875,-0.234375 0.46875,-0.703125 -0.43945,-0.351562 -0.70312,-0.351562 z m -2.46094,0.351562 -0.23438,0.351563 v 0.351562 q 0,0.351563 0.46875,0.351563 0.23438,-0.117188 0.35157,-0.117188 V 70.46875 q 0,-0.263672 -0.58594,-0.351563 z m 3.51562,1.40625 q 0.17578,0.46875 0.35157,0.46875 h 0.23437 q 0.17578,0 0.35156,-0.351562 v -0.351563 q 0,-0.175781 -0.35156,-0.351562 h -0.23437 q -0.26368,0 -0.35157,0.585937 z m -18.28125,-0.46875 v 0.351563 h 0.23438 q -0.11719,-0.234375 -0.11719,-0.351563 z m 15.82032,0.9375 0.46875,0.351563 q 0.17578,0 0.58593,-0.46875 -0.0586,-0.585938 -0.70312,-0.585938 -0.35156,0.117188 -0.35156,0.703125 z m 1.40625,0.703125 v 0.234375 q 0.23437,0.46875 0.70312,0.46875 0.35156,-0.46875 0.35156,-0.703125 l -0.46875,-0.351562 h -0.23437 q -0.17578,0 -0.35156,0.351562 z m -2.10938,0 V 72.8125 q 0.17578,0 0.46875,0.234375 h 0.11719 v -0.117188 q 0,-0.234375 -0.23438,-0.234375 z m -14.76562,0.820313 V 73.75 q 0,0.351562 0.46875,0.351562 0.46875,-0.175781 0.46875,-0.351562 v -0.46875 l -0.58594,-0.117188 q -0.17578,0 -0.35156,0.351563 z M 183.21484,73.75 v 0.234375 h 0.11719 V 73.75 Z m 6.32813,0.585937 q 0.58594,0 0.58594,0.351563 h 0.11718 q 0.23438,0 0.23438,-0.234375 v -0.351563 q 0,-0.234375 -0.23438,-0.234375 h -0.35156 q -0.17578,0 -0.35156,0.46875 z M 175.36328,74.21875 q -0.35156,0.439453 -0.35156,0.703125 0.38086,0.351562 0.58594,0.351562 0.46875,-0.175781 0.46875,-0.351562 v -0.351563 q -0.11719,-0.351562 -0.70313,-0.351562 z m -2.46094,0.351562 -0.35156,0.46875 q 0.0293,0.322266 0.58594,0.585938 0.58594,-0.205078 0.58594,-0.703125 -0.43946,-0.351563 -0.82032,-0.351563 z m 18.39844,0.234375 q 0,0.234375 -0.35156,0.234375 v 0.351563 q 0,0.175781 0.46875,0.46875 0.17578,0 0.58594,-0.46875 -0.17579,-0.585938 -0.70313,-0.585938 z m -14.88281,0.9375 v 0.117188 q 0.23437,0.46875 0.70312,0.46875 l 0.35157,-0.46875 v -0.117188 q 0,-0.175781 -0.46875,-0.46875 h -0.11719 q -0.17578,0 -0.46875,0.46875 z m -2.34375,0 v 0.703125 q 0.17578,0 0.46875,0.234375 0.17578,0 0.46875,-0.46875 v -0.234375 q 0,-0.175781 -0.35156,-0.351562 z m 9.49219,0.46875 v 0.234375 q 0.23437,0 0.23437,-0.234375 z m -7.96875,0.585938 q 0,0.175781 -0.23438,0.46875 0.11719,0.46875 0.70313,0.46875 0.17578,0 0.35156,-0.351563 v -0.234375 q 0,-0.175781 -0.35156,-0.351562 z m -2.69532,0.9375 q 0.43946,0.351562 0.82032,0.351562 l 0.35156,-0.46875 q 0,-0.175781 -0.46875,-0.585937 -0.52735,0 -0.70313,0.703125 z m 3.86719,0.46875 V 78.4375 q 0.0293,0.234375 0.23438,0.234375 l 0.46875,-0.820313 q -0.11719,0 -0.11719,-0.117187 -0.52735,0.234375 -0.58594,0.46875 z m -2.34375,0.234375 v 0.351562 q 0,0.175782 0.35156,0.351563 h 0.23438 q 0.17578,0 0.35156,-0.351563 v -0.234375 q 0,-0.117187 -0.46875,-0.46875 -0.46875,0.175782 -0.46875,0.351563 z m -2.46094,0.351562 v 0.351563 q 0,0.175781 0.35157,0.351562 h 0.23437 q 0.17578,0 0.35156,-0.351562 v -0.351563 q 0,-0.175781 -0.46875,-0.351562 -0.46875,0.175781 -0.46875,0.351562 z m 11.95313,0 v 0.234375 h 0.11719 v -0.234375 z m -7.85156,0.46875 -0.35157,0.46875 v 0.117188 q 0,0.175781 0.46875,0.46875 l 0.58594,-0.46875 v -0.234375 q -0.11719,-0.351563 -0.70312,-0.351563 z m -2.46094,0.351563 q -0.23438,0.46875 -0.35156,0.46875 0.17578,0.46875 0.35156,0.46875 h 0.58594 q 0,-0.205078 0.23437,-0.585938 -0.43945,-0.351562 -0.82031,-0.351562 z m 21.32812,0.117187 v 0.234375 h 0.11719 v -0.234375 z m -23.67187,0.117188 -0.35156,0.46875 v 0.234375 q 0,0.175781 0.35156,0.351562 h 0.46875 q 0,-0.205078 0.23437,-0.585937 -0.58593,-0.46875 -0.70312,-0.46875 z m 22.73437,0 v 0.351562 h 0.11719 V 79.84375 Z m -13.47656,0.703125 v 0.351562 q 0.38086,0.234375 0.70313,0.234375 l 0.23437,-0.351562 h -0.11719 l -0.58593,0.117187 q -0.11719,-0.234375 -0.11719,-0.351562 z m -5.85937,0.585937 q 0.20507,0.585938 0.70312,0.585938 L 175.71484,81.25 v -0.234375 q 0,-0.175781 -0.35156,-0.351563 h -0.35156 q -0.11719,0 -0.35156,0.46875 z m 20.85937,-0.117187 q 0.58594,0 0.58594,0.585937 h 0.23437 l 0.11719,-0.585937 -0.46875,-0.351563 h -0.11719 q -0.17578,0 -0.35156,0.351563 z m -23.20312,0.351562 v 0.234375 q 0,0.175782 0.35156,0.351563 h 0.23437 q 0.17578,0 0.35157,-0.351563 l -0.11719,-0.585937 h -0.46875 q -0.17578,0 -0.35156,0.351562 z m 9.96093,-0.234375 q -0.46875,0.527344 -0.46875,0.585938 0,0.175781 0.46875,0.46875 h 0.23438 q 0.17578,0 0.35156,-0.351563 -0.14648,-0.498046 -0.58594,-0.703125 z M 184.26953,81.25 v 0.234375 h 0.11719 V 81.25 Z m -14.41406,0.46875 v 0.234375 q 0.11719,0.351562 0.70312,0.351562 l 0.35157,-0.46875 V 81.71875 q 0,-0.175781 -0.35157,-0.351563 h -0.35156 q -0.17578,0 -0.35156,0.351563 z m 10.3125,-0.117188 q -0.11719,0.820313 -0.11719,0.9375 0.11719,0 0.46875,-0.46875 -0.17578,-0.46875 -0.35156,-0.46875 z m 16.64062,0.820313 q 0.46875,0 0.46875,0.351562 h 0.11719 q 0.11719,0 0.46875,-0.46875 -0.23437,-0.527343 -0.46875,-0.585937 h -0.23437 q -0.35157,0.117187 -0.35157,0.703125 z m -23.20312,0.351562 q 0.43945,0.351563 0.82031,0.351563 l 0.23438,-0.351563 v -0.351562 q 0,-0.234375 -0.23438,-0.234375 h -0.46875 q -0.26367,0 -0.35156,0.585937 z m 3.39844,-0.585937 v 0.234375 h 0.11718 V 82.1875 Z m 17.34375,0.234375 v 0.234375 h 0.11718 v -0.234375 z m -23.08594,0.351562 V 83.125 q 0,0.175781 0.46875,0.351562 0.46875,-0.175781 0.46875,-0.351562 v -0.351563 q 0,-0.234375 -0.23438,-0.234375 h -0.46875 q -0.23437,0.0293 -0.23437,0.234375 z m 9.84375,-0.117187 -0.35156,0.585937 q 0.52734,0.46875 0.58593,0.46875 0.58594,-0.205078 0.58594,-0.703125 -0.43945,-0.351562 -0.82031,-0.351562 z m -12.30469,0.585937 q 0,0.175782 0.46875,0.585938 0.58594,-0.205078 0.58594,-0.703125 -0.38086,-0.351563 -0.58594,-0.351563 -0.38086,0.117188 -0.46875,0.46875 z m 14.53125,-0.46875 v 0.234375 q 0,0.175782 0.35156,0.351563 h 0.35157 v -0.117188 q -0.43946,0 -0.70313,-0.46875 z m 14.88281,0.46875 v 0.234375 q 0,0.146485 0.58594,0.46875 0,-0.05859 0.46875,-0.585937 -0.11719,-0.46875 -0.70312,-0.46875 -0.17579,0 -0.35157,0.351562 z m -25.54687,0.585938 v 0.351562 q 0.0293,0.234375 0.23437,0.234375 h 0.46875 q 0.23438,0 0.23438,-0.234375 v -0.351562 q 0,-0.175781 -0.46875,-0.351563 -0.46875,0.175782 -0.46875,0.351563 z m 9.49219,0.585937 q 0.43945,0.351563 0.82031,0.351563 0,-0.205078 0.35156,-0.585938 0,-0.175781 -0.46875,-0.46875 h -0.23437 q -0.46875,0.234375 -0.46875,0.703125 z m -12.07032,-0.117187 q 0.11719,0.46875 0.70313,0.46875 h 0.11719 q 0.35156,-0.117188 0.35156,-0.703125 -0.38086,-0.234375 -0.70313,-0.234375 -0.17578,0 -0.46875,0.46875 z m 9.72657,0.117187 v 0.234375 q 0,0.117188 0.46875,0.46875 Q 180.75391,85 180.75391,84.414062 v -0.117187 q 0,-0.234375 -0.23438,-0.234375 h -0.35156 q -0.17578,0 -0.35156,0.351562 z m 7.73437,0.117188 v 0.234375 h 0.11719 V 84.53125 Z m -15.58594,0.351562 -0.35156,0.46875 v 0.234375 q 0,0.175782 0.35156,0.351563 h 0.46875 q 0,-0.205078 0.23438,-0.585938 -0.58594,-0.46875 -0.70313,-0.46875 z m 11.71875,0.234375 v 0.351563 q 0,0.351562 0.46875,0.351562 0.46875,-0.175781 0.46875,-0.351562 v -0.234375 q 0,-0.175781 -0.35156,-0.351563 h -0.35156 q -0.23438,0.0293 -0.23438,0.234375 z m 11.01563,-0.234375 v 0.351563 h 0.11719 v -0.351563 z m -25.19531,0.351563 q -0.35157,0.380859 -0.35157,0.585937 0.17578,0.46875 0.35157,0.46875 h 0.35156 q 0.11719,0 0.35156,-0.46875 -0.17578,-0.585937 -0.70312,-0.585937 z m 11.83593,0 q 0,0.205078 -0.23437,0.585937 0.43945,0.351563 0.82031,0.351563 0,-0.175781 0.35156,-0.351563 -0.14648,-0.585937 -0.35156,-0.585937 z m 5.15625,0.9375 v 0.117187 q 0.17578,0 0.46875,0.234375 h 0.11719 l 0.46875,-0.351562 q -0.11719,-0.703125 -0.58594,-0.703125 -0.46875,0.117187 -0.46875,0.703125 z M 178.76172,85.9375 v 0.234375 q 0.11719,0.351562 0.70312,0.351562 l 0.35157,-0.46875 V 85.9375 q 0,-0.175781 -0.35157,-0.351563 h -0.35156 q -0.17578,0 -0.35156,0.351563 z m -5.85938,0.703125 0.23438,0.117187 0.23437,-0.703125 h -0.11718 q -0.20508,0 -0.35157,0.585938 z m 10.07813,-0.46875 q -0.46875,0.380859 -0.46875,0.703125 0.38086,0.351562 0.58594,0.351562 0.46875,-0.175781 0.46875,-0.351562 v -0.46875 q -0.20508,0 -0.58594,-0.234375 z m -12.1875,0.117187 -0.35156,0.585938 q 0.20507,0.46875 0.82031,0.46875 l 0.35156,-0.46875 v -0.117188 q -0.17578,-0.46875 -0.82031,-0.46875 z m 9.375,0.9375 q 0,0.175782 0.46875,0.351563 0.46875,-0.175781 0.46875,-0.351563 V 86.875 q 0,-0.117188 -0.46875,-0.351563 -0.46875,0.117188 -0.46875,0.703125 z m 7.96875,-0.703125 -0.23438,0.351563 v 0.351562 q 0,0.175782 0.46875,0.351563 0.32227,-0.08789 0.58594,-0.585938 -0.17578,-0.46875 -0.82031,-0.46875 z m -20.03906,0.46875 v 0.46875 q 0.17578,0 0.46875,0.234375 h 0.11718 q 0.17578,0 0.46875,-0.46875 v -0.117187 q 0,-0.175781 -0.46875,-0.46875 h -0.23437 q -0.17578,0 -0.35156,0.351562 z m 10.07812,0.820313 h 0.23438 q 0.17578,0 0.35156,-0.46875 -0.11719,-0.234375 -0.11719,-0.351563 -0.17578,0 -0.46875,0.820313 z m -0.46875,-0.585938 v 0.234375 h 0.11719 v -0.234375 z m -5.74219,0.585938 v 0.351562 q 0.0293,0.234375 0.23438,0.234375 h 0.11719 q 0,-0.351562 0.58593,-0.351562 V 87.8125 q 0,-0.175781 -0.35156,-0.351563 h -0.23437 q -0.17579,0 -0.35157,0.351563 z m 23.08594,-0.351563 v 0.234375 h 0.11719 v -0.234375 z m -19.80469,0.117188 V 87.8125 h 0.11719 v -0.234375 z m 26.36719,0 v 0.117187 q 0.58594,0.08789 0.58594,0.585938 h 0.11719 v -0.351563 q 0,-0.175781 -0.35157,-0.351562 z m -20.15625,0.703125 q 0.52734,0.46875 0.58594,0.46875 0.46875,-0.175781 0.46875,-0.351563 v -0.351562 q 0,-0.175781 -0.35156,-0.351563 h -0.23438 q -0.23437,0.05859 -0.46875,0.585938 z m 7.85156,-0.234375 0.11719,0.585937 h 0.58594 q 0.23437,0 0.23437,-0.234375 v -0.234375 q -0.58593,0 -0.58593,-0.46875 -0.17579,0 -0.35157,0.351563 z m -19.80468,0.117187 v 0.234375 q 0,0.117188 0.46875,0.46875 0.46875,-0.175781 0.46875,-0.351562 v -0.351563 q 0,-0.175781 -0.35157,-0.351562 h -0.23437 q -0.17578,0 -0.35156,0.351562 z m 9.60937,0.234375 v 0.234375 q 0,0.175782 0.35156,0.351563 h 0.35157 q 0.35156,-0.117188 0.35156,-0.703125 l -0.58594,-0.351563 q -0.17578,0 -0.46875,0.46875 z m -12.07031,0.46875 0.35156,0.234375 h 0.35156 q 0.17578,0 0.35157,-0.46875 -0.17579,-0.46875 -0.35157,-0.46875 h -0.35156 q -0.35156,0.117188 -0.35156,0.703125 z m 35.97656,-0.234375 q 0,0.234375 -0.35156,0.234375 v 0.351563 q 0.58594,0 0.58594,0.351562 h 0.11718 q 0.35157,-0.117187 0.35157,-0.703125 -0.38086,-0.234375 -0.70313,-0.234375 z m -31.875,0.234375 -0.35156,0.46875 q 0,0.175782 0.46875,0.46875 h 0.23437 q 0.23438,-0.05859 0.46875,-0.585937 -0.43945,-0.351563 -0.82031,-0.351563 z m 9.49219,0.234375 -0.11719,0.585938 q 0,0.175781 0.35156,0.351562 h 0.23438 q 0.17578,0 0.35156,-0.351562 v -0.234375 q 0,-0.175781 -0.35156,-0.351563 z m -12.1875,0.46875 v 0.234375 q 0,0.175782 0.35156,0.351563 h 0.23438 q 0.11718,0 0.46875,-0.46875 -0.11719,-0.46875 -0.70313,-0.46875 -0.17578,0 -0.35156,0.351562 z m -2.34375,0.234375 v 0.46875 q 0.0293,0.234375 0.23437,0.234375 0.49805,0 0.70313,-0.46875 0,-0.175781 -0.46875,-0.585937 -0.46875,0.175781 -0.46875,0.351562 z m 12.07031,-0.351562 -0.11719,0.585937 q 0,0.175782 0.35157,0.351563 h 0.23437 q 0.17578,0 0.46875,-0.46875 -0.17578,-0.46875 -0.35156,-0.46875 z m 26.25,0.234375 q -0.35156,0.439453 -0.35156,0.703125 0.23437,0 0.23437,0.351562 h 0.46875 q 0.17578,0 0.35157,-0.46875 -0.17579,-0.585937 -0.70313,-0.585937 z m -9.02344,0.234375 v 0.351562 h 0.11719 v -0.351562 z m -13.59375,0.9375 0.46875,0.351562 h 0.23438 q 0.17578,0 0.35156,-0.351562 v -0.351563 q 0,-0.175781 -0.46875,-0.351562 -0.58594,0.175781 -0.58594,0.703125 z m 7.85157,-0.351563 q 0,0.585938 0.46875,0.703125 0.46875,-0.175781 0.46875,-0.351562 0,-0.703125 -0.46875,-0.703125 -0.46875,0.175781 -0.46875,0.351562 z m -19.80469,0.351563 q 0.17578,0.46875 0.35156,0.46875 h 0.23438 q 0.17578,0 0.35156,-0.351563 v -0.46875 q -0.17578,0 -0.46875,-0.234375 -0.46875,0.234375 -0.46875,0.585938 z m 9.60937,0 v 0.351562 q 0.11719,0.351563 0.70313,0.351563 0.35156,-0.46875 0.35156,-0.703125 l -0.58594,-0.351563 q -0.46875,0.175782 -0.46875,0.351563 z M 167.62891,90.625 q 0,0.175781 -0.23438,0.46875 v 0.117187 q 0,0.175782 0.46875,0.46875 0.58594,-0.205078 0.58594,-0.703125 Q 168.00977,90.625 167.62891,90.625 Z m 9.375,0.585937 v 0.234375 l 0.46875,0.46875 q 0.58593,-0.205078 0.58593,-0.703125 -0.38086,-0.351562 -0.58593,-0.351562 -0.46875,0.175781 -0.46875,0.351562 z m -11.71875,-0.234375 -0.35157,0.46875 V 91.5625 q 0,0.175781 0.35157,0.351562 h 0.35156 q 0.17578,0 0.35156,-0.351562 v -0.234375 q -0.11719,-0.351563 -0.70312,-0.351563 z m 37.73437,0.585938 v 0.351562 q 0.64453,0.234375 0.70313,0.234375 l 0.35156,-0.46875 V 91.5625 q 0,-0.117188 -0.46875,-0.46875 -0.52735,0.234375 -0.58594,0.46875 z m -2.34375,0 v 0.585937 q 0,0.263672 0.58594,0.351563 0.35156,-0.380859 0.35156,-0.585938 -0.17578,-0.46875 -0.35156,-0.46875 z m -19.57031,0 -0.23438,0.351562 v 0.351563 q 0,0.351562 0.46875,0.351562 0.46875,-0.175781 0.46875,-0.351562 V 91.914062 Q 181.69141,91.5625 181.10547,91.5625 Z m -12.30469,0.46875 v 0.351562 q 0,0.234375 0.70313,0.351563 0.35156,-0.46875 0.35156,-0.703125 -0.38086,-0.351563 -0.58594,-0.351563 -0.46875,0.175782 -0.46875,0.351563 z m 29.41406,0.117187 v 0.234375 q 0,0.175782 0.46875,0.46875 0.17578,0 0.46875,-0.46875 l -0.11718,-0.585937 h -0.46875 q -0.17579,0 -0.35157,0.351562 z m -19.57031,-0.234375 -0.23437,0.351563 V 92.5 q 0,0.175781 0.35156,0.351562 h 0.35156 q 0.0879,0 0.35156,-0.351562 -0.17578,-0.585938 -0.82031,-0.585938 z M 166.33984,92.5 q 0,0.175781 0.46875,0.585937 0.58594,-0.205078 0.58594,-0.703125 -0.23437,0 -0.23437,-0.351562 h -0.46875 q -0.17579,0 -0.35157,0.46875 z m 29.41407,0 v 0.234375 q 0,0.117187 0.46875,0.46875 0.32226,-0.08789 0.58593,-0.585938 -0.11718,-0.46875 -0.70312,-0.46875 -0.17578,0 -0.35156,0.351563 z m 8.67187,0.117187 v 0.234375 q 0,0.117188 0.46875,0.46875 0.32227,0 0.58594,-0.585937 -0.17578,-0.46875 -0.35156,-0.46875 h -0.35157 q -0.17578,0 -0.35156,0.351562 z m -40.54687,0.351563 q 0.52734,0.46875 0.58593,0.46875 0.46875,-0.234375 0.46875,-0.585938 -0.17578,-0.46875 -0.35156,-0.46875 h -0.35156 q -0.20508,0 -0.35156,0.585938 z m 12.77343,-0.585938 q 0,0.351563 -0.23437,0.351563 h -0.11719 L 175.94922,92.5 v 0.46875 q 0.17578,0 0.46875,0.234375 h 0.23437 Q 177.00391,93.085937 177.00391,92.5 l -0.23438,-0.117188 z m 25.3125,0.9375 q 0.38086,0.234375 0.70313,0.234375 0.17578,0 0.35156,-0.351562 V 92.96875 q 0,-0.175781 -0.35156,-0.351563 h -0.35156 q -0.35157,0.117188 -0.35157,0.703125 z m -21.79687,-0.351562 -0.35156,0.46875 v 0.234375 q 0,0.175781 0.35156,0.351562 h 0.23437 q 0.11719,0 0.46875,-0.46875 -0.0586,-0.351562 -0.70312,-0.585937 z m 19.33594,0.46875 q 0.11718,0.46875 0.70312,0.46875 0.17578,0 0.35156,-0.351563 v -0.234375 q 0,-0.175781 -0.35156,-0.351562 h -0.35156 q -0.11719,0 -0.35156,0.46875 z m -31.75782,0.117187 v 0.234375 q 0.11719,0.351563 0.70313,0.351563 l 0.35156,-0.46875 q -0.17578,-0.46875 -0.35156,-0.46875 h -0.35156 q -0.17579,0 -0.35157,0.351562 z m 9.96094,-0.234375 -0.35156,0.46875 v 0.234375 q 0,0.175782 0.35156,0.351563 h 0.23438 q 0.46875,-0.234375 0.46875,-0.703125 -0.43946,-0.351563 -0.70313,-0.351563 z m 19.45313,0.234375 v 0.351563 q 0.11718,0.351562 0.70312,0.351562 l 0.35156,-0.585937 q -0.23437,0 -0.23437,-0.351563 h -0.58594 q -0.23437,0.0293 -0.23437,0.234375 z m -31.875,0.351563 v 0.234375 q 0.11718,0.351562 0.70312,0.351562 0,-0.234375 0.35156,-0.234375 V 93.90625 q 0,-0.175781 -0.35156,-0.351563 h -0.35156 q -0.17578,0 -0.35156,0.351563 z m 29.41406,0.117187 q 0.23437,0.527344 0.46875,0.585938 h 0.11719 q 0.17578,0 0.35156,-0.351563 V 93.90625 q 0,-0.292969 -0.46875,-0.351563 -0.17578,0 -0.46875,0.46875 z m 14.29687,-0.117187 h 0.46875 v 0.117187 q 0,0.234375 -0.23437,0.234375 h -0.23438 z M 169.15234,94.375 v 0.234375 q 0.23438,0 0.23438,-0.234375 z m 9.72657,0.117187 -0.11719,0.585938 q 0.11719,0.351562 0.70312,0.351562 l 0.23438,-0.351562 v -0.351563 q 0,-0.234375 -0.23438,-0.234375 z m -2.22657,0.234375 -0.35156,0.46875 v 0.351563 q 0.17578,0 0.46875,0.234375 h 0.11719 q 0.17578,0 0.46875,-0.46875 v -0.117188 q -0.23438,-0.46875 -0.70313,-0.46875 z m -2.8125,0.820313 q 0.20508,0.585937 0.70313,0.585937 l 0.35156,-0.46875 v -0.117187 q -0.23437,-0.46875 -0.58594,-0.46875 -0.38086,0.117187 -0.46875,0.46875 z m -2.34375,0 v 0.46875 q 0.0586,0.234375 0.58594,0.46875 l 0.35156,-0.46875 V 95.78125 q 0,-0.175781 -0.35156,-0.351563 z m -2.46093,0.46875 v 0.351562 q 0.0586,0.234375 0.58593,0.46875 l 0.35157,-0.46875 v -0.351562 q 0,-0.234375 -0.23438,-0.234375 h -0.46875 q -0.23437,0.0293 -0.23437,0.234375 z M 177.70703,96.25 v 0.46875 q 0.46875,0.0293 0.46875,0.234375 0.32227,-0.08789 0.58594,-0.585938 0,-0.175781 -0.46875,-0.46875 h -0.23438 q -0.17578,0 -0.35156,0.351563 z m -15.82031,-0.117188 h 0.11719 q 0.23437,0.0293 0.23437,0.234375 0,0.234375 -0.23437,0.234375 l -0.11719,-0.234375 z m 13.35937,0.585938 q 0.11719,0.46875 0.70313,0.46875 0.17578,0 0.35156,-0.46875 Q 176.125,96.25 175.94922,96.25 h -0.35156 q -0.17579,0 -0.35157,0.46875 z m -2.46093,0.46875 0.46875,0.351562 h 0.23437 q 0.17578,0 0.35156,-0.351562 l -0.11718,-0.585938 h -0.58594 q -0.26367,0 -0.35156,0.585938 z m -2.34375,0 v 0.351562 q 0.11718,0.351563 0.70312,0.351563 0.23438,-0.46875 0.35156,-0.46875 -0.11718,-0.46875 -0.70312,-0.46875 h -0.11719 q -0.23437,0.0293 -0.23437,0.234375 z m -3.28125,2.34375 q 0.23437,0.0293 0.23437,0.234375 0,0.234375 -0.23437,0.234375 -0.23438,0 -0.23438,-0.234375 0.0293,-0.234375 0.23438,-0.234375 z" />
      <path
         id="path26"
         style="font-family:Metropolis;letter-spacing:0.075em"
         d="m 226.17016,100 h 8.88 V 66.76 h 12.84 v -7.98 h -34.56 v 7.98 h 12.84 z" />
      <path
         id="path28"
         style="font-family:Metropolis;letter-spacing:0.075em"
         d="m 290.05047,66.76 v -7.98 h -31.74 V 100 h 31.74 v -7.98 h -22.86 v -9.06 h 20.7 v -7.98 h -20.7 v -8.22 z" />
      <path
         id="path30"
         style="font-family:Metropolis;letter-spacing:0.075em"
         d="m 301.60797,100 h 8.82 V 74.32 l 12.78,23.28 12.72,-23.28 V 100 h 8.88 V 58.78 h -8.88 l -12.72,23.28 -12.78,-23.28 h -8.82 z" />
      <path
         id="path32"
         style="font-family:Metropolis;letter-spacing:0.075em"
         d="m 357.77922,100 h 8.82 V 86.62 h 9.72 c 8.94,0 15.54,-5.76 15.54,-13.92 0,-8.16 -6.6,-13.92 -15.54,-13.92 h -18.54 z m 8.82,-21.48 V 66.88 h 8.76 c 4.38,0 7.38,2.28 7.38,5.82 0,3.54 -3,5.82 -7.38,5.82 z" />
      <path
         id="path34"
         style="font-family:Metropolis;letter-spacing:0.075em"
         d="m 422.16859,100.72 c 11.94,0 21.9,-9.78 21.9,-21.36 0,-11.58 -9.96,-21.3 -21.9,-21.3 -11.82,0 -21.9,9.72 -21.9,21.3 0,11.58 10.08,21.36 21.9,21.36 z m 0,-8.04 c -6.9,0 -12.78,-6.12 -12.78,-13.32 0,-7.14 5.88,-13.26 12.78,-13.26 6.96,0 12.84,6.12 12.84,13.26 0,7.2 -5.88,13.32 -12.84,13.32 z" />
      <path
         id="path36"
         style="font-family:Metropolis;letter-spacing:0.075em"
         d="m 489.99859,100 -10.14,-14.4 c 5.64,-1.98 9.36,-6.78 9.36,-12.9 0,-8.16 -6.6,-13.92 -15.54,-13.92 h -18.54 V 100 h 8.82 V 86.62 h 6.54 l 9.42,13.38 z m -26.04,-33.12 h 8.76 c 4.38,0 7.38,2.28 7.38,5.82 0,3.54 -3,5.82 -7.38,5.82 h -8.76 z" />
      <path
         id="path38"
         style="font-family:Metropolis;letter-spacing:0.075em"
         d="m 530.54266,100 h 9.96 l -16.8,-41.22 h -9.9 l -16.8,41.22 h 9.9 l 2.64,-6.48 h 18.36 z m -17.94,-13.98 6.12,-15.06 6.12,15.06 z" />
      <path
         id="path40"
         style="font-family:Metropolis;letter-spacing:0.075em"
         d="m 550.27984,100 h 8.82 V 73.36 l 19.86,26.64 h 8.88 V 58.78 h -8.88 v 26.64 l -19.86,-26.64 h -8.82 z" />
      <path
         id="path42"
         style="font-family:Metropolis;letter-spacing:0.075em"
         d="m 632.56609,66.76 v -7.98 h -31.74 V 100 h 31.74 v -7.98 h -22.86 v -9.06 h 20.7 v -7.98 h -20.7 v -8.22 z" />
      <path
         id="path44"
         style="font-family:Metropolis;letter-spacing:0.075em"
         d="m 674.00359,100 h 9.96 l -16.8,-41.22 h -9.9 l -16.8,41.22 h 9.9 l 2.64,-6.48 h 18.36 z m -17.94,-13.98 6.12,-15.06 6.12,15.06 z" />
    </g>
  </g>
</svg>
