<?xml version="1.0" encoding="UTF-8" standalone="no"?>
<svg
   xmlns:dc="http://purl.org/dc/elements/1.1/"
   xmlns:cc="http://creativecommons.org/ns#"
   xmlns:rdf="http://www.w3.org/1999/02/22-rdf-syntax-ns#"
   xmlns:svg="http://www.w3.org/2000/svg"
   xmlns="http://www.w3.org/2000/svg"
   id="svg16"
   width="800px"
   version="1.1"
   height="200px">
  <metadata
     id="metadata20">
    <rdf:RDF>
      <cc:Work
         rdf:about="">
        <dc:format>image/svg+xml</dc:format>
        <dc:type
           rdf:resource="http://purl.org/dc/dcmitype/StillImage" />
      </cc:Work>
    </rdf:RDF>
  </metadata>
  <defs
     id="defs4">
    <style
       id="style2"
       type="text/css"><![CDATA[    
     @font-face {font-family:Metropolis;
     src: url('/Users/francesco/Repos/write-logos/src/fonts/Fonts_E_TEMPORANEA/Metropolis-Bold.otf');}
     @font-face {font-family:Monofett;
     src: url('/Users/francesco/Repos/write-logos/src/fonts/Fonts_X/Monofett-Regular.ttf');}
     ]]></style>
  </defs>
  <g
     id="g14"
     style="font-size:60px">
    <g
       style="text-anchor:middle"
       id="text12"
       aria-label="EXTEMPORANEA">
      <path
         id="path22"
         style="font-family:Metropolis;letter-spacing:0.075em"
         d="m 158.81219,66.76 v -7.98 h -31.74 V 100 h 31.74 v -7.98 h -22.86 v -9.06 h 20.7 v -7.98 h -20.7 v -8.22 z" />
      <path
         id="path24"
         style="font-family:Monofett;letter-spacing:0.05em"
         d="m 187.78516,59.863281 q 2.95898,0 5.36132,0.878906 2.40235,0.878907 4.07227,2.402344 1.69922,1.523438 2.60742,3.574219 0.9082,2.021484 0.9082,4.306641 v 17.8125 q 0,2.285156 -0.9082,4.335937 -0.9082,2.021484 -2.60742,3.544922 -1.66992,1.523437 -4.07227,2.402344 Q 190.74414,100 187.78516,100 h -9.02344 q -2.95899,0 -5.36133,-0.878906 -2.40234,-0.878907 -4.10156,-2.402344 -1.66992,-1.523438 -2.57813,-3.544922 -0.9082,-2.050781 -0.9082,-4.335937 v -17.8125 q 0,-2.285157 0.9082,-4.306641 0.90821,-2.050781 2.57813,-3.574219 1.69922,-1.523437 4.10156,-2.402344 2.40234,-0.878906 5.36133,-0.878906 z m 3.57421,2.578125 -6.65039,10.546875 -6.47461,-10.546875 -2.8125,1.201172 6.82618,11.044922 -6.76758,10.986328 2.7539,1.113281 6.47461,-10.195312 6.65039,10.195312 2.78321,-1.113281 -6.79688,-10.986328 6.91407,-11.162109 z" />
      <path
         id="path26"
         style="font-family:Metropolis;letter-spacing:0.075em"
         d="m 218.37719,100 h 8.88 V 66.76 h 12.84 v -7.98 h -34.56 v 7.98 h 12.84 z" />
      <path
         id="path28"
         style="font-family:Metropolis;letter-spacing:0.075em"
         d="m 282.2575,66.76 v -7.98 h -31.74 V 100 h 31.74 v -7.98 h -22.86 v -9.06 h 20.7 v -7.98 h -20.7 v -8.22 z" />
      <path
         id="path30"
         style="font-family:Metropolis;letter-spacing:0.075em"
         d="m 293.815,100 h 8.82 V 74.32 l 12.78,23.28 12.72,-23.28 V 100 h 8.88 V 58.78 h -8.88 l -12.72,23.28 -12.78,-23.28 h -8.82 z" />
      <path
         id="path32"
         style="font-family:Metropolis;letter-spacing:0.075em"
         d="m 349.98625,100 h 8.82 V 86.62 h 9.72 c 8.94,0 15.54,-5.76 15.54,-13.92 0,-8.16 -6.6,-13.92 -15.54,-13.92 h -18.54 z m 8.82,-21.48 V 66.88 h 8.76 c 4.38,0 7.38,2.28 7.38,5.82 0,3.54 -3,5.82 -7.38,5.82 z" />
      <path
         id="path34"
         style="font-family:Metropolis;letter-spacing:0.075em"
         d="m 414.37563,100.72 c 11.93999,0 21.89999,-9.78 21.89999,-21.36 0,-11.58 -9.96,-21.3 -21.89999,-21.3 -11.82,0 -21.90001,9.72 -21.90001,21.3 0,11.58 10.08001,21.36 21.90001,21.36 z m 0,-8.04 c -6.90001,0 -12.78001,-6.12 -12.78001,-13.32 0,-7.14 5.88,-13.26 12.78001,-13.26 6.95999,0 12.83999,6.12 12.83999,13.26 0,7.2 -5.88,13.32 -12.83999,13.32 z" />
      <path
         id="path36"
         style="font-family:Metropolis;letter-spacing:0.075em"
         d="m 482.20562,100 -10.14,-14.4 c 5.64,-1.98 9.36001,-6.78 9.36001,-12.9 0,-8.16 -6.60001,-13.92 -15.54001,-13.92 h -18.54 V 100 h 8.82 V 86.62 h 6.54 l 9.42001,13.38 z m -26.04,-33.12 h 8.76001 c 4.38,0 7.38,2.28 7.38,5.82 0,3.54 -3,5.82 -7.38,5.82 h -8.76001 z" />
      <path
         id="path38"
         style="font-family:Metropolis;letter-spacing:0.075em"
         d="m 522.74969,100 h 9.96 l -16.8,-41.22 h -9.9 l -16.8,41.22 h 9.9 l 2.64,-6.48 h 18.36 z m -17.94,-13.98 6.12,-15.06 6.12,15.06 z" />
      <path
         id="path40"
         style="font-family:Metropolis;letter-spacing:0.075em"
         d="m 542.48688,100 h 8.81999 V 73.36 l 19.86,26.64 h 8.88 V 58.78 h -8.88 v 26.64 l -19.86,-26.64 h -8.81999 z" />
      <path
         id="path42"
         style="font-family:Metropolis;letter-spacing:0.075em"
         d="m 624.77313,66.76 v -7.98 h -31.74 V 100 h 31.74 v -7.98 h -22.86 v -9.06 h 20.69999 v -7.98 h -20.69999 v -8.22 z" />
      <path
         id="path44"
         style="font-family:Metropolis;letter-spacing:0.075em"
         d="m 666.21063,100 h 9.95999 L 659.37063,58.78 h -9.9 L 632.67062,100 h 9.9 l 2.64001,-6.48 h 18.35999 z m -17.94001,-13.98 6.12,-15.06 6.12,15.06 z" />
    </g>
  </g>
</svg>
