<?xml version="1.0" encoding="UTF-8" standalone="no"?>
<svg
   xmlns:dc="http://purl.org/dc/elements/1.1/"
   xmlns:cc="http://creativecommons.org/ns#"
   xmlns:rdf="http://www.w3.org/1999/02/22-rdf-syntax-ns#"
   xmlns:svg="http://www.w3.org/2000/svg"
   xmlns="http://www.w3.org/2000/svg"
   id="svg16"
   width="800px"
   version="1.1"
   height="200px">
  <metadata
     id="metadata20">
    <rdf:RDF>
      <cc:Work
         rdf:about="">
        <dc:format>image/svg+xml</dc:format>
        <dc:type
           rdf:resource="http://purl.org/dc/dcmitype/StillImage" />
      </cc:Work>
    </rdf:RDF>
  </metadata>
  <defs
     id="defs4">
    <style
       id="style2"
       type="text/css"><![CDATA[    
     @font-face {font-family:Metropolis;
     src: url('/Users/francesco/Repos/write-logos/src/fonts/Fonts_E_TEMPORANEA/Metropolis-Bold.otf');}
     @font-face {font-family:Bamboo shoot;
     src: url('/Users/francesco/Repos/write-logos/src/fonts/Fonts_X/bambooshoot.ttf');}
     ]]></style>
  </defs>
  <g
     id="g14"
     style="font-size:60px">
    <g
       style="text-anchor:middle"
       id="text12"
       aria-label="EXTEMPORANEA">
      <path
         id="path22"
         style="font-family:Metropolis;letter-spacing:0.075em"
         d="m 153.77312,66.76 v -7.98 h -31.74 V 100 h 31.74 v -7.98 h -22.86 v -9.06 h 20.7 v -7.98 h -20.7 v -8.22 z" />
      <path
         id="path24"
         style="font-family:'Bamboo shoot';letter-spacing:0.05em"
         d="m 168.91797,50.664062 h 0.82031 q 3.7793,0 7.26563,5.390625 6.18164,7.705079 6.21093,7.96875 h 0.11719 q 7.5293,-10.019531 9.72656,-12.070312 1.84571,-1.289063 3.75,-1.289063 h 0.82032 q 4.21875,0 6.32812,4.921875 l 0.23438,1.640625 v 0.820313 q 0,2.900391 -3.98438,7.03125 l -7.96875,10.195312 q 11.48438,14.589844 11.48438,15 0.46875,1.347657 0.46875,2.34375 V 93.4375 q 0,4.335937 -5.03907,6.328125 Q 198.625,100 197.62891,100 h -0.82032 q -3.77929,0 -7.26562,-5.390625 -6.18164,-7.705078 -6.21094,-7.96875 h -0.11719 Q 175.68555,96.660156 173.48828,98.710937 171.64258,100 169.73828,100 h -0.82031 q -4.21875,0 -6.32813,-4.921875 L 162.35547,93.4375 v -0.820313 q 0,-2.90039 3.98437,-7.03125 l 7.96875,-10.195312 q -11.48437,-14.589844 -11.48437,-15 -0.46875,-1.347656 -0.46875,-2.34375 v -0.820313 q 0,-4.335937 5.03906,-6.328125 0.52734,-0.234375 1.52344,-0.234375 z m -1.75781,6.914063 v 0.117187 q 0,1.171875 3.86718,5.507813 0.64453,1.113281 6.44532,8.203125 l 2.69531,-3.515625 q -8.11524,-10.458984 -9.60938,-12.070313 -0.58593,-0.351562 -1.17187,-0.351562 h -0.11719 q -2.10937,0.322266 -2.10937,2.109375 z m 19.21875,10.3125 2.8125,3.515625 9.96093,-12.773438 0.23438,-0.9375 v -0.117187 q -0.32227,-2.109375 -2.10938,-2.109375 h -0.11718 q -1.43555,0 -3.39844,3.046875 z m -3.16407,3.867187 -2.69531,3.515625 2.69531,3.632813 h 0.11719 l 2.69531,-3.515625 -2.69531,-3.632813 z m -5.85937,7.5 -9.96094,12.773438 -0.23437,0.9375 v 0.117187 q 0.32226,2.109375 2.10937,2.109375 h 0.11719 q 1.40625,0 3.39844,-3.046875 l 7.38281,-9.375 z m 11.71875,0 -2.69531,3.515625 q 8.58398,11.044922 9.60937,12.070313 0.61524,0.351562 1.17188,0.351562 h 0.11718 q 2.10938,-0.322265 2.10938,-2.109375 V 92.96875 q 0,-1.171875 -3.86719,-5.507813 -0.64453,-1.113281 -6.44531,-8.203125 z" />
      <path
         id="path26"
         style="font-family:Metropolis;letter-spacing:0.075em"
         d="m 223.41625,100 h 8.88 V 66.76 h 12.84 v -7.98 h -34.56 v 7.98 h 12.84 z" />
      <path
         id="path28"
         style="font-family:Metropolis;letter-spacing:0.075em"
         d="m 287.29656,66.76 v -7.98 h -31.74 V 100 h 31.74 v -7.98 h -22.86 v -9.06 h 20.7 v -7.98 h -20.7 v -8.22 z" />
      <path
         id="path30"
         style="font-family:Metropolis;letter-spacing:0.075em"
         d="m 298.85406,100 h 8.82 V 74.32 l 12.78,23.28 12.72,-23.28 V 100 h 8.88 V 58.78 h -8.88 l -12.72,23.28 -12.78,-23.28 h -8.82 z" />
      <path
         id="path32"
         style="font-family:Metropolis;letter-spacing:0.075em"
         d="m 355.02531,100 h 8.82 V 86.62 h 9.72 c 8.94,0 15.54,-5.76 15.54,-13.92 0,-8.16 -6.6,-13.92 -15.54,-13.92 h -18.54 z m 8.82,-21.48 V 66.88 h 8.76 c 4.38,0 7.38,2.28 7.38,5.82 0,3.54 -3,5.82 -7.38,5.82 z" />
      <path
         id="path34"
         style="font-family:Metropolis;letter-spacing:0.075em"
         d="m 419.41469,100.72 c 11.94,0 21.9,-9.78 21.9,-21.36 0,-11.58 -9.96,-21.3 -21.9,-21.3 -11.82,0 -21.9,9.72 -21.9,21.3 0,11.58 10.08,21.36 21.9,21.36 z m 0,-8.04 c -6.9,0 -12.78,-6.12 -12.78,-13.32 0,-7.14 5.88,-13.26 12.78,-13.26 6.96,0 12.84,6.12 12.84,13.26 0,7.2 -5.88,13.32 -12.84,13.32 z" />
      <path
         id="path36"
         style="font-family:Metropolis;letter-spacing:0.075em"
         d="m 487.24469,100 -10.14,-14.4 c 5.64,-1.98 9.36,-6.78 9.36,-12.9 0,-8.16 -6.6,-13.92 -15.54,-13.92 h -18.54 V 100 h 8.82 V 86.62 h 6.54 l 9.42,13.38 z m -26.04,-33.12 h 8.76 c 4.38,0 7.38,2.28 7.38,5.82 0,3.54 -3,5.82 -7.38,5.82 h -8.76 z" />
      <path
         id="path38"
         style="font-family:Metropolis;letter-spacing:0.075em"
         d="m 527.78875,100 h 9.96 l -16.8,-41.22 h -9.9 l -16.8,41.22 h 9.9 l 2.64,-6.48 h 18.36 z m -17.94,-13.98 6.12,-15.06 6.12,15.06 z" />
      <path
         id="path40"
         style="font-family:Metropolis;letter-spacing:0.075em"
         d="m 547.52594,100 h 8.82 V 73.36 l 19.86,26.64 h 8.88 V 58.78 h -8.88 v 26.64 l -19.86,-26.64 h -8.82 z" />
      <path
         id="path42"
         style="font-family:Metropolis;letter-spacing:0.075em"
         d="m 629.81219,66.76 v -7.98 h -31.74 V 100 h 31.74 v -7.98 h -22.86 v -9.06 h 20.7 v -7.98 h -20.7 v -8.22 z" />
      <path
         id="path44"
         style="font-family:Metropolis;letter-spacing:0.075em"
         d="m 671.24969,100 h 9.96 l -16.8,-41.22 h -9.9 l -16.8,41.22 h 9.9 l 2.64,-6.48 h 18.36 z m -17.94,-13.98 6.12,-15.06 6.12,15.06 z" />
    </g>
  </g>
</svg>
