<?xml version="1.0" encoding="UTF-8" standalone="no"?>
<svg
   xmlns:dc="http://purl.org/dc/elements/1.1/"
   xmlns:cc="http://creativecommons.org/ns#"
   xmlns:rdf="http://www.w3.org/1999/02/22-rdf-syntax-ns#"
   xmlns:svg="http://www.w3.org/2000/svg"
   xmlns="http://www.w3.org/2000/svg"
   id="svg16"
   width="800px"
   version="1.1"
   height="200px">
  <metadata
     id="metadata20">
    <rdf:RDF>
      <cc:Work
         rdf:about="">
        <dc:format>image/svg+xml</dc:format>
        <dc:type
           rdf:resource="http://purl.org/dc/dcmitype/StillImage" />
      </cc:Work>
    </rdf:RDF>
  </metadata>
  <defs
     id="defs4">
    <style
       id="style2"
       type="text/css"><![CDATA[    
     @font-face {font-family:Metropolis;
     src: url('/Users/francesco/Repos/write-logos/src/fonts/Fonts_E_TEMPORANEA/Metropolis-Bold.otf');}
     @font-face {font-family:MCF Alien Delon;
     src: url('/Users/francesco/Repos/write-logos/src/fonts/Fonts_X/AlienDelon.ttf');}
     ]]></style>
  </defs>
  <g
     id="g14"
     style="font-size:60px">
    <g
       style="text-anchor:middle"
       id="text12"
       aria-label="EXTEMPORANEA">
      <path
         id="path22"
         style="font-family:Metropolis;letter-spacing:0.075em"
         d="m 158.10906,66.76 v -7.98 h -31.74 V 100 h 31.74 v -7.98 h -22.86 v -9.06 h 20.7 v -7.98 h -20.7 v -8.22 z" />
      <path
         id="path24"
         style="font-family:'MCF Alien Delon';letter-spacing:0.05em"
         d="m 170.32656,58.12 30.18,41.88 h -7.38 l -11.58,-16.02 -11.58,16.02 h -7.44 l 15.3,-21.18 -15,-20.7 h 0.84 6.66 v 0 z m 10.26,0 6.12,8.46 6.12,-8.46 h 7.38 l -9.84,13.56 5.52,7.62 h -7.44 l -15.3,-21.18 h 6.72 0.72 v 0 z" />
      <path
         id="path26"
         style="font-family:Metropolis;letter-spacing:0.075em"
         d="m 219.08031,100 h 8.88 V 66.76 h 12.84 v -7.98 h -34.56 v 7.98 h 12.84 z" />
      <path
         id="path28"
         style="font-family:Metropolis;letter-spacing:0.075em"
         d="m 282.96062,66.76 v -7.98 h -31.74 V 100 h 31.74 v -7.98 h -22.86 v -9.06 h 20.70001 v -7.98 h -20.70001 v -8.22 z" />
      <path
         id="path30"
         style="font-family:Metropolis;letter-spacing:0.075em"
         d="m 294.51812,100 h 8.82 V 74.32 L 316.11813,97.6 328.83812,74.32 V 100 h 8.88 V 58.78 h -8.88 L 316.11813,82.06 303.33812,58.78 h -8.82 z" />
      <path
         id="path32"
         style="font-family:Metropolis;letter-spacing:0.075em"
         d="m 350.68937,100 h 8.82 V 86.62 h 9.72 c 8.94,0 15.54001,-5.76 15.54001,-13.92 0,-8.16 -6.60001,-13.92 -15.54001,-13.92 h -18.54 z m 8.82,-21.48 V 66.88 h 8.76001 c 4.38,0 7.38,2.28 7.38,5.82 0,3.54 -3,5.82 -7.38,5.82 z" />
      <path
         id="path34"
         style="font-family:Metropolis;letter-spacing:0.075em"
         d="m 415.07875,100.72 c 11.94,0 21.9,-9.78 21.9,-21.36 0,-11.58 -9.96,-21.3 -21.9,-21.3 -11.82,0 -21.9,9.72 -21.9,21.3 0,11.58 10.08,21.36 21.9,21.36 z m 0,-8.04 c -6.9,0 -12.78,-6.12 -12.78,-13.32 0,-7.14 5.88,-13.26 12.78,-13.26 6.96,0 12.84,6.12 12.84,13.26 0,7.2 -5.88,13.32 -12.84,13.32 z" />
      <path
         id="path36"
         style="font-family:Metropolis;letter-spacing:0.075em"
         d="m 482.90875,100 -10.14,-14.4 c 5.64,-1.98 9.36,-6.78 9.36,-12.9 0,-8.16 -6.6,-13.92 -15.54,-13.92 h -18.54 V 100 h 8.82 V 86.62 h 6.54 l 9.42,13.38 z m -26.04,-33.12 h 8.76 c 4.38,0 7.38,2.28 7.38,5.82 0,3.54 -3,5.82 -7.38,5.82 h -8.76 z" />
      <path
         id="path38"
         style="font-family:Metropolis;letter-spacing:0.075em"
         d="m 523.45281,100 h 9.96 l -16.8,-41.22 h -9.9 l -16.8,41.22 h 9.9 l 2.64,-6.48 h 18.36 z m -17.94,-13.98 6.12,-15.06 6.12,15.06 z" />
      <path
         id="path40"
         style="font-family:Metropolis;letter-spacing:0.075em"
         d="m 543.19,100 h 8.82 V 73.36 L 571.87,100 h 8.88 V 58.78 h -8.88 V 85.42 L 552.01,58.78 h -8.82 z" />
      <path
         id="path42"
         style="font-family:Metropolis;letter-spacing:0.075em"
         d="m 625.47625,66.76 v -7.98 h -31.74 V 100 h 31.74 v -7.98 h -22.86 v -9.06 h 20.7 v -7.98 h -20.7 v -8.22 z" />
      <path
         id="path44"
         style="font-family:Metropolis;letter-spacing:0.075em"
         d="m 666.91375,100 h 9.96 l -16.8,-41.22 h -9.9 l -16.8,41.22 h 9.9 l 2.64,-6.48 h 18.36 z m -17.94,-13.98 6.12,-15.06 6.12,15.06 z" />
    </g>
  </g>
</svg>
