<?xml version="1.0" encoding="UTF-8" standalone="no"?>
<svg
   xmlns:dc="http://purl.org/dc/elements/1.1/"
   xmlns:cc="http://creativecommons.org/ns#"
   xmlns:rdf="http://www.w3.org/1999/02/22-rdf-syntax-ns#"
   xmlns:svg="http://www.w3.org/2000/svg"
   xmlns="http://www.w3.org/2000/svg"
   id="svg10"
   width="500px"
   version="1.1"
   height="200px">
  <metadata
     id="metadata14">
    <rdf:RDF>
      <cc:Work
         rdf:about="">
        <dc:format>image/svg+xml</dc:format>
        <dc:type
           rdf:resource="http://purl.org/dc/dcmitype/StillImage" />
      </cc:Work>
    </rdf:RDF>
  </metadata>
  <defs
     id="defs4">
    <style
       id="style2"
       type="text/css"><![CDATA[    
     @font-face {font-family:Meybi;
     src: url('/Users/francesco/Repos/write-logos/src/fonts//Meybi_Demo.ttf');}]]></style>
  </defs>
  <g
     id="g8"
     style="font-size:30px;font-family:Meybi">
    <g
       style=""
       id="text6"
       aria-label="eXtemporanea">
      <path
         id="path16"
         style=""
         d="m 101.69922,93.027344 0.60058,-0.336914 q 1.12793,1.538086 1.9043,1.49414 0.77637,-0.04394 1.18653,-0.878906 0.41015,-0.849609 0.43945,-2.124023 0.0293,-1.289063 -0.32227,-2.241211 -0.51269,-1.552735 -1.12793,-1.625977 -0.60058,-0.08789 -1.15722,0.717774 -0.55664,0.805664 -0.98145,2.211914 -0.41016,1.391601 -0.54199,2.783203 z m 1.93359,1.523437 q -0.61523,0 -1.01074,-0.322265 -0.39551,-0.336914 -0.92285,-0.952149 -0.0732,0.571289 -0.0293,1.21582 0.0439,0.629883 0.17578,1.245118 0.13184,0.600586 0.35157,1.127929 0.21972,0.527344 0.48339,0.878907 0.87891,1.40625 2.02149,1.977539 1.14258,0.55664 2.68066,0.0293 0.62989,-0.263672 1.17188,-0.688477 0.54199,-0.424805 0.9375,-0.849609 0.41015,-0.424805 0.64453,-0.761719 0.24902,-0.336914 0.29297,-0.410156 l 0.49804,-0.219727 q -0.8789,1.274414 -1.83105,2.06543 -0.95215,0.791015 -2.08008,1.318361 -1.33301,0.43945 -2.57812,0.19043 -1.23047,-0.24903 -2.19727,-1.010744 -0.9668,-0.776368 -1.58203,-2.021485 -0.60059,-1.245117 -0.65918,-2.8125 -0.05859,-1.757812 0.89355,-3.720703 0.95215,-1.977539 2.22657,-3.28125 1.28906,-1.303711 2.56347,-1.494141 1.28907,-0.205078 1.86036,1.552735 0.29296,1.010742 0.0879,2.226562 -0.19043,1.215821 -0.76172,2.270508 -0.55664,1.054688 -1.40625,1.757813 -0.83496,0.688476 -1.83106,0.688476 z m 3.14942,10.034179 q 0.36621,-0.13183 0.62988,-0.14648 0.27832,0 0.52734,0.21972 0.30762,0.24903 0.32227,0.60059 0.0293,0.35156 -0.19043,0.60059 -0.26367,0.30761 -0.64453,0.38085 -0.36621,0.0879 -0.79102,0.0879 -0.41015,0.0146 -0.83496,0.0293 -0.41015,0.0293 -0.73242,0.23438 0.13184,-0.33692 0.0732,-0.71778 -0.0586,-0.38086 -0.13183,-0.77636 -0.0586,-0.39551 -0.044,-0.79102 0.0147,-0.38086 0.32227,-0.71777 0.17578,-0.27832 0.52734,-0.29297 0.36621,0 0.70312,0.26367 0.23438,0.21973 0.26368,0.43945 0.0439,0.23438 0,0.58594 z" />
      <path
         id="path18"
         style=""
         d="m 113.25684,78.129883 h 3.17871 l 5.43457,8.129883 5.46386,-8.129883 h 3.17872 l -7.03125,10.502929 7.5,11.367188 h -3.17872 L 121.65039,90.698242 115.4541,100 h -3.19336 l 7.80762,-11.674805 z" />
      <path
         id="path20"
         style=""
         d="m 136.00586,81.411133 q 0.21973,-0.424805 0.73242,-0.424805 0.52734,-0.01465 1.05469,-0.146484 -0.46875,1.186523 -0.74707,2.241211 -0.26367,1.054687 -0.39551,1.450195 0.87891,0 1.55273,-0.19043 0.68848,-0.205078 1.43555,-0.585937 0.0147,0 0.0732,0.04394 0.0586,0.0293 -0.0732,0.146484 -0.21972,0.175782 -0.58594,0.366211 -0.35156,0.19043 -0.79101,0.351563 -0.43945,0.146484 -0.9082,0.234375 -0.46875,0.08789 -0.87891,0.08789 0,0.07324 -0.0732,0.439453 -0.0732,0.351562 -0.16114,0.791015 -0.0879,0.424805 -0.16113,0.820313 -0.0732,0.380859 -0.0732,0.512695 -0.26367,1.538086 -0.38086,3.486328 -0.11719,1.948242 0.10254,3.779297 0.21973,1.831055 0.86426,3.266602 0.64453,1.435547 1.91894,1.918945 0.20508,0.0732 0.64453,-0.08789 0.43946,-0.175781 0.82032,-0.380859 0.49804,-0.263672 0.8789,-0.629883 0.38086,-0.380859 0.64453,-0.732422 0.26368,-0.351562 0.52735,-0.849609 l 0.73242,-0.366211 q -0.52734,1.010742 -1.21582,1.713867 -0.68848,0.688477 -1.56738,1.21582 -1.01075,0.527348 -1.88965,0.629888 -0.87891,0.11718 -1.27442,-0.0146 -1.47949,-0.556644 -2.15332,-2.065433 -0.67383,-1.523437 -0.84961,-3.427734 -0.16113,-1.904297 0.0293,-3.911133 0.20508,-2.006836 0.46875,-3.544922 0,-0.131836 0.0732,-0.512695 0.0732,-0.395508 0.16114,-0.820313 0.0879,-0.439453 0.16113,-0.791015 0.0732,-0.366211 0.0732,-0.439453 -0.87891,-0.131836 -1.49414,-0.512696 -0.61523,-0.380859 -1.34766,-0.996094 l 0.86426,-0.454101 q 0.60059,0.527344 1.06934,0.878906 0.46875,0.336914 1.08398,0.46875 0.13184,-0.395508 0.36621,-1.259765 0.24903,-0.864258 0.68848,-1.699219 z m 0.16113,-7.045899 q 0.17578,-0.46875 0.41016,-0.688476 0.23437,-0.219727 0.64453,-0.249024 0.46875,-0.04395 0.80566,0.234375 0.35157,0.278321 0.38086,0.673828 0.0733,0.527344 -0.17578,0.9375 -0.24902,0.395508 -0.60058,0.776368 -0.35157,0.366211 -0.68848,0.74707 -0.32227,0.380859 -0.41016,0.834961 -0.17578,-0.410156 -0.57129,-0.688477 -0.3955,-0.27832 -0.82031,-0.55664 -0.41015,-0.292969 -0.74707,-0.644532 -0.33691,-0.36621 -0.38086,-0.9375 -0.0879,-0.395507 0.20508,-0.74707 0.30762,-0.351562 0.82031,-0.395508 0.39551,-0.01465 0.62989,0.175782 0.23437,0.175781 0.49804,0.527343 z" />
      <path
         id="path22"
         style=""
         d="m 143.41797,93.027344 0.60058,-0.336914 q 1.12793,1.538086 1.9043,1.49414 0.77637,-0.04394 1.18652,-0.878906 0.41016,-0.849609 0.43946,-2.124023 0.0293,-1.289063 -0.32227,-2.241211 -0.51269,-1.552735 -1.12793,-1.625977 -0.60058,-0.08789 -1.15722,0.717774 -0.55664,0.805664 -0.98145,2.211914 -0.41016,1.391601 -0.54199,2.783203 z m 1.93359,1.523437 q -0.61523,0 -1.01074,-0.322265 -0.39551,-0.336914 -0.92285,-0.952149 -0.0732,0.571289 -0.0293,1.21582 0.0439,0.629883 0.17578,1.245118 0.13184,0.600586 0.35157,1.127929 0.21972,0.527344 0.48339,0.878907 0.87891,1.40625 2.02149,1.977539 1.14258,0.55664 2.68066,0.0293 0.62989,-0.263672 1.17188,-0.688477 0.54199,-0.424805 0.9375,-0.849609 0.41015,-0.424805 0.64453,-0.761719 0.24902,-0.336914 0.29297,-0.410156 l 0.49804,-0.219727 q -0.8789,1.274414 -1.83105,2.06543 -0.95215,0.791015 -2.08008,1.318361 -1.33301,0.43945 -2.57812,0.19043 -1.23047,-0.24903 -2.19727,-1.010744 -0.9668,-0.776368 -1.58203,-2.021485 -0.60059,-1.245117 -0.65918,-2.8125 -0.0586,-1.757812 0.89355,-3.720703 0.95215,-1.977539 2.22657,-3.28125 1.28906,-1.303711 2.56347,-1.494141 1.28907,-0.205078 1.86036,1.552735 0.29296,1.010742 0.0879,2.226562 -0.19043,1.215821 -0.76172,2.270508 -0.55664,1.054688 -1.40625,1.757813 -0.83496,0.688476 -1.83106,0.688476 z m 3.14942,10.034179 q 0.36621,-0.13183 0.62988,-0.14648 0.27832,0 0.52734,0.21972 0.30762,0.24903 0.32227,0.60059 0.0293,0.35156 -0.19043,0.60059 -0.26367,0.30761 -0.64453,0.38085 -0.36621,0.0879 -0.79102,0.0879 -0.41015,0.0146 -0.83496,0.0293 -0.41016,0.0293 -0.73242,0.23438 0.13184,-0.33692 0.0732,-0.71778 -0.0586,-0.38086 -0.13183,-0.77636 -0.0586,-0.39551 -0.0439,-0.79102 0.0146,-0.38086 0.32227,-0.71777 0.17578,-0.27832 0.52734,-0.29297 0.36621,0 0.70312,0.26367 0.23438,0.21973 0.26368,0.43945 0.0439,0.23438 0,0.58594 z" />
      <path
         id="path24"
         style=""
         d="m 152.74902,88.808594 1.69922,-0.732422 q 0,0.439453 0,0.74707 0.0146,0.307617 0.0586,0.615235 0.0439,0.307617 0.0879,0.688476 0.0586,0.366211 0.13183,0.922852 0.26367,-0.439453 0.62989,-0.952149 0.36621,-0.527344 0.8496,-0.996094 0.4834,-0.46875 1.04004,-0.805664 0.57129,-0.351562 1.21582,-0.424804 0.26368,0 0.55664,0.161133 0.30762,0.146484 0.43946,0.541992 0.26367,0.395508 0.41015,0.849609 0.16114,0.454102 0.29297,1.186524 0.26367,-0.483399 0.52735,-0.996094 0.26367,-0.527344 0.62988,-0.952149 0.38086,-0.424804 0.9082,-0.703125 0.52735,-0.27832 1.30371,-0.27832 0.89356,0 1.43555,0.571289 0.55664,0.571289 0.86426,1.435547 0.30762,0.849609 0.41015,1.860352 0.10254,1.010742 0.10254,1.904296 0,1.538086 -0.19043,3.149414 -0.19043,1.611329 -0.58593,2.885743 L 163.53027,100 q 0.35157,-0.922852 0.60059,-2.124023 0.26367,-1.215821 0.35156,-2.490235 0.0879,-1.274414 0.0147,-2.519531 -0.0732,-1.245117 -0.36621,-2.255859 -0.52734,-1.40625 -0.89356,-1.831055 -0.35156,-0.439453 -0.8789,-0.04394 -0.74707,0.527343 -1.20117,1.333007 -0.43946,0.805664 -0.83496,1.684571 0.21972,1.787109 0.27832,3.017578 0.0586,1.230469 -0.0147,2.504883 -0.0732,1.274414 -0.42481,2.021484 -0.0732,0.205078 -0.41015,0.46875 -0.33692,0.249025 -0.73243,0.424805 -0.3955,0.17578 -0.76171,0.21973 -0.36622,0.0439 -0.49805,-0.21973 -0.13184,-0.395508 -0.20508,-1.083985 -0.0732,-0.688476 -0.0732,-0.966797 0,-1.127929 0.16113,-2.124023 0.17578,-1.010742 0.39551,-1.772461 0.21973,-0.761719 0.39551,-1.230469 0.19043,-0.46875 0.19043,-0.541992 -0.10254,-1.259766 -0.24903,-1.948242 -0.13183,-0.703125 -0.3955,-1.157227 -0.24903,-0.454101 -0.68848,-0.102539 -0.30762,0.205078 -0.67383,0.629883 -0.35156,0.410156 -0.68848,0.908203 -0.33691,0.483399 -0.61523,0.996094 -0.26367,0.498047 -0.39551,0.849609 0.13184,1.274414 0.20508,2.563477 0.0732,1.274414 0,2.358398 -0.0732,1.083985 -0.35156,1.875 -0.26367,0.776371 -0.82031,1.083981 -0.43946,0.26368 -0.79102,0.0733 -0.35156,-0.17579 -0.60059,-0.57129 -0.23437,-0.395511 -0.35156,-0.922855 -0.11719,-0.527343 -0.11719,-0.966797 0,-0.263671 0.0733,-0.791015 0.0732,-0.541992 0.20507,-1.245117 0.14649,-0.703125 0.36621,-1.523438 0.21973,-0.820312 0.4834,-1.655273 -0.14648,-1.083985 -0.23437,-1.78711 -0.0879,-0.703125 -0.16113,-1.376953 -0.0733,-0.688476 -0.0733,-0.952148 z m 0.67383,5.976562 q -0.27832,1.274414 -0.4248,1.918946 -0.13184,0.644531 -0.13184,1.245117 0,0.527343 0.0147,1.157226 0.0293,0.629883 0.16113,0.893555 0.19043,0.43945 0.26367,-0.292969 0.0879,-0.732422 0.10254,-1.801758 0.0293,-1.069336 0.0147,-2.050781 0,-0.996094 0,-1.069336 z m 5.39063,-0.351562 q 0,-0.131836 0,-0.219727 0,-0.102539 0,-0.234375 -0.14649,0.512695 -0.29297,1.230469 -0.14649,0.703125 -0.21973,1.479492 -0.0586,0.761719 0,1.508789 0.0586,0.732422 0.32227,1.289063 0.26367,-0.732422 0.29297,-2.124024 0.0293,-1.391601 -0.10254,-2.929687 z m -3.57422,-9.75586 q 0.14648,-0.366211 0.32226,-0.55664 0.19043,-0.19043 0.5127,-0.234375 0.39551,-0.05859 0.65918,0.175781 0.27832,0.219727 0.32226,0.541992 0.0586,0.410156 -0.14648,0.74707 -0.19043,0.336915 -0.46875,0.644532 -0.27832,0.307617 -0.55664,0.629883 -0.26367,0.322265 -0.33692,0.688476 -0.14648,-0.307617 -0.46875,-0.527344 -0.32226,-0.219726 -0.65917,-0.439453 -0.33692,-0.219726 -0.61524,-0.498047 -0.26367,-0.27832 -0.30762,-0.732422 -0.0879,-0.322265 0.14649,-0.585937 0.23437,-0.263672 0.65918,-0.336914 0.30761,-0.0293 0.51269,0.102539 0.20508,0.117187 0.42481,0.380859 z" />
      <path
         id="path26"
         style=""
         d="m 168.54004,89.511719 1.66992,-0.717774 q 0.26367,0.747071 0.36621,1.611328 0.10254,0.84961 0.23438,2.124024 0.60058,-1.40625 1.50879,-2.460938 0.9082,-1.054687 2.05078,-1.450195 1.69922,-0.629883 2.87109,1.083984 1.18652,1.713868 1.36231,4.013672 0.19043,2.299805 -0.83497,4.321289 -1.02539,2.021481 -3.75,2.021481 -0.30761,0 -0.65918,-0.190426 -0.33691,-0.19043 -0.62988,-0.527344 -0.27832,-0.336914 -0.46875,-0.776367 -0.17578,-0.454101 -0.17578,-0.966797 l 0.60059,-0.703125 q 0,0.615235 0.14648,1.025391 0.14649,0.410156 0.54199,0.805664 0.26368,0.395508 0.65918,0.65918 0.41016,0.249023 0.68848,0.249023 1.12793,-0.05859 1.49414,-1.816406 0.36621,-1.757813 0.17578,-3.779297 -0.19043,-2.021484 -0.83496,-3.603516 -0.64453,-1.582031 -1.53809,-1.289062 -1.01074,0.395508 -1.75781,1.552734 -0.73242,1.142578 -1.25976,2.797852 0,0.527343 0.0146,0.9375 0.0293,0.410156 0.16114,0.9375 0.13183,2.021484 0.14648,4.02832 0.0146,2.006836 0.0146,3.676756 -0.14648,1.52344 -0.43945,2.43164 -0.29297,0.90821 -0.67383,1.3916 -0.38086,0.4834 -0.82031,0.62989 -0.42481,0.16113 -0.86426,0.16113 -0.5127,0.0586 -0.71777,-0.87891 -0.19043,-0.9375 -0.20508,-2.16797 -0.0146,-1.23046 0.0586,-2.41699 0.0732,-1.18652 0.14649,-1.62597 0.13183,-1.523442 0.4541,-3.178715 0.32226,-1.655273 0.84961,-3.193359 -0.13184,-1.523438 -0.23438,-2.739258 -0.0879,-1.230469 -0.35156,-1.977539 z m 0.80566,6.386718 q -0.26367,0.952149 -0.4541,2.036133 -0.19043,1.069336 -0.32226,2.16797 -0.11719,1.09863 -0.17579,2.16797 -0.0439,1.08398 -0.0439,2.03613 0,0.87891 0.10254,1.49414 0.11719,0.61524 0.24902,1.01074 0.13184,0.13184 0.20508,0.24903 0.0879,0.11718 0.21973,0.11718 0.13183,-0.13183 0.19043,-1.17187 0.0732,-1.04004 0.20507,-2.56348 0.13184,-1.66992 0.0439,-3.662107 -0.0879,-1.992187 -0.21973,-3.881836 z m -0.38086,11.279293 h 0.16114 z" />
      <path
         id="path28"
         style=""
         d="m 185.53223,87.636719 -0.55664,0.74707 q -0.32227,-0.08789 -0.58594,-0.08789 -0.26367,0 -0.58594,0.102539 -0.30762,0.08789 -0.61523,0.351563 -0.82032,0.673828 -1.14258,2.416992 -0.32227,1.743164 -0.23438,3.618164 0.0879,1.875 0.542,3.413086 0.4541,1.538086 1.20117,1.801758 0.79101,0.26367 1.55273,-0.351563 0.77637,-0.629882 1.36231,-1.713867 0.58593,-1.083984 0.92285,-2.387695 0.33691,-1.303711 0.27832,-2.373047 -0.74707,-0.05859 -1.30371,-0.527344 -0.54199,-0.483398 -0.86426,-1.098632 -0.30762,-0.629883 -0.41016,-1.274415 -0.0879,-0.644531 0.0586,-1.040039 0.13183,-0.307617 0.36621,-0.615234 0.24902,-0.307617 0.54199,-0.498047 0.30762,-0.205078 0.61523,-0.249023 0.32227,-0.04395 0.61524,0.161133 0.30762,0.292968 0.62988,0.849609 0.32227,0.541992 0.58594,1.201172 0.27832,0.659179 0.46875,1.333008 0.20508,0.673828 0.29297,1.201171 0.13183,1.625977 -0.21973,3.208008 -0.33691,1.567383 -1.25976,2.753907 -0.74707,0.878906 -1.75782,1.450198 -0.99609,0.57129 -2.02148,0.62988 -1.01074,0.0586 -1.93359,-0.49805 -0.92286,-0.541989 -1.50879,-1.948239 -0.67383,-1.464844 -0.64454,-3.149414 0.0146,-1.699219 0.58594,-3.19336 0.57129,-1.49414 1.62598,-2.607422 1.05469,-1.113281 2.46094,-1.435547 0.13183,-0.131836 0.38086,-0.161132 0.26367,-0.0293 0.55664,-0.0293 z m 1.96289,4.6875 q -0.0879,-0.454102 -0.16114,-1.010742 -0.0586,-0.57129 -0.17578,-1.098633 -0.10254,-0.527344 -0.29297,-0.966797 -0.17578,-0.439453 -0.48339,-0.65918 -0.16114,-0.05859 -0.24903,0.07324 -0.0732,0.131836 -0.13183,0.219727 -0.14649,0.322266 -0.11719,0.805664 0.0439,0.46875 0.24902,0.966797 0.20508,0.498047 0.54199,0.952148 0.35157,0.454102 0.82032,0.717774 z" />
      <path
         id="path30"
         style=""
         d="m 188.18359,100.52734 h -1.23047 L 187.46582,100 q 1.52344,0.0586 2.51953,-0.878906 1.01074,-0.952149 1.58203,-2.460938 0.57129,-1.508789 0.71778,-3.339844 0.16113,-1.845703 -0.0293,-3.55957 -0.49805,-0.08789 -1.01074,-0.410156 -0.49805,-0.322266 -0.76172,-0.849609 -0.30762,-0.703125 -0.16113,-1.201172 0.16113,-0.512696 0.54199,-0.820313 0.38086,-0.307617 0.84961,-0.410156 0.4834,-0.117188 0.83496,-0.0293 0.26367,0.08789 0.46875,0.410156 0.20508,0.322266 0.35156,0.732422 0.16113,0.395508 0.24902,0.820313 0.0879,0.424804 0.0879,0.717773 0.26368,-0.19043 0.89356,-0.541992 0.64453,-0.366211 1.3623,-0.600586 0.71778,-0.234375 1.34766,-0.19043 0.64453,0.0293 0.9082,0.629883 0.0146,0.615234 -0.0732,0.893555 -0.21973,0.644531 -0.49805,1.918945 -0.26367,1.259766 -0.43945,2.666016 -0.17578,1.40625 -0.20508,2.739258 -0.0146,1.318359 0.24903,2.065429 0.29297,0.908203 0.86425,1.230469 0.58594,0.322266 1.25977,0.19043 0.68848,-0.131836 1.37695,-0.673828 0.68848,-0.556641 1.20117,-1.391602 0.0586,-0.131836 0.0879,-0.161133 0.0439,-0.04394 0.13183,-0.07324 0.0879,-0.0293 0.23438,-0.07324 0.14648,-0.04395 0.41015,-0.19043 -0.61523,1.010742 -1.62597,1.933594 -0.9961,0.908203 -2.27051,1.435543 -1.14258,0.39551 -2.08008,0.0586 -0.9375,-0.32227 -1.33301,-1.845706 -0.20508,-0.74707 -0.19043,-2.050781 0.0293,-1.318359 0.16114,-2.709961 0.14648,-1.40625 0.36621,-2.651367 0.23437,-1.245117 0.43945,-1.889648 0,-0.263672 -0.0293,-0.498047 -0.0147,-0.249024 -0.14648,-0.38086 -0.20508,-0.190429 -0.52735,-0.07324 -0.32226,0.102539 -0.65918,0.322266 -0.33691,0.219726 -0.62988,0.424804 -0.27832,0.205079 -0.41015,0.205079 0.13183,1.904296 -0.0879,3.779296 -0.20508,1.875 -0.86426,3.413086 -0.65918,1.538086 -1.83106,2.592774 -1.15722,1.040037 -2.91504,1.303707 z m 3.96973,-11.220699 q -0.0293,-0.219727 -0.11719,-0.615235 -0.0879,-0.410156 -0.23437,-0.805664 -0.13184,-0.410156 -0.33692,-0.74707 -0.19043,-0.336914 -0.4248,-0.454102 -0.21973,0.410157 -0.23438,0.864258 0,0.439453 0.16114,0.820313 0.17578,0.380859 0.4834,0.644531 0.30761,0.249023 0.70312,0.292969 z" />
      <path
         id="path32"
         style=""
         d="m 209.02832,87.15332 -0.5127,0.703125 q -0.61523,-0.131836 -1.12792,-0.131836 -0.5127,0 -1.04004,0.131836 -1.40625,0.439453 -2.03614,2.592774 -0.62988,2.138672 -0.54199,4.335937 0.10254,2.197266 0.9082,3.647461 0.82032,1.450195 2.29981,0.512695 0.77637,-0.55664 1.53808,-2.036132 -0.0732,-0.19043 -0.27832,-1.010743 -0.19043,-0.83496 -0.33691,-1.96289 -0.13184,-1.142578 -0.13184,-2.402344 0,-1.274414 0.33692,-2.34375 0.20508,-0.673828 0.70312,-1.054687 0.5127,-0.395508 1.08399,-0.556641 0.58594,-0.161133 1.12793,-0.117188 0.55664,0.04395 0.82031,0.234375 0.26367,0.263672 0.35156,0.747071 0.0879,0.46875 0.0879,1.010742 0,0.527344 -0.0879,1.054687 -0.0879,0.527344 -0.17578,0.893555 -0.35156,1.259766 -0.89355,2.299805 -0.542,1.02539 -1.06934,2.15332 0.13184,0.878906 0.33691,1.59668 0.20508,0.703125 0.45411,1.318359 0.14648,0.395508 0.36621,0.747071 0.23437,0.351562 0.62988,0.483398 0.39551,0 0.9668,-0.102539 0.58593,-0.117188 1.24511,-0.585938 0.46875,-0.322265 0.84961,-0.703125 0.38086,-0.395507 0.65918,-0.732421 0.27832,-0.351563 0.4541,-0.57129 0.19043,-0.234375 0.26368,-0.234375 l 0.64453,-0.234375 q -0.61524,1.010743 -1.31836,1.640625 -0.68848,0.629883 -1.55274,1.171875 -0.9082,0.571293 -1.65527,0.747073 -0.74707,0.19043 -1.14258,0.0586 -1.77246,-0.571288 -2.57812,-2.841795 -1.21582,2.021484 -3.20801,2.607425 -0.83496,0.19043 -1.4502,-0.13184 -0.60058,-0.307617 -1.02539,-0.922851 -0.4248,-0.615234 -0.68847,-1.420898 -0.24903,-0.820313 -0.38086,-1.59668 -0.26367,-1.699219 0.24902,-3.47168 0.52735,-1.787109 1.55274,-3.149414 1.04003,-1.376953 2.43164,-2.094726 1.3916,-0.717774 2.87109,-0.278321 z m 0.77637,7.983399 q 0.26367,-0.483399 0.67383,-1.508789 0.4248,-1.025391 0.73242,-2.138672 0.30761,-1.113281 0.35156,-2.109375 0.0439,-1.010742 -0.43945,-1.450196 -0.33692,-0.190429 -0.67383,0.161133 -0.33692,0.351563 -0.46875,0.747071 -0.39551,1.40625 -0.35156,3.09082 0.0439,1.68457 0.17578,3.208008 z" />
      <path
         id="path34"
         style=""
         d="m 216.41113,88.706055 1.83106,-0.600586 q 0,0.74707 0.11718,1.538086 0.13184,0.776367 0.13184,1.303711 0.26367,-0.483399 0.58594,-1.025391 0.33691,-0.541992 0.73242,-0.996094 0.39551,-0.454101 0.87891,-0.74707 0.49804,-0.307617 1.06933,-0.307617 0.89356,0 1.4502,0.541992 0.57129,0.541992 0.8789,1.362305 0.30762,0.820312 0.42481,1.801757 0.11719,0.981446 0.11719,1.875 0,0.776368 -0.0733,1.611329 -0.0732,0.820312 -0.19043,1.625976 -0.11718,0.791016 -0.27832,1.523438 -0.16113,0.717773 -0.35156,1.274414 L 221.75781,100 q 0.35156,-0.922852 0.61524,-2.124023 0.26367,-1.215821 0.36621,-2.490235 0.10254,-1.274414 0.0293,-2.519531 -0.0732,-1.245117 -0.36621,-2.255859 -0.43945,-1.186524 -0.89355,-1.552735 -0.4541,-0.366211 -0.9375,-0.102539 -0.4834,0.263672 -1.01074,1.069336 -0.5127,0.791016 -1.06934,1.918945 0.0586,0.644532 0.0879,0.952149 0.0439,0.292969 0.0586,0.439453 0.0146,0.131836 0.0293,0.219726 0.0146,0.07324 0.0146,0.263672 0,0.205078 0.16113,1.259766 0.16114,1.054687 0.20508,2.241211 0.0586,1.186523 -0.13183,2.167969 -0.17579,0.966795 -0.87891,1.040035 -0.30762,0.0586 -0.62988,-0.0586 -0.32227,-0.10254 -0.58594,-0.41016 -0.24902,-0.307613 -0.38086,-0.864254 -0.11719,-0.571289 -0.0586,-1.40625 0,-0.878906 0.16113,-1.816406 0.16113,-0.9375 0.43945,-1.816407 -0.27832,-1.523437 -0.4248,-2.915039 -0.14649,-1.391601 -0.14649,-2.534179 z M 217.68555,100 q -0.41016,-1.977539 -0.542,-3.515625 -0.0732,0.307617 -0.13183,0.878906 -0.0439,0.556641 -0.0293,1.12793 0.0147,0.571289 0.13184,1.010742 0.13183,0.439453 0.39551,0.498047 z" />
      <path
         id="path36"
         style=""
         d="m 227.85156,93.027344 0.60059,-0.336914 q 1.12793,1.538086 1.9043,1.49414 0.77636,-0.04394 1.18652,-0.878906 0.41015,-0.849609 0.43945,-2.124023 0.0293,-1.289063 -0.32226,-2.241211 -0.5127,-1.552735 -1.12793,-1.625977 -0.60059,-0.08789 -1.15723,0.717774 -0.55664,0.805664 -0.98145,2.211914 -0.41015,1.391601 -0.54199,2.783203 z m 1.9336,1.523437 q -0.61524,0 -1.01075,-0.322265 -0.3955,-0.336914 -0.92285,-0.952149 -0.0732,0.571289 -0.0293,1.21582 0.0439,0.629883 0.17578,1.245118 0.13183,0.600586 0.35156,1.127929 0.21973,0.527344 0.4834,0.878907 0.8789,1.40625 2.02148,1.977539 1.14258,0.55664 2.68067,0.0293 0.62988,-0.263672 1.17187,-0.688477 0.54199,-0.424805 0.9375,-0.849609 0.41016,-0.424805 0.64453,-0.761719 0.24903,-0.336914 0.29297,-0.410156 l 0.49805,-0.219727 q -0.87891,1.274414 -1.83106,2.06543 -0.95215,0.791015 -2.08007,1.318361 -1.33301,0.43945 -2.57813,0.19043 -1.23047,-0.24903 -2.19727,-1.010744 -0.96679,-0.776368 -1.58203,-2.021485 -0.60058,-1.245117 -0.65918,-2.8125 -0.0586,-1.757812 0.89356,-3.720703 0.95215,-1.977539 2.22656,-3.28125 1.28906,-1.303711 2.56348,-1.494141 1.28906,-0.205078 1.86035,1.552735 0.29297,1.010742 0.0879,2.226562 -0.19043,1.215821 -0.76172,2.270508 -0.55664,1.054688 -1.40625,1.757813 -0.83496,0.688476 -1.83105,0.688476 z m 3.14941,10.034179 q 0.36621,-0.13183 0.62988,-0.14648 0.27832,0 0.52735,0.21972 0.30761,0.24903 0.32226,0.60059 0.0293,0.35156 -0.19043,0.60059 -0.26367,0.30761 -0.64453,0.38085 -0.36621,0.0879 -0.79101,0.0879 -0.41016,0.0146 -0.83497,0.0293 -0.41015,0.0293 -0.73242,0.23438 0.13184,-0.33692 0.0733,-0.71778 -0.0586,-0.38086 -0.13184,-0.77636 -0.0586,-0.39551 -0.044,-0.79102 0.0147,-0.38086 0.32227,-0.71777 0.17578,-0.27832 0.52734,-0.29297 0.36621,0 0.70313,0.26367 0.23437,0.21973 0.26367,0.43945 0.0439,0.23438 0,0.58594 z" />
      <path
         id="path38"
         style=""
         d="m 242.77832,87.15332 -0.5127,0.703125 q -0.61523,-0.131836 -1.12792,-0.131836 -0.5127,0 -1.04004,0.131836 -1.40625,0.439453 -2.03614,2.592774 -0.62988,2.138672 -0.54199,4.335937 0.10254,2.197266 0.9082,3.647461 0.82032,1.450195 2.29981,0.512695 0.77637,-0.55664 1.53808,-2.036132 -0.0732,-0.19043 -0.27832,-1.010743 -0.19043,-0.83496 -0.33691,-1.96289 -0.13184,-1.142578 -0.13184,-2.402344 0,-1.274414 0.33692,-2.34375 0.20508,-0.673828 0.70312,-1.054687 0.5127,-0.395508 1.08399,-0.556641 0.58594,-0.161133 1.12793,-0.117188 0.55664,0.04395 0.82031,0.234375 0.26367,0.263672 0.35156,0.747071 0.0879,0.46875 0.0879,1.010742 0,0.527344 -0.0879,1.054687 -0.0879,0.527344 -0.17578,0.893555 -0.35156,1.259766 -0.89355,2.299805 -0.542,1.02539 -1.06934,2.15332 0.13184,0.878906 0.33691,1.59668 0.20508,0.703125 0.45411,1.318359 0.14648,0.395508 0.36621,0.747071 0.23437,0.351562 0.62988,0.483398 0.39551,0 0.9668,-0.102539 0.58593,-0.117188 1.24511,-0.585938 0.46875,-0.322265 0.84961,-0.703125 0.38086,-0.395507 0.65918,-0.732421 0.27832,-0.351563 0.4541,-0.57129 0.19043,-0.234375 0.26368,-0.234375 l 0.64453,-0.234375 q -0.61524,1.010743 -1.31836,1.640625 -0.68848,0.629883 -1.55274,1.171875 -0.9082,0.571293 -1.65527,0.747073 -0.74707,0.19043 -1.14258,0.0586 -1.77246,-0.571288 -2.57812,-2.841795 -1.21582,2.021484 -3.20801,2.607425 -0.83496,0.19043 -1.4502,-0.13184 -0.60058,-0.307617 -1.02539,-0.922851 -0.4248,-0.615234 -0.68847,-1.420898 -0.24903,-0.820313 -0.38086,-1.59668 -0.26367,-1.699219 0.24902,-3.47168 0.52735,-1.787109 1.55274,-3.149414 1.04003,-1.376953 2.43164,-2.094726 1.3916,-0.717774 2.87109,-0.278321 z m 0.77637,7.983399 q 0.26367,-0.483399 0.67383,-1.508789 0.4248,-1.025391 0.73242,-2.138672 0.30761,-1.113281 0.35156,-2.109375 0.0439,-1.010742 -0.43945,-1.450196 -0.33692,-0.190429 -0.67383,0.161133 -0.33692,0.351563 -0.46875,0.747071 -0.39551,1.40625 -0.35156,3.09082 0.0439,1.68457 0.17578,3.208008 z" />
    </g>
  </g>
</svg>
