<?xml version="1.0" encoding="UTF-8" standalone="no"?>
<svg
   xmlns:dc="http://purl.org/dc/elements/1.1/"
   xmlns:cc="http://creativecommons.org/ns#"
   xmlns:rdf="http://www.w3.org/1999/02/22-rdf-syntax-ns#"
   xmlns:svg="http://www.w3.org/2000/svg"
   xmlns="http://www.w3.org/2000/svg"
   id="svg16"
   width="800px"
   version="1.1"
   height="200px">
  <metadata
     id="metadata20">
    <rdf:RDF>
      <cc:Work
         rdf:about="">
        <dc:format>image/svg+xml</dc:format>
        <dc:type
           rdf:resource="http://purl.org/dc/dcmitype/StillImage" />
      </cc:Work>
    </rdf:RDF>
  </metadata>
  <defs
     id="defs4">
    <style
       id="style2"
       type="text/css"><![CDATA[    
     @font-face {font-family:Mugnuts;
     src: url('/Users/francesco/Repos/write-logos/src/fonts/Mugnuts.ttf');}
     @font-face {font-family:Wabroye;
     src: url('/Users/francesco/Repos/write-logos/src/fonts/Wabroye_014.ttf');}
     ]]></style>
  </defs>
  <g
     id="g14"
     style="font-size:60px">
    <g
       style="text-anchor:middle"
       id="text12"
       aria-label="eXtemporanea">
      <path
         id="path22"
         style="font-family:Mugnuts"
         d="m 200.41328,95.8 q 0.9,0.48 2.1,1.26 1.26,0.72 2.58,1.38 1.38,0.66 2.7,1.14 1.32,0.48 2.4,0.48 1.02,0 1.32,-0.48 0.3,-0.48 0.3,-1.68 0,-1.68 -1.02,-2.7 -0.96,-1.08 -2.34,-1.8 -1.38,-0.72 -2.94,-1.2 -1.56,-0.54 -2.7,-1.2 l -12.6,-1.2 q 0,-0.18 -0.06,-0.72 0,-0.6 0,-0.78 0,-0.42 0.12,-1.56 0.12,-1.2 0.36,-2.7 0.24,-1.56 0.6,-3.24 0.36,-1.68 0.84,-3.06 0.48,-1.44 1.02,-2.4 0.6,-1.02 1.32,-1.14 l 12,-2.4 q 0.36,-0.06 0.48,-0.36 0.18,-0.3 0.18,-0.66 0.06,-0.36 0,-0.66 0,-0.36 0,-0.48 0,-1.32 -0.48,-1.98 -0.48,-0.72 -1.86,-0.72 -2.46,0 -4.74,0.6 -2.28,0.54 -4.74,0.54 0,-1.14 -0.12,-2.58 -0.06,-1.44 -0.06,-2.88 0.06,-1.44 0.3,-2.82 0.24,-1.38 0.84,-2.4 0.78,-1.38 2.82,-2.52 2.1,-1.14 4.56,-2.1 2.46,-1.02 4.86,-1.92 2.46,-0.96 3.96,-1.86 0,-0.18 0,-0.84 0.06,-0.72 0.06,-0.96 0,-1.38 -0.48,-2.22 -0.48,-0.84 -2.04,-0.84 -0.12,0 -0.36,0.06 -0.18,0 -0.18,0 l -9.6,5.4 q -0.84,0.12 -2.46,0.6 -1.62,0.42 -3.24,1.2 -1.56,0.72 -2.76,1.74 -1.2,0.96 -1.2,2.1 0,0.12 0,0.54 0.06,0.36 0.06,0.42 0,0.12 0.18,0.66 0.24,0.54 0.42,1.14 0.24,0.6 0.42,1.14 0.18,0.54 0.18,0.66 0,0.12 -0.18,0.66 -0.18,0.54 -0.42,1.14 -0.18,0.6 -0.36,1.14 -0.18,0.54 -0.24,0.66 -1.08,4.32 -1.68,8.7 -0.6,4.32 -1.32,8.7 -0.3,1.8 -0.84,3.6 -0.48,1.74 -1.02,3.54 -0.48,1.8 -0.84,3.66 -0.36,1.8 -0.36,3.66 0,1.2 0.36,2.16 0.36,0.9 1.86,0.9 1.2,0 1.8,-0.6 0.66,-0.6 1.44,-1.92 z" />
      <path
         id="path24"
         style="font-family:Wabroye"
         d="m 242.24063,86.678322 -5.76923,-8.811189 q -0.91783,-1.416084 -1.6521,-2.333916 -0.73426,-0.944056 -1.70454,-1.888112 -0.94406,-0.944056 -2.01923,-1.416084 -1.07518,-0.472028 -2.22903,-0.472028 -2.17657,0 -3.48776,1.311189 l -0.36713,-0.367133 q 4.48427,-4.51049 10.09615,-4.51049 4.24826,0 7.81469,2.229021 3.56643,2.229021 6.16259,6.188812 l 3.85489,5.900349 2.28147,-3.068182 q 2.2028,-2.937062 2.2028,-4.536713 0,-0.812937 -0.49825,-1.232517 -0.49826,-0.419581 -1.70455,-0.419581 h -0.76049 v -0.524475 h 10.85664 v 0.524475 h -0.86538 q -0.91783,0 -1.59965,0.236014 -0.68182,0.20979 -1.41609,0.839161 -0.73426,0.629371 -1.36363,1.363636 -0.60315,0.708042 -1.67832,2.15035 l -4.53672,6.031469 7.18532,10.987762 q 1.88811,2.858391 2.6486,3.75 0.76049,0.865384 1.62587,0.865384 h 1.04895 V 100 h -21.11014 v -0.524476 h 0.62938 q 1.65209,0 2.41258,-0.314685 0.76049,-0.340909 0.76049,-1.101398 0,-0.996504 -1.31119,-2.989511 l -4.56293,-6.975524 -3.77623,4.903846 q -1.993,2.596154 -3.88112,4.222028 -1.86188,1.59965 -4.27447,2.543706 -2.38637,0.917834 -5.24476,0.917834 -3.17307,0 -5.87412,-0.970282 -2.67483,-0.970279 -4.24825,-2.622377 -1.54721,-1.678322 -1.54721,-3.645105 0,-1.18007 0.91783,-2.019231 0.91784,-0.865384 2.22903,-0.865384 1.18007,0 2.01923,0.865384 0.83916,0.839161 0.83916,2.019231 0,2.910839 1.5472,4.694056 1.57343,1.756993 4.11713,1.756993 1.96679,0 3.64511,-0.524476 1.67832,-0.524475 3.17307,-1.652098 1.49476,-1.127622 2.70105,-2.438811 1.2063,-1.311189 2.70105,-3.277972 z" />
      <path
         id="path26"
         style="font-family:Mugnuts"
         d="m 283.25359,97.48 q -0.12,0.54 0,0.78 0.18,0.24 0.48,0.36 0.3,0.12 0.6,0.12 0.36,0 0.6,0 0.36,0 0.84,-0.06 0.48,-0.12 0.9,-0.36 0.48,-0.24 0.78,-0.54 0.3,-0.36 0.3,-0.9 V 53.44 h 12.9 q 0.54,0 1.14,-0.18 0.66,-0.24 1.2,-0.6 0.6,-0.36 0.96,-0.84 0.42,-0.48 0.42,-1.02 0,-0.72 -0.24,-1.26 -0.24,-0.54 -1.08,-0.9 -4.92,0.12 -9.42,0.06 -4.44,-0.12 -8.76,-0.24 -4.32,-0.18 -8.64,-0.3 -4.32,-0.12 -9,-0.12 -1.08,0 -1.86,0.48 -0.78,0.48 -0.78,1.62 0,0.84 0.42,1.26 0.36,0.42 0.96,0.6 0.6,0.12 1.32,0.18 0.78,0 1.56,0.06 l 8.4,0.6 q 0.54,0.06 1.32,0.18 0.78,0.06 1.56,0.18 0.78,0.06 1.32,0.18 0.6,0.06 0.6,0.06 l 0.6,0.6 q 0.06,0.06 0.12,0.96 0.12,0.9 0.18,2.16 0.12,1.26 0.18,2.58 0.12,1.26 0.12,2.1 0,1.08 0,3.84 0.06,2.76 0.06,6.36 0,3.6 0,7.62 0,3.96 0,7.56 0,3.6 -0.06,6.42 0,2.76 0,3.84 z" />
      <path
         id="path28"
         style="font-family:Mugnuts"
         d="m 321.70234,95.8 q 0.9,0.48 2.1,1.26 1.26,0.72 2.58,1.38 1.38,0.66 2.7,1.14 1.32,0.48 2.4,0.48 1.02,0 1.32,-0.48 0.3,-0.48 0.3,-1.68 0,-1.68 -1.02,-2.7 -0.96,-1.08 -2.34,-1.8 -1.38,-0.72 -2.94,-1.2 -1.56,-0.54 -2.7,-1.2 l -12.6,-1.2 q 0,-0.18 -0.06,-0.72 0,-0.6 0,-0.78 0,-0.42 0.12,-1.56 0.12,-1.2 0.36,-2.7 0.24,-1.56 0.6,-3.24 0.36,-1.68 0.84,-3.06 0.48,-1.44 1.02,-2.4 0.6,-1.02 1.32,-1.14 l 12,-2.4 q 0.36,-0.06 0.48,-0.36 0.18,-0.3 0.18,-0.66 0.06,-0.36 0,-0.66 0,-0.36 0,-0.48 0,-1.32 -0.48,-1.98 -0.48,-0.72 -1.86,-0.72 -2.46,0 -4.74,0.6 -2.28,0.54 -4.74,0.54 0,-1.14 -0.12,-2.58 -0.06,-1.44 -0.06,-2.88 0.06,-1.44 0.3,-2.82 0.24,-1.38 0.84,-2.4 0.78,-1.38 2.82,-2.52 2.1,-1.14 4.56,-2.1 2.46,-1.02 4.86,-1.92 2.46,-0.96 3.96,-1.86 0,-0.18 0,-0.84 0.06,-0.72 0.06,-0.96 0,-1.38 -0.48,-2.22 -0.48,-0.84 -2.04,-0.84 -0.12,0 -0.36,0.06 -0.18,0 -0.18,0 l -9.6,5.4 q -0.84,0.12 -2.46,0.6 -1.62,0.42 -3.24,1.2 -1.56,0.72 -2.76,1.74 -1.2,0.96 -1.2,2.1 0,0.12 0,0.54 0.06,0.36 0.06,0.42 0,0.12 0.18,0.66 0.24,0.54 0.42,1.14 0.24,0.6 0.42,1.14 0.18,0.54 0.18,0.66 0,0.12 -0.18,0.66 -0.18,0.54 -0.42,1.14 -0.18,0.6 -0.36,1.14 -0.18,0.54 -0.24,0.66 -1.08,4.32 -1.68,8.7 -0.6,4.32 -1.32,8.7 -0.3,1.8 -0.84,3.6 -0.48,1.74 -1.02,3.54 -0.48,1.8 -0.84,3.66 -0.36,1.8 -0.36,3.66 0,1.2 0.36,2.16 0.36,0.9 1.86,0.9 1.2,0 1.8,-0.6 0.66,-0.6 1.44,-1.92 z" />
      <path
         id="path30"
         style="font-family:Mugnuts"
         d="m 334.85641,105.28 q 0,0.24 0,0.6 0,0.42 0.12,0.78 0.12,0.36 0.36,0.6 0.3,0.3 0.78,0.3 0.12,0 1.02,-0.48 0.9,-0.42 1.38,-0.72 0.12,-0.06 0.3,-0.3 0.24,-0.18 0.3,-0.3 0.12,-0.36 0.36,-1.32 0.3,-0.9 0.54,-1.98 0.3,-1.02 0.54,-1.98 0.24,-0.96 0.36,-1.32 0.24,-0.9 0.36,-2.46 0.18,-1.56 0.42,-3.24 0.24,-1.68 0.6,-3.24 0.36,-1.56 1.02,-2.46 0,-0.6 0.06,-2.1 0.12,-1.56 0.18,-3.3 0.12,-1.74 0.18,-3.24 0.12,-1.56 0.18,-2.16 0,-0.36 0.06,-1.14 0.06,-0.84 0.18,-1.74 0.18,-0.9 0.36,-1.74 0.24,-0.84 0.6,-1.38 l 1.2,-10.2 q 0.9,0.78 1.56,3.18 0.72,2.4 1.32,5.58 0.66,3.12 1.32,6.54 0.66,3.42 1.44,6.3 0.84,2.88 1.8,4.8 1.02,1.86 2.4,1.86 1.02,0 1.98,-2.22 1.02,-2.28 2.04,-5.64 1.08,-3.42 2.16,-7.38 1.14,-3.96 2.28,-7.32 1.2,-3.42 2.46,-5.64 1.32,-2.28 2.7,-2.28 0,5.52 0.3,10.98 0.36,5.4 0.78,10.86 0.48,5.4 0.96,10.86 0.54,5.4 0.9,10.92 0.06,0.36 0.42,0.48 0.36,0.18 0.78,0.18 0.42,0.06 0.78,0 0.36,0 0.42,0 1.56,0 1.98,-0.24 0.48,-0.24 0.48,-1.74 0,-4.2 -0.36,-8.4 -0.36,-4.2 -0.78,-8.34 -0.42,-4.2 -0.84,-8.4 -0.42,-4.2 -0.48,-8.34 0,-0.78 -0.06,-2.4 -0.06,-1.68 -0.12,-3.72 -0.06,-2.1 -0.12,-4.38 -0.06,-2.28 -0.12,-4.32 -0.06,-2.1 -0.12,-3.72 0,-1.68 -0.06,-2.46 -0.84,-0.42 -1.44,-0.54 -0.54,-0.12 -1.38,-0.12 -0.9,0 -2.22,1.68 -1.26,1.68 -2.7,4.26 -1.38,2.58 -2.82,5.64 -1.44,3.06 -2.64,5.82 -1.2,2.7 -2.04,4.74 -0.78,2.04 -0.96,2.52 -0.3,0.84 -0.48,1.62 -0.18,0.78 -0.42,1.5 -0.24,0.72 -0.6,1.44 -0.3,0.72 -0.9,1.44 -0.18,-0.66 -0.72,-2.76 -0.48,-2.1 -1.14,-4.92 -0.66,-2.82 -1.44,-5.88 -0.78,-3.12 -1.5,-5.7 -0.72,-2.58 -1.38,-4.26 -0.6,-1.68 -1.02,-1.68 h -4.8 q -0.42,0 -0.9,1.26 -0.42,1.26 -0.78,2.88 -0.36,1.62 -0.6,3.06 -0.18,1.44 -0.12,1.8 l -3.6,33 q -0.3,0.72 -0.84,2.4 -0.54,1.62 -1.02,3.48 -0.48,1.86 -0.84,3.6 -0.36,1.74 -0.36,2.64 z" />
      <path
         id="path32"
         style="font-family:Mugnuts"
         d="m 382.46266,101.92 q 0,0.54 0,1.26 0,0.78 0.18,1.44 0.18,0.72 0.54,1.2 0.42,0.48 1.14,0.48 1.2,0 2.22,-0.96 1.08,-0.96 1.38,-2.1 0,-0.24 0,-0.84 0,-0.54 0,-1.26 0.06,-0.66 0.06,-1.26 0,-0.6 0,-0.84 0,-3.66 -0.36,-7.26 -0.3,-3.66 -0.3,-7.32 0,-0.96 1.32,-1.86 1.38,-0.9 3.36,-1.98 1.98,-1.08 4.32,-2.58 2.4,-1.5 4.38,-3.6 1.98,-2.1 3.3,-5.04 1.38,-2.94 1.38,-6.96 0,-4.02 -1.14,-7.44 -1.14,-3.42 -3.42,-5.88 -2.22,-2.52 -5.52,-3.9 -3.3,-1.44 -7.68,-1.44 -0.18,0 -0.54,0 -0.36,0 -0.84,0.06 -0.42,0 -0.78,0 -0.36,0 -0.54,0 -0.3,0.48 -0.84,0.78 -0.48,0.24 -0.96,0.42 l -1.2,18 q -0.12,0.12 -0.36,0.6 -0.24,0.42 -0.24,0.6 0,0.18 0.24,0.66 0.24,0.42 0.36,0.54 0.12,3.6 0.42,7.56 0.3,3.96 0.6,8.1 0.36,4.08 0.6,8.22 0.24,4.08 0.24,7.92 0,0.3 -0.06,1.2 0,0.9 0,1.2 -1.02,0.3 -1.14,0.9 -0.12,0.6 -0.12,1.38 z m 4.2,-38.04 q 0,-0.66 0,-1.8 0,-1.14 0,-2.22 0.06,-1.08 0.06,-1.86 0,-0.84 0,-0.96 0,-0.48 0,-1.74 0.06,-1.32 0.3,-2.64 0.24,-1.38 0.78,-2.4 0.54,-1.08 1.56,-1.08 3,0 5.22,1.38 2.22,1.32 3.66,3.48 1.44,2.16 2.16,4.86 0.72,2.7 0.72,5.4 0,0.84 -0.48,1.26 -0.42,0.42 -0.72,1.08 -1.44,2.88 -3.12,5.22 -1.68,2.28 -4.68,3.78 -0.12,0.06 -0.66,0.24 -0.54,0.18 -1.14,0.42 -0.6,0.18 -1.14,0.36 -0.54,0.12 -0.66,0.18 -0.12,0.06 -0.6,0.3 -0.48,0.18 -0.6,0.3 -0.3,-1.86 -0.48,-3.48 -0.12,-1.68 -0.18,-3.3 0,-1.62 0,-3.24 0,-1.68 0,-3.54 z" />
      <path
         id="path34"
         style="font-family:Mugnuts"
         d="m 408.27578,85.9 q 0,2.4 0.6,4.92 0.6,2.46 1.86,4.56 1.26,2.04 3.24,3.36 1.98,1.32 4.68,1.32 3.3,0 5.7,-1.74 2.46,-1.8 4.14,-4.62 1.74,-2.82 2.82,-6.36 1.08,-3.54 1.68,-7.02 0.66,-3.54 0.84,-6.72 0.24,-3.24 0.24,-5.34 0,-1.8 -0.06,-3.3 0,-1.5 -0.06,-2.94 -0.06,-1.5 -0.18,-3.18 -0.12,-1.68 -0.3,-3.84 -0.54,-0.54 -1.32,-1.14 -0.78,-0.66 -1.68,-1.2 -0.9,-0.54 -1.86,-0.9 -0.9,-0.42 -1.74,-0.42 -0.12,0 -0.36,0.06 -0.18,0 -0.24,0 -0.42,0.12 -1.14,0.3 -0.66,0.18 -1.38,0.36 -0.66,0.18 -1.14,0.36 -0.48,0.12 -0.54,0.18 l -7.2,7.2 q -0.66,1.44 -1.5,2.7 -0.84,1.26 -1.5,2.7 -2.04,4.74 -2.82,10.2 -0.78,5.46 -0.78,10.5 z m 5.34,-0.96 q 0,-3.42 0.42,-6.84 0.48,-3.48 0.84,-6.9 0.3,-1.68 1.44,-3.84 1.14,-2.22 2.7,-4.26 1.62,-2.1 3.54,-3.66 1.92,-1.62 3.72,-2.1 0.06,0 0.42,-0.06 0.42,-0.06 0.84,0 0.42,0.06 0.72,0.24 0.36,0.12 0.42,0.48 0.18,1.8 0.3,3.12 0.12,1.32 0.18,2.46 0.06,1.14 0.06,2.28 0.06,1.14 0.06,2.58 0,1.38 -0.12,3.84 -0.06,2.46 -0.48,5.4 -0.36,2.88 -1.08,5.94 -0.72,3 -1.98,5.46 -1.2,2.46 -3.06,4.02 -1.8,1.56 -4.38,1.56 -1.62,0 -2.58,-1.08 -0.9,-1.08 -1.38,-2.58 -0.42,-1.56 -0.54,-3.24 -0.06,-1.68 -0.06,-2.82 z" />
      <path
         id="path36"
         style="font-family:Mugnuts"
         d="m 445.97266,78.76 q 0.6,0 1.56,1.26 0.96,1.26 1.92,2.88 1.02,1.62 1.86,3.12 0.9,1.44 1.26,1.86 0.24,0.24 0.9,0.96 0.66,0.66 1.38,1.44 0.78,0.72 1.5,1.44 0.72,0.66 1.02,0.96 0.6,0.54 1.38,1.08 0.84,0.48 1.62,1.08 0.78,0.54 1.44,1.2 0.66,0.6 0.96,1.44 0.18,0.06 0.84,0.12 0.72,0 0.96,0 1.2,0 2.1,-0.36 0.96,-0.36 0.96,-1.86 0,-0.84 -0.24,-1.38 -0.18,-0.6 -1.02,-1.32 -2.22,-2.04 -4.08,-3.66 -1.8,-1.68 -3.48,-3.36 -1.62,-1.68 -3.12,-3.54 -1.5,-1.92 -3.12,-4.44 0,-0.06 -0.06,-0.12 0,-0.12 0,-0.18 0,-0.3 1.5,-1.38 1.5,-1.08 3.3,-2.94 1.86,-1.86 3.36,-4.38 1.5,-2.52 1.5,-5.7 0,-3.84 -1.32,-6.72 -1.26,-2.88 -3.54,-4.8 -2.22,-1.92 -5.28,-2.88 -3.06,-0.96 -6.66,-0.96 -0.3,0 -0.96,0 -0.66,0 -1.44,0.06 -0.78,0 -1.5,0 -0.66,0 -0.9,0 -0.24,0.06 -0.72,0.36 -0.48,0.24 -0.9,0.6 -0.42,0.36 -0.72,0.78 -0.24,0.36 -0.06,0.66 l 1.8,3.6 q 0,0.06 0,0.66 0,0.54 0,1.32 0.06,0.72 0.06,1.56 0,0.78 0,1.26 0,3.96 0,8.22 0.06,4.2 -0.18,8.46 -0.18,4.2 -0.72,8.34 -0.48,4.14 -1.56,7.98 v 0.3 q 0,1.74 1.08,2.58 1.08,0.78 2.64,0.78 1.2,0 1.68,-1.02 0.48,-1.02 0.6,-2.34 0.18,-1.32 0.06,-2.64 -0.06,-1.32 -0.06,-1.86 0,-0.36 0.06,-1.32 0.12,-0.96 0.18,-1.98 0.12,-1.08 0.18,-1.98 0.12,-0.96 0.18,-1.32 0.24,-0.9 0.6,-1.38 0.42,-0.54 1.2,-0.54 z m -1.2,-6.36 v -0.72 q 0,-0.6 0.06,-1.86 0.06,-1.32 0.12,-2.88 0.06,-1.62 0.12,-3.36 0.06,-1.8 0.12,-3.36 0.06,-1.62 0.12,-2.88 0.06,-1.26 0.06,-1.86 0.3,-0.78 0.78,-1.56 0.54,-0.78 1.02,-1.44 0.24,0.6 1.02,0.96 0.84,0.3 1.92,0.6 1.08,0.3 2.22,0.84 1.2,0.48 2.16,1.5 1.02,0.96 1.68,2.64 0.66,1.62 0.66,4.26 0,0.18 0,0.6 0,0.42 -0.06,0.9 0,0.48 0,0.9 0,0.42 0,0.6 -0.66,1.26 -1.8,2.58 -1.14,1.32 -2.58,2.34 -1.44,1.02 -3.06,1.68 -1.56,0.66 -3.06,0.66 -0.66,0 -1.08,-0.18 -0.42,-0.18 -0.42,-0.96 z" />
      <path
         id="path38"
         style="font-family:Mugnuts"
         d="m 468.62453,111.22 q 0,1.02 0.42,1.38 0.48,0.42 1.5,0.42 0.54,0 0.9,-0.12 0.42,-0.12 0.9,-0.54 0.18,-0.24 0.6,-0.96 0.42,-0.66 0.9,-1.44 0.48,-0.78 0.9,-1.44 0.42,-0.66 0.6,-0.96 0.3,-0.54 0.66,-1.62 0.42,-1.08 0.84,-2.28 0.48,-1.14 1.02,-2.1 0.54,-0.9 1.08,-1.2 l 4.8,-13.2 q 0.06,-0.18 1.2,-0.78 1.14,-0.6 2.82,-1.32 1.74,-0.72 3.78,-1.5 2.04,-0.84 3.84,-1.5 1.8,-0.66 3.12,-1.08 1.38,-0.42 1.74,-0.42 0.66,0 1.2,1.2 0.54,1.14 1.08,2.88 0.6,1.74 1.14,3.78 0.6,1.98 1.38,3.72 0.84,1.74 1.86,2.94 1.02,1.14 2.4,1.14 0.84,0 1.44,-0.48 0.66,-0.48 0.66,-1.38 0,-0.9 -0.54,-2.1 -0.54,-1.2 -1.26,-2.4 -0.72,-1.2 -1.44,-2.4 -0.66,-1.2 -1.02,-2.1 -0.48,-1.26 -0.96,-3.12 -0.42,-1.92 -0.96,-3.84 -0.48,-1.98 -1.08,-3.66 -0.54,-1.68 -1.2,-2.58 -0.18,-0.54 -0.48,-1.68 -0.24,-1.14 -0.6,-2.52 -0.36,-1.44 -0.78,-3 -0.36,-1.56 -0.72,-2.94 -0.36,-1.44 -0.66,-2.58 -0.24,-1.14 -0.36,-1.68 -0.06,-0.18 -0.18,-0.84 -0.06,-0.72 -0.18,-1.5 -0.06,-0.84 -0.18,-1.56 -0.06,-0.72 -0.06,-0.9 -0.12,-0.72 -0.42,-2.22 -0.24,-1.56 -0.66,-3.06 -0.36,-1.5 -0.9,-2.64 -0.48,-1.14 -1.02,-1.14 -0.96,0 -1.86,0.78 -0.9,0.72 -1.62,1.8 -0.72,1.02 -1.26,2.16 -0.48,1.14 -0.66,1.92 -1.38,6.72 -3.06,13.56 -1.68,6.78 -3.84,13.5 -2.1,6.66 -4.74,13.2 -2.58,6.48 -5.76,12.54 -0.36,0.72 -1.08,1.68 -0.72,1.02 -1.44,2.1 -0.72,1.08 -1.26,2.16 -0.54,1.08 -0.54,1.92 z m 24.72,-57.06 q 0.06,0 0.12,0 0.12,-0.06 0.18,-0.06 0.06,0 0.18,0.06 0.12,0 0.12,0 0.12,0.06 0.36,0.3 0.24,0.18 0.24,0.3 l 1.2,8.4 q 0.54,0.36 1.08,1.86 0.6,1.5 1.02,3.3 0.42,1.74 0.66,3.42 0.3,1.62 0.3,2.34 0,0.96 -1.56,1.92 -1.56,0.96 -3.66,1.74 -2.04,0.72 -4.08,1.2 -1.98,0.48 -2.82,0.48 0,-1.56 0.3,-2.82 0.36,-1.32 0.78,-2.46 0.48,-1.2 1.02,-2.4 0.54,-1.2 0.96,-2.58 1.08,-3.6 2.1,-7.44 1.02,-3.84 1.5,-7.56 z" />
      <path
         id="path40"
         style="font-family:Mugnuts"
         d="m 512.57266,104.5 q 0.12,0.12 0.6,0.3 0.48,0.24 0.6,0.3 h 0.3 q 0.78,0 1.5,-0.66 0.78,-0.6 1.2,-1.14 1.92,-7.8 2.7,-15.48 0.78,-7.74 1.5,-15.72 l 0.6,-6 0.6,-0.6 q 0.6,0.66 0.9,1.26 0.36,0.6 0.54,1.26 0.24,0.6 0.42,1.32 0.18,0.66 0.54,1.56 l 4.8,10.8 q 0.18,0.48 0.6,1.62 0.42,1.14 0.96,2.64 0.54,1.44 1.08,3.06 0.54,1.56 1.02,2.88 0.48,1.26 0.78,2.16 0.3,0.84 0.36,0.84 0.18,0.12 0.48,0.24 0.36,0.06 0.72,0.18 0.42,0.06 0.72,0.12 0.36,0.06 0.48,0.06 0.06,0 0.48,-0.42 0.48,-0.48 0.72,-0.78 0.24,-0.24 0.54,-0.66 0.36,-0.48 0.36,-0.54 V 67.9 q 0,-0.06 0.06,-0.54 0.12,-0.54 0.24,-1.2 0.18,-0.72 0.3,-1.38 0.18,-0.66 0.3,-1.08 l 0.6,-1.8 q 0.66,-3.42 0.72,-6.9 0.06,-3.48 0.48,-6.9 0.12,-1.02 0.66,-1.8 0.6,-0.84 0.6,-1.86 0,-0.84 -0.42,-1.44 -0.42,-0.6 -1.44,-0.9 -0.18,-0.06 -0.78,0.06 -0.54,0.06 -1.2,0.3 -0.6,0.24 -1.08,0.66 -0.48,0.36 -0.54,0.78 l -2.4,22.2 q -0.84,2.76 -0.9,5.64 -0.06,2.88 -0.3,5.76 -1.8,-2.52 -3.42,-6.12 -1.56,-3.6 -2.94,-7.5 -1.32,-3.9 -2.34,-7.74 -0.96,-3.84 -1.5,-6.84 -0.3,-1.02 -0.96,-1.14 -0.66,-0.18 -1.44,-0.18 -0.12,0 -0.6,0.06 -0.48,0.06 -0.6,0.06 -1.98,2.76 -2.7,6.42 -0.72,3.66 -0.84,7.56 -0.12,3.84 0,7.56 0.18,3.72 -0.06,6.66 -0.06,0.72 -0.24,2.22 -0.12,1.5 -0.3,3.42 -0.12,1.86 -0.36,3.96 -0.18,2.1 -0.36,4.02 -0.18,1.86 -0.36,3.36 -0.12,1.5 -0.18,2.22 -0.36,0.12 -0.72,1.02 -0.36,0.84 -0.66,1.92 -0.24,1.08 -0.42,2.04 -0.12,1.02 -0.12,1.32 0,0.18 0,0.54 0,0.36 0,0.78 0.06,0.48 0.06,0.84 0.06,0.36 0.06,0.54 z" />
      <path
         id="path42"
         style="font-family:Mugnuts"
         d="m 559.94453,95.8 q 0.9,0.48 2.1,1.26 1.26,0.72 2.58,1.38 1.38,0.66 2.7,1.14 1.32,0.48 2.4,0.48 1.02,0 1.32,-0.48 0.3,-0.48 0.3,-1.68 0,-1.68 -1.02,-2.7 -0.96,-1.08 -2.34,-1.8 -1.38,-0.72 -2.94,-1.2 -1.56,-0.54 -2.7,-1.2 l -12.6,-1.2 q 0,-0.18 -0.06,-0.72 0,-0.6 0,-0.78 0,-0.42 0.12,-1.56 0.12,-1.2 0.36,-2.7 0.24,-1.56 0.6,-3.24 0.36,-1.68 0.84,-3.06 0.48,-1.44 1.02,-2.4 0.6,-1.02 1.32,-1.14 l 12,-2.4 q 0.36,-0.06 0.48,-0.36 0.18,-0.3 0.18,-0.66 0.06,-0.36 0,-0.66 0,-0.36 0,-0.48 0,-1.32 -0.48,-1.98 -0.48,-0.72 -1.86,-0.72 -2.46,0 -4.74,0.6 -2.28,0.54 -4.74,0.54 0,-1.14 -0.12,-2.58 -0.06,-1.44 -0.06,-2.88 0.06,-1.44 0.3,-2.82 0.24,-1.38 0.84,-2.4 0.78,-1.38 2.82,-2.52 2.1,-1.14 4.56,-2.1 2.46,-1.02 4.86,-1.92 2.46,-0.96 3.96,-1.86 0,-0.18 0,-0.84 0.06,-0.72 0.06,-0.96 0,-1.38 -0.48,-2.22 -0.48,-0.84 -2.04,-0.84 -0.12,0 -0.36,0.06 -0.18,0 -0.18,0 l -9.6,5.4 q -0.84,0.12 -2.46,0.6 -1.62,0.42 -3.24,1.2 -1.56,0.72 -2.76,1.74 -1.2,0.96 -1.2,2.1 0,0.12 0,0.54 0.06,0.36 0.06,0.42 0,0.12 0.18,0.66 0.24,0.54 0.42,1.14 0.24,0.6 0.42,1.14 0.18,0.54 0.18,0.66 0,0.12 -0.18,0.66 -0.18,0.54 -0.42,1.14 -0.18,0.6 -0.36,1.14 -0.18,0.54 -0.24,0.66 -1.08,4.32 -1.68,8.7 -0.6,4.32 -1.32,8.7 -0.3,1.8 -0.84,3.6 -0.48,1.74 -1.02,3.54 -0.48,1.8 -0.84,3.66 -0.36,1.8 -0.36,3.66 0,1.2 0.36,2.16 0.36,0.9 1.86,0.9 1.2,0 1.8,-0.6 0.66,-0.6 1.44,-1.92 z" />
      <path
         id="path44"
         style="font-family:Mugnuts"
         d="m 573.03859,111.22 q 0,1.02 0.42,1.38 0.48,0.42 1.5,0.42 0.54,0 0.9,-0.12 0.42,-0.12 0.9,-0.54 0.18,-0.24 0.6,-0.96 0.42,-0.66 0.9,-1.44 0.48,-0.78 0.9,-1.44 0.42,-0.66 0.6,-0.96 0.3,-0.54 0.66,-1.62 0.42,-1.08 0.84,-2.28 0.48,-1.14 1.02,-2.1 0.54,-0.9 1.08,-1.2 l 4.8,-13.2 q 0.06,-0.18 1.2,-0.78 1.14,-0.6 2.82,-1.32 1.74,-0.72 3.78,-1.5 2.04,-0.84 3.84,-1.5 1.8,-0.66 3.12,-1.08 1.38,-0.42 1.74,-0.42 0.66,0 1.2,1.2 0.54,1.14 1.08,2.88 0.6,1.74 1.14,3.78 0.6,1.98 1.38,3.72 0.84,1.74 1.86,2.94 1.02,1.14 2.4,1.14 0.84,0 1.44,-0.48 0.66,-0.48 0.66,-1.38 0,-0.9 -0.54,-2.1 -0.54,-1.2 -1.26,-2.4 -0.72,-1.2 -1.44,-2.4 -0.66,-1.2 -1.02,-2.1 -0.48,-1.26 -0.96,-3.12 -0.42,-1.92 -0.96,-3.84 -0.48,-1.98 -1.08,-3.66 -0.54,-1.68 -1.2,-2.58 -0.18,-0.54 -0.48,-1.68 -0.24,-1.14 -0.6,-2.52 -0.36,-1.44 -0.78,-3 -0.36,-1.56 -0.72,-2.94 -0.36,-1.44 -0.66,-2.58 -0.24,-1.14 -0.36,-1.68 -0.06,-0.18 -0.18,-0.84 -0.06,-0.72 -0.18,-1.5 -0.06,-0.84 -0.18,-1.56 -0.06,-0.72 -0.06,-0.9 -0.12,-0.72 -0.42,-2.22 -0.24,-1.56 -0.66,-3.06 -0.36,-1.5 -0.9,-2.64 -0.48,-1.14 -1.02,-1.14 -0.96,0 -1.86,0.78 -0.9,0.72 -1.62,1.8 -0.72,1.02 -1.26,2.16 -0.48,1.14 -0.66,1.92 -1.38,6.72 -3.06,13.56 -1.68,6.78 -3.84,13.5 -2.1,6.66 -4.74,13.2 -2.58,6.48 -5.76,12.54 -0.36,0.72 -1.08,1.68 -0.72,1.02 -1.44,2.1 -0.72,1.08 -1.26,2.16 -0.54,1.08 -0.54,1.92 z m 24.72,-57.06 q 0.06,0 0.12,0 0.12,-0.06 0.18,-0.06 0.06,0 0.18,0.06 0.12,0 0.12,0 0.12,0.06 0.36,0.3 0.24,0.18 0.24,0.3 l 1.2,8.4 q 0.54,0.36 1.08,1.86 0.6,1.5 1.02,3.3 0.42,1.74 0.66,3.42 0.3,1.62 0.3,2.34 0,0.96 -1.56,1.92 -1.56,0.96 -3.66,1.74 -2.04,0.72 -4.08,1.2 -1.98,0.48 -2.82,0.48 0,-1.56 0.3,-2.82 0.36,-1.32 0.78,-2.46 0.48,-1.2 1.02,-2.4 0.54,-1.2 0.96,-2.58 1.08,-3.6 2.1,-7.44 1.02,-3.84 1.5,-7.56 z" />
    </g>
  </g>
</svg>
