<?xml version="1.0" encoding="UTF-8" standalone="no"?>
<svg
   xmlns:dc="http://purl.org/dc/elements/1.1/"
   xmlns:cc="http://creativecommons.org/ns#"
   xmlns:rdf="http://www.w3.org/1999/02/22-rdf-syntax-ns#"
   xmlns:svg="http://www.w3.org/2000/svg"
   xmlns="http://www.w3.org/2000/svg"
   id="svg10"
   width="500px"
   version="1.1"
   height="200px">
  <metadata
     id="metadata14">
    <rdf:RDF>
      <cc:Work
         rdf:about="">
        <dc:format>image/svg+xml</dc:format>
        <dc:type
           rdf:resource="http://purl.org/dc/dcmitype/StillImage" />
      </cc:Work>
    </rdf:RDF>
  </metadata>
  <defs
     id="defs4">
    <style
       id="style2"
       type="text/css"><![CDATA[    
     @font-face {font-family:Nattalya Italic;
     src: url('/Users/francesco/Repos/write-logos/src/fonts//Nattalya_Italic.ttf');}]]></style>
  </defs>
  <g
     id="g8"
     style="font-size:30px;font-family:'Nattalya Italic'">
    <g
       style=""
       id="text6"
       aria-label="eXtemporanea">
      <path
         id="path16"
         style=""
         d="m 103.27,96.85 q -1.44,0 -1.5,-1.29 0.03,-1.14 0.96,-2.22 0.93,-1.11 2.1,-1.77 0.93,-0.57 1.92,-0.66 0.3,0 0.54,0.09 0.45,0.24 0.45,0.72 0,0.42 -0.39,0.87 -0.84,0.87 -1.92,1.26 -0.66,0.21 -1.23,0.21 -0.39,0 -0.75,-0.09 -0.54,0.63 -0.78,1.29 -0.09,0.21 -0.09,0.39 0,0.81 1.17,0.81 0.45,0 1.23,-0.3 0.81,-0.3 1.71,-0.87 2.13,-1.23 3.93,-2.94 l 0.06,-0.03 q 0.09,0 0.09,0.03 l -0.03,0.09 q -2.52,2.4 -5.55,3.9 -0.99,0.51 -1.92,0.51 z m 1.02,-3.09 q 0.63,0 1.35,-0.3 0.75,-0.3 1.29,-0.84 0.3,-0.3 0.3,-0.51 0,-0.12 -0.09,-0.18 -0.09,-0.09 -0.21,-0.09 -0.39,0 -0.78,0.18 -0.36,0.15 -0.66,0.27 v 0.03 q -0.81,0.39 -1.47,1.05 l -0.33,0.33 q 0.3,0.06 0.6,0.06 z" />
      <path
         id="path18"
         style=""
         d="m 118.44391,100.45 q -0.45,0 -1.02,-0.27 -0.57,-0.27 -1.02,-0.93 -1.35,-1.98 -1.71,-6.54 -3.66,2.76 -7.26,5.64 l -0.15,0.03 q -0.15,0 -0.15,-0.12 0,-0.12 1.29,-1.08 l 3,-2.34 3.24,-2.43 q -0.03,-0.72 -0.03,-1.47 0,-3.06 0.69,-6.27 0.06,-0.27 0.24,-0.48 0.24,-0.27 0.54,-0.27 0.48,0 0.48,0.36 v 0.06 q -0.45,2.16 -0.66,4.23 -0.12,1.53 -0.18,3 0.6,-0.42 1.14,-0.84 4.23,-3.21 7.62,-5.61 l 0.39,-0.3 q 0.72,-0.54 1.47,-0.99 l 0.06,-0.03 q 0.09,0.03 0.09,0.09 0,0.18 -2.28,1.77 -4.26,3.12 -8.49,6.27 l -0.03,0.33 v 0.9 q 0,1.32 0.12,2.58 0.12,1.56 0.87,3 0.63,1.23 2.1,1.23 0.3,0 0.63,-0.06 0.18,0 0.18,0.12 0,0.12 -0.15,0.21 -0.54,0.21 -1.02,0.21 z" />
      <path
         id="path20"
         style=""
         d="m 121.21281,98.47 q -0.81,0 -0.81,-1.08 0,-0.63 0.27,-1.59 0.69,-2.58 4.2,-7.26 0.45,-0.6 0.96,-1.17 l 0.6,-0.75 q -0.12,0 -0.21,-0.03 -1.92,-0.51 -3.45,-0.51 -0.93,0 -1.92,0.15 -1.44,0.24 -2.67,1.11 -0.75,0.51 -0.75,0.9 0,0.09 0.03,0.15 0.03,0.06 0.03,0.09 0,0.12 -0.09,0.18 -0.12,0.03 -0.18,0.03 h -0.03 q -0.27,-0.06 -0.27,-0.3 0,-0.51 0.48,-0.99 0.87,-0.81 1.92,-1.14 1.59,-0.48 3.06,-0.48 0.63,0 1.23,0.09 1.53,0.18 3,0.54 0.9,-1.2 1.98,-2.46 0.27,-0.3 0.57,-0.3 0.42,0.03 0.42,0.42 0,0.21 -0.21,0.48 -0.57,0.66 -1.11,1.35 -0.27,0.39 -0.6,0.75 l 0.06,0.03 q 1.86,0.48 3.96,0.48 h 0.48 q 1.26,0 2.46,-0.81 0.81,-0.63 0.81,-1.5 0,-0.15 0.18,-0.39 0.15,-0.18 0.3,-0.18 l 0.12,0.03 q 0.15,0.15 0.15,0.33 0,0.21 -0.18,0.48 -0.96,1.47 -2.49,1.95 -0.99,0.33 -1.98,0.33 h -0.66 q -0.57,0 -1.53,-0.15 -0.93,-0.18 -1.83,-0.39 -0.87,1.05 -1.71,2.13 -1.98,2.7 -3.03,4.53 -1.29,1.89 -1.77,3.81 l -0.03,0.27 q 0,0.51 0.42,0.51 0.93,0 3.18,-2.16 1.05,-0.96 1.92,-2.01 1.41,-1.68 1.62,-1.68 0.09,0 0.09,0.09 0,0.03 -0.06,0.09 -0.69,0.72 -1.32,1.44 -1.38,1.59 -2.97,3 -1.08,1.08 -2.07,1.5 -0.3,0.09 -0.57,0.09 z" />
      <path
         id="path22"
         style=""
         d="m 127.11766,96.85 q -1.44,0 -1.5,-1.29 0.03,-1.14 0.96,-2.22 0.93,-1.11 2.1,-1.77 0.93,-0.57 1.92,-0.66 0.3,0 0.54,0.09 0.45,0.24 0.45,0.72 0,0.42 -0.39,0.87 -0.84,0.87 -1.92,1.26 -0.66,0.21 -1.23,0.21 -0.39,0 -0.75,-0.09 -0.54,0.63 -0.78,1.29 -0.09,0.21 -0.09,0.39 0,0.81 1.17,0.81 0.45,0 1.23,-0.3 0.81,-0.3 1.71,-0.87 2.13,-1.23 3.93,-2.94 l 0.06,-0.03 q 0.09,0 0.09,0.03 l -0.03,0.09 q -2.52,2.4 -5.55,3.9 -0.99,0.51 -1.92,0.51 z m 1.02,-3.09 q 0.63,0 1.35,-0.3 0.75,-0.3 1.29,-0.84 0.3,-0.3 0.3,-0.51 0,-0.12 -0.09,-0.18 -0.09,-0.09 -0.21,-0.09 -0.39,0 -0.78,0.18 -0.36,0.15 -0.66,0.27 v 0.03 q -0.81,0.39 -1.47,1.05 l -0.33,0.33 q 0.3,0.06 0.6,0.06 z" />
      <path
         id="path24"
         style=""
         d="m 132.33156,96.16 q -0.27,0 -0.27,-0.18 0,-0.21 0.84,-1.68 0.48,-0.96 1.08,-1.92 1.14,-1.74 2.64,-3.3 0.3,-0.3 0.6,-0.3 0.3,0.03 0.42,0.27 l 0.03,0.12 q 0,0.24 -0.24,0.51 -2.4,2.58 -3.9,4.8 -0.03,0.09 -0.09,0.15 l 2.01,-1.68 q 0.9,-0.75 1.8,-1.44 l 1.47,-1.14 q 0.69,-0.69 1.11,-0.69 0.15,0 0.3,0.12 0.15,0.12 0.15,0.33 0,0.15 -0.18,0.45 -0.15,0.3 -0.51,0.69 -0.06,0.12 -0.15,0.18 -0.63,0.87 -1.35,1.68 0.15,-0.15 1.89,-1.35 0.9,-0.63 1.17,-0.75 0.3,-0.12 0.51,-0.12 l 0.15,0.03 q 0.3,0.12 0.3,0.39 0,0.39 -0.36,0.87 -0.42,0.66 -1.32,1.77 -0.69,0.69 -0.75,1.17 0,0.24 0.27,0.24 0.06,0 0.21,-0.06 0.15,-0.06 0.3,-0.18 l 0.12,-0.06 q 1.32,-0.87 2.13,-1.62 0.27,-0.21 0.51,-0.48 0.72,-0.72 0.81,-0.72 0.03,0 0.03,0.03 0.03,0 0.03,0.03 l -0.03,0.06 q -0.45,0.6 -1.11,1.14 l -0.21,0.18 q -0.78,0.66 -1.62,1.23 0,0.03 -0.03,0.03 -0.33,0.24 -0.72,0.45 -0.36,0.21 -0.69,0.21 -0.42,0 -0.42,-0.66 0,-0.15 0.06,-0.42 0.54,-1.44 1.47,-2.55 l 0.15,-0.24 h 0.03 v -0.03 h -0.09 l -0.03,0.03 q -0.84,0.3 -1.62,0.84 -1.47,1.02 -2.34,1.89 -0.6,0.75 -0.9,0.75 -0.18,0 -0.18,-0.21 0,-0.24 0.81,-1.35 0.78,-1.17 1.53,-2.1 0.3,-0.45 0.6,-0.78 v -0.03 h 0.03 q -0.36,0.18 -0.66,0.42 l -0.15,0.09 q -2.94,2.1 -5.37,4.77 -0.12,0.12 -0.27,0.12 z" />
      <path
         id="path26"
         style=""
         d="m 138.40375,102.85 q -0.27,0 -0.27,-0.24 l 0.03,-0.15 q 1.35,-3.63 3.54,-7.2 1.08,-1.77 2.25,-3.54 l 0.18,-0.27 q 1.05,-1.62 2.28,-3.12 0.24,-0.27 0.48,-0.27 0.33,0 0.45,0.21 0.06,0.06 0.06,0.15 0,0.3 -1.38,2.16 -0.6,0.78 -1.14,1.59 -2.49,3.78 -4.62,7.86 l 1.02,-1.47 q 3.66,-5.58 6.93,-8.19 0.72,-0.6 1.23,-0.6 0.15,0 0.3,0.06 0.51,0.18 0.51,0.6 v 0.3 q 0,0.24 -0.3,0.81 -0.27,0.54 -0.6,0.99 -0.15,0.24 -0.3,0.42 -0.15,0.15 -0.24,0.27 1.35,0 2.7,-0.99 l 0.12,-0.03 q 0.06,0 0.06,0.09 0,0.06 -0.06,0.12 -1.41,1.02 -2.79,1.02 h -0.21 q -1.35,1.65 -3.27,2.46 -0.39,0.18 -0.72,0.18 -0.78,0 -0.78,-0.6 l 0.03,-0.18 q -0.54,0.72 -1.02,1.41 -1.65,2.52 -3.45,4.89 l -0.51,0.99 h -0.03 q -0.21,0.27 -0.48,0.27 z m 6.81,-9.15 q 1.02,-0.54 2.01,-0.54 l 0.39,0.03 q 0.78,-0.93 1.29,-1.89 0.03,0 0.03,-0.03 0.12,-0.21 0.12,-0.3 0,-0.03 -0.03,-0.03 0,-0.03 -0.06,-0.03 -0.18,0.06 -0.42,0.06 -0.3,0.09 -0.57,0.27 -0.45,0.27 -0.63,0.45 -1.17,0.9 -2.13,2.01 z m -0.63,1.92 q 0.21,0 0.45,-0.09 1.32,-0.69 2.25,-1.89 0.06,-0.12 0.18,-0.24 h -0.24 q -0.84,0 -1.68,0.36 -0.81,0.36 -1.23,1.08 -0.12,0.27 -0.12,0.45 0,0.33 0.39,0.33 z" />
      <path
         id="path28"
         style=""
         d="m 149.53516,96.34 q -0.75,0 -0.78,-0.78 0,-1.02 1.23,-2.4 0.6,-0.66 1.2,-1.08 0.09,-0.42 0.39,-0.81 0.3,-0.39 0.69,-0.6 0.39,-0.21 0.75,-0.24 0.21,0 0.39,0.09 0.57,0.33 0.57,0.93 0,0.87 -0.81,2.07 0.78,-0.09 2.4,-0.9 0.87,-0.45 0.96,-0.45 0.06,0.03 0.09,0.09 0,0.12 -0.09,0.18 -0.09,0.03 -0.12,0.03 -2.19,1.23 -3.42,1.32 -1.14,1.59 -2.73,2.37 -0.39,0.18 -0.72,0.18 z m 3.27,-2.85 q 0.51,-0.72 0.75,-1.47 0.09,-0.27 0.09,-0.51 0,-0.21 -0.09,-0.51 -0.09,-0.3 -0.6,-0.33 -0.54,0 -1.02,0.48 -0.33,0.36 -0.45,0.78 0.36,-0.21 0.63,-0.21 0.36,0 0.36,0.36 0,0.3 -0.39,0.51 l 0.06,-0.03 q 0,0.03 -0.03,0.06 -0.03,0 -0.09,0.03 -0.03,0.03 -0.09,0.06 -0.03,0.03 -0.09,0.09 -0.03,0.03 -0.09,0.06 -0.06,0.03 -0.09,0.06 v 0.03 h -0.03 q 0.39,0.54 1.17,0.54 z m -3,2.31 q 0.36,0 0.99,-0.42 1.14,-0.75 1.8,-1.62 -0.78,-0.03 -1.2,-0.63 -0.03,0.03 -0.06,0.06 -0.03,0 -0.03,0.03 -0.6,0.51 -1.29,1.56 -0.36,0.51 -0.36,0.84 0,0.18 0.15,0.18 z" />
      <path
         id="path30"
         style=""
         d="m 155.14844,95.53 q -0.18,0 -0.18,-0.54 0,-0.18 0.06,-0.54 0.36,-1.92 2.22,-4.38 0.03,0 0.03,-0.03 0.33,-0.48 0.84,-0.72 0.18,-0.06 0.33,-0.06 0.33,0 0.33,0.36 0,0.21 -0.24,0.39 0,0.06 -0.3,0.36 -0.27,0.3 -0.51,0.75 -0.54,0.72 -0.96,1.59 l -0.09,0.18 0.15,-0.21 q 0.75,-1.05 1.74,-1.92 l 0.18,-0.15 q 0.66,-0.6 1.32,-1.08 0.21,-0.15 0.48,-0.15 0.48,0.06 0.54,0.48 l 0.03,0.42 q 0,0.21 -0.03,0.45 -0.03,0.21 -0.24,0.39 -0.21,0.18 -0.45,0.18 -0.39,0 -0.39,-0.69 l 0.03,-0.18 q 0,-0.09 -0.03,-0.18 0,-0.09 -0.15,-0.09 -0.12,0 -0.36,0.15 -1.47,1.02 -2.79,2.94 l -0.75,1.2 q -0.27,0.42 -0.45,0.81 v 0.03 q 0,0.03 -0.03,0.03 h -0.03 q -0.15,0.21 -0.3,0.21 z m 3.36,-5.49 h -0.03 z" />
      <path
         id="path32"
         style=""
         d="m 164.32047,95.65 q -0.54,0 -0.9,-0.42 -0.15,-0.21 -0.15,-0.51 0,-0.33 0.12,-0.69 l -0.36,0.21 q -1.38,0.84 -2.46,1.11 -0.24,0.06 -0.45,0.06 -0.09,0 -0.27,0 -0.18,-0.03 -0.3,-0.24 -0.09,-0.24 -0.09,-0.45 0,-0.36 0.27,-0.78 1.05,-1.59 2.79,-2.37 0.72,-0.27 1.5,-0.3 1.05,0 1.29,0.75 v 0.06 q 0,0.27 -0.21,0.45 -0.21,0.15 -0.42,0.15 -0.24,0 -0.45,-0.12 -0.36,-0.18 -0.66,-0.18 -0.45,0 -0.9,0.18 -1.23,0.54 -2.4,1.71 -0.3,0.3 -0.3,0.57 0,0.3 0.39,0.3 0.15,0 0.48,-0.09 0.75,-0.21 1.83,-0.81 0,-0.03 0.03,-0.03 l 0.84,-0.51 q 0.21,-0.39 0.6,-0.6 v 0.03 q 0.12,-0.06 0.24,-0.06 0.09,0 0.12,0.12 0.06,0.09 0.06,0.27 0,0.24 -0.12,0.57 -0.12,0.3 -0.12,0.57 v 0.21 q 0.06,0.3 0.48,0.3 0.21,0 0.54,-0.09 1.5,-0.54 2.82,-1.95 l 1.02,-0.9 h 0.09 l -0.03,0.03 q -1.71,2.07 -3.96,3.18 -0.54,0.27 -0.96,0.27 z" />
      <path
         id="path34"
         style=""
         d="m 167.11469,96.01 q -0.12,0 -0.21,-0.09 -0.09,-0.09 -0.09,-0.21 l 0.03,-0.18 q 0.63,-1.62 1.62,-3.18 0.6,-0.87 1.26,-1.74 1.11,-1.53 1.68,-1.53 0.09,0 0.21,0.09 0.15,0.06 0.15,0.3 0,0.3 -0.72,1.08 l -0.51,0.63 q -0.54,0.69 -0.99,1.41 -0.42,0.69 -0.87,1.41 0.72,-0.72 1.5,-1.41 0.78,-0.69 1.62,-1.41 0.36,-0.36 0.75,-0.63 0.3,-0.18 0.63,-0.18 0.54,0 0.54,0.54 v 0.06 q -0.12,0.42 -0.42,0.9 -0.12,0.24 -0.3,0.54 -0.15,0.3 -0.24,0.54 -0.36,0.51 -0.36,0.84 0,0.15 0.21,0.15 0.3,0 0.84,-0.27 0.75,-0.39 1.47,-0.93 0.72,-0.57 0.9,-0.57 0.06,0 0.06,0.09 l -0.03,0.09 q -0.75,0.72 -1.65,1.23 l -0.09,0.06 q -0.72,0.48 -1.5,0.75 -0.21,0.06 -0.39,0.06 l -0.33,-0.03 q -0.36,-0.09 -0.36,-0.66 0,-0.24 0.09,-0.6 0.24,-0.87 0.75,-1.71 l 0.03,-0.03 -0.12,0.03 q -0.99,0.48 -1.8,1.23 -1.35,1.17 -2.49,2.52 -0.03,0 -0.06,0.03 0,0.03 0,0.06 v 0.03 q -0.09,0.51 -0.66,0.66 z" />
      <path
         id="path36"
         style=""
         d="m 174.69578,96.85 q -1.44,0 -1.5,-1.29 0.03,-1.14 0.96,-2.22 0.93,-1.11 2.1,-1.77 0.93,-0.57 1.92,-0.66 0.3,0 0.54,0.09 0.45,0.24 0.45,0.72 0,0.42 -0.39,0.87 -0.84,0.87 -1.92,1.26 -0.66,0.21 -1.23,0.21 -0.39,0 -0.75,-0.09 -0.54,0.63 -0.78,1.29 -0.09,0.21 -0.09,0.39 0,0.81 1.17,0.81 0.45,0 1.23,-0.3 0.81,-0.3 1.71,-0.87 2.13,-1.23 3.93,-2.94 l 0.06,-0.03 q 0.09,0 0.09,0.03 l -0.03,0.09 q -2.52,2.4 -5.55,3.9 -0.99,0.51 -1.92,0.51 z m 1.02,-3.09 q 0.63,0 1.35,-0.3 0.75,-0.3 1.29,-0.84 0.3,-0.3 0.3,-0.51 0,-0.12 -0.09,-0.18 -0.09,-0.09 -0.21,-0.09 -0.39,0 -0.78,0.18 -0.36,0.15 -0.66,0.27 v 0.03 q -0.81,0.39 -1.47,1.05 l -0.33,0.33 q 0.3,0.06 0.6,0.06 z" />
      <path
         id="path38"
         style=""
         d="m 184.76969,95.65 q -0.54,0 -0.9,-0.42 -0.15,-0.21 -0.15,-0.51 0,-0.33 0.12,-0.69 l -0.36,0.21 q -1.38,0.84 -2.46,1.11 -0.24,0.06 -0.45,0.06 -0.09,0 -0.27,0 -0.18,-0.03 -0.3,-0.24 -0.09,-0.24 -0.09,-0.45 0,-0.36 0.27,-0.78 1.05,-1.59 2.79,-2.37 0.72,-0.27 1.5,-0.3 1.05,0 1.29,0.75 v 0.06 q 0,0.27 -0.21,0.45 -0.21,0.15 -0.42,0.15 -0.24,0 -0.45,-0.12 -0.36,-0.18 -0.66,-0.18 -0.45,0 -0.9,0.18 -1.23,0.54 -2.4,1.71 -0.3,0.3 -0.3,0.57 0,0.3 0.39,0.3 0.15,0 0.48,-0.09 0.75,-0.21 1.83,-0.81 0,-0.03 0.03,-0.03 l 0.84,-0.51 q 0.21,-0.39 0.6,-0.6 v 0.03 q 0.12,-0.06 0.24,-0.06 0.09,0 0.12,0.12 0.06,0.09 0.06,0.27 0,0.24 -0.12,0.57 -0.12,0.3 -0.12,0.57 v 0.21 q 0.06,0.3 0.48,0.3 0.21,0 0.54,-0.09 1.5,-0.54 2.82,-1.95 l 1.02,-0.9 h 0.09 l -0.03,0.03 q -1.71,2.07 -3.96,3.18 -0.54,0.27 -0.96,0.27 z" />
    </g>
  </g>
</svg>
