<?xml version="1.0" encoding="UTF-8" standalone="no"?>
<svg
   xmlns:dc="http://purl.org/dc/elements/1.1/"
   xmlns:cc="http://creativecommons.org/ns#"
   xmlns:rdf="http://www.w3.org/1999/02/22-rdf-syntax-ns#"
   xmlns:svg="http://www.w3.org/2000/svg"
   xmlns="http://www.w3.org/2000/svg"
   id="svg10"
   width="500px"
   version="1.1"
   height="200px">
  <metadata
     id="metadata14">
    <rdf:RDF>
      <cc:Work
         rdf:about="">
        <dc:format>image/svg+xml</dc:format>
        <dc:type
           rdf:resource="http://purl.org/dc/dcmitype/StillImage" />
      </cc:Work>
    </rdf:RDF>
  </metadata>
  <defs
     id="defs4">
    <style
       id="style2"
       type="text/css"><![CDATA[    
     @font-face {font-family:Nemo Nightmares;
     src: url('/Users/francesco/Repos/write-logos/src/fonts//Nemo_Nightmares.ttf');}]]></style>
  </defs>
  <g
     id="g8"
     style="font-size:30px;font-family:'Nemo Nightmares'">
    <g
       style=""
       id="text6"
       aria-label="eXtemporanea">
      <path
         id="path16"
         style=""
         d="m 106.26953,88.134766 h 0.24902 l 0.11719,0.131836 -0.17578,0.131835 -0.19043,-0.190429 z m -2.57812,0.07324 q 1.96289,0.46875 1.96289,0.952148 l -0.0586,0.05859 v 0.05859 q 0.26368,0 0.55664,0.454101 v 0.322266 q 0,0.512695 -0.49804,0.688476 l -0.17578,-0.05859 v 0.05859 l -0.13184,0.19043 0.55664,0.07324 v 0.05859 q -0.51269,0.908203 -1.53809,1.201172 l -2.21191,0.703125 h -0.11719 v -0.131836 q 0.82032,0 2.94434,-1.640625 l 0.49805,-0.703125 V 89.790039 Q 105.03906,89.174805 103.75,88.896484 l -0.98145,0.512696 -0.0586,-0.05859 v -0.07324 l 0.11719,-0.117188 0.0586,0.05859 h 0.13184 v -0.05859 l -0.36621,-0.131836 v 0.05859 l -0.0732,0.263672 0.19042,0.05859 q -0.92285,0.761718 -0.92285,1.464843 v 0.571289 l -0.30761,0.322266 h 0.0586 l 0.19043,-0.07324 v 0.263672 l -0.0586,0.688476 0.17578,0.512696 -0.17578,0.05859 v 0.07324 q 0.27832,0 0.36621,0.439453 0.57129,0.424804 0.86425,1.02539 0.19043,0 0.92286,0.38086 2.06543,-0.512696 2.69531,-1.655274 l 0.24902,-1.083984 q -0.0732,-0.322266 -0.19043,-0.322266 h -0.0586 q -0.36621,0 -0.36621,0.322266 h 0.24902 v -0.19043 h 0.0586 q 0.11719,0 0.11719,0.19043 -0.0879,0.249023 -0.17578,0.249023 h -0.0586 q -0.35157,0 -0.43946,-0.307617 0.14649,-0.644531 0.61524,-0.644531 h 0.13183 q 0.61524,0.527344 0.61524,1.40625 -0.26367,0.74707 -0.80567,1.142578 -0.43945,0.878906 -1.59667,1.274414 l -0.43946,0.117188 -1.09863,-0.05859 -0.61524,-0.439453 -0.0586,-0.07324 -0.0586,0.07324 h -0.0732 q -2.27051,-1.274414 -2.27051,-1.655274 l -0.19043,-0.703125 v -0.05859 h 0.13183 v -0.131836 q -0.19043,0 -0.19043,-0.249024 L 100,91.826172 q 0.21973,-1.845703 0.67383,-1.845703 1.17187,-1.157227 3.01758,-1.772461 z m 2.82714,0.439453 h 0.19043 l 0.11719,0.131836 v 0.19043 l -0.19043,0.190429 h -0.23437 q -0.24903,-0.131836 -0.24903,-0.380859 z m -0.61523,2.036133 h 0.11719 v 0.190429 h -0.11719 z m 1.72852,0.703125 0.11718,0.117187 -0.0586,0.07324 h -0.0586 L 107.5,91.445312 l 0.0586,-0.05859 z m -5.2295,0.05859 h 0.0586 l 0.11719,0.131836 -0.0586,0.05859 h -0.0586 l -0.0586,-0.05859 z m -1.23046,0.57129 h 0.0586 l 0.11719,-0.131836 h -0.0586 z m -0.49805,0.322265 v 0.05859 h 0.13183 l 0.17579,-0.05859 v -0.07324 h -0.11719 z m -0.36621,0.249024 v 0.05859 l 0.19043,-0.190429 h -0.0733 z m 2.76855,0.820312 h 0.19043 v 0.131836 h -0.19043 z m 3.3252,0.644531 -0.0732,0.19043 h 0.13183 v -0.19043 z" />
      <path
         id="path18"
         style=""
         d="m 115.38086,77.880859 h 0.55664 q 2.72461,0.175782 2.72461,0.410157 v 0.05859 l -0.13184,0.131836 0.13184,0.483399 -0.13184,0.336914 0.13184,0.146484 v 0.205078 l -0.13184,0.131836 q -0.51269,-0.688476 -2.3291,-1.49414 -1.77246,0.102539 -1.77246,1.420898 l 0.13184,0.541992 0.0586,-0.05859 h 0.13184 l -0.38086,0.410157 h -0.0586 l 0.0586,-0.07324 v -0.07324 q -0.21973,0 -0.38086,-0.74707 v -0.263672 q 0,-1.054687 1.3916,-1.567383 z m 9.58008,0.05859 h 0.0586 l 3.47168,0.410156 0.82031,-0.131836 v 0.131836 l -1.83105,0.615235 q -1.08399,0.996093 -1.77246,2.666015 -0.14649,0.541993 -2.08008,2.72461 l -0.17578,0.336914 q 0.17578,0.659179 0.9375,2.050781 L 124.00879,86.875 q -0.38086,-0.04394 -0.38086,-0.131836 l -0.0586,0.05859 h -0.0586 l -0.13183,-0.131836 v -0.07324 l 0.0732,-0.05859 v -0.07324 l -0.0732,-0.07324 h -0.11719 v 0.27832 l 0.0586,0.07324 v 0.05859 l -0.0586,0.07324 h -0.26367 l -0.30762,-0.07324 -0.13184,0.146484 q -0.82031,-0.146484 -0.82031,-0.27832 v -0.07324 l 0.26367,-0.410157 v -0.205078 l -0.51269,-0.952148 -1.4502,-1.977539 v -0.46875 q 0,-0.395508 -0.68847,-1.435547 l -0.0586,0.07324 h -0.0732 l -0.0586,-0.07324 v -0.07324 l 0.13183,-0.747071 -0.0732,-0.410156 0.0732,-0.05859 -0.13183,-0.146484 0.0586,-0.263672 h -0.19043 l 0.0732,0.878906 h -0.13183 q 0,-0.292968 -0.24903,-0.336914 0.0293,-0.395507 0.19043,-0.615234 v -0.541992 h 0.11719 l -0.0586,-0.351563 v -0.336914 h 0.13183 v 0.541992 h 0.0586 v -0.46875 l 2.3291,-0.131836 v 0.05859 l -1.12793,0.688477 v 0.336914 q 0.17578,0.996094 1.01074,1.845703 l 0.68848,1.699219 q 0.83496,1.362304 1.25976,1.362304 0.80567,-1.376953 1.64063,-2.519531 1.50879,-2.080078 1.50879,-2.797851 -0.76172,-0.673829 -1.50879,-0.673829 z m -9.08203,0.615234 h 0.19043 q 0.95214,0.410157 0.95214,1.157227 -0.26367,1.362305 -1.08398,1.362305 h -0.0586 q -0.9668,0 -1.39161,-0.46875 l 0.13184,-0.146485 0.87891,0.278321 h 0.43945 q 0.64453,-0.131836 0.64453,-0.673828 v -0.205079 q 0,-0.512695 -0.64453,-0.893554 -0.49805,0 -0.74707,0.820312 h -0.0586 L 115,79.65332 v -0.146484 q 0.14648,-0.952149 0.87891,-0.952149 z m 3.14941,0.688477 v 0.05859 h 0.0732 l 0.0586,-0.263672 q -0.13184,0 -0.13184,0.205078 z m -3.2666,-0.07324 q 0.62988,0.263672 0.62988,0.74707 0,0.615235 -0.51269,0.615235 h -0.11719 q -0.38086,0 -0.62988,-0.410157 v -0.131836 l 0.11718,-0.131836 0.32227,0.336914 h 0.30762 q 0.13183,0 0.19043,-0.410156 -0.0879,-0.27832 -0.30762,-0.410156 l -0.0732,0.27832 0.13183,0.131836 -0.0586,0.07324 h -0.13184 l -0.13183,-0.146484 v -0.263672 z m 4.21875,1.49414 v 0.07324 h 0.0586 l 0.19043,-0.205078 v -0.07324 h -0.0586 z m -1.14258,1.171875 v 0.05859 l -0.11719,0.131836 h -0.38086 l -0.13183,-0.131836 0.0732,-0.05859 z m -2.95898,0.46875 v 0.07324 l -0.11719,0.131836 h -0.13184 V 82.37793 Z m 9.19922,3.208008 h 0.0732 v 0.131836 l -0.13184,0.131836 h -0.0586 v -0.131836 z m -9.69727,0.541992 q 0,0.161133 -0.32227,0.205079 V 86.12793 Z m 2.13867,0.615235 h 0.0586 v 0.131836 h 0.0732 l 0.0586,-0.05859 0.82031,0.131836 v 0.131836 h -2.02148 V 86.875 h 0.57129 q 0.20508,0 0.43945,-0.205078 z m 2.40235,0 h 0.0586 q 0,0.205078 0.19043,0.205078 l 0.62988,-0.205078 h 0.11719 l 0.0732,0.205078 0.49805,-0.131836 q 0,0.27832 0.76172,0.336914 l 0.0586,0.05859 q 0,-0.131836 0.5127,-0.19043 v 0.05859 l 0.0586,-0.05859 h 0.0586 l 1.06934,0.05859 0.26367,-0.05859 0.17578,0.05859 0.38086,-0.263672 q 0,0.205078 0.24903,0.205078 v 0.131836 h -0.49805 q 1.83105,3.837891 1.83105,4.907227 0.52735,0.483398 0.68848,1.157226 1.20117,-0.673828 1.50879,-1.435547 l 0.32226,-0.336914 0.24903,0.205078 0.62988,-0.27832 0.0732,0.07324 v 0.131836 l -1.90429,1.157227 v 0.07324 h 0.38085 v 0.131836 q -1.06933,0.234375 -1.06933,0.483398 v 0.07324 q 0.30762,0 0.57129,0.878906 1.27441,1.49414 1.75781,1.49414 1.04004,0.820313 2.59277,0.820313 h 0.30762 v 0.146484 h -0.62988 q -0.79102,0 -2.51953,-0.351562 h -0.0586 v 0.07324 l 0.49805,0.205078 v 0.205078 l -0.30762,0.205078 h -0.38086 q -1.14257,-1.640625 -3.03222,-1.640625 l -1.56739,0.07324 v -0.131836 l 1.01075,-0.483399 v -0.131836 q -0.16114,0 -0.4541,-0.27832 l -0.36622,0.131836 h -0.0732 v -0.131836 q 0.32227,-0.04395 0.32227,-0.205078 l -0.32227,-0.541992 q 0.43946,-0.688477 1.06934,-0.688477 0,-0.175781 -0.43946,-0.263672 v -0.146484 l 0.0733,-0.05859 q 0,-0.292969 -1.20117,-1.640625 l -0.43946,-1.640625 0.0586,-0.05859 h 0.38086 l 0.62988,0.131836 0.24902,-0.07324 v -0.131836 h -0.30762 l -0.26367,0.07324 q -0.92285,0 -0.99609,-0.410156 Q 122.5,87.504883 122.5,87.285156 q -0.38086,0.307617 -0.87891,1.772461 l 0.0586,0.05859 q -0.24903,0 -0.38086,0.483398 l -1.06934,1.699219 q 0,0.322266 -2.3291,3.28125 -1.15723,1.816406 -2.70996,2.797852 -1.43555,1.464843 -2.51953,1.96289 -2.06543,1.64063 -3.28125,1.64063 -0.84961,0 -1.50879,-0.76172 l -0.32227,0.35156 H 107.5 v -0.0732 q 0.26367,-0.4834 0.82031,-0.4834 l -0.0732,-0.05859 v -0.131836 l 0.13184,-0.131836 q 0.43945,0.600587 1.25976,0.600587 0.70313,-0.10254 1.20117,-0.95215 h 0.0586 v 0.07324 l -0.11719,0.205079 v 0.07324 l 1.25977,-0.893555 q 0.99609,-0.600586 1.12793,-0.952148 0.0732,-0.161133 1.31835,-0.952149 0,-0.263672 1.4502,-1.362304 l 2.53418,-3.208008 q 1.12793,-0.952149 1.50879,-2.387696 l 0.19043,-0.205078 h 0.0586 l 0.0586,0.07324 h 0.0732 l 0.0586,-0.07324 v -0.05859 l -0.19043,-0.205079 q 0.61524,-0.732421 1.25977,-2.460937 h -1.50879 l -0.95215,-0.05859 v -0.146484 l 0.43945,-0.05859 0.32227,0.05859 z m 6.16699,0 v 0.131836 h -0.11719 V 86.875 l 0.24902,0.07324 0.0586,-0.07324 h 0.0732 l 0.0586,0.07324 h 0.0586 l 0.24902,-0.07324 0.62988,0.07324 v 0.131836 H 125.3418 V 86.875 Z m 8.12988,0 h 0.0732 l 0.0586,0.07324 0.0586,-0.07324 h 0.13184 l -0.0586,0.07324 v 0.05859 q 0.68848,0 0.68848,0.146484 v 0.05859 l -0.32227,-0.05859 -0.11718,0.131836 h -0.57129 v -0.07324 z m -18.39844,0.07324 0.30762,0.131836 v 0.07324 l -0.0586,0.05859 v 0.07324 l -0.30762,-0.07324 h -0.95215 V 86.875 L 115,86.801758 115.30762,86.875 h 0.13183 z m 15.32227,0 h 0.0586 l 0.19043,0.131836 0.0586,-0.07324 h 0.0586 l 0.0732,0.07324 h 0.0586 v -0.07324 l 0.0586,0.07324 h 0.26367 v -0.131836 l 0.17578,0.131836 0.0732,-0.07324 h 0.0586 q 0,0.146484 0.24902,0.146484 v 0.131836 l -0.43945,-0.07324 h -0.82031 L 131.14258,86.875 Z m -18.66211,0.05859 0.68848,0.07324 h 0.43945 v 0.131836 h -1.50879 V 86.875 Z m 17.90039,0 V 86.875 l 0.0586,-0.07324 h 0.0733 l 0.0586,0.07324 h 0.0586 l 0.0586,-0.07324 q 0,0.146484 0.19043,0.146484 v 0.131836 h -2.19727 v -0.131836 z m 3.28125,0 h 0.38086 v 0.146484 h -0.38086 z M 114.12109,86.875 h 0.0586 l 0.13183,0.131836 -0.0732,0.07324 h -0.0586 l -0.19043,-0.07324 z m 5.47852,1.772461 0.13184,0.131836 -0.26368,0.205078 v -0.205078 z m 2.13867,0.541992 h 0.13184 l 0.19043,0.205078 h -0.13184 z m 9.14063,0.893555 q 0.13183,0 0.13183,0.205078 -0.11719,0.336914 -0.62988,0.600586 l -0.0586,-0.05859 v -0.07324 q 0.33691,-0.615234 0.55664,-0.673828 z m -1.81641,0.131836 0.11719,0.131836 -0.0586,0.07324 h -0.19043 v -0.07324 z m -7.00195,0.673828 0.0586,0.07324 -0.49805,0.541992 -0.0732,-0.05859 q 0,-0.234375 0.5127,-0.55664 z m 7.4414,0.146484 h 0.19043 l -0.13183,0.131836 -0.0586,-0.07324 z m -5.22949,1.362305 0.11719,0.131836 -0.11719,0.131836 -0.13183,-0.131836 z m 6.79688,0.131836 0.13183,0.131836 -0.0586,0.07324 h -0.0732 l -0.11719,-0.131836 0.0586,-0.07324 z m -7.25098,0.483398 q 0.19043,0 0.19043,0.263672 l 0.0732,-0.05859 h 0.0586 l 0.0586,0.05859 v 0.07324 l -0.0586,0.07324 v 0.05859 q -0.5127,-0.05859 -0.5127,-0.205078 v -0.05859 z m 7.13379,1.289063 h 0.11719 l 0.13183,0.131836 h -0.13183 z m -21.43067,0.205078 q 1.97754,0 2.3877,1.494141 v 0.27832 q 0,2.387695 -1.88965,2.797851 h -0.32226 l -0.30762,-0.07324 V 98.87207 h 0.19043 l -0.0586,-0.07324 v -0.05859 q 1.56739,-0.483398 1.56739,-1.230468 0.13183,0 0.24902,-1.025391 l 0.0732,-0.07324 -0.0732,-0.205078 0.19043,0.146484 v -0.07324 l -0.0586,-0.410156 0.0586,-0.07324 h -0.0586 l -0.24903,0.205079 h -0.0732 q -0.30762,-1.083985 -2.08008,-1.083985 -0.58593,0 -1.37695,1.494141 l -0.0732,0.615234 q 0,1.274414 0.70312,2.519531 v 0.07324 q 0,0.219726 -0.62988,0.336914 v -0.05859 q -0.57129,-1.40625 -0.57129,-2.182617 V 97.37793 q 0,-1.303711 0.43945,-1.713868 0.49805,-0.952148 1.01075,-0.952148 0,-0.205078 0.95214,-0.205078 z m 14.75098,0.541992 h 0.11719 l 0.13183,0.146484 v 0.05859 l -0.13183,0.146485 h -0.19043 l -0.11719,-0.146485 z m -14.88281,0.483399 h 0.30762 q 1.01074,0.307617 1.01074,1.083984 v 0.07324 q 0,0.585938 -0.82031,1.362305 h -0.36622 q -0.70312,0 -0.70312,-1.157227 0,-0.27832 0.38086,-0.541992 h 0.0586 v 0.05859 q -0.24902,0.292969 -0.24902,0.55664 0,0.629883 0.43945,0.747071 0.76172,-0.175782 0.76172,-1.025391 -0.30762,-0.74707 -0.95215,-0.74707 -0.82031,0.410156 -0.82031,1.289062 v 0.205078 q 0,0.556641 0.82031,1.157227 l -0.24902,0.205078 h -0.13184 q -0.9375,-0.703125 -0.9375,-1.289062 v -0.205079 q 0.23438,-1.77246 1.4502,-1.77246 z m -1.01074,0.205078 v 0.05859 l -0.13184,0.146485 -0.0586,-0.07324 v -0.07324 l 0.0586,-0.05859 z m 15.70312,0.46875 h 0.11719 q 0.51269,0 0.51269,0.820312 l -0.38086,0.146485 h -0.0586 q -0.4541,0 -0.4541,-0.351563 0.0732,-0.615234 0.26367,-0.615234 z m -14.56055,0.205078 h 0.0586 l 0.19043,0.205078 v 0.07324 h -0.13184 z m 1.50879,0.205078 0.0586,0.07324 v 0.131836 l -0.11719,0.146484 -0.0732,-0.07324 v -0.131836 z m -1.96289,2.329101 h 0.13184 l -0.19043,0.205079 h -0.0586 v -0.07324 z m -0.30761,0.395508 v 0.205078 h -0.13184 v -0.05859 z m 0.49804,2.3877 q 0.5127,0.13183 0.5127,0.26367 v 0.0732 q -0.35156,0 -0.5127,-0.27832 z" />
      <path
         id="path20"
         style=""
         d="m 128.76953,85.351562 0.0586,0.05859 v 0.05859 l -0.11718,0.117187 h -0.0586 V 85.46875 Z m 1.11328,0.9375 q 1.52344,0 1.52344,0.292969 -0.23438,0.46875 -0.23438,0.820313 0.23438,0.673828 0.23438,1.171875 v 0.644531 l -0.17578,1.875 h 0.0586 q 0.74707,0 1.34766,-0.644531 h 0.11719 q -0.17579,0.351562 -0.35157,0.351562 v 0.117188 q 0.23438,0 0.23438,0.117187 V 91.5625 l -0.0586,0.05859 v 0.05859 l -0.41015,-0.05859 h -0.58594 q -0.35156,0 -0.41016,1.054687 0.16114,2.695313 0.35157,2.695313 0.99609,0.131836 0.99609,0.234375 v 0.05859 l -0.41016,-0.117187 -0.0586,0.05859 h -1.05469 l -0.11718,0.117187 h 0.35156 q 0.0293,0.234375 0.17578,0.234375 l 0.11719,-0.117187 0.11718,0.117187 0.11719,-0.117187 h 0.0586 l 1.05468,1.289062 0.29297,-0.05859 0.76172,0.05859 q 0.35156,-0.366211 0.35156,-0.527344 l -0.17578,-0.585937 -0.58594,-0.05859 -0.23437,0.46875 0.17578,0.05859 -0.0586,0.05859 v 0.05859 l 0.17578,0.175782 q 0.38086,-0.161133 0.41015,-0.292969 Q 133.89648,96.25 133.80859,96.25 q -0.29297,0.07324 -0.29297,0.234375 l -0.11718,-0.117188 q 0.26367,-0.234375 0.52734,-0.234375 l 0.23438,0.46875 q -0.52735,0.351563 -0.76172,0.351563 l -0.41016,-0.46875 v -0.175781 l 0.46875,-0.585938 q 0.9375,0 0.9375,0.644531 l 0.11719,0.585938 -0.11719,0.117187 0.0586,0.175782 -0.0586,-0.05859 h -0.11719 l -0.82031,0.527344 q -0.74707,0 -2.69531,-1.582032 -0.21973,0 -0.82031,-3.28125 l -0.0586,-1.113281 v -0.05859 l -0.58594,-0.05859 h -0.41015 l -0.11719,-0.117188 v -0.46875 q 0,-0.117187 0.17578,-0.117187 l 0.87891,0.05859 v -0.527343 l 0.11719,-1.582032 -0.0586,-0.644531 0.0586,-0.05859 H 130 l 0.17578,0.117188 0.52734,-0.175781 0.23438,0.05859 0.0586,-0.05859 v -0.117188 h -0.46875 v -0.117187 q 0,-0.117188 0.35157,-0.117188 v -0.05859 h -0.41016 V 87.8125 h -0.11719 v -0.234375 q -0.23437,0 -0.23437,0.234375 l -0.46875,0.117187 h -0.35157 l -0.0586,0.05859 -0.41016,-0.117187 -0.0586,0.05859 h -0.0586 l -0.0586,-0.05859 h -0.0586 l -0.0586,0.05859 V 87.8125 l 1.23046,-0.05859 v -0.05859 l -0.0586,-1.113281 V 86.40625 q 0,-0.117188 0.17578,-0.117188 z m 3.63281,3.398438 h 0.0586 v 0.05859 q 0,0.131836 -0.29297,0.175781 z m 1.99219,5.917969 h 0.29297 v 0.117187 h -0.29297 z" />
      <path
         id="path22"
         style=""
         d="m 139.19922,88.134766 h 0.24902 l 0.11719,0.131836 -0.17578,0.131835 -0.19043,-0.190429 z m -2.57813,0.07324 q 1.96289,0.46875 1.96289,0.952148 l -0.0586,0.05859 v 0.05859 q 0.26367,0 0.55664,0.454101 v 0.322266 q 0,0.512695 -0.49805,0.688476 l -0.17578,-0.05859 v 0.05859 l -0.13183,0.19043 0.55664,0.07324 v 0.05859 q -0.5127,0.908203 -1.53809,1.201172 l -2.21191,0.703125 h -0.11719 v -0.131836 q 0.82031,0 2.94434,-1.640625 l 0.49804,-0.703125 v -0.703125 q -0.43945,-0.615234 -1.72851,-0.893555 l -0.98145,0.512696 -0.0586,-0.05859 v -0.07324 l 0.11719,-0.117188 0.0586,0.05859 h 0.13184 v -0.05859 l -0.36622,-0.131836 v 0.05859 l -0.0732,0.263672 0.19043,0.05859 q -0.92285,0.761718 -0.92285,1.464843 v 0.571289 l -0.30762,0.322266 h 0.0586 l 0.19043,-0.07324 v 0.263672 l -0.0586,0.688476 0.17578,0.512696 -0.17578,0.05859 v 0.07324 q 0.27832,0 0.36621,0.439453 0.57129,0.424804 0.86426,1.02539 0.19043,0 0.92285,0.38086 2.06543,-0.512696 2.69532,-1.655274 l 0.24902,-1.083984 q -0.0732,-0.322266 -0.19043,-0.322266 h -0.0586 q -0.36622,0 -0.36622,0.322266 h 0.24903 v -0.19043 h 0.0586 q 0.11719,0 0.11719,0.19043 -0.0879,0.249023 -0.17578,0.249023 h -0.0586 q -0.35156,0 -0.43945,-0.307617 0.14649,-0.644531 0.61524,-0.644531 h 0.13183 q 0.61524,0.527344 0.61524,1.40625 -0.26368,0.74707 -0.80567,1.142578 -0.43945,0.878906 -1.59668,1.274414 l -0.43945,0.117188 -1.09863,-0.05859 -0.61524,-0.439453 -0.0586,-0.07324 -0.0586,0.07324 h -0.0732 q -2.27051,-1.274414 -2.27051,-1.655274 l -0.19043,-0.703125 v -0.05859 h 0.13184 v -0.131836 q -0.19043,0 -0.19043,-0.249024 l -0.0586,-0.512695 q 0.21972,-1.845703 0.67383,-1.845703 1.17187,-1.157227 3.01757,-1.772461 z m 2.82715,0.439453 h 0.19043 l 0.11719,0.131836 v 0.19043 l -0.19043,0.190429 h -0.23438 q -0.24902,-0.131836 -0.24902,-0.380859 z m -0.61523,2.036133 h 0.11719 v 0.190429 h -0.11719 z m 1.72851,0.703125 0.11719,0.117187 -0.0586,0.07324 h -0.0586 l -0.13183,-0.131836 0.0586,-0.05859 z m -5.22949,0.05859 h 0.0586 l 0.11719,0.131836 -0.0586,0.05859 h -0.0586 l -0.0586,-0.05859 z m -1.23047,0.57129 h 0.0586 l 0.11718,-0.131836 h -0.0586 z m -0.49804,0.322265 v 0.05859 h 0.13183 l 0.17578,-0.05859 v -0.07324 h -0.11718 z m -0.36622,0.249024 v 0.05859 l 0.19043,-0.190429 h -0.0732 z m 2.76856,0.820312 h 0.19043 v 0.131836 h -0.19043 z m 3.32519,0.644531 -0.0732,0.19043 h 0.13184 v -0.19043 z" />
      <path
         id="path24"
         style=""
         d="m 146.08398,85.791016 v 0.07324 l -0.19043,0.205078 h -0.13183 v -0.07324 q 0,-0.117188 0.32226,-0.205078 z m 6.82618,0.908203 0.13183,0.131836 v 0.07324 l -0.13183,0.131836 h -0.0586 l -0.13183,-0.131836 z m 0.62988,0.483398 h 0.30762 q 0.19043,0.04395 0.19043,0.556641 l -0.19043,0.205078 h -0.38086 l -0.17578,-0.131836 -0.24903,0.205078 h -0.13183 l -0.13184,-0.146484 z m -12.6709,0.07324 h 0.0732 l -0.13183,0.131836 h -0.0586 z m 10.47363,0 q 0.29297,0.131836 0.30762,0.278321 v 0.131836 q -0.11719,0.27832 -0.36621,0.27832 -0.19043,-0.249024 -0.19043,-0.483399 0,-0.175781 0.24902,-0.205078 z m -1.8164,0.05859 h 0.0586 v 0.146484 h -0.19043 z m 1.12793,0.703125 0.11718,0.131836 -0.11718,0.146484 -0.13184,-0.205078 0.0732,-0.07324 z m -9.02344,0.27832 q 1.68457,0.410157 1.68457,1.245118 l 0.0732,0.07324 h 0.11719 l 1.56738,-1.31836 h 0.19043 q 0.38086,0 1.68457,0.966797 1.08399,-0.717773 1.69922,-0.893554 0.4541,0 0.9375,0.483398 l 0.57129,-0.219727 q 0.0293,-0.263671 0.19043,-0.263671 0.74707,0.07324 0.74707,0.820312 -0.26367,0.146484 -0.57129,0.629883 l -0.17578,-0.07324 q 0.19043,0 0.36621,2.299804 l -0.30762,1.59668 q 0.29297,0.908203 0.43946,0.908203 h 0.19043 q 0.77636,-0.732422 0.99609,-1.318359 -0.16113,-0.454102 -0.30762,-0.498047 h -0.0732 l -0.36621,0.219727 v 0.05859 l 0.11719,0.146485 h 0.0732 q 0.11719,0 0.11719,-0.205078 h 0.0586 l 0.26367,0.27832 q -0.19043,0.336914 -0.43945,0.336914 -0.24902,0 -0.5127,-0.556641 0,-0.351562 0.87891,-0.688476 h 0.0732 q 0.42481,0.46875 0.42481,0.629883 -0.21973,2.563476 -1.74317,2.563476 0,-0.117187 -0.76172,-0.556641 v -0.131835 l 0.13184,-0.219727 h -0.0586 l -0.32227,0.219727 q -0.10254,0 -0.19043,-0.351563 -0.68848,0 -0.68848,-1.245117 l 0.13184,-1.259766 q -0.24902,0 -0.38086,-0.27832 0.17578,-0.556641 0.32227,-0.556641 h 0.0586 l 0.0586,0.07324 h 0.0586 v -1.391601 h -0.0586 l -0.24902,0.205078 h -0.0586 l 0.30761,-0.410156 -0.68847,-0.351563 q -0.9961,0.38086 -0.9961,0.981446 0.39551,0 0.49805,0.483398 h 0.11719 l 0.57129,-0.424805 v 0.07324 l -0.19043,0.27832 v 0.07324 q 0,0.117188 0.30761,0.205078 l -0.17578,0.27832 h -0.0732 l -0.24902,-0.205078 h -0.0586 q 0,0.278321 -0.13183,0.278321 l 0.0732,0.336914 v 0.219726 q 0,0.146485 -0.68848,0.483399 v 0.688476 q 0,0.498047 -0.13183,0.761719 L 146.58203,93.4375 v 0.07324 l 0.55664,0.483399 v 0.410156 h -0.11719 q -0.11718,0 -1.64062,-1.801758 h 0.0732 l 0.24902,0.205078 h 0.0586 v -0.07324 l -0.30762,-0.205078 -0.0732,0.07324 h -0.0586 v -0.424805 h -0.0586 l -0.38086,0.219727 q 0,-0.161133 -0.43945,-0.219727 v -0.205078 h 0.0732 l 0.30762,0.205078 0.0586,-0.27832 -0.0586,-0.27832 V 91.5625 q 0.49805,-0.05859 0.49805,-0.556641 v -0.483398 q 0,-0.146484 0.24902,-0.146484 v -0.07324 q -0.30762,0 -0.30762,-0.410156 l -0.13183,-0.483398 -0.17579,-0.146485 q -0.46875,0 -1.56738,1.59668 0.24903,0 0.9961,1.040039 h -0.13184 L 143.125,90.800781 h -0.0586 q 0,0.161133 -0.24903,0.205078 v -0.07324 q 0,-0.131836 0.19043,-0.131836 v -0.146484 h -0.13183 q 0,-0.131836 -0.24903,-0.131836 0,-0.161133 -0.55664,-0.424805 v -0.351562 h -0.0732 v 0.219726 h -0.0586 l -0.38086,-0.27832 -0.17578,0.05859 q 0,0.263672 0.43945,0.629883 h 0.0586 v -0.131836 h 0.0586 l 0.0586,0.05859 0.13184,0.278321 q 0.24902,0 0.24902,0.146484 l -0.13184,0.205078 0.0733,0.07324 h 0.0586 l 0.0586,-0.07324 h 0.0733 l 0.68847,0.556641 v -0.146485 h 0.0586 l 0.55664,0.556641 -0.0586,0.07324 0.13184,0.146485 h -0.0732 q -0.36621,-0.278321 -0.36621,-0.498047 h -0.13184 l -0.19043,1.538086 0.13184,0.483398 0.19043,-0.131836 0.0586,0.05859 v 0.07324 q -0.49805,0.307617 -0.55664,0.483399 h 0.11719 l 0.19043,-0.131836 h 0.0586 v 0.205078 q 0.26367,2.021484 0.57129,2.021484 v 0.131836 q 0.19043,0 0.19043,0.131836 l -0.26367,0.219727 h -0.30762 q -0.39551,0 -1.81641,-1.186524 l -0.0586,0.07324 h -0.0732 l -0.11719,-0.146484 q 0.55664,-0.131836 0.55664,-0.410156 h -0.0586 l -0.55664,0.410156 q -0.43946,-0.04395 -0.43946,-0.336914 0,-0.249024 0.61524,-0.498047 0,-0.336914 0.13183,-0.336914 l -0.0586,-0.07324 V 93.4375 l 0.11719,-2.636719 -0.0586,-0.07324 h -0.0586 l 0.0586,-0.205078 0.0586,0.05859 h 0.0732 v -0.131836 q -0.19043,0 -0.57129,-0.556641 l -0.30762,-0.205078 -0.0732,0.27832 0.13184,0.131836 q -0.19043,0 -0.43946,0.424805 l 0.30762,0.27832 h 0.0732 l 0.17578,-0.219726 -0.17578,-0.05859 v -0.07324 l 0.11719,-0.146485 0.24902,0.351563 v 0.146484 l -0.36621,0.410156 h -0.13183 l -0.68848,-0.483398 q 0,-0.834961 0.38086,-0.834961 l -0.0732,-0.07324 v -0.07324 q 0,-0.161133 0.26367,-0.205078 l -0.49805,-0.761719 h 0.0586 q 0.38086,0.410156 0.74707,0.410156 v 0.07324 l -0.0586,0.07324 v 0.07324 q 0.17578,0 0.17578,0.27832 H 141.25 l 0.13184,-0.146484 H 141.25 V 89.40918 l 0.0586,0.05859 h 0.13184 l -0.43945,-0.410156 0.0586,-0.07324 v -0.131836 l -0.0586,-0.07324 v -0.07324 h 0.0586 l 0.0586,0.07324 h 0.0733 z m 10.97168,0.131836 0.11719,0.146485 -0.0586,0.05859 h -0.13183 l -0.11719,-0.131835 0.0586,-0.07324 z m -7.03125,0.205078 q 0,0.146485 0.19043,0.146485 h 0.0586 v -0.07324 z m 3.2666,0.556641 q 0,0.146484 0.19043,0.146484 h 0.0586 v -0.07324 z m -2.19727,0.07324 v 0.146485 q 0.19043,0 0.19043,0.131836 l 0.30762,-0.07324 v -0.05859 z m -4.51171,0.483399 0.19043,0.146484 0.19043,-0.27832 v -0.07324 l -0.32227,0.146484 0.13184,-0.219727 v -0.05859 q -0.14649,0 -0.19043,0.336914 z m 5.69824,0 h 0.0732 l 0.17578,0.219726 v 0.05859 l -0.11719,0.146484 h -0.0586 l -0.19043,-0.205078 v -0.07324 z m 2.13867,0.629883 v 0.07324 l 0.0586,0.27832 h -0.11718 v 0.07324 h 0.30761 v -0.146484 q -0.19043,0 -0.19043,-0.27832 z m -0.38086,0.07324 v 0.27832 h 0.0586 v -0.27832 z m 1.50879,0.131836 h 0.19043 l 0.11719,0.146484 v 0.07324 l -0.19043,0.205078 h -0.0586 l -0.19043,-0.205078 v -0.07324 z m -8.21777,0.55664 h 0.13183 l 0.11719,0.146485 v 0.05859 q -0.24902,-0.102539 -0.24902,-0.205078 z m 8.65722,0.556641 q 0.19043,0.263672 0.19043,0.483398 l -0.0732,0.07324 h -0.11719 l -0.32226,-0.278321 q 0.0732,-0.27832 0.32226,-0.27832 z m -3.2666,0.27832 h 0.0732 l 0.11719,0.146485 v 0.05859 l -0.11719,0.146485 h -0.0732 l -0.11719,-0.146485 v -0.05859 z m -3.50098,0.761719 q 0.49805,0.439453 0.49805,0.703125 l 0.0586,-0.07324 h 0.0586 q 0.62988,0.439453 0.62988,0.761719 l -0.0586,0.07324 q 0.13183,0 0.13183,0.205078 l 0.0586,-0.07324 h 0.0586 l 0.68848,0.498047 0.13183,0.27832 0.0586,-0.07324 h 0.0586 l 0.13184,0.131836 -0.0586,0.07324 0.55664,0.27832 q 0,0.395508 -0.62988,0.703125 -0.41015,0.615234 -0.80566,0.615234 -0.16114,0 -1.31836,-1.113281 -0.24903,0 -0.24903,-0.205078 0.68848,-0.454101 0.68848,-0.629883 v -0.834961 h 0.0586 l 0.38085,0.351563 h 0.0586 v -0.07324 q -0.43945,-0.249024 -1.18653,-1.523438 z m 1.37696,0.27832 v 0.07324 l 0.19043,0.146485 h 0.0586 v -0.07324 z m 0.0586,0.629883 0.24903,0.27832 h -0.0586 l -0.19043,-0.205078 z m 0.68848,0.761719 0.19043,0.205078 h -0.0586 l -0.13183,-0.131836 z m -5.25879,0.146484 v 0.336914 h 0.0586 v -0.336914 z m 0.24902,0 0.11719,0.131836 h 0.0732 l -0.13183,-0.131836 z m 4.2041,0 v 0.05859 l 0.17579,0.146484 h 0.0732 v -0.07324 z m -3.95507,0.336914 v 0.07324 h 0.30761 q 0,-0.27832 0.13184,-0.27832 v -0.07324 h -0.0586 l -0.32227,0.27832 z" />
      <path
         id="path26"
         style=""
         d="m 151.73828,83.300781 h 0.0586 q 1.50879,0.498047 2.63672,1.171875 -0.76172,0.131836 -1.46484,0.878906 l -0.0586,0.410157 q 0,0.307617 0.29296,0.46875 h 0.0586 l -0.11719,-0.175782 v -0.46875 l 0.11719,-0.117187 h 0.11719 l -0.0586,0.292969 v 0.05859 q 0,0.10254 0.35156,0.234375 l 0.29297,-0.175781 0.17578,0.175781 -0.0586,0.05859 v 0.05859 h 0.11719 l 0.11719,-0.117188 v -0.351562 q -0.20508,-0.351563 -0.52735,-0.351563 l -0.35156,0.117188 q -0.23438,-0.08789 -0.23438,-0.175781 L 153.55469,85 h 0.29297 q 0.4248,0 0.70312,0.585937 v 0.410157 l 0.23438,-0.05859 q 0.23437,0.08789 0.23437,0.175781 0,0.351563 -0.87891,0.527344 0,0.117187 -0.52734,0.175781 h -0.0586 l -0.0586,-0.05859 h -0.0586 l -0.0586,0.351563 q 0.23437,0.0293 0.23437,0.175781 v 0.175781 l -0.17578,0.175782 q -1.28906,-0.498047 -1.28906,-1.347657 l 0.46875,-0.410156 -0.0586,-0.351562 q 0,-0.234375 0.23438,-0.351563 0,-0.424804 0.99609,-0.820312 v -0.117188 q -0.23437,0 -2.05078,-0.820312 z m 3.33984,0.703125 3.98438,0.410156 h 0.29297 q 0.19043,0 0.41015,0.175782 h 0.17579 l 0.46875,-0.234375 v 0.05859 L 160,84.707031 v 0.05859 q 0.82031,0.395508 0.82031,0.9375 l -0.0586,1.171875 q 1.3916,0.556641 1.40625,0.644531 v 0.05859 q -0.70313,-0.175781 -1.40625,-0.585938 l -0.11719,0.527344 0.0586,0.175781 h -0.17578 q -0.29297,-0.146484 -0.29297,-0.292968 l -0.0586,0.05859 -0.0586,-0.05859 h -0.0586 l -0.35156,0.05859 -0.35156,-0.117187 -0.0586,0.05859 -0.17578,-0.05859 q 0,-0.146484 -0.46875,-0.292969 v -0.05859 h 0.0586 l 0.41015,0.05859 v -0.46875 l 0.11719,-0.175781 q -0.23437,0 -0.23437,-0.175781 h 0.11718 l -0.0586,-0.05859 0.0586,-0.05859 -0.17578,-0.820312 h -0.0586 l -0.17578,0.117187 h -0.0586 v -0.05859 l 0.17578,-0.234375 -0.29296,-0.292968 h -0.46875 v -0.117188 h -0.11719 l -0.23438,0.175781 h -0.58593 L 157.01172,85 v 0.05859 l 0.11719,0.175781 h -0.11719 q -0.35156,0 -0.35156,-0.234375 l -0.23438,0.05859 -0.9375,-0.410157 h -0.17578 v 0.05859 l 1.99219,0.703125 v 0.05859 l -0.0586,0.05859 h -0.0586 l -0.17578,-0.117188 -0.11719,0.175781 0.11719,0.117188 v 1.230469 h -0.11719 q -0.11719,0 -0.11719,-0.175782 L 156.60156,86.875 h -0.11719 Q 156.25,86.772461 156.25,86.640625 h -0.11719 q 0,0.175781 -0.35156,0.175781 l 0.11719,0.175781 h -0.0586 l 0.11719,0.175782 0.17578,-0.05859 -0.0586,-0.05859 v -0.117187 l 0.23437,0.117187 -0.0586,0.05859 v 0.117187 h 0.0586 v -0.117187 l 0.9961,0.292969 v 0.05859 l -0.11719,0.117188 -0.17578,-0.05859 v 0.351563 q -0.13184,0.292968 -0.35156,0.292968 v 0.117188 l 0.35156,-0.175781 v 0.05859 q 0,0.336915 0.82031,0.761719 h 0.0586 v -0.117187 h 0.76172 q 0.11719,-0.527344 0.29297,-0.527344 l -0.0586,-0.05859 v -0.05859 q 0,-0.161132 0.41015,-0.234375 v 0.117188 l 0.29297,-0.05859 v 0.05859 l 0.0586,0.05859 v 0.05859 l 0.17578,-0.117187 0.17578,0.117187 -0.11719,0.292969 q 0.11719,0 0.23438,-0.351562 l -0.0586,-0.05859 0.0586,-0.05859 0.17578,0.05859 0.17578,-0.05859 v 0.05859 q -0.4834,1.289062 -0.99609,1.289062 l -0.52735,0.175782 V 89.6875 q 0.83496,0.410156 0.9961,0.644531 h -0.11719 l -1.52344,-0.996094 h -0.0586 q 0,0.117188 0.17578,0.117188 v 0.117187 l -1.34766,-0.234375 h -0.17578 v -0.175781 h 0.11719 v -0.05859 h -0.11719 q 0,0.175782 -0.23437,0.175782 l -0.0586,0.05859 v 0.117188 l 0.0586,-0.05859 h 0.11718 l -0.0586,0.292969 0.17578,0.644531 -0.17578,0.996094 0.11719,1.347656 h -0.17578 l -0.17579,-0.117187 v 0.117187 q 0.41016,0 0.41016,1.113281 -0.17578,0.117188 -0.46875,0.117188 l 0.0586,0.234375 0.29297,-0.175781 h 0.0586 q 0,0.864258 1.58203,2.167968 v 0.05859 l -0.11719,0.117188 H 158.125 q -0.30762,0 -1.52344,-0.820313 L 156.25,95.429687 h -0.52734 l -0.70313,0.175782 -0.0586,-0.05859 v -0.175781 q 0.82031,-0.46875 0.82031,-1.640625 h 0.11719 v -0.05859 l -0.35157,-0.05859 v -0.05859 h 0.17579 v -0.292968 l -0.17579,-0.878907 v -0.117187 h 0.0586 l 0.52734,0.175781 h 0.0586 v -0.05859 q -0.4834,-0.117187 -0.52735,-0.234375 l -0.23437,-1.289062 -0.17578,0.117187 v -0.117187 l 0.17578,-0.234375 -0.0586,-0.05859 v -0.05859 l 0.23438,-0.234375 0.0586,0.05859 v -0.05859 q -0.23437,-0.08789 -0.23437,-0.175781 v -0.761719 l 0.0586,-0.05859 -0.0586,-0.05859 0.0586,-0.703125 v -1.054688 h 0.11719 v -0.05859 l -0.46875,-0.410157 h 0.11719 l 0.17578,0.05859 v -0.05859 q 0,-0.878906 -0.23438,-0.878906 l 0.11719,-0.585937 -0.0586,-0.351563 0.0586,-0.410156 -0.11719,-0.117188 0.0586,-0.05859 -0.29297,-0.117188 -0.23438,0.05859 h -0.0586 q 0,-0.234375 -0.41016,-0.234375 v -0.117188 z m -3.16406,0.46875 0.0586,0.05859 v 0.05859 l -0.0586,0.05859 h -0.17578 V 84.53125 Z m 6.26953,0.05859 v 0.117187 l 0.17578,-0.05859 v -0.05859 z m -4.51172,0.9375 h 0.23438 q 0.11719,0 0.23437,0.351562 l -0.0586,0.05859 h -0.0586 l -0.35157,-0.351562 z m 3.8086,0.05859 h 0.0586 q 0.32227,0 1.46485,0.644531 v 0.05859 h -0.0586 q -0.39551,-0.05859 -1.46484,-0.703125 z m -1.9336,0.9375 h 0.0586 l 0.11719,-0.117188 0.0586,0.05859 h 0.11719 l 0.23437,-0.234375 v -0.05859 q -0.51269,0.175781 -0.58594,0.351563 z m -1.99218,0.117187 h 0.0586 l 0.41016,-0.117187 v -0.05859 h -0.11719 q -0.35156,0.05859 -0.35156,0.175781 z m 6.21093,-0.05859 v 0.05859 l 0.46875,0.175781 v -0.117187 l -0.41015,-0.117188 z M 159.23828,86.875 v 0.175781 l 0.11719,-0.117187 V 86.875 Z m -0.76172,0 h 0.0586 l 0.11718,0.117187 h -0.17578 z m 1.17188,0.351562 v 0.05859 q 0.11718,0 0.11718,-0.175781 h 0.11719 l -0.0586,0.05859 v 0.117187 h 0.0586 L 160,86.933594 h -0.0586 z m -3.98438,0.175782 v 0.117187 l 0.23438,0.117188 h 0.0586 q -0.0293,-0.131836 -0.29297,-0.234375 z m -3.80859,0.05859 h 0.0586 l 0.11719,0.117188 v 0.05859 l -0.11719,0.117187 q -0.23437,-0.08789 -0.23437,-0.175781 z m 10.42969,0.05859 h 0.0586 l 0.11719,0.117188 h -0.17578 z m -4.92188,0.05859 h 0.35156 v 0.117187 h -0.23437 z m 1.34766,0 h 0.0586 l 0.11719,0.117187 v 0.05859 h -0.0586 l -0.11718,-0.117187 z m -4.6875,0.234375 0.17578,0.234375 v 0.175781 l -0.11719,0.117188 h -0.17578 l -0.23438,-0.234375 v -0.117188 q 0.0586,-0.175781 0.35157,-0.175781 z m 2.22656,0.05859 0.11719,0.117187 h 0.0586 l -0.11719,-0.117187 z m 0.70312,0.703125 V 88.75 q 0.29297,0 0.76172,0.351562 h 0.0586 Q 157.46582,88.764648 157.1875,88.75 l 0.0586,-0.05859 v -0.05859 z m -2.22656,0.05859 0.11719,0.117188 -0.11719,0.117187 L 154.60937,88.75 Z m 1.23047,0.234375 h 0.17578 v -0.175781 z m -0.35156,0.175782 v 0.117187 q 0.26367,-0.117187 0.29297,-0.234375 v -0.05859 q -0.14649,0.175782 -0.29297,0.175782 z m 0.52734,0.996093 0.23438,-0.117187 -0.0586,-0.05859 v -0.05859 l 0.17578,-0.234375 v -0.05859 q -0.35156,0.322265 -0.35156,0.527343 z m -0.35156,1.875 v 0.05859 l 0.17578,-0.175781 h 0.0586 v -0.117188 z" />
      <path
         id="path28"
         style=""
         d="m 166.92871,87.724609 h 0.0439 q 0.24902,0.146485 0.35156,0.292969 v 0.175781 q 0,0.410157 -0.39551,0.410157 l -0.13184,0.04395 h -0.0879 l 0.0439,-0.04395 v -0.08789 h -0.0439 v 0.08789 q -0.30761,0 -0.30761,-0.410157 0.11718,-0.307617 0.52734,-0.46875 z m -3.09082,0.46875 q 0,0.117188 0.21973,0.117188 v 0.04394 q 0,0.07324 -0.92285,0.74707 h -0.0439 q -0.43945,-0.263671 -0.43945,-0.498046 0.8789,-0.410157 1.18652,-0.410157 z m 3.00293,0.117188 v 0.04394 l 0.0879,-0.08789 v -0.04395 z m -3.17871,0 -0.044,0.131836 h 0.0879 v -0.131836 z m 0.70312,0.04394 h 0.0439 q 0.17578,0 0.17578,0.205078 l 0.26367,-0.04394 q 1.02539,0.292969 1.02539,0.454102 -0.13183,0 -0.26367,0.175781 l -0.13183,0.04394 -0.98145,-0.424805 -0.13184,-0.04394 q -0.19043,0 -0.61523,0.834961 h -0.0439 l -0.13183,-0.161133 v -0.04394 l 0.65918,-0.952149 0.35156,0.249024 h 0.0439 v -0.04395 q -0.13184,0 -0.26368,-0.205079 z m -0.83496,0.205078 v 0.131836 h 0.0439 l 0.0439,-0.131836 z m 4.27735,0.04395 h 0.0879 l 0.0879,0.08789 v 0.0293 l -0.0879,0.08789 h -0.0439 l -0.13183,-0.117188 z m -5.37598,0.161132 0.61523,0.424805 q -0.35156,0.703125 -0.70312,0.703125 v -0.04394 l -0.0439,0.04394 q -0.61523,-0.102539 -0.61523,-0.205078 0.0879,0 0.0879,-0.131836 l 0.0439,-0.04394 h 0.0439 q 0.26367,0 0.52735,0.175781 h 0.0879 q 0,-0.117188 -0.4834,-0.249023 v -0.08789 z m 4.32129,0.131836 h 0.0439 l 0.0879,0.07324 v 0.04394 l -0.0879,0.08789 h -0.0879 l -0.0879,-0.08789 z m -0.87891,0.07324 h 0.0439 l 0.30762,0.424804 0.0439,-0.04394 h 0.0439 q 0.74707,0.04394 0.74707,0.410156 h 0.0439 q 0.74707,-0.307617 0.9668,-0.498047 l 0.21973,0.205078 v 0.131836 l -0.17579,0.161133 H 167.5 q -0.57129,0 -0.57129,0.585938 -0.17578,0 -0.17578,0.08789 0.39551,0.9375 0.43945,1.31836 h -0.0439 l -0.79102,-0.498047 0.0439,-0.04395 h 0.0879 l 0.0439,0.04395 h 0.0439 v -0.08789 q -0.14649,-0.732422 -0.39551,-0.732422 -0.36621,-0.27832 -0.43945,-0.541992 0.0732,-0.19043 0.26367,-0.292969 l -0.30762,-0.380859 q 0.17578,-0.131836 0.17578,-0.249023 z m 2.72461,0.131835 0.0879,0.08789 v 0.0293 l -0.0879,0.08789 -0.0879,-0.161133 0.0439,-0.04395 z m 0.87891,0.205079 h 0.0879 l 0.13184,0.131836 v 0.0293 q 0,0.292969 -0.39551,0.292969 -0.0879,0 -0.17578,-0.292969 0.19043,-0.161132 0.35156,-0.161132 z m -4.7168,0.161132 0.0439,0.04395 v 0.131836 l -0.65918,0.205078 -0.0439,-0.04395 V 89.6875 q 0.43946,-0.219727 0.65918,-0.219727 z m -1.23047,0.08789 q 0.17578,0.04395 0.17578,0.161133 -0.0879,0.249023 -0.21972,0.249023 l -0.13184,-0.0293 v -0.04394 q 0.0586,-0.307617 0.17578,-0.336914 z m -2.3291,0.131836 h 0.0439 l 0.0879,0.07324 h -0.0439 z m 3.69141,0 0.41015,0.864258 h -0.0439 q -0.36621,0 -0.36621,-0.454102 h 0.0439 q -0.0146,-0.117187 -0.21972,-0.161133 l -0.0439,-0.175781 z m 1.11328,0.0293 v 0.04394 l 0.21973,0.04395 q 0,-0.08789 -0.13184,-0.08789 z m -4.54102,0.04394 h 0.0439 l 0.0879,0.08789 h -0.13184 z m 2.54883,0 0.13184,0.131836 h -0.0439 l -0.0879,-0.08789 z m 2.29981,0.04395 v 0.08789 l 0.21972,0.07324 h 0.0439 v -0.0293 z m -4.7168,0.04395 h 0.0439 l 0.70313,0.205078 -0.0439,0.205078 0.0439,0.629883 -0.0879,0.454101 -0.21973,-0.04394 0.0879,0.249024 h 0.0439 q -0.10254,0 -0.21973,1.113281 v 0.249023 l 0.26367,0.46875 h -0.0439 q 0.35156,0.571289 0.35156,0.776367 h -0.17578 v 0.04395 q 0.36621,0 0.74707,0.834961 0.26367,0.292968 0.35156,0.292968 l 1.09864,-0.04394 0.89355,-0.74707 h 0.13184 l 0.13183,0.08789 h 0.0439 l -0.13184,-0.175781 q 0.0439,-0.161133 0.39551,-0.161133 v -0.04395 h -0.0879 v -0.04394 l 0.17578,-0.161133 h 0.0439 l -0.0439,0.04394 v 0.04395 h 0.0439 l 0.0439,-0.04395 v -0.04394 l -0.0439,-0.04395 v -0.04395 l 0.17578,-0.952148 v -0.08789 l 0.43945,0.175781 h 0.0439 v -0.04395 l -0.26367,-0.08789 0.0879,-1.157227 -0.0439,-0.205078 h 0.0439 q 0.36621,0.0293 0.57129,0.322265 v 0.175782 q 0,0.454101 -0.21972,0.454101 v 0.04395 q 0.17578,0 0.17578,0.07324 -0.0879,0.46875 -0.17578,0.46875 h -0.0439 l -0.0439,-0.04395 h -0.0439 q 0,0.336915 -0.92285,1.699219 -0.98145,0.791016 -1.46485,0.791016 h -1.01074 l -0.4834,0.0293 q -0.73242,-0.205078 -1.75781,-1.816407 -0.30762,0 -0.30762,-1.49414 l 0.17579,-0.08789 -0.044,-0.04394 v -0.0293 l -0.0439,0.0293 h -0.0879 l -0.13183,-1.069336 0.13183,-0.249023 0.26368,0.117187 h 0.0439 v -0.04394 q -0.13183,0 -0.13183,-0.07324 l 0.57128,-0.952149 z m 2.37305,0.04394 h 0.0439 l 0.13184,0.117188 -0.0879,0.08789 z m 0.57129,0 0.17578,0.161133 -0.0439,0.04394 h -0.0439 q -0.26368,-0.102539 -0.26368,-0.161133 l 0.0439,-0.04394 z m 2.08007,0.07324 q 0,0.08789 0.13184,0.08789 h 0.0439 v -0.04395 z m -3.35449,0 h 0.0439 q 0.30761,0.05859 0.30761,0.175782 v 0.07324 h -0.0439 q -0.27832,-0.102539 -0.30762,-0.205078 z m 1.01074,0 0.0879,0.08789 v 0.04394 h -0.0879 z m -0.21972,0.175782 h 0.0439 q 0.20508,0.161132 0.43946,0.161132 l 0.0439,0.04395 v 0.08789 q -0.52734,-0.07324 -0.52734,-0.175781 z m 0.4834,0.07324 h 0.0879 l 0.0879,0.08789 -0.0439,0.04395 -0.13183,-0.04395 z m -0.87891,0.04394 q 0.4541,0.292969 0.57129,0.292969 v 0.08789 h -0.0879 v 0.04395 q 0.30761,0 0.30761,0.07324 l 0.35157,-0.205078 q 0.26367,0.05859 0.26367,0.131836 -0.16113,0.117187 -0.30762,0.117187 0,0.08789 0.13184,0.08789 l -0.0439,0.0293 v 0.04394 l -0.0439,-0.04394 h -0.0439 l -0.0439,0.04394 h -0.0439 l -0.13183,-0.04394 -0.0879,0.08789 h -0.0439 q -0.5127,-0.424804 -1.23047,-0.571289 l 0.0439,-0.04394 v -0.04394 l 0.26367,0.08789 q 0.13183,0 0.13183,-0.175781 z m 3.83789,0 h 0.13184 l 0.13183,0.131836 v 0.04394 q 0,0.205078 -0.13183,0.249024 h -0.17579 q -0.10253,0 -0.13183,-0.292969 z m -0.0439,0.131836 v 0.04394 l 0.21973,0.0293 h 0.0439 v -0.0293 L 167.5,90.390625 Z m -2.38769,0.161133 h 0.0439 l 0.0879,0.08789 h -0.13184 z m 2.95898,0.292969 0.0879,0.07324 -0.0879,0.08789 h -0.0879 l -0.13183,-0.117187 0.0439,-0.04394 z m -6.5625,0.205078 v 0.04394 l 0.39551,0.161133 h 0.0439 v -0.04395 l -0.39551,-0.161132 z m 1.40625,0.117187 q -0.0439,0.131836 -0.26367,0.131836 v -0.08789 z m 3.53028,0.249024 h 0.0879 l 0.0879,0.08789 h -0.0879 z m -4.54102,0.380859 h 0.0439 l 0.13183,-0.131836 h -0.0439 z m -0.21973,0.04394 v 0.04395 h 0.13184 l 0.0439,-0.04395 v -0.04394 h -0.0439 z m 5.63965,-0.04394 h 0.0439 q 0.30762,0.146484 0.30762,0.205078 h -0.0879 l -0.26368,-0.117187 z m -5.81543,0.117187 v 0.08789 l 0.13184,-0.04394 v -0.04395 z m -0.30761,0.219727 h 0.0439 l 0.13184,-0.04394 v -0.08789 q -0.17578,0.05859 -0.17578,0.131836 z m 0.65918,1.318359 h 0.0439 l 0.0879,-0.07324 h -0.0439 z m -0.26368,0.08789 -0.0439,0.04395 v 0.04395 h 0.0439 l 0.13184,-0.04395 v -0.04395 z" />
      <path
         id="path30"
         style=""
         d="m 175.61523,86.450195 0.0586,0.05859 q 0.19043,0 0.19043,0.131836 v 0.05859 l -0.19043,-0.05859 -0.60059,0.05859 v -0.117188 l 0.54199,-0.190429 z m -1.58203,0.19043 h 0.19043 l 0.36621,0.249023 q 0.0586,-0.190429 0.36621,-0.190429 0,0.102539 -0.24902,0.190429 l 0.11719,0.38086 v 0.190429 l -0.11719,0.19043 0.11719,0.117188 -0.23438,0.249023 h -0.0732 q -0.29297,-0.27832 -0.71777,-0.366211 v 0.05859 l -0.19043,-0.05859 -0.36621,0.249024 -0.0586,-0.07324 v -0.05859 q 0,-0.102539 0.36621,-0.249024 l -0.0586,-0.05859 v -0.131835 q 0.30762,0 0.30762,-0.307618 -0.43946,0 -0.43946,-0.190429 l 0.0732,-0.07324 h 0.0586 q 0,0.117188 0.30762,0.19043 0.11719,-0.27832 0.23437,-0.307617 z m 1.15723,0.249023 h 0.0586 l 0.13184,0.131836 -0.13184,0.117188 h -0.11718 l -0.11719,-0.117188 z m 0.30762,0.878907 0.11718,0.131836 -0.0586,0.05859 h -0.0586 l -0.11719,-0.131836 0.0586,-0.05859 z m -6.57715,0.131836 h 0.11719 q 0,0.629882 1.09863,0.629882 l 0.0586,0.05859 v 0.05859 l 0.43946,-0.05859 h 0.23437 l 0.24902,0.322266 h 0.11719 v -0.07324 l -0.0586,-0.19043 h 0.0586 l 0.0586,-0.05859 v -0.05859 h 0.0586 q 0,0.19043 0.24902,0.19043 l -0.11719,-0.19043 v -0.07324 h 0.23438 v 0.131836 h 0.0586 q 0,-0.292969 0.61524,-0.498047 l 0.79101,0.05859 0.11719,-0.249023 0.73242,0.498046 0.30762,-0.05859 h 0.11719 q 0.61523,0 0.61523,0.629883 l -0.0586,0.05859 v 0.05859 q 0.24902,0 0.4834,0.703125 0.11718,0 0.11718,0.249023 l 0.30762,-0.05859 0.0586,0.307617 -0.0586,0.05859 -0.4834,-0.117188 -0.0586,0.05859 h -0.0732 l -0.0586,-0.05859 0.0586,-0.07324 v -0.05859 l -0.11719,-0.117187 h -0.0586 q 0,0.249023 -0.11719,0.249023 l 0.11719,0.117188 -0.0586,0.07324 v 0.05859 l 0.0586,0.05859 q 0,0.336914 -0.73243,0.439453 h -0.0586 q -0.30762,-0.190429 -0.30762,-0.439453 l 0.19043,-0.117187 0.0586,0.05859 -0.0586,0.05859 v 0.131836 l 0.17578,0.05859 0.19043,-0.307617 -0.0732,-0.893555 0.0732,-0.249023 q -0.19043,0 -0.19043,-0.19043 l 0.11719,-0.117187 -0.0586,-0.05859 h -0.0586 q 0,0.249023 -0.11718,0.249023 -0.30762,0 -0.30762,-0.322265 h -0.0586 q 0,0.190429 -0.19043,0.190429 l -0.36622,-0.190429 q -0.43945,0 -0.79101,0.190429 0,-0.146484 -0.29297,-0.190429 l 0.11719,0.190429 v 0.05859 h -0.11719 l -0.0586,-0.05859 h -0.0733 q 0,0.146485 -0.54199,0.19043 0,0.131836 -0.17578,0.131836 l -0.0732,0.05859 v 0.190429 q 0.13183,0.161133 0.4248,1.699219 l 0.13184,0.307617 -0.13184,0.688477 h -0.11718 q 0,-0.175781 -0.17579,-0.175781 v 0.117187 q 0.23438,0.01465 0.23438,0.249024 l -0.0586,0.322265 q 0.24902,0.424805 0.30761,1.31836 l -0.4834,0.380859 v 0.05859 q 0.36622,-0.161133 0.36622,-0.307618 0.11718,0 0.11718,0.19043 l -0.0586,0.05859 v 0.05859 q 0.39551,1.069336 1.15723,1.699218 l -0.36621,0.131836 q -0.43946,-0.161132 -1.34766,-0.761718 l -0.36621,-0.19043 -0.54199,0.07324 h -0.0586 l -0.19043,-0.19043 v -0.131836 q 0,-0.102539 0.43946,-0.249023 l 0.4248,-1.259766 q -0.11719,-0.01465 -0.36621,-0.629882 v -0.05859 l 0.11719,-0.131836 q 0.11718,0.161133 0.17578,0.629883 0.19043,0 0.19043,0.131836 l 0.0586,-0.07324 h 0.0586 l 0.19042,0.07324 -1.21582,-1.831055 v -0.05859 h 0.0586 l 0.4834,0.498047 v -0.74707 h 0.17578 v 0.117187 h 0.0732 v -0.117187 q -0.29297,-0.146485 -0.4248,-0.439453 l 0.0586,-0.439453 q 0,-0.483399 -0.30762,-1.201172 l 0.11719,-0.131836 q -0.17578,0 -0.23438,-0.307617 l -1.83105,-0.512696 h -0.0586 l -0.73243,1.010742 v 0.05859 q 0.76172,0.893555 1.21582,1.142578 h 0.17579 q 0,-0.234375 0.36621,-0.380859 l 0.19043,0.05859 h 0.0586 v -0.05859 q -0.17578,0 -0.4834,-0.9375 l -0.4834,-0.131836 h -0.13183 v 0.05859 q 0,0.820312 0.30761,0.820312 h 0.11719 l 0.0586,-0.05859 v -0.190429 l -0.17579,-0.19043 v 0.19043 h -0.11718 l 0.0586,-0.322266 h 0.11719 l 0.30762,0.38086 v 0.131835 l -0.24903,0.249024 h -0.17578 l -0.0586,-0.05859 -0.0586,0.05859 h -0.0732 q -0.23437,0 -0.29297,-1.12793 0.20508,-0.190429 0.90821,-0.190429 0.67382,1.02539 0.67382,1.376953 l -0.61523,0.380859 -0.17578,-0.05859 0.0586,0.05859 v 0.05859 q -0.10254,0.263672 -0.4248,0.263672 h -0.0586 l -1.40625,-1.523438 v -0.175781 l 0.30762,-0.263672 -0.0586,-0.05859 v -0.117187 l 0.4248,-0.571289 0.0586,0.05859 h 0.0586 l 0.11719,-0.380859 0.79101,0.19043 -0.0586,-0.05859 z m -0.60059,0.307617 v 0.07324 l 0.29297,0.05859 h 0.0732 v -0.05859 l -0.30761,-0.07324 z m 8.27637,-0.05859 0.11719,0.131836 -0.11719,0.117187 h -0.0586 l -0.19043,-0.190429 0.0586,-0.05859 z m -4.57031,0.439453 q 0,0.131836 0.19043,0.131836 h 0.0586 v -0.07324 z m 3.53027,2.021485 0.11719,0.117187 v 0.131836 l -0.23438,-0.131836 z m 0.54199,0.498046 v 0.05859 l -0.11718,0.131836 h -0.0586 z m -2.37304,1.816407 h 0.0732 l -0.19043,0.190429 h -0.0586 z m -2.66602,1.889648 h 0.0586 l 0.11719,-0.117187 h -0.0586 z m -1.52344,1.142578 h 0.0586 v 0.05859 l -0.19043,0.19043 h -0.0586 v -0.05859 z" />
      <path
         id="path32"
         style=""
         d="m 180.85937,87.973633 0.29297,0.234375 h 0.0586 v 0.161133 h -0.0586 l -0.29297,-0.278321 z m -2.38769,0.05859 0.23437,0.05859 0.16114,-0.05859 v 0.05859 q 0,0.131836 -0.27832,0.161133 l 0.0586,0.05859 v 0.117187 h -0.17578 v 0.117188 l 0.0586,-0.05859 h 0.11719 v 0.117188 h 0.0586 v -0.117188 l -0.0586,-0.05859 q 0.11719,0 0.11719,-0.175781 l 0.0586,-0.04394 h 0.0439 q 1.46484,0.615234 1.65527,0.615234 0.11719,-0.512695 0.39551,-0.512695 l 0.33691,0.117187 0.0586,-0.05859 v -0.05859 l -0.10254,-0.161133 0.39551,0.05859 h 0.96679 q 0.11719,0 0.11719,0.161133 l -0.0586,0.175781 0.0586,0.05859 q -0.17578,0.04395 -0.17578,0.336914 l 0.0586,0.161132 h -0.0586 l -0.17578,-0.05859 v 0.117187 q 0.17578,0 0.17578,0.175781 l -0.0586,0.161133 -0.27832,-0.219726 0.10254,-0.117188 h -0.0586 l -0.16113,0.117188 h -0.0586 q -0.11718,0 -0.11718,-0.234375 h -0.0586 l -0.10254,0.117187 0.21973,0.234375 v 0.04395 q -0.39551,0.161132 -0.39551,0.292968 h 0.11719 q 0,-0.117187 0.16113,-0.117187 l 0.17578,-0.175781 0.21973,0.234375 0.11719,-0.117188 q 0.11718,0.410156 0.29297,0.571289 h -0.17579 l 0.11719,0.336914 v 0.05859 l -0.23437,0.05859 q 0,0.351562 0.35156,0.395507 v 0.05859 l -0.29297,0.161133 0.0586,0.05859 v 0.05859 l -0.0586,0.05859 v 0.05859 l 0.17578,0.439453 -0.11719,1.083985 q 0.23438,0.703125 0.23438,1.069335 v 0.512696 q 0.0879,0.219726 0.39551,0.219726 l 0.73242,-0.512695 -0.33691,-0.834961 q -0.29297,0.08789 -0.29297,0.27832 l 0.11718,0.336914 v 0.05859 q -0.16113,0 -0.27832,-0.571289 v -0.05859 q 0.24903,-0.395507 0.57129,-0.395507 h 0.0586 q 0.49804,0.55664 0.49804,1.362304 v 0.219727 q -0.17578,0.307617 -0.96679,0.74707 0,0.131836 -0.61524,0.219727 h -0.4541 q -1.3623,-0.336914 -1.3623,-1.010742 -0.11719,-0.395508 -0.23438,-0.395508 -0.0439,0.351562 -0.68848,1.010742 -0.54199,0.395508 -0.79101,0.395508 l -0.0586,-0.05859 v -0.05859 l 0.0586,-0.04394 h -0.17578 q 0,0.161133 -0.39551,0.161133 h -0.10254 q -0.33691,0 -0.68848,-0.395508 h 0.11719 v -0.05859 h -0.0586 l -0.0586,0.05859 h -0.0586 q -2.3877,-1.772461 -2.3877,-2.885742 v -0.556641 l 0.0586,-0.629883 -0.0586,-0.161133 q 0.46875,-0.55664 0.79102,-0.688476 l 0.23438,0.05859 h 0.0586 v -0.05859 q -0.0879,-0.219727 -0.17578,-0.219727 0,0.161133 -0.21973,0.161133 l -0.0586,0.05859 v 0.05859 h -0.17578 l 0.17578,-0.219727 -0.29297,0.102539 q 0.46875,-0.761719 1.14258,-0.893555 h 0.0586 l -0.0586,-0.05859 v -0.117188 h 0.17578 l -0.11719,-0.161133 q 1.01074,-0.966796 1.69922,-0.966796 z m -0.33691,0.512695 v 0.05859 h 0.17578 l 0.10254,-0.175782 h -0.044 z m 3.17871,-0.117188 0.35156,0.571289 h 0.0586 v -0.175781 l -0.35156,-0.395508 z m -3.57422,0.278321 q 0,0.175781 -0.23438,0.175781 v 0.117187 q 0.35157,-0.117187 0.35157,-0.234375 v -0.05859 z m -0.17578,3.676757 0.0586,0.05859 V 92.5 l -0.0586,0.27832 0.0586,0.278321 -0.0586,0.512695 q 0.13183,0.01465 0.33691,0.512695 0.80566,0.556641 1.31836,0.556641 v 0.05859 q 0.79102,0 1.24512,-0.615235 l -0.0586,-0.234375 0.29297,-1.918945 0.0586,-0.395508 -0.23438,-0.498047 0.11719,-0.117187 v -0.05859 q -0.17578,0 -0.17578,-0.117188 v -0.05859 q 0.23437,0 0.23437,-0.161133 l -0.11719,-0.117188 v -0.05859 h 0.11719 v -0.05859 h -0.0586 l -0.0586,0.05859 h -0.0586 l -0.17578,-0.05859 q 0.14648,-0.395508 0.29297,-0.395508 v -0.102539 h -0.11719 v -0.05859 l 0.0586,-0.175781 q -1.11328,-0.571289 -1.30371,-0.791016 h -0.0586 q -1.02539,0.483399 -1.02539,0.629883 0,0.249024 -0.33691,0.952149 -0.17579,0.74707 -0.23438,1.977539 z m -0.45411,-3.105468 v 0.05859 l 0.33692,-0.234375 v -0.102539 z m -0.51269,0.454101 h -0.0586 l -0.0586,-0.05859 h -0.0439 l -0.11719,0.336914 0.61523,-0.571289 v -0.04395 h -0.0439 q -0.29297,0.102539 -0.29297,0.336914 z m 0.9668,-0.292968 -0.11719,0.175781 v 0.05859 q 0.0879,0 0.17578,-0.234375 z m 3.53027,0.688476 h 0.11719 l 0.10254,-0.117187 v -0.117188 z m -0.33691,0.27832 h 0.10253 l 0.11719,-0.117187 h -0.11719 z m -3.3545,0 v 0.117188 l 0.27832,0.05859 q 0,-0.102539 -0.27832,-0.175782 z m 6.29883,0.336914 q 0.16113,0.175782 0.35156,0.175782 l 0.10254,0.27832 q -0.0293,0.351563 -0.21972,0.571289 0.0879,0 0.17578,0.219727 h -0.0586 q -0.16113,-0.05859 -0.3955,-0.512696 h -0.0586 l -0.0586,0.05859 -0.0586,-0.161133 q 0,-0.175781 0.21972,-0.175781 v -0.161133 l -0.0439,0.04395 h -0.11719 q 0.0293,-0.336915 0.16113,-0.336915 z m 0.9668,0.117188 0.17578,0.175781 v 0.161133 l -0.11719,0.117188 h -0.16113 q -0.16113,0 -0.23438,-0.395508 l 0.0586,-0.05859 z m 0.51269,1.362305 q 0.13184,0 0.17579,0.27832 l -0.0586,0.05859 h -0.11719 l -0.10254,-0.117188 v -0.117187 z m -8.4082,0.498047 0.0586,0.05859 h 0.0586 l 0.0439,-0.05859 v -0.161133 z m 5.11231,1.757812 v 0.117188 h 0.23437 v -0.175782 z m -3.17872,0.849609 0.0586,0.161133 h 0.0586 v -0.161133 z m -0.57128,0.05859 v 0.05859 l 0.23437,0.04394 h 0.044 v -0.04394 l -0.16114,-0.05859 z" />
      <path
         id="path34"
         style=""
         d="m 207.10937,85.776367 0.13184,0.131836 v 0.131836 l -0.13184,0.146484 h -0.0586 l -0.13183,-0.146484 v -0.05859 z m -14.34082,2.314453 h 0.0586 l 0.13183,0.131836 -0.0732,0.07324 h -0.11719 z m 5.03907,0 h 0.0586 l 0.13184,0.131836 v 0.07324 q 0,0.161133 -0.58594,0.336914 0,0.205079 -0.11719,0.205079 h -0.0732 v -0.131836 q 0.20508,-0.424805 0.58594,-0.615235 z m 3.10547,0.131836 0.24902,0.131836 0.13184,-0.131836 q 0,0.585938 -0.70313,0.952149 h -0.13184 v -0.05859 l 0.13184,-0.146484 -0.13184,-0.410157 q 0.27832,-0.336914 0.45411,-0.336914 z m -8.86231,0.131836 h 0.13184 l 0.19043,0.205078 v 0.07324 l -0.64453,0.541993 v 0.07324 l 0.71777,0.615234 -0.0732,0.263672 v 0.07324 h 0.0732 v -0.131836 h 0.11719 l 0.0732,0.336914 v 0.336914 l -0.26367,-0.07324 h -0.0586 v 0.07324 q 0.19043,0 0.19043,0.278321 l 0.0586,-0.07324 h 0.13183 l 0.13184,0.131836 v 0.146484 h -0.13184 v 0.05859 h 0.13184 l 0.19043,-0.05859 v 0.131836 q -0.70313,0.27832 -0.70313,0.74707 0.38086,0.234375 0.38086,0.541992 l -0.4541,0.278321 -0.19043,-0.131836 h -0.0586 q 0,0.131836 0.19043,0.131836 l 0.0586,0.07324 v 0.05859 l -0.11719,0.205078 q 0,0.410156 1.4795,0.820312 v 0.07324 l -0.19043,0.46875 h -0.13184 q -0.46875,-0.659179 -1.04004,-0.952148 h -0.0586 v 0.131836 q 0.26367,0 0.26367,0.410156 v 0.351563 q 0,0.131836 -0.20508,0.131836 v 0.07324 q 0.20508,0 0.20508,0.131836 v 0.336914 q -0.0293,0.146484 -0.32227,0.27832 l -0.20507,-0.07324 v 0.131836 q 0.13183,0 0.13183,0.205078 l 0.0732,-0.05859 h 0.0586 l 0.19043,0.205078 v 0.205078 l -0.19043,0.878907 q -0.71778,-0.65918 -0.71778,-0.820313 h -0.11718 l 0.0586,0.336914 h -0.19043 q 0,0.205078 -0.13184,0.205078 l 0.0586,0.07324 -0.11719,0.27832 q 0.42481,0 0.64453,0.673828 v 0.131836 h -0.0732 q 0,-0.249023 -0.5127,-0.336914 0,-0.219727 -0.4541,-0.673828 l 0.13184,-0.146485 -0.39551,-0.541992 v -0.05859 h 0.13184 q 0.32226,0.292969 0.32226,0.46875 h 0.0732 v -0.205078 h -0.13183 v -0.131836 l 0.0586,-0.07324 v -0.05859 l -0.13183,-0.146484 h 0.13183 v -0.05859 q 0,-0.175781 -0.24902,-0.205078 l 0.0586,-0.410156 0.0586,0.05859 h 0.13183 q 0,-0.410157 0.32227,-0.410157 l 0.0732,0.205079 h 0.13184 v -0.05859 l -0.13184,-0.27832 -0.0732,0.07324 h -0.0586 l -0.0586,-0.07324 v -0.05859 l -0.0732,0.05859 h -0.13184 l 0.0732,-0.05859 -0.0732,-0.07324 0.13184,-1.230469 -0.13184,-0.74707 h -0.0586 l -0.39551,0.131835 0.0732,0.351563 v 0.05859 l -0.13183,0.146484 h -0.0586 q -0.33691,0 -0.3955,-0.205078 v -0.07324 l 0.19043,-0.278321 -0.11719,-0.205078 v -0.05859 l 0.0586,-0.07324 q -0.13183,-0.307617 -0.26367,-0.336914 -0.11719,0 -0.38086,0.820313 v 0.205078 l 0.13184,0.541992 v 0.205078 l -0.71778,0.263672 h -0.13183 q -0.13184,0 -0.13184,-0.336914 -1.05469,-0.380859 -1.09863,-0.541992 h 0.13183 v -0.07324 h -0.0586 l -0.0732,0.07324 -0.57129,-0.131836 q 0.0293,0.336914 0.38086,0.336914 v 0.205078 l 0.0732,-0.07324 h 0.11719 l 0.0732,0.27832 0.0586,-0.07324 h 0.0733 l 0.0586,0.07324 h 0.0586 l 0.13184,-0.146484 0.26367,0.205078 h -0.0586 l 0.24902,0.952148 -0.0586,0.205079 h 0.0586 l 0.39551,0.27832 -0.0732,0.205078 0.0732,0.07324 q -0.39551,0.102539 -0.39551,0.205078 l 0.19043,0.541993 -0.0586,0.05859 h -0.0586 l -0.0732,-0.05859 q -0.38086,0.161132 -0.38086,0.263671 v 0.556641 h -0.13183 v -0.556641 q 0,-0.102539 -0.5127,-0.395507 l -0.0732,-0.351563 0.0732,-0.205078 h -0.0732 q -1.4209,-0.19043 -1.4209,-0.336914 V 95.3125 l 0.13184,-0.146484 h 0.32226 l 0.32227,-1.757813 0.0586,-0.07324 -0.0586,-0.07324 0.13183,-0.131836 h -0.13183 v 0.131836 l -0.13184,-0.131836 q 0.26367,-0.46875 0.26367,-0.820313 v -0.131836 q 0,-0.439453 -0.3955,-1.699218 h 0.0732 l -0.13184,-0.410157 0.13184,-0.146484 -0.26367,-0.131836 -0.32227,0.131836 -0.0586,-0.05859 v -0.07324 l 0.0586,-0.07324 h -0.26367 v -0.05859 q 0.20508,-0.175781 0.20508,-0.351562 l 0.0586,0.07324 h 0.0732 l 0.19043,-0.131836 h 0.0586 l 0.0732,0.05859 0.0586,-0.05859 h 0.0586 l 0.20507,0.05859 v -0.05859 l -0.0732,-0.205078 0.0732,-0.07324 h 0.0586 q 0.19043,0 0.19043,0.27832 h 0.0732 l 0.38086,-0.07324 0.19043,0.07324 -0.32227,-0.27832 -0.0586,0.07324 -0.0586,-0.205078 -0.0732,0.07324 h -0.0586 v -0.07324 l -0.0732,0.07324 h -0.13184 v -0.146485 h 0.20508 q 0.70312,0 1.4209,1.362305 v 0.07324 q 0.21972,0 1.15722,-0.893554 l 0.52735,-0.19043 v 0.131836 q -0.23438,0 -1.23047,1.157226 l -0.32227,0.205079 h -0.0732 v -0.131836 h -0.13183 l 0.13183,0.190429 v 0.146485 q -0.4248,0.424804 -0.51269,0.878906 h -0.13184 q 0,0.292969 -0.26367,0.615234 v 0.07324 q 0.4541,-0.205078 0.4541,-0.688476 0.16113,0.05859 0.52734,0.688476 h 0.19043 v 0.205079 h -0.13183 l -0.4541,-0.541993 v 0.05859 l 0.0732,0.205078 -0.13184,0.131836 v 0.351563 q 0,0.805664 0.4541,0.805664 l 0.19043,0.07324 q 0,-0.395508 -0.26367,-0.74707 v -0.07324 q 0,-0.205078 0.9082,-0.205078 l 0.26368,-0.541992 0.38086,-0.131836 -0.13184,-0.410156 q 0.0732,-0.410156 0.20508,-0.410156 l 0.38086,0.27832 h 0.0586 v -0.07324 q -0.24902,0 -0.51269,-0.483399 v -0.05859 h 0.13183 l 0.19043,0.131836 q 0,-0.278321 0.32227,-0.278321 0.0879,-0.395508 0.32226,-0.395508 0.20508,0 0.20508,0.263672 h 0.11719 v -0.205078 q -0.74707,-0.878906 -0.89356,-0.878906 -0.70312,0.336914 -1.04004,0.74707 h -0.0586 q 0.36621,-0.644531 1.28906,-1.289062 v -0.146485 h 0.24903 q 0.30761,0 0.9082,0.483399 0.35156,-0.893555 0.4541,-0.893555 z m 1.36231,0.146485 0.0586,0.05859 v 0.07324 l -0.19043,0.205079 h -0.13184 l -0.13183,-0.131836 q 0.0732,-0.205078 0.39551,-0.205078 z m 1.55273,0.05859 h 0.11719 l 0.20508,0.205078 v 0.146485 l -0.13184,0.131836 h -0.0732 l -0.32227,-0.07324 q 0.0732,-0.410157 0.20508,-0.410157 z m 1.93359,0.07324 0.0586,0.07324 v 0.05859 l -0.0586,0.07324 h -0.13183 v -0.07324 z m 1.875,0.131836 0.0586,0.07324 v 0.07324 l -0.0586,0.05859 h -0.0586 l -0.0732,-0.05859 v -0.07324 l 0.0732,-0.07324 z m -2.06543,0.278321 h 0.0586 l 0.13183,0.131836 v 0.07324 l -0.26367,0.336914 0.0732,0.07324 v 0.05859 l -0.0732,0.27832 0.13184,0.336914 h -0.0586 l -0.26367,0.07324 h -0.13183 l -0.0586,-0.07324 -0.0586,0.07324 h -0.0732 l -0.13184,-0.131836 0.0732,-0.07324 h -0.13183 v 0.131836 l -0.0732,0.07324 0.0732,0.07324 q 0.0879,0 0.19043,0.263671 l -0.32227,0.07324 v 0.131836 l 0.0586,0.07324 v 0.05859 h -0.0586 l -0.26367,-0.205079 -0.4541,0.146485 q 0,-0.146485 -0.24903,-0.146485 v -0.131836 l -0.0732,-0.07324 0.0732,-0.05859 q 0.43946,-0.07324 0.58594,-0.410157 h -0.13183 v -0.131836 q 0.20507,0 0.77636,-0.410156 h 0.0586 v -0.07324 h -0.13184 v -0.07324 q 0.0732,-0.205078 0.64453,-0.395508 z m -0.84961,0.878906 0.0732,0.07324 v 0.07324 q 0.19043,0 0.19043,-0.205078 l 0.0732,-0.07324 h 0.24902 l 0.0732,0.07324 h 0.0586 v -0.07324 l -0.0586,-0.07324 v -0.05859 l 0.19043,-0.351562 h -0.0732 q -0.61523,0.615234 -0.77637,0.615234 z m 4.52637,-0.673828 v 0.131836 l -0.0586,0.07324 0.0586,0.05859 v 0.07324 l -0.19043,0.205078 -0.0586,-0.07324 h -0.0732 q 0.21972,-0.46875 0.32226,-0.46875 z m -12.91992,0.131836 v 0.27832 h 0.13184 v -0.27832 z m 10.20996,-0.07324 h 0.0586 l 0.13184,0.146484 v 0.131836 l -0.13184,0.131836 h -0.11718 l -0.13184,-0.131836 v -0.07324 z m -9.18457,0.07324 0.13184,0.205078 v 0.131836 h -0.0586 l -0.26367,-0.131836 v -0.131836 z m -3.03223,0.07324 h 0.0586 v 0.131836 h -0.11719 v 0.205078 l 0.38086,0.131836 v 0.146484 q -0.41016,0 -1.09863,1.010743 v 0.07324 q 0.14648,0.74707 0.64453,0.74707 0.58594,-0.102539 0.58594,-0.541992 -0.0879,-0.336914 -0.45411,-0.336914 h -0.0586 q -0.20508,0.05859 -0.20508,0.410156 l 0.0732,0.05859 h 0.19043 v -0.131836 h 0.13184 v 0.131836 q -0.0732,0.205078 -0.39551,0.205078 l -0.11719,-0.410156 q 0,-0.263672 0.24903,-0.410157 h 0.52734 l 0.24903,0.278321 v 0.07324 q 0,0.585937 -0.38086,0.878906 h -0.71778 q -0.29297,-0.102539 -0.58593,-1.02539 v -0.05859 l 0.4541,-1.025391 h 0.13183 v 0.131836 h 0.0732 v -0.131836 l -0.0732,-0.07324 0.26367,-0.263672 -0.0732,-0.07324 z m 5.6836,0.131836 0.13183,0.131836 h 0.0733 l -0.13184,-0.131836 z m -3.94043,0.27832 v 0.05859 l 0.19043,-0.205078 h -0.0586 z m 0.58594,-0.146484 v 0.146484 q 0.14648,0 0.19043,0.336914 h 0.13183 l -0.26367,-0.483398 z m 6.78222,0.483398 h 0.0732 l 0.0586,0.07324 0.0586,-0.07324 h 0.13184 l 0.32226,0.07324 q 0,0.10254 -0.83496,0.541993 v 0.05859 q 0.19043,0 0.19043,0.146485 l -0.13183,0.131836 h -0.0586 q 0,-0.205078 -0.32226,-0.205078 v -0.07324 q 0.32226,-0.27832 0.32226,-0.46875 h 0.26367 v -0.07324 l -0.0732,-0.05859 z m -5.03906,0.278321 h 0.0586 l 0.20508,0.190429 v 0.07324 h -0.0732 l -0.19043,-0.205078 z m 10.20996,0.05859 h 0.13184 l 0.13183,0.131836 v 0.146485 l -0.19043,0.205078 h -0.0732 l -0.13184,-0.146485 v -0.205078 z m -13.18359,0.131836 v 0.146485 l 0.51269,0.263672 q -0.0147,-0.117188 -0.51269,-0.410157 z m 11.63086,0.07324 h 0.20507 l 0.11719,0.131836 v 0.07324 h -0.19043 l -0.13183,-0.131836 z m -4.20411,0.131836 v 0.146485 l -0.32226,0.05859 q 0,-0.146485 0.32226,-0.205079 z m -2.44628,0.615235 v 0.07324 h 0.0586 l 0.32227,-0.541992 h -0.0586 q -0.10254,0 -0.32226,0.46875 z m -4.2627,-0.263672 v 0.05859 l 0.11719,0.146484 h 0.0732 z m 5.87402,-0.07324 h 0.26368 l -0.13184,0.131836 h -0.13184 z m 4.01368,0.27832 0.13183,0.205078 -0.0732,0.05859 h -0.0586 l -0.13184,-0.205078 0.0586,-0.05859 z m -6.79688,0.131836 v 0.07324 q 0.27832,0.04395 0.65918,0.410156 v -0.07324 q 0,-0.131836 -0.20508,-0.131836 0,-0.146484 -0.24902,-0.146484 V 91.5625 Z m 1.04004,0.27832 v 0.05859 h 0.0586 l 0.0733,-0.263672 q -0.13184,0 -0.13184,0.205078 z m -7.36816,-0.07324 0.4541,0.131836 -0.0732,0.07324 v 0.07324 l -0.38086,-0.146484 z m 11.11816,0.07324 0.13184,0.131836 -0.0733,0.07324 h -0.19043 v -0.07324 z m -1.3623,0.05859 h 0.13183 l 0.13184,0.146484 v 0.131836 l -0.13184,0.131836 h -0.26367 l -0.11719,-0.131836 z m -9.24317,0.07324 h 0.0732 l 0.13184,0.131836 -0.0732,0.07324 h -0.0586 l -0.0732,-0.07324 z m 0.71777,0.336914 h 0.0586 l 0.26367,0.131836 v 0.146485 h -0.13184 l -0.19043,-0.205079 z m 1.80176,0.336914 h 0.0732 l 0.19043,-0.205078 h -0.0586 z m 6.26953,0 h 0.13184 v 0.07324 l -0.13184,0.131835 h -0.11718 v -0.05859 z m -2.25586,0.278321 v 0.07324 l 0.13184,0.131836 v -0.07324 z m 3.23731,0 0.0586,0.07324 v 0.05859 l -0.0586,0.07324 h -0.0732 l -0.0586,-0.07324 v -0.05859 l 0.0586,-0.07324 z m -5.43457,0.673828 v 0.146484 l 0.32226,-0.205078 v -0.131836 z m 2.7832,0.07324 v 0.07324 l 0.11719,0.131836 v -0.07324 z m -1.4209,0 h 0.0586 l 0.13183,0.131836 v 0.205078 l -0.13183,0.146484 h -0.0586 l -0.13183,-0.146484 v -0.205078 z m 1.61133,0.688477 v 0.05859 q 0.14649,-0.131836 0.4541,-0.131836 v -0.07324 q -0.19043,0 -0.19043,-0.263672 z m -4.98047,0.05859 v 0.07324 l 0.32227,0.07324 h 0.0732 v -0.07324 l -0.26367,-0.07324 z m 7.5,-0.05859 h 0.0586 l 0.20507,0.205078 -0.13183,0.131836 h -0.0732 l -0.19043,-0.205079 z m -7.9541,0.205078 v 0.05859 l 0.32227,0.146485 v -0.07324 q 0,-0.131836 -0.19043,-0.131836 z m 0.84961,0.131836 v 0.07324 q 0.11719,0 0.11719,0.190429 h 0.0732 l 0.13184,-0.131835 -0.26368,-0.131836 z m -0.26367,0.263671 v 0.205079 h 0.13183 l -0.0732,-0.205079 z m 0.32226,0.146485 v 0.05859 l 0.13184,0.146484 h 0.0586 z m 0.26368,0.205078 v 0.05859 l 0.11718,0.146484 h 0.0733 v -0.146484 z m 2.12402,0.131836 h 0.0732 l 0.4541,0.483398 v 0.131836 h -0.13183 q 0,-0.249023 -0.39551,-0.541992 z m 2.65137,0 0.0732,0.07324 v 0.05859 l -0.0732,0.07324 h -0.0586 l -0.0732,-0.07324 v -0.05859 l 0.0732,-0.07324 z m -3.54493,0.205078 h 0.0586 v 0.07324 l -0.13184,0.131836 h -0.0586 v -0.07324 z m 2.19727,0.131836 -0.0732,0.07324 v 0.07324 l 0.13183,0.131836 0.0586,-0.07324 h 0.0732 l 0.13184,0.146484 v -0.07324 q -0.0733,-0.27832 -0.32227,-0.27832 z m 2.12402,0.27832 h 0.19043 q 0.71778,0.117188 0.71778,0.747071 l -0.0732,0.07324 h -0.0586 l -0.0586,-0.07324 -0.0732,0.07324 -0.0586,-0.07324 v -0.07324 l 0.19043,-0.05859 v -0.07324 q -0.13183,0 -0.4541,-0.410156 h -0.24902 l -0.20508,0.205078 q 0.0879,0.278321 0.32226,0.410157 l 0.13184,-0.336914 -0.0586,0.05859 h -0.13184 v -0.05859 l 0.13184,-0.131836 0.19043,0.05859 v 0.07324 l -0.0586,0.05859 0.0586,0.07324 v 0.07324 q -0.10254,0.263672 -0.19043,0.263672 h -0.19043 q -0.39551,-0.263672 -0.39551,-0.46875 0.0879,-0.278321 0.32226,-0.410157 z m -7.36816,0.673828 0.13184,0.146485 -0.0586,0.05859 h -0.0732 l -0.13184,-0.131836 0.0733,-0.07324 z m 3.55957,0.205079 q 0.70313,0.146484 0.70313,0.410156 l -0.0586,0.07324 -0.64453,-0.336914 z m 4.32129,0.07324 h 0.13184 l 0.0732,0.336914 -0.4541,0.541992 h 0.13183 v 0.146484 q -0.26367,0 -0.26367,0.205078 l -0.0586,-0.07324 h -0.0733 v 0.131836 h 0.0733 l 0.0586,-0.05859 h 0.0586 l 0.0733,0.263672 -0.13184,0.146485 0.0586,0.05859 v 0.07324 l -0.0586,0.07324 h -0.0586 l -0.0733,-0.205078 h -0.0586 v 0.131836 l 0.0586,0.07324 h -0.19043 l -0.96679,-1.157227 v -0.07324 h 0.0586 l 0.19043,0.07324 0.0732,-0.07324 0.24903,0.410156 0.32226,-0.205078 q 0,0.131836 0.39551,0.205078 v -0.146484 q -0.19043,0 -0.5127,-0.395508 l 0.0586,-0.07324 h 0.0586 l 0.20508,0.131836 q 0.57129,-0.117188 0.57129,-0.541992 z m 0.13184,0.541992 v 0.07324 l -0.13184,0.131836 h -0.0586 z m -3.10547,0.410156 0.0732,0.07324 v 0.05859 l -0.0732,0.07324 h -0.0586 l -0.0586,-0.07324 v -0.05859 l 0.0586,-0.07324 z m -2.90039,0.205078 h 0.13183 v 0.205078 h -0.13183 z m 4.98046,0.07324 v 0.131836 h 0.11719 q 0,0.205079 0.13184,0.205079 l 0.13183,-0.205079 -0.0586,-0.07324 h -0.0732 l -0.0586,0.07324 h -0.0732 z m 0.83497,0.131836 0.32226,0.410157 v 0.131836 l -0.51269,-0.410157 q 0.19043,0 0.19043,-0.131836 z m -3.42774,0.541993 0.0732,0.07324 v 0.07324 l -0.0732,0.05859 h -0.0586 l -0.0732,-0.05859 v -0.07324 l 0.0732,-0.07324 z m 3.10547,0.205078 h 0.0586 l 0.77637,0.820312 V 100 l -0.83496,-0.805664 z" />
      <path
         id="path36"
         style=""
         d="m 199.08203,88.134766 h 0.24902 l 0.11719,0.131836 -0.17578,0.131835 -0.19043,-0.190429 z m -2.57812,0.07324 q 1.96289,0.46875 1.96289,0.952148 l -0.0586,0.05859 v 0.05859 q 0.26367,0 0.55664,0.454101 v 0.322266 q 0,0.512695 -0.49804,0.688476 l -0.17578,-0.05859 v 0.05859 l -0.13184,0.19043 0.55664,0.07324 v 0.05859 q -0.5127,0.908203 -1.53809,1.201172 l -2.21191,0.703125 h -0.11719 v -0.131836 q 0.82032,0 2.94434,-1.640625 l 0.49805,-0.703125 v -0.703125 q -0.43946,-0.615234 -1.72852,-0.893555 l -0.98145,0.512696 -0.0586,-0.05859 v -0.07324 l 0.11719,-0.117188 0.0586,0.05859 h 0.13184 v -0.05859 l -0.36621,-0.131836 v 0.05859 l -0.0732,0.263672 0.19043,0.05859 q -0.92285,0.761718 -0.92285,1.464843 v 0.571289 l -0.30761,0.322266 h 0.0586 l 0.19043,-0.07324 v 0.263672 l -0.0586,0.688476 0.17578,0.512696 -0.17578,0.05859 v 0.07324 q 0.27832,0 0.36621,0.439453 0.57129,0.424804 0.86425,1.02539 0.19043,0 0.92286,0.38086 2.06543,-0.512696 2.69531,-1.655274 l 0.24902,-1.083984 q -0.0732,-0.322266 -0.19043,-0.322266 h -0.0586 q -0.36621,0 -0.36621,0.322266 h 0.24902 v -0.19043 h 0.0586 q 0.11719,0 0.11719,0.19043 -0.0879,0.249023 -0.17578,0.249023 h -0.0586 q -0.35157,0 -0.43946,-0.307617 0.14649,-0.644531 0.61524,-0.644531 h 0.13183 q 0.61524,0.527344 0.61524,1.40625 -0.26367,0.74707 -0.80567,1.142578 -0.43945,0.878906 -1.59668,1.274414 l -0.43945,0.117188 -1.09863,-0.05859 -0.61524,-0.439453 -0.0586,-0.07324 -0.0586,0.07324 h -0.0732 q -2.2705,-1.274414 -2.2705,-1.655274 l -0.19043,-0.703125 v -0.05859 h 0.13183 v -0.131836 q -0.19043,0 -0.19043,-0.249024 l -0.0586,-0.512695 q 0.21973,-1.845703 0.67383,-1.845703 1.17187,-1.157227 3.01758,-1.772461 z m 2.82714,0.439453 h 0.19043 l 0.11719,0.131836 v 0.19043 l -0.19043,0.190429 h -0.23437 q -0.24903,-0.131836 -0.24903,-0.380859 z m -0.61523,2.036133 h 0.11719 v 0.190429 h -0.11719 z m 1.72852,0.703125 0.11718,0.117187 -0.0586,0.07324 h -0.0586 l -0.13184,-0.131836 0.0586,-0.05859 z m -5.2295,0.05859 h 0.0586 l 0.11718,0.131836 -0.0586,0.05859 h -0.0586 l -0.0586,-0.05859 z m -1.23047,0.57129 h 0.0586 l 0.11719,-0.131836 h -0.0586 z m -0.49804,0.322265 v 0.05859 h 0.13183 l 0.17579,-0.05859 v -0.07324 h -0.11719 z m -0.36621,0.249024 v 0.05859 l 0.19043,-0.190429 h -0.0733 z m 2.76855,0.820312 h 0.19043 v 0.131836 h -0.19043 z m 3.3252,0.644531 -0.0732,0.19043 h 0.13184 v -0.19043 z" />
      <path
         id="path38"
         style=""
         d="m 205.76172,87.973633 0.29297,0.234375 h 0.0586 v 0.161133 h -0.0586 l -0.29297,-0.278321 z m -2.3877,0.05859 0.23438,0.05859 0.16113,-0.05859 v 0.05859 q 0,0.131836 -0.27832,0.161133 l 0.0586,0.05859 v 0.117187 h -0.17578 v 0.117188 l 0.0586,-0.05859 h 0.11718 v 0.117188 h 0.0586 v -0.117188 l -0.0586,-0.05859 q 0.11719,0 0.11719,-0.175781 l 0.0586,-0.04394 h 0.0439 q 1.46484,0.615234 1.65527,0.615234 0.11719,-0.512695 0.39551,-0.512695 l 0.33692,0.117187 0.0586,-0.05859 v -0.05859 l -0.10254,-0.161133 0.39551,0.05859 h 0.9668 q 0.11718,0 0.11718,0.161133 l -0.0586,0.175781 0.0586,0.05859 q -0.17578,0.04395 -0.17578,0.336914 l 0.0586,0.161132 h -0.0586 l -0.17578,-0.05859 v 0.117187 q 0.17578,0 0.17578,0.175781 l -0.0586,0.161133 -0.27832,-0.219726 0.10254,-0.117188 h -0.0586 l -0.16113,0.117188 h -0.0586 q -0.11719,0 -0.11719,-0.234375 h -0.0586 l -0.10254,0.117187 0.21972,0.234375 v 0.04395 q -0.3955,0.161132 -0.3955,0.292968 h 0.11718 q 0,-0.117187 0.16114,-0.117187 l 0.17578,-0.175781 0.21972,0.234375 0.11719,-0.117188 q 0.11719,0.410156 0.29297,0.571289 h -0.17578 l 0.11719,0.336914 v 0.05859 l -0.23438,0.05859 q 0,0.351562 0.35156,0.395507 v 0.05859 l -0.29297,0.161133 0.0586,0.05859 v 0.05859 l -0.0586,0.05859 v 0.05859 l 0.17579,0.439453 -0.11719,1.083985 q 0.23437,0.703125 0.23437,1.069335 v 0.512696 q 0.0879,0.219726 0.39551,0.219726 l 0.73242,-0.512695 -0.33691,-0.834961 q -0.29297,0.08789 -0.29297,0.27832 l 0.11719,0.336914 v 0.05859 q -0.16114,0 -0.27832,-0.571289 v -0.05859 q 0.24902,-0.395507 0.57129,-0.395507 h 0.0586 q 0.49805,0.55664 0.49805,1.362304 v 0.219727 q -0.17578,0.307617 -0.9668,0.74707 0,0.131836 -0.61523,0.219727 h -0.45411 q -1.3623,-0.336914 -1.3623,-1.010742 -0.11719,-0.395508 -0.23438,-0.395508 -0.0439,0.351562 -0.68847,1.010742 -0.54199,0.395508 -0.79102,0.395508 l -0.0586,-0.05859 v -0.05859 l 0.0586,-0.04394 h -0.17578 q 0,0.161133 -0.39551,0.161133 h -0.10254 q -0.33691,0 -0.68847,-0.395508 h 0.11719 v -0.05859 h -0.0586 l -0.0586,0.05859 h -0.0586 q -2.38769,-1.772461 -2.38769,-2.885742 v -0.556641 l 0.0586,-0.629883 -0.0586,-0.161133 q 0.46875,-0.55664 0.79101,-0.688476 l 0.23438,0.05859 h 0.0586 v -0.05859 q -0.0879,-0.219727 -0.17578,-0.219727 0,0.161133 -0.21972,0.161133 l -0.0586,0.05859 v 0.05859 h -0.17578 l 0.17578,-0.219727 -0.29297,0.102539 q 0.46875,-0.761719 1.14258,-0.893555 h 0.0586 l -0.0586,-0.05859 v -0.117188 h 0.17578 l -0.11719,-0.161133 q 1.01075,-0.966796 1.69922,-0.966796 z m -0.33691,0.512695 v 0.05859 h 0.17578 l 0.10254,-0.175782 h -0.0439 z m 3.17871,-0.117188 0.35156,0.571289 h 0.0586 v -0.175781 l -0.35157,-0.395508 z m -3.57422,0.278321 q 0,0.175781 -0.23437,0.175781 v 0.117187 q 0.35156,-0.117187 0.35156,-0.234375 v -0.05859 z m -0.17578,3.676757 0.0586,0.05859 V 92.5 l -0.0586,0.27832 0.0586,0.278321 -0.0586,0.512695 q 0.13184,0.01465 0.33691,0.512695 0.80567,0.556641 1.31836,0.556641 v 0.05859 q 0.79102,0 1.24512,-0.615235 l -0.0586,-0.234375 0.29297,-1.918945 0.0586,-0.395508 -0.23438,-0.498047 0.11719,-0.117187 v -0.05859 q -0.17578,0 -0.17578,-0.117188 v -0.05859 q 0.23438,0 0.23438,-0.161133 l -0.11719,-0.117188 v -0.05859 h 0.11719 v -0.05859 h -0.0586 l -0.0586,0.05859 h -0.0586 l -0.17578,-0.05859 q 0.14649,-0.395508 0.29297,-0.395508 v -0.102539 h -0.11719 v -0.05859 l 0.0586,-0.175781 q -1.11328,-0.571289 -1.30371,-0.791016 h -0.0586 q -1.02539,0.483399 -1.02539,0.629883 0,0.249024 -0.33691,0.952149 -0.17578,0.74707 -0.23438,1.977539 z m -0.4541,-3.105468 v 0.05859 l 0.33691,-0.234375 v -0.102539 z m -0.5127,0.454101 h -0.0586 l -0.0586,-0.05859 h -0.044 l -0.11719,0.336914 0.61524,-0.571289 v -0.04395 h -0.0439 q -0.29297,0.102539 -0.29297,0.336914 z m 0.9668,-0.292968 -0.11719,0.175781 v 0.05859 q 0.0879,0 0.17578,-0.234375 z m 3.53027,0.688476 h 0.11719 l 0.10254,-0.117187 v -0.117188 z m -0.33691,0.27832 h 0.10254 l 0.11719,-0.117187 h -0.11719 z m -3.35449,0 v 0.117188 l 0.27832,0.05859 q 0,-0.102539 -0.27832,-0.175782 z m 6.29883,0.336914 q 0.16113,0.175782 0.35156,0.175782 l 0.10254,0.27832 q -0.0293,0.351563 -0.21973,0.571289 0.0879,0 0.17578,0.219727 h -0.0586 q -0.16113,-0.05859 -0.39551,-0.512696 h -0.0586 l -0.0586,0.05859 -0.0586,-0.161133 q 0,-0.175781 0.21973,-0.175781 v -0.161133 l -0.0439,0.04395 h -0.11719 q 0.0293,-0.336915 0.16114,-0.336915 z m 0.96679,0.117188 0.17578,0.175781 v 0.161133 l -0.11718,0.117188 h -0.16114 q -0.16113,0 -0.23437,-0.395508 l 0.0586,-0.05859 z m 0.5127,1.362305 q 0.13183,0 0.17578,0.27832 l -0.0586,0.05859 h -0.11719 l -0.10254,-0.117188 v -0.117187 z m -8.40821,0.498047 0.0586,0.05859 h 0.0586 l 0.0439,-0.05859 v -0.161133 z m 5.11231,1.757812 v 0.117188 h 0.23437 v -0.175782 z m -3.17871,0.849609 0.0586,0.161133 h 0.0586 v -0.161133 z m -0.57129,0.05859 v 0.05859 l 0.23437,0.04394 h 0.0439 v -0.04394 l -0.16113,-0.05859 z" />
    </g>
  </g>
</svg>
