<?xml version="1.0" encoding="UTF-8" standalone="no"?>
<svg
   xmlns:dc="http://purl.org/dc/elements/1.1/"
   xmlns:cc="http://creativecommons.org/ns#"
   xmlns:rdf="http://www.w3.org/1999/02/22-rdf-syntax-ns#"
   xmlns:svg="http://www.w3.org/2000/svg"
   xmlns="http://www.w3.org/2000/svg"
   id="svg16"
   width="800px"
   version="1.1"
   height="200px">
  <metadata
     id="metadata20">
    <rdf:RDF>
      <cc:Work
         rdf:about="">
        <dc:format>image/svg+xml</dc:format>
        <dc:type
           rdf:resource="http://purl.org/dc/dcmitype/StillImage" />
      </cc:Work>
    </rdf:RDF>
  </metadata>
  <defs
     id="defs4">
    <style
       id="style2"
       type="text/css"><![CDATA[    
     @font-face {font-family:Nevrada Neue;
     src: url('/Users/francesco/Repos/write-logos/src/fonts/Nevrada_Neue.ttf');}
     @font-face {font-family:Actonia Hand PERSONAL USE;
     src: url('/Users/francesco/Repos/write-logos/src/fonts/ActoniaHand_PERSONAL.ttf');}
     ]]></style>
  </defs>
  <g
     id="g14"
     style="font-size:60px">
    <g
       style="text-anchor:middle"
       id="text12"
       aria-label="eXtemporanea">
      <path
         id="path22"
         style="font-family:'Nevrada Neue'"
         d="m 238.17156,76.78 q 4.86,0 7.8,2.88 0.42,0.42 0.72,0.78 1.86,2.4 1.08,4.92 -0.9,2.46 -4.08,2.88 -1.86,0.24 -5.46,0.66 h -0.06 -0.06 -0.06 -0.06 l -0.06,0.06 h -0.06 -0.06 -0.06 -0.06 -0.06 -0.06 -0.06 -0.06 l -0.06,0.06 h -0.06 -0.06 -0.06 -0.06 -0.06 -0.06 -0.06 l -0.06,0.06 h -0.06 -0.06 -0.06 -0.06 -0.06 -0.06 -0.06 -0.06 l -0.06,0.06 h -0.06 -0.06 -0.06 -0.06 -0.06 -0.06 -0.06 l -0.06,0.06 h -0.06 -0.06 -0.06 -0.06 -0.06 -0.06 -0.06 l -0.06,0.06 h -0.06 -0.06 -0.06 -0.06 -0.06 -0.06 -0.12 q 1.02,4.8 4.98,6.48 3.6,1.5 6.54,-0.48 1.2,-0.84 1.92,-2.04 0.6,-0.84 0.9,-0.78 0.24,0.24 0.24,0.54 -2.1,7.38 -11.22,7.38 -5.52,0 -9.12,-3.78 -1.8,-1.98 -2.52,-4.5 -0.36,-1.02 -0.48,-2.28 -0.66,-7.5 4.2,-10.92 3.06,-2.1 7.8,-2.1 z m -0.06,0.9 q -2.4,0 -3.36,4.02 -0.84,3.48 0,6.72 6.96,-0.84 6.84,-5.22 0,-0.3 0,-0.54 -0.42,-4.32 -2.64,-4.86 -0.42,-0.12 -0.84,-0.12 z" />
      <path
         id="path24"
         style="font-family:'Actonia Hand PERSONAL USE'"
         d="m 254.47187,98.26 q 1.5,-0.96 3.54,-2.34 2.1,-1.44 3.96,-2.76 1.92001,-1.32 3.24001,-2.28 1.38,-0.96 1.44,-1.02 0.65999,-6 2.94,-11.58 2.33999,-5.64 5.75999,-10.56 0.48001,-0.72 1.2,-0.9 0.78001,-0.18 1.44,0.06 0.66001,0.18 1.08,0.78 0.48,0.6 0.42,1.5 -0.06,0.84 -0.42,1.62 -0.35999,0.72 -0.9,1.5 -0.54,0.72 -1.13999,1.44 -0.54001,0.66 -0.96001,1.26 -1.79999,2.7 -3.23999,5.76 -1.38001,3 -2.10001,6.24 5.04001,-3.6 10.02,-7.08 4.98,-3.48 9.96001,-7.08 0.95999,-0.72 2.03999,-1.68 1.14001,-0.96 2.28001,-1.92 1.13999,-0.96 2.33999,-1.68 1.2,-0.78 2.46001,-0.96 1.01999,-0.12 1.85999,0.3 0.90001,0.42 1.02001,1.5 0.11999,1.02 -0.60001,1.86 -0.66,0.78 -1.44,1.32 -2.27999,1.8 -4.8,3.36 -2.52,1.56 -4.92,3.24 l -11.88,8.46 -8.94,6.3 q 0,2.1 0.36,4.32 0.36,2.22 1.2,4.2 0.84001,1.98 2.22,3.42 1.44,1.5 3.6,2.1 1.5,0.42 2.64001,0.12 1.19999,-0.3 2.39999,-1.14 0.54001,-0.36 1.14,-0.9 0.6,-0.54 1.20001,-1.08 0.65999,-0.48 1.32,-0.84 0.65999,-0.3 1.38,-0.3 0.83999,0 1.25999,0.36 0.48001,0.42 0.6,0.96 0.18,0.6 0,1.26 -0.11999,0.66 -0.54,1.2 -0.84,1.2 -2.28,2.1 -1.44,0.9 -2.7,1.56 -3.77999,1.8 -6.89999,1.14 -3.06001,-0.6 -5.34001,-2.82 -2.22,-2.22 -3.59999,-5.52 -1.32,-3.24 -1.56,-6.66 0,-0.6 -0.06,-0.9 -2.93999,2.1 -5.87999,4.2 -2.94,2.1 -5.94001,4.2 -0.6,0.42 -1.26,0.36 -0.6,-0.06 -1.08,-0.42 -0.48,-0.36 -0.77999,-0.96 -0.30001,-0.54 -0.24001,-1.2 0.12,-1.2 1.2,-2.04 1.08,-0.84 1.98,-1.38 z" />
      <path
         id="path26"
         style="font-family:'Nevrada Neue'"
         d="m 301.33938,68.68 q 0.18,-0.3 0.47999,-0.3 0.3,0.12 0.36,0.48 v 9.18 h 4.14 q 0.36,0.12 0.48,0.48 -0.12,0.36 -0.48,0.42 h -4.14 v 13.02 q 0,4.62 1.92,4.62 1.38,-0.06 2.34,-1.8 0.12,-0.24 0.18,-0.36 0.18,-0.24 0.42,-0.3 0.48001,0 0.42001,0.48 0,0.12 -0.06,0.18 -1.74001,3.84 -5.04001,5.16 -1.13999,0.42 -2.33999,0.42 -4.98001,0 -5.94,-5.04 -0.3,-1.5 -0.3,-3.36 l 0.06,-9.24 q 0,-3.06 -0.54001,-3.54 -0.48,-0.3 -2.39999,-0.3 -0.48001,-0.24 -0.54001,-0.48 0.12,-0.36 0.48001,-0.42 2.88,-0.6 6.59999,-3.96 3.12,-2.82 3.90001,-5.34 z" />
      <path
         id="path28"
         style="font-family:'Nevrada Neue'"
         d="m 319.49969,76.78 q 4.86,0 7.8,2.88 0.42,0.42 0.72,0.78 1.86,2.4 1.08,4.92 -0.9,2.46 -4.08,2.88 -1.86,0.24 -5.46,0.66 h -0.06 -0.06 -0.06 -0.06 l -0.06,0.06 h -0.06 -0.06 -0.06 -0.06 -0.06 -0.06 -0.06 -0.06 l -0.06,0.06 h -0.06 -0.06 -0.06 -0.06 -0.06 -0.06 -0.06 l -0.06,0.06 h -0.06 -0.06 -0.06 -0.06 -0.06 -0.06 -0.06 -0.06 l -0.06,0.06 h -0.06 -0.06 -0.06 -0.06 -0.06 -0.06 -0.06 l -0.06,0.06 h -0.06 -0.06 -0.06 -0.06 -0.06 -0.06 -0.06 l -0.06,0.06 h -0.06 -0.06 -0.06 -0.06 -0.06 -0.06 -0.12 q 1.02,4.8 4.98,6.48 3.6,1.5 6.54,-0.48 1.2,-0.84 1.92,-2.04 0.6,-0.84 0.9,-0.78 0.24,0.24 0.24,0.54 -2.1,7.38 -11.22,7.38 -5.52,0 -9.12,-3.78 -1.8,-1.98 -2.52,-4.5 -0.36,-1.02 -0.48,-2.28 -0.66,-7.5 4.2,-10.92 3.06,-2.1 7.8,-2.1 z m -0.06,0.9 q -2.4,0 -3.36,4.02 -0.84,3.48 0,6.72 6.96,-0.84 6.84,-5.22 0,-0.3 0,-0.54 -0.42,-4.32 -2.64,-4.86 -0.42,-0.12 -0.84,-0.12 z" />
      <path
         id="path30"
         style="font-family:'Nevrada Neue'"
         d="m 342.26219,76.72 q 0.12,0 0.24,0.06 0.18,0.18 0.18,0.42 v 2.22 q 2.22,-2.58 5.94,-2.58 6.78,0.06 9.12,5.04 2.28,-4.74 7.74,-5.04 8.7,0.06 10.02,8.4 l 1.02,8.46 q 0.48,4.26 2.7,5.1 0.48,0.18 1.02,0.3 0.48,0.12 0.54,0.42 -0.06,0.42 -0.48,0.48 h -14.52 q -0.48,-0.12 -0.54,-0.48 0.12,-0.36 0.54,-0.42 2.16,-0.3 2.46,-2.34 0.12,-1.08 -0.12,-3.06 l -0.96,-9.3 q -0.48,-3.9 -2.88,-5.16 -1.02,-0.48 -2.16,-0.36 -3.84,0.66 -3.36,7.26 l 0.9,7.56 q 0.54,4.26 2.7,5.1 0.54,0.18 1.08,0.3 0.48,0.12 0.54,0.42 -0.06,0.42 -0.48,0.48 h -14.52 q -0.48,-0.12 -0.54,-0.48 0.12,-0.36 0.54,-0.42 2.16,-0.3 2.4,-2.34 0.18,-1.08 -0.06,-3.06 l -0.96,-9.3 q -0.78,-6.06 -4.08,-6 -0.3,0.06 -0.48,0.06 -2.4,0.3 -2.88,3.84 -0.24,1.62 -0.24,4.62 v 6.78 q 0,4.26 2.1,5.1 0.48,0.18 1.02,0.3 0.42,0.12 0.48,0.42 -0.12,0.42 -0.42,0.48 h -14.64 q -0.42,-0.12 -0.48,-0.48 0.12,-0.36 0.48,-0.42 2.4,-0.3 2.88,-2.52 0.24,-1.08 0.24,-2.88 v -5.76 q 0,-4.08 -1.14,-5.22 -0.72,-0.66 -1.8,-0.96 -0.48,-0.24 -0.48,-0.48 0.06,-0.36 0.48,-0.48 5.58,-0.12 10.26,-3.78 0.18,-0.12 0.3,-0.18 0.18,-0.12 0.3,-0.12 z" />
      <path
         id="path32"
         style="font-family:'Nevrada Neue'"
         d="m 390.23312,76.9 q 0.3,-0.18 0.54,-0.06 0.18,0.18 0.24,0.42 v 1.68 q 2.46,-1.92 5.46,-2.1 h 0.54 q 0.12,-0.06 0.18,-0.06 0.06,0 0.12001,0 0.18,0.06 0.18,0.06 4.97999,0.24 8.03999,4.56 2.04,2.94 2.28001,6.54 0.36,5.64 -3.42001,9.48 -2.82,2.76 -6.48,3 -3.9,0.18 -6.9,-2.28 v -0.06 8.4 q 0,4.26 2.10001,5.1 0.47999,0.18 1.01999,0.3 0.36001,0.12 0.42001,0.42 -0.06,0.42 -0.42001,0.48 h -14.57999 q -0.48001,-0.12 -0.54001,-0.48 0.12,-0.36 0.54001,-0.42 2.33999,-0.3 2.82,-2.52 0.24,-1.08 0.24,-2.88 V 87.94 q 0,-5.22 -2.46001,-6 -0.24,-0.06 -0.47999,-0.12 -0.42001,-0.18 -0.48001,-0.48 0.12001,-0.36 0.48001,-0.42 5.64,-0.18 10.32,-3.84 0.12,-0.12 0.23999,-0.18 z m 4.26001,2.1 q -0.78001,-0.36 -1.5,-0.24 -0.78001,0.24 -1.26001,1.02 -0.72,1.26 -0.72,3.48 0,3.06 1.08,6.84 1.92,7.2 4.68,9 0.96,0.54 1.74,0.3 2.76,-0.72 1.68,-7.62 -0.24,-1.74 -0.78,-3.66 -2.09999,-7.62 -4.91999,-9.12 z" />
      <path
         id="path34"
         style="font-family:'Nevrada Neue'"
         d="m 421.97312,76.78 q 5.52001,0 9.06,4.2 2.76,3.36 2.76,7.62 0,5.52 -4.2,9.06 -3.3,2.7 -7.62,2.7 -5.46,0 -9,-4.2 -2.7,-3.3 -2.76,-7.56 0,-5.52 4.26,-9.06 3.3,-2.7 7.5,-2.76 z m -2.34,1.26 q -0.36,0 -0.48,0 -2.64,0.72 -1.68,7.5 0.3,1.98 0.84001,4.08 2.03999,7.38 4.86,9.18 0.89999,0.48 1.67999,0.3 2.58001,-0.72 1.74,-7.02 -0.3,-2.16 -0.9,-4.5 -1.98,-7.2 -4.74,-9.12 -0.66,-0.48 -1.32,-0.42 z" />
      <path
         id="path36"
         style="font-family:'Nevrada Neue'"
         d="m 451.69,76.48 q 3.36,0 4.8,2.58 1.2,2.4 -0.3,4.98 -1.26,2.1 -3.84,1.8 -0.36,0 -0.72,-0.12 -2.04,-0.66 -2.1,-2.46 0,-0.96 1.2,-1.8 0.84,-0.66 0.9,-1.32 -0.06,-1.74 -1.5,-2.16 -0.54,-0.12 -1.08,-0.06 -2.64,0.78 -3.12,4.8 -0.18,1.56 -0.18,3.96 v 7.02 q 0,4.26 2.1,5.1 0.48,0.18 1.02,0.3 0.42,0.12 0.48,0.42 -0.12,0.42 -0.48,0.48 h -14.58 q -0.42,-0.12 -0.48,-0.48 0.12,-0.36 0.48,-0.42 2.34,-0.3 2.88,-2.52 0.24,-1.08 0.24,-2.88 v -5.76 q 0,-5.22 -2.52,-6 -0.24,-0.06 -0.42,-0.12 -0.48,-0.18 -0.54,-0.48 0.12,-0.36 0.54,-0.42 5.58,-0.18 10.26,-3.84 0.18,-0.12 0.24,-0.18 0.42,-0.36 0.72,0.06 0.06,0.18 0.06,0.3 v 1.8 q 1.86,-1.74 3.72,-2.28 1.2,-0.3 2.22,-0.3 z" />
      <path
         id="path38"
         style="font-family:'Nevrada Neue'"
         d="m 467.69687,76.78 q 10.86,-0.42 12.3,8.46 l 0.90001,7.74 q 0.77999,4.68 2.88,5.1 0.18,0.06 0.53999,0 0.3,0 0.42,0 0.48001,0 0.42001,0.48 -0.06,0.24 -0.24001,0.36 -2.57999,1.5 -5.69999,1.5 -4.44,-0.06 -6,-3 0,0.24 -1.2,1.08 -2.64001,1.86 -6.36,1.86 -5.88,0 -7.62001,-3.42 -0.54,-1.2 -0.54,-2.58 0,-4.62 4.62,-6 0.48,-0.12 5.16001,-0.9 1.62,-0.3 2.51999,-0.72 1.8,-0.78 1.62,-2.88 0,-0.3 -0.06,-0.54 -0.54,-4.44 -3.12,-5.4 -0.6,-0.24 -1.2,-0.24 -2.46,0 -2.57999,2.04 0,0.06 0,0.12 -0.06,0.78 1.13999,1.8 1.32,1.14 1.08,2.52 -0.3,1.86 -2.51999,2.34 -2.34001,0.48 -3.72001,-1.2 -0.41999,-0.6 -0.59999,-1.26 -0.90001,-3.42 2.09999,-5.58 2.22001,-1.5 5.76,-1.68 z m 4.02001,9.6 q -0.60001,0.84 -1.56,1.32 -2.58001,1.62 -2.94,1.92 -1.80001,1.62 -1.80001,3.9 0,3.36 2.76,4.44 2.22001,0.84 3.72001,-0.48 1.01999,-0.84 0.83999,-2.22 z" />
      <path
         id="path40"
         style="font-family:'Nevrada Neue'"
         d="m 497.77,76.72 q 0.12,0 0.24,0.06 0.18,0.18 0.18,0.42 v 2.22 q 2.22,-2.58 5.94,-2.58 8.7,0.06 10.08,8.4 l 0.96,8.46 q 0.54,4.26 2.7,5.1 0.54,0.18 1.08,0.3 0.48,0.12 0.54,0.42 -0.06,0.42 -0.48,0.48 h -14.52 q -0.48,-0.12 -0.54,-0.48 0.12,-0.36 0.54,-0.42 2.16,-0.3 2.4,-2.34 0.18,-1.08 -0.06,-3.06 l -0.96,-9.3 q -0.78,-6.06 -4.08,-6 -0.3,0.06 -0.48,0.06 -2.4,0.3 -2.88,3.84 -0.24,1.62 -0.24,4.62 v 6.78 q 0,4.26 2.1,5.1 0.48,0.18 1.02,0.3 0.42,0.12 0.48,0.42 -0.12,0.42 -0.42,0.48 h -14.64 q -0.42,-0.12 -0.48,-0.48 0.12,-0.36 0.48,-0.42 2.4,-0.3 2.88,-2.52 0.24,-1.08 0.24,-2.88 v -5.76 q 0,-4.08 -1.14,-5.22 -0.72,-0.66 -1.8,-0.96 -0.48,-0.24 -0.48,-0.48 0.06,-0.36 0.48,-0.48 5.58,-0.12 10.26,-3.78 0.18,-0.12 0.3,-0.18 0.18,-0.12 0.3,-0.12 z" />
      <path
         id="path42"
         style="font-family:'Nevrada Neue'"
         d="m 530.43719,76.78 q 4.86,0 7.8,2.88 0.42,0.42 0.72,0.78 1.86,2.4 1.08,4.92 -0.9,2.46 -4.08,2.88 -1.86,0.24 -5.46,0.66 h -0.06 -0.06 -0.06 -0.06 l -0.06,0.06 h -0.06 -0.06 -0.06 -0.06 -0.06 -0.06 -0.06 -0.06 l -0.06,0.06 h -0.06 -0.06 -0.06 -0.06 -0.06 -0.06 -0.06 l -0.06,0.06 h -0.06 -0.06 -0.06 -0.06 -0.06 -0.06 -0.06 -0.06 l -0.06,0.06 h -0.06 -0.06 -0.06 -0.06 -0.06 -0.06 -0.06 l -0.06,0.06 h -0.06 -0.06 -0.06 -0.06 -0.06 -0.06 -0.06 l -0.06,0.06 h -0.06 -0.06 -0.06 -0.06 -0.06 -0.06 -0.12 q 1.02,4.8 4.98,6.48 3.6,1.5 6.54,-0.48 1.2,-0.84 1.92,-2.04 0.6,-0.84 0.9,-0.78 0.24,0.24 0.24,0.54 -2.1,7.38 -11.22,7.38 -5.52,0 -9.12,-3.78 -1.8,-1.98 -2.52,-4.5 -0.36,-1.02 -0.48,-2.28 -0.66,-7.5 4.2,-10.92 3.06,-2.1 7.8,-2.1 z m -0.06,0.9 q -2.4,0 -3.36,4.02 -0.84,3.48 0,6.72 6.96,-0.84 6.84,-5.22 0,-0.3 0,-0.54 -0.42,-4.32 -2.64,-4.86 -0.42,-0.12 -0.84,-0.12 z" />
      <path
         id="path44"
         style="font-family:'Nevrada Neue'"
         d="m 553.59531,76.78 q 10.86,-0.42 12.3,8.46 l 0.9,7.74 q 0.78,4.68 2.88,5.1 0.18,0.06 0.54,0 0.3,0 0.42,0 0.48,0 0.42,0.48 -0.06,0.24 -0.24,0.36 -2.58,1.5 -5.7,1.5 -4.44,-0.06 -6,-3 0,0.24 -1.2,1.08 -2.64,1.86 -6.36,1.86 -5.88,0 -7.62,-3.42 -0.54,-1.2 -0.54,-2.58 0,-4.62 4.62,-6 0.48,-0.12 5.16,-0.9 1.62,-0.3 2.52,-0.72 1.8,-0.78 1.62,-2.88 0,-0.3 -0.06,-0.54 -0.54,-4.44 -3.12,-5.4 -0.6,-0.24 -1.2,-0.24 -2.46,0 -2.58,2.04 0,0.06 0,0.12 -0.06,0.78 1.14,1.8 1.32,1.14 1.08,2.52 -0.3,1.86 -2.52,2.34 -2.34,0.48 -3.72,-1.2 -0.42,-0.6 -0.6,-1.26 -0.9,-3.42 2.1,-5.58 2.22,-1.5 5.76,-1.68 z m 4.02,9.6 q -0.6,0.84 -1.56,1.32 -2.58,1.62 -2.94,1.92 -1.8,1.62 -1.8,3.9 0,3.36 2.76,4.44 2.22,0.84 3.72,-0.48 1.02,-0.84 0.84,-2.22 z" />
    </g>
  </g>
</svg>
