<?xml version="1.0" encoding="UTF-8" standalone="no"?>
<svg
   xmlns:dc="http://purl.org/dc/elements/1.1/"
   xmlns:cc="http://creativecommons.org/ns#"
   xmlns:rdf="http://www.w3.org/1999/02/22-rdf-syntax-ns#"
   xmlns:svg="http://www.w3.org/2000/svg"
   xmlns="http://www.w3.org/2000/svg"
   id="svg10"
   width="500px"
   version="1.1"
   height="200px">
  <metadata
     id="metadata14">
    <rdf:RDF>
      <cc:Work
         rdf:about="">
        <dc:format>image/svg+xml</dc:format>
        <dc:type
           rdf:resource="http://purl.org/dc/dcmitype/StillImage" />
      </cc:Work>
    </rdf:RDF>
  </metadata>
  <defs
     id="defs4">
    <style
       id="style2"
       type="text/css"><![CDATA[    
     @font-face {font-family:Notera 2 Underline PERSONAL USE;
     src: url('/Users/francesco/Repos/write-logos/src/fonts//Notera2UMedium_PERSONAL.ttf');}]]></style>
  </defs>
  <g
     id="g8"
     style="font-size:30px;font-family:'Notera 2 Underline PERSONAL USE'">
    <g
       style=""
       id="text6"
       aria-label="eXtemporanea">
      <path
         id="path16"
         style=""
         d="m 99.82,97.15 q 0.27,-0.15 0.54,-0.27 0.27,-0.12 0.6,-0.24 0.45,-0.84 1.29,-1.38 0.84,-0.54 1.71,-0.72 0.9,-0.21 1.62,0 0.72,0.21 0.9,0.87 0.12,0.54 -0.27,1.02 -0.36,0.48 -1.02,0.81 -0.63,0.33 -1.47,0.48 -0.84,0.12 -1.59,-0.03 0.03,0.15 0.06,0.27 0.03,0.12 0.12,0.27 0.51,0.96 2.67,0.75 2.19,-0.21 5.58,-1.83 0.42,-0.18 0.72,-0.12 0.33,0.06 0.45,0.24 0.12,0.18 0,0.45 -0.09,0.24 -0.48,0.45 -1.89,0.96 -3.66,1.56 -1.74,0.57 -3.15,0.69 -1.41,0.15 -2.37,-0.21 -0.96,-0.36 -1.29,-1.29 -0.15,-0.45 -0.15,-0.81 -0.12,0.06 -0.12,0.06 -0.42,0.21 -0.69,0.15 -0.3,-0.09 -0.39,-0.27 -0.12,-0.21 -0.03,-0.45 0.06,-0.27 0.42,-0.45 z m -4.11,9.48 q -0.63,0 -0.93,-0.21 -0.3,-0.18 -0.3,-0.45 0,-0.24 0.3,-0.45 0.3,-0.18 0.93,-0.18 3.33,0 6.36,0.27 3.03,0.27 5.37,1.02 0.84,0.27 0.93,0.6 0.12,0.36 -0.27,0.6 -0.39,0.27 -1.11,0.33 -0.72,0.09 -1.56,-0.21 -1.35,-0.48 -2.55,-0.75 -1.17,-0.24 -2.34,-0.39 -1.17,-0.12 -2.34,-0.15 -1.2,-0.03 -2.49,-0.03 z m 9.12,-10.68 q -0.03,-0.21 -0.33,-0.24 -0.27,-0.03 -0.63,0.09 -0.36,0.12 -0.75,0.36 -0.39,0.24 -0.66,0.57 0.36,0.06 0.78,0.03 0.45,-0.06 0.81,-0.15 0.36,-0.09 0.57,-0.24 0.24,-0.18 0.21,-0.42 z" />
      <path
         id="path18"
         style=""
         d="m 135.56266,83.68 q 0.48,-0.51 0.9,-0.48 0.42,0.03 0.63,0.36 0.24,0.33 0.18,0.84 -0.03,0.48 -0.48,0.9 -1.08,1.05 -2.37,2.22 -1.26,1.14 -2.67,2.34 -1.38,1.2 -2.91,2.43 -1.5,1.23 -3.06,2.43 -0.09,1.92 0.15,3.39 0.27,1.47 1.23,1.98 0.75,0.42 1.83,0.24 1.11,-0.18 2.31,-0.66 1.2,-0.51 2.43,-1.2 1.26,-0.72 2.34,-1.32 0.39,-0.18 0.63,-0.09 0.27,0.06 0.36,0.27 0.09,0.21 0.03,0.45 -0.06,0.24 -0.33,0.39 -1.29,0.69 -2.7,1.56 -1.41,0.87 -2.82,1.53 -1.38,0.69 -2.67,0.99 -1.29,0.3 -2.28,-0.12 -0.6,-0.27 -0.99,-0.87 -0.39,-0.57 -0.63,-1.38 -0.21,-0.84 -0.3,-1.86 -0.09,-1.02 -0.09,-2.16 -3.03,2.22 -6.06,4.05 -3,1.83 -5.64,2.91 -0.54,0.24 -0.9,0.03 -0.33,-0.18 -0.42,-0.54 -0.06,-0.36 0.12,-0.78 0.21,-0.42 0.72,-0.6 3,-1.2 5.97,-2.82 2.97,-1.65 6.24,-4.14 0.03,-1.5 0.12,-2.97 0.12,-1.47 0.12,-2.7 0.03,-1.23 -0.06,-2.1 -0.09,-0.9 -0.39,-1.26 -0.36,-0.39 -0.33,-0.81 0.06,-0.45 0.33,-0.75 0.3,-0.3 0.72,-0.3 0.45,-0.03 0.84,0.42 0.42,0.54 0.54,1.53 0.15,0.96 0.12,2.19 -0.03,1.23 -0.18,2.67 -0.12,1.41 -0.24,2.82 2.22,-1.8 4.59,-3.99 2.37,-2.22 5.07,-5.04 z m -7.41,22.95 q -1.98,0 -3.6,0.03 -1.62,0.03 -2.94,0.15 -1.29,0.12 -2.31,0.39 -1.02,0.27 -1.77,0.72 -0.48,0.3 -0.9,0.21 -0.42,-0.06 -0.63,-0.3 -0.21,-0.24 -0.15,-0.6 0.06,-0.33 0.54,-0.6 1.32,-0.75 4.14,-1.02 2.82,-0.27 7.62,-0.27 h 3.6 q 0.36,0 0.51,0.18 0.18,0.21 0.18,0.45 0,0.27 -0.18,0.45 -0.15,0.21 -0.51,0.21 z" />
      <path
         id="path20"
         style=""
         d="m 137.61953,92.56 q 0.54,0 1.2,0 0.66,0 1.41,-0.03 0.75,-1.08 1.56,-2.01 0.84,-0.93 1.59,-1.56 0.78,-0.63 1.41,-0.87 0.63,-0.27 1.05,0.03 0.3,0.24 0.3,0.66 0,0.39 -0.27,0.96 -0.24,0.54 -0.72,1.2 -0.45,0.66 -1.08,1.35 1.08,-0.12 2.07,-0.24 0.99,-0.15 1.83,-0.39 0.57,-0.12 0.87,0.06 0.3,0.18 0.33,0.51 0.03,0.3 -0.18,0.6 -0.18,0.3 -0.6,0.39 -0.33,0.09 -0.93,0.15 -0.6,0.06 -1.38,0.12 -0.75,0.06 -1.62,0.12 -0.87,0.03 -1.74,0.06 -1.47,1.47 -3.15,2.73 -0.36,0.81 -0.45,1.44 -0.06,0.6 0.33,0.9 0.24,0.18 0.81,0.18 0.57,-0.03 1.29,-0.18 0.72,-0.15 1.53,-0.36 0.81,-0.24 1.53,-0.48 0.72,-0.24 1.26,-0.45 0.54,-0.21 0.78,-0.3 0.36,-0.12 0.63,-0.03 0.3,0.06 0.42,0.24 0.15,0.18 0.06,0.42 -0.06,0.24 -0.42,0.39 -1.35,0.63 -2.82,1.17 -1.47,0.51 -2.79,0.81 -1.32,0.33 -2.34,0.39 -1.02,0.09 -1.5,-0.24 -0.51,-0.27 -0.57,-0.93 -0.06,-0.69 0.18,-1.62 -0.18,0.12 -0.36,0.24 -0.18,0.09 -0.36,0.18 -0.33,0.18 -0.57,0.09 -0.27,-0.09 -0.39,-0.27 -0.15,-0.21 -0.09,-0.45 0.03,-0.24 0.36,-0.39 1.08,-0.54 2.16,-1.26 0.24,-0.51 0.54,-1.05 0.3,-0.54 0.63,-1.08 -0.69,0.03 -1.2,0.03 -0.48,-0.03 -0.72,-0.06 -0.36,-0.03 -0.54,-0.21 -0.15,-0.18 -0.15,-0.39 0.03,-0.21 0.21,-0.39 0.21,-0.18 0.6,-0.18 z m -5.85,14.07 q -0.36,0 -0.51,-0.21 -0.18,-0.18 -0.18,-0.45 0,-0.24 0.18,-0.45 0.15,-0.18 0.51,-0.18 h 10.53 q 0.36,0 0.54,0.18 0.18,0.21 0.18,0.45 0,0.27 -0.18,0.45 -0.18,0.21 -0.54,0.21 z m 12.78,-16.83 q -0.06,-0.03 -0.3,0.15 -0.21,0.18 -0.57,0.54 -0.33,0.36 -0.75,0.87 -0.42,0.51 -0.87,1.08 0.06,0 0.12,0 0.06,-0.03 0.12,-0.03 1.05,-1.05 1.68,-1.8 0.63,-0.75 0.57,-0.81 z" />
      <path
         id="path22"
         style=""
         d="m 146.63641,97.15 q 0.27,-0.15 0.54,-0.27 0.27,-0.12 0.6,-0.24 0.45,-0.84 1.29,-1.38 0.84,-0.54 1.71,-0.72 0.9,-0.21 1.62,0 0.72,0.21 0.9,0.87 0.12,0.54 -0.27,1.02 -0.36,0.48 -1.02,0.81 -0.63,0.33 -1.47,0.48 -0.84,0.12 -1.59,-0.03 0.03,0.15 0.06,0.27 0.03,0.12 0.12,0.27 0.51,0.96 2.67,0.75 2.19,-0.21 5.58,-1.83 0.42,-0.18 0.72,-0.12 0.33,0.06 0.45,0.24 0.12,0.18 0,0.45 -0.09,0.24 -0.48,0.45 -1.89,0.96 -3.66,1.56 -1.74,0.57 -3.15,0.69 -1.41,0.15 -2.37,-0.21 -0.96,-0.36 -1.29,-1.29 -0.15,-0.45 -0.15,-0.81 -0.12,0.06 -0.12,0.06 -0.42,0.21 -0.69,0.15 -0.3,-0.09 -0.39,-0.27 -0.12,-0.21 -0.03,-0.45 0.06,-0.27 0.42,-0.45 z m -4.32,9.48 q -0.36,0 -0.51,-0.21 -0.18,-0.18 -0.18,-0.45 0,-0.24 0.18,-0.45 0.15,-0.18 0.51,-0.18 h 10.74 q 0.36,0 0.51,0.18 0.18,0.21 0.18,0.45 0,0.27 -0.18,0.45 -0.15,0.21 -0.51,0.21 z m 9.33,-10.68 q -0.03,-0.21 -0.33,-0.24 -0.27,-0.03 -0.63,0.09 -0.36,0.12 -0.75,0.36 -0.39,0.24 -0.66,0.57 0.36,0.06 0.78,0.03 0.45,-0.06 0.81,-0.15 0.36,-0.09 0.57,-0.24 0.24,-0.18 0.21,-0.42 z" />
      <path
         id="path24"
         style=""
         d="m 157.35906,97.15 q 1.41,-0.69 2.28,-1.29 0.9,-0.6 1.65,-0.93 0.72,-0.3 1.08,0 0.36,0.3 -0.03,0.9 l -1.41,2.1 q 0.33,-0.33 0.81,-0.72 0.48,-0.42 0.99,-0.78 0.54,-0.36 1.05,-0.66 0.54,-0.3 0.96,-0.45 0.54,-0.18 0.96,-0.18 0.45,0 0.72,0.12 0.27,0.12 0.33,0.36 0.06,0.21 -0.12,0.51 -0.18,0.3 -0.45,0.75 -0.27,0.45 -0.48,1.14 0.51,-0.36 0.93,-0.69 0.45,-0.36 0.93,-0.72 0.48,-0.36 1.02,-0.69 0.54,-0.36 1.23,-0.69 0.72,-0.36 1.26,-0.36 0.54,-0.03 0.84,0.18 0.3,0.18 0.33,0.54 0.03,0.33 -0.24,0.72 -0.18,0.27 -0.42,0.66 -0.24,0.39 -0.42,0.75 -0.18,0.36 -0.27,0.66 -0.06,0.27 0.09,0.39 0.27,0.21 0.99,0.06 0.75,-0.18 1.59,-0.48 0.87,-0.33 1.65,-0.66 0.81,-0.36 1.17,-0.54 0.42,-0.21 0.69,-0.12 0.27,0.06 0.36,0.27 0.12,0.21 0.03,0.48 -0.09,0.24 -0.39,0.39 -0.96,0.48 -2.07,0.96 -1.08,0.48 -2.13,0.84 -1.02,0.36 -1.89,0.48 -0.87,0.15 -1.35,-0.09 -0.72,-0.36 -0.54,-1.38 0.21,-1.05 0.99,-2.34 -0.72,0.21 -1.47,0.63 -0.72,0.39 -1.41,0.87 -0.66,0.48 -1.26,0.99 -0.6,0.51 -0.99,0.9 -0.36,0.33 -0.69,0.45 -0.33,0.15 -0.6,0.12 -0.24,0 -0.39,-0.18 -0.12,-0.18 -0.09,-0.45 0.06,-0.45 0.39,-1.26 0.36,-0.81 0.9,-1.62 -0.39,0 -0.96,0.27 -0.57,0.27 -1.26,0.75 -0.66,0.45 -1.38,1.08 -0.72,0.6 -1.38,1.26 -0.27,0.27 -0.54,0.27 -0.27,0.03 -0.48,-0.09 -0.18,-0.12 -0.27,-0.36 -0.06,-0.21 0.06,-0.45 0.15,-0.27 0.63,-0.93 0.51,-0.69 1.38,-2.04 -0.57,0.27 -1.17,0.69 -0.57,0.39 -1.05,0.63 -0.42,0.24 -0.69,0.15 -0.27,-0.09 -0.36,-0.3 -0.09,-0.21 0,-0.45 0.09,-0.27 0.36,-0.42 z m -4.32,9.48 q -0.36,0 -0.51,-0.21 -0.18,-0.18 -0.18,-0.45 0,-0.24 0.18,-0.45 0.15,-0.18 0.51,-0.18 h 19.02 q 0.36,0 0.51,0.18 0.18,0.21 0.18,0.45 0,0.27 -0.18,0.45 -0.15,0.21 -0.51,0.21 z" />
      <path
         id="path26"
         style=""
         d="m 176.40203,97.15 q 0.81,-0.42 1.62,-0.96 0.84,-0.57 1.62,-1.02 0.39,-0.21 0.72,-0.21 0.33,-0.03 0.51,0.12 0.21,0.15 0.21,0.48 0.03,0.33 -0.18,0.78 -0.18,0.33 -0.36,0.69 -0.15,0.33 -0.3,0.66 0.96,-0.87 1.89,-1.56 0.93,-0.69 1.74,-1.08 0.84,-0.42 1.53,-0.48 0.69,-0.06 1.17,0.3 0.48,0.36 0.39,1.05 -0.06,0.69 -0.51,1.44 -0.42,0.72 -1.14,1.35 -0.72,0.6 -1.56,0.78 0.84,-0.18 1.83,-0.45 0.99,-0.3 1.92,-0.63 0.96,-0.36 1.77,-0.69 0.84,-0.33 1.35,-0.57 0.3,-0.18 0.54,-0.09 0.24,0.09 0.36,0.3 0.12,0.18 0.09,0.42 -0.03,0.24 -0.3,0.39 -0.78,0.48 -2.07,0.96 -1.26,0.45 -2.67,0.81 -1.41,0.36 -2.79,0.57 -1.38,0.21 -2.37,0.15 -0.54,-0.03 -0.84,-0.27 -0.3,-0.24 -0.39,-0.51 -0.06,-0.3 0.09,-0.51 0.15,-0.24 0.51,-0.24 0.42,0 0.99,-0.09 0.6,-0.12 1.23,-0.39 0.69,-0.27 1.23,-0.81 0.54,-0.57 0.72,-1.02 0.21,-0.48 -0.09,-0.63 -0.27,-0.18 -1.26,0.39 -1.29,0.72 -2.43,1.65 -1.11,0.93 -2.07,1.92 -1.11,2.43 -2.01,4.41 -0.9,1.98 -1.65,3.3 -0.78,1.35 -1.41,1.92 -0.63,0.6 -1.17,0.24 -0.45,-0.24 -0.39,-1.02 0.03,-0.78 0.54,-1.95 0.51,-1.14 1.47,-2.61 0.93,-1.44 2.28,-3.06 0.06,-0.12 0.15,-0.21 0.09,-0.06 0.18,-0.18 0.51,-1.2 0.93,-2.19 0.45,-1.02 0.78,-1.59 -0.3,0.21 -0.6,0.36 -0.24,0.15 -0.54,0.3 -0.3,0.15 -0.57,0.3 -0.33,0.18 -0.6,0.12 -0.3,-0.09 -0.42,-0.27 -0.12,-0.18 -0.06,-0.42 0.06,-0.27 0.39,-0.45 z m 1.35,9.48 q -0.36,0 -0.48,-0.21 -0.09,-0.18 0,-0.45 0.09,-0.24 0.33,-0.45 0.27,-0.18 0.63,-0.18 h 8.07 q 0.36,0 0.51,0.18 0.18,0.21 0.18,0.45 0,0.27 -0.18,0.45 -0.15,0.21 -0.51,0.21 z m -4.05,2.07 q 0.12,-0.03 0.6,-1.05 0.45,-1.02 1.08,-2.52 -0.93,1.56 -1.35,2.58 -0.42,1.02 -0.33,0.99 z" />
      <path
         id="path28"
         style=""
         d="m 190.64031,97.15 q 1.14,-0.6 2.22,-1.14 1.11,-0.57 2.04,-0.93 0.96,-0.36 1.71,-0.45 0.75,-0.09 1.2,0.18 0.33,0.24 0.27,0.48 0.33,0.03 0.51,0.27 0.21,0.21 0.12,0.69 -0.12,0.63 -0.6,1.38 0.93,0.45 2.25,0.3 1.32,-0.15 2.61,-0.78 0.36,-0.18 0.63,-0.09 0.3,0.06 0.42,0.27 0.15,0.18 0.06,0.42 -0.06,0.24 -0.42,0.42 -1.95,0.96 -3.69,1.05 -1.74,0.09 -2.76,-0.51 -0.57,0.57 -1.29,1.05 -0.69,0.45 -1.41,0.69 -0.69,0.27 -1.35,0.27 -0.66,0 -1.14,-0.39 -0.57,-0.42 -0.57,-1.11 0.03,-0.69 0.45,-1.41 -0.18,0.15 -0.33,0.24 -0.15,0.06 -0.24,0.12 -0.42,0.21 -0.69,0.15 -0.3,-0.09 -0.39,-0.3 -0.12,-0.21 -0.03,-0.45 0.09,-0.27 0.42,-0.42 z m -4.32,9.48 q -0.36,0 -0.51,-0.21 -0.18,-0.18 -0.18,-0.45 0,-0.24 0.18,-0.45 0.15,-0.18 0.51,-0.18 h 12.33 q 0.36,0 0.51,0.18 0.18,0.21 0.18,0.45 0,0.27 -0.18,0.45 -0.15,0.21 -0.51,0.21 z m 10.23,-10.68 q -0.72,0.06 -1.44,0.45 -0.69,0.36 -1.2,0.87 -0.48,0.48 -0.69,0.99 -0.18,0.48 0.09,0.75 0.18,0.18 0.54,0.12 0.39,-0.06 0.81,-0.24 0.42,-0.21 0.87,-0.54 0.45,-0.33 0.78,-0.75 -0.06,-0.24 -0.06,-0.39 -0.06,-0.39 0.06,-0.72 0.12,-0.33 0.36,-0.57 -0.06,0 -0.09,-0.03 -0.03,0.06 -0.03,0.06 z" />
      <path
         id="path30"
         style=""
         d="m 203.635,98.17 q -0.42,0.21 -0.72,0.15 -0.3,-0.06 -0.42,-0.24 -0.15,-0.21 -0.06,-0.45 0.09,-0.27 0.51,-0.48 0.3,-0.15 0.72,-0.39 0.45,-0.27 0.87,-0.54 -0.12,-0.36 -0.09,-0.75 0.09,-0.63 0.57,-0.96 0.51,-0.33 0.99,-0.36 0.51,-0.06 0.84,0.21 0.33,0.27 0.15,0.87 -0.12,0.36 -0.45,0.78 0.39,-0.03 0.84,-0.15 0.45,-0.12 0.96,-0.36 0.51,-0.24 0.84,-0.18 0.36,0.06 0.51,0.3 0.18,0.21 0.09,0.51 -0.06,0.3 -0.36,0.54 -0.9,0.6 -1.14,1.29 -0.24,0.66 0.06,0.93 0.18,0.15 0.72,0.09 0.57,-0.06 1.41,-0.27 0.84,-0.24 1.83,-0.63 1.02,-0.39 2.1,-0.93 0.33,-0.18 0.6,-0.09 0.3,0.06 0.42,0.27 0.12,0.18 0.06,0.42 -0.06,0.24 -0.39,0.42 -1.5,0.75 -2.85,1.29 -1.35,0.51 -2.49,0.78 -1.11,0.27 -1.92,0.24 -0.81,0 -1.17,-0.33 -0.3,-0.27 -0.36,-0.69 -0.03,-0.42 0.09,-0.87 0.12,-0.45 0.33,-0.84 0.24,-0.42 0.45,-0.66 -1.02,0.3 -1.77,0 -0.81,0.63 -1.77,1.08 z m -5.01,8.46 q -0.36,0 -0.51,-0.21 -0.18,-0.18 -0.18,-0.45 0,-0.24 0.18,-0.45 0.15,-0.18 0.51,-0.18 h 11.43 q 0.36,0 0.54,0.18 0.18,0.21 0.18,0.45 0,0.27 -0.18,0.45 -0.18,0.21 -0.54,0.21 z" />
      <path
         id="path32"
         style=""
         d="m 214.37078,97.15 q 0.87,-0.48 1.95,-0.93 1.08,-0.48 2.13,-0.84 1.05,-0.36 1.92,-0.54 0.9,-0.21 1.41,-0.15 0.54,0.06 0.78,0.36 0.27,0.27 0.24,0.57 0,0.3 -0.27,0.51 -0.27,0.21 -0.78,0.12 -0.75,-0.12 -1.95,0.15 -0.63,0.24 -1.23,0.6 -0.6,0.36 -1.02,0.75 -0.42,0.39 -0.66,0.72 -0.21,0.33 -0.06,0.48 0.18,0.21 0.66,0.06 0.48,-0.15 1.08,-0.51 0.6,-0.36 1.23,-0.87 0.66,-0.51 1.17,-1.02 0.24,-0.24 0.51,-0.27 0.27,-0.03 0.45,0.09 0.18,0.09 0.21,0.3 0.06,0.21 -0.12,0.48 -0.15,0.21 -0.3,0.48 -0.12,0.27 -0.15,0.54 -0.03,0.24 0.06,0.45 0.12,0.18 0.45,0.21 0.66,0.12 1.83,-0.24 1.2,-0.36 3.42,-1.5 0.33,-0.15 0.6,-0.06 0.3,0.06 0.42,0.27 0.12,0.18 0.06,0.42 -0.06,0.24 -0.39,0.39 -0.66,0.3 -1.53,0.72 -0.87,0.42 -1.8,0.81 -0.9,0.39 -1.77,0.63 -0.87,0.27 -1.56,0.21 -0.78,-0.06 -0.99,-0.57 -0.18,-0.54 -0.09,-1.14 -0.54,0.48 -1.2,0.93 -0.63,0.42 -1.29,0.69 -0.66,0.27 -1.26,0.3 -0.6,0.06 -1.05,-0.21 -0.54,-0.36 -0.54,-1.11 0.03,-0.75 0.66,-1.53 l -0.54,0.27 q -0.39,0.18 -0.69,0.12 -0.3,-0.06 -0.42,-0.24 -0.12,-0.21 -0.03,-0.45 0.06,-0.27 0.45,-0.45 z m -4.32,9.48 q -0.36,0 -0.51,-0.21 -0.18,-0.18 -0.18,-0.45 0,-0.24 0.18,-0.45 0.15,-0.18 0.51,-0.18 h 12.93 q 0.36,0 0.54,0.18 0.18,0.21 0.18,0.45 0,0.27 -0.18,0.45 -0.18,0.21 -0.54,0.21 z" />
      <path
         id="path34"
         style=""
         d="m 227.32,97.15 q 0.96,-0.54 2.04,-1.14 1.11,-0.63 1.8,-0.93 0.39,-0.15 0.72,-0.18 0.33,-0.03 0.54,0.06 0.21,0.09 0.27,0.27 0.06,0.18 -0.09,0.45 -0.27,0.42 -0.48,0.78 -0.21,0.33 -0.39,0.87 0.84,-0.54 1.83,-1.23 1.02,-0.72 2.73,-1.38 0.87,-0.33 1.38,-0.3 0.51,0 0.72,0.21 0.24,0.18 0.21,0.51 0,0.33 -0.21,0.6 -0.24,0.3 -0.57,0.75 -0.33,0.45 -0.6,0.93 -0.27,0.45 -0.39,0.87 -0.12,0.39 0.06,0.57 0.24,0.3 0.96,0.21 0.72,-0.12 1.59,-0.42 0.87,-0.33 1.74,-0.75 0.87,-0.42 1.47,-0.75 0.36,-0.18 0.63,-0.12 0.3,0.06 0.42,0.24 0.12,0.18 0.03,0.45 -0.06,0.24 -0.39,0.45 -1.2,0.72 -2.4,1.26 -1.17,0.54 -2.22,0.81 -1.05,0.3 -1.92,0.33 -0.84,0.03 -1.32,-0.27 -0.36,-0.21 -0.45,-0.66 -0.06,-0.45 0.06,-0.99 0.15,-0.54 0.42,-1.14 0.27,-0.6 0.6,-1.11 -1.14,0.21 -2.49,1.02 -1.32,0.78 -2.82,2.28 -0.33,0.33 -0.66,0.36 -0.3,0.03 -0.54,-0.12 -0.21,-0.15 -0.3,-0.42 -0.06,-0.3 0.15,-0.6 0.27,-0.42 0.54,-0.87 0.27,-0.45 0.51,-1.05 -0.42,0.12 -1.05,0.45 -0.63,0.3 -1.44,0.72 -0.33,0.15 -0.6,0.12 -0.27,-0.06 -0.39,-0.24 -0.12,-0.18 -0.06,-0.42 0.03,-0.24 0.36,-0.48 z m -4.32,9.48 q -0.36,0 -0.51,-0.21 -0.18,-0.18 -0.18,-0.45 0,-0.24 0.18,-0.45 0.15,-0.18 0.51,-0.18 h 15.3 q 0.36,0 0.54,0.18 0.18,0.21 0.18,0.45 0,0.27 -0.18,0.45 -0.18,0.21 -0.54,0.21 z" />
      <path
         id="path36"
         style=""
         d="m 242.61297,97.15 q 0.27,-0.15 0.54,-0.27 0.27,-0.12 0.6,-0.24 0.45,-0.84 1.29,-1.38 0.84,-0.54 1.71,-0.72 0.9,-0.21 1.62,0 0.72,0.21 0.9,0.87 0.12,0.54 -0.27,1.02 -0.36,0.48 -1.02,0.81 -0.63,0.33 -1.47,0.48 -0.84,0.12 -1.59,-0.03 0.03,0.15 0.06,0.27 0.03,0.12 0.12,0.27 0.51,0.96 2.67,0.75 2.19,-0.21 5.58,-1.83 0.42,-0.18 0.72,-0.12 0.33,0.06 0.45,0.24 0.12,0.18 0,0.45 -0.09,0.24 -0.48,0.45 -1.89,0.96 -3.66,1.56 -1.74,0.57 -3.15,0.69 -1.41,0.15 -2.37,-0.21 -0.96,-0.36 -1.29,-1.29 -0.15,-0.45 -0.15,-0.81 -0.12,0.06 -0.12,0.06 -0.42,0.21 -0.69,0.15 -0.3,-0.09 -0.39,-0.27 -0.12,-0.21 -0.03,-0.45 0.06,-0.27 0.42,-0.45 z m -4.32,9.48 q -0.36,0 -0.51,-0.21 -0.18,-0.18 -0.18,-0.45 0,-0.24 0.18,-0.45 0.15,-0.18 0.51,-0.18 h 10.74 q 0.36,0 0.51,0.18 0.18,0.21 0.18,0.45 0,0.27 -0.18,0.45 -0.15,0.21 -0.51,0.21 z m 9.33,-10.68 q -0.03,-0.21 -0.33,-0.24 -0.27,-0.03 -0.63,0.09 -0.36,0.12 -0.75,0.36 -0.39,0.24 -0.66,0.57 0.36,0.06 0.78,0.03 0.45,-0.06 0.81,-0.15 0.36,-0.09 0.57,-0.24 0.24,-0.18 0.21,-0.42 z" />
      <path
         id="path38"
         style=""
         d="m 253.33562,97.15 q 0.87,-0.48 1.95,-0.93 1.08001,-0.48 2.13,-0.84 1.05,-0.36 1.92,-0.54 0.90001,-0.21 1.41001,-0.15 0.53999,0.06 0.77999,0.36 0.27,0.27 0.24,0.57 0,0.3 -0.26999,0.51 -0.27001,0.21 -0.78001,0.12 -0.75,-0.12 -1.95,0.15 -0.63,0.24 -1.23,0.6 -0.59999,0.36 -1.02,0.75 -0.42,0.39 -0.66,0.72 -0.21,0.33 -0.06,0.48 0.18,0.21 0.66,0.06 0.48001,-0.15 1.08,-0.51 0.6,-0.36 1.23,-0.87 0.66001,-0.51 1.17001,-1.02 0.24,-0.24 0.50999,-0.27 0.27,-0.03 0.45,0.09 0.18,0.09 0.21,0.3 0.06,0.21 -0.11999,0.48 -0.15001,0.21 -0.3,0.48 -0.12001,0.27 -0.15001,0.54 -0.03,0.24 0.06,0.45 0.12,0.18 0.45,0.21 0.66,0.12 1.83001,-0.24 1.19999,-0.36 3.41999,-1.5 0.33001,-0.15 0.6,-0.06 0.3,0.06 0.42,0.27 0.12001,0.18 0.06,0.42 -0.06,0.24 -0.39,0.39 -0.66001,0.3 -1.53001,0.72 -0.87,0.42 -1.8,0.81 -0.9,0.39 -1.77,0.63 -0.87,0.27 -1.56,0.21 -0.78,-0.06 -0.99,-0.57 -0.18,-0.54 -0.09,-1.14 -0.54001,0.48 -1.20001,0.93 -0.63,0.42 -1.29,0.69 -0.66,0.27 -1.26,0.3 -0.6,0.06 -1.05,-0.21 -0.54,-0.36 -0.54,-1.11 0.03,-0.75 0.66,-1.53 l -0.54,0.27 q -0.39,0.18 -0.69,0.12 -0.3,-0.06 -0.42,-0.24 -0.12,-0.21 -0.03,-0.45 0.06,-0.27 0.45,-0.45 z m -4.32,9.48 q -0.36,0 -0.51,-0.21 -0.18,-0.18 -0.18,-0.45 0,-0.24 0.18,-0.45 0.15,-0.18 0.51,-0.18 h 12.93 q 0.36001,0 0.54001,0.18 0.17999,0.21 0.17999,0.45 0,0.27 -0.17999,0.45 -0.18,0.21 -0.54001,0.21 z" />
    </g>
  </g>
</svg>
