<?xml version="1.0" encoding="UTF-8" standalone="no"?>
<svg
   xmlns:dc="http://purl.org/dc/elements/1.1/"
   xmlns:cc="http://creativecommons.org/ns#"
   xmlns:rdf="http://www.w3.org/1999/02/22-rdf-syntax-ns#"
   xmlns:svg="http://www.w3.org/2000/svg"
   xmlns="http://www.w3.org/2000/svg"
   id="svg16"
   width="800px"
   version="1.1"
   height="200px">
  <metadata
     id="metadata20">
    <rdf:RDF>
      <cc:Work
         rdf:about="">
        <dc:format>image/svg+xml</dc:format>
        <dc:type
           rdf:resource="http://purl.org/dc/dcmitype/StillImage" />
      </cc:Work>
    </rdf:RDF>
  </metadata>
  <defs
     id="defs4">
    <style
       id="style2"
       type="text/css"><![CDATA[    
     @font-face {font-family:Noway;
     src: url('/Users/francesco/Repos/write-logos/src/fonts/Fonts_E_TEMPORANEA/Noway-Bold.otf');}
     @font-face {font-family:Mercury Blob;
     src: url('/Users/francesco/Repos/write-logos/src/fonts/Fonts_X/Mercblob.ttf');}
     ]]></style>
  </defs>
  <g
     id="g14"
     style="font-size:60px">
    <g
       style="text-anchor:middle"
       id="text12"
       aria-label="EXTEMPORANEA">
      <path
         id="path22"
         style="font-family:Noway;letter-spacing:0.075em"
         d="m 174.48625,100 v -8.52 h -15.78 v -8.64 h 14.4 v -8.52 h -14.4 v -7.8 h 15.78 V 58 h -25.74 v 42 z" />
      <path
         id="path24"
         style="font-family:'Mercury Blob';letter-spacing:0.05em"
         d="m 197.27875,61.54 q 1.98,0 3.36,-1.38 1.44,-1.44 1.44,-3.36 0,-1.98 -1.44,-3.36 -1.38,-1.44 -3.36,-1.44 -1.98,0 -3.36,1.38 -1.38,1.38 -1.38,3.42 0,1.92 1.32,3.36 1.38,1.38 3.42,1.38 z m -10.02,0 q 1.98,0 3.36,-1.38 1.38,-1.38 1.38,-3.36 0,-1.92 -1.38,-3.36 -1.38,-1.44 -3.36,-1.44 -1.98,0 -3.42,1.44 -1.38,1.38 -1.38,3.36 0,1.98 1.38,3.36 1.38,1.38 3.42,1.38 z m 10.02,10.02 q 1.92,0 3.36,-1.38 1.44,-1.38 1.44,-3.36 0,-1.98 -1.44,-3.36 -1.38,-1.44 -3.36,-1.44 -1.98,0 -3.36,1.38 -1.38,1.38 -1.38,3.42 0,1.98 1.38,3.36 1.38,1.38 3.36,1.38 z m 20.1,30.18 q 1.98,0 3.36,-1.44 1.44,-1.38 1.44,-3.36 0,-1.98 -1.38,-3.36 -1.38,-1.38 -3.42,-1.38 -1.92,0 -3.36,1.38 -1.44,1.38 -1.44,3.36 0,1.98 1.38,3.36 1.44,1.44 3.42,1.44 z m 10.02,10.02 q 1.92,0 3.36,-1.38 1.44,-1.38 1.44,-3.36 0,-1.98 -1.44,-3.42 -1.38,-1.38 -3.36,-1.38 -1.98,0 -3.36,1.38 -1.38,1.38 -1.38,3.42 0,1.98 1.38,3.36 1.38,1.38 3.36,1.38 z m 0.06,-50.22 q 1.98,0 3.36,-1.38 1.38,-1.38 1.38,-3.36 0,-1.92 -1.38,-3.36 -1.38,-1.44 -3.36,-1.44 -1.98,0 -3.42,1.44 -1.38,1.38 -1.38,3.36 0,3.54 -0.84,4.38 -0.84,0.84 -4.44,0.84 -1.98,0 -3.42,1.44 -1.38,1.38 -1.38,3.3 l 0.06,0.42 q 0,3.3 -0.9,4.08 -0.9,0.78 -4.38,0.78 -1.98,0 -3.42,1.44 -1.38,1.38 -1.38,3.36 v 0.42 q 0,3.24 -0.9,4.08 -0.84,0.78 -4.38,0.78 -1.98,0 -3.36,1.38 -1.38,1.38 -1.38,3.36 0,1.92 1.38,3.36 1.38,1.44 3.36,1.44 1.98,0 3.36,-1.38 1.44,-1.44 1.44,-3.42 0,-3.54 0.84,-4.38 0.84,-0.84 4.44,-0.84 1.98,0 3.36,-1.38 1.38,-1.38 1.38,-3.42 v -0.42 q 0,-3.24 0.84,-4.02 0.9,-0.84 4.44,-0.84 1.92,0 3.36,-1.38 1.44,-1.38 1.44,-3.36 V 66.4 q 0,-3.3 0.84,-4.08 0.84,-0.78 4.44,-0.78 z m -10.08,20.1 q 1.98,0 3.36,-1.38 1.44,-1.44 1.44,-3.42 0,-1.98 -1.38,-3.36 -1.38,-1.38 -3.42,-1.38 -1.98,0 -3.36,1.38 -1.38,1.38 -1.38,3.36 0,3.6 -0.84,4.44 -0.84,0.84 -4.44,0.84 -1.92,0 -3.36,1.38 -1.44,1.38 -1.44,3.36 v 0.42 q 0,3.3 -0.9,4.08 -0.9,0.78 -4.38,0.78 -1.98,0 -3.36,1.38 -1.38,1.38 -1.38,3.42 v 0.42 q 0,3.24 -0.9,4.02 -0.84,0.84 -4.38,0.84 -1.92,0 -3.36,1.38 -1.44,1.38 -1.44,3.36 0,1.98 1.38,3.36 1.44,1.44 3.42,1.44 1.98,0 3.36,-1.38 1.38,-1.38 1.38,-3.42 0,-3.54 0.84,-4.38 0.84,-0.84 4.44,-0.84 1.98,0 3.36,-1.44 1.44,-1.38 1.44,-3.36 v -0.42 q 0,-3.24 0.84,-4.02 0.9,-0.84 4.44,-0.84 1.98,0 3.36,-1.38 1.38,-1.38 1.38,-3.36 V 86.5 q 0,-3.3 0.9,-4.08 0.9,-0.78 4.38,-0.78 z m 0,30.12 q 1.92,0 3.36,-1.38 1.44,-1.38 1.44,-3.36 0,-1.98 -1.44,-3.42 -1.38,-1.38 -3.36,-1.38 -1.98,0 -3.42,1.38 -1.38,1.44 -1.38,3.42 0,1.98 1.38,3.36 1.38,1.38 3.42,1.38 z" />
      <path
         id="path26"
         style="font-family:Noway;letter-spacing:0.075em"
         d="m 246.72719,58 v 9.12 h 10.92 V 100 h 9.96 V 67.12 h 10.86 V 58 Z" />
      <path
         id="path28"
         style="font-family:Noway;letter-spacing:0.075em"
         d="m 314.68937,100 v -8.52 h -15.78 v -8.64 h 14.4 v -8.52 h -14.4 v -7.8 h 15.78 V 58 h -25.74 v 42 z" />
      <path
         id="path30"
         style="font-family:Noway;letter-spacing:0.075em"
         d="m 348.34188,93.04 6.47999,-13.08 h 0.24 V 100 h 9.6 V 58 h -7.92 l -11.15999,21.78 h -0.24 L 334.24187,58 h -7.98 v 42 h 9.6 V 79.96 h 0.24 l 6.48001,13.08 z" />
      <path
         id="path32"
         style="font-family:Noway;letter-spacing:0.075em"
         d="m 376.81656,58 v 42 h 9.96 V 86.32 h 3.9 c 9.96,0 15.78,-3.9 15.78,-14.04 0,-11.46 -6.12,-14.28 -16.32,-14.28 z m 9.96,8.52 h 3.18 c 4.8,0 6.42,1.38 6.42,5.58 0,4.02 -1.62,5.64 -6.42,5.64 h -3.18 z" />
      <path
         id="path34"
         style="font-family:Noway;letter-spacing:0.075em"
         d="m 431.63875,100.48 c 10.68,0 15.84,-6.06 15.84,-15.36 V 72.94 c 0,-9.24 -5.16,-15.42 -15.84,-15.42 -10.74,0 -15.96,6.18 -15.96,15.42 v 12.18 c 0,9.3 5.22,15.36 15.96,15.36 z m 0,-8.82 c -4.38,0 -5.94,-2.46 -5.94,-7.2 V 73.48 c 0,-4.62 1.56,-7.08 5.94,-7.08 4.38,0 5.82,2.46 5.82,7.08 v 10.98 c 0,4.74 -1.44,7.2 -5.82,7.2 z" />
      <path
         id="path36"
         style="font-family:Noway;letter-spacing:0.075em"
         d="m 458.23844,58 v 42 h 9.9 V 85.6 h 3.78 l 7.14,14.4 h 11.04 l -9,-16.08 c 3.36,-1.5 6.78,-4.98 6.78,-12.06 0,-9.96 -6,-13.86 -15.96,-13.86 z m 9.9,8.52 h 3.36 c 4.14,0 6.36,1.14 6.36,5.34 0,3.9 -2.1,5.22 -5.76,5.22 h -3.96 z" />
      <path
         id="path38"
         style="font-family:Noway;letter-spacing:0.075em"
         d="m 508.38344,58 -13.32,42 h 10.44 l 2.4,-8.22 h 10.44 l 2.4,8.22 h 10.44 l -13.32,-42 z m 1.5,25.2 3.12,-12.18 h 0.24 l 3.12,12.18 z" />
      <path
         id="path40"
         style="font-family:Noway;letter-spacing:0.075em"
         d="m 572.89188,58 h -9.60001 v 22.32 h -0.24 l -14.1,-22.32 h -8.93999 v 42 h 9.6 V 76.96 h 0.23999 L 564.13188,100 h 8.76 z" />
      <path
         id="path42"
         style="font-family:Noway;letter-spacing:0.075em"
         d="m 610.21281,100 v -8.52 h -15.78 v -8.64 h 14.4 v -8.52 h -14.4 v -7.8 h 15.78 V 58 h -25.74 v 42 z" />
      <path
         id="path44"
         style="font-family:Noway;letter-spacing:0.075em"
         d="m 631.80531,58 -13.32,42 h 10.44 l 2.4,-8.22 h 10.44 l 2.4,8.22 h 10.44 l -13.32,-42 z m 1.5,25.2 3.12,-12.18 h 0.24 l 3.12,12.18 z" />
    </g>
  </g>
</svg>
