<?xml version="1.0" encoding="UTF-8" standalone="no"?>
<svg
   xmlns:dc="http://purl.org/dc/elements/1.1/"
   xmlns:cc="http://creativecommons.org/ns#"
   xmlns:rdf="http://www.w3.org/1999/02/22-rdf-syntax-ns#"
   xmlns:svg="http://www.w3.org/2000/svg"
   xmlns="http://www.w3.org/2000/svg"
   id="svg16"
   width="800px"
   version="1.1"
   height="200px">
  <metadata
     id="metadata20">
    <rdf:RDF>
      <cc:Work
         rdf:about="">
        <dc:format>image/svg+xml</dc:format>
        <dc:type
           rdf:resource="http://purl.org/dc/dcmitype/StillImage" />
      </cc:Work>
    </rdf:RDF>
  </metadata>
  <defs
     id="defs4">
    <style
       id="style2"
       type="text/css"><![CDATA[    
     @font-face {font-family:Noway;
     src: url('/Users/francesco/Repos/write-logos/src/fonts/Fonts_E_TEMPORANEA/Noway-Bold.otf');}
     @font-face {font-family:maxwox font;
     src: url('/Users/francesco/Repos/write-logos/src/fonts/Fonts_X/maxwox.ttf');}
     ]]></style>
  </defs>
  <g
     id="g14"
     style="font-size:60px">
    <g
       style="text-anchor:middle"
       id="text12"
       aria-label="EXTEMPORANEA">
      <path
         id="path22"
         style="font-family:Noway;letter-spacing:0.075em"
         d="m 186.67375,100 v -8.52 h -15.78 v -8.64 h 14.4 v -8.52 h -14.4 v -7.8 h 15.78 V 58 h -25.74 v 42 z" />
      <path
         id="path24"
         style="font-family:'maxwox font';letter-spacing:0.05em"
         d="m 215.26562,77.236328 v 3.808594 l -0.0293,0.0293 1.66992,0.9375 1.64062,0.9375 v 3.808593 l -1.64062,0.966797 -1.66992,0.9375 -1.64063,-0.9375 -1.64062,-0.9375 -1.64063,0.9375 -1.64062,0.9375 0.0293,0.0293 V 92.5 l -1.66992,0.9375 -1.64062,0.966797 L 203.75195,93.4375 202.11133,92.5 v -3.808594 l 1.64062,-0.966797 1.64063,-0.9375 -0.0293,-0.0293 v -3.808593 l 1.66992,-0.9375 1.64063,-0.9375 1.64062,0.9375 1.64063,0.9375 v 0 l -1.64063,-0.9375 -1.64062,-0.966797 v -3.808594 l 1.64062,-0.9375 1.64063,-0.9375 v -0.0293 l -1.64063,0.966797 -1.64062,0.9375 -1.64063,-0.9375 -1.66992,-0.966797 v -3.808594 l 1.66992,-0.9375 1.64063,-0.966796 1.64062,0.966796 1.64063,0.9375 1.64062,-0.9375 1.64063,-0.966796 1.66992,0.966796 1.64062,0.9375 v 3.808594 l -1.64062,0.966797 -1.66992,0.9375 z m 8.20313,16.201172 1.64062,0.966797 v 3.808594 l -1.64062,0.9375 -1.64063,0.937499 -1.66992,-0.937499 -1.64062,-0.9375 v -3.808594 l 0.0293,-0.0293 -1.64062,-0.9375 -1.66992,-0.9375 v -3.808594 l 1.66992,-0.966797 1.64062,-0.9375 1.64063,0.9375 1.64062,0.966797 V 92.5 v 0 z m -19.7168,0 1.64063,0.966797 v 3.808594 l -1.64063,0.9375 -1.64062,0.937499 -1.66992,-0.937499 -1.64063,-0.9375 V 94.404297 L 200.44141,93.4375 202.11133,92.5 Z m 19.7168,-34.306641 1.64062,0.9375 v 3.808594 l -1.64062,0.966797 -1.64063,0.9375 v 0.0293 3.808594 l -1.64062,0.9375 -1.64063,0.966796 -1.64062,-0.966796 -1.66992,-0.9375 v -3.808594 l 1.66992,-0.966797 1.64062,-0.9375 -0.0293,-0.0293 v -3.808594 l 1.64062,-0.9375 1.66992,-0.966797 z m -19.7168,0 1.64063,0.9375 v 3.808594 l -1.64063,0.966797 -1.64062,0.9375 -1.66992,-0.9375 -1.64063,-0.966797 v -3.808594 l 1.64063,-0.9375 1.66992,-0.966797 z m 3.28125,5.712891 1.66992,0.966797 v 3.808594 l -1.66992,0.9375 -1.64062,0.966796 -1.64063,-0.966796 -1.64062,-0.9375 v -3.808594 l 1.64062,-0.966797 1.64063,-0.9375 z" />
      <path
         id="path26"
         style="font-family:Noway;letter-spacing:0.075em"
         d="m 234.53969,58 v 9.12 h 10.92 V 100 h 9.96 V 67.12 h 10.86 V 58 Z" />
      <path
         id="path28"
         style="font-family:Noway;letter-spacing:0.075em"
         d="m 302.50187,100 v -8.52 h -15.78 v -8.64 h 14.4 v -8.52 h -14.4 v -7.8 h 15.78 V 58 h -25.74 v 42 z" />
      <path
         id="path30"
         style="font-family:Noway;letter-spacing:0.075em"
         d="m 336.15438,93.04 6.47999,-13.08 h 0.24 V 100 h 9.6 V 58 h -7.92 l -11.15999,21.78 h -0.24 L 322.05437,58 h -7.98 v 42 h 9.6 V 79.96 h 0.24 l 6.48001,13.08 z" />
      <path
         id="path32"
         style="font-family:Noway;letter-spacing:0.075em"
         d="m 364.62906,58 v 42 h 9.96 V 86.32 h 3.9 c 9.96,0 15.78,-3.9 15.78,-14.04 0,-11.46 -6.12,-14.28 -16.32,-14.28 z m 9.96,8.52 h 3.18 c 4.8,0 6.42,1.38 6.42,5.58 0,4.02 -1.62,5.64 -6.42,5.64 h -3.18 z" />
      <path
         id="path34"
         style="font-family:Noway;letter-spacing:0.075em"
         d="m 419.45125,100.48 c 10.68,0 15.84,-6.06 15.84,-15.36 V 72.94 c 0,-9.24 -5.16,-15.42 -15.84,-15.42 -10.74,0 -15.96,6.18 -15.96,15.42 v 12.18 c 0,9.3 5.22,15.36 15.96,15.36 z m 0,-8.82 c -4.38,0 -5.94,-2.46 -5.94,-7.2 V 73.48 c 0,-4.62 1.56,-7.08 5.94,-7.08 4.38,0 5.82,2.46 5.82,7.08 v 10.98 c 0,4.74 -1.44,7.2 -5.82,7.2 z" />
      <path
         id="path36"
         style="font-family:Noway;letter-spacing:0.075em"
         d="m 446.05094,58 v 42 h 9.9 V 85.6 h 3.78 l 7.14,14.4 h 11.04 l -9,-16.08 c 3.36,-1.5 6.78,-4.98 6.78,-12.06 0,-9.96 -6,-13.86 -15.96,-13.86 z m 9.9,8.52 h 3.36 c 4.14,0 6.36,1.14 6.36,5.34 0,3.9 -2.1,5.22 -5.76,5.22 h -3.96 z" />
      <path
         id="path38"
         style="font-family:Noway;letter-spacing:0.075em"
         d="m 496.19594,58 -13.32,42 h 10.44 l 2.4,-8.22 h 10.44 l 2.4,8.22 h 10.44 l -13.32,-42 z m 1.5,25.2 3.12,-12.18 h 0.24 l 3.12,12.18 z" />
      <path
         id="path40"
         style="font-family:Noway;letter-spacing:0.075em"
         d="m 560.70438,58 h -9.60001 v 22.32 h -0.24 l -14.1,-22.32 h -8.93999 v 42 h 9.6 V 76.96 h 0.23999 L 551.94438,100 h 8.76 z" />
      <path
         id="path42"
         style="font-family:Noway;letter-spacing:0.075em"
         d="m 598.02531,100 v -8.52 h -15.78 v -8.64 h 14.4 v -8.52 h -14.4 v -7.8 h 15.78 V 58 h -25.74 v 42 z" />
      <path
         id="path44"
         style="font-family:Noway;letter-spacing:0.075em"
         d="m 619.61781,58 -13.32,42 h 10.44 l 2.4,-8.22 h 10.44 l 2.4,8.22 h 10.44 l -13.32,-42 z m 1.5,25.2 3.12,-12.18 h 0.24 l 3.12,12.18 z" />
    </g>
  </g>
</svg>
