<?xml version="1.0" encoding="UTF-8" standalone="no"?>
<svg
   xmlns:dc="http://purl.org/dc/elements/1.1/"
   xmlns:cc="http://creativecommons.org/ns#"
   xmlns:rdf="http://www.w3.org/1999/02/22-rdf-syntax-ns#"
   xmlns:svg="http://www.w3.org/2000/svg"
   xmlns="http://www.w3.org/2000/svg"
   id="svg16"
   width="800px"
   version="1.1"
   height="200px">
  <metadata
     id="metadata20">
    <rdf:RDF>
      <cc:Work
         rdf:about="">
        <dc:format>image/svg+xml</dc:format>
        <dc:type
           rdf:resource="http://purl.org/dc/dcmitype/StillImage" />
      </cc:Work>
    </rdf:RDF>
  </metadata>
  <defs
     id="defs4">
    <style
       id="style2"
       type="text/css"><![CDATA[    
     @font-face {font-family:Noway;
     src: url('/Users/francesco/Repos/write-logos/src/fonts/Fonts_E_TEMPORANEA/Noway-Bold.otf');}
     @font-face {font-family:SomewhereInSpace;
     src: url('/Users/francesco/Repos/write-logos/src/fonts/Fonts_X/SOMWHEREINSPACE.ttf');}
     ]]></style>
  </defs>
  <g
     id="g14"
     style="font-size:60px">
    <g
       style="text-anchor:middle"
       id="text12"
       aria-label="EXTEMPORANEA">
      <path
         id="path22"
         style="font-family:Noway;letter-spacing:0.075em"
         d="m 184.97453,100 v -8.52 h -15.78 v -8.64 h 14.4 v -8.52 h -14.4 v -7.8 h 15.78 V 58 h -25.74 v 42 z" />
      <path
         id="path24"
         style="font-family:SomewhereInSpace;letter-spacing:0.05em"
         d="m 230.50703,108.4 q -2.4,-3.84 -6.9,-3.72 -1.44,0 -2.64,0.6 -0.3,0.06 -0.78,0.24 -0.36,-2.16 -1.26,-6.18 l -0.72,-1.26 q -1.32,-4.38 -3.78,-9.18 l -0.3,-0.3 q -0.84,0.84 -1.26,2.1 0.48,2.7 0.42,5.46 -0.12,5.28 -2.22,10.98 -0.84,2.28 -2.28,5.22 -0.42,0.42 -1.2,1.02 -0.18,0.06 -0.78,0.24 -1.98,0.54 -2.88,0.54 -2.82,0 -4.32,-1.14 -0.24,-0.18 -0.78,-0.66 -0.48,-0.48 -1.2,-1.74 0.24,-0.66 0.6,-2.04 3.24,-7.98 3,-16.08 l -0.12,-4.68 q -0.06,-2.88 -0.42,-4.62 -0.24,-1.32 -0.36,-2.22 -0.54,-0.84 -1.92,-3.06 -2.64,-4.38 -3.18,-7.32 -1.92,-6.24 -1.8,-10.86 0.06,-1.8 0.18,-3.9 0.06,-0.3 0.3,-0.96 1.14,3.24 4.38,4.26 2.1,0.66 4.5,0 1.26,0.9 2.04,3.36 0.18,0.42 1.02,3.96 0.12,0.96 0.42,2.82 0.42,0.72 1.8,3 l 0.42,-0.48 0.3,-0.42 q 0.12,-0.42 0.42,-1.2 0.66,-5.88 5.58,-17.28 4.26,-2.4 6.66,-2.46 1.02,-0.06 2.28,0.42 0.96,0.48 1.62,1.14 -6.6,9.84 -7.56,21.24 l 4.68,7.32 q 2.88,4.56 4.38,7.38 3.9,7.38 4.08,16.38 0,1.44 -0.24,3.3 -0.18,0.54 -0.18,0.78 z" />
      <path
         id="path26"
         style="font-family:Noway;letter-spacing:0.075em"
         d="m 236.23891,58 v 9.12 h 10.92 V 100 h 9.96 V 67.12 h 10.86 V 58 Z" />
      <path
         id="path28"
         style="font-family:Noway;letter-spacing:0.075em"
         d="m 304.20109,100 v -8.52 h -15.78 v -8.64 h 14.4 v -8.52 h -14.4 v -7.8 h 15.78 V 58 h -25.74 v 42 z" />
      <path
         id="path30"
         style="font-family:Noway;letter-spacing:0.075em"
         d="m 337.85359,93.04 6.48,-13.08 h 0.24 V 100 h 9.6 V 58 h -7.92 l -11.16,21.78 h -0.24 l -11.1,-21.78 h -7.98 v 42 h 9.6 V 79.96 h 0.24 l 6.48,13.08 z" />
      <path
         id="path32"
         style="font-family:Noway;letter-spacing:0.075em"
         d="m 366.32828,58 v 42 h 9.96 V 86.32 h 3.9 c 9.96,0 15.78,-3.9 15.78,-14.04 0,-11.46 -6.12,-14.28 -16.32,-14.28 z m 9.96,8.52 h 3.18 c 4.8,0 6.42,1.38 6.42,5.58 0,4.02 -1.62,5.64 -6.42,5.64 h -3.18 z" />
      <path
         id="path34"
         style="font-family:Noway;letter-spacing:0.075em"
         d="m 421.15047,100.48 c 10.68,0 15.84,-6.06 15.84,-15.36 V 72.94 c 0,-9.24 -5.16,-15.42 -15.84,-15.42 -10.74,0 -15.96,6.18 -15.96,15.42 v 12.18 c 0,9.3 5.22,15.36 15.96,15.36 z m 0,-8.82 c -4.38,0 -5.94,-2.46 -5.94,-7.2 V 73.48 c 0,-4.62 1.56,-7.08 5.94,-7.08 4.38,0 5.82,2.46 5.82,7.08 v 10.98 c 0,4.74 -1.44,7.2 -5.82,7.2 z" />
      <path
         id="path36"
         style="font-family:Noway;letter-spacing:0.075em"
         d="m 447.75016,58 v 42 h 9.9 V 85.6 h 3.78 l 7.14,14.4 h 11.04 l -9,-16.08 c 3.36,-1.5 6.78,-4.98 6.78,-12.06 0,-9.96 -6,-13.86 -15.96,-13.86 z m 9.9,8.52 h 3.36 c 4.14,0 6.36,1.14 6.36,5.34 0,3.9 -2.1,5.22 -5.76,5.22 h -3.96 z" />
      <path
         id="path38"
         style="font-family:Noway;letter-spacing:0.075em"
         d="m 497.89516,58 -13.32,42 h 10.44 l 2.4,-8.22 h 10.44 l 2.4,8.22 h 10.44 l -13.32,-42 z m 1.5,25.2 3.12,-12.18 h 0.24 l 3.12,12.18 z" />
      <path
         id="path40"
         style="font-family:Noway;letter-spacing:0.075em"
         d="m 562.40359,58 h -9.6 v 22.32 h -0.24 l -14.1,-22.32 h -8.94 v 42 h 9.6 V 76.96 h 0.24 l 14.28,23.04 h 8.76 z" />
      <path
         id="path42"
         style="font-family:Noway;letter-spacing:0.075em"
         d="m 599.72453,100 v -8.52 h -15.78 v -8.64 h 14.4 v -8.52 h -14.4 v -7.8 h 15.78 V 58 h -25.74 v 42 z" />
      <path
         id="path44"
         style="font-family:Noway;letter-spacing:0.075em"
         d="m 621.31703,58 -13.32,42 h 10.44 l 2.4,-8.22 h 10.44 l 2.4,8.22 h 10.44 l -13.32,-42 z m 1.5,25.2 3.12,-12.18 h 0.24 l 3.12,12.18 z" />
    </g>
  </g>
</svg>
