<?xml version="1.0" encoding="UTF-8" standalone="no"?>
<svg
   xmlns:dc="http://purl.org/dc/elements/1.1/"
   xmlns:cc="http://creativecommons.org/ns#"
   xmlns:rdf="http://www.w3.org/1999/02/22-rdf-syntax-ns#"
   xmlns:svg="http://www.w3.org/2000/svg"
   xmlns="http://www.w3.org/2000/svg"
   id="svg16"
   width="800px"
   version="1.1"
   height="200px">
  <metadata
     id="metadata20">
    <rdf:RDF>
      <cc:Work
         rdf:about="">
        <dc:format>image/svg+xml</dc:format>
        <dc:type
           rdf:resource="http://purl.org/dc/dcmitype/StillImage" />
      </cc:Work>
    </rdf:RDF>
  </metadata>
  <defs
     id="defs4">
    <style
       id="style2"
       type="text/css"><![CDATA[    
     @font-face {font-family:Noway;
     src: url('/Users/francesco/Repos/write-logos/src/fonts/Fonts_E_TEMPORANEA/Noway-Bold.otf');}
     @font-face {font-family:lift me up;
     src: url('/Users/francesco/Repos/write-logos/src/fonts/Fonts_X/liftmeup.ttf');}
     ]]></style>
  </defs>
  <g
     id="g14"
     style="font-size:60px">
    <g
       style="text-anchor:middle"
       id="text12"
       aria-label="EXTEMPORANEA">
      <path
         id="path22"
         style="font-family:Noway;letter-spacing:0.075em"
         d="m 176.94719,100 v -8.52 h -15.78 v -8.64 h 14.4 v -8.52 h -14.4 v -7.8 h 15.78 V 58 h -25.74 v 42 z" />
      <path
         id="path24"
         style="font-family:'lift me up';letter-spacing:0.05em"
         d="m 194.27969,53.26 12.6,16.98 -0.84,1.14 -13.5,-18.12 z m 16.02,21.6 3,-4.08 0.84,1.14 -3,3.96 3,4.08 -0.84,1.14 -3,-4.14 -2.64,3.54 -0.78,-1.08 2.58,-3.54 -2.58,-3.42 0.84,-1.08 z m 16.86,25.08 -13.02,-17.76 0.84,-1.08 13.86,18.84 z m -35.58,0 14.46,-19.38 0.78,1.02 -13.62,18.36 z m 36.48,-46.68 -13.08,17.52 -0.84,-1.08 12.24,-16.44 z m 6.84,46.68 -16.92,-22.98 -3,4.14 -0.84,-1.14 3,-4.08 -3,-3.96 0.84,-1.14 3,4.08 16.14,-21.6 h 1.62 l -16.86,22.62 17.64,24.06 z m -24.18,-15.3 2.58,-3.54 0.84,1.08 -2.64,3.54 z m 2.58,-13.86 -2.58,-3.48 0.84,-1.14 2.58,3.54 z m -11.28,-17.52 8.7,11.76 -0.84,1.14 -9.6,-12.9 z m -2.7,46.68 10.56,-14.22 0.78,1.14 -9.72,13.08 z m 8.34,-19.44 3.06,4.14 -0.84,1.08 -3.06,-4.14 z m 3.06,-13.2 -3,4.08 -0.84,-1.14 3,-4.08 z m -6.42,8.58 2.58,3.54 -0.84,1.14 -2.64,-3.6 -17.04,22.98 h -1.62 l 17.82,-24.06 -16.92,-22.62 h 1.74 l 16.02,21.6 2.64,-3.48 0.84,1.08 z m 16.02,24.06 -9.66,-13.08 0.84,-1.14 10.44,14.22 z m 0.84,-46.68 -9.6,12.9 -0.84,-1.14 8.82,-11.76 z" />
      <path
         id="path26"
         style="font-family:Noway;letter-spacing:0.075em"
         d="m 244.26625,58 v 9.12 h 10.92 V 100 h 9.96 V 67.12 h 10.86 V 58 Z" />
      <path
         id="path28"
         style="font-family:Noway;letter-spacing:0.075em"
         d="m 312.22844,100 v -8.52 h -15.78 v -8.64 h 14.4 v -8.52 h -14.4 v -7.8 h 15.78 V 58 h -25.74 v 42 z" />
      <path
         id="path30"
         style="font-family:Noway;letter-spacing:0.075em"
         d="m 345.88094,93.04 6.48,-13.08 h 0.24 V 100 h 9.6 V 58 h -7.92 l -11.16,21.78 h -0.24 l -11.1,-21.78 h -7.98 v 42 h 9.6 V 79.96 h 0.24 l 6.48,13.08 z" />
      <path
         id="path32"
         style="font-family:Noway;letter-spacing:0.075em"
         d="m 374.35562,58 v 42 h 9.96 V 86.32 h 3.9 c 9.96001,0 15.78001,-3.9 15.78001,-14.04 0,-11.46 -6.12,-14.28 -16.32,-14.28 z m 9.96,8.52 h 3.18001 c 4.79999,0 6.41999,1.38 6.41999,5.58 0,4.02 -1.62,5.64 -6.41999,5.64 h -3.18001 z" />
      <path
         id="path34"
         style="font-family:Noway;letter-spacing:0.075em"
         d="m 429.17781,100.48 c 10.68,0 15.84,-6.06 15.84,-15.36 V 72.94 c 0,-9.24 -5.16,-15.42 -15.84,-15.42 -10.74,0 -15.96,6.18 -15.96,15.42 v 12.18 c 0,9.3 5.22,15.36 15.96,15.36 z m 0,-8.82 c -4.38,0 -5.94,-2.46 -5.94,-7.2 V 73.48 c 0,-4.62 1.56,-7.08 5.94,-7.08 4.38,0 5.82,2.46 5.82,7.08 v 10.98 c 0,4.74 -1.44,7.2 -5.82,7.2 z" />
      <path
         id="path36"
         style="font-family:Noway;letter-spacing:0.075em"
         d="m 455.7775,58 v 42 h 9.9 V 85.6 h 3.78 l 7.14,14.4 h 11.04 l -9,-16.08 c 3.36,-1.5 6.78,-4.98 6.78,-12.06 0,-9.96 -6,-13.86 -15.96,-13.86 z m 9.9,8.52 h 3.36 c 4.14,0 6.36,1.14 6.36,5.34 0,3.9 -2.1,5.22 -5.76,5.22 h -3.96 z" />
      <path
         id="path38"
         style="font-family:Noway;letter-spacing:0.075em"
         d="m 505.9225,58 -13.32,42 h 10.44 l 2.4,-8.22 h 10.44 l 2.4,8.22 h 10.44 l -13.32,-42 z m 1.5,25.2 3.12,-12.18 h 0.24 l 3.12,12.18 z" />
      <path
         id="path40"
         style="font-family:Noway;letter-spacing:0.075em"
         d="m 570.43094,58 h -9.6 v 22.32 h -0.24 l -14.1,-22.32 h -8.94 v 42 h 9.6 V 76.96 h 0.24 l 14.28,23.04 h 8.76 z" />
      <path
         id="path42"
         style="font-family:Noway;letter-spacing:0.075em"
         d="m 607.75188,100 v -8.52 h -15.78001 v -8.64 h 14.40001 v -8.52 h -14.40001 v -7.8 h 15.78001 V 58 h -25.74 v 42 z" />
      <path
         id="path44"
         style="font-family:Noway;letter-spacing:0.075em"
         d="m 629.34438,58 -13.32001,42 h 10.44001 l 2.39999,-8.22 h 10.44001 l 2.4,8.22 h 10.43999 L 638.82438,58 Z m 1.5,25.2 3.12,-12.18 h 0.24 l 3.12,12.18 z" />
    </g>
  </g>
</svg>
