<?xml version="1.0" encoding="UTF-8" standalone="no"?>
<svg
   xmlns:dc="http://purl.org/dc/elements/1.1/"
   xmlns:cc="http://creativecommons.org/ns#"
   xmlns:rdf="http://www.w3.org/1999/02/22-rdf-syntax-ns#"
   xmlns:svg="http://www.w3.org/2000/svg"
   xmlns="http://www.w3.org/2000/svg"
   id="svg16"
   width="800px"
   version="1.1"
   height="200px">
  <metadata
     id="metadata20">
    <rdf:RDF>
      <cc:Work
         rdf:about="">
        <dc:format>image/svg+xml</dc:format>
        <dc:type
           rdf:resource="http://purl.org/dc/dcmitype/StillImage" />
      </cc:Work>
    </rdf:RDF>
  </metadata>
  <defs
     id="defs4">
    <style
       id="style2"
       type="text/css"><![CDATA[    
     @font-face {font-family:October Moon;
     src: url('/Users/francesco/Repos/write-logos/src/fonts/October_Moon_-_TTF.ttf');}
     @font-face {font-family:Cardinal Alternate;
     src: url('/Users/francesco/Repos/write-logos/src/fonts/Cardinal-Alternate.ttf');}
     ]]></style>
  </defs>
  <g
     id="g14"
     style="font-size:60px">
    <g
       style="text-anchor:middle"
       id="text12"
       aria-label="eXtemporanea">
      <path
         id="path22"
         style="font-family:'October Moon'"
         d="m 234.89172,105.04 q -2.7,-0.18 -4.8,-1.8 -2.04,-1.56 -3.54,-3.96 -1.44,-2.46 -2.22,-5.52 -0.78,-3.12 -0.84,-6.24 -0.06,-3.18 0.6,-6.18 0.6,-3.06 1.98,-5.4 1.44,-2.34 3.66,-3.78 2.22,-1.44 5.22,-1.44 1.56,0 2.52,1.08 1.02,1.08 1.02,2.7 0,2.52 -2.34,5.1 -2.28,2.52 -6.24,4.32 -0.06,0.66 -0.12,1.32 0,0.66 0,1.38 0,2.28 0.36,4.92 0.36,2.58 1.02,4.8 0.72,2.16 1.62,3.66 0.96,1.44 2.1,1.44 1.5,0 3.3,-1.86 1.8,-1.86 3.54,-4.92 1.8,-3.06 3.36,-6.9 1.62,-3.9 2.7,-7.92 0.12,-0.6 0.6,-0.96 0.48,-0.36 1.08,-0.36 0.84,0 1.32,0.6 0.54,0.54 0.54,1.26 0,0.12 -0.06,0.24 0,0.06 0,0.18 -1.32,4.92 -3.18,9.36 -1.86,4.38 -4.08,7.68 -2.16,3.3 -4.56,5.22 -2.34,1.98 -4.56,1.98 z m 0,-30.72 q -0.6,0 -1.2,0.48 -0.6,0.42 -1.14,1.14 -0.54,0.72 -1.02,1.62 -0.48,0.9 -0.78,1.86 2.28,-1.44 3.06,-2.58 0.84,-1.2 0.96,-1.68 0.12,-0.3 0.12,-0.48 0,-0.24 0,-0.36 z" />
      <path
         id="path24"
         style="font-family:'Cardinal Alternate'"
         d="m 301.29484,97 h -2.28 q -1.44,2.28 -3.3,2.28 -3.84,0 -10.5,-9.96 -1.38,-2.04 -3.42,-5.46 -2.04,-3.42 -4.74,-8.28 3.06,-3.66 4.8,-5.76 1.74,-2.16 2.22,-2.82 4.98,-6.6 4.98,-9 0,-1.5 -0.9,-2.7 -0.9,-1.2 -2.34,-1.2 -3.72,0 -5.52,5.82 4.38,0.06 4.38,2.52 0,1.98 -3.48,6 -3.24,3.72 -5.28,4.86 -0.96,-0.96 -2.1,-2.46 -1.08,-1.5 -2.46,-3.6 -3.12,-4.74 -3.12,-6.54 0,-1.8 0.78,-2.46 0.78,-0.66 2.58,-0.66 2.58,0 3.24,-0.42 1.14,-0.6 1.08,-3.06 -1.62,0.84 -2.34,1.26 -1.92,1.2 -15.18,1.2 -7.38,0 -8.28,-4.08 h -2.22 v 2.22 q 1.5,2.1 3.42,2.7 0.96,0.36 3.72,0.54 2.4,0.18 4.02,0.84 2.22,1.02 5.22,5.76 0.6,0.96 1.62,2.76 1.02,1.74 2.4,4.44 0.66,1.32 1.02,1.98 0.42,0.66 0.48,0.78 1.02,1.5 1.56,2.34 0.6,0.78 0.66,0.9 -0.12,1.2 -5.4,6.84 -3.42,3.66 -5.88,6.54 -2.4,2.82 -3.9,4.92 -5.22,7.32 -5.22,12.54 0,4.2 1.8,6.96 2.1,3.36 6,3.36 1.92,0 5.46,-1.32 3.54,-1.32 4.44,-1.32 1.26,0 6.06,2.16 l 0.54,-1.08 v -1.62 q -1.86,-1.68 -3.9,-1.68 -1.74,0 -5.46,1.92 -3.72,1.92 -5.52,1.92 -1.86,0 -3.42,-0.66 -1.5,-0.66 -2.58,-1.86 -1.08,-1.14 -1.68,-2.76 -0.54,-1.56 -0.54,-3.48 0,-4.92 2.46,-7.2 1.14,-1.02 4.86,-2.22 3.06,-1.02 3.66,-2.7 l 3.06,-9 q 0.6,-1.5 2.16,-3.48 1.62,-1.98 4.2,-4.56 l 9.9,16.5 q -1.2,2.82 -4.38,2.82 -0.48,0 -1.5,-0.06 -0.96,-0.06 -1.44,-0.06 -3.18,0 -4.32,2.22 l 1.14,1.08 2.22,-2.22 h 21.42 q 3.48,0 5.04,-3.24 z" />
      <path
         id="path26"
         style="font-family:'October Moon'"
         d="m 330.59266,42.88 q 2.88,1.98 2.88,5.1 0,0.78 -0.54,1.32 -0.54,0.48 -1.26,0.48 -0.78,0 -1.32,-0.48 -0.48,-0.54 -0.48,-1.32 0,-0.9 -0.6,-1.5 -0.6,-0.66 -1.5,-1.02 -0.9,-0.42 -1.92,-0.66 -1.02,-0.24 -1.86,-0.36 -1.56,-0.18 -2.94,-0.18 -1.38,0 -3.06,0.18 -1.62,0.18 -3.78,0.48 -2.1,0.24 -5.16,0.54 0.24,3.96 0.3,8.94 0.06,4.98 -0.06,10.5 -0.06,5.46 -0.24,11.16 -0.12,5.64 -0.3,10.98 -0.12,5.28 -0.24,9.96 -0.06,4.68 -0.06,8.16 0.06,3.54 0.24,5.52 0.18,2.04 0.66,2.04 0.12,-0.06 0.36,-0.36 0.24,-0.3 0.6,-0.9 0.42,-0.6 0.9,-1.56 0.48,-0.96 1.14,-2.46 0.84,-2.1 1.8,-4.98 0.96,-2.82 1.98,-6.42 0.84,-3.06 1.56,-5.94 0.78,-2.88 1.32,-5.1 0.54,-2.28 0.84,-3.66 0.3,-1.38 0.3,-1.38 0.12,-0.72 0.72,-1.14 0.66,-0.42 1.38,-0.24 0.78,0.12 1.14,0.78 0.42,0.6 0.3,1.32 0,0.06 -0.36,1.56 -0.36,1.5 -0.96,3.96 -0.54,2.4 -1.38,5.52 -0.78,3.06 -1.68,6.24 -2.16,7.62 -4.14,12 -0.6,1.38 -1.2,2.4 -0.54,1.02 -1.08,1.8 -1.68,2.22 -3.48,2.22 -2.52,0 -4.08,-2.76 -1.56,-2.76 -2.4,-7.32 -0.78,-4.56 -0.96,-10.44 -0.24,-5.94 -0.12,-12.18 0.12,-6.3 0.48,-12.42 0.42,-6.18 0.78,-11.22 0.42,-5.1 0.6,-8.64 0.24,-3.54 0.12,-4.56 -2.64,0.84 -5.22,2.1 -2.58,1.2 -5.04,3.12 -3.66,2.82 -4.38,5.76 -0.42,1.38 -1.74,1.38 -0.12,0 -0.24,0 -0.12,-0.06 -0.24,-0.06 -0.72,-0.18 -1.08,-0.84 -0.42,-0.66 -0.18,-1.38 0.66,-2.58 2.46,-4.68 1.8,-2.1 4.08,-3.66 2.28,-1.62 4.68,-2.76 2.4,-1.14 4.32,-1.86 2.46,-0.9 5.28,-1.62 2.88,-0.72 5.88,-1.14 3.06,-0.42 6.12,-0.54 3.06,-0.12 5.94,0.24 1.92,0.24 3.42,0.78 1.56,0.48 2.7,1.2 z" />
      <path
         id="path28"
         style="font-family:'October Moon'"
         d="m 330.51672,105.04 q -2.7,-0.18 -4.8,-1.8 -2.04,-1.56 -3.54,-3.96 -1.44,-2.46 -2.22,-5.52 -0.78,-3.12 -0.84,-6.24 -0.06,-3.18 0.6,-6.18 0.6,-3.06 1.98,-5.4 1.44,-2.34 3.66,-3.78 2.22,-1.44 5.22,-1.44 1.56,0 2.52,1.08 1.02,1.08 1.02,2.7 0,2.52 -2.34,5.1 -2.28,2.52 -6.24,4.32 -0.06,0.66 -0.12,1.32 0,0.66 0,1.38 0,2.28 0.36,4.92 0.36,2.58 1.02,4.8 0.72,2.16 1.62,3.66 0.96,1.44 2.1,1.44 1.5,0 3.3,-1.86 1.8,-1.86 3.54,-4.92 1.8,-3.06 3.36,-6.9 1.62,-3.9 2.7,-7.92 0.12,-0.6 0.6,-0.96 0.48,-0.36 1.08,-0.36 0.84,0 1.32,0.6 0.54,0.54 0.54,1.26 0,0.12 -0.06,0.24 0,0.06 0,0.18 -1.32,4.92 -3.18,9.36 -1.86,4.38 -4.08,7.68 -2.16,3.3 -4.56,5.22 -2.34,1.98 -4.56,1.98 z m 0,-30.72 q -0.6,0 -1.2,0.48 -0.6,0.42 -1.14,1.14 -0.54,0.72 -1.02,1.62 -0.48,0.9 -0.78,1.86 2.28,-1.44 3.06,-2.58 0.84,-1.2 0.96,-1.68 0.12,-0.3 0.12,-0.48 0,-0.24 0,-0.36 z" />
      <path
         id="path30"
         style="font-family:'October Moon'"
         d="m 374.53984,109.72 q -2.1,0 -3.24,-1.32 -1.08,-1.26 -1.56,-3.36 -0.42,-2.1 -0.36,-4.8 0.06,-2.7 0.3,-5.46 0.3,-2.82 0.72,-5.52 0.42,-2.7 0.6,-4.8 0.24,-2.1 0.12,-3.36 -0.12,-1.32 -0.84,-1.32 -1.26,0 -2.58,0.96 -1.32,0.96 -3.18,3 0.12,0.96 0.06,2.52 0,1.56 -0.24,3.36 -0.18,1.74 -0.66,3.54 -0.42,1.74 -1.2,3.18 -0.78,1.38 -1.92,2.28 -1.08,0.9 -2.58,0.9 -2.1,0 -2.88,-1.2 -0.72,-1.26 -0.72,-2.7 0,-2.7 1.38,-6.12 1.38,-3.48 3.66,-6.48 -0.54,-3.06 -1.68,-4.74 -1.14,-1.74 -1.92,-1.74 -0.18,0 -0.6,0.18 -0.42,0.18 -0.96,0.78 -0.54,0.54 -1.26,1.68 -0.66,1.14 -1.44,3.06 -1.2,2.94 -2.28,6.6 -1.02,3.6 -1.92,7.08 l -0.84,3.3 q -0.12,0.6 -0.66,0.96 -0.48,0.36 -1.08,0.36 -1.08,0 -1.8,-1.62 -0.78,-1.62 -1.2,-4.08 -0.42,-2.46 -0.42,-5.28 -0.06,-2.88 0.36,-5.34 0.36,-2.46 1.2,-4.08 0.84,-1.62 2.22,-1.62 0.78,0 1.32,0.54 0.54,0.54 0.54,1.2 l -0.18,4.5 q 0.42,-1.14 1.08,-3.12 0.72,-1.98 1.8,-3.9 1.08,-1.98 2.58,-3.36 1.5,-1.44 3.54,-1.44 3.3,0 5.04,1.68 1.74,1.62 2.76,4.86 2.04,-1.74 3.48,-2.52 1.44,-0.78 3.18,-0.78 3.18,0 4.62,2.22 1.5,2.22 1.86,5.58 0.36,3.3 -0.06,7.2 -0.36,3.84 -0.96,7.2 -0.6,3.3 -1.08,5.52 -0.42,2.22 -0.12,2.22 0.9,0 2.04,-1.92 1.14,-1.86 2.34,-4.68 1.2,-2.82 2.34,-6.18 1.2,-3.36 2.1,-6.24 0.9,-2.94 1.44,-4.98 0.54,-2.1 0.54,-2.34 0.12,-0.66 0.6,-1.02 0.54,-0.36 1.2,-0.36 0.78,0 1.26,0.6 0.48,0.54 0.48,1.2 v 0.36 q -0.06,0.12 -0.36,1.38 -0.3,1.2 -0.84,3.18 -0.48,1.92 -1.2,4.44 -0.72,2.46 -1.62,5.04 -2.64,7.62 -5.1,11.34 -2.46,3.78 -5.22,3.78 z m -14.76,-20.82 q -0.84,1.38 -1.26,2.64 -0.36,1.2 -0.48,2.16 -0.12,0.96 -0.12,1.56 0.06,0.6 0.06,0.66 0.42,-0.06 0.72,-0.66 0.3,-0.6 0.48,-1.56 0.24,-0.96 0.36,-2.16 0.12,-1.26 0.24,-2.64 z" />
      <path
         id="path32"
         style="font-family:'October Moon'"
         d="m 413.61297,78.4 q 0.6,0.18 0.96,0.66 0.42,0.48 0.42,1.08 0,0.12 -0.06,0.24 0,0.06 0,0.18 -1.74,7.26 -4.32,12.42 -2.58,5.16 -6.3,8.46 -3.3,2.94 -6.78,4.32 -3.48,1.38 -6.72,2.34 l -2.28,0.78 q -1.2,5.76 -3.3,8.46 -2.1,2.76 -5.1,2.76 -1.86,0 -3.18,-0.96 -1.38,-0.96 -1.38,-2.94 0,-3 1.98,-5.4 1.98,-2.4 6.12,-3.96 0.3,-1.2 0.42,-3.96 0.06,-2.76 0.12,-6.24 0.06,-3.48 0.18,-7.2 0.12,-3.72 0.48,-6.78 0.36,-3.06 0.96,-5.04 0.66,-1.98 1.74,-1.98 0.72,0 1.26,0.48 0.6,0.42 0.66,1.2 0,0.42 0.06,1.02 0.06,0.9 0.18,2.76 0,-0.06 0.12,-0.18 0.72,-1.68 1.5,-2.7 0.84,-1.08 1.62,-1.68 0.84,-0.6 1.56,-0.78 0.78,-0.24 1.44,-0.24 3.24,0 5.22,1.86 1.98,1.8 2.82,4.62 0.9,2.76 0.72,6 -0.18,3.18 -1.32,6 -1.08,2.76 -3.12,4.62 -1.98,1.8 -4.68,1.8 -1.74,0 -3.12,-0.72 -1.32,-0.72 -2.7,-2.28 -0.12,2.04 -0.24,3.9 -0.12,1.86 -0.36,3.54 l 0.6,-0.18 q 2.1,-0.6 4.14,-1.32 2.1,-0.72 4.14,-1.86 2.04,-1.14 3.96,-2.82 1.92,-1.68 3.6,-4.2 1.74,-2.58 3.18,-6.18 1.5,-3.6 2.64,-8.52 0.3,-1.38 1.8,-1.38 z m -20.52,3.96 q -0.72,1.74 -1.32,3.96 -0.54,2.22 -0.84,4.74 0.06,0.36 0.3,1.32 0.3,0.9 0.84,1.92 0.54,0.96 1.38,1.74 0.9,0.78 2.16,0.78 0.78,0 1.44,-1.32 0.72,-1.32 1.2,-3.24 0.48,-1.98 0.66,-4.26 0.18,-2.34 -0.06,-4.26 -0.18,-1.98 -0.9,-3.3 -0.66,-1.32 -1.98,-1.32 -0.48,0 -1.26,0.72 -0.78,0.72 -1.62,2.52 z m -12.96,34.14 q 0.6,0 1.02,-0.48 0.36,-0.48 0.66,-1.26 0.3,-0.78 0.54,-1.68 0.18,-0.84 0.42,-1.68 -1.2,0.48 -2.04,1.32 -0.9,0.84 -1.26,1.68 -0.42,0.84 -0.3,1.44 0.12,0.66 0.96,0.66 z" />
      <path
         id="path34"
         style="font-family:'October Moon'"
         d="m 436.14297,78.7 q 0.66,0.42 0.78,1.14 0.18,0.66 -0.3,1.32 -1.02,1.62 -3.12,3.18 -2.1,1.5 -4.86,2.7 l -1.14,0.48 V 88 q 0,1.92 -0.48,3.6 -0.48,1.68 -1.44,3 -1.14,1.62 -2.76,2.46 -1.56,0.84 -3.48,0.84 -3.6,0 -6,-1.56 -2.34,-1.62 -3.54,-3.96 -1.2,-2.4 -1.26,-5.16 -0.06,-2.82 1.08,-5.16 1.08,-2.4 3.3,-3.96 2.22,-1.62 5.58,-1.62 1.44,0 2.7,0.66 1.32,0.6 2.4,1.68 1.08,1.02 1.86,2.34 0.84,1.32 1.38,2.7 0.12,0 0.36,-0.12 2.28,-1.02 3.96,-2.22 1.74,-1.2 2.46,-2.34 0.48,-0.66 1.14,-0.78 0.72,-0.18 1.38,0.3 z m -13.5,13.86 q 0.54,-0.78 0.84,-1.8 0.3,-1.02 0.42,-2.16 -2.34,0.54 -4.32,0.54 -0.42,0 -0.84,0 -0.36,0 -0.72,-0.06 -2.1,-0.3 -3.54,-1.14 0.12,1.26 0.42,2.46 0.36,1.14 0.96,1.98 1.26,1.92 3.48,1.92 2.04,0 3.3,-1.74 z m -4.14,-12.48 q -0.66,0 -1.26,0.36 -0.54,0.36 -0.96,0.9 -0.36,0.54 -0.66,1.2 -0.3,0.6 -0.42,1.2 0.3,0.48 0.96,1.02 0.72,0.54 2.28,0.72 2.1,0.3 4.98,-0.48 -0.24,-0.72 -0.72,-1.5 -0.48,-0.78 -1.14,-1.5 -0.6,-0.72 -1.38,-1.26 -0.78,-0.54 -1.68,-0.66 z" />
      <path
         id="path36"
         style="font-family:'October Moon'"
         d="m 449.95422,109.24 q -2.28,0 -3.6,-1.8 -1.26,-1.74 -1.8,-4.5 -0.54,-2.76 -0.54,-6.12 0.06,-3.36 0.36,-6.48 0.36,-3.18 0.84,-5.7 0.48,-2.58 0.84,-3.72 -1.74,0.9 -3.66,1.32 -1.86,0.36 -3.84,0.48 -3.54,0.24 -6.18,-1.08 -2.7,-1.32 -4.32,-3.42 -1.68,-2.16 -2.28,-4.74 -0.66,-2.58 0,-4.74 0.6,-2.22 2.52,-3.72 1.86,-1.5 5.16,-1.5 1.68,0 2.76,0.6 1.14,0.6 1.74,1.56 0.66,0.96 0.9,2.22 0.24,1.2 0.24,2.46 0,0.9 -0.18,2.1 -0.18,1.14 -0.42,2.34 -0.24,1.2 -0.54,2.34 -0.3,1.14 -0.54,1.92 0.3,0.06 0.6,0.06 0.3,0 0.6,0 4.68,0 8.58,-3.18 0.6,-0.42 1.14,-0.42 1.14,0 1.8,1.26 0.66,1.26 0.9,3.36 0.3,2.04 0.3,4.68 0,2.64 -0.18,5.46 -0.12,2.76 -0.42,5.46 -0.24,2.7 -0.48,4.8 -0.18,2.16 -0.3,3.54 -0.06,1.38 0.06,1.5 0.18,-0.06 0.66,-0.54 0.48,-0.42 1.26,-1.8 0.78,-1.32 1.8,-3.78 1.08,-2.46 2.46,-6.54 0.78,-2.4 1.44,-4.74 0.66,-2.34 1.14,-4.14 0.48,-1.86 0.78,-3 0.3,-1.14 0.3,-1.14 0.12,-0.6 0.6,-0.96 0.48,-0.42 1.14,-0.42 0.78,0 1.26,0.54 0.54,0.54 0.54,1.26 0,0.12 -0.06,0.24 0,0.06 0,0.18 0,0 -0.36,1.32 -0.3,1.26 -0.9,3.3 -0.54,2.04 -1.32,4.62 -0.78,2.52 -1.62,5.16 -0.84,2.58 -1.74,4.92 -0.9,2.4 -1.74,4.02 -0.42,0.84 -1.02,1.74 -0.6,0.9 -1.32,1.68 -0.72,0.78 -1.56,1.26 -0.84,0.48 -1.8,0.48 z m -16.5,-42.12 q -0.84,0 -1.38,0.78 -0.6,0.78 -0.84,2.04 -0.3,1.2 -0.24,2.64 0,1.38 0.36,2.64 0.3,1.2 0.96,2.1 0.6,0.9 1.5,1.02 0.24,-0.66 0.54,-1.74 0.3,-1.08 0.54,-2.22 0.24,-1.2 0.36,-2.28 0.18,-1.14 0.18,-1.8 0,-2.1 -0.48,-2.64 -0.48,-0.54 -1.5,-0.54 z" />
      <path
         id="path38"
         style="font-family:'October Moon'"
         d="m 480.88422,109.24 q -2.16,0 -3.24,-1.08 -1.02,-1.02 -1.38,-3.18 -0.36,-2.16 -0.18,-5.52 0.18,-3.36 0.48,-7.98 -0.36,0.66 -0.78,1.26 -0.42,0.54 -0.84,1.14 -2.28,3 -4.68,4.5 -1.38,0.84 -2.64,1.2 -1.26,0.3 -2.46,0.3 -2.7,0 -4.56,-1.74 -1.86,-1.8 -2.82,-4.44 -0.96,-2.64 -0.96,-5.7 0,-3.12 1.02,-5.76 1.02,-2.7 3,-4.44 2.04,-1.8 5.1,-1.86 0.6,0 1.14,0.06 0.6,0.06 1.26,0.36 0.72,0.24 1.56,0.9 0.84,0.66 1.92,1.8 2.22,2.34 4.02,6 1.62,-3.66 2.52,-7.98 0.12,-0.72 0.72,-1.08 0.66,-0.42 1.38,-0.3 0.96,0.12 1.44,1.5 0.48,1.38 0.6,3.54 0.18,2.1 0.06,4.8 -0.12,2.64 -0.36,5.4 -0.24,2.76 -0.54,5.4 -0.3,2.64 -0.54,4.68 -0.24,2.04 -0.36,3.3 -0.06,1.26 0.18,1.26 0.18,0 0.66,-0.48 0.54,-0.42 1.32,-1.8 0.84,-1.32 1.98,-3.78 1.14,-2.52 2.58,-6.6 0.84,-2.4 1.56,-4.74 0.72,-2.34 1.2,-4.14 0.54,-1.86 0.84,-3 0.3,-1.14 0.3,-1.14 0.18,-0.72 0.78,-1.08 0.66,-0.42 1.38,-0.24 0.72,0.18 1.08,0.84 0.42,0.6 0.24,1.32 0,0 -0.3,1.2 -0.3,1.2 -0.9,3.18 -0.54,1.92 -1.32,4.38 -0.72,2.46 -1.62,4.98 -1.08,3.06 -2.1,5.46 -0.96,2.4 -1.98,4.14 -2.82,5.16 -5.76,5.16 z m -15.06,-29.76 q -0.66,0 -1.2,1.26 -0.54,1.2 -0.9,3.06 -0.3,1.8 -0.42,3.96 -0.12,2.16 0.06,4.02 0.18,1.86 0.72,3.18 0.54,1.26 1.44,1.32 1.02,0.12 2.7,-0.84 1.74,-1.02 3.84,-3.72 0.9,-1.14 1.74,-2.58 -1.02,-2.46 -2.22,-4.38 -1.14,-1.92 -2.4,-3.24 -1.86,-2.04 -3.36,-2.04 z" />
      <path
         id="path40"
         style="font-family:'October Moon'"
         d="m 509.88484,109.72 q -2.04,0 -3.18,-1.32 -1.14,-1.26 -1.68,-3.36 -0.48,-2.1 -0.48,-4.8 0,-2.7 0.24,-5.46 0.3,-2.82 0.66,-5.52 0.36,-2.7 0.6,-4.8 0.24,-2.1 0.18,-3.36 -0.06,-1.32 -0.66,-1.32 -1.92,0 -4.02,3.84 -1.02,1.98 -1.86,4.38 -0.84,2.4 -1.56,4.68 -0.48,1.44 -0.9,2.64 -0.36,1.2 -0.84,2.22 -0.42,1.14 -0.96,1.74 -0.54,0.78 -1.14,1.02 -0.6,0.24 -1.02,0.24 -0.48,0 -0.84,-0.24 -0.3,-0.18 -0.72,-0.48 -0.96,-0.66 -1.56,-2.46 -0.66,-1.86 -0.84,-4.26 -0.24,-2.4 -0.06,-4.98 0.12,-2.64 0.66,-4.8 0.54,-2.16 1.5,-3.48 0.9,-1.38 2.22,-1.32 0.78,0.06 1.26,0.66 0.48,0.6 0.36,1.32 0,0 -0.06,0.72 -0.06,0.66 -0.18,1.74 -0.06,1.08 -0.18,2.52 -0.12,1.44 -0.24,2.94 -0.18,2.46 -0.18,3.96 0.06,-0.18 0.12,-0.36 0.06,-0.18 0.18,-0.42 0.72,-2.4 1.62,-4.92 0.9,-2.52 2.04,-4.74 1.26,-2.4 2.88,-3.9 2.04,-1.86 4.32,-1.86 2.34,0 3.66,1.32 1.38,1.26 1.98,3.36 0.6,2.1 0.6,4.8 0.06,2.7 -0.24,5.52 -0.3,2.76 -0.78,5.46 -0.42,2.7 -0.78,4.8 -0.3,2.1 -0.42,3.36 -0.12,1.32 0.3,1.32 0.36,-0.06 0.78,-0.42 0.36,-0.3 0.9,-1.02 0.54,-0.72 1.26,-1.98 1.92,-3.36 3.9,-9.24 0.9,-2.52 1.62,-4.92 0.72,-2.46 1.2,-4.38 0.54,-1.98 0.78,-3.18 0.3,-1.2 0.3,-1.2 0.18,-0.72 0.78,-1.08 0.66,-0.42 1.38,-0.3 0.72,0.18 1.08,0.84 0.42,0.6 0.3,1.32 0,0.12 -0.3,1.38 -0.3,1.2 -0.84,3.18 -0.54,1.92 -1.26,4.44 -0.72,2.46 -1.62,5.04 -2.16,6.3 -4.14,9.84 -1.32,2.28 -2.58,3.54 -1.74,1.74 -3.54,1.74 z" />
      <path
         id="path42"
         style="font-family:'October Moon'"
         d="m 531.02453,105.04 q -2.7,-0.18 -4.8,-1.8 -2.04,-1.56 -3.54,-3.96 -1.44,-2.46 -2.22,-5.52 -0.78,-3.12 -0.84,-6.24 -0.06,-3.18 0.6,-6.18 0.6,-3.06 1.98,-5.4 1.44,-2.34 3.66,-3.78 2.22,-1.44 5.22,-1.44 1.56,0 2.52,1.08 1.02,1.08 1.02,2.7 0,2.52 -2.34,5.1 -2.28,2.52 -6.24,4.32 -0.06,0.66 -0.12,1.32 0,0.66 0,1.38 0,2.28 0.36,4.92 0.36,2.58 1.02,4.8 0.72,2.16 1.62,3.66 0.96,1.44 2.1,1.44 1.5,0 3.3,-1.86 1.8,-1.86 3.54,-4.92 1.8,-3.06 3.36,-6.9 1.62,-3.9 2.7,-7.92 0.12,-0.6 0.6,-0.96 0.48,-0.36 1.08,-0.36 0.84,0 1.32,0.6 0.54,0.54 0.54,1.26 0,0.12 -0.06,0.24 0,0.06 0,0.18 -1.32,4.92 -3.18,9.36 -1.86,4.38 -4.08,7.68 -2.16,3.3 -4.56,5.22 -2.34,1.98 -4.56,1.98 z m 0,-30.72 q -0.6,0 -1.2,0.48 -0.6,0.42 -1.14,1.14 -0.54,0.72 -1.02,1.62 -0.48,0.9 -0.78,1.86 2.28,-1.44 3.06,-2.58 0.84,-1.2 0.96,-1.68 0.12,-0.3 0.12,-0.48 0,-0.24 0,-0.36 z" />
      <path
         id="path44"
         style="font-family:'October Moon'"
         d="m 564.90766,109.24 q -2.16,0 -3.24,-1.08 -1.02,-1.02 -1.38,-3.18 -0.36,-2.16 -0.18,-5.52 0.18,-3.36 0.48,-7.98 -0.36,0.66 -0.78,1.26 -0.42,0.54 -0.84,1.14 -2.28,3 -4.68,4.5 -1.38,0.84 -2.64,1.2 -1.26,0.3 -2.46,0.3 -2.7,0 -4.56,-1.74 -1.86,-1.8 -2.82,-4.44 -0.96,-2.64 -0.96,-5.7 0,-3.12 1.02,-5.76 1.02,-2.7 3,-4.44 2.04,-1.8 5.1,-1.86 0.6,0 1.14,0.06 0.6,0.06 1.26,0.36 0.72,0.24 1.56,0.9 0.84,0.66 1.92,1.8 2.22,2.34 4.02,6 1.62,-3.66 2.52,-7.98 0.12,-0.72 0.72,-1.08 0.66,-0.42 1.38,-0.3 0.96,0.12 1.44,1.5 0.48,1.38 0.6,3.54 0.18,2.1 0.06,4.8 -0.12,2.64 -0.36,5.4 -0.24,2.76 -0.54,5.4 -0.3,2.64 -0.54,4.68 -0.24,2.04 -0.36,3.3 -0.06,1.26 0.18,1.26 0.18,0 0.66,-0.48 0.54,-0.42 1.32,-1.8 0.84,-1.32 1.98,-3.78 1.14,-2.52 2.58,-6.6 0.84,-2.4 1.56,-4.74 0.72,-2.34 1.2,-4.14 0.54,-1.86 0.84,-3 0.3,-1.14 0.3,-1.14 0.18,-0.72 0.78,-1.08 0.66,-0.42 1.38,-0.24 0.72,0.18 1.08,0.84 0.42,0.6 0.24,1.32 0,0 -0.3,1.2 -0.3,1.2 -0.9,3.18 -0.54,1.92 -1.32,4.38 -0.72,2.46 -1.62,4.98 -1.08,3.06 -2.1,5.46 -0.96,2.4 -1.98,4.14 -2.82,5.16 -5.76,5.16 z m -15.06,-29.76 q -0.66,0 -1.2,1.26 -0.54,1.2 -0.9,3.06 -0.3,1.8 -0.42,3.96 -0.12,2.16 0.06,4.02 0.18,1.86 0.72,3.18 0.54,1.26 1.44,1.32 1.02,0.12 2.7,-0.84 1.74,-1.02 3.84,-3.72 0.9,-1.14 1.74,-2.58 -1.02,-2.46 -2.22,-4.38 -1.14,-1.92 -2.4,-3.24 -1.86,-2.04 -3.36,-2.04 z" />
    </g>
  </g>
</svg>
