<?xml version="1.0" encoding="UTF-8" standalone="no"?>
<svg
   xmlns:dc="http://purl.org/dc/elements/1.1/"
   xmlns:cc="http://creativecommons.org/ns#"
   xmlns:rdf="http://www.w3.org/1999/02/22-rdf-syntax-ns#"
   xmlns:svg="http://www.w3.org/2000/svg"
   xmlns="http://www.w3.org/2000/svg"
   id="svg16"
   width="800px"
   version="1.1"
   height="200px">
  <metadata
     id="metadata20">
    <rdf:RDF>
      <cc:Work
         rdf:about="">
        <dc:format>image/svg+xml</dc:format>
        <dc:type
           rdf:resource="http://purl.org/dc/dcmitype/StillImage" />
      </cc:Work>
    </rdf:RDF>
  </metadata>
  <defs
     id="defs4">
    <style
       id="style2"
       type="text/css"><![CDATA[    
     @font-face {font-family:Open Sauce One Black;
     src: url('/Users/francesco/Repos/write-logos/src/fonts/Fonts_E_TEMPORANEA/OpenSauceOne-Black.ttf');}
     @font-face {font-family:Akronim;
     src: url('/Users/francesco/Repos/write-logos/src/fonts/Fonts_X/Akronim-Regular.ttf');}
     ]]></style>
  </defs>
  <g
     id="g14"
     style="font-size:60px">
    <g
       style="text-anchor:middle"
       id="text12"
       aria-label="EXTEMPORANEA">
      <path
         id="path22"
         style="font-family:'Open Sauce One Black';letter-spacing:0.075em"
         d="m 159.72719,100 h -31.26 V 54.22 h 31.26 v 9.6 h -20.52 v 8.52 h 18.54 v 9.54 h -18.54 v 8.52 h 20.52 z" />
      <path
         id="path24"
         style="font-family:Akronim;letter-spacing:0.05em"
         d="m 169.45,99.28 q -0.12,0.54 -0.18,0.54 -0.12,-0.06 -0.18,-0.24 0,-0.18 0,-0.3 -0.18,-2.76 0.36,-5.34 0.54,-2.64 1.62,-5.16 1.14,-2.52 2.64,-4.86 1.56,-2.4 3.3,-4.62 l 1.32,-1.68 q -2.46,-5.52 -4.86,-10.68 -2.34,-5.22 -5.16,-9 -0.18,-0.24 -0.18,-0.36 0.06,-0.12 0.24,0 0.18,0.12 0.3,0.18 1.86,1.5 3.36,3.54 1.56,2.04 2.88,4.44 1.32,2.34 2.46,4.98 1.14,2.58 2.28,5.22 l 1.02,-1.26 q -0.3,-0.6 -0.96,-1.86 -0.66,-1.32 -1.56,-2.94 -0.9,-1.62 -1.92,-3.42 -0.96,-1.8 -1.98,-3.36 -1.02,-1.62 -1.92,-2.88 -0.9,-1.26 -1.56,-1.8 -0.48,-0.36 -0.3,-0.48 0.12,-0.06 0.54,0.06 1.2,0.48 2.52,1.68 1.38,1.2 2.58,2.7 1.26,1.5 2.28,3.12 1.02,1.62 1.62,2.94 l 2.1,4.5 0.66,-0.72 q -1.2,-2.7 -2.58,-5.46 -1.38,-2.76 -3.3,-5.4 -0.18,-0.3 -0.24,-0.3 -0.06,0 0.06,-0.12 0,0 0.48,0.24 1.68,1.14 3.48,3.78 1.8,2.58 3.42,5.7 3.06,-3.6 6.12,-7.44 3.06,-3.9 4.98,-7.38 0.06,-0.12 0.12,-0.24 0.06,-0.12 0.24,0 0.06,0.06 0,0.24 0,0.18 0,0.24 -0.9,3.3 -2.88,6.54 -1.98,3.18 -4.44,6.36 -2.46,3.12 -5.16,6.24 -2.7,3.06 -5.04,6.12 -1.44,1.92 -2.88,4.14 -1.38,2.16 -2.52,4.5 -1.14,2.28 -1.98,4.68 -0.84,2.34 -1.2,4.62 z m 27.72,0.48 q 0.36,0.18 0.36,0.24 0,0 -0.42,0 -2.4,-0.36 -4.5,-1.56 -2.04,-1.26 -3.84,-3.06 -1.74,-1.8 -3.3,-4.02 -1.5,-2.28 -2.76,-4.62 -1.92,2.28 -4.02,4.5 -2.1,2.16 -3.78,3.72 -0.3,0.3 -0.54,0.54 -0.18,0.24 -0.3,0.18 -0.12,-0.06 0.06,-0.42 0.24,-0.36 0.36,-0.66 1.14,-2.22 2.58,-4.38 1.5,-2.16 3.12,-4.2 1.68,-2.1 3.42,-4.14 1.74,-2.04 3.42,-4.08 2.1,-2.58 4.56,-5.76 2.46,-3.18 4.26,-6.54 0.18,-0.42 0.3,-0.42 0.12,0 0.06,0.3 -0.06,0.24 -0.06,0.42 -0.12,1.26 -0.9,2.94 -0.78,1.68 -1.92,3.54 -1.08,1.8 -2.4,3.72 -1.26,1.86 -2.46,3.48 l 0.54,1.2 q 1.44,3.18 2.94,6.6 1.5,3.42 2.52,6.12 0.12,0.3 0.18,0.66 0.12,0.3 0,0.36 -0.06,0 -0.3,-0.24 -0.24,-0.3 -0.48,-0.6 -2.1,-2.82 -3.78,-5.88 -1.62,-3.06 -3.18,-6.3 -0.72,0.9 -1.44,1.86 -0.72,0.9 -1.44,1.86 1.14,2.22 2.58,4.44 1.44,2.16 3.12,4.14 1.68,1.92 3.54,3.54 1.92,1.56 3.9,2.52 z m -6.42,-28.2 q -2.34,3 -5.16,6.06 -2.82,3 -5.52,5.7 -0.12,0.06 -0.48,0.48 -0.36,0.36 -0.48,0.24 -0.12,-0.06 0.06,-0.6 0.24,-0.54 0.42,-0.78 0.42,-0.72 1.2,-1.8 0.78,-1.14 1.62,-2.28 0.9,-1.2 1.68,-2.28 0.84,-1.14 1.38,-1.8 1.38,-1.8 3,-4.02 1.68,-2.22 3.12,-4.44 1.5,-2.22 2.64,-4.2 1.2,-1.98 1.62,-3.18 0.18,-0.66 0.24,-0.66 0.06,0 0.12,0.24 0.12,0.18 0.12,0.48 0.06,1.32 -0.48,3.12 -0.54,1.74 -1.44,3.54 -0.84,1.8 -1.86,3.48 -0.96,1.62 -1.8,2.7 z m -18.06,24.36 q -0.48,1.2 -0.9,2.22 -0.36,1.02 -0.66,1.86 -0.06,0.12 -0.24,0.3 -0.12,0.18 -0.24,-0.3 -0.18,-1.02 0,-2.22 0.18,-1.2 1.02,-3.12 0.3,-0.72 0.78,-1.62 0.48,-0.96 1.02,-1.74 0.54,-0.84 0.96,-1.38 0.48,-0.54 0.72,-0.36 0,0.06 -0.12,0.42 -0.12,0.36 -0.3,0.78 -0.12,0.42 -0.3,0.84 -0.12,0.36 -0.18,0.48 -0.42,1.14 -0.78,1.98 -0.36,0.84 -0.78,1.86 z m 22.02,-0.12 q 0.96,0.9 1.86,1.68 0.96,0.72 1.98,1.38 0.12,0.12 0.3,0.3 0.18,0.12 0.12,0.18 -0.12,0.12 -0.36,0.12 -0.18,-0.06 -0.48,-0.12 -0.6,-0.18 -1.08,-0.3 -0.48,-0.12 -1.02,-0.36 -0.48,-0.3 -1.08,-0.72 -0.54,-0.42 -1.26,-1.14 -0.6,-0.6 -1.38,-1.5 -0.72,-0.96 -1.38,-1.86 -0.6,-0.96 -0.96,-1.68 -0.36,-0.72 -0.18,-0.84 0.06,-0.06 0.36,0.18 0.3,0.24 0.6,0.6 0.3,0.3 0.54,0.6 0.3,0.3 0.42,0.42 0.84,0.9 1.56,1.62 0.72,0.72 1.44,1.44 z" />
      <path
         id="path26"
         style="font-family:'Open Sauce One Black';letter-spacing:0.075em"
         d="m 223.51844,100 h -10.74 V 63.82 h -12.9 v -9.6 h 36.54 v 9.6 h -12.9 z" />
      <path
         id="path28"
         style="font-family:'Open Sauce One Black';letter-spacing:0.075em"
         d="m 276.25844,100 h -31.26 V 54.22 h 31.26 v 9.6 h -20.52 v 8.52 h 18.54 v 9.54 h -18.54 v 8.52 h 20.52 z" />
      <path
         id="path30"
         style="font-family:'Open Sauce One Black';letter-spacing:0.075em"
         d="m 297.62125,100 h -10.74 V 54.22 h 17.28 l 7.56,32.94 7.5,-32.94 h 17.34 V 100 h -10.74 V 62.8 l -8.88,37.2 h -10.44 l -8.88,-36.96 z" />
      <path
         id="path32"
         style="font-family:'Open Sauce One Black';letter-spacing:0.075em"
         d="M 348.33438,100 V 54.22 h 21.59999 q 6.72001,0 10.56,3.36 3.90001,3.3 3.90001,10.44 0,4.44 -1.86001,7.68 -1.8,3.24 -5.1,4.98 -3.3,1.68 -7.5,1.68 h -10.86 V 100 Z m 20.09999,-26.94 q 5.34001,0 5.34001,-4.68 0,-2.22 -1.38,-3.36 -1.32001,-1.2 -3.96001,-1.2 h -9.36 v 9.24 z" />
      <path
         id="path34"
         style="font-family:'Open Sauce One Black';letter-spacing:0.075em"
         d="m 415.03,101.02 q -7.5,0 -12.66,-3.24 -5.16,-3.24 -7.68,-8.64 -2.52,-5.46 -2.52,-12.06 0,-6.6 2.52,-12 2.52,-5.4 7.62,-8.58 5.16,-3.24 12.72,-3.24 7.5,0 12.6,3.24 5.16,3.18 7.68,8.58 2.52,5.4 2.52,12 0,6.6 -2.52,12.06 -2.52,5.4 -7.68,8.64 -5.1,3.24 -12.6,3.24 z m 0,-9.6 q 5.34,0 8.4,-3.84 3.06,-3.9 3.06,-10.5 0,-6.54 -3.06,-10.38 -3.06,-3.84 -8.4,-3.84 -5.34,0 -8.46,3.84 -3.06,3.84 -3.06,10.38 0,6.6 3.06,10.5 3.12,3.84 8.46,3.84 z" />
      <path
         id="path36"
         style="font-family:'Open Sauce One Black';letter-spacing:0.075em"
         d="m 485.36031,100 h -11.34 l -6.66,-17.64 h -8.7 V 100 h -10.74 V 54.22 h 21.6 q 6.72,0 10.56,3.36 3.9,3.3 3.9,10.44 0,4.26 -1.74,7.44 -1.74,3.18 -4.8,4.92 z m -26.7,-36.18 v 9.24 h 9.36 q 5.34,0 5.34,-4.68 0,-2.22 -1.38,-3.36 -1.32,-1.2 -3.96,-1.2 z" />
      <path
         id="path38"
         style="font-family:'Open Sauce One Black';letter-spacing:0.075em"
         d="m 502.87937,100 h -11.4 l 15.66,-45.78 h 11.64 L 534.43938,100 h -11.40001 l -2.45999,-8.22 h -15.24 z m 10.08001,-33.84 -4.80001,16.32 h 9.6 z" />
      <path
         id="path40"
         style="font-family:'Open Sauce One Black';letter-spacing:0.075em"
         d="m 553.44156,100 h -10.74 V 54.22 h 10.92 l 17.58,27.78 V 54.22 h 10.74 V 100 h -10.92 l -17.58,-27.96 z" />
      <path
         id="path42"
         style="font-family:'Open Sauce One Black';letter-spacing:0.075em"
         d="m 624.86781,100 h -31.26 V 54.22 h 31.26 v 9.6 h -20.52 v 8.52 h 18.54 v 9.54 h -18.54 v 8.52 h 20.52 z" />
      <path
         id="path44"
         style="font-family:'Open Sauce One Black';letter-spacing:0.075em"
         d="m 643.41062,100 h -11.4 l 15.66,-45.78 h 11.64 L 674.97063,100 h -11.40001 l -2.45999,-8.22 h -15.24 z m 10.08001,-33.84 -4.80001,16.32 h 9.6 z" />
    </g>
  </g>
</svg>
