<?xml version="1.0" encoding="UTF-8" standalone="no"?>
<svg
   xmlns:dc="http://purl.org/dc/elements/1.1/"
   xmlns:cc="http://creativecommons.org/ns#"
   xmlns:rdf="http://www.w3.org/1999/02/22-rdf-syntax-ns#"
   xmlns:svg="http://www.w3.org/2000/svg"
   xmlns="http://www.w3.org/2000/svg"
   id="svg16"
   width="800px"
   version="1.1"
   height="200px">
  <metadata
     id="metadata20">
    <rdf:RDF>
      <cc:Work
         rdf:about="">
        <dc:format>image/svg+xml</dc:format>
        <dc:type
           rdf:resource="http://purl.org/dc/dcmitype/StillImage" />
      </cc:Work>
    </rdf:RDF>
  </metadata>
  <defs
     id="defs4">
    <style
       id="style2"
       type="text/css"><![CDATA[    
     @font-face {font-family:Open Sauce One Black;
     src: url('/Users/francesco/Repos/write-logos/src/fonts/Fonts_E_TEMPORANEA/OpenSauceOne-Black.ttf');}
     @font-face {font-family:Dr Eye;
     src: url('/Users/francesco/Repos/write-logos/src/fonts/Fonts_X/DrEye.otf');}
     ]]></style>
  </defs>
  <g
     id="g14"
     style="font-size:60px">
    <g
       style="text-anchor:middle"
       id="text12"
       aria-label="EXTEMPORANEA">
      <path
         id="path22"
         style="font-family:'Open Sauce One Black';letter-spacing:0.075em"
         d="m 153.16469,100 h -31.26 V 54.22 h 31.26 v 9.6 h -20.52 v 8.52 h 18.54 v 9.54 h -18.54 v 8.52 h 20.52 z" />
      <path
         id="path24"
         style="font-family:'Dr Eye';letter-spacing:0.05em"
         d="m 159.1075,55.78 c 0.18,-0.24 2.1,-1.08 0,-1.2 -0.66,-0.06 -0.24,0.96 0,1.2 z m 0.9,8.94 c -0.12,0 -0.6,0.06 -0.72,0 -0.06,0.18 -0.42,0.12 -0.6,0.18 0.06,0.12 0,0.66 0,0.78 0.18,0 0.36,0.12 0.6,0.18 -0.42,0.12 0.84,-0.18 0.54,-0.18 0.42,0.24 0.18,-0.96 0.18,-0.96 z m 37.74,28.5 c 0.78,-3.9 -2.28,-3.06 -3.9,-4.08 -0.3,-0.12 -0.06,-0.36 -0.3,-0.6 -0.48,-0.84 -0.36,-2.28 -0.9,-3.18 -0.9,-1.5 -3.18,-1.2 -4.08,-2.4 -0.78,-1.02 -0.42,-3 -1.38,-3.78 l -0.18,-0.18 c -1.26,-1.02 -2.34,-0.42 -3,-2.1 0,-0.06 -0.42,-0.9 -0.36,-0.9 0.48,-0.36 0.36,-1.32 0.78,-1.68 0.78,-0.78 2.52,-0.66 3.18,-1.56 l 0.42,-0.36 c 0.42,-1.44 0,-2.16 0.72,-3.18 0.84,-1.26 3.24,-1.02 4.08,-2.46 0.36,-0.66 0.24,-1.98 0.54,-2.76 0.66,-1.8 5.46,-1.8 3.42,-5.1 l -0.18,-0.36 c -0.72,-0.6 -1.98,-0.48 -2.76,-0.96 -1.44,-0.9 -0.54,-3.48 -2.88,-4.14 -0.12,0 -0.36,0 -0.54,0 -2.1,0.12 -2.04,2.34 -3.24,3.42 -0.96,0.78 -1.86,0.48 -2.94,1.14 -1.56,1.02 -0.9,2.7 -1.68,4.32 l -0.6,0.54 c -1.44,0.78 -2.82,0.42 -3.96,1.5 -0.6,0.54 -0.42,2.16 -1.26,2.4 -1.02,0.3 -2.28,-0.12 -2.7,-0.54 -0.3,-0.42 -0.6,-1.74 -0.36,-2.58 0.3,-1.14 1.86,-0.48 2.28,-1.86 0.12,-0.48 0.18,-0.84 0.18,-1.2 0,-0.06 -0.06,-0.36 -0.18,-0.72 -0.06,-0.06 -0.3,-0.54 -0.36,-0.6 -0.84,-0.72 -2.34,-0.48 -3.42,-0.18 0,0.3 0.12,1.14 0,1.32 -0.3,0.54 -1.5,0.48 -2.4,0.54 -1.14,-1.68 -1.26,-2.7 1.14,-3.36 0.3,-1.14 0.54,-3.66 -1.14,-3.96 -2.58,-0.48 -2.28,2.28 -3.6,3.06 -1.08,0.6 -2.7,0.18 -3.9,0.9 -1.08,0.66 -0.78,5.16 0.18,5.64 0.78,0.42 1.56,0.12 2.22,0.6 1.32,0.78 1.38,2.4 1.14,4.32 -1.68,0.66 -2.04,0.72 -2.22,2.94 1.38,0.66 1.26,0.78 2.58,0 0.12,-0.06 0.78,-0.12 0.78,-0.18 0.18,-0.3 0,-1.08 0,-1.44 0.06,0 0.54,0 0.54,0 0.42,-0.12 0.48,-0.3 0.96,-0.24 2.28,0.18 2.46,2.04 1.86,3.96 -0.72,0.18 -1.56,0.3 -1.86,0.96 -0.36,0.66 -0.18,1.92 0,2.58 0.6,2.28 2.4,1.56 2.64,3 0.54,3.24 -2.58,3.36 -4.32,3.24 -0.42,1.32 -0.3,3.84 -1.14,4.86 -0.78,1.02 -3.42,0.84 -3.9,2.04 -0.6,1.62 -0.12,3.24 -1.38,4.14 -1.26,0.96 -1.86,-0.06 -2.58,1.86 -0.3,0.78 -0.48,1.44 0,2.22 0.06,0.12 0.42,0.54 0.54,0.6 0,0.06 0.18,0.18 0.18,0.18 0.84,0.6 2.04,0.3 3,0.72 1.08,0.54 0.72,3.06 1.92,3.6 0.42,0.24 1.5,0 1.5,0 0.36,-0.3 0.9,-0.36 1.08,-0.72 0.48,-0.9 0.18,-2.34 0.96,-2.88 0.66,-0.42 1.44,-0.12 2.46,-0.36 2.46,-0.54 1.86,-3.42 2.58,-5.76 1.38,0.06 3.9,0.24 4.38,-1.56 0.24,-1.08 -0.24,-2.1 -0.42,-2.76 -2.4,-0.6 -2.04,-1.32 -1.44,-3.42 1.02,-0.06 2.58,-0.12 2.94,0.9 0.06,0.36 -0.18,0.96 0,1.2 0.18,0.24 1.02,0.36 1.32,0.54 1.38,0.72 3.3,0.78 3.78,2.46 0.42,1.32 0.48,3.06 1.68,3.54 1.44,0.6 2.1,0 2.94,1.32 0.66,0.96 0.54,3.54 1.74,3.9 0.9,0.3 1.98,-0.06 2.76,0.18 2.46,0.66 1.98,3.24 4.74,3.24 0.84,-1.92 0.78,-3 -1.68,-3.42 -0.06,-0.3 0.12,-0.42 -0.18,-0.54 0,-1.86 0.12,-3.3 1.08,-4.08 0.84,-0.72 1.86,-0.42 2.1,-1.74 z m -31.92,-11.94 c -0.36,-0.6 -0.66,-0.54 -1.32,-0.84 -0.06,0.18 -0.6,0.3 -0.72,0.48 0.06,0.3 -0.12,0.72 0,1.08 0.36,1.08 3.96,1.56 2.04,-0.72 z m -6.54,4.8 c -0.78,0 -0.18,1.02 -0.18,1.02 0.3,-0.24 1.2,-0.96 0.18,-1.02 z m 41.82,11.46 c 0.6,-0.06 0.3,-1.14 -0.54,-1.08 -0.72,0.06 -0.24,1.14 0.54,1.08 z m -30.36,-6 c 0.9,0.36 1.62,2.52 -1.14,1.14 0,-0.36 0.18,-1.08 0.18,-1.14 0.3,0.12 0.6,-0.12 0.96,0 z" />
      <path
         id="path26"
         style="font-family:'Open Sauce One Black';letter-spacing:0.075em"
         d="m 230.08094,100 h -10.74 V 63.82 h -12.9 v -9.6 h 36.54 v 9.6 h -12.9 z" />
      <path
         id="path28"
         style="font-family:'Open Sauce One Black';letter-spacing:0.075em"
         d="m 282.82094,100 h -31.26 V 54.22 h 31.26 v 9.6 h -20.52 v 8.52 h 18.54 v 9.54 h -18.54 v 8.52 h 20.52 z" />
      <path
         id="path30"
         style="font-family:'Open Sauce One Black';letter-spacing:0.075em"
         d="m 304.18375,100 h -10.74 V 54.22 h 17.28 l 7.56,32.94 7.5,-32.94 h 17.34 V 100 h -10.74 V 62.8 l -8.88,37.2 h -10.44 l -8.88,-36.96 z" />
      <path
         id="path32"
         style="font-family:'Open Sauce One Black';letter-spacing:0.075em"
         d="M 354.89688,100 V 54.22 h 21.59999 q 6.72001,0 10.56,3.36 3.90001,3.3 3.90001,10.44 0,4.44 -1.86001,7.68 -1.8,3.24 -5.1,4.98 -3.3,1.68 -7.5,1.68 h -10.86 V 100 Z m 20.09999,-26.94 q 5.34001,0 5.34001,-4.68 0,-2.22 -1.38,-3.36 -1.32001,-1.2 -3.96001,-1.2 h -9.36 v 9.24 z" />
      <path
         id="path34"
         style="font-family:'Open Sauce One Black';letter-spacing:0.075em"
         d="m 421.5925,101.02 q -7.5,0 -12.66,-3.24 -5.16,-3.24 -7.68,-8.64 -2.52,-5.46 -2.52,-12.06 0,-6.6 2.52,-12 2.52,-5.4 7.62,-8.58 5.16,-3.24 12.72,-3.24 7.5,0 12.6,3.24 5.16,3.18 7.68,8.58 2.52,5.4 2.52,12 0,6.6 -2.52,12.06 -2.52,5.4 -7.68,8.64 -5.1,3.24 -12.6,3.24 z m 0,-9.6 q 5.34,0 8.4,-3.84 3.06,-3.9 3.06,-10.5 0,-6.54 -3.06,-10.38 -3.06,-3.84 -8.4,-3.84 -5.34,0 -8.46,3.84 -3.06,3.84 -3.06,10.38 0,6.6 3.06,10.5 3.12,3.84 8.46,3.84 z" />
      <path
         id="path36"
         style="font-family:'Open Sauce One Black';letter-spacing:0.075em"
         d="m 491.92281,100 h -11.34 l -6.66,-17.64 h -8.7 V 100 h -10.74 V 54.22 h 21.6 q 6.72,0 10.56,3.36 3.9,3.3 3.9,10.44 0,4.26 -1.74,7.44 -1.74,3.18 -4.8,4.92 z m -26.7,-36.18 v 9.24 h 9.36 q 5.34,0 5.34,-4.68 0,-2.22 -1.38,-3.36 -1.32,-1.2 -3.96,-1.2 z" />
      <path
         id="path38"
         style="font-family:'Open Sauce One Black';letter-spacing:0.075em"
         d="m 509.44187,100 h -11.4 l 15.66,-45.78 h 11.64 L 541.00188,100 h -11.40001 l -2.45999,-8.22 h -15.24 z m 10.08001,-33.84 -4.80001,16.32 h 9.6 z" />
      <path
         id="path40"
         style="font-family:'Open Sauce One Black';letter-spacing:0.075em"
         d="m 560.00406,100 h -10.74 V 54.22 h 10.92 l 17.58,27.78 V 54.22 h 10.74 V 100 h -10.92 l -17.58,-27.96 z" />
      <path
         id="path42"
         style="font-family:'Open Sauce One Black';letter-spacing:0.075em"
         d="m 631.43031,100 h -31.26 V 54.22 h 31.26 v 9.6 h -20.52 v 8.52 h 18.54 v 9.54 h -18.54 v 8.52 h 20.52 z" />
      <path
         id="path44"
         style="font-family:'Open Sauce One Black';letter-spacing:0.075em"
         d="m 649.97312,100 h -11.4 l 15.66,-45.78 h 11.64 L 681.53313,100 h -11.40001 l -2.45999,-8.22 h -15.24 z m 10.08001,-33.84 -4.80001,16.32 h 9.6 z" />
    </g>
  </g>
</svg>
