<?xml version="1.0" encoding="UTF-8" standalone="no"?>
<svg
   xmlns:dc="http://purl.org/dc/elements/1.1/"
   xmlns:cc="http://creativecommons.org/ns#"
   xmlns:rdf="http://www.w3.org/1999/02/22-rdf-syntax-ns#"
   xmlns:svg="http://www.w3.org/2000/svg"
   xmlns="http://www.w3.org/2000/svg"
   id="svg16"
   width="800px"
   version="1.1"
   height="200px">
  <metadata
     id="metadata20">
    <rdf:RDF>
      <cc:Work
         rdf:about="">
        <dc:format>image/svg+xml</dc:format>
        <dc:type
           rdf:resource="http://purl.org/dc/dcmitype/StillImage" />
      </cc:Work>
    </rdf:RDF>
  </metadata>
  <defs
     id="defs4">
    <style
       id="style2"
       type="text/css"><![CDATA[    
     @font-face {font-family:Open Sauce One Black;
     src: url('/Users/francesco/Repos/write-logos/src/fonts/Fonts_E_TEMPORANEA/OpenSauceOne-Black.ttf');}
     @font-face {font-family:Special Elite;
     src: url('/Users/francesco/Repos/write-logos/src/fonts/Fonts_X/SpecialElite-Regular.ttf');}
     ]]></style>
  </defs>
  <g
     id="g14"
     style="font-size:60px">
    <g
       style="text-anchor:middle"
       id="text12"
       aria-label="EXTEMPORANEA">
      <path
         id="path22"
         style="font-family:'Open Sauce One Black';letter-spacing:0.075em"
         d="m 157.09047,100 h -31.26 V 54.22 h 31.26 v 9.6 h -20.52 v 8.52 h 18.54 v 9.54 h -18.54 v 8.52 h 20.52 z" />
      <path
         id="path24"
         style="font-family:'Special Elite';letter-spacing:0.05em"
         d="m 198.88867,96.25 q -0.14648,0.673828 -0.32226,1.376953 -0.14649,0.703125 -0.46875,1.289063 -0.23438,0.410156 -0.79102,0.644531 -0.52734,0.205078 -1.17187,0.322265 Q 195.51953,100 194.875,100 q -0.64453,0.0293 -1.05469,0.0293 -1.75781,0 -3.51562,-0.175784 -1.72852,-0.205079 -3.48633,-0.322266 -0.67383,-0.0293 -1.28906,-0.05859 -0.58594,-0.05859 -1.08399,-0.263672 -0.46875,-0.234375 -0.76172,-0.673828 -0.26367,-0.46875 -0.26367,-1.318359 0,-1.31836 0.35156,-1.992188 0.35157,-0.703125 0.79102,-1.113281 0.43945,-0.439453 0.79102,-0.761719 0.35156,-0.322265 0.35156,-0.878906 0,-0.585937 -0.29297,-1.054687 -0.29297,-0.498047 -0.61524,-0.996094 -0.46875,-0.732422 -0.73242,-1.611328 -0.23437,-0.908203 -0.55664,-1.699219 -0.32226,-0.791016 -0.9082,-1.318359 -0.58594,-0.527344 -1.72852,-0.527344 -0.61523,0 -0.82031,0.234375 -0.17578,0.205078 -0.23437,0.55664 -0.0586,0.322266 -0.14649,0.703125 -0.0586,0.351563 -0.43945,0.615235 -0.52735,0.380859 -0.9961,1.054687 -0.46875,0.673828 -0.82031,1.435547 -0.35156,0.761719 -0.55664,1.582031 -0.20508,0.791016 -0.20508,1.435547 0,0.527344 0.38086,1.025391 0.38086,0.46875 0.84961,0.966797 0.46875,0.498047 0.84961,1.054687 0.38086,0.556641 0.38086,1.259766 0,0.146484 -0.0586,0.46875 -0.0586,0.292969 -0.29297,0.292969 -0.14649,0 -0.29297,-0.08789 -0.11719,-0.08789 -0.26367,-0.08789 -0.11719,0 -0.20508,0.117188 -0.0586,0.117187 -0.0586,0.234375 0,0.117187 0.14648,0.117187 h 0.0586 q 0.11719,0 0.20508,0.0293 0.0879,0.0293 0.0879,0.263672 0,0.351563 -0.26367,0.556641 -0.26367,0.205078 -0.64453,0.322265 -0.35156,0.08789 -0.73242,0.117188 -0.38086,0 -0.61524,0 -0.58593,0 -1.14257,-0.05859 -0.52735,-0.05859 -1.11329,-0.05859 -1.58203,0 -3.19336,0.146485 -1.58203,0.117187 -3.19335,0.117187 -0.43946,0 -0.9961,-0.0293 -0.55664,-0.0293 -1.05469,-0.175781 -0.49804,-0.175781 -0.84961,-0.498047 -0.32226,-0.351562 -0.32226,-0.966797 0,-0.615234 0.35156,-1.113281 0.35156,-0.527344 0.79102,-0.908203 0.52734,-0.439453 1.14258,-0.673828 0.61523,-0.263672 1.25976,-0.46875 0.64453,-0.205078 1.25977,-0.439453 0.64453,-0.234375 1.17187,-0.673828 0.76172,-0.615235 1.25977,-1.435547 0.52734,-0.84961 0.9375,-1.728516 0.43945,-0.908203 0.8789,-1.787109 0.43946,-0.908203 1.11328,-1.640625 0.20508,-0.234375 0.41016,-0.615235 0.20508,-0.380859 0.35156,-0.820312 0.14649,-0.439453 0.23438,-0.849609 0.0879,-0.439454 0.0879,-0.761719 0,-0.263672 0.20508,-0.410156 0.23437,-0.175782 0.41015,-0.322266 0.55664,-0.410156 0.82032,-0.791016 0.26367,-0.410156 0.49804,-1.054687 0.29297,-0.878906 0.73242,-1.757813 0.46875,-0.878906 0.46875,-1.816406 0,-0.380859 -0.17578,-0.966797 -0.14648,-0.615234 -0.41015,-1.230469 -0.23438,-0.615234 -0.52735,-1.171875 -0.29297,-0.55664 -0.55664,-0.849609 -0.23437,-0.263672 -0.43945,-0.410156 -0.20508,-0.146485 -0.35156,-0.263672 -0.14649,-0.146484 -0.23438,-0.351563 -0.0879,-0.234375 -0.0879,-0.673828 0,-0.46875 -0.14648,-0.849609 -0.14649,-0.380859 -0.38086,-0.703125 -0.23438,-0.351563 -0.52735,-0.673828 -0.26367,-0.322266 -0.49804,-0.673828 -0.38086,-0.556641 -0.64453,-1.171875 -0.23438,-0.644532 -0.46875,-1.289063 -0.20508,-0.644531 -0.49805,-1.259765 -0.26367,-0.615235 -0.70313,-1.142579 -0.52734,-0.615234 -0.8789,-0.996093 -0.35156,-0.38086 -0.73242,-0.585938 -0.38086,-0.234375 -0.90821,-0.292969 -0.49804,-0.08789 -1.31836,-0.08789 -0.38086,0 -0.96679,-0.205078 -0.58594,-0.234375 -1.14258,-0.556641 -0.52735,-0.351562 -0.9375,-0.791016 -0.38086,-0.439453 -0.38086,-0.878906 0,-0.410156 0.38086,-0.615234 0.41015,-0.205078 0.9375,-0.292969 0.52734,-0.117187 1.05469,-0.117187 0.52734,-0.0293 0.79101,-0.05859 0.87891,-0.05859 1.75781,-0.117188 0.87891,-0.08789 1.75782,-0.08789 0.58593,0 1.14257,0.05859 0.58594,0.05859 1.17188,0.05859 1.02539,0 1.99219,-0.08789 0.9082,-0.08789 1.43554,0.117187 0.52735,0.205078 0.79102,0.527344 0.26367,0.322265 0.32227,0.644531 0.0879,0.292969 0.0879,0.410156 0,0.439453 -0.38086,0.820313 -0.35157,0.351562 -0.82032,0.703125 -0.43945,0.351562 -0.84961,0.703125 -0.38085,0.351562 -0.43945,0.732422 0.64453,1.904297 1.49414,3.662109 0.87891,1.757813 2.19727,3.339844 0.11719,0.146484 0.29297,0.351562 0.17578,0.205078 0.35156,0.410157 0.20508,0.175781 0.41016,0.322265 0.23437,0.117188 0.43945,0.117188 0.0879,0 0.32226,-0.175782 0.23438,-0.205078 0.52735,-0.46875 0.32226,-0.263671 0.64453,-0.498046 0.35156,-0.263672 0.61523,-0.38086 0.43946,-0.175781 0.70313,-0.820312 0.29297,-0.644532 0.49805,-1.435547 0.23437,-0.791016 0.43945,-1.552735 0.20508,-0.761718 0.46875,-1.201171 0.23437,-0.322266 0.55664,-0.791016 0.32226,-0.498047 0.32226,-0.908203 0,-0.410156 -0.32226,-0.644531 -0.32227,-0.234375 -0.70313,-0.46875 -0.38086,-0.234375 -0.70312,-0.585938 -0.32227,-0.380859 -0.32227,-1.054687 0,-0.673829 0.32227,-1.083985 0.35156,-0.439453 0.99609,-0.585937 0.9668,-0.205078 1.99219,-0.351563 1.02539,-0.146484 2.02148,-0.146484 0.49805,0 0.9668,0.175781 0.46875,0.175781 0.9668,0.175781 0.55664,0 1.05469,-0.234375 0.49804,-0.234375 1.08398,-0.234375 0.55664,0 1.11328,0.08789 0.58594,0.08789 1.11328,0.234375 0.26367,0.08789 0.61524,0.292969 0.35156,0.175781 0.64453,0.439453 0.32226,0.263672 0.52734,0.585937 0.23438,0.292969 0.23438,0.615235 0,0.439453 -0.55664,0.761718 -0.55664,0.322266 -1.28907,0.556641 -0.73242,0.234375 -1.46484,0.410156 -0.73242,0.146485 -1.05469,0.234375 -1.23047,0.351563 -2.10937,1.083985 -0.87891,0.703125 -1.52344,1.640625 -0.61523,0.908203 -1.08398,1.992187 -0.43946,1.054688 -0.84961,2.138672 -0.43946,1.142578 -1.05469,2.255859 -0.61524,1.113282 -1.17188,2.25586 -0.55664,1.142578 -0.96679,2.314453 -0.38086,1.171875 -0.38086,2.431641 0,1.142578 0.32226,1.96289 0.32227,0.791016 0.70313,1.464844 0.38086,0.644531 0.70312,1.230469 0.32227,0.55664 0.32227,1.171875 0,0.146484 0.20508,0.410156 0.23437,0.234375 0.52734,0.498047 0.29297,0.263672 0.55664,0.527344 0.29297,0.263671 0.38086,0.439453 0.55664,0.9375 0.9668,2.050781 0.43945,1.083984 0.9375,2.109375 0.49804,1.025391 1.17187,1.904297 0.70313,0.878906 1.78711,1.40625 0.49805,0.263672 1.02539,0.380859 0.55664,0.08789 1.11328,0.175781 0.55664,0.05859 1.11329,0.117188 0.55664,0.05859 1.08398,0.205078 0.49805,0.05859 0.79102,0.234375 0.32226,0.146484 0.49804,0.380859 0.17578,0.234375 0.23438,0.527344 0.0879,0.263672 0.14648,0.527344 z" />
      <path
         id="path26"
         style="font-family:'Open Sauce One Black';letter-spacing:0.075em"
         d="m 226.15516,100 h -10.74 V 63.82 h -12.9 v -9.6 h 36.54 v 9.6 h -12.9 z" />
      <path
         id="path28"
         style="font-family:'Open Sauce One Black';letter-spacing:0.075em"
         d="m 278.89516,100 h -31.26 V 54.22 h 31.26 v 9.6 h -20.52 v 8.52 h 18.54 v 9.54 h -18.54 v 8.52 h 20.52 z" />
      <path
         id="path30"
         style="font-family:'Open Sauce One Black';letter-spacing:0.075em"
         d="m 300.25797,100 h -10.74 V 54.22 h 17.28 l 7.56,32.94 7.5,-32.94 h 17.34 V 100 h -10.74 V 62.8 l -8.88,37.2 h -10.44 l -8.88,-36.96 z" />
      <path
         id="path32"
         style="font-family:'Open Sauce One Black';letter-spacing:0.075em"
         d="M 350.97109,100 V 54.22 h 21.6 q 6.72,0 10.56,3.36 3.9,3.3 3.9,10.44 0,4.44 -1.86,7.68 -1.8,3.24 -5.1,4.98 -3.3,1.68 -7.5,1.68 h -10.86 V 100 Z m 20.1,-26.94 q 5.34,0 5.34,-4.68 0,-2.22 -1.38,-3.36 -1.32,-1.2 -3.96,-1.2 h -9.36 v 9.24 z" />
      <path
         id="path34"
         style="font-family:'Open Sauce One Black';letter-spacing:0.075em"
         d="m 417.66672,101.02 q -7.5,0 -12.66,-3.24 -5.16,-3.24 -7.68,-8.64 -2.52,-5.46 -2.52,-12.06 0,-6.6 2.52,-12 2.52,-5.4 7.62,-8.58 5.16,-3.24 12.72,-3.24 7.5,0 12.6,3.24 5.16,3.18 7.68,8.58 2.52,5.4 2.52,12 0,6.6 -2.52,12.06 -2.52,5.4 -7.68,8.64 -5.1,3.24 -12.6,3.24 z m 0,-9.6 q 5.34,0 8.4,-3.84 3.06,-3.9 3.06,-10.5 0,-6.54 -3.06,-10.38 -3.06,-3.84 -8.4,-3.84 -5.34,0 -8.46,3.84 -3.06,3.84 -3.06,10.38 0,6.6 3.06,10.5 3.12,3.84 8.46,3.84 z" />
      <path
         id="path36"
         style="font-family:'Open Sauce One Black';letter-spacing:0.075em"
         d="m 487.99703,100 h -11.34 l -6.66,-17.64 h -8.7 V 100 h -10.74 V 54.22 h 21.6 q 6.72,0 10.56,3.36 3.9,3.3 3.9,10.44 0,4.26 -1.74,7.44 -1.74,3.18 -4.8,4.92 z m -26.7,-36.18 v 9.24 h 9.36 q 5.34,0 5.34,-4.68 0,-2.22 -1.38,-3.36 -1.32,-1.2 -3.96,-1.2 z" />
      <path
         id="path38"
         style="font-family:'Open Sauce One Black';letter-spacing:0.075em"
         d="m 505.51609,100 h -11.4 l 15.66,-45.78 h 11.64 l 15.66,45.78 h -11.4 l -2.46,-8.22 h -15.24 z m 10.08,-33.84 -4.8,16.32 h 9.6 z" />
      <path
         id="path40"
         style="font-family:'Open Sauce One Black';letter-spacing:0.075em"
         d="m 556.07828,100 h -10.74 V 54.22 h 10.92 l 17.58,27.78 V 54.22 h 10.74 V 100 h -10.92 l -17.58,-27.96 z" />
      <path
         id="path42"
         style="font-family:'Open Sauce One Black';letter-spacing:0.075em"
         d="m 627.50453,100 h -31.26 V 54.22 h 31.26 v 9.6 h -20.52 v 8.52 h 18.54 v 9.54 h -18.54 v 8.52 h 20.52 z" />
      <path
         id="path44"
         style="font-family:'Open Sauce One Black';letter-spacing:0.075em"
         d="m 646.04734,100 h -11.4 l 15.66,-45.78 h 11.64 l 15.66,45.78 h -11.4 l -2.46,-8.22 h -15.24 z m 10.08,-33.84 -4.8,16.32 h 9.6 z" />
    </g>
  </g>
</svg>
