<?xml version="1.0" encoding="UTF-8" standalone="no"?>
<svg
   xmlns:dc="http://purl.org/dc/elements/1.1/"
   xmlns:cc="http://creativecommons.org/ns#"
   xmlns:rdf="http://www.w3.org/1999/02/22-rdf-syntax-ns#"
   xmlns:svg="http://www.w3.org/2000/svg"
   xmlns="http://www.w3.org/2000/svg"
   id="svg16"
   width="800px"
   version="1.1"
   height="200px">
  <metadata
     id="metadata20">
    <rdf:RDF>
      <cc:Work
         rdf:about="">
        <dc:format>image/svg+xml</dc:format>
        <dc:type
           rdf:resource="http://purl.org/dc/dcmitype/StillImage" />
      </cc:Work>
    </rdf:RDF>
  </metadata>
  <defs
     id="defs4">
    <style
       id="style2"
       type="text/css"><![CDATA[    
     @font-face {font-family:Open Sauce One Black;
     src: url('/Users/francesco/Repos/write-logos/src/fonts/Fonts_E_TEMPORANEA/OpenSauceOne-Black.ttf');}
     @font-face {font-family:Capsule3;
     src: url('/Users/francesco/Repos/write-logos/src/fonts/Fonts_X/capsule3.ttf');}
     ]]></style>
  </defs>
  <g
     id="g14"
     style="font-size:60px">
    <g
       style="text-anchor:middle"
       id="text12"
       aria-label="EXTEMPORANEA">
      <path
         id="path22"
         style="font-family:'Open Sauce One Black';letter-spacing:0.075em"
         d="m 147.48109,100 h -31.26 V 54.22 h 31.26 v 9.6 h -20.52 v 8.52 h 18.54 v 9.54 h -18.54 v 8.52 h 20.52 z" />
      <path
         id="path24"
         style="font-family:Capsule3;letter-spacing:0.05em"
         d="m 167.28391,53.32 h -6 q -2.82,0 -4.8,1.98 -1.98,1.98 -1.98,4.8 0,2.82 1.98,4.86 1.98,1.98 4.8,1.98 h 6 q 2.82,0 4.8,-1.98 1.98,-2.04 1.98,-4.86 0,-2.82 -1.98,-4.8 -1.98,-1.98 -4.8,-1.98 z m 25.56,16.62 h -25.56 q -2.82,0 -4.8,2.04 -1.98,1.98 -1.98,4.8 0,2.82 1.98,4.8 1.98,1.98 4.8,1.98 h 25.56 q 2.82,0 4.8,-1.98 2.04,-1.98 2.04,-4.8 0,-2.82 -2.04,-4.8 -1.98,-2.04 -4.8,-2.04 z m 6,-16.62 h -6 q -2.82,0 -4.8,1.98 -1.98,1.98 -1.98,4.8 0,2.82 1.98,4.86 1.98,1.98 4.8,1.98 h 6 q 2.82,0 4.8,-1.98 1.98,-2.04 1.98,-4.86 0,-2.82 -1.98,-4.8 -1.98,-1.98 -4.8,-1.98 z m -31.56,33.06 h -6 q -2.82,0 -4.8,2.04 -1.98,1.98 -1.98,4.8 0,2.82 1.98,4.8 1.98,1.98 4.8,1.98 h 6 q 2.82,0 4.8,-1.98 1.98,-1.98 1.98,-4.8 0,-2.82 -1.98,-4.8 -1.98,-2.04 -4.8,-2.04 z m 31.56,0 h -6 q -2.82,0 -4.8,2.04 -1.98,1.98 -1.98,4.8 0,2.82 1.98,4.8 1.98,1.98 4.8,1.98 h 6 q 2.82,0 4.8,-1.98 1.98,-1.98 1.98,-4.8 0,-2.82 -1.98,-4.8 -1.98,-2.04 -4.8,-2.04 z" />
      <path
         id="path26"
         style="font-family:'Open Sauce One Black';letter-spacing:0.075em"
         d="m 235.76453,100 h -10.74 V 63.82 h -12.9 v -9.6 h 36.54 v 9.6 h -12.9 z" />
      <path
         id="path28"
         style="font-family:'Open Sauce One Black';letter-spacing:0.075em"
         d="m 288.50453,100 h -31.26 V 54.22 h 31.26 v 9.6 h -20.52 v 8.52 h 18.54 v 9.54 h -18.54 v 8.52 h 20.52 z" />
      <path
         id="path30"
         style="font-family:'Open Sauce One Black';letter-spacing:0.075em"
         d="m 309.86734,100 h -10.74 V 54.22 h 17.28 l 7.56,32.94 7.5,-32.94 h 17.34 V 100 h -10.74 V 62.8 l -8.88,37.2 h -10.44 l -8.88,-36.96 z" />
      <path
         id="path32"
         style="font-family:'Open Sauce One Black';letter-spacing:0.075em"
         d="M 360.58047,100 V 54.22 h 21.6 q 6.72,0 10.56,3.36 3.9,3.3 3.9,10.44 0,4.44 -1.86,7.68 -1.8,3.24 -5.1,4.98 -3.3,1.68 -7.5,1.68 h -10.86 V 100 Z m 20.1,-26.94 q 5.34,0 5.34,-4.68 0,-2.22 -1.38,-3.36 -1.32,-1.2 -3.96,-1.2 h -9.36 v 9.24 z" />
      <path
         id="path34"
         style="font-family:'Open Sauce One Black';letter-spacing:0.075em"
         d="m 427.27609,101.02 q -7.5,0 -12.66,-3.24 -5.16,-3.24 -7.68,-8.64 -2.52,-5.46 -2.52,-12.06 0,-6.6 2.52,-12 2.52,-5.4 7.62,-8.58 5.16,-3.24 12.72,-3.24 7.5,0 12.6,3.24 5.16,3.18 7.68,8.58 2.52,5.4 2.52,12 0,6.6 -2.52,12.06 -2.52,5.4 -7.68,8.64 -5.1,3.24 -12.6,3.24 z m 0,-9.6 q 5.34,0 8.4,-3.84 3.06,-3.9 3.06,-10.5 0,-6.54 -3.06,-10.38 -3.06,-3.84 -8.4,-3.84 -5.34,0 -8.46,3.84 -3.06,3.84 -3.06,10.38 0,6.6 3.06,10.5 3.12,3.84 8.46,3.84 z" />
      <path
         id="path36"
         style="font-family:'Open Sauce One Black';letter-spacing:0.075em"
         d="m 497.60641,100 h -11.34 l -6.66,-17.64 h -8.7 V 100 h -10.74 V 54.22 h 21.6 q 6.72,0 10.56,3.36 3.9,3.3 3.9,10.44 0,4.26 -1.74,7.44 -1.74,3.18 -4.8,4.92 z m -26.7,-36.18 v 9.24 h 9.36 q 5.34,0 5.34,-4.68 0,-2.22 -1.38,-3.36 -1.32,-1.2 -3.96,-1.2 z" />
      <path
         id="path38"
         style="font-family:'Open Sauce One Black';letter-spacing:0.075em"
         d="m 515.12547,100 h -11.4 l 15.66,-45.78 h 11.64 l 15.66,45.78 h -11.4 l -2.46,-8.22 h -15.24 z m 10.08,-33.84 -4.8,16.32 h 9.6 z" />
      <path
         id="path40"
         style="font-family:'Open Sauce One Black';letter-spacing:0.075em"
         d="m 565.68766,100 h -10.74 V 54.22 h 10.92 l 17.58,27.78 V 54.22 h 10.74 V 100 h -10.92 l -17.58,-27.96 z" />
      <path
         id="path42"
         style="font-family:'Open Sauce One Black';letter-spacing:0.075em"
         d="m 637.11391,100 h -31.26 V 54.22 h 31.26 v 9.6 h -20.52 v 8.52 h 18.54 v 9.54 h -18.54 v 8.52 h 20.52 z" />
      <path
         id="path44"
         style="font-family:'Open Sauce One Black';letter-spacing:0.075em"
         d="m 655.65672,100 h -11.4 l 15.66,-45.78 h 11.64 l 15.66,45.78 h -11.4 l -2.46,-8.22 h -15.24 z m 10.08,-33.84 -4.8,16.32 h 9.6 z" />
    </g>
  </g>
</svg>
