<?xml version="1.0" encoding="UTF-8" standalone="no"?>
<svg
   xmlns:dc="http://purl.org/dc/elements/1.1/"
   xmlns:cc="http://creativecommons.org/ns#"
   xmlns:rdf="http://www.w3.org/1999/02/22-rdf-syntax-ns#"
   xmlns:svg="http://www.w3.org/2000/svg"
   xmlns="http://www.w3.org/2000/svg"
   id="svg16"
   width="800px"
   version="1.1"
   height="200px">
  <metadata
     id="metadata20">
    <rdf:RDF>
      <cc:Work
         rdf:about="">
        <dc:format>image/svg+xml</dc:format>
        <dc:type
           rdf:resource="http://purl.org/dc/dcmitype/StillImage" />
      </cc:Work>
    </rdf:RDF>
  </metadata>
  <defs
     id="defs4">
    <style
       id="style2"
       type="text/css"><![CDATA[    
     @font-face {font-family:Open Sauce One Black;
     src: url('/Users/francesco/Repos/write-logos/src/fonts/Fonts_E_TEMPORANEA/OpenSauceOne-Black.ttf');}
     @font-face {font-family:lift me up;
     src: url('/Users/francesco/Repos/write-logos/src/fonts/Fonts_X/liftmeup.ttf');}
     ]]></style>
  </defs>
  <g
     id="g14"
     style="font-size:60px">
    <g
       style="text-anchor:middle"
       id="text12"
       aria-label="EXTEMPORANEA">
      <path
         id="path22"
         style="font-family:'Open Sauce One Black';letter-spacing:0.075em"
         d="M 147.18813,100 H 115.92812 V 54.22 h 31.26001 v 9.6 h -20.52 v 8.52 h 18.53999 v 9.54 h -18.53999 v 8.52 h 20.52 z" />
      <path
         id="path24"
         style="font-family:'lift me up';letter-spacing:0.05em"
         d="m 163.81094,53.26 12.6,16.98 -0.84,1.14 -13.5,-18.12 z m 16.02,21.6 3,-4.08 0.84,1.14 -3,3.96 3,4.08 -0.84,1.14 -3,-4.14 -2.64,3.54 -0.78,-1.08 2.58,-3.54 -2.58,-3.42 0.84,-1.08 z m 16.86,25.08 -13.02,-17.76 0.84,-1.08 13.86,18.84 z m -35.58,0 14.46,-19.38 0.78,1.02 -13.62,18.36 z m 36.48,-46.68 -13.08,17.52 -0.84,-1.08 12.24,-16.44 z m 6.84,46.68 -16.92,-22.98 -3,4.14 -0.84,-1.14 3,-4.08 -3,-3.96 0.84,-1.14 3,4.08 16.14,-21.6 h 1.62 l -16.86,22.62 17.64,24.06 z m -24.18,-15.3 2.58,-3.54 0.84,1.08 -2.64,3.54 z m 2.58,-13.86 -2.58,-3.48 0.84,-1.14 2.58,3.54 z m -11.28,-17.52 8.7,11.76 -0.84,1.14 -9.6,-12.9 z m -2.7,46.68 10.56,-14.22 0.78,1.14 -9.72,13.08 z m 8.34,-19.44 3.06,4.14 -0.84,1.08 -3.06,-4.14 z m 3.06,-13.2 -3,4.08 -0.84,-1.14 3,-4.08 z m -6.42,8.58 2.58,3.54 -0.84,1.14 -2.64,-3.6 -17.04,22.98 h -1.62 l 17.82,-24.06 -16.92,-22.62 h 1.74 l 16.02,21.6 2.64,-3.48 0.84,1.08 z m 16.02,24.06 -9.66,-13.08 0.84,-1.14 10.44,14.22 z m 0.84,-46.68 -9.6,12.9 -0.84,-1.14 8.82,-11.76 z" />
      <path
         id="path26"
         style="font-family:'Open Sauce One Black';letter-spacing:0.075em"
         d="m 236.0575,100 h -10.74 V 63.82 h -12.9 v -9.6 h 36.54 v 9.6 h -12.9 z" />
      <path
         id="path28"
         style="font-family:'Open Sauce One Black';letter-spacing:0.075em"
         d="m 288.7975,100 h -31.26 V 54.22 h 31.26 v 9.6 h -20.52 v 8.52 h 18.54 v 9.54 h -18.54 v 8.52 h 20.52 z" />
      <path
         id="path30"
         style="font-family:'Open Sauce One Black';letter-spacing:0.075em"
         d="m 310.16031,100 h -10.74 V 54.22 h 17.28 l 7.56,32.94 7.5,-32.94 h 17.34 V 100 h -10.74 V 62.8 l -8.88,37.2 h -10.44 l -8.88,-36.96 z" />
      <path
         id="path32"
         style="font-family:'Open Sauce One Black';letter-spacing:0.075em"
         d="M 360.87344,100 V 54.22 h 21.6 q 6.72,0 10.56,3.36 3.9,3.3 3.9,10.44 0,4.44 -1.86,7.68 -1.8,3.24 -5.1,4.98 -3.3,1.68 -7.5,1.68 h -10.86 V 100 Z m 20.1,-26.94 q 5.34,0 5.34,-4.68 0,-2.22 -1.38,-3.36 -1.32,-1.2 -3.96,-1.2 h -9.36 v 9.24 z" />
      <path
         id="path34"
         style="font-family:'Open Sauce One Black';letter-spacing:0.075em"
         d="m 427.56906,101.02 q -7.5,0 -12.66,-3.24 -5.16,-3.24 -7.68,-8.64 -2.52,-5.46 -2.52,-12.06 0,-6.6 2.52,-12 2.52,-5.4 7.62,-8.58 5.16,-3.24 12.72,-3.24 7.5,0 12.6,3.24 5.16,3.18 7.68,8.58 2.52,5.4 2.52,12 0,6.6 -2.52,12.06 -2.52,5.4 -7.68,8.64 -5.1,3.24 -12.6,3.24 z m 0,-9.6 q 5.34,0 8.4,-3.84 3.06,-3.9 3.06,-10.5 0,-6.54 -3.06,-10.38 -3.06,-3.84 -8.4,-3.84 -5.34,0 -8.46,3.84 -3.06,3.84 -3.06,10.38 0,6.6 3.06,10.5 3.12,3.84 8.46,3.84 z" />
      <path
         id="path36"
         style="font-family:'Open Sauce One Black';letter-spacing:0.075em"
         d="m 497.89938,100 h -11.34001 l -6.65999,-17.64 h -8.70001 V 100 H 460.45938 V 54.22 h 21.59999 q 6.72001,0 10.56,3.36 3.90001,3.3 3.90001,10.44 0,4.26 -1.74,7.44 -1.74001,3.18 -4.80001,4.92 z M 471.19937,63.82 v 9.24 h 9.36 q 5.34001,0 5.34001,-4.68 0,-2.22 -1.38,-3.36 -1.32001,-1.2 -3.96001,-1.2 z" />
      <path
         id="path38"
         style="font-family:'Open Sauce One Black';letter-spacing:0.075em"
         d="m 515.41844,100 h -11.4 l 15.66,-45.78 h 11.64 l 15.66,45.78 h -11.4 l -2.46,-8.22 h -15.24 z m 10.08,-33.84 -4.8,16.32 h 9.6 z" />
      <path
         id="path40"
         style="font-family:'Open Sauce One Black';letter-spacing:0.075em"
         d="m 565.98063,100 h -10.74 V 54.22 h 10.91999 L 583.74063,82 V 54.22 h 10.74 V 100 H 583.56062 L 565.98063,72.04 Z" />
      <path
         id="path42"
         style="font-family:'Open Sauce One Black';letter-spacing:0.075em"
         d="m 637.40688,100 h -31.26 V 54.22 h 31.26 v 9.6 h -20.52 v 8.52 h 18.53999 v 9.54 h -18.53999 v 8.52 h 20.52 z" />
      <path
         id="path44"
         style="font-family:'Open Sauce One Black';letter-spacing:0.075em"
         d="m 655.94969,100 h -11.4 l 15.66,-45.78 h 11.64 l 15.66,45.78 h -11.4 l -2.46,-8.22 h -15.24 z m 10.08,-33.84 -4.8,16.32 h 9.6 z" />
    </g>
  </g>
</svg>
