<?xml version="1.0" encoding="UTF-8" standalone="no"?>
<svg
   xmlns:dc="http://purl.org/dc/elements/1.1/"
   xmlns:cc="http://creativecommons.org/ns#"
   xmlns:rdf="http://www.w3.org/1999/02/22-rdf-syntax-ns#"
   xmlns:svg="http://www.w3.org/2000/svg"
   xmlns="http://www.w3.org/2000/svg"
   id="svg16"
   width="800px"
   version="1.1"
   height="200px">
  <metadata
     id="metadata20">
    <rdf:RDF>
      <cc:Work
         rdf:about="">
        <dc:format>image/svg+xml</dc:format>
        <dc:type
           rdf:resource="http://purl.org/dc/dcmitype/StillImage" />
      </cc:Work>
    </rdf:RDF>
  </metadata>
  <defs
     id="defs4">
    <style
       id="style2"
       type="text/css"><![CDATA[    
     @font-face {font-family:Open Sauce One Black;
     src: url('/Users/francesco/Repos/write-logos/src/fonts/Fonts_E_TEMPORANEA/OpenSauceOne-Black.ttf');}
     @font-face {font-family:MADE Soulmaze Brush;
     src: url('/Users/francesco/Repos/write-logos/src/fonts/Fonts_X/SoulmazeBrush.otf');}
     ]]></style>
  </defs>
  <g
     id="g14"
     style="font-size:60px">
    <g
       style="text-anchor:middle"
       id="text12"
       aria-label="EXTEMPORANEA">
      <path
         id="path22"
         style="font-family:'Open Sauce One Black';letter-spacing:0.075em"
         d="m 159.49281,100 h -31.26 V 54.22 h 31.26 v 9.6 h -20.52 v 8.52 h 18.54 v 9.54 h -18.54 v 8.52 h 20.52 z" />
      <path
         id="path24"
         style="font-family:'MADE Soulmaze Brush';letter-spacing:0.05em"
         d="m 174.25562,66.28 c -0.06,-0.06 -0.06,-0.06 -0.06,-0.06 0,0 0.06,0 0.06,0.06 0.06,0.06 0,0.18 0.06,0.24 0.06,0.36 0.18,0.66 0.18,1.02 0.06,0.36 0.12,0.66 0.18,0.96 0.06,0.6 0.18,1.14 0.3,1.68 0.12,0.48 0.18,1.02 0.36,1.56 0.06,0.18 0,0.42 0.06,0.6 0.12,0.24 0.18,0.48 0.12,0.78 0.12,0.24 0.24,0.42 0.24,0.66 0,0.12 0.06,0.18 0.12001,0.24 0,0.3 -0.12001,0.66 0.11999,0.9 0,0.24 0.06,0.48 0.18,0.66 -0.06,0.12 -0.12,0.18 -0.18,0.3 -0.11999,0.12 -0.24,0.24 -0.3,0.36 -0.06,0.18 -0.24,0.36 -0.42,0.54 -0.12,0.24 -0.36,0.42 -0.54,0.6 -0.12,0.18 -0.3,0.36 -0.48,0.54 -0.24,0.24 -0.42,0.42 -0.6,0.72 -0.12,0.18 -0.24,0.36 -0.42,0.54 -0.24,0.3 -0.42,0.6 -0.6,0.9 -0.06,0.06 -0.18,0.18 -0.24,0.24 -0.36,0.36 -0.78,0.72 -1.01999,1.2 -0.06,0.06 -0.06,0.12 -0.12001,0.12 -0.24,0.3 -0.42,0.54 -0.66,0.78 -0.12,0.24 -0.3,0.42 -0.42,0.66 -0.29999,0.42 -0.6,0.84 -0.84,1.26 -0.24,0.42 -0.48,0.78 -0.84,1.14 -0.3,0.3 -0.54,0.66 -0.66,1.02 -0.06,0.24 -0.24,0.42 -0.48,0.54 -0.3,0.24 -0.54,0.48 -0.72,0.78 -0.12,0.24 -0.24,0.48 -0.42,0.66 0,0.06 0,0.18 -0.06,0.24 -0.06,0.12 -0.12,0.3 -0.24,0.42 -0.3,0.36 -0.53999,0.84 -0.78,1.26 -0.18,0.36 -0.42,0.6 -0.54,0.96 -0.12,0.18 -0.24,0.36 -0.24,0.6 -0.06,0.12 -0.12,0.18 -0.18,0.3 -0.18,0.36 -0.29999,0.78 -0.54,1.02 -0.06,0.06 -0.06,0.06 -0.06,0.06 -0.18,0.36 -0.3,0.78 -0.6,1.14 0.12,0.18 -0.06,0.3 0,0.48 0.12,0 0.18,0 0.3,0 0.06,0.36 -0.18,0.6 -0.3,0.9 0,0.06 0,0.12 0,0.12 0,0.06 0,0.12 0,0.18 -0.06,0.18 -0.06,0.18 0,0.48 0.24,-0.18 0.36,-0.54 0.6,-0.72 0.30001,0.24 0.06,0.48 0.06,0.72 0,0.06 0.06,0.12 0.12,0.18 -0.06,0.12 -0.06,0.18 -0.06,0.3 -0.12,0.12 -0.18,0.18 -0.24,0.3 -0.06,0.12 -0.18,0.24 -0.18,0.42 0,0.24 -0.06,0.42 -0.18,0.6 -0.12,0.24 -0.18,0.48 -0.12,0.72 0.36,-0.24 0.54,-0.66 0.90001,-0.84 0.06,0 0.17999,0.06 0.29999,0 0.3,-0.3 0.48,-0.78 0.78,-1.2 0.06,0 0.12,-0.06 0.18,-0.12 0,0 0.06,0 0.06,0 0,-0.06 0,-0.06 0.06,-0.12 0,0.06 -0.06,0.06 -0.06,0.12 0,0 0,0 -0.06,0 -0.06,0.18 -0.18,0.36 -0.18,0.54 0.18,-0.12 0.3,-0.3 0.48,-0.42 0.12,0 0.18,-0.06 0.24,-0.18 0.24,-0.24 0.42,-0.48 0.6,-0.72 0.36,-0.42 0.66,-0.84 1.02,-1.2 0.18,-0.18 0.36,-0.36 0.54,-0.54 0.12,-0.12 0.24,-0.24 0.42,-0.3 0.06,-0.24 0.06,-0.24 0.3,-0.3 0.06,-0.06 0.06,-0.18 0.18,-0.3 0.06,-0.06 0.18,-0.06 0.3,-0.18 0.06,0 -0.06,-0.12 0,-0.18 0.3,0.06 0.36,-0.24 0.54,-0.3 0.06,-0.06 0,-0.12 0.06,-0.18 0,0 0.06,0 0.12,0 0.24,-0.18 0.36,-0.48 0.6,-0.66 0,-0.06 -0.12,0 -0.12,-0.12 0.06,0 0.06,-0.06 0.12,-0.06 0.06,0.06 0.06,0.12 0.12,0.12 0.18,-0.12 0.3,-0.3 0.36,-0.54 0,-0.06 0.06,-0.12 0.18,-0.12 0.06,-0.06 0.12,0 0.12,-0.06 0.18,-0.18 0.36,-0.36 0.54,-0.48 0.24,-0.36 0.36,-0.66 0.84,-0.72 0.06,-0.18 0.3,-0.3 0.42,-0.48 0.06,-0.06 0.18,-0.18 0.24,-0.18 0.12,0 0.18,-0.06 0.24,-0.06 0.18,-0.12 0.36,-0.24 0.42,-0.48 0.06,-0.06 0.06,-0.06 0.12,-0.06 0,-0.06 -0.06,-0.12 0,-0.12 0.06,-0.06 0.12,-0.18 0.24,-0.18 0.06,0.12 0.06,0.24 0.06,0.36 0.12001,0 0.18,-0.06 0.24,-0.12 0.12,-0.12 0.3,-0.24 0.48,-0.3 0.12,-0.06 0.24,-0.12 0.36,-0.24 0.18,-0.18 0.42,-0.42 0.66,-0.6 0.24,-0.18 0.42,-0.36 0.66,-0.48 0.06,-0.12 0.06,-0.3 0.12,-0.42 0.18,-0.18 0.36,-0.36 0.48,-0.54 0.42,-0.06 0.72,-0.3 1.08,-0.6 0.06,0.18 0.18,0.36 0.36,0.48 0.06,0.06 0.06,0.18 0.06,0.24 0,0.24 0,0.54 0.12001,0.72 0.17999,0.42 0.35999,0.9 0.53999,1.32 0.12,0.3 0.24,0.54 0.24,0.84 0,0.06 0.06,0.06 0.12,0.06 0.06,0.3 0.12,0.66 0.24,0.96 0.12,0.42 0.18,0.9 0.3,1.32 0.06,0.12 0.12,0.18 0.18,0.24 -0.06,0.12 0,0.24 0,0.3 0.06,0.18 0.18,0.36 0.12,0.54 0,0.18 0.06,0.3 0.18,0.42 0,0.12 0.06,0.24 0.06,0.36 0.06,0.36 0.18,0.66 0.24,1.02 0.06,0.3 0.12,0.54 0.24,0.84 0.06,0.36 0.12,0.72 0.24,1.08 0.12,0.3 0.12,0.6 0.24,0.9 0.12,0.42 0.24,0.9 0.3,1.32 0.06,0.06 0.06,0.12 0.06,0.18 -0.06,0.24 0.06,0.42 0.12,0.66 0.06,0.24 0.06,0.42 0.12,0.6 0.12,0.3 0.12,0.6 0.24,0.84 0.06,0.18 0.12,0.3 0.12,0.48 0,0.06 0.06,0.12 0.06,0.18 0.06,0.18 0.12,0.42 0.24,0.6 0.12,0.42 0.24,0.84 0.42,1.26 0.06,0.24 0.24,0.42 0.3,0.72 0.06,0.18 0.12,0.42 0.24,0.66 0.12,0.06 0.18,0.12 0.36,0.18 -0.18,-0.3 -0.24,-0.6 -0.3,-0.96 0,0.06 0.06,0.12 0.06,0.18 0.06,0.24 0.18,0.42 0.36,0.54 0.06,0.06 0.12,0.12 0.12,0.24 0.12,0.3 0.36,0.6 0.48,0.96 0,0.06 0,0.12 0.06,0.18 0.24,0.12 0.42,0.36 0.66,0.48 0.12,-0.06 0.12,-0.18 0.06,-0.24 -0.12,-0.24 -0.3,-0.54 -0.42,-0.78 -0.24,-0.3 -0.42,-0.6 -0.48,-0.96 -0.06,-0.12 -0.06,-0.24 -0.18,-0.36 -0.06,-0.06 -0.06,-0.12 -0.06,-0.18 -0.06,-0.06 -0.18,-0.06 -0.18,-0.24 0,0 0.06,0 0.12,0 0,0.06 0.12,0.06 0.12,0.12 0.06,0.36 0.3,0.66 0.42,0.96 0,0.06 0.06,0.06 0.06,0.12 0.12,0.24 0.36,0.36 0.42,0.6 0.24,0.48 0.6,0.84 0.84,1.26 0.12,0.24 0.3,0.48 0.54,0.72 0.18,0 0.36,0.12 0.42,0.3 0.12,0.12 0.24,0.18 0.36001,0.18 0.11999,0.06 0.11999,0.12 0.17999,0.12 0.18,0 0.3,-0.06 0.36,-0.12 0.12,-0.06 0.12,0.06 0.18,0 -0.06,-0.18 -0.12,-0.36 -0.18,-0.48 0,-0.12 0.12,-0.18 0.12,-0.24 -0.24,-0.42 -0.6,-0.84 -0.65999,-1.38 0.11999,0 0.23999,0.12 0.35999,0 0.06,-0.06 0,-0.18 0.06,-0.24 0.24,0.06 0.06,0.36 0.3,0.48 0,0.18 0.06,0.42 0.18,0.54 0.06,0.12 0.12,0.24 0.12,0.36 0.06,0.48 0.24,0.84 0.36,1.26 0.06,0.12 0.18001,0.18 0.3,0.24 -0.06,-0.24 -0.24,-0.36 -0.24,-0.54 -0.06,-0.24 -0.18,-0.42 -0.12,-0.66 0.12,0.12 0.24001,0.24 0.36,0.36 0.06,-0.06 0.06,-0.18 0.18,-0.18 0.18,0.12 0.36,0.3 0.48,0.48 0.18,-0.06 0.3,-0.18 0.48,-0.3 0,-0.24 0,-0.48 -0.12,-0.72 -0.12,-0.24 -0.18,-0.54 -0.3,-0.78 -0.12,-0.18 -0.12,-0.36 -0.12,-0.54 0,-0.06 0.06,-0.12 0,-0.18 -0.06,-0.24 0,-0.54 0,-0.84 0.06,-0.06 0,-0.12 0,-0.18 -0.12,-0.36 -0.3,-0.66 -0.18,-1.02 0,-0.06 -0.06,-0.06 -0.06,-0.12 0,-0.24 -0.06,-0.42 0.06,-0.66 0.06,-0.12 0,-0.3 -0.06,-0.48 -0.12,-0.24 -0.24,-0.54 -0.24,-0.84 -0.12,-0.48 -0.12,-0.9 -0.18,-1.38 0,-0.3 0,-0.54 -0.11999,-0.84 0,-0.12 -0.06,-0.24 0,-0.36 -0.06,-0.12 -0.06,-0.24 -0.06,-0.36 0,-0.18 -0.06,-0.3 -0.12,-0.48 0,-0.06 0,-0.12 0,-0.18 0,-0.24 -0.06,-0.48 -0.12,-0.72 0,-0.3 -0.06,-0.54 -0.06,-0.78 -0.06,-0.3 -0.06,-0.6 -0.24,-0.84 0,-0.06 0,-0.12 0,-0.18 0,-0.24 -0.12,-0.48 -0.12,-0.72 0.06,-0.24 -0.18,-0.48 -0.12,-0.72 0.06,-0.12 -0.06,-0.18 -0.06,-0.3 0,-0.18 0,-0.36 0,-0.6 0,0 -0.06,-0.06 -0.12,-0.06 -0.06,0 0,0.12 -0.06,0.12 -0.36,-1.5 -0.6,-3.06 -0.9,-4.56 0.06,0.3 0.18,0.6 0.3,0.96 0.06,-0.12 0.06,-0.18 0.06,-0.18 -0.12,-0.36 -0.18,-0.66 -0.24,-1.02 0,-0.36 -0.12,-0.66 -0.18,-1.02 0,-0.24 -0.06,-0.48 -0.3,-0.66 0,-0.12 -0.06,-0.24 -0.06,-0.36 0,-0.24 -0.12,-0.48 -0.06,-0.66 0.06,-0.18 0.06,-0.36 -0.06,-0.54 -0.06,-0.06 -0.12,0 -0.18,-0.06 -0.06,-0.24 -0.18,-0.48 -0.18,-0.84 0.18,0.24 0.12,0.48 0.3,0.72 0.06,-0.12 0,-0.18 0,-0.3 -0.06,-0.24 -0.18,-0.54 -0.18,-0.78 0,-0.24 -0.06,-0.48 -0.12,-0.72 -0.11999,-0.24 -0.18,-0.54 -0.36,-0.78 -0.06,-0.18 -0.12,-0.36 -0.12,-0.54 0,-0.18 0,-0.36 -0.06,-0.54 -0.06,-0.3 -0.06,-0.6 0,-0.84 0,-0.12 -0.12,-0.18 -0.06,-0.3 -0.06,-0.06 -0.12,0.06 -0.12,0 -0.12,-0.12 -0.06,-0.24 0,-0.36 -0.18,-0.12 -0.24,-0.24 -0.18,-0.42 0.06,-0.06 0.12,-0.12 0.12,-0.12 0,-0.06 0,-0.12 0,-0.12 0,-0.06 0.06,-0.06 0.12,-0.12 0.12,-0.24 0.3,-0.42 0.54001,-0.54 0.06,-0.06 0.11999,-0.12 0.11999,-0.18 0.12,-0.18 0.24,-0.24 0.36,-0.36 0.18,-0.12 0.36,-0.24 0.48,-0.42 0.06,-0.18 0.12,-0.3 0.24,-0.36 0.18,-0.06 0.24,-0.24 0.42,-0.24 0,0 0,0 0,0 -0.06,-0.18 0.06,-0.24 0.12,-0.24 0.12,-0.06 0.18,-0.12 0.24,-0.18 0.18,-0.18 0.36,-0.42 0.6,-0.48 0.06,-0.12 0.06,-0.24 0.12,-0.3 0.06,-0.06 0.18,-0.12 0.24,-0.12 0.06,-0.06 0.06,-0.18 0.12001,-0.24 0.23999,-0.18 0.35999,-0.42 0.59999,-0.6 0.06,-0.06 0.12,-0.12 0.18,-0.18 0.24,-0.3 0.6,-0.54 0.78,-0.9 0,0 0,0 0,0 0.18,-0.18 0.36,-0.3 0.48,-0.48 0.18,-0.18 0.36,-0.42 0.48,-0.66 0.06,-0.12 0.12,-0.18 0.24,-0.3 0.06,-0.06 0.18001,-0.12 0.24,-0.24 0.06,-0.06 0.12,-0.18 0.18,-0.24 0.12,-0.06 0.24,-0.18 0.36,-0.3 0.18,-0.3 0.42,-0.54 0.66,-0.78 0.12,-0.12 0.24001,-0.24 0.30001,-0.3 0.23999,-0.24 0.35999,-0.54 0.59999,-0.72 0.18,-0.18 0.36,-0.42 0.48,-0.66 0.12,-0.18 0.18,-0.3 0.3,-0.42 0.24,-0.18 0.36,-0.42 0.54,-0.66 0.18,-0.3 0.48,-0.6 0.66,-0.9 0.06,-0.12 0.18,-0.18 0.24,-0.24 0.3,-0.18 0.6,-0.42 0.84,-0.66 0.06,-0.06 0.12,-0.18 0.24,-0.24 0.18,-0.06 0.36,-0.24 0.48,-0.36 0.12001,-0.06 0.18,-0.18 0.24,-0.24 0.12,-0.42 0.42,-0.78 0.66,-1.14 0.12,-0.12 0.24,-0.24 0.36,-0.42 0.12,-0.18 0.24,-0.3 0.36001,-0.42 0.35999,-0.24 0.71999,-0.48 0.89999,-0.9 0.18,-0.36 0.42,-0.78 0.6,-1.14 0,-0.06 0,-0.18 0,-0.24 -0.06,-0.06 -0.06,-0.06 -0.06,-0.12 -0.18001,-0.36 -0.60001,-0.6 -0.60001,-1.02 -0.06,-0.06 -0.12,0 -0.18,-0.06 0.06,-0.06 0.06,-0.12 0,-0.24 -0.06,-0.06 -0.12,-0.18 -0.12,-0.24 -0.06,-0.3 -0.24,-0.48 -0.53999,-0.6 -0.30001,-0.18 -0.66001,-0.36 -1.08001,-0.48 -0.12,-0.06 -0.18,-0.12 -0.3,-0.18 -0.17999,-0.12 -0.36,-0.24 -0.54,-0.3 -0.12,0 -0.3,0 -0.42,-0.06 -0.42,0.3 -0.71999,0.12 -0.96,-0.24 -0.36,0.12 -0.6,0.3 -0.9,0.48 -0.12,0 -0.12,-0.12 -0.18,-0.12 -0.12,0.12 -0.24,0.18 -0.3,0.3 -0.12,0 -0.18,-0.06 -0.24,0 -0.06,0.18 -0.24,0.3 -0.36,0.42 -0.24,0.18 -0.3,0.42 -0.54,0.6 -0.06,0 -0.06,0 -0.06,0.06 -0.06,0.24 -0.24,0.36 -0.48,0.42 -0.06,0.12 -0.12,0.18 -0.18,0.3 -0.06,0.06 -0.18,0.12 -0.24,0.24 -0.06,0.18 -0.18,0.36 -0.36,0.54 -0.24,0.24 -0.48,0.48 -0.6,0.72 -0.06,0.06 -0.06,0.12 -0.12,0.12 -0.18,0.12 -0.36,0.3 -0.48,0.48 -0.24,0.36 -0.65999,0.66 -0.9,1.02 -0.06,0.12 -0.24,0.18 -0.3,0.3 -0.06,0 -0.18,0.06 -0.18,0.12 0,0.12 -0.06,0.18 -0.12,0.24 -0.24,0.24 -0.48,0.48 -0.78,0.72 -0.12,0.06 -0.24,0.18 -0.3,0.3 0,0.06 -0.06,0.12 -0.12,0.18 -0.18,0.12 -0.36,0.24 -0.48,0.54 -0.18,0 -0.24,0.12 -0.36,0.24 -0.17999,0.18 -0.3,0.36 -0.48,0.48 -0.42,0.42 -0.84,0.84 -1.26,1.2 -0.06,0.12 -0.12,0.18 -0.24,0.24 -0.18,0.12 -0.3,0.3 -0.48,0.42 -0.06,0.06 -0.06,0.12 -0.06,0.24 0,0.12 -0.06,0.24 -0.18,0.3 -0.06,0.06 -0.12,0.12 -0.12,0.24 -0.06,0.06 -0.06,0.12 -0.12,0.18 -0.23999,0.18 -0.42,0.42 -0.66,0.6 -0.12,0.12 -0.3,0.3 -0.48,0.42 -0.12,0.12 -0.18,0.3 -0.36,0.36 -0.12,-0.3 -0.23999,-0.6 -0.23999,-0.9 -0.12001,-0.48 -0.18001,-0.96 -0.30001,-1.44 -0.12,-0.48 -0.18,-0.96 -0.3,-1.38 0,-0.48 -0.12,-0.9 -0.3,-1.32 0,-0.36 -0.06,-0.72 -0.18,-1.02 -0.06,-0.36 -0.12,-0.72 -0.3,-1.08 0,0 0.06,-0.06 0.06,-0.12 -0.06,-0.12 -0.12,-0.3 -0.12,-0.48 -0.06,-0.36 -0.24,-0.72 -0.3,-1.14 -0.06,-0.36 -0.18,-0.66 -0.24,-0.96 -0.12,-0.36 -0.18,-0.72 -0.3,-1.08 -0.06,-0.24 -0.12,-0.54 -0.18,-0.84 -0.06,-0.24 -0.12,-0.48 -0.18,-0.72 0,-0.18 -0.06,-0.36 -0.12,-0.54 -0.06,-0.06 -0.06,-0.12 -0.06,-0.12 0,-0.18 0,-0.36 -0.06,-0.48 0,-0.12 0,-0.24 -0.06,-0.36 -0.24,-0.24 -0.36,-0.54 -0.36,-0.9 -0.06,-0.06 -0.06,-0.12 -0.12,-0.18 -0.24,-0.12 -0.48,-0.24 -0.66,-0.36 -0.24,-0.18 -0.6,-0.24 -0.9,-0.42 0,0 -0.06,0 -0.06,0 -0.3,-0.06 -0.54,-0.12 -0.72,-0.24 -0.36,-0.18 -0.66,-0.24 -1.02,-0.24 -0.48,0 -0.9,-0.12 -1.32,-0.06 0,0 -0.06,0 -0.06,0 -0.24,-0.06 -0.48,0 -0.72,0.06 -0.24,0.12 -0.36,0.24 -0.42,0.48 0,0.18 -0.12,0.3 -0.3,0.42 -0.54,0.36 -0.84,0.9 -1.02,1.5 -0.06,0.42 0,0.84 -0.12,1.2 0,0.06 0,0.06 0,0.06 0.12,0.3 0.12,0.66 0.12,0.96 0,0.12 0,0.18 0,0.3 0.12001,0.3 0.12001,0.66 0.12001,0.96 0,0.06 0,0.18 0,0.24 0.06,0.24 0.06,0.48 0.11999,0.72 0.06,0.3 0.06,0.66 0.06,0.96 0.12,0.66 0.18,1.26 0.3,1.92 0.06,0.3 0.06,0.66 0.12,0.96 0.06,0.54 0.24,1.08 0.24,1.62 0,0.12 0.06,0.3 0.06,0.42 0.12,0.48 0.18,0.96 0.3,1.44 0.06,0.48 0.12,0.96 0.24,1.44 0,0.06 0,0.12 0.06,0.24 0.06,-0.12 0.11999,-0.18 0.11999,-0.24 -0.06,-0.12 0,-0.24 -0.06,-0.3 0.06,-0.06 0.06,0 0.12,-0.06 0.06,-0.48 -0.12,-1.02 -0.12,-1.5 -0.06,-0.06 -0.18,-0.06 -0.24,-0.18 0,-0.06 0,-0.12 0,-0.18 0.06,-0.06 0.12,-0.06 0.12,-0.12 -0.12,-0.36 -0.12,-0.6 -0.06,-0.84 z m 7.44,27.36 c -0.06,-0.06 -0.06,-0.12 -0.06,-0.24 0.12,0.12 0.06,0.18 0.06,0.24 0.06,0.06 0.06,0.12 0.06,0.18 -0.06,-0.06 -0.06,-0.12 -0.06,-0.18 z m 2.76,9.84 c 0.06,0.06 0.12,0.12 0,0.24 0,-0.12 0,-0.18 0,-0.24 -0.06,-0.06 -0.06,-0.12 -0.06,-0.18 0.12,0 0.06,0.12 0.06,0.18 z m -0.72,-2.28 c -0.18,-0.24 -0.24,-0.48 -0.35999,-0.72 -0.06,-0.12 -0.06,-0.24 0.06,-0.36 0.17999,0.36 0.23999,0.72 0.29999,1.08 0.12,0.06 0.06,0.24 0.12,0.36 0.06,0.06 0.06,0.12 0.12,0.18 0.06,0.3 0.18,0.6 0.24,0.9 0.06,0.12 0.06,0.18 0.12,0.24 0,0.06 0.06,0.18 0.06,0.3 -0.3,-0.36 -0.3,-0.78 -0.54,-1.14 0.06,-0.18 -0.06,-0.3 0,-0.48 -0.12,-0.12 -0.12,-0.24 -0.12,-0.36 z m -0.54,-1.32 c 0,-0.12 -0.06,-0.24 0,-0.42 0.06,0.12 0.12,0.24 0.24001,0.3 -0.06,0.06 -0.12001,0.12 -0.24001,0.12 z m 4.44,5.64 c 0,0 0,0.06 0,0.06 0,0.12 -0.12,0.18 -0.06,0.3 -0.18,-0.06 -0.12,-0.18 -0.12,-0.24 0,-0.06 0.06,-0.12 0.18,-0.12 z m -5.04,-8.22 c 0,-0.3 -0.18,-0.48 -0.12,-0.72 0.06,0.24 0.12,0.42 0.18,0.6 0,0 0,0.06 -0.06,0.12 z m 0.36,1.14 c 0,0.06 -0.06,0.06 -0.12,0.06 -0.06,-0.06 0,-0.12 -0.06,-0.18 0.06,-0.06 0.06,-0.06 0.12,-0.06 0.06,0.06 0.06,0.12 0.06,0.18 z m -0.18,-0.48 c -0.06,-0.12 -0.18,-0.3 -0.06,-0.48 0,0.18 0.06,0.3 0.06,0.48 0,0 0,0 0,0 z m 0.3,1.02 c 0.12,0.12 0.06,0.18 0.06,0.3 -0.12,-0.12 -0.12,-0.12 -0.06,-0.3 z m -0.9,-3.42 c -0.06,-0.12 -0.12,-0.24 -0.18,-0.36 0.24,0.12 0.24,0.18 0.18,0.36 z m -0.29999,-1.14 c 0.11999,0.12 0.11999,0.18 0.11999,0.3 -0.18,-0.06 -0.11999,-0.18 -0.11999,-0.3 z m 3.53999,-14.82 c -0.12,-0.06 -0.06,-0.12 -0.06,-0.12 0.06,-0.06 0.06,0 0.06,0.06 0,0 0,0.06 0,0.06 z m -4.38,11.16 c 0.06,0.12 0.12,0.12 0.06,0.24 -0.06,-0.06 -0.06,-0.12 -0.06,-0.24 z m 6.24,-2.7 c 0.06,0.06 0.06,0.06 0.06,0.12 -0.06,0 -0.06,-0.06 -0.06,-0.12 z m -12.89999,0.3 c 0,0.06 0,0.06 -0.06,0.12 0,-0.06 0,-0.12 0.06,-0.12 z m 7.13999,4.5 c 0,0.06 0.06,0.06 0,0.06 0,0 0,0 0,-0.06 z m -8.46,-2.88 c -0.12,0 -0.17999,0 -0.24,0.12 -0.12,0.18 -0.3,0.3 -0.42,0.42 0,0.06 -0.06,0.12 -0.06,0.18 0.12,0 0.12,-0.06 0.18,-0.12 0.12,-0.12 0.18,-0.18 0.3,-0.24 0.12,-0.12 0.18,-0.24 0.24,-0.36 z m 0,0 c 0,0 0,0 0,0 0,0 0,0 0,0 0,0 0,0 0,0 z" />
      <path
         id="path26"
         style="font-family:'Open Sauce One Black';letter-spacing:0.075em"
         d="m 223.75281,100 h -10.74 V 63.82 h -12.9 v -9.6 h 36.54 v 9.6 h -12.9 z" />
      <path
         id="path28"
         style="font-family:'Open Sauce One Black';letter-spacing:0.075em"
         d="m 276.49281,100 h -31.26 V 54.22 h 31.26 v 9.6 h -20.52 v 8.52 h 18.54 v 9.54 h -18.54 v 8.52 h 20.52 z" />
      <path
         id="path30"
         style="font-family:'Open Sauce One Black';letter-spacing:0.075em"
         d="M 297.85562,100 H 287.11563 V 54.22 h 17.27999 l 7.56,32.94 7.5,-32.94 h 17.34 V 100 H 326.05563 V 62.8 l -8.88,37.2 h -10.44 l -8.88001,-36.96 z" />
      <path
         id="path32"
         style="font-family:'Open Sauce One Black';letter-spacing:0.075em"
         d="M 348.56875,100 V 54.22 h 21.6 q 6.72,0 10.56,3.36 3.9,3.3 3.9,10.44 0,4.44 -1.86,7.68 -1.8,3.24 -5.1,4.98 -3.3,1.68 -7.5,1.68 h -10.86 V 100 Z m 20.1,-26.94 q 5.34,0 5.34,-4.68 0,-2.22 -1.38,-3.36 -1.32,-1.2 -3.96,-1.2 h -9.36 v 9.24 z" />
      <path
         id="path34"
         style="font-family:'Open Sauce One Black';letter-spacing:0.075em"
         d="m 415.26437,101.02 q -7.5,0 -12.66,-3.24 -5.16,-3.24 -7.68,-8.64 -2.51999,-5.46 -2.51999,-12.06 0,-6.6 2.51999,-12 2.52,-5.4 7.62,-8.58 5.16001,-3.24 12.72,-3.24 7.5,0 12.6,3.24 5.16001,3.18 7.68,8.58 2.52,5.4 2.52,12 0,6.6 -2.52,12.06 -2.51999,5.4 -7.68,8.64 -5.1,3.24 -12.6,3.24 z m 0,-9.6 q 5.34,0 8.4,-3.84 3.06,-3.9 3.06,-10.5 0,-6.54 -3.06,-10.38 -3.06,-3.84 -8.4,-3.84 -5.34,0 -8.46,3.84 -3.06,3.84 -3.06,10.38 0,6.6 3.06,10.5 3.12,3.84 8.46,3.84 z" />
      <path
         id="path36"
         style="font-family:'Open Sauce One Black';letter-spacing:0.075em"
         d="m 485.59469,100 h -11.34 l -6.66,-17.64 h -8.7 V 100 h -10.74 V 54.22 h 21.6 q 6.72,0 10.56,3.36 3.9,3.3 3.9,10.44 0,4.26 -1.74,7.44 -1.74,3.18 -4.8,4.92 z m -26.7,-36.18 v 9.24 h 9.36 q 5.34,0 5.34,-4.68 0,-2.22 -1.38,-3.36 -1.32,-1.2 -3.96,-1.2 z" />
      <path
         id="path38"
         style="font-family:'Open Sauce One Black';letter-spacing:0.075em"
         d="m 503.11375,100 h -11.4 l 15.66,-45.78 h 11.64 l 15.66,45.78 h -11.4 l -2.46,-8.22 h -15.24 z m 10.08,-33.84 -4.8,16.32 h 9.6 z" />
      <path
         id="path40"
         style="font-family:'Open Sauce One Black';letter-spacing:0.075em"
         d="m 553.67594,100 h -10.74 V 54.22 h 10.92 l 17.58,27.78 V 54.22 h 10.74 V 100 h -10.92 l -17.58,-27.96 z" />
      <path
         id="path42"
         style="font-family:'Open Sauce One Black';letter-spacing:0.075em"
         d="m 625.10219,100 h -31.26 V 54.22 h 31.26 v 9.6 h -20.52 v 8.52 h 18.54 v 9.54 h -18.54 v 8.52 h 20.52 z" />
      <path
         id="path44"
         style="font-family:'Open Sauce One Black';letter-spacing:0.075em"
         d="m 643.645,100 h -11.4 l 15.66,-45.78 h 11.64 l 15.66,45.78 h -11.4 l -2.46,-8.22 h -15.24 z m 10.08,-33.84 -4.8,16.32 h 9.6 z" />
    </g>
  </g>
</svg>
