<?xml version="1.0" encoding="UTF-8" standalone="no"?>
<svg
   xmlns:dc="http://purl.org/dc/elements/1.1/"
   xmlns:cc="http://creativecommons.org/ns#"
   xmlns:rdf="http://www.w3.org/1999/02/22-rdf-syntax-ns#"
   xmlns:svg="http://www.w3.org/2000/svg"
   xmlns="http://www.w3.org/2000/svg"
   id="svg16"
   width="800px"
   version="1.1"
   height="200px">
  <metadata
     id="metadata20">
    <rdf:RDF>
      <cc:Work
         rdf:about="">
        <dc:format>image/svg+xml</dc:format>
        <dc:type
           rdf:resource="http://purl.org/dc/dcmitype/StillImage" />
      </cc:Work>
    </rdf:RDF>
  </metadata>
  <defs
     id="defs4">
    <style
       id="style2"
       type="text/css"><![CDATA[    
     @font-face {font-family:Open Sauce Sans Medium;
     src: url('/Users/francesco/Repos/write-logos/src/fonts/Fonts_E_TEMPORANEA/OpenSauceSans-Medium.ttf');}
     @font-face {font-family:carbono;
     src: url('/Users/francesco/Repos/write-logos/src/fonts/Fonts_X/carbono_pw.ttf');}
     ]]></style>
  </defs>
  <g
     id="g14"
     style="font-size:60px">
    <g
       style="text-anchor:middle"
       id="text12"
       aria-label="EXTEMPORANEA">
      <path
         id="path22"
         style="font-family:'Open Sauce Sans Medium';letter-spacing:0.075em"
         d="m 161.65234,100 h -30.12 V 54.22 h 30.12 v 6.36 h -23.04 V 73.9 h 20.46 v 6.3 h -20.46 v 13.44 h 23.04 z" />
      <path
         id="path24"
         style="font-family:carbono;letter-spacing:0.05em"
         d="m 173.48359,60.4 11.04,17.52 -12,18.3 h 5.94 l 8.64,-14.46 8.64,14.46 h 5.94 l -12,-18.3 11.04,-17.52 h -5.4 l -8.22,13.74 -8.22,-13.74 z m 5.4,-3.78 q 0.78,0 1.8,0.6 1.02,0.6 1.44,1.26 l 4.98,8.28 q 1.2,-2.04 2.46,-4.14 1.32,-2.1 2.52,-4.14 0.42,-0.66 1.44,-1.26 1.02,-0.6 1.8,-0.6 h 5.4 q 1.2,0 2.1,0.54 0.9,0.54 1.32,1.38 0.48,0.84 0.42,1.86 0,1.02 -0.66,2.04 l -9.78,15.48 q 2.7,4.14 5.34,8.1 2.7,3.96 5.4,8.1 0.66,1.02 0.66,2.1 0.06,1.02 -0.42,1.86 -0.42,0.84 -1.32,1.38 -0.84,0.54 -2.1,0.54 h -5.94 q -0.78,0 -1.8,-0.6 -1.02,-0.6 -1.44,-1.26 l -5.4,-9 q -1.38,2.22 -2.76,4.5 -1.32,2.28 -2.64,4.5 -0.42,0.66 -1.44,1.26 -1.02,0.6 -1.8,0.6 h -5.94 q -1.26,0 -2.16,-0.54 -0.9,-0.54 -1.38,-1.38 -0.42,-0.84 -0.36,-1.86 0.06,-1.08 0.72,-2.1 l 10.74,-16.2 q -2.4,-3.78 -4.92,-7.74 -2.46,-3.96 -4.86,-7.74 -0.66,-1.02 -0.72,-2.04 0,-1.02 0.42,-1.86 0.48,-0.84 1.38,-1.38 0.9,-0.54 2.1,-0.54 z" />
      <path
         id="path26"
         style="font-family:'Open Sauce Sans Medium';letter-spacing:0.075em"
         d="m 230.98047,100 h -7.08 V 60.58 h -14.7 v -6.36 h 36.54 v 6.36 h -14.76 z" />
      <path
         id="path28"
         style="font-family:'Open Sauce Sans Medium';letter-spacing:0.075em"
         d="m 285.44922,100 h -30.12 V 54.22 h 30.12 v 6.36 h -23.04 V 73.9 h 20.46 v 6.3 h -20.46 v 13.44 h 23.04 z" />
      <path
         id="path30"
         style="font-family:'Open Sauce Sans Medium';letter-spacing:0.075em"
         d="M 296.86047,100 V 54.22 h 12.12 l 9.24,31.38 q 0.6,2.04 0.9,3.66 0.3,1.62 0.3,3.96 h 0.96 q 0,-2.34 0.24,-4.02 0.3,-1.68 0.9,-3.6 l 9.24,-31.38 h 12.12 V 100 h -7.08 V 66.58 q 0,-3.06 0.36,-6.6 l -0.96,-0.12 q -0.6,3.42 -1.62,6.72 l -10.2,33.42 h -6.96 l -10.32,-33.42 q -0.9,-2.94 -1.5,-6.72 l -0.96,0.12 q 0.3,3.54 0.3,6.6 V 100 Z" />
      <path
         id="path32"
         style="font-family:'Open Sauce Sans Medium';letter-spacing:0.075em"
         d="M 356.20422,100 V 54.22 h 18.42 q 6.72,0 10.62,3.36 3.9,3.3 3.9,9.96 0,6.36 -3.96,10.02 -3.96,3.6 -10.56,3.6 h -11.34 V 100 Z m 17.46,-25.02 q 4.08,0 6.24,-1.86 2.22,-1.86 2.22,-5.4 0,-3.42 -2.22,-5.28 -2.16,-1.86 -6.24,-1.86 h -10.38 v 14.4 z" />
      <path
         id="path34"
         style="font-family:'Open Sauce Sans Medium';letter-spacing:0.075em"
         d="m 419.88484,100.72 q -7.14,0 -12.06,-3.18 -4.86,-3.24 -7.26,-8.58 -2.4,-5.4 -2.4,-11.88 0,-6.54 2.4,-11.88 2.4,-5.34 7.26,-8.52 4.92,-3.18 12.06,-3.18 7.14,0 12,3.18 4.92,3.18 7.32,8.52 2.46,5.34 2.46,11.88 0,6.48 -2.46,11.88 -2.4,5.34 -7.32,8.58 -4.86,3.18 -12,3.18 z m 0,-6.36 q 4.56,0 7.8,-2.16 3.3,-2.22 4.98,-6.12 1.74,-3.9 1.74,-9 0,-5.1 -1.74,-8.94 -1.68,-3.9 -4.98,-6.06 -3.24,-2.22 -7.8,-2.22 -4.56,0 -7.86,2.22 -3.24,2.16 -4.92,6.06 -1.68,3.84 -1.68,8.94 0,5.1 1.68,9 1.68,3.9 4.92,6.12 3.3,2.16 7.86,2.16 z" />
      <path
         id="path36"
         style="font-family:'Open Sauce Sans Medium';letter-spacing:0.075em"
         d="M 453.21203,100 V 54.22 h 18.42 q 6.72,0 10.62,3.36 3.9,3.3 3.9,9.96 0,5.28 -2.82,8.76 -2.58,3 -5.64,2.64 l -0.36,0.78 q 0.78,0.18 1.14,0.78 0.42,0.54 0.84,1.5 l 7.68,18 h -7.56 l -7.68,-18.9 h -11.46 V 100 Z m 17.46,-25.02 q 4.08,0 6.24,-1.86 2.22,-1.86 2.22,-5.4 0,-3.42 -2.22,-5.28 -2.16,-1.86 -6.24,-1.86 h -10.38 v 14.4 z" />
      <path
         id="path38"
         style="font-family:'Open Sauce Sans Medium';letter-spacing:0.075em"
         d="m 501.74172,100 h -7.38 l 16.5,-45.78 h 7.86 l 16.5,45.78 h -7.32 l -3.54,-10.32 h -19.08 z m 5.7,-16.56 h 14.76 l -5.82,-16.98 q -0.54,-1.74 -0.84,-2.94 -0.24,-1.2 -0.24,-2.4 h -0.96 q 0,1.2 -0.3,2.4 -0.24,1.2 -0.78,2.94 z" />
      <path
         id="path40"
         style="font-family:'Open Sauce Sans Medium';letter-spacing:0.075em"
         d="M 544.71203,100 V 54.22 h 8.94 l 16.62,30.96 q 0.78,1.44 1.32,2.64 0.54,1.2 1.08,3.18 l 0.96,-0.18 q -0.3,-2.52 -0.3,-5.58 V 54.22 h 7.02 V 100 h -8.88 l -16.74,-31.08 q -0.78,-1.56 -1.26,-2.64 -0.48,-1.14 -1.02,-3.06 l -0.96,0.24 q 0.3,2.52 0.3,5.58 V 100 Z" />
      <path
         id="path42"
         style="font-family:'Open Sauce Sans Medium';letter-spacing:0.075em"
         d="m 623.74609,100 h -30.12 V 54.22 h 30.12 v 6.36 h -23.04 V 73.9 h 20.46 v 6.3 h -20.46 v 13.44 h 23.04 z" />
      <path
         id="path44"
         style="font-family:'Open Sauce Sans Medium';letter-spacing:0.075em"
         d="m 638.75734,100 h -7.38 l 16.5,-45.78 h 7.86 l 16.5,45.78 h -7.32 l -3.54,-10.32 h -19.08 z m 5.7,-16.56 h 14.76 l -5.82,-16.98 q -0.54,-1.74 -0.84,-2.94 -0.24,-1.2 -0.24,-2.4 h -0.96 q 0,1.2 -0.3,2.4 -0.24,1.2 -0.78,2.94 z" />
    </g>
  </g>
</svg>
