<?xml version="1.0" encoding="UTF-8" standalone="no"?>
<svg
   xmlns:dc="http://purl.org/dc/elements/1.1/"
   xmlns:cc="http://creativecommons.org/ns#"
   xmlns:rdf="http://www.w3.org/1999/02/22-rdf-syntax-ns#"
   xmlns:svg="http://www.w3.org/2000/svg"
   xmlns="http://www.w3.org/2000/svg"
   id="svg16"
   width="800px"
   version="1.1"
   height="200px">
  <metadata
     id="metadata20">
    <rdf:RDF>
      <cc:Work
         rdf:about="">
        <dc:format>image/svg+xml</dc:format>
        <dc:type
           rdf:resource="http://purl.org/dc/dcmitype/StillImage" />
      </cc:Work>
    </rdf:RDF>
  </metadata>
  <defs
     id="defs4">
    <style
       id="style2"
       type="text/css"><![CDATA[    
     @font-face {font-family:Open Sauce Sans Medium;
     src: url('/Users/francesco/Repos/write-logos/src/fonts/Fonts_E_TEMPORANEA/OpenSauceSans-Medium.ttf');}
     @font-face {font-family:Plaster;
     src: url('/Users/francesco/Repos/write-logos/src/fonts/Fonts_X/Plaster-Regular.ttf');}
     ]]></style>
  </defs>
  <g
     id="g14"
     style="font-size:60px">
    <g
       style="text-anchor:middle"
       id="text12"
       aria-label="EXTEMPORANEA">
      <path
         id="path22"
         style="font-family:'Open Sauce Sans Medium';letter-spacing:0.075em"
         d="m 157.55078,100 h -30.12 V 54.22 h 30.12 v 6.36 h -23.04 V 73.9 h 20.46 v 6.3 h -20.46 v 13.44 h 23.04 z" />
      <path
         id="path24"
         style="font-family:Plaster;letter-spacing:0.05em"
         d="M 170.76367,74.306641 Q 168.36133,70.820312 168.36133,64.375 v -4.248047 h 11.54297 l 21.79687,23.876953 q 1.8457,2.050781 2.46094,3.457031 0.61523,1.40625 0.9082,2.578125 0.64453,2.34375 0.64453,5.771485 V 100 h -11.2207 L 170.85156,74.306641 Z m 22.26563,-1.669922 q 0,-8.056641 2.49023,-10.488282 1.31836,-1.289062 3.42774,-1.640625 2.13867,-0.380859 5.18554,-0.380859 h 1.58203 v 4.628906 q 0,6.240235 -3.28125,8.34961 -2.34375,1.523437 -7.88086,1.523437 h -1.52343 z m -24.66797,22.792968 q 0,-6.240234 3.28125,-8.378906 2.34375,-1.49414 7.88086,-1.49414 h 1.52343 v 1.992187 q 0,8.144531 -2.49023,10.458984 -1.69922,1.582032 -4.95117,1.875 Q 171.96484,100 169.94336,100 h -1.58203 z" />
      <path
         id="path26"
         style="font-family:'Open Sauce Sans Medium';letter-spacing:0.075em"
         d="m 235.08203,100 h -7.08 V 60.58 h -14.7 v -6.36 h 36.54 v 6.36 h -14.76 z" />
      <path
         id="path28"
         style="font-family:'Open Sauce Sans Medium';letter-spacing:0.075em"
         d="m 289.55078,100 h -30.12 V 54.22 h 30.12 v 6.36 h -23.04 V 73.9 h 20.46 v 6.3 h -20.46 v 13.44 h 23.04 z" />
      <path
         id="path30"
         style="font-family:'Open Sauce Sans Medium';letter-spacing:0.075em"
         d="M 300.96203,100 V 54.22 h 12.12 l 9.24,31.38 q 0.6,2.04 0.9,3.66 0.3,1.62 0.3,3.96 h 0.96 q 0,-2.34 0.24,-4.02 0.3,-1.68 0.9,-3.6 l 9.24,-31.38 h 12.12 V 100 h -7.08 V 66.58 q 0,-3.06 0.36,-6.6 l -0.96,-0.12 q -0.6,3.42 -1.62,6.72 l -10.2,33.42 h -6.96 l -10.32,-33.42 q -0.9,-2.94 -1.5,-6.72 l -0.96,0.12 q 0.3,3.54 0.3,6.6 V 100 Z" />
      <path
         id="path32"
         style="font-family:'Open Sauce Sans Medium';letter-spacing:0.075em"
         d="M 360.30578,100 V 54.22 h 18.42 q 6.72,0 10.62,3.36 3.9,3.3 3.9,9.96 0,6.36 -3.96,10.02 -3.96,3.6 -10.56,3.6 h -11.34 V 100 Z m 17.46,-25.02 q 4.08,0 6.24,-1.86 2.22,-1.86 2.22,-5.4 0,-3.42 -2.22,-5.28 -2.16,-1.86 -6.24,-1.86 h -10.38 v 14.4 z" />
      <path
         id="path34"
         style="font-family:'Open Sauce Sans Medium';letter-spacing:0.075em"
         d="m 423.98641,100.72 q -7.14,0 -12.06,-3.18 -4.86,-3.24 -7.26,-8.58 -2.4,-5.4 -2.4,-11.88 0,-6.54 2.4,-11.88 2.4,-5.34 7.26,-8.52 4.92,-3.18 12.06,-3.18 7.14,0 12,3.18 4.92,3.18 7.32,8.52 2.46,5.34 2.46,11.88 0,6.48 -2.46,11.88 -2.4,5.34 -7.32,8.58 -4.86,3.18 -12,3.18 z m 0,-6.36 q 4.56,0 7.8,-2.16 3.3,-2.22 4.98,-6.12 1.74,-3.9 1.74,-9 0,-5.1 -1.74,-8.94 -1.68,-3.9 -4.98,-6.06 -3.24,-2.22 -7.8,-2.22 -4.56,0 -7.86,2.22 -3.24,2.16 -4.92,6.06 -1.68,3.84 -1.68,8.94 0,5.1 1.68,9 1.68,3.9 4.92,6.12 3.3,2.16 7.86,2.16 z" />
      <path
         id="path36"
         style="font-family:'Open Sauce Sans Medium';letter-spacing:0.075em"
         d="M 457.31359,100 V 54.22 h 18.42 q 6.72,0 10.62,3.36 3.9,3.3 3.9,9.96 0,5.28 -2.82,8.76 -2.58,3 -5.64,2.64 l -0.36,0.78 q 0.78,0.18 1.14,0.78 0.42,0.54 0.84,1.5 l 7.68,18 h -7.56 l -7.68,-18.9 h -11.46 V 100 Z m 17.46,-25.02 q 4.08,0 6.24,-1.86 2.22,-1.86 2.22,-5.4 0,-3.42 -2.22,-5.28 -2.16,-1.86 -6.24,-1.86 h -10.38 v 14.4 z" />
      <path
         id="path38"
         style="font-family:'Open Sauce Sans Medium';letter-spacing:0.075em"
         d="m 505.84328,100 h -7.38 l 16.5,-45.78 h 7.86 l 16.5,45.78 h -7.32 l -3.54,-10.32 h -19.08 z m 5.7,-16.56 h 14.76 l -5.82,-16.98 q -0.54,-1.74 -0.84,-2.94 -0.24,-1.2 -0.24,-2.4 h -0.96 q 0,1.2 -0.3,2.4 -0.24,1.2 -0.78,2.94 z" />
      <path
         id="path40"
         style="font-family:'Open Sauce Sans Medium';letter-spacing:0.075em"
         d="M 548.81359,100 V 54.22 h 8.94 l 16.62,30.96 q 0.78,1.44 1.32,2.64 0.54,1.2 1.08,3.18 l 0.96,-0.18 q -0.3,-2.52 -0.3,-5.58 V 54.22 h 7.02 V 100 h -8.88 l -16.74,-31.08 q -0.78,-1.56 -1.26,-2.64 -0.48,-1.14 -1.02,-3.06 l -0.96,0.24 q 0.3,2.52 0.3,5.58 V 100 Z" />
      <path
         id="path42"
         style="font-family:'Open Sauce Sans Medium';letter-spacing:0.075em"
         d="m 627.84766,100 h -30.12 V 54.22 h 30.12 v 6.36 h -23.04 V 73.9 h 20.46 v 6.3 h -20.46 v 13.44 h 23.04 z" />
      <path
         id="path44"
         style="font-family:'Open Sauce Sans Medium';letter-spacing:0.075em"
         d="m 642.85891,100 h -7.38 l 16.5,-45.78 h 7.86 l 16.5,45.78 h -7.32 l -3.54,-10.32 h -19.08 z m 5.7,-16.56 h 14.76 l -5.82,-16.98 q -0.54,-1.74 -0.84,-2.94 -0.24,-1.2 -0.24,-2.4 h -0.96 q 0,1.2 -0.3,2.4 -0.24,1.2 -0.78,2.94 z" />
    </g>
  </g>
</svg>
