<?xml version="1.0" encoding="UTF-8" standalone="no"?>
<svg
   xmlns:dc="http://purl.org/dc/elements/1.1/"
   xmlns:cc="http://creativecommons.org/ns#"
   xmlns:rdf="http://www.w3.org/1999/02/22-rdf-syntax-ns#"
   xmlns:svg="http://www.w3.org/2000/svg"
   xmlns="http://www.w3.org/2000/svg"
   id="svg16"
   width="800px"
   version="1.1"
   height="200px">
  <metadata
     id="metadata20">
    <rdf:RDF>
      <cc:Work
         rdf:about="">
        <dc:format>image/svg+xml</dc:format>
        <dc:type
           rdf:resource="http://purl.org/dc/dcmitype/StillImage" />
      </cc:Work>
    </rdf:RDF>
  </metadata>
  <defs
     id="defs4">
    <style
       id="style2"
       type="text/css"><![CDATA[    
     @font-face {font-family:Open Sauce Sans Medium;
     src: url('/Users/francesco/Repos/write-logos/src/fonts/Fonts_E_TEMPORANEA/OpenSauceSans-Medium.ttf');}
     @font-face {font-family:Brandon;
     src: url('/Users/francesco/Repos/write-logos/src/fonts/Fonts_X/BrandonFree.ttf');}
     ]]></style>
  </defs>
  <g
     id="g14"
     style="font-size:60px">
    <g
       style="text-anchor:middle"
       id="text12"
       aria-label="EXTEMPORANEA">
      <path
         id="path22"
         style="font-family:'Open Sauce Sans Medium';letter-spacing:0.075em"
         d="m 163.35156,100 h -30.12 V 54.22 h 30.12 v 6.36 h -23.04 V 73.9 h 20.46 v 6.3 h -20.46 v 13.44 h 23.04 z" />
      <path
         id="path24"
         style="font-family:Brandon;letter-spacing:0.05em"
         d="m 170.70508,70.615234 v 0 0 q -0.32227,-0.55664 0.32226,-1.611328 0.67383,-1.054687 1.75782,-2.138672 1.08398,-1.113281 1.99218,-1.816406 0.90821,-0.703125 1.08399,-0.556641 3.22265,4.482422 6.91406,8.613282 0.64453,0.703125 1.28906,1.464843 2.49024,3.046875 5.41992,5.595704 0.90821,0.732421 1.9043,1.40625 1.08399,0.732421 2.10938,1.582031 0.9375,0.820312 1.78711,1.757812 0.79101,0.84961 1.66992,1.611328 1.20117,0.996094 2.60742,1.757813 2.49023,1.201172 3.95508,3.457031 0.20508,0.439453 -0.0879,1.054688 -0.29297,0.615234 -0.76172,1.230468 -0.46875,0.615235 -0.84961,1.025391 -0.14649,0.175781 -0.26367,0.263672 -0.0879,0.117187 -0.52735,0.615234 -0.43945,0.46875 -1.02539,0.996094 -0.55664,0.527344 -1.02539,0.849609 -0.46875,0.322266 -0.61523,0.117188 -1.46485,-2.285156 -3.98438,-3.457031 -1.37695,-0.791016 -2.57812,-1.757813 -0.87891,-0.791015 -1.69922,-1.640625 -0.84961,-0.908203 -1.75781,-1.757812 -1.02539,-0.820313 -2.10938,-1.582032 -0.9668,-0.644531 -1.9043,-1.376953 -2.92968,-2.578125 -5.41992,-5.595703 -0.64453,-0.761719 -1.28906,-1.49414 -3.69141,-4.101563 -6.91406,-8.613282 z m 27.53906,-3.574218 v 0 0 q 0.0586,-0.05859 0.11719,-0.175782 0.32226,-0.439453 0.96679,-1.230468 0.67383,-0.820313 1.37696,-1.464844 0.70312,-0.644531 1.14258,-0.556641 0.43945,0.146485 0.26367,0.703125 -0.17578,0.527344 -0.58594,1.113281 -0.38086,0.556641 -0.64453,0.878907 -0.0293,0.05859 -0.0586,0.08789 -11.95313,15.585938 -24.72657,30.527344 0,0 -0.0293,0.05859 -0.23438,0.292969 -0.87891,0.996094 -0.61523,0.673828 -1.28906,1.201171 -0.64453,0.498047 -0.9961,0.292969 -0.26367,-0.292969 0.11719,-1.02539 0.41016,-0.761719 0.99609,-1.494141 0.58594,-0.732422 0.82032,-1.025391 0.0293,-0.0293 0.0293,-0.0293 12.07032,-14.121093 23.37891,-28.857421 z" />
      <path
         id="path26"
         style="font-family:'Open Sauce Sans Medium';letter-spacing:0.075em"
         d="m 229.28125,100 h -7.08 V 60.58 h -14.7 v -6.36 h 36.54 v 6.36 h -14.76 z" />
      <path
         id="path28"
         style="font-family:'Open Sauce Sans Medium';letter-spacing:0.075em"
         d="M 283.75,100 H 253.63 V 54.22 h 30.12 v 6.36 H 260.71 V 73.9 h 20.46 v 6.3 h -20.46 v 13.44 h 23.04 z" />
      <path
         id="path30"
         style="font-family:'Open Sauce Sans Medium';letter-spacing:0.075em"
         d="M 295.16125,100 V 54.22 h 12.12 l 9.24,31.38 q 0.6,2.04 0.9,3.66 0.3,1.62 0.3,3.96 h 0.96 q 0,-2.34 0.24,-4.02 0.3,-1.68 0.9,-3.6 l 9.24,-31.38 h 12.12 V 100 h -7.08 V 66.58 q 0,-3.06 0.36,-6.6 l -0.96,-0.12 q -0.6,3.42 -1.62,6.72 l -10.2,33.42 h -6.96 l -10.32,-33.42 q -0.9,-2.94 -1.5,-6.72 l -0.96,0.12 q 0.3,3.54 0.3,6.6 V 100 Z" />
      <path
         id="path32"
         style="font-family:'Open Sauce Sans Medium';letter-spacing:0.075em"
         d="M 354.505,100 V 54.22 h 18.42 q 6.72,0 10.62,3.36 3.9,3.3 3.9,9.96 0,6.36 -3.96,10.02 -3.96,3.6 -10.56,3.6 h -11.34 V 100 Z m 17.46,-25.02 q 4.08,0 6.24,-1.86 2.22,-1.86 2.22,-5.4 0,-3.42 -2.22,-5.28 -2.16,-1.86 -6.24,-1.86 h -10.38 v 14.4 z" />
      <path
         id="path34"
         style="font-family:'Open Sauce Sans Medium';letter-spacing:0.075em"
         d="m 418.18563,100.72 q -7.14001,0 -12.06,-3.18 -4.86001,-3.24 -7.26,-8.58 -2.40001,-5.4 -2.40001,-11.88 0,-6.54 2.40001,-11.88 2.39999,-5.34 7.26,-8.52 4.91999,-3.18 12.06,-3.18 7.13999,0 12,3.18 4.92,3.18 7.31999,8.52 2.46,5.34 2.46,11.88 0,6.48 -2.46,11.88 -2.39999,5.34 -7.31999,8.58 -4.86001,3.18 -12,3.18 z m 0,-6.36 q 4.56,0 7.8,-2.16 3.29999,-2.22 4.97999,-6.12 1.74,-3.9 1.74,-9 0,-5.1 -1.74,-8.94 -1.68,-3.9 -4.97999,-6.06 -3.24,-2.22 -7.8,-2.22 -4.56,0 -7.86001,2.22 -3.24,2.16 -4.92,6.06 -1.68,3.84 -1.68,8.94 0,5.1 1.68,9 1.68,3.9 4.92,6.12 3.30001,2.16 7.86001,2.16 z" />
      <path
         id="path36"
         style="font-family:'Open Sauce Sans Medium';letter-spacing:0.075em"
         d="M 451.51281,100 V 54.22 h 18.42 q 6.72,0 10.62,3.36 3.9,3.3 3.9,9.96 0,5.28 -2.82,8.76 -2.58,3 -5.64,2.64 l -0.36,0.78 q 0.78,0.18 1.14,0.78 0.42,0.54 0.84,1.5 l 7.68,18 h -7.56 l -7.68,-18.9 h -11.46 V 100 Z m 17.46,-25.02 q 4.08,0 6.24,-1.86 2.22,-1.86 2.22,-5.4 0,-3.42 -2.22,-5.28 -2.16,-1.86 -6.24,-1.86 h -10.38 v 14.4 z" />
      <path
         id="path38"
         style="font-family:'Open Sauce Sans Medium';letter-spacing:0.075em"
         d="m 500.0425,100 h -7.38 l 16.5,-45.78 h 7.86 l 16.5,45.78 h -7.32 l -3.54,-10.32 h -19.08 z m 5.7,-16.56 h 14.76 l -5.82,-16.98 q -0.54,-1.74 -0.84,-2.94 -0.24,-1.2 -0.24,-2.4 h -0.96 q 0,1.2 -0.3,2.4 -0.24,1.2 -0.78,2.94 z" />
      <path
         id="path40"
         style="font-family:'Open Sauce Sans Medium';letter-spacing:0.075em"
         d="M 543.01281,100 V 54.22 h 8.94 l 16.62,30.96 q 0.78,1.44 1.32,2.64 0.54,1.2 1.08,3.18 l 0.96,-0.18 q -0.3,-2.52 -0.3,-5.58 V 54.22 h 7.02 V 100 h -8.88 l -16.74,-31.08 q -0.78,-1.56 -1.26,-2.64 -0.48,-1.14 -1.02,-3.06 l -0.96,0.24 q 0.3,2.52 0.3,5.58 V 100 Z" />
      <path
         id="path42"
         style="font-family:'Open Sauce Sans Medium';letter-spacing:0.075em"
         d="m 622.04687,100 h -30.12 V 54.22 h 30.12 v 6.36 H 599.00688 V 73.9 h 20.45999 v 6.3 h -20.45999 v 13.44 h 23.03999 z" />
      <path
         id="path44"
         style="font-family:'Open Sauce Sans Medium';letter-spacing:0.075em"
         d="m 637.05813,100 h -7.38 l 16.5,-45.78 h 7.86 l 16.5,45.78 h -7.32001 l -3.53999,-10.32 h -19.08001 z m 5.69999,-16.56 h 14.76001 l -5.82001,-16.98 q -0.53999,-1.74 -0.84,-2.94 -0.24,-1.2 -0.24,-2.4 h -0.95999 q 0,1.2 -0.30001,2.4 -0.24,1.2 -0.78,2.94 z" />
    </g>
  </g>
</svg>
