<?xml version="1.0" encoding="UTF-8" standalone="no"?>
<svg
   xmlns:dc="http://purl.org/dc/elements/1.1/"
   xmlns:cc="http://creativecommons.org/ns#"
   xmlns:rdf="http://www.w3.org/1999/02/22-rdf-syntax-ns#"
   xmlns:svg="http://www.w3.org/2000/svg"
   xmlns="http://www.w3.org/2000/svg"
   id="svg16"
   width="800px"
   version="1.1"
   height="200px">
  <metadata
     id="metadata20">
    <rdf:RDF>
      <cc:Work
         rdf:about="">
        <dc:format>image/svg+xml</dc:format>
        <dc:type
           rdf:resource="http://purl.org/dc/dcmitype/StillImage" />
      </cc:Work>
    </rdf:RDF>
  </metadata>
  <defs
     id="defs4">
    <style
       id="style2"
       type="text/css"><![CDATA[    
     @font-face {font-family:Open Sauce One Black;
     src: url('/Users/francesco/Repos/write-logos/src/fonts/Fonts_E_TEMPORANEA/OpenSauceOne-Black.ttf');}
     @font-face {font-family:ScreenMatrix;
     src: url('/Users/francesco/Repos/write-logos/src/fonts/Fonts_X/ScreenMatrix.ttf');}
     ]]></style>
  </defs>
  <g
     id="g14"
     style="font-size:60px">
    <g
       style="text-anchor:middle"
       id="text12"
       aria-label="EXTEMPORANEA">
      <path
         id="path22"
         style="font-family:'Open Sauce One Black';letter-spacing:0.075em"
         d="M 156.56313,100 H 125.30312 V 54.22 h 31.26001 v 9.6 h -20.52001 v 8.52 h 18.54 v 9.54 h -18.54 v 8.52 h 20.52001 z" />
      <path
         id="path24"
         style="font-family:ScreenMatrix;letter-spacing:0.05em"
         d="m 190.86133,63.994141 v -5.390625 h 5.39062 v 5.390625 z m 0,6.005859 v -5.390625 h 5.39062 V 70 Z m -6.00586,6.005859 v -5.419922 h 5.39062 v 5.419922 z M 166.86719,63.994141 v -5.390625 h 5.39062 v 5.390625 z m 0,6.005859 v -5.390625 h 5.39062 V 70 Z m 5.97656,6.005859 v -5.419922 h 5.41992 v 5.419922 z m 6.00586,6.00586 v -5.419922 h 5.41992 v 5.419922 z m 6.00586,5.976562 v -5.390625 h 5.39062 v 5.390625 z m 6.00586,6.00586 v -5.390625 h 5.39062 v 5.390625 z m 0,6.005859 v -5.390625 h 5.39062 V 100 Z M 172.84375,87.988281 v -5.390625 h 5.41992 v 5.390625 z m -5.97656,6.00586 v -5.390625 h 5.39062 v 5.390625 z m 0,6.005859 v -5.390625 h 5.39062 V 100 Z" />
      <path
         id="path26"
         style="font-family:'Open Sauce One Black';letter-spacing:0.075em"
         d="m 226.6825,100 h -10.74 V 63.82 h -12.9 v -9.6 h 36.54 v 9.6 h -12.9 z" />
      <path
         id="path28"
         style="font-family:'Open Sauce One Black';letter-spacing:0.075em"
         d="m 279.4225,100 h -31.26 V 54.22 h 31.26 v 9.6 h -20.52 v 8.52 h 18.54 v 9.54 h -18.54 v 8.52 h 20.52 z" />
      <path
         id="path30"
         style="font-family:'Open Sauce One Black';letter-spacing:0.075em"
         d="m 300.78531,100 h -10.74 V 54.22 h 17.28 l 7.56,32.94 7.5,-32.94 h 17.34 V 100 h -10.74 V 62.8 l -8.88,37.2 h -10.44 l -8.88,-36.96 z" />
      <path
         id="path32"
         style="font-family:'Open Sauce One Black';letter-spacing:0.075em"
         d="M 351.49844,100 V 54.22 h 21.6 q 6.72,0 10.56,3.36 3.9,3.3 3.9,10.44 0,4.44 -1.86,7.68 -1.8,3.24 -5.1,4.98 -3.3,1.68 -7.5,1.68 h -10.86 V 100 Z m 20.1,-26.94 q 5.34,0 5.34,-4.68 0,-2.22 -1.38,-3.36 -1.32,-1.2 -3.96,-1.2 h -9.36 v 9.24 z" />
      <path
         id="path34"
         style="font-family:'Open Sauce One Black';letter-spacing:0.075em"
         d="m 418.19406,101.02 q -7.5,0 -12.66,-3.24 -5.16,-3.24 -7.68,-8.64 -2.52,-5.46 -2.52,-12.06 0,-6.6 2.52,-12 2.52,-5.4 7.62,-8.58 5.16,-3.24 12.72,-3.24 7.5,0 12.6,3.24 5.16,3.18 7.68,8.58 2.52,5.4 2.52,12 0,6.6 -2.52,12.06 -2.52,5.4 -7.68,8.64 -5.1,3.24 -12.6,3.24 z m 0,-9.6 q 5.34,0 8.4,-3.84 3.06,-3.9 3.06,-10.5 0,-6.54 -3.06,-10.38 -3.06,-3.84 -8.4,-3.84 -5.34,0 -8.46,3.84 -3.06,3.84 -3.06,10.38 0,6.6 3.06,10.5 3.12,3.84 8.46,3.84 z" />
      <path
         id="path36"
         style="font-family:'Open Sauce One Black';letter-spacing:0.075em"
         d="m 488.52438,100 h -11.34001 l -6.65999,-17.64 h -8.70001 V 100 H 451.08438 V 54.22 h 21.59999 q 6.72001,0 10.56,3.36 3.90001,3.3 3.90001,10.44 0,4.26 -1.74,7.44 -1.74001,3.18 -4.80001,4.92 z M 461.82437,63.82 v 9.24 h 9.36 q 5.34001,0 5.34001,-4.68 0,-2.22 -1.38,-3.36 -1.32001,-1.2 -3.96001,-1.2 z" />
      <path
         id="path38"
         style="font-family:'Open Sauce One Black';letter-spacing:0.075em"
         d="m 506.04344,100 h -11.4 l 15.66,-45.78 h 11.64 l 15.66,45.78 h -11.4 l -2.46,-8.22 h -15.24 z m 10.08,-33.84 -4.8,16.32 h 9.6 z" />
      <path
         id="path40"
         style="font-family:'Open Sauce One Black';letter-spacing:0.075em"
         d="m 556.60563,100 h -10.74 V 54.22 h 10.91999 L 574.36563,82 V 54.22 h 10.74 V 100 H 574.18562 L 556.60563,72.04 Z" />
      <path
         id="path42"
         style="font-family:'Open Sauce One Black';letter-spacing:0.075em"
         d="m 628.03188,100 h -31.26 V 54.22 h 31.26 v 9.6 h -20.52 v 8.52 h 18.53999 v 9.54 h -18.53999 v 8.52 h 20.52 z" />
      <path
         id="path44"
         style="font-family:'Open Sauce One Black';letter-spacing:0.075em"
         d="m 646.57469,100 h -11.4 l 15.66,-45.78 h 11.64 l 15.66,45.78 h -11.4 l -2.46,-8.22 h -15.24 z m 10.08,-33.84 -4.8,16.32 h 9.6 z" />
    </g>
  </g>
</svg>
