<?xml version="1.0" encoding="UTF-8" standalone="no"?>
<svg
   xmlns:dc="http://purl.org/dc/elements/1.1/"
   xmlns:cc="http://creativecommons.org/ns#"
   xmlns:rdf="http://www.w3.org/1999/02/22-rdf-syntax-ns#"
   xmlns:svg="http://www.w3.org/2000/svg"
   xmlns="http://www.w3.org/2000/svg"
   id="svg10"
   width="500px"
   version="1.1"
   height="200px">
  <metadata
     id="metadata14">
    <rdf:RDF>
      <cc:Work
         rdf:about="">
        <dc:format>image/svg+xml</dc:format>
        <dc:type
           rdf:resource="http://purl.org/dc/dcmitype/StillImage" />
      </cc:Work>
    </rdf:RDF>
  </metadata>
  <defs
     id="defs4">
    <style
       id="style2"
       type="text/css"><![CDATA[    
     @font-face {font-family:Pamela;
     src: url('/Users/francesco/Repos/write-logos/src/fonts//Pamela.ttf');}]]></style>
  </defs>
  <g
     id="g8"
     style="font-size:30px;font-family:Pamela">
    <g
       style=""
       id="text6"
       aria-label="eXtemporanea">
      <path
         id="path16"
         style=""
         d="m 111.1,89.89 q 0,-1.53 -0.93,-2.7 -0.93,-1.17 -2.4,-1.68 -1.02,-0.33 -1.68,0.06 -1.44,0.81 -2.22,1.32 -0.78,0.48 -0.99,0.63 -1.35,1.14 -1.59,3.18 v 5.1 q 0,0.42 -0.51,0.69 l -0.51,0.27 q -0.36,0.21 -0.24,0.96 l 0.51,1.35 q 0.12,0.33 0.63,0.18 0.18,-0.06 0.36,-0.06 0.09,0 1.32,1.14 1.26,1.17 2.34,1.17 2.28,0 4.95,-3.03 0.06,-0.06 0.03,-0.15 l -0.99,-2.1 q -0.06,-0.15 -0.21,-0.09 -1.44,0.51 -2.04,0.51 -0.39,0 -0.99,-0.15 -0.69,-0.24 -0.69,-0.6 0,-0.33 0.66,-0.63 3.06,-1.38 3.96,-2.22 1.23,-1.14 1.23,-3.15 z m -0.3,0 q 0,1.95 -1.2,2.97 -0.78,0.69 -3.81,2.1 -0.84,0.39 -0.84,0.93 0,0.48 0.81,0.78 0.63,0.27 1.17,0.27 0.51,0 2.01,-0.45 l 0.9,1.89 q -2.46,2.82 -4.65,2.82 -1.02,0 -2.22,-1.17 -1.23,-1.14 -1.44,-1.14 -0.12,0 -0.33,0.06 -0.18,0.03 -0.3,0.03 -0.03,0 -0.06,-0.03 l -0.51,-1.35 q -0.09,-0.18 -0.09,-0.33 0,-0.18 0.15,-0.27 l 0.51,-0.27 q 0.69,-0.36 0.69,-0.93 v -5.07 q 0.18,-1.53 0.78,-2.31 0.45,-0.54 1.95,-1.5 l 1.95,-1.14 q 0.48,-0.3 1.38,0.03 3.15,1.17 3.15,4.08 z m -0.66,-0.3 q 0,-1.17 -0.93,-2.22 -0.9,-1.11 -2.01,-1.11 -0.6,0 -0.93,0.21 -2.52,1.47 -3.03,1.95 -1.2,1.02 -1.2,2.82 v 5.28 l -1.08,0.9 q -0.15,0.15 -0.09,0.27 0.06,0.15 0.18,0.15 h 0.33 q -0.06,0 1.26,1.14 1.29,1.11 2.43,1.11 1.02,0 2.25,-0.9 1.44,-1.11 1.44,-1.74 0,-0.09 -0.06,-0.15 -0.12,-0.12 -0.3,0 -0.6,0.36 -1.5,0.36 -1.74,0 -3.12,-1.92 v -1.35 q 2.85,-0.84 4.2,-1.65 2.16,-1.29 2.16,-3.15 z m -2.82,0.87 q 0,1.98 -3.54,3.45 v -3.87 q 0,-1.71 0.84,-1.71 0.96,0 1.83,0.6 0.87,0.6 0.87,1.53 z m -0.6,0.33 q 0,-0.45 -0.33,-0.9 -0.33,-0.48 -0.75,-0.48 -0.66,0 -0.66,0.57 v 1.89 q 0,0.54 0.54,0.54 0.36,0 0.78,-0.6 0.42,-0.6 0.42,-1.02 z m -0.3,0 q 0,0.18 -0.09,0.42 -0.09,0.21 -0.24,0.42 -0.12,0.18 -0.27,0.33 -0.15,0.15 -0.3,0.15 -0.24,0 -0.24,-0.24 v -1.89 q 0,-0.27 0.36,-0.27 0.33,0 0.54,0.36 0.24,0.36 0.24,0.72 z" />
      <path
         id="path18"
         style=""
         d="m 134.31578,87.76 q 0,-0.48 -0.69,-1.8 0.33,-0.24 0.42,-0.93 0.03,-0.15 -0.06,-0.21 -0.06,-0.03 -0.27,0.09 -0.18,0.09 -0.39,0.09 -0.15,0 -0.6,-0.15 -0.42,-0.18 -0.66,-0.18 -0.21,0 -0.54,0.12 -0.03,-0.09 -0.03,-0.3 0,-0.27 0.09,-0.69 0.15,-0.69 0.39,-0.87 0.27,0.39 0.51,0.39 0.78,0 0.78,-1.02 0,-0.48 -0.21,-0.93 1.14,-1.38 1.14,-2.61 0,-0.66 -0.36,-1.17 -0.36,-0.54 -0.99,-0.54 -0.24,0 -0.63,0.21 -0.39,0.18 -0.6,0.18 -0.24,0 -1.17,-0.54 -0.96,-0.54 -1.74,-0.54 -1.74,0 -3.6,2.22 l -1.44,-1.74 q -0.36,-0.45 -0.69,0 -0.57,0.66 -1.14,0.66 -0.48,0 -1.95,-0.54 -1.5,-0.54 -2.49,-0.54 -2.49,0 -4.02,1.77 -1.53,1.77 -1.53,4.29 0,2.13 1.17,3.6 1.26,1.62 3.33,1.62 0.75,0 1.77,-0.24 v 1.89 q -0.15,-0.12 -0.39,-0.21 -0.24,-0.09 -0.54,-0.21 -0.42,-0.54 -0.9,-0.54 -0.33,0 -0.63,0.15 -0.27,-0.33 -1.74,-0.84 -1.17,-0.42 -1.35,-1.2 -0.06,-0.06 -0.12,-0.06 -0.03,0 -0.09,0.06 -0.03,0.15 -0.06,0.27 0,0.12 0,0.24 0,0.57 0.51,1.32 0.54,0.72 0.54,0.78 0,0 -0.15,0.24 -0.12,0.21 -0.39,0.69 -0.54,0.9 -0.54,1.68 0,1.83 1.47,2.91 -0.03,0.09 -0.03,0.21 0,0.45 0.78,0.99 0.3,0.21 0.3,0.87 0,0.72 -0.39,1.2 -0.45,0.57 -1.11,0.54 l 0.24,0.36 q -0.39,0.69 -0.39,1.14 0,0.57 0.36,0.99 0.36,0.42 0.96,0.42 0.66,0 1.02,-0.6 0.57,0.42 1.23,0.39 0.66,-0.06 0.96,-0.3 0.12,-0.06 0.06,-0.18 -0.09,-0.06 -0.21,0.03 -0.39,0.24 -0.87,0.24 -0.57,0 -1.05,-0.39 0.03,-0.06 0.03,-0.51 0,-0.51 -0.45,-0.51 -0.36,0 -0.36,0.39 0,0.39 0.39,0.6 -0.24,0.63 -0.81,0.63 -0.42,0 -0.72,-0.42 -0.3,-0.39 -0.3,-0.78 0,-0.33 0.78,-1.26 0.81,-0.99 0.84,-1.47 0.09,-0.78 -0.09,-1.59 0.42,-0.18 0.57,-0.81 1.71,-0.75 1.71,-1.92 0,-0.36 -0.39,-0.81 -0.36,-0.45 -0.72,-0.63 -0.06,-0.03 -0.12,0.03 0,0.12 0.09,0.15 0.84,0.48 0.84,1.35 0,0.21 -0.12,0.45 -0.12,0.24 -0.3,0.45 -0.18,0.21 -0.39,0.36 -0.21,0.12 -0.39,0.12 -0.09,0 -0.36,-0.24 -0.24,-0.27 -0.48,-0.27 -0.69,0 -0.96,0.54 -1.26,-0.75 -1.26,-2.13 0,-0.9 1.23,-1.59 1.92,-1.05 1.98,-1.11 0.18,0.18 0.42,0.18 0.42,0 0.87,-0.45 2.37,0.84 2.37,2.97 0,0.18 -0.03,0.36 0,0.18 -0.03,0.39 -0.27,-0.09 -0.51,-0.09 -0.45,0 -0.78,0.3 -0.33,0.3 -0.33,0.72 0,0.69 0.87,0.69 1.17,0 1.17,-2.07 0,-0.84 -0.27,-1.56 h 1.59 q 0.36,0 0.24,0.27 l -0.99,1.71 q -1.68,2.88 -5.13,3.81 -0.06,0.03 -0.09,0.06 0,0.03 -0.03,0.06 -0.15,0.63 -0.03,1.02 0.33,1.17 0.81,1.2 1.83,0.18 3.27,2.1 0.36,0.48 0.87,0.03 0.84,-0.75 2.16,-1.32 0.75,-0.33 1.35,-0.51 0.6,-0.21 1.11,-0.24 0.69,-0.06 0.51,-0.72 l -0.36,-1.41 q -0.15,-0.48 -0.9,-0.81 -0.42,-0.15 -0.42,-0.6 0,-0.24 0.12,-0.39 l 1.02,-1.5 2.82,5.55 q 0.21,0.39 0.48,0.75 0.27,0.39 0.6,0.72 0.84,0.84 1.59,0.84 1.35,0 2.61,-2.37 0.51,-1.02 0.87,-2.01 0.36,-1.02 0.51,-2.07 0.09,-0.57 -0.12,-0.87 l -0.81,-1.5 q -0.12,-0.3 -0.57,-0.3 -0.36,0 -0.6,0.24 l -0.45,0.48 q -0.06,0.06 -0.15,0.06 -0.12,0 -0.18,-0.06 l -0.99,-2.16 h 1.68 q 0.09,0 0.15,-0.09 0.27,-0.66 0.27,-1.56 0,-1.32 -0.48,-2.73 2.04,0.72 2.04,1.29 0,0.42 -0.54,1.32 0.48,0.48 0.54,1.02 0,0.15 0.09,0.15 0.06,0 0.12,-0.15 0.06,-0.15 0.06,-0.3 0,-0.36 -0.42,-0.78 0.51,-0.69 0.51,-1.47 z m -2.85,-4.77 q -0.42,1.02 -0.3,2.49 h -2.16 l 1.38,-2.07 q 0.45,-0.18 0.9,-0.45 h 0.09 q 0.03,0.03 0.09,0.03 z m -5.31,-1.17 q 0.21,0 0.24,0.12 0.03,0.12 0.03,0.21 0,0.24 -0.33,0.48 l -0.39,-0.72 q 0.27,-0.09 0.45,-0.09 z m 7.74,-3.06 q 0,1.26 -1.23,2.67 -1.17,1.26 -2.46,1.71 l -1.59,2.4 q -0.15,0.24 0.12,0.24 h 2.46 l 0.09,0.12 q 0.81,1.68 0.81,3.42 0,0.81 -0.24,1.44 h -1.77 l -0.18,0.21 1.11,2.37 q 0.15,0.24 0.39,0.27 0.27,0 0.45,-0.21 l 0.42,-0.48 q 0.15,-0.15 0.39,-0.15 0.24,-0.06 0.33,0.15 l 0.81,1.53 q 0.12,0.18 0.06,0.66 -0.15,0.96 -0.48,1.95 -0.33,0.99 -0.81,1.95 -1.14,2.31 -2.4,2.31 -0.66,0 -1.44,-0.78 -0.6,-0.57 -0.99,-1.35 l -2.94,-5.76 q -0.12,-0.18 -0.24,-0.03 l -1.14,1.65 q -0.18,0.27 -0.18,0.57 0,0.6 0.63,0.9 0.66,0.33 0.69,0.6 l 0.36,1.41 q 0.09,0.33 -0.21,0.36 -1.14,0.09 -2.52,0.72 -1.32,0.6 -2.28,1.41 -0.33,0.24 -0.45,0.03 -1.5,-2.04 -3.51,-2.22 -0.39,-0.06 -0.51,-0.96 -0.03,-0.09 -0.03,-0.36 0,-0.3 0.03,-0.45 3.57,-1.02 5.22,-3.9 l 0.99,-1.74 q 0.03,-0.03 0.03,-0.15 0,-0.57 -0.51,-0.57 h -1.74 q -0.36,-0.69 -1.02,-1.17 v -2.25 q 0,-0.18 -0.18,-0.15 -1.23,0.27 -1.89,0.27 -1.95,0 -3.12,-1.53 -1.08,-1.38 -1.08,-3.39 0,-2.4 1.44,-4.08 1.44,-1.68 3.81,-1.68 0.99,0 2.49,0.54 1.47,0.54 1.95,0.54 0.66,0 1.38,-0.78 0.06,-0.06 0.09,-0.06 0.06,0 0.12,0.06 l 1.5,1.8 q -0.36,0.45 -0.63,0.9 -0.03,0.03 -0.03,0.06 0,0.06 0.03,0.09 l 1.65,3.03 q 0.03,0.15 0.18,0.09 0.24,-0.12 0.42,-0.48 0.21,-0.39 0.15,-0.66 -0.15,-0.27 -0.84,-0.27 -0.24,0 -0.33,0.03 l -0.96,-1.77 q 2.01,-3.18 4.14,-3.18 0.78,0 1.74,0.54 0.93,0.54 1.17,0.54 0.21,0 0.6,-0.18 0.39,-0.21 0.63,-0.21 0.48,0 0.75,0.45 0.3,0.45 0.3,0.96 z m -12.66,6.63 q -0.03,-0.36 -0.66,-1.08 -0.57,-0.48 -1.68,-0.57 l -0.72,-1.38 q -1.05,-0.66 -1.92,-0.66 -0.66,0 -1.14,0.45 -0.45,0.42 -0.51,1.05 -0.03,0.39 0.12,0.75 0.15,0.33 0.42,0.57 0.3,0.24 0.66,0.39 0.39,0.15 0.78,0.15 1.14,0 2.19,-0.96 l 0.84,1.65 q 0.39,0.27 1.11,0.18 0.57,-0.03 0.51,-0.54 z m 11.7,-7.11 q 0.06,-0.24 -0.15,-0.27 -0.21,-0.09 -0.33,0.09 -0.3,0.48 -0.63,0.48 -0.3,0 -1.2,-0.63 -0.87,-0.66 -1.77,-0.66 -1.62,0 -3.54,2.46 -0.12,0.12 -0.12,0.27 0,0.3 0.45,0.21 0.09,-0.03 0.33,-0.03 0.57,0 2.13,1.2 l -2.07,3.69 -2.28,-4.59 q -0.54,-1.08 -0.54,-1.77 0,-0.18 0.03,-0.24 0.09,-0.3 -0.12,-0.33 -0.18,-0.09 -0.42,0.06 -0.66,0.39 -0.96,0.39 -0.39,0 -1.83,-0.63 -1.35,-0.66 -2.25,-0.66 -2.04,0 -3.51,1.53 -1.5,1.5 -1.5,3.51 0,0.81 0.24,1.53 0.24,0.72 0.66,1.26 0.45,0.54 1.08,0.84 0.66,0.3 1.47,0.3 0.6,0 1.5,-0.27 1.14,-0.33 1.14,-0.84 0,-0.15 -0.21,-0.15 -0.09,0 -0.93,0.36 -0.9,0.33 -1.35,0.33 -1.26,0 -2.07,-0.84 -0.78,-0.84 -0.78,-2.1 0,-0.93 0.42,-1.59 0.51,-0.78 1.38,-0.78 0.42,0 1.71,0.6 1.26,0.57 2.16,0.57 2.22,0 3.78,-2.28 0.06,0.63 0.45,1.47 l 2.4,4.89 q -0.24,0.42 -0.39,0.69 -0.15,0.27 -0.24,0.42 h -0.09 q -0.63,-1.35 -1.11,-2.34 -0.48,-1.02 -0.81,-1.71 -0.24,-0.51 -0.39,-0.93 -0.15,-0.42 -0.18,-0.72 0.06,-0.18 -0.12,-0.24 -0.15,-0.06 -0.3,0.09 -1.41,1.41 -2.7,1.53 -0.15,0.03 -0.21,0.18 0,0.21 0.18,0.24 0.33,0.12 0.6,0.18 0.27,0.06 0.45,0.12 0.66,0.24 0.87,0.72 l 1.35,2.88 h -3.18 v 2.13 h 4.2 l 0.12,0.24 -2.19,3.93 q -0.87,1.56 -2.19,2.7 -1.47,1.29 -3.03,1.62 -0.15,0.06 -0.15,0.15 0,0.15 0.15,0.21 1.59,0.69 2.85,2.22 0.18,0.21 0.48,0 2.07,-1.56 4.29,-2.25 0.21,-0.03 0.21,-0.27 0,-0.24 -0.21,-0.27 -1.89,-0.48 -1.89,-1.83 0,-0.57 0.45,-1.44 l 1.86,-3.42 3.12,6.57 q 0.45,0.93 0.75,1.5 0.3,0.57 0.45,0.81 0.51,0.69 1.26,0.69 1.77,0 2.73,-5.49 0.03,-0.39 -0.33,-0.39 -0.21,0 -0.24,0.12 -0.15,0.33 -0.42,0.6 -0.27,0.24 -0.6,0.45 l -3.18,-6.45 h 2.85 v -2.13 h -3.93 q -0.15,-0.36 -0.18,-0.39 l 2.55,-4.62 q 1.38,-0.03 2.4,-1.11 0.96,-0.96 1.32,-2.37 z m -2.37,17.31 q -0.09,0.03 -0.33,0.03 -1.02,0 -2.01,-2.1 l -2.55,-5.34 0.66,-1.2 z m -9.63,-10.14 q 0.03,0.15 -0.27,0.18 -0.45,0.09 -0.87,-0.15 l -0.72,-1.41 q 1.74,0.33 1.86,1.38 z m -2.31,-1.62 q -0.96,0.93 -2.04,0.93 -0.66,0 -1.2,-0.42 -0.54,-0.45 -0.48,-1.11 0.15,-1.23 1.35,-1.23 0.72,0 1.71,0.54 z" />
      <path
         id="path20"
         style=""
         d="m 144.67891,90.13 v -2.4 l -0.87,-2.67 q -0.06,-0.09 -0.15,-0.09 h -2.52 v -3.66 l -0.51,-1.38 q -0.27,-0.42 -0.66,-0.42 h -0.6 q -0.33,0 -0.57,0.6 -0.9,3.96 -4.05,5.73 -0.09,0.09 -0.09,0.12 v 3.09 l 0.69,1.17 q 0.06,0.06 0.12,0.06 h 1.59 v 5.94 q 0,5.22 3.93,5.22 0.78,0 1.44,-0.3 0.66,-0.27 1.14,-0.78 0.48,-0.51 0.75,-1.17 0.27,-0.69 0.27,-1.47 0,-0.15 0,-0.27 0,-0.12 -0.03,-0.27 l -0.66,-1.86 q -0.18,-0.51 -0.81,-0.51 -0.57,0 -0.93,0.69 -0.33,0.69 -0.69,0.69 -0.57,0 -0.57,-1.35 v -4.56 h 3.63 q 0.15,0 0.15,-0.15 z m -0.3,-0.15 h -3.63 q -0.15,0 -0.15,0.15 v 4.71 q 0,1.65 0.87,1.65 0.66,0 1.05,-0.93 0.18,-0.45 0.57,-0.45 0.36,0 0.51,0.33 l 0.66,1.83 q 0.03,0.15 0.03,0.27 0,0.12 0,0.27 0,1.44 -0.93,2.37 -0.93,0.96 -2.37,0.96 -3.63,0 -3.63,-4.92 v -6.09 q 0,-0.15 -0.15,-0.15 h -1.65 l -0.6,-0.99 v -2.97 q 3.24,-1.74 4.14,-5.85 0.09,-0.36 0.27,-0.36 h 0.6 q 0.24,0 0.39,0.27 l 0.48,1.32 v 3.72 q 0,0.15 0.15,0.15 h 2.55 l 0.84,2.55 z m -0.87,-1.11 v -2.85 h -3.84 v -5.61 q 0,-0.15 -0.15,-0.15 -0.15,0 -0.15,0.15 -0.12,2.07 -1.5,3.81 -0.33,0.45 -0.93,0.99 -0.57,0.54 -1.35,1.17 v 2.49 h 2.28 v 6.69 q 0,2.13 0.33,3.03 0.57,1.47 2.43,1.47 2.79,0 2.79,-3.09 0,-0.18 0,-0.36 0,-0.18 -0.03,-0.39 -0.06,-0.15 -0.18,-0.15 -0.21,0 -0.24,0.21 -0.15,0.45 -0.69,0.84 -0.51,0.36 -0.99,0.36 -1.62,0 -1.62,-2.58 v -6.03 z" />
      <path
         id="path22"
         style=""
         d="m 156.27578,89.89 q 0,-1.53 -0.93,-2.7 -0.93,-1.17 -2.4,-1.68 -1.02,-0.33 -1.68,0.06 -1.44,0.81 -2.22,1.32 -0.78,0.48 -0.99,0.63 -1.35,1.14 -1.59,3.18 v 5.1 q 0,0.42 -0.51,0.69 l -0.51,0.27 q -0.36,0.21 -0.24,0.96 l 0.51,1.35 q 0.12,0.33 0.63,0.18 0.18,-0.06 0.36,-0.06 0.09,0 1.32,1.14 1.26,1.17 2.34,1.17 2.28,0 4.95,-3.03 0.06,-0.06 0.03,-0.15 l -0.99,-2.1 q -0.06,-0.15 -0.21,-0.09 -1.44,0.51 -2.04,0.51 -0.39,0 -0.99,-0.15 -0.69,-0.24 -0.69,-0.6 0,-0.33 0.66,-0.63 3.06,-1.38 3.96,-2.22 1.23,-1.14 1.23,-3.15 z m -0.3,0 q 0,1.95 -1.2,2.97 -0.78,0.69 -3.81,2.1 -0.84,0.39 -0.84,0.93 0,0.48 0.81,0.78 0.63,0.27 1.17,0.27 0.51,0 2.01,-0.45 l 0.9,1.89 q -2.46,2.82 -4.65,2.82 -1.02,0 -2.22,-1.17 -1.23,-1.14 -1.44,-1.14 -0.12,0 -0.33,0.06 -0.18,0.03 -0.3,0.03 -0.03,0 -0.06,-0.03 l -0.51,-1.35 q -0.09,-0.18 -0.09,-0.33 0,-0.18 0.15,-0.27 l 0.51,-0.27 q 0.69,-0.36 0.69,-0.93 v -5.07 q 0.18,-1.53 0.78,-2.31 0.45,-0.54 1.95,-1.5 l 1.95,-1.14 q 0.48,-0.3 1.38,0.03 3.15,1.17 3.15,4.08 z m -0.66,-0.3 q 0,-1.17 -0.93,-2.22 -0.9,-1.11 -2.01,-1.11 -0.6,0 -0.93,0.21 -2.52,1.47 -3.03,1.95 -1.2,1.02 -1.2,2.82 v 5.28 l -1.08,0.9 q -0.15,0.15 -0.09,0.27 0.06,0.15 0.18,0.15 h 0.33 q -0.06,0 1.26,1.14 1.29,1.11 2.43,1.11 1.02,0 2.25,-0.9 1.44,-1.11 1.44,-1.74 0,-0.09 -0.06,-0.15 -0.12,-0.12 -0.3,0 -0.6,0.36 -1.5,0.36 -1.74,0 -3.12,-1.92 v -1.35 q 2.85,-0.84 4.2,-1.65 2.16,-1.29 2.16,-3.15 z m -2.82,0.87 q 0,1.98 -3.54,3.45 v -3.87 q 0,-1.71 0.84,-1.71 0.96,0 1.83,0.6 0.87,0.6 0.87,1.53 z m -0.6,0.33 q 0,-0.45 -0.33,-0.9 -0.33,-0.48 -0.75,-0.48 -0.66,0 -0.66,0.57 v 1.89 q 0,0.54 0.54,0.54 0.36,0 0.78,-0.6 0.42,-0.6 0.42,-1.02 z m -0.3,0 q 0,0.18 -0.09,0.42 -0.09,0.21 -0.24,0.42 -0.12,0.18 -0.27,0.33 -0.15,0.15 -0.3,0.15 -0.24,0 -0.24,-0.24 v -1.89 q 0,-0.27 0.36,-0.27 0.33,0 0.54,0.36 0.24,0.36 0.24,0.72 z" />
      <path
         id="path24"
         style=""
         d="m 175.65156,98.14 -0.54,-1.14 q -0.24,-0.42 -0.84,-0.42 -0.45,0 -0.69,-0.51 -0.21,-0.39 -0.21,-0.9 v -4.32 q 0,-0.45 0.3,-0.66 l 1.2,-0.81 q 0.45,-0.33 0.15,-0.93 l -0.39,-0.87 q -0.12,-0.33 -0.81,-0.48 -0.06,-0.03 -0.39,-0.24 -0.3,-0.21 -0.84,-0.63 -1.05,-0.87 -1.8,-0.87 -0.66,0 -1.53,0.51 l -1.17,0.81 q -0.21,0.15 -0.33,-0.03 -0.27,-0.3 -0.45,-0.48 -0.18,-0.21 -0.27,-0.3 -0.6,-0.48 -1.47,-0.48 -0.9,0 -2.64,1.11 -0.27,0.15 -0.42,0 -0.24,-0.24 -0.45,-0.42 -0.18,-0.18 -0.33,-0.3 -0.57,-0.48 -1.38,-0.48 -1.56,0 -3.45,2.64 -0.18,0.6 -0.18,0.87 l 0.33,1.02 q 0.03,0.21 0.33,0.3 0.06,0.03 0.15,0.06 0.12,0.03 0.33,0.06 1.11,0.21 1.11,1.92 v 2.67 q 0,1.92 -1.59,2.43 -0.21,0.06 -0.33,0.33 -0.12,0.27 -0.03,0.48 l 0.48,1.2 q 0.12,0.3 0.66,0.48 0.36,0.15 1.35,0.84 0.96,0.69 1.14,0.69 0.06,0 1.14,-0.81 1.14,-0.78 1.89,-0.78 0.54,0 1.56,0.84 1.02,0.84 1.32,0.84 0.15,0 1.23,-0.9 1.17,-0.96 2.13,-1.29 0.03,0.81 0.75,1.38 0.72,0.6 1.56,0.6 1.59,0 3.24,-2.28 0.3,-0.39 0.18,-0.75 z m -5.73,-0.69 q -1.71,-0.21 -1.71,-1.89 v -4.08 q 0,-0.48 0.33,-0.9 0.33,-0.42 0.81,-0.42 0.57,0 0.57,0.93 z m 5.43,0.81 q 0.09,0.15 -0.12,0.45 -1.62,2.16 -3,2.16 -0.75,0 -1.38,-0.54 -0.63,-0.51 -0.63,-1.26 v -7.98 q 0,-1.23 -0.87,-1.23 -0.63,0 -1.05,0.51 -0.39,0.48 -0.39,1.11 v 4.08 q 0,1.92 2.01,2.19 v 1.11 q -0.42,0.12 -1.92,1.17 -0.72,0.51 -1.08,0.78 -0.36,0.27 -0.36,0.27 -0.21,0 -1.26,-0.84 -1.02,-0.84 -1.62,-0.84 -0.78,0 -1.92,0.78 -1.14,0.81 -1.11,0.81 -0.06,0 -1.11,-0.69 -0.51,-0.36 -0.84,-0.54 -0.3,-0.18 -0.51,-0.27 -0.18,-0.12 -0.27,-0.18 -0.09,-0.06 -0.12,-0.15 l -0.48,-1.2 q -0.15,-0.33 0.15,-0.39 1.8,-0.66 1.8,-2.73 v -2.67 q 0,-1.98 -1.35,-2.22 -0.51,-0.12 -0.57,-0.24 l -0.33,-0.99 q 0.09,-0.57 0.12,-0.6 1.74,-2.52 3.21,-2.52 0.66,0 1.26,0.42 l 0.72,0.72 q 0.12,0.12 0.36,0.12 0.15,0 0.39,-0.09 0.33,-0.24 0.6,-0.39 0.27,-0.15 0.42,-0.27 0.75,-0.42 1.47,-0.42 0.72,0 1.32,0.45 l 0.63,0.72 q 0.3,0.24 0.39,0.24 0.12,0 0.36,-0.18 0.36,-0.24 0.63,-0.42 0.27,-0.21 0.45,-0.33 0.78,-0.51 1.44,-0.51 0.75,0 1.8,0.87 0.51,0.42 0.81,0.63 0.3,0.21 0.36,0.24 0.48,0.09 0.57,0.3 l 0.39,0.87 q 0.18,0.45 -0.03,0.57 l -1.2,0.81 q -0.42,0.27 -0.42,0.9 v 4.32 q 0,0.78 0.36,1.23 0.18,0.21 0.39,0.33 0.24,0.09 0.42,0.15 0.21,0.06 0.36,0.12 0.15,0.03 0.21,0.12 z m -0.66,-0.39 q -0.15,-0.33 -0.45,-0.33 -0.36,0 -0.72,-0.15 -0.33,-0.18 -0.6,-0.45 -0.27,-0.27 -0.45,-0.6 -0.15,-0.36 -0.15,-0.72 v -5.49 q 0,-0.78 1.89,-1.74 0.15,-0.12 0.12,-0.27 -0.06,-0.24 -0.21,-0.18 -0.39,0.09 -1.41,-0.81 -1.14,-0.99 -1.92,-0.99 -1.95,0 -3.84,3.72 0,-1.89 -0.18,-2.58 -0.33,-1.14 -1.35,-1.14 -1.11,0 -2.07,0.96 -0.6,0.6 -1.8,2.58 -0.06,-2.01 -0.18,-2.61 -0.24,-0.9 -0.96,-0.9 -0.75,0 -1.59,0.84 -0.48,0.48 -0.81,0.84 -0.33,0.36 -0.57,0.6 -0.09,0.15 -0.09,0.24 0,0.39 0.36,0.33 1.98,-0.21 1.98,1.71 v 5.28 q 0,1.14 -1.74,2.07 -0.15,0.09 -0.15,0.21 0,0.12 0.15,0.18 1.05,0.27 2.22,1.44 0.39,0.36 0.66,0 0.51,-0.78 1.92,-1.41 0.15,-0.06 0.15,-0.27 0,-0.18 -0.15,-0.24 -0.6,-0.09 -0.99,-0.84 -0.33,-0.72 -0.33,-1.29 v -3.87 q 0,-1.08 0.6,-2.04 0.69,-1.05 1.74,-1.05 1.5,0 1.5,2.37 v 4.29 q 0,1.92 -1.2,2.55 -0.12,0.03 -0.12,0.21 0,0.15 0.12,0.18 0.75,0.12 2.07,1.5 0.3,0.3 0.57,0 0.93,-1.02 1.8,-1.53 0.15,-0.09 0.15,-0.24 0,-0.18 -0.15,-0.24 -0.63,-0.3 -1.11,-1.02 -0.45,-0.75 -0.45,-1.44 v -4.2 q 0,-0.78 0.66,-1.62 0.69,-0.87 1.41,-0.87 0.78,0 1.2,0.69 0.45,0.66 0.45,1.47 v 6.33 q 0,2.91 1.32,2.91 0.48,0 1.41,-0.75 0.39,-0.3 0.69,-0.57 0.3,-0.3 0.54,-0.57 0.18,-0.18 0.06,-0.48 z m -10.08,-2.4 v -4.38 q 0,-1.29 -0.84,-1.29 -0.69,0 -1.08,0.81 -0.33,0.72 -0.33,1.44 v 3.66 q 0,1.62 1.11,1.62 1.14,0 1.14,-1.86 z m -0.3,0 q 0,1.56 -0.84,1.56 -0.81,0 -0.81,-1.32 v -3.66 q 0,-0.6 0.24,-1.23 0.3,-0.72 0.87,-0.72 0.54,0 0.54,0.99 z" />
      <path
         id="path26"
         style=""
         d="m 189.53453,88.75 -0.39,-0.96 q -0.15,-0.33 -0.6,-0.54 -0.69,-0.51 -1.11,-0.81 -0.42,-0.3 -0.6,-0.42 -1.05,-0.66 -1.92,-0.66 -1.26,0 -3,1.35 -0.99,-1.14 -2.07,-1.14 -1.14,0 -2.52,0.93 -1.41,0.96 -1.53,1.98 l 0.45,1.44 q 0.15,0.51 0.96,0.51 0.45,0 0.69,0.45 0.27,0.42 0.27,0.9 v 3.09 q 0,1.17 -1.53,1.8 -0.57,0.21 -0.39,0.93 l 0.33,1.26 q 0.18,0.69 0.69,0.69 0.9,0 0.9,0.75 v 1.44 q 0,0.36 -0.3,0.57 l -1.77,1.23 q -0.45,0.33 -0.27,0.81 l 0.51,1.41 q 0.09,0.27 0.36,0.3 0.21,0.06 0.45,-0.09 0.63,-0.24 0.9,-0.24 0.6,0 1.74,0.48 1.26,0.51 1.92,0.51 0.63,0 1.71,-0.51 1.65,-0.81 1.47,-1.59 l -0.27,-1.2 q -0.06,-0.24 -0.39,-0.33 -0.3,-0.09 -0.57,-0.15 -1.32,-0.3 -1.47,-1.92 0.72,0.36 1.53,0.36 0.9,0 2.52,-1.68 1.44,-1.53 1.44,-2.97 V 91 q 0,-0.27 0.39,-0.54 l 1.23,-0.87 q 0.48,-0.33 0.24,-0.84 z m -0.3,0.12 q 0.15,0.33 -0.09,0.48 l -1.26,0.87 q -0.51,0.36 -0.51,0.78 v 5.73 q 0,1.05 -1.32,2.73 -1.32,1.62 -2.34,1.62 -0.69,0 -1.62,-0.42 -0.21,-0.09 -0.21,0.12 0,2.04 1.71,2.43 0.66,0.09 0.72,0.27 l 0.27,1.2 q 0.06,0.33 -0.15,0.48 -0.39,0.45 -1.29,0.84 -0.9,0.42 -1.44,0.42 -0.57,0 -1.83,-0.51 -1.17,-0.48 -1.83,-0.48 -0.54,0 -1.02,0.3 -0.3,0.12 -0.39,-0.09 l -0.51,-1.41 q -0.09,-0.27 0.15,-0.45 l 1.77,-1.23 q 0.42,-0.33 0.42,-0.81 v -1.44 q 0,-0.42 -0.36,-0.72 -0.36,-0.33 -0.84,-0.33 -0.27,0 -0.39,-0.45 l -0.33,-1.26 q -0.09,-0.39 0.21,-0.6 1.71,-0.72 1.71,-2.07 v -3.09 q 0,-0.66 -0.33,-1.17 -0.33,-0.42 -0.93,-0.48 -0.57,-0.03 -0.66,-0.33 l -0.45,-1.35 q 0.15,-0.9 1.5,-1.77 1.26,-0.81 2.25,-0.81 0.96,0 1.92,1.14 0.09,0.12 0.21,0.03 1.92,-1.38 2.94,-1.38 1.11,0 3.51,1.89 0.39,0.09 0.42,0.36 z m -0.54,-0.3 q 0.12,-0.09 0.09,-0.3 -0.03,-0.21 -0.27,-0.21 -0.27,0 -1.32,-0.93 -1.11,-0.96 -2.22,-0.96 -1.86,0 -4.23,3.54 0,-0.78 -0.03,-1.26 0,-0.51 -0.03,-0.75 -0.18,-1.44 -0.93,-1.44 -1.2,0 -3.21,2.19 -0.18,0.21 -0.12,0.39 0.03,0.21 0.27,0.21 2.31,0 2.31,1.86 v 4.68 q 0,0.42 -0.78,0.96 -1.35,0.96 -1.32,1.17 0.06,0.15 0.21,0.15 0.72,-0.03 1.29,0.33 0.6,0.36 0.6,1.05 v 2.97 q -0.12,0.21 -1.05,0.9 -1.38,0.99 -1.23,1.23 0.12,0.15 0.24,0.12 0.15,-0.03 0.27,-0.06 0.15,0 0.21,0 0.06,0 1.17,0.6 1.08,0.63 2.19,0.63 1.62,0 3.03,-1.44 0.12,-0.12 0.06,-0.3 -0.06,-0.18 -0.24,-0.18 -0.96,-0.06 -1.86,-0.63 -1.05,-0.69 -1.05,-1.53 v -1.89 q 0.99,0.42 1.65,0.42 0.9,0 1.65,-0.54 0.75,-0.54 1.35,-1.41 0.69,-1.02 0.69,-1.8 v -5.61 q 0,-0.63 0.66,-1.02 z m -4.26,7.89 q 0,1.53 -0.48,1.53 -0.57,0 -1.68,-0.81 -1.53,-1.11 -1.53,-1.92 v -3.75 q 0,-0.87 0.66,-1.65 0.66,-0.84 1.5,-0.84 0.63,0 1.08,0.42 0.45,0.39 0.45,0.99 z m -0.51,-0.15 v -5.07 q 0,-1.23 -0.87,-1.23 -0.63,0 -1.02,0.81 -0.3,0.63 -0.3,1.35 v 2.79 q 0,0.63 0.45,1.11 0.66,0.72 1.29,0.72 0.45,0 0.45,-0.48 z m -0.3,0 q 0,0.18 -0.15,0.18 -0.27,0 -0.54,-0.12 -0.24,-0.15 -0.45,-0.36 -0.18,-0.24 -0.33,-0.51 -0.12,-0.27 -0.12,-0.54 v -2.79 q 0,-0.51 0.24,-1.14 0.3,-0.72 0.78,-0.72 0.57,0 0.57,0.93 z" />
      <path
         id="path28"
         style=""
         d="m 201.61562,88.81 -0.27,-1.11 q -0.12,-0.54 -0.69,-0.66 -0.06,-0.03 -0.36,-0.24 -0.3,-0.24 -0.9,-0.72 -1.14,-0.93 -2.13,-0.93 -1.41,0 -4.23,1.92 -1.89,1.32 -1.89,3.24 v 5.01 q 0,0.36 -0.21,0.54 l -0.87,0.72 q -0.24,0.24 -0.12,0.81 l 0.24,1.2 q 0.06,0.24 0.45,0.42 0.15,0.06 0.3,0.12 0.18,0.03 0.33,0.09 l 1.65,1.2 q 0.93,0.72 1.98,0.72 1.89,0 4.53,-2.37 1.14,-1.05 1.14,-2.7 v -5.49 l 0.93,-0.93 q 0.24,-0.24 0.12,-0.84 z m -0.3,0.06 q 0.09,0.36 -0.06,0.51 l -0.96,0.96 q -0.03,0.03 -0.03,0.12 v 5.58 q 0,1.56 -1.02,2.46 -2.64,2.31 -4.35,2.31 -0.96,0 -1.89,-0.69 -1.62,-1.2 -2.16,-1.35 -0.33,-0.09 -0.36,-0.27 l -0.24,-1.2 q -0.09,-0.42 0.03,-0.51 l 0.84,-0.72 q 0.33,-0.27 0.33,-0.78 v -5.01 q 0,-1.77 1.77,-3 2.76,-1.86 4.05,-1.86 0.93,0 2.04,0.93 1.11,0.9 1.29,0.96 0.39,0.03 0.45,0.42 z m -0.48,-0.33 q 0.15,-0.12 0.12,-0.33 -0.03,-0.21 -0.18,-0.15 -0.06,0.03 -0.18,0.03 -0.27,0 -1.38,-1.05 -1.05,-1.08 -1.77,-1.08 -1.35,0 -4.29,2.1 -1.23,0.87 -1.23,2.37 v 5.07 q 0,0.57 -0.63,1.14 l -0.57,0.51 q -0.09,0.09 -0.09,0.21 0,0.33 0.36,0.27 0.24,-0.03 0.75,0.57 0.33,0.42 0.6,0.72 0.27,0.27 0.45,0.42 0.75,0.63 1.65,0.63 1.08,0 3.84,-2.07 0.78,-0.6 0.78,-1.83 v -6.06 q 1.14,-1.05 1.77,-1.47 z m -3.48,8.28 q 0,0.99 -0.39,0.99 -0.36,0 -1.26,-0.63 -2.07,-1.38 -2.07,-2.49 v -5.28 q 0,-1.26 0.9,-1.26 0.36,0 1.11,0.33 1.71,0.87 1.71,2.13 z m -0.42,-0.9 V 91 q 0,-0.27 -0.15,-0.57 -0.15,-0.33 -0.39,-0.6 -0.21,-0.27 -0.48,-0.42 -0.27,-0.18 -0.53999,-0.18 -0.60001,0 -0.60001,1.11 v 4.32 q 0,0.6 0.45,1.26 0.48,0.75 1.05,0.75 0.66,0 0.66,-0.75 z m -0.3,0 q 0,0.45 -0.36,0.45 -0.51,0 -0.87,-0.63 -0.33,-0.57 -0.33,-1.08 v -4.32 q 0,-0.81 0.30001,-0.81 0.20999,0 0.41999,0.15 0.24,0.15 0.42,0.36 0.18,0.21 0.3,0.48 0.12,0.27 0.12,0.48 z" />
      <path
         id="path30"
         style=""
         d="m 214.22453,88.36 -0.48,-1.44 q -0.18,-0.54 -0.66,-0.57 -0.24,-0.03 -0.6,-0.18 -0.36,-0.18 -0.87,-0.48 -0.99,-0.63 -1.74,-0.63 -0.69,0 -1.35,0.36 -0.63,0.36 -0.69,0.36 -0.06,0 -0.72,-0.39 -0.66,-0.39 -1.32,-0.39 -1.14,0 -3.54,2.85 -0.36,0.48 -0.15,1.05 l 0.3,0.78 q 0.21,0.57 0.66,0.63 1.02,0.09 1.02,1.53 v 3.3 q 0,0.33 -0.27,0.54 l -1.38,1.26 q -0.42,0.42 -0.24,0.9 l 0.39,1.02 q 0.27,0.72 0.96,0.57 0.3,-0.03 1.65,0.81 1.35,0.9 2.7,0.9 1.98,0 4.71,-2.46 0.36,-0.39 0.21,-0.78 l -0.54,-1.26 q -0.24,-0.54 -0.9,-0.36 -0.39,0.12 -0.84,0.12 -1.08,0 -1.68,-0.69 -0.57,-0.69 -0.57,-1.77 V 92.2 q 0,-1.59 0.57,-1.59 0.15,0 0.87,0.33 0.72,0.33 1.11,0.33 1.11,0 3.15,-1.95 0.48,-0.36 0.24,-0.96 z m -0.3,0.12 q 0.12,0.36 -0.12,0.6 -1.95,1.89 -2.97,1.89 -0.39,0 -1.11,-0.33 -0.72,-0.33 -0.87,-0.33 -0.48,0 -0.69,0.75 -0.18,0.6 -0.18,1.14 v 1.74 q 0,1.26 0.63,2.01 0.66,0.75 1.92,0.75 0.45,0 0.9,-0.12 0.39,-0.09 0.54,0.18 l 0.54,1.26 q 0.06,0.12 0.06,0.15 0,0.15 -0.18,0.27 -2.73,2.4 -4.5,2.4 -1.32,0 -2.7,-0.93 -0.09,-0.09 -1.29,-0.57 -0.93,-0.39 -1.02,-0.6 l -0.39,-1.02 q -0.15,-0.33 0.12,-0.54 l 1.38,-1.26 q 0.39,-0.36 0.39,-0.78 v -3.3 q 0,-1.74 -1.29,-1.83 -0.24,-0.03 -0.39,-0.45 l -0.3,-0.78 q -0.18,-0.45 0.09,-0.75 2.25,-2.73 3.3,-2.73 0.63,0 1.2,0.39 0.57,0.39 0.84,0.39 0.09,0 0.3,-0.09 0.21,-0.12 0.48,-0.24 0.27,-0.15 0.6,-0.27 0.33,-0.12 0.66,-0.12 0.72,0 1.65,0.57 1.02,0.66 1.5,0.72 0.27,0.03 0.42,0.39 z m -0.6,-0.6 q 0.12,-0.15 0.06,-0.3 -0.06,-0.12 -0.27,-0.06 -0.06,0.03 -0.21,0.03 -0.3,0 -1.29,-0.81 -0.96,-0.84 -1.56,-0.84 -1.08,0 -1.89,0.93 -0.27,0.27 -1.29,1.89 0,-2.88 -1.23,-2.88 -0.51,0 -1.5,1.08 -0.42,0.42 -0.72,0.81 -0.3,0.39 -0.51,0.75 -0.24,0.33 0.18,0.36 0.78,0.03 1.35,0.51 0.57,0.48 0.57,1.23 v 4.74 q 0,0.63 -1.08,1.47 -1.08,0.87 -1.08,0.99 0,0.27 0.42,0.18 0.21,-0.03 1.68,1.02 1.47,1.08 2.49,1.08 1.02,0 2.31,-0.84 0.57,-0.39 1.02,-0.78 0.48,-0.42 0.87,-0.9 0.15,-0.18 0.06,-0.27 -0.09,-0.12 -0.33,-0.03 -0.36,0.12 -0.84,0.12 -1.32,0 -2.61,-1.02 -1.11,-0.84 -1.11,-1.26 v -3.42 q 0,-2.7 1.14,-2.7 0.15,0 1.02,0.51 0.87,0.51 1.38,0.51 0.57,0 1.62,-0.81 0.96,-0.75 1.35,-1.29 z" />
      <path
         id="path32"
         style=""
         d="m 227.92937,98.35 q 0,-0.09 -0.03,-0.12 l -0.99,-1.74 q -0.06,-0.15 -0.15,-0.09 -0.6,0.15 -0.72,0.18 -0.56999,0 -0.56999,-0.81 v -4.53 l 1.70999,-1.41 q 0.15,-0.15 0.18,-0.48 0.06,-0.42 -0.09,-0.69 l -0.57,-1.05 q -0.06,-0.09 -0.12,-0.09 -0.63,0 -0.9,-0.33 -1.89,-2.19 -3.42,-2.19 -0.84,0 -1.89,0.66 -1.86,1.14 -3.36,2.55 -0.9,0.87 -0.9,2.76 v 4.86 l -1.08,1.08 q -0.3,0.3 -0.15,0.72 l 0.48,1.41 q 0.03,0.12 0.12,0.12 0.57,0.15 1.68,1.14 0.99,0.9 2.25,0.9 0.9,0 1.59,-0.72 0.69,-0.69 0.9,-0.69 0.24,0 0.54,0.39 0.36,0.57 0.48,0.63 0.48,0.36 1.38,0.36 1.08,0 2.19,-0.93 1.02,-0.84 1.44,-1.89 z m -0.33,-0.09 q -0.39,0.99 -1.32,1.74 -1.02,0.87 -1.98,0.87 -0.96,0 -1.56,-0.69 -0.54,-0.69 -0.84,-0.69 -0.42,0 -1.05,0.69 -0.62999,0.72 -1.44,0.72 -1.2,0 -2.16,-0.87 -1.11,-0.99 -1.62,-1.14 l -0.45,-1.32 q -0.12,-0.33 0.03,-0.48 l 1.17,-1.17 v -4.95 q 0,-1.74 0.81,-2.52 0.75,-0.72 1.59,-1.35 0.84,-0.63 1.77,-1.2 1.05,-0.6 1.71,-0.6 1.32,0 3.18,2.07 0.39,0.45 1.08,0.45 l 0.51001,0.96 q 0.09,0.21 0.06,0.48 0,0.3 -0.09,0.33 l -1.77,1.47 q -0.06,0.06 -0.06,0.12 v 4.59 q 0,0.39 0.24,0.75 0.24,0.36 0.63,0.36 0.15,0 0.69,-0.15 z m -0.84,-0.66 q 0.06,-0.15 -0.09,-0.21 -0.12,-0.09 -0.27,-0.06 -0.15,0.03 -0.54,0.03 -1.77,0 -1.77,-1.74 v -5.13 l 2.31,-1.77 q 0.09,-0.03 0.09,-0.18 0,-0.33 -0.51,-0.24 -0.50999,0.06 -1.62,-1.17 -1.13999,-1.26 -2.01,-1.26 -0.69,0 -1.5,0.54 l -2.64,1.77 q -0.72,0.51 -0.93,0.87 -0.33,0.6 -0.33,1.98 v 5.31 l -0.47999,0.57 q -0.30001,0.39 -0.69001,0.54 -0.15,0.03 -0.21,0.24 -0.06,0.18 0.15001,0.24 0.44999,0.15 1.22999,1.23 0.72,0.96 1.98,0.96 0.63,0 1.53,-0.63 0.48,-0.36 1.98,-1.71 -0.06,0.78 0.39,1.47 0.51,0.78 1.23,0.78 0.75,0 1.62,-0.87 0.72,-0.72 1.08,-1.56 z m -4.41,-1.05 q -0.3,1.02 -0.99,1.02 -0.69,0 -2.1,-1.14 -0.57,-0.48 -0.57,-1.35 v -4.92 q 0,-2.04 0.93,-2.04 1.14,0 2.73,2.04 z m -0.42,-0.84 v -4.86 q -0.95999,-1.59 -1.65,-1.59 -0.69,0 -0.69,2.01 v 3.72 q 0,0.57 0.54,1.14 0.57,0.57 1.11,0.57 0.69,0 0.69,-0.99 z m -0.3,0 q 0,0.69 -0.39,0.69 -0.24,0 -0.48,-0.12 -0.21,-0.15 -0.42,-0.36 -0.21,-0.21 -0.33,-0.45 -0.12,-0.24 -0.12,-0.48 v -3.72 q 0,-1.71 0.39,-1.71 0.51,0 1.35,1.38 z" />
      <path
         id="path34"
         style=""
         d="m 242.12875,97.87 -0.45,-0.99 q -0.15,-0.39 -0.66,-0.33 -0.51,0.03 -0.81,-0.39 -0.3,-0.42 -0.3,-0.96 v -4.26 q 0,-0.48 0.15,-0.63 l 1.5,-1.35 q 0.27,-0.3 0.21,-0.69 l -0.15,-0.84 q -0.15,-0.42 -0.93,-0.48 -0.18,-0.03 -1.35,-0.9 -1.17,-0.9 -1.95,-0.9 -1.11,0 -2.85,1.38 -0.39,0.3 -0.57,0.03 -0.96,-1.35 -2.07,-1.35 -1.44,0 -3.54,2.46 -0.33,0.42 -0.12,0.84 l 0.51,1.08 q 0.24,0.42 0.78,0.42 1.02,0 1.02,1.14 v 4.26 q 0,1.05 -1.29,1.95 -0.21,0.12 -0.21,0.72 0,0.81 0.36,0.93 1.38,0.54 2.49,1.92 0.21,0.27 0.48,0.27 0.24,0 0.45,-0.21 1.53,-1.44 3,-2.04 0.09,0.42 0.33,0.84 0.24,0.39 0.57,0.69 0.36,0.33 0.75,0.51 0.42,0.21 0.84,0.21 1.59,0 3.78,-2.46 0.21,-0.21 0.03,-0.87 z m -0.27,0.69 q -2.07,2.34 -3.54,2.34 -0.84,0 -1.56,-0.81 -0.69,-0.84 -0.69,-1.65 v -7.47 q 0,-1.29 -0.81,-1.29 -0.54,0 -0.87,0.69 -0.27,0.54 -0.27,1.14 v 4.23 q 0,1.47 1.62,2.04 v 0.87 q -1.47,0.57 -3.09,2.07 -0.3,0.24 -0.51,0.03 -1.23,-1.41 -2.61,-2.04 -0.15,-0.09 -0.21,-0.54 -0.03,-0.42 0.12,-0.54 1.41,-1.05 1.41,-2.22 v -4.26 q 0,-1.44 -1.32,-1.44 -0.36,0 -0.51,-0.24 l -0.51,-1.08 q -0.15,-0.27 0.09,-0.54 1.92,-2.34 3.3,-2.34 0.93,0 1.83,1.23 0.18,0.27 0.48,0.27 0.21,0 0.54,-0.24 1.74,-1.32 2.64,-1.32 0.69,0 1.83,0.9 1.11,0.87 1.44,0.9 0.6,0.03 0.66,0.3 l 0.15,0.81 q 0.09,0.24 -0.12,0.36 l -1.47,1.35 q -0.27,0.24 -0.27,0.87 v 4.26 q 0,0.66 0.39,1.17 0.39,0.51 1.02,0.48 0.24,0 0.39,0.15 l 0.42,0.99 q 0.18,0.42 0.03,0.57 z m -6.09,-1.11 q -1.35,-0.48 -1.35,-1.71 v -4.23 q 0,-1.53 0.84,-1.53 0.51,0 0.51,0.99 z m 5.67,0.27 q 0.06,-0.09 0,-0.24 -0.03,-0.12 -0.15,-0.12 -2.73,0.18 -2.73,-2.76 v -4.2 q 0,-0.48 0.51,-0.84 1.53,-1.11 1.98,-1.56 0.12,-0.12 0.06,-0.21 -0.06,-0.09 -0.12,-0.09 -0.72,0.09 -1.74,-0.81 -1.14,-0.9 -1.86,-0.9 -1.05,0 -2.04,0.9 -0.54,0.48 -2.1,2.46 0,-1.74 -0.18,-2.34 -0.33,-0.96 -1.26,-0.96 -0.54,0 -1.41,0.78 -0.09,0.06 -1.32,1.29 -0.09,0.09 -0.09,0.24 0,0.39 0.27,0.39 0.09,0 0.21,-0.03 0.15,-0.06 0.21,-0.06 0.57,0 1.08,0.69 0.51,0.69 0.51,1.32 v 5.07 q 0,1.29 -1.32,2.25 -0.18,0.15 -0.18,0.33 0,0.18 0.18,0.21 1.02,0.15 2.07,1.41 0.24,0.3 0.57,0 0.63,-0.6 1.17,-0.99 0.54,-0.42 0.96,-0.66 0.21,-0.12 0.18,-0.27 0,-0.15 -0.18,-0.21 -0.78,-0.27 -1.17,-1.17 -0.39,-0.75 -0.39,-1.65 v -3.48 q 0,-0.93 0.72,-1.8 0.75,-0.84 1.68,-0.84 1.08,0 1.08,1.35 v 7.26 q 0,2.55 1.38,2.55 0.93,0 1.95,-0.69 0.96,-0.69 1.47,-1.62 z" />
      <path
         id="path36"
         style=""
         d="m 253.6,89.89 q 0,-1.53 -0.93,-2.7 -0.93,-1.17 -2.4,-1.68 -1.02,-0.33 -1.68,0.06 -1.44,0.81 -2.22,1.32 -0.78,0.48 -0.99,0.63 -1.35,1.14 -1.59,3.18 v 5.1 q 0,0.42 -0.51,0.69 l -0.51,0.27 q -0.36,0.21 -0.24,0.96 l 0.51,1.35 q 0.12,0.33 0.63,0.18 0.18,-0.06 0.36,-0.06 0.09,0 1.32,1.14 1.26,1.17 2.34,1.17 2.28,0 4.95,-3.03 0.06,-0.06 0.03,-0.15 l -0.99,-2.1 q -0.06,-0.15 -0.21,-0.09 -1.44,0.51 -2.04,0.51 -0.39,0 -0.99,-0.15 -0.69,-0.24 -0.69,-0.6 0,-0.33 0.66,-0.63 3.06,-1.38 3.96,-2.22 1.23,-1.14 1.23,-3.15 z m -0.3,0 q 0,1.95 -1.2,2.97 -0.78,0.69 -3.81,2.1 -0.84,0.39 -0.84,0.93 0,0.48 0.81,0.78 0.63,0.27 1.17,0.27 0.51,0 2.01,-0.45 l 0.9,1.89 q -2.46,2.82 -4.65,2.82 -1.02,0 -2.22,-1.17 -1.23,-1.14 -1.44,-1.14 -0.12,0 -0.33,0.06 -0.18,0.03 -0.3,0.03 -0.03,0 -0.06,-0.03 l -0.51,-1.35 q -0.09,-0.18 -0.09,-0.33 0,-0.18 0.15,-0.27 l 0.51,-0.27 q 0.69,-0.36 0.69,-0.93 v -5.07 q 0.18,-1.53 0.78,-2.31 0.45,-0.54 1.95,-1.5 l 1.95,-1.14 q 0.48,-0.3 1.38,0.03 3.15,1.17 3.15,4.08 z m -0.66,-0.3 q 0,-1.17 -0.93,-2.22 -0.9,-1.11 -2.01,-1.11 -0.6,0 -0.93,0.21 -2.52,1.47 -3.03,1.95 -1.2,1.02 -1.2,2.82 v 5.28 l -1.08,0.9 q -0.15,0.15 -0.09,0.27 0.06,0.15 0.18,0.15 h 0.33 q -0.06,0 1.26,1.14 1.29,1.11 2.43,1.11 1.02,0 2.25,-0.9 1.44,-1.11 1.44,-1.74 0,-0.09 -0.06,-0.15 -0.12,-0.12 -0.3,0 -0.6,0.36 -1.5,0.36 -1.74,0 -3.12,-1.92 v -1.35 q 2.85,-0.84 4.2,-1.65 2.16,-1.29 2.16,-3.15 z m -2.82,0.87 q 0,1.98 -3.54,3.45 v -3.87 q 0,-1.71 0.84,-1.71 0.96,0 1.83,0.6 0.87,0.6 0.87,1.53 z m -0.6,0.33 q 0,-0.45 -0.33,-0.9 -0.33,-0.48 -0.75,-0.48 -0.66,0 -0.66,0.57 v 1.89 q 0,0.54 0.54,0.54 0.36,0 0.78,-0.6 0.42,-0.6 0.42,-1.02 z m -0.3,0 q 0,0.18 -0.09,0.42 -0.09,0.21 -0.24,0.42 -0.12,0.18 -0.27,0.33 -0.15,0.15 -0.3,0.15 -0.24,0 -0.24,-0.24 v -1.89 q 0,-0.27 0.36,-0.27 0.33,0 0.54,0.36 0.24,0.36 0.24,0.72 z" />
      <path
         id="path38"
         style=""
         d="m 267.24578,98.35 q 0,-0.09 -0.03,-0.12 l -0.99,-1.74 q -0.06,-0.15 -0.15,-0.09 -0.6,0.15 -0.72,0.18 -0.57,0 -0.57,-0.81 v -4.53 l 1.71,-1.41 q 0.15,-0.15 0.18,-0.48 0.06,-0.42 -0.09,-0.69 l -0.57,-1.05 q -0.06,-0.09 -0.12,-0.09 -0.63,0 -0.9,-0.33 -1.89,-2.19 -3.42,-2.19 -0.84,0 -1.89,0.66 -1.86,1.14 -3.36,2.55 -0.9,0.87 -0.9,2.76 v 4.86 l -1.08,1.08 q -0.3,0.3 -0.15,0.72 l 0.48,1.41 q 0.03,0.12 0.12,0.12 0.57,0.15 1.68,1.14 0.99,0.9 2.25,0.9 0.9,0 1.59,-0.72 0.69,-0.69 0.9,-0.69 0.24,0 0.54,0.39 0.36,0.57 0.48,0.63 0.48,0.36 1.38,0.36 1.08,0 2.19,-0.93 1.02,-0.84 1.44,-1.89 z m -0.33,-0.09 q -0.39,0.99 -1.32,1.74 -1.02,0.87 -1.98,0.87 -0.96,0 -1.56,-0.69 -0.54,-0.69 -0.84,-0.69 -0.42,0 -1.05,0.69 -0.63,0.72 -1.44,0.72 -1.2,0 -2.16,-0.87 -1.11,-0.99 -1.62,-1.14 l -0.45,-1.32 q -0.12,-0.33 0.03,-0.48 l 1.17,-1.17 v -4.95 q 0,-1.74 0.81,-2.52 0.75,-0.72 1.59,-1.35 0.84,-0.63 1.77,-1.2 1.05,-0.6 1.71,-0.6 1.32,0 3.18,2.07 0.39,0.45 1.08,0.45 l 0.51,0.96 q 0.09,0.21 0.06,0.48 0,0.3 -0.09,0.33 l -1.77,1.47 q -0.06,0.06 -0.06,0.12 v 4.59 q 0,0.39 0.24,0.75 0.24,0.36 0.63,0.36 0.15,0 0.69,-0.15 z m -0.84,-0.66 q 0.06,-0.15 -0.09,-0.21 -0.12,-0.09 -0.27,-0.06 -0.15,0.03 -0.54,0.03 -1.77,0 -1.77,-1.74 v -5.13 l 2.31,-1.77 q 0.09,-0.03 0.09,-0.18 0,-0.33 -0.51,-0.24 -0.51,0.06 -1.62,-1.17 -1.14,-1.26 -2.01,-1.26 -0.69,0 -1.5,0.54 l -2.64,1.77 q -0.72,0.51 -0.93,0.87 -0.33,0.6 -0.33,1.98 v 5.31 l -0.48,0.57 q -0.3,0.39 -0.69,0.54 -0.15,0.03 -0.21,0.24 -0.06,0.18 0.15,0.24 0.45,0.15 1.23,1.23 0.72,0.96 1.98,0.96 0.63,0 1.53,-0.63 0.48,-0.36 1.98,-1.71 -0.06,0.78 0.39,1.47 0.51,0.78 1.23,0.78 0.75,0 1.62,-0.87 0.72,-0.72 1.08,-1.56 z m -4.41,-1.05 q -0.3,1.02 -0.99,1.02 -0.69,0 -2.1,-1.14 -0.57,-0.48 -0.57,-1.35 v -4.92 q 0,-2.04 0.93,-2.04 1.14,0 2.73,2.04 z m -0.42,-0.84 v -4.86 q -0.96,-1.59 -1.65,-1.59 -0.69,0 -0.69,2.01 v 3.72 q 0,0.57 0.54,1.14 0.57,0.57 1.11,0.57 0.69,0 0.69,-0.99 z m -0.3,0 q 0,0.69 -0.39,0.69 -0.24,0 -0.48,-0.12 -0.21,-0.15 -0.42,-0.36 -0.21,-0.21 -0.33,-0.45 -0.12,-0.24 -0.12,-0.48 v -3.72 q 0,-1.71 0.39,-1.71 0.51,0 1.35,1.38 z" />
    </g>
  </g>
</svg>
