<?xml version="1.0" encoding="UTF-8" standalone="no"?>
<svg
   xmlns:dc="http://purl.org/dc/elements/1.1/"
   xmlns:cc="http://creativecommons.org/ns#"
   xmlns:rdf="http://www.w3.org/1999/02/22-rdf-syntax-ns#"
   xmlns:svg="http://www.w3.org/2000/svg"
   xmlns="http://www.w3.org/2000/svg"
   id="svg16"
   width="800px"
   version="1.1"
   height="200px">
  <metadata
     id="metadata20">
    <rdf:RDF>
      <cc:Work
         rdf:about="">
        <dc:format>image/svg+xml</dc:format>
        <dc:type
           rdf:resource="http://purl.org/dc/dcmitype/StillImage" />
      </cc:Work>
    </rdf:RDF>
  </metadata>
  <defs
     id="defs4">
    <style
       id="style2"
       type="text/css"><![CDATA[    
     @font-face {font-family:Pamela;
     src: url('/Users/francesco/Repos/write-logos/src/fonts/Pamela.ttf');}
     @font-face {font-family:Boogie worth;
     src: url('/Users/francesco/Repos/write-logos/src/fonts/Boogie_worth.ttf');}
     ]]></style>
  </defs>
  <g
     id="g14"
     style="font-size:60px">
    <g
       style="text-anchor:middle"
       id="text12"
       aria-label="eXtemporanea">
      <path
         id="path22"
         style="font-family:Pamela"
         d="m 265.98906,79.78 q 0,-3.06 -1.86,-5.4 -1.86,-2.34 -4.8,-3.36 -2.04,-0.66 -3.36,0.12 -2.88,1.62 -4.44,2.64 -1.56,0.96 -1.98,1.26 -2.7,2.28 -3.18,6.36 v 10.2 q 0,0.84 -1.02,1.38 l -1.02,0.54 q -0.72,0.42 -0.48,1.92 l 1.02,2.7 q 0.24,0.66 1.26,0.36 0.36,-0.12 0.72,-0.12 0.18,0 2.64,2.28 2.52,2.34 4.68,2.34 4.56,0 9.9,-6.06 0.12,-0.12 0.06,-0.3 l -1.98,-4.2 q -0.12,-0.3 -0.42,-0.18 -2.88,1.02 -4.08,1.02 -0.78,0 -1.98,-0.3 -1.38,-0.48 -1.38,-1.2 0,-0.66 1.32,-1.26 6.12,-2.76 7.92,-4.44 2.46,-2.28 2.46,-6.3 z m -0.6,0 q 0,3.9 -2.4,5.94 -1.56,1.38 -7.62,4.2 -1.68,0.78 -1.68,1.86 0,0.96 1.62,1.56 1.26,0.54 2.34,0.54 1.02,0 4.02,-0.9 l 1.8,3.78 q -4.92,5.64 -9.3,5.64 -2.04,0 -4.44,-2.34 -2.46,-2.28 -2.88,-2.28 -0.24,0 -0.66,0.12 -0.36,0.06 -0.6,0.06 -0.06,0 -0.12,-0.06 l -1.02,-2.7 q -0.18,-0.36 -0.18,-0.66 0,-0.36 0.3,-0.54 l 1.02,-0.54 q 1.38,-0.72 1.38,-1.86 V 81.46 q 0.36,-3.06 1.56,-4.62 0.9,-1.08 3.9,-3 l 3.9,-2.28 q 0.96,-0.6 2.76,0.06 6.3,2.34 6.3,8.16 z m -1.32,-0.6 q 0,-2.34 -1.86,-4.44 -1.8,-2.22 -4.02,-2.22 -1.2,0 -1.86,0.42 -5.04,2.94 -6.06,3.9 -2.4,2.04 -2.4,5.64 v 10.56 l -2.16,1.8 q -0.3,0.3 -0.18,0.54 0.12,0.3 0.36,0.3 h 0.66 q -0.12,0 2.52,2.28 2.58,2.22 4.86,2.22 2.04,0 4.5,-1.8 2.88,-2.22 2.88,-3.48 0,-0.18 -0.12,-0.3 -0.24,-0.24 -0.6,0 -1.2,0.72 -3,0.72 -3.48,0 -6.24,-3.84 v -2.7 q 5.7,-1.68 8.4,-3.3 4.32,-2.58 4.32,-6.3 z m -5.64,1.74 q 0,3.96 -7.08,6.9 v -7.74 q 0,-3.42 1.68,-3.42 1.92,0 3.66,1.2 1.74,1.2 1.74,3.06 z m -1.2,0.66 q 0,-0.9 -0.66,-1.8 -0.66,-0.96 -1.5,-0.96 -1.32,0 -1.32,1.14 v 3.78 q 0,1.08 1.08,1.08 0.72,0 1.56,-1.2 0.84,-1.2 0.84,-2.04 z m -0.6,0 q 0,0.36 -0.18,0.84 -0.18,0.42 -0.48,0.84 -0.24,0.36 -0.54,0.66 -0.3,0.3 -0.6,0.3 -0.48,0 -0.48,-0.48 v -3.78 q 0,-0.54 0.72,-0.54 0.66,0 1.08,0.72 0.48,0.72 0.48,1.44 z" />
      <path
         id="path24"
         style="font-family:'Boogie worth'"
         d="m 286.50063,58.24 c -2.16001,-0.78 -4.62001,0.24 -5.40001,2.34 l -3.78,9.06 -4.31999,-9.78 c -0.72001,-1.62 -2.58001,-2.34 -4.14,-1.62 -1.62,0.72 -2.34001,2.58 -1.62,4.14 l 6.71999,15.3 -7.02,16.86 c -0.78,2.1 0.36001,4.44 2.58,5.28 2.22001,0.84 4.62,-0.24 5.4,-2.34 l 3.78,-9.06 4.32,9.78 c 0.72001,1.62 2.58,2.34 4.2,1.62 1.56,-0.66 2.28001,-2.58 1.62,-4.14 l -6.77999,-15.3 7.01999,-16.8 c 0.78001,-2.1 -0.36,-4.5 -2.57999,-5.34 z m -16.86001,1.08 c -0.06,-0.3 0.12,-0.54 0.42001,-0.48 2.69999,0.18 3.12,3 3.12,3 0,0 -0.48001,-2.04 -3.18,-2.22 -0.18001,0 -0.36001,-0.12 -0.36001,-0.3 z m 0.24,38.28 c -0.18,0.42 -0.72,0.54 -1.07999,0.24 -0.84001,-0.72 -1.62,-2.58 0.41999,-6.42 -0.71999,2.04 -0.71999,4.5 0.42,5.4 0.24,0.18 0.3,0.48 0.24,0.78 z m 1.32,0.78 c -0.06,0.3 -0.42,0.42 -0.66,0.3 -0.29999,-0.12 -0.41999,-0.42 -0.35999,-0.66 0.12,-0.3 0.41999,-0.42 0.71999,-0.36 0.3,0.12 0.42,0.42 0.3,0.72 z m 14.64,-38.28 c -0.12,0.24 -0.42,0.42 -0.71999,0.3 -0.24001,-0.12 -0.42001,-0.42 -0.30001,-0.72 0.12,-0.24 0.42001,-0.42 0.72,-0.3 0.24,0.12 0.42,0.42 0.3,0.72 z m 0.96001,6.54 c 0.77999,-2.04 0.71999,-4.5 -0.36001,-5.4 -0.24,-0.18 -0.36,-0.48 -0.24,-0.72 0.12,-0.48 0.66001,-0.6 1.02,-0.3 0.90001,0.72 1.68,2.64 -0.41999,6.42 z" />
      <path
         id="path26"
         style="font-family:Pamela"
         d="m 310.99844,80.26 v -4.8 l -1.74,-5.34 q -0.12,-0.18 -0.3,-0.18 h -5.04 v -7.32 l -1.02,-2.76 q -0.54,-0.84 -1.32,-0.84 h -1.2 q -0.66,0 -1.14,1.2 -1.8,7.92 -8.1,11.46 -0.18,0.18 -0.18,0.24 v 6.18 l 1.38,2.34 q 0.12,0.12 0.24,0.12 h 3.18 v 11.88 q 0,10.44 7.86,10.44 1.56,0 2.88,-0.6 1.32,-0.54 2.28,-1.56 0.96,-1.02 1.5,-2.34 0.54,-1.38 0.54,-2.94 0,-0.3 0,-0.54 0,-0.24 -0.06,-0.54 l -1.32,-3.72 q -0.36,-1.02 -1.62,-1.02 -1.14,0 -1.86,1.38 -0.66,1.38 -1.38,1.38 -1.14,0 -1.14,-2.7 v -9.12 h 7.26 q 0.3,0 0.3,-0.3 z m -0.6,-0.3 h -7.26 q -0.3,0 -0.3,0.3 v 9.42 q 0,3.3 1.74,3.3 1.32,0 2.1,-1.86 0.36,-0.9 1.14,-0.9 0.72,0 1.02,0.66 l 1.32,3.66 q 0.06,0.3 0.06,0.54 0,0.24 0,0.54 0,2.88 -1.86,4.74 -1.86,1.92 -4.74,1.92 -7.26,0 -7.26,-9.84 V 80.26 q 0,-0.3 -0.3,-0.3 h -3.3 l -1.2,-1.98 v -5.94 q 6.48,-3.48 8.28,-11.7 0.18,-0.72 0.54,-0.72 h 1.2 q 0.48,0 0.78,0.54 l 0.96,2.64 v 7.44 q 0,0.3 0.3,0.3 h 5.1 l 1.68,5.1 z m -1.74,-2.22 v -5.7 h -7.68 V 60.82 q 0,-0.3 -0.3,-0.3 -0.3,0 -0.3,0.3 -0.24,4.14 -3,7.62 -0.66,0.9 -1.86,1.98 -1.14,1.08 -2.7,2.34 v 4.98 h 4.56 v 13.38 q 0,4.26 0.66,6.06 1.14,2.94 4.86,2.94 5.58,0 5.58,-6.18 0,-0.36 0,-0.72 0,-0.36 -0.06,-0.78 -0.12,-0.3 -0.36,-0.3 -0.42,0 -0.48,0.42 -0.3,0.9 -1.38,1.68 -1.02,0.72 -1.98,0.72 -3.24,0 -3.24,-5.16 V 77.74 Z" />
      <path
         id="path28"
         style="font-family:Pamela"
         d="m 334.19219,79.78 q 0,-3.06 -1.86,-5.4 -1.86,-2.34 -4.8,-3.36 -2.04,-0.66 -3.36,0.12 -2.88,1.62 -4.44,2.64 -1.56,0.96 -1.98,1.26 -2.7,2.28 -3.18,6.36 v 10.2 q 0,0.84 -1.02,1.38 l -1.02,0.54 q -0.72,0.42 -0.48,1.92 l 1.02,2.7 q 0.24,0.66 1.26,0.36 0.36,-0.12 0.72,-0.12 0.18,0 2.64,2.28 2.52,2.34 4.68,2.34 4.56,0 9.9,-6.06 0.12,-0.12 0.06,-0.3 l -1.98,-4.2 q -0.12,-0.3 -0.42,-0.18 -2.88,1.02 -4.08,1.02 -0.78,0 -1.98,-0.3 -1.38,-0.48 -1.38,-1.2 0,-0.66 1.32,-1.26 6.12,-2.76 7.92,-4.44 2.46,-2.28 2.46,-6.3 z m -0.6,0 q 0,3.9 -2.4,5.94 -1.56,1.38 -7.62,4.2 -1.68,0.78 -1.68,1.86 0,0.96 1.62,1.56 1.26,0.54 2.34,0.54 1.02,0 4.02,-0.9 l 1.8,3.78 q -4.92,5.64 -9.3,5.64 -2.04,0 -4.44,-2.34 -2.46,-2.28 -2.88,-2.28 -0.24,0 -0.66,0.12 -0.36,0.06 -0.6,0.06 -0.06,0 -0.12,-0.06 l -1.02,-2.7 q -0.18,-0.36 -0.18,-0.66 0,-0.36 0.3,-0.54 l 1.02,-0.54 q 1.38,-0.72 1.38,-1.86 V 81.46 q 0.36,-3.06 1.56,-4.62 0.9,-1.08 3.9,-3 l 3.9,-2.28 q 0.96,-0.6 2.76,0.06 6.3,2.34 6.3,8.16 z m -1.32,-0.6 q 0,-2.34 -1.86,-4.44 -1.8,-2.22 -4.02,-2.22 -1.2,0 -1.86,0.42 -5.04,2.94 -6.06,3.9 -2.4,2.04 -2.4,5.64 v 10.56 l -2.16,1.8 q -0.3,0.3 -0.18,0.54 0.12,0.3 0.36,0.3 h 0.66 q -0.12,0 2.52,2.28 2.58,2.22 4.86,2.22 2.04,0 4.5,-1.8 2.88,-2.22 2.88,-3.48 0,-0.18 -0.12,-0.3 -0.24,-0.24 -0.6,0 -1.2,0.72 -3,0.72 -3.48,0 -6.24,-3.84 v -2.7 q 5.7,-1.68 8.4,-3.3 4.32,-2.58 4.32,-6.3 z m -5.64,1.74 q 0,3.96 -7.08,6.9 v -7.74 q 0,-3.42 1.68,-3.42 1.92,0 3.66,1.2 1.74,1.2 1.74,3.06 z m -1.2,0.66 q 0,-0.9 -0.66,-1.8 -0.66,-0.96 -1.5,-0.96 -1.32,0 -1.32,1.14 v 3.78 q 0,1.08 1.08,1.08 0.72,0 1.56,-1.2 0.84,-1.2 0.84,-2.04 z m -0.6,0 q 0,0.36 -0.18,0.84 -0.18,0.42 -0.48,0.84 -0.24,0.36 -0.54,0.66 -0.3,0.3 -0.6,0.3 -0.48,0 -0.48,-0.48 v -3.78 q 0,-0.54 0.72,-0.54 0.66,0 1.08,0.72 0.48,0.72 0.48,1.44 z" />
      <path
         id="path30"
         style="font-family:Pamela"
         d="m 372.94375,96.28 -1.08,-2.28 q -0.48,-0.84 -1.68,-0.84 -0.9,0 -1.38,-1.02 -0.42,-0.78 -0.42,-1.8 V 81.7 q 0,-0.9 0.6,-1.32 l 2.4,-1.62 q 0.9,-0.66 0.3,-1.86 l -0.78,-1.74 q -0.24,-0.66 -1.62,-0.96 -0.12,-0.06 -0.78,-0.48 -0.6,-0.42 -1.68,-1.26 -2.1,-1.74 -3.6,-1.74 -1.32,0 -3.06,1.02 l -2.34,1.62 q -0.42,0.3 -0.66,-0.06 -0.54,-0.6 -0.9,-0.96 -0.36,-0.42 -0.54,-0.6 -1.2,-0.96 -2.94,-0.96 -1.8,0 -5.28,2.22 -0.54,0.3 -0.84,0 -0.48,-0.48 -0.9,-0.84 -0.36,-0.36 -0.66,-0.6 -1.14,-0.96 -2.76,-0.96 -3.12,0 -6.9,5.28 -0.36,1.2 -0.36,1.74 l 0.66,2.04 q 0.06,0.42 0.66,0.6 0.12,0.06 0.3,0.12 0.24,0.06 0.66,0.12 2.22,0.42 2.22,3.84 v 5.34 q 0,3.84 -3.18,4.86 -0.42,0.12 -0.66,0.66 -0.24,0.54 -0.06,0.96 l 0.96,2.4 q 0.24,0.6 1.32,0.96 0.72,0.3 2.7,1.68 1.92,1.38 2.28,1.38 0.12,0 2.28,-1.62 2.28,-1.56 3.78,-1.56 1.08,0 3.12,1.68 2.04,1.68 2.64,1.68 0.3,0 2.46,-1.8 2.34,-1.92 4.26,-2.58 0.06,1.62 1.5,2.76 1.44,1.2 3.12,1.2 3.18,0 6.48,-4.56 0.6,-0.78 0.36,-1.5 z m -11.46,-1.38 q -3.42,-0.42 -3.42,-3.78 v -8.16 q 0,-0.96 0.66,-1.8 0.66,-0.84 1.62,-0.84 1.14,0 1.14,1.86 z m 10.86,1.62 q 0.18,0.3 -0.24,0.9 -3.24,4.32 -6,4.32 -1.5,0 -2.76,-1.08 -1.26,-1.02 -1.26,-2.52 V 82.18 q 0,-2.46 -1.74,-2.46 -1.26,0 -2.1,1.02 -0.78,0.96 -0.78,2.22 v 8.16 q 0,3.84 4.02,4.38 v 2.22 q -0.84,0.24 -3.84,2.34 -1.44,1.02 -2.16,1.56 -0.72,0.54 -0.72,0.54 -0.42,0 -2.52,-1.68 -2.04,-1.68 -3.24,-1.68 -1.56,0 -3.84,1.56 -2.28,1.62 -2.22,1.62 -0.12,0 -2.22,-1.38 -1.02,-0.72 -1.68,-1.08 -0.6,-0.36 -1.02,-0.54 -0.36,-0.24 -0.54,-0.36 -0.18,-0.12 -0.24,-0.3 l -0.96,-2.4 q -0.3,-0.66 0.3,-0.78 3.6,-1.32 3.6,-5.46 v -5.34 q 0,-3.96 -2.7,-4.44 -1.02,-0.24 -1.14,-0.48 l -0.66,-1.98 q 0.18,-1.14 0.24,-1.2 3.48,-5.04 6.42,-5.04 1.32,0 2.52,0.84 l 1.44,1.44 q 0.24,0.24 0.72,0.24 0.3,0 0.78,-0.18 0.66,-0.48 1.2,-0.78 0.54,-0.3 0.84,-0.54 1.5,-0.84 2.94,-0.84 1.44,0 2.64,0.9 l 1.26,1.44 q 0.6,0.48 0.78,0.48 0.24,0 0.72,-0.36 0.72,-0.48 1.26,-0.84 0.54,-0.42 0.9,-0.66 1.56,-1.02 2.88,-1.02 1.5,0 3.6,1.74 1.02,0.84 1.62,1.26 0.6,0.42 0.72,0.48 0.96,0.18 1.14,0.6 l 0.78,1.74 q 0.36,0.9 -0.06,1.14 l -2.4,1.62 q -0.84,0.54 -0.84,1.8 v 8.64 q 0,1.56 0.72,2.46 0.36,0.42 0.78,0.66 0.48,0.18 0.84,0.3 0.42,0.12 0.72,0.24 0.3,0.06 0.42,0.24 z m -1.32,-0.78 q -0.3,-0.66 -0.9,-0.66 -0.72,0 -1.44,-0.3 -0.66,-0.36 -1.2,-0.9 -0.54,-0.54 -0.9,-1.2 -0.3,-0.72 -0.3,-1.44 V 80.26 q 0,-1.56 3.78,-3.48 0.3,-0.24 0.24,-0.54 -0.12,-0.48 -0.42,-0.36 -0.78,0.18 -2.82,-1.62 -2.28,-1.98 -3.84,-1.98 -3.9,0 -7.68,7.44 0,-3.78 -0.36,-5.16 -0.66,-2.28 -2.7,-2.28 -2.22,0 -4.14,1.92 -1.2,1.2 -3.6,5.16 -0.12,-4.02 -0.36,-5.22 -0.48,-1.8 -1.92,-1.8 -1.5,0 -3.18,1.68 -0.96,0.96 -1.62,1.68 -0.66,0.72 -1.14,1.2 -0.18,0.3 -0.18,0.48 0,0.78 0.72,0.66 3.96,-0.42 3.96,3.42 v 10.56 q 0,2.28 -3.48,4.14 -0.3,0.18 -0.3,0.42 0,0.24 0.3,0.36 2.1,0.54 4.44,2.88 0.78,0.72 1.32,0 1.02,-1.56 3.84,-2.82 0.3,-0.12 0.3,-0.54 0,-0.36 -0.3,-0.48 -1.2,-0.18 -1.98,-1.68 -0.66,-1.44 -0.66,-2.58 v -7.74 q 0,-2.16 1.2,-4.08 1.38,-2.1 3.48,-2.1 3,0 3,4.74 v 8.58 q 0,3.84 -2.4,5.1 -0.24,0.06 -0.24,0.42 0,0.3 0.24,0.36 1.5,0.24 4.14,3 0.6,0.6 1.14,0 1.86,-2.04 3.6,-3.06 0.3,-0.18 0.3,-0.48 0,-0.36 -0.3,-0.48 -1.26,-0.6 -2.22,-2.04 -0.9,-1.5 -0.9,-2.88 v -8.4 q 0,-1.56 1.32,-3.24 1.38,-1.74 2.82,-1.74 1.56,0 2.4,1.38 0.9,1.32 0.9,2.94 v 12.66 q 0,5.82 2.64,5.82 0.96,0 2.82,-1.5 0.78,-0.6 1.38,-1.14 0.6,-0.6 1.08,-1.14 0.36,-0.36 0.12,-0.96 z m -20.16,-4.8 v -8.76 q 0,-2.58 -1.68,-2.58 -1.38,0 -2.16,1.62 -0.66,1.44 -0.66,2.88 v 7.32 q 0,3.24 2.22,3.24 2.28,0 2.28,-3.72 z m -0.6,0 q 0,3.12 -1.68,3.12 -1.62,0 -1.62,-2.64 V 84.1 q 0,-1.2 0.48,-2.46 0.6,-1.44 1.74,-1.44 1.08,0 1.08,1.98 z" />
      <path
         id="path32"
         style="font-family:Pamela"
         d="m 400.70969,77.5 -0.78,-1.92 q -0.3,-0.66 -1.2,-1.08 -1.38,-1.02 -2.22,-1.62 -0.84,-0.6 -1.2,-0.84 -2.1,-1.32 -3.84,-1.32 -2.52,0 -6,2.7 -1.98,-2.28 -4.14,-2.28 -2.28,0 -5.04,1.86 -2.82,1.92 -3.06,3.96 l 0.9,2.88 q 0.3,1.02 1.92,1.02 0.9,0 1.38,0.9 0.54,0.84 0.54,1.8 v 6.18 q 0,2.34 -3.06,3.6 -1.14,0.42 -0.78,1.86 l 0.66,2.52 q 0.36,1.38 1.38,1.38 1.8,0 1.8,1.5 v 2.88 q 0,0.72 -0.6,1.14 l -3.54,2.46 q -0.9,0.66 -0.54,1.62 l 1.02,2.82 q 0.18,0.54 0.72,0.6 0.42,0.12 0.9,-0.18 1.26,-0.48 1.8,-0.48 1.2,0 3.48,0.96 2.52,1.02 3.84,1.02 1.26,0 3.42,-1.02 3.3,-1.62 2.94,-3.18 l -0.54,-2.4 q -0.12,-0.48 -0.78,-0.66 -0.6,-0.18 -1.14,-0.3 -2.64,-0.6 -2.94,-3.84 1.44,0.72 3.06,0.72 1.8,0 5.04,-3.36 2.88,-3.06 2.88,-5.94 V 82 q 0,-0.54 0.78,-1.08 l 2.46,-1.74 q 0.96,-0.66 0.48,-1.68 z m -0.6,0.24 q 0.3,0.66 -0.18,0.96 l -2.52,1.74 q -1.02,0.72 -1.02,1.56 v 11.46 q 0,2.1 -2.64,5.46 -2.64,3.24 -4.68,3.24 -1.38,0 -3.24,-0.84 -0.42,-0.18 -0.42,0.24 0,4.08 3.42,4.86 1.32,0.18 1.44,0.54 l 0.54,2.4 q 0.12,0.66 -0.3,0.96 -0.78,0.9 -2.58,1.68 -1.8,0.84 -2.88,0.84 -1.14,0 -3.66,-1.02 -2.34,-0.96 -3.66,-0.96 -1.08,0 -2.04,0.6 -0.6,0.24 -0.78,-0.18 l -1.02,-2.82 q -0.18,-0.54 0.3,-0.9 l 3.54,-2.46 q 0.84,-0.66 0.84,-1.62 v -2.88 q 0,-0.84 -0.72,-1.44 -0.72,-0.66 -1.68,-0.66 -0.54,0 -0.78,-0.9 l -0.66,-2.52 q -0.18,-0.78 0.42,-1.2 3.42,-1.44 3.42,-4.14 v -6.18 q 0,-1.32 -0.66,-2.34 -0.66,-0.84 -1.86,-0.96 -1.14,-0.06 -1.32,-0.66 l -0.9,-2.7 q 0.3,-1.8 3,-3.54 2.52,-1.62 4.5,-1.62 1.92,0 3.84,2.28 0.18,0.24 0.42,0.06 3.84,-2.76 5.88,-2.76 2.22,0 7.02,3.78 0.78,0.18 0.84,0.72 z m -1.08,-0.6 q 0.24,-0.18 0.18,-0.6 -0.06,-0.42 -0.54,-0.42 -0.54,0 -2.64,-1.86 -2.22,-1.92 -4.44,-1.92 -3.72,0 -8.46,7.08 0,-1.56 -0.06,-2.52 0,-1.02 -0.06,-1.5 -0.36,-2.88 -1.86,-2.88 -2.4,0 -6.42,4.38 -0.36,0.42 -0.24,0.78 0.06,0.42 0.54,0.42 4.62,0 4.62,3.72 v 9.36 q 0,0.84 -1.56,1.92 -2.7,1.92 -2.64,2.34 0.12,0.3 0.42,0.3 1.44,-0.06 2.58,0.66 1.2,0.72 1.2,2.1 v 5.94 q -0.24,0.42 -2.1,1.8 -2.76,1.98 -2.46,2.46 0.24,0.3 0.48,0.24 0.3,-0.06 0.54,-0.12 0.3,0 0.42,0 0.12,0 2.34,1.2 2.16,1.26 4.38,1.26 3.24,0 6.06,-2.88 0.24,-0.24 0.12,-0.6 -0.12,-0.36 -0.48,-0.36 -1.92,-0.12 -3.72,-1.26 -2.1,-1.38 -2.1,-3.06 v -3.78 q 1.98,0.84 3.3,0.84 1.8,0 3.3,-1.08 1.5,-1.08 2.7,-2.82 1.38,-2.04 1.38,-3.6 V 81.46 q 0,-1.26 1.32,-2.04 z m -8.52,15.78 q 0,3.06 -0.96,3.06 -1.14,0 -3.36,-1.62 -3.06,-2.22 -3.06,-3.84 v -7.5 q 0,-1.74 1.32,-3.3 1.32,-1.68 3,-1.68 1.26,0 2.16,0.84 0.9,0.78 0.9,1.98 z m -1.02,-0.3 V 82.48 q 0,-2.46 -1.74,-2.46 -1.26,0 -2.04,1.62 -0.6,1.26 -0.6,2.7 v 5.58 q 0,1.26 0.9,2.22 1.32,1.44 2.58,1.44 0.9,0 0.9,-0.96 z m -0.6,0 q 0,0.36 -0.3,0.36 -0.54,0 -1.08,-0.24 -0.48,-0.3 -0.9,-0.72 -0.36,-0.48 -0.66,-1.02 -0.24,-0.54 -0.24,-1.08 v -5.58 q 0,-1.02 0.48,-2.28 0.6,-1.44 1.56,-1.44 1.14,0 1.14,1.86 z" />
      <path
         id="path34"
         style="font-family:Pamela"
         d="m 424.87187,77.62 -0.53999,-2.22 q -0.24,-1.08 -1.38001,-1.32 -0.11999,-0.06 -0.72,-0.48 -0.6,-0.48 -1.8,-1.44 -2.27999,-1.86 -4.26,-1.86 -2.82,0 -8.45999,3.84 -3.78001,2.64 -3.78001,6.48 v 10.02 q 0,0.72 -0.42,1.08 l -1.73999,1.44 q -0.48001,0.48 -0.24,1.62 l 0.47999,2.4 q 0.12,0.48 0.9,0.84 0.30001,0.12 0.6,0.24 0.36,0.06 0.66,0.18 l 3.3,2.4 q 1.86001,1.44 3.96,1.44 3.78001,0 9.06,-4.74 2.28001,-2.1 2.28001,-5.4 V 81.16 l 1.85999,-1.86 q 0.48,-0.48 0.24,-1.68 z m -0.59999,0.12 q 0.17999,0.72 -0.12,1.02 l -1.92001,1.92 q -0.06,0.06 -0.06,0.24 v 11.16 q 0,3.12 -2.04,4.92 -5.28,4.62 -8.7,4.62 -1.92,0 -3.77999,-1.38 -3.24001,-2.4 -4.32,-2.7 -0.66001,-0.18 -0.72001,-0.54 l -0.48,-2.4 q -0.18,-0.84 0.06,-1.02 l 1.68,-1.44 q 0.66001,-0.54 0.66001,-1.56 V 80.56 q 0,-3.54 3.53999,-6 5.52001,-3.72 8.1,-3.72 1.86001,0 4.08,1.86 2.22,1.8 2.58001,1.92 0.77999,0.06 0.89999,0.84 z m -0.96001,-0.66 q 0.3,-0.24 0.24,-0.66 -0.06,-0.42 -0.36,-0.3 -0.12,0.06 -0.35999,0.06 -0.54001,0 -2.76001,-2.1 -2.1,-2.16 -3.53999,-2.16 -2.7,0 -8.58001,4.2 -2.46,1.74 -2.46,4.74 V 91 q 0,1.14 -1.26,2.28 l -1.13999,1.02 q -0.18001,0.18 -0.18001,0.42 0,0.66 0.72,0.54 0.48,-0.06 1.5,1.14 0.66,0.84 1.20001,1.44 0.53999,0.54 0.89999,0.84 1.5,1.26 3.30001,1.26 2.15999,0 7.68,-4.14 1.56,-1.2 1.56,-3.66 V 80.02 q 2.27999,-2.1 3.53999,-2.94 z m -6.96,16.56 q 0,1.98 -0.78,1.98 -0.72,0 -2.52,-1.26 -4.14,-2.76 -4.14,-4.98 V 78.82 q 0,-2.52 1.80001,-2.52 0.71999,0 2.21999,0.66 3.42,1.74 3.42,4.26 z m -0.84,-1.8 V 82 q 0,-0.54 -0.29999,-1.14 -0.30001,-0.66 -0.78001,-1.2 -0.42,-0.54 -0.96,-0.84 -0.54,-0.36 -1.07999,-0.36 -1.20001,0 -1.20001,2.22 v 8.64 q 0,1.2 0.90001,2.52 0.95999,1.5 2.09999,1.5 1.32,0 1.32,-1.5 z m -0.6,0 q 0,0.9 -0.72,0.9 -1.02,0 -1.74,-1.26 -0.66,-1.14 -0.66,-2.16 v -8.64 q 0,-1.62 0.60001,-1.62 0.41999,0 0.83999,0.3 0.48001,0.3 0.84,0.72 0.36,0.42 0.6,0.96 0.24,0.54 0.24,0.96 z" />
      <path
         id="path36"
         style="font-family:Pamela"
         d="m 450.08969,76.72 -0.96,-2.88 q -0.36,-1.08 -1.32,-1.14 -0.48,-0.06 -1.2,-0.36 -0.72,-0.36 -1.74,-0.96 -1.98,-1.26 -3.48,-1.26 -1.38,0 -2.7,0.72 -1.26,0.72 -1.38,0.72 -0.12,0 -1.44,-0.78 -1.32,-0.78 -2.64,-0.78 -2.28,0 -7.08,5.7 -0.72,0.96 -0.3,2.1 l 0.6,1.56 q 0.42,1.14 1.32,1.26 2.04,0.18 2.04,3.06 v 6.6 q 0,0.66 -0.54,1.08 l -2.76,2.52 q -0.84,0.84 -0.48,1.8 l 0.78,2.04 q 0.54,1.44 1.92,1.14 0.6,-0.06 3.3,1.62 2.7,1.8 5.4,1.8 3.96,0 9.42,-4.92 0.72,-0.78 0.42,-1.56 l -1.08,-2.52 q -0.48,-1.08 -1.8,-0.72 -0.78,0.24 -1.68,0.24 -2.16,0 -3.36,-1.38 -1.14,-1.38 -1.14,-3.54 V 84.4 q 0,-3.18 1.14,-3.18 0.3,0 1.74,0.66 1.44,0.66 2.22,0.66 2.22,0 6.3,-3.9 0.96,-0.72 0.48,-1.92 z m -0.6,0.24 q 0.24,0.72 -0.24,1.2 -3.9,3.78 -5.94,3.78 -0.78,0 -2.22,-0.66 -1.44,-0.66 -1.74,-0.66 -0.96,0 -1.38,1.5 -0.36,1.2 -0.36,2.28 v 3.48 q 0,2.52 1.26,4.02 1.32,1.5 3.84,1.5 0.9,0 1.8,-0.24 0.78,-0.18 1.08,0.36 l 1.08,2.52 q 0.12,0.24 0.12,0.3 0,0.3 -0.36,0.54 -5.46,4.8 -9,4.8 -2.64,0 -5.4,-1.86 -0.18,-0.18 -2.58,-1.14 -1.86,-0.78 -2.04,-1.2 l -0.78,-2.04 q -0.3,-0.66 0.24,-1.08 l 2.76,-2.52 q 0.78,-0.72 0.78,-1.56 v -6.6 q 0,-3.48 -2.58,-3.66 -0.48,-0.06 -0.78,-0.9 l -0.6,-1.56 q -0.36,-0.9 0.18,-1.5 4.5,-5.46 6.6,-5.46 1.26,0 2.4,0.78 1.14,0.78 1.68,0.78 0.18,0 0.6,-0.18 0.42,-0.24 0.96,-0.48 0.54,-0.3 1.2,-0.54 0.66,-0.24 1.32,-0.24 1.44,0 3.3,1.14 2.04,1.32 3,1.44 0.54,0.06 0.84,0.78 z m -1.2,-1.2 q 0.24,-0.3 0.12,-0.6 -0.12,-0.24 -0.54,-0.12 -0.12,0.06 -0.42,0.06 -0.6,0 -2.58,-1.62 -1.92,-1.68 -3.12,-1.68 -2.16,0 -3.78,1.86 -0.54,0.54 -2.58,3.78 0,-5.76 -2.46,-5.76 -1.02,0 -3,2.16 -0.84,0.84 -1.44,1.62 -0.6,0.78 -1.02,1.5 -0.48,0.66 0.36,0.72 1.56,0.06 2.7,1.02 1.14,0.96 1.14,2.46 v 9.48 q 0,1.26 -2.16,2.94 -2.16,1.74 -2.16,1.98 0,0.54 0.84,0.36 0.42,-0.06 3.36,2.04 2.94,2.16 4.98,2.16 2.04,0 4.62,-1.68 1.14,-0.78 2.04,-1.56 0.96,-0.84 1.74,-1.8 0.3,-0.36 0.12,-0.54 -0.18,-0.24 -0.66,-0.06 -0.72,0.24 -1.68,0.24 -2.64,0 -5.22,-2.04 -2.22,-1.68 -2.22,-2.52 v -6.84 q 0,-5.4 2.28,-5.4 0.3,0 2.04,1.02 1.74,1.02 2.76,1.02 1.14,0 3.24,-1.62 1.92,-1.5 2.7,-2.58 z" />
      <path
         id="path38"
         style="font-family:Pamela"
         d="m 477.49937,96.7 q 0,-0.18 -0.06,-0.24 l -1.97999,-3.48 q -0.12,-0.3 -0.30001,-0.18 -1.19999,0.3 -1.43999,0.36 -1.14,0 -1.14,-1.62 v -9.06 l 3.41999,-2.82 q 0.3,-0.3 0.36,-0.96 0.12,-0.84 -0.18,-1.38 l -1.14,-2.1 q -0.12,-0.18 -0.24,-0.18 -1.26,0 -1.8,-0.66 -3.77999,-4.38 -6.84,-4.38 -1.68,0 -3.78,1.32 -3.72,2.28 -6.72,5.1 -1.8,1.74 -1.8,5.52 v 9.72 l -2.16,2.16 q -0.6,0.6 -0.29999,1.44 l 0.95999,2.82 q 0.06,0.24 0.24,0.24 1.14,0.3 3.36001,2.28 1.97999,1.8 4.5,1.8 1.79999,0 3.17999,-1.44 1.38001,-1.38 1.8,-1.38 0.48,0 1.08001,0.78 0.71999,1.14 0.95999,1.26 0.96,0.72 2.76,0.72 2.16001,0 4.38,-1.86 2.04,-1.68 2.88,-3.78 z m -0.65999,-0.18 q -0.78001,1.98 -2.64001,3.48 -2.04,1.74 -3.96,1.74 -1.92,0 -3.12,-1.38 -1.08,-1.38 -1.68,-1.38 -0.84,0 -2.09999,1.38 -1.26,1.44 -2.88,1.44 -2.40001,0 -4.32001,-1.74 -2.22,-1.98 -3.23999,-2.28 l -0.90001,-2.64 q -0.24,-0.66 0.06,-0.96 l 2.34001,-2.34 v -9.9 q 0,-3.48 1.62,-5.04 1.5,-1.44 3.17999,-2.7 1.68,-1.26 3.54,-2.4 2.10001,-1.2 3.42,-1.2 2.64,0 6.36001,4.14 0.77999,0.9 2.15999,0.9 l 1.02001,1.92 q 0.17999,0.42 0.11999,0.96 0,0.6 -0.18,0.66 l -3.54,2.94 q -0.12,0.12 -0.12,0.24 v 9.18 q 0,0.78 0.48001,1.5 0.47999,0.72 1.26,0.72 0.3,0 1.37999,-0.3 z m -1.68001,-1.32 q 0.12001,-0.3 -0.18,-0.42 -0.24,-0.18 -0.54,-0.12 -0.3,0.06 -1.08,0.06 -3.54,0 -3.54,-3.48 V 80.98 l 4.62,-3.54 q 0.18,-0.06 0.18,-0.36 0,-0.66 -1.02,-0.48 -1.01999,0.12 -3.24,-2.34 -2.27999,-2.52 -4.01999,-2.52 -1.38,0 -3,1.08 l -5.28001,3.54 q -1.44,1.02 -1.86,1.74 -0.66,1.2 -0.66,3.96 v 10.62 l -0.95999,1.14 q -0.60001,0.78 -1.38001,1.08 -0.29999,0.06 -0.41999,0.48 -0.12001,0.36 0.3,0.48 0.89999,0.3 2.45999,2.46 1.44,1.92 3.96,1.92 1.26,0 3.06,-1.26 0.96001,-0.72 3.96001,-3.42 -0.12,1.56 0.77999,2.94 1.02,1.56 2.46,1.56 1.5,0 3.24,-1.74 1.44,-1.44 2.16,-3.12 z m -8.81999,-2.1 q -0.60001,2.04 -1.98001,2.04 -1.38,0 -4.2,-2.28 -1.13999,-0.96 -1.13999,-2.7 v -9.84 q 0,-4.08 1.85999,-4.08 2.28,0 5.46001,4.08 z m -0.84001,-1.68 V 81.7 q -1.91999,-3.18 -3.3,-3.18 -1.38,0 -1.38,4.02 v 7.44 q 0,1.14 1.08001,2.28 1.13999,1.14 2.21999,1.14 1.38,0 1.38,-1.98 z m -0.59999,0 q 0,1.38 -0.78001,1.38 -0.48,0 -0.96,-0.24 -0.42,-0.3 -0.84,-0.72 -0.41999,-0.42 -0.66,-0.9 -0.24,-0.48 -0.24,-0.96 v -7.44 q 0,-3.42 0.78,-3.42 1.02001,0 2.70001,2.76 z" />
      <path
         id="path40"
         style="font-family:Pamela"
         d="m 505.89812,95.74 -0.89999,-1.98 q -0.30001,-0.78 -1.32,-0.66 -1.02001,0.06 -1.62,-0.78 -0.60001,-0.84 -0.60001,-1.92 v -8.52 q 0,-0.96 0.3,-1.26 l 3,-2.7 q 0.54001,-0.6 0.42001,-1.38 l -0.30001,-1.68 q -0.3,-0.84 -1.86,-0.96 -0.36,-0.06 -2.7,-1.8 -2.34,-1.8 -3.9,-1.8 -2.22,0 -5.7,2.76 -0.77999,0.6 -1.14,0.06 -1.92,-2.7 -4.13999,-2.7 -2.88,0 -7.08001,4.92 -0.66,0.84 -0.23999,1.68 l 1.01999,2.16 q 0.48001,0.84 1.56,0.84 2.04001,0 2.04001,2.28 v 8.52 q 0,2.1 -2.58001,3.9 -0.41999,0.24 -0.41999,1.44 0,1.62 0.71999,1.86 2.76,1.08 4.98001,3.84 0.41999,0.54 0.95999,0.54 0.48,0 0.90001,-0.42 3.05999,-2.88 6,-4.08 0.17999,0.84 0.65999,1.68 0.48001,0.78 1.14,1.38 0.72,0.66 1.5,1.02 0.84001,0.42 1.68,0.42 3.18,0 7.56,-4.92 0.42,-0.42 0.06,-1.74 z m -0.54,1.38 q -4.14,4.68 -7.08,4.68 -1.68,0 -3.12,-1.62 -1.38,-1.68 -1.38,-3.3 V 81.94 q 0,-2.58 -1.62,-2.58 -1.08,0 -1.74,1.38 -0.54,1.08 -0.54,2.28 v 8.46 q 0,2.94 3.24001,4.08 v 1.74 q -2.94,1.14 -6.18,4.14 -0.60001,0.48 -1.02001,0.06 -2.46,-2.82 -5.22,-4.08 -0.3,-0.18 -0.42,-1.08 -0.06,-0.84 0.24,-1.08 2.82,-2.1 2.82,-4.44 V 82.3 q 0,-2.88 -2.64,-2.88 -0.72,0 -1.01999,-0.48 l -1.02001,-2.16 q -0.3,-0.54 0.18,-1.08 3.84001,-4.68 6.60001,-4.68 1.86,0 3.65999,2.46 0.36,0.54 0.96001,0.54 0.41999,0 1.07999,-0.48 3.48001,-2.64 5.28,-2.64 1.38001,0 3.66,1.8 2.22001,1.74 2.88,1.8 1.2,0.06 1.32,0.6 l 0.3,1.62 q 0.18,0.48 -0.24,0.72 l -2.94,2.7 q -0.54,0.48 -0.54,1.74 v 8.52 q 0,1.32 0.78,2.34 0.78001,1.02 2.04001,0.96 0.47999,0 0.77999,0.3 l 0.84001,1.98 q 0.35999,0.84 0.06,1.14 z M 493.17813,94.9 q -2.70001,-0.96 -2.70001,-3.42 v -8.46 q 0,-3.06 1.68,-3.06 1.02001,0 1.02001,1.98 z m 11.33999,0.54 q 0.12,-0.18 0,-0.48 -0.06,-0.24 -0.3,-0.24 -5.46,0.36 -5.46,-5.52 v -8.4 q 0,-0.96 1.02,-1.68 3.06,-2.22 3.96001,-3.12 0.23999,-0.24 0.11999,-0.42 -0.11999,-0.18 -0.23999,-0.18 -1.44,0.18 -3.48001,-1.62 -2.28,-1.8 -3.72,-1.8 -2.1,0 -4.08,1.8 -1.08,0.96 -4.2,4.92 0,-3.48 -0.36,-4.68 -0.65999,-1.92 -2.52,-1.92 -1.07999,0 -2.81999,1.56 -0.18001,0.12 -2.64,2.58 -0.18,0.18 -0.18,0.48 0,0.78 0.53999,0.78 0.18,0 0.42,-0.06 0.3,-0.12 0.42001,-0.12 1.13999,0 2.15999,1.38 1.02001,1.38 1.02001,2.64 v 10.14 q 0,2.58 -2.64001,4.5 -0.35999,0.3 -0.35999,0.66 0,0.36 0.35999,0.42 2.04,0.3 4.14001,2.82 0.47999,0.6 1.13999,0 1.26,-1.2 2.34,-1.98 1.08001,-0.84 1.92,-1.32 0.42001,-0.24 0.36001,-0.54 0,-0.3 -0.36001,-0.42 -1.56,-0.54 -2.33999,-2.34 -0.78001,-1.5 -0.78001,-3.3 v -6.96 q 0,-1.86 1.44,-3.6 1.5,-1.68 3.36,-1.68 2.16,0 2.16,2.7 v 14.52 q 0,5.1 2.76001,5.1 1.85999,0 3.89999,-1.38 1.92001,-1.38 2.94,-3.24 z" />
      <path
         id="path42"
         style="font-family:Pamela"
         d="m 528.84063,79.78 q 0,-3.06 -1.86,-5.4 -1.86,-2.34 -4.80001,-3.36 -2.04,-0.66 -3.36,0.12 -2.88,1.62 -4.44,2.64 -1.56,0.96 -1.98,1.26 -2.7,2.28 -3.18,6.36 v 10.2 q 0,0.84 -1.02,1.38 l -1.01999,0.54 q -0.72001,0.42 -0.48001,1.92 l 1.02,2.7 q 0.24,0.66 1.26,0.36 0.36,-0.12 0.72,-0.12 0.18,0 2.64001,2.28 2.52,2.34 4.67999,2.34 4.56001,0 9.9,-6.06 0.12,-0.12 0.06,-0.3 l -1.98,-4.2 q -0.12001,-0.3 -0.42,-0.18 -2.88001,1.02 -4.08,1.02 -0.78,0 -1.98001,-0.3 -1.38,-0.48 -1.38,-1.2 0,-0.66 1.32001,-1.26 6.12,-2.76 7.91999,-4.44 2.46001,-2.28 2.46001,-6.3 z m -0.6,0 q 0,3.9 -2.4,5.94 -1.56001,1.38 -7.62,4.2 -1.68001,0.78 -1.68001,1.86 0,0.96 1.62,1.56 1.26,0.54 2.34001,0.54 1.01999,0 4.01999,-0.9 l 1.8,3.78 q -4.92,5.64 -9.3,5.64 -2.03999,0 -4.43999,-2.34 -2.46,-2.28 -2.88001,-2.28 -0.24,0 -0.66,0.12 -0.35999,0.06 -0.6,0.06 -0.06,0 -0.12,-0.06 l -1.01999,-2.7 q -0.18,-0.36 -0.18,-0.66 0,-0.36 0.29999,-0.54 l 1.02,-0.54 q 1.38,-0.72 1.38,-1.86 V 81.46 q 0.36001,-3.06 1.56,-4.62 0.9,-1.08 3.9,-3 l 3.9,-2.28 q 0.96,-0.6 2.76,0.06 6.30001,2.34 6.30001,8.16 z m -1.32001,-0.6 q 0,-2.34 -1.86,-4.44 -1.8,-2.22 -4.02,-2.22 -1.19999,0 -1.86,0.42 -5.04,2.94 -6.05999,3.9 -2.40001,2.04 -2.40001,5.64 v 10.56 l -2.15999,1.8 q -0.30001,0.3 -0.18001,0.54 0.12001,0.3 0.36001,0.3 h 0.65999 q -0.12,0 2.52,2.28 2.58001,2.22 4.86,2.22 2.04,0 4.5,-1.8 2.88,-2.22 2.88,-3.48 0,-0.18 -0.12,-0.3 -0.24,-0.24 -0.6,0 -1.19999,0.72 -3,0.72 -3.47999,0 -6.24,-3.84 v -2.7 q 5.7,-1.68 8.40001,-3.3 4.31999,-2.58 4.31999,-6.3 z m -5.64,1.74 q 0,3.96 -7.08,6.9 v -7.74 q 0,-3.42 1.68,-3.42 1.92,0 3.66,1.2 1.74,1.2 1.74,3.06 z m -1.19999,0.66 q 0,-0.9 -0.66001,-1.8 -0.66,-0.96 -1.5,-0.96 -1.31999,0 -1.31999,1.14 v 3.78 q 0,1.08 1.07999,1.08 0.72,0 1.56001,-1.2 0.84,-1.2 0.84,-2.04 z m -0.6,0 q 0,0.36 -0.18001,0.84 -0.17999,0.42 -0.48,0.84 -0.23999,0.36 -0.54,0.66 -0.29999,0.3 -0.6,0.3 -0.48,0 -0.48,-0.48 v -3.78 q 0,-0.54 0.72,-0.54 0.66001,0 1.08001,0.72 0.48,0.72 0.48,1.44 z" />
      <path
         id="path44"
         style="font-family:Pamela"
         d="m 556.13219,96.7 q 0,-0.18 -0.06,-0.24 l -1.98,-3.48 q -0.12,-0.3 -0.3,-0.18 -1.2,0.3 -1.44,0.36 -1.14,0 -1.14,-1.62 v -9.06 l 3.42,-2.82 q 0.3,-0.3 0.36,-0.96 0.12,-0.84 -0.18,-1.38 l -1.14,-2.1 q -0.12,-0.18 -0.24,-0.18 -1.26,0 -1.8,-0.66 -3.78,-4.38 -6.84,-4.38 -1.68,0 -3.78,1.32 -3.72,2.28 -6.72,5.1 -1.8,1.74 -1.8,5.52 v 9.72 l -2.16,2.16 q -0.6,0.6 -0.3,1.44 l 0.96,2.82 q 0.06,0.24 0.24,0.24 1.14,0.3 3.36,2.28 1.98,1.8 4.5,1.8 1.8,0 3.18,-1.44 1.38,-1.38 1.8,-1.38 0.48,0 1.08,0.78 0.72,1.14 0.96,1.26 0.96,0.72 2.76,0.72 2.16,0 4.38,-1.86 2.04,-1.68 2.88,-3.78 z m -0.66,-0.18 q -0.78,1.98 -2.64,3.48 -2.04,1.74 -3.96,1.74 -1.92,0 -3.12,-1.38 -1.08,-1.38 -1.68,-1.38 -0.84,0 -2.1,1.38 -1.26,1.44 -2.88,1.44 -2.4,0 -4.32,-1.74 -2.22,-1.98 -3.24,-2.28 l -0.9,-2.64 q -0.24,-0.66 0.06,-0.96 l 2.34,-2.34 v -9.9 q 0,-3.48 1.62,-5.04 1.5,-1.44 3.18,-2.7 1.68,-1.26 3.54,-2.4 2.1,-1.2 3.42,-1.2 2.64,0 6.36,4.14 0.78,0.9 2.16,0.9 l 1.02,1.92 q 0.18,0.42 0.12,0.96 0,0.6 -0.18,0.66 l -3.54,2.94 q -0.12,0.12 -0.12,0.24 v 9.18 q 0,0.78 0.48,1.5 0.48,0.72 1.26,0.72 0.3,0 1.38,-0.3 z m -1.68,-1.32 q 0.12,-0.3 -0.18,-0.42 -0.24,-0.18 -0.54,-0.12 -0.3,0.06 -1.08,0.06 -3.54,0 -3.54,-3.48 V 80.98 l 4.62,-3.54 q 0.18,-0.06 0.18,-0.36 0,-0.66 -1.02,-0.48 -1.02,0.12 -3.24,-2.34 -2.28,-2.52 -4.02,-2.52 -1.38,0 -3,1.08 l -5.28,3.54 q -1.44,1.02 -1.86,1.74 -0.66,1.2 -0.66,3.96 v 10.62 l -0.96,1.14 q -0.6,0.78 -1.38,1.08 -0.3,0.06 -0.42,0.48 -0.12,0.36 0.3,0.48 0.9,0.3 2.46,2.46 1.44,1.92 3.96,1.92 1.26,0 3.06,-1.26 0.96,-0.72 3.96,-3.42 -0.12,1.56 0.78,2.94 1.02,1.56 2.46,1.56 1.5,0 3.24,-1.74 1.44,-1.44 2.16,-3.12 z m -8.82,-2.1 q -0.6,2.04 -1.98,2.04 -1.38,0 -4.2,-2.28 -1.14,-0.96 -1.14,-2.7 v -9.84 q 0,-4.08 1.86,-4.08 2.28,0 5.46,4.08 z m -0.84,-1.68 V 81.7 q -1.92,-3.18 -3.3,-3.18 -1.38,0 -1.38,4.02 v 7.44 q 0,1.14 1.08,2.28 1.14,1.14 2.22,1.14 1.38,0 1.38,-1.98 z m -0.6,0 q 0,1.38 -0.78,1.38 -0.48,0 -0.96,-0.24 -0.42,-0.3 -0.84,-0.72 -0.42,-0.42 -0.66,-0.9 -0.24,-0.48 -0.24,-0.96 v -7.44 q 0,-3.42 0.78,-3.42 1.02,0 2.7,2.76 z" />
    </g>
  </g>
</svg>
