<?xml version="1.0" encoding="UTF-8" standalone="no"?>
<svg
   xmlns:dc="http://purl.org/dc/elements/1.1/"
   xmlns:cc="http://creativecommons.org/ns#"
   xmlns:rdf="http://www.w3.org/1999/02/22-rdf-syntax-ns#"
   xmlns:svg="http://www.w3.org/2000/svg"
   xmlns="http://www.w3.org/2000/svg"
   id="svg16"
   width="800px"
   version="1.1"
   height="200px">
  <metadata
     id="metadata20">
    <rdf:RDF>
      <cc:Work
         rdf:about="">
        <dc:format>image/svg+xml</dc:format>
        <dc:type
           rdf:resource="http://purl.org/dc/dcmitype/StillImage" />
      </cc:Work>
    </rdf:RDF>
  </metadata>
  <defs
     id="defs4">
    <style
       id="style2"
       type="text/css"><![CDATA[    
     @font-face {font-family:Pastiche NF;
     src: url('/Users/francesco/Repos/write-logos/src/fonts/PasticheNF.ttf');}
     @font-face {font-family:Holy Ravioli NF;
     src: url('/Users/francesco/Repos/write-logos/src/fonts/HolyRavioliNF.ttf');}
     ]]></style>
  </defs>
  <g
     id="g14"
     style="font-size:60px">
    <g
       style="text-anchor:middle"
       id="text12"
       aria-label="eXtemporanea">
      <path
         id="path22"
         style="font-family:'Pastiche NF'"
         d="m 173.94578,100 h -39.78 v -1.26 h 5.34 V 58.66 h -0.96 v 40.08 h -1.26 V 58.66 h -3.12 v -1.2 h 39.78 v 18.12 l -9.06,-9.12 v 24.48 l 9.06,-9.12 z m -31.62,-1.26 V 58.66 h -0.96 v 40.08 z m 4.32,0 V 58.66 h -0.96 v 40.08 z m 17.76,-7.32 -11.82,-11.82 v 19.14 h 4.44 z m 8.34,-5.4 v -1.2 l -13.92,13.92 h 1.2 z m -8.34,-19.98 -7.38,-7.38 h -4.44 V 77.8 Z m 8.34,6.54 v -1.2 l -12.72,-12.72 h -1.2 z" />
      <path
         id="path24"
         style="font-family:'Holy Ravioli NF'"
         d="m 206.24172,100 h -3.96 l -4.98,-9.18 -3.78,9.18 h -15.54 l 14.04,-19.14 -13.32,-24.66 h 4.26 z m 18.84,-43.8 -15.12,19.32 14.76,24.48 h -15.18 l -23.22,-43.8 h 12 l 5.7,9.36 3.78,-9.36 z m -13.44,32.76 -6.48,-0.54 3.18,6.06 z m -4.02,-7.68 -6.48,-0.24 3.24,6 z m -3.9,-7.08 -6.42,-0.42 3.12,5.88 z m -3.96,-7.26 -6.24,-0.42 3.12,6 z m -3.54,-6.96 -6.42,-0.42 3.18,6 z" />
      <path
         id="path26"
         style="font-family:'Pastiche NF'"
         d="m 267.52422,94.6 q 0,2.28 -1.62,3.84 -1.62,1.56 -3.9,1.56 -2.28,0 -3.84,-1.56 -1.56,-1.56 -1.56,-3.84 0,-1.68 1.14,-2.82 1.14,-1.2 2.82,-1.2 1.62,0 2.76,1.2 1.2,1.14 1.2,2.76 0,1.56 -1.08,2.76 -1.08,1.14 -2.58,1.2 0.36,0.18 1.14,0.18 1.62,0 2.82,-1.2 1.26,-1.26 1.26,-2.88 V 69.82 l -11.52,-11.52 v 40.68 h 2.52 V 100 h -19.14 v -1.02 h 2.4 V 58.3 l -11.52,11.52 V 94.6 q 0,1.74 1.2,2.94 1.26,1.14 3,1.14 l 1.08,-0.18 q -1.74,-0.12 -2.7,-1.32 -0.9,-1.2 -0.9,-2.94 0,-1.5 1.2,-2.58 1.2,-1.08 2.7,-1.08 1.62,0 2.76,1.2 1.2,1.2 1.2,2.82 0,2.22 -1.62,3.84 -1.56,1.56 -3.84,1.56 -2.28,0 -3.9,-1.56 -1.56,-1.62 -1.56,-3.84 V 57.46 h 40.08 z m -29.7,-35.76 h -1.92 l -7.08,7.02 v 1.98 z m 28.26,9 v -1.98 l -7.02,-7.02 h -1.92 z" />
      <path
         id="path28"
         style="font-family:'Pastiche NF'"
         d="m 308.82859,100 h -39.78 v -1.26 h 5.34 V 58.66 h -0.96 v 40.08 h -1.26 V 58.66 h -3.12 v -1.2 h 39.78 v 18.12 l -9.06,-9.12 v 24.48 l 9.06,-9.12 z m -31.62,-1.26 V 58.66 h -0.96 v 40.08 z m 4.32,0 V 58.66 h -0.96 v 40.08 z m 17.76,-7.32 -11.82,-11.82 v 19.14 h 4.44 z m 8.34,-5.4 v -1.2 l -13.92,13.92 h 1.2 z m -8.34,-19.98 -7.38,-7.38 h -4.44 V 77.8 Z m 8.34,6.54 v -1.2 l -12.72,-12.72 h -1.2 z" />
      <path
         id="path30"
         style="font-family:'Pastiche NF'"
         d="m 360.14453,100 h -4.14 V 73.9 q 0,-5.7 -4.02,-9.84 -4.14,-4.2 -10.26,-4.2 h -0.42 v 34.26 h -11.34 V 59.86 h -0.42 q -6,0 -10.14,4.08 -4.14,4.02 -4.14,9.96 V 100 h -4.14 V 73.9 q 0,-7.56 5.22,-12.9 5.28,-5.34 12.72,-5.34 h 5.04 v 34.38 h 3.06 V 55.72 h 5.04 q 7.5,0 12.72,5.34 5.22,5.34 5.22,12.84 z m -5.82,0 h -4.14 V 73.9 q 0,-4.08 -3.12,-6.42 V 100 h -22.86 V 67.48 q -3.12,2.34 -3.12,6.42 V 100 h -4.14 V 73.9 q 0,-4.86 3.24,-8.4 3.3,-3.54 8.16,-3.9 v 34.26 h 14.58 V 61.6 q 4.8,0.36 8.1,3.96 3.3,3.54 3.3,8.34 z" />
      <path
         id="path32"
         style="font-family:'Pastiche NF'"
         d="m 363.72109,100 h -1.62 V 57.46 h 1.62 z m 3.54,0 h -1.68 V 57.46 h 1.68 z m 3.42,0 h -1.68 V 57.46 h 1.68 z m 3.42,0 h -1.68 V 57.46 h 1.68 z m 3.42,0 h -1.62 V 57.46 h 1.62 z m 20.82,-24.48 q 0,7.32 -5.04,12.6 -5.04,5.22 -12.36,5.52 V 100 h -1.62 V 57.46 h 1.62 q 7.26,0 12.3,5.4 5.1,5.4 5.1,12.66 z m -6.24,11.4 q 4.56,-4.74 4.56,-11.4 0,-6.66 -4.56,-11.4 -4.56,-4.74 -11.16,-5.04 v 2.04 q 5.7,0.3 9.66,4.5 4.02,4.14 4.02,9.9 0,5.76 -3.96,9.9 -3.96,4.14 -9.72,4.44 v 2.1 q 6.66,-0.3 11.16,-5.04 z m -2.58,-2.64 q 3.48,-3.66 3.48,-8.76 0,-5.1 -3.48,-8.76 -3.48,-3.72 -8.58,-3.96 v 2.1 q 4.2,0.24 7.08,3.3 2.88,3.06 2.88,7.32 0,4.2 -2.88,7.26 -2.82,3.06 -7.08,3.36 v 2.1 q 5.1,-0.3 8.58,-3.96 z m -2.7,-2.64 q 2.4,-2.58 2.4,-6.12 0,-3.54 -2.4,-6.12 -2.34,-2.58 -5.88,-2.88 v 2.1 q 2.64,0.3 4.44,2.28 1.8,1.98 1.8,4.62 0,2.64 -1.8,4.62 -1.8,1.98 -4.44,2.28 v 2.04 q 3.54,-0.3 5.88,-2.82 z m -2.58,-2.64 q 1.32,-1.5 1.32,-3.48 0,-1.98 -1.32,-3.42 -1.32,-1.5 -3.3,-1.8 v 2.1 q 1.14,0.3 1.8,1.14 0.72,0.84 0.72,1.98 0,1.08 -0.72,1.98 -0.72,0.9 -1.8,1.2 v 2.1 q 1.98,-0.3 3.3,-1.8 z m -2.46,-3.48 q 0,-0.9 -0.84,-1.38 v 2.76 q 0.84,-0.36 0.84,-1.38 z" />
      <path
         id="path34"
         style="font-family:'Pastiche NF'"
         d="m 422.97859,100 q -9.24,0 -16.02,-6.06 -6.72,-6.12 -6.72,-15.24 0,-9.06 6.78,-15.12 6.78,-6.12 15.96,-6.12 z m -0.6,-1.26 V 97.9 h -7.56 q 2.52,0.84 2.64,0.84 z m 0,-2.1 V 95.8 h -11.76 q 0.42,0.36 1.38,0.84 z m 0,-2.1 V 93.7 h -14.58 q 0.06,0.06 1.02,0.84 z m 0,-2.04 v -0.84 h -16.68 q 0.3,0.24 0.78,0.84 z m 0,-2.1 v -0.84 h -18.24 q 0.06,0.06 0.24,0.36 0.24,0.3 0.3,0.48 z m 0,-2.1 v -0.84 h -19.44 q 0.12,0.12 0.18,0.42 0.12,0.3 0.24,0.42 z m 0,-2.1 v -0.84 h -20.34 q 0.06,0.18 0.3,0.84 z m -14.82,-5.34 -1.8,-0.06 -0.54,-1.68 -0.66,1.68 -1.74,0.06 1.44,1.08 -0.54,1.74 1.5,-1.02 1.44,1.02 -0.48,-1.74 z m 13.74,-1.62 -2.4,-0.06 -0.9,-2.34 -0.84,2.4 h -2.46 l 1.98,1.56 -0.72,2.34 2.04,-1.38 2.1,1.38 -0.72,-2.34 z m -7.68,-1.02 -2.1,-0.06 -0.72,-1.92 -0.78,1.98 h -2.1 l 1.74,1.32 -0.66,2.04 1.8,-1.26 1.74,1.26 -0.6,-2.04 z m -4.44,-6.18 -2.52,-0.06 -0.9,-2.4 -0.78,2.46 h -2.52 l 1.98,1.5 -0.72,2.34 2.04,-1.38 2.1,1.38 -0.66,-2.34 z m 8.64,1.02 -1.8,-0.06 -0.66,-1.74 -0.54,1.74 -1.8,0.06 1.44,1.08 -0.54,1.68 1.44,-1.02 1.56,1.02 -0.54,-1.68 z m -5.04,-3.48 -1.26,-0.06 -0.48,-1.2 -0.42,1.2 -1.26,0.06 1.02,0.78 -0.42,1.26 1.08,-0.72 1.08,0.72 -0.36,-1.26 z m 8.76,-2.82 -1.5,-0.06 -0.54,-1.44 -0.48,1.44 -1.56,0.06 1.26,0.84 -0.48,1.5 1.26,-0.84 1.2,0.84 -0.36,-1.5 z m -6.6,-2.4 -1.8,-0.06 -0.6,-1.62 -0.6,1.68 h -1.86 l 1.5,1.08 -0.54,1.74 1.5,-1.02 1.44,1.02 -0.48,-1.74 z m 6.36,-4.44 -1.26,-0.06 -0.48,-1.2 -0.42,1.2 -1.26,0.06 1.02,0.78 -0.42,1.26 1.08,-0.78 1.08,0.78 -0.36,-1.26 z m 18.18,4.14 q 6.24,6 6.24,14.64 0,8.64 -6.24,14.7 -6.24,6 -15,6.54 v -3.42 q 7.32,-0.48 12.54,-5.52 5.28,-5.1 5.28,-12.3 0,-7.26 -5.28,-12.24 -5.22,-5.04 -12.54,-5.58 v -3.42 q 8.76,0.54 15,6.6 z" />
      <path
         id="path36"
         style="font-family:'Pastiche NF'"
         d="m 448.66797,100 h -1.26 V 57.46 h 1.26 z m 17.1,0 h -15.78 V 57.46 h 15.78 z m -4.74,-4.5 -3.24,-3.24 -3.24,3.24 3.24,3.3 z m -0.12,-8.4 -3.36,-3.24 -3.24,3.24 3.24,3.3 z m 0,-8.4 -3.36,-3.24 -3.24,3.24 3.24,3.3 z m 0,-8.4 -3.36,-3.24 -3.24,3.24 3.24,3.3 z m 0,-8.4 -3.36,-3.24 -3.24,3.24 3.24,3.3 z m 26.28,12.24 q 0,7.56 -4.98,12 -4.98,4.38 -12.72,4.62 l 12.72,9.24 h -5.94 l -7.92,-9.06 V 100 h -1.26 V 57.46 h 0.9 q 8.34,0 13.74,4.32 5.46,4.26 5.46,12.36 z m -3.42,0 q 0,-6.48 -4.5,-10.98 -4.44,-4.5 -10.92,-4.5 v 30.9 q 6.42,0 10.92,-4.5 4.5,-4.5 4.5,-10.92 z" />
      <path
         id="path38"
         style="font-family:'Pastiche NF'"
         d="m 529.14953,100 h -9.3 v -1.68 h 2.7 l -6,-15 h -15.36 l -6,15 h 3.72 V 100 h -9.78 v -1.68 h 4.26 l 6,-15 h -10.26 V 81.7 h 10.92 l 7.92,-19.8 -1.14,-2.88 h -2.94 V 57.4 h 8.22 z m -13.26,-18.3 -7.02,-17.58 -7.08,17.58 z m 16.74,18.3 h -1.74 l -16.98,-42.6 h 1.74 z m 6.06,0 h -4.2 l -17.1,-42.6 h 5.04 v 1.62 h -2.58 l 15.72,39.3 h 3.12 z" />
      <path
         id="path40"
         style="font-family:'Pastiche NF'"
         d="m 571.59484,100.06 q -9.24,-8.04 -27.84,-24 V 88.9 q 0,3.18 1.5,5.52 1.5,2.34 4.5,2.34 1.86,0 3.12,-1.38 1.26,-1.38 1.26,-3.24 0,-1.2 -0.6,-2.16 -0.54,-0.96 -1.62,-0.96 -0.72,0 -1.26,0.42 -0.48,0.42 -0.48,1.08 0,0.06 0,0.24 0.06,0.12 0.06,0.18 l 0.3,0.18 -1.56,2.7 q -1.86,-0.9 -1.86,-3.48 0,-1.92 1.5,-3.18 1.56,-1.26 3.48,-1.26 2.22,0 3.66,1.98 1.44,1.92 1.44,4.14 0,3.24 -2.22,5.52 -2.16,2.28 -5.34,2.28 -4.2,0 -6.6,-3.3 -2.34,-3.3 -2.34,-7.62 V 70.78 l 30.9,26.7 z m 0,-3.66 -30.9,-26.7 V 61 l 30.9,26.64 z m 0,-9.84 -30.9,-26.64 v -2.46 l 27.84,23.94 V 68.44 q 0,-3.18 -1.5,-5.52 -1.5,-2.34 -4.5,-2.34 -1.86,0 -3.12,1.38 -1.2,1.32 -1.2,3.18 0,1.26 0.54,2.22 0.6,0.9 1.74,0.9 0.66,0 1.14,-0.36 0.54,-0.42 0.54,-1.08 0,-0.06 0,-0.18 l -0.06,-0.18 -0.36,-0.3 1.56,-2.7 q 1.86,0.78 1.86,3.54 0,1.92 -1.5,3.18 -1.5,1.2 -3.42,1.2 -2.34,0 -3.78,-1.98 -1.38,-1.98 -1.38,-4.44 0,-3.06 2.28,-5.22 2.28,-2.22 5.34,-2.22 4.14,0 6.48,3.24 2.4,3.24 2.4,7.5 z" />
      <path
         id="path42"
         style="font-family:'Pastiche NF'"
         d="m 612.81297,100 h -39.78 v -1.26 h 5.34 V 58.66 h -0.96 v 40.08 h -1.26 V 58.66 h -3.12 v -1.2 h 39.78 v 18.12 l -9.06,-9.12 v 24.48 l 9.06,-9.12 z m -31.62,-1.26 V 58.66 h -0.96 v 40.08 z m 4.32,0 V 58.66 h -0.96 v 40.08 z m 17.76,-7.32 -11.82,-11.82 v 19.14 h 4.44 z m 8.34,-5.4 v -1.2 l -13.92,13.92 h 1.2 z m -8.34,-19.98 -7.38,-7.38 h -4.44 V 77.8 Z m 8.34,6.54 v -1.2 l -12.72,-12.72 h -1.2 z" />
      <path
         id="path44"
         style="font-family:'Pastiche NF'"
         d="m 655.00891,100 h -9.3 v -1.68 h 2.7 l -6,-15 h -15.36 l -6,15 h 3.72 V 100 h -9.78 v -1.68 h 4.26 l 6,-15 h -10.26 V 81.7 h 10.92 l 7.92,-19.8 -1.14,-2.88 h -2.94 V 57.4 h 8.22 z m -13.26,-18.3 -7.02,-17.58 -7.08,17.58 z m 16.74,18.3 h -1.74 l -16.98,-42.6 h 1.74 z m 6.06,0 h -4.2 l -17.1,-42.6 h 5.04 v 1.62 h -2.58 l 15.72,39.3 h 3.12 z" />
    </g>
  </g>
</svg>
