<?xml version="1.0" encoding="UTF-8" standalone="no"?>
<svg
   xmlns:dc="http://purl.org/dc/elements/1.1/"
   xmlns:cc="http://creativecommons.org/ns#"
   xmlns:rdf="http://www.w3.org/1999/02/22-rdf-syntax-ns#"
   xmlns:svg="http://www.w3.org/2000/svg"
   xmlns="http://www.w3.org/2000/svg"
   id="svg16"
   width="800px"
   version="1.1"
   height="200px">
  <metadata
     id="metadata20">
    <rdf:RDF>
      <cc:Work
         rdf:about="">
        <dc:format>image/svg+xml</dc:format>
        <dc:type
           rdf:resource="http://purl.org/dc/dcmitype/StillImage" />
      </cc:Work>
    </rdf:RDF>
  </metadata>
  <defs
     id="defs4">
    <style
       id="style2"
       type="text/css"><![CDATA[    
     @font-face {font-family:Phantom Rider;
     src: url('/Users/francesco/Repos/write-logos/src/fonts/Phantom_Rider.ttf');}
     @font-face {font-family:Grusskarten Gotisch;
     src: url('/Users/francesco/Repos/write-logos/src/fonts/GrusskartenGotisch.ttf');}
     ]]></style>
  </defs>
  <g
     id="g14"
     style="font-size:60px">
    <g
       style="text-anchor:middle"
       id="text12"
       aria-label="eXtemporanea">
      <path
         id="path22"
         style="font-family:'Phantom Rider'"
         d="m 241.26953,92.705078 q -1.23047,-1.845703 -1.23047,-3.984375 0,-0.292969 0.0293,-0.615234 0.23437,-2.490235 1.58203,-4.804688 1.31836,-2.314453 3.19336,-3.896484 1.05469,-0.908203 2.31445,-1.31836 1.28907,-0.439453 2.28516,-0.439453 0.46875,0 0.9375,0.08789 1.43555,0.234375 2.28516,1.494141 0.32226,0.527343 0.32226,1.201171 0,0.527344 -0.23437,1.171875 -0.52735,1.40625 -1.96289,2.695313 -0.9961,0.908203 -2.31446,1.699219 -1.31836,0.761718 -2.43164,1.113281 -0.9375,0.263672 -1.20117,0.527344 -0.23438,0.234375 -0.23438,0.732422 v 0.117187 q 0,1.611328 0.58594,2.490234 0.58594,0.84961 1.34766,1.054688 0.76172,0.205078 1.34765,0.205078 0.46875,0 0.9668,-0.08789 1.14258,-0.175781 2.25586,-0.673828 3.22266,-1.435547 5.56641,-3.017578 2.34375,-1.611328 5.03906,-3.75 l 0.29297,-0.234375 0.55664,0.820313 q 0.23437,0.351562 0.35156,0.615234 0.11719,0.234375 0.11719,0.322266 0,0.05859 -0.0293,0.08789 -0.55664,0.644532 -2.40234,1.992188 -1.81641,1.347656 -3.8086,2.695312 -1.96289,1.31836 -2.98828,1.904297 -1.90429,1.142578 -3.86718,1.757813 -1.9336,0.585937 -3.42774,0.585937 -0.73242,0 -1.46484,-0.117187 -2.22656,-0.351563 -3.7793,-2.431641 z m 5.44922,-8.144531 q 0.9082,-0.46875 1.8457,-1.171875 0.9375,-0.703125 1.43555,-1.230469 0.52734,-0.556641 0.52734,-0.791016 0,-0.05859 -0.0293,-0.08789 -0.0879,-0.05859 -0.23438,-0.05859 -0.26367,0 -0.76172,0.263672 -0.73242,0.410156 -1.61133,1.113281 -0.8496,0.673828 -1.46484,1.31836 -0.58594,0.615234 -0.61523,0.732421 0,0.117188 0,0.146485 0,0.05859 0.11718,0.05859 0.20508,0 0.79102,-0.292969 z" />
      <path
         id="path24"
         style="font-family:'Grusskarten Gotisch'"
         d="m 283.27,64.96 q 0,-0.9 -0.66,-1.56 -0.6,-0.72 -1.5,-0.72 -0.72,0 -1.32,0.36 -0.54,0.3 -0.9,0.78 -0.36,0.42 -0.54,0.96 -0.12,0.54 -0.06,0.9 -0.3,-0.54 -0.54,-1.02 -0.24,-0.48 -0.48,-0.9 -0.18,0.18 -0.24,0.3 1.38,2.88 2.46,4.92 1.08,2.04 1.92,3.36 l 0.18,-0.3 q -2.88,-5.04 -2.94,-6.06 -0.12,-1.02 0.6,-1.92 0.78,-0.96 1.86,-0.96 0.78,0 1.26,0.6 0.48,0.6 0.48,1.26 0,0.48 -0.42,0.96 -0.36,0.42 -0.9,0.36 -0.9,-0.06 -0.9,-0.84 0,-0.36 0.42,-0.78 l -0.36,-0.18 q -0.42,0.42 -0.42,1.08 0,1.02 1.56,1.2 -0.84,0.84 -0.84,1.38 0,1.26 1.08,1.26 0.06,0 0.72,-0.48 l 0.12,-0.54 -0.42,-0.12 q -0.24,0.6 -0.42,0.6 -0.6,-0.18 -0.6,-0.66 0,-0.36 0.9,-1.38 0.9,-0.96 0.9,-1.86 z m -7.62,30.78 q 0.18,0.54 0.6,-0.06 l -0.18,-0.36 q -0.06,-0.06 -0.06,-0.36 0,-1.44 3.72,-7.32 l 0.18,0.18 q 0.66,-0.3 0.96,-0.36 0.78,-0.24 1.62,0.42 0.84,0.6 0.84,1.44 0,1.98 -1.68,1.98 -1.38,0 -1.38,-1.38 0,-1.14 1.14,-1.14 0.66,0 0.66,0.72 0,0.36 -0.36,0.6 l 0.24,0.3 q 0.48,-0.48 0.48,-0.9 0,-1.08 -1.08,-1.08 -1.44,0 -1.44,1.56 0,1.68 1.8,1.68 1.26,0 1.8,-1.32 -0.06,0.12 -0.18,0.48 -0.06,0.3 -0.24,0.78 -0.24,0.72 -0.24,1.26 0,2.04 1.5,2.04 1.62,0 1.62,-1.62 0,-0.54 -0.3,-0.84 -0.24,-0.3 -0.6,-0.3 -1.02,0 -1.02,0.9 0,0.18 0.12,0.54 l 0.36,-0.12 q -0.12,-0.36 -0.12,-0.42 0,-0.48 0.42,-0.54 0.78,-0.12 0.78,0.84 0,1.2 -1.32,1.2 -1.08,0 -1.08,-1.68 0,-0.18 0.06,-0.54 0.12,-0.42 0.24,-0.78 0.18,-0.42 0.3,-0.78 0.12,-0.42 0.12,-0.6 l -0.36,-0.06 q 0.12,-0.6 0.12,-0.84 0,-0.84 -0.78,-1.5 -0.72,-0.72 -1.62,-0.72 -0.3,0 -0.48,0.06 -0.3,0.12 -0.54,0.18 -0.18,0.06 -0.3,0.12 l 0.3,-0.48 q 0.54,-0.78 0.42,-1.5 l -0.36,0.06 q 0.12,0.54 -0.36,1.2 -0.96,1.38 -1.86,2.88 -0.84,1.44 -1.62,3 -0.42,0.78 -0.6,1.56 -0.18,0.78 -0.24,1.62 z m 4.56,-3.6 q -1.5,0 -1.5,1.38 0,1.32 1.5,1.32 1.5,0 1.5,-1.32 0,-1.38 -1.5,-1.38 z m 0,0.42 q 1.14,0 1.14,0.96 0,0.96 -1.14,0.96 -1.14,0 -1.14,-0.96 0,-1.02 1.14,-1.02 z m 15.9,-26.28 v 0.36 q 0.54,0 1.08,-0.48 0.6,-0.48 0.6,-1.02 0,-0.48 -0.3,-0.78 l -0.3,0.24 q 0.24,0.24 0.24,0.54 0,0.42 -0.42,0.78 -0.42,0.36 -0.9,0.36 z m -7.38,10.62 -0.18,0.36 q 1.2,0.66 2.4,0.66 1.32,0 2.82,-1.02 1.5,-1.08 1.5,-2.4 0,-2.64 -2.28,-2.64 -0.78,0 -1.44,0.72 -0.66,0.66 -0.66,1.44 0,0.48 0.36,0.9 0.42,0.42 0.9,0.42 1.32,0 1.2,-1.38 h -0.36 q 0.12,1.02 -0.84,1.02 -0.9,0 -0.9,-0.96 0,-0.66 0.54,-1.2 0.6,-0.6 1.2,-0.6 1.92,0 1.92,2.28 0,1.08 -1.38,2.1 -1.32,0.96 -2.58,0.96 -1.02,0 -2.22,-0.66 z m 7.08,8.52 -0.3,0.18 q 0,0.06 0.06,0.06 v 0.12 l 0.06,0.06 q 0,0.66 -0.78,0.66 -1.02,0 -1.02,-0.96 0,-1.5 1.56,-1.5 1.92,0 1.92,1.86 0,2.1 -2.04,2.1 -2.28,0 -5.04,-3.3 -0.36,-0.36 -3.78,-5.1 0.66,-0.48 0.66,-1.5 0,-1.08 -1.26,-1.56 l 3.24,-5.76 q 2.52,-3.9 4.74,-3.9 0.66,0 1.08,0.6 0.48,0.6 0.48,1.32 0,0.78 -0.6,1.2 -0.6,0.36 -1.2,0.24 -0.9,-0.18 -0.66,-1.26 l -0.36,-0.06 q -0.36,1.5 1.08,1.74 0.72,0.12 1.44,-0.42 0.72,-0.54 0.72,-1.32 0,-0.84 -0.6,-1.62 -0.54,-0.78 -1.38,-0.78 -2.4,0 -5.04,4.08 -0.84,1.56 -1.74,3.12 -0.9,1.5 -1.74,3.06 1.44,0.48 1.44,1.32 0,1.02 -0.84,1.38 3.78,5.16 4.02,5.4 2.94,3.48 5.34,3.48 1.02,0 1.68,-0.72 0.72,-0.72 0.72,-1.74 0,-2.22 -2.28,-2.22 -0.78,0 -1.38,0.54 -0.54,0.54 -0.54,1.32 0,1.32 1.38,1.32 1.14,0 1.14,-1.02 0,-0.06 -0.18,-0.42 z m -7.86,-6.3 -0.24,0.24 q 2.82,2.82 6.12,2.82 3.3,0 3.3,-2.4 0,-1.74 -1.62,-1.74 -0.54,0 -1.14,0.42 -0.54,0.42 -0.54,0.96 0,1.2 1.14,1.2 0.3,0 0.6,-0.18 l -0.24,-0.3 q -0.36,0.12 -0.36,0.12 -0.78,0 -0.78,-0.84 0,-1.02 1.32,-1.02 1.26,0 1.26,1.38 0,2.04 -2.94,2.04 -3.18,0 -5.88,-2.7 z m 3.18,3.48 -0.36,-0.06 v 0.12 q 0,1.62 1.56,1.62 0.42,0 1.32,-0.42 l -0.12,-0.3 q -1.08,0.36 -1.2,0.36 -1.2,0 -1.2,-1.26 z m -8.28,-20.88 q 1.44,-0.24 1.44,-1.32 0,-0.54 -0.42,-1.32 2.52,1.2 2.52,3.42 0,1.08 -2.16,6.36 -2.1,5.1 -3,6.48 -0.9,-1.08 -1.86,-2.52 -0.96,-1.5 -1.98,-3.36 -2.4,-4.38 -2.4,-6.42 0,-3.12 2.1,-3.84 -0.18,1.26 0,1.62 0.24,0.3 1.32,0.78 1.26,-0.6 1.26,-1.62 0,-1.98 -2.82,-1.98 -2.28,0 -5.64,2.82 -3.18,2.76 -5.82,2.76 -2.28,0 -2.28,-1.44 0,-0.18 0.42,-0.78 0.06,0.78 0.84,0.78 0.78,0.18 1.02,-0.96 0.06,-1.32 -1.44,-1.2 -0.9,0.06 -1.56,0.78 -0.6,0.72 -0.6,1.62 0,1.68 1.68,2.64 1.08,0.6 3.42,1.2 2.34,0.6 3.24,1.2 2.52,1.86 8.94,11.76 -1.38,2.28 -2.82,4.5 -1.38,2.22 -2.76,4.44 -4.44,6.12 -7.62,6.12 -0.36,0.12 -0.48,0.12 -0.96,0 -1.56,-1.68 V 92.5 q 0,-0.96 0.84,-1.14 l 0.66,0.42 -0.54,1.26 0.84,0.06 1.2,-1.26 q -0.6,-1.68 -2.04,-1.68 -1.08,0 -1.86,0.72 -0.72,0.72 -0.72,1.8 0,2.04 2.16,3 1.14,0.6 3.9,1.02 1.02,0.18 3.48,2.46 2.1,2.1 4.86,2.1 1.56,0 2.76,-0.84 1.26,-0.84 1.26,-2.34 0,-0.84 -0.66,-1.5 -0.6,-0.66 -1.5,-0.66 -0.9,0 -1.8,1.5 l 1.02,0.9 0.84,-0.42 0.18,-0.72 q 0.6,0.42 0.6,1.08 0,0.6 -0.72,1.08 -0.66,0.42 -1.32,0.42 -1.56,0 -2.58,-1.56 -0.84,-1.38 -0.84,-3.06 0,-3.06 6.84,-14.22 1.08,1.5 2.16,3.3 1.14,1.8 2.28,3.96 2.88,5.52 2.88,7.68 0,1.32 -1.02,2.4 -0.96,1.08 -2.22,1.08 -1.56,0 -1.8,-0.96 l 0.66,-1.08 1.02,1.02 1.14,-0.96 q -0.06,-1.32 -1.56,-1.32 -0.9,0 -1.56,0.72 -0.66,0.66 -0.66,1.56 0,1.14 0.9,1.98 0.96,0.84 2.1,0.84 2.28,0 3.66,-0.84 0.66,-0.42 2.04,-1.98 1.32,-1.44 2.52,-2.22 0.78,-0.42 2.88,-0.9 2.1,-0.48 2.76,-0.96 1.2,-0.84 1.2,-2.88 0,-0.66 -0.66,-1.44 -0.66,-0.84 -1.32,-0.84 -2.1,0 -2.16,1.68 0.18,0.78 1.2,1.08 l 0.6,-0.42 -0.48,-1.26 0.72,-0.36 q 0.96,0.42 0.96,1.2 0,0.84 -0.84,1.5 -0.78,0.6 -1.68,0.6 -2.52,0 -7.56,-6.72 l -6.3,-9.18 q 1.02,-1.74 2.04,-3.42 1.02,-1.68 2.04,-3.42 2.82,-4.08 5.7,-5.22 0.96,-0.3 1.92,-0.54 0.96,-0.3 1.92,-0.6 2.34,-0.9 2.34,-2.76 0,-2.16 -2.16,-2.16 -1.38,0.3 -1.44,1.5 -0.12,0.66 0.6,0.84 0.6,0.12 1.02,-0.42 0,-0.48 -0.12,-0.84 0.3,-0.18 0.54,0.12 0.3,0.3 0.3,0.72 0,0.42 -1.08,1.14 -1.14,0.66 -1.56,0.66 -2.1,0 -5.04,-2.4 -2.94,-2.4 -5.1,-2.4 -2.82,0 -2.82,1.98 0,0.54 1.2,1.74 z" />
      <path
         id="path26"
         style="font-family:'Phantom Rider'"
         d="m 302.17773,95.488281 q -0.9082,-0.351562 -1.69921,-1.259765 -0.82032,-0.908204 -1.14258,-1.933594 -0.32227,-1.142578 -0.32227,-2.460938 0,-2.050781 0.79102,-4.541015 1.28906,-4.101563 4.39453,-8.408203 l 0.99609,-1.347657 -1.52344,-0.117187 q -0.64453,-0.05859 -1.66992,-0.08789 -1.02539,-0.05859 -1.96289,-0.05859 l -2.10937,-0.0293 0.11718,-0.791016 q 0.0586,-0.322266 0.0879,-0.615234 0.0293,-0.322266 0.0293,-0.439454 0,-0.08789 0.17578,-0.146484 0.17578,-0.05859 0.52735,-0.05859 0.35156,-0.0293 0.67383,-0.0293 0.32226,0 0.76171,0.0293 0.84961,0 2.22657,0.05859 l 4.33593,0.117188 0.9375,-1.083985 q 0.84961,-0.908203 2.19727,-2.314453 1.34766,-1.40625 2.57812,-2.636719 1.23047,-1.230468 1.69922,-1.611328 l 0.79102,-0.644531 3.36914,3.369141 -4.92188,4.921875 h 6.03516 v 0.849609 q 0.0293,0.146484 0.0293,0.292969 0,0.380859 -0.14649,0.55664 -0.17578,0.263672 -0.96679,0.322266 -0.79102,0.05859 -2.60743,0.05859 h -4.24804 l -0.70313,0.966797 q -3.95508,5.24414 -5.53711,10.019531 -0.52734,1.464844 -0.55664,2.285156 0,0.791016 0,0.849609 0,1.435547 0.76172,2.373047 0.64453,0.791016 2.10938,0.791016 0.32226,0 0.67382,-0.0293 1.72852,-0.292969 5.24415,-2.197266 3.54492,-1.904296 7.03125,-4.423828 0.9375,-0.673828 1.61132,-1.142578 0.67383,-0.46875 0.76172,-0.46875 0.0586,0.0293 0.23438,0.292969 0.17578,0.234375 0.38086,0.585937 0.20507,0.322266 0.29297,0.556641 0.11718,0.234375 0.11718,0.322266 v 0.0293 q -0.35156,0.292968 -1.72851,1.259765 -1.34766,0.9375 -2.92969,1.962891 -1.55273,1.02539 -2.51953,1.611328 -7.99805,4.716797 -12.50977,4.716797 -1.20117,0 -2.16797,-0.322266 z" />
      <path
         id="path28"
         style="font-family:'Phantom Rider'"
         d="m 321.77734,92.705078 q -1.23047,-1.845703 -1.23047,-3.984375 0,-0.292969 0.0293,-0.615234 0.23438,-2.490235 1.58203,-4.804688 1.31836,-2.314453 3.19336,-3.896484 1.05469,-0.908203 2.31446,-1.31836 1.28906,-0.439453 2.28515,-0.439453 0.46875,0 0.9375,0.08789 1.43555,0.234375 2.28516,1.494141 0.32226,0.527343 0.32226,1.201171 0,0.527344 -0.23437,1.171875 -0.52735,1.40625 -1.96289,2.695313 -0.9961,0.908203 -2.31446,1.699219 -1.31835,0.761718 -2.43164,1.113281 -0.9375,0.263672 -1.20117,0.527344 -0.23437,0.234375 -0.23437,0.732422 v 0.117187 q 0,1.611328 0.58593,2.490234 0.58594,0.84961 1.34766,1.054688 0.76172,0.205078 1.34766,0.205078 0.46875,0 0.96679,-0.08789 1.14258,-0.175781 2.25586,-0.673828 3.22266,-1.435547 5.56641,-3.017578 2.34375,-1.611328 5.03906,-3.75 l 0.29297,-0.234375 0.55664,0.820313 q 0.23438,0.351562 0.35156,0.615234 0.11719,0.234375 0.11719,0.322266 0,0.05859 -0.0293,0.08789 -0.55664,0.644532 -2.40234,1.992188 -1.81641,1.347656 -3.80859,2.695312 -1.96289,1.31836 -2.98828,1.904297 -1.9043,1.142578 -3.86719,1.757813 -1.9336,0.585937 -3.42774,0.585937 -0.73242,0 -1.46484,-0.117187 -2.22656,-0.351563 -3.7793,-2.431641 z m 5.44922,-8.144531 q 0.90821,-0.46875 1.84571,-1.171875 0.9375,-0.703125 1.43554,-1.230469 0.52735,-0.556641 0.52735,-0.791016 0,-0.05859 -0.0293,-0.08789 -0.0879,-0.05859 -0.23438,-0.05859 -0.26367,0 -0.76171,0.263672 -0.73243,0.410156 -1.61133,1.113281 -0.84961,0.673828 -1.46485,1.31836 -0.58593,0.615234 -0.61523,0.732421 0,0.117188 0,0.146485 0,0.05859 0.11719,0.05859 0.20507,0 0.79101,-0.292969 z" />
      <path
         id="path30"
         style="font-family:'Phantom Rider'"
         d="m 360.30273,91.943359 q 0.20508,-1.699218 1.52344,-4.6875 0.38086,-0.878906 0.67383,-1.669922 0.29297,-0.791015 0.35156,-1.083984 0.0586,-0.263672 0.0586,-0.380859 0,-0.117188 -0.0293,-0.146485 -0.0293,-0.0293 -0.11719,-0.0293 -0.11719,0 -0.38086,0.05859 -0.46875,0.117188 -1.25976,0.498047 -0.79102,0.380859 -1.66993,0.878906 -1.7871,1.054688 -2.7832,2.25586 -0.9668,1.171875 -1.8164,2.607422 -0.61524,1.054687 -1.49415,2.285156 l -1.7871,-0.966797 q -0.76172,-0.410156 -1.28907,-0.732422 -0.52734,-0.322266 -0.52734,-0.380859 0,-0.05859 0.32226,-0.761719 0.35157,-0.732422 0.84961,-1.699219 1.75782,-3.515625 2.19727,-5.361328 0.0586,-0.175781 0.0586,-0.292969 0,-0.234375 -0.23437,-0.234375 -0.0586,0 -0.17578,0.0293 -0.55664,0.117188 -2.10938,1.142578 -1.64062,1.054688 -2.90039,2.431641 -1.25976,1.376953 -3.33984,4.453125 -0.9961,1.435547 -1.75781,2.431641 -0.73243,0.996093 -0.79102,0.996093 -0.14648,0 -0.67383,-0.263672 -0.55664,-0.292968 -1.23047,-0.673828 -0.70312,-0.380859 -1.20117,-0.703125 -0.52734,-0.322265 -0.52734,-0.380859 0,-0.05859 0.67383,-1.230469 0.67382,-1.201172 1.61132,-2.783203 0.9375,-1.611328 1.75782,-2.988281 0.84961,-1.40625 1.23046,-1.992188 0.55665,-0.849609 1.34766,-1.816406 0.82031,-0.966797 1.46484,-1.640625 0.67383,-0.673828 0.82032,-0.673828 0.14648,0.05859 0.76172,0.263672 0.64453,0.175781 1.49414,0.410156 1.14257,0.351563 1.55273,0.527344 0.41016,0.175781 0.41016,0.322265 l -0.0293,0.05859 v 0.05859 q 0,0.08789 0.0586,0.117187 h 0.0586 q 0.11719,0 0.32226,-0.05859 0.29297,-0.05859 0.84961,-0.263672 1.23047,-0.439453 2.25586,-0.439453 0.58594,0 1.11328,0.146484 1.43555,0.410156 1.84571,2.636719 l 0.23437,1.40625 0.87891,-0.439453 q 1.64062,-0.966797 2.92969,-1.376953 1.31835,-0.410157 2.05078,-0.410157 1.08398,0 2.13867,0.46875 1.52344,0.644532 1.55273,1.523438 0.0293,0.849609 0.0293,0.878906 0,1.699219 -1.40625,5.214844 -0.52734,1.347656 -0.9082,2.314453 -0.35157,0.966797 -0.35157,1.025391 0,0.0293 0.0586,0.0293 0.20508,0 0.9082,-0.380859 0.9375,-0.527344 2.31445,-1.494141 1.40625,-0.996093 2.8125,-2.109375 1.37696,-1.083984 3.16407,-2.695312 l 1.8164,-1.699219 1.43555,1.523438 -1.78711,1.669922 q -5.47852,5.068359 -9.78516,7.148437 -1.37695,0.644531 -2.08007,0.673828 -0.70313,0.0293 -0.73243,0.0293 -1.31836,0 -2.13867,-0.791016 -0.70312,-0.673828 -0.70312,-2.138671 0,-0.322266 0.0293,-0.644532 z" />
      <path
         id="path32"
         style="font-family:'Phantom Rider'"
         d="m 363.70117,108.96484 q -0.76172,-0.38086 -1.34765,-0.67382 -0.58594,-0.26368 -0.67383,-0.29297 0,-0.20508 0.9375,-1.99219 0.99609,-1.8457 2.37304,-4.24805 1.37696,-2.402341 2.49024,-4.218748 2.19726,-3.515625 5.00976,-7.763671 2.78321,-4.248047 5.00977,-7.470704 2.25586,-3.251953 2.75391,-3.779296 0.17578,-0.146485 0.26367,-0.175782 0.0879,-0.05859 0.14648,-0.05859 0.11719,0 0.29297,0.08789 0.26367,0.08789 0.76172,0.38086 0.49805,0.292968 1.37695,0.849609 0.84961,0.527344 1.11328,0.791016 0.29297,0.263671 0.29297,0.439453 0,0.0293 -0.0293,0.08789 -0.0293,0.117188 -0.0293,0.205078 0,0.05859 0.0293,0.05859 0.0879,0 0.55664,-0.234375 1.78711,-0.996094 3.95507,-1.582031 0.82032,-0.175781 1.52344,-0.175781 1.40625,0 2.22656,0.703125 1.20118,1.02539 1.23047,2.050781 0.0586,0.996094 0.0586,1.171875 0,1.669922 -0.73242,3.457031 v 0.05859 q 0,0.234375 0.55664,0.234375 h 0.11718 q 1.84571,-0.08789 4.21875,-0.791016 2.37305,-0.703125 3.92578,-1.611328 0.0879,0 0.26368,0.263672 0.17578,0.263672 0.35156,0.585938 0.17578,0.322265 0.29297,0.55664 0.0586,0.05859 0.0879,0.117188 -3.13477,1.611328 -5.56641,2.314453 -2.43164,0.703125 -5.5664,0.849609 l -0.9961,1.259766 q -3.51562,4.394531 -6.38672,4.394531 -0.70312,0 -1.34765,-0.234375 -1.37696,-0.556641 -1.75782,-1.523437 -0.38085,-0.996094 -0.38085,-1.669922 0,-0.732422 0.26367,-1.523438 0.96679,-2.8125 5.625,-2.8125 h 1.72851 l 0.61524,-0.966797 q 0.58593,-0.966797 0.84961,-1.845703 0.29297,-0.908203 0.29297,-1.435547 0,-0.205078 -0.0293,-0.351562 -0.23438,-0.908203 -1.17188,-0.908203 -0.76172,0 -1.96289,0.55664 -1.99218,0.966797 -4.07226,2.636719 -2.05078,1.669922 -3.16407,3.222656 -0.58593,0.820313 -3.63281,5.507813 -3.04687,4.658203 -7.32422,11.279293 -1.40625,2.13868 -2.34375,3.57422 -0.96679,1.43555 -1.08398,1.49414 -0.0586,0 -0.61524,-0.23437 -0.58593,-0.23438 -1.37695,-0.61524 z m 23.26172,-19.892574 q -0.17578,0 -0.38086,0.0293 -1.02539,0.08789 -2.05078,0.410157 -0.99609,0.322265 -1.23047,1.318359 -0.0293,0.146484 -0.0293,0.292969 0,0.410156 0.29297,0.410156 h 0.0879 q 0.49805,-0.08789 1.20118,-0.615234 0.73242,-0.556641 1.31835,-1.113282 0.61524,-0.55664 0.79102,-0.732421 z" />
      <path
         id="path34"
         style="font-family:'Phantom Rider'"
         d="m 401.52344,94.755859 q -1.84571,-1.054687 -1.84571,-2.402343 -0.0293,-1.347657 -0.0293,-1.464844 0,-2.490235 1.43554,-5.273438 1.46485,-2.871093 4.13086,-4.746093 1.05469,-0.761719 1.9336,-0.9375 0.9082,-0.175782 1.28906,-0.175782 0.9375,0 1.81641,0.556641 1.46484,1.230469 1.46484,3.720703 0,0.966797 -0.23438,2.167969 -0.14648,0.585937 -0.26367,1.02539 -0.0879,0.439454 -0.0879,0.498047 0,0.05859 0.55664,0.05859 h 0.43946 q 0.96679,0 2.31445,-0.05859 1.34766,-0.08789 2.51953,-0.205078 1.20117,-0.117187 1.69922,-0.234375 1.78711,-0.498047 3.57422,-1.113281 1.78711,-0.615234 2.72461,-1.083984 0.49804,-0.263672 0.84961,-0.439454 0.38086,-0.175781 0.41015,-0.175781 0.0586,0 0.17578,0.263672 0.11719,0.234375 0.23438,0.585938 0.14648,0.322265 0.23437,0.615234 0.11719,0.292969 0.11719,0.380859 0,0.117188 -0.73242,0.498047 -0.73242,0.351563 -1.81641,0.791016 -1.08398,0.439453 -2.22656,0.820312 -2.37305,0.791016 -4.36523,1.113282 -1.99219,0.322265 -4.6875,0.322265 h -3.19336 l -0.64453,0.996094 q -0.29297,0.439453 -0.82032,1.054687 -0.52734,0.585938 -1.02539,1.054688 -2.37304,2.167969 -4.36523,2.167969 -0.82031,0 -1.58203,-0.38086 z m 7.76367,-8.466797 q 0.17578,-0.615234 0.26367,-1.347656 0.11719,-0.761719 0.11719,-1.083984 0,-0.351563 0,-0.439453 0,-0.351563 -0.0879,-0.351563 -0.17578,0 -0.61524,0.439453 -0.43945,0.410157 -0.9375,0.996094 -0.49804,0.556641 -0.79101,1.025391 -0.29297,0.439453 -0.29297,0.55664 v 0.05859 q 0.0879,0.146484 0.46875,0.380859 0.38086,0.234375 0.79101,0.439454 0.41016,0.175781 0.58594,0.175781 0.11719,0 0.23438,-0.234375 0.14648,-0.234375 0.26367,-0.615235 z m -3.66211,5.566407 q 0.29297,-0.234375 0.67383,-0.644532 0.38086,-0.410156 0.76172,-0.878906 0.38086,-0.46875 0.55664,-0.761719 0.20508,-0.322265 0.20508,-0.410156 v -0.0293 q -0.0586,-0.0293 -0.38086,-0.205078 -0.32227,-0.175781 -0.73243,-0.380859 -0.38086,-0.234375 -0.70312,-0.38086 -0.29297,-0.175781 -0.32227,-0.175781 -0.0879,0 -0.29297,0.439453 -0.17578,0.410157 -0.41015,1.025391 -0.20508,0.615234 -0.38086,1.230469 -0.14649,0.585937 -0.17578,0.9375 -0.0586,0.439453 -0.0586,0.673828 0,0.292969 0.0879,0.322265 h 0.0293 q 0.20508,0 1.14258,-0.761718 z" />
      <path
         id="path36"
         style="font-family:'Phantom Rider'"
         d="M 423.67187,93.935547 Q 421.09375,92.5 421.09375,92.089844 q 0.0586,-0.175782 1.17187,-2.021485 1.11329,-1.845703 2.75391,-4.511718 l 3.92578,-6.240235 1.78711,1.142578 q 0.76172,0.46875 1.31836,0.84961 0.55664,0.380859 0.64453,0.46875 0.0586,0.05859 0.0586,0.205078 0,0.08789 -0.0293,0.263672 -0.0879,0.380859 -0.41016,1.201172 -0.0293,0.117187 -0.0293,0.175781 v 0.0293 q 0.0293,0.0293 0.0879,0.0293 0.0879,0 0.20507,-0.0293 0.23438,-0.05859 0.73243,-0.263672 1.08398,-0.38086 1.96289,-0.38086 h 0.32226 q 0.9961,0.08789 2.05078,0.703125 0.55664,0.322266 1.34766,0.761719 0.79102,0.410156 1.43555,0.732422 0.99609,0.498047 1.52343,0.644531 0.52735,0.117188 1.31836,0.117188 h 0.35157 q 1.02539,0 1.66992,-0.146485 0.64453,-0.146484 1.69922,-0.615234 0.73242,-0.322266 1.23047,-0.527344 0.52734,-0.205078 0.55664,-0.205078 0.0293,0.05859 0.14648,0.322266 0.14649,0.263672 0.35156,0.615234 l 0.43946,0.878906 -1.37696,0.644532 q -2.49023,1.171875 -4.6875,1.171875 -0.41015,0 -0.82031,-0.0293 -1.28906,-0.08789 -2.51953,-0.556641 -1.20117,-0.498047 -3.07617,-1.611328 -1.11328,-0.732422 -1.49414,-0.761719 -0.35157,-0.05859 -0.46875,-0.05859 -0.58594,0 -1.43555,0.380859 -3.7793,1.435547 -7.4707,6.738281 -0.70313,0.966797 -1.17188,1.640625 l -0.49804,0.673828 q 0,-0.0293 -0.29297,-0.175781 -0.29297,-0.175781 -0.73243,-0.410156 z" />
      <path
         id="path38"
         style="font-family:'Phantom Rider'"
         d="m 458.94531,93.144531 q -0.8789,-1.113281 -0.8789,-2.929687 0,-1.669922 0.76171,-3.955078 v -0.0293 q 0,-0.0293 -0.0293,-0.0293 -0.0879,0 -0.35156,0.205078 -0.41016,0.292969 -1.14258,0.966797 -3.48633,3.251953 -5.625,4.541015 -1.78711,1.025391 -2.60742,1.054688 -0.82032,0.0293 -0.90821,0.0293 -1.40625,0 -2.13867,-0.996094 -0.43945,-0.585937 -0.43945,-1.552734 0,-0.732422 0.26367,-1.699219 0.67383,-2.255859 2.51953,-4.628906 1.8457,-2.402344 4.13086,-3.779297 2.16797,-1.171875 4.33594,-1.171875 1.875,0 3.7207,0.849609 l 1.43555,0.703125 1.11328,-1.40625 q 0.49805,-0.585937 0.84961,-0.996094 0.35156,-0.410156 0.41015,-0.410156 0.0293,0 0.61524,0.322266 0.58594,0.322265 1.31836,0.732422 0.76172,0.410156 1.34765,0.732422 0.58594,0.322265 0.67383,0.410156 0,0.05859 -0.17578,0.292969 -0.17578,0.263671 -0.46875,0.644531 -1.49414,1.904297 -2.90039,4.511719 -1.40625,2.607421 -1.69922,4.013671 -0.0586,0.351563 -0.0586,0.673829 0,1.318359 0.79101,1.816406 0.76172,0.46875 1.75782,0.46875 0.29296,0 0.61523,-0.0293 1.43555,-0.146484 2.57813,-0.615234 5.00976,-1.962891 9.90234,-6.328125 l 1.17187,-1.083985 0.52735,0.791016 q 0.23437,0.322265 0.38086,0.615234 0.14648,0.292969 0.14648,0.38086 0,0.08789 -0.43945,0.527343 -0.43945,0.439453 -1.08399,0.966797 -6.73828,5.830078 -12.59765,7.148438 -1.34766,0.322265 -2.8125,0.322265 -0.70313,0 -1.46485,-0.08789 -2.22656,-0.234375 -3.54492,-1.992188 z m -7.76367,-3.398437 q 2.16797,-1.494141 6.26953,-5.419922 l 1.72852,-1.699219 -0.82032,0.117188 q -3.83789,0.820312 -7.88085,6.533203 -0.64454,0.849609 -0.64454,1.083984 0,0.08789 0.0879,0.08789 0.26368,0 1.25977,-0.703125 z" />
      <path
         id="path40"
         style="font-family:'Phantom Rider'"
         d="m 491.55273,90.361328 q 0.0586,-0.439453 0.38086,-1.494141 0.32227,-1.083984 0.76172,-2.314453 0.52735,-1.523437 0.73242,-2.255859 0.23438,-0.732422 0.23438,-1.054688 v -0.08789 q 0,-0.292969 -0.26367,-0.351563 -0.11719,-0.0293 -0.26367,-0.0293 -0.52735,0 -1.69922,0.439454 -1.49414,0.55664 -3.31055,1.523437 -1.81641,0.966797 -3.33984,2.050781 -0.73243,0.527344 -1.17188,0.9375 -0.43945,0.38086 -0.87891,0.996094 -0.41015,0.585938 -1.05468,1.669922 -0.64453,1.025391 -1.11328,1.787109 -0.46875,0.732422 -0.55664,0.820313 h -0.0879 q -0.14648,0 -0.58593,-0.117188 -0.58594,-0.146484 -1.34766,-0.498047 -0.84961,-0.351562 -1.23047,-0.527343 -0.41015,-0.205078 -0.49804,-0.351563 -0.0879,-0.175781 -0.0879,-0.322265 v -0.117188 q 0.0586,-0.439453 0.9668,-2.226562 0.87891,-1.78711 2.05078,-3.867188 1.17188,-2.109375 2.05078,-3.486328 0.55664,-0.849609 1.14258,-1.640625 0.61524,-0.820313 0.9961,-1.201172 l 0.82031,-0.878906 1.61133,0.849609 q 0.14648,0.08789 0.29297,0.146485 0.96679,0.527343 1.31835,0.791015 0.38086,0.234375 0.38086,0.498047 0,0.05859 -0.0293,0.117188 -0.0879,0.322265 -0.49805,0.966796 l -0.0879,0.175782 q -0.11719,0.146484 -0.20508,0.322265 -0.79101,1.230469 -0.79101,1.494141 v 0.05859 q 0.0293,0.0293 0.0586,0.0293 0.26367,0 1.34766,-0.615235 0.11718,-0.05859 0.26367,-0.146484 4.30664,-2.197266 6.97265,-2.197266 1.9336,0 3.01758,1.171875 0.29297,0.351563 0.43946,0.585938 0.14648,0.234375 0.14648,0.615234 0,0.351563 -0.0586,1.113281 -0.14649,1.611328 -0.9668,4.277344 -0.82031,2.783203 -0.82031,3.691406 0,0.46875 0.20507,0.46875 0.29297,0 1.64063,-0.732422 1.34766,-0.732421 2.7832,-1.699218 l 0.11719,-0.05859 q 1.02539,-0.673828 2.51953,-1.757813 1.52344,-1.113281 3.92578,-3.193359 0.17578,-0.146484 0.26367,-0.175781 h 0.0586 q 0.11719,0 0.23437,0.117187 0.14649,0.117188 0.41016,0.439453 0.26367,0.322266 0.43945,0.585938 0.17578,0.234375 0.17578,0.292969 0,0.117187 -1.14257,1.054687 -1.11329,0.9375 -2.57813,2.050781 -1.43555,1.113282 -2.51953,1.904297 -0.84961,0.585938 -1.99219,1.289063 -1.11328,0.703125 -2.05078,1.171875 -1.64062,0.849609 -2.75391,0.966797 -1.11328,0.08789 -1.43554,0.08789 -1.43555,0 -2.43164,-0.732422 -0.9668,-0.732421 -0.9668,-2.460937 0,-0.439453 0.0586,-0.966797 z" />
      <path
         id="path42"
         style="font-family:'Phantom Rider'"
         d="m 507.05078,92.705078 q -1.23047,-1.845703 -1.23047,-3.984375 0,-0.292969 0.0293,-0.615234 0.23437,-2.490235 1.58203,-4.804688 1.31836,-2.314453 3.19336,-3.896484 1.05469,-0.908203 2.31445,-1.31836 1.28907,-0.439453 2.28516,-0.439453 0.46875,0 0.9375,0.08789 1.43555,0.234375 2.28516,1.494141 0.32226,0.527343 0.32226,1.201171 0,0.527344 -0.23437,1.171875 -0.52735,1.40625 -1.96289,2.695313 -0.9961,0.908203 -2.31446,1.699219 -1.31836,0.761718 -2.43164,1.113281 -0.9375,0.263672 -1.20117,0.527344 -0.23438,0.234375 -0.23438,0.732422 v 0.117187 q 0,1.611328 0.58594,2.490234 0.58594,0.84961 1.34766,1.054688 0.76172,0.205078 1.34765,0.205078 0.46875,0 0.9668,-0.08789 1.14258,-0.175781 2.25586,-0.673828 3.22266,-1.435547 5.56641,-3.017578 2.34375,-1.611328 5.03906,-3.75 l 0.29297,-0.234375 0.55664,0.820313 q 0.23437,0.351562 0.35156,0.615234 0.11719,0.234375 0.11719,0.322266 0,0.05859 -0.0293,0.08789 -0.55664,0.644532 -2.40234,1.992188 -1.81641,1.347656 -3.8086,2.695312 -1.96289,1.31836 -2.98828,1.904297 -1.90429,1.142578 -3.86718,1.757813 -1.9336,0.585937 -3.42774,0.585937 -0.73242,0 -1.46484,-0.117187 -2.22656,-0.351563 -3.7793,-2.431641 z M 512.5,84.560547 q 0.9082,-0.46875 1.8457,-1.171875 0.9375,-0.703125 1.43555,-1.230469 0.52734,-0.556641 0.52734,-0.791016 0,-0.05859 -0.0293,-0.08789 -0.0879,-0.05859 -0.23438,-0.05859 -0.26367,0 -0.76172,0.263672 -0.73242,0.410156 -1.61133,1.113281 -0.8496,0.673828 -1.46484,1.31836 -0.58594,0.615234 -0.61523,0.732421 0,0.117188 0,0.146485 0,0.05859 0.11718,0.05859 0.20508,0 0.79102,-0.292969 z" />
      <path
         id="path44"
         style="font-family:'Phantom Rider'"
         d="m 538.04687,93.144531 q -0.8789,-1.113281 -0.8789,-2.929687 0,-1.669922 0.76172,-3.955078 v -0.0293 q 0,-0.0293 -0.0293,-0.0293 -0.0879,0 -0.35156,0.205078 -0.41016,0.292969 -1.14258,0.966797 -3.48633,3.251953 -5.625,4.541015 -1.78711,1.025391 -2.60742,1.054688 -0.82031,0.0293 -0.90821,0.0293 -1.40625,0 -2.13867,-0.996094 -0.43945,-0.585937 -0.43945,-1.552734 0,-0.732422 0.26367,-1.699219 0.67383,-2.255859 2.51953,-4.628906 1.84571,-2.402344 4.13086,-3.779297 2.16797,-1.171875 4.33594,-1.171875 1.875,0 3.7207,0.849609 l 1.43555,0.703125 1.11328,-1.40625 q 0.49805,-0.585937 0.84961,-0.996094 0.35156,-0.410156 0.41016,-0.410156 0.0293,0 0.61523,0.322266 0.58594,0.322265 1.31836,0.732422 0.76172,0.410156 1.34766,0.732422 0.58593,0.322265 0.67382,0.410156 0,0.05859 -0.17578,0.292969 -0.17578,0.263671 -0.46875,0.644531 -1.49414,1.904297 -2.90039,4.511719 -1.40625,2.607421 -1.69922,4.013671 -0.0586,0.351563 -0.0586,0.673829 0,1.318359 0.79102,1.816406 0.76171,0.46875 1.75781,0.46875 0.29297,0 0.61523,-0.0293 1.43555,-0.146484 2.57813,-0.615234 5.00976,-1.962891 9.90234,-6.328125 l 1.17188,-1.083985 0.52734,0.791016 q 0.23438,0.322265 0.38086,0.615234 0.14648,0.292969 0.14648,0.38086 0,0.08789 -0.43945,0.527343 -0.43945,0.439453 -1.08398,0.966797 -6.73828,5.830078 -12.59766,7.148438 -1.34766,0.322265 -2.8125,0.322265 -0.70312,0 -1.46484,-0.08789 -2.22657,-0.234375 -3.54493,-1.992188 z m -7.76367,-3.398437 q 2.16797,-1.494141 6.26953,-5.419922 l 1.72852,-1.699219 -0.82031,0.117188 q -3.83789,0.820312 -7.88086,6.533203 -0.64453,0.849609 -0.64453,1.083984 0,0.08789 0.0879,0.08789 0.26367,0 1.25976,-0.703125 z" />
    </g>
  </g>
</svg>
