<?xml version="1.0" encoding="UTF-8" standalone="no"?>
<svg
   xmlns:dc="http://purl.org/dc/elements/1.1/"
   xmlns:cc="http://creativecommons.org/ns#"
   xmlns:rdf="http://www.w3.org/1999/02/22-rdf-syntax-ns#"
   xmlns:svg="http://www.w3.org/2000/svg"
   xmlns="http://www.w3.org/2000/svg"
   id="svg16"
   width="800px"
   version="1.1"
   height="200px">
  <metadata
     id="metadata20">
    <rdf:RDF>
      <cc:Work
         rdf:about="">
        <dc:format>image/svg+xml</dc:format>
        <dc:type
           rdf:resource="http://purl.org/dc/dcmitype/StillImage" />
      </cc:Work>
    </rdf:RDF>
  </metadata>
  <defs
     id="defs4">
    <style
       id="style2"
       type="text/css"><![CDATA[    
     @font-face {font-family:Poppins;
     src: url('/Users/francesco/Repos/write-logos/src/fonts/Fonts_E_TEMPORANEA/Poppins-Bold.ttf');}
     @font-face {font-family:carbono;
     src: url('/Users/francesco/Repos/write-logos/src/fonts/Fonts_X/carbono_pw.ttf');}
     ]]></style>
  </defs>
  <g
     id="g14"
     style="font-size:60px">
    <g
       style="text-anchor:middle"
       id="text12"
       aria-label="EXTEMPORANEA">
      <path
         id="path22"
         style="font-family:Poppins;letter-spacing:0.075em"
         d="m 150.7375,65.74 v 8.88 h 14.34 v 7.74 h -14.34 v 9.42 h 16.14 V 100 h -26.4 V 57.58 h 26.4 v 8.16 z" />
      <path
         id="path24"
         style="font-family:carbono;letter-spacing:0.05em"
         d="m 178.46406,60.4 11.04,17.52 -12,18.3 h 5.94 l 8.64,-14.46 8.64,14.46 h 5.94 l -12,-18.3 11.04,-17.52 h -5.4 l -8.22,13.74 -8.22,-13.74 z m 5.4,-3.78 q 0.78,0 1.8,0.6 1.02,0.6 1.44,1.26 l 4.98,8.28 q 1.2,-2.04 2.46,-4.14 1.32,-2.1 2.52,-4.14 0.42,-0.66 1.44,-1.26 1.02,-0.6 1.8,-0.6 h 5.4 q 1.2,0 2.1,0.54 0.9,0.54 1.32,1.38 0.48,0.84 0.42,1.86 0,1.02 -0.66,2.04 l -9.78,15.48 q 2.7,4.14 5.34,8.1 2.7,3.96 5.4,8.1 0.66,1.02 0.66,2.1 0.06,1.02 -0.42,1.86 -0.42,0.84 -1.32,1.38 -0.84,0.54 -2.1,0.54 h -5.94 q -0.78,0 -1.8,-0.6 -1.02,-0.6 -1.44,-1.26 l -5.4,-9 q -1.38,2.22 -2.76,4.5 -1.32,2.28 -2.64,4.5 -0.42,0.66 -1.44,1.26 -1.02,0.6 -1.8,0.6 h -5.94 q -1.26,0 -2.16,-0.54 -0.9,-0.54 -1.38,-1.38 -0.42,-0.84 -0.36,-1.86 0.06,-1.08 0.72,-2.1 l 10.74,-16.2 q -2.4,-3.78 -4.92,-7.74 -2.46,-3.96 -4.86,-7.74 -0.66,-1.02 -0.72,-2.04 0,-1.02 0.42,-1.86 0.48,-0.84 1.38,-1.38 0.9,-0.54 2.1,-0.54 z" />
      <path
         id="path26"
         style="font-family:Poppins;letter-spacing:0.075em"
         d="m 247.48094,57.58 v 8.16 h -11.52 V 100 h -10.32 V 65.74 h -11.4 v -8.16 z" />
      <path
         id="path28"
         style="font-family:Poppins;letter-spacing:0.075em"
         d="m 266.56562,65.74 v 8.88 h 14.34 v 7.74 h -14.34 v 9.42 h 16.14 V 100 H 256.30563 V 57.58 h 26.39999 v 8.16 z" />
      <path
         id="path30"
         style="font-family:Poppins;letter-spacing:0.075em"
         d="M 340.73219,57.88 V 100 h -10.26 V 73.66 l -9.12,26.34 h -8.88 l -9.18,-26.4 V 100 h -10.26 V 57.88 h 12.54 l 11.46,29.34 11.22,-29.34 z" />
      <path
         id="path32"
         style="font-family:Poppins;letter-spacing:0.075em"
         d="M 362.51875,85.12 V 100 h -10.26 V 57.58 h 16.62 q 7.56,0 11.52,3.78 3.96,3.72 3.96,10.08 0,3.96 -1.8,7.08 -1.74,3.06 -5.22,4.86 -3.48,1.74 -8.46,1.74 z m 5.22,-8.22 q 6.18,0 6.18,-5.46 0,-5.58 -6.18,-5.58 h -5.22 V 76.9 Z" />
      <path
         id="path34"
         style="font-family:Poppins;letter-spacing:0.075em"
         d="m 414.06719,56.92 q 6,0 10.86,2.82 4.92,2.76 7.74,7.74 2.82,4.92 2.82,11.16 0,6.24 -2.88,11.22 -2.82,4.98 -7.74,7.8 -4.86,2.76 -10.8,2.76 -5.94,0 -10.86,-2.76 -4.86,-2.82 -7.74,-7.8 -2.82,-4.98 -2.82,-11.22 0,-6.24 2.82,-11.16 2.88,-4.98 7.74,-7.74 4.92,-2.82 10.86,-2.82 z m 0,9.54 q -5.04,0 -8.04,3.3 -2.94,3.24 -2.94,8.88 0,5.58 2.94,8.88 3,3.3 8.04,3.3 4.98,0 7.98,-3.3 3,-3.3 3,-8.88 0,-5.58 -3,-8.88 -2.94,-3.3 -7.98,-3.3 z" />
      <path
         id="path36"
         style="font-family:Poppins;letter-spacing:0.075em"
         d="m 467.53094,100 -9.18,-16.02 h -2.34 V 100 h -10.26 V 57.58 h 17.52 q 5.04,0 8.52,1.74 3.48,1.74 5.22,4.8 1.74,3 1.74,6.9 0,4.62 -2.58,7.86 -2.52,3.24 -7.38,4.44 l 10.08,16.68 z m -11.52,-23.04 h 6.36 q 3.06,0 4.5,-1.32 1.44,-1.38 1.44,-4.02 0,-2.52 -1.5,-3.96 -1.44,-1.44 -4.44,-1.44 h -6.36 z" />
      <path
         id="path38"
         style="font-family:Poppins;letter-spacing:0.075em"
         d="m 514.73406,92.26 h -15.9 l -2.64,7.74 h -10.8 l 15.54,-42.12 h 11.82 l 15.54,42.12 h -10.92 z m -2.64,-7.8 -5.28,-15.6 -5.34,15.6 z" />
      <path
         id="path40"
         style="font-family:Poppins;letter-spacing:0.075em"
         d="m 574.46219,100 h -10.26 l -17.16,-26.04 V 100 h -10.26 V 57.58 h 10.26 l 17.16,26.28 V 57.58 h 10.26 z" />
      <path
         id="path42"
         style="font-family:Poppins;letter-spacing:0.075em"
         d="m 596.30781,65.74 v 8.88 h 14.34 v 7.74 h -14.34 v 9.42 h 16.14 V 100 h -26.4 V 57.58 h 26.4 v 8.16 z" />
      <path
         id="path44"
         style="font-family:Poppins;letter-spacing:0.075em"
         d="m 649.05438,92.26 h -15.90001 l -2.64,7.74 h -10.79999 l 15.53999,-42.12 h 11.82001 L 662.61437,100 h -10.91999 z m -2.64001,-7.8 -5.28,-15.6 -5.34,15.6 z" />
    </g>
  </g>
</svg>
