<?xml version="1.0" encoding="UTF-8" standalone="no"?>
<svg
   xmlns:dc="http://purl.org/dc/elements/1.1/"
   xmlns:cc="http://creativecommons.org/ns#"
   xmlns:rdf="http://www.w3.org/1999/02/22-rdf-syntax-ns#"
   xmlns:svg="http://www.w3.org/2000/svg"
   xmlns="http://www.w3.org/2000/svg"
   id="svg16"
   width="800px"
   version="1.1"
   height="200px">
  <metadata
     id="metadata20">
    <rdf:RDF>
      <cc:Work
         rdf:about="">
        <dc:format>image/svg+xml</dc:format>
        <dc:type
           rdf:resource="http://purl.org/dc/dcmitype/StillImage" />
      </cc:Work>
    </rdf:RDF>
  </metadata>
  <defs
     id="defs4">
    <style
       id="style2"
       type="text/css"><![CDATA[    
     @font-face {font-family:Poppins;
     src: url('/Users/francesco/Repos/write-logos/src/fonts/Fonts_E_TEMPORANEA/Poppins-Bold.ttf');}
     @font-face {font-family:Akronim;
     src: url('/Users/francesco/Repos/write-logos/src/fonts/Fonts_X/Akronim-Regular.ttf');}
     ]]></style>
  </defs>
  <g
     id="g14"
     style="font-size:60px">
    <g
       style="text-anchor:middle"
       id="text12"
       aria-label="EXTEMPORANEA">
      <path
         id="path22"
         style="font-family:Poppins;letter-spacing:0.075em"
         d="m 154.31172,65.74 v 8.88 h 14.34 v 7.74 h -14.34 v 9.42 h 16.14 V 100 h -26.4 V 57.58 h 26.4 v 8.16 z" />
      <path
         id="path24"
         style="font-family:Akronim;letter-spacing:0.05em"
         d="m 179.93828,99.28 q -0.12,0.54 -0.18,0.54 -0.12,-0.06 -0.18,-0.24 0,-0.18 0,-0.3 -0.18,-2.76 0.36,-5.34 0.54,-2.64 1.62,-5.16 1.14,-2.52 2.64,-4.86 1.56,-2.4 3.3,-4.62 l 1.32,-1.68 q -2.46,-5.52 -4.86,-10.68 -2.34,-5.22 -5.16,-9 -0.18,-0.24 -0.18,-0.36 0.06,-0.12 0.24,0 0.18,0.12 0.3,0.18 1.86,1.5 3.36,3.54 1.56,2.04 2.88,4.44 1.32,2.34 2.46,4.98 1.14,2.58 2.28,5.22 l 1.02,-1.26 q -0.3,-0.6 -0.96,-1.86 -0.66,-1.32 -1.56,-2.94 -0.9,-1.62 -1.92,-3.42 -0.96,-1.8 -1.98,-3.36 -1.02,-1.62 -1.92,-2.88 -0.9,-1.26 -1.56,-1.8 -0.48,-0.36 -0.3,-0.48 0.12,-0.06 0.54,0.06 1.2,0.48 2.52,1.68 1.38,1.2 2.58,2.7 1.26,1.5 2.28,3.12 1.02,1.62 1.62,2.94 l 2.1,4.5 0.66,-0.72 q -1.2,-2.7 -2.58,-5.46 -1.38,-2.76 -3.3,-5.4 -0.18,-0.3 -0.24,-0.3 -0.06,0 0.06,-0.12 0,0 0.48,0.24 1.68,1.14 3.48,3.78 1.8,2.58 3.42,5.7 3.06,-3.6 6.12,-7.44 3.06,-3.9 4.98,-7.38 0.06,-0.12 0.12,-0.24 0.06,-0.12 0.24,0 0.06,0.06 0,0.24 0,0.18 0,0.24 -0.9,3.3 -2.88,6.54 -1.98,3.18 -4.44,6.36 -2.46,3.12 -5.16,6.24 -2.7,3.06 -5.04,6.12 -1.44,1.92 -2.88,4.14 -1.38,2.16 -2.52,4.5 -1.14,2.28 -1.98,4.68 -0.84,2.34 -1.2,4.62 z m 27.72,0.48 q 0.36,0.18 0.36,0.24 0,0 -0.42,0 -2.4,-0.36 -4.5,-1.56 -2.04,-1.26 -3.84,-3.06 -1.74,-1.8 -3.3,-4.02 -1.5,-2.28 -2.76,-4.62 -1.92,2.28 -4.02,4.5 -2.1,2.16 -3.78,3.72 -0.3,0.3 -0.54,0.54 -0.18,0.24 -0.3,0.18 -0.12,-0.06 0.06,-0.42 0.24,-0.36 0.36,-0.66 1.14,-2.22 2.58,-4.38 1.5,-2.16 3.12,-4.2 1.68,-2.1 3.42,-4.14 1.74,-2.04 3.42,-4.08 2.1,-2.58 4.56,-5.76 2.46,-3.18 4.26,-6.54 0.18,-0.42 0.3,-0.42 0.12,0 0.06,0.3 -0.06,0.24 -0.06,0.42 -0.12,1.26 -0.9,2.94 -0.78,1.68 -1.92,3.54 -1.08,1.8 -2.4,3.72 -1.26,1.86 -2.46,3.48 l 0.54,1.2 q 1.44,3.18 2.94,6.6 1.5,3.42 2.52,6.12 0.12,0.3 0.18,0.66 0.12,0.3 0,0.36 -0.06,0 -0.3,-0.24 -0.24,-0.3 -0.48,-0.6 -2.1,-2.82 -3.78,-5.88 -1.62,-3.06 -3.18,-6.3 -0.72,0.9 -1.44,1.86 -0.72,0.9 -1.44,1.86 1.14,2.22 2.58,4.44 1.44,2.16 3.12,4.14 1.68,1.92 3.54,3.54 1.92,1.56 3.9,2.52 z m -6.42,-28.2 q -2.34,3 -5.16,6.06 -2.82,3 -5.52,5.7 -0.12,0.06 -0.48,0.48 -0.36,0.36 -0.48,0.24 -0.12,-0.06 0.06,-0.6 0.24,-0.54 0.42,-0.78 0.42,-0.72 1.2,-1.8 0.78,-1.14 1.62,-2.28 0.9,-1.2 1.68,-2.28 0.84,-1.14 1.38,-1.8 1.38,-1.8 3,-4.02 1.68,-2.22 3.12,-4.44 1.5,-2.22 2.64,-4.2 1.2,-1.98 1.62,-3.18 0.18,-0.66 0.24,-0.66 0.06,0 0.12,0.24 0.12,0.18 0.12,0.48 0.06,1.32 -0.48,3.12 -0.54,1.74 -1.44,3.54 -0.84,1.8 -1.86,3.48 -0.96,1.62 -1.8,2.7 z m -18.06,24.36 q -0.48,1.2 -0.9,2.22 -0.36,1.02 -0.66,1.86 -0.06,0.12 -0.24,0.3 -0.12,0.18 -0.24,-0.3 -0.18,-1.02 0,-2.22 0.18,-1.2 1.02,-3.12 0.3,-0.72 0.78,-1.62 0.48,-0.96 1.02,-1.74 0.54,-0.84 0.96,-1.38 0.48,-0.54 0.72,-0.36 0,0.06 -0.12,0.42 -0.12,0.36 -0.3,0.78 -0.12,0.42 -0.3,0.84 -0.12,0.36 -0.18,0.48 -0.42,1.14 -0.78,1.98 -0.36,0.84 -0.78,1.86 z m 22.02,-0.12 q 0.96,0.9 1.86,1.68 0.96,0.72 1.98,1.38 0.12,0.12 0.3,0.3 0.18,0.12 0.12,0.18 -0.12,0.12 -0.36,0.12 -0.18,-0.06 -0.48,-0.12 -0.6,-0.18 -1.08,-0.3 -0.48,-0.12 -1.02,-0.36 -0.48,-0.3 -1.08,-0.72 -0.54,-0.42 -1.26,-1.14 -0.6,-0.6 -1.38,-1.5 -0.72,-0.96 -1.38,-1.86 -0.6,-0.96 -0.96,-1.68 -0.36,-0.72 -0.18,-0.84 0.06,-0.06 0.36,0.18 0.3,0.24 0.6,0.6 0.3,0.3 0.54,0.6 0.3,0.3 0.42,0.42 0.84,0.9 1.56,1.62 0.72,0.72 1.44,1.44 z" />
      <path
         id="path26"
         style="font-family:Poppins;letter-spacing:0.075em"
         d="m 243.90672,57.58 v 8.16 h -11.52 V 100 h -10.32 V 65.74 h -11.4 v -8.16 z" />
      <path
         id="path28"
         style="font-family:Poppins;letter-spacing:0.075em"
         d="m 262.99141,65.74 v 8.88 h 14.34 v 7.74 h -14.34 v 9.42 h 16.14 V 100 h -26.4 V 57.58 h 26.4 v 8.16 z" />
      <path
         id="path30"
         style="font-family:Poppins;letter-spacing:0.075em"
         d="M 337.15797,57.88 V 100 h -10.26 V 73.66 l -9.12,26.34 h -8.88 l -9.18,-26.4 V 100 h -10.26 V 57.88 h 12.54 l 11.46,29.34 11.22,-29.34 z" />
      <path
         id="path32"
         style="font-family:Poppins;letter-spacing:0.075em"
         d="M 358.94453,85.12 V 100 h -10.26 V 57.58 h 16.62 q 7.56,0 11.52,3.78 3.96,3.72 3.96,10.08 0,3.96 -1.8,7.08 -1.74,3.06 -5.22,4.86 -3.48,1.74 -8.46,1.74 z m 5.22,-8.22 q 6.18,0 6.18,-5.46 0,-5.58 -6.18,-5.58 h -5.22 V 76.9 Z" />
      <path
         id="path34"
         style="font-family:Poppins;letter-spacing:0.075em"
         d="m 410.49297,56.92 q 6,0 10.86,2.82 4.92,2.76 7.74,7.74 2.82,4.92 2.82,11.16 0,6.24 -2.88,11.22 -2.82,4.98 -7.74,7.8 -4.86,2.76 -10.8,2.76 -5.94,0 -10.86,-2.76 -4.86,-2.82 -7.74,-7.8 -2.82,-4.98 -2.82,-11.22 0,-6.24 2.82,-11.16 2.88,-4.98 7.74,-7.74 4.92,-2.82 10.86,-2.82 z m 0,9.54 q -5.04,0 -8.04,3.3 -2.94,3.24 -2.94,8.88 0,5.58 2.94,8.88 3,3.3 8.04,3.3 4.98,0 7.98,-3.3 3,-3.3 3,-8.88 0,-5.58 -3,-8.88 -2.94,-3.3 -7.98,-3.3 z" />
      <path
         id="path36"
         style="font-family:Poppins;letter-spacing:0.075em"
         d="m 463.95672,100 -9.18,-16.02 h -2.34 V 100 h -10.26 V 57.58 h 17.52 q 5.04,0 8.52,1.74 3.48,1.74 5.22,4.8 1.74,3 1.74,6.9 0,4.62 -2.58,7.86 -2.52,3.24 -7.38,4.44 l 10.08,16.68 z m -11.52,-23.04 h 6.36 q 3.06,0 4.5,-1.32 1.44,-1.38 1.44,-4.02 0,-2.52 -1.5,-3.96 -1.44,-1.44 -4.44,-1.44 h -6.36 z" />
      <path
         id="path38"
         style="font-family:Poppins;letter-spacing:0.075em"
         d="m 511.15984,92.26 h -15.9 l -2.64,7.74 h -10.8 l 15.54,-42.12 h 11.82 l 15.54,42.12 h -10.92 z m -2.64,-7.8 -5.28,-15.6 -5.34,15.6 z" />
      <path
         id="path40"
         style="font-family:Poppins;letter-spacing:0.075em"
         d="m 570.88797,100 h -10.26 l -17.16,-26.04 V 100 h -10.26 V 57.58 h 10.26 l 17.16,26.28 V 57.58 h 10.26 z" />
      <path
         id="path42"
         style="font-family:Poppins;letter-spacing:0.075em"
         d="m 592.73359,65.74 v 8.88 h 14.34 v 7.74 h -14.34 v 9.42 h 16.14 V 100 h -26.4 V 57.58 h 26.4 v 8.16 z" />
      <path
         id="path44"
         style="font-family:Poppins;letter-spacing:0.075em"
         d="m 645.48016,92.26 h -15.9 l -2.64,7.74 h -10.8 l 15.54,-42.12 h 11.82 l 15.54,42.12 h -10.92 z m -2.64,-7.8 -5.28,-15.6 -5.34,15.6 z" />
    </g>
  </g>
</svg>
