<?xml version="1.0" encoding="UTF-8" standalone="no"?>
<svg
   xmlns:dc="http://purl.org/dc/elements/1.1/"
   xmlns:cc="http://creativecommons.org/ns#"
   xmlns:rdf="http://www.w3.org/1999/02/22-rdf-syntax-ns#"
   xmlns:svg="http://www.w3.org/2000/svg"
   xmlns="http://www.w3.org/2000/svg"
   id="svg16"
   width="800px"
   version="1.1"
   height="200px">
  <metadata
     id="metadata20">
    <rdf:RDF>
      <cc:Work
         rdf:about="">
        <dc:format>image/svg+xml</dc:format>
        <dc:type
           rdf:resource="http://purl.org/dc/dcmitype/StillImage" />
      </cc:Work>
    </rdf:RDF>
  </metadata>
  <defs
     id="defs4">
    <style
       id="style2"
       type="text/css"><![CDATA[    
     @font-face {font-family:Poppins;
     src: url('/Users/francesco/Repos/write-logos/src/fonts/Fonts_E_TEMPORANEA/Poppins-Bold.ttf');}
     @font-face {font-family:Westpart;
     src: url('/Users/francesco/Repos/write-logos/src/fonts/Fonts_X/WestpartDemo.otf');}
     ]]></style>
  </defs>
  <g
     id="g14"
     style="font-size:60px">
    <g
       style="text-anchor:middle"
       id="text12"
       aria-label="EXTEMPORANEA">
      <path
         id="path22"
         style="font-family:Poppins;letter-spacing:0.075em"
         d="m 151.20625,65.74 v 8.88 h 14.34 v 7.74 h -14.34 v 9.42 h 16.14 V 100 h -26.4 V 57.58 h 26.4 v 8.16 z" />
      <path
         id="path24"
         style="font-family:Westpart;letter-spacing:0.05em"
         d="m 174.13281,103.96 c 0,0 0,0 0,0 0,0 0,0 0,0 z m 34.5,-47.94 c -0.24,-0.18 -0.48,-0.3 -0.66,-0.48 -0.42,0.06 -0.84,0.12 -1.26,0.12 -1.14,0.48 -1.98,1.32 -2.88,2.04 -0.42,0.84 -1.2,1.32 -1.8,1.92 -1.02,1.14 -2.22,2.04 -3,3.36 -0.42,0.72 -1.02,1.26 -1.44,1.98 -0.6,1.02 -1.38,1.86 -2.04,2.88 -0.54,0.78 -1.26,1.44 -1.62,2.34 -0.06,0.18 -0.3,0.36 -0.42,0.48 -0.18,0.18 -0.36,0.36 -0.48,0.6 -0.54,0.9 -1.2,1.74 -1.86,2.64 -0.24,0.36 -0.54,0.72 -0.84,1.08 0,0.06 -0.12,0.06 -0.3,0.06 0.54,-1.26 1.38,-2.34 2.22,-3.36 0.18,-0.54 0.48,-1.08 0.9,-1.5 0.42,-0.48 0.84,-0.9 0.9,-1.56 0.72,-0.6 1.26,-1.38 1.74,-2.16 0.24,-0.48 0.66,-0.96 0.96,-1.38 0.18,-0.24 0.42,-0.42 0.54,-0.66 0.54,-0.78 1.14,-1.5 1.62,-2.28 0.36,-0.54 0.84,-1.08 1.14,-1.68 0.06,-0.06 0,-0.12 0.06,-0.36 -1.08,0.96 -2.04,1.74 -2.82,2.82 -0.48,0.66 -1.02,1.32 -1.62,1.92 -0.9,0.96 -1.74,1.92 -2.46,3 -0.18,0.24 -0.3,0.48 -0.54,0.66 -0.9,0.84 -1.44,2.04 -2.34,2.88 -0.24,0.3 -0.36,0.72 -0.66,0.96 -0.3,0.24 -0.54,0.66 -0.84,1.02 -0.24,-0.42 -0.42,-0.78 -0.72,-1.08 -0.24,-0.3 -0.42,-0.54 -0.6,-0.84 -0.36,-0.6 -0.78,-1.14 -1.2,-1.62 -0.12,-0.18 -0.3,-0.42 -0.6,-0.36 -0.06,0 -0.12,-0.12 -0.18,-0.12 0.06,-0.18 0.06,-0.36 0.12,-0.48 -0.72,-0.72 -1.2,-1.5 -1.68,-2.28 -0.36,-0.54 -0.84,-0.96 -1.44,-1.08 -1.02,-1.14 -2.1,-2.1 -3.24,-2.94 -0.54,-0.12 -0.96,0 -1.26,0.36 0,0.06 -0.06,0.12 -0.06,0.18 0,1.02 0.36,1.98 0.6,3 0.18,0.6 0.6,1.2 0.9,1.8 0.48,1.02 0.96,1.98 1.5,3.06 0.12,0.12 0.42,0.36 0.48,0.6 0.06,0.42 0.36,0.66 0.6,0.96 0.12,0.12 0.18,0.3 0.3,0.42 0.42,0.66 0.66,1.44 1.26,1.98 0.06,0.06 0.06,0.18 0.12,0.3 0.48,0.9 1.02,1.8 1.5,2.7 0.12,0.18 0.12,0.36 0.18,0.48 -0.06,0.24 -0.12,0.48 -0.18,0.66 -0.12,0.18 -0.24,0.36 -0.36,0.48 -0.18,0.3 -0.42,0.54 -0.54,0.84 -0.42,0.84 -0.96,1.56 -1.5,2.28 -0.18,0.18 -0.36,0.42 -0.42,0.66 -0.48,1.02 -1.14,1.98 -1.68,2.94 -0.48,0.78 -1.02,1.5 -1.32,2.34 -0.12,0.3 -0.3,0.6 -0.42,0.84 -0.42,0.78 -0.84,1.62 -1.26,2.4 -0.3,0.72 -0.72,1.38 -0.96,2.16 -0.24,0.78 -0.72,1.44 -0.9,2.22 -0.06,0.36 -0.18,0.78 -0.42,1.08 -0.18,0.3 -0.12,0.66 -0.24,1.02 -0.12,0.12 -0.36,0.12 -0.3,0.36 0.24,0.12 0.48,0.24 0.72,0.3 -0.06,0.24 -0.12,0.48 -0.18,0.72 0,0.3 0,0.54 0,0.84 -0.24,0.12 -0.42,0.3 -0.6,0.42 -0.24,0.72 -0.3,1.44 -0.78,1.98 -0.18,0.24 -0.18,0.66 0.06,1.02 0.3,-0.24 0.6,-0.48 0.96,-0.66 0.06,-0.18 0.18,-0.36 0.18,-0.54 0.06,-0.18 0.06,-0.36 0.06,-0.54 0.3,-0.42 0.6,-0.78 0.84,-1.14 0.3,0 0.54,0 0.78,0 0,-0.66 0.48,-0.96 0.78,-1.14 0.3,-0.54 0.6,-0.9 0.84,-1.32 0.72,-1.38 1.62,-2.7 2.4,-4.02 0.54,-0.96 1.32,-1.8 1.68,-2.82 0.18,-0.3 0.48,-0.54 0.72,-0.78 0.84,-1.26 1.74,-2.52 2.58,-3.78 0.3,-0.48 0.54,-0.9 0.96,-1.5 0.06,-0.12 0.36,-0.24 0.6,-0.48 0.18,-0.24 0.24,-0.54 0.54,-0.78 0.24,-0.18 0.36,-0.48 0.54,-0.66 0.24,0.36 0.54,0.66 0.72,1.08 0.6,1.14 1.2,2.34 1.8,3.48 0.12,0.18 0.18,0.42 0.3,0.54 0.42,0.42 0.6,0.9 0.9,1.38 0.24,0.48 0.48,1.08 0.84,1.44 0.66,0.72 1.32,1.5 2.16,2.04 0.48,0.36 0.84,0.78 1.26,1.2 0.06,0 0.12,0 0.24,0.06 0.18,-0.18 0.36,-0.3 0.54,-0.48 0.24,0.12 0.42,0.24 0.6,0.3 0.18,0.3 0.36,0.54 0.48,0.84 0.36,0.18 0.72,0.3 1.02,0.48 0.3,-0.36 0.18,-0.72 0.18,-1.02 -0.06,-0.06 -0.06,-0.12 -0.12,-0.24 0,0 0.06,0 0.06,0 0,0.06 0.06,0.18 0.06,0.24 0.12,0 0.24,0.06 0.3,0.06 0.36,-0.54 0.42,-1.14 0.36,-1.62 -0.24,-0.66 -0.48,-1.14 -0.66,-1.68 -0.18,-0.6 -0.42,-1.14 -0.48,-1.74 -0.12,-0.48 -0.36,-0.84 -0.6,-1.26 -0.36,-0.78 -1.02,-1.32 -1.26,-2.16 -0.24,-0.12 -0.42,-0.24 -0.6,-0.42 0,-0.78 -0.48,-1.38 -0.96,-2.04 0,-0.9 -1.02,-1.26 -1.08,-2.1 -0.24,-0.12 -0.36,-0.18 -0.48,-0.3 -0.3,-0.54 -0.48,-1.08 -0.84,-1.5 -0.42,-0.54 -0.78,-1.14 -1.08,-1.8 0.12,-0.24 0.24,-0.54 0.42,-0.78 0.6,-0.84 1.32,-1.68 1.92,-2.52 0.42,-0.54 0.72,-1.08 1.26,-1.5 0.24,-0.18 0.36,-0.48 0.54,-0.78 0.18,-0.24 0.3,-0.48 0.48,-0.72 0.3,-0.42 0.66,-0.78 1.02,-1.32 0.12,-0.06 0.36,-0.18 0.36,-0.18 0.6,-0.72 1.02,-1.2 1.44,-1.74 0.24,-0.36 0.54,-0.72 0.96,-1.26 0.06,-0.12 0.36,-0.42 0.6,-0.72 0.96,-1.02 1.56,-2.28 2.4,-3.36 0.24,-0.3 0.48,-0.6 0.66,-0.9 0.72,-1.44 1.68,-2.7 2.7,-3.9 0.6,-0.72 1.14,-1.44 1.62,-2.1 0,-0.3 0,-0.54 0,-0.78 z m -33,42.96 c 0,-0.12 0,-0.24 0.06,-0.48 0.18,0.24 0.06,0.36 -0.06,0.48 z m 1.92,-1.5 c -0.06,0.12 -0.06,0.18 -0.12,0.24 0,0 0,0 -0.06,0 0.06,-0.06 0.12,-0.18 0.18,-0.24 0,0 0,-0.06 0,-0.06 0,0.06 0,0.06 0,0.06 z m 1.44,-3.06 v -0.06 l 0.12,0.06 z m 6.6,-27.06 c 0.12,0.06 0.24,0.12 0.42,-0.12 -0.6,-0.78 -0.96,-1.68 -1.98,-2.34 0.06,0.24 0.06,0.36 0.06,0.36 0.54,0.72 1.02,1.38 1.5,2.1 z m -11.46,36.6 c -0.06,0 -0.06,0 -0.06,0.06 0,-0.06 0,-0.06 0.06,-0.06 z" />
      <path
         id="path26"
         style="font-family:Poppins;letter-spacing:0.075em"
         d="m 247.01219,57.58 v 8.16 h -11.52 V 100 h -10.32 V 65.74 h -11.4 v -8.16 z" />
      <path
         id="path28"
         style="font-family:Poppins;letter-spacing:0.075em"
         d="m 266.09687,65.74 v 8.88 h 14.34 v 7.74 h -14.34 v 9.42 h 16.14 V 100 h -26.4 V 57.58 h 26.4 v 8.16 z" />
      <path
         id="path30"
         style="font-family:Poppins;letter-spacing:0.075em"
         d="M 340.26344,57.88 V 100 h -10.26 V 73.66 l -9.12,26.34 h -8.88 l -9.18,-26.4 V 100 h -10.26 V 57.88 h 12.54 l 11.46,29.34 11.22,-29.34 z" />
      <path
         id="path32"
         style="font-family:Poppins;letter-spacing:0.075em"
         d="M 362.05,85.12 V 100 H 351.79 V 57.58 h 16.62 q 7.56,0 11.52,3.78 3.96,3.72 3.96,10.08 0,3.96 -1.8,7.08 -1.74,3.06 -5.22,4.86 -3.48,1.74 -8.46,1.74 z m 5.22,-8.22 q 6.18,0 6.18,-5.46 0,-5.58 -6.18,-5.58 h -5.22 V 76.9 Z" />
      <path
         id="path34"
         style="font-family:Poppins;letter-spacing:0.075em"
         d="m 413.59844,56.92 q 6,0 10.86,2.82 4.92,2.76 7.74,7.74 2.82,4.92 2.82,11.16 0,6.24 -2.88,11.22 -2.82,4.98 -7.74,7.8 -4.86,2.76 -10.8,2.76 -5.94,0 -10.86,-2.76 -4.86,-2.82 -7.74,-7.8 -2.82,-4.98 -2.82,-11.22 0,-6.24 2.82,-11.16 2.88,-4.98 7.74,-7.74 4.92,-2.82 10.86,-2.82 z m 0,9.54 q -5.04,0 -8.04,3.3 -2.94,3.24 -2.94,8.88 0,5.58 2.94,8.88 3,3.3 8.04,3.3 4.98,0 7.98,-3.3 3,-3.3 3,-8.88 0,-5.58 -3,-8.88 -2.94,-3.3 -7.98,-3.3 z" />
      <path
         id="path36"
         style="font-family:Poppins;letter-spacing:0.075em"
         d="m 467.06219,100 -9.18,-16.02 h -2.34 V 100 h -10.26 V 57.58 h 17.52 q 5.04,0 8.52,1.74 3.48,1.74 5.22,4.8 1.74,3 1.74,6.9 0,4.62 -2.58,7.86 -2.52,3.24 -7.38,4.44 l 10.08,16.68 z m -11.52,-23.04 h 6.36 q 3.06,0 4.5,-1.32 1.44,-1.38 1.44,-4.02 0,-2.52 -1.5,-3.96 -1.44,-1.44 -4.44,-1.44 h -6.36 z" />
      <path
         id="path38"
         style="font-family:Poppins;letter-spacing:0.075em"
         d="m 514.26531,92.26 h -15.9 l -2.64,7.74 h -10.8 l 15.54,-42.12 h 11.82 l 15.54,42.12 h -10.92 z m -2.64,-7.8 -5.28,-15.6 -5.34,15.6 z" />
      <path
         id="path40"
         style="font-family:Poppins;letter-spacing:0.075em"
         d="m 573.99344,100 h -10.26 l -17.16,-26.04 V 100 h -10.26 V 57.58 h 10.26 l 17.16,26.28 V 57.58 h 10.26 z" />
      <path
         id="path42"
         style="font-family:Poppins;letter-spacing:0.075em"
         d="m 595.83906,65.74 v 8.88 h 14.34 v 7.74 h -14.34 v 9.42 h 16.14 V 100 h -26.4 V 57.58 h 26.4 v 8.16 z" />
      <path
         id="path44"
         style="font-family:Poppins;letter-spacing:0.075em"
         d="m 648.58563,92.26 h -15.90001 l -2.64,7.74 h -10.79999 l 15.53999,-42.12 h 11.82001 L 662.14562,100 h -10.91999 z m -2.64001,-7.8 -5.28,-15.6 -5.34,15.6 z" />
    </g>
  </g>
</svg>
