<?xml version="1.0" encoding="UTF-8" standalone="no"?>
<svg
   xmlns:dc="http://purl.org/dc/elements/1.1/"
   xmlns:cc="http://creativecommons.org/ns#"
   xmlns:rdf="http://www.w3.org/1999/02/22-rdf-syntax-ns#"
   xmlns:svg="http://www.w3.org/2000/svg"
   xmlns="http://www.w3.org/2000/svg"
   id="svg16"
   width="800px"
   version="1.1"
   height="200px">
  <metadata
     id="metadata20">
    <rdf:RDF>
      <cc:Work
         rdf:about="">
        <dc:format>image/svg+xml</dc:format>
        <dc:type
           rdf:resource="http://purl.org/dc/dcmitype/StillImage" />
      </cc:Work>
    </rdf:RDF>
  </metadata>
  <defs
     id="defs4">
    <style
       id="style2"
       type="text/css"><![CDATA[    
     @font-face {font-family:Poppins;
     src: url('/Users/francesco/Repos/write-logos/src/fonts/Fonts_E_TEMPORANEA/Poppins-Bold.ttf');}
     @font-face {font-family:Interferencias;
     src: url('/Users/francesco/Repos/write-logos/src/fonts/Fonts_X/Interferencias.otf');}
     ]]></style>
  </defs>
  <g
     id="g14"
     style="font-size:60px">
    <g
       style="text-anchor:middle"
       id="text12"
       aria-label="EXTEMPORANEA">
      <path
         id="path22"
         style="font-family:Poppins;letter-spacing:0.075em"
         d="m 156.3625,65.74 v 8.88 h 14.34 v 7.74 h -14.34 v 9.42 h 16.14 V 100 h -26.4 V 57.58 h 26.4 v 8.16 z" />
      <path
         id="path24"
         style="font-family:Interferencias;letter-spacing:0.05em"
         d="m 176.0957,58.017578 h 7.06055 l 3.42773,2.138672 q 1.43555,1.582031 3.45704,7.851562 0,1.289063 0.64453,1.494141 0.67382,-0.498047 2.63672,-8.847656 0,-0.761719 -1.64063,-1.992188 v -0.146484 q 0.17578,-0.498047 0.99609,-0.498047 h 5.56641 q 3.42773,1.435547 3.42773,3.457031 -4.10156,14.619141 -4.57031,17.197266 1.99219,7.236328 3.92578,7.236328 3.07618,0.878906 3.28125,1.142578 v 0.322266 q -0.0879,0.498047 -2.28515,1.142578 -0.49805,1.259766 -0.49805,1.816406 v 0.146485 q 2.95898,8.876953 2.95898,9.345703 L 204.13281,100 h -5.88867 q -2.08008,0 -3.10547,-4.277344 -1.99219,-5.332031 -1.99219,-6.064453 0.67383,-1.171875 0.67383,-1.464844 l -0.32226,-0.175781 q -1.25977,0 -1.49414,1.816406 -0.82032,0 -1.96289,6.240235 Q 189.30859,100 188.72266,100 h -6.06446 q -1.78711,-0.527344 -1.78711,-0.996094 v -0.46875 q 1.99219,-8.408203 2.78321,-9.345703 1.40625,-1.113281 4.57031,-1.816406 l 0.17578,-0.322266 q -0.49805,-0.380859 -2.46094,-0.820312 -1.46484,-1.201172 -1.46484,-1.816407 1.28906,-4.921875 1.46484,-6.5625 -3.10547,-8.378906 -4.42383,-11.308593 0,-1.201172 -2.28515,-5.566407 0,-0.908203 -2.8125,-1.816406 l -0.64453,-0.820312 q 0.0586,-0.322266 0.32226,-0.322266 z" />
      <path
         id="path26"
         style="font-family:Poppins;letter-spacing:0.075em"
         d="m 241.85594,57.58 v 8.16 h -11.52 V 100 h -10.32 V 65.74 h -11.4 v -8.16 z" />
      <path
         id="path28"
         style="font-family:Poppins;letter-spacing:0.075em"
         d="m 260.94062,65.74 v 8.88 h 14.34 v 7.74 h -14.34 v 9.42 h 16.14 V 100 h -26.4 V 57.58 h 26.4 v 8.16 z" />
      <path
         id="path30"
         style="font-family:Poppins;letter-spacing:0.075em"
         d="M 335.10719,57.88 V 100 h -10.26 V 73.66 l -9.12,26.34 h -8.88 l -9.18,-26.4 V 100 h -10.26 V 57.88 h 12.54 l 11.46,29.34 11.22,-29.34 z" />
      <path
         id="path32"
         style="font-family:Poppins;letter-spacing:0.075em"
         d="M 356.89375,85.12 V 100 h -10.26 V 57.58 h 16.62 q 7.56,0 11.52,3.78 3.96,3.72 3.96,10.08 0,3.96 -1.8,7.08 -1.74,3.06 -5.22,4.86 -3.48,1.74 -8.46,1.74 z m 5.22,-8.22 q 6.18,0 6.18,-5.46 0,-5.58 -6.18,-5.58 h -5.22 V 76.9 Z" />
      <path
         id="path34"
         style="font-family:Poppins;letter-spacing:0.075em"
         d="m 408.44219,56.92 q 6,0 10.86,2.82 4.92,2.76 7.74,7.74 2.82,4.92 2.82,11.16 0,6.24 -2.88,11.22 -2.82,4.98 -7.74,7.8 -4.86,2.76 -10.8,2.76 -5.94,0 -10.86,-2.76 -4.86,-2.82 -7.74,-7.8 -2.82,-4.98 -2.82,-11.22 0,-6.24 2.82,-11.16 2.88,-4.98 7.74,-7.74 4.92,-2.82 10.86,-2.82 z m 0,9.54 q -5.04,0 -8.04,3.3 -2.94,3.24 -2.94,8.88 0,5.58 2.94,8.88 3,3.3 8.04,3.3 4.98,0 7.98,-3.3 3,-3.3 3,-8.88 0,-5.58 -3,-8.88 -2.94,-3.3 -7.98,-3.3 z" />
      <path
         id="path36"
         style="font-family:Poppins;letter-spacing:0.075em"
         d="m 461.90594,100 -9.18,-16.02 h -2.34 V 100 h -10.26 V 57.58 h 17.52 q 5.04,0 8.52,1.74 3.48,1.74 5.22,4.8 1.74,3 1.74,6.9 0,4.62 -2.58,7.86 -2.52,3.24 -7.38,4.44 l 10.08,16.68 z m -11.52,-23.04 h 6.36 q 3.06,0 4.5,-1.32 1.44,-1.38 1.44,-4.02 0,-2.52 -1.5,-3.96 -1.44,-1.44 -4.44,-1.44 h -6.36 z" />
      <path
         id="path38"
         style="font-family:Poppins;letter-spacing:0.075em"
         d="m 509.10906,92.26 h -15.9 l -2.64,7.74 h -10.8 l 15.54,-42.12 h 11.82 l 15.54,42.12 h -10.92 z m -2.64,-7.8 -5.28,-15.6 -5.34,15.6 z" />
      <path
         id="path40"
         style="font-family:Poppins;letter-spacing:0.075em"
         d="m 568.83719,100 h -10.26 l -17.16,-26.04 V 100 h -10.26 V 57.58 h 10.26 l 17.16,26.28 V 57.58 h 10.26 z" />
      <path
         id="path42"
         style="font-family:Poppins;letter-spacing:0.075em"
         d="m 590.68281,65.74 v 8.88 h 14.34 v 7.74 h -14.34 v 9.42 h 16.14 V 100 h -26.4 V 57.58 h 26.4 v 8.16 z" />
      <path
         id="path44"
         style="font-family:Poppins;letter-spacing:0.075em"
         d="m 643.42938,92.26 h -15.90001 l -2.64,7.74 h -10.79999 l 15.53999,-42.12 h 11.82001 L 656.98937,100 h -10.91999 z m -2.64001,-7.8 -5.28,-15.6 -5.34,15.6 z" />
    </g>
  </g>
</svg>
