<?xml version="1.0" encoding="UTF-8" standalone="no"?>
<svg
   xmlns:dc="http://purl.org/dc/elements/1.1/"
   xmlns:cc="http://creativecommons.org/ns#"
   xmlns:rdf="http://www.w3.org/1999/02/22-rdf-syntax-ns#"
   xmlns:svg="http://www.w3.org/2000/svg"
   xmlns="http://www.w3.org/2000/svg"
   id="svg16"
   width="800px"
   version="1.1"
   height="200px">
  <metadata
     id="metadata20">
    <rdf:RDF>
      <cc:Work
         rdf:about="">
        <dc:format>image/svg+xml</dc:format>
        <dc:type
           rdf:resource="http://purl.org/dc/dcmitype/StillImage" />
      </cc:Work>
    </rdf:RDF>
  </metadata>
  <defs
     id="defs4">
    <style
       id="style2"
       type="text/css"><![CDATA[    
     @font-face {font-family:Poppins;
     src: url('/Users/francesco/Repos/write-logos/src/fonts/Fonts_E_TEMPORANEA/Poppins-Bold.ttf');}
     @font-face {font-family:Ephesus extrabold outline;
     src: url('/Users/francesco/Repos/write-logos/src/fonts/Fonts_X/Ephesus-ExtraBold-outline.otf');}
     ]]></style>
  </defs>
  <g
     id="g14"
     style="font-size:60px">
    <g
       style="text-anchor:middle"
       id="text12"
       aria-label="EXTEMPORANEA">
      <path
         id="path22"
         style="font-family:Poppins;letter-spacing:0.075em"
         d="m 146.81172,65.74 v 8.88 h 14.34 v 7.74 h -14.34 v 9.42 h 16.14 V 100 h -26.4 V 57.58 h 26.4 v 8.16 z" />
      <path
         id="path24"
         style="font-family:'Ephesus extrabold outline';letter-spacing:0.05em"
         d="m 171.41828,98.14 c -0.18,0.18 -0.3,0.48 -0.3,0.72 0,0.54 0.42,1.14 1.08,1.14 h 9.66 c 1.98,0 2.7,-0.9 3.06,-1.26 l 7.08,-9.96 7.08,9.96 c 0.36,0.36 1.08,1.26 3.06,1.26 h 9.66 c 0.66,0 1.08,-0.6 1.08,-1.14 0,-0.24 -0.12,-0.54 -0.3,-0.72 l -13.44,-19.08 13.32,-19.08 c 0.24,-0.3 0.36,-0.6 0.36,-0.84 0,-0.72 -0.78,-1.14 -1.2,-1.14 h -9.84 c -1.86,0 -2.4,0.6 -3.06,1.26 l -6.72,9.6 -6.72,-9.6 c -0.66,-0.66 -1.2,-1.26 -3.06,-1.26 h -9.84 c -0.42,0 -1.2,0.42 -1.2,1.14 0,0.24 0.12,0.54 0.36,0.84 l 13.32,19.08 z m 10.44,-0.06 h -8.1 l 13.44,-19.02 -13.44,-19.14 h 8.46 c 1.02,0 1.32,0.36 1.68,0.72 l -0.18,-0.3 8.28,11.82 c 2.22,-3.18 6.06,-8.64 8.1,-11.52 0.36,-0.36 0.66,-0.72 1.68,-0.72 h 8.34 l -13.32,19.14 13.38,19.02 h -8.04 c -0.96,0 -1.26,-0.24 -1.44,-0.42 l -8.7,-12.24 c -2.34,3.3 -6.3,8.88 -8.64,12.18 l 0.12,-0.12 c -0.18,0.24 -0.6,0.6 -1.62,0.6 z" />
      <path
         id="path26"
         style="font-family:Poppins;letter-spacing:0.075em"
         d="m 251.40672,57.58 v 8.16 h -11.52 V 100 h -10.32 V 65.74 h -11.4 v -8.16 z" />
      <path
         id="path28"
         style="font-family:Poppins;letter-spacing:0.075em"
         d="m 270.49141,65.74 v 8.88 h 14.34 v 7.74 h -14.34 v 9.42 h 16.14 V 100 h -26.4 V 57.58 h 26.4 v 8.16 z" />
      <path
         id="path30"
         style="font-family:Poppins;letter-spacing:0.075em"
         d="M 344.65797,57.88 V 100 h -10.26 V 73.66 l -9.12,26.34 h -8.88 l -9.18,-26.4 V 100 h -10.26 V 57.88 h 12.54 l 11.46,29.34 11.22,-29.34 z" />
      <path
         id="path32"
         style="font-family:Poppins;letter-spacing:0.075em"
         d="M 366.44453,85.12 V 100 h -10.26 V 57.58 h 16.62 q 7.56,0 11.52,3.78 3.96,3.72 3.96,10.08 0,3.96 -1.8,7.08 -1.74,3.06 -5.22,4.86 -3.48,1.74 -8.46,1.74 z m 5.22,-8.22 q 6.18,0 6.18,-5.46 0,-5.58 -6.18,-5.58 h -5.22 V 76.9 Z" />
      <path
         id="path34"
         style="font-family:Poppins;letter-spacing:0.075em"
         d="m 417.99297,56.92 q 6,0 10.86,2.82 4.92,2.76 7.74,7.74 2.82,4.92 2.82,11.16 0,6.24 -2.88,11.22 -2.82,4.98 -7.74,7.8 -4.86,2.76 -10.8,2.76 -5.94,0 -10.86,-2.76 -4.86,-2.82 -7.74,-7.8 -2.82,-4.98 -2.82,-11.22 0,-6.24 2.82,-11.16 2.88,-4.98 7.74,-7.74 4.92,-2.82 10.86,-2.82 z m 0,9.54 q -5.04,0 -8.04,3.3 -2.94,3.24 -2.94,8.88 0,5.58 2.94,8.88 3,3.3 8.04,3.3 4.98,0 7.98,-3.3 3,-3.3 3,-8.88 0,-5.58 -3,-8.88 -2.94,-3.3 -7.98,-3.3 z" />
      <path
         id="path36"
         style="font-family:Poppins;letter-spacing:0.075em"
         d="m 471.45672,100 -9.18,-16.02 h -2.34 V 100 h -10.26 V 57.58 h 17.52 q 5.04,0 8.52,1.74 3.48,1.74 5.22,4.8 1.74,3 1.74,6.9 0,4.62 -2.58,7.86 -2.52,3.24 -7.38,4.44 l 10.08,16.68 z m -11.52,-23.04 h 6.36 q 3.06,0 4.5,-1.32 1.44,-1.38 1.44,-4.02 0,-2.52 -1.5,-3.96 -1.44,-1.44 -4.44,-1.44 h -6.36 z" />
      <path
         id="path38"
         style="font-family:Poppins;letter-spacing:0.075em"
         d="m 518.65984,92.26 h -15.9 l -2.64,7.74 h -10.8 l 15.54,-42.12 h 11.82 l 15.54,42.12 h -10.92 z m -2.64,-7.8 -5.28,-15.6 -5.34,15.6 z" />
      <path
         id="path40"
         style="font-family:Poppins;letter-spacing:0.075em"
         d="m 578.38797,100 h -10.26 l -17.16,-26.04 V 100 h -10.26 V 57.58 h 10.26 l 17.16,26.28 V 57.58 h 10.26 z" />
      <path
         id="path42"
         style="font-family:Poppins;letter-spacing:0.075em"
         d="m 600.23359,65.74 v 8.88 h 14.34 v 7.74 h -14.34 v 9.42 h 16.14 V 100 h -26.4 V 57.58 h 26.4 v 8.16 z" />
      <path
         id="path44"
         style="font-family:Poppins;letter-spacing:0.075em"
         d="m 652.98016,92.26 h -15.9 l -2.64,7.74 h -10.8 l 15.54,-42.12 h 11.82 l 15.54,42.12 h -10.92 z m -2.64,-7.8 -5.28,-15.6 -5.34,15.6 z" />
    </g>
  </g>
</svg>
