<?xml version="1.0" encoding="UTF-8" standalone="no"?>
<svg
   xmlns:dc="http://purl.org/dc/elements/1.1/"
   xmlns:cc="http://creativecommons.org/ns#"
   xmlns:rdf="http://www.w3.org/1999/02/22-rdf-syntax-ns#"
   xmlns:svg="http://www.w3.org/2000/svg"
   xmlns="http://www.w3.org/2000/svg"
   id="svg16"
   width="800px"
   version="1.1"
   height="200px">
  <metadata
     id="metadata20">
    <rdf:RDF>
      <cc:Work
         rdf:about="">
        <dc:format>image/svg+xml</dc:format>
        <dc:type
           rdf:resource="http://purl.org/dc/dcmitype/StillImage" />
      </cc:Work>
    </rdf:RDF>
  </metadata>
  <defs
     id="defs4">
    <style
       id="style2"
       type="text/css"><![CDATA[    
     @font-face {font-family:Porter;
     src: url('/Users/francesco/Repos/write-logos/src/fonts/Fonts_E_TEMPORANEA/Porter_Bold.ttf');}
     @font-face {font-family:maxwox font;
     src: url('/Users/francesco/Repos/write-logos/src/fonts/Fonts_X/maxwox.ttf');}
     ]]></style>
  </defs>
  <g
     id="g14"
     style="font-size:60px">
    <g
       style="text-anchor:middle"
       id="text12"
       aria-label="EXTEMPORANEA">
      <path
         id="path22"
         style="font-family:Porter;letter-spacing:0.075em"
         d="m 134.45687,66.34 v 8.46 h 13.62 v 8.4 h -13.62 v 8.46 h 18.66 V 100 h -27 V 58 h 27 v 8.34 z" />
      <path
         id="path24"
         style="font-family:'maxwox font';letter-spacing:0.05em"
         d="m 182.6875,77.236328 v 3.808594 l -0.0293,0.0293 1.66992,0.9375 1.64063,0.9375 v 3.808593 l -1.64063,0.966797 -1.66992,0.9375 -1.64062,-0.9375 -1.64063,-0.9375 -1.64062,0.9375 -1.64063,0.9375 0.0293,0.0293 V 92.5 l -1.66992,0.9375 -1.64063,0.966797 L 171.17383,93.4375 169.5332,92.5 v -3.808594 l 1.64063,-0.966797 1.64062,-0.9375 -0.0293,-0.0293 v -3.808593 l 1.66992,-0.9375 1.64062,-0.9375 1.64063,0.9375 1.64062,0.9375 v 0 l -1.64062,-0.9375 -1.64063,-0.966797 v -3.808594 l 1.64063,-0.9375 1.64062,-0.9375 v -0.0293 l -1.64062,0.966797 -1.64063,0.9375 -1.64062,-0.9375 -1.66992,-0.966797 v -3.808594 l 1.66992,-0.9375 1.64062,-0.966796 1.64063,0.966796 1.64062,0.9375 1.64063,-0.9375 1.64062,-0.966796 1.66992,0.966796 1.64063,0.9375 v 3.808594 l -1.64063,0.966797 -1.66992,0.9375 z m 8.20312,16.201172 1.64063,0.966797 v 3.808594 l -1.64063,0.9375 -1.64062,0.937499 -1.66992,-0.937499 -1.64063,-0.9375 v -3.808594 l 0.0293,-0.0293 -1.64063,-0.9375 L 182.6582,92.5 v -3.808594 l 1.66992,-0.966797 1.64063,-0.9375 1.64062,0.9375 1.64063,0.966797 V 92.5 v 0 z m -19.71679,0 1.64062,0.966797 v 3.808594 l -1.64062,0.9375 -1.64063,0.937499 -1.66992,-0.937499 -1.64062,-0.9375 V 94.404297 L 167.86328,93.4375 169.5332,92.5 Z m 19.71679,-34.306641 1.64063,0.9375 v 3.808594 l -1.64063,0.966797 -1.64062,0.9375 v 0.0293 3.808594 l -1.64063,0.9375 -1.64062,0.966796 -1.64063,-0.966796 -1.66992,-0.9375 v -3.808594 l 1.66992,-0.966797 1.64063,-0.9375 -0.0293,-0.0293 v -3.808594 l 1.64063,-0.9375 1.66992,-0.966797 z m -19.71679,0 1.64062,0.9375 v 3.808594 l -1.64062,0.966797 -1.64063,0.9375 -1.66992,-0.9375 -1.64062,-0.966797 v -3.808594 l 1.64062,-0.9375 1.66992,-0.966797 z m 3.28125,5.712891 1.66992,0.966797 v 3.808594 l -1.66992,0.9375 -1.64063,0.966796 -1.64062,-0.966796 -1.64063,-0.9375 v -3.808594 l 1.64063,-0.966797 1.64062,-0.9375 z" />
      <path
         id="path26"
         style="font-family:Porter;letter-spacing:0.075em"
         d="m 234.24156,66.34 h -11.52 V 100 h -8.34 V 66.34 h -11.64 V 58 h 31.5 z" />
      <path
         id="path28"
         style="font-family:Porter;letter-spacing:0.075em"
         d="m 256.37875,66.34 v 8.46 h 13.62 v 8.4 h -13.62 v 8.46 h 18.66 V 100 h -27 V 58 h 27 v 8.34 z" />
      <path
         id="path30"
         style="font-family:Porter;letter-spacing:0.075em"
         d="M 336.61,57.58 V 100 h -8.28 V 72.88 l -15.12,15 -15.06,-15 V 100 h -8.34 V 57.58 h 4.62 l 18.78,18.66 18.84,-18.66 z" />
      <path
         id="path32"
         style="font-family:Porter;letter-spacing:0.075em"
         d="m 362.70438,100 h -8.34001 V 58 h 16.98001 q 2.63999,0 4.97999,1.02 2.34,1.02 4.08001,2.82 1.8,1.74 2.81999,4.08 1.08,2.34 1.08,5.04 0,2.7 -1.02,5.1 -1.02,2.4 -2.81999,4.14 -1.74001,1.74 -4.14001,2.76 -2.34,1.02 -4.97999,1.02 h -8.64 z m 0,-24.3 h 7.07999 q 3.18001,0 4.68001,-1.38 1.5,-1.44 1.5,-3.36 0,-1.92 -1.5,-3.24 -1.5,-1.38 -4.68001,-1.38 h -7.07999 z" />
      <path
         id="path34"
         style="font-family:Porter;letter-spacing:0.075em"
         d="m 416.48781,100.42 q -4.02,0 -7.86,-1.5 -3.84,-1.5 -6.9,-4.26 -3,-2.82 -4.86,-6.78 -1.8,-3.96 -1.8,-8.82 0,-4.2 1.62,-8.1 1.62,-3.9 4.44,-6.84 2.88,-3 6.78,-4.74 3.96,-1.8 8.58,-1.8 4.14,0 7.98,1.62 3.9,1.56 6.84,4.44 3,2.82 4.8,6.78 1.8,3.96 1.8,8.64 0,4.14 -1.62,8.04 -1.56,3.84 -4.44,6.84 -2.82,2.94 -6.78,4.74 -3.9,1.74 -8.58,1.74 z m 0,-34.5 q -2.7,0 -5.1,1.02 -2.34,1.02 -4.14,2.82 -1.8,1.8 -2.82,4.2 -1.02,2.4 -1.02,5.1 0,2.7 1.02,5.1 1.08,2.34 2.82,4.14 1.8,1.74 4.14,2.76 2.4,1.02 5.1,1.02 2.7,0 5.04,-1.02 2.4,-1.02 4.14,-2.76 1.8,-1.8 2.82,-4.14 1.02,-2.4 1.02,-5.1 0,-2.7 -1.08,-5.1 -1.02,-2.4 -2.82,-4.2 -1.74,-1.8 -4.14,-2.82 -2.34,-1.02 -4.98,-1.02 z" />
      <path
         id="path36"
         style="font-family:Porter;letter-spacing:0.075em"
         d="m 487.40688,100 h -10.2 L 465.80687,83.98 h -5.03999 V 100 h -8.28001 V 58 h 16.98001 q 2.63999,0 4.97999,1.02 2.34,1.02 4.08001,2.82 1.79999,1.74 2.81999,4.08 1.08,2.34 1.08,5.04 0,3.96 -2.03999,7.14 -2.04001,3.12 -5.34001,4.62 z m -19.5,-24.3 q 3.18,0 4.68,-1.38 1.5,-1.44 1.5,-3.36 0,-1.92 -1.5,-3.24 -1.5,-1.38 -4.68,-1.38 h -7.14 v 9.36 z" />
      <path
         id="path38"
         style="font-family:Porter;letter-spacing:0.075em"
         d="m 517.38625,57.58 18.9,42.42 h -9.18 l -3.42,-7.68 h -16.02 q -0.78,1.8 -1.74,3.9 -0.9,2.04 -1.62,3.78 h -9.12 l 18.66,-42.42 z m 2.58,26.4 -4.32,-9.72 -4.32,9.72 z" />
      <path
         id="path40"
         style="font-family:Porter;letter-spacing:0.075em"
         d="m 548.44,57.58 h 3.66 l 22.68,25.2 V 58 h 8.28 v 42.42 h -3.72 L 556.72,75.28 V 100 h -8.28 z" />
      <path
         id="path42"
         style="font-family:Porter;letter-spacing:0.075em"
         d="m 608.73812,66.34 v 8.46 h 13.62 v 8.4 h -13.62 v 8.46 h 18.66001 V 100 h -27 V 58 h 27 v 8.34 z" />
      <path
         id="path44"
         style="font-family:Porter;letter-spacing:0.075em"
         d="M 659.08938,57.58 677.98937,100 h -9.17999 l -3.42001,-7.68 h -16.02 q -0.77999,1.8 -1.74,3.9 -0.9,2.04 -1.62,3.78 h -9.12 l 18.66001,-42.42 z m 2.57999,26.4 -4.32,-9.72 -4.32,9.72 z" />
    </g>
  </g>
</svg>
