<?xml version="1.0" encoding="UTF-8" standalone="no"?>
<svg
   xmlns:dc="http://purl.org/dc/elements/1.1/"
   xmlns:cc="http://creativecommons.org/ns#"
   xmlns:rdf="http://www.w3.org/1999/02/22-rdf-syntax-ns#"
   xmlns:svg="http://www.w3.org/2000/svg"
   xmlns="http://www.w3.org/2000/svg"
   id="svg16"
   width="800px"
   version="1.1"
   height="200px">
  <metadata
     id="metadata20">
    <rdf:RDF>
      <cc:Work
         rdf:about="">
        <dc:format>image/svg+xml</dc:format>
        <dc:type
           rdf:resource="http://purl.org/dc/dcmitype/StillImage" />
      </cc:Work>
    </rdf:RDF>
  </metadata>
  <defs
     id="defs4">
    <style
       id="style2"
       type="text/css"><![CDATA[    
     @font-face {font-family:Porter;
     src: url('/Users/francesco/Repos/write-logos/src/fonts/Fonts_E_TEMPORANEA/Porter_Bold.ttf');}
     @font-face {font-family:Emblema One;
     src: url('/Users/francesco/Repos/write-logos/src/fonts/Fonts_X/EmblemaOne-Regular.ttf');}
     ]]></style>
  </defs>
  <g
     id="g14"
     style="font-size:60px">
    <g
       style="text-anchor:middle"
       id="text12"
       aria-label="EXTEMPORANEA">
      <path
         id="path22"
         style="font-family:Porter;letter-spacing:0.075em"
         d="m 132.05453,66.34 v 8.46 h 13.62 v 8.4 h -13.62 v 8.46 h 18.66 V 100 h -27 V 58 h 27 v 8.34 z" />
      <path
         id="path24"
         style="font-family:'Emblema One';letter-spacing:0.05em"
         d="m 178.61523,100 q -5.88867,-20.214844 -14.17968,-37.96875 0,-0.380859 0.9375,-1.142578 0.96679,-0.761719 1.64062,-0.761719 h 15 q 3.33985,11.425781 6.41602,19.746094 3.07617,8.291015 7.73437,18.193359 0,0.38086 -0.9375,1.171875 Q 194.28906,100 193.61523,100 Z m 11.39649,-21.123047 q 1.66992,-5.537109 1.66992,-9.609375 0,-1.933594 -0.35156,-3.398437 -0.35156,-1.494141 -1.23047,-3.837891 0,-0.380859 0.9375,-1.142578 0.9668,-0.761719 1.64062,-0.761719 h 9.34571 q -3.48633,5.332031 -5.71289,9.140625 -2.22657,3.808594 -3.75,7.617188 -0.17578,0.46875 -1.02539,1.230468 -0.84961,0.761719 -1.52344,0.761719 z m -19.33594,2.255859 q -1.66992,5.361329 -1.66992,9.052735 0,3.691406 1.58203,7.880859 0,0.38086 -0.9668,1.171875 Q 168.68359,100 168.00977,100 h -9.375 q 6.88476,-10.576172 9.46289,-16.933594 0.17578,-0.46875 1.02539,-1.201172 0.8789,-0.732422 1.55273,-0.732422 z" />
      <path
         id="path26"
         style="font-family:Porter;letter-spacing:0.075em"
         d="m 236.64391,66.34 h -11.52 V 100 h -8.34 V 66.34 h -11.64 V 58 h 31.5 z" />
      <path
         id="path28"
         style="font-family:Porter;letter-spacing:0.075em"
         d="m 258.78109,66.34 v 8.46 h 13.62 v 8.4 h -13.62 v 8.46 h 18.66 V 100 h -27 V 58 h 27 v 8.34 z" />
      <path
         id="path30"
         style="font-family:Porter;letter-spacing:0.075em"
         d="M 339.01234,57.58 V 100 h -8.28 V 72.88 l -15.12,15 -15.06,-15 V 100 h -8.34 V 57.58 h 4.62 l 18.78,18.66 18.84,-18.66 z" />
      <path
         id="path32"
         style="font-family:Porter;letter-spacing:0.075em"
         d="m 365.10672,100 h -8.34 V 58 h 16.98 q 2.64,0 4.98,1.02 2.34,1.02 4.08,2.82 1.8,1.74 2.82,4.08 1.08,2.34 1.08,5.04 0,2.7 -1.02,5.1 -1.02,2.4 -2.82,4.14 -1.74,1.74 -4.14,2.76 -2.34,1.02 -4.98,1.02 h -8.64 z m 0,-24.3 h 7.08 q 3.18,0 4.68,-1.38 1.5,-1.44 1.5,-3.36 0,-1.92 -1.5,-3.24 -1.5,-1.38 -4.68,-1.38 h -7.08 z" />
      <path
         id="path34"
         style="font-family:Porter;letter-spacing:0.075em"
         d="m 418.89016,100.42 q -4.02,0 -7.86,-1.5 -3.84,-1.5 -6.9,-4.26 -3,-2.82 -4.86,-6.78 -1.8,-3.96 -1.8,-8.82 0,-4.2 1.62,-8.1 1.62,-3.9 4.44,-6.84 2.88,-3 6.78,-4.74 3.96,-1.8 8.58,-1.8 4.14,0 7.98,1.62 3.9,1.56 6.84,4.44 3,2.82 4.8,6.78 1.8,3.96 1.8,8.64 0,4.14 -1.62,8.04 -1.56,3.84 -4.44,6.84 -2.82,2.94 -6.78,4.74 -3.9,1.74 -8.58,1.74 z m 0,-34.5 q -2.7,0 -5.1,1.02 -2.34,1.02 -4.14,2.82 -1.8,1.8 -2.82,4.2 -1.02,2.4 -1.02,5.1 0,2.7 1.02,5.1 1.08,2.34 2.82,4.14 1.8,1.74 4.14,2.76 2.4,1.02 5.1,1.02 2.7,0 5.04,-1.02 2.4,-1.02 4.14,-2.76 1.8,-1.8 2.82,-4.14 1.02,-2.4 1.02,-5.1 0,-2.7 -1.08,-5.1 -1.02,-2.4 -2.82,-4.2 -1.74,-1.8 -4.14,-2.82 -2.34,-1.02 -4.98,-1.02 z" />
      <path
         id="path36"
         style="font-family:Porter;letter-spacing:0.075em"
         d="m 489.80922,100 h -10.2 l -11.4,-16.02 h -5.04 V 100 h -8.28 V 58 h 16.98 q 2.64,0 4.98,1.02 2.34,1.02 4.08,2.82 1.8,1.74 2.82,4.08 1.08,2.34 1.08,5.04 0,3.96 -2.04,7.14 -2.04,3.12 -5.34,4.62 z m -19.5,-24.3 q 3.18,0 4.68,-1.38 1.5,-1.44 1.5,-3.36 0,-1.92 -1.5,-3.24 -1.5,-1.38 -4.68,-1.38 h -7.14 v 9.36 z" />
      <path
         id="path38"
         style="font-family:Porter;letter-spacing:0.075em"
         d="m 519.78859,57.58 18.9,42.42 h -9.18 l -3.42,-7.68 h -16.02 q -0.78,1.8 -1.74,3.9 -0.9,2.04 -1.62,3.78 h -9.12 l 18.66,-42.42 z m 2.58,26.4 -4.32,-9.72 -4.32,9.72 z" />
      <path
         id="path40"
         style="font-family:Porter;letter-spacing:0.075em"
         d="m 550.84234,57.58 h 3.66 l 22.68,25.2 V 58 h 8.28 v 42.42 h -3.72 l -22.62,-25.14 V 100 h -8.28 z" />
      <path
         id="path42"
         style="font-family:Porter;letter-spacing:0.075em"
         d="m 611.14047,66.34 v 8.46 h 13.62 v 8.4 h -13.62 v 8.46 h 18.66 V 100 h -27 V 58 h 27 v 8.34 z" />
      <path
         id="path44"
         style="font-family:Porter;letter-spacing:0.075em"
         d="m 661.49172,57.58 18.9,42.42 h -9.18 l -3.42,-7.68 h -16.02 q -0.78,1.8 -1.74,3.9 -0.9,2.04 -1.62,3.78 h -9.12 l 18.66,-42.42 z m 2.58,26.4 -4.32,-9.72 -4.32,9.72 z" />
    </g>
  </g>
</svg>
