<?xml version="1.0" encoding="UTF-8" standalone="no"?>
<svg
   xmlns:dc="http://purl.org/dc/elements/1.1/"
   xmlns:cc="http://creativecommons.org/ns#"
   xmlns:rdf="http://www.w3.org/1999/02/22-rdf-syntax-ns#"
   xmlns:svg="http://www.w3.org/2000/svg"
   xmlns="http://www.w3.org/2000/svg"
   id="svg16"
   width="800px"
   version="1.1"
   height="200px">
  <metadata
     id="metadata20">
    <rdf:RDF>
      <cc:Work
         rdf:about="">
        <dc:format>image/svg+xml</dc:format>
        <dc:type
           rdf:resource="http://purl.org/dc/dcmitype/StillImage" />
      </cc:Work>
    </rdf:RDF>
  </metadata>
  <defs
     id="defs4">
    <style
       id="style2"
       type="text/css"><![CDATA[    
     @font-face {font-family:Porter;
     src: url('/Users/francesco/Repos/write-logos/src/fonts/Fonts_E_TEMPORANEA/Porter_Bold.ttf');}
     @font-face {font-family:SomewhereInSpace;
     src: url('/Users/francesco/Repos/write-logos/src/fonts/Fonts_X/SOMWHEREINSPACE.ttf');}
     ]]></style>
  </defs>
  <g
     id="g14"
     style="font-size:60px">
    <g
       style="text-anchor:middle"
       id="text12"
       aria-label="EXTEMPORANEA">
      <path
         id="path22"
         style="font-family:Porter;letter-spacing:0.075em"
         d="m 132.75766,66.34 v 8.46 h 13.62 v 8.4 h -13.62 v 8.46 h 18.66 V 100 h -27 V 58 h 27 v 8.34 z" />
      <path
         id="path24"
         style="font-family:SomewhereInSpace;letter-spacing:0.05em"
         d="m 197.92891,108.4 q -2.4,-3.84 -6.9,-3.72 -1.44,0 -2.64,0.6 -0.3,0.06 -0.78,0.24 -0.36,-2.16 -1.26,-6.18 l -0.72,-1.26 q -1.32,-4.38 -3.78,-9.18 l -0.3,-0.3 q -0.84,0.84 -1.26,2.1 0.48,2.7 0.42,5.46 -0.12,5.28 -2.22,10.98 -0.84,2.28 -2.28,5.22 -0.42,0.42 -1.2,1.02 -0.18,0.06 -0.78,0.24 -1.98,0.54 -2.88,0.54 -2.82,0 -4.32,-1.14 -0.24,-0.18 -0.78,-0.66 -0.48,-0.48 -1.2,-1.74 0.24,-0.66 0.6,-2.04 3.24,-7.98 3,-16.08 l -0.12,-4.68 q -0.06,-2.88 -0.42,-4.62 -0.24,-1.32 -0.36,-2.22 -0.54,-0.84 -1.92,-3.06 -2.64,-4.38 -3.18,-7.32 -1.92,-6.24 -1.8,-10.86 0.06,-1.8 0.18,-3.9 0.06,-0.3 0.3,-0.96 1.14,3.24 4.38,4.26 2.1,0.66 4.5,0 1.26,0.9 2.04,3.36 0.18,0.42 1.02,3.96 0.12,0.96 0.42,2.82 0.42,0.72 1.8,3 l 0.42,-0.48 0.3,-0.42 q 0.12,-0.42 0.42,-1.2 0.66,-5.88 5.58,-17.28 4.26,-2.4 6.66,-2.46 1.02,-0.06 2.28,0.42 0.96,0.48 1.62,1.14 -6.6,9.84 -7.56,21.24 l 4.68,7.32 q 2.88,4.56 4.38,7.38 3.9,7.38 4.08,16.38 0,1.44 -0.24,3.3 -0.18,0.54 -0.18,0.78 z" />
      <path
         id="path26"
         style="font-family:Porter;letter-spacing:0.075em"
         d="m 235.94078,66.34 h -11.52 V 100 h -8.34 V 66.34 h -11.64 V 58 h 31.5 z" />
      <path
         id="path28"
         style="font-family:Porter;letter-spacing:0.075em"
         d="m 258.07797,66.34 v 8.46 h 13.62 v 8.4 h -13.62 v 8.46 h 18.66 V 100 h -27 V 58 h 27 v 8.34 z" />
      <path
         id="path30"
         style="font-family:Porter;letter-spacing:0.075em"
         d="M 338.30922,57.58 V 100 h -8.28 V 72.88 l -15.12,15 -15.06,-15 V 100 h -8.34 V 57.58 h 4.62 l 18.78,18.66 18.84,-18.66 z" />
      <path
         id="path32"
         style="font-family:Porter;letter-spacing:0.075em"
         d="m 364.40359,100 h -8.34 V 58 h 16.98 q 2.64,0 4.98,1.02 2.34,1.02 4.08,2.82 1.8,1.74 2.82,4.08 1.08,2.34 1.08,5.04 0,2.7 -1.02,5.1 -1.02,2.4 -2.82,4.14 -1.74,1.74 -4.14,2.76 -2.34,1.02 -4.98,1.02 h -8.64 z m 0,-24.3 h 7.08 q 3.18,0 4.68,-1.38 1.5,-1.44 1.5,-3.36 0,-1.92 -1.5,-3.24 -1.5,-1.38 -4.68,-1.38 h -7.08 z" />
      <path
         id="path34"
         style="font-family:Porter;letter-spacing:0.075em"
         d="m 418.18703,100.42 q -4.02,0 -7.86,-1.5 -3.84,-1.5 -6.9,-4.26 -3,-2.82 -4.86,-6.78 -1.8,-3.96 -1.8,-8.82 0,-4.2 1.62,-8.1 1.62,-3.9 4.44,-6.84 2.88,-3 6.78,-4.74 3.96,-1.8 8.58,-1.8 4.14,0 7.98,1.62 3.9,1.56 6.84,4.44 3,2.82 4.8,6.78 1.8,3.96 1.8,8.64 0,4.14 -1.62,8.04 -1.56,3.84 -4.44,6.84 -2.82,2.94 -6.78,4.74 -3.9,1.74 -8.58,1.74 z m 0,-34.5 q -2.7,0 -5.1,1.02 -2.34,1.02 -4.14,2.82 -1.8,1.8 -2.82,4.2 -1.02,2.4 -1.02,5.1 0,2.7 1.02,5.1 1.08,2.34 2.82,4.14 1.8,1.74 4.14,2.76 2.4,1.02 5.1,1.02 2.7,0 5.04,-1.02 2.4,-1.02 4.14,-2.76 1.8,-1.8 2.82,-4.14 1.02,-2.4 1.02,-5.1 0,-2.7 -1.08,-5.1 -1.02,-2.4 -2.82,-4.2 -1.74,-1.8 -4.14,-2.82 -2.34,-1.02 -4.98,-1.02 z" />
      <path
         id="path36"
         style="font-family:Porter;letter-spacing:0.075em"
         d="m 489.10609,100 h -10.2 l -11.4,-16.02 h -5.04 V 100 h -8.28 V 58 h 16.98 q 2.64,0 4.98,1.02 2.34,1.02 4.08,2.82 1.8,1.74 2.82,4.08 1.08,2.34 1.08,5.04 0,3.96 -2.04,7.14 -2.04,3.12 -5.34,4.62 z m -19.5,-24.3 q 3.18,0 4.68,-1.38 1.5,-1.44 1.5,-3.36 0,-1.92 -1.5,-3.24 -1.5,-1.38 -4.68,-1.38 h -7.14 v 9.36 z" />
      <path
         id="path38"
         style="font-family:Porter;letter-spacing:0.075em"
         d="m 519.08547,57.58 18.9,42.42 h -9.18 l -3.42,-7.68 h -16.02 q -0.78,1.8 -1.74,3.9 -0.9,2.04 -1.62,3.78 h -9.12 l 18.66,-42.42 z m 2.58,26.4 -4.32,-9.72 -4.32,9.72 z" />
      <path
         id="path40"
         style="font-family:Porter;letter-spacing:0.075em"
         d="m 550.13922,57.58 h 3.66 l 22.68,25.2 V 58 h 8.28 v 42.42 h -3.72 l -22.62,-25.14 V 100 h -8.28 z" />
      <path
         id="path42"
         style="font-family:Porter;letter-spacing:0.075em"
         d="m 610.43734,66.34 v 8.46 h 13.62 v 8.4 h -13.62 v 8.46 h 18.66 V 100 h -27 V 58 h 27 v 8.34 z" />
      <path
         id="path44"
         style="font-family:Porter;letter-spacing:0.075em"
         d="m 660.78859,57.58 18.9,42.42 h -9.18 l -3.42,-7.68 h -16.02 q -0.78,1.8 -1.74,3.9 -0.9,2.04 -1.62,3.78 h -9.12 l 18.66,-42.42 z m 2.58,26.4 -4.32,-9.72 -4.32,9.72 z" />
    </g>
  </g>
</svg>
