<?xml version="1.0" encoding="UTF-8" standalone="no"?>
<svg
   xmlns:dc="http://purl.org/dc/elements/1.1/"
   xmlns:cc="http://creativecommons.org/ns#"
   xmlns:rdf="http://www.w3.org/1999/02/22-rdf-syntax-ns#"
   xmlns:svg="http://www.w3.org/2000/svg"
   xmlns="http://www.w3.org/2000/svg"
   id="svg16"
   width="800px"
   version="1.1"
   height="200px">
  <metadata
     id="metadata20">
    <rdf:RDF>
      <cc:Work
         rdf:about="">
        <dc:format>image/svg+xml</dc:format>
        <dc:type
           rdf:resource="http://purl.org/dc/dcmitype/StillImage" />
      </cc:Work>
    </rdf:RDF>
  </metadata>
  <defs
     id="defs4">
    <style
       id="style2"
       type="text/css"><![CDATA[    
     @font-face {font-family:Porter;
     src: url('/Users/francesco/Repos/write-logos/src/fonts/Fonts_E_TEMPORANEA/Porter_Bold.ttf');}
     @font-face {font-family:DK Plakkaat;
     src: url('/Users/francesco/Repos/write-logos/src/fonts/Fonts_X/Plakkaat.ttf');}
     ]]></style>
  </defs>
  <g
     id="g14"
     style="font-size:60px">
    <g
       style="text-anchor:middle"
       id="text12"
       aria-label="EXTEMPORANEA">
      <path
         id="path22"
         style="font-family:Porter;letter-spacing:0.075em"
         d="m 132.99203,66.34 v 8.46 h 13.62 v 8.4 h -13.62 v 8.46 h 18.66 V 100 h -27 V 58 h 27 v 8.34 z" />
      <path
         id="path24"
         style="font-family:'DK Plakkaat';letter-spacing:0.05em"
         d="m 180.76328,69.34 q 0.3,0 0.3,-0.24 l 0.06,-0.06 q 0,-0.12 0.06,-0.24 0.06,-0.12 0.12,-0.3 l 0.3,-0.06 0.24,-0.24 q 0.3,-0.12 0.42,-0.42 0.12,-0.3 0.12,-0.36 v -0.18 q 0.06,0 0.12,-0.06 l 0.18,-0.3 h 0.12 l 0.78,-0.78 q 0.12,-0.12 0.6,-0.72 0.54,-0.66 0.84,-0.96 l 0.18,-0.3 q 0.42,-0.42 0.66,-0.9 0.3,-0.48 0.84,-1.02 l 0.12,-0.18 q 0.06,-0.06 0.18,-0.3 0.18,-0.3 0.3,-0.36 l 0.18,-0.24 q 0.12,-0.12 0.12,-0.18 l 0.6,-0.36 q 0.66,-0.66 1.38,-1.26 0.72,-0.6 0.84,-0.72 l 0.66,-0.54 v 0.18 l 0.3,-0.24 v 0.06 q 0,0.06 -0.06,0.18 0,0.12 -0.12,0.18 l 0.18,0.06 0.24,-0.36 -0.06,0.3 q -0.06,0.06 -0.06,0.18 l -0.06,0.18 q -0.06,0.06 -0.06,0.12 l 0.12,0.12 0.12,-0.06 q 0.06,0 0.12,-0.06 h 0.12 l 0.06,0.42 q 0,-0.06 0.06,-0.12 l 0.18,-0.12 v 0.24 h 0.12 l 0.42,-0.42 q 0,0.06 -0.06,0.18 0,0.06 0,0.12 v 0.06 q -0.06,0 -0.12,0.18 0,0.12 -0.06,0.12 v 0.06 l 0.24,-0.24 q 0.18,-0.18 0.18,-0.3 l 0.18,-0.06 q 0,0.12 -0.18,0.36 -0.18,0.18 -0.18,0.42 v 0.12 l 0.18,-0.12 q -0.06,0.06 -0.06,0.12 0,0.12 0.06,0.12 l 0.18,0.06 0.18,-0.18 q 0.06,-0.06 0.24,-0.18 0.18,-0.12 0.24,-0.12 v 0.12 q 0,0.06 -0.06,0.18 0,0.06 0,0.12 l -0.18,0.12 v 0.12 h 0.18 q 0,-0.06 0.12,-0.18 0.18,-0.18 0.24,-0.18 l 0.06,-0.06 q 0.06,0 0.12,-0.06 0,0.06 -0.18,0.24 h 0.48 l -0.12,0.54 q 0,-0.06 0.12,-0.18 0.12,-0.18 0.18,-0.24 h 0.12 l -0.12,0.42 0.06,-0.06 q 0.06,-0.12 0.18,-0.3 0.12,-0.24 0.24,-0.3 h 0.06 l -0.3,0.78 h 0.36 l 0.18,-0.18 q 0.12,-0.12 0.18,-0.12 l 0.06,-0.12 v 0.3 q 0,0.06 -0.06,0.12 0,0.06 0,0.12 l 0.24,-0.18 q 0.06,-0.06 0.12,-0.06 l -0.06,0.06 q -0.06,0.06 -0.06,0.18 l 0.06,0.42 h 0.48 q 0.48,0 0.66,0.3 0.24,0.24 0.24,0.42 v 0.54 l -0.24,0.24 q 0,0.12 -0.12,0.3 -0.12,0.12 -0.12,0.42 l -0.12,0.12 q -0.06,0.06 -0.06,0.12 v 0.18 q 0,0.24 -0.24,0.48 -0.18,0.24 -0.18,0.36 l -0.06,0.18 q 0,0.06 -0.12,0.3 -0.06,0.18 -0.24,0.48 -0.12,0.24 -0.24,0.48 -0.06,0.24 -0.06,0.3 l -0.6,0.84 q -0.54,0.84 -0.54,1.32 -0.18,0.66 -0.54,1.02 -0.3,0.3 -0.42,0.78 l -0.12,0.18 q -0.06,0.06 -0.06,0.12 l -0.06,0.06 q 0,0.18 -0.12,0.18 l -0.18,0.18 v 0.18 q 0,0.12 -0.36,0.54 -0.36,0.42 -0.36,0.9 l -1.2,1.92 q -0.06,0.06 -0.18,0.3 -0.12,0.24 -0.24,0.3 l -0.06,0.06 q 0,0.06 -0.24,0.42 -0.18,0.36 -0.48,0.84 -0.3,0.42 -0.6,0.84 -0.24,0.36 -0.42,0.54 l -0.06,0.12 q -0.18,0.18 -0.36,0.66 -0.12,0.48 -0.6,0.96 l -0.12,0.12 q 0,0.06 -0.18,0.3 -0.12,0.24 -0.12,0.3 v 0.12 q 0,0.06 0.06,0.18 0.12,0.12 0.18,0.18 l 0.66,0.84 q 0,0.06 0.18,0.3 0.18,0.18 0.36,0.36 l 0.12,0.18 q 0.48,0.48 0.84,1.08 0.36,0.54 0.6,0.78 l 0.42,0.48 q 0,0.06 0.12,0.24 0.18,0.18 0.24,0.24 l 0.12,0.12 q 0,0.06 0.06,0.12 l 0.24,0.42 q 0.06,0 0.12,0.12 0.12,0.12 0.24,0.18 l 0.36,0.54 q 0.18,0.36 0.48,0.54 l 0.06,0.12 q 0,0.06 0.06,0.24 0.12,0.12 0.24,0.18 v 0.24 q 0.24,0 0.24,0.24 l 1.14,1.68 q 0.12,0.18 0.3,0.42 0.24,0.24 0.78,0.78 v 0.06 q 0,0.18 0.12,0.3 l 0.06,0.06 q 0,0.18 0.18,0.36 l 0.12,0.3 q 0,0.06 0.06,0.12 l 0.06,0.24 q -0.24,0 -0.24,0.06 l 0.06,0.36 q 0.06,0.06 0.06,0.12 h -0.36 l -0.24,-0.12 q 0,0.36 -0.42,0.36 l -0.12,0.3 q -0.06,0.06 -0.06,0.12 l -0.06,0.06 q -0.06,0.06 -0.06,0.12 l -0.12,0.42 q 0,0.12 0.12,0.24 l 0.06,0.6 -0.18,0.12 -0.24,-0.06 q -0.06,0 -0.12,-0.06 l -0.18,0.06 0.06,0.3 h -0.24 l 0.18,0.18 h -0.36 v 0.42 l -0.18,0.12 q -0.06,0.06 -0.18,0.06 h -0.24 v 0.3 l -0.18,0.06 q 0.06,0.12 0.18,0.36 0.18,0.24 0.18,0.36 -0.06,0.06 -0.06,0.12 v 0.18 q 0,0.3 -0.18,0.42 -0.12,0.06 -0.12,0.18 l -0.18,0.24 q -0.12,0.48 -0.54,0.66 -0.42,0.18 -0.6,0.18 -0.3,0 -0.36,-0.06 0,0.24 -0.42,0.24 l -0.06,0.18 q 0,0.12 0.12,0.24 l -0.54,-0.24 h -1.02 q -0.06,0 -0.12,-0.06 h -0.42 l -0.18,-0.18 q 0,0.18 -0.18,0.18 -0.12,0 -0.24,-0.12 l -0.12,0.12 h -0.3 l -0.66,-0.24 q -0.06,-0.06 -0.18,-0.06 -0.12,-0.06 -0.24,-0.18 l -0.9,-0.66 -1.38,-1.5 q 0,-0.06 -0.12,-0.18 -0.12,-0.18 -0.18,-0.18 l -0.06,-0.06 q -0.06,0 -0.42,-0.48 l -0.9,-1.08 q -0.3,-0.3 -0.84,-0.84 -0.54,-0.6 -0.66,-0.9 l -0.24,-0.24 q -0.12,-0.06 -0.36,-0.36 -0.18,-0.3 -0.24,-0.36 l -0.54,-0.48 -0.06,0.12 q -0.12,0 -0.48,0.54 -0.3,0.48 -0.42,0.9 l -0.06,0.12 q -0.12,0.06 -0.36,0.42 -0.18,0.3 -0.3,0.48 l -0.12,0.12 h 0.06 q 0,0.12 -0.36,0.78 -0.3,0.6 -1.02,1.32 l -0.54,0.96 q -0.18,0.18 -0.54,0.6 -0.3,0.42 -0.96,1.08 l -0.18,0.18 q -0.06,0.06 -0.24,0.18 -0.12,0.12 -0.12,0.18 l -0.3,0.06 V 100 l 0.24,-0.3 q 0,-0.06 -0.06,-0.12 l -0.24,-0.12 q -0.12,-0.12 -0.3,-0.12 l -0.6,-0.06 -0.06,-0.24 h -0.24 q 0,0.06 -0.18,0.18 -0.18,0.12 -0.24,0.12 l -0.24,0.12 v -0.12 q 0.06,0 0.18,-0.12 l 0.24,-0.24 q 0.12,0 0.12,-0.06 -0.06,0 -0.18,-0.06 -0.12,-0.06 -0.18,-0.06 -0.06,0.06 -0.12,0.06 h -0.06 q -0.06,0 -0.12,0.06 l -0.42,0.06 v -0.06 q -0.06,0.06 -0.12,0.06 h -0.3 l 0.24,-0.24 -0.06,-0.06 q 0,-0.12 -0.18,-0.12 -0.12,0 -0.24,0.06 -0.12,0 -0.24,0 l -0.24,0.12 q -0.06,0.06 -0.18,0.06 l -0.24,0.06 q -0.06,0 -0.12,-0.06 l -1.02,0.12 0.42,-0.6 q -0.12,0.12 -0.18,0.12 l -0.18,-0.12 -0.24,0.18 q -0.12,0.12 -0.24,0.12 l -0.12,-0.06 q 0,-0.12 0.12,-0.12 0.12,-0.06 0.12,-0.12 h -0.48 q 0.06,0 0.18,-0.12 l 0.3,-0.06 q -0.12,-0.06 -0.3,-0.06 -0.12,-0.06 -0.18,-0.12 h -0.12 l -0.12,-0.18 q -0.06,-0.06 -0.06,-0.12 l -0.72,0.06 0.06,-0.12 q 0,-0.06 0.12,-0.18 0.12,-0.12 0.12,-0.42 h -0.06 q -0.3,0.12 -0.48,0.3 V 97 l -0.36,0.3 0.3,-0.54 q 0,-0.12 -0.12,-0.12 0,0.12 -0.24,0.12 h -0.42 q -0.06,0 -0.18,0.12 -0.06,0.06 -0.12,0.06 v -0.18 q 0,-0.06 -0.06,-0.12 v -0.12 q 0,-0.06 0,-0.18 0.06,-0.12 0.06,-0.24 v -0.12 q -0.06,-0.06 -0.06,-0.24 v -0.3 q -0.06,0 -0.18,0 -0.06,-0.06 -0.12,-0.06 l -0.24,-0.42 v -0.24 q -0.06,0 -0.18,-0.12 -0.12,-0.18 -0.18,-0.24 l -0.12,-0.3 -0.18,-0.12 v -0.36 l 0.18,-0.54 q 0.12,-0.24 0.12,-0.42 0.06,-0.18 0.18,-0.3 l 0.06,-0.24 q 0.12,-0.12 0.24,-0.48 0.18,-0.42 0.24,-0.48 0.66,-0.66 0.96,-1.5 l 0.06,-0.18 q 0,-0.06 0.06,-0.12 0.06,-0.12 0.12,-0.24 l 0.42,-0.6 q 0.18,-0.18 0.3,-0.54 0.12,-0.42 0.78,-1.08 h 0.12 l 0.6,-0.72 q 0.18,-0.18 0.54,-0.42 0.36,-0.3 0.48,-0.72 l 0.54,-0.6 q 0.06,-0.06 0.24,-0.3 0.18,-0.24 0.24,-0.24 l 0.24,-0.36 q 0.06,-0.12 0.42,-0.48 0.36,-0.42 0.42,-0.54 l 0.12,-0.12 v 0.12 l 0.36,-0.06 V 82 l -0.36,-0.36 v -0.18 q -0.06,-0.06 -0.24,-0.18 -0.12,-0.12 -0.12,-0.24 l -0.42,-0.42 q -0.18,-0.12 -0.48,-0.42 -0.24,-0.36 -0.3,-0.42 l -0.42,-0.54 q -0.42,-0.42 -0.66,-0.72 -0.18,-0.36 -0.42,-0.72 -0.18,-0.42 -0.48,-0.9 -0.3,-0.54 -0.9,-1.32 l -0.18,-0.36 q -0.12,-0.3 -0.3,-0.36 l -0.24,-0.3 q -0.12,-0.12 -0.3,-0.3 -0.12,-0.24 -0.24,-0.66 -0.12,-0.18 -0.36,-0.6 -0.18,-0.42 -0.42,-0.78 -0.18,-0.42 -0.42,-0.72 -0.18,-0.36 -0.24,-0.36 l -0.24,-0.24 -0.24,-0.6 -0.6,-0.66 q -0.06,-0.12 -0.24,-0.36 -0.18,-0.24 -0.24,-0.36 v -0.06 q 0,-0.06 -0.06,-0.18 -0.06,-0.18 -0.06,-0.24 v -0.12 q -0.24,0 -0.3,-0.3 0,-0.36 -0.18,-0.36 l -0.24,-0.42 q -0.12,-0.12 -0.3,-0.48 -0.12,-0.36 -0.18,-0.48 l -0.12,-0.18 q -0.12,-0.12 -0.12,-0.3 l -0.06,-0.12 0.18,-0.12 q 0,-0.12 0.24,-0.12 l 0.12,-0.06 v -0.3 h 0.42 l 0.06,-0.42 h 0.18 l 0.06,-0.42 0.12,-0.06 q 0.24,0 0.24,-0.6 l 0.12,-0.24 q 0,-0.06 -0.06,-0.12 0,-0.12 0,-0.24 0,-0.06 0.06,-0.12 l 0.12,-0.12 q 0,-0.12 0.06,-0.12 l 0.48,-0.06 q 0.06,0 0.12,-0.06 l 0.3,-0.3 0.3,-0.6 0.18,-0.12 q 0.06,0 0.12,-0.06 l -0.06,-0.18 0.18,-0.18 q 0.12,0 0.18,-0.06 0.06,-0.12 0.18,-0.12 h 0.06 q 0.12,0 0.24,0 0.18,-0.06 0.42,-0.18 l 0.06,-0.18 q 0,-0.06 0.18,-0.24 l 0.18,-0.18 -0.06,-0.18 q 0,-0.06 0.06,-0.12 0.06,0 0.24,0.06 0.24,0 0.36,0 v -0.48 h 0.12 l 0.12,0.18 h 0.36 l -0.06,-0.18 h 0.12 q 0.12,0 0.18,-0.06 l 0.06,-0.06 q 0,-0.06 0.06,-0.18 0.06,-0.18 0.06,-0.3 l 0.3,0.06 q 0.06,0.06 0.12,0.06 l 0.06,0.12 0.12,-0.12 v -0.36 l 0.84,-0.06 0.72,0.3 q 0.06,0.06 0.18,0.06 l 0.12,0.06 q 0.06,0.06 0.06,0.12 l 0.06,0.06 q 0.06,0.06 0.18,0.24 0.18,0.18 0.3,0.24 l 0.06,0.06 q 0,0.12 0.18,0.3 l 0.24,0.24 q 0,0.3 0.3,0.72 0.36,0.36 0.72,1.2 l 0.36,0.54 q 0,0.12 0.06,0.12 l 0.12,0.18 q 0.12,0.12 0.24,0.42 0.18,0.24 0.24,0.3 l 0.24,0.36 q 0.48,0.48 1.08,1.2 0.6,0.72 0.78,1.08 h 0.06 q 0.06,0.06 0.12,0.24 0.12,0.12 0.24,0.24 l 0.84,1.02 q 0,0.18 0.18,0.18 v 0.18 l -0.24,-0.06 q -0.12,-0.12 -0.36,-0.36 -0.18,-0.3 -0.3,-0.36 l -0.12,0.06 q 0.3,0.36 0.42,0.6 0.12,0.18 0.24,0.3 l 0.18,0.3 q 0,0.12 0.24,0.36 0.3,0.18 0.3,0.3 l 0.12,0.06 q 0.18,0.48 0.66,0.72 0.54,0.18 0.54,0.66 l 0.36,-0.12 v 0.36 l 0.18,-0.18 h 0.24 q 0.06,-0.06 0.06,-0.12 l 0.06,-0.36 q 0.12,-0.06 0.36,-0.36 0.3,-0.3 0.42,-0.3 v -0.18 l -0.12,-0.06 q 0,-0.12 0.12,-0.12 z m 6.06,-7.74 q -0.12,0.3 -0.24,0.42 l -0.18,0.12 q 0,-0.12 0.06,-0.18 0.06,-0.06 0.06,-0.12 l 0.12,-0.12 q 0.12,-0.12 0.18,-0.12 z m 6.42,34.8 q 0,0.12 0.06,0.12 0.12,0 0.12,-0.12 0,-0.12 -0.12,-0.12 z m -9.12,-31.32 0.06,0.12 q 0,0.06 -0.12,0.06 v -0.24 q 0,-0.12 0.12,-0.12 z m -1.98,2.76 -0.24,0.06 v -0.06 q 0,-0.12 0.12,-0.12 z m 4.2,-5.4 -0.24,0.06 v -0.06 q 0,-0.12 0.12,-0.12 z m -5.4,6.72 q 0,0.06 -0.12,0.06 -0.12,0 -0.12,-0.06 l 0.12,-0.06 z m 3.66,-4.56 v -0.12 q 0,-0.06 0.18,-0.24 z m -6.12,7.08 q 0.06,0 0.12,-0.06 0,-0.12 -0.12,-0.12 z m 7.08,-8.34 h -0.12 l 0.18,-0.24 z m -3.36,4.2 -0.06,0.12 -0.06,-0.06 q 0,-0.12 0.18,-0.12 z m 1.86,-2.16 -0.12,0.06 v -0.18 z m 1.08,-1.38 -0.12,0.06 v -0.18 z m -23.16,1.62 q 0.06,0 0.06,-0.18 l -0.06,0.06 z m 25.2,-4.5 v -0.06 q 0,-0.12 0.12,-0.12 z m -16.32,38.46 q -0.18,0.18 -0.3,0.18 z m 16.68,-38.82 -0.18,0.12 0.12,-0.12 z" />
      <path
         id="path26"
         style="font-family:Porter;letter-spacing:0.075em"
         d="m 235.70641,66.34 h -11.52 V 100 h -8.34 V 66.34 h -11.64 V 58 h 31.5 z" />
      <path
         id="path28"
         style="font-family:Porter;letter-spacing:0.075em"
         d="m 257.84359,66.34 v 8.46 h 13.62 v 8.4 h -13.62 v 8.46 h 18.66 V 100 h -27 V 58 h 27 v 8.34 z" />
      <path
         id="path30"
         style="font-family:Porter;letter-spacing:0.075em"
         d="M 338.07484,57.58 V 100 h -8.28 V 72.88 l -15.12,15 -15.06,-15 V 100 h -8.34 V 57.58 h 4.62 l 18.78,18.66 18.84,-18.66 z" />
      <path
         id="path32"
         style="font-family:Porter;letter-spacing:0.075em"
         d="m 364.16922,100 h -8.34 V 58 h 16.98 q 2.64,0 4.98,1.02 2.34,1.02 4.08,2.82 1.8,1.74 2.82,4.08 1.08,2.34 1.08,5.04 0,2.7 -1.02,5.1 -1.02,2.4 -2.82,4.14 -1.74,1.74 -4.14,2.76 -2.34,1.02 -4.98,1.02 h -8.64 z m 0,-24.3 h 7.08 q 3.18,0 4.68,-1.38 1.5,-1.44 1.5,-3.36 0,-1.92 -1.5,-3.24 -1.5,-1.38 -4.68,-1.38 h -7.08 z" />
      <path
         id="path34"
         style="font-family:Porter;letter-spacing:0.075em"
         d="m 417.95266,100.42 q -4.02,0 -7.86,-1.5 -3.84,-1.5 -6.9,-4.26 -3,-2.82 -4.86,-6.78 -1.8,-3.96 -1.8,-8.82 0,-4.2 1.62,-8.1 1.62,-3.9 4.44,-6.84 2.88,-3 6.78,-4.74 3.96,-1.8 8.58,-1.8 4.14,0 7.98,1.62 3.9,1.56 6.84,4.44 3,2.82 4.8,6.78 1.8,3.96 1.8,8.64 0,4.14 -1.62,8.04 -1.56,3.84 -4.44,6.84 -2.82,2.94 -6.78,4.74 -3.9,1.74 -8.58,1.74 z m 0,-34.5 q -2.7,0 -5.1,1.02 -2.34,1.02 -4.14,2.82 -1.8,1.8 -2.82,4.2 -1.02,2.4 -1.02,5.1 0,2.7 1.02,5.1 1.08,2.34 2.82,4.14 1.8,1.74 4.14,2.76 2.4,1.02 5.1,1.02 2.7,0 5.04,-1.02 2.4,-1.02 4.14,-2.76 1.8,-1.8 2.82,-4.14 1.02,-2.4 1.02,-5.1 0,-2.7 -1.08,-5.1 -1.02,-2.4 -2.82,-4.2 -1.74,-1.8 -4.14,-2.82 -2.34,-1.02 -4.98,-1.02 z" />
      <path
         id="path36"
         style="font-family:Porter;letter-spacing:0.075em"
         d="m 488.87172,100 h -10.2 l -11.4,-16.02 h -5.04 V 100 h -8.28 V 58 h 16.98 q 2.64,0 4.98,1.02 2.34,1.02 4.08,2.82 1.8,1.74 2.82,4.08 1.08,2.34 1.08,5.04 0,3.96 -2.04,7.14 -2.04,3.12 -5.34,4.62 z m -19.5,-24.3 q 3.18,0 4.68,-1.38 1.5,-1.44 1.5,-3.36 0,-1.92 -1.5,-3.24 -1.5,-1.38 -4.68,-1.38 h -7.14 v 9.36 z" />
      <path
         id="path38"
         style="font-family:Porter;letter-spacing:0.075em"
         d="m 518.85109,57.58 18.9,42.42 h -9.18 l -3.42,-7.68 h -16.02 q -0.78,1.8 -1.74,3.9 -0.9,2.04 -1.62,3.78 h -9.12 l 18.66,-42.42 z m 2.58,26.4 -4.32,-9.72 -4.32,9.72 z" />
      <path
         id="path40"
         style="font-family:Porter;letter-spacing:0.075em"
         d="m 549.90484,57.58 h 3.66 l 22.68,25.2 V 58 h 8.28 v 42.42 h -3.72 l -22.62,-25.14 V 100 h -8.28 z" />
      <path
         id="path42"
         style="font-family:Porter;letter-spacing:0.075em"
         d="m 610.20297,66.34 v 8.46 h 13.62 v 8.4 h -13.62 v 8.46 h 18.66 V 100 h -27 V 58 h 27 v 8.34 z" />
      <path
         id="path44"
         style="font-family:Porter;letter-spacing:0.075em"
         d="m 660.55422,57.58 18.9,42.42 h -9.18 l -3.42,-7.68 h -16.02 q -0.78,1.8 -1.74,3.9 -0.9,2.04 -1.62,3.78 h -9.12 l 18.66,-42.42 z m 2.58,26.4 -4.32,-9.72 -4.32,9.72 z" />
    </g>
  </g>
</svg>
