<?xml version="1.0" encoding="UTF-8" standalone="no"?>
<svg
   xmlns:dc="http://purl.org/dc/elements/1.1/"
   xmlns:cc="http://creativecommons.org/ns#"
   xmlns:rdf="http://www.w3.org/1999/02/22-rdf-syntax-ns#"
   xmlns:svg="http://www.w3.org/2000/svg"
   xmlns="http://www.w3.org/2000/svg"
   id="svg16"
   width="800px"
   version="1.1"
   height="200px">
  <metadata
     id="metadata20">
    <rdf:RDF>
      <cc:Work
         rdf:about="">
        <dc:format>image/svg+xml</dc:format>
        <dc:type
           rdf:resource="http://purl.org/dc/dcmitype/StillImage" />
      </cc:Work>
    </rdf:RDF>
  </metadata>
  <defs
     id="defs4">
    <style
       id="style2"
       type="text/css"><![CDATA[    
     @font-face {font-family:Porter;
     src: url('/Users/francesco/Repos/write-logos/src/fonts/Fonts_E_TEMPORANEA/Porter_Bold.ttf');}
     @font-face {font-family:Arsenale Blue;
     src: url('/Users/francesco/Repos/write-logos/src/fonts/Fonts_X/arsenaleblue.ttf');}
     ]]></style>
  </defs>
  <g
     id="g14"
     style="font-size:60px">
    <g
       style="text-anchor:middle"
       id="text12"
       aria-label="EXTEMPORANEA">
      <path
         id="path22"
         style="font-family:Porter;letter-spacing:0.075em"
         d="m 130.53109,66.34 v 8.46 h 13.62 v 8.4 h -13.62 v 8.46 h 18.66 V 100 h -27 V 58 h 27 v 8.34 z" />
      <path
         id="path24"
         style="font-family:'Arsenale Blue';letter-spacing:0.05em"
         d="m 199.06234,91 q 0.18,1.38 0.18,2.88 0,3.24 -1.2,5.22 -1.14,1.92 -3.78,2.64 -1.8,0 -6.06,-3.6 -4.26,-3.66 -11.22,-10.8 -7.5,-7.62 -11.04,-11.4 -3.48,-3.84 -3.48,-3.72 -0.72,-2.76 -0.72,-4.74 0,-2.82 1.2,-4.44 1.26,-1.68 4.14,-1.68 3,0 6.3,1.32 3.36,1.26 6.66,3.48 3.3,2.22 6.36,5.16 3.06,2.94 5.58,6.24 2.58,3.24 4.38,6.66 1.86,3.36 2.64,6.54 z m -21.12,-0.06 q 0,1.98 -1.14,3.9 -1.08,1.86 -2.76,3.36 -1.62,1.5 -3.48,2.4 -1.8,0.96 -3.24,0.96 -0.84,0 -1.68,-0.24 -0.84,-0.24 -1.68,-0.9 -0.12,0 -0.9,-0.48 -0.72,-0.54 -1.56,-1.32 -0.84,-0.84 -1.56,-1.86 -0.66,-1.02 -0.66,-2.16 0,-2.04 1.62,-4.92 0.72,-1.02 1.62,-2.16 0.9,-1.14 1.92,-2.1 1.08,-1.02 2.28,-1.62 1.2,-0.66 2.58,-0.66 1.38,0 2.82,0.78 1.44,0.72 3,2.58 0.42,0.48 0.9,0.96 0.54,0.48 0.96,0.96 0.42,0.48 0.66,1.02 0.3,0.48 0.3,1.08 z m 7.32,-22.74 q 0,-1.38 0.78,-2.76 0.84,-1.38 1.98,-2.46 1.2,-1.08 2.52,-1.74 1.38,-0.72 2.4,-0.72 1.32,0 2.4,0.84 0.12,0 0.66,0.36 0.54,0.36 1.14,0.96 0.66,0.6 1.14,1.38 0.48,0.72 0.48,1.5 0,0.6 -0.54,1.98 -0.54,1.38 -1.5,2.76 -0.9,1.38 -2.28,2.46 -1.32,1.08 -2.94,1.08 -1.02,0 -2.1,-0.54 -1.02,-0.54 -2.1,-1.86 -0.66,-0.78 -1.38,-1.44 -0.66,-0.66 -0.66,-1.5 z" />
      <path
         id="path26"
         style="font-family:Porter;letter-spacing:0.075em"
         d="m 238.16734,66.34 h -11.52 V 100 h -8.34 V 66.34 h -11.64 V 58 h 31.5 z" />
      <path
         id="path28"
         style="font-family:Porter;letter-spacing:0.075em"
         d="m 260.30453,66.34 v 8.46 h 13.62 v 8.4 h -13.62 v 8.46 h 18.66 V 100 h -27 V 58 h 27 v 8.34 z" />
      <path
         id="path30"
         style="font-family:Porter;letter-spacing:0.075em"
         d="M 340.53578,57.58 V 100 h -8.28 V 72.88 l -15.12,15 -15.06,-15 V 100 h -8.34 V 57.58 h 4.62 l 18.78,18.66 18.84,-18.66 z" />
      <path
         id="path32"
         style="font-family:Porter;letter-spacing:0.075em"
         d="m 366.63016,100 h -8.34 V 58 h 16.98 q 2.64,0 4.98,1.02 2.34,1.02 4.08,2.82 1.8,1.74 2.82,4.08 1.08,2.34 1.08,5.04 0,2.7 -1.02,5.1 -1.02,2.4 -2.82,4.14 -1.74,1.74 -4.14,2.76 -2.34,1.02 -4.98,1.02 h -8.64 z m 0,-24.3 h 7.08 q 3.18,0 4.68,-1.38 1.5,-1.44 1.5,-3.36 0,-1.92 -1.5,-3.24 -1.5,-1.38 -4.68,-1.38 h -7.08 z" />
      <path
         id="path34"
         style="font-family:Porter;letter-spacing:0.075em"
         d="m 420.41359,100.42 q -4.02,0 -7.86,-1.5 -3.84,-1.5 -6.9,-4.26 -3,-2.82 -4.86,-6.78 -1.8,-3.96 -1.8,-8.82 0,-4.2 1.62,-8.1 1.62,-3.9 4.44,-6.84 2.88,-3 6.78,-4.74 3.96,-1.8 8.58,-1.8 4.14,0 7.98,1.62 3.9,1.56 6.84,4.44 3,2.82 4.8,6.78 1.8,3.96 1.8,8.64 0,4.14 -1.62,8.04 -1.56,3.84 -4.44,6.84 -2.82,2.94 -6.78,4.74 -3.9,1.74 -8.58,1.74 z m 0,-34.5 q -2.7,0 -5.1,1.02 -2.34,1.02 -4.14,2.82 -1.8,1.8 -2.82,4.2 -1.02,2.4 -1.02,5.1 0,2.7 1.02,5.1 1.08,2.34 2.82,4.14 1.8,1.74 4.14,2.76 2.4,1.02 5.1,1.02 2.7,0 5.04,-1.02 2.4,-1.02 4.14,-2.76 1.8,-1.8 2.82,-4.14 1.02,-2.4 1.02,-5.1 0,-2.7 -1.08,-5.1 -1.02,-2.4 -2.82,-4.2 -1.74,-1.8 -4.14,-2.82 -2.34,-1.02 -4.98,-1.02 z" />
      <path
         id="path36"
         style="font-family:Porter;letter-spacing:0.075em"
         d="m 491.33266,100 h -10.2 l -11.4,-16.02 h -5.04 V 100 h -8.28 V 58 h 16.98 q 2.64,0 4.98,1.02 2.34,1.02 4.08,2.82 1.8,1.74 2.82,4.08 1.08,2.34 1.08,5.04 0,3.96 -2.04,7.14 -2.04,3.12 -5.34,4.62 z m -19.5,-24.3 q 3.18,0 4.68,-1.38 1.5,-1.44 1.5,-3.36 0,-1.92 -1.5,-3.24 -1.5,-1.38 -4.68,-1.38 h -7.14 v 9.36 z" />
      <path
         id="path38"
         style="font-family:Porter;letter-spacing:0.075em"
         d="m 521.31203,57.58 18.9,42.42 h -9.18 l -3.42,-7.68 h -16.02 q -0.78,1.8 -1.74,3.9 -0.9,2.04 -1.62,3.78 h -9.12 l 18.66,-42.42 z m 2.58,26.4 -4.32,-9.72 -4.32,9.72 z" />
      <path
         id="path40"
         style="font-family:Porter;letter-spacing:0.075em"
         d="m 552.36578,57.58 h 3.66 l 22.68,25.2 V 58 h 8.28 v 42.42 h -3.72 l -22.62,-25.14 V 100 h -8.28 z" />
      <path
         id="path42"
         style="font-family:Porter;letter-spacing:0.075em"
         d="m 612.66391,66.34 v 8.46 h 13.62 v 8.4 h -13.62 v 8.46 h 18.66 V 100 h -27 V 58 h 27 v 8.34 z" />
      <path
         id="path44"
         style="font-family:Porter;letter-spacing:0.075em"
         d="m 663.01516,57.58 18.9,42.42 h -9.18 l -3.42,-7.68 h -16.02 q -0.78,1.8 -1.74,3.9 -0.9,2.04 -1.62,3.78 h -9.12 l 18.66,-42.42 z m 2.58,26.4 -4.32,-9.72 -4.32,9.72 z" />
    </g>
  </g>
</svg>
