<?xml version="1.0" encoding="UTF-8" standalone="no"?>
<svg
   xmlns:dc="http://purl.org/dc/elements/1.1/"
   xmlns:cc="http://creativecommons.org/ns#"
   xmlns:rdf="http://www.w3.org/1999/02/22-rdf-syntax-ns#"
   xmlns:svg="http://www.w3.org/2000/svg"
   xmlns="http://www.w3.org/2000/svg"
   id="svg16"
   width="800px"
   version="1.1"
   height="200px">
  <metadata
     id="metadata20">
    <rdf:RDF>
      <cc:Work
         rdf:about="">
        <dc:format>image/svg+xml</dc:format>
        <dc:type
           rdf:resource="http://purl.org/dc/dcmitype/StillImage" />
      </cc:Work>
    </rdf:RDF>
  </metadata>
  <defs
     id="defs4">
    <style
       id="style2"
       type="text/css"><![CDATA[    
     @font-face {font-family:Porter;
     src: url('/Users/francesco/Repos/write-logos/src/fonts/Fonts_E_TEMPORANEA/Porter_Bold.ttf');}
     @font-face {font-family:Brandon;
     src: url('/Users/francesco/Repos/write-logos/src/fonts/Fonts_X/BrandonFree.ttf');}
     ]]></style>
  </defs>
  <g
     id="g14"
     style="font-size:60px">
    <g
       style="text-anchor:middle"
       id="text12"
       aria-label="EXTEMPORANEA">
      <path
         id="path22"
         style="font-family:Porter;letter-spacing:0.075em"
         d="m 135.39437,66.34 v 8.46 h 13.62 v 8.4 h -13.62 v 8.46 h 18.66 V 100 h -27 V 58 h 27 v 8.34 z" />
      <path
         id="path24"
         style="font-family:Brandon;letter-spacing:0.05em"
         d="m 163.08789,70.615234 v 0 0 q -0.32227,-0.55664 0.32227,-1.611328 0.67382,-1.054687 1.75781,-2.138672 1.08398,-1.113281 1.99219,-1.816406 0.9082,-0.703125 1.08398,-0.556641 3.22266,4.482422 6.91406,8.613282 0.64453,0.703125 1.28907,1.464843 2.49023,3.046875 5.41992,5.595704 0.9082,0.732421 1.90429,1.40625 1.08399,0.732421 2.10938,1.582031 0.9375,0.820312 1.78711,1.757812 0.79101,0.84961 1.66992,1.611328 1.20117,0.996094 2.60742,1.757813 2.49024,1.201172 3.95508,3.457031 0.20508,0.439453 -0.0879,1.054688 -0.29297,0.615234 -0.76172,1.230468 -0.46875,0.615235 -0.84961,1.025391 -0.14648,0.175781 -0.26367,0.263672 -0.0879,0.117187 -0.52734,0.615234 -0.43946,0.46875 -1.02539,0.996094 -0.55665,0.527344 -1.0254,0.849609 -0.46875,0.322266 -0.61523,0.117188 -1.46484,-2.285156 -3.98437,-3.457031 -1.37696,-0.791016 -2.57813,-1.757813 -0.87891,-0.791015 -1.69922,-1.640625 -0.84961,-0.908203 -1.75781,-1.757812 -1.02539,-0.820313 -2.10938,-1.582032 -0.96679,-0.644531 -1.90429,-1.376953 -2.92969,-2.578125 -5.41992,-5.595703 -0.64454,-0.761719 -1.28907,-1.49414 -3.6914,-4.101563 -6.91406,-8.613282 z m 27.53906,-3.574218 v 0 0 q 0.0586,-0.05859 0.11719,-0.175782 0.32227,-0.439453 0.9668,-1.230468 0.67383,-0.820313 1.37695,-1.464844 0.70313,-0.644531 1.14258,-0.556641 0.43945,0.146485 0.26367,0.703125 -0.17578,0.527344 -0.58594,1.113281 -0.38086,0.556641 -0.64453,0.878907 -0.0293,0.05859 -0.0586,0.08789 -11.95313,15.585938 -24.72656,30.527344 0,0 -0.0293,0.05859 -0.23438,0.292969 -0.87891,0.996094 -0.61523,0.673828 -1.28906,1.201171 -0.64453,0.498047 -0.99609,0.292969 -0.26368,-0.292969 0.11718,-1.02539 0.41016,-0.761719 0.9961,-1.494141 0.58593,-0.732422 0.82031,-1.025391 0.0293,-0.0293 0.0293,-0.0293 12.07031,-14.121093 23.3789,-28.857421 z" />
      <path
         id="path26"
         style="font-family:Porter;letter-spacing:0.075em"
         d="m 233.30406,66.34 h -11.52 V 100 h -8.34 V 66.34 h -11.64 V 58 h 31.5 z" />
      <path
         id="path28"
         style="font-family:Porter;letter-spacing:0.075em"
         d="m 255.44125,66.34 v 8.46 h 13.62 v 8.4 h -13.62 v 8.46 h 18.66 V 100 h -27 V 58 h 27 v 8.34 z" />
      <path
         id="path30"
         style="font-family:Porter;letter-spacing:0.075em"
         d="M 335.6725,57.58 V 100 h -8.28 V 72.88 l -15.12,15 -15.06,-15 V 100 h -8.34 V 57.58 h 4.62 l 18.78,18.66 18.84,-18.66 z" />
      <path
         id="path32"
         style="font-family:Porter;letter-spacing:0.075em"
         d="m 361.76688,100 h -8.34001 V 58 h 16.98001 q 2.63999,0 4.97999,1.02 2.34,1.02 4.08001,2.82 1.8,1.74 2.81999,4.08 1.08,2.34 1.08,5.04 0,2.7 -1.02,5.1 -1.02,2.4 -2.81999,4.14 -1.74001,1.74 -4.14001,2.76 -2.34,1.02 -4.97999,1.02 h -8.64 z m 0,-24.3 h 7.07999 q 3.18001,0 4.68001,-1.38 1.5,-1.44 1.5,-3.36 0,-1.92 -1.5,-3.24 -1.5,-1.38 -4.68001,-1.38 h -7.07999 z" />
      <path
         id="path34"
         style="font-family:Porter;letter-spacing:0.075em"
         d="m 415.55031,100.42 q -4.02,0 -7.86,-1.5 -3.84,-1.5 -6.9,-4.26 -3,-2.82 -4.86,-6.78 -1.8,-3.96 -1.8,-8.82 0,-4.2 1.62,-8.1 1.62,-3.9 4.44,-6.84 2.88,-3 6.78,-4.74 3.96,-1.8 8.58,-1.8 4.14,0 7.98,1.62 3.9,1.56 6.84,4.44 3,2.82 4.8,6.78 1.8,3.96 1.8,8.64 0,4.14 -1.62,8.04 -1.56,3.84 -4.44,6.84 -2.82,2.94 -6.78,4.74 -3.9,1.74 -8.58,1.74 z m 0,-34.5 q -2.7,0 -5.1,1.02 -2.34,1.02 -4.14,2.82 -1.8,1.8 -2.82,4.2 -1.02,2.4 -1.02,5.1 0,2.7 1.02,5.1 1.08,2.34 2.82,4.14 1.8,1.74 4.14,2.76 2.4,1.02 5.1,1.02 2.7,0 5.04,-1.02 2.4,-1.02 4.14,-2.76 1.8,-1.8 2.82,-4.14 1.02,-2.4 1.02,-5.1 0,-2.7 -1.08,-5.1 -1.02,-2.4 -2.82,-4.2 -1.74,-1.8 -4.14,-2.82 -2.34,-1.02 -4.98,-1.02 z" />
      <path
         id="path36"
         style="font-family:Porter;letter-spacing:0.075em"
         d="m 486.46938,100 h -10.2 L 464.86937,83.98 h -5.03999 V 100 h -8.28001 V 58 h 16.98001 q 2.63999,0 4.97999,1.02 2.34,1.02 4.08001,2.82 1.79999,1.74 2.81999,4.08 1.08,2.34 1.08,5.04 0,3.96 -2.03999,7.14 -2.04001,3.12 -5.34001,4.62 z m -19.5,-24.3 q 3.18,0 4.68,-1.38 1.5,-1.44 1.5,-3.36 0,-1.92 -1.5,-3.24 -1.5,-1.38 -4.68,-1.38 h -7.14 v 9.36 z" />
      <path
         id="path38"
         style="font-family:Porter;letter-spacing:0.075em"
         d="m 516.44875,57.58 18.9,42.42 h -9.18 l -3.42,-7.68 h -16.02 q -0.78,1.8 -1.74,3.9 -0.9,2.04 -1.62,3.78 h -9.12 l 18.66,-42.42 z m 2.58,26.4 -4.32,-9.72 -4.32,9.72 z" />
      <path
         id="path40"
         style="font-family:Porter;letter-spacing:0.075em"
         d="m 547.5025,57.58 h 3.66 l 22.68,25.2 V 58 h 8.28 v 42.42 h -3.72 l -22.62,-25.14 V 100 h -8.28 z" />
      <path
         id="path42"
         style="font-family:Porter;letter-spacing:0.075em"
         d="m 607.80062,66.34 v 8.46 h 13.62 v 8.4 h -13.62 v 8.46 h 18.66001 V 100 h -27 V 58 h 27 v 8.34 z" />
      <path
         id="path44"
         style="font-family:Porter;letter-spacing:0.075em"
         d="M 658.15188,57.58 677.05187,100 h -9.17999 l -3.42001,-7.68 h -16.02 q -0.77999,1.8 -1.74,3.9 -0.9,2.04 -1.62,3.78 h -9.12 l 18.66001,-42.42 z m 2.57999,26.4 -4.32,-9.72 -4.32,9.72 z" />
    </g>
  </g>
</svg>
