<?xml version="1.0" encoding="UTF-8" standalone="no"?>
<svg
   xmlns:dc="http://purl.org/dc/elements/1.1/"
   xmlns:cc="http://creativecommons.org/ns#"
   xmlns:rdf="http://www.w3.org/1999/02/22-rdf-syntax-ns#"
   xmlns:svg="http://www.w3.org/2000/svg"
   xmlns="http://www.w3.org/2000/svg"
   id="svg16"
   width="800px"
   version="1.1"
   height="200px">
  <metadata
     id="metadata20">
    <rdf:RDF>
      <cc:Work
         rdf:about="">
        <dc:format>image/svg+xml</dc:format>
        <dc:type
           rdf:resource="http://purl.org/dc/dcmitype/StillImage" />
      </cc:Work>
    </rdf:RDF>
  </metadata>
  <defs
     id="defs4">
    <style
       id="style2"
       type="text/css"><![CDATA[    
     @font-face {font-family:Porter;
     src: url('/Users/francesco/Repos/write-logos/src/fonts/Fonts_E_TEMPORANEA/Porter_Bold.ttf');}
     @font-face {font-family:ScreenMatrix;
     src: url('/Users/francesco/Repos/write-logos/src/fonts/Fonts_X/ScreenMatrix.ttf');}
     ]]></style>
  </defs>
  <g
     id="g14"
     style="font-size:60px">
    <g
       style="text-anchor:middle"
       id="text12"
       aria-label="EXTEMPORANEA">
      <path
         id="path22"
         style="font-family:Porter;letter-spacing:0.075em"
         d="m 134.10531,66.34 v 8.46 h 13.62 v 8.4 h -13.62 v 8.46 h 18.66 V 100 h -27 V 58 h 27 v 8.34 z" />
      <path
         id="path24"
         style="font-family:ScreenMatrix;letter-spacing:0.05em"
         d="m 188.75195,63.994141 v -5.390625 h 5.39063 v 5.390625 z m 0,6.005859 v -5.390625 h 5.39063 V 70 Z m -6.00586,6.005859 v -5.419922 h 5.39063 v 5.419922 z M 164.75781,63.994141 v -5.390625 h 5.39063 v 5.390625 z m 0,6.005859 v -5.390625 h 5.39063 V 70 Z m 5.97656,6.005859 v -5.419922 h 5.41993 v 5.419922 z m 6.00586,6.00586 v -5.419922 h 5.41993 v 5.419922 z m 6.00586,5.976562 v -5.390625 h 5.39063 v 5.390625 z m 6.00586,6.00586 v -5.390625 h 5.39063 v 5.390625 z m 0,6.005859 v -5.390625 h 5.39063 V 100 Z M 170.73437,87.988281 v -5.390625 h 5.41993 v 5.390625 z m -5.97656,6.00586 v -5.390625 h 5.39063 v 5.390625 z m 0,6.005859 v -5.390625 h 5.39063 V 100 Z" />
      <path
         id="path26"
         style="font-family:Porter;letter-spacing:0.075em"
         d="m 234.59312,66.34 h -11.52 V 100 h -8.34 V 66.34 h -11.64 V 58 h 31.5 z" />
      <path
         id="path28"
         style="font-family:Porter;letter-spacing:0.075em"
         d="m 256.73031,66.34 v 8.46 h 13.62 v 8.4 h -13.62 v 8.46 h 18.66 V 100 h -27 V 58 h 27 v 8.34 z" />
      <path
         id="path30"
         style="font-family:Porter;letter-spacing:0.075em"
         d="M 336.96156,57.58 V 100 h -8.28 V 72.88 l -15.12,15 -15.06,-15 V 100 h -8.34 V 57.58 h 4.62 l 18.78,18.66 18.84,-18.66 z" />
      <path
         id="path32"
         style="font-family:Porter;letter-spacing:0.075em"
         d="m 363.05594,100 h -8.34 V 58 h 16.98 q 2.64,0 4.98,1.02 2.34,1.02 4.08,2.82 1.8,1.74 2.82,4.08 1.08,2.34 1.08,5.04 0,2.7 -1.02,5.1 -1.02,2.4 -2.82,4.14 -1.74,1.74 -4.14,2.76 -2.34,1.02 -4.98,1.02 h -8.64 z m 0,-24.3 h 7.08 q 3.18,0 4.68,-1.38 1.5,-1.44 1.5,-3.36 0,-1.92 -1.5,-3.24 -1.5,-1.38 -4.68,-1.38 h -7.08 z" />
      <path
         id="path34"
         style="font-family:Porter;letter-spacing:0.075em"
         d="m 416.83938,100.42 q -4.02001,0 -7.86001,-1.5 -3.84,-1.5 -6.89999,-4.26 -3,-2.82 -4.86,-6.78 -1.80001,-3.96 -1.80001,-8.82 0,-4.2 1.62,-8.1 1.62,-3.9 4.44,-6.84 2.88,-3 6.78,-4.74 3.96001,-1.8 8.58001,-1.8 4.13999,0 7.97999,1.62 3.90001,1.56 6.84,4.44 3,2.82 4.80001,6.78 1.79999,3.96 1.79999,8.64 0,4.14 -1.62,8.04 -1.55999,3.84 -4.43999,6.84 -2.82001,2.94 -6.78001,4.74 -3.89999,1.74 -8.57999,1.74 z m 0,-34.5 q -2.70001,0 -5.10001,1.02 -2.33999,1.02 -4.14,2.82 -1.8,1.8 -2.81999,4.2 -1.02001,2.4 -1.02001,5.1 0,2.7 1.02001,5.1 1.07999,2.34 2.81999,4.14 1.80001,1.74 4.14,2.76 2.4,1.02 5.10001,1.02 2.69999,0 5.03999,-1.02 2.40001,-1.02 4.14001,-2.76 1.79999,-1.8 2.82,-4.14 1.01999,-2.4 1.01999,-5.1 0,-2.7 -1.07999,-5.1 -1.02001,-2.4 -2.82,-4.2 -1.74,-1.8 -4.14001,-2.82 -2.34,-1.02 -4.97999,-1.02 z" />
      <path
         id="path36"
         style="font-family:Porter;letter-spacing:0.075em"
         d="m 487.75844,100 h -10.2 l -11.4,-16.02 h -5.04 V 100 h -8.28 V 58 h 16.98 q 2.64,0 4.98,1.02 2.34,1.02 4.08,2.82 1.8,1.74 2.82,4.08 1.08,2.34 1.08,5.04 0,3.96 -2.04,7.14 -2.04,3.12 -5.34,4.62 z m -19.5,-24.3 q 3.18,0 4.68,-1.38 1.5,-1.44 1.5,-3.36 0,-1.92 -1.5,-3.24 -1.5,-1.38 -4.68,-1.38 h -7.14 v 9.36 z" />
      <path
         id="path38"
         style="font-family:Porter;letter-spacing:0.075em"
         d="m 517.73781,57.58 18.9,42.42 h -9.18 l -3.42,-7.68 h -16.02 q -0.78,1.8 -1.74,3.9 -0.9,2.04 -1.62,3.78 h -9.12 l 18.66,-42.42 z m 2.58,26.4 -4.32,-9.72 -4.32,9.72 z" />
      <path
         id="path40"
         style="font-family:Porter;letter-spacing:0.075em"
         d="m 548.79156,57.58 h 3.66 l 22.68,25.2 V 58 h 8.28 v 42.42 h -3.72 l -22.62,-25.14 V 100 h -8.28 z" />
      <path
         id="path42"
         style="font-family:Porter;letter-spacing:0.075em"
         d="m 609.08969,66.34 v 8.46 h 13.62 v 8.4 h -13.62 v 8.46 h 18.66 V 100 h -27 V 58 h 27 v 8.34 z" />
      <path
         id="path44"
         style="font-family:Porter;letter-spacing:0.075em"
         d="m 659.44094,57.58 18.9,42.42 h -9.18 l -3.42,-7.68 h -16.02 q -0.78,1.8 -1.74,3.9 -0.9,2.04 -1.62,3.78 h -9.12 l 18.66,-42.42 z m 2.58,26.4 -4.32,-9.72 -4.32,9.72 z" />
    </g>
  </g>
</svg>
