<?xml version="1.0" encoding="UTF-8" standalone="no"?>
<svg
   xmlns:dc="http://purl.org/dc/elements/1.1/"
   xmlns:cc="http://creativecommons.org/ns#"
   xmlns:rdf="http://www.w3.org/1999/02/22-rdf-syntax-ns#"
   xmlns:svg="http://www.w3.org/2000/svg"
   xmlns="http://www.w3.org/2000/svg"
   id="svg16"
   width="800px"
   version="1.1"
   height="200px">
  <metadata
     id="metadata20">
    <rdf:RDF>
      <cc:Work
         rdf:about="">
        <dc:format>image/svg+xml</dc:format>
        <dc:type
           rdf:resource="http://purl.org/dc/dcmitype/StillImage" />
      </cc:Work>
    </rdf:RDF>
  </metadata>
  <defs
     id="defs4">
    <style
       id="style2"
       type="text/css"><![CDATA[    
     @font-face {font-family:Rathury;
     src: url('/Users/francesco/Repos/write-logos/src/fonts/Rathury.ttf');}
     @font-face {font-family:Baliday;
     src: url('/Users/francesco/Repos/write-logos/src/fonts/Baliday.TTF.ttf');}
     ]]></style>
  </defs>
  <g
     id="g14"
     style="font-size:60px">
    <g
       style="text-anchor:middle"
       id="text12"
       aria-label="eXtemporanea">
      <path
         id="path22"
         style="font-family:Rathury"
         d="m 299.09219,84.914286 q 1.42857,0 2.45714,0.685714 1.02857,0.628571 1.02857,2.228571 0,1.485715 -1.08571,2.514286 -1.08572,0.971429 -2.57143,1.6 -1.48572,0.628572 -3.14286,1.028572 -1.6,0.342857 -2.68571,0.514285 -0.4,1.028572 -0.4,2.342857 0,1.2 0.57143,1.885715 0.62857,0.685714 1.82857,0.685714 2,0 3.48571,-0.4 1.54286,-0.457143 2.74286,-1.142857 1.2,-0.685714 2.11428,-1.542857 0.97143,-0.914286 1.82858,-1.885715 l 0.91428,0.857143 q -0.34286,1.2 -1.71428,2.457143 -1.31429,1.2 -3.08572,2.114286 -1.77143,0.914286 -3.77143,1.371427 -1.94285,0.45714 -3.6,0.0571 -2.22857,-0.514281 -3.37143,-1.999996 Q 289.49219,96.8 289.49219,94.8 q 0,-1.828571 0.8,-3.6 0.8,-1.771429 2.11428,-3.142857 1.31429,-1.428572 3.02857,-2.285714 1.77143,-0.857143 3.65715,-0.857143 z m -5.02857,6.571428 q 0.57142,-0.114285 1.71428,-0.4 Q 296.92076,90.8 298.00647,90.4 q 1.14286,-0.457143 2,-1.085714 0.85715,-0.628572 0.85715,-1.428572 0,-0.285714 -0.22858,-0.571428 -0.22857,-0.342857 -0.45714,-0.514286 -0.8,0.114286 -1.71428,0.628571 -0.85715,0.457143 -1.71429,1.2 -0.85714,0.685715 -1.6,1.485715 -0.68571,0.742857 -1.08571,1.371428 z" />
      <path
         id="path24"
         style="font-family:Baliday"
         d="m 307.90656,61.78 q 4.68,0 6.48,2.52 0.48,0.72 1.02,1.68 0.6,0.96 1.02,1.86 0.48,0.84 1.2,2.34 0.72,1.5 1.14,2.4 0.42,0.84 1.32,2.82 0.96,1.98 1.38,2.94 1.02,-1.8 2.34,-4.26 1.32,-2.52 2.1,-4.02 0.84,-1.56 1.74,-3.12 0.96,-1.62 1.68,-2.64 0.6,-0.78 1.08,-1.26 0.48,-0.48 1.08,-0.78 0.6,-0.3 1.26,-0.36 0.66,-0.12 1.62,-0.12 0.42,0 0.72,0.12 0.3,0.06 0.48,0.24 0.18,0.12 0.18,0.3 0,0.18 -0.3,0.36 -0.54,0.3 -1.26,1.08 -0.72,0.78 -1.44,1.74 -0.66,0.9 -1.56,2.34 -0.9,1.38 -1.62,2.58 -0.72,1.2 -1.74,3 -0.96,1.74 -1.62,2.88 -0.6,1.14 -1.62,2.94 -0.96,1.8 -1.38,2.64 1.8,3.78 3.42,6.9 2.1,3.96 7.32,9.18 0.42,0.48 0.42,1.14 0,0.84 -0.66,0.84 -1.92,0 -4.38,-1.86 -2.4,-1.86 -4.68,-4.68 -2.28,-2.82 -4.5,-6.36 -3.54,5.58 -7.32,9.24 -3.72,3.66 -6.54,3.66 -0.66,0 -0.66,-0.9 0,-0.72 0.48,-1.08 2.64,-1.74 4.68,-3.78 2.1,-2.1 4.32,-5.4 1.56,-2.4 3.18,-5.04 -4.62,-9.42 -7.56,-15 -1.74,-3.54 -3.9,-6.06 -0.24,-0.24 -0.24,-0.48 0,-0.54 1.32,-0.54 z" />
      <path
         id="path26"
         style="font-family:Rathury"
         d="m 334.25871,77.828571 q -1.25715,0 -1.82858,0.4 -0.62857,0.342858 -0.91428,0.857143 -0.34286,0.457143 -0.57143,0.914286 -0.28571,0.457143 -0.85714,0.628571 -0.28572,-0.114285 -0.57143,-0.285714 -0.34286,-0.228571 -0.34286,-0.514286 0,-0.914285 0.51429,-1.6 0.45714,-0.685714 1.25714,-1.142857 0.74286,-0.457143 1.65714,-0.628571 0.85715,-0.228572 1.65715,-0.228572 0.91428,0 1.94285,0.114286 0.97143,0.05714 1.77143,0.457143 0.17143,-0.685714 0.45714,-2.228571 0.34286,-1.6 0.85715,-3.2 0.51428,-1.6 1.2,-2.8 0.74285,-1.257143 1.65714,-1.257143 0.68571,0 0.91429,0.685714 0.22857,0.685714 0.22857,1.2 0,1.028571 -0.28572,2.114286 -0.22857,1.085714 -0.57143,2.171428 -0.28571,1.028572 -0.62857,2.057143 -0.34285,1.028572 -0.51428,2.057143 0.51428,0.171429 1.08571,0.228571 0.57143,0.05714 1.2,0.05714 1.2,0 1.94286,-0.685714 0.74286,-0.742857 1.2,-1.6 0.45714,-0.857143 0.8,-1.542857 0.34286,-0.742857 0.74286,-0.742857 0.91428,0 0.91428,0.8 0,1.142857 -0.45714,2.171428 -0.45714,0.971429 -1.25714,1.771429 -0.74286,0.742857 -1.77143,1.2 -1.02857,0.457143 -2.11429,0.457143 -0.68571,0 -1.37143,-0.171429 -0.68571,-0.228571 -1.31428,-0.228571 -0.8,3.6 -1.25715,7.314285 -0.45714,3.657143 -0.45714,7.371429 0,0.514286 0,1.2 0,0.685714 0.17143,1.314286 0.17143,0.628571 0.51429,1.085714 0.4,0.4 1.08571,0.4 0.28571,-0.342857 0.97143,-1.085714 0.74286,-0.742857 1.48571,-1.485715 0.8,-0.8 1.54286,-1.371428 0.74286,-0.628572 1.14286,-0.628572 l 0.85714,0.857143 q -0.45714,0.628572 -1.2,1.6 -0.74286,0.971429 -1.65714,1.885715 -0.91429,0.857142 -1.88572,1.485714 -0.91428,0.628571 -1.71428,0.628571 -1.42857,0 -2.28572,-1.2 -0.8,-1.2 -1.2,-2.857143 -0.4,-1.657142 -0.51428,-3.314285 -0.11429,-1.714286 -0.11429,-2.685715 0,-2.914285 0.28572,-5.771428 Q 337.00156,81.2 337.68728,78.4 q -0.85715,-0.228571 -1.65715,-0.4 -0.85714,-0.171429 -1.77142,-0.171429 z" />
      <path
         id="path28"
         style="font-family:Rathury"
         d="m 354.87344,84.914286 q 1.42857,0 2.45714,0.685714 1.02857,0.628571 1.02857,2.228571 0,1.485715 -1.08571,2.514286 -1.08572,0.971429 -2.57143,1.6 -1.48572,0.628572 -3.14286,1.028572 -1.6,0.342857 -2.68571,0.514285 -0.4,1.028572 -0.4,2.342857 0,1.2 0.57143,1.885715 0.62857,0.685714 1.82857,0.685714 2,0 3.48571,-0.4 1.54286,-0.457143 2.74286,-1.142857 1.2,-0.685714 2.11428,-1.542857 0.97143,-0.914286 1.82858,-1.885715 l 0.91428,0.857143 q -0.34286,1.2 -1.71428,2.457143 -1.31429,1.2 -3.08572,2.114286 -1.77143,0.914286 -3.77143,1.371427 -1.94285,0.45714 -3.6,0.0571 -2.22857,-0.514281 -3.37143,-1.999996 Q 345.27344,96.8 345.27344,94.8 q 0,-1.828571 0.8,-3.6 0.8,-1.771429 2.11428,-3.142857 1.31429,-1.428572 3.02857,-2.285714 1.77143,-0.857143 3.65715,-0.857143 z m -5.02857,6.571428 q 0.57142,-0.114285 1.71428,-0.4 Q 352.70201,90.8 353.78772,90.4 q 1.14286,-0.457143 2,-1.085714 0.85715,-0.628572 0.85715,-1.428572 0,-0.285714 -0.22858,-0.571428 -0.22857,-0.342857 -0.45714,-0.514286 -0.8,0.114286 -1.71428,0.628571 -0.85715,0.457143 -1.71429,1.2 -0.85714,0.685715 -1.6,1.485715 -0.68571,0.742857 -1.08571,1.371428 z" />
      <path
         id="path30"
         style="font-family:Rathury"
         d="m 373.99353,89.885714 q 0.57143,-0.8 1.37143,-1.657143 0.8,-0.914285 1.71428,-1.6 0.97143,-0.742857 2,-1.2 1.08572,-0.514285 2.11429,-0.514285 1.14285,0 1.88571,0.4 0.8,0.4 1.25714,1.085714 0.45715,0.685714 0.62858,1.6 0.22857,0.857143 0.22857,1.885714 0,1.6 -0.28572,3.142857 -0.22857,1.485715 -0.22857,3.085715 0,0.628571 0.28572,1.371428 0.28571,0.742857 1.02857,0.742857 0.74285,0 1.54285,-0.742857 0.8,-0.742857 1.48572,-1.657143 0.74286,-0.914285 1.37143,-1.657142 0.68571,-0.742858 1.2,-0.742858 l 0.91428,0.857143 q -0.45714,0.628572 -1.2,1.6 -0.74285,0.971429 -1.65714,1.885715 -0.91429,0.857142 -1.82857,1.485714 -0.91429,0.628571 -1.71429,0.628571 -1.42857,0 -2.17143,-0.914285 -0.68571,-0.914286 -1.02857,-2.228572 -0.28571,-1.371428 -0.4,-2.914286 -0.0571,-1.6 -0.28571,-2.914285 -0.17143,-1.371429 -0.62857,-2.285715 -0.45715,-0.914285 -1.48572,-0.914285 -1.6,0 -2.68571,0.8 -1.02857,0.8 -1.71429,2 -0.62857,1.142857 -1.02857,2.571428 -0.4,1.371429 -0.68571,2.571429 Q 373.70781,96.8 373.4221,97.6 q -0.28572,0.8 -0.74286,0.8 -0.22857,0 -0.51428,-0.228571 -0.28572,-0.228572 -0.28572,-0.457143 l 0.11429,-0.628572 q -0.11429,-0.4 -0.22857,-1.2 -0.0571,-0.857143 -0.17143,-1.885714 -0.0571,-1.028571 -0.22857,-2.114286 -0.11429,-1.085714 -0.28572,-1.942857 -0.17143,-0.914286 -0.45714,-1.485714 -0.28572,-0.571429 -0.62857,-0.571429 -2.11429,0 -3.48572,0.857143 -1.31428,0.857143 -2.17143,2.228572 -0.8,1.371428 -1.2,3.142857 -0.34285,1.714285 -0.51428,3.485714 l -0.11429,0.228571 q 0.11429,0.514286 0.28572,1.028572 0.22857,0.514286 0.22857,1.028571 0,0.799996 -0.91429,0.799996 -0.68571,0 -1.02857,-1.199996 -0.34286,-1.2 -0.51428,-2.8 -0.17143,-1.6 -0.17143,-3.085714 0,-1.485714 0,-2.114286 0,-0.4 0,-1.314285 0,-0.914286 0.17143,-1.828572 0.17142,-0.914286 0.51428,-1.6 Q 361.4221,86 362.10781,86 q 0.51429,0 0.8,0.514286 0.28572,0.457143 0.28572,0.914285 0,0.628572 -0.0572,1.2 -0.0571,0.571429 -0.0571,1.2 1.08572,-1.885714 2.68572,-3.371428 1.6,-1.542857 3.94285,-1.542857 1.82857,0 3.08572,1.028571 1.31428,0.971429 1.31428,2.857143 l -0.11428,1.085714 z" />
      <path
         id="path32"
         style="font-family:Rathury"
         d="m 393.54799,93.714286 q 0.51429,-0.914286 1.14286,-2.171429 0.68571,-1.257143 1.48571,-2.342857 0.8,-1.142857 1.77143,-1.885714 1.02857,-0.8 2.34286,-0.8 1.02857,0 2,0.628571 0.97143,0.571429 0.97143,1.771429 0,2.114285 -0.8,4.285714 -0.74286,2.114286 -2.11429,3.714286 0.57143,-0.171429 1.31429,-0.514286 0.8,-0.4 1.54285,-0.857143 0.8,-0.514286 1.48572,-1.028571 0.68571,-0.514286 1.14286,-0.971429 0.57142,-0.457143 1.08571,0.05714 0.51429,0.457143 0,1.085714 -0.68571,0.8 -2.11429,1.714286 -1.42857,0.857143 -3.08571,1.657143 -1.65714,0.742857 -3.31429,1.257143 -1.6,0.514285 -2.74285,0.514285 -0.68572,0 -1.25715,-0.342857 -0.51428,-0.4 -0.51428,-1.2 0,-0.628571 0.45714,-0.914285 0.51429,-0.342858 1.02857,-0.342858 0.51429,0 1.08572,0.285715 0.57143,0.285714 1.02857,0 1.14286,-0.8 1.94286,-2 0.8,-1.257143 1.14285,-2.457143 0.4,-1.257143 0.34286,-2.228572 -0.0571,-1.028571 -0.62857,-1.371428 -0.51429,-0.342857 -1.54286,0.228571 -0.97143,0.571429 -2.45714,2.457143 -1.2,1.6 -1.82857,3.314286 -0.62857,1.657143 -0.85715,3.485714 -0.17142,1.771433 -0.17142,3.600003 0.0571,1.88571 0.17142,3.82857 0.0572,1.31428 0.22858,2.4 0.22857,1.14286 0.4,2.11428 0.22857,1.02858 0.34285,2 0.17143,0.97143 0.17143,2.05715 0,0.74285 -0.51428,0.97143 -0.45715,0.22857 -1.25715,0.11428 -0.34285,-0.0571 -0.68571,-0.91428 -0.28572,-0.8 -0.51429,-2.11429 -0.22857,-1.31429 -0.4,-2.97143 -0.11428,-1.6 -0.22857,-3.2 -0.0571,-1.6 -0.11428,-3.08571 -0.0571,-1.42857 -0.0571,-2.45715 v -4.571424 q 0,-0.285715 0,-1.2 0,-0.971429 0,-2.285715 0.0571,-1.314285 0.11429,-2.742857 Q 391.20513,88.8 391.37656,87.6 q 0.22857,-1.2 0.51429,-2 0.34286,-0.8 0.85714,-0.8 0.85714,0 1.42857,0.685714 0.57143,0.628572 0.57143,1.142857 0,0.742858 -0.17143,1.657143 -0.17143,0.914286 -0.4,1.885715 -0.22857,0.971428 -0.4,1.885714 -0.17143,0.914286 -0.22857,1.657143 z" />
      <path
         id="path34"
         style="font-family:Rathury"
         d="m 411.74509,99.085714 q -3.37143,0 -4.8,-1.942857 Q 405.57366,95.2 405.57366,92 q 0,-0.571429 0.17143,-1.6 0.11428,-1.085714 0.4,-2.057143 0.34286,-0.971428 0.85714,-1.714286 0.57143,-0.742857 1.37143,-0.742857 0.62857,0 1.08572,0.628572 0.51428,0.571428 0.51428,1.2 0,1.028571 -0.57143,2.114285 Q 408.8308,90.857143 408.8308,92 q 0,0.628571 0.11429,1.6 0.17143,0.914286 0.51429,1.771429 0.34285,0.857142 0.91428,1.485714 0.57143,0.628571 1.48571,0.628571 1.31429,0 2.28572,-0.857143 0.97143,-0.857142 1.48571,-1.942857 -0.8,-0.571428 -1.71428,-1.485714 -0.91429,-0.971429 -1.77143,-2.114286 -0.8,-1.2 -1.37143,-2.514285 -0.51429,-1.314286 -0.51429,-2.685715 0,-1.714285 1.02858,-3.085714 1.02857,-1.371429 2.85714,-1.371429 1.25714,0 2,0.971429 0.8,0.971429 1.2,2.342857 0.45714,1.314286 0.62857,2.742857 0.17143,1.428572 0.17143,2.342857 0,1.028572 -0.11429,2.114286 -0.11428,1.028572 -0.4,2.057143 0.97143,0.628571 2,0.628571 0.8,0 1.37143,-0.571428 0.57143,-0.571429 1.37143,-0.571429 l 0.85714,0.8 q 0,0.514286 -0.4,0.914286 -0.4,0.342857 -0.97143,0.628571 -0.57142,0.228572 -1.14285,0.342858 -0.57143,0.114285 -0.97143,0.114285 -0.68572,0 -1.37143,-0.114285 Q 417.68795,96 417.05937,95.6 q -0.8,1.6 -2.17142,2.571429 -1.31429,0.914285 -3.14286,0.914285 z m 2.4,-8.4 q 0.62857,0.457143 1.02857,1.142857 0.45714,0.628572 1.08571,1.085715 0.11429,-0.8 0.11429,-1.428572 Q 416.4308,90.8 416.4308,90 q 0,-0.514286 -0.11428,-1.542857 -0.0572,-1.085714 -0.34286,-2.114286 -0.22857,-1.085714 -0.68571,-1.885714 -0.4,-0.857143 -1.02858,-0.857143 -0.51428,0.228571 -0.91428,0.742857 -0.4,0.457143 -0.4,1.085714 0,1.314286 0.34286,2.685715 0.34285,1.314285 0.85714,2.571428 z" />
      <path
         id="path36"
         style="font-family:Rathury"
         d="m 425.62545,82.057143 q -0.28572,-0.571429 -0.57143,-1.2 -0.28572,-0.628572 -0.68572,-1.142857 -0.34285,-0.571429 -0.8,-0.971429 -0.45714,-0.4 -1.14285,-0.514286 -0.68572,-0.114285 -1.37143,0.457143 Q 420.31116,79.2 420.31116,80 q 0,1.028571 0.68571,1.6 0.62858,0.514286 1.48572,0.685714 0.91429,0.171429 1.77143,0.05714 0.91428,-0.114286 1.37143,-0.285714 z M 426.13973,84 q -1.42857,0.457143 -2.97143,0.4 -1.48571,-0.05714 -2.68571,-0.571429 -1.25714,-0.514285 -2.05714,-1.485714 -0.8,-0.971428 -0.8,-2.457143 0,-1.657143 1.14285,-2.514285 1.14286,-0.857143 2.62858,-0.857143 2.17142,0 3.65714,1.542857 1.48571,1.485714 2.17143,3.371428 0.51428,-0.285714 1.02857,-0.4 0.51428,-0.114285 1.08571,-0.228571 2.85714,-0.342857 4.11429,0.457143 1.31428,0.742857 1.54285,2.228571 0.22858,1.428572 -0.28571,3.314286 -0.51429,1.828571 -1.25714,3.6 -0.68572,1.714286 -1.31429,3.2 -0.62857,1.428571 -0.62857,2 0,0.514286 0.4,0.8 0.45714,0.228571 0.91429,0.228571 1.14285,0 2.45714,-1.028571 1.37143,-1.028571 2.34286,-2.171429 0.34285,-0.285714 0.62857,-0.285714 0.34285,-0.05714 0.51428,0.171429 0.22857,0.228571 0.17143,0.628571 0,0.342857 -0.4,0.857143 -0.34286,0.4 -0.85714,1.028571 -0.45714,0.571429 -1.14286,1.142858 -0.68571,0.571428 -1.65714,1.028571 -0.91429,0.4 -2.17143,0.4 -0.74286,0 -1.37143,-0.342857 -0.62857,-0.4 -1.08571,-0.971429 -0.4,-0.571428 -0.68572,-1.257143 -0.22857,-0.742857 -0.22857,-1.428571 0,-1.142857 0.45714,-2.4 0.45715,-1.314286 0.97143,-2.571429 0.51429,-1.314285 0.91429,-2.457142 0.4,-1.142858 0.22857,-1.942858 -0.17143,-0.8 -1.08571,-1.142857 -0.85715,-0.342857 -2.85715,-0.05714 0.0571,1.657143 -0.34285,3.257143 -0.34286,1.6 -1.02858,3.085715 -0.62857,1.428571 -1.48571,2.742857 -0.85714,1.257143 -1.71428,2.285714 -0.11429,0.171429 -0.45715,0.228571 -0.28571,0 -0.57143,-0.114285 -0.28571,-0.171429 -0.4,-0.457143 -0.11428,-0.342857 0.17143,-0.8 0.74286,-1.257143 1.48572,-2.342857 0.74285,-1.142857 1.31428,-2.285715 0.57143,-1.142857 0.91429,-2.457142 Q 426.19687,85.657143 426.13973,84 Z" />
      <path
         id="path38"
         style="font-family:Rathury"
         d="m 449.83705,84.628571 q 0.68572,0 1.2,0.4 0.51429,0.4 0.51429,1.2 0,0.857143 -0.28572,2.628572 -0.22857,1.714286 -0.39999,3.6 -0.11429,1.828571 0,3.428571 0.17142,1.6 0.97142,2.114286 0.68572,0.457143 1.54286,-0.228571 0.85714,-0.685715 1.6,-1.6 0.8,-0.971429 1.37143,-1.828572 0.62857,-0.914286 0.91428,-0.914286 0.4,0 0.62858,0.285715 Q 458.17991,94 458.17991,94.4 q -0.45714,0.685714 -1.25714,1.657143 -0.74286,0.971428 -1.65715,1.828571 -0.91428,0.857143 -1.88571,1.485715 Q 452.40848,100 451.55134,100 q -0.8,0 -1.6,-0.4 -0.8,-0.4 -1.2,-1.2 -1.31429,0.8 -2.85714,1.371429 -1.54286,0.514281 -3.14286,0.514281 -2.62857,0 -4.11429,-1.314281 Q 437.15134,97.6 437.15134,94.8 q 0,-1.828571 0.8,-3.6 0.85714,-1.771429 2.22857,-3.142857 1.37143,-1.428572 3.08571,-2.285714 1.77143,-0.857143 3.60001,-0.857143 0.79999,0 1.77142,0.285714 0.17143,-0.285714 0.51429,-0.4 0.34286,-0.171429 0.68571,-0.171429 z m -7.2,13.885715 q 1.48572,0 2.91429,-0.571429 1.42857,-0.571428 2.62857,-1.257143 -0.17143,-0.628571 -0.28571,-1.257143 -0.11429,-0.685714 -0.11429,-1.314285 0,-1.828572 0.0571,-3.542857 0.0572,-1.714286 0.34286,-3.542858 l -0.62857,-0.114285 q -1.31429,0.285714 -2.57143,1.257143 -1.25714,0.914285 -2.28571,2.171428 -0.97143,1.257143 -1.6,2.742857 -0.62858,1.428572 -0.62858,2.8 0,0.971429 0.57143,1.828572 0.57143,0.8 1.6,0.8 z" />
      <path
         id="path40"
         style="font-family:Rathury"
         d="m 458.88728,86.4 q 0.11428,0.171429 0.17143,0.514286 0.11428,0.342857 0.11428,0.514285 0,0.514286 -0.0571,1.085715 0,0.571428 0,1.085714 1.14286,-1.828571 2.85714,-3.257143 1.77143,-1.428571 4,-1.428571 2.4,0 3.25714,1.428571 0.85715,1.428572 0.85715,3.542857 0,1.657143 -0.28572,3.257143 -0.22857,1.6 -0.22857,3.142857 0,0.571429 0.28572,1.257143 0.34285,0.685714 1.02857,0.685714 0.68571,0 1.48571,-0.742857 0.8,-0.742857 1.54286,-1.657143 0.8,-0.914285 1.42857,-1.657142 0.68571,-0.742858 1.02857,-0.742858 0.28572,0 0.51429,0.342858 0.28571,0.285714 0.4,0.514285 -0.0572,0.628572 -0.85715,1.6 -0.74285,0.914286 -1.77142,1.828572 -1.02858,0.857143 -2.11429,1.542857 -1.02857,0.628571 -1.65714,0.628571 -1.54286,0 -2.28572,-0.914285 -0.74285,-0.914286 -1.02857,-2.228572 -0.28571,-1.371428 -0.34286,-2.914286 0,-1.6 -0.11428,-2.914285 -0.11429,-1.371429 -0.51429,-2.285715 -0.34285,-0.914285 -1.31428,-0.914285 -1.71429,0 -2.97143,1.028571 -1.25714,0.971429 -2.11429,2.457143 -0.85714,1.485714 -1.31428,3.2 -0.4,1.657143 -0.4,3.085714 0,0.628572 0.22857,1.2 0.28571,0.571429 0.28571,1.2 0,0.285716 -0.28571,0.514286 -0.28572,0.22857 -0.51429,0.28571 -0.68571,0 -1.08571,-1.199996 -0.34286,-1.257143 -0.51429,-2.857143 -0.17143,-1.6 -0.17143,-3.085714 -0.0571,-1.542857 -0.0571,-2.114286 0,-0.457142 0.0571,-1.371428 0,-0.914286 0.17143,-1.771429 0.11429,-0.914285 0.45715,-1.6 Q 457.40156,86 458.08728,86 l 0.8,0.4 z" />
      <path
         id="path42"
         style="font-family:Rathury"
         d="m 485.5375,84.914286 q 1.42857,0 2.45714,0.685714 1.02857,0.628571 1.02857,2.228571 0,1.485715 -1.08571,2.514286 -1.08571,0.971429 -2.57143,1.6 -1.48571,0.628572 -3.14286,1.028572 -1.6,0.342857 -2.68571,0.514285 -0.4,1.028572 -0.4,2.342857 0,1.2 0.57143,1.885715 Q 480.3375,98.4 481.5375,98.4 q 2,0 3.48571,-0.4 1.54286,-0.457143 2.74286,-1.142857 1.2,-0.685714 2.11429,-1.542857 0.97143,-0.914286 1.82857,-1.885715 l 0.91428,0.857143 q -0.34285,1.2 -1.71428,2.457143 -1.31429,1.2 -3.08572,2.114286 -1.77142,0.914286 -3.77142,1.371427 -1.94286,0.45714 -3.6,0.0571 -2.22858,-0.514281 -3.37143,-1.999996 Q 475.9375,96.8 475.9375,94.8 q 0,-1.828571 0.8,-3.6 0.8,-1.771429 2.11429,-3.142857 1.31428,-1.428572 3.02857,-2.285714 1.77143,-0.857143 3.65714,-0.857143 z m -5.02857,6.571428 q 0.57143,-0.114285 1.71428,-0.4 Q 483.36607,90.8 484.45179,90.4 q 1.14285,-0.457143 2,-1.085714 0.85714,-0.628572 0.85714,-1.428572 0,-0.285714 -0.22857,-0.571428 -0.22857,-0.342857 -0.45715,-0.514286 -0.8,0.114286 -1.71428,0.628571 -0.85714,0.457143 -1.71429,1.2 -0.85714,0.685715 -1.6,1.485715 -0.68571,0.742857 -1.08571,1.371428 z" />
      <path
         id="path44"
         style="font-family:Rathury"
         d="m 503.7433,84.628571 q 0.68572,0 1.2,0.4 0.51429,0.4 0.51429,1.2 0,0.857143 -0.28572,2.628572 -0.22857,1.714286 -0.39999,3.6 -0.11429,1.828571 0,3.428571 0.17142,1.6 0.97142,2.114286 0.68572,0.457143 1.54286,-0.228571 0.85714,-0.685715 1.6,-1.6 0.8,-0.971429 1.37143,-1.828572 0.62857,-0.914286 0.91428,-0.914286 0.4,0 0.62858,0.285715 Q 512.08616,94 512.08616,94.4 q -0.45714,0.685714 -1.25714,1.657143 -0.74286,0.971428 -1.65715,1.828571 -0.91428,0.857143 -1.88571,1.485715 Q 506.31473,100 505.45759,100 q -0.8,0 -1.6,-0.4 -0.8,-0.4 -1.2,-1.2 -1.31429,0.8 -2.85714,1.371429 -1.54286,0.514281 -3.14286,0.514281 -2.62857,0 -4.11429,-1.314281 Q 491.05759,97.6 491.05759,94.8 q 0,-1.828571 0.8,-3.6 0.85714,-1.771429 2.22857,-3.142857 1.37143,-1.428572 3.08571,-2.285714 1.77143,-0.857143 3.60001,-0.857143 0.79999,0 1.77142,0.285714 0.17143,-0.285714 0.51429,-0.4 0.34286,-0.171429 0.68571,-0.171429 z m -7.2,13.885715 q 1.48572,0 2.91429,-0.571429 1.42857,-0.571428 2.62857,-1.257143 -0.17143,-0.628571 -0.28571,-1.257143 -0.11429,-0.685714 -0.11429,-1.314285 0,-1.828572 0.0571,-3.542857 0.0572,-1.714286 0.34286,-3.542858 l -0.62857,-0.114285 q -1.31429,0.285714 -2.57143,1.257143 -1.25714,0.914285 -2.28571,2.171428 -0.97143,1.257143 -1.6,2.742857 -0.62858,1.428572 -0.62858,2.8 0,0.971429 0.57143,1.828572 0.57143,0.8 1.6,0.8 z" />
    </g>
  </g>
</svg>
