<?xml version="1.0" encoding="UTF-8" standalone="no"?>
<svg
   xmlns:dc="http://purl.org/dc/elements/1.1/"
   xmlns:cc="http://creativecommons.org/ns#"
   xmlns:rdf="http://www.w3.org/1999/02/22-rdf-syntax-ns#"
   xmlns:svg="http://www.w3.org/2000/svg"
   xmlns="http://www.w3.org/2000/svg"
   id="svg16"
   width="500px"
   version="1.1"
   height="200px">
  <metadata
     id="metadata20">
    <rdf:RDF>
      <cc:Work
         rdf:about="">
        <dc:format>image/svg+xml</dc:format>
        <dc:type
           rdf:resource="http://purl.org/dc/dcmitype/StillImage" />
      </cc:Work>
    </rdf:RDF>
  </metadata>
  <defs
     id="defs4">
    <style
       id="style2"
       type="text/css"><![CDATA[    
     @font-face {font-family:Rathury;
     src: url('/Users/francesco/Repos/write-logos/src/fonts/Rathury.ttf');}
     @font-face {font-family:Obladi Script;
     src: url('/Users/francesco/Repos/write-logos/src/fonts/Obladi_Script.ttf');}
     ]]></style>
  </defs>
  <g
     id="g14"
     style="font-size:60px">
    <g
       style="text-anchor:middle"
       id="text12"
       aria-label="eXtemporanea">
      <path
         id="path22"
         style="font-family:Rathury"
         d="m 157.4125,84.914286 q 1.42857,0 2.45714,0.685714 1.02857,0.628571 1.02857,2.228571 0,1.485715 -1.08571,2.514286 -1.08571,0.971429 -2.57143,1.6 -1.48571,0.628572 -3.14286,1.028572 -1.6,0.342857 -2.68571,0.514285 -0.4,1.028572 -0.4,2.342857 0,1.2 0.57143,1.885715 Q 152.2125,98.4 153.4125,98.4 q 2,0 3.48571,-0.4 1.54286,-0.457143 2.74286,-1.142857 1.2,-0.685714 2.11429,-1.542857 0.97143,-0.914286 1.82857,-1.885715 l 0.91428,0.857143 q -0.34285,1.2 -1.71428,2.457143 -1.31429,1.2 -3.08572,2.114286 -1.77142,0.914286 -3.77142,1.371427 -1.94286,0.45714 -3.6,0.0571 -2.22858,-0.514281 -3.37143,-1.999996 Q 147.8125,96.8 147.8125,94.8 q 0,-1.828571 0.8,-3.6 0.8,-1.771429 2.11429,-3.142857 1.31428,-1.428572 3.02857,-2.285714 1.77143,-0.857143 3.65714,-0.857143 z m -5.02857,6.571428 q 0.57143,-0.114285 1.71428,-0.4 Q 155.24107,90.8 156.32679,90.4 q 1.14285,-0.457143 2,-1.085714 0.85714,-0.628572 0.85714,-1.428572 0,-0.285714 -0.22857,-0.571428 -0.22857,-0.342857 -0.45715,-0.514286 -0.8,0.114286 -1.71428,0.628571 -0.85714,0.457143 -1.71429,1.2 -0.85714,0.685715 -1.6,1.485715 -0.68571,0.742857 -1.08571,1.371428 z" />
      <path
         id="path24"
         style="font-family:'Obladi Script'"
         d="m 179.57031,101.14258 q -0.55664,-0.17578 -1.58203,-1.845705 -0.99609,-1.669922 -2.90039,-5.595703 -1.05469,-2.109375 -2.31445,-4.716797 -1.23047,-2.607422 -1.99219,-4.335938 l -0.49805,-0.996093 q -0.0586,0.0293 -0.58593,0.849609 -0.52735,0.791016 -1.20118,1.875 -0.67382,1.083984 -1.20117,1.933594 -1.20117,2.021484 -2.19726,3.896484 -0.9668,1.845703 -1.17188,2.519531 -0.11719,0.351563 -0.35156,0.761719 -0.23438,0.38086 -0.43945,0.527344 -0.17579,0.117187 -0.32227,0.117187 -0.14648,0 -0.29297,-0.08789 -0.29297,-0.205078 -0.32226,-0.644531 0.0293,-0.263672 0.38085,-1.113282 0.35157,-0.878906 0.87891,-1.933593 2.05078,-4.042969 5.53711,-9.228516 0.26367,-0.380859 0.43945,-0.673828 0.17578,-0.292969 0.17578,-0.322266 0,-0.0293 -0.17578,-0.410156 -0.14648,-0.380859 -0.35156,-0.908203 -1.02539,-2.402344 -2.05078,-5.15625 -1.02539,-2.753906 -2.34375,-6.738281 -0.41016,-1.201172 -0.70313,-2.021485 -0.26367,-0.820312 -0.43945,-1.318359 -0.17578,-0.527344 -0.29297,-0.791016 -0.11718,-0.292969 -0.17578,-0.380859 -0.0293,-0.08789 -0.0879,-0.08789 -0.0586,0 -0.20508,-0.117187 -0.14648,-0.117188 -0.26367,-0.263672 -0.14648,-0.175781 -0.20508,-0.351563 -0.14648,-0.292968 -0.14648,-0.644531 0,-0.351562 0.11719,-0.644531 0.20507,-0.410156 0.49804,-0.46875 0.29297,-0.08789 0.41016,-0.08789 0.32226,0 0.67383,0.205078 0.58593,0.292969 1.28906,1.875 0.73242,1.552735 2.02148,5.390625 0.73243,2.080078 1.58204,4.570313 0.8789,2.460937 1.55273,4.277344 0.67383,1.816406 0.76172,1.96289 0.0293,0 0.35156,-0.46875 0.32227,-0.46875 0.82031,-1.142578 3.07618,-4.335937 6.67969,-9.140625 3.63281,-4.804687 6.38672,-8.203125 1.40625,-1.728516 2.49023,-2.900391 1.11329,-1.171875 1.49414,-1.347656 0.17579,-0.05859 0.32227,-0.05859 h 0.0879 q 0.17578,0.05859 0.26367,0.205079 0.0586,0.117187 0.0586,0.234375 0,0.117187 -0.0586,0.234375 -0.11718,0.234375 -0.55664,0.673828 -2.22656,2.138672 -8.67187,10.751953 -2.10938,2.841797 -4.18946,5.71289 -2.05078,2.841797 -3.45703,4.863282 -1.37695,1.992187 -1.37695,2.138672 0,0.08789 0.61523,1.611328 0.61524,1.49414 1.40625,3.339843 1.81641,4.072266 3.51563,7.646485 1.69922,3.574219 2.49023,4.921875 0.14649,0.234375 0.23438,0.351562 0.0879,0.08789 0.17578,0.117188 0.0879,0.0293 0.26367,0.05859 0.61524,0.08789 0.64453,0.673829 -0.0293,0.52734 -0.38086,0.73242 -0.35156,0.23438 -0.64453,0.23438 -0.23437,0 -0.46875,-0.11719 z" />
      <path
         id="path26"
         style="font-family:Rathury"
         d="m 175.93839,77.828571 q -1.25714,0 -1.82857,0.4 -0.62857,0.342858 -0.91428,0.857143 -0.34286,0.457143 -0.57143,0.914286 -0.28572,0.457143 -0.85715,0.628571 -0.28571,-0.114285 -0.57142,-0.285714 -0.34286,-0.228571 -0.34286,-0.514286 0,-0.914285 0.51428,-1.6 0.45715,-0.685714 1.25715,-1.142857 0.74285,-0.457143 1.65714,-0.628571 0.85714,-0.228572 1.65714,-0.228572 0.91429,0 1.94286,0.114286 0.97143,0.05714 1.77143,0.457143 0.17143,-0.685714 0.45714,-2.228571 0.34286,-1.6 0.85714,-3.2 0.51429,-1.6 1.2,-2.8 0.74286,-1.257143 1.65715,-1.257143 0.68571,0 0.91428,0.685714 0.22857,0.685714 0.22857,1.2 0,1.028571 -0.28571,2.114286 -0.22857,1.085714 -0.57143,2.171428 -0.28571,1.028572 -0.62857,2.057143 -0.34286,1.028572 -0.51429,2.057143 0.51429,0.171429 1.08572,0.228571 0.57143,0.05714 1.2,0.05714 1.2,0 1.94286,-0.685714 0.74285,-0.742857 1.2,-1.6 0.45714,-0.857143 0.8,-1.542857 0.34285,-0.742857 0.74285,-0.742857 0.91429,0 0.91429,0.8 0,1.142857 -0.45714,2.171428 -0.45715,0.971429 -1.25715,1.771429 -0.74285,0.742857 -1.77143,1.2 -1.02857,0.457143 -2.11428,0.457143 -0.68572,0 -1.37143,-0.171429 -0.68571,-0.228571 -1.31429,-0.228571 -0.8,3.6 -1.25714,7.314285 -0.45714,3.657143 -0.45714,7.371429 0,0.514286 0,1.2 0,0.685714 0.17143,1.314286 0.17143,0.628571 0.51428,1.085714 0.4,0.4 1.08572,0.4 0.28571,-0.342857 0.97143,-1.085714 0.74285,-0.742857 1.48571,-1.485715 0.8,-0.8 1.54286,-1.371428 0.74285,-0.628572 1.14285,-0.628572 l 0.85715,0.857143 q -0.45715,0.628572 -1.2,1.6 -0.74286,0.971429 -1.65715,1.885715 -0.91428,0.857142 -1.88571,1.485714 -0.91429,0.628571 -1.71429,0.628571 -1.42857,0 -2.28571,-1.2 -0.8,-1.2 -1.2,-2.857143 -0.4,-1.657142 -0.51429,-3.314285 -0.11428,-1.714286 -0.11428,-2.685715 0,-2.914285 0.28571,-5.771428 Q 178.68125,81.2 179.36696,78.4 q -0.85714,-0.228571 -1.65714,-0.4 -0.85714,-0.171429 -1.77143,-0.171429 z" />
      <path
         id="path28"
         style="font-family:Rathury"
         d="m 196.55312,84.914286 q 1.42858,0 2.45715,0.685714 1.02857,0.628571 1.02857,2.228571 0,1.485715 -1.08572,2.514286 -1.08571,0.971429 -2.57142,1.6 -1.48572,0.628572 -3.14286,1.028572 -1.6,0.342857 -2.68572,0.514285 -0.4,1.028572 -0.4,2.342857 0,1.2 0.57143,1.885715 0.62857,0.685714 1.82857,0.685714 2,0 3.48572,-0.4 1.54286,-0.457143 2.74286,-1.142857 1.2,-0.685714 2.11428,-1.542857 0.97143,-0.914286 1.82857,-1.885715 l 0.91429,0.857143 q -0.34286,1.2 -1.71429,2.457143 -1.31428,1.2 -3.08571,2.114286 -1.77143,0.914286 -3.77143,1.371427 -1.94286,0.45714 -3.6,0.0571 -2.22857,-0.514281 -3.37143,-1.999996 Q 186.95312,96.8 186.95312,94.8 q 0,-1.828571 0.8,-3.6 0.8,-1.771429 2.11429,-3.142857 1.31429,-1.428572 3.02857,-2.285714 1.77143,-0.857143 3.65714,-0.857143 z m -5.02857,6.571428 q 0.57143,-0.114285 1.71429,-0.4 Q 194.3817,90.8 195.46741,90.4 q 1.14286,-0.457143 2,-1.085714 0.85714,-0.628572 0.85714,-1.428572 0,-0.285714 -0.22857,-0.571428 -0.22857,-0.342857 -0.45714,-0.514286 -0.8,0.114286 -1.71429,0.628571 -0.85714,0.457143 -1.71428,1.2 -0.85715,0.685715 -1.6,1.485715 -0.68572,0.742857 -1.08572,1.371428 z" />
      <path
         id="path30"
         style="font-family:Rathury"
         d="m 215.67321,89.885714 q 0.57143,-0.8 1.37143,-1.657143 0.8,-0.914285 1.71429,-1.6 0.97143,-0.742857 2,-1.2 1.08571,-0.514285 2.11428,-0.514285 1.14286,0 1.88572,0.4 0.8,0.4 1.25714,1.085714 0.45714,0.685714 0.62857,1.6 0.22857,0.857143 0.22857,1.885714 0,1.6 -0.28571,3.142857 -0.22857,1.485715 -0.22857,3.085715 0,0.628571 0.28571,1.371428 0.28572,0.742857 1.02857,0.742857 0.74286,0 1.54286,-0.742857 0.8,-0.742857 1.48572,-1.657143 0.74285,-0.914285 1.37142,-1.657142 0.68572,-0.742858 1.2,-0.742858 l 0.91429,0.857143 q -0.45714,0.628572 -1.2,1.6 -0.74286,0.971429 -1.65714,1.885715 -0.91429,0.857142 -1.82857,1.485714 -0.91429,0.628571 -1.71429,0.628571 -1.42857,0 -2.17143,-0.914285 -0.68571,-0.914286 -1.02857,-2.228572 -0.28571,-1.371428 -0.4,-2.914286 -0.0571,-1.6 -0.28571,-2.914285 -0.17143,-1.371429 -0.62858,-2.285715 -0.45714,-0.914285 -1.48571,-0.914285 -1.6,0 -2.68571,0.8 -1.02858,0.8 -1.71429,2 -0.62857,1.142857 -1.02857,2.571428 -0.4,1.371429 -0.68572,2.571429 Q 215.3875,96.8 215.10179,97.6 q -0.28572,0.8 -0.74286,0.8 -0.22857,0 -0.51429,-0.228571 -0.28571,-0.228572 -0.28571,-0.457143 l 0.11428,-0.628572 q -0.11428,-0.4 -0.22857,-1.2 Q 213.3875,95.028571 213.27321,94 q -0.0571,-1.028571 -0.22857,-2.114286 -0.11428,-1.085714 -0.28571,-1.942857 -0.17143,-0.914286 -0.45714,-1.485714 -0.28572,-0.571429 -0.62858,-0.571429 -2.11428,0 -3.48571,0.857143 -1.31429,0.857143 -2.17143,2.228572 -0.8,1.371428 -1.2,3.142857 -0.34286,1.714285 -0.51428,3.485714 l -0.11429,0.228571 q 0.11429,0.514286 0.28571,1.028572 0.22858,0.514286 0.22858,1.028571 0,0.799996 -0.91429,0.799996 -0.68571,0 -1.02857,-1.199996 -0.34286,-1.2 -0.51429,-2.8 -0.17143,-1.6 -0.17143,-3.085714 0,-1.485714 0,-2.114286 0,-0.4 0,-1.314285 0,-0.914286 0.17143,-1.828572 0.17143,-0.914286 0.51429,-1.6 Q 203.10179,86 203.7875,86 q 0.51429,0 0.8,0.514286 0.28571,0.457143 0.28571,0.914285 0,0.628572 -0.0571,1.2 -0.0571,0.571429 -0.0571,1.2 1.08571,-1.885714 2.68571,-3.371428 1.6,-1.542857 3.94286,-1.542857 1.82857,0 3.08571,1.028571 1.31429,0.971429 1.31429,2.857143 l -0.11429,1.085714 z" />
      <path
         id="path32"
         style="font-family:Rathury"
         d="m 235.22768,93.714286 q 0.51428,-0.914286 1.14286,-2.171429 0.68571,-1.257143 1.48571,-2.342857 0.8,-1.142857 1.77143,-1.885714 1.02857,-0.8 2.34286,-0.8 1.02857,0 2,0.628571 0.97142,0.571429 0.97142,1.771429 0,2.114285 -0.8,4.285714 -0.74285,2.114286 -2.11428,3.714286 0.57143,-0.171429 1.31428,-0.514286 0.8,-0.4 1.54286,-0.857143 0.8,-0.514286 1.48572,-1.028571 0.68571,-0.514286 1.14285,-0.971429 0.57143,-0.457143 1.08572,0.05714 0.51428,0.457143 0,1.085714 -0.68572,0.8 -2.11429,1.714286 -1.42857,0.857143 -3.08571,1.657143 -1.65715,0.742857 -3.31429,1.257143 -1.6,0.514285 -2.74286,0.514285 -0.68571,0 -1.25714,-0.342857 -0.51428,-0.4 -0.51428,-1.2 0,-0.628571 0.45714,-0.914285 0.51428,-0.342858 1.02857,-0.342858 0.51429,0 1.08571,0.285715 0.57143,0.285714 1.02858,0 1.14285,-0.8 1.94285,-2 0.8,-1.257143 1.14286,-2.457143 0.4,-1.257143 0.34286,-2.228572 -0.0572,-1.028571 -0.62857,-1.371428 -0.51429,-0.342857 -1.54286,0.228571 -0.97143,0.571429 -2.45714,2.457143 -1.2,1.6 -1.82858,3.314286 -0.62857,1.657143 -0.85714,3.485714 -0.17143,1.771433 -0.17143,3.600003 0.0571,1.88571 0.17143,3.82857 0.0571,1.31428 0.22857,2.4 0.22857,1.14286 0.4,2.11428 0.22857,1.02858 0.34286,2 0.17143,0.97143 0.17143,2.05715 0,0.74285 -0.51429,0.97143 -0.45714,0.22857 -1.25714,0.11428 -0.34286,-0.0571 -0.68571,-0.91428 -0.28572,-0.8 -0.51429,-2.11429 -0.22857,-1.31429 -0.4,-2.97143 -0.11429,-1.6 -0.22857,-3.2 -0.0571,-1.6 -0.11429,-3.08571 -0.0571,-1.42857 -0.0571,-2.45715 v -4.571424 q 0,-0.285715 0,-1.2 0,-0.971429 0,-2.285715 0.0571,-1.314285 0.11429,-2.742857 Q 232.88482,88.8 233.05625,87.6 q 0.22857,-1.2 0.51429,-2 0.34285,-0.8 0.85714,-0.8 0.85714,0 1.42857,0.685714 0.57143,0.628572 0.57143,1.142857 0,0.742858 -0.17143,1.657143 -0.17143,0.914286 -0.4,1.885715 -0.22857,0.971428 -0.4,1.885714 -0.17143,0.914286 -0.22857,1.657143 z" />
      <path
         id="path34"
         style="font-family:Rathury"
         d="m 253.42478,99.085714 q -3.37143,0 -4.8,-1.942857 Q 247.25335,95.2 247.25335,92 q 0,-0.571429 0.17143,-1.6 0.11428,-1.085714 0.4,-2.057143 0.34285,-0.971428 0.85714,-1.714286 0.57143,-0.742857 1.37143,-0.742857 0.62857,0 1.08571,0.628572 0.51429,0.571428 0.51429,1.2 0,1.028571 -0.57143,2.114285 -0.57143,1.028572 -0.57143,2.171429 0,0.628571 0.11429,1.6 0.17143,0.914286 0.51428,1.771429 0.34286,0.857142 0.91429,1.485714 0.57143,0.628571 1.48571,0.628571 1.31429,0 2.28572,-0.857143 0.97143,-0.857142 1.48571,-1.942857 -0.8,-0.571428 -1.71428,-1.485714 -0.91429,-0.971429 -1.77143,-2.114286 -0.8,-1.2 -1.37143,-2.514285 -0.51429,-1.314286 -0.51429,-2.685715 0,-1.714285 1.02857,-3.085714 1.02858,-1.371429 2.85715,-1.371429 1.25714,0 2,0.971429 0.8,0.971429 1.2,2.342857 0.45714,1.314286 0.62857,2.742857 0.17143,1.428572 0.17143,2.342857 0,1.028572 -0.11429,2.114286 -0.11428,1.028572 -0.4,2.057143 0.97143,0.628571 2,0.628571 0.8,0 1.37143,-0.571428 0.57143,-0.571429 1.37143,-0.571429 l 0.85714,0.8 q 0,0.514286 -0.4,0.914286 -0.4,0.342857 -0.97143,0.628571 -0.57143,0.228572 -1.14285,0.342858 -0.57143,0.114285 -0.97143,0.114285 -0.68572,0 -1.37143,-0.114285 Q 259.36763,96 258.73906,95.6 q -0.8,1.6 -2.17143,2.571429 -1.31428,0.914285 -3.14285,0.914285 z m 2.4,-8.4 q 0.62857,0.457143 1.02857,1.142857 0.45714,0.628572 1.08571,1.085715 0.11429,-0.8 0.11429,-1.428572 Q 258.11049,90.8 258.11049,90 q 0,-0.514286 -0.11428,-1.542857 -0.0572,-1.085714 -0.34286,-2.114286 -0.22857,-1.085714 -0.68572,-1.885714 -0.4,-0.857143 -1.02857,-0.857143 -0.51428,0.228571 -0.91428,0.742857 -0.4,0.457143 -0.4,1.085714 0,1.314286 0.34285,2.685715 0.34286,1.314285 0.85715,2.571428 z" />
      <path
         id="path36"
         style="font-family:Rathury"
         d="m 267.30513,82.057143 q -0.28571,-0.571429 -0.57142,-1.2 -0.28572,-0.628572 -0.68572,-1.142857 -0.34286,-0.571429 -0.8,-0.971429 -0.45714,-0.4 -1.14286,-0.514286 -0.68571,-0.114285 -1.37142,0.457143 Q 261.99085,79.2 261.99085,80 q 0,1.028571 0.68571,1.6 0.62857,0.514286 1.48572,0.685714 0.91428,0.171429 1.77143,0.05714 0.91428,-0.114286 1.37142,-0.285714 z M 267.81942,84 q -1.42857,0.457143 -2.97143,0.4 -1.48571,-0.05714 -2.68571,-0.571429 -1.25715,-0.514285 -2.05715,-1.485714 -0.8,-0.971428 -0.8,-2.457143 0,-1.657143 1.14286,-2.514285 1.14286,-0.857143 2.62857,-0.857143 2.17143,0 3.65715,1.542857 1.48571,1.485714 2.17142,3.371428 0.51429,-0.285714 1.02858,-0.4 0.51428,-0.114285 1.08571,-0.228571 2.85714,-0.342857 4.11429,0.457143 1.31428,0.742857 1.54285,2.228571 0.22857,1.428572 -0.28571,3.314286 -0.51429,1.828571 -1.25714,3.6 -0.68572,1.714286 -1.31429,3.2 -0.62857,1.428571 -0.62857,2 0,0.514286 0.4,0.8 0.45714,0.228571 0.91428,0.228571 1.14286,0 2.45715,-1.028571 1.37143,-1.028571 2.34285,-2.171429 0.34286,-0.285714 0.62858,-0.285714 0.34285,-0.05714 0.51428,0.171429 0.22857,0.228571 0.17143,0.628571 0,0.342857 -0.4,0.857143 -0.34286,0.4 -0.85714,1.028571 -0.45715,0.571429 -1.14286,1.142858 -0.68571,0.571428 -1.65714,1.028571 -0.91429,0.4 -2.17143,0.4 -0.74286,0 -1.37143,-0.342857 -0.62857,-0.4 -1.08571,-0.971429 -0.4,-0.571428 -0.68572,-1.257143 -0.22857,-0.742857 -0.22857,-1.428571 0,-1.142857 0.45714,-2.4 0.45715,-1.314286 0.97143,-2.571429 0.51429,-1.314285 0.91429,-2.457142 0.4,-1.142858 0.22857,-1.942858 -0.17143,-0.8 -1.08572,-1.142857 -0.85714,-0.342857 -2.85714,-0.05714 0.0571,1.657143 -0.34286,3.257143 -0.34285,1.6 -1.02857,3.085715 -0.62857,1.428571 -1.48571,2.742857 -0.85714,1.257143 -1.71429,2.285714 -0.11428,0.171429 -0.45714,0.228571 -0.28571,0 -0.57143,-0.114285 -0.28571,-0.171429 -0.4,-0.457143 -0.11428,-0.342857 0.17143,-0.8 0.74286,-1.257143 1.48571,-2.342857 0.74286,-1.142857 1.31429,-2.285715 0.57143,-1.142857 0.91429,-2.457142 Q 267.87656,85.657143 267.81942,84 Z" />
      <path
         id="path38"
         style="font-family:Rathury"
         d="m 291.51674,84.628571 q 0.68572,0 1.2,0.4 0.51429,0.4 0.51429,1.2 0,0.857143 -0.28572,2.628572 -0.22857,1.714286 -0.4,3.6 -0.11428,1.828571 0,3.428571 0.17143,1.6 0.97143,2.114286 0.68572,0.457143 1.54286,-0.228571 0.85714,-0.685715 1.6,-1.6 0.8,-0.971429 1.37143,-1.828572 0.62857,-0.914286 0.91428,-0.914286 0.4,0 0.62857,0.285715 Q 299.8596,94 299.8596,94.4 q -0.45714,0.685714 -1.25714,1.657143 -0.74286,0.971428 -1.65715,1.828571 -0.91428,0.857143 -1.88571,1.485715 Q 294.08817,100 293.23103,100 q -0.8,0 -1.6,-0.4 -0.8,-0.4 -1.2,-1.2 -1.31429,0.8 -2.85715,1.371429 -1.54285,0.514281 -3.14285,0.514281 -2.62857,0 -4.11429,-1.314281 Q 278.83103,97.6 278.83103,94.8 q 0,-1.828571 0.8,-3.6 0.85714,-1.771429 2.22857,-3.142857 1.37143,-1.428572 3.08571,-2.285714 1.77143,-0.857143 3.6,-0.857143 0.8,0 1.77143,0.285714 0.17143,-0.285714 0.51429,-0.4 0.34285,-0.171429 0.68571,-0.171429 z m -7.2,13.885715 q 1.48572,0 2.91429,-0.571429 1.42857,-0.571428 2.62857,-1.257143 -0.17143,-0.628571 -0.28572,-1.257143 -0.11428,-0.685714 -0.11428,-1.314285 0,-1.828572 0.0571,-3.542857 0.0571,-1.714286 0.34286,-3.542858 l -0.62857,-0.114285 q -1.31429,0.285714 -2.57143,1.257143 -1.25714,0.914285 -2.28572,2.171428 -0.97142,1.257143 -1.6,2.742857 -0.62857,1.428572 -0.62857,2.8 0,0.971429 0.57143,1.828572 0.57143,0.8 1.6,0.8 z" />
      <path
         id="path40"
         style="font-family:Rathury"
         d="m 300.56696,86.4 q 0.11429,0.171429 0.17143,0.514286 0.11429,0.342857 0.11429,0.514285 0,0.514286 -0.0571,1.085715 0,0.571428 0,1.085714 1.14285,-1.828571 2.85714,-3.257143 1.77143,-1.428571 4,-1.428571 2.4,0 3.25714,1.428571 0.85714,1.428572 0.85714,3.542857 0,1.657143 -0.28571,3.257143 -0.22857,1.6 -0.22857,3.142857 0,0.571429 0.28571,1.257143 0.34286,0.685714 1.02857,0.685714 0.68572,0 1.48572,-0.742857 0.8,-0.742857 1.54286,-1.657143 0.8,-0.914285 1.42857,-1.657142 0.68571,-0.742858 1.02857,-0.742858 0.28571,0 0.51428,0.342858 0.28572,0.285714 0.4,0.514285 -0.0571,0.628572 -0.85714,1.6 -0.74286,0.914286 -1.77143,1.828572 -1.02857,0.857143 -2.11428,1.542857 -1.02857,0.628571 -1.65715,0.628571 -1.54285,0 -2.28571,-0.914285 -0.74286,-0.914286 -1.02857,-2.228572 -0.28572,-1.371428 -0.34286,-2.914286 0,-1.6 -0.11428,-2.914285 -0.11429,-1.371429 -0.51429,-2.285715 -0.34286,-0.914285 -1.31429,-0.914285 -1.71428,0 -2.97142,1.028571 -1.25715,0.971429 -2.11429,2.457143 -0.85714,1.485714 -1.31429,3.2 -0.4,1.657143 -0.4,3.085714 0,0.628572 0.22858,1.2 0.28571,0.571429 0.28571,1.2 0,0.285716 -0.28571,0.514286 -0.28572,0.22857 -0.51429,0.28571 -0.68571,0 -1.08571,-1.199996 -0.34286,-1.257143 -0.51429,-2.857143 -0.17143,-1.6 -0.17143,-3.085714 -0.0571,-1.542857 -0.0571,-2.114286 0,-0.457142 0.0571,-1.371428 0,-0.914286 0.17143,-1.771429 0.11429,-0.914285 0.45714,-1.6 Q 299.08125,86 299.76696,86 l 0.8,0.4 z" />
      <path
         id="path42"
         style="font-family:Rathury"
         d="m 327.21719,84.914286 q 1.42857,0 2.45714,0.685714 1.02857,0.628571 1.02857,2.228571 0,1.485715 -1.08571,2.514286 -1.08572,0.971429 -2.57143,1.6 -1.48572,0.628572 -3.14286,1.028572 -1.6,0.342857 -2.68571,0.514285 -0.4,1.028572 -0.4,2.342857 0,1.2 0.57143,1.885715 0.62857,0.685714 1.82857,0.685714 2,0 3.48571,-0.4 1.54286,-0.457143 2.74286,-1.142857 1.2,-0.685714 2.11428,-1.542857 0.97143,-0.914286 1.82858,-1.885715 l 0.91428,0.857143 q -0.34286,1.2 -1.71428,2.457143 -1.31429,1.2 -3.08572,2.114286 -1.77143,0.914286 -3.77143,1.371427 -1.94285,0.45714 -3.6,0.0571 -2.22857,-0.514281 -3.37143,-1.999996 Q 317.61719,96.8 317.61719,94.8 q 0,-1.828571 0.8,-3.6 0.8,-1.771429 2.11428,-3.142857 1.31429,-1.428572 3.02857,-2.285714 1.77143,-0.857143 3.65715,-0.857143 z m -5.02857,6.571428 q 0.57142,-0.114285 1.71428,-0.4 Q 325.04576,90.8 326.13147,90.4 q 1.14286,-0.457143 2,-1.085714 0.85715,-0.628572 0.85715,-1.428572 0,-0.285714 -0.22858,-0.571428 -0.22857,-0.342857 -0.45714,-0.514286 -0.8,0.114286 -1.71428,0.628571 -0.85715,0.457143 -1.71429,1.2 -0.85714,0.685715 -1.6,1.485715 -0.68571,0.742857 -1.08571,1.371428 z" />
      <path
         id="path44"
         style="font-family:Rathury"
         d="m 345.42299,84.628571 q 0.68572,0 1.2,0.4 0.51429,0.4 0.51429,1.2 0,0.857143 -0.28572,2.628572 -0.22857,1.714286 -0.4,3.6 -0.11428,1.828571 0,3.428571 0.17143,1.6 0.97143,2.114286 0.68572,0.457143 1.54286,-0.228571 0.85714,-0.685715 1.6,-1.6 0.8,-0.971429 1.37143,-1.828572 0.62857,-0.914286 0.91428,-0.914286 0.4,0 0.62857,0.285715 Q 353.76585,94 353.76585,94.4 q -0.45714,0.685714 -1.25714,1.657143 -0.74286,0.971428 -1.65715,1.828571 -0.91428,0.857143 -1.88571,1.485715 Q 347.99442,100 347.13728,100 q -0.8,0 -1.6,-0.4 -0.8,-0.4 -1.2,-1.2 -1.31429,0.8 -2.85715,1.371429 -1.54285,0.514281 -3.14285,0.514281 -2.62857,0 -4.11429,-1.314281 Q 332.73728,97.6 332.73728,94.8 q 0,-1.828571 0.8,-3.6 0.85714,-1.771429 2.22857,-3.142857 1.37143,-1.428572 3.08571,-2.285714 1.77143,-0.857143 3.6,-0.857143 0.8,0 1.77143,0.285714 0.17143,-0.285714 0.51429,-0.4 0.34285,-0.171429 0.68571,-0.171429 z m -7.2,13.885715 q 1.48572,0 2.91429,-0.571429 1.42857,-0.571428 2.62857,-1.257143 -0.17143,-0.628571 -0.28572,-1.257143 -0.11428,-0.685714 -0.11428,-1.314285 0,-1.828572 0.0571,-3.542857 0.0571,-1.714286 0.34286,-3.542858 l -0.62857,-0.114285 q -1.31429,0.285714 -2.57143,1.257143 -1.25714,0.914285 -2.28572,2.171428 -0.97142,1.257143 -1.6,2.742857 -0.62857,1.428572 -0.62857,2.8 0,0.971429 0.57143,1.828572 0.57143,0.8 1.6,0.8 z" />
    </g>
  </g>
</svg>
