<?xml version="1.0" encoding="UTF-8" standalone="no"?>
<svg
   xmlns:dc="http://purl.org/dc/elements/1.1/"
   xmlns:cc="http://creativecommons.org/ns#"
   xmlns:rdf="http://www.w3.org/1999/02/22-rdf-syntax-ns#"
   xmlns:svg="http://www.w3.org/2000/svg"
   xmlns="http://www.w3.org/2000/svg"
   id="svg10"
   width="500px"
   version="1.1"
   height="200px">
  <metadata
     id="metadata14">
    <rdf:RDF>
      <cc:Work
         rdf:about="">
        <dc:format>image/svg+xml</dc:format>
        <dc:type
           rdf:resource="http://purl.org/dc/dcmitype/StillImage" />
      </cc:Work>
    </rdf:RDF>
  </metadata>
  <defs
     id="defs4">
    <style
       id="style2"
       type="text/css"><![CDATA[    
     @font-face {font-family:Resolve;
     src: url('/Users/francesco/Repos/write-logos/src/fonts//Resolve.ttf');}]]></style>
  </defs>
  <g
     id="g8"
     style="font-size:30px;font-family:Resolve">
    <g
       style=""
       id="text6"
       aria-label="eXtemporanea">
      <path
         id="path16"
         style=""
         d="m 105.04,87.46 q 1.02,0 1.92,0.42 0.93,0.39 1.62,1.08 0.69,0.66 1.08,1.59 0.39,0.93 0.39,1.95 v 1.23 h -6.06 v 4.44 q 0,0.42 0.3,0.75 0.33,0.3 0.75,0.3 0.42,0 0.72,-0.3 0.33,-0.33 0.33,-0.75 v -2.61 q 0.57,-0.6 1.32,-0.72 0.78,-0.12 1.38,0.15 0.63,0.27 0.87,0.9 0.27,0.6 -0.21,1.47 -0.66,1.17 -1.83,1.92 -1.14,0.72 -2.58,0.72 -1.05,0 -1.98,-0.39 -0.9,-0.39 -1.59,-1.08 -0.66,-0.69 -1.08,-1.59 Q 100,96.01 100,94.96 V 92.5 q 0,-1.02 0.39,-1.95 0.42,-0.93 1.08,-1.59 0.69,-0.69 1.59,-1.08 0.93,-0.42 1.98,-0.42 z m 1.05,5.49 v -3.66 q 0,-0.42 -0.33,-0.72 -0.3,-0.33 -0.72,-0.33 -0.42,0 -0.75,0.33 -0.3,0.3 -0.3,0.72 v 3.66 z" />
      <path
         id="path18"
         style=""
         d="m 119.82156,100 v -0.81 h 0.96 l -2.79,-5.88 -3.69,5.88 h 1.05 V 100 h -3.75 v -0.81 h 1.35 l 4.44,-7.11 -4.5,-9.45 h -1.29 v -0.81 h 6.39 v 0.81 h -1.14 l 2.79,5.85 3.66,-5.85 h -0.84 v -0.81 h 3.75 v 0.81 h -1.56 l -4.44,7.08 4.53,9.48 h 1.47 V 100 Z" />
      <path
         id="path20"
         style=""
         d="m 133.05344,87.43 h 2.61 v 0.78 h -2.61 v 7.56 q 0,1.53 0.21,2.34 0.24,0.81 1.08,1.05 v 0.78 q -1.98,0 -3.06,-0.18 -1.05,-0.21 -1.56,-0.66 -0.48,-0.45 -0.57,-1.23 -0.06,-0.78 -0.06,-1.95 v -7.71 h -1.32 v -0.78 h 1.32 V 82.6 h -1.32 v -0.78 h 5.28 z" />
      <path
         id="path22"
         style=""
         d="m 140.72359,87.46 q 1.02,0 1.92,0.42 0.93,0.39 1.62,1.08 0.69,0.66 1.08,1.59 0.39,0.93 0.39,1.95 v 1.23 h -6.06 v 4.44 q 0,0.42 0.3,0.75 0.33,0.3 0.75,0.3 0.42,0 0.72,-0.3 0.33,-0.33 0.33,-0.75 v -2.61 q 0.57,-0.6 1.32,-0.72 0.78,-0.12 1.38,0.15 0.63,0.27 0.87,0.9 0.27,0.6 -0.21,1.47 -0.66,1.17 -1.83,1.92 -1.14,0.72 -2.58,0.72 -1.05,0 -1.98,-0.39 -0.9,-0.39 -1.59,-1.08 -0.66,-0.69 -1.08,-1.59 -0.39,-0.93 -0.39,-1.98 V 92.5 q 0,-1.02 0.39,-1.95 0.42,-0.93 1.08,-1.59 0.69,-0.69 1.59,-1.08 0.93,-0.42 1.98,-0.42 z m 1.05,5.49 v -3.66 q 0,-0.42 -0.33,-0.72 -0.3,-0.33 -0.72,-0.33 -0.42,0 -0.75,0.33 -0.3,0.3 -0.3,0.72 v 3.66 z" />
      <path
         id="path24"
         style=""
         d="m 159.87203,92.5 -0.03,6.69 h 1.32 V 100 h -6.57 v -0.81 h 1.29 v -8.22 q 0,-1.47 -0.57,-1.95 -0.54,-0.48 -1.26,-0.24 -0.69,0.21 -1.35,1.02 -0.66,0.81 -0.84,1.98 v 7.44 h 1.32 V 100 h -6.57 v -0.81 h 1.29 V 91.6 q 0,-1.53 -0.21,-2.34 -0.21,-0.81 -1.08,-1.05 v -0.78 q 1.53,0 2.49,0.12 0.96,0.09 1.53,0.36 0.6,0.27 0.84,0.69 0.24,0.42 0.33,1.05 0.57,-1.11 1.62,-1.65 1.05,-0.54 2.19,-0.48 1.14,0.03 2.19,0.69 1.05,0.63 1.59,1.89 0.57,-1.11 1.41,-1.74 0.87,-0.63 1.8,-0.81 0.93,-0.18 1.86,0.06 0.96,0.24 1.71,0.9 0.75,0.63 1.2,1.65 0.48,1.02 0.48,2.4 0,1.68 -0.03,3.36 0,1.65 0,3.36 h 1.29 v 0.78 h -2.76 q -1.44,0 -1.98,-0.69 -0.51,-0.72 -0.51,-1.92 v -6.42 q 0,-1.56 -0.63,-1.98 -0.6,-0.45 -1.35,-0.09 -0.75,0.36 -1.38,1.35 -0.6,0.96 -0.63,2.19 z" />
      <path
         id="path26"
         style=""
         d="m 169.28781,105.55 v -0.78 h 1.29 V 88.21 h -1.29 v -0.78 h 7.77 0.48 q 0.93,0.06 1.74,0.51 0.84,0.42 1.44,1.11 0.6,0.66 0.93,1.56 0.36,0.87 0.36,1.83 v 2.49 q 0,1.95 -0.87,3.12 -0.84,1.17 -2.04,1.62 -1.2,0.45 -2.46,0.18 -1.26,-0.27 -2.1,-1.23 v 6.15 h 1.32 v 0.78 z m 5.25,-8.43 q 0.42,0.75 1.02,1.2 0.6,0.45 1.14,0.45 0.54,-0.03 0.93,-0.57 0.39,-0.54 0.39,-1.74 v -7.23 q 0,-0.39 -0.27,-0.66 -0.24,-0.3 -0.66,-0.36 h -2.55 z" />
      <path
         id="path28"
         style=""
         d="m 189.03344,87.43 q 1.05,0 1.95,0.39 0.93,0.39 1.62,1.08 0.69,0.69 1.08,1.62 0.39,0.9 0.39,1.92 v 2.49 q 0,1.05 -0.39,1.95 -0.39,0.9 -1.08,1.59 -0.69,0.69 -1.62,1.08 -0.9,0.39 -1.95,0.39 -1.05,0 -1.95,-0.39 -0.9,-0.39 -1.59,-1.08 -0.69,-0.69 -1.08,-1.59 -0.39,-0.9 -0.39,-1.95 v -2.49 q 0,-1.02 0.39,-1.92 0.39,-0.93 1.08,-1.62 0.69,-0.69 1.59,-1.08 0.9,-0.39 1.95,-0.39 z m 0,0.78 q -0.42,0 -0.72,0.3 -0.3,0.3 -0.3,0.72 v 8.88 q 0,0.42 0.3,0.75 0.3,0.3 0.72,0.3 0.45,0 0.75,-0.3 0.3,-0.33 0.3,-0.75 v -8.88 q 0,-0.42 -0.3,-0.72 -0.3,-0.3 -0.75,-0.3 z" />
      <path
         id="path30"
         style=""
         d="m 195.74312,99.16 v -7.62 q 0,-1.53 -0.24,-2.34 -0.21,-0.81 -1.05,-1.05 v -0.78 q 1.38,0 2.31,0.09 0.93,0.09 1.5,0.3 0.6,0.21 0.9,0.57 0.3,0.33 0.42,0.84 0.51,-0.81 1.32,-1.26 0.84,-0.48 2.16001,-0.48 1.37999,0 2.30999,0.69 0.93,0.66 1.29,1.92 0.24,0.96 -0.06,1.59 -0.27,0.63 -0.84,0.9 -0.54,0.24 -1.23,0.09 -0.69,-0.18 -1.26,-0.78 v -2.61 q 0,-0.42 -0.3,-0.72 -0.3,-0.3 -0.72,-0.3 -0.42,0 -0.87,0.27 -0.45,0.27 -0.84,0.87 -0.36,0.6 -0.6,1.56 -0.24,0.96 -0.24,2.31 v 5.94 h 1.32 v 0.78 h -5.28 -1.29 v -0.78 z" />
      <path
         id="path32"
         style=""
         d="m 212.8225,100 q -0.96,0 -1.86,-0.18 -0.9,-0.21 -1.59,-0.66 -0.69,-0.45 -1.14,-1.2 -0.42,-0.75 -0.42,-1.83 0,-0.96 0.45,-1.56 0.45,-0.6 1.11,-0.96 0.69,-0.36 1.47,-0.57 0.78,-0.24 1.44,-0.45 0.69,-0.24 1.14,-0.57 0.45,-0.36 0.45,-0.96 v -1.77 q 0,-0.42 -0.3,-0.72 -0.3,-0.33 -0.75,-0.33 -0.42,0 -0.72,0.33 -0.3,0.3 -0.3,0.72 v 2.61 q -0.57,0.6 -1.35,0.72 -0.78,0.12 -1.38,-0.15 -0.6,-0.27 -0.87,-0.87 -0.27,-0.63 0.21,-1.5 0.66,-1.2 1.8,-1.92 1.17,-0.72 2.61,-0.72 1.05,0 1.95,0.42 0.93,0.39 1.62,1.08 0.69,0.66 1.08,1.59 0.39,0.93 0.39,1.95 v 6.66 h 1.29 v 0.81 h -3.27 q -0.33,0 -0.63,-0.09 -0.27,-0.12 -0.51,-0.27 -0.81,0.39 -1.92,0.39 z m -1.02,-4.65 v 2.82 q 0,0.42 0.3,0.75 0.3,0.3 0.72,0.3 0.45,0 0.75,-0.3 0.3,-0.33 0.3,-0.75 v -5.52 q -0.39,0.42 -0.78,0.66 -0.36,0.24 -0.66,0.51 -0.27,0.24 -0.45,0.6 -0.18,0.33 -0.18,0.93 z" />
      <path
         id="path34"
         style=""
         d="M 221.55437,99.19 V 91.6 q 0,-1.53 -0.24,-2.34 -0.21,-0.81 -1.05,-1.05 v -0.78 q 1.44,0 2.4,0.12 0.96,0.09 1.53,0.33 0.57,0.21 0.84,0.6 0.3,0.39 0.39,0.96 0.93,-1.29 2.28,-1.71 1.38,-0.45 2.67,-0.03 1.29,0.39 2.19,1.62 0.93,1.23 0.93,3.24 0,1.68 -0.03,3.36 0,1.65 0,3.36 h 1.32 v 0.78 h -2.76 q -1.44,0 -1.98,-0.69 -0.54,-0.72 -0.54,-1.92 v -6.42 q 0,-0.99 -0.27,-1.5 -0.27,-0.54 -0.69,-0.69 -0.42,-0.15 -0.9,0.06 -0.48,0.21 -0.93,0.69 -0.45,0.45 -0.78,1.14 -0.3,0.66 -0.39,1.47 v 7.02 h 1.29 V 100 h -6.57 v -0.81 z" />
      <path
         id="path36"
         style=""
         d="m 240.80172,87.46 q 1.02,0 1.92,0.42 0.93,0.39 1.62,1.08 0.69,0.66 1.08,1.59 0.39,0.93 0.39,1.95 v 1.23 h -6.06 v 4.44 q 0,0.42 0.3,0.75 0.33,0.3 0.75,0.3 0.42,0 0.72,-0.3 0.33,-0.33 0.33,-0.75 v -2.61 q 0.57,-0.6 1.32,-0.72 0.78,-0.12 1.38,0.15 0.63,0.27 0.87,0.9 0.27,0.6 -0.21,1.47 -0.66,1.17 -1.83,1.92 -1.14,0.72 -2.58,0.72 -1.05,0 -1.98,-0.39 -0.9,-0.39 -1.59,-1.08 -0.66,-0.69 -1.08,-1.59 -0.39,-0.93 -0.39,-1.98 V 92.5 q 0,-1.02 0.39,-1.95 0.42,-0.93 1.08,-1.59 0.69,-0.69 1.59,-1.08 0.93,-0.42 1.98,-0.42 z m 1.05,5.49 v -3.66 q 0,-0.42 -0.33,-0.72 -0.3,-0.33 -0.72,-0.33 -0.42,0 -0.75,0.33 -0.3,0.3 -0.3,0.72 v 3.66 z" />
      <path
         id="path38"
         style=""
         d="m 251.96312,100 q -0.96,0 -1.86,-0.18 -0.9,-0.21 -1.59,-0.66 -0.69,-0.45 -1.14,-1.2 -0.42,-0.75 -0.42,-1.83 0,-0.96 0.45,-1.56 0.45,-0.6 1.11,-0.96 0.69,-0.36 1.47,-0.57 0.78,-0.24 1.44,-0.45 0.69,-0.24 1.14001,-0.57 0.44999,-0.36 0.44999,-0.96 v -1.77 q 0,-0.42 -0.3,-0.72 -0.3,-0.33 -0.75,-0.33 -0.42,0 -0.72,0.33 -0.3,0.3 -0.3,0.72 v 2.61 q -0.57,0.6 -1.35,0.72 -0.77999,0.12 -1.38,-0.15 -0.6,-0.27 -0.87,-0.87 -0.27,-0.63 0.21,-1.5 0.66,-1.2 1.8,-1.92 1.17,-0.72 2.61,-0.72 1.05,0 1.95,0.42 0.93,0.39 1.62,1.08 0.69,0.66 1.08001,1.59 0.38999,0.93 0.38999,1.95 v 6.66 h 1.29 v 0.81 h -3.27 q -0.33,0 -0.63,-0.09 -0.27,-0.12 -0.51,-0.27 -0.81,0.39 -1.92,0.39 z m -1.02,-4.65 v 2.82 q 0,0.42 0.3,0.75 0.3,0.3 0.72,0.3 0.45,0 0.75,-0.3 0.3,-0.33 0.3,-0.75 v -5.52 q -0.39,0.42 -0.78,0.66 -0.36,0.24 -0.66,0.51 -0.27,0.24 -0.45,0.6 -0.18,0.33 -0.18,0.93 z" />
    </g>
  </g>
</svg>
