<?xml version="1.0" encoding="UTF-8" standalone="no"?>
<svg
   xmlns:dc="http://purl.org/dc/elements/1.1/"
   xmlns:cc="http://creativecommons.org/ns#"
   xmlns:rdf="http://www.w3.org/1999/02/22-rdf-syntax-ns#"
   xmlns:svg="http://www.w3.org/2000/svg"
   xmlns="http://www.w3.org/2000/svg"
   id="svg16"
   width="800px"
   version="1.1"
   height="200px">
  <metadata
     id="metadata20">
    <rdf:RDF>
      <cc:Work
         rdf:about="">
        <dc:format>image/svg+xml</dc:format>
        <dc:type
           rdf:resource="http://purl.org/dc/dcmitype/StillImage" />
      </cc:Work>
    </rdf:RDF>
  </metadata>
  <defs
     id="defs4">
    <style
       id="style2"
       type="text/css"><![CDATA[    
     @font-face {font-family:Retro Elite;
     src: url('/Users/francesco/Repos/write-logos/src/fonts/RetroElite.ttf');}
     @font-face {font-family:mahelisa;
     src: url('/Users/francesco/Repos/write-logos/src/fonts/mahelisa.ttf');}
     ]]></style>
  </defs>
  <g
     id="g14"
     style="font-size:60px">
    <g
       style="text-anchor:middle"
       id="text12"
       aria-label="eXtemporanea">
      <path
         id="path22"
         style="font-family:'Retro Elite'"
         d="m 147.07937,99.52 -40.56,0.48 -0.42,-47.04 40.08,-0.96 0.24,15.84 -15.66,-13.98 h -0.42 v 16.08 l 0.42,0.48 q 1.26,-1.08 3.3,-3.36 2.04,-2.34 3.24,-3.42 l 0.48001,17.52 -7.02001,-6.54 -0.42,0.48 q 0.24,3.24 0.18,11.52 0,7.32 0.48,11.52 3.06,-3 7.86,-8.76 5.46,-6.48 7.74,-8.94 z m -4.2,-36.36 v -9.54 h -2.04 q 0.12,0.6 0.12,1.32 0,0.66 -0.18,2.1 -0.12,1.44 -0.12,2.1 0,3.06 2.22,4.02 z m -6.96,-6.48 q 0.06,-1.08 -0.24,-3.06 h -2.82 q 0.12,0.78 1.26,1.62 0.9,0.72 1.8,1.44 z m -1.86,18.84 V 69.7 q -0.77999,0.24 -1.56,1.08 -0.77999,0.78 -1.5,1.5 0.54,1.44 3.06,3.24 z m 9.78001,22.38 -0.48001,-11.64 q -2.16,1.5 -2.16,4.44 0,0.84 0.24,2.76 0.24,1.92 0.24,2.88 0,0.96 -0.18,1.8 1.92,0.84 2.34001,-0.24 z m -21.66001,0 -0.95999,-44.04 q -0.18,0 -2.88,0 -1.8,0 -2.7,0.48 l 0.95999,44.28 h 5.34 q 0,-0.6 0.24,-0.72 z m 14.64,0.24 v -3.72 q -0.96,0.36 -2.04,1.62 -1.55999,1.98 -1.68,2.1 0.84,0.3 1.86,0.3 1.08,0 1.86,-0.3 z m -25.14,0.48 -0.95999,-44.52 q -0.6,-0.06 -1.62001,0.24 l 0.72,44.28 z m 8.40001,-39.6 q -0.18,0.48 -0.42001,1.02 -0.23999,0.48 -0.78,0.6 -1.08,0.24 -1.86,-0.72 -0.12,-2.04 0.96001,-2.34 0.72,-0.18 1.31999,0.3 0.66,0.42 0.78001,1.14 z m 0,7.2 q -0.42001,1.68 -1.44,1.62 -1.26001,-0.06 -1.38,-1.38 0,-1.38 1.5,-1.38 1.14,0 1.32,1.14 z m -0.24,5.82 q 0,1.14 -0.72,1.2 -0.78,0.06 -1.14,-0.48 -0.24001,-1.32 0.66,-1.38 0.12,0.18 0.65999,0.24 0.54001,0 0.54001,0.42 z" />
      <path
         id="path24"
         style="font-family:mahelisa"
         d="m 165.30273,99.824219 q -3.51562,-0.966797 -6.67968,-7.207032 -0.58594,-1.171875 -1.25977,-2.783203 -0.67383,-1.611328 -1.08398,-2.783203 -0.0879,-0.292969 -0.17578,-0.498047 -0.0879,-0.234375 -0.11719,-0.234375 -0.0293,0 -0.52735,0.908203 -0.49804,0.878907 -1.20117,2.226563 -2.63672,4.980469 -3.83789,7.060547 -1.20117,2.050781 -1.52344,2.050781 -0.14648,0.0293 -0.26367,0.0293 -0.11719,0 -0.20508,-0.0293 -0.17578,-0.05859 -0.20507,-0.205078 v -0.0293 q 0,-0.615234 4.89257,-9.462891 0.9961,-1.757812 1.64063,-2.988281 0.67383,-1.259765 0.67383,-1.318359 0,-0.05859 -0.0879,-0.410156 -0.0879,-0.351563 -0.20508,-0.820313 -1.31836,-4.658203 -1.99219,-9.345703 -0.43945,-3.105469 -0.58594,-5.742188 -0.14648,-2.666015 -0.14648,-4.072265 0,-1.025391 0.0586,-1.78711 0.0586,-0.996093 0.23438,-1.435546 0.17578,-0.439454 0.49804,-0.585938 0.70313,-0.292969 1.46485,-0.292969 h 0.26367 q 0.9375,0.08789 1.46484,0.527344 0.35157,0.263672 0.58594,1.40625 0.26367,1.142578 0.61524,3.925781 0.29296,2.460938 0.61523,5.009766 0.35156,2.548828 0.61523,4.394531 0.26368,1.845703 0.35157,2.226563 0.0293,0.08789 0.0586,0.117187 l 0.0293,0.0293 h 0.0293 q 0.11719,-0.146484 1.23047,-2.167969 1.14258,-2.021484 2.75391,-4.980468 1.64062,-2.958985 3.22266,-5.888672 0.82031,-1.494141 1.55273,-2.871094 0.76172,-1.376953 1.11328,-1.992188 0.29297,-0.55664 0.49805,-0.996093 0.23437,-0.439453 0.26367,-0.527344 0.0586,-0.175781 0.23438,-0.234375 0.17578,-0.05859 0.35156,-0.05859 h 0.14648 q 0.23438,0.05859 0.23438,0.205078 0,0.08789 -0.11719,0.205078 -0.0586,0.08789 -0.32227,0.556641 -0.23437,0.439453 -0.55664,1.025391 -0.35156,0.673828 -1.23047,2.285156 -0.8496,1.611328 -1.8164,3.427734 -3.69141,6.855469 -6.35742,11.923828 -0.38086,0.732422 -0.67383,1.31836 -0.26367,0.585937 -0.26367,0.673828 0,0.146484 0.17578,1.083984 0.20508,0.908203 0.43945,2.080078 0.26367,1.171875 0.49805,2.109375 1.34765,5.507813 3.01758,9.28711 1.69921,3.779297 3.19336,4.628906 0.11718,0.05859 0.14648,0.05859 0.0586,0 0.0879,0 0.0586,0 0.14648,-0.0293 0.11719,-0.0293 0.32227,-0.146484 0.46875,-0.234375 1.05469,-0.820313 0.61523,-0.585937 0.99609,-1.201172 1.69922,-2.43164 3.31055,-10.488281 0.23437,-1.259766 0.43945,-2.167969 0.20508,-0.908203 0.26367,-1.054687 0.11719,-0.263672 0.29297,-0.322266 0.17578,-0.08789 0.26367,-0.08789 0.11719,0 0.20508,0.05859 0.17578,0.08789 0.17578,0.351563 0,0.146484 -0.0586,0.732422 -0.0586,0.585937 -0.17578,1.318359 -0.0879,0.703125 -0.20508,1.347656 -0.14648,0.820313 -0.55664,2.548828 -0.41016,1.699219 -0.84961,3.427735 -0.43945,1.699218 -0.70312,2.519531 -1.34766,4.130859 -3.72071,4.921875 -0.61523,0.205078 -1.11328,0.205078 -0.49805,0 -0.61523,0 -0.73243,0 -1.28907,-0.146484 z" />
      <path
         id="path26"
         style="font-family:'Retro Elite'"
         d="m 223.87094,73.96 q -7.98,-12.6 -12.54,-19.14 l -0.48,0.48 0.48,44.46 -24.6,0.24 -0.72,-43.98 -0.48,-0.48 -11.58,18.72 -0.24,-21.78 49.92,-0.48 z m -3.78,-8.52 V 53.92 q -0.42,-0.3 -1.08,-0.3 -0.66,0 -1.08,0.3 0.12,0.72 0.12,1.62 0,0.84 -0.12,2.46 -0.12,1.62 -0.12,2.4 0,3.54 2.28,5.04 z m -17.28,32.64 -0.72,-43.5 -0.48,-0.66 q -1.74,-0.12 -4.98,0.18 l 0.96,44.28 z m -23.88,-43.98 h -1.68 q -0.6,7.92 0.24,11.64 1.74,-1.74 1.74,-5.28 0,-0.96 -0.18,-3.24 -0.18,-2.1 -0.12,-3.12 z m 13.44,44.28 -0.96,-44.28 q -0.06,0.06 -1.2,0 -0.78,0 -0.9,0.48 l 0.96,43.8 z m 8.28,-40.02 q 0.36,1.8 -1.2,2.4 -1.44,-0.06 -1.86,-1.68 0.36,-1.68 1.44,-1.68 0.6,0.18 1.62,0.96 z m 0,7.08 q 0.18,1.26 -0.72,1.92 -0.24,0.12 -0.48,0.12 -1.5,0 -1.62,-1.56 -0.06,-1.2 1.32,-1.2 1.08,0 1.5,0.72 z m -0.24,7.14 q -0.18,1.26 -1.38,0.9 -0.54,-0.42 -0.54,-0.9 0,-0.48 0.54,-0.96 0.12,-0.06 0.3,-0.06 0.66,0 1.08,1.02 z" />
      <path
         id="path28"
         style="font-family:'Retro Elite'"
         d="m 267.66531,99.52 -40.56,0.48 -0.42,-47.04 40.08,-0.96 0.24,15.84 -15.66,-13.98 h -0.42 v 16.08 l 0.42,0.48 q 1.26,-1.08 3.3,-3.36 2.04,-2.34 3.24,-3.42 l 0.48,17.52 -7.02,-6.54 -0.42,0.48 q 0.24,3.24 0.18,11.52 0,7.32 0.48,11.52 3.06,-3 7.86,-8.76 5.46,-6.48 7.74,-8.94 z m -4.2,-36.36 v -9.54 h -2.04 q 0.12,0.6 0.12,1.32 0,0.66 -0.18,2.1 -0.12,1.44 -0.12,2.1 0,3.06 2.22,4.02 z m -6.96,-6.48 q 0.06,-1.08 -0.24,-3.06 h -2.82 q 0.12,0.78 1.26,1.62 0.9,0.72 1.8,1.44 z m -1.86,18.84 V 69.7 q -0.78,0.24 -1.56,1.08 -0.78,0.78 -1.5,1.5 0.54,1.44 3.06,3.24 z m 9.78,22.38 -0.48,-11.64 q -2.16,1.5 -2.16,4.44 0,0.84 0.24,2.76 0.24,1.92 0.24,2.88 0,0.96 -0.18,1.8 1.92,0.84 2.34,-0.24 z m -21.66,0 -0.96,-44.04 q -0.18,0 -2.88,0 -1.8,0 -2.7,0.48 l 0.96,44.28 h 5.34 q 0,-0.6 0.24,-0.72 z m 14.64,0.24 v -3.72 q -0.96,0.36 -2.04,1.62 -1.56,1.98 -1.68,2.1 0.84,0.3 1.86,0.3 1.08,0 1.86,-0.3 z m -25.14,0.48 -0.96,-44.52 q -0.6,-0.06 -1.62,0.24 l 0.72,44.28 z m 8.4,-39.6 q -0.18,0.48 -0.42,1.02 -0.24,0.48 -0.78,0.6 -1.08,0.24 -1.86,-0.72 -0.12,-2.04 0.96,-2.34 0.72,-0.18 1.32,0.3 0.66,0.42 0.78,1.14 z m 0,7.2 q -0.42,1.68 -1.44,1.62 -1.26,-0.06 -1.38,-1.38 0,-1.38 1.5,-1.38 1.14,0 1.32,1.14 z m -0.24,5.82 q 0,1.14 -0.72,1.2 -0.78,0.06 -1.14,-0.48 -0.24,-1.32 0.66,-1.38 0.12,0.18 0.66,0.24 0.54,0 0.54,0.42 z" />
      <path
         id="path30"
         style="font-family:'Retro Elite'"
         d="m 326.3875,52.48 -0.48,47.52 -24.12,-0.24 V 64.18 l -0.48,-0.48 -0.48,0.72 -6.78,35.1 -3.96,0.24 -19.02,-44.04 V 67.9 l 13.62,31.86 h -14.76 L 269.6875,52 h 25.74 q 1.08,2.4 2.1,4.8 1.26,2.88 2.4,4.56 l 0.48,-0.48 q 0.06,-1.56 0.78,-4.44 0.72,-2.88 0.84,-4.44 h 23.88 z m -8.46,45.42 V 54.58 l -0.48,-0.72 h -4.86 l -0.3,38.88 0.48,5.4 z m -10.5,0 V 53.86 h -1.86 V 97.9 Z m -10.32,-22.74 -9.18,-21.3 q -0.48,0.12 -1.02,0.12 -0.6,0 -1.68,-0.18 -1.08,-0.18 -1.56,-0.18 -0.9,0 -1.56,0.48 l 12.66,29.76 0.66,0.66 q 0.54,-1.74 0.96,-4.62 0.66,-4.5 0.72,-4.74 z m -3.54,18.78 -16.62,-38.88 q -0.06,-1.44 -1.68,-1.44 -0.6,0 -0.9,0.48 l 18.3,42.9 h 0.42 z m -19.2,3.96 q -0.12,-2.34 0.12,-6.6 0.24,-4.98 0.24,-6.72 0,-8.88 -3.66,-13.38 l 0.3,26.7 z m 7.26,0 q 0.24,-1.74 -0.6,-3.72 -0.06,0 -1.74,-3.06 l 0.24,6.78 z m 6.6,-40.5 -0.3,1.86 q -0.54,0.24 -1.2,0.24 -1.62,0 -1.56,-1.38 0.06,-0.12 0.3,-0.9 0.12,-0.48 0.6,-0.54 0.6,0 1.2,0.06 0.66,0.06 0.96,0.66 z m 3,7.26 q 0.12,1.86 -0.9,2.1 -0.54,-0.12 -1.08,-0.24 -0.54,-0.12 -0.6,-0.72 -0.06,-1.38 0.72,-1.86 1.2,-0.18 1.86,0.72 z m 2.34,7.02 q 0.24,0.96 -0.66,1.14 -1.2,0.24 -1.2,-1.02 0,-0.48 0.24,-0.78 0.24,-0.3 0.66,-0.3 1.14,0 0.96,0.96 z" />
      <path
         id="path32"
         style="font-family:'Retro Elite'"
         d="m 371.57875,75.4 q -4.56,7.14 -15.06,7.14 -1.2,0 -2.46,-0.12 l -0.48,0.48 v 16.86 l -24.12,0.24 -0.24,-48 h 32.1 q 7.32,2.04 10.02,6.06 2.52,3.78 2.52,9 0,4.86 -2.28,8.34 z m -0.9,-1.38 V 60.88 q 0,-2.34 -2.16,-3.48 v 18.96 q 1.86,-1.08 2.16,-2.34 z m -7.26,5.88 q 0.06,-8.64 -0.24,-26.04 l -2.58,-0.48 q -0.78,8.94 -0.24,27.18 1.74,0.18 3.06,-0.66 z m -5.16,0.66 V 53.68 l -4.2,-0.3 v 27.18 z m -13.32,17.76 q -0.06,-1.56 0,-22.32 0,-13.68 -0.48,-22.32 h -4.92 l -0.24,2.52 0.48,42.12 z m -10.56,0.3 V 54.1 q -0.3,-0.48 -0.96,-0.48 -1.08,0 -0.9,0.96 l 0.42,44.04 z m 9.12,-40.74 q 0.18,0.78 -0.9,1.86 -1.92,0.12 -2.16,-0.96 -0.12,-2.16 1.38,-2.16 1.14,0 1.68,1.26 z m 0,7.68 q -0.36,1.26 -1.02,1.26 -0.18,0 -0.36,-0.06 -0.18,0.06 -0.36,0.06 -0.84,0 -1.08,-1.26 -0.24,-1.38 1.26,-1.38 1.62,0 1.56,1.38 z m -0.66,6.84 q -0.18,0.24 -0.6,0.24 -0.66,-0.06 -0.6,-0.06 -0.18,-0.3 -0.42,-0.66 -0.18,-0.36 -0.06,-0.72 0.36,-0.48 0.84,-0.48 1.02,0 1.02,1.02 0,0.36 -0.18,0.66 z" />
      <path
         id="path34"
         style="font-family:'Retro Elite'"
         d="m 420.37375,87.94 q -3.3,5.82 -8.82,9 -5.46,3.12 -12,3.12 -1.86,0 -3.72,-0.3 -6.6,-0.9 -12.06,-6.06 -5.4,-5.16 -6.9,-11.76 -0.72,-3 -0.72,-5.94 0,-12.18 10.26,-19.74 5.88,-4.26 13.86,-4.26 5.16,0 9.18,2.04 6,2.46 10.44,9.12 3.48,5.22 3.48,12.6 0,6.9 -3,12.18 z m 0.42,-19.38 -1.56,-3.18 v 20.34 h 0.48 q 1.44,-2.94 1.44,-7.92 0,-1.56 -0.18,-4.68 -0.18,-3.12 -0.18,-4.56 z m -6.24,24.06 -0.42,-33.66 q -1.98,-1.8 -4.26,-2.94 l -0.42,0.72 0.9,39 q 3.12,-1.68 4.2,-3.12 z m -12.24,5.64 -0.72,-44.46 -3.12,-0.18 q -0.06,0.18 -0.36,0.24 -0.3,0 -0.54,0.06 -0.24,0 -0.18,0.3 l 0.9,44.22 q 2.1,0.66 4.02,-0.18 z m -12.06,-2.28 -0.72,-39.72 q -2.88,0.66 -4.62,3.36 l 0.42,30.78 0.42,3.36 q 0,0 2.16,1.56 1.32,0.9 2.34,0.66 z m -9.6,-8.88 -0.48,-21.72 q -1.86,2.88 -1.86,8.1 0,1.44 0.18,4.86 0.18,3.12 0.12,4.74 0.72,2.88 2.04,4.02 z m 8.46,-27.72 q 0.12,1.32 -1.08,1.8 -0.84,0.18 -1.8,-0.9 -0.12,-1.92 0.9,-2.22 0.6,0.18 1.26,0.3 0.72,0.3 0.72,1.02 z m -0.42,6.48 -0.24,1.56 q -0.3,0.24 -0.72,0.24 -0.78,0 -1.5,-0.66 -0.12,-1.32 0.66,-1.8 1.26,-0.12 1.8,0.66 z m -0.24,5.82 q 0,0.42 -0.06,0.9 -0.06,0.42 -0.6,0.42 -0.78,0.12 -1.14,-0.42 0,-1.14 0.48,-1.38 0.36,0 0.72,0.06 0.42,0.06 0.6,0.42 z" />
      <path
         id="path36"
         style="font-family:'Retro Elite'"
         d="m 473.48125,99.76 -17.88,0.24 -0.42,-16.2 q -3.54,-0.66 -5.22,0.24 l 0.24,15.96 h -23.28 q -0.36,-11.82 -0.72,-23.7 -0.42,-14.58 -0.42,-23.76 8.1,-0.18 16.14,-0.42 9.72,-0.18 16.08,-0.06 7.8,2.04 10.56,7.74 2.1,3.18 2.1,7.68 0,4.56 -2.1,8.1 -3.84,6.48 -10.32,7.5 l -0.72,0.72 z m -6.3,-38.76 q -0.54,-1.98 -2.4,-3.06 l 0.48,19.02 q 2.16,-2.04 2.16,-6 0,-1.2 -0.24,-3.72 -0.24,-2.52 -0.24,-3.78 0,-1.38 0.24,-2.46 z m -7.32,19.98 q 0,0 0,-13.38 0.06,-8.16 -0.48,-13.2 -1.44,-0.9 -3.06,-0.72 -0.24,4.14 -0.24,8.76 0,6.9 0.72,19.2 1.08,-0.12 3.06,-0.66 z m -4.92,0.66 -0.72,-27.96 h -4.26 q -0.24,4.08 -0.24,8.64 0,6.72 0.72,19.62 1.56,0.06 4.5,-0.3 z m 12.9,16.5 q 0.18,-0.42 0.18,-0.84 0,-0.9 -0.9,-1.8 -0.84,-0.66 -1.62,-1.38 v 4.26 q 0.3,0.24 0.66,0.24 0.3,0 0.84,-0.24 0.6,-0.24 0.84,-0.24 z m -7.74,0.24 q -0.24,-0.78 -0.24,-1.92 0,-0.84 0.18,-2.76 0.24,-1.98 0.24,-2.94 0,-4.14 -3.48,-5.34 -0.12,4.5 0.24,13.14 z m -18.12,-0.24 -1.38,-44.46 q 0,0 -2.82,0 -1.68,-0.06 -2.58,0.48 l 1.14,44.22 0.48,0.48 q -0.12,0 2.76,0 1.74,0.06 2.4,-0.72 z m -9.84,0 q -0.36,-10.98 -0.72,-21.96 -0.48,-13.62 -0.48,-21.78 -0.54,-1.02 -2.1,-0.24 l 1.2,44.22 q 0.12,-0.06 0.36,-0.06 0.18,0 0.54,0.12 0.36,0.12 0.54,0.12 0.36,0 0.66,-0.42 z m 7.26,-39.96 q 0,0.54 0,1.14 -0.06,0.66 -0.72,0.72 -0.3,0.24 -0.66,0.24 -1.02,0 -1.2,-0.96 -0.36,-1.5 0.96,-1.86 0.42,0.06 0.9,0.18 0.54,0.06 0.72,0.54 z m 0,7.98 q -0.18,0.36 -0.36,0.78 -0.18,0.36 -0.54,0.42 -0.54,0.18 -1.44,-0.72 0,-0.48 0,-0.96 0,-0.54 0.48,-0.72 0.3,-0.06 0.48,-0.06 0.48,0 1.38,1.26 z m -0.48,7.02 q -0.54,0.6 -0.9,0.48 -1.02,-0.48 0,-1.62 1.2,0.06 0.9,1.14 z" />
      <path
         id="path38"
         style="font-family:'Retro Elite'"
         d="m 535.9375,100 h -27.06 q -1.86,-3.9 -4.68,-10.8 -3.18,-7.86 -4.5,-10.86 -0.78,-0.78 -2.46,-0.72 -2.7,0 -2.7,0 -0.3,0.48 -0.3,1.02 0,0.72 0.66,2.1 0.72,1.38 0.78,2.04 1.68,3.36 3.78,8.58 3.3,7.98 3.54,8.64 l -27.06,-0.48 q 6.6,-15.9 20.22,-47.52 h 19.32 q 3.96,8.58 10.32,23.94 7.08,17.16 10.14,24.06 z m -10.8,-1.68 q 0,0 -18.84,-45.18 h -6.12 l 0.72,2.16 18.12,43.02 z m -11.58,-0.18 q -5.7,-14.1 -17.58,-42.18 -1.38,0.78 -1.2,2.4 2.58,6.78 8.22,20.04 5.7,13.26 8.22,19.92 0.9,0.12 2.34,-0.18 z m -15.24,-21.9 q -0.72,-2.4 -2.28,-6.06 -1.98,-4.62 -2.46,-5.94 l -0.9,-1.2 -2.4,4.68 q 0.06,1.92 1.26,4.38 1.62,3.54 1.8,4.14 z m -5.16,21.9 v -18.6 l -3.6,-8.52 q -0.66,0.36 -1.14,1.5 -0.48,1.08 -0.96,2.04 l -0.24,22.86 0.48,0.9 z m 6.54,0.18 q 0.12,-0.6 0.12,-1.26 0,-2.34 -1.98,-5.76 v 7.02 z m 6.9,-40.44 q 0,1.44 -1.5,1.68 -0.48,-0.24 -1.38,-0.96 0,-0.48 0,-0.96 0,-0.54 0.48,-0.72 0.18,-0.48 0.84,-0.48 1.56,0 1.56,1.44 z m 2.52,6.6 -0.24,1.62 q -0.36,0.24 -0.78,0.24 -1.14,0 -1.32,-0.96 -0.18,-0.96 0.66,-1.62 0.96,-0.18 1.68,0.72 z m 2.58,7.26 q -0.12,0.3 -0.24,0.66 -0.12,0.3 -0.42,0.3 -0.84,0.12 -1.2,-0.48 -0.06,-0.18 -0.06,-0.3 0,-0.9 1.02,-0.9 0.84,0 0.9,0.72 z" />
      <path
         id="path40"
         style="font-family:'Retro Elite'"
         d="m 585.54437,99.46 q -6.71999,0.18 -13.38,0.42 -7.92,0.18 -13.44,0.06 l -17.58,-42.54 q -0.36,-0.24 -0.48,-0.24 l -0.23999,11.28 13.38,31.26 -14.82001,0.24 0.24,-47.94 h 26.82 l 16.44,39.24 q 0.18,0.3 0.48001,1.32 0.29999,0.96 0.89999,1.26 l 0.24,-11.04 -12.24,-30.54 13.68,-0.24 z m -10.14,-42.96 v -2.34 h -0.9 q 0,1.14 0.9,2.34 z m 6.84,-2.34 h -1.62 q 0.12,1.32 0.12,2.82 0,1.56 -0.24,4.44 -0.17999,2.88 -0.17999,4.26 0,4.32 1.67999,7.02 z m -6.84,43.44 -2.57999,-6.12 -15.72001,-37.62 h -5.39999 l 18.53999,44.22 q 0.72001,0.06 5.16,-0.48 z m -11.04,0.48 V 97.6 L 545.82438,53.68 h -2.34001 v 0.48 l 18.54,43.92 z m -20.88,-0.24 q -0.17999,-1.56 -0.17999,-3.54 0,-1.56 0.12,-4.8 0.17999,-3.3 0.17999,-4.86 0,-7.08 -2.27999,-11.04 l -0.66001,-0.66 v 25.14 q 0.96,0.12 2.82,-0.24 z m 6.78,0.24 q 0.18001,-0.6 0.18001,-1.2 0,-1.26 -0.84001,-2.88 -0.72,-1.26 -1.44,-2.52 l 0.24,6.84 q 0.66001,0.12 1.86,-0.24 z m 7.5,-39.96 q -0.17999,0.54 -0.36,1.2 -0.18,0.6 -0.78,0.66 -0.24,0.06 -0.48,0.06 -1.07999,0 -1.62,-1.2 -0.12,-0.24 -0.12,-0.48 0,-1.08 1.26,-1.68 0.78001,-0.18 1.38,0.3 0.66001,0.42 0.72,1.14 z m 2.82001,6.84 q 0.17999,1.86 -0.9,2.1 -0.24,0.06 -0.42001,0.06 -0.48,0 -1.5,-1.02 -0.17999,-1.14 0.72,-1.86 0.60001,0 1.20001,0 0.66,0.12 0.9,0.72 z m 2.39999,6.54 q 0.12,1.02 -0.72,1.68 -0.12,-0.24 -0.66,-0.24 -0.53999,0 -0.53999,-0.48 -0.06,-0.66 0.12,-1.14 0.17999,-0.54 0.83999,-0.54 0.06,0 0.96,0.72 z" />
      <path
         id="path42"
         style="font-family:'Retro Elite'"
         d="m 629.07156,99.52 -40.56,0.48 -0.42,-47.04 40.08,-0.96 0.24,15.84 -15.66,-13.98 h -0.42 v 16.08 l 0.42,0.48 q 1.26,-1.08 3.3,-3.36 2.04,-2.34 3.24,-3.42 l 0.48,17.52 -7.02,-6.54 -0.42,0.48 q 0.24,3.24 0.18,11.52 0,7.32 0.48,11.52 3.06,-3 7.86,-8.76 5.46,-6.48 7.74,-8.94 z m -4.2,-36.36 v -9.54 h -2.04 q 0.12,0.6 0.12,1.32 0,0.66 -0.18,2.1 -0.12,1.44 -0.12,2.1 0,3.06 2.22,4.02 z m -6.96,-6.48 q 0.06,-1.08 -0.24,-3.06 h -2.82 q 0.12,0.78 1.26,1.62 0.9,0.72 1.8,1.44 z m -1.86,18.84 V 69.7 q -0.78,0.24 -1.56,1.08 -0.78,0.78 -1.5,1.5 0.54,1.44 3.06,3.24 z m 9.78,22.38 -0.48,-11.64 q -2.16,1.5 -2.16,4.44 0,0.84 0.24,2.76 0.24,1.92 0.24,2.88 0,0.96 -0.18,1.8 1.92,0.84 2.34,-0.24 z m -21.66,0 -0.96,-44.04 q -0.18,0 -2.88,0 -1.8,0 -2.7,0.48 l 0.96,44.28 h 5.34 q 0,-0.6 0.24,-0.72 z m 14.64,0.24 v -3.72 q -0.96,0.36 -2.04,1.62 -1.56,1.98 -1.68,2.1 0.84,0.3 1.86,0.3 1.08,0 1.86,-0.3 z m -25.14,0.48 -0.96,-44.52 q -0.6,-0.06 -1.62,0.24 l 0.72,44.28 z m 8.4,-39.6 q -0.18,0.48 -0.42,1.02 -0.24,0.48 -0.78,0.6 -1.08,0.24 -1.86,-0.72 -0.12,-2.04 0.96,-2.34 0.72,-0.18 1.32,0.3 0.66,0.42 0.78,1.14 z m 0,7.2 q -0.42,1.68 -1.44,1.62 -1.26,-0.06 -1.38,-1.38 0,-1.38 1.5,-1.38 1.14,0 1.32,1.14 z m -0.24,5.82 q 0,1.14 -0.72,1.2 -0.78,0.06 -1.14,-0.48 -0.24,-1.32 0.66,-1.38 0.12,0.18 0.66,0.24 0.54,0 0.54,0.42 z" />
      <path
         id="path44"
         style="font-family:'Retro Elite'"
         d="m 691.09375,100 h -27.06 q -1.86,-3.9 -4.68,-10.8 -3.18,-7.86 -4.5,-10.86 -0.78,-0.78 -2.46,-0.72 -2.7,0 -2.7,0 -0.3,0.48 -0.3,1.02 0,0.72 0.66,2.1 0.72,1.38 0.78,2.04 1.68,3.36 3.78,8.58 3.3,7.98 3.54,8.64 l -27.06,-0.48 q 6.6,-15.9 20.22,-47.52 h 19.32 q 3.96,8.58 10.32,23.94 7.08,17.16 10.14,24.06 z m -10.8,-1.68 q 0,0 -18.84,-45.18 h -6.12 l 0.72,2.16 18.12,43.02 z m -11.58,-0.18 q -5.7,-14.1 -17.58,-42.18 -1.38,0.78 -1.2,2.4 2.58,6.78 8.22,20.04 5.7,13.26 8.22,19.92 0.9,0.12 2.34,-0.18 z m -15.24,-21.9 q -0.72,-2.4 -2.28,-6.06 -1.98,-4.62 -2.46,-5.94 l -0.9,-1.2 -2.4,4.68 q 0.06,1.92 1.26,4.38 1.62,3.54 1.8,4.14 z m -5.16,21.9 v -18.6 l -3.6,-8.52 q -0.66,0.36 -1.14,1.5 -0.48,1.08 -0.96,2.04 l -0.24,22.86 0.48,0.9 z m 6.54,0.18 q 0.12,-0.6 0.12,-1.26 0,-2.34 -1.98,-5.76 v 7.02 z m 6.9,-40.44 q 0,1.44 -1.5,1.68 -0.48,-0.24 -1.38,-0.96 0,-0.48 0,-0.96 0,-0.54 0.48,-0.72 0.18,-0.48 0.84,-0.48 1.56,0 1.56,1.44 z m 2.52,6.6 -0.24,1.62 q -0.36,0.24 -0.78,0.24 -1.14,0 -1.32,-0.96 -0.18,-0.96 0.66,-1.62 0.96,-0.18 1.68,0.72 z m 2.58,7.26 q -0.12,0.3 -0.24,0.66 -0.12,0.3 -0.42,0.3 -0.84,0.12 -1.2,-0.48 -0.06,-0.18 -0.06,-0.3 0,-0.9 1.02,-0.9 0.84,0 0.9,0.72 z" />
    </g>
  </g>
</svg>
