<?xml version="1.0" encoding="UTF-8" standalone="no"?>
<svg
   xmlns:dc="http://purl.org/dc/elements/1.1/"
   xmlns:cc="http://creativecommons.org/ns#"
   xmlns:rdf="http://www.w3.org/1999/02/22-rdf-syntax-ns#"
   xmlns:svg="http://www.w3.org/2000/svg"
   xmlns="http://www.w3.org/2000/svg"
   id="svg16"
   width="800px"
   version="1.1"
   height="200px">
  <metadata
     id="metadata20">
    <rdf:RDF>
      <cc:Work
         rdf:about="">
        <dc:format>image/svg+xml</dc:format>
        <dc:type
           rdf:resource="http://purl.org/dc/dcmitype/StillImage" />
      </cc:Work>
    </rdf:RDF>
  </metadata>
  <defs
     id="defs4">
    <style
       id="style2"
       type="text/css"><![CDATA[    
     @font-face {font-family:Ringlet;
     src: url('/Users/francesco/Repos/write-logos/src/fonts/Ringlet.ttf');}
     @font-face {font-family:Colchester;
     src: url('/Users/francesco/Repos/write-logos/src/fonts/Colchester.ttf');}
     ]]></style>
  </defs>
  <g
     id="g14"
     style="font-size:60px">
    <g
       style="text-anchor:middle"
       id="text12"
       aria-label="eXtemporanea">
      <path
         id="path22"
         style="font-family:Ringlet"
         d="m 235.52781,91.36 q -0.18,1.98 -0.9,3.6 -2.64,5.82 -10.02,6.06 -5.4,0.18 -8.88,-4.68 -3.12,-4.38 -3.24,-10.5 -0.12,-6.18 3.24,-10.8 3.66,-4.92 9.24,-4.92 4.92,0 8.1,3.84 3.18,3.84 3.18,9 v 2.46 h -13.14 q -3.54,0 -3.54,2.22 0,0.66 0.42,1.26 0.48,0.54 1.08,0.48 0.36,0 0.66,-0.18 -1.2,-0.54 -0.9,-1.74 0.24,-1.08 1.56,-1.14 0.78,-0.06 1.26,0.66 0.54,0.66 0.54,1.5 0,0.9 -0.84,1.5 -0.78,0.6 -1.68,0.6 -1.14,0 -1.98,-0.9 -0.84,-0.9 -0.84,-2.04 0,-2.94 4.32,-2.94 h 9.9 v -1.26 q 0,-4.02 -2.16,-6.96 -2.4,-3.12 -6,-3.12 -4.08,0 -6.6,3.9 -2.22,3.48 -2.22,8.22 0,4.68 2.34,8.04 2.46,3.6 6.66,3.96 5.1,0.42 8.88,-3.9 0.96,-1.14 1.56,-2.22 z" />
      <path
         id="path24"
         style="font-family:Colchester"
         d="m 270.37375,67.72 q 0,1.44 -1.56,1.44 -1.56,0 -1.56,-1.44 0,-1.38 1.56,-1.38 1.56,0 1.56,1.38 z m -0.6,0 q 0,-0.78 -0.96,-0.78 -0.96,0 -0.96,0.78 0,0.84 0.96,0.84 0.96,0 0.96,-0.84 z m 12.36,-8.82 q -0.24,0.18 -1.32,1.02 -3.6,2.76 -5.76,7.68 -0.72,-0.12 -0.72,-0.54 0,-0.42 1.26,-2.4 -1.74,-0.24 -4.56,-0.24 -6.24,0 -7.44,1.98 1.2,2.28 2.34,5.64 0.84,5.16 0.84,7.56 0,2.04 -0.72,5.1 -0.78,3.3 -1.74,4.74 -0.3,0.3 -1.26,1.62 -0.96,1.32 -0.96,1.5 0,0.48 1.44,1.56 1.5,1.02 2.16,1.2 1.32,0.36 3.42,0.36 3.66,0 5.94,-3.66 2.1,-3.36 2.04,-7.02 0.06,-0.06 0.42,-0.06 l 0.3,0.06 v 14.94 q 0,0.18 -0.3,0.18 -0.12,0 -1.32,-1.2 -1.2,-1.2 -1.38,-1.2 0.48,0 0.54,0.12 0,0.3 -2.46,1.08 -3.72,1.2 -4.86,1.2 -4.8,0 -8.04,-2.58 -0.84,-0.72 -1.74,-1.44 -0.3,0 -3.72,3.96 h -13.74 q 1.92,-1.26 2.82,-1.92 1.5,-1.14 2.4,-2.28 0.06,-0.12 2.4,-3.42 h 0.6 q -0.54,1.14 -1.32,2.34 2.16,0.06 9.6,0.06 -3,-4.44 -3,-9.96 0,-4.5 3.9,-12.24 1.38,-2.76 1.38,-2.52 0,-0.18 -0.54,-0.9 -3.54,-4.62 -7.44,-4.62 -5.64,0 -6.84,7.86 h -0.72 l 0.06,-12.9 h 0.54 q 0.12,0.12 0.72,1.08 0.48,0.72 0.9,0.72 -0.18,0 3.12,-1.68 1.44,-0.54 3.72,-0.54 5.4,0 10.08,6.72 1.14,-1.44 4.98,-6.36 1.74,-0.12 4.56,0 1.68,0.06 4.5,0.06 2.82,0 4.38,-1.02 z m -19.56,24.3 q 0,-2.46 -0.6,-5.76 -0.72,-4.02 -1.74,-5.46 -1.44,4.92 -1.44,9.48 0,6.6 2.34,9.6 1.44,-3.36 1.44,-7.86 z m -5.04,-12.9 q -0.06,0.18 -0.96,2.16 l -1.2,2.58 -0.48,-0.24 0.12,-0.3 q 1.86,-3.48 1.86,-4.2 0,-0.9 -1.68,-2.16 -1.68,-1.26 -2.64,-1.26 -3.66,0 -3.66,3.18 0,0.9 0.9,1.86 0.9,0.96 1.8,0.96 0.72,0 1.32,-0.48 0.6,-0.54 0.6,-1.26 0,-1.62 -1.26,-1.5 l -0.24,0.72 q -0.06,0.54 -0.6,0.54 -0.66,0 -0.66,-0.66 0,-1.32 1.44,-1.26 0.66,0 1.32,0.54 0.66,0.54 0.66,1.2 0,2.64 -2.34,2.64 -0.84,0 -0.84,1.08 v 1.62 q 0,1.32 0.06,3.9 0.06,2.52 0.06,3.84 0,0.24 0.06,1.02 0.06,0.72 0.06,0.96 0,2.52 -1.44,2.64 -0.66,0.06 -1.26,-0.66 -0.54,-0.72 -0.54,-1.44 0,-0.54 0.06,-2.28 0.06,-1.8 0.06,-2.28 v -1.74 q 0,-1.02 -0.66,-1.38 -0.72,-0.06 -0.9,1.68 l -0.48,-0.48 q 0,-1.8 1.32,-1.8 1.32,0 1.32,3.42 v 0.78 q 0,0.36 -0.06,1.02 -0.12,2.04 -0.12,1.8 0,2.58 1.08,2.58 0.9,0 0.9,-1.62 l -0.06,-11.34 q 0,-0.9 -1.08,-2.4 -1.08,-1.5 -1.14,-2.46 -0.12,-1.56 1.32,-2.58 1.2,-0.9 2.82,-0.9 1.38,0 3.24,1.32 1.92,1.32 1.92,2.64 z m -3.42,21.54 q 0,1.38 -1.68,1.38 -1.62,0 -1.62,-1.38 0,-1.38 1.62,-1.38 1.68,0 1.68,1.38 z m -0.66,0 q 0,-0.72 -1.02,-0.72 -0.96,0 -0.96,0.72 0,0.72 0.96,0.72 1.02,0 1.02,-0.72 z m 22.32,-12.48 q -0.96,0 -1.8,-0.9 l 0.48,-0.42 q 0.66,0.66 1.32,0.66 0.9,0 1.44,-0.9 0.48,-0.72 0.48,-1.68 0,-2.58 -1.92,-2.58 -1.32,0 -1.8,1.38 l -0.36,0.54 q -0.06,-0.24 -0.3,-0.78 0,-1.32 -0.12,-1.92 -0.24,-1.14 -1.2,-1.14 -0.66,0 -1.26,1.2 -0.6,1.2 -0.6,1.98 0,1.2 0.48,3.6 0.54,2.34 0.54,3.54 0,0.78 0.24,2.28 0.3,1.74 0,2.4 0,-0.3 0.12,-0.36 0.24,0 0.9,1.08 1.08,1.8 1.08,2.58 0,2.28 -1.62,3.54 -1.56,1.2 -3.9,0.96 -1.8,-0.18 -2.4,-0.42 -0.54,-0.24 -1.68,-1.56 l 2.46,-3.84 q 0.24,0 0.66,0.12 -0.6,0.96 -2.34,3.72 0.78,1.32 3.54,1.32 4.44,0 4.44,-3.78 0,-0.9 -0.6,-1.8 -0.6,-0.9 -1.44,-0.9 -0.78,0 -1.44,0.54 -0.66,0.48 -0.66,1.14 0,0.78 0.72,1.08 0.78,-0.78 0.84,-0.78 0.24,0 0.6,0.42 v 0.6 q -0.48,0.48 -1.08,0.48 -1.68,0 -1.68,-1.74 0,-2.4 2.7,-2.4 0.36,-1.5 0.24,-2.64 -0.06,-0.72 -0.3,-2.58 -0.96,-3.9 -0.96,-6.48 0,-0.48 0.12,-1.56 -0.12,-0.72 0.72,-1.68 0.84,-1.02 1.56,-0.96 1.08,0.12 1.32,0.36 0.78,0.6 0.66,2.76 0.6,-0.96 1.8,-0.96 1.08,0 1.8,1.02 0.78,0.96 0.78,2.22 0,1.32 -0.72,2.28 -0.72,0.96 -1.86,0.96 z m -2.16,3 q 0,-0.84 0.84,-0.84 0.84,0 0.84,0.84 0,0.84 -0.84,0.84 -0.84,0 -0.84,-0.84 z" />
      <path
         id="path26"
         style="font-family:Ringlet"
         d="m 294.58375,100.96 q 3.3,0 5.46,-2.64 2.16,-2.7 2.16,-6.3 0,-2.28 -1.74,-3.9 -1.68,-1.68 -3.96,-1.68 -1.86,0 -3.24,1.26 -1.32,1.2 -1.32,3 0,1.5 1.02,2.64 1.02,1.08 2.46,1.08 1.32,0 2.22,-0.9 0.9,-0.96 0.9,-2.28 0,-0.84 -0.6,-1.44 -0.54,-0.6 -1.32,-0.54 -1.44,0.12 -1.56,1.2 -0.18,1.38 1.08,1.56 0.6,0.12 1.08,-0.36 0.3,0.54 0.06,1.14 -0.3,0.78 -1.8,0.9 -1.14,0.06 -2.04,-0.84 -0.84,-0.9 -0.84,-1.98 0,-1.56 1.08,-2.64 1.08,-1.14 2.64,-1.14 2.04,0 3.6,1.5 1.56,1.5 1.56,3.42 0,2.4 -2.04,4.02 -1.98,1.62 -4.56,1.62 -1.92,0 -3.36,-1.26 -1.44,-1.32 -1.44,-3.18 v -18.3 h 8.1 l -0.48,0.96 q -1.32,2.64 -1.32,3.84 0,3.48 2.7,3.48 1.86,0 1.86,-1.8 0,-1.44 -1.08,-1.68 -0.54,-0.12 -1.08,0.24 -0.54,0.3 -0.54,0.84 -0.06,1.2 0.9,1.2 0.42,0 0.6,-0.18 -0.36,0.78 -0.9,0.78 -1.8,0 -1.8,-2.7 0,-1.02 1.32,-3.96 l 1.86,-4.14 h -10.14 v -9.18 l -4.74,2.58 q 0.66,0.6 1.08,1.5 0.54,1.2 0.54,2.7 v 2.4 h -2.22 v 3.12 h 2.22 v 20.1 q 0,2.7 2.4,4.38 2.16,1.56 5.22,1.56 z" />
      <path
         id="path28"
         style="font-family:Ringlet"
         d="m 330.09812,91.36 q -0.17999,1.98 -0.9,3.6 -2.63999,5.82 -10.01999,6.06 -5.40001,0.18 -8.88,-4.68 -3.12,-4.38 -3.24,-10.5 -0.12,-6.18 3.24,-10.8 3.65999,-4.92 9.23999,-4.92 4.92,0 8.1,3.84 3.18,3.84 3.18,9 v 2.46 h -13.13999 q -3.54001,0 -3.54001,2.22 0,0.66 0.42001,1.26 0.47999,0.54 1.07999,0.48 0.36001,0 0.66001,-0.18 -1.20001,-0.54 -0.90001,-1.74 0.24,-1.08 1.56,-1.14 0.78001,-0.06 1.26,0.66 0.54,0.66 0.54,1.5 0,0.9 -0.84,1.5 -0.78,0.6 -1.67999,0.6 -1.14001,0 -1.98001,-0.9 -0.84,-0.9 -0.84,-2.04 0,-2.94 4.32001,-2.94 h 9.89999 v -1.26 q 0,-4.02 -2.16,-6.96 -2.4,-3.12 -6,-3.12 -4.08,0 -6.6,3.9 -2.22,3.48 -2.22,8.22 0,4.68 2.34001,8.04 2.45999,3.6 6.65999,3.96 5.1,0.42 8.88,-3.9 0.96001,-1.14 1.56,-2.22 z" />
      <path
         id="path30"
         style="font-family:Ringlet"
         d="m 359.30406,75.58 q 2.76,-5.28 8.1,-5.28 4.5,0 7.5,3.6 3,3.54 3,8.28 0,4.56 -3.96,12 -3.96,7.44 -3.96,11.76 0,1.68 0.96,2.94 1.02,1.32 2.58,1.32 1.32,0 2.28,-0.66 1.02,-0.6 1.02,-1.68 0,-1.32 -0.84,-2.28 -0.84,-0.96 -2.1,-0.96 -0.66,0 -0.9,1.32 0.42,-0.3 0.9,-0.24 1.32,0.12 1.14,1.68 -0.12,1.2 -1.44,1.38 -0.84,0.12 -1.44,-0.66 -0.6,-0.72 -0.6,-1.68 0,-1.02 0.72,-1.74 0.78,-0.72 1.8,-0.72 1.5,0 2.52,1.08 1.08,1.14 1.08,2.64 0,1.62 -1.32,2.76 -1.26,1.2 -2.94,1.2 -2.04,0 -3.3,-1.8 -1.2,-1.62 -1.2,-3.9 0,-4.32 2.7,-11.7 2.7,-7.44 2.7,-12.18 0,-3.36 -2.04,-5.82 -2.04,-2.52 -5.16,-2.52 -2.7,0 -4.74,1.62 -1.98,1.62 -2.28,4.2 -0.3,2.82 1.5,5.16 1.86,2.34 4.56,2.16 2.1,-0.12 3.66,-1.38 1.56,-1.26 1.56,-3.12 0,-1.86 -1.5,-3.12 -1.44,-1.32 -3.3,-1.32 -1.32,0 -2.22,0.96 -0.9,0.9 -0.9,2.22 0,1.08 0.72,1.92 0.78,0.78 1.86,0.78 0.6,0 1.02,-0.3 -1.2,-0.18 -1.2,-1.38 0,-1.44 1.56,-1.5 1.32,-0.06 1.62,1.62 0.18,0.96 -0.78,1.62 -0.96,0.66 -2.1,0.66 -1.44,0 -2.46,-1.02 -0.96,-1.02 -0.96,-2.4 0,-1.56 1.14,-2.7 1.14,-1.2 2.7,-1.2 2.22,0 3.84,1.5 1.68,1.5 1.68,3.66 0,2.22 -1.8,3.66 -1.74,1.44 -4.14,1.56 -2.22,0.06 -4.2,-1.56 -1.68,-1.32 -2.1,-2.52 v 11.52 q 0,3.3 2.04,4.98 h -7.2 q 2.04,-1.68 2.04,-4.98 V 79.9 q 0,-2.82 -1.5,-4.56 -1.68,-1.98 -4.68,-1.98 -2.76,0 -4.74,1.62 -1.98,1.62 -2.28,4.2 -0.3,2.82 1.5,5.16 1.8,2.34 4.5,2.16 2.16,-0.12 3.66,-1.32 1.56,-1.26 1.56,-3.18 0,-1.86 -1.44,-3.12 -1.44,-1.32 -3.3,-1.32 -1.32,0 -2.28,0.96 -0.9,0.9 -0.9,2.22 0,1.08 0.78,1.92 0.78,0.78 1.86,0.78 0.6,0 1.02,-0.3 -1.2,-0.18 -1.2,-1.38 0,-1.44 1.5,-1.5 1.26,-0.06 1.62,1.62 0.18,0.96 -0.78,1.62 -0.96,0.66 -2.1,0.66 -1.38,0 -2.4,-1.02 -1.02,-1.02 -1.02,-2.4 0,-1.56 1.14,-2.7 1.14,-1.2 2.76,-1.2 2.16,0 3.78,1.5 1.68,1.5 1.68,3.66 0,2.22 -1.74,3.66 -1.74,1.44 -4.2,1.56 -4.5,0.24 -6.18,-3.9 v 11.7 q 0,3.3 2.04,4.98 h -7.2 q 2.04,-1.68 2.04,-4.98 V 75.28 q 0,-3.48 -2.04,-4.98 h 5.16 v 3.78 q 2.64,-4.14 7.44,-4.14 6.3,0 8.52,5.64 z" />
      <path
         id="path32"
         style="font-family:Ringlet"
         d="m 389.63312,87.94 v 2.82 q 0,2.46 2.28,4.32 2.04,1.74 4.38,1.74 4.44,0 6.78,-3.72 2.04001,-3.24 2.04001,-8.28 0,-4.38 -2.58001,-7.86 -2.52,-3.54 -6.24,-3.54 h -6.66 v 12.12 q 1.98001,-2.7 5.4,-2.7 2.7,0 4.5,1.92 1.86,1.92 1.86,4.44 0,2.16 -1.68,3.54 -1.68,1.38 -3.42,1.38 -1.67999,0 -2.94,-1.08 -1.2,-1.08 -1.2,-2.7 0,-3.72 3.3,-3.72 1.14,0 1.98001,0.78 0.89999,0.78 0.89999,1.92 0,1.74 -1.5,1.86 -0.71999,0.06 -1.26,-0.36 -0.54,-0.42 -0.54,-1.08 0,-1.26 1.26,-1.44 0.84,-0.12 1.32001,0.48 -0.60001,-1.38 -2.16001,-1.44 -1.13999,0 -1.86,0.9 -0.71999,0.84 -0.71999,2.1 0,1.32 1.01999,2.22 1.08,0.84 2.4,0.84 1.5,0 2.82001,-1.08 1.56,-1.2 1.56,-3.12 0,-2.28 -1.74,-3.96 -1.68001,-1.68 -3.90001,-1.68 -1.97999,0 -3.47999,1.26 -1.44,1.2 -1.92001,3.12 z m 6.84,11.7 q -3.29999,0 -6.24,-3.18 -0.17999,-0.18 -0.6,-0.72 v 10.38 q 0,3.48 2.04001,4.98 h -7.20001 q 2.04,-1.5 2.04,-4.98 V 75.28 q 0,-3.48 -2.04,-4.98 h 10.92 q 6.18,0 9.66001,4.32 3.17999,3.9 3.17999,9.96 0,6.06 -2.82,10.26 -3.23999,4.8 -8.94,4.8 z" />
      <path
         id="path34"
         style="font-family:Ringlet"
         d="m 414.24156,79.72 v 10.8 q 0,4.2 3.54,6.9 3.3,2.52 7.92,2.58 4.56,0.06 8.04,-2.58 3.54,-2.7 3.54,-6.9 v -10.8 q 0,-4.38 -3.54,-7.38 -3.42,-2.82 -8.04,-2.82 -4.62,0 -8.04,2.94 -3.42,2.94 -3.42,7.26 z m 3.12,6.24 q 0,-2.04 2.28,-4.08 2.34,-2.04 5.04,-2.04 2.22,0 3.9,1.68 1.74,1.62 1.74,3.9 0,1.92 -1.56,3.12 -1.32,1.08 -2.82,1.08 -1.32,0 -2.4,-0.84 -1.02,-0.9 -1.02,-2.16 0,-1.26 0.72,-2.16 0.72,-0.96 1.86,-0.9 1.5,0.06 2.16,1.44 -0.54,-0.54 -1.32,-0.42 -1.26,0.24 -1.26,1.44 0,1.56 1.8,1.38 1.5,-0.12 1.5,-1.86 0,-1.08 -0.9,-1.86 -0.84,-0.84 -1.98,-0.84 -3.3,0 -3.3,3.78 0,1.56 1.2,2.64 1.26,1.08 2.94,1.08 1.8,0 3.42,-1.38 1.68,-1.38 1.68,-3.54 0,-2.52 -1.86,-4.38 -1.8,-1.92 -4.5,-1.92 -2.34,0 -4.56,1.5 -2.16,1.44 -2.76,2.94 v -2.22 q 0,-3.54 2.4,-6.06 2.46,-2.58 5.94,-2.64 3.54,-0.06 6,2.52 2.46,2.58 2.46,6.18 v 7.56 q 0,3.36 -2.52,5.7 -2.52,2.34 -5.94,2.28 -3.42,-0.06 -5.88,-2.34 -2.46,-2.28 -2.46,-5.64 z" />
      <path
         id="path36"
         style="font-family:Ringlet"
         d="m 466.03937,78.76 q 0,-3.54 -1.44,-5.82 -1.98,-3 -6.12,-3 -5.16,0 -7.44,4.14 V 70.3 h -5.16 q 2.04,1.5 2.04,4.98 v 19.74 q 0,3.3 -2.04,4.98 h 7.20001 q -2.04001,-1.68 -2.04001,-4.98 V 79.18 q 0,-2.58 2.28,-4.26 2.04,-1.56 4.92,-1.56 5.22001,0 5.22001,7.02 0,1.56 -1.32001,3.24 -1.5,1.86 -3.35999,1.92 -1.86001,0.06 -3.12001,-1.38 -1.25999,-1.44 -1.25999,-3.36 0,-1.32 0.89999,-2.22 0.96,-0.96 2.22001,-0.96 1.13999,0 1.91999,0.78 0.84001,0.78 0.84001,1.86 0,0.42 -0.30001,1.02 -0.18,-1.2 -1.44,-1.2 -1.44,0 -1.44,1.5 0,1.38 1.62001,1.62 0.95999,0.18 1.56,-0.78 0.65999,-0.96 0.65999,-2.1 0,-1.38 -1.02,-2.4 -0.95999,-1.02 -2.39999,-1.02 -1.56,0 -2.70001,1.2 -1.14,1.14 -1.14,2.7 0,2.22 1.5,3.84 1.5,1.62 3.60001,1.62 1.68,0 2.81999,-0.54 -0.18,0.18 -0.72,0.6 -3.84,3 -3.9,5.04 -0.06,2.28 1.56,2.28 1.44,0 1.56,-1.2 0.12001,-1.5 -1.31999,-1.5 -0.60001,0.12 -0.84001,0.42 0,-0.6 0.06,-0.72 1.02001,-2.04 2.7,-3.42 1.32001,-0.96 2.64001,-1.98 2.69999,-2.34 2.69999,-6.48 z" />
      <path
         id="path38"
         style="font-family:Ringlet"
         d="m 483.3325,100.66 q -4.26,0 -7.38,-2.88 -3.06,-2.88 -3.06,-7.02 0,-4.74 3.06,-7.56 2.88,-2.58 7.32,-2.58 2.58,0 4.56,1.8 2.04,1.8 2.04,4.38 0,2.04 -1.68,3.48 -1.68,1.44 -3.84,1.44 -1.56,0 -2.82,-1.02 -1.2,-1.02 -1.2,-2.52 0,-1.56 0.84,-2.76 0.84,-1.2 2.28,-1.2 1.26,0 2.1,0.84 0.9,0.78 0.9,1.98 0,1.74 -1.38,1.86 -0.66,0.06 -1.26,-0.36 -0.54,-0.42 -0.54,-1.02 0,-1.2 1.2,-1.44 0.84,-0.18 1.32,0.42 -0.54,-1.56 -2.34,-1.56 -1.08,0 -1.74,1.02 -0.66,0.96 -0.66,2.22 0,1.2 0.96,2.04 1.02,0.78 2.34,0.78 1.92,0 3.36,-1.2 1.44,-1.2 1.44,-3 0,-2.1 -1.68,-3.48 -1.68,-1.44 -3.9,-1.44 -3.36,0 -5.46,2.4 -2.1,2.4 -2.1,6.24 0,2.88 2.16,4.74 2.22,1.8 5.52,1.8 3.12,0 5.64,-2.16 2.52,-2.16 2.52,-5.28 V 78.1 q 0,-2.04 -1.68,-3.24 -1.68,-1.2 -3.96,-1.2 -5.88,0 -10.38,2.52 -0.48,0.24 -1.56,0.96 l 4.8,-6.84 h 1.26 q 0.72,0.72 1.62,0.72 0.9,0 2.4,-0.36 1.56,-0.42 2.52,-0.42 5.1,0 6.9,3 1.2,2.1 1.2,6.78 v 15 q 0,3.3 2.04,4.98 h -5.16 v -4.14 q -1.02,1.62 -3.24,3.06 -2.7,1.74 -5.28,1.74 z" />
      <path
         id="path40"
         style="font-family:Ringlet"
         d="m 507.64094,95.02 q 0,3.3 2.04,4.98 h -7.2 q 2.04,-1.68 2.04,-4.98 V 75.28 q 0,-3.48 -2.04,-4.98 h 5.16 v 4.14 q 2.94,-4.14 7.44,-4.14 4.5,0 7.62,3.6 2.94,3.48 2.94,8.28 0,4.56 -3.96,12 -3.96,7.44 -3.96,11.76 0,1.68 0.96,2.94 1.02,1.32 2.52,1.32 1.32,0 2.34,-0.66 1.02,-0.6 1.02,-1.68 0,-1.32 -0.9,-2.28 -0.84,-0.96 -2.1,-0.96 -0.66,0 -0.9,1.32 0.42,-0.3 0.9,-0.24 1.38,0.12 1.2,1.68 -0.12,1.2 -1.44,1.38 -0.84,0.12 -1.5,-0.66 -0.6,-0.72 -0.6,-1.68 0,-1.02 0.72,-1.74 0.78,-0.72 1.8,-0.72 1.5,0 2.52,1.08 1.08,1.14 1.08,2.64 0,1.62 -1.26,2.76 -1.26,1.2 -2.94,1.2 -2.04,0 -3.3,-1.8 -1.2,-1.62 -1.2,-3.9 0,-4.32 2.7,-11.7 2.7,-7.44 2.7,-12.18 0,-3.36 -2.04,-5.82 -2.04,-2.52 -5.16,-2.52 -2.76,0 -4.74,1.62 -1.98,1.62 -2.28,4.2 -0.3,2.82 1.5,5.16 1.8,2.34 4.5,2.16 2.16,-0.12 3.66,-1.32 1.56,-1.26 1.56,-3.18 0,-1.86 -1.44,-3.12 -1.44,-1.32 -3.3,-1.32 -1.32,0 -2.28,0.96 -0.9,0.9 -0.9,2.22 0,1.08 0.78,1.92 0.78,0.78 1.86,0.78 0.6,0 1.02,-0.3 -1.2,-0.18 -1.2,-1.38 0,-1.44 1.5,-1.5 1.26,-0.06 1.62,1.62 0.18,0.96 -0.78,1.62 -0.96,0.66 -2.1,0.66 -1.38,0 -2.4,-1.02 -1.02,-1.02 -1.02,-2.4 0,-1.56 1.14,-2.7 1.14,-1.2 2.76,-1.2 2.16,0 3.78,1.5 1.68,1.5 1.68,3.66 0,2.22 -1.74,3.66 -1.74,1.44 -4.2,1.56 -4.5,0.24 -6.18,-3.9 z" />
      <path
         id="path42"
         style="font-family:Ringlet"
         d="m 554.27781,91.36 q -0.18,1.98 -0.9,3.6 -2.64,5.82 -10.02,6.06 -5.4,0.18 -8.88,-4.68 -3.12,-4.38 -3.24,-10.5 -0.12,-6.18 3.24,-10.8 3.66,-4.92 9.24,-4.92 4.92,0 8.1,3.84 3.18,3.84 3.18,9 v 2.46 h -13.14 q -3.54,0 -3.54,2.22 0,0.66 0.42,1.26 0.48,0.54 1.08,0.48 0.36,0 0.66,-0.18 -1.2,-0.54 -0.9,-1.74 0.24,-1.08 1.56,-1.14 0.78,-0.06 1.26,0.66 0.54,0.66 0.54,1.5 0,0.9 -0.84,1.5 -0.78,0.6 -1.68,0.6 -1.14,0 -1.98,-0.9 -0.84,-0.9 -0.84,-2.04 0,-2.94 4.32,-2.94 h 9.9 v -1.26 q 0,-4.02 -2.16,-6.96 -2.4,-3.12 -6,-3.12 -4.08,0 -6.6,3.9 -2.22,3.48 -2.22,8.22 0,4.68 2.34,8.04 2.46,3.6 6.66,3.96 5.1,0.42 8.88,-3.9 0.96,-1.14 1.56,-2.22 z" />
      <path
         id="path44"
         style="font-family:Ringlet"
         d="m 572.86375,100.66 q -4.26,0 -7.38,-2.88 -3.06,-2.88 -3.06,-7.02 0,-4.74 3.06,-7.56 2.88,-2.58 7.32,-2.58 2.58,0 4.56,1.8 2.04,1.8 2.04,4.38 0,2.04 -1.68,3.48 -1.68,1.44 -3.84,1.44 -1.56,0 -2.82,-1.02 -1.2,-1.02 -1.2,-2.52 0,-1.56 0.84,-2.76 0.84,-1.2 2.28,-1.2 1.26,0 2.1,0.84 0.9,0.78 0.9,1.98 0,1.74 -1.38,1.86 -0.66,0.06 -1.26,-0.36 -0.54,-0.42 -0.54,-1.02 0,-1.2 1.2,-1.44 0.84,-0.18 1.32,0.42 -0.54,-1.56 -2.34,-1.56 -1.08,0 -1.74,1.02 -0.66,0.96 -0.66,2.22 0,1.2 0.96,2.04 1.02,0.78 2.34,0.78 1.92,0 3.36,-1.2 1.44,-1.2 1.44,-3 0,-2.1 -1.68,-3.48 -1.68,-1.44 -3.9,-1.44 -3.36,0 -5.46,2.4 -2.1,2.4 -2.1,6.24 0,2.88 2.16,4.74 2.22,1.8 5.52,1.8 3.12,0 5.64,-2.16 2.52,-2.16 2.52,-5.28 V 78.1 q 0,-2.04 -1.68,-3.24 -1.68,-1.2 -3.96,-1.2 -5.88,0 -10.38,2.52 -0.48,0.24 -1.56,0.96 l 4.8,-6.84 h 1.26 q 0.72,0.72 1.62,0.72 0.9,0 2.4,-0.36 1.56,-0.42 2.52,-0.42 5.1,0 6.9,3 1.2,2.1 1.2,6.78 v 15 q 0,3.3 2.04,4.98 h -5.16 v -4.14 q -1.02,1.62 -3.24,3.06 -2.7,1.74 -5.28,1.74 z" />
    </g>
  </g>
</svg>
