<?xml version="1.0" encoding="UTF-8" standalone="no"?>
<svg
   xmlns:dc="http://purl.org/dc/elements/1.1/"
   xmlns:cc="http://creativecommons.org/ns#"
   xmlns:rdf="http://www.w3.org/1999/02/22-rdf-syntax-ns#"
   xmlns:svg="http://www.w3.org/2000/svg"
   xmlns="http://www.w3.org/2000/svg"
   id="svg16"
   width="800px"
   version="1.1"
   height="200px">
  <metadata
     id="metadata20">
    <rdf:RDF>
      <cc:Work
         rdf:about="">
        <dc:format>image/svg+xml</dc:format>
        <dc:type
           rdf:resource="http://purl.org/dc/dcmitype/StillImage" />
      </cc:Work>
    </rdf:RDF>
  </metadata>
  <defs
     id="defs4">
    <style
       id="style2"
       type="text/css"><![CDATA[    
     @font-face {font-family:Rubik Medium;
     src: url('/Users/francesco/Repos/write-logos/src/fonts/Fonts_E_TEMPORANEA/Rubik-Medium.ttf');}
     @font-face {font-family:Emblema One;
     src: url('/Users/francesco/Repos/write-logos/src/fonts/Fonts_X/EmblemaOne-Regular.ttf');}
     ]]></style>
  </defs>
  <g
     id="g14"
     style="font-size:60px">
    <g
       style="text-anchor:middle"
       id="text12"
       aria-label="EXTEMPORANEA">
      <path
         id="path22"
         style="font-family:'Rubik Medium';letter-spacing:0.075em"
         d="m 140.06922,100 q -0.6,0 -1.02,-0.42 -0.42,-0.42 -0.42,-1.02 V 59.5 q 0,-0.66 0.42,-1.08 0.42,-0.42 1.02,-0.42 h 26.4 q 0.66,0 1.08,0.42 0.42,0.42 0.42,1.08 v 3.96 q 0,0.6 -0.42,1.02 -0.42,0.42 -1.08,0.42 h -19.74 v 10.62 h 18.42 q 0.66,0 1.08,0.42 0.42,0.42 0.42,1.02 v 3.72 q 0,0.66 -0.42,1.08 -0.42,0.36 -1.08,0.36 h -18.42 V 93.1 h 20.22 q 0.66,0 1.08,0.42 0.42,0.42 0.42,1.08 v 3.96 q 0,0.6 -0.42,1.02 -0.42,0.42 -1.08,0.42 z" />
      <path
         id="path24"
         style="font-family:'Emblema One';letter-spacing:0.05em"
         d="m 194.9043,100 q -5.88868,-20.214844 -14.17969,-37.96875 0,-0.380859 0.9375,-1.142578 0.9668,-0.761719 1.64062,-0.761719 h 15 q 3.33985,11.425781 6.41602,19.746094 3.07617,8.291015 7.73437,18.193359 0,0.38086 -0.9375,1.171875 Q 210.57812,100 209.9043,100 Z m 11.39648,-21.123047 q 1.66992,-5.537109 1.66992,-9.609375 0,-1.933594 -0.35156,-3.398437 -0.35156,-1.494141 -1.23047,-3.837891 0,-0.380859 0.9375,-1.142578 0.9668,-0.761719 1.64063,-0.761719 h 9.3457 q -3.48633,5.332031 -5.71289,9.140625 -2.22656,3.808594 -3.75,7.617188 -0.17578,0.46875 -1.02539,1.230468 -0.84961,0.761719 -1.52344,0.761719 z m -19.33594,2.255859 q -1.66992,5.361329 -1.66992,9.052735 0,3.691406 1.58203,7.880859 0,0.38086 -0.96679,1.171875 Q 184.97266,100 184.29883,100 h -9.375 q 6.88476,-10.576172 9.46289,-16.933594 0.17578,-0.46875 1.02539,-1.201172 0.87891,-0.732422 1.55273,-0.732422 z" />
      <path
         id="path26"
         style="font-family:'Rubik Medium';letter-spacing:0.075em"
         d="m 234.15297,100 q -0.6,0 -1.02,-0.42 -0.42,-0.42 -0.42,-1.02 V 65.38 h -11.1 q -0.6,0 -1.02,-0.42 -0.42,-0.42 -0.42,-1.02 V 59.5 q 0,-0.66 0.42,-1.08 0.42,-0.42 1.02,-0.42 h 30.6 q 0.66,0 1.08,0.42 0.42,0.42 0.42,1.08 v 4.44 q 0,0.6 -0.42,1.02 -0.42,0.42 -1.08,0.42 h -11.04 v 33.18 q 0,0.6 -0.42,1.02 -0.42,0.42 -1.08,0.42 z" />
      <path
         id="path28"
         style="font-family:'Rubik Medium';letter-spacing:0.075em"
         d="m 265.74109,100 q -0.6,0 -1.02,-0.42 -0.42,-0.42 -0.42,-1.02 V 59.5 q 0,-0.66 0.42,-1.08 0.42,-0.42 1.02,-0.42 h 26.4 q 0.66,0 1.08,0.42 0.42,0.42 0.42,1.08 v 3.96 q 0,0.6 -0.42,1.02 -0.42,0.42 -1.08,0.42 h -19.74 v 10.62 h 18.42 q 0.66,0 1.08,0.42 0.42,0.42 0.42,1.02 v 3.72 q 0,0.66 -0.42,1.08 -0.42,0.36 -1.08,0.36 h -18.42 V 93.1 h 20.22 q 0.66,0 1.08,0.42 0.42,0.42 0.42,1.08 v 3.96 q 0,0.6 -0.42,1.02 -0.42,0.42 -1.08,0.42 z" />
      <path
         id="path30"
         style="font-family:'Rubik Medium';letter-spacing:0.075em"
         d="m 307.56672,100 q -0.66,0 -1.08,-0.42 -0.42,-0.42 -0.42,-1.02 V 59.5 q 0,-0.66 0.42,-1.08 0.42,-0.42 1.08,-0.42 h 4.74 q 0.84,0 1.26,0.48 0.42,0.42 0.54,0.66 l 11.58,21.6 11.7,-21.6 q 0.12,-0.24 0.54,-0.66 0.42,-0.48 1.26,-0.48 h 4.68 q 0.66,0 1.08,0.42 0.42,0.42 0.42,1.08 v 39.06 q 0,0.6 -0.42,1.02 -0.42,0.42 -1.08,0.42 h -5.04 q -0.6,0 -1.02,-0.42 -0.42,-0.42 -0.42,-1.02 V 72.58 l -8.4,16.02 q -0.3,0.54 -0.78,0.96 -0.48,0.36 -1.26,0.36 h -2.46 q -0.84,0 -1.32,-0.36 -0.42,-0.42 -0.72,-0.96 l -8.4,-16.02 v 25.98 q 0,0.6 -0.42,1.02 -0.42,0.42 -1.02,0.42 z" />
      <path
         id="path32"
         style="font-family:'Rubik Medium';letter-spacing:0.075em"
         d="m 360.63953,100 q -0.6,0 -1.02,-0.42 -0.42,-0.42 -0.42,-1.02 V 59.5 q 0,-0.66 0.42,-1.08 0.42,-0.42 1.02,-0.42 h 16.08 q 7.02,0 11.22,3.36 4.26,3.3 4.26,9.96 0,6.72 -4.26,9.96 -4.2,3.24 -11.22,3.24 h -8.94 v 14.04 q 0,0.6 -0.42,1.02 -0.42,0.42 -1.02,0.42 z m 7.02,-22.14 h 8.76 q 3.48,0 5.34,-1.62 1.86,-1.68 1.86,-4.92 0,-3 -1.74,-4.8 -1.74,-1.86 -5.46,-1.86 h -8.76 z" />
      <path
         id="path34"
         style="font-family:'Rubik Medium';letter-spacing:0.075em"
         d="m 419.33172,100.6 q -7.98,0 -12.66,-4.02 -4.62,-4.08 -4.86,-12.42 -0.18,-5.04 0,-10.26 0.24,-8.16 4.98,-12.3 4.8,-4.2 12.54,-4.2 7.74,0 12.48,4.2 4.8,4.14 5.1,12.3 0.18,5.22 0,10.26 -0.3,8.34 -4.92,12.42 -4.62,4.02 -12.66,4.02 z m 0,-6.9 q 3.84,0 6.3,-2.28 2.52,-2.34 2.7,-7.56 0.06,-2.64 0.06,-4.86 0,-2.28 -0.06,-4.86 -0.18,-5.22 -2.7,-7.5 -2.46,-2.34 -6.3,-2.34 -3.78,0 -6.3,2.34 -2.46,2.28 -2.64,7.5 -0.12,2.58 -0.12,4.86 0,2.22 0.12,4.86 0.18,5.22 2.64,7.56 2.46,2.28 6.3,2.28 z" />
      <path
         id="path36"
         style="font-family:'Rubik Medium';letter-spacing:0.075em"
         d="m 450.85047,100 q -0.6,0 -1.02,-0.42 -0.42,-0.42 -0.42,-1.02 V 59.5 q 0,-0.66 0.42,-1.08 0.42,-0.42 1.02,-0.42 h 15.54 q 7.26,0 11.46,3.36 4.2,3.36 4.2,9.78 0,4.5 -2.16,7.44 -2.16,2.88 -5.88,4.2 l 8.76,15.3 q 0.18,0.36 0.18,0.66 0,0.54 -0.42,0.9 -0.36,0.36 -0.84,0.36 h -5.46 q -1.08,0 -1.62,-0.54 -0.48,-0.54 -0.78,-1.08 l -7.74,-14.22 h -8.34 v 14.4 q 0,0.6 -0.42,1.02 -0.42,0.42 -1.02,0.42 z m 6.9,-22.62 h 8.46 q 3.66,0 5.46,-1.62 1.8,-1.68 1.8,-4.68 0,-3 -1.8,-4.68 -1.74,-1.74 -5.46,-1.74 h -8.46 z" />
      <path
         id="path38"
         style="font-family:'Rubik Medium';letter-spacing:0.075em"
         d="m 491.76016,100 q -0.48,0 -0.9,-0.36 -0.36,-0.36 -0.36,-0.9 0,-0.24 0.12,-0.54 l 14.46,-38.7 q 0.18,-0.6 0.66,-1.02 0.54,-0.48 1.44,-0.48 h 6.54 q 0.9,0 1.38,0.48 0.54,0.42 0.72,1.02 l 14.46,38.7 q 0.06,0.3 0.06,0.54 0,0.54 -0.36,0.9 -0.36,0.36 -0.84,0.36 h -5.22 q -0.84,0 -1.26,-0.36 -0.36,-0.42 -0.48,-0.78 l -2.82,-7.32 h -17.82 l -2.82,7.32 q -0.12,0.36 -0.54,0.78 -0.36,0.36 -1.2,0.36 z m 11.88,-15.36 h 13.62 l -6.84,-18.54 z" />
      <path
         id="path40"
         style="font-family:'Rubik Medium';letter-spacing:0.075em"
         d="m 541.88172,100 q -0.6,0 -1.02,-0.42 -0.42,-0.42 -0.42,-1.02 V 59.5 q 0,-0.66 0.42,-1.08 0.42,-0.42 1.02,-0.42 h 4.62 q 0.84,0 1.2,0.42 0.42,0.36 0.54,0.54 l 17.28,26.88 V 59.5 q 0,-0.66 0.36,-1.08 0.42,-0.42 1.08,-0.42 h 5.04 q 0.66,0 1.08,0.42 0.42,0.42 0.42,1.08 v 39 q 0,0.66 -0.42,1.08 -0.42,0.42 -1.02,0.42 h -4.68 q -0.84,0 -1.26,-0.36 -0.36,-0.42 -0.48,-0.6 l -17.22,-26.28 v 25.8 q 0,0.6 -0.42,1.02 -0.42,0.42 -1.08,0.42 z" />
      <path
         id="path42"
         style="font-family:'Rubik Medium';letter-spacing:0.075em"
         d="m 588.80359,100 q -0.6,0 -1.02,-0.42 -0.42,-0.42 -0.42,-1.02 V 59.5 q 0,-0.66 0.42,-1.08 0.42,-0.42 1.02,-0.42 h 26.4 q 0.66,0 1.08,0.42 0.42,0.42 0.42,1.08 v 3.96 q 0,0.6 -0.42,1.02 -0.42,0.42 -1.08,0.42 h -19.74 v 10.62 h 18.42 q 0.66,0 1.08,0.42 0.42,0.42 0.42,1.02 v 3.72 q 0,0.66 -0.42,1.08 -0.42,0.36 -1.08,0.36 h -18.42 V 93.1 h 20.22 q 0.66,0 1.08,0.42 0.42,0.42 0.42,1.08 v 3.96 q 0,0.6 -0.42,1.02 -0.42,0.42 -1.08,0.42 z" />
      <path
         id="path44"
         style="font-family:'Rubik Medium';letter-spacing:0.075em"
         d="m 626.54922,100 q -0.48,0 -0.9,-0.36 -0.36,-0.36 -0.36,-0.9 0,-0.24 0.12,-0.54 l 14.46,-38.7 q 0.18,-0.6 0.66,-1.02 0.54,-0.48 1.44,-0.48 h 6.54 q 0.9,0 1.38,0.48 0.54,0.42 0.72,1.02 l 14.46,38.7 q 0.06,0.3 0.06,0.54 0,0.54 -0.36,0.9 -0.36,0.36 -0.84,0.36 h -5.22 q -0.84,0 -1.26,-0.36 -0.36,-0.42 -0.48,-0.78 l -2.82,-7.32 h -17.82 l -2.82,7.32 q -0.12,0.36 -0.54,0.78 -0.36,0.36 -1.2,0.36 z m 11.88,-15.36 h 13.62 l -6.84,-18.54 z" />
    </g>
  </g>
</svg>
