<?xml version="1.0" encoding="UTF-8" standalone="no"?>
<svg
   xmlns:dc="http://purl.org/dc/elements/1.1/"
   xmlns:cc="http://creativecommons.org/ns#"
   xmlns:rdf="http://www.w3.org/1999/02/22-rdf-syntax-ns#"
   xmlns:svg="http://www.w3.org/2000/svg"
   xmlns="http://www.w3.org/2000/svg"
   id="svg16"
   width="800px"
   version="1.1"
   height="200px">
  <metadata
     id="metadata20">
    <rdf:RDF>
      <cc:Work
         rdf:about="">
        <dc:format>image/svg+xml</dc:format>
        <dc:type
           rdf:resource="http://purl.org/dc/dcmitype/StillImage" />
      </cc:Work>
    </rdf:RDF>
  </metadata>
  <defs
     id="defs4">
    <style
       id="style2"
       type="text/css"><![CDATA[    
     @font-face {font-family:Rubik Medium;
     src: url('/Users/francesco/Repos/write-logos/src/fonts/Fonts_E_TEMPORANEA/Rubik-Medium.ttf');}
     @font-face {font-family:Monoton;
     src: url('/Users/francesco/Repos/write-logos/src/fonts/Fonts_X/Monoton-Regular.ttf');}
     ]]></style>
  </defs>
  <g
     id="g14"
     style="font-size:60px">
    <g
       style="text-anchor:middle"
       id="text12"
       aria-label="EXTEMPORANEA">
      <path
         id="path22"
         style="font-family:'Rubik Medium';letter-spacing:0.075em"
         d="m 133.79969,100 q -0.6,0 -1.02,-0.42 -0.42,-0.42 -0.42,-1.02 V 59.5 q 0,-0.66 0.42,-1.08 0.42,-0.42 1.02,-0.42 h 26.4 q 0.66,0 1.08,0.42 0.42,0.42 0.42,1.08 v 3.96 q 0,0.6 -0.42,1.02 -0.42,0.42 -1.08,0.42 h -19.74 v 10.62 h 18.42 q 0.66,0 1.08,0.42 0.42,0.42 0.42,1.02 v 3.72 q 0,0.66 -0.42,1.08 -0.42,0.36 -1.08,0.36 h -18.42 V 93.1 h 20.22 q 0.66,0 1.08,0.42 0.42,0.42 0.42,1.08 v 3.96 q 0,0.6 -0.42,1.02 -0.42,0.42 -1.08,0.42 z" />
      <path
         id="path24"
         style="font-family:Monoton;letter-spacing:0.05em"
         d="m 186.87695,73.779297 -1.25976,1.992187 -15.26367,-24.287109 h 2.49023 z m 10.40039,15.849609 1.23047,-1.992187 L 206.30078,100 h -2.49023 z m -7.91015,-19.77539 -1.25977,1.96289 -12.77344,-20.332031 h 2.46094 z m 10.40039,15.820312 1.23047,-1.992187 L 211.28125,100 h -2.49023 z m -7.91016,-19.804687 -1.23047,1.96289 -10.3125,-16.347656 h 2.49024 z m 10.42969,15.820312 1.23047,-1.992187 L 216.29102,100 h -2.49024 z m -7.93945,-19.775391 -1.23047,1.992188 -7.82227,-12.421875 h 2.49024 z m 10.40039,15.820313 1.23047,-1.992188 L 221.27148,100 h -2.49023 z m 12.56836,-26.25 h 2.49023 L 189.2793,100 h -2.49024 z m -4.95118,0 h 2.46094 L 184.29883,100 h -2.49024 z m -5.00976,0 h 2.49023 L 179.28906,100 h -2.49023 z m -4.98047,0 h 2.49023 L 174.30859,100 h -2.49023 z" />
      <path
         id="path26"
         style="font-family:'Rubik Medium';letter-spacing:0.075em"
         d="m 240.4225,100 q -0.6,0 -1.02,-0.42 -0.42,-0.42 -0.42,-1.02 V 65.38 h -11.1 q -0.6,0 -1.02,-0.42 -0.42,-0.42 -0.42,-1.02 V 59.5 q 0,-0.66 0.42,-1.08 0.42,-0.42 1.02,-0.42 h 30.6 q 0.66,0 1.08,0.42 0.42,0.42 0.42,1.08 v 4.44 q 0,0.6 -0.42,1.02 -0.42,0.42 -1.08,0.42 h -11.04 v 33.18 q 0,0.6 -0.42,1.02 -0.42,0.42 -1.08,0.42 z" />
      <path
         id="path28"
         style="font-family:'Rubik Medium';letter-spacing:0.075em"
         d="m 272.01062,100 q -0.6,0 -1.01999,-0.42 -0.42001,-0.42 -0.42001,-1.02 V 59.5 q 0,-0.66 0.42001,-1.08 0.41999,-0.42 1.01999,-0.42 h 26.4 q 0.66,0 1.08001,0.42 0.41999,0.42 0.41999,1.08 v 3.96 q 0,0.6 -0.41999,1.02 -0.42001,0.42 -1.08001,0.42 h -19.74 v 10.62 h 18.42 q 0.66001,0 1.08,0.42 0.42,0.42 0.42,1.02 v 3.72 q 0,0.66 -0.42,1.08 -0.41999,0.36 -1.08,0.36 h -18.42 V 93.1 h 20.22 q 0.66001,0 1.08,0.42 0.42,0.42 0.42,1.08 v 3.96 q 0,0.6 -0.42,1.02 -0.41999,0.42 -1.08,0.42 z" />
      <path
         id="path30"
         style="font-family:'Rubik Medium';letter-spacing:0.075em"
         d="m 313.83625,100 q -0.66,0 -1.08,-0.42 -0.42,-0.42 -0.42,-1.02 V 59.5 q 0,-0.66 0.42,-1.08 0.42,-0.42 1.08,-0.42 h 4.74 q 0.84,0 1.26,0.48 0.42,0.42 0.54,0.66 l 11.58,21.6 11.7,-21.6 q 0.12,-0.24 0.54,-0.66 0.42,-0.48 1.26,-0.48 h 4.68 q 0.66,0 1.08,0.42 0.42,0.42 0.42,1.08 v 39.06 q 0,0.6 -0.42,1.02 -0.42,0.42 -1.08,0.42 h -5.04 q -0.6,0 -1.02,-0.42 -0.42,-0.42 -0.42,-1.02 V 72.58 l -8.4,16.02 q -0.3,0.54 -0.78,0.96 -0.48,0.36 -1.26,0.36 h -2.46 q -0.84,0 -1.32,-0.36 -0.42,-0.42 -0.72,-0.96 l -8.4,-16.02 v 25.98 q 0,0.6 -0.42,1.02 -0.42,0.42 -1.02,0.42 z" />
      <path
         id="path32"
         style="font-family:'Rubik Medium';letter-spacing:0.075em"
         d="m 366.90906,100 q -0.6,0 -1.02,-0.42 -0.42,-0.42 -0.42,-1.02 V 59.5 q 0,-0.66 0.42,-1.08 0.42,-0.42 1.02,-0.42 h 16.08 q 7.02,0 11.22,3.36 4.26,3.3 4.26,9.96 0,6.72 -4.26,9.96 -4.2,3.24 -11.22,3.24 h -8.94 v 14.04 q 0,0.6 -0.42,1.02 -0.42,0.42 -1.02,0.42 z m 7.02,-22.14 h 8.76 q 3.48,0 5.34,-1.62 1.86,-1.68 1.86,-4.92 0,-3 -1.74,-4.8 -1.74,-1.86 -5.46,-1.86 h -8.76 z" />
      <path
         id="path34"
         style="font-family:'Rubik Medium';letter-spacing:0.075em"
         d="m 425.60125,100.6 q -7.98,0 -12.66,-4.02 -4.62,-4.08 -4.86,-12.42 -0.18,-5.04 0,-10.26 0.24,-8.16 4.98,-12.3 4.8,-4.2 12.54,-4.2 7.74,0 12.48,4.2 4.8,4.14 5.1,12.3 0.18,5.22 0,10.26 -0.3,8.34 -4.92,12.42 -4.62,4.02 -12.66,4.02 z m 0,-6.9 q 3.84,0 6.3,-2.28 2.52,-2.34 2.7,-7.56 0.06,-2.64 0.06,-4.86 0,-2.28 -0.06,-4.86 -0.18,-5.22 -2.7,-7.5 -2.46,-2.34 -6.3,-2.34 -3.78,0 -6.3,2.34 -2.46,2.28 -2.64,7.5 -0.12,2.58 -0.12,4.86 0,2.22 0.12,4.86 0.18,5.22 2.64,7.56 2.46,2.28 6.3,2.28 z" />
      <path
         id="path36"
         style="font-family:'Rubik Medium';letter-spacing:0.075em"
         d="m 457.12,100 q -0.6,0 -1.02,-0.42 -0.42,-0.42 -0.42,-1.02 V 59.5 q 0,-0.66 0.42,-1.08 0.42,-0.42 1.02,-0.42 h 15.54 q 7.26,0 11.46,3.36 4.2,3.36 4.2,9.78 0,4.5 -2.16,7.44 -2.16,2.88 -5.88,4.2 l 8.76,15.3 q 0.18,0.36 0.18,0.66 0,0.54 -0.42,0.9 -0.36,0.36 -0.84,0.36 h -5.46 q -1.08,0 -1.62,-0.54 -0.48,-0.54 -0.78,-1.08 l -7.74,-14.22 h -8.34 v 14.4 q 0,0.6 -0.42,1.02 -0.42,0.42 -1.02,0.42 z m 6.9,-22.62 h 8.46 q 3.66,0 5.46,-1.62 1.8,-1.68 1.8,-4.68 0,-3 -1.8,-4.68 -1.74,-1.74 -5.46,-1.74 h -8.46 z" />
      <path
         id="path38"
         style="font-family:'Rubik Medium';letter-spacing:0.075em"
         d="m 498.02969,100 q -0.48,0 -0.9,-0.36 -0.36,-0.36 -0.36,-0.9 0,-0.24 0.12,-0.54 l 14.46,-38.7 q 0.18,-0.6 0.66,-1.02 0.54,-0.48 1.44,-0.48 h 6.54 q 0.9,0 1.38,0.48 0.54,0.42 0.72,1.02 l 14.46,38.7 q 0.06,0.3 0.06,0.54 0,0.54 -0.36,0.9 -0.36,0.36 -0.84,0.36 h -5.22 q -0.84,0 -1.26,-0.36 -0.36,-0.42 -0.48,-0.78 l -2.82,-7.32 h -17.82 l -2.82,7.32 q -0.12,0.36 -0.54,0.78 -0.36,0.36 -1.2,0.36 z m 11.88,-15.36 h 13.62 l -6.84,-18.54 z" />
      <path
         id="path40"
         style="font-family:'Rubik Medium';letter-spacing:0.075em"
         d="m 548.15125,100 q -0.6,0 -1.02,-0.42 -0.42,-0.42 -0.42,-1.02 V 59.5 q 0,-0.66 0.42,-1.08 0.42,-0.42 1.02,-0.42 h 4.62 q 0.84,0 1.2,0.42 0.42,0.36 0.54,0.54 l 17.28,26.88 V 59.5 q 0,-0.66 0.36,-1.08 0.42,-0.42 1.08,-0.42 h 5.04 q 0.66,0 1.08,0.42 0.42,0.42 0.42,1.08 v 39 q 0,0.66 -0.42,1.08 -0.42,0.42 -1.02,0.42 h -4.68 q -0.84,0 -1.26,-0.36 -0.36,-0.42 -0.48,-0.6 l -17.22,-26.28 v 25.8 q 0,0.6 -0.42,1.02 -0.42,0.42 -1.08,0.42 z" />
      <path
         id="path42"
         style="font-family:'Rubik Medium';letter-spacing:0.075em"
         d="m 595.07312,100 q -0.6,0 -1.01999,-0.42 -0.42001,-0.42 -0.42001,-1.02 V 59.5 q 0,-0.66 0.42001,-1.08 0.41999,-0.42 1.01999,-0.42 h 26.4 q 0.66,0 1.08001,0.42 0.41999,0.42 0.41999,1.08 v 3.96 q 0,0.6 -0.41999,1.02 -0.42001,0.42 -1.08001,0.42 h -19.74 v 10.62 h 18.42001 q 0.66,0 1.07999,0.42 0.42001,0.42 0.42001,1.02 v 3.72 q 0,0.66 -0.42001,1.08 -0.41999,0.36 -1.07999,0.36 H 601.73312 V 93.1 h 20.22 q 0.66,0 1.08001,0.42 0.41999,0.42 0.41999,1.08 v 3.96 q 0,0.6 -0.41999,1.02 -0.42001,0.42 -1.08001,0.42 z" />
      <path
         id="path44"
         style="font-family:'Rubik Medium';letter-spacing:0.075em"
         d="m 632.81875,100 q -0.48,0 -0.9,-0.36 -0.36,-0.36 -0.36,-0.9 0,-0.24 0.12,-0.54 l 14.46,-38.7 q 0.18,-0.6 0.66,-1.02 0.54,-0.48 1.44,-0.48 h 6.54 q 0.9,0 1.38,0.48 0.54,0.42 0.72,1.02 l 14.46,38.7 q 0.06,0.3 0.06,0.54 0,0.54 -0.36,0.9 -0.36,0.36 -0.84,0.36 h -5.22 q -0.84,0 -1.26,-0.36 -0.36,-0.42 -0.48,-0.78 l -2.82,-7.32 h -17.82 l -2.82,7.32 q -0.12,0.36 -0.54,0.78 -0.36,0.36 -1.2,0.36 z m 11.88,-15.36 h 13.62 l -6.84,-18.54 z" />
    </g>
  </g>
</svg>
