<?xml version="1.0" encoding="UTF-8" standalone="no"?>
<svg
   xmlns:dc="http://purl.org/dc/elements/1.1/"
   xmlns:cc="http://creativecommons.org/ns#"
   xmlns:rdf="http://www.w3.org/1999/02/22-rdf-syntax-ns#"
   xmlns:svg="http://www.w3.org/2000/svg"
   xmlns="http://www.w3.org/2000/svg"
   id="svg16"
   width="800px"
   version="1.1"
   height="200px">
  <metadata
     id="metadata20">
    <rdf:RDF>
      <cc:Work
         rdf:about="">
        <dc:format>image/svg+xml</dc:format>
        <dc:type
           rdf:resource="http://purl.org/dc/dcmitype/StillImage" />
      </cc:Work>
    </rdf:RDF>
  </metadata>
  <defs
     id="defs4">
    <style
       id="style2"
       type="text/css"><![CDATA[    
     @font-face {font-family:Rubik Medium;
     src: url('/Users/francesco/Repos/write-logos/src/fonts/Fonts_E_TEMPORANEA/Rubik-Medium.ttf');}
     @font-face {font-family:FrankfurterEF;
     src: url('/Users/francesco/Repos/write-logos/src/fonts/Fonts_X/FrankfurterEF-Highlight.ttf');}
     ]]></style>
  </defs>
  <g
     id="g14"
     style="font-size:60px">
    <g
       style="text-anchor:middle"
       id="text12"
       aria-label="EXTEMPORANEA">
      <path
         id="path22"
         style="font-family:'Rubik Medium';letter-spacing:0.075em"
         d="m 142.47156,100 q -0.6,0 -1.02,-0.42 -0.42,-0.42 -0.42,-1.02 V 59.5 q 0,-0.66 0.42,-1.08 0.42,-0.42 1.02,-0.42 h 26.4 q 0.66,0 1.08,0.42 0.42,0.42 0.42,1.08 v 3.96 q 0,0.6 -0.42,1.02 -0.42,0.42 -1.08,0.42 h -19.74 v 10.62 h 18.42 q 0.66,0 1.08,0.42 0.42,0.42 0.42,1.02 v 3.72 q 0,0.66 -0.42,1.08 -0.42,0.36 -1.08,0.36 h -18.42 V 93.1 h 20.22 q 0.66,0 1.08,0.42 0.42,0.42 0.42,1.08 v 3.96 q 0,0.6 -0.42,1.02 -0.42,0.42 -1.08,0.42 z" />
      <path
         id="path24"
         style="font-family:FrankfurterEF;letter-spacing:0.05em"
         d="m 213.15719,93.7 q 0,-1.2 -0.42,-2.28 -0.36,-1.08 -1.02,-2.04 l -7.5,-10.02 6.12,-8.1 q 0.84,-1.08 1.44,-2.34 0.66,-1.32 0.66,-2.7 0,-1.32 -0.54,-2.52 -0.54,-1.2 -1.5,-2.04 -0.9,-0.9 -2.16,-1.38 -1.2,-0.54 -2.52,-0.54 -2.04,0 -3.36,1.02 -1.26,1.02 -2.46,2.52 l -4.02,5.04 -4.26,-5.64 q -1.02,-1.38 -2.4,-2.16 -1.38,-0.78 -3.18,-0.78 -1.38,0 -2.58,0.54 -1.2,0.48 -2.16,1.38 -0.9,0.9 -1.44,2.1 -0.54,1.2 -0.54,2.58 0,1.62 0.84,3.06 0.84,1.38 1.8,2.58 l 5.58,7.38 -7.5,9.9 q -0.72,0.96 -1.14,2.16 -0.42,1.14 -0.42,2.34 0,1.38 0.54,2.58 0.54,1.2 1.44,2.1 0.9,0.84 2.1,1.38 1.2,0.48 2.58,0.48 1.8,0 3,-0.72 1.26,-0.78 2.34,-2.16 l 5.4,-7.02 5.4,7.08 q 1.02,1.32 2.4,2.1 1.38,0.72 3.06,0.72 1.32,0 2.52,-0.54 1.2,-0.54 2.04,-1.44 0.84,-0.9 1.32,-2.1 0.54,-1.2 0.54,-2.52 z m -8.46,-29.4 q 0,0.48 -0.36,0.84 -0.36,0.36 -0.84,0.36 -0.48,0 -0.84,-0.36 -0.3,-0.36 -0.3,-0.84 0,-1.14 1.14,-1.14 0.48,0 0.84,0.36 0.36,0.3 0.36,0.78 z m -2.22,2.28 q 0,0.3 -0.12,0.54 -0.12,0.18 -0.24,0.42 l -3,3.9 q -0.18,0.24 -0.42,0.42 -0.24,0.18 -0.54,0.18 -0.48,0 -0.72,-0.3 -0.24,-0.3 -0.24,-0.72 0,-0.3 0.12,-0.54 0.18,-0.3 0.36,-0.54 l 2.76,-3.6 q 0.42,-0.66 1.08,-0.66 0.36,0 0.66,0.24 0.3,0.24 0.3,0.66 z m -17.4,-2.58 q 0,1.14 -1.14,1.14 -0.48,0 -0.84,-0.3 -0.36,-0.36 -0.36,-0.84 0,-0.48 0.36,-0.84 0.36,-0.36 0.84,-0.36 0.48,0 0.78,0.36 0.36,0.36 0.36,0.84 z m 22.68,32.94 q 0,0.66 -0.48,0.9 -0.42,0.24 -0.96,0.24 -1.38,0 -2.16,-0.66 -0.72,-0.72 -1.44,-1.74 l -5.1,-6.84 q -0.18,-0.24 -0.36,-0.48 -0.12,-0.3 -0.12,-0.6 0,-0.96 0.9,-0.96 0.42,0 0.66,0.3 0.3,0.24 0.54,0.54 l 5.34,7.2 q 0.54,0.72 1.08,0.9 0.54,0.18 1.02,0.3 0.48,0.06 0.78,0.18 0.3,0.12 0.3,0.72 z m -15.72,-17.46 q 0,1.02 -0.6,1.86 -0.54,0.84 -1.14,1.62 l -6.78,8.76 q -0.3,0.36 -0.48,0.84 -0.18,0.42 -0.18,0.9 0,0.96 0.42,1.38 0.48,0.42 1.02,0.66 0.54,0.24 0.96,0.48 0.48,0.18 0.48,0.72 0,0.48 -0.42,0.78 -0.36,0.3 -0.84,0.3 -0.72,0 -1.44,-0.36 -0.66,-0.42 -1.14,-0.96 -0.48,-0.6 -0.78,-1.32 -0.3,-0.72 -0.3,-1.44 0,-1.02 0.36,-1.92 0.42,-0.96 1.08,-1.8 l 6.9,-8.82 q 0.3,-0.36 0.54,-0.78 0.24,-0.48 0.24,-0.96 0,-0.66 -0.36,-1.26 -0.36,-0.6 -0.72,-1.08 l -6.3,-8.46 q -0.24,-0.3 -0.48,-0.72 -0.18,-0.48 -0.18,-0.9 0,-0.48 0.24,-0.78 0.3,-0.3 0.78,-0.3 0.72,0 0.96,0.66 0.12,0.24 0.24,0.48 0.12,0.18 0.24,0.42 l 5.76,7.8 q 0.66,0.96 1.26,1.98 0.66,1.02 0.66,2.22 z" />
      <path
         id="path26"
         style="font-family:'Rubik Medium';letter-spacing:0.075em"
         d="m 231.75063,100 q -0.60001,0 -1.02001,-0.42 -0.42,-0.42 -0.42,-1.02 V 65.38 h -11.1 q -0.6,0 -1.02,-0.42 -0.42,-0.42 -0.42,-1.02 V 59.5 q 0,-0.66 0.42,-1.08 0.42,-0.42 1.02,-0.42 h 30.60001 q 0.65999,0 1.07999,0.42 0.42,0.42 0.42,1.08 v 4.44 q 0,0.6 -0.42,1.02 -0.42,0.42 -1.07999,0.42 h -11.04001 v 33.18 q 0,0.6 -0.42,1.02 -0.42,0.42 -1.08,0.42 z" />
      <path
         id="path28"
         style="font-family:'Rubik Medium';letter-spacing:0.075em"
         d="m 263.33875,100 q -0.6,0 -1.02,-0.42 -0.42,-0.42 -0.42,-1.02 V 59.5 q 0,-0.66 0.42,-1.08 0.42,-0.42 1.02,-0.42 h 26.4 q 0.66,0 1.08,0.42 0.42,0.42 0.42,1.08 v 3.96 q 0,0.6 -0.42,1.02 -0.42,0.42 -1.08,0.42 h -19.74 v 10.62 h 18.42 q 0.66,0 1.08,0.42 0.42,0.42 0.42,1.02 v 3.72 q 0,0.66 -0.42,1.08 -0.42,0.36 -1.08,0.36 h -18.42 V 93.1 h 20.22 q 0.66,0 1.08,0.42 0.42,0.42 0.42,1.08 v 3.96 q 0,0.6 -0.42,1.02 -0.42,0.42 -1.08,0.42 z" />
      <path
         id="path30"
         style="font-family:'Rubik Medium';letter-spacing:0.075em"
         d="m 305.16437,100 q -0.66,0 -1.07999,-0.42 -0.42001,-0.42 -0.42001,-1.02 V 59.5 q 0,-0.66 0.42001,-1.08 0.41999,-0.42 1.07999,-0.42 h 4.74001 q 0.83999,0 1.25999,0.48 0.42001,0.42 0.54001,0.66 l 11.57999,21.6 11.7,-21.6 q 0.12,-0.24 0.54001,-0.66 0.41999,-0.48 1.25999,-0.48 h 4.68001 q 0.65999,0 1.07999,0.42 0.42001,0.42 0.42001,1.08 v 39.06 q 0,0.6 -0.42001,1.02 -0.42,0.42 -1.07999,0.42 h -5.04001 q -0.6,0 -1.01999,-0.42 -0.42001,-0.42 -0.42001,-1.02 V 72.58 l -8.39999,16.02 q -0.30001,0.54 -0.78001,0.96 -0.48,0.36 -1.26,0.36 h -2.45999 q -0.84001,0 -1.32001,-0.36 -0.41999,-0.42 -0.72,-0.96 l -8.39999,-16.02 v 25.98 q 0,0.6 -0.42001,1.02 -0.42,0.42 -1.01999,0.42 z" />
      <path
         id="path32"
         style="font-family:'Rubik Medium';letter-spacing:0.075em"
         d="m 358.23719,100 q -0.6,0 -1.02,-0.42 -0.42,-0.42 -0.42,-1.02 V 59.5 q 0,-0.66 0.42,-1.08 0.42,-0.42 1.02,-0.42 h 16.08 q 7.02,0 11.22,3.36 4.26,3.3 4.26,9.96 0,6.72 -4.26,9.96 -4.2,3.24 -11.22,3.24 h -8.94 v 14.04 q 0,0.6 -0.42,1.02 -0.42,0.42 -1.02,0.42 z m 7.02,-22.14 h 8.76 q 3.48,0 5.34,-1.62 1.86,-1.68 1.86,-4.92 0,-3 -1.74,-4.8 -1.74,-1.86 -5.46,-1.86 h -8.76 z" />
      <path
         id="path34"
         style="font-family:'Rubik Medium';letter-spacing:0.075em"
         d="m 416.92937,100.6 q -7.98,0 -12.65999,-4.02 -4.62,-4.08 -4.86001,-12.42 -0.18,-5.04 0,-10.26 0.24001,-8.16 4.98,-12.3 4.8,-4.2 12.54,-4.2 7.74,0 12.48,4.2 4.80001,4.14 5.1,12.3 0.18,5.22 0,10.26 -0.29999,8.34 -4.91999,12.42 -4.62,4.02 -12.66001,4.02 z m 0,-6.9 q 3.84001,0 6.3,-2.28 2.52,-2.34 2.7,-7.56 0.06,-2.64 0.06,-4.86 0,-2.28 -0.06,-4.86 -0.18,-5.22 -2.7,-7.5 -2.45999,-2.34 -6.3,-2.34 -3.77999,0 -6.3,2.34 -2.46,2.28 -2.64,7.5 -0.12,2.58 -0.12,4.86 0,2.22 0.12,4.86 0.18,5.22 2.64,7.56 2.46001,2.28 6.3,2.28 z" />
      <path
         id="path36"
         style="font-family:'Rubik Medium';letter-spacing:0.075em"
         d="m 448.44812,100 q -0.6,0 -1.01999,-0.42 -0.42001,-0.42 -0.42001,-1.02 V 59.5 q 0,-0.66 0.42001,-1.08 0.41999,-0.42 1.01999,-0.42 h 15.54001 q 7.26,0 11.45999,3.36 4.2,3.36 4.2,9.78 0,4.5 -2.16,7.44 -2.16,2.88 -5.88,4.2 l 8.76001,15.3 q 0.18,0.36 0.18,0.66 0,0.54 -0.42001,0.9 -0.36,0.36 -0.84,0.36 h -5.46 q -1.07999,0 -1.62,-0.54 -0.48,-0.54 -0.77999,-1.08 l -7.74,-14.22 h -8.34001 v 14.4 q 0,0.6 -0.41999,1.02 -0.42001,0.42 -1.02001,0.42 z m 6.9,-22.62 h 8.46001 q 3.65999,0 5.45999,-1.62 1.8,-1.68 1.8,-4.68 0,-3 -1.8,-4.68 -1.74,-1.74 -5.45999,-1.74 h -8.46001 z" />
      <path
         id="path38"
         style="font-family:'Rubik Medium';letter-spacing:0.075em"
         d="m 489.35781,100 q -0.48,0 -0.9,-0.36 -0.36,-0.36 -0.36,-0.9 0,-0.24 0.12,-0.54 l 14.46,-38.7 q 0.18,-0.6 0.66,-1.02 0.54,-0.48 1.44,-0.48 h 6.54 q 0.9,0 1.38,0.48 0.54,0.42 0.72,1.02 l 14.46,38.7 q 0.06,0.3 0.06,0.54 0,0.54 -0.36,0.9 -0.36,0.36 -0.84,0.36 h -5.22 q -0.84,0 -1.26,-0.36 -0.36,-0.42 -0.48,-0.78 l -2.82,-7.32 h -17.82 l -2.82,7.32 q -0.12,0.36 -0.54,0.78 -0.36,0.36 -1.2,0.36 z m 11.88,-15.36 h 13.62 l -6.84,-18.54 z" />
      <path
         id="path40"
         style="font-family:'Rubik Medium';letter-spacing:0.075em"
         d="m 539.47937,100 q -0.6,0 -1.01999,-0.42 -0.42001,-0.42 -0.42001,-1.02 V 59.5 q 0,-0.66 0.42001,-1.08 0.41999,-0.42 1.01999,-0.42 h 4.62 q 0.84001,0 1.20001,0.42 0.42,0.36 0.54,0.54 l 17.27999,26.88 V 59.5 q 0,-0.66 0.36,-1.08 0.42,-0.42 1.08001,-0.42 h 5.03999 q 0.66,0 1.08001,0.42 0.41999,0.42 0.41999,1.08 v 39 q 0,0.66 -0.41999,1.08 -0.42001,0.42 -1.02001,0.42 h -4.68 q -0.84,0 -1.25999,-0.36 -0.36001,-0.42 -0.48001,-0.6 l -17.22,-26.28 v 25.8 q 0,0.6 -0.42,1.02 -0.41999,0.42 -1.08,0.42 z" />
      <path
         id="path42"
         style="font-family:'Rubik Medium';letter-spacing:0.075em"
         d="m 586.40125,100 q -0.6,0 -1.02,-0.42 -0.42,-0.42 -0.42,-1.02 V 59.5 q 0,-0.66 0.42,-1.08 0.42,-0.42 1.02,-0.42 h 26.4 q 0.66,0 1.08,0.42 0.42,0.42 0.42,1.08 v 3.96 q 0,0.6 -0.42,1.02 -0.42,0.42 -1.08,0.42 h -19.74 v 10.62 h 18.42 q 0.66,0 1.08,0.42 0.42,0.42 0.42,1.02 v 3.72 q 0,0.66 -0.42,1.08 -0.42,0.36 -1.08,0.36 h -18.42 V 93.1 h 20.22 q 0.66,0 1.08,0.42 0.42,0.42 0.42,1.08 v 3.96 q 0,0.6 -0.42,1.02 -0.42,0.42 -1.08,0.42 z" />
      <path
         id="path44"
         style="font-family:'Rubik Medium';letter-spacing:0.075em"
         d="m 624.14688,100 q -0.48001,0 -0.9,-0.36 -0.36,-0.36 -0.36,-0.9 0,-0.24 0.12,-0.54 l 14.45999,-38.7 q 0.18001,-0.6 0.66001,-1.02 0.53999,-0.48 1.43999,-0.48 h 6.54 q 0.90001,0 1.38001,0.48 0.54,0.42 0.71999,1.02 l 14.46,38.7 q 0.06,0.3 0.06,0.54 0,0.54 -0.35999,0.9 -0.36,0.36 -0.84,0.36 h -5.22001 q -0.84,0 -1.26,-0.36 -0.36,-0.42 -0.48,-0.78 l -2.81999,-7.32 h -17.82001 l -2.82,7.32 q -0.11999,0.36 -0.54,0.78 -0.36,0.36 -1.19999,0.36 z m 11.88,-15.36 h 13.62 L 642.80687,66.1 Z" />
    </g>
  </g>
</svg>
