<?xml version="1.0" encoding="UTF-8" standalone="no"?>
<svg
   xmlns:dc="http://purl.org/dc/elements/1.1/"
   xmlns:cc="http://creativecommons.org/ns#"
   xmlns:rdf="http://www.w3.org/1999/02/22-rdf-syntax-ns#"
   xmlns:svg="http://www.w3.org/2000/svg"
   xmlns="http://www.w3.org/2000/svg"
   id="svg16"
   width="800px"
   version="1.1"
   height="200px">
  <metadata
     id="metadata20">
    <rdf:RDF>
      <cc:Work
         rdf:about="">
        <dc:format>image/svg+xml</dc:format>
        <dc:type
           rdf:resource="http://purl.org/dc/dcmitype/StillImage" />
      </cc:Work>
    </rdf:RDF>
  </metadata>
  <defs
     id="defs4">
    <style
       id="style2"
       type="text/css"><![CDATA[    
     @font-face {font-family:Rubik Medium;
     src: url('/Users/francesco/Repos/write-logos/src/fonts/Fonts_E_TEMPORANEA/Rubik-Medium.ttf');}
     @font-face {font-family:Brandon;
     src: url('/Users/francesco/Repos/write-logos/src/fonts/Fonts_X/BrandonFree.ttf');}
     ]]></style>
  </defs>
  <g
     id="g14"
     style="font-size:60px">
    <g
       style="text-anchor:middle"
       id="text12"
       aria-label="EXTEMPORANEA">
      <path
         id="path22"
         style="font-family:'Rubik Medium';letter-spacing:0.075em"
         d="m 143.40906,100 q -0.6,0 -1.02,-0.42 -0.42,-0.42 -0.42,-1.02 V 59.5 q 0,-0.66 0.42,-1.08 0.42,-0.42 1.02,-0.42 h 26.4 q 0.66,0 1.08,0.42 0.42,0.42 0.42,1.08 v 3.96 q 0,0.6 -0.42,1.02 -0.42,0.42 -1.08,0.42 h -19.74 v 10.62 h 18.42 q 0.66,0 1.08,0.42 0.42,0.42 0.42,1.02 v 3.72 q 0,0.66 -0.42,1.08 -0.42,0.36 -1.08,0.36 h -18.42 V 93.1 h 20.22 q 0.66,0 1.08,0.42 0.42,0.42 0.42,1.08 v 3.96 q 0,0.6 -0.42,1.02 -0.42,0.42 -1.08,0.42 z" />
      <path
         id="path24"
         style="font-family:Brandon;letter-spacing:0.05em"
         d="m 179.37695,70.615234 v 0 0 q -0.32226,-0.55664 0.32227,-1.611328 0.67383,-1.054687 1.75781,-2.138672 1.08399,-1.113281 1.99219,-1.816406 0.9082,-0.703125 1.08398,-0.556641 3.22266,4.482422 6.91407,8.613282 0.64453,0.703125 1.28906,1.464843 2.49023,3.046875 5.41992,5.595704 0.9082,0.732421 1.9043,1.40625 1.08398,0.732421 2.10937,1.582031 0.9375,0.820312 1.78711,1.757812 0.79102,0.84961 1.66992,1.611328 1.20117,0.996094 2.60742,1.757813 2.49024,1.201172 3.95508,3.457031 0.20508,0.439453 -0.0879,1.054688 -0.29297,0.615234 -0.76172,1.230468 -0.46875,0.615235 -0.84961,1.025391 -0.14648,0.175781 -0.26367,0.263672 -0.0879,0.117187 -0.52734,0.615234 -0.43945,0.46875 -1.02539,0.996094 -0.55664,0.527344 -1.02539,0.849609 -0.46875,0.322266 -0.61524,0.117188 -1.46484,-2.285156 -3.98437,-3.457031 -1.37696,-0.791016 -2.57813,-1.757813 -0.8789,-0.791015 -1.69922,-1.640625 -0.84961,-0.908203 -1.75781,-1.757812 -1.02539,-0.820313 -2.10937,-1.582032 -0.9668,-0.644531 -1.9043,-1.376953 -2.92969,-2.578125 -5.41992,-5.595703 -0.64453,-0.761719 -1.28906,-1.49414 -3.69141,-4.101563 -6.91407,-8.613282 z m 27.53907,-3.574218 v 0 0 q 0.0586,-0.05859 0.11718,-0.175782 0.32227,-0.439453 0.9668,-1.230468 0.67383,-0.820313 1.37695,-1.464844 0.70313,-0.644531 1.14258,-0.556641 0.43945,0.146485 0.26367,0.703125 -0.17578,0.527344 -0.58593,1.113281 -0.38086,0.556641 -0.64454,0.878907 -0.0293,0.05859 -0.0586,0.08789 -11.95312,15.585938 -24.72656,30.527344 0,0 -0.0293,0.05859 -0.23437,0.292969 -0.87891,0.996094 -0.61523,0.673828 -1.28906,1.201171 -0.64453,0.498047 -0.99609,0.292969 -0.26367,-0.292969 0.11719,-1.02539 0.41015,-0.761719 0.99609,-1.494141 0.58594,-0.732422 0.82031,-1.025391 0.0293,-0.0293 0.0293,-0.0293 12.07031,-14.121093 23.37891,-28.857421 z" />
      <path
         id="path26"
         style="font-family:'Rubik Medium';letter-spacing:0.075em"
         d="m 230.81313,100 q -0.60001,0 -1.02001,-0.42 -0.42,-0.42 -0.42,-1.02 V 65.38 h -11.1 q -0.6,0 -1.02,-0.42 -0.42,-0.42 -0.42,-1.02 V 59.5 q 0,-0.66 0.42,-1.08 0.42,-0.42 1.02,-0.42 h 30.60001 q 0.65999,0 1.07999,0.42 0.42,0.42 0.42,1.08 v 4.44 q 0,0.6 -0.42,1.02 -0.42,0.42 -1.07999,0.42 h -11.04001 v 33.18 q 0,0.6 -0.42,1.02 -0.42,0.42 -1.08,0.42 z" />
      <path
         id="path28"
         style="font-family:'Rubik Medium';letter-spacing:0.075em"
         d="m 262.40125,100 q -0.6,0 -1.02,-0.42 -0.42,-0.42 -0.42,-1.02 V 59.5 q 0,-0.66 0.42,-1.08 0.42,-0.42 1.02,-0.42 h 26.4 q 0.66,0 1.08,0.42 0.42,0.42 0.42,1.08 v 3.96 q 0,0.6 -0.42,1.02 -0.42,0.42 -1.08,0.42 h -19.74 v 10.62 h 18.42 q 0.66,0 1.08,0.42 0.42,0.42 0.42,1.02 v 3.72 q 0,0.66 -0.42,1.08 -0.42,0.36 -1.08,0.36 h -18.42 V 93.1 h 20.22 q 0.66,0 1.08,0.42 0.42,0.42 0.42,1.08 v 3.96 q 0,0.6 -0.42,1.02 -0.42,0.42 -1.08,0.42 z" />
      <path
         id="path30"
         style="font-family:'Rubik Medium';letter-spacing:0.075em"
         d="m 304.22687,100 q -0.66,0 -1.07999,-0.42 -0.42001,-0.42 -0.42001,-1.02 V 59.5 q 0,-0.66 0.42001,-1.08 0.41999,-0.42 1.07999,-0.42 h 4.74001 q 0.83999,0 1.25999,0.48 0.42001,0.42 0.54001,0.66 l 11.57999,21.6 11.7,-21.6 q 0.12,-0.24 0.54001,-0.66 0.41999,-0.48 1.25999,-0.48 h 4.68001 q 0.65999,0 1.07999,0.42 0.42001,0.42 0.42001,1.08 v 39.06 q 0,0.6 -0.42001,1.02 -0.42,0.42 -1.07999,0.42 h -5.04001 q -0.6,0 -1.01999,-0.42 -0.42001,-0.42 -0.42001,-1.02 V 72.58 l -8.39999,16.02 q -0.30001,0.54 -0.78001,0.96 -0.48,0.36 -1.26,0.36 h -2.45999 q -0.84001,0 -1.32001,-0.36 -0.41999,-0.42 -0.72,-0.96 l -8.39999,-16.02 v 25.98 q 0,0.6 -0.42001,1.02 -0.42,0.42 -1.01999,0.42 z" />
      <path
         id="path32"
         style="font-family:'Rubik Medium';letter-spacing:0.075em"
         d="m 357.29969,100 q -0.6,0 -1.02,-0.42 -0.42,-0.42 -0.42,-1.02 V 59.5 q 0,-0.66 0.42,-1.08 0.42,-0.42 1.02,-0.42 h 16.08 q 7.02,0 11.22,3.36 4.26,3.3 4.26,9.96 0,6.72 -4.26,9.96 -4.2,3.24 -11.22,3.24 h -8.94 v 14.04 q 0,0.6 -0.42,1.02 -0.42,0.42 -1.02,0.42 z m 7.02,-22.14 h 8.76 q 3.48,0 5.34,-1.62 1.86,-1.68 1.86,-4.92 0,-3 -1.74,-4.8 -1.74,-1.86 -5.46,-1.86 h -8.76 z" />
      <path
         id="path34"
         style="font-family:'Rubik Medium';letter-spacing:0.075em"
         d="m 415.99187,100.6 q -7.98,0 -12.65999,-4.02 -4.62,-4.08 -4.86001,-12.42 -0.18,-5.04 0,-10.26 0.24001,-8.16 4.98,-12.3 4.8,-4.2 12.54,-4.2 7.74,0 12.48,4.2 4.80001,4.14 5.1,12.3 0.18,5.22 0,10.26 -0.29999,8.34 -4.91999,12.42 -4.62,4.02 -12.66001,4.02 z m 0,-6.9 q 3.84001,0 6.3,-2.28 2.52,-2.34 2.7,-7.56 0.06,-2.64 0.06,-4.86 0,-2.28 -0.06,-4.86 -0.18,-5.22 -2.7,-7.5 -2.45999,-2.34 -6.3,-2.34 -3.77999,0 -6.3,2.34 -2.46,2.28 -2.64,7.5 -0.12,2.58 -0.12,4.86 0,2.22 0.12,4.86 0.18,5.22 2.64,7.56 2.46001,2.28 6.3,2.28 z" />
      <path
         id="path36"
         style="font-family:'Rubik Medium';letter-spacing:0.075em"
         d="m 447.51062,100 q -0.6,0 -1.01999,-0.42 -0.42001,-0.42 -0.42001,-1.02 V 59.5 q 0,-0.66 0.42001,-1.08 0.41999,-0.42 1.01999,-0.42 h 15.54001 q 7.26,0 11.45999,3.36 4.2,3.36 4.2,9.78 0,4.5 -2.16,7.44 -2.16,2.88 -5.88,4.2 l 8.76001,15.3 q 0.18,0.36 0.18,0.66 0,0.54 -0.42001,0.9 -0.36,0.36 -0.84,0.36 h -5.46 q -1.07999,0 -1.62,-0.54 -0.48,-0.54 -0.77999,-1.08 l -7.74,-14.22 h -8.34001 v 14.4 q 0,0.6 -0.41999,1.02 -0.42001,0.42 -1.02001,0.42 z m 6.9,-22.62 h 8.46001 q 3.65999,0 5.45999,-1.62 1.8,-1.68 1.8,-4.68 0,-3 -1.8,-4.68 -1.74,-1.74 -5.45999,-1.74 h -8.46001 z" />
      <path
         id="path38"
         style="font-family:'Rubik Medium';letter-spacing:0.075em"
         d="m 488.42031,100 q -0.48,0 -0.9,-0.36 -0.36,-0.36 -0.36,-0.9 0,-0.24 0.12,-0.54 l 14.46,-38.7 q 0.18,-0.6 0.66,-1.02 0.54,-0.48 1.44,-0.48 h 6.54 q 0.9,0 1.38,0.48 0.54,0.42 0.72,1.02 l 14.46,38.7 q 0.06,0.3 0.06,0.54 0,0.54 -0.36,0.9 -0.36,0.36 -0.84,0.36 h -5.22 q -0.84,0 -1.26,-0.36 -0.36,-0.42 -0.48,-0.78 l -2.82,-7.32 h -17.82 l -2.82,7.32 q -0.12,0.36 -0.54,0.78 -0.36,0.36 -1.2,0.36 z m 11.88,-15.36 h 13.62 l -6.84,-18.54 z" />
      <path
         id="path40"
         style="font-family:'Rubik Medium';letter-spacing:0.075em"
         d="m 538.54187,100 q -0.6,0 -1.01999,-0.42 -0.42001,-0.42 -0.42001,-1.02 V 59.5 q 0,-0.66 0.42001,-1.08 0.41999,-0.42 1.01999,-0.42 h 4.62 q 0.84001,0 1.20001,0.42 0.42,0.36 0.54,0.54 l 17.27999,26.88 V 59.5 q 0,-0.66 0.36,-1.08 0.42,-0.42 1.08001,-0.42 h 5.03999 q 0.66,0 1.08001,0.42 0.41999,0.42 0.41999,1.08 v 39 q 0,0.66 -0.41999,1.08 -0.42001,0.42 -1.02001,0.42 h -4.68 q -0.84,0 -1.25999,-0.36 -0.36001,-0.42 -0.48001,-0.6 l -17.22,-26.28 v 25.8 q 0,0.6 -0.42,1.02 -0.41999,0.42 -1.08,0.42 z" />
      <path
         id="path42"
         style="font-family:'Rubik Medium';letter-spacing:0.075em"
         d="m 585.46375,100 q -0.6,0 -1.02,-0.42 -0.42,-0.42 -0.42,-1.02 V 59.5 q 0,-0.66 0.42,-1.08 0.42,-0.42 1.02,-0.42 h 26.4 q 0.66,0 1.08,0.42 0.42,0.42 0.42,1.08 v 3.96 q 0,0.6 -0.42,1.02 -0.42,0.42 -1.08,0.42 h -19.74 v 10.62 h 18.42 q 0.66,0 1.08,0.42 0.42,0.42 0.42,1.02 v 3.72 q 0,0.66 -0.42,1.08 -0.42,0.36 -1.08,0.36 h -18.42 V 93.1 h 20.22 q 0.66,0 1.08,0.42 0.42,0.42 0.42,1.08 v 3.96 q 0,0.6 -0.42,1.02 -0.42,0.42 -1.08,0.42 z" />
      <path
         id="path44"
         style="font-family:'Rubik Medium';letter-spacing:0.075em"
         d="m 623.20938,100 q -0.48001,0 -0.9,-0.36 -0.36,-0.36 -0.36,-0.9 0,-0.24 0.12,-0.54 l 14.45999,-38.7 q 0.18001,-0.6 0.66001,-1.02 0.53999,-0.48 1.43999,-0.48 h 6.54 q 0.90001,0 1.38001,0.48 0.54,0.42 0.71999,1.02 l 14.46,38.7 q 0.06,0.3 0.06,0.54 0,0.54 -0.35999,0.9 -0.36,0.36 -0.84,0.36 h -5.22001 q -0.84,0 -1.26,-0.36 -0.36,-0.42 -0.48,-0.78 l -2.81999,-7.32 h -17.82001 l -2.82,7.32 q -0.11999,0.36 -0.54,0.78 -0.36,0.36 -1.19999,0.36 z m 11.88,-15.36 h 13.62 L 641.86937,66.1 Z" />
    </g>
  </g>
</svg>
