<?xml version="1.0" encoding="UTF-8" standalone="no"?>
<svg
   xmlns:dc="http://purl.org/dc/elements/1.1/"
   xmlns:cc="http://creativecommons.org/ns#"
   xmlns:rdf="http://www.w3.org/1999/02/22-rdf-syntax-ns#"
   xmlns:svg="http://www.w3.org/2000/svg"
   xmlns="http://www.w3.org/2000/svg"
   id="svg16"
   width="800px"
   version="1.1"
   height="200px">
  <metadata
     id="metadata20">
    <rdf:RDF>
      <cc:Work
         rdf:about="">
        <dc:format>image/svg+xml</dc:format>
        <dc:type
           rdf:resource="http://purl.org/dc/dcmitype/StillImage" />
      </cc:Work>
    </rdf:RDF>
  </metadata>
  <defs
     id="defs4">
    <style
       id="style2"
       type="text/css"><![CDATA[    
     @font-face {font-family:Rubik Medium;
     src: url('/Users/francesco/Repos/write-logos/src/fonts/Fonts_E_TEMPORANEA/Rubik-Medium.ttf');}
     @font-face {font-family:MADE Soulmaze Brush;
     src: url('/Users/francesco/Repos/write-logos/src/fonts/Fonts_X/SoulmazeBrush.otf');}
     ]]></style>
  </defs>
  <g
     id="g14"
     style="font-size:60px">
    <g
       style="text-anchor:middle"
       id="text12"
       aria-label="EXTEMPORANEA">
      <path
         id="path22"
         style="font-family:'Rubik Medium';letter-spacing:0.075em"
         d="m 145.04969,100 q -0.6,0 -1.02,-0.42 -0.42,-0.42 -0.42,-1.02 V 59.5 q 0,-0.66 0.42,-1.08 0.42,-0.42 1.02,-0.42 h 26.4 q 0.66,0 1.08,0.42 0.42,0.42 0.42,1.08 v 3.96 q 0,0.6 -0.42,1.02 -0.42,0.42 -1.08,0.42 h -19.74 v 10.62 h 18.42 q 0.66,0 1.08,0.42 0.42,0.42 0.42,1.02 v 3.72 q 0,0.66 -0.42,1.08 -0.42,0.36 -1.08,0.36 h -18.42 V 93.1 h 20.22 q 0.66,0 1.08,0.42 0.42,0.42 0.42,1.08 v 3.96 q 0,0.6 -0.42,1.02 -0.42,0.42 -1.08,0.42 z" />
      <path
         id="path24"
         style="font-family:'MADE Soulmaze Brush';letter-spacing:0.05em"
         d="m 188.43531,66.28 c -0.06,-0.06 -0.06,-0.06 -0.06,-0.06 0,0 0.06,0 0.06,0.06 0.06,0.06 0,0.18 0.06,0.24 0.06,0.36 0.18,0.66 0.18,1.02 0.06,0.36 0.12,0.66 0.18,0.96 0.06,0.6 0.18,1.14 0.3,1.68 0.12,0.48 0.18,1.02 0.36,1.56 0.06,0.18 0,0.42 0.06,0.6 0.12,0.24 0.18,0.48 0.12,0.78 0.12,0.24 0.24,0.42 0.24,0.66 0,0.12 0.06,0.18 0.12,0.24 0,0.3 -0.12,0.66 0.12,0.9 0,0.24 0.06,0.48 0.18,0.66 -0.06,0.12 -0.12,0.18 -0.18,0.3 -0.12,0.12 -0.24,0.24 -0.3,0.36 -0.06,0.18 -0.24,0.36 -0.42,0.54 -0.12,0.24 -0.36,0.42 -0.54,0.6 -0.12,0.18 -0.3,0.36 -0.48,0.54 -0.24,0.24 -0.42,0.42 -0.6,0.72 -0.12,0.18 -0.24,0.36 -0.42,0.54 -0.24,0.3 -0.42,0.6 -0.6,0.9 -0.06,0.06 -0.18,0.18 -0.24,0.24 -0.36,0.36 -0.78,0.72 -1.02,1.2 -0.06,0.06 -0.06,0.12 -0.12,0.12 -0.24,0.3 -0.42,0.54 -0.66,0.78 -0.12,0.24 -0.3,0.42 -0.42,0.66 -0.3,0.42 -0.6,0.84 -0.84,1.26 -0.24,0.42 -0.48,0.78 -0.84,1.14 -0.3,0.3 -0.54,0.66 -0.66,1.02 -0.06,0.24 -0.24,0.42 -0.48,0.54 -0.3,0.24 -0.54,0.48 -0.72,0.78 -0.12,0.24 -0.24,0.48 -0.42,0.66 0,0.06 0,0.18 -0.06,0.24 -0.06,0.12 -0.12,0.3 -0.24,0.42 -0.3,0.36 -0.54,0.84 -0.78,1.26 -0.18,0.36 -0.42,0.6 -0.54,0.96 -0.12,0.18 -0.24,0.36 -0.24,0.6 -0.06,0.12 -0.12,0.18 -0.18,0.3 -0.18,0.36 -0.3,0.78 -0.54,1.02 -0.06,0.06 -0.06,0.06 -0.06,0.06 -0.18,0.36 -0.3,0.78 -0.6,1.14 0.12,0.18 -0.06,0.3 0,0.48 0.12,0 0.18,0 0.3,0 0.06,0.36 -0.18,0.6 -0.3,0.9 0,0.06 0,0.12 0,0.12 0,0.06 0,0.12 0,0.18 -0.06,0.18 -0.06,0.18 0,0.48 0.24,-0.18 0.36,-0.54 0.6,-0.72 0.3,0.24 0.06,0.48 0.06,0.72 0,0.06 0.06,0.12 0.12,0.18 -0.06,0.12 -0.06,0.18 -0.06,0.3 -0.12,0.12 -0.18,0.18 -0.24,0.3 -0.06,0.12 -0.18,0.24 -0.18,0.42 0,0.24 -0.06,0.42 -0.18,0.6 -0.12,0.24 -0.18,0.48 -0.12,0.72 0.36,-0.24 0.54,-0.66 0.9,-0.84 0.06,0 0.18,0.06 0.3,0 0.3,-0.3 0.48,-0.78 0.78,-1.2 0.06,0 0.12,-0.06 0.18,-0.12 0,0 0.06,0 0.06,0 0,-0.06 0,-0.06 0.06,-0.12 0,0.06 -0.06,0.06 -0.06,0.12 0,0 0,0 -0.06,0 -0.06,0.18 -0.18,0.36 -0.18,0.54 0.18,-0.12 0.3,-0.3 0.48,-0.42 0.12,0 0.18,-0.06 0.24,-0.18 0.24,-0.24 0.42,-0.48 0.6,-0.72 0.36,-0.42 0.66,-0.84 1.02,-1.2 0.18,-0.18 0.36,-0.36 0.54,-0.54 0.12,-0.12 0.24,-0.24 0.42,-0.3 0.06,-0.24 0.06,-0.24 0.3,-0.3 0.06,-0.06 0.06,-0.18 0.18,-0.3 0.06,-0.06 0.18,-0.06 0.3,-0.18 0.06,0 -0.06,-0.12 0,-0.18 0.3,0.06 0.36,-0.24 0.54,-0.3 0.06,-0.06 0,-0.12 0.06,-0.18 0,0 0.06,0 0.12,0 0.24,-0.18 0.36,-0.48 0.6,-0.66 0,-0.06 -0.12,0 -0.12,-0.12 0.06,0 0.06,-0.06 0.12,-0.06 0.06,0.06 0.06,0.12 0.12,0.12 0.18,-0.12 0.3,-0.3 0.36,-0.54 0,-0.06 0.06,-0.12 0.18,-0.12 0.06,-0.06 0.12,0 0.12,-0.06 0.18,-0.18 0.36,-0.36 0.54,-0.48 0.24,-0.36 0.36,-0.66 0.84,-0.72 0.06,-0.18 0.3,-0.3 0.42,-0.48 0.06,-0.06 0.18,-0.18 0.24,-0.18 0.12,0 0.18,-0.06 0.24,-0.06 0.18,-0.12 0.36,-0.24 0.42,-0.48 0.06,-0.06 0.06,-0.06 0.12,-0.06 0,-0.06 -0.06,-0.12 0,-0.12 0.06,-0.06 0.12,-0.18 0.24,-0.18 0.06,0.12 0.06,0.24 0.06,0.36 0.12,0 0.18,-0.06 0.24,-0.12 0.12,-0.12 0.3,-0.24 0.48,-0.3 0.12,-0.06 0.24,-0.12 0.36,-0.24 0.18,-0.18 0.42,-0.42 0.66,-0.6 0.24,-0.18 0.42,-0.36 0.66,-0.48 0.06,-0.12 0.06,-0.3 0.12,-0.42 0.18,-0.18 0.36,-0.36 0.48,-0.54 0.42,-0.06 0.72,-0.3 1.08,-0.6 0.06,0.18 0.18,0.36 0.36,0.48 0.06,0.06 0.06,0.18 0.06,0.24 0,0.24 0,0.54 0.12,0.72 0.18,0.42 0.36,0.9 0.54,1.32 0.12,0.3 0.24,0.54 0.24,0.84 0,0.06 0.06,0.06 0.12,0.06 0.06,0.3 0.12,0.66 0.24,0.96 0.12,0.42 0.18,0.9 0.3,1.32 0.06,0.12 0.12,0.18 0.18,0.24 -0.06,0.12 0,0.24 0,0.3 0.06,0.18 0.18,0.36 0.12,0.54 0,0.18 0.06,0.3 0.18,0.42 0,0.12 0.06,0.24 0.06,0.36 0.06,0.36 0.18,0.66 0.24,1.02 0.06,0.3 0.12,0.54 0.24,0.84 0.06,0.36 0.12,0.72 0.24,1.08 0.12,0.3 0.12,0.6 0.24,0.9 0.12,0.42 0.24,0.9 0.3,1.32 0.06,0.06 0.06,0.12 0.06,0.18 -0.06,0.24 0.06,0.42 0.12,0.66 0.06,0.24 0.06,0.42 0.12,0.6 0.12,0.3 0.12,0.6 0.24,0.84 0.06,0.18 0.12,0.3 0.12,0.48 0,0.06 0.06,0.12 0.06,0.18 0.06,0.18 0.12,0.42 0.24,0.6 0.12,0.42 0.24,0.84 0.42,1.26 0.06,0.24 0.24,0.42 0.3,0.72 0.06,0.18 0.12,0.42 0.24,0.66 0.12,0.06 0.18,0.12 0.36,0.18 -0.18,-0.3 -0.24,-0.6 -0.3,-0.96 0,0.06 0.06,0.12 0.06,0.18 0.06,0.24 0.18,0.42 0.36,0.54 0.06,0.06 0.12,0.12 0.12,0.24 0.12,0.3 0.36,0.6 0.48,0.96 0,0.06 0,0.12 0.06,0.18 0.24,0.12 0.42,0.36 0.66,0.48 0.12,-0.06 0.12,-0.18 0.06,-0.24 -0.12,-0.24 -0.3,-0.54 -0.42,-0.78 -0.24,-0.3 -0.42,-0.6 -0.48,-0.96 -0.06,-0.12 -0.06,-0.24 -0.18,-0.36 -0.06,-0.06 -0.06,-0.12 -0.06,-0.18 -0.06,-0.06 -0.18,-0.06 -0.18,-0.24 0,0 0.06,0 0.12,0 0,0.06 0.12,0.06 0.12,0.12 0.06,0.36 0.3,0.66 0.42,0.96 0,0.06 0.06,0.06 0.06,0.12 0.12,0.24 0.36,0.36 0.42,0.6 0.24,0.48 0.6,0.84 0.84,1.26 0.12,0.24 0.3,0.48 0.54,0.72 0.18,0 0.36,0.12 0.42,0.3 0.12,0.12 0.24,0.18 0.36,0.18 0.12,0.06 0.12,0.12 0.18,0.12 0.18,0 0.3,-0.06 0.36,-0.12 0.12,-0.06 0.12,0.06 0.18,0 -0.06,-0.18 -0.12,-0.36 -0.18,-0.48 0,-0.12 0.12,-0.18 0.12,-0.24 -0.24,-0.42 -0.6,-0.84 -0.66,-1.38 0.12,0 0.24,0.12 0.36,0 0.06,-0.06 0,-0.18 0.06,-0.24 0.24,0.06 0.06,0.36 0.3,0.48 0,0.18 0.06,0.42 0.18,0.54 0.06,0.12 0.12,0.24 0.12,0.36 0.06,0.48 0.24,0.84 0.36,1.26 0.06,0.12 0.18,0.18 0.3,0.24 -0.06,-0.24 -0.24,-0.36 -0.24,-0.54 -0.06,-0.24 -0.18,-0.42 -0.12,-0.66 0.12,0.12 0.24,0.24 0.36,0.36 0.06,-0.06 0.06,-0.18 0.18,-0.18 0.18,0.12 0.36,0.3 0.48,0.48 0.18,-0.06 0.3,-0.18 0.48,-0.3 0,-0.24 0,-0.48 -0.12,-0.72 -0.12,-0.24 -0.18,-0.54 -0.3,-0.78 -0.12,-0.18 -0.12,-0.36 -0.12,-0.54 0,-0.06 0.06,-0.12 0,-0.18 -0.06,-0.24 0,-0.54 0,-0.84 0.06,-0.06 0,-0.12 0,-0.18 -0.12,-0.36 -0.3,-0.66 -0.18,-1.02 0,-0.06 -0.06,-0.06 -0.06,-0.12 0,-0.24 -0.06,-0.42 0.06,-0.66 0.06,-0.12 0,-0.3 -0.06,-0.48 -0.12,-0.24 -0.24,-0.54 -0.24,-0.84 -0.12,-0.48 -0.12,-0.9 -0.18,-1.38 0,-0.3 0,-0.54 -0.12,-0.84 0,-0.12 -0.06,-0.24 0,-0.36 -0.06,-0.12 -0.06,-0.24 -0.06,-0.36 0,-0.18 -0.06,-0.3 -0.12,-0.48 0,-0.06 0,-0.12 0,-0.18 0,-0.24 -0.06,-0.48 -0.12,-0.72 0,-0.3 -0.06,-0.54 -0.06,-0.78 -0.06,-0.3 -0.06,-0.6 -0.24,-0.84 0,-0.06 0,-0.12 0,-0.18 0,-0.24 -0.12,-0.48 -0.12,-0.72 0.06,-0.24 -0.18,-0.48 -0.12,-0.72 0.06,-0.12 -0.06,-0.18 -0.06,-0.3 0,-0.18 0,-0.36 0,-0.6 0,0 -0.06,-0.06 -0.12,-0.06 -0.06,0 0,0.12 -0.06,0.12 -0.36,-1.5 -0.6,-3.06 -0.9,-4.56 0.06,0.3 0.18,0.6 0.3,0.96 0.06,-0.12 0.06,-0.18 0.06,-0.18 -0.12,-0.36 -0.18,-0.66 -0.24,-1.02 0,-0.36 -0.12,-0.66 -0.18,-1.02 0,-0.24 -0.06,-0.48 -0.3,-0.66 0,-0.12 -0.06,-0.24 -0.06,-0.36 0,-0.24 -0.12,-0.48 -0.06,-0.66 0.06,-0.18 0.06,-0.36 -0.06,-0.54 -0.06,-0.06 -0.12,0 -0.18,-0.06 -0.06,-0.24 -0.18,-0.48 -0.18,-0.84 0.18,0.24 0.12,0.48 0.3,0.72 0.06,-0.12 0,-0.18 0,-0.3 -0.06,-0.24 -0.18,-0.54 -0.18,-0.78 0,-0.24 -0.06,-0.48 -0.12,-0.72 -0.12,-0.24 -0.18,-0.54 -0.36,-0.78 -0.06,-0.18 -0.12,-0.36 -0.12,-0.54 0,-0.18 0,-0.36 -0.06,-0.54 -0.06,-0.3 -0.06,-0.6 0,-0.84 0,-0.12 -0.12,-0.18 -0.06,-0.3 -0.06,-0.06 -0.12,0.06 -0.12,0 -0.12,-0.12 -0.06,-0.24 0,-0.36 -0.18,-0.12 -0.24,-0.24 -0.18,-0.42 0.06,-0.06 0.12,-0.12 0.12,-0.12 0,-0.06 0,-0.12 0,-0.12 0,-0.06 0.06,-0.06 0.12,-0.12 0.12,-0.24 0.3,-0.42 0.54,-0.54 0.06,-0.06 0.12,-0.12 0.12,-0.18 0.12,-0.18 0.24,-0.24 0.36,-0.36 0.18,-0.12 0.36,-0.24 0.48,-0.42 0.06,-0.18 0.12,-0.3 0.24,-0.36 0.18,-0.06 0.24,-0.24 0.42,-0.24 0,0 0,0 0,0 -0.06,-0.18 0.06,-0.24 0.12,-0.24 0.12,-0.06 0.18,-0.12 0.24,-0.18 0.18,-0.18 0.36,-0.42 0.6,-0.48 0.06,-0.12 0.06,-0.24 0.12,-0.3 0.06,-0.06 0.18,-0.12 0.24,-0.12 0.06,-0.06 0.06,-0.18 0.12,-0.24 0.24,-0.18 0.36,-0.42 0.6,-0.6 0.06,-0.06 0.12,-0.12 0.18,-0.18 0.24,-0.3 0.6,-0.54 0.78,-0.9 0,0 0,0 0,0 0.18,-0.18 0.36,-0.3 0.48,-0.48 0.18,-0.18 0.36,-0.42 0.48,-0.66 0.06,-0.12 0.12,-0.18 0.24,-0.3 0.06,-0.06 0.18,-0.12 0.24,-0.24 0.06,-0.06 0.12,-0.18 0.18,-0.24 0.12,-0.06 0.24,-0.18 0.36,-0.3 0.18,-0.3 0.42,-0.54 0.66,-0.78 0.12,-0.12 0.24,-0.24 0.3,-0.3 0.24,-0.24 0.36,-0.54 0.6,-0.72 0.18,-0.18 0.36,-0.42 0.48,-0.66 0.12,-0.18 0.18,-0.3 0.3,-0.42 0.24,-0.18 0.36,-0.42 0.54,-0.66 0.18,-0.3 0.48,-0.6 0.66,-0.9 0.06,-0.12 0.18,-0.18 0.24,-0.24 0.3,-0.18 0.6,-0.42 0.84,-0.66 0.06,-0.06 0.12,-0.18 0.24,-0.24 0.18,-0.06 0.36,-0.24 0.48,-0.36 0.12,-0.06 0.18,-0.18 0.24,-0.24 0.12,-0.42 0.42,-0.78 0.66,-1.14 0.12,-0.12 0.24,-0.24 0.36,-0.42 0.12,-0.18 0.24,-0.3 0.36,-0.42 0.36,-0.24 0.72,-0.48 0.9,-0.9 0.18,-0.36 0.42,-0.78 0.6,-1.14 0,-0.06 0,-0.18 0,-0.24 -0.06,-0.06 -0.06,-0.06 -0.06,-0.12 -0.18,-0.36 -0.6,-0.6 -0.6,-1.02 -0.06,-0.06 -0.12,0 -0.18,-0.06 0.06,-0.06 0.06,-0.12 0,-0.24 -0.06,-0.06 -0.12,-0.18 -0.12,-0.24 -0.06,-0.3 -0.24,-0.48 -0.54,-0.6 -0.3,-0.18 -0.66,-0.36 -1.08,-0.48 -0.12,-0.06 -0.18,-0.12 -0.3,-0.18 -0.18,-0.12 -0.36,-0.24 -0.54,-0.3 -0.12,0 -0.3,0 -0.42,-0.06 -0.42,0.3 -0.72,0.12 -0.96,-0.24 -0.36,0.12 -0.6,0.3 -0.9,0.48 -0.12,0 -0.12,-0.12 -0.18,-0.12 -0.12,0.12 -0.24,0.18 -0.3,0.3 -0.12,0 -0.18,-0.06 -0.24,0 -0.06,0.18 -0.24,0.3 -0.36,0.42 -0.24,0.18 -0.3,0.42 -0.54,0.6 -0.06,0 -0.06,0 -0.06,0.06 -0.06,0.24 -0.24,0.36 -0.48,0.42 -0.06,0.12 -0.12,0.18 -0.18,0.3 -0.06,0.06 -0.18,0.12 -0.24,0.24 -0.06,0.18 -0.18,0.36 -0.36,0.54 -0.24,0.24 -0.48,0.48 -0.6,0.72 -0.06,0.06 -0.06,0.12 -0.12,0.12 -0.18,0.12 -0.36,0.3 -0.48,0.48 -0.24,0.36 -0.66,0.66 -0.9,1.02 -0.06,0.12 -0.24,0.18 -0.3,0.3 -0.06,0 -0.18,0.06 -0.18,0.12 0,0.12 -0.06,0.18 -0.12,0.24 -0.24,0.24 -0.48,0.48 -0.78,0.72 -0.12,0.06 -0.24,0.18 -0.3,0.3 0,0.06 -0.06,0.12 -0.12,0.18 -0.18,0.12 -0.36,0.24 -0.48,0.54 -0.18,0 -0.24,0.12 -0.36,0.24 -0.18,0.18 -0.3,0.36 -0.48,0.48 -0.42,0.42 -0.84,0.84 -1.26,1.2 -0.06,0.12 -0.12,0.18 -0.24,0.24 -0.18,0.12 -0.3,0.3 -0.48,0.42 -0.06,0.06 -0.06,0.12 -0.06,0.24 0,0.12 -0.06,0.24 -0.18,0.3 -0.06,0.06 -0.12,0.12 -0.12,0.24 -0.06,0.06 -0.06,0.12 -0.12,0.18 -0.24,0.18 -0.42,0.42 -0.66,0.6 -0.12,0.12 -0.3,0.3 -0.48,0.42 -0.12,0.12 -0.18,0.3 -0.36,0.36 -0.12,-0.3 -0.24,-0.6 -0.24,-0.9 -0.12,-0.48 -0.18,-0.96 -0.3,-1.44 -0.12,-0.48 -0.18,-0.96 -0.3,-1.38 0,-0.48 -0.12,-0.9 -0.3,-1.32 0,-0.36 -0.06,-0.72 -0.18,-1.02 -0.06,-0.36 -0.12,-0.72 -0.3,-1.08 0,0 0.06,-0.06 0.06,-0.12 -0.06,-0.12 -0.12,-0.3 -0.12,-0.48 -0.06,-0.36 -0.24,-0.72 -0.3,-1.14 -0.06,-0.36 -0.18,-0.66 -0.24,-0.96 -0.12,-0.36 -0.18,-0.72 -0.3,-1.08 -0.06,-0.24 -0.12,-0.54 -0.18,-0.84 -0.06,-0.24 -0.12,-0.48 -0.18,-0.72 0,-0.18 -0.06,-0.36 -0.12,-0.54 -0.06,-0.06 -0.06,-0.12 -0.06,-0.12 0,-0.18 0,-0.36 -0.06,-0.48 0,-0.12 0,-0.24 -0.06,-0.36 -0.24,-0.24 -0.36,-0.54 -0.36,-0.9 -0.06,-0.06 -0.06,-0.12 -0.12,-0.18 -0.24,-0.12 -0.48,-0.24 -0.66,-0.36 -0.24,-0.18 -0.6,-0.24 -0.9,-0.42 0,0 -0.06,0 -0.06,0 -0.3,-0.06 -0.54,-0.12 -0.72,-0.24 -0.36,-0.18 -0.66,-0.24 -1.02,-0.24 -0.48,0 -0.9,-0.12 -1.32,-0.06 0,0 -0.06,0 -0.06,0 -0.24,-0.06 -0.48,0 -0.72,0.06 -0.24,0.12 -0.36,0.24 -0.42,0.48 0,0.18 -0.12,0.3 -0.3,0.42 -0.54,0.36 -0.84,0.9 -1.02,1.5 -0.06,0.42 0,0.84 -0.12,1.2 0,0.06 0,0.06 0,0.06 0.12,0.3 0.12,0.66 0.12,0.96 0,0.12 0,0.18 0,0.3 0.12,0.3 0.12,0.66 0.12,0.96 0,0.06 0,0.18 0,0.24 0.06,0.24 0.06,0.48 0.12,0.72 0.06,0.3 0.06,0.66 0.06,0.96 0.12,0.66 0.18,1.26 0.3,1.92 0.06,0.3 0.06,0.66 0.12,0.96 0.06,0.54 0.24,1.08 0.24,1.62 0,0.12 0.06,0.3 0.06,0.42 0.12,0.48 0.18,0.96 0.3,1.44 0.06,0.48 0.12,0.96 0.24,1.44 0,0.06 0,0.12 0.06,0.24 0.06,-0.12 0.12,-0.18 0.12,-0.24 -0.06,-0.12 0,-0.24 -0.06,-0.3 0.06,-0.06 0.06,0 0.12,-0.06 0.06,-0.48 -0.12,-1.02 -0.12,-1.5 -0.06,-0.06 -0.18,-0.06 -0.24,-0.18 0,-0.06 0,-0.12 0,-0.18 0.06,-0.06 0.12,-0.06 0.12,-0.12 -0.12,-0.36 -0.12,-0.6 -0.06,-0.84 z m 7.44,27.36 c -0.06,-0.06 -0.06,-0.12 -0.06,-0.24 0.12,0.12 0.06,0.18 0.06,0.24 0.06,0.06 0.06,0.12 0.06,0.18 -0.06,-0.06 -0.06,-0.12 -0.06,-0.18 z m 2.76,9.84 c 0.06,0.06 0.12,0.12 0,0.24 0,-0.12 0,-0.18 0,-0.24 -0.06,-0.06 -0.06,-0.12 -0.06,-0.18 0.12,0 0.06,0.12 0.06,0.18 z m -0.72,-2.28 c -0.18,-0.24 -0.24,-0.48 -0.36,-0.72 -0.06,-0.12 -0.06,-0.24 0.06,-0.36 0.18,0.36 0.24,0.72 0.3,1.08 0.12,0.06 0.06,0.24 0.12,0.36 0.06,0.06 0.06,0.12 0.12,0.18 0.06,0.3 0.18,0.6 0.24,0.9 0.06,0.12 0.06,0.18 0.12,0.24 0,0.06 0.06,0.18 0.06,0.3 -0.3,-0.36 -0.3,-0.78 -0.54,-1.14 0.06,-0.18 -0.06,-0.3 0,-0.48 -0.12,-0.12 -0.12,-0.24 -0.12,-0.36 z m -0.54,-1.32 c 0,-0.12 -0.06,-0.24 0,-0.42 0.06,0.12 0.12,0.24 0.24,0.3 -0.06,0.06 -0.12,0.12 -0.24,0.12 z m 4.44,5.64 c 0,0 0,0.06 0,0.06 0,0.12 -0.12,0.18 -0.06,0.3 -0.18,-0.06 -0.12,-0.18 -0.12,-0.24 0,-0.06 0.06,-0.12 0.18,-0.12 z m -5.04,-8.22 c 0,-0.3 -0.18,-0.48 -0.12,-0.72 0.06,0.24 0.12,0.42 0.18,0.6 0,0 0,0.06 -0.06,0.12 z m 0.36,1.14 c 0,0.06 -0.06,0.06 -0.12,0.06 -0.06,-0.06 0,-0.12 -0.06,-0.18 0.06,-0.06 0.06,-0.06 0.12,-0.06 0.06,0.06 0.06,0.12 0.06,0.18 z m -0.18,-0.48 c -0.06,-0.12 -0.18,-0.3 -0.06,-0.48 0,0.18 0.06,0.3 0.06,0.48 0,0 0,0 0,0 z m 0.3,1.02 c 0.12,0.12 0.06,0.18 0.06,0.3 -0.12,-0.12 -0.12,-0.12 -0.06,-0.3 z m -0.9,-3.42 c -0.06,-0.12 -0.12,-0.24 -0.18,-0.36 0.24,0.12 0.24,0.18 0.18,0.36 z m -0.3,-1.14 c 0.12,0.12 0.12,0.18 0.12,0.3 -0.18,-0.06 -0.12,-0.18 -0.12,-0.3 z m 3.54,-14.82 c -0.12,-0.06 -0.06,-0.12 -0.06,-0.12 0.06,-0.06 0.06,0 0.06,0.06 0,0 0,0.06 0,0.06 z m -4.38,11.16 c 0.06,0.12 0.12,0.12 0.06,0.24 -0.06,-0.06 -0.06,-0.12 -0.06,-0.24 z m 6.24,-2.7 c 0.06,0.06 0.06,0.06 0.06,0.12 -0.06,0 -0.06,-0.06 -0.06,-0.12 z m -12.9,0.3 c 0,0.06 0,0.06 -0.06,0.12 0,-0.06 0,-0.12 0.06,-0.12 z m 7.14,4.5 c 0,0.06 0.06,0.06 0,0.06 0,0 0,0 0,-0.06 z m -8.46,-2.88 c -0.12,0 -0.18,0 -0.24,0.12 -0.12,0.18 -0.3,0.3 -0.42,0.42 0,0.06 -0.06,0.12 -0.06,0.18 0.12,0 0.12,-0.06 0.18,-0.12 0.12,-0.12 0.18,-0.18 0.3,-0.24 0.12,-0.12 0.18,-0.24 0.24,-0.36 z m 0,0 c 0,0 0,0 0,0 0,0 0,0 0,0 0,0 0,0 0,0 z" />
      <path
         id="path26"
         style="font-family:'Rubik Medium';letter-spacing:0.075em"
         d="m 229.1725,100 q -0.6,0 -1.02,-0.42 -0.42,-0.42 -0.42,-1.02 V 65.38 h -11.1 q -0.6,0 -1.02,-0.42 -0.42,-0.42 -0.42,-1.02 V 59.5 q 0,-0.66 0.42,-1.08 0.42,-0.42 1.02,-0.42 h 30.6 q 0.66,0 1.08,0.42 0.42,0.42 0.42,1.08 v 4.44 q 0,0.6 -0.42,1.02 -0.42,0.42 -1.08,0.42 h -11.04 v 33.18 q 0,0.6 -0.42,1.02 -0.42,0.42 -1.08,0.42 z" />
      <path
         id="path28"
         style="font-family:'Rubik Medium';letter-spacing:0.075em"
         d="m 260.76062,100 q -0.6,0 -1.01999,-0.42 -0.42001,-0.42 -0.42001,-1.02 V 59.5 q 0,-0.66 0.42001,-1.08 0.41999,-0.42 1.01999,-0.42 h 26.4 q 0.66,0 1.08001,0.42 0.41999,0.42 0.41999,1.08 v 3.96 q 0,0.6 -0.41999,1.02 -0.42001,0.42 -1.08001,0.42 h -19.74 v 10.62 h 18.42 q 0.66001,0 1.08,0.42 0.42,0.42 0.42,1.02 v 3.72 q 0,0.66 -0.42,1.08 -0.41999,0.36 -1.08,0.36 h -18.42 V 93.1 h 20.22 q 0.66001,0 1.08,0.42 0.42,0.42 0.42,1.08 v 3.96 q 0,0.6 -0.42,1.02 -0.41999,0.42 -1.08,0.42 z" />
      <path
         id="path30"
         style="font-family:'Rubik Medium';letter-spacing:0.075em"
         d="m 302.58625,100 q -0.66,0 -1.08,-0.42 -0.42,-0.42 -0.42,-1.02 V 59.5 q 0,-0.66 0.42,-1.08 0.42,-0.42 1.08,-0.42 h 4.74 q 0.84,0 1.26,0.48 0.42,0.42 0.54,0.66 l 11.58,21.6 11.7,-21.6 q 0.12,-0.24 0.54,-0.66 0.42,-0.48 1.26,-0.48 h 4.68 q 0.66,0 1.08,0.42 0.42,0.42 0.42,1.08 v 39.06 q 0,0.6 -0.42,1.02 -0.42,0.42 -1.08,0.42 h -5.04 q -0.6,0 -1.02,-0.42 -0.42,-0.42 -0.42,-1.02 V 72.58 l -8.4,16.02 q -0.3,0.54 -0.78,0.96 -0.48,0.36 -1.26,0.36 h -2.46 q -0.84,0 -1.32,-0.36 -0.42,-0.42 -0.72,-0.96 l -8.4,-16.02 v 25.98 q 0,0.6 -0.42,1.02 -0.42,0.42 -1.02,0.42 z" />
      <path
         id="path32"
         style="font-family:'Rubik Medium';letter-spacing:0.075em"
         d="m 355.65906,100 q -0.6,0 -1.02,-0.42 -0.42,-0.42 -0.42,-1.02 V 59.5 q 0,-0.66 0.42,-1.08 0.42,-0.42 1.02,-0.42 h 16.08 q 7.02,0 11.22,3.36 4.26,3.3 4.26,9.96 0,6.72 -4.26,9.96 -4.2,3.24 -11.22,3.24 h -8.94 v 14.04 q 0,0.6 -0.42,1.02 -0.42,0.42 -1.02,0.42 z m 7.02,-22.14 h 8.76 q 3.48,0 5.34,-1.62 1.86,-1.68 1.86,-4.92 0,-3 -1.74,-4.8 -1.74,-1.86 -5.46,-1.86 h -8.76 z" />
      <path
         id="path34"
         style="font-family:'Rubik Medium';letter-spacing:0.075em"
         d="m 414.35125,100.6 q -7.98,0 -12.66,-4.02 -4.62,-4.08 -4.86,-12.42 -0.18,-5.04 0,-10.26 0.24,-8.16 4.98,-12.3 4.8,-4.2 12.54,-4.2 7.74,0 12.48,4.2 4.8,4.14 5.1,12.3 0.18,5.22 0,10.26 -0.3,8.34 -4.92,12.42 -4.62,4.02 -12.66,4.02 z m 0,-6.9 q 3.84,0 6.3,-2.28 2.52,-2.34 2.7,-7.56 0.06,-2.64 0.06,-4.86 0,-2.28 -0.06,-4.86 -0.18,-5.22 -2.7,-7.5 -2.46,-2.34 -6.3,-2.34 -3.78,0 -6.3,2.34 -2.46,2.28 -2.64,7.5 -0.12,2.58 -0.12,4.86 0,2.22 0.12,4.86 0.18,5.22 2.64,7.56 2.46,2.28 6.3,2.28 z" />
      <path
         id="path36"
         style="font-family:'Rubik Medium';letter-spacing:0.075em"
         d="m 445.87,100 q -0.6,0 -1.02,-0.42 -0.42,-0.42 -0.42,-1.02 V 59.5 q 0,-0.66 0.42,-1.08 0.42,-0.42 1.02,-0.42 h 15.54 q 7.26,0 11.46,3.36 4.2,3.36 4.2,9.78 0,4.5 -2.16,7.44 -2.16,2.88 -5.88,4.2 l 8.76,15.3 q 0.18,0.36 0.18,0.66 0,0.54 -0.42,0.9 -0.36,0.36 -0.84,0.36 h -5.46 q -1.08,0 -1.62,-0.54 -0.48,-0.54 -0.78,-1.08 l -7.74,-14.22 h -8.34 v 14.4 q 0,0.6 -0.42,1.02 -0.42,0.42 -1.02,0.42 z m 6.9,-22.62 h 8.46 q 3.66,0 5.46,-1.62 1.8,-1.68 1.8,-4.68 0,-3 -1.8,-4.68 -1.74,-1.74 -5.46,-1.74 h -8.46 z" />
      <path
         id="path38"
         style="font-family:'Rubik Medium';letter-spacing:0.075em"
         d="m 486.77969,100 q -0.48,0 -0.9,-0.36 -0.36,-0.36 -0.36,-0.9 0,-0.24 0.12,-0.54 l 14.46,-38.7 q 0.18,-0.6 0.66,-1.02 0.54,-0.48 1.44,-0.48 h 6.54 q 0.9,0 1.38,0.48 0.54,0.42 0.72,1.02 l 14.46,38.7 q 0.06,0.3 0.06,0.54 0,0.54 -0.36,0.9 -0.36,0.36 -0.84,0.36 h -5.22 q -0.84,0 -1.26,-0.36 -0.36,-0.42 -0.48,-0.78 l -2.82,-7.32 h -17.82 l -2.82,7.32 q -0.12,0.36 -0.54,0.78 -0.36,0.36 -1.2,0.36 z m 11.88,-15.36 h 13.62 l -6.84,-18.54 z" />
      <path
         id="path40"
         style="font-family:'Rubik Medium';letter-spacing:0.075em"
         d="m 536.90125,100 q -0.6,0 -1.02,-0.42 -0.42,-0.42 -0.42,-1.02 V 59.5 q 0,-0.66 0.42,-1.08 0.42,-0.42 1.02,-0.42 h 4.62 q 0.84,0 1.2,0.42 0.42,0.36 0.54,0.54 l 17.28,26.88 V 59.5 q 0,-0.66 0.36,-1.08 0.42,-0.42 1.08,-0.42 h 5.04 q 0.66,0 1.08,0.42 0.42,0.42 0.42,1.08 v 39 q 0,0.66 -0.42,1.08 -0.42,0.42 -1.02,0.42 h -4.68 q -0.84,0 -1.26,-0.36 -0.36,-0.42 -0.48,-0.6 l -17.22,-26.28 v 25.8 q 0,0.6 -0.42,1.02 -0.42,0.42 -1.08,0.42 z" />
      <path
         id="path42"
         style="font-family:'Rubik Medium';letter-spacing:0.075em"
         d="m 583.82312,100 q -0.6,0 -1.01999,-0.42 -0.42001,-0.42 -0.42001,-1.02 V 59.5 q 0,-0.66 0.42001,-1.08 0.41999,-0.42 1.01999,-0.42 h 26.4 q 0.66,0 1.08001,0.42 0.41999,0.42 0.41999,1.08 v 3.96 q 0,0.6 -0.41999,1.02 -0.42001,0.42 -1.08001,0.42 h -19.74 v 10.62 h 18.42001 q 0.66,0 1.07999,0.42 0.42001,0.42 0.42001,1.02 v 3.72 q 0,0.66 -0.42001,1.08 -0.41999,0.36 -1.07999,0.36 H 590.48312 V 93.1 h 20.22 q 0.66,0 1.08001,0.42 0.41999,0.42 0.41999,1.08 v 3.96 q 0,0.6 -0.41999,1.02 -0.42001,0.42 -1.08001,0.42 z" />
      <path
         id="path44"
         style="font-family:'Rubik Medium';letter-spacing:0.075em"
         d="m 621.56875,100 q -0.48,0 -0.9,-0.36 -0.36,-0.36 -0.36,-0.9 0,-0.24 0.12,-0.54 l 14.46,-38.7 q 0.18,-0.6 0.66,-1.02 0.54,-0.48 1.44,-0.48 h 6.54 q 0.9,0 1.38,0.48 0.54,0.42 0.72,1.02 l 14.46,38.7 q 0.06,0.3 0.06,0.54 0,0.54 -0.36,0.9 -0.36,0.36 -0.84,0.36 h -5.22 q -0.84,0 -1.26,-0.36 -0.36,-0.42 -0.48,-0.78 l -2.82,-7.32 h -17.82 l -2.82,7.32 q -0.12,0.36 -0.54,0.78 -0.36,0.36 -1.2,0.36 z m 11.88,-15.36 h 13.62 l -6.84,-18.54 z" />
    </g>
  </g>
</svg>
