<?xml version="1.0" encoding="UTF-8" standalone="no"?>
<svg
   xmlns:dc="http://purl.org/dc/elements/1.1/"
   xmlns:cc="http://creativecommons.org/ns#"
   xmlns:rdf="http://www.w3.org/1999/02/22-rdf-syntax-ns#"
   xmlns:svg="http://www.w3.org/2000/svg"
   xmlns="http://www.w3.org/2000/svg"
   id="svg16"
   width="800px"
   version="1.1"
   height="200px">
  <metadata
     id="metadata20">
    <rdf:RDF>
      <cc:Work
         rdf:about="">
        <dc:format>image/svg+xml</dc:format>
        <dc:type
           rdf:resource="http://purl.org/dc/dcmitype/StillImage" />
      </cc:Work>
    </rdf:RDF>
  </metadata>
  <defs
     id="defs4">
    <style
       id="style2"
       type="text/css"><![CDATA[    
     @font-face {font-family:Rubik Black;
     src: url('/Users/francesco/Repos/write-logos/src/fonts/Fonts_E_TEMPORANEA/Rubik-Black.ttf');}
     @font-face {font-family:Akronim;
     src: url('/Users/francesco/Repos/write-logos/src/fonts/Fonts_X/Akronim-Regular.ttf');}
     ]]></style>
  </defs>
  <g
     id="g14"
     style="font-size:60px">
    <g
       style="text-anchor:middle"
       id="text12"
       aria-label="EXTEMPORANEA">
      <path
         id="path22"
         style="font-family:'Rubik Black';letter-spacing:0.075em"
         d="m 127.44344,100 q -0.66,0 -1.14,-0.48 -0.48,-0.48 -0.48,-1.14 V 59.62 q 0,-0.66 0.48,-1.14 0.48,-0.48 1.14,-0.48 h 30.78 q 0.66,0 1.14,0.48 0.48,0.48 0.48,1.14 v 8.46 q 0,0.66 -0.48,1.14 -0.48,0.48 -1.14,0.48 h -18 v 3.78 h 16.68 q 0.66,0 1.14,0.48 0.48,0.48 0.48,1.14 v 7.8 q 0,0.66 -0.48,1.14 -0.48,0.48 -1.14,0.48 h -16.68 v 3.78 h 18.48 q 0.66,0 1.14,0.48 0.48,0.48 0.48,1.14 v 8.46 q 0,0.66 -0.48,1.14 -0.48,0.48 -1.14,0.48 z" />
      <path
         id="path24"
         style="font-family:Akronim;letter-spacing:0.05em"
         d="m 169.80156,99.28 q -0.12,0.54 -0.18,0.54 -0.12,-0.06 -0.18,-0.24 0,-0.18 0,-0.3 -0.18,-2.76 0.36,-5.34 0.54,-2.64 1.62,-5.16 1.14,-2.52 2.64,-4.86 1.56,-2.4 3.3,-4.62 l 1.32,-1.68 q -2.46,-5.52 -4.86,-10.68 -2.34,-5.22 -5.16,-9 -0.18,-0.24 -0.18,-0.36 0.06,-0.12 0.24,0 0.18,0.12 0.3,0.18 1.86,1.5 3.36,3.54 1.56,2.04 2.88,4.44 1.32,2.34 2.46,4.98 1.14,2.58 2.28,5.22 l 1.02,-1.26 q -0.3,-0.6 -0.96,-1.86 -0.66,-1.32 -1.56,-2.94 -0.9,-1.62 -1.92,-3.42 -0.96,-1.8 -1.98,-3.36 -1.02,-1.62 -1.92,-2.88 -0.9,-1.26 -1.56,-1.8 -0.48,-0.36 -0.3,-0.48 0.12,-0.06 0.54,0.06 1.2,0.48 2.52,1.68 1.38,1.2 2.58,2.7 1.26,1.5 2.28,3.12 1.02,1.62 1.62,2.94 l 2.1,4.5 0.66,-0.72 q -1.2,-2.7 -2.58,-5.46 -1.38,-2.76 -3.3,-5.4 -0.18,-0.3 -0.24,-0.3 -0.06,0 0.06,-0.12 0,0 0.48,0.24 1.68,1.14 3.48,3.78 1.8,2.58 3.42,5.7 3.06,-3.6 6.12,-7.44 3.06,-3.9 4.98,-7.38 0.06,-0.12 0.12,-0.24 0.06,-0.12 0.24,0 0.06,0.06 0,0.24 0,0.18 0,0.24 -0.9,3.3 -2.88,6.54 -1.98,3.18 -4.44,6.36 -2.46,3.12 -5.16,6.24 -2.7,3.06 -5.04,6.12 -1.44,1.92 -2.88,4.14 -1.38,2.16 -2.52,4.5 -1.14,2.28 -1.98,4.68 -0.84,2.34 -1.2,4.62 z m 27.72,0.48 q 0.36,0.18 0.36,0.24 0,0 -0.42,0 -2.4,-0.36 -4.5,-1.56 -2.04,-1.26 -3.84,-3.06 -1.74,-1.8 -3.3,-4.02 -1.5,-2.28 -2.76,-4.62 -1.92,2.28 -4.02,4.5 -2.1,2.16 -3.78,3.72 -0.3,0.3 -0.54,0.54 -0.18,0.24 -0.3,0.18 -0.12,-0.06 0.06,-0.42 0.24,-0.36 0.36,-0.66 1.14,-2.22 2.58,-4.38 1.5,-2.16 3.12,-4.2 1.68,-2.1 3.42,-4.14 1.74,-2.04 3.42,-4.08 2.1,-2.58 4.56,-5.76 2.46,-3.18 4.26,-6.54 0.18,-0.42 0.3,-0.42 0.12,0 0.06,0.3 -0.06,0.24 -0.06,0.42 -0.12,1.26 -0.9,2.94 -0.78,1.68 -1.92,3.54 -1.08,1.8 -2.4,3.72 -1.26,1.86 -2.46,3.48 l 0.54,1.2 q 1.44,3.18 2.94,6.6 1.5,3.42 2.52,6.12 0.12,0.3 0.18,0.66 0.12,0.3 0,0.36 -0.06,0 -0.3,-0.24 -0.24,-0.3 -0.48,-0.6 -2.1,-2.82 -3.78,-5.88 -1.62,-3.06 -3.18,-6.3 -0.72,0.9 -1.44,1.86 -0.72,0.9 -1.44,1.86 1.14,2.22 2.58,4.44 1.44,2.16 3.12,4.14 1.68,1.92 3.54,3.54 1.92,1.56 3.9,2.52 z m -6.42,-28.2 q -2.34,3 -5.16,6.06 -2.82,3 -5.52,5.7 -0.12,0.06 -0.48,0.48 -0.36,0.36 -0.48,0.24 -0.12,-0.06 0.06,-0.6 0.24,-0.54 0.42,-0.78 0.42,-0.72 1.2,-1.8 0.78,-1.14 1.62,-2.28 0.9,-1.2 1.68,-2.28 0.84,-1.14 1.38,-1.8 1.38,-1.8 3,-4.02 1.68,-2.22 3.12,-4.44 1.5,-2.22 2.64,-4.2 1.2,-1.98 1.62,-3.18 0.18,-0.66 0.24,-0.66 0.06,0 0.12,0.24 0.12,0.18 0.12,0.48 0.06,1.32 -0.48,3.12 -0.54,1.74 -1.44,3.54 -0.84,1.8 -1.86,3.48 -0.96,1.62 -1.8,2.7 z m -18.06,24.36 q -0.48,1.2 -0.9,2.22 -0.36,1.02 -0.66,1.86 -0.06,0.12 -0.24,0.3 -0.12,0.18 -0.24,-0.3 -0.18,-1.02 0,-2.22 0.18,-1.2 1.02,-3.12 0.3,-0.72 0.78,-1.62 0.48,-0.96 1.02,-1.74 0.54,-0.84 0.96,-1.38 0.48,-0.54 0.72,-0.36 0,0.06 -0.12,0.42 -0.12,0.36 -0.3,0.78 -0.12,0.42 -0.3,0.84 -0.12,0.36 -0.18,0.48 -0.42,1.14 -0.78,1.98 -0.36,0.84 -0.78,1.86 z m 22.02,-0.12 q 0.96,0.9 1.86,1.68 0.96,0.72 1.98,1.38 0.12,0.12 0.3,0.3 0.18,0.12 0.12,0.18 -0.12,0.12 -0.36,0.12 -0.18,-0.06 -0.48,-0.12 -0.6,-0.18 -1.08,-0.3 -0.48,-0.12 -1.02,-0.36 -0.48,-0.3 -1.08,-0.72 -0.54,-0.42 -1.26,-1.14 -0.6,-0.6 -1.38,-1.5 -0.72,-0.96 -1.38,-1.86 -0.6,-0.96 -0.96,-1.68 -0.36,-0.72 -0.18,-0.84 0.06,-0.06 0.36,0.18 0.3,0.24 0.6,0.6 0.3,0.3 0.54,0.6 0.3,0.3 0.42,0.42 0.84,0.9 1.56,1.62 0.72,0.72 1.44,1.44 z" />
      <path
         id="path26"
         style="font-family:'Rubik Black';letter-spacing:0.075em"
         d="m 213.97,100 q -0.66,0 -1.14,-0.48 -0.48,-0.48 -0.48,-1.14 V 70.9 h -9.96 q -0.66,0 -1.14,-0.48 -0.48,-0.48 -0.48,-1.14 v -9.66 q 0,-0.66 0.48,-1.14 0.48,-0.48 1.14,-0.48 h 35.16 q 0.66,0 1.14,0.48 0.48,0.48 0.48,1.14 v 9.66 q 0,0.66 -0.48,1.14 -0.48,0.48 -1.14,0.48 h -9.96 v 27.48 q 0,0.66 -0.48,1.14 -0.48,0.48 -1.14,0.48 z" />
      <path
         id="path28"
         style="font-family:'Rubik Black';letter-spacing:0.075em"
         d="m 249.59969,100 q -0.66,0 -1.14,-0.48 -0.48,-0.48 -0.48,-1.14 V 59.62 q 0,-0.66 0.48,-1.14 0.48,-0.48 1.14,-0.48 h 30.78 q 0.66,0 1.14,0.48 0.48,0.48 0.48,1.14 v 8.46 q 0,0.66 -0.48,1.14 -0.48,0.48 -1.14,0.48 h -18 v 3.78 h 16.68 q 0.66,0 1.14,0.48 0.48,0.48 0.48,1.14 v 7.8 q 0,0.66 -0.48,1.14 -0.48,0.48 -1.14,0.48 h -16.68 v 3.78 h 18.48 q 0.66,0 1.14,0.48 0.48,0.48 0.48,1.14 v 8.46 q 0,0.66 -0.48,1.14 -0.48,0.48 -1.14,0.48 z" />
      <path
         id="path30"
         style="font-family:'Rubik Black';letter-spacing:0.075em"
         d="m 294.17781,100 q -0.66,0 -1.14,-0.48 -0.48,-0.48 -0.48,-1.14 V 59.62 q 0,-0.66 0.48,-1.14 0.48,-0.48 1.14,-0.48 h 9.48 q 1.2,0 1.8,0.66 0.6,0.66 0.78,0.96 l 8.7,14.4 8.7,-14.4 q 0.18,-0.3 0.78,-0.96 0.6,-0.66 1.8,-0.66 h 9.48 q 0.66,0 1.14,0.48 0.48,0.48 0.48,1.14 v 38.76 q 0,0.66 -0.48,1.14 -0.48,0.48 -1.14,0.48 h -10.86 q -0.66,0 -1.14,-0.48 -0.48,-0.48 -0.48,-1.14 V 81.94 l -3.96,6.48 q -0.3,0.48 -0.84,1.02 -0.48,0.48 -1.38,0.48 h -4.2 q -0.9,0 -1.44,-0.48 -0.48,-0.54 -0.78,-1.02 l -3.96,-6.48 v 16.44 q 0,0.66 -0.48,1.14 -0.48,0.48 -1.14,0.48 z" />
      <path
         id="path32"
         style="font-family:'Rubik Black';letter-spacing:0.075em"
         d="m 350.00594,100 q -0.66,0 -1.14,-0.48 -0.48,-0.48 -0.48,-1.14 V 59.62 q 0,-0.66 0.48,-1.14 0.48,-0.48 1.14,-0.48 h 18.18 q 5.46,0 9.48,1.62 4.08,1.56 6.3,4.86 2.28,3.24 2.28,8.22 0,4.98 -2.28,8.16 -2.22,3.12 -6.3,4.62 -4.02,1.44 -9.48,1.44 h -4.2 v 11.46 q 0,0.66 -0.48,1.14 -0.48,0.48 -1.14,0.48 z m 13.68,-24.18 h 4.2 q 0.96,0 1.86,-0.72 0.9,-0.78 0.9,-2.52 0,-1.14 -0.6,-2.28 -0.54,-1.14 -2.16,-1.14 h -4.2 z" />
      <path
         id="path34"
         style="font-family:'Rubik Black';letter-spacing:0.075em"
         d="m 414.15062,100.6 q -5.88,0 -10.32,-1.8 -4.38,-1.8 -6.95999,-5.4 -2.52001,-3.66 -2.76,-9 -0.18,-5.16 0,-10.56 0.23999,-5.28 2.76,-8.94 2.51999,-3.66 6.95999,-5.58 4.44,-1.92 10.32,-1.92 5.88,0 10.32,1.92 4.44,1.92 6.96001,5.58 2.57999,3.66 2.75999,8.94 0.18001,5.4 0,10.56 -0.24,5.34 -2.81999,9 -2.52001,3.6 -6.96001,5.4 -4.38,1.8 -10.26,1.8 z m 0,-11.7 q 1.98,0 3.18,-1.14 1.2,-1.2 1.26,-3.72 0.18,-5.16 0,-10.08 -0.06,-2.52 -1.32,-3.66 -1.2,-1.2 -3.12,-1.2 -1.92,0 -3.12,1.2 -1.2,1.14 -1.32,3.66 -0.18,4.92 0,10.08 0.12,2.52 1.26,3.72 1.2,1.14 3.18,1.14 z" />
      <path
         id="path36"
         style="font-family:'Rubik Black';letter-spacing:0.075em"
         d="m 445.84188,100 q -0.66001,0 -1.14001,-0.48 -0.48,-0.48 -0.48,-1.14 V 59.62 q 0,-0.66 0.48,-1.14 0.48,-0.48 1.14001,-0.48 h 17.75999 q 8.64,0 13.5,3.9 4.86001,3.9 4.86001,10.68 0,4.02 -1.86001,7.02 -1.8,2.94 -4.62,4.74 l 7.38,13.68 q 0.18,0.36 0.18,0.66 0,0.54 -0.42,0.96 -0.35999,0.36 -0.9,0.36 h -12.3 q -1.2,0 -1.8,-0.6 -0.59999,-0.6 -0.77999,-1.02 l -5.16001,-11.46 h -2.46 v 11.46 q 0,0.66 -0.48,1.14 -0.48,0.48 -1.14,0.48 z m 13.37999,-24.48 h 4.38 q 1.38,0 2.04001,-0.9 0.71999,-0.96 0.71999,-2.16 0,-1.2 -0.66,-2.22 -0.6,-1.08 -2.1,-1.08 h -4.38 z" />
      <path
         id="path38"
         style="font-family:'Rubik Black';letter-spacing:0.075em"
         d="m 490.10125,100 q -0.54,0 -0.96,-0.36 -0.36,-0.42 -0.36,-0.96 0,-0.24 0.06,-0.42 l 13.38,-38.28 q 0.18,-0.66 0.84,-1.32 0.66,-0.66 1.86,-0.66 h 13.02 q 1.2,0 1.86,0.66 0.66,0.66 0.84,1.32 l 13.38,38.28 q 0.06,0.18 0.06,0.42 0,0.54 -0.42,0.96 -0.36,0.36 -0.9,0.36 h -11.1 q -1.14,0 -1.68,-0.48 -0.48,-0.54 -0.66,-1.02 l -1.44,-3.96 h -12.9 l -1.44,3.96 q -0.18,0.48 -0.66,1.02 -0.48,0.48 -1.68,0.48 z m 17.94,-17.16 h 6.78 l -3.42,-11.16 z" />
      <path
         id="path40"
         style="font-family:'Rubik Black';letter-spacing:0.075em"
         d="m 543.55281,100 q -0.66,0 -1.14,-0.48 -0.48,-0.48 -0.48,-1.14 V 59.62 q 0,-0.66 0.48,-1.14 0.48,-0.48 1.14,-0.48 h 9.48 q 1.2,0 1.74,0.54 0.54,0.54 0.72,0.84 l 10.14,16.62 V 59.62 q 0,-0.66 0.48,-1.14 0.48,-0.48 1.14,-0.48 h 10.86 q 0.66,0 1.14,0.48 0.48,0.48 0.48,1.14 v 38.76 q 0,0.66 -0.48,1.14 -0.48,0.48 -1.14,0.48 h -9.48 q -1.2,0 -1.74,-0.54 -0.54,-0.6 -0.72,-0.84 l -10.14,-15.3 v 15.06 q 0,0.66 -0.48,1.14 -0.48,0.48 -1.14,0.48 z" />
      <path
         id="path42"
         style="font-family:'Rubik Black';letter-spacing:0.075em"
         d="m 592.46687,100 q -0.66,0 -1.14,-0.48 -0.48,-0.48 -0.48,-1.14 V 59.62 q 0,-0.66 0.48,-1.14 0.48,-0.48 1.14,-0.48 h 30.78001 q 0.66,0 1.14,0.48 0.48,0.48 0.48,1.14 v 8.46 q 0,0.66 -0.48,1.14 -0.48,0.48 -1.14,0.48 h -18 v 3.78 h 16.67999 q 0.66,0 1.14,0.48 0.48,0.48 0.48,1.14 v 7.8 q 0,0.66 -0.48,1.14 -0.48,0.48 -1.14,0.48 h -16.67999 v 3.78 h 18.47999 q 0.66001,0 1.14001,0.48 0.47999,0.48 0.47999,1.14 v 8.46 q 0,0.66 -0.47999,1.14 -0.48,0.48 -1.14001,0.48 z" />
      <path
         id="path44"
         style="font-family:'Rubik Black';letter-spacing:0.075em"
         d="m 633.445,100 q -0.54,0 -0.96,-0.36 -0.36,-0.42 -0.36,-0.96 0,-0.24 0.06,-0.42 l 13.38,-38.28 q 0.18,-0.66 0.84,-1.32 0.66,-0.66 1.86,-0.66 h 13.02 q 1.2,0 1.86,0.66 0.66,0.66 0.84,1.32 l 13.38,38.28 q 0.06,0.18 0.06,0.42 0,0.54 -0.42,0.96 -0.36,0.36 -0.9,0.36 h -11.1 q -1.14,0 -1.68,-0.48 -0.48,-0.54 -0.66,-1.02 l -1.44,-3.96 h -12.9 l -1.44,3.96 q -0.18,0.48 -0.66,1.02 -0.48,0.48 -1.68,0.48 z m 17.94,-17.16 h 6.78 l -3.42,-11.16 z" />
    </g>
  </g>
</svg>
