<?xml version="1.0" encoding="UTF-8" standalone="no"?>
<svg
   xmlns:dc="http://purl.org/dc/elements/1.1/"
   xmlns:cc="http://creativecommons.org/ns#"
   xmlns:rdf="http://www.w3.org/1999/02/22-rdf-syntax-ns#"
   xmlns:svg="http://www.w3.org/2000/svg"
   xmlns="http://www.w3.org/2000/svg"
   id="svg16"
   width="800px"
   version="1.1"
   height="200px">
  <metadata
     id="metadata20">
    <rdf:RDF>
      <cc:Work
         rdf:about="">
        <dc:format>image/svg+xml</dc:format>
        <dc:type
           rdf:resource="http://purl.org/dc/dcmitype/StillImage" />
      </cc:Work>
    </rdf:RDF>
  </metadata>
  <defs
     id="defs4">
    <style
       id="style2"
       type="text/css"><![CDATA[    
     @font-face {font-family:Rubik Black;
     src: url('/Users/francesco/Repos/write-logos/src/fonts/Fonts_E_TEMPORANEA/Rubik-Black.ttf');}
     @font-face {font-family:Brandon;
     src: url('/Users/francesco/Repos/write-logos/src/fonts/Fonts_X/BrandonFree.ttf');}
     ]]></style>
  </defs>
  <g
     id="g14"
     style="font-size:60px">
    <g
       style="text-anchor:middle"
       id="text12"
       aria-label="EXTEMPORANEA">
      <path
         id="path22"
         style="font-family:'Rubik Black';letter-spacing:0.075em"
         d="m 125.56844,100 q -0.66,0 -1.14,-0.48 -0.48,-0.48 -0.48,-1.14 V 59.62 q 0,-0.66 0.48,-1.14 0.48,-0.48 1.14,-0.48 h 30.78 q 0.66,0 1.14,0.48 0.48,0.48 0.48,1.14 v 8.46 q 0,0.66 -0.48,1.14 -0.48,0.48 -1.14,0.48 h -18 v 3.78 h 16.68 q 0.66,0 1.14,0.48 0.48,0.48 0.48,1.14 v 7.8 q 0,0.66 -0.48,1.14 -0.48,0.48 -1.14,0.48 h -16.68 v 3.78 h 18.48 q 0.66,0 1.14,0.48 0.48,0.48 0.48,1.14 v 8.46 q 0,0.66 -0.48,1.14 -0.48,0.48 -1.14,0.48 z" />
      <path
         id="path24"
         style="font-family:Brandon;letter-spacing:0.05em"
         d="m 165.54883,70.615234 v 0 0 q -0.32227,-0.55664 0.32226,-1.611328 0.67383,-1.054687 1.75782,-2.138672 1.08398,-1.113281 1.99218,-1.816406 0.90821,-0.703125 1.08399,-0.556641 3.22265,4.482422 6.91406,8.613282 0.64453,0.703125 1.28906,1.464843 2.49024,3.046875 5.41992,5.595704 0.90821,0.732421 1.9043,1.40625 1.08399,0.732421 2.10938,1.582031 0.9375,0.820312 1.78711,1.757812 0.79101,0.84961 1.66992,1.611328 1.20117,0.996094 2.60742,1.757813 2.49023,1.201172 3.95508,3.457031 0.20508,0.439453 -0.0879,1.054688 -0.29297,0.615234 -0.76172,1.230468 -0.46875,0.615235 -0.84961,1.025391 -0.14649,0.175781 -0.26367,0.263672 -0.0879,0.117187 -0.52735,0.615234 -0.43945,0.46875 -1.02539,0.996094 -0.55664,0.527344 -1.02539,0.849609 -0.46875,0.322266 -0.61523,0.117188 -1.46485,-2.285156 -3.98438,-3.457031 -1.37695,-0.791016 -2.57812,-1.757813 -0.87891,-0.791015 -1.69922,-1.640625 -0.84961,-0.908203 -1.75781,-1.757812 -1.02539,-0.820313 -2.10938,-1.582032 -0.9668,-0.644531 -1.9043,-1.376953 -2.92968,-2.578125 -5.41992,-5.595703 -0.64453,-0.761719 -1.28906,-1.49414 -3.69141,-4.101563 -6.91406,-8.613282 z m 27.53906,-3.574218 v 0 0 q 0.0586,-0.05859 0.11719,-0.175782 0.32226,-0.439453 0.96679,-1.230468 0.67383,-0.820313 1.37696,-1.464844 0.70312,-0.644531 1.14258,-0.556641 0.43945,0.146485 0.26367,0.703125 -0.17578,0.527344 -0.58594,1.113281 -0.38086,0.556641 -0.64453,0.878907 -0.0293,0.05859 -0.0586,0.08789 -11.95313,15.585938 -24.72657,30.527344 0,0 -0.0293,0.05859 -0.23438,0.292969 -0.87891,0.996094 -0.61523,0.673828 -1.28906,1.201171 -0.64453,0.498047 -0.9961,0.292969 -0.26367,-0.292969 0.11719,-1.02539 0.41016,-0.761719 0.99609,-1.494141 0.58594,-0.732422 0.82032,-1.025391 0.0293,-0.0293 0.0293,-0.0293 12.07032,-14.121093 23.37891,-28.857421 z" />
      <path
         id="path26"
         style="font-family:'Rubik Black';letter-spacing:0.075em"
         d="m 215.845,100 q -0.66,0 -1.14,-0.48 -0.48,-0.48 -0.48,-1.14 V 70.9 h -9.96 q -0.66,0 -1.14,-0.48 -0.48,-0.48 -0.48,-1.14 v -9.66 q 0,-0.66 0.48,-1.14 0.48,-0.48 1.14,-0.48 h 35.16 q 0.66,0 1.14,0.48 0.48,0.48 0.48,1.14 v 9.66 q 0,0.66 -0.48,1.14 -0.48,0.48 -1.14,0.48 h -9.96 v 27.48 q 0,0.66 -0.48,1.14 -0.48,0.48 -1.14,0.48 z" />
      <path
         id="path28"
         style="font-family:'Rubik Black';letter-spacing:0.075em"
         d="m 251.47469,100 q -0.66,0 -1.14,-0.48 -0.48,-0.48 -0.48,-1.14 V 59.62 q 0,-0.66 0.48,-1.14 0.48,-0.48 1.14,-0.48 h 30.78 q 0.66,0 1.14,0.48 0.48,0.48 0.48,1.14 v 8.46 q 0,0.66 -0.48,1.14 -0.48,0.48 -1.14,0.48 h -18 v 3.78 h 16.68 q 0.66,0 1.14,0.48 0.48,0.48 0.48,1.14 v 7.8 q 0,0.66 -0.48,1.14 -0.48,0.48 -1.14,0.48 h -16.68 v 3.78 h 18.48 q 0.66,0 1.14,0.48 0.48,0.48 0.48,1.14 v 8.46 q 0,0.66 -0.48,1.14 -0.48,0.48 -1.14,0.48 z" />
      <path
         id="path30"
         style="font-family:'Rubik Black';letter-spacing:0.075em"
         d="m 296.05281,100 q -0.66,0 -1.14,-0.48 -0.48,-0.48 -0.48,-1.14 V 59.62 q 0,-0.66 0.48,-1.14 0.48,-0.48 1.14,-0.48 h 9.48 q 1.2,0 1.8,0.66 0.6,0.66 0.78,0.96 l 8.7,14.4 8.7,-14.4 q 0.18,-0.3 0.78,-0.96 0.6,-0.66 1.8,-0.66 h 9.48 q 0.66,0 1.14,0.48 0.48,0.48 0.48,1.14 v 38.76 q 0,0.66 -0.48,1.14 -0.48,0.48 -1.14,0.48 h -10.86 q -0.66,0 -1.14,-0.48 -0.48,-0.48 -0.48,-1.14 V 81.94 l -3.96,6.48 q -0.3,0.48 -0.84,1.02 -0.48,0.48 -1.38,0.48 h -4.2 q -0.9,0 -1.44,-0.48 -0.48,-0.54 -0.78,-1.02 l -3.96,-6.48 v 16.44 q 0,0.66 -0.48,1.14 -0.48,0.48 -1.14,0.48 z" />
      <path
         id="path32"
         style="font-family:'Rubik Black';letter-spacing:0.075em"
         d="m 351.88094,100 q -0.66,0 -1.14,-0.48 -0.48,-0.48 -0.48,-1.14 V 59.62 q 0,-0.66 0.48,-1.14 0.48,-0.48 1.14,-0.48 h 18.18 q 5.46,0 9.48,1.62 4.08,1.56 6.3,4.86 2.28,3.24 2.28,8.22 0,4.98 -2.28,8.16 -2.22,3.12 -6.3,4.62 -4.02,1.44 -9.48,1.44 h -4.2 v 11.46 q 0,0.66 -0.48,1.14 -0.48,0.48 -1.14,0.48 z m 13.68,-24.18 h 4.2 q 0.96,0 1.86,-0.72 0.9,-0.78 0.9,-2.52 0,-1.14 -0.6,-2.28 -0.54,-1.14 -2.16,-1.14 h -4.2 z" />
      <path
         id="path34"
         style="font-family:'Rubik Black';letter-spacing:0.075em"
         d="m 416.02562,100.6 q -5.88,0 -10.32,-1.8 -4.38,-1.8 -6.95999,-5.4 -2.52001,-3.66 -2.76,-9 -0.18,-5.16 0,-10.56 0.23999,-5.28 2.76,-8.94 2.51999,-3.66 6.95999,-5.58 4.44,-1.92 10.32,-1.92 5.88,0 10.32,1.92 4.44,1.92 6.96001,5.58 2.57999,3.66 2.75999,8.94 0.18001,5.4 0,10.56 -0.24,5.34 -2.81999,9 -2.52001,3.6 -6.96001,5.4 -4.38,1.8 -10.26,1.8 z m 0,-11.7 q 1.98,0 3.18,-1.14 1.2,-1.2 1.26,-3.72 0.18,-5.16 0,-10.08 -0.06,-2.52 -1.32,-3.66 -1.2,-1.2 -3.12,-1.2 -1.92,0 -3.12,1.2 -1.2,1.14 -1.32,3.66 -0.18,4.92 0,10.08 0.12,2.52 1.26,3.72 1.2,1.14 3.18,1.14 z" />
      <path
         id="path36"
         style="font-family:'Rubik Black';letter-spacing:0.075em"
         d="m 447.71688,100 q -0.66001,0 -1.14001,-0.48 -0.48,-0.48 -0.48,-1.14 V 59.62 q 0,-0.66 0.48,-1.14 0.48,-0.48 1.14001,-0.48 h 17.75999 q 8.64,0 13.5,3.9 4.86001,3.9 4.86001,10.68 0,4.02 -1.86001,7.02 -1.8,2.94 -4.62,4.74 l 7.38,13.68 q 0.18,0.36 0.18,0.66 0,0.54 -0.42,0.96 -0.35999,0.36 -0.9,0.36 h -12.3 q -1.2,0 -1.8,-0.6 -0.59999,-0.6 -0.77999,-1.02 l -5.16001,-11.46 h -2.46 v 11.46 q 0,0.66 -0.48,1.14 -0.48,0.48 -1.14,0.48 z m 13.37999,-24.48 h 4.38 q 1.38,0 2.04001,-0.9 0.71999,-0.96 0.71999,-2.16 0,-1.2 -0.66,-2.22 -0.6,-1.08 -2.1,-1.08 h -4.38 z" />
      <path
         id="path38"
         style="font-family:'Rubik Black';letter-spacing:0.075em"
         d="m 491.97625,100 q -0.54,0 -0.96,-0.36 -0.36,-0.42 -0.36,-0.96 0,-0.24 0.06,-0.42 l 13.38,-38.28 q 0.18,-0.66 0.84,-1.32 0.66,-0.66 1.86,-0.66 h 13.02 q 1.2,0 1.86,0.66 0.66,0.66 0.84,1.32 l 13.38,38.28 q 0.06,0.18 0.06,0.42 0,0.54 -0.42,0.96 -0.36,0.36 -0.9,0.36 h -11.1 q -1.14,0 -1.68,-0.48 -0.48,-0.54 -0.66,-1.02 l -1.44,-3.96 h -12.9 l -1.44,3.96 q -0.18,0.48 -0.66,1.02 -0.48,0.48 -1.68,0.48 z m 17.94,-17.16 h 6.78 l -3.42,-11.16 z" />
      <path
         id="path40"
         style="font-family:'Rubik Black';letter-spacing:0.075em"
         d="m 545.42781,100 q -0.66,0 -1.14,-0.48 -0.48,-0.48 -0.48,-1.14 V 59.62 q 0,-0.66 0.48,-1.14 0.48,-0.48 1.14,-0.48 h 9.48 q 1.2,0 1.74,0.54 0.54,0.54 0.72,0.84 l 10.14,16.62 V 59.62 q 0,-0.66 0.48,-1.14 0.48,-0.48 1.14,-0.48 h 10.86 q 0.66,0 1.14,0.48 0.48,0.48 0.48,1.14 v 38.76 q 0,0.66 -0.48,1.14 -0.48,0.48 -1.14,0.48 h -9.48 q -1.2,0 -1.74,-0.54 -0.54,-0.6 -0.72,-0.84 l -10.14,-15.3 v 15.06 q 0,0.66 -0.48,1.14 -0.48,0.48 -1.14,0.48 z" />
      <path
         id="path42"
         style="font-family:'Rubik Black';letter-spacing:0.075em"
         d="m 594.34187,100 q -0.66,0 -1.14,-0.48 -0.48,-0.48 -0.48,-1.14 V 59.62 q 0,-0.66 0.48,-1.14 0.48,-0.48 1.14,-0.48 h 30.78001 q 0.66,0 1.14,0.48 0.48,0.48 0.48,1.14 v 8.46 q 0,0.66 -0.48,1.14 -0.48,0.48 -1.14,0.48 h -18 v 3.78 h 16.67999 q 0.66,0 1.14,0.48 0.48,0.48 0.48,1.14 v 7.8 q 0,0.66 -0.48,1.14 -0.48,0.48 -1.14,0.48 h -16.67999 v 3.78 h 18.47999 q 0.66001,0 1.14001,0.48 0.47999,0.48 0.47999,1.14 v 8.46 q 0,0.66 -0.47999,1.14 -0.48,0.48 -1.14001,0.48 z" />
      <path
         id="path44"
         style="font-family:'Rubik Black';letter-spacing:0.075em"
         d="m 635.32,100 q -0.54,0 -0.96,-0.36 -0.36,-0.42 -0.36,-0.96 0,-0.24 0.06,-0.42 l 13.38,-38.28 q 0.18,-0.66 0.84,-1.32 0.66,-0.66 1.86,-0.66 h 13.02 q 1.2,0 1.86,0.66 0.66,0.66 0.84,1.32 l 13.38,38.28 q 0.06,0.18 0.06,0.42 0,0.54 -0.42,0.96 -0.36,0.36 -0.9,0.36 h -11.1 q -1.14,0 -1.68,-0.48 -0.48,-0.54 -0.66,-1.02 l -1.44,-3.96 h -12.9 l -1.44,3.96 q -0.18,0.48 -0.66,1.02 -0.48,0.48 -1.68,0.48 z m 17.94,-17.16 h 6.78 l -3.42,-11.16 z" />
    </g>
  </g>
</svg>
