<?xml version="1.0" encoding="UTF-8" standalone="no"?>
<svg
   xmlns:dc="http://purl.org/dc/elements/1.1/"
   xmlns:cc="http://creativecommons.org/ns#"
   xmlns:rdf="http://www.w3.org/1999/02/22-rdf-syntax-ns#"
   xmlns:svg="http://www.w3.org/2000/svg"
   xmlns="http://www.w3.org/2000/svg"
   id="svg16"
   width="800px"
   version="1.1"
   height="200px">
  <metadata
     id="metadata20">
    <rdf:RDF>
      <cc:Work
         rdf:about="">
        <dc:format>image/svg+xml</dc:format>
        <dc:type
           rdf:resource="http://purl.org/dc/dcmitype/StillImage" />
      </cc:Work>
    </rdf:RDF>
  </metadata>
  <defs
     id="defs4">
    <style
       id="style2"
       type="text/css"><![CDATA[    
     @font-face {font-family:Rubik Black;
     src: url('/Users/francesco/Repos/write-logos/src/fonts/Fonts_E_TEMPORANEA/Rubik-Black.ttf');}
     @font-face {font-family:PWChalk;
     src: url('/Users/francesco/Repos/write-logos/src/fonts/Fonts_X/PWChalk.ttf');}
     ]]></style>
  </defs>
  <g
     id="g14"
     style="font-size:60px">
    <g
       style="text-anchor:middle"
       id="text12"
       aria-label="EXTEMPORANEA">
      <path
         id="path22"
         style="font-family:'Rubik Black';letter-spacing:0.075em"
         d="m 121.2325,100 q -0.66,0 -1.14,-0.48 -0.48,-0.48 -0.48,-1.14 V 59.62 q 0,-0.66 0.48,-1.14 0.48,-0.48 1.14,-0.48 h 30.78 q 0.66,0 1.14,0.48 0.48,0.48 0.48,1.14 v 8.46 q 0,0.66 -0.48,1.14 -0.48,0.48 -1.14,0.48 h -18 v 3.78 h 16.68 q 0.66,0 1.14,0.48 0.48,0.48 0.48,1.14 v 7.8 q 0,0.66 -0.48,1.14 -0.48,0.48 -1.14,0.48 h -16.68 v 3.78 h 18.48 q 0.66,0 1.14,0.48 0.48,0.48 0.48,1.14 v 8.46 q 0,0.66 -0.48,1.14 -0.48,0.48 -1.14,0.48 z" />
      <path
         id="path24"
         style="font-family:PWChalk;letter-spacing:0.05em"
         d="m 168.33062,69.1 1.74,1.98 -0.84,-1.08 -2.58,-4.02 -1.26,-1.86 0.42,0.96 1.92,3.18 z m 12.42001,18.66 0.29999,0.54 2.16,3.3 1.62,2.58 -0.66,0.36 0.48,0.66 1.62,1.68 0.9,0.72 0.06,0.12 -0.12,-0.84 -1.38,-2.22 -1.26,-2.16 -0.42,-0.6 -2.28,-2.88 z m -6.54001,-8.4 -0.12,0.12 0.12,0.18 0.66,1.02 0.18,-0.24 z m 8.4,8.34 -0.9,-1.38 -0.48,-0.6 1.08,1.56 0.84,1.32 z m -17.76,3.24 V 91 Z m 8.1,-4.62 2.4,-3.24 -0.24,-0.3 -0.3,0.42 z m 13.92,-18.6 2.76,-3.72 -1.5,1.56 -3.6,4.44 z m -9.72,15.96 -0.12,0.24 0.3,0.42 2.88,4.44 -2.16,-3.66 z m -1.02,-1.62 -0.24,-0.42 -0.18,0.24 0.24,0.42 z m 3.24,-4.02 -0.48,-0.6 -0.48,0.72 0.42,0.6 z m -7.61999,-9.3 0.29999,0.54 2.76,4.2 v 0.06 l 0.9,1.14 0.48,-0.6 -0.96,-1.2 -2.7,-3.18 z m 6.29999,6.06 0.66,0.84 3.18,-4.56 3.84,-5.16 3,-4.02 -2.58,2.64 -4.32,4.5 0.66,0.6 z m 1.5,1.86 0.42,0.6 0.6,-0.72 0.6,-0.72 1.5,-2.22 1.32,-1.8 -0.9,0.9 z m -2.16,-1.14 -0.54,0.6 0.24,0.3 0.54,0.72 0.24,-0.3 0.3,-0.42 -0.12,-0.12 z m -14.58,20.88 -0.84,-0.36 0.06,-0.24 -0.18,0.3 -0.42,1.26 -0.06,0.6 -0.96,-0.12 0.06,-0.72 0.54,-1.38 1.5,-2.76 2.22,-3.72 3.3,-5.04 4.2,-5.34 0.24,-0.3 -2.16,-3.48 -0.84,-1.38 -2.21999,-2.7 -2.34001,-3 -1.5,-2.1 0.72,-0.66 0.78,0.54 0.3,0.24 -0.06,-0.12 -0.18,-0.36 -0.24,-0.42 -1.86,-2.82 -1.02,-1.98 0.54,-0.3 -0.06,-0.06 0.54,-0.3 -0.3,-0.66 0.78,-0.6 0.72,0.6 1.32,1.62 v -0.06 l -0.48,-0.84 0.84001,-0.54 0.06,0.18 0.9,-0.24 0.24,0.9 1.08,2.22 0.36,0.66 2.1,2.82 2.76001,3.36 2.69999,3.18 0.9,1.02 4.26,-4.86 4.32,-4.62 3.66,-3.66 2.4,-2.16 1.08,-0.9 0.72,0.66 -1.2,1.44 -2.33999,2.94 -1.20001,1.62 1.98,-2.1 1.8,-1.68 0.9,-0.66 0.66,0.72 -0.96,1.44 -2.46,3 -1.38,1.86 0.18,0.24 0.78,-0.84 1.62,-1.74 1.08001,-1.2 2.69999,-2.76 0.84,-0.84 0.72,0.6 -0.9,1.02 -2.16,2.22 -1.56,1.62 -2.4,2.7 -4.14,4.62 -3.18,3.6 -1.85999,2.7 0.47999,0.66 2.52001,3.3 2.57999,3.3 2.16,3.3 1.98,3.12 1.62,2.52 1.2,1.68 0.48,0.78 -0.84,0.48 -0.48,-0.78 -1.19999,-1.68 -1.62001,-2.52 -1.98,-3.12 -2.16,-3.18 -2.46,-3.3 -2.52,-3.3 -0.36,-0.42 -0.54,0.78 0.6,0.84 3.12,4.02 2.52,3.84 2.58,3.36 0.48,0.78 0.84,1.02 0.9,1.74 1.32,2.1 0.96,1.32 -0.84,0.6 -0.96,-1.44 -1.02,-1.56 -0.78,-0.78 -1.62,-1.86 -0.3,-0.36 0.6,1.38 -0.6,0.72 0.6,1.02 -0.12,1.8 -1.14,0.12 -1.14,-0.96 -1.74,-1.8 -2.1,-2.82 -2.46,-3.72 -2.88,-4.44 -1.5,2.34 -2.82,4.62 -1.91999,3.06 -0.66001,0.54 -0.66,-0.66 0.42,-0.54 1.2,-2.34 2.16,-3.54 0.60001,-0.96 -1.14001,1.5 -3.66,5.4 -2.58,4.14 -0.84,1.44 -0.54,1.02 -0.12,-0.06 -0.36,0.54 -0.54,1.08 -0.84,-0.36 0.54,-1.2 1.38,-2.22 0.78,-1.5 2.58,-4.68 1.14,-1.98 -0.9,1.38 -2.34,4.32 -1.5,2.64 -0.84,-0.48 1.5,-2.64 2.34,-4.32 3.78,-5.82 3.12,-4.02 -0.84,-1.26 -1.44,1.74 -3.78,5.1 -2.52,4.32 -1.8,2.58 -0.72,1.56 z" />
      <path
         id="path26"
         style="font-family:'Rubik Black';letter-spacing:0.075em"
         d="m 220.18094,100 q -0.66,0 -1.14,-0.48 -0.48,-0.48 -0.48,-1.14 V 70.9 h -9.96 q -0.66,0 -1.14,-0.48 -0.48,-0.48 -0.48,-1.14 v -9.66 q 0,-0.66 0.48,-1.14 0.48,-0.48 1.14,-0.48 h 35.16 q 0.66,0 1.14,0.48 0.48,0.48 0.48,1.14 v 9.66 q 0,0.66 -0.48,1.14 -0.48,0.48 -1.14,0.48 h -9.96 v 27.48 q 0,0.66 -0.48,1.14 -0.48,0.48 -1.14,0.48 z" />
      <path
         id="path28"
         style="font-family:'Rubik Black';letter-spacing:0.075em"
         d="m 255.81062,100 q -0.66,0 -1.14,-0.48 -0.48,-0.48 -0.48,-1.14 V 59.62 q 0,-0.66 0.48,-1.14 0.48,-0.48 1.14,-0.48 h 30.78 q 0.66001,0 1.14,0.48 0.48,0.48 0.48,1.14 v 8.46 q 0,0.66 -0.48,1.14 -0.47999,0.48 -1.14,0.48 h -18 v 3.78 h 16.68 q 0.66001,0 1.14,0.48 0.48,0.48 0.48,1.14 v 7.8 q 0,0.66 -0.48,1.14 -0.47999,0.48 -1.14,0.48 h -16.68 v 3.78 h 18.48 q 0.66,0 1.14,0.48 0.48,0.48 0.48,1.14 v 8.46 q 0,0.66 -0.48,1.14 -0.48,0.48 -1.14,0.48 z" />
      <path
         id="path30"
         style="font-family:'Rubik Black';letter-spacing:0.075em"
         d="m 300.38875,100 q -0.66,0 -1.14,-0.48 -0.48,-0.48 -0.48,-1.14 V 59.62 q 0,-0.66 0.48,-1.14 0.48,-0.48 1.14,-0.48 h 9.48 q 1.2,0 1.8,0.66 0.6,0.66 0.78,0.96 l 8.7,14.4 8.7,-14.4 q 0.18,-0.3 0.78,-0.96 0.6,-0.66 1.8,-0.66 h 9.48 q 0.66,0 1.14,0.48 0.48,0.48 0.48,1.14 v 38.76 q 0,0.66 -0.48,1.14 -0.48,0.48 -1.14,0.48 h -10.86 q -0.66,0 -1.14,-0.48 -0.48,-0.48 -0.48,-1.14 V 81.94 l -3.96,6.48 q -0.3,0.48 -0.84,1.02 -0.48,0.48 -1.38,0.48 h -4.2 q -0.9,0 -1.44,-0.48 -0.48,-0.54 -0.78,-1.02 l -3.96,-6.48 v 16.44 q 0,0.66 -0.48,1.14 -0.48,0.48 -1.14,0.48 z" />
      <path
         id="path32"
         style="font-family:'Rubik Black';letter-spacing:0.075em"
         d="m 356.21688,100 q -0.66001,0 -1.14001,-0.48 -0.48,-0.48 -0.48,-1.14 V 59.62 q 0,-0.66 0.48,-1.14 0.48,-0.48 1.14001,-0.48 h 18.18 q 5.45999,0 9.47999,1.62 4.08,1.56 6.3,4.86 2.28001,3.24 2.28001,8.22 0,4.98 -2.28001,8.16 -2.22,3.12 -6.3,4.62 -4.02,1.44 -9.47999,1.44 h -4.20001 v 11.46 q 0,0.66 -0.47999,1.14 -0.48001,0.48 -1.14001,0.48 z m 13.68,-24.18 h 4.19999 q 0.96,0 1.86001,-0.72 0.89999,-0.78 0.89999,-2.52 0,-1.14 -0.6,-2.28 -0.53999,-1.14 -2.16,-1.14 h -4.19999 z" />
      <path
         id="path34"
         style="font-family:'Rubik Black';letter-spacing:0.075em"
         d="m 420.36156,100.6 q -5.88,0 -10.32,-1.8 -4.38,-1.8 -6.96,-5.4 -2.52,-3.66 -2.76,-9 -0.18,-5.16 0,-10.56 0.24,-5.28 2.76,-8.94 2.52,-3.66 6.96,-5.58 4.44,-1.92 10.32,-1.92 5.88,0 10.32,1.92 4.44,1.92 6.96,5.58 2.58,3.66 2.76,8.94 0.18,5.4 0,10.56 -0.24,5.34 -2.82,9 -2.52,3.6 -6.96,5.4 -4.38,1.8 -10.26,1.8 z m 0,-11.7 q 1.98,0 3.18,-1.14 1.2,-1.2 1.26,-3.72 0.18,-5.16 0,-10.08 -0.06,-2.52 -1.32,-3.66 -1.2,-1.2 -3.12,-1.2 -1.92,0 -3.12,1.2 -1.2,1.14 -1.32,3.66 -0.18,4.92 0,10.08 0.12,2.52 1.26,3.72 1.2,1.14 3.18,1.14 z" />
      <path
         id="path36"
         style="font-family:'Rubik Black';letter-spacing:0.075em"
         d="m 452.05281,100 q -0.66,0 -1.14,-0.48 -0.48,-0.48 -0.48,-1.14 V 59.62 q 0,-0.66 0.48,-1.14 0.48,-0.48 1.14,-0.48 h 17.76 q 8.64,0 13.5,3.9 4.86,3.9 4.86,10.68 0,4.02 -1.86,7.02 -1.8,2.94 -4.62,4.74 l 7.38,13.68 q 0.18,0.36 0.18,0.66 0,0.54 -0.42,0.96 -0.36,0.36 -0.9,0.36 h -12.3 q -1.2,0 -1.8,-0.6 -0.6,-0.6 -0.78,-1.02 l -5.16,-11.46 h -2.46 v 11.46 q 0,0.66 -0.48,1.14 -0.48,0.48 -1.14,0.48 z m 13.38,-24.48 h 4.38 q 1.38,0 2.04,-0.9 0.72,-0.96 0.72,-2.16 0,-1.2 -0.66,-2.22 -0.6,-1.08 -2.1,-1.08 h -4.38 z" />
      <path
         id="path38"
         style="font-family:'Rubik Black';letter-spacing:0.075em"
         d="m 496.31219,100 q -0.54,0 -0.96,-0.36 -0.36,-0.42 -0.36,-0.96 0,-0.24 0.06,-0.42 l 13.38,-38.28 q 0.18,-0.66 0.84,-1.32 0.66,-0.66 1.86,-0.66 h 13.02 q 1.2,0 1.86,0.66 0.66,0.66 0.84,1.32 l 13.38,38.28 q 0.06,0.18 0.06,0.42 0,0.54 -0.42,0.96 -0.36,0.36 -0.9,0.36 h -11.1 q -1.14,0 -1.68,-0.48 -0.48,-0.54 -0.66,-1.02 l -1.44,-3.96 h -12.9 l -1.44,3.96 q -0.18,0.48 -0.66,1.02 -0.48,0.48 -1.68,0.48 z m 17.94,-17.16 h 6.78 l -3.42,-11.16 z" />
      <path
         id="path40"
         style="font-family:'Rubik Black';letter-spacing:0.075em"
         d="m 549.76375,100 q -0.66,0 -1.14,-0.48 -0.48,-0.48 -0.48,-1.14 V 59.62 q 0,-0.66 0.48,-1.14 0.48,-0.48 1.14,-0.48 h 9.48 q 1.2,0 1.74,0.54 0.54,0.54 0.72,0.84 l 10.14,16.62 V 59.62 q 0,-0.66 0.48,-1.14 0.48,-0.48 1.14,-0.48 h 10.86 q 0.66,0 1.14,0.48 0.48,0.48 0.48,1.14 v 38.76 q 0,0.66 -0.48,1.14 -0.48,0.48 -1.14,0.48 h -9.48 q -1.2,0 -1.74,-0.54 -0.54,-0.6 -0.72,-0.84 l -10.14,-15.3 v 15.06 q 0,0.66 -0.48,1.14 -0.48,0.48 -1.14,0.48 z" />
      <path
         id="path42"
         style="font-family:'Rubik Black';letter-spacing:0.075em"
         d="m 598.67781,100 q -0.66,0 -1.14,-0.48 -0.48,-0.48 -0.48,-1.14 V 59.62 q 0,-0.66 0.48,-1.14 0.48,-0.48 1.14,-0.48 h 30.78 q 0.66,0 1.14,0.48 0.48,0.48 0.48,1.14 v 8.46 q 0,0.66 -0.48,1.14 -0.48,0.48 -1.14,0.48 h -18 v 3.78 h 16.68 q 0.66,0 1.14,0.48 0.48,0.48 0.48,1.14 v 7.8 q 0,0.66 -0.48,1.14 -0.48,0.48 -1.14,0.48 h -16.68 v 3.78 h 18.48 q 0.66,0 1.14,0.48 0.48,0.48 0.48,1.14 v 8.46 q 0,0.66 -0.48,1.14 -0.48,0.48 -1.14,0.48 z" />
      <path
         id="path44"
         style="font-family:'Rubik Black';letter-spacing:0.075em"
         d="m 639.65594,100 q -0.54,0 -0.96,-0.36 -0.36,-0.42 -0.36,-0.96 0,-0.24 0.06,-0.42 l 13.38,-38.28 q 0.18,-0.66 0.84,-1.32 0.66,-0.66 1.86,-0.66 h 13.02 q 1.2,0 1.86,0.66 0.66,0.66 0.84,1.32 l 13.38,38.28 q 0.06,0.18 0.06,0.42 0,0.54 -0.42,0.96 -0.36,0.36 -0.9,0.36 h -11.1 q -1.14,0 -1.68,-0.48 -0.48,-0.54 -0.66,-1.02 l -1.44,-3.96 h -12.9 l -1.44,3.96 q -0.18,0.48 -0.66,1.02 -0.48,0.48 -1.68,0.48 z m 17.94,-17.16 h 6.78 l -3.42,-11.16 z" />
    </g>
  </g>
</svg>
