<?xml version="1.0" encoding="UTF-8" standalone="no"?>
<svg
   xmlns:dc="http://purl.org/dc/elements/1.1/"
   xmlns:cc="http://creativecommons.org/ns#"
   xmlns:rdf="http://www.w3.org/1999/02/22-rdf-syntax-ns#"
   xmlns:svg="http://www.w3.org/2000/svg"
   xmlns="http://www.w3.org/2000/svg"
   id="svg16"
   width="800px"
   version="1.1"
   height="200px">
  <metadata
     id="metadata20">
    <rdf:RDF>
      <cc:Work
         rdf:about="">
        <dc:format>image/svg+xml</dc:format>
        <dc:type
           rdf:resource="http://purl.org/dc/dcmitype/StillImage" />
      </cc:Work>
    </rdf:RDF>
  </metadata>
  <defs
     id="defs4">
    <style
       id="style2"
       type="text/css"><![CDATA[    
     @font-face {font-family:Rubik Medium;
     src: url('/Users/francesco/Repos/write-logos/src/fonts/Fonts_E_TEMPORANEA/Rubik-Medium.ttf');}
     @font-face {font-family:Bamboo shoot;
     src: url('/Users/francesco/Repos/write-logos/src/fonts/Fonts_X/bambooshoot.ttf');}
     ]]></style>
  </defs>
  <g
     id="g14"
     style="font-size:60px">
    <g
       style="text-anchor:middle"
       id="text12"
       aria-label="EXTEMPORANEA">
      <path
         id="path22"
         style="font-family:'Rubik Medium';letter-spacing:0.075em"
         d="m 137.72547,100 q -0.6,0 -1.02,-0.42 -0.42,-0.42 -0.42,-1.02 V 59.5 q 0,-0.66 0.42,-1.08 0.42,-0.42 1.02,-0.42 h 26.4 q 0.66,0 1.08,0.42 0.42,0.42 0.42,1.08 v 3.96 q 0,0.6 -0.42,1.02 -0.42,0.42 -1.08,0.42 h -19.74 v 10.62 h 18.42 q 0.66,0 1.08,0.42 0.42,0.42 0.42,1.02 v 3.72 q 0,0.66 -0.42,1.08 -0.42,0.36 -1.08,0.36 h -18.42 V 93.1 h 20.22 q 0.66,0 1.08,0.42 0.42,0.42 0.42,1.08 v 3.96 q 0,0.6 -0.42,1.02 -0.42,0.42 -1.08,0.42 z" />
      <path
         id="path24"
         style="font-family:'Bamboo shoot';letter-spacing:0.05em"
         d="m 181.39844,50.664062 h 0.82031 q 3.7793,0 7.26562,5.390625 6.18165,7.705079 6.21094,7.96875 h 0.11719 q 7.5293,-10.019531 9.72656,-12.070312 1.84571,-1.289063 3.75,-1.289063 h 0.82031 q 4.21875,0 6.32813,4.921875 l 0.23437,1.640625 v 0.820313 q 0,2.900391 -3.98437,7.03125 l -7.96875,10.195312 q 11.48437,14.589844 11.48437,15 0.46875,1.347657 0.46875,2.34375 V 93.4375 q 0,4.335937 -5.03906,6.328125 Q 211.10547,100 210.10937,100 h -0.82031 q -3.77929,0 -7.26562,-5.390625 -6.18164,-7.705078 -6.21094,-7.96875 h -0.11719 Q 188.16602,96.660156 185.96875,98.710937 184.12305,100 182.21875,100 h -0.82031 q -4.21875,0 -6.32813,-4.921875 L 174.83594,93.4375 v -0.820313 q 0,-2.90039 3.98437,-7.03125 l 7.96875,-10.195312 q -11.48437,-14.589844 -11.48437,-15 -0.46875,-1.347656 -0.46875,-2.34375 v -0.820313 q 0,-4.335937 5.03906,-6.328125 0.52734,-0.234375 1.52344,-0.234375 z m -1.75782,6.914063 v 0.117187 q 0,1.171875 3.86719,5.507813 0.64453,1.113281 6.44531,8.203125 l 2.69532,-3.515625 Q 184.5332,57.431641 183.03906,55.820312 182.45312,55.46875 181.86719,55.46875 H 181.75 q -2.10938,0.322266 -2.10938,2.109375 z m 19.21875,10.3125 2.8125,3.515625 9.96094,-12.773438 0.23438,-0.9375 v -0.117187 q -0.32227,-2.109375 -2.10938,-2.109375 h -0.11719 q -1.43554,0 -3.39843,3.046875 z m -3.16406,3.867187 -2.69531,3.515625 2.69531,3.632813 h 0.11719 l 2.69531,-3.515625 -2.69531,-3.632813 z m -5.85937,7.5 -9.96094,12.773438 -0.23438,0.9375 v 0.117187 q 0.32227,2.109375 2.10938,2.109375 h 0.11719 q 1.40625,0 3.39843,-3.046875 l 7.38282,-9.375 z m 11.71875,0 -2.69532,3.515625 q 8.58399,11.044922 9.60938,12.070313 0.61523,0.351562 1.17187,0.351562 h 0.11719 q 2.10938,-0.322265 2.10938,-2.109375 V 92.96875 q 0,-1.171875 -3.86719,-5.507813 -0.64453,-1.113281 -6.44531,-8.203125 z" />
      <path
         id="path26"
         style="font-family:'Rubik Medium';letter-spacing:0.075em"
         d="m 236.49672,100 q -0.6,0 -1.02,-0.42 -0.42,-0.42 -0.42,-1.02 V 65.38 h -11.1 q -0.6,0 -1.02,-0.42 -0.42,-0.42 -0.42,-1.02 V 59.5 q 0,-0.66 0.42,-1.08 0.42,-0.42 1.02,-0.42 h 30.6 q 0.66,0 1.08,0.42 0.42,0.42 0.42,1.08 v 4.44 q 0,0.6 -0.42,1.02 -0.42,0.42 -1.08,0.42 h -11.04 v 33.18 q 0,0.6 -0.42,1.02 -0.42,0.42 -1.08,0.42 z" />
      <path
         id="path28"
         style="font-family:'Rubik Medium';letter-spacing:0.075em"
         d="m 268.08484,100 q -0.6,0 -1.02,-0.42 -0.42,-0.42 -0.42,-1.02 V 59.5 q 0,-0.66 0.42,-1.08 0.42,-0.42 1.02,-0.42 h 26.4 q 0.66,0 1.08,0.42 0.42,0.42 0.42,1.08 v 3.96 q 0,0.6 -0.42,1.02 -0.42,0.42 -1.08,0.42 h -19.74 v 10.62 h 18.42 q 0.66,0 1.08,0.42 0.42,0.42 0.42,1.02 v 3.72 q 0,0.66 -0.42,1.08 -0.42,0.36 -1.08,0.36 h -18.42 V 93.1 h 20.22 q 0.66,0 1.08,0.42 0.42,0.42 0.42,1.08 v 3.96 q 0,0.6 -0.42,1.02 -0.42,0.42 -1.08,0.42 z" />
      <path
         id="path30"
         style="font-family:'Rubik Medium';letter-spacing:0.075em"
         d="m 309.91047,100 q -0.66,0 -1.08,-0.42 -0.42,-0.42 -0.42,-1.02 V 59.5 q 0,-0.66 0.42,-1.08 0.42,-0.42 1.08,-0.42 h 4.74 q 0.84,0 1.26,0.48 0.42,0.42 0.54,0.66 l 11.58,21.6 11.7,-21.6 q 0.12,-0.24 0.54,-0.66 0.42,-0.48 1.26,-0.48 h 4.68 q 0.66,0 1.08,0.42 0.42,0.42 0.42,1.08 v 39.06 q 0,0.6 -0.42,1.02 -0.42,0.42 -1.08,0.42 h -5.04 q -0.6,0 -1.02,-0.42 -0.42,-0.42 -0.42,-1.02 V 72.58 l -8.4,16.02 q -0.3,0.54 -0.78,0.96 -0.48,0.36 -1.26,0.36 h -2.46 q -0.84,0 -1.32,-0.36 -0.42,-0.42 -0.72,-0.96 l -8.4,-16.02 v 25.98 q 0,0.6 -0.42,1.02 -0.42,0.42 -1.02,0.42 z" />
      <path
         id="path32"
         style="font-family:'Rubik Medium';letter-spacing:0.075em"
         d="m 362.98328,100 q -0.6,0 -1.02,-0.42 -0.42,-0.42 -0.42,-1.02 V 59.5 q 0,-0.66 0.42,-1.08 0.42,-0.42 1.02,-0.42 h 16.08 q 7.02,0 11.22,3.36 4.26,3.3 4.26,9.96 0,6.72 -4.26,9.96 -4.2,3.24 -11.22,3.24 h -8.94 v 14.04 q 0,0.6 -0.42,1.02 -0.42,0.42 -1.02,0.42 z m 7.02,-22.14 h 8.76 q 3.48,0 5.34,-1.62 1.86,-1.68 1.86,-4.92 0,-3 -1.74,-4.8 -1.74,-1.86 -5.46,-1.86 h -8.76 z" />
      <path
         id="path34"
         style="font-family:'Rubik Medium';letter-spacing:0.075em"
         d="m 421.67547,100.6 q -7.98,0 -12.66,-4.02 -4.62,-4.08 -4.86,-12.42 -0.18,-5.04 0,-10.26 0.24,-8.16 4.98,-12.3 4.8,-4.2 12.54,-4.2 7.74,0 12.48,4.2 4.8,4.14 5.1,12.3 0.18,5.22 0,10.26 -0.3,8.34 -4.92,12.42 -4.62,4.02 -12.66,4.02 z m 0,-6.9 q 3.84,0 6.3,-2.28 2.52,-2.34 2.7,-7.56 0.06,-2.64 0.06,-4.86 0,-2.28 -0.06,-4.86 -0.18,-5.22 -2.7,-7.5 -2.46,-2.34 -6.3,-2.34 -3.78,0 -6.3,2.34 -2.46,2.28 -2.64,7.5 -0.12,2.58 -0.12,4.86 0,2.22 0.12,4.86 0.18,5.22 2.64,7.56 2.46,2.28 6.3,2.28 z" />
      <path
         id="path36"
         style="font-family:'Rubik Medium';letter-spacing:0.075em"
         d="m 453.19422,100 q -0.6,0 -1.02,-0.42 -0.42,-0.42 -0.42,-1.02 V 59.5 q 0,-0.66 0.42,-1.08 0.42,-0.42 1.02,-0.42 h 15.54 q 7.26,0 11.46,3.36 4.2,3.36 4.2,9.78 0,4.5 -2.16,7.44 -2.16,2.88 -5.88,4.2 l 8.76,15.3 q 0.18,0.36 0.18,0.66 0,0.54 -0.42,0.9 -0.36,0.36 -0.84,0.36 h -5.46 q -1.08,0 -1.62,-0.54 -0.48,-0.54 -0.78,-1.08 l -7.74,-14.22 h -8.34 v 14.4 q 0,0.6 -0.42,1.02 -0.42,0.42 -1.02,0.42 z m 6.9,-22.62 h 8.46 q 3.66,0 5.46,-1.62 1.8,-1.68 1.8,-4.68 0,-3 -1.8,-4.68 -1.74,-1.74 -5.46,-1.74 h -8.46 z" />
      <path
         id="path38"
         style="font-family:'Rubik Medium';letter-spacing:0.075em"
         d="m 494.10391,100 q -0.48,0 -0.9,-0.36 -0.36,-0.36 -0.36,-0.9 0,-0.24 0.12,-0.54 l 14.46,-38.7 q 0.18,-0.6 0.66,-1.02 0.54,-0.48 1.44,-0.48 h 6.54 q 0.9,0 1.38,0.48 0.54,0.42 0.72,1.02 l 14.46,38.7 q 0.06,0.3 0.06,0.54 0,0.54 -0.36,0.9 -0.36,0.36 -0.84,0.36 h -5.22 q -0.84,0 -1.26,-0.36 -0.36,-0.42 -0.48,-0.78 l -2.82,-7.32 h -17.82 l -2.82,7.32 q -0.12,0.36 -0.54,0.78 -0.36,0.36 -1.2,0.36 z m 11.88,-15.36 h 13.62 l -6.84,-18.54 z" />
      <path
         id="path40"
         style="font-family:'Rubik Medium';letter-spacing:0.075em"
         d="m 544.22547,100 q -0.6,0 -1.02,-0.42 -0.42,-0.42 -0.42,-1.02 V 59.5 q 0,-0.66 0.42,-1.08 0.42,-0.42 1.02,-0.42 h 4.62 q 0.84,0 1.2,0.42 0.42,0.36 0.54,0.54 l 17.28,26.88 V 59.5 q 0,-0.66 0.36,-1.08 0.42,-0.42 1.08,-0.42 h 5.04 q 0.66,0 1.08,0.42 0.42,0.42 0.42,1.08 v 39 q 0,0.66 -0.42,1.08 -0.42,0.42 -1.02,0.42 h -4.68 q -0.84,0 -1.26,-0.36 -0.36,-0.42 -0.48,-0.6 l -17.22,-26.28 v 25.8 q 0,0.6 -0.42,1.02 -0.42,0.42 -1.08,0.42 z" />
      <path
         id="path42"
         style="font-family:'Rubik Medium';letter-spacing:0.075em"
         d="m 591.14734,100 q -0.6,0 -1.02,-0.42 -0.42,-0.42 -0.42,-1.02 V 59.5 q 0,-0.66 0.42,-1.08 0.42,-0.42 1.02,-0.42 h 26.4 q 0.66,0 1.08,0.42 0.42,0.42 0.42,1.08 v 3.96 q 0,0.6 -0.42,1.02 -0.42,0.42 -1.08,0.42 h -19.74 v 10.62 h 18.42 q 0.66,0 1.08,0.42 0.42,0.42 0.42,1.02 v 3.72 q 0,0.66 -0.42,1.08 -0.42,0.36 -1.08,0.36 h -18.42 V 93.1 h 20.22 q 0.66,0 1.08,0.42 0.42,0.42 0.42,1.08 v 3.96 q 0,0.6 -0.42,1.02 -0.42,0.42 -1.08,0.42 z" />
      <path
         id="path44"
         style="font-family:'Rubik Medium';letter-spacing:0.075em"
         d="m 628.89297,100 q -0.48,0 -0.9,-0.36 -0.36,-0.36 -0.36,-0.9 0,-0.24 0.12,-0.54 l 14.46,-38.7 q 0.18,-0.6 0.66,-1.02 0.54,-0.48 1.44,-0.48 h 6.54 q 0.9,0 1.38,0.48 0.54,0.42 0.72,1.02 l 14.46,38.7 q 0.06,0.3 0.06,0.54 0,0.54 -0.36,0.9 -0.36,0.36 -0.84,0.36 h -5.22 q -0.84,0 -1.26,-0.36 -0.36,-0.42 -0.48,-0.78 l -2.82,-7.32 h -17.82 l -2.82,7.32 q -0.12,0.36 -0.54,0.78 -0.36,0.36 -1.2,0.36 z m 11.88,-15.36 h 13.62 l -6.84,-18.54 z" />
    </g>
  </g>
</svg>
