<?xml version="1.0" encoding="UTF-8" standalone="no"?>
<svg
   xmlns:dc="http://purl.org/dc/elements/1.1/"
   xmlns:cc="http://creativecommons.org/ns#"
   xmlns:rdf="http://www.w3.org/1999/02/22-rdf-syntax-ns#"
   xmlns:svg="http://www.w3.org/2000/svg"
   xmlns="http://www.w3.org/2000/svg"
   id="svg16"
   width="800px"
   version="1.1"
   height="200px">
  <metadata
     id="metadata20">
    <rdf:RDF>
      <cc:Work
         rdf:about="">
        <dc:format>image/svg+xml</dc:format>
        <dc:type
           rdf:resource="http://purl.org/dc/dcmitype/StillImage" />
      </cc:Work>
    </rdf:RDF>
  </metadata>
  <defs
     id="defs4">
    <style
       id="style2"
       type="text/css"><![CDATA[    
     @font-face {font-family:Rubik Black;
     src: url('/Users/francesco/Repos/write-logos/src/fonts/Fonts_E_TEMPORANEA/Rubik-Black.ttf');}
     @font-face {font-family:Bungee Outline;
     src: url('/Users/francesco/Repos/write-logos/src/fonts/Fonts_X/BungeeOutline-Regular.ttf');}
     ]]></style>
  </defs>
  <g
     id="g14"
     style="font-size:60px">
    <g
       style="text-anchor:middle"
       id="text12"
       aria-label="EXTEMPORANEA">
      <path
         id="path22"
         style="font-family:'Rubik Black';letter-spacing:0.075em"
         d="m 120.17781,100 q -0.66,0 -1.14,-0.48 -0.48,-0.48 -0.48,-1.14 V 59.62 q 0,-0.66 0.48,-1.14 0.48,-0.48 1.14,-0.48 h 30.78 q 0.66,0 1.14,0.48 0.48,0.48 0.48,1.14 v 8.46 q 0,0.66 -0.48,1.14 -0.48,0.48 -1.14,0.48 h -18 v 3.78 h 16.68 q 0.66,0 1.14,0.48 0.48,0.48 0.48,1.14 v 7.8 q 0,0.66 -0.48,1.14 -0.48,0.48 -1.14,0.48 h -16.68 v 3.78 h 18.48 q 0.66,0 1.14,0.48 0.48,0.48 0.48,1.14 v 8.46 q 0,0.66 -0.48,1.14 -0.48,0.48 -1.14,0.48 z" />
      <path
         id="path24"
         style="font-family:'Bungee Outline';letter-spacing:0.05em"
         d="m 170.45594,91.9 v 2.7 h -0.6 v -2.7 q 0,-1.32 0.06,-2.46 0.12,-1.2 0.84,-2.16 l 7.2,-9.84 -7.2,-9.72 q -0.66,-0.96 -0.78,-2.1 -0.12,-1.2 -0.12,-2.52 v -0.9 h 0.6 v 0.9 q 0,1.26 0.12,2.4 0.12,1.14 0.72,1.98 l 7.2,9.72 h 7.14 l 6.96,-9.72 q 0.6,-0.84 0.72,-1.98 0.12,-1.14 0.12,-2.4 v -0.9 h 0.6 v 0.9 q 0,1.32 -0.12,2.52 -0.12,1.14 -0.78,2.1 l -7.08,9.84 7.08,9.72 q 0.66,0.96 0.78,2.16 0.12,1.14 0.12,2.46 v 2.7 h -0.6 v -2.7 q 0,-1.26 -0.12,-2.4 -0.12,-1.14 -0.72,-1.98 l -7.02,-9.72 h -7.2 l -7.08,9.72 q -0.6,0.78 -0.72,1.98 -0.12,1.14 -0.12,2.4 z m 6.42,5.94 V 91.9 q 0,-0.6 0.06,-1.26 0.06,-0.66 0.48,-1.26 l 2.7,-3.78 q 0.36,-0.54 0.66,-0.78 0.3,-0.24 0.78,-0.24 h 0.84 q 0.48,0 0.78,0.24 0.3,0.24 0.66,0.78 l 2.64,3.78 q 0.42,0.6 0.48,1.26 0.06,0.66 0.06,1.26 v 5.94 q 0,1.14 0.48,1.68 0.54,0.48 1.68,0.48 h 9.12 q 1.14,0 1.62,-0.48 0.54,-0.54 0.54,-1.68 v -6.42 q 0,-2.76 -0.48,-4.14 -0.42,-1.38 -1.8,-3.24 l -4.86,-6.48 4.86,-6.6 q 1.32,-1.86 1.8,-3.24 0.48,-1.38 0.48,-4.14 v -4.62 q 0,-1.14 -0.54,-1.62 -0.48,-0.54 -1.62,-0.54 h -9.12 q -1.14,0 -1.68,0.54 -0.48,0.48 -0.48,1.62 v 4.14 q 0,0.6 -0.06,1.26 -0.06,0.66 -0.48,1.26 l -2.7,3.78 q -0.36,0.48 -0.66,0.78 -0.3,0.24 -0.78,0.24 h -0.72 q -0.48,0 -0.84,-0.24 -0.3,-0.3 -0.6,-0.78 l -2.64,-3.78 q -0.42,-0.6 -0.48,-1.26 -0.06,-0.66 -0.06,-1.26 v -4.14 q 0,-1.14 -0.54,-1.62 -0.48,-0.54 -1.62,-0.54 h -9.24 q -1.14,0 -1.68,0.54 -0.48,0.48 -0.48,1.62 v 4.62 q 0,2.76 0.42,4.14 0.48,1.38 1.86,3.24 l 4.86,6.54 -4.86,6.54 q -1.32,1.86 -1.8,3.24 -0.48,1.38 -0.48,4.14 v 6.42 q 0,1.14 0.48,1.68 0.54,0.48 1.68,0.48 h 9.12 q 1.14,0 1.62,-0.48 0.54,-0.54 0.54,-1.68 z m -2.16,2.76 h -9.12 q -1.44,0 -2.1,-0.66 -0.66,-0.66 -0.66,-2.1 v -6.42 q 0,-2.94 0.48,-4.38 0.48,-1.44 1.92,-3.36 l 4.62,-6.18 -4.62,-6.18 q -1.44,-1.92 -1.92,-3.36 -0.48,-1.44 -0.48,-4.38 v -4.62 q 0,-1.44 0.66,-2.1 0.66,-0.66 2.1,-0.66 h 9.24 q 1.44,0 2.1,0.66 0.66,0.66 0.66,2.1 v 4.14 q 0,0.54 0,1.14 0.06,0.54 0.42,1.02 l 2.64,3.84 q 0.24,0.3 0.42,0.54 0.18,0.18 0.54,0.18 h 0.72 q 0.36,0 0.54,-0.24 0.18,-0.24 0.42,-0.54 l 2.7,-3.78 q 0.36,-0.48 0.36,-1.02 0.06,-0.6 0.06,-1.14 v -4.14 q 0,-1.44 0.66,-2.1 0.66,-0.66 2.1,-0.66 h 9.12 q 1.44,0 2.1,0.66 0.66,0.66 0.66,2.1 v 4.62 q 0,2.94 -0.48,4.38 -0.48,1.44 -1.92,3.36 l -4.62,6.24 4.62,6.12 q 1.44,1.92 1.92,3.36 0.48,1.44 0.48,4.38 v 6.42 q 0,1.44 -0.66,2.1 -0.66,0.66 -2.1,0.66 h -9.12 q -1.44,0 -2.1,-0.66 -0.66,-0.66 -0.66,-2.1 V 91.9 q 0,-0.54 -0.06,-1.08 0,-0.54 -0.36,-1.08 l -2.64,-3.78 q -0.24,-0.36 -0.42,-0.54 -0.18,-0.24 -0.54,-0.24 h -0.84 q -0.36,0 -0.54,0.24 -0.18,0.18 -0.42,0.54 l -2.7,3.78 q -0.36,0.54 -0.42,1.08 0,0.54 0,1.08 v 5.94 q 0,1.44 -0.66,2.1 -0.66,0.66 -2.1,0.66 z" />
      <path
         id="path26"
         style="font-family:'Rubik Black';letter-spacing:0.075em"
         d="m 221.23562,100 q -0.66,0 -1.14,-0.48 -0.48,-0.48 -0.48,-1.14 V 70.9 h -9.96 q -0.66,0 -1.14,-0.48 -0.48,-0.48 -0.48,-1.14 v -9.66 q 0,-0.66 0.48,-1.14 0.48,-0.48 1.14,-0.48 h 35.16 q 0.66,0 1.14,0.48 0.48001,0.48 0.48001,1.14 v 9.66 q 0,0.66 -0.48001,1.14 -0.48,0.48 -1.14,0.48 h -9.96 v 27.48 q 0,0.66 -0.47999,1.14 -0.48001,0.48 -1.14001,0.48 z" />
      <path
         id="path28"
         style="font-family:'Rubik Black';letter-spacing:0.075em"
         d="m 256.86531,100 q -0.66,0 -1.14,-0.48 -0.48,-0.48 -0.48,-1.14 V 59.62 q 0,-0.66 0.48,-1.14 0.48,-0.48 1.14,-0.48 h 30.78 q 0.66,0 1.14,0.48 0.48,0.48 0.48,1.14 v 8.46 q 0,0.66 -0.48,1.14 -0.48,0.48 -1.14,0.48 h -18 v 3.78 h 16.68 q 0.66,0 1.14,0.48 0.48,0.48 0.48,1.14 v 7.8 q 0,0.66 -0.48,1.14 -0.48,0.48 -1.14,0.48 h -16.68 v 3.78 h 18.48 q 0.66,0 1.14,0.48 0.48,0.48 0.48,1.14 v 8.46 q 0,0.66 -0.48,1.14 -0.48,0.48 -1.14,0.48 z" />
      <path
         id="path30"
         style="font-family:'Rubik Black';letter-spacing:0.075em"
         d="m 301.44344,100 q -0.66,0 -1.14,-0.48 -0.48,-0.48 -0.48,-1.14 V 59.62 q 0,-0.66 0.48,-1.14 0.48,-0.48 1.14,-0.48 h 9.48 q 1.2,0 1.8,0.66 0.6,0.66 0.78,0.96 l 8.7,14.4 8.7,-14.4 q 0.18,-0.3 0.78,-0.96 0.6,-0.66 1.8,-0.66 h 9.48 q 0.66,0 1.14,0.48 0.48,0.48 0.48,1.14 v 38.76 q 0,0.66 -0.48,1.14 -0.48,0.48 -1.14,0.48 h -10.86 q -0.66,0 -1.14,-0.48 -0.48,-0.48 -0.48,-1.14 V 81.94 l -3.96,6.48 q -0.3,0.48 -0.84,1.02 -0.48,0.48 -1.38,0.48 h -4.2 q -0.9,0 -1.44,-0.48 -0.48,-0.54 -0.78,-1.02 l -3.96,-6.48 v 16.44 q 0,0.66 -0.48,1.14 -0.48,0.48 -1.14,0.48 z" />
      <path
         id="path32"
         style="font-family:'Rubik Black';letter-spacing:0.075em"
         d="m 357.27156,100 q -0.66,0 -1.14,-0.48 -0.48,-0.48 -0.48,-1.14 V 59.62 q 0,-0.66 0.48,-1.14 0.48,-0.48 1.14,-0.48 h 18.18 q 5.46,0 9.48,1.62 4.08,1.56 6.3,4.86 2.28,3.24 2.28,8.22 0,4.98 -2.28,8.16 -2.22,3.12 -6.3,4.62 -4.02,1.44 -9.48,1.44 h -4.2 v 11.46 q 0,0.66 -0.48,1.14 -0.48,0.48 -1.14,0.48 z m 13.68,-24.18 h 4.2 q 0.96,0 1.86,-0.72 0.9,-0.78 0.9,-2.52 0,-1.14 -0.6,-2.28 -0.54,-1.14 -2.16,-1.14 h -4.2 z" />
      <path
         id="path34"
         style="font-family:'Rubik Black';letter-spacing:0.075em"
         d="m 421.41625,100.6 q -5.88,0 -10.32,-1.8 -4.38,-1.8 -6.96,-5.4 -2.52,-3.66 -2.76,-9 -0.18,-5.16 0,-10.56 0.24,-5.28 2.76,-8.94 2.52,-3.66 6.96,-5.58 4.44,-1.92 10.32,-1.92 5.88,0 10.32,1.92 4.44,1.92 6.96,5.58 2.58,3.66 2.76,8.94 0.18,5.4 0,10.56 -0.24,5.34 -2.82,9 -2.52,3.6 -6.96,5.4 -4.38,1.8 -10.26,1.8 z m 0,-11.7 q 1.98,0 3.18,-1.14 1.2,-1.2 1.26,-3.72 0.18,-5.16 0,-10.08 -0.06,-2.52 -1.32,-3.66 -1.2,-1.2 -3.12,-1.2 -1.92,0 -3.12,1.2 -1.2,1.14 -1.32,3.66 -0.18,4.92 0,10.08 0.12,2.52 1.26,3.72 1.2,1.14 3.18,1.14 z" />
      <path
         id="path36"
         style="font-family:'Rubik Black';letter-spacing:0.075em"
         d="m 453.1075,100 q -0.66,0 -1.14,-0.48 -0.48,-0.48 -0.48,-1.14 V 59.62 q 0,-0.66 0.48,-1.14 0.48,-0.48 1.14,-0.48 h 17.76 q 8.64,0 13.5,3.9 4.86,3.9 4.86,10.68 0,4.02 -1.86,7.02 -1.8,2.94 -4.62,4.74 l 7.38,13.68 q 0.18,0.36 0.18,0.66 0,0.54 -0.42,0.96 -0.36,0.36 -0.9,0.36 h -12.3 q -1.2,0 -1.8,-0.6 -0.6,-0.6 -0.78,-1.02 l -5.16,-11.46 h -2.46 v 11.46 q 0,0.66 -0.48,1.14 -0.48,0.48 -1.14,0.48 z m 13.38,-24.48 h 4.38 q 1.38,0 2.04,-0.9 0.72,-0.96 0.72,-2.16 0,-1.2 -0.66,-2.22 -0.6,-1.08 -2.1,-1.08 h -4.38 z" />
      <path
         id="path38"
         style="font-family:'Rubik Black';letter-spacing:0.075em"
         d="m 497.36687,100 q -0.54,0 -0.95999,-0.36 -0.36001,-0.42 -0.36001,-0.96 0,-0.24 0.06,-0.42 l 13.38,-38.28 q 0.18,-0.66 0.84,-1.32 0.66,-0.66 1.86,-0.66 h 13.02 q 1.20001,0 1.86,0.66 0.66,0.66 0.84001,1.32 l 13.37999,38.28 q 0.06,0.18 0.06,0.42 0,0.54 -0.42,0.96 -0.36,0.36 -0.89999,0.36 h -11.10001 q -1.14,0 -1.67999,-0.48 -0.48,-0.54 -0.66001,-1.02 l -1.43999,-3.96 h -12.9 l -1.44001,3.96 q -0.18,0.48 -0.65999,1.02 -0.48001,0.48 -1.68,0.48 z m 17.94,-17.16 h 6.78 l -3.42,-11.16 z" />
      <path
         id="path40"
         style="font-family:'Rubik Black';letter-spacing:0.075em"
         d="m 550.81844,100 q -0.66,0 -1.14,-0.48 -0.48,-0.48 -0.48,-1.14 V 59.62 q 0,-0.66 0.48,-1.14 0.48,-0.48 1.14,-0.48 h 9.48 q 1.2,0 1.74,0.54 0.54,0.54 0.72,0.84 l 10.14,16.62 V 59.62 q 0,-0.66 0.48,-1.14 0.48,-0.48 1.14,-0.48 h 10.86 q 0.66,0 1.14,0.48 0.48,0.48 0.48,1.14 v 38.76 q 0,0.66 -0.48,1.14 -0.48,0.48 -1.14,0.48 h -9.48 q -1.2,0 -1.74,-0.54 -0.54,-0.6 -0.72,-0.84 l -10.14,-15.3 v 15.06 q 0,0.66 -0.48,1.14 -0.48,0.48 -1.14,0.48 z" />
      <path
         id="path42"
         style="font-family:'Rubik Black';letter-spacing:0.075em"
         d="m 599.7325,100 q -0.66,0 -1.14,-0.48 -0.48,-0.48 -0.48,-1.14 V 59.62 q 0,-0.66 0.48,-1.14 0.48,-0.48 1.14,-0.48 h 30.78 q 0.66,0 1.14,0.48 0.48,0.48 0.48,1.14 v 8.46 q 0,0.66 -0.48,1.14 -0.48,0.48 -1.14,0.48 h -18 v 3.78 h 16.68 q 0.66,0 1.14,0.48 0.48,0.48 0.48,1.14 v 7.8 q 0,0.66 -0.48,1.14 -0.48,0.48 -1.14,0.48 h -16.68 v 3.78 h 18.48 q 0.66,0 1.14,0.48 0.48,0.48 0.48,1.14 v 8.46 q 0,0.66 -0.48,1.14 -0.48,0.48 -1.14,0.48 z" />
      <path
         id="path44"
         style="font-family:'Rubik Black';letter-spacing:0.075em"
         d="m 640.71063,100 q -0.54001,0 -0.96,-0.36 -0.36001,-0.42 -0.36001,-0.96 0,-0.24 0.06,-0.42 l 13.38001,-38.28 q 0.17999,-0.66 0.83999,-1.32 0.66001,-0.66 1.86,-0.66 h 13.02 q 1.20001,0 1.86,0.66 0.66,0.66 0.84001,1.32 l 13.37999,38.28 q 0.06,0.18 0.06,0.42 0,0.54 -0.42,0.96 -0.36,0.36 -0.89999,0.36 h -11.10001 q -1.14,0 -1.67999,-0.48 -0.48,-0.54 -0.66001,-1.02 l -1.43999,-3.96 h -12.9 l -1.44001,3.96 q -0.17999,0.48 -0.65999,1.02 -0.48001,0.48 -1.68001,0.48 z m 17.93999,-17.16 h 6.78 l -3.42,-11.16 z" />
    </g>
  </g>
</svg>
