<?xml version="1.0" encoding="UTF-8" standalone="no"?>
<svg
   xmlns:dc="http://purl.org/dc/elements/1.1/"
   xmlns:cc="http://creativecommons.org/ns#"
   xmlns:rdf="http://www.w3.org/1999/02/22-rdf-syntax-ns#"
   xmlns:svg="http://www.w3.org/2000/svg"
   xmlns="http://www.w3.org/2000/svg"
   id="svg16"
   width="800px"
   version="1.1"
   height="200px">
  <metadata
     id="metadata20">
    <rdf:RDF>
      <cc:Work
         rdf:about="">
        <dc:format>image/svg+xml</dc:format>
        <dc:type
           rdf:resource="http://purl.org/dc/dcmitype/StillImage" />
      </cc:Work>
    </rdf:RDF>
  </metadata>
  <defs
     id="defs4">
    <style
       id="style2"
       type="text/css"><![CDATA[    
     @font-face {font-family:Rubik Black;
     src: url('/Users/francesco/Repos/write-logos/src/fonts/Fonts_E_TEMPORANEA/Rubik-Black.ttf');}
     @font-face {font-family:___Devastation;
     src: url('/Users/francesco/Repos/write-logos/src/fonts/Fonts_X/Devastation.ttf');}
     ]]></style>
  </defs>
  <g
     id="g14"
     style="font-size:60px">
    <g
       style="text-anchor:middle"
       id="text12"
       aria-label="EXTEMPORANEA">
      <path
         id="path22"
         style="font-family:'Rubik Black';letter-spacing:0.075em"
         d="m 121.70125,100 q -0.66,0 -1.14,-0.48 -0.48,-0.48 -0.48,-1.14 V 59.62 q 0,-0.66 0.48,-1.14 0.48,-0.48 1.14,-0.48 h 30.78 q 0.66,0 1.14,0.48 0.48,0.48 0.48,1.14 v 8.46 q 0,0.66 -0.48,1.14 -0.48,0.48 -1.14,0.48 h -18 v 3.78 h 16.68 q 0.66,0 1.14,0.48 0.48,0.48 0.48,1.14 v 7.8 q 0,0.66 -0.48,1.14 -0.48,0.48 -1.14,0.48 h -16.68 v 3.78 h 18.48 q 0.66,0 1.14,0.48 0.48,0.48 0.48,1.14 v 8.46 q 0,0.66 -0.48,1.14 -0.48,0.48 -1.14,0.48 z" />
      <path
         id="path24"
         style="font-family:'___Devastation';letter-spacing:0.05em"
         d="m 165.13867,56.259766 h 6.35742 l 10.86914,16.259765 10.92774,-16.259765 h 6.35742 l -14.0625,21.005859 15,22.734375 h -6.35742 L 181.92578,81.396484 169.5332,100 h -6.38672 l 15.61524,-23.349609 z" />
      <path
         id="path26"
         style="font-family:'Rubik Black';letter-spacing:0.075em"
         d="m 219.71219,100 q -0.66,0 -1.14,-0.48 -0.48,-0.48 -0.48,-1.14 V 70.9 h -9.96 q -0.66,0 -1.14,-0.48 -0.48,-0.48 -0.48,-1.14 v -9.66 q 0,-0.66 0.48,-1.14 0.48,-0.48 1.14,-0.48 h 35.16 q 0.66,0 1.14,0.48 0.48,0.48 0.48,1.14 v 9.66 q 0,0.66 -0.48,1.14 -0.48,0.48 -1.14,0.48 h -9.96 v 27.48 q 0,0.66 -0.48,1.14 -0.48,0.48 -1.14,0.48 z" />
      <path
         id="path28"
         style="font-family:'Rubik Black';letter-spacing:0.075em"
         d="m 255.34187,100 q -0.66,0 -1.14,-0.48 -0.48,-0.48 -0.48,-1.14 V 59.62 q 0,-0.66 0.48,-1.14 0.48,-0.48 1.14,-0.48 h 30.78 q 0.66001,0 1.14,0.48 0.48,0.48 0.48,1.14 v 8.46 q 0,0.66 -0.48,1.14 -0.47999,0.48 -1.14,0.48 h -18 v 3.78 h 16.68 q 0.66001,0 1.14,0.48 0.48,0.48 0.48,1.14 v 7.8 q 0,0.66 -0.48,1.14 -0.47999,0.48 -1.14,0.48 h -16.68 v 3.78 h 18.48 q 0.66,0 1.14,0.48 0.48,0.48 0.48,1.14 v 8.46 q 0,0.66 -0.48,1.14 -0.48,0.48 -1.14,0.48 z" />
      <path
         id="path30"
         style="font-family:'Rubik Black';letter-spacing:0.075em"
         d="m 299.92,100 q -0.66,0 -1.14,-0.48 -0.48,-0.48 -0.48,-1.14 V 59.62 q 0,-0.66 0.48,-1.14 0.48,-0.48 1.14,-0.48 h 9.48 q 1.2,0 1.8,0.66 0.6,0.66 0.78,0.96 l 8.7,14.4 8.7,-14.4 q 0.18,-0.3 0.78,-0.96 0.6,-0.66 1.8,-0.66 h 9.48 q 0.66,0 1.14,0.48 0.48,0.48 0.48,1.14 v 38.76 q 0,0.66 -0.48,1.14 -0.48,0.48 -1.14,0.48 h -10.86 q -0.66,0 -1.14,-0.48 -0.48,-0.48 -0.48,-1.14 V 81.94 L 325,88.42 q -0.3,0.48 -0.84,1.02 -0.48,0.48 -1.38,0.48 h -4.2 q -0.9,0 -1.44,-0.48 -0.48,-0.54 -0.78,-1.02 l -3.96,-6.48 v 16.44 q 0,0.66 -0.48,1.14 -0.48,0.48 -1.14,0.48 z" />
      <path
         id="path32"
         style="font-family:'Rubik Black';letter-spacing:0.075em"
         d="m 355.74813,100 q -0.66001,0 -1.14001,-0.48 -0.48,-0.48 -0.48,-1.14 V 59.62 q 0,-0.66 0.48,-1.14 0.48,-0.48 1.14001,-0.48 h 18.18 q 5.45999,0 9.47999,1.62 4.08,1.56 6.3,4.86 2.28001,3.24 2.28001,8.22 0,4.98 -2.28001,8.16 -2.22,3.12 -6.3,4.62 -4.02,1.44 -9.47999,1.44 h -4.20001 v 11.46 q 0,0.66 -0.47999,1.14 -0.48001,0.48 -1.14001,0.48 z m 13.68,-24.18 h 4.19999 q 0.96,0 1.86001,-0.72 0.89999,-0.78 0.89999,-2.52 0,-1.14 -0.6,-2.28 -0.53999,-1.14 -2.16,-1.14 h -4.19999 z" />
      <path
         id="path34"
         style="font-family:'Rubik Black';letter-spacing:0.075em"
         d="m 419.89281,100.6 q -5.88,0 -10.32,-1.8 -4.38,-1.8 -6.96,-5.4 -2.52,-3.66 -2.76,-9 -0.18,-5.16 0,-10.56 0.24,-5.28 2.76,-8.94 2.52,-3.66 6.96,-5.58 4.44,-1.92 10.32,-1.92 5.88,0 10.32,1.92 4.44,1.92 6.96,5.58 2.58,3.66 2.76,8.94 0.18,5.4 0,10.56 -0.24,5.34 -2.82,9 -2.52,3.6 -6.96,5.4 -4.38,1.8 -10.26,1.8 z m 0,-11.7 q 1.98,0 3.18,-1.14 1.2,-1.2 1.26,-3.72 0.18,-5.16 0,-10.08 -0.06,-2.52 -1.32,-3.66 -1.2,-1.2 -3.12,-1.2 -1.92,0 -3.12,1.2 -1.2,1.14 -1.32,3.66 -0.18,4.92 0,10.08 0.12,2.52 1.26,3.72 1.2,1.14 3.18,1.14 z" />
      <path
         id="path36"
         style="font-family:'Rubik Black';letter-spacing:0.075em"
         d="m 451.58406,100 q -0.66,0 -1.14,-0.48 -0.48,-0.48 -0.48,-1.14 V 59.62 q 0,-0.66 0.48,-1.14 0.48,-0.48 1.14,-0.48 h 17.76 q 8.64,0 13.5,3.9 4.86,3.9 4.86,10.68 0,4.02 -1.86,7.02 -1.8,2.94 -4.62,4.74 l 7.38,13.68 q 0.18,0.36 0.18,0.66 0,0.54 -0.42,0.96 -0.36,0.36 -0.9,0.36 h -12.3 q -1.2,0 -1.8,-0.6 -0.6,-0.6 -0.78,-1.02 l -5.16,-11.46 h -2.46 v 11.46 q 0,0.66 -0.48,1.14 -0.48,0.48 -1.14,0.48 z m 13.38,-24.48 h 4.38 q 1.38,0 2.04,-0.9 0.72,-0.96 0.72,-2.16 0,-1.2 -0.66,-2.22 -0.6,-1.08 -2.1,-1.08 h -4.38 z" />
      <path
         id="path38"
         style="font-family:'Rubik Black';letter-spacing:0.075em"
         d="m 495.84344,100 q -0.54,0 -0.96,-0.36 -0.36,-0.42 -0.36,-0.96 0,-0.24 0.06,-0.42 l 13.38,-38.28 q 0.18,-0.66 0.84,-1.32 0.66,-0.66 1.86,-0.66 h 13.02 q 1.2,0 1.86,0.66 0.66,0.66 0.84,1.32 l 13.38,38.28 q 0.06,0.18 0.06,0.42 0,0.54 -0.42,0.96 -0.36,0.36 -0.9,0.36 h -11.1 q -1.14,0 -1.68,-0.48 -0.48,-0.54 -0.66,-1.02 l -1.44,-3.96 h -12.9 l -1.44,3.96 q -0.18,0.48 -0.66,1.02 -0.48,0.48 -1.68,0.48 z m 17.94,-17.16 h 6.78 l -3.42,-11.16 z" />
      <path
         id="path40"
         style="font-family:'Rubik Black';letter-spacing:0.075em"
         d="m 549.295,100 q -0.66,0 -1.14,-0.48 -0.48,-0.48 -0.48,-1.14 V 59.62 q 0,-0.66 0.48,-1.14 0.48,-0.48 1.14,-0.48 h 9.48 q 1.2,0 1.74,0.54 0.54,0.54 0.72,0.84 L 571.375,76 V 59.62 q 0,-0.66 0.48,-1.14 0.48,-0.48 1.14,-0.48 h 10.86 q 0.66,0 1.14,0.48 0.48,0.48 0.48,1.14 v 38.76 q 0,0.66 -0.48,1.14 -0.48,0.48 -1.14,0.48 h -9.48 q -1.2,0 -1.74,-0.54 -0.54,-0.6 -0.72,-0.84 l -10.14,-15.3 v 15.06 q 0,0.66 -0.48,1.14 -0.48,0.48 -1.14,0.48 z" />
      <path
         id="path42"
         style="font-family:'Rubik Black';letter-spacing:0.075em"
         d="m 598.20906,100 q -0.66,0 -1.14,-0.48 -0.48,-0.48 -0.48,-1.14 V 59.62 q 0,-0.66 0.48,-1.14 0.48,-0.48 1.14,-0.48 h 30.78 q 0.66,0 1.14,0.48 0.48,0.48 0.48,1.14 v 8.46 q 0,0.66 -0.48,1.14 -0.48,0.48 -1.14,0.48 h -18 v 3.78 h 16.68 q 0.66,0 1.14,0.48 0.48,0.48 0.48,1.14 v 7.8 q 0,0.66 -0.48,1.14 -0.48,0.48 -1.14,0.48 h -16.68 v 3.78 h 18.48 q 0.66,0 1.14,0.48 0.48,0.48 0.48,1.14 v 8.46 q 0,0.66 -0.48,1.14 -0.48,0.48 -1.14,0.48 z" />
      <path
         id="path44"
         style="font-family:'Rubik Black';letter-spacing:0.075em"
         d="m 639.18719,100 q -0.54,0 -0.96,-0.36 -0.36,-0.42 -0.36,-0.96 0,-0.24 0.06,-0.42 l 13.38,-38.28 q 0.18,-0.66 0.84,-1.32 0.66,-0.66 1.86,-0.66 h 13.02 q 1.2,0 1.86,0.66 0.66,0.66 0.84,1.32 l 13.38,38.28 q 0.06,0.18 0.06,0.42 0,0.54 -0.42,0.96 -0.36,0.36 -0.9,0.36 h -11.1 q -1.14,0 -1.68,-0.48 -0.48,-0.54 -0.66,-1.02 l -1.44,-3.96 h -12.9 l -1.44,3.96 q -0.18,0.48 -0.66,1.02 -0.48,0.48 -1.68,0.48 z m 17.94,-17.16 h 6.78 l -3.42,-11.16 z" />
    </g>
  </g>
</svg>
