<?xml version="1.0" encoding="UTF-8" standalone="no"?>
<svg
   xmlns:dc="http://purl.org/dc/elements/1.1/"
   xmlns:cc="http://creativecommons.org/ns#"
   xmlns:rdf="http://www.w3.org/1999/02/22-rdf-syntax-ns#"
   xmlns:svg="http://www.w3.org/2000/svg"
   xmlns="http://www.w3.org/2000/svg"
   id="svg16"
   width="800px"
   version="1.1"
   height="200px">
  <metadata
     id="metadata20">
    <rdf:RDF>
      <cc:Work
         rdf:about="">
        <dc:format>image/svg+xml</dc:format>
        <dc:type
           rdf:resource="http://purl.org/dc/dcmitype/StillImage" />
      </cc:Work>
    </rdf:RDF>
  </metadata>
  <defs
     id="defs4">
    <style
       id="style2"
       type="text/css"><![CDATA[    
     @font-face {font-family:Rumburak;
     src: url('/Users/francesco/Repos/write-logos/src/fonts/Rumburak.ttf');}
     @font-face {font-family:TypographerGotisch Schmal;
     src: url('/Users/francesco/Repos/write-logos/src/fonts/TypographerGotischSchmal.ttf');}
     ]]></style>
  </defs>
  <g
     id="g14"
     style="font-size:60px">
    <g
       style="text-anchor:middle"
       id="text12"
       aria-label="eXtemporanea">
      <path
         id="path22"
         style="font-family:Rumburak"
         d="m 260.07812,95.86 q 0,-2.4 1.38,-4.62 1.44,-2.28 3.60001,-4.02 2.15999,-1.8 4.68,-2.82 2.57999,-1.08 4.85999,-1.08 0.84001,0 1.74,0.3 0.90001,0.24 1.62,0.72 0.78001,0.48 1.26,1.2 0.48,0.72 0.48,1.68 0,2.16 -1.44,3.66 -1.38,1.44 -3.42,2.52 -1.98,1.02 -4.2,1.74 -2.16,0.72 -3.72,1.38 0.12,0.84 0.66,1.08 0.60001,0.24 1.32,0.24 1.26,0 2.94,-0.36 1.74,-0.36 3.54,-0.84 1.80001,-0.54 3.48,-1.08 1.68,-0.6 2.94001,-1.08 0.11999,0.3 0.17999,0.6 0.12,0.24 0.12,0.54 0,0.36 -0.06,0.54 -1.56,0.6 -3.53999,1.32 -1.92001,0.72 -3.96001,1.38 -2.03999,0.6 -4.08,1.08 -1.98,0.42 -3.6,0.42 -1.02,0 -2.22,-0.24 -1.13999,-0.24 -2.16,-0.78 -1.02,-0.54 -1.73999,-1.38 -0.66001,-0.9 -0.66001,-2.1 z m 6.60001,-1.44 q 1.91999,-0.42 3.77999,-1.56 1.86,-1.2 2.94,-2.88 0.36,-0.6 0.72001,-1.32 0.41999,-0.78 0.41999,-1.5 0,-1.2 -1.26,-1.2 -1.2,0 -2.4,0.96 -1.13999,0.9 -2.1,2.28 -0.96,1.32 -1.56,2.76 -0.53999,1.44 -0.53999,2.46 z" />
      <path
         id="path24"
         style="font-family:'TypographerGotisch Schmal'"
         d="m 313.60563,64.18 q 0,-0.42 -1.92,-2.46 -1.38,-1.5 -2.46001,-2.4 -2.28,-1.86 -2.76,-1.86 -0.47999,0 -2.21999,1.38 -1.32,1.08 -2.34001,1.98 -0.24,0.24 -0.71999,0.78 -0.48001,0.48 -0.72001,0.78 -1.14,1.02 -1.56,1.02 -0.36,0 -0.36,-0.24 v -1.98 q 0,-0.3 -1.85999,-1.26 -1.92001,-0.96 -2.34001,-1.26 -2.4,-0.9 -2.76,-1.02 h -0.89999 q -0.42001,0.18 -2.64001,1.38 -0.84,0.48 -4.2,2.94 -3.53999,2.7 -3.65999,3.06 -0.06,0.06 -0.06,0.6 0.71999,0 5.09999,-3.3 h 0.54 q 1.8,0 5.64,2.22 l 0.18,0.18 q 0.42,0.6 0.42,2.22 0,0.54 -0.12,2.4 -0.06,1.86 -0.06,2.34 0,0.36 0.06,1.62 0.12,1.26 0.12,1.62 v 1.38 q -0.18,0.3 -0.6,0.3 h -3.36 q -0.48,0 -1.55999,2.04 -1.08001,2.04 -1.08001,2.58 0,0.84 1.02001,0.84 h 5.15999 l 0.24,0.24 q 0.18,0.18 0.18,1.38 v 0.48 q 0,5.82 -0.9,9.42 -0.29999,0.96 -0.41999,1.68 -0.66001,1.8 -1.80001,3.36 -3.95999,4.8 -6.42,6.84 -5.58,4.74 -5.58,5.4 h 0.66 q 1.56,-1.26 2.94001,-2.46 0.65999,-0.48 1.67999,-1.32 1.02001,-0.78 1.38,-1.08 1.68,-1.26 2.16,-1.68 3.9,-4.14 4.38,-4.68 0.36,-0.24 0.42,-0.36 l 2.52,-2.88 q 0.18,-0.18 0.42,-0.18 0.78,0 1.80001,0.78 0.29999,0.18 0.83999,0.6 0.54001,0.42 0.84001,0.66 3.59999,1.8 5.7,2.7 h 0.24 q 1.5,0 6.17999,-5.4 0.96,-0.72 1.44001,-1.14 1.07999,-0.78 1.07999,-1.26 0,-0.42 -0.54,-0.42 -0.53999,0 -1.86,1.2 -1.14,1.14 -1.5,1.14 -0.72,-0.18 -1.44,-0.42 -2.16,-0.9 -4.32,-1.86 -3.9,-1.74 -3.9,-2.1 v -7.56 q 0,-1.26 0.54,-1.26 h 5.46 q 0.36001,0 1.68001,-2.16 1.37999,-2.28 1.37999,-2.58 0,-0.54 -0.3,-0.54 h -7.07999 l -1.14001,-0.18 q -0.41999,0 -0.41999,-1.5 v -0.78 q 0,-2.34 0.06,-2.58 v -2.04 q 0,-3.66 1.68,-5.16 1.32,-1.26 1.91999,-1.68 h 0.42 q 0.3,0 2.34,1.68 0.12,0.06 1.98,2.28 1.56,1.74 2.16001,1.74 0.59999,0 2.75999,-1.8 2.16001,-1.8 2.16001,-2.4 z" />
      <path
         id="path26"
         style="font-family:Rumburak"
         d="m 325.50437,74.08 q 0.66,-0.48 1.56,-0.66 0.96001,-0.24 1.74,-0.24 0.66001,0 1.32,0.18 0.72001,0.18 1.2,0.66 0,0.36 -0.6,1.56 -0.54,1.14 -1.25999,2.58 -0.66001,1.38 -1.32,2.82 -0.60001,1.38 -0.78001,2.16 0.66001,-0.12 1.32,-0.24 0.72001,-0.12 1.38,-0.12 0.3,0 0.48,0.06 0.24,0 0.54001,0.06 0.12,0.36 0.23999,0.72 0.18,0.3 0.18,0.72 0,0.24 -0.72,0.42 -0.72,0.18 -1.62,0.3 -0.9,0.12 -1.74,0.3 -0.77999,0.12 -0.95999,0.3 -0.24001,0.3 -0.48001,0.72 -0.18,0.36 -0.36,0.66 -0.41999,0.72 -1.14,2.04 -0.66,1.26 -1.32,2.7 -0.66,1.38 -1.13999,2.76 -0.48001,1.32 -0.48001,2.1 0,0.48 0.18,0.66 0.24001,0.12 0.72,0.12 1.08001,0 2.76001,-0.66 1.67999,-0.66 3.29999,-1.44 1.62,-0.84 2.88,-1.5 1.32001,-0.72 1.68,-0.72 0.36,0 0.6,0.3 0.24001,0.3 0.24001,0.6 v 0.18 q -1.26,0.96 -3.24001,1.98 -1.98,0.96 -4.19999,1.8 -2.16001,0.78 -4.32,1.32 -2.16001,0.54 -3.72001,0.54 -0.54,0 -1.2,-0.12 -0.6,-0.18 -1.13999,-0.48 -0.48001,-0.3 -0.84001,-0.72 -0.36,-0.48 -0.36,-1.14 0,-1.38 0.48,-2.76 0.54001,-1.44 1.26,-2.76 0.78001,-1.38 1.56,-2.7 0.84001,-1.32 1.44,-2.52 -0.59999,0.18 -1.62,0.48 -1.02,0.24 -1.62,0.24 h -0.06 l -0.17999,-1.74 q 1.01999,-0.48 2.15999,-0.72 1.14,-0.24 2.16001,-0.66 1.31999,-2.52 2.39999,-5.1 1.08,-2.64 2.64,-5.04 z" />
      <path
         id="path28"
         style="font-family:Rumburak"
         d="m 330.97656,95.86 q 0,-2.4 1.38,-4.62 1.44,-2.28 3.6,-4.02 2.16,-1.8 4.68,-2.82 2.58,-1.08 4.86,-1.08 0.84,0 1.74,0.3 0.9,0.24 1.62,0.72 0.78,0.48 1.26,1.2 0.48,0.72 0.48,1.68 0,2.16 -1.44,3.66 -1.38,1.44 -3.42,2.52 -1.98,1.02 -4.2,1.74 -2.16,0.72 -3.72,1.38 0.12,0.84 0.66,1.08 0.6,0.24 1.32,0.24 1.26,0 2.94,-0.36 1.74,-0.36 3.54,-0.84 1.8,-0.54 3.48,-1.08 1.68,-0.6 2.94,-1.08 0.12,0.3 0.18,0.6 0.12,0.24 0.12,0.54 0,0.36 -0.06,0.54 -1.56,0.6 -3.54,1.32 -1.92,0.72 -3.96,1.38 -2.04,0.6 -4.08,1.08 -1.98,0.42 -3.6,0.42 -1.02,0 -2.22,-0.24 -1.14,-0.24 -2.16,-0.78 -1.02,-0.54 -1.74,-1.38 -0.66,-0.9 -0.66,-2.1 z m 6.6,-1.44 q 1.92,-0.42 3.78,-1.56 1.86,-1.2 2.94,-2.88 0.36,-0.6 0.72,-1.32 0.42,-0.78 0.42,-1.5 0,-1.2 -1.26,-1.2 -1.2,0 -2.4,0.96 -1.14,0.9 -2.1,2.28 -0.96,1.32 -1.56,2.76 -0.54,1.44 -0.54,2.46 z" />
      <path
         id="path30"
         style="font-family:Rumburak"
         d="m 355.04406,83.86 q 0.48,0 1.02,0 0.54,-0.06 1.02,-0.06 0.24,0 0.84,0.06 0.66,0 1.32,0.12 0.72,0.06 1.26,0.24 0.54,0.18 0.54,0.54 0,0.48 -0.42,1.44 -0.36,0.9 -0.9,1.98 -0.54,1.02 -1.08,2.04 -0.54,0.96 -0.78,1.5 0.96,-0.72 2.28,-2.04 1.38,-1.32 2.82,-2.58 1.5,-1.32 2.88,-2.28 1.44,-0.96 2.64,-0.96 1.5,0 2.16,0.6 0.72,0.54 0.72,2.1 0,0.78 -0.36,1.62 -0.36,0.84 -0.78,1.68 -0.42,0.78 -0.78,1.44 -0.36,0.66 -0.36,1.02 1.32,-0.78 2.58,-2.16 1.26,-1.44 2.58,-2.82 1.38,-1.38 2.82,-2.4 1.44,-1.02 3.12,-1.02 1.02,0 1.8,0.48 0.78,0.42 0.78,1.56 0,1.2 -0.66,2.7 -0.6,1.44 -1.38,2.82 -0.72,1.38 -1.38,2.58 -0.6,1.14 -0.6,1.74 0,0.48 0.6,0.48 0.72,0 1.68,-0.3 0.96,-0.36 1.92,-0.78 0.96,-0.42 1.8,-0.72 0.84,-0.36 1.32,-0.36 h 0.36 q 0,0.42 -0.06,0.84 0,0.42 -0.12,0.84 -0.54,0.36 -2.16,1.08 -1.56,0.72 -3.36,1.38 -1.74,0.66 -3.36,1.2 -1.62,0.48 -2.22,0.48 -1.08,0 -1.86,-0.78 -0.78,-0.78 -0.78,-1.86 0,-0.72 0.48,-1.86 0.54,-1.2 1.14,-2.4 0.6,-1.26 1.08,-2.28 0.54,-1.08 0.6,-1.62 -0.66,0 -1.8,1.08 -1.14,1.02 -2.4,2.34 -1.2,1.32 -2.28,2.58 -1.08,1.26 -1.5,1.8 -0.18,0.18 -0.48,0.54 -0.3,0.36 -0.66,0.78 -0.3,0.36 -0.66,0.72 -0.3,0.3 -0.48,0.42 -0.96,0.6 -2.28,0.6 -0.36,0 -0.9,-0.06 -0.54,-0.06 -1.08,-0.18 -0.48,-0.18 -0.84,-0.48 -0.36,-0.3 -0.36,-0.78 0.3,-0.6 1.02,-2.04 0.72,-1.5 1.44,-3.06 0.72,-1.62 1.26,-3 0.6,-1.38 0.6,-1.86 -0.36,0.18 -1.2,0.9 -0.84,0.66 -1.86,1.62 -1.02,0.96 -2.16,2.1 -1.08,1.08 -2.04,2.1 -0.9,1.02 -1.56,1.86 -0.6,0.84 -0.72,1.2 -0.12,0.48 -0.24,0.66 -0.06,0.18 -0.54,0.42 -0.48,0.24 -1.14,0.3 -0.66,0.06 -1.14,0.06 -1.32,0 -2.58,-0.36 -0.12,-0.48 -0.12,-0.72 0,-0.54 0.48,-1.62 0.42,-1.14 1.08,-2.52 0.6,-1.38 1.38,-2.94 0.78,-1.56 1.44,-3 0.66,-1.44 1.08,-2.7 0.48,-1.26 0.48,-2.04 z" />
      <path
         id="path32"
         style="font-family:Rumburak"
         d="m 408.28281,96.04 q 0,0.54 -0.06,0.84 -0.06,0.3 -0.54,0.54 -0.84,0.36 -2.1,0.84 -1.2,0.48 -2.52,0.9 -1.26,0.42 -2.52,0.72 -1.2,0.24 -2.1,0.24 -0.9,0 -1.86,-0.72 -0.9,-0.78 -0.9,-1.74 0,-0.6 0.48,-1.68 0.54,-1.14 1.14,-2.28 0.66,-1.2 1.14,-2.22 0.54,-1.08 0.54,-1.62 0,-0.36 -0.36,-0.36 -0.3,0 -0.9,0.48 -0.54,0.42 -1.26,1.14 -0.72,0.72 -1.5,1.62 -0.78,0.84 -1.5,1.68 -0.66,0.78 -1.2,1.44 -0.48,0.66 -0.66,0.96 -0.54,0.96 -1.38,2.88 -0.84,1.92 -1.62,4.02 -0.78,2.16 -1.32,4.14 -0.54,1.98 -0.54,3 -1.56,0.48 -2.94,0.48 -0.36,0 -0.84,-0.06 -0.54,0 -0.96,-0.12 -0.48,-0.12 -0.78,-0.42 -0.36,-0.24 -0.36,-0.78 0,-0.66 0.36,-1.98 0.36,-1.26 0.96,-2.88 0.54,-1.62 1.26,-3.42 0.72,-1.8 1.38,-3.42 0.66,-1.68 1.2,-3.06 0.6,-1.38 0.9,-2.16 0.12,-0.24 0.3,-0.72 0.24,-0.54 0.42,-1.08 0.18,-0.6 0.3,-1.08 0.18,-0.54 0.18,-0.84 0,-1.08 -0.42,-1.8 -0.36,-0.72 -0.96,-1.56 0,-0.66 0.36,-1.08 0.42,-0.42 0.96,-0.6 0.54,-0.24 1.14,-0.3 0.66,-0.06 1.2,-0.06 0.54,0 1.2,0.06 0.66,0.06 1.14,0.3 0.96,2.58 0.96,4.98 0,1.32 -0.24,2.34 0.9,-0.78 1.98,-2.1 1.08,-1.32 2.28,-2.58 1.26,-1.26 2.52,-2.16 1.32,-0.96 2.58,-0.96 1.26,0 2.22,0.36 0.96,0.36 0.96,1.86 0,1.38 -0.72,3.06 -0.66,1.62 -1.5,3.12 -0.78,1.44 -1.44,2.64 -0.66,1.14 -0.66,1.62 0,0.54 0.48,0.54 0.18,0 1.08,-0.24 0.9,-0.24 1.92,-0.48 1.08,-0.3 1.98,-0.54 0.96,-0.3 1.14,-0.42 z" />
      <path
         id="path34"
         style="font-family:Rumburak"
         d="m 429.39438,94.42 q -0.66001,0.6 -1.5,1.2 -0.84001,0.6 -1.86001,1.08 -0.96,0.42 -1.98,0.72 -0.95999,0.24 -1.86,0.24 -0.23999,0 -0.47999,0 -0.24001,0 -0.48001,-0.12 -1.74,1.2 -3.77999,1.86 -2.04001,0.66 -4.14001,0.66 -1.44,0 -2.76,-0.18 -1.26,-0.24 -2.27999,-0.84 -0.96001,-0.66 -1.5,-1.68 -0.60001,-1.08 -0.60001,-2.82 0,-2.4 1.44,-4.44 1.38,-2.04 3.48001,-3.48 2.09999,-1.5 4.56,-2.28 2.45999,-0.84 4.62,-0.84 1.19999,0 1.91999,0.12 0.78,0.12 1.38,0.42 0.6,0.3 1.14001,0.78 0.53999,0.48 1.38,1.14 -0.36001,1.02 -1.08001,1.38 -0.72,0.3 -1.73999,0.3 h -0.36001 q -0.36,-0.84 -0.84,-1.38 -0.41999,-0.6 -1.44,-0.6 -1.2,0 -2.64,0.72 -1.38,0.72 -2.58,1.86 -1.19999,1.08 -2.04,2.4 -0.77999,1.32 -0.77999,2.58 0,1.5 0.65999,2.76 0.72,1.2 2.46001,1.2 1.74,0 3.47999,-0.96 -0.59999,-0.66 -0.96,-1.44 -0.36,-0.84 -0.36,-1.74 0,-1.98 1.44,-3.24 1.44,-1.32 3.36,-1.32 1.26,0 2.10001,0.72 0.89999,0.66 0.89999,2.04 0,1.2 -0.6,2.28 -0.6,1.08 -1.38,1.92 0.42,-0.06 1.20001,-0.36 0.83999,-0.36 1.67999,-0.78 0.84,-0.48 1.62,-0.9 0.78,-0.42 1.20001,-0.72 v 0.48 z m -7.68,-0.12 q 0.53999,-0.54 1.19999,-1.32 0.66,-0.84 0.66,-1.68 0,-0.3 -0.17999,-0.54 -0.18,-0.3 -0.54001,-0.3 -0.72,0 -1.25999,0.9 -0.48001,0.84 -0.48001,1.5 0,0.9 0.60001,1.44 z" />
      <path
         id="path36"
         style="font-family:Rumburak"
         d="m 431.98187,84.4 q 1.02,-0.3 1.98001,-0.48 0.95999,-0.18 1.97999,-0.18 0.18,0 0.54,0 0.42001,0 0.78,0.06 0.36,0.06 0.66,0.24 0.3,0.12 0.3,0.42 0,0.12 -0.18,0.48 -0.18,0.36 -0.42,0.84 -0.24,0.48 -0.47999,0.96 -0.24,0.42 -0.3,0.66 0.71999,0 1.5,-0.54 0.77999,-0.6 1.56,-1.32 0.77999,-0.72 1.56,-1.26 0.83999,-0.6 1.73999,-0.6 0.84,0 1.32001,0.12 0.53999,0.12 1.13999,0.84 0.24001,0.66 0.24001,1.5 0,1.5 -0.72001,2.7 -0.65999,1.2 -1.8,2.1 -1.08,0.84 -2.46,1.32 -1.38,0.42 -2.76,0.42 -0.18,0 -0.6,-0.18 -0.36,-0.18 -0.36,-0.42 0,-0.54 0.66,-1.2 0.66001,-0.72 0.66001,-1.56 -0.84001,0.42 -1.80001,1.26 -0.96,0.84 -1.8,1.92 -0.83999,1.08 -1.38,2.22 -0.54,1.14 -0.54,2.1 0,0.66 0.72,0.84 0.72,0.12 1.2,0.12 1.86001,0 3.78,-0.42 1.92,-0.48 3.66,-0.96 0.66001,-0.18 1.38,-0.42 0.78001,-0.24 1.44,-0.3 h 0.3 q 0.24,0 0.72,0.12 0.54,0.06 0.54,0.42 0,0.48 -0.59999,0.78 -0.60001,0.24 -0.90001,0.36 -4.08,1.32 -8.09999,2.22 -3.96001,0.9 -8.28001,0.9 -1.01999,0 -1.68,-0.3 -0.65999,-0.3 -0.65999,-1.5 0,-0.18 0.06,-0.36 0,-0.18 0,-0.36 0.06,-0.42 0.41999,-1.44 0.3,-1.08 0.84001,-2.4 0.53999,-1.38 1.13999,-2.88 0.60001,-1.56 1.2,-2.94 0.60001,-1.38 1.08,-2.4 0.48,-1.08 0.72,-1.5 z" />
      <path
         id="path38"
         style="font-family:Rumburak"
         d="m 444.45719,95.62 q 0,-2.52 1.5,-4.74 1.5,-2.28 3.72,-3.96 2.28,-1.74 4.92,-2.7 2.64,-1.02 4.92,-1.02 0.72,0 1.62,0.18 0.96,0.12 1.86,0.42 0.9,0.3 1.68,0.72 0.84,0.42 1.32,0.96 -0.24,0.48 -0.54,0.72 -0.3,0.24 -0.66,0.36 -0.36,0.12 -0.78,0.24 -0.42,0.06 -0.84,0.24 0.48,0.24 1.14,0.24 0.66,0 1.26,-0.18 0.6,-0.18 1.14,-0.48 0.3,0.6 0.3,1.08 0,1.02 -0.54,2.16 -0.54,1.08 -1.2,2.22 -0.6,1.08 -1.14,2.28 -0.54,1.2 -0.54,2.4 h 0.12 q 0.72,0 1.62,-0.18 0.9,-0.24 1.86,-0.54 0.96,-0.36 1.8,-0.78 0.9,-0.42 1.44,-0.84 0.3,0.12 0.6,0.36 0.3,0.24 0.3,0.54 0,0.48 -1.44,1.26 -1.44,0.78 -3.3,1.56 -1.8,0.72 -3.54,1.26 -1.74,0.54 -2.28,0.54 -2.1,0 -2.82,-1.02 -0.72,-1.02 -1.08,-2.88 -0.66,0.24 -1.2,0.6 -0.54,0.36 -1.02,0.84 -1.62,1.32 -3.06,1.98 -1.38,0.6 -3.54,0.6 -2.1,0 -2.88,-1.26 -0.72,-1.26 -0.72,-3.18 z m 14.46,-9.78 q -1.08,0 -2.52,0.96 -1.44,0.96 -2.82,2.34 -1.32,1.32 -2.28,2.82 -0.9,1.44 -0.9,2.52 0,0.72 0.6,1.26 0.66,0.54 1.38,0.54 0.78,0 2.22,-1.08 1.44,-1.08 2.88,-2.52 1.44,-1.44 2.46,-2.88 1.08,-1.5 1.08,-2.22 0,-0.78 -0.72,-1.26 -0.66,-0.48 -1.38,-0.48 z" />
      <path
         id="path40"
         style="font-family:Rumburak"
         d="m 468.93531,98.56 q 0,-0.36 0.54,-1.56 0.48,-1.26 1.2,-2.88 0.78,-1.62 1.68,-3.42 0.96,-1.8 1.8,-3.3 0.84,-1.56 1.5,-2.58 0.72,-1.02 0.96,-1.08 0.48,-0.12 1.02,-0.12 0.54,-0.06 1.02,-0.06 1.5,0 3.06,0.18 -0.48,2.16 -1.5,4.14 -1.02,1.92 -1.86,3.96 1.02,-0.9 2.46,-2.28 1.5,-1.44 3.12,-2.76 1.62,-1.32 3.24,-2.22 1.68,-0.96 3.12,-0.96 1.02,0 1.74,0.72 0.78,0.66 0.78,1.68 0,1.26 -0.6,2.64 -0.6,1.32 -1.32,2.64 -0.72,1.32 -1.32,2.58 -0.6,1.26 -0.6,2.34 0,0.3 0.18,0.36 0.18,0.06 0.36,0.06 0.54,0 1.44,-0.3 0.96,-0.36 1.98,-0.84 1.02,-0.48 1.92,-0.9 0.96,-0.48 1.5,-0.78 0.3,0.6 0.3,1.08 0,0.42 -0.24,0.66 -1.44,0.78 -2.94,1.56 -1.44,0.78 -3,1.38 -1.5,0.6 -3.12,1.02 -1.56,0.36 -3.24,0.36 -0.84,0 -1.38,-0.78 -0.54,-0.84 -0.54,-1.56 0,-0.66 0.42,-1.74 0.48,-1.08 1.08,-2.28 0.6,-1.26 1.14,-2.46 0.6,-1.2 0.78,-2.1 -0.24,0 -1.32,0.78 -1.08,0.78 -2.4,1.74 -1.26,0.96 -2.4,1.86 -1.14,0.9 -1.5,1.2 -0.66,0.54 -1.14,1.32 -0.48,0.78 -0.9,1.56 -0.42,0.72 -0.84,1.38 -0.42,0.66 -0.9,1.02 -0.42,0.12 -0.84,0.12 -0.36,0 -0.78,0 -0.18,0 -0.66,0 -0.42,0 -0.96,0 -0.48,0 -0.9,0 -0.42,-0.06 -0.54,-0.12 -0.6,-0.48 -0.6,-1.26 z" />
      <path
         id="path42"
         style="font-family:Rumburak"
         d="m 495.15625,95.86 q 0,-2.4 1.38,-4.62 1.44,-2.28 3.6,-4.02 2.16,-1.8 4.68,-2.82 2.58,-1.08 4.86,-1.08 0.84,0 1.74,0.3 0.9,0.24 1.62,0.72 0.78,0.48 1.26,1.2 0.48,0.72 0.48,1.68 0,2.16 -1.44,3.66 -1.38,1.44 -3.42,2.52 -1.98,1.02 -4.2,1.74 -2.16,0.72 -3.72,1.38 0.12,0.84 0.66,1.08 0.6,0.24 1.32,0.24 1.26,0 2.94,-0.36 1.74,-0.36 3.54,-0.84 1.8,-0.54 3.48,-1.08 1.68,-0.6 2.94,-1.08 0.12,0.3 0.18,0.6 0.12,0.24 0.12,0.54 0,0.36 -0.06,0.54 -1.56,0.6 -3.54,1.32 -1.92,0.72 -3.96,1.38 -2.04,0.6 -4.08,1.08 -1.98,0.42 -3.6,0.42 -1.02,0 -2.22,-0.24 -1.14,-0.24 -2.16,-0.78 -1.02,-0.54 -1.74,-1.38 -0.66,-0.9 -0.66,-2.1 z m 6.6,-1.44 q 1.92,-0.42 3.78,-1.56 1.86,-1.2 2.94,-2.88 0.36,-0.6 0.72,-1.32 0.42,-0.78 0.42,-1.5 0,-1.2 -1.26,-1.2 -1.2,0 -2.4,0.96 -1.14,0.9 -2.1,2.28 -0.96,1.32 -1.56,2.76 -0.54,1.44 -0.54,2.46 z" />
      <path
         id="path44"
         style="font-family:Rumburak"
         d="m 514.18375,95.62 q 0,-2.52 1.5,-4.74 1.5,-2.28 3.72,-3.96 2.28,-1.74 4.92,-2.7 2.64,-1.02 4.92,-1.02 0.72,0 1.62,0.18 0.96,0.12 1.86,0.42 0.9,0.3 1.68,0.72 0.84,0.42 1.32,0.96 -0.24,0.48 -0.54,0.72 -0.3,0.24 -0.66,0.36 -0.36,0.12 -0.78,0.24 -0.42,0.06 -0.84,0.24 0.48,0.24 1.14,0.24 0.66,0 1.26,-0.18 0.6,-0.18 1.14,-0.48 0.3,0.6 0.3,1.08 0,1.02 -0.54,2.16 -0.54,1.08 -1.2,2.22 -0.6,1.08 -1.14,2.28 -0.54,1.2 -0.54,2.4 h 0.12 q 0.72,0 1.62,-0.18 0.9,-0.24 1.86,-0.54 0.96,-0.36 1.8,-0.78 0.9,-0.42 1.44,-0.84 0.3,0.12 0.6,0.36 0.3,0.24 0.3,0.54 0,0.48 -1.44,1.26 -1.44,0.78 -3.3,1.56 -1.8,0.72 -3.54,1.26 -1.74,0.54 -2.28,0.54 -2.1,0 -2.82,-1.02 -0.72,-1.02 -1.08,-2.88 -0.66,0.24 -1.2,0.6 -0.54,0.36 -1.02,0.84 -1.62,1.32 -3.06,1.98 -1.38,0.6 -3.54,0.6 -2.1,0 -2.88,-1.26 -0.72,-1.26 -0.72,-3.18 z m 14.46,-9.78 q -1.08,0 -2.52,0.96 -1.44,0.96 -2.82,2.34 -1.32,1.32 -2.28,2.82 -0.9,1.44 -0.9,2.52 0,0.72 0.6,1.26 0.66,0.54 1.38,0.54 0.78,0 2.22,-1.08 1.44,-1.08 2.88,-2.52 1.44,-1.44 2.46,-2.88 1.08,-1.5 1.08,-2.22 0,-0.78 -0.72,-1.26 -0.66,-0.48 -1.38,-0.48 z" />
    </g>
  </g>
</svg>
