<?xml version="1.0" encoding="UTF-8" standalone="no"?>
<svg
   xmlns:dc="http://purl.org/dc/elements/1.1/"
   xmlns:cc="http://creativecommons.org/ns#"
   xmlns:rdf="http://www.w3.org/1999/02/22-rdf-syntax-ns#"
   xmlns:svg="http://www.w3.org/2000/svg"
   xmlns="http://www.w3.org/2000/svg"
   id="svg16"
   width="500px"
   version="1.1"
   height="200px">
  <metadata
     id="metadata20">
    <rdf:RDF>
      <cc:Work
         rdf:about="">
        <dc:format>image/svg+xml</dc:format>
        <dc:type
           rdf:resource="http://purl.org/dc/dcmitype/StillImage" />
      </cc:Work>
    </rdf:RDF>
  </metadata>
  <defs
     id="defs4">
    <style
       id="style2"
       type="text/css"><![CDATA[    
     @font-face {font-family:Sareeka;
     src: url('/Users/francesco/Repos/write-logos/src/fonts/Sareeka-demo.ttf');}
     @font-face {font-family:Pyktor;
     src: url('/Users/francesco/Repos/write-logos/src/fonts/Pyktordemo.ttf');}
     ]]></style>
  </defs>
  <g
     id="g14"
     style="font-size:60px">
    <g
       style="text-anchor:middle"
       id="text12"
       aria-label="eXtemporanea">
      <path
         id="path22"
         style="font-family:Sareeka"
         d="m 155.07484,85 q 0.12,-0.3 0.3,-0.18 0.18,0.12 0,0.42 l -0.96,1.44 q -2.34,3.6 -4.62,5.64 -2.22,2.04 -4.14,2.94 -1.92,0.84 -3.54,0.72 -1.62,-0.12 -2.76,-0.9 -1.14,-0.84 -1.74,-2.1 -0.6,-1.26 -0.54,-2.64 0.18,-3.78 1.98,-7.44 1.86,-3.72 4.56,-6.3 1.38,-1.2 2.34,-1.5 1.02,-0.36 1.8,-0.24 1.44,0.18 1.98,1.2 0.6,0.96 0.42,2.22 -0.18,1.26 -1.08,2.58 -0.84,1.26 -2.28,2.16 -2.7,1.68 -5.88,1.5 -0.54,1.8 -0.9,3.36 -0.3,1.56 -0.3,2.58 0.12,2.22 1.32,3.42 1.26,1.2 3.24,0.96 1.98,-0.3 4.5,-2.28 2.52,-1.98 5.28,-6.12 0.3,-0.42 0.48,-0.72 0.24,-0.3 0.54,-0.72 z m -7.08,-9.48 q -1.08,-0.24 -2.1,0.42 -0.96,0.66 -1.86,1.92 -0.9,1.2 -1.68,2.88 -0.78,1.68 -1.32,3.36 3.12,0.18 5.1,-1.02 1.98,-1.26 2.82,-2.82 0.84,-1.62 0.6,-3 -0.24,-1.44 -1.56,-1.74 z" />
      <path
         id="path24"
         style="font-family:Pyktor"
         d="m 152.29492,59.570312 q -0.46875,-2.373046 -0.64453,-3.83789 -0.17578,-1.494141 -0.0879,-2.548828 0.43945,-0.322266 1.25977,-0.38086 0.8496,-0.05859 1.69921,0 0.84961,0.0293 2.13868,0.205078 -0.0293,3.28125 0.8789,7.177735 0.9375,3.867187 2.08008,7.236328 1.14258,3.339844 2.08008,5.625 0.9668,2.285156 0.9668,2.373047 0.17578,0.527344 0.41015,0.585937 0.26367,0.05859 0.61524,-0.673828 0.0293,-0.05859 0.8789,-1.728515 0.84961,-1.699219 2.25586,-4.248047 1.40625,-2.578125 3.19336,-5.654297 1.81641,-3.105469 3.7793,-6.00586 1.14258,-1.669921 2.31445,-2.929687 1.20117,-1.289063 1.55274,-1.523438 0.49804,-0.117187 1.37695,-0.146484 0.8789,-0.0293 1.72851,0.05859 0.87891,0.05859 1.49414,0.234375 0.61524,0.175781 0.58594,0.46875 -0.17578,0.380859 -1.11328,1.552734 -0.9375,1.171875 -2.16797,2.636719 -1.23047,1.435547 -2.46094,2.900391 -1.23046,1.435546 -2.02148,2.402343 -2.8125,3.427735 -4.83398,6.445313 -1.99219,2.988281 -3.25196,5.185547 -1.25976,2.197265 -2.43164,4.716797 0,0.08789 0.52735,1.523437 0.55664,1.40625 2.10937,3.955078 1.55274,2.548828 4.30664,6.181641 2.75391,3.603515 7.14844,8.05664 0.23437,0.175782 0.23437,0.234375 0.0293,0.234375 -0.11718,0.234375 -0.11719,0 -0.26368,-0.117187 -0.67382,-0.08789 -2.19726,-0.966797 -1.49414,-0.878906 -3.57422,-2.724609 -2.05078,-1.845703 -4.54102,-4.804688 -2.46093,-2.958984 -5.09765,-7.207031 -0.43945,-0.908203 -0.73242,-0.791016 -0.29297,0.117188 -0.73243,0.673828 -1.66992,2.050782 -3.10546,4.570313 -1.43555,2.519531 -2.49024,4.716797 -1.05469,2.197265 -1.69922,3.75 -0.61523,1.523437 -0.64453,1.611328 0,0.322266 -0.26367,0.498047 -0.23438,0.175781 -0.52734,0.263672 -0.29297,0.08789 -0.55664,0.08789 -0.23438,0 -0.23438,-0.0293 -0.11719,-0.205078 -0.11719,-0.849609 0.0293,-0.644531 0.58594,-2.138672 0.14648,-0.263672 0.79102,-1.816406 0.67382,-1.582031 1.72851,-3.925781 1.05469,-2.34375 2.46094,-5.214844 1.43555,-2.871094 3.10547,-5.771484 -0.17578,-0.263672 -1.31836,-2.402344 -1.14258,-2.138672 -2.54883,-5.126953 -1.40625,-3.017578 -2.69531,-6.416016 -1.28906,-3.398437 -1.81641,-6.181641 z" />
      <path
         id="path26"
         style="font-family:Sareeka"
         d="m 210.79047,60.94 q 0.36,2.22 -1.44,3.96 -1.2,1.14 -2.88,1.5 -1.62,0.36 -3.6,0.3 -1.98,-0.12 -4.2,-0.48 -2.16,-0.42 -4.44,-0.84 -3.06,9.12 -4.68,15.42 -1.62,6.24 -2.16,10.14 -0.48,3.9 -0.06,5.7 0.42,1.74 1.38,1.92 1.02,0.12 2.34,-1.14 1.32,-1.26 2.7,-3.42 1.02,-1.56 2.4,-3.72 1.38,-2.22 3.48,-5.28 0.3,-0.36 0.42,-0.18 0.18,0.12 -0.06,0.42 -2.1,3.06 -3.48,5.22 -1.38,2.16 -2.4,3.72 -1.8,2.94 -3.66,4.5 -1.86,1.56 -3.24,1.38 -1.38,-0.18 -2.16,-2.22 -0.78,-2.04 -0.42,-6.24 0.36,-4.2 1.98,-10.8 1.62,-6.6 5.04,-15.84 -1.98,-0.3 -3.96,-0.36 -1.92,-0.06 -3.72,0.24 0.42,0.72 0.06,1.38 -0.24,0.54 -0.78,0.72 -0.54,0.12 -0.96,0 -0.48,-0.12 -0.72,-0.48 -0.24,-0.42 0.12,-0.96 0.12,-0.18 0.48,-0.42 0.36,-0.24 1.02,-0.48 -0.66,-0.3 -1.5,-0.06 -0.9,0.24 -0.9,0 -0.06,-0.24 0.78,-0.42 1.44,-0.36 2.16,0.36 1.86,-0.42 3.9,-0.3 2.1,0.12 4.2,0.42 0.36,-1.02 0.66,-1.8 0.3,-0.78 0.54,-1.38 0.12,-0.24 0.6,-0.36 0.48,-0.18 0.96,-0.18 0.48,-0.06 0.84,0.06 0.42,0.06 0.36,0.24 -0.54,1.2 -1.38,3.78 2.22,0.42 4.32,0.84 2.16,0.36 4.08,0.48 1.92,0.06 3.48,-0.24 1.62,-0.36 2.76,-1.44 0.78,-0.78 1.14,-1.74 0.36,-0.96 0.18,-1.86 -0.12,-0.72 0.12,-0.66 0.24,0 0.3,0.6 z m -27.12,5.1 q 0.3,-0.6 -0.12,-1.08 -0.78,0.18 -1.08,0.42 -0.3,0.24 -0.42,0.36 -0.24,0.3 -0.06,0.54 0.12,0.24 0.48,0.3 0.3,0.06 0.66,-0.06 0.36,-0.12 0.54,-0.48 z" />
      <path
         id="path28"
         style="font-family:Sareeka"
         d="m 216.36391,85 q 0.12,-0.3 0.3,-0.18 0.18,0.12 0,0.42 l -0.96,1.44 q -2.34,3.6 -4.62,5.64 -2.22,2.04 -4.14,2.94 -1.92,0.84 -3.54,0.72 -1.62,-0.12 -2.76,-0.9 -1.14,-0.84 -1.74,-2.1 -0.6,-1.26 -0.54,-2.64 0.18,-3.78 1.98,-7.44 1.86,-3.72 4.56,-6.3 1.38,-1.2 2.34,-1.5 1.02,-0.36 1.8,-0.24 1.44,0.18 1.98,1.2 0.6,0.96 0.42,2.22 -0.18,1.26 -1.08,2.58 -0.84,1.26 -2.28,2.16 -2.7,1.68 -5.88,1.5 -0.54,1.8 -0.9,3.36 -0.3,1.56 -0.3,2.58 0.12,2.22 1.32,3.42 1.26,1.2 3.24,0.96 1.98,-0.3 4.5,-2.28 2.52,-1.98 5.28,-6.12 0.3,-0.42 0.48,-0.72 0.24,-0.3 0.54,-0.72 z m -7.08,-9.48 q -1.08,-0.24 -2.1,0.42 -0.96,0.66 -1.86,1.92 -0.9,1.2 -1.68,2.88 -0.78,1.68 -1.32,3.36 3.12,0.18 5.1,-1.02 1.98,-1.26 2.82,-2.82 0.84,-1.62 0.6,-3 -0.24,-1.44 -1.56,-1.74 z" />
      <path
         id="path30"
         style="font-family:Sareeka"
         d="m 241.64734,84.76 q 0.12,-0.18 0.24,-0.06 0.18,0.12 0.06,0.3 -0.9,1.2 -1.5,2.22 -0.6,0.96 -1.02,1.86 -0.36,0.84 -0.6,1.62 -0.24,0.72 -0.42,1.44 -0.36,1.32 -0.84,2.1 -0.42,0.72 -0.96,1.14 -0.48,0.36 -1.08,0.48 -0.6,0.06 -1.2,0 -1.56,-0.12 -2.28,-1.5 -0.66,-1.38 -0.9,-3.36 -0.18,-1.74 -0.06,-3.78 0.18,-2.04 0.42,-3.9 0.24,-1.92 0.48,-3.48 0.3,-1.56 0.42,-2.4 0.18,-1.02 -0.48,-1.26 -0.6,-0.24 -1.32,1.14 -1.26,2.76 -1.98,5.52 -0.66,2.7 -1.2,4.86 -0.54,2.1 -1.14,3.42 -0.54,1.32 -1.56,1.32 -0.84,0 -1.2,-0.96 -0.36,-0.96 -0.42,-2.4 0,-1.5 0.18,-3.24 0.18,-1.74 0.42,-3.3 0.24,-1.56 0.48,-2.7 0.24,-1.2 0.3,-1.56 0.18,-1.38 -0.36,-1.56 -0.84,-0.24 -1.56,1.02 -0.66,1.2 -1.2,3.06 -0.54,1.8 -0.96,3.78 -0.36,1.92 -0.6,3.06 -0.24,1.26 -0.6,3.12 -0.3,1.8 -0.84,3.36 -0.48,1.56 -1.26,2.4 -0.72,0.78 -1.68,0 -0.3,-0.24 -0.42,-1.08 -0.12,-0.9 -0.18,-1.92 0,-1.08 0.06,-1.98 0.06,-0.96 0.06,-1.38 0.24,-3.96 1.08,-7.8 0.84,-3.84 1.98,-7.62 0.06,-0.24 0.54,-0.42 0.48,-0.24 0.96,-0.3 0.48,-0.06 0.84,0 0.42,0.06 0.36,0.24 -1.02,3.48 -1.74,6.9 -0.72,3.36 -1.14,6.12 -0.36,2.7 -0.48,4.56 -0.12,1.8 0.06,2.1 0.24,0.3 0.66,-1.14 0.48,-1.44 1.2,-5.22 0.24,-1.38 0.6,-3.36 0.42,-1.98 1.02,-3.84 0.6,-1.86 1.44,-3.24 0.84,-1.38 2.04,-1.56 1.32,-0.18 1.92,0.66 0.66,0.84 0.54,1.98 -0.42,3.06 -0.66,5.82 -0.24,2.7 -0.24,4.14 0,1.44 0.3,1.14 0.3,-0.3 1.02,-3.36 0.3,-1.26 0.72,-2.7 0.42,-1.5 0.84,-2.82 0.48,-1.38 0.9,-2.4 0.42,-1.08 0.78,-1.56 0.6,-0.78 1.32,-1.08 0.78,-0.36 1.38,-0.24 0.66,0.12 1.08,0.66 0.42,0.48 0.48,1.38 0,1.02 -0.18,1.92 -0.18,0.84 -0.42,2.1 -0.18,1.26 -0.36,3.18 -0.18,1.92 -0.18,4.98 0,0.6 0.06,1.38 0.12,0.78 0.3,1.5 0.18,0.72 0.48,1.32 0.3,0.6 0.72,0.84 1.32,0.3 1.92,-0.42 0.6,-0.78 0.9,-1.98 0.24,-0.78 0.48,-1.5 0.24,-0.78 0.6,-1.62 0.42,-0.9 1.02,-1.86 0.6,-1.02 1.56,-2.28 z" />
      <path
         id="path32"
         style="font-family:Sareeka"
         d="m 263.84547,84.88 q 0.3,-0.36 0.48,-0.24 0.18,0.12 -0.12,0.48 -1.2,1.8 -2.58,2.88 -1.32,1.02 -2.7,1.62 -1.38,0.54 -2.76,0.72 -1.38,0.18 -2.7,0.24 -2.28,3.36 -4.14,4.5 -1.8,1.08 -2.94,0.84 -1.08,-0.24 -1.38,-1.32 -0.3,-1.14 0.42,-2.22 1.02,-1.5 2.64,-1.8 1.68,-0.3 3.66,-0.36 0.54,-1.14 1.26,-3.18 0.72,-2.1 1.14,-4.2 0.42,-2.16 0.3,-3.9 -0.06,-1.8 -1.2,-2.46 -1.56,-0.84 -3,0.24 -1.38,1.08 -2.64,3.18 -1.26,2.1 -2.34,4.74 -1.08,2.64 -2.04,4.92 -0.24,2.16 -0.24,5.22 0,3.06 -0.36,6.42 -0.3,3.36 -1.32,6.66 -1.02,3.36 -3.24,5.94 -0.48,0.54 -1.2,1.2 -0.78,0.72 -1.62,1.26 -0.9,0.54 -1.8,0.78 -0.9,0.24 -1.62,-0.12 -0.9,-0.42 -1.2,-1.26 -0.3,-0.84 -0.12,-1.92 0.18,-1.02 0.72,-2.28 0.54,-1.26 1.38,-2.58 4.86,-7.14 7.86,-14.94 0,-1.8 0.12,-3.54 0.12,-1.74 0.42,-3.9 0.36,-2.22 1.02,-5.04 0.66,-2.82 1.86,-6.72 0.06,-0.24 0.54,-0.42 0.48,-0.24 0.96,-0.3 0.48,-0.06 0.84,0 0.42,0.06 0.36,0.24 -1.2,4.02 -1.92,7.14 -0.66,3.12 -1.08,5.58 0.6,-1.44 1.26,-2.94 0.66,-1.5 1.38,-2.82 0.72,-1.38 1.5,-2.52 0.78,-1.2 1.62,-1.98 2.16,-2.1 4.14,-1.8 1.98,0.24 2.94,2.28 0.96,1.98 0.48,5.4 -0.42,3.42 -3.12,7.56 1.26,-0.06 2.58,-0.24 1.32,-0.24 2.58,-0.78 1.32,-0.6 2.52,-1.56 1.26,-1.02 2.4,-2.7 z m -27.36,29.7 q 1.44,-1.5 2.22,-3.84 0.84,-2.34 1.2,-4.98 0.36,-2.64 0.42,-5.46 0.12,-2.76 0.12,-5.22 -1.86,4.62 -3.54,7.56 -1.68,3 -2.94,4.98 -1.32,2.04 -2.16,3.48 -0.84,1.5 -0.96,3.12 -0.12,0.9 0.3,1.56 0.36,0.72 1.14,0.9 0.78,0.18 1.86,-0.3 1.08,-0.42 2.34,-1.8 z m 9.3,-21.96 q -0.6,0.9 -0.36,1.8 0.3,0.84 1.14,0.96 0.9,0.12 2.16,-0.84 1.32,-1.02 2.76,-3.9 -1.8,0.06 -3.3,0.36 -1.5,0.3 -2.4,1.62 z" />
      <path
         id="path34"
         style="font-family:Sareeka"
         d="m 282.50828,84.7 q 0.3,-0.42 0.48,-0.36 0.24,0 -0.12,0.6 -1.38,2.28 -3.66,3.42 -2.22,1.08 -5.34,1.26 -0.9,2.64 -2.46,4.14 -1.5,1.44 -3.12,1.92 -1.62,0.42 -3.06,-0.12 -1.44,-0.54 -2.22,-1.98 -0.78,-1.44 -0.66,-3.72 0.12,-2.28 1.68,-5.34 -0.42,-0.84 -0.66,-1.74 -0.24,-0.96 -0.24,-1.92 0,-2.4 1.14,-3.78 1.2,-1.44 2.82,-1.8 1.62,-0.36 3.36,0.3 1.74,0.66 2.94,2.4 1.2,1.68 1.56,4.44 0.36,2.7 -0.84,6.48 0,0.06 -0.06,0.12 0,0 0,0.06 v 0.12 q 1.8,-0.18 3.12,-0.54 1.32,-0.42 2.28,-1.02 1.02,-0.6 1.74,-1.32 0.72,-0.78 1.32,-1.62 z m -18.96,-3.84 q 0,1.74 0.72,3.24 0.06,-0.12 0.36,-0.72 0.3,-0.6 0.42,-0.72 0.18,-0.24 0.72,-0.42 0.54,-0.24 1.02,-0.24 0.54,-0.06 0.84,0.12 0.36,0.12 0.12,0.54 -0.36,0.6 -1.08,1.74 -0.72,1.14 -1.02,1.8 1.56,1.8 3.54,2.52 1.98,0.66 4.44,0.54 1.2,-3.72 0.96,-6.42 -0.24,-2.7 -1.38,-4.38 -1.08,-1.74 -2.76,-2.4 -1.62,-0.72 -3.18,-0.42 -1.5,0.3 -2.64,1.62 -1.08,1.32 -1.08,3.6 z m 1.92,5.76 q -1.02,2.22 -1.02,3.96 0,1.68 0.6,2.76 0.66,1.08 1.74,1.44 1.08,0.36 2.28,-0.06 1.26,-0.42 2.4,-1.62 1.2,-1.26 1.98,-3.42 -2.22,0.18 -4.26,-0.48 -1.98,-0.66 -3.72,-2.58 z" />
      <path
         id="path36"
         style="font-family:Sareeka"
         d="m 300.00109,85.3 q 0.24,-0.36 0.42,-0.18 0.24,0.12 -0.06,0.42 -0.96,1.38 -1.32,3.06 -0.3,1.62 -0.54,3.36 -0.24,1.8 -0.6,3.42 -0.36,1.62 -1.32,2.88 h 0.06 q -1.02,1.38 -2.7,1.74 -1.68,0.3 -2.88,-0.48 -1.26,-0.78 -1.62,-1.92 -0.3,-1.2 -0.24,-2.52 0.12,-1.32 0.36,-2.64 0.3,-1.38 0.24,-2.52 0,-1.14 -0.6,-1.86 -0.54,-0.78 -2.16,-0.96 -0.54,-0.06 -1.32,-0.12 -0.78,-0.06 -1.62,-0.24 -0.78,-0.18 -1.56,-0.48 -0.72,-0.36 -1.2,-0.96 -0.9,-1.14 -0.84,-2.46 0.06,-1.32 0.66,-2.46 0.6,-1.2 1.5,-2.1 0.9,-0.9 1.74,-1.2 1.08,-0.42 1.56,0.06 0.48,0.48 0.36,1.56 -0.12,1.08 -0.84,2.7 -0.72,1.56 -2.04,3.42 0.96,1.02 2.22,1.44 1.26,0.36 3.48,0.36 2.34,0.06 3,1.56 0.66,1.44 0.24,3.36 -0.6,3.18 -0.42,4.92 0.24,1.74 0.9,2.4 0.72,0.66 1.62,0.36 0.96,-0.3 1.8,-1.26 0.9,-1.2 1.2,-2.76 0.36,-1.56 0.6,-3.3 0.24,-1.74 0.54,-3.48 0.36,-1.74 1.38,-3.12 z m -15.48,-7.5 q -1.2,0.84 -1.74,1.8 -0.48,0.96 -0.54,1.92 -0.06,0.9 0.18,1.68 0.3,0.78 0.72,1.32 1.08,-1.5 1.74,-2.94 0.72,-1.44 0.96,-2.46 0.24,-1.02 -0.12,-1.44 -0.3,-0.42 -1.2,0.12 z" />
      <path
         id="path38"
         style="font-family:Sareeka"
         d="m 318.53359,84.46 q -1.92,2.7 -2.88,4.8 -0.9,2.04 -1.44,3.48 -0.3,0.72 -0.78,1.56 -0.42,0.84 -1.02,1.44 -0.54,0.54 -1.26,0.66 -0.66,0.06 -1.44,-0.78 -0.9,-1.02 -1.14,-2.88 -0.24,-1.86 -0.18,-3.54 -1.56,1.74 -3.12,2.7 -1.56,0.96 -2.94,0.96 -1.5,0 -2.4,-1.02 -1.26,-1.26 -1.14,-3.78 0.06,-2.34 0.96,-4.62 0.96,-2.34 2.28,-4.2 1.32,-1.86 2.76,-3 1.5,-1.2 2.76,-1.2 0.66,0 1.08,0.36 0.42,0.3 0.78,0.84 0.18,0.3 0.12,0.42 -0.06,0.06 -0.42,-0.3 -0.72,-0.78 -1.56,-0.78 -0.84,0 -1.68,0.78 -0.78,0.72 -1.56,1.98 -0.72,1.2 -1.32,2.76 -0.6,1.5 -1.02,3.06 -0.72,2.7 -0.66,4.62 0.12,1.86 0.96,2.34 0.54,0.36 1.2,0.36 1.32,0 2.7,-1.14 1.38,-1.14 2.34,-2.34 0.06,-1.2 0.18,-2.46 0.12,-1.32 0.42,-2.82 0.3,-1.56 0.72,-3.42 0.48,-1.92 1.2,-4.32 0.06,-0.24 0.48,-0.42 0.42,-0.18 0.84,-0.24 0.48,-0.06 0.84,0 0.36,0.06 0.36,0.36 -1.8,6.84 -2.34,11.28 -0.48,4.38 -0.18,6.54 0.3,2.16 1.14,2.16 0.84,-0.06 1.74,-2.1 0.54,-1.5 1.44,-3.54 0.96,-2.1 2.88,-4.8 0.24,-0.24 0.36,-0.12 0.18,0.06 -0.06,0.36 z" />
      <path
         id="path40"
         style="font-family:Sareeka"
         d="m 334.44016,85 q 0.18,-0.3 0.36,-0.18 0.24,0.12 0,0.42 -1.68,2.22 -2.4,3.72 -0.66,1.5 -1.14,2.76 -0.3,0.84 -0.66,1.62 -0.3,0.78 -0.78,1.38 -0.42,0.6 -1.08,0.96 -0.6,0.3 -1.5,0.18 -1.38,-0.18 -2.1,-1.32 -0.72,-1.2 -1.02,-2.94 -0.24,-1.74 -0.18,-3.84 0.12,-2.16 0.36,-4.14 0.3,-1.98 0.6,-3.6 0.3,-1.68 0.42,-2.58 0.18,-1.02 -0.48,-1.32 -0.6,-0.3 -1.32,1.2 -0.84,1.86 -1.44,3.78 -0.54,1.86 -1.02,3.66 -0.42,1.74 -0.78,3.24 -0.36,1.5 -0.78,2.52 -0.36,0.9 -0.96,1.5 -0.6,0.6 -1.2,0.54 -0.54,-0.12 -0.96,-1.02 -0.42,-0.9 -0.36,-2.94 0.06,-2.1 0.66,-5.46 0.66,-3.36 2.16,-8.34 0.06,-0.24 0.54,-0.42 0.48,-0.18 0.96,-0.24 0.48,-0.12 0.84,-0.06 0.42,0.06 0.36,0.24 -1.26,4.26 -1.92,7.8 -0.66,3.54 -0.84,5.46 -0.12,1.92 0.24,1.74 0.36,-0.18 1.14,-3.36 0.3,-1.26 0.72,-2.7 0.42,-1.5 0.84,-2.82 0.48,-1.38 0.9,-2.4 0.42,-1.08 0.78,-1.56 0.6,-0.84 1.32,-1.14 0.72,-0.36 1.32,-0.18 0.66,0.12 1.08,0.66 0.48,0.48 0.54,1.38 0,1.02 -0.18,1.92 -0.18,0.84 -0.42,2.1 -0.18,1.26 -0.36,3.18 -0.18,1.92 -0.18,4.98 0,0.66 0.06,1.44 0.12,0.78 0.3,1.5 0.18,0.66 0.42,1.2 0.3,0.54 0.66,0.78 0.6,0.36 1.08,0.12 0.48,-0.24 0.78,-0.72 0.36,-0.48 0.6,-1.08 0.24,-0.6 0.42,-1.08 0.48,-1.26 1.2,-2.76 0.72,-1.5 2.4,-3.78 z" />
      <path
         id="path42"
         style="font-family:Sareeka"
         d="m 350.89516,85 q 0.12,-0.3 0.3,-0.18 0.18,0.12 0,0.42 l -0.96,1.44 q -2.34,3.6 -4.62,5.64 -2.22,2.04 -4.14,2.94 -1.92,0.84 -3.54,0.72 -1.62,-0.12 -2.76,-0.9 -1.14,-0.84 -1.74,-2.1 -0.6,-1.26 -0.54,-2.64 0.18,-3.78 1.98,-7.44 1.86,-3.72 4.56,-6.3 1.38,-1.2 2.34,-1.5 1.02,-0.36 1.8,-0.24 1.44,0.18 1.98,1.2 0.6,0.96 0.42,2.22 -0.18,1.26 -1.08,2.58 -0.84,1.26 -2.28,2.16 -2.7,1.68 -5.88,1.5 -0.54,1.8 -0.9,3.36 -0.3,1.56 -0.3,2.58 0.12,2.22 1.32,3.42 1.26,1.2 3.24,0.96 1.98,-0.3 4.5,-2.28 2.52,-1.98 5.28,-6.12 0.3,-0.42 0.48,-0.72 0.24,-0.3 0.54,-0.72 z m -7.08,-9.48 q -1.08,-0.24 -2.1,0.42 -0.96,0.66 -1.86,1.92 -0.9,1.2 -1.68,2.88 -0.78,1.68 -1.32,3.36 3.12,0.18 5.1,-1.02 1.98,-1.26 2.82,-2.82 0.84,-1.62 0.6,-3 -0.24,-1.44 -1.56,-1.74 z" />
      <path
         id="path44"
         style="font-family:Sareeka"
         d="m 369.15859,84.46 q -1.92,2.7 -2.88,4.8 -0.9,2.04 -1.44,3.48 -0.3,0.72 -0.78,1.56 -0.42,0.84 -1.02,1.44 -0.54,0.54 -1.26,0.66 -0.66,0.06 -1.44,-0.78 -0.9,-1.02 -1.14,-2.88 -0.24,-1.86 -0.18,-3.54 -1.56,1.74 -3.12,2.7 -1.56,0.96 -2.94,0.96 -1.5,0 -2.4,-1.02 -1.26,-1.26 -1.14,-3.78 0.06,-2.34 0.96,-4.62 0.96,-2.34 2.28,-4.2 1.32,-1.86 2.76,-3 1.5,-1.2 2.76,-1.2 0.66,0 1.08,0.36 0.42,0.3 0.78,0.84 0.18,0.3 0.12,0.42 -0.06,0.06 -0.42,-0.3 -0.72,-0.78 -1.56,-0.78 -0.84,0 -1.68,0.78 -0.78,0.72 -1.56,1.98 -0.72,1.2 -1.32,2.76 -0.6,1.5 -1.02,3.06 -0.72,2.7 -0.66,4.62 0.12,1.86 0.96,2.34 0.54,0.36 1.2,0.36 1.32,0 2.7,-1.14 1.38,-1.14 2.34,-2.34 0.06,-1.2 0.18,-2.46 0.12,-1.32 0.42,-2.82 0.3,-1.56 0.72,-3.42 0.48,-1.92 1.2,-4.32 0.06,-0.24 0.48,-0.42 0.42,-0.18 0.84,-0.24 0.48,-0.06 0.84,0 0.36,0.06 0.36,0.36 -1.8,6.84 -2.34,11.28 -0.48,4.38 -0.18,6.54 0.3,2.16 1.14,2.16 0.84,-0.06 1.74,-2.1 0.54,-1.5 1.44,-3.54 0.96,-2.1 2.88,-4.8 0.24,-0.24 0.36,-0.12 0.18,0.06 -0.06,0.36 z" />
    </g>
  </g>
</svg>
