<?xml version="1.0" encoding="UTF-8" standalone="no"?>
<svg
   xmlns:dc="http://purl.org/dc/elements/1.1/"
   xmlns:cc="http://creativecommons.org/ns#"
   xmlns:rdf="http://www.w3.org/1999/02/22-rdf-syntax-ns#"
   xmlns:svg="http://www.w3.org/2000/svg"
   xmlns="http://www.w3.org/2000/svg"
   id="svg16"
   width="800px"
   version="1.1"
   height="200px">
  <metadata
     id="metadata20">
    <rdf:RDF>
      <cc:Work
         rdf:about="">
        <dc:format>image/svg+xml</dc:format>
        <dc:type
           rdf:resource="http://purl.org/dc/dcmitype/StillImage" />
      </cc:Work>
    </rdf:RDF>
  </metadata>
  <defs
     id="defs4">
    <style
       id="style2"
       type="text/css"><![CDATA[    
     @font-face {font-family:Sebbastian;
     src: url('/Users/francesco/Repos/write-logos/src/fonts/Sebbastian.ttf');}
     @font-face {font-family:Nauvoo;
     src: url('/Users/francesco/Repos/write-logos/src/fonts/nauvo___.ttf');}
     ]]></style>
  </defs>
  <g
     id="g14"
     style="font-size:60px">
    <g
       style="text-anchor:middle"
       id="text12"
       aria-label="eXtemporanea">
      <path
         id="path22"
         style="font-family:Sebbastian"
         d="m 325.75844,94.66 q -1.86,0 -2.94,-1.32 -1.02,-1.5 -1.02,-3.36 0,-1.86 1.08,-3.18 1.08,-1.38 2.76,-1.38 1.74,0.12 1.74,1.68 -0.12,0.66 -0.6,1.14 -1.32,1.14 -3.3,1.26 v 0.48 q 0,2.28 1.98,3.48 0.66,0.3 1.38,0.3 1.68,0 3.12,-1.44 1.74,-1.8 3.24,-4.8 l 0.12,-0.06 q 0.06,0 0.12,0.06 0.06,0 0.06,0.06 l -0.06,0.06 q -0.48,0.72 -0.96,1.56 -1.44,2.94 -4.02,4.74 -1.26,0.72 -2.7,0.72 z m -2.22,-5.52 q 1.44,-0.06 2.76,-0.96 0.6,-0.36 0.6,-1.02 0,-0.48 -0.72,-0.6 -0.48,0 -1.02,0.36 -1.38,0.9 -1.62,2.22 z" />
      <path
         id="path24"
         style="font-family:Nauvoo"
         d="m 365.83656,61.54 -14.76,19.26 14.28,19.2 -4.44,0.18 -12.06,-15.9 -11.88,15.72 h -5.04 l 14.76,-19.2 -14.82,-19.32 4.98,0.06 12,15.84 12,-15.78 z" />
      <path
         id="path26"
         style="font-family:Sebbastian"
         d="m 371.64156,96.88 q -0.84,0 -1.38,-0.54 -1.02,-0.9 -1.32,-2.7 l -0.06,-0.48 q -0.6,-2.4 -0.6,-7.2 0.06,-6.78 0.48,-14.52 -0.42,0.18 -4.08,0.66 -0.78,0.18 -1.62,0.18 -2.94,0 -3.84,-1.68 -0.18,-0.3 -0.18,-0.6 0,-0.42 0.36,-0.84 0.12,-0.12 0.36,-0.12 l 0.12,0.3 q 0,0.12 -0.12,0.3 -0.12,0.18 -0.12,0.42 0,0.54 0.48,0.96 0.9,0.9 2.76,0.9 1.92,0 4.62,-0.48 0.48,-0.18 1.02,-0.18 0.12,-0.06 0.18,-0.06 0.06,0 0.12,-0.06 0,-2.7 0.54,-4.92 0.12,-0.48 0.54,-0.48 0.24,0 0.48,0.24 0.24,0.18 0.24,2.04 0,1.98 -0.18,2.88 3.84,-0.66 7.74,-0.78 h 0.06 q 1.02,0 1.68,0.12 0.72,0.12 1.08,0.84 0,0.3 -0.18,0.3 -0.12,0 -0.18,0 h -0.06 q -0.84,-0.96 -2.1,-0.96 h -0.72 q -3.24,0 -7.32,0.78 l -0.24,5.28 q -0.24,5.22 -0.24,10.44 l -0.06,2.88 v 0.96 q 0,3.6 0.78,4.92 0.42,0.72 1.44,0.72 1.5,-0.3 3.06,-2.16 2.34,-3 3.54,-6.6 0,-0.12 0.06,-0.12 0.12,0 0.18,0.06 v 0.12 q -1.38,4.14 -4.2,7.44 -1.56,1.74 -3.12,1.74 z" />
      <path
         id="path28"
         style="font-family:Sebbastian"
         d="m 381.4225,94.66 q -1.86,0 -2.94,-1.32 -1.02,-1.5 -1.02,-3.36 0,-1.86 1.08,-3.18 1.08,-1.38 2.76,-1.38 1.74,0.12 1.74,1.68 -0.12,0.66 -0.6,1.14 -1.32,1.14 -3.3,1.26 v 0.48 q 0,2.28 1.98,3.48 0.66,0.3 1.38,0.3 1.68,0 3.12,-1.44 1.74,-1.8 3.24,-4.8 l 0.12,-0.06 q 0.06,0 0.12,0.06 0.06,0 0.06,0.06 l -0.06,0.06 q -0.48,0.72 -0.96,1.56 -1.44,2.94 -4.02,4.74 -1.26,0.72 -2.7,0.72 z m -2.22,-5.52 q 1.44,-0.06 2.76,-0.96 0.6,-0.36 0.6,-1.02 0,-0.48 -0.72,-0.6 -0.48,0 -1.02,0.36 -1.38,0.9 -1.62,2.22 z" />
      <path
         id="path30"
         style="font-family:Sebbastian"
         d="m 389.10062,93.22 h -0.29999 q -0.54001,-0.42 -0.54001,-1.5 -0.12,-0.12 -0.12,-1.74 0,-2.04 0.54001,-3.3 0.12,-0.24 0.47999,-0.24 0.54,0 0.54,0.54 0,0.72 -0.06,1.08 v 0.48 q -0.12,0.72 -0.12,2.52 0.9,-2.34 1.92,-4.5 0.30001,-0.6 0.36001,-0.72 0.06,-0.18 0.29999,-0.54 0.3,-0.36 0.96001,-0.48 l 0.18,0.06 q 0.71999,0.12 0.89999,1.2 0,0.48 -0.06,0.9 v 0.06 q -0.06,0.84 -0.24,1.74 0.66001,-1.26 1.62,-2.58 0.36,-0.48 0.84001,-0.48 1.26,0 1.26,2.22 0,0.54 0.06,0.72 l -0.06,0.96 v 1.2 q 0.18,1.44 1.25999,1.56 1.2,-0.12 2.1,-0.96 1.92,-1.62 2.76001,-3.96 0,-0.06 0.06,-0.06 0.06,-0.06 0.12,-0.06 0.06,0 0.06,0.06 0.06,0 0.06,0.06 l -0.06,0.12 q -1.08,2.28 -2.88,4.08 -1.2,1.08 -2.28,1.08 -0.42,0 -0.84,-0.18 -0.84,-0.42 -1.14,-1.32 -0.47999,-1.32 -0.47999,-2.94 0,-1.68 -0.36001,-1.68 h -0.18 l -0.42,0.3 q -0.9,0.9 -1.74,2.7 l -0.18,0.78 q -0.23999,0.6 -0.23999,0.84 v 0.06 q -0.24001,0.48 -0.30001,0.54 0,0 -0.12,0 h -0.06 q -0.42,-0.36 -0.42,-1.44 0,-1.02 0.18,-2.04 l 0.06,-0.24 q 0.18,-1.02 0.18,-1.98 v -0.12 l -0.06,-0.06 q -0.12,0 -0.24,0.12 -0.53999,0.54 -0.96,1.26 0,0.12 -0.06,0.18 -1.01999,1.74 -1.8,4.5 0.06,0.12 0.06,0.3 0,0.12 -0.06,0.36 0,0.24 -0.18,0.42 -0.12,0.12 -0.3,0.12 z" />
      <path
         id="path32"
         style="font-family:Sebbastian"
         d="m 403.74344,112.66 q -0.9,0 -0.9,-3 0,-1.98 -0.06,-3.54 v -3.6 q 0,-9.06 0.48,-18.06 0.12,-0.84 0.9,-0.84 0.3,0 0.54,0.24 0.24,0.18 0.24,0.6 -0.18,3.06 -0.3,6.18 v 0.78 q 0.18,-0.24 0.42,-0.42 l 0.06,-0.36 q 0.42,-2.82 1.8,-5.4 0.78,-1.2 1.74,-1.2 1.08,0.12 1.62,1.44 0.6,1.32 0.6,2.76 0,0.6 -0.06,1.14 2.94,-0.48 4.26,-1.92 l 0.12,-0.06 0.12,0.18 -0.06,0.06 q -1.38,1.44 -4.44,1.98 -0.12,0.06 -0.12,0.12 0,0.06 0,0.12 v 0.18 l -0.06,0.24 q -0.6,2.34 -2.58,3.72 -1.14,0.78 -2.16,0.78 -0.66,0 -1.2,-0.42 l -0.18,1.08 -0.12,6.06 0.06,8.34 0.06,0.78 q 0,0.78 -0.18,1.56 -0.12,0.48 -0.6,0.48 z m 1.68,-21.96 q 1.68,-0.96 3.72,-1.08 l 0.12,-1.38 q 0,-0.6 -0.12,-1.5 -0.12,-0.96 -0.9,-1.32 -0.66,0 -1.02,0.42 -0.9,1.02 -1.32,2.76 z m 0.36,3.54 q 0.72,0 1.38,-0.6 1.26,-1.2 1.92,-3.72 -2.64,0.3 -3.78,1.26 -0.24,1.08 -0.42,2.22 -0.06,0.12 -0.06,0.48 0.36,0.36 0.96,0.36 z m -1.2,-1.02 0.36,-1.68 q -0.18,0.18 -0.3,0.42 z" />
      <path
         id="path34"
         style="font-family:Sebbastian"
         d="m 416.55063,94.54 -0.60001,-0.06 q -1.07999,-0.42 -1.68,-1.44 -0.54,-1.02 -0.54,-2.28 0,-2.22 1.26001,-3.96 0.06,-0.12 0.17999,-0.18 -0.23999,-0.72 -0.23999,-1.38 0,-1.56 1.13999,-2.64 0.66,-0.6 1.62,-0.6 2.82,0.48 2.82,5.28 l -0.12,1.5 q 0.72001,-0.06 1.68,-0.42 1.02,-0.42 1.62,-0.9 l 0.18001,-0.06 0.12,0.12 -0.06,0.18 q -0.66001,0.54 -1.74001,0.96 -1.02,0.36 -1.86,0.48 -0.36,1.98 -1.44,3.72 -1.01999,1.68 -2.33999,1.68 z m 2.57999,-5.58 q 0.48001,0 0.96,-0.12 0.12,-0.84 0.12,-1.74 0,-1.32 -0.42,-2.58 -0.23999,-0.84 -0.84,-1.5 -0.54,-0.72 -1.44,-0.72 l -0.36,0.06 q -0.89999,0.24 -1.44,1.08 -0.48,0.84 -0.48,1.86 0,0.66 0.24,1.2 0.3,0 0.48,0.18 0.18,0.12 0.18,0.3 0,0.3 -0.12,0.48 l 0.42001,0.48 q 1.25999,1.02 2.69999,1.02 z m -2.28,4.92 q 0.90001,0 1.5,-0.84 1.32,-1.86 1.62,-3.84 l -0.71999,0.06 q -1.92001,0 -3.36001,-1.44 -0.48,1.38 -0.48,2.82 0,0.78 0.12,1.5 0.18,1.62 1.32,1.74 z" />
      <path
         id="path36"
         style="font-family:Sebbastian"
         d="m 428.3425,97.06 q -0.42,0 -0.84,-0.36 -0.84,-0.72 -1.14,-2.82 -0.18,-0.78 -0.18,-1.98 0,-1.74 0.72,-3.96 l 0.06,-0.06 q -0.84,0.3 -1.68,0.3 -0.78,0 -1.56,-0.24 -0.06,0 -0.06,-0.06 -2.28,-0.9 -2.58,-3.3 V 84.4 q 0,-0.96 0.48,-1.8 0.54,-0.84 1.56,-0.9 1.2,0 1.68,1.08 0.48,1.08 0.48,2.04 0,0.96 -0.42,1.74 l 0.9,0.06 q 1.32,0 2.46,-0.78 l 0.36,-0.06 q 0.06,0 0.24,0.12 0.24,0.06 0.24,0.42 l -0.18,1.08 q -0.24,0.36 -0.24,0.66 l -0.42,1.2 q -0.96,3.54 -0.96,5.34 0,1.44 0.72,1.98 0.24,0.12 0.48,0.12 0.78,0 1.5,-1.26 2.22,-3.84 3.66,-8.04 0.06,-0.12 0.12,-0.12 0.24,0 0.24,0.18 v 0.06 q -1.92,4.62 -3.72,7.92 -0.36,0.9 -1.2,1.44 -0.42,0.18 -0.72,0.18 z m -3.78,-10.56 q 0.48,-0.9 0.48,-1.86 0,-0.84 -0.36,-1.44 -0.36,-0.66 -0.9,-0.72 l -0.12,0.06 q -0.3,0.06 -0.54,0.54 -0.24,0.42 -0.36,0.72 -0.06,0.3 -0.06,0.48 0,0.6 0.36,1.2 0.42,0.6 1.26,0.9 z" />
      <path
         id="path38"
         style="font-family:Sebbastian"
         d="m 440.34625,94.36 -0.48,-0.06 q -1.02,-0.12 -1.56,-1.2 -0.3,-0.54 -0.3,-1.62 0,-1.26 0.3,-2.58 l -0.24,0.36 q -0.3,0.6 -1.56,2.16 -1.62,2.04 -3.18,2.04 l -0.6,-0.06 q -1.32,-0.48 -1.32,-2.1 0,-1.08 0.42,-2.04 0.84,-2.34 3.06,-3.42 1.02,-0.48 2.04,-0.48 1.2,0 2.34,0.66 v 0.06 l 0.18,-0.24 q 0,-0.54 0.72,-0.54 0.72,0 0.72,0.66 0,0.42 -0.42,1.5 l -0.3,0.96 q -0.54,1.8 -0.54,3 0,0.72 0.12,0.9 0.06,0.36 0.18,0.6 0.3,0.66 1.08,0.66 0.9,0 1.92,-1.14 1.02,-1.14 1.02,-1.26 1.44,-1.8 2.52,-3.9 h 0.12 q 0.06,0 0.06,0.12 -1.26,2.4 -2.94,4.56 -0.72,0.96 -1.56,1.68 -0.78,0.72 -1.8,0.72 z m -6.66,-1.68 q 0.66,0 1.68,-0.84 1.5,-1.26 3.18,-3.78 l 0.12,-0.48 -0.24,-0.12 q -0.78,-0.48 -1.5,-0.48 -1.74,0.12 -2.82,1.56 -1.02,1.38 -1.02,2.88 0,1.26 0.6,1.26 z" />
      <path
         id="path40"
         style="font-family:Sebbastian"
         d="m 446.69969,94 h -0.12 q -0.3,0 -0.6,-0.54 v -0.12 q -0.54,-0.96 -0.54,-2.82 0,-0.9 0.12,-1.86 v -0.18 q 0.24,-1.74 1.32,-1.74 0.48,0.24 0.48,0.96 l -0.12,0.72 q -0.18,0.72 -0.18,2.1 l 0.06,2.1 q 0.6,-2.22 1.86,-4.14 0.6,-0.96 1.2,-1.74 0.6,-0.78 1.2,-0.78 l 0.24,0.06 q 0.54,0.18 0.6,0.78 0.12,0.54 0.12,1.08 v 0.06 q -0.12,1.08 -0.12,2.4 0,0.72 0.12,1.32 0.18,0.54 0.84,0.66 1.44,0 2.4,-0.66 2.04,-1.68 2.88,-4.26 0,-0.06 0.18,-0.06 v 0.12 q -0.84,2.52 -2.82,4.2 -0.72,0.6 -1.74,0.9 -0.48,0.18 -0.9,0.18 -0.48,0 -0.96,-0.24 -1.38,-0.96 -1.38,-3.24 l 0.06,-0.72 q 0.06,-0.72 0.06,-1.5 l -0.06,-0.24 q -0.12,0 -0.24,0.12 -0.96,0.42 -1.56,1.8 l -0.12,0.12 q -1.32,2.16 -1.92,4.62 -0.12,0.54 -0.36,0.54 z" />
      <path
         id="path42"
         style="font-family:Sebbastian"
         d="m 461.11,94.66 q -1.86,0 -2.94,-1.32 -1.02,-1.5 -1.02,-3.36 0,-1.86 1.08,-3.18 1.08,-1.38 2.76,-1.38 1.74,0.12 1.74,1.68 -0.12,0.66 -0.6,1.14 -1.32,1.14 -3.3,1.26 v 0.48 q 0,2.28 1.98,3.48 0.66,0.3 1.38,0.3 1.68,0 3.12,-1.44 1.74,-1.8 3.24,-4.8 l 0.12,-0.06 q 0.06,0 0.12,0.06 0.06,0 0.06,0.06 l -0.06,0.06 q -0.48,0.72 -0.96,1.56 -1.44,2.94 -4.02,4.74 -1.26,0.72 -2.7,0.72 z m -2.22,-5.52 q 1.44,-0.06 2.76,-0.96 0.6,-0.36 0.6,-1.02 0,-0.48 -0.72,-0.6 -0.48,0 -1.02,0.36 -1.38,0.9 -1.62,2.22 z" />
      <path
         id="path44"
         style="font-family:Sebbastian"
         d="m 475.26812,94.36 -0.48,-0.06 q -1.02,-0.12 -1.56,-1.2 -0.29999,-0.54 -0.29999,-1.62 0,-1.26 0.29999,-2.58 l -0.23999,0.36 q -0.3,0.6 -1.56,2.16 -1.62,2.04 -3.18,2.04 l -0.60001,-0.06 q -1.32,-0.48 -1.32,-2.1 0,-1.08 0.42001,-2.04 0.83999,-2.34 3.06,-3.42 1.01999,-0.48 2.03999,-0.48 1.20001,0 2.34001,0.66 v 0.06 l 0.18,-0.24 q 0,-0.54 0.71999,-0.54 0.72001,0 0.72001,0.66 0,0.42 -0.42001,1.5 l -0.3,0.96 q -0.53999,1.8 -0.53999,3 0,0.72 0.11999,0.9 0.06,0.36 0.18,0.6 0.3,0.66 1.08001,0.66 0.89999,0 1.91999,-1.14 1.02001,-1.14 1.02001,-1.26 1.44,-1.8 2.51999,-3.9 h 0.12 q 0.06,0 0.06,0.12 -1.25999,2.4 -2.94,4.56 -0.72,0.96 -1.56,1.68 -0.78,0.72 -1.8,0.72 z m -6.66,-1.68 q 0.66,0 1.68,-0.84 1.5,-1.26 3.18,-3.78 l 0.12,-0.48 -0.24,-0.12 q -0.78,-0.48 -1.5,-0.48 -1.74,0.12 -2.82,1.56 -1.02,1.38 -1.02,2.88 0,1.26 0.6,1.26 z" />
    </g>
  </g>
</svg>
