<?xml version="1.0" encoding="UTF-8" standalone="no"?>
<svg
   xmlns:dc="http://purl.org/dc/elements/1.1/"
   xmlns:cc="http://creativecommons.org/ns#"
   xmlns:rdf="http://www.w3.org/1999/02/22-rdf-syntax-ns#"
   xmlns:svg="http://www.w3.org/2000/svg"
   xmlns="http://www.w3.org/2000/svg"
   id="svg10"
   width="500px"
   version="1.1"
   height="200px">
  <metadata
     id="metadata14">
    <rdf:RDF>
      <cc:Work
         rdf:about="">
        <dc:format>image/svg+xml</dc:format>
        <dc:type
           rdf:resource="http://purl.org/dc/dcmitype/StillImage" />
      </cc:Work>
    </rdf:RDF>
  </metadata>
  <defs
     id="defs4">
    <style
       id="style2"
       type="text/css"><![CDATA[    
     @font-face {font-family:Sentinel;
     src: url('/Users/francesco/Repos/write-logos/src/fonts//Sentinel.ttf');}]]></style>
  </defs>
  <g
     id="g8"
     style="font-size:30px;font-family:Sentinel">
    <g
       style=""
       id="text6"
       aria-label="eXtemporanea">
      <path
         id="path16"
         style=""
         d="m 118.99,81.52 -0.24,-0.27 q 0,-0.57 0.12,-0.72 l 0.39,-0.78 q 0.18,-0.75 0.69,-1.02 z m -0.69,1.23 q -1.23,1.68 -1.23,3.33 l -0.24,-0.06 -0.06,-0.24 q 0,-1.2 0.57,-2.13 l 0.51,-0.84 q 0.27,-0.42 0.9,-1.02 h 0.24 q 0.06,0.18 0.06,0.24 0,0.27 -0.3,0.39 z m -2.88,8.01 q 0.27,-1.41 0.18,-2.28 -0.06,-0.66 -0.24,-1.29 l 0.06,-0.36 h 0.24 q 0.39,0.78 0.39,1.83 0,1.23 -0.63,2.1 z m 5.16,9.45 q -0.18,-0.09 -1.08,-1.17 l -0.63,-1.44 q 0,-0.42 -1.35,-3.27 l -0.51,-1.08 -0.18,-0.99 h 0.24 l 0.06,0.87 q 0.03,0.27 0.45,0.81 1.29,2.28 1.29,2.73 0.3,0.87 0.75,1.65 l 0.39,0.66 0.27,0.42 0.45,0.45 q 0,0.3 -0.15,0.36 z m -2.1,-20.49 -0.24,0.81 q 0,0.57 -0.51,0.81 0,-0.3 -0.24,-0.57 -0.21,-0.27 -0.54,-0.27 -0.84,-0.03 -0.84,0.69 0,0.6 0.57,0.78 0.27,0.09 0.84,-0.24 l -0.39,0.81 -0.51,0.84 -0.24,0.81 -0.12,0.81 v 0.36 l -0.15,0.15 -0.81,-2.76 q 0,-1.17 -0.54,-1.74 -0.36,-0.66 -1.2,-1.02 -0.84,-0.54 -1.92,-0.54 -2.28,0 -3.57,2.85 -0.39,0.87 -0.42,1.83 0,0.36 0,0.99 0.03,0.72 0.03,0.96 v 1.47 l -0.03,0.75 h 2.91 q 0.78,0 1.17,-0.21 0.39,-0.21 0.87,-0.87 0,-2.04 1.29,-3.24 l -0.09,0.51 -0.06,0.54 0.21,0.72 0.51,1.05 0.3,1.05 -0.18,0.75 q -0.6,-0.36 -0.9,-0.33 -0.54,0 -0.54,0.72 0,0.75 0.72,0.69 0.39,-0.03 0.84,-0.63 l 0.21,0.66 q 0,0.36 -0.66,1.59 l -0.45,0.84 -0.18,0.63 q 0,0.3 0.39,0.96 -0.06,0.03 -0.18,0.03 -0.03,0 -0.21,-0.06 l -0.57,-0.93 -0.33,-1.29 q -0.18,-0.69 -0.81,-0.93 h -4.11 l -0.12,3.03 q 0,1.86 0.39,2.67 0.63,1.32 1.59,1.74 l 0.9,0.39 1.47,0.03 q 1.23,-0.39 2.01,-1.74 0.18,-0.33 0.96,-2.4 l 0.06,-0.18 q 0.57,-1.56 1.26,-2.25 0,2.1 1.02,3.84 -0.72,-0.24 -0.93,-0.24 -0.45,0 -0.69,0.42 -0.21,0.39 0,0.81 0.24,0.45 0.78,0.45 0.6,0 0.78,-0.57 0.03,-0.09 0.06,-0.24 0.06,-0.15 0.06,-0.21 0.63,1.62 1.92,3.54 -0.39,0 -1.17,-0.18 -1.2,-0.45 -1.83,-0.51 l -0.39,0.06 -0.45,0.09 -2.04,0.63 q -0.69,0.21 -2.13,0.21 -1.26,0 -1.98,-0.21 l -1.65,-0.81 q -1.98,-1.5 -3.27,-3.93 -0.93,-1.8 -1.71,-4.77 l -0.33,-0.51 -0.39,-0.39 q -0.54,-0.54 -1.02,-0.63 1.29,-0.84 2.1,-2.22 0.3,-0.51 0.51,-1.47 0.24,-1.08 0.45,-1.5 0.63,-1.38 1.41,-2.31 2.01,-2.46 5.25,-3.03 0.48,-0.09 0.96,-0.12 0.84,-0.06 2.67,0.63 1.95,0.72 2.7,0.72 0.51,0 1.14,-0.24 l 1.05,-0.96 h 0.36 q 0,0.42 -0.45,0.78 z m -6.27,-1.05 q -0.18,-0.03 -0.75,-0.06 -1.32,-0.06 -2.76,0.87 -1.08,0.69 -1.74,2.37 -0.09,0.24 -0.3,1.62 -0.24,1.68 -0.24,2.88 0,1.2 0.24,1.95 h 0.63 q 0,-0.39 -0.06,-1.41 0,0 0,-1.29 v -1.71 q 0,-0.69 0.39,-1.62 1.29,-3.03 4.14,-3.03 l 0.57,0.06 q 0.3,-0.12 1.17,0.36 l 0.63,0.36 0.33,0.12 q -0.54,-0.6 -0.96,-0.81 -0.6,-0.51 -1.29,-0.66 z m -0.39,11.1 h -5.31 q 0,0.12 -0.03,0.51 -0.03,0.48 -0.03,0.78 -0.06,2.37 0.06,3.12 0.09,0.51 0.39,1.56 0.9,2.22 2.49,2.55 -0.96,-0.6 -1.65,-2.07 -0.36,-0.72 -0.45,-3.06 -0.03,-0.57 0,-1.38 0.03,-0.66 0.06,-1.5 h 4.92 l -0.18,-0.27 z m 5.37,8.67 q -0.36,-0.15 -1.26,-0.18 -0.9,-0.03 -2.76,0.42 -2.28,0.57 -2.82,0.66 -0.51,0 -1.83,-0.42 1.11,0.69 2.49,0.69 0.69,0 3.57,-0.57 1.02,-0.21 2.25,-0.3 l 0.75,0.03 z" />
      <path
         id="path18"
         style=""
         d="m 138.99672,78.94 0.09,-0.54 2.28,-2.4 0.66,-1.44 0.27,-1.59 q 0.24,-1.35 -1.47,-2.13 -0.51,-0.24 -0.99,-0.24 -1.23,0 -2.1,1.14 l -0.18,1.35 0.54,0.63 0.63,0.45 0.45,0.03 h 0.39 l 1.26,-1.05 q 0,-0.72 -0.54,-1.29 h -0.45 v 0.84 q 0,0.36 -0.57,0.57 -0.81,-0.45 -0.81,-0.81 0.27,-0.57 0.81,-0.87 0.06,-0.03 0.27,-0.03 0.27,0 1.02,0.15 0.63,0.27 0.63,0.78 v 0.36 l -0.27,0.87 q -0.12,0.39 -0.72,0.78 -0.51,0 -0.93,0.27 v 0.72 l 0.09,0.66 q 0.06,0.48 -0.54,0.99 h -0.72 l -0.27,-0.36 -0.09,-0.48 q 0.21,-0.15 0.57,-0.15 0.27,0 0.42,0.03 l 0.09,0.12 0.18,-0.57 q 0,-0.57 -0.99,-1.23 l -0.57,-0.6 -0.36,-0.6 v -0.6 q 0,-1.08 0.66,-1.74 l 0.72,-0.45 q 0.27,-0.24 0.9,-0.27 1.83,0.12 3.21,1.92 l 0.09,0.54 v 0.51 q 0,1.71 -1.05,3.3 -1.02,1.56 -2.61,2.43 z m 9.24,5.43 -0.63,-0.63 q 0.27,-0.87 0.99,-0.9 l 1.47,0.42 0.9,0.18 q -0.6,0.48 -2.73,0.93 z m 0.36,14.61 q -0.03,-0.03 -0.03,-0.09 0,-0.09 0.33,-0.45 0.33,-0.36 0.33,-0.57 0,-0.48 -0.45,-0.93 -0.45,-0.45 -0.99,-0.45 -1.29,0 -1.41,1.17 -0.06,0.42 0.36,0.87 0.03,0.03 0.66,0.57 l -7.02,0.06 q 0,-0.45 0.81,-0.78 0.03,-0.03 1.2,-0.39 1.02,-0.3 1.38,-1.14 l 0.63,-1.47 q -0.51,-1.83 -2.28,-4.23 l -3.21,-4.38 -0.45,0.21 -0.27,0.33 0.36,1.14 0.27,1.14 v 0.45 l -0.36,0.75 -0.81,0.9 q 0.18,0.36 0.63,0.36 l 0.81,-0.27 q 0.18,-0.06 0.27,-0.87 l 0.09,-0.84 q 1.11,1.05 1.53,1.83 0.57,1.05 0.48,2.34 -0.06,0.87 -0.27,1.38 -0.84,2.01 -3,2.01 -1.2,0 -2.07,-0.63 -0.87,-0.63 -0.87,-1.62 0,-0.72 0.3,-1.14 0.54,-0.78 1.47,-0.78 0.54,0 1.08,0.3 1.02,0.57 0.99,1.38 0,0.54 -0.48,0.96 -0.45,0.42 -0.99,0.42 -0.39,0 -0.75,-0.36 -0.33,-0.36 -0.24,-0.72 0.15,-0.6 0.81,-0.6 0.3,0 0.75,0.27 0.06,-0.18 0.06,-0.24 0,-0.48 -0.6,-0.63 -0.12,-0.03 -0.39,0 -0.54,0.06 -0.93,0.48 -0.36,0.39 -0.36,0.93 0,0.6 0.63,1.05 0.66,0.42 1.5,0.42 1.38,0.03 2.07,-1.14 0.57,-0.93 0.57,-2.43 0,-0.66 -0.54,-1.68 l -1.02,0.57 -1.17,0.3 -0.84,-0.24 -0.72,-0.63 q 0,-0.3 0.81,-1.02 0.93,-0.39 0.93,-1.02 v -0.48 l -0.18,-0.54 -0.27,-0.63 -3.03,3.96 q -1.47,1.92 -1.47,4.11 0,1.29 1.74,2.04 l 0.57,0.12 0.9,0.12 q 0.72,0 0.81,0.51 l -1.44,0.03 -5.58,-0.15 q 0.84,-0.87 0.84,-1.38 0,-0.54 -0.42,-0.9 -0.42,-0.39 -0.99,-0.39 -0.6,0 -1.02,0.42 -0.42,0.39 -0.42,0.99 0,0.51 0.99,1.29 l -7.02,0.15 q 0,-0.63 1.14,-0.93 1.47,-0.39 1.68,-0.6 3.63,-1.98 5.85,-5.25 l 4.2,-6.18 q -0.81,0 -2.04,-0.93 -1.23,-0.93 -1.8,-0.96 l -0.63,0.18 -0.54,0.87 v 1.05 q 0,0.78 0.27,1.02 0.15,0.09 1.08,0.27 l 0.21,-0.18 -0.57,-0.45 -0.18,-0.66 0.84,-0.39 0.54,0.24 0.36,0.57 q 0,0.54 -0.18,0.69 l -0.27,0.39 -1.11,0.27 -0.54,-0.15 v 1.26 l -0.18,0.42 q 0,0.45 -0.81,0.81 -0.24,0.06 -0.36,0.06 -0.3,0 -0.57,-0.12 l -0.45,-0.69 0.27,-0.75 q 0.18,-0.06 0.24,-0.06 0.18,0 0.3,0.09 l 0.66,0.6 0.27,-0.99 -0.48,-2.82 0.12,-0.9 q 0,-0.27 0.63,-0.63 0.27,-0.15 0.36,-0.51 v -0.6 l -0.54,-0.81 -0.18,-0.99 0.18,-2.13 q 0.06,-0.72 -0.57,-1.47 l -0.45,0.84 h -0.72 l -0.27,-0.3 -0.18,-0.3 q 0,-0.63 0.63,-0.93 0.24,-0.12 1.29,0.24 l 0.81,0.96 -0.09,0.33 v 0.15 q 0,0.27 1.11,0.57 1.17,0 1.17,0.93 0,0.72 -0.45,0.87 -0.51,-0.27 -0.72,-0.51 l 0.36,-0.54 q 0.15,-0.09 0.15,-0.24 0,-0.06 -0.06,-0.24 -0.84,-0.12 -1.47,0.63 l -0.18,0.87 0.09,0.99 0.63,1.08 1.65,-1.11 1.92,-1.17 -3.75,-5.49 q -2.07,-3.03 -5.67,-4.05 l -1.17,-0.21 -0.84,-0.06 -0.09,-0.48 q 0.84,0 2.19,0.48 l 2.1,0.75 0.12,-0.12 q -0.81,-0.93 -2.01,-1.44 -1.05,-0.45 -2.76,-0.72 v -0.27 l 0.27,-0.24 3.93,0.09 q 1.26,0.03 2.19,0.27 -0.48,0.81 -0.36,1.32 0.24,1.05 1.29,1.05 0.51,0 0.9,-0.39 0.42,-0.39 0.42,-0.9 0,-0.09 -0.06,-0.3 -0.09,-0.33 -0.72,-0.57 -0.6,-0.27 -0.63,-0.33 l 1.35,-0.24 1.56,-0.09 h 3.66 q 0,0.39 0.18,0.54 -1.11,0.03 -2.01,0.42 l -0.99,1.05 -0.48,1.17 q 0,0.36 0.39,0.57 0.81,-2.07 3.81,-2.55 l 0.12,0.12 -2.22,1.08 q -1.08,0.51 -1.35,1.59 v 0.87 l 5.01,7.05 h 0.36 l 2.67,-3.48 2.37,-3.63 0.09,-0.69 q 0.09,-0.69 -0.54,-1.56 l -1.29,-1.26 q -0.18,-0.18 -1.47,-0.39 -1.44,-0.24 -1.74,-0.36 V 69.1 l 1.74,-0.09 h 1.56 l 3.21,0.09 -0.36,0.54 q -0.3,0.57 -0.21,0.93 0.27,0.87 1.23,0.87 0.51,0 0.9,-0.3 0.39,-0.33 0.42,-0.81 0.03,-0.66 -0.81,-1.23 l 3.48,-0.09 q 1.35,-0.03 3.12,0.36 0,0.36 -0.66,0.39 l -0.99,0.06 q -4.89,2.19 -8.22,6.93 l -3.66,5.22 q 0.21,0.93 1.47,2.58 l 1.17,1.53 0.63,0.93 3.39,5.16 q 1.86,2.85 4.38,4.65 l -0.18,-0.63 -2.28,-3.57 q -0.27,-0.81 -1.17,-1.68 l -6.15,-8.61 4.14,-5.97 q 2.13,-3.06 5.82,-5.04 l 1.02,-0.36 0.9,-0.39 v 0.48 q -2.52,0.75 -5.85,3.9 l -1.71,2.16 -2.49,3.33 v 0.39 l 1.65,0.99 1.56,1.11 0.63,-0.75 0.18,-1.14 q 0.06,-0.42 -0.36,-0.81 l -0.81,-0.54 -0.18,0.42 v 0.81 l -0.57,0.06 -0.54,-0.3 0.27,-0.75 0.48,-0.54 q 0.21,-0.06 0.45,-0.12 0.24,-0.09 0.27,-0.09 l 0.54,-1.17 q 0.36,-0.78 1.2,-0.9 l 0.63,0.03 0.54,0.48 q 0,0.84 -0.45,0.99 -0.54,0 -0.81,-0.72 -0.48,0.12 -0.57,0.33 0,0.39 -0.18,0.48 l 0.48,1.65 0.18,1.23 v 0.81 l -0.18,0.27 q 0,0.24 -0.66,0.78 l 0.45,0.6 0.3,0.6 0.18,1.44 v 2.13 l 0.27,0.9 0.27,-0.48 q 0,-0.21 0.45,-0.42 0.84,0.12 0.84,0.66 0,0.3 -0.39,0.54 l -0.54,0.33 -0.45,-0.06 -0.36,-0.21 -0.57,-0.66 v -0.72 q 0,-0.36 -0.36,-0.48 l -1.17,0.12 3.66,5.58 q 1.68,2.55 4.65,5.04 l 0.99,0.06 q 0.57,0.03 0.57,0.54 l -3.75,0.15 z m -7.41,1.65 q -0.3,-0.33 -0.72,-0.51 l 0.36,-0.18 15.09,-0.06 0.18,0.6 z m -14.52,-16.86 1.02,-0.6 q 0.6,-0.24 1.17,-0.27 0.84,-0.03 1.11,0.75 -0.27,0.33 -0.93,0.54 z m -3.57,16.65 q -0.12,-0.12 -0.12,-0.27 0,-0.18 0.21,-0.21 l 14.64,-0.03 0.63,0.33 v 0.27 z m 20.28,-18.9 -0.27,-0.09 -0.63,0.39 -0.36,0.51 q 0.57,1.35 1.92,2.4 l 0.9,-0.45 1.2,-0.84 -1.11,-0.99 z m 3.21,2.55 -1.2,0.81 q -0.3,0.27 -0.72,0.75 0,0.63 0.45,0.99 l 1.02,-0.39 0.36,0.03 0.18,0.72 0.18,0.09 0.36,-0.3 0.18,-0.81 q 0,-0.72 -0.81,-1.89 z m -11.34,-2.37 -0.45,-0.24 -3,2.07 v 0.27 l 1.83,0.99 q 1.11,0.6 2.19,0.6 l 0.9,-1.2 q 0,-0.39 -0.54,-1.17 z m 2.67,3.93 -4.95,6.57 -0.63,1.44 -0.27,1.14 0.27,0.96 q 0,-2.16 2.28,-5.1 l 3.57,-4.62 z" />
      <path
         id="path20"
         style=""
         d="m 163.41859,90.22 q 0.06,0.9 -0.18,1.47 -0.75,1.86 -2.37,1.68 -0.75,-0.09 -1.35,-0.66 -0.6,-0.6 -0.6,-1.35 0,-0.57 0.48,-0.96 0.51,-0.42 1.08,-0.3 0.3,0.06 0.69,0.36 0,-5.55 -3.51,-10.47 l -0.63,-0.57 -0.27,-0.69 0.15,-0.45 h 2.55 q -0.51,0.75 -0.39,1.14 0.24,0.84 0.9,0.81 0.9,-0.06 0.84,-1.02 -0.03,-0.66 -0.78,-0.93 h 3.33 q 1.17,1.38 1.98,2.52 0.36,0.54 1.35,2.07 l 0.36,-0.36 q -1.35,-2.4 -2.67,-4.2 h 0.51 l 1.23,1.62 1.2,1.8 3.45,-3.3 h 2.37 q -0.63,0.66 -0.57,1.11 0.12,0.93 0.96,0.9 0.96,-0.06 0.9,-1.08 0,-0.18 -0.36,-0.51 -0.33,-0.33 -0.36,-0.42 h 3.84 q 0,0.15 -0.51,0.63 l -0.9,0.87 q -3.03,4.26 -3.57,8.04 -0.18,1.26 -0.21,2.31 l 0.66,-0.27 q 0.18,-1.35 0.63,-3.06 0.42,-1.59 1.08,-3.06 0.27,-0.6 1.41,-2.55 0.54,-0.93 1.8,-2.28 l 0.24,0.36 -1.59,2.13 q -0.75,1.02 -1.8,2.82 -0.39,0.93 -0.81,2.52 -0.39,1.47 -0.39,3.03 0.24,0.09 0.78,0.42 0.48,0.45 0.48,0.96 0,0.6 -0.69,1.11 -0.48,0.33 -1.71,0.03 0.51,0.72 1.17,0.72 0.36,0 0.48,-0.03 1.32,-0.3 1.47,-2.01 0.06,0.06 0.33,0.42 0,0.42 -0.06,0.72 -0.42,1.23 -1.92,1.23 -1.02,0 -1.8,-0.96 -0.63,-0.78 -0.63,-1.92 0,-0.78 0.75,-3.99 0.33,-1.41 0.33,-2.97 0,-1.89 -0.45,-2.88 -0.03,-0.15 -0.27,-0.6 l -0.81,-0.93 q -0.96,0.42 -1.8,1.5 -0.6,0.75 -0.9,1.98 -0.18,0.72 -0.18,2.61 v 9.6 q 0,1.35 0.63,2.19 0.27,0.36 0.9,0.84 -1.08,-2.43 -1.08,-3.06 V 84.13 q 0.12,-0.72 0.39,-1.56 0.18,-0.6 0.36,-0.84 0.3,-0.66 1.26,-1.29 l 0.36,0.48 q -0.33,0.15 -0.84,0.63 -1.08,1.05 -1.08,3.42 v 9.57 q 0,1.02 0.75,2.67 0.15,0.36 0.78,1.26 0.09,0.09 0.63,0.42 0.21,0.06 0.84,0.51 h -4.74 q 0.51,-0.24 0.57,-1.05 0.03,-0.36 -0.27,-0.63 -0.3,-0.3 -0.66,-0.3 -0.78,0 -0.84,0.93 -0.03,0.66 0.63,1.05 h -4.68 l -0.12,-0.21 q 2.1,-0.6 3.06,-2.22 0.27,-0.48 0.51,-2.07 V 83.83 q 0,-1.26 -1.02,-2.73 -0.36,-0.51 -0.63,-0.78 -0.39,0.72 -0.45,0.9 -0.21,0.51 -0.27,0.96 -0.06,0.6 -0.06,1.8 0,0.06 0.21,3.99 z m 9.09,10.2 h -10.23 V 100 h 10.17 q 0.06,0.18 0.06,0.42 z m -8.97,-20.67 q -0.27,-0.18 -0.51,-0.36 -1.44,2.01 -1.44,4.35 0,0.45 0.03,0.84 l 0.27,3.42 q 0.03,0.51 0.18,1.56 0.15,1.14 0.15,1.35 0,0.33 -0.09,0.51 -0.48,1.02 -1.86,1.32 l 0.15,0.12 q 0.45,0.09 0.69,0.06 0.42,-0.06 0.84,-0.33 1.11,-0.69 1.02,-2.34 l -0.33,-6 q -0.06,-1.29 0,-1.86 0.15,-1.17 0.9,-2.64 z" />
      <path
         id="path22"
         style=""
         d="m 197.62281,81.52 -0.24,-0.27 q 0,-0.57 0.12,-0.72 l 0.39,-0.78 q 0.18,-0.75 0.69,-1.02 z m -0.69,1.23 q -1.23,1.68 -1.23,3.33 l -0.24,-0.06 -0.06,-0.24 q 0,-1.2 0.57,-2.13 l 0.51,-0.84 q 0.27,-0.42 0.9,-1.02 h 0.24 q 0.06,0.18 0.06,0.24 0,0.27 -0.3,0.39 z m -2.88,8.01 q 0.27,-1.41 0.18,-2.28 -0.06,-0.66 -0.24,-1.29 l 0.06,-0.36 h 0.24 q 0.39,0.78 0.39,1.83 0,1.23 -0.63,2.1 z m 5.16,9.45 q -0.18,-0.09 -1.08,-1.17 l -0.63,-1.44 q 0,-0.42 -1.35,-3.27 l -0.51,-1.08 -0.18,-0.99 h 0.24 l 0.06,0.87 q 0.03,0.27 0.45,0.81 1.29,2.28 1.29,2.73 0.3,0.87 0.75,1.65 l 0.39,0.66 0.27,0.42 0.45,0.45 q 0,0.3 -0.15,0.36 z m -2.1,-20.49 -0.24,0.81 q 0,0.57 -0.51,0.81 0,-0.3 -0.24,-0.57 -0.21,-0.27 -0.54,-0.27 -0.84,-0.03 -0.84,0.69 0,0.6 0.57,0.78 0.27,0.09 0.84,-0.24 l -0.39,0.81 -0.51,0.84 -0.24,0.81 -0.12,0.81 v 0.36 l -0.15,0.15 -0.81,-2.76 q 0,-1.17 -0.54,-1.74 -0.36,-0.66 -1.2,-1.02 -0.84,-0.54 -1.92,-0.54 -2.28,0 -3.57,2.85 -0.39,0.87 -0.42,1.83 0,0.36 0,0.99 0.03,0.72 0.03,0.96 v 1.47 l -0.03,0.75 h 2.91 q 0.78,0 1.17,-0.21 0.39,-0.21 0.87,-0.87 0,-2.04 1.29,-3.24 l -0.09,0.51 -0.06,0.54 0.21,0.72 0.51,1.05 0.3,1.05 -0.18,0.75 q -0.6,-0.36 -0.9,-0.33 -0.54,0 -0.54,0.72 0,0.75 0.72,0.69 0.39,-0.03 0.84,-0.63 l 0.21,0.66 q 0,0.36 -0.66,1.59 l -0.45,0.84 -0.18,0.63 q 0,0.3 0.39,0.96 -0.06,0.03 -0.18,0.03 -0.03,0 -0.21,-0.06 l -0.57,-0.93 -0.33,-1.29 q -0.18,-0.69 -0.81,-0.93 h -4.11 l -0.12,3.03 q 0,1.86 0.39,2.67 0.63,1.32 1.59,1.74 l 0.9,0.39 1.47,0.03 q 1.23,-0.39 2.01,-1.74 0.18,-0.33 0.96,-2.4 l 0.06,-0.18 q 0.57,-1.56 1.26,-2.25 0,2.1 1.02,3.84 -0.72,-0.24 -0.93,-0.24 -0.45,0 -0.69,0.42 -0.21,0.39 0,0.81 0.24,0.45 0.78,0.45 0.6,0 0.78,-0.57 0.03,-0.09 0.06,-0.24 0.06,-0.15 0.06,-0.21 0.63,1.62 1.92,3.54 -0.39,0 -1.17,-0.18 -1.2,-0.45 -1.83,-0.51 l -0.39,0.06 -0.45,0.09 -2.04,0.63 q -0.69,0.21 -2.13,0.21 -1.26,0 -1.98,-0.21 l -1.65,-0.81 q -1.98,-1.5 -3.27,-3.93 -0.93,-1.8 -1.71,-4.77 l -0.33,-0.51 -0.39,-0.39 q -0.54,-0.54 -1.02,-0.63 1.29,-0.84 2.1,-2.22 0.3,-0.51 0.51,-1.47 0.24,-1.08 0.45,-1.5 0.63,-1.38 1.41,-2.31 2.01,-2.46 5.25,-3.03 0.48,-0.09 0.96,-0.12 0.84,-0.06 2.67,0.63 1.95,0.72 2.7,0.72 0.51,0 1.14,-0.24 l 1.05,-0.96 h 0.36 q 0,0.42 -0.45,0.78 z m -6.27,-1.05 q -0.18,-0.03 -0.75,-0.06 -1.32,-0.06 -2.76,0.87 -1.08,0.69 -1.74,2.37 -0.09,0.24 -0.3,1.62 -0.24,1.68 -0.24,2.88 0,1.2 0.24,1.95 h 0.63 q 0,-0.39 -0.06,-1.41 0,0 0,-1.29 v -1.71 q 0,-0.69 0.39,-1.62 1.29,-3.03 4.14,-3.03 l 0.57,0.06 q 0.3,-0.12 1.17,0.36 l 0.63,0.36 0.33,0.12 q -0.54,-0.6 -0.96,-0.81 -0.6,-0.51 -1.29,-0.66 z m -0.39,11.1 h -5.31 q 0,0.12 -0.03,0.51 -0.03,0.48 -0.03,0.78 -0.06,2.37 0.06,3.12 0.09,0.51 0.39,1.56 0.9,2.22 2.49,2.55 -0.96,-0.6 -1.65,-2.07 -0.36,-0.72 -0.45,-3.06 -0.03,-0.57 0,-1.38 0.03,-0.66 0.06,-1.5 h 4.92 l -0.18,-0.27 z m 5.37,8.67 q -0.36,-0.15 -1.26,-0.18 -0.9,-0.03 -2.76,0.42 -2.28,0.57 -2.82,0.66 -0.51,0 -1.83,-0.42 1.11,0.69 2.49,0.69 0.69,0 3.57,-0.57 1.02,-0.21 2.25,-0.3 l 0.75,0.03 z" />
      <path
         id="path24"
         style=""
         d="m 225.06953,97.3 -0.21,0.57 -0.06,0.66 v 1.2 q 0,0.45 -0.12,0.57 0,0.12 -0.57,0.66 l -0.45,0.27 q -0.06,0.03 -0.21,0.03 -0.06,0 -0.3,-0.06 l 0.36,-0.54 0.54,-0.42 0.24,-0.36 0.06,-0.36 -0.06,-0.93 q -0.03,-0.42 0.33,-0.72 l -0.21,-0.9 -0.24,-0.63 0.18,0.15 0.33,0.3 z m -9.72,-6 -0.09,1.47 v 2.79 l 0.15,1.32 q 0.24,0.54 0.75,1.68 0.21,0.03 0.66,0.27 0.21,0.21 0.36,0.42 h -3.81 q 0,-0.03 0.27,-0.51 0.15,-0.3 0.09,-0.51 -0.24,-0.72 -0.9,-0.6 -0.48,0.09 -0.57,0.69 -0.06,0.45 0.78,0.93 h -3.84 q 0,-0.39 0.51,-0.6 l 0.57,-0.24 q 1.32,-1.14 1.35,-2.82 0.03,-0.69 0.06,-1.14 v -4.41 l -4.65,2.61 q 0.39,1.41 1.26,3.54 0.33,0.78 1.23,2.37 h -0.33 q -0.87,-1.47 -1.47,-2.85 -0.36,-0.81 -0.96,-2.85 -0.09,-0.03 -0.39,0.18 l -0.18,0.33 q 0.18,0.87 0.63,2.13 0.51,1.44 1.98,3.63 -0.57,0.18 -1.59,0.15 l -1.29,-0.03 q -0.63,0 -1.02,0.06 l -0.45,0.09 -0.51,0.18 -0.75,0.9 -0.72,0.03 -0.45,-0.45 -0.3,-0.72 0.18,-0.3 0.12,-0.48 -0.12,-0.57 -0.12,-0.63 0.18,-0.63 q 0.18,-0.36 0.57,-0.45 l 1.08,-0.12 0.54,1.32 q 0.21,0.51 1.02,0.72 l 1.47,0.15 0.75,-0.09 -6.84,-9.21 0.06,-0.42 0.45,-0.54 0.57,-0.87 q 1.38,-4.08 2.67,-5.7 1.83,-2.31 5.31,-2.97 1.02,-0.18 3.09,-0.06 -0.69,0.66 -0.57,1.08 0.18,0.66 0.84,0.63 0.63,-0.03 0.69,-0.66 0.03,-0.33 -0.57,-1.08 0.33,0.03 2.25,-0.03 1.83,-0.06 3.45,0.6 1.86,0.75 2.67,2.16 l 0.78,1.38 0.9,1.74 1.41,3.36 q 0,0.33 0.81,0.84 l 0.45,0.39 q 0,0.15 -0.63,0.48 -1.77,1.38 -3.33,3.66 l -2.82,4.11 -0.51,1.02 0.21,0.3 0.45,-0.3 0.3,-0.42 2.94,-4.38 0.84,-1.11 0.96,-1.05 0.9,-0.81 1.08,-0.9 0.12,0.36 q -2.55,1.8 -3.84,3.84 l -1.32,2.07 -1.47,2.46 q 0.93,0.21 1.92,-0.57 l 0.51,-1.32 0.75,-0.24 q 0.51,0.15 0.78,0.63 l 0.3,0.51 q 0.03,0.06 0.03,0.21 0,0.3 -0.27,0.63 l -0.33,0.57 q 0,0.21 0.27,0.54 0,0.81 -0.96,1.41 l -0.45,-0.21 -0.33,-0.21 -9.39,-0.06 q 0.27,0 -5.64,0.09 -1.26,0.03 -1.86,0.12 l -0.24,0.15 -0.63,0.51 -0.6,0.21 -0.06,-0.27 0.27,-0.48 0.96,-0.54 17.31,-0.12 q 0,-0.42 -0.42,-0.57 h -3.84 l -0.33,-0.3 q 0.54,-1.14 1.47,-3.51 0.24,-0.63 1.08,-3.39 0.39,-1.29 0.39,-2.91 0.12,0.12 0.51,0.36 0.15,0.15 0.57,0.33 0.36,0.03 0.6,-0.21 0.27,-0.27 0.24,-0.6 -0.09,-0.87 -0.9,-0.81 -0.18,0 -0.57,0.3 -0.36,0.27 -0.45,0.3 l -0.18,-0.21 -1.17,0.63 -1.71,1.05 z m 4.86,-6.69 q 0.03,-0.75 0,-1.17 -0.15,-1.29 -0.9,-2.52 -0.27,-0.42 -0.48,-0.54 -0.3,-0.15 -1.14,-0.21 l -0.69,0.06 q -0.96,0.45 -1.41,1.35 l -0.24,1.08 -0.09,1.11 0.15,1.83 v 1.92 q 2.19,-1.05 4.8,-2.91 z m -2.58,-5.07 -0.81,-0.15 q -1.17,0.24 -2.1,1.44 -0.18,0.18 -0.36,0.57 v 6.69 l 0.51,-0.24 q 0.03,0.39 0.03,-5.67 l 0.24,-0.78 q 0.45,-1.44 2.49,-1.86 z m 2.58,8.4 0.06,-2.61 q -2.79,1.8 -4.86,2.88 l -0.03,2.55 q 0.96,-0.6 4.83,-2.82 z m -5.34,3.03 v -2.52 l -0.51,0.33 v 2.49 z m 8.22,7.23 q 0,-0.15 -0.33,-0.21 l -0.33,0.21 -0.06,0.33 0.45,0.09 z m -11.43,-11.79 v -4.98 q 0,-0.42 -0.45,-0.69 -0.27,-0.18 -0.93,-0.33 -0.63,0 -1.26,0.3 -1.23,0.87 -2.07,3.12 -0.48,1.29 -0.42,3.15 l 0.09,2.22 q 1.68,-0.96 5.04,-2.79 z m -1.17,-6.42 q -0.24,-0.51 -1.05,-0.51 -1.02,0 -2.16,0.78 -1.29,0.9 -1.5,2.55 -0.06,1.08 -0.21,3.27 -0.06,1.02 -0.03,2.46 -0.03,0 -0.42,-0.18 -0.36,-0.21 -0.51,-0.18 -0.63,0.18 -0.63,0.75 0,0.72 0.84,0.63 0.24,0 0.42,-0.24 0.24,-0.36 0.36,-0.45 l 0.03,0.33 v 0.39 q 0.3,0 0.51,-0.12 -0.03,-1.14 0,-1.89 0,-1.77 0.18,-3.15 0.21,-1.56 0.69,-2.4 1.2,-2.04 3.48,-2.04 z m 1.2,9.45 q -0.06,-0.93 -0.03,-2.31 -1.5,0.72 -4.92,2.61 l 0.09,0.63 0.06,0.81 0.21,0.78 z m 3.57,8.43 -0.36,-1.83 q -0.06,-0.57 -0.15,-2.13 -0.03,-0.72 0.12,-2.43 l -0.51,0.3 v 2.97 l 0.15,1.71 q 0.03,0.42 0.75,1.41 z m -8.61,-5.73 -0.33,-1.56 -0.15,-0.63 -0.48,0.18 q 0.03,0.36 0.18,1.29 0.12,0.15 0.33,0.96 z m -3.39,6.45 v -0.18 l -0.15,-0.15 -0.06,0.36 z" />
      <path
         id="path26"
         style=""
         d="m 247.0225,85.18 q 0.12,0.36 -0.63,0.84 -0.39,0.12 -0.45,0.54 l -0.63,1.23 -0.84,1.38 q -0.84,1.38 -2.25,2.13 -1.98,1.05 -4.14,1.05 -0.72,0 -2.25,-0.42 l -0.63,-0.24 -0.12,3.6 0.06,1.68 0.06,0.69 q 0.06,0.66 0.45,0.96 0.15,0.15 0.39,0.27 0.57,0.18 0.57,0.45 -2.16,0 -2.94,1.35 l -1.62,2.85 q -1.11,1.32 -2.88,1.74 l 0.66,0.09 q 0.81,0 2.22,-0.96 0.78,-0.63 1.47,-1.89 0.3,-0.57 0.9,-1.35 0.45,-0.45 0.63,-0.57 0.3,-0.24 0.72,-0.39 0.36,-0.06 0.78,-0.06 l 0.51,0.12 q -0.21,0.18 -0.72,0.18 -0.24,0 -0.57,0.12 -0.81,0.21 -1.5,1.38 -0.24,0.48 -0.75,1.41 -0.81,1.08 -1.17,1.44 -1.17,1.17 -2.88,1.17 -1.14,0 -1.89,-0.57 -1.05,-0.81 -1.05,-1.68 0,-0.66 0.42,-1.26 0.45,-0.57 1.05,-0.57 0.48,0 0.84,0.33 0.36,0.36 0.33,0.84 0,0.18 -0.54,0.84 -0.42,0.42 -0.42,0.39 l 0.78,0.15 q 0.42,0 0.63,-0.21 0.3,-0.42 0.84,-1.47 0.21,-0.63 0.39,-1.53 0.3,-1.5 0.3,-5.58 v -2.61 l -0.87,0.15 -0.96,0.12 -0.6,-0.09 q -0.78,-0.12 -1.5,-0.78 -0.69,-0.69 -0.66,-1.53 0.03,-1.2 1.41,-1.98 0.96,-0.54 2.1,-0.48 l 0.96,0.06 -0.12,-6.87 q -0.66,-1.38 -3.39,-2.25 v -0.18 q 2.07,0.51 3.45,1.89 l 0.06,-0.33 q 0.06,-0.27 -0.24,-0.6 l -0.51,-0.6 q -0.45,-0.42 -1.23,-0.66 l -1.53,-0.3 v -0.27 h 4.53 q -0.51,0.6 -0.45,0.96 0.12,0.93 0.99,0.87 0.84,-0.03 0.87,-0.9 0,-0.21 -0.57,-0.93 h 6.39 q 1.38,0 3.09,1.44 l 3.45,4.35 0.75,0.45 -1.08,0.75 q -0.63,0.54 -0.84,1.23 -0.48,1.59 -1.8,2.88 -1.32,1.29 -2.91,1.77 -1.29,0.39 -2.25,0.36 -1.38,-0.03 -3.72,-1.17 v 6.24 q 0,0.57 0.39,1.05 0.09,0.18 0.57,0.48 l -0.3,-1.32 -0.09,-1.68 v -1.71 l 0.09,-2.22 1.26,0.39 q 0.33,0.12 1.26,0.36 0.51,0.12 1.44,0.06 2.1,-0.15 3.27,-0.84 0.87,-0.54 2.34,-2.28 l 0.9,-1.77 q 0.72,-1.41 1.92,-1.98 z m -3.45,-0.45 q 0,-0.75 -0.84,-0.87 -0.3,-0.06 -0.66,0.3 -0.33,0.36 -0.48,0.51 l -0.84,-3.6 q -0.54,-0.57 -1.41,-1.02 -0.96,-0.45 -1.71,-0.45 -1.17,0 -1.86,0.87 -0.24,0.3 -0.51,0.96 l 0.06,8.46 q 0.45,0.3 1.35,0.6 0.9,0.27 1.41,0.27 1.65,0 2.67,-1.65 0.03,-0.06 0.57,-2.19 l 0.09,-0.36 v -0.93 q 0,-0.39 0.3,-0.6 0.6,0.6 0.96,0.57 0.9,-0.06 0.9,-0.87 z m -3.51,-4.92 q -0.75,-1.02 -2.7,-1.08 -1.02,-0.03 -1.62,0.27 -0.57,0.27 -1.11,1.08 -0.33,0.51 -0.66,1.56 v 7.62 q 0.51,0.24 0.66,0.27 l 0.06,-6.99 q 0,-1.08 0.18,-1.59 0.3,-0.87 1.53,-1.35 0.6,-0.24 1.53,-0.24 1.23,0 2.13,0.45 z m -9.03,10.23 v -0.27 l -0.24,-0.24 -0.39,-0.09 q -0.39,0 -0.9,0.18 -0.39,0.21 -0.57,0.6 z m 0,1.32 v -0.57 l -0.12,-0.27 -0.63,-0.09 q -0.72,0 -1.17,0.21 l -0.06,0.36 q -0.03,0.15 0.12,0.3 l 0.39,0.12 0.51,-0.12 0.45,-0.15 0.21,0.42 q -0.3,0.84 -2.19,1.23 0.18,0.27 0.57,0.27 l 0.96,-0.12 0.21,-0.09 0.51,-0.36 z" />
      <path
         id="path28"
         style=""
         d="m 267.4075,90.73 -0.9,2.13 -0.39,1.17 -0.33,0.78 q -1.11,2.64 -2.22,3.48 -1.68,1.74 -4.14,2.04 -0.54,0.06 -0.93,0.06 -1.68,-0.03 -2.73,-0.57 -0.84,-0.45 -2.19,-1.77 -2.1,-2.1 -3.18,-5.01 l -1.17,-3.21 -1.02,-1.35 5.25,-8.46 q 0.84,-0.78 2.19,-1.29 1.35,-0.51 2.55,-0.51 2.91,0 5.1,2.55 l 1.41,2.58 1.92,4.5 q 0,0.21 0.45,0.45 l 0.69,0.69 q -0.75,0.24 -1.59,1.35 -0.06,0.09 -0.93,1.98 -0.15,0.33 -0.81,2.28 -0.45,1.32 -0.81,1.8 -1.77,2.37 -3.51,2.88 -0.84,0.24 -2.13,0.21 -1.62,-0.06 -2.67,-0.51 0.42,0.6 1.2,0.84 1.62,0.51 3.27,0.15 4.14,-0.93 6.96,-8.7 0.24,-0.69 0.72,-1.05 l 1.02,-0.78 q 0,0.24 -0.27,0.48 z m -7.89,-10.8 q -0.87,-0.21 -1.65,-0.15 -0.48,0.03 -0.9,0.18 -1.5,0.51 -1.92,2.01 l -0.39,1.38 -0.12,1.68 0.06,1.83 v 1.92 l 7.65,-4.47 q 0.03,-1.71 -0.24,-2.55 -0.39,-1.11 -1.53,-1.98 -0.66,-0.48 -0.99,-0.57 -1.38,-0.33 -2.13,-0.24 -1.14,0.15 -2.61,1.2 -0.9,0.9 -1.05,2.49 l -0.24,2.79 -0.06,2.79 q -0.54,-0.54 -1.02,-0.51 -0.87,0.06 -0.87,0.75 0,0.33 0.3,0.63 0.3,0.27 0.66,0.27 0.36,0 0.93,-0.75 l 0.06,0.69 q 0.06,0 0.57,-0.3 l -0.12,-3.51 q -0.06,-1.71 0.45,-3.15 0.63,-1.77 1.89,-2.49 0.96,-0.54 1.8,-0.54 0.27,0.03 1.56,0.24 -0.03,0.09 -0.09,0.36 z m -4.92,9.54 v 2.61 l 7.8,-4.59 -0.12,-2.52 q -2.94,1.65 -7.68,4.5 z m 8.91,-1.53 q -0.33,0 -1.02,0.78 l -0.03,-0.57 -7.92,4.74 q 0,0.18 0.06,2.04 0,0.24 0.06,0.81 0,0.03 0.21,0.99 0.09,0.42 1.2,1.44 1.05,0.69 2.49,0.69 0.48,0 0.84,-0.09 1.26,-0.33 2.01,-1.35 0.75,-1.02 0.81,-2.34 0.12,-3.18 0.12,-2.73 0,-2.49 0,-2.49 0.03,-0.24 0.15,-0.75 0.63,0.54 1.08,0.54 0.36,0 0.66,-0.33 0.3,-0.33 0.24,-0.69 -0.12,-0.69 -0.96,-0.69 z m -9.51,1.8 q -0.09,0.06 -0.48,0.21 -0.06,1.14 -0.06,2.82 0.03,-0.03 0.6,-0.42 z m 0.24,6.3 q -0.21,-0.75 -0.21,-2.16 v -0.75 l -0.6,0.45 q 0,2.01 -0.03,1.5 0.12,1.86 2.1,3.09 -0.18,-0.18 -0.84,-0.99 -0.21,-0.39 -0.42,-1.14 z" />
      <path
         id="path30"
         style=""
         d="m 281.95,88.99 q 0.27,0.12 0.63,0.27 0.42,-0.6 1.17,-2.22 0.18,-0.78 0.3,-2.34 0.6,0.51 0.96,0.51 0.99,-0.09 0.99,-0.87 0,-0.87 -0.99,-0.9 -0.27,0 -0.51,0.24 -0.42,0.42 -0.51,0.48 L 283.75,82 q -0.09,-0.9 -1.35,-1.56 -0.15,-0.12 -0.96,-0.3 -0.78,-0.18 -0.96,-0.15 -0.63,0 -1.53,0.63 -1.74,0.81 -1.74,4.23 v 9.87 q 0,3.21 1.98,4.32 l 0.33,0.09 0.18,0.3 h -4.41 q 0.42,-0.9 0.45,-1.05 0,-0.39 -0.3,-0.69 -0.27,-0.3 -0.66,-0.3 -0.36,0 -0.63,0.33 -0.27,0.33 -0.27,0.72 0,0.72 0.57,0.99 h -5.22 q 1.2,-0.33 2.25,-1.11 1.17,-0.87 1.59,-1.89 l 0.3,-1.83 V 82.66 q -0.15,-0.84 -1.53,-1.89 -0.48,-0.36 -2.43,-1.02 0.9,-0.06 2.19,0.66 1.2,0.66 1.77,1.44 0,-0.03 -0.06,-0.57 -0.18,-0.81 -1.2,-1.65 -1.2,-1.02 -2.64,-1.02 l 0.06,-0.27 h 4.92 q -0.69,0.75 -0.63,1.23 0.12,0.96 1.11,0.96 1.05,0 1.08,-1.05 0,-0.36 -0.3,-0.66 -0.09,-0.09 -0.27,-0.24 -0.18,-0.18 -0.27,-0.24 0,0 3.33,0 h 1.62 q 0.66,0 1.56,0.24 3.3,0.87 4.8,3.06 l 0.96,1.41 q 0.48,0.72 1.29,0.99 -0.93,1.32 -2.37,2.97 -0.63,0.72 -1.53,1.59 -0.87,0.84 -1.47,1.11 0.36,0.21 0.75,0.48 l 0.33,-0.15 q 0.99,-0.93 2.61,-2.61 0.78,-0.81 2.31,-2.73 l 0.21,0.06 -0.6,0.84 q -0.66,0.93 -1.53,1.95 -1.77,2.07 -3.06,2.91 0.06,0.06 1.47,2.04 0.3,0.72 1.41,2.25 0.63,0.66 1.92,1.11 -2.1,1.23 -2.7,3.66 -0.24,0.96 -0.24,1.65 0,2.07 1.71,3.24 0.48,0.24 0.84,0.15 -0.96,-0.6 -1.5,-2.04 -0.51,-1.35 -0.3,-2.52 0.36,-2.1 2.82,-3.57 l 0.12,0.12 q -0.27,0.21 -0.9,0.81 -1.62,1.83 -1.62,3.81 0,1.56 0.99,2.58 0.66,0.69 1.35,0.69 0.18,0 0.63,-0.15 -1.17,-0.33 -1.02,-1.29 0.15,-0.99 1.26,-0.99 0.54,0 0.99,0.45 0.48,0.48 0.48,1.05 0,1.29 -1.38,1.71 -0.18,0.06 -0.51,0.06 l -0.21,0.27 q 0.3,0.06 0.51,0.06 1.11,0 1.86,-0.99 0.24,-0.33 0.39,-0.99 0.06,-0.3 0.12,-0.93 0.33,0.99 0.21,1.38 -0.15,0.54 -0.72,1.11 -0.54,0.6 -1.05,0.72 -0.51,0.12 -0.93,0.12 -0.69,0 -2.04,-0.51 -2.76,-1.02 -4.02,-3.99 -0.63,-1.5 -0.72,-4.89 0.75,0.51 1.23,0.51 0.36,0 0.63,-0.33 0.27,-0.36 0.21,-0.72 -0.12,-0.69 -0.93,-0.75 -0.39,-0.03 -0.99,0.66 0.06,-1.92 0.06,-2.22 v -1.08 q 0,-0.45 -0.21,-1.05 -0.39,-1.11 -1.14,-1.68 -0.15,0.03 -1.71,0.33 -0.99,0.09 -1.74,0.06 -1.2,-0.06 -1.23,-0.78 -0.03,-0.66 0.84,-1.08 0.42,-0.21 0.81,-0.21 0.18,0 1.5,0.33 0.54,0.12 1.02,0.36 z m 1.26,-8.4 q -0.51,-1.53 -3,-1.62 -2.46,-0.09 -3.54,2.49 -0.12,0.3 -0.3,1.41 -0.15,0.96 -0.15,1.98 v 10.74 q 0,1.68 1.47,2.49 -0.06,-0.12 -0.27,-0.48 -0.57,-1.08 -0.57,-1.77 V 84.85 q 0,-0.63 0.33,-2.28 0.12,-0.36 0.3,-0.84 0.99,-1.86 3.06,-2.01 1.68,-0.12 2.67,0.87 z m -13.56,19.74 -0.12,-0.27 h 11.19 v 0.27 z m 9.39,-11.64 q -0.69,0.3 -0.69,0.66 0,0.45 0.72,0.6 1.41,0.27 2.85,-0.51 -0.48,-0.39 -1.53,-0.63 -1.05,-0.27 -1.35,-0.12 z" />
      <path
         id="path32"
         style=""
         d="m 307.89109,81.73 q 0,2.25 -0.03,6.72 -0.03,4.47 -0.03,6.69 v 0.33 l 0.18,1.17 0.6,1.29 q 0.3,0.66 1.71,1.17 v 0.27 h -4.8 q 0.63,-0.72 0.51,-1.14 -0.24,-0.87 -1.08,-0.75 -0.63,0.09 -0.78,0.78 -0.03,0.36 0.72,1.11 h -4.35 l -0.33,-0.09 -0.06,-0.21 q 1.32,-0.39 1.8,-0.72 0.72,-0.45 1.2,-1.47 0.42,-0.87 0.42,-2.94 v -2.73 l -5.28,0.03 -0.06,0.33 q -0.06,0.24 -0.75,3.21 -0.66,2.79 -1.56,4.65 -0.75,1.56 -1.2,2.22 -1.56,2.31 -4.02,3.9 l -1.14,0.33 q -0.63,0.18 -1.26,0.18 -1.14,0 -1.86,-0.6 -0.93,-0.78 -0.93,-1.74 0,-0.9 0.57,-1.59 0.57,-0.69 1.38,-0.63 0.45,0.03 0.78,0.39 0.33,0.39 0.33,0.81 0,0.69 -1.23,0.99 l -0.51,-0.09 v 0.39 q 0.15,0.24 0.69,0.42 2.01,0 4.05,-1.95 1.77,-1.71 2.61,-3.78 0.54,-1.35 1.17,-4.29 l 2.49,-11.67 0.33,-2.61 q -0.21,0.03 -0.9,0.9 -0.18,0.75 -0.57,0.93 l 0.06,-0.72 q 0.03,-0.39 1.59,-1.86 l -0.42,-0.15 q -0.18,0.03 -0.51,0.24 -1.5,0.87 -1.5,2.43 -0.36,-0.3 -0.81,-0.6 -0.27,-0.12 -0.78,-0.72 0.75,-0.15 0.84,-0.57 0.06,-0.78 -0.72,-0.78 -0.27,0 -0.57,0.24 -0.15,0.15 -0.24,0.54 -0.09,-0.03 -0.36,-0.18 -0.27,-0.15 -0.66,-0.87 -0.27,-0.72 0.06,-1.41 0.24,-0.54 0.69,-0.75 l 0.39,0.06 0.39,0.69 0.75,0.72 9.54,-0.03 0.18,0.15 q -0.57,0.57 -0.51,0.99 0.12,0.78 0.99,0.78 0.78,0 0.84,-0.87 0.03,-0.48 -0.69,-1.02 h 4.56 l 0.18,0.3 q -1.05,0.18 -2.07,0.87 -1.23,0.84 -1.23,1.77 l -0.15,14.88 0.66,1.23 q 0.15,0.3 0.81,0.72 l -0.36,-1.23 -0.33,-1.35 0.12,-13.71 q 0,-0.72 1.17,-1.65 0.72,-0.57 1.92,-1.02 l 0.12,0.15 -0.96,0.6 -0.9,0.69 z m -7.68,18.66 v -0.33 h 10.56 l 0.06,0.33 z m 3.27,-19.53 q -0.36,-0.66 -1.86,-0.9 -0.72,0 -1.14,0.33 -0.36,2.31 -1.17,6.51 -0.09,0.48 -0.33,1.71 h 4.56 q 0,-1.23 -0.03,-3.69 -0.03,-2.49 -0.03,-3.72 z m -1.8,-1.8 q -1.05,-0.27 -2.1,0.78 l -1.62,8.67 h 0.39 l 1.62,-8.01 q 0.12,-0.63 1.08,-0.87 l 1.47,-0.09 q 0,-0.12 -0.33,-0.27 -0.06,-0.03 -0.51,-0.21 z m -4.17,11.31 -0.03,0.15 q -0.36,1.8 -0.72,3.6 -0.45,2.01 -1.08,3.45 -1.2,2.67 -1.59,3.33 -0.96,1.59 -2.43,2.7 -2.49,1.86 -4.14,1.86 l 0.45,0.09 q 2.43,0.21 5.16,-2.46 1.11,-1.11 2.34,-3.75 1.05,-2.28 1.53,-4.17 0.48,-1.89 1.05,-4.44 h 5.52 v -0.36 z" />
      <path
         id="path34"
         style=""
         d="m 329.49766,92.47 q -1.8,2.37 -1.8,3.78 0,0.9 0.66,1.56 l 0.6,0.6 q 0.36,0.27 0.75,0.18 0.51,-0.12 0.99,-0.72 0.48,-0.6 0.48,-1.41 0,-0.81 -0.57,-1.56 -0.39,-0.51 -1.29,-0.99 0.66,-0.3 1.08,-0.3 1.32,0 2.13,1.59 0.45,0.84 0.18,1.98 -0.15,0.63 -0.63,1.2 -0.93,1.08 -2.64,1.08 -0.36,0 -1.26,-0.15 0,0.45 1.05,0.63 0.84,0.15 1.38,0.06 1.53,-0.27 2.37,-1.59 0.21,-0.33 0.51,-1.02 0.06,-0.24 0.12,-0.81 0,-0.21 -0.27,-1.98 0.57,0.81 0.6,1.95 0.03,0.96 -0.6,2.07 -0.12,0.24 -0.57,0.75 -0.03,0.03 -0.63,0.57 -0.66,0.39 -1.92,0.42 -0.57,0 -1.8,-0.33 -2.07,-1.17 -2.79,-3.09 -0.39,-1.05 -0.21,-3.09 0.06,-0.63 0.63,-2.64 0.18,-0.6 0.9,-2.73 0.78,0.96 1.35,0.84 1.05,-0.24 0.9,-1.08 -0.12,-0.78 -1.02,-0.78 -0.36,0 -1.23,0.51 l 0.09,-0.54 -6.54,3.93 -0.12,3.06 q -0.06,1.47 0.21,2.34 0.18,0.54 0.39,0.87 0.15,0.21 0.48,0.54 0.15,0.15 0.75,0.6 0.39,0.06 0.84,0.24 0.27,0.12 0.57,0.36 h -5.37 q 0.75,-0.81 0.75,-1.17 0,-0.48 -0.36,-0.81 -0.33,-0.36 -0.78,-0.27 -0.84,0.15 -0.81,1.17 0,0.27 0.81,1.08 h -5.22 l -0.21,-0.21 0.06,-0.18 q 0.87,0 1.71,-0.51 0.66,-0.39 0.84,-0.54 1.26,-0.96 1.5,-2.7 V 82.66 l -0.21,-0.96 q -0.12,-0.51 -2.28,-1.47 -0.45,-0.21 -1.47,-0.54 v -0.33 q 0.3,0.09 1.59,0.66 0.51,0.21 1.71,0.75 -0.18,-0.84 -1.26,-1.44 -0.39,-0.21 -2.04,-0.72 v -0.36 h 4.92 q 0,0 -0.36,0.45 -0.33,0.45 -0.3,0.75 0.12,0.9 1.05,0.9 0.87,0 1.02,-0.93 0.03,-0.3 -0.36,-0.63 -0.36,-0.33 -0.36,-0.54 l 3.39,-0.03 q 4.41,-0.03 6.54,1.98 1.05,0.99 1.74,2.7 l 1.53,3.78 q 0.54,1.35 0.75,1.56 l 0.75,0.42 -1.83,1.08 q -2.55,1.5 -3.45,3.63 -0.69,1.62 -0.69,2.37 0,0.48 0.09,0.87 0.45,1.86 1.92,2.22 -1.59,-0.9 -1.59,-2.85 0,-1.92 2.7,-4.59 1.53,-1.5 3.57,-2.13 -0.9,0.54 -2.1,1.44 -0.9,0.69 -1.08,0.81 -0.57,0.48 -0.93,0.96 z m -16.8,7.83 0.24,-0.36 h 11.01 v 0.36 z m 9.84,-20.04 q -1.32,0.45 -1.65,1.29 -0.09,0.21 -0.21,0.96 -0.12,0.75 -0.12,1.89 v 1.62 l -0.03,1.71 6.54,-4.05 v -0.81 q -0.15,-1.41 -1.08,-2.1 -0.48,-0.36 -1.26,-0.57 -1.14,-0.3 -2.19,0.06 z m -0.9,-0.96 q -1.32,0.6 -1.92,1.77 -0.39,0.78 -0.39,1.41 v 5.85 l 0.6,-0.45 v -0.75 q 0,-1.02 0.06,-3.33 0.03,-1.02 0.06,-1.35 0.09,-0.75 0.33,-1.2 0.87,-1.56 3.12,-1.56 1.29,0 2.37,0.42 -0.96,-1.14 -2.76,-1.14 -0.72,0 -1.47,0.33 z m -1.14,9.21 q 0,1.23 0.06,1.95 0.45,-0.27 6.39,-3.93 l 0.09,-0.9 q 0,-0.48 0.03,-1.14 -1.65,0.96 -6.57,4.02 z m -1.17,2.61 0.6,-0.42 v -1.98 l -0.6,0.33 z m 0.6,0.39 -0.6,0.36 v 1.26 q 0,0.81 0.33,3.39 0.21,0.75 0.9,1.11 -0.27,-0.45 -0.45,-1.2 -0.03,-0.15 -0.06,-0.33 -0.12,-0.9 -0.12,-1.86 z" />
      <path
         id="path36"
         style=""
         d="m 353.18922,81.52 -0.24,-0.27 q 0,-0.57 0.12,-0.72 l 0.39,-0.78 q 0.18,-0.75 0.69,-1.02 z m -0.69,1.23 q -1.23,1.68 -1.23,3.33 l -0.24,-0.06 -0.06,-0.24 q 0,-1.2 0.57,-2.13 l 0.51,-0.84 q 0.27,-0.42 0.9,-1.02 h 0.24 q 0.06,0.18 0.06,0.24 0,0.27 -0.3,0.39 z m -2.88,8.01 q 0.27,-1.41 0.18,-2.28 -0.06,-0.66 -0.24,-1.29 l 0.06,-0.36 h 0.24 q 0.39,0.78 0.39,1.83 0,1.23 -0.63,2.1 z m 5.16,9.45 q -0.18,-0.09 -1.08,-1.17 l -0.63,-1.44 q 0,-0.42 -1.35,-3.27 l -0.51,-1.08 -0.18,-0.99 h 0.24 l 0.06,0.87 q 0.03,0.27 0.45,0.81 1.29,2.28 1.29,2.73 0.3,0.87 0.75,1.65 l 0.39,0.66 0.27,0.42 0.45,0.45 q 0,0.3 -0.15,0.36 z m -2.1,-20.49 -0.24,0.81 q 0,0.57 -0.51,0.81 0,-0.3 -0.24,-0.57 -0.21,-0.27 -0.54,-0.27 -0.84,-0.03 -0.84,0.69 0,0.6 0.57,0.78 0.27,0.09 0.84,-0.24 l -0.39,0.81 -0.51,0.84 -0.24,0.81 -0.12,0.81 v 0.36 l -0.15,0.15 -0.81,-2.76 q 0,-1.17 -0.54,-1.74 -0.36,-0.66 -1.2,-1.02 -0.84,-0.54 -1.92,-0.54 -2.28,0 -3.57,2.85 -0.39,0.87 -0.42,1.83 0,0.36 0,0.99 0.03,0.72 0.03,0.96 v 1.47 l -0.03,0.75 h 2.91 q 0.78,0 1.17,-0.21 0.39,-0.21 0.87,-0.87 0,-2.04 1.29,-3.24 l -0.09,0.51 -0.06,0.54 0.21,0.72 0.51,1.05 0.3,1.05 -0.18,0.75 q -0.6,-0.36 -0.9,-0.33 -0.54,0 -0.54,0.72 0,0.75 0.72,0.69 0.39,-0.03 0.84,-0.63 l 0.21,0.66 q 0,0.36 -0.66,1.59 l -0.45,0.84 -0.18,0.63 q 0,0.3 0.39,0.96 -0.06,0.03 -0.18,0.03 -0.03,0 -0.21,-0.06 l -0.57,-0.93 -0.33,-1.29 q -0.18,-0.69 -0.81,-0.93 h -4.11 l -0.12,3.03 q 0,1.86 0.39,2.67 0.63,1.32 1.59,1.74 l 0.9,0.39 1.47,0.03 q 1.23,-0.39 2.01,-1.74 0.18,-0.33 0.96,-2.4 l 0.06,-0.18 q 0.57,-1.56 1.26,-2.25 0,2.1 1.02,3.84 -0.72,-0.24 -0.93,-0.24 -0.45,0 -0.69,0.42 -0.21,0.39 0,0.81 0.24,0.45 0.78,0.45 0.6,0 0.78,-0.57 0.03,-0.09 0.06,-0.24 0.06,-0.15 0.06,-0.21 0.63,1.62 1.92,3.54 -0.39,0 -1.17,-0.18 -1.2,-0.45 -1.83,-0.51 l -0.39,0.06 -0.45,0.09 -2.04,0.63 q -0.69,0.21 -2.13,0.21 -1.26,0 -1.98,-0.21 l -1.65,-0.81 q -1.98,-1.5 -3.27,-3.93 -0.93,-1.8 -1.71,-4.77 l -0.33,-0.51 -0.39,-0.39 q -0.54,-0.54 -1.02,-0.63 1.29,-0.84 2.1,-2.22 0.3,-0.51 0.51,-1.47 0.24,-1.08 0.45,-1.5 0.63,-1.38 1.41,-2.31 2.01,-2.46 5.25,-3.03 0.48,-0.09 0.96,-0.12 0.84,-0.06 2.67,0.63 1.95,0.72 2.7,0.72 0.51,0 1.14,-0.24 l 1.05,-0.96 h 0.36 q 0,0.42 -0.45,0.78 z m -6.27,-1.05 q -0.18,-0.03 -0.75,-0.06 -1.32,-0.06 -2.76,0.87 -1.08,0.69 -1.74,2.37 -0.09,0.24 -0.3,1.62 -0.24,1.68 -0.24,2.88 0,1.2 0.24,1.95 h 0.63 q 0,-0.39 -0.06,-1.41 0,0 0,-1.29 v -1.71 q 0,-0.69 0.39,-1.62 1.29,-3.03 4.14,-3.03 l 0.57,0.06 q 0.3,-0.12 1.17,0.36 l 0.63,0.36 0.33,0.12 q -0.54,-0.6 -0.96,-0.81 -0.6,-0.51 -1.29,-0.66 z m -0.39,11.1 h -5.31 q 0,0.12 -0.03,0.51 -0.03,0.48 -0.03,0.78 -0.06,2.37 0.06,3.12 0.09,0.51 0.39,1.56 0.9,2.22 2.49,2.55 -0.96,-0.6 -1.65,-2.07 -0.36,-0.72 -0.45,-3.06 -0.03,-0.57 0,-1.38 0.03,-0.66 0.06,-1.5 h 4.92 l -0.18,-0.27 z m 5.37,8.67 q -0.36,-0.15 -1.26,-0.18 -0.9,-0.03 -2.76,0.42 -2.28,0.57 -2.82,0.66 -0.51,0 -1.83,-0.42 1.11,0.69 2.49,0.69 0.69,0 3.57,-0.57 1.02,-0.21 2.25,-0.3 l 0.75,0.03 z" />
      <path
         id="path38"
         style=""
         d="m 373.10594,81.73 q 0,2.25 -0.03,6.72 -0.03,4.47 -0.03,6.69 v 0.33 l 0.18,1.17 0.6,1.29 q 0.3,0.66 1.71,1.17 v 0.27 h -4.8 q 0.63,-0.72 0.51,-1.14 -0.24,-0.87 -1.08,-0.75 -0.63,0.09 -0.78,0.78 -0.03,0.36 0.72,1.11 h -4.35 l -0.33,-0.09 -0.06,-0.21 q 1.32,-0.39 1.8,-0.72 0.72,-0.45 1.2,-1.47 0.42,-0.87 0.42,-2.94 v -2.73 l -5.28,0.03 -0.06,0.33 q -0.06,0.24 -0.75,3.21 -0.66,2.79 -1.56,4.65 -0.75,1.56 -1.2,2.22 -1.56,2.31 -4.02,3.9 l -1.14,0.33 q -0.63,0.18 -1.26,0.18 -1.14,0 -1.86,-0.6 -0.93,-0.78 -0.93,-1.74 0,-0.9 0.57,-1.59 0.57,-0.69 1.38,-0.63 0.45,0.03 0.78,0.39 0.33,0.39 0.33,0.81 0,0.69 -1.23,0.99 l -0.51,-0.09 v 0.39 q 0.15,0.24 0.69,0.42 2.01,0 4.05,-1.95 1.77,-1.71 2.61,-3.78 0.54,-1.35 1.17,-4.29 l 2.49,-11.67 0.33,-2.61 q -0.21,0.03 -0.9,0.9 -0.18,0.75 -0.57,0.93 l 0.06,-0.72 q 0.03,-0.39 1.59,-1.86 l -0.42,-0.15 q -0.18,0.03 -0.51,0.24 -1.5,0.87 -1.5,2.43 -0.36,-0.3 -0.81,-0.6 -0.27,-0.12 -0.78,-0.72 0.75,-0.15 0.84,-0.57 0.06,-0.78 -0.72,-0.78 -0.27,0 -0.57,0.24 -0.15,0.15 -0.24,0.54 -0.09,-0.03 -0.36,-0.18 -0.27,-0.15 -0.66,-0.87 -0.27,-0.72 0.06,-1.41 0.24,-0.54 0.69,-0.75 l 0.39,0.06 0.39,0.69 0.75,0.72 9.54,-0.03 0.18,0.15 q -0.57,0.57 -0.51,0.99 0.12,0.78 0.99,0.78 0.78,0 0.84,-0.87 0.03,-0.48 -0.69,-1.02 h 4.56 l 0.18,0.3 q -1.05,0.18 -2.07,0.87 -1.23,0.84 -1.23,1.77 l -0.15,14.88 0.66,1.23 q 0.15,0.3 0.81,0.72 l -0.36,-1.23 -0.33,-1.35 0.12,-13.71 q 0,-0.72 1.17,-1.65 0.72,-0.57 1.92,-1.02 l 0.12,0.15 -0.96,0.6 -0.9,0.69 z m -7.68,18.66 v -0.33 h 10.56 l 0.06,0.33 z m 3.27,-19.53 q -0.36,-0.66 -1.86,-0.9 -0.72,0 -1.14,0.33 -0.36,2.31 -1.17,6.51 -0.09,0.48 -0.33,1.71 h 4.56 q 0,-1.23 -0.03,-3.69 -0.03,-2.49 -0.03,-3.72 z m -1.8,-1.8 q -1.05,-0.27 -2.1,0.78 l -1.62,8.67 h 0.39 l 1.62,-8.01 q 0.12,-0.63 1.08,-0.87 l 1.47,-0.09 q 0,-0.12 -0.33,-0.27 -0.06,-0.03 -0.51,-0.21 z m -4.17,11.31 -0.03,0.15 q -0.36,1.8 -0.72,3.6 -0.45,2.01 -1.08,3.45 -1.2,2.67 -1.59,3.33 -0.96,1.59 -2.43,2.7 -2.49,1.86 -4.14,1.86 l 0.45,0.09 q 2.43,0.21 5.16,-2.46 1.11,-1.11 2.34,-3.75 1.05,-2.28 1.53,-4.17 0.48,-1.89 1.05,-4.44 h 5.52 v -0.36 z" />
    </g>
  </g>
</svg>
