<?xml version="1.0" encoding="UTF-8" standalone="no"?>
<svg
   xmlns:dc="http://purl.org/dc/elements/1.1/"
   xmlns:cc="http://creativecommons.org/ns#"
   xmlns:rdf="http://www.w3.org/1999/02/22-rdf-syntax-ns#"
   xmlns:svg="http://www.w3.org/2000/svg"
   xmlns="http://www.w3.org/2000/svg"
   id="svg16"
   width="800px"
   version="1.1"
   height="200px">
  <metadata
     id="metadata20">
    <rdf:RDF>
      <cc:Work
         rdf:about="">
        <dc:format>image/svg+xml</dc:format>
        <dc:type
           rdf:resource="http://purl.org/dc/dcmitype/StillImage" />
      </cc:Work>
    </rdf:RDF>
  </metadata>
  <defs
     id="defs4">
    <style
       id="style2"
       type="text/css"><![CDATA[    
     @font-face {font-family:Silka Black;
     src: url('/Users/francesco/Repos/write-logos/src/fonts/Fonts_E_TEMPORANEA/Silka-Black.otf');}
     @font-face {font-family:Chakie;
     src: url('/Users/francesco/Repos/write-logos/src/fonts/Fonts_X/Chakie.ttf');}
     ]]></style>
  </defs>
  <g
     id="g14"
     style="font-size:60px">
    <g
       style="text-anchor:middle"
       id="text12"
       aria-label="EXTEMPORANEA">
      <path
         id="path22"
         style="font-family:'Silka Black';letter-spacing:0.075em"
         d="m 139.06562,100 h 28.38 v -9.78 h -16.86 V 83.8 h 13.74 v -9.72 h -13.74 v -6.36 h 16.26 V 58 h -27.78 z" />
      <path
         id="path24"
         style="font-family:Chakie;letter-spacing:0.05em"
         d="m 204.13562,96.28 q -0.12,0 -0.24,0.06 -0.12,0 -0.18,-0.06 -0.3,-0.36 -0.66,0 -0.12,0.06 -0.48,0.06 0.18,0.3 0.36,0.42 0.18,0.12 0.3,0.3 0.06,0.06 -0.06,0.36 -0.12,0 -0.18,0 0,-0.06 -0.06,-0.06 l -0.12,-0.12 q -0.42,-0.12 -0.48,0.12 -0.06,0.12 0,0.3 0.12,0.12 0.24,0.12 0.36,0 0.30001,0.24 0,0.24 0.06,0.54 V 98.5 q -0.12,-0.24 -0.12,0 -0.24,0.12 -0.06,0.24 l 0.06,-0.06 q 0,0 0.12,-0.12 0.24,0.06 0.3,0.24 0.12,0.12 0,0.18 -0.6,0.18 -0.96,0.66 -0.12,0.06 -0.12,0.06 -0.3,0.06 -0.6,0 -0.24,-0.12 -0.48,0.24 h -0.12 q -0.12,-0.42 -0.48,-0.3 -0.3,0.12 -0.48,-0.18 -0.06,-0.18 -0.24,0 -0.42,0.48 -0.9,0.06 -0.06,0 -0.06,0 0,-0.06 -0.06,-0.06 -0.06,0 -0.06,-0.06 -0.18,0.18 -0.36,0.3 -0.18,0.06 -0.36,-0.24 -0.18,-0.18 -0.42,-0.06 -0.24,0.06 -0.36,-0.12 -0.18,-0.24 -0.42,-0.24 -0.18,0 -0.36,0 -0.36,0.12 -0.6,0 -0.24,-0.18 -0.48,-0.3 -0.36,-0.12 -0.78,-0.3 -0.36,-0.24 -0.65999,-0.54 -0.36001,-0.3 -0.78001,-0.48 -0.42,-0.24 -0.71999,-0.6 -0.24001,-0.3 -0.42001,-0.66 -0.12,-0.42 -0.48,-0.6 0.12,-0.24 -0.06,-0.36 -0.18,-0.12 -0.18,-0.3 0,-0.3 -0.18,-0.42 -0.17999,-0.18 -0.3,-0.36 -0.12,-0.12 -0.24,-0.24 -0.12,-0.12 -0.24,-0.24 -0.24,-0.3 -0.36,-0.6 -0.06,-0.3 -0.36,-0.48 -0.17999,-0.18 -0.06,-0.42 0,-0.18 -0.18,-0.3 -0.12,-0.18 -0.24,-0.3 -0.12,-0.18 -0.36,-0.12 -0.18,0.06 -0.18,-0.24 0,-0.18 -0.12,-0.24 -0.12,-0.12 -0.12,-0.3 -0.12,-0.66 -0.6,-0.84 -0.42,-0.24 -0.9,-0.54 l -0.24,0.12 q 0.06,0.06 0.06,0.12 0,0 0.06,0.06 v 0.12 q 0,0.06 0.06,0.06 -0.06,0.12 -0.18,0.24 -0.11999,0.12 -0.3,0.18 -0.18,0.06 -0.36,0.18 v 0.12 q -0.18,0.3 -0.3,0.6 -0.06,0.3 -0.3,0.54 0.12,0.48 -0.12,0.72 -0.18,0.18 -0.42,0.42 -0.12,0.12 -0.3,0.3 -0.12,0.18 -0.3,0.36 -0.12,0.12 -0.3,0.18 -0.12,0 -0.24,0.12 0,0.12 0.12,0.18 0.12,0 0,0.24 -0.12,0.3 -0.35999,0.66 -0.18001,0.36 -0.12001,0.72 0.06,0.12 -0.3,0.24 -0.12,0.06 -0.3,0.18 -0.18,0.06 -0.3,0.18 0.12,0.12 0.18,0.24 0.06,0.06 0.18,0.18 -0.3,0.12 -0.54,0.24 -0.24,0.06 -0.36,0.36 0.36,0.12 0.48,0.18 -0.12,0.18 -0.24,0.36 -0.06,0.18 -0.3,0.12 -0.3,-0.06 -0.48,0.12 -0.18,0.12 -0.36,0.36 0.06,0.12 0.12,0.18 0.06,0.06 0.06,0.12 0.3,0.3 0,0.48 -0.12,0.06 -0.3,0.06 -0.12,0 -0.24,0.12 -0.12,0.24 -0.36,0.12 -0.24,-0.12 -0.42,0.12 -0.12,0.18 -0.3,0.36 -0.12,0.18 -0.36,0.3 -0.23999,0.24 -0.78,0.12 -0.12,-0.06 -0.18,-0.18 0,-0.06 -0.12,-0.06 -0.3,0 -0.42,-0.18 -0.12,-0.24 -0.3,-0.36 -0.18,-0.12 -0.42,-0.18 -0.18,-0.12 -0.42,-0.24 -0.18,-0.12 -0.36,-0.24 -0.12,-0.18 -0.23999,-0.3 -0.18001,-0.12 -0.30001,-0.24 -0.12,-0.12 -0.36,-0.18 -0.12,0 -0.24,-0.18 -0.12,-0.18 -0.24,-0.36 -0.12,-0.12 -0.18,-0.3 0,-0.24 -0.12,-0.42 -0.12,-0.18 -0.24,-0.36 -0.06,-0.18 0.24,-0.3 0,-0.3 0,-0.48 0,-0.24 0.3,-0.42 -0.06,-0.36 0.12,-0.54 0.24,-0.24 0.42,-0.36 0.18,-0.18 0.24,-0.36 0.06,-0.24 0.12,-0.54 0.06,-0.24 0.18,-0.42 0.12,-0.18 0.24,-0.36 0.06,-0.12 0.12,-0.18 0.06,-0.12 0.06,-0.3 0,-0.3 0.12,-0.42 0.3,-0.24 0.42,-0.66 0.12,-0.42 0.48,-0.66 0.18,-0.12 0.12001,-0.3 0,-0.24 0,-0.42 l 0.89999,-0.9 q 0,-0.48 0.24,-0.6 0.3,-0.18 0.48,-0.48 0.12,-0.24 0.12,-0.36 0,-0.12 0,-0.3 0.06,-0.24 0.24,-0.36 0.12,-0.12 0.24,-0.24 0.18,-0.12 0.18,-0.42 0,-0.12 0.12,-0.24 0.12,-0.18 0.18,-0.42 0.12,-0.24 0.24,-0.42 0.18,-0.24 0.3,-0.48 0.12,-0.24 0.18,-0.48 0.06,-0.3 0.18,-0.48 0.42,-0.42 0.6,-0.96 0.12,-0.3 0.24,-0.54 0.12,-0.24 0.36,-0.42 0.24,-0.12 0.24,-0.3 0,-0.24 -0.06,-0.9 -0.06,-0.3 0,-0.54 0.06,-0.3 -0.06,-0.66 -0.12,-0.06 -0.24,-0.06 -0.06,0 -0.17999,-0.06 0,-0.12 -0.12001,-0.24 v -1.14 q -0.12,0 -0.48,-0.12 -0.48,-0.42 -0.6,-1.2 -0.06,-0.3 -0.18,-0.42 -0.11999,-0.18 -0.11999,-0.36 -0.06,-0.3 -0.18001,-0.42 -0.12,-0.12 -0.24,-0.24 -0.18,-0.12 -0.24,-0.42 0,-0.3 -0.24,-0.42 l 0.24,-0.24 q -0.06,-0.06 -0.06,-0.06 0,-0.06 -0.06,-0.12 -0.24,-0.3 -0.54,-0.54 -0.24,-0.24 -0.54,-0.54 0,-0.24 0.06,-0.48 0.06,-0.24 -0.06,-0.36 -0.12,-0.3 -0.18,-0.48 -0.06,-0.18 -0.18,-0.36 -0.24,-0.3 -0.36,-0.66 -0.06,-0.36 -0.36,-0.66 -0.12,-0.12 0.06,-0.18 0.24,-0.06 0.12,-0.24 -0.12,-0.12 -0.23999,-0.36 0,-0.48 -0.18001,-0.72 -0.12,-0.24 -0.24,-0.42 -0.12,-0.24 -0.12,-0.48 0.06,-0.36 -0.12,-0.54 -0.18,-0.24 -0.24,-0.54 -0.06,-0.18 -0.24,-0.36 -0.12,-0.18 -0.24,-0.48 -0.06,-0.06 0,-0.12 0.12,-0.06 0.24,-0.18 -0.12,-0.12 -0.12,-0.12 -0.18,-0.06 -0.42,-0.12 -0.18,-0.06 -0.12,-0.36 0.06,-0.12 0,-0.3 0,-0.18 0,-0.3 -0.12,-0.18 -0.24,-0.3 -0.12,-0.18 -0.24,-0.3 0.18,-0.3 0.12,-0.42 -0.12,-0.18 -0.24,-0.36 -0.12,-0.18 -0.24,-0.48 -0.06,-0.24 -0.06,-0.48 0.06,-0.24 0.06,-0.54 V 59.5 q 0.12,-0.24 0.36,-0.36 0.3,-0.18 0.54,-0.3 0.24001,-0.12 0.36,-0.06 0.18,0 0.36,-0.06 0.3,0 0.48,0 0.24,0 0.42,-0.3 h 0.84 q 0.12,0.18 0.18,0.36 0.06,0.18 0.18,0.24 0.42001,0.12 0.84,-0.18 0.3,-0.36 0.48,0.36 0,0 0.12,0.12 h 1.08 q 0.24,0.3 0.42,0.54 0.24,0.18 0.36,0.36 h 0.72 q 0.3,0.3 0.36,0.66 0.06,0.3 0.48,0.36 0.24,0 0.24,0.18 0,0.12 0,0.24 0.06,0.6 0.6,0.3 0.06,-0.06 0.06,-0.06 0.06,0 0.12,-0.06 0.12,0.24 0.12,0.3 -0.12,0.12 -0.12,0.3 -0.18,0.24 0.12,0.3 h 0.3 v 0.12 q 0,0.06 0.06,0.12 0.3,-0.06 0.42,0.18 0.18,0.18 0.48,0.18 0.18,0 0.18,0.3 -0.06,0.78 0.66,0.9 0.18,0.06 0.24,0.24 0.12,0.12 0.3,0.24 -0.12,0.12 -0.3,0.3 -0.12,0.18 -0.3,0.36 0.36,0.12 0.42,0.12 0.12,-0.06 0.12,-0.12 0.06,-0.12 0.18,-0.18 0.18,0 0.42,0.12 -0.06,0.06 -0.06,0.12 0,0 -0.06,0.06 -0.24,0.18 -0.06,0.48 0.12,0.18 0.3,0.3 0.36,0.42 0,0.78 l -0.36,0.36 q 0.12,0.12 0.12,0.12 h 1.14 q 0.12,0.24 0.24,0.42 0.12,0.18 0.18,0.42 0.12,0.48 0.54,0.72 0.18,-0.12 0.3,-0.24 0.18,-0.18 0.36,-0.36 0.18,-0.3 0.36,-0.48 0.24001,-0.18 0.30001,-0.54 0.06,-0.24 0.23999,-0.36 0.24,-0.12 0.3,-0.42 0.12,-0.42 0.42,-0.6 0.3,-0.24 0.42,-0.54 0.18,-0.3 0.3,-0.6 0.18,-0.36 0.48,-0.6 0.18,-0.18 0.24,-0.48 0.06,-0.3 0.3,-0.6 0.24001,-0.18 0.36,-0.42 0.12,-0.3 0.42,-0.54 0.18,-0.18 0.42,-0.36 0.24,-0.24 0.36,-0.54 0.12,-0.42 0.42,-0.66 0.3,-0.3 0.6,-0.66 0.24,-0.3 0.3,-0.54 0.06,-0.12 0.18,-0.24 0.18001,-0.12 0.3,-0.24 0.12,-0.12 0.3,-0.18 0.18,-0.06 0.3,-0.18 0.3,-0.12 0.54,-0.18 0.30001,-0.12 0.54,-0.42 0.42,0 0.84,0 0.42,0 0.78,0.06 0.24,0 0.24,0.06 0.18,0.3 0.42,0.24 0.3,-0.12 0.48001,0.06 0.11999,0.12 0.29999,0.18 0.18,0.06 0.3,0.18 0.12,0.18 0.36,0.18 0.24,-0.06 0.24,0.3 0,0.3 0.24001,0.3 0.29999,-0.06 0.41999,0.12 0.06,0.12 0.18,0.24 0.12,0.12 0.06,0.3 0,0.48 0.24,0.66 0.3,0.24 0.48,0.54 0.18001,0.3 0.36,0.66 0.24,0.48 0,0.78 -0.12,0.12 -0.12,0.24 0,0.12 -0.11999,0.3 -0.06,0.12 -0.24001,0.12 -0.12,0 -0.18,0.12 -0.12,0.18 -0.12,0.36 0,0.18 -0.06,0.42 -0.18,0 -0.36,0.06 -0.18,0 -0.48,0 0.12,0.18 0.18,0.3 0.06,0.12 0.18,0.24 -0.48,0.6 -0.78,0.96 -0.3,0.36 -0.72,0.6 -0.66,0.24 -0.6,1.02 0,0 -0.18,0.18 -0.06,-0.06 -0.06,-0.12 0,-0.06 -0.06,-0.18 -0.06,-0.06 -0.06,-0.12 v -0.12 q -0.24,-0.06 -0.24,0.24 0,0.24 -0.06,0.3 -0.18,0.12 -0.18,0.24 0.06,0.06 0.18,0.24 l -0.06,0.18 q -0.18,0 -0.36,0.06 -0.12,0 -0.06,0.3 0,0.12 -0.3,0.24 -0.18,0 -0.48,0.48 -0.24,0.42 -0.18,0.54 0.12,0.18 0.3,0.3 -0.3,0.18 -0.6,0.36 -0.24,0.12 -0.3,0.66 -0.06,0.18 -0.3,0.12 -0.18,-0.06 -0.36,0 -0.12,0 -0.12,0.18 0,0.12 0.12,0.12 h 0.12 q 0.12,0 0.24,0.12 -0.42,0.48 -0.6,0.6 -0.12,0.06 -0.78,0.36 0.06,0.12 0.12001,0.18 0.06,0 0.11999,0.12 -0.17999,0.12 -0.42,0.24 -0.24,0.06 -0.18,0.36 -0.12,0.06 -0.18,0.06 -0.12,0 -0.18,0.06 0,0 -0.06,0 -0.06,0 -0.06,0.12 0,0.06 -0.06,0.06 0.36,0.24 0.06,0.48 -0.12,0.12 -0.18,0.36 0,0.24 -0.24,0.42 -0.12,0.12 -0.17999,0.3 0,0.12 -0.12001,0.3 -0.12,0.18 -0.36,0.24 -0.18,0 -0.36,0.18 -0.12,0.18 0,0.24 0.12,0.06 0.18,0.18 -0.12,0.12 -0.3,0.18 -0.12,0 -0.3,0.12 l 0.12,0.12 q 0.3,0.18 0.18,0.48 -0.12,0.3 0.12,0.42 0.6,0.18 0.72,0.54 -0.06,0 -0.12,0.06 -0.06,0.06 -0.12,0 -0.3,0 -0.3,0.36 0,0.12 0.06,0.18 0.06,0.06 0.12,0.18 l 0.18,-0.18 q 0.36,0.24 0.42,0.36 0.06,0.06 0.12,0.54 0.36,0.42 0.72,0.78 0.36,0.36 0.72,0.72 v 0.96 q -0.11999,0.06 -0.3,0.18 -0.12,0.06 -0.24,0.12 0.12,0.12 0.3,0.18 0.18,0.06 0.3,0.18 0.24,0.18 0.36,0.06 0.18,-0.12 0.36,-0.24 0.24,0.36 -0.18,0.78 0.42,0.36 0.78001,0.78 0.35999,0.36 0.71999,0.78 0.36,0.36 0.06,0.96 -0.24,0.66 0.24,0.66 0.12,0.06 0.3,0.06 0.24,0 0.24,0.12 0,0.24 0.06,0.36 0.12,0.12 0.24,0.24 -0.36,0.24 0,0.6 0.12,0.12 0,0.36 -0.06,0.24 0.18,0.36 0.18,0.06 0.3,0.18 0.18,0.12 0.3,0.12 0.30001,0 0.48,0.18 0.18,0.18 0.3,0.42 0.18,0.3 0.3,0.6 0.18,0.24 0.42,0.48 -0.06,0 -0.06,0.06 -0.06,0.12 -0.06,0.12 0,0.06 -0.06,0.06 0,0 0,0.06 v 0.12 q 0.12,0.12 0.24,0.12 0.18,0 0.24001,0.12 0.11999,0.12 0.11999,0.24 0,0.12 0.18,0.24 0.24,0.12 0.3,0.36 0.06,0.24 0.12,0.54 0.06,0.3 0.18,0.6 0.12,0.24 0.42,0.42 0.18001,0.18 0.18001,0.42 0.06,0.18 0.06,0.36 0,0.12 -0.12001,0.42 -0.06,0.24 -0.18,0.36 z m -5.75999,-7.62 h 0.17999 v -0.12 q -0.17999,-0.18 -0.3,-0.06 l 0.06,0.06 q 0.12001,0.12 0.24,0.12 -0.11999,0.3 0.18,0.3 0.24,0.06 0.66,0.06 0.06,0.24 0.54,0.54 0.12,-0.42 0,-0.48 -0.06,-0.06 -0.54,-0.06 0.12,-0.36 -0.18,-0.36 -0.18,-0.06 -0.36,0 -0.18,0 -0.47999,0 z m -10.44001,-18.3 h 0.3 q 0.3,0 0.3,-0.3 0,-0.3 -0.24,-0.36 -0.36,0 -0.36,0.36 0,0.24 -0.24,0.3 h -0.42 q 0,0 -0.18,0.18 0.06,0.06 0.12,0.06 0.18,0.06 0.54,0.06 0.18,0 0.18,-0.18 0.06,-0.18 -0.06,-0.12 -0.06,0.06 0.06,0 z m -1.44,-3.9 q -0.3,-0.24 -0.54,0 -0.12,0 0,0.12 0.12,0.12 0.24,0.12 0.18001,0 0.24001,-0.12 0.06,-0.06 0.06,-0.12 z m -0.3,-0.78 q -0.06,-0.06 -0.06,-0.06 0,-0.06 -0.06,-0.12 0,0.06 -0.06,0.06 -0.06,0 -0.06,0.06 0,0.06 0.06,0.12 0.06,0 0.06,0.06 z m 1.02,1.26 q 0.06,0 0.06,-0.06 0.06,-0.06 0.12,-0.06 -0.12,-0.12 -0.12,-0.12 -0.06,0 -0.18,0.12 0.06,0 0.06,0.06 0,0.06 0.06,0.06 z m -0.54,0.66 q -0.12,0.12 -0.18,0.12 l 0.12,0.12 q 0.06,-0.06 0.06,-0.06 0.06,0 0.12,-0.06 z m 2.4,2.04 q -0.06,-0.06 -0.06,-0.06 0,-0.06 -0.06,-0.12 l -0.06,0.06 q 0,0.06 0,0.12 0.06,0 0.06,0.06 0.06,0 0.06,0 0,-0.06 0.06,-0.06 z m 7.56,2.88 -0.06,0.06 q 0,0.06 0,0.12 0.06,0 0.06,0.12 l 0.12,-0.12 q 0,-0.06 -0.12,-0.18 z m 0.36,12.24 q -0.06,0 -0.18,0.12 l 0.06,0.06 q 0.06,0 0.06,0 0.06,-0.06 0.17999,-0.06 z m 1.44001,2.34 q 0.06,-0.12 0.11999,-0.18 -0.06,0 -0.11999,0 0,-0.06 -0.12001,-0.06 l -0.06,0.06 q 0.06,0.06 0.06,0.06 0.06,0 0.12001,0.12 z m -13.44001,4.14 q -0.11999,-0.12 -0.11999,-0.12 -0.06,0.06 -0.06,0.12 0,0 -0.06,0.06 0,0 0.12001,0.12 0,-0.06 0.11999,-0.18 z m -0.9,1.56 q 0,-0.06 -0.12,-0.18 0,0.06 -0.06,0.06 0,0 0,0.06 0,0.06 0,0.12 0.06,0 0.06,0.06 0.12,0 0.12,-0.12 z m 17.88,2.28 q 0,-0.06 0,-0.06 0.06,0 0.06,-0.12 -0.06,0 -0.12,0 0,-0.06 -0.06,-0.06 l -0.06,0.06 q 0.06,0.12 0.06,0.12 0.06,0 0.12,0.06 z m -0.96,-6.06 q -0.24,-0.24 -0.36,-0.48 0.06,0 0.06,-0.06 0,-0.12 0.06,-0.12 0.3,0 0.36,0.12 0.06,0.06 0,0.18 0,0.12 0,0.24 z m 3.66,7.5 q 0,0.18 -0.48,0.06 -0.06,0 -0.06,-0.06 V 96.4 q -0.12,-0.24 0.12,-0.12 0.12001,0 0.18001,0.06 0.06,0 0.17999,0 0.06,0 0.06,0.18 z m -19.79999,-34.08 0.11999,0.12 q -0.06,0.06 -0.06,0.12 0,0 -0.06,0.06 h -0.12001 q -0.12,-0.12 0,-0.12 0,-0.06 0.12001,-0.18 z" />
      <path
         id="path26"
         style="font-family:'Silka Black';letter-spacing:0.075em"
         d="m 222.37375,100 h 11.52 V 67.9 h 11.34 V 58 h -34.14 v 9.9 h 11.28 z" />
      <path
         id="path28"
         style="font-family:'Silka Black';letter-spacing:0.075em"
         d="m 254.54219,100 h 28.38 v -9.78 h -16.86 V 83.8 h 13.74 v -9.72 h -13.74 v -6.36 h 16.26 V 58 h -27.78 z" />
      <path
         id="path30"
         style="font-family:'Silka Black';letter-spacing:0.075em"
         d="m 292.79219,100 h 11.1 V 78.16 h 0.36 l 7.86,21.84 h 8.52 l 7.02,-20.46 h 0.36 V 100 h 11.1 V 58 h -14.52 l -7.74,24.96 h -0.36 l -9.18,-24.96 h -14.52 z" />
      <path
         id="path32"
         style="font-family:'Silka Black';letter-spacing:0.075em"
         d="m 350.26094,100 h 11.52 V 87.46 h 5.28 c 8.4,0 15.42,-6.3 15.42,-14.82 0,-8.58 -6.78,-14.64 -15.42,-14.64 h -16.8 z m 11.52,-22.26 V 67.72 h 4.08 c 2.76,0 4.92,1.8 4.92,4.92 0,3.18 -2.16,5.1 -4.92,5.1 z" />
      <path
         id="path34"
         style="font-family:'Silka Black';letter-spacing:0.075em"
         d="m 412.86063,100.78 c 12.89999,0 22.55999,-9.48 22.55999,-21.78 0,-12.24 -9.6,-21.78 -22.55999,-21.78 -12.96001,0 -22.62,9.42 -22.62,21.78 0,12.42 9.59999,21.78 22.62,21.78 z m 0,-11.1 c -6.36,0 -10.62,-4.62 -10.62,-10.68 0,-5.94 4.26,-10.68 10.62,-10.68 6.23999,0 10.55999,4.74 10.55999,10.68 0,6.06 -4.32,10.68 -10.55999,10.68 z" />
      <path
         id="path36"
         style="font-family:'Silka Black';letter-spacing:0.075em"
         d="m 445.27656,100 h 11.52 V 87.22 h 4.08 l 6.24,12.78 h 12.66 l -8.52,-15.18 c 4.08,-2.58 6.84,-6.96 6.84,-12.3 0,-8.58 -6.78,-14.52 -15.42,-14.52 h -17.4 z m 11.52,-22.5 v -9.78 h 4.68 c 2.76,0 4.92,1.68 4.92,4.8 0,3.18 -2.16,4.98 -4.92,4.98 z" />
      <path
         id="path38"
         style="font-family:'Silka Black';letter-spacing:0.075em"
         d="m 486.33438,100 h 11.69999 l 1.92001,-6.36 h 14.27999 l 1.92,6.36 h 12.30001 l -13.74,-42 h -14.94 z m 16.62,-16.56 3.83999,-12.9 h 0.60001 l 3.83999,12.9 z" />
      <path
         id="path40"
         style="font-family:'Silka Black';letter-spacing:0.075em"
         d="m 536.89375,100 h 11.1 V 76.66 h 0.36 l 13.56,23.34 h 12.9 V 58 h -11.1 v 23.34 h -0.36 L 549.79375,58 h -12.9 z" />
      <path
         id="path42"
         style="font-family:'Silka Black';letter-spacing:0.075em"
         d="m 585.925,100 h 28.38 v -9.78 h -16.86 V 83.8 h 13.74 v -9.72 h -13.74 v -6.36 h 16.26 V 58 h -27.78 z" />
      <path
         id="path44"
         style="font-family:'Silka Black';letter-spacing:0.075em"
         d="m 621.475,100 h 11.7 l 1.92,-6.36 h 14.28 l 1.92,6.36 h 12.3 l -13.74,-42 h -14.94 z m 16.62,-16.56 3.84,-12.9 h 0.6 l 3.84,12.9 z" />
    </g>
  </g>
</svg>
