<?xml version="1.0" encoding="UTF-8" standalone="no"?>
<svg
   xmlns:dc="http://purl.org/dc/elements/1.1/"
   xmlns:cc="http://creativecommons.org/ns#"
   xmlns:rdf="http://www.w3.org/1999/02/22-rdf-syntax-ns#"
   xmlns:svg="http://www.w3.org/2000/svg"
   xmlns="http://www.w3.org/2000/svg"
   id="svg16"
   width="800px"
   version="1.1"
   height="200px">
  <metadata
     id="metadata20">
    <rdf:RDF>
      <cc:Work
         rdf:about="">
        <dc:format>image/svg+xml</dc:format>
        <dc:type
           rdf:resource="http://purl.org/dc/dcmitype/StillImage" />
      </cc:Work>
    </rdf:RDF>
  </metadata>
  <defs
     id="defs4">
    <style
       id="style2"
       type="text/css"><![CDATA[    
     @font-face {font-family:Silka Bold;
     src: url('/Users/francesco/Repos/write-logos/src/fonts/Fonts_E_TEMPORANEA/Silka-Bold.otf');}
     @font-face {font-family:Chakie;
     src: url('/Users/francesco/Repos/write-logos/src/fonts/Fonts_X/Chakie.ttf');}
     ]]></style>
  </defs>
  <g
     id="g14"
     style="font-size:60px">
    <g
       style="text-anchor:middle"
       id="text12"
       aria-label="EXTEMPORANEA">
      <path
         id="path22"
         style="font-family:'Silka Bold';letter-spacing:0.075em"
         d="m 141.48766,100 h 27.24 v -8.16 h -17.76 V 82.9 h 14.58 v -8.1 h -14.58 v -8.7 h 17.1 V 58 h -26.58 z" />
      <path
         id="path24"
         style="font-family:Chakie;letter-spacing:0.05em"
         d="m 205.71766,96.28 q -0.12,0 -0.24,0.06 -0.12,0 -0.18,-0.06 -0.3,-0.36 -0.66,0 -0.12,0.06 -0.48,0.06 0.18,0.3 0.36,0.42 0.18,0.12 0.3,0.3 0.06,0.06 -0.06,0.36 -0.12,0 -0.18,0 0,-0.06 -0.06,-0.06 l -0.12,-0.12 q -0.42,-0.12 -0.48,0.12 -0.06,0.12 0,0.3 0.12,0.12 0.24,0.12 0.36,0 0.3,0.24 0,0.24 0.06,0.54 V 98.5 q -0.12,-0.24 -0.12,0 -0.24,0.12 -0.06,0.24 l 0.06,-0.06 q 0,0 0.12,-0.12 0.24,0.06 0.3,0.24 0.12,0.12 0,0.18 -0.6,0.18 -0.96,0.66 -0.12,0.06 -0.12,0.06 -0.3,0.06 -0.6,0 -0.24,-0.12 -0.48,0.24 h -0.12 q -0.12,-0.42 -0.48,-0.3 -0.3,0.12 -0.48,-0.18 -0.06,-0.18 -0.24,0 -0.42,0.48 -0.9,0.06 -0.06,0 -0.06,0 0,-0.06 -0.06,-0.06 -0.06,0 -0.06,-0.06 -0.18,0.18 -0.36,0.3 -0.18,0.06 -0.36,-0.24 -0.18,-0.18 -0.42,-0.06 -0.24,0.06 -0.36,-0.12 -0.18,-0.24 -0.42,-0.24 -0.18,0 -0.36,0 -0.36,0.12 -0.6,0 -0.24,-0.18 -0.48,-0.3 -0.36,-0.12 -0.78,-0.3 -0.36,-0.24 -0.66,-0.54 -0.36,-0.3 -0.78,-0.48 -0.42,-0.24 -0.72,-0.6 -0.24,-0.3 -0.42,-0.66 -0.12,-0.42 -0.48,-0.6 0.12,-0.24 -0.06,-0.36 -0.18,-0.12 -0.18,-0.3 0,-0.3 -0.18,-0.42 -0.18,-0.18 -0.3,-0.36 -0.12,-0.12 -0.24,-0.24 -0.12,-0.12 -0.24,-0.24 -0.24,-0.3 -0.36,-0.6 -0.06,-0.3 -0.36,-0.48 -0.18,-0.18 -0.06,-0.42 0,-0.18 -0.18,-0.3 -0.12,-0.18 -0.24,-0.3 -0.12,-0.18 -0.36,-0.12 -0.18,0.06 -0.18,-0.24 0,-0.18 -0.12,-0.24 -0.12,-0.12 -0.12,-0.3 -0.12,-0.66 -0.6,-0.84 -0.42,-0.24 -0.9,-0.54 l -0.24,0.12 q 0.06,0.06 0.06,0.12 0,0 0.06,0.06 v 0.12 q 0,0.06 0.06,0.06 -0.06,0.12 -0.18,0.24 -0.12,0.12 -0.3,0.18 -0.18,0.06 -0.36,0.18 v 0.12 q -0.18,0.3 -0.3,0.6 -0.06,0.3 -0.3,0.54 0.12,0.48 -0.12,0.72 -0.18,0.18 -0.42,0.42 -0.12,0.12 -0.3,0.3 -0.12,0.18 -0.3,0.36 -0.12,0.12 -0.3,0.18 -0.12,0 -0.24,0.12 0,0.12 0.12,0.18 0.12,0 0,0.24 -0.12,0.3 -0.36,0.66 -0.18,0.36 -0.12,0.72 0.06,0.12 -0.3,0.24 -0.12,0.06 -0.3,0.18 -0.18,0.06 -0.3,0.18 0.12,0.12 0.18,0.24 0.06,0.06 0.18,0.18 -0.3,0.12 -0.54,0.24 -0.24,0.06 -0.36,0.36 0.36,0.12 0.48,0.18 -0.12,0.18 -0.24,0.36 -0.06,0.18 -0.3,0.12 -0.3,-0.06 -0.48,0.12 -0.18,0.12 -0.36,0.36 0.06,0.12 0.12,0.18 0.06,0.06 0.06,0.12 0.3,0.3 0,0.48 -0.12,0.06 -0.3,0.06 -0.12,0 -0.24,0.12 -0.12,0.24 -0.36,0.12 -0.24,-0.12 -0.42,0.12 -0.12,0.18 -0.3,0.36 -0.12,0.18 -0.36,0.3 -0.24,0.24 -0.78,0.12 -0.12,-0.06 -0.18,-0.18 0,-0.06 -0.12,-0.06 -0.3,0 -0.42,-0.18 -0.12,-0.24 -0.3,-0.36 -0.18,-0.12 -0.42,-0.18 -0.18,-0.12 -0.42,-0.24 -0.18,-0.12 -0.36,-0.24 -0.12,-0.18 -0.24,-0.3 -0.18,-0.12 -0.3,-0.24 -0.12,-0.12 -0.36,-0.18 -0.12,0 -0.24,-0.18 -0.12,-0.18 -0.24,-0.36 -0.12,-0.12 -0.18,-0.3 0,-0.24 -0.12,-0.42 -0.12,-0.18 -0.24,-0.36 -0.06,-0.18 0.24,-0.3 0,-0.3 0,-0.48 0,-0.24 0.3,-0.42 -0.06,-0.36 0.12,-0.54 0.24,-0.24 0.42,-0.36 0.18,-0.18 0.24,-0.36 0.06,-0.24 0.12,-0.54 0.06,-0.24 0.18,-0.42 0.12,-0.18 0.24,-0.36 0.06,-0.12 0.12,-0.18 0.06,-0.12 0.06,-0.3 0,-0.3 0.12,-0.42 0.3,-0.24 0.42,-0.66 0.12,-0.42 0.48,-0.66 0.18,-0.12 0.12,-0.3 0,-0.24 0,-0.42 l 0.9,-0.9 q 0,-0.48 0.24,-0.6 0.3,-0.18 0.48,-0.48 0.12,-0.24 0.12,-0.36 0,-0.12 0,-0.3 0.06,-0.24 0.24,-0.36 0.12,-0.12 0.24,-0.24 0.18,-0.12 0.18,-0.42 0,-0.12 0.12,-0.24 0.12,-0.18 0.18,-0.42 0.12,-0.24 0.24,-0.42 0.18,-0.24 0.3,-0.48 0.12,-0.24 0.18,-0.48 0.06,-0.3 0.18,-0.48 0.42,-0.42 0.6,-0.96 0.12,-0.3 0.24,-0.54 0.12,-0.24 0.36,-0.42 0.24,-0.12 0.24,-0.3 0,-0.24 -0.06,-0.9 -0.06,-0.3 0,-0.54 0.06,-0.3 -0.06,-0.66 -0.12,-0.06 -0.24,-0.06 -0.06,0 -0.18,-0.06 0,-0.12 -0.12,-0.24 v -1.14 q -0.12,0 -0.48,-0.12 -0.48,-0.42 -0.6,-1.2 -0.06,-0.3 -0.18,-0.42 -0.12,-0.18 -0.12,-0.36 -0.06,-0.3 -0.18,-0.42 -0.12,-0.12 -0.24,-0.24 -0.18,-0.12 -0.24,-0.42 0,-0.3 -0.24,-0.42 l 0.24,-0.24 q -0.06,-0.06 -0.06,-0.06 0,-0.06 -0.06,-0.12 -0.24,-0.3 -0.54,-0.54 -0.24,-0.24 -0.54,-0.54 0,-0.24 0.06,-0.48 0.06,-0.24 -0.06,-0.36 -0.12,-0.3 -0.18,-0.48 -0.06,-0.18 -0.18,-0.36 -0.24,-0.3 -0.36,-0.66 -0.06,-0.36 -0.36,-0.66 -0.12,-0.12 0.06,-0.18 0.24,-0.06 0.12,-0.24 -0.12,-0.12 -0.24,-0.36 0,-0.48 -0.18,-0.72 -0.12,-0.24 -0.24,-0.42 -0.12,-0.24 -0.12,-0.48 0.06,-0.36 -0.12,-0.54 -0.18,-0.24 -0.24,-0.54 -0.06,-0.18 -0.24,-0.36 -0.12,-0.18 -0.24,-0.48 -0.06,-0.06 0,-0.12 0.12,-0.06 0.24,-0.18 -0.12,-0.12 -0.12,-0.12 -0.18,-0.06 -0.42,-0.12 -0.18,-0.06 -0.12,-0.36 0.06,-0.12 0,-0.3 0,-0.18 0,-0.3 -0.12,-0.18 -0.24,-0.3 -0.12,-0.18 -0.24,-0.3 0.18,-0.3 0.12,-0.42 -0.12,-0.18 -0.24,-0.36 -0.12,-0.18 -0.24,-0.48 -0.06,-0.24 -0.06,-0.48 0.06,-0.24 0.06,-0.54 V 59.5 q 0.12,-0.24 0.36,-0.36 0.3,-0.18 0.54,-0.3 0.24,-0.12 0.36,-0.06 0.18,0 0.36,-0.06 0.3,0 0.48,0 0.24,0 0.42,-0.3 h 0.84 q 0.12,0.18 0.18,0.36 0.06,0.18 0.18,0.24 0.42,0.12 0.84,-0.18 0.3,-0.36 0.48,0.36 0,0 0.12,0.12 h 1.08 q 0.24,0.3 0.42,0.54 0.24,0.18 0.36,0.36 h 0.72 q 0.3,0.3 0.36,0.66 0.06,0.3 0.48,0.36 0.24,0 0.24,0.18 0,0.12 0,0.24 0.06,0.6 0.6,0.3 0.06,-0.06 0.06,-0.06 0.06,0 0.12,-0.06 0.12,0.24 0.12,0.3 -0.12,0.12 -0.12,0.3 -0.18,0.24 0.12,0.3 h 0.3 v 0.12 q 0,0.06 0.06,0.12 0.3,-0.06 0.42,0.18 0.18,0.18 0.48,0.18 0.18,0 0.18,0.3 -0.06,0.78 0.66,0.9 0.18,0.06 0.24,0.24 0.12,0.12 0.3,0.24 -0.12,0.12 -0.3,0.3 -0.12,0.18 -0.3,0.36 0.36,0.12 0.42,0.12 0.12,-0.06 0.12,-0.12 0.06,-0.12 0.18,-0.18 0.18,0 0.42,0.12 -0.06,0.06 -0.06,0.12 0,0 -0.06,0.06 -0.24,0.18 -0.06,0.48 0.12,0.18 0.3,0.3 0.36,0.42 0,0.78 l -0.36,0.36 q 0.12,0.12 0.12,0.12 h 1.14 q 0.12,0.24 0.24,0.42 0.12,0.18 0.18,0.42 0.12,0.48 0.54,0.72 0.18,-0.12 0.3,-0.24 0.18,-0.18 0.36,-0.36 0.18,-0.3 0.36,-0.48 0.24,-0.18 0.3,-0.54 0.06,-0.24 0.24,-0.36 0.24,-0.12 0.3,-0.42 0.12,-0.42 0.42,-0.6 0.3,-0.24 0.42,-0.54 0.18,-0.3 0.3,-0.6 0.18,-0.36 0.48,-0.6 0.18,-0.18 0.24,-0.48 0.06,-0.3 0.3,-0.6 0.24,-0.18 0.36,-0.42 0.12,-0.3 0.42,-0.54 0.18,-0.18 0.42,-0.36 0.24,-0.24 0.36,-0.54 0.12,-0.42 0.42,-0.66 0.3,-0.3 0.6,-0.66 0.24,-0.3 0.3,-0.54 0.06,-0.12 0.18,-0.24 0.18,-0.12 0.3,-0.24 0.12,-0.12 0.3,-0.18 0.18,-0.06 0.3,-0.18 0.3,-0.12 0.54,-0.18 0.3,-0.12 0.54,-0.42 0.42,0 0.84,0 0.42,0 0.78,0.06 0.24,0 0.24,0.06 0.18,0.3 0.42,0.24 0.3,-0.12 0.48,0.06 0.12,0.12 0.3,0.18 0.18,0.06 0.3,0.18 0.12,0.18 0.36,0.18 0.24,-0.06 0.24,0.3 0,0.3 0.24,0.3 0.3,-0.06 0.42,0.12 0.06,0.12 0.18,0.24 0.12,0.12 0.06,0.3 0,0.48 0.24,0.66 0.3,0.24 0.48,0.54 0.18,0.3 0.36,0.66 0.24,0.48 0,0.78 -0.12,0.12 -0.12,0.24 0,0.12 -0.12,0.3 -0.06,0.12 -0.24,0.12 -0.12,0 -0.18,0.12 -0.12,0.18 -0.12,0.36 0,0.18 -0.06,0.42 -0.18,0 -0.36,0.06 -0.18,0 -0.48,0 0.12,0.18 0.18,0.3 0.06,0.12 0.18,0.24 -0.48,0.6 -0.78,0.96 -0.3,0.36 -0.72,0.6 -0.66,0.24 -0.6,1.02 0,0 -0.18,0.18 -0.06,-0.06 -0.06,-0.12 0,-0.06 -0.06,-0.18 -0.06,-0.06 -0.06,-0.12 v -0.12 q -0.24,-0.06 -0.24,0.24 0,0.24 -0.06,0.3 -0.18,0.12 -0.18,0.24 0.06,0.06 0.18,0.24 l -0.06,0.18 q -0.18,0 -0.36,0.06 -0.12,0 -0.06,0.3 0,0.12 -0.3,0.24 -0.18,0 -0.48,0.48 -0.24,0.42 -0.18,0.54 0.12,0.18 0.3,0.3 -0.3,0.18 -0.6,0.36 -0.24,0.12 -0.3,0.66 -0.06,0.18 -0.3,0.12 -0.18,-0.06 -0.36,0 -0.12,0 -0.12,0.18 0,0.12 0.12,0.12 h 0.12 q 0.12,0 0.24,0.12 -0.42,0.48 -0.6,0.6 -0.12,0.06 -0.78,0.36 0.06,0.12 0.12,0.18 0.06,0 0.12,0.12 -0.18,0.12 -0.42,0.24 -0.24,0.06 -0.18,0.36 -0.12,0.06 -0.18,0.06 -0.12,0 -0.18,0.06 0,0 -0.06,0 -0.06,0 -0.06,0.12 0,0.06 -0.06,0.06 0.36,0.24 0.06,0.48 -0.12,0.12 -0.18,0.36 0,0.24 -0.24,0.42 -0.12,0.12 -0.18,0.3 0,0.12 -0.12,0.3 -0.12,0.18 -0.36,0.24 -0.18,0 -0.36,0.18 -0.12,0.18 0,0.24 0.12,0.06 0.18,0.18 -0.12,0.12 -0.3,0.18 -0.12,0 -0.3,0.12 l 0.12,0.12 q 0.3,0.18 0.18,0.48 -0.12,0.3 0.12,0.42 0.6,0.18 0.72,0.54 -0.06,0 -0.12,0.06 -0.06,0.06 -0.12,0 -0.3,0 -0.3,0.36 0,0.12 0.06,0.18 0.06,0.06 0.12,0.18 l 0.18,-0.18 q 0.36,0.24 0.42,0.36 0.06,0.06 0.12,0.54 0.36,0.42 0.72,0.78 0.36,0.36 0.72,0.72 v 0.96 q -0.12,0.06 -0.3,0.18 -0.12,0.06 -0.24,0.12 0.12,0.12 0.3,0.18 0.18,0.06 0.3,0.18 0.24,0.18 0.36,0.06 0.18,-0.12 0.36,-0.24 0.24,0.36 -0.18,0.78 0.42,0.36 0.78,0.78 0.36,0.36 0.72,0.78 0.36,0.36 0.06,0.96 -0.24,0.66 0.24,0.66 0.12,0.06 0.3,0.06 0.24,0 0.24,0.12 0,0.24 0.06,0.36 0.12,0.12 0.24,0.24 -0.36,0.24 0,0.6 0.12,0.12 0,0.36 -0.06,0.24 0.18,0.36 0.18,0.06 0.3,0.18 0.18,0.12 0.3,0.12 0.3,0 0.48,0.18 0.18,0.18 0.3,0.42 0.18,0.3 0.3,0.6 0.18,0.24 0.42,0.48 -0.06,0 -0.06,0.06 -0.06,0.12 -0.06,0.12 0,0.06 -0.06,0.06 0,0 0,0.06 v 0.12 q 0.12,0.12 0.24,0.12 0.18,0 0.24,0.12 0.12,0.12 0.12,0.24 0,0.12 0.18,0.24 0.24,0.12 0.3,0.36 0.06,0.24 0.12,0.54 0.06,0.3 0.18,0.6 0.12,0.24 0.42,0.42 0.18,0.18 0.18,0.42 0.06,0.18 0.06,0.36 0,0.12 -0.12,0.42 -0.06,0.24 -0.18,0.36 z m -5.76,-7.62 h 0.18 v -0.12 q -0.18,-0.18 -0.3,-0.06 l 0.06,0.06 q 0.12,0.12 0.24,0.12 -0.12,0.3 0.18,0.3 0.24,0.06 0.66,0.06 0.06,0.24 0.54,0.54 0.12,-0.42 0,-0.48 -0.06,-0.06 -0.54,-0.06 0.12,-0.36 -0.18,-0.36 -0.18,-0.06 -0.36,0 -0.18,0 -0.48,0 z m -10.44,-18.3 h 0.3 q 0.3,0 0.3,-0.3 0,-0.3 -0.24,-0.36 -0.36,0 -0.36,0.36 0,0.24 -0.24,0.3 h -0.42 q 0,0 -0.18,0.18 0.06,0.06 0.12,0.06 0.18,0.06 0.54,0.06 0.18,0 0.18,-0.18 0.06,-0.18 -0.06,-0.12 -0.06,0.06 0.06,0 z m -1.44,-3.9 q -0.3,-0.24 -0.54,0 -0.12,0 0,0.12 0.12,0.12 0.24,0.12 0.18,0 0.24,-0.12 0.06,-0.06 0.06,-0.12 z m -0.3,-0.78 q -0.06,-0.06 -0.06,-0.06 0,-0.06 -0.06,-0.12 0,0.06 -0.06,0.06 -0.06,0 -0.06,0.06 0,0.06 0.06,0.12 0.06,0 0.06,0.06 z m 1.02,1.26 q 0.06,0 0.06,-0.06 0.06,-0.06 0.12,-0.06 -0.12,-0.12 -0.12,-0.12 -0.06,0 -0.18,0.12 0.06,0 0.06,0.06 0,0.06 0.06,0.06 z m -0.54,0.66 q -0.12,0.12 -0.18,0.12 l 0.12,0.12 q 0.06,-0.06 0.06,-0.06 0.06,0 0.12,-0.06 z m 2.4,2.04 q -0.06,-0.06 -0.06,-0.06 0,-0.06 -0.06,-0.12 l -0.06,0.06 q 0,0.06 0,0.12 0.06,0 0.06,0.06 0.06,0 0.06,0 0,-0.06 0.06,-0.06 z m 7.56,2.88 -0.06,0.06 q 0,0.06 0,0.12 0.06,0 0.06,0.12 l 0.12,-0.12 q 0,-0.06 -0.12,-0.18 z m 0.36,12.24 q -0.06,0 -0.18,0.12 l 0.06,0.06 q 0.06,0 0.06,0 0.06,-0.06 0.18,-0.06 z m 1.44,2.34 q 0.06,-0.12 0.12,-0.18 -0.06,0 -0.12,0 0,-0.06 -0.12,-0.06 l -0.06,0.06 q 0.06,0.06 0.06,0.06 0.06,0 0.12,0.12 z m -13.44,4.14 q -0.12,-0.12 -0.12,-0.12 -0.06,0.06 -0.06,0.12 0,0 -0.06,0.06 0,0 0.12,0.12 0,-0.06 0.12,-0.18 z m -0.9,1.56 q 0,-0.06 -0.12,-0.18 0,0.06 -0.06,0.06 0,0 0,0.06 0,0.06 0,0.12 0.06,0 0.06,0.06 0.12,0 0.12,-0.12 z m 17.88,2.28 q 0,-0.06 0,-0.06 0.06,0 0.06,-0.12 -0.06,0 -0.12,0 0,-0.06 -0.06,-0.06 l -0.06,0.06 q 0.06,0.12 0.06,0.12 0.06,0 0.12,0.06 z m -0.96,-6.06 q -0.24,-0.24 -0.36,-0.48 0.06,0 0.06,-0.06 0,-0.12 0.06,-0.12 0.3,0 0.36,0.12 0.06,0.06 0,0.18 0,0.12 0,0.24 z m 3.66,7.5 q 0,0.18 -0.48,0.06 -0.06,0 -0.06,-0.06 V 96.4 q -0.12,-0.24 0.12,-0.12 0.12,0 0.18,0.06 0.06,0 0.18,0 0.06,0 0.06,0.18 z m -19.8,-34.08 0.12,0.12 q -0.06,0.06 -0.06,0.12 0,0 -0.06,0.06 h -0.12 q -0.12,-0.12 0,-0.12 0,-0.06 0.12,-0.18 z" />
      <path
         id="path26"
         style="font-family:'Silka Bold';letter-spacing:0.075em"
         d="m 224.49578,100 h 9.54 V 66.22 h 11.76 V 58 h -33 v 8.22 h 11.7 z" />
      <path
         id="path28"
         style="font-family:'Silka Bold';letter-spacing:0.075em"
         d="m 256.02672,100 h 27.24 v -8.16 h -17.76 V 82.9 h 14.58 v -8.1 h -14.58 v -8.7 h 17.1 V 58 h -26.58 z" />
      <path
         id="path30"
         style="font-family:'Silka Bold';letter-spacing:0.075em"
         d="m 294.27672,100 h 9.12 V 75.28 h 0.36 l 9.72,24.72 h 7.62 l 8.76,-23.76 h 0.36 V 100 h 9.18 V 58 h -11.76 l -9.96,28.5 h -0.36 l -11.34,-28.5 h -11.7 z" />
      <path
         id="path32"
         style="font-family:'Silka Bold';letter-spacing:0.075em"
         d="m 352.09703,100 h 9.48 V 86.2 h 6.78 c 8.1,0 14.64,-5.94 14.64,-14.16 0,-8.28 -6.3,-14.04 -14.64,-14.04 h -16.26 z m 9.48,-21.84 V 66.1 h 5.82 c 3.42,0 5.94,2.28 5.94,5.94 0,3.66 -2.52,6.12 -5.94,6.12 z" />
      <path
         id="path34"
         style="font-family:'Silka Bold';letter-spacing:0.075em"
         d="m 413.73953,100.78 c 12.78,0 22.32,-9.48 22.32,-21.78 0,-12.24 -9.48,-21.78 -22.32,-21.78 -12.84,0 -22.32,9.42 -22.32,21.78 0,12.42 9.42,21.78 22.32,21.78 z m 0,-9.12 c -7.32,0 -12.48,-5.4 -12.48,-12.66 0,-7.14 5.16,-12.66 12.48,-12.66 7.26,0 12.42,5.52 12.42,12.66 0,7.26 -5.16,12.66 -12.42,12.66 z" />
      <path
         id="path36"
         style="font-family:'Silka Bold';letter-spacing:0.075em"
         d="m 446.99547,100 h 9.48 V 85.96 h 5.64 l 7.14,14.04 h 10.56 l -8.94,-15.9 c 4.26,-2.16 7.44,-6.6 7.44,-12.24 0,-8.22 -6.3,-13.86 -14.88,-13.86 h -16.44 z m 9.48,-22.14 V 66.1 h 6 c 3.72,0 6.12,2.28 6.12,5.76 0,3.9 -2.58,6 -6,6 z" />
      <path
         id="path38"
         style="font-family:'Silka Bold';letter-spacing:0.075em"
         d="m 486.92453,100 h 9.72 l 2.46,-7.44 h 16.08 l 2.52,7.44 h 10.08 l -14.46,-42 h -12.12 z m 14.76,-15.9 5.22,-15.66 h 0.54 l 5.16,15.66 z" />
      <path
         id="path40"
         style="font-family:'Silka Bold';letter-spacing:0.075em"
         d="m 537.20641,100 h 9.18 V 73.6 h 0.36 l 16.02,26.4 h 10.56 V 58 h -9.18 v 26.4 h -0.36 l -16.08,-26.4 h -10.5 z" />
      <path
         id="path42"
         style="font-family:'Silka Bold';letter-spacing:0.075em"
         d="m 586.12047,100 h 27.24 v -8.16 h -17.76 V 82.9 h 14.58 v -8.1 h -14.58 v -8.7 h 17.1 V 58 h -26.58 z" />
      <path
         id="path44"
         style="font-family:'Silka Bold';letter-spacing:0.075em"
         d="m 621.01047,100 h 9.72 l 2.46,-7.44 h 16.08 l 2.52,7.44 h 10.08 l -14.46,-42 h -12.12 z m 14.76,-15.9 5.22,-15.66 h 0.54 l 5.16,15.66 z" />
    </g>
  </g>
</svg>
