<?xml version="1.0" encoding="UTF-8" standalone="no"?>
<svg
   xmlns:dc="http://purl.org/dc/elements/1.1/"
   xmlns:cc="http://creativecommons.org/ns#"
   xmlns:rdf="http://www.w3.org/1999/02/22-rdf-syntax-ns#"
   xmlns:svg="http://www.w3.org/2000/svg"
   xmlns="http://www.w3.org/2000/svg"
   id="svg16"
   width="800px"
   version="1.1"
   height="200px">
  <metadata
     id="metadata20">
    <rdf:RDF>
      <cc:Work
         rdf:about="">
        <dc:format>image/svg+xml</dc:format>
        <dc:type
           rdf:resource="http://purl.org/dc/dcmitype/StillImage" />
      </cc:Work>
    </rdf:RDF>
  </metadata>
  <defs
     id="defs4">
    <style
       id="style2"
       type="text/css"><![CDATA[    
     @font-face {font-family:Silka;
     src: url('/Users/francesco/Repos/write-logos/src/fonts/Fonts_E_TEMPORANEA/Silka-Regular.otf');}
     @font-face {font-family:Westpart;
     src: url('/Users/francesco/Repos/write-logos/src/fonts/Fonts_X/WestpartDemo.otf');}
     ]]></style>
  </defs>
  <g
     id="g14"
     style="font-size:60px">
    <g
       style="text-anchor:middle"
       id="text12"
       aria-label="EXTEMPORANEA">
      <path
         id="path22"
         style="font-family:Silka;letter-spacing:0.075em"
         d="m 145.16406,100 h 24.6 v -4.38 h -19.74 V 80.8 h 16.44 v -4.38 h -16.44 V 62.44 h 19.08 V 58 h -23.94 z" />
      <path
         id="path24"
         style="font-family:Westpart;letter-spacing:0.05em"
         d="m 177.29687,103.96 c 0,0 0,0 0,0 0,0 0,0 0,0 z m 34.5,-47.94 c -0.24,-0.18 -0.48,-0.3 -0.66,-0.48 -0.41999,0.06 -0.84,0.12 -1.26,0.12 -1.14,0.48 -1.98,1.32 -2.88,2.04 -0.42,0.84 -1.2,1.32 -1.8,1.92 -1.02,1.14 -2.22,2.04 -3,3.36 -0.42,0.72 -1.02,1.26 -1.44,1.98 -0.59999,1.02 -1.38,1.86 -2.04,2.88 -0.54,0.78 -1.26,1.44 -1.62,2.34 -0.06,0.18 -0.3,0.36 -0.42,0.48 -0.18,0.18 -0.36,0.36 -0.48,0.6 -0.53999,0.9 -1.2,1.74 -1.86,2.64 -0.24,0.36 -0.54,0.72 -0.84,1.08 0,0.06 -0.12,0.06 -0.3,0.06 0.54,-1.26 1.38,-2.34 2.22,-3.36 0.18,-0.54 0.48,-1.08 0.9,-1.5 0.42,-0.48 0.84001,-0.9 0.90001,-1.56 0.71999,-0.6 1.25999,-1.38 1.73999,-2.16 0.24,-0.48 0.66,-0.96 0.96,-1.38 0.18,-0.24 0.42,-0.42 0.54,-0.66 0.54,-0.78 1.14,-1.5 1.62,-2.28 0.36,-0.54 0.84,-1.08 1.14,-1.68 0.06,-0.06 0,-0.12 0.06,-0.36 -1.08,0.96 -2.04,1.74 -2.82,2.82 -0.48,0.66 -1.02,1.32 -1.62,1.92 -0.9,0.96 -1.74,1.92 -2.46,3 -0.18,0.24 -0.3,0.48 -0.54,0.66 -0.9,0.84 -1.44,2.04 -2.34,2.88 -0.24,0.3 -0.36,0.72 -0.66,0.96 -0.3,0.24 -0.54,0.66 -0.84,1.02 -0.24,-0.42 -0.42,-0.78 -0.72,-1.08 -0.24,-0.3 -0.42,-0.54 -0.6,-0.84 -0.36,-0.6 -0.78,-1.14 -1.2,-1.62 -0.12,-0.18 -0.3,-0.42 -0.6,-0.36 -0.06,0 -0.12,-0.12 -0.18,-0.12 0.06,-0.18 0.06,-0.36 0.12,-0.48 -0.72,-0.72 -1.2,-1.5 -1.68,-2.28 -0.36,-0.54 -0.84,-0.96 -1.44,-1.08 -1.02,-1.14 -2.1,-2.1 -3.24,-2.94 -0.54,-0.12 -0.96,0 -1.26,0.36 0,0.06 -0.06,0.12 -0.06,0.18 0,1.02 0.36,1.98 0.6,3 0.18,0.6 0.6,1.2 0.9,1.8 0.48,1.02 0.96,1.98 1.5,3.06 0.12,0.12 0.42,0.36 0.48,0.6 0.06,0.42 0.36,0.66 0.6,0.96 0.12,0.12 0.18,0.3 0.3,0.42 0.42,0.66 0.66,1.44 1.26,1.98 0.06,0.06 0.06,0.18 0.12,0.3 0.48,0.9 1.02,1.8 1.5,2.7 0.12,0.18 0.12,0.36 0.18,0.48 -0.06,0.24 -0.12,0.48 -0.18,0.66 -0.12,0.18 -0.23999,0.36 -0.36,0.48 -0.18,0.3 -0.42,0.54 -0.54,0.84 -0.42,0.84 -0.96,1.56 -1.5,2.28 -0.18,0.18 -0.36,0.42 -0.42,0.66 -0.48,1.02 -1.14,1.98 -1.68,2.94 -0.48,0.78 -1.02,1.5 -1.32,2.34 -0.12,0.3 -0.3,0.6 -0.41999,0.84 -0.42001,0.78 -0.84001,1.62 -1.26001,2.4 -0.3,0.72 -0.72,1.38 -0.96,2.16 -0.24,0.78 -0.72,1.44 -0.9,2.22 -0.06,0.36 -0.18,0.78 -0.42,1.08 -0.18,0.3 -0.12,0.66 -0.24,1.02 -0.12,0.12 -0.36,0.12 -0.3,0.36 0.24,0.12 0.48,0.24 0.72,0.3 -0.06,0.24 -0.12,0.48 -0.18,0.72 0,0.3 0,0.54 0,0.84 -0.24,0.12 -0.42,0.3 -0.6,0.42 -0.24,0.72 -0.3,1.44 -0.78,1.98 -0.18,0.24 -0.18,0.66 0.06,1.02 0.3,-0.24 0.6,-0.48 0.96,-0.66 0.06,-0.18 0.18,-0.36 0.18,-0.54 0.06,-0.18 0.06,-0.36 0.06,-0.54 0.3,-0.42 0.6,-0.78 0.84,-1.14 0.3,0 0.54,0 0.78,0 0,-0.66 0.48,-0.96 0.78,-1.14 0.3,-0.54 0.6,-0.9 0.84,-1.32 0.72,-1.38 1.62,-2.7 2.4,-4.02 0.54,-0.96 1.32,-1.8 1.68,-2.82 0.18,-0.3 0.48,-0.54 0.72,-0.78 0.84,-1.26 1.74,-2.52 2.58,-3.78 0.3,-0.48 0.54001,-0.9 0.96,-1.5 0.06,-0.12 0.36,-0.24 0.6,-0.48 0.18,-0.24 0.24,-0.54 0.54,-0.78 0.24,-0.18 0.36,-0.48 0.54,-0.66 0.24,0.36 0.54,0.66 0.72,1.08 0.6,1.14 1.2,2.34 1.8,3.48 0.12,0.18 0.18,0.42 0.3,0.54 0.42,0.42 0.6,0.9 0.9,1.38 0.24,0.48 0.48,1.08 0.84,1.44 0.66,0.72 1.32,1.5 2.16,2.04 0.48,0.36 0.84,0.78 1.26,1.2 0.06,0 0.12,0 0.24,0.06 0.18001,-0.18 0.36,-0.3 0.54,-0.48 0.24,0.12 0.42,0.24 0.6,0.3 0.18,0.3 0.36,0.54 0.48,0.84 0.36,0.18 0.72,0.3 1.02,0.48 0.3,-0.36 0.18,-0.72 0.18,-1.02 -0.06,-0.06 -0.06,-0.12 -0.12,-0.24 0,0 0.06,0 0.06,0 0,0.06 0.06,0.18 0.06,0.24 0.12,0 0.24,0.06 0.3,0.06 0.36,-0.54 0.42,-1.14 0.36,-1.62 -0.24,-0.66 -0.48,-1.14 -0.66,-1.68 -0.18,-0.6 -0.42,-1.14 -0.48,-1.74 -0.12,-0.48 -0.36,-0.84 -0.59999,-1.26 -0.36001,-0.78 -1.02001,-1.32 -1.26001,-2.16 -0.23999,-0.12 -0.42,-0.24 -0.6,-0.42 0,-0.78 -0.48,-1.38 -0.96,-2.04 0,-0.9 -1.02,-1.26 -1.08,-2.1 -0.24,-0.12 -0.36,-0.18 -0.48,-0.3 -0.3,-0.54 -0.48,-1.08 -0.84,-1.5 -0.42,-0.54 -0.78,-1.14 -1.08,-1.8 0.12,-0.24 0.24001,-0.54 0.42,-0.78 0.6,-0.84 1.32001,-1.68 1.92,-2.52 0.42,-0.54 0.72,-1.08 1.26,-1.5 0.24,-0.18 0.36,-0.48 0.54,-0.78 0.18,-0.24 0.3,-0.48 0.48,-0.72 0.3,-0.42 0.66,-0.78 1.02,-1.32 0.12,-0.06 0.36,-0.18 0.36,-0.18 0.6,-0.72 1.02,-1.2 1.44,-1.74 0.24,-0.36 0.54,-0.72 0.96,-1.26 0.06,-0.12 0.36,-0.42 0.6,-0.72 0.96,-1.02 1.56,-2.28 2.4,-3.36 0.24,-0.3 0.48,-0.6 0.66,-0.9 0.72,-1.44 1.68001,-2.7 2.7,-3.9 0.60001,-0.72 1.14,-1.44 1.62,-2.1 0,-0.3 0,-0.54 0,-0.78 z m -33,42.96 c 0,-0.12 0,-0.24 0.06,-0.48 0.18,0.24 0.06,0.36 -0.06,0.48 z m 1.92,-1.5 c -0.06,0.12 -0.06,0.18 -0.12,0.24 0,0 0,0 -0.06,0 0.06,-0.06 0.12001,-0.18 0.18,-0.24 0,0 0,-0.06 0,-0.06 0,0.06 0,0.06 0,0.06 z m 1.44001,-3.06 v -0.06 l 0.11999,0.06 z m 6.59999,-27.06 c 0.12,0.06 0.24,0.12 0.42,-0.12 -0.6,-0.78 -0.96,-1.68 -1.98,-2.34 0.06,0.24 0.06,0.36 0.06,0.36 0.54,0.72 1.02,1.38 1.5,2.1 z m -11.46,36.6 c -0.06,0 -0.06,0 -0.06,0.06 0,-0.06 0,-0.06 0.06,-0.06 z" />
      <path
         id="path26"
         style="font-family:Silka;letter-spacing:0.075em"
         d="m 230.79625,100 h 4.86 V 62.44 h 12.84 V 58 h -30.54 v 4.44 h 12.84 z" />
      <path
         id="path28"
         style="font-family:Silka;letter-spacing:0.075em"
         d="m 260.75781,100 h 24.6 v -4.38 h -19.74 V 80.8 h 16.44 v -4.38 h -16.44 V 62.44 h 19.08 V 58 h -23.94 z" />
      <path
         id="path30"
         style="font-family:Silka;letter-spacing:0.075em"
         d="m 298.89062,100 h 4.68 V 68.68 h 0.36001 L 317.91062,100 h 5.52001 l 12.77999,-31.32 h 0.36 V 100 h 4.68001 V 58 h -5.34001 l -15.06,36.66 h -0.35999 L 304.23062,58 h -5.34 z" />
      <path
         id="path32"
         style="font-family:Silka;letter-spacing:0.075em"
         d="m 357.76562,100 h 4.86001 V 83.38 h 10.19999 c 7.38,0 12.84,-5.22 12.84,-12.78 0,-7.62 -5.22,-12.6 -12.84,-12.6 h -15.06 z m 4.86001,-20.94 V 62.32 h 9.77999 c 5.04,0 8.28001,3.48 8.28001,8.28 0,4.86 -3.24001,8.46 -8.28001,8.46 z" />
      <path
         id="path34"
         style="font-family:Silka;letter-spacing:0.075em"
         d="m 417.25375,100.78 c 12.54,0 21.78,-9.42 21.78,-21.78 0,-12.24 -9.18,-21.78 -21.72,-21.78 -12.48,0 -21.72,9.42 -21.72,21.78 0,12.48 9.18,21.78 21.66,21.78 z m 0.06,-4.56 c -9.6,0 -16.68,-7.26 -16.68,-17.22 0,-9.84 7.08,-17.22 16.68,-17.22 9.6,0 16.68,7.38 16.68,17.22 0,9.96 -7.08,17.22 -16.68,17.22 z" />
      <path
         id="path36"
         style="font-family:Silka;letter-spacing:0.075em"
         d="m 452.54687,100 h 4.86001 V 83.02 h 9.18 l 9.29999,16.98 h 5.64001 l -9.84001,-17.46 c 4.74,-1.38 8.76,-5.94 8.76,-12.12 0,-7.38 -5.1,-12.42 -13.67999,-12.42 h -14.22001 z m 4.86001,-21.3 V 62.32 h 9.06 c 5.94,0 8.94,3.66 8.94,8.1 0,5.52 -3.72001,8.28 -8.64,8.28 z" />
      <path
         id="path38"
         style="font-family:Silka;letter-spacing:0.075em"
         d="m 489.98125,100 h 5.1 l 3.78,-9.96 h 20.28 l 3.78,9.96 h 5.1 l -16.14,-42 h -5.7 z m 10.56,-14.4 8.28,-21.96 h 0.36 l 8.28,21.96 z" />
      <path
         id="path40"
         style="font-family:Silka;letter-spacing:0.075em"
         d="m 539.71094,100 h 4.86 V 66.46 h 0.36 l 21.72,33.54 h 5.16 V 58 h -4.8 v 33.54 h -0.36 L 544.69094,58 h -4.98 z" />
      <path
         id="path42"
         style="font-family:Silka;letter-spacing:0.075em"
         d="m 588.27344,100 h 24.6 v -4.38 h -19.74 V 80.8 h 16.44 v -4.38 h -16.44 V 62.44 h 19.08 V 58 h -23.94 z" />
      <path
         id="path44"
         style="font-family:Silka;letter-spacing:0.075em"
         d="m 621.60625,100 h 5.1 l 3.78,-9.96 h 20.28 l 3.78,9.96 h 5.1 l -16.14,-42 h -5.7 z m 10.56,-14.4 8.28,-21.96 h 0.36 l 8.28,21.96 z" />
    </g>
  </g>
</svg>
