<?xml version="1.0" encoding="UTF-8" standalone="no"?>
<svg
   xmlns:dc="http://purl.org/dc/elements/1.1/"
   xmlns:cc="http://creativecommons.org/ns#"
   xmlns:rdf="http://www.w3.org/1999/02/22-rdf-syntax-ns#"
   xmlns:svg="http://www.w3.org/2000/svg"
   xmlns="http://www.w3.org/2000/svg"
   id="svg16"
   width="800px"
   version="1.1"
   height="200px">
  <metadata
     id="metadata20">
    <rdf:RDF>
      <cc:Work
         rdf:about="">
        <dc:format>image/svg+xml</dc:format>
        <dc:type
           rdf:resource="http://purl.org/dc/dcmitype/StillImage" />
      </cc:Work>
    </rdf:RDF>
  </metadata>
  <defs
     id="defs4">
    <style
       id="style2"
       type="text/css"><![CDATA[    
     @font-face {font-family:Silka Black;
     src: url('/Users/francesco/Repos/write-logos/src/fonts/Fonts_E_TEMPORANEA/Silka-Black.otf');}
     @font-face {font-family:Bungee Outline;
     src: url('/Users/francesco/Repos/write-logos/src/fonts/Fonts_X/BungeeOutline-Regular.ttf');}
     ]]></style>
  </defs>
  <g
     id="g14"
     style="font-size:60px">
    <g
       style="text-anchor:middle"
       id="text12"
       aria-label="EXTEMPORANEA">
      <path
         id="path22"
         style="font-family:'Silka Black';letter-spacing:0.075em"
         d="m 133.26484,100 h 28.38 v -9.78 h -16.86 V 83.8 h 13.74 v -9.72 h -13.74 v -6.36 h 16.26 V 58 h -27.78 z" />
      <path
         id="path24"
         style="font-family:'Bungee Outline';letter-spacing:0.05em"
         d="m 178.83484,91.9 v 2.7 h -0.6 v -2.7 q 0,-1.32 0.06,-2.46 0.12,-1.2 0.84,-2.16 l 7.2,-9.84 -7.2,-9.72 q -0.66,-0.96 -0.78,-2.1 -0.12,-1.2 -0.12,-2.52 v -0.9 h 0.6 v 0.9 q 0,1.26 0.12,2.4 0.12,1.14 0.72,1.98 l 7.2,9.72 h 7.14 l 6.96,-9.72 q 0.6,-0.84 0.72,-1.98 0.12,-1.14 0.12,-2.4 v -0.9 h 0.6 v 0.9 q 0,1.32 -0.12,2.52 -0.12,1.14 -0.78,2.1 l -7.08,9.84 7.08,9.72 q 0.66,0.96 0.78,2.16 0.12,1.14 0.12,2.46 v 2.7 h -0.6 v -2.7 q 0,-1.26 -0.12,-2.4 -0.12,-1.14 -0.72,-1.98 l -7.02,-9.72 h -7.2 l -7.08,9.72 q -0.6,0.78 -0.72,1.98 -0.12,1.14 -0.12,2.4 z m 6.42,5.94 V 91.9 q 0,-0.6 0.06,-1.26 0.06,-0.66 0.48,-1.26 l 2.7,-3.78 q 0.36,-0.54 0.66,-0.78 0.3,-0.24 0.78,-0.24 h 0.84 q 0.48,0 0.78,0.24 0.3,0.24 0.66,0.78 l 2.64,3.78 q 0.42,0.6 0.48,1.26 0.06,0.66 0.06,1.26 v 5.94 q 0,1.14 0.48,1.68 0.54,0.48 1.68,0.48 h 9.12 q 1.14,0 1.62,-0.48 0.54,-0.54 0.54,-1.68 v -6.42 q 0,-2.76 -0.48,-4.14 -0.42,-1.38 -1.8,-3.24 l -4.86,-6.48 4.86,-6.6 q 1.32,-1.86 1.8,-3.24 0.48,-1.38 0.48,-4.14 v -4.62 q 0,-1.14 -0.54,-1.62 -0.48,-0.54 -1.62,-0.54 h -9.12 q -1.14,0 -1.68,0.54 -0.48,0.48 -0.48,1.62 v 4.14 q 0,0.6 -0.06,1.26 -0.06,0.66 -0.48,1.26 l -2.7,3.78 q -0.36,0.48 -0.66,0.78 -0.3,0.24 -0.78,0.24 h -0.72 q -0.48,0 -0.84,-0.24 -0.3,-0.3 -0.6,-0.78 l -2.64,-3.78 q -0.42,-0.6 -0.48,-1.26 -0.06,-0.66 -0.06,-1.26 v -4.14 q 0,-1.14 -0.54,-1.62 -0.48,-0.54 -1.62,-0.54 h -9.24 q -1.14,0 -1.68,0.54 -0.48,0.48 -0.48,1.62 v 4.62 q 0,2.76 0.42,4.14 0.48,1.38 1.86,3.24 l 4.86,6.54 -4.86,6.54 q -1.32,1.86 -1.8,3.24 -0.48,1.38 -0.48,4.14 v 6.42 q 0,1.14 0.48,1.68 0.54,0.48 1.68,0.48 h 9.12 q 1.14,0 1.62,-0.48 0.54,-0.54 0.54,-1.68 z m -2.16,2.76 h -9.12 q -1.44,0 -2.1,-0.66 -0.66,-0.66 -0.66,-2.1 v -6.42 q 0,-2.94 0.48,-4.38 0.48,-1.44 1.92,-3.36 l 4.62,-6.18 -4.62,-6.18 q -1.44,-1.92 -1.92,-3.36 -0.48,-1.44 -0.48,-4.38 v -4.62 q 0,-1.44 0.66,-2.1 0.66,-0.66 2.1,-0.66 h 9.24 q 1.44,0 2.1,0.66 0.66,0.66 0.66,2.1 v 4.14 q 0,0.54 0,1.14 0.06,0.54 0.42,1.02 l 2.64,3.84 q 0.24,0.3 0.42,0.54 0.18,0.18 0.54,0.18 h 0.72 q 0.36,0 0.54,-0.24 0.18,-0.24 0.42,-0.54 l 2.7,-3.78 q 0.36,-0.48 0.36,-1.02 0.06,-0.6 0.06,-1.14 v -4.14 q 0,-1.44 0.66,-2.1 0.66,-0.66 2.1,-0.66 h 9.12 q 1.44,0 2.1,0.66 0.66,0.66 0.66,2.1 v 4.62 q 0,2.94 -0.48,4.38 -0.48,1.44 -1.92,3.36 l -4.62,6.24 4.62,6.12 q 1.44,1.92 1.92,3.36 0.48,1.44 0.48,4.38 v 6.42 q 0,1.44 -0.66,2.1 -0.66,0.66 -2.1,0.66 h -9.12 q -1.44,0 -2.1,-0.66 -0.66,-0.66 -0.66,-2.1 V 91.9 q 0,-0.54 -0.06,-1.08 0,-0.54 -0.36,-1.08 l -2.64,-3.78 q -0.24,-0.36 -0.42,-0.54 -0.18,-0.24 -0.54,-0.24 h -0.84 q -0.36,0 -0.54,0.24 -0.18,0.18 -0.42,0.54 l -2.7,3.78 q -0.36,0.54 -0.42,1.08 0,0.54 0,1.08 v 5.94 q 0,1.44 -0.66,2.1 -0.66,0.66 -2.1,0.66 z" />
      <path
         id="path26"
         style="font-family:'Silka Black';letter-spacing:0.075em"
         d="m 228.17453,100 h 11.52 V 67.9 h 11.34 V 58 h -34.14 v 9.9 h 11.28 z" />
      <path
         id="path28"
         style="font-family:'Silka Black';letter-spacing:0.075em"
         d="m 260.34297,100 h 28.38 v -9.78 h -16.86 V 83.8 h 13.74 v -9.72 h -13.74 v -6.36 h 16.26 V 58 h -27.78 z" />
      <path
         id="path30"
         style="font-family:'Silka Black';letter-spacing:0.075em"
         d="m 298.59297,100 h 11.1 V 78.16 h 0.36 l 7.86,21.84 h 8.52 l 7.02,-20.46 h 0.36 V 100 h 11.1 V 58 h -14.52 l -7.74,24.96 h -0.36 l -9.18,-24.96 h -14.52 z" />
      <path
         id="path32"
         style="font-family:'Silka Black';letter-spacing:0.075em"
         d="m 356.06172,100 h 11.52 V 87.46 h 5.28 c 8.4,0 15.42,-6.3 15.42,-14.82 0,-8.58 -6.78,-14.64 -15.42,-14.64 h -16.8 z m 11.52,-22.26 V 67.72 h 4.08 c 2.76,0 4.92,1.8 4.92,4.92 0,3.18 -2.16,5.1 -4.92,5.1 z" />
      <path
         id="path34"
         style="font-family:'Silka Black';letter-spacing:0.075em"
         d="m 418.66141,100.78 c 12.9,0 22.56,-9.48 22.56,-21.78 0,-12.24 -9.6,-21.78 -22.56,-21.78 -12.96,0 -22.62,9.42 -22.62,21.78 0,12.42 9.6,21.78 22.62,21.78 z m 0,-11.1 c -6.36,0 -10.62,-4.62 -10.62,-10.68 0,-5.94 4.26,-10.68 10.62,-10.68 6.24,0 10.56,4.74 10.56,10.68 0,6.06 -4.32,10.68 -10.56,10.68 z" />
      <path
         id="path36"
         style="font-family:'Silka Black';letter-spacing:0.075em"
         d="m 451.07734,100 h 11.52 V 87.22 h 4.08 l 6.24,12.78 h 12.66 l -8.52,-15.18 c 4.08,-2.58 6.84,-6.96 6.84,-12.3 0,-8.58 -6.78,-14.52 -15.42,-14.52 h -17.4 z m 11.52,-22.5 v -9.78 h 4.68 c 2.76,0 4.92,1.68 4.92,4.8 0,3.18 -2.16,4.98 -4.92,4.98 z" />
      <path
         id="path38"
         style="font-family:'Silka Black';letter-spacing:0.075em"
         d="m 492.13516,100 h 11.7 l 1.92,-6.36 h 14.28 l 1.92,6.36 h 12.3 l -13.74,-42 h -14.94 z m 16.62,-16.56 3.84,-12.9 h 0.6 l 3.84,12.9 z" />
      <path
         id="path40"
         style="font-family:'Silka Black';letter-spacing:0.075em"
         d="m 542.69453,100 h 11.1 V 76.66 h 0.36 l 13.56,23.34 h 12.9 V 58 h -11.1 v 23.34 h -0.36 L 555.59453,58 h -12.9 z" />
      <path
         id="path42"
         style="font-family:'Silka Black';letter-spacing:0.075em"
         d="m 591.72578,100 h 28.38 v -9.78 h -16.86 V 83.8 h 13.74 v -9.72 h -13.74 v -6.36 h 16.26 V 58 h -27.78 z" />
      <path
         id="path44"
         style="font-family:'Silka Black';letter-spacing:0.075em"
         d="m 627.27578,100 h 11.7 l 1.92,-6.36 h 14.28 l 1.92,6.36 h 12.3 l -13.74,-42 h -14.94 z m 16.62,-16.56 3.84,-12.9 h 0.6 l 3.84,12.9 z" />
    </g>
  </g>
</svg>
