<?xml version="1.0" encoding="UTF-8" standalone="no"?>
<svg
   xmlns:dc="http://purl.org/dc/elements/1.1/"
   xmlns:cc="http://creativecommons.org/ns#"
   xmlns:rdf="http://www.w3.org/1999/02/22-rdf-syntax-ns#"
   xmlns:svg="http://www.w3.org/2000/svg"
   xmlns="http://www.w3.org/2000/svg"
   id="svg16"
   width="800px"
   version="1.1"
   height="200px">
  <metadata
     id="metadata20">
    <rdf:RDF>
      <cc:Work
         rdf:about="">
        <dc:format>image/svg+xml</dc:format>
        <dc:type
           rdf:resource="http://purl.org/dc/dcmitype/StillImage" />
      </cc:Work>
    </rdf:RDF>
  </metadata>
  <defs
     id="defs4">
    <style
       id="style2"
       type="text/css"><![CDATA[    
     @font-face {font-family:Silka Black;
     src: url('/Users/francesco/Repos/write-logos/src/fonts/Fonts_E_TEMPORANEA/Silka-Black.otf');}
     @font-face {font-family:Rise From The Grave;
     src: url('/Users/francesco/Repos/write-logos/src/fonts/Fonts_X/RiseFro.ttf');}
     ]]></style>
  </defs>
  <g
     id="g14"
     style="font-size:60px">
    <g
       style="text-anchor:middle"
       id="text12"
       aria-label="EXTEMPORANEA">
      <path
         id="path22"
         style="font-family:'Silka Black';letter-spacing:0.075em"
         d="m 135.96016,100 h 28.38 v -9.78 h -16.86 V 83.8 h 13.74 v -9.72 h -13.74 v -6.36 h 16.26 V 58 h -27.78 z" />
      <path
         id="path24"
         style="font-family:'Rise From The Grave';letter-spacing:0.05em"
         d="m 188.43016,57.94 q 0,5.94 -3.3,5.94 -1.62,0 -2.58,-1.44 -0.9,-1.26 -0.9,-3.06 0,-1.8 1.38,-3 1.5,-1.2 3.42,-1.2 1.98,0 1.98,2.76 z m 21.72,0.12 q 0,0.96 -1.02,1.86 -0.66,0.6 -1.08,1.02 -0.36,0.42 -0.48,0.66 -0.24,0.36 -1.8,4.08 -0.9,2.16 -2.1,3.72 -0.6,0.54 -1.14,1.08 -0.54,0.54 -1.14,1.08 -1.14,1.14 -1.14,2.46 0,0.6 0.72,0.96 0.54,0.3 0.84,0.48 0.3,0.18 0.36,0.24 2.22,2.22 2.22,5.82 0,1.5 -0.72,3 -1.2,2.76 -1.26,2.82 -0.12,0.42 -0.3,0.78 -0.12,0.36 -0.24,0.78 -0.3,0.84 -1.02,0.84 -0.78,0 -1.26,-0.84 -0.24,-0.48 -0.42,-0.9 -0.18,-0.42 -0.36,-0.9 -0.36,-0.6 -0.72,-1.14 -0.36,-0.54 -0.72,-1.14 -0.72,-1.14 -0.72,-2.34 0,-1.08 0.96,-3.6 V 76.9 q -0.06,0 -0.3,-0.12 -0.24,-0.12 -0.3,-0.12 -1.5,0 -2.64,0.96 -0.12,0.12 -0.66,0.66 -0.54,0.54 -1.44,1.56 1.2,1.74 1.2,3 0,1.92 -1.56,4.02 -2.1,2.82 -2.52,3.84 -0.12,0.3 -1.26,4.14 -0.6,2.1 -1.92,3.6 -1.74,1.92 -4.14,2.52 -1.5,0.42 -5.04,0.42 h -3.36 q -0.6,-0.54 -1.14,-1.14 -0.6,-0.6 -0.6,-1.32 0,-2.04 1.86,-3.36 0.9,-0.66 1.86,-1.2 0.96,-0.54 1.86,-1.2 1.26,-0.9 2.16,-2.58 1.44,-2.58 1.74,-3 0.66,-1.02 1.32,-2.1 0.66,-1.08 1.32,-2.1 1.38,-2.22 3.36,-3.3 0.18,-0.12 0.84,-0.3 0.66,-0.18 1.8,-0.48 1.5,-0.36 1.5,-1.38 0,-0.24 -0.24,-0.48 -0.24,-0.24 -0.24,-0.54 v -2.88 q 0,-0.96 0.66,-1.98 1.2,-1.62 1.26,-1.86 1.2,-2.4 2.46,-4.38 1.32,-2.04 2.88,-3.6 0.78,-0.84 1.2,-2.34 0.24,-0.9 0.48,-1.5 0.24,-0.66 0.48,-1.02 0.6,-0.9 1.98,-1.38 0.66,-0.24 1.32,-0.42 0.66,-0.18 1.32,-0.36 0.18,-0.06 0.54,-0.3 0.36,-0.24 0.96,-0.66 0.78,-0.54 1.62,-0.54 1.92,0 1.92,1.98 z m -34.56,3.12 q 0,1.98 -1.68,1.98 -1.26,0 -1.26,-1.38 0,-0.66 0.6,-1.08 0.3,-0.24 0.54,-0.48 0.3,-0.24 0.6,-0.48 h 0.96 q 0.24,0.96 0.24,1.44 z m 36.06,35.82 q 0,3.9 -8.52,3.9 -2.52,0 -4.44,-1.38 -2.04,-1.5 -2.04,-3.84 0,-1.98 2.22,-2.76 1.08,-0.42 2.16,-0.72 1.08,-0.36 2.1,-0.78 0.72,-0.42 2.46,-2.22 1.26,-1.38 2.64,-1.38 2.16,0 2.16,2.88 v 3.18 q 0,0.66 0.6,1.5 0.66,1.02 0.66,1.62 z" />
      <path
         id="path26"
         style="font-family:'Silka Black';letter-spacing:0.075em"
         d="m 225.47922,100 h 11.52 V 67.9 h 11.34 V 58 h -34.14 v 9.9 h 11.28 z" />
      <path
         id="path28"
         style="font-family:'Silka Black';letter-spacing:0.075em"
         d="m 257.64766,100 h 28.38 v -9.78 h -16.86 V 83.8 h 13.74 v -9.72 h -13.74 v -6.36 h 16.26 V 58 h -27.78 z" />
      <path
         id="path30"
         style="font-family:'Silka Black';letter-spacing:0.075em"
         d="m 295.89766,100 h 11.1 V 78.16 h 0.36 l 7.86,21.84 h 8.52 l 7.02,-20.46 h 0.36 V 100 h 11.1 V 58 h -14.52 l -7.74,24.96 h -0.36 l -9.18,-24.96 h -14.52 z" />
      <path
         id="path32"
         style="font-family:'Silka Black';letter-spacing:0.075em"
         d="m 353.36641,100 h 11.52 V 87.46 h 5.28 c 8.4,0 15.42,-6.3 15.42,-14.82 0,-8.58 -6.78,-14.64 -15.42,-14.64 h -16.8 z m 11.52,-22.26 V 67.72 h 4.08 c 2.76,0 4.92,1.8 4.92,4.92 0,3.18 -2.16,5.1 -4.92,5.1 z" />
      <path
         id="path34"
         style="font-family:'Silka Black';letter-spacing:0.075em"
         d="m 415.96609,100.78 c 12.9,0 22.56,-9.48 22.56,-21.78 0,-12.24 -9.6,-21.78 -22.56,-21.78 -12.96,0 -22.62,9.42 -22.62,21.78 0,12.42 9.6,21.78 22.62,21.78 z m 0,-11.1 c -6.36,0 -10.62,-4.62 -10.62,-10.68 0,-5.94 4.26,-10.68 10.62,-10.68 6.24,0 10.56,4.74 10.56,10.68 0,6.06 -4.32,10.68 -10.56,10.68 z" />
      <path
         id="path36"
         style="font-family:'Silka Black';letter-spacing:0.075em"
         d="m 448.38203,100 h 11.52 V 87.22 h 4.08 l 6.24,12.78 h 12.66 l -8.52,-15.18 c 4.08,-2.58 6.84,-6.96 6.84,-12.3 0,-8.58 -6.78,-14.52 -15.42,-14.52 h -17.4 z m 11.52,-22.5 v -9.78 h 4.68 c 2.76,0 4.92,1.68 4.92,4.8 0,3.18 -2.16,4.98 -4.92,4.98 z" />
      <path
         id="path38"
         style="font-family:'Silka Black';letter-spacing:0.075em"
         d="m 489.43984,100 h 11.7 l 1.92,-6.36 h 14.28 l 1.92,6.36 h 12.3 l -13.74,-42 h -14.94 z m 16.62,-16.56 3.84,-12.9 h 0.6 l 3.84,12.9 z" />
      <path
         id="path40"
         style="font-family:'Silka Black';letter-spacing:0.075em"
         d="m 539.99922,100 h 11.1 V 76.66 h 0.36 l 13.56,23.34 h 12.9 V 58 h -11.1 v 23.34 h -0.36 L 552.89922,58 h -12.9 z" />
      <path
         id="path42"
         style="font-family:'Silka Black';letter-spacing:0.075em"
         d="m 589.03047,100 h 28.38 v -9.78 h -16.86 V 83.8 h 13.74 v -9.72 h -13.74 v -6.36 h 16.26 V 58 h -27.78 z" />
      <path
         id="path44"
         style="font-family:'Silka Black';letter-spacing:0.075em"
         d="m 624.58047,100 h 11.7 l 1.92,-6.36 h 14.28 l 1.92,6.36 h 12.3 l -13.74,-42 h -14.94 z m 16.62,-16.56 3.84,-12.9 h 0.6 l 3.84,12.9 z" />
    </g>
  </g>
</svg>
