<?xml version="1.0" encoding="UTF-8" standalone="no"?>
<svg
   xmlns:dc="http://purl.org/dc/elements/1.1/"
   xmlns:cc="http://creativecommons.org/ns#"
   xmlns:rdf="http://www.w3.org/1999/02/22-rdf-syntax-ns#"
   xmlns:svg="http://www.w3.org/2000/svg"
   xmlns="http://www.w3.org/2000/svg"
   id="svg16"
   width="800px"
   version="1.1"
   height="200px">
  <metadata
     id="metadata20">
    <rdf:RDF>
      <cc:Work
         rdf:about="">
        <dc:format>image/svg+xml</dc:format>
        <dc:type
           rdf:resource="http://purl.org/dc/dcmitype/StillImage" />
      </cc:Work>
    </rdf:RDF>
  </metadata>
  <defs
     id="defs4">
    <style
       id="style2"
       type="text/css"><![CDATA[    
     @font-face {font-family:Silka Black;
     src: url('/Users/francesco/Repos/write-logos/src/fonts/Fonts_E_TEMPORANEA/Silka-Black.otf');}
     @font-face {font-family:Oubli_CAP;
     src: url('/Users/francesco/Repos/write-logos/src/fonts/Fonts_X/Oubli_CAP.ttf');}
     ]]></style>
  </defs>
  <g
     id="g14"
     style="font-size:60px">
    <g
       style="text-anchor:middle"
       id="text12"
       aria-label="EXTEMPORANEA">
      <path
         id="path22"
         style="font-family:'Silka Black';letter-spacing:0.075em"
         d="m 133.79219,100 h 28.38 v -9.78 h -16.86 V 83.8 h 13.74 v -9.72 h -13.74 v -6.36 h 16.26 V 58 h -27.78 z" />
      <path
         id="path24"
         style="font-family:Oubli_CAP;letter-spacing:0.05em"
         d="m 196.57422,58.017578 2.46094,4.365234 h 3.57421 l -10.3125,16.113282 11.36719,17.138672 h -3.86719 l -9.52148,-14.882813 -0.0293,8.115234 L 197.39453,100 h 14.44336 l -14.32617,-21.5625 13.0957,-20.419922 z m -26.60156,0 13.0664,20.15625 L 168.74219,100 h 14.35547 l -2.40235,-4.365234 h -3.86719 L 188.25391,78.203125 178.0293,62.382812 h 3.63281 l 8.78906,14.0625 -0.0586,-8.320312 -6.29883,-10.107422 z" />
      <path
         id="path26"
         style="font-family:'Silka Black';letter-spacing:0.075em"
         d="m 227.64719,100 h 11.52 V 67.9 h 11.34 V 58 h -34.14 v 9.9 h 11.28 z" />
      <path
         id="path28"
         style="font-family:'Silka Black';letter-spacing:0.075em"
         d="m 259.81562,100 h 28.38 v -9.78 h -16.86 V 83.8 h 13.74 v -9.72 h -13.74 v -6.36 h 16.26 V 58 h -27.78 z" />
      <path
         id="path30"
         style="font-family:'Silka Black';letter-spacing:0.075em"
         d="m 298.06562,100 h 11.1 V 78.16 h 0.36 l 7.86,21.84 h 8.52 l 7.02001,-20.46 h 0.35999 V 100 h 11.1 V 58 h -14.51999 l -7.74,24.96 h -0.36001 l -9.18,-24.96 h -14.52 z" />
      <path
         id="path32"
         style="font-family:'Silka Black';letter-spacing:0.075em"
         d="m 355.53437,100 h 11.52 V 87.46 h 5.28001 c 8.39999,0 15.41999,-6.3 15.41999,-14.82 0,-8.58 -6.78,-14.64 -15.41999,-14.64 h -16.80001 z m 11.52,-22.26 V 67.72 h 4.08 c 2.76001,0 4.92,1.8 4.92,4.92 0,3.18 -2.15999,5.1 -4.92,5.1 z" />
      <path
         id="path34"
         style="font-family:'Silka Black';letter-spacing:0.075em"
         d="m 418.13406,100.78 c 12.9,0 22.56,-9.48 22.56,-21.78 0,-12.24 -9.6,-21.78 -22.56,-21.78 -12.96,0 -22.62,9.42 -22.62,21.78 0,12.42 9.6,21.78 22.62,21.78 z m 0,-11.1 c -6.36,0 -10.62,-4.62 -10.62,-10.68 0,-5.94 4.26,-10.68 10.62,-10.68 6.24,0 10.56,4.74 10.56,10.68 0,6.06 -4.32,10.68 -10.56,10.68 z" />
      <path
         id="path36"
         style="font-family:'Silka Black';letter-spacing:0.075em"
         d="m 450.55,100 h 11.52 V 87.22 h 4.08 l 6.24,12.78 h 12.66 l -8.52,-15.18 c 4.08,-2.58 6.84,-6.96 6.84,-12.3 0,-8.58 -6.78,-14.52 -15.42,-14.52 h -17.4 z m 11.52,-22.5 v -9.78 h 4.68 c 2.76,0 4.92,1.68 4.92,4.8 0,3.18 -2.16,4.98 -4.92,4.98 z" />
      <path
         id="path38"
         style="font-family:'Silka Black';letter-spacing:0.075em"
         d="m 491.60781,100 h 11.7 l 1.92,-6.36 h 14.28 l 1.92,6.36 h 12.3 l -13.74,-42 h -14.94 z m 16.62,-16.56 3.84,-12.9 h 0.6 l 3.84,12.9 z" />
      <path
         id="path40"
         style="font-family:'Silka Black';letter-spacing:0.075em"
         d="m 542.16719,100 h 11.1 V 76.66 h 0.36 l 13.56,23.34 h 12.9 V 58 h -11.1 v 23.34 h -0.36 L 555.06719,58 h -12.9 z" />
      <path
         id="path42"
         style="font-family:'Silka Black';letter-spacing:0.075em"
         d="m 591.19844,100 h 28.38 v -9.78 h -16.86 V 83.8 h 13.74 v -9.72 h -13.74 v -6.36 h 16.26 V 58 h -27.78 z" />
      <path
         id="path44"
         style="font-family:'Silka Black';letter-spacing:0.075em"
         d="m 626.74844,100 h 11.7 l 1.92,-6.36 h 14.28 l 1.92,6.36 h 12.3 l -13.74,-42 h -14.94 z m 16.62,-16.56 3.84,-12.9 h 0.6 l 3.84,12.9 z" />
    </g>
  </g>
</svg>
