<?xml version="1.0" encoding="UTF-8" standalone="no"?>
<svg
   xmlns:dc="http://purl.org/dc/elements/1.1/"
   xmlns:cc="http://creativecommons.org/ns#"
   xmlns:rdf="http://www.w3.org/1999/02/22-rdf-syntax-ns#"
   xmlns:svg="http://www.w3.org/2000/svg"
   xmlns="http://www.w3.org/2000/svg"
   id="svg16"
   width="800px"
   version="1.1"
   height="200px">
  <metadata
     id="metadata20">
    <rdf:RDF>
      <cc:Work
         rdf:about="">
        <dc:format>image/svg+xml</dc:format>
        <dc:type
           rdf:resource="http://purl.org/dc/dcmitype/StillImage" />
      </cc:Work>
    </rdf:RDF>
  </metadata>
  <defs
     id="defs4">
    <style
       id="style2"
       type="text/css"><![CDATA[    
     @font-face {font-family:Silka;
     src: url('/Users/francesco/Repos/write-logos/src/fonts/Fonts_E_TEMPORANEA/Silka-Regular.otf');}
     @font-face {font-family:Emblema One;
     src: url('/Users/francesco/Repos/write-logos/src/fonts/Fonts_X/EmblemaOne-Regular.ttf');}
     ]]></style>
  </defs>
  <g
     id="g14"
     style="font-size:60px">
    <g
       style="text-anchor:middle"
       id="text12"
       aria-label="EXTEMPORANEA">
      <path
         id="path22"
         style="font-family:Silka;letter-spacing:0.075em"
         d="m 143.05469,100 h 24.6 v -4.38 h -19.74 V 80.8 h 16.44 v -4.38 h -16.44 V 62.44 h 19.08 V 58 h -23.94 z" />
      <path
         id="path24"
         style="font-family:'Emblema One';letter-spacing:0.05em"
         d="m 194.37695,100 q -5.88867,-20.214844 -14.17968,-37.96875 0,-0.380859 0.9375,-1.142578 0.96679,-0.761719 1.64062,-0.761719 h 15 q 3.33984,11.425781 6.41602,19.746094 3.07617,8.291015 7.73437,18.193359 0,0.38086 -0.9375,1.171875 Q 210.05078,100 209.37695,100 Z m 11.39649,-21.123047 q 1.66992,-5.537109 1.66992,-9.609375 0,-1.933594 -0.35156,-3.398437 -0.35157,-1.494141 -1.23047,-3.837891 0,-0.380859 0.9375,-1.142578 0.96679,-0.761719 1.64062,-0.761719 h 9.34571 q -3.48633,5.332031 -5.71289,9.140625 -2.22657,3.808594 -3.75,7.617188 -0.17579,0.46875 -1.0254,1.230468 -0.8496,0.761719 -1.52343,0.761719 z m -19.33594,2.255859 q -1.66992,5.361329 -1.66992,9.052735 0,3.691406 1.58203,7.880859 0,0.38086 -0.9668,1.171875 Q 184.44531,100 183.77148,100 h -9.375 q 6.88477,-10.576172 9.46289,-16.933594 0.17579,-0.46875 1.0254,-1.201172 0.8789,-0.732422 1.55273,-0.732422 z" />
      <path
         id="path26"
         style="font-family:Silka;letter-spacing:0.075em"
         d="m 232.90562,100 h 4.86 V 62.44 h 12.84 V 58 h -30.54 v 4.44 h 12.84 z" />
      <path
         id="path28"
         style="font-family:Silka;letter-spacing:0.075em"
         d="m 262.86719,100 h 24.6 v -4.38 h -19.74 V 80.8 h 16.44 v -4.38 h -16.44 V 62.44 h 19.08 V 58 h -23.94 z" />
      <path
         id="path30"
         style="font-family:Silka;letter-spacing:0.075em"
         d="m 301,100 h 4.68 V 68.68 h 0.36 L 320.02,100 h 5.52 l 12.78,-31.32 h 0.36 V 100 h 4.68 V 58 h -5.34 L 322.96,94.66 H 322.6 L 306.34,58 H 301 Z" />
      <path
         id="path32"
         style="font-family:Silka;letter-spacing:0.075em"
         d="m 359.875,100 h 4.86 V 83.38 h 10.2 c 7.38,0 12.84,-5.22 12.84,-12.78 0,-7.62 -5.22,-12.6 -12.84,-12.6 h -15.06 z m 4.86,-20.94 V 62.32 h 9.78 c 5.04,0 8.28,3.48 8.28,8.28 0,4.86 -3.24,8.46 -8.28,8.46 z" />
      <path
         id="path34"
         style="font-family:Silka;letter-spacing:0.075em"
         d="m 419.36313,100.78 c 12.53999,0 21.77999,-9.42 21.77999,-21.78 0,-12.24 -9.18,-21.78 -21.71999,-21.78 -12.48001,0 -21.72001,9.42 -21.72001,21.78 0,12.48 9.18,21.78 21.66001,21.78 z m 0.06,-4.56 c -9.60001,0 -16.68,-7.26 -16.68,-17.22 0,-9.84 7.07999,-17.22 16.68,-17.22 9.59999,0 16.67999,7.38 16.67999,17.22 0,9.96 -7.08,17.22 -16.67999,17.22 z" />
      <path
         id="path36"
         style="font-family:Silka;letter-spacing:0.075em"
         d="m 454.65625,100 h 4.86 V 83.02 h 9.18 l 9.3,16.98 h 5.64 l -9.84,-17.46 c 4.74,-1.38 8.76,-5.94 8.76,-12.12 0,-7.38 -5.1,-12.42 -13.68,-12.42 h -14.22 z m 4.86,-21.3 V 62.32 h 9.06 c 5.94,0 8.94,3.66 8.94,8.1 0,5.52 -3.72,8.28 -8.64,8.28 z" />
      <path
         id="path38"
         style="font-family:Silka;letter-spacing:0.075em"
         d="m 492.09062,100 h 5.1 l 3.78,-9.96 h 20.28001 l 3.77999,9.96 h 5.1 L 513.99063,58 h -5.70001 z m 10.56,-14.4 8.28001,-21.96 h 0.35999 l 8.28,21.96 z" />
      <path
         id="path40"
         style="font-family:Silka;letter-spacing:0.075em"
         d="m 541.82031,100 h 4.86 V 66.46 h 0.36 l 21.72,33.54 h 5.16 V 58 h -4.8 v 33.54 h -0.36 L 546.80031,58 h -4.98 z" />
      <path
         id="path42"
         style="font-family:Silka;letter-spacing:0.075em"
         d="m 590.38281,100 h 24.6 v -4.38 h -19.74 V 80.8 h 16.44 v -4.38 h -16.44 V 62.44 h 19.08 V 58 h -23.94 z" />
      <path
         id="path44"
         style="font-family:Silka;letter-spacing:0.075em"
         d="m 623.71563,100 h 5.09999 l 3.78001,-9.96 h 20.28 l 3.77999,9.96 h 5.1 L 645.61563,58 h -5.70001 z m 10.55999,-14.4 8.28,-21.96 h 0.36 l 8.28,21.96 z" />
    </g>
  </g>
</svg>
