<?xml version="1.0" encoding="UTF-8" standalone="no"?>
<svg
   xmlns:dc="http://purl.org/dc/elements/1.1/"
   xmlns:cc="http://creativecommons.org/ns#"
   xmlns:rdf="http://www.w3.org/1999/02/22-rdf-syntax-ns#"
   xmlns:svg="http://www.w3.org/2000/svg"
   xmlns="http://www.w3.org/2000/svg"
   id="svg16"
   width="800px"
   version="1.1"
   height="200px">
  <metadata
     id="metadata20">
    <rdf:RDF>
      <cc:Work
         rdf:about="">
        <dc:format>image/svg+xml</dc:format>
        <dc:type
           rdf:resource="http://purl.org/dc/dcmitype/StillImage" />
      </cc:Work>
    </rdf:RDF>
  </metadata>
  <defs
     id="defs4">
    <style
       id="style2"
       type="text/css"><![CDATA[    
     @font-face {font-family:Silka;
     src: url('/Users/francesco/Repos/write-logos/src/fonts/Fonts_E_TEMPORANEA/Silka-Regular.otf');}
     @font-face {font-family:carbono;
     src: url('/Users/francesco/Repos/write-logos/src/fonts/Fonts_X/carbono_pw.ttf');}
     ]]></style>
  </defs>
  <g
     id="g14"
     style="font-size:60px">
    <g
       style="text-anchor:middle"
       id="text12"
       aria-label="EXTEMPORANEA">
      <path
         id="path22"
         style="font-family:Silka;letter-spacing:0.075em"
         d="m 144.69531,100 h 24.6 v -4.38 h -19.74 V 80.8 h 16.44 v -4.38 h -16.44 V 62.44 h 19.08 V 58 h -23.94 z" />
      <path
         id="path24"
         style="font-family:carbono;letter-spacing:0.05em"
         d="m 181.62812,60.4 11.04,17.52 -12,18.3 h 5.94 l 8.64,-14.46 8.64,14.46 h 5.94 l -12,-18.3 11.04,-17.52 h -5.4 l -8.22,13.74 -8.22,-13.74 z m 5.4,-3.78 q 0.78,0 1.8,0.6 1.02,0.6 1.44,1.26 l 4.98,8.28 q 1.2,-2.04 2.46,-4.14 1.32,-2.1 2.52,-4.14 0.42,-0.66 1.44,-1.26 1.02001,-0.6 1.8,-0.6 h 5.4 q 1.2,0 2.1,0.54 0.9,0.54 1.32,1.38 0.48,0.84 0.42,1.86 0,1.02 -0.66,2.04 l -9.78,15.48 q 2.7,4.14 5.34,8.1 2.70001,3.96 5.4,8.1 0.66,1.02 0.66,2.1 0.06,1.02 -0.41999,1.86 -0.42001,0.84 -1.32001,1.38 -0.84,0.54 -2.1,0.54 h -5.94 q -0.78,0 -1.8,-0.6 -1.02,-0.6 -1.44,-1.26 l -5.4,-9 q -1.38,2.22 -2.76,4.5 -1.32,2.28 -2.64,4.5 -0.42,0.66 -1.44,1.26 -1.02,0.6 -1.8,0.6 h -5.94 q -1.26,0 -2.16,-0.54 -0.9,-0.54 -1.38,-1.38 -0.42,-0.84 -0.36,-1.86 0.06,-1.08 0.72,-2.1 l 10.74,-16.2 q -2.4,-3.78 -4.92,-7.74 -2.46,-3.96 -4.86,-7.74 -0.66,-1.02 -0.72,-2.04 0,-1.02 0.42,-1.86 0.48,-0.84 1.38,-1.38 0.9,-0.54 2.1,-0.54 z" />
      <path
         id="path26"
         style="font-family:Silka;letter-spacing:0.075em"
         d="m 231.265,100 h 4.86 V 62.44 h 12.84 V 58 h -30.54 v 4.44 h 12.84 z" />
      <path
         id="path28"
         style="font-family:Silka;letter-spacing:0.075em"
         d="m 261.22656,100 h 24.6 v -4.38 h -19.74 V 80.8 h 16.44 v -4.38 h -16.44 V 62.44 h 19.08 V 58 h -23.94 z" />
      <path
         id="path30"
         style="font-family:Silka;letter-spacing:0.075em"
         d="m 299.35937,100 h 4.68 V 68.68 h 0.36001 L 318.37937,100 h 5.52001 l 12.77999,-31.32 h 0.36 V 100 h 4.68001 V 58 h -5.34001 l -15.06,36.66 h -0.35999 L 304.69937,58 h -5.34 z" />
      <path
         id="path32"
         style="font-family:Silka;letter-spacing:0.075em"
         d="m 358.23437,100 h 4.86001 V 83.38 h 10.19999 c 7.38,0 12.84,-5.22 12.84,-12.78 0,-7.62 -5.22,-12.6 -12.84,-12.6 h -15.06 z m 4.86001,-20.94 V 62.32 h 9.77999 c 5.04,0 8.28001,3.48 8.28001,8.28 0,4.86 -3.24001,8.46 -8.28001,8.46 z" />
      <path
         id="path34"
         style="font-family:Silka;letter-spacing:0.075em"
         d="m 417.7225,100.78 c 12.54,0 21.78,-9.42 21.78,-21.78 0,-12.24 -9.18,-21.78 -21.72,-21.78 -12.48,0 -21.72,9.42 -21.72,21.78 0,12.48 9.18,21.78 21.66,21.78 z m 0.06,-4.56 c -9.6,0 -16.68,-7.26 -16.68,-17.22 0,-9.84 7.08,-17.22 16.68,-17.22 9.6,0 16.68,7.38 16.68,17.22 0,9.96 -7.08,17.22 -16.68,17.22 z" />
      <path
         id="path36"
         style="font-family:Silka;letter-spacing:0.075em"
         d="m 453.01562,100 h 4.86001 V 83.02 h 9.18 l 9.29999,16.98 h 5.64001 l -9.84001,-17.46 c 4.74,-1.38 8.76,-5.94 8.76,-12.12 0,-7.38 -5.1,-12.42 -13.67999,-12.42 h -14.22001 z m 4.86001,-21.3 V 62.32 h 9.06 c 5.94,0 8.94,3.66 8.94,8.1 0,5.52 -3.72001,8.28 -8.64,8.28 z" />
      <path
         id="path38"
         style="font-family:Silka;letter-spacing:0.075em"
         d="m 490.45,100 h 5.1 l 3.78,-9.96 h 20.28 l 3.78,9.96 h 5.1 L 512.35,58 h -5.7 z m 10.56,-14.4 8.28,-21.96 h 0.36 l 8.28,21.96 z" />
      <path
         id="path40"
         style="font-family:Silka;letter-spacing:0.075em"
         d="m 540.17969,100 h 4.86 V 66.46 h 0.36 l 21.72,33.54 h 5.16 V 58 h -4.8 v 33.54 h -0.36 L 545.15969,58 h -4.98 z" />
      <path
         id="path42"
         style="font-family:Silka;letter-spacing:0.075em"
         d="m 588.74219,100 h 24.6 v -4.38 h -19.74 V 80.8 h 16.44 v -4.38 h -16.44 V 62.44 h 19.08 V 58 h -23.94 z" />
      <path
         id="path44"
         style="font-family:Silka;letter-spacing:0.075em"
         d="m 622.075,100 h 5.1 l 3.78,-9.96 h 20.28 l 3.78,9.96 h 5.1 l -16.14,-42 h -5.7 z m 10.56,-14.4 8.28,-21.96 h 0.36 l 8.28,21.96 z" />
    </g>
  </g>
</svg>
