<?xml version="1.0" encoding="UTF-8" standalone="no"?>
<svg
   xmlns:dc="http://purl.org/dc/elements/1.1/"
   xmlns:cc="http://creativecommons.org/ns#"
   xmlns:rdf="http://www.w3.org/1999/02/22-rdf-syntax-ns#"
   xmlns:svg="http://www.w3.org/2000/svg"
   xmlns="http://www.w3.org/2000/svg"
   id="svg16"
   width="800px"
   version="1.1"
   height="200px">
  <metadata
     id="metadata20">
    <rdf:RDF>
      <cc:Work
         rdf:about="">
        <dc:format>image/svg+xml</dc:format>
        <dc:type
           rdf:resource="http://purl.org/dc/dcmitype/StillImage" />
      </cc:Work>
    </rdf:RDF>
  </metadata>
  <defs
     id="defs4">
    <style
       id="style2"
       type="text/css"><![CDATA[    
     @font-face {font-family:Silka Bold;
     src: url('/Users/francesco/Repos/write-logos/src/fonts/Fonts_E_TEMPORANEA/Silka-Bold.otf');}
     @font-face {font-family:___Devastation;
     src: url('/Users/francesco/Repos/write-logos/src/fonts/Fonts_X/Devastation.ttf');}
     ]]></style>
  </defs>
  <g
     id="g14"
     style="font-size:60px">
    <g
       style="text-anchor:middle"
       id="text12"
       aria-label="EXTEMPORANEA">
      <path
         id="path22"
         style="font-family:'Silka Bold';letter-spacing:0.075em"
         d="m 137.21031,100 h 27.24 v -8.16 h -17.76 V 82.9 h 14.58 v -8.1 h -14.58 v -8.7 h 17.1 V 58 h -26.58 z" />
      <path
         id="path24"
         style="font-family:'___Devastation';letter-spacing:0.05em"
         d="m 175.09961,56.259766 h 6.35742 l 10.86914,16.259765 10.92774,-16.259765 h 6.35742 l -14.0625,21.005859 15,22.734375 h -6.35742 L 191.88672,81.396484 179.49414,100 h -6.38672 l 15.61524,-23.349609 z" />
      <path
         id="path26"
         style="font-family:'Silka Bold';letter-spacing:0.075em"
         d="m 228.77312,100 h 9.54001 V 66.22 h 11.75999 V 58 h -33 v 8.22 h 11.7 z" />
      <path
         id="path28"
         style="font-family:'Silka Bold';letter-spacing:0.075em"
         d="m 260.30406,100 h 27.24 v -8.16 h -17.76 V 82.9 h 14.58 v -8.1 h -14.58 v -8.7 h 17.1 V 58 h -26.58 z" />
      <path
         id="path30"
         style="font-family:'Silka Bold';letter-spacing:0.075em"
         d="m 298.55406,100 h 9.12 V 75.28 h 0.36 l 9.72,24.72 h 7.62 l 8.76,-23.76 h 0.36 V 100 h 9.18 V 58 h -11.76 l -9.96,28.5 h -0.36 l -11.34,-28.5 h -11.7 z" />
      <path
         id="path32"
         style="font-family:'Silka Bold';letter-spacing:0.075em"
         d="m 356.37437,100 h 9.48 V 86.2 h 6.78 c 8.1,0 14.64001,-5.94 14.64001,-14.16 0,-8.28 -6.30001,-14.04 -14.64001,-14.04 h -16.26 z m 9.48,-21.84 V 66.1 h 5.82 c 3.42001,0 5.94,2.28 5.94,5.94 0,3.66 -2.51999,6.12 -5.94,6.12 z" />
      <path
         id="path34"
         style="font-family:'Silka Bold';letter-spacing:0.075em"
         d="m 418.01688,100.78 c 12.77999,0 22.32,-9.48 22.32,-21.78 0,-12.24 -9.48001,-21.78 -22.32,-21.78 -12.84001,0 -22.32001,9.42 -22.32001,21.78 0,12.42 9.42,21.78 22.32001,21.78 z m 0,-9.12 c -7.32001,0 -12.48001,-5.4 -12.48001,-12.66 0,-7.14 5.16,-12.66 12.48001,-12.66 7.26,0 12.41999,5.52 12.41999,12.66 0,7.26 -5.15999,12.66 -12.41999,12.66 z" />
      <path
         id="path36"
         style="font-family:'Silka Bold';letter-spacing:0.075em"
         d="m 451.27281,100 h 9.48 V 85.96 h 5.64 l 7.14,14.04 h 10.56 l -8.94,-15.9 c 4.26,-2.16 7.44,-6.6 7.44,-12.24 0,-8.22 -6.3,-13.86 -14.88,-13.86 h -16.44 z m 9.48,-22.14 V 66.1 h 6 c 3.72,0 6.12,2.28 6.12,5.76 0,3.9 -2.58,6 -6,6 z" />
      <path
         id="path38"
         style="font-family:'Silka Bold';letter-spacing:0.075em"
         d="m 491.20187,100 h 9.72 l 2.46,-7.44 h 16.08 l 2.52,7.44 h 10.08 l -14.46,-42 h -12.12 z m 14.76001,-15.9 5.21999,-15.66 h 0.54 l 5.16001,15.66 z" />
      <path
         id="path40"
         style="font-family:'Silka Bold';letter-spacing:0.075em"
         d="m 541.48375,100 h 9.18 V 73.6 h 0.36 l 16.02,26.4 h 10.56 V 58 h -9.18 v 26.4 h -0.36 l -16.08,-26.4 h -10.5 z" />
      <path
         id="path42"
         style="font-family:'Silka Bold';letter-spacing:0.075em"
         d="m 590.39781,100 h 27.24 v -8.16 h -17.76 V 82.9 h 14.58 v -8.1 h -14.58 v -8.7 h 17.1 V 58 h -26.58 z" />
      <path
         id="path44"
         style="font-family:'Silka Bold';letter-spacing:0.075em"
         d="m 625.28781,100 h 9.72 l 2.46,-7.44 h 16.08 l 2.52,7.44 h 10.08 l -14.46,-42 h -12.12 z m 14.76,-15.9 5.22,-15.66 h 0.54 l 5.16,15.66 z" />
    </g>
  </g>
</svg>
