<?xml version="1.0" encoding="UTF-8" standalone="no"?>
<svg
   xmlns:dc="http://purl.org/dc/elements/1.1/"
   xmlns:cc="http://creativecommons.org/ns#"
   xmlns:rdf="http://www.w3.org/1999/02/22-rdf-syntax-ns#"
   xmlns:svg="http://www.w3.org/2000/svg"
   xmlns="http://www.w3.org/2000/svg"
   id="svg16"
   width="800px"
   version="1.1"
   height="200px">
  <metadata
     id="metadata20">
    <rdf:RDF>
      <cc:Work
         rdf:about="">
        <dc:format>image/svg+xml</dc:format>
        <dc:type
           rdf:resource="http://purl.org/dc/dcmitype/StillImage" />
      </cc:Work>
    </rdf:RDF>
  </metadata>
  <defs
     id="defs4">
    <style
       id="style2"
       type="text/css"><![CDATA[    
     @font-face {font-family:Silka Bold;
     src: url('/Users/francesco/Repos/write-logos/src/fonts/Fonts_E_TEMPORANEA/Silka-Bold.otf');}
     @font-face {font-family:PWChalk;
     src: url('/Users/francesco/Repos/write-logos/src/fonts/Fonts_X/PWChalk.ttf');}
     ]]></style>
  </defs>
  <g
     id="g14"
     style="font-size:60px">
    <g
       style="text-anchor:middle"
       id="text12"
       aria-label="EXTEMPORANEA">
      <path
         id="path22"
         style="font-family:'Silka Bold';letter-spacing:0.075em"
         d="m 136.74156,100 h 27.24 v -8.16 h -17.76 V 82.9 h 14.58 v -8.1 h -14.58 v -8.7 h 17.1 V 58 h -26.58 z" />
      <path
         id="path24"
         style="font-family:PWChalk;letter-spacing:0.05em"
         d="m 178.29156,69.1 1.74,1.98 -0.84,-1.08 -2.58,-4.02 -1.26,-1.86 0.42,0.96 1.92,3.18 z m 12.42,18.66 0.3,0.54 2.16,3.3 1.62,2.58 -0.66,0.36 0.48,0.66 1.62,1.68 0.9,0.72 0.06,0.12 -0.12,-0.84 -1.38,-2.22 -1.26,-2.16 -0.42,-0.6 -2.28,-2.88 z m -6.54,-8.4 -0.12,0.12 0.12,0.18 0.66,1.02 0.18,-0.24 z m 8.4,8.34 -0.9,-1.38 -0.48,-0.6 1.08,1.56 0.84,1.32 z m -17.76,3.24 V 91 Z m 8.1,-4.62 2.4,-3.24 -0.24,-0.3 -0.3,0.42 z m 13.92,-18.6 2.76,-3.72 -1.5,1.56 -3.6,4.44 z m -9.72,15.96 -0.12,0.24 0.3,0.42 2.88,4.44 -2.16,-3.66 z m -1.02,-1.62 -0.24,-0.42 -0.18,0.24 0.24,0.42 z m 3.24,-4.02 -0.48,-0.6 -0.48,0.72 0.42,0.6 z m -7.62,-9.3 0.3,0.54 2.76,4.2 v 0.06 l 0.9,1.14 0.48,-0.6 -0.96,-1.2 -2.7,-3.18 z m 6.3,6.06 0.66,0.84 3.18,-4.56 3.84,-5.16 3,-4.02 -2.58,2.64 -4.32,4.5 0.66,0.6 z m 1.5,1.86 0.42,0.6 0.6,-0.72 0.6,-0.72 1.5,-2.22 1.32,-1.8 -0.9,0.9 z m -2.16,-1.14 -0.54,0.6 0.24,0.3 0.54,0.72 0.24,-0.3 0.3,-0.42 -0.12,-0.12 z m -14.58,20.88 -0.84,-0.36 0.06,-0.24 -0.18,0.3 -0.42,1.26 -0.06,0.6 -0.96,-0.12 0.06,-0.72 0.54,-1.38 1.5,-2.76 2.22,-3.72 3.3,-5.04 4.2,-5.34 0.24,-0.3 -2.16,-3.48 -0.84,-1.38 -2.22,-2.7 -2.34,-3 -1.5,-2.1 0.72,-0.66 0.78,0.54 0.3,0.24 -0.06,-0.12 -0.18,-0.36 -0.24,-0.42 -1.86,-2.82 -1.02,-1.98 0.54,-0.3 -0.06,-0.06 0.54,-0.3 -0.3,-0.66 0.78,-0.6 0.72,0.6 1.32,1.62 v -0.06 l -0.48,-0.84 0.84,-0.54 0.06,0.18 0.9,-0.24 0.24,0.9 1.08,2.22 0.36,0.66 2.1,2.82 2.76,3.36 2.7,3.18 0.9,1.02 4.26,-4.86 4.32,-4.62 3.66,-3.66 2.4,-2.16 1.08,-0.9 0.72,0.66 -1.2,1.44 -2.34,2.94 -1.2,1.62 1.98,-2.1 1.8,-1.68 0.9,-0.66 0.66,0.72 -0.96,1.44 -2.46,3 -1.38,1.86 0.18,0.24 0.78,-0.84 1.62,-1.74 1.08,-1.2 2.7,-2.76 0.84,-0.84 0.72,0.6 -0.9,1.02 -2.16,2.22 -1.56,1.62 -2.4,2.7 -4.14,4.62 -3.18,3.6 -1.86,2.7 0.48,0.66 2.52,3.3 2.58,3.3 2.16,3.3 1.98,3.12 1.62,2.52 1.2,1.68 0.48,0.78 -0.84,0.48 -0.48,-0.78 -1.2,-1.68 -1.62,-2.52 -1.98,-3.12 -2.16,-3.18 -2.46,-3.3 -2.52,-3.3 -0.36,-0.42 -0.54,0.78 0.6,0.84 3.12,4.02 2.52,3.84 2.58,3.36 0.48,0.78 0.84,1.02 0.9,1.74 1.32,2.1 0.96,1.32 -0.84,0.6 -0.96,-1.44 -1.02,-1.56 -0.78,-0.78 -1.62,-1.86 -0.3,-0.36 0.6,1.38 -0.6,0.72 0.6,1.02 -0.12,1.8 -1.14,0.12 -1.14,-0.96 -1.74,-1.8 -2.1,-2.82 -2.46,-3.72 -2.88,-4.44 -1.5,2.34 -2.82,4.62 -1.92,3.06 -0.66,0.54 -0.66,-0.66 0.42,-0.54 1.2,-2.34 2.16,-3.54 0.6,-0.96 -1.14,1.5 -3.66,5.4 -2.58,4.14 -0.84,1.44 -0.54,1.02 -0.12,-0.06 -0.36,0.54 -0.54,1.08 -0.84,-0.36 0.54,-1.2 1.38,-2.22 0.78,-1.5 2.58,-4.68 1.14,-1.98 -0.9,1.38 -2.34,4.32 -1.5,2.64 -0.84,-0.48 1.5,-2.64 2.34,-4.32 3.78,-5.82 3.12,-4.02 -0.84,-1.26 -1.44,1.74 -3.78,5.1 -2.52,4.32 -1.8,2.58 -0.72,1.56 z" />
      <path
         id="path26"
         style="font-family:'Silka Bold';letter-spacing:0.075em"
         d="m 229.24187,100 h 9.54001 V 66.22 h 11.75999 V 58 h -33 v 8.22 h 11.7 z" />
      <path
         id="path28"
         style="font-family:'Silka Bold';letter-spacing:0.075em"
         d="m 260.77281,100 h 27.24 v -8.16 h -17.76 V 82.9 h 14.58 v -8.1 h -14.58 v -8.7 h 17.1 V 58 h -26.58 z" />
      <path
         id="path30"
         style="font-family:'Silka Bold';letter-spacing:0.075em"
         d="m 299.02281,100 h 9.12 V 75.28 h 0.36 l 9.72,24.72 h 7.62 l 8.76,-23.76 h 0.36 V 100 h 9.18 V 58 h -11.76 l -9.96,28.5 h -0.36 l -11.34,-28.5 h -11.7 z" />
      <path
         id="path32"
         style="font-family:'Silka Bold';letter-spacing:0.075em"
         d="m 356.84312,100 h 9.48 V 86.2 h 6.78 c 8.1,0 14.64001,-5.94 14.64001,-14.16 0,-8.28 -6.30001,-14.04 -14.64001,-14.04 h -16.26 z m 9.48,-21.84 V 66.1 h 5.82 c 3.42001,0 5.94,2.28 5.94,5.94 0,3.66 -2.51999,6.12 -5.94,6.12 z" />
      <path
         id="path34"
         style="font-family:'Silka Bold';letter-spacing:0.075em"
         d="m 418.48563,100.78 c 12.77999,0 22.32,-9.48 22.32,-21.78 0,-12.24 -9.48001,-21.78 -22.32,-21.78 -12.84001,0 -22.32001,9.42 -22.32001,21.78 0,12.42 9.42,21.78 22.32001,21.78 z m 0,-9.12 c -7.32001,0 -12.48001,-5.4 -12.48001,-12.66 0,-7.14 5.16,-12.66 12.48001,-12.66 7.26,0 12.41999,5.52 12.41999,12.66 0,7.26 -5.15999,12.66 -12.41999,12.66 z" />
      <path
         id="path36"
         style="font-family:'Silka Bold';letter-spacing:0.075em"
         d="m 451.74156,100 h 9.48 V 85.96 h 5.64 l 7.14,14.04 h 10.56 l -8.94,-15.9 c 4.26,-2.16 7.44,-6.6 7.44,-12.24 0,-8.22 -6.3,-13.86 -14.88,-13.86 h -16.44 z m 9.48,-22.14 V 66.1 h 6 c 3.72,0 6.12,2.28 6.12,5.76 0,3.9 -2.58,6 -6,6 z" />
      <path
         id="path38"
         style="font-family:'Silka Bold';letter-spacing:0.075em"
         d="m 491.67062,100 h 9.72 l 2.46,-7.44 h 16.08 l 2.52,7.44 h 10.08 l -14.46,-42 h -12.12 z m 14.76001,-15.9 5.21999,-15.66 h 0.54 l 5.16001,15.66 z" />
      <path
         id="path40"
         style="font-family:'Silka Bold';letter-spacing:0.075em"
         d="m 541.9525,100 h 9.18 V 73.6 h 0.36 l 16.02,26.4 h 10.56 V 58 h -9.18 v 26.4 h -0.36 L 552.4525,58 h -10.5 z" />
      <path
         id="path42"
         style="font-family:'Silka Bold';letter-spacing:0.075em"
         d="m 590.86656,100 h 27.24 v -8.16 h -17.76 V 82.9 h 14.58 v -8.1 h -14.58 v -8.7 h 17.1 V 58 h -26.58 z" />
      <path
         id="path44"
         style="font-family:'Silka Bold';letter-spacing:0.075em"
         d="m 625.75656,100 h 9.72 l 2.46,-7.44 h 16.08 l 2.52,7.44 h 10.08 l -14.46,-42 h -12.12 z m 14.76,-15.9 5.22,-15.66 h 0.54 l 5.16,15.66 z" />
    </g>
  </g>
</svg>
