<?xml version="1.0" encoding="UTF-8" standalone="no"?>
<svg
   xmlns:dc="http://purl.org/dc/elements/1.1/"
   xmlns:cc="http://creativecommons.org/ns#"
   xmlns:rdf="http://www.w3.org/1999/02/22-rdf-syntax-ns#"
   xmlns:svg="http://www.w3.org/2000/svg"
   xmlns="http://www.w3.org/2000/svg"
   id="svg16"
   width="800px"
   version="1.1"
   height="200px">
  <metadata
     id="metadata20">
    <rdf:RDF>
      <cc:Work
         rdf:about="">
        <dc:format>image/svg+xml</dc:format>
        <dc:type
           rdf:resource="http://purl.org/dc/dcmitype/StillImage" />
      </cc:Work>
    </rdf:RDF>
  </metadata>
  <defs
     id="defs4">
    <style
       id="style2"
       type="text/css"><![CDATA[    
     @font-face {font-family:Silka Black;
     src: url('/Users/francesco/Repos/write-logos/src/fonts/Fonts_E_TEMPORANEA/Silka-Black.otf');}
     @font-face {font-family:Scrittura Ravvicinata;
     src: url('/Users/francesco/Repos/write-logos/src/fonts/Fonts_X/ScritturaRavvicinata-Regular.ttf');}
     ]]></style>
  </defs>
  <g
     id="g14"
     style="font-size:60px">
    <g
       style="text-anchor:middle"
       id="text12"
       aria-label="EXTEMPORANEA">
      <path
         id="path22"
         style="font-family:'Silka Black';letter-spacing:0.075em"
         d="m 140.70625,100 h 28.38 v -9.78 h -16.86 V 83.8 h 13.74 v -9.72 h -13.74 v -6.36 h 16.26 V 58 h -27.78 z" />
      <path
         id="path24"
         style="font-family:'Scrittura Ravvicinata';letter-spacing:0.05em"
         d="m 193.59625,91 q -0.12,0 -0.9,-1.56 -0.78,-1.56 -0.84,-1.56 -0.24,0 -0.78,-1.44 -0.66,-1.56 -1.08,-1.8 -0.3,-0.24 -0.48,-0.12 -0.18,0.12 -0.48,0.72 -0.3,0.6 -0.6,1.08 -0.3,0.42 -0.54,1.08 -0.3,0.66 -0.78,1.32 -0.42,0.66 -0.72,1.38 -0.36,0.9 -1.2,2.34 -0.78,1.2 -0.78,1.56 0,0.24 -0.54,0.78 -0.54,0.48 -1.14,1.98 -0.66,1.5 -0.96,1.68 -0.12,0.06 -0.78,1.38 -1.2,2.46 -2.1,2.46 -0.66,0 -0.9,-1.14 -0.24,-0.9 -0.24,-2.76 0,-3.96 0.72,-4.98 0.24,-0.42 0.54,-1.5 0.78,-3 1.32,-3 0.48,0 0.6,0.96 0.18,0.9 0.42,0.9 0.06,0 0.36,-0.18 0.48,-0.48 2.58,-4.56 0.36,-0.66 0.78,-1.32 0.48,-0.72 0.96,-1.8 0.84,-1.62 0.9,-1.68 0.18,-0.18 0.48,-0.78 0.18,-0.36 0.18,-0.66 0,-0.48 -0.54,-1.5 -0.18,-0.36 -0.42,-0.84 -0.18,-0.54 -0.48,-1.08 -0.24,-0.54 -0.3,-0.72 -0.42,-1.2 -0.66,-1.32 -0.18,-0.12 -0.66,-1.14 -0.42,-1.02 -0.42,-1.26 0,-0.3 -0.36,-0.66 -0.42,-0.54 -1.02,-2.46 -0.78,-2.04 -0.96,-2.16 -0.42,-0.3 -1.02,-3 -0.54,-2.76 -0.54,-4.32 0,-0.66 0.12,-0.78 0.18,-0.3 0.18,-0.96 0,-0.72 0.36,-0.72 0.36,0 0.78,0.6 0.48,0.54 0.6,1.14 0.9,3.72 1.56,4.38 0.3,0.3 0.3,0.66 0,0.24 1.2,3 l 1.2,2.7 q 0.18,0.6 0.48,0.6 0.24,0 0.24,0.3 0,0.36 0.36,1.32 0.42,0.9 0.48,1.02 0.12,0.72 0.36,0.72 0.3,0 0.72,1.26 l 0.42,1.26 0.6,-0.72 q 0.42,-0.54 1.02,-1.8 0.42,-1.2 0.78,-1.56 0.12,-0.12 0.78,-1.62 0.72,-1.56 0.84,-1.68 0.24,-0.12 1.56,-2.94 1.14,-2.52 2.04,-3.84 0.78,-1.26 0.9,-1.62 0.24,-0.6 0.54,-0.72 0.36,-0.12 0.36,-0.48 0,-0.42 1.08,-1.5 0.84,-0.84 1.14,-0.84 0.48,0 0.48,2.88 0,2.4 -0.66,3.66 -0.72,1.2 -1.08,1.56 -0.42,0.42 -0.42,0.78 0,0.18 -0.9,1.62 -0.9,1.44 -0.9,1.62 0,0.3 -0.6,1.02 -0.66,0.66 -1.08,1.92 -0.42,1.2 -0.78,1.56 -0.36,0.36 -0.36,0.54 0,0.18 -1.44,3.06 -1.38,2.76 -1.38,3.36 0,0.48 0.48,1.68 0.48,1.2 0.84,1.56 0.18,0.18 0.78,1.44 0.6,1.2 0.84,1.44 0.18,0.18 0.96,1.74 0.84,1.56 1.08,1.74 0.36,0.36 0.36,0.66 0,0.36 0.66,1.02 0.66,0.66 0.66,0.78 0,0.12 0.84,1.32 0.84,1.14 1.08,1.38 0.36,0.36 0.36,0.6 0,0.36 0.6,0.96 1.2,1.38 1.2,4.02 0,2.58 -0.66,2.58 -0.3,0 -0.6,-0.48 -0.3,-0.48 -1.02,-1.32 -0.66,-0.84 -1.14,-1.56 -0.84,-1.2 -1.02,-1.2 -0.12,-0.06 -0.72,-1.08 -0.54,-1.02 -0.72,-1.02 -0.24,0 -0.78,-1.14 -0.3,-0.66 -1.02,-1.68 -0.72,-1.02 -1.02,-1.74 -0.36,-0.78 -0.54,-0.78 z" />
      <path
         id="path26"
         style="font-family:'Silka Black';letter-spacing:0.075em"
         d="m 220.73312,100 h 11.52 V 67.9 h 11.34 V 58 h -34.14 v 9.9 h 11.28 z" />
      <path
         id="path28"
         style="font-family:'Silka Black';letter-spacing:0.075em"
         d="m 252.90156,100 h 28.38 v -9.78 h -16.86 V 83.8 h 13.74 v -9.72 h -13.74 v -6.36 h 16.26 V 58 h -27.78 z" />
      <path
         id="path30"
         style="font-family:'Silka Black';letter-spacing:0.075em"
         d="m 291.15156,100 h 11.1 V 78.16 h 0.36 l 7.86,21.84 h 8.52 l 7.02,-20.46 h 0.36 V 100 h 11.1 V 58 h -14.52 l -7.74,24.96 h -0.36 l -9.18,-24.96 h -14.52 z" />
      <path
         id="path32"
         style="font-family:'Silka Black';letter-spacing:0.075em"
         d="m 348.62031,100 h 11.52 V 87.46 h 5.28 c 8.4,0 15.42,-6.3 15.42,-14.82 0,-8.58 -6.78,-14.64 -15.42,-14.64 h -16.8 z m 11.52,-22.26 V 67.72 h 4.08 c 2.76,0 4.92,1.8 4.92,4.92 0,3.18 -2.16,5.1 -4.92,5.1 z" />
      <path
         id="path34"
         style="font-family:'Silka Black';letter-spacing:0.075em"
         d="m 411.22,100.78 c 12.9,0 22.56,-9.48 22.56,-21.78 0,-12.24 -9.6,-21.78 -22.56,-21.78 -12.96,0 -22.62,9.42 -22.62,21.78 0,12.42 9.6,21.78 22.62,21.78 z m 0,-11.1 c -6.36,0 -10.62,-4.62 -10.62,-10.68 0,-5.94 4.26,-10.68 10.62,-10.68 6.24,0 10.56,4.74 10.56,10.68 0,6.06 -4.32,10.68 -10.56,10.68 z" />
      <path
         id="path36"
         style="font-family:'Silka Black';letter-spacing:0.075em"
         d="m 443.63594,100 h 11.52 V 87.22 h 4.08 l 6.24,12.78 h 12.66 l -8.52,-15.18 c 4.08,-2.58 6.84,-6.96 6.84,-12.3 0,-8.58 -6.78,-14.52 -15.42,-14.52 h -17.4 z m 11.52,-22.5 v -9.78 h 4.68 c 2.76,0 4.92,1.68 4.92,4.8 0,3.18 -2.16,4.98 -4.92,4.98 z" />
      <path
         id="path38"
         style="font-family:'Silka Black';letter-spacing:0.075em"
         d="m 484.69375,100 h 11.7 l 1.92,-6.36 h 14.28 l 1.92,6.36 h 12.3 l -13.74,-42 h -14.94 z m 16.62,-16.56 3.84,-12.9 h 0.6 l 3.84,12.9 z" />
      <path
         id="path40"
         style="font-family:'Silka Black';letter-spacing:0.075em"
         d="m 535.25312,100 h 11.1 V 76.66 h 0.36 L 560.27313,100 h 12.9 V 58 h -11.10001 v 23.34 h -0.36 L 548.15313,58 h -12.90001 z" />
      <path
         id="path42"
         style="font-family:'Silka Black';letter-spacing:0.075em"
         d="m 584.28437,100 h 28.38 V 90.22 H 595.80438 V 83.8 h 13.73999 v -9.72 h -13.73999 v -6.36 h 16.26 V 58 h -27.78001 z" />
      <path
         id="path44"
         style="font-family:'Silka Black';letter-spacing:0.075em"
         d="m 619.83438,100 h 11.69999 l 1.92001,-6.36 h 14.27999 l 1.92,6.36 h 12.30001 l -13.74,-42 h -14.94001 z m 16.62,-16.56 3.83999,-12.9 h 0.6 l 3.84,12.9 z" />
    </g>
  </g>
</svg>
