<?xml version="1.0" encoding="UTF-8" standalone="no"?>
<svg
   xmlns:dc="http://purl.org/dc/elements/1.1/"
   xmlns:cc="http://creativecommons.org/ns#"
   xmlns:rdf="http://www.w3.org/1999/02/22-rdf-syntax-ns#"
   xmlns:svg="http://www.w3.org/2000/svg"
   xmlns="http://www.w3.org/2000/svg"
   id="svg16"
   width="800px"
   version="1.1"
   height="200px">
  <metadata
     id="metadata20">
    <rdf:RDF>
      <cc:Work
         rdf:about="">
        <dc:format>image/svg+xml</dc:format>
        <dc:type
           rdf:resource="http://purl.org/dc/dcmitype/StillImage" />
      </cc:Work>
    </rdf:RDF>
  </metadata>
  <defs
     id="defs4">
    <style
       id="style2"
       type="text/css"><![CDATA[    
     @font-face {font-family:Silka Bold;
     src: url('/Users/francesco/Repos/write-logos/src/fonts/Fonts_E_TEMPORANEA/Silka-Bold.otf');}
     @font-face {font-family:Deadlist;
     src: url('/Users/francesco/Repos/write-logos/src/fonts/Fonts_X/Deadlist.ttf');}
     ]]></style>
  </defs>
  <g
     id="g14"
     style="font-size:60px">
    <g
       style="text-anchor:middle"
       id="text12"
       aria-label="EXTEMPORANEA">
      <path
         id="path22"
         style="font-family:'Silka Bold';letter-spacing:0.075em"
         d="m 138.265,100 h 27.24 v -8.16 h -17.76 V 82.9 h 14.58 v -8.1 h -14.58 v -8.7 h 17.1 V 58 h -26.58 z" />
      <path
         id="path24"
         style="font-family:Deadlist;letter-spacing:0.05em"
         d="m 172.375,56.44 h 13.44 v 12.42 l 2.4,2.52 v 0.06 q -0.96,0.48 -0.96,0.66 l -0.18,0.24 q 0.18,0 1.32,0.12 l -0.06,0.18 h 0.42 v 0.06 l -0.36,0.12 v 0.06 h 0.66 q 0,0.24 0.78,0.36 h 0.12 v -0.06 q -0.48,-0.3 -0.66,-0.3 v -0.06 q 0.48,-0.12 0.72,-0.12 v -0.06 h -0.18 l 0.12,-0.18 q -1.26,-0.12 -2.34,-0.3 V 72.1 q 0.24,0 2.94,-0.36 v -0.12 q -0.3,0 -0.6,-0.06 v -0.12 q 0.6,0 0.6,-0.36 0.72,-0.12 0.72,-0.36 h 0.18 q 0.3,0 0.48,-0.06 l 0.78,0.18 1.92,-1.98 V 56.44 h 13.38 V 70.3 q -0.54,0.42 -1.44,0.42 l 0.12,0.18 q -0.36,0 -0.54,0.18 l 0.18,0.36 h -0.36 v 0.12 q 0.42,0.06 0.9,0.06 v 0.12 l -2.52,0.36 v 0.06 l 2.7,0.3 v 0.06 h -0.18 v 0.12 h 0.36 v 0.06 q -0.12,0 -0.54,0.12 v 0.06 h 0.54 l -0.12,0.18 0.48,0.12 v 0.06 h -0.18 v 0.12 q 0.42,0 0.78,0.06 v 0.12 q -0.84,0 -1.14,0.24 -0.36,0 -0.36,0.36 h 0.18 v 0.12 q -1.08,0 -1.38,0.42 3.24,0.3 3.96,0.54 v 0.12 q -0.24,0 -0.78,0.18 v 0.06 l 0.36,0.12 v 0.06 l -2.46,0.54 v 0.12 h 0.18 v 0.06 q -0.9,0 -0.9,0.18 0.12,0 0.12,0.12 h -0.36 l 0.06,0.18 h -0.72 v 0.06 q 0.42,0 1.44,0.18 v 0.12 l -0.9,0.06 v 0.12 h 0.48 v 0.06 q -0.36,0 -1.62,0.36 -0.3,0 -0.3,0.18 0.66,0 1.02,0.3 v 0.06 l -0.36,0.12 v 0.18 h 0.18 v 0.06 q -1.62,0 -3.06,0.36 v 0.12 h 0.36 v 0.06 l -0.48,0.12 v 0.06 h 0.66 l -0.18,0.3 q 0.06,0 0.06,0.06 h -0.18 v 0.18 q 0.48,0.18 1.98,0.3 0,0.18 -0.54,0.18 v 0.06 l 1.02,0.18 q 0,0.18 -0.36,0.18 v 0.12 l 0.6,0.06 h 0.36 v 0.18 h 1.02 q 0,0.42 2.76,0.54 V 82 q -0.6,0 -0.9,0.42 h 0.3 l -0.12,0.18 q 0.18,0.12 1.08,0.18 v 0.12 q -0.78,0 -0.78,0.18 0.06,0 0.06,0.06 -0.12,0.12 -0.42,0.12 v 0.06 q 0.36,0 0.36,0.18 -0.12,0 -0.12,0.12 l 0.54,0.06 v 0.12 q -0.36,0 -1.44,0.24 v 0.18 h 0.18 l -0.06,0.18 v 0.12 h 0.36 v 0.06 q -0.3,0 -0.66,0.12 v 0.06 q 0.18,0 1.02,0.3 0,0.18 -0.36,0.18 v 0.06 h 0.18 v 0.12 h -0.18 v 0.06 q 0.96,0 0.96,0.3 v 0.06 l -0.9,-0.24 V 100 h -13.38 V 87.58 q 0,-0.12 -1.44,-1.44 l 0.06,-0.48 v -0.18 h -0.72 q 0,-0.18 -0.24,-0.18 v -0.06 h 0.24 q 0,-0.18 -1.32,-0.48 v -0.18 h 0.24 v -0.06 q -0.18,0 -0.6,-0.3 -0.18,-0.06 -0.3,-0.06 v -0.12 q 0.84,-0.24 1.2,-0.24 v -0.12 q -0.24,0 -0.72,-0.06 l 0.06,-0.18 -0.9,-0.18 0.12,0.18 v 0.06 h -0.18 q 0,0.18 0.36,0.18 v 0.12 q -1.86,0.12 -1.92,0.42 0.12,0 0.12,0.12 -0.3,0 -0.3,0.18 h 0.3 v 0.06 q -0.36,0 -0.84,0.12 v 0.06 q 0.66,0.18 0.66,0.36 l -0.54,0.12 0.06,0.18 h -0.24 v 0.06 h 0.72 q 0,0.24 0.06,0.36 h -0.18 v 0.12 q 0.36,0.06 0.66,0.06 v 0.18 q -0.48,0 -1.02,0.54 -0.3,-0.18 -0.78,-0.18 -0.18,0.12 -0.3,0.12 l 0.3,-0.54 h -0.12 l -1.32,1.44 V 100 h -13.44 V 85.6 h 0.18 v -0.12 h -0.18 l 0.12,-0.18 h -0.18 v -0.06 h 0.36 v -0.18 q -0.9,-0.3 -0.9,-0.3 0,-0.18 0.42,-0.18 v -0.06 h -0.24 l 0.06,-0.18 v -0.12 q -0.24,0 -0.24,-0.18 1.14,-0.24 1.5,-0.24 v -0.12 l -0.54,-0.06 V 83.5 h 0.18 v -0.06 l -0.42,-0.12 v -0.06 l 0.54,-0.12 v -0.06 h -0.18 q 0,-0.18 0.18,-0.18 h 0.9 v -0.12 l -0.48,-0.06 q 0,-0.18 0.3,-0.18 l -0.12,-0.18 q 1.38,-0.36 1.62,-0.36 v -0.12 q -1.5,0 -1.68,-0.54 h -0.66 q 0,-0.24 -0.54,-0.24 v -0.12 q 0.3,0 0.84,-0.06 0,-0.3 -0.66,-0.3 v -0.06 q 0.66,0 1.02,-0.12 v -0.06 l -0.9,-0.12 h -0.18 v -0.18 q 0,-0.12 0.96,-0.42 v -0.12 h -0.36 v -0.06 l 0.84,-0.12 -0.12,-0.18 0.54,-0.18 q 2.46,-0.18 3.36,-0.18 h 0.06 q 0,-0.36 0.72,-0.36 h 0.18 q 0,-0.06 0.12,-0.24 l -1.08,-0.18 v -0.12 q 0.18,0 0.54,-0.18 l -0.12,-0.18 h 0.36 V 77.5 h -0.54 v -0.12 h 0.48 V 77.2 h -0.12 q -1.44,-0.18 -1.86,-0.18 v -0.06 h 0.6 v -0.12 h -0.24 v -0.06 h 0.24 v -0.12 q -0.06,0 -0.72,-0.06 v -0.12 h 0.9 v -0.06 h -0.42 V 76.3 h 0.24 v -0.06 h -0.18 q 0,-0.18 1.26,-0.36 v -0.12 q -0.42,-0.18 -0.78,-0.18 v -0.06 h 0.18 V 75.4 h -0.3 v -0.06 h 0.36 v -0.12 l -5.28,-0.6 V 74.5 h 0.18 v -0.06 h -0.3 v -0.18 h 0.66 v -0.12 q -0.3,0 -0.72,-0.24 h -0.18 v -0.12 h 0.42 v -0.06 l -0.42,-0.12 v -0.06 h 0.78 v -0.12 q -0.12,0 -0.9,-0.06 v -0.12 h 0.18 v -0.06 q -0.72,-0.3 -0.96,-0.3 v -0.06 l 0.54,-0.12 v -0.06 q -0.3,0 -0.3,-0.18 -0.36,0 -2.7,-0.3 V 72.1 q 0.3,0 2.46,-0.36 h 0.06 v -0.12 q -0.3,0 -0.78,-0.06 v -0.12 h 0.36 v -0.06 l -0.18,-0.3 q 0,0 0.36,-0.06 0.18,0.36 1.08,0.36 l 0.42,-0.12 z m 13.26,15.66 v 0.06 q 0.06,0 0.24,0.12 h 0.18 v -0.12 q -0.18,0 -0.36,-0.06 z m 3.96,14.1 h 0.06 q 0.78,0.12 0.9,0.12 v 0.06 h -0.18 v 0.12 h 0.36 v 0.06 h -0.9 q -0.12,0 -0.24,-0.24 z" />
      <path
         id="path26"
         style="font-family:'Silka Bold';letter-spacing:0.075em"
         d="m 227.71844,100 h 9.54 V 66.22 h 11.76 V 58 h -33 v 8.22 h 11.7 z" />
      <path
         id="path28"
         style="font-family:'Silka Bold';letter-spacing:0.075em"
         d="m 259.24937,100 h 27.24 v -8.16 h -17.76 V 82.9 h 14.58 v -8.1 h -14.58 v -8.7 h 17.10001 V 58 h -26.58001 z" />
      <path
         id="path30"
         style="font-family:'Silka Bold';letter-spacing:0.075em"
         d="m 297.49937,100 h 9.12 V 75.28 h 0.36 l 9.72,24.72 h 7.62 l 8.76001,-23.76 h 0.35999 V 100 h 9.18 V 58 h -11.76 l -9.95999,28.5 h -0.36001 l -11.34,-28.5 h -11.7 z" />
      <path
         id="path32"
         style="font-family:'Silka Bold';letter-spacing:0.075em"
         d="m 355.31969,100 h 9.48 V 86.2 h 6.78 c 8.1,0 14.64,-5.94 14.64,-14.16 0,-8.28 -6.3,-14.04 -14.64,-14.04 h -16.26 z m 9.48,-21.84 V 66.1 h 5.82 c 3.42,0 5.94,2.28 5.94,5.94 0,3.66 -2.52,6.12 -5.94,6.12 z" />
      <path
         id="path34"
         style="font-family:'Silka Bold';letter-spacing:0.075em"
         d="m 416.96219,100.78 c 12.78,0 22.32,-9.48 22.32,-21.78 0,-12.24 -9.48,-21.78 -22.32,-21.78 -12.84,0 -22.32,9.42 -22.32,21.78 0,12.42 9.42,21.78 22.32,21.78 z m 0,-9.12 c -7.32,0 -12.48,-5.4 -12.48,-12.66 0,-7.14 5.16,-12.66 12.48,-12.66 7.26,0 12.42,5.52 12.42,12.66 0,7.26 -5.16,12.66 -12.42,12.66 z" />
      <path
         id="path36"
         style="font-family:'Silka Bold';letter-spacing:0.075em"
         d="m 450.21812,100 h 9.48 V 85.96 h 5.64 l 7.14,14.04 h 10.56 l -8.94,-15.9 c 4.26,-2.16 7.44,-6.6 7.44,-12.24 0,-8.22 -6.29999,-13.86 -14.88,-13.86 h -16.44 z m 9.48,-22.14 V 66.1 h 6 c 3.72,0 6.12,2.28 6.12,5.76 0,3.9 -2.57999,6 -6,6 z" />
      <path
         id="path38"
         style="font-family:'Silka Bold';letter-spacing:0.075em"
         d="m 490.14719,100 h 9.72 l 2.46,-7.44 h 16.08 l 2.52,7.44 h 10.08 l -14.46,-42 h -12.12 z m 14.76,-15.9 5.22,-15.66 h 0.54 l 5.16,15.66 z" />
      <path
         id="path40"
         style="font-family:'Silka Bold';letter-spacing:0.075em"
         d="m 540.42906,100 h 9.18 V 73.6 h 0.36 l 16.02,26.4 h 10.56 V 58 h -9.18 v 26.4 h -0.36 l -16.08,-26.4 h -10.5 z" />
      <path
         id="path42"
         style="font-family:'Silka Bold';letter-spacing:0.075em"
         d="m 589.34312,100 h 27.24 v -8.16 h -17.76 V 82.9 h 14.58001 v -8.1 h -14.58001 v -8.7 h 17.10001 V 58 h -26.58001 z" />
      <path
         id="path44"
         style="font-family:'Silka Bold';letter-spacing:0.075em"
         d="m 624.23312,100 h 9.72 l 2.46001,-7.44 h 16.07999 l 2.52,7.44 h 10.08 l -14.46,-42 h -12.12 z m 14.76,-15.9 5.22,-15.66 h 0.54 l 5.16001,15.66 z" />
    </g>
  </g>
</svg>
