<?xml version="1.0" encoding="UTF-8" standalone="no"?>
<svg
   xmlns:dc="http://purl.org/dc/elements/1.1/"
   xmlns:cc="http://creativecommons.org/ns#"
   xmlns:rdf="http://www.w3.org/1999/02/22-rdf-syntax-ns#"
   xmlns:svg="http://www.w3.org/2000/svg"
   xmlns="http://www.w3.org/2000/svg"
   id="svg16"
   width="800px"
   version="1.1"
   height="200px">
  <metadata
     id="metadata20">
    <rdf:RDF>
      <cc:Work
         rdf:about="">
        <dc:format>image/svg+xml</dc:format>
        <dc:type
           rdf:resource="http://purl.org/dc/dcmitype/StillImage" />
      </cc:Work>
    </rdf:RDF>
  </metadata>
  <defs
     id="defs4">
    <style
       id="style2"
       type="text/css"><![CDATA[    
     @font-face {font-family:Silka;
     src: url('/Users/francesco/Repos/write-logos/src/fonts/Fonts_E_TEMPORANEA/Silka-Regular.otf');}
     @font-face {font-family:Scrittura Ravvicinata;
     src: url('/Users/francesco/Repos/write-logos/src/fonts/Fonts_X/ScritturaRavvicinata-Regular.ttf');}
     ]]></style>
  </defs>
  <g
     id="g14"
     style="font-size:60px">
    <g
       style="text-anchor:middle"
       id="text12"
       aria-label="EXTEMPORANEA">
      <path
         id="path22"
         style="font-family:Silka;letter-spacing:0.075em"
         d="m 148.44531,100 h 24.6 v -4.38 h -19.74 V 80.8 h 16.44 v -4.38 h -16.44 V 62.44 h 19.08 V 58 h -23.94 z" />
      <path
         id="path24"
         style="font-family:'Scrittura Ravvicinata';letter-spacing:0.05em"
         d="m 198.51812,91 q -0.12,0 -0.9,-1.56 -0.78,-1.56 -0.84,-1.56 -0.24,0 -0.78,-1.44 -0.66,-1.56 -1.08,-1.8 -0.3,-0.24 -0.47999,-0.12 -0.18001,0.12 -0.48001,0.72 -0.3,0.6 -0.6,1.08 -0.3,0.42 -0.54,1.08 -0.3,0.66 -0.78,1.32 -0.42,0.66 -0.72,1.38 -0.36,0.9 -1.2,2.34 -0.78,1.2 -0.78,1.56 0,0.24 -0.54,0.78 -0.54,0.48 -1.14,1.98 -0.66,1.5 -0.96,1.68 -0.12,0.06 -0.78,1.38 -1.2,2.46 -2.1,2.46 -0.66,0 -0.9,-1.14 -0.24,-0.9 -0.24,-2.76 0,-3.96 0.72,-4.98 0.24,-0.42 0.54001,-1.5 0.77999,-3 1.31999,-3 0.48,0 0.6,0.96 0.18,0.9 0.42,0.9 0.06,0 0.36,-0.18 0.48,-0.48 2.58,-4.56 0.36,-0.66 0.78,-1.32 0.48,-0.72 0.96,-1.8 0.84,-1.62 0.9,-1.68 0.18,-0.18 0.48,-0.78 0.18,-0.36 0.18,-0.66 0,-0.48 -0.54,-1.5 -0.18,-0.36 -0.42,-0.84 -0.18,-0.54 -0.48,-1.08 -0.24,-0.54 -0.3,-0.72 -0.42,-1.2 -0.66,-1.32 -0.17999,-0.12 -0.66,-1.14 -0.42,-1.02 -0.42,-1.26 0,-0.3 -0.36,-0.66 -0.42,-0.54 -1.02,-2.46 -0.78,-2.04 -0.96,-2.16 -0.42,-0.3 -1.02,-3 -0.54,-2.76 -0.54,-4.32 0,-0.66 0.12,-0.78 0.18001,-0.3 0.18001,-0.96 0,-0.72 0.35999,-0.72 0.36,0 0.78,0.6 0.48,0.54 0.6,1.14 0.9,3.72 1.56,4.38 0.3,0.3 0.3,0.66 0,0.24 1.2,3 l 1.20001,2.7 q 0.17999,0.6 0.47999,0.6 0.24,0 0.24,0.3 0,0.36 0.36,1.32 0.42001,0.9 0.48001,1.02 0.11999,0.72 0.35999,0.72 0.3,0 0.72,1.26 l 0.42,1.26 0.6,-0.72 q 0.42,-0.54 1.02,-1.8 0.42,-1.2 0.78,-1.56 0.12,-0.12 0.78,-1.62 0.72,-1.56 0.84,-1.68 0.24,-0.12 1.56,-2.94 1.14,-2.52 2.04,-3.84 0.78,-1.26 0.9,-1.62 0.24,-0.6 0.54,-0.72 0.36,-0.12 0.36,-0.48 0,-0.42 1.08001,-1.5 0.83999,-0.84 1.13999,-0.84 0.48,0 0.48,2.88 0,2.4 -0.66,3.66 -0.72,1.2 -1.08,1.56 -0.42,0.42 -0.42,0.78 0,0.18 -0.9,1.62 -0.9,1.44 -0.9,1.62 0,0.3 -0.6,1.02 -0.66,0.66 -1.08,1.92 -0.42,1.2 -0.78,1.56 -0.36,0.36 -0.36,0.54 0,0.18 -1.44,3.06 -1.38,2.76 -1.38,3.36 0,0.48 0.48001,1.68 0.47999,1.2 0.83999,1.56 0.18,0.18 0.78,1.44 0.6,1.2 0.84,1.44 0.18,0.18 0.96,1.74 0.84,1.56 1.08,1.74 0.36,0.36 0.36,0.66 0,0.36 0.66,1.02 0.66,0.66 0.66,0.78 0,0.12 0.84,1.32 0.84,1.14 1.08,1.38 0.36,0.36 0.36,0.6 0,0.36 0.6,0.96 1.2,1.38 1.2,4.02 0,2.58 -0.66,2.58 -0.3,0 -0.6,-0.48 -0.3,-0.48 -1.02,-1.32 -0.66,-0.84 -1.14,-1.56 -0.83999,-1.2 -1.02,-1.2 -0.12,-0.06 -0.72,-1.08 -0.54,-1.02 -0.72,-1.02 -0.24,0 -0.78,-1.14 -0.3,-0.66 -1.02,-1.68 -0.72,-1.02 -1.02,-1.74 -0.36,-0.78 -0.54,-0.78 z" />
      <path
         id="path26"
         style="font-family:Silka;letter-spacing:0.075em"
         d="m 227.515,100 h 4.86 V 62.44 h 12.84 V 58 h -30.54 v 4.44 h 12.84 z" />
      <path
         id="path28"
         style="font-family:Silka;letter-spacing:0.075em"
         d="m 257.47656,100 h 24.6 v -4.38 h -19.74 V 80.8 h 16.44 v -4.38 h -16.44 V 62.44 h 19.08 V 58 h -23.94 z" />
      <path
         id="path30"
         style="font-family:Silka;letter-spacing:0.075em"
         d="m 295.60937,100 h 4.68 V 68.68 h 0.36001 L 314.62937,100 h 5.52001 l 12.77999,-31.32 h 0.36 V 100 h 4.68001 V 58 h -5.34001 l -15.06,36.66 h -0.35999 L 300.94937,58 h -5.34 z" />
      <path
         id="path32"
         style="font-family:Silka;letter-spacing:0.075em"
         d="m 354.48437,100 h 4.86001 V 83.38 h 10.19999 c 7.38,0 12.84,-5.22 12.84,-12.78 0,-7.62 -5.22,-12.6 -12.84,-12.6 h -15.06 z m 4.86001,-20.94 V 62.32 h 9.77999 c 5.04,0 8.28001,3.48 8.28001,8.28 0,4.86 -3.24001,8.46 -8.28001,8.46 z" />
      <path
         id="path34"
         style="font-family:Silka;letter-spacing:0.075em"
         d="m 413.9725,100.78 c 12.54,0 21.78,-9.42 21.78,-21.78 0,-12.24 -9.18,-21.78 -21.72,-21.78 -12.48,0 -21.72,9.42 -21.72,21.78 0,12.48 9.18,21.78 21.66,21.78 z m 0.06,-4.56 c -9.6,0 -16.68,-7.26 -16.68,-17.22 0,-9.84 7.08,-17.22 16.68,-17.22 9.6,0 16.68,7.38 16.68,17.22 0,9.96 -7.08,17.22 -16.68,17.22 z" />
      <path
         id="path36"
         style="font-family:Silka;letter-spacing:0.075em"
         d="m 449.26562,100 h 4.86001 V 83.02 h 9.18 l 9.29999,16.98 h 5.64001 l -9.84001,-17.46 c 4.74,-1.38 8.76,-5.94 8.76,-12.12 0,-7.38 -5.1,-12.42 -13.67999,-12.42 h -14.22001 z m 4.86001,-21.3 V 62.32 h 9.06 c 5.94,0 8.94,3.66 8.94,8.1 0,5.52 -3.72001,8.28 -8.64,8.28 z" />
      <path
         id="path38"
         style="font-family:Silka;letter-spacing:0.075em"
         d="m 486.7,100 h 5.1 l 3.78,-9.96 h 20.28 l 3.78,9.96 h 5.1 L 508.6,58 h -5.7 z m 10.56,-14.4 8.28,-21.96 h 0.36 l 8.28,21.96 z" />
      <path
         id="path40"
         style="font-family:Silka;letter-spacing:0.075em"
         d="m 536.42969,100 h 4.86 V 66.46 h 0.36 l 21.72,33.54 h 5.16 V 58 h -4.8 v 33.54 h -0.36 L 541.40969,58 h -4.98 z" />
      <path
         id="path42"
         style="font-family:Silka;letter-spacing:0.075em"
         d="m 584.99219,100 h 24.6 v -4.38 h -19.74 V 80.8 h 16.44 v -4.38 h -16.44 V 62.44 h 19.08 V 58 h -23.94 z" />
      <path
         id="path44"
         style="font-family:Silka;letter-spacing:0.075em"
         d="m 618.325,100 h 5.1 l 3.78,-9.96 h 20.28 l 3.78,9.96 h 5.1 l -16.14,-42 h -5.7 z m 10.56,-14.4 8.28,-21.96 h 0.36 l 8.28,21.96 z" />
    </g>
  </g>
</svg>
