<?xml version="1.0" encoding="UTF-8" standalone="no"?>
<svg
   xmlns:dc="http://purl.org/dc/elements/1.1/"
   xmlns:cc="http://creativecommons.org/ns#"
   xmlns:rdf="http://www.w3.org/1999/02/22-rdf-syntax-ns#"
   xmlns:svg="http://www.w3.org/2000/svg"
   xmlns="http://www.w3.org/2000/svg"
   id="svg16"
   width="800px"
   version="1.1"
   height="200px">
  <metadata
     id="metadata20">
    <rdf:RDF>
      <cc:Work
         rdf:about="">
        <dc:format>image/svg+xml</dc:format>
        <dc:type
           rdf:resource="http://purl.org/dc/dcmitype/StillImage" />
      </cc:Work>
    </rdf:RDF>
  </metadata>
  <defs
     id="defs4">
    <style
       id="style2"
       type="text/css"><![CDATA[    
     @font-face {font-family:Silka Black;
     src: url('/Users/francesco/Repos/write-logos/src/fonts/Fonts_E_TEMPORANEA/Silka-Black.otf');}
     @font-face {font-family:Deadlist;
     src: url('/Users/francesco/Repos/write-logos/src/fonts/Fonts_X/Deadlist.ttf');}
     ]]></style>
  </defs>
  <g
     id="g14"
     style="font-size:60px">
    <g
       style="text-anchor:middle"
       id="text12"
       aria-label="EXTEMPORANEA">
      <path
         id="path22"
         style="font-family:'Silka Black';letter-spacing:0.075em"
         d="m 135.84297,100 h 28.38 v -9.78 h -16.86 V 83.8 h 13.74 v -9.72 h -13.74 v -6.36 h 16.26 V 58 h -27.78 z" />
      <path
         id="path24"
         style="font-family:Deadlist;letter-spacing:0.05em"
         d="m 170.79297,56.44 h 13.44 v 12.42 l 2.4,2.52 v 0.06 q -0.96,0.48 -0.96,0.66 l -0.18,0.24 q 0.18,0 1.32,0.12 l -0.06,0.18 h 0.42 v 0.06 l -0.36,0.12 v 0.06 h 0.66 q 0,0.24 0.78,0.36 h 0.12 v -0.06 q -0.48,-0.3 -0.66,-0.3 v -0.06 q 0.48,-0.12 0.72,-0.12 v -0.06 h -0.18 l 0.12,-0.18 q -1.26,-0.12 -2.34,-0.3 V 72.1 q 0.24,0 2.94,-0.36 v -0.12 q -0.3,0 -0.6,-0.06 v -0.12 q 0.6,0 0.6,-0.36 0.72,-0.12 0.72,-0.36 h 0.18 q 0.3,0 0.48,-0.06 l 0.78,0.18 1.92,-1.98 V 56.44 h 13.38 V 70.3 q -0.54,0.42 -1.44,0.42 l 0.12,0.18 q -0.36,0 -0.54,0.18 l 0.18,0.36 h -0.36 v 0.12 q 0.42,0.06 0.9,0.06 v 0.12 l -2.52,0.36 v 0.06 l 2.7,0.3 v 0.06 h -0.18 v 0.12 h 0.36 v 0.06 q -0.12,0 -0.54,0.12 v 0.06 h 0.54 l -0.12,0.18 0.48,0.12 v 0.06 h -0.18 v 0.12 q 0.42,0 0.78,0.06 v 0.12 q -0.84,0 -1.14,0.24 -0.36,0 -0.36,0.36 h 0.18 v 0.12 q -1.08,0 -1.38,0.42 3.24,0.3 3.96,0.54 v 0.12 q -0.24,0 -0.78,0.18 v 0.06 l 0.36,0.12 v 0.06 l -2.46,0.54 v 0.12 h 0.18 v 0.06 q -0.9,0 -0.9,0.18 0.12,0 0.12,0.12 h -0.36 l 0.06,0.18 h -0.72 v 0.06 q 0.42,0 1.44,0.18 v 0.12 l -0.9,0.06 v 0.12 h 0.48 v 0.06 q -0.36,0 -1.62,0.36 -0.3,0 -0.3,0.18 0.66,0 1.02,0.3 v 0.06 l -0.36,0.12 v 0.18 h 0.18 v 0.06 q -1.62,0 -3.06,0.36 v 0.12 h 0.36 v 0.06 l -0.48,0.12 v 0.06 h 0.66 l -0.18,0.3 q 0.06,0 0.06,0.06 h -0.18 v 0.18 q 0.48,0.18 1.98,0.3 0,0.18 -0.54,0.18 v 0.06 l 1.02,0.18 q 0,0.18 -0.36,0.18 v 0.12 l 0.6,0.06 h 0.36 v 0.18 h 1.02 q 0,0.42 2.76,0.54 V 82 q -0.6,0 -0.9,0.42 h 0.3 l -0.12,0.18 q 0.18,0.12 1.08,0.18 v 0.12 q -0.78,0 -0.78,0.18 0.06,0 0.06,0.06 -0.12,0.12 -0.42,0.12 v 0.06 q 0.36,0 0.36,0.18 -0.12,0 -0.12,0.12 l 0.54,0.06 v 0.12 q -0.36,0 -1.44,0.24 v 0.18 h 0.18 l -0.06,0.18 v 0.12 h 0.36 v 0.06 q -0.3,0 -0.66,0.12 v 0.06 q 0.18,0 1.02,0.3 0,0.18 -0.36,0.18 v 0.06 h 0.18 v 0.12 h -0.18 v 0.06 q 0.96,0 0.96,0.3 v 0.06 l -0.9,-0.24 V 100 h -13.38 V 87.58 q 0,-0.12 -1.44,-1.44 l 0.06,-0.48 v -0.18 h -0.72 q 0,-0.18 -0.24,-0.18 v -0.06 h 0.24 q 0,-0.18 -1.32,-0.48 v -0.18 h 0.24 v -0.06 q -0.18,0 -0.6,-0.3 -0.18,-0.06 -0.3,-0.06 v -0.12 q 0.84,-0.24 1.2,-0.24 v -0.12 q -0.24,0 -0.72,-0.06 l 0.06,-0.18 -0.9,-0.18 0.12,0.18 v 0.06 h -0.18 q 0,0.18 0.36,0.18 v 0.12 q -1.86,0.12 -1.92,0.42 0.12,0 0.12,0.12 -0.3,0 -0.3,0.18 h 0.3 v 0.06 q -0.36,0 -0.84,0.12 v 0.06 q 0.66,0.18 0.66,0.36 l -0.54,0.12 0.06,0.18 h -0.24 v 0.06 h 0.72 q 0,0.24 0.06,0.36 h -0.18 v 0.12 q 0.36,0.06 0.66,0.06 v 0.18 q -0.48,0 -1.02,0.54 -0.3,-0.18 -0.78,-0.18 -0.18,0.12 -0.3,0.12 l 0.3,-0.54 h -0.12 l -1.32,1.44 V 100 h -13.44 V 85.6 h 0.18 v -0.12 h -0.18 l 0.12,-0.18 h -0.18 v -0.06 h 0.36 v -0.18 q -0.9,-0.3 -0.9,-0.3 0,-0.18 0.42,-0.18 v -0.06 h -0.24 l 0.06,-0.18 v -0.12 q -0.24,0 -0.24,-0.18 1.14,-0.24 1.5,-0.24 v -0.12 l -0.54,-0.06 V 83.5 h 0.18 v -0.06 l -0.42,-0.12 v -0.06 l 0.54,-0.12 v -0.06 h -0.18 q 0,-0.18 0.18,-0.18 h 0.9 v -0.12 l -0.48,-0.06 q 0,-0.18 0.3,-0.18 l -0.12,-0.18 q 1.38,-0.36 1.62,-0.36 v -0.12 q -1.5,0 -1.68,-0.54 h -0.66 q 0,-0.24 -0.54,-0.24 v -0.12 q 0.3,0 0.84,-0.06 0,-0.3 -0.66,-0.3 v -0.06 q 0.66,0 1.02,-0.12 v -0.06 l -0.9,-0.12 h -0.18 v -0.18 q 0,-0.12 0.96,-0.42 v -0.12 h -0.36 v -0.06 l 0.84,-0.12 -0.12,-0.18 0.54,-0.18 q 2.46,-0.18 3.36,-0.18 h 0.06 q 0,-0.36 0.72,-0.36 h 0.18 q 0,-0.06 0.12,-0.24 l -1.08,-0.18 v -0.12 q 0.18,0 0.54,-0.18 l -0.12,-0.18 h 0.36 V 77.5 h -0.54 v -0.12 h 0.48 V 77.2 h -0.12 q -1.44,-0.18 -1.86,-0.18 v -0.06 h 0.6 v -0.12 h -0.24 v -0.06 h 0.24 v -0.12 q -0.06,0 -0.72,-0.06 v -0.12 h 0.9 v -0.06 h -0.42 V 76.3 h 0.24 v -0.06 h -0.18 q 0,-0.18 1.26,-0.36 v -0.12 q -0.42,-0.18 -0.78,-0.18 v -0.06 h 0.18 V 75.4 h -0.3 v -0.06 h 0.36 v -0.12 l -5.28,-0.6 V 74.5 h 0.18 v -0.06 h -0.3 v -0.18 h 0.66 v -0.12 q -0.3,0 -0.72,-0.24 h -0.18 v -0.12 h 0.42 v -0.06 l -0.42,-0.12 v -0.06 h 0.78 v -0.12 q -0.12,0 -0.9,-0.06 v -0.12 h 0.18 v -0.06 q -0.72,-0.3 -0.96,-0.3 v -0.06 l 0.54,-0.12 v -0.06 q -0.3,0 -0.3,-0.18 -0.36,0 -2.7,-0.3 V 72.1 q 0.3,0 2.46,-0.36 h 0.06 v -0.12 q -0.3,0 -0.78,-0.06 v -0.12 h 0.36 v -0.06 l -0.18,-0.3 q 0,0 0.36,-0.06 0.18,0.36 1.08,0.36 l 0.42,-0.12 z m 13.26,15.66 v 0.06 q 0.06,0 0.24,0.12 h 0.18 v -0.12 q -0.18,0 -0.36,-0.06 z m 3.96,14.1 h 0.06 q 0.78,0.12 0.9,0.12 v 0.06 h -0.18 v 0.12 h 0.36 v 0.06 h -0.9 q -0.12,0 -0.24,-0.24 z" />
      <path
         id="path26"
         style="font-family:'Silka Black';letter-spacing:0.075em"
         d="m 225.59641,100 h 11.52 V 67.9 h 11.34 V 58 h -34.14 v 9.9 h 11.28 z" />
      <path
         id="path28"
         style="font-family:'Silka Black';letter-spacing:0.075em"
         d="m 257.76484,100 h 28.38 v -9.78 h -16.86 V 83.8 h 13.74 v -9.72 h -13.74 v -6.36 h 16.26 V 58 h -27.78 z" />
      <path
         id="path30"
         style="font-family:'Silka Black';letter-spacing:0.075em"
         d="m 296.01484,100 h 11.1 V 78.16 h 0.36 l 7.86,21.84 h 8.52 l 7.02,-20.46 h 0.36 V 100 h 11.1 V 58 h -14.52 l -7.74,24.96 h -0.36 l -9.18,-24.96 h -14.52 z" />
      <path
         id="path32"
         style="font-family:'Silka Black';letter-spacing:0.075em"
         d="m 353.48359,100 h 11.52 V 87.46 h 5.28 c 8.4,0 15.42,-6.3 15.42,-14.82 0,-8.58 -6.78,-14.64 -15.42,-14.64 h -16.8 z m 11.52,-22.26 V 67.72 h 4.08 c 2.76,0 4.92,1.8 4.92,4.92 0,3.18 -2.16,5.1 -4.92,5.1 z" />
      <path
         id="path34"
         style="font-family:'Silka Black';letter-spacing:0.075em"
         d="m 416.08328,100.78 c 12.9,0 22.56,-9.48 22.56,-21.78 0,-12.24 -9.6,-21.78 -22.56,-21.78 -12.96,0 -22.62,9.42 -22.62,21.78 0,12.42 9.6,21.78 22.62,21.78 z m 0,-11.1 c -6.36,0 -10.62,-4.62 -10.62,-10.68 0,-5.94 4.26,-10.68 10.62,-10.68 6.24,0 10.56,4.74 10.56,10.68 0,6.06 -4.32,10.68 -10.56,10.68 z" />
      <path
         id="path36"
         style="font-family:'Silka Black';letter-spacing:0.075em"
         d="m 448.49922,100 h 11.52 V 87.22 h 4.08 l 6.24,12.78 h 12.66 l -8.52,-15.18 c 4.08,-2.58 6.84,-6.96 6.84,-12.3 0,-8.58 -6.78,-14.52 -15.42,-14.52 h -17.4 z m 11.52,-22.5 v -9.78 h 4.68 c 2.76,0 4.92,1.68 4.92,4.8 0,3.18 -2.16,4.98 -4.92,4.98 z" />
      <path
         id="path38"
         style="font-family:'Silka Black';letter-spacing:0.075em"
         d="m 489.55703,100 h 11.7 l 1.92,-6.36 h 14.28 l 1.92,6.36 h 12.3 l -13.74,-42 h -14.94 z m 16.62,-16.56 3.84,-12.9 h 0.6 l 3.84,12.9 z" />
      <path
         id="path40"
         style="font-family:'Silka Black';letter-spacing:0.075em"
         d="m 540.11641,100 h 11.1 V 76.66 h 0.36 l 13.56,23.34 h 12.9 V 58 h -11.1 v 23.34 h -0.36 L 553.01641,58 h -12.9 z" />
      <path
         id="path42"
         style="font-family:'Silka Black';letter-spacing:0.075em"
         d="m 589.14766,100 h 28.38 v -9.78 h -16.86 V 83.8 h 13.74 v -9.72 h -13.74 v -6.36 h 16.26 V 58 h -27.78 z" />
      <path
         id="path44"
         style="font-family:'Silka Black';letter-spacing:0.075em"
         d="m 624.69766,100 h 11.7 l 1.92,-6.36 h 14.28 l 1.92,6.36 h 12.3 l -13.74,-42 h -14.94 z m 16.62,-16.56 3.84,-12.9 h 0.6 l 3.84,12.9 z" />
    </g>
  </g>
</svg>
