<?xml version="1.0" encoding="UTF-8" standalone="no"?>
<svg
   xmlns:dc="http://purl.org/dc/elements/1.1/"
   xmlns:cc="http://creativecommons.org/ns#"
   xmlns:rdf="http://www.w3.org/1999/02/22-rdf-syntax-ns#"
   xmlns:svg="http://www.w3.org/2000/svg"
   xmlns="http://www.w3.org/2000/svg"
   id="svg16"
   width="800px"
   version="1.1"
   height="200px">
  <metadata
     id="metadata20">
    <rdf:RDF>
      <cc:Work
         rdf:about="">
        <dc:format>image/svg+xml</dc:format>
        <dc:type
           rdf:resource="http://purl.org/dc/dcmitype/StillImage" />
      </cc:Work>
    </rdf:RDF>
  </metadata>
  <defs
     id="defs4">
    <style
       id="style2"
       type="text/css"><![CDATA[    
     @font-face {font-family:Silka Bold;
     src: url('/Users/francesco/Repos/write-logos/src/fonts/Fonts_E_TEMPORANEA/Silka-Bold.otf');}
     @font-face {font-family:Bungee Outline;
     src: url('/Users/francesco/Repos/write-logos/src/fonts/Fonts_X/BungeeOutline-Regular.ttf');}
     ]]></style>
  </defs>
  <g
     id="g14"
     style="font-size:60px">
    <g
       style="text-anchor:middle"
       id="text12"
       aria-label="EXTEMPORANEA">
      <path
         id="path22"
         style="font-family:'Silka Bold';letter-spacing:0.075em"
         d="m 135.68687,100 h 27.24 v -8.16 h -17.76 V 82.9 h 14.58 v -8.1 h -14.58 v -8.7 h 17.1 V 58 h -26.58 z" />
      <path
         id="path24"
         style="font-family:'Bungee Outline';letter-spacing:0.05em"
         d="m 180.41687,91.9 v 2.7 h -0.6 v -2.7 q 0,-1.32 0.06,-2.46 0.12,-1.2 0.84,-2.16 l 7.2,-9.84 -7.2,-9.72 q -0.66,-0.96 -0.78,-2.1 -0.12,-1.2 -0.12,-2.52 v -0.9 h 0.6 v 0.9 q 0,1.26 0.12,2.4 0.12001,1.14 0.72,1.98 l 7.2,9.72 h 7.14 l 6.96,-9.72 q 0.60001,-0.84 0.72001,-1.98 0.11999,-1.14 0.11999,-2.4 v -0.9 h 0.6 v 0.9 q 0,1.32 -0.12,2.52 -0.12,1.14 -0.78,2.1 l -7.08,9.84 7.08,9.72 q 0.66,0.96 0.78,2.16 0.12,1.14 0.12,2.46 v 2.7 h -0.6 v -2.7 q 0,-1.26 -0.11999,-2.4 -0.12,-1.14 -0.72001,-1.98 l -7.02,-9.72 h -7.2 l -7.08,9.72 q -0.59999,0.78 -0.72,1.98 -0.12,1.14 -0.12,2.4 z m 6.42,5.94 V 91.9 q 0,-0.6 0.06,-1.26 0.06,-0.66 0.48,-1.26 l 2.7,-3.78 q 0.36,-0.54 0.66,-0.78 0.3,-0.24 0.78,-0.24 h 0.84 q 0.48,0 0.78,0.24 0.3,0.24 0.66,0.78 l 2.64,3.78 q 0.42,0.6 0.48,1.26 0.06,0.66 0.06,1.26 v 5.94 q 0,1.14 0.48,1.68 0.54,0.48 1.68,0.48 h 9.12 q 1.14,0 1.62,-0.48 0.54,-0.54 0.54,-1.68 v -6.42 q 0,-2.76 -0.48,-4.14 -0.42,-1.38 -1.8,-3.24 l -4.85999,-6.48 4.85999,-6.6 q 1.32,-1.86 1.8,-3.24 0.48,-1.38 0.48,-4.14 v -4.62 q 0,-1.14 -0.54,-1.62 -0.48,-0.54 -1.62,-0.54 h -9.12 q -1.14,0 -1.68,0.54 -0.48,0.48 -0.48,1.62 v 4.14 q 0,0.6 -0.06,1.26 -0.06,0.66 -0.48,1.26 l -2.7,3.78 q -0.36,0.48 -0.66,0.78 -0.3,0.24 -0.78,0.24 h -0.72 q -0.48,0 -0.84,-0.24 -0.3,-0.3 -0.6,-0.78 l -2.64,-3.78 q -0.42,-0.6 -0.48,-1.26 -0.06,-0.66 -0.06,-1.26 v -4.14 q 0,-1.14 -0.54,-1.62 -0.48,-0.54 -1.62,-0.54 h -9.24 q -1.14,0 -1.68,0.54 -0.48,0.48 -0.48,1.62 v 4.62 q 0,2.76 0.42,4.14 0.48,1.38 1.86,3.24 l 4.86,6.54 -4.86,6.54 q -1.32,1.86 -1.8,3.24 -0.48,1.38 -0.48,4.14 v 6.42 q 0,1.14 0.48,1.68 0.54,0.48 1.68,0.48 h 9.12 q 1.14,0 1.62,-0.48 0.54,-0.54 0.54,-1.68 z m -2.16,2.76 h -9.12 q -1.44,0 -2.1,-0.66 -0.66,-0.66 -0.66,-2.1 v -6.42 q 0,-2.94 0.48,-4.38 0.48,-1.44 1.92,-3.36 l 4.62,-6.18 -4.62,-6.18 q -1.44,-1.92 -1.92,-3.36 -0.48,-1.44 -0.48,-4.38 v -4.62 q 0,-1.44 0.66,-2.1 0.66,-0.66 2.1,-0.66 h 9.24 q 1.44,0 2.1,0.66 0.66,0.66 0.66,2.1 v 4.14 q 0,0.54 0,1.14 0.06,0.54 0.42,1.02 l 2.64,3.84 q 0.24,0.3 0.42,0.54 0.18,0.18 0.54,0.18 h 0.72 q 0.36001,0 0.54,-0.24 0.18,-0.24 0.42,-0.54 l 2.7,-3.78 q 0.36,-0.48 0.36,-1.02 0.06,-0.6 0.06,-1.14 v -4.14 q 0,-1.44 0.66,-2.1 0.66,-0.66 2.1,-0.66 h 9.12 q 1.44,0 2.1,0.66 0.66,0.66 0.66,2.1 v 4.62 q 0,2.94 -0.48,4.38 -0.48,1.44 -1.92,3.36 l -4.62,6.24 4.62,6.12 q 1.44,1.92 1.92,3.36 0.48,1.44 0.48,4.38 v 6.42 q 0,1.44 -0.66,2.1 -0.66,0.66 -2.1,0.66 h -9.12 q -1.44,0 -2.1,-0.66 -0.66,-0.66 -0.66,-2.1 V 91.9 q 0,-0.54 -0.06,-1.08 0,-0.54 -0.36,-1.08 l -2.64,-3.78 q -0.24,-0.36 -0.42,-0.54 -0.17999,-0.24 -0.54,-0.24 h -0.84 q -0.35999,0 -0.54,0.24 -0.18,0.18 -0.42,0.54 l -2.7,3.78 q -0.36,0.54 -0.42,1.08 0,0.54 0,1.08 v 5.94 q 0,1.44 -0.66,2.1 -0.66,0.66 -2.1,0.66 z" />
      <path
         id="path26"
         style="font-family:'Silka Bold';letter-spacing:0.075em"
         d="m 230.29656,100 h 9.54 V 66.22 h 11.76 V 58 h -33 v 8.22 h 11.7 z" />
      <path
         id="path28"
         style="font-family:'Silka Bold';letter-spacing:0.075em"
         d="m 261.8275,100 h 27.24 v -8.16 h -17.76 V 82.9 h 14.58 v -8.1 h -14.58 v -8.7 h 17.1 V 58 h -26.58 z" />
      <path
         id="path30"
         style="font-family:'Silka Bold';letter-spacing:0.075em"
         d="m 300.0775,100 h 9.12 V 75.28 h 0.36 l 9.72,24.72 h 7.62 l 8.76,-23.76 h 0.36 V 100 h 9.18 V 58 h -11.76 l -9.96,28.5 h -0.36 L 311.7775,58 h -11.7 z" />
      <path
         id="path32"
         style="font-family:'Silka Bold';letter-spacing:0.075em"
         d="m 357.89781,100 h 9.48 V 86.2 h 6.78 c 8.1,0 14.64,-5.94 14.64,-14.16 0,-8.28 -6.3,-14.04 -14.64,-14.04 h -16.26 z m 9.48,-21.84 V 66.1 h 5.82 c 3.42,0 5.94,2.28 5.94,5.94 0,3.66 -2.52,6.12 -5.94,6.12 z" />
      <path
         id="path34"
         style="font-family:'Silka Bold';letter-spacing:0.075em"
         d="m 419.54031,100.78 c 12.78,0 22.32,-9.48 22.32,-21.78 0,-12.24 -9.48,-21.78 -22.32,-21.78 -12.84,0 -22.32,9.42 -22.32,21.78 0,12.42 9.42,21.78 22.32,21.78 z m 0,-9.12 c -7.32,0 -12.48,-5.4 -12.48,-12.66 0,-7.14 5.16,-12.66 12.48,-12.66 7.26,0 12.42,5.52 12.42,12.66 0,7.26 -5.16,12.66 -12.42,12.66 z" />
      <path
         id="path36"
         style="font-family:'Silka Bold';letter-spacing:0.075em"
         d="m 452.79625,100 h 9.48 V 85.96 h 5.64 l 7.14,14.04 h 10.56 l -8.94,-15.9 c 4.26,-2.16 7.44,-6.6 7.44,-12.24 0,-8.22 -6.3,-13.86 -14.88,-13.86 h -16.44 z m 9.48,-22.14 V 66.1 h 6 c 3.72,0 6.12,2.28 6.12,5.76 0,3.9 -2.58,6 -6,6 z" />
      <path
         id="path38"
         style="font-family:'Silka Bold';letter-spacing:0.075em"
         d="m 492.72531,100 h 9.72 l 2.46,-7.44 h 16.08 l 2.52,7.44 h 10.08 l -14.46,-42 h -12.12 z m 14.76,-15.9 5.22,-15.66 h 0.54 l 5.16,15.66 z" />
      <path
         id="path40"
         style="font-family:'Silka Bold';letter-spacing:0.075em"
         d="m 543.00719,100 h 9.18 V 73.6 h 0.36 l 16.02,26.4 h 10.56 V 58 h -9.18 v 26.4 h -0.36 l -16.08,-26.4 h -10.5 z" />
      <path
         id="path42"
         style="font-family:'Silka Bold';letter-spacing:0.075em"
         d="m 591.92125,100 h 27.24 v -8.16 h -17.76 V 82.9 h 14.58 v -8.1 h -14.58 v -8.7 h 17.1 V 58 h -26.58 z" />
      <path
         id="path44"
         style="font-family:'Silka Bold';letter-spacing:0.075em"
         d="m 626.81125,100 h 9.72 l 2.46,-7.44 h 16.08 l 2.52,7.44 h 10.08 l -14.46,-42 h -12.12 z m 14.76,-15.9 5.22,-15.66 h 0.54 l 5.16,15.66 z" />
    </g>
  </g>
</svg>
