<?xml version="1.0" encoding="UTF-8" standalone="no"?>
<svg
   xmlns:dc="http://purl.org/dc/elements/1.1/"
   xmlns:cc="http://creativecommons.org/ns#"
   xmlns:rdf="http://www.w3.org/1999/02/22-rdf-syntax-ns#"
   xmlns:svg="http://www.w3.org/2000/svg"
   xmlns="http://www.w3.org/2000/svg"
   id="svg16"
   width="800px"
   version="1.1"
   height="200px">
  <metadata
     id="metadata20">
    <rdf:RDF>
      <cc:Work
         rdf:about="">
        <dc:format>image/svg+xml</dc:format>
        <dc:type
           rdf:resource="http://purl.org/dc/dcmitype/StillImage" />
      </cc:Work>
    </rdf:RDF>
  </metadata>
  <defs
     id="defs4">
    <style
       id="style2"
       type="text/css"><![CDATA[    
     @font-face {font-family:Silka;
     src: url('/Users/francesco/Repos/write-logos/src/fonts/Fonts_E_TEMPORANEA/Silka-Regular.otf');}
     @font-face {font-family:Deadlist;
     src: url('/Users/francesco/Repos/write-logos/src/fonts/Fonts_X/Deadlist.ttf');}
     ]]></style>
  </defs>
  <g
     id="g14"
     style="font-size:60px">
    <g
       style="text-anchor:middle"
       id="text12"
       aria-label="EXTEMPORANEA">
      <path
         id="path22"
         style="font-family:Silka;letter-spacing:0.075em"
         d="m 143.58203,100 h 24.6 v -4.38 h -19.74 V 80.8 h 16.44 v -4.38 h -16.44 V 62.44 h 19.08 V 58 h -23.94 z" />
      <path
         id="path24"
         style="font-family:Deadlist;letter-spacing:0.05em"
         d="m 175.71484,56.44 h 13.44 v 12.42 l 2.4,2.52 v 0.06 q -0.96,0.48 -0.96,0.66 l -0.18,0.24 q 0.18,0 1.32,0.12 l -0.06,0.18 h 0.42 v 0.06 l -0.36,0.12 v 0.06 h 0.66 q 0,0.24 0.78,0.36 h 0.12 v -0.06 q -0.48,-0.3 -0.66,-0.3 v -0.06 q 0.48,-0.12 0.72,-0.12 v -0.06 h -0.18 l 0.12,-0.18 q -1.26,-0.12 -2.34,-0.3 V 72.1 q 0.24,0 2.94,-0.36 v -0.12 q -0.3,0 -0.6,-0.06 v -0.12 q 0.6,0 0.6,-0.36 0.72,-0.12 0.72,-0.36 h 0.18 q 0.3,0 0.48,-0.06 l 0.78,0.18 1.92,-1.98 V 56.44 h 13.38 V 70.3 q -0.54,0.42 -1.44,0.42 l 0.12,0.18 q -0.36,0 -0.54,0.18 l 0.18,0.36 h -0.36 v 0.12 q 0.42,0.06 0.9,0.06 v 0.12 l -2.52,0.36 v 0.06 l 2.7,0.3 v 0.06 h -0.18 v 0.12 h 0.36 v 0.06 q -0.12,0 -0.54,0.12 v 0.06 h 0.54 l -0.12,0.18 0.48,0.12 v 0.06 h -0.18 v 0.12 q 0.42,0 0.78,0.06 v 0.12 q -0.84,0 -1.14,0.24 -0.36,0 -0.36,0.36 h 0.18 v 0.12 q -1.08,0 -1.38,0.42 3.24,0.3 3.96,0.54 v 0.12 q -0.24,0 -0.78,0.18 v 0.06 l 0.36,0.12 v 0.06 l -2.46,0.54 v 0.12 h 0.18 v 0.06 q -0.9,0 -0.9,0.18 0.12,0 0.12,0.12 h -0.36 l 0.06,0.18 h -0.72 v 0.06 q 0.42,0 1.44,0.18 v 0.12 l -0.9,0.06 v 0.12 h 0.48 v 0.06 q -0.36,0 -1.62,0.36 -0.3,0 -0.3,0.18 0.66,0 1.02,0.3 v 0.06 l -0.36,0.12 v 0.18 h 0.18 v 0.06 q -1.62,0 -3.06,0.36 v 0.12 h 0.36 v 0.06 l -0.48,0.12 v 0.06 h 0.66 l -0.18,0.3 q 0.06,0 0.06,0.06 h -0.18 v 0.18 q 0.48,0.18 1.98,0.3 0,0.18 -0.54,0.18 v 0.06 l 1.02,0.18 q 0,0.18 -0.36,0.18 v 0.12 l 0.6,0.06 h 0.36 v 0.18 h 1.02 q 0,0.42 2.76,0.54 V 82 q -0.6,0 -0.9,0.42 h 0.3 l -0.12,0.18 q 0.18,0.12 1.08,0.18 v 0.12 q -0.78,0 -0.78,0.18 0.06,0 0.06,0.06 -0.12,0.12 -0.42,0.12 v 0.06 q 0.36,0 0.36,0.18 -0.12,0 -0.12,0.12 l 0.54,0.06 v 0.12 q -0.36,0 -1.44,0.24 v 0.18 h 0.18 l -0.06,0.18 v 0.12 h 0.36 v 0.06 q -0.3,0 -0.66,0.12 v 0.06 q 0.18,0 1.02,0.3 0,0.18 -0.36,0.18 v 0.06 h 0.18 v 0.12 h -0.18 v 0.06 q 0.96,0 0.96,0.3 v 0.06 l -0.9,-0.24 V 100 h -13.38 V 87.58 q 0,-0.12 -1.44,-1.44 l 0.06,-0.48 v -0.18 h -0.72 q 0,-0.18 -0.24,-0.18 v -0.06 h 0.24 q 0,-0.18 -1.32,-0.48 v -0.18 h 0.24 v -0.06 q -0.18,0 -0.6,-0.3 -0.18,-0.06 -0.3,-0.06 v -0.12 q 0.84,-0.24 1.2,-0.24 v -0.12 q -0.24,0 -0.72,-0.06 l 0.06,-0.18 -0.9,-0.18 0.12,0.18 v 0.06 h -0.18 q 0,0.18 0.36,0.18 v 0.12 q -1.86,0.12 -1.92,0.42 0.12,0 0.12,0.12 -0.3,0 -0.3,0.18 h 0.3 v 0.06 q -0.36,0 -0.84,0.12 v 0.06 q 0.66,0.18 0.66,0.36 l -0.54,0.12 0.06,0.18 h -0.24 v 0.06 h 0.72 q 0,0.24 0.06,0.36 h -0.18 v 0.12 q 0.36,0.06 0.66,0.06 v 0.18 q -0.48,0 -1.02,0.54 -0.3,-0.18 -0.78,-0.18 -0.18,0.12 -0.3,0.12 l 0.3,-0.54 h -0.12 l -1.32,1.44 V 100 h -13.44 V 85.6 h 0.18 v -0.12 h -0.18 l 0.12,-0.18 h -0.18 v -0.06 h 0.36 v -0.18 q -0.9,-0.3 -0.9,-0.3 0,-0.18 0.42,-0.18 v -0.06 h -0.24 l 0.06,-0.18 v -0.12 q -0.24,0 -0.24,-0.18 1.14,-0.24 1.5,-0.24 v -0.12 l -0.54,-0.06 V 83.5 h 0.18 v -0.06 l -0.42,-0.12 v -0.06 l 0.54,-0.12 v -0.06 h -0.18 q 0,-0.18 0.18,-0.18 h 0.9 v -0.12 l -0.48,-0.06 q 0,-0.18 0.3,-0.18 l -0.12,-0.18 q 1.38,-0.36 1.62,-0.36 v -0.12 q -1.5,0 -1.68,-0.54 h -0.66 q 0,-0.24 -0.54,-0.24 v -0.12 q 0.3,0 0.84,-0.06 0,-0.3 -0.66,-0.3 v -0.06 q 0.66,0 1.02,-0.12 v -0.06 l -0.9,-0.12 h -0.18 v -0.18 q 0,-0.12 0.96,-0.42 v -0.12 h -0.36 v -0.06 l 0.84,-0.12 -0.12,-0.18 0.54,-0.18 q 2.46,-0.18 3.36,-0.18 h 0.06 q 0,-0.36 0.72,-0.36 h 0.18 q 0,-0.06 0.12,-0.24 l -1.08,-0.18 v -0.12 q 0.18,0 0.54,-0.18 l -0.12,-0.18 h 0.36 V 77.5 h -0.54 v -0.12 h 0.48 V 77.2 h -0.12 q -1.44,-0.18 -1.86,-0.18 v -0.06 h 0.6 v -0.12 h -0.24 v -0.06 h 0.24 v -0.12 q -0.06,0 -0.72,-0.06 v -0.12 h 0.9 v -0.06 h -0.42 V 76.3 h 0.24 v -0.06 h -0.18 q 0,-0.18 1.26,-0.36 v -0.12 q -0.42,-0.18 -0.78,-0.18 v -0.06 h 0.18 V 75.4 h -0.3 v -0.06 h 0.36 v -0.12 l -5.28,-0.6 V 74.5 h 0.18 v -0.06 h -0.3 v -0.18 h 0.66 v -0.12 q -0.3,0 -0.72,-0.24 h -0.18 v -0.12 h 0.42 v -0.06 l -0.42,-0.12 v -0.06 h 0.78 v -0.12 q -0.12,0 -0.9,-0.06 v -0.12 h 0.18 v -0.06 q -0.72,-0.3 -0.96,-0.3 v -0.06 l 0.54,-0.12 v -0.06 q -0.3,0 -0.3,-0.18 -0.36,0 -2.7,-0.3 V 72.1 q 0.3,0 2.46,-0.36 h 0.06 v -0.12 q -0.3,0 -0.78,-0.06 v -0.12 h 0.36 v -0.06 l -0.18,-0.3 q 0,0 0.36,-0.06 0.18,0.36 1.08,0.36 l 0.42,-0.12 z m 13.26,15.66 v 0.06 q 0.06,0 0.24,0.12 h 0.18 v -0.12 q -0.18,0 -0.36,-0.06 z m 3.96,14.1 h 0.06 q 0.78,0.12 0.9,0.12 v 0.06 h -0.18 v 0.12 h 0.36 v 0.06 h -0.9 q -0.12,0 -0.24,-0.24 z" />
      <path
         id="path26"
         style="font-family:Silka;letter-spacing:0.075em"
         d="m 232.37828,100 h 4.86 V 62.44 h 12.84 V 58 h -30.54 v 4.44 h 12.84 z" />
      <path
         id="path28"
         style="font-family:Silka;letter-spacing:0.075em"
         d="m 262.33984,100 h 24.6 v -4.38 h -19.74 V 80.8 h 16.44 v -4.38 h -16.44 V 62.44 h 19.08 V 58 h -23.94 z" />
      <path
         id="path30"
         style="font-family:Silka;letter-spacing:0.075em"
         d="m 300.47266,100 h 4.68 V 68.68 h 0.36 l 13.98,31.32 h 5.52 l 12.78,-31.32 h 0.36 V 100 h 4.68 V 58 h -5.34 l -15.06,36.66 h -0.36 L 305.81266,58 h -5.34 z" />
      <path
         id="path32"
         style="font-family:Silka;letter-spacing:0.075em"
         d="m 359.34766,100 h 4.86 V 83.38 h 10.2 c 7.38,0 12.84,-5.22 12.84,-12.78 0,-7.62 -5.22,-12.6 -12.84,-12.6 h -15.06 z m 4.86,-20.94 V 62.32 h 9.78 c 5.04,0 8.28,3.48 8.28,8.28 0,4.86 -3.24,8.46 -8.28,8.46 z" />
      <path
         id="path34"
         style="font-family:Silka;letter-spacing:0.075em"
         d="m 418.83578,100.78 c 12.54,0 21.78,-9.42 21.78,-21.78 0,-12.24 -9.18,-21.78 -21.72,-21.78 -12.48,0 -21.72,9.42 -21.72,21.78 0,12.48 9.18,21.78 21.66,21.78 z m 0.06,-4.56 c -9.6,0 -16.68,-7.26 -16.68,-17.22 0,-9.84 7.08,-17.22 16.68,-17.22 9.6,0 16.68,7.38 16.68,17.22 0,9.96 -7.08,17.22 -16.68,17.22 z" />
      <path
         id="path36"
         style="font-family:Silka;letter-spacing:0.075em"
         d="m 454.12891,100 h 4.86 V 83.02 h 9.18 l 9.3,16.98 h 5.64 l -9.84,-17.46 c 4.74,-1.38 8.76,-5.94 8.76,-12.12 0,-7.38 -5.1,-12.42 -13.68,-12.42 h -14.22 z m 4.86,-21.3 V 62.32 h 9.06 c 5.94,0 8.94,3.66 8.94,8.1 0,5.52 -3.72,8.28 -8.64,8.28 z" />
      <path
         id="path38"
         style="font-family:Silka;letter-spacing:0.075em"
         d="m 491.56328,100 h 5.1 l 3.78,-9.96 h 20.28 l 3.78,9.96 h 5.1 l -16.14,-42 h -5.7 z m 10.56,-14.4 8.28,-21.96 h 0.36 l 8.28,21.96 z" />
      <path
         id="path40"
         style="font-family:Silka;letter-spacing:0.075em"
         d="m 541.29297,100 h 4.86 V 66.46 h 0.36 l 21.72,33.54 h 5.16 V 58 h -4.8 v 33.54 h -0.36 L 546.27297,58 h -4.98 z" />
      <path
         id="path42"
         style="font-family:Silka;letter-spacing:0.075em"
         d="m 589.85547,100 h 24.6 v -4.38 h -19.74 V 80.8 h 16.44 v -4.38 h -16.44 V 62.44 h 19.08 V 58 h -23.94 z" />
      <path
         id="path44"
         style="font-family:Silka;letter-spacing:0.075em"
         d="m 623.18828,100 h 5.1 l 3.78,-9.96 h 20.28 l 3.78,9.96 h 5.1 l -16.14,-42 h -5.7 z m 10.56,-14.4 8.28,-21.96 h 0.36 l 8.28,21.96 z" />
    </g>
  </g>
</svg>
