<?xml version="1.0" encoding="UTF-8" standalone="no"?>
<svg
   xmlns:dc="http://purl.org/dc/elements/1.1/"
   xmlns:cc="http://creativecommons.org/ns#"
   xmlns:rdf="http://www.w3.org/1999/02/22-rdf-syntax-ns#"
   xmlns:svg="http://www.w3.org/2000/svg"
   xmlns="http://www.w3.org/2000/svg"
   id="svg16"
   width="800px"
   version="1.1"
   height="200px">
  <metadata
     id="metadata20">
    <rdf:RDF>
      <cc:Work
         rdf:about="">
        <dc:format>image/svg+xml</dc:format>
        <dc:type
           rdf:resource="http://purl.org/dc/dcmitype/StillImage" />
      </cc:Work>
    </rdf:RDF>
  </metadata>
  <defs
     id="defs4">
    <style
       id="style2"
       type="text/css"><![CDATA[    
     @font-face {font-family:Silka Bold;
     src: url('/Users/francesco/Repos/write-logos/src/fonts/Fonts_E_TEMPORANEA/Silka-Bold.otf');}
     @font-face {font-family:MADE Soulmaze Brush;
     src: url('/Users/francesco/Repos/write-logos/src/fonts/Fonts_X/SoulmazeBrush.otf');}
     ]]></style>
  </defs>
  <g
     id="g14"
     style="font-size:60px">
    <g
       style="text-anchor:middle"
       id="text12"
       aria-label="EXTEMPORANEA">
      <path
         id="path22"
         style="font-family:'Silka Bold';letter-spacing:0.075em"
         d="m 142.71812,100 h 27.24 v -8.16 h -17.76 V 82.9 h 14.58 v -8.1 h -14.58 v -8.7 h 17.1 V 58 h -26.58 z" />
      <path
         id="path24"
         style="font-family:'MADE Soulmaze Brush';letter-spacing:0.05em"
         d="m 184.56812,66.28 c -0.06,-0.06 -0.06,-0.06 -0.06,-0.06 0,0 0.06,0 0.06,0.06 0.06,0.06 0,0.18 0.06,0.24 0.06,0.36 0.18,0.66 0.18,1.02 0.06,0.36 0.12,0.66 0.18,0.96 0.06,0.6 0.18,1.14 0.3,1.68 0.12,0.48 0.18,1.02 0.36,1.56 0.06,0.18 0,0.42 0.06,0.6 0.12,0.24 0.18,0.48 0.12,0.78 0.12,0.24 0.24,0.42 0.24,0.66 0,0.12 0.06,0.18 0.12001,0.24 0,0.3 -0.12001,0.66 0.11999,0.9 0,0.24 0.06,0.48 0.18,0.66 -0.06,0.12 -0.12,0.18 -0.18,0.3 -0.11999,0.12 -0.24,0.24 -0.3,0.36 -0.06,0.18 -0.24,0.36 -0.42,0.54 -0.12,0.24 -0.36,0.42 -0.54,0.6 -0.12,0.18 -0.3,0.36 -0.48,0.54 -0.24,0.24 -0.42,0.42 -0.6,0.72 -0.12,0.18 -0.24,0.36 -0.42,0.54 -0.24,0.3 -0.42,0.6 -0.6,0.9 -0.06,0.06 -0.18,0.18 -0.24,0.24 -0.36,0.36 -0.78,0.72 -1.01999,1.2 -0.06,0.06 -0.06,0.12 -0.12001,0.12 -0.24,0.3 -0.42,0.54 -0.66,0.78 -0.12,0.24 -0.3,0.42 -0.42,0.66 -0.29999,0.42 -0.6,0.84 -0.84,1.26 -0.24,0.42 -0.48,0.78 -0.84,1.14 -0.3,0.3 -0.54,0.66 -0.66,1.02 -0.06,0.24 -0.24,0.42 -0.48,0.54 -0.3,0.24 -0.54,0.48 -0.72,0.78 -0.12,0.24 -0.24,0.48 -0.42,0.66 0,0.06 0,0.18 -0.06,0.24 -0.06,0.12 -0.12,0.3 -0.24,0.42 -0.3,0.36 -0.53999,0.84 -0.78,1.26 -0.18,0.36 -0.42,0.6 -0.54,0.96 -0.12,0.18 -0.24,0.36 -0.24,0.6 -0.06,0.12 -0.12,0.18 -0.18,0.3 -0.18,0.36 -0.29999,0.78 -0.54,1.02 -0.06,0.06 -0.06,0.06 -0.06,0.06 -0.18,0.36 -0.3,0.78 -0.6,1.14 0.12,0.18 -0.06,0.3 0,0.48 0.12,0 0.18,0 0.3,0 0.06,0.36 -0.18,0.6 -0.3,0.9 0,0.06 0,0.12 0,0.12 0,0.06 0,0.12 0,0.18 -0.06,0.18 -0.06,0.18 0,0.48 0.24,-0.18 0.36,-0.54 0.6,-0.72 0.30001,0.24 0.06,0.48 0.06,0.72 0,0.06 0.06,0.12 0.12,0.18 -0.06,0.12 -0.06,0.18 -0.06,0.3 -0.12,0.12 -0.18,0.18 -0.24,0.3 -0.06,0.12 -0.18,0.24 -0.18,0.42 0,0.24 -0.06,0.42 -0.18,0.6 -0.12,0.24 -0.18,0.48 -0.12,0.72 0.36,-0.24 0.54,-0.66 0.90001,-0.84 0.06,0 0.17999,0.06 0.29999,0 0.3,-0.3 0.48,-0.78 0.78,-1.2 0.06,0 0.12,-0.06 0.18,-0.12 0,0 0.06,0 0.06,0 0,-0.06 0,-0.06 0.06,-0.12 0,0.06 -0.06,0.06 -0.06,0.12 0,0 0,0 -0.06,0 -0.06,0.18 -0.18,0.36 -0.18,0.54 0.18,-0.12 0.3,-0.3 0.48,-0.42 0.12,0 0.18,-0.06 0.24,-0.18 0.24,-0.24 0.42,-0.48 0.6,-0.72 0.36,-0.42 0.66,-0.84 1.02,-1.2 0.18,-0.18 0.36,-0.36 0.54,-0.54 0.12,-0.12 0.24,-0.24 0.42,-0.3 0.06,-0.24 0.06,-0.24 0.3,-0.3 0.06,-0.06 0.06,-0.18 0.18,-0.3 0.06,-0.06 0.18,-0.06 0.3,-0.18 0.06,0 -0.06,-0.12 0,-0.18 0.3,0.06 0.36,-0.24 0.54,-0.3 0.06,-0.06 0,-0.12 0.06,-0.18 0,0 0.06,0 0.12,0 0.24,-0.18 0.36,-0.48 0.6,-0.66 0,-0.06 -0.12,0 -0.12,-0.12 0.06,0 0.06,-0.06 0.12,-0.06 0.06,0.06 0.06,0.12 0.12,0.12 0.18,-0.12 0.3,-0.3 0.36,-0.54 0,-0.06 0.06,-0.12 0.18,-0.12 0.06,-0.06 0.12,0 0.12,-0.06 0.18,-0.18 0.36,-0.36 0.54,-0.48 0.24,-0.36 0.36,-0.66 0.84,-0.72 0.06,-0.18 0.3,-0.3 0.42,-0.48 0.06,-0.06 0.18,-0.18 0.24,-0.18 0.12,0 0.18,-0.06 0.24,-0.06 0.18,-0.12 0.36,-0.24 0.42,-0.48 0.06,-0.06 0.06,-0.06 0.12,-0.06 0,-0.06 -0.06,-0.12 0,-0.12 0.06,-0.06 0.12,-0.18 0.24,-0.18 0.06,0.12 0.06,0.24 0.06,0.36 0.12001,0 0.18,-0.06 0.24,-0.12 0.12,-0.12 0.3,-0.24 0.48,-0.3 0.12,-0.06 0.24,-0.12 0.36,-0.24 0.18,-0.18 0.42,-0.42 0.66,-0.6 0.24,-0.18 0.42,-0.36 0.66,-0.48 0.06,-0.12 0.06,-0.3 0.12,-0.42 0.18,-0.18 0.36,-0.36 0.48,-0.54 0.42,-0.06 0.72,-0.3 1.08,-0.6 0.06,0.18 0.18,0.36 0.36,0.48 0.06,0.06 0.06,0.18 0.06,0.24 0,0.24 0,0.54 0.12001,0.72 0.17999,0.42 0.35999,0.9 0.53999,1.32 0.12,0.3 0.24,0.54 0.24,0.84 0,0.06 0.06,0.06 0.12,0.06 0.06,0.3 0.12,0.66 0.24,0.96 0.12,0.42 0.18,0.9 0.3,1.32 0.06,0.12 0.12,0.18 0.18,0.24 -0.06,0.12 0,0.24 0,0.3 0.06,0.18 0.18,0.36 0.12,0.54 0,0.18 0.06,0.3 0.18,0.42 0,0.12 0.06,0.24 0.06,0.36 0.06,0.36 0.18,0.66 0.24,1.02 0.06,0.3 0.12,0.54 0.24,0.84 0.06,0.36 0.12,0.72 0.24,1.08 0.12,0.3 0.12,0.6 0.24,0.9 0.12,0.42 0.24,0.9 0.3,1.32 0.06,0.06 0.06,0.12 0.06,0.18 -0.06,0.24 0.06,0.42 0.12,0.66 0.06,0.24 0.06,0.42 0.12,0.6 0.12,0.3 0.12,0.6 0.24,0.84 0.06,0.18 0.12,0.3 0.12,0.48 0,0.06 0.06,0.12 0.06,0.18 0.06,0.18 0.12,0.42 0.24,0.6 0.12,0.42 0.24,0.84 0.42,1.26 0.06,0.24 0.24,0.42 0.3,0.72 0.06,0.18 0.12,0.42 0.24,0.66 0.12,0.06 0.18,0.12 0.36,0.18 -0.18,-0.3 -0.24,-0.6 -0.3,-0.96 0,0.06 0.06,0.12 0.06,0.18 0.06,0.24 0.18,0.42 0.36,0.54 0.06,0.06 0.12,0.12 0.12,0.24 0.12,0.3 0.36,0.6 0.48,0.96 0,0.06 0,0.12 0.06,0.18 0.24,0.12 0.42,0.36 0.66,0.48 0.12,-0.06 0.12,-0.18 0.06,-0.24 -0.12,-0.24 -0.3,-0.54 -0.42,-0.78 -0.24,-0.3 -0.42,-0.6 -0.48,-0.96 -0.06,-0.12 -0.06,-0.24 -0.18,-0.36 -0.06,-0.06 -0.06,-0.12 -0.06,-0.18 -0.06,-0.06 -0.18,-0.06 -0.18,-0.24 0,0 0.06,0 0.12,0 0,0.06 0.12,0.06 0.12,0.12 0.06,0.36 0.3,0.66 0.42,0.96 0,0.06 0.06,0.06 0.06,0.12 0.12,0.24 0.36,0.36 0.42,0.6 0.24,0.48 0.6,0.84 0.84,1.26 0.12,0.24 0.3,0.48 0.54,0.72 0.18,0 0.36,0.12 0.42,0.3 0.12,0.12 0.24,0.18 0.36001,0.18 0.11999,0.06 0.11999,0.12 0.17999,0.12 0.18,0 0.3,-0.06 0.36,-0.12 0.12,-0.06 0.12,0.06 0.18,0 -0.06,-0.18 -0.12,-0.36 -0.18,-0.48 0,-0.12 0.12,-0.18 0.12,-0.24 -0.24,-0.42 -0.6,-0.84 -0.65999,-1.38 0.11999,0 0.23999,0.12 0.35999,0 0.06,-0.06 0,-0.18 0.06,-0.24 0.24,0.06 0.06,0.36 0.3,0.48 0,0.18 0.06,0.42 0.18,0.54 0.06,0.12 0.12,0.24 0.12,0.36 0.06,0.48 0.24,0.84 0.36,1.26 0.06,0.12 0.18001,0.18 0.3,0.24 -0.06,-0.24 -0.24,-0.36 -0.24,-0.54 -0.06,-0.24 -0.18,-0.42 -0.12,-0.66 0.12,0.12 0.24001,0.24 0.36,0.36 0.06,-0.06 0.06,-0.18 0.18,-0.18 0.18,0.12 0.36,0.3 0.48,0.48 0.18,-0.06 0.3,-0.18 0.48,-0.3 0,-0.24 0,-0.48 -0.12,-0.72 -0.12,-0.24 -0.18,-0.54 -0.3,-0.78 -0.12,-0.18 -0.12,-0.36 -0.12,-0.54 0,-0.06 0.06,-0.12 0,-0.18 -0.06,-0.24 0,-0.54 0,-0.84 0.06,-0.06 0,-0.12 0,-0.18 -0.12,-0.36 -0.3,-0.66 -0.18,-1.02 0,-0.06 -0.06,-0.06 -0.06,-0.12 0,-0.24 -0.06,-0.42 0.06,-0.66 0.06,-0.12 0,-0.3 -0.06,-0.48 -0.12,-0.24 -0.24,-0.54 -0.24,-0.84 -0.12,-0.48 -0.12,-0.9 -0.18,-1.38 0,-0.3 0,-0.54 -0.11999,-0.84 0,-0.12 -0.06,-0.24 0,-0.36 -0.06,-0.12 -0.06,-0.24 -0.06,-0.36 0,-0.18 -0.06,-0.3 -0.12,-0.48 0,-0.06 0,-0.12 0,-0.18 0,-0.24 -0.06,-0.48 -0.12,-0.72 0,-0.3 -0.06,-0.54 -0.06,-0.78 -0.06,-0.3 -0.06,-0.6 -0.24,-0.84 0,-0.06 0,-0.12 0,-0.18 0,-0.24 -0.12,-0.48 -0.12,-0.72 0.06,-0.24 -0.18,-0.48 -0.12,-0.72 0.06,-0.12 -0.06,-0.18 -0.06,-0.3 0,-0.18 0,-0.36 0,-0.6 0,0 -0.06,-0.06 -0.12,-0.06 -0.06,0 0,0.12 -0.06,0.12 -0.36,-1.5 -0.6,-3.06 -0.9,-4.56 0.06,0.3 0.18,0.6 0.3,0.96 0.06,-0.12 0.06,-0.18 0.06,-0.18 -0.12,-0.36 -0.18,-0.66 -0.24,-1.02 0,-0.36 -0.12,-0.66 -0.18,-1.02 0,-0.24 -0.06,-0.48 -0.3,-0.66 0,-0.12 -0.06,-0.24 -0.06,-0.36 0,-0.24 -0.12,-0.48 -0.06,-0.66 0.06,-0.18 0.06,-0.36 -0.06,-0.54 -0.06,-0.06 -0.12,0 -0.18,-0.06 -0.06,-0.24 -0.18,-0.48 -0.18,-0.84 0.18,0.24 0.12,0.48 0.3,0.72 0.06,-0.12 0,-0.18 0,-0.3 -0.06,-0.24 -0.18,-0.54 -0.18,-0.78 0,-0.24 -0.06,-0.48 -0.12,-0.72 -0.11999,-0.24 -0.18,-0.54 -0.36,-0.78 -0.06,-0.18 -0.12,-0.36 -0.12,-0.54 0,-0.18 0,-0.36 -0.06,-0.54 -0.06,-0.3 -0.06,-0.6 0,-0.84 0,-0.12 -0.12,-0.18 -0.06,-0.3 -0.06,-0.06 -0.12,0.06 -0.12,0 -0.12,-0.12 -0.06,-0.24 0,-0.36 -0.18,-0.12 -0.24,-0.24 -0.18,-0.42 0.06,-0.06 0.12,-0.12 0.12,-0.12 0,-0.06 0,-0.12 0,-0.12 0,-0.06 0.06,-0.06 0.12,-0.12 0.12,-0.24 0.3,-0.42 0.54001,-0.54 0.06,-0.06 0.11999,-0.12 0.11999,-0.18 0.12,-0.18 0.24,-0.24 0.36,-0.36 0.18,-0.12 0.36,-0.24 0.48,-0.42 0.06,-0.18 0.12,-0.3 0.24,-0.36 0.18,-0.06 0.24,-0.24 0.42,-0.24 0,0 0,0 0,0 -0.06,-0.18 0.06,-0.24 0.12,-0.24 0.12,-0.06 0.18,-0.12 0.24,-0.18 0.18,-0.18 0.36,-0.42 0.6,-0.48 0.06,-0.12 0.06,-0.24 0.12,-0.3 0.06,-0.06 0.18,-0.12 0.24,-0.12 0.06,-0.06 0.06,-0.18 0.12001,-0.24 0.23999,-0.18 0.35999,-0.42 0.59999,-0.6 0.06,-0.06 0.12,-0.12 0.18,-0.18 0.24,-0.3 0.6,-0.54 0.78,-0.9 0,0 0,0 0,0 0.18,-0.18 0.36,-0.3 0.48,-0.48 0.18,-0.18 0.36,-0.42 0.48,-0.66 0.06,-0.12 0.12,-0.18 0.24,-0.3 0.06,-0.06 0.18001,-0.12 0.24,-0.24 0.06,-0.06 0.12,-0.18 0.18,-0.24 0.12,-0.06 0.24,-0.18 0.36,-0.3 0.18,-0.3 0.42,-0.54 0.66,-0.78 0.12,-0.12 0.24001,-0.24 0.30001,-0.3 0.23999,-0.24 0.35999,-0.54 0.59999,-0.72 0.18,-0.18 0.36,-0.42 0.48,-0.66 0.12,-0.18 0.18,-0.3 0.3,-0.42 0.24,-0.18 0.36,-0.42 0.54,-0.66 0.18,-0.3 0.48,-0.6 0.66,-0.9 0.06,-0.12 0.18,-0.18 0.24,-0.24 0.3,-0.18 0.6,-0.42 0.84,-0.66 0.06,-0.06 0.12,-0.18 0.24,-0.24 0.18,-0.06 0.36,-0.24 0.48,-0.36 0.12001,-0.06 0.18,-0.18 0.24,-0.24 0.12,-0.42 0.42,-0.78 0.66,-1.14 0.12,-0.12 0.24,-0.24 0.36,-0.42 0.12,-0.18 0.24,-0.3 0.36001,-0.42 0.35999,-0.24 0.71999,-0.48 0.89999,-0.9 0.18,-0.36 0.42,-0.78 0.6,-1.14 0,-0.06 0,-0.18 0,-0.24 -0.06,-0.06 -0.06,-0.06 -0.06,-0.12 -0.18001,-0.36 -0.60001,-0.6 -0.60001,-1.02 -0.06,-0.06 -0.12,0 -0.18,-0.06 0.06,-0.06 0.06,-0.12 0,-0.24 -0.06,-0.06 -0.12,-0.18 -0.12,-0.24 -0.06,-0.3 -0.24,-0.48 -0.53999,-0.6 -0.30001,-0.18 -0.66001,-0.36 -1.08001,-0.48 -0.12,-0.06 -0.18,-0.12 -0.3,-0.18 -0.17999,-0.12 -0.36,-0.24 -0.54,-0.3 -0.12,0 -0.3,0 -0.42,-0.06 -0.42,0.3 -0.71999,0.12 -0.96,-0.24 -0.36,0.12 -0.6,0.3 -0.9,0.48 -0.12,0 -0.12,-0.12 -0.18,-0.12 -0.12,0.12 -0.24,0.18 -0.3,0.3 -0.12,0 -0.18,-0.06 -0.24,0 -0.06,0.18 -0.24,0.3 -0.36,0.42 -0.24,0.18 -0.3,0.42 -0.54,0.6 -0.06,0 -0.06,0 -0.06,0.06 -0.06,0.24 -0.24,0.36 -0.48,0.42 -0.06,0.12 -0.12,0.18 -0.18,0.3 -0.06,0.06 -0.18,0.12 -0.24,0.24 -0.06,0.18 -0.18,0.36 -0.36,0.54 -0.24,0.24 -0.48,0.48 -0.6,0.72 -0.06,0.06 -0.06,0.12 -0.12,0.12 -0.18,0.12 -0.36,0.3 -0.48,0.48 -0.24,0.36 -0.65999,0.66 -0.9,1.02 -0.06,0.12 -0.24,0.18 -0.3,0.3 -0.06,0 -0.18,0.06 -0.18,0.12 0,0.12 -0.06,0.18 -0.12,0.24 -0.24,0.24 -0.48,0.48 -0.78,0.72 -0.12,0.06 -0.24,0.18 -0.3,0.3 0,0.06 -0.06,0.12 -0.12,0.18 -0.18,0.12 -0.36,0.24 -0.48,0.54 -0.18,0 -0.24,0.12 -0.36,0.24 -0.17999,0.18 -0.3,0.36 -0.48,0.48 -0.42,0.42 -0.84,0.84 -1.26,1.2 -0.06,0.12 -0.12,0.18 -0.24,0.24 -0.18,0.12 -0.3,0.3 -0.48,0.42 -0.06,0.06 -0.06,0.12 -0.06,0.24 0,0.12 -0.06,0.24 -0.18,0.3 -0.06,0.06 -0.12,0.12 -0.12,0.24 -0.06,0.06 -0.06,0.12 -0.12,0.18 -0.23999,0.18 -0.42,0.42 -0.66,0.6 -0.12,0.12 -0.3,0.3 -0.48,0.42 -0.12,0.12 -0.18,0.3 -0.36,0.36 -0.12,-0.3 -0.23999,-0.6 -0.23999,-0.9 -0.12001,-0.48 -0.18001,-0.96 -0.30001,-1.44 -0.12,-0.48 -0.18,-0.96 -0.3,-1.38 0,-0.48 -0.12,-0.9 -0.3,-1.32 0,-0.36 -0.06,-0.72 -0.18,-1.02 -0.06,-0.36 -0.12,-0.72 -0.3,-1.08 0,0 0.06,-0.06 0.06,-0.12 -0.06,-0.12 -0.12,-0.3 -0.12,-0.48 -0.06,-0.36 -0.24,-0.72 -0.3,-1.14 -0.06,-0.36 -0.18,-0.66 -0.24,-0.96 -0.12,-0.36 -0.18,-0.72 -0.3,-1.08 -0.06,-0.24 -0.12,-0.54 -0.18,-0.84 -0.06,-0.24 -0.12,-0.48 -0.18,-0.72 0,-0.18 -0.06,-0.36 -0.12,-0.54 -0.06,-0.06 -0.06,-0.12 -0.06,-0.12 0,-0.18 0,-0.36 -0.06,-0.48 0,-0.12 0,-0.24 -0.06,-0.36 -0.24,-0.24 -0.36,-0.54 -0.36,-0.9 -0.06,-0.06 -0.06,-0.12 -0.12,-0.18 -0.24,-0.12 -0.48,-0.24 -0.66,-0.36 -0.24,-0.18 -0.6,-0.24 -0.9,-0.42 0,0 -0.06,0 -0.06,0 -0.3,-0.06 -0.54,-0.12 -0.72,-0.24 -0.36,-0.18 -0.66,-0.24 -1.02,-0.24 -0.48,0 -0.9,-0.12 -1.32,-0.06 0,0 -0.06,0 -0.06,0 -0.24,-0.06 -0.48,0 -0.72,0.06 -0.24,0.12 -0.36,0.24 -0.42,0.48 0,0.18 -0.12,0.3 -0.3,0.42 -0.54,0.36 -0.84,0.9 -1.02,1.5 -0.06,0.42 0,0.84 -0.12,1.2 0,0.06 0,0.06 0,0.06 0.12,0.3 0.12,0.66 0.12,0.96 0,0.12 0,0.18 0,0.3 0.12001,0.3 0.12001,0.66 0.12001,0.96 0,0.06 0,0.18 0,0.24 0.06,0.24 0.06,0.48 0.11999,0.72 0.06,0.3 0.06,0.66 0.06,0.96 0.12,0.66 0.18,1.26 0.3,1.92 0.06,0.3 0.06,0.66 0.12,0.96 0.06,0.54 0.24,1.08 0.24,1.62 0,0.12 0.06,0.3 0.06,0.42 0.12,0.48 0.18,0.96 0.3,1.44 0.06,0.48 0.12,0.96 0.24,1.44 0,0.06 0,0.12 0.06,0.24 0.06,-0.12 0.11999,-0.18 0.11999,-0.24 -0.06,-0.12 0,-0.24 -0.06,-0.3 0.06,-0.06 0.06,0 0.12,-0.06 0.06,-0.48 -0.12,-1.02 -0.12,-1.5 -0.06,-0.06 -0.18,-0.06 -0.24,-0.18 0,-0.06 0,-0.12 0,-0.18 0.06,-0.06 0.12,-0.06 0.12,-0.12 -0.12,-0.36 -0.12,-0.6 -0.06,-0.84 z m 7.44,27.36 c -0.06,-0.06 -0.06,-0.12 -0.06,-0.24 0.12,0.12 0.06,0.18 0.06,0.24 0.06,0.06 0.06,0.12 0.06,0.18 -0.06,-0.06 -0.06,-0.12 -0.06,-0.18 z m 2.76,9.84 c 0.06,0.06 0.12,0.12 0,0.24 0,-0.12 0,-0.18 0,-0.24 -0.06,-0.06 -0.06,-0.12 -0.06,-0.18 0.12,0 0.06,0.12 0.06,0.18 z m -0.72,-2.28 c -0.18,-0.24 -0.24,-0.48 -0.35999,-0.72 -0.06,-0.12 -0.06,-0.24 0.06,-0.36 0.17999,0.36 0.23999,0.72 0.29999,1.08 0.12,0.06 0.06,0.24 0.12,0.36 0.06,0.06 0.06,0.12 0.12,0.18 0.06,0.3 0.18,0.6 0.24,0.9 0.06,0.12 0.06,0.18 0.12,0.24 0,0.06 0.06,0.18 0.06,0.3 -0.3,-0.36 -0.3,-0.78 -0.54,-1.14 0.06,-0.18 -0.06,-0.3 0,-0.48 -0.12,-0.12 -0.12,-0.24 -0.12,-0.36 z m -0.54,-1.32 c 0,-0.12 -0.06,-0.24 0,-0.42 0.06,0.12 0.12,0.24 0.24001,0.3 -0.06,0.06 -0.12001,0.12 -0.24001,0.12 z m 4.44,5.64 c 0,0 0,0.06 0,0.06 0,0.12 -0.12,0.18 -0.06,0.3 -0.18,-0.06 -0.12,-0.18 -0.12,-0.24 0,-0.06 0.06,-0.12 0.18,-0.12 z m -5.04,-8.22 c 0,-0.3 -0.18,-0.48 -0.12,-0.72 0.06,0.24 0.12,0.42 0.18,0.6 0,0 0,0.06 -0.06,0.12 z m 0.36,1.14 c 0,0.06 -0.06,0.06 -0.12,0.06 -0.06,-0.06 0,-0.12 -0.06,-0.18 0.06,-0.06 0.06,-0.06 0.12,-0.06 0.06,0.06 0.06,0.12 0.06,0.18 z m -0.18,-0.48 c -0.06,-0.12 -0.18,-0.3 -0.06,-0.48 0,0.18 0.06,0.3 0.06,0.48 0,0 0,0 0,0 z m 0.3,1.02 c 0.12,0.12 0.06,0.18 0.06,0.3 -0.12,-0.12 -0.12,-0.12 -0.06,-0.3 z m -0.9,-3.42 c -0.06,-0.12 -0.12,-0.24 -0.18,-0.36 0.24,0.12 0.24,0.18 0.18,0.36 z m -0.29999,-1.14 c 0.11999,0.12 0.11999,0.18 0.11999,0.3 -0.18,-0.06 -0.11999,-0.18 -0.11999,-0.3 z m 3.53999,-14.82 c -0.12,-0.06 -0.06,-0.12 -0.06,-0.12 0.06,-0.06 0.06,0 0.06,0.06 0,0 0,0.06 0,0.06 z m -4.38,11.16 c 0.06,0.12 0.12,0.12 0.06,0.24 -0.06,-0.06 -0.06,-0.12 -0.06,-0.24 z m 6.24,-2.7 c 0.06,0.06 0.06,0.06 0.06,0.12 -0.06,0 -0.06,-0.06 -0.06,-0.12 z m -12.89999,0.3 c 0,0.06 0,0.06 -0.06,0.12 0,-0.06 0,-0.12 0.06,-0.12 z m 7.13999,4.5 c 0,0.06 0.06,0.06 0,0.06 0,0 0,0 0,-0.06 z m -8.46,-2.88 c -0.12,0 -0.17999,0 -0.24,0.12 -0.12,0.18 -0.3,0.3 -0.42,0.42 0,0.06 -0.06,0.12 -0.06,0.18 0.12,0 0.12,-0.06 0.18,-0.12 0.12,-0.12 0.18,-0.18 0.3,-0.24 0.12,-0.12 0.18,-0.24 0.24,-0.36 z m 0,0 c 0,0 0,0 0,0 0,0 0,0 0,0 0,0 0,0 0,0 z" />
      <path
         id="path26"
         style="font-family:'Silka Bold';letter-spacing:0.075em"
         d="m 223.26531,100 h 9.54 V 66.22 h 11.76 V 58 h -33 v 8.22 h 11.7 z" />
      <path
         id="path28"
         style="font-family:'Silka Bold';letter-spacing:0.075em"
         d="m 254.79625,100 h 27.24 v -8.16 h -17.76 V 82.9 h 14.58 v -8.1 h -14.58 v -8.7 h 17.1 V 58 h -26.58 z" />
      <path
         id="path30"
         style="font-family:'Silka Bold';letter-spacing:0.075em"
         d="m 293.04625,100 h 9.12 V 75.28 h 0.36 l 9.72,24.72 h 7.62 l 8.76,-23.76 h 0.36 V 100 h 9.18 V 58 h -11.76 l -9.96,28.5 h -0.36 l -11.34,-28.5 h -11.7 z" />
      <path
         id="path32"
         style="font-family:'Silka Bold';letter-spacing:0.075em"
         d="m 350.86656,100 h 9.48 V 86.2 h 6.78 c 8.1,0 14.64,-5.94 14.64,-14.16 0,-8.28 -6.3,-14.04 -14.64,-14.04 h -16.26 z m 9.48,-21.84 V 66.1 h 5.82 c 3.42,0 5.94,2.28 5.94,5.94 0,3.66 -2.52,6.12 -5.94,6.12 z" />
      <path
         id="path34"
         style="font-family:'Silka Bold';letter-spacing:0.075em"
         d="m 412.50906,100.78 c 12.78,0 22.32,-9.48 22.32,-21.78 0,-12.24 -9.48,-21.78 -22.32,-21.78 -12.84,0 -22.32,9.42 -22.32,21.78 0,12.42 9.42,21.78 22.32,21.78 z m 0,-9.12 c -7.32,0 -12.48,-5.4 -12.48,-12.66 0,-7.14 5.16,-12.66 12.48,-12.66 7.26,0 12.42,5.52 12.42,12.66 0,7.26 -5.16,12.66 -12.42,12.66 z" />
      <path
         id="path36"
         style="font-family:'Silka Bold';letter-spacing:0.075em"
         d="m 445.765,100 h 9.48 V 85.96 h 5.64 l 7.14,14.04 h 10.56 l -8.94,-15.9 c 4.26,-2.16 7.44,-6.6 7.44,-12.24 0,-8.22 -6.3,-13.86 -14.88,-13.86 h -16.44 z m 9.48,-22.14 V 66.1 h 6 c 3.72,0 6.12,2.28 6.12,5.76 0,3.9 -2.58,6 -6,6 z" />
      <path
         id="path38"
         style="font-family:'Silka Bold';letter-spacing:0.075em"
         d="m 485.69406,100 h 9.72 l 2.46,-7.44 h 16.08 l 2.52,7.44 h 10.08 l -14.46,-42 h -12.12 z m 14.76,-15.9 5.22,-15.66 h 0.54 l 5.16,15.66 z" />
      <path
         id="path40"
         style="font-family:'Silka Bold';letter-spacing:0.075em"
         d="m 535.97594,100 h 9.18 V 73.6 h 0.36 l 16.02,26.4 h 10.56 V 58 h -9.18 v 26.4 h -0.36 l -16.08,-26.4 h -10.5 z" />
      <path
         id="path42"
         style="font-family:'Silka Bold';letter-spacing:0.075em"
         d="m 584.89,100 h 27.24 V 91.84 H 594.37 V 82.9 h 14.58 v -8.1 h -14.58 v -8.7 h 17.1 V 58 h -26.58 z" />
      <path
         id="path44"
         style="font-family:'Silka Bold';letter-spacing:0.075em"
         d="m 619.78,100 h 9.72 l 2.46,-7.44 h 16.08 l 2.52,7.44 h 10.08 L 646.18,58 h -12.12 z m 14.76,-15.9 5.22,-15.66 h 0.54 l 5.16,15.66 z" />
    </g>
  </g>
</svg>
