<?xml version="1.0" encoding="UTF-8" standalone="no"?>
<svg
   xmlns:dc="http://purl.org/dc/elements/1.1/"
   xmlns:cc="http://creativecommons.org/ns#"
   xmlns:rdf="http://www.w3.org/1999/02/22-rdf-syntax-ns#"
   xmlns:svg="http://www.w3.org/2000/svg"
   xmlns="http://www.w3.org/2000/svg"
   id="svg16"
   width="800px"
   version="1.1"
   height="200px">
  <metadata
     id="metadata20">
    <rdf:RDF>
      <cc:Work
         rdf:about="">
        <dc:format>image/svg+xml</dc:format>
        <dc:type
           rdf:resource="http://purl.org/dc/dcmitype/StillImage" />
      </cc:Work>
    </rdf:RDF>
  </metadata>
  <defs
     id="defs4">
    <style
       id="style2"
       type="text/css"><![CDATA[    
     @font-face {font-family:Silka Black;
     src: url('/Users/francesco/Repos/write-logos/src/fonts/Fonts_E_TEMPORANEA/Silka-Black.otf');}
     @font-face {font-family:FrankfurterEF;
     src: url('/Users/francesco/Repos/write-logos/src/fonts/Fonts_X/FrankfurterEF-Highlight.ttf');}
     ]]></style>
  </defs>
  <g
     id="g14"
     style="font-size:60px">
    <g
       style="text-anchor:middle"
       id="text12"
       aria-label="EXTEMPORANEA">
      <path
         id="path22"
         style="font-family:'Silka Black';letter-spacing:0.075em"
         d="m 137.71797,100 h 28.38 v -9.78 h -16.86 V 83.8 h 13.74 v -9.72 h -13.74 v -6.36 h 16.26 V 58 h -27.78 z" />
      <path
         id="path24"
         style="font-family:FrankfurterEF;letter-spacing:0.05em"
         d="m 207.70797,93.7 q 0,-1.2 -0.42,-2.28 -0.36,-1.08 -1.02,-2.04 l -7.5,-10.02 6.12,-8.1 q 0.84,-1.08 1.44,-2.34 0.66,-1.32 0.66,-2.7 0,-1.32 -0.54,-2.52 -0.54,-1.2 -1.5,-2.04 -0.9,-0.9 -2.16,-1.38 -1.2,-0.54 -2.52,-0.54 -2.04,0 -3.36,1.02 -1.26,1.02 -2.46,2.52 l -4.02,5.04 -4.26,-5.64 q -1.02,-1.38 -2.4,-2.16 -1.38,-0.78 -3.18,-0.78 -1.38,0 -2.58,0.54 -1.2,0.48 -2.16,1.38 -0.9,0.9 -1.44,2.1 -0.54,1.2 -0.54,2.58 0,1.62 0.84,3.06 0.84,1.38 1.8,2.58 l 5.58,7.38 -7.5,9.9 q -0.72,0.96 -1.14,2.16 -0.42,1.14 -0.42,2.34 0,1.38 0.54,2.58 0.54,1.2 1.44,2.1 0.9,0.84 2.1,1.38 1.2,0.48 2.58,0.48 1.8,0 3,-0.72 1.26,-0.78 2.34,-2.16 l 5.4,-7.02 5.4,7.08 q 1.02,1.32 2.4,2.1 1.38,0.72 3.06,0.72 1.32,0 2.52,-0.54 1.2,-0.54 2.04,-1.44 0.84,-0.9 1.32,-2.1 0.54,-1.2 0.54,-2.52 z m -8.46,-29.4 q 0,0.48 -0.36,0.84 -0.36,0.36 -0.84,0.36 -0.48,0 -0.84,-0.36 -0.3,-0.36 -0.3,-0.84 0,-1.14 1.14,-1.14 0.48,0 0.84,0.36 0.36,0.3 0.36,0.78 z m -2.22,2.28 q 0,0.3 -0.12,0.54 -0.12,0.18 -0.24,0.42 l -3,3.9 q -0.18,0.24 -0.42,0.42 -0.24,0.18 -0.54,0.18 -0.48,0 -0.72,-0.3 -0.24,-0.3 -0.24,-0.72 0,-0.3 0.12,-0.54 0.18,-0.3 0.36,-0.54 l 2.76,-3.6 q 0.42,-0.66 1.08,-0.66 0.36,0 0.66,0.24 0.3,0.24 0.3,0.66 z m -17.4,-2.58 q 0,1.14 -1.14,1.14 -0.48,0 -0.84,-0.3 -0.36,-0.36 -0.36,-0.84 0,-0.48 0.36,-0.84 0.36,-0.36 0.84,-0.36 0.48,0 0.78,0.36 0.36,0.36 0.36,0.84 z m 22.68,32.94 q 0,0.66 -0.48,0.9 -0.42,0.24 -0.96,0.24 -1.38,0 -2.16,-0.66 -0.72,-0.72 -1.44,-1.74 l -5.1,-6.84 q -0.18,-0.24 -0.36,-0.48 -0.12,-0.3 -0.12,-0.6 0,-0.96 0.9,-0.96 0.42,0 0.66,0.3 0.3,0.24 0.54,0.54 l 5.34,7.2 q 0.54,0.72 1.08,0.9 0.54,0.18 1.02,0.3 0.48,0.06 0.78,0.18 0.3,0.12 0.3,0.72 z m -15.72,-17.46 q 0,1.02 -0.6,1.86 -0.54,0.84 -1.14,1.62 l -6.78,8.76 q -0.3,0.36 -0.48,0.84 -0.18,0.42 -0.18,0.9 0,0.96 0.42,1.38 0.48,0.42 1.02,0.66 0.54,0.24 0.96,0.48 0.48,0.18 0.48,0.72 0,0.48 -0.42,0.78 -0.36,0.3 -0.84,0.3 -0.72,0 -1.44,-0.36 -0.66,-0.42 -1.14,-0.96 -0.48,-0.6 -0.78,-1.32 -0.3,-0.72 -0.3,-1.44 0,-1.02 0.36,-1.92 0.42,-0.96 1.08,-1.8 l 6.9,-8.82 q 0.3,-0.36 0.54,-0.78 0.24,-0.48 0.24,-0.96 0,-0.66 -0.36,-1.26 -0.36,-0.6 -0.72,-1.08 l -6.3,-8.46 q -0.24,-0.3 -0.48,-0.72 -0.18,-0.48 -0.18,-0.9 0,-0.48 0.24,-0.78 0.3,-0.3 0.78,-0.3 0.72,0 0.96,0.66 0.12,0.24 0.24,0.48 0.12,0.18 0.24,0.42 l 5.76,7.8 q 0.66,0.96 1.26,1.98 0.66,1.02 0.66,2.22 z" />
      <path
         id="path26"
         style="font-family:'Silka Black';letter-spacing:0.075em"
         d="m 223.72141,100 h 11.52 V 67.9 h 11.34 V 58 h -34.14 v 9.9 h 11.28 z" />
      <path
         id="path28"
         style="font-family:'Silka Black';letter-spacing:0.075em"
         d="m 255.88984,100 h 28.38 v -9.78 h -16.86 V 83.8 h 13.74 v -9.72 h -13.74 v -6.36 h 16.26 V 58 h -27.78 z" />
      <path
         id="path30"
         style="font-family:'Silka Black';letter-spacing:0.075em"
         d="m 294.13984,100 h 11.1 V 78.16 h 0.36 l 7.86,21.84 h 8.52 l 7.02,-20.46 h 0.36 V 100 h 11.1 V 58 h -14.52 l -7.74,24.96 h -0.36 l -9.18,-24.96 h -14.52 z" />
      <path
         id="path32"
         style="font-family:'Silka Black';letter-spacing:0.075em"
         d="m 351.60859,100 h 11.52 V 87.46 h 5.28 c 8.4,0 15.42,-6.3 15.42,-14.82 0,-8.58 -6.78,-14.64 -15.42,-14.64 h -16.8 z m 11.52,-22.26 V 67.72 h 4.08 c 2.76,0 4.92,1.8 4.92,4.92 0,3.18 -2.16,5.1 -4.92,5.1 z" />
      <path
         id="path34"
         style="font-family:'Silka Black';letter-spacing:0.075em"
         d="m 414.20828,100.78 c 12.9,0 22.56,-9.48 22.56,-21.78 0,-12.24 -9.6,-21.78 -22.56,-21.78 -12.96,0 -22.62,9.42 -22.62,21.78 0,12.42 9.6,21.78 22.62,21.78 z m 0,-11.1 c -6.36,0 -10.62,-4.62 -10.62,-10.68 0,-5.94 4.26,-10.68 10.62,-10.68 6.24,0 10.56,4.74 10.56,10.68 0,6.06 -4.32,10.68 -10.56,10.68 z" />
      <path
         id="path36"
         style="font-family:'Silka Black';letter-spacing:0.075em"
         d="m 446.62422,100 h 11.52 V 87.22 h 4.08 l 6.24,12.78 h 12.66 l -8.52,-15.18 c 4.08,-2.58 6.84,-6.96 6.84,-12.3 0,-8.58 -6.78,-14.52 -15.42,-14.52 h -17.4 z m 11.52,-22.5 v -9.78 h 4.68 c 2.76,0 4.92,1.68 4.92,4.8 0,3.18 -2.16,4.98 -4.92,4.98 z" />
      <path
         id="path38"
         style="font-family:'Silka Black';letter-spacing:0.075em"
         d="m 487.68203,100 h 11.7 l 1.92,-6.36 h 14.28 l 1.92,6.36 h 12.3 l -13.74,-42 h -14.94 z m 16.62,-16.56 3.84,-12.9 h 0.6 l 3.84,12.9 z" />
      <path
         id="path40"
         style="font-family:'Silka Black';letter-spacing:0.075em"
         d="m 538.24141,100 h 11.1 V 76.66 h 0.36 l 13.56,23.34 h 12.9 V 58 h -11.1 v 23.34 h -0.36 L 551.14141,58 h -12.9 z" />
      <path
         id="path42"
         style="font-family:'Silka Black';letter-spacing:0.075em"
         d="m 587.27266,100 h 28.38 v -9.78 h -16.86 V 83.8 h 13.74 v -9.72 h -13.74 v -6.36 h 16.26 V 58 h -27.78 z" />
      <path
         id="path44"
         style="font-family:'Silka Black';letter-spacing:0.075em"
         d="m 622.82266,100 h 11.7 l 1.92,-6.36 h 14.28 l 1.92,6.36 h 12.3 l -13.74,-42 h -14.94 z m 16.62,-16.56 3.84,-12.9 h 0.6 l 3.84,12.9 z" />
    </g>
  </g>
</svg>
