<?xml version="1.0" encoding="UTF-8" standalone="no"?>
<svg
   xmlns:dc="http://purl.org/dc/elements/1.1/"
   xmlns:cc="http://creativecommons.org/ns#"
   xmlns:rdf="http://www.w3.org/1999/02/22-rdf-syntax-ns#"
   xmlns:svg="http://www.w3.org/2000/svg"
   xmlns="http://www.w3.org/2000/svg"
   id="svg16"
   width="800px"
   version="1.1"
   height="200px">
  <metadata
     id="metadata20">
    <rdf:RDF>
      <cc:Work
         rdf:about="">
        <dc:format>image/svg+xml</dc:format>
        <dc:type
           rdf:resource="http://purl.org/dc/dcmitype/StillImage" />
      </cc:Work>
    </rdf:RDF>
  </metadata>
  <defs
     id="defs4">
    <style
       id="style2"
       type="text/css"><![CDATA[    
     @font-face {font-family:Silka;
     src: url('/Users/francesco/Repos/write-logos/src/fonts/Fonts_E_TEMPORANEA/Silka-Regular.otf');}
     @font-face {font-family:LEIXO DEMO;
     src: url('/Users/francesco/Repos/write-logos/src/fonts/Fonts_X/LEIXO-DEMO.ttf');}
     ]]></style>
  </defs>
  <g
     id="g14"
     style="font-size:60px">
    <g
       style="text-anchor:middle"
       id="text12"
       aria-label="EXTEMPORANEA">
      <path
         id="path22"
         style="font-family:Silka;letter-spacing:0.075em"
         d="m 142.35156,100 h 24.6 v -4.38 h -19.74 V 80.8 h 16.44 v -4.38 h -16.44 V 62.44 h 19.08 V 58 h -23.94 z" />
      <path
         id="path24"
         style="font-family:'LEIXO DEMO';letter-spacing:0.05em"
         d="m 179.52437,100 q -0.72,0 -0.72,-0.72 0,-0.48 0.24,-0.78 l 11.82,-18.96 -12.54,-20.04 q -0.24,-0.42 -0.24,-0.9 0,-0.66 0.6,-0.66 l 6.18,0.06 h 0.36 q 1.02,0 1.32,0.48 l 8.7,14.04 8.76,-14.04 q 0.18,-0.3 0.54,-0.36 0.42,-0.12 1.26,-0.12 l 6,-0.06 q 0.60001,0 0.60001,0.66 0,0.48 -0.24001,0.9 l -24.84,39.84 q -0.47999,0.66 -1.74,0.66 z m 25.38001,0 q -1.26001,0 -1.68001,-0.66 l -4.08,-6.54 q -0.36,-0.66 -0.36,-1.08 0,-0.6 0.42,-1.2 0.3,-0.48 1.26,-2.04 1.02,-1.62 1.56,-2.28 0.6,-0.66 1.02,-0.66 0.36,0 0.6,0.42 l 7.8,12.54 q 0.24,0.3 0.24,0.78 0,0.72 -0.72,0.72 z" />
      <path
         id="path26"
         style="font-family:Silka;letter-spacing:0.075em"
         d="m 233.60875,100 h 4.86 V 62.44 h 12.84 V 58 h -30.54 v 4.44 h 12.84 z" />
      <path
         id="path28"
         style="font-family:Silka;letter-spacing:0.075em"
         d="m 263.57031,100 h 24.6 v -4.38 h -19.74 V 80.8 h 16.44 v -4.38 h -16.44 V 62.44 h 19.08 V 58 h -23.94 z" />
      <path
         id="path30"
         style="font-family:Silka;letter-spacing:0.075em"
         d="m 301.70312,100 h 4.68 V 68.68 h 0.36001 L 320.72312,100 h 5.52001 l 12.77999,-31.32 h 0.36 V 100 h 4.68001 V 58 h -5.34001 l -15.06,36.66 h -0.35999 L 307.04312,58 h -5.34 z" />
      <path
         id="path32"
         style="font-family:Silka;letter-spacing:0.075em"
         d="m 360.57812,100 h 4.86001 V 83.38 h 10.19999 c 7.38,0 12.84,-5.22 12.84,-12.78 0,-7.62 -5.22,-12.6 -12.84,-12.6 h -15.06 z m 4.86001,-20.94 V 62.32 h 9.77999 c 5.04,0 8.28001,3.48 8.28001,8.28 0,4.86 -3.24001,8.46 -8.28001,8.46 z" />
      <path
         id="path34"
         style="font-family:Silka;letter-spacing:0.075em"
         d="m 420.06625,100.78 c 12.54,0 21.78,-9.42 21.78,-21.78 0,-12.24 -9.18,-21.78 -21.72,-21.78 -12.48,0 -21.72,9.42 -21.72,21.78 0,12.48 9.18,21.78 21.66,21.78 z m 0.06,-4.56 c -9.6,0 -16.68,-7.26 -16.68,-17.22 0,-9.84 7.08,-17.22 16.68,-17.22 9.6,0 16.68,7.38 16.68,17.22 0,9.96 -7.08,17.22 -16.68,17.22 z" />
      <path
         id="path36"
         style="font-family:Silka;letter-spacing:0.075em"
         d="m 455.35937,100 h 4.86001 V 83.02 h 9.18 l 9.29999,16.98 h 5.64001 l -9.84001,-17.46 c 4.74,-1.38 8.76,-5.94 8.76,-12.12 0,-7.38 -5.1,-12.42 -13.67999,-12.42 h -14.22001 z m 4.86001,-21.3 V 62.32 h 9.06 c 5.94,0 8.94,3.66 8.94,8.1 0,5.52 -3.72001,8.28 -8.64,8.28 z" />
      <path
         id="path38"
         style="font-family:Silka;letter-spacing:0.075em"
         d="m 492.79375,100 h 5.1 l 3.78,-9.96 h 20.28 l 3.78,9.96 h 5.1 l -16.14,-42 h -5.7 z m 10.56,-14.4 8.28,-21.96 h 0.36 l 8.28,21.96 z" />
      <path
         id="path40"
         style="font-family:Silka;letter-spacing:0.075em"
         d="m 542.52344,100 h 4.86 V 66.46 h 0.36 l 21.72,33.54 h 5.16 V 58 h -4.8 v 33.54 h -0.36 L 547.50344,58 h -4.98 z" />
      <path
         id="path42"
         style="font-family:Silka;letter-spacing:0.075em"
         d="m 591.08594,100 h 24.6 v -4.38 h -19.74 V 80.8 h 16.44 v -4.38 h -16.44 V 62.44 h 19.08 V 58 h -23.94 z" />
      <path
         id="path44"
         style="font-family:Silka;letter-spacing:0.075em"
         d="m 624.41875,100 h 5.1 l 3.78,-9.96 h 20.28 l 3.78,9.96 h 5.1 l -16.14,-42 h -5.7 z m 10.56,-14.4 8.28,-21.96 h 0.36 l 8.28,21.96 z" />
    </g>
  </g>
</svg>
