<?xml version="1.0" encoding="UTF-8" standalone="no"?>
<svg
   xmlns:dc="http://purl.org/dc/elements/1.1/"
   xmlns:cc="http://creativecommons.org/ns#"
   xmlns:rdf="http://www.w3.org/1999/02/22-rdf-syntax-ns#"
   xmlns:svg="http://www.w3.org/2000/svg"
   xmlns="http://www.w3.org/2000/svg"
   id="svg16"
   width="800px"
   version="1.1"
   height="200px">
  <metadata
     id="metadata20">
    <rdf:RDF>
      <cc:Work
         rdf:about="">
        <dc:format>image/svg+xml</dc:format>
        <dc:type
           rdf:resource="http://purl.org/dc/dcmitype/StillImage" />
      </cc:Work>
    </rdf:RDF>
  </metadata>
  <defs
     id="defs4">
    <style
       id="style2"
       type="text/css"><![CDATA[    
     @font-face {font-family:Sleepy Cat;
     src: url('/Users/francesco/Repos/write-logos/src/fonts/SleepyCat-Regular.ttf');}
     @font-face {font-family:Banana Yeti;
     src: url('/Users/francesco/Repos/write-logos/src/fonts/BananaYeti-Extrabold_Trial.ttf');}
     ]]></style>
  </defs>
  <g
     id="g14"
     style="font-size:60px">
    <g
       style="text-anchor:middle"
       id="text12"
       aria-label="eXtemporanea">
      <path
         id="path22"
         style="font-family:'Sleepy Cat'"
         d="m 253.27562,75.16 q -1.02,-0.6 -2.16,-0.6 -1.26,0 -2.34,0.78 -1.08,0.78 -1.56,2.22 -0.3,0.78 -0.3,1.08 0,0.54 2.7,0.54 h 1.56 4.38 l -0.17999,-0.72 q -0.48001,-2.34 -2.10001,-3.3 z m -4.86,-5.16 q 0.9,-0.3 2.22,-0.3 2.64,0 4.2,0.72 2.7,1.26 4.2,3.9 1.56,2.82 1.56,6.54 0,1.5 -0.41999,1.98 -0.60001,0.78 -1.74,0.96 -1.14001,0.18 -5.94001,0.3 -6.18,0.24 -6.24,0.3 -0.06,0.12 -0.06,0.18 0,0.42 0.42,1.32 0.42,0.84 0.84,1.26 1.44,1.44 4.8,1.44 1.86,0 3.78,-0.54 1.56,-0.42 1.86,-0.42 h 0.06 q 0.12,0.06 -0.24,2.4 -0.24,2.28 -0.59999,2.64 -0.30001,0.3 -1.98001,0.66 -1.62,0.3 -2.88,0.3 -1.08,0 -2.94,-0.42 -1.86,-0.42 -2.82,-0.84 -2.46,-1.14 -3.84,-3.48 -1.38,-2.4 -1.38,-5.52 0,-1.74 0.54,-4.38 0.6,-2.7 1.2,-4.02 1.74,-3.66 5.4,-4.98 z" />
      <path
         id="path24"
         style="font-family:'Banana Yeti'"
         d="m 295.97219,100.93 q -0.99,0 -1.89,-0.6 -0.9,-0.6 -1.71,-1.56 -1.53,-1.8 -2.97,-4.02 -1.41,-2.22 -2.7,-4.44 -1.26,-2.22 -2.37,-4.2 -1.11,-2.01 -2.01,-3.39 -0.27,0.27 -0.75,1.08 -0.45,0.78 -0.99,1.86 -0.51,1.05 -1.08,2.25 -0.54,1.2 -1.05,2.28 -0.48,1.08 -0.84,1.89 -0.36,0.81 -0.51,1.08 -0.9,1.86 -1.83,3.48 -0.93,1.62 -2.16,2.76 -1.23,1.11 -2.91,1.59 -1.65,0.48 -4.05,0.03 -0.72,-0.12 -1.41,-0.33 -0.66,-0.21 -1.2,-0.48 -0.54,-0.27 -0.87,-0.63 -0.33,-0.36 -0.33,-0.84 0,-0.69 0.51,-1.14 0.51,-0.48 1.05,-0.48 0.18,0 0.39,0.03 0.21,0.03 0.45,0.03 1.14,0 2.1,-0.6 0.99,-0.6 1.89,-1.62 0.96,-1.11 1.95,-2.55 1.02,-1.44 2.01,-3 0.99,-1.59 1.92,-3.27 0.96,-1.68 1.8,-3.24 0.84,-1.59 1.53,-3.03 0.72,-1.44 1.26,-2.55 -0.18,-0.45 -0.72,-1.5 -0.51,-1.08 -1.26,-2.46 -0.75,-1.38 -1.68,-2.94 -0.93,-1.59 -1.86,-3.09 -0.93,-1.5 -1.86,-2.76 -0.9,-1.26 -1.62,-2.01 -0.48,-0.48 -0.93,-0.75 -0.45,-0.27 -0.93,-0.27 -0.81,0 -1.32,0.36 -0.48,0.36 -0.81,0.93 -0.3,0.54 -0.48,1.17 -0.18,0.63 -0.36,1.2 -0.15,0.54 -0.39,0.9 -0.21,0.36 -0.6,0.36 -0.45,0 -0.81,-0.24 -0.36,-0.27 -0.6,-0.63 -0.24,-0.39 -0.36,-0.84 -0.15,-0.45 -0.15,-0.87 0,-1.23 0.48,-2.52 0.48,-1.29 1.26,-2.49 0.81,-1.23 1.8,-2.28 1.02,-1.08 2.07,-1.89 1.08,-0.81 2.1,-1.26 1.02,-0.48 1.83,-0.48 1.17,0 2.1,0.63 0.96,0.6 1.74,1.53 0.81,0.93 1.44,2.04 0.66,1.08 1.26,2.04 1.47,2.4 2.91,4.83 1.47,2.43 2.91,4.65 0.93,-1.47 1.77,-3.21 0.87,-1.74 1.71,-3.51 0.84,-1.8 1.65,-3.45 0.84,-1.68 1.68,-2.94 0.84,-1.29 1.68,-2.07 0.84,-0.78 1.71,-0.78 0.51,0 1.05,0.24 0.54,0.21 0.99,0.57 0.45,0.33 0.72,0.72 0.3,0.39 0.3,0.69 0,0.63 -0.57,1.86 -0.54,1.2 -1.44,2.79 -0.87,1.56 -1.98,3.42 -1.11,1.83 -2.25,3.72 -1.11,1.89 -2.16,3.72 -1.02,1.83 -1.74,3.39 0.78,1.59 1.92,3.66 1.17,2.07 2.52,4.26 1.35,2.19 2.79,4.32 1.44,2.13 2.76,3.84 1.35,1.71 2.49,2.82 1.14,1.08 1.92,1.17 0.51,0.06 0.99,-0.15 0.48,-0.21 0.9,-0.81 0.54,-0.75 0.87,-1.2 0.33,-0.45 0.51,-0.66 0.21,-0.24 0.33,-0.3 0.15,-0.09 0.27,-0.09 0.48,0 0.66,0.18 0.21,0.15 0.21,0.81 0,0.15 -0.21,0.9 -0.21,0.75 -0.69,1.77 -0.48,1.02 -1.29,2.19 -0.78,1.14 -1.98,2.13 -1.17,0.96 -2.79,1.59 -1.59,0.66 -3.69,0.66 z" />
      <path
         id="path26"
         style="font-family:'Sleepy Cat'"
         d="m 310.48937,63.28 q 0.18,-0.3 1.68,-0.3 h 0.72 l 2.16,0.06 -0.12,3.78 -0.06,3.78 h 0.90001 q 0.83999,0 1.44,0.36 0.47999,0.3 0.47999,0.96 0,0.6 -0.06,1.08 -0.06,1.38 -0.47999,1.92 -0.42001,0.54 -1.44,0.54 h -0.06 q -0.54001,0 -0.72001,0.3 -0.12,0.24 -0.12,1.56 0,0.24 0,1.02 0.06,0.78 0.06,1.32 0.24,8.1 1.44,8.1 h 0.06 q 0.36,-0.12 0.90001,-1.5 1.07999,-2.64 1.97999,-2.64 0.36,0 1.8,1.02 1.44,0.96 1.44,1.26 0,1.38 -1.68,4.38 -0.47999,0.9 -1.68,1.86 -1.2,1.02 -2.4,1.02 -1.86,0 -3.48,-1.38 -1.62,-1.38 -2.27999,-3.48 -0.84001,-2.88 -1.08001,-8.52 l -0.17999,-4.02 -0.84001,-0.12 q -0.77999,-0.12 -1.08,-0.42 -0.3,-0.3 -0.3,-1.08 0,-0.6 0.06,-1.02 0.12,-1.44 0.42001,-1.86 0.3,-0.42 1.25999,-0.42 0.54001,0 0.66,-0.12 0.12,-0.12 0.24,-0.78 0.12,-0.96 0.12,-3.6 0,-2.82 0.24,-3.06 z" />
      <path
         id="path28"
         style="font-family:'Sleepy Cat'"
         d="m 340.11156,75.16 q -1.02,-0.6 -2.16,-0.6 -1.26,0 -2.34,0.78 -1.08,0.78 -1.56,2.22 -0.3,0.78 -0.3,1.08 0,0.54 2.7,0.54 h 1.56 4.38 l -0.18,-0.72 q -0.48,-2.34 -2.1,-3.3 z m -4.86,-5.16 q 0.9,-0.3 2.22,-0.3 2.64,0 4.2,0.72 2.7,1.26 4.2,3.9 1.56,2.82 1.56,6.54 0,1.5 -0.42,1.98 -0.6,0.78 -1.74,0.96 -1.14,0.18 -5.94,0.3 -6.18,0.24 -6.24,0.3 -0.06,0.12 -0.06,0.18 0,0.42 0.42,1.32 0.42,0.84 0.84,1.26 1.44,1.44 4.8,1.44 1.86,0 3.78,-0.54 1.56,-0.42 1.86,-0.42 h 0.06 q 0.12,0.06 -0.24,2.4 -0.24,2.28 -0.6,2.64 -0.3,0.3 -1.98,0.66 -1.62,0.3 -2.88,0.3 -1.08,0 -2.94,-0.42 -1.86,-0.42 -2.82,-0.84 -2.46,-1.14 -3.84,-3.48 -1.38,-2.4 -1.38,-5.52 0,-1.74 0.54,-4.38 0.6,-2.7 1.2,-4.02 1.74,-3.66 5.4,-4.98 z" />
      <path
         id="path30"
         style="font-family:'Sleepy Cat'"
         d="m 372.75812,70.36 q 0.84,-0.18 1.62,-0.18 2.76,0 5.16,1.98 2.46001,1.98 3.24,4.98 0.3,1.38 0.3,3.66 0,2.16 -0.06,3.72 -0.12,6.18 -0.3,7.5 l -0.18,1.5 -2.34,-0.06 q -2.34,-0.12 -2.39999,-0.18 v -0.42 q 0,-1.5 0.17999,-4.38 0.3,-4.98 0.3,-7.14 0,-1.98 -0.18,-2.82 -0.29999,-1.5 -2.09999,-2.94 -0.66001,-0.48 -1.14001,-0.48 -0.41999,0 -0.72,0.06 -2.16,0.24 -3.42,3.12 l -0.65999,1.5 0.24,3.48 q 0.41999,5.28 0.41999,7.5 0,1.32 -0.18,1.68 -0.18,0.48 -2.03999,0.48 -1.86001,0 -2.16001,-0.3 -0.42,-0.36 -0.65999,-5.22 -0.24,-4.92 -0.48001,-5.58 -0.18,-0.48 -0.42,-2.04 -0.18,-1.44 -0.9,-2.82 -0.72,-1.44 -1.5,-1.44 -0.72,0 -2.75999,1.02 l -2.16001,1.08 0.12,4.68 q 0.06,0.9 0.12,2.7 0.06,1.74 0.12,3.12 0.06,1.38 0.12001,2.16 l 0.12,3.36 h -2.22001 q -2.27999,0 -2.46,-0.42 -0.24,-0.42 -0.48,-5.64 -0.24,-5.28 -0.24,-9.3 v -1.56 q 0.06,-3.84 0.36,-4.5 0.36,-0.66 2.10001,-0.66 1.62,0 1.91999,0.24 0.24,0.12 0.42,0.12 0.48001,0 1.44,-0.48 2.40001,-1.02 3.90001,-1.02 2.27999,0 4.07999,2.16 l 0.78,0.96 1.14001,-1.02 q 1.79999,-1.62 3.95999,-2.16 z" />
      <path
         id="path32"
         style="font-family:'Sleepy Cat'"
         d="m 399.08312,75.88 q -0.6,-0.36 -1.8,-0.36 -2.21999,0 -3.65999,1.02 -0.30001,0.3 -0.42001,1.2 -0.06,0.9 -0.06,4.92 v 5.76 l 1.44,-0.06 q 2.76,-0.06 4.5,-1.62 1.8,-1.62 2.34001,-4.44 0.11999,-0.72 0.11999,-1.2 0,-1.68 -0.72,-3.18 -0.66,-1.5 -1.74,-2.04 z m -8.76,-5.1 q 0.84,-0.12 0.96,-0.12 0.54,0 1.08001,0.3 0.59999,0.24 0.77999,0.24 0.06,0 1.26,-0.24 1.08,-0.3 3.12,-0.3 1.98,0 2.76,0.3 1.68,0.66 3.24,2.4 1.62,1.68 2.28001,3.66 0.65999,1.98 0.65999,4.14 0,4.98 -3.53999,8.64 -1.56,1.56 -3.48001,2.4 -1.86,0.78 -5.34,1.32 l -0.9,0.12 q 0.06,2.04 0.18,6.18 0.12,4.08 0.18001,6.12 h -4.92001 l -0.18,-5.76 q -0.18,-5.7 -0.18,-13.86 0,-10.74 0.24,-12.42 0.42,-2.88 1.8,-3.12 z" />
      <path
         id="path34"
         style="font-family:'Sleepy Cat'"
         d="m 423.54062,75.34 q -0.41999,-0.18 -1.79999,-0.42 l -1.08001,-0.18 -1.2,1.38 q -2.64,3 -2.64,5.7 0,3.06 1.26,4.74 1.14,1.5 3.60001,1.5 1.13999,0 1.97999,-0.54 0.6,-0.42 1.44,-1.62 0.84,-1.26 1.14001,-2.28 0.41999,-1.56 0.41999,-2.7 0,-1.02 -0.29999,-2.04 -0.3,-1.14 -1.14001,-2.16 -0.84,-1.02 -1.68,-1.38 z m -4.97999,-4.8 q 1.19999,-0.6 2.81999,-0.6 2.4,0 4.98001,1.32 0.89999,0.42 2.09999,1.74 1.2,1.32 1.74,2.4 1.32,2.64 1.32,5.64 0,4.74 -2.88,8.46 -2.82,3.66 -6.83999,3.66 -0.78001,0 -1.56,-0.18 -5.10001,-1.02 -7.08001,-5.28 -1.26,-2.7 -1.26,-5.58 0,-2.58 0.96001,-4.86 0.77999,-1.86 2.51999,-3.9 1.80001,-2.1 3.18001,-2.82 z" />
      <path
         id="path36"
         style="font-family:'Sleepy Cat'"
         d="m 438.83875,71.26 q 1.92,-0.12 2.16,-0.12 h 0.06 q 0.84,0 0.84,2.1 v 1.32 l 1.2,-0.96 q 3.06,-2.52 6.9,-2.52 0.9,0 1.8,0.18 0.96,0.24 2.34,0.9 1.44,0.6 1.44,0.78 0,0.24 -1.44,1.98 -1.44,1.74 -1.68,1.74 -0.3,0 -1.14,-0.36 -0.84,-0.36 -1.44,-0.36 -0.54,0 -1.68,0.36 -1.38,0.42 -2.4,1.56 -1.02,1.14 -2.4,3.9 l -1.56,3.12 0.24,2.94 q 0.06,0.96 0.24,2.52 0.18,1.56 0.18,1.62 l 0.12,1.2 h -2.46 q -2.46,0 -2.46,-0.06 -0.18,-1.44 -0.36,-3.18 -0.54,-4.74 -0.54,-13.68 0,-2.46 0.12,-3.54 l 0.18,-1.26 z" />
      <path
         id="path38"
         style="font-family:'Sleepy Cat'"
         d="m 472.15656,70.6 q 1.32,-0.54 2.88,-0.54 1.38,0 2.82,0.48 1.32,0.42 1.32,0.78 0,0.3 -0.72,1.98 -0.72,1.62 -0.96,1.98 -0.3,0.36 -1.02,0 -0.78,-0.3 -1.38,-0.3 -1.56,0 -3.72,1.98 -5.4,5.04 -5.4,8.52 0,1.14 0.6,1.68 0.66,0.54 1.14,0.54 0.6,0 1.92,-1.38 1.32,-1.44 2.34,-3.18 3.12,-5.4 4.26,-6.3 0.96,-0.72 1.92,-0.72 1.8,0 2.34,1.32 0.6,1.26 0.72,5.7 0.18,4.68 0.6,6.3 0.42,1.8 0.42,2.64 l 0.06,0.78 -2.1,0.54 q -1.26,0.36 -2.04,0.36 -0.18,0 -0.24,-0.06 -0.24,-0.24 -0.78,-2.64 -0.48,-2.4 -0.54,-3.24 0,-1.02 -0.18,-1.68 -0.12,-0.42 -0.18,-0.42 -0.06,0 -1.02,1.38 -1.62,2.46 -3.72,4.08 -2.04,1.56 -3.6,1.56 -0.06,0 -0.24,0 -0.12,-0.06 -0.18,-0.06 -2.22,-0.3 -4.14,-1.98 -0.48,-0.42 -1.44,-2.04 -0.66,-1.26 -0.66,-2.76 v -0.78 q 0,-2.04 0.54,-3.48 1.14,-2.88 4.44,-6.42 3.36,-3.54 5.94,-4.62 z" />
      <path
         id="path40"
         style="font-family:'Sleepy Cat'"
         d="m 488.86094,69.58 q 0.66,-0.36 1.26,-0.36 0.96,0 1.62,0.72 0.66,0.66 0.66,1.74 0,1.26 0.42,1.26 0.24,0 1.98,-0.78 1.98,-0.96 3.84,-0.96 4.68,0 7.08,5.04 1.32,2.76 1.74,6.9 0.24,2.16 0.24,9.18 0,4.2 -0.12,4.32 -0.12,0.12 -1.8,0.36 -1.68,0.24 -2.46,0.24 l -0.3,-0.06 q -0.12,-0.24 -0.24,-7.02 -0.12,-6.54 -0.36,-8.34 -0.66,-3.36 -1.98,-4.86 -0.72,-0.84 -1.68,-0.84 -1.38,0 -4.8,2.1 l -1.38,0.78 0.18,3.18 q 0.18,4.44 0.3,7.02 0.12,2.4 0.12,2.7 0,1.26 -0.18,1.32 -0.24,0.18 -2.4,0.18 h -2.16 l -0.12,-1.14 q -0.24,-2.34 -0.6,-14.16 -0.12,-4.2 -0.12,-4.74 0,-2.1 0.24,-2.7 0.24,-0.66 1.02,-1.08 z" />
      <path
         id="path42"
         style="font-family:'Sleepy Cat'"
         d="m 525.03344,75.16 q -1.02,-0.6 -2.16,-0.6 -1.26,0 -2.34,0.78 -1.08,0.78 -1.56,2.22 -0.3,0.78 -0.3,1.08 0,0.54 2.7,0.54 h 1.56 4.38 l -0.18,-0.72 q -0.48,-2.34 -2.1,-3.3 z m -4.86,-5.16 q 0.9,-0.3 2.22,-0.3 2.64,0 4.2,0.72 2.7,1.26 4.2,3.9 1.56,2.82 1.56,6.54 0,1.5 -0.42,1.98 -0.6,0.78 -1.74,0.96 -1.14,0.18 -5.94,0.3 -6.18,0.24 -6.24,0.3 -0.06,0.12 -0.06,0.18 0,0.42 0.42,1.32 0.42,0.84 0.84,1.26 1.44,1.44 4.8,1.44 1.86,0 3.78,-0.54 1.56,-0.42 1.86,-0.42 h 0.06 q 0.12,0.06 -0.24,2.4 -0.24,2.28 -0.6,2.64 -0.3,0.3 -1.98,0.66 -1.62,0.3 -2.88,0.3 -1.08,0 -2.94,-0.42 -1.86,-0.42 -2.82,-0.84 -2.46,-1.14 -3.84,-3.48 -1.38,-2.4 -1.38,-5.52 0,-1.74 0.54,-4.38 0.6,-2.7 1.2,-4.02 1.74,-3.66 5.4,-4.98 z" />
      <path
         id="path44"
         style="font-family:'Sleepy Cat'"
         d="m 548.68,70.6 q 1.32,-0.54 2.88,-0.54 1.38,0 2.82,0.48 1.32,0.42 1.32,0.78 0,0.3 -0.72,1.98 -0.72,1.62 -0.96,1.98 -0.3,0.36 -1.02,0 -0.78,-0.3 -1.38,-0.3 -1.56,0 -3.72,1.98 -5.4,5.04 -5.4,8.52 0,1.14 0.6,1.68 0.66,0.54 1.14,0.54 0.6,0 1.92,-1.38 1.32,-1.44 2.34,-3.18 3.12,-5.4 4.26,-6.3 0.96,-0.72 1.92,-0.72 1.8,0 2.34,1.32 0.6,1.26 0.72,5.7 0.18,4.68 0.6,6.3 0.42,1.8 0.42,2.64 l 0.06,0.78 -2.1,0.54 q -1.26,0.36 -2.04,0.36 -0.18,0 -0.24,-0.06 -0.24,-0.24 -0.78,-2.64 -0.48,-2.4 -0.54,-3.24 0,-1.02 -0.18,-1.68 -0.12,-0.42 -0.18,-0.42 -0.06,0 -1.02,1.38 -1.62,2.46 -3.72,4.08 -2.04,1.56 -3.6,1.56 -0.06,0 -0.24,0 -0.12,-0.06 -0.18,-0.06 -2.22,-0.3 -4.14,-1.98 -0.48,-0.42 -1.44,-2.04 -0.66,-1.26 -0.66,-2.76 v -0.78 q 0,-2.04 0.54,-3.48 1.14,-2.88 4.44,-6.42 3.36,-3.54 5.94,-4.62 z" />
    </g>
  </g>
</svg>
