<?xml version="1.0" encoding="UTF-8" standalone="no"?>
<svg
   xmlns:dc="http://purl.org/dc/elements/1.1/"
   xmlns:cc="http://creativecommons.org/ns#"
   xmlns:rdf="http://www.w3.org/1999/02/22-rdf-syntax-ns#"
   xmlns:svg="http://www.w3.org/2000/svg"
   xmlns="http://www.w3.org/2000/svg"
   id="svg16"
   width="800px"
   version="1.1"
   height="200px">
  <metadata
     id="metadata20">
    <rdf:RDF>
      <cc:Work
         rdf:about="">
        <dc:format>image/svg+xml</dc:format>
        <dc:type
           rdf:resource="http://purl.org/dc/dcmitype/StillImage" />
      </cc:Work>
    </rdf:RDF>
  </metadata>
  <defs
     id="defs4">
    <style
       id="style2"
       type="text/css"><![CDATA[    
     @font-face {font-family:Space Grotesk Medium;
     src: url('/Users/francesco/Repos/write-logos/src/fonts/Fonts_E_TEMPORANEA/SpaceGrotesk-Medium.ttf');}
     @font-face {font-family:Capsule3;
     src: url('/Users/francesco/Repos/write-logos/src/fonts/Fonts_X/capsule3.ttf');}
     ]]></style>
  </defs>
  <g
     id="g14"
     style="font-size:60px">
    <g
       style="text-anchor:middle"
       id="text12"
       aria-label="EXTEMPORANEA">
      <path
         id="path22"
         style="font-family:'Space Grotesk Medium';letter-spacing:0.075em"
         d="M 143.89562,100 V 58 h 26.46 v 5.88 h -19.97999 v 12.06 h 18.29999 v 5.88 h -18.29999 v 12.3 h 20.27999 V 100 Z" />
      <path
         id="path24"
         style="font-family:Capsule3;letter-spacing:0.05em"
         d="m 190.31125,53.32 h -6 q -2.82,0 -4.8,1.98 -1.98,1.98 -1.98,4.8 0,2.82 1.98,4.86 1.98,1.98 4.8,1.98 h 6 q 2.82,0 4.8,-1.98 1.98,-2.04 1.98,-4.86 0,-2.82 -1.98,-4.8 -1.98,-1.98 -4.8,-1.98 z m 25.56,16.62 h -25.56 q -2.82,0 -4.8,2.04 -1.98,1.98 -1.98,4.8 0,2.82 1.98,4.8 1.98,1.98 4.8,1.98 h 25.56 q 2.82,0 4.8,-1.98 2.04,-1.98 2.04,-4.8 0,-2.82 -2.04,-4.8 -1.98,-2.04 -4.8,-2.04 z m 6,-16.62 h -6 q -2.82,0 -4.8,1.98 -1.98,1.98 -1.98,4.8 0,2.82 1.98,4.86 1.98,1.98 4.8,1.98 h 6 q 2.82,0 4.8,-1.98 1.98,-2.04 1.98,-4.86 0,-2.82 -1.98,-4.8 -1.98,-1.98 -4.8,-1.98 z m -31.56,33.06 h -6 q -2.82,0 -4.8,2.04 -1.98,1.98 -1.98,4.8 0,2.82 1.98,4.8 1.98,1.98 4.8,1.98 h 6 q 2.82,0 4.8,-1.98 1.98,-1.98 1.98,-4.8 0,-2.82 -1.98,-4.8 -1.98,-2.04 -4.8,-2.04 z m 31.56,0 h -6 q -2.82,0 -4.8,2.04 -1.98,1.98 -1.98,4.8 0,2.82 1.98,4.8 1.98,1.98 4.8,1.98 h 6 q 2.82,0 4.8,-1.98 1.98,-1.98 1.98,-4.8 0,-2.82 -1.98,-4.8 -1.98,-2.04 -4.8,-2.04 z" />
      <path
         id="path26"
         style="font-family:'Space Grotesk Medium';letter-spacing:0.075em"
         d="M 249.07187,100 V 63.88 h -12.9 V 58 h 32.28 v 5.88 h -12.9 V 100 Z" />
      <path
         id="path28"
         style="font-family:'Space Grotesk Medium';letter-spacing:0.075em"
         d="M 278.82531,100 V 58 h 26.46 v 5.88 h -19.98 v 12.06 h 18.3 v 5.88 h -18.3 v 12.3 h 20.28 V 100 Z" />
      <path
         id="path30"
         style="font-family:'Space Grotesk Medium';letter-spacing:0.075em"
         d="M 316.84094,100 V 58 h 12.18 l 9.18,37.68 h 0.96 l 9.18,-37.68 h 12.18 v 42 h -6.3 V 62.56 h -0.96 l -9.12,37.44 h -10.92 l -9.12,-37.44 h -0.96 V 100 Z" />
      <path
         id="path32"
         style="font-family:'Space Grotesk Medium';letter-spacing:0.075em"
         d="M 373.72375,100 V 58 h 16.68 q 3.84,0 6.84,1.56 3.06,1.5 4.74,4.32 1.74,2.76 1.74,6.66 v 0.78 q 0,3.9 -1.8,6.72 -1.74,2.82 -4.74,4.32 -3,1.5 -6.78,1.5 h -10.2 V 100 Z m 6.48,-22.02 h 9.54 q 3.36,0 5.4,-1.74 2.1,-1.8 2.1,-4.98 v -0.6 q 0,-3.18 -2.04,-4.98 -2.04,-1.8 -5.46,-1.8 h -9.54 z" />
      <path
         id="path34"
         style="font-family:'Space Grotesk Medium';letter-spacing:0.075em"
         d="m 430.21469,100.84 q -7.74,0 -12.3,-4.32 -4.56,-4.38 -4.56,-12.6 v -9.84 q 0,-8.22 4.56,-12.54 4.56,-4.38 12.3,-4.38 7.74,0 12.3,4.38 4.62,4.32 4.62,12.54 v 9.84 q 0,8.22 -4.62,12.6 -4.56,4.32 -12.3,4.32 z m 0,-5.82 q 4.92,0 7.62,-2.88 2.76,-2.94 2.76,-7.98 V 73.84 q 0,-5.04 -2.76,-7.92 -2.7,-2.94 -7.62,-2.94 -4.92,0 -7.68,2.94 -2.7,2.88 -2.7,7.92 v 10.32 q 0,5.04 2.7,7.98 2.76,2.88 7.68,2.88 z" />
      <path
         id="path36"
         style="font-family:'Space Grotesk Medium';letter-spacing:0.075em"
         d="M 459.36437,100 V 58 h 17.64 q 3.90001,0 6.84001,1.38 2.93999,1.38 4.62,3.9 1.67999,2.46 1.67999,5.94 v 0.66 q 0,3.96 -1.92,6.36 -1.86,2.34 -4.56,3.3 v 0.96 q 2.28,0.12 3.66001,1.56 1.38,1.44 1.38,4.02 V 100 h -6.48001 V 86.98 q 0,-1.62 -0.9,-2.58 -0.84,-0.96 -2.7,-0.96 H 465.84438 V 100 Z m 6.48001,-22.44 h 10.43999 q 3.48,0 5.4,-1.74 1.92,-1.74 1.92,-4.86 v -0.48 q 0,-3.06 -1.92,-4.8 -1.85999,-1.8 -5.4,-1.8 h -10.43999 z" />
      <path
         id="path38"
         style="font-family:'Space Grotesk Medium';letter-spacing:0.075em"
         d="m 498.77312,100 11.94,-42 h 11.4 l 11.94001,42 h -6.66 l -2.76001,-9.9 h -16.44 l -2.75999,9.9 z m 11.04001,-15.9 h 13.19999 l -6.11999,-22.08 h -0.96 z" />
      <path
         id="path40"
         style="font-family:'Space Grotesk Medium';letter-spacing:0.075em"
         d="M 544.30187,100 V 58 h 12.48001 l 11.39999,37.68 h 0.96001 V 58 h 6.41999 v 42 h -12.48 l -11.4,-37.74 h -0.96 V 100 Z" />
      <path
         id="path42"
         style="font-family:'Space Grotesk Medium';letter-spacing:0.075em"
         d="M 588.88,100 V 58 h 26.46 v 5.88 h -19.98 v 12.06 h 18.3 v 5.88 h -18.3 v 12.3 h 20.28 V 100 Z" />
      <path
         id="path44"
         style="font-family:'Space Grotesk Medium';letter-spacing:0.075em"
         d="m 623.83563,100 11.93999,-42 h 11.4 l 11.94001,42 h -6.66 l -2.76001,-9.9 h -16.44 l -2.75999,9.9 z m 11.04,-15.9 h 13.19999 l -6.11999,-22.08 h -0.96 z" />
    </g>
  </g>
</svg>
