<?xml version="1.0" encoding="UTF-8" standalone="no"?>
<svg
   xmlns:dc="http://purl.org/dc/elements/1.1/"
   xmlns:cc="http://creativecommons.org/ns#"
   xmlns:rdf="http://www.w3.org/1999/02/22-rdf-syntax-ns#"
   xmlns:svg="http://www.w3.org/2000/svg"
   xmlns="http://www.w3.org/2000/svg"
   id="svg16"
   width="800px"
   version="1.1"
   height="200px">
  <metadata
     id="metadata20">
    <rdf:RDF>
      <cc:Work
         rdf:about="">
        <dc:format>image/svg+xml</dc:format>
        <dc:type
           rdf:resource="http://purl.org/dc/dcmitype/StillImage" />
      </cc:Work>
    </rdf:RDF>
  </metadata>
  <defs
     id="defs4">
    <style
       id="style2"
       type="text/css"><![CDATA[    
     @font-face {font-family:Space Grotesk;
     src: url('/Users/francesco/Repos/write-logos/src/fonts/Fonts_E_TEMPORANEA/SpaceGrotesk-Bold.ttf');}
     @font-face {font-family:Modak;
     src: url('/Users/francesco/Repos/write-logos/src/fonts/Fonts_X/Modak-Regular.ttf');}
     ]]></style>
  </defs>
  <g
     id="g14"
     style="font-size:60px">
    <g
       style="text-anchor:middle"
       id="text12"
       aria-label="EXTEMPORANEA">
      <path
         id="path22"
         style="font-family:'Space Grotesk';letter-spacing:0.075em"
         d="M 151.50297,100 V 58 h 27 v 7.2 h -19.08 v 10.02 h 17.4 v 7.2 h -17.4 V 92.8 h 19.44 v 7.2 z" />
      <path
         id="path24"
         style="font-family:Modak;letter-spacing:0.05em"
         d="m 204.42578,93.115234 -3.39844,6.621094 q -2.19726,0.820312 -4.77539,0.820312 -4.54101,0 -7.4414,-2.578124 -2.90039,-2.578125 -2.90039,-6.94336 0,-3.867187 2.60742,-6.884765 2.60742,-3.017579 7.38281,-5.06836 -0.35156,-0.966797 -1.20117,-0.966797 -0.84961,0 -3.10547,1.552735 -2.19727,-1.142578 -3.86719,-3.779297 -1.64062,-2.636719 -1.64062,-6.09375 0,-3.457031 2.54883,-5.917969 2.54882,-2.460937 7.03125,-2.460937 3.86718,0 6.35742,1.435546 l 3.10547,6.181641 2.51953,-6.328125 q 2.49023,-1.113281 5.5664,-1.113281 4.36524,0 7.08985,2.402344 2.72461,2.460937 2.72461,6.884765 0,3.66211 -2.63672,6.884766 -2.60742,3.193359 -6.70899,5.068359 0.32227,0.84961 1.14258,0.84961 0.84961,0 2.72461,-1.289063 l 6.03516,7.558594 q 0,4.716797 -2.34375,7.529297 -2.57813,3.105471 -7.11914,3.105471 -6.91407,0 -9.69727,-7.470706 z" />
      <path
         id="path26"
         style="font-family:'Space Grotesk';letter-spacing:0.075em"
         d="M 239.73859,100 V 65.2 h -12.24 V 58 h 32.4 v 7.2 h -12.24 V 100 Z" />
      <path
         id="path28"
         style="font-family:'Space Grotesk';letter-spacing:0.075em"
         d="M 269.79203,100 V 58 h 27 v 7.2 h -19.08 v 10.02 h 17.4 v 7.2 h -17.4 V 92.8 h 19.44 v 7.2 z" />
      <path
         id="path30"
         style="font-family:'Space Grotesk';letter-spacing:0.075em"
         d="M 307.57328,100 V 58 h 14.7 l 7.26,36.6 h 1.08 l 7.26,-36.6 h 14.7 v 42 h -7.68 V 63.82 h -1.08 l -7.2,36.18 h -13.08 l -7.2,-36.18 h -1.08 V 100 Z" />
      <path
         id="path32"
         style="font-family:'Space Grotesk';letter-spacing:0.075em"
         d="M 365.04203,100 V 58 h 17.28 q 3.96,0 6.96,1.62 3.06,1.56 4.74,4.44 1.74,2.88 1.74,6.84 v 0.84 q 0,3.9 -1.8,6.84 -1.74,2.88 -4.8,4.5 -3,1.56 -6.84,1.56 h -9.36 V 100 Z m 7.92,-22.56 h 8.58 q 2.82,0 4.56,-1.56 1.74,-1.56 1.74,-4.26 v -0.6 q 0,-2.7 -1.74,-4.26 -1.74,-1.56 -4.56,-1.56 h -8.58 z" />
      <path
         id="path34"
         style="font-family:'Space Grotesk';letter-spacing:0.075em"
         d="m 422.07297,100.84 q -7.92,0 -12.6,-4.32 -4.68,-4.38 -4.68,-12.48 V 73.96 q 0,-8.1 4.68,-12.42 4.68,-4.38 12.6,-4.38 7.92,0 12.6,4.38 4.68,4.32 4.68,12.42 v 10.08 q 0,8.1 -4.68,12.48 -4.68,4.32 -12.6,4.32 z m 0,-7.08 q 4.44,0 6.9,-2.58 2.46,-2.58 2.46,-6.9 V 73.72 q 0,-4.32 -2.46,-6.9 -2.46,-2.58 -6.9,-2.58 -4.38,0 -6.9,2.58 -2.46,2.58 -2.46,6.9 v 10.56 q 0,4.32 2.46,6.9 2.52,2.58 6.9,2.58 z" />
      <path
         id="path36"
         style="font-family:'Space Grotesk';letter-spacing:0.075em"
         d="M 450.79984,100 V 58 h 18.24 q 3.96,0 6.9,1.38 2.94,1.38 4.56,3.9 1.62,2.52 1.62,5.94 v 0.72 q 0,3.78 -1.8,6.12 -1.8,2.34 -4.44,3.42 v 1.08 q 2.4,0.12 3.72,1.68 1.32,1.5 1.32,4.02 V 100 h -7.92 V 87.4 q 0,-1.44 -0.78,-2.34 -0.72,-0.9 -2.46,-0.9 h -11.04 V 100 Z m 7.92,-23.04 h 9.48 q 2.82,0 4.38,-1.5 1.62,-1.56 1.62,-4.08 v -0.6 q 0,-2.52 -1.56,-4.02 -1.56,-1.56 -4.44,-1.56 h -9.48 z" />
      <path
         id="path38"
         style="font-family:'Space Grotesk';letter-spacing:0.075em"
         d="m 490.38859,100 11.04,-42 h 13.8 l 11.04,42 h -8.16 l -2.28,-9.24 h -15 l -2.28,9.24 z m 12.3,-16.56 h 11.28 l -5.1,-20.46 h -1.08 z" />
      <path
         id="path40"
         style="font-family:'Space Grotesk';letter-spacing:0.075em"
         d="M 535.85453,100 V 58 h 15.06 l 8.34,36.6 h 1.08 V 58 h 7.8 v 42 h -15.06 l -8.34,-36.6 h -1.08 V 100 Z" />
      <path
         id="path42"
         style="font-family:'Space Grotesk';letter-spacing:0.075em"
         d="M 580.54984,100 V 58 h 27 v 7.2 h -19.08 v 10.02 h 17.4 v 7.2 h -17.4 V 92.8 h 19.44 v 7.2 z" />
      <path
         id="path44"
         style="font-family:'Space Grotesk';letter-spacing:0.075em"
         d="m 615.45109,100 11.04,-42 h 13.8 l 11.04,42 h -8.16 l -2.28,-9.24 h -15 l -2.28,9.24 z m 12.3,-16.56 h 11.28 l -5.1,-20.46 h -1.08 z" />
    </g>
  </g>
</svg>
