<?xml version="1.0" encoding="UTF-8" standalone="no"?>
<svg
   xmlns:dc="http://purl.org/dc/elements/1.1/"
   xmlns:cc="http://creativecommons.org/ns#"
   xmlns:rdf="http://www.w3.org/1999/02/22-rdf-syntax-ns#"
   xmlns:svg="http://www.w3.org/2000/svg"
   xmlns="http://www.w3.org/2000/svg"
   id="svg16"
   width="800px"
   version="1.1"
   height="200px">
  <metadata
     id="metadata20">
    <rdf:RDF>
      <cc:Work
         rdf:about="">
        <dc:format>image/svg+xml</dc:format>
        <dc:type
           rdf:resource="http://purl.org/dc/dcmitype/StillImage" />
      </cc:Work>
    </rdf:RDF>
  </metadata>
  <defs
     id="defs4">
    <style
       id="style2"
       type="text/css"><![CDATA[    
     @font-face {font-family:Space Grotesk;
     src: url('/Users/francesco/Repos/write-logos/src/fonts/Fonts_E_TEMPORANEA/SpaceGrotesk-Bold.ttf');}
     @font-face {font-family:Arsenale Blue;
     src: url('/Users/francesco/Repos/write-logos/src/fonts/Fonts_X/arsenaleblue.ttf');}
     ]]></style>
  </defs>
  <g
     id="g14"
     style="font-size:60px">
    <g
       style="text-anchor:middle"
       id="text12"
       aria-label="EXTEMPORANEA">
      <path
         id="path22"
         style="font-family:'Space Grotesk';letter-spacing:0.075em"
         d="M 148.80766,100 V 58 h 27 v 7.2 h -19.08 v 10.02 h 17.4 v 7.2 h -17.4 V 92.8 h 19.44 v 7.2 z" />
      <path
         id="path24"
         style="font-family:'Arsenale Blue';letter-spacing:0.05em"
         d="m 223.78891,91 q 0.18,1.38 0.18,2.88 0,3.24 -1.2,5.22 -1.14,1.92 -3.78,2.64 -1.8,0 -6.06,-3.6 -4.26,-3.66 -11.22,-10.8 -7.5,-7.62 -11.04,-11.4 -3.48,-3.84 -3.48,-3.72 -0.72,-2.76 -0.72,-4.74 0,-2.82 1.2,-4.44 1.26,-1.68 4.14,-1.68 3,0 6.3,1.32 3.36,1.26 6.66,3.48 3.3,2.22 6.36,5.16 3.06,2.94 5.58,6.24 2.58,3.24 4.38,6.66 1.86,3.36 2.64,6.54 z m -21.12,-0.06 q 0,1.98 -1.14,3.9 -1.08,1.86 -2.76,3.36 -1.62,1.5 -3.48,2.4 -1.8,0.96 -3.24,0.96 -0.84,0 -1.68,-0.24 -0.84,-0.24 -1.68,-0.9 -0.12,0 -0.9,-0.48 -0.72,-0.54 -1.56,-1.32 -0.84,-0.84 -1.56,-1.86 -0.66,-1.02 -0.66,-2.16 0,-2.04 1.62,-4.92 0.72,-1.02 1.62,-2.16 0.9,-1.14 1.92,-2.1 1.08,-1.02 2.28,-1.62 1.2,-0.66 2.58,-0.66 1.38,0 2.82,0.78 1.44,0.72 3,2.58 0.42,0.48 0.9,0.96 0.54,0.48 0.96,0.96 0.42,0.48 0.66,1.02 0.3,0.48 0.3,1.08 z m 7.32,-22.74 q 0,-1.38 0.78,-2.76 0.84,-1.38 1.98,-2.46 1.2,-1.08 2.52,-1.74 1.38,-0.72 2.4,-0.72 1.32,0 2.4,0.84 0.12,0 0.66,0.36 0.54,0.36 1.14,0.96 0.66,0.6 1.14,1.38 0.48,0.72 0.48,1.5 0,0.6 -0.54,1.98 -0.54,1.38 -1.5,2.76 -0.9,1.38 -2.28,2.46 -1.32,1.08 -2.94,1.08 -1.02,0 -2.1,-0.54 -1.02,-0.54 -2.1,-1.86 -0.66,-0.78 -1.38,-1.44 -0.66,-0.66 -0.66,-1.5 z" />
      <path
         id="path26"
         style="font-family:'Space Grotesk';letter-spacing:0.075em"
         d="M 242.43391,100 V 65.2 h -12.24 V 58 h 32.4 v 7.2 h -12.24 V 100 Z" />
      <path
         id="path28"
         style="font-family:'Space Grotesk';letter-spacing:0.075em"
         d="M 272.48734,100 V 58 h 27 v 7.2 h -19.08 v 10.02 h 17.4 v 7.2 h -17.4 V 92.8 h 19.44 v 7.2 z" />
      <path
         id="path30"
         style="font-family:'Space Grotesk';letter-spacing:0.075em"
         d="M 310.26859,100 V 58 h 14.7 l 7.26,36.6 h 1.08 l 7.26,-36.6 h 14.7 v 42 h -7.68 V 63.82 h -1.08 l -7.2,36.18 h -13.08 l -7.2,-36.18 h -1.08 V 100 Z" />
      <path
         id="path32"
         style="font-family:'Space Grotesk';letter-spacing:0.075em"
         d="M 367.73734,100 V 58 h 17.28 q 3.96,0 6.96,1.62 3.06,1.56 4.74,4.44 1.74,2.88 1.74,6.84 v 0.84 q 0,3.9 -1.8,6.84 -1.74,2.88 -4.8,4.5 -3,1.56 -6.84,1.56 h -9.36 V 100 Z m 7.92,-22.56 h 8.58 q 2.82,0 4.56,-1.56 1.74,-1.56 1.74,-4.26 v -0.6 q 0,-2.7 -1.74,-4.26 -1.74,-1.56 -4.56,-1.56 h -8.58 z" />
      <path
         id="path34"
         style="font-family:'Space Grotesk';letter-spacing:0.075em"
         d="m 424.76828,100.84 q -7.92,0 -12.6,-4.32 -4.68,-4.38 -4.68,-12.48 V 73.96 q 0,-8.1 4.68,-12.42 4.68,-4.38 12.6,-4.38 7.92,0 12.6,4.38 4.68,4.32 4.68,12.42 v 10.08 q 0,8.1 -4.68,12.48 -4.68,4.32 -12.6,4.32 z m 0,-7.08 q 4.44,0 6.9,-2.58 2.46,-2.58 2.46,-6.9 V 73.72 q 0,-4.32 -2.46,-6.9 -2.46,-2.58 -6.9,-2.58 -4.38,0 -6.9,2.58 -2.46,2.58 -2.46,6.9 v 10.56 q 0,4.32 2.46,6.9 2.52,2.58 6.9,2.58 z" />
      <path
         id="path36"
         style="font-family:'Space Grotesk';letter-spacing:0.075em"
         d="M 453.49516,100 V 58 h 18.24 q 3.96,0 6.9,1.38 2.94,1.38 4.56,3.9 1.62,2.52 1.62,5.94 v 0.72 q 0,3.78 -1.8,6.12 -1.8,2.34 -4.44,3.42 v 1.08 q 2.4,0.12 3.72,1.68 1.32,1.5 1.32,4.02 V 100 h -7.92 V 87.4 q 0,-1.44 -0.78,-2.34 -0.72,-0.9 -2.46,-0.9 h -11.04 V 100 Z m 7.92,-23.04 h 9.48 q 2.82,0 4.38,-1.5 1.62,-1.56 1.62,-4.08 v -0.6 q 0,-2.52 -1.56,-4.02 -1.56,-1.56 -4.44,-1.56 h -9.48 z" />
      <path
         id="path38"
         style="font-family:'Space Grotesk';letter-spacing:0.075em"
         d="m 493.08391,100 11.04,-42 h 13.8 l 11.04,42 h -8.16 l -2.28,-9.24 h -15 l -2.28,9.24 z m 12.3,-16.56 h 11.28 l -5.1,-20.46 h -1.08 z" />
      <path
         id="path40"
         style="font-family:'Space Grotesk';letter-spacing:0.075em"
         d="M 538.54984,100 V 58 h 15.06 l 8.34,36.6 h 1.08 V 58 h 7.8 v 42 h -15.06 l -8.34,-36.6 h -1.08 V 100 Z" />
      <path
         id="path42"
         style="font-family:'Space Grotesk';letter-spacing:0.075em"
         d="M 583.24516,100 V 58 h 27 v 7.2 h -19.08 v 10.02 h 17.4 v 7.2 h -17.4 V 92.8 h 19.44 v 7.2 z" />
      <path
         id="path44"
         style="font-family:'Space Grotesk';letter-spacing:0.075em"
         d="m 618.14641,100 11.04,-42 h 13.8 l 11.04,42 h -8.16 l -2.28,-9.24 h -15 l -2.28,9.24 z m 12.3,-16.56 h 11.28 l -5.1,-20.46 h -1.08 z" />
    </g>
  </g>
</svg>
