<?xml version="1.0" encoding="UTF-8" standalone="no"?>
<svg
   xmlns:dc="http://purl.org/dc/elements/1.1/"
   xmlns:cc="http://creativecommons.org/ns#"
   xmlns:rdf="http://www.w3.org/1999/02/22-rdf-syntax-ns#"
   xmlns:svg="http://www.w3.org/2000/svg"
   xmlns="http://www.w3.org/2000/svg"
   id="svg16"
   width="800px"
   version="1.1"
   height="200px">
  <metadata
     id="metadata20">
    <rdf:RDF>
      <cc:Work
         rdf:about="">
        <dc:format>image/svg+xml</dc:format>
        <dc:type
           rdf:resource="http://purl.org/dc/dcmitype/StillImage" />
      </cc:Work>
    </rdf:RDF>
  </metadata>
  <defs
     id="defs4">
    <style
       id="style2"
       type="text/css"><![CDATA[    
     @font-face {font-family:Space Grotesk Medium;
     src: url('/Users/francesco/Repos/write-logos/src/fonts/Fonts_E_TEMPORANEA/SpaceGrotesk-Medium.ttf');}
     @font-face {font-family:Zian;
     src: url('/Users/francesco/Repos/write-logos/src/fonts/Fonts_X/Zianfreepromo.ttf');}
     ]]></style>
  </defs>
  <g
     id="g14"
     style="font-size:60px">
    <g
       style="text-anchor:middle"
       id="text12"
       aria-label="EXTEMPORANEA">
      <path
         id="path22"
         style="font-family:'Space Grotesk Medium';letter-spacing:0.075em"
         d="M 148.23156,100 V 58 h 26.46 v 5.88 h -19.98 v 12.06 h 18.3 v 5.88 h -18.3 v 12.3 h 20.28 V 100 Z" />
      <path
         id="path24"
         style="font-family:Zian;letter-spacing:0.05em"
         d="m 186.64258,57.988281 h 0.82031 q 2.08008,0 4.59961,2.8125 10.95703,10.839844 11.13281,10.869141 12.77344,-12.832031 13.35938,-13.007813 1.23047,-0.673828 2.19726,-0.673828 h 0.82032 q 2.7832,0 4.42382,3.222656 0.35157,0.84961 0.35157,1.494141 v 0.996094 q 0,2.255859 -3.92579,5.566406 l -9.78515,9.755859 q 0,0.08789 12.45117,12.363282 1.25977,1.49414 1.25977,3.046875 v 0.761718 q 0,3.222657 -3.83789,4.716797 Q 220.04102,100 219.74805,100 h -1.17188 q -2.13867,0 -5.27344,-3.632813 L 203.10742,86.40625 Q 192.38477,96.923828 189.98242,99.179687 188.66406,100 187.63867,100 h -1.17187 q -2.60743,0 -4.27735,-3.222656 -0.32226,-0.84961 -0.32226,-1.494141 v -0.761719 q 0,-2.548828 3.51562,-5.302734 l 10.19531,-10.195313 v -0.05859 Q 182.7168,66.308594 182.7168,66.103516 q -0.84961,-1.376954 -0.84961,-2.490235 v -0.732422 q 0,-2.90039 3.25195,-4.570312 0.84961,-0.322266 1.52344,-0.322266 z" />
      <path
         id="path26"
         style="font-family:'Space Grotesk Medium';letter-spacing:0.075em"
         d="M 244.73594,100 V 63.88 h -12.9 V 58 h 32.28 v 5.88 h -12.9 V 100 Z" />
      <path
         id="path28"
         style="font-family:'Space Grotesk Medium';letter-spacing:0.075em"
         d="M 274.48937,100 V 58 h 26.46 v 5.88 h -19.97999 v 12.06 h 18.3 v 5.88 h -18.3 v 12.3 h 20.27999 V 100 Z" />
      <path
         id="path30"
         style="font-family:'Space Grotesk Medium';letter-spacing:0.075em"
         d="M 312.505,100 V 58 h 12.18 l 9.18,37.68 h 0.96 L 344.005,58 h 12.18 v 42 h -6.3 V 62.56 h -0.96 l -9.12,37.44 h -10.92 l -9.12,-37.44 h -0.96 V 100 Z" />
      <path
         id="path32"
         style="font-family:'Space Grotesk Medium';letter-spacing:0.075em"
         d="M 369.38781,100 V 58 h 16.68 q 3.84,0 6.84,1.56 3.06,1.5 4.74,4.32 1.74,2.76 1.74,6.66 v 0.78 q 0,3.9 -1.8,6.72 -1.74,2.82 -4.74,4.32 -3,1.5 -6.78,1.5 h -10.2 V 100 Z m 6.48,-22.02 h 9.54 q 3.36,0 5.4,-1.74 2.1,-1.8 2.1,-4.98 v -0.6 q 0,-3.18 -2.04,-4.98 -2.04,-1.8 -5.46,-1.8 h -9.54 z" />
      <path
         id="path34"
         style="font-family:'Space Grotesk Medium';letter-spacing:0.075em"
         d="m 425.87875,100.84 q -7.74,0 -12.3,-4.32 -4.56,-4.38 -4.56,-12.6 v -9.84 q 0,-8.22 4.56,-12.54 4.56,-4.38 12.3,-4.38 7.74,0 12.3,4.38 4.62,4.32 4.62,12.54 v 9.84 q 0,8.22 -4.62,12.6 -4.56,4.32 -12.3,4.32 z m 0,-5.82 q 4.92,0 7.62,-2.88 2.76,-2.94 2.76,-7.98 V 73.84 q 0,-5.04 -2.76,-7.92 -2.7,-2.94 -7.62,-2.94 -4.92,0 -7.68,2.94 -2.7,2.88 -2.7,7.92 v 10.32 q 0,5.04 2.7,7.98 2.76,2.88 7.68,2.88 z" />
      <path
         id="path36"
         style="font-family:'Space Grotesk Medium';letter-spacing:0.075em"
         d="M 455.02844,100 V 58 h 17.64 q 3.9,0 6.84,1.38 2.94,1.38 4.62,3.9 1.68,2.46 1.68,5.94 v 0.66 q 0,3.96 -1.92,6.36 -1.86,2.34 -4.56,3.3 v 0.96 q 2.28,0.12 3.66,1.56 1.38,1.44 1.38,4.02 V 100 h -6.48 V 86.98 q 0,-1.62 -0.9,-2.58 -0.84,-0.96 -2.7,-0.96 h -12.78 V 100 Z m 6.48,-22.44 h 10.44 q 3.48,0 5.4,-1.74 1.92,-1.74 1.92,-4.86 v -0.48 q 0,-3.06 -1.92,-4.8 -1.86,-1.8 -5.4,-1.8 h -10.44 z" />
      <path
         id="path38"
         style="font-family:'Space Grotesk Medium';letter-spacing:0.075em"
         d="m 494.43719,100 11.94,-42 h 11.4 l 11.94,42 h -6.66 l -2.76,-9.9 h -16.44 l -2.76,9.9 z m 11.04,-15.9 h 13.2 l -6.12,-22.08 h -0.96 z" />
      <path
         id="path40"
         style="font-family:'Space Grotesk Medium';letter-spacing:0.075em"
         d="M 539.96594,100 V 58 h 12.48 l 11.4,37.68 h 0.96 V 58 h 6.42 v 42 h -12.48 l -11.4,-37.74 h -0.96 V 100 Z" />
      <path
         id="path42"
         style="font-family:'Space Grotesk Medium';letter-spacing:0.075em"
         d="M 584.54406,100 V 58 h 26.46 v 5.88 h -19.98 v 12.06 h 18.3 v 5.88 h -18.3 v 12.3 h 20.28 V 100 Z" />
      <path
         id="path44"
         style="font-family:'Space Grotesk Medium';letter-spacing:0.075em"
         d="m 619.49969,100 11.94,-42 h 11.4 l 11.94,42 h -6.66 l -2.76,-9.9 h -16.44 l -2.76,9.9 z m 11.04,-15.9 h 13.2 l -6.12,-22.08 h -0.96 z" />
    </g>
  </g>
</svg>
