<?xml version="1.0" encoding="UTF-8" standalone="no"?>
<svg
   xmlns:dc="http://purl.org/dc/elements/1.1/"
   xmlns:cc="http://creativecommons.org/ns#"
   xmlns:rdf="http://www.w3.org/1999/02/22-rdf-syntax-ns#"
   xmlns:svg="http://www.w3.org/2000/svg"
   xmlns="http://www.w3.org/2000/svg"
   id="svg16"
   width="800px"
   version="1.1"
   height="200px">
  <metadata
     id="metadata20">
    <rdf:RDF>
      <cc:Work
         rdf:about="">
        <dc:format>image/svg+xml</dc:format>
        <dc:type
           rdf:resource="http://purl.org/dc/dcmitype/StillImage" />
      </cc:Work>
    </rdf:RDF>
  </metadata>
  <defs
     id="defs4">
    <style
       id="style2"
       type="text/css"><![CDATA[    
     @font-face {font-family:Space Grotesk Medium;
     src: url('/Users/francesco/Repos/write-logos/src/fonts/Fonts_E_TEMPORANEA/SpaceGrotesk-Medium.ttf');}
     @font-face {font-family:Mercury Blob;
     src: url('/Users/francesco/Repos/write-logos/src/fonts/Fonts_X/Mercblob.ttf');}
     ]]></style>
  </defs>
  <g
     id="g14"
     style="font-size:60px">
    <g
       style="text-anchor:middle"
       id="text12"
       aria-label="EXTEMPORANEA">
      <path
         id="path22"
         style="font-family:'Space Grotesk Medium';letter-spacing:0.075em"
         d="M 141.14172,100 V 58 h 26.46 v 5.88 h -19.98 v 12.06 h 18.3 v 5.88 h -18.3 v 12.3 h 20.28 V 100 Z" />
      <path
         id="path24"
         style="font-family:'Mercury Blob';letter-spacing:0.05em"
         d="m 189.83734,61.54 q 1.98,0 3.36,-1.38 1.44,-1.44 1.44,-3.36 0,-1.98 -1.44,-3.36 -1.38,-1.44 -3.36,-1.44 -1.98,0 -3.36,1.38 -1.38,1.38 -1.38,3.42 0,1.92 1.32,3.36 1.38,1.38 3.42,1.38 z m -10.02,0 q 1.98,0 3.36,-1.38 1.38,-1.38 1.38,-3.36 0,-1.92 -1.38,-3.36 -1.38,-1.44 -3.36,-1.44 -1.98,0 -3.42,1.44 -1.38,1.38 -1.38,3.36 0,1.98 1.38,3.36 1.38,1.38 3.42,1.38 z m 10.02,10.02 q 1.92,0 3.36,-1.38 1.44,-1.38 1.44,-3.36 0,-1.98 -1.44,-3.36 -1.38,-1.44 -3.36,-1.44 -1.98,0 -3.36,1.38 -1.38,1.38 -1.38,3.42 0,1.98 1.38,3.36 1.38,1.38 3.36,1.38 z m 20.1,30.18 q 1.98,0 3.36,-1.44 1.44,-1.38 1.44,-3.36 0,-1.98 -1.38,-3.36 -1.38,-1.38 -3.42,-1.38 -1.92,0 -3.36,1.38 -1.44,1.38 -1.44,3.36 0,1.98 1.38,3.36 1.44,1.44 3.42,1.44 z m 10.02,10.02 q 1.92,0 3.36,-1.38 1.44,-1.38 1.44,-3.36 0,-1.98 -1.44,-3.42 -1.38,-1.38 -3.36,-1.38 -1.98,0 -3.36,1.38 -1.38,1.38 -1.38,3.42 0,1.98 1.38,3.36 1.38,1.38 3.36,1.38 z m 0.06,-50.22 q 1.98,0 3.36,-1.38 1.38,-1.38 1.38,-3.36 0,-1.92 -1.38,-3.36 -1.38,-1.44 -3.36,-1.44 -1.98,0 -3.42,1.44 -1.38,1.38 -1.38,3.36 0,3.54 -0.84,4.38 -0.84,0.84 -4.44,0.84 -1.98,0 -3.42,1.44 -1.38,1.38 -1.38,3.3 l 0.06,0.42 q 0,3.3 -0.9,4.08 -0.9,0.78 -4.38,0.78 -1.98,0 -3.42,1.44 -1.38,1.38 -1.38,3.36 v 0.42 q 0,3.24 -0.9,4.08 -0.84,0.78 -4.38,0.78 -1.98,0 -3.36,1.38 -1.38,1.38 -1.38,3.36 0,1.92 1.38,3.36 1.38,1.44 3.36,1.44 1.98,0 3.36,-1.38 1.44,-1.44 1.44,-3.42 0,-3.54 0.84,-4.38 0.84,-0.84 4.44,-0.84 1.98,0 3.36,-1.38 1.38,-1.38 1.38,-3.42 v -0.42 q 0,-3.24 0.84,-4.02 0.9,-0.84 4.44,-0.84 1.92,0 3.36,-1.38 1.44,-1.38 1.44,-3.36 V 66.4 q 0,-3.3 0.84,-4.08 0.84,-0.78 4.44,-0.78 z m -10.08,20.1 q 1.98,0 3.36,-1.38 1.44,-1.44 1.44,-3.42 0,-1.98 -1.38,-3.36 -1.38,-1.38 -3.42,-1.38 -1.98,0 -3.36,1.38 -1.38,1.38 -1.38,3.36 0,3.6 -0.84,4.44 -0.84,0.84 -4.44,0.84 -1.92,0 -3.36,1.38 -1.44,1.38 -1.44,3.36 v 0.42 q 0,3.3 -0.9,4.08 -0.9,0.78 -4.38,0.78 -1.98,0 -3.36,1.38 -1.38,1.38 -1.38,3.42 v 0.42 q 0,3.24 -0.9,4.02 -0.84,0.84 -4.38,0.84 -1.92,0 -3.36,1.38 -1.44,1.38 -1.44,3.36 0,1.98 1.38,3.36 1.44,1.44 3.42,1.44 1.98,0 3.36,-1.38 1.38,-1.38 1.38,-3.42 0,-3.54 0.84,-4.38 0.84,-0.84 4.44,-0.84 1.98,0 3.36,-1.44 1.44,-1.38 1.44,-3.36 v -0.42 q 0,-3.24 0.84,-4.02 0.9,-0.84 4.44,-0.84 1.98,0 3.36,-1.38 1.38,-1.38 1.38,-3.36 V 86.5 q 0,-3.3 0.9,-4.08 0.9,-0.78 4.38,-0.78 z m 0,30.12 q 1.92,0 3.36,-1.38 1.44,-1.38 1.44,-3.36 0,-1.98 -1.44,-3.42 -1.38,-1.38 -3.36,-1.38 -1.98,0 -3.42,1.38 -1.38,1.44 -1.38,3.42 0,1.98 1.38,3.36 1.38,1.38 3.42,1.38 z" />
      <path
         id="path26"
         style="font-family:'Space Grotesk Medium';letter-spacing:0.075em"
         d="M 251.82578,100 V 63.88 h -12.9 V 58 h 32.28 v 5.88 h -12.9 V 100 Z" />
      <path
         id="path28"
         style="font-family:'Space Grotesk Medium';letter-spacing:0.075em"
         d="M 281.57922,100 V 58 h 26.46 v 5.88 h -19.98 v 12.06 h 18.3 v 5.88 h -18.3 v 12.3 h 20.28 V 100 Z" />
      <path
         id="path30"
         style="font-family:'Space Grotesk Medium';letter-spacing:0.075em"
         d="M 319.59484,100 V 58 h 12.18 l 9.18,37.68 h 0.96 l 9.18,-37.68 h 12.18 v 42 h -6.3 V 62.56 h -0.96 l -9.12,37.44 h -10.92 l -9.12,-37.44 h -0.96 V 100 Z" />
      <path
         id="path32"
         style="font-family:'Space Grotesk Medium';letter-spacing:0.075em"
         d="M 376.47766,100 V 58 h 16.68 q 3.84,0 6.84,1.56 3.06,1.5 4.74,4.32 1.74,2.76 1.74,6.66 v 0.78 q 0,3.9 -1.8,6.72 -1.74,2.82 -4.74,4.32 -3,1.5 -6.78,1.5 h -10.2 V 100 Z m 6.48,-22.02 h 9.54 q 3.36,0 5.4,-1.74 2.1,-1.8 2.1,-4.98 v -0.6 q 0,-3.18 -2.04,-4.98 -2.04,-1.8 -5.46,-1.8 h -9.54 z" />
      <path
         id="path34"
         style="font-family:'Space Grotesk Medium';letter-spacing:0.075em"
         d="m 432.96859,100.84 q -7.74,0 -12.3,-4.32 -4.56,-4.38 -4.56,-12.6 v -9.84 q 0,-8.22 4.56,-12.54 4.56,-4.38 12.3,-4.38 7.74,0 12.3,4.38 4.62,4.32 4.62,12.54 v 9.84 q 0,8.22 -4.62,12.6 -4.56,4.32 -12.3,4.32 z m 0,-5.82 q 4.92,0 7.62,-2.88 2.76,-2.94 2.76,-7.98 V 73.84 q 0,-5.04 -2.76,-7.92 -2.7,-2.94 -7.62,-2.94 -4.92,0 -7.68,2.94 -2.7,2.88 -2.7,7.92 v 10.32 q 0,5.04 2.7,7.98 2.76,2.88 7.68,2.88 z" />
      <path
         id="path36"
         style="font-family:'Space Grotesk Medium';letter-spacing:0.075em"
         d="M 462.11828,100 V 58 h 17.64 q 3.9,0 6.84,1.38 2.94,1.38 4.62,3.9 1.68,2.46 1.68,5.94 v 0.66 q 0,3.96 -1.92,6.36 -1.86,2.34 -4.56,3.3 v 0.96 q 2.28,0.12 3.66,1.56 1.38,1.44 1.38,4.02 V 100 h -6.48 V 86.98 q 0,-1.62 -0.9,-2.58 -0.84,-0.96 -2.7,-0.96 h -12.78 V 100 Z m 6.48,-22.44 h 10.44 q 3.48,0 5.4,-1.74 1.92,-1.74 1.92,-4.86 v -0.48 q 0,-3.06 -1.92,-4.8 -1.86,-1.8 -5.4,-1.8 h -10.44 z" />
      <path
         id="path38"
         style="font-family:'Space Grotesk Medium';letter-spacing:0.075em"
         d="m 501.52703,100 11.94,-42 h 11.4 l 11.94,42 h -6.66 l -2.76,-9.9 h -16.44 l -2.76,9.9 z m 11.04,-15.9 h 13.2 l -6.12,-22.08 h -0.96 z" />
      <path
         id="path40"
         style="font-family:'Space Grotesk Medium';letter-spacing:0.075em"
         d="M 547.05578,100 V 58 h 12.48 l 11.4,37.68 h 0.96 V 58 h 6.42 v 42 h -12.48 l -11.4,-37.74 h -0.96 V 100 Z" />
      <path
         id="path42"
         style="font-family:'Space Grotesk Medium';letter-spacing:0.075em"
         d="M 591.63391,100 V 58 h 26.46 v 5.88 h -19.98 v 12.06 h 18.3 v 5.88 h -18.3 v 12.3 h 20.28 V 100 Z" />
      <path
         id="path44"
         style="font-family:'Space Grotesk Medium';letter-spacing:0.075em"
         d="m 626.58953,100 11.94,-42 h 11.4 l 11.94,42 h -6.66 l -2.76,-9.9 h -16.44 l -2.76,9.9 z m 11.04,-15.9 h 13.2 l -6.12,-22.08 h -0.96 z" />
    </g>
  </g>
</svg>
