<?xml version="1.0" encoding="UTF-8" standalone="no"?>
<svg
   xmlns:dc="http://purl.org/dc/elements/1.1/"
   xmlns:cc="http://creativecommons.org/ns#"
   xmlns:rdf="http://www.w3.org/1999/02/22-rdf-syntax-ns#"
   xmlns:svg="http://www.w3.org/2000/svg"
   xmlns="http://www.w3.org/2000/svg"
   id="svg16"
   width="800px"
   version="1.1"
   height="200px">
  <metadata
     id="metadata20">
    <rdf:RDF>
      <cc:Work
         rdf:about="">
        <dc:format>image/svg+xml</dc:format>
        <dc:type
           rdf:resource="http://purl.org/dc/dcmitype/StillImage" />
      </cc:Work>
    </rdf:RDF>
  </metadata>
  <defs
     id="defs4">
    <style
       id="style2"
       type="text/css"><![CDATA[    
     @font-face {font-family:Space Grotesk Medium;
     src: url('/Users/francesco/Repos/write-logos/src/fonts/Fonts_E_TEMPORANEA/SpaceGrotesk-Medium.ttf');}
     @font-face {font-family:MADE Soulmaze Brush;
     src: url('/Users/francesco/Repos/write-logos/src/fonts/Fonts_X/SoulmazeBrush.otf');}
     ]]></style>
  </defs>
  <g
     id="g14"
     style="font-size:60px">
    <g
       style="text-anchor:middle"
       id="text12"
       aria-label="EXTEMPORANEA">
      <path
         id="path22"
         style="font-family:'Space Grotesk Medium';letter-spacing:0.075em"
         d="M 155.90734,100 V 58 h 26.46 v 5.88 h -19.98 v 12.06 h 18.3 v 5.88 h -18.3 v 12.3 h 20.28 V 100 Z" />
      <path
         id="path24"
         style="font-family:'MADE Soulmaze Brush';letter-spacing:0.05em"
         d="m 197.28297,66.28 c -0.06,-0.06 -0.06,-0.06 -0.06,-0.06 0,0 0.06,0 0.06,0.06 0.06,0.06 0,0.18 0.06,0.24 0.06,0.36 0.18,0.66 0.18,1.02 0.06,0.36 0.12,0.66 0.18,0.96 0.06,0.6 0.18,1.14 0.3,1.68 0.12,0.48 0.18,1.02 0.36,1.56 0.06,0.18 0,0.42 0.06,0.6 0.12,0.24 0.18,0.48 0.12,0.78 0.12,0.24 0.24,0.42 0.24,0.66 0,0.12 0.06,0.18 0.12,0.24 0,0.3 -0.12,0.66 0.12,0.9 0,0.24 0.06,0.48 0.18,0.66 -0.06,0.12 -0.12,0.18 -0.18,0.3 -0.12,0.12 -0.24,0.24 -0.3,0.36 -0.06,0.18 -0.24,0.36 -0.42,0.54 -0.12,0.24 -0.36,0.42 -0.54,0.6 -0.12,0.18 -0.3,0.36 -0.48,0.54 -0.24,0.24 -0.42,0.42 -0.6,0.72 -0.12,0.18 -0.24,0.36 -0.42,0.54 -0.24,0.3 -0.42,0.6 -0.6,0.9 -0.06,0.06 -0.18,0.18 -0.24,0.24 -0.36,0.36 -0.78,0.72 -1.02,1.2 -0.06,0.06 -0.06,0.12 -0.12,0.12 -0.24,0.3 -0.42,0.54 -0.66,0.78 -0.12,0.24 -0.3,0.42 -0.42,0.66 -0.3,0.42 -0.6,0.84 -0.84,1.26 -0.24,0.42 -0.48,0.78 -0.84,1.14 -0.3,0.3 -0.54,0.66 -0.66,1.02 -0.06,0.24 -0.24,0.42 -0.48,0.54 -0.3,0.24 -0.54,0.48 -0.72,0.78 -0.12,0.24 -0.24,0.48 -0.42,0.66 0,0.06 0,0.18 -0.06,0.24 -0.06,0.12 -0.12,0.3 -0.24,0.42 -0.3,0.36 -0.54,0.84 -0.78,1.26 -0.18,0.36 -0.42,0.6 -0.54,0.96 -0.12,0.18 -0.24,0.36 -0.24,0.6 -0.06,0.12 -0.12,0.18 -0.18,0.3 -0.18,0.36 -0.3,0.78 -0.54,1.02 -0.06,0.06 -0.06,0.06 -0.06,0.06 -0.18,0.36 -0.3,0.78 -0.6,1.14 0.12,0.18 -0.06,0.3 0,0.48 0.12,0 0.18,0 0.3,0 0.06,0.36 -0.18,0.6 -0.3,0.9 0,0.06 0,0.12 0,0.12 0,0.06 0,0.12 0,0.18 -0.06,0.18 -0.06,0.18 0,0.48 0.24,-0.18 0.36,-0.54 0.6,-0.72 0.3,0.24 0.06,0.48 0.06,0.72 0,0.06 0.06,0.12 0.12,0.18 -0.06,0.12 -0.06,0.18 -0.06,0.3 -0.12,0.12 -0.18,0.18 -0.24,0.3 -0.06,0.12 -0.18,0.24 -0.18,0.42 0,0.24 -0.06,0.42 -0.18,0.6 -0.12,0.24 -0.18,0.48 -0.12,0.72 0.36,-0.24 0.54,-0.66 0.9,-0.84 0.06,0 0.18,0.06 0.3,0 0.3,-0.3 0.48,-0.78 0.78,-1.2 0.06,0 0.12,-0.06 0.18,-0.12 0,0 0.06,0 0.06,0 0,-0.06 0,-0.06 0.06,-0.12 0,0.06 -0.06,0.06 -0.06,0.12 0,0 0,0 -0.06,0 -0.06,0.18 -0.18,0.36 -0.18,0.54 0.18,-0.12 0.3,-0.3 0.48,-0.42 0.12,0 0.18,-0.06 0.24,-0.18 0.24,-0.24 0.42,-0.48 0.6,-0.72 0.36,-0.42 0.66,-0.84 1.02,-1.2 0.18,-0.18 0.36,-0.36 0.54,-0.54 0.12,-0.12 0.24,-0.24 0.42,-0.3 0.06,-0.24 0.06,-0.24 0.3,-0.3 0.06,-0.06 0.06,-0.18 0.18,-0.3 0.06,-0.06 0.18,-0.06 0.3,-0.18 0.06,0 -0.06,-0.12 0,-0.18 0.3,0.06 0.36,-0.24 0.54,-0.3 0.06,-0.06 0,-0.12 0.06,-0.18 0,0 0.06,0 0.12,0 0.24,-0.18 0.36,-0.48 0.6,-0.66 0,-0.06 -0.12,0 -0.12,-0.12 0.06,0 0.06,-0.06 0.12,-0.06 0.06,0.06 0.06,0.12 0.12,0.12 0.18,-0.12 0.3,-0.3 0.36,-0.54 0,-0.06 0.06,-0.12 0.18,-0.12 0.06,-0.06 0.12,0 0.12,-0.06 0.18,-0.18 0.36,-0.36 0.54,-0.48 0.24,-0.36 0.36,-0.66 0.84,-0.72 0.06,-0.18 0.3,-0.3 0.42,-0.48 0.06,-0.06 0.18,-0.18 0.24,-0.18 0.12,0 0.18,-0.06 0.24,-0.06 0.18,-0.12 0.36,-0.24 0.42,-0.48 0.06,-0.06 0.06,-0.06 0.12,-0.06 0,-0.06 -0.06,-0.12 0,-0.12 0.06,-0.06 0.12,-0.18 0.24,-0.18 0.06,0.12 0.06,0.24 0.06,0.36 0.12,0 0.18,-0.06 0.24,-0.12 0.12,-0.12 0.3,-0.24 0.48,-0.3 0.12,-0.06 0.24,-0.12 0.36,-0.24 0.18,-0.18 0.42,-0.42 0.66,-0.6 0.24,-0.18 0.42,-0.36 0.66,-0.48 0.06,-0.12 0.06,-0.3 0.12,-0.42 0.18,-0.18 0.36,-0.36 0.48,-0.54 0.42,-0.06 0.72,-0.3 1.08,-0.6 0.06,0.18 0.18,0.36 0.36,0.48 0.06,0.06 0.06,0.18 0.06,0.24 0,0.24 0,0.54 0.12,0.72 0.18,0.42 0.36,0.9 0.54,1.32 0.12,0.3 0.24,0.54 0.24,0.84 0,0.06 0.06,0.06 0.12,0.06 0.06,0.3 0.12,0.66 0.24,0.96 0.12,0.42 0.18,0.9 0.3,1.32 0.06,0.12 0.12,0.18 0.18,0.24 -0.06,0.12 0,0.24 0,0.3 0.06,0.18 0.18,0.36 0.12,0.54 0,0.18 0.06,0.3 0.18,0.42 0,0.12 0.06,0.24 0.06,0.36 0.06,0.36 0.18,0.66 0.24,1.02 0.06,0.3 0.12,0.54 0.24,0.84 0.06,0.36 0.12,0.72 0.24,1.08 0.12,0.3 0.12,0.6 0.24,0.9 0.12,0.42 0.24,0.9 0.3,1.32 0.06,0.06 0.06,0.12 0.06,0.18 -0.06,0.24 0.06,0.42 0.12,0.66 0.06,0.24 0.06,0.42 0.12,0.6 0.12,0.3 0.12,0.6 0.24,0.84 0.06,0.18 0.12,0.3 0.12,0.48 0,0.06 0.06,0.12 0.06,0.18 0.06,0.18 0.12,0.42 0.24,0.6 0.12,0.42 0.24,0.84 0.42,1.26 0.06,0.24 0.24,0.42 0.3,0.72 0.06,0.18 0.12,0.42 0.24,0.66 0.12,0.06 0.18,0.12 0.36,0.18 -0.18,-0.3 -0.24,-0.6 -0.3,-0.96 0,0.06 0.06,0.12 0.06,0.18 0.06,0.24 0.18,0.42 0.36,0.54 0.06,0.06 0.12,0.12 0.12,0.24 0.12,0.3 0.36,0.6 0.48,0.96 0,0.06 0,0.12 0.06,0.18 0.24,0.12 0.42,0.36 0.66,0.48 0.12,-0.06 0.12,-0.18 0.06,-0.24 -0.12,-0.24 -0.3,-0.54 -0.42,-0.78 -0.24,-0.3 -0.42,-0.6 -0.48,-0.96 -0.06,-0.12 -0.06,-0.24 -0.18,-0.36 -0.06,-0.06 -0.06,-0.12 -0.06,-0.18 -0.06,-0.06 -0.18,-0.06 -0.18,-0.24 0,0 0.06,0 0.12,0 0,0.06 0.12,0.06 0.12,0.12 0.06,0.36 0.3,0.66 0.42,0.96 0,0.06 0.06,0.06 0.06,0.12 0.12,0.24 0.36,0.36 0.42,0.6 0.24,0.48 0.6,0.84 0.84,1.26 0.12,0.24 0.3,0.48 0.54,0.72 0.18,0 0.36,0.12 0.42,0.3 0.12,0.12 0.24,0.18 0.36,0.18 0.12,0.06 0.12,0.12 0.18,0.12 0.18,0 0.3,-0.06 0.36,-0.12 0.12,-0.06 0.12,0.06 0.18,0 -0.06,-0.18 -0.12,-0.36 -0.18,-0.48 0,-0.12 0.12,-0.18 0.12,-0.24 -0.24,-0.42 -0.6,-0.84 -0.66,-1.38 0.12,0 0.24,0.12 0.36,0 0.06,-0.06 0,-0.18 0.06,-0.24 0.24,0.06 0.06,0.36 0.3,0.48 0,0.18 0.06,0.42 0.18,0.54 0.06,0.12 0.12,0.24 0.12,0.36 0.06,0.48 0.24,0.84 0.36,1.26 0.06,0.12 0.18,0.18 0.3,0.24 -0.06,-0.24 -0.24,-0.36 -0.24,-0.54 -0.06,-0.24 -0.18,-0.42 -0.12,-0.66 0.12,0.12 0.24,0.24 0.36,0.36 0.06,-0.06 0.06,-0.18 0.18,-0.18 0.18,0.12 0.36,0.3 0.48,0.48 0.18,-0.06 0.3,-0.18 0.48,-0.3 0,-0.24 0,-0.48 -0.12,-0.72 -0.12,-0.24 -0.18,-0.54 -0.3,-0.78 -0.12,-0.18 -0.12,-0.36 -0.12,-0.54 0,-0.06 0.06,-0.12 0,-0.18 -0.06,-0.24 0,-0.54 0,-0.84 0.06,-0.06 0,-0.12 0,-0.18 -0.12,-0.36 -0.3,-0.66 -0.18,-1.02 0,-0.06 -0.06,-0.06 -0.06,-0.12 0,-0.24 -0.06,-0.42 0.06,-0.66 0.06,-0.12 0,-0.3 -0.06,-0.48 -0.12,-0.24 -0.24,-0.54 -0.24,-0.84 -0.12,-0.48 -0.12,-0.9 -0.18,-1.38 0,-0.3 0,-0.54 -0.12,-0.84 0,-0.12 -0.06,-0.24 0,-0.36 -0.06,-0.12 -0.06,-0.24 -0.06,-0.36 0,-0.18 -0.06,-0.3 -0.12,-0.48 0,-0.06 0,-0.12 0,-0.18 0,-0.24 -0.06,-0.48 -0.12,-0.72 0,-0.3 -0.06,-0.54 -0.06,-0.78 -0.06,-0.3 -0.06,-0.6 -0.24,-0.84 0,-0.06 0,-0.12 0,-0.18 0,-0.24 -0.12,-0.48 -0.12,-0.72 0.06,-0.24 -0.18,-0.48 -0.12,-0.72 0.06,-0.12 -0.06,-0.18 -0.06,-0.3 0,-0.18 0,-0.36 0,-0.6 0,0 -0.06,-0.06 -0.12,-0.06 -0.06,0 0,0.12 -0.06,0.12 -0.36,-1.5 -0.6,-3.06 -0.9,-4.56 0.06,0.3 0.18,0.6 0.3,0.96 0.06,-0.12 0.06,-0.18 0.06,-0.18 -0.12,-0.36 -0.18,-0.66 -0.24,-1.02 0,-0.36 -0.12,-0.66 -0.18,-1.02 0,-0.24 -0.06,-0.48 -0.3,-0.66 0,-0.12 -0.06,-0.24 -0.06,-0.36 0,-0.24 -0.12,-0.48 -0.06,-0.66 0.06,-0.18 0.06,-0.36 -0.06,-0.54 -0.06,-0.06 -0.12,0 -0.18,-0.06 -0.06,-0.24 -0.18,-0.48 -0.18,-0.84 0.18,0.24 0.12,0.48 0.3,0.72 0.06,-0.12 0,-0.18 0,-0.3 -0.06,-0.24 -0.18,-0.54 -0.18,-0.78 0,-0.24 -0.06,-0.48 -0.12,-0.72 -0.12,-0.24 -0.18,-0.54 -0.36,-0.78 -0.06,-0.18 -0.12,-0.36 -0.12,-0.54 0,-0.18 0,-0.36 -0.06,-0.54 -0.06,-0.3 -0.06,-0.6 0,-0.84 0,-0.12 -0.12,-0.18 -0.06,-0.3 -0.06,-0.06 -0.12,0.06 -0.12,0 -0.12,-0.12 -0.06,-0.24 0,-0.36 -0.18,-0.12 -0.24,-0.24 -0.18,-0.42 0.06,-0.06 0.12,-0.12 0.12,-0.12 0,-0.06 0,-0.12 0,-0.12 0,-0.06 0.06,-0.06 0.12,-0.12 0.12,-0.24 0.3,-0.42 0.54,-0.54 0.06,-0.06 0.12,-0.12 0.12,-0.18 0.12,-0.18 0.24,-0.24 0.36,-0.36 0.18,-0.12 0.36,-0.24 0.48,-0.42 0.06,-0.18 0.12,-0.3 0.24,-0.36 0.18,-0.06 0.24,-0.24 0.42,-0.24 0,0 0,0 0,0 -0.06,-0.18 0.06,-0.24 0.12,-0.24 0.12,-0.06 0.18,-0.12 0.24,-0.18 0.18,-0.18 0.36,-0.42 0.6,-0.48 0.06,-0.12 0.06,-0.24 0.12,-0.3 0.06,-0.06 0.18,-0.12 0.24,-0.12 0.06,-0.06 0.06,-0.18 0.12,-0.24 0.24,-0.18 0.36,-0.42 0.6,-0.6 0.06,-0.06 0.12,-0.12 0.18,-0.18 0.24,-0.3 0.6,-0.54 0.78,-0.9 0,0 0,0 0,0 0.18,-0.18 0.36,-0.3 0.48,-0.48 0.18,-0.18 0.36,-0.42 0.48,-0.66 0.06,-0.12 0.12,-0.18 0.24,-0.3 0.06,-0.06 0.18,-0.12 0.24,-0.24 0.06,-0.06 0.12,-0.18 0.18,-0.24 0.12,-0.06 0.24,-0.18 0.36,-0.3 0.18,-0.3 0.42,-0.54 0.66,-0.78 0.12,-0.12 0.24,-0.24 0.3,-0.3 0.24,-0.24 0.36,-0.54 0.6,-0.72 0.18,-0.18 0.36,-0.42 0.48,-0.66 0.12,-0.18 0.18,-0.3 0.3,-0.42 0.24,-0.18 0.36,-0.42 0.54,-0.66 0.18,-0.3 0.48,-0.6 0.66,-0.9 0.06,-0.12 0.18,-0.18 0.24,-0.24 0.3,-0.18 0.6,-0.42 0.84,-0.66 0.06,-0.06 0.12,-0.18 0.24,-0.24 0.18,-0.06 0.36,-0.24 0.48,-0.36 0.12,-0.06 0.18,-0.18 0.24,-0.24 0.12,-0.42 0.42,-0.78 0.66,-1.14 0.12,-0.12 0.24,-0.24 0.36,-0.42 0.12,-0.18 0.24,-0.3 0.36,-0.42 0.36,-0.24 0.72,-0.48 0.9,-0.9 0.18,-0.36 0.42,-0.78 0.6,-1.14 0,-0.06 0,-0.18 0,-0.24 -0.06,-0.06 -0.06,-0.06 -0.06,-0.12 -0.18,-0.36 -0.6,-0.6 -0.6,-1.02 -0.06,-0.06 -0.12,0 -0.18,-0.06 0.06,-0.06 0.06,-0.12 0,-0.24 -0.06,-0.06 -0.12,-0.18 -0.12,-0.24 -0.06,-0.3 -0.24,-0.48 -0.54,-0.6 -0.3,-0.18 -0.66,-0.36 -1.08,-0.48 -0.12,-0.06 -0.18,-0.12 -0.3,-0.18 -0.18,-0.12 -0.36,-0.24 -0.54,-0.3 -0.12,0 -0.3,0 -0.42,-0.06 -0.42,0.3 -0.72,0.12 -0.96,-0.24 -0.36,0.12 -0.6,0.3 -0.9,0.48 -0.12,0 -0.12,-0.12 -0.18,-0.12 -0.12,0.12 -0.24,0.18 -0.3,0.3 -0.12,0 -0.18,-0.06 -0.24,0 -0.06,0.18 -0.24,0.3 -0.36,0.42 -0.24,0.18 -0.3,0.42 -0.54,0.6 -0.06,0 -0.06,0 -0.06,0.06 -0.06,0.24 -0.24,0.36 -0.48,0.42 -0.06,0.12 -0.12,0.18 -0.18,0.3 -0.06,0.06 -0.18,0.12 -0.24,0.24 -0.06,0.18 -0.18,0.36 -0.36,0.54 -0.24,0.24 -0.48,0.48 -0.6,0.72 -0.06,0.06 -0.06,0.12 -0.12,0.12 -0.18,0.12 -0.36,0.3 -0.48,0.48 -0.24,0.36 -0.66,0.66 -0.9,1.02 -0.06,0.12 -0.24,0.18 -0.3,0.3 -0.06,0 -0.18,0.06 -0.18,0.12 0,0.12 -0.06,0.18 -0.12,0.24 -0.24,0.24 -0.48,0.48 -0.78,0.72 -0.12,0.06 -0.24,0.18 -0.3,0.3 0,0.06 -0.06,0.12 -0.12,0.18 -0.18,0.12 -0.36,0.24 -0.48,0.54 -0.18,0 -0.24,0.12 -0.36,0.24 -0.18,0.18 -0.3,0.36 -0.48,0.48 -0.42,0.42 -0.84,0.84 -1.26,1.2 -0.06,0.12 -0.12,0.18 -0.24,0.24 -0.18,0.12 -0.3,0.3 -0.48,0.42 -0.06,0.06 -0.06,0.12 -0.06,0.24 0,0.12 -0.06,0.24 -0.18,0.3 -0.06,0.06 -0.12,0.12 -0.12,0.24 -0.06,0.06 -0.06,0.12 -0.12,0.18 -0.24,0.18 -0.42,0.42 -0.66,0.6 -0.12,0.12 -0.3,0.3 -0.48,0.42 -0.12,0.12 -0.18,0.3 -0.36,0.36 -0.12,-0.3 -0.24,-0.6 -0.24,-0.9 -0.12,-0.48 -0.18,-0.96 -0.3,-1.44 -0.12,-0.48 -0.18,-0.96 -0.3,-1.38 0,-0.48 -0.12,-0.9 -0.3,-1.32 0,-0.36 -0.06,-0.72 -0.18,-1.02 -0.06,-0.36 -0.12,-0.72 -0.3,-1.08 0,0 0.06,-0.06 0.06,-0.12 -0.06,-0.12 -0.12,-0.3 -0.12,-0.48 -0.06,-0.36 -0.24,-0.72 -0.3,-1.14 -0.06,-0.36 -0.18,-0.66 -0.24,-0.96 -0.12,-0.36 -0.18,-0.72 -0.3,-1.08 -0.06,-0.24 -0.12,-0.54 -0.18,-0.84 -0.06,-0.24 -0.12,-0.48 -0.18,-0.72 0,-0.18 -0.06,-0.36 -0.12,-0.54 -0.06,-0.06 -0.06,-0.12 -0.06,-0.12 0,-0.18 0,-0.36 -0.06,-0.48 0,-0.12 0,-0.24 -0.06,-0.36 -0.24,-0.24 -0.36,-0.54 -0.36,-0.9 -0.06,-0.06 -0.06,-0.12 -0.12,-0.18 -0.24,-0.12 -0.48,-0.24 -0.66,-0.36 -0.24,-0.18 -0.6,-0.24 -0.9,-0.42 0,0 -0.06,0 -0.06,0 -0.3,-0.06 -0.54,-0.12 -0.72,-0.24 -0.36,-0.18 -0.66,-0.24 -1.02,-0.24 -0.48,0 -0.9,-0.12 -1.32,-0.06 0,0 -0.06,0 -0.06,0 -0.24,-0.06 -0.48,0 -0.72,0.06 -0.24,0.12 -0.36,0.24 -0.42,0.48 0,0.18 -0.12,0.3 -0.3,0.42 -0.54,0.36 -0.84,0.9 -1.02,1.5 -0.06,0.42 0,0.84 -0.12,1.2 0,0.06 0,0.06 0,0.06 0.12,0.3 0.12,0.66 0.12,0.96 0,0.12 0,0.18 0,0.3 0.12,0.3 0.12,0.66 0.12,0.96 0,0.06 0,0.18 0,0.24 0.06,0.24 0.06,0.48 0.12,0.72 0.06,0.3 0.06,0.66 0.06,0.96 0.12,0.66 0.18,1.26 0.3,1.92 0.06,0.3 0.06,0.66 0.12,0.96 0.06,0.54 0.24,1.08 0.24,1.62 0,0.12 0.06,0.3 0.06,0.42 0.12,0.48 0.18,0.96 0.3,1.44 0.06,0.48 0.12,0.96 0.24,1.44 0,0.06 0,0.12 0.06,0.24 0.06,-0.12 0.12,-0.18 0.12,-0.24 -0.06,-0.12 0,-0.24 -0.06,-0.3 0.06,-0.06 0.06,0 0.12,-0.06 0.06,-0.48 -0.12,-1.02 -0.12,-1.5 -0.06,-0.06 -0.18,-0.06 -0.24,-0.18 0,-0.06 0,-0.12 0,-0.18 0.06,-0.06 0.12,-0.06 0.12,-0.12 -0.12,-0.36 -0.12,-0.6 -0.06,-0.84 z m 7.44,27.36 c -0.06,-0.06 -0.06,-0.12 -0.06,-0.24 0.12,0.12 0.06,0.18 0.06,0.24 0.06,0.06 0.06,0.12 0.06,0.18 -0.06,-0.06 -0.06,-0.12 -0.06,-0.18 z m 2.76,9.84 c 0.06,0.06 0.12,0.12 0,0.24 0,-0.12 0,-0.18 0,-0.24 -0.06,-0.06 -0.06,-0.12 -0.06,-0.18 0.12,0 0.06,0.12 0.06,0.18 z m -0.72,-2.28 c -0.18,-0.24 -0.24,-0.48 -0.36,-0.72 -0.06,-0.12 -0.06,-0.24 0.06,-0.36 0.18,0.36 0.24,0.72 0.3,1.08 0.12,0.06 0.06,0.24 0.12,0.36 0.06,0.06 0.06,0.12 0.12,0.18 0.06,0.3 0.18,0.6 0.24,0.9 0.06,0.12 0.06,0.18 0.12,0.24 0,0.06 0.06,0.18 0.06,0.3 -0.3,-0.36 -0.3,-0.78 -0.54,-1.14 0.06,-0.18 -0.06,-0.3 0,-0.48 -0.12,-0.12 -0.12,-0.24 -0.12,-0.36 z m -0.54,-1.32 c 0,-0.12 -0.06,-0.24 0,-0.42 0.06,0.12 0.12,0.24 0.24,0.3 -0.06,0.06 -0.12,0.12 -0.24,0.12 z m 4.44,5.64 c 0,0 0,0.06 0,0.06 0,0.12 -0.12,0.18 -0.06,0.3 -0.18,-0.06 -0.12,-0.18 -0.12,-0.24 0,-0.06 0.06,-0.12 0.18,-0.12 z m -5.04,-8.22 c 0,-0.3 -0.18,-0.48 -0.12,-0.72 0.06,0.24 0.12,0.42 0.18,0.6 0,0 0,0.06 -0.06,0.12 z m 0.36,1.14 c 0,0.06 -0.06,0.06 -0.12,0.06 -0.06,-0.06 0,-0.12 -0.06,-0.18 0.06,-0.06 0.06,-0.06 0.12,-0.06 0.06,0.06 0.06,0.12 0.06,0.18 z m -0.18,-0.48 c -0.06,-0.12 -0.18,-0.3 -0.06,-0.48 0,0.18 0.06,0.3 0.06,0.48 0,0 0,0 0,0 z m 0.3,1.02 c 0.12,0.12 0.06,0.18 0.06,0.3 -0.12,-0.12 -0.12,-0.12 -0.06,-0.3 z m -0.9,-3.42 c -0.06,-0.12 -0.12,-0.24 -0.18,-0.36 0.24,0.12 0.24,0.18 0.18,0.36 z m -0.3,-1.14 c 0.12,0.12 0.12,0.18 0.12,0.3 -0.18,-0.06 -0.12,-0.18 -0.12,-0.3 z m 3.54,-14.82 c -0.12,-0.06 -0.06,-0.12 -0.06,-0.12 0.06,-0.06 0.06,0 0.06,0.06 0,0 0,0.06 0,0.06 z m -4.38,11.16 c 0.06,0.12 0.12,0.12 0.06,0.24 -0.06,-0.06 -0.06,-0.12 -0.06,-0.24 z m 6.24,-2.7 c 0.06,0.06 0.06,0.06 0.06,0.12 -0.06,0 -0.06,-0.06 -0.06,-0.12 z m -12.9,0.3 c 0,0.06 0,0.06 -0.06,0.12 0,-0.06 0,-0.12 0.06,-0.12 z m 7.14,4.5 c 0,0.06 0.06,0.06 0,0.06 0,0 0,0 0,-0.06 z m -8.46,-2.88 c -0.12,0 -0.18,0 -0.24,0.12 -0.12,0.18 -0.3,0.3 -0.42,0.42 0,0.06 -0.06,0.12 -0.06,0.18 0.12,0 0.12,-0.06 0.18,-0.12 0.12,-0.12 0.18,-0.18 0.3,-0.24 0.12,-0.12 0.18,-0.24 0.24,-0.36 z m 0,0 c 0,0 0,0 0,0 0,0 0,0 0,0 0,0 0,0 0,0 z" />
      <path
         id="path26"
         style="font-family:'Space Grotesk Medium';letter-spacing:0.075em"
         d="M 237.06016,100 V 63.88 h -12.9 V 58 h 32.28 v 5.88 h -12.9 V 100 Z" />
      <path
         id="path28"
         style="font-family:'Space Grotesk Medium';letter-spacing:0.075em"
         d="M 266.81359,100 V 58 h 26.46 v 5.88 h -19.98 v 12.06 h 18.3 v 5.88 h -18.3 v 12.3 h 20.28 V 100 Z" />
      <path
         id="path30"
         style="font-family:'Space Grotesk Medium';letter-spacing:0.075em"
         d="M 304.82922,100 V 58 h 12.18 l 9.18,37.68 h 0.96 l 9.18,-37.68 h 12.18 v 42 h -6.3 V 62.56 h -0.96 l -9.12,37.44 h -10.92 l -9.12,-37.44 h -0.96 V 100 Z" />
      <path
         id="path32"
         style="font-family:'Space Grotesk Medium';letter-spacing:0.075em"
         d="M 361.71203,100 V 58 h 16.68 q 3.84,0 6.84,1.56 3.06,1.5 4.74,4.32 1.74,2.76 1.74,6.66 v 0.78 q 0,3.9 -1.8,6.72 -1.74,2.82 -4.74,4.32 -3,1.5 -6.78,1.5 h -10.2 V 100 Z m 6.48,-22.02 h 9.54 q 3.36,0 5.4,-1.74 2.1,-1.8 2.1,-4.98 v -0.6 q 0,-3.18 -2.04,-4.98 -2.04,-1.8 -5.46,-1.8 h -9.54 z" />
      <path
         id="path34"
         style="font-family:'Space Grotesk Medium';letter-spacing:0.075em"
         d="m 418.20297,100.84 q -7.74,0 -12.3,-4.32 -4.56,-4.38 -4.56,-12.6 v -9.84 q 0,-8.22 4.56,-12.54 4.56,-4.38 12.3,-4.38 7.74,0 12.3,4.38 4.62,4.32 4.62,12.54 v 9.84 q 0,8.22 -4.62,12.6 -4.56,4.32 -12.3,4.32 z m 0,-5.82 q 4.92,0 7.62,-2.88 2.76,-2.94 2.76,-7.98 V 73.84 q 0,-5.04 -2.76,-7.92 -2.7,-2.94 -7.62,-2.94 -4.92,0 -7.68,2.94 -2.7,2.88 -2.7,7.92 v 10.32 q 0,5.04 2.7,7.98 2.76,2.88 7.68,2.88 z" />
      <path
         id="path36"
         style="font-family:'Space Grotesk Medium';letter-spacing:0.075em"
         d="M 447.35266,100 V 58 h 17.64 q 3.9,0 6.84,1.38 2.94,1.38 4.62,3.9 1.68,2.46 1.68,5.94 v 0.66 q 0,3.96 -1.92,6.36 -1.86,2.34 -4.56,3.3 v 0.96 q 2.28,0.12 3.66,1.56 1.38,1.44 1.38,4.02 V 100 h -6.48 V 86.98 q 0,-1.62 -0.9,-2.58 -0.84,-0.96 -2.7,-0.96 h -12.78 V 100 Z m 6.48,-22.44 h 10.44 q 3.48,0 5.4,-1.74 1.92,-1.74 1.92,-4.86 v -0.48 q 0,-3.06 -1.92,-4.8 -1.86,-1.8 -5.4,-1.8 h -10.44 z" />
      <path
         id="path38"
         style="font-family:'Space Grotesk Medium';letter-spacing:0.075em"
         d="m 486.76141,100 11.94,-42 h 11.4 l 11.94,42 h -6.66 l -2.76,-9.9 h -16.44 l -2.76,9.9 z m 11.04,-15.9 h 13.2 l -6.12,-22.08 h -0.96 z" />
      <path
         id="path40"
         style="font-family:'Space Grotesk Medium';letter-spacing:0.075em"
         d="M 532.29016,100 V 58 h 12.48 l 11.4,37.68 h 0.96 V 58 h 6.42 v 42 h -12.48 l -11.4,-37.74 h -0.96 V 100 Z" />
      <path
         id="path42"
         style="font-family:'Space Grotesk Medium';letter-spacing:0.075em"
         d="M 576.86828,100 V 58 h 26.46 v 5.88 h -19.98 v 12.06 h 18.3 v 5.88 h -18.3 v 12.3 h 20.28 V 100 Z" />
      <path
         id="path44"
         style="font-family:'Space Grotesk Medium';letter-spacing:0.075em"
         d="m 611.82391,100 11.94,-42 h 11.4 l 11.94,42 h -6.66 l -2.76,-9.9 h -16.44 l -2.76,9.9 z m 11.04,-15.9 h 13.2 l -6.12,-22.08 h -0.96 z" />
    </g>
  </g>
</svg>
