<?xml version="1.0" encoding="UTF-8" standalone="no"?>
<svg
   xmlns:dc="http://purl.org/dc/elements/1.1/"
   xmlns:cc="http://creativecommons.org/ns#"
   xmlns:rdf="http://www.w3.org/1999/02/22-rdf-syntax-ns#"
   xmlns:svg="http://www.w3.org/2000/svg"
   xmlns="http://www.w3.org/2000/svg"
   id="svg16"
   width="800px"
   version="1.1"
   height="200px">
  <metadata
     id="metadata20">
    <rdf:RDF>
      <cc:Work
         rdf:about="">
        <dc:format>image/svg+xml</dc:format>
        <dc:type
           rdf:resource="http://purl.org/dc/dcmitype/StillImage" />
      </cc:Work>
    </rdf:RDF>
  </metadata>
  <defs
     id="defs4">
    <style
       id="style2"
       type="text/css"><![CDATA[    
     @font-face {font-family:Space Grotesk;
     src: url('/Users/francesco/Repos/write-logos/src/fonts/Fonts_E_TEMPORANEA/SpaceGrotesk-Bold.ttf');}
     @font-face {font-family:MCF Alien Delon;
     src: url('/Users/francesco/Repos/write-logos/src/fonts/Fonts_X/AlienDelon.ttf');}
     ]]></style>
  </defs>
  <g
     id="g14"
     style="font-size:60px">
    <g
       style="text-anchor:middle"
       id="text12"
       aria-label="EXTEMPORANEA">
      <path
         id="path22"
         style="font-family:'Space Grotesk';letter-spacing:0.075em"
         d="M 152.32328,100 V 58 h 27 v 7.2 h -19.08 v 10.02 h 17.4 v 7.2 h -17.4 V 92.8 h 19.44 v 7.2 z" />
      <path
         id="path24"
         style="font-family:'MCF Alien Delon';letter-spacing:0.05em"
         d="m 191.24453,58.12 30.18,41.88 h -7.38 l -11.58,-16.02 -11.58,16.02 h -7.44 l 15.3,-21.18 -15,-20.7 h 0.84 6.66 v 0 z m 10.26,0 6.12,8.46 6.12,-8.46 h 7.38 l -9.84,13.56 5.52,7.62 h -7.44 l -15.3,-21.18 h 6.72 0.72 v 0 z" />
      <path
         id="path26"
         style="font-family:'Space Grotesk';letter-spacing:0.075em"
         d="M 238.91828,100 V 65.2 h -12.24 V 58 h 32.4 v 7.2 h -12.24 V 100 Z" />
      <path
         id="path28"
         style="font-family:'Space Grotesk';letter-spacing:0.075em"
         d="M 268.97172,100 V 58 h 27 v 7.2 h -19.08 v 10.02 h 17.4 v 7.2 h -17.4 V 92.8 h 19.44 v 7.2 z" />
      <path
         id="path30"
         style="font-family:'Space Grotesk';letter-spacing:0.075em"
         d="M 306.75297,100 V 58 h 14.7 l 7.26,36.6 h 1.08 l 7.26,-36.6 h 14.7 v 42 h -7.68 V 63.82 h -1.08 l -7.2,36.18 h -13.08 l -7.2,-36.18 h -1.08 V 100 Z" />
      <path
         id="path32"
         style="font-family:'Space Grotesk';letter-spacing:0.075em"
         d="M 364.22172,100 V 58 h 17.28 q 3.96,0 6.96,1.62 3.06,1.56 4.74,4.44 1.74,2.88 1.74,6.84 v 0.84 q 0,3.9 -1.8,6.84 -1.74,2.88 -4.8,4.5 -3,1.56 -6.84,1.56 h -9.36 V 100 Z m 7.92,-22.56 h 8.58 q 2.82,0 4.56,-1.56 1.74,-1.56 1.74,-4.26 v -0.6 q 0,-2.7 -1.74,-4.26 -1.74,-1.56 -4.56,-1.56 h -8.58 z" />
      <path
         id="path34"
         style="font-family:'Space Grotesk';letter-spacing:0.075em"
         d="m 421.25266,100.84 q -7.92,0 -12.6,-4.32 -4.68,-4.38 -4.68,-12.48 V 73.96 q 0,-8.1 4.68,-12.42 4.68,-4.38 12.6,-4.38 7.92,0 12.6,4.38 4.68,4.32 4.68,12.42 v 10.08 q 0,8.1 -4.68,12.48 -4.68,4.32 -12.6,4.32 z m 0,-7.08 q 4.44,0 6.9,-2.58 2.46,-2.58 2.46,-6.9 V 73.72 q 0,-4.32 -2.46,-6.9 -2.46,-2.58 -6.9,-2.58 -4.38,0 -6.9,2.58 -2.46,2.58 -2.46,6.9 v 10.56 q 0,4.32 2.46,6.9 2.52,2.58 6.9,2.58 z" />
      <path
         id="path36"
         style="font-family:'Space Grotesk';letter-spacing:0.075em"
         d="M 449.97953,100 V 58 h 18.24 q 3.96,0 6.9,1.38 2.94,1.38 4.56,3.9 1.62,2.52 1.62,5.94 v 0.72 q 0,3.78 -1.8,6.12 -1.8,2.34 -4.44,3.42 v 1.08 q 2.4,0.12 3.72,1.68 1.32,1.5 1.32,4.02 V 100 h -7.92 V 87.4 q 0,-1.44 -0.78,-2.34 -0.72,-0.9 -2.46,-0.9 h -11.04 V 100 Z m 7.92,-23.04 h 9.48 q 2.82,0 4.38,-1.5 1.62,-1.56 1.62,-4.08 v -0.6 q 0,-2.52 -1.56,-4.02 -1.56,-1.56 -4.44,-1.56 h -9.48 z" />
      <path
         id="path38"
         style="font-family:'Space Grotesk';letter-spacing:0.075em"
         d="m 489.56828,100 11.04,-42 h 13.8 l 11.04,42 h -8.16 l -2.28,-9.24 h -15 l -2.28,9.24 z m 12.3,-16.56 h 11.28 l -5.1,-20.46 h -1.08 z" />
      <path
         id="path40"
         style="font-family:'Space Grotesk';letter-spacing:0.075em"
         d="M 535.03422,100 V 58 h 15.06 l 8.34,36.6 h 1.08 V 58 h 7.8 v 42 h -15.06 l -8.34,-36.6 h -1.08 V 100 Z" />
      <path
         id="path42"
         style="font-family:'Space Grotesk';letter-spacing:0.075em"
         d="M 579.72953,100 V 58 h 27 v 7.2 h -19.08 v 10.02 h 17.4 v 7.2 h -17.4 V 92.8 h 19.44 v 7.2 z" />
      <path
         id="path44"
         style="font-family:'Space Grotesk';letter-spacing:0.075em"
         d="m 614.63078,100 11.04,-42 h 13.8 l 11.04,42 h -8.16 l -2.28,-9.24 h -15 l -2.28,9.24 z m 12.3,-16.56 h 11.28 l -5.1,-20.46 h -1.08 z" />
    </g>
  </g>
</svg>
