<?xml version="1.0" encoding="UTF-8" standalone="no"?>
<svg
   xmlns:dc="http://purl.org/dc/elements/1.1/"
   xmlns:cc="http://creativecommons.org/ns#"
   xmlns:rdf="http://www.w3.org/1999/02/22-rdf-syntax-ns#"
   xmlns:svg="http://www.w3.org/2000/svg"
   xmlns="http://www.w3.org/2000/svg"
   id="svg16"
   width="800px"
   version="1.1"
   height="200px">
  <metadata
     id="metadata20">
    <rdf:RDF>
      <cc:Work
         rdf:about="">
        <dc:format>image/svg+xml</dc:format>
        <dc:type
           rdf:resource="http://purl.org/dc/dcmitype/StillImage" />
      </cc:Work>
    </rdf:RDF>
  </metadata>
  <defs
     id="defs4">
    <style
       id="style2"
       type="text/css"><![CDATA[    
     @font-face {font-family:Space Grotesk Medium;
     src: url('/Users/francesco/Repos/write-logos/src/fonts/Fonts_E_TEMPORANEA/SpaceGrotesk-Medium.ttf');}
     @font-face {font-family:Monoton;
     src: url('/Users/francesco/Repos/write-logos/src/fonts/Fonts_X/Monoton-Regular.ttf');}
     ]]></style>
  </defs>
  <g
     id="g14"
     style="font-size:60px">
    <g
       style="text-anchor:middle"
       id="text12"
       aria-label="EXTEMPORANEA">
      <path
         id="path22"
         style="font-family:'Space Grotesk Medium';letter-spacing:0.075em"
         d="M 144.65734,100 V 58 h 26.46 v 5.88 h -19.98 v 12.06 h 18.3 v 5.88 h -18.3 v 12.3 h 20.28 V 100 Z" />
      <path
         id="path24"
         style="font-family:Monoton;letter-spacing:0.05em"
         d="m 195.72461,73.779297 -1.25977,1.992187 -15.26367,-24.287109 h 2.49024 z M 206.125,89.628906 207.35547,87.636719 215.14844,100 h -2.49024 z m -7.91016,-19.77539 -1.25976,1.96289 -12.77344,-20.332031 h 2.46094 z M 208.61523,85.673828 209.8457,83.681641 220.12891,100 h -2.49024 z m -7.91015,-19.804687 -1.23047,1.96289 -10.3125,-16.347656 h 2.49023 z m 10.42969,15.820312 1.23046,-1.992187 L 225.13867,100 h -2.49023 z m -7.93946,-19.775391 -1.23047,1.992188 -7.82226,-12.421875 h 2.49023 z M 213.5957,77.734375 214.82617,75.742187 230.11914,100 h -2.49023 z m 12.56836,-26.25 h 2.49024 L 198.12695,100 h -2.49023 z m -4.95117,0 h 2.46094 L 193.14648,100 h -2.49023 z m -5.00977,0 h 2.49024 L 188.13672,100 h -2.49024 z m -4.98046,0 h 2.49023 L 183.15625,100 h -2.49023 z" />
      <path
         id="path26"
         style="font-family:'Space Grotesk Medium';letter-spacing:0.075em"
         d="M 248.31016,100 V 63.88 h -12.9 V 58 h 32.28 v 5.88 h -12.9 V 100 Z" />
      <path
         id="path28"
         style="font-family:'Space Grotesk Medium';letter-spacing:0.075em"
         d="M 278.06359,100 V 58 h 26.46 v 5.88 h -19.98 v 12.06 h 18.3 v 5.88 h -18.3 v 12.3 h 20.28 V 100 Z" />
      <path
         id="path30"
         style="font-family:'Space Grotesk Medium';letter-spacing:0.075em"
         d="M 316.07922,100 V 58 h 12.18 l 9.18,37.68 h 0.96 l 9.18,-37.68 h 12.18 v 42 h -6.3 V 62.56 h -0.96 l -9.12,37.44 h -10.92 l -9.12,-37.44 h -0.96 V 100 Z" />
      <path
         id="path32"
         style="font-family:'Space Grotesk Medium';letter-spacing:0.075em"
         d="M 372.96203,100 V 58 h 16.68 q 3.84,0 6.84,1.56 3.06,1.5 4.74,4.32 1.74,2.76 1.74,6.66 v 0.78 q 0,3.9 -1.8,6.72 -1.74,2.82 -4.74,4.32 -3,1.5 -6.78,1.5 h -10.2 V 100 Z m 6.48,-22.02 h 9.54 q 3.36,0 5.4,-1.74 2.1,-1.8 2.1,-4.98 v -0.6 q 0,-3.18 -2.04,-4.98 -2.04,-1.8 -5.46,-1.8 h -9.54 z" />
      <path
         id="path34"
         style="font-family:'Space Grotesk Medium';letter-spacing:0.075em"
         d="m 429.45297,100.84 q -7.74,0 -12.3,-4.32 -4.56,-4.38 -4.56,-12.6 v -9.84 q 0,-8.22 4.56,-12.54 4.56,-4.38 12.3,-4.38 7.74,0 12.3,4.38 4.62,4.32 4.62,12.54 v 9.84 q 0,8.22 -4.62,12.6 -4.56,4.32 -12.3,4.32 z m 0,-5.82 q 4.92,0 7.62,-2.88 2.76,-2.94 2.76,-7.98 V 73.84 q 0,-5.04 -2.76,-7.92 -2.7,-2.94 -7.62,-2.94 -4.92,0 -7.68,2.94 -2.7,2.88 -2.7,7.92 v 10.32 q 0,5.04 2.7,7.98 2.76,2.88 7.68,2.88 z" />
      <path
         id="path36"
         style="font-family:'Space Grotesk Medium';letter-spacing:0.075em"
         d="M 458.60266,100 V 58 h 17.64 q 3.9,0 6.84,1.38 2.94,1.38 4.62,3.9 1.68,2.46 1.68,5.94 v 0.66 q 0,3.96 -1.92,6.36 -1.86,2.34 -4.56,3.3 v 0.96 q 2.28,0.12 3.66,1.56 1.38,1.44 1.38,4.02 V 100 h -6.48 V 86.98 q 0,-1.62 -0.9,-2.58 -0.84,-0.96 -2.7,-0.96 h -12.78 V 100 Z m 6.48,-22.44 h 10.44 q 3.48,0 5.4,-1.74 1.92,-1.74 1.92,-4.86 v -0.48 q 0,-3.06 -1.92,-4.8 -1.86,-1.8 -5.4,-1.8 h -10.44 z" />
      <path
         id="path38"
         style="font-family:'Space Grotesk Medium';letter-spacing:0.075em"
         d="m 498.01141,100 11.94,-42 h 11.4 l 11.94,42 h -6.66 l -2.76,-9.9 h -16.44 l -2.76,9.9 z m 11.04,-15.9 h 13.2 l -6.12,-22.08 h -0.96 z" />
      <path
         id="path40"
         style="font-family:'Space Grotesk Medium';letter-spacing:0.075em"
         d="M 543.54016,100 V 58 h 12.48 l 11.4,37.68 h 0.96 V 58 h 6.42 v 42 h -12.48 l -11.4,-37.74 h -0.96 V 100 Z" />
      <path
         id="path42"
         style="font-family:'Space Grotesk Medium';letter-spacing:0.075em"
         d="M 588.11828,100 V 58 h 26.46 v 5.88 h -19.98 v 12.06 h 18.3 v 5.88 h -18.3 v 12.3 h 20.28 V 100 Z" />
      <path
         id="path44"
         style="font-family:'Space Grotesk Medium';letter-spacing:0.075em"
         d="m 623.07391,100 11.94,-42 h 11.4 l 11.94,42 h -6.66 l -2.76,-9.9 h -16.44 l -2.76,9.9 z m 11.04,-15.9 h 13.2 l -6.12,-22.08 h -0.96 z" />
    </g>
  </g>
</svg>
