<?xml version="1.0" encoding="UTF-8" standalone="no"?>
<svg
   xmlns:dc="http://purl.org/dc/elements/1.1/"
   xmlns:cc="http://creativecommons.org/ns#"
   xmlns:rdf="http://www.w3.org/1999/02/22-rdf-syntax-ns#"
   xmlns:svg="http://www.w3.org/2000/svg"
   xmlns="http://www.w3.org/2000/svg"
   id="svg16"
   width="800px"
   version="1.1"
   height="200px">
  <metadata
     id="metadata20">
    <rdf:RDF>
      <cc:Work
         rdf:about="">
        <dc:format>image/svg+xml</dc:format>
        <dc:type
           rdf:resource="http://purl.org/dc/dcmitype/StillImage" />
      </cc:Work>
    </rdf:RDF>
  </metadata>
  <defs
     id="defs4">
    <style
       id="style2"
       type="text/css"><![CDATA[    
     @font-face {font-family:STUART COLLINS;
     src: url('/Users/francesco/Repos/write-logos/src/fonts/STUART_COLLINS.ttf');}
     @font-face {font-family:Touch Of Nature;
     src: url('/Users/francesco/Repos/write-logos/src/fonts/Toucon__.ttf');}
     ]]></style>
  </defs>
  <g
     id="g14"
     style="font-size:60px">
    <g
       style="text-anchor:middle"
       id="text12"
       aria-label="eXtemporanea">
      <path
         id="path22"
         style="font-family:'STUART COLLINS'"
         d="m 305.32094,86.5 q 1.26,-2.28 3,-2.28 1.38,0.06 1.92,0.72 0.6,0.66 0.6,2.4 0,3.78 -4.26,8.22 -0.9,1.02 -1.08,1.38 -0.18,0.3 -0.06,0.96 0.18,0.84 0.42,1.5 0.3,0.66 0.78,0.66 0.42,0 0.96,-0.54 0.72,-0.72 1.2,-0.72 0,0 0.36,0.12 0.12,0.06 -0.06,0.3 -0.12,0.24 -0.42,0.54 -0.3,0.3 -0.66,0.54 -0.3,0.3 -0.6,0.36 -0.6,0.18 -0.84,0.18 -0.24,0 -0.48,-0.12 -0.18,-0.06 -0.48,-0.18 -1.02,-0.48 -1.32,-1.86 -0.3,-1.44 -0.3,-4.74 0,-1.56 0.06,-2.58 0.06,-1.08 0.18,-1.86 0.12,-0.84 0.42,-1.5 0.24,-0.72 0.66,-1.5 z m 0.24,8.64 q 0.24,-0.18 0.72,-0.72 0.48,-0.6 0.9,-1.26 1.56,-2.58 2.16,-4.44 0.6,-1.92 -0.06,-3.18 -0.36,-0.66 -0.9,-0.66 -0.54,0 -1.38,1.2 -0.72,1.02 -1.2,2.76 -0.48,1.74 -0.66,4.32 l -0.18,2.52 z" />
      <path
         id="path24"
         style="font-family:'Touch Of Nature'"
         d="m 369.05594,98.68 q -12.96,1.26 -19.5,1.26 -0.84,0 -2.46,-2.16 -0.96,-1.5 -1.98,-3 -1.26,-1.74 -3.12,-3.84 -2.94,2.88 -5.76,8.94 -5.7,-0.12 -11.46,-0.24 -8.88,-0.36 -10.14,-1.56 4.38,-5.52 8.22,-11.04 6.06,-8.7 6.06,-11.1 0,-1.8 -2.76,-4.5 -2.7,-2.7 -4.5,-2.7 -2.04,0 -7.32,-2.64 0.96,-2.94 3.72,-7.2 3.42,-5.16 4.26,-6.9 2.4,0.18 9.66,4.98 7.32,4.74 8.16,4.74 0.6,0 2.64,-3.96 2.1,-4.26 2.82,-4.74 1.38,-0.96 7.38,-0.96 9.06,0 11.88,1.5 v 4.08 q 0,1.08 -5.22,8.82 -5.22,7.74 -5.22,8.7 0,1.08 6.9,10.32 7.08,9.54 7.74,13.2 z m -15,-11.58 q 0,-0.18 -0.48,-0.96 -0.42,-0.78 -0.42,-1.5 0,-0.54 0.36,-1.5 0.42,-1.02 0.42,-1.56 l -0.3,-0.48 q -1.5,2.04 -3.18,2.04 -0.84,0 -2.04,-0.24 -1.56,-0.36 -1.56,-0.9 0,-0.3 0.36,-0.6 0.36,-0.36 0.42,-0.48 0.06,-0.42 -0.36,-0.42 -0.6,0 -1.98,0.24 -1.32,0.18 -1.98,0.18 -3.96,0 -5.64,3.72 0,0.84 2.04,1.92 1.86,1.02 2.82,1.02 0.78,0 2.22,-0.24 1.5,-0.3 2.28,-0.3 0.24,0.3 0.54,0.72 0.3,0.36 0.66,0.36 1.08,0 1.08,-0.6 0,-0.18 -0.24,-0.42 -0.18,-0.3 -0.18,-0.54 0,-0.48 1.5,-0.48 0.3,0 0.54,0.18 1.68,0.36 2.82,1.08 z m -13.38,-7.62 q 0,-1.62 -1.38,-1.62 -1.38,0 -1.38,1.62 0,1.56 1.38,1.56 1.38,0 1.38,-1.56 z m -3.18,-2.16 q 0,-2.04 -1.68,-2.04 -1.74,0 -1.74,2.04 0,2.04 1.74,2.04 1.68,0 1.68,-2.04 z m 0.72,4.86 q 0,-1.14 -1.14,-1.14 -1.08,0 -1.08,1.14 0,1.08 1.08,1.08 1.14,0 1.14,-1.08 z m 3,1.32 q 0,0.6 -0.6,0.6 -0.6,0 -0.6,-0.6 0,-0.54 0.6,-0.54 0.6,0 0.6,0.54 z" />
      <path
         id="path26"
         style="font-family:'STUART COLLINS'"
         d="m 370.01219,95.86 q 0,-0.18 1.08,-0.18 h 1.08 v -2.52 q 0,-1.02 0.12,-2.34 0.18,-1.38 0.36,-2.76 0.24,-1.38 0.54,-2.7 0.3,-1.38 0.66,-2.46 0.3,-0.9 0.48,-1.44 0.24,-0.6 0.42,-0.9 0.18,-0.3 0.36,-0.36 0.24,-0.12 0.6,-0.12 0.6,0 0.42,0.36 -0.42,0.84 -0.9,2.46 -0.48,1.62 -0.9,3.54 -0.36,1.92 -0.6,3.9 -0.24,1.92 -0.24,3.42 v 1.62 l 2.1,-0.12 q 1.38,-0.12 2.7,-0.18 1.38,-0.06 3.6,-0.78 0.12,-0.06 0.42,-0.06 0.48,0 0.18,0.24 -0.24,0.24 -1.02,0.54 -0.48,0.12 -1.8,0.36 -1.32,0.18 -2.7,0.3 -1.38,0.12 -2.4,0.24 -0.96,0.12 -1.02,0.18 -0.06,0.06 0,0.54 0.12,0.48 0.3,1.14 0.18,0.6 0.36,1.26 0.24,0.6 0.42,0.9 l 0.54,0.9 0.72,-0.6 q 0.72,-0.6 0.72,-0.96 0,-0.6 0.48,-0.6 0.06,0 0.12,0.06 0.06,0 0.18,0 0.66,0.12 0.42,0.72 -0.18,0.6 -1.02,1.2 -1.08,0.72 -1.62,0.72 -0.66,0 -1.14,-0.48 -0.48,-0.42 -0.84,-1.02 -0.3,-0.66 -0.54,-1.38 -0.18,-0.72 -0.3,-1.2 l -0.24,-1.32 h -1.02 q -1.08,0 -1.08,-0.12 z" />
      <path
         id="path28"
         style="font-family:'STUART COLLINS'"
         d="m 384.4225,86.5 q 1.26,-2.28 3,-2.28 1.38,0.06 1.92,0.72 0.6,0.66 0.6,2.4 0,3.78 -4.26,8.22 -0.9,1.02 -1.08,1.38 -0.18,0.3 -0.06,0.96 0.18,0.84 0.42,1.5 0.3,0.66 0.78,0.66 0.42,0 0.96,-0.54 0.72,-0.72 1.2,-0.72 0,0 0.36,0.12 0.12,0.06 -0.06,0.3 -0.12,0.24 -0.42,0.54 -0.3,0.3 -0.66,0.54 -0.3,0.3 -0.6,0.36 -0.6,0.18 -0.84,0.18 -0.24,0 -0.48,-0.12 -0.18,-0.06 -0.48,-0.18 -1.02,-0.48 -1.32,-1.86 -0.3,-1.44 -0.3,-4.74 0,-1.56 0.06,-2.58 0.06,-1.08 0.18,-1.86 0.12,-0.84 0.42,-1.5 0.24,-0.72 0.66,-1.5 z m 0.24,8.64 q 0.24,-0.18 0.72,-0.72 0.48,-0.6 0.9,-1.26 1.56,-2.58 2.16,-4.44 0.6,-1.92 -0.06,-3.18 -0.36,-0.66 -0.9,-0.66 -0.54,0 -1.38,1.2 -0.72,1.02 -1.2,2.76 -0.48,1.74 -0.66,4.32 l -0.18,2.52 z" />
      <path
         id="path30"
         style="font-family:'STUART COLLINS'"
         d="m 393.7375,79 q 1.2,0 0.42,0.78 -0.24,0.24 -0.48,1.08 -0.18,0.84 -0.24,1.86 -0.06,1.02 0,2.16 0.06,1.08 0.3,1.98 0.18,0.72 0.42,1.62 0.3,0.9 0.6,1.38 l 0.72,1.2 0.18,-1.5 q 0.24,-1.92 0.84,-3.06 0.66,-1.2 1.44,-1.2 0.48,0 0.9,0.42 0.42,0.42 0.72,0.72 0.72,0.84 0.84,0.84 0.12,0 0.18,-0.36 0.12,-0.36 0.24,-0.9 0.24,-1.32 0.96,-3 0.72,-1.68 1.8,-3.12 1.08,-1.5 2.4,-2.52 1.38,-1.02 2.82,-1.02 2.04,0 2.82,1.26 0.84,1.2 0.6,3.96 -0.06,0.42 -0.18,1.2 -0.12,0.72 -0.3,1.68 -0.12,0.9 -0.3,1.98 -0.18,1.02 -0.36,2.04 -0.42,2.16 -0.78,4.32 -0.36,2.16 -0.54,3.96 -0.18,1.8 -0.24,3.12 0,1.32 0.18,1.74 0.12,0.36 0.18,0.66 0.06,0.3 0,0.36 -0.12,0.12 -0.42,0.12 -0.6,0 -0.96,-0.48 -0.24,-0.3 -0.24,-1.86 0,-1.5 0.18,-3.66 0.18,-2.16 0.54,-4.68 0.42,-2.58 0.96,-4.92 1.02,-4.5 0.96,-6.78 0,-2.34 -1.02,-3.18 -0.42,-0.36 -0.84,-0.36 -0.66,0 -1.8,0.78 -0.72,0.48 -1.5,1.38 -0.72,0.84 -1.44,1.92 -0.66,1.08 -1.26,2.34 -0.54,1.26 -0.84,2.52 -0.48,1.92 -0.78,2.46 -0.24,0.54 -0.84,0.54 -0.48,0 -0.78,-0.24 -0.24,-0.24 -0.84,-1.08 l -0.96,-1.32 -0.42,0.96 q -0.12,0.36 -0.3,1.2 -0.18,0.84 -0.3,1.68 -0.12,1.44 -0.3,1.74 -0.12,0.24 -0.72,0.3 h -0.3 q -0.72,0 -1.2,-0.48 -0.48,-0.54 -1.14,-1.86 -0.72,-1.44 -1.02,-3.3 -0.36,-1.86 -0.24,-3.48 0.06,-1.62 0.54,-2.76 0.42,-1.14 1.14,-1.14 z" />
      <path
         id="path32"
         style="font-family:'STUART COLLINS'"
         d="m 413.83375,81.04 q 0.18,-0.36 0.72,-0.36 0.3,0 0.54,0.12 0.3,0.12 0.18,0.42 -0.3,1.02 -0.48,2.7 -0.12,1.68 -0.18,2.94 l -0.06,1.92 1.26,-1.74 q 0.84,-1.14 2.04,-2.28 1.26,-1.2 2.7,-2.16 1.44,-0.96 2.94,-1.56 1.56,-0.6 3.06,-0.6 1.26,0 2.04,0.48 0.78,0.42 0.78,1.26 0,1.5 -2.34,2.34 -0.54,0.18 -1.56,0.3 -0.96,0.06 -2.88,0.12 -1.26,0 -1.98,0 -0.66,0 -1.08,0.06 -0.36,0.06 -0.6,0.18 -0.18,0.12 -0.36,0.3 -0.6,0.6 -1.26,1.56 -0.66,0.9 -1.68,2.52 -0.54,0.84 -0.78,1.5 -0.24,0.66 -0.36,1.44 -0.06,0.72 -0.06,1.68 0,0.96 0,2.4 0,3.06 -0.12,3.96 -0.06,0.96 -0.54,0.96 -0.3,0 -0.36,-0.06 -0.18,-0.06 -0.3,-1.44 -0.12,-1.44 -0.12,-3.54 0,-2.16 0.06,-4.62 0.06,-2.52 0.18,-4.74 0.06,-2.28 0.24,-3.96 0.18,-1.68 0.36,-2.1 z m 8.76,3.36 q 2.7,0 3.6,-0.36 1.26,-0.48 1.74,-1.32 0.54,-0.9 -0.3,-1.38 -0.42,-0.24 -1.38,-0.24 -0.6,0 -1.5,0.3 -0.9,0.3 -1.8,0.78 -0.9,0.42 -1.68,0.96 -0.78,0.48 -1.08,0.84 -0.24,0.3 0.12,0.36 0.36,0.06 2.28,0.06 z" />
      <path
         id="path34"
         style="font-family:'STUART COLLINS'"
         d="m 429.48813,88.24 q 1.2,-0.6 1.91999,-1.32 0.36,-0.36 0.66,-0.6 0.36001,-0.24 0.72,-0.24 0.12,0 0.24,0.06 0.12,0.06 0.24,0.12 0.36,0.24 -0.36,0.78 l -0.71999,0.54 h 0.77999 q 0.84001,0 1.44,0.48 0.66,0.48 0.84001,1.26 0.12,0.54 -0.12001,1.32 -0.24,0.78 -0.78,1.56 -0.47999,0.78 -1.14,1.44 -0.6,0.6 -1.26,0.84 -1.01999,0.3 -1.01999,0.3 -0.18,0 -0.36001,-0.12 -0.18,-0.12 -0.48,-0.3 -0.59999,-0.42 -0.71999,-1.56 -0.06,-1.2 0.47999,-2.76 0.48,-1.2 0.24,-1.2 -0.24,0 -0.53999,0.3 -0.3,0.24 -0.54001,0.6 -0.24,0.36 -0.36,0.72 -0.18,0.36 -0.18,0.6 0,0.72 -0.53999,0.72 -0.30001,0 -0.48001,-0.36 -0.78,-1.68 2.04001,-3.18 z m 1.38,5.28 0.18,0.72 0.65999,-0.54 q 0.24,-0.18 0.60001,-0.66 0.41999,-0.48 0.77999,-0.96 0.54,-0.66 0.72001,-1.38 0.18,-0.72 0,-1.26 -0.12,-0.6 -0.48001,-0.96 -0.36,-0.42 -0.89999,-0.42 -0.24,0 -0.60001,0.72 -0.3,0.66 -0.6,1.56 -0.23999,0.9 -0.35999,1.8 -0.12,0.9 0,1.38 z" />
      <path
         id="path36"
         style="font-family:'STUART COLLINS'"
         d="m 437.27969,85.42 q 0.24,-0.6 0.42,-0.78 0.18,-0.18 0.66,-0.18 0.54,0 0.6,0.06 0.06,0.06 0.06,0.06 0,0.18 -0.24,0.48 -0.18,0.3 -0.3,1.62 -0.12,1.26 -0.18,2.94 l -0.12,3.9 0.84,-1.08 q 0.66,-0.84 1.62,-1.8 1.02,-1.02 2.16,-1.92 1.2,-0.9 2.46,-1.5 1.26,-0.6 2.4,-0.6 0.9,0 1.14,0.36 0.24,0.3 0.24,0.48 0,0.36 -0.3,0.78 -1.26,1.92 -5.04,3.12 -0.84,0.24 -1.32,0.42 -0.48,0.18 -0.72,0.3 -0.24,0.12 -0.24,0.3 0,0.12 0.06,0.36 0.12,0.48 0.6,1.26 0.54,0.72 1.14,1.5 0.66,0.78 1.32,1.5 0.72,0.66 1.26,1.02 0.84,0.6 0.96,0.84 0.18,0.18 0.18,0.3 0,0.12 -0.24,0.12 -0.66,0 -1.44,-0.48 -0.78,-0.48 -1.5,-1.14 -0.72,-0.72 -1.32,-1.44 -0.6,-0.72 -0.96,-1.2 l -1.56,-2.1 -0.42,1.02 q -0.18,0.48 -0.48,0.72 -0.24,0.24 -0.42,0.24 -0.3,0 -0.36,0.36 0,0.3 0,0.66 0,0.6 0.06,1.86 0.06,1.02 0.06,1.44 0.06,0.42 0.06,0.66 0,0.18 -0.06,0.36 0,0.24 -0.12,0.3 -0.12,0.06 -0.3,0.06 -0.54,0 -0.78,-0.36 -0.12,-0.12 -0.18,-1.2 0,-1.14 -0.06,-2.28 0,-1.2 0,-2.04 0,-0.84 0,-2.16 0.06,-1.38 0.06,-2.94 0.06,-1.62 0.12,-2.76 0.12,-1.2 0.18,-1.44 z m 6.6,5.28 q 0.66,-0.24 1.38,-0.72 0.78,-0.54 1.38,-1.08 0.66,-0.54 0.9,-0.9 0.3,-0.36 0.3,-0.54 0,-0.12 -0.06,-0.18 -0.06,-0.06 -0.18,-0.06 -0.42,0 -1.44,0.54 -0.96,0.48 -1.98,1.14 -1.02,0.66 -1.8,1.32 -0.72,0.6 -0.72,0.84 0,0.12 0.24,0.12 0.66,0 1.98,-0.48 z" />
      <path
         id="path38"
         style="font-family:'STUART COLLINS'"
         d="m 451.82219,88.72 q 0.84,-2.04 2.1,-3.12 1.26,-1.14 2.52,-1.14 0.84,0 1.74,0.6 0.66,0.48 0.72,0.84 0.06,0.36 -0.6,0.36 -0.66,0 -0.66,-0.18 0,-0.12 -0.66,-0.66 l -0.6,-0.54 -0.78,0.48 q -0.36,0.24 -0.78,0.72 -0.42,0.48 -0.78,1.08 -0.36,0.6 -0.6,1.26 -0.24,0.6 -0.36,1.14 -0.18,0.96 0.06,0.96 0.24,0 0.66,-0.24 0.42,-0.3 0.84,-0.66 0.48,-0.36 0.84,-0.72 0.42,-0.36 0.6,-0.48 0.3,-0.24 0.72,-0.6 0.48,-0.42 1.02,-0.78 0.54,-0.42 1.08,-0.66 0.54,-0.3 0.96,-0.3 0.18,0 0.36,0.06 0.18,0.06 0.48,0.18 0.78,0.24 0.78,1.2 0,0.96 -0.66,3.66 -0.3,1.26 -0.54,2.52 -0.18,1.26 -0.3,2.34 -0.06,1.08 -0.06,1.92 0,0.84 0.18,1.2 0.24,0.54 0.18,0.72 0,0.12 -0.42,0.12 -0.3,0 -0.54,-0.12 -0.24,-0.18 -0.36,-0.3 -0.24,-0.24 -0.36,-1.02 -0.06,-0.84 0,-1.98 0.12,-1.14 0.3,-2.52 0.24,-1.44 0.54,-2.88 0.6,-2.7 0.6,-3.48 0.06,-0.78 -0.42,-0.78 -0.12,0 -0.84,0.54 -0.66,0.54 -1.56,1.26 -1.56,1.26 -2.58,1.86 -0.96,0.6 -1.8,0.6 h -0.42 q -1.5,-0.18 -0.6,-2.46 z" />
      <path
         id="path40"
         style="font-family:'STUART COLLINS'"
         d="m 464.10437,86.74 q 0.42001,-0.84 0.72,-1.08 0.36,-0.3 0.84,-0.3 0.36001,0 0.48001,0.06 0.29999,0.12 0.29999,0.24 0,0.12 -0.47999,0.48 -0.24001,0.24 -0.54001,0.9 -0.3,0.66 -0.6,1.5 -0.23999,0.84 -0.47999,1.86 -0.24001,0.96 -0.36001,1.92 l -0.18,1.38 0.84001,-1.38 q 1.73999,-2.82 3.53999,-2.82 0.6,0 1.08,0.48 0.18,0.18 0.54,0.96 0.36,0.72 0.66001,1.56 0.35999,0.78 0.53999,1.5 0.24,0.66 0.12,0.78 -0.12,0.12 -0.71999,0.12 -0.60001,0 -0.72001,-0.84 0,-0.18 -0.24,-0.78 -0.18,-0.66 -0.47999,-1.32 -0.24001,-0.66 -0.54001,-1.14 -0.3,-0.54 -0.54,-0.54 -0.35999,0 -0.84,0.6 -0.48,0.54 -0.95999,1.32 -0.42001,0.78 -0.78001,1.56 -0.36,0.72 -0.48,1.02 -0.41999,1.08 -0.66,1.44 -0.24,0.36 -0.6,0.42 h -0.18 q -0.47999,0 -0.66,-0.3 -0.36,-0.48 -0.3,-1.68 0,-1.26 0.24,-2.7 0.18001,-1.5 0.6,-2.94 0.36,-1.44 0.84,-2.28 z" />
      <path
         id="path42"
         style="font-family:'STUART COLLINS'"
         d="m 472.78188,86.5 q 1.25999,-2.28 3,-2.28 1.37999,0.06 1.91999,0.72 0.6,0.66 0.6,2.4 0,3.78 -4.26,8.22 -0.89999,1.02 -1.07999,1.38 -0.18,0.3 -0.06,0.96 0.18,0.84 0.41999,1.5 0.3,0.66 0.78,0.66 0.42001,0 0.96,-0.54 0.72001,-0.72 1.2,-0.72 0,0 0.36,0.12 0.12,0.06 -0.06,0.3 -0.12,0.24 -0.41999,0.54 -0.3,0.3 -0.66001,0.54 -0.3,0.3 -0.6,0.36 -0.59999,0.18 -0.84,0.18 -0.24,0 -0.48,-0.12 -0.18,-0.06 -0.47999,-0.18 -1.02001,-0.48 -1.32001,-1.86 -0.29999,-1.44 -0.29999,-4.74 0,-1.56 0.06,-2.58 0.06,-1.08 0.17999,-1.86 0.12,-0.84 0.42,-1.5 0.24,-0.72 0.66001,-1.5 z m 0.24,8.64 q 0.23999,-0.18 0.71999,-0.72 0.48,-0.6 0.90001,-1.26 1.55999,-2.58 2.15999,-4.44 0.60001,-1.92 -0.06,-3.18 -0.36,-0.66 -0.89999,-0.66 -0.54001,0 -1.38,1.2 -0.72001,1.02 -1.20001,2.76 -0.47999,1.74 -0.66,4.32 l -0.18,2.52 z" />
      <path
         id="path44"
         style="font-family:'STUART COLLINS'"
         d="m 482.87687,88.72 q 0.84001,-2.04 2.1,-3.12 1.26,-1.14 2.52,-1.14 0.84001,0 1.74,0.6 0.66001,0.48 0.72001,0.84 0.06,0.36 -0.60001,0.36 -0.66,0 -0.66,-0.18 0,-0.12 -0.66,-0.66 l -0.6,-0.54 -0.77999,0.48 q -0.36001,0.24 -0.78001,0.72 -0.41999,0.48 -0.78,1.08 -0.36,0.6 -0.6,1.26 -0.24,0.6 -0.36,1.14 -0.17999,0.96 0.06,0.96 0.24,0 0.66,-0.24 0.42001,-0.3 0.84,-0.66 0.48,-0.36 0.84,-0.72 0.42001,-0.36 0.6,-0.48 0.3,-0.24 0.72,-0.6 0.48001,-0.42 1.02,-0.78 0.54,-0.42 1.08001,-0.66 0.53999,-0.3 0.95999,-0.3 0.18,0 0.36001,0.06 0.18,0.06 0.47999,0.18 0.78,0.24 0.78,1.2 0,0.96 -0.66,3.66 -0.3,1.26 -0.53999,2.52 -0.18,1.26 -0.30001,2.34 -0.06,1.08 -0.06,1.92 0,0.84 0.18001,1.2 0.24,0.54 0.18,0.72 0,0.12 -0.42001,0.12 -0.3,0 -0.54,-0.12 -0.24,-0.18 -0.35999,-0.3 -0.24,-0.24 -0.36,-1.02 -0.06,-0.84 0,-1.98 0.12,-1.14 0.3,-2.52 0.23999,-1.44 0.53999,-2.88 0.6,-2.7 0.6,-3.48 0.06,-0.78 -0.42,-0.78 -0.12,0 -0.83999,0.54 -0.66001,0.54 -1.56,1.26 -1.56,1.26 -2.58001,1.86 -0.96,0.6 -1.79999,0.6 h -0.42001 q -1.5,-0.18 -0.6,-2.46 z" />
    </g>
  </g>
</svg>
