<?xml version="1.0" encoding="UTF-8" standalone="no"?>
<svg
   xmlns:dc="http://purl.org/dc/elements/1.1/"
   xmlns:cc="http://creativecommons.org/ns#"
   xmlns:rdf="http://www.w3.org/1999/02/22-rdf-syntax-ns#"
   xmlns:svg="http://www.w3.org/2000/svg"
   xmlns="http://www.w3.org/2000/svg"
   id="svg10"
   width="500px"
   version="1.1"
   height="200px">
  <metadata
     id="metadata14">
    <rdf:RDF>
      <cc:Work
         rdf:about="">
        <dc:format>image/svg+xml</dc:format>
        <dc:type
           rdf:resource="http://purl.org/dc/dcmitype/StillImage" />
      </cc:Work>
    </rdf:RDF>
  </metadata>
  <defs
     id="defs4">
    <style
       id="style2"
       type="text/css"><![CDATA[    
     @font-face {font-family:The Spooky Time;
     src: url('/Users/francesco/Repos/write-logos/src/fonts//The_Spooky_Time_Personal_Use_Only_!!!!!!!!!!!.ttf');}]]></style>
  </defs>
  <g
     id="g8"
     style="font-size:30px;font-family:'The Spooky Time'">
    <g
       style=""
       id="text6"
       aria-label="eXtemporanea">
      <path
         id="path16"
         style=""
         d="m 107.65,79.63 v -0.3 h 1.11 v 4.62 h -1.11 V 80.8 q -1.92,0.03 -3.27,2.1 -1.32,2.07 -1.47,6.42 h 2.7 v 1.11 h -2.7 q 0.18,4.11 1.53,6.18 1.38,2.04 3.27,2.04 v 1.26 q -3.06,0 -5.37,-3.15 -2.04,-3.06 -2.04,-6.99 0,-3.93 2.04,-6.99 2.13,-3.03 5.31,-3.15 z" />
      <path
         id="path18"
         style=""
         d="m 118.50203,92.56 q 1.11,2.37 2.13,4.53 2.01,4.23 2.82,5.91 h 2.52 v 1.11 h -5.91 V 103 h 2.13 q -1.44,-2.91 -4.35,-9.09 -0.48,1.05 -0.93,2.01 -0.69,1.56 -1.35,2.88 h 1.41 v 1.11 h -5.91 V 98.8 h 1.59 q 1.65,-3.45 3.75,-7.98 -0.36,-0.75 -0.72,-1.5 -2.76,-5.82 -4.08,-8.58 h -2.22 v -1.17 h 5.91 v 1.17 h -2.46 q 1.53,3.09 4.2,8.79 0.27,-0.54 0.51,-1.05 2.28,-4.8 3.69,-7.74 h -1.5 v -1.17 h 5.91 v 1.17 h -1.47 q -1.32,2.67 -3.96,8.19 -0.84,1.8 -1.71,3.63 z" />
      <path
         id="path20"
         style=""
         d="m 138.7,79.57 v -0.12 h 1.17 v 6.24 h -1.17 v -4.95 h -4.2 v 19.11 h -2.64 V 80.74 h -4.2 v 4.95 h -1.11 v -6.24 h 1.11 v 0.12 z" />
      <path
         id="path22"
         style=""
         d="m 147.84531,79.63 v -0.3 h 1.11 v 4.62 h -1.11 V 80.8 q -1.92,0.03 -3.27,2.1 -1.32,2.07 -1.47,6.42 h 2.7 v 1.11 h -2.7 q 0.18,4.11 1.53,6.18 1.38,2.04 3.27,2.04 v 1.26 q -3.06,0 -5.37,-3.15 -2.04,-3.06 -2.04,-6.99 0,-3.93 2.04,-6.99 2.13,-3.03 5.31,-3.15 z" />
      <path
         id="path24"
         style=""
         d="m 167.42734,79.45 4.08,21.99 h 1.17 v 1.11 h -5.91 v -1.11 h 3.24 l -2.4,-14.52 -5.16,12.99 h -1.5 l -4.05,-12.99 -2.97,11.88 h 1.56 v 1.11 h -5.91 V 98.8 h 1.65 l 4.98,-18.81 4.89,15.66 z" />
      <path
         id="path26"
         style=""
         d="m 175.75094,80.74 h 2.76 q 2.1,0 3.6,1.38 1.5,1.38 1.5,3.69 0,2.28 -1.5,3.69 -1.5,1.38 -3.6,1.38 h -2.76 v 8.97 h -2.67 v -18 h -2.82 v -1.11 h 2.82 v -0.87 h 2.67 z m 0,9.03 h 2.76 q 1.26,0 1.86,-1.17 0.6,-1.17 0.6,-2.79 0,-1.62 -0.63,-2.79 -0.6,-1.17 -1.83,-1.17 h -2.76 z" />
      <path
         id="path28"
         style=""
         d="m 192.39625,99.91 q -2.13,0 -3.99,-1.38 -1.86,-1.41 -3.03,-3.72 -1.17,-2.31 -1.17,-5.04 0,-1.71 0.54,-3.48 1.05,-3.18 3.12,-4.92 2.1,-1.74 4.47,-1.74 1.89,0 3.69,1.23 1.8,1.2 3.12,3.78 1.14,2.46 1.14,5.1 0,3.54 -2.1,6.69 -1.32,1.83 -2.82,2.67 -1.5,0.81 -2.97,0.81 z m -0.09,-1.17 q 1.38,0 2.34,-0.72 0.96,-0.72 1.56,-1.86 0.63,-1.14 0.96,-2.43 0.33,-1.32 0.45,-2.49 0,-0.42 0.03,-0.78 0.03,-0.33 0.03,-0.69 0,-1.32 -0.27,-2.85 -0.27,-1.56 -0.9,-2.97 -0.6,-1.41 -1.65,-2.31 -1.02,-0.9 -2.55,-0.9 -1.8,0 -2.91,1.17 -1.11,1.17 -1.68,2.85 -0.57,1.65 -0.75,3.21 -0.09,0.78 -0.09,1.68 0,1.44 0.27,3.03 0.3,1.59 0.93,2.97 0.63,1.38 1.65,2.25 1.05,0.84 2.58,0.84 z" />
      <path
         id="path30"
         style=""
         d="m 206.75312,90.88 h -0.06 q 3.33,1.8 5.31,4.95 2.01,3.12 2.19,6.99 h 1.47 v 1.11 h -3.99 v -1.11 h 1.41 q -0.24,-4.17 -2.7,-7.35 -2.43,-3.18 -6.42,-4.47 v 8.85 h -2.64 v -18 h -2.82 v -1.11 h 2.82 v -0.87 h 2.64 v 0.87 h 2.79 q 2.1,0 3.6,1.38 1.5,1.38 1.5,3.69 0,2.28 -1.5,3.69 -1.5,1.38 -3.6,1.38 z m 0,-9.03 h -2.79 v 7.92 h 2.79 q 1.29,0 1.86,-1.17 0.6,-1.17 0.6,-2.79 0,-1.62 -0.63,-2.79 -0.6,-1.17 -1.83,-1.17 z" />
      <path
         id="path32"
         style=""
         d="m 226.43359,93.22 1.8,8.22 h 1.53 v 1.11 h -5.91 v -1.11 h 2.88 l -1.77,-8.22 h -3.51 l -1.98,5.58 h 1.47 v 1.11 h -6.21 V 98.8 h 1.98 l 1.95,-5.58 h -1.47 v -1.11 h 1.86 l 4.38,-12.66 2.76,12.66 h 1.29 v 1.11 z m -4.62,-1.11 h 2.91 l -1.11,-5.19 z" />
      <path
         id="path34"
         style=""
         d="m 239.49766,80.74 v -1.17 h 6.21 v 1.17 h -2.52 v 22.56 h 2.52 v 1.11 h -6.21 v -1.11 h 2.28 l -8.25,-20.58 V 98.8 h 1.83 v 1.11 h -6.21 V 98.8 h 1.74 V 80.74 h -1.74 v -1.17 h 6.21 v 1.17 h -1.35 l 8.07,20.16 V 80.74 Z" />
      <path
         id="path36"
         style=""
         d="m 252.49375,79.63 v -0.3 h 1.11 v 4.62 h -1.11 V 80.8 q -1.92,0.03 -3.27,2.1 -1.32,2.07 -1.47,6.42 h 2.7 v 1.11 h -2.7 q 0.18,4.11 1.53,6.18 1.38,2.04 3.27,2.04 v 1.26 q -3.06,0 -5.37,-3.15 -2.04,-3.06 -2.04,-6.99 0,-3.93 2.04,-6.99 2.13,-3.03 5.31,-3.15 z" />
      <path
         id="path38"
         style=""
         d="m 265.92578,93.22 1.8,8.22 h 1.53 v 1.11 h -5.91 v -1.11 h 2.88 l -1.77,-8.22 h -3.51 l -1.98,5.58 h 1.47 v 1.11 h -6.21 V 98.8 h 1.98 l 1.95,-5.58 h -1.47 v -1.11 h 1.86 l 4.38,-12.66 2.76,12.66 h 1.29 v 1.11 z m -4.62,-1.11 h 2.91 l -1.11,-5.19 z" />
    </g>
  </g>
</svg>
