<?xml version="1.0" encoding="UTF-8" standalone="no"?>
<svg
   xmlns:dc="http://purl.org/dc/elements/1.1/"
   xmlns:cc="http://creativecommons.org/ns#"
   xmlns:rdf="http://www.w3.org/1999/02/22-rdf-syntax-ns#"
   xmlns:svg="http://www.w3.org/2000/svg"
   xmlns="http://www.w3.org/2000/svg"
   id="svg10"
   width="500px"
   version="1.1"
   height="200px">
  <metadata
     id="metadata14">
    <rdf:RDF>
      <cc:Work
         rdf:about="">
        <dc:format>image/svg+xml</dc:format>
        <dc:type
           rdf:resource="http://purl.org/dc/dcmitype/StillImage" />
      </cc:Work>
    </rdf:RDF>
  </metadata>
  <defs
     id="defs4">
    <style
       id="style2"
       type="text/css"><![CDATA[    
     @font-face {font-family:Tukiyem;
     src: url('/Users/francesco/Repos/write-logos/src/fonts//Tukiyem.ttf');}]]></style>
  </defs>
  <g
     id="g8"
     style="font-size:30px;font-family:Tukiyem">
    <g
       style=""
       id="text6"
       aria-label="eXtemporanea">
      <path
         id="path16"
         style=""
         d="m 101.14,94.72 q 0.06,-0.33 0.27,-0.69 0.21,-0.39 0.51,-0.69 0.3,-0.3 0.66,-0.48 0.39,-0.21 0.75,-0.21 0.33,0 0.48,0.12 0.3,0.15 0.48,0.45 0.18,0.27 0.18,0.6 0,0.3 -0.21,0.6 -0.18,0.3 -0.48,0.51 -0.27,0.21 -0.6,0.3 -0.33,0.09 -0.57,-0.03 -0.18,-0.09 -0.33,-0.3 l -0.12,-0.21 -0.18,0.24 q -0.15,0.21 -0.27,0.48 -0.09,0.24 -0.03,0.33 0.06,0.09 0.33,0.18 0.27,0.06 0.6,0.12 0.54,0.06 1.23,-0.06 0.72,-0.15 1.74,-0.48 0.33,-0.12 0.78,-0.27 0.48,-0.18 0.93,-0.33 0.48,-0.18 0.87,-0.33 0.39,-0.15 0.57,-0.21 0.42,-0.21 0.42,-0.03 0,0.09 -0.54,0.33 -0.54,0.24 -1.89,0.72 -1.8,0.69 -2.91,0.93 -1.08,0.24 -1.68,0.09 -0.36,-0.09 -0.63,-0.36 -0.54,-0.54 -0.36,-1.32 z m 1.35,-0.21 q 0,0.09 0.12,0.03 0.15,-0.06 0.42,-0.33 0.12,-0.12 0.21,-0.21 0.09,-0.12 0.12,-0.15 0.03,-0.12 -0.18,0.03 -0.27,0.12 -0.48,0.33 -0.21,0.18 -0.21,0.3 z" />
      <path
         id="path18"
         style=""
         d="m 108.39719,97.12 q 0,-0.54 0.33,-1.53 0.33,-0.99 0.9,-2.19 0.57,-1.23 1.32,-2.61 0.78,-1.41 1.65,-2.76 0.21,-0.33 0.33,-0.54 0.15,-0.24 0.15,-0.27 0,-0.06 -0.27,-1.08 -0.27,-1.05 -0.72,-2.7 -0.36,-1.35 -0.6,-2.34 -0.24,-1.02 -0.3,-1.23 -0.03,-0.42 0.21,-0.42 0.15,0 0.36,0.09 0.21,0.06 0.36,0.21 0.15,0.09 0.15,0.15 0.03,0.03 0,0.18 -0.03,0.21 0.12,0.84 0.15,0.6 0.6,2.19 0.24,0.75 0.42,1.47 0.21,0.69 0.27,0.93 0.06,0.12 0.06,0.24 0.03,0.09 0.06,0.18 0.03,0.09 0.06,0.18 0.06,-0.06 0.12,-0.15 0.06,-0.09 0.12,-0.18 0.09,-0.09 0.18,-0.21 1.35,-1.92 2.52,-3.36 1.17,-1.44 2.43,-2.7 0.99,-0.99 1.29,-1.26 0.33,-0.27 0.45,-0.24 0.12,0.06 0.3,0.24 0.21,0.15 0.21,0.21 0,0.06 -0.18,0.27 -0.18,0.18 -0.42,0.42 -1.74,1.83 -4.26,5.19 -0.36,0.45 -0.75,0.99 -0.36,0.54 -0.72,1.02 -0.33,0.45 -0.57,0.78 -0.21,0.33 -0.24,0.42 -0.06,0.06 0,0.36 0.09,0.27 0.33,1.02 0.84,2.73 1.89,5.58 1.05,2.85 2.25,5.58 0.15,0.36 0.24,0.6 0.12,0.27 0.12,0.3 0,0.15 -0.33,0.21 -0.3,0.06 -0.45,-0.06 -0.03,-0.03 -0.18,-0.27 -0.15,-0.21 -0.33,-0.57 -0.18,-0.33 -0.36,-0.69 -0.18,-0.36 -0.33,-0.66 -0.39,-0.81 -0.84,-1.89 -0.45,-1.11 -0.9,-2.34 -0.45,-1.26 -0.9,-2.52 -0.42,-1.29 -0.75,-2.43 -0.12,-0.42 -0.21,-0.69 -0.06,-0.27 -0.09,-0.27 -0.06,0.09 -0.15,0.21 -0.06,0.12 -0.15,0.27 -0.09,0.12 -0.18,0.27 -0.6,0.99 -1.14,1.98 -0.54,0.99 -0.99,1.92 -0.42,0.9 -0.75,1.68 -0.3,0.78 -0.45,1.38 -0.09,0.33 -0.12,0.51 -0.03,0.18 0,0.45 0,0.18 0,0.33 0.03,0.15 0.06,0.18 0.03,0.09 -0.12,0.15 -0.15,0.03 -0.36,0 -0.75,-0.15 -0.75,-1.02 z" />
      <path
         id="path20"
         style=""
         d="m 120.09953,86.2 q 0.21,-0.09 0.3,-0.03 0.18,0.12 -0.09,0.27 -0.27,0.18 -0.54,0.54 -0.27,0.36 -0.51,0.81 -0.24,0.42 -0.39,0.87 -0.15,0.42 -0.15,0.72 0,0.36 0.18,0.57 0.18,0.18 0.63,0.27 0.57,0.12 1.44,-0.03 0.87,-0.18 2.58,-0.75 l 1.08,-0.36 0.42,-1.17 q 0.24,-0.66 0.36,-1.02 0.15,-0.39 0.21,-0.57 0.09,-0.18 0.12,-0.21 0.03,-0.06 0.06,-0.09 0.15,-0.09 0.45,0.12 0.33,0.18 0.45,0.42 0.06,0.18 0,0.24 -0.03,0.03 -0.15,0.33 -0.12,0.27 -0.24,0.6 -0.09,0.3 -0.18,0.57 -0.09,0.27 -0.09,0.27 0.03,0 0.24,-0.03 0.21,-0.06 0.51,-0.15 1.17,-0.33 2.16,-0.48 0.99,-0.15 1.92,-0.15 0.45,0 1.14,0.09 0.72,0.06 1.44,0.21 0.72,0.12 1.32,0.36 0.63,0.21 0.9,0.48 0.06,0.06 0.09,0.21 0.06,0.15 0,0.15 l -0.09,-0.03 q -0.06,-0.03 -0.12,-0.06 -0.06,-0.03 -0.12,-0.06 -0.42,-0.24 -0.99,-0.39 -0.57,-0.15 -1.2,-0.24 -0.63,-0.09 -1.23,-0.12 -0.6,-0.03 -1.11,-0.03 -0.51,0 -0.99,0.03 -0.45,0 -0.78,0.06 -0.42,0.06 -0.99,0.18 -0.54,0.09 -1.05,0.21 -0.51,0.12 -0.87,0.21 -0.36,0.09 -0.42,0.15 -0.03,0.03 -0.15,0.39 -0.12,0.36 -0.3,0.87 -0.15,0.48 -0.33,1.02 -0.15,0.54 -0.24,0.9 -0.21,0.69 -0.39,1.5 -0.18,0.81 -0.3,1.44 -0.03,0.27 -0.06,0.66 -0.03,0.36 -0.03,0.69 0,0.33 0,0.6 0.03,0.24 0.06,0.3 0.06,0.06 0.45,-0.06 0.42,-0.12 0.93,-0.36 0.78,-0.39 1.74,-1.05 0.99,-0.69 2.1,-1.62 0.3,-0.24 0.36,-0.27 0.09,-0.06 0.18,0 0.12,0.12 0.12,0.12 0,0.03 -0.15,0.18 -0.15,0.12 -0.36,0.33 -1.35,1.23 -2.55,2.1 -1.2,0.87 -1.95,1.11 -0.24,0.06 -0.51,0.09 -0.27,0 -0.45,-0.06 -0.69,-0.18 -0.93,-0.75 -0.06,-0.15 -0.09,-0.3 -0.03,-0.18 0,-0.75 0,-1.47 0.36,-2.91 0.36,-1.44 0.84,-2.82 0.12,-0.39 0.21,-0.66 0.09,-0.3 0.06,-0.3 -0.18,0.06 -0.36,0.09 -0.18,0.06 -0.42,0.12 -0.24,0.06 -0.51,0.15 -1.5,0.48 -2.22,0.63 -0.75,0.12 -1.23,0 -1.29,-0.24 -1.29,-1.53 0,-0.39 0.15,-0.84 0.15,-0.45 0.42,-0.84 0.24,-0.42 0.54,-0.72 0.3,-0.3 0.6,-0.42 z" />
      <path
         id="path22"
         style=""
         d="m 129.44078,94.72 q 0.06,-0.33 0.27,-0.69 0.21,-0.39 0.51,-0.69 0.3,-0.3 0.66,-0.48 0.39,-0.21 0.75,-0.21 0.33,0 0.48,0.12 0.3,0.15 0.48,0.45 0.18,0.27 0.18,0.6 0,0.3 -0.21,0.6 -0.18,0.3 -0.48,0.51 -0.27,0.21 -0.6,0.3 -0.33,0.09 -0.57,-0.03 -0.18,-0.09 -0.33,-0.3 l -0.12,-0.21 -0.18,0.24 q -0.15,0.21 -0.27,0.48 -0.09,0.24 -0.03,0.33 0.06,0.09 0.33,0.18 0.27,0.06 0.6,0.12 0.54,0.06 1.23,-0.06 0.72,-0.15 1.74,-0.48 0.33,-0.12 0.78,-0.27 0.48,-0.18 0.93,-0.33 0.48,-0.18 0.87,-0.33 0.39,-0.15 0.57,-0.21 0.42,-0.21 0.42,-0.03 0,0.09 -0.54,0.33 -0.54,0.24 -1.89,0.72 -1.8,0.69 -2.91,0.93 -1.08,0.24 -1.68,0.09 -0.36,-0.09 -0.63,-0.36 -0.54,-0.54 -0.36,-1.32 z m 1.35,-0.21 q 0,0.09 0.12,0.03 0.15,-0.06 0.42,-0.33 0.12,-0.12 0.21,-0.21 0.09,-0.12 0.12,-0.15 0.03,-0.12 -0.18,0.03 -0.27,0.12 -0.48,0.33 -0.21,0.18 -0.21,0.3 z" />
      <path
         id="path24"
         style=""
         d="m 137.59797,93.61 q 0.57,-0.72 0.69,-0.84 0.12,-0.15 0.27,-0.09 0.15,0.03 0.3,0.18 0.18,0.15 0.24,0.3 0.06,0.15 0.03,0.27 -0.03,0.09 -0.09,0.09 -0.06,0 -0.27,0.27 -0.15,0.21 -0.15,0.21 0.03,0 0.27,-0.15 0.54,-0.33 1.11,-0.6 0.57,-0.27 0.84,-0.3 0.39,-0.03 0.6,0.24 0.15,0.21 0.09,0.33 -0.03,0.12 -0.42,0.63 -0.24,0.27 -0.48,0.63 -0.21,0.33 -0.27,0.51 -0.03,0.09 0.15,0.06 0.18,-0.03 0.6,-0.21 0.45,-0.18 1.32,-0.6 0.84,-0.42 1.23,-0.57 0.39,-0.15 0.63,-0.15 0.24,0 0.42,0.21 0.12,0.21 0,0.66 -0.06,0.12 -0.09,0.27 0,0.15 -0.03,0.27 -0.03,0.27 0.06,0.36 0.09,0.09 0.39,0.15 0.27,0.03 0.81,-0.03 0.54,-0.09 1.2,-0.24 0.69,-0.18 1.44,-0.42 0.78,-0.24 1.5,-0.54 0.45,-0.21 0.45,0 0,0.12 -1.8,0.81 -1.2,0.48 -1.89,0.66 -0.66,0.15 -1.17,0.15 -0.66,0 -0.93,-0.3 -0.51,-0.48 -0.18,-1.41 0.06,-0.21 0.03,-0.24 -0.03,0 -0.36,0.12 -0.3,0.09 -0.75,0.27 -0.45,0.18 -0.93,0.39 -0.48,0.18 -0.81,0.33 -0.87,0.42 -1.11,0.42 -0.15,0 -0.33,-0.12 -0.15,-0.12 -0.21,-0.27 -0.06,-0.15 -0.03,-0.39 0.03,-0.24 0.15,-0.45 l 0.12,-0.24 -0.21,0.09 q -0.42,0.24 -0.99,0.63 -0.54,0.39 -1.32,0.99 -0.3,0.21 -0.51,0.36 -0.21,0.15 -0.27,0.15 -0.09,0 -0.24,-0.09 -0.15,-0.06 -0.3,-0.21 -0.12,-0.18 -0.15,-0.3 -0.06,-0.21 0.24,-0.72 0.33,-0.51 1.11,-1.53 z" />
      <path
         id="path26"
         style=""
         d="m 148.11578,100.93 q 0.09,-0.3 0.36,-1.08 0.24,-0.81 0.6,-1.83 0.36,-1.02 0.75,-2.13 0.42,-1.11 0.81,-2.01 0.39,-0.93 0.72,-1.53 0.36,-0.6 0.54,-0.6 0.12,0 0.27,0.12 0.15,0.12 0.27,0.3 0.12,0.15 0.15,0.3 0.06,0.12 -0.03,0.18 -0.06,0.03 -0.24,0.27 -0.15,0.21 -0.09,0.21 0.06,0 0.36,-0.15 0.54,-0.24 1.02,-0.33 0.48,-0.09 0.78,0 0.42,0.15 0.69,0.69 0.27,0.54 0.12,1.02 -0.09,0.18 -0.09,0.27 0,0.06 0.3,0.09 0.33,0 0.72,0 0.33,0 0.66,-0.03 0.33,-0.06 0.72,-0.15 0.39,-0.09 0.87,-0.27 0.51,-0.18 1.17,-0.45 0.75,-0.27 1.32,-0.48 0.6,-0.21 0.63,-0.18 0.06,0 0.06,0.12 0.03,0.06 -0.21,0.18 -0.21,0.09 -1.08,0.42 -0.84,0.33 -1.47,0.57 -0.6,0.21 -1.08,0.36 -0.48,0.12 -0.87,0.18 -0.36,0.03 -0.72,0.03 -0.24,0 -0.48,0 -0.24,-0.03 -0.36,-0.06 l -0.3,-0.06 -0.57,0.57 q -0.6,0.6 -1.2,0.96 -0.6,0.33 -1.05,0.3 -0.33,0 -0.6,-0.24 -0.27,-0.27 -0.33,-0.63 -0.12,-0.42 0.27,-0.75 0.75,-0.69 1.95,-0.75 l 0.54,-0.03 0.18,-0.21 q 0.27,-0.39 0.36,-0.69 0.03,-0.15 -0.12,-0.21 -0.15,-0.06 -0.51,-0.03 -0.33,0 -0.63,0.06 -0.27,0.09 -0.66,0.27 -0.39,0.18 -0.63,0.36 -0.09,0.09 -0.18,0.15 -0.06,0.06 -0.15,0.24 -0.09,0.15 -0.21,0.48 -0.12,0.3 -0.36,0.87 -0.33,0.87 -0.72,1.89 -0.36,1.02 -0.69,2.01 -0.3,0.96 -0.57,1.77 -0.24,0.84 -0.33,1.32 -0.06,0.24 -0.12,0.3 -0.09,0.09 -0.24,0.03 -0.15,-0.06 -0.3,-0.18 -0.18,-0.12 -0.27,-0.27 -0.06,-0.09 -0.06,-0.15 -0.03,-0.06 0,-0.21 0.03,-0.12 0.12,-0.42 0.06,-0.27 0.21,-0.78 z m 4.05,-5.34 q 0.03,0 0.15,-0.06 0.15,-0.06 0.3,-0.12 0.15,-0.09 0.33,-0.21 0.21,-0.15 0.33,-0.24 0.24,-0.18 0.27,-0.21 0.03,-0.03 -0.12,0 -0.24,0.06 -0.57,0.24 -0.33,0.15 -0.51,0.36 -0.09,0.09 -0.15,0.18 -0.06,0.06 -0.03,0.06 z" />
      <path
         id="path28"
         style=""
         d="m 160.63375,93.88 q 0.36,-0.87 0.63,-0.99 0.12,-0.06 0.15,-0.06 0.06,0 0.18,0.06 0.15,0.06 0.18,0.06 0.03,0 0.09,-0.06 0.24,-0.24 0.69,-0.24 0.21,0 0.39,0.09 0.24,0.12 0.42,0.45 0.21,0.33 0.27,0.75 0.06,0.33 -0.06,0.78 -0.12,0.42 -0.39,0.81 l -0.18,0.24 h 0.18 q 0.42,0 1.32,-0.27 0.93,-0.27 1.92,-0.63 0.99,-0.36 1.86,-0.72 0.9,-0.36 1.26,-0.54 0.24,-0.09 0.3,-0.12 0.06,-0.03 0.09,0.03 0.03,0.06 0.03,0.12 -0.06,0.06 -0.57,0.27 -0.48,0.21 -1.17,0.48 -0.66,0.27 -1.41,0.57 -0.72,0.27 -1.29,0.45 -0.66,0.24 -1.29,0.39 -0.6,0.12 -1.05,0.15 -0.27,0.03 -0.39,0.06 -0.12,0.03 -0.27,0.18 -0.33,0.24 -0.69,0.36 -0.33,0.09 -0.57,0.03 -0.15,-0.06 -0.27,-0.12 -0.09,-0.06 -0.24,-0.27 -0.72,-0.87 -0.12,-2.31 z m 0.78,1.32 0.09,0.12 0.24,-0.15 q 0.09,-0.06 0.24,-0.18 0.18,-0.15 0.33,-0.3 0.24,-0.3 0.42,-0.63 0.21,-0.36 0.18,-0.54 -0.03,-0.15 -0.21,-0.21 -0.15,-0.06 -0.39,0 -0.3,0.06 -0.18,0.27 0.06,0.18 0.06,0.27 0,0.12 -0.03,0.15 0,0 -0.15,0 -0.24,0 -0.54,0.57 -0.21,0.39 -0.06,0.63 z m -0.21,0.21 q 0.06,0 0.09,0 0.03,-0.03 0.06,-0.03 v -0.03 q 0,-0.09 -0.03,-0.12 -0.06,-0.18 -0.15,0.09 -0.03,0.12 0.03,0.09 z" />
      <path
         id="path30"
         style=""
         d="m 168.81297,95.38 q 0.06,-0.15 0.27,-0.57 0.24,-0.45 0.51,-0.93 0.27,-0.48 0.54,-0.84 0.27,-0.39 0.42,-0.39 0.09,0 0.27,0.12 0.24,0.18 0.33,0.48 0.09,0.3 -0.06,0.3 -0.06,0 -0.15,0.09 -0.06,0.06 -0.06,0.12 0,0.03 0.24,-0.06 0.15,-0.06 0.24,-0.09 0.09,-0.03 0.21,-0.03 0.3,0 0.63,0.42 0.18,0.27 0.42,0.36 0.24,0.09 0.66,0.12 0.39,0 0.9,-0.03 0.51,-0.06 1.02,-0.18 0.42,-0.09 0.48,-0.09 0.09,0 0.15,0.06 0.06,0.09 -0.03,0.18 -0.09,0.06 -0.42,0.15 -0.78,0.24 -1.44,0.3 -0.66,0.03 -1.05,-0.09 -0.24,-0.06 -0.45,-0.24 -0.21,-0.18 -0.36,-0.36 -0.12,-0.18 -0.21,-0.18 -0.06,0 -0.27,0.18 -0.18,0.15 -0.45,0.42 -0.24,0.24 -0.54,0.54 -0.27,0.3 -0.54,0.6 -0.36,0.39 -0.54,0.57 -0.15,0.15 -0.27,0.15 -0.15,0 -0.33,-0.21 -0.15,-0.21 -0.21,-0.36 -0.06,-0.15 -0.06,-0.21 0.03,-0.06 0.15,-0.3 z" />
      <path
         id="path32"
         style=""
         d="m 175.07125,94.99 q 0.12,-0.24 0.39,-0.54 0.3,-0.33 0.63,-0.63 0.33,-0.3 0.69,-0.57 0.36,-0.27 0.66,-0.42 0.6,-0.27 0.9,-0.09 0.15,0.09 0.33,0.27 0.18,0.18 0.24,0.36 0.06,0.12 0.09,0.15 0.03,0.03 0.18,-0.03 0.15,-0.06 0.33,0.12 0.18,0.18 0.18,0.33 0,0.12 -0.24,0.51 -0.24,0.42 -0.36,0.72 -0.09,0.3 -0.12,0.54 l -0.03,0.3 0.18,0.06 q 0.24,0.12 0.63,0.06 0.42,-0.06 1.11,-0.33 0.69,-0.27 1.74,-0.75 1.05,-0.51 2.58,-1.32 0.96,-0.51 1.02,-0.45 0.12,0.12 -0.15,0.27 -1.59,0.87 -2.76,1.47 -1.14,0.6 -1.95,0.93 -0.78,0.33 -1.29,0.45 -0.48,0.12 -0.75,0.03 -0.3,-0.09 -0.57,-0.42 -0.3,-0.42 -0.09,-1.08 0.09,-0.36 -0.03,-0.36 -0.06,0 -0.54,0.27 -0.45,0.24 -1.05,0.63 -0.57,0.36 -0.87,0.51 -0.27,0.15 -0.42,0.15 -0.18,0 -0.36,-0.18 -0.24,-0.21 -0.33,-0.48 -0.09,-0.27 0.03,-0.48 z m 3.15,-1.05 q 0.06,-0.06 0.03,-0.15 -0.03,-0.06 -0.06,-0.06 -0.03,0 -0.21,0.09 -0.15,0.09 -0.48,0.33 -0.33,0.24 -0.51,0.42 -0.03,0.03 0.12,-0.03 0.15,-0.09 0.36,-0.18 0.24,-0.12 0.45,-0.24 0.24,-0.12 0.3,-0.18 z" />
      <path
         id="path34"
         style=""
         d="m 186.64187,92.65 q 0.21,0 0.48,0.33 0.27,0.3 0.27,0.54 v 0.12 l 0.6,-0.24 q 0.96,-0.39 1.35,-0.33 0.24,0.03 0.39,0.24 0.18,0.21 0.18,0.45 0,0.06 -0.06,0.27 -0.06,0.21 -0.15,0.45 -0.41999,1.08 -0.18,1.32 0.24,0.18 0.72,0.18 0.33,0 0.72,-0.06 0.42,-0.09 0.9,-0.24 0.24,-0.06 0.75,-0.24 0.54,-0.21 1.05,-0.42 0.51,-0.21 1.2,-0.48 0.72,-0.27 1.2,-0.45 0.87,-0.33 1.08,-0.36 0.24,-0.06 0.18,0.06 -0.03,0.03 -0.39,0.21 -0.36,0.15 -0.87,0.36 -0.51,0.18 -1.26,0.48 -0.75,0.27 -1.26,0.48 -1.35,0.54 -2.07,0.75 -0.72,0.21 -1.23,0.21 -0.42,0 -0.72,-0.24 -0.3,-0.24 -0.39,-0.63 -0.06,-0.24 -0.03,-0.48 0.06,-0.27 0.21,-0.78 0.06,-0.18 0.09,-0.3 0.03,-0.12 0.03,-0.15 0,0 -0.18,0.06 -0.15,0.06 -0.39,0.18 -0.21,0.12 -0.42,0.24 -0.21,0.09 -0.36,0.18 -0.27,0.15 -0.6,0.36 -0.33,0.21 -0.66,0.45 -0.33,0.21 -0.63,0.45 -0.3,0.21 -0.51,0.36 -0.42,0.33 -0.6,0.39 -0.15,0.03 -0.33,-0.09 -0.15,-0.12 -0.27,-0.3 -0.12,-0.21 -0.12,-0.36 0,-0.15 0.3,-0.63 0.3,-0.48 0.69,-0.99 0.39,-0.54 0.75,-0.93 0.39,-0.42 0.54,-0.42 z m 0.36,1.17 q 0.09,0 0.03,-0.06 -0.03,-0.03 -0.12001,0.03 -0.06,0.06 -0.03,0.09 0.03,0 0.12,-0.06 z" />
      <path
         id="path36"
         style=""
         d="m 196.41344,94.72 q 0.06,-0.33 0.27,-0.69 0.21,-0.39 0.51,-0.69 0.3,-0.3 0.66,-0.48 0.39,-0.21 0.75,-0.21 0.33,0 0.48,0.12 0.3,0.15 0.48,0.45 0.18,0.27 0.18,0.6 0,0.3 -0.21,0.6 -0.18,0.3 -0.48,0.51 -0.27,0.21 -0.6,0.3 -0.33,0.09 -0.57,-0.03 -0.18,-0.09 -0.33,-0.3 l -0.12,-0.21 -0.18,0.24 q -0.15,0.21 -0.27,0.48 -0.09,0.24 -0.03,0.33 0.06,0.09 0.33,0.18 0.27,0.06 0.6,0.12 0.54,0.06 1.23,-0.06 0.72,-0.15 1.74,-0.48 0.33,-0.12 0.78,-0.27 0.48,-0.18 0.93,-0.33 0.48,-0.18 0.87,-0.33 0.39,-0.15 0.57,-0.21 0.42,-0.21 0.42,-0.03 0,0.09 -0.54,0.33 -0.54,0.24 -1.89,0.72 -1.8,0.69 -2.91,0.93 -1.08,0.24 -1.68,0.09 -0.36,-0.09 -0.63,-0.36 -0.54,-0.54 -0.36,-1.32 z m 1.35,-0.21 q 0,0.09 0.12,0.03 0.15,-0.06 0.42,-0.33 0.12,-0.12 0.21,-0.21 0.09,-0.12 0.12,-0.15 0.03,-0.12 -0.18,0.03 -0.27,0.12 -0.48,0.33 -0.21,0.18 -0.21,0.3 z" />
      <path
         id="path38"
         style=""
         d="m 203.43062,94.99 q 0.12,-0.24 0.39,-0.54 0.3,-0.33 0.63,-0.63 0.33,-0.3 0.69,-0.57 0.36001,-0.27 0.66,-0.42 0.6,-0.27 0.9,-0.09 0.15,0.09 0.33,0.27 0.18,0.18 0.24,0.36 0.06,0.12 0.09,0.15 0.03,0.03 0.18,-0.03 0.15,-0.06 0.33,0.12 0.18,0.18 0.18,0.33 0,0.12 -0.24,0.51 -0.24,0.42 -0.36,0.72 -0.09,0.3 -0.12,0.54 l -0.03,0.3 0.18,0.06 q 0.24,0.12 0.63,0.06 0.42,-0.06 1.11,-0.33 0.69,-0.27 1.74,-0.75 1.05,-0.51 2.58,-1.32 0.96001,-0.51 1.02,-0.45 0.12,0.12 -0.15,0.27 -1.59,0.87 -2.76,1.47 -1.14,0.6 -1.95,0.93 -0.78,0.33 -1.29,0.45 -0.48,0.12 -0.75,0.03 -0.3,-0.09 -0.57,-0.42 -0.3,-0.42 -0.09,-1.08 0.09,-0.36 -0.03,-0.36 -0.06,0 -0.54,0.27 -0.45,0.24 -1.05,0.63 -0.57,0.36 -0.87,0.51 -0.27,0.15 -0.42,0.15 -0.18,0 -0.36,-0.18 -0.24,-0.21 -0.33,-0.48 -0.09,-0.27 0.03,-0.48 z m 3.15,-1.05 q 0.06,-0.06 0.03,-0.15 -0.03,-0.06 -0.06,-0.06 -0.03,0 -0.21,0.09 -0.15,0.09 -0.48,0.33 -0.33,0.24 -0.51,0.42 -0.03,0.03 0.12,-0.03 0.15,-0.09 0.36,-0.18 0.24,-0.12 0.45,-0.24 0.24,-0.12 0.3,-0.18 z" />
    </g>
  </g>
</svg>
