<?xml version="1.0" encoding="UTF-8" standalone="no"?>
<svg
   xmlns:dc="http://purl.org/dc/elements/1.1/"
   xmlns:cc="http://creativecommons.org/ns#"
   xmlns:rdf="http://www.w3.org/1999/02/22-rdf-syntax-ns#"
   xmlns:svg="http://www.w3.org/2000/svg"
   xmlns="http://www.w3.org/2000/svg"
   id="svg10"
   width="500px"
   version="1.1"
   height="200px">
  <metadata
     id="metadata14">
    <rdf:RDF>
      <cc:Work
         rdf:about="">
        <dc:format>image/svg+xml</dc:format>
        <dc:type
           rdf:resource="http://purl.org/dc/dcmitype/StillImage" />
      </cc:Work>
    </rdf:RDF>
  </metadata>
  <defs
     id="defs4">
    <style
       id="style2"
       type="text/css"><![CDATA[    
     @font-face {font-family:TypographerGotisch A;
     src: url('/Users/francesco/Repos/write-logos/src/fonts//TypographerGotischA-Bold.ttf');}]]></style>
  </defs>
  <g
     id="g8"
     style="font-size:30px;font-family:'TypographerGotisch A'">
    <g
       style=""
       id="text6"
       aria-label="eXtemporanea">
      <path
         id="path16"
         style=""
         d="m 110.89,96.55 q -0.51,0.75 -1.8,1.77 -1.41,1.14 -1.86,1.68 h -0.27 q -1.14,0 -2.91,-0.81 -1.89,-0.87 -2.28,-1.8 -0.39,-1.32 -0.54,-1.74 0,-1.56 -0.03,-2.82 -0.03,-1.26 -0.03,-2.82 v -2.46 q 0,-1.41 0.99,-2.16 1.53,-1.2 4.5,-2.67 h 0.51 q 0.27,0 0.69,0.63 0.54,0.81 1.68,2.1 0.45,0.48 0.45,1.11 h 0.57 v 0.15 q -0.42,0.51 -2.1,1.74 -1.8,1.29 -2.4,1.89 -1.17,1.14 -1.17,2.19 0,2.31 0.57,3.15 0.66,1.08 2.88,1.08 0.3,0 1.14,-0.36 0.81,-0.39 1.41,-0.39 z m -3.99,-8.64 q -1.2,-1.2 -1.71,-2.01 -0.18,-0.42 -0.39,-0.66 0.09,1.5 0.09,4.35 0.66,-0.45 2.01,-1.68 z" />
      <path
         id="path18"
         style=""
         d="m 130.63281,82.18 q 0,0.48 -1.29,1.41 -1.29,0.96 -1.77,0.96 -0.36,0 -1.68,-1.26 -1.41,-1.35 -2.1,-1.53 l -0.96,0.75 q -0.84,0.66 -0.84,4.92 0,0.54 0.6,0.54 h 3.9 q 0.48,0 0.48,0.57 0,1.44 -1.98,2.13 -1.35,0.48 -3.06,0.48 -0.03,0.57 -0.03,4.02 l 4.41,1.65 v -0.03 q 0.18,0.06 0.42,0.15 0.27,0.06 0.33,0.06 1.32,-1.14 1.83,-1.14 0.6,0 0.6,0.51 0,0.24 -0.45,0.69 -0.45,0.42 -0.87,0.6 l -1.86,1.65 q -1.32,1.17 -2.1,1.17 -0.24,0 -3.3,-1.35 -0.42,-0.18 -0.99,-0.66 h 0.03 q -0.51,-0.33 -0.9,-0.33 -1.41,1.41 -2.58,2.49 -1.56,1.44 -2.79,2.25 h 0.03 q -1.92,1.29 -3.45,2.43 h -0.72 q 0,-0.75 3.21,-3.18 1.83,-1.38 3.54,-3.27 0.36,-0.42 0.93,-1.5 0.03,-0.42 0.27,-0.9 l -0.03,0.03 q 0.51,-1.89 0.51,-4.77 0,-0.36 -0.09,-0.48 h -2.73 q -0.87,0 -0.87,-0.72 0,-1.26 1.29,-1.98 1.02,-0.57 2.4,-0.57 v -0.54 l -0.06,-0.78 q -0.03,-0.39 -0.03,-0.78 0,-0.57 0.03,-1.17 0,-0.24 0,-0.51 0.03,-0.3 0.03,-0.45 0.03,-0.15 0.03,-0.21 0,-0.51 -0.24,-0.93 -2.04,-0.99 -3.15,-1.02 -2.52,1.62 -3.24,1.62 0,-0.45 0.06,-0.69 l -0.03,0.03 q 0.06,-0.24 2.07,-1.62 1.95,-1.32 2.46,-1.53 l 1.59,-0.69 h 0.6 l 1.71,0.6 q 2.34,0.78 2.4,2.22 0.27,-0.18 1.41,-1.2 0.48,-0.45 1.35,-1.02 1.05,-0.69 1.38,-0.69 0.57,0 2.43,1.53 1.86,1.53 1.86,2.04 z" />
      <path
         id="path20"
         style=""
         d="m 139.77437,84.88 q 0,0.42 -0.81,1.41 -0.75,0.99 -1.17,0.99 -0.06,0 -0.66,-0.03 -0.57,-0.06 -0.69,-0.06 -0.12,0.21 -0.12,5.19 0,0.96 0.03,1.74 0.03,0.75 0.03,1.71 0.48,0.33 1.05,0.51 h -0.03 q 1.11,0.45 1.11,0.84 0,0.6 -0.96,1.74 -0.95999,1.14 -1.5,1.14 -1.08,-0.51 -3.69,-1.92 v -0.42 q 0.81,-0.84 0.81,-5.28 0,0.36 -0.09,-2.07 -0.03,-0.45 -0.12,-3.24 -1.61999,0 -1.61999,-0.54 0.65999,-0.99 2.21999,-2.67 1.95,-2.13 2.37,-2.13 0.54,0 0.54,2.43 h 2.61 q 0.69,0 0.69,0.66 z" />
      <path
         id="path22"
         style=""
         d="m 150.90953,96.55 q -0.51,0.75 -1.8,1.77 -1.41,1.14 -1.86,1.68 h -0.27 q -1.14,0 -2.91,-0.81 -1.89,-0.87 -2.28,-1.8 -0.39,-1.32 -0.54,-1.74 0,-1.56 -0.03,-2.82 -0.03,-1.26 -0.03,-2.82 v -2.46 q 0,-1.41 0.99,-2.16 1.53,-1.2 4.5,-2.67 h 0.51 q 0.27,0 0.69,0.63 0.54,0.81 1.68,2.1 0.45,0.48 0.45,1.11 h 0.57 v 0.15 q -0.42,0.51 -2.1,1.74 -1.8,1.29 -2.4,1.89 -1.17,1.14 -1.17,2.19 0,2.31 0.57,3.15 0.66,1.08 2.88,1.08 0.3,0 1.14,-0.36 0.81,-0.39 1.41,-0.39 z m -3.99,-8.64 q -1.2,-1.2 -1.71,-2.01 -0.18,-0.42 -0.39,-0.66 0.09,1.5 0.09,4.35 0.66,-0.45 2.01,-1.68 z" />
      <path
         id="path24"
         style=""
         d="m 173.38234,97.93 q 0,0.39 -1.11,1.32 -1.05,0.93 -1.5,0.93 -2.82,0 -2.82,-4.17 0,-1.98 0.03,-3.57 0.06,-3.18 0.06,-3.54 l -0.18,-1.59 q -1.2,-0.3 -2.16,-0.66 -0.51,-0.18 -0.63,-0.18 -0.36,0 -0.36,0.66 l -0.06,5.16 q -0.03,1.26 -0.03,4.26 1.47,0.36 1.47,0.99 0,0.3 -0.42,0.72 l -0.66,0.66 q -0.84,1.11 -1.56,1.11 -0.93,-0.48 -2.28,-1.08 -0.9,-0.27 -0.9,-0.72 0,-0.24 0.36,-0.78 0.36,-0.54 0.39,-0.57 0.12,-0.69 0.12,-6.21 v -2.13 q 0,-0.69 -0.12,-1.53 -0.6,-0.24 -2.49,-0.78 -0.66,0.27 -0.75,4.86 v 5.28 q 0.99,0.57 1.02,0.6 0.51,0.42 0.51,0.99 -0.42,0.57 -1.11,1.17 -0.69,0.63 -1.2,1.05 h -0.33 q -0.51,0 -1.89,-0.75 -1.35,-0.78 -1.35,-1.2 0,-0.45 0.66,-1.11 v 0.09 q 0.15,-3.6 0.15,-9 0,-0.72 -0.09,-1.35 v 0.03 q -0.06,-0.15 -0.96,-0.54 -0.9,-0.45 -0.9,-0.78 0,-0.36 1.23,-1.41 1.2,-1.02 1.65,-1.02 0.54,0 1.47,0.54 0.93,0.48 1.35,0.54 v 0.87 q 0.3,-0.21 0.81,-0.57 0.54,-0.36 0.72,-0.48 1.02,-0.66 1.71,-0.66 l 1.17,0.6 h -0.03 q 1.83,0.6 2.34,1.11 1.83,-1.56 2.4,-1.56 0.21,0 1.29,0.45 h -0.03 l 0.24,0.09 -0.06,-0.03 q 0.42,0.09 0.81,0.18 0.39,0.09 0.6,0.15 0.21,0.06 0.27,0.06 h -0.03 q 2.1,0.48 2.1,1.02 0,0.36 -0.42,0.78 -0.36,1.65 -0.42,4.77 l 0.03,4.89 q 0,0.6 0.24,0.93 0.12,0.09 1.26,0.54 l -0.03,-0.03 q 0.42,0.15 0.42,0.6 z" />
      <path
         id="path26"
         style=""
         d="m 187.90094,90.97 q 0,0.96 -0.39,4.29 -0.09,0.69 -1.05,1.74 -0.18,0.18 -1.53,1.38 -1.86,1.62 -2.19,1.62 -0.48,0 -1.17,-0.12 -0.84,-0.15 -1.11,-0.15 0,1.74 -0.12,2.07 -0.27,0.84 -1.38,1.5 l 0.03,-0.03 q -1.35,0.84 -1.38,0.87 l 0.03,-0.03 -0.18,0.12 h -0.33 q -0.48,0 -0.48,-1.56 0,-1.35 0.18,-1.65 v -1.71 l -1.23,-0.18 q -0.78,-0.24 -0.78,-0.75 1.2,-1.35 2.13,-2.07 l -0.03,0.03 h 0.03 v -0.09 q 0,-1.62 0.03,-2.91 0.03,-1.29 0.03,-2.94 0,-2.85 -0.21,-3.15 -1.56,-1.02 -1.56,-1.44 0,-0.57 1.68,-1.53 l -0.06,0.03 q 0.57,-0.3 1.2,-0.72 0.48,0 1.17,0.39 0.75,0.39 1.02,0.75 h -0.03 q 0.3,0.6 0.3,0.9 l 1.53,-1.17 q 1.14,-0.87 1.56,-0.87 1.68,0 2.91,0.93 1.38,1.02 1.38,2.61 z m -3.3,-0.69 q 0,-3.03 -1.05,-3.45 -1.17,-0.48 -1.92,-0.48 -0.15,0 -0.18,0.03 -0.63,0.75 -0.78,1.17 -0.15,0.51 -0.15,1.32 0,2.16 0.03,3.9 0.03,1.74 0.03,3.9 2.13,0.45 3.24,0.45 0.33,0 0.48,-0.54 v 0.03 q 0.06,-0.21 0.12,-0.48 l 0.09,-0.36 v -3.99 q 0,-0.36 0.03,-0.75 0,-0.15 0,-0.33 0.03,-0.18 0.03,-0.27 0.03,-0.12 0.03,-0.15 z" />
      <path
         id="path28"
         style=""
         d="m 201.10656,90.22 q 0,3.21 -0.3,4.2 -0.39,1.41 -2.13,3.15 -1.59,1.59 -3.03,2.37 -0.15,0.09 -0.66,0.15 -0.93,-0.39 -4.2,-1.17 -1.17,-0.27 -1.17,-1.05 0.27,-0.15 0.45,-0.6 0.21,-0.21 0.21,-6.75 0,-0.75 -0.09,-2.28 -0.09,-1.53 -0.09,-2.28 l 0.51,-0.51 q 1.92,-0.75 3,-1.29 0.18,-0.09 0.48,-0.24 0.3,-0.15 0.48,-0.24 0.21,-0.09 0.36,-0.18 0.9,-0.3 1.38,-0.54 h 0.45 q 0.96,0.51 1.89,1.14 l -0.03,-0.03 q 1.89,0.93 2.28,2.55 0.21,0.75 0.21,3.6 z m -3.42,-0.93 q 0,-2.28 -2.4,-3.18 h 0.03 q -1.38,-0.45 -1.41,-0.45 -0.12,0 -0.12,1.92 v 8.7 q 0,0.27 1.29,0.57 1.11,0.3 1.65,0.3 0.96,-0.72 0.96,-4.74 z" />
      <path
         id="path30"
         style=""
         d="m 213.03625,96.46 q 0,0.51 -1.53,2.04 -1.56,1.5 -2.07,1.5 -0.75,0 -2.7,-0.75 v 0.03 l -1.26,-0.36 q -0.75,-0.3 -0.75,-0.84 0,-0.09 0.27,-0.63 l -0.03,0.03 q 0.27,-0.48 0.27,-3.09 l -0.03,-3.27 q 0,-0.06 -0.03,-0.18 0,-0.15 -0.03,-0.39 0,-0.27 0,-0.51 0,-0.24 -0.03,-0.48 0,-0.27 -0.03,-0.39 0,-0.15 0,-0.21 0,-0.3 0.03,-0.45 v -0.48 q -0.09,-0.21 -0.18,-0.36 -0.06,-0.15 -0.93,-0.84 -0.81,-0.57 -0.81,-0.93 0,-0.45 0.69,-0.96 1.32,-1.14 1.71,-1.14 1.41,0 2.55,1.68 l 0.09,0.36 q 0.45,-0.48 1.26,-1.17 1.05,-0.87 1.32,-0.87 0.57,0 1.23,1.47 0.6,1.35 0.6,2.04 -0.66,0.84 -2.01,1.92 h -0.39 q -0.36,0 -0.81,-0.93 -0.54,-1.14 -0.63,-1.23 -0.27,0.15 -0.45,0.42 v 0.66 q 0.03,0.21 0.03,0.69 0,0.06 -0.03,0.21 0,0.12 -0.03,0.39 0,0.24 0,0.48 -0.03,0.54 -0.03,1.02 0,4.5 0.06,5.04 0.27,0.24 1.23,0.57 v -0.03 q 1.35,0.42 1.56,0.42 0.09,0 0.57,-0.45 0.48,-0.48 0.84,-0.48 0.48,0 0.48,0.45 z" />
      <path
         id="path32"
         style=""
         d="m 225.17734,97.87 q 0,0.39 -2.01,2.22 h -0.36 q -0.03,-0.03 -0.3,-0.21 -0.27,-0.18 -0.45,-0.3 h 0.03 q -0.18,-0.15 -0.69,-0.48 h 0.03 q -0.99,-0.72 -1.14,-1.59 -0.45,0.36 -1.44,1.5 l 0.03,-0.03 q -0.66,1.02 -1.5,1.02 -0.3,0 -0.78,-0.39 -2.43,-1.83 -2.43,-10.83 0,-1.53 1.32,-2.85 0.72,-0.72 2.64,-1.92 1.11,-0.69 1.56,-0.69 0.72,0 2.01,0.75 h -0.03 l 0.09,0.06 q 0.45,0 0.81,0.18 l -0.09,0.3 0.12,-0.12 h 0.03 l 0.3,0.06 h -0.03 l 0.24,0.06 -0.03,-0.03 q 1.02,0.21 1.02,0.99 -0.63,0.69 -0.78,2.7 l 0.03,2.91 q 0,3.84 0.21,4.56 0.33,1.05 1.56,1.89 l 0.03,-0.12 z m -4.89,-2.13 v -8.49 l -1.32,-0.63 h 0.03 q -0.78,-0.39 -1.23,-0.39 -0.18,0 -0.3,0.66 -0.21,0.96 -0.21,6.27 0,2.4 1.2,3.42 h -0.03 q 0.36,0.27 0.54,0.27 0.21,0 0.75,-0.45 0.57,-0.48 0.57,-0.66 z" />
      <path
         id="path34"
         style=""
         d="m 240.44922,97.66 q -0.39,0.63 -1.11,1.35 -0.93,0.99 -1.29,0.99 -0.45,0 -0.87,-0.36 -0.51,-0.42 -0.63,-0.45 l -0.99,-0.45 q -0.6,-0.27 -0.6,-0.81 0,-0.54 0.09,-1.53 0.09,-1.05 0.09,-1.47 0.09,-3.24 0.09,-7.68 0,-0.51 -1.17,-0.9 -0.03,0 -0.24,-0.03 -0.18,-0.06 -0.57,-0.15 -0.39,-0.12 -0.81,-0.24 -0.42,0.09 -0.42,1.2 0,1.23 -0.09,3.72 -0.09,2.46 -0.09,3.72 0,0.96 0.06,1.86 0.3,0.18 0.48,0.27 h -0.03 q 1.05,0.51 1.05,0.96 0,0.3 -1.98,2.22 -0.18,0.18 -0.6,0.18 -0.45,0 -1.74,-0.81 -1.26,-0.81 -1.26,-1.2 0,-0.24 0.39,-1.02 0.09,-1.29 0.09,-10.05 0,-0.33 -0.57,-0.63 -0.66,-0.36 -0.93,-0.39 l -0.21,-0.3 q 0,-0.48 1.14,-1.44 1.14,-0.99 1.65,-0.99 0.36,0 1.23,0.39 0.45,0.18 1.2,0.6 h -0.03 l 0.24,0.27 q 0.72,-0.51 1.2,-0.84 0.84,-0.57 1.29,-0.57 0.36,0 2.31,0.63 l 2.52,0.81 v 0.39 q 0,0.24 -0.21,0.69 -0.18,0.48 -0.18,0.63 -0.33,4.23 -0.33,9.9 0,0.18 0.75,0.48 h -0.03 q 1.11,0.39 1.11,1.05 z" />
      <path
         id="path36"
         style=""
         d="m 251.63219,96.55 q -0.51,0.75 -1.8,1.77 -1.41,1.14 -1.86,1.68 h -0.27 q -1.14,0 -2.91,-0.81 -1.89,-0.87 -2.28,-1.8 -0.39,-1.32 -0.54,-1.74 0,-1.56 -0.03,-2.82 -0.03,-1.26 -0.03,-2.82 v -2.46 q 0,-1.41 0.99,-2.16 1.53,-1.2 4.5,-2.67 h 0.51 q 0.27,0 0.69,0.63 0.54,0.81 1.68,2.1 0.45,0.48 0.45,1.11 h 0.57 v 0.15 q -0.42,0.51 -2.1,1.74 -1.8,1.29 -2.4,1.89 -1.17,1.14 -1.17,2.19 0,2.31 0.57,3.15 0.66,1.08 2.88,1.08 0.3,0 1.14,-0.36 0.81,-0.39 1.41,-0.39 z m -3.99,-8.64 q -1.2,-1.2 -1.71,-2.01 -0.18,-0.42 -0.39,-0.66 0.09,1.5 0.09,4.35 0.66,-0.45 2.01,-1.68 z" />
      <path
         id="path38"
         style=""
         d="m 264.025,97.87 q 0,0.39 -2.01,2.22 h -0.36 q -0.03,-0.03 -0.3,-0.21 -0.27,-0.18 -0.45,-0.3 h 0.03 q -0.18,-0.15 -0.69,-0.48 h 0.03 q -0.99,-0.72 -1.14,-1.59 -0.45,0.36 -1.44,1.5 l 0.03,-0.03 q -0.66,1.02 -1.5,1.02 -0.3,0 -0.78,-0.39 -2.43,-1.83 -2.43,-10.83 0,-1.53 1.32,-2.85 0.72,-0.72 2.64,-1.92 1.11,-0.69 1.56,-0.69 0.72,0 2.01,0.75 h -0.03 l 0.09,0.06 q 0.45,0 0.81,0.18 l -0.09,0.3 0.12,-0.12 h 0.03 l 0.3,0.06 h -0.03 l 0.24,0.06 -0.03,-0.03 q 1.02,0.21 1.02,0.99 -0.63,0.69 -0.78,2.7 l 0.03,2.91 q 0,3.84 0.21,4.56 0.33,1.05 1.56,1.89 l 0.03,-0.12 z m -4.89,-2.13 v -8.49 l -1.32,-0.63 h 0.03 q -0.78,-0.39 -1.23,-0.39 -0.18,0 -0.3,0.66 -0.21,0.96 -0.21,6.27 0,2.4 1.2,3.42 h -0.03 q 0.36,0.27 0.54,0.27 0.21,0 0.75,-0.45 0.57,-0.48 0.57,-0.66 z" />
    </g>
  </g>
</svg>
