<?xml version="1.0" encoding="UTF-8" standalone="no"?>
<svg
   xmlns:dc="http://purl.org/dc/elements/1.1/"
   xmlns:cc="http://creativecommons.org/ns#"
   xmlns:rdf="http://www.w3.org/1999/02/22-rdf-syntax-ns#"
   xmlns:svg="http://www.w3.org/2000/svg"
   xmlns="http://www.w3.org/2000/svg"
   id="svg16"
   width="500px"
   version="1.1"
   height="200px">
  <metadata
     id="metadata20">
    <rdf:RDF>
      <cc:Work
         rdf:about="">
        <dc:format>image/svg+xml</dc:format>
        <dc:type
           rdf:resource="http://purl.org/dc/dcmitype/StillImage" />
      </cc:Work>
    </rdf:RDF>
  </metadata>
  <defs
     id="defs4">
    <style
       id="style2"
       type="text/css"><![CDATA[    
     @font-face {font-family:TypographerGotisch C;
     src: url('/Users/francesco/Repos/write-logos/src/fonts/TypographerGotischC-Bold.ttf');}
     @font-face {font-family:Anglo Text;
     src: url('/Users/francesco/Repos/write-logos/src/fonts/AngloText.ttf');}
     ]]></style>
  </defs>
  <g
     id="g14"
     style="font-size:60px">
    <g
       style="text-anchor:middle"
       id="text12"
       aria-label="eXtemporanea">
      <path
         id="path22"
         style="font-family:'TypographerGotisch C'"
         d="m 93.726719,79.12 v -8.28 q 0.12,0.12 0.36,0.78 l 3.48,4.2 q -0.9,1.02 -3.84,3.3 z M 105.60672,93.04 V 91.9 q -1.62,0 -3.06,0.84 -1.44,0.66 -2.04,0.66 -4.380001,0 -5.700001,-2.1 -1.08,-1.56 -1.08,-6.72 v -1.74 q 0.06,-0.12 2.64,-2.34 2.34,-2.04 3.36,-2.76 4.020001,-2.88 5.280001,-4.32 v -0.3 h -1.26 q 0,-1.5 -0.78,-2.22 -0.6,-0.66 -1.62,-1.8 -1.02,-1.14 -1.32,-1.5 0.18,0.18 0.18,0.12 v -0.06 q -0.06,-0.12 -0.300001,-0.36 -0.24,-0.3 -0.36,-0.54 -0.66,-1.2 -1.32,-1.32 h -1.08 q -5.64,2.76 -9,5.34 -1.74,1.32 -1.98,4.38 v 4.86 q 0,1.02 0.06,2.58 0.12,1.8 0.12,2.04 v 6.72 q 0.24,0.66 0.42,1.26 0.24,0.6 0.42,1.2 0.18,0.6 0.24,0.78 1.44,2.46 4.8,3.9 2.64,1.14 5.52,1.5 h 0.6 q 0.78,-0.96 3.120001,-2.76 3.18,-2.46 4.14,-4.2 z" />
      <path
         id="path24"
         style="font-family:'Anglo Text'"
         d="m 147.01516,61.12 q 0,1.44 0,2.94 -0.12,1.62 -0.9,2.52 -1.5,0.78 -2.28,0.78 -0.72,0 -1.2,-0.48 -1.08,0.96 -1.2,2.88 -0.9,0 -1.02,-1.38 -0.06,-1.44 -0.84,-1.62 0,0 -1.02,0.24 -0.66,0.12 -1.08,-0.12 -1.14,-0.6 -0.9,-1.5 0.96,-0.12 1.2,-0.18 0.66,-0.18 1.08,-0.72 0,-0.06 0,-1.08 0,-0.54 -0.3,-0.84 -0.24,-0.36 -0.54,-0.36 -0.18,0 -0.6,0.18 -0.36,0.12 -0.54,0.12 -1.02,0.9 -1.68,2.1 -0.72,1.56 -1.5,3.06 -0.84,1.8 -1.08,3.18 3.3,1.68 3.18,3.78 0.18,2.82 -1.98,4.14 -0.42,-0.06 -0.84,0.3 -0.78,0.6 -0.84,0.6 1.08,3 3.12,7.32 1.74,3.66 3.42,7.26 0.66,1.5 1.68,1.98 0.6,0.6 3.18,0.3 1.86,-1.26 1.68,-3.06 0,-2.4 -2.88,-4.56 -0.84,-0.3 -2.04,-0.3 -2.04,0 -2.04,0 -0.18,-0.3 0.6,-0.72 4.2,-0.42 6.18,2.7 0.66,1.26 0.66,2.76 0,1.86 -0.96,3.48 -1.26,2.16 -3.78,1.98 -0.36,0.06 -1.08,-0.36 -0.66,-0.42 -0.96,-0.42 -0.42,0 -0.66,0.48 0.06,1.44 -0.66,1.5 -0.66,-1.08 -2.58,-3.06 -0.12,-0.06 -0.3,-0.06 -0.3,0 -0.72,0.48 -0.36,0.48 -0.6,0.54 -1.56,1.02 -3.24,1.02 -0.9,0 -1.62,-0.3 -0.12,-0.48 0.24,-0.6 0.18,-0.06 0.84,0 0.54,0.06 0.72,-0.12 1.08,-0.54 1.68,-2.76 -0.12,-1.2 -0.36,-2.4 -0.18,-1.26 -0.84,-1.98 v -0.48 q -0.96,-1.08 -1.86,-3.66 -0.9,-2.64 -1.8,-3.78 -0.6,0.06 -0.96,0.84 -0.48,1.08 -0.72,1.26 -0.06,0.36 -0.48,1.14 -0.36,0.78 -0.36,1.2 0,0.36 0.24,0.72 2.82,2.7 2.82,5.4 0,0.84 -0.24,1.56 -0.54,2.76 -3.78,3.36 h -2.46 V 97.9 q 2.16,-0.12 3,-0.36 1.62,-0.48 2.34,-1.8 0.42,-0.6 0.42,-1.44 0,-1.02 -0.9,-2.94 0,0 -0.96,-1.2 -0.54,-0.78 -1.14,-0.96 -0.84,1.02 -1.74,2.88 -1.26,2.7 -1.44,3.06 -2.04,3.6 -5.94,3.6 -0.54,0 -1.08,-0.12 -0.72,-0.12 -2.16,-0.9 -1.44,-0.84 -2.28,-0.84 -0.54,0 -1.02,0.24 -1.14,0.72 -1.5,2.7 -0.36,0.18 -0.54,-0.06 -0.12,-0.3 -0.24,-0.54 0,-1.98 1.2,-3.6 0.9,-0.54 2.76,-1.08 0.18,-0.3 0.18,-0.66 0,-0.3 -0.3,-0.96 -0.24,-0.72 -0.18,-1.14 -0.18,-2.1 1.92,-5.22 2.1,-3.18 2.1,-4.74 0,-1.5 -1.14,-3.06 -1.14,-0.78 -2.1,-0.78 -1.26,0 -2.04,1.2 -0.78,1.2 -0.78,2.52 0,0.66 0.18,1.32 0,0.24 0.3,0.66 0.3,0.42 0.3,0.66 l -0.42,0.48 q -1.08,-1.26 -1.08,-3.3 0,-0.72 0.18,-1.44 1.14,-2.64 3.18,-2.88 2.22,-0.24 3.78,1.86 1.14,2.16 0.6,4.08 -0.36,0.9 -2.4,3.6 -1.62,2.16 -1.62,3.54 0,1.38 1.32,2.76 0.42,-0.06 0.54,-0.54 0.12,-0.54 0.18,-1.02 0.66,-1.32 2.28,-1.98 1.02,0.06 2.04,0.12 1.02,0.06 1.5,0.66 -0.24,0.3 -0.54,0.3 -0.18,0 -0.6,-0.12 -0.36,-0.18 -0.54,-0.18 -1.44,0.54 -1.86,1.38 -0.06,0.3 -0.06,0.6 0,1.44 1.44,2.28 0.42,0.18 1.02,0.18 0.54,0 0.96,-0.18 1.26,-0.96 2.34,-2.88 0.9,-1.68 1.74,-3.36 -0.12,-0.84 -1.26,-2.34 -1.08,-1.56 -1.14,-2.52 -0.96,-1.68 -1.08,-4.26 0,0 0.24,-0.9 0.18,-0.54 -0.06,-0.9 -5.76,-3.96 -5.76,-11.46 0,-1.8 0.42,-3.6 -0.84,-0.54 -2.7,-0.12 -2.7,1.08 -3.36,3.78 0.3,2.04 1.2,3.18 0.06,0.36 -0.12,0.66 -0.12,0.3 -0.48,0.12 -1.14,-1.44 -1.14,-3.66 0,-1.92 0.84,-3.48 2.04,-3.12 5.16,-3.12 0.36,0 0.78,0.06 1.08,-0.06 1.74,-1.08 0.66,-1.02 1.26,-1.92 5.34,-4.74 13.86,-4.74 3.3,0 6.48,0.78 1.08,0.48 3.24,1.38 2.22,0.84 4.02,2.76 1.8,1.92 2.46,4.2 z m -1.2,-0.6 q -2.46,-6.3 -12.54,-6.3 -1.86,0 -4.92,0.24 -3.42,0.66 -6.78,1.38 -3.9,1.02 -5.64,3.6 0.18,0.24 0.12,0.3 1.02,0.54 3.06,1.38 0,0 0.12,-1.2 0,-0.24 -0.24,-1.08 -0.24,-0.66 -0.06,-1.08 0.84,0.3 1.38,1.68 0.6,1.32 1.38,1.68 0.42,0.12 1.2,-0.6 1.38,-1.08 3.06,-1.08 0.78,0 1.5,0.3 2.04,1.2 1.68,3.48 -0.18,0.66 -0.78,0.48 -0.24,-0.36 -0.3,-1.8 0,0 -0.72,-0.78 -0.42,-0.42 -0.96,-0.3 -1.14,0.24 -1.32,0.84 -0.12,0.6 -0.12,1.14 0,1.5 0.9,3.54 1.32,2.88 1.5,3.48 0.24,0.54 0.84,0.54 0.18,0 0.72,-0.06 0.54,-0.12 0.78,-0.12 0.3,0 0.48,0.06 0.54,-0.06 0.78,-0.6 0.36,-0.78 0.6,-0.9 0.42,-1.14 1.44,-3.18 1.08,-2.1 1.44,-3.24 0.6,-0.72 1.2,-1.5 0.66,-0.78 1.38,-0.78 0.72,-0.6 1.98,-0.6 0.96,0 3.06,0.6 2.4,2.64 2.1,4.44 0.54,0.96 1.02,0.96 0.18,0 0.36,-0.06 0.84,-0.9 0.84,-2.34 0,-1.14 -0.54,-2.52 z m -10.92,13.8 q -1.02,-1.2 -1.14,-1.38 -0.72,-0.66 -1.62,-0.9 -0.48,0.36 -0.9,1.38 -0.36,1.02 -0.72,1.38 -0.12,0.36 -0.12,0.72 0,1.56 1.62,3.24 0.66,-0.18 2.28,-1.56 0.66,-0.78 0.6,-2.88 z m -5.16,-2.4 q -0.12,-0.3 -0.48,-0.3 -0.3,0 -0.6,0 -0.18,0.18 -0.18,0.36 0,0.18 0.24,0.6 0.24,0.36 0.24,0.54 0.42,0 0.54,-0.42 0.24,-0.78 0.24,-0.78 z m -7.62,0.72 q -0.9,-4.02 -4.56,-8.64 -0.3,-0.12 -1.32,-1.02 -0.78,-0.66 -1.56,-0.48 -0.6,1.44 -0.6,3.18 0,0.84 0.18,1.68 0,2.76 3,7.14 0.48,0.6 1.08,1.2 0.6,0.6 1.2,0.6 1.38,-2.4 2.58,-3.66 z m 2.88,6.24 q -0.06,-0.42 -0.48,-1.26 -0.42,-0.9 -0.42,-1.44 l -1.2,-1.98 q -0.84,0.06 -2.28,1.8 -0.18,0.36 -0.18,0.6 0,0.72 0.96,1.2 0.6,0.06 1.74,0.6 1.14,0.54 1.86,0.48 z m 0.48,1.08 q -1.14,-0.18 -2.7,-0.78 -2.4,-0.96 -2.64,-1.02 -0.3,0.6 -0.3,1.26 0,0.72 0.42,1.86 0.42,1.32 0.54,1.86 0.54,0.78 1.02,1.56 0.66,0.96 1.38,1.2 0.24,-0.42 0.78,-1.26 0.12,-0.36 0.96,-1.86 0.66,-1.2 0.66,-2.04 0,-0.36 -0.12,-0.78 z" />
      <path
         id="path26"
         style="font-family:'TypographerGotisch C'"
         d="m 168.24016,69.76 q 0,-1.32 -1.44,-1.32 h -5.1 V 64.6 q 0,-1.02 -1.14,-1.02 -0.9,0 -2.82,2.1 -0.48,0.48 -1.32,1.5 -0.78,1.02 -0.96,1.2 v -0.06 q -4.08,4.32 -4.08,4.86 v 0.12 q 0,1.02 2.46,1.02 h 0.84 v 0.66 0.18 q 0,2.22 0.18,5.58 0,0.84 0,1.86 0.06,0.96 0.06,1.5 0.06,0.48 0.06,0.78 0,2.76 -0.06,2.88 v 2.28 q 0,3.66 -1.56,5.28 v 0.96 q 0.36,0.18 1.14,0.6 0.78,0.42 1.14,0.6 l 1.92,0.96 h -0.06 l 3.24,1.68 q 1.02,0 3,-2.4 1.98,-2.4 1.98,-3.42 0,-0.84 -2.22,-1.74 -1.5,-0.48 -1.98,-0.96 V 91 q 0,-1.26 -0.06,-2.1 0,-0.12 -0.06,-0.48 0,-0.36 0,-0.54 -0.06,-1.38 -0.06,-3.12 0,-2.46 0.06,-4.44 0,-0.24 0,-0.72 0.06,-0.54 0.06,-0.72 0.06,-1.26 0.06,-2.94 V 74.8 q 0,-0.24 0.06,-0.36 h 0.66 q 0.06,0 0.9,0.12 0.36,0.06 1.08,0.06 0.9,0 2.52,-2.04 1.5,-1.92 1.5,-2.82 z" />
      <path
         id="path28"
         style="font-family:'TypographerGotisch C'"
         d="m 178.45328,79.12 v -8.28 q 0.12,0.12 0.36,0.78 l 3.48,4.2 q -0.9,1.02 -3.84,3.3 z m 11.88,13.92 V 91.9 q -1.62,0 -3.06,0.84 -1.44,0.66 -2.04,0.66 -4.38,0 -5.7,-2.1 -1.08,-1.56 -1.08,-6.72 v -1.74 q 0.06,-0.12 2.64,-2.34 2.34,-2.04 3.36,-2.76 4.02,-2.88 5.28,-4.32 v -0.3 h -1.26 q 0,-1.5 -0.78,-2.22 -0.6,-0.66 -1.62,-1.8 -1.02,-1.14 -1.32,-1.5 0.18,0.18 0.18,0.12 v -0.06 q -0.06,-0.12 -0.3,-0.36 -0.24,-0.3 -0.36,-0.54 -0.66,-1.2 -1.32,-1.32 h -1.08 q -5.64,2.76 -9,5.34 -1.74,1.32 -1.98,4.38 v 4.86 q 0,1.02 0.06,2.58 0.12,1.8 0.12,2.04 v 6.72 q 0.24,0.66 0.42,1.26 0.24,0.6 0.42,1.2 0.18,0.6 0.24,0.78 1.44,2.46 4.8,3.9 2.64,1.14 5.52,1.5 h 0.6 q 0.78,-0.96 3.12,-2.76 3.18,-2.46 4.14,-4.2 z" />
      <path
         id="path30"
         style="font-family:'TypographerGotisch C'"
         d="m 235.22172,95.86 q 0,-1.08 -0.84,-1.26 h 0.06 q -2.04,-0.72 -2.46,-1.02 -0.54,-0.48 -0.54,-1.86 0,-5.88 0.18,-14.76 0.12,-1.98 0.6,-4.38 0.12,-0.12 0.24,-0.3 0.6,-0.72 0.6,-1.32 0,-1.02 -3.48,-1.92 l -0.72,-0.18 q -2.04,-0.6 -3.3,-0.78 l 0.18,0.06 -0.6,-0.18 h 0.06 q -0.12,-0.06 -0.42,-0.18 -0.3,-0.18 -0.48,-0.24 -0.96,-0.48 -1.68,-0.48 -0.9,0 -4.68,3.06 h -0.06 q -0.66,-0.66 -2.16,-1.32 l -2.46,-0.84 h 0.06 q -0.48,-0.24 -1.02,-0.48 h 0.06 q -1.08,-0.54 -1.44,-0.78 h -0.96 q -0.3,0 -3.24,1.92 -0.6,0.42 -2.22,1.5 v -1.74 q -0.84,-0.12 -2.7,-1.08 h 0.06 q -1.74,-1.02 -2.88,-1.02 h -0.42 q -0.06,0 -0.24,0.12 -0.12,0.12 -0.36,0.24 -0.18,0.06 -0.3,0.12 -0.42,0.3 -0.48,0.3 -4.14,3.06 -4.14,4.14 0,0.84 2.16,1.68 1.5,0.54 1.56,0.96 0.18,1.14 0.18,2.58 v 5.64 q 0,6.48 -0.3,12.18 0,-0.06 0.18,-0.24 -0.06,0.06 -0.12,0.18 -0.06,0.06 -0.06,0.12 v 0.12 -0.12 q -0.06,0.12 -0.18,0.24 -0.12,0.06 -0.24,0.18 -0.12,0.06 -0.24,0.18 -0.66,0.84 -0.66,1.5 0,0.66 2.82,2.4 2.76,1.56 3.66,1.56 h 0.78 q 0.9,-0.9 1.2,-1.14 0.3,-0.3 1.14,-1.02 1.92,-1.86 2.22,-2.22 v -0.66 q 0,-1.02 -1.62,-1.86 -0.24,-0.12 -0.6,-0.3 -0.36,-0.18 -0.54,-0.3 -0.18,-0.12 -0.3,-0.18 v -2.82 q 0,-3.24 0.06,-5.88 0,-0.36 0,-0.96 0.06,-0.66 0.06,-0.9 0.06,-1.68 0.06,-4.02 v -1.44 q 0.06,-0.36 0.12,-0.78 0.06,-0.48 0.12,-1.02 0.06,-0.6 0.12,-0.9 0.06,-0.9 0.96,-1.38 h 0.3 q 0.3,0 2.64,0.84 0.96,0.42 1.44,0.6 0.48,0.12 0.48,0.06 0.12,1.14 0.24,3.36 v 6.48 q 0,6.66 -0.24,9.78 0,0.3 -0.6,0.9 -0.84,1.08 -0.84,1.8 0,1.14 1.86,1.5 l 3.84,1.98 q 0.24,0.18 0.66,0.18 0.72,0 1.32,-0.36 0.66,-0.42 0.9,-0.72 0.3,-0.3 0.96,-1.14 0.06,-0.12 0.3,-0.48 v 0.06 l 0.42,-0.42 q 1.38,-1.38 1.38,-1.98 0,-0.84 -1.86,-1.62 l -1.02,-0.36 V 78.58 q 0,-1.44 0.18,-2.52 v -0.72 q -0.06,-0.3 -0.06,-0.6 0,-1.74 0.66,-1.74 0.42,0 1.26,0.36 1.08,0.54 1.68,0.66 2.46,0.6 2.64,0.66 l 0.18,1.44 q 0,0.72 0.12,1.68 v 4.14 q 0,1.86 -0.06,3.3 0,0.24 -0.06,0.84 0,0.54 0,0.84 v 5.04 3 q 0,2.04 1.86,3.72 1.86,1.68 3.84,1.68 1.2,0 5.04,-3.84 0.18,-0.36 0.18,-0.66 z" />
      <path
         id="path32"
         style="font-family:'TypographerGotisch C'"
         d="m 242.18172,92.56 h 0.06 z m 0.66,-24.48 h -0.06 l -0.06,0.06 -0.06,0.06 q 0.06,0 0.18,-0.12 z m 14.64,12.48 v 0.66 q 0,0.12 -0.12,0.96 -0.06,0.78 -0.06,1.38 v 7.98 q -0.3,0.48 -0.3,0.84 v -0.06 l -0.18,0.9 v -0.06 q -0.24,0.96 -0.9,0.96 -2.04,0 -6.48,-0.84 l 0.06,-11.82 q 0,-0.12 -0.06,-0.72 0,-0.66 0,-1.02 v -1.98 q 0,-2.82 1.14,-4.2 l -0.06,0.12 q 0.12,-0.12 0.36,-0.36 0.24,-0.3 0.42,-0.48 h 0.3 q 1.56,0 3.78,0.9 2.1,0.84 2.1,6.84 z m 6.66,1.38 v -7.62 q 0,-3.3 -2.88,-5.34 -2.58,-1.8 -5.76,-1.8 -1.02,0 -3.66,2.1 -0.6,0.48 -1.2,0.96 -0.54,0.42 -0.84,0.66 -0.3,0.18 -0.36,0.24 0,-0.3 -0.12,-0.66 0,-0.06 0,-0.06 0,-0.06 -0.06,-0.12 v 0.06 q -0.42,-0.84 -0.42,-0.9 -0.66,-0.78 -2.04,-1.5 -1.32,-0.78 -2.1,-0.78 h -0.36 q -0.24,0.18 -0.78,0.48 -0.48,0.3 -0.72,0.42 l -0.12,0.12 q -0.12,0.12 -0.36,0.3 -0.18,0.12 -0.24,0.12 l 0.06,-0.06 q -1.32,0.72 -1.86,1.14 -1.56,1.2 -1.56,1.92 0,0.72 1.68,1.8 0.42,0.36 0.9,0.78 0.54,0.36 0.6,0.42 0.36,0.48 0.36,6.18 0,2.88 -0.06,4.68 v 1.02 q -0.06,2.28 -0.06,5.34 v 0.18 q 0,0.3 0.06,0.48 v 0.06 q -1.74,1.26 -4.26,4.14 v 0.36 q 0,0.96 2.04,1.26 0.6,0.06 1.98,0.3 v 3.3 q -0.42,0.72 -0.42,2.4 0,0.6 0.06,1.02 v 2.46 q 0.36,0.66 0.96,0.66 h 0.78 l 0.3,-0.3 q 1.26,-0.72 2.16,-1.38 v 0.06 q 0.18,-0.18 0.48,-0.3 2.76,-1.68 2.82,-3.42 0.18,-1.74 0.18,-3.66 0.54,0 2.16,0.3 1.26,0.24 2.34,0.24 0.96,0 3.9,-2.76 0.18,-0.18 0.48,-0.48 0.3,-0.3 0.54,-0.54 0.24,-0.24 0.48,-0.48 0.54,-0.48 1.56,-1.5 1.08,-1.02 1.56,-1.5 0.96,-1.5 1.02,-2.28 0.6,-6.42 0.6,-7.02 v -0.3 q 0.18,-0.42 0.18,-1.2 z" />
      <path
         id="path34"
         style="font-family:'TypographerGotisch C'"
         d="m 275.61578,92.56 v -0.12 z m 7.86,-13.98 v 5.28 q 0,5.04 -0.12,6 -0.48,3.3 -1.8,4.38 h -0.18 q -0.96,0 -3.24,-0.72 -2.1,-0.6 -2.46,-0.96 V 82.12 l 0.12,-3.48 q 0.06,-2.1 0.06,-3.48 v -1.8 q 0,-1.98 0.18,-1.98 0.18,0 2.76,0.96 4.32,1.62 4.68,6.24 z m 6.96,1.92 v -2.64 q 0,-4.02 -0.78,-5.76 v 0.06 q -1.14,-2.52 -4.14,-4.08 v 0.06 q -2.28,-1.44 -3.78,-2.22 h -0.96 l -0.84,0.42 h 0.06 l -1.26,0.42 h 0.06 q -1.26,0.42 -1.62,0.6 l 0.12,-0.06 q -0.06,0.06 -0.12,0.06 v 0.06 q -0.48,0.24 -1.08,0.54 -0.6,0.24 -0.72,0.3 -0.84,0.42 -5.94,2.64 l -1.02,1.02 v 0.54 q 0,1.5 0.18,4.38 0.18,2.88 0.18,4.2 0,6.6 -0.18,12.54 0,0.54 -0.18,0.84 l -0.24,0.3 q -0.24,0.36 -0.42,0.66 l -0.3,0.3 v 0.54 q 0,1.08 2.4,1.62 2.28,0.48 3.18,0.72 3.24,0.84 5.16,1.62 h 0.42 q 0,-0.12 1.02,-0.36 1.68,-1.32 4.62,-3.42 3.84,-3.3 5.52,-7.62 0.66,-3.18 0.66,-8.28 z" />
      <path
         id="path36"
         style="font-family:'TypographerGotisch C'"
         d="m 314.17797,92.92 q 0,-1.02 -1.02,-1.02 -0.9,0 -1.86,1.2 -0.66,0.66 -0.96,0.66 -0.42,0 -3.06,-0.78 v 0.06 q -1.8,-0.66 -2.4,-1.14 -0.06,-0.3 -0.06,-1.32 0,-2.04 -0.06,-3.6 -0.06,-2.94 -0.06,-5.22 0.24,-0.66 0.24,-4.08 V 76 q -0.06,-0.6 -0.06,-0.96 0,-0.3 0.84,-0.84 0.24,0.36 0.84,1.74 1.08,2.64 1.98,2.64 h 0.84 q 2.76,-2.34 4.02,-3.9 v -0.54 q 0,-0.78 -1.14,-3.42 -1.44,-3.12 -2.52,-3.12 -0.54,0 -1.86,1.02 l -0.36,0.36 q -1.74,1.5 -2.94,2.58 l -0.12,-0.54 q -2.4,-3.42 -5.16,-3.42 -1.14,0 -3.42,2.22 -1.38,0.78 -1.38,2.04 0,0.72 1.92,2.1 1.2,0.84 1.62,1.38 0,0.18 0.3,0.78 v 0.72 q -0.06,0.42 -0.06,1.08 0,2.7 0.18,4.32 v 10.5 q 0,0.36 -0.12,1.68 0,0.18 -0.24,0.42 -0.6,0.96 -0.6,1.32 0,1.08 0.96,1.44 0.3,0.06 3.12,0.96 V 98.5 q 0.12,0.06 0.84,0.36 0.72,0.24 1.08,0.36 2.76,0.78 3.48,0.78 1.2,0 4.14,-3.12 3.06,-3.06 3.06,-3.96 z" />
      <path
         id="path38"
         style="font-family:'TypographerGotisch C'"
         d="m 328.50297,74.86 v 16.62 q 0,0.24 -1.08,1.2 -1.14,0.9 -1.5,0.9 -0.24,0 -1.02,-0.48 v 0.06 q -2.34,-2.22 -2.34,-6.84 V 76 q 0.12,-0.72 0.42,-2.22 0.18,-1.2 0.54,-1.2 0.6,0 2.46,0.72 h -0.06 q 0.18,0.12 0.36,0.24 0.24,0.06 0.48,0.24 0.3,0.12 0.48,0.18 l 1.32,0.66 q -0.06,0.06 -0.06,0.24 z m 9.84,20.82 V 94.9 q -0.06,0 -0.06,0.24 -2.64,-1.86 -3.12,-3.72 -0.42,-1.62 -0.42,-9.06 0,-1.98 0.12,-5.1 v 0.06 q 0.06,-1.2 0.06,-3.12 0.3,-1.92 1.32,-2.94 v -0.54 q 0,-1.08 -2.04,-1.56 l 0.06,0.06 q -0.12,-0.06 -0.3,-0.06 -0.18,0 -0.24,-0.06 h 0.12 q -0.18,-0.12 -0.36,-0.12 -0.18,-0.06 -0.24,0 -0.06,0 -0.06,0.06 l -0.24,0.24 0.18,-0.66 q -0.72,-0.36 -1.62,-0.36 -0.12,-0.06 -0.18,-0.12 h 0.12 q -0.12,-0.06 -1.8,-0.78 h 0.06 q -1.5,-0.72 -2.34,-0.72 -1.08,0 -3.18,1.38 -3.96,2.46 -5.1,3.72 -2.76,2.58 -2.76,5.88 V 89.2 q 0,8.82 6.42,10.8 h 0.36 q 0.9,0 2.4,-1.62 0.06,-0.12 0.3,-0.42 l -0.06,0.06 0.72,-0.84 2.04,-2.1 q 0.18,1.56 2.22,3.12 v -0.06 q 0.78,0.66 1.32,1.02 0.24,0.12 0.72,0.54 0.54,0.36 0.78,0.48 h 0.66 q 0.36,-0.36 1.14,-1.08 0.84,-0.72 1.2,-1.02 1.8,-1.68 1.8,-2.4 z" />
      <path
         id="path40"
         style="font-family:'TypographerGotisch C'"
         d="m 368.76953,95.26 v -0.24 q 0,-1.08 -2.28,-1.92 h 0.06 q -1.44,-0.6 -1.44,-0.9 0,-10.26 0.66,-19.68 0,-0.42 0.24,-0.9 0.54,-1.38 0.54,-1.74 v -0.84 q -4.62,-1.32 -4.8,-1.38 -0.06,0 -0.24,-0.06 -0.18,-0.12 -0.42,-0.24 -0.24,-0.12 -0.42,-0.18 -0.18,-0.12 -1.02,-0.36 -1.8,-0.66 -2.76,-0.66 -0.96,0 -3.06,1.38 -0.36,0.3 -1.02,0.84 -0.66,0.48 -0.84,0.6 -0.3,-0.54 -0.54,-0.6 h 0.06 q -0.66,-0.3 -2.46,-1.14 h 0.06 q -1.74,-0.78 -2.4,-0.78 -1.02,0 -3.3,1.92 -2.34,2.04 -2.34,2.88 v 0.12 q 0,0.42 0.06,0.54 0.06,0.12 0.36,0.12 0.06,0.06 0.3,0.06 0.12,0.06 0.42,0.18 0.3,0.12 0.36,0.18 0.12,0 0.36,0.12 0.3,0.12 0.42,0.18 0.12,0.06 0.3,0.18 0.24,0.12 0.3,0.24 0.12,0.12 0.24,0.24 0.12,0.12 0.18,0.3 0.06,0.12 0.06,0.3 v 12.84 q 0,5.58 -0.12,7.14 0,0.24 -0.3,0.66 -0.54,1.2 -0.54,1.44 0,0.84 3,2.52 l -0.06,-0.06 q 2.76,1.56 3.12,1.56 h 0.3 q 0.72,0 0.96,-0.36 l 3.54,-3.48 q 0.36,-0.54 0.36,-1.02 0,-1.02 -1.38,-1.62 l -0.66,-0.36 q -0.24,-0.12 -0.48,-0.24 -0.18,-0.12 -0.3,-0.12 l -0.12,-0.06 q -0.12,-1.02 -0.12,-3.72 0,-2.46 0.18,-7.38 0.18,-4.98 0.18,-7.44 v -1.86 q 0,-0.48 0.78,-0.54 1.02,0.24 2.52,0.78 0.18,0.06 0.54,0.18 0.42,0.06 0.6,0.12 1.02,0.18 1.44,0.48 0.42,0.3 0.42,1.08 v 9.12 q 0,7.56 -0.54,12.18 v 0.24 q 0,0.72 1.5,1.56 0.3,0.12 1.14,0.48 h -0.06 q 0.12,0.06 0.3,0.18 0.24,0.06 0.36,0.12 l -0.06,-0.06 q 0.06,0.06 0.18,0.18 0.18,0.12 0.3,0.18 1.5,1.26 2.52,1.26 0.78,0 2.7,-2.04 1.2,-1.2 2.16,-2.7 z" />
      <path
         id="path42"
         style="font-family:'TypographerGotisch C'"
         d="m 379.07828,79.12 v -8.28 q 0.12,0.12 0.36,0.78 l 3.48,4.2 q -0.9,1.02 -3.84,3.3 z m 11.88,13.92 V 91.9 q -1.62,0 -3.06,0.84 -1.44,0.66 -2.04,0.66 -4.38,0 -5.7,-2.1 -1.08,-1.56 -1.08,-6.72 v -1.74 q 0.06,-0.12 2.64,-2.34 2.34,-2.04 3.36,-2.76 4.02,-2.88 5.28,-4.32 v -0.3 h -1.26 q 0,-1.5 -0.78,-2.22 -0.6,-0.66 -1.62,-1.8 -1.02,-1.14 -1.32,-1.5 0.18,0.18 0.18,0.12 v -0.06 q -0.06,-0.12 -0.3,-0.36 -0.24,-0.3 -0.36,-0.54 -0.66,-1.2 -1.32,-1.32 h -1.08 q -5.64,2.76 -9,5.34 -1.74,1.32 -1.98,4.38 v 4.86 q 0,1.02 0.06,2.58 0.12,1.8 0.12,2.04 v 6.72 q 0.24,0.66 0.42,1.26 0.24,0.6 0.42,1.2 0.18,0.6 0.24,0.78 1.44,2.46 4.8,3.9 2.64,1.14 5.52,1.5 h 0.6 q 0.78,-0.96 3.12,-2.76 3.18,-2.46 4.14,-4.2 z" />
      <path
         id="path44"
         style="font-family:'TypographerGotisch C'"
         d="m 405.84672,74.86 v 16.62 q 0,0.24 -1.08,1.2 -1.14,0.9 -1.5,0.9 -0.24,0 -1.02,-0.48 v 0.06 q -2.34,-2.22 -2.34,-6.84 V 76 q 0.12,-0.72 0.42,-2.22 0.18,-1.2 0.54,-1.2 0.6,0 2.46,0.72 h -0.06 q 0.18,0.12 0.36,0.24 0.24,0.06 0.48,0.24 0.3,0.12 0.48,0.18 l 1.32,0.66 q -0.06,0.06 -0.06,0.24 z m 9.84,20.82 V 94.9 q -0.06,0 -0.06,0.24 -2.64,-1.86 -3.12,-3.72 -0.42,-1.62 -0.42,-9.06 0,-1.98 0.12,-5.1 v 0.06 q 0.06,-1.2 0.06,-3.12 0.3,-1.92 1.32,-2.94 v -0.54 q 0,-1.08 -2.04,-1.56 l 0.06,0.06 q -0.12,-0.06 -0.3,-0.06 -0.18,0 -0.24,-0.06 h 0.12 q -0.18,-0.12 -0.36,-0.12 -0.18,-0.06 -0.24,0 -0.06,0 -0.06,0.06 l -0.24,0.24 0.18,-0.66 q -0.72,-0.36 -1.62,-0.36 -0.12,-0.06 -0.18,-0.12 h 0.12 q -0.12,-0.06 -1.8,-0.78 h 0.06 q -1.5,-0.72 -2.34,-0.72 -1.08,0 -3.18,1.38 -3.96,2.46 -5.1,3.72 -2.76,2.58 -2.76,5.88 V 89.2 q 0,8.82 6.42,10.8 h 0.36 q 0.9,0 2.4,-1.62 0.06,-0.12 0.3,-0.42 l -0.06,0.06 0.72,-0.84 2.04,-2.1 q 0.18,1.56 2.22,3.12 v -0.06 q 0.78,0.66 1.32,1.02 0.24,0.12 0.72,0.54 0.54,0.36 0.78,0.48 h 0.66 q 0.36,-0.36 1.14,-1.08 0.84,-0.72 1.2,-1.02 1.8,-1.68 1.8,-2.4 z" />
    </g>
  </g>
</svg>
