<?xml version="1.0" encoding="UTF-8" standalone="no"?>
<svg
   xmlns:dc="http://purl.org/dc/elements/1.1/"
   xmlns:cc="http://creativecommons.org/ns#"
   xmlns:rdf="http://www.w3.org/1999/02/22-rdf-syntax-ns#"
   xmlns:svg="http://www.w3.org/2000/svg"
   xmlns="http://www.w3.org/2000/svg"
   id="svg16"
   width="500px"
   version="1.1"
   height="200px">
  <metadata
     id="metadata20">
    <rdf:RDF>
      <cc:Work
         rdf:about="">
        <dc:format>image/svg+xml</dc:format>
        <dc:type
           rdf:resource="http://purl.org/dc/dcmitype/StillImage" />
      </cc:Work>
    </rdf:RDF>
  </metadata>
  <defs
     id="defs4">
    <style
       id="style2"
       type="text/css"><![CDATA[    
     @font-face {font-family:TypographerGotisch C;
     src: url('/Users/francesco/Repos/write-logos/src/fonts/TypographerGotischC.ttf');}
     @font-face {font-family:Pamela;
     src: url('/Users/francesco/Repos/write-logos/src/fonts/Pamela.ttf');}
     ]]></style>
  </defs>
  <g
     id="g14"
     style="font-size:30px">
    <g
       style="text-anchor:middle"
       id="text12"
       aria-label="eXtemporanea">
      <path
         id="path22"
         style="font-family:'TypographerGotisch C'"
         d="m 172.97148,96.64 v -0.18 q -0.42,0 -1.17,0.39 -0.75,0.39 -1.23,0.39 -2.52,0 -3.33,-1.26 -0.63,-0.96 -0.63,-3.66 v -0.96 q 0.03,-0.18 1.53,-1.41 1.41,-1.17 1.83,-1.44 2.1,-1.44 2.67,-2.1 v -0.03 q 0,0.03 -0.12,-0.06 -0.09,-0.12 -0.33,-0.33 -0.21,-0.21 -0.54,-0.54 -1.05,-1.11 -1.44,-1.56 l -0.03,-0.03 q -0.03,-0.03 -0.06,-0.09 -0.03,-0.06 -0.09,-0.12 -0.03,-0.09 -0.12,-0.18 -0.06,-0.12 -0.12,-0.24 -0.27,-0.45 -0.51,-0.51 h -0.42 q -2.94,1.38 -4.68,2.7 -0.81,0.6 -0.93,2.04 v 2.43 0.06 q 0,0.51 0.03,1.32 0,0.36 0,0.69 0.03,0.3 0.03,0.48 0.03,0.15 0.03,0.18 v 3.18 q 0.36,1.02 0.57,1.68 0.63,1.05 2.34,1.77 1.35,0.57 2.88,0.75 h 0.15 q 0.51,-0.57 1.59,-1.38 1.2,-0.93 1.56,-1.35 0.39,-0.51 0.54,-0.63 z m -3.6,-8.79 q -0.63,0.75 -2.61,2.16 -0.15,-0.09 -0.15,-0.24 v -4.62 q 0,-0.42 0.21,-0.42 0.27,0 0.63,0.75 l 1.83,2.1 q 0.06,0.06 0.09,0.18 z" />
      <path
         id="path24"
         style="font-family:Pamela"
         d="m 196.74742,87.76 q 0,-0.48 -0.69,-1.8 0.33,-0.24 0.42,-0.93 0.03,-0.15 -0.06,-0.21 -0.06,-0.03 -0.27,0.09 -0.18,0.09 -0.39,0.09 -0.15,0 -0.6,-0.15 -0.42,-0.18 -0.66,-0.18 -0.21,0 -0.54,0.12 -0.03,-0.09 -0.03,-0.3 0,-0.27 0.09,-0.69 0.15,-0.69 0.39,-0.87 0.27,0.39 0.51,0.39 0.78,0 0.78,-1.02 0,-0.48 -0.21,-0.93 1.14,-1.38 1.14,-2.61 0,-0.66 -0.36,-1.17 -0.36,-0.54 -0.99,-0.54 -0.24,0 -0.63,0.21 -0.39,0.18 -0.6,0.18 -0.24,0 -1.17,-0.54 -0.96,-0.54 -1.74,-0.54 -1.74,0 -3.6,2.22 l -1.44,-1.74 q -0.36,-0.45 -0.69,0 -0.57,0.66 -1.14,0.66 -0.48,0 -1.95,-0.54 -1.5,-0.54 -2.49,-0.54 -2.49,0 -4.02,1.77 -1.53,1.77 -1.53,4.29 0,2.13 1.17,3.6 1.26,1.62 3.33,1.62 0.75,0 1.77,-0.24 v 1.89 q -0.15,-0.12 -0.39,-0.21 -0.24,-0.09 -0.54,-0.21 -0.42,-0.54 -0.9,-0.54 -0.33,0 -0.63,0.15 -0.27,-0.33 -1.74,-0.84 -1.17,-0.42 -1.35,-1.2 -0.06,-0.06 -0.12,-0.06 -0.03,0 -0.09,0.06 -0.03,0.15 -0.06,0.27 0,0.12 0,0.24 0,0.57 0.51,1.32 0.54,0.72 0.54,0.78 0,0 -0.15,0.24 -0.12,0.21 -0.39,0.69 -0.54,0.9 -0.54,1.68 0,1.83 1.47,2.91 -0.03,0.09 -0.03,0.21 0,0.45 0.78,0.99 0.3,0.21 0.3,0.87 0,0.72 -0.39,1.2 -0.45,0.57 -1.11,0.54 l 0.24,0.36 q -0.39,0.69 -0.39,1.14 0,0.57 0.36,0.99 0.36,0.42 0.96,0.42 0.66,0 1.02,-0.6 0.57,0.42 1.23,0.39 0.66,-0.06 0.96,-0.3 0.12,-0.06 0.06,-0.18 -0.09,-0.06 -0.21,0.03 -0.39,0.24 -0.87,0.24 -0.57,0 -1.05,-0.39 0.03,-0.06 0.03,-0.51 0,-0.51 -0.45,-0.51 -0.36,0 -0.36,0.39 0,0.39 0.39,0.6 -0.24,0.63 -0.81,0.63 -0.42,0 -0.72,-0.42 -0.3,-0.39 -0.3,-0.78 0,-0.33 0.78,-1.26 0.81,-0.99 0.84,-1.47 0.09,-0.78 -0.09,-1.59 0.42,-0.18 0.57,-0.81 1.71,-0.75 1.71,-1.92 0,-0.36 -0.39,-0.81 -0.36,-0.45 -0.72,-0.63 -0.06,-0.03 -0.12,0.03 0,0.12 0.09,0.15 0.84,0.48 0.84,1.35 0,0.21 -0.12,0.45 -0.12,0.24 -0.3,0.45 -0.18,0.21 -0.39,0.36 -0.21,0.12 -0.39,0.12 -0.09,0 -0.36,-0.24 -0.24,-0.27 -0.48,-0.27 -0.69,0 -0.96,0.54 -1.26,-0.75 -1.26,-2.13 0,-0.9 1.23,-1.59 1.92,-1.05 1.98,-1.11 0.18,0.18 0.42,0.18 0.42,0 0.87,-0.45 2.37,0.84 2.37,2.97 0,0.18 -0.03,0.36 0,0.18 -0.03,0.39 -0.27,-0.09 -0.51,-0.09 -0.45,0 -0.78,0.3 -0.33,0.3 -0.33,0.72 0,0.69 0.87,0.69 1.17,0 1.17,-2.07 0,-0.84 -0.27,-1.56 h 1.59 q 0.36,0 0.24,0.27 l -0.99,1.71 q -1.68,2.88 -5.13,3.81 -0.06,0.03 -0.09,0.06 0,0.03 -0.03,0.06 -0.15,0.63 -0.03,1.02 0.33,1.17 0.81,1.2 1.83,0.18 3.27,2.1 0.36,0.48 0.87,0.03 0.84,-0.75 2.16,-1.32 0.75,-0.33 1.35,-0.51 0.6,-0.21 1.11,-0.24 0.69,-0.06 0.51,-0.72 l -0.36,-1.41 q -0.15,-0.48 -0.9,-0.81 -0.42,-0.15 -0.42,-0.6 0,-0.24 0.12,-0.39 l 1.02,-1.5 2.82,5.55 q 0.21,0.39 0.48,0.75 0.27,0.39 0.6,0.72 0.84,0.84 1.59,0.84 1.35,0 2.61,-2.37 0.51,-1.02 0.87,-2.01 0.36,-1.02 0.51,-2.07 0.09,-0.57 -0.12,-0.87 l -0.81,-1.5 q -0.12,-0.3 -0.57,-0.3 -0.36,0 -0.6,0.24 l -0.45,0.48 q -0.06,0.06 -0.15,0.06 -0.12,0 -0.18,-0.06 l -0.99,-2.16 h 1.68 q 0.09,0 0.15,-0.09 0.27,-0.66 0.27,-1.56 0,-1.32 -0.48,-2.73 2.04,0.72 2.04,1.29 0,0.42 -0.54,1.32 0.48,0.48 0.54,1.02 0,0.15 0.09,0.15 0.06,0 0.12,-0.15 0.06,-0.15 0.06,-0.3 0,-0.36 -0.42,-0.78 0.51,-0.69 0.51,-1.47 z m -2.85,-4.77 q -0.42,1.02 -0.3,2.49 h -2.16 l 1.38,-2.07 q 0.45,-0.18 0.9,-0.45 h 0.09 q 0.03,0.03 0.09,0.03 z m -5.31,-1.17 q 0.21,0 0.24,0.12 0.03,0.12 0.03,0.21 0,0.24 -0.33,0.48 l -0.39,-0.72 q 0.27,-0.09 0.45,-0.09 z m 7.74,-3.06 q 0,1.26 -1.23,2.67 -1.17,1.26 -2.46,1.71 l -1.59,2.4 q -0.15,0.24 0.12,0.24 h 2.46 l 0.09,0.12 q 0.81,1.68 0.81,3.42 0,0.81 -0.24,1.44 h -1.77 l -0.18,0.21 1.11,2.37 q 0.15,0.24 0.39,0.27 0.27,0 0.45,-0.21 l 0.42,-0.48 q 0.15,-0.15 0.39,-0.15 0.24,-0.06 0.33,0.15 l 0.81,1.53 q 0.12,0.18 0.06,0.66 -0.15,0.96 -0.48,1.95 -0.33,0.99 -0.81,1.95 -1.14,2.31 -2.4,2.31 -0.66,0 -1.44,-0.78 -0.6,-0.57 -0.99,-1.35 l -2.94,-5.76 q -0.12,-0.18 -0.24,-0.03 l -1.14,1.65 q -0.18,0.27 -0.18,0.57 0,0.6 0.63,0.9 0.66,0.33 0.69,0.6 l 0.36,1.41 q 0.09,0.33 -0.21,0.36 -1.14,0.09 -2.52,0.72 -1.32,0.6 -2.28,1.41 -0.33,0.24 -0.45,0.03 -1.5,-2.04 -3.51,-2.22 -0.39,-0.06 -0.51,-0.96 -0.03,-0.09 -0.03,-0.36 0,-0.3 0.03,-0.45 3.57,-1.02 5.22,-3.9 l 0.99,-1.74 q 0.03,-0.03 0.03,-0.15 0,-0.57 -0.51,-0.57 h -1.74 q -0.36,-0.69 -1.02,-1.17 v -2.25 q 0,-0.18 -0.18,-0.15 -1.23,0.27 -1.89,0.27 -1.95,0 -3.12,-1.53 -1.08,-1.38 -1.08,-3.39 0,-2.4 1.44,-4.08 1.44,-1.68 3.81,-1.68 0.99,0 2.49,0.54 1.47,0.54 1.95,0.54 0.66,0 1.38,-0.78 0.06,-0.06 0.09,-0.06 0.06,0 0.12,0.06 l 1.5,1.8 q -0.36,0.45 -0.63,0.9 -0.03,0.03 -0.03,0.06 0,0.06 0.03,0.09 l 1.65,3.03 q 0.03,0.15 0.18,0.09 0.24,-0.12 0.42,-0.48 0.21,-0.39 0.15,-0.66 -0.15,-0.27 -0.84,-0.27 -0.24,0 -0.33,0.03 l -0.96,-1.77 q 2.01,-3.18 4.14,-3.18 0.78,0 1.74,0.54 0.93,0.54 1.17,0.54 0.21,0 0.6,-0.18 0.39,-0.21 0.63,-0.21 0.48,0 0.75,0.45 0.3,0.45 0.3,0.96 z m -12.66,6.63 q -0.03,-0.36 -0.66,-1.08 -0.57,-0.48 -1.68,-0.57 l -0.72,-1.38 q -1.05,-0.66 -1.92,-0.66 -0.66,0 -1.14,0.45 -0.45,0.42 -0.51,1.05 -0.03,0.39 0.12,0.75 0.15,0.33 0.42,0.57 0.3,0.24 0.66,0.39 0.39,0.15 0.78,0.15 1.14,0 2.19,-0.96 l 0.84,1.65 q 0.39,0.27 1.11,0.18 0.57,-0.03 0.51,-0.54 z m 11.7,-7.11 q 0.06,-0.24 -0.15,-0.27 -0.21,-0.09 -0.33,0.09 -0.3,0.48 -0.63,0.48 -0.3,0 -1.2,-0.63 -0.87,-0.66 -1.77,-0.66 -1.62,0 -3.54,2.46 -0.12,0.12 -0.12,0.27 0,0.3 0.45,0.21 0.09,-0.03 0.33,-0.03 0.57,0 2.13,1.2 l -2.07,3.69 -2.28,-4.59 q -0.54,-1.08 -0.54,-1.77 0,-0.18 0.03,-0.24 0.09,-0.3 -0.12,-0.33 -0.18,-0.09 -0.42,0.06 -0.66,0.39 -0.96,0.39 -0.39,0 -1.83,-0.63 -1.35,-0.66 -2.25,-0.66 -2.04,0 -3.51,1.53 -1.5,1.5 -1.5,3.51 0,0.81 0.24,1.53 0.24,0.72 0.66,1.26 0.45,0.54 1.08,0.84 0.66,0.3 1.47,0.3 0.6,0 1.5,-0.27 1.14,-0.33 1.14,-0.84 0,-0.15 -0.21,-0.15 -0.09,0 -0.93,0.36 -0.9,0.33 -1.35,0.33 -1.26,0 -2.07,-0.84 -0.78,-0.84 -0.78,-2.1 0,-0.93 0.42,-1.59 0.51,-0.78 1.38,-0.78 0.42,0 1.71,0.6 1.26,0.57 2.16,0.57 2.22,0 3.78,-2.28 0.06,0.63 0.45,1.47 l 2.4,4.89 q -0.24,0.42 -0.39,0.69 -0.15,0.27 -0.24,0.42 h -0.09 q -0.63,-1.35 -1.11,-2.34 -0.48,-1.02 -0.81,-1.71 -0.24,-0.51 -0.39,-0.93 -0.15,-0.42 -0.18,-0.72 0.06,-0.18 -0.12,-0.24 -0.15,-0.06 -0.3,0.09 -1.41,1.41 -2.7,1.53 -0.15,0.03 -0.21,0.18 0,0.21 0.18,0.24 0.33,0.12 0.6,0.18 0.27,0.06 0.45,0.12 0.66,0.24 0.87,0.72 l 1.35,2.88 h -3.18 v 2.13 h 4.2 l 0.12,0.24 -2.19,3.93 q -0.87,1.56 -2.19,2.7 -1.47,1.29 -3.03,1.62 -0.15,0.06 -0.15,0.15 0,0.15 0.15,0.21 1.59,0.69 2.85,2.22 0.18,0.21 0.48,0 2.07,-1.56 4.29,-2.25 0.21,-0.03 0.21,-0.27 0,-0.24 -0.21,-0.27 -1.89,-0.48 -1.89,-1.83 0,-0.57 0.45,-1.44 l 1.86,-3.42 3.12,6.57 q 0.45,0.93 0.75,1.5 0.3,0.57 0.45,0.81 0.51,0.69 1.26,0.69 1.77,0 2.73,-5.49 0.03,-0.39 -0.33,-0.39 -0.21,0 -0.24,0.12 -0.15,0.33 -0.42,0.6 -0.27,0.24 -0.6,0.45 l -3.18,-6.45 h 2.85 v -2.13 h -3.93 q -0.15,-0.36 -0.18,-0.39 l 2.55,-4.62 q 1.38,-0.03 2.4,-1.11 0.96,-0.96 1.32,-2.37 z m -2.37,17.31 q -0.09,0.03 -0.33,0.03 -1.02,0 -2.01,-2.1 l -2.55,-5.34 0.66,-1.2 z m -9.63,-10.14 q 0.03,0.15 -0.27,0.18 -0.45,0.09 -0.87,-0.15 l -0.72,-1.41 q 1.74,0.33 1.86,1.38 z m -2.31,-1.62 q -0.96,0.93 -2.04,0.93 -0.66,0 -1.2,-0.42 -0.54,-0.45 -0.48,-1.11 0.15,-1.23 1.35,-1.23 0.72,0 1.71,0.54 z" />
      <path
         id="path26"
         style="font-family:'TypographerGotisch C'"
         d="m 206.69055,84.67 q 0,-0.36 -0.45,-0.36 h -2.94 l -0.15,-0.21 V 82 q 0,-0.21 -0.27,-0.21 -0.36,0 -1.29,0.99 -0.48,0.51 -1.23,1.38 -2.1,2.19 -2.1,2.28 v 0.06 q 0,0.21 0.99,0.21 0.45,0 0.51,-0.03 0.27,0.09 0.27,0.69 v 0.09 q 0,1.14 0.09,2.85 0.09,1.71 0.09,2.19 0,1.53 -0.03,1.59 v 1.08 q 0,2.04 -0.84,2.88 v 0.15 q 0.36,0.15 1.02,0.51 0.66,0.33 1.02,0.51 l 1.68,0.84 q 0.3,0 1.29,-1.11 0.99,-1.14 0.99,-1.56 0,-0.24 -0.99,-0.6 -1.05,-0.39 -1.29,-0.69 v -0.42 q 0,-0.18 -0.06,-1.62 -0.03,-0.72 -0.03,-1.62 0,-1.29 0.03,-2.31 0.06,-2.04 0.06,-2.28 v -0.57 q 0,-0.36 0.24,-0.51 h 0.48 q 0.12,0 0.54,0.06 0.42,0.03 0.54,0.03 0.3,0 1.08,-0.96 0.75,-0.93 0.75,-1.23 z" />
      <path
         id="path28"
         style="font-family:'TypographerGotisch C'"
         d="m 218.49883,96.64 v -0.18 q -0.42,0 -1.17,0.39 -0.75,0.39 -1.23,0.39 -2.52,0 -3.33,-1.26 -0.63,-0.96 -0.63,-3.66 v -0.96 q 0.03,-0.18 1.53,-1.41 1.41,-1.17 1.83,-1.44 2.1,-1.44 2.67,-2.1 v -0.03 q 0,0.03 -0.12,-0.06 -0.09,-0.12 -0.33,-0.33 -0.21,-0.21 -0.54,-0.54 -1.05,-1.11 -1.44,-1.56 l -0.03,-0.03 q -0.03,-0.03 -0.06,-0.09 -0.03,-0.06 -0.09,-0.12 -0.03,-0.09 -0.12,-0.18 -0.06,-0.12 -0.12,-0.24 -0.27,-0.45 -0.51,-0.51 h -0.42 q -2.94,1.38 -4.68,2.7 -0.81,0.6 -0.93,2.04 v 2.43 0.06 q 0,0.51 0.03,1.32 0,0.36 0,0.69 0.03,0.3 0.03,0.48 0.03,0.15 0.03,0.18 v 3.18 q 0.36,1.02 0.57,1.68 0.63,1.05 2.34,1.77 1.35,0.57 2.88,0.75 h 0.15 q 0.51,-0.57 1.59,-1.38 1.2,-0.93 1.56,-1.35 0.39,-0.51 0.54,-0.63 z m -3.6,-8.79 q -0.63,0.75 -2.61,2.16 -0.15,-0.09 -0.15,-0.24 v -4.62 q 0,-0.42 0.21,-0.42 0.27,0 0.63,0.75 l 1.83,2.1 q 0.06,0.06 0.09,0.18 z" />
      <path
         id="path30"
         style="font-family:'TypographerGotisch C'"
         d="m 241.64477,98.17 q 0,-0.27 -0.18,-0.33 -0.99,-0.36 -1.35,-0.57 -0.42,-0.36 -0.42,-1.23 0,-3.06 0.09,-7.68 0.06,-1.26 0.33,-2.37 0,-0.06 0.21,-0.33 0.21,-0.3 0.21,-0.42 0,-0.27 -1.56,-0.66 -1.53,-0.39 -2.04,-0.51 -0.03,0 -0.3,-0.12 -0.24,-0.12 -0.39,-0.18 -0.51,-0.21 -0.75,-0.21 -0.48,0 -2.34,1.59 h -0.27 q -0.27,-0.39 -1.08,-0.72 l -1.26,-0.45 q -1.11,-0.54 -1.17,-0.6 h -0.42 q -0.12,0 -1.5,0.93 -1.38,0.93 -1.5,0.93 h -0.03 q -0.06,-0.03 -0.12,-0.09 v -0.93 q -0.21,-0.03 -1.2,-0.57 -0.87,-0.51 -1.32,-0.51 h -0.12 q -0.06,0 -0.36,0.21 -0.27,0.21 -0.33,0.21 -1.92,1.47 -1.92,1.8 0,0.21 0.9,0.57 0.93,0.36 1.02,0.75 0.09,0.63 0.09,1.41 V 91 q 0,3.42 -0.15,6.42 l -0.06,0.06 q -0.06,0.09 -0.15,0.21 -0.09,0.09 -0.21,0.21 -0.27,0.3 -0.27,0.57 0,0.18 1.32,0.96 1.29,0.75 1.71,0.75 h 0.24 l 1.14,-1.02 q 0.72,-0.69 1.05,-1.08 V 97.9 q 0,-0.3 -0.66,-0.66 -0.84,-0.45 -0.93,-0.6 v -1.59 q 0,-1.68 0.03,-3.03 0.06,-2.7 0.06,-3.06 v -0.78 q 0.06,-0.45 0.18,-1.41 0.09,-0.75 0.81,-1.02 h 0.18 q 0.3,0 1.47,0.48 1.2,0.48 1.2,0.6 0.06,0.57 0.12,1.77 v 1.38 2.01 q 0,3.42 -0.12,5.07 0,0.21 -0.39,0.69 -0.36,0.48 -0.36,0.72 0,0.33 0.75,0.45 l 2.1,1.08 q 0.03,0.03 0.12,0.03 0.21,0 0.36,-0.06 0.18,-0.06 0.36,-0.24 0.18,-0.18 0.27,-0.27 0.09,-0.09 0.3,-0.36 0.24,-0.3 0.27,-0.36 0.84,-0.84 0.84,-0.99 0,-0.24 -0.75,-0.54 -0.75,-0.3 -0.75,-0.48 V 89.2 q 0,-0.81 0.09,-1.35 v -0.27 q -0.03,-0.15 -0.03,-0.36 0,-1.23 0.69,-1.23 0.33,0 0.78,0.21 0.54,0.24 0.81,0.3 1.44,0.3 1.59,0.54 0.03,0.27 0.09,0.87 0.06,0.6 0.09,0.87 v 2.16 q 0,0.27 -0.06,2.61 -0.03,1.17 -0.03,2.61 v 1.56 q 0,0.87 0.87,1.68 0.87,0.78 1.74,0.78 0.48,0 2.34,-1.86 0.03,-0.06 0.03,-0.15 z" />
      <path
         id="path32"
         style="font-family:'TypographerGotisch C'"
         d="m 256.83789,91 v -3.93 q 0,-1.5 -1.38,-2.49 -1.29,-0.87 -2.82,-0.87 -0.36,0 -1.74,1.05 -1.38,1.05 -1.53,1.05 -0.09,0 -0.27,-0.48 -0.18,-0.51 -0.21,-0.54 -0.3,-0.36 -0.96,-0.72 -0.63,-0.36 -0.99,-0.36 h -0.09 q -0.06,0.03 -1.08,0.69 -0.42,0.21 -0.9,0.57 -0.69,0.51 -0.69,0.72 0,0.18 0.72,0.66 0.69,0.45 0.87,0.63 0.27,0.36 0.27,3.45 0,0.6 -0.06,2.94 -0.03,1.17 -0.03,2.76 v 0.09 q 0,0.09 0.03,0.15 v 0.15 q 0,0.09 -0.12,0.21 -0.84,0.6 -2.1,2.01 v 0.06 q 0,0.24 0.78,0.33 1.11,0.15 1.23,0.18 l 0.09,0.09 v 2.01 q -0.21,0.33 -0.21,1.14 0,0.27 0.03,0.48 v 0.45 0.78 q 0.03,0.09 0.18,0.09 h 0.24 q 1.17,-0.66 2.31,-1.47 0.54,-0.36 0.54,-0.96 0.09,-0.99 0.09,-2.1 0.03,-0.09 0.18,-0.09 h 0.15 q 0.36,0 1.2,0.15 0.69,0.12 1.17,0.12 0.39,0 1.8,-1.32 2.43,-2.34 2.46,-2.37 0.42,-0.6 0.42,-0.93 0.33,-3.12 0.33,-3.6 v -0.27 q 0.09,-0.18 0.09,-0.51 z m -2.85,-0.48 v 0.09 q -0.03,0.09 -0.06,0.24 0,0.15 0,0.33 -0.03,0.39 -0.03,0.66 v 4.11 q -0.06,0.18 -0.15,0.51 -0.06,0.3 -0.09,0.42 -0.21,0.75 -0.81,0.75 -1.05,0 -3.54,-0.48 -0.18,-0.15 -0.18,-0.27 l 0.03,-6.12 q 0,-0.18 -0.03,-0.93 -0.03,-0.75 -0.03,-0.99 0,-1.53 0.69,-2.37 0.21,-0.18 0.39,-0.39 0.12,-0.12 0.39,-0.12 0.78,0 2.13,0.51 1.29,0.48 1.29,3.84 z" />
      <path
         id="path34"
         style="font-family:'TypographerGotisch C'"
         d="m 270.74664,90.19 v -1.35 q 0,-1.98 -0.39,-2.85 -0.51,-1.17 -2.04,-1.92 -1.32,-0.84 -1.92,-1.11 h -0.33 l -0.39,0.18 -0.66,0.24 q -0.66,0.24 -0.72,0.27 -0.69,0.36 -1.02,0.51 -0.75,0.36 -3.09,1.32 l -0.42,0.42 v 0.12 q 0,0.78 0.09,2.25 0.09,1.5 0.09,2.22 0,3.39 -0.09,6.51 0,0.42 -0.18,0.66 -0.03,0.09 -0.42,0.57 v 0.15 q 0,0.3 0.99,0.51 1.11,0.21 1.71,0.36 1.32,0.33 2.67,0.84 h 0.18 q 0.15,-0.03 0.33,-0.09 1.47,-1.11 2.52,-1.83 1.92,-1.59 2.76,-3.69 0.33,-1.65 0.33,-4.29 z m -3,1.77 q 0,2.4 -0.09,3.15 -0.24,1.89 -1.11,2.55 h -0.27 q -0.6,0 -1.8,-0.36 -1.38,-0.42 -1.53,-0.81 v -5.46 l 0.06,-1.8 q 0.03,-1.08 0.03,-1.8 V 86.5 q 0,-1.35 0.42,-1.35 0.21,0 1.59,0.51 2.49,0.96 2.7,3.51 z" />
      <path
         id="path36"
         style="font-family:'TypographerGotisch C'"
         d="m 283.34945,96.64 q 0,-0.18 -0.21,-0.18 -0.3,0 -0.75,0.48 -0.45,0.48 -0.75,0.48 -0.39,0 -1.74,-0.42 -1.26,-0.42 -1.5,-0.78 0,-0.12 -0.03,-0.42 0,-0.33 -0.03,-0.96 0,-0.66 0,-1.29 -0.03,-1.53 -0.03,-2.7 v -0.09 q 0.12,-0.24 0.12,-2.04 v -0.84 q -0.03,-0.33 -0.03,-0.54 0,-0.09 0.27,-0.39 0.3,-0.3 0.48,-0.39 0.27,0 0.78,1.14 0.51,1.14 0.75,1.14 h 0.33 q 1.17,-0.9 1.92,-1.83 v -0.15 q 0,-0.39 -0.57,-1.65 -0.69,-1.41 -1.05,-1.41 -0.21,0 -0.63,0.33 -0.39,0.33 -0.42,0.36 -1.17,0.99 -1.68,1.5 h -0.06 q -0.12,0 -0.24,-0.27 l -0.12,-0.39 q -1.08,-1.53 -2.4,-1.53 -0.51,0 -1.62,1.11 -0.63,0.33 -0.63,0.78 0,0.21 0.87,0.81 0.87,0.6 1.02,0.93 0,0.03 0.15,0.39 v 0.48 q -0.03,0.24 -0.03,0.54 0,1.44 0.12,2.19 v 5.52 q 0,0.45 -0.09,0.93 0,0.09 -0.21,0.42 -0.21,0.3 -0.21,0.42 0,0.33 0.27,0.42 0.57,0.18 1.47,0.48 0.9,0.27 1.2,0.36 1.41,0.42 1.77,0.42 0.48,0 1.98,-1.53 1.53,-1.53 1.53,-1.83 z" />
      <path
         id="path38"
         style="font-family:'TypographerGotisch C'"
         d="m 296.16508,98.08 v -0.06 q -0.03,0 -0.03,-0.03 -1.38,-0.93 -1.65,-2.04 -0.21,-0.81 -0.21,-4.8 0,-0.87 0.03,-2.34 0.06,-1.5 0.06,-1.89 0.15,-1.14 0.69,-1.68 v -0.12 q 0,-0.09 -0.06,-0.18 -0.06,-0.09 -0.21,-0.12 -0.12,-0.06 -0.24,-0.09 -0.09,-0.03 -0.3,-0.06 -0.18,-0.06 -0.27,-0.09 -0.51,-0.27 -0.51,-0.33 -0.18,-0.09 -0.6,-0.09 -0.03,0 -0.15,-0.06 -0.12,-0.06 -0.39,-0.18 -0.24,-0.12 -0.54,-0.24 -0.75,-0.36 -1.11,-0.36 -0.48,0 -1.5,0.66 -1.89,1.2 -2.64,1.89 -1.38,1.29 -1.38,2.82 v 6.03 q 0,4.35 3.18,5.28 h 0.09 q 0.33,0 0.84,-0.54 0.12,-0.15 0.33,-0.42 0.21,-0.27 0.33,-0.39 1.26,-1.32 1.53,-1.32 0.12,0 0.15,0.09 v 0.09 q 0,0.81 1.08,1.62 0.24,0.18 0.69,0.48 0.45,0.3 0.66,0.48 h 0.18 q 0.39,-0.33 1.11,-0.99 0.84,-0.75 0.84,-1.02 z m -4.56,-2.19 q 0,0.36 -0.69,0.9 -0.66,0.54 -0.99,0.54 -0.33,0 -0.75,-0.33 -1.35,-1.17 -1.35,-3.78 v -5.37 q 0,-0.12 0.21,-1.2 0.12,-0.9 0.63,-0.9 0.42,0 1.41,0.42 0.21,0.09 0.66,0.33 0.48,0.24 0.72,0.33 0.15,0.06 0.15,0.42 z" />
      <path
         id="path40"
         style="font-family:'TypographerGotisch C'"
         d="m 312.14008,97.78 v -0.03 q 0,-0.36 -0.96,-0.69 -0.96,-0.36 -0.96,-0.78 0,-5.37 0.33,-10.26 0,-0.12 0.21,-0.63 0.21,-0.54 0.21,-0.72 v -0.15 q -0.57,-0.15 -2.28,-0.69 -0.21,-0.06 -0.6,-0.24 -0.39,-0.18 -0.6,-0.24 -0.75,-0.27 -1.26,-0.27 -0.42,0 -1.38,0.66 -0.6,0.45 -1.29,0.93 -0.06,-0.03 -0.18,-0.24 -0.09,-0.21 -0.15,-0.24 -0.24,-0.18 -1.23,-0.57 -0.81,-0.39 -1.11,-0.39 -0.39,0 -1.5,0.93 -1.11,0.93 -1.11,1.23 v 0.06 q 0,0.03 0.03,0.03 0.03,0 0.06,0.03 0.06,0.03 0.24,0.09 0.18,0.06 0.24,0.09 0.09,0.03 0.24,0.12 0.18,0.06 0.24,0.12 0.06,0.03 0.18,0.12 0.15,0.06 0.21,0.12 0.06,0.06 0.15,0.18 0.09,0.09 0.12,0.21 0.03,0.09 0.06,0.21 v 6.72 q 0,2.49 -0.09,3.72 0,0.15 -0.21,0.57 -0.21,0.42 -0.21,0.51 0,0.27 1.38,1.02 1.29,0.75 1.47,0.75 h 0.15 q 0.18,0 0.27,-0.09 l 1.86,-1.83 q 0.09,-0.12 0.09,-0.27 0,-0.27 -0.69,-0.6 -0.81,-0.42 -0.84,-0.48 -0.09,-0.81 -0.09,-2.1 0,-1.29 0.09,-3.84 0.09,-2.55 0.09,-3.87 v -0.96 q 0,-0.6 0.81,-0.6 0.54,0.09 1.38,0.39 0.6,0.18 1.32,0.42 0.45,0.15 0.45,0.87 v 4.74 q 0,3.96 -0.27,6.36 v 0.09 q 0,0.18 0.6,0.51 0.18,0.09 0.51,0.24 0.36,0.15 0.42,0.18 1.05,0.78 1.38,0.78 0.27,0 1.17,-0.96 0.66,-0.69 1.05,-1.26 z" />
      <path
         id="path42"
         style="font-family:'TypographerGotisch C'"
         d="m 323.96758,96.64 v -0.18 q -0.42,0 -1.17,0.39 -0.75,0.39 -1.23,0.39 -2.52,0 -3.33,-1.26 -0.63,-0.96 -0.63,-3.66 v -0.96 q 0.03,-0.18 1.53,-1.41 1.41,-1.17 1.83,-1.44 2.1,-1.44 2.67,-2.1 v -0.03 q 0,0.03 -0.12,-0.06 -0.09,-0.12 -0.33,-0.33 -0.21,-0.21 -0.54,-0.54 -1.05,-1.11 -1.44,-1.56 l -0.03,-0.03 q -0.03,-0.03 -0.06,-0.09 -0.03,-0.06 -0.09,-0.12 -0.03,-0.09 -0.12,-0.18 -0.06,-0.12 -0.12,-0.24 -0.27,-0.45 -0.51,-0.51 h -0.42 q -2.94,1.38 -4.68,2.7 -0.81,0.6 -0.93,2.04 v 2.43 0.06 q 0,0.51 0.03,1.32 0,0.36 0,0.69 0.03,0.3 0.03,0.48 0.03,0.15 0.03,0.18 v 3.18 q 0.36,1.02 0.57,1.68 0.63,1.05 2.34,1.77 1.35,0.57 2.88,0.75 h 0.15 q 0.51,-0.57 1.59,-1.38 1.2,-0.93 1.56,-1.35 0.39,-0.51 0.54,-0.63 z m -3.6,-8.79 q -0.63,0.75 -2.61,2.16 -0.15,-0.09 -0.15,-0.24 v -4.62 q 0,-0.42 0.21,-0.42 0.27,0 0.63,0.75 l 1.83,2.1 q 0.06,0.06 0.09,0.18 z" />
      <path
         id="path44"
         style="font-family:'TypographerGotisch C'"
         d="m 337.06352,98.08 v -0.06 q -0.03,0 -0.03,-0.03 -1.38,-0.93 -1.65,-2.04 -0.21,-0.81 -0.21,-4.8 0,-0.87 0.03,-2.34 0.06,-1.5 0.06,-1.89 0.15,-1.14 0.69,-1.68 v -0.12 q 0,-0.09 -0.06,-0.18 -0.06,-0.09 -0.21,-0.12 -0.12,-0.06 -0.24,-0.09 -0.09,-0.03 -0.3,-0.06 -0.18,-0.06 -0.27,-0.09 -0.51,-0.27 -0.51,-0.33 -0.18,-0.09 -0.6,-0.09 -0.03,0 -0.15,-0.06 -0.12,-0.06 -0.39,-0.18 -0.24,-0.12 -0.54,-0.24 -0.75,-0.36 -1.11,-0.36 -0.48,0 -1.5,0.66 -1.89,1.2 -2.64,1.89 -1.38,1.29 -1.38,2.82 v 6.03 q 0,4.35 3.18,5.28 h 0.09 q 0.33,0 0.84,-0.54 0.12,-0.15 0.33,-0.42 0.21,-0.27 0.33,-0.39 1.26,-1.32 1.53,-1.32 0.12,0 0.15,0.09 v 0.09 q 0,0.81 1.08,1.62 0.24,0.18 0.69,0.48 0.45,0.3 0.66,0.48 h 0.18 q 0.39,-0.33 1.11,-0.99 0.84,-0.75 0.84,-1.02 z m -4.56,-2.19 q 0,0.36 -0.69,0.9 -0.66,0.54 -0.99,0.54 -0.33,0 -0.75,-0.33 -1.35,-1.17 -1.35,-3.78 v -5.37 q 0,-0.12 0.21,-1.2 0.12,-0.9 0.63,-0.9 0.42,0 1.41,0.42 0.21,0.09 0.66,0.33 0.48,0.24 0.72,0.33 0.15,0.06 0.15,0.42 z" />
    </g>
  </g>
</svg>
