<?xml version="1.0" encoding="UTF-8" standalone="no"?>
<svg
   xmlns:dc="http://purl.org/dc/elements/1.1/"
   xmlns:cc="http://creativecommons.org/ns#"
   xmlns:rdf="http://www.w3.org/1999/02/22-rdf-syntax-ns#"
   xmlns:svg="http://www.w3.org/2000/svg"
   xmlns="http://www.w3.org/2000/svg"
   id="svg10"
   width="500px"
   version="1.1"
   height="200px">
  <metadata
     id="metadata14">
    <rdf:RDF>
      <cc:Work
         rdf:about="">
        <dc:format>image/svg+xml</dc:format>
        <dc:type
           rdf:resource="http://purl.org/dc/dcmitype/StillImage" />
      </cc:Work>
    </rdf:RDF>
  </metadata>
  <defs
     id="defs4">
    <style
       id="style2"
       type="text/css"><![CDATA[    
     @font-face {font-family:TypographerGotisch Schmuck;
     src: url('/Users/francesco/Repos/write-logos/src/fonts//TypographerGotischSchmuck-Bold.ttf');}]]></style>
  </defs>
  <g
     id="g8"
     style="font-size:30px;font-family:'TypographerGotisch Schmuck'">
    <g
       style=""
       id="text6"
       aria-label="eXtemporanea">
      <path
         id="path16"
         style=""
         d="m 104.92,89.56 v -4.14 q 0.06,0.06 0.18,0.39 l 1.74,2.1 q -0.45,0.51 -1.92,1.65 z m 5.94,6.96 v -0.57 q -0.81,0 -1.53,0.42 -0.72,0.33 -1.02,0.33 -2.19,0 -2.85,-1.05 -0.54,-0.78 -0.54,-3.36 v -0.87 q 0.03,-0.06 1.32,-1.17 1.17,-1.02 1.68,-1.38 2.01,-1.44 2.64,-2.16 v -0.15 h -0.63 q 0,-0.75 -0.39,-1.11 -0.3,-0.33 -0.81,-0.9 -0.51,-0.57 -0.66,-0.75 0.09,0.09 0.09,0.06 v -0.03 q -0.03,-0.06 -0.15,-0.18 -0.12,-0.15 -0.18,-0.27 -0.33,-0.6 -0.66,-0.66 h -0.54 q -2.82,1.38 -4.5,2.67 -0.87,0.66 -0.99,2.19 v 2.43 q 0,0.51 0.03,1.29 0.06,0.9 0.06,1.02 v 3.36 q 0.12,0.33 0.21,0.63 0.12,0.3 0.21,0.6 0.09,0.3 0.12,0.39 0.72,1.23 2.4,1.95 1.32,0.57 2.76,0.75 h 0.3 q 0.39,-0.48 1.56,-1.38 1.59,-1.23 2.07,-2.1 z" />
      <path
         id="path18"
         style=""
         d="m 130.57422,82.15 q 0,-0.51 -1.86,-2.04 -1.83,-1.56 -2.46,-1.56 -0.54,0 -2.28,1.38 0,-0.51 0.09,-1.56 0.09,-1.02 0.09,-1.56 0,-0.69 -0.6,-0.69 l -0.36,0.21 q -0.6,2.34 -0.6,4.83 -0.12,0.09 -0.42,0.27 v -0.84 q -0.63,-0.63 -2.1,-1.2 h 0.03 q -1.53,-0.75 -2.7,-0.75 -2.01,0.9 -3.6,1.92 -2.52,1.62 -2.52,2.64 0.93,0 3.24,-1.62 0.45,0.03 1.71,0.39 1.26,0.39 1.47,0.66 V 82.6 q 0.18,0.24 0.18,0.9 v 4.44 l -0.27,0.09 q -0.09,0 -0.51,-0.09 -0.42,-0.12 -0.57,-0.12 -0.69,0 -1.5,0.99 -0.81,0.99 -0.81,1.68 0,0.84 2.04,0.84 0.66,0 1.56,-0.09 0.06,0.48 0.06,0.69 0,3.09 -0.45,4.53 -0.57,1.83 -2.52,3.63 h 0.03 q -2.04,1.74 -3.09,2.61 -2.37,2.07 -2.37,2.61 h 0.75 q 3.6,-2.31 4.68,-3.3 v 0.03 q 3,-2.76 4.08,-3.87 0.93,0.48 1.86,0.93 1.14,0.6 1.89,0.81 -0.51,2.82 -0.51,4.59 h 0.84 q 0.69,-1.53 0.96,-4.05 l 0.06,0.03 q 0.87,0 2.13,-1.08 0.57,-0.57 1.71,-1.65 l -0.06,0.03 q 1.56,-1.02 1.56,-1.44 0,-0.54 -0.63,-0.54 -0.27,0 -0.99,0.45 -0.66,0.42 -0.96,0.69 -1.62,-0.45 -2.4,-0.81 0.09,-0.99 0.18,-1.95 0.09,-0.99 0.15,-1.83 0.06,-0.87 0.09,-1.2 h 0.12 q 0.48,-0.33 1.17,-1.23 0.75,-0.96 0.75,-1.41 0,-0.39 -0.39,-0.6 h -2.01 q -0.09,-0.3 -0.33,-2.91 -0.18,-2.58 -0.15,-3.09 0.27,0.15 1.86,1.47 1.35,1.17 1.62,1.17 0.48,0 1.77,-0.96 1.29,-0.99 1.29,-1.44 z m -7.83,5.76 h -0.24 q -0.21,0 -0.42,-0.09 -0.12,-0.21 -0.12,-0.42 v -1.98 q 0,-1.86 0.66,-2.64 0,3.42 0.12,5.13 z m 0.18,7.59 q -0.69,-0.24 -1.05,-0.51 v -3.84 h 1.05 z" />
      <path
         id="path20"
         style=""
         d="m 139.65719,84.88 q 0,-0.66 -0.72,-0.66 h -2.55 V 82.3 q 0,-0.51 -0.57,-0.51 -0.45,0 -1.41,1.05 -0.24,0.24 -0.66,0.75 -0.39,0.51 -0.48,0.6 v -0.03 q -2.04,2.16 -2.04,2.43 v 0.06 q 0,0.51 1.23,0.51 h 0.42 v 0.33 0.09 q 0,1.11 0.09,2.79 0,0.42 0,0.93 0.03,0.48 0.03,0.75 0.03,0.24 0.03,0.39 0,1.38 -0.03,1.44 v 1.14 q 0,1.83 -0.78,2.64 v 0.48 q 0.18,0.09 0.57,0.3 0.39,0.21 0.57,0.3 l 0.96,0.48 h -0.03 l 1.62,0.84 q 0.51,0 1.5,-1.2 0.99,-1.2 0.99,-1.71 0,-0.42 -1.11,-0.87 -0.75,-0.24 -0.99,-0.48 v -0.3 q 0,-0.63 -0.03,-1.05 0,-0.06 -0.03,-0.24 0,-0.18 0,-0.27 -0.03,-0.69 -0.03,-1.56 0,-1.23 0.03,-2.22 0,-0.12 0,-0.36 0.03,-0.27 0.03,-0.36 0.03,-0.63 0.03,-1.47 V 87.4 q 0,-0.12 0.03,-0.18 h 0.33 q 0.03,0 0.45,0.06 0.18,0.03 0.54,0.03 0.45,0 1.26,-1.02 0.75,-0.96 0.75,-1.41 z" />
      <path
         id="path22"
         style=""
         d="m 144.76375,89.56 v -4.14 q 0.06,0.06 0.18,0.39 l 1.74,2.1 q -0.45,0.51 -1.92,1.65 z m 5.94,6.96 v -0.57 q -0.81,0 -1.53,0.42 -0.72,0.33 -1.02,0.33 -2.19,0 -2.85,-1.05 -0.54,-0.78 -0.54,-3.36 v -0.87 q 0.03,-0.06 1.32,-1.17 1.17,-1.02 1.68,-1.38 2.01,-1.44 2.64,-2.16 v -0.15 h -0.63 q 0,-0.75 -0.39,-1.11 -0.3,-0.33 -0.81,-0.9 -0.51,-0.57 -0.66,-0.75 0.09,0.09 0.09,0.06 v -0.03 q -0.03,-0.06 -0.15,-0.18 -0.12,-0.15 -0.18,-0.27 -0.33,-0.6 -0.66,-0.66 h -0.54 q -2.82,1.38 -4.5,2.67 -0.87,0.66 -0.99,2.19 v 2.43 q 0,0.51 0.03,1.29 0.06,0.9 0.06,1.02 v 3.36 q 0.12,0.33 0.21,0.63 0.12,0.3 0.21,0.6 0.09,0.3 0.12,0.39 0.72,1.23 2.4,1.95 1.32,0.57 2.76,0.75 h 0.3 q 0.39,-0.48 1.56,-1.38 1.59,-1.23 2.07,-2.1 z" />
      <path
         id="path24"
         style=""
         d="m 173.14797,97.93 q 0,-0.54 -0.42,-0.63 h 0.03 q -1.02,-0.36 -1.23,-0.51 -0.27,-0.24 -0.27,-0.93 0,-2.94 0.09,-7.38 0.06,-0.99 0.3,-2.19 0.06,-0.06 0.12,-0.15 0.3,-0.36 0.3,-0.66 0,-0.51 -1.74,-0.96 l -0.36,-0.09 q -1.02,-0.3 -1.65,-0.39 l 0.09,0.03 -0.3,-0.09 h 0.03 q -0.06,-0.03 -0.21,-0.09 -0.15,-0.09 -0.24,-0.12 -0.48,-0.24 -0.84,-0.24 -0.45,0 -2.34,1.53 h -0.03 q -0.33,-0.33 -1.08,-0.66 l -1.23,-0.42 h 0.03 q -0.24,-0.12 -0.51,-0.24 h 0.03 q -0.54,-0.27 -0.72,-0.39 h -0.48 q -0.15,0 -1.62,0.96 -0.3,0.21 -1.11,0.75 v -0.87 q -0.42,-0.06 -1.35,-0.54 h 0.03 q -0.87,-0.51 -1.44,-0.51 h -0.21 q -0.03,0 -0.12,0.06 -0.06,0.06 -0.18,0.12 -0.09,0.03 -0.15,0.06 -0.21,0.15 -0.24,0.15 -2.07,1.53 -2.07,2.07 0,0.42 1.08,0.84 0.75,0.27 0.78,0.48 0.09,0.57 0.09,1.29 v 2.82 q 0,3.24 -0.15,6.09 0,-0.03 0.09,-0.12 -0.03,0.03 -0.06,0.09 -0.03,0.03 -0.03,0.06 v 0.06 -0.06 q -0.03,0.06 -0.09,0.12 -0.06,0.03 -0.12,0.09 -0.06,0.03 -0.12,0.09 -0.33,0.42 -0.33,0.75 0,0.33 1.41,1.2 1.38,0.78 1.83,0.78 h 0.39 q 0.45,-0.45 0.6,-0.57 0.15,-0.15 0.57,-0.51 0.96,-0.93 1.11,-1.11 v -0.33 q 0,-0.51 -0.81,-0.93 -0.12,-0.06 -0.3,-0.15 -0.18,-0.09 -0.27,-0.15 -0.09,-0.06 -0.15,-0.09 v -1.41 q 0,-1.62 0.03,-2.94 0,-0.18 0,-0.48 0.03,-0.33 0.03,-0.45 0.03,-0.84 0.03,-2.01 v -0.72 q 0.03,-0.18 0.06,-0.39 0.03,-0.24 0.06,-0.51 0.03,-0.3 0.06,-0.45 0.03,-0.45 0.48,-0.69 h 0.15 q 0.15,0 1.32,0.42 0.48,0.21 0.72,0.3 0.24,0.06 0.24,0.03 0.06,0.57 0.12,1.68 v 3.24 q 0,3.33 -0.12,4.89 0,0.15 -0.3,0.45 -0.42,0.54 -0.42,0.9 0,0.57 0.93,0.75 l 1.92,0.99 q 0.12,0.09 0.33,0.09 0.36,0 0.66,-0.18 0.33,-0.21 0.45,-0.36 0.15,-0.15 0.48,-0.57 0.03,-0.06 0.15,-0.24 v 0.03 l 0.21,-0.21 q 0.69,-0.69 0.69,-0.99 0,-0.42 -0.93,-0.81 l -0.51,-0.18 v -7.23 q 0,-0.72 0.09,-1.26 v -0.36 q -0.03,-0.15 -0.03,-0.3 0,-0.87 0.33,-0.87 0.21,0 0.63,0.18 0.54,0.27 0.84,0.33 1.23,0.3 1.32,0.33 l 0.09,0.72 q 0,0.36 0.06,0.84 v 2.07 q 0,0.93 -0.03,1.65 0,0.12 -0.03,0.42 0,0.27 0,0.42 v 2.52 1.5 q 0,1.02 0.93,1.86 0.93,0.84 1.92,0.84 0.6,0 2.52,-1.92 0.09,-0.18 0.09,-0.33 z" />
      <path
         id="path26"
         style=""
         d="m 176.62797,96.28 h 0.03 z m 0.33,-12.24 h -0.03 l -0.03,0.03 -0.03,0.03 q 0.03,0 0.09,-0.06 z m 7.32,6.24 v 0.33 q 0,0.06 -0.06,0.48 -0.03,0.39 -0.03,0.69 v 3.99 q -0.15,0.24 -0.15,0.42 v -0.03 l -0.09,0.45 v -0.03 q -0.12,0.48 -0.45,0.48 -1.02,0 -3.24,-0.42 l 0.03,-5.91 q 0,-0.06 -0.03,-0.36 0,-0.33 0,-0.51 v -0.99 q 0,-1.41 0.57,-2.1 l -0.03,0.06 q 0.06,-0.06 0.18,-0.18 0.12,-0.15 0.21,-0.24 h 0.15 q 0.78,0 1.89,0.45 1.05,0.42 1.05,3.42 z m 3.33,0.69 v -3.81 q 0,-1.65 -1.44,-2.67 -1.29,-0.9 -2.88,-0.9 -0.51,0 -1.83,1.05 -0.3,0.24 -0.6,0.48 -0.27,0.21 -0.42,0.33 -0.15,0.09 -0.18,0.12 0,-0.15 -0.06,-0.33 0,-0.03 0,-0.03 0,-0.03 -0.03,-0.06 v 0.03 q -0.21,-0.42 -0.21,-0.45 -0.33,-0.39 -1.02,-0.75 -0.66,-0.39 -1.05,-0.39 h -0.18 q -0.12,0.09 -0.39,0.24 -0.24,0.15 -0.36,0.21 l -0.06,0.06 q -0.06,0.06 -0.18,0.15 -0.09,0.06 -0.12,0.06 l 0.03,-0.03 q -0.66,0.36 -0.93,0.57 -0.78,0.6 -0.78,0.96 0,0.36 0.84,0.9 0.21,0.18 0.45,0.39 0.27,0.18 0.3,0.21 0.18,0.24 0.18,3.09 0,1.44 -0.03,2.34 v 0.51 q -0.03,1.14 -0.03,2.67 v 0.09 q 0,0.15 0.03,0.24 v 0.03 q -0.87,0.63 -2.13,2.07 v 0.18 q 0,0.48 1.02,0.63 0.3,0.03 0.99,0.15 v 1.65 q -0.21,0.36 -0.21,1.2 0,0.3 0.03,0.51 v 1.23 q 0.18,0.33 0.48,0.33 h 0.39 l 0.15,-0.15 q 0.63,-0.36 1.08,-0.69 v 0.03 q 0.09,-0.09 0.24,-0.15 1.38,-0.84 1.41,-1.71 0.09,-0.87 0.09,-1.83 0.27,0 1.08,0.15 0.63,0.12 1.17,0.12 0.48,0 1.95,-1.38 0.09,-0.09 0.24,-0.24 0.15,-0.15 0.27,-0.27 0.12,-0.12 0.24,-0.24 0.27,-0.24 0.78,-0.75 0.54,-0.51 0.78,-0.75 0.48,-0.75 0.51,-1.14 0.3,-3.21 0.3,-3.51 v -0.15 q 0.09,-0.21 0.09,-0.6 z" />
      <path
         id="path28"
         style=""
         d="m 193.345,96.28 v -0.06 z m 3.93,-6.99 v 2.64 q 0,2.52 -0.06,3 -0.24,1.65 -0.9,2.19 h -0.09 q -0.48,0 -1.62,-0.36 -1.05,-0.3 -1.23,-0.48 v -5.22 l 0.06,-1.74 q 0.03,-1.05 0.03,-1.74 v -0.9 q 0,-0.99 0.09,-0.99 0.09,0 1.38,0.48 2.16,0.81 2.34,3.12 z m 3.48,0.96 v -1.32 q 0,-2.01 -0.39,-2.88 v 0.03 q -0.57,-1.26 -2.07,-2.04 v 0.03 q -1.14,-0.72 -1.89,-1.11 h -0.48 l -0.42,0.21 h 0.03 l -0.63,0.21 h 0.03 q -0.63,0.21 -0.81,0.3 l 0.06,-0.03 q -0.03,0.03 -0.06,0.03 v 0.03 q -0.24,0.12 -0.54,0.27 -0.3,0.12 -0.36,0.15 -0.42,0.21 -2.97,1.32 l -0.51,0.51 v 0.27 q 0,0.75 0.09,2.19 0.09,1.44 0.09,2.1 0,3.3 -0.09,6.27 0,0.27 -0.09,0.42 l -0.12,0.15 q -0.12,0.18 -0.21,0.33 l -0.15,0.15 v 0.27 q 0,0.54 1.2,0.81 1.14,0.24 1.59,0.36 1.62,0.42 2.58,0.81 h 0.21 q 0,-0.06 0.51,-0.18 0.84,-0.66 2.31,-1.71 1.92,-1.65 2.76,-3.81 0.33,-1.59 0.33,-4.14 z" />
      <path
         id="path30"
         style=""
         d="m 212.62609,96.46 q 0,-0.51 -0.51,-0.51 -0.45,0 -0.93,0.6 -0.33,0.33 -0.48,0.33 -0.21,0 -1.53,-0.39 v 0.03 q -0.9,-0.33 -1.2,-0.57 -0.03,-0.15 -0.03,-0.66 0,-1.02 -0.03,-1.8 -0.03,-1.47 -0.03,-2.61 0.12,-0.33 0.12,-2.04 V 88 q -0.03,-0.3 -0.03,-0.48 0,-0.15 0.42,-0.42 0.12,0.18 0.42,0.87 0.54,1.32 0.99,1.32 h 0.42 q 1.38,-1.17 2.01,-1.95 v -0.27 q 0,-0.39 -0.57,-1.71 -0.72,-1.56 -1.26,-1.56 -0.27,0 -0.93,0.51 l -0.18,0.18 q -0.87,0.75 -1.47,1.29 l -0.06,-0.27 q -1.2,-1.71 -2.58,-1.71 -0.57,0 -1.71,1.11 -0.69,0.39 -0.69,1.02 0,0.36 0.96,1.05 0.6,0.42 0.81,0.69 0,0.09 0.15,0.39 v 0.36 q -0.03,0.21 -0.03,0.54 0,1.35 0.09,2.16 v 5.25 q 0,0.18 -0.06,0.84 0,0.09 -0.12,0.21 -0.3,0.48 -0.3,0.66 0,0.54 0.48,0.72 0.15,0.03 1.56,0.48 v -0.03 q 0.06,0.03 0.42,0.18 0.36,0.12 0.54,0.18 1.38,0.39 1.74,0.39 0.6,0 2.07,-1.56 1.53,-1.53 1.53,-1.98 z" />
      <path
         id="path32"
         style=""
         d="m 219.78859,87.43 v 8.31 q 0,0.12 -0.54,0.6 -0.57,0.45 -0.75,0.45 -0.12,0 -0.51,-0.24 v 0.03 q -1.17,-1.11 -1.17,-3.42 V 88 q 0.06,-0.36 0.21,-1.11 0.09,-0.6 0.27,-0.6 0.3,0 1.23,0.36 h -0.03 q 0.09,0.06 0.18,0.12 0.12,0.03 0.24,0.12 0.15,0.06 0.24,0.09 l 0.66,0.33 q -0.03,0.03 -0.03,0.12 z m 4.92,10.41 v -0.39 q -0.03,0 -0.03,0.12 -1.32,-0.93 -1.56,-1.86 -0.21,-0.81 -0.21,-4.53 0,-0.99 0.06,-2.55 v 0.03 q 0.03,-0.6 0.03,-1.56 0.15,-0.96 0.66,-1.47 v -0.27 q 0,-0.54 -1.02,-0.78 l 0.03,0.03 q -0.06,-0.03 -0.15,-0.03 -0.09,0 -0.12,-0.03 h 0.06 q -0.09,-0.06 -0.18,-0.06 -0.09,-0.03 -0.12,0 -0.03,0 -0.03,0.03 l -0.12,0.12 0.09,-0.33 q -0.36,-0.18 -0.81,-0.18 -0.06,-0.03 -0.09,-0.06 h 0.06 q -0.06,-0.03 -0.9,-0.39 h 0.03 q -0.75,-0.36 -1.17,-0.36 -0.54,0 -1.59,0.69 -1.98,1.23 -2.55,1.86 -1.38,1.29 -1.38,2.94 v 5.79 q 0,4.41 3.21,5.4 h 0.18 q 0.45,0 1.2,-0.81 0.03,-0.06 0.15,-0.21 l -0.03,0.03 0.36,-0.42 1.02,-1.05 q 0.09,0.78 1.11,1.56 v -0.03 q 0.39,0.33 0.66,0.51 0.12,0.06 0.36,0.27 0.27,0.18 0.39,0.24 h 0.33 q 0.18,-0.18 0.57,-0.54 0.42,-0.36 0.6,-0.51 0.9,-0.84 0.9,-1.2 z" />
      <path
         id="path34"
         style=""
         d="m 239.92187,97.63 v -0.12 q 0,-0.54 -1.13999,-0.96 h 0.03 q -0.72,-0.3 -0.72,-0.45 0,-5.13 0.33,-9.84 0,-0.21 0.12,-0.45 0.27,-0.69 0.27,-0.87 v -0.42 q -2.31,-0.66 -2.4,-0.69 -0.03,0 -0.12,-0.03 -0.09,-0.06 -0.21,-0.12 -0.12,-0.06 -0.21,-0.09 -0.09,-0.06 -0.51,-0.18 -0.9,-0.33 -1.38,-0.33 -0.48,0 -1.53,0.69 -0.18,0.15 -0.51,0.42 -0.33,0.24 -0.42,0.3 -0.15,-0.27 -0.27,-0.3 h 0.03 q -0.33001,-0.15 -1.23001,-0.57 h 0.03 q -0.87,-0.39 -1.2,-0.39 -0.51,0 -1.65,0.96 -1.17,1.02 -1.17,1.44 v 0.06 q 0,0.21 0.03,0.27 0.03,0.06 0.18,0.06 0.03,0.03 0.15,0.03 0.06,0.03 0.21,0.09 0.15001,0.06 0.18,0.09 0.06,0 0.18,0.06 0.15,0.06 0.21,0.09 0.06,0.03 0.15,0.09 0.12,0.06 0.15,0.12 0.06,0.06 0.12,0.12 0.06,0.06 0.09,0.15 0.03,0.06 0.03,0.15 v 6.42 q 0,2.79 -0.06,3.57 0,0.12 -0.14999,0.33 -0.27001,0.6 -0.27001,0.72 0,0.42 1.5,1.26 l -0.03,-0.03 q 1.38,0.78 1.56,0.78 h 0.15 q 0.36,0 0.48,-0.18 l 1.77,-1.74 q 0.18,-0.27 0.18,-0.51 0,-0.51 -0.69,-0.81 l -0.33,-0.18 q -0.12,-0.06 -0.24,-0.12 -0.09,-0.06 -0.15,-0.06 l -0.06,-0.03 q -0.06,-0.51 -0.06,-1.86 0,-1.23 0.09,-3.69 0.09,-2.49 0.09,-3.72 v -0.93 q 0,-0.24 0.39,-0.27 0.51,0.12 1.26,0.39 0.09,0.03 0.27,0.09 0.21,0.03 0.3,0.06 0.51,0.09 0.72,0.24 0.21,0.15 0.21,0.54 v 4.56 q 0,3.78 -0.27,6.09 v 0.12 q 0,0.36 0.75,0.78 0.15,0.06 0.57,0.24 h -0.03 q 0.06,0.03 0.15,0.09 0.12,0.03 0.18,0.06 l -0.03,-0.03 q 0.03,0.03 0.09,0.09 0.09,0.06 0.15,0.09 0.75,0.63 1.26,0.63 0.39,0 1.35,-1.02 0.6,-0.6 1.08,-1.35 z" />
      <path
         id="path36"
         style=""
         d="m 245.07625,89.56 v -4.14 q 0.06,0.06 0.18,0.39 l 1.74,2.1 q -0.45,0.51 -1.92,1.65 z m 5.94,6.96 v -0.57 q -0.81,0 -1.53,0.42 -0.72,0.33 -1.02,0.33 -2.19,0 -2.85,-1.05 -0.54,-0.78 -0.54,-3.36 v -0.87 q 0.03,-0.06 1.32,-1.17 1.17,-1.02 1.68,-1.38 2.01,-1.44 2.64,-2.16 v -0.15 h -0.63 q 0,-0.75 -0.39,-1.11 -0.3,-0.33 -0.81,-0.9 -0.51,-0.57 -0.66,-0.75 0.09,0.09 0.09,0.06 v -0.03 q -0.03,-0.06 -0.15,-0.18 -0.12,-0.15 -0.18,-0.27 -0.33,-0.6 -0.66,-0.66 h -0.54 q -2.82,1.38 -4.5,2.67 -0.87,0.66 -0.99,2.19 v 2.43 q 0,0.51 0.03,1.29 0.06,0.9 0.06,1.02 v 3.36 q 0.12,0.33 0.21,0.63 0.12,0.3 0.21,0.6 0.09,0.3 0.12,0.39 0.72,1.23 2.4,1.95 1.32,0.57 2.76,0.75 h 0.3 q 0.39,-0.48 1.56,-1.38 1.59,-1.23 2.07,-2.1 z" />
      <path
         id="path38"
         style=""
         d="m 258.46047,87.43 v 8.31 q 0,0.12 -0.54,0.6 -0.57,0.45 -0.75,0.45 -0.12,0 -0.51,-0.24 v 0.03 q -1.17,-1.11 -1.17,-3.42 V 88 q 0.06,-0.36 0.21,-1.11 0.09,-0.6 0.27,-0.6 0.3,0 1.23,0.36 h -0.03 q 0.09,0.06 0.18,0.12 0.12,0.03 0.24,0.12 0.15,0.06 0.24,0.09 l 0.66,0.33 q -0.03,0.03 -0.03,0.12 z m 4.92,10.41 v -0.39 q -0.03,0 -0.03,0.12 -1.32,-0.93 -1.56,-1.86 -0.21,-0.81 -0.21,-4.53 0,-0.99 0.06,-2.55 v 0.03 q 0.03,-0.6 0.03,-1.56 0.15,-0.96 0.66,-1.47 v -0.27 q 0,-0.54 -1.02,-0.78 l 0.03,0.03 q -0.06,-0.03 -0.15,-0.03 -0.09,0 -0.12,-0.03 h 0.06 q -0.09,-0.06 -0.18,-0.06 -0.09,-0.03 -0.12,0 -0.03,0 -0.03,0.03 l -0.12,0.12 0.09,-0.33 q -0.36,-0.18 -0.81,-0.18 -0.06,-0.03 -0.09,-0.06 h 0.06 q -0.06,-0.03 -0.9,-0.39 h 0.03 q -0.75,-0.36 -1.17,-0.36 -0.54,0 -1.59,0.69 -1.98,1.23 -2.55,1.86 -1.38,1.29 -1.38,2.94 v 5.79 q 0,4.41 3.21,5.4 h 0.18 q 0.45,0 1.2,-0.81 0.03,-0.06 0.15,-0.21 l -0.03,0.03 0.36,-0.42 1.02,-1.05 q 0.09,0.78 1.11,1.56 v -0.03 q 0.39,0.33 0.66,0.51 0.12,0.06 0.36,0.27 0.27,0.18 0.39,0.24 h 0.33 q 0.18,-0.18 0.57,-0.54 0.42,-0.36 0.6,-0.51 0.9,-0.84 0.9,-1.2 z" />
    </g>
  </g>
</svg>
