<?xml version="1.0" encoding="UTF-8" standalone="no"?>
<svg
   xmlns:dc="http://purl.org/dc/elements/1.1/"
   xmlns:cc="http://creativecommons.org/ns#"
   xmlns:rdf="http://www.w3.org/1999/02/22-rdf-syntax-ns#"
   xmlns:svg="http://www.w3.org/2000/svg"
   xmlns="http://www.w3.org/2000/svg"
   id="svg10"
   width="500px"
   version="1.1"
   height="200px">
  <metadata
     id="metadata14">
    <rdf:RDF>
      <cc:Work
         rdf:about="">
        <dc:format>image/svg+xml</dc:format>
        <dc:type
           rdf:resource="http://purl.org/dc/dcmitype/StillImage" />
      </cc:Work>
    </rdf:RDF>
  </metadata>
  <defs
     id="defs4">
    <style
       id="style2"
       type="text/css"><![CDATA[    
     @font-face {font-family:Typography ties;
     src: url('/Users/francesco/Repos/write-logos/src/fonts//Typography_ties.ttf');}]]></style>
  </defs>
  <g
     id="g8"
     style="font-size:30px;font-family:'Typography ties'">
    <g
       style=""
       id="text6"
       aria-label="eXtemporanea">
      <path
         id="path16"
         style=""
         d="m 100.54199,83.26416 q -0.15381,-0.01465 -0.22705,-0.102539 -0.0659,-0.09521 -0.0659,-0.197754 0.007,-0.102539 0.0879,-0.183105 0.0806,-0.08789 0.23438,-0.09521 1.83838,0.05859 3.64746,0.205078 1.80908,0.146484 3.63281,0.366211 0.46143,0.05127 0.98145,0.117187 0.52734,0.06592 1.06201,0.146485 0.53467,0.07324 1.05469,0.161133 0.52734,0.08789 0.98877,0.175781 0.38818,0.07324 0.76172,0.168457 0.38085,0.08789 0.76904,0.175781 0.1831,0.04394 0.39551,0.117188 0.2124,0.06592 0.4248,0.161132 0.2124,0.09521 0.41748,0.205079 0.20508,0.102539 0.38086,0.212402 0.0732,0.04394 0.13184,0.13916 0.0659,0.08789 0.0806,0.19043 0.022,0.09521 -0.0147,0.183105 -0.0366,0.08789 -0.16113,0.117188 -0.2124,0.05859 -0.4248,0.124511 -0.20508,0.06592 -0.42481,0.07324 -0.98877,0.03662 -1.97754,0.02197 -0.98144,-0.01465 -1.97021,-0.04394 -0.98877,-0.03662 -1.97754,-0.08057 -0.98145,-0.04395 -1.97022,-0.07324 -0.29296,-0.0073 -0.71044,-0.02197 -0.41749,-0.01465 -0.87159,-0.01465 -0.44677,0 -0.88623,0.01465 -0.43213,0.0073 -0.76172,0.05127 -0.11718,0.01465 -0.22705,0.06592 -0.10254,0.05127 -0.2124,0.09521 -0.0293,0.234375 0.0879,0.46875 0.12451,0.227051 0.30762,0.439453 0.19043,0.212403 0.40283,0.395508 0.2124,0.175781 0.37354,0.314941 l 0.24902,0.205079 q 0.79102,-0.46875 1.83838,-0.725098 1.49414,-0.366211 3.09814,-0.366211 3.01758,0.03662 4.87793,2.395019 0.81299,1.303711 0.37354,0.439454 -0.43946,-0.864258 0.41015,0.571289 0.32227,0.541992 0.41016,1.142578 l 0.2124,0.08789 q 0.38086,0.08057 0.73975,0.219727 0.36621,0.131836 0.71777,0.336914 0.271,0.161133 0.34424,0.373535 0.0806,0.212403 0.022,0.424805 -0.0586,0.212402 -0.23437,0.410156 -0.16846,0.19043 -0.38819,0.314942 -0.26367,0.153808 -0.52734,0.322265 -0.25635,0.161133 -0.53467,0.285645 -0.78369,0.351562 -1.64795,0.541992 -0.86425,0.183105 -1.76513,0.27832 -0.89356,0.09521 -1.78711,0.13916 -0.89356,0.03662 -1.72852,0.09521 -0.41015,0.0293 -0.82763,0.05859 -0.41016,0.0293 -0.82032,0.08057 -0.40283,0.05127 -0.80566,0.139161 -0.39551,0.08789 -0.78369,0.234375 -0.25635,0.09521 -0.52735,0.190429 -0.26367,0.09521 -0.53466,0.197754 0.48339,1.237793 1.31835,1.977539 l 0.0366,0.0293 0.47607,-0.578613 q 0.10254,-0.117188 0.29297,-0.249024 0.19775,-0.131836 0.43945,-0.241699 0.2417,-0.117187 0.50537,-0.197754 0.271,-0.08789 0.52735,-0.109863 0.25634,-0.02197 0.4834,0.03662 0.22705,0.05127 0.38085,0.205078 0.0733,0.06592 0.0952,0.175781 0.0293,0.102539 0.0293,0.219727 0.007,0.117187 -0.007,0.234375 -0.007,0.109863 -0.0146,0.19043 -0.007,0.183105 -0.0293,0.366211 -0.0147,0.183105 -0.0147,0.373535 0,0.197754 0,0.395508 0.007,0.190429 -0.0293,0.380859 0.64453,0.06592 1.38428,0.05127 3.03955,0.109864 5.15625,-2.607421 0.54932,-1.010743 0.75439,-1.333008 0.17578,0 0,0.878906 0,0.117188 -0.11718,0.483398 -0.7837,1.303711 -2.02881,2.241211 -1.2378,0.930176 -2.73194,1.398924 -1.49414,0.46875 -3.06884,0.46875 -0.65918,0 -1.27442,-0.0879 l -0.17578,0.0293 q 0.25635,0.30029 0.60791,0.50537 0.35156,0.2124 0.73975,0.35889 0.3955,0.14648 0.79101,0.24902 0.40283,0.10254 0.7544,0.17578 2.07275,0.4541 4.1748,0.62256 2.10938,0.16846 4.22608,0.19043 0.13183,0.0366 0.19043,0.11719 0.0586,0.0879 0.0513,0.1831 0,0.0952 -0.0733,0.17578 -0.0659,0.0806 -0.19775,0.10254 -1.8457,-0.0293 -3.66943,-0.16845 -1.81641,-0.13184 -3.64014,-0.46875 -0.56397,-0.10254 -1.12061,-0.21973 -0.55664,-0.10986 -1.09131,-0.27832 -0.53466,-0.16846 -1.03271,-0.42481 -0.49805,-0.25634 -0.93018,-0.65185 -0.10253,-0.0879 -0.19775,-0.19043 -0.0952,-0.10254 -0.19775,-0.2124 -0.27832,0.0146 -0.56397,0.0146 -0.28564,0 -0.57129,-0.007 -0.26367,-0.007 -0.55664,-0.0147 -0.29297,0 -0.59326,-0.0293 -0.29297,-0.0293 -0.57129,-0.0952 -0.27832,-0.0659 -0.52002,-0.20508 -0.23437,-0.13183 -0.41748,-0.336912 -0.17578,-0.212402 -0.271,-0.527343 -0.0293,-0.117188 -0.0439,-0.227051 -0.0147,-0.117188 -0.0293,-0.234375 -0.0293,-0.161133 -0.022,-0.322266 0.007,-0.161133 0.022,-0.322266 0.0147,-0.190429 0.0366,-0.402832 0.0293,-0.212402 0.0879,-0.424804 -0.0513,-0.08789 -0.10253,-0.175781 -0.95948,-1.684571 -1.04737,-3.75 0.044,-1.582032 0.71045,-3.032227 0.67383,-1.45752 1.92627,-2.453613 0.13184,-0.109864 0.271,-0.212403 -0.271,-0.205078 -0.54932,-0.439453 -0.27832,-0.241699 -0.49072,-0.512695 -0.2124,-0.27832 -0.32959,-0.585938 -0.11719,-0.314941 -0.0732,-0.666504 0.0146,-0.05859 0.0293,-0.08789 0.022,-0.03662 0.0659,-0.07324 0.16113,-0.05859 0.30762,-0.13916 0.15381,-0.08789 0.32226,-0.10254 0.36621,-0.02197 0.64453,-0.03662 0.27833,-0.02197 0.5127,-0.0293 0.2417,-0.0073 0.46143,-0.0073 0.22705,-0.0073 0.47607,0 0.24902,0 0.54932,0.0073 0.30029,0.0073 0.6958,0.01465 0.54931,0.01465 0.9375,0.0293 0.38818,0.0073 0.68847,0.02197 0.30762,0.0073 0.57129,0.02197 0.26367,0.0073 0.57129,0.02197 0.30762,0.0073 0.68848,0.02197 0.38818,0.01465 0.94482,0.0293 0.29297,0.0073 0.73975,0.01465 0.44678,0.0073 0.93017,0.01465 0.4834,0 0.94483,-0.0073 0.46142,-0.0073 0.79101,-0.04394 0.10254,-0.0073 0.19776,-0.0293 0.0952,-0.02197 0.19043,-0.05127 -0.14649,-0.07324 -0.28565,-0.131836 -0.29297,-0.109863 -0.49072,-0.190429 -0.19043,-0.08057 -0.35156,-0.131836 -0.15381,-0.05859 -0.29297,-0.09522 -0.13916,-0.04394 -0.32227,-0.08057 -0.17578,-0.04394 -0.4248,-0.08789 -0.2417,-0.04395 -0.60059,-0.109863 -0.46142,-0.08789 -0.97412,-0.168458 -0.50537,-0.08057 -1.03271,-0.146484 -0.52002,-0.07324 -1.03272,-0.131836 -0.51269,-0.06592 -0.97412,-0.117187 -1.82373,-0.205078 -3.63281,-0.336914 -1.80176,-0.131836 -3.64014,-0.183106 z m 11.77002,8.840332 q -0.022,-0.07324 -0.0366,-0.13916 -0.0147,-0.07324 -0.007,-0.153809 0.007,-0.102539 0.0439,-0.205078 0.0439,-0.102539 0.0806,-0.205078 0.0513,-0.146484 0.1831,-0.234375 0.13184,-0.08789 0.3003,-0.131836 0.16845,-0.05127 0.35156,-0.06592 0.1831,-0.01465 0.33691,-0.01465 -0.007,-0.0293 -0.0146,-0.05127 -0.24169,-0.03662 -0.47607,-0.06592 -0.23437,-0.03662 -0.46875,-0.07324 -0.49072,-0.06592 -0.98877,-0.102539 -0.49072,-0.04394 -0.98877,-0.08057 -0.49072,-0.03662 -0.98877,-0.08789 -0.49072,-0.05127 -0.98144,-0.146484 -0.46143,-0.08789 -0.93018,-0.256348 -0.46875,-0.168457 -0.93017,-0.380859 -0.45411,-0.219727 -0.90088,-0.476075 -0.43946,-0.256347 -0.85694,-0.534668 -1.01806,0.915528 -1.36963,1.875 0.022,0.161133 -0.24902,1.545411 z m -4.21142,-4.533691 q -1.6333,0 -2.73926,0.856933 l 0.16113,0.109864 q 0.43945,0.27832 0.88623,0.527343 0.44678,0.249024 0.91553,0.461426 0.63721,0.27832 1.30371,0.417481 0.6665,0.13916 1.34033,0.219726 0.68115,0.07324 1.36231,0.124512 0.68115,0.05127 1.3623,0.146484 0.18311,0.0293 0.35889,0.05127 0.17578,0.02197 0.35888,0.05859 -0.30761,-0.65918 -1.06933,-1.552735 -1.47217,-1.699219 -4.24072,-1.420898 z m -4.39454,5.844726 q 0.13184,1.113282 0.43213,1.999512 0.24903,-0.109863 0.52002,-0.212402 0.271,-0.109864 0.52002,-0.197754 0.25635,-0.08789 0.47608,-0.153809 0.22705,-0.06592 0.3955,-0.08789 0.30762,-0.04395 0.52002,-0.07324 0.21241,-0.03662 0.38086,-0.05859 0.16846,-0.0293 0.30762,-0.04395 0.14649,-0.01465 0.31494,-0.02197 0.17578,-0.01465 0.39551,-0.0293 0.22705,-0.01465 0.54932,-0.03662 0.35156,-0.02197 0.70312,-0.03662 0.35156,-0.02197 0.70313,-0.03662 0.33691,-0.02197 0.70312,-0.04395 0.36621,-0.0293 0.73975,-0.05859 0.37353,-0.0293 0.73974,-0.06592 0.36621,-0.03662 0.6958,-0.08789 0.56397,-0.08789 1.01807,-0.183106 0.4541,-0.102539 0.86426,-0.241699 0.41748,-0.146484 0.82764,-0.344238 0.41748,-0.197754 0.90087,-0.490723 0.0659,-0.04394 0.14649,-0.109863 0.0879,-0.06592 0.15381,-0.146484 0.0732,-0.08057 0.12451,-0.168457 0.0513,-0.08789 0.0586,-0.175782 0.007,-0.117187 -0.0586,-0.212402 -0.0586,-0.09521 -0.16113,-0.168457 -0.10254,-0.08057 -0.22705,-0.13916 -0.12452,-0.05859 -0.23438,-0.102539 0.2417,0.256347 0.26367,0.549316 0.022,0.263672 -0.0879,0.439453 -0.10986,0.168457 -0.29297,0.270996 -0.1831,0.102539 -0.41015,0.146485 -0.22705,0.04395 -0.44678,0.05859 -0.27832,0.01465 -0.55664,0.05859 -0.27832,0.03662 -0.54932,-0.01465 l -0.19043,-0.03662 z m 2.29249,4.636231 q 0.93017,0.629883 2.32177,0.849609 0.0366,-0.183105 0.022,-0.373535 -0.007,-0.197754 -0.007,-0.380859 0,-0.300293 0.0366,-0.593262 0.0366,-0.300293 0,-0.600586 -0.0586,-0.0293 -0.11719,-0.05859 -0.0586,-0.03662 -0.12451,-0.04394 -0.27832,-0.02197 -0.59326,0.05859 -0.30762,0.08057 -0.60058,0.249023 -0.29297,0.161133 -0.542,0.395508 -0.2417,0.227051 -0.3955,0.498047 z m -1.58936,1.589355 q -1.25244,-0.710449 -2.0874,-1.801758 -0.0879,0.439454 -0.0732,0.900879 0.022,0.454102 0.24169,0.79834 0.14649,0.227051 0.37354,0.351563 0.23437,0.117183 0.49072,0.168453 0.26367,0.0586 0.53467,0.0659 0.27832,0.0147 0.5127,0.022 0.28564,0.007 0.58593,0.0147 0.30762,0.007 0.61524,0.007 -0.62989,-0.205081 -1.19385,-0.527347 z m 10.77393,-8.24707 q 0.0293,0.695801 -0.23438,1.464844 l 0.24902,-0.02197 q 0.11719,-0.0073 0.27832,-0.02197 0.16114,-0.01465 0.30762,-0.05859 0.14649,-0.05127 0.24902,-0.131836 0.10987,-0.08789 0.12452,-0.2417 0.0147,-0.146484 -0.0293,-0.256347 -0.044,-0.109863 -0.13184,-0.197754 -0.0879,-0.08789 -0.20507,-0.161133 -0.10987,-0.08057 -0.2417,-0.168457 -0.0879,-0.05859 -0.18311,-0.109863 -0.0879,-0.05127 -0.1831,-0.09522 z m -1.56739,-0.168457 q -0.0659,0 -0.13916,0.0073 -0.0659,0 -0.12451,0.0073 -0.13184,0.01465 -0.271,0.04395 -0.13183,0.0293 -0.24902,0.09521 -0.10986,0.06592 -0.1831,0.175781 -0.0732,0.109863 -0.0732,0.270996 -0.007,0.13916 0.0513,0.285644 0.9375,0.02197 0.9375,-0.461425 z" />
      <path
         id="path18"
         style=""
         d="m 119.32861,76.174316 q -0.14648,-0.146484 -0.17578,-0.300293 -0.022,-0.161132 0.0513,-0.27832 0.0732,-0.124512 0.21973,-0.175781 0.15381,-0.05859 0.35156,0 0.83496,0.549316 1.6626,1.091308 0.82764,0.541993 1.64795,1.113282 0.30029,0.205078 0.58594,0.424804 0.29296,0.219727 0.59326,0.432129 h 5.31006 q 0,0.358887 -1.09131,0.791016 -1.58203,0 -2.09473,0.534668 l 0.17578,0.102539 q 0.41016,0.241699 0.77637,0.549316 0.36621,0.307618 0.71777,0.622559 0.13184,0.117187 0.34424,0.307617 0.2124,0.19043 0.43945,0.424805 0.76172,0.109863 1.4209,0.366211 0.66651,0.249023 1.07666,0.673828 0.32227,0.336914 0.57129,0.74707 0.24902,0.402832 0.44678,0.864258 l 0.92285,-1.237793 q 0.95947,-1.259766 0.95947,-2.219238 0,-1.677246 -2.9956,-1.677246 -0.77637,-0.505371 -0.87891,-0.922852 1.80176,0.01465 10.90576,0 -0.26367,0.153809 -0.75439,0.717774 -1.6919,0 -3.14942,1.252441 -1.45019,1.252441 -2.61474,2.578125 l -2.05811,2.431641 q 0.14649,0.461425 0.24903,0.922851 0.10253,0.454102 0.1831,0.886231 0.13184,0.703125 0.19776,1.333007 0.0732,0.629883 0.022,1.237793 0.39551,0.02197 0.75439,0.09521 0.36621,0.06592 0.62256,0.19043 0.30762,0.161133 0.52002,0.395508 0.21973,0.227051 0.4541,0.490722 0.16846,0.183106 0.32959,0.432129 0.16113,0.249024 0.30762,0.527344 0.15381,0.270996 0.27832,0.541992 0.12451,0.270996 0.22705,0.490723 0.52734,1.157226 0.92285,2.431641 0.40283,1.267089 0.60791,2.5708 0.49072,0.556641 0.88623,0.805664 0.70313,0.439453 1.43555,0.512696 0.92285,0.527343 0.82031,0.673828 -0.0439,0.07324 -2.95166,0.08056 0.007,0.47608 0.007,0.95948 0,0.4834 0.007,0.95947 0.0146,0.4834 0.0513,0.95947 0.0439,0.4834 0.13916,0.95215 0.10986,0.52002 0.28564,1.02539 0.18311,0.5127 0.41016,0.9961 0.23438,0.49072 0.49805,0.95947 0.27099,0.47607 0.55664,0.92285 0.0586,0.19775 0,0.34424 -0.0513,0.15381 -0.17578,0.22705 -0.11719,0.0732 -0.27832,0.0439 -0.15381,-0.022 -0.3003,-0.16845 -0.29297,-0.4834 -0.57129,-0.98877 -0.27099,-0.50537 -0.50537,-1.03272 -0.23437,-0.52002 -0.41748,-1.06201 -0.1831,-0.54199 -0.29297,-1.10596 -0.0952,-0.49072 -0.13183,-0.98877 -0.0366,-0.49804 -0.0513,-1.00341 -0.007,-0.49805 0,-1.00342 0.007,-0.49805 0.007,-0.9961 -2.82715,0 -7.82959,-0.04394 0,-0.395508 0.84961,-0.776367 1.31836,0 2.03614,-0.205078 0.72509,-0.205079 0.72509,-0.900879 0,-0.79834 -0.80566,-1.948243 l -1.64795,-2.358398 q -0.17578,0.153809 -0.37354,0.285645 -0.19775,0.124511 -0.40283,0.212402 -0.19775,0.08057 -0.41015,0.109863 -0.20508,0.02197 -0.40284,-0.03662 -0.19043,-0.05859 -0.36621,-0.183105 -0.16845,-0.124512 -0.34424,-0.227051 -0.12451,-0.08057 -0.20507,-0.197754 -0.0733,-0.124512 -0.13184,-0.263672 -0.0513,-0.146484 -0.10254,-0.292969 -0.0513,-0.146484 -0.11719,-0.27832 -0.1538,-0.292969 -0.13183,-0.578613 0.022,-0.292969 0.15381,-0.556641 0.13183,-0.263672 0.34424,-0.490723 0.2124,-0.234375 0.44677,-0.41748 l -0.4834,-0.695801 -2.76123,3.625488 q -1.74316,2.314454 -1.86035,3.874512 0.0806,1.523438 2.58545,1.523438 0.78369,0.454101 0.78369,0.849608 -3.67675,-0.05859 -10.7666,-0.07324 0,-0.388184 0.59326,-0.710449 1.34034,-0.146485 2.6294,-0.842285 1.29638,-0.695801 2.3584,-1.64795 1.06201,-0.959472 1.8164,-1.926269 l 4.17481,-5.339356 -2.18262,-3.098144 q -0.16113,0.03662 -0.31494,0.06592 -0.14649,0.02197 -0.29297,0.03662 -0.25635,0.03662 -0.60059,0.05127 -0.33691,0.0073 -0.68115,-0.03662 -0.34424,-0.05127 -0.65185,-0.175781 -0.3003,-0.131836 -0.4834,-0.380859 -0.13916,-0.197754 -0.19043,-0.410157 -0.0513,-0.212402 -0.0439,-0.432129 0.0147,-0.219726 0.0732,-0.432128 0.0659,-0.219727 0.16114,-0.417481 0.29297,-0.622558 0.74707,-1.098633 l -1.1792,-1.677246 q -1.4209,-2.160644 -3.75,-2.160644 -0.94483,-0.483399 -1.06201,-0.84961 h 5.16357 q -0.87891,-0.593261 -1.76514,-1.16455 -0.8789,-0.57129 -1.77246,-1.142579 z m 11.16211,10.803223 1.53809,-2.072754 q -0.19043,-0.483398 -0.44678,-0.915527 -0.25635,-0.439453 -0.58594,-0.783692 -0.28564,-0.285644 -0.71045,-0.476074 -0.4248,-0.197754 -0.93017,-0.307617 0.16846,0.227051 0.27832,0.454102 0.10986,0.219726 0.11719,0.410156 0.007,0.183105 0.007,0.366211 0.007,0.183105 -0.0293,0.358886 -0.0586,0.292969 -0.2417,0.52002 -0.1831,0.227051 -0.41748,0.41748 z m 2.68799,3.75 4.21143,5.90332 q -0.16846,-0.725097 -0.40284,-1.464843 -0.22705,-0.747071 -0.50537,-1.442871 -0.27832,-0.703125 -0.60058,-1.311036 -0.31494,-0.615234 -0.65918,-1.07666 -0.16846,-0.227051 -0.35889,-0.424804 -0.19043,-0.197754 -0.43945,-0.32959 -0.25635,-0.13916 -0.55664,-0.175782 -0.3003,-0.04394 -0.60059,-0.04394 z m -0.4834,-3.442383 q -0.0659,-0.344238 -0.15381,-0.717773 -0.0879,-0.373535 -0.20507,-0.761719 l -1.4502,1.713867 1.59668,2.241211 q 0.10254,-0.0073 0.20508,-0.0073 0.10254,0 0.20508,0 0.0513,-0.563965 -0.007,-1.164551 -0.0586,-0.60791 -0.19043,-1.303711 z m -3.0249,6.547852 q 0.29297,0.05859 0.60059,-0.08057 0.30761,-0.13916 0.58593,-0.366211 l -1.45752,-2.080078 -0.11718,0.08789 q -0.57129,0.476074 -0.57129,1.018066 0.007,0.534668 0.47607,1.12793 0.0879,0.109863 0.2124,0.183106 0.13184,0.07324 0.271,0.109863 z m -4.80469,-7.888184 q 0.18311,-0.01465 0.35889,-0.03662 0.1831,-0.02197 0.35889,-0.05859 l -1.55274,-2.204589 q -0.33691,0.395507 -0.55664,0.864257 -0.0513,0.109864 -0.10254,0.256348 -0.0513,0.13916 -0.0732,0.285645 -0.0146,0.146484 0.007,0.292968 0.022,0.13916 0.12452,0.249024 0.12451,0.13916 0.30029,0.219726 0.17578,0.07324 0.37353,0.109864 0.19776,0.0293 0.39551,0.0293 0.19776,0 0.36621,-0.0073 z m 4.18946,-2.548828 q -0.0659,-0.270996 -0.271,-0.556641 -0.20508,-0.285644 -0.4834,-0.563964 -0.54932,-0.03662 -1.09131,0 l 1.47949,2.124023 q 0.20508,-0.197754 0.32227,-0.446777 0.11719,-0.249024 0.0439,-0.556641 z m -2.20459,-1.640625 q 0.20507,-0.01465 0.41748,-0.02197 0.21972,-0.0073 0.43945,-0.0073 -0.29297,-0.249023 -0.57129,-0.461426 -0.27832,-0.212402 -0.46875,-0.373535 -0.11719,-0.08789 -0.23437,-0.168457 -0.11719,-0.08057 -0.2417,-0.153808 0.16113,0.483398 0.43213,0.864257 z" />
      <path
         id="path20"
         style=""
         d="m 143.03711,80.36377 q -0.0586,-0.117188 -0.0366,-0.219727 0.022,-0.102539 0.0879,-0.161133 0.0732,-0.05859 0.17578,-0.05859 0.10986,-0.0073 0.21973,0.06592 0.0366,0.04395 0.10254,0.07324 0.0732,0.02197 0.1538,0.04394 0.0806,0.01465 0.15381,0.02197 0.0733,0.0073 0.11719,0.01465 0.24902,0.03662 0.49072,0.06592 0.24903,0.0293 0.49073,0.07324 0.24169,0.03662 0.47607,0.102539 0.2417,0.05859 0.4834,0.168457 0.23437,0.102539 0.46142,0.19043 0.22705,0.08789 0.43946,0.212402 0.70312,0.402832 1.25244,0.952149 0.36621,-1.296387 0.6958,-3.178711 -0.0732,1.179199 -0.007,4.035644 0.30761,0.476074 0.51269,1.003418 0.2124,0.52002 0.30762,1.091309 0.0586,0.395508 0.0732,0.805664 0.0146,0.402832 -0.0439,0.805664 h 3.44239 q 0.24902,0.08057 1.33301,0.358887 -1.77979,0.541992 -1.33301,0.388183 h -3.64014 q -0.16846,0.439453 -0.46875,0.783692 0.35889,0.124511 0.6958,0.292968 0.33692,0.161133 0.60059,0.373536 0.26367,0.205078 0.43213,0.461425 0.17578,0.249024 0.20507,0.556641 0.0146,0.124512 0,0.256348 -0.0146,0.131836 -0.0293,0.263672 -0.0146,0.175781 -0.14649,0.36621 -0.12451,0.19043 -0.30029,0.366211 -0.16846,0.168457 -0.35156,0.307618 -0.18311,0.13916 -0.31494,0.205078 -0.21241,0.109863 -0.42481,0.219726 -0.20508,0.102539 -0.4248,0.19043 v 2.827148 q 0.49072,0.05127 1.04004,0.197754 0.13183,0.03662 0.29296,0.08057 0.16846,0.04395 0.32227,0.109863 0.16113,0.06592 0.29297,0.161133 0.13184,0.09521 0.19775,0.227051 0.0733,0.124511 0.10987,0.27832 0.0366,0.146484 0.0146,0.292969 -0.0439,0.307617 -0.20507,0.454101 -0.15381,0.146485 -0.38086,0.197754 -0.21973,0.04394 -0.4834,0.0293 -0.25635,-0.02197 -0.50537,-0.04394 -0.19043,-0.01465 -0.35889,-0.0293 -0.16846,-0.01465 -0.32959,-0.03662 0.0586,1.464843 0.62256,2.094726 0.62988,0.710449 1.77246,0.812989 2.40967,0 3.06152,-2.277832 0.10254,-0.139161 0.43213,-1.26709 0.20508,1.391601 0.25635,1.450195 0,1.472168 -1.4209,2.299805 -1.41357,0.82031 -2.95898,0.82031 -4.89258,0 -4.89258,-3.933103 v -0.834961 q -0.4834,0.439453 -0.80566,1.069336 -0.32227,0.629883 -0.61524,1.384277 -0.0659,0.175781 -0.13916,0.366211 -0.0732,0.183105 -0.13183,0.380859 -0.0513,0.19043 -0.0806,0.388184 -0.022,0.19043 0,0.380859 0.0366,0.278318 0.20508,0.534668 0.16845,0.26367 0.3955,0.49072 0.23438,0.23438 0.49073,0.41748 0.25635,0.18311 0.47607,0.3003 0.57129,0.30761 1.20117,0.48339 0.62989,0.17579 1.28174,0.26368 0.65918,0.0952 1.31836,0.13916 0.65918,0.0439 1.28906,0.0952 0.40284,0.0293 0.62989,0.0439 0.22705,0.022 0.35888,0.0293 0.13916,0.0147 0.23438,0.022 0.0952,0.0147 0.21972,0.0293 0.13184,0.022 0.33692,0.0513 0.2124,0.0366 0.58594,0.0879 0.14648,0.0439 0.19775,0.13916 0.0586,0.10254 0.0366,0.20508 -0.022,0.10254 -0.11719,0.16846 -0.0879,0.0732 -0.2417,0.0586 -0.62988,-0.0952 -1.26709,-0.16113 -0.6372,-0.0659 -1.27441,-0.12451 -0.63721,-0.0586 -1.27441,-0.13184 -0.62989,-0.0659 -1.25977,-0.17578 -0.24902,-0.0439 -0.60058,-0.12451 -0.34424,-0.0732 -0.70313,-0.17578 -0.35156,-0.0952 -0.68115,-0.22705 -0.32959,-0.13184 -0.54932,-0.28565 -0.28564,-0.20508 -0.56396,-0.41748 -0.271,-0.20508 -0.50537,-0.44678 -0.22706,-0.24169 -0.40284,-0.53466 -0.17578,-0.28565 -0.26367,-0.659183 -0.0439,-0.197754 -0.022,-0.41748 0.022,-0.219727 0.0806,-0.432129 0.0586,-0.212403 0.13916,-0.417481 0.0806,-0.212402 0.14648,-0.388183 0.13184,-0.351563 0.29297,-0.732422 0.16113,-0.38086 0.35889,-0.74707 0.20507,-0.366211 0.4541,-0.703125 0.24902,-0.336915 0.54931,-0.600586 -0.11718,-0.109864 -0.20507,-0.249024 -0.0806,-0.146484 -0.18311,-0.27832 -0.11719,-0.153809 -0.15381,-0.38086 -0.0293,-0.234375 0,-0.483398 0.0293,-0.249023 0.10254,-0.46875 0.0732,-0.219727 0.17578,-0.351562 0.0879,-0.117188 0.20508,-0.300293 0.12451,-0.183106 0.27832,-0.373536 v -3.97705 q -0.14648,-0.05859 -0.24902,-0.117188 -0.0733,-0.03662 -0.18311,-0.08789 -0.10254,-0.05127 -0.19775,-0.117188 -0.0952,-0.07324 -0.16846,-0.153809 -0.0659,-0.08789 -0.0732,-0.190429 -0.007,-0.13916 0.0659,-0.227051 0.0806,-0.09521 0.20507,-0.146484 0.12452,-0.05127 0.27832,-0.06592 0.16114,-0.01465 0.32227,-0.01465 v -0.197754 l -3.61816,0.04395 q 1.40625,-0.541993 2.68066,-1.120606 1.27441,-0.578613 2.22656,-1.838379 0.44678,-0.585937 0.84229,-1.82373 -0.43946,-0.483399 -0.9961,-0.834961 -0.54931,-0.358887 -1.1792,-0.578613 -0.24169,-0.08057 -0.49804,-0.139161 -0.24903,-0.05859 -0.49805,-0.124511 -0.20508,-0.05127 -0.44678,-0.05859 -0.23437,-0.0073 -0.47607,-0.0293 -0.23438,-0.0293 -0.44678,-0.09522 -0.20508,-0.07324 -0.35156,-0.256347 z m 5.97656,8.041992 q -0.0366,-0.0073 -0.0952,-0.03662 v 3.142089 q 0.35888,-0.13916 0.70312,-0.358886 0.21973,-0.131836 0.41016,-0.300293 0.31494,-0.278321 0.43945,-0.534668 0.12451,-0.263672 0.10254,-0.498047 -0.0147,-0.241699 -0.16113,-0.446777 -0.13916,-0.212403 -0.35889,-0.388184 -0.2124,-0.183105 -0.49072,-0.322266 -0.271,-0.146484 -0.54932,-0.256347 z m -0.0952,7.873535 q 0.17578,0.01465 0.35156,0.0293 0.1831,0.0073 0.35889,0.02197 0.11718,0.0073 0.32226,0.0293 0.20508,0.02197 0.40283,0.0073 0.19776,-0.01465 0.33692,-0.09521 0.14648,-0.08057 0.13916,-0.278321 0,-0.05859 -0.0147,-0.168457 -0.007,-0.117187 -0.0586,-0.175781 -0.0952,-0.131836 -0.32959,-0.227051 -0.22705,-0.09522 -0.50538,-0.168457 -0.27099,-0.07324 -0.54931,-0.117187 -0.271,-0.05127 -0.4541,-0.07324 V 96.25 Z m -3.3545,-2.929688 q -0.16845,0.292969 -0.21972,0.549317 -0.044,0.256347 -0.007,0.483398 0.044,0.227051 0.16114,0.424805 0.12451,0.19043 0.30029,0.351562 v -2.182617 q -0.0586,0.08057 -0.11719,0.175781 -0.0586,0.09521 -0.11719,0.197754 z m 3.25928,-9.484863 q 0.0366,1.186524 0.0952,2.607422 h 0.26367 q 0.11719,-0.644531 0.007,-1.318359 -0.10986,-0.681153 -0.36621,-1.289063 z m -3.4497,3.991699 q 0.10253,0.07324 0.20507,0.131836 0.10987,0.05859 0.21973,0.117188 V 87.8125 q -0.12451,0 -0.23438,0.01465 -0.10986,0.0073 -0.19042,0.0293 z m 3.54492,-0.563965 0.0293,-0.07324 h -0.0293 z" />
      <path
         id="path22"
         style=""
         d="m 155.62012,83.26416 q -0.15381,-0.01465 -0.22705,-0.102539 -0.0659,-0.09521 -0.0659,-0.197754 0.007,-0.102539 0.0879,-0.183105 0.0806,-0.08789 0.23437,-0.09521 1.83838,0.05859 3.64746,0.205078 1.80909,0.146484 3.63282,0.366211 0.46142,0.05127 0.98144,0.117187 0.52735,0.06592 1.06201,0.146485 0.53467,0.07324 1.05469,0.161133 0.52735,0.08789 0.98877,0.175781 0.38819,0.07324 0.76172,0.168457 0.38086,0.08789 0.76904,0.175781 0.18311,0.04394 0.39551,0.117188 0.2124,0.06592 0.42481,0.161132 0.2124,0.09521 0.41748,0.205079 0.20507,0.102539 0.38086,0.212402 0.0732,0.04394 0.13183,0.13916 0.0659,0.08789 0.0806,0.19043 0.022,0.09521 -0.0147,0.183105 -0.0366,0.08789 -0.16113,0.117188 -0.21241,0.05859 -0.42481,0.124511 -0.20508,0.06592 -0.4248,0.07324 -0.98877,0.03662 -1.97754,0.02197 -0.98145,-0.01465 -1.97022,-0.04394 -0.98877,-0.03662 -1.97754,-0.08057 -0.98144,-0.04395 -1.97021,-0.07324 -0.29297,-0.0073 -0.71045,-0.02197 -0.41748,-0.01465 -0.87158,-0.01465 -0.44678,0 -0.88623,0.01465 -0.43213,0.0073 -0.76172,0.05127 -0.11719,0.01465 -0.22705,0.06592 -0.10254,0.05127 -0.2124,0.09521 -0.0293,0.234375 0.0879,0.46875 0.12451,0.227051 0.30761,0.439453 0.19043,0.212403 0.40284,0.395508 0.2124,0.175781 0.37353,0.314941 l 0.24902,0.205079 q 0.79102,-0.46875 1.83838,-0.725098 1.49414,-0.366211 3.09815,-0.366211 3.01758,0.03662 4.87793,2.395019 0.81299,1.303711 0.37353,0.439454 -0.43945,-0.864258 0.41016,0.571289 0.32226,0.541992 0.41016,1.142578 l 0.2124,0.08789 q 0.38086,0.08057 0.73974,0.219727 0.36621,0.131836 0.71778,0.336914 0.27099,0.161133 0.34424,0.373535 0.0806,0.212403 0.022,0.424805 -0.0586,0.212402 -0.23438,0.410156 -0.16845,0.19043 -0.38818,0.314942 -0.26367,0.153808 -0.52734,0.322265 -0.25635,0.161133 -0.53467,0.285645 -0.78369,0.351562 -1.64795,0.541992 -0.86426,0.183105 -1.76514,0.27832 -0.89355,0.09521 -1.78711,0.13916 -0.89355,0.03662 -1.72851,0.09521 -0.41016,0.0293 -0.82764,0.05859 -0.41016,0.0293 -0.82031,0.08057 -0.40283,0.05127 -0.80567,0.139161 -0.3955,0.08789 -0.78369,0.234375 -0.25635,0.09521 -0.52734,0.190429 -0.26367,0.09521 -0.53467,0.197754 0.4834,1.237793 1.31836,1.977539 l 0.0366,0.0293 0.47607,-0.578613 q 0.10254,-0.117188 0.29297,-0.249024 0.19776,-0.131836 0.43946,-0.241699 0.2417,-0.117187 0.50537,-0.197754 0.27099,-0.08789 0.52734,-0.109863 0.25635,-0.02197 0.4834,0.03662 0.22705,0.05127 0.38086,0.205078 0.0732,0.06592 0.0952,0.175781 0.0293,0.102539 0.0293,0.219727 0.007,0.117187 -0.007,0.234375 -0.007,0.109863 -0.0147,0.19043 -0.007,0.183105 -0.0293,0.366211 -0.0146,0.183105 -0.0146,0.373535 0,0.197754 0,0.395508 0.007,0.190429 -0.0293,0.380859 0.64453,0.06592 1.38427,0.05127 3.03955,0.109864 5.15625,-2.607421 0.54932,-1.010743 0.7544,-1.333008 0.17578,0 0,0.878906 0,0.117188 -0.11719,0.483398 -0.78369,1.303711 -2.02881,2.241211 -1.23779,0.930176 -2.73193,1.398924 -1.49414,0.46875 -3.06885,0.46875 -0.65918,0 -1.27441,-0.0879 l -0.17578,0.0293 q 0.25634,0.30029 0.60791,0.50537 0.35156,0.2124 0.73974,0.35889 0.39551,0.14648 0.79102,0.24902 0.40283,0.10254 0.75439,0.17578 2.07276,0.4541 4.17481,0.62256 2.10937,0.16846 4.22607,0.19043 0.13184,0.0366 0.19043,0.11719 0.0586,0.0879 0.0513,0.1831 0,0.0952 -0.0732,0.17578 -0.0659,0.0806 -0.19776,0.10254 -1.8457,-0.0293 -3.66943,-0.16845 -1.81641,-0.13184 -3.64014,-0.46875 -0.56396,-0.10254 -1.1206,-0.21973 -0.55664,-0.10986 -1.09131,-0.27832 -0.53467,-0.16846 -1.03272,-0.42481 -0.49804,-0.25634 -0.93017,-0.65185 -0.10254,-0.0879 -0.19775,-0.19043 -0.0952,-0.10254 -0.19776,-0.2124 -0.27832,0.0146 -0.56396,0.0146 -0.28565,0 -0.57129,-0.007 -0.26367,-0.007 -0.55664,-0.0147 -0.29297,0 -0.59327,-0.0293 -0.29296,-0.0293 -0.57128,-0.0952 -0.27832,-0.0659 -0.52002,-0.20508 -0.23438,-0.13183 -0.41748,-0.336912 -0.17579,-0.212402 -0.271,-0.527343 -0.0293,-0.117188 -0.0439,-0.227051 -0.0146,-0.117188 -0.0293,-0.234375 -0.0293,-0.161133 -0.022,-0.322266 0.007,-0.161133 0.022,-0.322266 0.0146,-0.190429 0.0366,-0.402832 0.0293,-0.212402 0.0879,-0.424804 -0.0513,-0.08789 -0.10254,-0.175781 -0.95947,-1.684571 -1.04736,-3.75 0.0439,-1.582032 0.71045,-3.032227 0.67382,-1.45752 1.92627,-2.453613 0.13183,-0.109864 0.27099,-0.212403 -0.27099,-0.205078 -0.54931,-0.439453 -0.27832,-0.241699 -0.49073,-0.512695 -0.2124,-0.27832 -0.32959,-0.585938 -0.11718,-0.314941 -0.0732,-0.666504 0.0147,-0.05859 0.0293,-0.08789 0.022,-0.03662 0.0659,-0.07324 0.16113,-0.05859 0.30761,-0.13916 0.15381,-0.08789 0.32227,-0.10254 0.36621,-0.02197 0.64453,-0.03662 0.27832,-0.02197 0.51269,-0.0293 0.2417,-0.0073 0.46143,-0.0073 0.22705,-0.0073 0.47607,0 0.24903,0 0.54932,0.0073 0.30029,0.0073 0.6958,0.01465 0.54932,0.01465 0.9375,0.0293 0.38819,0.0073 0.68848,0.02197 0.30762,0.0073 0.57129,0.02197 0.26367,0.0073 0.57129,0.02197 0.30761,0.0073 0.68847,0.02197 0.38819,0.01465 0.94483,0.0293 0.29297,0.0073 0.73974,0.01465 0.44678,0.0073 0.93018,0.01465 0.4834,0 0.94482,-0.0073 0.46143,-0.0073 0.79102,-0.04394 0.10254,-0.0073 0.19775,-0.0293 0.0952,-0.02197 0.19043,-0.05127 -0.14648,-0.07324 -0.28564,-0.131836 -0.29297,-0.109863 -0.49072,-0.190429 -0.19043,-0.08057 -0.35157,-0.131836 -0.15381,-0.05859 -0.29297,-0.09522 -0.13916,-0.04394 -0.32226,-0.08057 -0.17578,-0.04394 -0.42481,-0.08789 -0.2417,-0.04395 -0.60058,-0.109863 -0.46143,-0.08789 -0.97412,-0.168458 -0.50537,-0.08057 -1.03272,-0.146484 -0.52002,-0.07324 -1.03271,-0.131836 -0.5127,-0.06592 -0.97412,-0.117187 -1.82373,-0.205078 -3.63282,-0.336914 -1.80175,-0.131836 -3.64013,-0.183106 z m 11.77002,8.840332 q -0.022,-0.07324 -0.0366,-0.13916 -0.0147,-0.07324 -0.007,-0.153809 0.007,-0.102539 0.0439,-0.205078 0.0439,-0.102539 0.0806,-0.205078 0.0513,-0.146484 0.18311,-0.234375 0.13183,-0.08789 0.30029,-0.131836 0.16846,-0.05127 0.35156,-0.06592 0.18311,-0.01465 0.33692,-0.01465 -0.007,-0.0293 -0.0147,-0.05127 -0.2417,-0.03662 -0.47607,-0.06592 -0.23438,-0.03662 -0.46875,-0.07324 -0.49073,-0.06592 -0.98877,-0.102539 -0.49073,-0.04394 -0.98877,-0.08057 -0.49073,-0.03662 -0.98877,-0.08789 -0.49073,-0.05127 -0.98145,-0.146484 -0.46142,-0.08789 -0.93017,-0.256348 -0.46875,-0.168457 -0.93018,-0.380859 -0.4541,-0.219727 -0.90088,-0.476075 -0.43945,-0.256347 -0.85693,-0.534668 -1.01807,0.915528 -1.36963,1.875 0.022,0.161133 -0.24902,1.545411 z m -4.21143,-4.533691 q -1.6333,0 -2.73926,0.856933 l 0.16114,0.109864 q 0.43945,0.27832 0.88623,0.527343 0.44677,0.249024 0.91552,0.461426 0.63721,0.27832 1.30371,0.417481 0.66651,0.13916 1.34034,0.219726 0.68115,0.07324 1.3623,0.124512 0.68115,0.05127 1.36231,0.146484 0.1831,0.0293 0.35888,0.05127 0.17578,0.02197 0.35889,0.05859 -0.30762,-0.65918 -1.06934,-1.552735 -1.47216,-1.699219 -4.24072,-1.420898 z m -4.39453,5.844726 q 0.13184,1.113282 0.43213,1.999512 0.24902,-0.109863 0.52002,-0.212402 0.27099,-0.109864 0.52002,-0.197754 0.25635,-0.08789 0.47607,-0.153809 0.22705,-0.06592 0.39551,-0.08789 0.30762,-0.04395 0.52002,-0.07324 0.2124,-0.03662 0.38086,-0.05859 0.16846,-0.0293 0.30762,-0.04395 0.14648,-0.01465 0.31494,-0.02197 0.17578,-0.01465 0.3955,-0.0293 0.22706,-0.01465 0.54932,-0.03662 0.35156,-0.02197 0.70313,-0.03662 0.35156,-0.02197 0.70312,-0.03662 0.33692,-0.02197 0.70313,-0.04395 0.36621,-0.0293 0.73974,-0.05859 0.37354,-0.0293 0.73975,-0.06592 0.36621,-0.03662 0.6958,-0.08789 0.56396,-0.08789 1.01807,-0.183106 0.4541,-0.102539 0.86425,-0.241699 0.41748,-0.146484 0.82764,-0.344238 0.41748,-0.197754 0.90088,-0.490723 0.0659,-0.04394 0.14648,-0.109863 0.0879,-0.06592 0.15381,-0.146484 0.0732,-0.08057 0.12451,-0.168457 0.0513,-0.08789 0.0586,-0.175782 0.007,-0.117187 -0.0586,-0.212402 -0.0586,-0.09521 -0.16113,-0.168457 -0.10254,-0.08057 -0.22705,-0.13916 -0.12451,-0.05859 -0.23437,-0.102539 0.24169,0.256347 0.26367,0.549316 0.022,0.263672 -0.0879,0.439453 -0.10987,0.168457 -0.29297,0.270996 -0.18311,0.102539 -0.41016,0.146485 -0.22705,0.04395 -0.44678,0.05859 -0.27832,0.01465 -0.55664,0.05859 -0.27832,0.03662 -0.54931,-0.01465 l -0.19043,-0.03662 z m 2.29248,4.636231 q 0.93018,0.629883 2.32178,0.849609 0.0366,-0.183105 0.022,-0.373535 -0.007,-0.197754 -0.007,-0.380859 0,-0.300293 0.0366,-0.593262 0.0366,-0.300293 0,-0.600586 -0.0586,-0.0293 -0.11719,-0.05859 -0.0586,-0.03662 -0.12451,-0.04394 -0.27832,-0.02197 -0.59326,0.05859 -0.30762,0.08057 -0.60059,0.249023 -0.29297,0.161133 -0.54199,0.395508 -0.2417,0.227051 -0.39551,0.498047 z m -1.58936,1.589355 q -1.25244,-0.710449 -2.0874,-1.801758 -0.0879,0.439454 -0.0732,0.900879 0.022,0.454102 0.2417,0.79834 0.14648,0.227051 0.37353,0.351563 0.23438,0.117183 0.49073,0.168453 0.26367,0.0586 0.53467,0.0659 0.27832,0.0147 0.51269,0.022 0.28564,0.007 0.58594,0.0147 0.30762,0.007 0.61523,0.007 -0.62988,-0.205081 -1.19385,-0.527347 z m 10.77393,-8.24707 q 0.0293,0.695801 -0.23437,1.464844 l 0.24902,-0.02197 q 0.11719,-0.0073 0.27832,-0.02197 0.16113,-0.01465 0.30762,-0.05859 0.14648,-0.05127 0.24902,-0.131836 0.10986,-0.08789 0.12451,-0.2417 0.0146,-0.146484 -0.0293,-0.256347 -0.0439,-0.109863 -0.13183,-0.197754 -0.0879,-0.08789 -0.20508,-0.161133 -0.10986,-0.08057 -0.2417,-0.168457 -0.0879,-0.05859 -0.1831,-0.109863 -0.0879,-0.05127 -0.18311,-0.09522 z m -1.56738,-0.168457 q -0.0659,0 -0.13916,0.0073 -0.0659,0 -0.12451,0.0073 -0.13184,0.01465 -0.271,0.04395 -0.13184,0.0293 -0.24902,0.09521 -0.10987,0.06592 -0.18311,0.175781 -0.0732,0.109863 -0.0732,0.270996 -0.007,0.13916 0.0513,0.285644 0.9375,0.02197 0.9375,-0.461425 z" />
      <path
         id="path24"
         style=""
         d="m 172.97119,83.989258 q -0.15381,-0.01465 -0.22705,-0.102539 -0.0659,-0.09521 -0.0659,-0.197754 0.007,-0.102539 0.0879,-0.183106 0.0806,-0.08789 0.23438,-0.09521 0.73974,0 1.51611,0.01465 0.77637,0.0073 1.53076,0.08789 0.76172,0.08057 1.4795,0.256347 0.72509,0.168457 1.3623,0.498047 0.63721,0.32959 1.15723,0.842285 0.52734,0.512696 0.89355,1.26709 0.32959,-0.285644 0.79102,-0.498047 0.46875,-0.212402 0.96679,-0.351562 0.50537,-0.146485 0.9961,-0.219727 0.49804,-0.08057 0.88623,-0.109863 0.35156,-0.0293 0.80566,-0.04395 0.46143,-0.02197 0.9668,-0.01465 0.50537,0.0073 1.01807,0.05127 0.52001,0.04394 0.99609,0.146484 0.47607,0.09522 0.87158,0.263672 0.40283,0.161133 0.66651,0.402832 l 0.28564,0.256348 q 0.29297,-0.2417 0.6958,-0.373536 0.40283,-0.131835 0.85693,-0.190429 0.46143,-0.05859 0.94483,-0.05127 0.49072,0.0073 0.95215,0.05127 0.46875,0.04394 0.8789,0.109863 0.41748,0.05859 0.73242,0.117188 0.17579,0.03662 0.46143,0.08789 0.29297,0.05127 0.60059,0.131836 0.30761,0.07324 0.57861,0.183106 0.271,0.109863 0.41016,0.256347 0.13916,0.146485 0.2124,0.32959 0.0806,0.183106 0.1831,0.351563 0.10254,0.168457 0.21241,0.336914 0.10986,0.161132 0.2124,0.329589 0.31494,0.527344 0.41748,0.981446 0.10986,0.446777 -0.0147,0.820312 -0.11719,0.373535 -0.46875,0.673828 -0.34424,0.292969 -0.94482,0.505372 -0.12452,0.04394 -0.24903,0.08057 -0.12451,0.03662 -0.24902,0.06592 v 1.413574 l 0.35889,0.03662 q 0.0952,0.0073 0.24902,0.02197 0.15381,0.0073 0.30762,0.04394 0.16113,0.0293 0.29297,0.102539 0.13183,0.06592 0.19043,0.19043 0.0513,0.102539 0.022,0.241699 -0.0293,0.13916 -0.0952,0.27832 -0.0659,0.139161 -0.15381,0.256348 -0.0879,0.117188 -0.16113,0.183106 -0.12451,0.102539 -0.27099,0.161132 -0.13916,0.05127 -0.28565,0.117188 -0.10986,0.05127 -0.22705,0.08057 -0.10986,0.02197 -0.22705,0.03662 v 1.157227 q 0,1.611328 0.16113,2.402344 0.16846,0.791015 0.5127,1.091308 0.34424,0.292969 0.97412,0.454102 0.63721,0.161133 1.42822,0.212402 0.98145,0.651856 0.60059,0.424805 -0.65918,0.08057 -5.58838,0.03662 0.27832,0.10254 0.54931,0.20508 0.27833,0.10986 0.55665,0.23437 0.1831,0.0806 0.41748,0.27832 0.23437,0.19776 0.46875,0.42481 0.2417,0.23437 0.4541,0.46142 0.2124,0.22705 0.35156,0.37354 0.19043,0.19775 0.38818,0.39551 0.19776,0.20508 0.38086,0.41748 0.18311,0.2124 0.33692,0.43945 0.16113,0.23438 0.27099,0.49072 0.0439,0.14649 -0.0146,0.24903 -0.0513,0.10254 -0.14648,0.13916 -0.0952,0.0366 -0.20508,-0.007 -0.10986,-0.0366 -0.1831,-0.16845 -0.10254,-0.22706 -0.24903,-0.43946 -0.13916,-0.2124 -0.30761,-0.41015 -0.16846,-0.19776 -0.35157,-0.38819 -0.1831,-0.1831 -0.35156,-0.35888 -0.21973,-0.23438 -0.44678,-0.47608 -0.21972,-0.23437 -0.46142,-0.4541 -0.2417,-0.2124 -0.5127,-0.39551 -0.26367,-0.17578 -0.57129,-0.30029 -0.41748,-0.16846 -0.9375,-0.33691 -0.52002,-0.16846 -1.04004,-0.380864 -0.98144,-0.01465 -2.09472,-0.0293 0.2124,-0.175781 0.49072,-0.380859 0.37354,0 0.6665,-0.08057 -0.37353,-0.249023 -0.64453,-0.563965 -0.26367,-0.314941 -0.38086,-0.74707 -0.0439,-0.175781 -0.022,-0.454102 0.022,-0.27832 0.0806,-0.571289 0.0586,-0.300293 0.13183,-0.571289 0.0806,-0.270996 0.14649,-0.446777 0.0293,-0.263672 0.0439,-0.593262 0.022,-0.336914 0.0586,-0.666504 0.0439,-0.336914 0.12451,-0.629883 0.0879,-0.292968 0.24902,-0.476074 -0.17578,-0.06592 -0.35888,-0.153808 -0.18311,-0.09522 -0.34424,-0.212403 -0.16114,-0.124511 -0.28565,-0.270996 -0.11718,-0.153808 -0.17578,-0.344238 -0.0293,-0.102539 -0.0147,-0.205078 0.022,-0.109863 0.0586,-0.219727 0.0439,-0.109863 0.0879,-0.212402 0.0513,-0.109863 0.0806,-0.212402 0.0513,-0.161133 0.20508,-0.292969 0.15381,-0.13916 0.34424,-0.249024 0.19043,-0.109863 0.38086,-0.183105 0.19043,-0.08057 0.31494,-0.13916 0.25635,-0.109864 0.60059,-0.161133 0.34424,-0.05127 0.73974,-0.07324 v -0.512696 q 0,-2.819824 -1.76513,-2.819824 -0.3003,0 -0.67383,0.08057 0.12451,0.351562 0.13183,0.754394 0.0147,0.102539 -0.0586,0.161133 -0.0147,0.01465 -0.0586,0.05127 -0.0366,0.0293 -0.0879,0.06592 -0.044,0.03662 -0.0952,0.06592 -0.0513,0.0293 -0.0952,0.0293 -0.14649,0 -0.27832,-0.06592 -0.13184,-0.06592 -0.26368,-0.117187 -0.1831,-0.06592 -0.30761,-0.197754 -0.12451,-0.131836 -0.20508,-0.300293 -0.9961,0.424805 -2.29981,1.186523 v 6.774903 q 0,1.647949 0.34424,2.548828 0.35156,0.893555 1.32569,0.893555 0.85693,0.256347 0.83496,0.512695 -4.70215,-0.03662 -8.27637,0.07324 0.0659,-0.139159 0.64453,-0.541991 0.74707,-0.04395 1.10596,-0.307617 0.36621,-0.270996 0.64453,-0.9375 0.28564,-0.673828 0.28564,-2.1167 v -5.910644 q 0,-2.761231 -1.77246,-2.761231 -0.57861,0 -1.25976,0.249024 0.0806,0.336914 0.11718,0.673828 0.0366,0.336914 0.0513,0.688477 0.007,0.183105 -0.0146,0.388183 -0.022,0.205078 -0.16114,0.336914 -0.0586,0.03662 -0.10986,0.04395 -0.0439,0.0073 -0.11719,0 -0.2417,-0.124512 -0.43213,-0.351563 -0.19043,-0.234375 -0.30029,-0.483398 -0.0952,-0.212403 -0.16846,-0.388184 -0.0659,-0.175781 -0.10254,-0.336914 -0.75439,0.395508 -1.69921,0.952148 v 6.386719 q 0,2.145996 0.32959,2.988281 0.32959,0.842286 1.41357,0.842286 0.84228,0.358886 0.90088,0.549316 -2.54883,-0.04394 -9.11133,-0.0073 0.0806,-0.183106 0.56397,-0.410156 0.35888,0 0.56396,-0.212403 0.83496,-0.03662 1.27441,-0.285644 0.44678,-0.249024 0.6958,-1.098633 0.24903,-0.856934 0.24903,-2.666016 V 91.75293 q 0,-1.948243 -0.52735,-2.53418 -0.52734,-0.585938 -1.50878,-0.585938 h -0.60059 q 0.0806,-0.0293 -0.84229,0.05127 0.11719,-0.175781 0.68848,-0.600586 1.56006,-0.483398 2.92236,-0.754394 1.36231,-0.278321 1.88965,-0.65918 -0.0513,0.256348 1.12061,-1.032715 -0.0879,0.944824 -0.022,1.069336 v 1.801758 q 0.9082,-0.541992 1.69921,-0.981446 0.0952,-0.322265 0.41016,-0.74707 l -0.12451,-0.263672 q -0.33692,-0.673828 -0.84229,-1.127929 -0.50537,-0.454102 -1.1206,-0.732422 -0.61524,-0.285645 -1.31836,-0.424805 -0.6958,-0.13916 -1.41358,-0.19043 -0.71777,-0.05859 -1.42822,-0.05127 -0.71045,0 -1.35498,0 z m 14.55322,4.460449 q 1.01807,-0.637207 2.16065,-1.201172 0.0147,-0.212402 0.0732,-0.402832 0.0659,-0.19043 0.18311,-0.336914 -0.2417,-0.212402 -0.5127,-0.380859 -0.271,-0.168457 -0.54199,-0.270996 -0.5127,-0.197754 -1.06934,-0.234375 -0.54931,-0.03662 -1.09131,-0.05127 -0.65185,-0.02197 -1.34033,-0.01465 -0.68847,0 -1.36963,0.09521 -0.68115,0.09521 -1.333,0.307618 -0.64454,0.205078 -1.20118,0.593261 -0.1831,0.131836 -0.34423,0.278321 0.0146,0.03662 0.022,0.07324 0.0146,0.0293 0.0293,0.06592 0.36622,-0.183106 0.68848,-0.344238 1.41358,-0.695801 2.55615,-0.695801 1.34034,0.04394 2.09473,0.629883 0.76172,0.578613 0.99609,1.889648 z m 5.91065,9.42627 q 0.14648,-0.71045 0.14648,-1.92627 v -1.772461 q -0.30761,-0.03662 -0.60058,-0.09521 -0.28565,-0.06592 -0.57129,-0.146484 -0.15381,0.205078 -0.22705,0.439453 -0.0659,0.234375 -0.10254,0.490723 -0.0293,0.256347 -0.0439,0.549316 -0.0147,0.285645 -0.0513,0.600586 -0.0293,0.234375 -0.0952,0.461426 -0.0659,0.219726 -0.13184,0.446777 -0.0586,0.227051 -0.10986,0.454102 -0.0439,0.22705 -0.0439,0.46875 0,0.234375 0.0879,0.432129 0.0952,0.197753 0.2417,0.366211 0.15381,0.168457 0.35157,0.314941 0.19775,0.146484 0.41748,0.263672 0.0732,-0.06592 0.13916,-0.13916 0.44677,-0.498047 0.59326,-1.208496 z m 3.17871,-7.155762 q 0.26367,-0.05859 0.54932,-0.161133 0.29296,-0.109863 0.53466,-0.270996 0.2417,-0.161133 0.41016,-0.380859 0.16846,-0.219727 0.19043,-0.512696 0.0147,-0.175781 -0.022,-0.351562 -0.0293,-0.175782 -0.0952,-0.344239 -0.0659,-0.175781 -0.15381,-0.329589 -0.0806,-0.161133 -0.16845,-0.307618 -0.0146,-0.02197 -0.0733,-0.124511 -0.0586,-0.109864 -0.14648,-0.249024 -0.0806,-0.13916 -0.17578,-0.300293 -0.0952,-0.161133 -0.19043,-0.300293 -0.0879,-0.146484 -0.16113,-0.249023 -0.0733,-0.102539 -0.10987,-0.124512 -0.17578,-0.124512 -0.38818,-0.168457 -0.2124,-0.04395 -0.42481,-0.09522 -0.65917,-0.161133 -1.34033,-0.285644 0.49073,0.175781 0.89356,0.483398 0.87158,0.65918 0.87158,2.219238 z m -3.03223,2.01416 v -1.523438 q -0.12451,0.01465 -0.2417,0.02197 -0.11718,0.0073 -0.23437,0.02197 -0.22705,0.0293 -0.4834,0.08789 -0.25635,0.05127 -0.50537,0.153809 -0.2417,0.09521 -0.4541,0.249023 -0.2124,0.146485 -0.34424,0.366211 -0.0806,0.131836 -0.10254,0.292969 -0.022,0.153809 -0.0586,0.307617 0.0879,0.109864 0.16113,0.2417 0.0732,0.124511 0.19775,0.205078 0.14649,0.102539 0.32227,0.190429 0.17578,0.08057 0.37353,0.153809 l 0.19043,-0.197754 q 0.14649,-0.146484 0.32959,-0.241699 0.19043,-0.102539 0.38819,-0.168457 z m -2.76123,-6.013184 q 1.32569,-0.585937 2.19727,-0.739746 h -0.15381 q -0.22705,0 -0.49072,0.0073 -0.26368,0.0073 -0.53467,0.04394 -0.271,0.0293 -0.53467,0.08789 -0.25635,0.05127 -0.46875,0.146485 -0.21973,0.09522 -0.39551,0.234375 l 0.0952,0.102539 0.14648,0.175781 q 0.0732,-0.0293 0.13916,-0.05859 z m 5.79346,6.166993 v 0.922851 q 0.19775,-0.0293 0.34424,-0.07324 0.14648,-0.04394 0.25635,-0.131836 0.11718,-0.08789 0.2124,-0.219727 0.0952,-0.13916 0.19775,-0.351562 -0.0586,-0.0293 -0.0952,-0.03662 -0.30762,-0.05127 -0.61524,-0.08789 z m -15.73975,-4.958497 q -0.13916,0.06592 -0.29297,0.139161 0.0366,0.366211 0.27832,0.739746 0.0586,0.09521 0.10987,0.197754 0.0586,0.102539 0.13183,0.197754 0,-0.08057 -0.007,-0.168457 0,-0.09521 -0.007,-0.168458 -0.007,-0.08057 -0.007,-0.168457 -0.0147,-0.205078 -0.0513,-0.402832 -0.0293,-0.205078 -0.0732,-0.402832 -0.0366,0.01465 -0.0806,0.03662 z m 12.37061,5.390625 q -0.33692,0.153809 -0.54932,0.322266 0.2124,0.05859 0.43213,0.09521 0.21973,0.03662 0.4541,0.06592 v -0.615234 q -0.16113,0.05127 -0.33691,0.131835 z m -2.45361,-5.625 q -0.3003,0.08789 -0.63721,0.219727 0.022,0.03662 0.0439,0.07324 0.0293,0.0293 0.0659,0.05859 0.13916,0.131836 0.25635,0.183105 0.11719,0.04395 0.31494,0.117188 0.022,-0.01465 0.0366,-0.0293 0.022,-0.01465 0.0439,-0.0293 -0.007,-0.300293 -0.12451,-0.593262 z m -0.43946,-0.761718 -0.15381,-0.175782 q -0.0366,0.06592 -0.0732,0.146485 -0.0366,0.08057 -0.0586,0.161133 z" />
      <path
         id="path26"
         style=""
         d="m 202.07031,82.971191 q -0.13183,-0.01465 -0.20508,-0.08789 -0.0732,-0.08057 -0.0879,-0.168457 -0.007,-0.09521 0.0439,-0.183106 0.0586,-0.09522 0.1831,-0.13916 0.27832,-0.0073 0.55665,-0.05127 0.27832,-0.05127 0.55664,-0.09521 0.28564,-0.05127 0.56396,-0.08057 0.27832,-0.0293 0.56397,-0.01465 1.72119,0.102539 3.33251,0.600586 1.61866,0.490722 3.09083,1.391601 0.2124,0.131836 0.38085,0.263672 0.17579,0.131836 0.31495,0.278321 0.0586,-0.01465 0.11718,-0.0293 0.0659,-0.01465 0.12452,-0.03662 0.1538,-0.05127 0.31494,-0.05859 0.16113,-0.0073 0.32226,0.0073 0.16114,0.01465 0.32227,0.03662 0.16113,0.01465 0.31494,0.02197 0.35889,0.0073 0.68848,0.161133 0.33691,0.146484 0.65918,0.307617 0.6958,0.344238 1.333,0.827637 0.63721,0.483398 1.18653,1.07666 0.54931,0.593261 0.98877,1.26709 0.44677,0.673828 0.74707,1.384277 0.0586,0.146484 0.12451,0.351562 0.0659,0.197754 0.13183,0.439454 0.0659,0.241699 0.11719,0.505371 0.0513,0.256347 0.0732,0.520019 0.10987,0.109863 0.21973,0.234375 0.11719,0.117188 0.19775,0.241699 0.0806,0.117188 0.12452,0.234375 0.0513,0.117188 0.0293,0.219727 -0.0293,0.161133 -0.0366,0.336914 0,0.175781 -0.10254,0.307617 -0.0879,0.124512 -0.17578,0.249024 -0.0806,0.124511 -0.19775,0.22705 -0.19776,0.168457 -0.43946,0.292969 -0.23437,0.117188 -0.50537,0.205078 -0.10986,0.886231 -0.35888,1.677246 0.11718,0.139161 0.24902,0.38086 0.13916,0.234375 0.2417,0.498047 0.10986,0.256347 0.16113,0.512695 0.0513,0.249023 0,0.424805 -0.0293,0.102539 -0.0659,0.197754 -0.0293,0.08789 -0.0659,0.190429 -0.0439,0.13916 -0.19043,0.249024 -0.13916,0.102539 -0.27832,0.13916 -0.39551,0.102539 -0.7837,0.124512 -0.38085,0.01465 -0.78369,-0.03662 -0.3955,0.446778 -0.83496,0.791016 0.2124,0.388184 0.43946,0.761719 0.22705,0.366212 0.43945,0.761722 0.2124,0.3955 0.41748,0.78369 0.2124,0.39551 0.44678,0.78369 0.16845,0.26367 0.35888,0.50537 0.19776,0.2417 0.38819,0.49805 0.26367,0.35156 0.52734,0.68847 0.26367,0.34424 0.56397,0.66651 0.0879,0.12451 0.0659,0.23437 -0.0146,0.11719 -0.0952,0.18311 -0.0732,0.0659 -0.19043,0.0659 -0.11719,0 -0.22705,-0.10987 -0.30029,-0.32226 -0.56397,-0.6665 -0.25634,-0.34424 -0.51269,-0.6958 -0.19776,-0.27832 -0.41016,-0.54199 -0.20508,-0.26368 -0.38086,-0.54932 -0.28564,-0.46143 -0.52002,-0.94482 -0.23437,-0.4834 -0.51269,-0.95215 -0.16846,-0.28565 -0.33692,-0.57129 -0.16845,-0.285647 -0.32959,-0.58594 -1.40625,0.92285 -3.14941,0.9375 -1.39893,0 -2.31445,-0.41748 -0.90821,-0.410156 -1.33301,-0.864258 -0.41748,-0.461426 -1.03272,-1.296387 v 4.138185 q 0,1.61865 0.21973,2.45361 0.21973,0.84229 0.62256,1.12793 0.41016,0.28565 1.03271,0.44678 0.62989,0.16846 1.43555,0.1831 0.70313,0.32959 0.70313,0.41749 -0.39551,-0.0806 -10.43702,-0.0586 0,-0.29297 0.49073,-0.37353 0.68115,-0.0293 1.08398,-0.21241 0.40283,-0.17578 0.82031,-0.40283 0.41748,-0.21972 0.65918,-0.84961 0.24903,-0.62256 0.24903,-1.83105 V 90.852051 q 0,-1.069336 -0.31494,-1.567383 -0.31495,-0.498047 -0.80567,-0.60791 -0.49072,-0.109863 -1.39892,-0.109863 -0.80567,0 -0.84961,0.109863 0.022,-0.439453 0.84961,-0.915528 1.07666,-0.09521 2.40234,-0.55664 1.32568,-0.46875 2.27783,-1.032715 0.78369,-0.88623 0.98877,-1.369629 0.0659,0.688477 -0.0293,1.669922 v 2.094727 q 0.68848,-1.333008 1.83838,-2.014161 0.52002,-0.307617 1.09864,-0.476074 0.022,-0.19043 0.10253,-0.358887 0.0806,-0.168457 0.19776,-0.307617 0.11719,-0.146484 0.25635,-0.270996 0.14648,-0.124512 0.30029,-0.227051 -0.10254,-0.08789 -0.21973,-0.168457 -0.10986,-0.08789 -0.23437,-0.175781 -0.67383,-0.446777 -1.42823,-0.776367 -0.74707,-0.336914 -1.54541,-0.556641 -0.79101,-0.227051 -1.61132,-0.351562 -0.81299,-0.124512 -1.61133,-0.168457 -0.271,-0.01465 -0.54199,0.02197 -0.26368,0.0293 -0.53467,0.08057 -0.26367,0.05127 -0.53467,0.102539 -0.26367,0.04394 -0.53467,0.05127 z m 9.19922,16.728516 q 1.98486,-0.0293 2.97363,-1.699219 l -0.022,-0.05127 q -0.22705,-0.08057 -0.33691,-0.168457 -0.10987,-0.09521 -0.16846,-0.234375 -0.0586,-0.146485 -0.10986,-0.351563 -0.0513,-0.212402 -0.15381,-0.527344 -0.0659,-0.205078 -0.13184,-0.41748 -0.0659,-0.212402 -0.0732,-0.424805 0,-0.336914 0.0879,-0.498047 0.0879,-0.161132 0.2417,-0.256347 0.15381,-0.09521 0.35156,-0.161133 0.20508,-0.07324 0.42481,-0.227051 0.15381,-0.102539 0.29297,-0.219726 0.14648,-0.124512 0.31494,-0.205079 0.10254,-0.04395 0.20508,-0.08057 0.10986,-0.03662 0.21972,-0.07324 0.0293,-0.270996 0.0439,-0.549317 -0.23438,-0.168457 -0.44678,-0.373535 -0.20508,-0.205078 -0.40283,-0.402832 -0.13916,-0.13916 -0.30762,-0.292968 -0.16846,-0.153809 -0.30762,-0.322266 -0.13916,-0.175781 -0.20507,-0.366211 -0.0659,-0.19043 0.007,-0.410156 0.0366,-0.117188 0.14648,-0.212403 0.10987,-0.09521 0.2417,-0.168457 0.13184,-0.07324 0.26368,-0.131836 0.13916,-0.05859 0.22705,-0.102539 0.27099,-0.13916 0.52002,-0.219726 -0.29297,-1.179199 -0.92286,-2.116699 -0.85693,-1.281739 -2.17529,-1.64795 v 0.146485 q 0,0.175781 -0.0366,0.366211 -0.0293,0.190429 -0.10254,0.366211 -0.0732,0.175781 -0.19775,0.314941 -0.12451,0.13916 -0.30762,0.212402 -0.0513,0.02197 -0.11719,0.01465 -0.0659,-0.0073 -0.13183,-0.02197 -0.0659,-0.02197 -0.12452,-0.04395 -0.0586,-0.02197 -0.0952,-0.03662 -0.14648,-0.05859 -0.24902,-0.175782 -0.10254,-0.124511 -0.21973,-0.22705 -0.19775,-0.19043 -0.30762,-0.417481 -0.10254,-0.234375 -0.14648,-0.490722 -1.36231,0.380859 -2.05078,1.772461 -0.90821,1.838378 -0.90821,4.533691 0,2.915039 0.94483,4.768066 0.95215,1.845703 3.13476,1.889649 0.0366,-0.03662 0.0659,-0.04395 0.0366,-0.01465 0.0513,-0.01465 z m 6.25488,-9.726562 q 0.15381,0.329589 0.26368,0.681152 0.1831,0.08057 0.35888,0.197754 0.18311,0.117187 0.37354,0.263672 l 0.0366,0.0293 q -0.007,-0.01465 -0.007,-0.05127 -0.10986,-0.725098 -0.41748,-1.413574 -0.30761,-0.695801 -0.75439,-1.31836 -0.43945,-0.622558 -0.98145,-1.16455 -0.53466,-0.541993 -1.09863,-0.974121 -0.41015,-0.307618 -0.82764,-0.556641 -0.41748,-0.249024 -0.86425,-0.410156 -0.43946,-0.161133 -0.91553,-0.227051 -0.46875,-0.06592 -0.99609,-0.0073 -0.0147,0 -0.022,0.0073 -0.007,0 -0.022,0 0.12451,0.19043 0.20508,0.410156 0.0806,0.212402 0.13183,0.446777 1.30372,0.06592 2.43897,0.498047 1.34033,0.512696 1.94824,1.45752 0.60791,0.9375 1.1499,2.131348 z m -2.08007,2.944335 q 0,-1.120605 -0.20508,-2.080078 -0.0293,0.0073 -0.0513,0.01465 -0.022,0.0073 -0.044,0.01465 -0.0952,0.03662 -0.28564,0.117188 -0.19043,0.08057 -0.38086,0.183105 -0.19043,0.102539 -0.32959,0.219727 -0.13916,0.109863 -0.13916,0.219726 0.007,0.109864 0.0952,0.249024 0.0952,0.131836 0.21241,0.263672 0.12451,0.131836 0.24902,0.249023 0.13184,0.109863 0.20508,0.183106 0.19043,0.190429 0.35156,0.344238 0.16846,0.153808 0.31494,0.27832 0.007,-0.124512 0.007,-0.256348 z m 2.07275,3.273926 q -0.39551,1.003418 -1.02539,1.809082 0.16113,0.01465 0.31494,0.0073 0.16113,-0.0073 0.31494,-0.02197 0.0732,-0.0073 0.16846,-0.02197 0.10254,-0.01465 0.19775,-0.04394 0.10254,-0.03662 0.19043,-0.08057 0.0879,-0.05127 0.13916,-0.124511 0.0732,-0.102539 0.0879,-0.241699 0.0146,-0.139161 -0.007,-0.285645 -0.022,-0.153809 -0.0659,-0.292969 -0.0439,-0.13916 -0.0879,-0.241699 -0.0366,-0.102539 -0.0952,-0.227051 -0.0586,-0.124511 -0.13184,-0.234375 z m -2.29248,-0.959472 q 0.0732,-0.351563 0.11719,-0.717774 l -0.0733,0.01465 q -0.14648,0.03662 -0.27832,0.124511 -0.13183,0.08057 -0.27099,0.183106 -0.13184,0.102539 -0.271,0.205078 -0.13183,0.09521 -0.27099,0.161133 -0.0952,0.03662 -0.19043,0.08057 -0.0952,0.04394 -0.18311,0.102539 -0.0366,0.02197 -0.0659,0.03662 -0.022,0.01465 -0.0513,0.04395 -0.0146,0.03662 -0.0293,0.08057 -0.0146,0.04394 -0.022,0.08057 -0.022,0.146485 0.007,0.307618 0.0366,0.153808 0.0732,0.300293 0.0806,0.197753 0.14648,0.410156 0.0733,0.205078 0.12452,0.410156 0.0293,0.09522 0.0439,0.197754 0.0147,0.102539 0.0586,0.183105 v 0.0073 q -0.0293,-0.161133 -0.0513,-0.314942 -0.0147,-0.161133 -0.0366,-0.32959 -0.0586,-0.439453 0.15381,-0.812988 0.21241,-0.380859 0.58594,-0.593262 0.19043,-0.109863 0.4834,-0.161132 z m -4.24805,-8.583985 q -0.27099,0.01465 -0.51269,0.05127 0.0366,0.175781 0.10986,0.344238 0.0806,0.168457 0.2124,0.322266 0.10254,0.124511 0.15381,0.183105 0.0586,0.05859 0.10254,0.09521 0.0439,0.0293 0.0952,0.04395 0.0513,0.01465 0.1538,0.04395 0.0952,-0.05859 0.14649,-0.146485 0.0586,-0.09521 0.0879,-0.197754 0.0366,-0.109863 0.0513,-0.219726 0.0147,-0.109864 0.022,-0.212403 0.007,-0.06592 0.007,-0.131836 0,-0.06592 0,-0.131835 -0.3003,-0.04395 -0.62989,-0.04395 z m 7.15576,5.866699 q 0,0.205079 -0.007,0.402832 0.16846,-0.109863 0.28564,-0.249023 0.11719,-0.146484 0.13184,-0.336914 0.0146,-0.19043 0.022,-0.373535 0.0147,-0.183106 0.0147,-0.373535 l -0.27099,-0.219727 q -0.10254,-0.08057 -0.19776,-0.146484 -0.0952,-0.07324 -0.19043,-0.131836 0.17578,0.688476 0.2124,1.428222 z m -0.022,0.769043 q -0.0147,0.168457 -0.022,0.32959 0.30029,-0.102539 0.57129,-0.270996 0.27099,-0.168457 0.40283,-0.461426 0.13184,-0.292968 0.0806,-0.520019 -0.0439,-0.227051 -0.19776,-0.417481 -0.007,0.285645 -0.0806,0.527344 -0.0659,0.241699 -0.21241,0.410156 -0.12451,0.131836 -0.26367,0.227051 -0.13183,0.09521 -0.27832,0.175781 z m -3.53027,4.050293 q 0.32226,-0.754394 0.52734,-1.567382 l -0.11719,0.04394 q -0.2124,0.09521 -0.32226,0.263672 -0.10986,0.161133 -0.15381,0.366211 -0.0366,0.205078 -0.0147,0.439453 0.022,0.227051 0.0806,0.454101 z m -4.07227,-11.374511 q 0.4834,-0.08789 1.00342,-0.08789 h 0.007 q -0.10986,-0.366211 -0.36621,-0.681152 -0.23437,0.131836 -0.40283,0.336914 -0.16113,0.197754 -0.2417,0.432129 z m 3.24463,10.407714 q 0,0.01465 0,0.0073 0,-0.01465 -0.007,-0.04395 0,0.0293 0.007,0.03662 z m -0.007,-0.03662 q -0.0146,-0.0293 -0.0146,-0.05127 0,0.02197 0.0146,0.05127 z" />
      <path
         id="path28"
         style=""
         d="m 234.23096,81.660156 q 0.13183,-0.0073 0.21972,0.05859 0.0879,0.05859 0.10987,0.146484 0.0293,0.08789 -0.0147,0.19043 -0.0366,0.09522 -0.15381,0.168457 -0.271,0.08057 -0.44678,0.13916 -0.16845,0.05127 -0.29297,0.08789 -0.12451,0.03662 -0.22705,0.06592 -0.0952,0.0293 -0.22705,0.05859 -0.12451,0.0293 -0.30762,0.07324 -0.17578,0.04394 -0.4541,0.102539 -0.52734,0.117187 -1.07666,0.219726 -0.54199,0.102539 -1.08398,0.234375 -0.54199,0.124512 -1.07666,0.292969 -0.52735,0.168457 -1.01807,0.417481 0.23438,0.03662 0.41748,0.175781 0.19043,0.13916 0.3003,0.344238 0.11718,0.197754 0.14648,0.446777 0.0293,0.2417 -0.0439,0.490723 -0.0586,0.168457 -0.0952,0.336914 -0.0366,0.161133 -0.0952,0.32959 1.1206,0.117188 2.18261,0.527344 1.53809,0.600586 2.29981,1.801758 0.38086,0.60791 0.62256,1.230468 0.37353,0.04395 0.6958,0.146485 0.32226,0.102539 0.43945,0.358886 0.12451,0.256348 0.10254,0.556641 -0.022,0.300293 -0.16113,0.585938 -0.13184,0.285644 -0.32959,0.446777 -0.13916,0.117187 -0.29297,0.183105 0.0659,0.725098 0.0732,1.398926 0,0.900879 -0.19775,1.750488 0.17578,0.131836 0.32959,0.270997 0.1538,0.13916 0.27832,0.270996 0.0366,0.03662 0.19043,0.219726 0.1538,0.183106 0.31494,0.417481 0.16845,0.234375 0.28564,0.46875 0.12451,0.234375 0.0879,0.373535 -0.0952,0.351562 -0.35888,0.549316 -0.25635,0.19043 -0.58594,0.336914 -0.2124,0.08789 -0.43946,0.197754 -0.22705,0.109863 -0.4541,0.19043 -0.2124,0.08789 -0.46875,-0.03662 -0.25634,-0.131836 -0.50537,-0.351563 -0.4248,0.622559 -0.92285,1.113282 0.26367,0.27832 0.53467,0.541992 0.27832,0.263672 0.55664,0.520016 0.57129,0.542 1.1499,1.06934 0.58594,0.52734 1.1792,1.04736 0.0732,0.10987 0.0659,0.2124 0,0.10987 -0.0586,0.17579 -0.0586,0.0732 -0.16113,0.0952 -0.10254,0.022 -0.21972,-0.0366 -0.79834,-0.71045 -1.57471,-1.42822 -0.76904,-0.71045 -1.50879,-1.472171 -0.0513,-0.05127 -0.15381,-0.146484 -0.0952,-0.09521 -0.20508,-0.212403 -0.0952,0.08057 -0.19775,0.153809 -1.24512,0.974119 -3.5669,0.974119 -2.68066,0.10987 -4.01367,-1.091306 -1.33301,-1.201172 -2.02148,-2.856446 -0.68848,-1.655273 -0.71778,-3.852539 0.0879,-1.757812 0.98145,-3.310547 0.89355,-1.560058 2.17529,-2.48291 0.5127,-0.373535 1.19385,-0.600586 0.0806,-0.146484 0.16846,-0.285644 0.0879,-0.146485 0.16845,-0.307617 0.13916,-0.249024 0.22706,-0.439454 0.0879,-0.190429 0.16113,-0.336914 0.0732,-0.146484 0.15381,-0.270996 0.0806,-0.124511 0.19775,-0.249023 0.12451,-0.131836 0.30029,-0.270996 0.18311,-0.146485 0.4541,-0.32959 0.21241,-0.146485 0.43213,-0.263672 0.21973,-0.124512 0.45411,-0.227051 0.49072,-0.227051 1.00341,-0.388183 0.5127,-0.168457 1.03272,-0.300293 0.52002,-0.131836 1.04736,-0.234375 0.52735,-0.109864 1.04736,-0.234375 0.39551,-0.08789 0.60791,-0.139161 0.21241,-0.05859 0.38086,-0.102539 0.16846,-0.05127 0.37354,-0.117187 0.20508,-0.06592 0.58594,-0.19043 z m -4.021,17.307129 q 0.28565,-0.270996 0.5127,-0.60791 -0.0366,-0.06592 -0.0439,-0.131836 -0.0366,-0.205078 -0.0952,-0.410156 -0.0513,-0.205078 -0.10254,-0.410156 -0.044,-0.212403 -0.0733,-0.417481 -0.022,-0.205078 0.007,-0.41748 0.0586,-0.461426 0.11719,-0.84961 0.0659,-0.395508 0.23437,-0.703125 -0.11719,-0.314941 -0.15381,-0.644531 -0.0366,-0.336914 -0.0146,-0.673828 0.022,-0.336914 0.0806,-0.673828 0.0659,-0.336914 0.15381,-0.651856 0.0513,-0.190429 0.13184,-0.410156 0.0806,-0.227051 0.16113,-0.461426 -0.82031,-0.344238 -1.55274,-0.842285 -0.73242,-0.505371 -1.31103,-1.171875 -0.25635,-0.300293 -0.46143,-0.651855 -0.20508,-0.358887 -0.37353,-0.732422 -0.19043,0.197754 -0.42481,0.410156 -0.22705,0.205078 -0.53466,0.446777 -0.22706,0.183106 -0.39551,0.263672 -0.16114,0.07324 -0.30762,0.07324 -0.14648,0 -0.30029,-0.05859 -0.15381,-0.06592 -0.36621,-0.161133 -0.0439,-0.02197 -0.0952,-0.05859 -0.0439,-0.03662 -0.0586,-0.08789 -0.022,-0.117187 -0.0513,-0.234375 -0.0293,-0.117187 -0.0513,-0.234375 -0.92285,1.669922 -1.01807,4.519043 0,3.083497 0.86426,4.958497 0.87158,1.875 3.14941,1.875 1.4795,0 2.37305,-0.84961 z m -0.0659,-11.477051 q -0.68115,-0.585937 -1.71386,-0.732422 -0.19776,0.322266 -0.37354,0.578614 -0.17578,0.249023 -0.37353,0.483398 0.24902,0.571289 0.57128,1.054688 0.32959,0.483398 0.73975,0.893554 0.41748,0.402832 0.93018,0.747071 0.52002,0.336914 1.1499,0.622558 l 0.14648,0.06592 0.022,-0.08789 q 0.0293,-0.212403 0.11718,-0.46875 0.0952,-0.256348 0.22705,-0.410157 -0.0659,-0.307617 -0.14648,-0.600586 -0.38818,-1.369628 -1.29639,-2.145996 z m 3.40576,9.404297 q -0.19775,0.366211 -0.40283,0.695801 0.15381,0.153809 0.29297,0.256348 0.13916,0.09521 0.23438,0.102539 0.0513,0 0.19775,-0.05859 0.14648,-0.05859 0.30762,-0.124512 0.16113,-0.07324 0.28564,-0.131836 0.13184,-0.06592 0.14649,-0.07324 0.3955,-0.175781 0.54931,-0.32959 0.16114,-0.161133 0.12451,-0.344238 -0.0293,-0.19043 -0.22705,-0.424805 -0.19775,-0.241699 -0.52002,-0.585937 -0.0879,-0.08789 -0.19775,-0.175781 -0.10254,-0.09521 -0.22705,-0.19043 -0.2124,0.703125 -0.56397,1.384277 z m -6.62109,-10.085449 q -0.99609,0.234375 -1.6626,1.025391 -0.007,0.109863 0,0.205078 0.0146,0.168457 0.0439,0.336914 0.0293,0.168457 0.0513,0.336914 0.0732,0.0293 0.13916,0.05859 0.0732,0.0293 0.13916,0.06592 0.14648,-0.05859 0.29297,-0.102539 0.15381,-0.04395 0.28564,-0.124512 0.25635,-0.161133 0.52002,-0.388184 0.26367,-0.227051 0.52002,-0.505371 0,-0.0073 -0.007,-0.0073 0,-0.0073 0,-0.02197 -0.0806,-0.190429 -0.16114,-0.410156 -0.0806,-0.227051 -0.16113,-0.46875 z m 0.84961,-0.820312 q 0.31494,0 0.62988,0.01465 0.14649,-0.351563 0.19776,-0.688477 0.0513,-0.329589 -0.0147,-0.549316 -0.0586,-0.219727 -0.19043,-0.336914 -0.13184,-0.117188 -0.31494,-0.13916 -0.17578,-0.0293 -0.35157,0.0293 -0.17578,0.05127 -0.32958,0.183105 -0.15381,0.131836 -0.23438,0.322266 -0.11719,0.270996 -0.12451,0.578613 0,0.307617 0.0586,0.615234 0.32227,-0.02197 0.67383,-0.0293 z m 4.10889,6.870117 q -0.022,-0.571289 -0.0733,-1.105957 l -0.0659,-0.02197 q -0.0806,-0.0293 -0.16846,-0.05127 -0.0879,-0.0293 -0.16846,-0.06592 -0.0513,0.168457 -0.0952,0.322265 -0.0439,0.146485 -0.0806,0.263672 -0.0293,0.117188 -0.0513,0.19043 -0.0146,0.07324 -0.0146,0.08057 -0.0586,0.212402 -0.10254,0.432129 -0.0439,0.219727 -0.0806,0.439453 -0.0439,0.32959 -0.0366,0.651856 0.007,0.322265 0.0952,0.644531 0,0.02197 0.007,0.03662 0.27832,-0.256348 0.78369,-0.373535 0.0513,-0.681153 0.0513,-1.442871 z m -0.38819,3.706054 q 0.0293,-0.117187 0.0586,-0.241699 -0.0659,-0.08789 -0.12451,-0.161133 -0.0513,-0.08057 -0.10987,-0.161132 -0.0513,-0.08789 -0.11719,-0.19043 -0.0659,-0.102539 -0.1538,-0.249024 v 0.0073 q -0.15381,0.483398 -0.13184,1.010742 0.022,0.41748 0.0513,0.703125 0.0293,0.27832 0.0952,0.490722 0.26368,-0.534667 0.43213,-1.208496 z m 2.74659,-5.71289 q 0.0513,0.358886 0.0879,0.710449 0.17578,-0.102539 0.29296,-0.285645 0.11719,-0.183105 0.19043,-0.476074 0.0513,-0.212402 0.007,-0.366211 -0.0366,-0.153808 -0.14649,-0.256347 -0.10986,-0.109864 -0.27832,-0.168457 -0.16845,-0.06592 -0.36621,-0.102539 h -0.0146 q 0.15381,0.46875 0.22706,0.944824 z m -8.16651,-4.680176 q 0.32227,-0.07324 0.67383,-0.117188 -0.0513,-0.307617 -0.0586,-0.593261 0,-0.292969 0.0659,-0.549317 l -0.007,0.0073 q -0.10254,0.08057 -0.18311,0.234375 -0.0806,0.146484 -0.1538,0.322265 -0.0733,0.175781 -0.14649,0.344238 -0.0732,0.168458 -0.14648,0.285645 z m 5.57373,9.65332 q 0.0879,-0.498047 0.14649,-1.047363 -0.16114,0.05127 -0.3003,0.146484 -0.13916,0.09521 -0.24902,0.249024 0.0879,0.168457 0.19043,0.32959 0.10254,0.161132 0.2124,0.322265 z m -3.9331,-9.118652 q -0.21973,0.0073 -0.43213,0.03662 0,0.0073 0,0.0073 0.007,0 0.007,0.0073 0.0952,0.336915 0.21973,0.666504 0.14648,-0.168457 0.27099,-0.344238 0.13184,-0.175781 0.24903,-0.366211 -0.15381,-0.0073 -0.31494,-0.0073 z m 3.96972,4.086914 q -0.0439,0.117188 -0.0879,0.249023 -0.0439,0.131836 -0.0952,0.278321 0.14648,0.05859 0.27099,0.102539 z" />
      <path
         id="path30"
         style=""
         d="m 248.22021,81.755371 q 0.13184,-0.0073 0.21973,0.05859 0.0879,0.05859 0.10986,0.146484 0.0293,0.08789 -0.0146,0.19043 -0.0366,0.09521 -0.15381,0.168457 -0.27832,0.05859 -0.53467,0.197754 -0.24902,0.13916 -0.47607,0.322265 -0.22706,0.175782 -0.43946,0.388184 -0.20508,0.212402 -0.40283,0.410156 -0.20508,0.212403 -0.39551,0.446778 -0.19043,0.234375 -0.40283,0.446777 -0.25635,0.256348 -0.52002,0.505371 -0.26367,0.241699 -0.46875,0.549316 -0.13184,0.197754 -0.24902,0.461426 -0.10987,0.263672 -0.20508,0.563965 -0.0952,0.292969 -0.17578,0.600586 -0.0806,0.300293 -0.14649,0.571289 0.13916,-0.19043 0.28565,-0.388183 0.15381,-0.205079 0.30762,-0.388184 0.1538,-0.183106 0.30761,-0.336914 0.15381,-0.161133 0.30762,-0.270996 0.0439,-0.0293 0.12451,-0.0293 0.0806,-0.0073 0.10254,-0.0073 0.14648,-0.0073 0.21973,0.109863 0.0147,0.05127 0.0293,0.102539 0.0147,0.04394 0.0293,0.09521 0.43945,-0.270996 0.9082,-0.46875 0.62989,-0.270996 1.20118,-0.270996 1.03271,0.04394 1.26709,0.637207 0.24169,0.585937 0.24169,1.376953 0,0.65918 -0.47607,1.142578 -0.46875,0.476074 -0.67383,0.410156 -0.49072,0 -0.86426,-0.197754 -0.36621,-0.197754 -0.46142,-0.849609 -0.0879,-0.65918 -0.32959,-0.834961 -0.19775,-0.13916 -0.84229,0.205078 -0.0513,0.270996 -0.13183,0.541992 -0.0806,0.263672 -0.18311,0.505371 -0.10254,0.2417 -0.21972,0.446778 -0.11719,0.205078 -0.24903,0.344238 -0.10254,0.109863 -0.19043,0.241699 -0.0806,0.124512 -0.17578,0.249024 -0.0952,0.117187 -0.20508,0.212402 -0.10254,0.09521 -0.2417,0.13916 -0.10253,0.03662 -0.2124,0.05859 -0.10254,0.02197 -0.2124,0.05127 -0.19043,0.04394 -0.29297,-0.146485 l -0.16113,-0.41748 q -0.007,-0.0073 -0.007,-0.0293 v 4.526367 0.336914 q 0.19043,0 0.38086,0.01465 0.19043,0.01465 0.36621,0.05859 0.17579,0.04395 0.32959,0.117188 0.15381,0.07324 0.26368,0.183105 0.21972,0.212403 0.30029,0.446778 0.0879,0.234375 0.0806,0.476074 -0.007,0.234375 -0.0952,0.476074 -0.0879,0.241699 -0.21973,0.46875 -0.0659,0.109863 -0.16845,0.19043 -0.0952,0.08057 -0.21241,0.146484 -0.10986,0.06592 -0.23437,0.124512 -0.12451,0.05127 -0.2417,0.09521 -0.13916,0.05859 -0.30762,0.09521 0.007,0.02197 0.0147,0.04395 0.25635,0.959472 0.84961,1.318359 0.59326,0.358887 2.146,0.358887 1.28906,0.351562 1.36963,0.505371 -0.80567,-0.04394 -8.34229,0.0659 0.27832,0.19775 0.60059,0.35156 0.32959,0.16113 0.65918,0.27832 0.33691,0.12451 0.65185,0.2124 0.32227,0.0952 0.59326,0.16114 0.92286,0.22705 1.86036,0.35156 0.9375,0.12451 1.88232,0.1831 0.94482,0.0659 1.88965,0.0806 0.95215,0.0147 1.89697,0.022 0.13184,0.0366 0.19043,0.11719 0.0586,0.0879 0.0513,0.18311 0,0.0952 -0.0732,0.17578 -0.0659,0.0806 -0.19776,0.10254 -1.09131,-0.0147 -2.18261,-0.044 -1.08399,-0.0293 -2.1753,-0.16113 -0.46142,-0.0586 -0.86425,-0.10987 -0.40284,-0.0439 -0.79102,-0.10253 -0.38086,-0.0586 -0.77637,-0.13916 -0.38818,-0.0733 -0.84228,-0.19043 -0.32959,-0.0879 -0.57862,-0.16114 -0.24169,-0.0659 -0.43945,-0.13916 -0.19775,-0.0732 -0.37353,-0.15381 -0.16846,-0.0732 -0.35157,-0.16845 -0.1831,-0.0952 -0.40283,-0.21973 -0.2124,-0.12451 -0.49805,-0.28564 -0.23437,-0.13184 -0.4248,-0.33692 -0.95215,0.0147 -2.1167,0.0366 0.10254,-0.380856 0.83496,-0.85693 0.30029,0 0.41748,0.05859 0.19043,-0.0073 0.35889,-0.03662 -0.10986,-0.27832 -0.15381,-0.578613 -0.0366,-0.300293 0,-0.585937 0.0439,-0.292969 0.16113,-0.556641 0.12451,-0.270996 0.34424,-0.483399 0.12451,-0.124511 0.2417,-0.256347 0.11719,-0.131836 0.23438,-0.256348 0.12451,-0.124512 0.24902,-0.234375 0.13183,-0.117187 0.28564,-0.205078 0.007,-0.0073 0.0146,-0.0073 0.007,0 0.022,-0.0073 -0.10253,-0.183106 -0.1831,-0.38086 -0.0732,-0.205078 -0.11719,-0.395508 -0.0439,-0.197753 -0.0513,-0.373535 -0.007,-0.183105 0.0366,-0.32959 0.10254,-0.388183 0.19043,-0.776367 0.0952,-0.395508 0.23438,-0.769043 0.0586,-0.146484 0.13183,-0.270996 0.0806,-0.131836 0.16114,-0.263672 v -1.391601 q 0,-1.54541 -0.53467,-2.028809 -0.53467,-0.490723 -1.50147,-0.490723 l -1.52343,-0.0073 q 1.94824,-0.644531 3.28857,-1.171875 1.34033,-0.534668 2.10205,-0.981445 0.10254,0.168457 1.23047,-1.223145 0,1.831055 0.0586,1.582032 v 1.801757 q 0.0513,-0.03662 0.13916,-0.117187 0.0293,-0.131836 0.0513,-0.234375 0.022,-0.109863 0.0366,-0.168457 0.0733,-0.292969 0.16114,-0.673828 0.0879,-0.388184 0.19775,-0.776367 0.10986,-0.395508 0.24902,-0.754395 0.13916,-0.366211 0.31495,-0.622558 0.1538,-0.219727 0.32959,-0.410157 0.1831,-0.197754 0.36621,-0.380859 0.1831,-0.19043 0.36621,-0.380859 0.1831,-0.19043 0.35156,-0.395508 0.2417,-0.292969 0.5127,-0.600586 0.27832,-0.314942 0.58593,-0.585938 0.31494,-0.270996 0.65918,-0.476074 0.35157,-0.212402 0.73242,-0.300293 z m -8.69384,16.875 q 0.41015,-0.498047 0.49804,-1.970215 -0.0952,-0.102539 -0.1831,-0.227051 l -0.022,0.01465 q -0.32959,0.241699 -0.62256,0.541992 -0.28565,0.300293 -0.46875,0.651856 -0.17578,0.351562 -0.21241,0.739746 -0.0293,0.388183 0.16114,0.805664 0.53467,-0.175782 0.84961,-0.556641 z m 3.64746,-3.398437 q 0.022,1.40625 0.16113,2.204589 0.0659,-0.01465 0.13184,-0.0293 0.0659,-0.02197 0.13183,-0.04395 0.20508,-0.06592 0.38086,-0.175781 0.17578,-0.109863 0.3003,-0.256348 0.12451,-0.153808 0.19042,-0.344238 0.0733,-0.19043 0.0659,-0.424805 0,-0.175781 -0.10254,-0.329589 -0.10254,-0.153809 -0.17578,-0.314942 -0.19043,-0.06592 -0.38086,-0.153808 -0.1831,-0.09521 -0.3955,-0.117188 -0.0806,-0.0073 -0.15381,-0.0073 -0.0733,-0.0073 -0.15381,-0.0073 z m 1.17187,-6.818848 q -0.22705,0.168457 -0.65185,0.549316 -0.0586,0.307618 -0.0806,0.615235 -0.0146,0.307617 0.0806,0.55664 0.13916,-0.0293 0.25635,-0.117187 0.11718,-0.08789 0.21972,-0.197754 0.10254,-0.109863 0.19776,-0.234375 0.0952,-0.124512 0.19043,-0.234375 0.24902,-0.27832 0.38818,-0.615234 0.13916,-0.336915 0.21973,-0.695801 -0.5127,0.13916 -0.82032,0.373535 z m -4.29931,7.419434 v -2.614747 q -0.14649,0.388184 -0.25635,0.754395 -0.10986,0.358887 -0.14649,0.695801 -0.0293,0.336914 0.022,0.659179 0.0513,0.314942 0.22705,0.622559 l 0.15381,-0.08057 z m 5.28808,-8.928223 q 0,-0.05859 -0.0147,-0.117188 -0.13183,0.102539 -0.2417,0.219727 -0.10253,0.117187 -0.20507,0.241699 z" />
      <path
         id="path32"
         style=""
         d="m 264.12842,81.806641 q 0.13183,0.03662 0.19043,0.124511 0.0586,0.08057 0.0513,0.175782 0,0.09521 -0.0732,0.175781 -0.0659,0.08057 -0.19775,0.102539 -0.22705,-0.01465 -0.4541,-0.04395 -0.22705,-0.03662 -0.46143,-0.0293 -0.65185,0.01465 -1.32568,0.190429 -0.67383,0.168457 -1.33301,0.439454 -0.65918,0.270996 -1.27441,0.622558 -0.60791,0.351563 -1.12061,0.725098 l -0.16845,0.124511 q 0.13183,-0.02197 0.26367,-0.02197 0.13183,-0.0073 0.25635,0.03662 0.0806,0.0293 0.16845,0.04394 0.0879,0.01465 0.16846,0.03662 0.0806,0.02197 0.15381,0.05859 0.0732,0.03662 0.12451,0.102539 0.10254,0.124512 0.20508,0.249024 0.10254,0.124511 0.16845,0.270996 0.0806,0.175781 0.0659,0.410156 -0.007,0.227051 -0.0659,0.483398 3.82325,0.615235 3.82325,3.779297 v 7.075196 q 0,2.072753 1.28906,2.072753 0.31494,0 0.53467,-0.109863 0.22705,-0.109863 0.36621,-0.285644 0.13916,-0.183106 0.35156,-0.593262 0.2124,-0.410156 0.4541,-1.047363 0.3003,0 0.2417,0.864257 0,1.098633 -0.99609,1.875 -0.9961,0.769045 -2.12403,0.769045 -3.18603,0 -3.2666,-3.002931 0.0586,-0.241699 0.0586,-0.629883 -0.16846,0.571289 -0.4541,1.054687 0.12451,0.527344 0.11718,1.083985 -0.007,0.55664 -0.0879,1.091312 0.9668,0.94482 2.10205,1.69922 1.14258,0.75439 2.36573,1.32568 0.30029,0.13916 0.60791,0.24902 0.30761,0.11719 0.60058,0.26367 0.23438,0.11719 0.44678,0.26368 0.21973,0.14648 0.43213,0.29296 0.21972,0.14649 0.43945,0.28565 0.21973,0.13916 0.46143,0.2417 0.10986,0.0806 0.13916,0.17578 0.0366,0.10254 0,0.19043 -0.0366,0.0879 -0.13184,0.13916 -0.0879,0.0586 -0.21973,0.0439 -0.25634,-0.10986 -0.49072,-0.25634 -0.22705,-0.14649 -0.44678,-0.3003 -0.21972,-0.1538 -0.43945,-0.30761 -0.21973,-0.15381 -0.46875,-0.27832 -0.55664,-0.28565 -1.1206,-0.5127 -0.55664,-0.22705 -1.10596,-0.55664 -0.80567,-0.49072 -1.56738,-1.01807 -0.76172,-0.52002 -1.47217,-1.15722 -0.0659,-0.0586 -0.12451,-0.11719 -0.0586,-0.0513 -0.11719,-0.10986 -0.0513,0.12451 -0.13184,0.24902 -0.0806,0.13184 -0.1831,0.22705 -0.10254,0.10254 -0.23438,0.14649 -0.12451,0.0439 -0.26367,0 -0.2124,-0.0659 -0.40283,-0.21241 -0.18311,-0.14648 -0.34424,-0.34423 -0.16113,-0.19043 -0.30029,-0.41749 -0.13916,-0.22705 -0.25635,-0.461421 -1.35498,0.659181 -2.80518,0.659181 -1.58935,0 -2.77588,-0.842287 -1.18652,-0.842285 -1.27441,-2.160644 0,-1.560059 0.71777,-2.614746 0.7251,-1.062012 2.01416,-1.699219 0.87159,-0.424805 1.9043,-0.703125 0,-0.307617 0.007,-0.615234 0.007,-0.307618 0.007,-0.615235 0,-0.490723 -0.007,-0.988769 0,-0.498047 0.007,-0.996094 0.0147,-0.498047 0.0513,-0.996094 0.0439,-0.498047 0.13916,-0.981445 l 0.022,-0.131836 q -0.37353,0.19043 -0.63721,0.454101 -0.41748,0.402832 -1.40625,2.043457 0,0.725098 0.11719,1.215821 0.12451,0.490722 -0.62988,0.534668 -1.79443,-0.205078 -1.94824,-1.647949 0.0366,-0.871583 0.84228,-1.757813 0.80567,-0.893555 2.24854,-1.472168 0.78369,-0.314941 1.66992,-0.454102 0,-0.0073 0.0147,-0.03662 0.15381,-0.366211 0.34424,-0.637207 0.19043,-0.270996 0.49072,-0.483398 0.19043,-0.212402 0.35889,-0.351563 0.20507,-0.168457 0.3955,-0.344238 0.19776,-0.175781 0.41016,-0.32959 0.94482,-0.703125 2.02881,-1.223144 1.08398,-0.52002 2.23389,-0.761719 0.25634,-0.05859 0.50537,-0.08057 0.25634,-0.0293 0.51269,-0.06592 0.25635,-0.03662 0.50537,0.0073 0.25635,0.03662 0.5127,0.05859 z m -3.92578,7.756347 q 0,-1.274414 -0.76172,-2.065429 -0.20508,-0.205079 -0.43213,-0.358887 -0.0586,0.09521 -0.12451,0.168457 -0.0586,0.07324 -0.11719,0.131836 -0.2124,0.197754 -0.52734,0.307617 -0.30762,0.102539 -0.63721,0.102539 -0.32959,0 -0.63721,-0.102539 -0.30762,-0.109863 -0.50537,-0.32959 -0.0806,-0.08789 -0.13916,-0.146484 -0.0513,-0.06592 -0.0879,-0.117188 -0.0366,-0.05127 -0.0732,-0.102539 -0.0293,-0.05859 -0.0586,-0.131836 -0.0366,0.01465 -0.0806,0.0293 -0.022,0.0073 -0.0366,0.01465 -0.022,0.102539 -0.0439,0.205078 -0.022,0.102539 -0.0366,0.205078 -0.0806,0.476074 -0.12451,0.959473 -0.0366,0.476074 -0.0586,0.959472 -0.0146,0.483399 -0.0146,0.966797 0,0.476074 0,0.959473 l -0.0293,1.157226 0.0366,-0.0073 q -0.007,-0.227051 0,-0.461426 0.0147,-0.234375 0.0513,-0.454101 0.0439,-0.227051 0.11719,-0.424805 0.0806,-0.197754 0.20508,-0.344238 0.0586,-0.08057 0.13916,-0.124512 0.0879,-0.05127 0.16845,-0.109863 0.0806,-0.05127 0.17578,-0.05127 0.10254,-0.0073 0.19043,-0.02197 0.16114,-0.0293 0.36621,0.04394 0.20508,0.06592 0.39551,0.19043 0.19043,0.117187 0.34424,0.270996 0.15381,0.153808 0.2124,0.292968 l 0.10987,0.292969 q 0.0366,0.109863 0.0586,0.234375 0.022,0.124512 0.0366,0.256348 0.90088,-0.09522 1.91895,-0.146485 z m -3.75,9.389649 q 0.35156,-0.01465 0.68847,-0.09521 -0.27832,-0.74707 -0.50537,-1.494141 -0.21972,-0.754394 -0.38818,-1.530761 -0.0732,-0.04395 -0.13916,-0.109864 -0.0586,-0.07324 -0.11719,-0.153808 -0.0513,-0.08057 -0.0952,-0.161133 -0.0366,-0.08789 -0.0659,-0.153809 -0.18311,-0.410156 -0.29297,-0.812988 -0.10254,-0.402832 -0.15381,-0.827637 -0.38818,0.256348 -0.71045,0.578614 -0.82764,0.827636 -1.59668,2.131347 0.0293,0.109863 0.0586,0.344238 0.0293,0.234375 0.0586,0.344239 0.2417,0.952148 0.92285,1.486816 0.68848,0.527344 2.33643,0.454102 z m 3.75,-6.394043 q -0.10987,0 -0.3003,-0.01465 -0.19043,-0.01465 -0.30029,-0.01465 -0.6958,0 -1.34766,0.09521 -0.0366,0.270996 -0.10986,0.549316 -0.0732,0.270996 -0.16113,0.534668 -0.0879,0.256348 -0.19043,0.490723 -0.10254,0.227051 -0.19776,0.410156 -0.0366,0.06592 -0.13916,0.234375 -0.0952,0.161133 -0.23437,0.358887 -0.13184,0.190429 -0.30029,0.366211 -0.16114,0.175781 -0.32227,0.256347 0.13184,0.534668 0.28565,1.069336 0.16113,0.534668 0.32959,1.047364 0.0659,0.205078 0.13183,0.410156 0.0732,0.197754 0.15381,0.395508 0.22705,-0.08789 0.4541,-0.205079 -0.13183,-0.249023 -0.23437,-0.505371 -0.10254,-0.256347 -0.14649,-0.498047 -0.0366,-0.249023 -0.007,-0.46875 0.0366,-0.22705 0.16845,-0.402832 0.22706,-0.307617 0.46875,-0.373535 0.24903,-0.06592 0.4834,0.03662 0.23438,0.09521 0.43213,0.322266 0.20508,0.219727 0.34424,0.490723 0.10254,-0.161133 0.19775,-0.32959 0.542,-1.010742 0.542,-2.39502 z m -3.39112,0.388183 q -0.36621,0.117188 -0.70312,0.270996 0.0659,0.571289 0.17578,1.149903 0.10986,0.571289 0.23437,1.127929 0.18311,-0.102539 0.30762,-0.285644 0.13184,-0.19043 0.2417,-0.344238 0.12451,-0.19043 0.25635,-0.439453 0.13916,-0.256348 0.25635,-0.541993 0.12451,-0.285644 0.21972,-0.593261 0.0952,-0.314942 0.14649,-0.622559 -0.57862,0.102539 -1.13526,0.27832 z m 0.57129,-7.016601 q 0.88623,0 1.64795,0.08789 0,-0.0073 0.0147,-0.05127 0.0659,-0.219727 0.0439,-0.410156 -0.0147,-0.197754 -0.10254,-0.344239 -0.0879,-0.153808 -0.24903,-0.256347 -0.15381,-0.102539 -0.38086,-0.131836 -0.14648,-0.02197 -0.30761,-0.01465 -0.15381,0.0073 -0.3003,0.04395 -0.30029,0.06592 -0.53466,0.183105 -0.21241,0.212402 -0.39551,0.446777 -0.17578,0.227051 -0.271,0.483399 0.40283,-0.03662 0.83496,-0.03662 z m -1.01074,6.298828 q 0.75439,-0.13916 1.61865,-0.241699 -0.0147,-0.19043 -0.0586,-0.358887 -0.0439,-0.175781 -0.12451,-0.322266 -0.12451,-0.219726 -0.36621,-0.388183 -0.23438,-0.168457 -0.49073,-0.212403 -0.25634,-0.05127 -0.48339,0.05859 -0.21973,0.102539 -0.30762,0.439453 -0.0732,0.285645 -0.10254,0.556641 -0.022,0.263672 -0.0146,0.534668 0.16113,-0.03662 0.32959,-0.06592 z m 1.98486,6.071777 q 0.46143,-0.314941 0.82032,-0.761719 l -0.0439,-0.109863 q -0.0366,-0.07324 -0.13184,-0.227051 -0.0952,-0.153808 -0.21972,-0.285644 -0.12451,-0.13916 -0.271,-0.197754 -0.14648,-0.06592 -0.28564,0.04394 -0.15381,0.124512 -0.19776,0.292969 -0.0439,0.168457 -0.0146,0.373535 0.0293,0.205078 0.12451,0.432129 0.0952,0.219727 0.21972,0.439453 z m -0.26367,1.230469 q -0.0952,0.05127 -0.19043,0.109863 0.271,0.505367 0.62988,0.930177 0.0806,0.0952 0.19043,0.14648 0.10987,0.0586 0.21241,0.13184 0.0513,-0.022 0.10986,-0.0366 0.0586,-0.007 0.0952,-0.0513 0.0732,-0.0952 0.11719,-0.2124 0.0513,-0.11719 0.0879,-0.2417 l -0.30029,-0.29297 q -0.10986,-0.102541 -0.271,-0.285646 -0.16113,-0.19043 -0.32959,-0.424805 -0.16845,0.117188 -0.35156,0.227051 z m -0.65185,-12.824707 q -0.44678,0 -0.87891,0.09522 0.0879,0.175781 0.24902,0.300293 0.13184,0.109863 0.29297,0.175781 0.16846,0.06592 0.33692,0.08789 0.4248,0.05127 0.70312,-0.06592 0.27832,-0.117188 0.46875,-0.373535 -0.52002,-0.219727 -1.17187,-0.219727 z m 1.97021,11.689453 q -0.26367,0.32959 -0.58594,0.60791 0.16846,0.219727 0.30762,0.395508 0.14649,0.168457 0.22705,0.249023 0.0439,0.05859 0.0732,0.08057 0,-0.0293 0,-0.05127 0.007,-0.0293 0.007,-0.05859 0.022,-0.292969 0.0147,-0.600586 0,-0.314942 -0.0439,-0.622559 z m -3.71338,-4.973144 q 0.0293,0.380859 0.10987,0.754394 0.0806,0.366211 0.24902,0.739746 -0.0732,-0.395508 -0.13184,-0.776367 -0.0586,-0.380859 -0.11718,-0.776367 z" />
      <path
         id="path34"
         style=""
         d="m 267.88574,83.549805 q -0.15381,-0.01465 -0.22705,-0.102539 -0.0659,-0.09521 -0.0659,-0.197754 0.007,-0.102539 0.0879,-0.183106 0.0806,-0.08789 0.23438,-0.09521 0.71777,0 1.47217,0.0293 0.75439,0.02197 1.50879,0.109864 0.75439,0.08057 1.50146,0.241699 0.74707,0.153808 1.44287,0.424804 0.6958,0.263672 1.32569,0.65918 0.62988,0.388184 1.16455,0.9375 0.19043,0.19043 0.44677,0.52002 0.26368,0.322265 0.5127,0.710449 1.40625,-0.637207 2.47558,-0.673828 1.39893,0 2.25586,0.849609 0.86426,0.842285 0.86426,2.329102 v 3.859863 q 0.43946,-0.08789 0.85694,-0.124512 0.41748,-0.04395 0.74707,-0.01465 0.22705,0.02197 0.46142,0.05127 0.2417,0.02197 0.4541,0.09521 0.21973,0.06592 0.39551,0.205078 0.18311,0.131836 0.29297,0.366211 0.0879,0.183106 0.0732,0.446778 -0.007,0.256347 -0.0879,0.541992 -0.0732,0.285644 -0.20508,0.585937 -0.12451,0.292969 -0.27099,0.549317 -0.14649,0.249023 -0.29297,0.439453 -0.14649,0.19043 -0.25635,0.270996 -0.10986,0.07324 -0.2124,0.168457 -0.10254,0.08789 -0.2124,0.175781 -0.10254,0.08057 -0.21973,0.153809 -0.10986,0.06592 -0.2417,0.09521 -0.12451,0.0293 -0.24902,0.07324 -0.12451,0.03662 -0.24903,0.07324 -0.12451,0.03662 -0.24902,0.06592 -0.12451,0.02197 -0.25635,0.0073 l -0.19775,-0.01465 q 0.0439,0.380859 0.10986,0.666504 0.19043,0.820312 0.54199,1.07666 0.35157,0.256347 1.16455,0.410156 0.82032,0.153809 0.9961,0.183106 0.4834,0.307617 0.55664,0.483398 -3.83057,-0.02197 -7.64649,-0.02197 0.18311,0.454103 0.49073,0.849613 0.31494,0.40283 0.71045,0.74707 0.40283,0.35156 0.85693,0.6372 0.46143,0.29297 0.94482,0.52002 0.4834,0.23438 0.95948,0.39551 0.4834,0.16846 0.92285,0.271 0.2417,0.0513 0.39551,0.0732 0.15381,0.0293 0.28564,0.0439 0.13916,0.0146 0.29297,0.022 0.15381,0.007 0.39551,0.022 0.13183,0.0366 0.19043,0.11719 0.0586,0.0879 0.0513,0.1831 0,0.0952 -0.0732,0.17578 -0.0659,0.0806 -0.19775,0.10254 -0.95947,-0.0659 -1.86768,-0.30761 -0.9082,-0.2417 -1.76513,-0.7251 -0.47608,-0.271 -0.91553,-0.55664 -0.43213,-0.28565 -0.85693,-0.62988 -0.22705,-0.19043 -0.42481,-0.40284 -0.19775,-0.20507 -0.36621,-0.43945 -0.19775,-0.271 -0.33691,-0.54932 -0.13916,-0.27099 -0.22705,-0.549313 h -0.84961 q 0.25635,-0.300293 0.71045,-0.578613 h 0.0147 q -0.0586,-0.46875 0,-0.9375 0.0586,-0.46875 0.2124,-0.930176 0.15381,-0.461426 0.38818,-0.900879 0.23438,-0.446777 0.52734,-0.856933 0.0586,-0.08057 0.11719,-0.153809 0.0659,-0.08057 0.12451,-0.161133 -0.38086,-0.424804 -0.61523,-0.88623 -0.23438,-0.461426 -0.35156,-0.966797 -0.11719,-0.505371 -0.13916,-1.054687 -0.0146,-0.556641 0.0366,-1.164551 0.022,-0.314942 0.0659,-0.651856 0.0439,-0.336914 0.0659,-0.681152 0.0293,-0.351563 0.0293,-0.688477 0,-0.344238 -0.0659,-0.666504 -0.0659,-0.322265 -0.2124,-0.615234 -0.14648,-0.292969 -0.39551,-0.541992 -0.0147,0.0073 -0.0293,0.0073 0.10253,0.27832 0.14648,0.534668 0.0439,0.256348 -0.0147,0.476074 -0.0586,0.2417 -0.10254,0.476075 -0.0439,0.234375 -0.12451,0.439453 -0.0806,0.205078 -0.22705,0.373535 -0.14648,0.161133 -0.41016,0.270996 -0.0366,0.01465 -0.0659,0.01465 -0.0293,0 -0.0733,-0.0073 -0.28564,-0.04394 -0.41015,-0.05859 -0.12451,-0.01465 -0.2124,-0.05127 -0.0806,-0.04394 -0.18311,-0.13916 -0.10254,-0.09522 -0.35156,-0.292969 -0.16114,-0.13916 -0.25635,-0.336914 -0.0952,-0.197754 -0.2124,-0.373535 -0.0439,-0.06592 -0.0732,-0.131836 -0.0293,-0.06592 -0.0586,-0.13916 -0.68848,0.380859 -1.48682,0.893554 V 96.25 q 0,1.713867 0.5127,2.468262 0.5127,0.754394 1.50879,0.754394 0.79101,0.432129 0.84228,0.461426 -1.65527,0.102538 -9.38964,0.04394 0.0806,-0.205078 0.76171,-0.483398 0.50538,0 0.79102,-0.183106 0.9082,-0.05127 1.42822,-0.6958 0.52002,-0.651856 0.52002,-2.548828 v -4.855958 q 0,-1.54541 -0.51269,-2.094726 -0.50537,-0.549316 -1.50147,-0.549316 -0.31494,-0.05127 -0.62988,-0.01465 -0.31494,0.0293 -0.85693,0.02197 0.1831,-0.146485 0.62255,-0.388184 2.83448,-0.549316 4.61426,-1.655273 1.04004,-0.739746 1.21582,-1.223145 0.0293,1.340332 0.0732,1.223145 v 2.277832 q 0.71778,-0.527344 1.37696,-0.959473 0.022,-0.300293 0.14648,-0.578613 0.12451,-0.278321 0.32959,-0.476074 0.20508,-0.197754 0.4834,-0.292969 0.27832,-0.102539 0.61524,-0.04394 -0.12452,-0.175782 -0.271,-0.344239 -0.14649,-0.175781 -0.35889,-0.395508 -0.52002,-0.527343 -1.13525,-0.88623 -0.60791,-0.366211 -1.28174,-0.60791 -0.6665,-0.241699 -1.38428,-0.373535 -0.71777,-0.139161 -1.44287,-0.205078 -0.7251,-0.06592 -1.45019,-0.08057 -0.7251,-0.01465 -1.41358,-0.01465 z m 15,11.828613 q 0,0.871582 0.0513,1.508789 0.58594,0 1.10596,-0.227051 0.2124,-0.102539 0.41015,-0.234375 0.20508,-0.131836 0.36622,-0.300293 0.0879,-0.08789 0.22705,-0.285644 0.14648,-0.197754 0.29297,-0.454102 0.14648,-0.256347 0.27099,-0.541992 0.12451,-0.292969 0.17578,-0.563965 0.0513,-0.270996 -0.007,-0.498047 -0.0513,-0.227051 -0.26367,-0.358886 -0.23438,-0.146485 -0.54932,-0.19043 -0.31494,-0.05127 -0.65918,-0.03662 -0.33691,0.0073 -0.6665,0.05859 -0.32959,0.04394 -0.57862,0.09521 l -0.17578,0.03662 z m -3.12012,-5.515137 q 0,-2.233886 -1.47216,-2.336426 0.24902,0.278321 0.36621,0.65918 0.12451,0.373535 0.15381,0.805664 0.0366,0.432129 0.007,0.900879 -0.0293,0.46875 -0.0806,0.915527 -0.0513,0.446778 -0.0952,0.856934 -0.0439,0.410156 -0.0439,0.725098 0.007,0.373535 0.0439,0.739746 0.0366,0.366211 0.14648,0.725097 0.10987,0.358887 0.31495,0.703125 0.2124,0.344239 0.49072,0.666504 l 0.16845,-0.197754 z m -2.43896,-2.219238 q -0.75439,0.205078 -1.78711,0.74707 0.0586,0.205078 0.16113,0.402832 0.10254,0.19043 0.22705,0.358887 0.12452,0.168457 0.271,0.300293 0.15381,0.131836 0.30762,0.205078 0.0952,0.04394 0.19775,0.04394 0.10986,-0.0073 0.2124,0.0073 0.0806,-0.07324 0.18311,-0.131836 0.10986,-0.05859 0.15381,-0.161133 0.24902,-0.534668 0.24902,-0.944824 0,-0.417481 -0.17578,-0.827637 z m 2.21191,10.334473 q 0.19776,-0.725098 0.21973,-2.160645 l -0.0293,-0.03662 q -0.22705,0.307617 -0.43945,0.622559 -0.20508,0.307617 -0.37353,0.644531 -0.16114,0.336914 -0.27832,0.695801 -0.10987,0.351562 -0.15381,0.74707 -0.0293,0.212402 -0.022,0.424805 0.007,0.205078 0.0439,0.402832 0.32226,-0.08789 0.50537,-0.249024 0.30762,-0.263672 0.52734,-1.091308 z m -4.05761,-10.400391 q 0.6665,-0.410156 1.27441,-0.717773 -0.14648,-0.05127 -0.29297,-0.05859 -0.14648,-0.01465 -0.27832,0.02197 -0.31494,0.10254 -0.4834,0.300293 -0.16845,0.197754 -0.21972,0.454102 z" />
      <path
         id="path36"
         style=""
         d="m 286.81152,83.26416 q -0.15381,-0.01465 -0.22705,-0.102539 -0.0659,-0.09521 -0.0659,-0.197754 0.007,-0.102539 0.0879,-0.183105 0.0806,-0.08789 0.23437,-0.09521 1.83838,0.05859 3.64746,0.205078 1.80908,0.146484 3.63281,0.366211 0.46143,0.05127 0.98145,0.117187 0.52734,0.06592 1.06201,0.146485 0.53467,0.07324 1.05469,0.161133 0.52734,0.08789 0.98877,0.175781 0.38818,0.07324 0.76172,0.168457 0.38086,0.08789 0.76904,0.175781 0.1831,0.04394 0.39551,0.117188 0.2124,0.06592 0.4248,0.161132 0.2124,0.09521 0.41748,0.205079 0.20508,0.102539 0.38086,0.212402 0.0732,0.04394 0.13184,0.13916 0.0659,0.08789 0.0806,0.19043 0.022,0.09521 -0.0146,0.183105 -0.0366,0.08789 -0.16114,0.117188 -0.2124,0.05859 -0.4248,0.124511 -0.20508,0.06592 -0.42481,0.07324 -0.98877,0.03662 -1.97754,0.02197 -0.98144,-0.01465 -1.97021,-0.04394 -0.98877,-0.03662 -1.97754,-0.08057 -0.98144,-0.04395 -1.97021,-0.07324 -0.29297,-0.0073 -0.71045,-0.02197 -0.41748,-0.01465 -0.87159,-0.01465 -0.44677,0 -0.88623,0.01465 -0.43212,0.0073 -0.76171,0.05127 -0.11719,0.01465 -0.22706,0.06592 -0.10253,0.05127 -0.2124,0.09521 -0.0293,0.234375 0.0879,0.46875 0.12451,0.227051 0.30762,0.439453 0.19043,0.212403 0.40283,0.395508 0.2124,0.175781 0.37354,0.314941 l 0.24902,0.205079 q 0.79102,-0.46875 1.83838,-0.725098 1.49414,-0.366211 3.09814,-0.366211 3.01758,0.03662 4.87793,2.395019 0.81299,1.303711 0.37354,0.439454 -0.43945,-0.864258 0.41016,0.571289 0.32226,0.541992 0.41015,1.142578 l 0.2124,0.08789 q 0.38086,0.08057 0.73975,0.219727 0.36621,0.131836 0.71777,0.336914 0.271,0.161133 0.34424,0.373535 0.0806,0.212403 0.022,0.424805 -0.0586,0.212402 -0.23437,0.410156 -0.16846,0.19043 -0.38818,0.314942 -0.26368,0.153808 -0.52735,0.322265 -0.25635,0.161133 -0.53467,0.285645 -0.78369,0.351562 -1.64795,0.541992 -0.86425,0.183105 -1.76513,0.27832 -0.89356,0.09521 -1.78711,0.13916 -0.89356,0.03662 -1.72852,0.09521 -0.41015,0.0293 -0.82763,0.05859 -0.41016,0.0293 -0.82032,0.08057 -0.40283,0.05127 -0.80566,0.139161 -0.39551,0.08789 -0.78369,0.234375 -0.25635,0.09521 -0.52735,0.190429 -0.26367,0.09521 -0.53466,0.197754 0.48339,1.237793 1.31836,1.977539 l 0.0366,0.0293 0.47607,-0.578613 q 0.10254,-0.117188 0.29297,-0.249024 0.19775,-0.131836 0.43945,-0.241699 0.2417,-0.117187 0.50537,-0.197754 0.271,-0.08789 0.52735,-0.109863 0.25635,-0.02197 0.4834,0.03662 0.22705,0.05127 0.38086,0.205078 0.0732,0.06592 0.0952,0.175781 0.0293,0.102539 0.0293,0.219727 0.007,0.117187 -0.007,0.234375 -0.007,0.109863 -0.0147,0.19043 -0.007,0.183105 -0.0293,0.366211 -0.0147,0.183105 -0.0147,0.373535 0,0.197754 0,0.395508 0.007,0.190429 -0.0293,0.380859 0.64453,0.06592 1.38428,0.05127 3.03955,0.109864 5.15625,-2.607421 0.54932,-1.010743 0.75439,-1.333008 0.17579,0 0,0.878906 0,0.117188 -0.11718,0.483398 -0.78369,1.303711 -2.02881,2.241211 -1.23779,0.930176 -2.73194,1.398924 -1.49414,0.46875 -3.06884,0.46875 -0.65918,0 -1.27442,-0.0879 l -0.17578,0.0293 q 0.25635,0.30029 0.60791,0.50537 0.35156,0.2124 0.73975,0.35889 0.39551,0.14648 0.79101,0.24902 0.40284,0.10254 0.7544,0.17578 2.07275,0.4541 4.1748,0.62256 2.10938,0.16846 4.22608,0.19043 0.13183,0.0366 0.19043,0.11719 0.0586,0.0879 0.0513,0.1831 0,0.0952 -0.0733,0.17578 -0.0659,0.0806 -0.19775,0.10254 -1.8457,-0.0293 -3.66943,-0.16845 -1.81641,-0.13184 -3.64014,-0.46875 -0.56396,-0.10254 -1.12061,-0.21973 -0.55664,-0.10986 -1.0913,-0.27832 -0.53467,-0.16846 -1.03272,-0.42481 -0.49805,-0.25634 -0.93017,-0.65185 -0.10254,-0.0879 -0.19776,-0.19043 -0.0952,-0.10254 -0.19775,-0.2124 -0.27832,0.0146 -0.56397,0.0146 -0.28564,0 -0.57129,-0.007 -0.26367,-0.007 -0.55664,-0.0147 -0.29297,0 -0.59326,-0.0293 -0.29297,-0.0293 -0.57129,-0.0952 -0.27832,-0.0659 -0.52002,-0.20508 -0.23437,-0.13183 -0.41748,-0.336912 -0.17578,-0.212402 -0.27099,-0.527343 -0.0293,-0.117188 -0.0439,-0.227051 -0.0147,-0.117188 -0.0293,-0.234375 -0.0293,-0.161133 -0.022,-0.322266 0.007,-0.161133 0.022,-0.322266 0.0147,-0.190429 0.0366,-0.402832 0.0293,-0.212402 0.0879,-0.424804 -0.0513,-0.08789 -0.10254,-0.175781 -0.95948,-1.684571 -1.04737,-3.75 0.0439,-1.582032 0.71045,-3.032227 0.67383,-1.45752 1.92627,-2.453613 0.13184,-0.109864 0.271,-0.212403 -0.271,-0.205078 -0.54932,-0.439453 -0.27832,-0.241699 -0.49072,-0.512695 -0.2124,-0.27832 -0.32959,-0.585938 -0.11719,-0.314941 -0.0732,-0.666504 0.0147,-0.05859 0.0293,-0.08789 0.022,-0.03662 0.0659,-0.07324 0.16113,-0.05859 0.30762,-0.13916 0.15381,-0.08789 0.32226,-0.10254 0.36622,-0.02197 0.64454,-0.03662 0.27832,-0.02197 0.51269,-0.0293 0.2417,-0.0073 0.46143,-0.0073 0.22705,-0.0073 0.47607,0 0.24902,0 0.54932,0.0073 0.30029,0.0073 0.6958,0.01465 0.54931,0.01465 0.9375,0.0293 0.38818,0.0073 0.68847,0.02197 0.30762,0.0073 0.57129,0.02197 0.26368,0.0073 0.57129,0.02197 0.30762,0.0073 0.68848,0.02197 0.38818,0.01465 0.94482,0.0293 0.29297,0.0073 0.73975,0.01465 0.44678,0.0073 0.93018,0.01465 0.48339,0 0.94482,-0.0073 0.46143,-0.0073 0.79102,-0.04394 0.10253,-0.0073 0.19775,-0.0293 0.0952,-0.02197 0.19043,-0.05127 -0.14649,-0.07324 -0.28565,-0.131836 -0.29296,-0.109863 -0.49072,-0.190429 -0.19043,-0.08057 -0.35156,-0.131836 -0.15381,-0.05859 -0.29297,-0.09522 -0.13916,-0.04394 -0.32226,-0.08057 -0.17579,-0.04394 -0.42481,-0.08789 -0.2417,-0.04395 -0.60059,-0.109863 -0.46142,-0.08789 -0.97412,-0.168458 -0.50537,-0.08057 -1.03271,-0.146484 -0.52002,-0.07324 -1.03272,-0.131836 -0.51269,-0.06592 -0.97412,-0.117187 -1.82373,-0.205078 -3.63281,-0.336914 -1.80176,-0.131836 -3.64014,-0.183106 z m 11.77002,8.840332 q -0.022,-0.07324 -0.0366,-0.13916 -0.0147,-0.07324 -0.007,-0.153809 0.007,-0.102539 0.0439,-0.205078 0.0439,-0.102539 0.0806,-0.205078 0.0513,-0.146484 0.1831,-0.234375 0.13184,-0.08789 0.3003,-0.131836 0.16845,-0.05127 0.35156,-0.06592 0.18311,-0.01465 0.33691,-0.01465 -0.007,-0.0293 -0.0146,-0.05127 -0.2417,-0.03662 -0.47608,-0.06592 -0.23437,-0.03662 -0.46875,-0.07324 -0.49072,-0.06592 -0.98877,-0.102539 -0.49072,-0.04394 -0.98877,-0.08057 -0.49072,-0.03662 -0.98877,-0.08789 -0.49072,-0.05127 -0.98144,-0.146484 -0.46143,-0.08789 -0.93018,-0.256348 -0.46875,-0.168457 -0.93017,-0.380859 -0.45411,-0.219727 -0.90088,-0.476075 -0.43946,-0.256347 -0.85694,-0.534668 -1.01806,0.915528 -1.36963,1.875 0.022,0.161133 -0.24902,1.545411 z m -4.21142,-4.533691 q -1.6333,0 -2.73926,0.856933 l 0.16113,0.109864 q 0.43946,0.27832 0.88623,0.527343 0.44678,0.249024 0.91553,0.461426 0.63721,0.27832 1.30371,0.417481 0.6665,0.13916 1.34033,0.219726 0.68116,0.07324 1.36231,0.124512 0.68115,0.05127 1.3623,0.146484 0.18311,0.0293 0.35889,0.05127 0.17578,0.02197 0.35889,0.05859 -0.30762,-0.65918 -1.06934,-1.552735 -1.47217,-1.699219 -4.24072,-1.420898 z m -4.39453,5.844726 q 0.13183,1.113282 0.43212,1.999512 0.24903,-0.109863 0.52002,-0.212402 0.271,-0.109864 0.52002,-0.197754 0.25635,-0.08789 0.47608,-0.153809 0.22705,-0.06592 0.39551,-0.08789 0.30761,-0.04395 0.52002,-0.07324 0.2124,-0.03662 0.38085,-0.05859 0.16846,-0.0293 0.30762,-0.04395 0.14649,-0.01465 0.31494,-0.02197 0.17578,-0.01465 0.39551,-0.0293 0.22705,-0.01465 0.54932,-0.03662 0.35156,-0.02197 0.70312,-0.03662 0.35157,-0.02197 0.70313,-0.03662 0.33691,-0.02197 0.70312,-0.04395 0.36621,-0.0293 0.73975,-0.05859 0.37353,-0.0293 0.73974,-0.06592 0.36622,-0.03662 0.69581,-0.08789 0.56396,-0.08789 1.01806,-0.183106 0.4541,-0.102539 0.86426,-0.241699 0.41748,-0.146484 0.82764,-0.344238 0.41748,-0.197754 0.90088,-0.490723 0.0659,-0.04394 0.14648,-0.109863 0.0879,-0.06592 0.15381,-0.146484 0.0732,-0.08057 0.12451,-0.168457 0.0513,-0.08789 0.0586,-0.175782 0.007,-0.117187 -0.0586,-0.212402 -0.0586,-0.09521 -0.16113,-0.168457 -0.10254,-0.08057 -0.22705,-0.13916 -0.12452,-0.05859 -0.23438,-0.102539 0.2417,0.256347 0.26367,0.549316 0.022,0.263672 -0.0879,0.439453 -0.10986,0.168457 -0.29297,0.270996 -0.1831,0.102539 -0.41015,0.146485 -0.22705,0.04395 -0.44678,0.05859 -0.27832,0.01465 -0.55664,0.05859 -0.27832,0.03662 -0.54932,-0.01465 l -0.19043,-0.03662 z m 2.29248,4.636231 q 0.93017,0.629883 2.32177,0.849609 0.0366,-0.183105 0.022,-0.373535 -0.007,-0.197754 -0.007,-0.380859 0,-0.300293 0.0366,-0.593262 0.0366,-0.300293 0,-0.600586 -0.0586,-0.0293 -0.11718,-0.05859 -0.0586,-0.03662 -0.12452,-0.04394 -0.27832,-0.02197 -0.59326,0.05859 -0.30761,0.08057 -0.60058,0.249023 -0.29297,0.161133 -0.542,0.395508 -0.2417,0.227051 -0.3955,0.498047 z m -1.58936,1.589355 q -1.25244,-0.710449 -2.0874,-1.801758 -0.0879,0.439454 -0.0732,0.900879 0.022,0.454102 0.2417,0.79834 0.14648,0.227051 0.37353,0.351563 0.23438,0.117183 0.49072,0.168453 0.26368,0.0586 0.53467,0.0659 0.27832,0.0147 0.5127,0.022 0.28564,0.007 0.58593,0.0147 0.30762,0.007 0.61524,0.007 -0.62988,-0.205081 -1.19385,-0.527347 z m 10.77393,-8.24707 q 0.0293,0.695801 -0.23438,1.464844 l 0.24903,-0.02197 q 0.11718,-0.0073 0.27832,-0.02197 0.16113,-0.01465 0.30761,-0.05859 0.14649,-0.05127 0.24903,-0.131836 0.10986,-0.08789 0.12451,-0.2417 0.0147,-0.146484 -0.0293,-0.256347 -0.0439,-0.109863 -0.13184,-0.197754 -0.0879,-0.08789 -0.20507,-0.161133 -0.10987,-0.08057 -0.2417,-0.168457 -0.0879,-0.05859 -0.18311,-0.109863 -0.0879,-0.05127 -0.1831,-0.09522 z m -1.56739,-0.168457 q -0.0659,0 -0.13916,0.0073 -0.0659,0 -0.12451,0.0073 -0.13183,0.01465 -0.27099,0.04395 -0.13184,0.0293 -0.24903,0.09521 -0.10986,0.06592 -0.1831,0.175781 -0.0732,0.109863 -0.0732,0.270996 -0.007,0.13916 0.0513,0.285644 0.9375,0.02197 0.9375,-0.461425 z" />
      <path
         id="path38"
         style=""
         d="m 317.03857,81.806641 q 0.13184,0.03662 0.19043,0.124511 0.0586,0.08057 0.0513,0.175782 0,0.09521 -0.0732,0.175781 -0.0659,0.08057 -0.19775,0.102539 -0.22705,-0.01465 -0.4541,-0.04395 -0.22706,-0.03662 -0.46143,-0.0293 -0.65186,0.01465 -1.32568,0.190429 -0.67383,0.168457 -1.33301,0.439454 -0.65918,0.270996 -1.27442,0.622558 -0.60791,0.351563 -1.1206,0.725098 l -0.16846,0.124511 q 0.13184,-0.02197 0.26367,-0.02197 0.13184,-0.0073 0.25635,0.03662 0.0806,0.0293 0.16846,0.04394 0.0879,0.01465 0.16846,0.03662 0.0806,0.02197 0.1538,0.05859 0.0733,0.03662 0.12452,0.102539 0.10253,0.124512 0.20507,0.249024 0.10254,0.124511 0.16846,0.270996 0.0806,0.175781 0.0659,0.410156 -0.007,0.227051 -0.0659,0.483398 3.82324,0.615235 3.82324,3.779297 v 7.075196 q 0,2.072753 1.28907,2.072753 0.31494,0 0.53466,-0.109863 0.22705,-0.109863 0.36621,-0.285644 0.13916,-0.183106 0.35157,-0.593262 0.2124,-0.410156 0.4541,-1.047363 0.30029,0 0.2417,0.864257 0,1.098633 -0.9961,1.875 -0.99609,0.769045 -2.12402,0.769045 -3.18603,0 -3.2666,-3.002931 0.0586,-0.241699 0.0586,-0.629883 -0.16845,0.571289 -0.4541,1.054687 0.12451,0.527344 0.11719,1.083985 -0.007,0.55664 -0.0879,1.091312 0.9668,0.94482 2.10205,1.69922 1.14258,0.75439 2.36572,1.32568 0.30029,0.13916 0.60791,0.24902 0.30762,0.11719 0.60059,0.26367 0.23437,0.11719 0.44678,0.26368 0.21972,0.14648 0.43212,0.29296 0.21973,0.14649 0.43946,0.28565 0.21972,0.13916 0.46142,0.2417 0.10987,0.0806 0.13916,0.17578 0.0366,0.10254 0,0.19043 -0.0366,0.0879 -0.13183,0.13916 -0.0879,0.0586 -0.21973,0.0439 -0.25635,-0.10986 -0.49072,-0.25634 -0.22705,-0.14649 -0.44678,-0.3003 -0.21973,-0.1538 -0.43945,-0.30761 -0.21973,-0.15381 -0.46875,-0.27832 -0.55664,-0.28565 -1.12061,-0.5127 -0.55664,-0.22705 -1.10596,-0.55664 -0.80566,-0.49072 -1.56738,-1.01807 -0.76172,-0.52002 -1.47217,-1.15722 -0.0659,-0.0586 -0.12451,-0.11719 -0.0586,-0.0513 -0.11719,-0.10986 -0.0513,0.12451 -0.13183,0.24902 -0.0806,0.13184 -0.18311,0.22705 -0.10254,0.10254 -0.23437,0.14649 -0.12451,0.0439 -0.26367,0 -0.21241,-0.0659 -0.40284,-0.21241 -0.1831,-0.14648 -0.34423,-0.34423 -0.16114,-0.19043 -0.3003,-0.41749 -0.13916,-0.22705 -0.25634,-0.461421 -1.35498,0.659181 -2.80518,0.659181 -1.58936,0 -2.77588,-0.842287 -1.18652,-0.842285 -1.27441,-2.160644 0,-1.560059 0.71777,-2.614746 0.7251,-1.062012 2.01416,-1.699219 0.87158,-0.424805 1.9043,-0.703125 0,-0.307617 0.007,-0.615234 0.007,-0.307618 0.007,-0.615235 0,-0.490723 -0.007,-0.988769 0,-0.498047 0.007,-0.996094 0.0146,-0.498047 0.0513,-0.996094 0.0439,-0.498047 0.13916,-0.981445 l 0.022,-0.131836 q -0.37354,0.19043 -0.63721,0.454101 -0.41748,0.402832 -1.40625,2.043457 0,0.725098 0.11719,1.215821 0.12451,0.490722 -0.62988,0.534668 -1.79444,-0.205078 -1.94825,-1.647949 0.0366,-0.871583 0.84229,-1.757813 0.80566,-0.893555 2.24853,-1.472168 0.7837,-0.314941 1.66993,-0.454102 0,-0.0073 0.0146,-0.03662 0.15381,-0.366211 0.34424,-0.637207 0.19043,-0.270996 0.49073,-0.483398 0.19042,-0.212402 0.35888,-0.351563 0.20508,-0.168457 0.39551,-0.344238 0.19775,-0.175781 0.41016,-0.32959 0.94482,-0.703125 2.0288,-1.223144 1.08399,-0.52002 2.23389,-0.761719 0.25635,-0.05859 0.50537,-0.08057 0.25635,-0.0293 0.5127,-0.06592 0.25635,-0.03662 0.50537,0.0073 0.25635,0.03662 0.51269,0.05859 z m -3.92578,7.756347 q 0,-1.274414 -0.76172,-2.065429 -0.20507,-0.205079 -0.43212,-0.358887 -0.0586,0.09521 -0.12452,0.168457 -0.0586,0.07324 -0.11718,0.131836 -0.21241,0.197754 -0.52735,0.307617 -0.30761,0.102539 -0.6372,0.102539 -0.32959,0 -0.63721,-0.102539 -0.30762,-0.109863 -0.50537,-0.32959 -0.0806,-0.08789 -0.13916,-0.146484 -0.0513,-0.06592 -0.0879,-0.117188 -0.0366,-0.05127 -0.0733,-0.102539 -0.0293,-0.05859 -0.0586,-0.131836 -0.0366,0.01465 -0.0806,0.0293 -0.022,0.0073 -0.0366,0.01465 -0.022,0.102539 -0.0439,0.205078 -0.022,0.102539 -0.0366,0.205078 -0.0806,0.476074 -0.12452,0.959473 -0.0366,0.476074 -0.0586,0.959472 -0.0147,0.483399 -0.0147,0.966797 0,0.476074 0,0.959473 l -0.0293,1.157226 0.0366,-0.0073 q -0.007,-0.227051 0,-0.461426 0.0147,-0.234375 0.0513,-0.454101 0.0439,-0.227051 0.11718,-0.424805 0.0806,-0.197754 0.20508,-0.344238 0.0586,-0.08057 0.13916,-0.124512 0.0879,-0.05127 0.16846,-0.109863 0.0806,-0.05127 0.17578,-0.05127 0.10254,-0.0073 0.19043,-0.02197 0.16113,-0.0293 0.36621,0.04394 0.20508,0.06592 0.39551,0.19043 0.19043,0.117187 0.34424,0.270996 0.15381,0.153808 0.2124,0.292968 l 0.10986,0.292969 q 0.0366,0.109863 0.0586,0.234375 0.022,0.124512 0.0366,0.256348 0.90088,-0.09522 1.91894,-0.146485 z m -3.75,9.389649 q 0.35157,-0.01465 0.68848,-0.09521 -0.27832,-0.74707 -0.50537,-1.494141 -0.21973,-0.754394 -0.38819,-1.530761 -0.0732,-0.04395 -0.13916,-0.109864 -0.0586,-0.07324 -0.11718,-0.153808 -0.0513,-0.08057 -0.0952,-0.161133 -0.0366,-0.08789 -0.0659,-0.153809 -0.1831,-0.410156 -0.29296,-0.812988 -0.10254,-0.402832 -0.15381,-0.827637 -0.38819,0.256348 -0.71045,0.578614 -0.82764,0.827636 -1.59668,2.131347 0.0293,0.109863 0.0586,0.344238 0.0293,0.234375 0.0586,0.344239 0.24169,0.952148 0.92285,1.486816 0.68847,0.527344 2.33642,0.454102 z m 3.75,-6.394043 q -0.10986,0 -0.30029,-0.01465 -0.19043,-0.01465 -0.30029,-0.01465 -0.6958,0 -1.34766,0.09521 -0.0366,0.270996 -0.10986,0.549316 -0.0732,0.270996 -0.16114,0.534668 -0.0879,0.256348 -0.19043,0.490723 -0.10253,0.227051 -0.19775,0.410156 -0.0366,0.06592 -0.13916,0.234375 -0.0952,0.161133 -0.23437,0.358887 -0.13184,0.190429 -0.3003,0.366211 -0.16113,0.175781 -0.32226,0.256347 0.13183,0.534668 0.28564,1.069336 0.16113,0.534668 0.32959,1.047364 0.0659,0.205078 0.13184,0.410156 0.0732,0.197754 0.15381,0.395508 0.22705,-0.08789 0.4541,-0.205079 -0.13184,-0.249023 -0.23438,-0.505371 -0.10254,-0.256347 -0.14648,-0.498047 -0.0366,-0.249023 -0.007,-0.46875 0.0366,-0.22705 0.16846,-0.402832 0.22705,-0.307617 0.46875,-0.373535 0.24902,-0.06592 0.4834,0.03662 0.23437,0.09521 0.43213,0.322266 0.20508,0.219727 0.34424,0.490723 0.10254,-0.161133 0.19775,-0.32959 0.54199,-1.010742 0.54199,-2.39502 z m -3.39111,0.388183 q -0.36621,0.117188 -0.70313,0.270996 0.0659,0.571289 0.17579,1.149903 0.10986,0.571289 0.23437,1.127929 0.18311,-0.102539 0.30762,-0.285644 0.13183,-0.19043 0.2417,-0.344238 0.12451,-0.19043 0.25634,-0.439453 0.13917,-0.256348 0.25635,-0.541993 0.12451,-0.285644 0.21973,-0.593261 0.0952,-0.314942 0.14648,-0.622559 -0.57861,0.102539 -1.13525,0.27832 z m 0.57129,-7.016601 q 0.88623,0 1.64795,0.08789 0,-0.0073 0.0147,-0.05127 0.0659,-0.219727 0.0439,-0.410156 -0.0146,-0.197754 -0.10254,-0.344239 -0.0879,-0.153808 -0.24902,-0.256347 -0.15381,-0.102539 -0.38086,-0.131836 -0.14648,-0.02197 -0.30762,-0.01465 -0.15381,0.0073 -0.30029,0.04395 -0.30029,0.06592 -0.53467,0.183105 -0.2124,0.212402 -0.39551,0.446777 -0.17578,0.227051 -0.27099,0.483399 0.40283,-0.03662 0.83496,-0.03662 z m -1.01074,6.298828 q 0.75439,-0.13916 1.61865,-0.241699 -0.0146,-0.19043 -0.0586,-0.358887 -0.0439,-0.175781 -0.12452,-0.322266 -0.12451,-0.219726 -0.36621,-0.388183 -0.23437,-0.168457 -0.49072,-0.212403 -0.25635,-0.05127 -0.4834,0.05859 -0.21973,0.102539 -0.30762,0.439453 -0.0732,0.285645 -0.10253,0.556641 -0.022,0.263672 -0.0147,0.534668 0.16113,-0.03662 0.32959,-0.06592 z m 1.98486,6.071777 q 0.46143,-0.314941 0.82031,-0.761719 l -0.0439,-0.109863 q -0.0366,-0.07324 -0.13184,-0.227051 -0.0952,-0.153808 -0.21973,-0.285644 -0.12451,-0.13916 -0.27099,-0.197754 -0.14649,-0.06592 -0.28565,0.04394 -0.1538,0.124512 -0.19775,0.292969 -0.0439,0.168457 -0.0147,0.373535 0.0293,0.205078 0.12451,0.432129 0.0952,0.219727 0.21973,0.439453 z m -0.26367,1.230469 q -0.0952,0.05127 -0.19043,0.109863 0.27099,0.505367 0.62988,0.930177 0.0806,0.0952 0.19043,0.14648 0.10986,0.0586 0.2124,0.13184 0.0513,-0.022 0.10987,-0.0366 0.0586,-0.007 0.0952,-0.0513 0.0732,-0.0952 0.11719,-0.2124 0.0513,-0.11719 0.0879,-0.2417 l -0.30029,-0.29297 q -0.10987,-0.102541 -0.271,-0.285646 -0.16113,-0.19043 -0.32959,-0.424805 -0.16846,0.117188 -0.35156,0.227051 z m -0.65186,-12.824707 q -0.44677,0 -0.8789,0.09522 0.0879,0.175781 0.24902,0.300293 0.13184,0.109863 0.29297,0.175781 0.16846,0.06592 0.33691,0.08789 0.42481,0.05127 0.70313,-0.06592 0.27832,-0.117188 0.46875,-0.373535 -0.52002,-0.219727 -1.17188,-0.219727 z m 1.97022,11.689453 q -0.26367,0.32959 -0.58594,0.60791 0.16846,0.219727 0.30762,0.395508 0.14648,0.168457 0.22705,0.249023 0.0439,0.05859 0.0732,0.08057 0,-0.0293 0,-0.05127 0.007,-0.0293 0.007,-0.05859 0.022,-0.292969 0.0147,-0.600586 0,-0.314942 -0.0439,-0.622559 z m -3.71338,-4.973144 q 0.0293,0.380859 0.10986,0.754394 0.0806,0.366211 0.24903,0.739746 -0.0732,-0.395508 -0.13184,-0.776367 -0.0586,-0.380859 -0.11719,-0.776367 z" />
    </g>
  </g>
</svg>
