<?xml version="1.0" encoding="UTF-8" standalone="no"?>
<svg
   xmlns:dc="http://purl.org/dc/elements/1.1/"
   xmlns:cc="http://creativecommons.org/ns#"
   xmlns:rdf="http://www.w3.org/1999/02/22-rdf-syntax-ns#"
   xmlns:svg="http://www.w3.org/2000/svg"
   xmlns="http://www.w3.org/2000/svg"
   id="svg16"
   width="800px"
   version="1.1"
   height="200px">
  <metadata
     id="metadata20">
    <rdf:RDF>
      <cc:Work
         rdf:about="">
        <dc:format>image/svg+xml</dc:format>
        <dc:type
           rdf:resource="http://purl.org/dc/dcmitype/StillImage" />
      </cc:Work>
    </rdf:RDF>
  </metadata>
  <defs
     id="defs4">
    <style
       id="style2"
       type="text/css"><![CDATA[    
     @font-face {font-family:Validity Script PERSONAL USE;
     src: url('/Users/francesco/Repos/write-logos/src/fonts/ValidityScriptRI_PERSONAL_USE.ttf');}
     @font-face {font-family:RM Entrees;
     src: url('/Users/francesco/Repos/write-logos/src/fonts/rm_entrees.ttf');}
     ]]></style>
  </defs>
  <g
     id="g14"
     style="font-size:60px">
    <g
       style="text-anchor:middle"
       id="text12"
       aria-label="eXtemporanea">
      <path
         id="path22"
         style="font-family:'Validity Script PERSONAL USE'"
         d="m 246.68219,98.8 q -1.2,-1.86 -1.5,-4.56 -0.3,-2.76 0.12,-5.7 0.48,-2.94 1.62,-5.7 1.2,-2.76 2.94,-4.68 -2.7,1.56 -4.5,4.26 -1.8,2.64 -2.4,5.58 -0.66,3.36 0.18,6.3 0.9,2.94 3.54,4.5 z m 9.06,-22.08 q -1.62,0 -3.06,0.96 -1.44,0.96 -2.58,2.52 -1.14,1.56 -1.98,3.54 -0.84,1.98 -1.26,4.08 2.82,-0.3 5.04,-1.98 2.22,-1.74 3.54,-3.9 0.66,-1.08 1.02,-2.1 0.42,-1.02 0.36,-1.8 0,-1.32 -1.08,-1.32 z m 2.52,0.48 q 0.06,0.18 0.06,0.72 0,1.02 -0.48,2.28 -0.42,1.2 -1.2,2.4 -0.78,1.2 -1.86,2.46 -1.08,1.2 -2.46,2.1 2.88,-0.72 4.68,-2.1 1.8,-1.38 2.58,-2.82 0.84,-1.56 0.54,-2.94 -0.3,-1.44 -1.86,-2.1 z m -11.64,12.06 q -0.24,1.92 -0.18,3.72 0.12,1.74 0.54,3.18 0.48,1.44 1.32,2.46 0.9,0.96 2.28,1.26 0.36,0 0.66,0.06 0.3,0 0.6,0 2.82,0 5.1,-0.9 2.28,-0.9 3.96,-2.28 1.68,-1.44 2.64,-3.18 0.96,-1.8 1.2,-3.6 0.06,-0.36 0.24,-0.54 0.24,-0.18 0.54,-0.18 0.3,0 0.48,0.18 0.24,0.18 0.18,0.54 -0.24,2.1 -1.38,4.14 -1.14,2.04 -3.06,3.66 -1.86,1.62 -4.44,2.58 -2.58,1.02 -5.7,1.02 -0.36,0 -0.72,-0.06 -0.3,0 -0.6,0 -2.82,-0.18 -4.74,-1.44 -1.86,-1.26 -2.94,-3.12 -1.02,-1.86 -1.32,-4.2 -0.24,-2.34 0.24,-4.68 0.48,-2.34 1.68,-4.56 1.2,-2.28 3,-4.08 1.86,-1.8 4.26,-2.88 2.46,-1.08 5.46,-1.08 1.98,0 3.24,0.66 1.26,0.66 1.86,1.74 0.66,1.02 0.6,2.34 -0.06,1.32 -0.78,2.7 -1.02,1.92 -2.7,3.18 -1.62,1.2 -3.6,1.98 -1.98,0.78 -4.08,1.08 -2.04,0.3 -3.84,0.3 z" />
      <path
         id="path24"
         style="font-family:'RM Entrees'"
         d="m 265.23437,93.4375 q 0,-0.351563 0.23438,-0.644531 Q 265.76172,92.5 266.17187,92.5 q 0,0.410156 -0.29296,0.703125 -0.29297,0.234375 -0.64454,0.234375 z m 2.34375,0 q -0.23437,0 -0.35156,-0.117188 -0.11719,-0.117187 -0.11719,-0.351562 V 92.5 h 0.46875 q 0.17579,0 0.29297,0.175781 0.17578,0.117188 0.17578,0.292969 V 93.4375 Z M 286.79687,92.5 q 0,-0.351563 0.23438,-0.644531 0.29297,-0.292969 0.70312,-0.292969 0,0.410156 -0.29296,0.703125 Q 287.14844,92.5 286.79687,92.5 Z m -20.625,-0.9375 q -0.41015,0 -0.70312,-0.234375 -0.23438,-0.292969 -0.23438,-0.703125 h 0.46875 q 0.17579,0 0.29297,0.175781 0.17578,0.117188 0.17578,0.292969 v 0.46875 z m 22.5,0 q 0,-0.351563 0.23438,-0.644531 0.29297,-0.292969 0.70312,-0.292969 v 0.46875 q 0,0.234375 -0.17578,0.351562 -0.11718,0.117188 -0.29297,0.117188 z m -1.40625,0 q -0.23437,0 -0.35156,-0.117188 -0.11719,-0.117187 -0.11719,-0.351562 0,-0.175781 0.11719,-0.292969 0.11719,-0.175781 0.35156,-0.175781 0.17579,0 0.29297,0.175781 0.17578,0.117188 0.17578,0.292969 v 0.46875 z m -3.28125,8.4375 0.9375,-0.46875 0.46875,-0.46875 -0.46875,-0.46875 v 0 L 284.45312,98.125 283.98437,97.1875 V 95.78125 L 283.51562,95.3125 V 94.375 l -0.46875,-0.46875 v 0 l -0.46875,-0.46875 -0.46875,-0.46875 q 0,-0.175781 -0.17578,-0.292969 Q 281.81641,92.5 281.64062,92.5 q -0.23437,0 -0.35156,-0.117188 -0.11719,-0.117187 -0.11719,-0.351562 V 91.5625 l -0.9375,-0.9375 -0.46875,-0.9375 -0.46875,-0.46875 -0.9375,-0.46875 0.9375,-0.9375 0.9375,-0.46875 0.46875,-0.46875 0.46875,-0.9375 0.9375,0.9375 0.46875,0.9375 0.46875,0.9375 0.9375,0.9375 0.46875,0.9375 0.46875,0.46875 v 0.05859 l 0.46875,0.410156 V 92.5 l 0.46875,0.46875 h 0.9375 L 287.73437,92.5 v -0.9375 l 0.46875,0.9375 h -0.0586 l -0.41016,0.46875 -0.9375,0.46875 0.9375,0.9375 0.9375,0.46875 v 0.05859 l 0.46875,0.410156 0.46875,0.9375 0.29297,0.644531 0.64453,0.292969 0.9375,0.9375 0.9375,0.46875 0.9375,0.46875 h 0.9375 l 0.9375,0.46875 h 0.9375 V 100 h -0.9375 l -0.9375,-0.46875 h -0.9375 l -0.9375,0.46875 -0.9375,-0.46875 h -0.9375 v 0 l -0.46875,-0.46875 h -0.46875 l -0.9375,0.46875 v 0 l -0.46875,-0.46875 -0.46875,-0.46875 -0.46875,0.46875 -0.46875,0.9375 z m -18.75,-17.8125 q 0,-0.351563 0.23438,-0.644531 0.29297,-0.292969 0.70312,-0.292969 0,0.410156 -0.29296,0.703125 -0.29297,0.234375 -0.64454,0.234375 z m 1.875,0 q -0.41015,0 -0.70312,-0.234375 -0.23438,-0.292969 -0.23438,-0.703125 0.35157,0 0.64454,0.292969 0.29296,0.292968 0.29296,0.644531 z m 24.375,0 v -0.46875 q 0,-0.175781 0.11719,-0.292969 Q 291.71875,81.25 291.95312,81.25 h 0.46875 q 0,0.410156 -0.29296,0.703125 -0.29297,0.234375 -0.64454,0.234375 z m 1.875,0 q -0.41015,0 -0.70312,-0.234375 -0.23438,-0.292969 -0.23438,-0.703125 0.35157,0 0.64454,0.292969 0.29296,0.292968 0.29296,0.644531 z M 266.17187,81.25 q -0.41015,0 -0.70312,-0.234375 -0.23438,-0.292969 -0.23438,-0.703125 0.35157,0 0.64454,0.292969 0.29296,0.292968 0.29296,0.644531 z m 26.25,0 q 0,-0.351563 0.23438,-0.644531 0.29297,-0.292969 0.70312,-0.292969 0,0.410156 -0.29296,0.703125 Q 292.77344,81.25 292.42187,81.25 Z m -16.875,5.625 -0.46875,-0.9375 -0.46875,-0.46875 v 0 L 274.14062,85 273.67187,84.0625 273.20312,83.125 v -0.9375 l -0.46875,-0.9375 -0.46875,-0.9375 -0.46875,-0.46875 v 0 l -0.46875,-0.46875 -0.46875,-0.9375 -0.9375,-0.46875 h -1.875 l -0.9375,-0.46875 -0.9375,-0.46875 -0.9375,0.46875 -0.46875,0.9375 0.46875,0.9375 0.9375,0.46875 v 0.05859 l 0.46875,0.410156 -0.46875,0.9375 v -0.9375 l -0.9375,-0.46875 v 0 L 264.76562,79.375 264.29687,78.4375 V 77.5 l 0.46875,-0.9375 0.46875,-0.46875 0.9375,-0.46875 0.9375,0.46875 v 0.05859 l 0.46875,0.410156 0.46875,0.46875 0.9375,-0.46875 0.9375,-0.46875 h 0.9375 v 0.05859 l 0.46875,0.410156 V 77.5 l 0.46875,-0.9375 0.9375,-0.46875 h 0.9375 l 0.9375,-0.46875 h 0.9375 l -0.9375,0.46875 -0.9375,0.46875 h -0.46875 l 0.46875,0.9375 v 0.9375 l 0.9375,0.9375 0.46875,0.9375 0.46875,0.46875 0.9375,0.46875 0.46875,0.9375 v 0.9375 l 0.46875,0.46875 v 0.05859 l 0.41016,0.410156 h 0.0586 -0.0586 l -0.41016,0.46875 -0.46875,0.46875 -0.46875,0.9375 -0.9375,0.9375 z m 0.9375,-10.3125 q -0.41015,0 -0.70312,-0.234375 -0.23438,-0.292969 -0.23438,-0.703125 0.35157,0 0.64454,0.292969 0.29296,0.292968 0.29296,0.644531 z m 6.5625,0 q 0,-0.351563 0.23438,-0.644531 0.29297,-0.292969 0.70312,-0.292969 0,0.410156 -0.29296,0.703125 -0.29297,0.234375 -0.64454,0.234375 z m 8.4375,0 q -0.41015,0 -0.70312,-0.234375 -0.23438,-0.292969 -0.23438,-0.703125 0.35157,0 0.64454,0.292969 0.29296,0.292968 0.29296,0.644531 z m -2.8125,0 v -0.46875 q 0,-0.175781 0.11719,-0.292969 0.11719,-0.175781 0.35156,-0.175781 h 0.46875 v 0.46875 q 0,0.234375 -0.17578,0.351562 -0.11718,0.117188 -0.29297,0.117188 z m -13.125,-0.9375 q -0.41015,0 -0.70312,-0.234375 -0.23438,-0.292969 -0.23438,-0.703125 0.35157,0 0.64454,0.292969 0.29296,0.292968 0.29296,0.644531 z m 0,0 v -0.46875 q 0,-0.175781 0.11719,-0.292969 0.11719,-0.175781 0.35156,-0.175781 h 0.46875 q 0,0.410156 -0.29296,0.703125 -0.29297,0.234375 -0.64454,0.234375 z m 8.4375,0 q -0.41015,0 -0.70312,-0.234375 -0.23438,-0.292969 -0.23438,-0.703125 0.35157,0 0.64454,0.292969 0.29296,0.292968 0.29296,0.644531 z m 0,0 v -0.46875 q 0,-0.175781 0.11719,-0.292969 0.11719,-0.175781 0.35156,-0.175781 h 0.46875 q 0,0.410156 -0.29296,0.703125 -0.29297,0.234375 -0.64454,0.234375 z m -22.5,24.375 v -0.46875 h 0.9375 l 0.9375,-0.46875 0.9375,0.46875 0.9375,-0.46875 -0.46875,-0.9375 0.46875,-0.46875 0.46875,-0.46875 0.46875,-0.9375 0.46875,-0.9375 0.46875,-0.46875 0.9375,-0.46875 0.9375,-0.9375 -0.46875,-0.9375 v -0.234375 l -0.46875,-0.234375 h -0.9375 l 0.9375,-0.46875 0.9375,0.46875 V 92.5 l 0.46875,0.9375 0.46875,-0.9375 0.9375,-0.46875 0.46875,-0.46875 V 90.625 l 0.46875,-0.46875 0.9375,-0.46875 0.46875,-0.9375 0.46875,-0.46875 0.46875,-0.46875 h 0.46875 l 0.9375,-0.46875 0.46875,-0.46875 0.46875,-0.46875 0.46875,-0.46875 0.46875,-0.9375 0.9375,-0.9375 0.9375,-0.46875 0.46875,-0.46875 0.46875,-0.9375 0.9375,-0.9375 0.46875,-0.9375 0.46875,-0.46875 0.9375,-0.46875 h 0.46875 l 0.46875,-0.46875 0.9375,-0.46875 0.9375,-0.9375 0.46875,-0.9375 -0.46875,-0.9375 -0.9375,0.46875 -0.9375,-0.46875 h 0.9375 l 0.87891,-0.410156 v -0.05859 h 0.0586 v 0.05859 l 0.46875,0.410156 0.46875,0.9375 0.9375,0.46875 h 1.875 l 0.9375,-0.46875 h 0.9375 l 0.46875,-0.9375 v -0.234375 l -0.46875,-0.234375 h -0.9375 l 0.9375,-0.46875 0.9375,0.46875 V 75.625 l -0.46875,0.9375 h -0.0586 l -0.41016,0.46875 -0.9375,0.46875 0.46875,0.9375 -0.11718,0.234375 0.58593,0.234375 v 0.05859 l 0.46875,0.410156 0.46875,0.9375 V 81.25 l -0.46875,-0.9375 -0.46875,-0.9375 -0.76171,-0.351563 -0.17579,0.351563 -0.9375,-0.46875 -0.9375,0.46875 -0.9375,0.9375 -0.9375,0.46875 -0.9375,0.46875 h -0.46875 l -0.46875,0.9375 h -0.52734 l -0.41016,0.46875 -0.46875,0.46875 -0.46875,0.9375 -0.9375,0.46875 -0.9375,0.46875 -0.46875,0.9375 -0.46875,0.9375 -0.9375,0.46875 -0.46875,0.46875 h -0.0586 l -0.41016,0.46875 -0.9375,0.46875 -0.9375,0.9375 -0.9375,0.9375 -0.46875,0.9375 h -0.0586 l -0.41016,0.46875 -0.46875,0.46875 -0.46875,0.9375 -0.46875,0.9375 h -0.0586 l -0.41016,0.46875 -0.58593,-0.234375 -0.35157,0.703125 0.9375,0.9375 q 0,0.234375 -0.17578,0.351562 -0.11718,0.117188 -0.29297,0.117188 0.17579,0 0.29297,0.175781 0.17578,0.117188 0.17578,0.292969 l -0.46875,0.9375 h -0.0586 l -0.41016,0.46875 v 0.46875 l 0.9375,0.46875 h 0.9375 L 272.73437,100 h -0.9375 l -0.9375,-0.9375 -0.9375,-0.46875 h -0.9375 l -0.9375,-0.46875 h -0.52734 l -0.41016,0.46875 -0.46875,0.46875 h -0.0586 l -0.41016,0.46875 -0.9375,0.46875 h -0.9375 l -0.9375,-0.46875 -0.9375,0.46875 z m 29.0625,-25.3125 q -0.41015,0 -0.70312,-0.234375 -0.23438,-0.292969 -0.23438,-0.703125 0.35157,0 0.64454,0.292969 0.29296,0.292968 0.29296,0.644531 z" />
      <path
         id="path26"
         style="font-family:'Validity Script PERSONAL USE'"
         d="m 294.40937,70.6 q -0.12,-0.42 0.18001,-0.66 0.29999,-0.3 0.59999,-0.3 0.42,0 0.6,0.42 0.24001,0.96 1.32,1.62 1.14,0.66 2.88,0.66 0.78001,0 1.8,-0.18 l 0.54001,-2.1 q 0.71999,-2.88 1.26,-4.86 0.53999,-1.98 0.65999,-2.88 0,-0.3 0.18,-0.48 0.18,-0.18 0.3,-0.3 h 0.54001 q 1.26,0.42 1.85999,1.44 0.6,0.96 0.78,2.16 0.24001,1.2 0.12001,2.58 -0.06,1.32 -0.18001,2.46 2.94,-1.14 5.04,-1.14 2.04,0 2.94001,1.02 0.35999,0.42 0.06,0.84 -0.29999,0.36 -0.78,0.36 -0.12,0 -0.24,0 -0.12,-0.06 -0.18,-0.18 -0.59999,-0.6 -1.85999,-0.6 -0.96001,0 -2.28001,0.3 -1.32,0.3 -3.06,1.02 -0.36,2.16 -0.95999,4.56 -0.60001,2.4 -1.32,4.86 -0.96001,3.3 -1.92001,6.48 -0.9,3.18 -1.44,5.88 -1.13999,5.58 0.18001,6.36 0.71999,0.3 1.25999,0.3 1.26,0 2.64,-0.72 1.44,-0.72 2.7,-2.04 1.26,-1.38 2.16,-3.24 0.9,-1.92 1.2,-4.26 0.06,-0.36 0.24,-0.54 0.24001,-0.18 0.54001,-0.18 0.29999,0 0.47999,0.18 0.24,0.18 0.18,0.54 -0.3,2.4 -1.32,4.56 -0.95999,2.1 -2.33999,3.72 -1.38001,1.56 -3.06,2.46 -1.68,0.96 -3.36001,0.96 -1.07999,0 -1.98,-0.36 h -0.12 q -1.91999,-0.42 -2.76,-2.28 -0.83999,-1.86 -0.95999,-4.44 -0.06,-2.64 0.35999,-5.76 0.48,-3.18 1.20001,-6.24 0.47999,-2.28 1.07999,-4.56 0.60001,-2.28 1.14,-4.38 -0.42,0.06 -0.77999,0.06 -0.30001,0 -0.66001,0 -2.03999,0 -3.53999,-0.78 -1.5,-0.78 -1.92001,-2.34 z m 6.12001,12.12 q -0.60001,2.64 -1.02001,5.04 -0.35999,2.34 -0.47999,4.38 -0.12001,1.98 0.06,3.6 0.18,1.56 0.77999,2.58 -0.12,-1.02 0.06,-2.22 0.18,-1.26 0.48,-2.58 0.54,-2.7 1.44,-5.94 0.96,-3.24 1.98001,-6.66 0.65999,-2.52 1.32,-4.98 0.65999,-2.46 1.07999,-4.62 l 0.06,-0.24 q 0.12,-0.66 0.18001,-1.2 0.06,-0.6 0.12,-1.14 0.29999,-4.26 -1.02001,-5.4 -0.59999,2.64 -1.85999,6.9 -0.72001,2.82 -1.62,6.06 -0.84001,3.18 -1.56,6.42 z" />
      <path
         id="path28"
         style="font-family:'Validity Script PERSONAL USE'"
         d="m 317.58062,98.8 q -1.2,-1.86 -1.5,-4.56 -0.3,-2.76 0.12,-5.7 0.48001,-2.94 1.62,-5.7 1.2,-2.76 2.94,-4.68 -2.69999,1.56 -4.5,4.26 -1.8,2.64 -2.39999,5.58 -0.66001,3.36 0.17999,6.3 0.9,2.94 3.54,4.5 z m 9.06,-22.08 q -1.62,0 -3.06,0.96 -1.44,0.96 -2.57999,2.52 -1.14,1.56 -1.98001,3.54 -0.83999,1.98 -1.26,4.08 2.82,-0.3 5.04001,-1.98 2.21999,-1.74 3.53999,-3.9 0.66001,-1.08 1.02001,-2.1 0.41999,-1.02 0.35999,-1.8 0,-1.32 -1.08,-1.32 z m 2.52,0.48 q 0.06,0.18 0.06,0.72 0,1.02 -0.47999,2.28 -0.42001,1.2 -1.20001,2.4 -0.78,1.2 -1.85999,2.46 -1.08001,1.2 -2.46001,2.1 2.88,-0.72 4.68,-2.1 1.8,-1.38 2.58,-2.82 0.84,-1.56 0.54,-2.94 -0.3,-1.44 -1.86,-2.1 z m -11.64,12.06 q -0.24,1.92 -0.18,3.72 0.12,1.74 0.54,3.18 0.48001,1.44 1.32,2.46 0.9,0.96 2.28,1.26 0.36,0 0.66,0.06 0.3,0 0.60001,0 2.82,0 5.09999,-0.9 2.28001,-0.9 3.96001,-2.28 1.67999,-1.44 2.63999,-3.18 0.96,-1.8 1.2,-3.6 0.06,-0.36 0.24,-0.54 0.24001,-0.18 0.54,-0.18 0.3,0 0.48,0.18 0.24,0.18 0.18,0.54 -0.24,2.1 -1.38,4.14 -1.13999,2.04 -3.06,3.66 -1.86,1.62 -4.44,2.58 -2.57999,1.02 -5.69999,1.02 -0.36001,0 -0.72001,-0.06 -0.3,0 -0.59999,0 -2.82,-0.18 -4.74001,-1.44 -1.86,-1.26 -2.93999,-3.12 -1.02001,-1.86 -1.32,-4.2 -0.24001,-2.34 0.23999,-4.68 0.48,-2.34 1.68,-4.56 1.20001,-2.28 3,-4.08 1.86,-1.8 4.26001,-2.88 2.45999,-1.08 5.45999,-1.08 1.98001,0 3.24001,0.66 1.25999,0.66 1.85999,1.74 0.66,1.02 0.6,2.34 -0.06,1.32 -0.77999,2.7 -1.02001,1.92 -2.70001,3.18 -1.62,1.2 -3.6,1.98 -1.98,0.78 -4.07999,1.08 -2.04001,0.3 -3.84001,0.3 z" />
      <path
         id="path30"
         style="font-family:'Validity Script PERSONAL USE'"
         d="m 365.01531,74.32 q 2.34,0.42 3.36,1.8 1.02,1.32 1.14,3.18 0.18,1.86 -0.3,4.08 -0.42,2.16 -1.08,4.26 -0.66,2.22 -1.5,4.38 -0.84,2.1 -1.38,3.9 -0.24,0.84 -0.48,1.62 -0.18,0.72 -0.24,1.26 -0.12,0.54 -0.06,0.78 0.12,0.24 0.18,0.36 0.48,0.24 0.96,0.3 0.48,0.06 0.96,0.06 1.62,0 3.18,-0.9 1.62,-0.9 2.88,-2.34 1.32,-1.5 2.22,-3.36 0.9,-1.86 1.14,-3.72 0.06,-0.36 0.24,-0.54 0.24,-0.18 0.54,-0.18 0.3,0 0.48,0.18 0.24,0.18 0.18,0.54 -0.24,1.92 -1.2,4.02 -0.96,2.04 -2.46,3.78 -1.5,1.74 -3.36,2.88 -1.86,1.14 -3.9,1.14 -0.66,0 -1.32,-0.12 -0.6,-0.06 -1.26,-0.36 -0.06,0 -0.12,-0.12 -1.38,-0.42 -1.92,-1.74 -0.54,-1.32 -0.66,-3 -0.12,-1.74 0.12,-3.78 0.24,-2.04 0.72,-4.14 0.42,-2.16 0.84,-4.26 0.48,-2.1 0.84,-3.96 0.3,-1.62 0.36,-2.76 0.12,-1.2 0,-1.92 -2.82,-0.06 -5.46,5.22 -1.44,2.7 -2.64,6 -1.2,3.24 -2.46,6.3 -0.12,0.36 -0.3,0.78 -0.12,0.36 -0.24,0.72 -0.66,1.92 -0.96,3.3 -0.3,1.38 -0.12,2.28 0.06,0.12 0,0.36 0,0.3 -0.24,0.48 -0.24,0.24 -0.54,0.24 -0.78,0 -1.32,-0.54 -0.54,-0.54 -0.9,-1.26 -0.3,-0.78 -0.48,-1.62 -0.18,-0.84 -0.18,-1.44 -0.12,-1.68 0.06,-3.72 0.24,-2.1 0.72,-4.2 0.42,-2.16 0.84,-4.26 0.48,-2.1 0.78,-3.96 0.3,-1.62 0.42,-2.76 0.12,-1.2 0,-1.92 -1.56,-0.06 -2.94,1.32 -1.38,1.32 -2.82,3.96 -1.86,3.24 -3.12,6.78 -1.2,3.48 -2.22,6.96 -0.6,1.86 -0.96,3.36 -0.36,1.5 0.06,2.46 v 0.36 q -0.06,0.3 -0.24,0.54 -0.18,0.12 -0.36,0.18 -0.12,0.12 -0.3,0 -0.12,0 -0.24,-0.06 -1.26,-0.42 -1.92,-1.68 -0.6,-1.26 -0.78,-2.94 -0.12,-1.74 0.06,-3.72 0.18,-2.04 0.54,-4.02 0.36,-2.1 0.84,-4.2 0.54,-2.1 0.96,-4.02 0.42,-1.92 0.72,-3.36 0.3,-1.5 0.3,-2.4 0.12,-0.48 0.24,-0.66 0.12,-0.18 0.6,-0.18 0.24,0 0.3,0.06 2.52,0.66 3.3,2.46 0.78,1.74 0.54,4.14 0.48,-1.02 1.26,-2.16 0.78,-1.2 1.68,-2.22 0.96,-1.02 2.1,-1.68 1.14,-0.72 2.34,-0.72 0.18,0 0.36,0 0.24,0 0.36,0.12 h 0.24 q 3,0.54 4.02,2.4 1.02,1.86 0.9,4.44 0.36,-1.02 1.08,-2.22 0.78,-1.2 1.74,-2.22 0.96,-1.08 2.1,-1.8 1.14,-0.72 2.28,-0.72 0.12,0 0.3,0 0.24,0 0.42,0.12 z m -14.58,24.84 q 0.12,-1.08 0.36,-2.28 0.24,-1.26 0.84,-2.52 l 0.54,-1.44 V 92.8 l 0.06,-0.06 q 0.54,-1.56 1.08,-3.18 0.6,-1.62 1.08,-3.24 0.6,-1.92 0.9,-3.6 0.3,-1.68 0.12,-3 -0.12,-1.32 -0.78,-2.28 -0.66,-0.96 -2.04,-1.44 0.06,0.9 -0.12,2.04 -0.12,1.14 -0.42,2.46 -0.3,1.74 -0.78,3.9 -0.48,2.1 -0.78,4.2 -0.42,2.1 -0.66,4.08 -0.24,1.98 -0.18,3.48 0.12,1.02 0.3,1.8 0.18,0.72 0.48,1.2 z m -12.9,0.24 q 0.12,-1.14 0.42,-2.4 0.36,-1.26 0.72,-2.52 l 0.48,-1.74 q 0.3,-1.02 0.66,-2.04 0.36,-1.08 0.72,-2.1 0.12,-0.6 0.3,-1.14 0.18,-0.54 0.3,-1.08 0.54,-1.92 0.84,-3.6 0.36,-1.68 0.3,-3 -0.06,-1.38 -0.6,-2.34 -0.54,-0.96 -1.62,-1.44 -0.12,1.02 -0.48,2.34 -0.3,1.26 -0.6,2.7 -0.36,1.86 -0.84,3.96 -0.48,2.1 -0.84,4.2 -0.66,3.6 -0.72,6.3 0,2.7 0.96,3.9 z m 25.56,-0.84 q 0.12,-0.66 0.3,-1.38 0.18,-0.72 0.42,-1.56 l 2.88,-8.28 q 0.72,-2.04 1.14,-3.9 0.42,-1.86 0.36,-3.3 -0.06,-1.5 -0.66,-2.58 -0.6,-1.08 -1.92,-1.56 0.06,0.96 -0.12,2.1 -0.12,1.14 -0.36,2.4 -0.3,1.74 -0.78,3.9 -0.48,2.1 -0.84,4.2 -0.48,2.1 -0.72,4.14 -0.24,1.98 -0.12,3.54 0.12,1.5 0.42,2.28 z" />
      <path
         id="path32"
         style="font-family:'Validity Script PERSONAL USE'"
         d="m 372.20781,115.06 q 0.06,-0.18 0.12,-0.48 0.06,-0.24 0.12,-0.66 0.24,-0.78 0.42,-1.92 0.12,-1.14 0.3,-2.52 0.3,-2.82 0.72,-6.36 0.36,-3.54 1.08,-7.32 0.66,-3.6 1.68,-7.26 1.08,-3.66 2.7,-6.6 1.68,-2.94 4.02,-4.8 2.34,-1.86 5.58,-1.86 3.06,0 5.16,1.14 2.1,1.14 3.3,3 1.2,1.86 1.56,4.2 0.36,2.34 -0.06,4.74 -0.42,2.52 -1.56,4.92 -1.14,2.4 -3.18,4.32 1.14,0.66 2.64,0.66 1.14,0 2.28,-0.48 1.2,-0.48 2.16,-1.5 1.02,-1.02 1.68,-2.58 0.72,-1.56 1.02,-3.72 0.06,-0.36 0.24,-0.54 0.24,-0.18 0.54,-0.18 0.3,0 0.48,0.18 0.24,0.18 0.18,0.54 -0.3,2.4 -1.14,4.26 -0.84,1.8 -2.04,3 -1.2,1.2 -2.64,1.86 -1.44,0.6 -2.88,0.6 -1.92,0 -3.72,-1.08 -1.56,1.26 -3.48,1.98 -1.92,0.72 -4.2,0.72 -2.28,0 -3.42,-1.32 -1.14,-1.32 -1.62,-3.18 -0.66,3.54 -1.26,6.84 -0.6,3.3 -1.44,6 -0.3,0.84 -0.72,1.98 -0.36,1.2 -1.02,2.22 -0.6,1.08 -1.44,1.8 -0.9,0.78 -2.04,0.78 -0.66,0 -0.66,-0.66 0,-0.6 0.54,-0.72 z m 8.88,-22.74 q 0.06,1.5 0.3,2.88 0.24,1.38 0.72,2.4 0.54,1.02 1.32,1.68 0.84,0.6 2.04,0.6 1.26,0 2.46,-0.9 1.2,-0.96 2.22,-2.52 1.02,-1.62 1.74,-3.72 0.78,-2.16 1.14,-4.5 0.36,-2.34 0.24,-4.44 -0.06,-2.1 -0.6,-3.66 -0.54,-1.56 -1.5,-2.46 -0.96,-0.96 -2.4,-0.96 -1.56,0 -2.76,1.44 -1.2,1.38 -2.34,4.26 -0.78,2.1 -1.38,4.62 -0.6,2.46 -1.2,5.28 z m 3.18,-14.16 q -1.56,1.08 -2.82,2.88 -1.26,1.8 -2.22,4.14 -0.96,2.34 -1.68,5.1 -0.66,2.7 -1.2,5.64 -0.66,3.72 -1.02,7.2 -0.36,3.54 -0.72,6.36 -0.18,1.44 -0.3,2.58 -0.18,1.14 -0.42,1.98 l -0.06,0.3 q 0.9,-1.14 1.44,-2.4 0.48,-1.2 0.84,-2.58 0.84,-2.76 1.5,-6.3 0.72,-3.54 1.38,-7.26 0.66,-3.72 1.44,-7.26 0.84,-3.6 1.92,-6.48 0.42,-1.08 0.9,-2.04 0.48,-1.02 1.02,-1.86 z m 8.94,-0.48 q 1.2,1.92 1.44,4.86 0.24,2.94 -0.24,5.82 -0.48,2.82 -1.62,5.76 -1.14,2.88 -2.82,4.8 1.62,-0.72 2.88,-1.86 1.32,-1.14 2.22,-2.58 0.96,-1.44 1.56,-3 0.66,-1.62 0.9,-3.24 0.24,-1.62 0.12,-3.18 -0.06,-1.62 -0.6,-3 -0.54,-1.44 -1.5,-2.52 -0.96,-1.14 -2.34,-1.86 z" />
      <path
         id="path34"
         style="font-family:'Validity Script PERSONAL USE'"
         d="m 403.75562,91.96 q 0.24001,-2.34 1.08,-4.8 0.84001,-2.46 2.22001,-4.68 1.44,-2.22 3.35999,-3.96 1.92,-1.8 4.26001,-2.7 0.06,-0.06 0.29999,-0.06 0.48,-0.18 0.90001,-0.24 0.47999,-0.12 1.07999,-0.24 1.98001,-0.6 3.54001,-0.6 1.85999,0 3.12,0.84 1.32,0.78 1.97999,2.16 0.72,1.38 0.90001,3.18 0.18,1.74 -0.18001,3.66 -0.48,3.06 -1.98,6.24 -1.44,3.18 -3.89999,5.76 1.74,0.48 3.18,0.48 3.06,0 5.15999,-1.8 2.10001,-1.8 2.52,-5.22 0.06,-0.36 0.24,-0.54 0.24,-0.18 0.54,-0.18 0.30001,0 0.48001,0.18 0.23999,0.18 0.18,0.54 -0.48001,4.2 -3.12,6.36 -2.64001,2.1 -6.18,2.1 -2.10001,0 -4.26,-0.72 -0.3,0.3 -1.08001,0.84 -0.71999,0.54 -1.62,1.08 -0.84,0.54 -1.62,0.9 -0.78,0.42 -1.14,0.42 -1.97999,0.6 -3.65999,0.6 -1.92001,0 -3.18,-0.78 -1.26,-0.78 -2.04001,-2.1 -0.77999,-1.38 -1.02,-3.06 -0.24,-1.74 -0.06,-3.66 z m 5.76,-3.72 q -0.3,2.28 -0.18,4.32 0.18,1.98 0.72001,3.54 0.53999,1.5 1.44,2.46 0.89999,0.9 2.15999,0.96 0.96001,-0.42 1.92,-1.62 0.96,-1.2 1.80001,-2.88 0.89999,-1.68 1.62,-3.72 0.71999,-2.04 1.13999,-4.14 0.42001,-2.22 0.42001,-4.08 0,-1.92 -0.42001,-3.3 -0.36,-1.44 -1.19999,-2.22 -0.84001,-0.84 -2.16001,-0.84 -1.38,0.06 -2.58,1.02 -1.19999,0.96 -2.16,2.52 -0.96,1.56 -1.62,3.66 -0.66,2.04 -0.9,4.32 z m 8.4,8.64 q 1.26001,-0.78 2.4,-2.28 1.2,-1.56 2.16,-3.36 0.96001,-1.8 1.56,-3.6 0.66,-1.8 0.84001,-3.18 0.3,-1.8 0.18,-3.3 -0.12,-1.5 -0.72001,-2.64 -0.54,-1.14 -1.62,-1.74 -1.02,-0.66 -2.58,-0.66 h -0.48 q 0.96001,0.72 1.5,1.92 0.6,1.2 0.78001,2.7 0.18,1.5 0.06,3.18 -0.12,1.68 -0.42001,3.36 -0.54,2.52 -1.5,5.1 -0.89999,2.52 -2.16,4.5 z m -7.62,-16.38 q -2.16,2.28 -3.48,5.4 -1.31999,3.06 -1.62,5.94 -0.18,1.74 -0.06,3.24 0.18,1.5 0.84,2.64 0.66,1.08 1.86,1.74 1.2,0.66 3.12,0.66 -1.07999,-0.72 -1.74,-2.04 -0.65999,-1.32 -1.02,-2.88 -0.3,-1.62 -0.36,-3.42 0,-1.8 0.24,-3.54 0.24,-1.98 0.78,-3.96 0.6,-2.04 1.44,-3.78 z" />
      <path
         id="path36"
         style="font-family:'Validity Script PERSONAL USE'"
         d="m 428.60031,75.22 q -0.24,-0.66 -0.24,-1.38 -0.06,-0.78 0.18,-1.44 0.24,-0.66 0.78,-1.08 0.54,-0.48 1.5,-0.48 1.2,0 1.8,0.66 0.66,0.66 0.96,1.68 0.3,0.96 0.3,2.1 0.06,1.14 0.06,2.04 v 0.48 q 0.3,0.12 0.72,0.18 0.42,0 0.78,0 1.5,0 2.58,-0.42 1.14,-0.42 1.86,-0.96 0.48,-0.24 0.72,-0.48 0.3,-0.24 0.48,-0.48 l 0.3,-0.18 q 0.06,-0.42 0.18,-0.78 0.12,-0.36 0.66,-0.36 h 0.24 q 1.98,0.48 2.76,1.92 0.84,1.38 0.9,3.3 0.06,1.86 -0.42,4.02 -0.48,2.16 -1.08,4.2 -0.66,2.16 -1.38,4.32 -0.66,2.1 -1.2,3.84 -0.6,1.8 -0.66,2.88 0,0.9 0.18,1.14 0.06,0 0.06,0.06 0,0 0.06,0 0.48,0.12 0.84,0.12 1.14,0 2.58,-0.72 1.44,-0.72 2.76,-2.04 1.38,-1.38 2.34,-3.24 1.02,-1.86 1.32,-4.14 0.06,-0.36 0.24,-0.54 0.24,-0.18 0.54,-0.18 0.3,0 0.48,0.18 0.24,0.18 0.18,0.54 -0.3,2.28 -1.38,4.38 -1.08,2.1 -2.58,3.72 -1.5,1.56 -3.24,2.52 -1.74,0.96 -3.3,0.96 -0.96,0 -1.5,-0.24 h -0.18 q -1.38,-0.42 -2.04,-1.68 -0.6,-1.26 -0.78,-2.94 -0.18,-1.74 0,-3.72 0.24,-2.04 0.6,-4.02 0.36,-2.04 0.84,-4.08 0.48,-2.1 0.96,-4.02 l 0.66,-3.3 -0.36,0.24 q -1.02,0.48 -2.34,1.08 -1.32,0.54 -3.06,0.54 -0.72,0 -1.32,-0.18 -0.18,2.34 -0.54,5.1 -0.36,2.7 -0.72,5.64 -0.12,0.72 -0.78,0.72 -0.3,0 -0.54,-0.18 -0.18,-0.24 -0.12,-0.54 0.36,-3.06 0.72,-5.88 0.36,-2.82 0.48,-5.22 -1.44,-0.54 -2.4,-1.5 -0.96,-1.02 -1.44,-2.16 z m 11.4,13.86 q -0.66,3.18 -0.72,5.64 0,2.46 0.66,3.84 0.12,-0.6 0.24,-1.32 0.12,-0.78 0.42,-1.56 0.48,-1.8 1.2,-3.9 0.78,-2.1 1.44,-4.26 0.66,-2.04 1.02,-3.9 0.42,-1.86 0.42,-3.36 0.06,-1.56 -0.42,-2.64 -0.42,-1.08 -1.5,-1.62 -0.12,1.02 -0.48,2.34 -0.3,1.26 -0.6,2.64 -0.48,1.92 -0.96,3.96 -0.42,2.04 -0.72,4.14 z m -7.5,-11.76 q 0,-0.48 0,-1.32 0,-0.9 -0.18,-1.68 -0.12,-0.84 -0.48,-1.44 -0.36,-0.6 -1.08,-0.6 -0.66,0 -0.9,0.54 -0.3,0.54 0.18,1.74 0.24,0.78 0.84,1.56 0.6,0.72 1.62,1.2 z" />
      <path
         id="path38"
         style="font-family:'Validity Script PERSONAL USE'"
         d="m 470.71375,75.4 q 1.8,0.42 2.58,1.74 0.78,1.26 0.84,3 0.06,1.74 -0.3,3.78 -0.3,1.98 -0.84,4.08 -0.48,2.04 -1.14,4.02 -0.6,1.98 -0.9,3.72 -0.6,3.3 0.18,4.2 0.54,0.18 1.26,0.18 1.26,0 2.52,-0.72 1.32,-0.72 2.4,-2.04 1.08,-1.32 1.86,-3.18 0.78,-1.86 1.08,-4.2 0.06,-0.36 0.24,-0.54 0.24,-0.18 0.54,-0.18 0.3,0 0.48,0.18 0.24,0.18 0.18,0.54 -0.3,2.4 -1.2,4.56 -0.84,2.1 -2.1,3.72 -1.26,1.56 -2.82,2.46 -1.56,0.96 -3.24,0.96 -0.9,0 -1.98,-0.48 h -0.06 q -1.8,-0.6 -2.52,-2.46 -0.66,-1.92 -0.66,-4.44 -1.32,2.88 -3.36,4.98 -2.04,2.04 -4.86,2.04 -2.76,0 -4.5,-1.2 -1.68,-1.14 -2.46,-3 -0.72,-1.92 -0.66,-4.26 0.12,-2.34 0.96,-4.74 0.9,-2.4 2.52,-4.68 1.62,-2.34 3.9,-4.14 2.34,-1.8 5.22,-2.88 2.94,-1.14 6.42,-1.14 0.36,0 0.42,0.12 z m -1.2,1.32 q -2.1,0.12 -3.96,1.2 -1.8,1.02 -3.36,2.64 -1.5,1.62 -2.7,3.66 -1.2,2.04 -1.98,4.26 -0.84,2.4 -1.14,4.5 -0.24,2.04 -0.06,3.6 0.24,1.5 0.96,2.4 0.72,0.9 1.8,0.9 2.04,0 3.6,-1.44 1.56,-1.44 2.64,-3.48 1.08,-2.04 1.68,-4.2 0.6,-2.22 0.78,-3.78 l 0.06,-0.36 q 0.48,-2.94 1.02,-5.52 0.54,-2.64 0.66,-4.38 z m -0.3,21.48 q 0.06,-0.6 0.12,-1.26 0.06,-0.66 0.18,-1.32 0.36,-1.74 0.96,-3.72 0.6,-2.04 1.14,-4.14 0.48,-2.1 0.78,-3.96 0.36,-1.86 0.3,-3.36 -0.06,-2.46 -1.74,-3.42 -0.24,1.8 -0.78,4.44 -0.48,2.64 -0.96,5.52 l -0.12,0.84 q -0.12,0.48 -0.18,0.9 0,0.36 -0.06,0.78 -0.36,2.82 -0.3,5.1 0.06,2.22 0.66,3.6 z m -6.96,-19.56 q -3.24,1.62 -5.4,4.32 -2.16,2.64 -3.24,5.52 -1.2,3.36 -0.78,6.24 0.42,2.82 2.58,4.2 -0.42,-0.96 -0.54,-2.22 -0.12,-1.32 0,-2.7 0.12,-1.44 0.42,-2.94 0.36,-1.5 0.84,-2.94 0.9,-2.64 2.46,-5.1 1.56,-2.46 3.66,-4.38 z" />
      <path
         id="path40"
         style="font-family:'Validity Script PERSONAL USE'"
         d="m 482.68469,101.56 q -1.32,-0.42 -1.98,-1.68 -0.6,-1.26 -0.78,-2.94 -0.18,-1.74 0,-3.78 0.18,-2.04 0.54,-4.02 0.36,-2.1 0.84,-4.2 0.48,-2.1 0.96,-4.02 0.48,-1.92 0.72,-3.42 0.3,-1.5 0.3,-2.4 0.12,-0.78 0.84,-0.78 h 0.24 q 1.38,0.36 2.22,1.08 0.84,0.66 1.2,1.68 0.42,0.96 0.48,2.16 0.06,1.2 -0.12,2.52 0.96,-1.56 1.98,-2.94 1.02,-1.38 2.1,-2.4 1.14,-1.02 2.28,-1.62 1.2,-0.6 2.4,-0.6 0.54,0 0.84,0.12 2.34,0.36 3.36,1.68 1.08,1.32 1.26,3.24 0.18,1.86 -0.3,4.08 -0.42,2.22 -1.08,4.32 -0.72,2.22 -1.56,4.38 -0.78,2.1 -1.38,3.9 -0.24,0.84 -0.48,1.62 -0.18,0.72 -0.24,1.26 -0.06,0.72 0.12,1.14 0.06,0 0.06,0.06 0,0 0.06,0 0.36,0.12 0.66,0.18 0.36,0.06 0.72,0.06 1.44,0 2.88,-0.84 1.44,-0.9 2.58,-2.34 1.2,-1.44 2.04,-3.24 0.84,-1.86 1.08,-3.84 0.06,-0.36 0.24,-0.54 0.24,-0.18 0.54,-0.18 0.3,0 0.48,0.18 0.24,0.18 0.18,0.54 -0.24,1.92 -1.14,4.02 -0.9,2.04 -2.28,3.78 -1.32,1.68 -3.06,2.76 -1.68,1.14 -3.54,1.14 -1.14,0 -2.1,-0.36 h -0.18 q -1.38,-0.48 -1.98,-1.8 -0.54,-1.38 -0.66,-3.06 -0.12,-1.74 0.18,-3.78 0.3,-2.04 0.66,-4.14 0.36,-2.16 0.84,-4.26 0.48,-2.1 0.84,-3.96 0.3,-1.56 0.36,-2.76 0.12,-1.2 0,-1.92 -1.26,0 -2.46,0.78 -1.2,0.72 -2.28,1.92 -1.02,1.2 -1.98,2.76 -0.96,1.5 -1.74,3 -0.78,1.5 -1.38,2.88 -0.6,1.38 -0.96,2.34 l -1.62,5.16 q -0.54,1.8 -0.78,3.3 -0.24,1.44 -0.06,2.58 0.24,0.3 -0.06,0.72 -0.24,0.48 -0.72,0.48 z m -0.78,-12.36 q -0.66,3.6 -0.72,6.3 -0.06,2.64 0.96,3.84 0.06,-1.14 0.3,-2.4 0.24,-1.32 0.6,-2.7 l 0.42,-1.2 v -0.3 q 0.3,-0.96 0.6,-1.92 0.36,-0.96 0.72,-1.98 0.3,-0.66 0.48,-1.32 0.18,-0.66 0.42,-1.32 0.54,-1.92 0.84,-3.54 0.36,-1.68 0.3,-3 -0.06,-1.32 -0.6,-2.22 -0.48,-0.96 -1.56,-1.44 -0.12,1.02 -0.42,2.34 -0.3,1.26 -0.66,2.7 -0.48,1.86 -0.9,3.96 -0.42,2.1 -0.78,4.2 z m 17.64,-1.86 q 0.66,-2.1 1.08,-3.9 0.42,-1.86 0.36,-3.36 -0.06,-1.5 -0.66,-2.52 -0.54,-1.08 -1.86,-1.56 0,0.96 -0.18,2.1 -0.12,1.14 -0.36,2.4 -0.24,1.74 -0.72,3.9 -0.48,2.1 -0.9,4.2 -0.48,2.1 -0.66,4.14 -0.18,1.98 -0.18,3.54 0.06,0.66 0.18,1.26 0.12,0.54 0.24,1.02 0.12,-0.66 0.3,-1.38 0.18,-0.72 0.42,-1.56 0.66,-1.8 1.44,-3.9 0.78,-2.16 1.5,-4.38 z" />
      <path
         id="path42"
         style="font-family:'Validity Script PERSONAL USE'"
         d="m 512.93219,98.8 q -1.2,-1.86 -1.5,-4.56 -0.3,-2.76 0.12,-5.7 0.48,-2.94 1.62,-5.7 1.2,-2.76 2.94,-4.68 -2.7,1.56 -4.5,4.26 -1.8,2.64 -2.4,5.58 -0.66,3.36 0.18,6.3 0.9,2.94 3.54,4.5 z m 9.06,-22.08 q -1.62,0 -3.06,0.96 -1.44,0.96 -2.58,2.52 -1.14,1.56 -1.98,3.54 -0.84,1.98 -1.26,4.08 2.82,-0.3 5.04,-1.98 2.22,-1.74 3.54,-3.9 0.66,-1.08 1.02,-2.1 0.42,-1.02 0.36,-1.8 0,-1.32 -1.08,-1.32 z m 2.52,0.48 q 0.06,0.18 0.06,0.72 0,1.02 -0.48,2.28 -0.42,1.2 -1.2,2.4 -0.78,1.2 -1.86,2.46 -1.08,1.2 -2.46,2.1 2.88,-0.72 4.68,-2.1 1.8,-1.38 2.58,-2.82 0.84,-1.56 0.54,-2.94 -0.3,-1.44 -1.86,-2.1 z m -11.64,12.06 q -0.24,1.92 -0.18,3.72 0.12,1.74 0.54,3.18 0.48,1.44 1.32,2.46 0.9,0.96 2.28,1.26 0.36,0 0.66,0.06 0.3,0 0.6,0 2.82,0 5.1,-0.9 2.28,-0.9 3.96,-2.28 1.68,-1.44 2.64,-3.18 0.96,-1.8 1.2,-3.6 0.06,-0.36 0.24,-0.54 0.24,-0.18 0.54,-0.18 0.3,0 0.48,0.18 0.24,0.18 0.18,0.54 -0.24,2.1 -1.38,4.14 -1.14,2.04 -3.06,3.66 -1.86,1.62 -4.44,2.58 -2.58,1.02 -5.7,1.02 -0.36,0 -0.72,-0.06 -0.3,0 -0.6,0 -2.82,-0.18 -4.74,-1.44 -1.86,-1.26 -2.94,-3.12 -1.02,-1.86 -1.32,-4.2 -0.24,-2.34 0.24,-4.68 0.48,-2.34 1.68,-4.56 1.2,-2.28 3,-4.08 1.86,-1.8 4.26,-2.88 2.46,-1.08 5.46,-1.08 1.98,0 3.24,0.66 1.26,0.66 1.86,1.74 0.66,1.02 0.6,2.34 -0.06,1.32 -0.78,2.7 -1.02,1.92 -2.7,3.18 -1.62,1.2 -3.6,1.98 -1.98,0.78 -4.08,1.08 -2.04,0.3 -3.84,0.3 z" />
      <path
         id="path44"
         style="font-family:'Validity Script PERSONAL USE'"
         d="m 550.16687,75.4 q 1.8,0.42 2.58001,1.74 0.78,1.26 0.83999,3 0.06,1.74 -0.3,3.78 -0.29999,1.98 -0.84,4.08 -0.48,2.04 -1.14,4.02 -0.6,1.98 -0.89999,3.72 -0.60001,3.3 0.17999,4.2 0.54001,0.18 1.26,0.18 1.26,0 2.52001,-0.72 1.31999,-0.72 2.4,-2.04 1.07999,-1.32 1.86,-3.18 0.78,-1.86 1.07999,-4.2 0.06,-0.36 0.24,-0.54 0.24,-0.18 0.54001,-0.18 0.29999,0 0.47999,0.18 0.24,0.18 0.18001,0.54 -0.30001,2.4 -1.20001,4.56 -0.84,2.1 -2.1,3.72 -1.26,1.56 -2.81999,2.46 -1.56001,0.96 -3.24001,0.96 -0.89999,0 -1.98,-0.48 h -0.06 q -1.80001,-0.6 -2.52001,-2.46 -0.66,-1.92 -0.66,-4.44 -1.31999,2.88 -3.36,4.98 -2.04,2.04 -4.86,2.04 -2.76,0 -4.5,-1.2 -1.68,-1.14 -2.45999,-3 -0.72001,-1.92 -0.66001,-4.26 0.12,-2.34 0.96,-4.74 0.9,-2.4 2.52,-4.68 1.62,-2.34 3.9,-4.14 2.34,-1.8 5.22,-2.88 2.94001,-1.14 6.42001,-1.14 0.35999,0 0.41999,0.12 z m -1.2,1.32 q -2.09999,0.12 -3.95999,1.2 -1.80001,1.02 -3.36,2.64 -1.5,1.62 -2.70001,3.66 -1.19999,2.04 -1.98,4.26 -0.83999,2.4 -1.14,4.5 -0.24,2.04 -0.06,3.6 0.24,1.5 0.95999,2.4 0.72,0.9 1.80001,0.9 2.03999,0 3.6,-1.44 1.55999,-1.44 2.64,-3.48 1.07999,-2.04 1.67999,-4.2 0.6,-2.22 0.78,-3.78 l 0.06,-0.36 q 0.48001,-2.94 1.02,-5.52 0.54,-2.64 0.66,-4.38 z m -0.3,21.48 q 0.06,-0.6 0.12,-1.26 0.06,-0.66 0.18,-1.32 0.36,-1.74 0.96,-3.72 0.60001,-2.04 1.14,-4.14 0.48,-2.1 0.78,-3.96 0.36,-1.86 0.30001,-3.36 -0.06,-2.46 -1.74,-3.42 -0.24001,1.8 -0.78,4.44 -0.48,2.64 -0.96001,5.52 l -0.12,0.84 q -0.12,0.48 -0.17999,0.9 0,0.36 -0.06,0.78 -0.36,2.82 -0.29999,5.1 0.06,2.22 0.65999,3.6 z m -6.96,-19.56 q -3.24,1.62 -5.4,4.32 -2.15999,2.64 -3.24,5.52 -1.19999,3.36 -0.78,6.24 0.42,2.82 2.58001,4.2 -0.42001,-0.96 -0.54001,-2.22 -0.12,-1.32 0,-2.7 0.12,-1.44 0.42001,-2.94 0.35999,-1.5 0.83999,-2.94 0.90001,-2.64 2.46,-5.1 1.56,-2.46 3.66,-4.38 z" />
    </g>
  </g>
</svg>
