<?xml version="1.0" encoding="UTF-8" standalone="no"?>
<svg
   xmlns:dc="http://purl.org/dc/elements/1.1/"
   xmlns:cc="http://creativecommons.org/ns#"
   xmlns:rdf="http://www.w3.org/1999/02/22-rdf-syntax-ns#"
   xmlns:svg="http://www.w3.org/2000/svg"
   xmlns="http://www.w3.org/2000/svg"
   id="svg16"
   width="800px"
   version="1.1"
   height="200px">
  <metadata
     id="metadata20">
    <rdf:RDF>
      <cc:Work
         rdf:about="">
        <dc:format>image/svg+xml</dc:format>
        <dc:type
           rdf:resource="http://purl.org/dc/dcmitype/StillImage" />
      </cc:Work>
    </rdf:RDF>
  </metadata>
  <defs
     id="defs4">
    <style
       id="style2"
       type="text/css"><![CDATA[    
     @font-face {font-family:Validity Script Thin PERSONAL U;
     src: url('/Users/francesco/Repos/write-logos/src/fonts/ValidityScriptTI_PERSONAL_USE.ttf');}
     @font-face {font-family:Resolve;
     src: url('/Users/francesco/Repos/write-logos/src/fonts/Resolve.ttf');}
     ]]></style>
  </defs>
  <g
     id="g14"
     style="font-size:60px">
    <g
       style="text-anchor:middle"
       id="text12"
       aria-label="eXtemporanea">
      <path
         id="path22"
         style="font-family:'Validity Script Thin PERSONAL U'"
         d="m 250.05344,100.42 q 0.3,0 0.54,0 0.24,0.06 0.54,0.06 2.94,0 5.4,-0.9 2.46,-0.96 4.2,-2.46 1.8,-1.5 2.82,-3.36 1.08,-1.86 1.32,-3.78 0,-0.12 0.24,-0.12 0.12,0 0.12,0.12 -0.24,1.98 -1.32,3.96 -1.08,1.92 -2.88,3.48 -1.8,1.5 -4.26,2.46 -2.46,0.9 -5.4,0.9 -0.3,0 -0.66,0 -0.36,0 -0.78,-0.06 -2.7,-0.18 -4.5,-1.32 -1.8,-1.14 -2.82,-2.94 -0.96,-1.8 -1.2,-4.02 -0.24,-2.28 0.24,-4.56 0.48,-2.22 1.62,-4.38 1.14,-2.22 2.88,-3.9 1.74,-1.68 4.08,-2.7 2.34,-1.08 5.16,-1.08 h 0.06 q 1.8,0 2.94,0.6 1.2,0.6 1.74,1.56 0.6,0.9 0.54,2.16 -0.06,1.2 -0.78,2.46 -1.02,1.86 -2.64,3.06 -1.62,1.14 -3.54,1.86 -1.92,0.66 -3.96,0.96 -1.98,0.24 -3.78,0.24 h -0.24 q -0.36,2.1 -0.3,4.08 0.06,1.92 0.54,3.54 0.54,1.62 1.5,2.7 1.02,1.08 2.52,1.38 z m 5.28,-24.24 q -1.86,0 -3.48,1.08 -1.56,1.02 -2.82,2.76 -1.2,1.68 -2.04,3.9 -0.84,2.16 -1.26,4.44 1.56,0 3,-0.54 1.5,-0.54 2.76,-1.38 1.26,-0.84 2.22,-1.92 1.02,-1.14 1.74,-2.28 1.5,-2.46 1.5,-4.26 0,-1.8 -1.62,-1.8 z m -6.36,24.18 q -1.68,-0.72 -2.64,-2.52 -0.9,-1.8 -1.14,-4.14 -0.24,-2.34 0.12,-4.98 0.42,-2.64 1.38,-5.04 0.96,-2.46 2.4,-4.38 1.5,-1.92 3.42,-2.82 -2.16,0.48 -3.96,1.62 -1.8,1.08 -3.12,2.64 -1.32,1.56 -2.22,3.42 -0.9,1.86 -1.26,3.84 -0.36,2.1 -0.18,4.26 0.18,2.1 1.02,3.84 0.84,1.68 2.34,2.88 1.56,1.14 3.84,1.38 z m 6.78,-18 q -1.26,1.92 -3.12,3.6 -1.86,1.62 -4.26,2.4 1.56,-0.18 3.18,-0.54 1.68,-0.42 3.18,-1.08 1.5,-0.72 2.76,-1.74 1.26,-1.08 2.1,-2.58 1.14,-2.04 0.48,-3.84 -0.66,-1.8 -3.36,-2.28 0.84,0.78 0.48,2.52 -0.36,1.74 -1.44,3.54 z" />
      <path
         id="path24"
         style="font-family:Resolve"
         d="m 280.26812,100 v -1.62 h 1.92001 l -5.58001,-11.76 -7.38,11.76 h 2.1 V 100 h -7.5 v -1.62 h 2.7 l 8.88,-14.22 -9,-18.9 h -2.58 v -1.62 h 12.78 v 1.62 h -2.28 l 5.58,11.7 7.32,-11.7 h -1.67999 v -1.62 h 7.5 v 1.62 h -3.12 l -8.88,14.16 9.05999,18.96 h 2.94001 V 100 Z" />
      <path
         id="path26"
         style="font-family:'Validity Script Thin PERSONAL U'"
         d="m 305.49813,62.14 q 2.03999,0.54 2.39999,3 0.36,2.4 -0.24,5.82 1.74,-0.66 3.18,-0.96 1.5,-0.36 2.58,-0.36 1.74,0 2.46,0.78 0.12001,0.12 0,0.24 -0.12,0.12 -0.24,0.12 -0.06,0 -0.12,-0.06 -0.42,-0.72 -2.16,-0.72 -1.08,0 -2.58,0.36 -1.44,0.3 -3.24,1.08 -0.35999,2.22 -1.08,4.68 -0.65999,2.4 -1.32,4.92 -0.95999,3.42 -1.92,6.66 -0.96,3.18 -1.5,5.88 -0.53999,2.7 -0.53999,4.5 0.06,1.8 0.95999,2.34 0.36001,0.18 0.78,0.24 0.42,0.06 0.9,0.06 1.44,0 2.94,-0.78 1.5,-0.84 2.76,-2.28 1.32,-1.44 2.28001,-3.36 0.95999,-1.98 1.26,-4.32 0,-0.12 0.18,-0.12 0.17999,0 0.17999,0.12 -0.29999,2.34 -1.26,4.38 -0.96,2.04 -2.34,3.54 -1.31999,1.5 -2.94,2.34 -1.62,0.9 -3.12,0.9 -1.01999,0 -1.86,-0.42 -1.74,-0.36 -2.52,-2.04 -0.78,-1.68 -0.9,-4.14 -0.12,-2.52 0.3,-5.58 0.48,-3.06 1.26,-6.3 0.6,-2.52 1.20001,-4.98 0.65999,-2.46 1.32,-4.74 -0.54001,0.12 -1.20001,0.24 -0.6,0.06 -1.14,0.06 -1.8,0 -3.12,-0.72 -1.38,-0.72 -1.68,-2.1 -0.06,-0.24 0.18,-0.24 0.18,0 0.12,0.06 0.3,1.2 1.56,1.92 1.26,0.72 3.12,0.72 0.54001,0 1.08,-0.06 0.54,-0.12 1.20001,-0.24 l 0.71999,-2.46 q 0.78001,-2.76 1.26,-4.8 0.54,-2.04 0.66,-3.06 -0.12,-0.06 -0.06,-0.06 0.06,0 0.06,-0.06 0.12001,0 0.12001,0 z m -4.14001,37.98 q -0.6,-0.9 -0.54,-2.64 0.12001,-1.74 0.54,-3.96 0.6,-2.7 1.5,-5.88 0.9,-3.18 1.92,-6.6 0.96001,-3.3 1.74,-6.42 0.78001,-3.12 1.02,-5.64 0.24,-2.52 -0.18,-4.2 -0.35999,-1.74 -1.73999,-2.28 -0.12,1.08 -0.66001,3.12 -0.54,1.98 -1.26,4.56 -0.84,2.76 -1.74,6 -0.83999,3.24 -1.56,6.48 -0.65999,3.12 -1.08,6 -0.42,2.88 -0.42,5.22 0,2.34 0.54001,4.02 0.59999,1.62 1.91999,2.22 z" />
      <path
         id="path28"
         style="font-family:'Validity Script Thin PERSONAL U'"
         d="m 321.88937,100.42 q 0.3,0 0.54,0 0.24,0.06 0.54001,0.06 2.93999,0 5.39999,-0.9 2.46001,-0.96 4.2,-2.46 1.8,-1.5 2.82,-3.36 1.08001,-1.86 1.32001,-3.78 0,-0.12 0.24,-0.12 0.11999,0 0.11999,0.12 -0.23999,1.98 -1.32,3.96 -1.08,1.92 -2.88,3.48 -1.8,1.5 -4.26,2.46 -2.45999,0.9 -5.39999,0.9 -0.30001,0 -0.66001,0 -0.36,0 -0.77999,-0.06 -2.70001,-0.18 -4.5,-1.32 -1.8,-1.14 -2.82001,-2.94 -0.96,-1.8 -1.2,-4.02 -0.24,-2.28 0.24,-4.56 0.48001,-2.22 1.62,-4.38 1.14,-2.22 2.88,-3.9 1.74,-1.68 4.08,-2.7 2.34,-1.08 5.16,-1.08 h 0.06 q 1.80001,0 2.94,0.6 1.2,0.6 1.74001,1.56 0.59999,0.9 0.53999,2.16 -0.06,1.2 -0.78,2.46 -1.01999,1.86 -2.63999,3.06 -1.62,1.14 -3.54001,1.86 -1.92,0.66 -3.95999,0.96 -1.98001,0.24 -3.78001,0.24 h -0.24 q -0.35999,2.1 -0.29999,4.08 0.06,1.92 0.53999,3.54 0.54,1.62 1.5,2.7 1.02001,1.08 2.52001,1.38 z m 5.28,-24.24 q -1.86,0 -3.48,1.08 -1.56,1.02 -2.82,2.76 -1.2,1.68 -2.03999,3.9 -0.84001,2.16 -1.26001,4.44 1.56,0 3,-0.54 1.5,-0.54 2.76001,-1.38 1.26,-0.84 2.21999,-1.92 1.02,-1.14 1.74,-2.28 1.5,-2.46 1.5,-4.26 0,-1.8 -1.62,-1.8 z m -6.36,24.18 q -1.68,-0.72 -2.64,-2.52 -0.89999,-1.8 -1.13999,-4.14 -0.24001,-2.34 0.12,-4.98 0.41999,-2.64 1.38,-5.04 0.95999,-2.46 2.39999,-4.38 1.5,-1.92 3.42,-2.82 -2.16,0.48 -3.96,1.62 -1.79999,1.08 -3.11999,2.64 -1.32001,1.56 -2.22001,3.42 -0.89999,1.86 -1.26,3.84 -0.36,2.1 -0.18,4.26 0.18,2.1 1.02,3.84 0.84001,1.68 2.34001,2.88 1.56,1.14 3.83999,1.38 z m 6.78001,-18 q -1.26,1.92 -3.12,3.6 -1.86001,1.62 -4.26,2.4 1.56,-0.18 3.17999,-0.54 1.68,-0.42 3.18,-1.08 1.5,-0.72 2.76001,-1.74 1.26,-1.08 2.09999,-2.58 1.14,-2.04 0.48,-3.84 -0.66,-1.8 -3.36,-2.28 0.84,0.78 0.48001,2.52 -0.36001,1.74 -1.44,3.54 z" />
      <path
         id="path30"
         style="font-family:'Validity Script Thin PERSONAL U'"
         d="m 365.00406,75.16 q -0.12,0 -0.24,0 -0.12,-0.06 -0.24,-0.06 -1.68,0 -3.12,1.56 -1.44,1.5 -2.82,4.02 -1.44,2.7 -2.64,6 -1.14,3.3 -2.4,6.36 l -0.54,1.56 q -0.66,1.92 -1.02,3.42 -0.36,1.5 -0.12,2.46 0,0.12 -0.06,0.12 0,0.06 0,0.12 -0.06,0 -0.06,0 0,0.06 -0.06,0.06 l -0.06,-0.06 q -1.2,-0.36 -1.74,-1.5 -0.54,-1.2 -0.66,-2.88 -0.06,-1.68 0.18,-3.66 0.3,-2.04 0.66,-4.14 0.42,-2.1 0.9,-4.2 0.48,-2.1 0.78,-3.9 0.3,-1.8 0.36,-3.12 0.12,-1.38 -0.12,-2.16 -0.18,0 -0.36,0 -0.12,-0.06 -0.24,-0.06 -1.5,0 -2.88,1.2 -1.32,1.2 -2.52,3.12 -1.2,1.92 -2.28,4.44 -1.02,2.46 -1.92,5.04 l -1.32,3.9 -0.06,0.36 q -0.12,0.36 -0.24,0.78 -0.12,0.36 -0.18,0.66 -0.6,1.92 -0.9,3.54 -0.3,1.56 -0.06,2.64 0.06,0.12 -0.06,0.24 -0.18,0 -0.18,0 h -0.06 q -1.2,-0.36 -1.8,-1.5 -0.54,-1.14 -0.66,-2.76 -0.12,-1.62 0.06,-3.6 0.18,-1.98 0.54,-4.02 0.3,-2.1 0.78,-4.2 0.54,-2.1 1.02,-4.02 0.48,-1.86 0.72,-3.36 0.3,-1.56 0.42,-2.52 0,-0.18 0.06,-0.18 0.18,-0.18 0.18,0 1.5,0.36 2.34,1.32 0.84,0.96 1.08,2.28 0.3,1.26 0.12,2.88 -0.18,1.62 -0.6,3.3 0.9,-1.98 1.86,-3.78 0.96,-1.8 1.98,-3.12 1.08,-1.38 2.22,-2.16 1.2,-0.84 2.52,-0.84 0.48,0 0.72,0.12 1.92,0.36 2.94,1.32 1.08,0.9 1.44,2.34 0.36,1.38 0.18,3.12 -0.18,1.68 -0.66,3.54 0.48,-1.26 1.26,-3.06 0.78,-1.8 1.86,-3.42 1.08,-1.68 2.4,-2.82 1.32,-1.14 2.88,-1.14 0.12,0 0.3,0 0.24,0 0.42,0.12 2.1,0.36 3.06,1.56 0.96,1.2 1.14,3 0.18,1.74 -0.24,3.84 -0.42,2.1 -1.14,4.26 -0.72,2.16 -1.5,4.32 -0.78,2.16 -1.38,3.9 -0.66,1.86 -0.84,3.06 -0.12,1.2 0.36,1.62 1.02,0.42 2.22,0.42 1.8,0 3.48,-0.96 1.74,-1.02 3.12,-2.58 1.38,-1.56 2.28,-3.48 0.96,-1.92 1.2,-3.84 0,-0.12 0.18,-0.12 0.18,0 0.18,0.12 -0.24,1.92 -1.2,3.9 -0.96,1.98 -2.4,3.66 -1.44,1.68 -3.24,2.7 -1.8,1.08 -3.66,1.08 -1.2,0 -2.34,-0.6 -1.2,-0.36 -1.8,-1.5 -0.54,-1.2 -0.66,-2.88 -0.06,-1.68 0.18,-3.66 0.3,-2.04 0.72,-4.14 0.48,-2.1 0.96,-4.2 0.48,-2.1 0.78,-3.9 0.3,-1.8 0.36,-3.12 0.12,-1.38 -0.12,-2.16 z m -13.56,25.14 q -0.12,-1.08 0.24,-2.52 0.42,-1.5 0.96,-3.24 0.66,-1.92 1.38,-3.96 0.78,-2.1 1.38,-4.2 0.6,-2.04 0.9,-3.9 0.3,-1.86 0.06,-3.3 -0.24,-1.5 -1.2,-2.52 -0.9,-1.08 -2.76,-1.44 0.24,0.84 0.12,2.22 -0.12,1.38 -0.42,3 -0.3,1.8 -0.78,3.9 -0.42,2.1 -0.9,4.2 -0.36,2.1 -0.6,4.08 -0.24,1.92 -0.24,3.48 0.06,1.56 0.48,2.7 0.42,1.08 1.38,1.5 z m -12.9,0.3 q -0.12,-1.2 0.18,-2.76 0.36,-1.56 0.9,-3.3 l 0.36,-1.38 1.5,-4.62 0.72,-2.1 q 0.54,-2.04 0.84,-3.84 0.36,-1.86 0.18,-3.3 -0.12,-1.5 -0.84,-2.52 -0.72,-1.08 -2.28,-1.56 -0.12,1.02 -0.42,2.52 -0.24,1.5 -0.72,3.24 -0.48,1.92 -0.96,4.02 -0.48,2.04 -0.78,4.14 -0.36,2.04 -0.54,3.96 -0.18,1.86 -0.12,3.42 0.12,1.5 0.6,2.58 0.48,1.08 1.38,1.5 z m 25.62,-0.48 q -0.24,-0.66 0,-1.86 0.3,-1.2 0.72,-2.58 0.54,-1.8 1.32,-3.9 0.84,-2.16 1.56,-4.32 0.72,-2.16 1.08,-4.2 0.42,-2.04 0.24,-3.66 -0.12,-1.68 -0.96,-2.82 -0.84,-1.14 -2.7,-1.56 0.3,0.84 0.12,2.22 -0.12,1.38 -0.42,3 -0.3,1.8 -0.78,3.9 -0.48,2.1 -0.96,4.2 -0.36,2.04 -0.6,3.9 -0.24,1.86 -0.24,3.42 0.06,1.56 0.42,2.7 0.36,1.08 1.2,1.56 z" />
      <path
         id="path32"
         style="font-family:'Validity Script Thin PERSONAL U'"
         d="m 372.91656,115.54 q 0.18,-0.12 0.36,-0.72 0.18,-0.6 0.24,-0.84 0.12,-0.84 0.3,-1.98 0.12,-1.08 0.3,-2.52 0.36,-2.82 0.78,-6.36 0.42,-3.54 1.08,-7.32 0.66,-3.66 1.68,-7.26 1.08,-3.6 2.64,-6.42 1.62,-2.82 3.84,-4.56 2.22,-1.74 5.22,-1.74 2.88,0 4.86,1.08 2.04,1.08 3.18,2.82 1.2,1.74 1.56,4.02 0.36,2.28 -0.06,4.62 -0.48,2.58 -1.74,5.1 -1.26,2.46 -3.36,4.32 1.62,1.08 3.48,1.08 1.26,0 2.52,-0.54 1.26,-0.54 2.28,-1.62 1.08,-1.14 1.8,-2.76 0.78,-1.68 1.08,-3.96 0,-0.12 0.24,-0.12 0.12,0 0.12,0.12 -0.3,2.34 -1.08,4.08 -0.78,1.68 -1.92,2.82 -1.08,1.14 -2.46,1.74 -1.32,0.54 -2.64,0.54 -1.02,0 -1.98,-0.24 -0.9,-0.3 -1.74,-0.96 -1.56,1.32 -3.48,2.04 -1.92,0.78 -4.2,0.78 -1.38,0 -2.34,-0.6 -0.9,-0.6 -1.5,-1.56 -0.6,-1.02 -0.9,-2.28 -0.24,-1.26 -0.36,-2.58 l -0.36,2.16 q -0.66,3.72 -1.38,7.26 -0.72,3.54 -1.56,6.3 -0.84,2.82 -1.86,4.62 -1.08,1.8 -2.7,1.8 -0.18,0 -0.12,-0.18 0,-0.18 0.18,-0.18 z m 8.16,-23.16 q 0.06,1.44 0.24,2.88 0.24,1.44 0.78,2.58 0.54,1.14 1.44,1.86 0.9,0.72 2.34,0.72 1.5,0 2.82,-1.02 1.32,-1.02 2.4,-2.7 1.08,-1.74 1.8,-3.9 0.78,-2.22 1.14,-4.56 0.36,-2.28 0.24,-4.44 -0.06,-2.22 -0.66,-3.9 -0.54,-1.68 -1.62,-2.7 -1.08,-1.02 -2.7,-1.02 -1.62,0 -2.88,1.32 -1.26,1.32 -2.28,3.54 -0.96,2.22 -1.74,5.16 -0.78,2.94 -1.44,6.18 z m 6.12,-15.9 q -2.34,0.6 -4.14,2.46 -1.74,1.86 -3.06,4.5 -1.32,2.64 -2.22,5.88 -0.84,3.24 -1.44,6.6 -0.66,3.72 -1.08,7.2 -0.42,3.54 -0.78,6.36 -0.18,1.44 -0.3,2.58 -0.12,1.14 -0.3,1.98 l -0.42,1.32 q -0.06,0 -0.06,0.12 1.2,-0.3 2.04,-1.86 0.84,-1.56 1.62,-4.14 0.9,-2.82 1.56,-6.36 0.72,-3.54 1.38,-7.32 0.54,-3.12 1.2,-6.18 0.66,-3.12 1.5,-5.7 0.84,-2.64 1.92,-4.56 1.14,-1.98 2.58,-2.88 z m 4.38,-0.12 q 1.08,0.66 1.74,1.92 0.72,1.2 1.02,2.82 0.36,1.62 0.36,3.54 0,1.86 -0.36,3.72 -0.3,1.86 -0.9,3.72 -0.54,1.8 -1.38,3.42 -0.78,1.62 -1.8,2.88 -1.02,1.26 -2.22,1.86 2.16,-0.36 3.96,-1.5 1.8,-1.2 3.12,-2.82 1.38,-1.68 2.28,-3.66 0.9,-1.98 1.2,-4.02 0.3,-2.04 0,-3.96 -0.24,-1.92 -1.08,-3.54 -0.84,-1.62 -2.34,-2.76 -1.44,-1.14 -3.6,-1.62 z" />
      <path
         id="path34"
         style="font-family:'Validity Script Thin PERSONAL U'"
         d="m 404.70438,91.84 q 0.23999,-2.22 1.07999,-4.56 0.84,-2.4 2.22,-4.56 1.38,-2.16 3.18,-3.84 1.86,-1.68 4.08,-2.58 0.18,0 0.18,0 0.48,-0.24 0.90001,-0.36 0.47999,-0.12 1.13999,-0.12 1.86001,-0.6 3.42001,-0.6 1.68,0 2.81999,0.78 1.2,0.72 1.86001,2.04 0.65999,1.26 0.77999,2.94 0.18,1.68 -0.12,3.54 -0.53999,3.18 -2.21999,6.48 -1.62,3.3 -4.26001,5.82 1.08001,0.42 2.1,0.6 1.08,0.12 2.10001,0.12 3.29999,0 5.57999,-1.92 2.28,-1.92 2.76,-5.64 0,-0.12 0.24,-0.12 0.12,0 0.12,0.12 -0.48,3.84 -2.94,5.88 -2.4,2.04 -5.81999,2.04 -1.02001,0 -2.16001,-0.12 -1.08,-0.18 -2.27999,-0.66 -1.14001,1.02 -2.46001,1.86 -1.26,0.84 -2.64,1.38 0,0 -0.12,0.06 h -0.18 q -1.8,0.6 -3.47999,0.6 -1.74,0 -2.94,-0.78 -1.20001,-0.72 -1.92001,-1.98 -0.72,-1.26 -0.96,-2.88 -0.23999,-1.68 -0.06,-3.54 z m 4.67999,-3.6 q -0.29999,2.28 -0.17999,4.44 0.17999,2.1 0.77999,3.72 0.60001,1.62 1.62,2.64 1.08,1.02 2.64,1.02 1.08,-0.42 2.10001,-1.68 1.07999,-1.32 1.97999,-3.06 0.9,-1.8 1.62,-3.9 0.72,-2.1 1.14001,-4.26 0.41999,-2.16 0.41999,-4.14 0.06,-1.98 -0.35999,-3.48 -0.42001,-1.5 -1.38001,-2.4 -0.9,-0.96 -2.4,-0.96 h -0.12 q -1.56,0.12 -2.88,1.2 -1.32,1.02 -2.33999,2.7 -1.02001,1.68 -1.68,3.84 -0.66001,2.1 -0.96001,4.32 z m 6.48,11.04 q 2.04001,-1.08 3.72001,-2.76 1.73999,-1.68 3,-3.66 1.26,-1.98 2.09999,-4.14 0.84001,-2.16 1.2,-4.2 0.3,-1.86 0.12,-3.48 -0.12,-1.62 -0.78,-2.82 -0.6,-1.26 -1.74,-1.92 -1.13999,-0.72 -2.82,-0.72 -0.54,0 -1.13999,0.06 -0.54001,0.06 -1.20001,0.24 1.38001,0.3 2.16,1.38 0.84,1.02 1.14,2.64 0.36,1.56 0.24,3.48 -0.06,1.92 -0.42,3.9 -0.35999,1.74 -0.9,3.54 -0.54,1.74 -1.26,3.36 -0.72,1.62 -1.62,2.94 -0.84,1.32 -1.8,2.16 z m -2.21999,-21.84 q -1.8,1.08 -3.3,2.76 -1.44,1.62 -2.58001,3.6 -1.08,1.92 -1.79999,4.02 -0.66001,2.04 -0.90001,4.02 -0.18,1.86 0.06,3.48 0.24,1.62 0.90001,2.82 0.71999,1.2 1.85999,1.86 1.20001,0.72 2.88,0.72 1.14001,0 2.52,-0.36 -1.43999,-0.3 -2.4,-1.44 -0.96,-1.14 -1.44,-2.82 -0.47999,-1.68 -0.59999,-3.72 -0.12001,-2.04 0.18,-4.14 0.41999,-3.12 1.56,-6.06 1.19999,-3 3.06,-4.74 z" />
      <path
         id="path36"
         style="font-family:'Validity Script Thin PERSONAL U'"
         d="m 441.30906,100.66 q -1.08,-0.36 -1.68,-1.44 -0.54,-1.14 -0.72,-2.7 -0.12,-1.62 0.06,-3.54 0.18,-1.92 0.54,-3.9 0.42,-2.1 0.84,-4.14 0.48,-2.1 0.96,-4.02 0.3,-1.38 0.54,-2.58 0.3,-1.2 0.48,-2.1 -0.3,0.3 -0.9,0.78 -0.54,0.42 -1.38,0.84 -0.78,0.36 -1.86,0.66 -1.08,0.3 -2.4,0.3 -1.02,0 -1.98,-0.18 -0.12,2.46 -0.48,5.34 -0.36,2.88 -0.72,6 0,0.18 -0.18,0.18 -0.24,0 -0.24,-0.18 0.42,-3.24 0.78,-6.12 0.42,-2.94 0.54,-5.34 -1.32,-0.42 -2.34,-1.26 -1.02,-0.84 -1.5,-2.22 -0.54,-1.32 -0.18,-2.46 0.36,-1.14 1.74,-1.14 h 0.36 q 0.84,0.06 1.32,0.84 0.48,0.72 0.72,1.8 0.24,1.02 0.24,2.22 0.06,1.14 0,1.98 0.96,0.18 1.98,0.18 0.66,0 1.5,-0.12 0.84,-0.18 1.68,-0.48 0.84,-0.3 1.62,-0.72 0.78,-0.48 1.32,-1.02 0.12,-0.12 0.18,-0.18 0.06,-0.12 0.12,-0.18 l 0.12,-0.12 0.06,-0.48 q -0.12,-0.06 0.06,-0.24 0,0 0.06,-0.06 h 0.12 q 1.8,0.42 2.52,1.68 0.78,1.26 0.84,3.06 0.06,1.74 -0.42,3.84 -0.42,2.1 -1.02,4.26 -0.66,2.16 -1.44,4.26 -0.78,2.1 -1.26,3.84 -1.02,3.72 -0.18,4.62 v 0.06 q 0.48,0.24 1.26,0.24 1.26,0 2.82,-0.84 1.56,-0.84 2.94,-2.28 1.44,-1.44 2.46,-3.36 1.08,-1.98 1.38,-4.26 0,-0.12 0.18,-0.12 0.18,0 0.18,0.12 -0.3,2.28 -1.38,4.32 -1.08,1.98 -2.52,3.48 -1.44,1.5 -3.06,2.34 -1.62,0.9 -3.06,0.9 -0.42,0 -0.78,-0.12 -0.3,-0.06 -0.6,-0.18 h -0.18 z m 1.32,-24.84 q -0.06,0.96 -0.36,2.28 -0.24,1.26 -0.6,2.82 -0.48,1.92 -0.96,4.02 -0.48,2.04 -0.84,4.14 -0.36,1.92 -0.54,3.72 -0.18,1.74 -0.12,3.18 0.12,1.44 0.54,2.52 0.42,1.08 1.26,1.62 -0.24,-0.66 -0.12,-1.8 0.18,-1.2 0.66,-2.58 0.54,-1.74 1.26,-3.84 0.78,-2.1 1.44,-4.26 0.6,-2.16 1.02,-4.14 0.42,-2.04 0.36,-3.72 -0.06,-1.68 -0.72,-2.88 -0.66,-1.2 -2.22,-1.68 l -0.06,0.54 z m -12.66,-0.96 q 0.9,2.64 3.54,3.3 0.06,-0.18 0,-0.36 0,-0.24 0.06,-0.42 0.06,-2.58 -0.42,-4.14 -0.48,-1.56 -1.62,-1.56 h -0.24 q -1.14,0 -1.44,0.96 -0.36,0.9 0.12,2.22 z" />
      <path
         id="path38"
         style="font-family:'Validity Script Thin PERSONAL U'"
         d="m 470.8825,100.66 q -1.02,-0.36 -1.62,-1.2 -0.6,-0.9 -0.9,-2.16 -0.24,-1.26 -0.3,-2.82 0,-1.56 0.12,-3.24 -0.54,1.8 -1.38,3.54 -0.78,1.68 -1.92,3.06 -1.08,1.32 -2.46,2.16 -1.38,0.78 -3,0.78 -2.52,0 -4.14,-1.08 -1.56,-1.08 -2.28,-2.82 -0.72,-1.8 -0.66,-4.02 0.12,-2.28 0.96,-4.62 0.78,-2.22 2.28,-4.44 1.5,-2.22 3.66,-3.96 2.16,-1.74 4.92,-2.82 2.76,-1.14 6.06,-1.2 h 0.48 0.06 0.06 0.06 q 0.06,0 0.06,0.06 0,0 0.06,0 1.62,0.42 2.28,1.62 0.66,1.14 0.72,2.82 0.12,1.62 -0.24,3.6 -0.36,1.98 -0.9,3.96 -0.48,2.1 -1.02,4.08 -0.54,1.98 -0.96,3.72 -0.3,1.74 -0.24,2.94 0.06,1.14 0.66,1.8 0.66,0.3 1.5,0.3 1.44,0 2.82,-0.78 1.38,-0.78 2.52,-2.22 1.2,-1.44 1.98,-3.42 0.84,-1.98 1.14,-4.32 0,-0.12 0.24,-0.12 0.12,0 0.12,0.12 -0.3,2.34 -1.14,4.38 -0.84,2.04 -2.04,3.54 -1.2,1.44 -2.7,2.28 -1.44,0.84 -3,0.84 -0.42,0 -0.84,-0.06 -0.42,-0.06 -0.78,-0.24 h -0.18 z m -11.34,-0.24 q 1.8,0 3.24,-1.08 1.5,-1.14 2.64,-2.82 1.14,-1.74 1.92,-3.84 0.78,-2.1 1.2,-4.14 0.24,-1.8 0.54,-3.6 0.36,-1.86 0.66,-3.48 0.36,-1.62 0.54,-2.94 0.24,-1.38 0.36,-2.34 -2.4,0 -4.44,1.08 -2.04,1.02 -3.72,2.76 -1.68,1.68 -3,3.9 -1.26,2.16 -2.1,4.44 -0.84,2.34 -1.14,4.5 -0.24,2.16 0,3.84 0.24,1.68 1.02,2.7 0.84,1.02 2.22,1.02 z m -6,-12.06 q -0.72,2.1 -0.9,4.08 -0.18,1.98 0.3,3.6 0.54,1.62 1.68,2.76 1.14,1.08 3,1.44 -0.9,-0.6 -1.38,-1.86 -0.42,-1.26 -0.48,-2.88 0,-1.62 0.36,-3.48 0.36,-1.86 1.08,-3.78 0.6,-1.8 1.5,-3.54 0.96,-1.8 2.16,-3.36 1.2,-1.56 2.64,-2.76 1.5,-1.26 3.18,-1.98 -2.52,0.54 -4.62,1.74 -2.1,1.2 -3.78,2.76 -1.68,1.56 -2.88,3.48 -1.14,1.86 -1.86,3.78 z m 15.72,-1.62 q -0.12,0.48 -0.24,0.9 -0.06,0.42 -0.12,0.9 l -0.12,0.96 q -0.24,1.8 -0.3,3.48 -0.06,1.68 0.06,3.12 0.18,1.38 0.66,2.4 0.48,1.02 1.32,1.56 -0.36,-0.66 -0.3,-1.8 0.06,-1.2 0.3,-2.58 0.36,-1.74 0.9,-3.72 0.6,-2.04 1.14,-4.14 0.54,-2.04 0.84,-3.9 0.36,-1.92 0.24,-3.48 -0.06,-1.56 -0.66,-2.64 -0.6,-1.14 -2.04,-1.56 -0.12,1.62 -0.66,4.44 -0.54,2.76 -1.02,6 z" />
      <path
         id="path40"
         style="font-family:'Validity Script Thin PERSONAL U'"
         d="m 483.27344,101.02 q -1.14,-0.42 -1.74,-1.5 -0.54,-1.14 -0.72,-2.76 -0.12,-1.62 0.06,-3.54 0.24,-1.98 0.6,-4.08 0.3,-2.1 0.78,-4.2 0.54,-2.1 1.02,-4.02 0.48,-1.86 0.72,-3.3 0.3,-1.44 0.36,-2.46 -0.06,-0.06 0.06,-0.24 0,-0.12 0.12,-0.12 0.12,0 0.18,0.06 1.62,0.42 2.4,1.5 0.84,1.02 1.02,2.46 0.24,1.44 -0.06,3.24 -0.24,1.74 -0.78,3.6 0.96,-2.16 2.16,-4.14 1.2,-1.98 2.46,-3.48 1.32,-1.5 2.7,-2.4 1.38,-0.9 2.76,-0.9 0.48,0 0.78,0.06 2.1,0.36 3.06,1.62 0.96,1.2 1.08,3 0.18,1.74 -0.24,3.84 -0.42,2.1 -1.14,4.26 -0.66,2.16 -1.5,4.32 -0.84,2.16 -1.38,3.9 -0.54,1.86 -0.72,3.06 -0.18,1.2 0.3,1.62 0.78,0.42 1.74,0.42 1.62,0 3.12,-0.96 1.56,-1.02 2.82,-2.58 1.26,-1.56 2.1,-3.48 0.9,-1.92 1.14,-3.84 0,-0.12 0.24,-0.12 0.12,0 0.12,0.12 -0.24,1.92 -1.14,3.9 -0.84,1.98 -2.16,3.6 -1.26,1.62 -2.88,2.64 -1.56,1.02 -3.24,1.02 -1.14,0 -2.04,-0.42 0,0.12 -0.12,0 h -0.12 q -1.08,-0.42 -1.62,-1.56 -0.48,-1.2 -0.54,-2.82 -0.06,-1.68 0.18,-3.66 0.3,-2.04 0.72,-4.14 0.42,-2.1 0.84,-4.2 0.48,-2.1 0.78,-3.9 0.3,-1.8 0.42,-3.18 0.12,-1.38 -0.18,-2.1 -0.12,0 -0.24,0 -0.12,-0.06 -0.24,-0.06 -1.62,0 -3.18,1.26 -1.56,1.26 -3.06,3.3 -1.44,1.98 -2.76,4.62 -1.26,2.58 -2.34,5.28 -0.48,1.26 -0.84,2.46 -0.3,1.14 -0.66,2.34 -0.54,1.92 -0.84,3.54 -0.3,1.62 0,2.82 0,0.12 0,0.12 0,0.12 -0.12,0.18 -0.12,0.06 -0.24,0 z m -1.44,-11.88 q -0.36,2.04 -0.54,3.96 -0.18,1.86 -0.12,3.42 0.12,1.5 0.6,2.58 0.48,1.08 1.38,1.5 -0.18,-1.26 0.12,-2.82 0.3,-1.62 0.84,-3.48 l 0.36,-1.26 v -0.18 q 0.3,-0.84 0.54,-1.62 0.3,-0.84 0.6,-1.68 0.3,-0.84 0.54,-1.62 0.24,-0.84 0.54,-1.68 0.6,-1.98 0.96,-3.78 0.36,-1.8 0.24,-3.24 -0.12,-1.44 -0.9,-2.46 -0.72,-1.08 -2.28,-1.56 -0.06,1.02 -0.36,2.52 -0.3,1.5 -0.78,3.24 -0.48,1.92 -0.96,4.02 -0.48,2.04 -0.78,4.14 z m 14.46,-0.6 q -0.42,1.98 -0.72,3.84 -0.24,1.86 -0.24,3.42 0.06,1.5 0.42,2.64 0.36,1.14 1.14,1.68 -0.18,-0.66 0.06,-1.86 0.24,-1.2 0.72,-2.58 0.54,-1.8 1.38,-3.9 0.84,-2.16 1.5,-4.32 0.72,-2.16 1.14,-4.2 0.42,-2.04 0.24,-3.72 -0.12,-1.68 -0.96,-2.82 -0.84,-1.14 -2.7,-1.5 0.24,0.84 0.06,2.16 -0.12,1.32 -0.42,3.06 -0.3,1.8 -0.78,3.9 -0.48,2.1 -0.84,4.2 z" />
      <path
         id="path42"
         style="font-family:'Validity Script Thin PERSONAL U'"
         d="m 517.24094,100.42 q 0.3,0 0.54,0 0.24,0.06 0.54,0.06 2.94,0 5.4,-0.9 2.46,-0.96 4.2,-2.46 1.8,-1.5 2.82,-3.36 1.08,-1.86 1.32,-3.78 0,-0.12 0.24,-0.12 0.12,0 0.12,0.12 -0.24,1.98 -1.32,3.96 -1.08,1.92 -2.88,3.48 -1.8,1.5 -4.26,2.46 -2.46,0.9 -5.4,0.9 -0.3,0 -0.66,0 -0.36,0 -0.78,-0.06 -2.7,-0.18 -4.5,-1.32 -1.8,-1.14 -2.82,-2.94 -0.96,-1.8 -1.2,-4.02 -0.24,-2.28 0.24,-4.56 0.48,-2.22 1.62,-4.38 1.14,-2.22 2.88,-3.9 1.74,-1.68 4.08,-2.7 2.34,-1.08 5.16,-1.08 h 0.06 q 1.8,0 2.94,0.6 1.2,0.6 1.74,1.56 0.6,0.9 0.54,2.16 -0.06,1.2 -0.78,2.46 -1.02,1.86 -2.64,3.06 -1.62,1.14 -3.54,1.86 -1.92,0.66 -3.96,0.96 -1.98,0.24 -3.78,0.24 h -0.24 q -0.36,2.1 -0.3,4.08 0.06,1.92 0.54,3.54 0.54,1.62 1.5,2.7 1.02,1.08 2.52,1.38 z m 5.28,-24.24 q -1.86,0 -3.48,1.08 -1.56,1.02 -2.82,2.76 -1.2,1.68 -2.04,3.9 -0.84,2.16 -1.26,4.44 1.56,0 3,-0.54 1.5,-0.54 2.76,-1.38 1.26,-0.84 2.22,-1.92 1.02,-1.14 1.74,-2.28 1.5,-2.46 1.5,-4.26 0,-1.8 -1.62,-1.8 z m -6.36,24.18 q -1.68,-0.72 -2.64,-2.52 -0.9,-1.8 -1.14,-4.14 -0.24,-2.34 0.12,-4.98 0.42,-2.64 1.38,-5.04 0.96,-2.46 2.4,-4.38 1.5,-1.92 3.42,-2.82 -2.16,0.48 -3.96,1.62 -1.8,1.08 -3.12,2.64 -1.32,1.56 -2.22,3.42 -0.9,1.86 -1.26,3.84 -0.36,2.1 -0.18,4.26 0.18,2.1 1.02,3.84 0.84,1.68 2.34,2.88 1.56,1.14 3.84,1.38 z m 6.78,-18 q -1.26,1.92 -3.12,3.6 -1.86,1.62 -4.26,2.4 1.56,-0.18 3.18,-0.54 1.68,-0.42 3.18,-1.08 1.5,-0.72 2.76,-1.74 1.26,-1.08 2.1,-2.58 1.14,-2.04 0.48,-3.84 -0.66,-1.8 -3.36,-2.28 0.84,0.78 0.48,2.52 -0.36,1.74 -1.44,3.54 z" />
      <path
         id="path44"
         style="font-family:'Validity Script Thin PERSONAL U'"
         d="m 550.33563,100.66 q -1.02001,-0.36 -1.62,-1.2 -0.6,-0.9 -0.90001,-2.16 -0.24,-1.26 -0.3,-2.82 0,-1.56 0.12,-3.24 -0.53999,1.8 -1.38,3.54 -0.77999,1.68 -1.91999,3.06 -1.08001,1.32 -2.46,2.16 -1.38,0.78 -3,0.78 -2.52,0 -4.14,-1.08 -1.56001,-1.08 -2.28,-2.82 -0.72,-1.8 -0.66001,-4.02 0.12,-2.28 0.96,-4.62 0.78,-2.22 2.28,-4.44 1.5,-2.22 3.66,-3.96 2.16001,-1.74 4.92001,-2.82 2.76,-1.14 6.05999,-1.2 h 0.48 0.06 0.06 0.06 q 0.06,0 0.06,0.06 0,0 0.06,0 1.61999,0.42 2.28,1.62 0.65999,1.14 0.72,2.82 0.11999,1.62 -0.24,3.6 -0.36,1.98 -0.90001,3.96 -0.47999,2.1 -1.02,4.08 -0.54,1.98 -0.95999,3.72 -0.30001,1.74 -0.24,2.94 0.06,1.14 0.65999,1.8 0.66,0.3 1.5,0.3 1.44,0 2.82,-0.78 1.38001,-0.78 2.52001,-2.22 1.19999,-1.44 1.97999,-3.42 0.84,-1.98 1.14001,-4.32 0,-0.12 0.24,-0.12 0.11999,0 0.11999,0.12 -0.3,2.34 -1.14,4.38 -0.83999,2.04 -2.04,3.54 -1.2,1.44 -2.7,2.28 -1.44,0.84 -3,0.84 -0.42,0 -0.83999,-0.06 -0.42001,-0.06 -0.78001,-0.24 h -0.18 z m -11.34,-0.24 q 1.79999,0 3.24,-1.08 1.5,-1.14 2.64,-2.82 1.13999,-1.74 1.91999,-3.84 0.78,-2.1 1.20001,-4.14 0.24,-1.8 0.53999,-3.6 0.36,-1.86 0.66,-3.48 0.36,-1.62 0.54001,-2.94 0.24,-1.38 0.36,-2.34 -2.40001,0 -4.44001,1.08 -2.03999,1.02 -3.72,2.76 -1.68,1.68 -3,3.9 -1.26,2.16 -2.09999,4.44 -0.84,2.34 -1.14001,4.5 -0.23999,2.16 0,3.84 0.24,1.68 1.02001,2.7 0.83999,1.02 2.21999,1.02 z m -6,-12.06 q -0.72001,2.1 -0.9,4.08 -0.18001,1.98 0.29999,3.6 0.54,1.62 1.68,2.76 1.14001,1.08 3,1.44 -0.9,-0.6 -1.38,-1.86 -0.42,-1.26 -0.47999,-2.88 0,-1.62 0.35999,-3.48 0.36,-1.86 1.08,-3.78 0.6,-1.8 1.5,-3.54 0.96001,-1.8 2.16,-3.36 1.2,-1.56 2.64001,-2.76 1.5,-1.26 3.17999,-1.98 -2.51999,0.54 -4.62,1.74 -2.1,1.2 -3.77999,2.76 -1.68001,1.56 -2.88,3.48 -1.14,1.86 -1.86,3.78 z m 15.72,-1.62 q -0.12,0.48 -0.24,0.9 -0.06,0.42 -0.12,0.9 l -0.12,0.96 q -0.24,1.8 -0.30001,3.48 -0.06,1.68 0.06,3.12 0.17999,1.38 0.65999,2.4 0.48,1.02 1.32001,1.56 -0.36,-0.66 -0.30001,-1.8 0.06,-1.2 0.30001,-2.58 0.36,-1.74 0.9,-3.72 0.6,-2.04 1.13999,-4.14 0.54,-2.04 0.84001,-3.9 0.36,-1.92 0.24,-3.48 -0.06,-1.56 -0.66001,-2.64 -0.59999,-1.14 -2.04,-1.56 -0.12,1.62 -0.65999,4.44 -0.54001,2.76 -1.02,6 z" />
    </g>
  </g>
</svg>
