<?xml version="1.0" encoding="UTF-8" standalone="no"?>
<svg
   xmlns:dc="http://purl.org/dc/elements/1.1/"
   xmlns:cc="http://creativecommons.org/ns#"
   xmlns:rdf="http://www.w3.org/1999/02/22-rdf-syntax-ns#"
   xmlns:svg="http://www.w3.org/2000/svg"
   xmlns="http://www.w3.org/2000/svg"
   id="svg16"
   width="500px"
   version="1.1"
   height="200px">
  <metadata
     id="metadata20">
    <rdf:RDF>
      <cc:Work
         rdf:about="">
        <dc:format>image/svg+xml</dc:format>
        <dc:type
           rdf:resource="http://purl.org/dc/dcmitype/StillImage" />
      </cc:Work>
    </rdf:RDF>
  </metadata>
  <defs
     id="defs4">
    <style
       id="style2"
       type="text/css"><![CDATA[    
     @font-face {font-family:Violet Twinkle;
     src: url('/Users/francesco/Repos/write-logos/src/fonts/Violet_Twinkle.ttf');}
     @font-face {font-family:Black Olives;
     src: url('/Users/francesco/Repos/write-logos/src/fonts/Black_Olives_demo.ttf');}
     ]]></style>
  </defs>
  <g
     id="g14"
     style="font-size:30px">
    <g
       style="text-anchor:middle"
       id="text12"
       aria-label="eXtemporanea">
      <path
         id="path22"
         style="font-family:'Violet Twinkle'"
         d="m 197.48535,94.550781 q -0.39551,-0.864258 -0.39551,-1.904297 0,-0.688476 0.17578,-1.450195 0.13184,-0.527344 0.39551,-1.069336 0.26367,-0.541992 0.52735,-0.864258 0.67382,-0.703125 1.43554,-0.703125 h 0.0586 q 0.77636,0.01465 1.23047,0.512696 0.4541,0.483398 0.4541,1.083984 0,0.19043 -0.0439,0.395508 -0.21972,0.908203 -0.98144,1.743164 -0.76172,0.820312 -1.71387,0.952148 -0.32227,0.01465 -0.35156,0.08789 -0.0293,0.07324 -0.0293,0.117187 0,0.146485 0.11719,0.512696 0.11719,0.380859 0.38086,0.703125 0.27832,0.307617 0.58593,0.424804 0.23438,0.07324 0.4834,0.07324 0.46875,0 1.02539,-0.234375 0.61524,-0.249024 1.14258,-0.717774 0.62988,-0.600586 1.24512,-1.640625 0.61523,-1.054687 0.76172,-1.757812 0.0439,-0.205078 0.0879,-0.278321 0.0439,-0.07324 0.13183,-0.07324 0.17579,0 0.17579,0.249024 0,0.439453 -0.61524,1.728515 -1.14258,2.402344 -2.73926,3.164063 -0.71777,0.351562 -1.3916,0.351562 -0.32226,0 -0.62988,-0.07324 -0.9668,-0.249023 -1.52344,-1.333008 z m 1.47949,-2.666015 q 0.57129,-0.424805 0.92286,-1.12793 0.16113,-0.336914 0.16113,-0.556641 0,-0.131836 -0.0586,-0.219726 -0.10253,-0.175782 -0.30761,-0.175782 -0.10254,0 -0.21973,0.04395 -0.35156,0.117187 -0.70312,0.673828 -0.0879,0.175781 -0.19043,0.439453 -0.10254,0.249023 -0.17579,0.498047 -0.10253,0.322266 -0.10253,0.498047 0,0.117187 0.0439,0.175781 0.0293,0.04395 0.0879,0.04395 0.16113,0 0.54199,-0.292968 z" />
      <path
         id="path24"
         style="font-family:'Black Olives'"
         d="m 220.56461,99.76 q 0.48,0 1.14,-0.66 0.69,-0.69 1.32,-1.62 0.66,-0.93 1.2,-1.86 0.57,-0.93 0.81,-1.47 -0.24,0.6 -0.75,1.59 -0.51,0.99 -1.14,1.95 -0.63,0.93 -1.35,1.62 -0.69,0.69 -1.32,0.69 -0.51,0 -0.93,-0.33 -0.42,-0.36 -0.66,-0.84 -0.72,-1.35 -1.26,-2.91 -0.51,-1.56 -0.96,-3.18 -0.42,-1.62 -0.84,-3.24 -0.39,-1.65 -0.87,-3.15 -2.13,2.67 -4.17,5.34 -2.01,2.64 -4.05,5.31 -0.27,0.36 -0.66,0.9 -0.36,0.51 -0.72,0.99 -0.33,0.45 -0.63,0.78 -0.27,0.33 -0.39,0.33 -0.27,0 -0.27,-0.39 0,-0.09 0.12,-0.27 0.12,-0.21 0.27,-0.42 0.18,-0.24 0.33,-0.48 0.18,-0.24 0.33,-0.42 2.46,-3.12 4.83,-6.15 2.37,-3.06 4.89,-6.09 -0.06,-0.24 -0.21,-0.66 -0.12,-0.42 -0.27,-0.87 -0.15,-0.45 -0.3,-0.81 -0.12,-0.39 -0.18,-0.57 l -0.09,-0.21 q -0.24,-0.57 -0.51,-1.23 -0.24,-0.66 -0.6,-1.2 -0.33,-0.57 -0.75,-0.93 -0.39,-0.36 -0.9,-0.36 -0.48,0 -0.93,0.39 -0.42,0.36 -0.75,0.84 0.42,-0.63 0.84,-1.02 0.45,-0.42 1.05,-0.42 0.69,0 1.29,0.69 0.63,0.66 1.14,1.65 0.51,0.99 0.9,2.13 0.42,1.14 0.75,2.04 l 0.45,-0.54 q 1.05,-1.26 2.07,-2.43 1.02,-1.17 2.1,-2.31 1.44,-1.53 2.58,-2.22 1.14,-0.72 2.46,-0.72 0.96,0 1.86,0.3 0.93,0.3 1.59,0.9 -0.72,-0.51 -1.53,-0.78 -0.78,-0.27 -1.65,-0.27 -0.96,0 -1.92,0.39 -0.93,0.36 -1.74,1.14 -1.65,1.62 -3.15,3.42 -1.5,1.77 -2.97,3.6 1.38,4.41 2.52,8.91 0.18,0.66 0.36,1.53 0.21,0.87 0.51,1.68 0.3,0.78 0.69,1.35 0.42,0.57 1.02,0.57 z" />
      <path
         id="path26"
         style="font-family:'Violet Twinkle'"
         d="m 223.36914,97.641602 q -0.52734,-1.962891 -0.55664,-3.442383 -0.0293,-1.494141 -0.0293,-1.962891 0,-1.904297 0.19043,-3.47168 0.0586,-0.498046 0.10254,-0.878906 0.0293,-0.380859 0.0293,-0.439453 0,-0.04394 -0.0146,-0.05859 -0.0147,-0.0293 -0.0732,-0.0293 h -0.0586 q -0.0879,0 -0.30761,0.05859 -0.21973,0.04395 -0.60059,0.146485 -0.39551,0.08789 -0.99609,0.234375 -0.65918,0.161132 -1.14258,0.27832 -0.49805,0.102539 -0.57129,0.102539 -0.17578,0 -0.27832,-0.161133 -0.11719,-0.175781 -0.11719,-0.336914 v -0.08789 q 0.0293,-0.08789 0.10254,-0.175781 0.0586,-0.08789 0.13184,-0.131836 0.4541,-0.27832 2.73926,-0.644531 0.55664,-0.102539 0.9375,-0.161133 0.36621,-0.05859 0.38085,-0.07324 0.0146,-0.01465 0.0733,-0.336914 0.0732,-0.322266 0.14648,-0.805664 0.17578,-0.966797 0.30762,-1.31836 0.13183,-0.36621 0.35156,-0.454101 0.21973,-0.117188 0.41016,-0.117188 0.27832,0 0.52734,0.263672 l 0.29297,0.278321 -0.0439,1.010742 q -0.0293,0.424804 -0.0439,0.74707 -0.0147,0.307617 -0.0293,0.380859 l -0.0146,0.01465 q 0,0.0293 0,0.04394 0,0.01465 0.0439,0.0293 0.0586,0 0.17578,0 0.11719,0 0.33691,-0.01465 0.21973,-0.0293 0.55664,-0.05859 0.33692,-0.0293 0.83497,-0.08789 0.23437,-0.01465 0.52734,-0.04394 2.13867,-0.219727 3.25195,-0.27832 1.11328,-0.07324 1.81641,-0.07324 h 0.26367 q 0.33691,0.01465 0.52734,0.0293 0.20508,0 0.29297,0.0293 0.0879,0.01465 0.11719,0.05859 0.0293,0.0293 0.0293,0.08789 v 0.04395 q 0,0.04394 -0.0146,0.08789 -0.0147,0.04394 -0.13184,0.07324 -0.11718,0.0293 -0.38086,0.05859 -0.24902,0.01465 -0.67382,0.0293 -0.79102,0.04395 -2.40235,0.219727 -1.61133,0.175781 -3.13476,0.366211 -1.50879,0.19043 -1.97754,0.292969 -0.0732,0 -0.11719,0.04395 -0.0293,0.0293 -0.0732,0.146484 -0.0293,0.102539 -0.0732,0.336914 -0.0293,0.219727 -0.0733,0.629883 -0.0439,0.410156 -0.10254,1.054688 -0.13183,1.259765 -0.16113,2.578125 -0.0293,1.318359 -0.0293,2.021484 0,0.9375 0.0293,1.728516 0.0146,0.74707 0.10254,1.552734 0.10254,0.805664 0.29297,1.201172 0.19043,0.395508 0.4248,0.395508 0.10254,0 0.23438,-0.07324 0.38086,-0.234375 1.01074,-1.552735 0.4541,-0.966797 1.58203,-4.248047 0.30762,-0.864258 0.54199,-1.479492 0.23438,-0.615234 0.29297,-0.717773 0.10254,-0.161133 0.16114,-0.161133 0.0732,-0.01465 0.10254,-0.01465 0.0879,0 0.13183,0.102539 v 0.01465 q 0,0.19043 -0.33691,1.347656 -0.35157,1.21582 -0.84961,2.72461 -0.4834,1.508789 -0.87891,2.592773 -0.14648,0.380859 -0.24902,0.629883 -0.95215,2.138672 -2.00684,2.138672 h -0.0732 q -1.11328,-0.08789 -1.78711,-2.314453 z" />
      <path
         id="path28"
         style="font-family:'Violet Twinkle'"
         d="m 229.18457,94.550781 q -0.39551,-0.864258 -0.39551,-1.904297 0,-0.688476 0.17578,-1.450195 0.13184,-0.527344 0.39551,-1.069336 0.26367,-0.541992 0.52735,-0.864258 0.67382,-0.703125 1.43554,-0.703125 h 0.0586 q 0.77636,0.01465 1.23046,0.512696 0.45411,0.483398 0.45411,1.083984 0,0.19043 -0.0439,0.395508 -0.21973,0.908203 -0.98144,1.743164 -0.76172,0.820312 -1.71387,0.952148 -0.32227,0.01465 -0.35156,0.08789 -0.0293,0.07324 -0.0293,0.117187 0,0.146485 0.11719,0.512696 0.11718,0.380859 0.38086,0.703125 0.27832,0.307617 0.58593,0.424804 0.23438,0.07324 0.4834,0.07324 0.46875,0 1.02539,-0.234375 0.61524,-0.249024 1.14258,-0.717774 0.62988,-0.600586 1.24512,-1.640625 0.61523,-1.054687 0.76172,-1.757812 0.0439,-0.205078 0.0879,-0.278321 0.0439,-0.07324 0.13183,-0.07324 0.17578,0 0.17578,0.249024 0,0.439453 -0.61523,1.728515 -1.14258,2.402344 -2.73926,3.164063 -0.71777,0.351562 -1.3916,0.351562 -0.32227,0 -0.62988,-0.07324 -0.9668,-0.249023 -1.52344,-1.333008 z m 1.47949,-2.666015 q 0.57129,-0.424805 0.92285,-1.12793 0.16114,-0.336914 0.16114,-0.556641 0,-0.131836 -0.0586,-0.219726 -0.10254,-0.175782 -0.30761,-0.175782 -0.10254,0 -0.21973,0.04395 -0.35156,0.117187 -0.70313,0.673828 -0.0879,0.175781 -0.19043,0.439453 -0.10253,0.249023 -0.17578,0.498047 -0.10254,0.322266 -0.10254,0.498047 0,0.117187 0.0439,0.175781 0.0293,0.04395 0.0879,0.04395 0.16113,0 0.54199,-0.292968 z" />
      <path
         id="path30"
         style="font-family:'Violet Twinkle'"
         d="m 243.58398,96.99707 q -0.17578,-0.688476 -0.17578,-1.640625 0,-0.307617 0.0147,-0.629883 0.0586,-1.347656 0.26367,-2.739257 0.20508,-1.40625 0.38086,-2.446289 0.0439,-0.249024 0.0732,-0.454102 0.19043,-1.113281 0.30762,-1.816406 0.11719,-0.717774 0.16113,-1.098633 0.0439,-0.380859 0.0293,-0.498047 0,-0.117187 -0.0293,-0.117187 l -0.0146,0.01465 q -0.10254,0.07324 -0.33692,0.454102 -0.23437,0.380859 -0.49804,0.893554 -0.24903,0.512696 -0.43946,0.981446 -0.16113,0.424804 -0.32226,0.908203 -0.16114,0.483398 -0.39551,1.289062 -0.23438,0.805664 -0.62988,2.226563 -0.32227,1.186523 -0.62989,1.669922 -0.30761,0.46875 -0.76172,0.46875 -0.82031,0 -1.17187,-2.138672 -0.0146,-0.102539 -0.0293,-0.19043 -0.11718,-0.65918 -0.16113,-0.703125 -0.0293,-0.04394 -0.0439,-0.04394 -0.0439,0 -0.13183,0.27832 -0.0146,0.04395 -0.0439,0.08789 -0.0732,0.234375 -0.24902,0.834961 -0.16113,0.600586 -0.32227,1.303711 -0.32226,1.347656 -0.55664,1.918945 -0.23437,0.55664 -0.51269,0.65918 -0.21973,0.117187 -0.43945,0.117187 -0.24903,0 -0.4834,-0.175781 -0.5127,-0.307617 -0.82032,-1.567383 -0.38086,-1.464844 -0.38086,-3.544922 0,-0.498047 0.0146,-0.776367 0,-0.292969 0.0293,-0.439453 0.0293,-0.161133 0.0879,-0.263672 0.19043,-0.322266 0.38086,-0.366211 0.19043,-0.04394 0.27832,-0.04394 0.21973,0 0.4541,0.161132 0.13184,0.10254 0.20508,0.307618 0.0879,0.190429 0.13184,0.629882 0.0586,0.439454 0.11718,1.274415 0.0293,0.615234 0.0733,1.127929 0.0439,0.512696 0.0586,0.688477 0.0293,0.175781 0.0439,0.190429 l 0.0146,0.01465 q 0.0293,0 0.10254,-0.219727 0.0879,-0.234375 0.27832,-0.820312 0.86426,-2.753906 1.52344,-2.929688 0.16113,-0.07324 0.26367,-0.07324 0.10254,0 0.26367,0.07324 0.10254,0.04395 0.21973,0.131836 0.11719,0.08789 0.17578,0.175782 0.24903,0.439453 0.57129,2.036132 0.0586,0.278321 0.10254,0.498047 0.0439,0.205078 0.0732,0.249024 h 0.0293 q 0.0146,-0.01465 0.0439,-0.08789 0.0439,-0.07324 0.10254,-0.234375 0.0586,-0.175781 0.13184,-0.439453 0.0879,-0.263672 0.20508,-0.65918 0.13183,-0.395508 0.29297,-0.952148 0.61523,-2.036133 1.12793,-3.28125 0.52734,-1.245117 1.15722,-2.109375 0.68848,-0.996094 1.21582,-0.996094 0.24903,0 0.46875,0.219727 0.26367,0.234375 0.32227,0.615234 0.0586,0.366211 0.0586,0.703125 0,0.439453 -0.0732,1.098633 -0.10254,1.142578 -0.41016,3.237304 -0.32226,2.299805 -0.43945,3.398438 -0.11719,1.098633 -0.11719,2.050781 0,1.743164 0.27832,1.743164 0.11719,0 0.36621,-0.292968 0.24903,-0.307618 0.49805,-0.761719 0.26367,-0.483399 0.64453,-1.625977 0.39551,-1.142578 0.73242,-2.416992 l 0.14649,-0.585937 q 0.0439,-0.205079 0.0879,-0.366211 0.0439,-0.161133 0.0586,-0.234375 0.17578,-0.498047 0.29297,-0.512696 0.13184,-0.01465 0.14649,-0.01465 0.13183,0 0.13183,0.27832 0,0.131836 -0.0293,0.322266 -0.14649,0.74707 -0.46875,2.065429 -0.30762,1.31836 -0.55665,2.211915 -0.14648,0.512695 -0.32226,1.010742 -0.17578,0.498047 -0.29297,0.74707 -0.76172,1.420898 -1.20117,1.435547 h -0.43945 q -0.84961,0 -1.30372,-1.494141 z" />
      <path
         id="path32"
         style="font-family:'Violet Twinkle'"
         d="m 248.46191,106.73828 q -0.17578,-0.11719 -0.29296,-0.60058 -0.11719,-0.46875 -0.26368,-1.65528 -0.60058,-4.687498 -0.60058,-9.843748 0,-0.761719 0.0147,-1.538086 0.0586,-2.753906 0.13183,-3.178711 0.20508,-0.688477 0.82031,-0.74707 0.0879,-0.01465 0.17579,-0.01465 0.10253,0 0.17578,0.0293 0.11718,0.04394 0.29297,0.219727 l 0.27832,0.27832 v 1.289062 q 0,0.527344 0.0146,0.878907 0.0147,0.351562 0.0439,0.351562 0.0147,-0.0293 0.13184,-0.366211 0.13183,-0.336914 0.29296,-0.805664 1.23047,-3.618164 2.92969,-4.614258 0.30762,-0.146484 0.67383,-0.146484 h 0.0732 q 0.41016,0.01465 0.73242,0.219727 1.24512,0.878906 1.27442,3.852539 0,1.831054 -0.57129,3.354492 -0.55664,1.523437 -1.61133,2.592773 -0.9082,0.878907 -1.77246,1.259766 -0.84961,0.366211 -1.34766,0.366211 -0.26367,0 -0.46875,-0.07324 -0.10254,-0.04395 -0.16113,-0.05859 -0.0586,-0.01465 -0.0879,-0.01465 -0.0293,0 -0.0439,0.01465 -0.0146,0.0293 -0.0146,0.219726 0,0.278321 0.0293,0.908204 0.0293,1.040039 0.0879,2.504884 0.0733,1.47949 0.14649,2.82715 0.0732,0.95215 0.0732,1.45019 0,0.49805 -0.0732,0.71778 -0.0586,0.21972 -0.21973,0.32226 -0.16113,0.10254 -0.32226,0.10254 -0.14649,0 -0.17579,0 -0.21972,0 -0.36621,-0.10254 z m 2.27051,-12.568358 q 0.73242,-0.703125 1.56738,-1.31836 0.83497,-0.629882 1.52344,-0.981445 l 0.71778,-0.351562 0.0586,-0.366211 q 0.0439,-0.395508 0.0439,-0.791016 0,-0.717773 -0.14648,-1.450195 -0.23437,-1.142578 -0.70312,-1.669922 -0.23438,-0.219727 -0.49805,-0.219727 -0.42481,0 -0.95215,0.527344 -1.74316,1.875 -2.63672,6.635742 -0.13183,0.673828 -0.16113,0.878907 -0.0146,0.205078 -0.0146,0.263671 0,0.08789 0.0293,0.08789 0.0586,-0.01465 0.20507,-0.219727 0.11719,-0.131835 0.38086,-0.424804 0.27832,-0.292969 0.58594,-0.600586 z m -0.30762,2.856445 q 2.19727,-0.644531 3.3545,-2.915039 0.17578,-0.366211 0.33691,-0.805664 0.17578,-0.454102 0.24902,-0.761719 0.0879,-0.322265 0.0879,-0.410156 v -0.04394 h -0.0146 q -0.0879,0 -0.46875,0.219726 -0.41016,0.263672 -0.92286,0.615235 -0.64453,0.46875 -1.3623,1.157226 -0.71777,0.673828 -1.11328,1.186524 -0.4834,0.644531 -0.64453,1.054687 -0.16114,0.395508 -0.16114,0.556641 0,0.131836 0.0732,0.190429 h 0.0147 q 0.0586,0.04395 0.0879,0.04395 0.0293,0 0.0439,0 0.0439,0 0.10254,-0.01465 0.0879,-0.01465 0.29297,-0.05859 0.0146,-0.01465 0.0439,-0.01465 z" />
      <path
         id="path34"
         style="font-family:'Violet Twinkle'"
         d="m 256.82617,95.751953 q -0.41015,-0.908203 -0.4248,-1.713867 -0.0146,-0.805664 -0.0146,-0.864258 0,-1.479492 0.33691,-2.358398 0.0732,-0.161133 0.10254,-0.219727 0.0147,-0.07324 0.0147,-0.117187 l -0.0147,-0.07324 q -0.0147,-0.07324 -0.0879,-0.190429 -0.11719,-0.263672 -0.11719,-0.688477 0,-0.410156 0.13184,-0.703125 0.4834,-0.952148 1.40625,-0.952148 0.70312,0 1.28906,0.571289 0.58594,0.571289 0.90821,1.567383 0.0732,0.234375 0.13183,0.336914 0.0732,0.102539 0.14649,0.102539 0.10253,0 0.13183,0.07324 0.0439,0.05859 0.0439,0.131836 v 0.04394 q -0.0146,0.102539 -0.10254,0.175781 -0.0586,0.05859 -0.0879,0.234375 -0.0293,0.161133 -0.0293,0.556641 0,1.098633 -0.29297,2.167969 -0.29297,1.069336 -0.76172,1.801758 -0.58593,0.878906 -1.02539,0.952148 -0.4248,0.07324 -0.51269,0.07324 -0.65918,0 -1.17188,-0.908203 z m 2.8125,-5.288086 q 0,-0.102539 -0.13183,-0.366211 -0.11719,-0.27832 -0.29297,-0.541992 -0.16114,-0.263672 -0.29297,-0.395508 -0.41016,-0.351562 -0.77637,-0.351562 -0.11719,0 -0.23437,0.0293 -0.4834,0.146484 -0.4834,0.717773 0,0.307617 0.0732,0.439453 0.0732,0.131836 0.27832,0.234375 0.27832,0.131836 0.70313,0.234375 0.43945,0.08789 0.64453,0.08789 0.20507,0 0.24902,0 0.26367,0 0.26367,-0.08789 z m -0.98144,4.438477 q 0.4541,-0.527344 0.76172,-1.420899 0.30761,-0.908203 0.30761,-1.743164 v -0.615234 q -0.24902,0.04394 -0.57129,0.04394 h -0.17578 q -0.4248,-0.0293 -0.65918,-0.07324 -0.0147,0.01465 -0.0586,0.307617 -0.044,0.27832 -0.0879,0.717774 -0.0586,0.512695 -0.0732,0.9375 -0.0147,0.424804 -0.0147,0.615234 0,0.395508 0.0147,0.732422 0.0146,0.512695 0.0732,0.688476 0.0439,0.117188 0.11719,0.117188 h 0.0293 q 0.10254,-0.04395 0.33692,-0.307617 z" />
      <path
         id="path36"
         style="font-family:'Violet Twinkle'"
         d="m 266.4209,97.65625 q -0.0732,-0.74707 -0.0732,-1.845703 0,-1.21582 0.0879,-2.871094 0.11718,-1.948242 0.13183,-2.988281 v -0.395508 q 0.0146,-0.234375 0.0146,-0.454102 0,-0.55664 -0.0586,-1.010742 -0.0879,-0.615234 -0.42481,-0.805664 -0.33691,-0.205078 -0.71777,-0.205078 -0.36621,0 -0.86426,0.117188 -0.32226,0.08789 -0.62988,0.161132 -0.30762,0.05859 -0.4541,0.08789 l -0.32227,0.04395 -0.0586,0.498047 q -0.24903,2.314453 -0.65918,4.643555 -0.39551,2.329101 -0.80567,3.925781 -0.41015,1.59668 -0.67382,1.728516 -0.0293,0 -0.0733,0 -0.0586,-0.01465 -0.11718,-0.04395 -0.0439,-0.0293 -0.0439,-0.07324 -0.0147,-0.04394 -0.0147,-0.07324 0,-0.05859 0.0147,-0.146484 0.0293,-0.146485 0.10254,-0.410157 0.61523,-2.197265 1.11328,-5.097656 0.4834,-2.90039 0.4834,-4.277344 v -0.878906 l -0.24902,-0.234375 q -0.35157,-0.351562 -0.39551,-0.585937 -0.0586,-0.249024 -0.0586,-0.351563 0,-0.263672 0.16114,-0.46875 0.19043,-0.234375 0.43945,-0.234375 0.0439,0 0.10254,0.01465 0.32227,0.05859 0.46875,0.395507 0.0586,0.161133 0.14648,0.205079 0.0879,0.0293 0.19043,0.0293 0.10254,0 0.24903,-0.0293 0.29297,-0.05859 0.8789,-0.234375 0.80567,-0.219727 1.4209,-0.219727 0.68848,0 1.14258,0.263672 0.87891,0.527344 1.18652,1.655273 0.30762,1.113282 0.30762,2.416993 v 0.117187 q -0.0147,1.376953 -0.11719,2.62207 -0.0439,0.527344 -0.0732,0.981446 -0.0879,1.713867 -0.0879,2.915039 0,0.732422 0.0293,1.274414 0.0879,1.49414 0.4834,1.49414 h 0.0146 q 0.39551,-0.01465 1.01075,-1.333007 0.4248,-0.893555 0.95214,-2.636719 0.542,-1.757813 0.9375,-3.47168 0.11719,-0.527344 0.19043,-0.820312 0.0733,-0.307618 0.11719,-0.439453 0.0439,-0.131836 0.0879,-0.161133 0.0439,-0.04395 0.11719,-0.04395 0.0586,0 0.11719,0.04395 0.0586,0.0293 0.0732,0.07324 0.0147,0.05859 0.0147,0.161133 0,0.410156 -0.24903,1.611328 -0.29296,1.49414 -0.74707,3.237305 -0.43945,1.743164 -0.80566,2.8125 -0.67383,1.757813 -1.25977,2.006833 -0.57128,0.26367 -0.8496,0.26367 -0.542,0 -1.01075,-0.51269 -0.70312,-0.76172 -0.89355,-2.44629 z" />
      <path
         id="path38"
         style="font-family:'Violet Twinkle'"
         d="m 271.70898,90.463867 q 0.57129,-1.669922 1.17188,-1.992187 0.60059,-0.336914 0.92285,-0.336914 0.57129,0 1.15723,0.527343 0.57129,0.556641 0.77636,1.508789 0.0586,0.292969 0.11719,0.424805 0.0586,0.117188 0.16113,0.146484 0.38086,0.08789 0.68848,1.391602 0.55664,2.109375 1.27442,2.475586 0.0879,0.0293 0.17578,0.0293 0.57129,0 1.3623,-1.538086 0.41016,-1.054688 0.62988,-1.625977 0.21973,-0.585937 0.27832,-0.761718 0.14649,-0.38086 0.33692,-0.307618 0.20508,0.05859 -0.044,0.878907 -0.38086,1.435547 -0.4834,1.68457 -0.80566,2.182617 -1.77246,2.504883 -0.17578,0.05859 -0.36621,0.05859 -0.57129,0 -1.11328,-0.556641 -0.70312,-0.732422 -1.11328,-2.15332 -0.0439,-0.175782 -0.0879,-0.336914 -0.0879,-0.322266 -0.11719,-0.395508 0,-0.04395 -0.0293,-0.04395 -0.0439,0 -0.19043,0.219727 -0.20508,0.307617 -0.71778,1.230469 -0.79101,1.450195 -1.25976,2.124023 -0.58594,0.805664 -0.86426,0.878906 -0.26367,0.05859 -0.36621,0.05859 -0.32227,0 -0.55664,-0.27832 -0.29297,-0.366211 -0.43946,-0.996094 -0.14648,-0.673828 -0.14648,-1.391601 0,-0.512696 0.0732,-1.054688 0.16113,-1.303711 0.54199,-2.373047 z m 1.80176,2.856445 q 0.38086,-0.585937 0.74707,-1.113281 0.36621,-0.541992 0.54199,-0.791015 l 0.39551,-0.541993 -0.19043,-0.380859 q -0.10254,-0.219727 -0.29297,-0.454102 -0.19043,-0.234375 -0.3955,-0.395507 -0.19043,-0.175782 -0.29297,-0.175782 -0.32227,0 -0.71778,0.996094 -0.38086,0.996094 -0.62988,2.402344 -0.0439,0.366211 -0.0879,0.791016 -0.0293,0.410156 -0.0293,0.717773 0,0.307617 0.0293,0.307617 0.0293,-0.01465 0.27832,-0.395508 0.26367,-0.380859 0.64453,-0.966797 z" />
      <path
         id="path40"
         style="font-family:'Violet Twinkle'"
         d="m 280.83496,97.919922 q -0.26367,-0.102539 -0.38086,-0.410156 -0.19043,-0.395508 -0.30762,-3.061524 -0.0293,-0.615234 -0.0293,-1.611328 0,-0.996094 0.0147,-1.904297 0.0146,-0.922851 0.0586,-1.289062 0.0147,-0.161133 0.0439,-0.439453 0.0146,-0.278321 0.0293,-0.527344 0.0293,-0.673828 0.0879,-1.025391 0.0439,-0.366211 0.11719,-0.527344 0.0732,-0.175781 0.19043,-0.249023 0.20508,-0.131836 0.4248,-0.102539 0.10254,0.01465 0.20508,0.05859 0.58594,0.190429 0.58594,1.010742 0,0.161133 -0.0293,0.366211 -0.0586,0.541992 -0.11718,1.625976 -0.0586,1.083985 -0.10254,2.197266 l -0.0147,0.703125 0.23437,-0.673828 q 0.10254,-0.27832 0.17578,-0.498047 0.0879,-0.219727 0.10254,-0.27832 0.0293,-0.05859 0.0733,-0.19043 0.0586,-0.131836 0.10253,-0.27832 0.0439,-0.146485 0.0879,-0.263672 0.0586,-0.131836 0.0732,-0.161133 0.0147,-0.0293 0.0586,-0.161133 0.0586,-0.131836 0.13184,-0.292969 0.64453,-1.772461 0.99609,-2.182617 0.26367,-0.292969 0.55664,-0.249023 h 0.0293 q 0.33691,0.04394 0.52734,0.336914 0.19043,0.292969 0.32227,0.966797 0.0293,0.175781 0.0586,0.46875 0.0439,0.292968 0.0732,0.600586 0.0439,0.292968 0.0586,0.46875 0.0147,0.175781 0.0147,0.234375 V 90.625 q 0,0.0293 0.0293,0.395508 0.0439,0.351562 0.0879,0.805664 0.0586,0.454101 0.10254,0.776367 0.0147,0.146484 0.0293,0.336914 0.0293,0.19043 0.0439,0.351563 0.0293,0.219726 0.0732,0.527343 0.0439,0.292969 0.0879,0.527344 0.0439,0.219727 0.0586,0.219727 0.30762,-0.205078 0.58594,-0.966797 0.29297,-0.776367 0.49805,-1.611328 0.20507,-0.834961 0.27832,-1.259766 0.11718,-0.454102 0.32226,-0.424805 h 0.0293 q 0.20508,0.05859 0.20508,0.424805 v 0.131836 q -0.0293,0.336914 -0.14649,1.142578 -0.11719,0.805664 -0.33691,1.728516 -0.20508,0.922851 -0.52735,1.640625 -0.32226,0.703125 -0.76171,0.820312 -0.0733,0.01465 -0.17579,0 -0.0732,0 -0.14648,-0.0293 -0.19043,-0.04395 -0.33691,-0.146484 -0.39551,-0.307617 -0.65918,-1.230469 -0.13184,-0.541992 -0.29297,-1.625976 -0.16114,-1.083985 -0.20508,-1.816407 -0.0146,-0.234375 -0.0439,-0.615234 -0.0146,-0.395508 -0.0439,-0.776367 -0.0293,-0.395508 -0.0586,-0.65918 -0.0293,-0.27832 -0.0293,-0.292969 -0.0147,0 -0.0879,0.131836 -0.0732,0.131836 -0.17578,0.336914 -0.0879,0.19043 -0.19043,0.395508 -0.0879,0.205078 -0.13184,0.351563 -0.0439,0.102539 -0.0879,0.205078 -0.0293,0.08789 -0.0586,0.117187 -0.10254,0.205078 -0.30762,0.834961 -0.20508,0.615235 -0.42481,1.347657 -0.20507,0.732421 -0.33691,1.289062 -0.0439,0.205078 -0.0879,0.380859 -0.0439,0.161133 -0.0586,0.234375 -0.0293,0.07324 -0.0586,0.249024 -0.0293,0.161133 -0.0732,0.351562 -0.0293,0.205078 -0.0586,0.38086 -0.0293,0.161133 -0.0439,0.234375 -0.0293,0.08789 -0.0586,0.366211 -0.0146,0.263672 -0.0439,0.571289 -0.0439,0.454101 -0.0732,0.644531 -0.0293,0.19043 -0.0732,0.27832 -0.17578,0.307617 -0.5127,0.263672 -0.0879,-0.01465 -0.17578,-0.04394 z" />
      <path
         id="path42"
         style="font-family:'Violet Twinkle'"
         d="m 287.25098,94.550781 q -0.39551,-0.864258 -0.39551,-1.904297 0,-0.688476 0.17578,-1.450195 0.13184,-0.527344 0.39551,-1.069336 0.26367,-0.541992 0.52734,-0.864258 0.67383,-0.703125 1.43555,-0.703125 h 0.0586 q 0.77637,0.01465 1.23047,0.512696 0.4541,0.483398 0.4541,1.083984 0,0.19043 -0.0439,0.395508 -0.21973,0.908203 -0.98145,1.743164 -0.76172,0.820312 -1.71387,0.952148 -0.32226,0.01465 -0.35156,0.08789 -0.0293,0.07324 -0.0293,0.117187 0,0.146485 0.11718,0.512696 0.11719,0.380859 0.38086,0.703125 0.27832,0.307617 0.58594,0.424804 0.23437,0.07324 0.4834,0.07324 0.46875,0 1.02539,-0.234375 0.61523,-0.249024 1.14258,-0.717774 0.62988,-0.600586 1.24511,-1.640625 0.61524,-1.054687 0.76172,-1.757812 0.0439,-0.205078 0.0879,-0.278321 0.044,-0.07324 0.13184,-0.07324 0.17578,0 0.17578,0.249024 0,0.439453 -0.61523,1.728515 -1.14258,2.402344 -2.73926,3.164063 -0.71778,0.351562 -1.3916,0.351562 -0.32227,0 -0.62989,-0.07324 -0.96679,-0.249023 -1.52343,-1.333008 z m 1.47949,-2.666015 q 0.57129,-0.424805 0.92285,-1.12793 0.16113,-0.336914 0.16113,-0.556641 0,-0.131836 -0.0586,-0.219726 -0.10254,-0.175782 -0.30762,-0.175782 -0.10254,0 -0.21972,0.04395 -0.35157,0.117187 -0.70313,0.673828 -0.0879,0.175781 -0.19043,0.439453 -0.10254,0.249023 -0.17578,0.498047 -0.10254,0.322266 -0.10254,0.498047 0,0.117187 0.0439,0.175781 0.0293,0.04395 0.0879,0.04395 0.16113,0 0.54199,-0.292968 z" />
      <path
         id="path44"
         style="font-family:'Violet Twinkle'"
         d="m 293.62305,90.463867 q 0.57129,-1.669922 1.17187,-1.992187 0.60059,-0.336914 0.92285,-0.336914 0.57129,0 1.15723,0.527343 0.57129,0.556641 0.77637,1.508789 0.0586,0.292969 0.11718,0.424805 0.0586,0.117188 0.16114,0.146484 0.38086,0.08789 0.68847,1.391602 0.55664,2.109375 1.27442,2.475586 0.0879,0.0293 0.17578,0.0293 0.57129,0 1.3623,-1.538086 0.41016,-1.054688 0.62989,-1.625977 0.21972,-0.585937 0.27832,-0.761718 0.14648,-0.38086 0.33691,-0.307618 0.20508,0.05859 -0.0439,0.878907 -0.38086,1.435547 -0.4834,1.68457 -0.80567,2.182617 -1.77246,2.504883 -0.17578,0.05859 -0.36621,0.05859 -0.57129,0 -1.11329,-0.556641 -0.70312,-0.732422 -1.11328,-2.15332 -0.0439,-0.175782 -0.0879,-0.336914 -0.0879,-0.322266 -0.11719,-0.395508 0,-0.04395 -0.0293,-0.04395 -0.0439,0 -0.19043,0.219727 -0.20508,0.307617 -0.71778,1.230469 -0.79101,1.450195 -1.25976,2.124023 -0.58594,0.805664 -0.86426,0.878906 -0.26367,0.05859 -0.36621,0.05859 -0.32227,0 -0.55664,-0.27832 -0.29297,-0.366211 -0.43945,-0.996094 -0.14649,-0.673828 -0.14649,-1.391601 0,-0.512696 0.0732,-1.054688 0.16114,-1.303711 0.542,-2.373047 z m 1.80175,2.856445 q 0.38086,-0.585937 0.74707,-1.113281 0.36622,-0.541992 0.542,-0.791015 l 0.3955,-0.541993 -0.19042,-0.380859 q -0.10254,-0.219727 -0.29297,-0.454102 -0.19043,-0.234375 -0.39551,-0.395507 -0.19043,-0.175782 -0.29297,-0.175782 -0.32227,0 -0.71777,0.996094 -0.38086,0.996094 -0.62989,2.402344 -0.0439,0.366211 -0.0879,0.791016 -0.0293,0.410156 -0.0293,0.717773 0,0.307617 0.0293,0.307617 0.0293,-0.01465 0.27832,-0.395508 0.26368,-0.380859 0.64453,-0.966797 z" />
    </g>
  </g>
</svg>
