<?xml version="1.0" encoding="UTF-8" standalone="no"?>
<svg
   xmlns:dc="http://purl.org/dc/elements/1.1/"
   xmlns:cc="http://creativecommons.org/ns#"
   xmlns:rdf="http://www.w3.org/1999/02/22-rdf-syntax-ns#"
   xmlns:svg="http://www.w3.org/2000/svg"
   xmlns="http://www.w3.org/2000/svg"
   id="svg16"
   width="800px"
   version="1.1"
   height="200px">
  <metadata
     id="metadata20">
    <rdf:RDF>
      <cc:Work
         rdf:about="">
        <dc:format>image/svg+xml</dc:format>
        <dc:type
           rdf:resource="http://purl.org/dc/dcmitype/StillImage" />
      </cc:Work>
    </rdf:RDF>
  </metadata>
  <defs
     id="defs4">
    <style
       id="style2"
       type="text/css"><![CDATA[    
     @font-face {font-family:VTC-BadEnglischOne;
     src: url('/Users/francesco/Repos/write-logos/src/fonts/VTC-BadEnglischOne.ttf');}
     @font-face {font-family:Modeccio;
     src: url('/Users/francesco/Repos/write-logos/src/fonts/Modeccio.ttf');}
     ]]></style>
  </defs>
  <g
     id="g14"
     style="font-size:60px">
    <g
       style="text-anchor:middle"
       id="text12"
       aria-label="eXtemporanea">
      <path
         id="path22"
         style="font-family:VTC-BadEnglischOne"
         d="m 231.53453,83.08 q 1.08,1.14 1.68,2.7 0.6,1.56 0.6,3.18 0,0.78 -0.06,1.5 -0.06,0.66 -0.3,1.32 -0.84,2.46 -2.16,3.66 -1.32,1.2 -2.94,1.74 -1.62,0.48 -3.42,0.6 -1.74,0.06 -3.48,0.3 -1.74,0.18 -3.36,0.84 -1.56,0.66 -2.76,2.28 -0.06,0.06 -0.12,0.06 -0.18,0 -0.6,-0.24 -0.36,-0.24 -0.78,-0.6 -0.42,-0.3 -0.78,-0.6 -0.3,-0.3 -0.36,-0.42 -2.22,-3.24 -3.24,-7.2 -0.96,-4.02 -0.96,-8.28 0,-1.08 0.06,-2.16 0.06,-1.08 0.24,-2.22 -0.66,0 -1.56,0.48 -0.84,0.42 -1.62,1.14 -0.78,0.72 -1.32,1.68 -0.54,0.96 -0.54,1.98 0,0.9 0.54,1.8 -1.2,-0.9 -1.68,-1.86 -0.48,-0.96 -0.48,-1.98 0,-1.14 0.6,-2.22 0.66,-1.14 1.68,-2.04 1.02,-0.9 2.28,-1.56 1.32,-0.66 2.7,-0.9 0.48,-2.04 1.26,-4.38 0.78,-2.34 1.86,-4.02 -0.84,-0.84 -2.28,-1.32 -1.44,-0.48 -2.88,-0.48 -0.9,0 -1.68,0.3 -0.78,0.24 -1.26,0.78 0.24,-1.44 1.68,-2.46 1.44,-1.02 3.54,-1.02 2.58,0 5.22,1.68 0.72,-0.48 1.44,-0.78 0.78,-0.36 1.68,-0.48 -0.06,-0.24 -0.18,-0.48 -0.06,-0.24 -0.06,-0.48 0,-0.06 0.06,-0.06 0.06,0 0.12,0.18 0.12,0.18 0.24,0.36 0.12,0.24 0.3,0.48 0.24,0 0.66,0.24 0.48,0.24 0.9,0.6 0.42,0.3 0.72,0.6 0.3,0.3 0.3,0.48 -0.12,0 -0.36,0.06 -0.18,0 -0.48,0.06 l -0.72,0.12 q 0.18,0.84 0.72,1.5 0.6,0.6 1.32,1.08 0.78,0.48 1.62,0.72 0.9,0.24 1.8,0.24 2.46,0 3.66,-1.14 1.2,-1.2 1.2,-2.76 0,-1.2 -0.84,-2.4 -0.78,-1.26 -2.34,-1.98 0.96,0.24 1.92,0.84 0.96,0.6 1.74,1.44 0.78,0.84 1.26,1.86 0.48,1.02 0.48,2.16 0,1.32 -0.6,2.28 -0.54,0.96 -1.44,1.62 -0.84,0.6 -1.8,0.9 -0.96,0.3 -1.68,0.3 -2.7,0 -4.62,-1.86 -1.86,-1.92 -2.94,-4.68 -1.2,0.54 -2.16,1.56 -0.96,0.96 -1.8,2.28 -0.78,1.32 -1.44,2.82 -0.6,1.44 -1.02,2.94 2.58,0.06 4.14,0.48 1.56,0.36 2.34,0.96 0.84,0.6 1.08,1.26 0.24,0.6 0.24,1.14 0,0.18 -0.06,0.36 0,0.18 0,0.3 -0.06,0.18 -0.06,0.24 0,-0.72 -0.42,-1.2 -0.42,-0.48 -1.08,-0.78 -0.66,-0.3 -1.5,-0.42 -0.78,-0.12 -1.62,-0.12 -1.32,0 -2.4,0.24 -1.08,0.18 -1.38,0.42 -0.18,2.28 -0.36,4.26 -0.18,1.98 -0.18,3.9 0,2.64 0.48,5.34 0.54,2.64 1.92,6.06 1.62,-1.44 3.42,-1.74 1.8,-0.3 3.66,-0.36 1.92,-0.06 3.72,-0.3 1.86,-0.3 3.48,-1.68 1.38,-1.2 2.28,-3.06 0.96,-1.92 0.96,-4.02 0,-1.5 -0.36,-2.58 -0.36,-1.08 -0.96,-1.74 -0.6,-0.66 -1.38,-0.96 -0.78,-0.3 -1.56,-0.3 -1.74,0 -3.12,1.08 -1.32,1.02 -1.32,3.42 0,0.84 0.18,1.68 0.24,0.84 0.72,1.5 0.48,0.66 1.26,1.08 0.78,0.42 1.92,0.42 0.3,0 0.6,0 0.36,0 0.72,-0.12 -1.08,0.54 -2.16,0.54 -1.26,0 -2.4,-0.6 -1.14,-0.6 -2.04,-1.56 -0.84,-0.96 -1.38,-2.1 -0.48,-1.2 -0.48,-2.4 0,-1.8 1.5,-3.12 1.5,-1.38 5.04,-1.38 1.32,0 2.88,1.02 1.56,0.96 2.7,2.16 z" />
      <path
         id="path24"
         style="font-family:Modeccio"
         d="M 272.4707,100 257.06055,84.589844 241.65039,100 Z m -30.55664,-42.070313 15.14649,15.146485 15.11718,-15.146485 z m -6.09375,36.5625 15.26367,-15.263671 -15.26367,-15.263672 z" />
      <path
         id="path26"
         style="font-family:VTC-BadEnglischOne"
         d="m 302.52859,62.56 q 0.84,-0.3 1.5,-0.42 0.72,-0.18 1.26,-0.18 1.62,0 2.46,0.78 0.9,0.72 0.9,1.56 0,0.96 -0.66,2.04 -0.66,1.08 -1.92,2.16 -1.26,1.08 -3.06,1.98 -1.74,0.9 -3.9,1.5 -0.18,0.06 -0.48,0.06 -0.9,0 -1.8,-0.36 -0.84,-0.36 -1.68,-0.9 -0.78,-0.54 -1.56,-1.2 -0.72,-0.66 -1.38,-1.2 -1.08,1.56 -1.92,3.78 -0.84,2.16 -1.44,4.62 -0.54,2.46 -0.84,4.98 -0.24,2.52 -0.24,4.68 0,1.56 0.24,3.96 0.3,2.4 0.96,4.68 0.66,2.28 1.74,3.9 1.08,1.62 2.64,1.62 1.02,0 2.04,-0.72 1.02,-0.72 1.8,-1.92 0.84,-1.2 1.32,-2.76 0.54,-1.62 0.54,-3.36 0,-2.64 -1.32,-5.1 2.28,1.2 3.24,2.82 1.02,1.56 1.02,3.24 0,1.68 -0.78,3.3 -0.78,1.56 -1.98,2.82 -1.2,1.2 -2.64,1.92 -1.44,0.78 -2.76,0.78 -1.68,0 -2.94,-0.72 -1.26,-0.72 -2.22,-1.8 -0.9,-1.14 -1.56,-2.46 -0.66,-1.38 -1.14,-2.64 -0.42,-1.26 -0.72,-2.22 -0.24,-1.02 -0.42,-1.5 -0.3,-0.72 -0.84,-1.38 -0.54,-0.72 -1.26,-1.26 -0.66,-0.6 -1.44,-0.9 -0.78,-0.36 -1.5,-0.36 -0.12,0 -0.24,0.06 -0.06,0 -0.18,0 0.18,-0.3 0.9,-0.54 0.78,-0.24 1.8,-0.24 0.84,0 1.56,0.24 0.78,0.18 1.26,0.72 0,-0.36 -0.06,-0.66 0,-0.36 0,-0.72 0,-3 0.66,-6.54 0.72,-3.54 1.56,-6.6 0.24,-0.72 0.6,-1.56 0.36,-0.9 0.72,-1.74 0.42,-0.84 0.78,-1.44 0.36,-0.6 0.6,-0.78 -1.14,-1.38 -2.52,-1.98 -1.32,-0.66 -2.7,-0.66 -2.28,0 -3.96,1.92 -1.68,1.86 -1.68,5.76 0,2.52 0.78,3.72 0.78,1.2 1.68,1.2 0.84,0 1.32,-0.72 0.48,-0.78 0.48,-1.8 0,-1.02 -0.6,-1.92 -0.54,-0.9 -1.86,-1.32 2.34,0.48 3.42,1.74 1.08,1.26 1.08,2.64 0,1.56 -1.2,2.82 -1.2,1.2 -3.24,1.2 -2.04,0 -3.24,-1.38 -1.2,-1.44 -1.2,-4.14 0,-2.4 0.72,-4.5 0.72,-2.16 1.98,-3.72 1.26,-1.56 2.94,-2.46 1.74,-0.9 3.72,-0.9 2.22,0 4.26,1.02 1.32,0.66 2.58,1.86 1.32,1.2 2.58,2.46 1.26,1.2 2.52,2.1 1.26,0.9 2.64,0.9 0.84,0 1.74,-0.48 0.96,-0.54 1.68,-1.32 0.78,-0.78 1.26,-1.68 0.54,-0.9 0.54,-1.68 0,-1.26 -0.72,-1.98 -0.66,-0.72 -2.22,-0.72 z" />
      <path
         id="path28"
         style="font-family:VTC-BadEnglischOne"
         d="m 338.40953,83.08 q 1.08,1.14 1.68,2.7 0.6,1.56 0.6,3.18 0,0.78 -0.06,1.5 -0.06,0.66 -0.3,1.32 -0.84,2.46 -2.16,3.66 -1.32,1.2 -2.94,1.74 -1.62,0.48 -3.42,0.6 -1.74,0.06 -3.48,0.3 -1.74,0.18 -3.36,0.84 -1.56,0.66 -2.76,2.28 -0.06,0.06 -0.12,0.06 -0.18,0 -0.6,-0.24 -0.36,-0.24 -0.78,-0.6 -0.42,-0.3 -0.78,-0.6 -0.3,-0.3 -0.36,-0.42 -2.22,-3.24 -3.24,-7.2 -0.96,-4.02 -0.96,-8.28 0,-1.08 0.06,-2.16 0.06,-1.08 0.24,-2.22 -0.66,0 -1.56,0.48 -0.84,0.42 -1.62,1.14 -0.78,0.72 -1.32,1.68 -0.54,0.96 -0.54,1.98 0,0.9 0.54,1.8 -1.2,-0.9 -1.68,-1.86 -0.48,-0.96 -0.48,-1.98 0,-1.14 0.6,-2.22 0.66,-1.14 1.68,-2.04 1.02,-0.9 2.28,-1.56 1.32,-0.66 2.7,-0.9 0.48,-2.04 1.26,-4.38 0.78,-2.34 1.86,-4.02 -0.84,-0.84 -2.28,-1.32 -1.44,-0.48 -2.88,-0.48 -0.9,0 -1.68,0.3 -0.78,0.24 -1.26,0.78 0.24,-1.44 1.68,-2.46 1.44,-1.02 3.54,-1.02 2.58,0 5.22,1.68 0.72,-0.48 1.44,-0.78 0.78,-0.36 1.68,-0.48 -0.06,-0.24 -0.18,-0.48 -0.06,-0.24 -0.06,-0.48 0,-0.06 0.06,-0.06 0.06,0 0.12,0.18 0.12,0.18 0.24,0.36 0.12,0.24 0.3,0.48 0.24,0 0.66,0.24 0.48,0.24 0.9,0.6 0.42,0.3 0.72,0.6 0.3,0.3 0.3,0.48 -0.12,0 -0.36,0.06 -0.18,0 -0.48,0.06 l -0.72,0.12 q 0.18,0.84 0.72,1.5 0.6,0.6 1.32,1.08 0.78,0.48 1.62,0.72 0.9,0.24 1.8,0.24 2.46,0 3.66,-1.14 1.2,-1.2 1.2,-2.76 0,-1.2 -0.84,-2.4 -0.78,-1.26 -2.34,-1.98 0.96,0.24 1.92,0.84 0.96,0.6 1.74,1.44 0.78,0.84 1.26,1.86 0.48,1.02 0.48,2.16 0,1.32 -0.6,2.28 -0.54,0.96 -1.44,1.62 -0.84,0.6 -1.8,0.9 -0.96,0.3 -1.68,0.3 -2.7,0 -4.62,-1.86 -1.86,-1.92 -2.94,-4.68 -1.2,0.54 -2.16,1.56 -0.96,0.96 -1.8,2.28 -0.78,1.32 -1.44,2.82 -0.6,1.44 -1.02,2.94 2.58,0.06 4.14,0.48 1.56,0.36 2.34,0.96 0.84,0.6 1.08,1.26 0.24,0.6 0.24,1.14 0,0.18 -0.06,0.36 0,0.18 0,0.3 -0.06,0.18 -0.06,0.24 0,-0.72 -0.42,-1.2 -0.42,-0.48 -1.08,-0.78 -0.66,-0.3 -1.5,-0.42 -0.78,-0.12 -1.62,-0.12 -1.32,0 -2.4,0.24 -1.08,0.18 -1.38,0.42 -0.18,2.28 -0.36,4.26 -0.18,1.98 -0.18,3.9 0,2.64 0.48,5.34 0.54,2.64 1.92,6.06 1.62,-1.44 3.42,-1.74 1.8,-0.3 3.66,-0.36 1.92,-0.06 3.72,-0.3 1.86,-0.3 3.48,-1.68 1.38,-1.2 2.28,-3.06 0.96,-1.92 0.96,-4.02 0,-1.5 -0.36,-2.58 -0.36,-1.08 -0.96,-1.74 -0.6,-0.66 -1.38,-0.96 -0.78,-0.3 -1.56,-0.3 -1.74,0 -3.12,1.08 -1.32,1.02 -1.32,3.42 0,0.84 0.18,1.68 0.24,0.84 0.72,1.5 0.48,0.66 1.26,1.08 0.78,0.42 1.92,0.42 0.3,0 0.6,0 0.36,0 0.72,-0.12 -1.08,0.54 -2.16,0.54 -1.26,0 -2.4,-0.6 -1.14,-0.6 -2.04,-1.56 -0.84,-0.96 -1.38,-2.1 -0.48,-1.2 -0.48,-2.4 0,-1.8 1.5,-3.12 1.5,-1.38 5.04,-1.38 1.32,0 2.88,1.02 1.56,0.96 2.7,2.16 z" />
      <path
         id="path30"
         style="font-family:VTC-BadEnglischOne"
         d="m 367.59859,88.54 q 0,-5.1 0.12,-10.02 0.12,-4.92 0.12,-9.42 -0.6,0.54 -1.26,1.98 -0.66,1.44 -1.44,3.36 -0.78,1.86 -1.68,3.9 -0.84,2.04 -1.8,3.84 -0.9,1.74 -1.98,3 -1.02,1.2 -2.1,1.38 0.06,0.54 0.3,2.1 0.3,1.56 0.9,3.24 0.66,1.62 1.74,2.94 1.08,1.32 2.76,1.32 -0.3,0.24 -0.72,0.3 -0.36,0.06 -0.78,0.06 -1.8,-0.06 -3.18,-0.96 -1.38,-0.96 -2.34,-2.46 -0.96,-1.5 -1.56,-3.42 -0.54,-1.98 -0.78,-4.14 -0.24,-2.22 -0.54,-4.26 -0.3,-2.1 -0.78,-3.84 -0.42,-1.8 -1.02,-3.18 -0.54,-1.38 -1.26,-2.28 -0.06,2.58 -0.06,5.64 0,3 0,6.06 0,3.06 0,5.88 0,2.76 -0.06,4.8 0.48,0 1.02,1.02 0.6,0.96 1.32,2.16 0.72,1.14 1.68,2.16 0.96,0.96 2.34,0.96 0.54,0 1.14,-0.24 0.66,-0.18 1.38,-0.72 0.18,-0.18 0.3,-0.18 v 0.06 q 0,0.12 -0.48,0.54 -0.42,0.48 -1.14,0.96 -0.72,0.54 -1.62,0.96 -0.9,0.42 -1.8,0.42 -1.56,0 -2.4,-0.96 -0.84,-0.9 -1.56,-2.04 -0.66,-1.14 -1.56,-2.04 -0.84,-0.96 -2.4,-0.96 -0.9,0 -1.74,0.48 -0.84,0.48 -1.5,1.26 -0.6,0.78 -1.02,1.68 -0.36,0.9 -0.36,1.68 0,0.84 0.48,1.56 0.54,0.72 1.74,0.72 0.66,0 1.2,-0.36 0.54,-0.36 0.9,-0.9 0.36,-0.54 0.54,-1.14 0.24,-0.54 0.24,-0.9 0.36,0 0.72,0.72 0.42,0.72 0.42,1.38 0,0.66 -0.3,1.38 -0.24,0.72 -0.72,1.32 -0.48,0.6 -1.14,0.96 -0.6,0.36 -1.32,0.36 -0.66,0 -1.5,-0.66 -0.84,-0.66 -1.62,-1.68 -0.72,-0.96 -1.26,-2.22 -0.48,-1.2 -0.48,-2.34 0,-1.38 0.54,-2.58 0.6,-1.26 1.5,-2.16 0.96,-0.9 2.04,-1.38 1.14,-0.54 2.22,-0.54 0.18,0 0.42,0 0.24,0 0.42,0.06 0,-4.32 0.06,-8.16 0.06,-3.9 0.06,-7.86 0,-2.34 -0.06,-4.74 0,-2.46 -0.06,-4.98 -0.78,-0.48 -1.5,-0.48 -0.84,0 -1.62,0.42 -0.78,0.42 -1.38,1.14 -0.6,0.66 -0.96,1.56 -0.36,0.9 -0.36,1.8 0,0.66 0.3,1.26 0.36,0.54 1.26,0.54 0.9,0 1.56,-1.02 0.72,-1.08 1.08,-2.7 0.3,0.78 0.48,1.68 0.24,0.84 0.24,1.68 0,1.32 -0.66,2.28 -0.6,0.96 -2.28,0.96 -0.72,0 -1.26,-0.48 -0.54,-0.48 -0.9,-1.26 -0.36,-0.84 -0.6,-1.86 -0.18,-1.08 -0.18,-2.22 0,-0.9 0.42,-2.1 0.42,-1.26 1.2,-2.34 0.84,-1.14 1.98,-1.86 1.2,-0.78 2.7,-0.78 1.08,0 2.1,0.48 1.02,0.48 1.98,1.86 1.14,1.74 2.16,3.9 1.08,2.16 1.92,4.56 0.84,2.4 1.44,4.86 0.6,2.46 0.9,4.74 1.2,-0.54 2.22,-2.46 1.08,-1.98 2.1,-4.56 1.08,-2.64 2.22,-5.46 1.14,-2.88 2.52,-5.28 1.44,-2.46 3.12,-4.02 1.74,-1.56 3.96,-1.56 1.56,0 2.7,1.08 1.14,1.08 1.14,2.52 -0.42,-0.72 -1.2,-1.08 -0.78,-0.42 -1.62,-0.54 -0.78,-0.12 -1.5,0.12 -0.72,0.18 -1.02,0.72 0,0.9 -0.12,3.42 -0.06,2.46 -0.18,5.88 -0.06,3.36 -0.18,7.32 -0.06,3.96 -0.06,7.8 0,2.1 0.12,4.02 0.18,1.86 0.6,3.36 0.48,1.5 1.2,2.46 0.72,0.96 1.92,1.14 1.02,-0.36 1.44,-1.26 0.48,-0.9 0.48,-1.92 0,-0.96 -0.3,-1.98 -0.24,-1.02 -0.72,-1.8 -0.42,-0.84 -0.96,-1.32 -0.54,-0.54 -1.02,-0.54 -0.12,0 -0.18,0.06 -0.06,0 -0.12,0 0,-0.12 0.48,-0.12 0.48,-0.06 0.84,-0.06 1.8,0 3.24,1.26 1.5,1.2 1.5,3.54 0,1.02 -0.3,1.98 -0.24,0.96 -0.78,1.74 -0.54,0.72 -1.32,1.2 -0.72,0.48 -1.68,0.48 -1.86,0 -3.36,-1.08 -1.44,-1.08 -2.46,-2.76 -0.96,-1.74 -1.5,-3.78 -0.48,-2.04 -0.48,-4.02 z" />
      <path
         id="path32"
         style="font-family:VTC-BadEnglischOne"
         d="m 378.26359,68.56 q -1.08,-0.3 -1.62,-1.02 -0.54,-0.78 -0.54,-1.74 0,-0.78 0.36,-1.56 0.36,-0.84 1.02,-1.5 0.66,-0.72 1.68,-1.14 1.02,-0.42 2.28,-0.42 1.02,0 1.86,0.18 0.9,0.12 1.62,0.6 0.72,0.42 1.32,1.32 0.6,0.9 1.14,2.4 0.12,0.48 0.42,0.48 0.36,-0.06 0.78,-0.06 2.16,0 4.5,-0.78 2.34,-0.84 4.26,-1.8 1.98,-1.02 3.24,-1.86 1.32,-0.84 1.44,-0.84 -0.18,1.56 -0.36,3.18 -0.12,1.56 -0.12,3.18 0,3.24 0.6,6.3 0.66,3 2.4,5.52 0.24,0.36 0.24,0.6 v 0.06 q -0.36,2.34 -1.32,3.96 -0.96,1.62 -2.28,2.64 -1.26,1.02 -2.82,1.5 -1.56,0.42 -3.12,0.42 -1.08,0 -2.34,-0.06 -1.26,-0.12 -2.46,-0.36 -1.2,-0.24 -2.22,-0.66 -0.96,-0.42 -1.56,-1.02 0,0.84 0,2.34 0,1.44 0,3.12 0.06,1.62 0.06,3.3 0,1.62 0,2.7 0,0.12 0.78,0.24 0.84,0.12 1.98,0.78 1.14,0.66 2.34,2.16 1.26,1.5 2.04,4.38 -0.6,-0.96 -1.68,-1.8 -1.02,-0.78 -2.28,-1.38 -1.26,-0.6 -2.7,-0.96 -1.38,-0.3 -2.7,-0.3 -1.2,0 -2.34,0.3 -1.08,0.3 -1.92,0.96 -0.84,0.72 -1.38,1.8 -0.48,1.14 -0.48,2.76 0,0.84 0.54,0.96 0.6,0.12 1.08,0.12 0.78,0 1.44,-0.36 0.66,-0.3 1.08,-0.78 0.48,-0.48 0.72,-1.02 0.24,-0.48 0.24,-0.9 0.36,0 0.78,0.66 0.42,0.72 0.42,1.38 0,0.66 -0.3,1.32 -0.24,0.66 -0.78,1.2 -0.48,0.6 -1.14,0.96 -0.66,0.36 -1.38,0.36 -0.66,0 -1.56,-0.66 -0.84,-0.6 -1.62,-1.56 -0.72,-0.96 -1.26,-2.16 -0.48,-1.14 -0.48,-2.22 0,-1.32 0.6,-2.52 0.6,-1.14 1.5,-1.98 0.96,-0.9 2.1,-1.38 1.14,-0.48 2.22,-0.48 0.18,0 0.42,0 0.24,0 0.42,0.06 0,-0.66 0,-1.68 0,-1.02 -0.06,-2.22 0,-1.2 0,-2.52 0,-1.32 0,-2.52 0,-1.2 0,-2.22 0,-1.02 0.06,-1.68 -1.5,-1.02 -2.28,-2.22 -0.72,-1.26 -0.72,-2.46 0,-1.2 0.72,-2.22 0.72,-1.02 2.28,-1.74 0,-1.08 0,-2.1 0.06,-1.02 0.06,-1.86 0,-0.48 0,-0.84 0,-0.42 -0.06,-0.78 -0.3,0.06 -0.84,0.06 -1.02,0 -2.16,-0.18 -1.08,-0.24 -1.26,-0.42 h 0.3 q 0.54,0 1.2,-0.18 0.72,-0.24 1.32,-0.66 0.66,-0.48 1.08,-1.14 0.42,-0.66 0.42,-1.5 0,-1.14 -0.6,-1.74 -0.6,-0.66 -2.16,-0.66 -1.08,0 -2.1,0.78 -1.02,0.78 -1.02,2.22 0,0.9 0.66,1.56 z m 16.74,17.28 q 1.08,0 2.22,-0.36 1.2,-0.36 2.1,-1.02 0.96,-0.66 1.56,-1.5 0.6,-0.9 0.6,-1.98 0,-0.6 -0.48,-1.86 -0.48,-1.32 -1.08,-2.94 -0.54,-1.68 -1.02,-3.66 -0.48,-1.98 -0.48,-4.08 0,-1.5 0.36,-2.88 -1.02,0.54 -2.4,1.08 -1.38,0.54 -2.88,0.96 -1.44,0.42 -2.88,0.72 -1.38,0.24 -2.4,0.24 -0.66,0 -0.96,-0.06 -0.12,1.62 -0.18,3.18 0,1.5 -0.12,3.6 0.48,-0.06 0.96,-0.06 0.48,0 0.96,0 1.02,0 2.16,0.12 1.2,0.12 2.28,0.48 1.14,0.3 2.04,0.96 0.9,0.6 1.38,1.68 -0.3,0.3 -1.08,0.72 -0.78,0.36 -1.74,0.72 -0.9,0.3 -1.86,0.54 -0.9,0.24 -1.44,0.24 -0.36,0 -0.48,-0.06 0.42,-0.66 0.42,-1.32 0,-1.08 -0.96,-1.8 -0.9,-0.78 -2.28,-0.78 -0.42,0 -0.54,0.24 -0.06,0.18 -0.06,1.2 0,0.6 0,1.44 0,0.84 0,1.68 0.06,0.78 0.06,1.5 0,0.66 0,0.9 0.6,0.66 1.62,1.08 1.02,0.42 2.16,0.66 1.2,0.24 2.34,0.36 1.2,0.06 2.1,0.06 z m -11.88,-4.08 q 0.12,0 0.18,-0.96 0.06,-0.96 0.06,-1.98 0,-0.66 0,-1.08 0,-0.48 -0.06,-0.6 -0.66,0.3 -0.96,1.08 -0.3,0.72 -0.3,1.2 0,0.72 0.36,1.38 0.36,0.66 0.72,0.96 z" />
      <path
         id="path34"
         style="font-family:VTC-BadEnglischOne"
         d="m 430.62859,78.04 q 0.18,1.98 0.18,3.84 0,2.7 -0.72,6 -0.72,3.24 -2.22,6.06 -1.44,2.76 -3.78,4.68 -2.34,1.86 -5.64,1.86 -1.98,0 -3.66,-0.96 -1.62,-0.96 -2.82,-2.46 -1.2,-1.5 -1.98,-3.36 -0.78,-1.86 -1.02,-3.66 -0.72,0.24 -1.5,0.66 -0.72,0.42 -1.38,1.02 -0.66,0.54 -1.14,1.2 -0.48,0.66 -0.54,1.44 0.36,0.36 0.84,0.6 0.54,0.24 1.08,0.24 0.6,-0.06 1.2,-0.48 0.6,-0.42 1.08,-1.32 0.18,-0.3 0.12,0.36 -0.06,0.66 -0.36,1.56 -0.24,0.9 -0.72,1.74 -0.48,0.78 -1.2,0.78 -0.6,0 -1.2,-0.54 -0.54,-0.6 -1.02,-1.5 -0.48,-0.9 -0.78,-1.98 -0.3,-1.08 -0.3,-2.1 0,-0.78 0.42,-1.5 0.36,-0.78 1.02,-1.38 0.66,-0.66 1.5,-1.08 0.84,-0.42 1.74,-0.54 -0.36,-1.38 -0.48,-3.12 -0.06,-1.8 -0.06,-3.42 0,-0.6 0.12,-2.34 0.12,-1.8 0.48,-4.08 0.42,-2.28 1.2,-4.74 0.78,-2.52 2.04,-4.62 1.32,-2.1 3.24,-3.42 1.98,-1.38 4.74,-1.38 0.3,0 1.14,0.12 0.9,0.06 2.04,0.54 1.14,0.48 2.4,1.56 1.32,1.08 2.4,3.12 -0.66,-0.42 -1.14,-0.84 -0.48,-0.48 -1.08,-0.84 -0.6,-0.36 -1.38,-0.54 -0.78,-0.24 -1.98,-0.24 -2.64,0 -4.56,1.14 -1.92,1.08 -3.3,2.88 -1.38,1.74 -2.28,3.96 -0.84,2.22 -1.32,4.56 -0.48,2.28 -0.66,4.44 -0.18,2.1 -0.18,3.66 0,0.66 -0.06,1.56 0,0.9 0.12,1.56 1.56,-0.24 3.6,-0.3 2.1,-0.06 3.96,0.36 v -0.66 -5.7 q 0,-1.98 0.06,-3.9 0.06,-1.98 0.3,-3.9 -0.24,0.06 -0.54,0.18 -0.3,0.12 -0.54,0.18 -0.12,0 -0.12,-0.06 h 0.06 q -0.72,-0.66 -1.5,-1.02 -0.78,-0.36 -1.74,-0.6 0.18,-0.06 1.02,-0.72 0.84,-0.72 1.8,-0.78 0.48,0 1.02,0.24 0.6,0.24 0.9,0.48 0.12,-0.72 0.72,-1.38 0.6,-0.72 1.44,-1.2 0.84,-0.54 1.74,-0.84 0.9,-0.36 1.68,-0.36 1.32,0 2.58,1.14 1.26,1.14 2.28,2.88 1.08,1.68 1.74,3.66 0.72,1.98 0.9,3.6 z m -3.18,10.68 q 0.66,-2.34 1.02,-4.8 0.42,-2.52 0.42,-5.16 0,-1.44 -0.12,-3.12 -0.06,-1.68 -0.54,-3.06 -0.48,-1.44 -1.44,-2.34 -0.96,-0.96 -2.64,-0.96 -1.38,0 -2.22,1.14 -0.84,1.08 -1.32,2.88 -0.42,1.74 -0.6,3.9 -0.12,2.16 -0.12,4.26 0,1.68 0,3.06 0.06,1.38 0.06,2.46 l 0.24,0.54 q 0.54,0.3 1.56,1.38 1.02,1.02 1.5,2.94 0,0.12 0.06,0.36 0.12,0.18 0,0.12 -0.84,-1.02 -2.04,-1.56 -1.14,-0.54 -2.58,-0.78 -1.38,-0.3 -3,-0.36 -1.62,-0.06 -3.3,-0.06 -1.56,0 -2.46,0.24 0.36,1.44 1.14,2.76 0.84,1.26 1.98,2.28 1.14,1.02 2.52,1.62 1.38,0.6 2.88,0.6 1.62,0 3,-0.72 1.44,-0.72 2.58,-1.86 1.14,-1.2 1.98,-2.7 0.9,-1.5 1.44,-3.06 z" />
      <path
         id="path36"
         style="font-family:VTC-BadEnglischOne"
         d="m 455.77328,98.44 q 0.24,-1.32 1.44,-2.22 1.26,-0.9 2.7,-1.08 1.44,-0.18 2.7,0.54 1.32,0.72 1.68,2.7 0.36,1.74 -0.3,3.12 -0.6,1.44 -1.62,2.4 -1.02,1.02 -2.22,1.56 -1.2,0.54 -1.92,0.48 -3,0 -4.38,-1.38 -1.32,-1.32 -1.8,-3.42 -0.42,-2.1 -0.36,-4.68 0.12,-2.58 0.06,-5.04 -0.06,-2.52 -0.6,-4.56 -0.54,-2.1 -2.28,-3.24 -0.78,0.36 -1.92,0.54 -1.14,0.18 -2.4,0.24 -1.2,0 -2.4,-0.12 -1.14,-0.12 -2.04,-0.36 -0.12,0.54 -0.3,1.32 -0.12,0.78 -0.12,1.8 0,1.74 0.24,3.06 0.3,1.32 0.96,1.74 -0.66,0.66 -1.32,0.78 -0.66,0.06 -2.1,0.3 0.6,0.12 1.26,0.6 0.72,0.48 1.44,1.02 0.72,0.48 1.44,0.9 0.78,0.36 1.5,0.36 0.66,0 1.38,-0.3 0.72,-0.3 1.5,-1.08 -0.06,1.2 -0.42,1.98 -0.3,0.78 -0.84,1.26 -0.48,0.42 -1.02,0.6 -0.54,0.18 -1.02,0.18 -0.84,0 -1.62,-0.6 -0.72,-0.6 -1.5,-1.32 -0.72,-0.78 -1.5,-1.38 -0.78,-0.6 -1.68,-0.6 -1.26,0 -2.16,0.54 -0.9,0.48 -1.5,1.32 -0.54,0.78 -0.84,1.74 -0.3,0.96 -0.3,1.86 0,0.96 0.18,1.56 0.24,0.6 0.54,0.9 0.36,0.3 0.72,0.42 0.36,0.12 0.72,0.12 0.84,0 1.56,-0.84 0.78,-0.84 0.78,-1.92 0,-0.48 -0.12,-0.96 -0.12,-0.48 -0.42,-0.84 0.6,0.9 1.14,1.56 0.54,0.66 0.54,1.32 0,1.2 -0.42,1.92 -0.36,0.72 -1.02,1.14 -0.6,0.42 -1.38,0.54 -0.72,0.18 -1.44,0.18 -0.84,0 -1.56,-0.48 -0.72,-0.42 -1.26,-1.2 -0.54,-0.72 -0.84,-1.74 -0.36,-0.96 -0.36,-2.1 0,-3.06 1.8,-4.86 1.8,-1.86 4.86,-1.98 0,-2.1 0.6,-4.5 0.66,-2.46 0.9,-4.62 0.06,-0.18 0.12,-0.24 0.06,-0.06 -0.06,-0.12 -0.42,-0.12 -1.2,-0.78 -0.78,-0.66 -1.74,-1.2 -0.9,-0.6 -1.86,-0.78 -0.9,-0.18 -1.56,0.72 -0.06,0.06 0,0 0,-0.12 0.06,-0.06 -0.12,-0.12 0.12,-0.48 0.42,-0.42 1.44,-0.78 1.02,-0.36 2.58,0.06 0.24,0.06 0.6,0.24 0.36,0.12 0.72,0.24 0.36,0.12 0.66,0.24 0.3,0.06 0.48,0.06 0.18,0 0.3,-0.9 0.18,-0.9 0.24,-2.04 0.12,-1.14 0.18,-2.16 0.06,-1.08 0.06,-1.44 0.06,-3.24 -0.6,-5.7 -0.6,-2.52 -1.86,-3.72 -1.26,-1.2 -3.18,-0.78 -1.86,0.36 -4.32,2.88 1.74,-2.52 3.48,-3.9 1.8,-1.44 3.78,-1.32 1.68,0.12 2.64,1.32 1.02,1.14 1.56,2.64 0.54,1.44 0.72,2.88 0.24,1.44 0.3,2.16 0,0.12 0.12,0.06 0.18,-0.12 0.3,-0.12 1.74,-0.24 3.66,-2.04 1.98,-1.86 5.1,-4.86 1.32,-1.2 3.24,-1.62 1.92,-0.48 3.24,-0.48 0.3,0 1.08,0.12 0.84,0.12 1.14,0.18 -1.5,0.84 -2.22,1.92 -0.66,1.08 -0.9,2.34 -0.18,1.26 -0.06,2.64 0.18,1.32 0.3,2.7 0.18,1.38 0.24,2.82 0.06,1.38 -0.3,2.7 -0.48,1.68 -1.68,3.06 -1.2,1.32 -3.96,2.82 1.8,0.12 2.76,1.08 0.96,0.9 1.32,2.4 0.36,1.5 0.3,3.36 0,1.86 -0.12,3.84 -0.12,1.92 -0.18,3.78 0,1.8 0.3,3.24 0.36,1.44 1.26,2.28 0.9,0.9 2.7,0.9 0.48,0 1.02,-0.24 0.54,-0.18 1.02,-0.66 0.48,-0.48 0.78,-1.2 0.36,-0.66 0.36,-1.68 0,-1.2 -0.66,-2.1 -0.66,-0.9 -1.56,-1.2 -0.9,-0.3 -1.92,0.12 -0.96,0.36 -1.62,1.68 -0.06,0.06 -0.06,-0.06 z m -8.16,-16.74 q 1.56,-0.6 2.58,-1.5 1.02,-0.96 1.62,-2.1 0.6,-1.2 0.84,-2.46 0.24,-1.32 0.24,-2.64 0,-1.08 -0.12,-1.86 -0.12,-0.78 -0.24,-1.56 -0.06,-0.84 -0.06,-1.92 0.06,-1.08 0.42,-2.76 -1.2,0.12 -2.58,1.5 -1.38,1.32 -2.88,2.88 -1.5,1.5 -3.12,2.64 -1.56,1.14 -3.18,0.9 -0.12,2.04 -0.24,4.14 -0.06,2.1 -0.36,4.2 0.48,0.42 1.56,0.6 1.14,0.18 2.28,0.24 1.14,0 2.1,-0.06 0.96,-0.12 1.14,-0.24 z" />
      <path
         id="path38"
         style="font-family:VTC-BadEnglischOne"
         d="m 477.85609,71.44 q -0.12,-0.06 -0.18,-0.3 -0.06,-0.24 -0.18,-0.36 -0.66,-0.72 -1.32,-1.02 -0.66,-0.3 -1.32,-0.3 -0.84,0 -1.62,0.3 -0.72,0.3 -1.32,0.72 -0.6,0.42 -1.02,0.84 -0.42,0.36 -0.48,0.54 1.5,-2.4 3.06,-3.48 1.62,-1.08 3.24,-1.08 1.38,0 2.82,0.66 1.56,-2.7 3.72,-4.26 2.16,-1.62 5.58,-1.62 -1.92,0 -3.36,2.16 -1.38,2.1 -1.38,5.7 0,2.88 0.48,5.64 0.54,2.7 1.2,5.52 1.5,-0.9 3.42,-0.9 1.2,0 2.28,0.6 1.14,0.54 2.1,1.44 0.96,0.9 1.74,2.1 0.84,1.14 1.38,2.34 -0.54,-0.66 -1.14,-1.32 -0.54,-0.72 -1.2,-1.26 -0.6,-0.6 -1.38,-0.96 -0.78,-0.36 -1.86,-0.36 -2.4,0 -4.5,1.44 0.78,2.04 1.44,4.5 0.72,2.46 1.62,4.56 0.96,2.1 2.28,3.54 1.32,1.44 3.3,1.44 0.78,0 1.86,-0.3 h 0.18 q -1.32,1.38 -2.52,1.98 -1.14,0.6 -2.16,0.6 -1.86,0 -3.36,-1.56 -1.44,-1.56 -2.52,-3.78 -1.02,-2.22 -1.68,-4.68 -0.6,-2.46 -0.84,-4.26 -1.92,1.92 -3.06,4.44 -1.14,2.52 -1.14,5.46 0,0.06 -0.06,0.06 -0.06,0 -0.18,-0.12 -0.12,-0.12 -0.18,-0.18 -1.02,-1.02 -1.56,-2.34 -0.48,-1.32 -0.84,-2.7 -0.36,-1.44 -0.78,-2.88 -0.36,-1.44 -1.08,-2.7 -0.66,1.92 -1.56,4.44 -0.84,2.52 -2.04,4.8 -1.2,2.28 -2.82,3.84 -1.62,1.56 -3.66,1.56 -1.2,0 -2.04,-0.9 -0.78,-0.96 -1.26,-2.22 -0.48,-1.26 -0.72,-2.58 -0.18,-1.38 -0.18,-2.22 v -1.26 q 0,0 0.12,0.96 0.18,0.9 0.54,2.04 0.36,1.08 1.02,2.04 0.66,0.9 1.74,0.9 1.86,0 3.3,-1.32 1.5,-1.32 2.64,-3.3 1.14,-1.98 2.04,-4.32 0.9,-2.4 1.56,-4.5 v -0.12 q -2.34,-2.4 -4.98,-2.4 -1.02,0 -1.92,0.42 -0.84,0.42 -1.5,1.14 -0.6,0.72 -0.96,1.68 -0.3,0.96 -0.3,2.04 0,0.66 0.12,1.56 0.12,0.84 0.9,0.84 1.2,0 1.98,-1.08 0.84,-1.14 0.84,-2.34 0,-1.08 -0.66,-1.74 0.36,0 0.78,0.48 0.42,0.48 0.84,1.2 0.42,0.66 0.66,1.38 0.3,0.72 0.3,1.26 0,1.14 -0.66,2.28 -0.66,1.14 -1.92,1.14 -0.72,0 -1.62,-0.66 -0.9,-0.66 -1.74,-1.74 -0.78,-1.08 -1.32,-2.34 -0.54,-1.32 -0.54,-2.58 0,-2.46 1.32,-3.96 1.38,-1.5 3.48,-1.5 2.04,0 3.84,1.44 1.8,1.38 3.18,3.12 1.02,-3 1.86,-5.88 0.84,-2.94 1.86,-5.46 z m 0.48,18.9 q 0.6,-2.28 1.86,-4.2 1.32,-1.98 2.94,-3.36 -0.78,-2.94 -1.32,-5.88 -0.54,-3 -0.54,-6 -1.2,1.8 -2.28,3.66 -1.02,1.86 -1.68,3.96 -0.48,1.5 -0.9,3.06 -0.42,1.5 -0.84,3 0.84,1.32 1.5,2.76 0.72,1.44 1.26,3 z" />
      <path
         id="path40"
         style="font-family:VTC-BadEnglischOne"
         d="m 522.24391,66.28 q 0.78,-2.52 2.28,-4.08 1.5,-1.56 4.2,-1.56 1.68,0 2.64,1.26 0.96,1.2 0.96,2.7 0,1.56 -0.96,2.7 0.12,-0.48 0.12,-0.72 0,-1.02 -0.84,-1.8 -0.78,-0.84 -1.86,-0.84 -0.78,0 -1.62,0.54 -0.78,0.54 -1.44,1.86 -0.66,1.32 -1.08,3.54 -0.42,2.16 -0.42,5.4 0,3.3 0.3,6.48 0.36,3.18 0.36,6.3 0,0.66 -0.06,1.74 -0.06,1.08 -0.18,2.16 -0.06,1.02 -0.24,1.8 -0.12,0.78 -0.24,0.78 -0.12,0 -0.18,0 -0.06,-0.06 -0.18,-0.06 -0.36,0 -0.84,0.12 -0.48,0.12 -0.9,0.36 -0.42,0.18 -0.72,0.42 -0.3,0.24 -0.3,0.48 0,0.06 0.12,0.06 0.36,0.36 0.84,0.84 0.48,0.48 0.96,0.9 0.48,0.42 0.96,0.72 0.54,0.3 1.02,0.3 0.84,0 1.5,-0.54 0.72,-0.6 1.2,-1.44 0.54,-0.9 0.78,-1.92 0.3,-1.08 0.3,-2.04 0,-1.5 -0.72,-2.76 v -0.06 q 1.26,0.96 1.8,2.34 0.54,1.38 0.54,2.88 0,1.2 -0.42,2.4 -0.36,1.2 -1.08,2.22 -0.72,1.02 -1.74,1.62 -0.96,0.66 -2.16,0.66 -0.96,0 -1.98,-0.54 -0.96,-0.54 -1.86,-1.38 -0.84,-0.84 -1.56,-1.8 -0.72,-1.02 -1.2,-1.86 -1.86,-3.24 -2.88,-6.96 -0.96,-3.72 -1.98,-7.38 -0.96,-3.66 -2.4,-7.02 -1.38,-3.42 -4.02,-6.06 -0.06,2.46 -0.12,5.82 0,3.36 0,6.84 0,3.48 0,6.6 0,3.12 -0.06,5.04 1.38,1.08 2.4,2.34 1.08,1.2 1.38,3.06 -1.2,-1.86 -3.18,-3 -1.98,-1.2 -3.9,-1.2 -1.86,0 -3.3,1.38 -1.38,1.38 -1.38,4.68 0,0.84 0.54,0.96 0.54,0.18 1.02,0.18 0.78,0 1.44,-0.36 0.66,-0.3 1.14,-0.78 0.48,-0.48 0.72,-1.02 0.24,-0.54 0.24,-0.96 0.36,0 0.78,0.72 0.42,0.66 0.42,1.26 0,0.66 -0.3,1.32 -0.24,0.72 -0.78,1.26 -0.48,0.6 -1.14,0.96 -0.66,0.36 -1.38,0.36 -0.72,0 -1.56,-0.66 -0.84,-0.6 -1.62,-1.56 -0.72,-0.96 -1.26,-2.16 -0.48,-1.14 -0.48,-2.22 0,-1.62 0.66,-2.82 0.72,-1.2 1.74,-1.92 1.08,-0.78 2.34,-1.14 1.32,-0.42 2.52,-0.42 0,-1.92 0,-3.78 0,-1.86 0.06,-3.66 0,-0.78 -0.9,-1.2 -0.9,-0.48 -1.68,-0.48 -0.66,0 -1.44,0.36 -0.72,0.36 -1.38,0.9 -0.6,0.54 -1.02,1.26 -0.36,0.66 -0.36,1.26 0,0.18 0.12,0.54 -0.18,-0.42 -0.36,-1.02 -0.12,-0.66 -0.12,-1.44 0,-0.84 0.18,-1.68 0.24,-0.9 0.72,-1.56 0.54,-0.72 1.38,-1.14 0.9,-0.48 2.16,-0.48 1.26,0 2.76,0.78 0,-3.36 -0.06,-6.6 0,-3.24 -0.06,-6.66 -0.72,-0.48 -1.56,-0.48 -0.96,0 -1.8,0.6 -0.78,0.6 -1.38,1.44 -0.6,0.84 -0.96,1.8 -0.3,0.9 -0.3,1.5 0,0.78 0.42,0.9 0.48,0.12 0.9,0.12 2.16,0 3,-3.48 0,0.12 0.18,1.08 0.24,0.96 0.24,2.04 0,0.54 -0.12,1.08 -0.12,0.54 -0.42,1.02 -0.3,0.48 -0.84,0.78 -0.54,0.3 -1.32,0.3 -0.72,0 -1.26,-0.48 -0.54,-0.48 -0.96,-1.2 -0.36,-0.78 -0.6,-1.74 -0.18,-1.02 -0.18,-2.1 0,-1.26 0.3,-2.46 0.3,-1.26 0.9,-2.22 0.66,-0.96 1.68,-1.56 1.08,-0.6 2.52,-0.6 2.46,0 4.32,1.38 1.86,1.38 3.24,3.54 1.44,2.1 2.4,4.62 0.96,2.52 1.68,4.8 0.66,2.16 1.2,4.5 0.54,2.28 1.2,4.5 0.66,2.22 1.44,4.26 0.84,1.98 2.04,3.54 0,0.12 0.24,0.24 0.84,-1.32 1.14,-3.42 0.3,-2.1 0.3,-4.68 0,-2.7 -0.18,-5.7 -0.18,-3 -0.18,-5.94 0,-2.52 0.36,-5.16 -0.3,-0.72 -0.84,-1.38 -0.54,-0.72 -1.26,-1.26 -0.66,-0.6 -1.44,-0.9 -0.78,-0.36 -1.5,-0.36 -0.12,0 -0.24,0.06 -0.06,0 -0.18,0 0.18,-0.3 0.9,-0.54 0.78,-0.24 1.8,-0.24 0.84,0 1.86,0.3 1.08,0.24 1.56,0.78 z" />
      <path
         id="path42"
         style="font-family:VTC-BadEnglischOne"
         d="m 560.94859,83.08 q 1.08,1.14 1.68,2.7 0.6,1.56 0.6,3.18 0,0.78 -0.06,1.5 -0.06,0.66 -0.3,1.32 -0.84,2.46 -2.16,3.66 -1.32,1.2 -2.94,1.74 -1.62,0.48 -3.42,0.6 -1.74,0.06 -3.48,0.3 -1.74,0.18 -3.36,0.84 -1.56,0.66 -2.76,2.28 -0.06,0.06 -0.12,0.06 -0.18,0 -0.6,-0.24 -0.36,-0.24 -0.78,-0.6 -0.42,-0.3 -0.78,-0.6 -0.3,-0.3 -0.36,-0.42 -2.22,-3.24 -3.24,-7.2 -0.96,-4.02 -0.96,-8.28 0,-1.08 0.06,-2.16 0.06,-1.08 0.24,-2.22 -0.66,0 -1.56,0.48 -0.84,0.42 -1.62,1.14 -0.78,0.72 -1.32,1.68 -0.54,0.96 -0.54,1.98 0,0.9 0.54,1.8 -1.2,-0.9 -1.68,-1.86 -0.48,-0.96 -0.48,-1.98 0,-1.14 0.6,-2.22 0.66,-1.14 1.68,-2.04 1.02,-0.9 2.28,-1.56 1.32,-0.66 2.7,-0.9 0.48,-2.04 1.26,-4.38 0.78,-2.34 1.86,-4.02 -0.84,-0.84 -2.28,-1.32 -1.44,-0.48 -2.88,-0.48 -0.9,0 -1.68,0.3 -0.78,0.24 -1.26,0.78 0.24,-1.44 1.68,-2.46 1.44,-1.02 3.54,-1.02 2.58,0 5.22,1.68 0.72,-0.48 1.44,-0.78 0.78,-0.36 1.68,-0.48 -0.06,-0.24 -0.18,-0.48 -0.06,-0.24 -0.06,-0.48 0,-0.06 0.06,-0.06 0.06,0 0.12,0.18 0.12,0.18 0.24,0.36 0.12,0.24 0.3,0.48 0.24,0 0.66,0.24 0.48,0.24 0.9,0.6 0.42,0.3 0.72,0.6 0.3,0.3 0.3,0.48 -0.12,0 -0.36,0.06 -0.18,0 -0.48,0.06 l -0.72,0.12 q 0.18,0.84 0.72,1.5 0.6,0.6 1.32,1.08 0.78,0.48 1.62,0.72 0.9,0.24 1.8,0.24 2.46,0 3.66,-1.14 1.2,-1.2 1.2,-2.76 0,-1.2 -0.84,-2.4 -0.78,-1.26 -2.34,-1.98 0.96,0.24 1.92,0.84 0.96,0.6 1.74,1.44 0.78,0.84 1.26,1.86 0.48,1.02 0.48,2.16 0,1.32 -0.6,2.28 -0.54,0.96 -1.44,1.62 -0.84,0.6 -1.8,0.9 -0.96,0.3 -1.68,0.3 -2.7,0 -4.62,-1.86 -1.86,-1.92 -2.94,-4.68 -1.2,0.54 -2.16,1.56 -0.96,0.96 -1.8,2.28 -0.78,1.32 -1.44,2.82 -0.6,1.44 -1.02,2.94 2.58,0.06 4.14,0.48 1.56,0.36 2.34,0.96 0.84,0.6 1.08,1.26 0.24,0.6 0.24,1.14 0,0.18 -0.06,0.36 0,0.18 0,0.3 -0.06,0.18 -0.06,0.24 0,-0.72 -0.42,-1.2 -0.42,-0.48 -1.08,-0.78 -0.66,-0.3 -1.5,-0.42 -0.78,-0.12 -1.62,-0.12 -1.32,0 -2.4,0.24 -1.08,0.18 -1.38,0.42 -0.18,2.28 -0.36,4.26 -0.18,1.98 -0.18,3.9 0,2.64 0.48,5.34 0.54,2.64 1.92,6.06 1.62,-1.44 3.42,-1.74 1.8,-0.3 3.66,-0.36 1.92,-0.06 3.72,-0.3 1.86,-0.3 3.48,-1.68 1.38,-1.2 2.28,-3.06 0.96,-1.92 0.96,-4.02 0,-1.5 -0.36,-2.58 -0.36,-1.08 -0.96,-1.74 -0.6,-0.66 -1.38,-0.96 -0.78,-0.3 -1.56,-0.3 -1.74,0 -3.12,1.08 -1.32,1.02 -1.32,3.42 0,0.84 0.18,1.68 0.24,0.84 0.72,1.5 0.48,0.66 1.26,1.08 0.78,0.42 1.92,0.42 0.3,0 0.6,0 0.36,0 0.72,-0.12 -1.08,0.54 -2.16,0.54 -1.26,0 -2.4,-0.6 -1.14,-0.6 -2.04,-1.56 -0.84,-0.96 -1.38,-2.1 -0.48,-1.2 -0.48,-2.4 0,-1.8 1.5,-3.12 1.5,-1.38 5.04,-1.38 1.32,0 2.88,1.02 1.56,0.96 2.7,2.16 z" />
      <path
         id="path44"
         style="font-family:VTC-BadEnglischOne"
         d="m 579.45766,71.44 q -0.12,-0.06 -0.18,-0.3 -0.06,-0.24 -0.18,-0.36 -0.66,-0.72 -1.32,-1.02 -0.66,-0.3 -1.32,-0.3 -0.84,0 -1.62,0.3 -0.72,0.3 -1.32,0.72 -0.6,0.42 -1.02,0.84 -0.42,0.36 -0.48,0.54 1.5,-2.4 3.06,-3.48 1.62,-1.08 3.24,-1.08 1.38,0 2.82,0.66 1.56,-2.7 3.72,-4.26 2.16,-1.62 5.58,-1.62 -1.92,0 -3.36,2.16 -1.38,2.1 -1.38,5.7 0,2.88 0.48,5.64 0.54,2.7 1.2,5.52 1.5,-0.9 3.42,-0.9 1.2,0 2.28,0.6 1.14,0.54 2.1,1.44 0.96,0.9 1.74,2.1 0.84,1.14 1.38,2.34 -0.54,-0.66 -1.14,-1.32 -0.54,-0.72 -1.2,-1.26 -0.6,-0.6 -1.38,-0.96 -0.78,-0.36 -1.86,-0.36 -2.4,0 -4.5,1.44 0.78,2.04 1.44,4.5 0.72,2.46 1.62,4.56 0.96,2.1 2.28,3.54 1.32,1.44 3.3,1.44 0.78,0 1.86,-0.3 h 0.18 q -1.32,1.38 -2.52,1.98 -1.14,0.6 -2.16,0.6 -1.86,0 -3.36,-1.56 -1.44,-1.56 -2.52,-3.78 -1.02,-2.22 -1.68,-4.68 -0.6,-2.46 -0.84,-4.26 -1.92,1.92 -3.06,4.44 -1.14,2.52 -1.14,5.46 0,0.06 -0.06,0.06 -0.06,0 -0.18,-0.12 -0.12,-0.12 -0.18,-0.18 -1.02,-1.02 -1.56,-2.34 -0.48,-1.32 -0.84,-2.7 -0.36,-1.44 -0.78,-2.88 -0.36,-1.44 -1.08,-2.7 -0.66,1.92 -1.56,4.44 -0.84,2.52 -2.04,4.8 -1.2,2.28 -2.82,3.84 -1.62,1.56 -3.66,1.56 -1.2,0 -2.04,-0.9 -0.78,-0.96 -1.26,-2.22 -0.48,-1.26 -0.72,-2.58 -0.18,-1.38 -0.18,-2.22 v -1.26 q 0,0 0.12,0.96 0.18,0.9 0.54,2.04 0.36,1.08 1.02,2.04 0.66,0.9 1.74,0.9 1.86,0 3.3,-1.32 1.5,-1.32 2.64,-3.3 1.14,-1.98 2.04,-4.32 0.9,-2.4 1.56,-4.5 v -0.12 q -2.34,-2.4 -4.98,-2.4 -1.02,0 -1.92,0.42 -0.84,0.42 -1.5,1.14 -0.6,0.72 -0.96,1.68 -0.3,0.96 -0.3,2.04 0,0.66 0.12,1.56 0.12,0.84 0.9,0.84 1.2,0 1.98,-1.08 0.84,-1.14 0.84,-2.34 0,-1.08 -0.66,-1.74 0.36,0 0.78,0.48 0.42,0.48 0.84,1.2 0.42,0.66 0.66,1.38 0.3,0.72 0.3,1.26 0,1.14 -0.66,2.28 -0.66,1.14 -1.92,1.14 -0.72,0 -1.62,-0.66 -0.9,-0.66 -1.74,-1.74 -0.78,-1.08 -1.32,-2.34 -0.54,-1.32 -0.54,-2.58 0,-2.46 1.32,-3.96 1.38,-1.5 3.48,-1.5 2.04,0 3.84,1.44 1.8,1.38 3.18,3.12 1.02,-3 1.86,-5.88 0.84,-2.94 1.86,-5.46 z m 0.48,18.9 q 0.6,-2.28 1.86,-4.2 1.32,-1.98 2.94,-3.36 -0.78,-2.94 -1.32,-5.88 -0.54,-3 -0.54,-6 -1.2,1.8 -2.28,3.66 -1.02,1.86 -1.68,3.96 -0.48,1.5 -0.9,3.06 -0.42,1.5 -0.84,3 0.84,1.32 1.5,2.76 0.72,1.44 1.26,3 z" />
    </g>
  </g>
</svg>
