<?xml version="1.0" encoding="UTF-8" standalone="no"?>
<svg
   xmlns:dc="http://purl.org/dc/elements/1.1/"
   xmlns:cc="http://creativecommons.org/ns#"
   xmlns:rdf="http://www.w3.org/1999/02/22-rdf-syntax-ns#"
   xmlns:svg="http://www.w3.org/2000/svg"
   xmlns="http://www.w3.org/2000/svg"
   id="svg16"
   width="800px"
   version="1.1"
   height="200px">
  <metadata
     id="metadata20">
    <rdf:RDF>
      <cc:Work
         rdf:about="">
        <dc:format>image/svg+xml</dc:format>
        <dc:type
           rdf:resource="http://purl.org/dc/dcmitype/StillImage" />
      </cc:Work>
    </rdf:RDF>
  </metadata>
  <defs
     id="defs4">
    <style
       id="style2"
       type="text/css"><![CDATA[    
     @font-face {font-family:VTC-TribalThreeFree;
     src: url('/Users/francesco/Repos/write-logos/src/fonts/VTC-TribalThreeFree.ttf');}
     @font-face {font-family:Misty Cotton;
     src: url('/Users/francesco/Repos/write-logos/src/fonts/Misty_Cotton.ttf');}
     ]]></style>
  </defs>
  <g
     id="g14"
     style="font-size:60px">
    <g
       style="text-anchor:middle"
       id="text12"
       aria-label="eXtemporanea">
      <path
         id="path22"
         style="font-family:VTC-TribalThreeFree"
         d="m 246.26219,84.82 v 0.12 q 0.12,-1.02 1.02,-1.62 0.96,-0.66 1.86,-0.66 1.14,0 1.14,1.02 0,0.12 -0.06,0.3 0,0.12 0,0.24 -0.72,2.1 -1.98,3.9 -1.2,1.8 -2.58,3.3 -1.38,1.5 -2.82,2.64 -1.38,1.14 -2.46,1.92 -1.56,-1.56 -2.04,-2.76 -0.42,-1.26 -0.42,-2.76 0,-2.28 0.96,-4.5 0.96,-2.28 2.16,-4.2 0.06,-0.06 -0.78,0.6 -0.84,0.6 -1.92,1.8 -1.02,1.14 -1.98,2.82 -0.9,1.68 -1.02,3.72 0,0.42 0.06,0.48 -1.14,-1.5 -1.8,-3.24 -0.6,-1.74 -0.96,-3.54 -0.3,-1.86 -0.42,-3.66 -0.06,-1.8 -0.06,-3.36 0.84,0.54 1.74,0.78 0.9,0.18 1.74,0.18 1.26,0 2.46,-0.36 1.2,-0.36 2.28,-0.78 1.14,-0.48 2.1,-0.84 0.96,-0.42 1.68,-0.42 1.2,0 1.92,0.78 0.78,0.78 0.78,1.86 0,0.72 -0.36,1.32 1.2,-0.36 1.74,-1.26 0.6,-0.96 0.6,-1.98 0,-1.56 -1.2,-2.82 -1.2,-1.26 -3.48,-1.26 -0.66,0 -1.62,0.36 -0.9,0.36 -2.04,0.78 -1.08,0.36 -2.34,0.72 -1.2,0.36 -2.46,0.36 -1.68,0 -3.24,-0.84 0.36,-1.92 1.14,-4.08 0.84,-2.16 1.92,-4.32 1.14,-2.16 2.4,-4.2 1.32,-2.04 2.64,-3.66 0.66,1.68 2.4,2.94 1.8,1.26 4.14,1.26 1.02,0 1.44,-0.24 -0.3,1.38 -0.96,2.52 -0.66,1.08 -1.38,1.92 -0.72,0.78 -1.44,1.26 -0.72,0.42 -1.08,0.42 -1.02,0 -1.44,-0.66 -0.36,-0.72 -0.36,-1.56 0,-1.44 0.72,-2.28 h -0.06 q -0.12,0 -0.54,0.42 -0.36,0.42 -0.84,1.08 -0.42,0.6 -0.78,1.32 -0.36,0.66 -0.36,1.26 0,1.32 0.66,2.34 0.72,0.96 2.28,0.96 2.52,-0.18 4.56,-1.92 2.04,-1.74 3.48,-4.14 1.44,-2.4 2.22,-5.04 0.78,-2.64 0.78,-4.62 -0.96,1.38 -2.7,2.4 -1.74,1.02 -3.66,1.02 -1.62,0 -3.24,-0.9 -1.56,-0.96 -2.7,-3.12 0,-0.6 -0.3,-0.6 -0.54,0 -1.44,0.84 -0.9,0.78 -1.86,1.92 -0.9,1.08 -1.8,2.28 -0.84,1.2 -1.32,1.92 -0.3,-0.3 -1.44,-0.3 -0.6,0 -1.32,0.18 -0.72,0.12 -1.38,0.54 -0.66,0.36 -1.26,1.02 -0.6,0.6 -0.96,1.56 0.48,-0.48 1.14,-0.78 0.66,-0.3 1.2,-0.3 0.72,0 1.26,0.42 0.6,0.36 0.72,1.2 -0.9,1.98 -1.74,4.14 -0.78,2.16 -1.32,4.26 -1.2,-0.12 -1.86,-1.26 -0.6,-1.2 -0.6,-2.4 0,-1.26 0.66,-2.28 -1.08,1.14 -1.56,2.34 -0.48,1.14 -0.48,2.34 0,1.56 0.78,3 0.84,1.38 2.28,2.22 -0.18,0.9 -0.24,1.86 -0.06,0.96 -0.06,1.98 0,6.36 2.76,11.34 2.76,4.98 8.76,9.3 0.06,0.06 0.18,0.06 0.24,0 0.54,-0.36 0.36,-0.36 0.54,-0.48 0.54,-0.36 1.68,-1.38 1.14,-1.02 2.58,-2.52 1.44,-1.5 2.94,-3.3 1.56,-1.8 2.82,-3.66 1.26,-1.86 2.04,-3.66 0.84,-1.86 0.84,-3.36 0,-1.38 -0.84,-2.16 -0.78,-0.84 -2.04,-0.84 -0.9,0 -1.86,0.42 -0.9,0.36 -1.68,1.08 -0.72,0.72 -1.26,1.74 -0.48,0.96 -0.54,2.16 z" />
      <path
         id="path24"
         style="font-family:'Misty Cotton'"
         d="m 263.0957,96.689453 q -0.82031,-1.289062 -1.78711,-3.222656 -0.9375,-1.933594 -1.46484,-3.369141 -0.26367,-0.791015 -0.38086,-1.02539 -0.11719,-0.234375 -0.17578,-0.234375 -0.0293,0 -0.0586,0.0293 -0.20508,0.263672 -0.90821,1.699219 -0.70312,1.435547 -1.49414,3.164063 -1.31836,2.871093 -1.93359,5.15625 -0.11719,0.439453 -0.23438,0.615234 -0.11718,0.175781 -0.29297,0.234375 h -0.14648 q -0.58594,0 -0.58594,-0.615234 0,-0.439453 0.38086,-1.78711 0.38086,-1.376953 0.87891,-2.695312 0.96679,-2.519531 3.01758,-6.767578 0.70312,-1.464844 0.70312,-1.845703 V 85.9375 q -0.0293,-0.175781 -0.20508,-1.025391 -0.17578,-0.849609 -0.41015,-1.96289 -1.72852,-8.466797 -1.72852,-16.875 0,-1.611328 0.0293,-2.402344 0.0586,-0.820313 0.23437,-1.230469 0.17578,-0.439453 0.49805,-0.820312 1.02539,-1.025391 2.16797,-1.025391 0.41015,0 0.84961,0.117188 1.64062,0.46875 2.08008,2.373046 0.0293,0.234375 0.0879,1.464844 0.0586,1.201172 0.11718,2.841797 0.0879,2.373047 0.26368,4.716797 0.17578,2.34375 0.35156,3.896484 0.20508,1.523438 0.32226,1.523438 0.0586,-0.0293 0.26368,-0.38086 0.20507,-0.351562 0.46875,-0.820312 1.78711,-3.310547 4.33593,-7.675781 2.54883,-4.365235 3.83789,-6.357422 0.9668,-1.494141 2.05079,-2.841797 1.08398,-1.376953 1.96289,-2.197266 0.46875,-0.46875 0.70312,-0.615234 0.26367,-0.146484 0.55664,-0.146484 0.43945,0 0.70313,0.292968 0.26367,0.263672 0.26367,0.615235 0,0.08789 -0.0293,0.205078 -0.0879,0.820312 -3.54492,5.419922 -2.37305,3.164062 -4.51172,6.474609 -2.13867,3.28125 -4.86328,7.998047 -1.66992,2.841797 -1.66992,3.251953 0,0.410156 0.41015,2.285156 0.43946,1.845703 1.05469,4.248047 0.61524,2.402344 1.25977,4.59961 0.58593,2.050781 1.28906,3.662109 1.37695,3.164062 2.51953,3.164062 0.11719,0 0.20508,-0.0293 1.25976,-0.292969 2.92969,-3.222657 1.61132,-2.666015 4.71679,-9.257812 0.55664,-1.230469 1.17188,-2.490235 1.52344,-3.222656 2.7539,-5.830078 1.25977,-2.607422 1.58204,-3.105468 0.32226,-0.439454 0.43945,-0.46875 0.11719,-0.05859 0.17578,-0.05859 0.14648,0 0.32227,0.175781 0.0293,0.05859 0.0293,0.146484 V 74.6875 q -0.0293,0.175781 -0.20508,0.585937 -0.17578,0.410157 -0.52734,1.171875 -0.23437,0.46875 -0.87891,1.904297 -0.61523,1.40625 -1.43554,3.310547 -1.31836,2.988281 -2.43164,5.449219 -2.75391,6.181641 -4.24805,9.140625 -2.69531,5.30273 -5.74219,5.30273 -2.90039,0 -6.09375,-4.863277 z" />
      <path
         id="path26"
         style="font-family:VTC-TribalThreeFree"
         d="m 296.59562,96.46 q 1.56,-1.62 2.76,-3.66 1.26001,-2.1 1.26001,-5.28 0,-1.38 -0.24,-2.88 -0.24001,-1.5 -0.78001,-3.36 0.90001,-0.72 1.38,-1.32 0.54,-0.66 0.78,-1.38 0.30001,-0.72 0.36001,-1.5 0.12,-0.84 0.12,-1.86 -0.24,1.56 -1.5,2.7 -1.20001,1.08 -2.40001,1.32 0,-0.36 -0.59999,-1.2 -0.54001,-0.9 -0.90001,-1.5 2.7,-3.54 2.7,-7.32 0,-1.14 -0.35999,-2.76 -0.36001,-1.62 -1.02001,-3.18 -0.59999,-1.56 -1.56,-2.94 -0.96,-1.38 -2.09999,-2.1 0.41999,0.66 0.77999,1.86 0.42,1.2 0.66001,2.52 0.3,1.26 0.41999,2.52 0.18,1.26 0.18,2.04 0,1.8 -0.47999,3.54 -0.48001,1.68 -1.56,3.06 -1.56,-1.26 -2.40001,-3.36 -0.84,-2.16 -0.9,-4.56 0,-2.46 0.84,-4.86 0.90001,-2.46 2.88,-4.32 1.26001,0.72 2.34,1.92 1.14,1.14 1.98001,2.64 0.89999,1.44 1.38,3.06 0.53999,1.62 0.53999,3.12 0,0.3 -0.12,0.84 -0.12,0.54 -0.12,0.66 0.24,0 0.42,-0.6 0.18,-0.6 0.3,-1.38 0.18,-0.78 0.24001,-1.5 0.06,-0.78 0.06,-1.14 0,-1.32 -0.24001,-2.64 -0.18,-1.38 -0.54,-2.52 -0.36,-1.14 -0.84,-1.98 -0.48,-0.84 -1.07999,-1.2 1.01999,0.3 2.03999,0.48 1.02,0.18 2.10001,0.18 4.98,0 8.09999,-1.98 3.12,-2.04 5.1,-5.82 -2.16,2.76 -4.86,3.72 -2.64,0.96 -5.7,0.96 -2.33999,0 -5.04,-0.36 -2.64,-0.42 -5.4,-0.84 -2.76,-0.48 -5.57999,-0.84 -2.76,-0.42 -5.40001,-0.42 -3.53999,0 -6.53999,0.96 -3,0.9 -5.28001,3.48 1.62,-0.96 3.72001,-1.32 2.09999,-0.42 4.38,-0.42 2.87999,0 5.75999,0.54 2.88,0.54 4.98001,1.38 -1.02001,1.02 -1.68,2.4 -0.66001,1.38 -1.08001,2.88 -0.41999,1.44 -0.6,2.82 -0.18,1.38 -0.18,2.4 0,1.92 0.36001,3.42 0.41999,1.44 0.71999,2.28 -1.56,0.84 -2.7,2.64 -1.14,1.74 -1.14,4.02 0.24001,-0.48 0.6,-1.08 0.36,-0.66 0.9,-1.2 0.54,-0.54 1.38,-0.9 0.84,-0.36 2.1,-0.36 0.36,0 0.72,0.3 0.42001,0.3 0.72001,0.72 0.35999,0.42 0.59999,0.84 0.3,0.36 0.42,0.6 -2.63999,3.66 -2.63999,7.44 0,2.4 1.13999,4.56 1.2,2.1 3.6,3.6 -1.08,-1.5 -1.56,-3 -0.48,-1.56 -0.48,-3.06 0,-1.74 0.6,-3.42 0.66,-1.74 1.8,-3.24 l 0.06,-0.18 q 1.02,1.74 1.62,3.9 0.66001,2.1 0.66001,4.38 0,2.16 -0.66001,4.14 -0.65999,1.98 -2.04,3.48 -1.32,-0.42 -2.76,-0.42 -2.4,0 -4.5,1.2 -2.09999,1.2 -3.12,3.3 1.38,-1.2 2.70001,-1.68 1.32,-0.48 2.63999,-0.48 1.26,0 2.52,0.3 1.26,0.3 2.46,0.66 1.20001,0.36 2.34,0.66 1.2,0.3 2.28,0.3 1.8,0 3.42,-1.14 1.68,-1.2 3.18,-4.56 -0.83999,1.5 -2.63999,2.34 -1.74001,0.84 -3.60001,0.84 -1.74,0 -3.18,-0.9 z" />
      <path
         id="path28"
         style="font-family:VTC-TribalThreeFree"
         d="m 327.35594,84.82 v 0.12 q 0.12,-1.02 1.02,-1.62 0.96,-0.66 1.86,-0.66 1.14,0 1.14,1.02 0,0.12 -0.06,0.3 0,0.12 0,0.24 -0.72,2.1 -1.98,3.9 -1.2,1.8 -2.58,3.3 -1.38,1.5 -2.82,2.64 -1.38,1.14 -2.46,1.92 -1.56,-1.56 -2.04,-2.76 -0.42,-1.26 -0.42,-2.76 0,-2.28 0.96,-4.5 0.96,-2.28 2.16,-4.2 0.06,-0.06 -0.78,0.6 -0.84,0.6 -1.92,1.8 -1.02,1.14 -1.98,2.82 -0.9,1.68 -1.02,3.72 0,0.42 0.06,0.48 -1.14,-1.5 -1.8,-3.24 -0.6,-1.74 -0.96,-3.54 -0.3,-1.86 -0.42,-3.66 -0.06,-1.8 -0.06,-3.36 0.84,0.54 1.74,0.78 0.9,0.18 1.74,0.18 1.26,0 2.46,-0.36 1.2,-0.36 2.28,-0.78 1.14,-0.48 2.1,-0.84 0.96,-0.42 1.68,-0.42 1.2,0 1.92,0.78 0.78,0.78 0.78,1.86 0,0.72 -0.36,1.32 1.2,-0.36 1.74,-1.26 0.6,-0.96 0.6,-1.98 0,-1.56 -1.2,-2.82 -1.2,-1.26 -3.48,-1.26 -0.66,0 -1.62,0.36 -0.9,0.36 -2.04,0.78 -1.08,0.36 -2.34,0.72 -1.2,0.36 -2.46,0.36 -1.68,0 -3.24,-0.84 0.36,-1.92 1.14,-4.08 0.84,-2.16 1.92,-4.32 1.14,-2.16 2.4,-4.2 1.32,-2.04 2.64,-3.66 0.66,1.68 2.4,2.94 1.8,1.26 4.14,1.26 1.02,0 1.44,-0.24 -0.3,1.38 -0.96,2.52 -0.66,1.08 -1.38,1.92 -0.72,0.78 -1.44,1.26 -0.72,0.42 -1.08,0.42 -1.02,0 -1.44,-0.66 -0.36,-0.72 -0.36,-1.56 0,-1.44 0.72,-2.28 h -0.06 q -0.12,0 -0.54,0.42 -0.36,0.42 -0.84,1.08 -0.42,0.6 -0.78,1.32 -0.36,0.66 -0.36,1.26 0,1.32 0.66,2.34 0.72,0.96 2.28,0.96 2.52,-0.18 4.56,-1.92 2.04,-1.74 3.48,-4.14 1.44,-2.4 2.22,-5.04 0.78,-2.64 0.78,-4.62 -0.96,1.38 -2.7,2.4 -1.74,1.02 -3.66,1.02 -1.62,0 -3.24,-0.9 -1.56,-0.96 -2.7,-3.12 0,-0.6 -0.3,-0.6 -0.54,0 -1.44,0.84 -0.9,0.78 -1.86,1.92 -0.9,1.08 -1.8,2.28 -0.84,1.2 -1.32,1.92 -0.3,-0.3 -1.44,-0.3 -0.6,0 -1.32,0.18 -0.72,0.12 -1.38,0.54 -0.66,0.36 -1.26,1.02 -0.6,0.6 -0.96,1.56 0.48,-0.48 1.14,-0.78 0.66,-0.3 1.2,-0.3 0.72,0 1.26,0.42 0.6,0.36 0.72,1.2 -0.9,1.98 -1.74,4.14 -0.78,2.16 -1.32,4.26 -1.2,-0.12 -1.86,-1.26 -0.6,-1.2 -0.6,-2.4 0,-1.26 0.66,-2.28 -1.08,1.14 -1.56,2.34 -0.48,1.14 -0.48,2.34 0,1.56 0.78,3 0.84,1.38 2.28,2.22 -0.18,0.9 -0.24,1.86 -0.06,0.96 -0.06,1.98 0,6.36 2.76,11.34 2.76,4.98 8.76,9.3 0.06,0.06 0.18,0.06 0.24,0 0.54,-0.36 0.36,-0.36 0.54,-0.48 0.54,-0.36 1.68,-1.38 1.14,-1.02 2.58,-2.52 1.44,-1.5 2.94,-3.3 1.56,-1.8 2.82,-3.66 1.26,-1.86 2.04,-3.66 0.84,-1.86 0.84,-3.36 0,-1.38 -0.84,-2.16 -0.78,-0.84 -2.04,-0.84 -0.9,0 -1.86,0.42 -0.9,0.36 -1.68,1.08 -0.72,0.72 -1.26,1.74 -0.48,0.96 -0.54,2.16 z" />
      <path
         id="path30"
         style="font-family:VTC-TribalThreeFree"
         d="m 363.01844,93.04 q 0,-1.2 0.6,-2.34 0.6,-1.14 2.04,-1.14 0.66,0 1.2,0.24 -1.8,-1.2 -3.48,-0.6 -1.68,0.54 -2.7,1.98 -1.02,1.44 -1.14,3.36 -0.12,1.92 1.26,3.48 0.6,0.72 1.44,1.38 0.9,0.66 2.1,0.66 2.22,0 3.78,-1.2 1.62,-1.2 2.7,-3.06 1.14,-1.92 1.8,-4.26 0.72,-2.4 1.08,-4.74 0.42,-2.4 0.54,-4.5 0.12,-2.1 0.12,-3.54 0,-4.26 -0.9,-8.22 -0.9,-4.02 -2.4,-7.26 -1.44,-3.3 -3.3,-5.7 -1.8,-2.46 -3.66,-3.54 h -0.06 q -2.4,2.28 -4.02,4.98 -1.62,2.64 -2.64,5.64 -1.02,2.94 -1.5,6.18 -0.42,3.18 -0.42,6.54 -0.36,-0.3 -0.66,-1.08 -0.3,-0.84 -0.54,-1.5 -0.48,-1.08 -0.78,-2.04 -0.24,-0.96 -0.48,-1.86 -0.24,-0.96 -0.48,-1.92 -0.18,-0.96 -0.54,-2.1 0,-0.78 0.18,-1.8 0.24,-1.08 0.72,-2.1 0.48,-1.02 1.32,-1.92 0.9,-0.9 2.28,-1.38 -0.48,-0.12 -0.96,-0.18 -0.48,-0.12 -0.96,-0.12 -1.02,0 -2.04,0.54 -1.02,0.48 -2.04,1.86 -0.24,-0.42 -0.54,-1.5 -0.3,-1.08 -0.54,-2.28 -0.24,-1.2 -0.42,-2.22 -0.12,-1.02 -0.12,-1.32 V 54.4 q -0.54,0.42 -1.68,1.74 -1.14,1.32 -2.28,2.82 -1.14,1.5 -2.04,2.94 -0.84,1.38 -0.84,1.98 V 64 q -0.42,-0.12 -0.9,-0.12 -0.42,0 -0.78,0 -0.66,0 -1.38,0.3 -0.72,0.24 -1.32,0.72 -0.6,0.42 -1.02,1.02 -0.42,0.54 -0.42,1.2 h 0.06 -0.06 q 0.9,-1.02 2.1,-0.54 1.26,0.42 1.74,1.8 0.06,0.18 -0.06,0.6 -0.78,2.64 -1.26,5.88 -0.48,3.24 -0.48,6.72 0,1.38 0.18,3.3 0.18,1.92 0.6,3.96 0.48,2.04 1.2,4.08 0.72,2.04 1.74,3.66 1.02,1.56 2.4,2.58 1.38,0.96 3.12,0.96 0.9,0 1.86,-0.42 1.02,-0.42 1.8,-1.14 0.78,-0.78 1.26,-1.74 0.54,-1.02 0.54,-2.22 0,-3 -1.44,-4.32 -1.38,-1.38 -3.12,-1.38 -0.84,0 -1.62,0.24 -0.72,0.24 -1.5,0.66 0.72,-0.18 1.26,-0.18 1.44,0 2.04,1.14 0.6,1.08 0.6,2.28 0,1.44 -0.54,2.16 -0.48,0.72 -1.32,0.72 -0.9,0 -1.86,-1.14 -0.9,-1.2 -1.68,-3.12 -0.72,-1.98 -1.2,-4.44 -0.42,-2.52 -0.42,-5.16 0,-2.58 0.24,-5.22 0.3,-2.7 0.78,-5.16 0.54,-2.52 1.2,-4.68 0.66,-2.22 1.44,-3.84 0.42,-0.72 0.72,-1.08 0.36,-0.42 0.36,-0.54 0.96,3.84 1.92,7.56 0.96,3.72 2.28,7.44 -3.06,0 -4.8,1.56 -1.68,1.56 -2.16,3.6 0.84,-1.02 1.86,-1.38 1.02,-0.36 2.04,-0.36 2.22,0 3.66,0.84 1.5,0.84 2.76,1.86 1.32,1.02 2.7,1.86 1.44,0.84 3.6,0.84 0.9,0 1.68,-0.36 0.84,-0.36 1.44,-0.9 0.66,-0.6 1.02,-1.38 0.42,-0.78 0.42,-1.62 0,-0.84 -0.48,-1.56 -0.48,-0.78 -1.68,-1.2 0.54,0.54 0.54,1.32 0,0.84 -0.66,1.38 -0.66,0.48 -1.98,0.48 -0.42,0 -0.78,-0.06 -0.3,-0.06 -0.6,-0.36 -0.24,-0.3 -0.42,-0.9 -0.12,-0.66 -0.12,-1.74 0,-1.98 0.36,-4.86 0.42,-2.88 1.08,-5.7 0.72,-2.88 1.68,-5.22 0.96,-2.34 2.16,-3.18 0.6,0.54 1.2,1.56 0.66,0.96 1.26,2.16 0.66,1.14 1.2,2.46 0.54,1.26 0.96,2.4 -0.24,0 -0.42,0 -0.18,-0.06 -0.36,-0.06 -1.2,0 -2.16,0.54 -0.96,0.48 -1.68,1.26 -0.66,0.72 -1.08,1.68 -0.36,0.9 -0.36,1.8 0.06,0 0.24,-0.24 0.18,-0.3 0.3,-0.42 0.9,-0.96 1.98,-1.38 1.14,-0.42 2.04,-0.42 1.14,0 1.74,0.78 0.6,0.72 0.84,1.92 0.3,1.14 0.36,2.64 0.06,1.44 0.06,2.82 0,2.82 -0.42,5.82 -0.36,3 -1.08,5.46 -0.66,2.46 -1.68,4.08 -0.96,1.56 -2.1,1.56 -1.26,0 -1.74,-0.9 -0.48,-0.96 -0.48,-1.98 z" />
      <path
         id="path32"
         style="font-family:VTC-TribalThreeFree"
         d="m 390.5275,54.1 q 0,-0.06 -0.12,-0.06 -0.3,0 -1.14,0.54 -0.84,0.54 -1.86,1.38 -1.02,0.78 -2.04,1.74 -0.96,0.96 -1.62,1.8 -0.9,-0.24 -1.74,-0.24 -2.34,0 -4.32,1.38 -1.98,1.32 -2.58,3.6 -0.06,0 -0.06,0.06 -0.06,0.12 -0.06,0.12 0,0.12 0.12,0.12 0,0 0.3,-0.3 0.36,-0.36 0.96,-0.72 0.6,-0.42 1.38,-0.72 0.84,-0.36 1.86,-0.36 0.36,0 0.78,0.06 0.48,0 0.96,0.12 -2.76,3.3 -4.32,7.74 -1.5,4.38 -1.5,9 0,3.24 0.78,6.42 0.84,3.18 2.52,6 1.74,2.76 4.38,5.04 2.7,2.28 6.42,3.72 0,-0.18 -0.06,-0.36 0,-0.18 0,-0.42 0,-1.56 0.6,-3.18 0.6,-1.62 1.5,-3 0.9,-1.38 1.98,-2.46 1.08,-1.14 2.1,-1.74 h -0.06 -0.12 q 0,-0.06 0.06,-0.06 0.12,-0.06 0.12,-0.12 -1.26,0 -2.58,0.66 -1.32,0.6 -2.52,1.5 -1.14,0.9 -1.98,1.92 -0.84,1.02 -1.02,1.74 -2.22,-1.44 -3.84,-3.36 -1.56,-1.92 -2.58,-4.08 -0.96,-2.22 -1.44,-4.62 -0.48,-2.4 -0.48,-4.86 0,-4.14 1.26,-7.98 1.26,-3.84 3.36,-6.6 0.48,0.12 0.72,0.18 0.24,0 0.42,0 0.18,0 0.36,0 0.18,0 0.6,0 2.34,0 3.9,-0.96 1.62,-1.02 2.04,-2.52 -0.42,0.66 -0.96,0.9 -0.54,0.24 -1.2,0.24 -0.96,0 -1.86,-0.36 -0.9,-0.36 -1.2,-0.66 1.86,-1.68 2.58,-2.34 0.72,-0.66 1.08,-0.66 0.18,0 0.3,0.06 1.8,0.48 3.3,1.8 1.56,1.26 2.64,3 1.14,1.68 1.74,3.72 0.6,2.04 0.6,4.08 0,1.62 -0.54,3.3 -0.48,1.68 -1.56,3.06 -1.08,1.38 -2.76,2.28 -1.68,0.84 -4.08,0.84 -1.32,0 -2.28,-0.54 -0.96,-0.54 -1.62,-1.38 -0.6,-0.9 -0.9,-1.92 -0.3,-1.08 -0.3,-2.16 0,-1.14 0.48,-2.1 0.48,-1.02 1.26,-1.68 0.78,-0.66 1.8,-1.02 1.02,-0.42 2.04,-0.42 0.3,0 0.6,0.06 0.36,0 0.66,0.06 -0.72,0.42 -1.5,0.9 -0.72,0.48 -1.38,1.14 -0.66,0.66 -1.14,1.56 -0.48,0.9 -0.66,2.04 0.42,-0.54 1.26,-1.08 0.84,-0.6 1.8,-1.08 0.96,-0.48 1.86,-0.78 0.96,-0.3 1.68,-0.3 0.36,0 0.54,0.42 0.24,0.36 0.36,0.9 0.18,0.48 0.18,0.96 0.06,0.42 0.06,0.54 0,1.38 -0.6,2.22 -0.6,0.84 -0.9,1.14 l 0.06,0.06 q 2.16,-1.14 3.06,-2.88 0.9,-1.8 0.9,-3.06 0,-1.32 -0.54,-2.46 -0.48,-1.14 -1.38,-1.98 -0.9,-0.9 -2.22,-1.38 -1.26,-0.54 -2.76,-0.54 -1.92,0 -3.66,0.78 -1.68,0.78 -2.94,2.1 -1.26,1.26 -2.04,3 -0.72,1.68 -0.72,3.48 0,1.56 0.66,3.18 0.66,1.62 2.16,3 -0.78,0.78 -1.26,1.68 -0.42,0.9 -0.42,1.92 0,1.02 0.6,2.04 0.66,0.96 1.68,1.62 -0.3,-0.48 -0.42,-0.96 -0.12,-0.54 -0.12,-1.14 0,-1.08 0.54,-2.04 0.54,-1.02 1.32,-1.5 1.38,0.48 2.58,0.84 1.26,0.3 2.46,0.3 0.24,0 0.42,0 0.18,0 0.48,-0.06 2.76,-0.42 4.86,-1.68 2.16,-1.32 3.54,-3.12 1.38,-1.86 2.1,-4.14 0.72,-2.28 0.72,-4.68 0,-2.52 -0.78,-4.98 -0.78,-2.46 -2.34,-4.5 -1.5,-2.1 -3.9,-3.6 -2.34,-1.56 -5.46,-2.16 z" />
      <path
         id="path34"
         style="font-family:VTC-TribalThreeFree"
         d="m 424.64125,64.18 q -1.02,2.64 -2.82,4.5 1.8,1.68 1.8,4.56 0,2.1 -1.26,4.38 -1.2,2.22 -3.84,3.84 1.14,-0.84 1.8,-2.58 0.72,-1.74 0.72,-3.54 0,-1.32 -0.42,-2.4 -0.42,-1.08 -1.32,-1.74 -0.96,0.24 -1.92,0.24 -2.1,0 -3.18,-1.2 -1.02,-1.26 -1.02,-2.94 0,-1.38 0.78,-2.7 0.78,-1.38 2.34,-2.28 -0.6,0.78 -0.84,1.5 -0.18,0.72 -0.18,1.32 0,1.2 0.72,1.98 0.78,0.78 1.68,0.78 0.84,0 1.98,-1.14 1.14,-1.2 1.74,-2.82 0.66,-1.62 0.42,-3.3 -0.24,-1.74 -2.16,-2.88 -4.32,2.34 -7.38,7.2 -3,4.86 -4.38,11.58 0.9,-0.24 2.04,-0.24 1.68,0 2.94,0.66 1.26,0.6 2.1,1.62 0.84,1.02 1.26,2.34 0.42,1.32 0.42,2.7 0,1.56 -0.54,3 -0.48,1.44 -1.5,2.58 0.78,-1.8 0.78,-3.54 0,-2.82 -1.74,-4.5 -1.68,-1.74 -3.9,-1.74 -1.08,0 -1.98,0.42 0,2.28 0.96,4.86 1.02,2.52 2.64,4.8 1.68,2.22 3.84,3.96 2.16,1.68 4.44,2.22 3,-2.64 4.98,-6.6 2.04,-3.96 2.76,-8.22 0.36,-1.98 0.42,-4.2 0.12,-2.22 -0.18,-4.14 -0.3,-1.98 -1.08,-3.42 -0.72,-1.5 -1.98,-1.92 2.88,-0.06 4.32,1.44 1.44,1.44 1.98,3.54 0.54,2.1 0.42,4.5 -0.12,2.4 -0.36,4.26 -0.66,4.08 -1.98,7.44 -1.26,3.3 -2.88,5.76 -1.56,2.46 -3.3,4.02 -1.68,1.5 -3.12,1.92 -3.48,-0.78 -6.36,-3 -2.82,-2.28 -4.86,-5.34 -2.04,-3.06 -3.18,-6.6 -1.08,-3.54 -1.08,-7.02 0,-3.66 1.14,-6.72 1.14,-3.12 3.18,-6.24 -0.66,-0.78 -1.62,-0.78 -0.9,0 -1.86,0.66 -0.96,0.66 -1.44,1.86 0.06,-0.96 0.6,-1.92 0.6,-0.96 1.38,-1.74 0.84,-0.78 1.8,-1.26 1.02,-0.54 2.04,-0.54 0.54,0 1.02,0.18 0.9,-1.44 2.16,-2.76 1.26,-1.38 2.58,-2.46 1.38,-1.08 2.58,-1.74 1.26,-0.66 2.1,-0.66 0.24,0 0.42,0.06 1.92,0.84 3.12,2.28 1.26,1.38 1.92,4.14 1.8,0.24 3.36,1.5 1.62,1.2 1.92,3.96 -0.54,-0.96 -1.32,-1.56 -0.72,-0.6 -1.56,-0.78 -0.78,-0.24 -1.62,-0.06 -0.78,0.12 -1.44,0.66 z" />
      <path
         id="path36"
         style="font-family:VTC-TribalThreeFree"
         d="m 454.84656,66.7 q -1.26,-0.78 -2.76,-0.78 -1.68,0 -3.12,0.96 -1.44,0.9 -1.44,2.82 0,1.2 0.9,2.04 0.9,0.84 2.1,0.84 0.06,0 0.42,-0.06 0.42,-0.06 0.42,-0.12 0,-0.06 -0.06,-0.06 -1.2,-0.78 -1.2,-1.56 0,-0.54 0.48,-0.9 0.48,-0.42 1.14,-0.42 0.48,0 0.96,0.18 0.48,0.18 0.96,0.66 0,0.42 -0.36,1.32 -0.36,0.84 -0.96,1.74 -0.6,0.84 -1.44,1.56 -0.78,0.66 -1.68,0.78 -0.72,-0.3 -1.8,-0.54 -1.08,-0.24 -2.22,-0.36 -1.08,-0.18 -2.16,-0.24 -1.02,-0.06 -1.62,-0.06 v -0.42 q 0,-1.32 0.24,-3.24 0.3,-1.92 0.66,-3.9 0.42,-2.04 0.84,-3.84 0.42,-1.86 0.72,-3.06 0.42,0.06 0.78,0.06 0.36,0 0.66,0 2.16,0 3.48,-0.3 1.38,-0.36 2.16,-0.78 0.84,-0.42 1.2,-0.72 0.42,-0.36 0.72,-0.36 0.84,0 1.5,1.68 0.66,1.62 0.66,4.2 0,1.38 -0.18,2.88 z m -13.56,11.4 q 3.84,0 6.54,0.96 2.76,0.96 4.5,2.52 1.74,1.56 2.58,3.6 0.84,1.98 0.84,4.14 0,2.88 -1.32,5.64 -1.32,2.7 -3.72,4.62 1.56,-0.6 3,-1.86 1.44,-1.32 2.52,-3 1.14,-1.74 1.8,-3.78 0.66,-2.04 0.66,-4.2 0,-2.64 -1.2,-5.16 -1.2,-2.58 -3.9,-4.74 1.02,-0.72 1.98,-1.98 1.02,-1.32 1.8,-2.94 0.84,-1.68 1.32,-3.66 0.54,-1.98 0.54,-4.08 0,-3.06 -1.32,-6.12 -1.26,-3.12 -4.5,-5.82 l -0.12,-0.12 q -0.06,0 -0.06,0.06 -0.3,0.48 -0.9,1.26 -0.54,0.78 -1.44,1.5 -0.84,0.72 -2.1,1.26 -1.2,0.48 -2.7,0.48 -0.3,0 -0.66,-0.06 -0.36,-0.06 -0.72,-0.18 0.3,-1.02 0.9,-2.28 0.6,-1.32 1.98,-2.34 -0.06,0 -0.66,0.18 -0.54,0.18 -1.26,0.66 -0.72,0.48 -1.5,1.26 -0.78,0.78 -1.26,1.98 -1.02,-0.3 -1.92,-0.42 -0.9,-0.12 -1.74,-0.12 -1.62,0 -2.82,0.48 -1.14,0.42 -1.98,1.2 -0.78,0.72 -1.2,1.68 -0.36,0.96 -0.36,1.98 0,0.96 0.3,1.86 0.36,0.9 1.08,1.68 0,-1.62 0.36,-2.58 0.36,-1.02 0.96,-1.56 0.6,-0.6 1.38,-0.78 0.78,-0.24 1.68,-0.24 0.78,0 1.44,0.12 0.72,0.06 1.26,0.18 -0.6,0.96 -1.26,2.76 -0.6,1.8 -1.14,3.96 -0.54,2.1 -0.96,4.32 -0.42,2.22 -0.6,3.96 -1.98,0.3 -3.12,1.56 -1.08,1.26 -1.44,3.12 0,0.06 -0.06,0.06 0,0 0,0.06 v 0.06 q 0.42,-0.84 1.5,-1.2 1.08,-0.42 1.86,-0.42 0.78,0 0.78,0.3 0,0.78 -0.18,2.16 -0.12,1.38 -0.12,3.24 0,2.22 0.3,4.8 0.36,2.52 1.38,4.98 1.02,2.4 2.82,4.44 1.8,2.04 4.8,3.18 -1.56,-0.6 -2.58,-2.16 -0.96,-1.62 -1.56,-3.72 -0.54,-2.1 -0.78,-4.5 -0.18,-2.4 -0.18,-4.68 0,-2.52 0.12,-4.56 0.18,-2.04 0.36,-3 z" />
      <path
         id="path38"
         style="font-family:VTC-TribalThreeFree"
         d="m 485.21125,71.32 q -0.54,-2.76 -1.86,-5.64 -1.26,-2.88 -3,-5.28 -1.68,-2.46 -3.6,-4.14 -1.92,-1.74 -3.78,-2.22 -0.24,0 -0.6,0.36 -0.3,0.3 -0.72,0.78 -0.36,0.42 -0.78,0.96 -0.42,0.54 -0.84,0.96 -1.02,-0.36 -1.86,-0.36 -1.38,0 -2.4,0.48 -0.96,0.42 -1.62,1.08 -0.6,0.6 -0.96,1.26 -0.3,0.66 -0.3,1.08 v -0.06 0.12 q 0.48,-0.48 1.14,-0.78 0.72,-0.36 1.38,-0.36 0.72,0 1.26,0.42 0.6,0.36 0.9,1.26 -0.18,0.36 -0.66,1.32 -0.48,0.9 -0.96,1.92 -0.48,0.96 -0.96,1.74 -0.48,0.72 -0.66,0.72 -1.02,0 -1.86,0.42 -0.84,0.36 -1.44,0.96 -0.6,0.54 -0.9,1.2 -0.3,0.6 -0.3,1.02 0.84,-0.48 1.68,-0.6 0.84,-0.12 1.56,0.48 -0.66,2.16 -1.08,4.44 -0.42,2.22 -0.42,4.5 0,2.94 0.6,5.88 0.66,2.94 1.92,5.64 1.26,2.7 3.18,4.98 1.92,2.28 4.5,3.9 0.12,0 0.42,-0.36 0.36,-0.42 0.42,-0.48 1.14,-1.32 2.16,-2.64 1.02,-1.38 1.8,-2.76 0.84,-1.44 1.32,-2.88 0.48,-1.5 0.48,-3.12 0,-2.46 -1.26,-3.66 -1.26,-1.26 -2.82,-1.26 -1.56,-0.06 -2.88,1.08 -1.32,1.08 -1.5,3.3 v 0.18 q 0.6,-0.96 1.56,-1.5 0.96,-0.6 1.8,-0.6 1.08,0 1.5,0.72 0.48,0.66 0.48,1.62 0,0.96 -0.36,2.16 -0.36,1.14 -0.9,2.16 -0.48,1.02 -1.02,1.86 -0.48,0.78 -0.84,1.02 -2.82,-1.86 -4.38,-4.68 -1.56,-2.88 -2.28,-6 -0.66,-3.18 -0.54,-6.18 0.12,-3.06 0.78,-5.34 1.02,0.6 1.86,1.86 0.84,1.2 1.86,2.4 1.56,1.74 3.3,2.04 1.74,0.24 3.24,-0.48 1.56,-0.78 2.64,-2.28 1.08,-1.56 1.38,-3.48 -0.06,-0.06 -0.06,-0.06 -0.72,1.2 -1.68,2.04 -0.96,0.84 -2.1,1.14 -1.08,0.24 -2.28,-0.18 -1.14,-0.42 -2.28,-1.8 -0.48,-0.6 -0.9,-1.32 -0.42,-0.72 -0.9,-1.44 -0.48,-0.78 -1.14,-1.44 -0.66,-0.72 -1.56,-1.32 0.42,-1.08 1.02,-2.46 0.66,-1.44 1.44,-2.88 0.78,-1.44 1.56,-2.7 0.84,-1.26 1.62,-2.1 0.06,0 0.3,-0.06 0.78,0.36 1.44,1.08 0.72,0.66 1.32,1.56 0.6,0.84 1.08,1.74 0.48,0.84 0.84,1.44 0.12,0.42 0.12,0.84 0.06,0.36 0.06,0.84 0,1.38 -0.6,2.58 -0.54,1.14 -2.1,1.14 -0.72,0 -1.26,-0.54 -0.48,-0.54 -0.48,-1.92 0,-0.3 0,-0.66 0.06,-0.36 0.12,-0.84 -1.2,0.6 -1.98,1.68 -0.72,1.08 -0.72,2.16 0,1.02 0.48,1.8 0.48,0.72 1.08,1.2 0.66,0.42 1.32,0.66 0.72,0.18 1.2,0.18 0.9,0 1.74,-0.36 0.9,-0.36 1.62,-0.96 0.72,-0.66 1.2,-1.5 0.48,-0.84 0.6,-1.8 1.26,3 1.92,5.94 0.72,2.94 0.72,6.18 0,5.4 -1.32,10.5 -1.32,5.04 -4.44,8.76 l 0.06,0.06 q 3.3,-2.88 5.04,-6.12 1.74,-3.3 2.52,-6.42 0.78,-3.18 0.9,-5.88 0.12,-2.76 0.12,-4.56 0,-1.38 -0.12,-2.7 -0.06,-1.32 -0.3,-2.64 z" />
      <path
         id="path40"
         style="font-family:VTC-TribalThreeFree"
         d="m 511.08719,53.56 q -0.72,0 -1.68,0.72 -0.96,0.72 -1.8,1.92 -0.78,1.14 -1.32,2.58 -0.48,1.38 -0.3,2.64 0.42,-1.2 0.96,-1.98 0.54,-0.78 1.08,-1.2 0.6,-0.42 1.08,-0.54 0.54,-0.12 0.84,-0.06 1.62,0.36 2.58,2.34 0.96,1.98 1.32,4.86 0.36,2.82 0.24,6.18 -0.12,3.36 -0.54,6.48 -0.42,3.06 -1.08,5.46 -0.66,2.4 -1.38,3.36 0.12,-0.66 0.12,-1.38 0.06,-0.72 0.06,-1.5 0,-2.76 -0.66,-5.82 -0.66,-3.06 -1.68,-6.06 -1.02,-3.06 -2.34,-5.88 -1.32,-2.82 -2.64,-5.16 -1.32,-2.34 -2.52,-4.02 -1.2,-1.68 -2.04,-2.34 -0.96,0.66 -1.98,1.86 -1.02,1.14 -1.98,2.52 -0.9,1.32 -1.68,2.7 -0.78,1.38 -1.2,2.34 -0.72,-1.02 -1.62,-1.44 -0.84,-0.48 -1.68,-0.48 -1.2,0 -2.22,0.78 -1.02,0.78 -1.44,2.04 0.9,-0.78 1.8,-0.78 1.14,0 2.04,0.9 0.9,0.9 1.14,2.46 0,0.12 -0.06,0.24 0,0.12 0,0.24 -1.32,5.94 -1.32,11.16 0,5.16 1.2,9.36 1.26,4.14 3.72,7.2 2.52,3.06 6.18,4.8 2.94,-2.4 4.08,-5.28 1.2,-2.88 1.2,-5.16 0,-1.38 -0.48,-2.64 -0.42,-1.26 -1.14,-2.16 -0.66,-0.96 -1.56,-1.5 -0.9,-0.54 -1.8,-0.54 -1.08,0 -2.22,0.84 -1.08,0.78 -1.92,2.88 1.2,-1.38 2.46,-1.38 1.26,0 1.98,1.2 0.72,1.2 0.9,2.88 0.18,1.62 -0.24,3.36 -0.36,1.74 -1.32,2.82 -2.94,-1.74 -4.56,-4.5 -1.62,-2.82 -2.22,-6.06 -0.54,-3.3 -0.3,-6.84 0.3,-3.6 1.14,-6.96 0.9,-3.36 2.16,-6.3 1.32,-2.94 2.7,-4.98 2.64,3.72 4.44,7.56 1.8,3.84 3.66,8.16 h -0.06 q -2.04,-1.44 -4.08,-1.44 -2.04,0 -3.72,1.38 -1.62,1.38 -2.58,3.66 0.96,-1.44 2.1,-1.98 1.2,-0.6 2.46,-0.6 1.44,0 2.64,0.48 1.2,0.48 2.04,1.14 0.84,0.6 1.32,1.32 0.54,0.66 0.66,1.02 0.24,0.78 0.3,1.86 0.06,1.02 0.06,2.22 0,1.98 -0.24,4.26 -0.18,2.28 -0.54,4.44 -0.36,2.16 -0.9,3.96 -0.48,1.8 -1.08,2.88 5.4,-5.46 8.16,-12 2.82,-6.54 3.54,-12.96 0.3,-2.64 0.3,-5.88 0,-3.24 -0.6,-6.3 -0.6,-3.06 -2.04,-5.58 -1.38,-2.58 -3.9,-3.78 z" />
      <path
         id="path42"
         style="font-family:VTC-TribalThreeFree"
         d="m 538.87937,84.82 v 0.12 q 0.12,-1.02 1.02,-1.62 0.96,-0.66 1.86,-0.66 1.14,0 1.14,1.02 0,0.12 -0.06,0.3 0,0.12 0,0.24 -0.72001,2.1 -1.98001,3.9 -1.2,1.8 -2.58,3.3 -1.38,1.5 -2.81999,2.64 -1.38,1.14 -2.46001,1.92 -1.55999,-1.56 -2.03999,-2.76 -0.42001,-1.26 -0.42001,-2.76 0,-2.28 0.96,-4.5 0.96001,-2.28 2.16,-4.2 0.06,-0.06 -0.78,0.6 -0.84,0.6 -1.91999,1.8 -1.02,1.14 -1.98001,2.82 -0.89999,1.68 -1.01999,3.72 0,0.42 0.06,0.48 -1.14,-1.5 -1.79999,-3.24 -0.60001,-1.74 -0.96001,-3.54 -0.29999,-1.86 -0.41999,-3.66 -0.06,-1.8 -0.06,-3.36 0.84,0.54 1.74,0.78 0.9,0.18 1.74,0.18 1.26,0 2.46001,-0.36 1.19999,-0.36 2.27999,-0.78 1.14,-0.48 2.1,-0.84 0.96001,-0.42 1.68,-0.42 1.2,0 1.92001,0.78 0.77999,0.78 0.77999,1.86 0,0.72 -0.36,1.32 1.20001,-0.36 1.74,-1.26 0.60001,-0.96 0.60001,-1.98 0,-1.56 -1.20001,-2.82 -1.19999,-1.26 -3.48,-1.26 -0.66,0 -1.62,0.36 -0.9,0.36 -2.04,0.78 -1.08,0.36 -2.34,0.72 -1.19999,0.36 -2.45999,0.36 -1.68001,0 -3.24,-0.84 0.36,-1.92 1.14,-4.08 0.84,-2.16 1.91999,-4.32 1.14,-2.16 2.4,-4.2 1.32,-2.04 2.64001,-3.66 0.66,1.68 2.4,2.94 1.79999,1.26 4.14,1.26 1.01999,0 1.43999,-0.24 -0.3,1.38 -0.95999,2.52 -0.66001,1.08 -1.38,1.92 -0.72001,0.78 -1.44001,1.26 -0.72,0.42 -1.07999,0.42 -1.02001,0 -1.44001,-0.66 -0.36,-0.72 -0.36,-1.56 0,-1.44 0.72001,-2.28 h -0.06 q -0.12,0 -0.54,0.42 -0.36,0.42 -0.84,1.08 -0.42,0.6 -0.78,1.32 -0.36,0.66 -0.36,1.26 0,1.32 0.66001,2.34 0.71999,0.96 2.28,0.96 2.51999,-0.18 4.55999,-1.92 2.04001,-1.74 3.48,-4.14 1.44001,-2.4 2.22001,-5.04 0.77999,-2.64 0.77999,-4.62 -0.96,1.38 -2.7,2.4 -1.73999,1.02 -3.66,1.02 -1.62,0 -3.24,-0.9 -1.55999,-0.96 -2.69999,-3.12 0,-0.6 -0.30001,-0.6 -0.54,0 -1.43999,0.84 -0.9,0.78 -1.86,1.92 -0.9,1.08 -1.80001,2.28 -0.83999,1.2 -1.32,1.92 -0.29999,-0.3 -1.44,-0.3 -0.59999,0 -1.31999,0.18 -0.72001,0.12 -1.38,0.54 -0.66,0.36 -1.26,1.02 -0.60001,0.6 -0.96001,1.56 0.48001,-0.48 1.14,-0.78 0.66,-0.3 1.20001,-0.3 0.72,0 1.26,0.42 0.6,0.36 0.72,1.2 -0.90001,1.98 -1.74,4.14 -0.78001,2.16 -1.32001,4.26 -1.19999,-0.12 -1.86,-1.26 -0.6,-1.2 -0.6,-2.4 0,-1.26 0.66001,-2.28 -1.08001,1.14 -1.56001,2.34 -0.48,1.14 -0.48,2.34 0,1.56 0.78001,3 0.83999,1.38 2.28,2.22 -0.18001,0.9 -0.24001,1.86 -0.06,0.96 -0.06,1.98 0,6.36 2.76001,11.34 2.76,4.98 8.76,9.3 0.06,0.06 0.17999,0.06 0.24,0 0.54,-0.36 0.36,-0.36 0.54001,-0.48 0.53999,-0.36 1.67999,-1.38 1.14,-1.02 2.58001,-2.52 1.43999,-1.5 2.93999,-3.3 1.56001,-1.8 2.82001,-3.66 1.25999,-1.86 2.03999,-3.66 0.84,-1.86 0.84,-3.36 0,-1.38 -0.84,-2.16 -0.78,-0.84 -2.03999,-0.84 -0.9,0 -1.86001,0.42 -0.89999,0.36 -1.67999,1.08 -0.72,0.72 -1.26001,1.74 -0.47999,0.96 -0.54,2.16 z" />
      <path
         id="path44"
         style="font-family:VTC-TribalThreeFree"
         d="m 573.10187,71.32 q -0.54,-2.76 -1.85999,-5.64 -1.26001,-2.88 -3,-5.28 -1.68001,-2.46 -3.6,-4.14 -1.92001,-1.74 -3.78,-2.22 -0.24,0 -0.6,0.36 -0.30001,0.3 -0.72001,0.78 -0.36,0.42 -0.77999,0.96 -0.42001,0.54 -0.84001,0.96 -1.01999,-0.36 -1.86,-0.36 -1.38,0 -2.4,0.48 -0.96,0.42 -1.62,1.08 -0.6,0.6 -0.96,1.26 -0.29999,0.66 -0.29999,1.08 v -0.06 0.12 q 0.48,-0.48 1.13999,-0.78 0.72001,-0.36 1.38,-0.36 0.72001,0 1.26,0.42 0.6,0.36 0.9,1.26 -0.17999,0.36 -0.66,1.32 -0.48,0.9 -0.96,1.92 -0.47999,0.96 -0.95999,1.74 -0.48,0.72 -0.66001,0.72 -1.02,0 -1.85999,0.42 -0.84,0.36 -1.44001,0.96 -0.6,0.54 -0.89999,1.2 -0.30001,0.6 -0.30001,1.02 0.84,-0.48 1.68001,-0.6 0.84,-0.12 1.55999,0.48 -0.66,2.16 -1.07999,4.44 -0.42001,2.22 -0.42001,4.5 0,2.94 0.6,5.88 0.66,2.94 1.92,5.64 1.26001,2.7 3.18,4.98 1.92,2.28 4.5,3.9 0.12001,0 0.42,-0.36 0.36,-0.42 0.42001,-0.48 1.14,-1.32 2.15999,-2.64 1.02,-1.38 1.8,-2.76 0.84,-1.44 1.32001,-2.88 0.48,-1.5 0.48,-3.12 0,-2.46 -1.26,-3.66 -1.26,-1.26 -2.82001,-1.26 -1.55999,-0.06 -2.88,1.08 -1.32,1.08 -1.5,3.3 v 0.18 q 0.60001,-0.96 1.56001,-1.5 0.95999,-0.6 1.79999,-0.6 1.08001,0 1.5,0.72 0.48001,0.66 0.48001,1.62 0,0.96 -0.36,2.16 -0.36001,1.14 -0.9,2.16 -0.48,1.02 -1.02,1.86 -0.48,0.78 -0.84,1.02 -2.82001,-1.86 -4.38,-4.68 -1.56001,-2.88 -2.28,-6 -0.66001,-3.18 -0.54001,-6.18 0.12,-3.06 0.78,-5.34 1.02001,0.6 1.86,1.86 0.84,1.2 1.86,2.4 1.56001,1.74 3.30001,2.04 1.74,0.24 3.24,-0.48 1.55999,-0.78 2.64,-2.28 1.07999,-1.56 1.38,-3.48 -0.06,-0.06 -0.06,-0.06 -0.72,1.2 -1.67999,2.04 -0.96001,0.84 -2.10001,1.14 -1.08,0.24 -2.27999,-0.18 -1.14,-0.42 -2.28001,-1.8 -0.47999,-0.6 -0.9,-1.32 -0.42,-0.72 -0.9,-1.44 -0.48,-0.78 -1.14,-1.44 -0.65999,-0.72 -1.56,-1.32 0.42001,-1.08 1.02001,-2.46 0.65999,-1.44 1.43999,-2.88 0.78,-1.44 1.56001,-2.7 0.83999,-1.26 1.62,-2.1 0.06,0 0.29999,-0.06 0.78,0.36 1.44001,1.08 0.71999,0.66 1.31999,1.56 0.60001,0.84 1.08001,1.74 0.48,0.84 0.83999,1.44 0.12,0.42 0.12,0.84 0.06,0.36 0.06,0.84 0,1.38 -0.60001,2.58 -0.53999,1.14 -2.1,1.14 -0.71999,0 -1.26,-0.54 -0.48,-0.54 -0.48,-1.92 0,-0.3 0,-0.66 0.06,-0.36 0.12,-0.84 -1.19999,0.6 -1.98,1.68 -0.71999,1.08 -0.71999,2.16 0,1.02 0.48,1.8 0.47999,0.72 1.07999,1.2 0.66,0.42 1.32001,0.66 0.72,0.18 1.19999,0.18 0.90001,0 1.74,-0.36 0.9,-0.36 1.62,-0.96 0.72,-0.66 1.20001,-1.5 0.48,-0.84 0.6,-1.8 1.26,3 1.91999,5.94 0.72001,2.94 0.72001,6.18 0,5.4 -1.32001,10.5 -1.31999,5.04 -4.43999,8.76 l 0.06,0.06 q 3.30001,-2.88 5.04,-6.12 1.74,-3.3 2.52001,-6.42 0.78,-3.18 0.9,-5.88 0.12,-2.76 0.12,-4.56 0,-1.38 -0.12,-2.7 -0.06,-1.32 -0.30001,-2.64 z" />
    </g>
  </g>
</svg>
