<?xml version="1.0" encoding="UTF-8" standalone="no"?>
<svg
   xmlns:dc="http://purl.org/dc/elements/1.1/"
   xmlns:cc="http://creativecommons.org/ns#"
   xmlns:rdf="http://www.w3.org/1999/02/22-rdf-syntax-ns#"
   xmlns:svg="http://www.w3.org/2000/svg"
   xmlns="http://www.w3.org/2000/svg"
   id="svg10"
   width="500px"
   version="1.1"
   height="200px">
  <metadata
     id="metadata14">
    <rdf:RDF>
      <cc:Work
         rdf:about="">
        <dc:format>image/svg+xml</dc:format>
        <dc:type
           rdf:resource="http://purl.org/dc/dcmitype/StillImage" />
      </cc:Work>
    </rdf:RDF>
  </metadata>
  <defs
     id="defs4">
    <style
       id="style2"
       type="text/css"><![CDATA[    
     @font-face {font-family:vtks Deja Vu;
     src: url('/Users/francesco/Repos/write-logos/src/fonts//vtks_Deja_Vu.ttf');}]]></style>
  </defs>
  <g
     id="g8"
     style="font-size:30px;font-family:'vtks Deja Vu'">
    <g
       style=""
       id="text6"
       aria-label="eXtemporanea">
      <path
         id="path16"
         style=""
         d="m 105.6543,79.711914 q 1.96289,0 2.69531,2.988281 v 0.410157 q 0,2.021484 -1.99219,3.105468 0,0.131836 0.64453,0.234375 l 0.87891,0.46875 v -0.05859 l -0.11719,-0.46875 v -0.527344 q 0,-0.366211 0.52735,-0.761719 h 0.0586 v 0.05859 l -0.11719,0.234375 h 0.0586 q 0.62988,-0.761719 1.23046,-0.761719 1.14258,0 1.75782,1.289063 v 0.351562 q 0,1.201172 -1.875,1.582031 h -0.23438 l -0.41015,-0.05859 q 0.9375,1.435546 0.9375,3.105468 -0.14649,1.875 -0.35157,1.875 h -0.41015 v 0.05859 l 0.41015,2.34375 q -1.68457,0.878906 -3.80859,0.878906 -1.37695,0 -2.63672,-0.585937 v 0.117187 q 0.39551,0.864258 1.40625,1.230469 0.71777,0.175781 1.34766,0.175781 0.76172,0 5.09765,-0.878906 l 1.23047,-0.175781 0.23438,0.05859 0.29297,-0.05859 q 2.98828,0.541992 2.98828,1.699219 v 0.117187 q 0,0.688477 -1.81641,1.816406 l -1.23047,0.351563 q -1.58203,0 -1.58203,-0.996094 0.11719,-0.527344 0.58594,-0.527344 h 0.11719 l 0.17578,0.175782 q 0,0.117187 -0.41016,0.117187 l -0.11719,0.292969 q 0.17578,0.527344 0.76172,0.527344 h 0.29297 q 1.72852,0 2.87109,-1.640625 l 0.0586,-0.292969 q 0,-0.65918 -2.28516,-1.230469 h -0.82031 q -0.9082,0 -5.44922,0.9375 l -0.9375,0.117188 q -2.3291,0 -2.98828,-1.523438 0,-0.615234 -0.70313,-0.996094 -1.46484,-1.420898 -1.46484,-3.339843 V 90.90332 q 0,-2.548828 2.34375,-4.101562 0.83496,-0.46875 2.05078,-0.644531 0.46875,-0.629883 0.46875,-1.289063 v -0.05859 q -0.29297,-1.40625 -1.05469,-1.40625 h -0.29296 q -0.4834,0 -0.64454,0.644532 0.19043,0.46875 0.58594,0.46875 l 0.29297,-0.05859 0.17578,0.234375 -0.17578,0.175781 q -1.11328,-0.175781 -1.11328,-0.820312 0,-0.600586 0.87891,-0.820313 h 0.17578 q 0.96679,0 1.34765,1.523438 0,0.893554 -0.41015,1.40625 v 0.05859 h 0.52734 q 1.12793,-0.380859 1.99219,-1.816406 0.21972,-0.585937 0.29297,-1.289062 Q 107.5,80.12207 105.6543,80.12207 q -0.73242,0 -0.82032,0.644532 v 0.175781 q 0,0.146484 0.70313,0.703125 v 0.05859 l -0.11719,0.117187 h -0.23437 q -0.70313,-0.395508 -0.70313,-0.996094 V 80.59082 q 0.24903,-0.878906 1.17188,-0.878906 z m 2.40234,6.679688 q 0.20508,1.113281 1.05469,1.113281 h 0.35156 q 1.58203,-0.336914 1.58203,-1.464844 -0.39551,-1.054687 -1.46484,-1.054687 h -0.11719 q -0.67383,0 -1.40625,1.40625 z m 1.05469,-1.171875 q 0.33691,0.263671 0.41015,0.585937 l 0.9961,-0.351562 0.11719,0.117187 -0.9375,0.644531 0.23437,0.820313 -0.17578,0.117187 h -0.0586 l -0.52735,-0.410156 q -0.27832,0 -0.46875,0.351563 h -0.0586 l -0.11719,-0.117188 v -0.05859 l 0.11719,-0.410156 -0.17578,-0.175781 v -0.05859 q 0.52734,-0.263672 0.52734,-0.996094 l 0.0586,-0.05859 z m -7.67578,6.035156 q 0,2.695312 2.46093,3.632812 0.83497,0.234375 1.64063,0.234375 2.63672,-0.131836 2.75391,-0.585937 -0.21973,-1.464844 -0.35157,-1.464844 -0.96679,0.292969 -2.05078,0.292969 -1.72851,0 -2.16797,-1.230469 v -0.117187 l 0.11719,-0.117188 h 4.74609 q 0.17579,0 0.17579,-0.9375 0,-3.28125 -2.8711,-3.808594 l -0.64453,-0.05859 q -2.75391,0 -3.69141,3.046875 z m 3.92578,-3.925781 q 2.28515,0 2.98828,2.402343 0.17578,0.541992 0.17578,1.347657 v 0.117187 q 0,0.424805 -0.17578,0.46875 h -4.6875 l -0.17578,0.175781 v 0.175782 q 0.29297,1.582031 2.28515,1.582031 h 0.17579 q 1.06933,0 1.8164,-0.234375 0.14649,0 0.23438,1.113281 -1.04004,0.410156 -2.40235,0.410156 h -0.11718 q -2.49024,0 -3.45704,-1.992187 -0.35156,-0.864258 -0.35156,-1.699219 0,-2.402344 2.10938,-3.515625 0.71777,-0.351562 1.58203,-0.351562 z m -3.51563,3.925781 q 0,2.475586 2.28516,3.222656 0.60059,0.234375 1.40625,0.234375 1.18652,0 2.28516,-0.351562 l -0.11719,-0.761719 q -0.89356,0.175781 -1.81641,0.175781 h -0.0586 q -1.9336,0 -2.51953,-1.464844 v -0.527343 l 0.29297,-0.292969 h 4.6875 l 0.0586,-0.292969 v -0.05859 q 0,-2.958984 -2.34375,-3.574218 l -0.76172,-0.05859 q -2.03613,0 -3.04687,2.050781 -0.35157,1.040039 -0.35157,1.699219 z m 3.22266,-2.988281 h 0.23437 q 1.39161,0 1.64063,1.699218 v 0.410157 l -0.29297,0.292968 h -3.04687 l -0.29297,-0.292968 v -0.234375 q 0,-1.171875 1.28906,-1.816407 z m -1.58203,1.933593 v 0.117188 l 0.17578,0.175781 h 2.92969 l 0.17578,-0.175781 v -0.292969 q -0.17578,-1.582031 -1.52344,-1.582031 h -0.11719 q -1.40625,0 -1.64062,1.757812 z m 1.58203,-1.523437 h 0.23437 q 1.05469,0 1.23047,1.464844 l -0.11718,0.117187 h -2.69532 v -0.117187 q 0.32227,-1.464844 1.34766,-1.464844 z" />
      <path
         id="path18"
         style=""
         d="m 116.59668,74.365234 0.0586,0.05859 h 0.0586 l -0.0586,0.585938 v 0.351562 q 0,2.138672 -0.82031,2.988281 l -0.41016,0.527344 q 0.49805,0 0.9961,0.46875 0.52734,0.644531 0.52734,1.113281 v 0.175782 l -0.11719,0.117187 h -0.0586 q -0.62988,-0.527344 -1.875,-0.878906 l -0.11719,-0.117188 h -0.17578 q -0.11719,0 -0.70312,1.347657 0.17578,0.292968 0.17578,0.585937 0,0.512695 -0.76172,0.644531 l -0.46875,1.230469 h 3.04687 q 0.23438,-0.117187 0.23438,-0.292969 -0.0879,-0.791015 -0.64453,-1.582031 v -0.05859 l 0.11719,-0.117187 q 0.99609,0.27832 0.99609,1.347656 1.17187,-1.054687 1.17187,-1.230469 l -0.0586,-0.175781 q 0,-0.46875 0.23438,-0.46875 l -0.0586,-0.410156 0.0586,-0.292969 q -0.45411,-0.527344 -0.82032,-1.347656 l -0.17578,-0.175781 v -0.117188 h 0.46875 q 0.65918,0 1.17188,0.46875 1.05468,-1.230469 1.05468,-1.875 h 0.0586 q 0.41015,0.761719 0.41015,1.757813 v 0.234375 q 0,0.219726 -0.23437,0.527343 h 0.23437 l 0.41016,-0.05859 0.0586,0.05859 v 0.05859 q -0.24902,1.582031 -1.17187,1.582031 l -0.29297,0.05859 -0.17578,-0.292969 q -0.29297,0.0293 -0.29297,0.351563 -0.24902,0.249023 -0.64453,0.351562 l -0.35156,0.410157 0.52734,-0.117188 q 0.70313,0.07324 0.70313,0.585938 l -0.0586,0.05859 h -0.0586 q -0.36621,-0.292968 -0.58594,-0.292968 l -0.9375,0.292968 -0.0586,-0.05859 -0.70313,0.820312 q 0.70313,0 0.70313,0.46875 l 0.8789,1.816406 h 0.11719 q 0.95215,-2.255859 1.11328,-2.285156 h 0.52735 q 0.49804,-2.050781 1.99218,-2.050781 0.52735,0 1.17188,0.703125 0,-0.410156 1.23047,-0.644531 1.01074,0 1.17187,1.582031 v 0.05859 q 0,1.010742 -0.9375,2.226562 v 0.05859 q 0.29297,0.46875 0.29297,0.703125 v 0.46875 q 0,0.673828 -0.99609,1.171875 0.64453,1.479492 0.64453,2.578125 0,1.49414 -1.28906,3.515625 l 1.11328,1.933594 -0.11719,0.117187 h -4.62891 l -0.64453,-0.996094 q -1.15722,0.234375 -1.875,0.703125 0,0.292969 -0.46875,0.292969 -0.76172,0.703125 -0.76172,1.230469 v 0.175781 q 0,0.688477 0.35157,0.878906 0.84961,-1.054687 1.64062,-1.054687 1.28906,0 1.28906,1.054687 -0.33691,1.171875 -1.64062,1.171875 -0.38086,0 -1.11328,-0.234375 v 0.05859 l -0.0586,0.351563 v 0.05859 q 0,0.659176 0.70313,1.113286 0.35156,-0.52735 0.9375,-0.64454 1.17187,0.29297 1.17187,0.52735 v 0.0586 q 0,0.55664 -1.52343,0.76172 h -0.35157 l -0.0586,0.23438 q 0,1.75781 1.64062,1.75781 0.38086,-0.17578 0.70313,-0.17578 0.82031,0.46875 0.82031,0.99609 v 0.46875 q -0.49804,1.34766 -1.52344,1.34766 h -0.35156 q -0.52734,-0.0879 -0.52734,-0.46875 l 0.17578,-0.23438 h 0.11719 q 0.11718,0 0.11718,0.29297 l 0.0586,0.0586 h 0.0586 q 1.08399,0 1.52344,-0.99609 v -0.46875 q -0.27832,-0.76172 -0.58594,-0.76172 l -0.82031,0.23438 q -1.81641,-0.24903 -1.81641,-1.23047 l 0.11719,-1.17188 q -1.05469,-0.38086 -1.05469,-1.34765 v -0.468753 l 0.0586,-0.585938 q -0.27832,0 -0.9375,-0.878906 -0.33692,0.644531 -1.17188,0.644531 -0.9375,0 -1.23047,-0.644531 l 0.11719,-0.117187 q 0.36621,0.527343 1.05469,0.527343 1.11328,-0.131836 1.11328,-0.878906 l -0.0586,-0.410156 q -0.64454,0.9375 -1.40625,0.9375 h -0.0586 q -0.33691,0 -0.64453,-0.234375 h -0.46875 q -1.08398,0 -1.40625,-1.464844 0,-0.410156 0.23438,-0.644531 l -0.17579,-0.585938 h 0.0586 l -0.0586,-0.05859 q 0,-1.040039 1.40625,-1.347657 h 0.41016 v 0.117188 h -0.29297 q -1.23047,0.27832 -1.23047,1.230469 0.33692,1.113281 1.05469,1.113281 0.52734,0 0.76172,-0.292969 h -0.70313 q -0.64453,-0.512695 -0.64453,-0.9375 0.24903,-0.820312 0.9375,-0.820312 l 0.17578,0.05859 v 0.117188 q -0.70312,0 -0.70312,0.761719 0.11719,0.263671 0.23437,0.292968 h 0.0586 q 0.17578,-0.102539 1.93359,-3.28125 h -0.0586 q -0.43945,0.175782 -0.76172,0.175782 -0.92285,0 -1.05469,-1.699219 0,-0.483399 0.17578,-1.171875 -1.99218,-0.644531 -1.99218,-3.457031 0,-1.010743 0.11718,-1.582032 l -0.82031,-1.230468 q 0,-0.117188 0.17578,-0.117188 0.24903,0 0.82031,0.761719 l 0.41016,-1.523438 q -0.62988,-1.508789 -1.17187,-2.050781 0,-0.19043 0.82031,-0.351562 l 0.0586,0.05859 h 0.0586 l 0.23437,-0.05859 q 0.23438,0.04395 0.64453,0.527343 0,-0.292968 1.05469,-1.113281 h 0.0586 l 0.11719,0.117188 v 0.644531 q 0,0.27832 -0.17578,0.585937 h 0.0586 l 0.23438,-0.05859 0.46875,0.175781 0.64453,-1.113281 v -0.117188 q -0.19043,0 -0.82031,-1.640625 -0.16114,0 -0.41016,-0.820312 v -0.05859 l 0.11719,-0.117188 q 0.71777,0 1.23047,1.113282 h 0.11718 q 0,-0.84961 2.10938,-3.691407 z m -1.99219,3.984375 0.35156,0.117188 q 0,-0.292969 0.41016,-1.40625 h 0.11719 l -0.46875,1.464844 0.17578,0.117187 q 1.23047,-1.040039 1.23047,-3.515625 -1.81641,2.34375 -1.81641,3.222656 z m 5.27344,-2.050781 h 0.0586 q 0.17578,0.05859 0.17578,0.351563 -0.0586,0.46875 -0.23437,0.46875 l -0.17578,-0.175782 v -0.292968 q 0.0439,-0.351563 0.17578,-0.351563 z m -1.23047,0.410156 q 0.46875,0.366211 0.46875,1.054688 l -0.17578,0.234375 q -0.41016,-0.717774 -0.41016,-1.171875 z m -5.33203,0.527344 v 0.05859 q 0.82031,1.376953 0.82031,1.699219 h 0.0586 q 0,-0.351563 0.11718,-0.351563 -0.52734,-1.40625 -0.99609,-1.40625 z m 7.96875,0.05859 0.0586,0.05859 v 0.117187 q -0.35156,0.454102 -0.64453,0.585938 h -0.0586 l -0.11719,-0.117188 v -0.05859 q 0.4541,-0.585937 0.76172,-0.585937 z m -3.22266,0.05859 q 0.26368,0 0.46875,1.230468 l -0.17578,0.234375 q -0.17578,-0.292968 -0.41015,-1.40625 l 0.0586,-0.05859 z m 0.70313,1.992187 q 0.21973,0 0.58594,0.292969 h 0.11718 q 0.20508,0 0.29297,-0.644531 l -0.0586,-0.996094 z m -3.28125,-1.347656 v 0.117187 q -0.24902,0.410157 -0.35156,0.410157 v -0.175782 z m 5.91797,0.46875 h 0.17578 l 0.11719,0.117187 v 0.117188 q 0,0.131836 -0.58594,0.175781 -0.29297,-0.07324 -0.29297,-0.175781 0,-0.161133 0.58594,-0.234375 z m -6.97266,0.292969 -0.0586,0.410156 0.0586,0.175781 h 0.0586 q 0,-0.234375 0.35157,-0.527344 l 0.0586,0.05859 v 0.05859 l -0.23437,0.585937 h 0.23437 q 0.13184,0 0.29297,-0.410156 -0.13184,-0.351562 -0.23438,-0.351562 z m 2.87109,0.117187 q 0.5127,1.054688 0.76172,1.230469 l 0.35157,-0.585938 q -0.26368,-0.644531 -0.87891,-0.644531 z m -1.99218,0.410156 q 0,0.175782 -0.29297,0.46875 1.02539,0.219727 1.64062,0.644532 v -0.05859 q -0.43945,-1.054688 -1.23047,-1.054688 z m 2.92968,0.820313 v 0.292969 l 0.35157,-0.292969 h 0.17578 q 0.29297,0.131836 0.29297,0.46875 h 0.11718 v -0.46875 q 0,-0.410156 -0.29296,-0.410156 l -0.46875,0.410156 z m 2.51954,-0.46875 h 0.70312 l 0.17578,0.175781 v 0.05859 l -0.17578,0.175781 q -0.82031,-0.04394 -0.82031,-0.234375 v -0.05859 z m -8.90625,0.878906 0.11718,0.761719 h 0.0586 l 0.52734,-0.820313 q 0.17578,-0.307617 0.17578,-0.585937 v -0.117188 h -0.0586 z m 7.61718,-0.527344 v 0.761719 l -0.23437,0.292969 h 0.11719 q 0.55664,0 0.8789,-0.878906 v -0.117188 h -0.46875 z m -9.14062,0.410157 0.99609,1.640625 h 0.0586 l 0.35156,-0.527344 q -0.17578,0 -0.23438,-0.820313 l -0.52734,-0.46875 q -0.64453,0.05859 -0.64453,0.175782 z m 8.08594,0.351562 v 0.05859 h 0.0586 l 0.23437,-0.292969 -0.11718,-0.117187 q -0.17578,0.05859 -0.17578,0.351562 z m 0.35156,0 v 0.05859 h 0.11719 v -0.05859 z m -7.96875,5.449219 q 0.68848,-0.527344 0.9375,-0.527344 l 0.0586,0.175781 q -0.70312,1.289063 -0.8789,1.289063 0,0.849609 1.05468,1.699219 l 0.58594,0.234375 0.52734,-1.523438 q -0.82031,-1.010742 -0.82031,-2.578125 l 0.11719,-0.9375 -0.23438,-0.410156 0.0586,-0.05859 h 0.35156 l 0.41016,-1.40625 -0.11719,-0.410156 v -0.05859 l 0.17578,-0.175781 0.23438,0.117187 0.23437,-0.585937 -0.17578,-0.117188 h -0.17578 q -0.62988,0 -1.34766,0.9375 -0.99609,2.197266 -0.99609,4.335938 z m 7.20703,-5.039063 v 0.292969 h 0.0586 l 0.17578,-0.292969 z m -4.45313,0.761719 0.23438,-0.234375 v -0.234375 q -0.14648,0 -0.23438,0.46875 z m 6.44532,1.640625 h 0.23437 q 0.29297,-1.347656 1.34766,-1.347656 l 0.17578,-0.05859 q 0.77637,0 1.11328,1.289063 v 0.117187 h 0.0586 l 0.0586,-0.410156 q 0,-0.703125 -1.11328,-1.289063 l -0.23438,-0.05859 q -1.06933,0 -1.64062,1.757812 z m -4.10157,-1.640625 v 0.05859 l 0.29297,0.703125 h 0.11719 q -0.19043,-0.761719 -0.41016,-0.761719 z m 7.14844,0.351563 v 0.05859 l 0.11719,0.117188 0.52734,-0.117188 q 0.87891,0.336914 0.87891,1.054688 v 0.292969 q 0,0.981445 -1.40625,1.640625 -0.13184,0.05859 -0.46875,0.644531 h 0.11719 q 0.9375,-0.146485 0.9375,-0.527344 l 0.0586,0.05859 h 0.0586 q 1.17188,-1.245117 1.17188,-2.285156 -0.16113,-1.289063 -0.76172,-1.289063 h -0.35156 q -0.19043,0 -0.87891,0.351563 z m -2.63672,1.289062 h 0.52735 q 0.33691,-0.46875 0.76172,-0.46875 0.38086,0.01465 0.76171,0.46875 v -0.05859 q -0.16113,-0.996093 -0.82031,-0.996093 -0.86426,0 -1.23047,1.054687 z m 2.8125,-0.878906 0.11719,0.46875 v 0.292969 l -0.0586,0.05859 v 0.05859 h 0.76172 v 0.05859 l -0.58594,1.113281 q 0.76172,-0.541992 0.76172,-1.171875 v -0.05859 q 0,-0.703125 -0.64453,-0.878906 h -0.0586 z m -2.05078,0.820312 v 0.05859 h 0.87891 q 0,-0.175781 -0.46875,-0.234375 z m -7.5,0.9375 2.92969,5.273438 -2.98828,5.332031 h 2.69531 q 1.59668,-3.706055 1.69922,-3.75 l 1.99219,3.75 h 2.63672 v -0.05859 q -2.94434,-5.024414 -3.04688,-5.390625 l 2.92969,-5.15625 h -2.63672 q -1.05469,1.889649 -1.64063,3.632813 h -0.17578 l -1.64062,-3.632813 z m -1.05469,0.05859 -0.0586,0.410156 v 0.46875 q 0,1.054688 0.64453,1.933594 h 0.0586 l 0.46875,-0.878906 -1.05469,-1.933594 z m 1.52344,0.175781 h 1.99219 q 0.16113,0 1.81641,3.632813 l 0.0586,0.05859 h 0.23437 q 0.17579,0 0.9961,-2.109375 0.70312,-1.538086 0.82031,-1.582032 h 1.99219 v 0.05859 q -2.75391,4.731445 -2.75391,4.921875 l 2.8711,5.15625 h -1.99219 q -0.14649,-0.04394 -1.99219,-3.808594 h -0.29297 q -0.17578,0.102539 -0.99609,2.109375 -0.74707,1.640625 -0.87891,1.699219 h -1.875 l -0.11719,-0.117187 q 2.8125,-4.702149 2.8125,-4.980469 v -0.05859 z m 0.29297,0.175782 v 0.05859 q 2.57813,4.497071 2.57813,4.6875 v 0.175782 q 0,0.190429 -2.69532,4.863281 h 1.69922 q 1.55274,-3.647461 1.75781,-3.808594 h 0.41016 q 0.21973,0 0.99609,1.816406 l 0.9961,1.992188 h 1.75781 q -2.69531,-4.570313 -2.8125,-4.980469 v -0.05859 q 0,-0.205078 2.63672,-4.6875 v -0.05859 h -1.58203 q -0.30762,0.380859 -1.64063,3.515625 l -0.23437,0.175781 h -0.29297 q -0.26367,0 -0.99609,-1.875 l -0.87891,-1.816406 z m 9.49219,1.054687 v 0.410156 q 0,0.571289 -0.70313,0.9375 l 0.41016,0.410157 h 0.0586 q 0.87891,-0.615235 0.87891,-1.230469 l -0.23438,-0.761719 h -0.0586 z m -0.58594,0.292969 h -0.17578 l -0.58594,-0.05859 -0.23437,0.46875 q 0.19043,0 0.64453,0.351563 0.70312,-0.205079 0.70312,-0.703125 v -0.175782 z m -12.48047,0.351562 v 0.05859 l 0.41016,-0.410156 v -0.05859 z m 3.04688,0.292969 q -0.41016,0.65918 -0.41016,0.878906 0.58594,0.234375 1.11328,0.234375 -0.60058,-1.098632 -0.70312,-1.113281 z m 8.20312,0.117188 -0.58594,1.113281 q 1.81641,0.65918 1.81641,3.222656 0,0.966797 -0.46875,2.167969 v 0.05859 h 0.0586 q 1.05469,-1.728516 1.05469,-3.046875 v -0.351563 q 0,-1.787109 -1.46484,-2.988281 z m -8.78906,0.996093 -0.46875,1.289063 q 0.95215,0.292969 1.28906,0.292969 h 0.29297 l 0.99609,-0.05859 v -0.05859 l -0.76171,-1.347656 -0.41016,0.05859 h -0.11719 l -0.82031,-0.234375 z m 7.96875,0.410157 -0.23438,0.46875 q 1.34766,1.069336 1.34766,2.34375 0,0.307617 -0.35156,0.9375 0.36621,0.74707 0.58594,0.9375 0.29296,-0.908204 0.29296,-1.640625 v -0.410157 q 0,-1.831054 -1.40625,-2.578125 z m -0.41016,0.703125 q 0,0.146484 -0.29297,0.527343 l 1.28907,2.167969 h 0.0586 l 0.17578,-0.644531 q 0,-1.010742 -1.23047,-2.050781 z m -8.14453,0.585937 -0.11719,1.113281 v 0.175782 q 0.19043,0.996093 0.82032,0.996093 1.11328,0 1.34765,-0.9375 l 0.70313,-1.171875 -0.41016,0.05859 h -0.76172 l -0.35156,0.05859 -1.17187,-0.292969 z m 5.27344,3.75 -0.76172,1.757813 h 0.0586 l 1.40625,-0.527344 -0.58593,-1.230469 z m -5.74219,3.222656 h -0.52734 l -0.70313,-0.585937 h -0.0586 v 0.175781 q 0.23437,1.347656 1.34766,1.347656 1.58203,-0.292968 1.58203,-1.582031 h -0.23438 q -0.49804,1.171875 -1.40625,1.171875 -0.41015,0 -0.82031,-0.410156 v -0.05859 q 0.39551,0.234375 0.70312,0.234375 h 0.17579 q 1.11328,-0.263672 1.11328,-0.9375 h -0.11719 q -0.68848,0.644531 -1.05469,0.644531 z m 1.875,-0.644531 v 0.117188 q 0,1.186523 -1.17187,1.699218 h -0.0586 l 0.11719,0.117188 h 0.23438 q 1.23046,-0.27832 1.23046,-1.054688 v -0.410156 h 0.11719 v 0.175781 h 0.0586 q 0,-0.263672 0.35156,-0.644531 z m 0.70313,0.761719 v 0.05859 q 0,0.952148 0.76172,1.640625 h 0.0586 v -0.05859 q -0.29297,-0.410156 -0.29297,-0.761719 v -0.175781 q 0,-0.791016 0.70313,-1.464844 h -0.82032 q -0.41015,0.249024 -0.41015,0.761719 z m 1.75781,1.875 0.87891,0.175781 q 1.23046,-0.102539 1.23046,-0.761719 0,-0.395507 -0.82031,-0.46875 -0.83496,0 -1.34765,1.054688 z m 0.70312,2.167973 q 0.43946,-0.29297 0.64454,-0.29297 v -0.0586 h -0.17579 q -0.21972,0 -0.46875,0.35157 z m 0.17579,0.29296 h 0.29296 q 0.30762,0 0.64454,-0.35156 v -0.11719 q -0.542,0 -0.9375,0.46875 z m 1.23046,-0.41015 -0.11718,0.29297 h 0.0586 l 0.17578,-0.17578 z" />
      <path
         id="path20"
         style=""
         d="m 132.66602,79.84375 h 0.0586 q 1.37695,0 1.99219,1.582031 0.11718,0.234375 0.11718,0.644531 0,1.464844 -1.28906,2.695313 0,0.512695 -1.11328,1.289062 l -0.29297,0.117188 v 0.05859 q 0.41016,0 0.41016,0.117187 V 89.6875 l -0.11719,0.117187 h -1.58203 v 2.226563 l 0.11719,0.117187 1.46484,-0.292968 0.0586,0.05859 v 1.699219 l 0.0586,1.757813 -1.23047,0.46875 q -0.26367,1.113281 -0.99609,1.113281 h -0.17579 l -0.35156,-0.117188 -0.35156,0.644532 q 0.46875,0.336914 0.46875,0.703125 v 0.117187 q 0,0.483399 -0.64453,0.585938 v 0.527343 q 0,0.307618 -0.17578,0.351563 l 0.0586,0.292965 q -0.0879,1.46485 -0.35156,1.46485 l -0.11719,-0.11719 0.0586,-1.464844 q 0,-1.186523 -0.29296,-1.992187 v -0.175782 l 0.11718,-0.410156 h -0.0586 l -0.23438,-0.234375 v -0.117187 l 0.17579,-0.527344 q -0.11719,-0.585938 -0.23438,-0.585938 h -0.11719 q -0.19043,0 -0.99609,0.527344 v 0.05859 q 0.30762,0 0.9375,0.703125 v 0.117187 L 124.4043,99.765625 124.11133,100 123.99414,99.882812 v -0.05859 q 1.05469,-1.391602 2.28516,-2.519532 h -0.0586 l -0.64453,0.05859 -0.0586,-0.05859 v -0.175781 q 1.05469,-1.289062 1.69922,-1.464844 v -0.05859 l -0.29297,0.05859 h -0.35156 q -0.52735,-0.07324 -0.52735,-0.527343 V 95.019531 L 126.16211,94.375 q -0.29297,0 -0.52734,-0.46875 0.17578,-0.585938 0.52734,-0.585938 v -0.05859 q -0.76172,-0.117188 -0.76172,-0.644532 0,-1.347656 1.23047,-1.347656 l 0.0586,0.05859 v -1.523438 h -0.8789 L 125.69336,89.6875 v -3.339844 l 0.11719,-0.117187 h 0.8789 v -1.171875 q 0,-0.102539 3.16407,-0.9375 1.23046,-0.9375 1.23046,-2.226563 -0.29296,-0.761719 -0.99609,-0.761719 h -0.17578 q -1.40625,0.351563 -1.40625,1.347657 v 0.117187 l 0.29297,0.05859 0.9375,-0.05859 0.0586,0.05859 v 0.05859 q 0,0.249023 -0.8789,0.351562 -0.82032,0 -0.82032,-0.585937 v -0.117188 q 0.52735,-1.40625 1.875,-1.40625 1.23047,0.102539 1.23047,1.171875 0,0.84961 -0.99609,1.875 h 0.0586 l 0.52735,-0.117187 0.0586,0.05859 v 1.816407 q 1.65527,-0.512696 2.57812,-1.171875 v -0.234375 q -0.14648,-0.703125 -0.70312,-0.703125 h -0.29297 q -0.32227,0 -0.41016,0.292968 l 0.17579,0.46875 h -0.0586 q -0.46875,0 -0.46875,-0.46875 v -0.05859 q 0,-0.395508 0.58594,-0.527344 1.17187,0 1.34766,0.9375 v 0.05859 q 1.05468,-0.834961 1.05468,-2.167969 v -0.117188 q 0,-1.347656 -1.46484,-1.933593 l -0.46875,-0.05859 h -0.11719 q -0.99609,0.322266 -0.99609,0.9375 v 0.410156 l 0.23437,0.585938 -0.0586,0.05859 h -0.0586 q -0.41016,-0.27832 -0.41016,-0.761718 0.23437,-1.464844 1.34766,-1.464844 z m -1.81641,6.09375 v 0.292969 h 0.64453 q 0.87891,0 1.75781,-1.230469 v -0.05859 Q 131.4209,85.9375 130.84961,85.9375 Z m -3.22266,-0.175781 v 1.230468 l -0.11718,0.117188 h -0.9375 v 1.757812 h 0.9375 l 0.11718,0.117188 v 3.339844 q 0,2.036133 1.52344,2.519531 l 0.82031,0.117187 h 0.23438 q 0.65918,0 1.40625,-0.175781 v -1.699219 l -0.0586,-0.05859 v -0.05859 l -0.0586,0.05859 h -0.70312 q -0.87891,0 -0.87891,-1.523438 v -2.519531 l 0.11719,-0.117188 h 1.64062 v -1.640625 l -0.11719,-0.117187 h -1.52343 l -0.11719,-0.117188 v -1.933593 q -2.28516,0.585937 -2.28516,0.703125 z m 2.10938,-0.351563 v 1.757813 l 0.17578,0.175781 h 1.40625 l 0.11719,0.117187 v 1.054688 l -0.11719,0.117187 h -1.40625 l -0.17578,0.175782 v 3.28125 q 0.0879,1.171875 0.9375,1.171875 h 0.58594 l 0.11718,0.117187 v 1.113281 q 0,0.234375 -1.11328,0.234375 h -0.29297 q -2.16797,0 -2.16797,-3.046875 v -2.871093 l -0.17578,-0.175782 h -0.70312 l -0.11719,-0.117187 v -1.054688 l 0.11719,-0.117187 h 0.70312 l 0.17578,-0.175781 v -1.171875 q 0,-0.175782 1.9336,-0.585938 z m -1.75781,0.703125 v 1.113281 l -0.29297,0.292969 h -0.70313 v 0.9375 h 0.70313 L 127.97852,88.75 v 2.402344 q 0,2.416992 0.70312,2.988281 0.74707,0.410156 1.34766,0.410156 h 0.17578 l 0.99609,-0.117187 V 93.4375 h -0.58594 q -0.8789,0 -1.05468,-1.289063 V 88.75 l 0.29297,-0.292969 h 1.40625 v -0.9375 h -1.40625 l -0.29297,-0.292969 v -1.582031 h -0.0586 q -1.52343,0.336914 -1.52343,0.46875 z m -2.40235,6.445313 q 0,0.512695 1.11328,0.644531 v 0.05859 q -0.73242,0.292968 -0.82031,0.527343 v 0.117188 l 0.52734,0.46875 -0.17578,0.761719 q 0,0.351562 0.64453,0.351562 l 0.41016,-0.117187 q 0.29297,0.351562 0.46875,0.351562 l 0.35156,-0.117187 q 0.52735,0.249023 0.52735,0.996093 l -0.11719,0.410157 v 0.05859 q 0,0.117188 0.23437,0.117188 l 0.0586,0.05859 v 0.05859 l -0.11719,0.46875 v 0.175782 q 0.23438,0.644531 0.29297,1.699218 h 0.0586 l 0.0586,-0.292968 v -0.175782 l -0.0586,-0.410156 q 0.64453,-0.161133 0.64453,-0.351562 v -0.234375 q 0,-0.249024 -0.46875,-0.703125 v -0.05859 l 0.52735,-0.878906 h 0.0586 q 0.20508,0.175781 0.58594,0.175781 0.64453,-0.27832 0.64453,-0.761719 v -0.117187 l -0.87891,0.05859 q -2.87109,0 -3.39843,-2.8125 l -0.0586,-1.054687 v -0.585938 h -0.23437 q -0.71778,0 -0.87891,1.113282 z m 1.64063,3.222656 q -0.74707,0.615234 -1.28907,1.230469 v 0.05859 l 0.9961,-0.175781 0.0586,0.05859 v 0.117187 q -1.34765,1.083985 -1.93359,1.933594 1.55273,-0.908203 2.63672,-1.699219 h 0.11718 v -0.05859 l -0.99609,-0.761719 v -0.05859 l 0.70313,-0.585937 z" />
      <path
         id="path22"
         style=""
         d="m 138.93555,79.711914 q 1.96289,0 2.69531,2.988281 v 0.410157 q 0,2.021484 -1.99219,3.105468 0,0.131836 0.64453,0.234375 l 0.87891,0.46875 v -0.05859 l -0.11719,-0.46875 v -0.527344 q 0,-0.366211 0.52735,-0.761719 h 0.0586 v 0.05859 l -0.11719,0.234375 h 0.0586 q 0.62988,-0.761719 1.23046,-0.761719 1.14258,0 1.75782,1.289063 v 0.351562 q 0,1.201172 -1.875,1.582031 h -0.23438 l -0.41015,-0.05859 q 0.9375,1.435546 0.9375,3.105468 -0.14649,1.875 -0.35157,1.875 h -0.41015 v 0.05859 l 0.41015,2.34375 q -1.68457,0.878906 -3.80859,0.878906 -1.37695,0 -2.63672,-0.585937 v 0.117187 q 0.39551,0.864258 1.40625,1.230469 0.71777,0.175781 1.34766,0.175781 0.76172,0 5.09765,-0.878906 l 1.23047,-0.175781 0.23438,0.05859 0.29297,-0.05859 q 2.98828,0.541992 2.98828,1.699219 v 0.117187 q 0,0.688477 -1.81641,1.816406 l -1.23047,0.351563 q -1.58203,0 -1.58203,-0.996094 0.11719,-0.527344 0.58594,-0.527344 h 0.11719 l 0.17578,0.175782 q 0,0.117187 -0.41016,0.117187 l -0.11719,0.292969 q 0.17578,0.527344 0.76172,0.527344 h 0.29297 q 1.72852,0 2.87109,-1.640625 l 0.0586,-0.292969 q 0,-0.65918 -2.28516,-1.230469 h -0.82031 q -0.9082,0 -5.44922,0.9375 l -0.9375,0.117188 q -2.3291,0 -2.98828,-1.523438 0,-0.615234 -0.70313,-0.996094 -1.46484,-1.420898 -1.46484,-3.339843 V 90.90332 q 0,-2.548828 2.34375,-4.101562 0.83496,-0.46875 2.05078,-0.644531 0.46875,-0.629883 0.46875,-1.289063 v -0.05859 q -0.29297,-1.40625 -1.05469,-1.40625 h -0.29296 q -0.4834,0 -0.64454,0.644532 0.19043,0.46875 0.58594,0.46875 l 0.29297,-0.05859 0.17578,0.234375 -0.17578,0.175781 q -1.11328,-0.175781 -1.11328,-0.820312 0,-0.600586 0.87891,-0.820313 h 0.17578 q 0.96679,0 1.34765,1.523438 0,0.893554 -0.41015,1.40625 v 0.05859 h 0.52734 q 1.12793,-0.380859 1.99219,-1.816406 0.21972,-0.585937 0.29297,-1.289062 -0.49805,-2.988282 -2.34375,-2.988282 -0.73243,0 -0.82032,0.644532 v 0.175781 q 0,0.146484 0.70313,0.703125 v 0.05859 l -0.11719,0.117187 h -0.23437 q -0.70313,-0.395508 -0.70313,-0.996094 V 80.59082 q 0.24903,-0.878906 1.17188,-0.878906 z m 2.40234,6.679688 q 0.20508,1.113281 1.05469,1.113281 h 0.35156 q 1.58203,-0.336914 1.58203,-1.464844 -0.39551,-1.054687 -1.46484,-1.054687 h -0.11719 q -0.67383,0 -1.40625,1.40625 z m 1.05469,-1.171875 q 0.33691,0.263671 0.41015,0.585937 l 0.9961,-0.351562 0.11719,0.117187 -0.9375,0.644531 0.23437,0.820313 -0.17578,0.117187 h -0.0586 l -0.52735,-0.410156 q -0.27832,0 -0.46875,0.351563 h -0.0586 l -0.11719,-0.117188 v -0.05859 l 0.11719,-0.410156 -0.17578,-0.175781 v -0.05859 q 0.52734,-0.263672 0.52734,-0.996094 l 0.0586,-0.05859 z m -7.67578,6.035156 q 0,2.695312 2.46093,3.632812 0.83497,0.234375 1.64063,0.234375 2.63672,-0.131836 2.75391,-0.585937 -0.21973,-1.464844 -0.35157,-1.464844 -0.96679,0.292969 -2.05078,0.292969 -1.72851,0 -2.16797,-1.230469 v -0.117187 l 0.11719,-0.117188 h 4.74609 q 0.17579,0 0.17579,-0.9375 0,-3.28125 -2.8711,-3.808594 l -0.64453,-0.05859 q -2.75391,0 -3.69141,3.046875 z m 3.92578,-3.925781 q 2.28515,0 2.98828,2.402343 0.17578,0.541992 0.17578,1.347657 v 0.117187 q 0,0.424805 -0.17578,0.46875 h -4.6875 l -0.17578,0.175781 v 0.175782 q 0.29297,1.582031 2.28515,1.582031 h 0.17579 q 1.06933,0 1.8164,-0.234375 0.14649,0 0.23438,1.113281 -1.04004,0.410156 -2.40235,0.410156 h -0.11718 q -2.49024,0 -3.45704,-1.992187 -0.35156,-0.864258 -0.35156,-1.699219 0,-2.402344 2.10938,-3.515625 0.71777,-0.351562 1.58203,-0.351562 z m -3.51563,3.925781 q 0,2.475586 2.28516,3.222656 0.60059,0.234375 1.40625,0.234375 1.18652,0 2.28516,-0.351562 l -0.11719,-0.761719 q -0.89356,0.175781 -1.81641,0.175781 h -0.0586 q -1.9336,0 -2.51953,-1.464844 v -0.527343 l 0.29297,-0.292969 h 4.6875 l 0.0586,-0.292969 v -0.05859 q 0,-2.958984 -2.34375,-3.574218 l -0.76172,-0.05859 q -2.03613,0 -3.04687,2.050781 -0.35157,1.040039 -0.35157,1.699219 z m 3.22266,-2.988281 h 0.23437 q 1.39161,0 1.64063,1.699218 v 0.410157 l -0.29297,0.292968 h -3.04687 l -0.29297,-0.292968 v -0.234375 q 0,-1.171875 1.28906,-1.816407 z m -1.58203,1.933593 v 0.117188 l 0.17578,0.175781 h 2.92969 l 0.17578,-0.175781 v -0.292969 q -0.17578,-1.582031 -1.52344,-1.582031 h -0.11719 q -1.40625,0 -1.64062,1.757812 z m 1.58203,-1.523437 h 0.23437 q 1.05469,0 1.23047,1.464844 l -0.11718,0.117187 h -2.69532 v -0.117187 q 0.32227,-1.464844 1.34766,-1.464844 z" />
      <path
         id="path24"
         style=""
         d="m 147.7832,84.003906 h 0.11719 l 0.11719,0.117188 -0.0586,1.289062 q 1.59668,-1.113281 1.81641,-1.113281 h 0.0586 l 0.11719,0.117187 v 0.175782 l -0.70312,1.757812 q 0.62988,-0.175781 1.05468,-0.175781 h 0.58594 q 0.92285,0 1.875,0.761719 h 0.0586 q 1.11328,-0.761719 1.99218,-0.761719 h 0.70313 q 2.15332,0 3.04687,2.753906 l 0.11719,1.230469 v 1.933594 l 0.82031,-0.234375 q 1.94825,0 3.45703,2.109375 v 0.46875 q 0,2.255859 -2.7539,2.988281 l -0.9375,0.05859 h -0.23438 l -0.0586,-0.05859 h -0.0586 q 0,1.552734 -1.69922,2.929685 -0.77637,0.52735 -1.69922,0.52735 h -0.41016 q -1.64062,0 -2.40234,-1.464848 l -0.23438,-0.878906 v -1.113281 h -0.0586 q -0.26367,0 -3.22266,1.113281 l -0.99609,0.117188 q -3.01758,0 -4.62891,-1.40625 -1.11328,-1.582032 -1.11328,-2.285157 0,-1.875 2.75391,-3.398437 v -1.875 l -0.0586,-3.339844 h 0.0586 q -0.24903,-0.439453 -0.52735,-1.582031 l 0.0586,-0.05859 h 0.0586 q 0.33692,0 1.23047,0.9375 0.49805,-0.659179 1.75781,-1.640625 z m -1.64062,2.109375 h -0.17578 l -0.82032,-0.761719 v 0.05859 l 0.35157,0.9375 h 3.22265 q 0.14649,-0.05859 0.70313,-1.464844 l -1.52344,1.054688 h -0.17578 q -0.13184,0 -0.17578,-0.292969 l 0.0586,-1.113281 q -0.67383,0.527344 -1.46484,1.582031 z m 2.10937,2.109375 -0.11718,-0.117187 v -0.175782 l -0.0586,-0.703125 h -1.99219 l 0.0586,2.167969 v 5.566406 h 2.28515 V 90.625 q 0,-1.259766 0.9375,-1.640625 h 0.46875 q 0.9961,0 0.9961,1.992187 v 3.984375 h 2.28515 v -4.570312 q 0.17579,-1.40625 1.05469,-1.40625 h 0.23438 q 1.05468,0 1.05468,1.582031 v 4.277344 l 0.11719,0.117187 h 2.10938 l 0.11718,-0.117187 v -3.867188 q 0,-3.925781 -2.63671,-3.925781 -1.36231,0 -2.46094,1.289063 -0.74707,-1.289063 -2.16797,-1.289063 -1.33301,0 -2.28516,1.171875 z m 2.34375,-0.9375 q 1.24512,0 1.9336,1.289063 h 0.29297 q 1.09863,-1.289063 2.40234,-1.289063 1.61133,0 2.16797,1.875 0.17578,0.688477 0.17578,1.582031 v 3.867188 l -0.11719,0.117187 h -1.64062 l -0.11719,-0.117187 V 90.625 q 0,-1.875 -1.23047,-1.875 h -0.29297 q -1.14258,0 -1.28906,1.640625 v 4.21875 l -0.11719,0.117187 h -1.64062 l -0.11719,-0.117187 V 90.214844 Q 150.83008,88.75 149.83398,88.75 h -0.29296 q -1.28907,0.322266 -1.28907,1.289062 v 4.570313 l -0.11718,0.117187 h -1.64063 l -0.11719,-0.117187 v -4.746094 l -0.0586,-2.34375 0.0586,-0.05859 h 1.40625 q 0.10254,0 0.23438,0.996094 l 0.0586,0.05859 h 0.23438 q 0.99609,-1.230469 2.28515,-1.230469 z m -2.22656,1.40625 h -0.29297 q -0.30762,0 -0.35156,-0.9375 v -0.117187 h -1.23047 l 0.0586,1.875 v 5.039062 h 1.52344 v -4.570312 q 0,-0.893555 1.28906,-1.40625 h 0.52735 q 1.01074,0 1.28906,1.523437 v 4.453125 h 1.52344 v -4.21875 q 0,-1.259765 1.11328,-1.699219 l 0.29297,-0.05859 h 0.41015 q 0.80567,0 1.23047,1.054687 0.11719,0.249024 0.11719,0.9375 v 3.984375 h 1.52344 v -3.75 q 0,-3.339844 -2.28516,-3.339844 -1.04004,0 -2.22656,1.289063 h -0.35156 q -0.10254,0 -0.64453,-0.820313 -0.74707,-0.46875 -1.40625,-0.46875 -1.0254,0 -2.10938,1.230469 z m 0.99609,1.640625 v 5.449219 h 0.11719 l 0.41016,-0.05859 V 90.625 l -0.11719,-0.703125 h -0.17578 q -0.23438,0.08789 -0.23438,0.410156 z m 4.6875,-0.05859 v 4.804688 l 0.52735,0.117187 v -4.042968 q 0,-1.230469 -0.23438,-1.230469 h -0.11718 q -0.17579,0.05859 -0.17579,0.351562 z m -11.36718,4.746094 q 0.4541,1.567383 1.52343,2.460938 1.97754,0.9375 4.16016,0.9375 0.64453,0 3.57422,-1.113282 1.23047,-0.292968 2.22656,-0.292968 0.9082,0 1.64063,0.234375 -1.01075,-0.761719 -1.9336,-0.761719 -0.98144,0 -5.44922,0.9375 h -0.11718 q -3.03223,0 -3.63282,-0.703125 -1.28906,-0.791016 -1.28906,-1.582031 0,-1.567383 1.81641,-2.519532 v -0.703125 h -0.0586 q -2.46093,1.303711 -2.46093,3.105469 z m 15.99609,-2.578125 v 0.527344 q 0.42481,-0.234375 0.99609,-0.292969 1.21582,0 2.28516,0.878906 0.58594,0.893555 0.58594,1.171875 h 0.0586 v -0.46875 q 0,-0.717773 -1.99219,-1.816406 -0.38086,-0.175781 -0.9375,-0.175781 h -0.0586 z m -14.94141,2.460938 q 0,1.21582 2.22657,1.992187 0.21972,0.117188 2.57812,0.175781 4.29199,-0.9375 5.33203,-0.9375 1.15723,0 2.51953,1.113282 l 0.58594,1.113281 -0.0586,0.234375 v 0.117187 h 0.0586 q 0.70313,-0.541992 0.70313,-1.054687 V 97.1875 q -2.03614,-1.347656 -2.46094,-1.347656 h -0.52734 q -0.11719,0 -0.11719,-0.292969 l -0.52735,-0.117188 v 0.292969 l -0.11718,0.117188 h -2.46094 l -4.33594,0.644531 h -0.0586 q -1.62598,0 -2.16797,-1.113281 l -0.0586,-0.410157 q 0,-0.36621 0.35156,-0.820312 v -1.289063 h -0.0586 q -1.40625,0.805665 -1.40625,2.050782 z m 15.17579,-1.582032 h 0.41015 q 1.20117,0.278321 2.10938,1.289063 l 0.0586,0.292969 v 0.175781 q 0,0.864258 -1.11328,1.054687 -0.79102,0 -1.69922,-0.410156 l -0.11719,0.117188 h -0.76172 v 0.05859 q 1.65528,0.644532 2.22657,0.644532 1.75781,0 2.22656,-1.347657 V 94.84375 q -0.57129,-1.523438 -1.52344,-1.523438 -0.29297,-0.234375 -0.99609,-0.234375 h -0.17578 q -0.64453,0.08789 -0.64453,0.234375 z m -0.23438,0.410157 v 0.820312 q 0.41016,0.585938 0.99609,0.585938 0.39551,-0.175782 0.52735,-0.46875 v -0.175782 q 0,-0.190429 -1.17188,-0.46875 v -0.05859 l 0.11719,-0.117188 h 0.0586 l 0.52735,0.05859 h 0.0586 v -0.05859 q -0.36621,-0.175781 -0.64453,-0.175781 z m 1.46484,0.351562 v 0.05859 q 0.29297,0 0.29297,0.410156 -0.24902,0.820313 -0.82031,0.820313 h -0.29297 q -0.23437,0 -0.64453,-0.410157 v 0.410157 q 1.04004,0.410156 1.64063,0.410156 0.74707,0 0.82031,-0.878906 -0.0732,-0.336914 -0.9375,-0.820313 z m -15,0.46875 -0.0586,0.527344 0.0586,0.175781 h 0.0586 v -0.703125 z m 0.64454,1.289063 v 0.05859 q 0.62988,0.234375 1.34765,0.234375 l 1.69922,-0.234375 v -0.05859 z m 10.48828,0 v 0.05859 q 1.71386,1.113282 2.34375,1.113282 v -0.05859 l -0.29297,-0.410156 v -0.05859 h 0.0586 q 0.41016,0.263672 0.41016,0.585937 l 0.76172,0.05859 1.34765,-0.292969 v -0.05859 h -0.0586 l -0.52734,0.117187 q -1.20118,0 -2.98829,-0.996094 l -0.0586,-0.05859 z m -2.75391,1.464843 -0.0586,0.234375 v 0.234375 q 0.41015,1.640625 0.9375,1.640625 Q 155.18066,100 156.16211,100 q 1.33301,0 1.93359,-1.640625 l 0.0586,-0.46875 -0.17578,-0.585938 h -0.0586 q 0,1.582032 -1.52344,2.167969 h -0.29296 q -1.99219,-0.498047 -1.99219,-1.40625 v -0.175781 q 0,-0.292969 0.23437,-0.703125 h -0.0586 q -0.76172,0.0293 -0.76172,0.117187 z m -0.87891,0.117188 v 0.644531 q 0,1.845703 1.9336,2.460934 l 0.52734,0.0586 h 0.87891 q 1.33301,0 2.51953,-1.99219 l 0.23437,-1.171875 h -0.0586 l -0.46875,-0.117188 q 0.17578,0.307618 0.17578,0.703125 0,1.567383 -1.93359,2.226568 l -0.52735,0.0586 q -2.69531,-0.424806 -2.69531,-2.519533 l 0.11719,-0.527343 h -0.0586 q -0.64454,0.04394 -0.64454,0.175781 z m 1.875,-0.175781 -0.0586,0.292968 v 0.292969 q 0,0.878906 1.69922,1.289063 l 0.29297,-0.117188 q -0.17578,-1.699219 -1.11328,-1.699219 l -0.58594,-0.05859 z m 2.10938,1.347656 v 0.175781 h 0.0586 V 98.59375 Z" />
      <path
         id="path26"
         style=""
         d="m 164.96582,80.839844 h 0.64453 q 1.31836,0.117187 3.33985,1.816406 1.56738,1.450195 2.16796,3.632812 0.64454,1.069336 0.64454,2.402344 v 0.644531 q 0,1.582032 -0.9961,3.398438 -0.79101,1.933594 -1.64062,2.285156 l 0.0586,0.527344 h 0.82031 q 1.01074,0 1.58203,0.117187 v 0.117188 l -1.75781,0.05859 h -0.58594 v 0.703125 h 1.75782 v 0.117187 l -1.75782,0.175781 0.0586,0.878907 h 1.05469 l 0.70312,0.05859 v 0.117188 l -1.28906,0.05859 h -0.35156 q -0.17579,0 -0.17579,1.054687 l 0.0586,0.175781 -0.0586,0.351563 v 0.292969 l 1.11329,0.292971 v 0.11719 h -0.0586 l -1.05469,-0.11719 -0.0586,0.99609 v 0.9961 q 0,0.30761 -0.17578,0.35156 -0.17578,0 -0.17578,-0.58594 h -0.0586 l 0.0586,-0.41016 v -1.40625 l -1.05469,-0.175778 q -0.24902,2.285158 -0.46875,2.285158 h -0.0586 l -0.0586,-0.46875 0.17578,-1.875001 -1.58203,-0.351563 -0.29297,1.757814 h -0.11718 v -0.35156 l 0.11718,-1.464848 q -0.4248,0 -1.93359,-0.585937 h -1.17187 q -0.10254,0 -0.29297,1.406255 l -0.70313,1.17187 q -0.41015,1.50879 -1.46484,2.34375 -0.60059,0.39551 -1.05469,0.41016 h -0.17578 q -1.23047,-0.24903 -1.23047,-1.52344 0.24902,-0.99609 0.87891,-0.99609 h 0.0586 q 0.70313,0.16113 0.70313,0.70312 v 0.17578 l -0.11719,0.11719 h -0.11719 q 0,-0.62988 -0.52734,-0.70313 h -0.11719 q -0.46875,0.30762 -0.46875,0.82032 0.19043,0.99609 0.9375,0.99609 h 0.17578 q 1.17188,0 2.10938,-2.16797 h -0.0586 l -0.64453,0.17578 q -0.82031,0 -0.82031,-1.28906 0.23437,-0.761719 0.46875,-0.761719 h 0.17578 q 0.32226,0 0.41016,0.234375 V 100 l -0.29297,-0.05859 h -0.11719 q -0.23438,0.08789 -0.23438,0.410154 v 0.35157 q 0,0.64453 0.46875,0.64453 0.98145,0 1.11329,-1.523441 l 0.0586,-0.878907 v -0.117187 q -0.23438,0 -0.23438,-0.117188 v -8.964843 l -0.0586,-3.515625 0.0586,-0.05859 h 3.63282 q 0.11718,0 0.11718,0.234375 0.95215,-0.351563 1.52344,-0.351563 h 0.70313 q 1.86035,0 3.22265,2.285157 l 0.35157,0.703125 0.17578,-1.347657 V 87.34375 q 0,-2.109375 -2.46094,-2.929688 -0.24902,-0.117187 -0.9375,-0.117187 h -0.11719 l -0.41015,0.05859 -0.0586,-0.05859 q 0.11719,-0.351563 0.64453,-0.351563 h 0.23438 q 1.24511,0 2.69531,1.464844 v -0.05859 q -0.73242,-1.918945 -3.04687,-3.398437 -1.59668,-0.820313 -2.40235,-0.820313 -2.06543,0 -2.92969,2.695313 l -0.11718,0.703125 q 0.13183,0.820312 0.70312,0.820312 h 0.0586 q 0.21972,0 0.52734,-0.234375 l -0.29297,-0.410156 q 0,-0.117187 0.17578,-0.117187 0.41016,0.175781 0.41016,0.527343 0,0.424805 -0.82031,0.527344 -1.05469,0 -1.05469,-1.230469 v -0.05859 q 0,-1.918946 2.05078,-3.222657 0.60058,-0.292968 1.11328,-0.292968 z m -0.58594,7.265625 q -0.13183,0 -0.17578,-0.996094 h -2.05078 l 0.0586,2.460937 v 8.378907 h 2.34375 v -3.691407 l 0.11719,-0.117187 q 0.71777,0.820312 1.75781,0.820312 h 0.29297 q 2.50489,0 3.28125,-3.046875 l 0.11719,-1.113281 q 0,-2.666015 -2.22656,-3.691406 -0.58594,-0.175781 -0.9961,-0.175781 -1.47949,0 -2.51953,1.171875 z m 2.57813,-0.9375 q 1.77246,0 2.69531,2.226562 0.23438,0.805664 0.23438,1.523438 0,2.753906 -2.40235,3.691406 l -0.82031,0.117187 h -0.0586 q -1.08399,0 -1.875,-0.820312 h -0.17579 l -0.17578,0.175781 v 3.515625 l -0.11718,0.117188 h -1.69922 l -0.11719,-0.117188 V 90.15625 l -0.0586,-2.753906 0.0586,-0.05859 h 1.40625 q 0.19043,0 0.23437,0.9375 l 0.17579,0.117187 h 0.17578 q 1.08398,-1.230468 2.51953,-1.230468 z m 4.27734,0.117187 q 0,1.142578 -0.41015,1.933594 0.17578,0.703125 0.17578,1.289062 v 0.996094 h 0.0586 q 0.46875,-1.391601 0.46875,-2.578125 l -0.23437,-1.640625 z m -6.73828,1.289063 h -0.29297 q -0.35156,-0.131836 -0.35156,-0.820313 v -0.234375 h -1.28906 l 0.0586,2.34375 v 7.675781 h 1.58203 v -3.515625 l 0.29297,-0.292968 h 0.29297 q 0.77637,0.820312 1.93359,0.820312 1.77246,0 2.69532,-2.050781 0.29296,-0.966797 0.29296,-1.699219 0,-2.021484 -1.58203,-3.105469 -0.70312,-0.336914 -1.28906,-0.351562 -1.21582,0 -2.34375,1.230469 z m 1.875,-0.175782 q 1.12793,0 1.69922,1.757813 l 0.0586,0.820312 q 0,2.021485 -1.58203,2.578125 h -0.76172 q -0.98144,0 -1.58203,-1.40625 v -2.109375 q 0,-1.054687 1.46485,-1.640625 z m -1.99219,1.699219 v 1.933594 q 0,0.644531 0.9961,1.230469 l 0.46875,0.117187 h 0.29297 q 1.14257,0 1.64062,-1.230469 l 0.17578,-1.171875 q 0,-1.743164 -1.23047,-2.34375 l -0.41015,-0.05859 h -0.46875 q -1.08399,0 -1.46485,1.523437 z m 1.58203,-1.289062 h 0.29297 q 1.28907,0 1.46485,2.167968 v 0.05859 q -0.23438,2.050781 -1.28907,2.050781 l -0.23437,0.05859 h -0.29297 q -1.21582,0 -1.34766,-1.816406 v -0.527344 q 0,-1.508789 0.9375,-1.875 z m -0.46875,1.640625 V 91.5625 q 0.0733,0.703125 0.52735,0.703125 0.70312,0 0.76172,-1.171875 v -0.234375 q 0,-1.171875 -0.70313,-1.171875 -0.58594,0.131836 -0.58594,0.761719 z m 2.8711,5.039062 v 0.05859 h 0.46875 v -0.292969 z m -1.875,0.410156 h -0.23438 l -0.0586,-0.05859 h -0.0586 l -0.11719,0.761718 0.0586,0.05859 0.0586,-0.05859 h 1.58203 l -0.11719,-0.292968 q 0.11719,0 0.17578,-0.46875 l -0.0586,-0.05859 h -0.0586 z m -0.64453,-0.05859 v 0.234375 h 0.0586 v -0.234375 z m -0.0586,0.351562 v 0.292969 h 0.0586 v -0.292969 z m 2.69532,0.644531 h -0.41016 l -0.11719,0.9375 h 0.23438 l 0.17578,-0.117187 0.17578,0.117187 q 0,-0.234375 0.11719,-0.234375 h 0.0586 q 0.11719,0 0.11719,0.175782 h 0.0586 v -0.9375 z m -2.46094,0 v 0.234375 l 0.17578,-0.175781 -0.0586,-0.05859 z m -0.52735,0.234375 v 0.703125 h 0.17579 l 0.11718,-0.878906 h -0.11718 z m 0.41016,0.703125 v 0.05859 h 0.11719 v -0.05859 z m 0,0.292969 -0.11719,1.054688 1.64063,0.292968 0.17578,-1.347656 -1.64063,0.05859 z m -4.16016,0.761719 v 0.05859 q 0,1.054687 -0.11718,1.464841 v 0.0586 h 0.0586 q 0.26367,-0.629887 0.41016,-1.582035 z" />
      <path
         id="path28"
         style=""
         d="m 175.27832,81.455078 0.0586,0.05859 v 0.117187 q 0,0.776368 -0.52734,1.054688 v 0.175781 l 0.76172,0.351563 0.35156,-0.05859 h 0.23438 q 0.4541,0 0.52734,0.585937 v 0.05859 l -0.29297,0.703125 q 0.20508,0.527344 0.9961,0.527344 h 0.23437 q 0.11719,0 0.11719,0.292969 0.17578,0.292968 0.58594,0.292968 1.34765,-0.395507 1.34765,-1.289062 0,-0.395508 -0.99609,-0.703125 l -0.11719,-0.292969 q 0.0146,-0.19043 0.41016,-0.46875 l -0.0586,-0.585937 0.0586,-0.05859 h 0.0586 q 0.11719,0.131836 0.23438,0.820312 0.11718,0.175782 1.17187,0.234375 0.46875,0.278321 0.46875,0.996094 l -0.23437,0.46875 v 0.234375 l 0.17578,0.175781 h 0.11718 q 0.58594,-0.08789 0.58594,-0.527343 v -0.05859 q -0.35156,-0.424805 -0.35156,-0.644531 v -0.292969 q 0.29297,-0.292969 0.35156,-0.703125 l 0.0586,-0.05859 h 0.0586 l 0.11719,0.117188 v 0.410156 q 0,0.498047 1.05468,0.878906 0.46875,0.541992 0.46875,0.820313 v 0.527343 q -0.0146,0.249024 -1.23046,0.878907 l -0.17579,0.292968 q 0.21973,0.46875 0.70313,0.46875 0.16113,0 0.70312,-0.527343 l 0.35157,-0.117188 q 0.0586,0.175781 0.35156,0.175781 0.16113,-0.05859 0.46875,-0.761718 l 0.29297,-0.05859 q 0.4248,0.527344 0.76172,0.527344 l 0.41015,-0.234375 h 0.11719 q 0,0.483398 -0.87891,0.585937 -0.20507,0 -0.29296,0.644531 v 0.175782 l 0.23437,0.292968 v 0.117188 q 0,0.541992 -1.17187,0.820312 v 0.117188 q 0.54199,0 0.82031,1.289062 v 0.234375 q 0,0.395508 -0.58594,1.171875 v 0.05859 q 0.41016,0.615234 0.41016,1.40625 v 0.05859 q 0,1.611328 -1.58203,2.167969 0.17578,0.27832 0.17578,0.644531 -0.0293,0.439453 -0.70313,1.113281 0.35156,0.234375 0.35156,0.703125 v 0.05859 q -0.26367,1.230469 -0.82031,1.230469 l -0.58594,-0.05859 -0.11718,0.292969 q 0,0.263671 0.29297,0.761714 l -0.23438,0.70313 q 0.11719,0 0.11719,0.17578 l -0.41016,1.81641 h -0.0586 l -0.11719,-0.11719 0.17578,-0.76172 q -0.41015,-0.61523 -0.41015,-2.167968 -0.16114,-0.410156 -0.76172,-0.410156 l -0.11719,-0.175782 q 0,-0.234375 0.64453,-1.113281 l 0.11719,-0.410156 q 0,-0.644531 -0.9961,-0.644531 -1.333,0.585937 -1.64062,0.585937 -0.35156,-0.117187 -0.35156,-0.234375 v -0.05859 l 0.11718,-0.585937 -0.0586,-0.175781 q -0.5127,0 -1.40625,0.585937 l -0.58594,0.05859 h -0.17578 q -0.70312,0 -0.70312,-0.527344 v -0.117187 q 0,-0.278321 0.41015,-0.996094 v -0.05859 q -0.29297,0.175781 -0.8789,0.234375 -0.9375,-0.102539 -0.9375,-0.351562 l 0.17578,-0.46875 h -0.11719 q -0.33691,0.175781 -0.70312,0.175781 -0.95215,0 -1.05469,-1.171875 0,-0.703125 0.41015,-1.113281 -0.3955,0 -0.64453,-0.820313 v -0.234375 l 0.11719,-0.175781 v -0.117188 q -0.29297,-0.322265 -0.29297,-0.703125 v -0.175781 q 0,-0.263672 1.05469,-0.351562 l 0.17578,-0.234375 q -0.82031,0 -1.23047,-1.113282 v -0.46875 l 0.46875,-0.410156 0.0586,-0.527344 -0.11719,-0.585937 q 0.13183,-0.336914 1.11328,-0.703125 0.23437,-0.219727 0.29297,-0.761719 l -0.0586,-0.05859 0.0586,-0.05859 h 0.0586 l 0.17578,0.410156 q 0,0.761719 -0.52734,1.230469 0,0.263671 0.9375,0.46875 0.82031,-0.234375 0.82031,-0.644532 0,-0.190429 -0.64453,-1.230468 v -0.05859 q 0,-0.527344 0.99609,-0.527344 v 0.117188 h -0.17578 q -0.64453,0.175781 -0.64453,0.351562 l 0.58594,1.054688 v 0.351562 q 0,0.585938 -0.99609,0.761719 -1.05469,-0.175781 -1.05469,-0.703125 0.46875,-0.571289 0.46875,-0.761719 -0.33692,0.322266 -1.11328,0.585938 l -0.0586,0.05859 v 0.234375 l 0.11719,0.46875 v 0.05859 q 0,0.688477 -0.52734,0.996094 v 0.05859 q 0,0.908203 1.17187,1.230468 0.11719,0 0.11719,0.175782 0,0.512695 -1.23047,0.585937 v 0.175781 q 0,0.205078 0.29297,0.585938 l -0.0586,0.644531 q 0,0.498047 1.40625,0.585938 h 0.17578 v -0.05859 q -0.35157,0 -0.35157,-0.117188 v -0.05859 h 0.29297 l -0.11718,-0.996094 v -0.644531 q 0,-2.666016 2.51953,-4.101563 1.09863,-0.527344 1.99218,-0.527344 h 0.9375 q 2.56348,0 4.04297,2.8125 0.35157,1.274414 0.35157,1.757813 0.26367,-0.234375 0.41015,-0.234375 l 0.0586,0.05859 q -0.46875,0.541992 -0.46875,0.761718 l -0.0586,0.527344 h 0.0586 l 0.52734,-0.292969 v -0.05859 q -0.0293,-0.175782 -0.41016,-0.175782 v -0.175781 h 0.0586 q 0.30761,0 0.52734,0.175781 l 0.76172,-1.113281 q -0.27832,-0.9375 -0.70313,-0.9375 l -0.0586,-0.05859 v -0.351562 q 0,-0.146485 0.99609,-0.410156 l 0.17579,-0.234375 v -0.05859 l -0.29297,-0.46875 q 0,-0.527344 0.46875,-1.054688 l -0.41016,-0.410156 q -0.38086,0.791016 -0.52734,0.820313 h -0.35157 l -0.17578,-0.117188 h -0.11718 q -0.62989,0.644531 -0.87891,0.644531 -0.9375,-0.117187 -0.9375,-0.703125 0,-0.439453 1.40625,-1.171875 l 0.0586,-0.292968 v -0.117188 q 0,-0.732422 -0.99609,-1.054687 -0.17578,-0.05859 -0.58594,-0.703125 l -0.17578,0.234375 v 0.117187 l 0.35156,0.761719 v 0.117187 q 0,0.498047 -0.70312,0.703125 -0.52735,-0.07324 -0.52735,-0.46875 v -0.117187 l 0.17579,-0.585938 v -0.410156 q 0,-0.380859 -1.34766,-0.46875 l -0.29297,-0.292969 -0.23437,0.117188 v 0.234375 q 0,0.131836 0.76171,0.351562 0.20508,0.219727 0.29297,0.585938 0,1.02539 -1.52343,1.464844 -0.57129,0 -0.82032,-0.585938 -1.28906,-0.102539 -1.28906,-0.703125 l 0.23438,-0.644531 v -0.292969 l -0.23438,-0.234375 -0.82031,0.05859 q -0.76172,-0.27832 -0.76172,-0.644531 v -0.05859 q -0.82031,0.19043 -0.82031,0.527344 0,1.171875 1.05468,1.171875 0.33692,0.27832 0.35157,0.410156 -0.0879,0.234375 -0.17578,0.234375 h -0.0586 v -0.05859 l 0.11719,-0.175781 q 0,-0.234375 -0.9375,-0.410156 -0.46875,-0.278321 -0.46875,-0.996094 v -0.234375 q 0,-0.483399 0.9375,-0.644531 0.17578,0 0.58594,-1.054688 z m -1.23047,9.609375 q 0,2.885742 2.8125,3.808594 l 0.82031,0.117187 h 0.70313 q 2.31445,0 3.45703,-2.460937 0.23438,-0.761719 0.23438,-1.464844 v -0.410156 q 0,-2.563477 -2.8125,-3.574219 l -1.11329,-0.117187 q -2.72461,0 -3.80859,2.402343 -0.29297,0.966797 -0.29297,1.699219 z m 4.21875,-3.867187 q 2.15332,0 3.22266,2.050781 0.35156,0.74707 0.35156,1.464844 v 0.292968 q 0,2.519532 -2.22656,3.457032 -0.4834,0.249023 -1.58203,0.351562 -2.3584,0 -3.45703,-2.226562 -0.29297,-0.834961 -0.29297,-1.640625 0,-2.182618 1.93359,-3.28125 0.9082,-0.46875 2.05078,-0.46875 z m -3.80859,3.867187 q 0,2.34375 2.16797,3.28125 0.48339,0.19043 1.40625,0.292969 1.83105,0 3.10547,-1.582031 0.52734,-1.098633 0.52734,-2.109375 v -0.175782 q 0,-2.138672 -2.05078,-3.105468 -0.86426,-0.292969 -1.46485,-0.292969 -2.8125,0 -3.57421,2.753906 z m 3.57422,-2.8125 h 0.11718 q 1.59668,0 1.875,2.226563 v 0.9375 q 0,1.596679 -1.40625,2.285156 h -0.8789 q -1.05469,0 -1.58203,-1.816406 l -0.0586,-0.878907 q 0,-2.109375 1.40625,-2.695312 z m -1.75782,2.8125 q 0,1.801758 1.17188,2.402344 l 0.35156,0.05859 h 0.64453 q 0.68848,0 1.28907,-1.289063 l 0.11718,-0.878906 v -0.703125 q 0,-1.669922 -1.28906,-2.167969 l -0.46875,-0.05859 q -1.81641,0 -1.81641,2.636719 z m 1.875,-2.402344 q 1.46485,0.249024 1.46485,2.050782 v 0.585937 q -0.19043,2.050781 -1.52344,2.050781 -1.20117,0 -1.58203,-1.816406 v -0.527344 q 0,-1.904297 1.28906,-2.34375 z m -0.70312,2.109375 v 0.351563 q 0,1.010742 0.52734,1.289062 h 0.0586 q 0.70312,0 0.70312,-1.464843 0,-0.981446 -0.52734,-1.347657 h -0.11719 q -0.64453,0 -0.64453,1.171875 z m 6.32812,1.230469 -0.46875,0.410156 q 0.23438,0.395508 0.23438,0.703125 0,0.996094 -1.05469,1.523438 h -0.0586 l 0.0586,0.05859 v 0.05859 q 1.28906,-0.336914 1.28906,-0.820312 0.16114,0 0.29297,-0.996094 -0.10254,-0.834961 -0.29297,-0.9375 z m -1.875,2.226563 v 0.117187 l 0.29297,0.117188 q 0.80567,0 1.05469,-1.230469 0,-0.703125 -0.29297,-0.703125 -0.17578,0 -0.58594,1.054687 z m -9.96093,-0.175782 q 0.10254,0.820313 0.76172,0.820313 h 0.17578 l 0.52734,-0.117188 v -0.05859 q -0.77637,0 -1.23047,-0.644532 v -0.292968 q 0,-0.556641 0.52735,-0.761719 v -0.05859 l -0.29297,-0.05859 q -0.46875,0 -0.46875,1.171875 z m 0.46875,-0.234375 q 0,0.395508 1.05468,0.585938 l 0.64454,-0.175781 v -0.175782 l -0.35157,0.05859 q -0.8789,-0.263672 -0.8789,-0.46875 v -0.292969 q 0.29297,-0.410156 0.52734,-0.410156 v -0.05859 h -0.0586 q -0.9375,0.234375 -0.9375,0.9375 z m 0.70312,-0.351562 v 0.05859 q 0.0146,0.146484 0.76172,0.351562 v -0.117187 l -0.35156,-0.644532 q -0.26367,0.102539 -0.41016,0.351563 z m 11.19141,-0.292969 q -0.19043,1.699219 -1.52344,1.699219 l -0.11719,0.117187 q 0.23438,0.117188 0.23438,0.292969 1.46484,-0.74707 1.46484,-1.933594 v -0.175781 z m -10.72266,2.050781 v 0.117188 q 0.0439,0.175781 0.46875,0.175781 h 0.46875 l 0.76172,-0.234375 0.0586,0.05859 v 0.175781 l -0.35156,0.996094 v 0.234375 q 0.10254,0.234375 0.41016,0.234375 h 0.35156 q 0.54199,0 1.34766,-0.527344 l 0.41015,-0.05859 q 0.35157,0 0.35157,0.410157 v 0.05859 l -0.11719,0.46875 v 0.05859 h 0.35156 q 0.23438,0 0.87891,-0.292969 v -0.05859 l -0.29297,0.05859 q -0.23438,0 -0.35156,-0.234375 v -0.05859 l 0.11718,-0.527344 -0.11718,-0.351563 h -0.82032 l -0.29297,-0.05859 q -0.51269,0.703125 -0.99609,0.703125 v -0.05859 l -0.0586,0.05859 h -0.0586 q -0.52734,-0.07324 -0.52734,-0.527344 l 0.11719,-0.644531 q -0.65918,-0.410157 -1.23047,-0.410157 -0.23438,-0.263672 -0.23438,-0.527343 l 0.0586,-0.05859 h -0.0586 q -0.46875,0.117187 -0.46875,0.585937 z m 7.79297,-0.410156 q 1.05469,0.395508 1.05469,1.230469 0,0.527344 -0.52735,0.996094 0.46875,0.527343 0.46875,0.761718 v 0.117188 q 0,0.498047 -0.35156,0.703125 h -0.23437 l -0.29297,-0.175781 q -0.52735,0.117187 -0.52735,0.410156 l 0.11719,0.527344 h 0.0586 q 0,-0.46875 0.41015,-0.46875 l 0.52735,0.05859 q 0.52734,-0.600586 0.52734,-1.113281 v -0.175781 l -0.35156,-0.46875 v -0.175781 q 0.64453,-0.600586 0.64453,-1.054688 0,-0.439453 -0.17578,-0.46875 l -0.23438,0.05859 v -0.117188 q 0.17578,0 0.17578,-0.117187 -0.62988,-0.615235 -0.99609,-0.820313 z m -6.91406,-0.234375 v 0.05859 l 0.17578,0.175781 h 0.11719 z m 6.67969,0.351563 v 0.05859 q 0.70312,0.864258 0.70312,1.816407 h 0.0586 q 0.29297,-0.336914 0.29297,-0.585938 v -0.410156 q -0.55664,-0.820313 -0.99609,-0.820313 z m -0.58594,0.351562 v 0.117188 q 0.55664,0 0.8789,0.703125 h 0.0586 q -0.24903,-0.996094 -0.52735,-0.996094 h -0.0586 z m -4.6875,0.292969 -0.11719,0.527344 0.23438,0.234375 h 0.29296 q 0.36621,0 0.70313,-0.46875 v -0.05859 l -0.29297,-0.05859 -0.0586,0.05859 h -0.11719 l -0.64453,-0.292969 z m 3.39844,0.351562 -0.46875,-0.05859 -0.29297,0.05859 0.11718,0.292969 -0.0586,0.644531 h 0.0586 l 0.0586,0.05859 q 0.30761,-0.08789 1.11328,-0.703125 l 0.23437,-0.05859 h 0.23438 q 0.55664,0 1.11328,1.054688 l 0.23438,0.585937 q 0,0.205078 -0.23438,0.46875 0.33691,0 0.52734,0.175782 0.19043,0 0.29297,-0.644532 -0.16113,-0.395507 -0.35156,-0.46875 l -0.17578,0.05859 q -0.21973,-1.875 -1.52344,-1.875 z m -0.0586,0.9375 v 0.05859 l 0.29297,-0.05859 h 0.29297 q 0.99609,0.161133 0.99609,0.820313 0,0.454101 -0.76172,1.40625 v 0.05859 q 0,0.117187 0.58594,0.175781 0.20508,0 0.35156,1.816408 l 0.0586,0.0586 v 0.0586 h 0.0586 v -0.35157 q 0,-1.479489 -0.58594,-1.699216 l -0.0586,-0.234375 q 0,-0.307617 0.87891,-0.996093 l 0.0586,-0.234375 q -0.39551,-1.069336 -1.05469,-1.40625 h -0.17578 q -0.21973,0 -0.9375,0.527343 z m 1.46485,1.992188 v 0.175781 l 0.11718,0.117188 h 0.0586 l -0.0586,-0.410157 z" />
      <path
         id="path30"
         style=""
         d="m 189.17969,80.50293 h 0.52734 q 1.49414,0 1.93359,0.996093 l 0.17579,0.761719 v 0.46875 l -0.23438,1.171875 h 0.0586 l 0.23438,-0.05859 q 0.64453,0 0.99609,0.996094 v 0.05859 q 0,0.688476 -1.34765,1.464844 0.58593,0.05859 0.58593,0.234375 v 3.808593 l -0.11718,0.117188 -1.46485,-0.175781 h -0.11718 q -0.64454,0 -0.64454,1.230468 v 4.277344 q 0,0.117188 -0.29296,0.117188 0.9375,1.083984 0.9375,1.640625 0,1.201172 -1.9336,1.933593 l -0.52734,0.05859 q -1.05469,-0.219726 -1.05469,-1.289062 0.21973,-0.527344 0.87891,-0.527344 h 0.17578 q 0.4541,0 0.52734,0.234375 v 0.292969 h 0.11719 q 0.76172,0 0.76172,-0.996094 -0.23438,-0.65918 -1.52344,-1.230469 V 95.97168 h -2.10937 l -0.11719,-0.117188 v -1.171875 l -0.11719,-0.351562 -0.35156,0.117187 h -0.11719 q -1.20117,0 -1.81641,-2.167969 l -0.0586,-0.644531 q 0,-3.046875 2.28516,-4.335937 h 0.0586 V 86.59668 l 0.11719,-0.117188 h 0.82031 q 2.18262,-0.74707 3.10547,-2.34375 l 0.0586,-0.292969 v -0.234375 l -0.0586,-0.05859 v -0.05859 l -0.46875,0.117187 q -0.76172,-0.07324 -0.76172,-0.585937 0,-1.171875 1.28906,-1.171875 1.04004,0 1.23047,0.585937 h 0.0586 v -0.175781 q -0.19043,-1.054687 -0.82032,-1.054687 -0.68847,0 -1.05468,0.703125 l -0.70313,0.175781 q -0.52734,0 -0.52734,-0.46875 V 81.44043 q 0,-0.703125 1.40625,-0.9375 z m -1.11328,0.878906 v 0.292969 l 0.11718,0.117187 h 0.35157 q 0.36621,0 0.70312,-0.644531 l 0.9375,-0.175781 q 0.9375,0.424804 0.9375,0.996093 0,2.197266 -0.70312,2.8125 -1.30371,1.391602 -2.05079,1.640625 v 0.05859 h 0.11719 q 3.04688,-1.508789 3.04688,-4.042969 -0.21973,-1.640625 -1.64063,-1.640625 h -0.41015 q -0.9668,0 -1.40625,0.585938 z m 0.46875,1.757812 0.46875,0.234375 0.52734,-0.05859 h 0.0586 q 0.14649,0 0.23438,0.46875 0,1.230468 -2.51953,2.636718 v 0.05859 h 0.52734 q 2.08008,-0.834961 2.92969,-2.695312 0.11719,-0.263672 0.11719,-0.761719 -0.32227,-0.9375 -0.87891,-0.9375 h -0.58594 q -0.8789,0 -0.8789,1.054687 z m 2.69531,1.523438 0.0586,0.05859 h 0.23438 l 0.17578,-0.117188 h 0.11719 l 0.23437,0.234375 v 0.351563 q -0.4834,0.644531 -1.17187,0.644531 h -0.41016 q -0.11719,0 -0.11719,-0.175781 -0.9375,0.761718 -1.17187,0.761718 v 0.05859 l 0.23437,0.117188 q 0.60059,-0.292969 1.11328,-0.292969 h 0.41016 q 1.69922,-0.673828 1.69922,-1.347656 v -0.05859 q -0.23438,-0.820313 -0.70313,-0.820313 h -0.17578 q -0.41015,0 -0.52734,0.585938 z m 0.23437,0.234375 h -0.11718 l -0.29297,-0.05859 -0.58594,0.703125 h 0.23437 q 0.92286,0 1.17188,-0.46875 l -0.0586,-0.292969 z m -2.87109,3.867187 h -0.0586 v -0.05859 l -0.0586,-1.347657 h -1.93359 l -0.0586,0.05859 h -0.0586 l 0.0586,0.292969 v 7.265625 l 0.11719,0.117187 h 2.28516 v -4.21875 q 0,-1.274414 1.64062,-1.464843 h 0.29297 l 0.41016,0.05859 v -2.226562 l -0.46875,-0.05859 q -1.34766,0 -2.16797,1.582031 z m 2.28516,-1.347656 0.11718,0.117188 v 1.523437 l -0.11718,0.117188 h -0.35157 q -1.875,0.146484 -1.875,1.757812 v 3.808594 l -0.11718,0.117187 h -1.69922 l -0.11719,-0.117187 v -7.148438 h 1.40625 q 0.17578,0 0.17578,0.761719 v 0.410156 l 0.23438,0.234375 h 0.17578 q 0.13183,-0.0293 0.52734,-0.820312 0.70313,-0.761719 1.64063,-0.761719 z m -6.44532,2.988281 v 0.527344 q 0,1.40625 0.87891,1.40625 h 0.29297 v -0.292969 q -0.52735,0 -0.64453,-1.757812 v -0.351563 q 0,-1.02539 0.58593,-1.640625 v -0.703125 q -1.11328,0.761719 -1.11328,2.8125 z m 4.33594,-1.230468 h -0.29297 L 188.125,88.823242 v -0.46875 l -0.0586,-0.585937 h -1.17188 v 6.914062 h 1.58203 v -3.808594 q 0,-1.274414 1.40625,-1.816406 l 0.58594,-0.05859 h 0.35156 v -1.40625 h -0.0586 q -1.12793,0 -1.75781,1.40625 z m -5.33203,2.402343 q 0,1.494141 1.34766,2.519532 l 0.23437,0.05859 q 0.23438,0 0.35156,-0.234375 l 0.17578,0.05859 v -0.05859 l 0.0586,-0.234375 v -0.05859 q -0.0732,-0.585938 -0.52735,-0.585938 l -0.0586,0.292969 0.0586,0.175781 h -0.0586 q -0.4834,0 -0.9375,-2.34375 v -0.05859 q 0,-2.15332 0.76172,-3.164062 v -0.05859 q -1.40625,1.289063 -1.40625,3.691406 z m 1.875,-1.933593 v 0.05859 q 0,1.186524 0.23437,1.816407 h 0.0586 v -2.929688 q -0.23438,0 -0.29297,1.054688 z m -0.70313,2.8125 v 0.05859 q 0.0732,0.439454 0.23438,0.46875 l 0.17578,-0.175781 h 0.11719 q 0.20508,0 0.46875,0.234375 V 92.69043 q -0.68848,0 -0.9961,-0.234375 z m 3.69141,3.515625 v 0.05859 q 1.34766,0.600586 1.34766,1.464844 -0.20508,1.054688 -0.87891,1.054688 h -0.52734 l -0.11719,-0.117188 0.0586,-0.292969 -0.0586,-0.05859 h -0.29297 q -0.64453,0.07324 -0.64453,0.351562 0,0.629883 0.87891,0.761719 1.30371,0 1.93359,-1.464844 v -0.234375 q 0,-0.688476 -1.05469,-1.523437 z" />
      <path
         id="path32"
         style=""
         d="m 197.69043,82.128906 h 0.0586 q 0.62989,0 0.76172,0.9375 -0.33691,1.171875 -1.64062,1.171875 l -0.0586,-0.05859 V 84.0625 q 0,-0.102539 0.9375,-0.292969 0.52735,-0.351562 0.52735,-0.703125 v -0.234375 q -0.0732,-0.527344 -0.52735,-0.527344 h -0.29297 q -1.18652,0.322266 -2.05078,1.640625 l -0.17578,0.644532 q 0,1.054687 1.99219,1.699218 h 1.17187 l 1.11329,0.05859 q 1.8164,-0.527344 2.22656,-0.527344 h 0.35156 q 1.875,0.205079 1.875,1.40625 l 0.0586,0.351563 v 0.117187 q 0,1.083985 -1.52343,2.8125 v 3.515625 q 0,0.600586 0.29297,1.875 l -0.0586,0.05859 h -3.86719 l -0.17578,-0.117187 q -0.76172,1.713867 -0.76172,3.222656 2.28516,-0.410156 2.28516,-1.523438 v -0.117187 l -0.29297,-0.05859 h -0.0586 q -0.73242,0 -0.87891,0.9375 l 0.0586,0.05859 -0.0586,0.05859 h -0.11719 q -0.17578,-0.05859 -0.17578,-0.351563 0,-0.673828 1.11328,-0.9375 h 0.23438 q 0.41016,0 0.41016,0.410156 v 0.05859 q 0,1.259766 -2.34375,1.757813 h -0.11719 v 0.117187 q 0.41015,1.816404 1.46484,1.816404 1.21582,0 2.05078,-1.347654 l 0.0586,-0.234375 v -0.292969 l -0.29297,-0.05859 q -0.33692,0 -0.70313,0.351562 h -0.0586 l -0.11719,-0.117187 v -0.175782 q 0,-0.161132 0.64453,-0.410156 0.76172,0.117188 0.76172,0.585938 0,0.996096 -1.69922,1.816406 -0.23437,0.11719 -0.64453,0.11719 -1.3916,0 -1.875,-2.167971 -1.64062,0 -1.64062,-1.640625 0,-0.747071 0.76172,-1.582032 -1.25977,0 -2.51954,-1.523437 -0.41015,-0.849609 -0.41015,-1.523438 V 92.5 q 0,-1.274414 1.17187,-2.226563 l -0.82031,-2.871093 q 1.86035,-0.996094 2.46094,-0.996094 v -0.05859 q -1.58203,-0.761719 -1.58203,-1.523437 v -0.117188 q 0,-1.450195 2.16797,-2.519531 z m 2.69531,4.570313 q 0.49805,0.219726 1.11328,0.820312 l 0.17578,-0.175781 v -0.117188 q -0.30761,0 -0.35156,-0.175781 l 0.11719,-0.117187 q 0.32227,0 0.41016,0.234375 v 0.292968 l -0.17579,0.234375 v 0.05859 q 0.76172,1.069336 0.76172,2.402344 1.40625,-1.494141 1.40625,-2.578125 -0.20507,-1.582031 -1.46484,-1.582031 -1.20117,0 -1.99219,0.703125 z m -0.52734,-0.234375 v 0.05859 l 0.17578,0.05859 q 0.41016,-0.205078 0.41016,-0.292969 h -0.0586 z m -4.62891,1.347656 q 0.33692,1.523437 0.46875,1.523437 1.01074,-0.527343 2.10938,-0.527343 h 0.0586 q 1.28906,0 1.28906,0.9375 v 0.05859 q 0,0.117188 -1.875,0.292969 -1.68457,0.454102 -2.28515,1.40625 -0.35157,0.747071 -0.35157,1.347656 0,1.684571 1.875,2.34375 h 0.82032 q 1.12793,0 1.99218,-0.878906 0.14649,0 0.17579,0.703125 l 0.0586,0.05859 h 2.10937 l -0.11718,-1.347656 v -2.988282 q 0,-3.574218 -3.39844,-3.574218 -1.3916,0 -2.92969,0.644531 z m 3.04688,-0.410156 q 3.04687,0 3.04687,3.164062 v 3.046875 l 0.0586,1.171875 -0.0586,0.05859 h -1.46484 q -0.10254,0 -0.29297,-0.703125 l -0.0586,-0.05859 h -0.29297 q -0.9668,0.9375 -2.10938,0.9375 -2.22656,-0.380859 -2.22656,-2.167969 0,-1.977539 2.8125,-2.578125 l 1.58203,-0.117187 0.11719,-0.175781 v -0.410157 q 0,-0.878906 -1.58203,-0.996093 h -0.0586 q -0.92285,0 -1.93359,0.410156 l -0.29297,-0.996094 q 1.31836,-0.585937 2.75391,-0.585937 z m -2.51953,0.703125 0.17578,0.644531 q 0.79101,-0.351563 1.93359,-0.351563 1.28906,0 1.69922,0.996094 v 0.644531 q -0.16113,0.292969 -0.35156,0.292969 -2.90039,0 -3.86719,1.464844 -0.29297,0.600586 -0.29297,1.113281 0,1.142578 1.28906,1.757813 l 0.76172,0.175781 q 1.06934,0 2.05078,-0.9375 h 0.35157 q 0.35156,0.146484 0.35156,0.703125 l 0.0586,0.05859 h 1.28906 l -0.0586,-0.703125 V 90.625 q 0,-3.046875 -2.98828,-3.046875 -1.18652,0 -2.40234,0.527344 z m 3.63281,2.929687 0.29297,0.292969 v 0.703125 q 0,1.333008 -0.9375,1.757812 0,0.146485 -0.70313,0.175782 h -0.29297 q -1.17187,-0.234375 -1.17187,-1.171875 v -0.175782 q 0,-1.40625 1.99219,-1.582031 z m -2.63672,1.699219 q 0.14648,1.054687 1.05469,1.054687 h 0.17578 Q 199.44824,93.583984 199.44824,92.5 l 0.0586,-0.527344 v -0.585937 l -0.17579,-0.175782 h -0.64453 Q 196.75293,91.37207 196.75293,92.5 Z m 2.46094,-1.347656 0.0586,0.05859 v 0.703125 q -0.16113,1.40625 -1.23047,1.40625 h -0.17578 q -0.87891,-0.07324 -0.87891,-0.878906 v -0.05859 q 0,-1.230468 2.22657,-1.230468 z m -1.28907,1.230468 h 0.17579 l 0.17578,-0.175781 h -0.0586 q -0.29297,0.07324 -0.29297,0.175781 z m -0.70312,3.515625 h -0.17578 q -0.76172,0.600586 -0.76172,1.230469 v 0.585938 q 0,0.996093 1.28906,1.113281 v -0.292969 q 0,-1.333008 0.64453,-2.753906 z" />
      <path
         id="path34"
         style=""
         d="m 212.58789,81.835937 q 0.64453,0.205079 0.64453,0.703125 0,0.366211 -0.46875,0.703125 h -0.11719 l -0.0586,-0.05859 h -0.0586 q 0,0.952148 -0.82032,2.988281 1.25977,0 2.46094,1.347656 l 1.05469,-0.117187 q 1.78711,0 2.40234,2.929687 V 90.625 q 0,1.801758 -2.10937,2.871094 l -0.46875,0.117187 h -0.11719 v 2.109375 l -0.11719,0.117188 h -1.46484 q -0.57129,1.757812 -2.16797,2.636718 h -0.17578 l 0.52734,3.339848 q 0.9961,0.17578 0.9961,0.99609 -0.21973,1.11328 -0.9961,1.11328 h -0.0586 q -0.60059,0 -0.82031,-1.05469 v -0.35156 l 0.46875,-0.52734 q -0.35157,-2.036135 -0.35157,-3.281253 l -0.0586,-0.05859 v -0.05859 l -0.76172,0.117187 q -0.74707,0 -1.58203,-0.585937 l -1.17187,1.93359 v 0.0586 l 0.11718,0.46875 q -0.17578,1.11328 -0.8789,1.11328 h -0.29297 q -0.76172,-0.16113 -0.76172,-0.9375 v -0.0586 q 0.14648,-0.732427 0.87891,-0.878911 h 0.58593 q 0.68848,-1.083985 1.40625,-1.816407 -0.82031,-1.113281 -0.82031,-2.167968 h -1.52344 l -0.11718,-0.117188 v -1.582031 q -2.51954,-0.820313 -2.51954,-2.519531 0,-1.889649 1.34766,-2.929688 0.60059,-0.351562 1.17188,-0.351562 l -0.0586,-1.582032 V 86.40625 l 0.11719,-0.117188 h 3.57422 q 0.11719,0 0.11719,0.234375 l 0.17578,-0.05859 -0.9375,-2.285157 q -0.87891,0 -1.05469,-1.171875 0,-0.454101 0.58594,-0.527343 h 0.23437 q 0.70313,0.05859 0.70313,0.585937 V 83.125 l -0.29297,0.703125 q 0.99609,2.021484 0.99609,2.519531 l 0.9375,-0.175781 h 0.52735 l 0.82031,-2.695313 q -0.46875,-0.219726 -0.46875,-0.761718 0.20508,-0.878907 0.82031,-0.878907 z m -0.58594,0.9375 q 0.10254,0.46875 0.23438,0.46875 h 0.0586 q 0,-0.292968 0.29297,-0.292968 0.35156,-0.351563 0.35156,-0.585938 -0.14648,-0.292969 -0.46875,-0.292969 h -0.0586 q -0.41016,0.234375 -0.41016,0.703125 z M 207.95898,83.125 q 0.23438,0.761719 0.46875,0.761719 h 0.0586 l -0.0586,-0.05859 v -0.117188 q 0.58594,-0.424804 0.58594,-0.703125 -0.24902,-0.351562 -0.46875,-0.351562 -0.58594,0 -0.58594,0.46875 z m 0.64454,0.820312 v 0.05859 h 0.11718 v -0.05859 z m 0.29296,4.277344 h -0.0586 l -0.11719,-0.996094 h -2.05078 l 0.0586,2.167969 v 5.507813 h 2.34375 v -4.101563 q 0,-1.420898 0.8789,-1.757812 l 0.35156,-0.05859 h 0.23438 q 1.11328,0 1.11328,1.640625 v 4.277344 h 2.34375 V 90.15625 q 0,-2.695313 -2.46094,-3.105469 h -0.29297 q -1.30371,0 -2.34375,1.171875 z m 2.46094,-0.9375 q 1.71387,0 2.28516,1.992188 0.17578,0.585937 0.17578,1.875 v 3.457031 l -0.11719,0.117187 h -1.69922 l -0.11718,-0.117187 v -3.808594 q 0,-2.050781 -1.28907,-2.050781 h -0.35156 q -0.9375,0 -1.34766,1.230469 v 4.628906 l -0.11718,0.117187 h -1.69922 l -0.11719,-0.117187 v -4.746094 l -0.0586,-2.34375 0.0586,-0.05859 h 1.40625 q 0.16113,0 0.29297,0.996094 l 0.0586,0.05859 h 0.23438 q 1.05469,-1.230469 2.40234,-1.230469 z m -2.34375,1.40625 h -0.29297 q -0.30761,0 -0.35156,-0.9375 v -0.117187 h -1.28906 l 0.0586,1.875 v 5.039062 h 1.58203 v -4.628906 q 0.4834,-1.347656 1.46485,-1.347656 h 0.46875 q 1.25976,0 1.40625,1.992187 v 3.984375 h 1.58203 v -3.339844 q 0,-2.534179 -0.9375,-3.28125 -0.84961,-0.46875 -1.46485,-0.46875 -1.08398,0 -2.22656,1.230469 z m 5.27344,-1.054687 v 0.05859 q 0.35156,0.878907 0.46875,0.878907 0.9375,0 1.58203,1.523437 v 0.761719 q 0,0.864258 -0.9375,1.816406 l -0.29297,0.117188 -0.17578,-0.05859 v 0.644531 q 2.40234,-0.922851 2.40234,-2.8125 0,-1.40625 -1.23046,-2.636719 -0.46875,-0.351562 -0.9961,-0.351562 z m -10.60547,3.984375 q 0,1.376953 2.10938,2.167968 V 92.96875 h -0.29297 q -0.87891,0 -1.34766,-1.757813 v -0.292968 q 0,-1.142578 1.64063,-1.992188 v -0.410156 h -0.17579 q -1.45019,0 -1.93359,2.753906 z m 11.07422,-2.8125 v 0.05859 q 0,0.498047 0.46875,0.820313 0.29297,0.366211 0.29297,0.761719 -0.24903,1.054687 -0.58594,1.054687 v 1.054688 q 1.05469,-0.820313 1.05469,-2.109375 0,-1.098633 -1.23047,-1.640625 z m -10.25391,2.226562 q 0,1.201172 1.28907,1.640625 v -0.410156 q -0.68848,0 -0.87891,-1.347656 0,-0.791016 0.87891,-1.347657 v -0.410156 q -1.28907,0.747071 -1.28907,1.875 z M 214.93164,89.6875 v 1.464844 q 0.35156,-0.395508 0.35156,-0.761719 0,-0.498047 -0.35156,-0.703125 z m -9.60937,1.113281 v 0.234375 q 0,0.556641 0.46875,0.878906 v -2.050781 q -0.30762,0 -0.46875,0.9375 z m 4.6875,-0.410156 v 5.332031 l -0.11719,0.117188 h -0.76172 q 0.29297,0.585937 0.87891,0.585937 h 0.35156 q 0.58594,0 0.99609,-0.585937 -0.64453,0 -0.64453,-0.117188 v -5.273437 l -0.11719,-0.527344 h -0.17578 q -0.41015,0 -0.41015,0.46875 z m -2.40235,5.449219 q 0.67383,2.460937 2.28516,2.460937 h 0.17578 q 1.68457,0 2.92969,-2.050781 l 0.11718,-0.410156 h -0.64453 v 0.05859 q 0,1.625977 -2.16797,1.992188 -1.72851,0 -2.16796,-1.289063 l -0.0586,-0.234375 v -0.410156 l 0.0586,-0.05859 v -0.05859 z m 0.70313,0 v 0.292968 q 0.4541,1.40625 1.69922,1.40625 1.62597,0 2.16796,-1.230468 l 0.0586,-0.46875 h -0.41016 q -0.65918,0.9375 -1.34765,0.9375 h -0.11719 q -1.40625,0 -1.40625,-0.9375 z m -2.57813,4.628906 q 0,0.87891 0.58594,0.87891 0.70312,-0.19043 0.70312,-0.82032 v -0.11718 h -0.0586 l -0.17578,0.0586 -0.11719,-0.17578 0.0586,-0.17578 h -0.17579 l -0.41015,0.11719 L 206.08398,100 q -0.19043,0.0732 -0.35156,0.46875 z m 5.80078,1.75781 q 0,0.35157 -0.11718,0.35157 l -0.17579,-0.11719 -0.35156,0.17578 q 0.17578,0.99609 0.64453,0.99609 0.70313,-0.30761 0.70313,-0.8789 -0.11719,-0.52735 -0.52735,-0.52735 z" />
      <path
         id="path36"
         style=""
         d="m 221.72852,79.711914 q 1.96289,0 2.69531,2.988281 v 0.410157 q 0,2.021484 -1.99219,3.105468 0,0.131836 0.64453,0.234375 l 0.87891,0.46875 v -0.05859 l -0.11719,-0.46875 v -0.527344 q 0,-0.366211 0.52734,-0.761719 h 0.0586 v 0.05859 l -0.11719,0.234375 h 0.0586 q 0.62989,-0.761719 1.23047,-0.761719 1.14258,0 1.75782,1.289063 v 0.351562 q 0,1.201172 -1.875,1.582031 h -0.23438 l -0.41016,-0.05859 q 0.9375,1.435546 0.9375,3.105468 -0.14648,1.875 -0.35156,1.875 h -0.41015 v 0.05859 l 0.41015,2.34375 q -1.68457,0.878906 -3.80859,0.878906 -1.37696,0 -2.63672,-0.585937 v 0.117187 q 0.39551,0.864258 1.40625,1.230469 0.71777,0.175781 1.34766,0.175781 0.76171,0 5.09765,-0.878906 l 1.23047,-0.175781 0.23438,0.05859 0.29296,-0.05859 q 2.98829,0.541992 2.98829,1.699219 v 0.117187 q 0,0.688477 -1.81641,1.816406 l -1.23047,0.351563 q -1.58203,0 -1.58203,-0.996094 0.11719,-0.527344 0.58594,-0.527344 h 0.11718 l 0.17579,0.175782 q 0,0.117187 -0.41016,0.117187 l -0.11719,0.292969 q 0.17578,0.527344 0.76172,0.527344 h 0.29297 q 1.72851,0 2.87109,-1.640625 l 0.0586,-0.292969 q 0,-0.65918 -2.28516,-1.230469 h -0.82031 q -0.90821,0 -5.44922,0.9375 l -0.9375,0.117188 q -2.3291,0 -2.98828,-1.523438 0,-0.615234 -0.70313,-0.996094 -1.46484,-1.420898 -1.46484,-3.339843 V 90.90332 q 0,-2.548828 2.34375,-4.101562 0.83496,-0.46875 2.05078,-0.644531 0.46875,-0.629883 0.46875,-1.289063 v -0.05859 q -0.29297,-1.40625 -1.05469,-1.40625 h -0.29297 q -0.48339,0 -0.64453,0.644532 0.19043,0.46875 0.58594,0.46875 l 0.29297,-0.05859 0.17578,0.234375 -0.17578,0.175781 q -1.11328,-0.175781 -1.11328,-0.820312 0,-0.600586 0.8789,-0.820313 h 0.17579 q 0.96679,0 1.34765,1.523438 0,0.893554 -0.41015,1.40625 v 0.05859 h 0.52734 q 1.12793,-0.380859 1.99219,-1.816406 0.21972,-0.585937 0.29297,-1.289062 -0.49805,-2.988282 -2.34375,-2.988282 -0.73243,0 -0.82032,0.644532 v 0.175781 q 0,0.146484 0.70313,0.703125 v 0.05859 l -0.11719,0.117187 h -0.23437 q -0.70313,-0.395508 -0.70313,-0.996094 V 80.59082 q 0.24902,-0.878906 1.17188,-0.878906 z m 2.40234,6.679688 q 0.20508,1.113281 1.05469,1.113281 h 0.35156 q 1.58203,-0.336914 1.58203,-1.464844 -0.39551,-1.054687 -1.46484,-1.054687 h -0.11719 q -0.67383,0 -1.40625,1.40625 z m 1.05469,-1.171875 q 0.33691,0.263671 0.41015,0.585937 l 0.9961,-0.351562 0.11718,0.117187 -0.9375,0.644531 0.23438,0.820313 -0.17578,0.117187 h -0.0586 l -0.52734,-0.410156 q -0.27832,0 -0.46875,0.351563 h -0.0586 l -0.11719,-0.117188 v -0.05859 l 0.11719,-0.410156 -0.17578,-0.175781 v -0.05859 q 0.52734,-0.263672 0.52734,-0.996094 l 0.0586,-0.05859 z m -7.67578,6.035156 q 0,2.695312 2.46093,3.632812 0.83496,0.234375 1.64063,0.234375 2.63672,-0.131836 2.7539,-0.585937 -0.21972,-1.464844 -0.35156,-1.464844 -0.9668,0.292969 -2.05078,0.292969 -1.72852,0 -2.16797,-1.230469 v -0.117187 l 0.11719,-0.117188 h 4.74609 q 0.17578,0 0.17578,-0.9375 0,-3.28125 -2.87109,-3.808594 l -0.64453,-0.05859 q -2.75391,0 -3.69141,3.046875 z m 3.92578,-3.925781 q 2.28515,0 2.98828,2.402343 0.17578,0.541992 0.17578,1.347657 v 0.117187 q 0,0.424805 -0.17578,0.46875 h -4.6875 l -0.17578,0.175781 v 0.175782 q 0.29297,1.582031 2.28515,1.582031 h 0.17578 q 1.06934,0 1.81641,-0.234375 0.14648,0 0.23438,1.113281 -1.04004,0.410156 -2.40235,0.410156 h -0.11719 q -2.49023,0 -3.45703,-1.992187 -0.35156,-0.864258 -0.35156,-1.699219 0,-2.402344 2.10938,-3.515625 0.71777,-0.351562 1.58203,-0.351562 z m -3.51563,3.925781 q 0,2.475586 2.28516,3.222656 0.60058,0.234375 1.40625,0.234375 1.18652,0 2.28515,-0.351562 l -0.11718,-0.761719 q -0.89356,0.175781 -1.81641,0.175781 h -0.0586 q -1.9336,0 -2.51953,-1.464844 v -0.527343 l 0.29296,-0.292969 h 4.6875 l 0.0586,-0.292969 v -0.05859 q 0,-2.958984 -2.34375,-3.574218 l -0.76172,-0.05859 q -2.03613,0 -3.04688,2.050781 -0.35156,1.040039 -0.35156,1.699219 z m 3.22266,-2.988281 h 0.23437 q 1.3916,0 1.64063,1.699218 v 0.410157 l -0.29297,0.292968 h -3.04688 l -0.29296,-0.292968 v -0.234375 q 0,-1.171875 1.28906,-1.816407 z m -1.58203,1.933593 v 0.117188 l 0.17578,0.175781 h 2.92969 l 0.17578,-0.175781 v -0.292969 q -0.17578,-1.582031 -1.52344,-1.582031 h -0.11719 q -1.40625,0 -1.64062,1.757812 z m 1.58203,-1.523437 h 0.23437 q 1.05469,0 1.23047,1.464844 l -0.11719,0.117187 h -2.69531 v -0.117187 q 0.32227,-1.464844 1.34766,-1.464844 z" />
      <path
         id="path38"
         style=""
         d="m 231.90918,82.128906 h 0.0586 q 0.62989,0 0.76172,0.9375 -0.33691,1.171875 -1.64062,1.171875 l -0.0586,-0.05859 V 84.0625 q 0,-0.102539 0.9375,-0.292969 0.52735,-0.351562 0.52735,-0.703125 v -0.234375 q -0.0732,-0.527344 -0.52735,-0.527344 h -0.29297 q -1.18652,0.322266 -2.05078,1.640625 l -0.17578,0.644532 q 0,1.054687 1.99219,1.699218 h 1.17187 l 1.11329,0.05859 q 1.8164,-0.527344 2.22656,-0.527344 h 0.35156 q 1.875,0.205079 1.875,1.40625 l 0.0586,0.351563 v 0.117187 q 0,1.083985 -1.52343,2.8125 v 3.515625 q 0,0.600586 0.29297,1.875 l -0.0586,0.05859 h -3.86719 l -0.17578,-0.117187 q -0.76172,1.713867 -0.76172,3.222656 2.28516,-0.410156 2.28516,-1.523438 v -0.117187 l -0.29297,-0.05859 h -0.0586 q -0.73242,0 -0.87891,0.9375 l 0.0586,0.05859 -0.0586,0.05859 h -0.11719 q -0.17578,-0.05859 -0.17578,-0.351563 0,-0.673828 1.11328,-0.9375 h 0.23438 q 0.41016,0 0.41016,0.410156 v 0.05859 q 0,1.259766 -2.34375,1.757813 h -0.11719 v 0.117187 q 0.41015,1.816404 1.46484,1.816404 1.21582,0 2.05078,-1.347654 l 0.0586,-0.234375 v -0.292969 l -0.29297,-0.05859 q -0.33692,0 -0.70313,0.351562 h -0.0586 l -0.11719,-0.117187 v -0.175782 q 0,-0.161132 0.64453,-0.410156 0.76172,0.117188 0.76172,0.585938 0,0.996096 -1.69922,1.816406 -0.23437,0.11719 -0.64453,0.11719 -1.3916,0 -1.875,-2.167971 -1.64062,0 -1.64062,-1.640625 0,-0.747071 0.76172,-1.582032 -1.25977,0 -2.51954,-1.523437 -0.41015,-0.849609 -0.41015,-1.523438 V 92.5 q 0,-1.274414 1.17187,-2.226563 l -0.82031,-2.871093 q 1.86035,-0.996094 2.46094,-0.996094 v -0.05859 q -1.58203,-0.761719 -1.58203,-1.523437 v -0.117188 q 0,-1.450195 2.16797,-2.519531 z m 2.69531,4.570313 q 0.49805,0.219726 1.11328,0.820312 l 0.17578,-0.175781 v -0.117188 q -0.30761,0 -0.35156,-0.175781 l 0.11719,-0.117187 q 0.32227,0 0.41016,0.234375 v 0.292968 l -0.17579,0.234375 v 0.05859 q 0.76172,1.069336 0.76172,2.402344 1.40625,-1.494141 1.40625,-2.578125 -0.20507,-1.582031 -1.46484,-1.582031 -1.20117,0 -1.99219,0.703125 z m -0.52734,-0.234375 v 0.05859 l 0.17578,0.05859 q 0.41016,-0.205078 0.41016,-0.292969 h -0.0586 z m -4.62891,1.347656 q 0.33692,1.523437 0.46875,1.523437 1.01074,-0.527343 2.10938,-0.527343 h 0.0586 q 1.28906,0 1.28906,0.9375 v 0.05859 q 0,0.117188 -1.875,0.292969 -1.68457,0.454102 -2.28515,1.40625 -0.35157,0.747071 -0.35157,1.347656 0,1.684571 1.875,2.34375 h 0.82032 q 1.12793,0 1.99218,-0.878906 0.14649,0 0.17579,0.703125 l 0.0586,0.05859 h 2.10937 l -0.11718,-1.347656 v -2.988282 q 0,-3.574218 -3.39844,-3.574218 -1.3916,0 -2.92969,0.644531 z m 3.04688,-0.410156 q 3.04687,0 3.04687,3.164062 v 3.046875 l 0.0586,1.171875 -0.0586,0.05859 h -1.46484 q -0.10254,0 -0.29297,-0.703125 l -0.0586,-0.05859 h -0.29297 q -0.9668,0.9375 -2.10938,0.9375 -2.22656,-0.380859 -2.22656,-2.167969 0,-1.977539 2.8125,-2.578125 l 1.58203,-0.117187 0.11719,-0.175781 v -0.410157 q 0,-0.878906 -1.58203,-0.996093 h -0.0586 q -0.92285,0 -1.93359,0.410156 l -0.29297,-0.996094 q 1.31836,-0.585937 2.75391,-0.585937 z m -2.51953,0.703125 0.17578,0.644531 q 0.79101,-0.351563 1.93359,-0.351563 1.28906,0 1.69922,0.996094 v 0.644531 q -0.16113,0.292969 -0.35156,0.292969 -2.90039,0 -3.86719,1.464844 -0.29297,0.600586 -0.29297,1.113281 0,1.142578 1.28906,1.757813 l 0.76172,0.175781 q 1.06934,0 2.05078,-0.9375 h 0.35157 q 0.35156,0.146484 0.35156,0.703125 l 0.0586,0.05859 h 1.28906 l -0.0586,-0.703125 V 90.625 q 0,-3.046875 -2.98828,-3.046875 -1.18652,0 -2.40234,0.527344 z m 3.63281,2.929687 0.29297,0.292969 v 0.703125 q 0,1.333008 -0.9375,1.757812 0,0.146485 -0.70313,0.175782 h -0.29297 q -1.17187,-0.234375 -1.17187,-1.171875 v -0.175782 q 0,-1.40625 1.99219,-1.582031 z m -2.63672,1.699219 q 0.14648,1.054687 1.05469,1.054687 h 0.17578 Q 233.66699,93.583984 233.66699,92.5 l 0.0586,-0.527344 v -0.585937 l -0.17579,-0.175782 h -0.64453 Q 230.97168,91.37207 230.97168,92.5 Z m 2.46094,-1.347656 0.0586,0.05859 v 0.703125 q -0.16113,1.40625 -1.23047,1.40625 h -0.17578 q -0.87891,-0.07324 -0.87891,-0.878906 v -0.05859 q 0,-1.230468 2.22657,-1.230468 z m -1.28907,1.230468 h 0.17579 l 0.17578,-0.175781 h -0.0586 q -0.29297,0.07324 -0.29297,0.175781 z m -0.70312,3.515625 h -0.17578 q -0.76172,0.600586 -0.76172,1.230469 v 0.585938 q 0,0.996093 1.28906,1.113281 v -0.292969 q 0,-1.333008 0.64453,-2.753906 z" />
    </g>
  </g>
</svg>
