<?xml version="1.0" encoding="UTF-8" standalone="no"?>
<svg
   xmlns:dc="http://purl.org/dc/elements/1.1/"
   xmlns:cc="http://creativecommons.org/ns#"
   xmlns:rdf="http://www.w3.org/1999/02/22-rdf-syntax-ns#"
   xmlns:svg="http://www.w3.org/2000/svg"
   xmlns="http://www.w3.org/2000/svg"
   id="svg16"
   width="800px"
   version="1.1"
   height="200px">
  <metadata
     id="metadata20">
    <rdf:RDF>
      <cc:Work
         rdf:about="">
        <dc:format>image/svg+xml</dc:format>
        <dc:type
           rdf:resource="http://purl.org/dc/dcmitype/StillImage" />
      </cc:Work>
    </rdf:RDF>
  </metadata>
  <defs
     id="defs4">
    <style
       id="style2"
       type="text/css"><![CDATA[    
     @font-face {font-family:Vtks Victory;
     src: url('/Users/francesco/Repos/write-logos/src/fonts/Vtks_Victory.ttf');}
     @font-face {font-family:Belakonte;
     src: url('/Users/francesco/Repos/write-logos/src/fonts/Belakonte.ttf');}
     ]]></style>
  </defs>
  <g
     id="g14"
     style="font-size:60px">
    <g
       style="text-anchor:middle"
       id="text12"
       aria-label="eXtemporanea">
      <path
         id="path22"
         style="font-family:'Vtks Victory'"
         d="m 274.3457,77.96875 q 4.10157,0.615234 4.10157,2.695312 0.35156,0.84961 0.35156,1.523438 l -0.11719,0.351562 q 0.61523,0 0.70313,1.171875 0,1.40625 -5.15625,6.914063 -0.35157,0.615234 -0.35157,1.40625 0,0.380859 0.82032,1.054687 v 0.117188 l -0.23438,0.234375 h -0.46875 q -1.40625,-1.025391 -1.40625,-2.226563 V 91.09375 l 0.58594,-2.578125 h -0.11719 l -1.99219,0.351562 -0.35156,-0.46875 v -0.351562 q 0.0293,-0.205078 2.22656,-1.171875 2.57813,-2.197266 2.57813,-4.335938 -0.58594,-2.226562 -1.75781,-2.226562 -0.76172,0 -2.8125,1.757812 -1.25977,1.054688 -1.75782,4.21875 -0.58593,3.515625 -1.40625,3.515625 h -0.23437 q -0.35156,0 -0.35156,-1.523437 v -0.9375 l -0.46875,-0.117188 q -0.23438,0 -1.64063,1.640625 l -0.35156,0.117188 -0.11719,-0.117188 V 88.75 l 0.70313,-3.046875 h -0.11719 q -2.34375,1.171875 -3.63281,1.171875 -1.23047,0 -1.64063,-1.757813 0.23438,-0.9375 0.82031,-0.9375 0.46875,0 0.58594,1.171875 h 0.23438 q 0.76171,0 4.57031,-4.21875 3.01758,-2.490234 6.79687,-3.046875 z m -8.55468,5.507812 h 0.23437 q 3.36914,-2.724609 5.15625,-3.164062 v -0.117188 l -0.11719,-0.117187 h -0.11718 q -1.66993,0.08789 -5.03907,3.164062 l -0.11718,0.117188 z m 11.25,-2.460937 -0.11719,0.117187 0.11719,0.117188 v 1.289062 q 0,0.9375 -1.40625,2.695313 v 0.234375 q 1.875,-1.494141 1.875,-3.28125 -0.0879,-1.171875 -0.46875,-1.171875 z m -10.19532,4.570312 h 0.11719 l 2.22656,-2.8125 V 82.65625 q -1.14258,0 -2.34375,2.929687 z m -3.04687,2.460938 h 0.23437 l -0.35156,1.757812 0.11719,0.351563 h 0.35156 q 0.49805,0 1.875,-1.171875 v 0.234375 q -0.55664,0.820312 -0.58594,1.640625 v 0.585937 Q 265.99609,92.5 266.72852,92.5 h 0.11718 q 1.96289,0 4.57032,-2.695313 V 89.6875 h 0.11718 l 0.35157,0.351562 q 0,2.109375 -0.58594,2.109375 -2.63672,1.523438 -5.27344,1.523438 h -0.11719 l -0.23437,1.054687 0.11719,0.117188 -0.11719,0.820312 v 0.117188 q 0,1.230469 1.64062,2.578125 l 2.22657,0.585937 0.11718,-0.117187 0.58594,0.117187 q 3.39844,-0.351562 4.80469,-1.40625 3.66211,-3.486328 3.86719,-4.804687 0,-0.966797 1.28906,-1.054688 l 0.46875,0.351563 q -2.66602,5.771484 -4.33594,5.976562 -2.31445,2.109378 -4.21875,2.460938 l -2.57812,0.58594 v -0.11719 l -1.17188,0.35156 v -0.11718 l -0.11719,0.11718 h -1.52343 l -0.46875,0.11719 q -0.58594,-0.35156 -2.34375,-0.46875 -2.57813,-1.464844 -2.57813,-3.984375 v -0.46875 q 0.0586,-1.289063 0.35156,-1.523438 l -0.11718,-0.117187 1.05468,-3.867188 -0.11718,-0.117187 v -0.117188 z m 0.11719,5.625 -0.23438,1.054687 v 1.054688 q 0,3.984375 4.80469,3.984375 h 0.9375 l 0.58594,-0.117188 v -0.234375 h -0.70313 q -4.04297,0 -4.92187,-1.757812 -0.35157,-1.201172 -0.35157,-2.226563 0,-0.996093 0.23438,-1.640625 l -0.11719,-0.117187 z" />
      <path
         id="path24"
         style="font-family:Belakonte"
         d="m 324.79492,84.560547 v 0 l 0.82031,0.263672 q -3.19336,10.048828 -7.99804,15.234371 -3.95508,4.13086 -7.99805,4.13086 -0.0586,0 -0.0879,0 -0.0293,0 -0.0586,0 v 0 q 0,0 -0.0293,0 0,0 -0.0293,0 -0.52734,-0.0293 -1.05469,-0.11718 -1.96289,-0.32227 -3.45703,-1.75782 -2.22656,-2.13867 -3.45703,-5.800778 -1.23047,-3.691406 -1.78711,-8.027344 -0.52734,-4.365234 -0.67383,-8.4375 -0.14648,0.117188 -0.29296,0.234375 -4.51172,3.955078 -8.4961,7.792969 -3.98437,3.808594 -6.67969,7.58789 -2.66601,3.779297 -3.25195,7.558598 -0.0586,0.23437 -0.23437,0.35156 -0.14649,0.14648 -0.38086,0.11719 l -0.43946,-0.0586 q -0.17578,-0.0293 -0.29296,-0.17578 -0.0879,-0.11719 -0.0586,-0.29297 0.52735,-3.691404 3.07617,-7.324216 2.54883,-3.632813 6.32813,-7.265625 3.7793,-3.66211 8.08594,-7.382813 0.8789,-0.791015 1.75781,-1.552734 0.41015,-0.38086 0.82031,-0.732422 -0.0586,-1.787109 -0.11719,-3.339844 0,-0.146484 0,-0.263672 -0.0293,-0.878906 -0.0586,-1.875 -0.0879,-5.009765 -0.55664,-10.693359 -0.46875,-5.712891 -1.99219,-9.023438 -0.79101,-1.464843 -1.78711,-1.816406 -0.96679,-0.351562 -1.8457,-0.05859 -0.84961,0.292969 -1.25977,0.791016 -0.26367,0.234375 -0.49804,-0.0293 -0.23438,-0.263672 -0.26368,-0.732422 0,-0.46875 0.38086,-0.791015 0.55664,-0.439453 1.58204,-0.556641 1.05468,-0.146484 2.31445,0.46875 1.28906,0.615234 2.51953,2.402344 1.52344,2.490234 2.34375,6.416015 0.82031,3.896485 1.14258,8.056641 0.35156,4.160156 0.41015,7.353516 0,0.05859 0.0293,0.117187 0,0.703125 0.0293,1.435547 4.39453,-3.896484 8.26172,-7.939453 3.86718,-4.072266 6.62109,-8.378906 2.7832,-4.306641 3.83789,-8.935547 0.0293,-0.117188 0.11719,-0.175781 0.0879,-0.05859 0.20508,-0.05859 l 0.55664,0.117187 q 0.14648,0.05859 0.20508,0.175782 0.0879,0.08789 0.0586,0.234375 -1.11328,4.833984 -4.07227,9.316406 -2.95898,4.453125 -7.08984,8.642578 -4.10156,4.160156 -8.64258,8.173828 0.11719,3.779297 0.46875,8.056641 0.35156,4.277343 1.14258,8.144531 0.82031,3.837891 2.28516,6.357425 1.49414,2.51953 3.86718,2.7832 0.0293,0 0.0879,0 0.11719,0.0293 0.26368,0.0293 3.80859,0.0293 7.5,-3.867191 4.6582,-5.009765 7.82226,-14.882812 z" />
      <path
         id="path26"
         style="font-family:'Vtks Victory'"
         d="m 338.94531,66.71875 h 0.70313 q 1.05468,0 1.17187,1.40625 -0.67383,1.611328 -1.75781,1.992187 -2.05078,3.134766 -3.98438,7.96875 l 0.11719,0.46875 h -0.11719 q 0,0.761719 1.64063,1.171875 l 1.52344,-0.117187 3.75,0.234375 h 0.11718 l 0.11719,0.117187 h 0.11719 q 0.32227,-1.640625 0.9375,-1.640625 0.9375,0.146485 0.9375,0.46875 v 0.117188 q 0,1.025391 -1.99219,2.226562 l -1.17187,0.351563 v -0.117188 l -0.58594,0.351563 -0.70313,-0.117188 -0.11718,0.117188 h -0.11719 l -0.11719,-0.117188 -1.17187,0.234375 -3.04688,-0.46875 q -1.66992,0 -2.8125,4.453125 -0.20508,0 -0.23437,0.585938 v 0.117187 q 0.26367,0.439454 0.9375,0.820313 h 0.11718 l 0.35157,-0.234375 h 0.35156 l 0.35156,0.351562 v 0.117188 q -0.26367,1.289062 -1.75781,1.289062 h -0.23438 q -1.20117,0 -1.40625,-1.757812 v -0.46875 l -0.46875,-0.117188 q 0,0.410157 -1.40625,1.40625 L 328.75,87.695312 V 86.875 q 0,-0.644531 -1.05469,-0.9375 -0.43945,0.46875 -1.99219,0.46875 v -0.234375 q 3.51563,-3.251953 3.51563,-4.804688 V 80.78125 h -0.23438 l -0.35156,0.234375 h -0.82031 l -0.46875,0.117187 -0.11719,-0.117187 h -0.11719 l -0.46875,0.117187 -0.35156,-0.585937 q 0,-0.410156 0.70313,-1.289063 l 1.52343,0.234375 q 2.54883,-0.585937 2.57813,-0.9375 1.28906,-2.050781 2.46094,-4.6875 1.64062,-3.222656 1.64062,-4.335937 0.46875,-0.703125 1.05469,-0.703125 h 0.9375 q 1.99219,-0.117188 1.99219,-0.46875 0,-0.205078 -1.05469,-0.585938 l -0.11719,-0.117187 v -0.351563 q 0.29297,-0.585937 0.9375,-0.585937 z m -10.42969,18.515625 q 3.69141,-4.130859 5.27344,-8.789063 h -0.23437 q -0.38086,0.322266 -1.75782,3.75 l -3.16406,4.570313 z m 4.10157,-3.867188 q -1.55274,2.578125 -1.75782,3.28125 h 0.11719 q 1.875,-2.43164 1.875,-3.164062 l -0.11719,-0.117188 z m -4.80469,5.742188 0.23437,0.46875 -0.11718,1.523437 0.46875,0.234375 1.75781,-1.40625 0.11719,0.351563 q -1.05469,3.369141 -2.22657,5.625 0.20508,1.992187 0.9375,1.992187 0.79102,0.703125 2.46094,0.703125 3.42774,0 5.27344,-4.21875 1.17187,-2.8125 2.46094,-2.8125 l 0.23437,-0.234375 0.35156,0.117188 V 89.6875 q -4.42382,5.742187 -4.57031,6.796875 -1.31836,2.226562 -2.69531,2.226562 h -0.70313 q -0.9375,-0.146484 -0.9375,-0.703125 h -0.35156 q 0,1.171875 1.75781,1.171875 L 333.08594,99.0625 Q 331.91406,100 330.74219,100 q -0.90821,0 -2.22657,-1.757813 L 328.39844,98.125 h -0.11719 q -2.13867,1.171875 -3.28125,1.171875 -0.82031,0 -1.05469,-2.109375 0,-1.435547 3.63281,-9.960938 l 0.11719,-0.117187 z m -0.11719,4.101562 q -1.40625,4.482422 -1.40625,5.039063 h 0.23438 l 1.52343,-4.921875 -0.11718,-0.117188 z" />
      <path
         id="path28"
         style="font-family:'Vtks Victory'"
         d="m 353.56445,77.96875 q 4.10157,0.615234 4.10157,2.695312 0.35156,0.84961 0.35156,1.523438 l -0.11719,0.351562 q 0.61523,0 0.70313,1.171875 0,1.40625 -5.15625,6.914063 -0.35157,0.615234 -0.35157,1.40625 0,0.380859 0.82032,1.054687 v 0.117188 l -0.23438,0.234375 h -0.46875 q -1.40625,-1.025391 -1.40625,-2.226563 V 91.09375 l 0.58594,-2.578125 h -0.11719 l -1.99219,0.351562 -0.35156,-0.46875 v -0.351562 q 0.0293,-0.205078 2.22656,-1.171875 2.57813,-2.197266 2.57813,-4.335938 -0.58594,-2.226562 -1.75781,-2.226562 -0.76172,0 -2.8125,1.757812 -1.25977,1.054688 -1.75782,4.21875 -0.58593,3.515625 -1.40625,3.515625 h -0.23437 q -0.35156,0 -0.35156,-1.523437 v -0.9375 l -0.46875,-0.117188 q -0.23438,0 -1.64063,1.640625 l -0.35156,0.117188 -0.11719,-0.117188 V 88.75 l 0.70313,-3.046875 h -0.11719 q -2.34375,1.171875 -3.63281,1.171875 -1.23047,0 -1.64063,-1.757813 0.23438,-0.9375 0.82031,-0.9375 0.46875,0 0.58594,1.171875 h 0.23438 q 0.76171,0 4.57031,-4.21875 3.01758,-2.490234 6.79687,-3.046875 z m -8.55468,5.507812 h 0.23437 q 3.36914,-2.724609 5.15625,-3.164062 v -0.117188 l -0.11719,-0.117187 h -0.11718 q -1.66993,0.08789 -5.03907,3.164062 l -0.11718,0.117188 z m 11.25,-2.460937 -0.11719,0.117187 0.11719,0.117188 v 1.289062 q 0,0.9375 -1.40625,2.695313 v 0.234375 q 1.875,-1.494141 1.875,-3.28125 -0.0879,-1.171875 -0.46875,-1.171875 z m -10.19532,4.570312 h 0.11719 l 2.22656,-2.8125 V 82.65625 q -1.14258,0 -2.34375,2.929687 z m -3.04687,2.460938 h 0.23437 l -0.35156,1.757812 0.11719,0.351563 h 0.35156 q 0.49805,0 1.875,-1.171875 v 0.234375 q -0.55664,0.820312 -0.58594,1.640625 v 0.585937 Q 345.21484,92.5 345.94727,92.5 h 0.11718 q 1.96289,0 4.57032,-2.695313 V 89.6875 h 0.11718 l 0.35157,0.351562 q 0,2.109375 -0.58594,2.109375 -2.63672,1.523438 -5.27344,1.523438 h -0.11719 l -0.23437,1.054687 0.11719,0.117188 -0.11719,0.820312 v 0.117188 q 0,1.230469 1.64062,2.578125 l 2.22657,0.585937 0.11718,-0.117187 0.58594,0.117187 q 3.39844,-0.351562 4.80469,-1.40625 3.66211,-3.486328 3.86719,-4.804687 0,-0.966797 1.28906,-1.054688 l 0.46875,0.351563 q -2.66602,5.771484 -4.33594,5.976562 -2.31445,2.109378 -4.21875,2.460938 l -2.57812,0.58594 v -0.11719 l -1.17188,0.35156 v -0.11718 l -0.11719,0.11718 h -1.52343 l -0.46875,0.11719 q -0.58594,-0.35156 -2.34375,-0.46875 -2.57813,-1.464844 -2.57813,-3.984375 v -0.46875 q 0.0586,-1.289063 0.35156,-1.523438 l -0.11718,-0.117187 1.05468,-3.867188 -0.11718,-0.117187 v -0.117188 z m 0.11719,5.625 -0.23438,1.054687 v 1.054688 q 0,3.984375 4.80469,3.984375 h 0.9375 l 0.58594,-0.117188 v -0.234375 h -0.70313 q -4.04297,0 -4.92187,-1.757812 -0.35157,-1.201172 -0.35157,-2.226563 0,-0.996093 0.23438,-1.640625 l -0.11719,-0.117187 z" />
      <path
         id="path30"
         style="font-family:'Vtks Victory'"
         d="m 361.91406,76.679687 h 0.46875 l 0.35156,0.351563 v 0.351562 L 362.61719,77.5 v 0.117187 l 0.70312,0.234375 h 0.9375 l 3.28125,-0.46875 h 0.11719 q 3.04687,0.263672 3.04687,2.460938 v 0.46875 l -0.46875,1.875 0.11719,0.117187 h 0.11719 l 5.27344,-4.21875 0.9375,-0.46875 1.52343,-0.234375 q 1.9336,0 3.75,2.226563 l 0.23438,1.054687 h 0.46875 q 2.28516,-2.578125 3.75,-2.578125 h 0.11719 l 1.05468,0.234375 0.11719,-0.117187 h 0.11719 q 1.61133,0 2.92969,2.34375 v 0.117187 H 390.625 l 0.11719,0.117188 q 0,1.933594 -1.17188,5.15625 l 0.11719,0.117187 -0.11719,0.820313 v 0.585937 q 0,0.322266 1.52344,0.585938 l 0.23437,0.351562 v 0.234375 l -0.46875,0.46875 H 390.625 q -2.02148,0 -3.28125,-2.34375 l -0.11719,-0.117187 h -0.11719 l -0.9375,2.460937 h -0.23437 l -0.11719,-1.171875 0.23438,-1.054687 q -1.14258,0.703125 -2.46094,0.703125 -0.70313,0 -0.70313,-0.820313 v -0.117187 l 0.35157,-0.351563 h 0.82031 q 0,-0.673828 1.52344,-1.875 l 0.23437,-1.054687 q 0,-1.435547 -1.05469,-1.992188 h -0.35156 q -1.43554,0 -1.99219,1.875 -0.67382,0 -2.34375,3.515625 l 0.11719,2.695313 h -0.23437 q -0.70313,-0.380859 -0.70313,-1.523438 l 0.35156,-1.875 -0.46875,-0.234375 q -0.46875,0 -0.46875,0.703125 -0.43945,0 -1.99218,2.929688 0,0.46875 -0.23438,0.46875 l -0.11719,-0.117188 V 89.6875 l 0.35157,-1.875 v -0.820313 h -0.11719 q -0.76172,0.46875 -1.52344,0.46875 -1.875,-0.46875 -1.875,-1.640625 0.0879,-0.703125 0.35156,-0.703125 h 0.46875 q 0.35157,0.117188 0.35157,0.703125 h 0.46875 q 1.43554,0 2.34375,-2.929687 v -0.46875 q -0.46875,-1.640625 -1.40625,-1.640625 -1.17188,0 -6.09375,4.804687 v 0.703125 L 370,87.578125 q -0.23438,0.527344 -0.46875,0.585937 h -0.35156 q -0.52735,-0.175781 -1.75782,-1.757812 -0.76171,1.640625 -1.75781,1.640625 l -0.23437,-0.703125 v -0.351563 l 0.46875,-0.703125 q -0.11719,-0.46875 -0.58594,-0.46875 -1.08398,0.820313 -1.52344,0.820313 Q 361.44531,86.40625 361.44531,85 v -0.703125 q 0,-1.142578 1.75781,-1.757813 h 0.11719 q 0.46875,0.234375 0.46875,0.585938 -0.43945,0.820312 -0.9375,0.820312 v 0.703125 q 2.8125,-0.703125 2.8125,-2.226562 l 0.35156,-1.289063 -0.11718,-0.351562 -0.82032,0.117187 h -0.58593 q -3.39844,-0.410156 -3.39844,-2.226562 v -0.46875 q 0,-0.966797 0.82031,-1.523438 z m 12.89063,3.046875 v 0.117188 h 0.23437 q 1.84571,-0.703125 2.92969,-0.703125 1.75781,0.205078 1.75781,1.289062 v 0.351563 l -0.70312,2.109375 h 0.11718 q 1.05469,-1.054688 1.05469,-2.226563 -0.35156,-1.875 -2.10937,-1.875 h -0.82032 q -2.05078,0.410157 -2.46093,0.9375 z m -7.96875,-0.820312 v 0.234375 q 1.875,0.9375 1.875,3.046875 l 0.23437,-0.234375 V 81.25 q 0,-1.054688 -1.64062,-2.34375 z m 18.86718,1.054687 v 0.234375 l 0.58594,-0.234375 q 1.75781,0.673829 1.75781,2.929688 l -0.35156,1.640625 h 0.11719 q 0.38086,0 0.58594,-1.40625 v -0.46875 q -0.41016,-3.046875 -2.10938,-3.046875 h -0.23437 z M 364.375,87.8125 q 0.23437,0.0293 0.70312,1.171875 l 0.58594,0.117187 q 0.38086,0 1.28906,-0.703125 h 0.23438 q 0.17578,0 0.35156,0.46875 -1.17187,3.017579 -2.57812,9.023438 -0.64453,1.992187 -1.75782,1.992187 -0.76171,0 -1.40625,-0.703125 h -1.05468 q -2.92969,-0.322265 -2.92969,-2.34375 v -0.234375 q 0.23437,-1.757812 1.52344,-1.757812 h 0.11718 q 0.70313,0.410156 0.70313,1.054687 0,0.46875 -0.46875,0.703125 h -0.70313 v 0.117188 q 0,0.644531 0.70313,1.054687 h 0.46875 q 0.87891,-1.435546 2.10937,-5.390625 1.46485,-3.83789 1.99219,-4.570312 z m 11.36719,0.234375 0.11718,0.117187 -0.23437,1.523438 q 0.0879,1.40625 0.35156,1.40625 h 0.11719 q 0,-0.410156 1.05469,-1.054688 0.70312,0.234375 0.70312,1.289063 -0.35156,2.460937 -2.8125,6.914062 h 0.11719 q 1.81641,-1.054687 2.46094,-1.054687 h 0.35156 q 0.46875,0.234375 0.46875,0.585937 0,0.234375 -1.17188,1.054688 Q 376.41602,100 374.33594,100 h -0.11719 q -0.99609,0 -1.75781,-0.46875 l -0.46875,0.117187 q -0.46875,0 -0.46875,-0.585937 -0.58594,-0.08789 -0.58594,-0.351563 V 97.65625 q 1.93359,-3.896484 3.28125,-8.085938 0.20508,0 0.9375,-1.171875 z m 11.71875,0.117187 0.23437,0.234375 -0.23437,1.875 0.11718,0.117188 -0.11718,0.46875 -0.11719,4.21875 q 0,0.556641 0.82031,0.9375 1.64063,0 4.21875,-2.8125 1.58203,-2.871094 3.39844,-3.398438 l 0.58594,0.117188 v 0.234375 q -2.8125,2.636719 -3.63282,4.6875 -2.25585,3.515625 -4.10156,3.515625 0,0.263672 -2.8125,0.585937 l -1.17187,-0.585937 q -1.875,-0.556641 -1.875,-2.226563 l -0.11719,-0.46875 q 1.31836,-2.636718 1.75781,-5.039062 l 0.11719,-0.117188 q 0.41016,-1.171875 0.58594,-1.171875 0.23437,0.263672 0.58593,2.109375 l -0.11718,0.117188 0.35156,0.351562 q -0.58594,0 -0.58594,1.523438 -0.20508,0 -0.23437,1.992187 v 1.40625 l 0.11718,0.585938 h 0.23438 V 96.25 q 0.20508,-4.335938 0.82031,-4.335938 l 0.35156,-0.46875 -0.11718,-0.117187 q 0.38086,-2.226563 0.9375,-3.164063 z m -24.72657,8.554688 h 0.23438 q 0.46875,-1.054688 1.40625,-6.445313 l -0.11719,-0.351562 q -0.32226,0 -1.52344,6.796875 z m 13.35938,-4.804688 q -2.22656,3.75 -2.22656,4.21875 h 0.11718 q 1.46485,-1.933593 2.34375,-4.101562 l -0.11718,-0.117188 z m -11.71875,3.28125 -0.35156,1.523438 v 0.117187 h 0.11718 l 0.35157,-1.40625 v -0.234375 z" />
      <path
         id="path32"
         style="font-family:'Vtks Victory'"
         d="m 401.875,75.273437 h 0.46875 q 2.10937,1.582032 2.10937,1.992188 V 77.5 l -0.35156,1.640625 h 0.11719 q 3.63281,-1.289063 5.15625,-1.289063 h 1.52344 q 2.57812,0.585938 2.57812,1.523438 0.82031,1.201172 0.82031,1.523437 h -0.11718 l 0.11718,0.117188 v 0.117187 l -0.23437,1.757813 q 0,0.46875 1.05469,0.703125 l 1.28906,-0.234375 0.23437,0.351562 V 84.0625 q 0,0.498047 -1.64062,0.585937 l -1.28906,-0.234375 q -0.82032,2.080079 -1.75782,5.742188 l 0.11719,0.117187 -0.11719,0.585938 V 92.5 l -0.23437,0.234375 h -0.23438 L 411.01562,91.328125 411.25,90.625 411.13281,90.507812 V 90.390625 L 411.36719,87.8125 H 411.25 q -2.57813,2.519531 -5.39063,3.398437 l -0.11718,-0.351562 q 0.0293,-0.556641 2.22656,-1.40625 0.9375,-1.083984 1.40625,-2.109375 -0.23438,0 -0.23438,-0.351563 l -2.34375,0.9375 h -0.11718 l -0.35157,-0.351562 V 87.34375 l 1.52344,-1.171875 q 0.67383,-1.611328 1.52344,-2.109375 l 0.23437,-1.054688 q -0.41015,-2.666015 -1.75781,-2.695312 l -0.46875,-0.117188 q -2.57812,0.439454 -2.57812,1.40625 -1.61133,1.171875 -2.8125,5.859375 0.14648,0.703125 0.46875,0.703125 l 0.70312,-0.234375 q 0.46875,0.175782 0.46875,0.351563 V 88.75 q -0.52734,0.703125 -1.52344,0.703125 h -0.35156 q -1.52344,-0.263672 -1.52344,-1.40625 v -0.351563 l 0.58594,-1.054687 v -0.351563 l -0.23437,-0.234375 h -0.23438 q -0.32226,1.201172 -2.69531,3.75 l -0.23438,-0.234375 v -0.234375 q 1.05469,-2.197265 1.05469,-3.046875 V 86.171875 L 398.125,85.9375 h -0.11719 q 0,0.820312 -2.46094,1.757812 h -0.46875 v -0.234375 q 1.9629,-1.728515 4.21875,-5.976562 1.05469,-1.845703 1.05469,-2.695313 h -0.70312 q -1.55274,0 -3.28125,-1.40625 v -0.46875 q 0,-0.205078 0.82031,-0.703125 v 0.117188 l 0.11719,-0.117188 h 0.23437 q 0.38086,0 1.52344,0.703125 0.58594,0.0293 0.58594,0.234375 0.38086,0 0.9375,-1.054687 z m 0.70312,1.40625 0.23438,1.171875 h 0.23437 l 0.11719,-0.46875 -0.23437,-0.703125 z m 8.08594,3.632813 v 0.234375 q 0.70313,0.849609 0.70313,2.34375 0,1.376953 -1.875,3.867187 v 0.234375 q 0.9082,0 2.22656,-3.632812 v -0.820313 q 0,-1.02539 -0.70313,-2.226562 z m -10.42969,4.453125 h 0.11719 q 0.26367,-0.05859 1.875,-3.164063 l 0.82031,-0.820312 v -0.117188 h -0.35156 q -1.46484,1.31836 -2.46094,4.101563 z m -0.58593,4.335937 0.11718,0.117188 v 0.117187 l -0.11718,0.703125 0.11718,0.351563 -2.46093,5.742187 q 0,1.376954 1.05468,2.109375 L 398.71094,98.125 v 0.117187 q 2.16797,-0.234375 3.28125,-0.820312 2.05078,-1.992188 4.10156,-4.6875 1.46484,-0.175781 3.63281,-1.875 h 0.23438 v 0.351562 q -0.67383,0.761719 -3.04688,5.273438 -0.26367,0 -0.35156,1.054687 0,0.996094 1.52344,1.289063 2.49023,0 4.80468,-3.867188 1.31836,-1.201171 3.16407,-4.570312 0.52734,-1.054688 1.17187,-1.054688 0.9375,0.292969 0.9375,0.585938 v 0.117187 L 415,94.726562 q -0.32227,0 -1.875,2.578125 -2.46094,3.046873 -3.75,3.046873 l -0.70313,0.23438 q -2.05078,0 -3.63281,-1.875003 h -0.11719 q -1.72851,1.992193 -5.74218,1.992193 l -0.11719,-0.11719 h -0.11719 l -0.46875,0.11719 h -0.11719 q -1.23046,0 -1.75781,-1.289068 0,-0.351562 -0.58594,-0.351562 -0.41015,2.72461 -5.03906,9.72656 -0.73242,1.02539 -1.40625,2.8125 l 0.46875,1.05469 -0.35156,0.46875 h -0.46875 q -0.38086,-0.11719 -0.9375,-1.40625 -0.58594,-0.17578 -0.58594,-1.52344 V 109.375 l 0.11719,-0.11719 -0.11719,-0.11718 v -0.11719 l 0.11719,-0.35156 h -0.11719 q -1.55273,0.70312 -2.92969,0.70312 -2.34375,-0.41016 -2.34375,-0.82031 v -0.11719 q 0.23438,-0.32227 3.39844,-1.28906 1.75781,-0.76172 4.92188,-5.27344 l 4.92187,-8.671875 q 0,-1.259766 3.28125,-3.398438 z m -4.21875,5.859375 q -1.20117,5.712893 -5.03907,9.960943 -0.82031,0.96679 -0.82031,1.40625 h 0.11719 q 4.57031,-4.95118 5.74219,-9.60938 l 0.35156,-1.640625 -0.11719,-0.117188 z m 5.39062,4.21875 -1.05469,-0.117187 -0.11718,0.117187 v 0.117188 l 0.9375,0.234375 h 0.58593 q 2.19727,0 3.75,-1.757813 V 97.65625 q -2.31445,1.523437 -4.10156,1.523437 z" />
      <path
         id="path34"
         style="font-family:'Vtks Victory'"
         d="m 427.97852,79.375 q 4.21875,1.083984 4.21875,1.992187 0.26367,0 0.35156,0.820313 l -0.11719,0.117187 0.23438,0.234375 v 0.351563 l -0.11719,0.46875 0.11719,0.351562 -0.23438,0.46875 0.23438,0.351563 q 3.28125,-0.498047 3.28125,-1.757813 V 82.65625 l -0.11719,0.117187 h -0.23438 q -0.64453,0 -0.9375,-0.585937 v -0.351563 q 0.26367,-1.289062 1.17188,-1.289062 h 0.35156 q 0.46875,0 0.9375,1.523437 v 0.46875 q 0,2.34375 -3.86719,3.046875 h -1.05468 l -0.70313,2.578125 q 0,0.498047 -1.28906,3.398438 l -0.11719,0.820312 q 0.32227,0.351563 1.875,0.585938 0.46875,0.791016 0.46875,1.40625 -0.26367,1.992187 -1.875,1.992187 h -0.35156 q -1.75781,0 -2.34375,-2.578125 v -0.46875 L 427.97852,92.5 q -0.90821,0.878906 -1.99219,3.398437 l -0.11719,0.117188 h -0.23437 q -0.46875,0 -0.46875,-2.109375 l 0.35156,-1.992188 v -0.117187 l -0.46875,-0.46875 h -1.17188 l -0.82031,-1.40625 v -0.820313 q 0.46875,-2.519531 1.17188,-4.570312 v -0.351563 h -0.11719 q -0.9668,0.410157 -3.86719,3.75 -0.58594,0.84961 -0.58594,1.289063 v 0.234375 l 0.11719,-0.117188 h 0.35156 q 0.9375,0 0.9375,0.9375 V 90.625 q 0,1.025391 -1.52343,1.171875 h -0.23438 q -1.02539,0 -1.40625,-1.523438 0,-1.699218 1.52344,-4.335937 v -0.117188 h -0.11719 q -0.35156,0 -1.99219,1.054688 l -0.35156,0.117187 V 86.875 q -1.02539,0.46875 -2.22656,0.46875 h -0.11719 q -1.99219,0 -1.99219,-1.054688 l 0.35157,-0.351562 1.40625,0.117187 q 1.31835,0 5.27343,-3.867187 3.36914,-2.167969 6.21094,-2.578125 l 0.11719,0.117187 h 0.11719 z m -7.03125,5.859375 v 0.351562 Q 424.11133,81.25 428.33008,81.25 v -0.117188 l -0.9375,-0.117187 q -3.19336,0 -6.44531,4.21875 z m 9.49218,-1.875 q 0.46875,0.849609 0.46875,1.289062 0,1.992188 -1.99218,7.148438 0.99609,0 2.34375,-6.5625 V 84.53125 q -0.14649,-1.171875 -0.46875,-1.171875 z M 425.98633,88.75 q 0.49804,1.289062 0.9375,1.289062 h 0.46875 q 0.73242,0 1.75781,-3.164062 v -1.40625 q 0,-1.289063 -1.28906,-1.757813 -1.40625,0 -1.40625,1.757813 -0.29297,0 -0.46875,3.28125 z m -8.08594,-1.40625 0.11719,1.054687 q -2.10938,3.28125 -2.10938,6.796875 0,1.845704 2.22657,3.046875 h 0.11718 q 1.75782,-0.05859 3.39844,-1.289062 1.66992,-1.289063 2.57813,-2.34375 h 0.23437 v 0.117187 l 0.23438,1.757813 q -3.19336,3.076172 -5.50782,3.750005 l -1.99218,0.23437 h -0.11719 q -1.61133,-0.23437 -2.46094,-1.054688 l -0.9375,-1.757812 -0.11719,-3.28125 q 0.35157,-0.615234 0.9375,-3.75 1.52344,-3.28125 3.39844,-3.28125 z m 6.67969,1.171875 -0.11719,0.117187 V 88.75 q 0.26367,1.757812 0.70313,1.757812 h 0.11718 v -0.117187 q -0.46875,-1.875 -0.70312,-1.875 z m 4.92187,5.390625 v 0.117187 q 0.17578,1.054688 1.05469,1.054688 l 0.35156,-0.117188 -1.05468,-0.820312 -0.23438,-0.234375 z m -14.53125,3.867187 v 0.234375 q 1.58203,1.171875 2.8125,1.171875 h 0.58594 q 2.13867,-0.117187 2.34375,-0.703125 h -0.23437 l -2.57813,0.351563 q -1.34766,0 -2.46094,-1.054688 z" />
      <path
         id="path36"
         style="font-family:'Vtks Victory'"
         d="m 440.81055,77.265625 q 1.66992,0 2.22656,1.40625 v 0.117187 q -0.20508,1.259766 -0.58594,1.757813 l 0.11719,0.46875 q 1.78711,-0.146484 5.39062,-2.109375 h 0.58594 q 0.76172,0 2.10938,1.757812 l 0.23437,0.820313 q -0.67383,1.640625 -0.9375,3.632812 -0.35156,0.439454 -0.35156,0.9375 l 0.23437,0.234375 q 0.67383,-0.585937 1.05469,-0.585937 0.46875,0.234375 0.46875,0.585937 -0.43945,1.640625 -1.40625,1.640625 h -0.46875 q -1.11328,0 -1.52344,-1.757812 l -0.11718,-0.117188 h -0.11719 q -0.73242,0.878907 -1.40625,3.164063 v 0.46875 q 0,0.351562 0.46875,0.351562 l 1.52344,-0.117187 0.23437,0.585937 q -0.58594,1.054688 -1.28906,1.054688 -2.34375,-0.644531 -2.34375,-1.757813 v -0.351562 l 0.23437,-0.9375 q -2.72461,1.757812 -4.57031,1.757812 l -0.23437,-0.351562 v -0.351563 q 3.28125,-2.255859 3.28125,-5.625 0.17578,0 0.35156,-1.054687 h -0.11719 l -1.17187,-0.234375 q -3.10547,1.523437 -3.39844,2.8125 -2.16797,4.892578 -4.21875,7.851562 -1.05469,1.40625 -1.52344,1.40625 -0.46875,-0.175781 -0.46875,-0.351562 l -0.58594,0.117187 q -1.05468,-0.263671 -1.05468,-0.585937 2.8125,-2.226563 2.8125,-3.398438 0.9375,-1.611328 2.69531,-6.445312 0.73242,-0.556641 1.05469,-1.640625 -1.05469,-0.234375 -1.05469,-0.9375 0,-2.490234 1.99219,-3.515625 z m -0.82032,3.398437 q -0.14648,1.171875 -2.34375,5.390625 -1.28906,1.845704 -1.28906,2.578125 0.35156,0 2.69531,-4.453125 1.17188,-2.519531 1.17188,-3.164062 l -0.11719,-0.351563 z m 6.79688,2.109375 -1.75781,3.867188 v 0.117187 q 0.64453,0 1.875,-3.75 v -0.234375 z m -2.8125,7.382813 q 0.9375,1.962891 1.05469,2.929687 l -0.11719,0.117188 v 0.117187 l 0.11719,1.40625 -0.11719,0.351563 q 0,1.728516 0.9375,2.34375 h 0.82031 q 1.46485,-0.380859 4.45313,-3.398438 l 2.46093,-3.046875 h 0.82032 l 0.23437,0.234375 v 0.234375 l -3.28125,4.921875 q -0.46875,0.08789 -0.46875,0.703125 Q 448.86719,100 447.13867,100 h -0.35156 L 446.66992,99.882812 446.55273,100 q -3.36914,0 -4.80468,-2.695313 l -0.23438,-0.9375 q 0.79102,-6.09375 2.10938,-6.09375 z m -0.46875,3.867187 v 2.34375 q 0,1.757813 2.10937,2.578125 h 0.23438 l 0.11719,-0.117187 v -0.117188 q -2.10938,-0.673828 -2.10938,-2.8125 V 94.84375 l 0.23438,-2.460938 q -0.49805,0 -0.58594,1.640625 z" />
      <path
         id="path38"
         style="font-family:'Vtks Victory'"
         d="m 470.16602,77.822266 h 0.38085 q 1.20118,1.201171 2.51954,1.552734 l 0.11718,0.146484 v 0.234375 q 0,0.615235 -0.76172,1.201172 -0.9082,1.376953 -1.52343,2.900391 -0.76172,0.380859 -1.23047,3.134765 0.73242,1.113282 1.61133,1.669922 -0.41016,0.732422 -1.37696,0.732422 -1.08398,0 -1.64062,-2.167969 l -0.11719,-0.117187 h -0.11719 q -0.52734,0 -1.25976,1.435547 l -1.75781,0.966797 -0.14649,-0.117188 v -0.117187 q 0.9082,-0.996094 1.40625,-2.167969 V 86.875 l -0.14648,-0.146484 -0.38086,-0.117188 v -0.117187 l -0.11719,0.117187 h -0.99609 l -0.26368,-0.234375 q 1.25977,-0.732422 2.13868,-2.285156 v -0.84961 l 0.11718,-1.318359 q -0.32226,-1.054687 -0.73242,-1.201172 h -0.14648 q -0.26367,0.292969 -2.63672,1.083985 -3.28125,3.310546 -3.28125,5.068359 v 0.234375 l 0.64453,0.46875 0.76172,-0.234375 0.38086,0.351562 v 0.38086 q -0.64453,0.966797 -1.78711,0.966797 -1.75781,-0.84961 -1.75781,-2.314453 h -0.11719 q -0.55664,0.205078 -1.25977,1.816406 l -1.25976,1.201172 h -0.11719 q 0.23437,-1.289063 1.11328,-3.369141 l -0.23437,-0.234375 q -1.17188,0.849609 -1.52344,0.849609 h -1.11328 q -1.40625,-0.175781 -1.40625,-0.615234 0,-0.322266 2.7832,-1.318359 2.25586,-1.933594 2.63672,-2.900391 2.75391,-3.251953 4.6582,-3.251953 l 0.64453,-0.234375 0.11719,0.117187 h 0.11719 q 0.49805,-0.234375 1.37695,-0.234375 2.37305,0 2.90039,1.31836 0.67383,1.054687 0.87891,1.083984 h 0.14648 q 0.61524,0 1.75782,-3.134765 z m -12.59766,6.269531 q 3.45703,-3.574219 5.41992,-4.101563 v -0.117187 h -0.11719 q -2.92968,0.791015 -4.92187,3.36914 z m 9.43359,2.285156 v 0.234375 h 0.14649 q 1.75781,-1.582031 1.75781,-3.369141 l -0.14648,-0.351562 h -0.11719 q -0.20508,0 -0.49805,1.816406 z m -12.1875,1.435547 h 0.11719 q 0,1.025391 -1.14258,2.783203 l 0.11719,0.351563 h 0.9082 l 0.11719,0.146484 h 0.11719 l -0.76172,1.201172 0.14648,0.117187 q -0.20507,1.230469 -0.64453,2.285157 l 0.11719,0.117187 v 0.849609 q 0,1.171875 1.25977,1.669922 h 0.64453 q 4.21875,-1.318359 7.17773,-5.654297 0.38086,-0.908203 0.99609,-1.318359 h 0.38086 l 0.11719,0.117188 q 0.67383,0 3.16406,-1.552735 l 0.23438,0.703125 -1.49414,3.75 v 0.234375 q 0.41015,3.251953 1.11328,3.251953 h 1.40625 q 1.96289,-0.761718 3.01758,-2.050781 2.98828,-3.662109 3.01758,-4.453125 l 0.8789,-0.615234 h 0.9961 l 0.26367,0.263672 q -0.9668,2.841796 -3.13477,4.570312 l -3.04687,3.603516 q -1.20117,0.761718 -2.8711,1.347656 l -0.14648,-0.146484 h -0.11719 L 465.36133,100 q -3.01758,-0.498047 -3.01758,-2.666016 l 0.38086,-1.435547 V 95.3125 l -0.38086,-0.380859 q -0.84961,1.113281 -2.37305,2.285156 -0.23437,0.849609 -5.30273,2.43164 h -1.25977 q -2.28515,0 -2.63672,-2.666015 h 0.11719 l -0.11719,-0.117188 q 0,-1.582031 2.02149,-6.738281 0.38086,-0.292969 1.37695,-2.167969 z m 9.28711,8.320312 q 0,2.314454 2.90039,2.548829 h 0.26367 l 0.49805,-0.38086 q -3.13476,0 -3.13476,-2.050781 v -0.117188 q 0,-1.787109 0.8789,-3.83789 v -0.117188 h -0.14648 q -1.25977,1.464844 -1.25977,3.955078 z" />
      <path
         id="path40"
         style="font-family:'Vtks Victory'"
         d="m 480.47852,76.5625 q 2.34375,0.380859 2.34375,0.703125 l 2.57812,-0.585938 q 1.75781,0 1.75781,1.757813 v 0.9375 l -0.70312,2.578125 q 2.16797,-1.464844 4.57031,-2.695313 1.55273,-1.171875 2.34375,-1.171875 h 0.11719 q 2.49023,0 3.51562,2.578125 v 0.234375 L 496.65039,83.125 q 0.58594,0 0.58594,0.234375 v 0.234375 l -1.05469,2.226562 -0.23437,0.9375 q 0,0.9375 1.64062,0.9375 l 0.11719,0.46875 q -0.43946,0.9375 -1.17188,0.9375 h -0.35156 q -0.84961,0 -0.9375,-0.585937 h -0.11719 l -0.11718,0.820312 0.23437,1.640625 q -0.23437,0.527344 -0.46875,0.585938 h -0.35156 q -1.05469,-0.439453 -1.05469,-2.929688 -0.20508,0 -0.23437,-2.34375 v -0.585937 h -0.23438 q -0.26367,0 -1.75781,1.875 l -0.82031,0.585937 h -0.82032 q -1.05468,0 -1.05468,-1.40625 0.23437,-0.527343 0.46875,-0.585937 h 0.35156 q 0.35156,0 0.35156,0.703125 1.37695,0 2.69531,-6.09375 h -0.11718 q -1.9043,0.351562 -4.80469,3.28125 -1.52344,1.494141 -1.52344,1.992187 0.32227,1.757813 1.05469,1.757813 0.46875,0 0.46875,0.703125 l -0.46875,0.351562 h -0.46875 q -0.70313,0 -1.75781,-1.523437 -0.61524,-0.410156 -1.40625,-1.875 -0.52735,1.845703 -1.17188,2.460937 h -0.11719 l 0.23438,-3.75 -0.11719,-0.117187 h -0.23437 q -1.61133,2.109375 -3.16407,2.109375 Q 477.54883,85.849609 477.54883,85 l 0.35156,-0.351563 h 0.46875 l 0.35156,0.234375 h 0.35157 q 1.28906,0 4.10156,-6.210937 h -0.23438 l -1.52343,0.820312 -0.11719,-0.117187 -1.40625,0.351562 h -0.46875 q -0.32227,0 -0.70313,-1.289062 v -0.117188 q 0,-1.259765 1.75782,-1.757812 z m 3.51562,1.40625 q 0.46875,0.146484 0.46875,1.054687 0,2.167969 -1.875,5.15625 v 0.117188 q 0.9375,0 2.22656,-4.335938 v -1.171875 q 0,-0.908203 -0.46875,-1.054687 h -0.11718 z m 9.72656,1.171875 -0.11718,0.117187 V 79.375 q 1.17187,0.498047 1.17187,1.40625 v 0.703125 q 0,1.347656 -1.28906,4.21875 1.75781,-1.933594 1.75781,-4.335938 -0.20508,-2.226562 -1.40625,-2.226562 z m -12.42187,7.617187 0.11719,0.351563 -0.11719,1.171875 0.35156,1.054687 h 0.11719 l 0.46875,-0.117187 q 0.58594,0.205078 0.58594,0.585937 -0.67383,0.908204 -0.70313,1.757813 l -2.46094,5.390625 v 0.703125 l 0.23438,0.234375 q 0.64453,0 1.99219,-1.289063 h 0.46875 l 0.23437,0.234375 V 97.1875 q 0,0.820312 -2.22656,2.578125 L 479.42383,100 h -0.23438 q -1.37695,0 -1.75781,-1.171875 l -0.11719,-0.820313 0.11719,-0.585937 -0.11719,-0.585938 q -1.17187,1.757813 -3.39843,1.757813 -1.64063,-0.703125 -1.64063,-1.523438 v -0.703125 q 0,-1.318359 1.99219,-1.523437 0.61523,0 0.9375,1.054687 2.34375,-1.259765 2.34375,-3.046875 l 3.39844,-6.09375 0.35156,-0.117187 z m 10.42969,1.757813 q 0.32226,0 0.70312,1.875 l 0.46875,0.117187 -0.35156,2.578125 v 0.820313 q 0.41015,1.40625 1.52344,1.40625 h 0.58593 q 1.72852,-0.322266 3.39844,-1.992188 l 2.92969,-4.101562 1.28906,-0.585938 0.35156,0.234375 q 0,1.054688 -5.50781,7.382813 -3.89648,2.578125 -5.97656,2.578125 l -0.9375,-0.46875 q -1.64063,-1.435547 -1.64063,-3.164063 l -0.11718,-0.351562 v -0.234375 q 0,-1.787109 1.99218,-4.921875 0.35157,-0.820313 1.28907,-1.171875 z m -11.01563,1.171875 -2.57812,5.742187 h 0.11718 q 0.58594,-0.205078 2.57813,-5.15625 l 0.11719,-0.46875 -0.11719,-0.117187 z m 9.375,5.625 v 0.234375 q 0,1.757812 2.92969,1.757812 l 0.46875,-0.351562 q -3.04688,0 -3.04688,-1.640625 0,-1.171875 1.52344,-4.101563 h -0.23437 q -1.64063,2.138672 -1.64063,4.101563 z" />
      <path
         id="path42"
         style="font-family:'Vtks Victory'"
         d="m 513.87695,77.96875 q 4.10157,0.615234 4.10157,2.695312 0.35156,0.84961 0.35156,1.523438 l -0.11719,0.351562 q 0.61523,0 0.70313,1.171875 0,1.40625 -5.15625,6.914063 -0.35157,0.615234 -0.35157,1.40625 0,0.380859 0.82032,1.054687 v 0.117188 l -0.23438,0.234375 h -0.46875 q -1.40625,-1.025391 -1.40625,-2.226563 V 91.09375 l 0.58594,-2.578125 h -0.11719 l -1.99219,0.351562 -0.35156,-0.46875 v -0.351562 q 0.0293,-0.205078 2.22656,-1.171875 2.57813,-2.197266 2.57813,-4.335938 -0.58594,-2.226562 -1.75781,-2.226562 -0.76172,0 -2.8125,1.757812 -1.25977,1.054688 -1.75782,4.21875 -0.58593,3.515625 -1.40625,3.515625 h -0.23437 q -0.35156,0 -0.35156,-1.523437 v -0.9375 l -0.46875,-0.117188 q -0.23438,0 -1.64063,1.640625 l -0.35156,0.117188 -0.11719,-0.117188 V 88.75 l 0.70313,-3.046875 h -0.11719 q -2.34375,1.171875 -3.63281,1.171875 -1.23047,0 -1.64063,-1.757813 0.23438,-0.9375 0.82031,-0.9375 0.46875,0 0.58594,1.171875 h 0.23438 q 0.76171,0 4.57031,-4.21875 3.01758,-2.490234 6.79687,-3.046875 z m -8.55468,5.507812 h 0.23437 q 3.36914,-2.724609 5.15625,-3.164062 v -0.117188 l -0.11719,-0.117187 h -0.11718 q -1.66993,0.08789 -5.03907,3.164062 l -0.11718,0.117188 z m 11.25,-2.460937 -0.11719,0.117187 0.11719,0.117188 v 1.289062 q 0,0.9375 -1.40625,2.695313 v 0.234375 q 1.875,-1.494141 1.875,-3.28125 -0.0879,-1.171875 -0.46875,-1.171875 z m -10.19532,4.570312 h 0.11719 l 2.22656,-2.8125 V 82.65625 q -1.14258,0 -2.34375,2.929687 z m -3.04687,2.460938 h 0.23437 l -0.35156,1.757812 0.11719,0.351563 h 0.35156 q 0.49805,0 1.875,-1.171875 V 89.21875 Q 505,90.039062 504.9707,90.859375 v 0.585937 Q 505.52734,92.5 506.25977,92.5 h 0.11718 q 1.96289,0 4.57032,-2.695313 V 89.6875 h 0.11718 l 0.35157,0.351562 q 0,2.109375 -0.58594,2.109375 -2.63672,1.523438 -5.27344,1.523438 h -0.11719 l -0.23437,1.054687 0.11719,0.117188 -0.11719,0.820312 v 0.117188 q 0,1.230469 1.64062,2.578125 l 2.22657,0.585937 0.11718,-0.117187 0.58594,0.117187 q 3.39844,-0.351562 4.80469,-1.40625 3.66211,-3.486328 3.86719,-4.804687 0,-0.966797 1.28906,-1.054688 l 0.46875,0.351563 q -2.66602,5.771484 -4.33594,5.976562 -2.31445,2.109378 -4.21875,2.460938 l -2.57812,0.58594 v -0.11719 l -1.17188,0.35156 v -0.11718 l -0.11719,0.11718 h -1.52343 l -0.46875,0.11719 q -0.58594,-0.35156 -2.34375,-0.46875 -2.57813,-1.464844 -2.57813,-3.984375 v -0.46875 q 0.0586,-1.289063 0.35156,-1.523438 l -0.11718,-0.117187 1.05468,-3.867188 -0.11718,-0.117187 v -0.117188 z m 0.11719,5.625 -0.23438,1.054687 v 1.054688 q 0,3.984375 4.80469,3.984375 h 0.9375 l 0.58594,-0.117188 v -0.234375 h -0.70313 q -4.04297,0 -4.92187,-1.757812 -0.35157,-1.201172 -0.35157,-2.226563 0,-0.996093 0.23438,-1.640625 l -0.11719,-0.117187 z" />
      <path
         id="path44"
         style="font-family:'Vtks Victory'"
         d="m 537.7832,77.822266 h 0.38086 q 1.20117,1.201171 2.51953,1.552734 l 0.11719,0.146484 v 0.234375 q 0,0.615235 -0.76172,1.201172 -0.9082,1.376953 -1.52344,2.900391 -0.76171,0.380859 -1.23046,3.134765 0.73242,1.113282 1.61132,1.669922 -0.41015,0.732422 -1.37695,0.732422 -1.08398,0 -1.64062,-2.167969 l -0.11719,-0.117187 h -0.11719 q -0.52734,0 -1.25976,1.435547 l -1.75782,0.966797 -0.14648,-0.117188 v -0.117187 q 0.9082,-0.996094 1.40625,-2.167969 V 86.875 l -0.14649,-0.146484 -0.38086,-0.117188 v -0.117187 l -0.11718,0.117187 h -0.9961 l -0.26367,-0.234375 q 1.25977,-0.732422 2.13867,-2.285156 v -0.84961 l 0.11719,-1.318359 q -0.32226,-1.054687 -0.73242,-1.201172 h -0.14649 q -0.26367,0.292969 -2.63671,1.083985 -3.28125,3.310546 -3.28125,5.068359 v 0.234375 l 0.64453,0.46875 0.76172,-0.234375 0.38086,0.351562 v 0.38086 q -0.64454,0.966797 -1.78711,0.966797 -1.75782,-0.84961 -1.75782,-2.314453 h -0.11718 q -0.55664,0.205078 -1.25977,1.816406 l -1.25977,1.201172 h -0.11718 q 0.23437,-1.289063 1.11328,-3.369141 l -0.23438,-0.234375 q -1.17187,0.849609 -1.52343,0.849609 h -1.11329 q -1.40625,-0.175781 -1.40625,-0.615234 0,-0.322266 2.78321,-1.318359 2.25586,-1.933594 2.63672,-2.900391 2.7539,-3.251953 4.6582,-3.251953 l 0.64453,-0.234375 0.11719,0.117187 h 0.11719 q 0.49804,-0.234375 1.37695,-0.234375 2.37305,0 2.90039,1.31836 0.67383,1.054687 0.87891,1.083984 h 0.14648 q 0.61523,0 1.75781,-3.134765 z m -12.59765,6.269531 q 3.45703,-3.574219 5.41992,-4.101563 v -0.117187 h -0.11719 q -2.92969,0.791015 -4.92187,3.36914 z m 9.43359,2.285156 v 0.234375 h 0.14648 q 1.75782,-1.582031 1.75782,-3.369141 l -0.14649,-0.351562 h -0.11718 q -0.20508,0 -0.49805,1.816406 z m -12.1875,1.435547 h 0.11719 q 0,1.025391 -1.14258,2.783203 l 0.11719,0.351563 h 0.9082 l 0.11719,0.146484 h 0.11719 l -0.76172,1.201172 0.14648,0.117187 q -0.20508,1.230469 -0.64453,2.285157 l 0.11719,0.117187 v 0.849609 q 0,1.171875 1.25976,1.669922 h 0.64453 q 4.21875,-1.318359 7.17774,-5.654297 0.38086,-0.908203 0.99609,-1.318359 h 0.38086 l 0.11719,0.117188 q 0.67383,0 3.16406,-1.552735 l 0.23438,0.703125 -1.49414,3.75 v 0.234375 q 0.41015,3.251953 1.11328,3.251953 h 1.40625 q 1.96289,-0.761718 3.01758,-2.050781 2.98828,-3.662109 3.01757,-4.453125 l 0.87891,-0.615234 h 0.99609 l 0.26368,0.263672 q -0.9668,2.841796 -3.13477,4.570312 l -3.04688,3.603516 q -1.20117,0.761718 -2.87109,1.347656 l -0.14648,-0.146484 h -0.11719 L 532.97852,100 q -3.01758,-0.498047 -3.01758,-2.666016 l 0.38086,-1.435547 V 95.3125 l -0.38086,-0.380859 q -0.84961,1.113281 -2.37305,2.285156 -0.23437,0.849609 -5.30273,2.43164 h -1.25977 q -2.28516,0 -2.63672,-2.666015 h 0.11719 l -0.11719,-0.117188 q 0,-1.582031 2.02149,-6.738281 0.38086,-0.292969 1.37695,-2.167969 z m 9.28711,8.320312 q 0,2.314454 2.90039,2.548829 h 0.26367 l 0.49805,-0.38086 q -3.13477,0 -3.13477,-2.050781 v -0.117188 q 0,-1.787109 0.87891,-3.83789 v -0.117188 h -0.14648 q -1.25977,1.464844 -1.25977,3.955078 z" />
    </g>
  </g>
</svg>
