<?xml version="1.0" encoding="UTF-8" standalone="no"?>
<svg
   xmlns:dc="http://purl.org/dc/elements/1.1/"
   xmlns:cc="http://creativecommons.org/ns#"
   xmlns:rdf="http://www.w3.org/1999/02/22-rdf-syntax-ns#"
   xmlns:svg="http://www.w3.org/2000/svg"
   xmlns="http://www.w3.org/2000/svg"
   id="svg16"
   width="500px"
   version="1.1"
   height="200px">
  <metadata
     id="metadata20">
    <rdf:RDF>
      <cc:Work
         rdf:about="">
        <dc:format>image/svg+xml</dc:format>
        <dc:type
           rdf:resource="http://purl.org/dc/dcmitype/StillImage" />
      </cc:Work>
    </rdf:RDF>
  </metadata>
  <defs
     id="defs4">
    <style
       id="style2"
       type="text/css"><![CDATA[    
     @font-face {font-family:Wabroye;
     src: url('/Users/francesco/Repos/write-logos/src/fonts/Wabroye_014.ttf');}
     @font-face {font-family:Goodies;
     src: url('/Users/francesco/Repos/write-logos/src/fonts/Goodies-Regular.ttf');}
     ]]></style>
  </defs>
  <g
     id="g14"
     style="font-size:30px">
    <g
       style="text-anchor:middle"
       id="text12"
       aria-label="eXtemporanea">
      <path
         id="path22"
         style="font-family:Wabroye"
         d="m 133.46789,100.14423 q -3.15997,0 -5.57255,-0.865384 -2.41259,-0.865384 -3.73689,-2.438811 -1.31119,-1.586538 -1.31119,-3.658217 0,-2.058566 1.31119,-3.645105 1.3243,-1.586538 3.73689,-2.451923 2.4257,-0.865384 5.57255,-0.865384 1.73077,0 3.14685,0.288461 1.4292,0.27535 2.17658,0.76049 0.57692,0.380244 0.69493,0.747377 l 0.10489,-0.02622 q -0.0918,-0.314685 -0.10489,-0.734265 l -0.0918,-1.678322 0.26224,-0.01311 0.20979,3.697553 q 0,0.380244 -0.26224,0.655594 -0.24912,0.262238 -0.61626,0.262238 h -1.10139 l -0.0262,-0.07867 q -1.02273,-3.081293 -4.35314,-3.081293 -1.96679,0 -3.22553,1.520979 -1.24563,1.507867 -1.38986,4.038461 l 10.97465,-0.380244 q 1.63899,-0.05245 2.46504,-1.03584 0.83916,-0.996503 1.20629,-2.766608 h 0.52448 q -0.3278,3.33042 -0.3278,4.51049 0,0.524475 0.0787,1.678321 0.0918,1.140734 0.17045,2.032343 l 0.0787,0.891608 h -0.52448 q -0.36713,-1.770105 -1.20629,-2.753496 -0.82605,-0.996504 -2.46504,-1.048951 l -10.98776,-0.380245 q 0.0393,2.714161 1.29808,4.366259 1.27185,1.652098 3.33042,1.652098 3.33041,0 4.35314,-3.081294 l 0.0262,-0.07867 h 1.10139 q 0.36714,0 0.61626,0.275349 0.26224,0.262238 0.26224,0.642483 l -0.20979,3.697557 -0.26224,-0.0131 0.0918,-1.678318 q 0.0131,-0.419581 0.10489,-0.734266 l -0.10489,-0.02622 q -0.11801,0.367133 -0.69493,0.747378 -0.74738,0.48514 -2.17658,0.773601 -1.41608,0.275349 -3.14685,0.275349 z" />
      <path
         id="path24"
         style="font-family:Goodies"
         d="m 145.74789,102.31 q -0.03,0.15 -0.21,0.27 -0.18,0.06 -0.33,0.06 -0.15,0 -0.39,-0.06 -0.21,-0.09 -0.27,-0.21 -0.12,-0.78 -0.12,-1.2 0,-0.6 0.15,-1.29 0.36,-1.38 0.96,-2.46 0.66,-1.17 1.62,-2.37 1.02,-1.2 2.07,-2.22 -1.41,-3 -2.55,-6.36 -1.14,-3.24 -1.8,-6.27 0,-0.18 0.15,-0.27 0.18,-0.09 0.39,-0.09 0.12,0 0.42,0.06 0.18,0.09 0.24,0.24 0.78,2.94 2.04,5.76 l 2.55,5.58 q 1.35,-1.2 3.06,-2.55 l 2.67,-2.16 q 1.44,-1.14 2.49,-2.37 1.11,-1.23 1.98,-3.03 0.15,-0.24 0.36,-0.36 0.24,-0.09 0.42,-0.09 0.18,0 0.3,0.12 0.03,0.03 0.03,0.09 0,0.09 -0.09,0.24 -0.09,0.72 -0.42,1.65 -0.27,0.75 -0.78,1.71 -0.57,0.96 -1.02,1.62 -0.78,1.02 -1.14,1.41 -1.38,1.53 -3.09,2.85 -1.53,1.17 -3.69,3.09 l 0.84,1.53 q 0.27,0.51 0.87,1.47 0.69,1.11 1.26,1.95 l 2.58,3.66 q 0.48,0.69 0.84,1.35 l 2.16,2.85 1.74,2.25 q 0.21,0.15 0.15,0.27 -0.12,0.12 -0.27,0.15 -0.15,0.03 -0.42,0.03 -0.27,0 -0.33,-0.03 -1.83,-1.47 -3.51,-3.15 -1.71,-1.71 -3.09,-3.99 -1.32,-1.8 -2.25,-3.39 -1.26,-2.13 -2.01,-3.6 l -1.62,1.56 q -0.57,0.54 -1.11,1.11 -0.48,0.48 -1.02,1.23 -0.48,0.66 -0.6,1.2 -0.12,0.51 -0.15,1.08 -0.09,0.75 -0.06,1.08 z" />
      <path
         id="path26"
         style="font-family:Wabroye"
         d="m 165.06467,87.15035 h -0.52447 q -2.04546,0 -2.8584,0.983391 -0.81293,0.983392 -0.94405,3.212413 h -1.31119 l 0.34091,-6.201923 0.26224,0.01311 -0.0656,1.206293 h 5.10052 q 2.07168,0 3.60577,-1.796328 1.53409,-1.796329 2.03234,-4.628497 h 0.26224 v 6.424825 h 6.67395 l -0.0656,-1.206293 0.26224,-0.01311 0.34091,6.201923 h -1.31119 q -0.0656,-1.153846 -0.23601,-1.861888 -0.15735,-0.721154 -0.53759,-1.284965 -0.38025,-0.563811 -1.04895,-0.799825 -0.66871,-0.249126 -1.71766,-0.249126 h -2.36014 v 9.178321 q 0,1.298077 0.5507,2.097902 0.56381,0.786714 1.48164,0.786714 0.89161,0 1.52098,-0.498252 0.62937,-0.511364 0.62937,-1.219406 h 0.78672 q 0,1.088287 -1.12763,1.861888 -1.11451,0.773603 -2.70104,0.773603 -1.91434,0 -3.54021,-0.642484 -1.61277,-0.655594 -2.55682,-1.770105 -0.94406,-1.127622 -0.94406,-2.438811 z" />
      <path
         id="path28"
         style="font-family:Wabroye"
         d="m 179.50742,93.181818 q 0,-2.058566 1.31119,-3.645105 1.3243,-1.586538 3.73688,-2.451923 2.4257,-0.865384 5.57256,-0.865384 1.73077,0 3.14685,0.288461 1.42919,0.27535 2.17657,0.76049 0.57693,0.380244 0.69493,0.747377 l 0.1049,-0.02622 q -0.0918,-0.314685 -0.1049,-0.734265 l -0.0918,-1.678322 0.26224,-0.01311 0.30157,5.13986 h -2.03234 l -0.0131,-0.07867 q -0.27535,-1.625874 -1.44231,-2.609266 -1.15385,-0.996503 -2.96329,-0.996503 -1.92745,0 -3.17308,1.481643 -1.24562,1.468532 -1.42919,3.920455 l 1.38986,-0.09178 q 1.50787,-0.104895 2.41259,-1.062062 0.91783,-0.957168 1.23251,-2.504371 l 0.52448,0.02622 q -0.17046,2.910839 -0.17046,4.090909 l 0.15735,4.182692 -0.52448,0.02622 q -0.31468,-1.547203 -1.2194,-2.504371 -0.90472,-0.957168 -2.41259,-1.062063 l -1.41609,-0.104895 q 0.0656,2.674825 1.32431,4.300699 1.27185,1.625875 3.30419,1.625875 1.80944,0 2.96329,-0.983392 1.16696,-0.996504 1.44231,-2.622378 l 0.0131,-0.07867 h 2.03234 l -0.30157,5.139865 -0.26224,-0.0131 0.0918,-1.678318 q 0.0131,-0.419581 0.1049,-0.734266 l -0.1049,-0.02622 q -0.118,0.367133 -0.69493,0.747378 -0.74738,0.48514 -2.17657,0.773601 -1.41608,0.275349 -3.14685,0.275349 -3.14686,0 -5.57256,-0.865384 -2.41258,-0.865384 -3.73688,-2.438811 -1.31119,-1.586538 -1.31119,-3.658217 z" />
      <path
         id="path30"
         style="font-family:Wabroye"
         d="m 200.47537,98.164336 v -7.08042 q 0,-1.311189 0.73427,-2.425699 0.74738,-1.127623 2.01923,-1.770105 1.27185,-0.655595 2.76661,-0.655595 1.69143,0 3.0944,0.681819 1.40298,0.681818 2.13724,1.80944 0.27535,-0.996503 0.6556,-0.996503 0.38024,0 0.65559,0.983391 0.73427,-1.11451 2.13724,-1.796328 1.40297,-0.681819 3.08129,-0.681819 1.49476,0 2.76661,0.655595 1.28497,0.642482 2.01923,1.770105 0.74738,1.11451 0.74738,2.425699 v 7.08042 q 0,1.062063 0.24913,1.3243 0.26223,0.249126 1.3243,0.249126 h 0.52447 V 100 h -10.24038 v -0.262238 h 0.6687 q 1.06207,0 1.31119,-0.249126 0.26224,-0.262237 0.26224,-1.3243 v -8.129371 q 0,-0.97028 -0.5507,-1.66521 -0.5507,-0.69493 -1.31119,-0.69493 -1.08828,0 -1.91433,1.048951 -0.81294,1.035839 -0.81294,2.491259 v 6.818182 h -1.83567 v -6.818182 q 0,-1.45542 -0.82604,-2.491259 -0.82605,-1.048951 -1.91434,-1.048951 -0.76049,0 -1.31119,0.69493 -0.53759,0.681818 -0.53759,1.66521 v 8.129371 q 0,1.062063 0.24913,1.3243 0.26224,0.249126 1.3243,0.249126 h 0.65559 V 100 h -10.22727 v -0.262238 h 0.52448 q 1.06206,0 1.31119,-0.249126 0.26223,-0.262237 0.26223,-1.3243 z" />
      <path
         id="path32"
         style="font-family:Wabroye"
         d="m 234.43926,87.15035 v 7.604895 h 2.49126 q 1.57343,0 2.68794,-1.153846 1.11451,-1.153847 1.11451,-2.779721 0,-1.520979 -1.11451,-2.596154 -1.11451,-1.075174 -2.68794,-1.075174 z m -8.26049,-0.786714 h 11.40735 q 4.06468,0 6.55594,1.232518 2.49126,1.219405 2.49126,3.225524 0,2.124126 -2.49126,3.422203 -2.49126,1.298077 -6.55594,1.298077 h -3.14686 v 9.440562 q 0,1.06206 0.24913,1.31119 0.26224,0.26223 1.3243,0.26223 h 0.78671 v 0.26224 h -10.62063 v -0.26224 h 0.78672 q 1.06206,0 1.31118,-0.26223 0.26224,-0.24913 0.26224,-1.31119 V 88.199301 q 0,-1.062063 -0.26224,-1.311189 -0.24912,-0.262238 -1.31118,-0.262238 h -0.78672 z" />
      <path
         id="path34"
         style="font-family:Wabroye"
         d="m 255.48179,88.553322 q -1.15384,1.783216 -1.15384,4.628496 0,2.84528 1.15384,4.641609 1.16696,1.783216 3.04196,1.783216 1.875,0 3.02885,-1.783216 1.16696,-1.796329 1.16696,-4.641609 0,-2.84528 -1.16696,-4.628496 -1.15385,-1.796329 -3.02885,-1.796329 -1.875,0 -3.04196,1.796329 z m -4.37937,9.663461 q -2.80594,-1.914335 -2.80594,-5.034965 0,-3.120629 2.80594,-5.034965 2.81906,-1.914336 7.42133,-1.914336 4.60227,0 7.40822,1.914336 2.81905,1.914336 2.81905,5.034965 0,3.12063 -2.81905,5.034965 -2.80595,1.914337 -7.40822,1.914337 -4.60227,0 -7.42133,-1.914337 z" />
      <path
         id="path36"
         style="font-family:Wabroye"
         d="m 272.42563,98.164336 v -9.965035 q 0,-1.062063 -0.26224,-1.311189 -0.24912,-0.262238 -1.31119,-0.262238 h -0.78671 v -0.262238 h 7.34266 q 0.81294,0.681819 0.90472,1.822553 0.81294,-0.839161 2.26836,-1.324301 1.45541,-0.498252 3.17307,-0.498252 2.63549,0 4.23514,1.048951 1.61276,1.048951 1.61276,2.753497 0,1.048951 -0.95716,1.914336 -0.94406,0.852272 -2.43881,1.350524 -1.48165,0.498252 -3.27798,0.668706 v 0.157343 q 0.69493,0.07867 1.15385,0.157343 0.47203,0.06556 1.23252,0.249126 0.7736,0.170454 1.28496,0.406468 0.52448,0.236014 1.03584,0.642483 0.51136,0.406468 0.74738,0.930944 0.59003,1.271853 1.33741,2.124126 0.74738,0.83916 1.4292,0.83916 0.27535,0 0.74737,-0.118007 l 0.0656,0.249126 q -0.85227,0.236014 -2.37325,0.380248 -1.52098,0.15734 -2.36014,0.15734 -1.57342,0 -2.85839,-0.799826 -1.27185,-0.799825 -1.95367,-2.229021 -0.28846,-0.603146 -0.45892,-0.930944 -0.15734,-0.327797 -0.43269,-0.760489 -0.26224,-0.432692 -0.48514,-0.642483 -0.20979,-0.222902 -0.51136,-0.380244 -0.28846,-0.170455 -0.61626,-0.170455 h -0.86539 v -0.786713 h 1.11451 q 1.73077,0 2.96329,-0.957168 1.23252,-0.957168 1.23252,-2.320804 0,-1.088287 -0.93094,-1.848776 -0.91784,-0.773602 -2.21591,-0.773602 -1.12763,0 -1.95368,0.786713 -0.82604,0.786714 -0.93094,1.94056 v 7.762238 q 0,1.062063 0.24913,1.3243 0.26223,0.249126 1.3243,0.249126 h 0.26223 V 100 h -10.09615 v -0.262238 h 0.78671 q 1.06207,0 1.31119,-0.249126 0.26224,-0.262237 0.26224,-1.3243 z" />
      <path
         id="path38"
         style="font-family:Wabroye"
         d="m 297.21407,87.15035 v -0.786714 h 7.74912 q 1.25874,0 1.9799,1.691434 l 4.18269,9.847028 q 0.48514,1.153846 0.7736,1.494755 0.28846,0.340909 0.94406,0.340909 h 0.24912 V 100 h -6.43794 q -0.43269,0 -0.7736,-0.157343 -0.34091,-0.157342 -0.57692,-0.458916 -0.23601,-0.301573 -0.36713,-0.524475 -0.13112,-0.222902 -0.26224,-0.563811 -0.81294,0.83916 -2.16346,1.337412 -1.35053,0.498253 -2.92395,0.498253 -2.01923,0 -3.57955,-0.524477 -1.5472,-0.524475 -2.39947,-1.468531 -0.83916,-0.957168 -0.83916,-2.202797 0,-1.18007 1.12762,-2.163462 1.12762,-0.996503 3.14685,-1.573426 2.03234,-0.590035 4.51049,-0.590035 h 0.27535 l -1.33741,-3.146854 q -0.34091,-0.786713 -0.81294,-1.048951 -0.45892,-0.262237 -1.4292,-0.262237 z m 7.08041,10.27972 -2.13723,-5.034965 h -0.20979 q -1.53409,0 -2.47815,0.97028 -0.93094,0.970279 -0.93094,2.56993 0,1.350524 0.73426,2.176573 0.73427,0.826049 1.94056,0.826049 0.93095,0 1.75699,-0.406468 0.83916,-0.406469 1.3243,-1.101399 z" />
      <path
         id="path40"
         style="font-family:Wabroye"
         d="m 316.25376,88.199301 q 0,-1.022728 -0.36714,-1.298077 -0.35402,-0.27535 -1.46853,-0.27535 h -0.78671 v -0.262238 h 5.75612 q 1.96678,0 3.78933,0.603147 1.82256,0.590035 3.23864,1.625874 1.4292,1.03584 2.43881,2.478147 1.02273,1.442308 1.4292,3.107518 v -5.716784 q 0,-1.11451 -0.27535,-1.468531 -0.27535,-0.367133 -1.29808,-0.367133 h -0.52448 v -0.262238 h 5.11364 v 0.262238 h -0.39336 q -1.19318,0 -1.52098,0.367133 -0.31468,0.354021 -0.31468,1.468531 V 100 h -7.86713 v -0.262238 h 0.39335 q 1.06207,0 1.31119,-0.249126 0.26224,-0.262237 0.26224,-1.3243 v -1.18007 q 0,-1.38986 -0.62937,-2.648602 -0.61626,-1.258741 -1.67832,-2.176573 -1.04895,-0.917832 -2.51748,-1.45542 -1.45542,-0.537587 -3.05507,-0.537587 h -0.24913 v 6.949301 q 0,1.232517 0.51136,1.927447 0.52448,0.69493 1.3243,0.69493 h 0.6556 V 100 h -5.37588 v -0.262238 h 0.31469 q 0.7736,0 1.27185,-0.69493 0.51137,-0.69493 0.51137,-1.927447 z" />
      <path
         id="path42"
         style="font-family:Wabroye"
         d="m 334.13632,93.181818 q 0,-2.058566 1.31119,-3.645105 1.3243,-1.586538 3.73689,-2.451923 2.4257,-0.865384 5.57255,-0.865384 1.73077,0 3.14686,0.288461 1.42919,0.27535 2.17657,0.76049 0.57692,0.380244 0.69493,0.747377 l 0.10489,-0.02622 q -0.0918,-0.314685 -0.10489,-0.734265 l -0.0918,-1.678322 0.26223,-0.01311 0.30158,5.13986 h -2.03235 l -0.0131,-0.07867 q -0.27535,-1.625874 -1.44231,-2.609266 -1.15384,-0.996503 -2.96328,-0.996503 -1.92745,0 -3.17308,1.481643 -1.24563,1.468532 -1.4292,3.920455 l 1.38987,-0.09178 q 1.50786,-0.104895 2.41258,-1.062062 0.91783,-0.957168 1.23252,-2.504371 l 0.52448,0.02622 q -0.17046,2.910839 -0.17046,4.090909 l 0.15734,4.182692 -0.52447,0.02622 q -0.31469,-1.547203 -1.21941,-2.504371 -0.90472,-0.957168 -2.41258,-1.062063 l -1.41609,-0.104895 q 0.0656,2.674825 1.3243,4.300699 1.27186,1.625875 3.3042,1.625875 1.80944,0 2.96328,-0.983392 1.16696,-0.996504 1.44231,-2.622378 l 0.0131,-0.07867 h 2.03235 l -0.30158,5.139865 -0.26223,-0.0131 0.0918,-1.678318 q 0.0131,-0.419581 0.10489,-0.734266 l -0.10489,-0.02622 q -0.11801,0.367133 -0.69493,0.747378 -0.74738,0.48514 -2.17657,0.773601 -1.41609,0.275349 -3.14686,0.275349 -3.14685,0 -5.57255,-0.865384 -2.41259,-0.865384 -3.73689,-2.438811 -1.31119,-1.586538 -1.31119,-3.658217 z" />
      <path
         id="path44"
         style="font-family:Wabroye"
         d="m 362.82718,92.159091 q -1.6521,0.41958 -2.59615,1.416084 -0.93095,0.996503 -0.93095,2.36014 0,1.350524 0.73427,2.176573 0.73427,0.826049 1.94056,0.826049 0.93094,0 1.75699,-0.406468 0.83916,-0.406469 1.3243,-1.101399 z m 2.60927,6.136364 q -0.81294,0.83916 -2.16346,1.337412 -1.35053,0.498253 -2.92395,0.498253 -2.01924,0 -3.57955,-0.524477 -1.5472,-0.524475 -2.39948,-1.468531 -0.83916,-0.957168 -0.83916,-2.202797 0,-1.193182 1.08829,-2.15035 1.1014,-0.97028 3.10752,-1.59965 2.01923,-0.629371 4.7465,-0.852273 l -1.2194,-2.871504 q -0.34091,-0.786713 -0.81294,-1.048951 -0.45892,-0.262237 -1.4292,-0.262237 h -1.03584 v -0.786714 h 7.74913 q 1.25874,0 1.97989,1.691434 l 1.50787,3.54021 q 3.43532,0.760489 5.41521,2.832168 1.9799,2.071678 1.9799,5.008741 0,1.940561 -1.16696,3.579541 -1.15385,1.6521 -3.14685,2.60927 -1.99301,0.95717 -4.34004,0.95717 v -0.39336 q 2.17657,0 4.01224,-0.90472 1.84877,-0.90472 2.91084,-2.46503 1.07517,-1.54721 1.07517,-3.382871 0,-2.543706 -1.70454,-4.392483 -1.70455,-1.848776 -4.69406,-2.648601 l 2.33392,5.506993 q 0.48514,1.153846 0.7736,1.494755 0.28846,0.340909 0.94405,0.340909 h 0.51137 V 100 h -6.70018 q -0.35402,0 -0.65559,-0.118007 -0.30157,-0.118007 -0.49825,-0.27535 -0.18357,-0.157342 -0.36714,-0.41958 -0.17045,-0.262238 -0.26223,-0.432692 -0.0918,-0.183567 -0.19668,-0.458916 z" />
    </g>
  </g>
</svg>
