<?xml version="1.0" encoding="UTF-8" standalone="no"?>
<svg
   xmlns:dc="http://purl.org/dc/elements/1.1/"
   xmlns:cc="http://creativecommons.org/ns#"
   xmlns:rdf="http://www.w3.org/1999/02/22-rdf-syntax-ns#"
   xmlns:svg="http://www.w3.org/2000/svg"
   xmlns="http://www.w3.org/2000/svg"
   id="svg10"
   width="500px"
   version="1.1"
   height="200px">
  <metadata
     id="metadata14">
    <rdf:RDF>
      <cc:Work
         rdf:about="">
        <dc:format>image/svg+xml</dc:format>
        <dc:type
           rdf:resource="http://purl.org/dc/dcmitype/StillImage" />
      </cc:Work>
    </rdf:RDF>
  </metadata>
  <defs
     id="defs4">
    <style
       id="style2"
       type="text/css"><![CDATA[    
     @font-face {font-family:Weimar;
     src: url('/Users/francesco/Repos/write-logos/src/fonts//weimar.ttf');}]]></style>
  </defs>
  <g
     id="g8"
     style="font-size:30px;font-family:Weimar">
    <g
       style=""
       id="text6"
       aria-label="eXtemporanea">
      <path
         id="path16"
         style=""
         d="m 100.72,93.4 q 0,-1.62 0.72,-2.97 0.75,-1.38 2.01,-2.43 -0.18,-0.18 -0.54,-0.6 -0.33,-0.45 -0.69,-0.93 -0.36,-0.51 -0.63,-0.99 -0.24,-0.48 -0.24,-0.78 v -3.9 q 0,-0.09 0.09,-0.3 0.12,-0.24 0.27,-0.51 0.15,-0.3 0.3,-0.57 0.15,-0.27 0.24,-0.42 1.2,-1.59 2.79,-2.28 1.62,-0.69 3.42,-0.87 1.8,-0.18 3.66,-0.06 1.89,0.09 3.63,0.09 v 5.67 h -6.6 q -0.33,0 -0.54,0.21 -0.18,0.21 -0.27,0.51 -0.09,0.27 -0.12,0.57 -0.03,0.3 -0.03,0.51 0,0.51 0.18,0.81 0.21,0.3 0.48,0.51 0.3,0.21 0.6,0.36 0.3,0.15 0.54,0.36 0.24,0.21 0.36,0.54 0.12,0.33 0,0.87 0.36,-0.42 0.63,-0.72 0.27,-0.3 0.54,-0.48 0.3,-0.18 0.63,-0.24 0.36,-0.09 0.9,-0.09 1.26,0 1.98,0.75 0.75,0.72 0.75,1.98 0,1.26 -0.75,2.01 -0.72,0.72 -1.98,0.72 -0.54,0 -0.9,-0.06 -0.33,-0.09 -0.63,-0.27 -0.27,-0.18 -0.54,-0.48 -0.27,-0.3 -0.63,-0.72 0.18,0.75 -0.09,1.14 -0.27,0.36 -0.66,0.66 -0.36,0.3 -0.72,0.66 -0.36,0.33 -0.36,1.05 0,0.21 0,0.51 0.03,0.3 0.12,0.57 0.09,0.27 0.27,0.48 0.18,0.18 0.54,0.18 h 6.3 V 100 h -8.7 q -1.32,0 -2.49,-0.54 -1.14,-0.57 -2.01,-1.47 -0.84,-0.93 -1.35,-2.13 -0.48,-1.2 -0.48,-2.46 z" />
      <path
         id="path18"
         style=""
         d="m 117.50922,96.85 q 0,1.35 0.9,2.28 0.93,0.9 2.28,0.9 1.35,0 2.25,-0.9 0.93,-0.93 0.93,-2.28 0,-1.2 -0.72,-1.98 -0.69,-0.81 -1.71,-1.32 h 2.7 q 0.24,-1.32 0.96,-2.1 0.75,-0.78 2.04,-0.78 0.33,0 0.81,0.12 0.51,0.12 0.96,0.36 0.45,0.24 0.75,0.57 0.33,0.33 0.33,0.78 v 7.2 h 6.15 l 0.3,-0.3 q 0,-0.03 0,-0.3 0.03,-0.3 0.03,-0.66 0,-0.36 0,-0.72 0.03,-0.36 0.03,-0.57 0,-1.56 -0.12,-2.85 -0.09,-1.32 -0.42,-2.49 -0.33,-1.2 -0.93,-2.34 -0.6,-1.14 -1.59,-2.37 0.93,-1.11 1.53,-2.13 0.6,-1.05 0.93,-2.16 0.33,-1.11 0.45,-2.31 0.12,-1.23 0.12,-2.7 0,-0.18 0,-0.45 0,-0.3 -0.03,-0.57 0,-0.3 0,-0.51 0,-0.24 0,-0.27 l -0.3,-0.3 h -6.15 V 82 q 0,0.57 -0.33,0.93 -0.3,0.36 -0.75,0.57 -0.45,0.21 -0.96,0.3 -0.51,0.06 -0.9,0.06 -0.36,0 -0.84,-0.12 -0.45,-0.12 -0.9,-0.36 -0.42,-0.24 -0.72,-0.57 -0.3,-0.36 -0.3,-0.81 v -6.3 h -6.15 l -0.3,0.3 q 0,0.03 0,0.21 0,0.18 -0.03,0.45 0,0.24 0,0.51 0,0.24 0,0.39 0,1.2 0.06,2.28 0.09,1.08 0.3,2.1 0.24,1.02 0.66,2.01 0.42,0.96 1.11,1.95 0.03,0.06 0.18,0.24 0.15,0.15 0.3,0.36 0.15,0.18 0.27,0.36 0.15,0.18 0.15,0.24 0,0.06 -0.15,0.24 -0.12,0.18 -0.27,0.39 -0.15,0.18 -0.3,0.36 -0.15,0.18 -0.18,0.21 -0.36,0.51 -0.66,0.9 -0.27,0.39 -0.51,0.81 -0.21,0.39 -0.39,0.84 -0.15,0.45 -0.24,1.05 -0.03,0.24 -0.09,0.66 -0.03,0.39 -0.06,0.69 0,0.27 0,0.3 h 1.95 q -1.02,0.51 -1.74,1.32 -0.69,0.78 -0.69,1.98 z" />
      <path
         id="path20"
         style=""
         d="m 143.19578,96.85 q 0,-1.2 0.69,-1.98 0.72,-0.81 1.74,-1.32 h -2.25 v -11.4 h -4.95 V 75.7 h 16.2 v 6.45 h -4.95 v 11.4 h -2.55 q 1.02,0.51 1.71,1.32 0.72,0.78 0.72,1.98 0,1.35 -0.93,2.25 -0.9,0.9 -2.25,0.9 -1.35,0 -2.28,-0.9 -0.9,-0.9 -0.9,-2.25 z" />
      <path
         id="path22"
         style=""
         d="m 156.14969,93.4 q 0,-1.62 0.72,-2.97 0.75,-1.38 2.01,-2.43 -0.18,-0.18 -0.54,-0.6 -0.33,-0.45 -0.69,-0.93 -0.36,-0.51 -0.63,-0.99 -0.24,-0.48 -0.24,-0.78 v -3.9 q 0,-0.09 0.09,-0.3 0.12,-0.24 0.27,-0.51 0.15,-0.3 0.3,-0.57 0.15,-0.27 0.24,-0.42 1.2,-1.59 2.79,-2.28 1.62,-0.69 3.42,-0.87 1.8,-0.18 3.66,-0.06 1.89,0.09 3.63,0.09 v 5.67 h -6.6 q -0.33,0 -0.54,0.21 -0.18,0.21 -0.27,0.51 -0.09,0.27 -0.12,0.57 -0.03,0.3 -0.03,0.51 0,0.51 0.18,0.81 0.21,0.3 0.48,0.51 0.3,0.21 0.6,0.36 0.3,0.15 0.54,0.36 0.24,0.21 0.36,0.54 0.12,0.33 0,0.87 0.36,-0.42 0.63,-0.72 0.27,-0.3 0.54,-0.48 0.3,-0.18 0.63,-0.24 0.36,-0.09 0.9,-0.09 1.26,0 1.98,0.75 0.75,0.72 0.75,1.98 0,1.26 -0.75,2.01 -0.72,0.72 -1.98,0.72 -0.54,0 -0.9,-0.06 -0.33,-0.09 -0.63,-0.27 -0.27,-0.18 -0.54,-0.48 -0.27,-0.3 -0.63,-0.72 0.18,0.75 -0.09,1.14 -0.27,0.36 -0.66,0.66 -0.36,0.3 -0.72,0.66 -0.36,0.33 -0.36,1.05 0,0.21 0,0.51 0.03,0.3 0.12,0.57 0.09,0.27 0.27,0.48 0.18,0.18 0.54,0.18 h 6.3 V 100 h -8.7 q -1.32,0 -2.49,-0.54 -1.14,-0.57 -2.01,-1.47 -0.84,-0.93 -1.35,-2.13 -0.48,-1.2 -0.48,-2.46 z" />
      <path
         id="path24"
         style=""
         d="m 182.35891,75.64 q 0.69,0 1.35,0.21 0.66,0.18 1.29,0.42 0.63,0.21 1.23,0.42 0.63,0.18 1.26,0.18 0.6,0 1.23,-0.18 0.63,-0.21 1.29,-0.45 0.69,-0.24 1.38,-0.42 0.72,-0.21 1.5,-0.21 0.93,0 1.95,0.24 1.05,0.21 2.07,0.66 1.02,0.42 1.95,1.08 0.93,0.63 1.62,1.44 0.72,0.78 1.14,1.77 0.42,0.96 0.42,2.07 v 17.1 h -6.15 v -15.6 q 0,-0.48 -0.24,-0.93 -0.21,-0.45 -0.6,-0.78 -0.36,-0.33 -0.81,-0.51 -0.45,-0.21 -0.9,-0.21 -0.3,0 -0.75,0.15 -0.42,0.15 -0.84,0.42 -0.39,0.24 -0.69,0.57 -0.27,0.33 -0.27,0.69 v 9.75 h -2.55 q 1.02,0.51 1.71,1.32 0.72,0.78 0.72,1.98 0,1.35 -0.93,2.25 -0.9,0.9 -2.25,0.9 -1.35,0 -2.28,-0.9 -0.9,-0.9 -0.9,-2.25 0,-1.2 0.69,-1.98 0.72,-0.81 1.74,-1.32 h -2.55 V 83.47 q 0,-0.36 -0.3,-0.63 -0.27,-0.27 -0.66,-0.48 -0.36,-0.21 -0.78,-0.3 -0.39,-0.12 -0.66,-0.12 -0.27,0 -0.69,0.12 -0.39,0.09 -0.78,0.3 -0.36,0.21 -0.66,0.48 -0.27,0.27 -0.27,0.63 v 16.5 h -6.45 v -16.5 q 0,-1.83 0.87,-3.27 0.87,-1.47 2.25,-2.46 1.38,-1.02 3.03,-1.56 1.68,-0.54 3.27,-0.54 z" />
      <path
         id="path26"
         style=""
         d="m 203.72781,96.85 q 0,-1.2 0.69,-1.98 0.72,-0.81 1.74,-1.32 h -2.1 V 76 l 0.3,-0.3 q 0.03,0 0.3,0 0.27,-0.03 0.66,-0.03 0.39,0 0.81,0 0.45,-0.03 0.87,-0.03 h 0.9 q 1.92,0 3.87,0.03 1.95,0 3.69,0.42 1.77,0.39 3.24,1.41 1.47,0.99 2.46,3 0.42,0.81 0.66,1.92 0.24,1.08 0.24,1.98 0,1.77 -0.72,3.36 -0.69,1.59 -1.89,2.79 -1.2,1.2 -2.79,1.89 -1.59,0.69 -3.33,0.69 h -0.33 q -0.18,0 -0.45,0 -0.24,-0.03 -0.48,-0.06 -0.21,-0.03 -0.36,-0.09 -0.15,-0.09 -0.15,-0.18 v -6 q 0.69,0 1.38,-0.12 0.72,-0.12 1.26,-0.39 0.57,-0.3 0.93,-0.81 0.36,-0.54 0.36,-1.35 0,-1.08 -0.51,-1.56 -0.51,-0.51 -1.29,-0.66 -0.75,-0.18 -1.62,-0.12 -0.87,0.03 -1.56,0.03 v 11.73 h -2.85 q 1.02,0.51 1.71,1.32 0.72,0.78 0.72,1.98 0,1.35 -0.93,2.25 -0.9,0.9 -2.25,0.9 -1.35,0 -2.28,-0.9 -0.9,-0.9 -0.9,-2.25 z" />
      <path
         id="path28"
         style=""
         d="m 223.94687,87.79 q 0,-2.58 0.93,-4.83 0.96,-2.28 2.61,-3.96 1.68,-1.68 3.93,-2.64 2.25,-0.99 4.86,-0.99 2.64,0 4.89,0.93 2.25,0.93 3.9,2.58 1.65001,1.65 2.58,3.93 0.96,2.25 0.96,4.89 0,2.64 -0.93,4.89 -0.93,2.25 -2.58,3.9 -1.65,1.65 -3.93,2.58 -2.25,0.93 -4.89,0.93 -2.52,0 -4.77,-0.93 -2.25,-0.93 -3.93,-2.58 -1.68,-1.65 -2.66999,-3.87 -0.96001,-2.25 -0.96001,-4.83 z m 6.63,1.71 q 0.39,0.9 0.93,1.68 0.54,0.75 1.26,1.32 0.72,0.57 1.59,0.9 0.87,0.33 1.92,0.33 1.26,0 2.34,-0.48 1.11,-0.48 1.92,-1.29 0.84,-0.81 1.29,-1.89 0.48,-1.11 0.48,-2.37 0,-1.2 -0.45,-2.28 -0.44999,-1.11 -1.26,-1.92 -0.78,-0.84 -1.86,-1.32 -1.07999,-0.51 -2.31,-0.51 -1.32,0 -2.4,0.45 -1.08,0.45 -1.86,1.26 -0.78,0.81 -1.23,1.92 -0.42,1.11 -0.42,2.4 v 0.36 q 0,0.33 0.03,0.84 0.03,0.48 0.03,0.6 z m 2.37,-1.65 q 0,-0.66 0.24,-1.23 0.24,-0.6 0.66,-1.02 0.45,-0.45 1.02,-0.69 0.57,-0.24 1.26,-0.24 0.66,0 1.23,0.24 0.6,0.24 1.02,0.69 0.45,0.42 0.69,1.02 0.24,0.57 0.24,1.23 0,0.69 -0.24,1.26 -0.24,0.57 -0.69,1.02 -0.42,0.42 -1.02,0.66 -0.57,0.24 -1.23,0.24 -0.69,0 -1.26,-0.24 -0.57,-0.24 -1.02,-0.66 -0.42,-0.45 -0.66,-1.02 -0.24,-0.57 -0.24,-1.26 z" />
      <path
         id="path30"
         style=""
         d="m 262.42984,96.85 q 0,-1.2 0.69,-1.98 0.72,-0.81 1.74,-1.32 h -3 q -0.09,-0.69 -0.51,-1.11 -0.42,-0.42 -1.02,-0.66 -0.57,-0.24 -1.2,-0.33 -0.63,-0.09 -1.17,-0.15 v -4.5 q 0.63,-0.06 1.26,-0.15 0.66,-0.12 1.17,-0.36 0.54,-0.24 0.87,-0.69 0.33,-0.45 0.33,-1.23 0,-1.2 -0.42,-1.71 -0.42,-0.54 -1.11,-0.69 -0.69,-0.18 -1.59,-0.12 -0.9,0.06 -1.86,0.06 V 99.7 h -6.15 V 75.58 q 1.5,0 3.39,-0.06 1.92,-0.09 3.87,0 1.98,0.09 3.87,0.45 1.89,0.36 3.33,1.23 1.47,0.87 2.37,2.37 0.9,1.47 0.9,3.78 0,0.9 -0.15,1.56 -0.15,0.66 -0.45,1.26 -0.27,0.57 -0.66,1.14 -0.39,0.57 -0.87,1.29 0,0 -0.03,0.06 0,0.06 0,0.09 0,0.03 0,0.09 0.03,0.06 0.03,0.06 0.36,0.54 0.66,0.9 0.3,0.33 0.57,0.66 0.27,0.3 0.48,0.69 0.21,0.39 0.39,1.05 0.06,0.21 0.09,0.54 0.06,0.33 0.06,0.57 0.03,0.21 0.03,0.24 h -1.98 q 1.02,0.51 1.71,1.32 0.72,0.78 0.72,1.98 0,1.35 -0.93,2.25 -0.9,0.9 -2.25,0.9 -1.35,0 -2.28,-0.9 -0.9,-0.9 -0.9,-2.25 z" />
      <path
         id="path32"
         style=""
         d="m 270.73469,99.97 v -15.3 q 0,-1.92 0.75,-3.57 0.75,-1.68 2.01,-2.88 1.29,-1.2 2.97,-1.89 1.68,-0.69 3.57,-0.69 1.89,0 3.57,0.69 1.68,0.66 2.94,1.86 1.29,1.2 2.04,2.85 0.75,1.65 0.75,3.63 v 15.3 h -6.45 v -8.4 q -0.48,0.78 -1.2,1.44 -0.69,0.66 -1.65,0.66 -0.51,0 -0.96,-0.18 -0.45,-0.21 -0.84,-0.54 -0.39,-0.36 -0.66,-0.78 -0.27,-0.45 -0.39,-0.9 v 8.7 z m 9.27,-18.03 q -0.39,0 -0.87,0.15 -0.45,0.15 -0.87,0.45 -0.39,0.27 -0.66,0.66 -0.27,0.39 -0.27,0.87 v 6.6 q 0,-0.48 0.24,-0.9 0.27,-0.45 0.66,-0.78 0.39,-0.33 0.87,-0.51 0.48,-0.21 0.93,-0.21 0.45,0 0.87,0.18 0.45,0.15 0.81,0.45 0.39,0.27 0.66,0.66 0.27,0.39 0.36,0.81 v -6.3 q 0,-0.54 -0.27,-0.93 -0.24,-0.42 -0.66,-0.66 -0.39,-0.27 -0.87,-0.39 -0.48,-0.15 -0.93,-0.15 z" />
      <path
         id="path34"
         style=""
         d="m 291.2125,96.82 q 0,-1.2 0.69,-1.98 0.72,-0.81 1.74,-1.32 h -2.1 V 82.87 q 0,-1.77 0.87,-3.15 0.9,-1.41 2.25,-2.37 1.38,-0.99 3,-1.5 1.65,-0.51 3.15,-0.51 1.56,0 3.15,0.57 1.62,0.57 2.91,1.62 1.32,1.02 2.13,2.46 0.84,1.44 0.84,3.18 v 16.5 h -6.45 v -16.5 q 0,-0.39 -0.33,-0.69 -0.3,-0.3 -0.75,-0.48 -0.42,-0.18 -0.9,-0.27 -0.45,-0.09 -0.72,-0.09 -0.51,0 -1.05,0.21 -0.54,0.21 -0.99,0.6 -0.42,0.36 -0.69,0.87 -0.27,0.48 -0.27,1.05 v 9.15 h -2.55 q 1.02,0.51 1.71,1.32 0.72,0.78 0.72,1.98 0,1.35 -0.93,2.25 -0.9,0.9 -2.25,0.9 -1.35,0 -2.28,-0.9 -0.9,-0.9 -0.9,-2.25 z" />
      <path
         id="path36"
         style=""
         d="m 311.54031,93.4 q 0,-1.62 0.72,-2.97 0.75,-1.38 2.01,-2.43 -0.18,-0.18 -0.54,-0.6 -0.33,-0.45 -0.69,-0.93 -0.36,-0.51 -0.63,-0.99 -0.24,-0.48 -0.24,-0.78 v -3.9 q 0,-0.09 0.09,-0.3 0.12,-0.24 0.27,-0.51 0.15,-0.3 0.3,-0.57 0.15,-0.27 0.24,-0.42 1.2,-1.59 2.79,-2.28 1.62,-0.69 3.42,-0.87 1.8,-0.18 3.66,-0.06 1.89,0.09 3.63,0.09 v 5.67 h -6.6 q -0.33,0 -0.54,0.21 -0.18,0.21 -0.27,0.51 -0.09,0.27 -0.12,0.57 -0.03,0.3 -0.03,0.51 0,0.51 0.18,0.81 0.21,0.3 0.48,0.51 0.3,0.21 0.6,0.36 0.3,0.15 0.54,0.36 0.24,0.21 0.36,0.54 0.12,0.33 0,0.87 0.36,-0.42 0.63,-0.72 0.27,-0.3 0.54,-0.48 0.3,-0.18 0.63,-0.24 0.36,-0.09 0.9,-0.09 1.26,0 1.98,0.75 0.75,0.72 0.75,1.98 0,1.26 -0.75,2.01 -0.72,0.72 -1.98,0.72 -0.54,0 -0.9,-0.06 -0.33,-0.09 -0.63,-0.27 -0.27,-0.18 -0.54,-0.48 -0.27,-0.3 -0.63,-0.72 0.18,0.75 -0.09,1.14 -0.27,0.36 -0.66,0.66 -0.36,0.3 -0.72,0.66 -0.36,0.33 -0.36,1.05 0,0.21 0,0.51 0.03,0.3 0.12,0.57 0.09,0.27 0.27,0.48 0.18,0.18 0.54,0.18 h 6.3 V 100 h -8.7 q -1.32,0 -2.49,-0.54 -1.14,-0.57 -2.01,-1.47 -0.84,-0.93 -1.35,-2.13 -0.48,-1.2 -0.48,-2.46 z" />
      <path
         id="path38"
         style=""
         d="m 328.44953,99.97 v -15.3 q 0,-1.92 0.75,-3.57 0.75,-1.68 2.01,-2.88 1.29,-1.2 2.97,-1.89 1.68,-0.69 3.57,-0.69 1.89,0 3.57,0.69 1.68,0.66 2.94,1.86 1.29,1.2 2.04,2.85 0.75,1.65 0.75,3.63 v 15.3 h -6.45 v -8.4 q -0.48,0.78 -1.2,1.44 -0.69,0.66 -1.65,0.66 -0.51,0 -0.96,-0.18 -0.45,-0.21 -0.84,-0.54 -0.39,-0.36 -0.66,-0.78 -0.27,-0.45 -0.39,-0.9 v 8.7 z m 9.27,-18.03 q -0.39,0 -0.87,0.15 -0.45,0.15 -0.87,0.45 -0.39,0.27 -0.66,0.66 -0.27,0.39 -0.27,0.87 v 6.6 q 0,-0.48 0.24,-0.9 0.27,-0.45 0.66,-0.78 0.39,-0.33 0.87,-0.51 0.48,-0.21 0.93,-0.21 0.45,0 0.87,0.18 0.45,0.15 0.81,0.45 0.39,0.27 0.66,0.66 0.27,0.39 0.36,0.81 v -6.3 q 0,-0.54 -0.27,-0.93 -0.24,-0.42 -0.66,-0.66 -0.39,-0.27 -0.87,-0.39 -0.48,-0.15 -0.93,-0.15 z" />
    </g>
  </g>
</svg>
