<?xml version="1.0" encoding="UTF-8" standalone="no"?>
<svg
   xmlns:dc="http://purl.org/dc/elements/1.1/"
   xmlns:cc="http://creativecommons.org/ns#"
   xmlns:rdf="http://www.w3.org/1999/02/22-rdf-syntax-ns#"
   xmlns:svg="http://www.w3.org/2000/svg"
   xmlns="http://www.w3.org/2000/svg"
   id="svg16"
   width="800px"
   version="1.1"
   height="200px">
  <metadata
     id="metadata20">
    <rdf:RDF>
      <cc:Work
         rdf:about="">
        <dc:format>image/svg+xml</dc:format>
        <dc:type
           rdf:resource="http://purl.org/dc/dcmitype/StillImage" />
      </cc:Work>
    </rdf:RDF>
  </metadata>
  <defs
     id="defs4">
    <style
       id="style2"
       type="text/css"><![CDATA[    
     @font-face {font-family:Winter Twilight;
     src: url('/Users/francesco/Repos/write-logos/src/fonts/Winter_Twilight.ttf');}
     @font-face {font-family:Dark Hornet Laser;
     src: url('/Users/francesco/Repos/write-logos/src/fonts/darkhornetlaser.ttf');}
     ]]></style>
  </defs>
  <g
     id="g14"
     style="font-size:60px">
    <g
       style="text-anchor:middle"
       id="text12"
       aria-label="eXtemporanea">
      <path
         id="path22"
         style="font-family:'Winter Twilight'"
         d="m 231.64187,91.48 q 0,-2.7 0.9,-5.64 0.96,-2.94 2.64,-5.34 1.74,-2.4 4.08,-3.96 2.4,-1.56 5.34,-1.56 2.64,0 4.14,1.26 1.5,1.26 1.5,3.48 0,2.04 -1.26,3.78 -1.26,1.74 -3.18,3.06 -1.86,1.26 -4.08,2.1 -2.16,0.78 -4.02,1.02 -0.12,0.78 -0.18,1.56 -0.06,0.72 -0.06,1.44 0,0.84 0.12,1.86 0.12,1.02 0.48,1.92 0.36,0.9 1.02,1.56 0.66,0.6 1.74,0.6 2.58,0 4.74,-1.44 2.22001,-1.44 3.96,-3.6 1.8,-2.16 3.18,-4.62 1.38,-2.46 2.28,-4.5 0.36001,-0.84 1.32,-0.84 0.66001,0.06 1.08,0.48 0.42,0.42 0.48,1.08 0,0.12 -0.18,0.42 -0.12,0.3 -0.24,0.6 -1.2,2.46 -2.76,5.16 -1.56,2.7 -3.6,4.98 -2.04,2.28 -4.56,3.78 -2.52,1.5 -5.7,1.5 -2.28,0 -4.02,-0.78 -1.68,-0.78 -2.88,-2.16 -1.13999,-1.38 -1.68,-3.18 -0.6,-1.86 -0.6,-4.02 z m 15.6,-11.58 q 0,-0.9 -0.6,-1.38 -0.54,-0.54 -1.5,-0.54 -1.32,0 -2.4,0.96 -1.08,0.9 -1.98,2.28 -0.84,1.32 -1.44,2.82 -0.53999,1.44 -0.9,2.46 1.2,-0.24 2.7,-0.84 1.5,-0.6 2.88,-1.5 1.38,-0.9 2.28001,-1.98 0.95999,-1.08 0.95999,-2.28 z" />
      <path
         id="path24"
         style="font-family:'Dark Hornet Laser'"
         d="m 290.94156,76.96 -3.78,3.84 3.78,3.78 V 100 h -14.7 v -8.76 l -3,-3.06 -2.94,3.06 V 100 h -14.7 V 84.58 l 3.72,-3.78 -3.72,-3.84 z m -20.64,-15.42 v 8.7 l 2.94,3 3,-3 v -8.7 h 14.7 V 75.7 h -35.34 V 61.54 Z" />
      <path
         id="path26"
         style="font-family:'Winter Twilight'"
         d="m 291.46188,65.62 q 0,-0.6 0.35999,-1.02 0.36,-0.48 1.14001,-0.48 h 3.12 q 0.29999,-0.9 0.77999,-2.34 0.48001,-1.5 1.2,-2.82 0.72001,-1.38 1.62,-2.34 0.90001,-1.02 1.98,-1.02 0.66,0 1.02,0.42 0.42,0.42 0.48,1.02 0,0.24 -0.06,0.36 0,0.06 -0.42,1.86 -0.36,1.8 -0.96,4.86 h 4.74001 q 0.77999,0 1.13999,0.48 0.42001,0.48 0.42001,1.02 0,0.54 -0.42001,1.02 -0.36,0.48 -1.13999,0.48 h -5.28001 q -0.48,2.4 -0.96,5.1 -0.48,2.7 -0.96,5.52 -0.72,4.5 -1.26,8.22 -0.47999,3.66 -0.59999,6.54 -0.06,0.9 -0.12,1.74 0,0.84 0,1.56 0,0.36 0,0.96 0.06,0.54 0.06,1.2 0.06,0.6 0.12,1.14 0.12,0.54 0.23999,0.84 0.78,-0.36 1.74,-1.38 0.96001,-1.08 1.98,-2.46 1.08,-1.44 2.10001,-3.06 1.07999,-1.68 1.97999,-3.24 0.96001,-1.62 1.68,-3 0.78001,-1.44 1.14,-2.34 0.36,-0.84 1.32001,-0.84 0.65999,0 1.07999,0.48 0.48,0.42 0.48,1.08 0,0.18 -0.6,1.38 -0.54,1.14 -1.31999,2.52 -0.72001,1.32 -1.38,2.58 -0.66001,1.2 -0.84001,1.5 -0.59999,1.02 -1.68,2.7 -1.08,1.68 -2.4,3.3 -1.32,1.56 -2.76,2.7 -1.43999,1.2 -2.81999,1.2 -1.92001,0 -3,-1.44 -1.08001,-1.38 -1.62,-3.36 -0.48001,-1.98 -0.54001,-4.02 -0.12,-2.1 -0.12,-3.42 0,-2.28 0.24,-5.16 0.18,-2.88 0.54001,-6 0.41999,-3.18 1.01999,-6.36 0.60001,-3.24 1.32,-6.18 h -2.27999 q -0.78001,0 -1.14001,-0.48 -0.35999,-0.48 -0.35999,-1.02 z" />
      <path
         id="path28"
         style="font-family:'Winter Twilight'"
         d="m 306.75906,91.48 q 0,-2.7 0.9,-5.64 0.96,-2.94 2.64,-5.34 1.74,-2.4 4.08,-3.96 2.4,-1.56 5.34,-1.56 2.64,0 4.14,1.26 1.5,1.26 1.5,3.48 0,2.04 -1.26,3.78 -1.26,1.74 -3.18,3.06 -1.86,1.26 -4.08,2.1 -2.16,0.78 -4.02,1.02 -0.12,0.78 -0.18,1.56 -0.06,0.72 -0.06,1.44 0,0.84 0.12,1.86 0.12,1.02 0.48,1.92 0.36,0.9 1.02,1.56 0.66,0.6 1.74,0.6 2.58,0 4.74,-1.44 2.22,-1.44 3.96,-3.6 1.8,-2.16 3.18,-4.62 1.38,-2.46 2.28,-4.5 0.36,-0.84 1.32,-0.84 0.66,0.06 1.08,0.48 0.42,0.42 0.48,1.08 0,0.12 -0.18,0.42 -0.12,0.3 -0.24,0.6 -1.2,2.46 -2.76,5.16 -1.56,2.7 -3.6,4.98 -2.04,2.28 -4.56,3.78 -2.52,1.5 -5.7,1.5 -2.28,0 -4.02,-0.78 -1.68,-0.78 -2.88,-2.16 -1.14,-1.38 -1.68,-3.18 -0.6,-1.86 -0.6,-4.02 z m 15.6,-11.58 q 0,-0.9 -0.6,-1.38 -0.54,-0.54 -1.5,-0.54 -1.32,0 -2.4,0.96 -1.08,0.9 -1.98,2.28 -0.84,1.32 -1.44,2.82 -0.54,1.44 -0.9,2.46 1.2,-0.24 2.7,-0.84 1.5,-0.6 2.88,-1.5 1.38,-0.9 2.28,-1.98 0.96,-1.08 0.96,-2.28 z" />
      <path
         id="path30"
         style="font-family:'Winter Twilight'"
         d="m 328.31875,94.12 q 0,-0.96 0.18,-2.7 0.18,-1.8 0.54,-3.9 0.36,-2.16 0.9,-4.38 0.6,-2.28 1.38,-4.08 0.84,-1.86 1.86,-3 1.02,-1.2 2.34,-1.2 0.6,0 1.02,0.42 0.48,0.42 0.48,1.02 0,0.06 -0.06,0.12 0,0.06 0,0.18 0,1.44 -0.54,3.84 -0.54,2.4 -1.02,5.16 0.72,-1.44 1.8,-3.54 1.14,-2.16 2.58,-4.14 1.44,-1.98 3.12,-3.42 1.74,-1.44 3.54,-1.44 2.1,0 3.9,1.2 1.8,1.2 2.58,3.24 0.78,-0.36 1.44,-0.78 0.66,-0.48 1.32,-0.84 0.72,-0.42 1.44,-0.66 0.78,-0.24 1.74,-0.24 1.38,0 2.22,0.6 0.84,0.54 1.32,1.44 0.54,0.9 0.72,2.04 0.18,1.08 0.18,2.22 0,2.28 -0.48,4.98 -0.48,2.7 -1.08,5.46 -0.3,1.5 -0.72,3.3 -0.36,1.8 -0.36,3.3 1.2,-0.6 2.64,-2.34 1.44,-1.74 2.76,-3.84 1.38,-2.16 2.52,-4.26 1.14,-2.1 1.74,-3.42 0.36,-0.84 1.32,-0.84 0.66,0.06 1.08,0.48 0.48,0.42 0.48,1.08 -0.24,0.78 -0.78,1.86 -0.54,1.08 -1.14,2.22 -0.6,1.08 -1.2,2.16 -0.6,1.02 -1.02,1.74 -0.6,1.02 -1.62,2.46 -1.02,1.44 -2.22,2.76 -1.2,1.26 -2.58,2.16 -1.38,0.96 -2.7,0.96 -1.26,0 -2.1,-0.54 -0.78,-0.54 -1.26,-1.38 -0.48,-0.9 -0.66,-1.98 -0.18,-1.08 -0.18,-2.1 0,-2.58 0.48,-5.1 0.48,-2.52 1.02,-5.04 0.12,-0.66 0.36,-1.62 0.24,-1.02 0.42,-2.1 0.18,-1.08 0.3,-2.04 0.12,-0.96 0,-1.56 -1.8,0.36 -4.62,2.7 0.06,0.36 0.06,0.78 0.06,0.36 0.06,0.72 0,1.98 -0.6,4.26 -0.54,2.28 -1.68,4.26 -1.14,1.92 -2.88,3.24 -1.68,1.32 -3.96,1.32 -1.2,0 -1.92,-0.66 -0.72,-0.72 -0.72,-1.92 0,-1.62 0.66,-3.12 0.72,-1.5 1.68,-2.88 1.02,-1.44 2.16,-2.7 1.14,-1.26 2.04,-2.46 0,-0.48 -0.06,-1.38 -0.06,-0.96 -0.3,-1.86 -0.18,-0.9 -0.6,-1.56 -0.42,-0.72 -1.08,-0.72 -1.2,0 -2.58,1.44 -1.38,1.38 -2.76,3.6 -1.32,2.22 -2.64,4.92 -1.32,2.64 -2.46,5.22 -1.08,2.58 -1.92,4.74 -0.84,2.1 -1.26,3.18 -0.42,1.02 -1.2,1.02 -1.2,0 -1.92,-0.6 -0.66,-0.6 -0.96,-1.5 -0.36,-0.96 -0.42,-1.98 -0.12,-1.08 -0.12,-1.98 z m 19.32,-6.6 q -0.78,1.2 -1.38,2.16 -0.6,0.96 -1.08,2.4 0.36,-0.24 0.72,-0.78 0.42,-0.6 0.78,-1.26 0.36,-0.72 0.6,-1.38 0.3,-0.72 0.36,-1.14 z" />
      <path
         id="path32"
         style="font-family:'Winter Twilight'"
         d="m 372.11406,76.72 q 0.96,-2.7 1.92,-3.9 1.02,-1.26 2.22,-1.26 0.6,0 1.08,0.48 0.48,0.42 0.42,1.02 v 0.24 l -1.02,5.88 q 1.32,-1.74 3.24,-3.18 1.98,-1.44 4.8,-1.44 2.1,0 3.66,0.9 1.62,0.84 2.7,2.28 1.08,1.44 1.62,3.36 0.54,1.92 0.54,4.02 0,2.58 -0.84,5.28 -0.84,2.64 -2.46,4.8 -1.56,2.1 -3.78,3.48 -2.16,1.32 -4.86,1.32 -2.76,0 -4.56,-1.38 -1.8,-1.38 -2.94,-3.42 l -3.36,18.72 q -0.12,0.54 -0.54,0.9 -0.36,0.36 -0.96,0.36 -1.02,0 -1.5,-0.66 -0.54,-0.66 -0.78,-1.62 -0.3,-0.96 -0.3,-1.98 -0.06,-1.02 -0.06,-1.68 0,-3.24 0.48,-7.56 0.48,-4.26 1.32,-8.76 0.78,-4.5 1.8,-8.76 1.02,-4.26 2.16,-7.44 z m 8.52,20.28 q 1.56,0 2.76,-1.2 1.26,-1.2 2.1,-3.06 0.9,-1.86 1.32,-4.14 0.48,-2.28 0.48,-4.38 0,-2.76 -0.84,-4.68 -0.84,-1.98 -2.58,-1.98 -1.38,0 -2.7,1.2 -1.32,1.2 -2.52,2.88 -1.14,1.68 -2.1,3.54 -0.9,1.8 -1.44,3.06 l -0.18,0.72 q 0.18,1.14 0.6,2.52 0.48,1.38 1.14,2.64 0.72,1.2 1.68,2.04 0.96,0.84 2.28,0.84 z" />
      <path
         id="path34"
         style="font-family:'Winter Twilight'"
         d="m 396.82187,89.98 q 0,-2.16 0.78,-4.32 0.84,-2.16 2.88,-3.24 0,-2.46 0.96,-4.74 1.02001,-2.28 2.70001,-4.02 1.67999,-1.74 3.89999,-2.76 2.22,-1.08 4.74001,-1.08 2.33999,0 3.83999,1.14 1.56,1.14 2.46001,2.88 0.89999,1.74 1.26,3.84 0.41999,2.1 0.41999,4.02 0,1.8 -0.29999,3.84 -0.30001,2.04 -0.96001,4.14 2.46001,-0.78 4.32,-2.1 1.92,-1.38 2.94,-3.12 0.48,-0.84 1.32001,-0.84 0.65999,0.06 1.07999,0.48 0.48001,0.42 0.48001,1.08 0,0.12 -0.18,0.42 -0.12,0.3 -0.24001,0.6 -1.37999,2.7 -4.43999,4.5 -3,1.8 -6.72001,2.52 -0.77999,1.56 -1.8,2.94 -1.02,1.38 -2.28,2.4 -1.26,1.02 -2.76,1.56 -1.5,0.6 -3.3,0.6 -2.39999,0 -4.44,-0.78 -2.04,-0.78 -3.54,-2.16 -1.44,-1.38 -2.28,-3.36 -0.84,-2.04 -0.84,-4.44 z m 16.20001,0.72 q 0.77999,0 1.5,-0.06 0.77999,-0.06 1.5,-0.18 0.89999,-2.28 1.32,-4.62 0.41999,-2.34 0.41999,-4.14 0,-1.2 -0.23999,-2.7 -0.18,-1.56 -0.72001,-2.88 -0.54,-1.38 -1.5,-2.34 -0.95999,-0.96 -2.51999,-0.96 -1.62001,0 -2.94,1.32 -1.26,1.26 -2.16001,3.06 -0.83999,1.8 -1.32,3.78 -0.42,1.92 -0.42,3.18 0,1.86 0.54,3.12 0.60001,1.2 1.56,1.98 0.96,0.78 2.22,1.14 1.32001,0.3 2.76001,0.3 z m -10.5,-1.56 q 0.06,1.26 0.29999,2.76 0.24,1.5 0.78,2.82 0.6,1.26 1.62,2.16 1.08,0.84 2.7,0.84 2.10001,0 3.72001,-1.14 1.61999,-1.14 2.82,-3 -0.24001,0.06 -0.66001,0.06 -3.18,-0.06 -6.3,-1.02 -3.06,-1.02 -4.97999,-3.48 z" />
      <path
         id="path36"
         style="font-family:'Winter Twilight'"
         d="m 426.67844,84.64 q 0,0 0.36,-0.66 0.36,-0.72 0.9,-1.8 0.6,-1.08 1.32,-2.46 0.72,-1.38 1.44,-2.88 0.3,-0.66 0.54,-1.2 0.24,-0.54 0.48,-1.02 -0.42,-0.84 -0.6,-1.92 -0.18,-1.08 -0.18,-1.98 0,-0.96 0.18,-1.92 0.24,-1.02 0.72,-1.8 0.48,-0.84 1.26,-1.38 0.78,-0.54 1.86,-0.54 1.14,0 1.68,0.84 0.54,0.78 0.54,1.8 0,0.72 -0.24,1.62 -0.24,0.9 -0.54,1.86 -0.3,0.9 -0.72,1.8 -0.36,0.84 -0.66,1.5 0.72,1.02 1.86,1.5 1.2,0.42 2.46,0.42 0.54,0 0.96,-0.06 0.48,-0.06 0.84,-0.18 1.32,-1.62 2.88,-1.62 0.66,0 1.14,0.42 0.54,0.36 0.42,1.02 -0.18,0.96 -0.54,2.34 -0.3,1.38 -0.66,2.88 -0.3,1.5 -0.6,2.94 -0.3,1.38 -0.48,2.4 -0.48,2.7 -0.9,5.4 -0.36,2.7 -0.36,5.46 0,0.6 0.06,1.32 0.06,0.66 0.18,1.26 0.78,-0.36 1.74,-1.38 0.96,-1.08 1.98,-2.46 1.08,-1.44 2.1,-3.12 1.08,-1.68 1.98,-3.24 0.9,-1.62 1.62,-3 0.78,-1.44 1.2,-2.34 0.36,-0.84 1.32,-0.84 0.66,0.06 1.08,0.48 0.42,0.42 0.48,1.08 0,0.18 -0.6,1.38 -0.54,1.14 -1.32,2.52 -0.72,1.32 -1.38,2.58 -0.66,1.2 -0.84,1.5 -0.6,1.02 -1.68,2.7 -1.08,1.68 -2.4,3.3 -1.32,1.56 -2.76,2.7 -1.44,1.2 -2.82,1.2 -1.74,0 -2.82,-0.96 -1.08,-0.96 -1.68,-2.34 -0.54,-1.44 -0.78,-3.06 -0.18,-1.68 -0.18,-3.06 0,-0.96 0.12,-2.58 0.18,-1.68 0.54,-3.66 0.36,-1.98 0.9,-4.08 0.54,-2.1 1.26,-3.9 -1.56,0 -3,-0.42 -1.44,-0.42 -2.64,-1.5 -0.84,1.56 -1.68,3.12 -0.78,1.5 -1.38,2.76 -0.6,1.2 -1.02,1.98 -0.36,0.72 -0.36,0.72 -0.18,0.36 -0.54,0.6 -0.36,0.18 -0.72,0.18 -0.6,0 -1.08,-0.42 -0.42,-0.42 -0.42,-1.08 0,-0.36 0.18,-0.72 z" />
      <path
         id="path38"
         style="font-family:'Winter Twilight'"
         d="m 463.61125,74.56 q 3.06,0 4.98,1.68 1.92,1.68 3,4.02 0.9,-2.4 2.1,-4.02 1.26,-1.68 2.94,-1.68 0.66,0 1.14,0.42 0.54,0.36 0.42,1.02 -0.18,0.96 -0.54,2.34 -0.3,1.38 -0.66,2.88 -0.3,1.5 -0.6,2.94 -0.3,1.38 -0.48,2.4 -0.48,2.7 -0.9,5.4 -0.36,2.7 -0.36,5.46 0,0.6 0.06,1.32 0.06,0.66 0.18,1.26 0.78,-0.36 1.74,-1.38 1.02,-1.08 2.04,-2.46 1.02,-1.44 2.04,-3.12 1.08,-1.68 1.98,-3.24 0.96,-1.62 1.68,-3 0.72,-1.44 1.14,-2.34 0.36,-0.84 1.32,-0.84 0.66,0.06 1.08,0.48 0.48,0.42 0.48,1.08 0,0.12 -0.18,0.42 -0.12,0.3 -0.24,0.6 -0.48,0.96 -1.32,2.58 -0.78,1.62 -1.86,3.48 -1.08,1.86 -2.34,3.78 -1.26,1.92 -2.58,3.48 -1.32,1.56 -2.7,2.52 -1.32,1.02 -2.58,1.02 -1.68,0 -2.76,-0.9 -1.02,-0.84 -1.62,-2.16 -0.6,-1.32 -0.84,-2.88 -0.24,-1.56 -0.24,-2.94 -0.66,0.96 -1.5,2.04 -0.84,1.02 -1.98,1.86 -1.08,0.84 -2.46,1.38 -1.32,0.54 -3,0.54 -2.04,0 -3.66,-0.84 -1.56,-0.9 -2.64,-2.34 -1.08,-1.44 -1.62,-3.36 -0.54,-1.92 -0.54,-4.02 0,-2.64 0.84,-5.28 0.84,-2.64 2.4,-4.74 1.56,-2.16 3.72,-3.48 2.22,-1.38 4.92,-1.38 z m -2.52,22.44 q 1.44,0 2.82,-1.26 1.38,-1.32 2.58,-3.06 1.2,-1.8 2.1,-3.66 0.96,-1.92 1.5,-3.06 v -0.12 q -0.18,-1.08 -0.6,-2.52 -0.42,-1.44 -1.08,-2.7 -0.66,-1.32 -1.68,-2.16 -0.96,-0.9 -2.34,-0.9 -1.56,0 -2.82,1.2 -1.2,1.2 -2.1,3.06 -0.84,1.86 -1.32,4.14 -0.48,2.28 -0.48,4.38 0,2.76 0.84,4.74 0.84,1.92 2.58,1.92 z" />
      <path
         id="path40"
         style="font-family:'Winter Twilight'"
         d="m 484.00656,93.82 q 0,-0.96 0.18,-2.76 0.12,-1.8 0.48,-3.9 0.36,-2.1 0.9,-4.26 0.54,-2.22 1.32,-3.96 0.78,-1.8 1.8,-2.94 1.08,-1.14 2.4,-1.14 0.78,0 1.14,0.54 0.36,0.54 0.36,1.2 -0.3,1.68 -0.84,4.62 -0.48,2.94 -1.08,6.12 0.54,-1.08 1.32,-2.52 0.78,-1.5 1.74,-3.06 1.02,-1.62 2.1,-3.18 1.14,-1.56 2.34,-2.76 1.26,-1.26 2.52,-1.98 1.26,-0.78 2.52,-0.78 1.32,0 2.16,0.6 0.84,0.54 1.32,1.44 0.48,0.9 0.66,1.98 0.18,1.08 0.18,2.16 0,3 -0.66,6 -0.6,2.94 -1.2,5.82 -0.12,0.66 -0.36,1.62 -0.18,0.96 -0.42,2.04 -0.18,1.02 -0.36,1.98 -0.12,0.96 -0.12,1.62 1.2,-0.6 2.64,-2.34 1.44,-1.8 2.76,-3.9 1.38,-2.1 2.52,-4.2 1.14,-2.1 1.74,-3.42 0.36,-0.84 1.32,-0.84 0.66,0.06 1.08,0.48 0.48,0.42 0.48,1.08 -0.06,0.12 -0.18,0.42 -0.12,0.3 -0.24,0.6 -0.84,1.74 -1.8,3.48 -0.9,1.74 -1.92,3.48 -0.6,1.02 -1.62,2.46 -1.02,1.44 -2.22,2.76 -1.2,1.26 -2.58,2.16 -1.38,0.96 -2.7,0.96 -1.26,0 -2.04,-0.6 -0.78,-0.54 -1.26,-1.38 -0.42,-0.9 -0.6,-1.98 -0.18,-1.08 -0.18,-2.1 0,-2.88 0.6,-5.7 0.6,-2.82 1.14,-5.58 0.36,-1.92 0.72,-3.96 0.42,-2.1 0.54,-4.02 -1.14,0.48 -2.52,2.04 -1.32,1.5 -2.7,3.66 -1.38,2.1 -2.76,4.62 -1.38,2.46 -2.58,4.92 -1.14,2.4 -2.1,4.5 -0.9,2.04 -1.38,3.3 -0.36,0.96 -1.2,0.96 -1.2,0 -1.86,-0.66 -0.66,-0.66 -0.96,-1.62 -0.36,-1.02 -0.42,-2.1 -0.12,-1.08 -0.12,-1.98 z" />
      <path
         id="path42"
         style="font-family:'Winter Twilight'"
         d="m 512.42313,91.48 q 0,-2.7 0.89999,-5.64 0.96001,-2.94 2.64,-5.34 1.74,-2.4 4.08001,-3.96 2.39999,-1.56 5.33999,-1.56 2.64001,0 4.14001,1.26 1.5,1.26 1.5,3.48 0,2.04 -1.26001,3.78 -1.26,1.74 -3.18,3.06 -1.86,1.26 -4.08,2.1 -2.16,0.78 -4.02,1.02 -0.12,0.78 -0.17999,1.56 -0.06,0.72 -0.06,1.44 0,0.84 0.12,1.86 0.12,1.02 0.48,1.92 0.36,0.9 1.02,1.56 0.66001,0.6 1.74,0.6 2.58001,0 4.74,-1.44 2.22001,-1.44 3.96001,-3.6 1.79999,-2.16 3.17999,-4.62 1.38,-2.46 2.28,-4.5 0.36,-0.84 1.32,-0.84 0.66,0.06 1.08001,0.48 0.41999,0.42 0.48,1.08 0,0.12 -0.18001,0.42 -0.12,0.3 -0.24,0.6 -1.19999,2.46 -2.76,5.16 -1.55999,2.7 -3.6,4.98 -2.04,2.28 -4.55999,3.78 -2.52,1.5 -5.70001,1.5 -2.28,0 -4.02,-0.78 -1.67999,-0.78 -2.88,-2.16 -1.13999,-1.38 -1.67999,-3.18 -0.6,-1.86 -0.6,-4.02 z m 15.6,-11.58 q 0,-0.9 -0.6,-1.38 -0.54001,-0.54 -1.5,-0.54 -1.32001,0 -2.4,0.96 -1.08001,0.9 -1.98,2.28 -0.84001,1.32 -1.44001,2.82 -0.53999,1.44 -0.9,2.46 1.20001,-0.24 2.70001,-0.84 1.5,-0.6 2.88,-1.5 1.38,-0.9 2.28,-1.98 0.96,-1.08 0.96,-2.28 z" />
      <path
         id="path44"
         style="font-family:'Winter Twilight'"
         d="m 546.46281,74.56 q 3.06,0 4.98,1.68 1.92,1.68 3,4.02 0.9,-2.4 2.1,-4.02 1.26,-1.68 2.94,-1.68 0.66,0 1.14,0.42 0.54,0.36 0.42,1.02 -0.18,0.96 -0.54,2.34 -0.3,1.38 -0.66,2.88 -0.3,1.5 -0.6,2.94 -0.3,1.38 -0.48,2.4 -0.48,2.7 -0.9,5.4 -0.36,2.7 -0.36,5.46 0,0.6 0.06,1.32 0.06,0.66 0.18,1.26 0.78,-0.36 1.74,-1.38 1.02,-1.08 2.04,-2.46 1.02,-1.44 2.04,-3.12 1.08,-1.68 1.98,-3.24 0.96,-1.62 1.68,-3 0.72,-1.44 1.14,-2.34 0.36,-0.84 1.32,-0.84 0.66,0.06 1.08,0.48 0.48,0.42 0.48,1.08 0,0.12 -0.18,0.42 -0.12,0.3 -0.24,0.6 -0.48,0.96 -1.32,2.58 -0.78,1.62 -1.86,3.48 -1.08,1.86 -2.34,3.78 -1.26,1.92 -2.58,3.48 -1.32,1.56 -2.7,2.52 -1.32,1.02 -2.58,1.02 -1.68,0 -2.76,-0.9 -1.02,-0.84 -1.62,-2.16 -0.6,-1.32 -0.84,-2.88 -0.24,-1.56 -0.24,-2.94 -0.66,0.96 -1.5,2.04 -0.84,1.02 -1.98,1.86 -1.08,0.84 -2.46,1.38 -1.32,0.54 -3,0.54 -2.04,0 -3.66,-0.84 -1.56,-0.9 -2.64,-2.34 -1.08,-1.44 -1.62,-3.36 -0.54,-1.92 -0.54,-4.02 0,-2.64 0.84,-5.28 0.84,-2.64 2.4,-4.74 1.56,-2.16 3.72,-3.48 2.22,-1.38 4.92,-1.38 z m -2.52,22.44 q 1.44,0 2.82,-1.26 1.38,-1.32 2.58,-3.06 1.2,-1.8 2.1,-3.66 0.96,-1.92 1.5,-3.06 v -0.12 q -0.18,-1.08 -0.6,-2.52 -0.42,-1.44 -1.08,-2.7 -0.66,-1.32 -1.68,-2.16 -0.96,-0.9 -2.34,-0.9 -1.56,0 -2.82,1.2 -1.2,1.2 -2.1,3.06 -0.84,1.86 -1.32,4.14 -0.48,2.28 -0.48,4.38 0,2.76 0.84,4.74 0.84,1.92 2.58,1.92 z" />
    </g>
  </g>
</svg>
