<?xml version="1.0" encoding="UTF-8" standalone="no"?>
<svg
   xmlns:dc="http://purl.org/dc/elements/1.1/"
   xmlns:cc="http://creativecommons.org/ns#"
   xmlns:rdf="http://www.w3.org/1999/02/22-rdf-syntax-ns#"
   xmlns:svg="http://www.w3.org/2000/svg"
   xmlns="http://www.w3.org/2000/svg"
   id="svg16"
   width="800px"
   version="1.1"
   height="200px">
  <metadata
     id="metadata20">
    <rdf:RDF>
      <cc:Work
         rdf:about="">
        <dc:format>image/svg+xml</dc:format>
        <dc:type
           rdf:resource="http://purl.org/dc/dcmitype/StillImage" />
      </cc:Work>
    </rdf:RDF>
  </metadata>
  <defs
     id="defs4">
    <style
       id="style2"
       type="text/css"><![CDATA[    
     @font-face {font-family:Work Sans Medium;
     src: url('/Users/francesco/Repos/write-logos/src/fonts/Fonts_E_TEMPORANEA/WorkSans-Medium.ttf');}
     @font-face {font-family:Dr Eye;
     src: url('/Users/francesco/Repos/write-logos/src/fonts/Fonts_X/DrEye.otf');}
     ]]></style>
  </defs>
  <g
     id="g14"
     style="font-size:60px">
    <g
       style="text-anchor:middle"
       id="text12"
       aria-label="EXTEMPORANEA">
      <path
         id="path22"
         style="font-family:'Work Sans Medium';letter-spacing:0.075em"
         d="M 135.25891,100 V 60.4 h 28.68 v 5.52 h -22.26 v 11.4 h 17.4 v 5.4 h -17.4 v 11.76 h 23.1 V 100 Z" />
      <path
         id="path24"
         style="font-family:'Dr Eye';letter-spacing:0.05em"
         d="m 171.00203,55.78 c 0.18,-0.24 2.1,-1.08 0,-1.2 -0.66,-0.06 -0.24,0.96 0,1.2 z m 0.9,8.94 c -0.12,0 -0.6,0.06 -0.72,0 -0.06,0.18 -0.42,0.12 -0.6,0.18 0.06,0.12 0,0.66 0,0.78 0.18,0 0.36,0.12 0.6,0.18 -0.42,0.12 0.84,-0.18 0.54,-0.18 0.42,0.24 0.18,-0.96 0.18,-0.96 z m 37.74,28.5 c 0.78,-3.9 -2.28,-3.06 -3.9,-4.08 -0.3,-0.12 -0.06,-0.36 -0.3,-0.6 -0.48,-0.84 -0.36,-2.28 -0.9,-3.18 -0.9,-1.5 -3.18,-1.2 -4.08,-2.4 -0.78,-1.02 -0.42,-3 -1.38,-3.78 l -0.18,-0.18 c -1.26,-1.02 -2.34,-0.42 -3,-2.1 0,-0.06 -0.42,-0.9 -0.36,-0.9 0.48,-0.36 0.36,-1.32 0.78,-1.68 0.78,-0.78 2.52,-0.66 3.18,-1.56 l 0.42,-0.36 c 0.42,-1.44 0,-2.16 0.72,-3.18 0.84,-1.26 3.24,-1.02 4.08,-2.46 0.36,-0.66 0.24,-1.98 0.54,-2.76 0.66,-1.8 5.46,-1.8 3.42,-5.1 l -0.18,-0.36 c -0.72,-0.6 -1.98,-0.48 -2.76,-0.96 -1.44,-0.9 -0.54,-3.48 -2.88,-4.14 -0.12,0 -0.36,0 -0.54,0 -2.1,0.12 -2.04,2.34 -3.24,3.42 -0.96,0.78 -1.86,0.48 -2.94,1.14 -1.56,1.02 -0.9,2.7 -1.68,4.32 l -0.6,0.54 c -1.44,0.78 -2.82,0.42 -3.96,1.5 -0.6,0.54 -0.42,2.16 -1.26,2.4 -1.02,0.3 -2.28,-0.12 -2.7,-0.54 -0.3,-0.42 -0.6,-1.74 -0.36,-2.58 0.3,-1.14 1.86,-0.48 2.28,-1.86 0.12,-0.48 0.18,-0.84 0.18,-1.2 0,-0.06 -0.06,-0.36 -0.18,-0.72 -0.06,-0.06 -0.3,-0.54 -0.36,-0.6 -0.84,-0.72 -2.34,-0.48 -3.42,-0.18 0,0.3 0.12,1.14 0,1.32 -0.3,0.54 -1.5,0.48 -2.4,0.54 -1.14,-1.68 -1.26,-2.7 1.14,-3.36 0.3,-1.14 0.54,-3.66 -1.14,-3.96 -2.58,-0.48 -2.28,2.28 -3.6,3.06 -1.08,0.6 -2.7,0.18 -3.9,0.9 -1.08,0.66 -0.78,5.16 0.18,5.64 0.78,0.42 1.56,0.12 2.22,0.6 1.32,0.78 1.38,2.4 1.14,4.32 -1.68,0.66 -2.04,0.72 -2.22,2.94 1.38,0.66 1.26,0.78 2.58,0 0.12,-0.06 0.78,-0.12 0.78,-0.18 0.18,-0.3 0,-1.08 0,-1.44 0.06,0 0.54,0 0.54,0 0.42,-0.12 0.48,-0.3 0.96,-0.24 2.28,0.18 2.46,2.04 1.86,3.96 -0.72,0.18 -1.56,0.3 -1.86,0.96 -0.36,0.66 -0.18,1.92 0,2.58 0.6,2.28 2.4,1.56 2.64,3 0.54,3.24 -2.58,3.36 -4.32,3.24 -0.42,1.32 -0.3,3.84 -1.14,4.86 -0.78,1.02 -3.42,0.84 -3.9,2.04 -0.6,1.62 -0.12,3.24 -1.38,4.14 -1.26,0.96 -1.86,-0.06 -2.58,1.86 -0.3,0.78 -0.48,1.44 0,2.22 0.06,0.12 0.42,0.54 0.54,0.6 0,0.06 0.18,0.18 0.18,0.18 0.84,0.6 2.04,0.3 3,0.72 1.08,0.54 0.72,3.06 1.92,3.6 0.42,0.24 1.5,0 1.5,0 0.36,-0.3 0.9,-0.36 1.08,-0.72 0.48,-0.9 0.18,-2.34 0.96,-2.88 0.66,-0.42 1.44,-0.12 2.46,-0.36 2.46,-0.54 1.86,-3.42 2.58,-5.76 1.38,0.06 3.9,0.24 4.38,-1.56 0.24,-1.08 -0.24,-2.1 -0.42,-2.76 -2.4,-0.6 -2.04,-1.32 -1.44,-3.42 1.02,-0.06 2.58,-0.12 2.94,0.9 0.06,0.36 -0.18,0.96 0,1.2 0.18,0.24 1.02,0.36 1.32,0.54 1.38,0.72 3.3,0.78 3.78,2.46 0.42,1.32 0.48,3.06 1.68,3.54 1.44,0.6 2.1,0 2.94,1.32 0.66,0.96 0.54,3.54 1.74,3.9 0.9,0.3 1.98,-0.06 2.76,0.18 2.46,0.66 1.98,3.24 4.74,3.24 0.84,-1.92 0.78,-3 -1.68,-3.42 -0.06,-0.3 0.12,-0.42 -0.18,-0.54 0,-1.86 0.12,-3.3 1.08,-4.08 0.84,-0.72 1.86,-0.42 2.1,-1.74 z m -31.92,-11.94 c -0.36,-0.6 -0.66,-0.54 -1.32,-0.84 -0.06,0.18 -0.6,0.3 -0.72,0.48 0.06,0.3 -0.12,0.72 0,1.08 0.36,1.08 3.96,1.56 2.04,-0.72 z m -6.54,4.8 c -0.78,0 -0.18,1.02 -0.18,1.02 0.3,-0.24 1.2,-0.96 0.18,-1.02 z m 41.82,11.46 c 0.6,-0.06 0.3,-1.14 -0.54,-1.08 -0.72,0.06 -0.24,1.14 0.54,1.08 z m -30.36,-6 c 0.9,0.36 1.62,2.52 -1.14,1.14 0,-0.36 0.18,-1.08 0.18,-1.14 0.3,0.12 0.6,-0.12 0.96,0 z" />
      <path
         id="path26"
         style="font-family:'Work Sans Medium';letter-spacing:0.075em"
         d="m 253.19547,60.4 v 5.52 h -13.56 V 100 h -6.42 V 65.92 h -13.56 V 60.4 Z" />
      <path
         id="path28"
         style="font-family:'Work Sans Medium';letter-spacing:0.075em"
         d="M 265.38391,100 V 60.4 h 28.68 v 5.52 h -22.26 v 11.4 h 17.4 v 5.4 h -17.4 v 11.76 h 23.1 V 100 Z" />
      <path
         id="path30"
         style="font-family:'Work Sans Medium';letter-spacing:0.075em"
         d="M 348.58703,60.4 V 100 h -5.88 V 77.08 l 0.42,-10.92 h -0.06 l -12.06,33.84 h -5.34 l -12.06,-33.84 h -0.06 l 0.48,10.92 V 100 h -5.94 V 60.4 h 9.54 l 7.98,22.92 2.76,9.42 h 0.12 l 2.82,-9.42 7.92,-22.92 z" />
      <path
         id="path32"
         style="font-family:'Work Sans Medium';letter-spacing:0.075em"
         d="m 380.09266,60.4 q 6.3,0 10.08,3.3 3.84,3.3 3.84,9.12 0,5.76 -3.84,9.12 -3.78,3.3 -10.08,3.3 h -8.82 V 100 h -6.42 V 60.4 Z m -1.02,19.32 q 4.26,0 6.24,-1.74 2.04,-1.74 2.04,-5.16 0,-3.42 -2.04,-5.16 -1.98,-1.8 -6.24,-1.8 h -7.8 v 13.86 z" />
      <path
         id="path34"
         style="font-family:'Work Sans Medium';letter-spacing:0.075em"
         d="m 423.40984,59.8 q 5.76,0 9.96,2.46 4.2,2.46 6.48,7.08 2.28,4.56 2.28,10.86 0,6.3 -2.28,10.92 -2.28,4.56 -6.48,7.02 -4.2,2.46 -9.96,2.46 -5.76,0 -9.96,-2.46 -4.14,-2.46 -6.42,-7.02 -2.28,-4.62 -2.28,-10.92 0,-6.3 2.28,-10.86 2.28,-4.62 6.42,-7.08 4.2,-2.46 9.96,-2.46 z m 0,5.58 q -5.58,0 -8.76,3.9 -3.18,3.84 -3.18,10.92 0,7.08 3.18,10.98 3.18,3.84 8.76,3.84 5.64,0 8.82,-3.84 3.18,-3.9 3.18,-10.98 0,-7.08 -3.18,-10.92 -3.18,-3.9 -8.82,-3.9 z" />
      <path
         id="path36"
         style="font-family:'Work Sans Medium';letter-spacing:0.075em"
         d="m 472.25828,60.4 q 6.36,0 10.08,3.18 3.78,3.18 3.78,8.58 0,4.32 -2.34,7.14 -2.28,2.76 -6.3,3.84 l 10.98,16.86 h -7.38 l -10.08,-15.84 h -8.52 V 100 h -6.36 V 60.4 Z m -0.48,18.42 q 7.68,0 7.68,-6.48 0,-6.48 -7.68,-6.48 h -9.3 v 12.96 z" />
      <path
         id="path38"
         style="font-family:'Work Sans Medium';letter-spacing:0.075em"
         d="m 496.25078,100 14.94,-39.6 h 7.68 l 14.94,39.6 h -6.78 l -3.72,-10.38 h -16.68 l -3.78,10.38 z m 16.92,-28.44 -4.68,12.84 h 12.9 l -4.56,-12.72 -1.8,-5.7 h -0.18 z" />
      <path
         id="path40"
         style="font-family:'Work Sans Medium';letter-spacing:0.075em"
         d="M 577.73453,60.4 V 100 h -7.62 l -15.3,-24.96 -3.84,-7.02 h -0.06 l 0.24,6.42 V 100 h -5.88 V 60.4 h 7.56 l 15.24,24.9 3.9,7.14 h 0.06 l -0.24,-6.48 V 60.4 Z" />
      <path
         id="path42"
         style="font-family:'Work Sans Medium';letter-spacing:0.075em"
         d="M 593.95422,100 V 60.4 h 28.68 v 5.52 h -22.26 v 11.4 h 17.4 v 5.4 h -17.4 v 11.76 h 23.1 V 100 Z" />
      <path
         id="path44"
         style="font-family:'Work Sans Medium';letter-spacing:0.075em"
         d="m 631.97734,100 14.94,-39.6 h 7.68 l 14.94,39.6 h -6.78 l -3.72,-10.38 h -16.68 l -3.78,10.38 z m 16.92,-28.44 -4.68,12.84 h 12.9 l -4.56,-12.72 -1.8,-5.7 h -0.18 z" />
    </g>
  </g>
</svg>
