<?xml version="1.0" encoding="UTF-8" standalone="no"?>
<svg
   xmlns:dc="http://purl.org/dc/elements/1.1/"
   xmlns:cc="http://creativecommons.org/ns#"
   xmlns:rdf="http://www.w3.org/1999/02/22-rdf-syntax-ns#"
   xmlns:svg="http://www.w3.org/2000/svg"
   xmlns="http://www.w3.org/2000/svg"
   id="svg16"
   width="800px"
   version="1.1"
   height="200px">
  <metadata
     id="metadata20">
    <rdf:RDF>
      <cc:Work
         rdf:about="">
        <dc:format>image/svg+xml</dc:format>
        <dc:type
           rdf:resource="http://purl.org/dc/dcmitype/StillImage" />
      </cc:Work>
    </rdf:RDF>
  </metadata>
  <defs
     id="defs4">
    <style
       id="style2"
       type="text/css"><![CDATA[    
     @font-face {font-family:Work Sans Medium;
     src: url('/Users/francesco/Repos/write-logos/src/fonts/Fonts_E_TEMPORANEA/WorkSans-Medium.ttf');}
     @font-face {font-family:Bungee Outline;
     src: url('/Users/francesco/Repos/write-logos/src/fonts/Fonts_X/BungeeOutline-Regular.ttf');}
     ]]></style>
  </defs>
  <g
     id="g14"
     style="font-size:60px">
    <g
       style="text-anchor:middle"
       id="text12"
       aria-label="EXTEMPORANEA">
      <path
         id="path22"
         style="font-family:'Work Sans Medium';letter-spacing:0.075em"
         d="M 134.55578,100 V 60.4 h 28.68 v 5.52 h -22.26 v 11.4 h 17.4 v 5.4 h -17.4 v 11.76 h 23.1 V 100 Z" />
      <path
         id="path24"
         style="font-family:'Bungee Outline';letter-spacing:0.05em"
         d="m 181.99891,91.9 v 2.7 h -0.6 v -2.7 q 0,-1.32 0.06,-2.46 0.12,-1.2 0.84,-2.16 l 7.2,-9.84 -7.2,-9.72 q -0.66,-0.96 -0.78,-2.1 -0.12,-1.2 -0.12,-2.52 v -0.9 h 0.6 v 0.9 q 0,1.26 0.12,2.4 0.12,1.14 0.72,1.98 l 7.2,9.72 h 7.14 l 6.96,-9.72 q 0.6,-0.84 0.72,-1.98 0.12,-1.14 0.12,-2.4 v -0.9 h 0.6 v 0.9 q 0,1.32 -0.12,2.52 -0.12,1.14 -0.78,2.1 l -7.08,9.84 7.08,9.72 q 0.66,0.96 0.78,2.16 0.12,1.14 0.12,2.46 v 2.7 h -0.6 v -2.7 q 0,-1.26 -0.12,-2.4 -0.12,-1.14 -0.72,-1.98 l -7.02,-9.72 h -7.2 l -7.08,9.72 q -0.6,0.78 -0.72,1.98 -0.12,1.14 -0.12,2.4 z m 6.42,5.94 V 91.9 q 0,-0.6 0.06,-1.26 0.06,-0.66 0.48,-1.26 l 2.7,-3.78 q 0.36,-0.54 0.66,-0.78 0.3,-0.24 0.78,-0.24 h 0.84 q 0.48,0 0.78,0.24 0.3,0.24 0.66,0.78 l 2.64,3.78 q 0.42,0.6 0.48,1.26 0.06,0.66 0.06,1.26 v 5.94 q 0,1.14 0.48,1.68 0.54,0.48 1.68,0.48 h 9.12 q 1.14,0 1.62,-0.48 0.54,-0.54 0.54,-1.68 v -6.42 q 0,-2.76 -0.48,-4.14 -0.42,-1.38 -1.8,-3.24 l -4.86,-6.48 4.86,-6.6 q 1.32,-1.86 1.8,-3.24 0.48,-1.38 0.48,-4.14 v -4.62 q 0,-1.14 -0.54,-1.62 -0.48,-0.54 -1.62,-0.54 h -9.12 q -1.14,0 -1.68,0.54 -0.48,0.48 -0.48,1.62 v 4.14 q 0,0.6 -0.06,1.26 -0.06,0.66 -0.48,1.26 l -2.7,3.78 q -0.36,0.48 -0.66,0.78 -0.3,0.24 -0.78,0.24 h -0.72 q -0.48,0 -0.84,-0.24 -0.3,-0.3 -0.6,-0.78 l -2.64,-3.78 q -0.42,-0.6 -0.48,-1.26 -0.06,-0.66 -0.06,-1.26 v -4.14 q 0,-1.14 -0.54,-1.62 -0.48,-0.54 -1.62,-0.54 h -9.24 q -1.14,0 -1.68,0.54 -0.48,0.48 -0.48,1.62 v 4.62 q 0,2.76 0.42,4.14 0.48,1.38 1.86,3.24 l 4.86,6.54 -4.86,6.54 q -1.32,1.86 -1.8,3.24 -0.48,1.38 -0.48,4.14 v 6.42 q 0,1.14 0.48,1.68 0.54,0.48 1.68,0.48 h 9.12 q 1.14,0 1.62,-0.48 0.54,-0.54 0.54,-1.68 z m -2.16,2.76 h -9.12 q -1.44,0 -2.1,-0.66 -0.66,-0.66 -0.66,-2.1 v -6.42 q 0,-2.94 0.48,-4.38 0.48,-1.44 1.92,-3.36 l 4.62,-6.18 -4.62,-6.18 q -1.44,-1.92 -1.92,-3.36 -0.48,-1.44 -0.48,-4.38 v -4.62 q 0,-1.44 0.66,-2.1 0.66,-0.66 2.1,-0.66 h 9.24 q 1.44,0 2.1,0.66 0.66,0.66 0.66,2.1 v 4.14 q 0,0.54 0,1.14 0.06,0.54 0.42,1.02 l 2.64,3.84 q 0.24,0.3 0.42,0.54 0.18,0.18 0.54,0.18 h 0.72 q 0.36,0 0.54,-0.24 0.18,-0.24 0.42,-0.54 l 2.7,-3.78 q 0.36,-0.48 0.36,-1.02 0.06,-0.6 0.06,-1.14 v -4.14 q 0,-1.44 0.66,-2.1 0.66,-0.66 2.1,-0.66 h 9.12 q 1.44,0 2.1,0.66 0.66,0.66 0.66,2.1 v 4.62 q 0,2.94 -0.48,4.38 -0.48,1.44 -1.92,3.36 l -4.62,6.24 4.62,6.12 q 1.44,1.92 1.92,3.36 0.48,1.44 0.48,4.38 v 6.42 q 0,1.44 -0.66,2.1 -0.66,0.66 -2.1,0.66 h -9.12 q -1.44,0 -2.1,-0.66 -0.66,-0.66 -0.66,-2.1 V 91.9 q 0,-0.54 -0.06,-1.08 0,-0.54 -0.36,-1.08 l -2.64,-3.78 q -0.24,-0.36 -0.42,-0.54 -0.18,-0.24 -0.54,-0.24 h -0.84 q -0.36,0 -0.54,0.24 -0.18,0.18 -0.42,0.54 l -2.7,3.78 q -0.36,0.54 -0.42,1.08 0,0.54 0,1.08 v 5.94 q 0,1.44 -0.66,2.1 -0.66,0.66 -2.1,0.66 z" />
      <path
         id="path26"
         style="font-family:'Work Sans Medium';letter-spacing:0.075em"
         d="m 253.89859,60.4 v 5.52 h -13.56 V 100 h -6.42 V 65.92 h -13.56 V 60.4 Z" />
      <path
         id="path28"
         style="font-family:'Work Sans Medium';letter-spacing:0.075em"
         d="M 266.08703,100 V 60.4 h 28.68 v 5.52 h -22.26 v 11.4 h 17.4 v 5.4 h -17.4 v 11.76 h 23.1 V 100 Z" />
      <path
         id="path30"
         style="font-family:'Work Sans Medium';letter-spacing:0.075em"
         d="M 349.29016,60.4 V 100 h -5.88 V 77.08 l 0.42,-10.92 h -0.06 l -12.06,33.84 h -5.34 l -12.06,-33.84 h -0.06 l 0.48,10.92 V 100 h -5.94 V 60.4 h 9.54 l 7.98,22.92 2.76,9.42 h 0.12 l 2.82,-9.42 7.92,-22.92 z" />
      <path
         id="path32"
         style="font-family:'Work Sans Medium';letter-spacing:0.075em"
         d="m 380.79578,60.4 q 6.3,0 10.08,3.3 3.84,3.3 3.84,9.12 0,5.76 -3.84,9.12 -3.78,3.3 -10.08,3.3 h -8.82 V 100 h -6.42 V 60.4 Z m -1.02,19.32 q 4.26,0 6.24,-1.74 2.04,-1.74 2.04,-5.16 0,-3.42 -2.04,-5.16 -1.98,-1.8 -6.24,-1.8 h -7.8 v 13.86 z" />
      <path
         id="path34"
         style="font-family:'Work Sans Medium';letter-spacing:0.075em"
         d="m 424.11297,59.8 q 5.76,0 9.96,2.46 4.2,2.46 6.48,7.08 2.28,4.56 2.28,10.86 0,6.3 -2.28,10.92 -2.28,4.56 -6.48,7.02 -4.2,2.46 -9.96,2.46 -5.76,0 -9.96,-2.46 -4.14,-2.46 -6.42,-7.02 -2.28,-4.62 -2.28,-10.92 0,-6.3 2.28,-10.86 2.28,-4.62 6.42,-7.08 4.2,-2.46 9.96,-2.46 z m 0,5.58 q -5.58,0 -8.76,3.9 -3.18,3.84 -3.18,10.92 0,7.08 3.18,10.98 3.18,3.84 8.76,3.84 5.64,0 8.82,-3.84 3.18,-3.9 3.18,-10.98 0,-7.08 -3.18,-10.92 -3.18,-3.9 -8.82,-3.9 z" />
      <path
         id="path36"
         style="font-family:'Work Sans Medium';letter-spacing:0.075em"
         d="m 472.96141,60.4 q 6.36,0 10.08,3.18 3.78,3.18 3.78,8.58 0,4.32 -2.34,7.14 -2.28,2.76 -6.3,3.84 l 10.98,16.86 h -7.38 l -10.08,-15.84 h -8.52 V 100 h -6.36 V 60.4 Z m -0.48,18.42 q 7.68,0 7.68,-6.48 0,-6.48 -7.68,-6.48 h -9.3 v 12.96 z" />
      <path
         id="path38"
         style="font-family:'Work Sans Medium';letter-spacing:0.075em"
         d="m 496.95391,100 14.94,-39.6 h 7.68 l 14.94,39.6 h -6.78 l -3.72,-10.38 h -16.68 l -3.78,10.38 z m 16.92,-28.44 -4.68,12.84 h 12.9 l -4.56,-12.72 -1.8,-5.7 h -0.18 z" />
      <path
         id="path40"
         style="font-family:'Work Sans Medium';letter-spacing:0.075em"
         d="M 578.43766,60.4 V 100 h -7.62 l -15.3,-24.96 -3.84,-7.02 h -0.06 l 0.24,6.42 V 100 h -5.88 V 60.4 h 7.56 l 15.24,24.9 3.9,7.14 h 0.06 l -0.24,-6.48 V 60.4 Z" />
      <path
         id="path42"
         style="font-family:'Work Sans Medium';letter-spacing:0.075em"
         d="M 594.65734,100 V 60.4 h 28.68 v 5.52 h -22.26 v 11.4 h 17.4 v 5.4 h -17.4 v 11.76 h 23.1 V 100 Z" />
      <path
         id="path44"
         style="font-family:'Work Sans Medium';letter-spacing:0.075em"
         d="m 632.68047,100 14.94,-39.6 h 7.68 l 14.94,39.6 h -6.78 l -3.72,-10.38 h -16.68 l -3.78,10.38 z m 16.92,-28.44 -4.68,12.84 h 12.9 l -4.56,-12.72 -1.8,-5.7 h -0.18 z" />
    </g>
  </g>
</svg>
