<?xml version="1.0" encoding="UTF-8" standalone="no"?>
<svg
   xmlns:dc="http://purl.org/dc/elements/1.1/"
   xmlns:cc="http://creativecommons.org/ns#"
   xmlns:rdf="http://www.w3.org/1999/02/22-rdf-syntax-ns#"
   xmlns:svg="http://www.w3.org/2000/svg"
   xmlns="http://www.w3.org/2000/svg"
   id="svg16"
   width="800px"
   version="1.1"
   height="200px">
  <metadata
     id="metadata20">
    <rdf:RDF>
      <cc:Work
         rdf:about="">
        <dc:format>image/svg+xml</dc:format>
        <dc:type
           rdf:resource="http://purl.org/dc/dcmitype/StillImage" />
      </cc:Work>
    </rdf:RDF>
  </metadata>
  <defs
     id="defs4">
    <style
       id="style2"
       type="text/css"><![CDATA[    
     @font-face {font-family:Work Sans Medium;
     src: url('/Users/francesco/Repos/write-logos/src/fonts/Fonts_E_TEMPORANEA/WorkSans-Medium.ttf');}
     @font-face {font-family:FrankfurterEF;
     src: url('/Users/francesco/Repos/write-logos/src/fonts/Fonts_X/FrankfurterEF-Highlight.ttf');}
     ]]></style>
  </defs>
  <g
     id="g14"
     style="font-size:60px">
    <g
       style="text-anchor:middle"
       id="text12"
       aria-label="EXTEMPORANEA">
      <path
         id="path22"
         style="font-family:'Work Sans Medium';letter-spacing:0.075em"
         d="M 139.00891,100 V 60.4 h 28.68 v 5.52 h -22.26 v 11.4 h 17.4 v 5.4 h -17.4 v 11.76 h 23.1 V 100 Z" />
      <path
         id="path24"
         style="font-family:FrankfurterEF;letter-spacing:0.05em"
         d="m 210.87203,93.7 q 0,-1.2 -0.42,-2.28 -0.36,-1.08 -1.02,-2.04 l -7.5,-10.02 6.12,-8.1 q 0.84,-1.08 1.44,-2.34 0.66,-1.32 0.66,-2.7 0,-1.32 -0.54,-2.52 -0.54,-1.2 -1.5,-2.04 -0.9,-0.9 -2.16,-1.38 -1.2,-0.54 -2.52,-0.54 -2.04,0 -3.36,1.02 -1.26,1.02 -2.46,2.52 l -4.02,5.04 -4.26,-5.64 q -1.02,-1.38 -2.4,-2.16 -1.38,-0.78 -3.18,-0.78 -1.38,0 -2.58,0.54 -1.2,0.48 -2.16,1.38 -0.9,0.9 -1.44,2.1 -0.54,1.2 -0.54,2.58 0,1.62 0.84,3.06 0.84,1.38 1.8,2.58 l 5.58,7.38 -7.5,9.9 q -0.72,0.96 -1.14,2.16 -0.42,1.14 -0.42,2.34 0,1.38 0.54,2.58 0.54,1.2 1.44,2.1 0.9,0.84 2.1,1.38 1.2,0.48 2.58,0.48 1.8,0 3,-0.72 1.26,-0.78 2.34,-2.16 l 5.4,-7.02 5.4,7.08 q 1.02,1.32 2.4,2.1 1.38,0.72 3.06,0.72 1.32,0 2.52,-0.54 1.2,-0.54 2.04,-1.44 0.84,-0.9 1.32,-2.1 0.54,-1.2 0.54,-2.52 z m -8.46,-29.4 q 0,0.48 -0.36,0.84 -0.36,0.36 -0.84,0.36 -0.48,0 -0.84,-0.36 -0.3,-0.36 -0.3,-0.84 0,-1.14 1.14,-1.14 0.48,0 0.84,0.36 0.36,0.3 0.36,0.78 z m -2.22,2.28 q 0,0.3 -0.12,0.54 -0.12,0.18 -0.24,0.42 l -3,3.9 q -0.18,0.24 -0.42,0.42 -0.24,0.18 -0.54,0.18 -0.48,0 -0.72,-0.3 -0.24,-0.3 -0.24,-0.72 0,-0.3 0.12,-0.54 0.18,-0.3 0.36,-0.54 l 2.76,-3.6 q 0.42,-0.66 1.08,-0.66 0.36,0 0.66,0.24 0.3,0.24 0.3,0.66 z m -17.4,-2.58 q 0,1.14 -1.14,1.14 -0.48,0 -0.84,-0.3 -0.36,-0.36 -0.36,-0.84 0,-0.48 0.36,-0.84 0.36,-0.36 0.84,-0.36 0.48,0 0.78,0.36 0.36,0.36 0.36,0.84 z m 22.68,32.94 q 0,0.66 -0.48,0.9 -0.42,0.24 -0.96,0.24 -1.38,0 -2.16,-0.66 -0.72,-0.72 -1.44,-1.74 l -5.1,-6.84 q -0.18,-0.24 -0.36,-0.48 -0.12,-0.3 -0.12,-0.6 0,-0.96 0.9,-0.96 0.42,0 0.66,0.3 0.3,0.24 0.54,0.54 l 5.34,7.2 q 0.54,0.72 1.08,0.9 0.54,0.18 1.02,0.3 0.48,0.06 0.78,0.18 0.3,0.12 0.3,0.72 z m -15.72,-17.46 q 0,1.02 -0.6,1.86 -0.54,0.84 -1.14,1.62 l -6.78,8.76 q -0.3,0.36 -0.48,0.84 -0.18,0.42 -0.18,0.9 0,0.96 0.42,1.38 0.48,0.42 1.02,0.66 0.54,0.24 0.96,0.48 0.48,0.18 0.48,0.72 0,0.48 -0.42,0.78 -0.36,0.3 -0.84,0.3 -0.72,0 -1.44,-0.36 -0.66,-0.42 -1.14,-0.96 -0.48,-0.6 -0.78,-1.32 -0.3,-0.72 -0.3,-1.44 0,-1.02 0.36,-1.92 0.42,-0.96 1.08,-1.8 l 6.9,-8.82 q 0.3,-0.36 0.54,-0.78 0.24,-0.48 0.24,-0.96 0,-0.66 -0.36,-1.26 -0.36,-0.6 -0.72,-1.08 l -6.3,-8.46 q -0.24,-0.3 -0.48,-0.72 -0.18,-0.48 -0.18,-0.9 0,-0.48 0.24,-0.78 0.3,-0.3 0.78,-0.3 0.72,0 0.96,0.66 0.12,0.24 0.24,0.48 0.12,0.18 0.24,0.42 l 5.76,7.8 q 0.66,0.96 1.26,1.98 0.66,1.02 0.66,2.22 z" />
      <path
         id="path26"
         style="font-family:'Work Sans Medium';letter-spacing:0.075em"
         d="m 249.44547,60.4 v 5.52 h -13.56 V 100 h -6.42 V 65.92 h -13.56 V 60.4 Z" />
      <path
         id="path28"
         style="font-family:'Work Sans Medium';letter-spacing:0.075em"
         d="M 261.63391,100 V 60.4 h 28.68 v 5.52 h -22.26 v 11.4 h 17.4 v 5.4 h -17.4 v 11.76 h 23.1 V 100 Z" />
      <path
         id="path30"
         style="font-family:'Work Sans Medium';letter-spacing:0.075em"
         d="M 344.83703,60.4 V 100 h -5.88 V 77.08 l 0.42,-10.92 h -0.06 l -12.06,33.84 h -5.34 l -12.06,-33.84 h -0.06 l 0.48,10.92 V 100 h -5.94 V 60.4 h 9.54 l 7.98,22.92 2.76,9.42 h 0.12 l 2.82,-9.42 7.92,-22.92 z" />
      <path
         id="path32"
         style="font-family:'Work Sans Medium';letter-spacing:0.075em"
         d="m 376.34266,60.4 q 6.3,0 10.08,3.3 3.84,3.3 3.84,9.12 0,5.76 -3.84,9.12 -3.78,3.3 -10.08,3.3 h -8.82 V 100 h -6.42 V 60.4 Z m -1.02,19.32 q 4.26,0 6.24,-1.74 2.04,-1.74 2.04,-5.16 0,-3.42 -2.04,-5.16 -1.98,-1.8 -6.24,-1.8 h -7.8 v 13.86 z" />
      <path
         id="path34"
         style="font-family:'Work Sans Medium';letter-spacing:0.075em"
         d="m 419.65984,59.8 q 5.76,0 9.96,2.46 4.2,2.46 6.48,7.08 2.28,4.56 2.28,10.86 0,6.3 -2.28,10.92 -2.28,4.56 -6.48,7.02 -4.2,2.46 -9.96,2.46 -5.76,0 -9.96,-2.46 -4.14,-2.46 -6.42,-7.02 -2.28,-4.62 -2.28,-10.92 0,-6.3 2.28,-10.86 2.28,-4.62 6.42,-7.08 4.2,-2.46 9.96,-2.46 z m 0,5.58 q -5.58,0 -8.76,3.9 -3.18,3.84 -3.18,10.92 0,7.08 3.18,10.98 3.18,3.84 8.76,3.84 5.64,0 8.82,-3.84 3.18,-3.9 3.18,-10.98 0,-7.08 -3.18,-10.92 -3.18,-3.9 -8.82,-3.9 z" />
      <path
         id="path36"
         style="font-family:'Work Sans Medium';letter-spacing:0.075em"
         d="m 468.50828,60.4 q 6.36,0 10.08,3.18 3.78,3.18 3.78,8.58 0,4.32 -2.34,7.14 -2.28,2.76 -6.3,3.84 l 10.98,16.86 h -7.38 l -10.08,-15.84 h -8.52 V 100 h -6.36 V 60.4 Z m -0.48,18.42 q 7.68,0 7.68,-6.48 0,-6.48 -7.68,-6.48 h -9.3 v 12.96 z" />
      <path
         id="path38"
         style="font-family:'Work Sans Medium';letter-spacing:0.075em"
         d="m 492.50078,100 14.94,-39.6 h 7.68 l 14.94,39.6 h -6.78 l -3.72,-10.38 h -16.68 l -3.78,10.38 z m 16.92,-28.44 -4.68,12.84 h 12.9 l -4.56,-12.72 -1.8,-5.7 h -0.18 z" />
      <path
         id="path40"
         style="font-family:'Work Sans Medium';letter-spacing:0.075em"
         d="M 573.98453,60.4 V 100 h -7.62 l -15.3,-24.96 -3.84,-7.02 h -0.06 l 0.24,6.42 V 100 h -5.88 V 60.4 h 7.56 l 15.24,24.9 3.9,7.14 h 0.06 l -0.24,-6.48 V 60.4 Z" />
      <path
         id="path42"
         style="font-family:'Work Sans Medium';letter-spacing:0.075em"
         d="M 590.20422,100 V 60.4 h 28.68 v 5.52 h -22.26 v 11.4 h 17.4 v 5.4 h -17.4 v 11.76 h 23.1 V 100 Z" />
      <path
         id="path44"
         style="font-family:'Work Sans Medium';letter-spacing:0.075em"
         d="m 628.22734,100 14.94,-39.6 h 7.68 l 14.94,39.6 h -6.78 l -3.72,-10.38 h -16.68 l -3.78,10.38 z m 16.92,-28.44 -4.68,12.84 h 12.9 l -4.56,-12.72 -1.8,-5.7 h -0.18 z" />
    </g>
  </g>
</svg>
