<?xml version="1.0" encoding="UTF-8" standalone="no"?>
<svg
   xmlns:dc="http://purl.org/dc/elements/1.1/"
   xmlns:cc="http://creativecommons.org/ns#"
   xmlns:rdf="http://www.w3.org/1999/02/22-rdf-syntax-ns#"
   xmlns:svg="http://www.w3.org/2000/svg"
   xmlns="http://www.w3.org/2000/svg"
   id="svg16"
   width="800px"
   version="1.1"
   height="200px">
  <metadata
     id="metadata20">
    <rdf:RDF>
      <cc:Work
         rdf:about="">
        <dc:format>image/svg+xml</dc:format>
        <dc:type
           rdf:resource="http://purl.org/dc/dcmitype/StillImage" />
      </cc:Work>
    </rdf:RDF>
  </metadata>
  <defs
     id="defs4">
    <style
       id="style2"
       type="text/css"><![CDATA[    
     @font-face {font-family:Work Sans Medium;
     src: url('/Users/francesco/Repos/write-logos/src/fonts/Fonts_E_TEMPORANEA/WorkSans-Medium.ttf');}
     @font-face {font-family:lift me up;
     src: url('/Users/francesco/Repos/write-logos/src/fonts/Fonts_X/liftmeup.ttf');}
     ]]></style>
  </defs>
  <g
     id="g14"
     style="font-size:60px">
    <g
       style="text-anchor:middle"
       id="text12"
       aria-label="EXTEMPORANEA">
      <path
         id="path22"
         style="font-family:'Work Sans Medium';letter-spacing:0.075em"
         d="M 129.28234,100 V 60.4 h 28.68 v 5.52 h -22.26 v 11.4 h 17.4 v 5.4 h -17.4 v 11.76 h 23.1 V 100 Z" />
      <path
         id="path24"
         style="font-family:'lift me up';letter-spacing:0.05em"
         d="m 175.70547,53.26 12.6,16.98 -0.84,1.14 -13.5,-18.12 z m 16.02,21.6 3,-4.08 0.84,1.14 -3,3.96 3,4.08 -0.84,1.14 -3,-4.14 -2.64,3.54 -0.78,-1.08 2.58,-3.54 -2.58,-3.42 0.84,-1.08 z m 16.86,25.08 -13.02,-17.76 0.84,-1.08 13.86,18.84 z m -35.58,0 14.46,-19.38 0.78,1.02 -13.62,18.36 z m 36.48,-46.68 -13.08,17.52 -0.84,-1.08 12.24,-16.44 z m 6.84,46.68 -16.92,-22.98 -3,4.14 -0.84,-1.14 3,-4.08 -3,-3.96 0.84,-1.14 3,4.08 16.14,-21.6 h 1.62 l -16.86,22.62 17.64,24.06 z m -24.18,-15.3 2.58,-3.54 0.84,1.08 -2.64,3.54 z m 2.58,-13.86 -2.58,-3.48 0.84,-1.14 2.58,3.54 z m -11.28,-17.52 8.7,11.76 -0.84,1.14 -9.6,-12.9 z m -2.7,46.68 10.56,-14.22 0.78,1.14 -9.72,13.08 z m 8.34,-19.44 3.06,4.14 -0.84,1.08 -3.06,-4.14 z m 3.06,-13.2 -3,4.08 -0.84,-1.14 3,-4.08 z m -6.42,8.58 2.58,3.54 -0.84,1.14 -2.64,-3.6 -17.04,22.98 h -1.62 l 17.82,-24.06 -16.92,-22.62 h 1.74 l 16.02,21.6 2.64,-3.48 0.84,1.08 z m 16.02,24.06 -9.66,-13.08 0.84,-1.14 10.44,14.22 z m 0.84,-46.68 -9.6,12.9 -0.84,-1.14 8.82,-11.76 z" />
      <path
         id="path26"
         style="font-family:'Work Sans Medium';letter-spacing:0.075em"
         d="m 259.17203,60.4 v 5.52 h -13.56 V 100 h -6.42 V 65.92 h -13.56 V 60.4 Z" />
      <path
         id="path28"
         style="font-family:'Work Sans Medium';letter-spacing:0.075em"
         d="M 271.36047,100 V 60.4 h 28.68 v 5.52 h -22.26 v 11.4 h 17.4 v 5.4 h -17.4 v 11.76 h 23.1 V 100 Z" />
      <path
         id="path30"
         style="font-family:'Work Sans Medium';letter-spacing:0.075em"
         d="M 354.56359,60.4 V 100 h -5.88 V 77.08 l 0.42,-10.92 h -0.06 l -12.06,33.84 h -5.34 l -12.06,-33.84 h -0.06 l 0.48,10.92 V 100 h -5.94 V 60.4 h 9.54 l 7.98,22.92 2.76,9.42 h 0.12 l 2.82,-9.42 7.92,-22.92 z" />
      <path
         id="path32"
         style="font-family:'Work Sans Medium';letter-spacing:0.075em"
         d="m 386.06922,60.4 q 6.3,0 10.08,3.3 3.84,3.3 3.84,9.12 0,5.76 -3.84,9.12 -3.78,3.3 -10.08,3.3 h -8.82 V 100 h -6.42 V 60.4 Z m -1.02,19.32 q 4.26,0 6.24,-1.74 2.04,-1.74 2.04,-5.16 0,-3.42 -2.04,-5.16 -1.98,-1.8 -6.24,-1.8 h -7.8 v 13.86 z" />
      <path
         id="path34"
         style="font-family:'Work Sans Medium';letter-spacing:0.075em"
         d="m 429.38641,59.8 q 5.76,0 9.96,2.46 4.2,2.46 6.48,7.08 2.28,4.56 2.28,10.86 0,6.3 -2.28,10.92 -2.28,4.56 -6.48,7.02 -4.2,2.46 -9.96,2.46 -5.76,0 -9.96,-2.46 -4.14,-2.46 -6.42,-7.02 -2.28,-4.62 -2.28,-10.92 0,-6.3 2.28,-10.86 2.28,-4.62 6.42,-7.08 4.2,-2.46 9.96,-2.46 z m 0,5.58 q -5.58,0 -8.76,3.9 -3.18,3.84 -3.18,10.92 0,7.08 3.18,10.98 3.18,3.84 8.76,3.84 5.64,0 8.82,-3.84 3.18,-3.9 3.18,-10.98 0,-7.08 -3.18,-10.92 -3.18,-3.9 -8.82,-3.9 z" />
      <path
         id="path36"
         style="font-family:'Work Sans Medium';letter-spacing:0.075em"
         d="m 478.23484,60.4 q 6.36,0 10.08,3.18 3.78,3.18 3.78,8.58 0,4.32 -2.34,7.14 -2.28,2.76 -6.3,3.84 l 10.98,16.86 h -7.38 l -10.08,-15.84 h -8.52 V 100 h -6.36 V 60.4 Z m -0.48,18.42 q 7.68,0 7.68,-6.48 0,-6.48 -7.68,-6.48 h -9.3 v 12.96 z" />
      <path
         id="path38"
         style="font-family:'Work Sans Medium';letter-spacing:0.075em"
         d="m 502.22734,100 14.94,-39.6 h 7.68 l 14.94,39.6 h -6.78 l -3.72,-10.38 h -16.68 l -3.78,10.38 z m 16.92,-28.44 -4.68,12.84 h 12.9 l -4.56,-12.72 -1.8,-5.7 h -0.18 z" />
      <path
         id="path40"
         style="font-family:'Work Sans Medium';letter-spacing:0.075em"
         d="M 583.71109,60.4 V 100 h -7.62 l -15.3,-24.96 -3.84,-7.02 h -0.06 l 0.24,6.42 V 100 h -5.88 V 60.4 h 7.56 l 15.24,24.9 3.9,7.14 h 0.06 l -0.24,-6.48 V 60.4 Z" />
      <path
         id="path42"
         style="font-family:'Work Sans Medium';letter-spacing:0.075em"
         d="M 599.93078,100 V 60.4 h 28.68 v 5.52 h -22.26 v 11.4 h 17.4 v 5.4 h -17.4 v 11.76 h 23.1 V 100 Z" />
      <path
         id="path44"
         style="font-family:'Work Sans Medium';letter-spacing:0.075em"
         d="m 637.95391,100 14.94,-39.6 h 7.68 l 14.94,39.6 h -6.78 l -3.72,-10.38 h -16.68 l -3.78,10.38 z m 16.92,-28.44 -4.68,12.84 h 12.9 l -4.56,-12.72 -1.8,-5.7 h -0.18 z" />
    </g>
  </g>
</svg>
