<?xml version="1.0" encoding="UTF-8" standalone="no"?>
<svg
   xmlns:dc="http://purl.org/dc/elements/1.1/"
   xmlns:cc="http://creativecommons.org/ns#"
   xmlns:rdf="http://www.w3.org/1999/02/22-rdf-syntax-ns#"
   xmlns:svg="http://www.w3.org/2000/svg"
   xmlns="http://www.w3.org/2000/svg"
   id="svg16"
   width="800px"
   version="1.1"
   height="200px">
  <metadata
     id="metadata20">
    <rdf:RDF>
      <cc:Work
         rdf:about="">
        <dc:format>image/svg+xml</dc:format>
        <dc:type
           rdf:resource="http://purl.org/dc/dcmitype/StillImage" />
      </cc:Work>
    </rdf:RDF>
  </metadata>
  <defs
     id="defs4">
    <style
       id="style2"
       type="text/css"><![CDATA[    
     @font-face {font-family:Wotfard Bold;
     src: url('/Users/francesco/Repos/write-logos/src/fonts/Fonts_E_TEMPORANEA/Wotfard-Bold.otf');}
     @font-face {font-family:Zian;
     src: url('/Users/francesco/Repos/write-logos/src/fonts/Fonts_X/Zianfreepromo.ttf');}
     ]]></style>
  </defs>
  <g
     id="g14"
     style="font-size:60px">
    <g
       style="text-anchor:middle"
       id="text12"
       aria-label="EXTEMPORANEA">
      <path
         id="path22"
         style="font-family:'Wotfard Bold';letter-spacing:0.075em"
         d="m 127.4125,100 h 29.28 v -9.6 h -19.08 v -6.78 h 17.22 v -9.3 h -17.22 V 67.3 h 19.08 V 58 h -29.28 z" />
      <path
         id="path24"
         style="font-family:Zian;letter-spacing:0.05em"
         d="m 167.77539,57.988281 h 0.82031 q 2.08008,0 4.59961,2.8125 10.95703,10.839844 11.13281,10.869141 12.77344,-12.832031 13.35938,-13.007813 1.23047,-0.673828 2.19727,-0.673828 h 0.82031 q 2.7832,0 4.42383,3.222656 0.35156,0.84961 0.35156,1.494141 v 0.996094 q 0,2.255859 -3.92578,5.566406 l -9.78516,9.755859 q 0,0.08789 12.45117,12.363282 1.25977,1.49414 1.25977,3.046875 v 0.761718 q 0,3.222657 -3.83789,4.716797 Q 201.17383,100 200.88086,100 h -1.17188 q -2.13867,0 -5.27343,-3.632813 L 184.24023,86.40625 Q 173.51758,96.923828 171.11523,99.179687 169.79687,100 168.77148,100 h -1.17187 q -2.60742,0 -4.27734,-3.222656 Q 163,95.927734 163,95.283203 v -0.761719 q 0,-2.548828 3.51562,-5.302734 l 10.19532,-10.195313 v -0.05859 Q 163.84961,66.308594 163.84961,66.103516 163,64.726562 163,63.613281 v -0.732422 q 0,-2.90039 3.25195,-4.570312 0.84961,-0.322266 1.52344,-0.322266 z" />
      <path
         id="path26"
         style="font-family:'Wotfard Bold';letter-spacing:0.075em"
         d="m 225.80875,100 10.74,0.06 V 67.78 l 13.2,-0.06 V 58 h -37.08 v 9.72 h 13.14 z" />
      <path
         id="path28"
         style="font-family:'Wotfard Bold';letter-spacing:0.075em"
         d="m 259.06094,100 h 29.28 v -9.6 h -19.08 v -6.78 h 17.22 v -9.3 h -17.22 V 67.3 h 19.08 V 58 h -29.28 z" />
      <path
         id="path30"
         style="font-family:'Wotfard Bold';letter-spacing:0.075em"
         d="m 298.24844,100 h 10.26 V 74.2 l 12.78,19.8 h 0.6 l 12.9,-19.8 V 100 h 10.26 V 58 h -11.28 l -12.12,18.66 -12,-18.66 h -11.4 z" />
      <path
         id="path32"
         style="font-family:'Wotfard Bold';letter-spacing:0.075em"
         d="m 356.77188,100 h 10.5 V 86.92 h 7.07999 c 9.06,0 14.94,-6.12 14.94,-14.52 0,-8.34 -5.88,-14.4 -14.94,-14.4 h -17.57999 z m 10.5,-22.08 V 67 h 4.91999 c 3.36,0 5.82001,1.56 5.82001,5.4 0,3.84 -2.46001,5.52 -5.82001,5.52 z" />
      <path
         id="path34"
         style="font-family:'Wotfard Bold';letter-spacing:0.075em"
         d="m 419.1175,100.9 c 10.98,0 22.38,-7.08 22.38,-21.9 0,-14.88 -11.34,-21.9 -22.38,-21.9 -10.98,0 -22.38,7.08 -22.38,21.9 0,14.82 11.4,21.9 22.38,21.9 z m 0,-10.5 c -6.36,0 -10.98,-4.56 -10.98,-11.4 0,-6.78 4.62,-11.4 10.98,-11.4 6.42,0 10.98,4.62 10.98,11.4 0,6.84 -4.56,11.4 -10.98,11.4 z" />
      <path
         id="path36"
         style="font-family:'Wotfard Bold';letter-spacing:0.075em"
         d="m 484.55594,72.1 c 0,-8.22 -5.88,-14.1 -14.94,-14.1 h -18.18 v 42 h 10.5 V 86.62 h 4.92 l 6.18,13.38 h 11.46 l -7.68,-14.88 c 4.86,-2.34 7.74,-7.08 7.74,-13.02 z m -22.62,-5.1 h 5.52 c 3.24,0 5.82,1.38 5.82,5.1 0,3.72 -2.58,5.22 -5.82,5.22 h -5.52 z" />
      <path
         id="path38"
         style="font-family:'Wotfard Bold';letter-spacing:0.075em"
         d="m 525.27062,100 h 10.98001 L 520.29062,58 h -13.14 l -15.96,42 h 10.92001 l 2.7,-7.5 h 17.69999 z m -17.04,-16.92 5.34,-14.82 5.46,14.82 z" />
      <path
         id="path40"
         style="font-family:'Wotfard Bold';letter-spacing:0.075em"
         d="m 544.69375,100 h 10.08 V 72.88 l 18.36,27.12 h 10.02 V 58 h -10.08 v 24.48 l -17.1,-24.48 h -11.28 z" />
      <path
         id="path42"
         style="font-family:'Wotfard Bold';letter-spacing:0.075em"
         d="m 594.89688,100 h 29.27999 v -9.6 h -19.08 v -6.78 h 17.22 v -9.3 h -17.22 V 67.3 h 19.08 V 58 h -29.27999 z" />
      <path
         id="path44"
         style="font-family:'Wotfard Bold';letter-spacing:0.075em"
         d="m 664.86437,100 h 10.98001 L 659.88437,58 h -13.14 l -15.96,42 h 10.92001 l 2.69999,-7.5 h 17.7 z m -17.03999,-16.92 5.33999,-14.82 5.46,14.82 z" />
    </g>
  </g>
</svg>
