<?xml version="1.0" encoding="UTF-8" standalone="no"?>
<svg
   xmlns:dc="http://purl.org/dc/elements/1.1/"
   xmlns:cc="http://creativecommons.org/ns#"
   xmlns:rdf="http://www.w3.org/1999/02/22-rdf-syntax-ns#"
   xmlns:svg="http://www.w3.org/2000/svg"
   xmlns="http://www.w3.org/2000/svg"
   id="svg16"
   width="800px"
   version="1.1"
   height="200px">
  <metadata
     id="metadata20">
    <rdf:RDF>
      <cc:Work
         rdf:about="">
        <dc:format>image/svg+xml</dc:format>
        <dc:type
           rdf:resource="http://purl.org/dc/dcmitype/StillImage" />
      </cc:Work>
    </rdf:RDF>
  </metadata>
  <defs
     id="defs4">
    <style
       id="style2"
       type="text/css"><![CDATA[    
     @font-face {font-family:Wotfard SemiBold;
     src: url('/Users/francesco/Repos/write-logos/src/fonts/Fonts_E_TEMPORANEA/Wotfard-SemiBold.otf');}
     @font-face {font-family:DK Plakkaat;
     src: url('/Users/francesco/Repos/write-logos/src/fonts/Fonts_X/Plakkaat.ttf');}
     ]]></style>
  </defs>
  <g
     id="g14"
     style="font-size:60px">
    <g
       style="text-anchor:middle"
       id="text12"
       aria-label="EXTEMPORANEA">
      <path
         id="path22"
         style="font-family:'Wotfard SemiBold';letter-spacing:0.075em"
         d="m 134.28203,100 h 28.08 v -8.16 h -19.38 V 82.9 h 17.52 v -7.92 h -17.52 v -9.06 h 19.38 V 58 h -28.08 z" />
      <path
         id="path24"
         style="font-family:'DK Plakkaat';letter-spacing:0.05em"
         d="m 189.66953,69.34 q 0.3,0 0.3,-0.24 l 0.06,-0.06 q 0,-0.12 0.06,-0.24 0.06,-0.12 0.12,-0.3 l 0.3,-0.06 0.24,-0.24 q 0.3,-0.12 0.42,-0.42 0.12,-0.3 0.12,-0.36 v -0.18 q 0.06,0 0.12,-0.06 l 0.18,-0.3 h 0.12 l 0.78,-0.78 q 0.12,-0.12 0.6,-0.72 0.54,-0.66 0.84,-0.96 l 0.18,-0.3 q 0.42,-0.42 0.66,-0.9 0.3,-0.48 0.84,-1.02 l 0.12,-0.18 q 0.06,-0.06 0.18,-0.3 0.18,-0.3 0.3,-0.36 l 0.18,-0.24 q 0.12,-0.12 0.12,-0.18 l 0.6,-0.36 q 0.66,-0.66 1.38,-1.26 0.72,-0.6 0.84,-0.72 l 0.66,-0.54 v 0.18 l 0.3,-0.24 v 0.06 q 0,0.06 -0.06,0.18 0,0.12 -0.12,0.18 l 0.18,0.06 0.24,-0.36 -0.06,0.3 q -0.06,0.06 -0.06,0.18 l -0.06,0.18 q -0.06,0.06 -0.06,0.12 l 0.12,0.12 0.12,-0.06 q 0.06,0 0.12,-0.06 h 0.12 l 0.06,0.42 q 0,-0.06 0.06,-0.12 l 0.18,-0.12 v 0.24 h 0.12 l 0.42,-0.42 q 0,0.06 -0.06,0.18 0,0.06 0,0.12 v 0.06 q -0.06,0 -0.12,0.18 0,0.12 -0.06,0.12 v 0.06 l 0.24,-0.24 q 0.18,-0.18 0.18,-0.3 l 0.18,-0.06 q 0,0.12 -0.18,0.36 -0.18,0.18 -0.18,0.42 v 0.12 l 0.18,-0.12 q -0.06,0.06 -0.06,0.12 0,0.12 0.06,0.12 l 0.18,0.06 0.18,-0.18 q 0.06,-0.06 0.24,-0.18 0.18,-0.12 0.24,-0.12 v 0.12 q 0,0.06 -0.06,0.18 0,0.06 0,0.12 l -0.18,0.12 v 0.12 h 0.18 q 0,-0.06 0.12,-0.18 0.18,-0.18 0.24,-0.18 l 0.06,-0.06 q 0.06,0 0.12,-0.06 0,0.06 -0.18,0.24 h 0.48 l -0.12,0.54 q 0,-0.06 0.12,-0.18 0.12,-0.18 0.18,-0.24 h 0.12 l -0.12,0.42 0.06,-0.06 q 0.06,-0.12 0.18,-0.3 0.12,-0.24 0.24,-0.3 h 0.06 l -0.3,0.78 h 0.36 l 0.18,-0.18 q 0.12,-0.12 0.18,-0.12 l 0.06,-0.12 v 0.3 q 0,0.06 -0.06,0.12 0,0.06 0,0.12 l 0.24,-0.18 q 0.06,-0.06 0.12,-0.06 l -0.06,0.06 q -0.06,0.06 -0.06,0.18 l 0.06,0.42 h 0.48 q 0.48,0 0.66,0.3 0.24,0.24 0.24,0.42 v 0.54 l -0.24,0.24 q 0,0.12 -0.12,0.3 -0.12,0.12 -0.12,0.42 l -0.12,0.12 q -0.06,0.06 -0.06,0.12 v 0.18 q 0,0.24 -0.24,0.48 -0.18,0.24 -0.18,0.36 l -0.06,0.18 q 0,0.06 -0.12,0.3 -0.06,0.18 -0.24,0.48 -0.12,0.24 -0.24,0.48 -0.06,0.24 -0.06,0.3 l -0.6,0.84 q -0.54,0.84 -0.54,1.32 -0.18,0.66 -0.54,1.02 -0.3,0.3 -0.42,0.78 l -0.12,0.18 q -0.06,0.06 -0.06,0.12 l -0.06,0.06 q 0,0.18 -0.12,0.18 l -0.18,0.18 v 0.18 q 0,0.12 -0.36,0.54 -0.36,0.42 -0.36,0.9 l -1.2,1.92 q -0.06,0.06 -0.18,0.3 -0.12,0.24 -0.24,0.3 l -0.06,0.06 q 0,0.06 -0.24,0.42 -0.18,0.36 -0.48,0.84 -0.3,0.42 -0.6,0.84 -0.24,0.36 -0.42,0.54 l -0.06,0.12 q -0.18,0.18 -0.36,0.66 -0.12,0.48 -0.6,0.96 l -0.12,0.12 q 0,0.06 -0.18,0.3 -0.12,0.24 -0.12,0.3 v 0.12 q 0,0.06 0.06,0.18 0.12,0.12 0.18,0.18 l 0.66,0.84 q 0,0.06 0.18,0.3 0.18,0.18 0.36,0.36 l 0.12,0.18 q 0.48,0.48 0.84,1.08 0.36,0.54 0.6,0.78 l 0.42,0.48 q 0,0.06 0.12,0.24 0.18,0.18 0.24,0.24 l 0.12,0.12 q 0,0.06 0.06,0.12 l 0.24,0.42 q 0.06,0 0.12,0.12 0.12,0.12 0.24,0.18 l 0.36,0.54 q 0.18,0.36 0.48,0.54 l 0.06,0.12 q 0,0.06 0.06,0.24 0.12,0.12 0.24,0.18 v 0.24 q 0.24,0 0.24,0.24 l 1.14,1.68 q 0.12,0.18 0.3,0.42 0.24,0.24 0.78,0.78 v 0.06 q 0,0.18 0.12,0.3 l 0.06,0.06 q 0,0.18 0.18,0.36 l 0.12,0.3 q 0,0.06 0.06,0.12 l 0.06,0.24 q -0.24,0 -0.24,0.06 l 0.06,0.36 q 0.06,0.06 0.06,0.12 h -0.36 l -0.24,-0.12 q 0,0.36 -0.42,0.36 l -0.12,0.3 q -0.06,0.06 -0.06,0.12 l -0.06,0.06 q -0.06,0.06 -0.06,0.12 l -0.12,0.42 q 0,0.12 0.12,0.24 l 0.06,0.6 -0.18,0.12 -0.24,-0.06 q -0.06,0 -0.12,-0.06 l -0.18,0.06 0.06,0.3 h -0.24 l 0.18,0.18 h -0.36 v 0.42 l -0.18,0.12 q -0.06,0.06 -0.18,0.06 h -0.24 v 0.3 l -0.18,0.06 q 0.06,0.12 0.18,0.36 0.18,0.24 0.18,0.36 -0.06,0.06 -0.06,0.12 v 0.18 q 0,0.3 -0.18,0.42 -0.12,0.06 -0.12,0.18 l -0.18,0.24 q -0.12,0.48 -0.54,0.66 -0.42,0.18 -0.6,0.18 -0.3,0 -0.36,-0.06 0,0.24 -0.42,0.24 l -0.06,0.18 q 0,0.12 0.12,0.24 l -0.54,-0.24 h -1.02 q -0.06,0 -0.12,-0.06 h -0.42 l -0.18,-0.18 q 0,0.18 -0.18,0.18 -0.12,0 -0.24,-0.12 l -0.12,0.12 h -0.3 l -0.66,-0.24 q -0.06,-0.06 -0.18,-0.06 -0.12,-0.06 -0.24,-0.18 l -0.9,-0.66 -1.38,-1.5 q 0,-0.06 -0.12,-0.18 -0.12,-0.18 -0.18,-0.18 l -0.06,-0.06 q -0.06,0 -0.42,-0.48 l -0.9,-1.08 q -0.3,-0.3 -0.84,-0.84 -0.54,-0.6 -0.66,-0.9 l -0.24,-0.24 q -0.12,-0.06 -0.36,-0.36 -0.18,-0.3 -0.24,-0.36 l -0.54,-0.48 -0.06,0.12 q -0.12,0 -0.48,0.54 -0.3,0.48 -0.42,0.9 l -0.06,0.12 q -0.12,0.06 -0.36,0.42 -0.18,0.3 -0.3,0.48 l -0.12,0.12 h 0.06 q 0,0.12 -0.36,0.78 -0.3,0.6 -1.02,1.32 l -0.54,0.96 q -0.18,0.18 -0.54,0.6 -0.3,0.42 -0.96,1.08 l -0.18,0.18 q -0.06,0.06 -0.24,0.18 -0.12,0.12 -0.12,0.18 l -0.3,0.06 V 100 l 0.24,-0.3 q 0,-0.06 -0.06,-0.12 l -0.24,-0.12 q -0.12,-0.12 -0.3,-0.12 l -0.6,-0.06 -0.06,-0.24 h -0.24 q 0,0.06 -0.18,0.18 -0.18,0.12 -0.24,0.12 l -0.24,0.12 v -0.12 q 0.06,0 0.18,-0.12 l 0.24,-0.24 q 0.12,0 0.12,-0.06 -0.06,0 -0.18,-0.06 -0.12,-0.06 -0.18,-0.06 -0.06,0.06 -0.12,0.06 h -0.06 q -0.06,0 -0.12,0.06 l -0.42,0.06 v -0.06 q -0.06,0.06 -0.12,0.06 h -0.3 l 0.24,-0.24 -0.06,-0.06 q 0,-0.12 -0.18,-0.12 -0.12,0 -0.24,0.06 -0.12,0 -0.24,0 l -0.24,0.12 q -0.06,0.06 -0.18,0.06 l -0.24,0.06 q -0.06,0 -0.12,-0.06 l -1.02,0.12 0.42,-0.6 q -0.12,0.12 -0.18,0.12 l -0.18,-0.12 -0.24,0.18 q -0.12,0.12 -0.24,0.12 l -0.12,-0.06 q 0,-0.12 0.12,-0.12 0.12,-0.06 0.12,-0.12 h -0.48 q 0.06,0 0.18,-0.12 l 0.3,-0.06 q -0.12,-0.06 -0.3,-0.06 -0.12,-0.06 -0.18,-0.12 h -0.12 l -0.12,-0.18 q -0.06,-0.06 -0.06,-0.12 l -0.72,0.06 0.06,-0.12 q 0,-0.06 0.12,-0.18 0.12,-0.12 0.12,-0.42 h -0.06 q -0.3,0.12 -0.48,0.3 V 97 l -0.36,0.3 0.3,-0.54 q 0,-0.12 -0.12,-0.12 0,0.12 -0.24,0.12 h -0.42 q -0.06,0 -0.18,0.12 -0.06,0.06 -0.12,0.06 v -0.18 q 0,-0.06 -0.06,-0.12 v -0.12 q 0,-0.06 0,-0.18 0.06,-0.12 0.06,-0.24 v -0.12 q -0.06,-0.06 -0.06,-0.24 v -0.3 q -0.06,0 -0.18,0 -0.06,-0.06 -0.12,-0.06 l -0.24,-0.42 v -0.24 q -0.06,0 -0.18,-0.12 -0.12,-0.18 -0.18,-0.24 l -0.12,-0.3 -0.18,-0.12 v -0.36 l 0.18,-0.54 q 0.12,-0.24 0.12,-0.42 0.06,-0.18 0.18,-0.3 l 0.06,-0.24 q 0.12,-0.12 0.24,-0.48 0.18,-0.42 0.24,-0.48 0.66,-0.66 0.96,-1.5 l 0.06,-0.18 q 0,-0.06 0.06,-0.12 0.06,-0.12 0.12,-0.24 l 0.42,-0.6 q 0.18,-0.18 0.3,-0.54 0.12,-0.42 0.78,-1.08 h 0.12 l 0.6,-0.72 q 0.18,-0.18 0.54,-0.42 0.36,-0.3 0.48,-0.72 l 0.54,-0.6 q 0.06,-0.06 0.24,-0.3 0.18,-0.24 0.24,-0.24 l 0.24,-0.36 q 0.06,-0.12 0.42,-0.48 0.36,-0.42 0.42,-0.54 l 0.12,-0.12 v 0.12 l 0.36,-0.06 V 82 l -0.36,-0.36 v -0.18 q -0.06,-0.06 -0.24,-0.18 -0.12,-0.12 -0.12,-0.24 l -0.42,-0.42 q -0.18,-0.12 -0.48,-0.42 -0.24,-0.36 -0.3,-0.42 l -0.42,-0.54 q -0.42,-0.42 -0.66,-0.72 -0.18,-0.36 -0.42,-0.72 -0.18,-0.42 -0.48,-0.9 -0.3,-0.54 -0.9,-1.32 l -0.18,-0.36 q -0.12,-0.3 -0.3,-0.36 l -0.24,-0.3 q -0.12,-0.12 -0.3,-0.3 -0.12,-0.24 -0.24,-0.66 -0.12,-0.18 -0.36,-0.6 -0.18,-0.42 -0.42,-0.78 -0.18,-0.42 -0.42,-0.72 -0.18,-0.36 -0.24,-0.36 l -0.24,-0.24 -0.24,-0.6 -0.6,-0.66 q -0.06,-0.12 -0.24,-0.36 -0.18,-0.24 -0.24,-0.36 v -0.06 q 0,-0.06 -0.06,-0.18 -0.06,-0.18 -0.06,-0.24 v -0.12 q -0.24,0 -0.3,-0.3 0,-0.36 -0.18,-0.36 l -0.24,-0.42 q -0.12,-0.12 -0.3,-0.48 -0.12,-0.36 -0.18,-0.48 l -0.12,-0.18 q -0.12,-0.12 -0.12,-0.3 l -0.06,-0.12 0.18,-0.12 q 0,-0.12 0.24,-0.12 l 0.12,-0.06 v -0.3 h 0.42 l 0.06,-0.42 h 0.18 l 0.06,-0.42 0.12,-0.06 q 0.24,0 0.24,-0.6 l 0.12,-0.24 q 0,-0.06 -0.06,-0.12 0,-0.12 0,-0.24 0,-0.06 0.06,-0.12 l 0.12,-0.12 q 0,-0.12 0.06,-0.12 l 0.48,-0.06 q 0.06,0 0.12,-0.06 l 0.3,-0.3 0.3,-0.6 0.18,-0.12 q 0.06,0 0.12,-0.06 l -0.06,-0.18 0.18,-0.18 q 0.12,0 0.18,-0.06 0.06,-0.12 0.18,-0.12 h 0.06 q 0.12,0 0.24,0 0.18,-0.06 0.42,-0.18 l 0.06,-0.18 q 0,-0.06 0.18,-0.24 l 0.18,-0.18 -0.06,-0.18 q 0,-0.06 0.06,-0.12 0.06,0 0.24,0.06 0.24,0 0.36,0 v -0.48 h 0.12 l 0.12,0.18 h 0.36 l -0.06,-0.18 h 0.12 q 0.12,0 0.18,-0.06 l 0.06,-0.06 q 0,-0.06 0.06,-0.18 0.06,-0.18 0.06,-0.3 l 0.3,0.06 q 0.06,0.06 0.12,0.06 l 0.06,0.12 0.12,-0.12 v -0.36 l 0.84,-0.06 0.72,0.3 q 0.06,0.06 0.18,0.06 l 0.12,0.06 q 0.06,0.06 0.06,0.12 l 0.06,0.06 q 0.06,0.06 0.18,0.24 0.18,0.18 0.3,0.24 l 0.06,0.06 q 0,0.12 0.18,0.3 l 0.24,0.24 q 0,0.3 0.3,0.72 0.36,0.36 0.72,1.2 l 0.36,0.54 q 0,0.12 0.06,0.12 l 0.12,0.18 q 0.12,0.12 0.24,0.42 0.18,0.24 0.24,0.3 l 0.24,0.36 q 0.48,0.48 1.08,1.2 0.6,0.72 0.78,1.08 h 0.06 q 0.06,0.06 0.12,0.24 0.12,0.12 0.24,0.24 l 0.84,1.02 q 0,0.18 0.18,0.18 v 0.18 l -0.24,-0.06 q -0.12,-0.12 -0.36,-0.36 -0.18,-0.3 -0.3,-0.36 l -0.12,0.06 q 0.3,0.36 0.42,0.6 0.12,0.18 0.24,0.3 l 0.18,0.3 q 0,0.12 0.24,0.36 0.3,0.18 0.3,0.3 l 0.12,0.06 q 0.18,0.48 0.66,0.72 0.54,0.18 0.54,0.66 l 0.36,-0.12 v 0.36 l 0.18,-0.18 h 0.24 q 0.06,-0.06 0.06,-0.12 l 0.06,-0.36 q 0.12,-0.06 0.36,-0.36 0.3,-0.3 0.42,-0.3 v -0.18 l -0.12,-0.06 q 0,-0.12 0.12,-0.12 z m 6.06,-7.74 q -0.12,0.3 -0.24,0.42 l -0.18,0.12 q 0,-0.12 0.06,-0.18 0.06,-0.06 0.06,-0.12 l 0.12,-0.12 q 0.12,-0.12 0.18,-0.12 z m 6.42,34.8 q 0,0.12 0.06,0.12 0.12,0 0.12,-0.12 0,-0.12 -0.12,-0.12 z m -9.12,-31.32 0.06,0.12 q 0,0.06 -0.12,0.06 v -0.24 q 0,-0.12 0.12,-0.12 z m -1.98,2.76 -0.24,0.06 v -0.06 q 0,-0.12 0.12,-0.12 z m 4.2,-5.4 -0.24,0.06 v -0.06 q 0,-0.12 0.12,-0.12 z m -5.4,6.72 q 0,0.06 -0.12,0.06 -0.12,0 -0.12,-0.06 l 0.12,-0.06 z m 3.66,-4.56 v -0.12 q 0,-0.06 0.18,-0.24 z m -6.12,7.08 q 0.06,0 0.12,-0.06 0,-0.12 -0.12,-0.12 z m 7.08,-8.34 h -0.12 l 0.18,-0.24 z m -3.36,4.2 -0.06,0.12 -0.06,-0.06 q 0,-0.12 0.18,-0.12 z m 1.86,-2.16 -0.12,0.06 v -0.18 z m 1.08,-1.38 -0.12,0.06 v -0.18 z m -23.16,1.62 q 0.06,0 0.06,-0.18 l -0.06,0.06 z m 25.2,-4.5 v -0.06 q 0,-0.12 0.12,-0.12 z m -16.32,38.46 q -0.18,0.18 -0.3,0.18 z m 16.68,-38.82 -0.18,0.12 0.12,-0.12 z" />
      <path
         id="path26"
         style="font-family:'Wotfard SemiBold';letter-spacing:0.075em"
         d="m 225.47266,100 9.06,0.06 V 66.28 l 13.44,-0.06 V 58 h -35.88 v 8.22 h 13.38 z" />
      <path
         id="path28"
         style="font-family:'Wotfard SemiBold';letter-spacing:0.075em"
         d="m 258.19609,100 h 28.08 v -8.16 h -19.38 V 82.9 h 17.52 v -7.92 h -17.52 v -9.06 h 19.38 V 58 h -28.08 z" />
      <path
         id="path30"
         style="font-family:'Wotfard SemiBold';letter-spacing:0.075em"
         d="m 297.38359,100 h 8.7 V 72.1 l 13.74,21.72 h 0.6 l 13.86,-21.72 V 100 h 8.7 V 58 h -9.42 l -13.38,21.06 -13.26,-21.06 h -9.54 z" />
      <path
         id="path32"
         style="font-family:'Wotfard SemiBold';letter-spacing:0.075em"
         d="m 355.90703,100 h 8.88 V 86.08 h 7.86 c 8.7,0 14.34,-6.06 14.34,-14.1 0,-7.92 -5.64,-13.98 -14.34,-13.98 h -16.74 z m 8.88,-21.66 v -12.6 h 6.12 c 3.96,0 6.6,2.22 6.6,6.24 0,4.08 -2.64,6.36 -6.6,6.36 z" />
      <path
         id="path34"
         style="font-family:'Wotfard SemiBold';letter-spacing:0.075em"
         d="m 417.00672,100.9 c 10.98,0 22.08,-7.26 22.08,-21.9 0,-14.64 -11.04,-21.9 -22.08,-21.9 -10.98,0 -22.02,7.26 -22.02,21.9 0,14.64 11.04,21.9 22.02,21.9 z m 0,-8.82 c -6.84,0 -12.48,-4.92 -12.48,-13.08 0,-8.1 5.64,-13.08 12.48,-13.08 6.96,0 12.48,4.98 12.48,13.08 0,8.16 -5.52,13.08 -12.48,13.08 z" />
      <path
         id="path36"
         style="font-family:'Wotfard SemiBold';letter-spacing:0.075em"
         d="m 481.60797,100 -8.28,-15.54 c 5.1,-2.04 8.16,-6.78 8.16,-12.72 0,-7.86 -5.76,-13.74 -14.46,-13.74 h -17.16 v 42 h 8.88 V 85.66 h 6.12 l 7.02,14.34 z m -22.86,-34.26 h 6.66 c 3.78,0 6.6,1.98 6.6,6 0,3.9 -2.64,6 -6.6,6 h -6.66 z" />
      <path
         id="path38"
         style="font-family:'Wotfard SemiBold';letter-spacing:0.075em"
         d="m 522.39672,100 h 9.42 l -16.26,-42 h -10.74 l -16.26,42 h 9.3 l 3.18,-8.58 h 18.12 z m -18.36,-16.62 6,-16.14 6.06,16.14 z" />
      <path
         id="path40"
         style="font-family:'Wotfard SemiBold';letter-spacing:0.075em"
         d="m 540.89922,100 h 8.58 V 70.36 l 19.86,29.64 h 8.64 V 58 h -8.58 v 27 l -18.66,-27 h -9.84 z" />
      <path
         id="path42"
         style="font-family:'Wotfard SemiBold';letter-spacing:0.075em"
         d="m 590.86797,100 h 28.08 v -8.16 h -19.38 V 82.9 h 17.52 v -7.92 h -17.52 v -9.06 h 19.38 V 58 h -28.08 z" />
      <path
         id="path44"
         style="font-family:'Wotfard SemiBold';letter-spacing:0.075em"
         d="m 660.11547,100 h 9.42 l -16.26,-42 h -10.74 l -16.26,42 h 9.3 l 3.18,-8.58 h 18.12 z m -18.36,-16.62 6,-16.14 6.06,16.14 z" />
    </g>
  </g>
</svg>
