<?xml version="1.0" encoding="UTF-8" standalone="no"?>
<svg
   xmlns:dc="http://purl.org/dc/elements/1.1/"
   xmlns:cc="http://creativecommons.org/ns#"
   xmlns:rdf="http://www.w3.org/1999/02/22-rdf-syntax-ns#"
   xmlns:svg="http://www.w3.org/2000/svg"
   xmlns="http://www.w3.org/2000/svg"
   id="svg16"
   width="800px"
   version="1.1"
   height="200px">
  <metadata
     id="metadata20">
    <rdf:RDF>
      <cc:Work
         rdf:about="">
        <dc:format>image/svg+xml</dc:format>
        <dc:type
           rdf:resource="http://purl.org/dc/dcmitype/StillImage" />
      </cc:Work>
    </rdf:RDF>
  </metadata>
  <defs
     id="defs4">
    <style
       id="style2"
       type="text/css"><![CDATA[    
     @font-face {font-family:Wotfard SemiBold;
     src: url('/Users/francesco/Repos/write-logos/src/fonts/Fonts_E_TEMPORANEA/Wotfard-SemiBold.otf');}
     @font-face {font-family:___Devastation;
     src: url('/Users/francesco/Repos/write-logos/src/fonts/Fonts_X/Devastation.ttf');}
     ]]></style>
  </defs>
  <g
     id="g14"
     style="font-size:60px">
    <g
       style="text-anchor:middle"
       id="text12"
       aria-label="EXTEMPORANEA">
      <path
         id="path22"
         style="font-family:'Wotfard SemiBold';letter-spacing:0.075em"
         d="m 132.81719,100 h 28.08 v -8.16 h -19.38 V 82.9 h 17.52 v -7.92 h -17.52 v -9.06 h 19.38 V 58 h -28.08 z" />
      <path
         id="path24"
         style="font-family:'___Devastation';letter-spacing:0.05em"
         d="m 171.58398,56.259766 h 6.35743 l 10.86914,16.259765 10.92773,-16.259765 h 6.35742 l -14.0625,21.005859 15,22.734375 h -6.35742 L 188.37109,81.396484 175.97852,100 h -6.38672 l 15.61523,-23.349609 z" />
      <path
         id="path26"
         style="font-family:'Wotfard SemiBold';letter-spacing:0.075em"
         d="m 226.9375,100 9.06,0.06 V 66.28 l 13.44,-0.06 V 58 h -35.88 v 8.22 h 13.38 z" />
      <path
         id="path28"
         style="font-family:'Wotfard SemiBold';letter-spacing:0.075em"
         d="m 259.66094,100 h 28.08 v -8.16 h -19.38 V 82.9 h 17.52 v -7.92 h -17.52 v -9.06 h 19.38 V 58 h -28.08 z" />
      <path
         id="path30"
         style="font-family:'Wotfard SemiBold';letter-spacing:0.075em"
         d="m 298.84844,100 h 8.7 V 72.1 l 13.74,21.72 h 0.6 l 13.86,-21.72 V 100 h 8.7 V 58 h -9.42 l -13.38,21.06 -13.26,-21.06 h -9.54 z" />
      <path
         id="path32"
         style="font-family:'Wotfard SemiBold';letter-spacing:0.075em"
         d="m 357.37187,100 h 8.88 V 86.08 h 7.86 c 8.7,0 14.34,-6.06 14.34,-14.1 0,-7.92 -5.64,-13.98 -14.34,-13.98 h -16.74 z m 8.88,-21.66 v -12.6 h 6.12 c 3.96001,0 6.6,2.22 6.6,6.24 0,4.08 -2.63999,6.36 -6.6,6.36 z" />
      <path
         id="path34"
         style="font-family:'Wotfard SemiBold';letter-spacing:0.075em"
         d="m 418.47156,100.9 c 10.98,0 22.08,-7.26 22.08,-21.9 0,-14.64 -11.04,-21.9 -22.08,-21.9 -10.98,0 -22.02,7.26 -22.02,21.9 0,14.64 11.04,21.9 22.02,21.9 z m 0,-8.82 c -6.84,0 -12.48,-4.92 -12.48,-13.08 0,-8.1 5.64,-13.08 12.48,-13.08 6.96,0 12.48,4.98 12.48,13.08 0,8.16 -5.52,13.08 -12.48,13.08 z" />
      <path
         id="path36"
         style="font-family:'Wotfard SemiBold';letter-spacing:0.075em"
         d="m 483.07281,100 -8.28,-15.54 c 5.1,-2.04 8.16,-6.78 8.16,-12.72 0,-7.86 -5.76,-13.74 -14.46,-13.74 h -17.16 v 42 h 8.88 V 85.66 h 6.12 l 7.02,14.34 z m -22.86,-34.26 h 6.66 c 3.78,0 6.6,1.98 6.6,6 0,3.9 -2.64,6 -6.6,6 h -6.66 z" />
      <path
         id="path38"
         style="font-family:'Wotfard SemiBold';letter-spacing:0.075em"
         d="m 523.86156,100 h 9.42 l -16.26,-42 h -10.74 l -16.26,42 h 9.3 l 3.18,-8.58 h 18.12 z m -18.36,-16.62 6,-16.14 6.06,16.14 z" />
      <path
         id="path40"
         style="font-family:'Wotfard SemiBold';letter-spacing:0.075em"
         d="m 542.36406,100 h 8.58 V 70.36 l 19.86,29.64 h 8.64 V 58 h -8.58 v 27 l -18.66,-27 h -9.84 z" />
      <path
         id="path42"
         style="font-family:'Wotfard SemiBold';letter-spacing:0.075em"
         d="m 592.33281,100 h 28.08 v -8.16 h -19.38 V 82.9 h 17.52 v -7.92 h -17.52 v -9.06 h 19.38 V 58 h -28.08 z" />
      <path
         id="path44"
         style="font-family:'Wotfard SemiBold';letter-spacing:0.075em"
         d="m 661.58031,100 h 9.42 l -16.26,-42 h -10.74 l -16.26,42 h 9.3 l 3.18,-8.58 h 18.12 z m -18.36,-16.62 6,-16.14 6.06,16.14 z" />
    </g>
  </g>
</svg>
