<?xml version="1.0" encoding="UTF-8" standalone="no"?>
<svg
   xmlns:dc="http://purl.org/dc/elements/1.1/"
   xmlns:cc="http://creativecommons.org/ns#"
   xmlns:rdf="http://www.w3.org/1999/02/22-rdf-syntax-ns#"
   xmlns:svg="http://www.w3.org/2000/svg"
   xmlns="http://www.w3.org/2000/svg"
   id="svg16"
   width="800px"
   version="1.1"
   height="200px">
  <metadata
     id="metadata20">
    <rdf:RDF>
      <cc:Work
         rdf:about="">
        <dc:format>image/svg+xml</dc:format>
        <dc:type
           rdf:resource="http://purl.org/dc/dcmitype/StillImage" />
      </cc:Work>
    </rdf:RDF>
  </metadata>
  <defs
     id="defs4">
    <style
       id="style2"
       type="text/css"><![CDATA[    
     @font-face {font-family:Wotfard Bold;
     src: url('/Users/francesco/Repos/write-logos/src/fonts/Fonts_E_TEMPORANEA/Wotfard-Bold.otf');}
     @font-face {font-family:Emblema One;
     src: url('/Users/francesco/Repos/write-logos/src/fonts/Fonts_X/EmblemaOne-Regular.ttf');}
     ]]></style>
  </defs>
  <g
     id="g14"
     style="font-size:60px">
    <g
       style="text-anchor:middle"
       id="text12"
       aria-label="EXTEMPORANEA">
      <path
         id="path22"
         style="font-family:'Wotfard Bold';letter-spacing:0.075em"
         d="m 130.10781,100 h 29.28 v -9.6 h -19.08 v -6.78 h 17.22 v -9.3 h -17.22 V 67.3 h 19.08 V 58 h -29.28 z" />
      <path
         id="path24"
         style="font-family:'Emblema One';letter-spacing:0.05em"
         d="m 184.88477,100 q -5.88868,-20.214844 -14.17969,-37.96875 0,-0.380859 0.9375,-1.142578 0.96679,-0.761719 1.64062,-0.761719 h 15 q 3.33985,11.425781 6.41602,19.746094 3.07617,8.291015 7.73437,18.193359 0,0.38086 -0.9375,1.171875 Q 200.55859,100 199.88477,100 Z m 11.39648,-21.123047 q 1.66992,-5.537109 1.66992,-9.609375 0,-1.933594 -0.35156,-3.398437 -0.35156,-1.494141 -1.23047,-3.837891 0,-0.380859 0.9375,-1.142578 0.9668,-0.761719 1.64063,-0.761719 h 9.3457 q -3.48633,5.332031 -5.71289,9.140625 -2.22656,3.808594 -3.75,7.617188 -0.17578,0.46875 -1.02539,1.230468 -0.84961,0.761719 -1.52344,0.761719 z m -19.33594,2.255859 q -1.66992,5.361329 -1.66992,9.052735 0,3.691406 1.58203,7.880859 0,0.38086 -0.9668,1.171875 Q 174.95312,100 174.2793,100 h -9.375 q 6.88476,-10.576172 9.46289,-16.933594 0.17578,-0.46875 1.02539,-1.201172 0.8789,-0.732422 1.55273,-0.732422 z" />
      <path
         id="path26"
         style="font-family:'Wotfard Bold';letter-spacing:0.075em"
         d="m 223.11344,100 10.74,0.06 V 67.78 l 13.2,-0.06 V 58 h -37.08 v 9.72 h 13.14 z" />
      <path
         id="path28"
         style="font-family:'Wotfard Bold';letter-spacing:0.075em"
         d="m 256.36563,100 h 29.27999 v -9.6 h -19.08 v -6.78 h 17.22 v -9.3 h -17.22 V 67.3 h 19.08 V 58 h -29.27999 z" />
      <path
         id="path30"
         style="font-family:'Wotfard Bold';letter-spacing:0.075em"
         d="m 295.55313,100 h 10.26 V 74.2 L 318.59312,94 h 0.6 l 12.9,-19.8 V 100 h 10.26 V 58 h -11.28 l -12.12,18.66 -12,-18.66 h -11.39999 z" />
      <path
         id="path32"
         style="font-family:'Wotfard Bold';letter-spacing:0.075em"
         d="m 354.07656,100 h 10.5 V 86.92 h 7.08 c 9.06,0 14.94,-6.12 14.94,-14.52 0,-8.34 -5.88,-14.4 -14.94,-14.4 h -17.58 z m 10.5,-22.08 V 67 h 4.92 c 3.36,0 5.82,1.56 5.82,5.4 0,3.84 -2.46,5.52 -5.82,5.52 z" />
      <path
         id="path34"
         style="font-family:'Wotfard Bold';letter-spacing:0.075em"
         d="m 416.42219,100.9 c 10.98,0 22.38,-7.08 22.38,-21.9 0,-14.88 -11.34,-21.9 -22.38,-21.9 -10.98,0 -22.38,7.08 -22.38,21.9 0,14.82 11.4,21.9 22.38,21.9 z m 0,-10.5 c -6.36,0 -10.98,-4.56 -10.98,-11.4 0,-6.78 4.62,-11.4 10.98,-11.4 6.42,0 10.98,4.62 10.98,11.4 0,6.84 -4.56,11.4 -10.98,11.4 z" />
      <path
         id="path36"
         style="font-family:'Wotfard Bold';letter-spacing:0.075em"
         d="m 481.86063,72.1 c 0,-8.22 -5.88001,-14.1 -14.94001,-14.1 h -18.17999 v 42 h 10.5 V 86.62 h 4.91999 l 6.18,13.38 h 11.46 l -7.67999,-14.88 c 4.86,-2.34 7.74,-7.08 7.74,-13.02 z m -22.62,-5.1 h 5.51999 c 3.24001,0 5.82,1.38 5.82,5.1 0,3.72 -2.57999,5.22 -5.82,5.22 h -5.51999 z" />
      <path
         id="path38"
         style="font-family:'Wotfard Bold';letter-spacing:0.075em"
         d="m 522.57531,100 h 10.98 l -15.96,-42 h -13.14 l -15.96,42 h 10.92 l 2.7,-7.5 h 17.7 z m -17.04,-16.92 5.34,-14.82 5.46,14.82 z" />
      <path
         id="path40"
         style="font-family:'Wotfard Bold';letter-spacing:0.075em"
         d="m 541.99844,100 h 10.08 V 72.88 l 18.36,27.12 h 10.02 V 58 h -10.08 v 24.48 l -17.1,-24.48 h -11.28 z" />
      <path
         id="path42"
         style="font-family:'Wotfard Bold';letter-spacing:0.075em"
         d="m 592.20156,100 h 29.28 v -9.6 h -19.08 v -6.78 h 17.22 v -9.3 h -17.22 V 67.3 h 19.08 V 58 h -29.28 z" />
      <path
         id="path44"
         style="font-family:'Wotfard Bold';letter-spacing:0.075em"
         d="m 662.16906,100 h 10.98 l -15.96,-42 h -13.14 l -15.96,42 h 10.92 l 2.7,-7.5 h 17.7 z m -17.04,-16.92 5.34,-14.82 5.46,14.82 z" />
    </g>
  </g>
</svg>
