<?xml version="1.0" encoding="UTF-8" standalone="no"?>
<svg
   xmlns:dc="http://purl.org/dc/elements/1.1/"
   xmlns:cc="http://creativecommons.org/ns#"
   xmlns:rdf="http://www.w3.org/1999/02/22-rdf-syntax-ns#"
   xmlns:svg="http://www.w3.org/2000/svg"
   xmlns="http://www.w3.org/2000/svg"
   id="svg16"
   width="800px"
   version="1.1"
   height="200px">
  <metadata
     id="metadata20">
    <rdf:RDF>
      <cc:Work
         rdf:about="">
        <dc:format>image/svg+xml</dc:format>
        <dc:type
           rdf:resource="http://purl.org/dc/dcmitype/StillImage" />
      </cc:Work>
    </rdf:RDF>
  </metadata>
  <defs
     id="defs4">
    <style
       id="style2"
       type="text/css"><![CDATA[    
     @font-face {font-family:Wotfard Bold;
     src: url('/Users/francesco/Repos/write-logos/src/fonts/Fonts_E_TEMPORANEA/Wotfard-Bold.otf');}
     @font-face {font-family:Chango;
     src: url('/Users/francesco/Repos/write-logos/src/fonts/Fonts_X/Chango-Regular.ttf');}
     ]]></style>
  </defs>
  <g
     id="g14"
     style="font-size:60px">
    <g
       style="text-anchor:middle"
       id="text12"
       aria-label="EXTEMPORANEA">
      <path
         id="path22"
         style="font-family:'Wotfard Bold';letter-spacing:0.075em"
         d="m 119.32656,100 h 29.28 v -9.6 h -19.08 v -6.78 h 17.22 v -9.3 h -17.22 V 67.3 h 19.08 V 58 h -29.28 z" />
      <path
         id="path24"
         style="font-family:Chango;letter-spacing:0.05em"
         d="m 158.21406,100 q -1.2,0 -1.2,-0.9 0,-0.54 0.66,-1.26 l 15.96,-16.86 -14.58,-16.98 q -1.26,-1.56 -1.26,-2.52 0,-1.02 0.3,-1.62 0.9,-1.8 3.18,-1.8 l 22.68,-0.06 q 1.74,0 2.58,0.54 0.9,0.54 2.1,2.22 l 3.18,4.56 q 0.9,1.38 1.44,1.38 0.6,0 1.68,-1.14 l 6.06,-6.12 q 0.9,-0.96 1.38,-1.2 0.48,-0.24 1.38,-0.24 h 9.54 q 1.14,0 1.14,0.78 0,0.6 -0.66,1.44 l -14.1,15.6 q 9.18,12.3 13.38,18.42 1.32,1.86 1.32,3.36 0,2.16 -2.46,2.22 -5.52,0.12 -10.62,0.12 -5.1,0 -8.64,0 -3.54,-0.06 -4.2,-1.02 l -6.9,-8.58 q -0.72,-0.9 -1.26,-0.9 -0.48,0 -1.38,0.9 l -7.92,8.28 q -0.9,0.96 -1.38,1.2 -0.42,0.18 -1.32,0.18 z" />
      <path
         id="path26"
         style="font-family:'Wotfard Bold';letter-spacing:0.075em"
         d="m 233.89469,100 10.74,0.06 V 67.78 l 13.2,-0.06 V 58 h -37.08 v 9.72 h 13.14 z" />
      <path
         id="path28"
         style="font-family:'Wotfard Bold';letter-spacing:0.075em"
         d="m 267.14688,100 h 29.27999 v -9.6 h -19.08 v -6.78 h 17.22 v -9.3 h -17.22 V 67.3 h 19.08 V 58 h -29.27999 z" />
      <path
         id="path30"
         style="font-family:'Wotfard Bold';letter-spacing:0.075em"
         d="m 306.33438,100 h 10.26 V 74.2 L 329.37437,94 h 0.6 l 12.9,-19.8 V 100 h 10.26 V 58 h -11.28 l -12.12,18.66 -12,-18.66 h -11.39999 z" />
      <path
         id="path32"
         style="font-family:'Wotfard Bold';letter-spacing:0.075em"
         d="m 364.85781,100 h 10.5 V 86.92 h 7.08 c 9.06,0 14.94,-6.12 14.94,-14.52 0,-8.34 -5.88,-14.4 -14.94,-14.4 h -17.58 z m 10.5,-22.08 V 67 h 4.92 c 3.36,0 5.82,1.56 5.82,5.4 0,3.84 -2.46,5.52 -5.82,5.52 z" />
      <path
         id="path34"
         style="font-family:'Wotfard Bold';letter-spacing:0.075em"
         d="m 427.20344,100.9 c 10.98,0 22.38,-7.08 22.38,-21.9 0,-14.88 -11.34,-21.9 -22.38,-21.9 -10.98,0 -22.38,7.08 -22.38,21.9 0,14.82 11.4,21.9 22.38,21.9 z m 0,-10.5 c -6.36,0 -10.98,-4.56 -10.98,-11.4 0,-6.78 4.62,-11.4 10.98,-11.4 6.42,0 10.98,4.62 10.98,11.4 0,6.84 -4.56,11.4 -10.98,11.4 z" />
      <path
         id="path36"
         style="font-family:'Wotfard Bold';letter-spacing:0.075em"
         d="m 492.64188,72.1 c 0,-8.22 -5.88001,-14.1 -14.94001,-14.1 h -18.17999 v 42 h 10.5 V 86.62 h 4.91999 l 6.18,13.38 h 11.46 l -7.67999,-14.88 c 4.86,-2.34 7.74,-7.08 7.74,-13.02 z m -22.62,-5.1 h 5.51999 c 3.24001,0 5.82,1.38 5.82,5.1 0,3.72 -2.57999,5.22 -5.82,5.22 h -5.51999 z" />
      <path
         id="path38"
         style="font-family:'Wotfard Bold';letter-spacing:0.075em"
         d="m 533.35656,100 h 10.98 l -15.96,-42 h -13.14 l -15.96,42 h 10.92 l 2.7,-7.5 h 17.7 z m -17.04,-16.92 5.34,-14.82 5.46,14.82 z" />
      <path
         id="path40"
         style="font-family:'Wotfard Bold';letter-spacing:0.075em"
         d="m 552.77969,100 h 10.08 V 72.88 l 18.36,27.12 h 10.02 V 58 h -10.08 v 24.48 l -17.1,-24.48 h -11.28 z" />
      <path
         id="path42"
         style="font-family:'Wotfard Bold';letter-spacing:0.075em"
         d="m 602.98281,100 h 29.28 v -9.6 h -19.08 v -6.78 h 17.22 v -9.3 h -17.22 V 67.3 h 19.08 V 58 h -29.28 z" />
      <path
         id="path44"
         style="font-family:'Wotfard Bold';letter-spacing:0.075em"
         d="m 672.95031,100 h 10.98 l -15.96,-42 h -13.14 l -15.96,42 h 10.92 l 2.7,-7.5 h 17.7 z m -17.04,-16.92 5.34,-14.82 5.46,14.82 z" />
    </g>
  </g>
</svg>
