<?xml version="1.0" encoding="UTF-8" standalone="no"?>
<svg
   xmlns:dc="http://purl.org/dc/elements/1.1/"
   xmlns:cc="http://creativecommons.org/ns#"
   xmlns:rdf="http://www.w3.org/1999/02/22-rdf-syntax-ns#"
   xmlns:svg="http://www.w3.org/2000/svg"
   xmlns="http://www.w3.org/2000/svg"
   id="svg16"
   width="800px"
   version="1.1"
   height="200px">
  <metadata
     id="metadata20">
    <rdf:RDF>
      <cc:Work
         rdf:about="">
        <dc:format>image/svg+xml</dc:format>
        <dc:type
           rdf:resource="http://purl.org/dc/dcmitype/StillImage" />
      </cc:Work>
    </rdf:RDF>
  </metadata>
  <defs
     id="defs4">
    <style
       id="style2"
       type="text/css"><![CDATA[    
     @font-face {font-family:Wotfard SemiBold;
     src: url('/Users/francesco/Repos/write-logos/src/fonts/Fonts_E_TEMPORANEA/Wotfard-SemiBold.otf');}
     @font-face {font-family:Akronim;
     src: url('/Users/francesco/Repos/write-logos/src/fonts/Fonts_X/Akronim-Regular.ttf');}
     ]]></style>
  </defs>
  <g
     id="g14"
     style="font-size:60px">
    <g
       style="text-anchor:middle"
       id="text12"
       aria-label="EXTEMPORANEA">
      <path
         id="path22"
         style="font-family:'Wotfard SemiBold';letter-spacing:0.075em"
         d="m 138.55937,100 h 28.08 v -8.16 h -19.38 V 82.9 h 17.52001 v -7.92 h -17.52001 v -9.06 h 19.38 V 58 h -28.08 z" />
      <path
         id="path24"
         style="font-family:Akronim;letter-spacing:0.05em"
         d="m 176.24687,99.28 q -0.12,0.54 -0.18,0.54 -0.12,-0.06 -0.18,-0.24 0,-0.18 0,-0.3 -0.18,-2.76 0.36,-5.34 0.54,-2.64 1.62,-5.16 1.14,-2.52 2.64,-4.86 1.56,-2.4 3.3,-4.62 l 1.32,-1.68 q -2.46,-5.52 -4.86,-10.68 -2.34,-5.22 -5.16,-9 -0.18,-0.24 -0.18,-0.36 0.06,-0.12 0.24,0 0.18,0.12 0.3,0.18 1.86,1.5 3.36,3.54 1.56,2.04 2.88,4.44 1.32,2.34 2.46,4.98 1.14,2.58 2.28,5.22 l 1.02,-1.26 q -0.3,-0.6 -0.96,-1.86 -0.66,-1.32 -1.56,-2.94 -0.9,-1.62 -1.92,-3.42 -0.96,-1.8 -1.98,-3.36 -1.02,-1.62 -1.92,-2.88 -0.9,-1.26 -1.56,-1.8 -0.48,-0.36 -0.3,-0.48 0.12,-0.06 0.54,0.06 1.2,0.48 2.52,1.68 1.38,1.2 2.58001,2.7 1.25999,1.5 2.27999,3.12 1.02,1.62 1.62,2.94 l 2.10001,4.5 0.65999,-0.72 q -1.2,-2.7 -2.58,-5.46 -1.38,-2.76 -3.3,-5.4 -0.18,-0.3 -0.24,-0.3 -0.06,0 0.06,-0.12 0,0 0.48,0.24 1.68,1.14 3.48,3.78 1.8,2.58 3.42,5.7 3.06,-3.6 6.12,-7.44 3.06,-3.9 4.98,-7.38 0.06,-0.12 0.12,-0.24 0.06,-0.12 0.24,0 0.06,0.06 0,0.24 0,0.18 0,0.24 -0.9,3.3 -2.88,6.54 -1.98,3.18 -4.44,6.36 -2.46,3.12 -5.16,6.24 -2.7,3.06 -5.04,6.12 -1.44,1.92 -2.88,4.14 -1.38,2.16 -2.52,4.5 -1.14,2.28 -1.98,4.68 -0.84,2.34 -1.2,4.62 z m 27.72001,0.48 q 0.35999,0.18 0.35999,0.24 0,0 -0.41999,0 -2.40001,-0.36 -4.5,-1.56 -2.04001,-1.26 -3.84001,-3.06 -1.74,-1.8 -3.3,-4.02 -1.5,-2.28 -2.76,-4.62 -1.92,2.28 -4.02,4.5 -2.1,2.16 -3.78,3.72 -0.29999,0.3 -0.54,0.54 -0.18,0.24 -0.3,0.18 -0.12,-0.06 0.06,-0.42 0.24,-0.36 0.36,-0.66 1.14,-2.22 2.58,-4.38 1.5,-2.16 3.12,-4.2 1.68,-2.1 3.42001,-4.14 1.73999,-2.04 3.41999,-4.08 2.1,-2.58 4.56,-5.76 2.46,-3.18 4.26,-6.54 0.18,-0.42 0.3,-0.42 0.12,0 0.06,0.3 -0.06,0.24 -0.06,0.42 -0.12,1.26 -0.9,2.94 -0.78,1.68 -1.92,3.54 -1.08,1.8 -2.4,3.72 -1.25999,1.86 -2.46,3.48 l 0.54,1.2 q 1.44,3.18 2.94,6.6 1.5,3.42 2.52,6.12 0.12,0.3 0.18,0.66 0.12,0.3 0,0.36 -0.06,0 -0.3,-0.24 -0.23999,-0.3 -0.48,-0.6 -2.1,-2.82 -3.78,-5.88 -1.62,-3.06 -3.18,-6.3 -0.72,0.9 -1.44,1.86 -0.72,0.9 -1.44,1.86 1.14,2.22 2.58001,4.44 1.43999,2.16 3.11999,4.14 1.68,1.92 3.54,3.54 1.92,1.56 3.90001,2.52 z m -6.42001,-28.2 q -2.34,3 -5.16,6.06 -2.82,3 -5.52,5.7 -0.12,0.06 -0.48,0.48 -0.36,0.36 -0.47999,0.24 -0.12001,-0.06 0.06,-0.6 0.23999,-0.54 0.41999,-0.78 0.42,-0.72 1.2,-1.8 0.78,-1.14 1.62,-2.28 0.9,-1.2 1.68,-2.28 0.84,-1.14 1.38,-1.8 1.38,-1.8 3,-4.02 1.68,-2.22 3.12,-4.44 1.5,-2.22 2.64,-4.2 1.2,-1.98 1.62,-3.18 0.18,-0.66 0.24,-0.66 0.06,0 0.12,0.24 0.12,0.18 0.12,0.48 0.06,1.32 -0.48,3.12 -0.54,1.74 -1.44,3.54 -0.84,1.8 -1.86,3.48 -0.96,1.62 -1.8,2.7 z m -18.06,24.36 q -0.48,1.2 -0.9,2.22 -0.36,1.02 -0.66,1.86 -0.06,0.12 -0.24,0.3 -0.12,0.18 -0.24,-0.3 -0.18,-1.02 0,-2.22 0.18,-1.2 1.02,-3.12 0.3,-0.72 0.78,-1.62 0.48,-0.96 1.02,-1.74 0.54,-0.84 0.96,-1.38 0.48,-0.54 0.72,-0.36 0,0.06 -0.12,0.42 -0.12,0.36 -0.3,0.78 -0.11999,0.42 -0.3,0.84 -0.12,0.36 -0.18,0.48 -0.42,1.14 -0.78,1.98 -0.35999,0.84 -0.78,1.86 z m 22.02,-0.12 q 0.96,0.9 1.86,1.68 0.96,0.72 1.98,1.38 0.12001,0.12 0.3,0.3 0.18,0.12 0.12,0.18 -0.12,0.12 -0.35999,0.12 -0.18001,-0.06 -0.48001,-0.12 -0.6,-0.18 -1.08,-0.3 -0.48,-0.12 -1.02,-0.36 -0.48,-0.3 -1.08,-0.72 -0.54,-0.42 -1.26,-1.14 -0.6,-0.6 -1.38,-1.5 -0.72,-0.96 -1.38,-1.86 -0.6,-0.96 -0.96,-1.68 -0.35999,-0.72 -0.18,-0.84 0.06,-0.06 0.36,0.18 0.3,0.24 0.6,0.6 0.3,0.3 0.54,0.6 0.3,0.3 0.42,0.42 0.84,0.9 1.56,1.62 0.72,0.72 1.44,1.44 z" />
      <path
         id="path26"
         style="font-family:'Wotfard SemiBold';letter-spacing:0.075em"
         d="m 221.19531,100 9.06,0.06 V 66.28 l 13.44,-0.06 V 58 h -35.88 v 8.22 h 13.38 z" />
      <path
         id="path28"
         style="font-family:'Wotfard SemiBold';letter-spacing:0.075em"
         d="m 253.91875,100 h 28.08 v -8.16 h -19.38 V 82.9 h 17.52 v -7.92 h -17.52 v -9.06 h 19.38 V 58 h -28.08 z" />
      <path
         id="path30"
         style="font-family:'Wotfard SemiBold';letter-spacing:0.075em"
         d="m 293.10625,100 h 8.7 V 72.1 l 13.74,21.72 h 0.6 l 13.86,-21.72 V 100 h 8.7 V 58 h -9.42 l -13.38,21.06 -13.26,-21.06 h -9.54 z" />
      <path
         id="path32"
         style="font-family:'Wotfard SemiBold';letter-spacing:0.075em"
         d="m 351.62969,100 h 8.88 V 86.08 h 7.86 c 8.7,0 14.34,-6.06 14.34,-14.1 0,-7.92 -5.64,-13.98 -14.34,-13.98 h -16.74 z m 8.88,-21.66 v -12.6 h 6.12 c 3.96,0 6.6,2.22 6.6,6.24 0,4.08 -2.64,6.36 -6.6,6.36 z" />
      <path
         id="path34"
         style="font-family:'Wotfard SemiBold';letter-spacing:0.075em"
         d="m 412.72937,100.9 c 10.98001,0 22.08,-7.26 22.08,-21.9 0,-14.64 -11.04,-21.9 -22.08,-21.9 -10.98,0 -22.01999,7.26 -22.01999,21.9 0,14.64 11.03999,21.9 22.01999,21.9 z m 0,-8.82 c -6.84,0 -12.48,-4.92 -12.48,-13.08 0,-8.1 5.64,-13.08 12.48,-13.08 6.96,0 12.48001,4.98 12.48001,13.08 0,8.16 -5.52001,13.08 -12.48001,13.08 z" />
      <path
         id="path36"
         style="font-family:'Wotfard SemiBold';letter-spacing:0.075em"
         d="m 477.33062,100 -8.27999,-15.54 c 5.09999,-2.04 8.15999,-6.78 8.15999,-12.72 0,-7.86 -5.76,-13.74 -14.45999,-13.74 h -17.16001 v 42 h 8.88 V 85.66 h 6.12 l 7.02001,14.34 z m -22.86,-34.26 h 6.66 c 3.78,0 6.6,1.98 6.6,6 0,3.9 -2.64,6 -6.6,6 h -6.66 z" />
      <path
         id="path38"
         style="font-family:'Wotfard SemiBold';letter-spacing:0.075em"
         d="m 518.11937,100 h 9.42 L 511.27938,58 h -10.74001 l -16.25999,42 h 9.3 l 3.17999,-8.58 h 18.12 z m -18.36,-16.62 6,-16.14 6.06,16.14 z" />
      <path
         id="path40"
         style="font-family:'Wotfard SemiBold';letter-spacing:0.075em"
         d="m 536.62188,100 h 8.57999 V 70.36 l 19.86,29.64 h 8.64 V 58 h -8.57999 V 85 L 546.46187,58 h -9.83999 z" />
      <path
         id="path42"
         style="font-family:'Wotfard SemiBold';letter-spacing:0.075em"
         d="m 586.59063,100 h 28.07999 v -8.16 h -19.38 V 82.9 h 17.52 v -7.92 h -17.52 v -9.06 h 19.38 V 58 h -28.07999 z" />
      <path
         id="path44"
         style="font-family:'Wotfard SemiBold';letter-spacing:0.075em"
         d="m 655.83812,100 h 9.42 l -16.26,-42 h -10.74 l -16.26,42 h 9.30001 l 3.17999,-8.58 h 18.12 z m -18.36,-16.62 6,-16.14 6.06001,16.14 z" />
    </g>
  </g>
</svg>
