<?xml version="1.0" encoding="UTF-8" standalone="no"?>
<svg
   xmlns:dc="http://purl.org/dc/elements/1.1/"
   xmlns:cc="http://creativecommons.org/ns#"
   xmlns:rdf="http://www.w3.org/1999/02/22-rdf-syntax-ns#"
   xmlns:svg="http://www.w3.org/2000/svg"
   xmlns="http://www.w3.org/2000/svg"
   id="svg16"
   width="800px"
   version="1.1"
   height="200px">
  <metadata
     id="metadata20">
    <rdf:RDF>
      <cc:Work
         rdf:about="">
        <dc:format>image/svg+xml</dc:format>
        <dc:type
           rdf:resource="http://purl.org/dc/dcmitype/StillImage" />
      </cc:Work>
    </rdf:RDF>
  </metadata>
  <defs
     id="defs4">
    <style
       id="style2"
       type="text/css"><![CDATA[    
     @font-face {font-family:Wotfard SemiBold;
     src: url('/Users/francesco/Repos/write-logos/src/fonts/Fonts_E_TEMPORANEA/Wotfard-SemiBold.otf');}
     @font-face {font-family:Zian;
     src: url('/Users/francesco/Repos/write-logos/src/fonts/Fonts_X/Zianfreepromo.ttf');}
     ]]></style>
  </defs>
  <g
     id="g14"
     style="font-size:60px">
    <g
       style="text-anchor:middle"
       id="text12"
       aria-label="EXTEMPORANEA">
      <path
         id="path22"
         style="font-family:'Wotfard SemiBold';letter-spacing:0.075em"
         d="m 130.64922,100 h 28.08 v -8.16 h -19.38 V 82.9 h 17.52 v -7.92 h -17.52 v -9.06 h 19.38 V 58 h -28.08 z" />
      <path
         id="path24"
         style="font-family:Zian;letter-spacing:0.05em"
         d="m 170.41211,57.988281 h 0.82031 q 2.08008,0 4.59961,2.8125 10.95703,10.839844 11.13281,10.869141 12.77344,-12.832031 13.35938,-13.007813 1.23047,-0.673828 2.19726,-0.673828 h 0.82032 q 2.7832,0 4.42382,3.222656 0.35157,0.84961 0.35157,1.494141 v 0.996094 q 0,2.255859 -3.92578,5.566406 l -9.78516,9.755859 q 0,0.08789 12.45117,12.363282 1.25977,1.49414 1.25977,3.046875 v 0.761718 q 0,3.222657 -3.83789,4.716797 Q 203.81055,100 203.51758,100 h -1.17188 q -2.13867,0 -5.27343,-3.632813 L 186.87695,86.40625 Q 176.1543,96.923828 173.75195,99.179687 172.43359,100 171.4082,100 h -1.17187 q -2.60742,0 -4.27735,-3.222656 -0.32226,-0.84961 -0.32226,-1.494141 v -0.761719 q 0,-2.548828 3.51562,-5.302734 l 10.19532,-10.195313 v -0.05859 q -12.86133,-12.65625 -12.86133,-12.861328 -0.84961,-1.376954 -0.84961,-2.490235 v -0.732422 q 0,-2.90039 3.25195,-4.570312 0.84961,-0.322266 1.52344,-0.322266 z" />
      <path
         id="path26"
         style="font-family:'Wotfard SemiBold';letter-spacing:0.075em"
         d="m 229.10547,100 9.06,0.06 V 66.28 l 13.44,-0.06 V 58 h -35.88 v 8.22 h 13.38 z" />
      <path
         id="path28"
         style="font-family:'Wotfard SemiBold';letter-spacing:0.075em"
         d="m 261.82891,100 h 28.08 v -8.16 h -19.38 V 82.9 h 17.52 v -7.92 h -17.52 v -9.06 h 19.38 V 58 h -28.08 z" />
      <path
         id="path30"
         style="font-family:'Wotfard SemiBold';letter-spacing:0.075em"
         d="m 301.01641,100 h 8.7 V 72.1 l 13.74,21.72 h 0.6 l 13.86,-21.72 V 100 h 8.7 V 58 h -9.42 l -13.38,21.06 -13.26,-21.06 h -9.54 z" />
      <path
         id="path32"
         style="font-family:'Wotfard SemiBold';letter-spacing:0.075em"
         d="m 359.53984,100 h 8.88 V 86.08 h 7.86 c 8.7,0 14.34,-6.06 14.34,-14.1 0,-7.92 -5.64,-13.98 -14.34,-13.98 h -16.74 z m 8.88,-21.66 v -12.6 h 6.12 c 3.96,0 6.6,2.22 6.6,6.24 0,4.08 -2.64,6.36 -6.6,6.36 z" />
      <path
         id="path34"
         style="font-family:'Wotfard SemiBold';letter-spacing:0.075em"
         d="m 420.63953,100.9 c 10.98,0 22.08,-7.26 22.08,-21.9 0,-14.64 -11.04,-21.9 -22.08,-21.9 -10.98,0 -22.02,7.26 -22.02,21.9 0,14.64 11.04,21.9 22.02,21.9 z m 0,-8.82 c -6.84,0 -12.48,-4.92 -12.48,-13.08 0,-8.1 5.64,-13.08 12.48,-13.08 6.96,0 12.48,4.98 12.48,13.08 0,8.16 -5.52,13.08 -12.48,13.08 z" />
      <path
         id="path36"
         style="font-family:'Wotfard SemiBold';letter-spacing:0.075em"
         d="m 485.24078,100 -8.28,-15.54 c 5.1,-2.04 8.16,-6.78 8.16,-12.72 0,-7.86 -5.76,-13.74 -14.46,-13.74 h -17.16 v 42 h 8.88 V 85.66 h 6.12 l 7.02,14.34 z m -22.86,-34.26 h 6.66 c 3.78,0 6.6,1.98 6.6,6 0,3.9 -2.64,6 -6.6,6 h -6.66 z" />
      <path
         id="path38"
         style="font-family:'Wotfard SemiBold';letter-spacing:0.075em"
         d="m 526.02953,100 h 9.42 l -16.26,-42 h -10.74 l -16.26,42 h 9.3 l 3.18,-8.58 h 18.12 z m -18.36,-16.62 6,-16.14 6.06,16.14 z" />
      <path
         id="path40"
         style="font-family:'Wotfard SemiBold';letter-spacing:0.075em"
         d="m 544.53203,100 h 8.58 V 70.36 l 19.86,29.64 h 8.64 V 58 h -8.58 v 27 l -18.66,-27 h -9.84 z" />
      <path
         id="path42"
         style="font-family:'Wotfard SemiBold';letter-spacing:0.075em"
         d="m 594.50078,100 h 28.08 v -8.16 h -19.38 V 82.9 h 17.52 v -7.92 h -17.52 v -9.06 h 19.38 V 58 h -28.08 z" />
      <path
         id="path44"
         style="font-family:'Wotfard SemiBold';letter-spacing:0.075em"
         d="m 663.74828,100 h 9.42 l -16.26,-42 h -10.74 l -16.26,42 h 9.3 l 3.18,-8.58 h 18.12 z m -18.36,-16.62 6,-16.14 6.06,16.14 z" />
    </g>
  </g>
</svg>
