<?xml version="1.0" encoding="UTF-8" standalone="no"?>
<svg
   xmlns:dc="http://purl.org/dc/elements/1.1/"
   xmlns:cc="http://creativecommons.org/ns#"
   xmlns:rdf="http://www.w3.org/1999/02/22-rdf-syntax-ns#"
   xmlns:svg="http://www.w3.org/2000/svg"
   xmlns="http://www.w3.org/2000/svg"
   id="svg16"
   width="800px"
   version="1.1"
   height="200px">
  <metadata
     id="metadata20">
    <rdf:RDF>
      <cc:Work
         rdf:about="">
        <dc:format>image/svg+xml</dc:format>
        <dc:type
           rdf:resource="http://purl.org/dc/dcmitype/StillImage" />
      </cc:Work>
    </rdf:RDF>
  </metadata>
  <defs
     id="defs4">
    <style
       id="style2"
       type="text/css"><![CDATA[    
     @font-face {font-family:Wotfard SemiBold;
     src: url('/Users/francesco/Repos/write-logos/src/fonts/Fonts_E_TEMPORANEA/Wotfard-SemiBold.otf');}
     @font-face {font-family:Deadlist;
     src: url('/Users/francesco/Repos/write-logos/src/fonts/Fonts_X/Deadlist.ttf');}
     ]]></style>
  </defs>
  <g
     id="g14"
     style="font-size:60px">
    <g
       style="text-anchor:middle"
       id="text12"
       aria-label="EXTEMPORANEA">
      <path
         id="path22"
         style="font-family:'Wotfard SemiBold';letter-spacing:0.075em"
         d="m 133.87187,100 h 28.08 v -8.16 h -19.38 V 82.9 h 17.52001 v -7.92 h -17.52001 v -9.06 h 19.38 V 58 h -28.08 z" />
      <path
         id="path24"
         style="font-family:Deadlist;letter-spacing:0.05em"
         d="m 168.85937,56.44 h 13.44 v 12.42 l 2.4,2.52 v 0.06 q -0.96,0.48 -0.96,0.66 l -0.18,0.24 q 0.18,0 1.32,0.12 l -0.06,0.18 h 0.42 v 0.06 l -0.36,0.12 v 0.06 h 0.66 q 0,0.24 0.78,0.36 h 0.12 v -0.06 q -0.48,-0.3 -0.65999,-0.3 v -0.06 q 0.47999,-0.12 0.71999,-0.12 v -0.06 h -0.18 l 0.12,-0.18 q -1.26,-0.12 -2.34,-0.3 V 72.1 q 0.24,0 2.94,-0.36 v -0.12 q -0.3,0 -0.6,-0.06 v -0.12 q 0.6,0 0.6,-0.36 0.72,-0.12 0.72,-0.36 h 0.18 q 0.3,0 0.48,-0.06 l 0.78,0.18 1.92,-1.98 V 56.44 h 13.38 V 70.3 q -0.54,0.42 -1.44,0.42 l 0.12,0.18 q -0.36,0 -0.54,0.18 l 0.18,0.36 h -0.36 v 0.12 q 0.42,0.06 0.9,0.06 v 0.12 l -2.52,0.36 v 0.06 l 2.7,0.3 v 0.06 h -0.18 v 0.12 h 0.36001 v 0.06 q -0.12001,0 -0.54001,0.12 v 0.06 h 0.54001 l -0.12001,0.18 0.48,0.12 v 0.06 h -0.18 v 0.12 q 0.42,0 0.78,0.06 v 0.12 q -0.84,0 -1.14,0.24 -0.36,0 -0.36,0.36 h 0.18 v 0.12 q -1.07999,0 -1.38,0.42 3.24001,0.3 3.96,0.54 v 0.12 q -0.24,0 -0.78,0.18 v 0.06 l 0.36,0.12 v 0.06 l -2.46,0.54 v 0.12 h 0.18 v 0.06 q -0.89999,0 -0.89999,0.18 0.11999,0 0.11999,0.12 h -0.36 l 0.06,0.18 h -0.72 v 0.06 q 0.42,0 1.44,0.18 v 0.12 l -0.9,0.06 v 0.12 h 0.48 v 0.06 q -0.36,0 -1.62,0.36 -0.3,0 -0.3,0.18 0.66,0 1.02,0.3 v 0.06 l -0.36,0.12 v 0.18 h 0.18 v 0.06 q -1.62,0 -3.06,0.36 v 0.12 h 0.36 v 0.06 l -0.48,0.12 v 0.06 h 0.66 l -0.18,0.3 q 0.06,0 0.06,0.06 h -0.18 v 0.18 q 0.48,0.18 1.98,0.3 0,0.18 -0.54,0.18 v 0.06 l 1.02,0.18 q 0,0.18 -0.36,0.18 v 0.12 l 0.6,0.06 h 0.36 v 0.18 h 1.02 q 0,0.42 2.76,0.54 V 82 q -0.6,0 -0.9,0.42 h 0.3 l -0.12,0.18 q 0.18,0.12 1.08,0.18 v 0.12 q -0.78,0 -0.78,0.18 0.06,0 0.06,0.06 -0.12,0.12 -0.42,0.12 v 0.06 q 0.36,0 0.36,0.18 -0.12,0 -0.12,0.12 l 0.54,0.06 v 0.12 q -0.36,0 -1.44,0.24 v 0.18 h 0.18 l -0.06,0.18 v 0.12 h 0.36 v 0.06 q -0.3,0 -0.66,0.12 v 0.06 q 0.18,0 1.02,0.3 0,0.18 -0.36,0.18 v 0.06 h 0.18 v 0.12 h -0.18 v 0.06 q 0.96,0 0.96,0.3 v 0.06 l -0.9,-0.24 V 100 h -13.38 V 87.58 q 0,-0.12 -1.44,-1.44 l 0.06,-0.48 v -0.18 h -0.72 q 0,-0.18 -0.23999,-0.18 v -0.06 h 0.23999 q 0,-0.18 -1.32,-0.48 v -0.18 h 0.24 v -0.06 q -0.18,0 -0.6,-0.3 -0.18,-0.06 -0.3,-0.06 v -0.12 q 0.84,-0.24 1.2,-0.24 v -0.12 q -0.24,0 -0.72,-0.06 l 0.06,-0.18 -0.9,-0.18 0.12,0.18 v 0.06 h -0.18 q 0,0.18 0.36,0.18 v 0.12 q -1.86,0.12 -1.92,0.42 0.12,0 0.12,0.12 -0.3,0 -0.3,0.18 h 0.3 v 0.06 q -0.36,0 -0.84,0.12 v 0.06 q 0.66,0.18 0.66,0.36 l -0.54,0.12 0.06,0.18 h -0.24 v 0.06 h 0.72 q 0,0.24 0.06,0.36 h -0.18 v 0.12 q 0.36,0.06 0.66,0.06 v 0.18 q -0.48,0 -1.02,0.54 -0.29999,-0.18 -0.78,-0.18 -0.18,0.12 -0.3,0.12 l 0.3,-0.54 h -0.12 l -1.32,1.44 V 100 h -13.44 V 85.6 h 0.18 v -0.12 h -0.18 l 0.12,-0.18 h -0.18 v -0.06 h 0.36 v -0.18 q -0.9,-0.3 -0.9,-0.3 0,-0.18 0.42,-0.18 v -0.06 h -0.24 l 0.06,-0.18 v -0.12 q -0.24,0 -0.24,-0.18 1.14,-0.24 1.5,-0.24 v -0.12 l -0.53999,-0.06 V 83.5 h 0.17999 v -0.06 l -0.42,-0.12 v -0.06 l 0.54,-0.12 v -0.06 h -0.18 q 0,-0.18 0.18,-0.18 h 0.9 v -0.12 l -0.48,-0.06 q 0,-0.18 0.3,-0.18 l -0.12,-0.18 q 1.38,-0.36 1.62,-0.36 v -0.12 q -1.5,0 -1.68,-0.54 h -0.66 q 0,-0.24 -0.54,-0.24 v -0.12 q 0.3,0 0.84,-0.06 0,-0.3 -0.66,-0.3 v -0.06 q 0.66,0 1.02,-0.12 v -0.06 l -0.9,-0.12 h -0.18 v -0.18 q 0,-0.12 0.96,-0.42 v -0.12 h -0.36 v -0.06 l 0.84,-0.12 -0.12,-0.18 0.54,-0.18 q 2.46,-0.18 3.36,-0.18 h 0.06 q 0,-0.36 0.72,-0.36 h 0.18 q 0,-0.06 0.12,-0.24 l -1.08,-0.18 v -0.12 q 0.18,0 0.54,-0.18 l -0.12,-0.18 h 0.36 V 77.5 h -0.54 v -0.12 h 0.48 V 77.2 h -0.12 q -1.44,-0.18 -1.86,-0.18 v -0.06 h 0.6 v -0.12 h -0.24 v -0.06 h 0.24 v -0.12 q -0.06,0 -0.72,-0.06 v -0.12 h 0.90001 v -0.06 h -0.42001 V 76.3 h 0.24 v -0.06 h -0.18 q 0,-0.18 1.26,-0.36 v -0.12 q -0.42,-0.18 -0.78,-0.18 v -0.06 h 0.18 V 75.4 h -0.29999 v -0.06 h 0.35999 v -0.12 l -5.28,-0.6 V 74.5 h 0.18 v -0.06 h -0.3 v -0.18 h 0.66 v -0.12 q -0.3,0 -0.72,-0.24 h -0.18 v -0.12 h 0.42 v -0.06 l -0.42,-0.12 v -0.06 h 0.78001 v -0.12 q -0.12001,0 -0.90001,-0.06 v -0.12 h 0.18 v -0.06 q -0.72,-0.3 -0.96,-0.3 v -0.06 l 0.54,-0.12 v -0.06 q -0.3,0 -0.3,-0.18 -0.36,0 -2.7,-0.3 V 72.1 q 0.3,0 2.46,-0.36 h 0.06 v -0.12 q -0.3,0 -0.78,-0.06 v -0.12 h 0.36 v -0.06 l -0.18,-0.3 q 0,0 0.36,-0.06 0.18,0.36 1.08,0.36 l 0.42,-0.12 z m 13.26,15.66 v 0.06 q 0.06,0 0.24,0.12 h 0.18 v -0.12 q -0.18,0 -0.36,-0.06 z m 3.96,14.1 h 0.06 q 0.78,0.12 0.9,0.12 v 0.06 h -0.18 v 0.12 h 0.36001 v 0.06 h -0.90001 q -0.12,0 -0.24,-0.24 z" />
      <path
         id="path26"
         style="font-family:'Wotfard SemiBold';letter-spacing:0.075em"
         d="m 225.88281,100 9.06,0.06 V 66.28 l 13.44,-0.06 V 58 h -35.88 v 8.22 h 13.38 z" />
      <path
         id="path28"
         style="font-family:'Wotfard SemiBold';letter-spacing:0.075em"
         d="m 258.60625,100 h 28.08 v -8.16 h -19.38 V 82.9 h 17.52 v -7.92 h -17.52 v -9.06 h 19.38 V 58 h -28.08 z" />
      <path
         id="path30"
         style="font-family:'Wotfard SemiBold';letter-spacing:0.075em"
         d="m 297.79375,100 h 8.7 V 72.1 l 13.74,21.72 h 0.6 l 13.86,-21.72 V 100 h 8.7 V 58 h -9.42 l -13.38,21.06 -13.26,-21.06 h -9.54 z" />
      <path
         id="path32"
         style="font-family:'Wotfard SemiBold';letter-spacing:0.075em"
         d="m 356.31719,100 h 8.88 V 86.08 h 7.86 c 8.7,0 14.34,-6.06 14.34,-14.1 0,-7.92 -5.64,-13.98 -14.34,-13.98 h -16.74 z m 8.88,-21.66 v -12.6 h 6.12 c 3.96,0 6.6,2.22 6.6,6.24 0,4.08 -2.64,6.36 -6.6,6.36 z" />
      <path
         id="path34"
         style="font-family:'Wotfard SemiBold';letter-spacing:0.075em"
         d="m 417.41687,100.9 c 10.98001,0 22.08,-7.26 22.08,-21.9 0,-14.64 -11.04,-21.9 -22.08,-21.9 -10.98,0 -22.01999,7.26 -22.01999,21.9 0,14.64 11.03999,21.9 22.01999,21.9 z m 0,-8.82 c -6.84,0 -12.48,-4.92 -12.48,-13.08 0,-8.1 5.64,-13.08 12.48,-13.08 6.96,0 12.48001,4.98 12.48001,13.08 0,8.16 -5.52001,13.08 -12.48001,13.08 z" />
      <path
         id="path36"
         style="font-family:'Wotfard SemiBold';letter-spacing:0.075em"
         d="m 482.01812,100 -8.27999,-15.54 c 5.09999,-2.04 8.15999,-6.78 8.15999,-12.72 0,-7.86 -5.76,-13.74 -14.45999,-13.74 h -17.16001 v 42 h 8.88 V 85.66 h 6.12 l 7.02001,14.34 z m -22.86,-34.26 h 6.66 c 3.78,0 6.6,1.98 6.6,6 0,3.9 -2.64,6 -6.6,6 h -6.66 z" />
      <path
         id="path38"
         style="font-family:'Wotfard SemiBold';letter-spacing:0.075em"
         d="m 522.80687,100 h 9.42 l -16.26,-42 h -10.74 l -16.25999,42 h 9.3 l 3.17999,-8.58 h 18.12 z m -18.36,-16.62 6,-16.14 6.06001,16.14 z" />
      <path
         id="path40"
         style="font-family:'Wotfard SemiBold';letter-spacing:0.075em"
         d="m 541.30938,100 h 8.57999 V 70.36 l 19.86,29.64 h 8.64 V 58 h -8.57999 V 85 L 551.14937,58 h -9.83999 z" />
      <path
         id="path42"
         style="font-family:'Wotfard SemiBold';letter-spacing:0.075em"
         d="m 591.27813,100 h 28.07999 v -8.16 h -19.38 V 82.9 h 17.52 v -7.92 h -17.52 v -9.06 h 19.38 V 58 h -28.07999 z" />
      <path
         id="path44"
         style="font-family:'Wotfard SemiBold';letter-spacing:0.075em"
         d="m 660.52562,100 h 9.42 l -16.26,-42 h -10.74 l -16.26,42 h 9.30001 l 3.17999,-8.58 h 18.12 z m -18.36,-16.62 6,-16.14 6.06001,16.14 z" />
    </g>
  </g>
</svg>
