<?xml version="1.0" encoding="UTF-8" standalone="no"?>
<svg
   xmlns:dc="http://purl.org/dc/elements/1.1/"
   xmlns:cc="http://creativecommons.org/ns#"
   xmlns:rdf="http://www.w3.org/1999/02/22-rdf-syntax-ns#"
   xmlns:svg="http://www.w3.org/2000/svg"
   xmlns="http://www.w3.org/2000/svg"
   id="svg16"
   width="800px"
   version="1.1"
   height="200px">
  <metadata
     id="metadata20">
    <rdf:RDF>
      <cc:Work
         rdf:about="">
        <dc:format>image/svg+xml</dc:format>
        <dc:type
           rdf:resource="http://purl.org/dc/dcmitype/StillImage" />
      </cc:Work>
    </rdf:RDF>
  </metadata>
  <defs
     id="defs4">
    <style
       id="style2"
       type="text/css"><![CDATA[    
     @font-face {font-family:Wotfard SemiBold;
     src: url('/Users/francesco/Repos/write-logos/src/fonts/Fonts_E_TEMPORANEA/Wotfard-SemiBold.otf');}
     @font-face {font-family:Modak;
     src: url('/Users/francesco/Repos/write-logos/src/fonts/Fonts_X/Modak-Regular.ttf');}
     ]]></style>
  </defs>
  <g
     id="g14"
     style="font-size:60px">
    <g
       style="text-anchor:middle"
       id="text12"
       aria-label="EXTEMPORANEA">
      <path
         id="path22"
         style="font-family:'Wotfard SemiBold';letter-spacing:0.075em"
         d="m 134.51641,100 h 28.08 v -8.16 h -19.38 V 82.9 h 17.52 v -7.92 h -17.52 v -9.06 h 19.38 V 58 h -28.08 z" />
      <path
         id="path24"
         style="font-family:Modak;letter-spacing:0.05em"
         d="m 188.60547,93.115234 -3.39844,6.621094 q -2.19726,0.820312 -4.77539,0.820312 -4.54102,0 -7.44141,-2.578124 -2.90039,-2.578125 -2.90039,-6.94336 0,-3.867187 2.60743,-6.884765 2.60742,-3.017579 7.38281,-5.06836 -0.35156,-0.966797 -1.20117,-0.966797 -0.84961,0 -3.10547,1.552735 -2.19727,-1.142578 -3.86719,-3.779297 -1.64063,-2.636719 -1.64063,-6.09375 0,-3.457031 2.54883,-5.917969 2.54883,-2.460937 7.03125,-2.460937 3.86719,0 6.35742,1.435546 l 3.10547,6.181641 2.51953,-6.328125 q 2.49024,-1.113281 5.56641,-1.113281 4.36524,0 7.08984,2.402344 2.72461,2.460937 2.72461,6.884765 0,3.66211 -2.63671,6.884766 -2.60743,3.193359 -6.70899,5.068359 0.32227,0.84961 1.14258,0.84961 0.84961,0 2.72461,-1.289063 l 6.03515,7.558594 q 0,4.716797 -2.34375,7.529297 -2.57812,3.105471 -7.11914,3.105471 -6.91406,0 -9.69726,-7.470706 z" />
      <path
         id="path26"
         style="font-family:'Wotfard SemiBold';letter-spacing:0.075em"
         d="m 225.23828,100 9.06,0.06 V 66.28 l 13.44,-0.06 V 58 h -35.88 v 8.22 h 13.38 z" />
      <path
         id="path28"
         style="font-family:'Wotfard SemiBold';letter-spacing:0.075em"
         d="m 257.96172,100 h 28.08 v -8.16 h -19.38 V 82.9 h 17.52 v -7.92 h -17.52 v -9.06 h 19.38 V 58 h -28.08 z" />
      <path
         id="path30"
         style="font-family:'Wotfard SemiBold';letter-spacing:0.075em"
         d="m 297.14922,100 h 8.7 V 72.1 l 13.74,21.72 h 0.6 l 13.86,-21.72 V 100 h 8.7 V 58 h -9.42 l -13.38,21.06 -13.26,-21.06 h -9.54 z" />
      <path
         id="path32"
         style="font-family:'Wotfard SemiBold';letter-spacing:0.075em"
         d="m 355.67266,100 h 8.88 V 86.08 h 7.86 c 8.7,0 14.34,-6.06 14.34,-14.1 0,-7.92 -5.64,-13.98 -14.34,-13.98 h -16.74 z m 8.88,-21.66 v -12.6 h 6.12 c 3.96,0 6.6,2.22 6.6,6.24 0,4.08 -2.64,6.36 -6.6,6.36 z" />
      <path
         id="path34"
         style="font-family:'Wotfard SemiBold';letter-spacing:0.075em"
         d="m 416.77234,100.9 c 10.98,0 22.08,-7.26 22.08,-21.9 0,-14.64 -11.04,-21.9 -22.08,-21.9 -10.98,0 -22.02,7.26 -22.02,21.9 0,14.64 11.04,21.9 22.02,21.9 z m 0,-8.82 c -6.84,0 -12.48,-4.92 -12.48,-13.08 0,-8.1 5.64,-13.08 12.48,-13.08 6.96,0 12.48,4.98 12.48,13.08 0,8.16 -5.52,13.08 -12.48,13.08 z" />
      <path
         id="path36"
         style="font-family:'Wotfard SemiBold';letter-spacing:0.075em"
         d="m 481.37359,100 -8.28,-15.54 c 5.1,-2.04 8.16,-6.78 8.16,-12.72 0,-7.86 -5.76,-13.74 -14.46,-13.74 h -17.16 v 42 h 8.88 V 85.66 h 6.12 l 7.02,14.34 z m -22.86,-34.26 h 6.66 c 3.78,0 6.6,1.98 6.6,6 0,3.9 -2.64,6 -6.6,6 h -6.66 z" />
      <path
         id="path38"
         style="font-family:'Wotfard SemiBold';letter-spacing:0.075em"
         d="m 522.16234,100 h 9.42 l -16.26,-42 h -10.74 l -16.26,42 h 9.3 l 3.18,-8.58 h 18.12 z m -18.36,-16.62 6,-16.14 6.06,16.14 z" />
      <path
         id="path40"
         style="font-family:'Wotfard SemiBold';letter-spacing:0.075em"
         d="m 540.66484,100 h 8.58 V 70.36 l 19.86,29.64 h 8.64 V 58 h -8.58 v 27 l -18.66,-27 h -9.84 z" />
      <path
         id="path42"
         style="font-family:'Wotfard SemiBold';letter-spacing:0.075em"
         d="m 590.63359,100 h 28.08 v -8.16 h -19.38 V 82.9 h 17.52 v -7.92 h -17.52 v -9.06 h 19.38 V 58 h -28.08 z" />
      <path
         id="path44"
         style="font-family:'Wotfard SemiBold';letter-spacing:0.075em"
         d="m 659.88109,100 h 9.42 l -16.26,-42 h -10.74 l -16.26,42 h 9.3 l 3.18,-8.58 h 18.12 z m -18.36,-16.62 6,-16.14 6.06,16.14 z" />
    </g>
  </g>
</svg>
