<?xml version="1.0" encoding="UTF-8" standalone="no"?>
<svg
   xmlns:dc="http://purl.org/dc/elements/1.1/"
   xmlns:cc="http://creativecommons.org/ns#"
   xmlns:rdf="http://www.w3.org/1999/02/22-rdf-syntax-ns#"
   xmlns:svg="http://www.w3.org/2000/svg"
   xmlns="http://www.w3.org/2000/svg"
   id="svg16"
   width="800px"
   version="1.1"
   height="200px">
  <metadata
     id="metadata20">
    <rdf:RDF>
      <cc:Work
         rdf:about="">
        <dc:format>image/svg+xml</dc:format>
        <dc:type
           rdf:resource="http://purl.org/dc/dcmitype/StillImage" />
      </cc:Work>
    </rdf:RDF>
  </metadata>
  <defs
     id="defs4">
    <style
       id="style2"
       type="text/css"><![CDATA[    
     @font-face {font-family:Wotfard Bold;
     src: url('/Users/francesco/Repos/write-logos/src/fonts/Fonts_E_TEMPORANEA/Wotfard-Bold.otf');}
     @font-face {font-family:Astral Wave;
     src: url('/Users/francesco/Repos/write-logos/src/fonts/Fonts_X/AstralWave.ttf');}
     ]]></style>
  </defs>
  <g
     id="g14"
     style="font-size:60px">
    <g
       style="text-anchor:middle"
       id="text12"
       aria-label="EXTEMPORANEA">
      <path
         id="path22"
         style="font-family:'Wotfard Bold';letter-spacing:0.075em"
         d="m 125.01016,100 h 29.28 v -9.6 h -19.08 v -6.78 h 17.22 v -9.3 h -17.22 V 67.3 h 19.08 V 58 h -29.28 z" />
      <path
         id="path24"
         style="font-family:'Astral Wave';letter-spacing:0.05em"
         d="m 202.60937,46.679687 h 2.05079 q 5.36132,2.958985 6.15234,4.775391 v 2.050781 q 0,2.050782 -6.15234,2.050782 l 1.37695,2.050781 v 2.050781 q 0,2.050781 -6.15234,2.753906 l 0.67382,1.347657 q 0,1.816406 -3.42773,3.427734 -1.69922,0 -8.87695,-1.376953 5.47851,3.925781 5.47851,4.804687 v 2.050782 q 0,2.050781 -5.47851,2.724609 v 0.673828 q 15.02929,6.621094 15.02929,11.630859 0,9.375 3.42774,11.63086 v 1.347658 q 0,0.99609 -2.05078,2.05078 h -0.67383 q -6.85547,0 -6.85547,-11.601563 0,-3.427735 -0.67383,-3.427735 Q 178,77.441406 178,74.013672 v -0.673828 q 4.77539,-2.753907 4.77539,-3.427735 -12.97852,-6.533203 -14.35547,-9.550781 l 0.67383,-3.427734 q -3.22266,0 -6.15234,-5.478516 0.70312,-2.724609 4.10156,-2.724609 15.41015,10.927734 21.88476,10.927734 v -0.673828 q 0,-1.611328 4.80469,-2.050781 l -2.05078,-2.72461 q 0,-4.101562 4.10156,-4.101562 h 4.77539 q 0.17578,-3.427735 2.05078,-3.427735 z m -27.36328,32.8125 h 0.70313 q 9.55078,2.607422 9.55078,6.826172 0,2.314453 -10.25391,5.478516 v 0.673828 q 3.13477,1.347656 3.42774,2.753906 v 2.050782 q 0,2.548828 -17.08008,4.101559 l -1.37695,-2.050778 v -1.376953 q 0,-1.875 6.82617,-3.427735 v -0.673828 q -1.69922,0 -2.05078,-2.724609 0,-2.841797 10.2539,-5.478516 l -2.05078,-3.427734 q 1.02539,-2.72461 2.05078,-2.72461 z" />
      <path
         id="path26"
         style="font-family:'Wotfard Bold';letter-spacing:0.075em"
         d="m 228.21109,100 10.74,0.06 V 67.78 l 13.2,-0.06 V 58 h -37.08 v 9.72 h 13.14 z" />
      <path
         id="path28"
         style="font-family:'Wotfard Bold';letter-spacing:0.075em"
         d="m 261.46328,100 h 29.28 v -9.6 h -19.08 v -6.78 h 17.22 v -9.3 h -17.22 V 67.3 h 19.08 V 58 h -29.28 z" />
      <path
         id="path30"
         style="font-family:'Wotfard Bold';letter-spacing:0.075em"
         d="m 300.65078,100 h 10.26 V 74.2 l 12.78,19.8 h 0.6 l 12.9,-19.8 V 100 h 10.26 V 58 h -11.28 l -12.12,18.66 -12,-18.66 h -11.4 z" />
      <path
         id="path32"
         style="font-family:'Wotfard Bold';letter-spacing:0.075em"
         d="m 359.17422,100 h 10.5 V 86.92 h 7.08 c 9.06,0 14.94,-6.12 14.94,-14.52 0,-8.34 -5.88,-14.4 -14.94,-14.4 h -17.58 z m 10.5,-22.08 V 67 h 4.92 c 3.36,0 5.82,1.56 5.82,5.4 0,3.84 -2.46,5.52 -5.82,5.52 z" />
      <path
         id="path34"
         style="font-family:'Wotfard Bold';letter-spacing:0.075em"
         d="m 421.51984,100.9 c 10.98,0 22.38,-7.08 22.38,-21.9 0,-14.88 -11.34,-21.9 -22.38,-21.9 -10.98,0 -22.38,7.08 -22.38,21.9 0,14.82 11.4,21.9 22.38,21.9 z m 0,-10.5 c -6.36,0 -10.98,-4.56 -10.98,-11.4 0,-6.78 4.62,-11.4 10.98,-11.4 6.42,0 10.98,4.62 10.98,11.4 0,6.84 -4.56,11.4 -10.98,11.4 z" />
      <path
         id="path36"
         style="font-family:'Wotfard Bold';letter-spacing:0.075em"
         d="m 486.95828,72.1 c 0,-8.22 -5.88,-14.1 -14.94,-14.1 h -18.18 v 42 h 10.5 V 86.62 h 4.92 l 6.18,13.38 h 11.46 l -7.68,-14.88 c 4.86,-2.34 7.74,-7.08 7.74,-13.02 z m -22.62,-5.1 h 5.52 c 3.24,0 5.82,1.38 5.82,5.1 0,3.72 -2.58,5.22 -5.82,5.22 h -5.52 z" />
      <path
         id="path38"
         style="font-family:'Wotfard Bold';letter-spacing:0.075em"
         d="m 527.67297,100 h 10.98 l -15.96,-42 h -13.14 l -15.96,42 h 10.92 l 2.7,-7.5 h 17.7 z m -17.04,-16.92 5.34,-14.82 5.46,14.82 z" />
      <path
         id="path40"
         style="font-family:'Wotfard Bold';letter-spacing:0.075em"
         d="m 547.09609,100 h 10.08 V 72.88 l 18.36,27.12 h 10.02 V 58 h -10.08 v 24.48 l -17.1,-24.48 h -11.28 z" />
      <path
         id="path42"
         style="font-family:'Wotfard Bold';letter-spacing:0.075em"
         d="m 597.29922,100 h 29.28 v -9.6 h -19.08 v -6.78 h 17.22 v -9.3 h -17.22 V 67.3 h 19.08 V 58 h -29.28 z" />
      <path
         id="path44"
         style="font-family:'Wotfard Bold';letter-spacing:0.075em"
         d="m 667.26672,100 h 10.98 l -15.96,-42 h -13.14 l -15.96,42 h 10.92 l 2.7,-7.5 h 17.7 z m -17.04,-16.92 5.34,-14.82 5.46,14.82 z" />
    </g>
  </g>
</svg>
