<?xml version="1.0" encoding="UTF-8" standalone="no"?>
<svg
   xmlns:dc="http://purl.org/dc/elements/1.1/"
   xmlns:cc="http://creativecommons.org/ns#"
   xmlns:rdf="http://www.w3.org/1999/02/22-rdf-syntax-ns#"
   xmlns:svg="http://www.w3.org/2000/svg"
   xmlns="http://www.w3.org/2000/svg"
   id="svg16"
   width="800px"
   version="1.1"
   height="200px">
  <metadata
     id="metadata20">
    <rdf:RDF>
      <cc:Work
         rdf:about="">
        <dc:format>image/svg+xml</dc:format>
        <dc:type
           rdf:resource="http://purl.org/dc/dcmitype/StillImage" />
      </cc:Work>
    </rdf:RDF>
  </metadata>
  <defs
     id="defs4">
    <style
       id="style2"
       type="text/css"><![CDATA[    
     @font-face {font-family:Wotfard SemiBold;
     src: url('/Users/francesco/Repos/write-logos/src/fonts/Fonts_E_TEMPORANEA/Wotfard-SemiBold.otf');}
     @font-face {font-family:Mercury Blob;
     src: url('/Users/francesco/Repos/write-logos/src/fonts/Fonts_X/Mercblob.ttf');}
     ]]></style>
  </defs>
  <g
     id="g14"
     style="font-size:60px">
    <g
       style="text-anchor:middle"
       id="text12"
       aria-label="EXTEMPORANEA">
      <path
         id="path22"
         style="font-family:'Wotfard SemiBold';letter-spacing:0.075em"
         d="m 123.55938,100 h 28.07999 v -8.16 h -19.38 V 82.9 h 17.52001 v -7.92 h -17.52001 v -9.06 h 19.38 V 58 h -28.07999 z" />
      <path
         id="path24"
         style="font-family:'Mercury Blob';letter-spacing:0.05em"
         d="m 173.60687,61.54 q 1.98,0 3.36,-1.38 1.44001,-1.44 1.44001,-3.36 0,-1.98 -1.44001,-3.36 -1.38,-1.44 -3.36,-1.44 -1.98,0 -3.36,1.38 -1.38,1.38 -1.38,3.42 0,1.92 1.32,3.36 1.38,1.38 3.42,1.38 z m -10.02,0 q 1.98,0 3.36,-1.38 1.38,-1.38 1.38,-3.36 0,-1.92 -1.38,-3.36 -1.38,-1.44 -3.36,-1.44 -1.98,0 -3.42,1.44 -1.38,1.38 -1.38,3.36 0,1.98 1.38,3.36 1.38,1.38 3.42,1.38 z m 10.02,10.02 q 1.92,0 3.36,-1.38 1.44001,-1.38 1.44001,-3.36 0,-1.98 -1.44001,-3.36 -1.38,-1.44 -3.36,-1.44 -1.98,0 -3.36,1.38 -1.38,1.38 -1.38,3.42 0,1.98 1.38,3.36 1.38,1.38 3.36,1.38 z m 20.1,30.18 q 1.98,0 3.36,-1.44 1.44,-1.38 1.44,-3.36 0,-1.98 -1.38,-3.36 -1.38,-1.38 -3.42,-1.38 -1.92,0 -3.36,1.38 -1.43999,1.38 -1.43999,3.36 0,1.98 1.37999,3.36 1.44,1.44 3.42,1.44 z m 10.02,10.02 q 1.92,0 3.36001,-1.38 1.43999,-1.38 1.43999,-3.36 0,-1.98 -1.43999,-3.42 -1.38001,-1.38 -3.36001,-1.38 -1.98,0 -3.36,1.38 -1.38,1.38 -1.38,3.42 0,1.98 1.38,3.36 1.38,1.38 3.36,1.38 z m 0.06,-50.22 q 1.98,0 3.36,-1.38 1.38,-1.38 1.38,-3.36 0,-1.92 -1.38,-3.36 -1.38,-1.44 -3.36,-1.44 -1.98,0 -3.42,1.44 -1.38,1.38 -1.38,3.36 0,3.54 -0.84,4.38 -0.84,0.84 -4.44,0.84 -1.98,0 -3.42,1.44 -1.37999,1.38 -1.37999,3.3 l 0.06,0.42 q 0,3.3 -0.90001,4.08 -0.9,0.78 -4.38,0.78 -1.98,0 -3.42,1.44 -1.38,1.38 -1.38,3.36 v 0.42 q 0,3.24 -0.9,4.08 -0.84,0.78 -4.38,0.78 -1.98,0 -3.36,1.38 -1.38,1.38 -1.38,3.36 0,1.92 1.38,3.36 1.38,1.44 3.36,1.44 1.98,0 3.36,-1.38 1.44001,-1.44 1.44001,-3.42 0,-3.54 0.83999,-4.38 0.84,-0.84 4.44,-0.84 1.98,0 3.36,-1.38 1.38,-1.38 1.38,-3.42 v -0.42 q 0,-3.24 0.84,-4.02 0.9,-0.84 4.44,-0.84 1.92,0 3.36,-1.38 1.44,-1.38 1.44,-3.36 V 66.4 q 0,-3.3 0.84,-4.08 0.84,-0.78 4.44,-0.78 z m -10.08,20.1 q 1.98,0 3.36,-1.38 1.44,-1.44 1.44,-3.42 0,-1.98 -1.38,-3.36 -1.38,-1.38 -3.42,-1.38 -1.98,0 -3.36,1.38 -1.37999,1.38 -1.37999,3.36 0,3.6 -0.84001,4.44 -0.84,0.84 -4.44,0.84 -1.92,0 -3.36,1.38 -1.44,1.38 -1.44,3.36 v 0.42 q 0,3.3 -0.9,4.08 -0.9,0.78 -4.38,0.78 -1.98,0 -3.36,1.38 -1.38,1.38 -1.38,3.42 v 0.42 q 0,3.24 -0.9,4.02 -0.84,0.84 -4.38,0.84 -1.92,0 -3.36,1.38 -1.44,1.38 -1.44,3.36 0,1.98 1.38,3.36 1.44,1.44 3.42,1.44 1.98,0 3.36,-1.38 1.38,-1.38 1.38,-3.42 0,-3.54 0.84,-4.38 0.84,-0.84 4.44,-0.84 1.98,0 3.36,-1.44 1.44001,-1.38 1.44001,-3.36 v -0.42 q 0,-3.24 0.83999,-4.02 0.9,-0.84 4.44,-0.84 1.98,0 3.36,-1.38 1.38,-1.38 1.38,-3.36 V 86.5 q 0,-3.3 0.9,-4.08 0.9,-0.78 4.38,-0.78 z m 0,30.12 q 1.92,0 3.36,-1.38 1.44,-1.38 1.44,-3.36 0,-1.98 -1.44,-3.42 -1.38,-1.38 -3.36,-1.38 -1.98,0 -3.42,1.38 -1.37999,1.44 -1.37999,3.42 0,1.98 1.37999,3.36 1.38,1.38 3.42,1.38 z" />
      <path
         id="path26"
         style="font-family:'Wotfard SemiBold';letter-spacing:0.075em"
         d="m 236.19531,100 9.06,0.06 V 66.28 l 13.44,-0.06 V 58 h -35.88 v 8.22 h 13.38 z" />
      <path
         id="path28"
         style="font-family:'Wotfard SemiBold';letter-spacing:0.075em"
         d="m 268.91875,100 h 28.08 v -8.16 h -19.38 V 82.9 h 17.52 v -7.92 h -17.52 v -9.06 h 19.38 V 58 h -28.08 z" />
      <path
         id="path30"
         style="font-family:'Wotfard SemiBold';letter-spacing:0.075em"
         d="m 308.10625,100 h 8.7 V 72.1 l 13.74,21.72 h 0.6 l 13.86,-21.72 V 100 h 8.7 V 58 h -9.42 l -13.38,21.06 -13.26,-21.06 h -9.54 z" />
      <path
         id="path32"
         style="font-family:'Wotfard SemiBold';letter-spacing:0.075em"
         d="m 366.62969,100 h 8.88 V 86.08 h 7.86 c 8.7,0 14.34,-6.06 14.34,-14.1 0,-7.92 -5.64,-13.98 -14.34,-13.98 h -16.74 z m 8.88,-21.66 v -12.6 h 6.12 c 3.96,0 6.6,2.22 6.6,6.24 0,4.08 -2.64,6.36 -6.6,6.36 z" />
      <path
         id="path34"
         style="font-family:'Wotfard SemiBold';letter-spacing:0.075em"
         d="m 427.72937,100.9 c 10.98001,0 22.08,-7.26 22.08,-21.9 0,-14.64 -11.04,-21.9 -22.08,-21.9 -10.98,0 -22.01999,7.26 -22.01999,21.9 0,14.64 11.03999,21.9 22.01999,21.9 z m 0,-8.82 c -6.84,0 -12.48,-4.92 -12.48,-13.08 0,-8.1 5.64,-13.08 12.48,-13.08 6.96,0 12.48001,4.98 12.48001,13.08 0,8.16 -5.52001,13.08 -12.48001,13.08 z" />
      <path
         id="path36"
         style="font-family:'Wotfard SemiBold';letter-spacing:0.075em"
         d="m 492.33062,100 -8.27999,-15.54 c 5.09999,-2.04 8.15999,-6.78 8.15999,-12.72 0,-7.86 -5.76,-13.74 -14.45999,-13.74 h -17.16001 v 42 h 8.88 V 85.66 h 6.12 l 7.02001,14.34 z m -22.86,-34.26 h 6.66 c 3.78,0 6.6,1.98 6.6,6 0,3.9 -2.64,6 -6.6,6 h -6.66 z" />
      <path
         id="path38"
         style="font-family:'Wotfard SemiBold';letter-spacing:0.075em"
         d="m 533.11937,100 h 9.42 l -16.26,-42 h -10.74 l -16.25999,42 h 9.3 l 3.17999,-8.58 h 18.12 z m -18.36,-16.62 6,-16.14 6.06001,16.14 z" />
      <path
         id="path40"
         style="font-family:'Wotfard SemiBold';letter-spacing:0.075em"
         d="m 551.62188,100 h 8.57999 V 70.36 l 19.86,29.64 h 8.64 V 58 h -8.57999 V 85 L 561.46187,58 h -9.83999 z" />
      <path
         id="path42"
         style="font-family:'Wotfard SemiBold';letter-spacing:0.075em"
         d="m 601.59063,100 h 28.07999 v -8.16 h -19.38 V 82.9 h 17.52 v -7.92 h -17.52 v -9.06 h 19.38 V 58 h -28.07999 z" />
      <path
         id="path44"
         style="font-family:'Wotfard SemiBold';letter-spacing:0.075em"
         d="m 670.83812,100 h 9.42 l -16.26,-42 h -10.74 l -16.26,42 h 9.30001 l 3.17999,-8.58 h 18.12 z m -18.36,-16.62 6,-16.14 6.06001,16.14 z" />
    </g>
  </g>
</svg>
