<?xml version="1.0" encoding="UTF-8" standalone="no"?>
<svg
   xmlns:dc="http://purl.org/dc/elements/1.1/"
   xmlns:cc="http://creativecommons.org/ns#"
   xmlns:rdf="http://www.w3.org/1999/02/22-rdf-syntax-ns#"
   xmlns:svg="http://www.w3.org/2000/svg"
   xmlns="http://www.w3.org/2000/svg"
   id="svg16"
   width="800px"
   version="1.1"
   height="200px">
  <metadata
     id="metadata20">
    <rdf:RDF>
      <cc:Work
         rdf:about="">
        <dc:format>image/svg+xml</dc:format>
        <dc:type
           rdf:resource="http://purl.org/dc/dcmitype/StillImage" />
      </cc:Work>
    </rdf:RDF>
  </metadata>
  <defs
     id="defs4">
    <style
       id="style2"
       type="text/css"><![CDATA[    
     @font-face {font-family:Wotfard Bold;
     src: url('/Users/francesco/Repos/write-logos/src/fonts/Fonts_E_TEMPORANEA/Wotfard-Bold.otf');}
     @font-face {font-family:MADE Soulmaze Outline;
     src: url('/Users/francesco/Repos/write-logos/src/fonts/Fonts_X/MADE_Outline.otf');}
     ]]></style>
  </defs>
  <g
     id="g14"
     style="font-size:60px">
    <g
       style="text-anchor:middle"
       id="text12"
       aria-label="EXTEMPORANEA">
      <path
         id="path22"
         style="font-family:'Wotfard Bold';letter-spacing:0.075em"
         d="m 125.65469,100 h 29.28 v -9.6 h -19.08 v -6.78 h 17.22 v -9.3 h -17.22 V 67.3 h 19.08 V 58 h -29.28 z" />
      <path
         id="path24"
         style="font-family:'MADE Soulmaze Outline';letter-spacing:0.05em"
         d="m 199.34219,78.16 8.88,-20.16 h -18.18 l -4.08,13.68 h -0.54 l -4.08,-13.68 h -18.18 l 8.88,20.16 -9.48,21.84 h 18.78 l 4.08,-13.68 h 0.54 l 4.08,13.68 h 18.78 z m -12.96,7.62 h -1.38 l -4.08,13.62 h -17.52 l 9.24,-21.24 -8.64,-19.62 h 16.92 l 4.08,13.68 h 1.38 l 4.08,-13.68 h 16.92 l -8.64,19.62 9.24,21.24 h -17.52 z" />
      <path
         id="path26"
         style="font-family:'Wotfard Bold';letter-spacing:0.075em"
         d="m 227.56656,100 10.74,0.06 V 67.78 l 13.2,-0.06 V 58 h -37.08 v 9.72 h 13.14 z" />
      <path
         id="path28"
         style="font-family:'Wotfard Bold';letter-spacing:0.075em"
         d="m 260.81875,100 h 29.28 v -9.6 h -19.08 v -6.78 h 17.22 v -9.3 h -17.22 V 67.3 h 19.08 V 58 h -29.28 z" />
      <path
         id="path30"
         style="font-family:'Wotfard Bold';letter-spacing:0.075em"
         d="m 300.00625,100 h 10.26 V 74.2 l 12.78,19.8 h 0.6 l 12.9,-19.8 V 100 h 10.26 V 58 h -11.28 l -12.12,18.66 -12,-18.66 h -11.4 z" />
      <path
         id="path32"
         style="font-family:'Wotfard Bold';letter-spacing:0.075em"
         d="m 358.52969,100 h 10.5 V 86.92 h 7.08 c 9.06,0 14.94,-6.12 14.94,-14.52 0,-8.34 -5.88,-14.4 -14.94,-14.4 h -17.58 z m 10.5,-22.08 V 67 h 4.92 c 3.36,0 5.82,1.56 5.82,5.4 0,3.84 -2.46,5.52 -5.82,5.52 z" />
      <path
         id="path34"
         style="font-family:'Wotfard Bold';letter-spacing:0.075em"
         d="m 420.87531,100.9 c 10.98,0 22.38,-7.08 22.38,-21.9 0,-14.88 -11.34,-21.9 -22.38,-21.9 -10.98,0 -22.38,7.08 -22.38,21.9 0,14.82 11.4,21.9 22.38,21.9 z m 0,-10.5 c -6.36,0 -10.98,-4.56 -10.98,-11.4 0,-6.78 4.62,-11.4 10.98,-11.4 6.42,0 10.98,4.62 10.98,11.4 0,6.84 -4.56,11.4 -10.98,11.4 z" />
      <path
         id="path36"
         style="font-family:'Wotfard Bold';letter-spacing:0.075em"
         d="m 486.31375,72.1 c 0,-8.22 -5.88,-14.1 -14.94,-14.1 h -18.18 v 42 h 10.5 V 86.62 h 4.92 l 6.18,13.38 h 11.46 l -7.68,-14.88 c 4.86,-2.34 7.74,-7.08 7.74,-13.02 z m -22.62,-5.1 h 5.52 c 3.24,0 5.82,1.38 5.82,5.1 0,3.72 -2.58,5.22 -5.82,5.22 h -5.52 z" />
      <path
         id="path38"
         style="font-family:'Wotfard Bold';letter-spacing:0.075em"
         d="m 527.02844,100 h 10.98 l -15.96,-42 h -13.14 l -15.96,42 h 10.92 l 2.7,-7.5 h 17.7 z m -17.04,-16.92 5.34,-14.82 5.46,14.82 z" />
      <path
         id="path40"
         style="font-family:'Wotfard Bold';letter-spacing:0.075em"
         d="m 546.45156,100 h 10.08 V 72.88 l 18.36,27.12 h 10.02 V 58 h -10.08 v 24.48 l -17.1,-24.48 h -11.28 z" />
      <path
         id="path42"
         style="font-family:'Wotfard Bold';letter-spacing:0.075em"
         d="m 596.65469,100 h 29.28 v -9.6 h -19.08 v -6.78 h 17.22 v -9.3 h -17.22 V 67.3 h 19.08 V 58 h -29.28 z" />
      <path
         id="path44"
         style="font-family:'Wotfard Bold';letter-spacing:0.075em"
         d="m 666.62219,100 h 10.98 l -15.96,-42 h -13.14 l -15.96,42 h 10.92 l 2.7,-7.5 h 17.7 z m -17.04,-16.92 5.34,-14.82 5.46,14.82 z" />
    </g>
  </g>
</svg>
